<svg width="192" height="192" viewBox="0 0 192 192" fill="none" xmlns="http://www.w3.org/2000/svg">
<g clip-path="url(#clip0_4880_34639)">
<path d="M96 192C149.019 192 192 149.019 192 96C192 42.9807 149.019 0 96 0C42.9807 0 0 42.9807 0 96C0 149.019 42.9807 192 96 192Z" fill="#1B1A19"/>
<path d="M92.9802 89.1399C92.7302 89.5199 92.4802 89.7699 92.2202 90.1499C92.3502 90.2799 92.4702 90.2799 92.6002 90.3999C93.7302 91.1599 94.7402 91.9099 95.7502 92.9199C100.03 97.4499 101.79 102.74 100.53 108.91C99.4002 114.7 96.1201 118.98 90.8401 121.62C88.7001 122.75 86.3102 123.26 83.9202 123.51H82.1602C79.7702 123.38 77.5002 122.88 75.3602 121.75C70.7002 119.48 67.5602 115.83 65.9202 110.93C65.2902 109.04 65.1602 107.15 65.1602 105.27V74.4299C65.1602 72.4199 66.5402 70.1499 69.1902 69.7699C72.2102 69.3899 74.3502 71.5299 74.6002 73.7999V105.9C74.7302 109.93 77.7502 113.33 81.6502 113.96C85.9302 114.72 89.9602 111.95 91.2202 107.92C92.4802 103.51 89.8402 98.2299 84.6702 97.2199C83.6602 96.9699 82.6602 97.0899 81.6502 97.2199C80.6402 97.3499 79.6402 96.9699 78.8801 96.3399C77.5001 95.0799 77.3701 92.9399 78.6301 91.4299C80.1402 89.6699 81.6502 87.9099 83.1602 86.1399C87.1902 81.4799 91.0902 76.6999 95.1202 72.0399C95.6202 71.5399 96.0002 70.9099 96.5002 70.3999C97.2602 69.5199 98.2602 68.8899 99.5201 68.7599C99.7701 68.7599 100.15 68.7599 100.4 68.6299H100.53C100.66 68.6299 100.78 68.7599 100.78 68.7599C102.54 69.1399 103.93 70.1399 104.56 71.7799C105.19 73.5399 104.94 75.0499 103.8 76.4399C100.15 80.5899 96.6302 84.8699 92.9802 89.1499V89.1399Z" fill="#618090"/>
<path d="M59.62 74.4101V105.12C59.62 106.25 59.49 107.39 59.37 108.52C58.99 110.53 58.36 112.42 57.36 114.18C54.84 118.59 51.19 121.48 46.41 122.86C45.28 123.24 44.02 123.36 42.76 123.49H40.37C36.97 123.24 33.95 122.23 31.18 120.22C28.03 117.95 25.89 115.06 24.51 111.41C23.75 109.4 23.5 107.26 23.5 105.12V74.2801C23.5 72.1401 25.01 69.8701 27.53 69.6201C30.42 69.2401 32.56 71.2601 32.82 73.6501V105.75C32.95 109.78 35.84 113.18 39.87 113.93C44.65 114.81 48.93 111.54 49.69 107.13C50.19 106.5 50.19 106 50.19 105.37V74.0301C50.19 71.8901 51.83 70.0001 53.97 69.5001C56.61 69.0001 59 70.6301 59.51 73.2801C59.64 73.7801 59.64 74.0401 59.64 74.4101H59.62Z" fill="#618090"/>
<path d="M168.499 105.5V119.22C168.369 121.49 166.739 123.12 164.469 123.5H163.339C162.209 123.37 161.199 122.87 160.449 121.99C159.569 121.11 159.189 119.98 159.189 118.72V92.41C159.189 90.9 159.189 89.52 159.059 88C158.929 85.61 157.929 83.59 156.419 81.71C154.659 79.57 152.389 78.31 149.619 77.93C143.449 76.92 138.169 80.95 136.909 86.36C135.649 91.39 138.039 96.56 142.569 98.95C145.459 100.46 148.489 100.71 151.629 99.58C153.519 98.95 155.279 99.33 156.659 100.71C159.049 103.1 157.919 107.26 154.769 108.39C153.259 108.89 151.619 109.27 149.989 109.4C146.339 109.78 142.819 109.15 139.419 107.64C133.499 105 129.219 99.58 127.969 93.17C125.829 82.85 131.749 72.65 141.689 69.51C143.449 68.88 145.339 68.63 147.099 68.5H148.859C151.499 68.63 154.019 69.13 156.289 70.26C162.579 73.28 166.489 78.06 167.999 84.86C168.249 85.87 168.379 86.87 168.379 87.88V105C168.509 105.25 168.509 105.38 168.509 105.5H168.499Z" fill="#F8700B"/>
<path d="M122.94 73.2799V118.59C122.94 121.11 121.3 123.12 118.79 123.5H117.78C117.15 123.37 116.65 123.25 116.02 123C114.38 122.12 113.63 120.73 113.5 118.85V73.4099C113.5 71.5199 114.26 70.1399 115.89 69.2599C116.39 68.8799 117.02 68.7599 117.65 68.6299H118.78C120.16 68.8799 121.3 69.5099 122.05 70.6399C122.55 71.3999 122.93 72.2799 122.93 73.2799H122.94Z" fill="#F8700B"/>
</g>
<defs>
<clipPath id="clip0_4880_34639">
<rect width="192" height="192" fill="white"/>
</clipPath>
</defs>
</svg>
