<svg width="192" height="192" viewBox="0 0 192 192" fill="none" xmlns="http://www.w3.org/2000/svg">
<g clip-path="url(#clip0_4880_34693)">
<path d="M96 192C149.019 192 192 149.019 192 96C192 42.9807 149.019 0 96 0C42.9807 0 0 42.9807 0 96C0 149.019 42.9807 192 96 192Z" fill="white"/>
<path d="M75.0352 96.8244C76.8052 94.2444 78.4751 91.8344 80.1351 89.4244C89.4051 75.9944 98.6851 62.5644 107.945 49.1144C108.355 48.5144 108.765 48.2544 109.515 48.2544C113.515 48.2944 117.525 48.2744 121.775 48.2744C115.355 57.5844 109.025 66.7544 102.575 76.1044H120.075C119.525 76.9044 119.095 77.5444 118.655 78.1844C116.495 81.3144 114.325 84.4244 112.195 87.5744C111.825 88.1244 111.415 88.3144 110.765 88.3044C105.555 88.2744 100.355 88.3044 95.1452 88.2744C94.4052 88.2744 93.9651 88.5044 93.5551 89.1144C91.9751 91.4744 90.3651 93.8144 88.7151 96.1244C88.4851 96.4544 87.9851 96.7844 87.6051 96.7844C83.4951 96.8344 79.3852 96.8144 75.0352 96.8144V96.8244Z" fill="#262626"/>
<path d="M75.5749 93.1845C75.0649 93.9245 74.4849 94.7645 73.8449 95.6845C71.1249 93.0445 68.8649 90.1545 67.0549 86.9145C60.1449 74.5645 61.3549 60.0445 70.2349 48.9245C70.5049 48.5845 71.0549 48.3545 71.4949 48.3045C72.4049 48.2145 73.3249 48.2745 74.2449 48.2745C62.6649 63.6345 63.2849 78.5245 75.5849 93.1845H75.5749Z" fill="#262626"/>
<path d="M84.8646 48.2744C81.2846 51.2144 78.4646 54.3644 76.5446 58.2244C71.7046 67.9744 72.6746 77.2844 78.9346 86.0844C79.5646 86.9744 79.6646 87.5544 78.9346 88.3344C78.5746 88.7244 78.3046 89.2044 77.9346 89.7244C74.9946 86.4844 72.7146 82.9244 71.4046 78.8444C67.7246 67.3644 70.6446 57.4344 78.6846 48.7644C78.8846 48.5544 79.1846 48.3144 79.4346 48.3044C81.1346 48.2644 82.8346 48.2844 84.8546 48.2844L84.8646 48.2744Z" fill="#262626"/>
<path d="M129.254 38.9944V88.2244H127.034C127.014 87.8944 126.984 87.6044 126.984 87.3044C126.984 72.5544 126.984 57.8044 126.984 43.0444C126.984 42.5944 127.144 42.1044 127.374 41.7144C127.904 40.8444 128.524 40.0244 129.244 38.9844L129.254 38.9944Z" fill="#262626"/>
<path d="M83.0078 45.0946C88.4578 39.3646 103.938 35.0346 114.948 36.1646C114.138 37.3146 113.408 38.3946 112.628 39.4346C112.508 39.5846 112.128 39.5846 111.868 39.5846C104.128 39.5146 96.7978 41.1046 89.9778 44.8646C89.7978 44.9646 89.5978 45.0745 89.4078 45.0745C87.2978 45.0946 85.1978 45.0745 83.0078 45.0745V45.0946Z" fill="#262626"/>
<path d="M73.7756 45.0943C80.8956 35.5443 106.206 27.6943 118.236 31.2243C117.376 32.8443 117.386 32.7843 115.276 32.6643C103.166 31.9443 91.9756 34.6543 81.9256 41.5943C80.6856 42.4443 79.5156 43.4043 78.3856 44.3943C77.8056 44.9043 77.2356 45.1543 76.4656 45.1043C75.5956 45.0443 74.7156 45.0943 73.7656 45.0943H73.7756Z" fill="#262626"/>
<path d="M126.976 40.5945V31.2245C125.126 31.2245 123.326 31.2145 121.526 31.2445C121.346 31.2445 121.136 31.4945 121.006 31.6745C118.396 35.4445 115.786 39.2145 113.186 42.9945C113.136 43.0645 113.126 43.1745 113.066 43.3745H124.906C124.386 44.9045 124.146 45.0845 122.746 45.0845C119.146 45.0845 115.556 45.0845 111.956 45.0845H110.766C111.076 44.6145 111.276 44.2845 111.506 43.9645C114.366 39.8245 117.246 35.7045 120.056 31.5245C120.636 30.6645 121.226 30.2945 122.276 30.3345C124.566 30.4245 126.856 30.3645 129.296 30.3645C129.296 31.7845 129.146 33.1645 129.326 34.4845C129.676 36.9245 128.646 38.7745 126.966 40.5845L126.976 40.5945Z" fill="#262626"/>
<path d="M124.404 126.094C124.094 129.604 123.804 132.904 123.514 136.204C123.334 138.214 123.184 140.224 122.964 142.234C122.884 142.964 123.134 143.234 123.854 143.224C124.984 143.194 126.114 143.184 127.244 143.224C127.974 143.254 128.264 142.994 128.334 142.244C128.754 137.264 129.244 132.294 129.624 127.314C129.704 126.324 130.024 126.034 130.974 126.084C132.444 126.154 133.914 126.104 135.394 126.104C135.724 126.104 136.054 126.144 136.454 126.164C136.264 128.384 136.084 130.494 135.894 132.594C135.434 137.634 134.974 142.684 134.504 147.724C134.417 148.691 133.907 149.174 132.974 149.174C114.544 149.174 96.1236 149.174 77.6936 149.174H76.4336C76.6236 147.264 76.7836 145.474 76.9936 143.684C77.0136 143.514 77.3336 143.304 77.5436 143.244C77.8336 143.164 78.1536 143.214 78.4636 143.214C86.5136 143.214 94.5636 143.214 102.614 143.214C104.174 143.214 104.184 143.214 104.224 141.634C104.234 141.154 104.214 140.674 104.164 140.204C104.004 138.574 103.194 137.634 101.584 137.324C100.814 137.174 100.014 137.144 99.2336 137.144C95.4336 137.124 91.6336 137.144 87.8236 137.144C87.4536 137.144 87.0736 137.144 86.5336 137.144C86.6636 135.544 86.9136 134.024 86.8736 132.504C86.8036 129.964 87.9236 128.214 89.7436 126.534C93.4636 123.104 96.9636 119.424 100.604 115.904C101.014 115.504 101.714 115.224 102.284 115.204C104.644 115.124 107.004 115.174 109.714 115.174C104.354 120.554 99.1836 125.734 93.8036 131.124C94.4436 131.174 94.7936 131.224 95.1436 131.224C97.3336 131.224 99.5336 131.174 101.724 131.224C107.644 131.354 111.784 134.884 110.974 141.664C110.784 143.234 110.814 143.234 112.384 143.244C113.304 143.244 114.234 143.214 115.154 143.244C115.864 143.274 116.174 143.044 116.244 142.274C116.674 137.224 117.174 132.184 117.604 127.144C117.674 126.364 117.904 126.074 118.704 126.104C120.544 126.154 122.384 126.124 124.384 126.124L124.404 126.094Z" fill="#262626"/>
<path d="M58.4927 140.714C58.5627 139.964 58.6327 139.254 58.6927 138.544C59.1927 132.954 59.7227 127.364 60.1827 121.774C60.2627 120.794 60.6127 120.464 61.5627 120.554C62.4327 120.634 63.3227 120.574 64.3227 120.574C64.1727 122.244 64.0527 123.774 63.9127 125.294C63.5927 128.904 63.2827 132.524 62.9227 136.134C62.8327 137.004 63.0827 137.254 63.9527 137.244C66.8627 137.194 69.7727 137.224 72.6827 137.224C72.9727 137.224 73.2727 137.174 73.6327 137.144C72.8227 134.394 73.6527 131.774 73.7427 129.134C73.7727 128.384 73.8827 127.634 73.9027 126.884C73.9427 125.504 73.2927 124.794 71.9427 124.614C71.2927 124.524 71.0127 124.704 70.9627 125.394C70.7727 127.914 70.5327 130.444 70.3027 132.964C70.2727 133.334 70.2127 133.694 70.1627 134.094H66.2827C66.2827 133.684 66.2527 133.354 66.2827 133.014C66.6227 129.194 66.9927 125.384 67.3127 121.564C67.3727 120.844 67.5927 120.524 68.3627 120.574C70.0327 120.664 71.7227 120.574 73.3927 120.744C76.6327 121.074 78.1227 122.754 78.0027 125.994C77.9027 128.594 77.5727 131.174 77.3927 133.774C77.3327 134.614 77.4227 135.474 77.5027 136.324C77.5627 136.944 77.9327 137.244 78.6227 137.254C81.0227 137.314 81.0227 137.344 81.2327 134.944C81.4427 132.624 81.6727 130.314 81.8427 127.994C81.8927 127.294 82.1627 127.044 82.8627 127.074C83.8427 127.124 84.8327 127.084 85.9127 127.084C85.9127 127.504 85.9327 127.794 85.9127 128.084C85.5527 132.034 85.1727 135.984 84.8227 139.944C84.7727 140.564 84.6127 140.844 83.9227 140.844C75.6727 140.824 67.4127 140.834 59.1627 140.824C58.9627 140.824 58.7727 140.774 58.4727 140.724L58.4927 140.714Z" fill="#262626"/>
<path d="M147.304 115.204C147.254 116.004 147.234 116.684 147.174 117.354C146.244 127.704 145.314 138.064 144.354 148.414C144.324 148.694 143.934 149.154 143.704 149.164C141.724 149.224 139.744 149.194 137.594 149.194C137.704 147.794 137.794 146.484 137.914 145.174C138.624 137.414 139.334 129.644 140.044 121.884C140.224 119.914 140.384 117.934 140.594 115.964C140.624 115.694 140.904 115.244 141.084 115.234C143.124 115.184 145.164 115.204 147.304 115.204Z" fill="#262626"/>
<path d="M156.695 104.824C156.885 104.984 157.045 105.114 157.195 105.254C158.515 106.544 159.835 107.834 161.225 109.204C159.855 110.624 158.405 111.774 156.575 112.194C154.755 112.614 152.875 112.954 151.005 112.984C144.575 113.094 138.135 113.054 131.695 113.094C130.975 113.094 130.715 112.864 130.795 112.144C130.935 110.854 131.055 109.554 131.115 108.264C131.155 107.404 131.465 107.114 132.365 107.124C137.875 107.164 143.385 107.144 148.895 107.144C150.975 107.144 153.005 106.934 154.875 105.964C155.475 105.654 156.035 105.244 156.685 104.834L156.695 104.824Z" fill="#262626"/>
<path d="M111.844 154.754C114.784 152.204 117.284 151.964 119.224 154.034C120.884 155.794 120.874 158.514 119.224 160.254C117.244 162.334 114.844 162.104 111.814 159.474C110.754 160.924 109.334 161.794 107.484 161.654C106.254 161.564 105.184 161.034 104.364 160.064C102.804 158.214 102.994 155.414 104.794 153.764C106.784 151.944 109.374 152.294 111.854 154.744L111.844 154.754Z" fill="#262626"/>
<path d="M30.7734 141.134C30.8934 140.094 30.9334 139.104 31.1534 138.154C31.2034 137.914 31.8034 137.654 32.1534 137.654C36.6334 137.624 41.1134 137.634 45.6034 137.634C48.2834 137.634 48.2934 137.634 48.5534 134.944C48.7634 132.764 48.9834 130.584 49.1334 128.404C49.1834 127.634 49.4834 127.424 50.2134 127.464C51.1634 127.524 52.1134 127.474 53.1334 127.474C53.1534 127.784 53.2034 128.014 53.1834 128.234C52.8334 132.254 52.4634 136.274 52.1234 140.294C52.0634 140.964 51.8734 141.244 51.1434 141.244C44.6434 141.224 38.1434 141.234 31.6434 141.224C31.3834 141.224 31.1134 141.164 30.7734 141.124V141.134Z" fill="#262626"/>
<path d="M52.8052 145.384C53.0052 143.364 53.2152 141.544 53.3752 139.714C53.7152 136.004 54.0652 132.284 54.3552 128.564C54.4152 127.754 54.6552 127.404 55.5152 127.464C56.4552 127.534 57.4052 127.484 58.4752 127.484C58.3652 128.814 58.2752 129.994 58.1752 131.174C57.7952 135.504 57.3952 139.834 57.0352 144.164C56.9652 145.064 56.5852 145.444 55.6652 145.394C54.6852 145.344 53.6952 145.384 52.7852 145.384H52.8052Z" fill="#262626"/>
<path d="M137.742 119.104C137.742 121.654 135.732 123.694 133.202 123.684C130.702 123.684 128.712 121.704 128.692 119.184C128.662 116.614 130.642 114.624 133.222 114.634C135.762 114.634 137.732 116.594 137.742 119.104Z" fill="#262626"/>
<path d="M83.8651 121.454C85.6551 119.984 87.0851 119.894 88.2551 121.124C89.2651 122.184 89.2751 123.774 88.2751 124.834C87.1151 126.074 85.6151 125.984 84.1551 124.744C83.0351 125.094 82.0851 125.554 81.1051 125.624C80.5451 125.664 79.8251 125.144 79.3851 124.684C78.4351 123.684 78.5851 122.024 79.5651 121.054C80.7551 119.884 82.2051 120.014 83.8751 121.454H83.8651Z" fill="#262626"/>
<path d="M38.0733 128.314C36.4133 129.754 34.8233 129.874 33.6933 128.674C32.7133 127.644 32.7133 125.984 33.6833 124.944C34.8233 123.714 36.3733 123.814 38.0133 125.214C40.3033 123.784 41.5933 123.764 42.6533 125.164C43.5033 126.274 43.3533 127.844 42.3233 128.794C41.1533 129.864 39.6533 129.704 38.0733 128.304V128.314Z" fill="#262626"/>
<path d="M70.932 148.214C69.412 148.154 68.252 146.884 68.332 145.354C68.412 143.834 69.662 142.734 71.232 142.814C72.702 142.884 73.852 144.144 73.792 145.614C73.722 147.134 72.462 148.284 70.932 148.224V148.214Z" fill="#262626"/>
</g>
<defs>
<clipPath id="clip0_4880_34693">
<rect width="192" height="192" fill="white"/>
</clipPath>
</defs>
</svg>
