<svg width="192" height="192" viewBox="0 0 192 192" fill="none" xmlns="http://www.w3.org/2000/svg">
<g clip-path="url(#clip0_4880_34590)">
<path d="M96 192C149.019 192 192 149.019 192 96C192 42.9807 149.019 0 96 0C42.9807 0 0 42.9807 0 96C0 149.019 42.9807 192 96 192Z" fill="white"/>
<path d="M100.075 98.084C100.075 96.5917 100.075 95.0896 100.075 93.5973C100.075 93.4382 100.055 93.2691 100.035 93.1099C99.8153 91.3491 98.4553 90.1453 96.6353 90.0856C94.7253 90.026 93.0053 91.2197 92.6653 92.8313C92.5453 93.3785 92.5953 93.7565 93.2753 93.8759C94.1753 94.045 94.6953 94.7215 94.8553 95.5372C95.4053 98.3327 95.5253 101.148 94.8953 103.953C94.8053 104.331 94.5753 104.7 94.3653 105.038C92.2253 108.37 86.5953 108.848 83.8753 105.933C82.1153 104.053 82.0353 101.068 83.7053 99.1683C84.2753 98.5118 84.9553 97.9845 85.8753 97.9746C86.6853 97.9646 87.4853 98.1238 87.6453 99.0887C87.8053 100.024 87.1053 100.472 86.3653 100.561C85.1253 100.71 85.3953 101.387 85.7053 102.083C85.9353 102.61 86.3753 102.988 86.8853 103.267C88.3253 104.053 90.0953 103.794 91.2653 102.62C92.4053 101.476 92.6953 99.238 91.9053 97.7457C90.6853 95.4577 87.4953 94.5026 84.6153 95.5671C80.4553 97.0991 78.5053 102.591 80.5353 107.057C82.2053 110.728 86.1353 112.837 90.8053 112.559C94.7753 112.33 98.2253 109.604 99.4653 105.784C100.295 103.257 100.035 100.661 100.065 98.074L100.075 98.084Z" fill="#1214A1"/>
<path d="M111.944 100.213C110.464 99.8648 109.944 98.7407 109.904 97.4076C109.774 92.8812 109.734 88.3548 109.764 83.8283C109.764 82.9131 109.534 82.0675 109.104 81.2717C108.424 79.9784 106.974 79.2621 105.424 79.4312C104.064 79.5705 102.774 80.6151 102.384 81.8984C102.214 82.4654 102.084 82.943 102.974 83.1419C104.034 83.3707 104.554 84.2263 104.694 85.2609C104.804 86.0965 104.884 86.9521 104.884 87.7977C104.914 91.5979 104.914 95.3981 104.904 99.1983C104.904 100.193 105.094 101.128 105.574 101.994C106.304 103.307 107.694 103.983 109.274 103.814C110.754 103.655 111.954 102.64 112.334 101.248C112.454 100.81 112.624 100.382 111.934 100.223L111.944 100.213Z" fill="#1214A1"/>
<path d="M123.516 100.561C123.516 98.4619 123.496 96.7608 123.516 95.0696C123.516 94.2937 123.416 93.5276 123.216 92.7915C122.746 91.1102 121.356 90.0657 119.636 90.0657C117.966 90.0657 116.536 91.0406 116.106 92.5229C115.986 92.9308 115.746 93.5177 116.356 93.647C118.206 94.0648 118.486 95.4874 118.566 96.9697C118.706 99.7552 118.746 102.551 118.566 105.336C118.366 108.41 116.836 110.042 113.926 109.504C113.146 109.365 113.096 109.693 113.336 110.31C113.726 111.275 114.446 111.872 115.386 112.25C118.746 113.583 122.456 111.355 123.236 107.535C123.736 105.087 123.406 102.62 123.516 100.561Z" fill="#1214A1"/>
<path d="M89.0159 90.7919C89.4059 90.3939 89.8759 90.0756 90.1259 89.4986C89.9359 88.9514 89.4159 88.6431 89.0459 88.2451C87.3159 86.3649 87.3059 86.3848 85.5559 88.1456C84.6626 89.0476 84.6559 89.9363 85.5359 90.8118C86.7092 91.979 87.8692 91.9724 89.0159 90.7919Z" fill="#1214A1"/>
<path d="M167.415 108.301C166.142 106.981 164.848 106.948 163.535 108.201C162.715 108.977 162.715 109.76 163.535 110.549C164.822 111.783 166.102 111.759 167.375 110.479C167.705 110.141 168.135 109.883 168.315 109.385C168.175 108.888 167.725 108.629 167.405 108.301H167.415Z" fill="#1214A1"/>
<path d="M168.506 94.6816C168.486 93.6968 168.456 92.6622 167.716 91.8564C166.976 90.4835 165.806 89.9662 164.286 90.1055C162.876 90.2348 161.846 90.9312 161.266 92.2244C160.946 92.9407 160.716 93.6072 161.896 93.8062C162.466 93.9057 162.836 94.3832 163.116 94.9104C163.626 95.8854 163.566 96.9399 163.636 97.9844C163.686 98.6808 163.426 98.9096 162.746 98.8997C160.756 98.8698 158.756 98.83 156.766 98.9196C155.646 98.9693 155.406 98.5515 155.416 97.5268C155.446 94.8209 155.566 92.115 154.996 89.429C153.776 83.659 148.776 82.2265 144.526 83.3507C141.836 84.057 139.986 86.7231 140.326 89.1504C140.566 90.8516 142.446 91.9956 143.956 91.3092C144.576 91.0207 145.296 90.5332 144.806 89.7473C144.086 88.5933 144.116 87.8373 145.476 87.4593C147.486 86.8922 149.446 88.4143 150.116 90.4238C150.966 92.9805 150.506 95.6367 150.606 98.253C150.616 98.6311 150.416 98.8002 150.026 98.8798C148.096 99.2677 147.526 98.9096 147.166 96.9996C147.146 96.8802 147.136 96.7608 147.106 96.6414C146.406 93.6371 144.016 91.7171 141.086 91.8265C138.056 91.9459 135.826 93.8858 135.316 96.7708C135.196 97.4472 135.686 98.4023 134.926 98.7604C134.326 99.0489 133.486 98.8599 132.756 98.8798C132.476 98.8798 132.186 98.8698 131.906 98.8798C131.336 98.8997 131.096 98.6211 131.106 98.074C131.186 93.9156 130.916 89.7473 131.276 85.589C131.376 84.4251 131.886 83.5098 133.036 83.0522C133.626 83.1417 133.856 82.8731 133.736 82.316C133.506 81.2914 132.796 80.2468 131.796 79.8389C131.436 79.6897 131.066 79.5405 130.686 79.4609C128.306 78.9635 126.716 81.0128 126.316 83.0721C125.916 85.1214 126.256 87.2106 126.256 89.2698C126.266 93.8062 126.286 98.3426 126.296 102.879C126.296 103.197 126.226 103.555 126.676 103.655C128.876 103.655 131.076 103.675 133.276 103.675C133.516 103.675 133.756 103.675 133.996 103.675C139.456 103.675 144.916 103.675 150.376 103.675C155.986 103.675 161.606 103.675 167.216 103.675C167.386 103.675 167.546 103.675 167.716 103.675C168.446 103.854 168.516 103.426 168.506 102.869C168.496 100.143 168.526 97.4174 168.476 94.6916L168.506 94.6816ZM142.096 98.8798C141.446 98.8798 140.796 98.8798 140.146 98.8798C139.656 98.8798 139.166 98.8798 138.686 98.8798C137.456 98.8698 137.286 98.6311 137.626 97.4174C138.046 95.965 139.156 95.189 140.516 95.4178C141.726 95.6267 142.776 96.9697 142.766 98.2431C142.766 98.7405 142.526 98.8798 142.096 98.8798Z" fill="#1214A1"/>
<path d="M71.3154 92.5129C70.6654 90.9411 68.8354 89.8965 67.2554 89.4488C65.9254 89.0708 64.3554 89.0211 62.9754 89.1603C59.1154 89.5384 55.6954 92.5427 55.5354 97.0791C56.8254 95.7958 58.1754 94.801 59.7754 94.1742C63.1154 92.871 66.5654 94.2638 67.4554 97.3079C67.8554 98.6907 67.7354 98.8698 66.3154 98.8698C61.8054 98.8698 57.2954 98.8698 52.7754 98.8698C51.2054 98.8698 51.2054 98.8797 51.2054 97.2781C51.2054 92.7118 51.2354 88.1456 51.1854 83.5794C51.1654 81.7589 50.3954 80.2269 48.5654 79.6001C47.1054 79.0928 45.6954 79.3713 44.6254 80.6447C43.2454 82.0673 43.3854 82.8233 45.1154 83.271C45.2154 83.5197 45.4054 83.6689 45.6454 83.7684C46.1954 84.9721 46.3454 86.2356 46.3454 87.5487C46.3454 91.3091 46.3454 95.0696 46.3554 98.83L46.3254 98.8499C45.7554 98.8797 45.1854 98.9096 44.6154 98.9394C43.3854 98.9195 42.1654 98.8996 40.9354 98.8797C40.6854 98.5116 40.8154 98.0938 40.8154 97.7058C40.8054 95.1392 40.8154 92.5726 40.8054 90.0059C40.8054 89.5483 40.9154 88.9713 40.1754 88.9315C39.3754 88.8818 38.5954 88.5734 37.7754 88.7027C34.9754 88.6729 32.1154 88.9216 29.5154 90.0358C27.2654 91.0007 25.2454 92.871 24.1554 95.0596C22.9554 97.4671 23.3754 100.77 25.6054 102.491C28.6954 104.869 34.2854 103.366 33.9454 98.8996C33.8554 97.7556 33.0254 96.3827 31.8754 96.0544L31.8454 96.0345C30.7054 95.4177 29.0654 95.7659 28.0854 96.5618C27.7354 96.8403 27.4754 97.2482 27.4754 97.6959C27.4754 97.855 27.5254 98.0242 27.6654 98.0938C27.7754 98.1435 27.9054 98.1137 28.0254 98.0938C28.6754 97.9943 29.3554 98.442 29.5154 99.0687C29.6754 99.6955 29.3054 100.422 28.6854 100.641C28.3754 100.75 28.0354 100.75 27.7154 100.72C27.2254 100.67 26.7154 100.541 26.3754 100.183C26.1454 99.9442 26.0254 99.6358 25.9354 99.3174C25.2654 96.7707 27.3154 94.7214 29.5954 94.015C30.6954 93.6768 31.8354 93.5674 32.9754 93.5077C33.2654 93.4878 35.9754 93.4778 35.9754 93.7862C35.9954 96.323 36.0254 98.8598 36.0354 101.407C36.0354 103.784 36.0354 103.784 38.4754 103.655H40.9354C50.6154 103.655 60.3054 103.655 69.9854 103.655C70.6354 103.655 71.2954 103.655 71.9454 103.645C72.5754 103.724 72.5654 103.247 72.5954 102.859C72.6854 101.655 72.8454 100.452 72.8054 99.2577C72.7354 96.91 72.7154 94.5423 71.2654 92.5029L71.3154 92.5129ZM31.0354 96.3628C31.2154 96.3628 31.3854 96.3031 31.5554 96.2335C31.3854 96.3131 31.2154 96.3628 31.0354 96.3628ZM31.0354 96.3628C30.8654 96.3628 30.6854 96.3131 30.4954 96.1838C30.6854 96.3131 30.8554 96.3628 31.0354 96.3628Z" fill="#1214A1"/>
</g>
<defs>
<clipPath id="clip0_4880_34590">
<rect width="192" height="192" fill="white"/>
</clipPath>
</defs>
</svg>
