<svg width="192" height="192" viewBox="0 0 192 192" fill="none" xmlns="http://www.w3.org/2000/svg">
<g clip-path="url(#clip0_4880_34659)">
<path d="M96 192C149.019 192 192 149.019 192 96C192 42.9807 149.019 0 96 0C42.9807 0 0 42.9807 0 96C0 149.019 42.9807 192 96 192Z" fill="white"/>
<path d="M71.724 115.745C67.6554 119.785 63.5723 123.81 59.5475 127.893C58.8329 128.615 58.5048 128.556 57.8267 127.871C47.5095 117.517 37.163 107.2 26.8166 96.8753C26.576 96.6347 26.4156 96.2628 26 96.2337V95.8399C26.4156 95.8108 26.576 95.4389 26.8166 95.1983C33.9476 88.0893 41.0712 80.9875 48.173 73.8493C49.5365 72.7628 49.6167 73.0108 50.2291 73.7691C50.7614 74.4253 51.702 74.8482 52.3436 75.4023C52.9415 75.9273 52.1468 76.5179 51.6145 77.0502C45.5408 83.0801 39.5109 89.1465 33.4299 95.1619C32.7445 95.8399 32.6935 96.1681 33.4153 96.8826C41.6326 105.034 49.8135 113.215 57.9798 121.411C58.5704 122.001 58.8475 121.979 59.4162 121.396C62.2161 118.538 65.067 115.738 67.8815 112.894C68.2825 112.493 68.6689 112.289 69.245 112.326C71.1626 112.428 73.0948 112.18 75.0124 112.464C73.8312 113.463 72.7594 114.579 71.724 115.731V115.745Z" fill="#262626"/>
<path d="M123.398 112.391C123.901 112.275 124.083 112.705 124.346 112.96C127.204 115.804 130.07 118.647 132.899 121.52C133.38 122.009 133.635 122.023 134.124 121.52C136.909 118.691 139.723 115.898 142.538 113.099C142.895 112.741 143.179 112.238 143.821 112.34C144.011 112.369 144.156 112.26 144.127 112.063C144.025 111.378 144.565 111.079 144.944 110.7C149.53 106.106 154.131 101.52 158.725 96.9264C159.322 96.3285 159.31 95.7209 158.688 95.1036C154.073 90.4954 149.45 85.88 144.842 81.2646C144.506 80.9292 144.047 80.6521 144.135 80.0542C144.164 79.8792 144.091 79.7042 143.879 79.7261C143.114 79.8282 142.793 79.2084 142.37 78.7855C139.599 76.0367 136.829 73.2879 134.094 70.5026C133.635 70.0359 133.394 70.0578 132.942 70.5026C130.084 73.3972 127.19 76.2554 124.331 79.1428C123.93 79.5511 123.529 79.7261 122.961 79.7115C121.094 79.6605 119.227 79.6678 117.354 79.6459C118.25 78.5085 119.504 77.7064 120.328 76.4961C124.506 72.3254 128.699 68.1693 132.862 63.9841C133.358 63.4883 133.606 63.4008 134.16 63.9549C144.63 74.4545 155.123 84.9248 165.622 95.3879C166.089 95.8546 166.154 96.1025 165.644 96.6056C155.115 107.091 144.609 117.59 134.102 128.097C133.744 128.454 133.526 128.702 133.023 128.192C128.83 123.948 124.601 119.734 120.387 115.505C121.393 114.455 122.399 113.405 123.405 112.348L123.398 112.391Z" fill="#262626"/>
<path d="M123.398 112.391C122.392 113.441 121.385 114.491 120.379 115.548C120.088 115.811 119.789 116.066 119.512 116.343C111.907 123.934 104.295 131.524 96.7115 139.143C96.1136 139.741 95.8074 139.858 95.1366 139.18C87.3494 131.349 79.5331 123.554 71.7168 115.753C72.7449 114.601 73.824 113.492 75.0052 112.486C81.6841 119.15 88.3775 125.793 95.0272 132.494C95.7709 133.245 96.1209 133.157 96.8136 132.457C103.274 125.946 109.778 119.478 116.26 112.982C116.712 112.53 117.156 112.333 117.798 112.348C119.665 112.399 121.531 112.384 123.398 112.399V112.391Z" fill="#262626"/>
<path d="M120.321 76.5325C119.504 77.7429 118.25 78.5449 117.346 79.6824C116.806 79.8574 116.587 79.4126 116.296 79.1282C109.726 72.5733 103.149 66.0257 96.6091 59.4416C96.0185 58.851 95.7487 58.8875 95.18 59.4562C88.4719 66.1934 81.7274 72.9014 74.9975 79.6167C73.8674 78.5668 72.7518 77.5023 71.7383 76.3356C79.6202 68.4537 87.5095 60.579 95.3695 52.6752C95.9893 52.0482 96.2226 52.4857 96.5799 52.8429C104.236 60.4915 111.884 68.1329 119.54 75.7815C119.796 76.0367 120.058 76.2846 120.321 76.5325Z" fill="#262626"/>
<path d="M102.011 92.8795C98.9995 92.8941 95.9809 92.9452 92.9696 92.9087C92.1602 92.9014 91.905 93.091 91.9415 93.9222C92.0071 95.5846 91.9561 95.5919 93.6622 95.5919C94.7414 95.5919 95.8278 95.643 96.9069 95.5773C97.7089 95.5263 97.9131 95.8107 97.8621 96.5617C97.8183 97.2033 97.9568 97.7647 96.9433 97.6991C95.5434 97.6043 94.1216 97.6991 92.7144 97.6627C92.1019 97.6408 91.9488 97.8231 91.9415 98.4282C91.9269 100.652 91.905 100.652 94.0851 100.652C96.5132 100.652 98.9412 100.674 101.362 100.638C102.004 100.63 102.339 100.82 102.157 101.461C102.018 101.957 102.667 102.898 101.654 102.912C97.5923 102.978 93.5237 102.934 89.4551 102.949C89.0614 102.949 88.952 102.81 88.9593 102.431C88.9666 98.7272 88.9739 95.0305 88.9593 91.3265C88.9593 90.8088 89.1999 90.7505 89.6228 90.7578C93.7497 90.7796 97.8839 90.7869 102.011 90.8015C102.011 91.4942 102.011 92.1941 102.011 92.8868V92.8795Z" fill="#262626"/>
<path d="M129.711 96.8098C129.711 95.0453 129.733 93.2735 129.697 91.509C129.689 90.9184 129.85 90.7142 130.462 90.7215C133.904 90.758 137.345 90.7215 140.779 90.7653C142.879 90.7871 143.521 91.4871 143.528 93.5724C143.528 94.1922 143.528 94.8192 143.528 95.439C143.528 97.3712 142.748 98.1733 140.779 98.1951C138.388 98.2243 135.996 98.2389 133.605 98.1951C132.897 98.1805 132.606 98.3337 132.664 99.0993C132.737 100.011 132.679 100.929 132.679 101.848C132.679 102.009 132.715 102.191 132.679 102.337C132.285 103.583 131.271 102.708 130.571 102.913C130.163 103.029 129.667 103.066 129.682 102.3C129.726 100.47 129.697 98.6326 129.697 96.8025L129.711 96.8098ZM136.361 96.0515C137.374 96.0515 138.395 96.0588 139.409 96.0442C140.539 96.0296 140.772 95.7598 140.772 94.5203C140.772 93.2151 140.539 92.9089 139.394 92.8943C137.95 92.8797 136.514 92.8943 135.07 92.8943C132.679 92.8943 132.715 92.8943 132.679 95.2786C132.671 95.9713 132.905 96.0879 133.51 96.0588C134.458 96.0077 135.406 96.0442 136.361 96.0442V96.0515Z" fill="#262626"/>
<path d="M111.959 102.84C112.79 101.447 113.578 100.135 114.365 98.8223C115.823 96.3797 117.289 93.9371 118.711 91.4726C119.032 90.9112 119.411 90.7872 120.023 90.7143C121.474 90.5393 122.291 91.0497 123.02 92.3549C124.865 95.6651 126.899 98.8733 128.882 102.111C129.254 102.716 129.305 102.891 128.445 102.971C126.702 103.139 125.382 102.781 124.843 100.929C124.668 100.332 124.208 100.222 123.618 100.23C121.489 100.259 119.36 100.259 117.231 100.23C116.676 100.222 116.246 100.339 116.079 100.886C115.473 102.869 114.022 103.234 112.214 102.913C112.185 102.913 112.156 102.891 111.974 102.833L111.959 102.84ZM120.417 93.0184C119.506 94.7027 118.645 96.2995 117.712 98.0275C119.476 98.0275 121.095 98.0275 122.721 98.0275C123.304 98.0275 123.056 97.7067 122.918 97.4588C122.109 96.0078 121.292 94.5641 120.424 93.0184H120.417Z" fill="#262626"/>
<path d="M63.1214 90.7508C64.9588 90.7508 66.7963 90.7799 68.6337 90.7362C69.3264 90.7216 69.6253 90.8383 69.5888 91.6257C69.5305 92.9528 69.5888 92.9528 68.2108 92.9528C65.6515 92.9528 63.0923 92.9965 60.533 92.9528C59.833 92.9455 59.6653 93.1496 59.6726 93.8277C59.6945 96.088 59.6653 96.088 61.9621 96.088C62.7131 96.088 63.4714 96.1318 64.2224 96.0735C64.9078 96.0151 65.0318 96.2995 65.0245 96.912C65.0026 98.3921 65.0318 98.3921 63.5224 98.3921C62.4725 98.3921 61.4225 98.4358 60.3726 98.3921C59.7966 98.3702 59.6507 98.5671 59.6726 99.1139C59.7091 100.164 59.6653 101.214 59.6945 102.257C59.7091 102.738 59.6143 102.935 59.0601 102.942C56.7269 102.971 56.6977 102.993 56.6759 100.66C56.6467 97.6775 56.6759 94.6954 56.6467 91.7132C56.6394 90.9914 56.8071 90.6851 57.6165 90.707C59.4539 90.7654 61.2913 90.7289 63.1287 90.7289C63.1287 90.7289 63.1287 90.7362 63.1287 90.7435L63.1214 90.7508Z" fill="#262626"/>
<path d="M102.012 92.8796C102.012 92.187 102.012 91.487 102.012 90.7943C106.758 90.7797 111.512 90.7725 116.259 90.7433C116.718 90.7433 116.879 90.8745 116.908 91.3485C117.003 92.9671 117.025 92.9671 115.413 92.9671C114.232 92.9671 113.051 93.0036 111.877 92.9526C111.184 92.9234 110.987 93.1567 110.995 93.8348C111.038 96.5837 111.002 99.3325 111.046 102.081C111.06 102.774 110.849 102.964 110.163 102.956C107.961 102.942 107.961 102.971 107.961 100.762C107.961 98.5523 107.91 96.3066 107.983 94.09C108.02 93.1421 107.677 92.9453 106.817 92.9817C105.213 93.0401 103.609 93.0328 102.012 92.8796Z" fill="#262626"/>
<path d="M81.8658 102.927C80.0283 102.927 78.1982 102.913 76.3608 102.934C75.8139 102.942 75.5515 102.883 75.5587 102.213C75.5952 98.6471 75.5879 95.0743 75.5587 91.5088C75.5587 90.9182 75.7046 90.736 76.3243 90.7287C78.5701 90.7141 78.5701 90.6922 78.5701 92.9525C78.5701 95.242 78.5919 97.5388 78.5555 99.8283C78.5482 100.463 78.7086 100.659 79.3648 100.645C81.9533 100.608 84.549 100.696 87.1301 100.601C88.3696 100.557 88.0561 101.294 88.1217 101.965C88.1946 102.716 87.9759 102.971 87.1739 102.942C85.4093 102.876 83.6376 102.92 81.8658 102.92V102.927Z" fill="#262626"/>
<path d="M69.8628 96.7297C69.8628 94.9579 69.8773 93.1934 69.8555 91.4216C69.8555 90.9258 69.9794 90.7581 70.5117 90.7362C72.8449 90.656 72.8449 90.6342 72.8449 92.982C72.8449 96.0297 72.823 99.0775 72.8595 102.125C72.8595 102.767 72.6918 102.949 72.0429 102.942C69.8628 102.935 69.8628 102.964 69.8628 100.755C69.8628 99.4129 69.8628 98.064 69.8628 96.7224V96.7297Z" fill="#262626"/>
<path d="M71.7451 76.3284C72.7586 77.4951 73.8742 78.5596 75.0044 79.6095C72.8534 79.8793 70.7025 79.6606 68.5442 79.7189C68.3838 79.7189 68.2745 79.6606 68.1432 79.5221C67.2974 78.6106 66.4443 77.7065 65.5548 76.8461C65.1756 76.4816 65.2048 76.241 65.5548 75.8983C66.2985 75.1618 67.0495 74.4181 67.7349 73.6306C68.2161 73.0765 68.5442 73.1932 68.9963 73.6598C69.8858 74.5785 70.8264 75.4389 71.7451 76.3284Z" fill="#262626"/>
</g>
<defs>
<clipPath id="clip0_4880_34659">
<rect width="192" height="192" fill="white"/>
</clipPath>
</defs>
</svg>
