<svg width="192" height="192" viewBox="0 0 192 192" fill="none" xmlns="http://www.w3.org/2000/svg">
<g clip-path="url(#clip0_4880_34610)">
<path d="M96 192C149.019 192 192 149.019 192 96C192 42.9807 149.019 0 96 0C42.9807 0 0 42.9807 0 96C0 149.019 42.9807 192 96 192Z" fill="white"/>
<path d="M75.5858 28.7788C96.7158 22.4288 120.686 25.3088 138.856 38.1988C150.706 46.3788 160.086 58.2289 165.206 71.6889C167.146 78.2188 165.576 86.2289 160.256 90.7989C157.106 93.6889 153.556 96.1188 149.986 98.4488C148.986 90.3288 147.736 82.0888 144.256 74.5988C140.066 66.7088 134.046 59.8088 126.656 54.7788C104.466 39.1188 70.5358 45.3188 55.7358 68.2188C45.3658 82.3888 44.3758 101.359 50.1058 117.579C43.3558 118.709 36.7258 120.379 30.3358 122.829C26.0958 110.029 24.7458 96.2989 27.2558 82.9988C29.0558 75.0089 32.1358 67.3088 36.2258 60.2088C37.0758 58.7388 37.9758 57.2788 38.9858 55.8988C43.0558 50.4488 47.8258 45.5288 53.0258 41.1488C59.7858 35.8188 67.5058 31.7288 75.5858 28.7688V28.7788Z" fill="#660CFB"/>
<path d="M71.9163 69.549C92.6063 68.329 113.346 68.999 134.046 69.179C133.736 71.329 133.426 73.479 133.116 75.629C132.326 80.409 131.796 85.799 127.826 89.139C118.006 98.119 108.136 107.059 98.0863 115.769C88.4363 116.789 78.7763 117.889 69.0663 118.119C69.6763 116.649 70.4063 115.249 71.2463 113.909C81.2363 104.459 91.7563 95.569 101.516 85.879C90.5163 85.669 79.4963 85.819 68.4863 85.629C69.4463 80.239 70.4563 74.839 71.9263 69.559L71.9163 69.549Z" fill="#660CFB"/>
<path d="M133.455 114.639C139.495 112.699 145.205 109.869 151.215 107.789C146.175 111.809 140.425 114.819 134.365 116.969C121.265 121.649 107.475 124.239 93.645 125.469C85.355 126.159 77.065 126.639 68.785 127.199C56.045 127.189 43.255 127.809 30.875 131.059C33.205 128.509 35.725 125.759 39.315 125.159C49.305 123.009 59.615 123.169 69.785 122.659C79.385 122.489 89.005 122.049 98.585 121.059C110.315 119.689 122.175 118.359 133.445 114.639H133.455Z" fill="#660CFB"/>
<path d="M130.604 130.219C137.644 128.269 144.144 124.829 150.844 121.999C131.054 136.919 105.324 140.509 81.1841 140.019C78.2741 139.959 75.3541 139.909 72.4441 139.789C59.5141 138.699 46.3341 138.499 33.7441 135.119C46.6441 133.029 59.6241 135.729 72.5741 135.839C75.3141 135.899 78.0641 135.869 80.8041 135.839C97.5241 135.879 114.464 134.889 130.604 130.209V130.219Z" fill="#660CFB"/>
<path d="M92.6641 128.999C103.994 127.639 115.124 125.199 126.284 122.859C125.784 124.779 125.294 126.709 124.794 128.639C112.434 131.279 99.7641 131.849 87.1541 131.919C83.4941 131.919 79.8241 131.779 76.1641 131.619L77.2941 131.409C82.3841 130.409 87.5241 129.679 92.6541 128.989L92.6641 128.999Z" fill="#660CFB"/>
<path d="M160.045 137.969C149.115 145.919 137.035 152.129 123.965 155.729C117.545 157.499 110.885 158.569 104.225 158.809C101.585 158.909 98.9448 158.879 96.3048 158.719C85.0448 158.039 73.8148 156.689 62.7148 154.649C66.1048 155.269 69.4748 156.719 72.8548 157.489C76.2348 158.259 79.8848 158.919 83.4348 159.369C90.5448 160.279 97.7448 160.489 104.905 160.009C118.835 159.069 131.755 155.039 143.965 148.299C149.545 145.219 154.885 141.709 160.035 137.969H160.045Z" fill="#660CFB"/>
<path d="M145.285 136.429C151.665 133.219 156.865 128.249 162.245 123.659C150.155 139.969 129.985 147.659 110.445 150.149C88.845 152.959 66.655 151.209 45.825 144.779C44.045 144.229 42.285 143.649 40.525 143.039C44.635 146.629 49.475 149.379 54.655 151.069C53.565 151.219 52.475 151.369 51.395 151.529C51.775 152.569 52.155 153.609 52.535 154.639C46.425 150.059 40.205 145.369 35.875 139.079C36.455 139.929 40.245 140.469 41.275 140.769C43.295 141.359 45.325 141.919 47.375 142.439C51.455 143.469 55.585 144.349 59.735 145.059C67.775 146.449 75.925 147.189 84.085 147.479C104.875 148.069 126.545 146.209 145.285 136.429Z" fill="#660CFB"/>
<path d="M95.3945 164.449C97.3645 164.549 99.3345 164.599 101.325 164.599C112.525 164.569 123.925 162.229 134.175 157.719C142.435 154.089 150.085 149.059 156.615 142.839C151.845 147.379 147.085 151.769 141.515 155.339C135.745 159.039 129.205 161.249 122.645 163.079C119.515 163.949 116.325 164.699 113.255 165.729C110.615 166.619 107.695 166.459 104.945 166.449C90.3045 166.389 75.9645 163.999 62.4245 158.299C62.3645 158.269 62.3045 158.249 62.2345 158.219C60.9445 157.669 59.6645 157.099 58.3945 156.499C61.5645 157.999 65.5145 158.689 68.8845 159.639C72.4645 160.659 76.0745 161.599 79.7145 162.389C84.9245 163.509 90.1145 164.179 95.3745 164.459L95.3945 164.449Z" fill="#660CFB"/>
</g>
<defs>
<clipPath id="clip0_4880_34610">
<rect width="192" height="192" fill="white"/>
</clipPath>
</defs>
</svg>
