<svg width="192" height="192" viewBox="0 0 192 192" fill="none" xmlns="http://www.w3.org/2000/svg">
<g clip-path="url(#clip0_4880_34629)">
<path d="M96 192C149.019 192 192 149.019 192 96C192 42.9807 149.019 0 96 0C42.9807 0 0 42.9807 0 96C0 149.019 42.9807 192 96 192Z" fill="#F56A62"/>
<path d="M35.0795 110.26C34.7195 110.15 34.5595 110.11 34.1995 110C31.7295 109.22 30.2195 107.56 29.7195 105.05C29.1895 102.36 30.1495 100.2 32.3195 98.34C32.7695 98.9 33.1995 99.42 33.6795 100.02C33.3195 100.48 32.7995 100.98 32.4695 101.59C31.7295 102.92 31.7895 104.27 32.7095 105.5C33.4995 106.57 34.5695 107.2 35.9595 106.88C37.9195 106.42 38.9795 104.02 37.5895 102.62C33.7195 98.72 29.6395 95.03 25.7895 91.4V106.82H23.5195V82.39L35.9295 94.4C40.1795 90.31 44.3495 86.3 48.5795 82.23V106.83H44.2595V90C42.0495 92.16 39.9895 94.18 37.5595 96.56C38.4995 97.34 39.5495 98.12 40.4795 99.01C42.4695 100.9 43.0995 103.25 42.3095 105.83C41.5395 108.33 39.7195 109.78 37.1095 110.23C37.0895 110.23 37.0695 110.23 37.0495 110.25C36.7295 110.36 36.1895 110.37 35.8395 110.37C35.8395 110.37 35.2695 110.35 35.0895 110.3L35.0795 110.26Z" fill="white"/>
<path d="M168.5 106.95H164.01V95.5499H153.64V106.83H149.18V81.8699H153.52V93.1199H164.03V81.8599C165.63 81.7899 167.06 81.7199 168.5 81.6599V106.94V106.95Z" fill="white"/>
<path d="M90.2489 81.9398C87.2089 81.8298 84.1689 81.8298 81.1289 81.7898C80.7189 81.7898 80.3089 81.8598 79.8789 81.8998V106.74C83.6989 106.74 87.3689 106.97 90.9989 106.69C97.3189 106.21 102.319 100.39 102.109 94.1298C101.889 87.5298 96.7189 82.1798 90.2489 81.9398ZM96.0789 100.35C93.5389 105.24 88.9789 104.85 84.3589 104.56V84.1998C88.3189 84.1598 92.4789 83.2898 95.2689 87.2398C98.2189 91.4198 98.4189 95.8498 96.0789 100.35Z" fill="white"/>
<path d="M64.2102 81.73C57.3902 81.75 51.6602 87.38 51.6002 94.13C51.5302 101.18 57.2202 106.92 64.2502 106.9C71.1702 106.9 76.8803 101.22 76.8603 94.39C76.8403 87.43 71.1302 81.71 64.2102 81.73ZM69.2203 102.43C66.2103 105.41 62.2503 105.38 59.2203 102.41C55.0103 98.27 55.0602 90.24 59.3202 86.17C62.6102 83.03 67.2902 83.5 70.1002 87.27C71.6802 89.38 72.3402 91.78 72.3802 94.62C72.3302 97.45 71.4403 100.22 69.2203 102.43Z" fill="white"/>
<path d="M146.149 81.8398C146.169 82.3398 146.199 82.6698 146.199 82.9998C146.199 83.2798 146.179 83.5598 146.149 84.0598C144.739 84.0598 143.359 84.0598 141.979 84.0598C139.859 84.0598 137.729 84.0298 135.609 84.0898C135.219 84.0998 134.779 84.4698 134.479 84.7798C134.329 84.9298 134.439 85.3298 134.439 85.6198C134.439 88.0998 134.439 90.5798 134.439 93.2398H144.119V95.4198H134.549V104.65H146.119V106.8H130.059V81.8298H146.149V81.8398Z" fill="white"/>
<path d="M126.03 84.8899C123.75 83.9799 121.55 83.3599 119.19 83.9499C117.59 84.3499 116.27 85.0999 115.84 86.7499C115.39 88.4799 116.2 89.8999 117.6 90.8299C119.72 92.2399 122 93.3899 124.11 94.8099C126.42 96.3599 127.47 98.5899 126.95 101.38C126.42 104.24 124.28 106.15 121.21 106.66C118.94 107.04 116.71 106.89 114.51 106.2C112.42 105.54 112.4 105.53 112.66 103.1C114.8 104.38 117.09 104.89 119.54 104.7C121.66 104.54 123.26 103.44 123.74 101.76C124.17 100.26 123.29 98.4499 121.49 97.3399C119.53 96.1299 117.46 95.0799 115.56 93.7799C112.77 91.8699 111.88 88.9699 113.08 86.1399C113.94 84.1099 115.55 82.8699 117.63 82.2499C119.85 81.5999 122.1 81.6199 124.34 82.1799C126.25 82.6499 126.25 82.6599 126.04 84.8899H126.03Z" fill="white"/>
<path d="M109.37 106.87H105.15V81.8398H109.37V106.87Z" fill="white"/>
</g>
<defs>
<clipPath id="clip0_4880_34629">
<rect width="192" height="192" fill="white"/>
</clipPath>
</defs>
</svg>
