<svg width="192" height="192" viewBox="0 0 192 192" fill="none" xmlns="http://www.w3.org/2000/svg">
<g clip-path="url(#clip0_4976_32145)">
<path d="M96 192C149.019 192 192 149.019 192 96C192 42.9807 149.019 0 96 0C42.9807 0 0 42.9807 0 96C0 149.019 42.9807 192 96 192Z" fill="white"/>
<path d="M168.57 96.5C168.57 136.57 136.1 169.01 96.0304 168.99C55.9404 168.97 23.5204 136.5 23.5704 96.44C23.6204 56.32 56.0704 23.96 96.2104 24C136.16 24.04 168.58 56.52 168.57 96.5ZM167.62 96.54C167.66 57.15 135.68 25.02 96.3504 24.95C56.6404 24.87 24.5604 56.78 24.5304 96.47C24.5004 136.24 56.8304 168.04 96.0404 168.03C135.53 168.03 167.58 136.06 167.62 96.54Z" fill="#EC3237"/>
<path d="M94.1398 104.66C83.0398 103.62 71.9398 102.58 60.8398 101.55C60.8398 101.5 60.8398 101.44 60.8398 101.39C72.6398 100.6 84.4398 99.8001 96.2398 99.0101C96.2398 98.9601 96.2398 98.9101 96.2398 98.8601C85.2098 98.0601 74.1898 97.2601 63.1598 96.4601V96.3001C73.8398 95.5101 84.5098 94.7101 95.1898 93.9201C95.1898 93.8601 95.1898 93.8101 95.1898 93.7501C86.5898 92.5601 77.9798 91.3601 69.3798 90.1701C69.3798 90.1201 69.3798 90.0601 69.3798 90.0101C90.6498 89.4901 111.92 88.9801 133.28 88.4601C133.14 88.6801 133.05 88.8401 132.95 88.9801C128.84 94.9001 124.73 100.81 120.63 106.73C120.37 107.11 120.09 107.24 119.64 107.24C107 107.28 94.3698 107.34 81.7298 107.39C76.1698 107.41 70.6098 107.43 65.0498 107.45C64.8698 107.45 64.6898 107.45 64.5098 107.45C64.5098 107.4 64.5098 107.36 64.5098 107.31C74.3798 106.48 84.2498 105.65 94.1198 104.82C94.1198 104.77 94.1298 104.72 94.1398 104.67V104.66Z" fill="#EC3237"/>
<path d="M113.611 37.1601C113.401 38.1301 113.201 39.0101 113.041 39.8901C113.001 40.1001 113.061 40.3301 113.121 40.5401C113.271 41.0301 113.641 41.3101 114.131 41.3801C114.591 41.4401 114.911 41.1501 115.101 40.7701C115.371 40.2301 115.601 39.6601 115.841 39.1001C115.961 38.8301 116.061 38.5601 116.201 38.2201C116.851 38.4801 117.481 38.7301 118.101 38.9801C117.871 39.7601 117.641 40.5001 117.431 41.2301C117.381 41.4101 117.361 41.5901 117.361 41.7801C117.341 42.5201 117.661 43.0001 118.251 43.1301C118.701 43.2301 119.121 42.9501 119.411 42.3001C119.751 41.5301 120.061 40.7501 120.411 39.9201C121.051 40.1801 121.641 40.4201 122.191 40.6401C121.961 41.5501 121.711 42.4001 121.551 43.2601C121.421 43.9901 121.731 44.4201 122.371 44.8001C123.711 45.6101 125.061 46.4001 126.351 47.2901C128.451 48.7401 130.441 50.3301 132.301 52.0701C132.831 52.5701 133.401 52.6601 133.861 52.3801C133.951 52.3301 134.021 52.2401 134.101 52.1601C133.681 51.8301 133.251 51.5401 132.881 51.1901C131.881 50.2101 131.851 48.8601 132.801 47.8201C133.031 47.5701 133.311 47.3301 133.611 47.1501C135.381 46.0701 137.221 47.0501 137.321 49.1301C137.431 51.3801 136.381 53.0801 134.631 54.3601C133.461 55.2101 132.171 55.0601 131.041 54.0101C128.381 51.5301 125.451 49.4101 122.401 47.4601C122.281 47.3801 122.161 47.2901 122.031 47.2201C121.031 46.7401 120.201 46.0901 120.021 44.8301C119.161 45.3501 118.341 45.6601 117.401 45.2601C116.501 44.8701 115.961 44.2001 115.671 43.2301C114.791 43.7801 113.901 43.8201 112.991 43.4601C112.041 43.0901 111.541 42.3601 111.371 41.3901C109.141 42.1501 107.251 41.7501 106.001 40.2601C105.541 40.4401 105.091 40.7601 104.631 40.7701C103.651 40.8101 102.651 40.7301 101.671 40.6301C98.8807 40.3401 96.1107 39.9301 93.3107 39.7401C91.6107 39.6301 89.8807 39.8501 88.1707 39.9201C87.9907 39.9201 87.8207 40.0001 87.6107 40.0501C87.9907 42.4401 86.5707 43.8601 84.8607 45.0301C83.1707 46.1801 81.2707 46.7501 79.2007 46.4601C78.1307 46.3101 77.3107 45.7101 76.7407 44.8201C75.7507 43.2601 75.4507 41.5601 75.7307 39.6601C76.3407 39.7101 76.9207 39.7601 77.4807 39.8101C77.5907 40.5901 77.6207 41.3301 77.7907 42.0401C78.2107 43.7801 79.3107 44.4601 81.0807 44.1601C82.2807 43.9601 83.4107 43.5701 84.4107 42.8901C84.7807 42.6301 85.1007 42.2801 85.4007 41.9301C85.5307 41.7801 85.6207 41.4901 85.5607 41.3401C85.5007 41.2101 85.2007 41.1201 85.0107 41.1101C84.0007 41.0501 82.9807 41.0301 81.9707 40.9901C81.8107 40.9901 81.6407 40.9701 81.4007 40.9601C81.4307 40.3401 81.4607 39.7401 81.5107 39.1501C81.5107 39.0701 81.6807 38.9701 81.7807 38.9401C83.7807 38.4901 85.7607 37.9301 87.7807 37.6501C90.0807 37.3301 92.4107 37.2401 94.7307 37.4401C95.2407 37.4801 95.7607 37.5101 96.2807 37.5501C97.0607 37.6001 97.4507 37.3001 97.5607 36.5101C97.9007 34.0601 98.2307 31.6201 98.5807 29.1101C99.1607 29.1801 99.7307 29.2201 100.281 29.3301C100.391 29.3501 100.531 29.6601 100.511 29.8201C100.331 31.3601 100.111 32.8901 99.9107 34.4301C99.8507 34.8701 99.8007 35.3001 99.7207 35.9301C100.011 35.6901 100.191 35.5501 100.361 35.4001C101.421 34.5101 102.541 33.7601 103.961 33.5901C106.161 33.3201 107.661 35.5401 107.441 37.1801C107.391 37.5801 107.311 37.9801 107.201 38.3701C107.111 38.6601 107.181 38.8501 107.461 38.9301C108.251 39.1701 109.041 39.4201 109.851 39.5901C110.371 39.7001 110.661 39.2901 110.851 38.8801C111.141 38.2601 111.381 37.6201 111.641 36.9901C111.711 36.8201 111.781 36.6601 111.881 36.4301C112.501 36.6801 113.091 36.9201 113.631 37.1301L113.611 37.1601ZM100.231 37.9901C100.241 38.0501 100.251 38.1001 100.271 38.1601C101.521 38.3101 102.771 38.5401 104.021 38.5701C104.941 38.5901 105.551 37.7301 105.431 36.8801C105.321 36.1001 104.481 35.6001 103.561 35.8001C102.161 36.1001 101.231 37.1001 100.241 38.0001L100.231 37.9901ZM135.411 50.2401C135.271 49.9901 135.141 49.6401 134.911 49.3801C134.641 49.0701 134.261 48.9501 133.881 49.2601C133.491 49.5701 133.431 50.0201 133.761 50.4201C133.991 50.7001 134.261 50.9501 134.551 51.1701C134.821 51.3801 135.071 51.3301 135.191 50.9801C135.261 50.7701 135.311 50.5601 135.401 50.2401H135.411Z" fill="#EC3237"/>
<path d="M52.3695 75.1299C52.1995 75.0399 51.9395 74.9199 51.6895 74.7899C59.0895 59.3599 75.8095 47.2499 95.7695 46.9399C116.779 46.6099 134.019 59.1799 141.519 74.7899C141.269 74.9199 141.009 75.0499 140.839 75.1399C131.119 57.8199 116.609 48.4299 96.6195 47.8899C76.6295 48.4099 62.1195 57.8099 52.3795 75.1199L52.3695 75.1299Z" fill="#EC3237"/>
<path d="M51.6897 118.34C51.9497 118.21 52.1997 118.08 52.4797 117.95C58.3197 129.21 67.0197 137.33 78.8297 141.89C90.6497 146.46 102.57 146.46 114.39 141.88C126.2 137.3 134.9 129.19 140.71 117.94C140.98 118.07 141.23 118.19 141.55 118.34C138.49 124.46 134.42 129.74 129.23 134.14C121.11 141.03 111.73 145.06 101.12 145.98C77.3697 148.05 59.0597 133.83 51.6797 118.34H51.6897Z" fill="#EC3237"/>
<path d="M115.87 116.22C115.01 117.11 114.28 117.89 113.5 118.63C113.35 118.77 113.02 118.77 112.77 118.77C107.14 118.77 101.5 118.77 95.8699 118.77C91.1098 118.77 86.3398 118.77 81.5798 118.77H80.8398C80.9798 118.55 81.0598 118.42 81.1598 118.29C83.5398 115.23 85.9398 112.18 88.3098 109.12C88.5598 108.79 88.8198 108.65 89.2398 108.67C90.0298 108.7 90.8198 108.67 91.7698 108.67C89.8098 111.2 87.9298 113.64 85.9398 116.21H115.87V116.22Z" fill="#EC3237"/>
<path d="M137.051 145.55C136.701 147.66 136.211 148.04 133.621 148.29C133.591 149.34 132.861 149.93 132.101 150.44C131.021 151.17 129.911 151.89 128.761 152.51C128.251 152.78 127.601 152.79 127.021 152.92C127.151 153.48 127.381 154.18 127.461 154.89C127.661 156.73 126.921 158.02 125.271 158.85C124.701 159.14 124.121 159.42 123.501 159.72C123.201 159.3 122.931 158.92 122.611 158.47C123.301 158.12 123.961 157.81 124.601 157.46C125.581 156.93 126.131 156.13 126.041 154.99C126.011 154.62 125.851 154.24 125.691 153.9C125.021 152.5 124.321 151.12 123.631 149.73C123.611 149.7 123.631 149.66 123.611 149.54C124.001 149.34 124.421 149.13 124.911 148.88C125.221 149.49 125.511 150.08 125.801 150.67C126.211 151.49 126.761 151.72 127.611 151.35C128.081 151.14 128.521 150.86 128.951 150.58C129.841 150.02 130.751 149.48 131.601 148.86C132.501 148.21 132.511 148 131.851 147.12C131.301 146.39 130.811 145.63 130.811 144.67C130.811 142.89 132.651 141.57 134.331 142.16C135.131 142.44 135.711 142.98 136.231 143.63C136.961 144.54 137.291 144.62 138.131 143.85C139.681 142.43 141.151 140.93 142.661 139.46C142.731 139.39 142.781 139.28 142.851 139.17C142.461 139.07 142.091 139.01 141.741 138.9C140.551 138.53 139.791 137.6 139.721 136.46C139.661 135.38 140.351 134.42 141.521 133.94C141.621 133.9 141.711 133.84 141.931 133.73H140.871V132.22C142.751 132.06 144.601 131.95 146.451 132.39C147.571 132.66 148.271 133.34 148.481 134.47C148.701 135.65 148.351 136.65 147.291 137.28C146.641 137.66 145.931 137.93 145.261 138.27C145.091 138.35 144.861 138.47 144.811 138.62C144.331 140.09 143.241 141.11 142.221 142.17C141.311 143.11 140.311 143.97 139.351 144.86C138.701 145.46 138.011 145.92 137.041 145.54L137.051 145.55ZM134.081 146.94C134.601 146.94 135.261 146.54 135.431 146.04C135.741 145.15 135.201 144.53 134.651 143.95C134.251 143.52 133.751 143.3 133.161 143.57C133.111 143.59 133.061 143.62 133.011 143.64C132.391 143.99 132.111 144.56 132.261 145.15C132.511 146.09 133.371 146.93 134.071 146.94H134.081ZM145.221 136.56C145.891 136.4 146.401 136.14 146.791 135.67C147.231 135.13 147.161 134.51 146.551 134.17C145.521 133.58 144.391 133.72 143.281 133.77C144.371 134.38 145.301 135.06 145.221 136.56ZM143.781 136.64C143.781 135.84 143.161 135.18 142.431 135.19C141.741 135.19 141.151 135.72 141.161 136.31C141.161 137.01 141.851 137.62 142.601 137.61C143.411 137.6 143.781 137.3 143.781 136.64Z" fill="#EC3237"/>
<path d="M50.3809 139.34C50.6809 139.55 50.9609 139.7 51.1909 139.91C52.9109 141.5 54.6009 143.13 56.3409 144.7C57.2309 145.5 58.2109 146.2 59.1709 146.92C59.9009 147.46 60.3009 147.38 60.8609 146.67C61.3109 146.09 61.7309 145.49 62.2009 144.86C62.6209 145.17 63.0009 145.45 63.4509 145.78C62.8309 146.59 62.2909 147.42 61.6309 148.12C60.7509 149.06 59.5509 149.06 58.4809 148.33C56.1909 146.76 54.1609 144.88 52.1409 142.98C51.2009 142.09 50.2909 141.19 49.4209 140.35C48.7109 140.63 48.0509 140.98 47.3509 141.14C46.1409 141.42 45.0209 141.07 44.1209 140.24C43.4309 139.61 42.8509 138.86 42.2109 138.14C42.5709 137.74 42.8909 137.38 43.2609 136.98C43.7509 137.55 44.2009 138.1 44.6809 138.62C45.6609 139.67 46.9809 139.85 48.0709 139.1C48.1109 139.07 48.1509 139.03 48.2409 138.95C48.1209 138.78 47.9909 138.63 47.9009 138.46C47.5509 137.86 47.1609 137.27 46.8909 136.63C46.6309 136.01 46.7109 135.34 47.0809 134.77C47.7809 133.69 48.7509 132.97 50.0209 132.68C50.2009 132.64 50.3909 132.64 50.5709 132.66C52.4309 132.91 53.6309 135.45 52.5809 137C52.1709 137.6 51.6109 138.11 51.1109 138.65C50.9409 138.84 50.7409 139 50.3709 139.34H50.3809ZM49.5009 138C50.0109 137.55 50.5109 137.15 50.9609 136.7C51.1709 136.49 51.3109 136.18 51.3909 135.88C51.5509 135.31 51.2809 134.88 50.8409 134.54C50.4409 134.22 50.0309 134.27 49.6009 134.51C48.1909 135.29 48.0109 136.12 48.9909 137.41C49.1309 137.6 49.2909 137.77 49.4909 138.01L49.5009 138Z" fill="#EC3237"/>
<path d="M65.8901 150.35C66.4201 150.54 66.8601 150.7 67.3501 150.87C66.9901 151.9 66.6401 152.89 66.2901 153.88C65.7801 155.33 66.4201 156.74 67.8601 157.29C68.5301 157.54 69.2101 157.79 69.8901 158.01C71.3201 158.48 72.6701 157.81 73.1701 156.4C73.6501 155.06 74.1201 153.72 74.5901 152.39C74.6601 152.2 74.7301 152.02 74.7901 151.87C74.8901 151.86 74.9201 151.84 74.9601 151.85C75.8601 152.103 76.1568 152.667 75.8501 153.54C75.7501 153.82 75.6501 154.09 75.5501 154.37C75.3001 155.13 75.5801 155.73 76.3501 155.96C76.5001 156.01 76.7501 155.88 76.8901 155.76C77.8001 155.02 78.6701 154.22 79.6201 153.52C80.0301 153.22 80.5801 153.03 81.1001 152.95C82.8001 152.67 84.0601 153.68 84.1401 155.47C84.1701 156.2 84.0401 156.99 83.7701 157.67C83.2601 158.98 82.0401 159.54 80.6901 159.11C79.0901 158.61 77.5101 158.05 75.9501 157.44C75.5101 157.27 75.1701 156.83 74.7701 156.51C74.6901 156.67 74.5701 156.93 74.4301 157.18C73.7301 158.44 72.7701 159.42 71.3001 159.67C70.7401 159.76 70.1201 159.67 69.5701 159.54C68.8001 159.35 68.0801 159.01 67.3201 158.78C65.1301 158.11 64.1901 155.93 64.7001 153.89C64.9901 152.72 65.4501 151.58 65.8601 150.36L65.8901 150.35ZM78.1301 156.62C79.2701 157.01 80.2701 157.37 81.2801 157.69C81.6901 157.82 82.0401 157.63 82.2901 157.28C82.7601 156.6 82.8901 155.86 82.6801 155.07C82.5601 154.62 82.2101 154.42 81.8001 154.49C80.3501 154.71 79.2801 155.59 78.1301 156.62Z" fill="#EC3237"/>
<path d="M86.7601 149.94C87.2301 150.03 87.7001 150.13 88.2101 150.23C87.9601 151.54 87.7201 152.8 87.4801 154.07C87.2901 155.08 87.0801 156.09 86.9001 157.11C86.6901 158.29 86.9001 158.64 88.0901 158.81C89.3301 158.99 90.5801 159.1 91.8301 159.19C93.0801 159.28 94.3401 159.31 95.5901 159.36C98.1001 159.47 100.43 158.97 102.47 157.41C102.82 157.14 103.21 156.92 103.58 156.67C103.61 156.65 103.62 156.61 103.64 156.58C103.41 155.97 102.97 155.7 102.1 155.73C101.07 155.76 100.03 155.83 99.0001 155.88C98.8201 155.88 98.6301 155.88 98.3801 155.88C98.3001 155.52 98.1801 155.15 98.1401 154.78C98.1301 154.67 98.3101 154.43 98.4101 154.43C99.9901 154.35 101.58 154.21 103.16 154.28C104.49 154.34 105.47 155.67 105.39 157C105.39 157.15 105.26 157.34 105.13 157.43C103.95 158.22 102.76 159 101.56 159.77C100.29 160.58 98.8401 160.87 97.3801 160.84C94.5401 160.78 91.7101 160.62 88.8801 160.44C88.1401 160.39 87.3901 160.22 86.6901 159.97C85.4801 159.52 85.0501 158.82 85.2701 157.56C85.7001 155.09 86.2001 152.63 86.6801 150.17C86.6901 150.1 86.7301 150.03 86.7601 149.94Z" fill="#EC3237"/>
<path d="M61.4407 57.76C60.7907 57.46 60.2207 57.19 59.6007 56.9C60.5707 54.76 61.8407 52.72 61.0707 50.12C60.7607 50.44 60.5707 50.66 60.3607 50.86C59.3507 51.84 57.9407 52.02 56.8007 51.33C55.5307 50.55 54.9507 49.16 55.3407 47.82C55.6207 46.85 56.5807 46.17 57.8007 46.07C60.4007 45.86 62.9307 47.94 63.2607 50.53C63.6007 53.16 62.6607 55.45 61.4307 57.76H61.4407ZM60.0707 49.44C59.5407 48.83 58.8007 48.65 58.1507 48.95C57.7307 49.14 57.5307 49.58 57.6707 50C57.8107 50.42 58.2207 50.65 58.6907 50.51C59.2707 50.34 59.7407 49.99 60.0707 49.44Z" fill="#EC3237"/>
<path d="M119.34 73.6101C119.62 73.8301 119.85 74.0001 120.11 74.2001C119.82 74.5801 119.58 74.9201 119.31 75.2401C119.12 75.4701 119.14 75.6301 119.31 75.8701C119.56 76.2301 119.79 76.6201 119.96 77.0201C120.36 77.9901 120.2 78.8901 119.48 79.7801C119.15 79.5101 118.81 79.2701 118.51 78.9801C118.44 78.9101 118.46 78.6801 118.51 78.5501C119.03 77.2801 117.89 75.4201 116.5 75.2901C115.67 75.2101 115.12 75.9301 115.43 76.7601C115.63 77.2901 115.93 77.7901 116.18 78.3001C116.48 78.9101 116.81 79.5101 117.09 80.1301C117.51 81.0501 117.54 81.9601 116.83 82.7701C116.08 83.6401 115.1 83.9201 114.03 83.6101C113.36 83.4201 112.74 83.0101 112.03 82.6701C111.84 82.8901 111.59 83.2001 111.3 83.5401C111.04 83.3401 110.8 83.1601 110.46 82.9101C111.57 82.2101 111.19 81.4701 110.73 80.5801C110.14 79.4501 110.49 78.3301 111.25 77.2901C111.66 77.6001 112.04 77.8901 112.4 78.1701C111.63 79.8901 111.96 81.1201 113.47 82.0001C113.81 82.2001 114.27 82.2901 114.67 82.2801C115.46 82.2501 115.93 81.5201 115.63 80.7801C115.36 80.1201 115 79.4901 114.68 78.8501C114.42 78.3201 114.14 77.8001 113.92 77.2501C113.53 76.2901 113.68 75.4001 114.43 74.6501C115.21 73.8701 116.15 73.7701 117.14 74.1201C117.55 74.2601 117.92 74.5301 118.36 74.7601C118.66 74.3901 118.98 74.0201 119.33 73.5901L119.34 73.6101Z" fill="#EC3237"/>
<path d="M100.521 83.3C100.731 83.69 100.911 84.02 101.121 84.41C100.841 84.57 100.601 84.72 100.381 84.85C100.301 84.81 100.251 84.81 100.241 84.79C99.8908 83.85 99.2708 83.66 98.2908 83.81C96.9608 84 96.0408 83.23 95.3308 82.1C95.7708 81.84 96.1808 81.6 96.6008 81.35C96.7508 81.54 96.8708 81.7 97.0108 81.84C97.5508 82.4 98.2108 82.69 98.9608 82.46C99.5808 82.27 100.211 82.01 100.741 81.64C101.321 81.24 101.451 80.5 101.191 79.96C100.961 79.47 100.471 79.27 99.7208 79.34C98.6708 79.44 97.6308 79.57 96.5808 79.61C95.2908 79.66 94.4108 79.08 94.0408 78.05C93.6608 77 93.9908 75.93 94.9508 75.14C95.1808 74.95 95.4208 74.79 95.7008 74.58C95.4608 74.14 95.2308 73.71 94.9708 73.23C95.2508 73.06 95.5108 72.91 95.8108 72.74C96.0108 73.08 96.2108 73.37 96.3608 73.68C96.5508 74.08 96.7708 74.21 97.2308 74.07C97.6608 73.94 98.1408 73.92 98.6008 73.94C99.5708 73.99 100.241 74.53 100.731 75.42C100.371 75.63 100.011 75.85 99.6408 76.02C99.5508 76.06 99.3408 75.96 99.2408 75.87C98.2508 74.89 96.1108 75.23 95.4708 76.48C95.0908 77.23 95.5008 77.99 96.3608 78.01C97.1708 78.02 97.9808 77.92 98.7908 77.87C99.2908 77.84 99.7808 77.82 100.281 77.78C102.321 77.64 103.301 79.73 102.591 81.36C102.261 82.1 101.691 82.61 101.021 83.03C100.881 83.12 100.741 83.2 100.541 83.32L100.521 83.3Z" fill="#EC3237"/>
<path d="M86.7211 127.63C84.8611 127.63 83.3711 126.15 83.3711 124.3C83.3711 122.45 84.8611 120.97 86.7211 120.97C88.5811 120.97 90.0811 122.46 90.0811 124.3C90.0811 126.15 88.5811 127.63 86.7211 127.63Z" fill="#EC3237"/>
<path d="M106.711 127.63C104.841 127.63 103.381 126.16 103.391 124.29C103.391 122.41 104.861 120.97 106.741 120.98C108.621 120.98 110.061 122.44 110.061 124.32C110.061 126.2 108.601 127.64 106.721 127.63H106.711Z" fill="#EC3237"/>
<path d="M67.2202 52.9601C66.5802 52.5601 66.0102 52.2101 65.4402 51.8601C66.0602 50.6701 66.7002 49.5601 67.2302 48.3801C67.5902 47.5801 67.8402 46.7301 68.0602 45.8701C68.2502 45.1001 67.9402 44.4501 67.3302 43.9601C66.6702 43.4401 65.9702 42.9601 65.2402 42.4201C65.5802 41.8301 65.9202 41.2301 66.3002 40.5701C67.1502 41.1601 67.9902 41.6701 68.7402 42.2801C69.9902 43.3001 70.4202 44.6901 70.1302 46.2501C69.6902 48.6901 68.3702 50.7501 67.2102 52.9401L67.2202 52.9601Z" fill="#EC3237"/>
<path d="M109.891 152.75C110.151 152.29 110.381 151.9 110.631 151.46C111.951 152.26 113.271 152.97 114.481 153.83C115.421 154.5 115.771 155.54 115.481 156.68C115.161 157.97 114.261 158.73 112.981 158.98C110.761 159.4 108.981 157.41 109.581 155.19C109.711 154.7 109.921 154.21 110.141 153.75C110.341 153.34 110.581 152.97 109.881 152.75H109.891ZM111.761 153.87C111.481 154.66 111.171 155.32 111.001 156.02C110.841 156.69 111.331 157.28 112.041 157.49C112.781 157.7 113.561 157.39 113.871 156.75C114.181 156.12 114.041 155.33 113.501 154.96C112.991 154.61 112.441 154.3 111.751 153.87H111.761Z" fill="#EC3237"/>
<path d="M119.761 156.62C119.271 156.81 118.841 156.97 118.361 157.15C117.141 153.94 115.941 150.78 114.721 147.56C115.181 147.38 115.621 147.21 116.111 147.02C117.331 150.23 118.531 153.39 119.761 156.62Z" fill="#EC3237"/>
<path d="M87.24 83.0301C87.38 83.2001 87.5 83.3601 87.65 83.5401C87.54 83.6601 87.43 83.7801 87.27 83.9501C86.96 83.4301 86.56 83.4201 86.05 83.6201C85.49 83.8301 85.02 83.5801 84.57 83.1701C84.72 83.0101 84.86 82.8601 84.98 82.7301C85.94 83.1201 86.51 83.0201 87.01 82.3701C87.24 82.0701 87.39 81.6901 87.08 81.4201C86.9 81.2601 86.52 81.2201 86.25 81.2801C85.8 81.3701 85.38 81.5901 84.95 81.7301C84.23 81.9601 83.75 81.8501 83.4 81.3801C83.05 80.9101 83.08 80.3901 83.49 79.7901C83.54 79.7101 83.6 79.6401 83.67 79.5301C83.51 79.3401 83.34 79.1501 83.16 78.9301C83.27 78.8101 83.37 78.6901 83.47 78.5901C83.54 78.6101 83.58 78.6001 83.6 78.6201C83.93 79.0501 84.29 79.1401 84.83 78.9001C85.41 78.6401 85.7 78.7801 86.18 79.2601C86.06 79.3901 85.93 79.5201 85.77 79.6901C85.11 79.2801 84.52 79.4701 84.08 80.0301C83.92 80.2301 83.86 80.6301 83.95 80.8601C84 80.9901 84.46 81.0601 84.71 81.0001C85.17 80.9001 85.61 80.6901 86.07 80.5401C86.84 80.2901 87.31 80.3901 87.66 80.8901C88.01 81.3801 87.96 82.0801 87.55 82.6401C87.45 82.7701 87.35 82.8901 87.23 83.0301H87.24Z" fill="#EC3237"/>
<path d="M77.8111 82.12C77.8611 82.25 77.9811 82.44 77.9411 82.51C77.7411 82.83 77.8911 83.04 78.0811 83.29C78.3011 83.57 78.4411 83.9 78.0611 84.35C77.9611 84.15 77.8311 84.01 77.8111 83.86C77.7611 83.38 77.4411 83.14 77.0411 83.02C76.8911 82.97 76.6311 83.04 76.5111 83.16C76.4311 83.25 76.4511 83.52 76.5311 83.65C76.7111 83.95 76.9611 84.2 77.1811 84.48C77.4611 84.84 77.7211 85.22 77.4011 85.68C77.0911 86.14 76.6511 86.24 76.1311 86.05C76.0411 86.02 75.9511 86 75.8411 85.97C75.7511 86.09 75.6511 86.22 75.5311 86.37C75.4311 86.3 75.2611 86.21 75.2711 86.19C75.5011 85.69 75.1011 85.34 74.9811 84.93C74.9211 84.72 74.9811 84.47 75.0011 84.24C75.0711 84.22 75.1411 84.19 75.2011 84.17C75.2811 84.33 75.4111 84.48 75.4311 84.65C75.4711 85.14 75.8011 85.59 76.2911 85.65C76.4811 85.67 76.7711 85.61 76.8711 85.47C76.9611 85.35 76.9211 85.04 76.8311 84.89C76.6111 84.53 76.2511 84.25 76.0811 83.87C75.9611 83.61 75.9311 83.18 76.0611 82.96C76.2011 82.74 76.6211 82.53 76.8811 82.57C77.3011 82.63 77.5011 82.52 77.6311 82.14C77.6911 82.14 77.7511 82.13 77.8111 82.12Z" fill="#EC3237"/>
<path d="M68.8104 85.9901C68.6804 85.7401 68.6004 85.5801 68.5104 85.4301C68.3904 85.2101 68.3104 84.9101 68.1204 84.8101C67.8804 84.6801 67.4604 84.5801 67.2904 84.7001C66.9304 84.9501 67.2504 85.2501 67.4404 85.4901C67.6204 85.7301 67.8104 85.9501 68.0004 86.1801C68.2604 86.5101 68.3804 86.8601 68.1504 87.2501C67.9004 87.6701 67.4904 87.78 67.0504 87.69C66.7704 87.63 66.5204 87.5001 66.3504 87.8601C66.3304 87.9001 66.1404 87.9101 66.1204 87.8801C66.0604 87.7901 66.0404 87.6701 66.0204 87.5601C65.9804 87.3601 65.9704 87.1601 65.9204 86.9701C65.8404 86.6001 65.7404 86.2301 65.6504 85.8601C65.7404 85.8201 65.8404 85.7801 65.9304 85.7501C66.0104 85.9101 66.1504 86.07 66.1604 86.23C66.1904 86.73 66.6204 87.2701 67.1104 87.2801C67.2804 87.2801 67.5304 87.18 67.6204 87.05C67.7004 86.93 67.6604 86.65 67.5704 86.51C67.3504 86.17 67.0104 85.9001 66.8404 85.5401C66.7104 85.2601 66.6604 84.86 66.7604 84.58C66.8904 84.2 67.2804 84.0801 67.6804 84.1701C67.9404 84.2301 68.1404 84.23 68.2704 83.94C68.3004 83.86 68.4604 83.84 68.5704 83.8C68.6004 83.92 68.6904 84.08 68.6504 84.16C68.4804 84.44 68.5804 84.6301 68.7704 84.8501C69.0204 85.1401 69.1504 85.48 68.8204 86.01L68.8104 85.9901Z" fill="#EC3237"/>
<path d="M101.41 151.47C101.41 152.1 100.91 152.55 100.26 152.54C99.56 152.54 99.18 152.13 99.2 151.42C99.22 150.83 99.64 150.5 100.4 150.51C101.07 150.51 101.42 150.85 101.41 151.47Z" fill="#EC3237"/>
<path d="M136.3 44.1201C136.79 44.5501 137.21 44.9301 137.66 45.3301C137.25 45.7901 136.88 46.2101 136.45 46.7001C136 46.3001 135.57 45.9201 135.09 45.4901C135.49 45.0301 135.88 44.6001 136.3 44.1201Z" fill="#EC3237"/>
<path d="M138.23 45.8301C138.7 46.2501 139.11 46.6101 139.57 47.0201C139.17 47.4801 138.78 47.9101 138.37 48.3901C137.91 47.9901 137.49 47.6201 137.01 47.2001C137.41 46.7401 137.8 46.3101 138.22 45.8301H138.23Z" fill="#EC3237"/>
<path d="M63.4207 141.87C63.4007 142.32 62.9807 142.7 62.4907 142.69C61.9107 142.69 61.3907 142.16 61.4107 141.59C61.4207 141.12 61.8207 140.72 62.2407 140.74C62.7607 140.77 63.4407 141.41 63.4207 141.87Z" fill="#EC3237"/>
<path d="M64.7305 142.59C65.2905 142.6 65.9405 143.21 65.9205 143.71C65.9005 144.17 65.4605 144.55 64.9705 144.53C64.4305 144.51 63.8905 143.97 63.9005 143.45C63.9005 142.99 64.2905 142.59 64.7305 142.6V142.59Z" fill="#EC3237"/>
</g>
<defs>
<clipPath id="clip0_4976_32145">
<rect width="192" height="192" fill="white"/>
</clipPath>
</defs>
</svg>
