<svg width="192" height="192" viewBox="0 0 192 192" fill="none" xmlns="http://www.w3.org/2000/svg">
<g clip-path="url(#clip0_4880_34675)">
<path d="M96 192C149.019 192 192 149.019 192 96C192 42.9807 149.019 0 96 0C42.9807 0 0 42.9807 0 96C0 149.019 42.9807 192 96 192Z" fill="white"/>
<path d="M110.928 120.305C111.898 119.405 112.878 118.505 113.828 117.585C114.248 117.175 114.688 116.965 115.308 116.965C120.938 116.985 126.568 116.975 132.188 116.985C132.358 116.985 132.518 117.025 132.788 117.055C132.528 117.775 131.938 118.145 131.468 118.585C126.228 123.525 121.168 128.625 116.788 134.345C114.728 137.025 112.768 139.775 111.268 142.815C111.008 143.335 110.768 143.705 110.048 143.695C104.038 143.645 98.0178 143.645 92.0078 143.635C94.1178 140.265 96.7978 137.295 99.0278 134.005C99.4178 133.755 99.7178 133.425 99.8778 132.985C101.208 131.385 102.568 129.805 103.878 128.185C106.108 125.445 108.588 122.935 110.928 120.285V120.305Z" fill="#EC1C24"/>
<path d="M99.0284 134.015C96.7984 137.305 94.1184 140.275 92.0084 143.645C83.2784 140.385 76.2984 133.135 76.6284 123.195C76.6884 121.355 77.0784 119.565 77.4584 117.775C77.5884 117.175 77.9084 116.965 78.5384 116.965C82.3984 116.985 86.2584 116.995 90.1284 116.965C90.9784 116.965 91.0184 117.175 90.7084 117.905C87.6084 125.125 91.2584 132.155 99.0384 134.025L99.0284 134.015Z" fill="#2E3192"/>
<path d="M111.099 120.225C108.859 122.755 106.479 125.165 104.349 127.795C103.089 129.345 101.799 130.865 100.519 132.395C95.2091 131.725 91.5191 127.355 91.7591 122.035C91.9791 117.005 96.1091 113.005 101.319 112.775C105.799 112.585 109.669 115.525 111.109 120.225H111.099Z" fill="#2E3192"/>
<path d="M31.2988 92.9254C31.0188 92.4154 30.4388 92.4954 29.9988 92.3054C26.0288 90.6154 23.7388 87.6354 23.5988 83.3754C23.4188 78.0554 23.5488 72.7354 23.5288 67.4054C23.5288 66.7554 23.5288 66.2654 24.4088 66.1554C26.7888 65.8554 29.1588 65.4754 31.5188 65.0854C32.5588 64.9154 32.2488 65.6654 32.2588 66.1254C32.2788 68.6754 32.3388 71.2254 32.2388 73.7754C32.1788 75.2554 32.8388 75.7954 34.1888 75.8054C35.4188 75.8054 36.6488 75.7654 37.8688 75.8254C38.7988 75.8654 38.9788 75.4354 38.9688 74.6254C38.9388 71.3554 38.9888 68.0854 38.9388 64.8154C38.9288 63.8854 39.1088 63.4054 40.1588 63.2854C42.2588 63.0454 44.3488 62.6854 46.4388 62.3354C47.2888 62.1954 47.7488 62.2354 47.7388 63.3354C47.6888 69.8754 47.7788 76.4254 47.6788 82.9654C47.6088 87.7454 44.7588 91.2654 40.1688 92.5954C39.9488 92.6554 39.7388 92.6754 39.6788 92.9354H31.2888L31.2988 92.9254Z" fill="#2E3192"/>
<path d="M106.829 84.2153C105.049 84.3853 103.339 84.3353 102.109 82.7753C101.709 82.2653 101.449 82.6753 101.149 82.8953C98.5685 84.7853 95.9985 84.7854 93.4685 82.8354C93.0485 82.5154 92.8085 82.4454 92.3585 82.8054C89.8485 84.7954 87.2485 84.8054 84.6885 82.9154C84.1385 82.5054 83.9485 82.6553 83.5085 83.0453C81.5885 84.7653 77.8685 84.8353 75.9385 83.1753C75.3885 82.7053 75.1185 82.4554 74.5185 83.1254C73.6485 84.0954 72.4285 84.3053 71.1485 84.2753C69.2485 84.2453 67.2385 83.8754 65.4785 84.3754C63.5785 84.9154 63.5685 87.3553 62.4785 88.8153C59.4085 92.9453 59.4885 93.0154 55.4385 89.9154C54.4285 89.1354 52.9485 88.4753 52.6185 87.4553C52.2985 86.4953 53.8785 85.5453 54.3785 84.3853C53.6085 84.0853 52.8085 83.8553 52.0885 83.4653C49.9385 82.2953 48.6285 80.6353 48.6885 78.0154C48.7785 74.1354 48.6585 70.2453 48.6885 66.3653C48.7285 61.8253 52.1085 58.3753 56.5285 58.2953C60.8985 58.2153 64.6285 61.5653 64.8185 65.9653C64.8985 67.9353 66.2285 67.0053 67.0685 67.1753C68.0785 67.3753 68.7085 67.0353 68.4885 65.8653C68.2685 64.6653 68.7485 64.2453 69.9885 64.1553C71.9285 64.0053 73.8585 63.6454 75.7785 63.3054C76.8585 63.1154 77.5385 63.2453 77.3185 64.5653C77.2685 64.8353 77.3185 65.1153 77.3185 65.3953C77.3185 67.0453 78.3985 67.7454 79.9785 67.1654C80.6585 66.9154 80.5185 66.3454 80.4585 65.9154C80.2885 64.6354 80.9085 64.3053 82.0785 64.2553C83.6385 64.1853 85.1985 64.0154 86.7385 63.7354C87.7685 63.5554 88.0485 63.8853 87.9585 64.8253C87.9085 65.3153 87.9685 65.8253 87.9485 66.3253C87.9185 66.9553 88.1685 67.2053 88.8285 67.2053C89.4685 67.2053 89.8285 66.9653 89.6985 66.3353C89.3185 64.4853 90.3985 64.1853 91.8685 64.2053C92.3085 64.2053 92.7485 64.0553 93.1885 64.0053C94.1285 63.8953 95.2485 63.4353 95.9685 63.7853C96.8685 64.2153 96.2485 65.4654 96.3285 66.3454C96.3885 66.9854 96.6085 67.1953 97.2385 67.1953C97.9185 67.1953 98.1985 66.8953 98.0785 66.2953C97.6885 64.3853 98.8885 64.2953 100.299 64.2253C101.859 64.1453 103.419 63.9553 104.959 63.7153C105.859 63.5753 106.049 63.8253 106.149 64.7053C106.239 65.5553 105.399 66.7353 106.809 67.2653C106.409 67.7053 106.369 68.2453 106.369 68.8054C106.369 73.4354 106.369 78.0553 106.369 82.6853C106.369 83.2553 106.429 83.7853 106.849 84.2053L106.829 84.2153ZM56.6685 65.7253C55.7585 65.8953 54.9885 66.4253 54.9685 67.5253C54.9485 68.6353 55.6885 69.3153 56.7585 69.3353C57.8385 69.3653 58.5785 68.6653 58.5885 67.5753C58.5885 66.5053 57.9385 65.8553 56.6685 65.7153V65.7253Z" fill="#2E3192"/>
<path d="M130.478 66.9253C130.478 63.3153 130.528 59.7053 130.448 56.1053C130.428 55.0453 130.728 54.6753 131.778 54.4853C134.028 54.0853 136.248 53.5353 138.478 52.9953C139.438 52.7653 139.738 53.0153 139.728 54.0153C139.678 58.0153 139.698 62.0053 139.718 66.0053C139.718 66.4653 139.518 67.1353 140.288 67.1553C141.168 67.1753 142.088 67.4053 142.908 66.9953C143.178 66.8653 142.878 66.3853 142.798 66.0753C142.348 64.3853 142.218 62.7053 142.708 60.9853C143.818 57.0253 146.958 54.5653 150.748 54.7553C154.968 54.9553 157.838 57.4153 158.378 61.7453C159.058 67.1553 158.838 72.6153 158.488 78.0353C158.258 81.5053 155.258 84.1253 151.698 84.2053C146.948 84.3153 142.188 84.3353 137.448 84.1753C133.378 84.0353 130.998 81.4253 130.958 77.3953C130.918 73.8953 130.958 70.4053 130.958 66.9053H130.498L130.478 66.9253ZM150.538 64.5153C151.578 64.3753 152.198 63.7853 152.158 62.7253C152.108 61.6753 151.488 61.0653 150.398 61.1153C149.308 61.1553 148.708 61.8453 148.758 62.8553C148.798 63.8653 149.468 64.4653 150.538 64.5153Z" fill="#EC1C24"/>
<path d="M106.83 84.2153C106.4 83.7953 106.35 83.2653 106.35 82.6953C106.36 78.0653 106.35 73.4453 106.35 68.8153C106.35 68.2553 106.39 67.7153 106.79 67.2753C108.22 67.4153 108.82 66.8553 109.03 65.3453C109.37 62.8953 110.82 60.8353 113.16 60.0853C115.55 59.3153 117.18 57.7853 118.8 56.1353C119.63 55.2853 120.11 55.3553 120.91 56.1653C123.05 58.3553 125.4 60.3353 127.44 62.6253C129.1 64.4853 130.04 66.5453 129.93 69.1153C129.8 72.1653 129.98 75.2253 129.84 78.2653C129.61 83.2653 125.32 86.3753 120.43 85.0653C118.15 84.4553 116.1 83.4553 113.5 84.1553C111.42 84.7053 109.06 84.2353 106.83 84.2153ZM117.8 66.0953C117.57 65.3153 117.2 64.5753 116.15 64.5553C115.14 64.5353 114.52 65.0853 114.45 66.0653C114.37 67.1753 115.07 67.8153 116.12 67.8153C117.08 67.8153 117.63 67.1353 117.8 66.0953ZM122.43 69.5453C123.28 69.5153 123.82 69.0353 123.82 68.1053C123.82 67.1753 123.28 66.6753 122.34 66.6653C121.39 66.6653 120.84 67.2153 120.84 68.1053C120.84 68.9953 121.38 69.5253 122.43 69.5453Z" fill="#EC1C24"/>
<path d="M168.388 72.7753C168.388 75.0453 168.198 77.3353 168.428 79.5853C168.858 83.7753 167.198 87.1253 164.628 90.2153C162.548 92.7053 162.588 92.7353 159.938 90.7253C159.898 90.6953 159.848 90.6553 159.808 90.6253C158.488 89.6053 156.538 88.8353 156.008 87.5053C155.468 86.1353 157.618 85.0353 158.298 83.6153C158.958 82.2453 159.398 80.8553 159.388 79.3153C159.358 74.2753 159.408 69.2253 159.358 64.1853C159.348 63.1153 159.558 62.6253 160.768 62.5253C162.878 62.3453 164.968 61.9653 167.058 61.6053C168.058 61.4353 168.448 61.6753 168.428 62.7753C168.358 66.0953 168.408 69.4253 168.408 72.7553L168.388 72.7753Z" fill="#EC1C24"/>
<path d="M75.2293 61.5854C74.0293 61.5954 72.9593 60.5653 72.9493 59.3853C72.9393 58.1753 73.9393 57.1654 75.1793 57.1554C76.4293 57.1454 77.4393 58.1154 77.4593 59.3354C77.4693 60.5354 76.4493 61.5754 75.2293 61.5854Z" fill="#2E3192"/>
<path d="M150.359 48.3153C151.589 48.3453 152.549 49.3653 152.529 50.5953C152.509 51.8453 151.509 52.7853 150.249 52.7553C149.009 52.7253 148.029 51.7053 148.059 50.4853C148.089 49.2953 149.159 48.2753 150.359 48.3053V48.3153Z" fill="#EC1C24"/>
<path d="M70.0992 61.5754C68.8792 61.4754 67.9492 60.4054 68.0392 59.1854C68.1292 57.9454 69.1692 57.0654 70.4292 57.1554C71.6692 57.2454 72.5992 58.3054 72.5092 59.5154C72.4092 60.6954 71.2792 61.6654 70.0992 61.5754Z" fill="#2E3192"/>
<path d="M37.7386 70.8153C37.7386 72.0853 36.8186 73.0154 35.5386 73.0154C34.2686 73.0154 33.3086 72.0853 33.3086 70.8253C33.3086 69.5953 34.2986 68.6053 35.5286 68.6053C36.7886 68.6053 37.7286 69.5453 37.7386 70.8153Z" fill="#2E3192"/>
</g>
<defs>
<clipPath id="clip0_4880_34675">
<rect width="192" height="192" fill="white"/>
</clipPath>
</defs>
</svg>
