<svg width="192" height="192" viewBox="0 0 192 192" fill="none" xmlns="http://www.w3.org/2000/svg">
<g clip-path="url(#clip0_4880_34626)">
<path d="M96 192C149.019 192 192 149.019 192 96C192 42.9807 149.019 0 96 0C42.9807 0 0 42.9807 0 96C0 149.019 42.9807 192 96 192Z" fill="url(#paint0_linear_4880_34626)"/>
<path d="M108.299 77.6999C108.029 71.8899 102.189 66.7599 95.7293 66.8299C89.4993 66.8899 83.8093 72.1199 83.5893 77.7799C83.5293 79.6499 84.2593 80.0799 85.9193 80.0499C89.2093 79.9699 92.5193 80.0299 95.8093 80.0299C99.0993 80.0299 102.659 79.9699 106.079 80.0599C107.839 80.0999 108.389 79.4799 108.299 77.6999ZM108.299 77.6999C108.029 71.8899 102.189 66.7599 95.7293 66.8299C89.4993 66.8899 83.8093 72.1199 83.5893 77.7799C83.5293 79.6499 84.2593 80.0799 85.9193 80.0499C89.2093 79.9699 92.5193 80.0299 95.8093 80.0299C99.0993 80.0299 102.659 79.9699 106.079 80.0599C107.839 80.0999 108.389 79.4799 108.299 77.6999ZM163.299 57.9699C163.119 41.1099 150.489 28.7799 133.639 28.8699C107.379 28.9999 81.1293 28.1299 54.8793 29.3499C41.3993 29.9799 29.2093 41.5899 28.6493 55.2499C28.3193 63.3199 28.6293 71.4099 28.6493 79.4899C28.6393 98.2299 28.4093 116.97 28.6993 135.71C28.9193 150.1 41.3793 162.87 55.4093 163.03C80.3493 163.28 105.289 163.11 130.219 163.12C150.139 165.17 163.159 150.37 163.299 135.12C163.549 109.41 163.579 83.6899 163.299 57.9699ZM114.429 131.01C111.399 131.5 108.359 131.83 105.299 131.3C95.3893 131.54 85.4593 132.23 75.6093 130.74C68.2793 129.63 64.3293 125.38 64.2293 118.11C64.0793 108.13 65.9593 98.2999 67.7093 88.4999C67.8593 87.7199 68.5093 87.0399 68.9293 86.3199C69.9793 83.1199 72.3993 81.3099 75.4593 80.5299C77.2693 80.0699 77.9493 79.5399 78.0693 77.5199C78.6893 67.9699 86.2193 60.9499 95.6893 60.7999C105.119 60.6599 112.929 67.3899 113.849 76.8799C114.079 79.2199 114.769 80.0299 116.939 80.7599C122.069 82.4699 124.169 86.8699 124.939 91.7399C126.129 99.3399 127.279 106.97 127.769 114.64C128.339 123.33 124.649 129.4 114.429 131.01ZM133.819 66.7899C130.309 66.6799 127.349 63.5799 127.359 60.0399C127.369 56.1999 130.239 53.4799 134.209 53.5499C137.969 53.6199 140.699 56.3799 140.659 60.0999C140.619 63.8599 137.499 66.9099 133.819 66.7899ZM95.7293 66.8299C89.4993 66.8899 83.8093 72.1199 83.5893 77.7799C83.5293 79.6499 84.2593 80.0799 85.9193 80.0499C89.2093 79.9699 92.5193 80.0299 95.8093 80.0299C99.0993 80.0299 102.659 79.9699 106.079 80.0599C107.839 80.0999 108.389 79.4799 108.299 77.6999C108.029 71.8899 102.189 66.7599 95.7293 66.8299Z" fill="#010101"/>
</g>
<defs>
<linearGradient id="paint0_linear_4880_34626" x1="138.44" y1="25.58" x2="39.32" y2="190.05" gradientUnits="userSpaceOnUse">
<stop stop-color="#7A38C4"/>
<stop offset="0.46" stop-color="#EA214D"/>
<stop offset="1" stop-color="#F87849"/>
</linearGradient>
<clipPath id="clip0_4880_34626">
<rect width="192" height="192" fill="white"/>
</clipPath>
</defs>
</svg>
