<svg width="192" height="192" viewBox="0 0 192 192" fill="none" xmlns="http://www.w3.org/2000/svg">
<g clip-path="url(#clip0_4880_34647)">
<path d="M96 192C149.019 192 192 149.019 192 96C192 42.9807 149.019 0 96 0C42.9807 0 0 42.9807 0 96C0 149.019 42.9807 192 96 192Z" fill="white"/>
<path d="M70.6259 90.505C71.6205 90.505 72.6248 90.505 73.6194 90.3987C79.7223 89.7324 83.4593 85.3967 83.2855 79.2165C83.1407 74.0986 78.4959 70.0236 72.673 70.0139C68.1152 70.0139 63.4897 70.5837 59.0091 70.3036C51.3902 69.8304 43.7905 70.1877 36.1909 70.0332C30.8702 69.927 26.5827 73.7413 26.0709 78.6275C25.4722 84.3248 28.7071 88.8923 34.1823 90.1573C36.8186 90.7657 39.4837 90.4856 42.1393 90.4953C43.6457 90.4953 44.1575 90.8043 44.1575 92.5425C44.1671 96.8589 44.1864 106.177 44.1768 106.496C43.5877 108.881 44.0899 111.247 44.5148 113.623C45.4514 118.885 49.652 122.004 55.301 121.821C60.2452 121.657 64.2333 117.978 64.8127 112.966C65.45 107.365 65.0541 101.745 65.0637 96.1347C65.0702 92.3944 66.9242 90.5178 70.6259 90.505Z" fill="#00AFFB"/>
<path d="M125.881 102.296C128.295 100.364 130.506 98.1916 132.747 96.0575C133.432 95.4008 134.301 94.5994 133.538 93.4985C132.727 92.3301 131.626 92.5618 130.593 93.1799C128.527 94.4255 126.489 95.7195 124.297 97.0811C124.297 94.8697 124.413 93.006 124.259 91.1617C124.152 89.916 123.515 88.7958 122.047 88.651C120.521 88.4965 119.836 89.5297 119.527 90.7851C117.634 98.5006 116.504 106.332 115.973 114.25C115.896 115.477 115.964 116.626 117.605 116.307C119.054 116.027 121.584 117.485 121.748 115.003C122.086 110.001 123.969 112.039 126.035 113.738C126.634 114.231 127.32 114.598 127.957 115.042C128.894 115.679 129.975 116.404 130.95 115.486C132.003 114.492 131.578 113.198 130.806 112.174C129.135 109.982 127.464 107.78 125.639 105.714C124.432 104.362 124.355 103.522 125.881 102.305V102.296Z" fill="#00AFFB"/>
<path d="M112.37 97.6123C110.198 96.6274 109.338 99.167 108.064 100.403C107.919 100.548 107.716 100.635 107.484 100.789C106.934 99.4471 107.726 97.2261 105.901 96.8591C103.303 96.3473 103.12 99.5147 101.459 100.567C100.705 99.8526 101.275 99.0801 101.256 98.3752C101.246 97.6317 101.014 96.946 100.348 96.7819C99.4791 96.5598 98.9286 97.1585 98.6776 97.9889C97.2774 102.634 96.4952 107.394 96.1283 112.213C96.051 113.208 96.4566 114.25 97.6347 114.482C98.7452 114.704 99.566 114.086 100.029 113.111C100.676 111.749 101.256 110.349 101.98 108.679C104.327 111.663 105.92 110.04 108.044 107.066C108.044 109.384 107.938 110.678 108.083 111.952C108.17 112.734 108.913 113.381 109.657 113.468C110.729 113.594 110.652 112.59 110.835 111.856C111.579 108.881 112.515 105.936 113.104 102.923C113.452 101.127 114.698 98.6649 112.37 97.6027V97.6123Z" fill="#00AFFB"/>
<path d="M151.181 110.059C148.632 110.04 148.41 108.64 148.651 106.651C148.912 104.468 149.076 102.276 149.221 100.084C149.289 98.9544 149.144 97.6411 147.879 97.3707C146.199 97.0037 146.44 98.7033 146.121 99.5917C145.436 101.533 145.455 103.686 144.103 106.139C144.103 103.792 144.151 102.064 144.084 100.355C144.016 98.7516 143.572 97.2355 141.843 96.6754C140.067 96.1057 138.85 97.2355 137.875 98.4426C134.727 102.334 133.297 106.921 132.805 111.807C132.689 112.947 132.844 114.559 134.553 114.395C135.866 114.27 136.079 113.043 135.75 111.826C135.422 110.6 135.76 109.364 136.397 108.398C137.044 107.423 138.464 107.336 139.439 107.52C140.926 107.8 140.018 109.354 140.395 110.281C140.743 111.131 140.086 112.609 141.399 112.792C143.002 113.014 142.645 111.305 143.099 110.436C143.582 109.509 143.06 108.118 144.393 107.346C144.74 112.985 145.658 113.758 151.152 113.149C152.06 113.053 153.393 113.42 153.46 111.952C153.537 110.503 152.205 110.059 151.181 110.05V110.059ZM137.691 104.584C138.348 102.933 138.898 101.668 140.134 100.789C140.501 103.268 139.687 104.533 137.691 104.584Z" fill="#00AFFB"/>
<path d="M79.7785 100.596C78.9577 100.374 77.6831 101.339 77.3644 99.7365C76.8816 97.3417 78.5135 95.3525 81.0532 95.3525C81.9416 95.1014 83.2645 96.0864 83.9019 94.7345C84.1336 94.2516 83.9695 93.3439 83.6411 92.8804C81.7967 90.3021 75.4814 91.0167 74.2744 93.9716C72.4879 98.346 71.0394 102.827 70.2283 107.5C69.9965 108.823 70.1607 110.108 70.5276 111.402C71.2615 114.018 73.0094 114.955 75.549 114.405C77.2775 114.028 78.8515 113.188 80.2807 112.097C81.256 111.353 81.845 110.426 81.2946 109.258C80.6187 107.829 79.6144 108.881 78.755 109.123C76.6016 109.75 75.5587 109.605 75.8387 106.766C76.1284 103.85 77.9631 103.937 79.933 103.667C80.8987 103.532 82.0478 103.28 81.9995 101.967C81.9513 100.538 80.6863 100.837 79.7785 100.596Z" fill="#00AFFB"/>
<path d="M93.0776 96.0188C91.2428 95.4298 89.833 96.4147 88.7418 97.757C85.082 102.247 83.2473 107.471 82.8031 113.178C82.7065 114.463 82.6679 116.268 84.3867 116.288C86.3567 116.307 86.2697 114.598 85.9414 112.966C85.9511 112.676 85.98 112.242 85.9897 111.797C86.0766 109.335 87.4285 108.283 89.833 108.34C92.4402 108.408 90.9338 110.426 91.3394 111.517C91.5229 112.01 91.4166 112.609 91.5132 113.149C91.6291 113.835 91.9381 114.424 92.7589 114.443C93.57 114.453 93.879 113.922 94.0529 113.217C95.1344 108.736 96.3028 104.275 95.5882 99.582C95.3372 97.9501 94.7288 96.5403 93.0776 96.0091V96.0188ZM88.259 105.067C88.9446 103.464 89.6302 101.919 90.8759 100.644C92.0733 104.652 91.716 105.27 88.259 105.067Z" fill="#00AFFB"/>
<path d="M165.985 103C165.985 102.218 165.985 101.668 165.985 101.117C165.966 99.2828 165.657 97.4577 163.735 96.7238C161.669 95.932 160.356 97.477 159.322 98.8675C156.57 102.566 155.083 106.795 154.678 111.363C154.571 112.58 154.32 114.424 156.252 114.337C157.72 114.27 157.826 112.947 157.478 111.556C157.285 110.784 157.671 109.847 157.884 109.007C158.338 107.249 159.998 107.558 161.157 107.481C162.538 107.394 161.804 108.775 162.065 109.49C162.49 110.619 161.582 112.667 163.369 112.754C165.068 112.831 164.778 110.755 165.049 109.615C165.57 107.385 166.13 105.115 165.976 103.01L165.985 103ZM159.583 104.826C159.834 103.136 160.81 101.967 161.949 100.866C161.852 102.489 163.204 104.99 159.583 104.826Z" fill="#00AFFB"/>
<path d="M118.522 118.161C117.894 118.866 115.905 117.292 116.079 119.561C116.185 120.952 117.035 122.024 118.638 121.985C120.309 121.946 120.985 120.527 121.081 119.329C121.236 117.543 119.546 118.596 118.522 118.161Z" fill="#00AFFB"/>
</g>
<defs>
<clipPath id="clip0_4880_34647">
<rect width="192" height="192" fill="white"/>
</clipPath>
</defs>
</svg>
