<svg width="192" height="192" viewBox="0 0 192 192" fill="none" xmlns="http://www.w3.org/2000/svg">
<g clip-path="url(#clip0_4880_34601)">
<path d="M96 192C149.019 192 192 149.019 192 96C192 42.9807 149.019 0 96 0C42.9807 0 0 42.9807 0 96C0 149.019 42.9807 192 96 192Z" fill="white"/>
<path d="M37.0802 103.8C37.0802 107.04 37.0702 110.28 37.0802 113.51C37.0802 114.92 36.8402 116.49 38.3902 117.3C39.9102 118.09 41.2602 117.33 42.4702 116.43C48.4002 112.01 54.3902 107.66 60.2102 103.11C66.5302 98.17 72.7302 93.09 78.9102 87.98C88.9602 79.68 98.9402 71.31 108.96 62.96C109.49 62.52 110.03 62.1 110.83 61.46C110.89 62.5 110.96 63.18 110.95 63.85C110.91 70.66 110.85 77.47 110.82 84.28C110.82 85.27 110.5 85.92 109.69 86.57C97.8402 96.13 86.0302 105.74 74.2102 115.33C64.4702 123.23 54.7702 131.17 44.9702 138.99C41.3502 141.88 37.1202 143.59 32.4502 143.4C27.1302 143.18 23.0202 140.41 22.8602 133.84C22.7402 129.01 22.6802 124.19 22.5102 119.36C22.4602 117.94 22.8402 116.91 23.9102 115.9C27.8502 112.17 31.6902 108.33 35.5602 104.54C35.9102 104.2 36.3002 103.9 36.6702 103.58C36.8102 103.65 36.9402 103.72 37.0802 103.79V103.8Z" fill="#640B0D"/>
<path d="M129.64 46.5801C129.64 52.0101 129.64 56.9901 129.64 61.9701C129.67 78.2401 129.71 94.5001 129.75 110.77C129.75 111.43 129.76 112.1 129.89 112.74C130.36 115.24 131.71 115.83 133.75 114.27C137.22 111.63 140.65 108.92 144.01 106.15C151.41 100.05 158.75 93.8801 166.12 87.7501C166.38 87.5401 166.67 87.3601 167.15 87.0101C167.2 88.1401 167.26 89.0301 167.27 89.9201C167.35 96.7301 167.4 103.54 167.5 110.36C167.51 111.3 167.29 111.94 166.52 112.56C155.69 121.28 144.89 130.04 134.06 138.75C132.68 139.86 131.16 140.81 129.63 141.71C125.17 144.34 120.87 143.06 118.92 138.25C117.89 135.7 117.21 132.91 116.91 130.17C116.36 125.13 115.98 120.04 115.95 114.97C115.83 96.2101 115.88 77.4601 115.83 58.7001C115.83 57.4501 116.21 56.6301 117.2 55.8801C120.88 53.0901 124.49 50.2301 128.15 47.4101C128.48 47.1501 128.89 47.0001 129.64 46.5801Z" fill="#640B0D"/>
<path d="M110.62 98.18C110.62 105.78 110.64 113.39 110.57 120.99C110.57 121.56 110.04 122.28 109.55 122.68C104.42 126.83 99.2598 130.92 94.0998 135.03C91.0098 137.5 87.9498 140.01 84.8098 142.42C84.1798 142.9 83.2698 143.29 82.4998 143.29C73.4098 143.24 64.3198 143.11 55.2298 142.99C54.9998 142.99 54.7698 142.93 54.3398 142.51C72.8698 127.6 91.4098 112.68 109.94 97.77C110.17 97.91 110.39 98.05 110.62 98.19V98.18Z" fill="#640B0D"/>
<path d="M167.36 51.7002C167.36 58.0402 167.05 64.1502 167.46 70.2202C167.75 74.4302 166.14 76.9002 162.91 79.3502C154.07 86.0602 145.52 93.1402 136.85 100.07C136.39 100.44 135.89 100.77 135.23 101.25C135.13 100.67 135.01 100.3 135 99.9302C134.86 92.9702 134.71 86.0102 134.65 79.0502C134.65 78.4702 135.04 77.7002 135.5 77.3202C142.37 71.7202 149.29 66.1802 156.2 60.6202C159.28 58.1402 162.34 55.6402 165.41 53.1602C166.02 52.6702 166.67 52.2102 167.35 51.7102L167.36 51.7002Z" fill="#640B0D"/>
<path d="M110.53 129.47V143.36H93.0801C98.9201 138.7 104.38 134 110.53 129.47Z" fill="#640B0D"/>
</g>
<defs>
<clipPath id="clip0_4880_34601">
<rect width="192" height="192" fill="white"/>
</clipPath>
</defs>
</svg>
