<svg width="192" height="192" viewBox="0 0 192 192" fill="none" xmlns="http://www.w3.org/2000/svg">
<g clip-path="url(#clip0_4927_33563)">
<path d="M96 192C149.019 192 192 149.019 192 96C192 42.9807 149.019 0 96 0C42.9807 0 0 42.9807 0 96C0 149.019 42.9807 192 96 192Z" fill="white"/>
<path d="M20.0677 71.5442C22.8582 70.9647 25.7668 71.4369 28.611 71.2544C31.7879 71.2544 35.7912 71.6516 37.4226 74.8392C38.249 77.3185 37.9807 80.1412 36.521 82.32C35.2009 84.3592 37.4011 86.0657 38.1417 87.8044C39.0325 90.9599 38.3241 94.9846 35.2975 96.7556C31.1654 99.149 26.2498 98.065 21.7205 98.3011C20.0891 98.5157 18.1358 97.4103 18.2324 95.5857C18.1465 88.545 18.2002 81.4935 18.2002 74.4421C18.1143 73.1863 18.7475 71.8447 20.0569 71.5335L20.0677 71.5442ZM25.7238 76.5672C24.1891 77.3614 24.0173 79.465 24.6184 80.9032C25.5951 82.7922 28.1602 82.7707 29.8774 82.0302C31.9167 81.0213 32.3996 77.0287 29.9526 76.2774C28.5573 76.1593 27.044 75.9661 25.7238 76.5564V76.5672ZM24.7257 88.2874C23.9529 89.8973 24.0817 92.5912 26.0673 93.2567C27.7631 93.7182 29.7916 93.7074 31.2834 92.6878C32.4426 91.0994 32.0455 89.028 31.3264 87.3429C29.1798 86.817 26.1961 86.1194 24.7257 88.2981V88.2874Z" fill="#20935A"/>
<path d="M43.1956 72.3694C44.1079 71.8971 44.9022 70.9849 45.9969 71.0492C47.8859 70.8346 49.6782 72.5733 49.4529 74.4837C49.4314 81.503 49.5495 88.5222 49.3992 95.5415C49.1094 98.6433 43.9899 99.0296 43.1205 96.1318C42.3585 92.4826 43.1098 88.7476 42.9702 85.0555C43.1527 80.8268 42.4229 76.5659 43.1956 72.3694Z" fill="#20935A"/>
<path d="M54.4973 73.2384C54.2719 71.9934 55.2486 70.7484 56.5687 71.0489C58.0606 71.1992 60.1427 70.4586 61.0765 72.0041C61.3233 74.9986 61.0121 78.0038 61.3019 80.9982C62.139 80.9231 63.3411 81.5671 63.9099 80.687C66.1102 77.553 67.924 74.1722 70.1886 71.0919C72.1635 71.0597 74.149 71.0704 76.1131 71.167C76.1346 72.0578 76.521 73.0667 75.8985 73.8394C73.9988 76.9412 71.9273 79.9357 70.0491 83.0374C69.491 83.8746 69.7164 84.905 70.2745 85.667C72.3674 88.9727 74.5891 92.2033 76.6498 95.5304C77.2293 96.228 76.8752 97.1189 76.8 97.9238C74.6642 97.956 72.2386 98.8683 70.2852 97.7199C67.8918 94.5645 66.1209 90.969 63.7489 87.8028C63.1157 86.8154 61.3126 87.3628 61.2267 88.4897C61.0228 91.5486 61.2267 94.6289 61.1301 97.6984C58.9943 98.4605 56.6653 98.4927 54.5402 97.6877C54.4651 89.5415 54.5295 81.4061 54.508 73.2599L54.4973 73.2384Z" fill="#20935A"/>
<path d="M96.6572 77.0278C96.2171 74.3768 99.555 72.0585 101.873 73.443C103.483 74.087 103.87 75.9545 104.664 77.3175C108.334 84.1329 111.264 91.3131 114.699 98.2465C114.549 99.7169 115.912 100.64 116.438 101.896C117.404 103.946 118.423 105.974 119.336 108.056C119.969 109.14 119.185 110.299 118.917 111.362L117.329 112.006C116.277 111.63 115.343 111.019 114.967 109.913C111.232 102.389 107.669 94.7691 104.213 87.1273C103.408 86.6765 103.15 87.8464 102.839 88.3079C98.7822 91.6029 94.854 95.0481 90.7112 98.225C89.0369 97.2698 87.0835 96.6688 85.699 95.2735C83.7134 92.644 81.8459 89.9393 79.9891 87.2346C78.0465 86.9878 76.1039 86.6658 74.3115 85.8501C74.2793 84.8949 74.2578 83.9504 74.2578 83.0059C75.1486 82.6732 76.0502 82.158 77.0376 82.4478C79.7315 83.0488 82.4791 82.9201 85.216 82.7269C86.4717 82.5229 87.6416 83.7357 87.4055 84.9808C87.4269 86.1614 86.0317 86.4941 85.2804 87.1166C86.7401 89.2095 88.2748 91.2702 89.6486 93.4275C94.1135 90.2076 98.0631 86.3546 102.517 83.1454C102.088 82.0936 101.573 81.0633 101.015 80.0759C99.0828 80.2476 96.8181 79.1958 96.6572 77.0492V77.0278Z" fill="#20935A"/>
<path d="M121.116 80.1709C126.365 80.1494 131.613 80.2245 136.861 80.1387C136.239 82.9185 138.321 85.6768 137.14 88.4244C136.561 88.4029 135.402 88.3815 134.822 88.36C134.328 87.4799 133.856 86.5783 133.384 85.6875C132.89 86.6749 132.632 88.3278 131.227 88.3707C130.346 88.3278 129.155 88.7464 128.554 87.8555C127.438 86.031 127.019 83.8844 126.343 81.8881C125.796 82.2638 125.248 82.6501 124.701 83.0473C125.291 84.5498 125.839 86.0739 126.128 87.6731C124.54 88.36 122.823 88.5746 121.105 88.5102C121.105 85.7305 121.105 82.9614 121.105 80.1816L121.116 80.1709ZM130.636 81.9203C130.314 82.3711 130.014 82.8326 129.724 83.3156C129.917 83.9166 130.518 84.2064 130.947 84.6357C131.269 84.3459 131.924 83.7771 132.246 83.4873C131.709 82.9614 131.173 82.4462 130.636 81.9203Z" fill="#20935A"/>
<path d="M139.19 80.1503C139.34 80.1396 139.641 80.1074 139.791 80.0859C139.984 84.9908 140.124 89.9172 139.909 94.8328C133.641 94.7899 127.373 94.8543 121.105 94.8006C121.105 93.6307 121.116 92.4501 121.127 91.2802C123.424 91.4305 125.57 90.2392 126.386 88.0497C126.901 88.9834 127.341 89.9816 128.082 90.7543C129.477 91.5056 131.141 91.0334 132.643 90.9583C132.804 90.5933 133.115 89.8635 133.276 89.4986C134.071 90.325 134.886 91.452 136.196 91.1622C138.063 91.3017 139.147 89.1873 138.997 87.556C138.965 85.0874 139.179 82.6296 139.201 80.1611L139.19 80.1503Z" fill="#20935A"/>
<path d="M140.402 80.1724C145.5 80.2046 150.609 80.0865 155.697 80.269C154.28 80.7305 152.863 81.192 151.446 81.6535C151.275 82.3833 151.103 83.1239 150.931 83.8537C151.897 85.2383 152.82 86.6765 153.368 88.2756C149.225 88.7371 143.214 86.977 141.003 91.7316C140.724 91.0125 140.306 90.2934 140.445 89.4884C140.488 86.3867 140.445 83.2849 140.402 80.1724Z" fill="#20935A"/>
<path d="M157.458 80.1504C159.819 80.1719 162.169 80.1719 164.53 80.1826C164.52 83.3166 164.509 86.4505 164.488 89.5738C165.69 91.7525 168.416 91.1193 170.466 91.0871C172.505 91.0012 173.031 88.6722 173.385 87.073C173.299 89.6596 173.406 92.2355 173.385 94.8114C172.269 94.8221 171.163 94.8329 170.047 94.8436C170.369 94.3499 170.691 93.8562 171.024 93.3625C170.702 93.0834 170.079 92.5253 169.768 92.2355C169.446 92.5253 168.802 93.1049 168.491 93.3839C168.899 93.8776 169.307 94.3606 169.725 94.8436C167.085 94.8114 164.445 94.8436 161.804 94.7041C162.255 94.4465 163.146 93.942 163.586 93.6737C162.77 92.8365 161.718 92.2033 160.903 93.4591C160.592 93.18 159.98 92.6326 159.679 92.3643C159.282 92.8902 158.531 93.3517 158.874 94.103C159.872 94.6289 161.386 93.2766 161.826 94.8007C154.753 94.7363 147.669 94.9294 140.596 94.7685C140.5 94.2962 140.307 93.3517 140.199 92.8795C140.757 93.1263 141.315 93.3732 141.874 93.5986C143.838 93.6844 145.812 93.6522 147.787 93.6415C147.787 93.2873 147.766 92.5682 147.766 92.2141C145.834 92.2141 143.913 92.2141 141.992 92.1926V91.2159C145.244 91.0012 148.528 91.2803 151.78 91.0334C153.014 91.0334 153.626 89.8528 154.206 88.9513C155.891 91.7096 159.4 91.291 162.148 91.0012C163.972 90.5719 164.037 88.4468 163.94 86.9228C163.801 85.828 164.262 84.2396 162.91 83.7673C162.384 84.3254 161.922 84.9265 161.45 85.5275C162.126 86.2788 162.792 87.0301 163.457 87.8029C161.354 88.6615 158.992 88.479 156.792 88.2107C154.785 87.1804 154.012 84.8728 152.778 83.1126C154.248 82.6511 155.73 82.1682 157.211 81.7174C157.275 81.3203 157.382 80.5368 157.436 80.1611L157.458 80.1504Z" fill="#20935A"/>
<path d="M166.194 80.1719C168.588 80.1719 170.981 80.1719 173.375 80.1719C173.364 82.4258 173.31 84.6904 173.471 86.9443C173.128 85.6778 172.548 84.4972 171.765 83.4454C171.303 84.1645 170.842 84.8836 170.391 85.6134C171.099 86.4076 171.84 87.2233 172.087 88.2966C170.219 88.361 168.352 88.361 166.495 88.3503C166.033 85.6456 166.205 82.898 166.194 80.1719Z" fill="#20935A"/>
<path d="M69.417 110.578C68.6979 104.976 72.8515 99.3838 78.3145 98.1817C83.9599 96.6147 90.2279 99.7702 92.5462 105.104C88.4248 105.33 84.2927 105.544 80.2035 106.038C77.0802 106.725 77.0158 111.694 80.0854 112.521C84.239 113.036 88.4463 113.208 92.6213 113.508C90.7645 117.898 86.2997 121.064 81.4699 120.989C75.5776 121.257 69.9429 116.492 69.417 110.589V110.578Z" fill="#20935A"/>
<path d="M115.034 97.8264C118.94 97.4185 122.901 98.6957 125.713 101.443C128.031 104.041 129.287 107.625 128.707 111.103C128.257 114.494 126.11 117.575 123.148 119.281C119.134 121.728 113.703 121.524 109.871 118.798C105.954 116.137 103.893 110.856 105.353 106.284C105.986 103.794 107.714 101.808 109.506 100.059C111.009 102.892 112.587 105.694 113.95 108.591C114.551 109.718 115.066 111.038 116.214 111.747C117.921 112.777 120.518 111.35 120.336 109.3C119.166 105.232 116.043 101.937 115.023 97.8264H115.034Z" fill="#20935A"/>
<path d="M18.9638 102.936C19.7151 101.702 21.0567 102.453 22.0549 102.85C22.1193 106.403 22.1085 109.955 22.0871 113.508C24.5341 113.851 27.6681 112.563 29.4927 114.742C29.2888 115.139 28.8916 115.923 28.6877 116.309C25.7362 116.298 22.7847 116.491 19.8439 116.255C18.4057 115.847 18.8887 114.173 18.7599 113.057C18.8887 109.687 18.513 106.274 18.9638 102.925V102.936Z" fill="#20935A"/>
<path d="M35.3098 102.807C36.4368 102.55 37.9501 102.496 38.3687 103.848C39.9142 107.315 41.4382 110.825 42.7154 114.41C43.2843 115.74 41.567 117.039 40.4294 116.159C39.7961 115.29 39.4527 114.259 38.9268 113.326C37.2632 113.068 35.5781 113.197 33.9038 113.186C33.6033 114.012 33.292 114.839 32.9915 115.665C32.6803 115.88 32.0578 116.299 31.7358 116.513C31.3065 116.288 30.4371 115.837 30.0078 115.622C30.5552 112.724 31.9934 110.138 32.9915 107.39C33.6677 105.834 34.097 104.063 35.3098 102.818V102.807ZM34.7517 110.664C35.8143 110.675 36.8875 110.685 37.9501 110.685C37.4564 109.247 36.9841 107.777 36.5548 106.317C35.943 107.755 35.3313 109.204 34.7517 110.664Z" fill="#20935A"/>
<path d="M44.5494 102.646C45.2363 102.732 45.9554 102.732 46.6316 102.926C48.7889 105.362 50.0554 108.442 52.32 110.803C52.4058 108.142 52.2878 105.48 52.5024 102.818C53.3181 102.807 54.1231 102.797 54.9388 102.797C55.3037 106.8 55.1534 110.836 55.089 114.85C55.2608 116.47 52.8674 116.943 52.0517 115.698C50.1198 113.283 48.4454 110.632 46.9965 107.895C46.696 110.406 47.0609 112.961 46.6638 115.461C46.2882 117.05 43.8411 116.481 43.9055 114.957C43.723 111.844 43.8625 108.732 43.8196 105.609C43.7552 104.568 44.1631 103.591 44.528 102.646H44.5494Z" fill="#20935A"/>
<path d="M56.9004 102.838C59.2831 102.699 61.7302 102.441 64.0914 102.989C69.3075 104.437 70.1662 112.627 65.6155 115.342C62.943 116.812 59.6158 116.608 56.7502 115.9C56.7824 111.543 56.557 107.185 56.9004 102.838ZM59.6158 105.275C59.6695 108.172 59.3904 111.092 59.9056 113.957C61.5155 113.635 63.5977 113.85 64.6602 112.315C65.9589 110.373 65.7764 107.249 63.7158 105.886C62.5244 105.049 60.9789 105.403 59.6158 105.275Z" fill="#20935A"/>
<path d="M158.992 105.824C159.701 105.641 160.43 105.502 161.171 105.48C162.555 106.307 164.058 105.19 165.518 105.18C166.097 105.716 166.698 106.242 167.289 106.779C167.879 106.264 168.48 105.749 169.07 105.233C170.884 105.083 173.041 105.641 173.61 107.595C173.986 110.074 173.718 112.607 173.782 115.108C172.795 115.108 171.818 115.097 170.841 115.097C170.809 112.918 171.013 110.729 170.691 108.561C170.058 107.798 168.974 107.713 168.298 108.464C167.772 109.484 167.89 110.675 167.782 111.791C167.857 112.875 167.933 113.97 167.997 115.065C167.02 115.086 166.044 115.097 165.078 115.118C165.078 112.961 165.078 110.804 165.013 108.646C164.67 108.442 163.951 108.035 163.607 107.82C163.242 108.013 162.502 108.4 162.137 108.603C162.04 110.771 162.04 112.929 162.051 115.097C161.053 115.086 160.065 115.075 159.067 115.075C159.057 111.984 159.121 108.893 159.003 105.813L158.992 105.824Z" fill="#20935A"/>
<path d="M79.6777 107.38C84.8831 105.996 90.4856 107.069 95.6588 105.502C97.2472 106.253 98.8035 107.176 99.6299 108.808C99.9734 108.282 100.317 107.745 100.66 107.219C101.691 107.187 102.71 107.155 103.741 107.112C104.846 108.561 103.225 109.108 102.624 110.235C101.551 110.3 100.467 110.321 99.3938 110.353C98.5137 111.824 97.0004 112.993 95.1866 112.671C90.1314 112.156 85.0119 112.221 79.9889 111.416C78.5078 110.568 78.4005 108.486 79.6777 107.391V107.38ZM91.5052 109.14C91.6984 109.419 92.074 109.967 92.2672 110.235C93.5659 110.235 94.8646 110.224 96.1525 110.203C96.1096 109.645 96.0666 109.097 96.0237 108.55C94.4997 108.561 92.9112 108.421 91.5052 109.14Z" fill="#20935A"/>
<path d="M140.191 105.864C142.713 104.275 145.836 105.789 147.339 108.053C147.306 108.44 147.231 109.212 147.188 109.61C145.417 109.588 143.968 108.601 142.487 107.763C142.112 107.967 141.339 108.354 140.953 108.547C140.427 109.738 140.03 111.391 141.35 112.25C142.52 113.291 144.001 112.422 144.902 111.488C145.9 111.499 146.909 111.531 147.918 111.574C147.07 112.797 146.34 114.289 144.891 114.901C142.97 115.716 140.534 115.448 139.021 113.946C136.692 111.724 137.25 107.281 140.212 105.864H140.191Z" fill="#20935A"/>
<path d="M151.247 105.662C154.477 104.052 158.856 106.917 158.395 110.577C158.577 114.634 153.318 116.695 150.259 114.473C147.115 112.402 147.705 107.003 151.247 105.662ZM151.622 108.56C151.397 109.203 151.172 109.858 150.946 110.502C151.107 110.91 151.429 111.704 151.59 112.112C152.696 112.735 153.952 112.713 155.057 112.091C155.218 111.694 155.54 110.899 155.701 110.513C155.476 109.88 155.261 109.246 155.025 108.624L153.533 107.873C152.889 108.098 152.256 108.334 151.622 108.56Z" fill="#20935A"/>
<path d="M131.968 108.816C132.751 107.936 134.028 108.473 135.037 108.494C135.295 109.17 135.553 109.846 135.81 110.523C135.638 110.92 135.295 111.714 135.134 112.111C133.964 112.637 132.762 112.369 131.592 112.014C131.538 110.973 130.98 109.6 131.968 108.827V108.816Z" fill="#20935A"/>
</g>
<defs>
<clipPath id="clip0_4927_33563">
<rect width="192" height="192" fill="white"/>
</clipPath>
</defs>
</svg>
