<svg width="192" height="192" viewBox="0 0 192 192" fill="none" xmlns="http://www.w3.org/2000/svg">
<g clip-path="url(#clip0_4927_33434)">
<path d="M96 192C149.019 192 192 149.019 192 96C192 42.9807 149.019 0 96 0C42.9807 0 0 42.9807 0 96C0 149.019 42.9807 192 96 192Z" fill="black"/>
<path d="M76.6291 95.1808C76.6291 95.1808 76.6291 95.1808 76.6391 95.1808H76.6291ZM94.8691 112.221V112.521H94.9191C94.8991 112.421 94.8791 112.321 94.8691 112.221ZM161.669 92.4408C160.529 91.9708 159.299 91.7008 158.139 91.2908C157.159 90.9408 156.139 90.6207 155.259 90.0907C154.109 89.4207 153.119 88.5408 153.539 86.9408C153.989 85.2708 155.119 84.2308 156.799 84.4508C158.799 84.7108 160.749 85.4008 162.989 85.9808C164.189 84.3308 165.619 82.3508 167.049 80.3808C162.319 76.3508 154.349 75.5808 149.249 78.5608C143.749 81.7708 142.509 89.3208 146.689 94.1308C148.899 96.6608 151.829 97.8108 155.009 98.5708C156.129 98.8308 157.429 99.0908 158.209 99.8208C158.929 100.501 159.539 101.911 159.339 102.801C159.129 103.701 157.979 104.571 157.039 105.071C156.389 105.411 155.299 105.321 154.569 105.031C152.169 104.081 149.839 102.961 147.279 101.811C146.389 103.001 145.329 104.561 144.139 106.011C143.319 107.001 143.559 107.671 144.379 108.501C149.089 113.221 154.739 113.991 160.839 112.201C165.549 110.821 168.259 106.931 168.489 101.941C168.679 97.7608 166.269 94.3608 161.669 92.4408ZM133.729 91.9908C132.819 91.6408 131.839 91.4908 130.929 91.1208C129.729 90.6408 128.459 90.2208 127.429 89.4708C125.489 88.0408 125.889 85.3408 128.169 84.5108C129.089 84.1708 130.259 84.1508 131.219 84.3808C132.649 84.7208 133.999 85.4008 135.569 86.0008C136.919 84.1408 138.329 82.2108 139.919 80.0208C134.419 76.4608 128.899 75.3908 122.989 77.8708C120.419 78.9508 118.599 80.8708 117.629 83.5408C115.519 89.3208 118.399 95.1508 124.609 97.4308C126.249 98.0408 128.019 98.2908 129.689 98.8407C131.619 99.4807 132.499 100.861 132.219 102.501C131.939 104.151 130.669 105.071 128.589 105.001C127.809 104.981 126.979 104.911 126.289 104.601C124.239 103.671 122.249 102.611 120.079 101.521C118.809 103.281 117.439 105.151 116.109 106.971C119.689 111.931 126.309 114.051 132.519 112.351C137.659 110.951 140.829 107.281 141.089 102.431C141.379 97.2808 139.129 94.0708 133.729 91.9908ZM33.8391 100.791C30.5891 97.5308 30.2391 92.2108 33.0391 88.6508C35.7991 85.1308 38.9991 84.9708 44.4491 88.1508C46.6891 86.6008 48.9891 85.0108 51.3591 83.3708C46.3891 74.3108 33.5691 73.6708 27.2991 81.9208C21.7291 89.2408 22.3691 101.431 28.6591 108.141C35.1191 115.031 47.1391 113.651 51.2391 105.441C48.8891 103.751 46.5291 102.051 44.2191 100.381C39.8191 103.721 36.8391 103.801 33.8391 100.791ZM68.5491 76.8508C61.1491 77.2908 56.2191 82.4808 56.2191 89.8208C56.2191 96.5908 56.2191 103.361 56.2191 110.131C56.2191 110.891 56.2991 111.661 56.3491 112.481H65.1691C65.2091 111.671 65.2691 110.971 65.2691 110.271C65.2791 103.631 65.2691 96.9908 65.2791 90.3508C65.2791 87.5308 66.5991 85.6208 69.3491 84.9008C70.9591 84.4808 72.6791 84.4708 74.5391 84.2508C74.5791 83.8108 74.6591 83.2408 74.6691 82.6808C74.7991 76.8308 74.4491 76.5008 68.5491 76.8508Z" fill="white"/>
<path d="M112.282 98.8996C111.132 104.9 104.432 111.02 97.7819 112.21C96.8219 112.38 95.8619 112.48 94.9219 112.51C95.0319 111.9 95.1619 108.23 95.2319 107.62C95.6019 104.52 95.9119 101.42 96.3719 98.3296C96.4419 97.8396 97.2319 97.0396 97.6219 97.0796C102.352 97.5196 107.072 98.0996 111.792 98.6496C111.972 98.6696 112.132 98.8196 112.282 98.8996Z" fill="#41A63D"/>
<path d="M94.8706 112.2V112.51C86.1106 112.78 78.7306 107.04 76.9806 98.1697C76.7806 97.1597 76.6706 96.1597 76.6406 95.1797C76.9406 95.3397 82.9306 95.2397 82.9306 95.4097C85.6106 95.6897 88.2806 96.0797 90.9606 96.2297C92.9106 96.3397 93.6706 97.1197 93.7506 99.0897C93.8906 102.42 94.2606 108.63 94.8706 112.2Z" fill="#EB3D2A"/>
<path d="M94.9211 112.509H94.8711V112.209C94.8811 112.309 94.9011 112.409 94.9211 112.509Z" fill="white"/>
<path d="M111.058 93.65C106.688 93.81 102.318 94.01 97.9583 94.2C96.9183 94.24 96.4283 93.78 96.3183 92.74C96.0083 89.83 95.6183 86.93 95.2983 84.02C95.1783 82.89 94.8583 77.94 94.7883 76.81C94.7683 76.81 94.7583 76.87 94.7383 76.95V76.8C103.268 76.7 111.228 83.11 112.448 91.73C112.618 92.95 112.398 93.6 111.058 93.65Z" fill="#3EB7E9"/>
<path d="M94.7385 76.8105V76.9806C94.6585 77.7106 94.7285 80.6206 94.5885 80.6206C94.2585 84.5606 93.8685 88.5006 93.6085 92.4406C93.5285 93.7506 93.0885 94.3105 91.7585 94.3405C89.6785 94.3805 87.5885 94.5405 85.5085 94.6705C84.6385 94.7305 77.5285 95.1005 76.6385 95.1805C76.3585 86.6005 82.2585 79.1906 91.4085 77.1906C92.5185 76.9406 93.6385 76.8205 94.7385 76.8105Z" fill="#F0AD42"/>
<path d="M147.281 101.8C149.841 102.95 152.171 104.07 154.571 105.02C155.301 105.31 156.391 105.4 157.041 105.06C157.981 104.56 159.131 103.69 159.341 102.79C159.541 101.9 158.941 100.49 158.211 99.8103C157.431 99.0803 156.131 98.8203 155.011 98.5603C151.841 97.8003 148.901 96.6603 146.691 94.1203C142.511 89.3103 143.751 81.7603 149.251 78.5503C154.351 75.5703 162.321 76.3403 167.051 80.3703C165.631 82.3403 164.191 84.3203 163.001 85.9603C160.761 85.3903 158.811 84.7003 156.801 84.4303C155.121 84.2103 153.991 85.2503 153.551 86.9203C153.121 88.5203 154.121 89.3903 155.271 90.0703C156.161 90.5903 157.171 90.9103 158.151 91.2603C159.321 91.6803 160.541 91.9403 161.681 92.4203C166.291 94.3403 168.691 97.7403 168.501 101.92C168.271 106.91 165.561 110.8 160.851 112.18C154.751 113.97 149.091 113.2 144.381 108.47C143.561 107.65 143.331 106.97 144.141 105.98C145.331 104.53 146.401 102.97 147.281 101.78V101.8Z" fill="white"/>
<path d="M139.919 80.0206C138.329 82.2106 136.919 84.1406 135.569 86.0006C134.009 85.4006 132.649 84.7106 131.219 84.3806C130.259 84.1506 129.089 84.1706 128.169 84.5106C125.889 85.3406 125.489 88.0406 127.429 89.4706C128.449 90.2206 129.729 90.6506 130.929 91.1306C131.829 91.4906 132.819 91.6506 133.729 92.0006C139.119 94.0806 141.369 97.2906 141.089 102.441C140.819 107.291 137.649 110.961 132.519 112.361C126.309 114.051 119.689 111.931 116.109 106.981C117.439 105.161 118.799 103.281 120.079 101.531C122.239 102.611 124.239 103.671 126.289 104.601C126.979 104.911 127.809 104.981 128.579 105.011C130.659 105.081 131.939 104.161 132.219 102.501C132.499 100.861 131.619 99.4806 129.689 98.8406C128.019 98.2906 126.249 98.0406 124.609 97.4306C118.409 95.1406 115.519 89.3206 117.629 83.5306C118.599 80.8706 120.419 78.9406 122.989 77.8706C128.899 75.3906 134.429 76.4506 139.919 80.0206Z" fill="white"/>
<path d="M51.3602 83.359C48.9902 84.999 46.6902 86.589 44.4502 88.139C39.0002 84.959 35.8002 85.119 33.0402 88.639C30.2402 92.199 30.5902 97.519 33.8402 100.779C36.8402 103.789 39.8202 103.709 44.2202 100.369C46.5302 102.039 48.8902 103.739 51.2402 105.429C47.1402 113.639 35.1202 115.019 28.6602 108.129C22.3602 101.419 21.7302 89.229 27.2902 81.909C33.5602 73.659 46.3902 74.299 51.3502 83.359H51.3602Z" fill="white"/>
<path d="M74.5405 84.2402C72.6805 84.4602 70.9705 84.4702 69.3605 84.8902C66.6105 85.6102 65.2905 87.5202 65.2805 90.3402C65.2805 96.9802 65.2805 103.62 65.2805 110.26C65.2805 110.96 65.2205 111.66 65.1805 112.47H56.3505C56.3105 111.65 56.2305 110.89 56.2305 110.12C56.2305 103.35 56.2305 96.5802 56.2305 89.8102C56.2305 82.4702 61.1605 77.2802 68.5705 76.8402C74.4605 76.4902 74.8205 76.8202 74.6905 82.6602C74.6805 83.2302 74.5905 83.7902 74.5605 84.2302L74.5405 84.2402Z" fill="white"/>
</g>
<defs>
<clipPath id="clip0_4927_33434">
<rect width="192" height="192" fill="white"/>
</clipPath>
</defs>
</svg>
