<svg width="192" height="192" viewBox="0 0 192 192" fill="none" xmlns="http://www.w3.org/2000/svg">
<g clip-path="url(#clip0_4927_33604)">
<path d="M96 192C149.019 192 192 149.019 192 96C192 42.9807 149.019 0 96 0C42.9807 0 0 42.9807 0 96C0 149.019 42.9807 192 96 192Z" fill="white"/>
<path d="M109.817 151.412C102.857 140.072 96.1875 129.202 89.5075 118.332C80.7675 104.102 72.0475 89.8624 63.2175 75.6924C62.1775 74.0224 62.2075 72.8624 63.2875 71.3024C65.1075 68.6824 66.6975 65.9124 68.3675 63.2324C69.5875 63.4724 69.8075 64.4924 70.2675 65.2424C85.2675 89.5624 100.237 113.892 115.277 138.192C116.257 139.782 116.497 140.952 115.347 142.582C113.447 145.262 111.827 148.152 109.807 151.402L109.817 151.412Z" fill="#F6B206"/>
<path d="M55.2784 84.8828C57.7684 88.8928 60.2184 92.8028 62.6384 96.7328C75.5084 117.643 88.3584 138.553 101.218 159.473C103.078 162.503 102.408 165.203 99.2584 167.393C96.6484 169.213 93.8284 168.763 91.6384 166.153C91.1084 165.523 90.6784 164.813 90.2384 164.113C78.0984 144.493 66.0584 124.793 53.7684 105.263C49.2484 98.0828 50.3284 91.4828 55.2784 84.8828Z" fill="#F6B206"/>
<path d="M82.2379 40.832C87.8279 49.912 93.2179 58.682 98.6179 67.462C108.678 83.792 118.708 100.122 128.828 116.412C129.838 118.042 129.958 119.232 128.828 120.832C127.008 123.442 125.418 126.212 123.738 128.892C122.628 128.772 122.438 127.832 122.038 127.182C106.898 102.612 91.7979 78.032 76.6479 53.472C75.8479 52.182 75.6479 51.222 76.5579 49.872C78.4679 47.062 80.1779 44.122 82.2179 40.832H82.2379Z" fill="#F6B206"/>
<path d="M136.888 107.193C126.048 89.5227 115.378 72.1427 104.708 54.7627C100.068 47.2027 95.4181 39.6527 90.7681 32.1027C89.1181 29.4327 89.5081 27.6727 92.4181 25.0827C94.5281 23.2027 96.8181 22.9627 99.1781 24.5727C100.388 25.4027 101.178 26.6327 101.948 27.8627C114.098 47.4827 126.278 67.0827 138.408 86.7227C142.438 93.2427 141.918 100.793 136.888 107.193Z" fill="#F6B206"/>
</g>
<defs>
<clipPath id="clip0_4927_33604">
<rect width="192" height="192" fill="white"/>
</clipPath>
</defs>
</svg>
