<svg width="192" height="192" viewBox="0 0 192 192" fill="none" xmlns="http://www.w3.org/2000/svg">
<g clip-path="url(#clip0_4927_33495)">
<path d="M96 192C149.019 192 192 149.019 192 96C192 42.9807 149.019 0 96 0C42.9807 0 0 42.9807 0 96C0 149.019 42.9807 192 96 192Z" fill="white"/>
<path d="M102.487 73.7015C106.878 73.2353 111.431 73.94 115.301 76.0974C122.196 79.7291 126.782 87.2962 126.804 95.0801C126.988 101.325 124.256 107.526 119.659 111.721C115.811 115.299 110.65 117.142 105.479 117.564C99.3431 117.391 93.1745 114.887 89.0658 110.247C82.2793 103.048 81.5096 91.1231 87.1794 83.0465C90.6377 77.9404 96.3401 74.3628 102.487 73.6907V73.7015ZM100.937 74.6013C100.98 75.2626 101.023 75.9456 101.078 76.6069C101.295 76.5093 101.728 76.325 101.934 76.2275L102.043 75.5336C103.17 75.6312 104.297 75.6312 105.425 75.5987C105.403 75.8047 105.371 76.2166 105.349 76.4226C104.395 76.3467 103.452 76.2708 102.509 76.1949L102.942 76.9538C102.151 76.9538 101.36 76.9538 100.579 76.9647C100.525 76.2817 100.481 75.5987 100.438 74.9049C97.4351 75.8697 94.4863 77.1056 92.0579 79.1654C89.0224 81.4637 87.0493 84.8028 85.4774 88.196C85.7593 88.6188 86.0411 89.0416 86.323 89.4644L86.6699 88.4454C87.0493 88.7381 87.8082 89.3126 88.1877 89.5945C88.5021 88.8898 89.1417 87.4588 89.4561 86.7433C89.0441 86.7433 88.2202 86.7433 87.7974 86.7433C87.8407 86.0495 87.9058 85.3665 87.9817 84.6727C88.6863 85.1063 89.3802 85.5725 90.0198 86.0928C91.8303 82.3635 95.4729 79.8809 99.213 78.3306C100.026 78.1138 100.828 77.8753 101.631 77.6043C105.284 77.2249 109.035 77.3549 112.428 78.9052C116.873 81.1602 120.982 85.0955 121.925 90.1366C122.077 89.9089 122.402 89.4536 122.565 89.2259C123.259 88.3261 123.822 88.402 124.267 89.4427C123.627 89.9848 122.456 90.2233 122.576 91.3074C123.118 94.2236 123.28 97.3133 122.261 100.154C123.172 100.674 124.115 101.325 125.21 100.999C125.362 100.186 125.665 98.5601 125.806 97.7361C125.383 97.8337 124.527 98.0289 124.093 98.1264L124.061 98.8419C123.746 98.0614 123.562 97.2483 123.714 96.4027C124.484 96.8363 125.242 97.2917 125.99 97.7578C125.73 95.6438 125.795 93.4973 125.481 91.3941C124.624 86.9384 122.272 82.7972 118.89 79.7725C118.109 79.122 117.318 78.4933 116.505 77.8753C115.345 77.3875 114.315 76.0323 112.959 76.4877C112.439 77.0406 112.06 77.6693 111.821 78.3848L111.117 77.6802C108.048 77.3875 112.027 77.008 111.626 75.4794C110.759 75.2193 109.902 74.9916 109.046 74.7531C109.078 75.8047 108.721 76.6503 107.463 76.5419C107.897 75.8589 108.385 75.1976 108.916 74.5905C106.26 74.3845 103.593 74.5146 100.926 74.558L100.937 74.6013ZM97.3917 84.9979C96.4269 87.9467 96.622 91.0797 95.9932 94.0935C95.256 95.1885 94.2587 96.1534 93.9226 97.4651C93.8684 99.6875 94.2153 101.899 94.0744 104.122C94.3345 104.306 94.8441 104.664 95.1043 104.837C95.1693 105.347 95.2886 106.366 95.3428 106.875C95.1259 107.19 94.6815 107.818 94.4646 108.133C95.0826 108.263 95.7005 108.393 96.3185 108.512C96.4594 108.827 96.7304 109.466 96.8605 109.781C96.9256 108.198 96.5136 106.691 95.8089 105.292L96.5136 105.314C96.1992 103.959 96.622 102.625 96.8605 101.292C97.1207 101.877 97.3917 102.441 97.6844 103.005C97.7386 103.851 97.7386 104.696 97.7278 105.553C98.1398 105.455 98.942 105.26 99.354 105.173C99.4298 106.268 99.4841 107.374 99.5166 108.469C98.4108 108.621 98.0313 108.013 98.3674 106.886C98.0747 106.951 97.4893 107.081 97.1966 107.146C97.2074 108.035 97.2183 108.924 97.2183 109.813C99.5925 109.423 102.053 109.878 104.276 108.805C106.411 108.892 108.482 109.607 110.64 109.629C110.737 109.878 110.943 110.388 111.041 110.637C111.496 109.9 111.962 109.173 112.472 108.469C112.862 107.45 113.642 106.691 114.51 106.084C114.748 104.523 113.957 102.886 114.727 101.39C115.626 99.1346 115.626 96.652 115.767 94.2562C115.876 94.1586 116.103 93.9851 116.212 93.8876C115.41 91.676 114.933 89.3235 113.783 87.2312C113.816 87.7407 113.892 88.7597 113.924 89.2693C113.458 89.2368 112.537 89.15 112.071 89.1175C111.756 87.8274 111.355 86.5482 111.16 85.2364C109.003 84.9437 110.195 87.242 109.967 88.3586C109.805 88.1635 109.469 87.7949 109.306 87.6106C108.699 87.3287 108.092 87.0577 107.485 86.7758C107.539 84.651 108.168 82.6671 109.1 80.7699C110.184 81.7781 111.203 82.873 112.363 83.8271C111.615 82.6779 110.791 80.0002 108.905 80.6289C107.311 82.2768 106.91 84.6943 106.14 86.7867C104.265 84.8786 103.625 81.9516 101.164 80.5531C99.4949 81.6588 98.3349 83.285 97.3917 85.0196V84.9979ZM85.0221 89.4861C84.1873 93.4539 84.1548 97.4868 85.0221 101.444C85.9002 101.162 86.7783 100.923 87.689 100.75C87.4396 101.39 87.1794 102.029 86.9084 102.658L86.3338 101.444C86.0303 101.802 85.7267 102.159 85.4124 102.528C85.9327 103.406 86.2037 104.468 86.8759 105.26C87.4505 105.975 87.8624 104.674 88.2093 104.403C88.5346 104.544 89.2067 104.826 89.5319 104.967C88.9357 105.618 87.2228 105.997 87.7323 107.2C89.0766 108.946 90.5944 110.572 92.2856 112.014C92.459 111.949 92.806 111.808 92.9794 111.732C93.0011 111.537 93.0553 111.147 93.077 110.951C93.283 110.561 93.4998 110.182 93.7383 109.802C93.8575 108.935 92.8818 108.653 92.3832 108.165C92.1338 108.35 91.6351 108.696 91.3858 108.87C91.0822 108.957 90.4751 109.119 90.1716 109.206C90.1933 108.805 90.2475 108.013 90.28 107.612C90.9738 107.645 91.6568 107.688 92.3506 107.764C90.9305 106.81 90.1607 105.271 89.2284 103.905C87.1252 99.5032 86.4856 94.2887 88.231 89.6487C87.1686 90.2883 86.0737 89.7354 85.0112 89.4969L85.0221 89.4861ZM121.914 101.476C120.808 104.696 118.759 107.558 116.093 109.672C116.656 110.529 117.198 111.407 117.719 112.285C118.597 111.342 119.551 110.442 120.646 109.737C119.995 109.379 119.302 109.098 118.619 108.827C118.543 108.079 119.096 107.753 119.703 107.482C120.071 108.089 120.44 108.696 120.808 109.304C121.285 108.653 122.239 107.363 122.706 106.723C121.827 106.203 120.949 105.618 120.949 104.468C122.142 104.273 122.749 105.195 123.345 106.019C123.736 104.75 124.202 103.504 124.7 102.268C123.67 102.387 122.749 102.018 121.914 101.455V101.476ZM115.594 109.531L114.943 110.474C110.954 113.336 105.815 113.911 101.067 113.152C100.102 113.055 98.6059 111.374 98.0205 112.458C97.9663 112.881 97.8579 113.716 97.8145 114.128C97.3267 113.889 96.8822 113.575 96.416 113.315C96.5461 112.946 96.8063 112.231 96.9472 111.862C96.3618 111.504 95.7656 110.117 95.0067 110.561C94.5947 111.212 94.1828 111.851 93.7274 112.469L93.4347 112.87C96.7955 115.028 100.677 116.231 104.644 116.513C104.655 115.787 104.514 115.06 104.493 114.334C104.872 114.377 105.653 114.464 106.043 114.507C105.848 115.147 105.631 115.787 105.718 116.47C106.867 116.329 108.016 116.231 109.165 116.22C109.284 115.949 109.534 115.407 109.664 115.136L108.211 115.071C107.832 113.185 109.545 113.976 110.368 114.247L109.414 114.724C109.729 115.104 110.043 115.472 110.368 115.841C111.073 115.602 112.493 115.114 113.209 114.876C112.775 114.095 112.331 113.304 111.93 112.502C112.493 112.61 113.632 112.838 114.206 112.957L113.025 113.683C113.404 113.944 113.783 114.204 114.163 114.464C115.03 113.824 115.962 113.326 116.971 112.957C116.526 112.458 116.093 111.96 115.626 111.483C115.594 110.832 115.583 110.182 115.594 109.531Z" fill="#262626"/>
<path d="M99.1719 76.9633L99.5621 76.9199C99.4646 77.0283 99.302 77.2452 99.2044 77.3427L99.1719 76.9633Z" fill="#262626"/>
<path d="M96.4918 77.4414C96.817 77.4739 97.4458 77.539 97.7602 77.5715C97.6626 77.8425 97.4783 78.3846 97.3807 78.6665C96.611 78.5689 96.3183 78.1678 96.4809 77.4414H96.4918Z" fill="#262626"/>
<path d="M95.0592 78.0369C96.6962 77.7009 95.2544 79.9341 94.7773 78.4381L95.0592 78.0369Z" fill="#262626"/>
<path d="M115.094 78.7324C115.397 78.7433 115.994 78.7758 116.297 78.7866C116.297 79.0685 116.275 79.6431 116.265 79.9141C115.983 79.8924 115.408 79.849 115.126 79.8382C115.126 79.5563 115.105 79.0143 115.094 78.7324Z" fill="#262626"/>
<path d="M93.7547 79.209C94.145 79.2957 94.9256 79.4692 95.305 79.5667C94.2968 79.7727 93.5921 80.3364 93.191 81.2363C92.8983 81.2363 92.3237 81.2363 92.031 81.2254C91.6624 79.7727 93.1368 80.0871 93.7439 79.209H93.7547Z" fill="#262626"/>
<path d="M116.906 79.9667C117.654 79.3054 118.868 80.4437 118.033 81.1592C117.307 81.9072 116.288 80.6497 116.906 79.9667Z" fill="#262626"/>
<path d="M90.8293 81.8008C91.6641 82.2453 91.6641 82.6681 90.851 83.08C90.0379 82.6247 90.0271 82.2127 90.8293 81.8008Z" fill="#262626"/>
<path d="M100.578 81.6593C103.321 81.6267 103.657 85.0634 105.066 86.7437C103.69 86.9606 102.616 88.7819 101.175 87.8495C101.467 87.4918 102.074 86.7871 102.367 86.4185C101.587 86.0499 100.817 85.6921 100.036 85.3344L100.448 86.1258C100.155 86.2993 99.5809 86.6353 99.299 86.8088L100.21 86.7329C100.199 87.2424 100.166 88.2615 100.145 88.771C99.8953 88.6951 99.3749 88.5217 99.1147 88.4349C99.0931 89.454 98.5077 90.0177 97.3477 90.137C97.3477 89.66 97.3477 88.706 97.3477 88.229C98.3017 85.9849 98.9738 83.5348 100.578 81.6484V81.6593Z" fill="#262626"/>
<path d="M119.343 81.7555C120.318 81.6254 120.242 83.2515 119.321 83.1865C118.389 83.2407 118.454 81.7338 119.343 81.7555Z" fill="#262626"/>
<path d="M121.241 86.2329C120.916 85.2247 121.252 84.8778 122.26 85.1705C122.618 86.1679 122.282 86.5148 121.241 86.2329Z" fill="#262626"/>
<path d="M72.3711 88.1747C74.0189 88.0988 75.6776 88.1639 77.3255 88.1422C78.2253 88.6192 79.266 89.0203 79.8514 89.9093C80.2092 90.8199 79.4612 91.5788 79.1142 92.3485C79.4395 92.3485 80.0899 92.3702 80.4152 92.381C80.2525 95.178 81.2391 98.2677 79.7755 100.837C78.0843 103.255 74.8537 101.965 72.4145 102.16C72.3494 97.498 72.512 92.8364 72.3928 88.1747H72.3711ZM75.0163 90.8308C75.0814 91.7631 74.8212 92.5545 74.2358 93.205C74.0731 94.3108 74.7344 95.2214 75.244 96.132L74.3225 95.9369C74.0623 97.3896 73.3576 98.864 74.1382 100.306C74.6369 99.0266 74.29 97.6281 74.6044 96.3055C74.7453 97.4763 74.8103 98.6363 74.8212 99.8072C75.2873 99.7313 76.2413 99.5903 76.7184 99.5036C77.217 97.6606 76.7726 95.7201 77.1412 93.8554C77.423 92.4136 76.8701 90.3971 75.0163 90.8199V90.8308Z" fill="#262626"/>
<path d="M129.938 88.2288C132.312 88.1638 134.762 87.9036 137.028 88.8143C138.199 90.7548 138.394 93.5084 136.475 95.037C138.22 96.132 137.689 98.311 137.83 100.056C137.364 102.886 133.754 102.647 131.618 102.322C131.163 102.322 130.252 102.311 129.808 102.311C129.255 99.9372 129.472 97.5088 129.45 95.0912C129.493 92.7929 129.233 90.4513 129.938 88.218V88.2288ZM132.019 91.3511C132.702 91.0909 132.789 89.6382 131.933 89.584C131.271 89.8333 131.141 91.3511 132.019 91.3511ZM131.998 93.2266C132.691 93.8337 133.364 94.5383 134.426 94.1697C134.35 94.4733 134.209 95.0912 134.122 95.3948C134.437 95.4056 135.077 95.4165 135.391 95.4273C135.413 94.5709 135.456 93.7253 135.499 92.8797L135.001 92.9339C134.697 91.9365 134.166 91.0258 133.364 90.332C133.038 91.427 130.935 91.969 132.008 93.2157L131.998 93.2266ZM132.789 97.6714C132.648 98.2135 132.366 99.265 132.225 99.7963C132.854 99.8179 133.483 99.8396 134.101 99.8613C134.263 99.4385 134.61 98.6037 134.773 98.1918C134.426 97.292 134.047 96.3705 133.179 95.8393C133.082 96.2946 132.887 97.2161 132.789 97.6714Z" fill="#262626"/>
<path d="M50.3281 89.8431C51.5965 88.0977 53.9274 88.7156 55.7703 88.6506L55.8137 88.9866C57.0171 89.3661 57.635 90.4935 57.9602 91.6319L56.7786 91.7945C58.4915 92.5967 56.9954 94.5806 58.318 95.5888C58.2855 96.9548 58.2638 98.3208 58.2204 99.6976L57.8735 99.7301C57.6567 103.6 51.4122 103.503 50.0463 100.413C49.8836 100.261 49.5367 99.947 49.3633 99.7843H50.3823L50.4474 98.3858L49.6668 98.44C49.8186 95.6105 48.7887 92.4449 50.3281 89.8539V89.8431ZM52.8324 91.6535C52.7457 94.353 52.6806 97.0632 52.8107 99.7735C53.3745 99.7735 54.4911 99.7952 55.0548 99.7952C55.0115 97.3668 55.0548 94.9384 55.0982 92.51C54.9031 92.1522 54.5019 91.4367 54.3068 91.079C53.9382 91.2199 53.201 91.5126 52.8324 91.6535Z" fill="#262626"/>
<path d="M62.869 89.5621C63.8989 87.8709 66.3164 88.7707 67.9751 88.5647C68.1052 89.7139 68.1594 90.8739 68.528 91.9905C69.1351 95.5789 70.6203 99.0264 70.6312 102.712C69.417 102.712 68.2136 102.723 66.9994 102.712C66.9235 101.726 66.8477 100.75 66.7934 99.7636C66.0671 99.4925 65.3516 99.2432 64.6252 98.983C64.506 99.4167 64.2783 100.284 64.1591 100.707C63.7254 101.173 63.3026 101.661 62.9123 102.149C61.9366 102.17 60.9718 102.203 59.9961 102.257C60.5056 100.956 60.7658 99.5901 60.9609 98.2133C61.7523 96.0668 61.8716 93.7685 62.4462 91.5677C62.8581 91.7195 63.6929 92.0231 64.1049 92.1748C63.3677 91.5244 62.1101 90.7113 62.8798 89.5404L62.869 89.5621Z" fill="#262626"/>
<path d="M11.2482 89.812C12.5274 88.0666 14.9233 88.7062 16.7554 88.7062C16.4302 89.0965 15.7689 89.8879 15.4437 90.2782C16.2567 90.083 17.1132 88.0991 17.7311 89.5735C18.1756 90.1481 19.7042 91.7959 18.0238 91.8718L18.2081 92.9125L18.9128 92.7608C18.7285 93.7582 18.5442 94.8097 19.173 95.7095C19.3031 97.4658 19.1405 99.2437 18.5442 100.924C17.1023 103.363 13.3405 102.962 11.4108 101.336C10.8904 100.458 11.3999 99.3847 11.4216 98.4306C11.1831 98.4198 10.7278 98.3981 10.4893 98.3764C10.6302 97.0647 10.8254 95.7204 12.5057 95.677C11.6493 95.4494 10.9229 96.0131 10.1641 96.3058C10.2291 94.1376 10.0448 91.7525 11.2265 89.8337L11.2482 89.812ZM11.5842 91.7851C12.1588 91.7526 13.2971 91.6983 13.8609 91.6767C13.6007 94.4086 13.514 97.1731 13.9368 99.8942C14.3812 99.8617 15.281 99.7966 15.7255 99.7749C15.7906 96.9129 16.105 94.0183 15.5195 91.1997C14.2078 91.3731 12.896 91.5791 11.5842 91.7959V91.7851Z" fill="#262626"/>
<path d="M28.0112 89.2495C28.0438 90.1493 28.0654 91.0382 28.0654 91.9272C26.797 92.0573 25.5178 92.1115 24.2385 92.144C24.2277 92.6427 24.1843 93.6401 24.1735 94.1388C25.301 94.2255 26.4176 94.2905 27.5451 94.3122C27.5451 95.1145 27.5559 95.9167 27.5667 96.7189C26.4393 96.7081 25.3226 96.7298 24.206 96.7623C24.141 98.7354 24.1735 100.698 24.1952 102.66C23.187 102.66 22.1896 102.671 21.1814 102.682L21.1272 101.619C22.2871 101.923 23.2737 101.728 24.0759 101.023C23.1111 100.925 22.1354 100.882 21.1597 100.882C21.1705 99.6677 21.1597 98.4427 21.1055 97.2393C21.886 97.1309 22.6557 97.0008 23.4255 96.849C22.6666 96.849 21.9077 96.8707 21.1488 96.9032C21.2247 94.2255 21.0513 91.5478 21.3873 88.8809C22.4064 89.5096 22.8726 90.6263 23.4905 91.5803C23.3496 91.0491 23.0677 89.9975 22.9268 89.4663C24.6071 89.2711 26.2983 89.2711 27.9895 89.2603L28.0112 89.2495Z" fill="#262626"/>
<path d="M30.4121 89.2363C32.6345 89.529 34.8786 89.1713 37.101 89.3014C37.101 89.9302 37.1119 91.1877 37.1119 91.8057L35.4424 92.055C35.5182 91.2202 35.4098 90.4288 35.0954 89.67C34.8353 90.3963 34.9437 91.1552 34.8786 91.9032C33.3392 91.2961 33.1766 92.944 32.9272 93.8871C33.6644 94.1473 34.4233 94.3642 35.1713 94.6135C35.5182 94.4942 36.2121 94.2341 36.559 94.104C36.5807 94.7544 36.6132 96.0554 36.6349 96.7058C35.5399 96.9985 33.7295 96.0987 33.1332 97.378C33.0356 99.1451 33.079 100.923 33.1224 102.69C31.8973 102.625 30.4013 103.059 29.6641 101.736C30.6506 101.693 31.6371 101.671 32.6237 101.682C32.6128 101.476 32.5912 101.075 32.5695 100.869C31.8106 100.88 31.0409 100.901 30.282 100.923C30.282 99.7305 30.282 98.5488 30.2603 97.3563C30.5964 97.3129 31.2902 97.2154 31.6263 97.172C31.3119 97.1503 30.6723 97.1178 30.3579 97.0961C30.0652 94.4834 30.1085 91.8599 30.4229 89.2472L30.4121 89.2363Z" fill="#262626"/>
<path d="M39.8907 89.432C42.0914 89.3561 44.3572 89.1393 46.4495 89.9741C47.7504 91.9038 47.7721 94.7658 45.8316 96.2836C47.4686 96.6305 46.894 98.4735 47.1867 99.6768C46.3086 99.9912 45.4413 100.316 44.574 100.653C44.509 99.1022 44.4656 96.6738 42.2107 97.1834C42.2107 99.0264 42.1998 100.858 42.1564 102.691C41.1699 102.593 40.1834 102.506 39.1968 102.387C39.4462 99.9695 38.7524 97.3894 39.5654 95.0802C38.8933 93.6709 39.3269 92.0447 39.186 90.5378C39.3595 90.2559 39.7064 89.7139 39.8798 89.432H39.8907ZM42.1348 91.546C42.189 91.8929 42.2974 92.5868 42.3516 92.9337C41.9396 93.0096 41.1265 93.1505 40.7254 93.2155C41.4193 93.8877 42.0372 94.6249 42.5901 95.4271C42.9478 95.3946 43.6634 95.3187 44.0211 95.2754C44.0753 95.6765 44.162 96.4787 44.2054 96.8798C44.4439 96.6088 44.9101 96.0667 45.1594 95.7957C45.1919 95.3404 45.257 94.4297 45.2895 93.9636C44.9426 94.072 44.5957 94.1696 44.2488 94.2563C44.3789 92.8903 43.6417 91.6653 42.1456 91.5352L42.1348 91.546Z" fill="#262626"/>
<path d="M107.129 88.7708C108.083 90.0392 107.465 91.7629 107.628 93.1831C107.996 92.4459 108.723 90.9715 109.091 90.2235C109.698 91.3727 111.476 92.305 111.064 93.7577C110.251 94.4949 109.481 95.2646 108.755 96.0777C108.538 96.1536 108.115 96.3053 107.899 96.3812C108.397 96.4571 108.896 96.533 109.395 96.5981C109.948 96.3379 110.511 96.0885 111.075 95.8392C111.227 95.4923 111.541 94.7984 111.704 94.4515C112.495 93.9854 113.254 94.148 113.959 94.9285C114.588 97.5738 112.192 99.3625 111.14 101.498C111.194 100.75 111.303 99.2541 111.346 98.5061C110.338 99.9263 111.194 102.073 109.601 103.146C109.796 103.417 109.991 103.699 110.186 103.97C109.893 104.512 109.308 105.596 109.004 106.138C109.134 105.119 109.319 104.111 109.492 103.103L107.844 104.143L107.638 103.179C108.636 102.593 110.099 102.04 109.611 100.588C108.571 99.3517 106.923 99.742 105.817 100.62C105.112 101.975 106.511 102.604 107.357 103.341C106.901 103.623 106.001 104.165 105.546 104.436C106.272 104.436 107.703 104.436 108.43 104.425C108.343 104.751 108.18 105.412 108.094 105.737C107.682 105.791 106.869 105.9 106.468 105.943L106.305 105.238H105.102C105.134 104.848 105.21 104.057 105.243 103.656C103.313 102.571 103.172 100.176 101.828 98.6145C102.641 101.043 103.725 103.352 104.711 105.715C105.416 107.157 107.487 106.322 108.527 107.439C107.324 107.829 106.099 107.916 104.852 107.699C103.833 106.29 103.042 104.751 102.348 103.168C101.437 101.422 99.3775 101 97.7947 100.111C97.8273 99.7636 97.8923 99.0807 97.9248 98.7446L97.3503 99.0265C97.1876 98.3326 97.025 97.628 96.8516 96.9341C97.0359 96.6523 97.3936 96.0777 97.5562 95.7958C97.9899 95.1562 98.456 94.5274 98.9764 93.942L98.9981 93.3783C99.7678 93.3783 100.548 93.3783 101.318 93.4108C102.109 93.1831 102.901 92.988 103.703 92.8037C104.245 91.9364 104.766 91.08 105.34 90.2344C105.709 90.733 106.446 91.7304 106.825 92.2291C106.901 91.0583 106.999 89.8983 107.107 88.7383L107.129 88.7708ZM102.467 93.7252C102.586 94.2672 102.836 95.3513 102.944 95.8934C103.931 96.0994 104.928 95.9584 105.915 95.9151C105.969 96.9233 106.056 97.9423 106.283 98.9289C106.381 97.7472 106.403 96.5764 106.435 95.3947L106.045 95.4164C105.167 94.3323 103.681 94.2022 102.467 93.7143V93.7252Z" fill="#262626"/>
<path d="M142.307 88.9118C143.868 88.3914 145.538 88.5865 147.153 88.5215C147.186 89.8224 147.435 91.1125 147.934 92.3159C147.337 92.5002 146.752 92.6953 146.167 92.9013C146.589 92.8145 147.413 92.6411 147.825 92.5435C148.53 95.9259 149.885 99.2108 149.766 102.712C148.671 102.723 147.565 102.734 146.47 102.756C146.308 102.192 145.961 101.054 145.798 100.479C146.492 100.338 147.196 100.165 147.901 100.371C147.945 98.7012 145.7 99.0915 144.844 98.1267C144.096 96.7607 146.134 96.5872 146.969 96.3704C146.438 96.2512 145.906 96.1211 145.375 96.0018C145.082 94.4515 144.942 92.8796 144.736 91.3076C144.703 93.8878 143.12 97.0426 144.79 99.2758C144.519 99.3951 143.977 99.6227 143.717 99.742C143.348 100.642 142.773 101.444 142.21 102.225C141.223 102.214 140.237 102.225 139.25 102.257C140.345 98.7771 140.757 95.1345 141.808 91.6437C142.188 91.6762 142.936 91.7304 143.305 91.7521C142.968 91.6762 142.285 91.5245 141.949 91.4486C142.047 90.5921 142.166 89.7465 142.329 88.9118H142.307Z" fill="#262626"/>
<path d="M151.854 88.511C154.554 88.4894 157.253 88.7495 159.953 88.4785C160.039 90.3757 159.866 94.0291 157.21 93.6172C157.557 93.6822 158.262 93.8015 158.608 93.8665C156.354 95.0157 156.625 98.1162 154.337 99.1028C153.773 99.1244 152.657 99.1678 152.093 99.1895C153.697 96.631 155.367 94.105 157.112 91.6441C156.148 91.5465 155.172 91.4273 154.207 91.2864C153.21 91.4164 152.223 91.5357 151.215 91.6224C152.472 90.8961 152.071 89.6494 151.854 88.5219V88.511Z" fill="#262626"/>
<path d="M164.597 88.77C166.071 88.4773 167.6 88.4664 169.096 88.5749C169.237 89.0844 169.53 90.1034 169.681 90.613L168.565 90.1793C168.857 90.6563 169.454 91.632 169.757 92.1199C169.389 92.2175 168.641 92.4017 168.272 92.4993C168.218 92.7053 168.12 93.0956 168.077 93.2907C168.706 92.9438 169.324 92.5752 169.931 92.1958C170.332 95.3722 171.481 98.3969 171.99 101.562L171.091 101.378C171.383 101.682 171.958 102.31 172.24 102.614C170.917 102.69 169.584 102.722 168.261 102.722C168.174 101.736 168.088 100.749 168.033 99.7737C167.459 99.5352 166.895 99.2967 166.321 99.069C166.321 98.4728 166.342 97.3019 166.353 96.7057C166.668 96.684 167.307 96.6298 167.622 96.5972C167.058 94.8844 166.917 93.0847 166.678 91.3176C166.115 93.8111 166.266 96.3804 166.169 98.9172C165.67 100.088 165.009 101.161 164.261 102.18C163.253 102.18 162.255 102.213 161.258 102.267C162.136 99.0907 162.916 95.8709 163.426 92.6077C164.076 92.2066 164.727 91.7947 165.377 91.3827C164.944 91.4803 164.066 91.6646 163.632 91.7621C163.849 90.7214 164.174 89.7349 164.608 88.77H164.597Z" fill="#262626"/>
<path d="M174.533 89.4543C176.68 89.3025 178.881 89.1724 180.919 89.9963C182.166 91.9694 182.22 94.7772 180.258 96.2841C181.298 96.36 181.32 97.4225 181.483 98.1596C181.743 99.6449 181.873 101.152 181.83 102.659C180.344 102.68 178.675 102.778 178.61 100.707C179.347 100.913 180.843 101.347 181.58 101.564C181.558 100.924 181.537 100.274 181.548 99.634C180.648 99.9809 179.748 100.317 178.848 100.642C178.783 99.569 178.696 98.4957 178.556 97.4333C177.569 97.3249 176.528 97.314 175.737 96.6094C176.062 96.8912 176.387 97.1623 176.723 97.4441C176.637 99.0703 176.637 100.707 176.669 102.333C175.683 102.453 174.696 102.572 173.72 102.691C173.612 98.4307 173.72 94.181 173.645 89.9204C173.861 89.8012 174.306 89.5735 174.533 89.4434V89.4543ZM176.669 91.59C176.702 91.9369 176.756 92.6199 176.788 92.9559L175.162 93.2053C176.16 94.2352 177.157 95.2651 178.144 96.3058C178.079 95.5036 177.059 93.7907 179.293 94.8314C178.653 93.6172 178.48 91.59 176.68 91.59H176.669Z" fill="#262626"/>
<path d="M85.4463 92.9222C86.4762 92.597 86.8123 92.9222 86.4762 93.9305C85.468 94.2774 85.1211 93.9305 85.4463 92.9222Z" fill="#262626"/>
<path d="M123.597 92.9547C124.183 92.1633 125.527 93.1065 124.909 93.9195C124.313 94.7977 122.958 93.7786 123.597 92.9547Z" fill="#262626"/>
<path d="M85.3698 96.7168C86.855 95.5568 87.5489 98.549 85.8251 98.4622C85.0879 98.0503 84.9362 97.4757 85.3698 96.7168Z" fill="#262626"/>
<path d="M152.041 100.856C152.019 100.564 151.987 99.9783 151.965 99.6855C153.483 99.7398 155.011 99.6855 156.529 99.9132C156.421 100.369 156.193 101.279 156.074 101.724C156.594 101.333 157.179 101.03 157.819 100.846L157.299 100.206L159.727 100.163L158.86 101.117C159.142 101.052 159.695 100.932 159.987 100.867C159.976 101.323 159.955 102.212 159.933 102.656C158.036 102.656 156.139 102.656 154.241 102.656C154.426 101.886 154.827 101.225 155.423 100.705C154.328 101.16 153.168 101.03 152.03 100.846L152.041 100.856Z" fill="#262626"/>
<path d="M44.1406 100.892L47.2303 101.109C47.2628 101.64 47.2954 102.171 47.3387 102.691C45.9077 102.756 44.455 102.54 44.1515 100.881L44.1406 100.892Z" fill="#262626"/>
<path d="M151.531 102.3C151.629 101.552 153.84 101.335 153.71 102.333C152.984 102.745 152.258 102.734 151.531 102.3Z" fill="#262626"/>
<path d="M100.777 113.739C101.774 113.284 102.197 114.986 101.232 115.246C100.246 115.615 99.7904 113.988 100.777 113.739Z" fill="#262626"/>
</g>
<defs>
<clipPath id="clip0_4927_33495">
<rect width="192" height="192" fill="white"/>
</clipPath>
</defs>
</svg>
