<svg width="192" height="192" viewBox="0 0 192 192" fill="none" xmlns="http://www.w3.org/2000/svg">
<g clip-path="url(#clip0_4959_32429)">
<path d="M96 192C149.019 192 192 149.019 192 96C192 42.9807 149.019 0 96 0C42.9807 0 0 42.9807 0 96C0 149.019 42.9807 192 96 192Z" fill="white"/>
<path d="M147.137 100.65C142.376 100.65 137.606 100.642 132.845 100.65C131.252 100.65 129.749 100.309 128.352 99.553C128.002 99.3662 127.661 99.1549 127.287 99.3905C125.281 100.666 123.022 100.812 120.779 100.626C118.683 100.447 117.351 100.951 116.335 103.014C115.043 105.639 112.711 107.459 110.249 109.043C109.559 109.49 109.112 109.425 108.6 108.807C107.544 107.516 106.455 106.24 105.35 104.989C104.871 104.444 104.903 104.144 105.577 103.794C106.617 103.258 107.641 102.657 108.486 101.812C108.746 101.552 109.209 101.292 109.096 100.91C108.957 100.463 108.437 100.674 108.08 100.666C106.552 100.642 105.033 100.626 103.506 100.666C102.864 100.691 102.49 100.463 102.279 99.9024C101.036 96.5955 100.881 93.2805 102.409 90.0468C104.099 86.4799 107.243 84.8224 111.379 85.1474C114.198 85.3668 117.074 87.9749 118.098 91.2493C118.575 92.7768 119.607 93.5351 121.194 93.5243C123.542 93.508 124.094 92.9637 124.119 90.6237C124.135 89.1233 124.915 88.373 126.459 88.373C127.637 88.373 128.823 88.4299 130.001 88.3568C131.001 88.2918 131.293 88.7224 131.228 89.6243C131.187 90.193 131.196 90.7699 131.244 91.3387C131.391 92.858 131.984 93.4268 133.495 93.5162C133.877 93.5405 134.259 93.5243 134.641 93.5243C143.676 93.5243 152.711 93.5243 161.746 93.5243C162.802 93.5243 163.33 94.0551 163.33 95.1168C163.33 96.563 163.273 98.0093 163.346 99.4555C163.395 100.422 163.062 100.691 162.119 100.682C157.122 100.642 152.134 100.666 147.137 100.666V100.65ZM109.77 93.573C110.298 93.573 110.834 93.5812 111.362 93.573C112.012 93.5487 112.272 93.313 111.931 92.6387C111.111 90.9974 108.909 90.7374 107.787 92.1837C107.56 92.4843 107.3 92.8418 107.422 93.2074C107.56 93.6543 108.031 93.5649 108.405 93.573C108.86 93.5812 109.315 93.573 109.77 93.573Z" fill="#262626"/>
<path d="M39.0121 100.675C37.834 100.675 36.6477 100.716 35.4696 100.659C34.714 100.618 34.2833 100.903 33.9583 101.569C32.4146 104.738 30.0015 107.094 27.0765 109.011C26.2965 109.523 25.7846 109.418 25.224 108.743C24.2327 107.541 23.2008 106.371 22.1771 105.193C21.6246 104.559 21.6652 104.136 22.4696 103.698C23.5665 103.096 24.639 102.43 25.4921 101.479C25.6383 101.317 25.8496 101.073 25.8171 100.919C25.744 100.594 25.3865 100.691 25.1346 100.683C23.4933 100.675 21.8521 100.643 20.219 100.691C19.5121 100.716 19.1383 100.391 18.9352 99.8138C17.6921 96.3851 17.5783 92.9563 19.3008 89.6657C20.7877 86.8301 23.2252 85.3432 26.4508 85.1238C29.8958 84.8882 32.244 86.5376 33.9583 89.3407C34.6002 90.3888 34.9658 91.5588 35.2502 92.737C35.3802 93.2813 35.6402 93.5413 36.1683 93.5413C37.3871 93.5413 38.614 93.5982 39.8246 93.517C41.2627 93.4113 41.8071 92.8263 41.9533 91.3395C42.0183 90.657 41.9858 89.9745 42.0102 89.2838C42.0346 88.6663 42.2783 88.3251 42.9933 88.3413C44.7483 88.382 46.5033 88.3657 48.2583 88.3495C48.754 88.3495 49.1033 88.4795 49.1277 89.0157C49.2415 91.4857 49.4365 93.9882 48.7702 96.3851C48.0471 99.0013 45.699 100.529 42.6602 100.643C41.4415 100.691 40.2227 100.643 39.004 100.643C39.004 100.651 39.004 100.659 39.004 100.667L39.0121 100.675ZM26.3615 93.6713C26.8896 93.6713 27.4258 93.6876 27.954 93.6713C28.8558 93.6307 29.0752 93.192 28.5877 92.4282C27.6127 90.8682 25.5408 90.7301 24.4765 92.1682C24.2246 92.5095 23.8102 92.8913 24.0783 93.387C24.3221 93.842 24.8177 93.6551 25.2158 93.6795C25.5977 93.7038 25.9715 93.6795 26.3533 93.6795L26.3615 93.6713Z" fill="#262626"/>
<path d="M69.1805 100.658C65.9792 100.658 62.778 100.65 59.5686 100.658C58.3661 100.658 57.2042 100.43 56.1073 100.008C53.5967 99.0411 52.5648 97.0098 52.4023 94.483C52.2886 92.7361 52.3698 90.9811 52.3455 89.2342C52.3373 88.5761 52.6542 88.373 53.2636 88.3811C55.0917 88.3973 56.928 88.4055 58.7561 88.3811C59.3817 88.373 59.5523 88.6492 59.5442 89.2017C59.528 89.9655 59.5117 90.7292 59.5605 91.4848C59.6498 92.8011 60.2511 93.4836 61.5592 93.4917C66.6698 93.5323 71.7805 93.5323 76.883 93.4917C78.248 93.4755 78.6867 92.988 78.8573 91.6067C78.9548 90.8592 78.9548 90.0873 78.9467 89.3317C78.9467 88.6655 79.1986 88.373 79.8973 88.3811C81.693 88.4136 83.4805 88.3973 85.2761 88.3892C85.6905 88.3892 86.0642 88.4298 86.0561 88.9661C86.0236 91.1355 86.3323 93.3292 85.8936 95.458C85.203 98.8461 82.9605 100.56 79.2392 100.634C75.8836 100.699 72.528 100.65 69.1723 100.65L69.1805 100.658Z" fill="#262626"/>
<path d="M166.752 88.5598C166.752 84.9036 166.784 81.2554 166.727 77.5992C166.711 76.6811 167.003 76.4048 167.889 76.4292C169.603 76.4779 171.318 76.4617 173.032 76.4292C173.682 76.4129 173.991 76.5592 173.991 77.3067C173.967 84.8061 173.967 92.3054 173.991 99.7967C173.991 100.536 173.69 100.682 173.04 100.674C171.285 100.642 169.53 100.634 167.775 100.674C166.987 100.69 166.719 100.43 166.727 99.6261C166.768 95.9373 166.743 92.2404 166.743 88.5517L166.752 88.5598Z" fill="#262626"/>
<path d="M94.7161 91.9729C95.6261 92.0216 96.5361 92.1029 97.4542 92.111C98.2424 92.111 98.5267 92.4279 98.4699 93.2241C98.0392 99.1879 96.2436 104.518 91.4905 108.507C91.1736 108.775 90.8242 109.019 90.548 109.336C89.7924 110.205 89.2074 110.116 88.533 109.182C87.623 107.922 86.6317 106.72 85.6242 105.534C85.1367 104.957 85.0474 104.542 85.7299 104.055C89.3617 101.455 90.9786 97.7985 91.2305 93.4354C91.328 91.8023 91.3849 91.8023 92.9936 91.8998C93.5624 91.9323 94.1311 91.9566 94.6999 91.9891C94.6999 91.9891 94.6999 91.981 94.6999 91.9729H94.7161Z" fill="#262626"/>
<path d="M127.751 104.542C129.734 104.542 131.708 104.566 133.682 104.533C134.381 104.525 134.641 104.777 134.625 105.46C134.592 106.67 134.601 107.889 134.625 109.108C134.641 109.693 134.422 109.937 133.829 109.912C133.106 109.88 132.382 109.928 131.659 109.904C130.896 109.872 130.579 109.969 130.855 110.912C131.537 113.227 130.457 115.015 128.247 115.494C125.687 116.047 123.38 113.568 124.266 111.115C124.664 110.01 124.314 109.896 123.364 109.896C120.536 109.896 120.52 109.872 120.536 107.003C120.552 104.379 120.106 104.55 122.949 104.55C124.55 104.55 126.142 104.55 127.743 104.55L127.751 104.542Z" fill="#262626"/>
<path d="M68.1142 83.377C66.3185 83.377 64.531 83.3607 62.7354 83.3851C62.1504 83.3851 61.801 83.2876 61.8254 82.5807C61.866 81.0938 61.8579 79.6151 61.8254 78.1282C61.8173 77.527 62.0448 77.332 62.6298 77.3401C66.2942 77.3563 69.9504 77.3563 73.6148 77.3401C74.3217 77.3401 74.5329 77.6326 74.5167 78.307C74.4842 79.6801 74.4679 81.0451 74.5167 82.4182C74.541 83.2063 74.1754 83.3932 73.4848 83.3851C71.6892 83.3607 69.9017 83.3851 68.106 83.3851L68.1142 83.377Z" fill="#262626"/>
<path d="M45.0888 83.3507C43.3338 83.3507 41.5869 83.3263 39.8319 83.3588C39.0519 83.3751 38.7269 83.0988 38.7513 82.3026C38.7919 80.9701 38.7838 79.6457 38.7513 78.3132C38.735 77.5576 39.0681 77.3301 39.7831 77.3301C43.3256 77.3545 46.8681 77.3545 50.4025 77.3301C51.1581 77.3301 51.4019 77.5901 51.3856 78.3295C51.345 79.6945 51.3531 81.0676 51.3856 82.4326C51.4019 83.1232 51.15 83.3832 50.4594 83.367C48.6719 83.3345 46.8844 83.3588 45.0888 83.3588V83.3507Z" fill="#262626"/>
<path d="M57.8122 106.548C57.8691 107.035 57.4954 107.1 57.2516 107.222C54.2291 108.798 51.1904 110.35 48.1679 111.918C47.656 112.178 47.3879 112.056 47.0791 111.553C45.8197 109.456 45.8035 109.473 47.9241 108.384C50.3535 107.141 52.7829 105.89 55.2041 104.646C56.561 103.948 56.5772 103.94 57.2272 105.272C57.4385 105.711 57.7879 106.101 57.8041 106.548H57.8122Z" fill="#262626"/>
</g>
<defs>
<clipPath id="clip0_4959_32429">
<rect width="192" height="192" fill="white"/>
</clipPath>
</defs>
</svg>
