<svg width="192" height="192" viewBox="0 0 192 192" fill="none" xmlns="http://www.w3.org/2000/svg">
<g clip-path="url(#clip0_4959_32444)">
<path d="M96 192C149.019 192 192 149.019 192 96C192 42.9807 149.019 0 96 0C42.9807 0 0 42.9807 0 96C0 149.019 42.9807 192 96 192Z" fill="white"/>
<path d="M14.5863 89.6316H8.79688V87.0263H23.7179V89.6316H17.8495V105.737H14.5863V89.6316Z" fill="black"/>
<path d="M30.8088 106C29.493 106 28.3263 105.719 27.3088 105.158C26.2913 104.579 25.5018 103.781 24.9404 102.763C24.379 101.728 24.0983 100.526 24.0983 99.1579V98.7368C24.0983 97.4035 24.3527 96.193 24.8614 95.1053C25.3702 94.0175 26.0983 93.1579 27.0456 92.5263C28.0106 91.8947 29.1334 91.5789 30.4141 91.5789C32.2913 91.5789 33.7562 92.1842 34.8088 93.3947C35.8614 94.5877 36.3877 96.2807 36.3877 98.4737V99.7368H27.2825L27.3088 99.8158C27.3965 100.921 27.7737 101.816 28.4404 102.5C29.107 103.167 29.9491 103.5 30.9667 103.5C32.3877 103.5 33.5544 102.93 34.4667 101.789L36.1246 103.421C35.5632 104.246 34.8176 104.886 33.8877 105.342C32.9755 105.781 31.9491 106 30.8088 106ZM33.2562 97.4737V97.2368C33.2211 96.2368 32.9491 95.4649 32.4404 94.9211C31.9491 94.3596 31.2737 94.0789 30.4141 94.0789C29.572 94.0789 28.879 94.3772 28.3351 94.9737C27.7913 95.5702 27.4579 96.4035 27.3351 97.4737H33.2562Z" fill="black"/>
<path d="M38.707 86H41.8649V93.4474C42.8649 92.2018 44.1632 91.5789 45.7597 91.5789C48.7597 91.5789 50.2684 93.2895 50.286 96.7105V105.737H47.1281V96.7368C47.1105 95.8421 46.9 95.1842 46.4965 94.7632C46.1105 94.3421 45.4965 94.1316 44.6544 94.1316C44.0228 94.1316 43.4614 94.2807 42.9702 94.5789C42.4965 94.8772 42.1281 95.2895 41.8649 95.8158V105.737H38.707V86Z" fill="black"/>
<path d="M53.3824 91.8421H56.3824L56.4877 93.5263C57.2245 92.2281 58.2947 91.5789 59.6982 91.5789C60.1719 91.5789 60.5403 91.6404 60.8035 91.7632L60.7771 94.6842C60.4789 94.614 60.0491 94.5789 59.4877 94.5789C57.9964 94.5789 57.014 95.1491 56.5403 96.2895V105.737H53.3824V91.8421Z" fill="black"/>
<path d="M66.4328 106C65.5556 106 64.7573 105.825 64.038 105.474C63.3187 105.105 62.7573 104.605 62.3538 103.974C61.9503 103.342 61.7486 102.64 61.7486 101.868C61.7486 100.395 62.3012 99.2632 63.4065 98.4737C64.5117 97.6842 66.0819 97.2895 68.117 97.2895H70.038V96.3158C70.038 95.5614 69.8275 94.9825 69.4064 94.5789C69.0029 94.1579 68.4152 93.9474 67.6433 93.9474C66.924 93.9474 66.3363 94.1228 65.8801 94.4737C65.4415 94.8246 65.2222 95.2807 65.2222 95.8421H62.038C62.038 95.0877 62.2836 94.386 62.7749 93.7368C63.2661 93.0702 63.9503 92.5439 64.8275 92.1579C65.7222 91.7719 66.7135 91.5789 67.8012 91.5789C69.4503 91.5789 70.7573 91.9912 71.7222 92.8158C72.6871 93.6404 73.1871 94.7719 73.2222 96.2105V102.526C73.2222 103.772 73.3977 104.772 73.7486 105.526V105.737H70.538C70.3801 105.439 70.2486 104.982 70.1433 104.368C69.1608 105.456 67.924 106 66.4328 106ZM64.9065 101.553C64.9065 102.149 65.1082 102.632 65.5117 103C65.9152 103.351 66.4328 103.526 67.0643 103.526C67.7135 103.526 68.31 103.368 68.8538 103.053C69.3977 102.719 69.7924 102.307 70.038 101.816V99.2105H68.4328C66.0819 99.2105 64.9065 99.9912 64.9065 101.553Z" fill="black"/>
<path d="M76.3818 91.8421H79.3555L79.4607 93.5263C80.4958 92.2281 81.8642 91.5789 83.566 91.5789C86.4783 91.5789 87.9432 93.2719 87.9607 96.6579V105.737H84.8028V96.7105C84.7853 95.7982 84.5835 95.1404 84.1976 94.7368C83.8291 94.3333 83.2063 94.1316 82.3291 94.1316C81.7151 94.1316 81.1625 94.2895 80.6712 94.6053C80.1976 94.9035 79.8291 95.3246 79.566 95.8684V105.737H76.3818V91.8421Z" fill="black"/>
<path d="M89.7144 87.0263H93.3197L98.0039 101.737L98.3723 100.5L102.688 87.0263H106.346L99.6355 105.737H96.3723L89.7144 87.0263Z" fill="black"/>
<path d="M111.689 106C110.812 106 110.013 105.825 109.294 105.474C108.575 105.105 108.013 104.605 107.61 103.974C107.206 103.342 107.005 102.64 107.005 101.868C107.005 100.395 107.557 99.2632 108.662 98.4737C109.768 97.6842 111.338 97.2895 113.373 97.2895H115.294V96.3158C115.294 95.5614 115.083 94.9825 114.662 94.5789C114.259 94.1579 113.671 93.9474 112.899 93.9474C112.18 93.9474 111.592 94.1228 111.136 94.4737C110.697 94.8246 110.478 95.2807 110.478 95.8421H107.294C107.294 95.0877 107.54 94.386 108.031 93.7368C108.522 93.0702 109.206 92.5439 110.083 92.1579C110.978 91.7719 111.969 91.5789 113.057 91.5789C114.706 91.5789 116.013 91.9912 116.978 92.8158C117.943 93.6404 118.443 94.7719 118.478 96.2105V102.526C118.478 103.772 118.654 104.772 119.005 105.526V105.737H115.794C115.636 105.439 115.505 104.982 115.399 104.368C114.417 105.456 113.18 106 111.689 106ZM110.162 101.553C110.162 102.149 110.364 102.632 110.768 103C111.171 103.351 111.689 103.526 112.32 103.526C112.969 103.526 113.566 103.368 114.11 103.053C114.654 102.719 115.048 102.307 115.294 101.816V99.2105H113.689C111.338 99.2105 110.162 99.9912 110.162 101.553Z" fill="black"/>
<path d="M121.69 91.8421H124.69L124.796 93.5263C125.532 92.2281 126.603 91.5789 128.006 91.5789C128.48 91.5789 128.848 91.6404 129.111 91.7632L129.085 94.6842C128.787 94.614 128.357 94.5789 127.796 94.5789C126.304 94.5789 125.322 95.1491 124.848 96.2895V105.737H121.69V91.8421Z" fill="black"/>
<path d="M130.441 103.737L137.493 94.3421H130.599V91.8421H141.493V93.7895L134.362 103.237H141.783V105.737H130.441V103.737Z" fill="black"/>
<path d="M150.206 106C148.891 106 147.724 105.719 146.706 105.158C145.689 104.579 144.899 103.781 144.338 102.763C143.777 101.728 143.496 100.526 143.496 99.1579V98.7368C143.496 97.4035 143.75 96.193 144.259 95.1053C144.768 94.0175 145.496 93.1579 146.443 92.5263C147.408 91.8947 148.531 91.5789 149.812 91.5789C151.689 91.5789 153.154 92.1842 154.206 93.3947C155.259 94.5877 155.785 96.2807 155.785 98.4737V99.7368H146.68L146.706 99.8158C146.794 100.921 147.171 101.816 147.838 102.5C148.505 103.167 149.347 103.5 150.364 103.5C151.785 103.5 152.952 102.93 153.864 101.789L155.522 103.421C154.961 104.246 154.215 104.886 153.285 105.342C152.373 105.781 151.347 106 150.206 106ZM152.654 97.4737V97.2368C152.619 96.2368 152.347 95.4649 151.838 94.9211C151.347 94.3596 150.671 94.0789 149.812 94.0789C148.97 94.0789 148.277 94.3772 147.733 94.9737C147.189 95.5702 146.856 96.4035 146.733 97.4737H152.654Z" fill="black"/>
<path d="M163.368 106C162.28 106 161.28 105.798 160.368 105.395C159.473 104.991 158.763 104.439 158.236 103.737C157.727 103.018 157.473 102.237 157.473 101.395H160.552C160.57 102.114 160.833 102.675 161.341 103.079C161.868 103.482 162.561 103.684 163.42 103.684C164.192 103.684 164.798 103.535 165.236 103.237C165.692 102.921 165.92 102.5 165.92 101.974C165.92 101.412 165.684 100.982 165.21 100.684C164.754 100.386 163.973 100.114 162.868 99.8684C161.201 99.5175 159.964 99.0088 159.157 98.3421C158.35 97.6754 157.947 96.8246 157.947 95.7895C157.947 95 158.175 94.2895 158.631 93.6579C159.087 93.0088 159.719 92.5 160.526 92.1316C161.35 91.7632 162.28 91.5789 163.315 91.5789C164.42 91.5789 165.394 91.7719 166.236 92.1579C167.096 92.5263 167.754 93.0439 168.21 93.7105C168.684 94.3772 168.92 95.1404 168.92 96H165.763C165.763 95.386 165.534 94.886 165.078 94.5C164.64 94.0965 164.052 93.8947 163.315 93.8947C162.613 93.8947 162.052 94.0614 161.631 94.3947C161.227 94.7105 161.026 95.1316 161.026 95.6579C161.026 96.1842 161.28 96.5789 161.789 96.8421C162.315 97.1053 163.043 97.3509 163.973 97.5789C164.043 97.5965 164.298 97.6579 164.736 97.7632C166.192 98.1316 167.263 98.6404 167.947 99.2895C168.648 99.9211 168.999 100.763 168.999 101.816C168.999 102.64 168.763 103.368 168.289 104C167.815 104.632 167.148 105.123 166.289 105.474C165.447 105.825 164.473 106 163.368 106Z" fill="black"/>
<path d="M171.622 86H174.78V93.4474C175.78 92.2018 177.078 91.5789 178.675 91.5789C181.675 91.5789 183.184 93.2895 183.201 96.7105V105.737H180.043V96.7368C180.026 95.8421 179.815 95.1842 179.412 94.7632C179.026 94.3421 178.412 94.1316 177.57 94.1316C176.938 94.1316 176.377 94.2807 175.885 94.5789C175.412 94.8772 175.043 95.2895 174.78 95.8158V105.737H171.622V86Z" fill="black"/>
</g>
<defs>
<clipPath id="clip0_4959_32444">
<rect width="192" height="192" fill="white"/>
</clipPath>
</defs>
</svg>
