<svg width="192" height="192" viewBox="0 0 192 192" fill="none" xmlns="http://www.w3.org/2000/svg">
<g clip-path="url(#clip0_4933_36440)">
<path d="M96 192C149.019 192 192 149.019 192 96C192 42.9807 149.019 0 96 0C42.9807 0 0 42.9807 0 96C0 149.019 42.9807 192 96 192Z" fill="white"/>
<g clip-path="url(#clip1_4933_36440)">
<path d="M125.084 130.515C124.886 131.078 124.429 131.463 124.054 131.887C121.275 135.041 117.92 137.367 113.966 138.814C111.763 139.62 109.497 140.11 107.145 140.271C105.566 140.379 103.994 140.327 102.422 140.347C100.317 140.373 98.2148 140.34 96.1098 140.363C95.6427 140.37 95.3467 140.222 95.0573 139.853C91.5807 135.465 88.1008 131.078 84.5913 126.716C83.3841 125.217 83.7624 123.217 84.9695 122.118C87.4758 119.836 89.8933 117.451 92.347 115.109C93.1561 114.339 93.4883 113.412 93.2088 112.32C92.9456 111.294 92.2582 110.656 91.2517 110.346C90.9689 110.261 90.6827 110.261 90.3933 110.261C88.3672 110.261 86.3411 110.294 84.3183 110.244C83.4269 110.221 82.7461 110.712 82.7493 111.836C82.7757 121.016 82.7658 130.196 82.7625 139.373C82.7625 140.485 82.8809 140.347 81.8054 140.35C78.5722 140.356 75.3357 140.337 72.1025 140.366C71.5104 140.373 71.1716 140.205 70.8493 139.685C66.876 133.242 62.8732 126.815 58.8769 120.385C58.7091 120.118 58.5513 119.845 58.321 119.622C57.5448 118.878 56.4364 118.934 55.7489 119.763C55.6305 119.905 55.5384 120.066 55.4397 120.22C52.9334 124.204 50.4271 128.187 47.9241 132.17C47.8287 132.321 47.6873 132.456 47.7004 132.653C47.7432 132.785 47.8517 132.785 47.9537 132.785C50.2692 132.785 52.5848 132.86 54.897 132.772C57.7717 132.663 60.5609 132.051 63.235 130.963C63.4652 130.871 63.679 130.663 63.9684 130.769L63.952 130.755C63.8566 131.19 63.5047 131.443 63.2383 131.752C60.4622 134.992 57.0547 137.327 53.0617 138.811C51.0849 139.544 49.0457 140.027 46.9439 140.218C46.4736 140.261 46 140.261 45.5263 140.261C41.8721 140.261 38.2146 140.254 34.5604 140.248C34.3828 140.248 34.1953 140.284 34.0177 140.192C33.9486 139.922 34.1558 139.758 34.2742 139.567C40.4413 129.657 46.615 119.75 52.7887 109.846C53.7327 108.33 54.68 106.811 55.6305 105.298C55.7687 105.077 55.9167 104.85 56.1009 104.669C56.7718 104.012 57.7323 104.081 58.3013 104.824C58.4592 105.031 58.5907 105.261 58.7289 105.485C63.6527 113.412 68.5765 121.342 73.5003 129.269C73.6352 129.489 73.7832 129.703 73.9707 129.983C74.1483 129.66 74.0825 129.374 74.0825 129.108C74.0858 121.664 74.0858 114.221 74.0858 106.778C74.0858 106.436 74.0858 106.094 74.0989 105.752C74.1647 103.998 75.3093 102.867 77.069 102.857C79.1741 102.844 81.2758 102.857 83.3809 102.857C86.2753 102.857 89.1664 102.844 92.0609 102.864C93.7712 102.874 95.4059 103.245 96.8728 104.146C99.8462 105.972 101.451 108.62 101.514 112.142C101.563 114.872 100.537 117.152 98.6095 119.053C96.9452 120.697 95.3138 122.378 93.6265 124C92.7812 124.812 92.7318 125.358 93.6067 126.348C94.7415 127.627 95.8894 128.891 97.034 130.16C97.807 131.015 98.5865 131.867 99.3726 132.732C99.7245 132.492 99.8528 132.134 100.044 131.831C105.504 123.121 110.957 114.408 116.41 105.696C116.548 105.472 116.683 105.245 116.841 105.034C117.65 103.975 118.841 104.028 119.548 105.169C121.275 107.965 122.992 110.767 124.712 113.566C128.442 119.635 132.178 125.703 135.888 131.785C136.191 132.282 136.546 132.528 137.109 132.63C143.565 133.801 149.571 129.298 150.328 122.766C150.995 116.99 146.979 111.402 140.977 110.409C140.404 110.314 139.832 110.261 139.253 110.264C135.152 110.271 131.047 110.258 126.945 110.281C126.383 110.284 126.044 110.139 125.745 109.643C124.525 107.616 123.258 105.617 122.012 103.607C121.893 103.413 121.702 103.245 121.722 102.969C121.916 102.785 122.166 102.87 122.387 102.87C128.093 102.864 133.803 102.781 139.506 102.893C144.338 102.989 148.561 104.755 152.078 108.126C155.169 111.09 157.034 114.711 157.643 118.921C158.294 123.421 157.412 127.664 154.975 131.519C152.054 136.136 147.854 138.939 142.513 140.008C141.362 140.238 140.184 140.373 138.997 140.363C137.023 140.35 135.05 140.34 133.08 140.373C132.534 140.383 132.244 140.192 131.961 139.738C127.939 133.262 123.896 126.799 119.857 120.332C119.706 120.089 119.561 119.826 119.357 119.628C118.492 118.806 117.246 118.964 116.581 120C115.743 121.306 114.943 122.635 114.128 123.954C112.44 126.68 110.75 129.407 109.066 132.137C108.96 132.308 108.789 132.459 108.822 132.716C108.993 132.874 109.214 132.795 109.408 132.795C111.302 132.801 113.197 132.844 115.088 132.788C118.213 132.693 121.219 132.025 124.1 130.798C124.409 130.667 124.705 130.486 125.051 130.443C125.071 130.469 125.087 130.496 125.103 130.522L125.084 130.515Z" fill="#02A3A6"/>
<path d="M119.636 68.4135C119.83 68.9233 119.787 69.4529 119.699 69.966C119.531 70.9626 118.695 71.6139 117.554 71.7027C116.143 71.8178 114.791 71.5218 113.453 71.1336C112.874 70.9659 112.291 70.8014 111.732 70.5778C111.38 70.4363 111.196 70.512 111.051 70.831C110.986 70.9725 110.894 71.104 110.798 71.229C110.259 71.9362 109.483 72.1763 108.634 71.8934C108.437 71.8276 108.236 71.7454 108.062 71.6336C103.753 68.8707 100.099 65.4665 97.6943 60.8716C96.974 59.4967 96.428 58.0528 96.1682 56.5135C96.0958 56.0102 96.0234 55.507 95.9511 55.0071C95.859 55.5333 95.7241 56.0464 95.9248 56.5464C96.4445 61.5853 98.3785 66.0092 101.704 69.8279C104.898 73.4985 108.891 76.0048 113.374 77.781C114.304 78.1493 115.278 78.3927 116.271 78.4618C118.297 78.5967 119.741 77.781 120.274 75.7154C120.366 75.3635 120.422 75.0049 120.501 74.6234C121.08 77.304 119.195 79.6985 116.495 79.7939C114.541 79.863 112.699 79.3729 110.89 78.7249C110.101 78.4421 109.321 78.1197 108.552 77.7875C108.266 77.6658 108.088 77.6987 107.861 77.9224C107.101 78.6789 106.193 78.8302 105.171 78.5539C104.236 78.3039 103.431 77.8204 102.667 77.2547C98.2304 73.9623 94.471 70.0384 91.6325 65.2757C90.5405 63.4437 89.6919 61.4932 89.1788 59.4145C89.0538 58.908 88.9452 58.3916 88.8729 57.8752C88.8367 57.612 88.715 57.4048 88.5999 57.0891C88.6953 63.6081 90.6391 69.3871 94.6683 74.4129C96.826 77.1034 99.4704 79.2578 102.421 81.0372C104.565 82.3298 106.802 83.4251 109.236 84.0632C112.015 84.7934 114.771 84.8789 117.482 83.7277C118.018 83.5007 118.482 83.1554 119.008 82.9153C119.077 82.9844 119.146 83.0567 119.212 83.1258C118.396 84.4677 117.107 85.165 115.673 85.5795C114.183 86.0103 112.663 86.1288 111.088 85.9709C108.562 85.7143 106.154 85.0401 103.782 84.1882C103.529 84.0961 103.309 84.0237 103.033 84.1586C101.023 85.1552 99.1481 84.7079 97.3818 83.5501C95.9281 82.5995 94.619 81.4549 93.356 80.2708C90.5701 77.6593 88.0111 74.8471 85.9061 71.6435C84.4128 69.3707 83.1663 66.9828 82.5413 64.312C82.3571 63.5193 82.2091 62.7233 82.2223 61.9011C82.2223 61.7136 82.2683 61.4998 82.0447 61.2103C81.9295 61.8616 81.8374 62.378 81.8111 62.9141C81.5381 68.703 83.5346 73.7255 87.0474 78.2053C90.0307 82.0141 93.7309 85.017 97.8522 87.5135C100.151 88.9081 102.572 90.0329 105.19 90.6974C108.118 91.4374 111.035 91.5492 113.933 90.5132C114.551 90.2928 115.081 89.8849 115.715 89.7205L115.709 89.7106C115.581 90.2599 115.12 90.5526 114.732 90.8585C113.439 91.8749 111.93 92.3584 110.308 92.5491C107.292 92.9011 104.427 92.2005 101.599 91.2894C100.072 90.7993 98.5988 90.1678 97.145 89.4902C96.8622 89.3587 96.5892 89.2172 96.2504 89.2271C94.0697 89.283 92.1423 88.4969 90.3333 87.3688C87.9782 85.9018 86.0969 83.9382 84.4424 81.7378C82.2354 78.8039 80.5284 75.5838 79.0746 72.2223C78.4924 70.8738 77.9431 69.5088 77.4465 68.1241C77.4136 68.0353 77.407 67.9103 77.2721 67.8906C77.0353 70.535 78.7819 77.8566 81.7421 82.6522C84.5773 87.2405 88.4716 90.5987 93.2244 93.0228C97.964 95.437 103 96.5783 108.496 96.3349C107.779 96.8283 107.105 96.9829 106.43 97.1177C103.937 97.621 101.474 97.3512 99.0297 96.7724C95.3492 95.9007 91.9482 94.3351 88.6394 92.5491C88.3861 92.4143 88.1559 92.2367 87.8368 92.2761C85.7252 92.5261 84.1563 91.5558 82.7913 90.0658C80.9987 88.1088 79.2686 86.1024 77.7951 83.8889C77.4925 83.4317 77.2031 82.9646 76.8676 82.5206C77.0485 83.6751 77.509 84.7375 77.9596 85.7998C79.2489 88.8456 80.9527 91.6348 83.1498 94.1147C83.1827 94.1509 83.1991 94.2068 83.2222 94.2529C83.2123 94.3812 83.2057 94.5094 83.1959 94.6377C82.2617 94.0391 81.4428 93.3023 80.6764 92.5097C77.3971 89.1284 75.2493 85.119 74.279 80.5175C73.835 78.4125 73.7133 76.268 73.8646 74.1004C74.1343 70.1995 75.2658 66.5848 77.305 63.2628C80.3179 58.3554 84.5839 54.9807 90.0142 53.0862C92.7376 52.1357 95.5465 51.7443 98.4409 51.8331C103.911 52.0041 108.723 53.8855 112.972 57.2798C113.114 57.3917 113.222 57.543 113.347 57.6778L113.308 57.9541C112.354 57.464 111.436 56.9049 110.403 56.5826C110.025 56.4641 109.644 56.3819 109.252 56.3786C108.361 56.372 107.887 56.8753 107.979 57.7666C108.025 58.2337 108.16 58.6909 108.358 59.1185C109.703 62.003 111.999 63.7068 115.048 64.4403C115.574 64.5685 116.14 64.5291 116.669 64.3219C116.669 64.4172 116.666 64.5126 116.663 64.608C116.031 65.3481 115.143 65.404 114.285 65.3941C113.716 65.3875 113.318 65.4467 112.982 65.9829C112.647 66.5223 112.064 66.6473 111.443 66.4466C110.292 66.075 109.338 65.3842 108.456 64.5883C105.963 62.3451 104.457 59.4868 103.404 56.3556C103.263 55.9346 103.125 55.5136 102.98 55.0926C102.967 55.0498 102.911 55.0235 102.835 54.9511C102.717 55.8195 102.947 56.6187 103.112 57.4081C103.888 61.1084 105.549 64.3383 108.44 66.8348C110.834 68.9036 113.63 70.1765 116.752 70.7159C117.11 70.7784 117.475 70.7488 117.843 70.6732C118.722 70.489 119.225 69.9693 119.386 69.101C119.429 68.8707 119.458 68.6372 119.495 68.4037H119.56H119.626L119.636 68.4135Z" fill="#02A3A6"/>
<path d="M119.636 68.4137H119.57H119.505C119.255 67.8874 119.324 67.2822 119.113 66.7461C119.39 67.2691 119.636 67.8052 119.636 68.417V68.4137Z" fill="#14A9AC"/>
<path d="M95.9284 56.5496C95.7277 56.0463 95.8626 55.5332 95.9547 55.0103C96.027 55.5135 96.0994 56.0167 96.1718 56.5167C96.083 56.4838 96.004 56.4969 95.9284 56.5496Z" fill="#14A9AC"/>
<path d="M83.2031 94.6412C83.213 94.5129 83.2196 94.3846 83.2294 94.2563C83.4991 94.5326 83.7689 94.8089 84.0353 95.0852C83.6636 95.0655 83.3906 94.9208 83.2031 94.6412Z" fill="#14A9AC"/>
<path d="M113.318 57.9609L113.358 57.6846C113.631 57.8063 113.854 57.9806 114.052 58.3424C113.7 58.2635 113.496 58.1385 113.318 57.9609Z" fill="#14A9AC"/>
<path d="M116.67 64.618C116.67 64.5226 116.673 64.4272 116.676 64.3318C116.811 64.2167 116.946 64.0983 117.203 63.8779C117.058 64.2759 116.93 64.493 116.67 64.618Z" fill="#14A9AC"/>
<path d="M119.216 83.1292C119.147 83.0601 119.078 82.9877 119.012 82.9187C119.101 82.8266 119.179 82.718 119.281 82.6424C119.354 82.5898 119.436 82.5009 119.568 82.5634C119.522 82.7937 119.403 82.9812 119.216 83.1292Z" fill="#14A9AC"/>
<path d="M125.031 130.437C125.048 130.345 125.146 130.285 125.189 130.328C125.311 130.456 125.146 130.463 125.084 130.512C125.067 130.486 125.051 130.46 125.031 130.433V130.437Z" fill="#02A3A6"/>
<path d="M115.727 89.7238C115.746 89.6876 115.766 89.6514 115.786 89.6152C115.799 89.6448 115.832 89.6777 115.825 89.7008C115.812 89.7501 115.766 89.7534 115.717 89.7139L115.723 89.7238H115.727Z" fill="#02A3A6"/>
<path d="M63.9693 130.765C63.9299 130.719 63.9627 130.65 63.9924 130.67C64.1075 130.742 63.9956 130.736 63.9529 130.752L63.9693 130.765Z" fill="#02A3A6"/>
<path d="M84.2236 95.3022L84.24 95.3417L84.1973 95.3351L84.2236 95.3022Z" fill="#14A9AC"/>
</g>
</g>
<defs>
<clipPath id="clip0_4933_36440">
<rect width="192" height="192" fill="white"/>
</clipPath>
<clipPath id="clip1_4933_36440">
<rect width="124" height="88.8064" fill="white" transform="translate(34 51.5967)"/>
</clipPath>
</defs>
</svg>
