<svg width="192" height="192" viewBox="0 0 192 192" fill="none" xmlns="http://www.w3.org/2000/svg">
<g clip-path="url(#clip0_5170_52241)">
<path d="M96 192C149.019 192 192 149.019 192 96C192 42.9807 149.019 0 96 0C42.9807 0 0 42.9807 0 96C0 149.019 42.9807 192 96 192Z" fill="white"/>
<path d="M10.612 81.248H18.452C21.204 81.248 23.284 81.7813 24.692 82.848C26.1 83.8933 26.804 85.4293 26.804 87.456C26.804 88.5867 26.516 89.568 25.94 90.4C25.3853 91.232 24.5853 91.8507 23.54 92.256C24.756 92.576 25.6947 93.184 26.356 94.08C27.0173 94.976 27.348 96.064 27.348 97.344C27.348 99.4987 26.6547 101.141 25.268 102.272C23.9027 103.403 21.908 103.979 19.284 104H10.612V81.248ZM19.22 100.48C20.372 100.48 21.268 100.203 21.908 99.648C22.548 99.0933 22.868 98.3147 22.868 97.312C22.868 95.072 21.7053 93.952 19.38 93.952H15.06V100.48H19.22ZM18.612 90.816C19.8493 90.816 20.7773 90.56 21.396 90.048C22.0147 89.536 22.324 88.8 22.324 87.84C22.324 86.752 22.0147 85.9733 21.396 85.504C20.7773 85.0133 19.796 84.768 18.452 84.768H15.06V90.816H18.612ZM35.6598 104.32C34.5931 104.32 33.6224 104.107 32.7478 103.68C31.8731 103.232 31.1798 102.624 30.6678 101.856C30.1771 101.067 29.9318 100.203 29.9318 99.264C29.9318 97.472 30.6038 96.096 31.9478 95.136C33.3131 94.176 35.2544 93.696 37.7718 93.696H39.8838V92.64C39.8838 91.7653 39.6598 91.0933 39.2118 90.624C38.7638 90.1547 38.1024 89.92 37.2278 89.92C36.4384 89.92 35.8091 90.1227 35.3398 90.528C34.8704 90.912 34.6358 91.4347 34.6358 92.096H30.3478C30.3478 91.1147 30.6464 90.2187 31.2438 89.408C31.8624 88.5973 32.7051 87.9573 33.7718 87.488C34.8598 87.0187 36.0864 86.784 37.4518 86.784C39.5211 86.784 41.1531 87.296 42.3478 88.32C43.5424 89.3227 44.1611 90.72 44.2038 92.512V100.096C44.2038 101.632 44.4171 102.848 44.8438 103.744V104H40.4918C40.3211 103.616 40.1718 103.072 40.0438 102.368C38.9344 103.669 37.4731 104.32 35.6598 104.32ZM34.2838 98.944C34.2838 99.584 34.4971 100.096 34.9238 100.48C35.3504 100.864 35.9158 101.056 36.6198 101.056C37.3238 101.056 37.9744 100.885 38.5718 100.544C39.1691 100.181 39.6064 99.744 39.8838 99.232V96.224H38.0598C35.5424 96.224 34.2838 97.1307 34.2838 98.944ZM49.5573 110.816C49.0026 110.795 48.3519 110.709 47.6053 110.56V107.328C47.7546 107.349 47.9893 107.36 48.3093 107.36C49.1413 107.381 49.7813 107.243 50.2293 106.944C50.6773 106.645 51.0293 106.123 51.2853 105.376L51.8293 104.032L45.8773 87.104H50.5173L53.8133 97.888L54.0052 97.184L57.0773 87.104H61.6853L54.8373 106.752L54.5493 107.456C53.5679 109.696 51.9039 110.816 49.5573 110.816ZM68.3785 104.32C67.3118 104.32 66.3412 104.107 65.4665 103.68C64.5918 103.232 63.8985 102.624 63.3865 101.856C62.8958 101.067 62.6505 100.203 62.6505 99.264C62.6505 97.472 63.3225 96.096 64.6665 95.136C66.0318 94.176 67.9732 93.696 70.4905 93.696H72.6025V92.64C72.6025 91.7653 72.3785 91.0933 71.9305 90.624C71.4825 90.1547 70.8212 89.92 69.9465 89.92C69.1572 89.92 68.5278 90.1227 68.0585 90.528C67.5892 90.912 67.3545 91.4347 67.3545 92.096H63.0665C63.0665 91.1147 63.3652 90.2187 63.9625 89.408C64.5812 88.5973 65.4238 87.9573 66.4905 87.488C67.5785 87.0187 68.8052 86.784 70.1705 86.784C72.2398 86.784 73.8718 87.296 75.0665 88.32C76.2612 89.3227 76.8798 90.72 76.9225 92.512V100.096C76.9225 101.632 77.1358 102.848 77.5625 103.744V104H73.2105C73.0398 103.616 72.8905 103.072 72.7625 102.368C71.6532 103.669 70.1918 104.32 68.3785 104.32ZM67.0025 98.944C67.0025 99.584 67.2158 100.096 67.6425 100.48C68.0692 100.864 68.6345 101.056 69.3385 101.056C70.0425 101.056 70.6932 100.885 71.2905 100.544C71.8878 100.181 72.3252 99.744 72.6025 99.232V96.224H70.7785C68.2612 96.224 67.0025 97.1307 67.0025 98.944ZM86.1748 104.32C82.9961 104.32 81.4068 102.677 81.4068 99.392V90.176H78.8788V87.104H81.4068V82.944H85.7268V87.104H88.6708V90.176H85.7268V99.008C85.7268 99.6693 85.8548 100.149 86.1108 100.448C86.3668 100.725 86.8254 100.864 87.4868 100.864C87.7854 100.864 88.2334 100.821 88.8308 100.736V103.936C87.9774 104.192 87.0921 104.32 86.1748 104.32ZM96.7458 101.376L108.234 84.768H96.7778V81.248H113.738V83.808L102.282 100.48H114.026V104H96.7458V101.376ZM117.016 87.104H121.368V104H117.016V87.104ZM116.76 82.688C116.76 82.048 116.973 81.5253 117.4 81.12C117.848 80.6933 118.445 80.48 119.192 80.48C119.917 80.48 120.504 80.6933 120.952 81.12C121.4 81.5253 121.624 82.048 121.624 82.688C121.624 83.328 121.4 83.8613 120.952 84.288C120.504 84.6933 119.917 84.896 119.192 84.896C118.445 84.896 117.848 84.6933 117.4 84.288C116.973 83.8613 116.76 83.328 116.76 82.688ZM133.743 104.32C131.844 104.32 130.351 103.605 129.263 102.176L129.039 104H125.135V80H129.487V88.64C130.532 87.4027 131.93 86.784 133.679 86.784C135.748 86.784 137.37 87.552 138.543 89.088C139.716 90.6027 140.303 92.7253 140.303 95.456V95.712C140.303 98.4 139.716 100.512 138.543 102.048C137.37 103.563 135.77 104.32 133.743 104.32ZM129.487 99.04C130.084 100.277 131.13 100.896 132.623 100.896C133.796 100.896 134.639 100.448 135.151 99.552C135.684 98.6347 135.951 97.2373 135.951 95.36C135.951 91.9253 134.831 90.208 132.591 90.208C131.93 90.208 131.322 90.3787 130.767 90.72C130.212 91.04 129.786 91.488 129.487 92.064V99.04ZM148.16 104.32C147.093 104.32 146.122 104.107 145.248 103.68C144.373 103.232 143.68 102.624 143.168 101.856C142.677 101.067 142.432 100.203 142.432 99.264C142.432 97.472 143.104 96.096 144.448 95.136C145.813 94.176 147.754 93.696 150.272 93.696H152.384V92.64C152.384 91.7653 152.16 91.0933 151.712 90.624C151.264 90.1547 150.602 89.92 149.728 89.92C148.938 89.92 148.309 90.1227 147.84 90.528C147.37 90.912 147.136 91.4347 147.136 92.096H142.848C142.848 91.1147 143.146 90.2187 143.744 89.408C144.362 88.5973 145.205 87.9573 146.272 87.488C147.36 87.0187 148.586 86.784 149.952 86.784C152.021 86.784 153.653 87.296 154.848 88.32C156.042 89.3227 156.661 90.72 156.704 92.512V100.096C156.704 101.632 156.917 102.848 157.344 103.744V104H152.992C152.821 103.616 152.672 103.072 152.544 102.368C151.434 103.669 149.973 104.32 148.16 104.32ZM146.784 98.944C146.784 99.584 146.997 100.096 147.424 100.48C147.85 100.864 148.416 101.056 149.12 101.056C149.824 101.056 150.474 100.885 151.072 100.544C151.669 100.181 152.106 99.744 152.384 99.232V96.224H150.56C148.042 96.224 146.784 97.1307 146.784 98.944ZM162.057 110.816C161.503 110.795 160.852 110.709 160.105 110.56V107.328C160.255 107.349 160.489 107.36 160.809 107.36C161.641 107.381 162.281 107.243 162.729 106.944C163.177 106.645 163.529 106.123 163.785 105.376L164.329 104.032L158.377 87.104H163.017L166.313 97.888L166.505 97.184L169.577 87.104H174.185L167.337 106.752L167.049 107.456C166.068 109.696 164.404 110.816 162.057 110.816ZM176.297 87.104H180.649V104H176.297V87.104ZM176.041 82.688C176.041 82.048 176.255 81.5253 176.681 81.12C177.129 80.6933 177.727 80.48 178.473 80.48C179.199 80.48 179.785 80.6933 180.233 81.12C180.681 81.5253 180.905 82.048 180.905 82.688C180.905 83.328 180.681 83.8613 180.233 84.288C179.785 84.6933 179.199 84.896 178.473 84.896C177.727 84.896 177.129 84.6933 176.681 84.288C176.255 83.8613 176.041 83.328 176.041 82.688Z" fill="black"/>
</g>
<defs>
<clipPath id="clip0_5170_52241">
<rect width="192" height="192" fill="white"/>
</clipPath>
</defs>
</svg>
