<svg width="192" height="192" viewBox="0 0 192 192" fill="none" xmlns="http://www.w3.org/2000/svg">
<g clip-path="url(#clip0_4929_36290)">
<path d="M96 192C149.019 192 192 149.019 192 96C192 42.9807 149.019 0 96 0C42.9807 0 0 42.9807 0 96C0 149.019 42.9807 192 96 192Z" fill="white"/>
<path d="M71.3391 119.76V167.01H69.3191C56.4991 160.49 43.6691 154.03 30.8891 147.43C28.7091 146.3 26.2991 145.29 24.8491 143.43C24.0191 142.35 23.5091 140.99 23.5491 139.16C23.5791 124.82 23.6191 110.45 23.6491 96.0996L71.3391 119.76Z" fill="#A7228C"/>
<path d="M70.96 71.7194L23.65 95.9494C23.59 80.3494 23.52 64.7594 23.5 49.1594C23.5 48.8994 23.71 48.6294 23.9 48.3594L70.96 71.7194Z" fill="#0366AF"/>
<path d="M71.3384 25.04V71.53L70.9584 71.72L23.8984 48.36C23.9484 48.28 24.0084 48.21 24.0484 48.13C24.4684 46.78 25.7484 46.5 26.8084 45.96C39.0884 39.76 51.3684 33.56 63.6784 27.41C66.0884 26.2 68.5484 25.04 71.3384 25.04Z" fill="#F0018C"/>
<path d="M166.23 72.3796L119.56 95.8396H119.55L119.11 95.6196C119.17 95.5896 119.23 95.5596 119.29 95.5296C118.9 95.4196 118.52 95.2796 118.14 95.1296H118.13L99.0398 85.6596L96.6298 84.4596C90.1198 81.1996 83.6098 77.9496 77.0698 74.7496L76.9198 74.6796L71.3398 71.9096V25.0396C71.4798 25.0396 71.6098 25.0396 71.7498 25.0496C74.3198 24.7296 76.5298 25.7796 78.7198 26.8796C92.1298 33.6296 105.55 40.3796 118.96 47.1296C132.77 54.0796 146.57 61.0396 160.38 67.9996C161.83 68.7396 163.35 69.4296 164.58 70.5196C165.21 71.0896 165.76 71.7096 166.23 72.3796Z" fill="#A9248E"/>
<path d="M168.49 94.3399C168.49 100.85 168.5 107.36 168.5 113.87V116.32C167.73 120.29 165.07 122.48 161.59 124.22C148.06 130.95 134.54 137.67 121.02 144.41C107.32 151.24 93.6298 158.07 79.9498 164.93C77.8498 165.98 75.5798 166.27 73.4198 167.01H71.3398V120.06L71.5698 119.95C71.5698 119.95 71.5999 119.97 71.6199 119.99C71.6499 120.04 71.6698 120.11 71.7098 120.18C71.7598 120.12 71.8099 120.07 71.8699 120.02C72.0499 119.83 72.2398 119.67 72.4398 119.51L119.55 95.8399H119.56L166.23 72.3799C167.37 73.9999 168.04 75.8999 168.37 77.9199C168.46 78.4799 168.5 79.0599 168.5 79.6999C168.48 81.3299 168.49 82.9499 168.49 84.5799V94.3399Z" fill="#EA028C"/>
<path d="M71.3384 71.9097V119.76L23.6484 96.0997V95.9497L70.9584 71.7197L71.3384 71.9097Z" fill="#02ACEF"/>
</g>
<defs>
<clipPath id="clip0_4929_36290">
<rect width="192" height="192" fill="white"/>
</clipPath>
</defs>
</svg>
