<svg width="192" height="192" viewBox="0 0 192 192" fill="none" xmlns="http://www.w3.org/2000/svg">
<g clip-path="url(#clip0_4933_36489)">
<path d="M96 192C149.019 192 192 149.019 192 96C192 42.9807 149.019 0 96 0C42.9807 0 0 42.9807 0 96C0 149.019 42.9807 192 96 192Z" fill="white"/>
<path d="M94.9298 51.235L76.5458 94.2385H64.5204L82.9349 53.9341H59.4844V45.167H94.9298V51.235Z" fill="#8200FF"/>
<path d="M106.275 70.9404C108.656 70.9404 110.487 71.4883 111.769 72.5842C113.051 73.6801 113.702 75.2529 113.702 77.3026C113.702 78.1651 113.54 79.0073 113.214 79.8293C112.888 80.6512 112.39 81.5137 111.708 82.4066C111.027 83.3097 109.928 84.5071 108.422 86.019L105.573 89.2965H114.241V93.2235H98.8689V89.9054L105.95 82.4777C107.69 80.499 108.565 78.9262 108.565 77.7593C108.565 76.8156 108.361 76.0951 107.944 75.5979C107.527 75.1007 106.927 74.8572 106.143 74.8572C105.36 74.8572 104.739 75.192 104.251 75.8414C103.763 76.501 103.529 77.3229 103.529 78.3072H98.4111C98.4111 76.9576 98.7468 75.7197 99.4285 74.5731C100.1 73.4366 101.046 72.5436 102.247 71.8942C103.447 71.2549 104.79 70.9302 106.275 70.9302M106.275 69.9155C104.627 69.9155 103.111 70.2808 101.768 71.0013C100.405 71.7319 99.3267 72.7567 98.5637 74.0556C97.8007 75.3442 97.4141 76.775 97.4141 78.3072V79.3219H104.566V78.3072C104.566 77.536 104.739 76.9272 105.095 76.4401C105.39 76.0444 105.716 75.8719 106.164 75.8719C106.794 75.8719 107.049 76.085 107.181 76.2473C107.435 76.5517 107.568 77.0591 107.568 77.7491C107.568 78.2565 107.262 79.464 105.207 81.7978L98.1568 89.1951L97.8719 89.4893V94.228H115.279V88.2717H107.822L109.185 86.709C110.732 85.1565 111.83 83.949 112.542 83.0155C113.275 82.0515 113.824 81.0977 114.18 80.1946C114.547 79.261 114.73 78.2869 114.73 77.2925C114.73 74.9384 113.957 73.0916 112.441 71.8029C110.976 70.5548 108.9 69.9155 106.286 69.9155H106.275Z" fill="#8200FF"/>
<path d="M130.274 71.2653V84.6494H132.512V88.5763H130.274V93.2338H125.177V88.5763H116.661L116.356 85.4713L125.177 71.316V71.2755H130.274M121.209 84.6595H125.177V77.9015L124.861 78.419L121.219 84.6697M131.301 70.2709H124.17V71.0421L115.501 84.9436L115.318 85.2379L115.349 85.5829L115.654 88.6879L115.746 89.6012H124.17V94.2587H131.301V89.6012H133.54V83.6448H131.301V70.2607V70.2709ZM122.989 83.6549L124.17 81.6357V83.6549H122.989Z" fill="#8200FF"/>
<path d="M102.815 53.5982L85.6992 94.0503L86.6366 94.4448L103.752 53.9927L102.815 53.5982Z" fill="#8200FF"/>
<path d="M150 113.281V102.673H63.2503V104.235C63.2503 104.605 62.9506 104.904 62.5794 104.904C62.2082 104.904 61.9086 104.605 61.9086 104.235V102.673H42V113.281C47.3757 114.347 51.4232 119.079 51.4232 124.753C51.4232 130.427 47.3757 135.16 42 136.226V146.833H61.9086V145.272C61.9086 144.902 62.2082 144.603 62.5794 144.603C62.9506 144.603 63.2503 144.902 63.2503 145.272V146.833H150V136.226C144.624 135.16 140.577 130.427 140.577 124.753C140.577 119.079 144.624 114.347 150 113.281ZM63.2503 142.114C63.2503 142.484 62.9506 142.783 62.5794 142.783C62.2082 142.783 61.9086 142.484 61.9086 142.114V138.956C61.9086 138.586 62.2082 138.287 62.5794 138.287C62.9506 138.287 63.2503 138.586 63.2503 138.956V142.114ZM63.2503 135.802C63.2503 136.172 62.9506 136.471 62.5794 136.471C62.2082 136.471 61.9086 136.172 61.9086 135.802V132.644C61.9086 132.274 62.2082 131.975 62.5794 131.975C62.9506 131.975 63.2503 132.274 63.2503 132.644V135.802ZM63.2503 129.491C63.2503 129.861 62.9506 130.16 62.5794 130.16C62.2082 130.16 61.9086 129.861 61.9086 129.491V126.332C61.9086 125.962 62.2082 125.663 62.5794 125.663C62.9506 125.663 63.2503 125.962 63.2503 126.332V129.491ZM63.2503 123.179C63.2503 123.549 62.9506 123.848 62.5794 123.848C62.2082 123.848 61.9086 123.549 61.9086 123.179V120.021C61.9086 119.65 62.2082 119.352 62.5794 119.352C62.9506 119.352 63.2503 119.65 63.2503 120.021V123.179ZM63.2503 116.867C63.2503 117.237 62.9506 117.536 62.5794 117.536C62.2082 117.536 61.9086 117.237 61.9086 116.867V113.709C61.9086 113.339 62.2082 113.04 62.5794 113.04C62.9506 113.04 63.2503 113.339 63.2503 113.709V116.867ZM63.2503 110.555C63.2503 110.925 62.9506 111.224 62.5794 111.224C62.2082 111.224 61.9086 110.925 61.9086 110.555V107.397C61.9086 107.027 62.2082 106.728 62.5794 106.728C62.9506 106.728 63.2503 107.027 63.2503 107.397V110.555ZM136.771 124.762C136.771 131.043 140.586 136.614 146.194 139.009V143.046H66.9578V106.465H146.199V110.506C140.59 112.902 136.775 118.473 136.775 124.753L136.771 124.762Z" fill="#8200FF"/>
<path d="M122.65 111.893L121.51 110.729L116.926 115.564L118.062 116.724L122.65 111.893Z" fill="#8200FF"/>
<path d="M129.654 123.411C129.229 122.545 128.625 121.858 127.843 121.359L124.274 119.021L127.816 115.359L124.533 112.241L119.216 117.879V121.412L124.895 125.181C125.293 125.422 125.495 125.735 125.495 126.118C125.495 126.502 125.383 126.787 125.155 126.975C124.927 127.166 124.658 127.26 124.345 127.26H115.226C115.052 127.26 114.918 127.207 114.824 127.104C114.73 127.001 114.681 126.863 114.681 126.689V121.751H109.886V126.689C109.886 126.863 109.837 127.001 109.743 127.104C109.649 127.207 109.511 127.26 109.341 127.26H106.474C106.3 127.26 106.165 127.207 106.071 127.104C105.978 127.001 105.928 126.863 105.928 126.689V121.024H101.134V126.743C101.134 126.917 101.085 127.055 100.991 127.157C100.897 127.26 100.758 127.314 100.588 127.314C100.418 127.314 100.28 127.26 100.186 127.157C100.092 127.055 100.043 126.917 100.043 126.743V121.751H95.2484V126.743C95.2484 126.917 95.1992 127.055 95.1053 127.157C95.0114 127.26 94.8727 127.314 94.7028 127.314C94.5328 127.314 94.3942 127.26 94.3003 127.157C94.2063 127.055 94.1571 126.917 94.1571 126.743V121.751H89.3628V126.689C89.3628 126.863 89.3136 127.001 89.2197 127.104C89.1258 127.207 88.9916 127.26 88.8172 127.26H86.7331C86.5587 127.26 86.4245 127.207 86.3306 127.104C86.2367 127.001 86.1875 126.863 86.1875 126.689V117.853H81.4468V119.673H80.4316C79.3001 119.673 78.267 119.918 77.3323 120.413C76.3975 120.908 75.6462 121.591 75.0916 122.465C74.5371 123.339 74.2598 124.325 74.2598 125.413C74.2598 126.502 74.5371 127.519 75.0916 128.456C75.6462 129.392 76.3975 130.137 77.3457 130.69C78.2938 131.243 79.3224 131.52 80.4316 131.52C81.4781 131.52 82.4218 131.266 83.2715 130.771C83.5398 131.087 83.8529 131.364 84.2107 131.6C84.9218 132.069 85.7671 132.301 86.7376 132.301H88.8217C90.0516 132.301 91.022 131.939 91.7376 131.221C92.4621 131.975 93.4505 132.35 94.7117 132.35C95.9729 132.35 96.9345 131.979 97.6545 131.243C98.3746 131.979 99.354 132.35 100.597 132.35C101.841 132.35 102.847 131.975 103.571 131.221C104.287 131.939 105.257 132.301 106.487 132.301H109.354C109.98 132.301 110.521 132.234 110.982 132.091C111.443 131.953 111.881 131.725 112.297 131.417C112.713 131.73 113.151 131.953 113.612 132.091C114.072 132.229 114.614 132.301 115.24 132.301H124.31C125.405 132.301 126.407 132.028 127.319 131.484C128.232 130.94 128.956 130.204 129.493 129.276C130.03 128.348 130.302 127.331 130.302 126.221C130.302 125.217 130.088 124.28 129.663 123.415L129.654 123.411ZM81.4334 125.413C81.4334 125.726 81.3439 125.98 81.1606 126.181C80.9772 126.381 80.7312 126.479 80.4182 126.479C80.0872 126.479 79.8278 126.381 79.6355 126.181C79.4432 125.98 79.3493 125.726 79.3493 125.413C79.3493 125.119 79.4432 124.887 79.6355 124.713C79.8278 124.539 80.0872 124.454 80.4182 124.454H81.4334V125.418V125.413Z" fill="#8200FF"/>
<path d="M98.0261 115.02C99.1969 115.02 100.146 114.074 100.146 112.906C100.146 111.738 99.1969 110.792 98.0261 110.792C96.8554 110.792 95.9062 111.738 95.9062 112.906C95.9062 114.074 96.8554 115.02 98.0261 115.02Z" fill="#8200FF"/>
<path d="M95.6707 118.839C96.8414 118.839 97.7906 117.892 97.7906 116.724C97.7906 115.556 96.8414 114.61 95.6707 114.61C94.4999 114.61 93.5508 115.556 93.5508 116.724C93.5508 117.892 94.4999 118.839 95.6707 118.839Z" fill="#8200FF"/>
<path d="M100.38 118.839C101.55 118.839 102.5 117.892 102.5 116.724C102.5 115.556 101.55 114.61 100.38 114.61C99.2089 114.61 98.2598 115.556 98.2598 116.724C98.2598 117.892 99.2089 118.839 100.38 118.839Z" fill="#8200FF"/>
<path d="M108.571 138.777C109.742 138.777 110.691 137.831 110.691 136.663C110.691 135.495 109.742 134.549 108.571 134.549C107.4 134.549 106.451 135.495 106.451 136.663C106.451 137.831 107.4 138.777 108.571 138.777Z" fill="#8200FF"/>
<path d="M113.276 138.777C114.447 138.777 115.396 137.831 115.396 136.663C115.396 135.495 114.447 134.549 113.276 134.549C112.105 134.549 111.156 135.495 111.156 136.663C111.156 137.831 112.105 138.777 113.276 138.777Z" fill="#8200FF"/>
</g>
<defs>
<clipPath id="clip0_4933_36489">
<rect width="192" height="192" fill="white"/>
</clipPath>
</defs>
</svg>
