<svg width="192" height="192" viewBox="0 0 192 192" fill="none" xmlns="http://www.w3.org/2000/svg">
<g clip-path="url(#clip0_4934_36511)">
<path d="M96 192C149.019 192 192 149.019 192 96C192 42.9807 149.019 0 96 0C42.9807 0 0 42.9807 0 96C0 149.019 42.9807 192 96 192Z" fill="white"/>
<g clip-path="url(#clip1_4934_36511)">
<path d="M100.942 88.5232C104.641 78.2959 114.865 73.305 123.865 73.2833C133.673 73.2615 142.748 79.1345 146.124 87.8151C148.599 94.1818 147.155 100.058 144.021 105.915C139.052 115.202 130.62 120.124 121.682 124.519C120.02 125.336 118.241 126.569 116.557 126.5C114.927 126.435 113.641 124.55 112.2 123.472C110.091 121.891 108.029 120.245 105.951 118.624C105.917 118.596 105.914 118.531 105.87 118.413C108.635 117.677 111.088 116.338 113.52 114.506C109.821 112.832 106.777 110.589 104.349 107.571C101.914 104.549 100.286 101.167 99.895 96.8062C98.7521 99.4181 97.5284 101.474 95.7861 103.192C91.2113 107.701 85.5557 109.406 79.307 109.614C78.5461 109.639 78.3225 109.329 78.338 108.611C78.3722 107.061 78.3473 105.512 78.3473 103.931C77.6237 103.878 77.3069 104.434 76.8969 104.76C72.6731 108.136 67.7567 109.403 62.4676 109.627C61.393 109.673 61.157 109.263 61.2036 108.291C61.275 106.853 61.2222 105.412 61.2222 103.974C60.6383 103.825 60.4209 104.282 60.1383 104.512C56.9425 107.142 53.2777 108.689 49.203 109.298C48.5849 109.391 48.0476 109.363 47.8799 110.239C46.3115 118.478 40.9106 122.795 33.0624 124.541C31.1431 124.969 29.1864 125.146 27.2174 125.18C26.4503 125.193 26.1149 124.957 26.1273 124.115C26.1801 120.236 26.1894 116.357 26.1801 112.478C26.1801 111.673 26.4223 111.608 27.1895 111.714C32.1121 112.397 34.5128 110.254 34.5314 105.291C34.5594 97.1199 34.637 88.9486 34.6215 80.7774C34.6215 79.3643 34.9103 78.7773 36.485 78.8301C40.2056 78.9513 43.9325 78.9202 47.6563 78.8394C48.8551 78.8115 49.116 79.1966 49.0974 80.3271C49.0166 85.1845 49.026 90.045 49.0073 94.9024C49.0073 95.1011 49.0632 95.2999 49.0943 95.5018C51.2745 94.9676 52.2342 93.8123 52.2715 91.7407C52.3398 87.8647 52.4516 83.9919 52.4609 80.1159C52.4609 79.0506 52.7497 78.6873 53.8523 78.7059C57.4208 78.768 60.9924 78.796 64.5578 78.6966C65.9243 78.6593 66.3405 79.0196 66.266 80.4078C65.9895 85.4578 66.4585 90.5202 65.9461 95.5794C68.3717 94.9986 69.3748 93.8185 69.4152 91.5233C69.4804 87.7001 69.5736 83.877 69.5829 80.0507C69.5829 79.0879 69.7754 78.6842 70.8469 78.7028C74.6235 78.7649 78.4001 78.7494 82.1767 78.7121C83.0525 78.7028 83.3351 78.9792 83.332 79.8643C83.2979 85.0758 83.3165 90.2903 83.3165 95.4614C85.3383 95.157 86.6086 93.7501 86.6334 91.4923C86.6769 87.666 86.7421 83.8397 86.7049 80.0134C86.6956 78.914 87.0248 78.6127 88.1056 78.6283C91.7766 78.6904 95.4507 78.6842 99.1248 78.6283C100.156 78.6127 100.609 78.8301 100.557 79.9761C100.423 82.8148 100.681 85.6628 100.407 88.5014C100.314 88.8493 100.255 89.2002 100.488 89.6505C100.734 89.2654 100.991 88.9673 100.939 88.5201L100.942 88.5232ZM129.455 109.565C129.511 109.627 129.564 109.689 129.62 109.754C125.499 113.733 120.495 116.444 115.613 119.379C117.321 120.795 117.34 120.829 119.042 119.845C126.334 115.627 133.055 110.835 137.844 103.614C141.633 97.8994 141.844 91.0388 137.726 85.7373C132.055 78.4388 120.632 76.9605 113.032 82.5322C108.709 85.7031 106.187 89.9301 106.377 95.3185C106.619 102.17 111.42 107.776 118.135 109.652C121.924 110.711 125.691 110.475 129.459 109.565H129.455ZM43.1965 94.2781C43.1965 91.3867 43.1965 88.4921 43.1965 85.6007C43.1965 84.8863 43.3642 84.1751 42.1809 84.1565C40.9169 84.1347 41.0752 84.8894 41.0752 85.669C41.0566 92.1755 41.1032 98.6852 40.9914 105.192C40.8796 111.661 37.8825 116.667 31.5033 117.581C30.7021 117.695 29.9256 117.795 30.2113 118.935C30.494 120.071 31.3791 119.581 31.9692 119.484C38.4043 118.419 42.7089 113.351 42.9697 106.813C43.1375 102.633 43.1406 98.4553 43.1996 94.2781H43.1965ZM77.692 88.5853C77.692 87.2405 77.664 85.8988 77.7013 84.554C77.7231 83.7683 77.605 83.2744 76.6298 83.3148C75.6981 83.3521 75.5521 83.8055 75.5646 84.6099C75.6049 87.0386 75.6577 89.4704 75.5552 91.896C75.4031 95.5173 73.9278 98.4864 70.8066 100.477C69.1729 101.521 67.3312 102.042 65.4088 102.238C64.7255 102.306 64.3249 102.505 64.5516 103.307C64.6882 103.785 64.5702 104.378 65.4057 104.257C70.6357 103.493 74.8037 101.288 76.8845 96.0732C77.8566 93.6352 77.7013 91.1103 77.692 88.5884V88.5853ZM60.5855 88.5542C60.5855 87.4175 60.598 86.2839 60.5793 85.1503C60.5669 84.377 60.8713 83.4732 59.4613 83.5012C58.1227 83.526 58.4705 84.3708 58.4674 85.0851C58.4581 87.3026 58.5326 89.5263 58.4488 91.7407C58.309 95.3434 56.9021 98.3373 53.8461 100.4C52.1938 101.515 50.3273 102.083 48.3427 102.275C47.6346 102.344 47.1967 102.639 47.3271 103.477C47.4265 104.117 47.7029 104.394 48.3551 104.294C53.579 103.502 57.7407 101.251 59.7532 96.0329C60.6849 93.6135 60.688 91.0916 60.5855 88.5604V88.5542ZM95.0034 89.5139C94.8078 88.0449 94.7457 86.1379 94.8078 84.2341C94.8388 83.2651 94.2146 83.3241 93.5748 83.3366C92.9381 83.349 92.6213 83.6099 92.7238 84.2993C93.022 86.2994 92.8449 88.3182 92.848 90.3245C92.8636 97.123 89.4628 101.132 82.745 102.185C81.8444 102.325 81.6611 102.664 81.6984 103.477C81.745 104.468 82.3475 104.148 82.8817 104.102C90.3231 103.443 94.9941 97.9895 95.0034 89.517V89.5139Z" fill="#F58D2A"/>
<path d="M133.043 121.376C135.816 119.369 138.329 117.326 140.537 114.931C145.593 109.443 148.938 103.185 149.298 95.5886C149.438 92.6227 148.988 89.7095 148.097 86.8832C147.817 85.995 147.954 85.7652 148.882 85.6596C153.193 85.172 157.501 84.6347 161.799 84.0446C162.684 83.9235 162.706 84.3769 162.808 84.9763C163.908 91.5263 163.333 97.9614 161.42 104.282C158.715 113.22 153.429 120.413 146.32 126.351C145.836 126.755 145.45 127.112 144.696 126.761C140.997 125.037 137.27 123.382 133.552 121.699C133.416 121.637 133.295 121.537 133.043 121.376ZM157.522 93.4302C157.467 92.5792 157.411 91.5481 157.324 90.5201C157.258 89.7436 156.945 89.3275 156.032 89.4734C155.175 89.6132 155.162 90.0045 155.227 90.753C155.594 94.8557 155.187 98.8745 153.836 102.8C151.618 109.238 147.836 114.633 143.022 119.372C142.699 119.689 141.835 120.018 142.584 120.671C143.146 121.158 143.773 121.711 144.553 120.82C145.739 119.459 147.065 118.22 148.224 116.835C153.845 110.111 157.349 102.53 157.519 93.4302H157.522Z" fill="#F58D2A"/>
<path d="M91.1888 114.145C93.869 110.909 97.0555 110.018 100.273 111.549C102.606 112.658 104.047 115.189 103.643 117.466C103.071 120.708 100.689 122.463 96.2977 122.77C97.5121 124.537 98.1581 126.391 97.4437 128.466C96.9903 129.789 96.1114 130.795 94.9592 131.553C92.3006 133.308 88.6265 132.935 86.3873 130.715C84.2164 128.559 84.1356 125.966 86.2351 122.736C84.4182 122.745 82.7163 122.565 81.2286 121.522C79.7317 120.472 78.918 119.037 78.7006 117.257C78.4148 114.913 80.1572 112.366 82.6759 111.369C85.7848 110.139 88.7818 111.096 91.1919 114.142L91.1888 114.145ZM97.1301 115.217C96.2915 115.338 95.5399 115.742 95.4778 116.695C95.4157 117.649 96.0648 118.242 97.0089 118.292C98.0121 118.341 98.7202 117.86 98.7761 116.779C98.832 115.714 98.0773 115.394 97.127 115.217H97.1301ZM91.2509 128.258C92.1826 128.149 92.8721 127.705 92.8535 126.721C92.8348 125.655 92.0988 125.155 91.0925 125.227C90.167 125.289 89.4868 125.848 89.552 126.811C89.6142 127.749 90.3036 128.218 91.2509 128.258ZM85.2475 118.348C86.1668 118.242 86.8749 117.782 86.9059 116.835C86.9339 115.885 86.2662 115.313 85.3251 115.285C84.3189 115.257 83.6014 115.764 83.6076 116.838C83.6139 117.841 84.3251 118.239 85.2506 118.348H85.2475ZM91.2416 119.397C90.8068 119.81 90.4123 120.18 90.3036 120.841C90.8906 120.807 91.4186 120.773 92.1174 120.733C91.7571 120.18 91.5087 119.804 91.2447 119.397H91.2416Z" fill="#F58D2A"/>
<path d="M49.625 73.5005C46.572 77.2305 42.0563 77.8393 38.9847 74.9323C36.615 72.6899 36.6026 69.0842 38.9567 66.789C41.9724 63.8479 46.5409 64.379 49.7119 68.1245C51.2648 65.9846 53.296 64.7641 56.0073 64.8976C57.8459 64.9877 59.4112 65.6399 60.6752 67.0002C62.7871 69.2674 62.6318 72.7707 60.3118 74.9168C57.2371 77.7616 52.9357 77.1902 49.625 73.5005ZM45.4042 70.8576C45.28 69.8792 44.7334 69.3388 43.7799 69.3078C42.8203 69.2736 42.1246 69.8171 42.0625 70.7271C41.9941 71.752 42.7147 72.3452 43.724 72.3452C44.662 72.3452 45.2179 71.7675 45.4042 70.8576ZM57.2247 70.3948C57.1875 69.8047 56.6471 69.3047 55.6781 69.2985C54.6438 69.2923 54.0382 69.7892 54.0569 70.8793C54.0755 71.9321 54.8022 72.339 55.6781 72.3173C56.557 72.2986 57.2434 71.8452 57.2247 70.3948Z" fill="#F58D2A"/>
<path d="M61.0332 119.621C57.2348 123.385 52.8495 123.789 49.986 120.63C47.784 118.204 48.0853 114.738 50.6662 112.524C53.0514 110.477 57.9616 109.822 61.0487 114.251C62.4401 112.111 64.4122 110.971 66.9216 110.922C68.8006 110.884 70.4715 111.496 71.8287 112.853C74.2077 115.235 74.0555 118.745 71.4685 121.084C68.4776 123.786 64.1078 123.174 61.0332 119.621ZM67.0459 118.357C67.9497 118.248 68.6267 117.81 68.6205 116.819C68.6143 115.832 67.9093 115.313 67.0055 115.304C66.0148 115.294 65.2911 115.869 65.3315 116.919C65.3688 117.894 66.0862 118.31 67.049 118.357H67.0459ZM54.9894 118.36C56.0484 118.347 56.7224 117.798 56.7131 116.788C56.7037 115.829 55.9553 115.325 55.036 115.341C54.1291 115.357 53.4458 115.791 53.4427 116.838C53.4396 117.869 54.0545 118.285 54.9894 118.36Z" fill="#F58D2A"/>
<path d="M148.771 84.2059C145.73 84.2245 143.277 82.0629 143.233 79.3237C143.187 76.603 145.59 74.4135 148.687 74.3576C151.131 74.3141 154.258 76.485 153.923 78.2336C153.644 79.6995 154.349 81.4542 152.703 82.6437C151.488 83.5195 150.28 84.1842 148.771 84.2059ZM151.529 80.6436C151.817 80.2399 152.525 80.1063 152.426 79.4013C152.386 79.1094 152.153 78.9789 151.861 79.0907C151.361 79.2833 150.963 79.5628 151.053 80.1964C151.091 80.4573 151.122 80.7088 151.525 80.6467L151.529 80.6436ZM151.14 76.4322C150.609 76.2552 150.115 75.6465 149.705 76.1744C149.373 76.603 149.752 77.0968 150.128 77.7956C150.261 77.0161 150.553 76.6092 151.14 76.4291V76.4322Z" fill="#333E8F"/>
<path d="M161.199 81.998C160.783 81.998 160.363 82.0011 159.947 82.0042C159.845 81.9048 159.745 81.8054 159.643 81.706L159.652 81.7153C159.481 80.9296 158.776 80.6221 158.202 80.296C157.612 79.9575 157.106 80.178 157.189 81.0134C156.32 80.5724 155.82 79.8364 155.537 78.9295C156.043 78.6096 157.494 79.855 157.093 77.9915C157.078 77.9263 157.413 77.6903 157.571 77.6996C158.286 77.7524 158.491 77.1437 158.86 76.7617C160.125 75.4531 159.974 74.5162 158.407 73.951H158.41C158.73 73.746 159.301 73.4944 159.36 73.4075C160.019 72.4323 158.733 73.1373 158.68 72.69C160.04 71.9633 161.395 72.1403 162.742 72.7335C162.482 73.1963 161.528 73.4572 161.832 73.9479C162.314 74.7243 162.814 73.8081 163.32 73.6466C163.559 73.569 163.833 73.5969 164.087 73.5752C164.479 73.805 164.82 74.0814 164.991 74.5193C163.811 74.8175 162.391 74.8765 162.761 76.7337C162.233 76.6468 162.028 77.5319 161.395 77.1716C161.162 77.0381 160.777 77.0474 160.745 77.3207C160.708 77.6499 160.814 78.0723 161.013 78.3363C161.391 78.8394 163.687 78.2711 164.038 77.6313C164.538 77.6437 165.034 77.6561 165.535 77.6717C166.081 78.3052 165.603 78.7773 165.283 79.2742C163.556 78.6189 162.758 80.3799 161.429 80.7805C160.888 80.9451 161.463 81.6128 161.202 81.9949L161.199 81.998ZM160.292 80.7215C160.326 80.6967 160.363 80.6687 160.398 80.6439C160.367 80.6128 160.317 80.5476 160.308 80.5538C160.258 80.5879 160.214 80.6345 160.171 80.678C160.211 80.6935 160.252 80.7091 160.292 80.7246V80.7215Z" fill="#82A952"/>
<path d="M143.843 64.3137C143.797 63.8106 144.067 63.4534 144.39 63.1211C144.887 63.5404 145.511 63.6677 146.11 63.6615C150.322 63.6273 154.487 64.4597 158.698 64.3727C159.148 65.1305 159.092 65.9535 158.999 66.7797C153.906 66.2144 148.874 65.2578 143.84 64.3106L143.843 64.3137Z" fill="#F18028"/>
<path d="M143.524 68.0254C143.496 67.8018 143.468 67.5782 143.443 67.3576C143.723 66.5595 144.235 66.7085 144.788 67.0284C144.711 67.1527 144.13 67.2738 144.614 67.3856C145.667 67.6247 146.773 67.6341 147.857 67.7397C149.447 68.0161 151.152 67.7769 152.584 68.7739C152.599 69.3081 153.124 69.3298 153.413 69.5876C153.671 70.2149 154.223 70.4075 154.798 70.6653C155.568 71.01 156.447 70.5876 157.158 71.1032C157 71.4666 156.717 71.6902 156.345 71.8113C152.894 71.8082 149.444 71.802 145.993 71.7989C145.45 71.5131 145.006 71.128 144.779 70.5379C146.72 70.4634 148.627 71.038 150.577 70.8516C151.257 70.7864 151.972 70.8206 152.183 69.8485C150.838 70.4882 149.686 70.715 148.798 69.3329C149.298 69.0534 149.798 68.7708 150.512 68.3701C147.996 68.4695 145.748 68.4633 143.527 68.0254H143.524Z" fill="#C73129"/>
<path d="M156.839 61.5963C157.792 62.1212 158.199 63.0498 158.603 63.9815C154.053 63.4536 149.503 62.9256 144.953 62.4007C145.226 61.8262 145.661 61.4162 146.23 61.146C146.649 61.7019 147.264 61.5249 147.804 61.5311C149.866 61.556 151.935 61.6305 153.991 61.5032C154.957 61.4441 155.876 62.174 156.836 61.5932L156.839 61.5963Z" fill="#F18028"/>
<path d="M158.674 72.6934C158.727 73.1375 160.013 72.4325 159.354 73.4108C159.295 73.4977 158.724 73.7493 158.404 73.9512C158.373 73.7866 158.438 73.5537 158.165 73.5474C158.106 73.5474 157.991 73.6624 157.994 73.7214C158.003 73.9916 158.233 73.9263 158.401 73.9543C159.966 74.5175 160.117 75.4544 158.854 76.765C158.485 77.147 158.28 77.7557 157.565 77.7029C157.407 77.6905 157.075 77.9297 157.087 77.9949C157.488 79.8583 156.037 78.6129 155.531 78.9328C154.338 76.2339 155.752 73.4294 158.671 72.6965L158.674 72.6934Z" fill="#9DC568"/>
<path d="M143.843 64.314C148.875 65.2581 153.906 66.2147 159.002 66.783C159.002 66.9973 158.999 67.2147 158.996 67.429C156.117 67.1588 153.26 66.5843 150.347 66.8669C148.064 66.5408 145.775 66.2426 143.545 65.6184C143.533 65.1587 143.402 64.6711 143.843 64.314Z" fill="#F2D29D"/>
<path d="M145.99 71.7988C149.441 71.8019 152.891 71.8081 156.342 71.8112C153.413 74.3331 148.969 74.3269 145.99 71.7988Z" fill="#F18028"/>
<path d="M150.347 66.8636C153.261 66.5809 156.118 67.1586 158.997 67.4257C159.047 68.0406 158.857 68.5841 158.509 69.0811C157.559 68.9475 156.593 68.6463 155.661 68.7301C154.702 68.8171 153.73 67.8481 152.807 68.7736C152.733 68.755 152.655 68.755 152.58 68.7705C151.149 67.7704 149.444 68.0096 147.854 67.7332C147.854 67.5996 147.857 67.4661 147.86 67.3325H151.298C151 66.9878 150.524 67.2487 150.347 66.8605V66.8636Z" fill="#68201A"/>
<path d="M156.839 61.5961C155.882 62.1769 154.963 61.4439 153.994 61.506C151.938 61.6334 149.869 61.5588 147.807 61.534C147.267 61.5278 146.649 61.7048 146.232 61.1489C146.847 60.5743 147.531 60.1177 148.385 59.9873C150.907 60.2855 153.432 60.5836 155.957 60.8818C156.441 60.888 156.491 61.4253 156.842 61.5992L156.839 61.5961Z" fill="#DF3F29"/>
<path d="M144.954 62.4006C149.503 62.9285 154.053 63.4565 158.603 63.9814C158.637 64.1118 158.669 64.2423 158.703 64.3727C154.488 64.4597 150.327 63.6273 146.115 63.6615C145.516 63.6677 144.891 63.5404 144.395 63.1211C144.581 62.882 144.767 62.6397 144.954 62.3975V62.4006Z" fill="#C73129"/>
<path d="M148.795 69.3328C149.684 70.7149 150.836 70.4882 152.181 69.8484C151.973 70.8205 151.255 70.7863 150.575 70.8515C148.625 71.0379 146.718 70.4633 144.777 70.5379C144.55 70.2304 144.323 69.9229 144.1 69.6186C145.625 68.8701 147.23 69.3981 148.799 69.3328H148.795Z" fill="#DF3F29"/>
<path d="M162.758 76.7398C162.392 74.8825 163.808 74.8235 164.988 74.5254C165.69 75.4851 166.233 76.4727 165.532 77.6777C165.032 77.6653 164.535 77.6529 164.035 77.6373C163.705 77.2025 162.858 77.5038 162.758 76.7398Z" fill="#587C3D"/>
<path d="M150.348 66.8637C150.525 67.2551 151 66.9942 151.298 67.3358C150.108 67.3358 148.984 67.3358 147.86 67.3358C146.869 66.9041 145.804 67.2147 144.788 67.0252C144.235 66.7053 143.723 66.5563 143.443 67.3544C143.189 66.755 143.35 66.1836 143.549 65.6152C145.779 66.2395 148.068 66.5376 150.351 66.8637H150.348Z" fill="#F18028"/>
<path d="M148.794 69.3327C147.225 69.3948 145.623 68.87 144.095 69.6185C143.682 69.1681 143.582 68.606 143.523 68.0283C145.744 68.4662 147.993 68.4724 150.508 68.3731C149.794 68.7737 149.294 69.0532 148.794 69.3358V69.3327Z" fill="#F2D29D"/>
<path d="M161.198 81.998C161.456 81.616 160.882 80.9452 161.425 80.7837C162.754 80.383 163.556 78.6252 165.279 79.2774C164.459 80.9949 163.006 81.762 161.198 81.998Z" fill="#587C3D"/>
<path d="M155.953 60.8789C153.428 60.5808 150.906 60.2826 148.381 59.9845C151.064 58.944 153.595 59.1521 155.953 60.8789Z" fill="#68201A"/>
<path d="M157.156 71.103C156.444 70.5874 155.566 71.0098 154.795 70.665C154.221 70.4073 153.668 70.2147 153.41 69.5874C154.966 69.5221 156.513 69.606 158.05 69.8358C158.007 70.4383 157.603 70.7831 157.156 71.103Z" fill="#68201A"/>
<path d="M158.049 69.836C156.512 69.6062 154.965 69.5224 153.409 69.5876C153.12 69.3298 152.596 69.3081 152.58 68.7739C152.658 68.7584 152.732 68.7615 152.81 68.777C154.639 69.2087 156.509 69.2894 158.379 69.3826C158.382 69.6155 158.257 69.7553 158.052 69.836H158.049Z" fill="#F18028"/>
<path d="M158.375 69.3822C156.509 69.289 154.639 69.2083 152.807 68.7766C153.729 67.8511 154.701 68.817 155.661 68.7331C156.593 68.6493 157.558 68.9505 158.509 69.0841C158.462 69.1835 158.419 69.2828 158.375 69.3822Z" fill="#C73129"/>
<path d="M157.187 81.0132C157.103 80.1778 157.609 79.9573 158.199 80.2958C158.774 80.6219 159.479 80.9294 159.65 81.7151C159.336 81.7151 159.019 81.7151 158.706 81.7151H158.712C158.485 81.3859 158.15 81.3642 157.796 81.3859C157.594 81.2617 157.389 81.1343 157.187 81.0101V81.0132Z" fill="#587C3D"/>
<path d="M164.084 73.5785C163.826 73.6002 163.556 73.5723 163.317 73.6499C162.81 73.8114 162.307 74.7307 161.829 73.9512C161.525 73.4605 162.475 73.1996 162.739 72.7368C163.332 72.7865 163.73 73.153 164.087 73.5785H164.084Z" fill="#9DC568"/>
<path d="M100.94 88.523C100.99 88.9703 100.735 89.2684 100.49 89.6535C100.254 89.2001 100.316 88.8522 100.409 88.5044C100.586 88.5106 100.763 88.5168 100.944 88.523H100.94Z" fill="#F2D29D"/>
<path d="M157.795 81.3923C158.149 81.3705 158.484 81.3923 158.711 81.7215C158.342 81.796 158.046 81.6531 157.795 81.3923Z" fill="#82A952"/>
<path d="M158.704 81.7183C159.018 81.7183 159.335 81.7183 159.648 81.7183L159.639 81.709C159.645 81.7991 159.652 81.8891 159.655 81.9792C159.297 82.0351 158.962 82.0165 158.701 81.7183H158.704Z" fill="#82A952"/>
<path d="M159.658 81.9763C159.655 81.8862 159.649 81.7961 159.643 81.7061C159.745 81.8054 159.844 81.9048 159.947 82.0042L159.801 82.0291L159.661 81.9794L159.658 81.9763Z" fill="#587C3D"/>
<path d="M129.455 109.564C125.688 110.474 121.924 110.71 118.132 109.651C111.42 107.776 106.615 102.17 106.373 95.3184C106.184 89.9268 108.706 85.703 113.029 82.532C120.629 76.9603 132.052 78.4387 137.723 85.7372C141.841 91.0356 141.63 97.8993 137.841 103.614C133.052 110.838 126.331 115.627 119.038 119.844C117.337 120.829 117.318 120.795 115.61 119.379C120.495 116.444 125.498 113.735 129.617 109.754C129.744 109.667 130.055 109.67 129.915 109.443C129.812 109.276 129.582 109.415 129.452 109.564H129.455ZM108.662 94.865C108.653 97.5483 109.495 100.139 111.057 102.247C116.268 109.288 127.03 110.478 133.67 104.744C140.151 99.1478 140.285 90.5759 133.875 84.9017C130.347 81.7773 126.113 80.8922 121.473 81.3643C114.501 82.0755 108.684 88.1348 108.665 94.865H108.662Z" fill="#861A1B"/>
<path d="M43.1961 94.2778C43.1402 98.4582 43.1371 102.635 42.9663 106.813C42.7023 113.35 38.3978 118.416 31.9658 119.484C31.3757 119.58 30.4905 120.071 30.2079 118.934C29.9253 117.795 30.6986 117.695 31.4999 117.58C37.876 116.667 40.8762 111.661 40.988 105.191C41.0998 98.6849 41.0532 92.1753 41.0718 85.6687C41.0718 84.8892 40.9165 84.1345 42.1775 84.1562C43.3608 84.1749 43.193 84.8892 43.193 85.6004C43.193 88.4918 43.193 91.3864 43.193 94.2778H43.1961Z" fill="#871B1B"/>
<path d="M77.6887 88.5851C77.7011 91.107 77.8533 93.632 76.8812 96.07C74.8035 101.285 70.6356 103.49 65.4024 104.254C64.5669 104.375 64.685 103.782 64.5483 103.303C64.3216 102.502 64.7191 102.303 65.4055 102.235C67.3311 102.042 69.1697 101.517 70.8033 100.474C73.9246 98.4831 75.3967 95.514 75.552 91.8927C75.6545 89.4671 75.6017 87.0353 75.5613 84.6066C75.5489 83.8023 75.6948 83.3488 76.6266 83.3116C77.6018 83.2743 77.7198 83.765 77.698 84.5507C77.6577 85.8924 77.6887 87.2372 77.6887 88.582V88.5851Z" fill="#871B1B"/>
<path d="M60.5813 88.554C60.6869 91.0883 60.6838 93.6102 59.7489 96.0265C57.7364 101.244 53.5747 103.496 48.3509 104.288C47.6987 104.387 47.4222 104.111 47.3229 103.471C47.1955 102.632 47.6303 102.34 48.3384 102.269C50.323 102.076 52.1865 101.508 53.8418 100.393C56.901 98.334 58.3048 95.3401 58.4445 91.7343C58.5315 89.5199 58.4539 87.2962 58.4632 85.0787C58.4663 84.3644 58.1184 83.5227 59.457 83.4948C60.867 83.4668 60.5627 84.3706 60.5751 85.1439C60.5937 86.2775 60.5813 87.4142 60.5782 88.5478L60.5813 88.554Z" fill="#871B1B"/>
<path d="M95.0009 89.5139C94.9947 97.9864 90.3205 103.44 82.8792 104.098C82.345 104.145 81.7425 104.468 81.6959 103.474C81.6586 102.664 81.8418 102.325 82.7425 102.182C89.4602 101.129 92.861 97.123 92.8455 90.3214C92.8424 88.312 93.0194 86.2963 92.7213 84.2962C92.6188 83.6068 92.9356 83.3459 93.5722 83.3335C94.212 83.321 94.8394 83.2589 94.8052 84.231C94.7431 86.138 94.8052 88.0418 95.0009 89.5108V89.5139Z" fill="#871B1B"/>
<path d="M157.521 93.4304C157.35 102.53 153.847 110.111 148.226 116.835C147.067 118.22 145.741 119.46 144.555 120.82C143.775 121.711 143.148 121.158 142.586 120.671C141.837 120.019 142.704 119.689 143.023 119.373C147.837 114.633 151.62 109.239 153.838 102.8C155.189 98.8779 155.596 94.859 155.229 90.7532C155.161 90.0048 155.176 89.6134 156.033 89.4737C156.947 89.3246 157.26 89.7439 157.325 90.5203C157.412 91.5483 157.465 92.5763 157.524 93.4304H157.521Z" fill="#871B1B"/>
<path d="M97.1298 115.217C98.0802 115.394 98.8349 115.714 98.779 116.779C98.7231 117.86 98.0119 118.341 97.0118 118.291C96.0646 118.245 95.4186 117.652 95.4807 116.695C95.5428 115.745 96.2944 115.338 97.1329 115.217H97.1298Z" fill="#871B1B"/>
<path d="M91.2536 128.258C90.3063 128.218 89.6168 127.746 89.5547 126.811C89.4926 125.848 90.1728 125.289 91.0952 125.227C92.1014 125.159 92.8406 125.655 92.8561 126.721C92.8717 127.705 92.1822 128.149 91.2536 128.258Z" fill="#871B1B"/>
<path d="M85.2504 118.348C84.3249 118.239 83.6106 117.841 83.6075 116.838C83.6013 115.764 84.3187 115.257 85.3249 115.285C86.266 115.313 86.9368 115.885 86.9058 116.835C86.8778 117.779 86.1666 118.242 85.2473 118.348H85.2504Z" fill="#871B1B"/>
<path d="M91.2457 119.4C91.5128 119.807 91.7582 120.183 92.1184 120.736C91.4196 120.779 90.8917 120.81 90.3047 120.845C90.4134 120.183 90.8109 119.81 91.2426 119.4H91.2457Z" fill="#FEFDFC"/>
<path d="M45.401 70.8577C45.2115 71.7677 44.6556 72.3453 43.7208 72.3453C42.7083 72.3453 41.9909 71.7521 42.0592 70.7272C42.1213 69.8173 42.8201 69.2769 43.7767 69.3079C44.7301 69.3421 45.2767 69.8794 45.401 70.8577Z" fill="#871B1B"/>
<path d="M57.2249 70.3947C57.2436 71.8451 56.5572 72.2985 55.6783 72.3172C54.8055 72.3358 54.0757 71.9321 54.0571 70.8792C54.0384 69.7891 54.644 69.2922 55.6783 69.2984C56.6441 69.3046 57.1877 69.8046 57.2249 70.3947Z" fill="#871B1B"/>
<path d="M67.0453 118.357C66.0825 118.307 65.3651 117.894 65.3278 116.919C65.2874 115.869 66.011 115.295 67.0018 115.304C67.9087 115.313 68.6106 115.829 68.6168 116.819C68.623 117.81 67.9459 118.248 67.0422 118.357H67.0453Z" fill="#871B1B"/>
<path d="M54.9881 118.36C54.0502 118.285 53.4352 117.869 53.4415 116.838C53.4446 115.792 54.1278 115.36 55.0347 115.341C55.954 115.326 56.7025 115.826 56.7118 116.788C56.7211 117.798 56.0472 118.348 54.9881 118.36Z" fill="#871B1B"/>
<path d="M151.528 80.6441C151.124 80.7062 151.093 80.4546 151.056 80.1937C150.966 79.5602 151.363 79.2807 151.863 79.0881C152.152 78.9763 152.388 79.1067 152.429 79.3987C152.528 80.1037 151.82 80.2372 151.531 80.641L151.528 80.6441Z" fill="#9DC568"/>
<path d="M151.139 76.4323C150.552 76.6093 150.26 77.0193 150.126 77.7988C149.75 77.1 149.372 76.6031 149.704 76.1776C150.114 75.6496 150.608 76.2583 151.139 76.4354V76.4323Z" fill="#9DC568"/>
<path d="M162.757 76.7399C162.857 77.5039 163.705 77.2026 164.034 77.6374C163.683 78.2772 161.388 78.8456 161.009 78.3424C160.81 78.0785 160.705 77.6561 160.742 77.3269C160.773 77.0567 161.158 77.0473 161.391 77.1778C162.021 77.5349 162.229 76.6498 162.757 76.7399Z" fill="#9DC568"/>
<path d="M160.293 80.7217C160.253 80.7062 160.212 80.6907 160.172 80.6751C160.215 80.6316 160.259 80.5851 160.309 80.5509C160.315 80.5478 160.368 80.6099 160.399 80.641C160.364 80.6658 160.327 80.6938 160.293 80.7186V80.7217Z" fill="#587C3D"/>
<path d="M144.786 67.0283C145.802 67.2147 146.867 66.9072 147.858 67.3389C147.858 67.4724 147.854 67.606 147.851 67.7395C146.767 67.637 145.662 67.6277 144.609 67.3855C144.124 67.2737 144.705 67.1557 144.783 67.0283H144.786Z" fill="#871B1B"/>
<path d="M158.401 73.9508C158.233 73.9228 158.003 73.9881 157.994 73.7179C157.994 73.6589 158.106 73.5439 158.165 73.5439C158.438 73.5471 158.37 73.7831 158.404 73.9477L158.401 73.9508Z" fill="#82A952"/>
<path d="M108.661 94.8652C108.683 88.135 114.497 82.0757 121.469 81.3645C126.109 80.8924 130.339 81.7775 133.871 84.9019C140.281 90.5761 140.151 99.148 133.666 104.745C127.026 110.478 116.264 109.288 111.053 102.248C109.491 100.136 108.652 97.5485 108.658 94.8652H108.661ZM132.02 94.4024C131.998 94.2533 131.958 93.685 131.824 93.1384C130.802 88.9518 126.408 86.4237 121.758 87.3306C118.19 88.0263 115.348 91.101 115.208 94.4303C115.056 97.974 117.351 100.993 121.013 102.07C126.33 103.636 131.979 99.9151 132.02 94.4055V94.4024Z" fill="#F48C2A"/>
<path d="M129.455 109.564C129.586 109.412 129.815 109.275 129.918 109.443C130.058 109.67 129.747 109.667 129.62 109.754C129.567 109.692 129.511 109.626 129.455 109.564Z" fill="#F58D2A"/>
</g>
</g>
<defs>
<clipPath id="clip0_4934_36511">
<rect width="192" height="192" fill="white"/>
</clipPath>
<clipPath id="clip1_4934_36511">
<rect width="140" height="73.6207" fill="white" transform="translate(26 59.1895)"/>
</clipPath>
</defs>
</svg>
