<svg width="192" height="192" viewBox="0 0 192 192" fill="none" xmlns="http://www.w3.org/2000/svg">
<g clip-path="url(#clip0_4933_36458)">
<path d="M96 192C149.019 192 192 149.019 192 96C192 42.9807 149.019 0 96 0C42.9807 0 0 42.9807 0 96C0 149.019 42.9807 192 96 192Z" fill="white"/>
<g clip-path="url(#clip1_4933_36458)">
<path d="M98.0797 120.25C98.0797 118.419 98.0944 116.589 98.0699 114.753C98.0601 114.121 98.2608 113.642 98.7307 113.201C106.078 106.333 113.421 99.4607 120.749 92.5732C122.526 90.904 124.503 89.6117 126.951 89.2544C129.418 88.897 131.851 89.1026 134.181 90.0474C136.129 90.8404 137.632 92.1816 138.778 93.9341C139.213 94.5998 139.639 95.2704 140.07 95.9362C140.261 96.225 140.481 96.2935 140.726 95.9949C140.922 95.7551 141.103 95.4956 141.323 95.2753C141.734 94.8642 141.685 94.4579 141.445 93.9634C140.506 92.0103 139.106 90.4879 137.338 89.2544C135.855 88.2215 135.885 88.2019 137.182 86.9341C140.217 83.9579 143.242 80.9718 146.277 77.9907C146.473 77.7949 146.673 77.604 146.874 77.4131C147.148 77.1488 147.422 77.1635 147.696 77.4082C147.824 77.5208 147.961 77.6285 148.088 77.746C149.63 79.1313 151.172 80.5166 152.714 81.9068C153.331 82.4649 153.918 83.0474 154.442 83.6935C157.027 86.8753 156.894 91.0949 154.07 94.0662C151.999 96.2446 149.87 98.3739 147.785 100.538C143.682 104.801 139.262 108.727 134.959 112.775C134.406 113.294 133.873 113.838 133.3 114.337C132.825 114.753 132.517 114.66 132.287 114.077C132.071 113.539 132.203 112.986 132.248 112.438C132.399 110.607 132.14 108.854 131.322 107.2C130.569 105.673 129.413 104.61 127.793 104.033C125.82 103.333 124.043 103.641 122.477 105.012C120.602 106.647 118.752 108.311 116.901 109.975C110.969 115.316 105.109 120.735 99.3181 126.237C99.0342 126.506 98.7797 127.035 98.3342 126.859C97.8741 126.677 98.0944 126.124 98.0895 125.738C98.0699 123.907 98.0797 122.076 98.0797 120.24H98.0748L98.0797 120.25Z" fill="#21285B"/>
<path d="M86.4584 84.6778C86.4584 81.3246 86.4584 77.9764 86.4584 74.6232C86.4584 74.4861 86.4486 74.3442 86.4682 74.2071C86.5416 73.6785 86.7521 73.512 87.222 73.7421C89.8605 75.0197 92.6752 75.1519 95.5241 75.098C95.764 75.098 96.0087 75.0882 96.2486 75.1078C96.6011 75.1372 96.8213 75.333 96.8458 75.7001C96.8605 75.94 96.8556 76.1847 96.8556 76.4246C96.8556 82.6757 96.8458 88.9316 96.8752 95.1826C96.8752 96.054 96.6059 96.6659 95.9647 97.2533C90.1591 102.579 84.3829 107.93 78.5969 113.275C78.4941 113.368 78.4059 113.476 78.2934 113.554C77.8969 113.838 77.6276 113.74 77.6031 113.246C77.564 112.418 77.5934 111.586 77.5885 110.759C77.5738 108.287 76.6046 106.25 74.6612 104.743C72.4633 103.034 68.8262 103.22 66.457 105.12C65.6248 105.79 64.8563 106.539 64.0878 107.288C57.499 113.696 50.7486 119.932 44.1011 126.271C43.8073 126.55 43.5136 127.03 43.0829 126.864C42.5591 126.663 42.799 126.081 42.799 125.664C42.7892 122.14 42.985 118.616 42.7843 115.096C42.7451 114.367 43.078 113.857 43.5822 113.388C47.4787 109.716 51.3654 106.035 55.257 102.354C58.243 99.5295 61.2633 96.7393 64.2101 93.8757C67.1766 90.9924 70.7059 89.8176 74.7885 90.126C75.929 90.2141 77.0549 90.3512 78.1465 90.7134C80.8388 91.6141 82.7234 93.4694 84.1773 95.8288C84.285 96.005 84.3829 96.1861 84.4857 96.3673C85.0094 97.2875 85.1759 97.3071 85.871 96.5337C86.3066 96.0491 86.4927 95.4861 86.4927 94.8302C86.4829 91.4428 86.4878 88.0603 86.4878 84.6729C86.4731 84.6729 86.4633 84.6729 86.4486 84.6729L86.4584 84.6778Z" fill="#21285B"/>
<path d="M95.9007 127.965C114.801 127.965 133.701 127.965 152.601 127.965C153.154 127.965 153.702 127.95 154.255 128.058C155.748 128.352 156.243 129.419 155.455 130.736C154.422 132.459 152.88 133.487 150.946 133.952C150.236 134.123 149.507 134.128 148.783 134.128C141.597 134.128 134.41 134.128 127.22 134.128C99.3371 134.128 71.4497 134.128 43.5671 134.133C42.6322 134.133 41.7021 134.143 40.7818 133.942C38.8531 133.521 37.3846 132.444 36.3566 130.785C35.4853 129.375 35.9993 128.283 37.649 128.029C38.158 127.95 38.6818 127.965 39.2007 127.965C58.1007 127.965 77.0007 127.965 95.9007 127.965Z" fill="#242A5C"/>
<path d="M95.9007 138.127C112.348 138.127 128.796 138.127 145.243 138.127C145.865 138.127 146.487 138.093 147.103 138.23C148.611 138.558 149.13 139.567 148.401 140.908C147.128 143.243 145.096 144.452 142.482 144.721C142.106 144.76 141.724 144.746 141.342 144.746C111.002 144.746 80.6671 144.741 50.3272 144.76C48.144 144.76 46.2496 144.168 44.6587 142.665C44.1006 142.136 43.5818 141.554 43.3419 140.825C42.7936 139.18 43.3909 138.416 44.6978 138.211C45.1139 138.147 45.5202 138.137 45.9363 138.137C62.5895 138.137 79.2475 138.137 95.9007 138.137V138.127Z" fill="#21285B"/>
<path d="M96.0284 148.373C108.677 148.373 121.321 148.373 133.97 148.373C134.729 148.373 135.498 148.368 136.242 148.51C137.49 148.75 137.911 149.513 137.284 150.615C135.796 153.224 133.559 154.829 130.568 155.294C129.824 155.412 129.051 155.407 128.292 155.407C106.347 155.407 84.4074 155.382 62.4626 155.392C59.2319 155.392 56.8969 153.831 54.9633 151.447C54.6598 151.07 54.4347 150.639 54.3074 150.164C54.0969 149.401 54.3514 148.882 55.1053 148.632C55.8689 148.377 56.6668 148.368 57.4647 148.368C61.5766 148.368 65.6885 148.363 69.8004 148.363C78.5431 148.363 87.2857 148.363 96.0284 148.363V148.373Z" fill="#21285B"/>
<path d="M94.794 73.7469C86.8933 73.7273 83.2073 69.3854 82.1793 63.9028C82.0423 63.1588 81.964 62.4 81.915 61.6413C81.8758 61.0588 81.6311 60.77 81.0388 60.7112C80.4905 60.6574 79.9423 60.5497 79.4136 60.4028C77.2647 59.8105 76.1926 58.249 75.7765 56.1784C75.4779 54.6951 75.6982 53.2217 76.0556 51.7679C76.1094 51.5427 76.1633 51.249 76.457 51.2392C76.6821 51.2294 76.78 51.4693 76.8877 51.6406C77.1227 52.0224 77.343 52.414 77.5779 52.7958C78.5619 54.3965 79.9863 55.4294 81.7584 56.007C82.4094 56.2224 82.5171 56.1784 82.7912 55.5567C83.0703 54.9252 83.3199 54.2791 83.5891 53.6427C84.7689 50.8427 86.4136 48.3364 88.5283 46.163C90.9807 43.6469 93.8297 41.7525 97.315 40.9546C99.464 40.4602 101.637 40.4357 103.796 40.8028C108.246 41.5616 110.483 45.8986 108.588 50.0203C107.756 51.8217 106.41 53.207 104.839 54.3721C102.293 56.2567 99.4346 57.5637 96.4877 58.6651C95.2591 59.1252 94.001 59.507 92.7577 59.9182C91.6905 60.2756 91.529 60.5889 91.8521 61.6903C93.0024 65.621 97.1682 68.093 101.187 67.2315C102.861 66.8742 104.418 66.2231 105.832 65.2686C107.379 64.2308 108.965 63.2469 110.385 62.028C110.512 61.9203 110.664 61.8126 110.826 61.7735C111.085 61.7098 111.217 61.8518 111.168 62.1161C111.144 62.2483 111.065 62.3707 110.997 62.4881C109.616 65.0189 108.05 67.3979 105.877 69.3413C102.558 72.3077 98.6563 73.7126 94.794 73.7371V73.7469ZM91.3087 56.0854C91.3087 56.1882 91.3087 56.2909 91.3087 56.3937C91.3234 57.456 91.387 57.5 92.4591 57.2944C94.001 56.9958 95.4255 56.4035 96.7814 55.6252C99.8947 53.8385 101.882 49.6238 101.28 46.0651C101.006 44.4497 99.7821 43.5441 98.157 43.7742C97.0703 43.9308 96.1157 44.3958 95.2786 45.0958C94.1136 46.07 93.3255 47.3182 92.743 48.7035C91.7542 51.063 91.4849 53.5644 91.3038 56.0805L91.3087 56.0854Z" fill="#21285B"/>
<path d="M42.8667 105.546C42.8667 103.715 42.896 101.884 42.8569 100.053C42.8373 99.1037 43.2191 98.433 43.8898 97.7967C49.7786 92.2065 55.6527 86.5967 61.517 80.9869C62.7408 79.8121 62.9611 80.0177 61.5072 78.6764C59.4513 76.782 57.3904 74.8827 55.3296 72.9883C54.5611 72.2834 54.5464 72.161 55.2904 71.4316C57.8065 68.9645 60.3275 66.5023 62.8534 64.04C63.5289 63.3792 63.7198 63.3694 64.3953 64.0156C66.9212 66.424 69.4471 68.8323 71.9632 71.2505C72.673 71.9309 72.6779 72.0533 71.9632 72.7386C69.7702 74.8435 67.5821 76.9582 65.345 79.0142C64.596 79.6995 64.2681 80.424 64.2877 81.4519C64.3464 84.6974 64.2925 87.9477 64.3317 91.1981C64.3415 92.0254 64.0821 92.6226 63.4751 93.1953C56.989 99.3093 50.5226 105.448 44.0513 111.581C43.9534 111.674 43.8555 111.777 43.7527 111.87C43.5471 112.056 43.3219 112.276 43.0282 112.12C42.7835 111.988 42.8226 111.704 42.8226 111.464C42.8226 109.496 42.8226 107.523 42.8226 105.555C42.8373 105.555 42.8569 105.555 42.8716 105.555L42.8667 105.546Z" fill="#21285B"/>
<path d="M133.886 70.1243C125.868 70.1243 117.85 70.1243 109.832 70.1243C108.81 70.1243 108.298 70.635 108.294 71.6564C108.275 81.7501 108.241 91.8438 108.25 101.933C108.25 102.917 107.957 103.617 107.227 104.277C105.436 105.903 103.713 107.601 101.965 109.27C101.843 109.388 101.725 109.53 101.578 109.613C101.275 109.78 101.035 109.716 100.991 109.329C100.966 109.124 100.971 108.913 100.971 108.707C100.957 98.9271 100.942 89.1466 100.932 79.3613C100.932 79.0138 100.927 78.6711 100.932 78.3236C100.942 77.2466 100.859 77.1683 99.7525 77.1732C99.684 77.1732 99.6154 77.183 99.5469 77.1732C99.1161 77.1438 98.563 77.3788 98.2937 76.9382C97.9756 76.4243 98.1077 75.7977 98.2105 75.2201C98.2742 74.8676 98.6021 74.755 98.9154 74.6914C102.283 74.0257 105.039 72.2536 107.516 69.9627C108.187 69.3459 108.784 68.6753 109.195 67.8725C109.631 67.0306 110.252 66.7417 111.202 66.7466C121.746 66.776 132.285 66.7662 142.829 66.7662C147.118 66.7662 151.401 66.776 155.689 66.7564C157.167 66.7515 158.381 67.2655 159.331 68.4012C159.625 68.7536 159.894 69.1257 159.644 69.6201C159.419 70.0557 159.008 70.1096 158.582 70.1096C158.308 70.1096 158.029 70.1096 157.755 70.1096C149.805 70.1096 141.855 70.1096 133.906 70.1096L133.886 70.1243Z" fill="#242A5C"/>
<path d="M129.731 123.393C121.752 123.393 113.773 123.393 105.798 123.393C105.28 123.393 104.761 123.417 104.247 123.412C104.08 123.412 103.889 123.403 103.801 123.217C103.694 122.996 103.801 122.82 103.958 122.663C104.129 122.492 104.305 122.326 104.482 122.164C105.701 121.043 106.959 119.956 108.133 118.787C108.956 117.969 109.881 117.67 111.017 117.675C122.412 117.71 133.813 117.715 145.209 117.724C149.11 117.724 153.017 117.734 156.918 117.739C157.471 117.739 158.019 117.744 158.558 117.901C159.88 118.282 160.315 119.237 159.625 120.436C158.837 121.807 157.677 122.742 156.135 123.182C155.391 123.398 154.632 123.393 153.873 123.393C145.826 123.393 137.778 123.393 129.731 123.393Z" fill="#21285B"/>
<path d="M95.9594 158.569C101.731 158.569 107.497 158.569 113.269 158.569C113.753 158.569 114.243 158.55 114.717 158.613C115.892 158.77 116.279 159.729 115.501 160.61C114.507 161.736 113.303 162.593 111.917 163.195C109.778 164.13 107.531 164.634 105.245 165.021C99.4056 166.01 93.5608 166.059 87.7063 165.236C85.0042 164.855 82.3217 164.336 79.8252 163.161C78.8217 162.691 77.8475 162.172 77.0105 161.433C76.6482 161.11 76.3252 160.752 76.0902 160.322C75.6545 159.509 75.9776 158.794 76.893 158.638C77.3335 158.559 77.7888 158.569 78.2342 158.569C84.1426 158.569 90.0461 158.569 95.9545 158.569H95.9594Z" fill="#21285B"/>
<path d="M94.9616 116.261C94.9371 116.569 94.7315 116.76 94.5308 116.946C93.7085 117.739 92.8861 118.522 92.0637 119.311C90.3406 120.955 88.6224 122.605 86.8896 124.24C86.1015 124.984 86.0819 124.974 85.2987 124.255C82.812 121.959 80.335 119.653 77.8532 117.353C77.7504 117.26 77.6476 117.167 77.5546 117.069C77.0847 116.56 77.07 116.457 77.5595 115.962C78.4357 115.081 79.3315 114.22 80.2224 113.353C81.9259 111.689 83.6294 110.02 85.3329 108.36C86.0672 107.646 86.0868 107.631 86.8259 108.331C89.3861 110.749 91.9364 113.177 94.4868 115.605C94.6875 115.796 94.8882 115.982 94.9567 116.266L94.9616 116.261Z" fill="#21285B"/>
<path d="M125.428 59.4431C116.544 59.4431 107.664 59.4431 98.7792 59.4431C98.4365 59.4431 98.0841 59.5116 97.7561 59.3599C97.5113 59.2424 97.4575 59.0613 97.6778 58.89C97.8638 58.748 98.0939 58.6501 98.3141 58.562C99.4302 58.1068 100.561 57.676 101.623 57.0886C102.269 56.7312 102.989 56.6333 103.728 56.6382C106.944 56.648 110.155 56.6382 113.371 56.6382C125.712 56.6382 138.048 56.6382 150.388 56.6235C151.382 56.6235 152.317 56.7508 153.105 57.4263C153.399 57.676 153.658 57.9501 153.8 58.3172C154.001 58.841 153.844 59.1788 153.311 59.3648C152.875 59.5165 152.42 59.4676 151.974 59.4676C143.129 59.4676 134.278 59.4676 125.433 59.4676V59.4578L125.428 59.4431Z" fill="#242A5C"/>
<path d="M95.8424 38.2036C83.9228 38.2036 72.0033 38.2036 60.0837 38.2036C59.8095 38.2036 59.5305 38.2036 59.2564 38.1938C58.904 38.184 58.6494 38.0176 58.5858 37.6651C58.5221 37.3078 58.7277 37.063 59.0459 36.9455C59.9172 36.6176 60.7788 36.2504 61.7382 36.2553C62.3256 36.2553 62.913 36.2602 63.5005 36.2602C85.3375 36.2602 107.175 36.2602 129.012 36.2602C129.805 36.2602 130.598 36.1966 131.386 36.3728C131.865 36.4805 132.316 36.642 132.722 36.9113C133.016 37.1071 133.319 37.3273 133.182 37.7385C133.055 38.1253 132.698 38.1889 132.335 38.1938C132.096 38.1938 131.851 38.1938 131.611 38.1938C119.691 38.1938 107.772 38.1938 95.8522 38.1938L95.8424 38.2036Z" fill="#242A5C"/>
<path d="M44.8546 80.8105C40.0182 80.8105 35.1868 80.8105 30.3504 80.8105C30.2476 80.8105 30.1448 80.8105 30.042 80.8105C29.4497 80.8105 28.8036 80.8692 28.549 80.1741C28.3091 79.5231 28.7448 79.058 29.1462 78.6224C29.998 77.6923 31.0504 77.144 32.3133 77.0559C32.9301 77.0119 33.5567 77.0168 34.1784 77.0168C41.9469 77.0168 49.7154 77.0363 57.484 77.0168C58.3994 77.0168 59.163 77.1832 59.7896 77.9126C60.2105 78.407 60.7637 78.7888 61.2189 79.2587C61.821 79.8804 61.7036 80.3063 60.891 80.644C60.4602 80.8252 60.0147 80.8007 59.5644 80.8007C54.6595 80.8007 49.7595 80.8007 44.8546 80.8007V80.8105Z" fill="#242A5C"/>
<path d="M148.317 112.433C144.827 112.433 141.336 112.438 137.846 112.423C137.494 112.423 136.995 112.619 136.823 112.183C136.652 111.753 137.132 111.542 137.396 111.297C138.61 110.172 139.853 109.07 141.062 107.934C141.596 107.435 142.169 107.205 142.918 107.205C148.547 107.23 154.181 107.215 159.811 107.21C160.334 107.21 160.848 107.225 161.343 107.406C162.571 107.841 163.007 108.904 162.415 110.064C161.641 111.576 160.408 112.394 158.675 112.389C155.219 112.389 151.763 112.389 148.312 112.389V112.428L148.317 112.433Z" fill="#242A5C"/>
<path d="M57.3964 59.4531C51.5908 59.4531 45.7901 59.4531 39.9845 59.4531C39.4999 59.4531 39.0202 59.4531 38.5454 59.3258C37.7475 59.1055 37.6153 58.7433 38.1048 58.0531C38.8195 57.0447 39.8181 56.6139 41.0468 56.6139C44.9873 56.6286 48.923 56.6188 52.8636 56.6139C59.7754 56.6139 66.6824 56.6335 73.5943 56.5846C74.6566 56.5797 75.4055 56.7657 75.7237 57.8769C75.8167 58.2048 76.0419 58.4888 76.1594 58.8118C76.2964 59.179 76.1594 59.4188 75.7482 59.458C75.6111 59.4727 75.474 59.4678 75.3321 59.4678C69.3552 59.4678 63.3782 59.4678 57.4013 59.4678C57.4013 59.4629 57.4013 59.458 57.4013 59.4482L57.3964 59.4531Z" fill="#242A5C"/>
<path d="M41.8238 87.1691C45.4854 87.1691 49.1518 87.1691 52.8133 87.1691C52.9504 87.1691 53.0924 87.1544 53.2294 87.1691C53.6847 87.2279 53.7826 87.4432 53.4938 87.7761C53.2686 88.0356 53.0091 88.2656 52.7546 88.5055C51.9567 89.2691 51.1441 90.0181 50.356 90.7964C49.8812 91.2663 49.3476 91.4474 48.6819 91.4474C41.907 91.4328 35.1371 91.4425 28.3623 91.4425C27.7749 91.4425 27.1287 91.4866 26.8154 90.8551C26.4973 90.2188 26.9329 89.7244 27.2903 89.2642C28.3182 87.9426 29.591 87.1691 31.3581 87.1985C34.8483 87.2621 38.3385 87.2181 41.8287 87.2181C41.8287 87.2034 41.8287 87.1838 41.8287 87.1691H41.8238Z" fill="#21285B"/>
<path d="M66.9807 48.8062C61.317 48.8062 55.6534 48.8062 49.9897 48.8062C49.6128 48.8062 49.2261 48.8062 48.8541 48.7524C48.2569 48.6643 47.9338 48.3363 47.8849 47.8468C47.8359 47.3573 48.0904 46.9118 48.5946 46.6964C49.1135 46.4762 49.6667 46.4615 50.2247 46.4615C55.9911 46.4615 61.7576 46.4615 67.5289 46.4517C73.7457 46.4468 79.9625 46.4419 86.1793 46.4321C86.3506 46.4321 86.5268 46.4174 86.6981 46.4419C87.0065 46.4811 87.1436 46.672 86.9723 46.9461C86.5856 47.5629 86.1401 48.1405 85.5967 48.6251C85.2883 48.8992 84.8772 48.816 84.5002 48.816C82.2876 48.816 80.08 48.816 77.8674 48.816C74.2401 48.816 70.6128 48.816 66.9904 48.816V48.8062H66.9807Z" fill="#242A5C"/>
<path d="M44.1251 70.1244C40.6055 70.1244 37.0859 70.1244 33.5663 70.1244C33.0327 70.1244 32.4111 70.2517 32.1516 69.5664C31.8971 68.881 32.3719 68.4699 32.788 68.0538C33.6936 67.158 34.7852 66.7664 36.0628 66.7713C42.9649 66.7859 49.8621 66.781 56.7642 66.781C57.2488 66.781 57.7286 66.7468 58.2132 66.7615C58.7027 66.7762 58.8838 67.065 58.5803 67.4076C57.7579 68.3377 56.867 69.2041 55.8929 69.9727C55.5551 70.237 55.095 70.1391 54.6838 70.1391C51.1642 70.1391 47.6446 70.1391 44.1251 70.1391V70.1244Z" fill="#242A5C"/>
<path d="M126.515 48.8159C121.37 48.8159 116.226 48.8159 111.081 48.8159C110.141 48.8159 109.709 48.364 109.784 47.46C109.857 46.5887 109.97 46.4761 110.866 46.4565C111.35 46.4467 111.83 46.4565 112.314 46.4565C121.948 46.4565 131.582 46.4614 141.215 46.4614C141.803 46.4614 142.395 46.4516 142.963 46.6278C143.58 46.8236 143.942 47.3229 143.868 47.8516C143.805 48.3166 143.354 48.7229 142.777 48.8061C142.576 48.8355 142.366 48.8159 142.155 48.8159C136.942 48.8159 131.728 48.8159 126.515 48.8159Z" fill="#242A5C"/>
<path d="M154.636 102.182C152.629 102.182 150.627 102.182 148.62 102.182C148.292 102.182 147.842 102.31 147.7 101.913C147.573 101.556 147.94 101.296 148.18 101.057C149.203 100.024 150.24 99.0105 151.259 97.9776C151.67 97.5566 152.145 97.3755 152.737 97.3755C156.399 97.3853 160.065 97.3755 163.726 97.3755C163.898 97.3755 164.074 97.3853 164.245 97.4098C165.131 97.537 165.474 97.9874 165.195 98.8587C164.661 100.543 163.443 101.541 161.773 102.016C161.274 102.158 160.75 102.178 160.231 102.178C158.366 102.178 156.496 102.178 154.631 102.178C154.631 102.182 154.631 102.187 154.631 102.192L154.636 102.182Z" fill="#242A5C"/>
<path d="M34.6882 102.168C32.6469 102.168 30.6105 102.168 28.5693 102.168C28.3294 102.168 28.0847 102.187 27.8448 102.158C26.7875 102.036 26.3371 101.248 26.8364 100.308C27.791 98.5014 29.2154 97.3755 31.3595 97.3755C34.9182 97.3755 38.477 97.3657 42.0357 97.3608C42.1728 97.3608 42.3147 97.3511 42.4518 97.3706C43.0049 97.4441 43.1175 97.6692 42.7259 98.1C42.3343 98.5308 42.2658 99.0007 42.2756 99.5343C42.2854 100.053 42.2952 100.572 42.2854 101.091C42.2609 102.07 42.1728 102.168 41.2182 102.173C39.0399 102.183 36.8616 102.173 34.6882 102.173V102.168Z" fill="#242A5C"/>
<path d="M36.4115 107.21C38.0024 107.21 39.5884 107.205 41.1794 107.21C42.1731 107.215 42.2759 107.308 42.2905 108.248C42.3101 109.354 42.315 110.46 42.2954 111.567C42.2856 112.281 42.1437 112.448 41.4535 112.448C38.585 112.448 35.7213 112.443 32.8528 112.389C31.5654 112.364 30.5423 111.753 29.764 110.734C29.1961 110 28.9612 109.173 29.343 108.306C29.7101 107.479 30.5276 107.278 31.3353 107.234C32.2996 107.181 33.2689 107.215 34.2381 107.21C34.9626 107.21 35.6871 107.21 36.4164 107.21H36.4115Z" fill="#242A5C"/>
<path d="M38.9467 123.383C38.2908 123.383 37.6348 123.393 36.9789 123.383C34.9425 123.339 33.4544 122.321 32.304 120.725C32.1278 120.48 32.0103 120.177 31.9173 119.883C31.653 119.08 31.932 118.464 32.7152 118.116C33.2537 117.871 33.8215 117.744 34.4236 117.744C36.739 117.744 39.0544 117.729 41.3698 117.739C42.1726 117.739 42.2754 117.837 42.2901 118.63C42.3145 119.942 42.3194 121.259 42.2999 122.571C42.2901 123.295 42.1579 123.413 41.4432 123.432C40.6159 123.452 39.7838 123.432 38.9565 123.432C38.9565 123.418 38.9565 123.403 38.9565 123.388L38.9467 123.383Z" fill="#242A5C"/>
<path d="M154.613 77.051C156.165 77.051 157.722 77.0657 159.273 77.051C160.918 77.0314 162.103 77.8147 162.994 79.1168C163.625 80.037 163.292 80.7028 162.171 80.8056C161.863 80.8349 161.55 80.8203 161.241 80.8203C158.686 80.8203 156.131 80.8105 153.58 80.8349C152.807 80.8447 152.18 80.6245 151.613 80.0958C150.776 79.3224 149.894 78.5979 149.038 77.8489C148.886 77.7168 148.69 77.5748 148.749 77.3398C148.822 77.0363 149.101 77.0461 149.336 77.0412C151.099 77.0363 152.856 77.0412 154.618 77.0412V77.0559L154.613 77.051Z" fill="#242A5C"/>
<path d="M160.57 91.4474C159.503 91.4474 158.431 91.4621 157.364 91.4425C156.644 91.4278 156.507 91.2565 156.654 90.5467C156.835 89.6362 157.08 88.7404 156.894 87.7908C156.821 87.4139 157.08 87.2132 157.447 87.2132C158.862 87.2132 160.296 87.0271 161.677 87.3111C163.263 87.639 164.32 88.7404 165.015 90.1649C165.26 90.6593 165.074 91.002 164.574 91.2614C164.256 91.4229 163.914 91.4425 163.566 91.4425C162.567 91.4425 161.564 91.4425 160.565 91.4425L160.57 91.4474Z" fill="#242A5C"/>
<path d="M95.8563 27.5565C94.6472 27.5565 93.443 27.5565 92.2339 27.5565C92.0283 27.5565 91.8178 27.5663 91.6122 27.5321C91.2891 27.4782 90.9856 27.3265 90.9807 26.9642C90.9709 26.5628 91.2402 26.3377 91.6318 26.2985C92.0087 26.2593 92.3905 26.2349 92.7674 26.2349C95.0779 26.2447 97.3933 26.2642 99.7038 26.2838C99.7381 26.2838 99.7723 26.2838 99.8066 26.2838C100.477 26.3181 100.81 26.5286 100.81 26.93C100.81 27.3265 100.502 27.5272 99.7919 27.5321C98.48 27.5467 97.1681 27.5321 95.8563 27.5321V27.5516V27.5565Z" fill="#242A5C"/>
<path d="M91.3086 56.0854C91.4897 53.5693 91.7638 51.0679 92.7478 48.7084C93.3254 47.3231 94.1184 46.0749 95.2834 45.1007C96.1205 44.4007 97.075 43.9308 98.1617 43.7791C99.7869 43.549 101.011 44.4546 101.285 46.07C101.887 49.6287 99.8995 53.8434 96.7862 55.6301C95.4303 56.4084 94.0009 57.0007 92.4638 57.2993C91.3918 57.5049 91.3282 57.4609 91.3135 56.3986C91.3135 56.2959 91.3135 56.1931 91.3135 56.0903L91.3086 56.0854Z" fill="#FEFFFF"/>
</g>
</g>
<defs>
<clipPath id="clip0_4933_36458">
<rect width="192" height="192" fill="white"/>
</clipPath>
<clipPath id="clip1_4933_36458">
<rect width="139.021" height="140" fill="white" transform="translate(26.4883 26)"/>
</clipPath>
</defs>
</svg>
