<svg width="192" height="192" viewBox="0 0 192 192" fill="none" xmlns="http://www.w3.org/2000/svg">
<g clip-path="url(#clip0_5170_53356)">
<path d="M96 192C149.019 192 192 149.019 192 96C192 42.9807 149.019 0 96 0C42.9807 0 0 42.9807 0 96C0 149.019 42.9807 192 96 192Z" fill="white"/>
<path d="M175.885 86.7796C175.647 92.3502 175.054 97.8587 172.808 103.046C170.99 107.248 168.083 110.445 164.02 112.608C163.109 113.094 162.374 113.063 161.464 112.608C157.059 110.414 154.303 106.785 152.461 102.377C150.095 96.7273 149.464 90.7601 149.408 84.7031C149.401 83.8684 149.584 83.3648 150.536 83.1096C153.751 82.2404 156.876 81.0917 159.949 79.819C161.809 79.0498 163.575 79.1153 165.444 79.8293C168.335 80.9331 171.253 81.9955 174.219 82.8681C175.585 83.2682 176.13 83.8546 175.902 85.2343C175.816 85.7345 175.885 86.2622 175.885 86.7796Z" fill="#BE04AF"/>
<path d="M132.228 100.784C130.848 102.646 128.817 102.398 126.878 102.325C125.833 102.288 125.392 102.567 125.205 103.674C124.736 106.434 122.477 108.307 119.69 108.42C118.714 108.462 117.738 108.417 116.761 108.434C116.254 108.444 115.989 108.365 115.827 107.751C115.475 106.434 115.558 105.754 117.22 105.933C118.945 106.12 120.694 106.075 121.953 104.533C122.404 103.981 122.805 103.277 122.622 102.657C122.446 102.063 121.604 102.339 121.07 102.274C116.844 101.77 114.964 97.8173 117.231 94.1679C118.207 92.5951 119.759 92.5192 121.328 92.6089C123.022 92.702 124.274 93.5436 124.829 95.1889C125.064 95.8857 125.098 96.648 125.247 97.3758C125.409 98.1795 124.96 99.466 125.771 99.6902C127.051 100.046 128.517 100.035 129.848 99.6385C130.5 99.4453 130.631 98.6934 130.662 98.0484C130.697 97.3033 130.721 96.5548 130.662 95.8133C130.593 94.9371 130.862 94.6095 131.804 94.6267C132.714 94.6439 133.211 94.7957 133.108 95.8477C133.028 96.6411 133.063 97.4551 133.111 98.2553C133.19 99.5833 133.97 100.17 135.267 100.17C136.671 100.17 136.774 99.2211 136.767 98.1726C136.76 97.4827 136.788 96.7963 136.76 96.1064C136.726 95.2441 136.716 94.6198 137.968 94.6094C139.237 94.5991 139.389 95.1372 139.313 96.1444C139.254 96.886 139.275 97.6379 139.309 98.3795C139.371 99.673 140.172 100.156 141.372 100.166C142.607 100.18 142.935 99.4729 142.869 98.3795C142.824 97.6379 142.907 96.886 142.848 96.1444C142.772 95.1441 142.914 94.5922 144.19 94.606C145.435 94.6164 145.435 95.2338 145.397 96.103C145.349 97.1895 145.428 98.2898 145.287 99.3625C144.897 102.339 142.176 103.612 139.699 101.929C138.889 101.377 138.454 101.215 137.595 101.908C136.002 103.184 134.577 102.812 132.228 100.784Z" fill="black"/>
<path d="M68.0213 90.208C69.6735 92.0602 71.2705 93.7676 72.771 95.5578C73.7126 96.6823 74.8095 97.786 74.6577 99.4589C74.5163 101.028 73.7092 102.087 72.1053 102.215C68.7284 102.48 65.3378 102.601 61.9748 102.108C60.0363 101.825 59.205 100.773 59.1774 98.7794C59.1257 95.2818 59.1912 91.7843 59.1429 88.2867C59.1291 87.2657 59.5534 87.0622 60.4743 87.045C61.4677 87.0277 61.754 87.3692 61.7368 88.3316C61.685 91.429 61.7781 94.5265 61.6954 97.6205C61.6505 99.2865 62.3576 99.8728 63.9477 99.8245C66.069 99.759 68.1972 99.8142 70.322 99.8073C70.8808 99.8038 71.5327 99.9211 71.7534 99.1795C71.9363 98.5656 71.6741 98.0861 71.2395 97.6412C69.5287 95.8648 67.8385 94.0712 66.1415 92.281C65.7552 91.874 65.3378 91.5221 65.186 90.9013C64.6307 88.642 64.5996 88.6455 66.7934 87.8418C68.1386 87.3485 69.4804 86.8449 70.8359 86.3793C72.1329 85.9343 73.4643 85.6032 74.1576 84.1993C74.4508 83.6061 75.1648 83.4336 75.7753 83.3094C78.2726 82.8024 80.8043 82.9369 83.3292 82.9542C84.2984 82.9611 84.3778 83.5543 84.3985 84.3304C84.4261 85.241 84.0604 85.5273 83.1809 85.5101C81.4045 85.479 79.5902 85.755 77.8552 85.4894C76.1858 85.2341 75.1544 86.5483 74.4922 87.2071C73.1573 88.5316 71.4671 88.5627 70.0598 89.3801C69.4769 89.7182 68.8009 89.8975 68.0213 90.208Z" fill="#BE05B0"/>
<path d="M28.9404 99.8075C30.3753 99.8075 31.8102 99.7833 33.2451 99.8144C34.3902 99.842 34.9559 99.3901 34.88 98.1932C34.8248 97.2792 34.8835 96.3685 35.1767 95.4752C35.7768 93.6574 36.9116 92.7296 38.8087 92.5847C40.6472 92.4467 42.0717 93.2401 42.8409 94.9061C43.6239 96.5962 43.6895 98.3588 43.0444 100.09C42.1959 102.374 39.7987 103.267 37.329 102.312C35.356 101.549 33.4175 102.563 31.4514 102.46C30.9099 102.432 31.1583 103.095 31.1376 103.453C30.9651 106.43 29.0473 108.334 26.0878 108.413C24.7702 108.448 23.4457 108.431 22.1281 108.42C19.0686 108.396 16.9162 106.654 16.2712 103.664C15.8676 101.798 15.9987 99.9006 15.9539 98.0104C15.9263 96.8859 16.6748 97.0929 17.3474 97.0515C18.1269 97.0067 18.6822 97.0963 18.634 98.1208C18.5684 99.4936 18.6064 100.873 18.6202 102.246C18.6443 104.474 19.8377 105.792 22.0625 105.933C23.3767 106.016 24.7012 105.951 26.0223 105.947C26.6811 105.947 27.264 105.699 27.7642 105.302C28.3816 104.816 28.8024 104.15 28.6403 103.36C28.4644 102.505 27.64 102.55 26.9743 102.474C26.35 102.405 25.705 102.315 25.0875 102.381C23.8389 102.515 23.5285 101.929 23.4871 100.794C23.4388 99.4832 24.3149 99.8316 24.9841 99.8144C26.3051 99.7833 27.6228 99.804 28.9438 99.804C28.9404 99.8109 28.9404 99.8109 28.9404 99.8075Z" fill="#BE05AF"/>
<path d="M92.8203 93.1158C92.8203 94.7783 92.803 96.4443 92.8272 98.1069C92.841 99.19 93.3308 99.8315 94.5208 99.7798C95.152 99.7522 95.7832 99.8143 96.4144 99.8143C99.3842 99.8143 99.705 99.4383 99.4843 96.3857C99.4291 95.6131 98.9462 94.668 100.488 94.6093C101.816 94.561 102.23 94.9784 102.075 96.2512C101.978 97.0411 102.113 97.8585 102.044 98.6588C101.854 100.915 100.36 102.325 98.1046 102.336C96.5558 102.343 94.9968 102.349 93.4653 102.16C91.2371 101.884 90.3506 100.815 90.3368 98.607C90.3127 95.1647 90.3678 91.7223 90.3092 88.2799C90.292 87.2727 90.6334 87.0485 91.5854 87.0416C92.5685 87.0347 92.8686 87.3314 92.8237 88.3006C92.7513 89.9045 92.803 91.5119 92.803 93.1192C92.8065 93.1158 92.8134 93.1158 92.8203 93.1158Z" fill="#010101"/>
<path d="M49.949 102.374C49.0315 102.374 48.1105 102.301 47.2033 102.391C45.9823 102.515 45.6236 101.967 45.5442 100.835C45.4408 99.3522 46.4859 99.8488 47.1516 99.8282C48.9245 99.7764 50.7009 99.8282 52.4773 99.8006C53.1326 99.7902 53.995 100.083 54.333 99.3004C54.6883 98.4795 53.9363 97.9552 53.4465 97.4275C52.1289 95.996 50.8423 94.5335 49.4385 93.1918C48.6106 92.3984 48.8969 91.9742 49.5592 91.305C50.2491 90.6083 50.625 90.7911 51.1942 91.4223C52.6532 93.0331 54.1743 94.5853 55.6748 96.1581C56.8337 97.3723 57.3511 98.783 56.713 100.387C56.068 102.012 54.6055 102.346 53.0395 102.37C52.0116 102.384 50.9803 102.37 49.949 102.374Z" fill="#BF06B0"/>
<path d="M113.143 99.09C113.143 100.352 113.24 101.622 113.126 102.87C112.833 106.113 110.284 108.389 107.031 108.424C106.4 108.431 105.755 108.338 105.141 108.441C103.637 108.693 103.613 107.63 103.541 106.682C103.43 105.244 104.569 106.002 105.114 105.933C106.072 105.816 107.055 105.926 108.004 105.613C109.763 105.033 110.632 103.926 110.667 102.053C110.701 99.9903 110.726 97.9242 110.653 95.8615C110.619 94.8647 110.95 94.5956 111.919 94.6163C112.816 94.637 113.306 94.7646 113.223 95.8201C113.137 96.9032 113.202 97.9966 113.202 99.0866C113.185 99.09 113.164 99.09 113.143 99.09Z" fill="#010101"/>
<path d="M81.0268 94.4989C81.0268 96.6754 80.9958 98.8518 81.0406 101.025C81.0578 101.911 80.9061 102.401 79.8471 102.405C78.8607 102.405 78.5778 102.08 78.5882 101.111C78.633 96.7616 78.6227 92.4086 78.5951 88.0591C78.5916 87.2002 78.6744 86.7001 79.7678 86.6897C80.9371 86.6759 81.0613 87.2037 81.0406 88.1453C80.9958 90.2597 81.0268 92.381 81.0268 94.4989Z" fill="#BF07B0"/>
<path d="M97.6421 92.5916C96.5349 92.7089 96.014 91.9604 96.0003 90.9635C95.983 89.7287 96.8591 89.3803 97.9836 89.4183C98.9942 89.4528 99.6634 89.8563 99.6323 90.9256C99.5978 92.0983 98.908 92.6537 97.6421 92.5916Z" fill="#070707"/>
<path d="M158.298 91.1774C157.743 90.9429 157.084 90.9463 156.449 90.3151C158.491 89.539 160.416 88.8043 162.344 88.08C163.01 87.8282 163.565 88.2525 164.134 88.4594C165.524 88.963 166.894 89.5149 168.27 90.0564C168.494 90.1427 168.949 90.1047 168.732 90.5186C168.639 90.698 168.253 90.7256 167.997 90.8222C167.742 90.967 167.48 91.1084 167.273 91.3258C167.076 91.4361 166.863 91.4982 166.642 91.5431C166.28 91.6189 165.924 91.7259 165.573 91.8466C164.838 92.0536 164.151 92.364 163.486 92.733C163.258 92.8124 163.02 92.8365 162.782 92.8158C162.306 92.7434 161.858 92.5778 161.399 92.4364C160.875 92.2536 160.354 92.0604 159.809 91.9432C159.202 91.8914 158.802 91.4396 158.298 91.1774Z" fill="#FEFDFE"/>
<path d="M162.748 92.5433C163.006 92.5329 163.265 92.526 163.527 92.5157C164.12 92.0604 164.979 92.1363 165.493 91.5257C165.869 91.405 166.245 91.2843 166.621 91.1636C166.745 91.3153 166.842 91.4809 166.921 91.6637C167.028 92.3398 167.197 93.0331 166.459 93.4953C166.066 93.5194 165.586 93.4056 165.29 93.5884C163.399 94.7508 161.568 94.2438 159.726 93.5091C158.57 93.0848 158.346 92.495 159.405 91.6844C159.978 91.7672 160.499 92.0259 161.044 92.1984C161.602 92.3432 162.123 92.7019 162.748 92.5433Z" fill="#FBF3FA"/>
<path d="M160.682 98.0934C160.382 97.6036 160.296 96.9172 160.889 96.8344C162.214 96.6447 163.604 96.5033 164.901 96.931C165.304 97.0655 165.266 97.6967 164.894 98.09C163.49 98.1486 162.086 98.5211 160.682 98.0934Z" fill="#F8E5F6"/>
<path d="M163.497 102.16C162.652 100.866 161.31 99.9385 160.775 98.4208C161.207 98.0897 161.648 98.1518 162.093 98.3829C162.731 99.8247 164.207 100.663 164.808 102.136C164.38 102.574 163.942 102.519 163.497 102.16Z" fill="#FBF1FA"/>
<path d="M164.883 103.909C163.68 103.926 162.476 103.943 161.272 103.957C160.82 103.96 160.482 103.84 160.503 103.288C160.52 102.794 160.765 102.563 161.251 102.56C161.996 102.553 162.741 102.536 163.49 102.522C164.387 102.55 165.377 102.484 164.883 103.909Z" fill="#F9EBF8"/>
<path d="M172.084 93.2575C170.687 92.7815 169.666 92.1295 170.725 90.4635C171.08 90.2945 171.108 90.4704 171.032 90.7567C170.922 91.6949 171.032 92.5159 172.122 92.8194C172.267 92.9781 172.253 93.1229 172.084 93.2575Z" fill="#DD7ED6"/>
<path d="M152.773 90.4946C152.072 89.039 152.628 87.5248 152.579 86.0347C153.166 87.3488 152.424 88.8389 153.131 90.1324C153.211 90.4532 153.135 90.6153 152.773 90.4946Z" fill="#DE80D6"/>
<path d="M172.398 90.1114C172.398 88.7489 172.398 87.383 172.398 86.0206C172.526 86.0171 172.654 86.0171 172.785 86.0137C172.785 87.3796 172.785 88.7455 172.785 90.1114C172.654 90.2597 172.526 90.2528 172.398 90.1114Z" fill="#E089D9"/>
<path d="M153.096 94.4333C152.789 93.4192 152.537 92.4362 154.344 92.6535C153.123 92.7777 153.468 93.8124 153.096 94.4333Z" fill="#DE82D7"/>
<path d="M167.583 93.9161C167.611 94.023 167.68 94.1403 167.659 94.2403C167.514 94.9198 168.277 96.0857 167.266 96.1754C166.645 96.2306 167.121 94.9474 166.959 94.2852C167.059 94.123 167.114 93.9299 167.263 93.7954C167.401 93.7574 167.507 93.7954 167.583 93.9161Z" fill="#F9E9F8"/>
<path d="M159.679 91.8636C158.306 92.4534 159.009 92.9812 159.723 93.5124C159.071 93.6607 158.644 93.4986 158.633 92.7397C158.627 92.1982 158.702 91.6394 158.299 91.1807C158.861 91.3083 159.423 91.4359 159.986 91.5635C160.072 91.8567 160.034 92.0188 159.679 91.8636Z" fill="#DC78D4"/>
<path d="M162.096 98.3831C161.658 98.3969 161.217 98.4107 160.779 98.421C160.748 98.3106 160.717 98.2002 160.686 98.0899C162.089 98.0899 163.493 98.0864 164.897 98.0864C164.007 98.6349 163.021 98.214 162.096 98.3831Z" fill="#DB76D3"/>
<path d="M164.883 103.909C165.239 102.622 163.959 102.977 163.486 102.522C163.49 102.401 163.493 102.281 163.497 102.16C163.935 102.15 164.369 102.143 164.807 102.132C165.128 102.715 165.597 103.288 164.883 103.909Z" fill="#DE82D7"/>
<path d="M172.085 93.2574C172.096 93.1125 172.109 92.9642 172.12 92.8193C172.723 93.8783 172.558 94.9268 172.082 95.972C171.999 96.1272 171.913 96.1272 171.83 95.972C171.916 95.0683 171.999 94.1646 172.085 93.2574Z" fill="#E395DD"/>
<path d="M167.298 93.9162C167.184 94.0404 167.074 94.1646 166.96 94.2888C166.95 94.0473 166.939 93.8093 166.929 93.5679C166.515 92.9298 167.012 92.1537 166.615 91.5121C166.619 91.3983 166.619 91.281 166.622 91.1672C166.843 91.1603 167.064 91.1534 167.281 91.1465C167.553 92.0674 167.533 92.9918 167.298 93.9162Z" fill="#CE43C3"/>
<path d="M167.298 93.9163C167.292 92.9919 167.288 92.0709 167.281 91.1465C167.436 90.8533 167.685 90.7705 167.999 90.8292C167.267 91.7812 167.84 92.9056 167.585 93.9197L167.44 93.9163H167.298Z" fill="#EDBDE9"/>
<path d="M172.399 90.1113C172.527 90.1113 172.655 90.1113 172.786 90.1113C172.458 91.0185 171.703 90.7667 171.034 90.7529C170.93 90.6563 170.83 90.5597 170.727 90.4597C171.196 89.932 171.834 90.1907 172.399 90.1113Z" fill="#D55FCC"/>
<path d="M152.773 90.4944C152.894 90.3737 153.011 90.253 153.132 90.1323C153.581 90.1909 154.143 89.9115 154.433 90.5807C153.836 90.9497 153.298 90.9152 152.773 90.4944Z" fill="#D459CA"/>
<path d="M171.831 95.9722C171.914 95.9722 172 95.9722 172.083 95.9722C172.093 96.5241 172.273 97.1208 171.659 97.5381C171.227 96.9518 171.835 96.493 171.831 95.9722Z" fill="#E395DD"/>
<path d="M171.356 99.3968C171.163 99.8349 171.156 100.38 170.504 100.683C170.535 100.025 170.666 99.4968 171.049 99.0381C171.197 99.1209 171.301 99.2381 171.356 99.3968Z" fill="#DB76D3"/>
<path d="M153.359 96.0063C153.525 96.1512 153.701 96.2306 153.735 96.3513C153.773 96.4789 153.721 96.7203 153.628 96.7755C153.38 96.9273 153.214 96.7652 153.207 96.5065C153.201 96.3685 153.29 96.2202 153.359 96.0063Z" fill="#D764CE"/>
<path d="M171.358 99.3968C171.254 99.2761 171.154 99.1588 171.051 99.0381C171.12 98.7104 170.968 98.0378 171.489 98.2516C171.968 98.4517 171.347 98.9898 171.358 99.3968Z" fill="#DE80D6"/>
<path d="M166.614 91.5122C167.204 92.1227 166.831 92.8816 166.928 93.568C166.769 93.5438 166.614 93.5231 166.455 93.499C166.51 92.8367 166.562 92.1745 166.614 91.5122Z" fill="#C520B8"/>
<path d="M122.802 98.2897C122.629 98.8451 123.33 99.8971 121.833 99.8419C119.894 99.7729 119.018 99.1107 119.046 97.4274C119.066 96.2823 119.246 95.2061 120.722 95.1233C122.074 95.0474 122.798 96.1443 122.802 98.2897Z" fill="#FCFCFC"/>
<path d="M41.257 97.586C41.2742 99.2624 40.5499 100.159 39.1736 100.156C37.5559 100.156 37.1627 99.0692 37.1075 97.7585C37.0385 96.1787 37.8732 95.0784 39.1046 95.0198C40.3809 94.9577 41.2397 95.9787 41.257 97.586Z" fill="#FDFCFD"/>
<path d="M165.493 91.5293C165.186 92.5503 164.279 92.3778 163.527 92.5192C163.921 91.6673 164.804 91.788 165.493 91.5293Z" fill="#DF84D8"/>
<path d="M159.678 91.8636C159.781 91.7635 159.881 91.6635 159.985 91.5635C160.457 91.7911 161.061 91.7083 161.43 92.1774C161.368 92.3154 161.264 92.4051 161.123 92.4568C160.64 92.2568 160.064 92.2844 159.678 91.8636Z" fill="#E8A6E2"/>
<path d="M161.121 92.4536C161.225 92.3605 161.325 92.2673 161.428 92.1742C161.921 92.1087 162.332 92.3329 162.749 92.5433C162.166 93.2745 161.67 92.4018 161.121 92.4536Z" fill="#DE82D7"/>
</g>
<defs>
<clipPath id="clip0_5170_53356">
<rect width="192" height="192" fill="white"/>
</clipPath>
</defs>
</svg>
