<svg width="192" height="192" viewBox="0 0 192 192" fill="none" xmlns="http://www.w3.org/2000/svg">
<g clip-path="url(#clip0_5170_53580)">
<path d="M96 192C149.019 192 192 149.019 192 96C192 42.9807 149.019 0 96 0C42.9807 0 0 42.9807 0 96C0 149.019 42.9807 192 96 192Z" fill="white"/>
<path d="M173.86 102.246C173.86 101.381 173.842 100.517 173.825 99.6516C173.842 98.7866 173.842 97.9217 173.842 97.0567C173.842 95.7766 173.86 94.4791 173.86 93.199C174.225 90.5522 173.651 88.3207 170.557 88.1477C166.749 87.9401 162.89 87.9401 159.065 88.1477C155.988 88.338 155.38 90.535 155.762 93.1817C155.762 94.4792 155.762 95.7938 155.745 97.0913V102.298C155.658 105.689 157.814 106.554 160.647 106.519C164.211 106.467 167.792 106.312 171.356 106.208C173.964 105.983 174.242 104.322 173.86 102.246ZM159.448 96.5723C159.448 95.7939 159.465 95.0154 159.5 94.2543C159.5 93.9083 159.5 93.5623 159.517 93.2163V93.199C163.046 91.348 166.576 91.348 170.122 93.1817C170.122 93.545 170.139 93.891 170.139 94.2543C170.157 95.1884 170.192 96.1398 170.209 97.0913C170.174 97.1259 170.122 97.1605 170.087 97.1951C170.122 97.2297 170.157 97.2643 170.209 97.2816C170.209 98.0774 170.192 98.8904 170.192 99.6861C170.174 99.7034 170.139 99.7381 170.139 99.7554C170.157 99.7727 170.157 99.7727 170.174 99.7727C170.139 99.9976 170.105 100.222 170.07 100.447C169.983 101.001 169.896 101.572 169.792 102.125C168.975 102.125 168.175 102.108 167.358 102.108C164.854 102.091 162.368 102.073 159.865 102.039H159.795C159.778 101.762 159.761 101.485 159.726 101.208C159.639 99.8418 159.535 98.4752 159.43 97.1086C159.43 96.9356 159.43 96.7453 159.448 96.5723ZM150.234 88.8742C145.609 88.9261 148.843 94.2369 147.904 97.1086C147.782 97.4719 147.956 97.939 147.991 98.3541C146.2 99.3748 145.21 98.0428 144.08 97.074C143.749 96.555 143.506 95.9323 143.071 95.4998C140.307 92.8011 138.968 86.6081 134.257 88.5802C130.189 90.2928 132.762 95.8111 132.466 99.6342C132.831 102.143 130.276 106.606 134.779 106.45C138.308 106.329 136.048 102.022 136.448 99.5997C136.517 99.2018 136.343 98.7693 136.291 98.3541C137.734 93.0952 138.76 98.6482 140.011 98.5098C141.715 100.292 143.436 102.073 145.14 103.873C148.6 108.526 150.547 106.865 151.816 102.298C151.816 100.568 151.798 98.8385 151.798 97.0913C151.52 94.1504 153.328 88.8223 150.234 88.8742ZM144.827 109.183C142.376 107.938 141.02 109.945 141.367 112.626C141.002 113.491 140.655 114.356 140.29 115.221C138.934 121.483 135.717 126.828 131.962 131.897C129.807 134.077 127.651 136.239 125.495 138.419C123.861 138.004 123.026 139.387 121.862 140.01C119.723 140.045 117.985 141.083 116.316 142.259C114.49 142.086 112.874 142.588 111.448 143.73C97.9922 143.435 84.4841 144.871 71.0804 142.536C69.6375 142.225 67.9511 142.588 66.8906 141.135C66.1605 139.491 64.5089 139.215 63.066 138.609C54.2692 131.776 47.5065 123.645 46.0636 112.141C45.8028 110.135 44.864 108.889 42.6735 109.149C39.5616 109.512 40.4309 111.623 40.7786 113.543C42.7083 124.355 47.5065 133.454 56.7553 139.872C57.555 140.425 58.3547 140.996 59.1544 141.55C60.0758 142.968 61.3275 143.92 63.0834 144.093C66.1779 146.255 69.3767 148.106 73.3752 147.726C75.9134 149.3 78.7124 149.075 81.5113 148.815C89.7517 148.815 97.9748 148.815 106.215 148.833C110.44 149.179 114.49 148.608 118.211 146.463C118.228 146.446 118.246 146.446 118.263 146.446C121.792 144.491 126.243 144.058 128.52 140.114C131.041 139.855 132.31 137.969 133.666 136.187C136.674 135.755 138.03 133.246 139.107 131.049C141.437 126.309 143.228 121.293 145.227 116.397C145.54 116.12 145.714 115.826 145.801 115.532C147.226 113.197 147.852 110.688 144.827 109.183ZM120.697 88.0093C117.811 88.0093 115.429 87.992 113.048 88.0093C111.674 88.0266 110.37 88.3207 110.457 90.0852C110.527 91.7805 111.848 92.0573 113.187 92.0746C115.568 92.1265 117.985 92.3686 120.314 92.0227C123.27 91.5729 128.729 93.7699 128.659 90.2754C128.572 85.6047 123.026 89.2894 120.697 88.0093ZM128.503 103.544C122.557 100.862 116.368 102.696 110.283 102.523C110.231 103.717 110.179 104.928 110.144 106.121C110.579 106.139 111.013 106.156 111.465 106.156C112.752 106.173 114.056 106.208 115.36 106.225C118.524 106.312 121.705 106.433 124.887 106.45C126.834 106.467 128.92 106.502 128.503 103.544ZM114.995 61.9569C100.913 62.1818 86.8311 62.0434 72.7494 62.0953C67.6208 62.1299 65.0131 65.9703 67.3427 70.4507C69.3071 74.2219 73.1666 72.1979 76.1221 72.2671C86.327 72.5093 86.3444 72.3536 86.9354 82.1795C86.9876 83.252 86.9702 84.3419 88.0306 85.0166C99.8002 86.3659 99.8002 86.3658 99.8002 75.2425V72.6996C104.772 72.6304 109.762 72.3536 114.716 72.5266C118.541 72.6477 120.749 72.0942 120.679 67.3888C120.61 63.064 119.167 61.8877 114.995 61.9569ZM107.206 96.901C107.693 88.1131 107.589 87.992 98.6876 87.9747C96.7752 87.9747 94.8455 88.1304 92.9332 87.9574C88.8477 87.5595 87.4569 89.324 88.361 93.1817C88.3262 95.3095 88.3088 97.4373 88.2741 99.5823C88.3436 101.814 86.9006 104.305 89.2824 106.191C94.9151 106.035 100.791 108.37 106.128 104.703C108.858 102.419 107.032 99.5305 107.206 96.901ZM92.7593 94.4618C97.8009 90.1544 101.434 91.1058 102.738 97.0394C102.669 97.074 102.617 97.1259 102.564 97.1605C102.617 97.1778 102.669 97.1778 102.721 97.1778C102.564 98.6828 102.425 100.205 102.269 101.71C102.251 101.866 102.234 102.022 102.217 102.177H101.956C99.1917 102.16 96.4276 102.143 93.6634 102.125H93.3157C93.2983 101.797 93.2635 101.451 93.2461 101.122C93.1766 100.309 93.1245 99.5131 93.0723 98.7001V98.6828C93.0028 97.9044 92.9506 97.1259 92.8984 96.3474C92.8637 95.8977 92.8289 95.4479 92.7941 94.9981C92.7941 94.8251 92.7767 94.6348 92.7593 94.4618ZM96.584 109.166C94.3414 108.232 90.6905 107.747 88.048 109.996L87.9959 110.066C85.8576 113.664 87.1267 117.573 87.0223 121.31C86.8137 129.925 87.9959 130.651 96.5493 129.717C101.208 129.216 100.322 125.773 99.7481 123.593C98.4442 118.75 103.781 112.141 96.584 109.166ZM81.5809 102.264C81.5287 101.399 81.4592 100.551 81.3897 99.7035C80.9898 97.0221 79.1296 95.2403 77.4781 93.3201C76.435 91.4691 77.1477 88.4072 73.9315 88.0785C71.3412 87.8017 69.9852 89.151 69.6201 91.6248C69.6027 91.6594 69.5853 91.7113 69.5853 91.7459C69.1507 92.6281 68.6987 93.5104 68.2641 94.4099C67.3948 96.1226 66.5256 97.8352 65.6911 99.5478L65.6737 99.565H65.6563C65.3608 100.049 65.0479 100.534 64.7349 101.018C64.5958 102.835 62.1098 104.461 63.6745 106.225C64.6828 107.367 66.4561 106.813 67.3775 105.256C70.7849 101.762 74.8008 102.523 78.8688 103.613C79.7207 105.827 81.3896 107.748 83.4932 105.914C85.5099 104.149 82.2415 103.527 81.5809 102.264ZM71.2369 97.1778C71.4802 96.728 71.7062 96.2783 71.9496 95.8285C71.9844 95.7766 72.0018 95.7247 72.0366 95.6901C72.2278 95.3268 72.419 94.9635 72.6103 94.6002C74.6617 94.2888 74.9747 96.2609 76.0699 97.1951C76.0699 97.2643 76.0873 97.3335 76.0699 97.4026C76.0873 97.4891 76.0872 97.5584 76.0872 97.6449C76.1046 97.7833 76.0873 97.9216 76.0699 98.06V98.1465C74.6096 98.2849 73.0623 98.9423 71.8453 97.9043C71.6367 97.714 71.4281 97.4892 71.2369 97.1778ZM58.5112 90.0852C58.4938 90.0679 58.4938 90.0505 58.4938 90.0505C58.3895 89.8084 58.2504 89.5662 58.0417 89.3413C53.2957 86.5562 48.1498 88.3207 43.1951 88.1304C40.7786 88.0439 41.0046 90.1889 41.0741 91.9016C41.0915 93.6315 41.0915 95.3614 41.0915 97.0913C41.1089 97.9562 41.1089 98.8039 41.1263 99.6689C41.1089 100.551 41.0741 101.416 41.0567 102.281C41.1784 103.544 41.3175 104.807 41.4392 106.07C48.7061 107.782 43.6645 101.831 45.2465 99.9975H45.2639C47.4892 99.4612 49.5927 99.5478 51.3486 101.26C52.0614 104.08 53.2783 107.575 56.6162 106.139C59.5021 104.893 56.112 102.748 55.5036 100.984C56.3207 100.015 57.1378 99.0461 57.9722 98.0773C58.0765 97.9389 58.1808 97.8005 58.2852 97.6794C60.0758 95.1538 59.9541 92.6108 58.5112 90.0852ZM45.7333 95.2922C45.6463 94.9289 45.5594 94.5829 45.4725 94.2369C45.4204 93.9948 45.3508 93.7699 45.2987 93.5277C45.2813 93.4412 45.2465 93.3547 45.2291 93.2682H45.5942C47.802 93.2336 50.149 92.4033 52.27 93.1644C52.5482 93.2682 52.8089 93.3893 53.0697 93.5623C53.3305 93.7006 53.5912 93.891 53.8346 94.0986C53.9737 94.2197 54.1128 94.358 54.2519 94.4964C51.4529 94.7905 48.6713 95.0846 45.8723 95.3787L45.7333 95.2922ZM145.418 74.7755C145.731 70.7102 141.628 68.4613 141.281 64.6728C140.533 59.7945 136.135 57.684 133.37 54.328C132.119 51.5601 129.772 50.1935 126.99 49.3632C112.3 39.6065 77.2346 39.5373 60.7016 49.2075C59.0501 49.5535 57.7114 50.3838 56.651 51.6466L56.6336 51.664H56.6162C53.7651 53.1171 51.9049 55.6081 49.9926 58.0646C46.3418 62.2683 43.1951 66.7487 42.3954 72.4574C40.5352 75.2599 40.4135 78.564 40.1006 81.6778C39.666 85.9161 41.7869 86.5562 45.1074 84.2554C46.7763 81.3492 46.1679 78.1142 46.4113 75.0004C46.6025 73.6338 46.1853 72.0768 47.5935 71.0562C50.9835 67.9078 50.8097 62.6315 54.4431 59.6215C57.4159 58.8949 57.8679 55.2276 60.6669 54.2934C63.5528 54.2069 65.1174 51.8023 67.3253 50.5222C85.5098 46.6299 103.607 45.765 121.549 51.8542C124.643 54.1031 127.738 56.352 130.85 58.6009C132.64 61.0573 134.431 63.5138 136.239 65.9703C137.977 70.7275 139.698 75.4674 141.437 80.2247C141.663 85.6047 141.854 86.1756 145.592 84.5495C145.905 84.4457 146.253 84.3073 146.635 84.0997C146.635 83.2348 146.618 82.3871 146.618 81.5394C146.635 79.2041 147.07 76.7995 145.418 74.7755ZM21.1337 88.0612C19.9515 87.9747 19.1692 88.805 19.0301 90.016C18.891 91.1577 19.2213 92.6281 20.2818 92.6108C28.1224 92.5762 24.6976 98.6309 25.7059 102.264C25.1496 105.274 25.7581 107.194 29.4437 106.243C32.034 102.973 30.1738 99.2537 30.5041 95.7593C30.817 91.3653 35.5979 94.3061 37.0756 91.8323C37.1451 90.9847 37.2147 90.1371 37.2668 89.2894C32.1035 86.2967 26.5056 88.5109 21.1337 88.0612ZM128.311 96.0533C122.713 94.9981 117.081 95.4133 111.448 95.7593C109.605 96.4858 110.405 98.0947 110.266 99.3921C111.118 99.4094 111.97 99.4267 112.821 99.444C113.343 99.444 113.882 99.4613 114.404 99.4786C117.898 99.5305 121.41 99.5997 124.904 99.6689H124.921C126.069 99.6862 127.234 99.7207 128.381 99.738C129.389 98.4925 130.05 97.247 128.311 96.0533Z" fill="#FEFEFE"/>
<path d="M121.55 51.8542C103.609 45.765 85.5113 46.6299 67.3268 50.5222C65.1363 50.0032 62.0939 53.7744 60.7031 49.2075C77.2361 39.5373 112.301 39.6065 126.992 49.3632C127.392 54.9854 124.262 52.9614 121.55 51.8542Z" fill="#8CF7A4"/>
<path d="M63.0664 138.609C62.3884 139.301 61.5539 139.509 60.6151 139.457C60.4934 139.509 60.3543 139.509 60.2153 139.457C60.024 139.439 59.8328 139.336 59.6242 139.215C58.5811 138.575 57.4511 137.242 56.7557 139.872C47.5069 133.454 42.7087 124.355 40.779 113.543C40.4313 111.623 39.562 109.512 42.6739 109.149C44.8644 108.889 45.8032 110.135 46.064 112.142C47.5069 123.645 54.2697 131.776 63.0664 138.609Z" fill="#2BD1E5"/>
<path d="M120.678 67.3889C120.748 72.0942 118.54 72.6478 114.715 72.5267C109.761 72.3537 104.771 72.6305 99.7992 72.6997C99.7123 69.0495 102.702 69.7242 104.737 69.4821C108.092 69.0842 111.517 69.5166 114.872 69.136C115.028 69.0669 115.167 68.9804 115.306 68.8939C115.758 68.6517 116.158 68.3922 116.402 68.1154C116.923 67.5618 116.889 66.8872 115.567 66.0568C113.898 64.9843 111.847 65.2265 109.917 65.2265C99.1907 65.2092 88.4816 65.1573 77.7552 65.2611C75.2865 65.2784 72.5223 64.7075 70.7317 67.2159C70.7143 67.804 70.7665 68.2365 70.9229 68.5652C71.3575 69.7069 72.6614 69.4129 73.8088 69.3956C74.0174 69.3956 74.2087 69.3956 74.3825 69.4302C74.4695 69.4302 74.5564 69.4474 74.6433 69.4647H75.9645C77.4422 69.4474 78.92 69.4475 80.3977 69.4475H82.5186C82.7273 69.4648 82.9185 69.4647 83.1271 69.4647C84.2571 69.4993 85.3871 69.6031 86.465 69.9145C86.7258 69.9664 86.9866 70.0529 87.2473 70.1567C87.7515 70.3989 88.1861 70.7276 88.5164 71.1601C88.6033 71.2466 88.6729 71.3503 88.7424 71.4541C88.7772 71.5406 88.8293 71.6271 88.8467 71.7136C89.6812 73.6511 89.6291 75.7097 89.5943 77.751V79.083C89.5943 79.2906 89.5943 79.4809 89.5769 79.6885C89.5769 80.3978 89.5247 81.1243 89.4552 81.8336C89.4378 81.9374 89.4378 82.0412 89.403 82.145C89.3857 82.3526 89.3509 82.5601 89.2987 82.7504C89.2814 82.9061 89.2466 83.0445 89.1944 83.1829C89.177 83.3213 89.1249 83.4597 89.0901 83.5981C89.038 83.7019 88.9858 83.7884 88.9337 83.8922C88.6903 84.3073 88.3947 84.6707 88.0296 85.0166C86.9691 84.342 86.9866 83.2521 86.9344 82.1796C86.3433 72.3537 86.3259 72.5094 76.121 72.2672C73.1656 72.198 69.3061 74.222 67.3416 70.4508C65.0121 65.9703 67.6198 62.13 72.7484 62.0954C86.8301 62.0435 100.912 62.1818 114.994 61.9569C119.166 61.8877 120.609 63.0641 120.678 67.3889Z" fill="#77EEB3"/>
<path d="M145.799 115.533C145.712 115.827 145.539 116.121 145.226 116.397C143.226 121.293 141.436 126.31 139.106 131.05C138.028 133.247 136.672 135.755 133.665 136.188C132.934 134.821 132.639 133.281 131.961 131.897C135.716 126.829 138.932 121.483 140.288 115.221C141.696 114.304 142.896 112.661 144.774 113.336C144.913 113.387 145.052 113.457 145.208 113.543C145.313 113.578 145.399 113.63 145.504 113.699C145.799 114.322 145.973 114.944 145.799 115.533Z" fill="#2ED2E4"/>
<path d="M146.634 84.0997C146.252 84.3073 145.904 84.4457 145.591 84.5495C142.236 85.7431 142.288 82.3698 141.436 80.2247C139.698 75.4675 137.977 70.7275 136.238 65.9703C136.308 65.8665 136.36 65.7627 136.412 65.6416C136.899 64.3442 136.012 62.2856 138.203 62.0261C139.872 61.8358 140.48 63.5138 141.28 64.6729C141.628 68.4613 145.73 70.7102 145.417 74.7755C146.704 76.8687 145.052 79.4809 146.617 81.5394C146.617 82.3871 146.634 83.2348 146.634 84.0997Z" fill="#6CEABB"/>
<path d="M107.207 96.9009C105.712 96.3647 104.217 97.3853 102.722 97.1777C102.67 97.1777 102.617 97.1777 102.565 97.1604C102.617 97.1258 102.67 97.0739 102.739 97.0393C101.435 91.1057 97.8018 90.1543 92.7601 94.4618C92.7775 94.6348 92.7949 94.825 92.7949 94.998C91.0391 95.1537 89.5787 94.5137 88.3618 93.1817C87.4578 89.324 88.8486 87.5594 92.934 87.9573C94.8463 88.1303 96.7761 87.9746 98.6884 87.9746C107.589 87.9919 107.694 88.113 107.207 96.9009Z" fill="#83F0B2"/>
<path d="M104.803 144.681C104.803 144.836 104.803 144.975 104.786 145.113C104.803 145.148 104.803 145.165 104.786 145.182C104.63 148.417 101.778 147.397 99.9183 147.518C94.2334 147.916 88.4791 147.051 82.7942 148.192C82.3596 148.141 81.925 148.123 81.4904 148.123C81.3339 148.106 81.1774 148.106 81.021 148.106C78.4654 148.089 75.8924 148.487 73.3716 147.725C69.3731 148.106 66.1743 146.255 63.0798 144.093C62.8538 141.204 64.0359 140.096 66.887 141.134C67.9475 142.588 69.6339 142.224 71.0768 142.536C77.1615 145.58 83.6982 144.023 90.0437 144.352C94.9636 144.612 99.901 144.006 104.803 144.681Z" fill="#0CCDF5"/>
<path d="M116.662 71.1428C111.082 72.0596 105.136 69.2745 99.7989 72.6997V75.2426C99.7989 86.3659 99.7989 86.366 88.0293 85.0167C88.0641 84.688 88.0988 84.3593 88.151 84.0306C88.4639 83.6327 88.8116 83.3559 89.1941 83.1829C89.5766 82.9753 89.9938 82.837 90.4111 82.7851C92.2365 82.4218 94.3748 82.8542 95.783 81.5222C96.0264 81.28 96.2523 81.0033 96.4436 80.64C96.6696 79.4983 96.7392 78.3565 96.7044 77.1974C96.7218 76.9207 96.7044 76.6266 96.687 76.3325V76.2806C96.7565 74.568 95.8699 73.063 95.4179 71.4715V71.4541C95.4005 71.3503 95.3658 71.2466 95.3484 71.1428C95.2441 70.693 95.1745 70.2432 95.1919 69.7589C96.6522 66.3163 99.7293 66.9564 102.441 67.0429C105.918 67.164 109.378 66.3683 112.82 66.9564C114.124 67.1813 115.619 67.3197 116.401 68.1154C116.975 68.6863 117.184 69.6031 116.662 71.1428Z" fill="#6FECB8"/>
<path d="M144.08 97.0741C143.02 98.3888 141.542 98.5099 140.012 98.5099C138.76 98.6483 137.735 93.0953 136.292 98.3542C135.197 99.3229 134.153 100.465 132.467 99.6343C132.763 95.8112 130.19 90.2928 134.258 88.5802C138.969 86.6081 140.308 92.8012 143.072 95.4998C143.506 95.9323 143.75 96.5551 144.08 97.0741Z" fill="#5EE4C5"/>
<path d="M128.521 140.114C126.244 144.058 121.793 144.49 118.264 146.445C118.247 146.445 118.229 146.445 118.212 146.462C114.405 147.051 110.771 148.884 106.738 148.123C106.703 148.123 106.668 148.106 106.634 148.106C106.495 148.019 106.355 147.933 106.251 147.812C105.521 147.189 105.556 146.307 105.73 145.355C105.799 145.251 105.886 145.165 105.956 145.079C106.025 145.027 106.077 144.975 106.129 144.94C107.659 143.66 109.971 145.13 111.449 143.729C112.875 142.587 114.492 142.086 116.317 142.259C118.281 141.809 120.176 141.152 121.863 140.01C123.028 139.387 123.862 138.003 125.496 138.418C127.235 137.692 128.625 137.588 128.521 140.114Z" fill="#13CBF4"/>
<path d="M99.7458 123.594C100.319 125.773 101.206 129.216 96.547 129.718C87.9936 130.652 86.8114 129.925 87.02 121.31C87.1244 117.574 85.8553 113.664 87.9936 110.066C89.5408 111.865 89.819 113.854 89.819 115.878C89.819 116.743 89.7842 117.608 89.7668 118.473C89.7494 119.131 89.7495 119.788 89.8016 120.445C89.8538 121.985 89.7495 123.542 90.045 125.081C90.4101 125.306 90.7926 125.531 91.1577 125.739C93.1395 126.881 94.9997 127.521 96.0428 125.289C96.2862 124.787 96.4774 124.13 96.6339 123.282C96.7034 121.431 96.6339 119.598 96.6165 117.781C96.6512 117.504 96.686 117.245 96.7034 116.985C96.7382 116.518 96.7382 116.051 96.7034 115.636C96.4774 113.059 94.8606 111.623 91.4706 111.571C90.1667 111.554 88.9845 110.983 88.0457 109.997C90.6882 107.748 94.3391 108.232 96.5817 109.166C103.779 112.142 98.4419 118.75 99.7458 123.594Z" fill="#50D8D5"/>
<path d="M173.862 93.1992C172.784 94.1852 171.532 94.4274 170.141 94.2544C170.141 93.8912 170.124 93.5452 170.124 93.1819C166.577 91.3482 163.048 91.3482 159.519 93.1992V93.2165C159.502 93.5625 159.502 93.9085 159.502 94.2544C158.094 94.4447 156.824 94.168 155.764 93.1819C155.382 90.5352 155.99 88.3382 159.067 88.1479C162.892 87.9403 166.751 87.9403 170.558 88.1479C173.653 88.3209 174.227 90.5524 173.862 93.1992Z" fill="#78F1B2"/>
<path d="M128.659 90.275C128.729 93.7694 123.27 91.5725 120.314 92.0222C117.985 92.3682 115.568 92.126 113.187 92.0741C111.848 92.0568 110.527 91.7801 110.457 90.0848C110.37 88.3202 111.674 88.0261 113.048 88.0088C115.429 87.9915 117.811 88.0088 120.697 88.0088C123.026 89.289 128.572 85.6043 128.659 90.275Z" fill="#7AF3AE"/>
<path d="M141.281 64.6726C138.917 62.0778 137.544 63.4444 136.414 65.6414C136.344 65.7452 136.292 65.8663 136.24 65.9701C134.432 63.5136 132.641 61.0571 130.85 58.6006C130.729 58.4277 130.642 58.2374 130.52 58.0644C129.147 56.075 124.661 54.8467 127.252 51.8886C129.494 49.3456 131.268 53.4628 133.371 54.3278C136.135 57.6838 140.534 59.7943 141.281 64.6726Z" fill="#80EDB2"/>
<path d="M54.4423 59.6214C50.8089 62.6314 50.9827 67.9077 47.5926 71.0561C45.4369 70.0008 44.6546 73.945 42.3945 72.4573C43.1942 66.7486 46.3409 62.2681 49.9918 58.0645C51.8693 57.459 53.3818 57.9261 54.4423 59.6214Z" fill="#75EBB9"/>
<path d="M47.5941 71.0562C46.1859 72.0768 46.6031 73.6337 46.4119 75.0004C44.5343 77.8893 46.6727 81.3318 45.108 84.2554C41.7875 86.5562 39.6666 85.9161 40.1012 81.6778C40.4142 78.564 40.5358 75.2599 42.396 72.4574C44.2388 72.3709 45.0559 68.5478 47.5941 71.0562Z" fill="#6BE7C0"/>
<path d="M58.0435 92.3162L58.0262 92.3334C57.8697 92.4545 57.7133 92.5757 57.5394 92.6795C56.8266 93.1292 56.0269 93.3541 55.175 93.4752C55.1055 93.4752 55.0534 93.4925 54.9838 93.4925C54.358 93.5271 53.7147 93.5444 53.0715 93.5617C52.8107 93.3887 52.55 93.2676 52.2718 93.1638C50.1508 92.4027 47.8038 93.233 45.596 93.2676H45.2309C45.2483 93.3541 45.2831 93.4406 45.3004 93.5271C44.8658 93.5098 44.4312 93.4579 43.9966 93.4233C42.8666 93.233 41.9626 92.5756 41.0759 91.901C41.0064 90.1884 40.7804 88.0433 43.1969 88.1298C48.1516 88.3201 53.2975 86.5556 58.0435 89.3407C58.2522 89.5656 58.3912 89.8078 58.4956 90.05C58.4956 90.05 58.4956 90.0673 58.513 90.0846C58.7911 90.8285 58.5825 91.5723 58.0435 92.3162Z" fill="#85F6A8"/>
<path d="M58.2855 97.679C58.1812 97.8001 58.0769 97.9385 57.9725 98.0769C57.1381 99.0457 56.321 100.014 55.5039 100.983C54.1826 102.004 52.7397 101.295 51.3489 101.26C49.593 99.5473 47.4895 99.4608 45.2642 99.9971H45.2468C43.856 100.014 42.4305 100.637 41.1266 99.6684C41.1092 98.8035 41.1092 97.9558 41.0918 97.0908C42.048 95.5166 43.3345 94.4787 45.2294 94.2711C45.3163 94.2538 45.3859 94.2365 45.4728 94.2365C45.5597 94.5825 45.6467 94.9285 45.7336 95.2745V95.2917L45.8726 95.3783C48.6716 95.0842 51.4532 94.7901 54.2522 94.496C54.1131 94.3576 53.974 94.2192 53.8349 94.0981C54.1131 94.1154 54.3912 94.1327 54.6694 94.1846C55.6429 94.323 56.6165 94.5825 57.5553 95.0496C57.6596 95.1015 57.7813 95.1534 57.8856 95.2226C57.9377 95.2745 57.9899 95.3264 58.0247 95.3783C58.6679 96.1221 58.807 96.8833 58.2855 97.679Z" fill="#4ADDD3"/>
<path d="M106.738 148.123C106.755 148.227 106.738 148.331 106.685 148.435C106.529 148.694 106.373 148.833 106.216 148.833C97.9757 148.815 89.7526 148.815 81.5121 148.815C81.1297 148.591 80.9732 148.348 81.0254 148.106C81.0254 148.072 81.0428 148.037 81.0602 148.002C81.2166 147.726 81.3557 147.605 81.4948 147.605C86.7103 145.719 92.1343 146.497 97.4715 146.255C99.9228 146.151 102.617 147.172 104.791 145.183C104.825 145.165 104.843 145.148 104.877 145.113C105.277 144.646 105.695 144.577 106.129 144.94L106.268 145.079C106.251 145.909 106.251 146.757 106.251 147.605C106.529 147.778 106.703 147.951 106.738 148.123Z" fill="#1ACBF6"/>
<path d="M81.5823 102.264C80.8869 103.112 80.0176 103.613 78.8702 103.613C74.8022 102.523 70.7863 101.762 67.3789 105.257C65.1188 104.703 65.536 102.489 64.7363 101.018C65.0493 100.534 65.3622 100.05 65.6577 99.5653H65.6751L65.6925 99.548C67.5701 98.0603 69.691 97.9392 71.8467 97.9046C73.0637 98.9425 74.611 98.2852 76.0713 98.1468V98.0603C76.0887 97.9219 76.106 97.7835 76.0886 97.6451C78.1401 97.5413 79.7917 98.5447 81.3911 99.7037C81.4606 100.551 81.5301 101.399 81.5823 102.264Z" fill="#2FD5E3"/>
<path d="M124.907 99.6689C121.412 99.5997 117.901 99.5305 114.406 99.4786C117.901 98.5963 121.412 98.6655 124.907 99.6689Z" fill="#EDF1F2"/>
<path d="M124.883 106.45C121.702 106.433 118.52 106.312 115.356 106.226C114.052 106.208 112.748 106.174 111.462 106.156C111.01 106.156 110.575 106.139 110.141 106.122C110.593 105.741 111.079 105.395 111.618 105.118C111.653 105.084 111.688 105.067 111.723 105.049C112.731 104.686 113.774 104.582 114.835 104.53C115.008 104.53 115.2 104.513 115.373 104.513H115.391C118.086 104.184 120.902 105.24 123.44 103.908C120.745 103.717 118.016 104.184 115.373 103.994C115.269 104.011 115.165 103.994 115.078 103.977C114.435 103.942 113.791 103.838 113.148 103.683C112.175 103.458 111.219 103.094 110.28 102.524C116.364 102.697 122.553 100.863 128.499 103.544C128.916 106.502 126.83 106.468 124.883 106.45Z" fill="#EDF1F2"/>
<path d="M111.448 143.729C110.092 145.598 108.04 144.802 106.267 145.079H105.954C105.589 145.079 105.241 145.096 104.876 145.113H104.789C96.1491 145.079 87.4914 145.027 78.8338 145.044C75.9479 145.044 73.201 144.836 71.0801 142.536C84.4838 144.871 97.9919 143.435 111.448 143.729Z" fill="#20CAF1"/>
<path d="M106.128 104.703C100.791 108.37 94.9151 106.035 89.2824 106.191C88.5522 103.976 87.6482 101.728 90.5689 100.292C91.0209 100.274 91.4555 100.344 91.8727 100.465C91.9944 100.499 92.0988 100.534 92.2031 100.568C92.2726 100.586 92.3247 100.62 92.3769 100.638C92.6724 100.828 92.9506 100.984 93.2461 101.122C93.2635 101.451 93.2983 101.797 93.3157 102.125H93.6634C96.4276 102.143 99.1918 102.16 101.956 102.177H102.217C102.234 102.022 102.251 101.866 102.269 101.71C102.321 101.71 102.391 101.693 102.443 101.693C102.86 101.624 103.277 101.606 103.712 101.641C103.886 101.624 104.06 101.641 104.233 101.658C104.39 101.693 104.529 101.728 104.668 101.797H104.685C104.877 101.849 105.05 101.935 105.207 102.039C105.555 102.212 105.85 102.471 106.094 102.765C106.215 102.887 106.32 103.025 106.406 103.163C106.737 103.752 106.65 104.27 106.128 104.703Z" fill="#11CBF8"/>
<path d="M60.6684 54.2937C57.8695 55.2278 57.4175 58.8952 54.4447 59.6218C52.9669 59.1028 51.4892 58.5838 49.9941 58.0649C51.9065 55.6084 53.7667 53.1174 56.6178 51.6642H56.6351L56.6525 51.6469C58.4084 50.8858 60.3381 50.2976 61.7984 51.8718C62.6329 52.7714 61.5551 53.7055 60.6684 54.2937Z" fill="#84F0B0"/>
<path d="M37.2668 89.2899C34.6243 91.6945 31.356 90.8122 28.2788 90.916C23.9326 91.037 28.6961 92.4902 28.1224 93.1649V93.1822C28.0876 93.2341 28.0181 93.2686 27.9312 93.3032C27.9833 93.4762 28.0355 93.6665 28.0702 93.8395C28.6439 96.0192 28.6266 98.1989 28.0181 100.413C27.9312 100.621 27.8442 100.811 27.7225 100.984C27.6182 101.209 27.4792 101.399 27.3227 101.572C26.9576 102.005 26.4361 102.281 25.7059 102.264C24.6976 98.6314 28.1224 92.5767 20.2818 92.6113C19.2213 92.6286 18.891 91.1582 19.0301 90.0164C19.1692 88.8055 19.9515 87.9751 21.1337 88.0616C26.5056 88.5114 32.1035 86.2972 37.2668 89.2899Z" fill="#90EBBC"/>
<path d="M37.2673 89.2894C37.2151 90.1371 37.1455 90.9847 37.076 91.8323C34.9029 93.4757 31.8432 91.5036 29.7744 93.5103C29.7222 93.5449 29.6874 93.5969 29.6353 93.6488C29.6179 93.6661 29.6179 93.666 29.6005 93.6833C29.079 93.8563 28.5574 93.9255 28.0707 93.839C27.636 93.7525 27.2014 93.545 26.8189 93.1817C25.5151 90.9501 22.664 92.6627 20.1953 89.9814C26.3496 88.6839 31.878 89.5489 37.2673 89.2894Z" fill="#84F6A7"/>
<path d="M151.812 102.299C149.709 103.319 147.257 102.887 145.136 103.873C143.433 102.074 141.712 100.292 140.008 98.5103C140.947 96.8495 142.563 97.1091 144.076 97.0745C145.206 98.0432 146.197 99.3752 147.987 98.3546C148.891 96.8668 149.882 95.5867 151.795 97.0917C151.795 98.8389 151.812 100.569 151.812 102.299Z" fill="#44DADA"/>
<path d="M128.315 96.0528C127.62 98.3363 127.22 99.3397 124.925 99.6684H124.908C121.414 99.5992 117.902 99.53 114.408 99.4781C113.886 99.4608 113.347 99.4435 112.826 99.4435C111.678 99.0975 110.965 98.1807 111.452 95.7588C117.085 95.4128 122.718 94.9976 128.315 96.0528Z" fill="#48E1CF"/>
<path d="M77.4759 93.3197C76.937 94.6172 77.7541 96.2952 76.3633 97.385C76.259 97.4023 76.1721 97.4196 76.0678 97.4023C76.0852 97.3331 76.0678 97.2639 76.0678 97.1947C74.9725 96.2606 74.6596 94.2885 72.6082 94.5999C72.4169 94.9631 72.2257 95.3264 72.0345 95.6897C71.8606 95.5859 71.652 95.4994 71.4607 95.4129C70.2786 94.4615 68.94 93.5792 69.5832 91.7455C69.5832 91.7109 69.6006 91.659 69.618 91.6244C69.983 89.1507 71.3391 87.8013 73.9294 88.0781C77.1456 88.4068 76.4329 91.4687 77.4759 93.3197Z" fill="#7DF2B1"/>
<path d="M171.356 106.208C167.792 106.311 164.211 106.467 160.647 106.519C157.814 106.554 155.658 105.689 155.745 102.298C156.875 101.243 158.231 101.018 159.726 101.208C159.761 101.485 159.778 101.762 159.795 102.038H159.865C162.368 102.073 164.854 102.09 167.358 102.108C169.548 102.506 171.739 103.042 171.356 106.208Z" fill="#11D0F1"/>
<path d="M151.798 97.0915C150.529 97.5239 149.26 97.9391 147.991 98.3543C147.956 97.9391 147.782 97.4721 147.904 97.1088C148.843 94.2371 145.609 88.9263 150.233 88.8744C153.328 88.8225 151.52 94.1506 151.798 97.0915Z" fill="#59E3C9"/>
<path d="M130.852 58.601C127.74 56.3521 124.645 54.1032 121.551 51.8544C123.933 52.2522 126.262 52.529 126.992 49.3633C129.774 50.1936 132.121 51.5603 133.373 54.3281C131.634 53.6015 129.913 52.875 127.861 52.0274C126.888 55.245 130.904 56.0753 130.852 58.601Z" fill="#8BF1AC"/>
<path d="M133.667 136.187C132.311 137.969 131.042 139.855 128.521 140.114C127.913 138.834 126.765 138.54 125.496 138.419C127.652 136.239 129.808 134.077 131.963 131.897C134.328 132.624 134.588 134.18 133.667 136.187Z" fill="#0FD2EC"/>
<path d="M128.381 99.7376C127.233 99.7203 126.068 99.6857 124.921 99.6684H124.904C121.409 99.5992 117.898 99.53 114.403 99.4781C113.882 99.4608 113.343 99.4435 112.821 99.4435C111.969 99.4262 111.117 99.4089 110.266 99.3916C110.405 98.0942 109.605 96.4853 111.448 95.7588C114.734 99.357 124.417 99.53 128.311 96.0528C130.05 97.2465 129.389 98.492 128.381 99.7376Z" fill="#5ADAD5"/>
<path d="M29.4415 106.242C27.9291 105.083 28.242 103.025 27.3206 101.571C27.1815 101.364 27.025 101.156 26.8338 100.983C26.8338 98.3884 26.8164 95.7762 26.8164 93.1814C27.251 93.1641 27.6856 93.1641 28.1203 93.1814V93.1641H29.4241C29.5806 93.2679 29.6849 93.3716 29.7719 93.51C30.0152 93.8733 30.05 94.3404 30.1022 94.7902V94.8074C30.1717 95.1534 30.2586 95.4994 30.502 95.7589C30.1717 99.2533 32.0319 102.973 29.4415 106.242Z" fill="#5FDBD2"/>
<path d="M134.779 106.449C130.277 106.605 132.832 102.142 132.467 99.6336C133.736 99.2185 135.005 98.786 136.292 98.3535C136.344 98.7687 136.518 99.2012 136.448 99.5991C136.048 102.021 138.308 106.328 134.779 106.449Z" fill="#3ED4E3"/>
<path d="M106.131 104.703C106.114 104.323 106.114 103.959 106.079 103.579C105.749 103.163 105.575 102.42 105.21 102.039C105.071 101.901 104.897 101.797 104.688 101.797H104.671C104.41 101.797 104.063 101.918 103.628 102.247C103.454 102.35 103.263 102.437 103.089 102.523C102.985 102.558 102.88 102.575 102.776 102.575C102.515 102.575 102.272 102.472 102.029 102.247C101.994 102.229 101.976 102.195 101.959 102.177H102.22C102.237 102.022 102.255 101.866 102.272 101.71C102.428 100.205 102.567 98.6831 102.724 97.1781C102.672 97.1781 102.62 97.178 102.567 97.1607C102.62 97.1261 102.672 97.0742 102.741 97.0396C103.35 95.9325 103.784 94.0642 104.619 93.8739C106.757 93.3723 105.836 96.2439 107.209 96.9013C107.035 99.5307 108.861 102.42 106.131 104.703Z" fill="#66DFD3"/>
<path d="M56.6133 106.139C53.2754 107.575 52.0585 104.08 51.3457 101.26C52.58 98.9596 54.0751 100.482 55.5007 100.984C56.1091 102.748 59.4992 104.893 56.6133 106.139Z" fill="#2CD0EA"/>
<path d="M76.4177 98.5444C73.0102 100.793 69.2551 99.219 65.6738 99.565L65.6912 99.5477C66.5257 97.8351 67.3949 96.1225 68.2642 94.4099C69.9853 93.4066 70.6633 95.1538 71.7759 95.7073C71.8281 95.7592 71.8976 95.7938 71.9497 95.8284C71.7064 96.2782 71.4803 96.728 71.237 97.1778C71.4282 97.4892 71.6368 97.714 71.8454 97.9043C73.0624 98.9422 74.6097 98.2849 76.07 98.1465V98.06C76.2091 98.1811 76.3307 98.3541 76.4177 98.5444Z" fill="#49DCD7"/>
<path d="M171.359 106.208C168.664 100.984 162.944 105.464 159.52 102.558C159.641 102.385 159.746 102.212 159.867 102.039C162.371 102.074 164.857 102.091 167.36 102.108C168.177 102.108 168.977 102.126 169.794 102.126C169.898 101.572 169.985 101.001 170.072 100.448C171.567 100.361 173.028 100.396 173.862 102.247C174.245 104.323 173.966 105.983 171.359 106.208Z" fill="#2ED0EC"/>
<path d="M128.499 103.544C124.883 105.932 120.815 104.375 116.99 104.842C116.451 104.876 115.912 104.859 115.373 104.842C115.182 104.842 114.991 104.842 114.782 104.859C113.583 104.876 112.418 105.084 111.462 106.156C111.01 106.156 110.575 106.139 110.141 106.122C110.175 104.928 110.228 103.717 110.28 102.524C116.364 102.697 122.553 100.863 128.499 103.544Z" fill="#43CFE3"/>
<path d="M66.888 141.135C64.9061 141.204 63.7587 142.346 63.0807 144.093C61.3249 143.92 60.0731 142.968 59.1517 141.55C58.6302 140.425 58.9431 139.716 59.6211 139.214C59.8993 138.989 60.247 138.799 60.6295 138.626C61.4466 138.609 62.2636 138.609 63.0633 138.609C64.5063 139.214 66.1578 139.491 66.888 141.135Z" fill="#0BCFF0"/>
<path d="M60.6681 54.2934C61.9545 49.4151 57.8865 52.6847 56.6348 51.664L56.6522 51.6467C57.7126 50.3839 59.0513 49.5535 60.7028 49.2075C62.4761 51.8197 65.4141 48.5848 67.3265 50.5223C65.1186 51.8024 63.554 54.207 60.6681 54.2934Z" fill="#89F2AD"/>
<path d="M151.818 102.298C150.549 106.865 148.602 108.526 145.143 103.872C146.69 100.464 149.298 101.554 151.818 102.298Z" fill="#0ECDF5"/>
<path d="M93.0687 98.6824V98.6997C92.9123 99.3224 92.6167 99.9279 92.1995 100.568C92.0952 100.724 91.9735 100.897 91.8518 101.052C88.2357 101.398 89.696 104.27 89.2788 106.19C86.8971 104.305 88.34 101.814 88.2705 99.5819C88.4617 99.3571 88.566 99.0803 88.6356 98.7689C88.9659 97.039 87.8011 94.3403 90.3219 94.7382C91.6431 94.9458 92.495 95.534 92.8949 96.347C92.947 97.1255 92.9992 97.904 93.0687 98.6824Z" fill="#5FDBD7"/>
<path d="M93.6647 102.126C93.6299 102.16 93.5952 102.195 93.5604 102.212C93.2127 102.506 92.8302 102.576 92.3956 102.42C92.2391 102.351 92.1 102.264 91.9436 102.178C91.8914 101.797 91.8567 101.434 91.8567 101.053C91.8567 100.863 91.8567 100.673 91.8741 100.465C91.9088 98.6487 92.3782 96.6766 90.1877 95.2754C89.6488 96.469 89.1446 97.628 88.6405 98.7698C88.5188 99.0466 88.3971 99.306 88.2754 99.5828C88.3102 97.4377 88.3275 95.31 88.3623 93.1822C89.9965 93.0438 91.4916 93.3725 92.7607 94.4623C92.778 94.6353 92.7955 94.8256 92.7955 94.9986C92.8302 95.4484 92.865 95.8981 92.8998 96.3479C92.9519 97.1264 93.0041 97.9048 93.0736 98.6833V98.7006C93.1258 99.5136 93.1779 100.309 93.2474 101.122C93.2648 101.451 93.2996 101.797 93.317 102.126H93.6647Z" fill="#76E5C7"/>
<path d="M41.4391 106.07C42.4822 104.703 42.8299 103.388 41.0566 102.281C41.074 101.416 41.1088 100.551 41.1262 99.6692C42.5518 99.0984 44.0469 97.6971 45.2638 99.9806V99.9979H45.2464C43.6644 101.832 48.706 107.782 41.4391 106.07Z" fill="#3DD9DD"/>
<path d="M81.3901 99.7037C79.7211 99.3231 78.0695 98.9252 76.418 98.5446L76.0703 98.1468V98.0602C76.0877 97.9218 76.105 97.7835 76.0877 97.6451C76.0877 97.5586 76.0877 97.4894 76.0703 97.4029C76.0877 97.3337 76.0703 97.2645 76.0703 97.1953C76.3659 95.8287 75.9834 94.2372 77.4785 93.3203C79.13 95.2405 80.9902 97.0223 81.3901 99.7037Z" fill="#49DCD7"/>
<path d="M29.4419 106.243C25.7563 107.194 25.1479 105.274 25.7042 102.264C26.0867 101.849 26.4691 101.416 26.8342 100.984C27.1645 100.966 27.46 100.966 27.7208 100.984C31.4238 101.209 28.3119 104.755 29.4419 106.243Z" fill="#13CCF7"/>
<path d="M159.793 102.038L159.515 102.557C158.263 102.471 156.994 102.384 155.742 102.298V97.0908C156.942 96.122 158.159 95.9317 159.445 96.5718C159.428 96.7448 159.428 96.9351 159.428 97.1081C159.532 98.4747 159.636 99.8413 159.723 101.208C159.758 101.485 159.775 101.762 159.793 102.038Z" fill="#45DAD8"/>
<path d="M145.8 115.532C145.626 115.826 145.417 116.12 145.226 116.397V113.958C145.104 113.681 144.948 113.491 144.774 113.335C143.852 112.505 142.409 113.145 141.366 112.626C141.019 109.945 142.375 107.938 144.826 109.183C147.851 110.688 147.225 113.197 145.8 115.532Z" fill="#4CD6D6"/>
<path d="M60.634 138.626C60.4949 138.903 60.3558 139.18 60.2167 139.457C59.869 140.149 59.504 140.841 59.1563 141.55C58.3566 140.996 57.5568 140.425 56.7571 139.872C56.4442 138.488 56.1313 137.104 55.6445 134.89C57.7307 136.447 59.191 137.536 60.634 138.626Z" fill="#0DD0EF"/>
<path d="M118.265 146.428C118.247 146.445 118.23 146.445 118.212 146.462C114.492 148.607 110.441 149.178 106.217 148.832C106.234 148.486 106.234 148.158 106.252 147.812V147.604C110.25 147.223 114.266 146.826 118.265 146.428Z" fill="#26CCEF"/>
<path d="M145.207 113.543C145.207 113.698 145.207 113.82 145.224 113.958C143.59 114.39 141.939 114.806 140.287 115.221C140.652 114.356 141 113.491 141.365 112.626C142.53 112.263 142.773 110.204 144.251 110.723C145.589 111.173 145.259 112.453 145.207 113.543Z" fill="#3ED5DE"/>
<path d="M67.3802 105.256C66.4588 106.813 64.6855 107.367 63.6772 106.225C62.1125 104.461 64.5985 102.834 64.7376 101.018C65.6243 102.437 66.5109 103.838 67.3802 105.256Z" fill="#29CCF2"/>
<path d="M159.515 93.2162C159.497 93.5622 159.497 93.9082 159.497 94.2542C159.463 95.0153 159.445 95.7938 159.445 96.5722C159.428 96.7452 159.428 96.9355 159.428 97.1085C158.193 97.0912 156.977 97.0912 155.742 97.0912C155.76 95.7938 155.76 94.4791 155.76 93.1816C157.011 93.1816 158.263 93.1989 159.497 93.1989L159.515 93.2162Z" fill="#60E6C3"/>
<path d="M83.4935 105.914C81.39 107.747 79.721 105.827 78.8691 103.613C79.4602 102.523 80.4685 102.264 81.5812 102.264C82.2418 103.527 85.5102 104.149 83.4935 105.914Z" fill="#22CCF1"/>
<path d="M45.7373 95.2747C44.19 95.8802 42.6427 96.4856 41.0955 97.0911C41.0955 95.3612 41.0955 93.6313 41.0781 91.9014C41.9821 91.9014 42.8687 91.9014 43.7728 91.9187C44.2943 92.4377 45.0418 92.6279 45.546 93.1642C45.5634 93.1988 45.5808 93.2334 45.5981 93.268H45.2331C45.2505 93.3545 45.2853 93.441 45.3026 93.5275C45.3548 93.7697 45.4243 93.9946 45.4765 94.2368C45.5634 94.5827 45.6503 94.9287 45.7373 95.2747Z" fill="#6AE2C9"/>
<path d="M37.0732 91.8324C35.5954 94.3062 30.8146 91.3654 30.5017 95.7593C30.3626 95.448 30.2409 95.1192 30.1019 94.8079V94.7906C29.928 94.41 29.7715 94.0294 29.6324 93.6489C29.5629 93.4932 29.4934 93.3202 29.4238 93.1645C31.6317 90.7945 34.5176 92.2649 37.0732 91.8324Z" fill="#90EBBC"/>
<path d="M173.858 93.1989C173.858 94.479 173.841 95.7765 173.841 97.0566C172.572 97.5583 171.303 97.9735 170.208 97.2815C170.155 97.2642 170.121 97.2296 170.086 97.195C170.121 97.1604 170.173 97.1258 170.208 97.0912C170.19 96.1397 170.155 95.1883 170.138 94.2542C170.138 93.8909 170.121 93.5449 170.121 93.1816C171.355 93.1989 172.607 93.1989 173.858 93.1989Z" fill="#60E7C3"/>
<path d="M58.2862 97.6789C58.1819 97.8 58.0776 97.9384 57.9733 98.0768L58.0254 95.7933C57.8168 95.5339 57.6603 95.2917 57.556 95.0495C57.1561 94.2537 57.1562 93.4753 57.5386 92.6795C57.6429 92.42 57.8168 92.1605 58.0254 91.901C58.0428 91.0534 58.0428 90.2058 58.0428 89.3408C58.1992 89.583 58.3383 89.8078 58.4948 90.05C58.4948 90.05 58.4948 90.0674 58.5122 90.0847C59.9551 92.6103 60.0768 95.1533 58.2862 97.6789Z" fill="#8AECBB"/>
<path d="M146.632 84.0991C146.249 84.2721 145.902 84.4278 145.589 84.5489C141.851 86.175 141.66 85.6041 141.434 80.2241C142.963 81.7983 143.259 84.9814 146.632 84.0991Z" fill="#6EE4C0"/>
<path d="M45.1101 84.255C45.4926 81.1585 43.8063 77.7851 46.414 75C46.1706 78.1138 46.7791 81.3488 45.1101 84.255Z" fill="#75EBB9"/>
<path d="M41.4391 106.07C41.3174 104.807 41.1783 103.544 41.0566 102.281C41.9433 102.126 43.1255 101.088 43.5775 102.575C44.0816 104.288 43.6644 105.828 41.4391 106.07Z" fill="#23D0EE"/>
<path d="M81.5111 148.815C78.7121 149.074 75.9132 149.299 73.375 147.725C76.0697 147.448 78.7643 146.653 81.4938 147.604V148.123C81.4938 148.348 81.4937 148.573 81.5111 148.815Z" fill="#20CAF1"/>
<path d="M173.841 97.0568C173.841 97.9218 173.841 98.7867 173.824 99.6517C172.589 99.8766 171.32 100.465 170.173 99.7728C170.155 99.7728 170.155 99.7728 170.138 99.7555C170.138 99.7382 170.173 99.7035 170.19 99.6862C170.19 98.8905 170.208 98.0775 170.208 97.2817C170.155 97.2644 170.121 97.2298 170.086 97.1952C170.121 97.1606 170.173 97.126 170.208 97.0914C171.407 96.2091 172.624 96.261 173.841 97.0568Z" fill="#4DDED3"/>
<path d="M173.861 102.246C172.54 101.312 171.166 101.675 169.793 102.125C169.897 101.571 169.984 101 170.071 100.447C170.106 100.222 170.141 99.9972 170.175 99.7723C170.158 99.7723 170.158 99.7723 170.141 99.755C170.141 99.7377 170.175 99.703 170.193 99.6857C171.392 98.8035 172.609 98.8381 173.826 99.6512C173.844 100.516 173.861 101.381 173.861 102.246Z" fill="#39D9DF"/>
<path d="M72.6079 94.6002C72.4167 94.9635 72.2255 95.3268 72.0343 95.6901C71.9995 95.7247 71.9821 95.7766 71.9473 95.8285C71.7039 96.2783 71.4779 96.728 71.2345 97.1778C70.6434 95.8458 69.6699 94.8943 68.2617 94.41C68.6963 93.5104 69.1484 92.6281 69.583 91.7459C69.6004 91.7113 69.6178 91.6767 69.6351 91.6421C70.2088 93.0433 71.1824 94.0466 72.6079 94.6002Z" fill="#81E8BC"/>
<path d="M146.62 81.5393C144.43 79.6018 145.577 77.0762 145.421 74.7754C147.072 76.7994 146.638 79.204 146.62 81.5393Z" fill="#6EE4C0"/>
<path d="M121.86 140.01C120.661 142.328 118.627 142.64 116.314 142.259C117.983 141.083 119.722 140.045 121.86 140.01Z" fill="#26CCEF"/>
<path d="M116.666 71.1428C116.44 69.7415 115.814 68.669 114.249 68.6517C108.912 68.6171 103.558 68.5998 98.2204 68.6517C96.6557 68.669 96.0125 69.7416 95.8387 71.1601C93.2309 73.409 90.6232 73.0803 88.0328 71.1601C86.868 70.0875 85.3903 69.9318 83.9126 69.7242C83.4084 69.655 82.939 69.1707 82.3827 69.534C82.939 69.9491 83.0955 70.4854 82.8 71.1255C79.775 71.1255 76.7674 71.1255 73.7424 71.1255C73.3774 70.1568 73.7598 69.5858 74.716 69.3437C74.3683 69.015 74.0554 69.3437 73.7424 69.4302C71.8649 69.8973 70.0395 70.1221 68.4922 68.5652C68.0055 64.7248 69.518 63.2544 73.5686 63.3236C87.1636 63.5312 100.776 63.3755 114.371 63.4274C116.196 63.4274 118.665 62.822 119.047 65.5552C119.326 67.683 120.317 70.4854 116.666 71.1428Z" fill="#6EEFB3"/>
<path d="M88.0156 71.1602C90.6234 71.1602 93.2311 71.1602 95.8214 71.1602C99.3158 71.5926 98.1857 74.3086 98.4117 76.3499C95.2129 78.2182 91.5795 78.962 88.1199 80.173C88.0852 77.1629 88.0504 74.1529 88.0156 71.1602Z" fill="#64EBBB"/>
<path d="M88.1328 80.1729C90.0625 74.9313 94.5826 76.5401 98.4247 76.3499C98.4247 78.0798 98.4247 79.8097 98.4247 81.5223C95.2259 83.7365 91.6098 82.5602 88.1502 82.7851C88.1502 81.9202 88.1328 81.0379 88.1328 80.1729Z" fill="#60EABE"/>
<path d="M88.1498 82.785C91.366 80.761 94.9647 81.747 98.4243 81.5221C96.0773 86.7118 91.5399 83.0618 88.1498 84.0305C88.0803 83.6153 88.0803 83.2001 88.1498 82.785Z" fill="#5BE8C1"/>
<path d="M68.4727 68.5654C71.0456 68.5654 73.6012 68.5654 76.2263 68.5654C76.2611 70.451 73.9663 69.7591 73.7055 71.1257C71.6541 70.9008 68.9073 72.0598 68.4727 68.5654Z" fill="#6FECB8"/>
<path d="M82.7599 71.1079C81.9254 70.5197 81.0909 69.9315 80.3086 69.378C84.8287 68.4611 84.8287 68.4611 87.9927 71.1424C86.2542 71.1424 84.5157 71.1252 82.7599 71.1079Z" fill="#6FECB8"/>
<path d="M102.215 102.177C102.146 102.194 102.094 102.229 102.024 102.246C99.1906 103.232 96.3742 103.301 93.5579 102.211C93.4709 102.194 93.4014 102.16 93.3145 102.125H93.6622C96.4264 102.142 99.1905 102.16 101.955 102.177H102.215Z" fill="#F9FCFB"/>
<path d="M102.736 97.0396C102.736 97.0914 102.719 97.1261 102.719 97.178C102.667 97.178 102.615 97.178 102.562 97.1607C102.615 97.1261 102.667 97.0741 102.736 97.0396Z" fill="#F9FCFB"/>
<path d="M98.4256 117.798C98.4256 119.96 98.4256 122.123 98.4256 124.285C95.87 128.42 91.7498 126.413 88.2555 126.846C88.2381 125.098 88.2381 123.351 88.2207 121.604C89.2464 119.372 87.6991 115.93 91.6107 115.013C94.6878 114.286 96.9827 114.857 98.4256 117.798Z" fill="#2DD6E1"/>
<path d="M98.427 117.799C97.8185 117.47 97.2449 117.193 96.7059 116.986C93.2985 115.498 91.4383 115.844 89.7693 118.474C89.2999 119.2 88.8654 120.082 88.396 121.172C88.3438 121.311 88.2743 121.449 88.2221 121.605C88.1352 117.764 88.0656 113.924 87.9961 110.066L88.0482 109.997C88.8827 110.032 89.752 110.187 90.5517 110.049C96.8102 109.011 99.644 111.346 98.427 117.799Z" fill="#34D9DA"/>
<path d="M88.2539 126.846C91.2789 124.58 95.3817 126.517 98.4241 124.286C96.6508 131.499 92.1133 127.832 88.2539 126.846Z" fill="#24D4E7"/>
<path d="M170.141 99.7552C170.141 99.7379 170.175 99.7033 170.193 99.686C170.193 99.7206 170.175 99.738 170.175 99.7726C170.158 99.7726 170.158 99.7725 170.141 99.7552Z" fill="#EAF7F7"/>
<path d="M170.208 97.0908V97.2811C170.155 97.2638 170.121 97.2292 170.086 97.1946C170.121 97.16 170.173 97.1254 170.208 97.0908Z" fill="#EAF7F7"/>
<path d="M58.0232 91.9014V95.7937C53.9725 95.6553 49.9218 95.5169 45.8711 95.3785C48.6701 95.0844 51.4517 94.7903 54.2506 94.4962C54.1115 94.3578 53.9725 94.2195 53.8334 94.0984C53.59 93.8908 53.3292 93.7005 53.0685 93.5621C52.8077 93.3891 52.5469 93.268 52.2688 93.1642H52.3383C53.5378 93.1642 54.6331 92.8874 55.4328 91.9187C56.302 91.9187 57.1713 91.9014 58.0232 91.9014Z" fill="#6AE2C9"/>
<path d="M55.4328 91.9189C55.4328 92.4725 55.3807 93.0088 55.1721 93.4759C55.0677 93.7353 54.8939 93.9775 54.6679 94.1851C54.5462 94.3062 54.4071 94.41 54.2507 94.4965C54.1116 94.3581 53.9725 94.2197 53.8334 94.0986C53.59 93.8911 53.3293 93.7007 53.0685 93.5623C52.8077 93.3893 52.547 93.2683 52.2688 93.1645C50.1479 92.4033 47.8008 93.2337 45.593 93.2683H45.2279C44.7411 92.8185 44.2544 92.3687 43.7676 91.9189H55.4328Z" fill="#8AECBB"/>
<path d="M124.889 106.45C121.707 106.432 118.526 106.311 115.362 106.225C114.962 105.758 114.771 105.308 114.788 104.858C114.788 104.737 114.806 104.633 114.84 104.53C114.893 104.339 114.962 104.149 115.084 103.976C115.171 103.838 115.258 103.716 115.379 103.595C119.76 103.578 124.124 103.561 128.505 103.543C128.922 106.502 126.836 106.467 124.889 106.45Z" fill="#12CCF9"/>
<path d="M115.376 103.596V104.841C115.359 105.291 115.359 105.758 115.359 106.225C114.055 106.208 112.751 106.174 111.465 106.156C111.482 105.758 111.534 105.412 111.621 105.118C111.882 104.271 112.438 103.855 113.151 103.682C113.812 103.527 114.577 103.561 115.376 103.596Z" fill="#20CEF1"/>
<path d="M103.624 102.246C103.45 102.35 103.259 102.436 103.085 102.523C99.5038 104.27 95.9399 104.339 92.3934 102.419C92.237 102.35 92.0979 102.263 91.9414 102.177C92.3934 102.16 92.8628 102.142 93.3148 102.125H93.6625C96.4267 102.142 99.1909 102.16 101.955 102.177H102.216C102.685 102.194 103.155 102.229 103.624 102.246Z" fill="#2FD0EB"/>
<path d="M103.623 102.247C103.884 101.122 103.345 98.9078 104.91 99.2365C107.117 99.669 105.918 102.039 106.074 103.596C105.257 103.146 104.44 102.696 103.623 102.247Z" fill="#2FD0EB"/>
</g>
<defs>
<clipPath id="clip0_5170_53580">
<rect width="192" height="192" fill="white"/>
</clipPath>
</defs>
</svg>
