<svg width="192" height="192" viewBox="0 0 192 192" fill="none" xmlns="http://www.w3.org/2000/svg">
<g clip-path="url(#clip0_5170_53204)">
<path d="M96 192C149.019 192 192 149.019 192 96C192 42.9807 149.019 0 96 0C42.9807 0 0 42.9807 0 96C0 149.019 42.9807 192 96 192Z" fill="#F4C546"/>
<g filter="url(#filter0_dd_5170_53204)">
<path d="M41.0756 109.858C33.3684 109.858 25.6576 109.81 17.9504 109.9C16.3573 109.918 15.9829 109.405 16.0006 107.784C16.0783 100.492 16.0712 93.1995 16.0041 85.9033C15.99 84.4096 16.4174 84.0015 17.802 84.0165C25.5693 84.0801 33.3366 84.0465 41.1039 84.0465C41.4889 84.4919 41.5772 85.0422 41.5878 85.6188C41.5948 86.1953 41.5984 86.7755 41.6019 87.352C41.6019 94.038 41.6125 100.72 41.5948 107.406C41.5913 108.252 41.775 109.166 41.0756 109.858Z" fill="#FEFEFE"/>
<path d="M20.9693 107.234C20.6161 107.227 20.2628 107.223 19.9096 107.216C19.8637 107.152 19.8213 107.085 19.7754 107.017C19.7895 106.849 19.8248 106.691 19.8814 106.534C20.0827 105.389 20.6726 104.479 21.4249 103.667C21.6863 103.33 21.9512 102.997 22.3256 102.798C23.9222 102.117 25.0101 100.706 26.317 99.6199C27.0446 99.0134 27.744 98.377 28.5776 97.939C29.1392 97.7294 29.5666 97.3026 30.0293 96.932C30.3578 96.6662 30.7817 96.3855 31.1278 96.7523C31.527 97.1828 30.923 97.4898 30.8453 97.8754C29.277 99.2268 28.0089 100.934 26.3382 102.173C26.0132 102.416 25.2927 102.742 25.8931 103.45C26.5325 105.928 28.4504 106.205 30.4037 106.321C32.3747 106.437 34.3527 106.317 36.3237 106.373C36.7546 106.37 37.2067 106.444 37.5282 106.01C37.6165 105.89 37.7189 105.786 37.8249 105.688C37.9556 105.61 38.0898 105.61 38.224 105.681C38.4501 106.778 38.1357 107.32 36.9736 107.257C33.2825 107.047 29.5772 107.538 25.8931 106.991C25.6883 106.961 25.4552 107.141 25.2326 107.223C24.7169 106.609 25.0631 105.774 24.7416 105.112C24.5156 104.644 24.7028 103.85 24.0811 103.727C23.5266 103.614 23.244 104.303 22.8201 104.606C21.9159 105.261 21.9194 106.624 20.9693 107.234Z" fill="#DFDFDF"/>
<path d="M31.9094 91.8856C32.4534 90.83 31.9377 90.7439 31.1112 90.8749C27.2893 91.4851 23.4393 90.9909 19.6068 91.1482C19.296 91.1594 19.0452 91.0246 18.9004 90.7139C19.2254 90.4144 19.6174 90.3208 20.0342 90.2871C20.3486 90.2684 20.663 90.2609 20.9773 90.2497C25.5268 89.5534 30.0974 89.9689 34.661 89.9128C36.4236 89.8903 36.7203 90.3096 36.8439 92.2338C35.756 93.0611 35.1025 94.4612 33.7215 94.8992C32.8278 95.4308 32.3686 94.9479 32.2309 94.0756C32.1143 93.3531 31.8282 92.6456 31.9094 91.8856Z" fill="#E9E9E9"/>
<path d="M36.9086 106.845C34.0122 106.747 31.1052 107.167 28.2265 106.508C26.3615 106.081 25.6197 105.16 25.8987 103.453C26.3085 102.981 26.8348 103.105 27.3399 103.131C27.5942 104.587 28.502 104.894 29.7771 104.887C31.6986 104.879 33.6484 104.587 35.5416 105.179C36.294 105.419 37.2547 105.553 36.9086 106.845Z" fill="#D2D2D2"/>
<path d="M18.8954 103.487C18.6552 102.581 19.51 102.514 19.8879 102.177C22.9292 99.4554 26.0234 96.8012 29.0999 94.1245C29.1564 94.1919 29.2165 94.2555 29.273 94.3229C29.4284 94.6711 29.4001 95.0192 29.2694 95.3674C28.1321 97.5911 26.041 98.7665 24.3526 100.388C23.1376 101.297 22.0991 102.443 20.884 103.352C20.4248 103.697 20.0257 104.183 19.3687 104.067C19.1003 103.981 19.019 103.716 18.8954 103.487Z" fill="#6E6D6F"/>
<path d="M19.5664 87.0723C25.6807 87.0685 31.7949 87.0648 37.9091 87.061C38.0045 87.1434 38.0469 87.237 38.0327 87.3381C38.0186 87.4429 37.9974 87.4953 37.9727 87.4953C37.842 87.7424 36.6269 87.5776 37.7078 88.3076C37.8632 88.4125 37.7537 88.7494 37.6442 88.9665C37.51 89.0826 37.3581 89.1574 37.1885 89.1911C36.8106 89.2248 36.4962 89.0676 36.2101 88.8317C35.9876 88.6521 35.758 88.4873 35.4931 88.3863C30.7953 88.2777 26.1045 88.229 21.4173 88.4237C20.8981 88.6071 20.3859 88.8392 19.8208 88.7494C19.1532 88.2889 19.7678 87.6113 19.5664 87.0723Z" fill="#616063"/>
<path d="M36.8437 92.2375C36.4905 90.639 35.5226 90.2946 34.0462 90.362C29.5744 90.5716 25.085 90.1673 20.6203 90.7476C20.525 89.8716 21.0654 89.5234 21.7153 89.2614C26.3072 89.0031 30.9025 89.1678 35.4944 89.164C36.0454 89.2015 36.547 89.3699 36.9497 89.7967C37.3417 90.3433 37.6455 90.9048 37.2252 91.5936C37.1015 91.807 36.9744 92.0241 36.8437 92.2375Z" fill="#C7C7C8"/>
<path d="M20.9668 107.235C21.2882 105.513 22.2772 104.274 23.57 103.293C24.1988 102.814 24.8239 102.51 24.8946 103.862C24.9546 104.985 25.7388 106.029 25.2372 107.227C23.8137 107.227 22.3903 107.231 20.9668 107.235Z" fill="#F6F6F6"/>
<path d="M36.9107 106.845C36.4409 105.213 35.0528 105.535 33.9825 105.445C32.2306 105.295 30.4574 105.445 28.6948 105.366C27.0736 105.295 26.8157 104.801 27.342 103.131C27.8118 103.139 28.2851 103.146 28.7549 103.154C29.1646 103.989 29.8746 104.123 30.6764 104.123C32.1317 104.123 33.5905 104.037 35.0387 104.165C36.176 104.266 37.4158 104.311 37.9315 105.748C38.1329 106.677 37.7019 106.95 36.9107 106.845Z" fill="#979698"/>
<path d="M36.8472 90.0484C36.501 89.9211 36.1549 89.7901 35.8052 89.6628C33.5552 89.2323 31.2875 89.5318 29.0304 89.4831C26.5261 89.427 24.0183 89.4644 21.5139 89.4756C20.8817 89.7676 20.532 90.4564 19.9068 90.7634C19.5712 90.7484 19.2357 90.7335 18.9001 90.7185C19.0591 89.5056 18.4127 88.2103 19.2215 87.061C19.49 87.4316 19.55 87.8434 19.4158 88.2814C19.9139 89.7003 20.6874 88.1467 21.2914 88.4724C25.802 88.2964 30.3091 88.4312 34.8126 88.3937C35.5614 88.3863 36.1549 88.7569 36.7765 89.0826C37.3205 89.1387 37.7443 89.3933 37.9881 89.9323C38.0976 90.3329 38.2071 90.7372 37.8962 91.1041L37.8821 91.1153C37.1156 91.2239 37.2993 90.288 36.8472 90.0484Z" fill="#A1A1A2"/>
<path d="M37.93 105.749C36.7715 104.761 35.4222 104.57 33.9881 104.618C32.5894 104.667 31.1871 104.686 29.7919 104.581C29.1031 104.529 28.0894 104.446 28.7534 103.155C29.4563 103.155 30.1628 103.155 30.8657 103.151C30.8197 103.578 31.0387 103.536 31.3496 103.536C32.9602 103.54 34.578 103.346 36.1816 103.671C36.8633 103.81 37.5486 103.945 38.0077 104.588C38.1172 104.989 38.1773 105.382 37.93 105.749Z" fill="#6B6B6D"/>
<path d="M31.911 91.8862C32.5044 92.4066 32.674 93.1066 32.6316 93.8741C32.5857 94.7239 33.0413 94.9372 33.723 94.8998C32.8824 96.0191 31.9605 97.0486 30.8478 97.8759C30.3922 97.4941 31.1622 97.2882 30.8796 96.8614C30.0213 96.9962 29.7423 98.3102 28.7462 98.2615C28.6367 98.1155 28.6014 97.9546 28.6508 97.7786C28.9087 97.2021 29.3219 96.7379 29.8129 96.4197C31.3317 95.4314 31.7733 94.065 31.2399 92.298C31.3706 91.9948 31.6284 91.9162 31.911 91.8862Z" fill="#DADADA"/>
<path d="M24.1559 100.133C25.7277 98.4225 27.7022 97.1759 29.1009 95.2704C29.3482 94.9372 29.5071 94.6078 29.0939 94.2784L29.1009 94.1286C29.5672 93.7543 30.0334 93.3836 30.5032 93.0093C31.5805 93.0542 31.5452 93.7543 31.2697 94.5367C30.9695 95.3827 30.3054 95.9143 29.6908 96.4871C28.617 97.2732 27.6881 98.2465 26.699 99.1412C26.6107 99.276 26.5048 99.3996 26.3917 99.5119C25.9008 99.8825 25.3427 100.137 24.8411 100.496C24.7069 100.571 24.5621 100.616 24.4102 100.631C24.1877 100.545 23.9934 100.44 24.1559 100.133Z" fill="#989799"/>
<path d="M37.8603 104.592C35.3771 103.626 32.7845 103.93 30.206 103.873C30.1778 103.331 30.7994 103.533 30.8665 103.151C33.2154 103.151 35.5608 103.155 37.9097 103.155C38.1711 103.645 38.2523 104.128 37.8603 104.592Z" fill="#525153"/>
<path d="M29.4473 96.3892C29.8923 95.8202 30.3797 95.2811 30.7754 94.6747C31.178 94.0645 31.3617 93.4206 30.4963 93.0088C30.6376 92.6494 30.9025 92.436 31.2345 92.3013C32.2306 93.5891 32.1317 95.0116 30.9237 96.0935C30.2208 96.7224 29.472 97.2952 28.7443 97.8904C28.6172 98.0402 28.483 98.0439 28.3346 97.9241C28.2498 97.0444 29.0163 96.8534 29.4473 96.3892Z" fill="#C5C5C6"/>
<path d="M18.8926 103.487C18.9985 103.618 19.1045 103.745 19.2069 103.877C19.9911 104.685 20.3302 103.019 21.0578 103.502C21.1391 103.659 21.1744 103.828 21.1673 104.011C20.5492 104.861 20.0971 105.789 19.8887 106.845L19.8957 106.838C18.6559 107.358 19.2529 106.07 18.9032 105.711C18.9032 104.97 18.8961 104.228 18.8926 103.487Z" fill="#9B9B9C"/>
<path d="M37.9016 91.1077C37.8981 90.7296 37.8945 90.3552 37.891 89.9771C37.6755 89.6252 37.6225 89.2509 37.7426 88.8466C37.8097 88.3749 37.5307 87.862 37.891 87.4203C37.9157 87.3005 37.9228 87.1807 37.9086 87.0571C38.5656 88.4123 38.4349 89.76 37.9016 91.1077Z" fill="#AEADAE"/>
<path d="M19.2352 88.5248C19.2317 88.0381 19.2281 87.5514 19.2246 87.061C19.3376 87.0648 19.4542 87.0685 19.5672 87.0723C20.3372 87.5627 19.8569 88.0493 19.5637 88.536C19.4471 88.667 19.3376 88.6595 19.2352 88.5248Z" fill="#585759"/>
<path d="M37.8594 104.591C37.877 104.112 37.8912 103.633 37.9088 103.158C38.6576 103.906 38.0607 104.854 38.2338 105.685C38.1384 105.726 38.036 105.748 37.93 105.748C37.9053 105.363 37.8806 104.977 37.8594 104.591Z" fill="#979698"/>
<path d="M36.8496 90.0483C37.4148 90.1644 37.4677 90.842 37.8881 91.119C37.7715 91.4335 37.5101 91.5308 37.2311 91.5944C37.1039 91.0778 36.9768 90.565 36.8496 90.0483Z" fill="#AEADAE"/>
<path d="M18.9069 105.711C19.2813 106.045 19.0905 106.932 19.8994 106.838C19.9029 106.962 19.9065 107.089 19.91 107.213C18.7197 107.351 18.7797 106.557 18.9069 105.711Z" fill="#D3D2D3"/>
<path d="M44.6142 86.6709C44.6177 86.173 44.6213 85.6789 44.6283 85.1847C44.6319 84.9302 44.6319 84.6794 44.6354 84.4248C44.865 83.2231 45.7834 83.8371 46.405 83.6723C46.836 83.3841 47.3199 83.5001 47.779 83.5001C60.2795 83.4926 72.7799 83.4926 85.2803 83.5001C85.7395 83.5001 86.2234 83.3841 86.6543 83.6723C87.2795 83.8333 88.1979 83.2231 88.4275 84.4248C88.643 84.6494 88.7666 84.9227 88.8266 85.2334C88.8796 85.5441 88.8902 85.8586 88.8973 86.173C88.8973 86.9255 88.9079 87.6742 88.9149 88.4267C88.8725 92.1553 88.9997 95.8801 88.8514 99.605C88.5829 100.765 88.3145 101.93 87.7528 102.989C87.3643 103.685 87.057 104.434 86.5802 105.082C86.4247 105.291 86.2517 105.482 86.075 105.67C84.8953 106.924 83.7473 108.215 82.2885 109.129C80.9357 109.885 79.5864 110.641 78.0146 110.746C71.2964 110.783 64.5781 110.753 57.8599 110.768C57.1888 110.765 56.5177 110.765 55.8466 110.768C52.7135 110.757 49.5769 110.772 46.4404 110.765C45.748 110.723 45.0239 110.813 44.4729 110.214C44.0632 109.54 44.1374 108.777 44.1338 108.039C44.1232 101.686 44.1197 95.3373 44.1374 88.9845C44.148 88.1833 44.0137 87.3373 44.6142 86.6709Z" fill="#FEFEFE"/>
<path d="M28.3828 97.8833C28.5029 97.887 28.623 97.8908 28.743 97.8908C28.743 98.0143 28.7431 98.1379 28.7395 98.2614C27.1253 99.3321 25.7407 100.706 24.3172 102.024C23.7415 102.555 23.1728 103.046 22.3816 103.121C22.2156 101.855 23.5331 101.732 23.911 100.886C24.07 100.695 24.3102 100.642 24.4974 100.5L24.5291 100.534C25.0766 100.103 25.7725 99.9123 26.2493 99.3658C26.267 99.2572 26.2811 99.1449 26.2882 99.0363C26.9946 98.6657 27.5138 97.9207 28.3828 97.8833Z" fill="#D2D2D2"/>
<path d="M24.1779 100.901C24.1002 102.114 22.6732 102.106 22.3871 103.128C22.154 103.375 21.9173 103.626 21.6842 103.873C21.4581 104.094 21.225 104.105 20.9884 103.896C20.9813 103.765 20.9778 103.634 20.9707 103.503C21.8538 102.376 22.5814 101.032 24.1779 100.901Z" fill="#AAAAAB"/>
<path d="M20.9895 103.892C21.2226 103.885 21.4522 103.877 21.6854 103.87C20.7882 104.66 20.6504 105.959 19.8945 106.846C19.7568 105.655 20.3714 104.772 20.9895 103.892Z" fill="#D2D2D2"/>
<path d="M34.4579 91.1558C34.9842 91.1857 35.6906 91.1632 35.6517 91.8895C35.6058 92.6607 34.9912 93.2522 34.2636 93.3233C33.4547 93.4019 33.1439 92.6008 33.1368 91.9531C33.1262 91.0959 33.8857 91.1932 34.4579 91.1558Z" fill="#F6F6F6"/>
<path d="M19.9082 90.7589C20.1625 90.2797 20.4945 89.8903 20.9714 89.6582C21.0986 89.5122 21.2186 89.5235 21.3352 89.6695C21.0986 90.0289 20.8584 90.3882 20.6217 90.7514C20.385 90.7551 20.1484 90.7551 19.9082 90.7589Z" fill="#BDBDBE"/>
<path d="M24.1791 100.901C22.8263 101.372 22.081 102.69 20.9719 103.499C19.6368 104.547 19.6368 104.547 19.2129 103.877C21.2086 103.143 22.3247 101.107 24.158 100.133C24.2745 100.257 24.3911 100.38 24.5041 100.504C24.3946 100.635 24.2886 100.77 24.1791 100.901Z" fill="#919193"/>
<path d="M29.0918 94.2782C29.3214 94.2258 29.604 94.1883 29.664 94.4728C29.7558 94.9146 29.4132 95.1018 29.0989 95.2702C29.0989 94.9408 29.0953 94.6114 29.0918 94.2782Z" fill="#6E6D6F"/>
<path d="M19.2344 88.5244C19.3439 88.5357 19.4534 88.5394 19.5629 88.5357C20.0327 88.4121 20.506 88.2886 20.9758 88.165C24.7588 87.7495 28.5523 88.0714 32.3388 88.0041C33.6104 87.9816 34.8997 87.7869 36.1607 88.165C36.2737 88.2923 36.3867 88.4233 36.4998 88.5506C32.6002 88.9362 28.6936 88.5955 24.7906 88.7303C23.4024 88.779 21.9966 88.4832 20.6261 88.9138C20.1528 88.8202 19.2274 90.516 19.2344 88.5244Z" fill="#777678"/>
<path d="M20.625 88.9176C21.0842 88.3486 21.7094 88.5508 22.271 88.547C27.0147 88.5358 31.7585 88.547 36.4987 88.5508C36.7353 88.6818 36.972 88.8091 37.2086 88.9401C37.2969 89.0225 37.3252 89.1048 37.2934 89.1872C37.2616 89.2695 37.2334 89.307 37.2051 89.307C31.6949 88.4497 26.1529 89.131 20.625 88.9176Z" fill="#8A8A8C"/>
<path d="M36.1634 88.1648C31.1018 88.1648 26.0401 88.1648 20.9785 88.1648C21.2682 87.7642 21.685 87.7942 22.0947 87.7942C26.411 87.7942 30.7309 87.7942 35.0472 87.7942C35.457 87.7904 35.8738 87.7642 36.1634 88.1648Z" fill="#6A696B"/>
<path d="M37.8912 87.4239C37.8877 87.9068 37.8806 88.3897 37.8771 88.8727C37.7853 89.0224 37.6899 89.0261 37.5839 88.8914C37.5203 88.6705 37.4532 88.4496 37.3932 88.2288C37.3119 87.9218 36.6761 87.9143 36.9446 87.5212C37.0682 87.3415 37.5627 87.4464 37.8912 87.4239Z" fill="#565658"/>
<path d="M37.5795 88.8913C37.6784 88.9025 37.7773 88.895 37.8727 88.8726C37.8762 89.2394 37.8833 89.61 37.8868 89.9769C37.5406 89.8871 37.3534 89.6175 37.2051 89.3068C37.2121 89.1833 37.2121 89.0635 37.2086 88.9399C37.3322 88.925 37.4559 88.9062 37.5795 88.8913Z" fill="#818082"/>
<path d="M21.3384 89.6698C21.2183 89.6661 21.0947 89.6623 20.9746 89.6586C25.9197 89.0447 30.8647 89.0372 35.8098 89.6623C30.9848 89.6661 26.1634 89.6661 21.3384 89.6698Z" fill="#B6B6B7"/>
<path d="M28.386 97.8829C27.7113 98.3134 27.1426 98.961 26.2949 99.0396C27.2945 98.0887 28.1211 96.9058 29.4492 96.3892C29.0959 96.8871 28.7427 97.385 28.386 97.8829Z" fill="#B1B0B1"/>
<path d="M26.2573 99.3696C25.9288 100.163 25.3672 100.571 24.5371 100.538C24.8515 99.7215 25.5544 99.5418 26.2573 99.3696Z" fill="#B1B0B1"/>
<path d="M82.1023 104.277C77.9767 108.586 69.9304 107.433 67.2071 101.293C67.2636 100.732 67.1718 100.182 67.1294 99.6275C66.8398 95.7267 68.2173 92.7244 71.4846 90.804C74.9179 88.7824 78.224 89.1193 81.3429 91.5864C82.0282 92.1292 82.7982 92.672 82.7735 93.7651C81.8622 93.7651 81.0109 93.9261 80.2903 92.9078C78.6867 90.6317 76.3661 90.3061 73.9748 91.0136C71.5623 91.7286 70.1529 94.0683 70.0576 96.9771C70.0505 97.1643 70.0364 97.3477 70.0258 97.5349C69.3935 99.0248 69.835 100.402 70.4249 101.761C70.7146 102.428 71.096 103.034 71.5058 103.622C73.4944 105.876 76.1506 106.336 78.6302 104.85C79.0576 104.58 79.4744 104.288 79.8947 104.004C80.3504 103.738 80.8166 103.517 81.3606 103.588C81.7209 103.682 81.9999 103.873 82.1023 104.277Z" fill="#D5D5D5"/>
<path d="M58.7439 93.0351C58.7545 97.1305 58.7686 101.222 58.7615 105.318C58.7615 105.842 58.9664 106.46 58.3765 106.83C57.8679 105.909 58.0727 104.891 58.0622 103.914C58.0374 101.432 58.0339 98.9499 58.0657 96.4679C58.0728 95.8315 57.8538 95.0978 58.1611 94.8395C57.8961 98.6654 58.1151 102.761 58.0657 106.845C57.2356 106.849 56.4056 106.849 55.5755 106.853C55.2187 103.528 55.5154 100.193 55.4165 96.861C55.3812 95.693 55.4483 94.5138 54.9114 93.4282C54.9044 93.0501 54.8973 92.672 54.8867 92.2901C55.1976 91.9532 55.5896 92.0281 55.791 92.3126C56.4303 93.2223 56.9319 93.357 57.7407 92.4249C58.3447 91.7323 58.5178 92.6158 58.7439 93.0351Z" fill="#D3D3D4"/>
<path d="M58.747 93.0357C58.369 92.5078 57.9275 92.2982 57.5884 93.0132C56.9102 94.4395 56.3981 93.9491 55.8788 92.9121C55.674 92.4966 55.3384 92.287 54.8933 92.2907C54.9887 91.235 54.6602 90.7109 53.537 90.7633C51.8557 90.8419 50.1673 90.7596 48.4824 90.7484C48.7509 89.4381 49.7505 89.1761 50.7536 89.1573C54.798 89.09 58.8423 89.0039 62.8867 89.1536C63.8934 89.191 64.8859 89.4419 65.1579 90.7484C63.7627 90.7596 62.3604 90.8981 60.9793 90.7558C59.2768 90.5836 58.422 91.0965 58.747 93.0357Z" fill="#E8E8E8"/>
<path d="M65.1525 90.7517C63.4288 88.8575 61.1717 89.7934 59.1725 89.6099C56.6329 89.3778 54.0544 89.6848 51.4935 89.6436C50.3173 89.6249 49.3177 89.8682 48.477 90.7517C48.0956 90.6956 47.647 90.909 47.375 90.4335C47.6823 89.7709 48.1132 89.2169 48.6537 88.7526C49.4519 88.12 50.3738 88.0227 51.3275 88.0227C54.9621 88.0227 58.6003 88.0189 62.2349 88.0227C63.125 88.0227 63.9975 88.0826 64.7392 88.6965C65.3291 89.0484 65.7495 89.5762 66.1027 90.1752C66.138 90.2651 66.1768 90.3512 66.2122 90.441C65.9543 90.9164 65.5199 90.6993 65.1525 90.7517Z" fill="#9F9FA0"/>
<path d="M82.7723 93.7654C79.3284 89.3517 74.9061 89.2282 71.6953 91.216C69.0745 92.837 67.5662 95.128 67.5592 98.4448C67.5556 99.392 67.9442 100.433 67.2059 101.294C66.7467 100.609 66.5066 99.8487 66.5419 98.9989C66.8951 98.5497 66.5101 98.0967 66.5419 97.6475C66.4112 93.6082 68.9826 91.6016 71.8437 89.8983C74.2986 88.4345 76.8841 88.6479 79.4626 89.6025C81.1086 90.6432 83.1608 91.2422 83.4999 93.7205C83.2562 93.7354 83.016 93.7504 82.7723 93.7654Z" fill="#C0C0C0"/>
<path d="M68.3906 90.7927C69.7152 87.7716 74.738 86.7347 77.1293 87.094C79.8526 87.5021 81.8624 88.9022 83.5508 91.0398C83.7168 91.358 83.5367 91.5115 83.2965 91.635C82.6783 91.605 82.3286 91.0547 81.8306 90.7927C81.6964 90.7103 81.5692 90.6167 81.4456 90.5194C80.7851 89.9392 80.0292 89.6247 79.1638 89.6097C78.7187 89.4525 78.2843 89.2616 77.818 89.1717C77.5178 89.0519 77.2423 88.8835 76.9774 88.6963C76.1191 88.0524 75.2607 88.1048 74.4059 88.7113C74.2682 88.8049 74.1198 88.876 73.968 88.9434C72.933 89.2691 71.9475 89.7295 70.9479 90.1488C70.079 90.2836 69.4573 91.5302 68.3906 90.7927Z" fill="#5D5C5E"/>
<path d="M48.1674 87.0346C54.165 86.911 60.1662 86.8624 66.1639 87.057C66.4606 87.6934 66.4182 88.3373 66.1886 88.985C61.784 87.5212 57.2486 88.4085 52.7769 88.1539C51.0496 88.0566 49.3895 88.24 47.8212 89.0636C47.4609 89.0598 47.3126 88.839 47.2949 88.4833C47.3373 87.8394 47.7612 87.4426 48.1674 87.0346Z" fill="#59585B"/>
<path d="M54.9118 93.4321C55.975 93.7653 55.8372 94.8697 55.8619 95.5772C55.9714 99.0475 55.9184 102.525 55.8937 105.999C55.8902 106.288 55.6853 106.572 55.5758 106.857C54.6469 106.8 54.8623 106.048 54.8658 105.479C54.8658 101.462 54.8906 97.4452 54.9118 93.4321Z" fill="#B6B6B7"/>
<path d="M77.851 88.8947C78.3632 88.8348 78.8047 89.0333 79.2356 89.2878C79.3805 89.4376 79.5924 89.5012 79.716 89.6846C79.7549 89.8381 79.709 89.9579 79.5853 90.044C77.194 89.4338 74.8169 88.8386 72.4256 90.1077C69.5009 91.6575 66.6293 94.2555 66.88 97.8868C65.8946 97.1081 66.4491 96.0824 66.4809 95.139C66.4844 94.6336 66.4067 94.1058 66.8412 93.7202C67.8691 92.0506 69.4444 90.9874 70.8078 89.6884C71.8958 89.4563 72.8106 88.6514 73.955 88.6065C75.2725 88.3931 76.5865 88.2845 77.851 88.8947Z" fill="#A2A2A3"/>
<path d="M84.5414 100.886C84.5979 101.556 84.0716 101.874 83.7643 102.323C82.2243 102.14 80.8538 102.627 79.5928 103.529C78.8757 103.795 78.1693 104.087 77.4275 104.266C76.4103 104.435 75.3753 104.278 74.3545 104.427C74.2698 104.442 74.185 104.454 74.1002 104.468C73.9271 104.48 73.7576 104.457 73.5916 104.405C73.2702 104.24 73.0547 103.959 72.864 103.652C72.32 102.574 72.32 102.533 72.9558 102.342C75.7462 103.813 78.1552 103.065 80.3169 100.905C81.7192 100.467 83.1285 100.1 84.5414 100.886Z" fill="#69696B"/>
<path d="M73.6053 104.232C73.7184 104.258 73.8349 104.285 73.9515 104.311C75.7635 104.768 77.4802 104.416 79.1438 103.615C79.4158 103.551 79.6736 103.592 79.9138 103.749C80.0622 103.903 80.0798 104.071 79.9598 104.255C79.7408 104.726 79.3946 104.992 78.8895 105.011C76.0143 106.804 73.5029 105.849 71.1257 103.865C69.7764 102.027 69.0594 99.9908 69.3455 97.6249C69.4727 96.5654 69.7906 97.4714 70.0308 97.535C70.1615 98.149 70.2957 98.7667 70.4264 99.3806C70.5641 101.672 71.9487 103.053 73.6053 104.232Z" fill="#B2B2B3"/>
<path d="M58.0663 106.845C57.3069 104.741 57.7731 102.555 57.7449 100.414C57.7202 98.3512 57.3599 96.2286 58.3771 94.2183C58.3771 98.4223 58.3771 102.626 58.3771 106.83L58.2217 106.853L58.0663 106.845Z" fill="#AAAAAB"/>
<path d="M84.5444 100.886C83.1351 100.893 81.7257 100.901 80.3164 100.908C81.097 100.04 83.7568 99.5045 84.6045 100.085C84.94 100.317 84.6893 100.628 84.5444 100.886Z" fill="#464548"/>
<path d="M70.8088 89.6919C70.724 90.4481 70.1872 90.7963 69.6644 91.1931C68.7248 91.9043 67.8806 92.7242 67.3614 93.8585C67.04 94.5585 66.9481 94.0794 66.8457 93.7275C67.1671 92.6343 67.5345 91.5712 68.3928 90.7963C69.3853 90.8861 69.9187 89.8529 70.8088 89.6919Z" fill="#777779"/>
<path d="M79.9455 103.876C79.7089 103.876 79.4758 103.876 79.2391 103.876C79.0166 103.446 79.4016 103.341 79.5958 103.139C80.8674 102.192 82.132 101.189 83.7638 102.327C83.7532 103.023 83.1634 103.176 82.7713 103.513C81.7858 103.236 80.878 103.663 79.9455 103.876Z" fill="#9F9EA0"/>
<path d="M73.6039 104.232C71.4387 103.798 69.7892 101.278 70.425 99.3765C70.7958 99.9867 71.1632 100.593 71.5341 101.203C71.8061 102.222 72.4842 102.91 73.2295 103.543C73.3532 103.771 73.4768 104.004 73.6039 104.232Z" fill="#919192"/>
<path d="M79.5879 90.0475C79.5914 89.9203 79.5914 89.793 79.595 89.6657C80.5063 89.2651 81.022 90.1112 81.7107 90.4181C82.3324 90.7775 82.7174 91.4364 83.3108 91.837C83.9042 92.1889 84.0279 92.945 84.5082 93.3943C84.3175 93.9932 83.8689 93.7162 83.5051 93.7237C82.615 91.9979 81.0926 91.0283 79.5879 90.0475Z" fill="#929193"/>
<path d="M79.9414 103.876C80.8492 103.453 81.6439 102.057 82.7672 103.509C82.7672 103.633 82.753 103.753 82.7212 103.873C82.2656 104.419 81.8064 103.487 81.3508 103.876C80.8845 104.004 80.4147 104.127 79.9485 104.254C79.952 104.127 79.9485 104 79.9414 103.876Z" fill="#CDCCCD"/>
<path d="M47.5304 88.1424C47.5339 88.3745 47.5339 88.6066 47.5374 88.835C47.5834 89.6848 48.3251 88.8013 48.5229 89.2805C48.2721 89.8046 48.1061 90.4298 47.382 90.4335C47.0995 89.2955 46.8345 88.1612 47.4668 87.0493C47.7706 87.3937 47.6964 87.7643 47.5304 88.1424Z" fill="#9F9EA0"/>
<path d="M73.2286 103.543C72.2714 103.083 71.24 102.682 71.5332 101.204C72.0065 101.582 72.4833 101.964 72.9566 102.342C72.395 102.911 73.2887 103.105 73.2286 103.543Z" fill="#6B6A6C"/>
<path d="M84.5069 93.3907C83.698 93.2671 83.5568 92.4361 83.1188 91.9195C83.0128 91.8259 82.981 91.7398 83.0199 91.6537C83.0587 91.5676 83.094 91.5264 83.1329 91.5264C83.2706 91.3654 83.4119 91.2044 83.5497 91.0435C84.2314 91.6574 84.4787 92.4735 84.5069 93.3907Z" fill="#717072"/>
<path d="M66.4804 95.1431C66.7029 96.0453 66.1907 97.0635 66.8795 97.8908C66.8725 98.2951 66.9537 98.7331 66.544 99.0027C66.2225 97.7186 65.9152 96.4383 66.4804 95.1431Z" fill="#A8A7A9"/>
<path d="M66.0839 88.8241C66.1086 88.2364 66.1369 87.6449 66.1616 87.0571C66.7444 88.1765 66.5466 89.307 66.2111 90.4413L66.151 90.3852C66.0345 90.2392 65.9462 90.0782 65.879 89.8985C65.7978 89.5092 65.8225 89.1423 66.0839 88.8241Z" fill="#9F9FA0"/>
<path d="M47.5265 88.1429C47.5053 87.7798 47.4841 87.4129 47.4629 87.0498C47.696 87.0461 47.9327 87.0423 48.1658 87.0386C48.1693 87.544 47.9609 87.9183 47.5265 88.1429Z" fill="#545456"/>
<path d="M81.3594 103.877C81.815 103.207 82.2742 103.993 82.7299 103.873C82.6168 104.173 82.3696 104.247 82.1047 104.277C81.8539 104.143 81.6066 104.012 81.3594 103.877Z" fill="#CECECF"/>
<path d="M71.1211 103.862C71.6368 103.858 71.9688 104.251 72.3503 104.524C74.4414 106.026 76.6384 105.861 78.8849 105.007C76.9068 106.991 73.1168 106.43 71.1211 103.862Z" fill="#CECECF"/>
<path d="M57.5617 91.6648C57.4204 92.0541 57.1519 92.2675 56.7599 92.2226C56.3925 92.1814 56.0393 91.9868 56.1135 91.5413C56.1982 91.0509 56.6468 91.1856 56.9718 91.1744C57.2791 91.1632 57.5475 91.253 57.5617 91.6648Z" fill="#F0F0F0"/>
<path d="M66.0828 88.8239C66.0969 89.1871 66.111 89.5465 66.1251 89.9096C65.4929 90.2353 65.5706 89.2732 65.1149 89.2844C63.8999 88.5656 62.5824 88.5207 61.2295 88.5394C57.9446 88.5844 54.6561 88.5806 51.3712 88.5394C50.3398 88.5245 49.3932 88.7004 48.5207 89.2807C48.224 89.056 47.2668 90.4786 47.5352 88.8389C48.9552 88.0341 50.4564 87.7346 52.0812 87.7758C55.2319 87.8506 58.3897 87.8506 61.5404 87.7758C63.1581 87.7346 64.6593 88.0266 66.0828 88.8239Z" fill="#7A797B"/>
<path d="M65.1133 89.2846C65.6149 89.1985 65.7491 89.775 66.127 89.9098C66.1341 90.067 66.1447 90.2242 66.1517 90.3852C65.4524 90.3927 65.3711 89.7451 65.1133 89.2846Z" fill="#9F9EA0"/>
<path d="M74.2969 88.5353C75.24 87.3373 76.1831 87.3448 77.1297 88.5315C76.1831 88.8422 75.24 88.831 74.2969 88.5353Z" fill="#6E6D6F"/>
<path d="M74.2942 88.5355C75.2373 88.5355 76.1839 88.5317 77.127 88.5317C77.3707 88.6515 77.6109 88.7751 77.8546 88.8949C76.5548 88.7751 75.2196 89.2617 73.9551 88.6103C74.061 88.5692 74.1776 88.5467 74.2942 88.5355Z" fill="#929193"/>
<path d="M81.7112 90.4152C81.0047 90.1644 80.3018 89.9136 79.5954 89.6627C79.4788 89.5392 79.3587 89.4157 79.2422 89.2884C80.2383 89.236 81.146 89.4007 81.7112 90.4152Z" fill="#787779"/>
<path d="M83.1325 91.5228C83.1289 91.6538 83.1254 91.7849 83.1183 91.9196C82.5355 91.5378 82.0445 91.0586 81.709 90.4185C82.4296 90.4334 82.804 90.9425 83.1325 91.5228Z" fill="#787779"/>
<path d="M79.5972 103.135C79.4771 103.382 79.357 103.629 79.2404 103.873C77.5238 104.659 75.8354 105.834 73.9492 104.311L73.9598 104.198C75.1148 103.817 76.344 104.348 77.4955 103.884C78.1949 103.637 78.8943 103.386 79.5972 103.135Z" fill="#8A898B"/>
<path d="M77.4908 103.884C76.364 104.625 75.1384 104.135 73.9551 104.198C75.0924 103.547 76.3146 104.015 77.4908 103.884Z" fill="#6B6A6C"/>
<g filter="url(#filter1_d_5170_53204)">
<path d="M105.73 89.2962L107.542 97.2002C107.763 98.2456 108.206 98.9709 108.87 99.3762C109.535 99.7816 110.39 99.9842 111.437 99.9842H112.041L112.282 102.224L112.041 104.592H111.437C110.149 104.592 108.911 104.304 107.723 103.728C106.556 103.152 105.599 102.246 104.855 101.008C104.271 101.755 103.597 102.331 102.832 102.736C102.087 103.12 101.302 103.312 100.477 103.312C99.4501 103.312 98.4437 103.014 97.4574 102.416C96.4308 101.84 95.6458 101.008 95.1023 99.9202C94.5588 98.8109 94.2871 97.6482 94.2871 96.4322C94.2871 95.1522 94.5689 94.0216 95.1325 93.0402C95.4546 92.4216 95.8068 91.9096 96.1893 91.5042C96.5919 91.0776 97.1957 90.6189 98.0009 90.1282C98.8261 89.6376 100.004 89.0402 101.533 88.3362L101.141 86.5762L104.885 85.5522L105.73 89.2962ZM98.4538 95.4082C98.2323 95.7496 98.1216 96.1336 98.1216 96.5602C98.1216 96.9229 98.2022 97.2856 98.3632 97.6482C98.5443 97.9896 98.796 98.2669 99.118 98.4802C99.5005 98.7576 99.9433 98.8962 100.447 98.8962C100.809 98.8962 101.161 98.8109 101.503 98.6402C101.866 98.4696 102.188 98.2242 102.469 97.9042C102.912 97.4136 103.134 96.7522 103.134 95.9202C103.134 95.7709 103.114 95.5042 103.073 95.1202L102.53 92.7522C101.161 93.3496 100.195 93.8402 99.6313 94.2242C99.0677 94.6082 98.6752 95.0029 98.4538 95.4082Z" fill="white"/>
<path d="M111.733 99.9842H118.043L118.285 102.224L118.043 104.592H111.733V99.9842Z" fill="white"/>
<path d="M117.719 99.9842H124.029L124.271 102.224L124.029 104.592H117.719V99.9842Z" fill="white"/>
<path d="M123.704 99.9842H130.015L130.256 102.224L130.015 104.592H123.704V99.9842Z" fill="white"/>
<path d="M138.446 93.8722V98.5122C138.446 99.0669 138.587 99.4509 138.868 99.6642C139.15 99.8776 139.593 99.9842 140.197 99.9842H141.103L141.284 102.448L141.103 104.592H140.197C139.573 104.592 138.919 104.464 138.234 104.208C137.55 103.931 136.946 103.536 136.423 103.024C135.879 103.536 135.245 103.931 134.521 104.208C133.816 104.464 133.092 104.592 132.347 104.592H129.69V99.9842H132.347C133.172 99.9842 133.756 99.8669 134.098 99.6322C134.44 99.3762 134.611 98.9496 134.611 98.3522V93.8722H138.446ZM133.313 85.9362H137.329V90.0962H133.313V85.9362Z" fill="white"/>
<path d="M155.329 86.1922L147.328 89.9682L150.619 94.3202C151.927 96.0696 152.863 97.2856 153.427 97.9682C153.99 98.6296 154.544 99.1309 155.087 99.4722C155.631 99.8136 156.255 99.9842 156.959 99.9842H157.472V104.592H156.959C155.912 104.592 154.986 104.379 154.181 103.952C153.396 103.504 152.531 102.758 151.585 101.712C151.162 102.608 150.528 103.312 149.683 103.824C148.857 104.336 147.851 104.592 146.663 104.592H140.806V99.9842H146.754C147.277 99.9842 147.68 99.8776 147.962 99.6642C148.243 99.4509 148.384 99.1629 148.384 98.8002C148.384 98.4162 148.183 97.9576 147.78 97.4242L143.161 91.6962L144.097 86.5442L153.789 82.0002L155.329 86.1922ZM144.58 82.8322L152.128 79.3442L152.672 80.8802L144.399 84.6882L144.58 82.8322Z" fill="white"/>
<path d="M157.14 99.9842H160.069C161.619 99.9842 162.363 99.3442 162.303 98.0642C162.243 97.1256 161.981 95.3549 161.518 92.7522L165.111 91.7922C165.795 94.9282 166.138 97.1682 166.138 98.5122C166.138 99.5576 165.916 100.55 165.473 101.488C165.051 102.406 164.396 103.152 163.511 103.728C162.645 104.304 161.599 104.592 160.371 104.592H157.14V99.9842ZM159.767 84.0802H163.783V88.2402H159.767V84.0802Z" fill="white"/>
<path d="M175.969 93.8722V102.896C175.969 105.968 175.214 108.358 173.705 110.064C172.195 111.792 170.041 112.656 167.243 112.656H165.341V108.048H167.243C168.512 108.048 169.488 107.888 170.172 107.568C170.877 107.27 171.37 106.747 171.652 106C171.954 105.275 172.105 104.24 172.105 102.896V93.8722H175.969ZM171.984 85.9042H175.999V90.0642H171.984V85.9042Z" fill="white"/>
</g>
</g>
</g>
<defs>
<filter id="filter0_dd_5170_53204" x="-2" y="69.3442" width="196" height="69.312" filterUnits="userSpaceOnUse" color-interpolation-filters="sRGB">
<feFlood flood-opacity="0" result="BackgroundImageFix"/>
<feColorMatrix in="SourceAlpha" type="matrix" values="0 0 0 0 0 0 0 0 0 0 0 0 0 0 0 0 0 0 127 0" result="hardAlpha"/>
<feOffset dy="4"/>
<feGaussianBlur stdDeviation="2"/>
<feColorMatrix type="matrix" values="0 0 0 0 0 0 0 0 0 0 0 0 0 0 0 0 0 0 0.3 0"/>
<feBlend mode="normal" in2="BackgroundImageFix" result="effect1_dropShadow_5170_53204"/>
<feColorMatrix in="SourceAlpha" type="matrix" values="0 0 0 0 0 0 0 0 0 0 0 0 0 0 0 0 0 0 127 0" result="hardAlpha"/>
<feMorphology radius="6" operator="dilate" in="SourceAlpha" result="effect2_dropShadow_5170_53204"/>
<feOffset dy="8"/>
<feGaussianBlur stdDeviation="6"/>
<feColorMatrix type="matrix" values="0 0 0 0 0 0 0 0 0 0 0 0 0 0 0 0 0 0 0.15 0"/>
<feBlend mode="normal" in2="effect1_dropShadow_5170_53204" result="effect2_dropShadow_5170_53204"/>
<feBlend mode="normal" in="SourceGraphic" in2="effect2_dropShadow_5170_53204" result="shape"/>
</filter>
<filter id="filter1_d_5170_53204" x="90.2871" y="79.3442" width="89.7129" height="41.312" filterUnits="userSpaceOnUse" color-interpolation-filters="sRGB">
<feFlood flood-opacity="0" result="BackgroundImageFix"/>
<feColorMatrix in="SourceAlpha" type="matrix" values="0 0 0 0 0 0 0 0 0 0 0 0 0 0 0 0 0 0 127 0" result="hardAlpha"/>
<feOffset dy="4"/>
<feGaussianBlur stdDeviation="2"/>
<feComposite in2="hardAlpha" operator="out"/>
<feColorMatrix type="matrix" values="0 0 0 0 0.1625 0 0 0 0 0.15776 0 0 0 0 0.15776 0 0 0 0.25 0"/>
<feBlend mode="normal" in2="BackgroundImageFix" result="effect1_dropShadow_5170_53204"/>
<feBlend mode="normal" in="SourceGraphic" in2="effect1_dropShadow_5170_53204" result="shape"/>
</filter>
<clipPath id="clip0_5170_53204">
<rect width="192" height="192" fill="white"/>
</clipPath>
</defs>
</svg>
