<svg width="64" height="64" viewBox="0 0 64 64" fill="none" xmlns="http://www.w3.org/2000/svg">
    <mask id="mask0_685_12637" style="mask-type:alpha" maskUnits="userSpaceOnUse" x="0" y="0"
        width="64" height="64">
        <rect width="64" height="64" fill="#D9D9D9" />
    </mask>
    <g mask="url(#mask0_685_12637)">
        <path
            d="M40.8665 53.6C34.8221 53.6 29.6999 51.5 25.4999 47.3C21.2999 43.1 19.1999 38 19.1999 32C19.1999 25.9556 21.2999 20.8334 25.4999 16.6334C29.6999 12.4334 34.8221 10.3334 40.8665 10.3334C46.8665 10.3334 51.9665 12.4334 56.1665 16.6334C60.3665 20.8334 62.4665 25.9556 62.4665 32C62.4665 38 60.3665 43.1 56.1665 47.3C51.9665 51.5 46.8665 53.6 40.8665 53.6ZM40.8665 48.6C45.4443 48.6 49.3554 46.9889 52.5999 43.7667C55.8443 40.5445 57.4665 36.6223 57.4665 32C57.4665 27.4223 55.8554 23.5112 52.6332 20.2667C49.411 17.0223 45.4888 15.4 40.8665 15.4C36.2888 15.4 32.3776 17.0112 29.1332 20.2334C25.8888 23.4556 24.2665 27.3778 24.2665 32C24.2665 36.5778 25.8776 40.4889 29.0999 43.7334C32.3221 46.9778 36.2443 48.6 40.8665 48.6ZM43.3999 30.9334L43.3332 23.8667C43.3332 23.2 43.0999 22.6223 42.6332 22.1334C42.1665 21.6445 41.5776 21.4 40.8665 21.4C40.1554 21.4 39.5554 21.6334 39.0665 22.1C38.5776 22.5667 38.3332 23.1556 38.3332 23.8667V31.9334C38.3332 32.2445 38.3888 32.5556 38.4999 32.8667C38.611 33.1778 38.8221 33.4889 39.1332 33.8L45.3332 39.9334C45.8221 40.4223 46.3999 40.6667 47.0665 40.6667C47.7332 40.6667 48.3332 40.4223 48.8665 39.9334C49.3554 39.4445 49.5999 38.8667 49.5999 38.2C49.5999 37.5334 49.3554 36.9334 48.8665 36.4L43.3999 30.9334ZM6.7332 23.8C6.02209 23.8 5.42209 23.5556 4.9332 23.0667C4.44431 22.5778 4.19987 22 4.19987 21.3334C4.19987 20.6223 4.44431 20.0223 4.9332 19.5334C5.42209 19.0445 6.02209 18.8 6.7332 18.8H14.0665C14.7776 18.8 15.3665 19.0445 15.8332 19.5334C16.2999 20.0223 16.5332 20.6223 16.5332 21.3334C16.5332 22.0445 16.2999 22.6334 15.8332 23.1C15.3665 23.5667 14.7776 23.8 14.0665 23.8H6.7332ZM4.06654 34.4667C3.35543 34.4667 2.75543 34.2223 2.26654 33.7334C1.77765 33.2445 1.5332 32.6667 1.5332 32C1.5332 31.2889 1.77765 30.6889 2.26654 30.2C2.75543 29.7111 3.35543 29.4667 4.06654 29.4667H14.0665C14.7776 29.4667 15.3665 29.7111 15.8332 30.2C16.2999 30.6889 16.5332 31.2889 16.5332 32C16.5332 32.7112 16.2999 33.3 15.8332 33.7667C15.3665 34.2334 14.7776 34.4667 14.0665 34.4667H4.06654ZM6.7332 45.1334C6.02209 45.1334 5.42209 44.8889 4.9332 44.4C4.44431 43.9111 4.19987 43.3334 4.19987 42.6667C4.19987 41.9556 4.44431 41.3556 4.9332 40.8667C5.42209 40.3778 6.02209 40.1334 6.7332 40.1334H14.0665C14.7776 40.1334 15.3665 40.3778 15.8332 40.8667C16.2999 41.3556 16.5332 41.9556 16.5332 42.6667C16.5332 43.3778 16.2999 43.9667 15.8332 44.4334C15.3665 44.9 14.7776 45.1334 14.0665 45.1334H6.7332Z"
            fill="white" />
    </g>
</svg>
    