<svg width="72" height="72" viewBox="0 0 72 72" fill="none" xmlns="http://www.w3.org/2000/svg">
    <mask id="mask0_535_8952" style="mask-type:alpha" maskUnits="userSpaceOnUse" x="0" y="0"
        width="73" height="72">
        <rect x="0.000488281" width="72" height="72" fill="#D9D9D9" />
    </mask>
    <g mask="url(#mask0_535_8952)">
        <path
            d="M10.8818 61.0597C9.25643 61.0597 7.85988 60.4758 6.69213 59.308C5.52433 58.1403 4.94043 56.7437 4.94043 55.1184V16.8814C4.94043 15.2444 5.52433 13.8379 6.69213 12.6618C7.85988 11.4857 9.25643 10.8977 10.8818 10.8977H61.1187C62.7557 10.8977 64.1623 11.4857 65.3384 12.6618C66.5144 13.8379 67.1025 15.2444 67.1025 16.8814V34.3402H10.8818V55.1184H37.3698C38.2051 55.1184 38.9091 55.4059 39.4816 55.981C40.0542 56.5561 40.3405 57.2631 40.3405 58.1022C40.3405 58.9413 40.0542 59.644 39.4816 60.2103C38.9091 60.7766 38.2051 61.0597 37.3698 61.0597H10.8818ZM10.8818 23.9152H61.1187V16.8814H10.8818V23.9152ZM58.3307 57.1695H52.2166C51.5311 57.1695 50.9564 56.9367 50.4927 56.4712C50.0289 56.0056 49.797 55.4287 49.797 54.7405C49.797 54.0523 50.0289 53.4785 50.4927 53.0192C50.9564 52.56 51.5311 52.3303 52.2166 52.3303H58.3307V46.1738C58.3307 45.5003 58.5634 44.9357 59.029 44.4801C59.4946 44.0245 60.0715 43.7967 60.7597 43.7967C61.4479 43.7967 62.0217 44.0245 62.4809 44.4801C62.9402 44.9357 63.1698 45.5003 63.1698 46.1738V52.3303H69.3264C69.9999 52.3303 70.5644 52.5631 71.0201 53.0287C71.4757 53.4942 71.7035 54.0711 71.7035 54.7594C71.7035 55.4476 71.4757 56.0213 71.0201 56.4806C70.5644 56.9399 69.9999 57.1695 69.3264 57.1695H63.1698V63.2836C63.1698 63.9691 62.9371 64.5438 62.4715 65.0075C62.006 65.4713 61.4291 65.7031 60.7408 65.7031C60.0526 65.7031 59.4789 65.4713 59.0196 65.0075C58.5603 64.5438 58.3307 63.9691 58.3307 63.2836V57.1695Z"
            fill="#1A1E00" />
    </g>
</svg>
    