<svg width="19" height="19" viewBox="0 0 19 19" fill="none" xmlns="http://www.w3.org/2000/svg">
    <g clip-path="url(#clip0_584_17508)">
        <path
            d="M8.32614 1.02169L6.6931 0.593861C5.98567 0.406069 5.23261 0.506969 4.59956 0.87437C3.96652 1.24177 3.50533 1.84558 3.31745 2.55299L2.90527 4.09995C4.25401 2.42064 6.19297 1.31959 8.32614 1.02169Z"
            fill="white" />
        <path
            d="M1.13671 10.76L0.734975 12.2731C0.547182 12.9805 0.648082 13.7335 1.01548 14.3666C1.38288 14.9996 1.9867 15.4608 2.69411 15.6487L4.25932 16.0661C2.58858 14.7527 1.47373 12.8583 1.13671 10.76Z"
            fill="white" />
        <path
            d="M16.413 3.17374L14.6548 2.70679C15.5419 3.38919 16.2847 4.24099 16.84 5.21276C17.3953 6.18453 17.752 7.2569 17.8896 8.36766L18.3722 6.54157C18.5576 5.83523 18.4555 5.08418 18.0883 4.45294C17.7211 3.8217 17.1187 3.36171 16.413 3.17374Z"
            fill="white" />
        <path
            d="M10.7339 17.7852L12.4165 18.2391C13.1239 18.4269 13.877 18.326 14.51 17.9586C15.1431 17.5912 15.6043 16.9874 15.7921 16.28L16.2669 14.4956C14.9283 16.2786 12.9397 17.4608 10.7339 17.7852Z"
            fill="white" />
        <path
            d="M9.55477 1.68433C8.026 1.68433 6.53157 2.13766 5.26045 2.98699C3.98933 3.83633 2.99861 5.04352 2.41358 6.45591C1.82854 7.86831 1.67547 9.42247 1.97372 10.9219C2.27197 12.4212 3.00814 13.7985 4.08913 14.8795C5.17013 15.9605 6.54741 16.6967 8.0468 16.9949C9.54619 17.2932 11.1003 17.1401 12.5127 16.5551C13.9251 15.97 15.1323 14.9793 15.9817 13.7082C16.831 12.4371 17.2843 10.9427 17.2843 9.41389C17.2843 7.36388 16.47 5.39784 15.0204 3.94826C13.5708 2.49869 11.6048 1.68433 9.55477 1.68433ZM5.17737 5.53998C5.26002 5.11144 5.46787 4.71703 5.77465 4.4066C6.08143 4.09618 6.47336 3.88368 6.9009 3.79598C7.32843 3.70827 7.77237 3.7493 8.17659 3.91387C8.58081 4.07844 8.92716 4.35917 9.17185 4.72055C9.41655 5.08194 9.5486 5.50777 9.55131 5.9442C9.55402 6.38062 9.42728 6.80806 9.18709 7.17246C8.94691 7.53686 8.60408 7.82187 8.20193 7.99145C7.79979 8.16104 7.3564 8.20758 6.92781 8.1252C6.64308 8.07047 6.37193 7.96017 6.12985 7.80061C5.88777 7.64105 5.6795 7.43535 5.51694 7.19527C5.35438 6.95519 5.24072 6.68543 5.18246 6.40141C5.12419 6.11739 5.12246 5.82467 5.17737 5.53998ZM8.38868 12.2182C8.30556 12.6466 8.09734 13.0406 7.79035 13.3506C7.48336 13.6607 7.09135 13.8728 6.66388 13.9601C6.2364 14.0474 5.79263 14.0061 5.38864 13.8413C4.98464 13.6765 4.63856 13.3957 4.3941 13.0343C4.14965 12.6729 4.01781 12.2472 4.01522 11.8109C4.01264 11.3746 4.13944 10.9473 4.37959 10.583C4.61975 10.2188 4.96248 9.93385 5.3645 9.76429C5.76651 9.59474 6.20976 9.54815 6.63824 9.63041C6.92323 9.68513 7.19463 9.79551 7.43691 9.95524C7.67919 10.115 7.88759 10.3209 8.05018 10.5613C8.21276 10.8017 8.32635 11.0717 8.38444 11.3561C8.44252 11.6404 8.44396 11.9334 8.38868 12.2182ZM9.3252 10.4313C9.13498 10.3945 8.95992 10.3022 8.8221 10.166C8.68429 10.0298 8.58988 9.85591 8.55079 9.66615C8.51171 9.47639 8.5297 9.27931 8.60249 9.09976C8.67527 8.92021 8.7996 8.76624 8.95979 8.65726C9.11998 8.54829 9.30886 8.4892 9.50259 8.48744C9.69633 8.48568 9.88624 8.54133 10.0484 8.64738C10.2105 8.75343 10.3376 8.90512 10.4137 9.08331C10.4897 9.26151 10.5113 9.45824 10.4756 9.64867C10.4519 9.77578 10.4032 9.89693 10.3324 10.0052C10.2616 10.1134 10.1701 10.2065 10.0632 10.2793C9.95628 10.352 9.83603 10.4029 9.70938 10.429C9.58272 10.4551 9.45216 10.4558 9.3252 10.4313ZM13.9295 13.2826C13.8469 13.7111 13.639 14.1055 13.3323 14.416C13.0255 14.7264 12.6336 14.9389 12.206 15.0266C11.7785 15.1143 11.3345 15.0733 10.9303 14.9087C10.5261 14.7441 10.1798 14.4634 9.93507 14.102C9.69037 13.7406 9.55832 13.3148 9.55561 12.8784C9.5529 12.4419 9.67964 12.0145 9.91983 11.6501C10.16 11.2857 10.5028 11.0007 10.905 10.8311C11.3071 10.6615 11.7505 10.615 12.1791 10.6974C12.4638 10.7521 12.735 10.8624 12.9771 11.022C13.2192 11.1815 13.4274 11.3872 13.59 11.6273C13.7525 11.8674 13.8662 12.1371 13.9245 12.4212C13.9827 12.7052 13.9845 12.9979 13.9295 13.2826ZM12.4687 9.19215C12.0401 9.1095 11.6457 8.90165 11.3353 8.59487C11.0249 8.28809 10.8124 7.89616 10.7247 7.46863C10.637 7.04109 10.678 6.59716 10.8426 6.19294C11.0071 5.78872 11.2879 5.44237 11.6493 5.19767C12.0106 4.95298 12.4365 4.82093 12.8729 4.81822C13.3093 4.8155 13.7368 4.94225 14.1012 5.18243C14.4656 5.42261 14.7506 5.76545 14.9202 6.16759C15.0897 6.56973 15.1363 7.01313 15.0539 7.44172C14.9995 7.72668 14.8894 7.99811 14.73 8.24049C14.5705 8.48286 14.3649 8.69142 14.1248 8.85425C13.8846 9.01707 13.6148 9.13095 13.3306 9.18938C13.0464 9.24781 12.7536 9.24964 12.4687 9.19476V9.19215Z"
            fill="white" />
    </g>
    <defs>
        <clipPath id="clip0_584_17508">
            <rect width="18" height="18" fill="white" transform="translate(0.5 0.5)" />
        </clipPath>
    </defs>
</svg>
    