<svg width="24" height="24" viewBox="0 0 24 24" fill="none" xmlns="http://www.w3.org/2000/svg">
    <g clip-path="url(#clip0_713_10364)">
        <path
            d="M10.4349 0.695583L8.25747 0.125148C7.31422 -0.125242 6.31014 0.00929256 5.46608 0.49916C4.62202 0.989028 4.00711 1.79411 3.7566 2.73732L3.20703 4.79993C5.00534 2.56085 7.59063 1.09279 10.4349 0.695583Z"
            fill="#002F66" />
        <path
            d="M0.84879 13.6797L0.313137 15.6971C0.0627469 16.6403 0.197279 17.6444 0.687147 18.4885C1.17702 19.3325 1.9821 19.9474 2.92531 20.1979L5.01227 20.7545C2.78461 19.0033 1.29814 16.4774 0.84879 13.6797Z"
            fill="#002F66" />
        <path
            d="M21.2174 3.56499L18.873 2.94238C20.0559 3.85225 21.0463 4.98799 21.7866 6.28368C22.527 7.57937 23.0027 9.00921 23.1861 10.4902L23.8296 8.05543C24.0768 7.11363 23.9407 6.11224 23.4511 5.27058C22.9615 4.42893 22.1583 3.81562 21.2174 3.56499Z"
            fill="#002F66" />
        <path
            d="M13.6455 23.0467L15.889 23.6519C16.8322 23.9023 17.8363 23.7678 18.6804 23.2779C19.5244 22.7881 20.1393 21.983 20.3899 21.0398L21.0229 18.6606C19.238 21.0379 16.5866 22.6143 13.6455 23.0467Z"
            fill="#002F66" />
        <path
            d="M12.0732 1.5791C10.0348 1.5791 8.04225 2.18354 6.34743 3.31599C4.6526 4.44844 3.33164 6.05803 2.5516 7.94122C1.77155 9.82441 1.56746 11.8966 1.96512 13.8958C2.36279 15.895 3.34434 17.7314 4.78568 19.1727C6.22701 20.614 8.06338 21.5956 10.0626 21.9932C12.0617 22.3909 14.134 22.1868 16.0171 21.4068C17.9003 20.6267 19.5099 19.3058 20.6424 17.6109C21.7748 15.9161 22.3793 13.9235 22.3793 11.8852C22.3793 9.15184 21.2935 6.53045 19.3607 4.59768C17.4279 2.66492 14.8065 1.5791 12.0732 1.5791ZM6.23666 6.71997C6.34685 6.14859 6.62399 5.6227 7.03303 5.2088C7.44207 4.7949 7.96465 4.51158 8.53469 4.39464C9.10474 4.2777 9.69666 4.3324 10.2356 4.55183C10.7746 4.77125 11.2364 5.14555 11.5626 5.62741C11.8889 6.10926 12.065 6.67702 12.0686 7.25893C12.0722 7.84083 11.9032 8.41074 11.583 8.89661C11.2627 9.38248 10.8056 9.7625 10.2694 9.98861C9.73322 10.2147 9.14203 10.2768 8.57057 10.1669C8.19094 10.094 7.8294 9.94689 7.50663 9.73415C7.18385 9.5214 6.90616 9.24714 6.68941 8.92703C6.47267 8.60692 6.32112 8.24725 6.24344 7.86855C6.16575 7.48985 6.16345 7.09956 6.23666 6.71997ZM10.5184 15.6243C10.4076 16.1954 10.13 16.7208 9.72063 17.1342C9.3113 17.5476 8.78863 17.8303 8.21866 17.9468C7.64869 18.0632 7.057 18.0081 6.51835 17.7884C5.97969 17.5687 5.51824 17.1943 5.1923 16.7124C4.86637 16.2305 4.69057 15.6629 4.68713 15.0811C4.68368 14.4994 4.85274 13.9297 5.17295 13.444C5.49316 12.9583 5.95014 12.5785 6.48616 12.3524C7.02218 12.1263 7.61318 12.0642 8.18448 12.1739C8.56447 12.2468 8.92634 12.394 9.24938 12.607C9.57242 12.82 9.85028 13.0946 10.0671 13.415C10.2838 13.7355 10.4353 14.0956 10.5127 14.4747C10.5902 14.8538 10.5921 15.2445 10.5184 15.6243ZM11.7671 13.2417C11.5135 13.1926 11.2801 13.0696 11.0963 12.888C10.9125 12.7065 10.7867 12.4745 10.7346 12.2215C10.6824 11.9685 10.7064 11.7057 10.8035 11.4663C10.9005 11.2269 11.0663 11.0216 11.2799 10.8764C11.4935 10.7311 11.7453 10.6523 12.0036 10.6499C12.2619 10.6476 12.5152 10.7218 12.7313 10.8632C12.9475 11.0046 13.117 11.2068 13.2184 11.4444C13.3198 11.682 13.3485 11.9443 13.301 12.1982C13.2693 12.3677 13.2044 12.5292 13.11 12.6735C13.0156 12.8178 12.8937 12.942 12.7511 13.039C12.6085 13.136 12.4482 13.2038 12.2793 13.2386C12.1105 13.2734 11.9364 13.2745 11.7671 13.2417ZM17.9062 17.0434C17.796 17.6148 17.5189 18.1407 17.1099 18.5546C16.7008 18.9685 16.1782 19.2518 15.6082 19.3688C15.0381 19.4857 14.4462 19.431 13.9073 19.2116C13.3683 18.9922 12.9065 18.6179 12.5803 18.136C12.254 17.6542 12.0779 17.0864 12.0743 16.5045C12.0707 15.9226 12.2397 15.3527 12.5599 14.8668C12.8802 14.3809 13.3373 14.0009 13.8735 13.7748C14.4097 13.5487 15.0009 13.4866 15.5723 13.5965C15.9519 13.6695 16.3135 13.8165 16.6363 14.0293C16.959 14.242 17.2367 14.5163 17.4535 14.8364C17.6702 15.1565 17.8218 15.5162 17.8994 15.8949C17.9771 16.2736 17.9794 16.6639 17.9062 17.0434ZM15.9584 11.5895C15.387 11.4793 14.8611 11.2022 14.4472 10.7932C14.0333 10.3841 13.75 9.86155 13.6331 9.2915C13.5161 8.72146 13.5708 8.12954 13.7903 7.59058C14.0097 7.05162 14.384 6.58982 14.8658 6.26356C15.3477 5.93731 15.9155 5.76124 16.4974 5.75762C17.0793 5.754 17.6492 5.923 18.135 6.24324C18.6209 6.56349 19.0009 7.0206 19.227 7.55679C19.4531 8.09298 19.5152 8.68417 19.4054 9.25562C19.3328 9.63557 19.186 9.99748 18.9734 10.3206C18.7609 10.6438 18.4866 10.9219 18.1665 11.139C17.8463 11.3561 17.4865 11.5079 17.1076 11.5858C16.7288 11.6637 16.3382 11.6662 15.9584 11.593V11.5895Z"
            fill="#002F66" />
    </g>
    <defs>
        <clipPath id="clip0_713_10364">
            <rect width="24" height="24" fill="white" />
        </clipPath>
    </defs>
</svg>
    