<svg width="57" height="56" viewBox="0 0 57 56" fill="none" xmlns="http://www.w3.org/2000/svg">
    <mask id="mask0_535_8938" style="mask-type:alpha" maskUnits="userSpaceOnUse" x="0" y="0"
        width="57" height="56">
        <rect x="0.428711" width="56" height="56" fill="#D9D9D9" />
    </mask>
    <g mask="url(#mask0_535_8938)">
        <path
            d="M30.5871 24.1018L20.2291 13.7108L23.5288 10.4112L30.5871 17.5278L44.2371 3.93616L47.5114 7.11917L30.5871 24.1018ZM33.2146 53.5044L15.4686 48.4117V51.6049H1.77295V27.1048H20.6882L35.6951 32.7707C36.877 33.2035 37.8771 33.9179 38.6954 34.9138C39.5138 35.9097 39.923 37.3122 39.923 39.1214H45.8146C47.6439 39.1214 49.1805 39.6663 50.4242 40.756C51.6678 41.8458 52.2897 43.4592 52.2897 45.5964V47.7066L33.2146 53.5044ZM6.03128 47.3464H11.1189V31.3631H6.03128V47.3464ZM32.9813 49.0964L47.9146 44.5464C47.6593 43.8075 47.3596 43.302 47.0156 43.0298C46.6716 42.7575 46.2696 42.6214 45.8098 42.6214H33.7067C32.6059 42.6214 31.5323 42.5436 30.4857 42.3881C29.439 42.2325 28.5125 42.0297 27.706 41.7794L22.9479 40.2881L24.2313 36.9048L28.3577 38.2718C29.4179 38.6049 30.3816 38.8298 31.2488 38.9464C32.1161 39.0631 33.5102 39.1214 35.4313 39.1214C35.4313 38.6548 35.3438 38.1978 35.1688 37.7506C34.9938 37.3034 34.6924 36.9825 34.2646 36.7881L19.9729 31.3631H15.4686V43.9454L32.9813 49.0964Z"
            fill="#0F0F0F" fill-opacity="0.4" />
    </g>
</svg>
    