<svg width="32" height="32" viewBox="0 0 32 32" fill="none" xmlns="http://www.w3.org/2000/svg">
    <mask id="mask0_485_4492" style="mask-type:alpha" maskUnits="userSpaceOnUse" x="0" y="0"
        width="32" height="32">
        <rect width="32" height="32" fill="#D9D9D9" />
    </mask>
    <g mask="url(#mask0_485_4492)">
        <path
            d="M15.9997 18.4334L10.7997 23.6001C10.5553 23.8445 10.2497 23.9723 9.88307 23.9834C9.51641 23.9945 9.19974 23.8667 8.93307 23.6001C8.68863 23.3556 8.56641 23.0445 8.56641 22.6667C8.56641 22.289 8.68863 21.9778 8.93307 21.7334L15.0664 15.6001C15.1997 15.4667 15.3442 15.3723 15.4997 15.3167C15.6553 15.2612 15.822 15.2334 15.9997 15.2334C16.1775 15.2334 16.3442 15.2612 16.4997 15.3167C16.6553 15.3723 16.7997 15.4667 16.9331 15.6001L23.0664 21.7334C23.3109 21.9778 23.4386 22.2834 23.4497 22.6501C23.4609 23.0167 23.3331 23.3334 23.0664 23.6001C22.822 23.8445 22.5108 23.9667 22.1331 23.9667C21.7553 23.9667 21.4442 23.8445 21.1997 23.6001L15.9997 18.4334ZM15.9997 10.4334L10.7997 15.6001C10.5553 15.8445 10.2497 15.9723 9.88307 15.9834C9.51641 15.9945 9.19974 15.8667 8.93307 15.6001C8.68863 15.3556 8.56641 15.0445 8.56641 14.6667C8.56641 14.289 8.68863 13.9778 8.93307 13.7334L15.0664 7.60007C15.1997 7.46673 15.3442 7.37229 15.4997 7.31673C15.6553 7.26118 15.822 7.2334 15.9997 7.2334C16.1775 7.2334 16.3442 7.26118 16.4997 7.31673C16.6553 7.37229 16.7997 7.46673 16.9331 7.60007L23.0664 13.7334C23.3109 13.9778 23.4386 14.2834 23.4497 14.6501C23.4609 15.0167 23.3331 15.3334 23.0664 15.6001C22.822 15.8445 22.5108 15.9667 22.1331 15.9667C21.7553 15.9667 21.4442 15.8445 21.1997 15.6001L15.9997 10.4334Z"
            fill="#44474E" />
    </g>
</svg>
    