<svg width="19" height="18" viewBox="0 0 19 18" fill="none" xmlns="http://www.w3.org/2000/svg">
    <mask id="mask0_457_3980" style="mask-type:alpha" maskUnits="userSpaceOnUse" x="0" y="0"
        width="19" height="18">
        <rect x="0.291504" width="18" height="18" fill="#D9D9D9" />
    </mask>
    <g mask="url(#mask0_457_3980)">
        <path
            d="M8.7667 10.725L6.8167 8.775C6.5792 8.5375 6.5262 8.26575 6.6577 7.95975C6.7887 7.65325 7.02295 7.5 7.36045 7.5H11.2229C11.5604 7.5 11.7947 7.65325 11.9257 7.95975C12.0572 8.26575 12.0042 8.5375 11.7667 8.775L9.8167 10.725C9.7417 10.8 9.66045 10.8563 9.57295 10.8938C9.48545 10.9313 9.3917 10.95 9.2917 10.95C9.1917 10.95 9.09795 10.9313 9.01045 10.8938C8.92295 10.8563 8.8417 10.8 8.7667 10.725Z"
            fill="#1A1C1F" />
    </g>
</svg>
    