<svg width="450" height="312" viewBox="0 0 450 312" fill="none" xmlns="http://www.w3.org/2000/svg">
    <g clip-path="url(#clip0_485_3392)">
        <path
            d="M391.015 154.908H350.857C348.372 154.908 346.357 156.923 346.357 159.408V179.46C346.357 181.945 348.372 183.96 350.857 183.96H391.015C393.501 183.96 395.515 181.945 395.515 179.46V159.408C395.515 156.923 393.501 154.908 391.015 154.908Z"
            fill="#A4B046" />
        <path d="M370.936 195.318L377.299 180.234H364.573L370.936 195.318Z" fill="#A4B046" />
        <path
            d="M370.783 164.448H382.285V166.131L387.919 162.882L382.285 159.633V161.316H370.783V164.448Z"
            fill="#2D3300" />
        <path
            d="M387.919 171.054H376.426V169.38L370.783 172.629L376.426 175.878V174.195H387.919V171.054Z"
            fill="white" />
        <path
            d="M363.727 174.015L363.178 174.213C363.178 174.213 361.468 172.269 360.586 170.145C359.704 168.021 359.668 165.438 359.668 165.438L360.064 165.267L357.634 159.453C357.202 159.795 356.788 160.227 356.455 160.794C355.078 163.116 355.213 166.689 356.599 170.172C357.985 173.655 359.461 176.769 362.161 178.722C363.754 179.874 365.122 180.081 366.175 179.91L363.718 174.024L363.727 174.015Z"
            fill="#2D3300" />
        <path
            d="M365.474 173.331L364.718 173.61L367.202 179.568C367.481 179.478 367.733 179.361 367.958 179.244C368.597 178.893 368.885 178.119 368.615 177.435L367.319 174.159C367.031 173.43 366.212 173.07 365.483 173.331H365.474Z"
            fill="#2D3300" />
        <path
            d="M359.542 158.427C359.236 158.535 358.903 158.688 358.57 158.886L361.054 164.826L361.891 164.475C362.62 164.169 362.962 163.35 362.683 162.612L361.378 159.264C361.099 158.535 360.28 158.157 359.551 158.427H359.542Z"
            fill="#2D3300" />
        <path
            d="M134.299 279.234V212.202C134.299 212.202 133.552 194.139 143.047 188.928C152.542 183.717 192.574 186.507 192.574 186.507V279.234H134.29H134.299Z"
            fill="#E2E4E6" />
        <path
            d="M205.093 123.75C205.093 123.75 202.672 144.045 201.745 145.719L200.818 147.393L196.165 150.561C196.165 150.561 205.102 163.224 216.091 165.267C227.08 167.319 226.144 160.794 226.144 160.794L224.47 157.257L226.702 137.889C226.702 137.889 206.776 128.763 205.102 123.741L205.093 123.75Z"
            fill="#FFDCD6" />
        <path
            d="M190.379 152.244L197.642 149.076C197.642 149.076 202.295 156.708 213.095 161.181C223.895 165.654 224.084 163.044 224.642 161.181C225.2 159.318 224.453 157.275 224.453 157.275L225.254 150.759L229.574 152.199L244.568 273.474L206.021 275.337L190.379 152.253V152.244Z"
            fill="white" />
        <path
            d="M225.947 150.876C225.947 150.876 228.557 156.897 230.978 171.045C233.399 185.193 235.631 209.034 236.189 225.414C236.747 241.794 237.115 279.225 237.115 279.225H285.716C286.274 279.225 289.622 260.793 289.622 260.793C289.622 260.793 268.391 242.604 267.275 239.625C266.528 237.636 266.906 200.835 263.738 183.888C260.57 166.941 256.475 163.53 247.907 159.309C239.051 154.944 225.938 150.867 225.938 150.867L225.947 150.876Z"
            fill="#2D3300" />
        <path
            d="M251.273 257.904C251.021 257.904 250.823 257.706 250.823 257.454C250.823 256.122 250.589 237.204 250.355 218.916C250.13 200.619 249.887 181.701 249.887 180.369C249.887 180.117 250.085 179.919 250.337 179.919C250.589 179.919 250.787 180.117 250.787 180.369C250.787 181.701 251.021 200.619 251.255 218.907C251.48 237.204 251.723 256.122 251.723 257.454C251.723 257.706 251.525 257.904 251.273 257.904Z"
            fill="#B0B685" />
        <path
            d="M154.441 253.35L154.072 279.234H210.682C210.682 279.234 213.103 257.265 212.176 255.213C211.249 253.161 154.45 253.35 154.45 253.35H154.441Z"
            fill="#2D3300" />
        <g style="mix-blend-mode:multiply">
            <path
                d="M217.44 145.17C219.744 147.033 222.903 148.518 225.36 149.427L226.692 137.907C226.692 137.907 211.725 131.049 206.649 125.955C207.711 131.751 210.321 139.428 217.44 145.17Z"
                fill="#B6BB8E" />
        </g>
        <path
            d="M244.197 85.95C244.197 85.95 248.103 92.655 248.85 100.845C249.597 109.035 248.85 130.077 242.145 139.014C235.44 147.951 221.472 145.341 215.145 139.941C209.331 134.982 203.598 129.51 202.113 118.71C200.619 107.91 205.281 87.426 218.502 83.142C231.723 78.858 244.197 85.932 244.197 85.932V85.95Z"
            fill="#FFDCD6" />
        <path
            d="M260.993 267.534C260.993 267.534 260.336 267.534 259.337 267.507C259.103 267.498 258.842 267.507 258.572 267.498C257.609 267.471 256.439 267.444 255.26 267.408C254.999 267.399 254.729 267.39 254.468 267.381C253.298 267.354 252.299 267.498 251.363 267.444H251.336C251.138 267.435 250.85 267.462 250.616 267.471C250.499 267.48 250.391 267.489 250.319 267.48C249.779 267.381 249.671 267.255 249.086 266.994C248.33 266.652 238.097 264.366 229.772 264.42C221.456 264.456 213.995 265.023 212.78 264.006C211.556 262.971 210.818 252.522 217.919 251.838L226.649 255.15C226.649 255.15 246.584 252.783 253.892 258.174C261.218 263.565 260.993 267.534 260.993 267.534Z"
            fill="#FFDCD6" />
        <path
            d="M251.335 267.444C251.137 267.435 250.849 267.462 250.615 267.471C250.435 267.183 250.057 266.661 249.85 266.445C247.6 264.15 242.164 262.665 240.193 262.188C240.013 262.143 239.896 261.963 239.941 261.783C239.977 261.603 240.166 261.495 240.355 261.531C243.226 262.224 249.319 263.997 251.047 266.904C251.101 266.985 251.245 267.264 251.335 267.444Z"
            fill="#2D3300" />
        <path
            d="M255.26 267.399C254.999 267.399 254.729 267.39 254.468 267.372C252.011 262.89 247.988 261.603 243.029 260.01L242.732 259.911C242.561 259.857 242.462 259.659 242.516 259.479C242.57 259.308 242.759 259.209 242.948 259.263L243.236 259.362C248.492 261.045 252.713 262.404 255.269 267.399H255.26Z"
            fill="#2D3300" />
        <path
            d="M259.337 267.498C259.103 267.498 258.842 267.498 258.572 267.489C257.078 264.357 252.146 259.11 245.63 257.895C245.441 257.859 245.324 257.688 245.351 257.499C245.387 257.319 245.567 257.202 245.747 257.229C252.47 258.489 257.888 263.979 259.346 267.498H259.337Z"
            fill="#2D3300" />
        <path
            d="M206.578 109.512C206.578 109.512 210.673 107.559 213.562 102.06C216.451 96.57 216.073 91.629 216.073 91.629C216.073 91.629 221.284 90.792 229.105 93.123C236.926 95.454 246.232 98.613 254.053 94.149C261.874 89.676 261.874 82.512 258.058 79.533C253.783 76.194 245.305 78.228 245.305 78.228C245.305 78.228 248.563 75.06 246.799 73.197C245.026 71.334 238.609 73.755 238.609 73.755C238.609 73.755 230.788 67.518 215.983 68.265C201.178 69.012 194.104 79.344 193.267 90.891C192.43 102.438 196.615 113.985 196.615 113.985L206.578 109.512Z"
            fill="#2D3300" />
        <g style="mix-blend-mode:multiply">
            <path
                d="M236.612 112.311C235.775 114.381 235.793 116.784 235.586 118.971C235.424 120.681 235.109 122.67 236.675 123.822C237.422 124.371 240.959 125.856 239.141 127.062C238.448 127.521 237.287 127.395 236.495 127.359C235.955 127.332 235.406 127.314 234.857 127.269C234.272 127.224 233.705 127.053 233.12 127.044C232.778 127.044 232.67 127.494 232.949 127.674C233.885 128.259 235.271 128.448 236.36 128.484C237.458 128.529 238.196 128.484 239.186 127.989C239.789 127.692 240.383 127.26 240.473 126.54C240.581 125.73 239.969 125.001 239.357 124.542C238.655 124.02 237.791 123.777 237.08 123.264C236.09 122.562 236.171 121.365 236.243 120.267C236.414 117.621 237.017 115.02 237.251 112.383C237.287 111.978 236.729 111.978 236.603 112.293L236.612 112.311Z"
                fill="#B6BB8E" />
        </g>
        <path
            d="M244.226 118.494C243.947 120.06 242.804 121.176 241.679 120.978C240.545 120.78 239.861 119.34 240.131 117.774C240.41 116.208 241.553 115.092 242.678 115.29C243.812 115.488 244.496 116.928 244.226 118.494Z"
            fill="#404040" />
        <path
            d="M229.978 117.252C229.726 118.944 228.529 120.168 227.314 119.988C226.099 119.808 225.307 118.287 225.559 116.595C225.811 114.903 227.008 113.679 228.223 113.859C229.438 114.039 230.23 115.56 229.978 117.252Z"
            fill="#404040" />
        <path
            d="M240.904 112.032C241.777 112.176 242.65 112.032 243.532 112.095C243.739 112.113 243.955 112.14 244.162 112.158C244.315 112.176 243.883 112.113 244.09 112.149C244.135 112.149 244.18 112.167 244.225 112.167C244.333 112.185 244.441 112.212 244.549 112.239C244.738 112.284 244.918 112.356 245.107 112.392C245.278 112.428 245.467 112.473 245.638 112.464C245.737 112.455 245.827 112.437 245.926 112.428C245.863 112.437 245.809 112.446 245.746 112.464C245.746 112.482 246.07 112.437 246.106 112.428C246.601 112.311 246.916 111.735 246.772 111.249C246.736 111.105 246.673 110.988 246.583 110.871C246.547 110.826 246.511 110.772 246.466 110.727C246.502 110.763 246.538 110.808 246.574 110.844C246.538 110.79 246.502 110.745 246.457 110.691C246.412 110.61 246.34 110.538 246.259 110.493C246.187 110.439 246.124 110.385 246.052 110.331C245.818 110.169 245.521 110.079 245.242 110.007C244.72 109.872 244.18 109.809 243.64 109.8C243.109 109.8 242.578 109.854 242.056 109.926C241.588 109.989 241.075 110.151 240.697 110.43C240.409 110.646 240.229 110.925 240.274 111.303C240.319 111.618 240.562 111.978 240.904 112.032Z"
            fill="#404040" />
        <path
            d="M230.978 109.539C230.861 109.467 230.735 109.404 230.618 109.35C230.51 109.305 230.222 109.152 230.438 109.269C230.357 109.224 230.276 109.179 230.195 109.143C229.835 108.963 229.457 108.837 229.07 108.738C228.224 108.522 227.324 108.468 226.451 108.558C225.524 108.657 224.669 108.882 223.868 109.368C223.751 109.44 223.634 109.503 223.544 109.602C223.481 109.683 223.418 109.764 223.355 109.845C223.373 109.818 223.391 109.791 223.409 109.764C223.157 109.935 223.013 110.223 223.022 110.52C223.022 110.808 223.175 111.051 223.427 111.186C223.733 111.357 224.021 111.276 224.327 111.186H223.859C224.12 111.231 224.3 111.24 224.561 111.186C224.57 111.186 224.813 111.123 224.651 111.159C224.498 111.195 224.903 111.132 224.948 111.123C225.002 111.123 225.281 111.087 224.984 111.123C225.038 111.123 225.092 111.114 225.146 111.105C225.29 111.087 225.425 111.069 225.569 111.06C226.181 111.015 226.793 110.988 227.414 110.961C227.981 110.943 228.566 110.934 229.142 110.961C229.385 110.97 229.628 110.979 229.871 110.988C230.006 110.988 229.952 111.015 229.853 110.988C229.907 111.006 229.952 111.015 230.006 111.024C230.105 111.051 230.204 111.087 230.303 111.123C230.699 111.276 231.176 110.988 231.32 110.619C231.482 110.223 231.347 109.764 230.969 109.539H230.978Z"
            fill="#404040" />
        <path
            d="M235.396 135.423C236.251 133.704 237.808 132.444 239.599 131.634C238.042 131.472 230.671 130.797 228.817 131.85C226.738 133.029 229.204 137.781 233.506 138.015C233.956 138.042 234.37 138.006 234.766 137.943C234.802 137.079 235 136.215 235.396 135.423Z"
            fill="#404040" />
        <path
            d="M201.366 125.433C201.366 125.433 202.113 128.322 206.397 131.67C210.681 135.018 216.891 137.475 216.891 137.475L217.386 135.306C217.386 135.306 210.96 132.516 207.981 129.438C205.002 126.369 204.633 124.686 204.633 124.686L201.375 125.433H201.366Z"
            fill="#E9EBDE" />
        <path
            d="M218.125 133.695C221.572 133.533 223.498 136.26 223.732 138.024C223.975 139.788 222.319 141.768 218.44 140.031C213.625 137.871 214.669 133.857 218.116 133.695H218.125Z"
            fill="#404040" />
        <path
            d="M204.068 104.112C204.068 104.112 205.553 93.411 212.726 86.139C226.415 72.27 238.052 73.107 238.052 73.107C238.052 73.107 237.962 71.154 233.579 69.66C229.466 68.265 227.621 69.012 227.621 69.012C227.621 69.012 216.353 69.939 206.858 80.46C197.363 90.981 196.337 104.391 196.337 104.391L204.068 104.112Z"
            fill="#E9EBDE" />
        <path
            d="M203.041 102.807C194.077 101.286 189.073 108.297 188.704 115.38C188.335 122.454 193.474 127.836 200.341 127.296C215.794 126.09 214.03 104.67 203.041 102.807Z"
            fill="white" />
        <path
            d="M198.578 120.411C196.211 120.411 194.213 119.223 193.07 117.126C191.846 114.885 191.945 112.122 193.331 110.088C193.439 109.935 193.646 109.899 193.799 109.998C193.952 110.106 193.997 110.313 193.889 110.466C192.647 112.293 192.557 114.777 193.664 116.802C194.708 118.719 196.562 119.808 198.758 119.736C200.81 119.682 202.547 118.746 203.645 117.099C204.905 115.218 205.193 112.626 204.383 110.484C203.573 108.36 201.368 106.92 199.361 107.181C199.181 107.208 199.01 107.073 198.983 106.893C198.956 106.713 199.091 106.542 199.271 106.515C201.62 106.2 204.086 107.811 205.013 110.25C205.904 112.59 205.58 115.425 204.203 117.477C202.97 119.313 201.044 120.357 198.776 120.411C198.713 120.411 198.65 120.411 198.587 120.411H198.578Z"
            fill="#ADB381" />
        <path
            d="M192.052 149.634C192.052 149.634 164.863 156.339 155.368 167.139C145.873 177.939 141.4 231.192 141.22 241.065C141.04 250.938 147.925 255.033 152.02 257.823C156.115 260.613 174.178 265.644 188.704 266.391C203.23 267.138 217.009 266.391 217.009 266.391C217.009 266.391 216.964 263.223 219.196 258.57C221.266 254.25 223.894 253.359 223.894 253.359L211.42 248.886C211.42 248.886 209.233 209.745 205.831 190.791C201.925 169.002 192.052 149.643 192.052 149.643V149.634Z"
            fill="#2D3300" />
        <path
            d="M237.115 242.631C237.052 242.631 236.989 242.622 236.935 242.595C236.71 242.496 236.602 242.226 236.71 242.001C239.257 236.25 241.894 224.973 243.379 217.053L243.505 216.414C243.955 214.083 244.513 211.194 243.397 209.187C242.83 208.17 241.543 205.956 240.301 203.832C239.014 201.627 237.808 199.539 237.466 198.918C236.809 197.703 238.879 194.454 241.867 189.999C242.677 188.793 243.37 187.758 243.775 187.056C244.837 185.211 244.135 183.528 243.307 181.566L243.028 180.891C242.281 179.064 241.435 177.237 240.616 175.464C240.283 174.744 239.95 174.015 239.617 173.286C239.176 172.323 238.744 171.342 238.294 170.352C235.666 164.484 232.939 158.418 229.456 152.559C229.33 152.343 229.402 152.073 229.609 151.938C229.825 151.812 230.095 151.884 230.23 152.091C233.74 157.995 236.476 164.088 239.113 169.974C239.554 170.964 239.995 171.945 240.427 172.899C240.76 173.628 241.093 174.348 241.426 175.068C242.245 176.85 243.1 178.686 243.847 180.531L244.126 181.197C244.963 183.186 245.827 185.256 244.54 187.479C244.117 188.208 243.415 189.261 242.596 190.476C241.039 192.798 237.799 197.631 238.24 198.468C238.573 199.08 239.779 201.159 241.057 203.355C242.299 205.488 243.586 207.702 244.162 208.728C245.44 211.014 244.846 214.092 244.369 216.558L244.243 217.197C243.703 220.077 240.832 234.837 237.511 242.343C237.439 242.514 237.268 242.613 237.097 242.613L237.115 242.631Z"
            fill="#B0B685" />
        <path
            d="M210.584 244.215C210.467 244.215 210.35 244.17 210.269 244.08C208.154 241.947 197.948 224.28 197.192 220.959C196.778 219.141 197.822 214.524 198.83 210.06C199.613 206.604 200.423 203.031 200.189 202.059C199.847 200.61 197.237 198.477 194.717 196.416C191.666 193.923 188.516 191.349 187.904 189.027C187.211 186.39 187.805 169.884 188.192 158.967C188.336 155.043 188.444 151.938 188.444 150.831C188.444 150.579 188.642 150.381 188.894 150.381C189.146 150.381 189.344 150.579 189.344 150.831C189.344 151.956 189.236 155.061 189.092 158.994C188.723 169.2 188.111 186.282 188.768 188.793C189.308 190.827 192.476 193.419 195.275 195.705C198.038 197.964 200.639 200.088 201.053 201.834C201.332 203.004 200.576 206.361 199.694 210.24C198.749 214.398 197.687 219.114 198.056 220.734C198.803 223.992 208.82 241.326 210.899 243.423C211.07 243.603 211.07 243.882 210.899 244.062C210.809 244.152 210.701 244.197 210.584 244.197V244.215Z"
            fill="#B0B685" />
        <path
            d="M173.999 236.484C173.999 236.484 173.954 236.484 173.936 236.484C173.693 236.448 173.522 236.223 173.549 235.971C173.882 233.631 179.048 187.011 179.282 183.438C179.3 183.186 179.516 182.997 179.759 183.015C180.011 183.033 180.191 183.249 180.182 183.492C179.948 187.065 174.773 233.748 174.44 236.088C174.404 236.313 174.215 236.475 173.999 236.475V236.484Z"
            fill="#B0B685" />
        <path
            d="M211.051 249.147C210.997 249.147 210.934 249.138 210.88 249.111C209.737 248.643 204.679 246.942 198.28 244.782C185.356 240.426 167.662 234.459 164.296 232.704C164.071 232.587 163.99 232.317 164.107 232.101C164.224 231.876 164.494 231.795 164.71 231.912C168.013 233.631 186.4 239.832 198.568 243.936C204.985 246.105 210.052 247.806 211.222 248.283C211.456 248.373 211.564 248.643 211.474 248.868C211.402 249.039 211.231 249.147 211.06 249.147H211.051Z"
            fill="#B0B685" />
        <path
            d="M204.831 267.714C193.455 267.714 171.414 265.662 154.665 259.74C154.431 259.659 154.305 259.398 154.395 259.164C154.476 258.93 154.737 258.804 154.971 258.894C176.13 266.382 205.731 267.66 211.239 266.418C211.482 266.364 211.725 266.517 211.779 266.76C211.833 267.003 211.68 267.246 211.437 267.3C210.249 267.57 207.936 267.714 204.849 267.714H204.831Z"
            fill="#B0B685" />
        <path d="M405.172 202.149L369.577 272.655L265.798 273.402L297.82 201.15L405.172 202.149Z"
            fill="white" />
        <path
            d="M196.922 272.961L196.94 267.318H264.125L295.031 199.539H402.473L405.173 202.149H300.215L268.094 272.907C268.094 272.907 196.922 272.781 196.922 272.961Z"
            fill="#E6E8D9" />
        <path
            d="M351.28 241.056C350.11 244.575 343.747 247.293 337.069 247.122C330.391 246.951 325.927 243.972 327.106 240.453C328.276 236.934 334.639 234.216 341.317 234.387C347.995 234.558 352.459 237.537 351.28 241.056Z"
            fill="#E6E8D9" />
        <path
            d="M268.095 273.357C268.032 273.357 267.969 273.348 267.906 273.321C267.681 273.222 267.582 272.952 267.681 272.727L299.919 201.708H405.165C405.417 201.708 405.615 201.906 405.615 202.158C405.615 202.41 405.417 202.608 405.165 202.608H300.495L268.491 273.105C268.419 273.267 268.248 273.366 268.077 273.366L268.095 273.357Z"
            fill="white" />
        <path d="M192.241 278.307H68.7881V305.676H192.241V278.307Z" fill="#939B59" />
        <path d="M413.66 278.307H191.54V305.676H413.66V278.307Z" fill="#A9AF7A" />
        <g style="mix-blend-mode:multiply">
            <path
                d="M192.241 278.307H191.539H68.7881V283.329H191.539H192.241H413.659V278.307H192.241Z"
                fill="#D4D7BD" />
        </g>
        <path d="M197.641 272.907H62.8301V279.612H197.641V272.907Z" fill="#A2A96F" />
        <path d="M419.059 272.907H196.939V279.612H419.059V272.907Z" fill="#BEC39C" />
        <path
            d="M291.858 101.932L291.83 101.461H291.359H282.341C276.155 101.461 271.141 96.4468 271.141 90.261V42.534C271.141 36.3481 276.155 31.334 282.341 31.334H391.755H391.764C397.95 31.334 402.964 36.3481 402.964 42.534V90.261C402.964 96.4468 397.95 101.461 391.764 101.461H309.197H308.92L308.773 101.695C305.43 107.024 299.146 114.632 288.358 119.932C291.54 112.214 292.102 106.122 291.858 101.932Z"
            fill="white" stroke="black" />
        <path
            d="M343.738 54.2922C343.178 55.4962 342.898 56.4995 342.898 57.3022C342.898 58.1515 343.108 58.8422 343.528 59.3742C343.958 59.9155 344.583 60.1862 345.404 60.1862H346.916C347.626 60.1862 348.2 60.0789 348.638 59.8642C349.077 59.6495 349.296 59.3789 349.296 59.0522C349.296 58.7815 349.128 58.5529 348.792 58.3662C348.26 58.0675 347.36 57.9182 346.09 57.9182V56.6582H350.738L350.808 57.2882L350.738 57.9182H349.968C350.108 58.0302 350.216 58.1795 350.29 58.3662C350.365 58.5529 350.402 58.7582 350.402 58.9822C350.402 59.3835 350.286 59.7709 350.052 60.1442C349.819 60.5175 349.441 60.8255 348.918 61.0682C348.405 61.3202 347.738 61.4462 346.916 61.4462H345.404C344.667 61.4462 344.023 61.2549 343.472 60.8722C342.931 60.4895 342.516 59.9809 342.226 59.3462C341.946 58.7209 341.806 58.0489 341.806 57.3302C341.806 56.3315 342.114 55.1415 342.73 53.7602L343.738 54.2922ZM350.593 56.6582H352.133C352.534 56.6582 352.833 56.5742 353.029 56.4062C353.225 56.2289 353.323 55.9909 353.323 55.6922C353.323 55.4495 353.276 55.0715 353.183 54.5582C353.099 54.0355 353.001 53.5362 352.889 53.0602L353.953 52.7802C354.065 53.2562 354.168 53.7789 354.261 54.3482C354.364 54.9175 354.415 55.3609 354.415 55.6782C354.415 56.0609 354.326 56.4249 354.149 56.7702C353.972 57.1155 353.71 57.3955 353.365 57.6102C353.02 57.8155 352.609 57.9182 352.133 57.9182H350.593V56.6582ZM352.105 49.7282H353.505V51.1282H352.105V49.7282ZM358.83 57.9182C357.906 57.9182 357.267 57.6709 356.912 57.1762C356.558 56.6722 356.38 55.9349 356.38 54.9642L356.366 48.8322H357.458L357.472 54.9642C357.472 55.4682 357.5 55.8322 357.556 56.0562C357.622 56.2802 357.743 56.4389 357.92 56.5322C358.107 56.6162 358.41 56.6582 358.83 56.6582H359.04L359.11 57.3022L359.04 57.9182H358.83ZM362.629 53.6062V55.5942C362.629 55.9769 362.723 56.2522 362.909 56.4202C363.096 56.5789 363.39 56.6582 363.791 56.6582H364.309L364.379 57.3022L364.309 57.9182H363.791C363.493 57.9182 363.18 57.8435 362.853 57.6942C362.527 57.5449 362.251 57.3209 362.027 57.0222C361.803 57.3115 361.519 57.5355 361.173 57.6942C360.828 57.8435 360.478 57.9182 360.123 57.9182H358.905V56.6582H360.123C360.599 56.6582 360.954 56.5602 361.187 56.3642C361.421 56.1682 361.537 55.8555 361.537 55.4262V53.6062H362.629ZM359.101 60.0602H360.501V61.4602H359.101V60.0602ZM368.159 53.6062V55.5942C368.159 55.9769 368.252 56.2522 368.439 56.4202C368.626 56.5789 368.92 56.6582 369.321 56.6582H370.035L370.105 57.3162L370.035 57.9182H369.321C369.022 57.9182 368.71 57.8435 368.383 57.6942C368.056 57.5449 367.781 57.3209 367.557 57.0222C367.333 57.3115 367.048 57.5355 366.703 57.6942C366.358 57.8435 366.008 57.9182 365.653 57.9182H364.169V56.6582H365.653C366.129 56.6582 366.484 56.5602 366.717 56.3642C366.95 56.1682 367.067 55.8555 367.067 55.4262V53.6062H368.159ZM363.721 60.0602H365.121V61.4602H363.721V60.0602ZM366.227 60.0602H367.627V61.4602H366.227V60.0602ZM373.888 53.6062V55.5942C373.888 55.9769 373.981 56.2522 374.168 56.4202C374.354 56.5789 374.648 56.6582 375.05 56.6582H375.764L375.834 57.3162L375.764 57.9182H375.05C374.751 57.9182 374.438 57.8435 374.112 57.6942C373.785 57.5449 373.51 57.3209 373.286 57.0222C373.062 57.3115 372.777 57.5355 372.432 57.6942C372.086 57.8435 371.736 57.9182 371.382 57.9182H369.898V56.6582H371.382C371.858 56.6582 372.212 56.5602 372.446 56.3642C372.679 56.1682 372.796 55.8555 372.796 55.4262V53.6062H373.888ZM370.598 50.6242H371.998V52.0242H370.598V50.6242ZM373.104 50.6242H374.504V52.0242H373.104V50.6242ZM381.716 57.0222C381.529 57.3115 381.287 57.5355 380.988 57.6942C380.689 57.8435 380.358 57.9182 379.994 57.9182C379.658 57.9182 379.322 57.8389 378.986 57.6802C378.65 57.5215 378.393 57.3022 378.216 57.0222C377.992 57.3209 377.731 57.5449 377.432 57.6942C377.133 57.8435 376.816 57.9182 376.48 57.9182H375.626V56.6582H376.48C376.937 56.6582 377.259 56.5695 377.446 56.3922C377.633 56.2055 377.726 55.8835 377.726 55.4262V53.6062H378.818V55.4262C378.818 55.8742 378.907 56.1915 379.084 56.3782C379.271 56.5649 379.574 56.6582 379.994 56.6582C380.423 56.6582 380.727 56.5649 380.904 56.3782C381.091 56.1915 381.184 55.8742 381.184 55.4262V53.6062H382.276V55.4262C382.276 55.8649 382.383 56.1822 382.598 56.3782C382.813 56.5649 383.121 56.6582 383.522 56.6582C383.942 56.6582 384.241 56.5649 384.418 56.3782C384.595 56.1915 384.684 55.8742 384.684 55.4262V53.6062H385.776V55.4262C385.776 55.8835 385.869 56.2055 386.056 56.3922C386.243 56.5695 386.565 56.6582 387.022 56.6582H387.876L387.946 57.2882L387.876 57.9182H387.022C386.686 57.9182 386.369 57.8435 386.07 57.6942C385.771 57.5449 385.51 57.3209 385.286 57.0222C385.109 57.3022 384.852 57.5215 384.516 57.6802C384.18 57.8389 383.844 57.9182 383.508 57.9182C383.181 57.9182 382.859 57.8435 382.542 57.6942C382.234 57.5355 381.959 57.3115 381.716 57.0222ZM379.798 50.4002H381.198V51.8002H379.798V50.4002ZM381.128 48.5942H382.458V49.9242H381.128V48.5942ZM382.374 50.4002H383.774V51.8002H382.374V50.4002ZM387.739 56.6582H389.629C390.591 56.6582 391.071 56.3362 391.071 55.6922C391.071 55.4402 391.025 55.0622 390.931 54.5582C390.847 54.0449 390.749 53.5455 390.637 53.0602L391.701 52.7802C391.813 53.2562 391.916 53.7789 392.009 54.3482C392.112 54.9175 392.163 55.3609 392.163 55.6782C392.163 56.0702 392.07 56.4389 391.883 56.7842C391.697 57.1202 391.412 57.3955 391.029 57.6102C390.647 57.8155 390.18 57.9182 389.629 57.9182H387.739V56.6582ZM387.137 59.3042H388.537V60.7042H387.137V59.3042ZM388.467 61.1802H389.797V62.5102H388.467V61.1802ZM389.713 59.3042H391.113V60.7042H389.713V59.3042Z"
            fill="#1A1E00" />
        <path
            d="M341.351 84.3296C341.118 84.3296 340.917 84.2503 340.749 84.0916C340.59 83.9236 340.511 83.7229 340.511 83.4896C340.511 83.2563 340.59 83.0603 340.749 82.9016C340.917 82.7336 341.118 82.6496 341.351 82.6496C341.584 82.6496 341.78 82.7336 341.939 82.9016C342.107 83.0603 342.191 83.2563 342.191 83.4896C342.191 83.7229 342.107 83.9236 341.939 84.0916C341.78 84.2503 341.584 84.3296 341.351 84.3296ZM345.466 84.3296C345.233 84.3296 345.032 84.2503 344.864 84.0916C344.706 83.9236 344.626 83.7229 344.626 83.4896C344.626 83.2563 344.706 83.0603 344.864 82.9016C345.032 82.7336 345.233 82.6496 345.466 82.6496C345.7 82.6496 345.896 82.7336 346.054 82.9016C346.222 83.0603 346.306 83.2563 346.306 83.4896C346.306 83.7229 346.222 83.9236 346.054 84.0916C345.896 84.2503 345.7 84.3296 345.466 84.3296ZM349.581 84.3296C349.348 84.3296 349.147 84.2503 348.979 84.0916C348.821 83.9236 348.741 83.7229 348.741 83.4896C348.741 83.2563 348.821 83.0603 348.979 82.9016C349.147 82.7336 349.348 82.6496 349.581 82.6496C349.815 82.6496 350.011 82.7336 350.169 82.9016C350.337 83.0603 350.421 83.2563 350.421 83.4896C350.421 83.7229 350.337 83.9236 350.169 84.0916C350.011 84.2503 349.815 84.3296 349.581 84.3296ZM356.147 77.4276C356.249 77.6703 356.571 78.3749 357.113 79.5416L357.617 80.6476C357.617 80.6476 357.617 80.6523 357.617 80.6616C357.626 80.6616 357.631 80.6616 357.631 80.6616C357.901 81.2683 358.135 81.7396 358.331 82.0756C358.536 82.4116 358.751 82.6636 358.975 82.8316C359.199 82.9903 359.46 83.0696 359.759 83.0696H359.983L360.053 83.7416L359.983 84.3296H359.759C359.348 84.3296 358.979 84.2363 358.653 84.0496C358.335 83.8536 358.032 83.5736 357.743 83.2096L357.701 83.2796C357.215 83.9796 356.45 84.3296 355.405 84.3296H354.691C354.187 84.3296 353.739 84.2549 353.347 84.1056C352.955 83.9469 352.619 83.7696 352.339 83.5736L352.913 82.5096C353.193 82.6776 353.459 82.8129 353.711 82.9156C353.963 83.0183 354.289 83.0696 354.691 83.0696H355.405C355.741 83.0696 356.025 83.0323 356.259 82.9576C356.492 82.8736 356.674 82.7383 356.805 82.5516C356.898 82.4303 356.945 82.2903 356.945 82.1316C356.945 81.9916 356.893 81.7956 356.791 81.5436L356.623 81.1656L356.189 80.2276C355.778 79.3503 355.428 78.5943 355.139 77.9596L356.147 77.4276ZM363.83 80.0176V82.0056C363.83 82.3883 363.923 82.6636 364.11 82.8316C364.297 82.9903 364.591 83.0696 364.992 83.0696H365.706L365.776 83.7276L365.706 84.3296H364.992C364.693 84.3296 364.381 84.2549 364.054 84.1056C363.727 83.9563 363.452 83.7323 363.228 83.4336C363.004 83.7229 362.719 83.9469 362.374 84.1056C362.029 84.2549 361.679 84.3296 361.324 84.3296H359.84V83.0696H361.324C361.8 83.0696 362.155 82.9716 362.388 82.7756C362.621 82.5796 362.738 82.2669 362.738 81.8376V80.0176H363.83ZM359.392 86.4716H360.792V87.8716H359.392V86.4716ZM361.898 86.4716H363.298V87.8716H361.898V86.4716ZM365.569 83.0696H367.459C368.42 83.0696 368.901 82.7476 368.901 82.1036C368.901 81.8516 368.854 81.4736 368.761 80.9696C368.677 80.4563 368.579 79.9569 368.467 79.4716L369.531 79.1916C369.643 79.6676 369.745 80.1903 369.839 80.7596C369.941 81.3289 369.993 81.7723 369.993 82.0896C369.993 82.4816 369.899 82.8503 369.713 83.1956C369.526 83.5316 369.241 83.8069 368.859 84.0216C368.476 84.2269 368.009 84.3296 367.459 84.3296H365.569V83.0696ZM365.023 86.4716H366.423V87.8716H365.023V86.4716ZM367.529 86.4716H368.929V87.8716H367.529V86.4716ZM374.421 84.3296C373.497 84.3296 372.858 84.0823 372.503 83.5876C372.149 83.0836 371.971 82.3463 371.971 81.3756L371.957 75.2436H373.049L373.063 81.3756C373.063 81.8796 373.091 82.2436 373.147 82.4676C373.213 82.6916 373.334 82.8503 373.511 82.9436C373.698 83.0276 374.001 83.0696 374.421 83.0696H374.631L374.701 83.7136L374.631 84.3296H374.421ZM374.496 83.0696H374.888C375.327 83.0696 375.598 82.8736 375.7 82.4816L376.148 80.8716C376.354 80.1436 376.671 79.5743 377.1 79.1636C377.53 78.7436 378.048 78.5336 378.654 78.5336C379.14 78.5336 379.569 78.6783 379.942 78.9676C380.316 79.2476 380.605 79.6303 380.81 80.1156C381.016 80.5916 381.118 81.1096 381.118 81.6696C381.118 82.3603 381.02 82.9296 380.824 83.3776C380.628 83.8163 380.372 84.1336 380.054 84.3296C379.746 84.5349 379.42 84.6376 379.074 84.6376C378.72 84.6376 378.365 84.5676 378.01 84.4276C377.656 84.2969 377.096 84.0356 376.33 83.6436C376.144 83.8583 375.924 84.0263 375.672 84.1476C375.42 84.2689 375.159 84.3296 374.888 84.3296H374.496V83.0696ZM376.848 82.5236C377.52 82.8689 377.996 83.0976 378.276 83.2096C378.556 83.3216 378.822 83.3776 379.074 83.3776C379.392 83.3776 379.63 83.2609 379.788 83.0276C379.947 82.7849 380.026 82.3323 380.026 81.6696C380.026 81.0816 379.91 80.6243 379.676 80.2976C379.443 79.9616 379.102 79.7936 378.654 79.7936C378.318 79.7936 378.024 79.9103 377.772 80.1436C377.53 80.3769 377.343 80.7316 377.212 81.2076L376.848 82.5236ZM385.133 80.0176V82.0056C385.133 82.3883 385.226 82.6636 385.413 82.8316C385.599 82.9903 385.893 83.0696 386.295 83.0696H386.435L386.519 83.7136L386.435 84.3296H386.295C385.819 84.3296 385.431 84.1989 385.133 83.9376V83.9656C385.133 85.2256 384.815 86.1869 384.181 86.8496C383.546 87.5216 382.631 87.8576 381.437 87.8576H380.555V86.5976H381.437C382.37 86.5976 383.037 86.3969 383.439 85.9956C383.84 85.5943 384.041 84.9176 384.041 83.9656V80.0176H385.133ZM386.239 83.0696H386.981C387.532 83.0696 388.036 83.0416 388.493 82.9856C387.756 82.4536 387.387 81.8189 387.387 81.0816C387.387 80.5776 387.504 80.1203 387.737 79.7096C387.971 79.2896 388.283 78.9583 388.675 78.7156C389.077 78.4729 389.515 78.3516 389.991 78.3516C390.449 78.3516 390.873 78.4729 391.265 78.7156C391.657 78.9583 391.97 79.2896 392.203 79.7096C392.437 80.1296 392.553 80.5869 392.553 81.0816C392.553 81.8096 392.185 82.4489 391.447 82.9996C391.942 83.0463 392.446 83.0696 392.959 83.0696H393.631L393.715 83.6996L393.631 84.3296H392.959C392.577 84.3296 392.11 84.2829 391.559 84.1896C391.018 84.0869 390.491 83.9423 389.977 83.7556C389.455 83.9423 388.918 84.0869 388.367 84.1896C387.826 84.2829 387.364 84.3296 386.981 84.3296H386.239V83.0696ZM388.479 81.0816C388.479 81.4363 388.601 81.7489 388.843 82.0196C389.095 82.2903 389.464 82.5096 389.949 82.6776C390.444 82.5096 390.817 82.2903 391.069 82.0196C391.331 81.7489 391.461 81.4363 391.461 81.0816C391.461 80.6429 391.321 80.2883 391.041 80.0176C390.761 79.7469 390.411 79.6116 389.991 79.6116C389.553 79.6116 389.189 79.7469 388.899 80.0176C388.619 80.2883 388.479 80.6429 388.479 81.0816ZM389.277 75.8876H390.677V77.2876H389.277V75.8876ZM393.487 83.0696H395.027C395.428 83.0696 395.727 82.9856 395.923 82.8176C396.119 82.6403 396.217 82.4023 396.217 82.1036C396.217 81.8609 396.17 81.4829 396.077 80.9696C395.993 80.4469 395.895 79.9476 395.783 79.4716L396.847 79.1916C396.959 79.6676 397.061 80.1903 397.155 80.7596C397.257 81.3289 397.309 81.7723 397.309 82.0896C397.309 82.4723 397.22 82.8363 397.043 83.1816C396.865 83.5269 396.604 83.8069 396.259 84.0216C395.913 84.2269 395.503 84.3296 395.027 84.3296H393.487V83.0696ZM393.837 86.4576H395.237V87.8576H393.837V86.4576Z"
            fill="#1A1E00" />
        <path fill-rule="evenodd" clip-rule="evenodd"
            d="M320.089 46.2197C319.63 46.2197 319.257 46.5926 319.257 47.0522V55.1352C319.257 58.4115 321.913 61.0678 325.189 61.0678C328.443 61.0678 331.038 58.4922 331.118 55.2855H331.122V54.2336C331.122 53.7748 330.751 53.4025 330.292 53.4011L330.291 53.4011L330.291 53.4011L330.291 53.4676L330.291 53.4011L330.29 53.4011L330.289 53.4011C329.831 53.4025 329.46 53.7748 329.46 54.2336V55.1352C329.46 57.4923 327.549 59.4041 325.191 59.4041C322.832 59.4041 320.922 57.4936 320.922 55.1352V47.0522C320.922 46.5926 320.549 46.2197 320.089 46.2197ZM325.272 61.7367C324.695 61.7367 324.227 62.2053 324.227 62.782C324.227 63.3586 324.695 63.8272 325.272 63.8272C325.849 63.8272 326.317 63.3586 326.317 62.782C326.317 62.2053 325.849 61.7367 325.272 61.7367Z"
            fill="#1E3E81" />
        <path fill-rule="evenodd" clip-rule="evenodd"
            d="M310.914 53.074C310.464 53.074 310.095 53.4244 310.095 53.8626C310.095 54.3008 310.464 54.6512 310.914 54.6512H316.562V54.9198H316.56L316.559 54.9851C316.515 57.3041 314.623 59.1701 312.293 59.1701C309.964 59.1701 308.072 57.3045 308.027 54.9857V54.0009C308.027 53.5413 307.654 53.1684 307.194 53.1684C306.773 53.1684 306.425 53.4815 306.369 53.8876C306.34 54.033 306.337 54.183 306.335 54.3431V54.3432L306.335 54.3468L306.335 54.3476C306.33 54.7113 306.323 55.1597 306.014 55.8405L306.007 55.8553C305.881 56.1078 305.722 56.3717 305.524 56.6353C304.219 58.3708 301.777 59.2978 298.445 59.2978C295.544 59.2978 293.469 58.617 292.257 57.2914C290.966 55.8795 291.099 54.2048 291.105 54.1418C291.151 53.6812 290.816 53.2695 290.355 53.2233C289.892 53.1756 289.483 53.5124 289.437 53.973L289.437 53.9734C289.427 54.0767 289.212 56.4231 290.996 58.3968C292.547 60.1133 295.059 60.9748 298.446 60.9748C302.849 60.9748 305.228 59.5043 306.494 58.0948L306.511 58.0758V58.0723C306.564 58.0019 306.753 57.7516 306.95 57.483C307.91 59.4667 309.941 60.8351 312.292 60.8351C315.516 60.8351 318.14 58.2597 318.22 55.0528H318.224V54.0009C318.224 53.8922 318.203 53.7883 318.165 53.693C318.084 53.3371 317.756 53.074 317.365 53.074H310.914ZM297.078 53.3533C296.501 53.3533 296.033 53.8219 296.033 54.3985C296.033 54.9752 296.501 55.4438 297.078 55.4438C297.655 55.4438 298.123 54.9752 298.123 54.3985C298.123 53.8219 297.655 53.3533 297.078 53.3533ZM299.61 53.3533C299.033 53.3533 298.565 53.8219 298.565 54.3985C298.565 54.9752 299.033 55.4438 299.61 55.4438C300.187 55.4438 300.655 54.9752 300.655 54.3985C300.655 53.8219 300.187 53.3533 299.61 53.3533ZM312.728 61.7367C312.151 61.7367 311.683 62.2054 311.683 62.782C311.683 63.3587 312.151 63.8273 312.728 63.8273C313.305 63.8273 313.773 63.3587 313.773 62.782C313.773 62.2054 313.305 61.7367 312.728 61.7367Z"
            fill="#1E3E81" />
    </g>
    <defs>
        <clipPath id="clip0_485_3392">
            <rect width="450" height="311.433" fill="white" />
        </clipPath>
    </defs>
</svg>
    