<svg width="137" height="42" viewBox="0 0 137 42" fill="none" xmlns="http://www.w3.org/2000/svg">
    <rect x="1" y="1" width="135" height="40" rx="4" fill="black" />
    <path
        d="M43.5422 12.636L43.5022 12.996H43.4222C43.0809 12.996 42.8195 12.884 42.6382 12.66C42.5262 12.836 42.3929 12.964 42.2382 13.044C42.0835 13.1294 41.9209 13.172 41.7502 13.172C41.5635 13.172 41.3369 13.1294 41.0702 13.044C40.8035 12.9587 40.4089 12.8173 39.8862 12.62L39.4702 12.46V15.492H38.8462V12.196L39.4862 11.708L39.8462 11.852L40.0782 11.02C40.1955 10.604 40.3769 10.2787 40.6222 10.044C40.8675 9.80402 41.1635 9.68402 41.5102 9.68402C41.7875 9.68402 42.0329 9.76668 42.2462 9.93202C42.4595 10.092 42.6249 10.3107 42.7422 10.588C42.8595 10.86 42.9182 11.156 42.9182 11.476C42.9182 11.7 42.9369 11.8707 42.9742 11.988C43.0115 12.1 43.0649 12.1774 43.1342 12.22C43.2035 12.2573 43.2995 12.276 43.4222 12.276H43.5022L43.5422 12.636ZM40.4462 12.084C41.1235 12.3293 41.5582 12.452 41.7502 12.452C41.9315 12.452 42.0675 12.3853 42.1582 12.252C42.2489 12.1133 42.2942 11.8547 42.2942 11.476C42.2942 11.14 42.2275 10.8787 42.0942 10.692C41.9609 10.5 41.7662 10.404 41.5102 10.404C41.3182 10.404 41.1529 10.4707 41.0142 10.604C40.8755 10.7373 40.7662 10.94 40.6862 11.212L40.4462 12.084Z"
        fill="white" />
    <path
        d="M45.7018 10.532V11.668C45.7018 11.8867 45.7551 12.044 45.8618 12.14C45.9685 12.2307 46.1365 12.276 46.3658 12.276H46.7738L46.8138 12.652L46.7738 12.996H46.3658C46.1951 12.996 46.0165 12.9533 45.8298 12.868C45.6431 12.7827 45.4858 12.6547 45.3578 12.484C45.2298 12.6493 45.0671 12.7773 44.8698 12.868C44.6725 12.9533 44.4725 12.996 44.2698 12.996H43.4218V12.276H44.2698C44.5418 12.276 44.7445 12.22 44.8778 12.108C45.0111 11.996 45.0778 11.8173 45.0778 11.572V10.532H45.7018ZM43.1658 14.22H43.9658V15.02H43.1658V14.22ZM44.5978 14.22H45.3978V15.02H44.5978V14.22Z"
        fill="white" />
    <path
        d="M46.6633 12.276H47.0873C47.4019 12.276 47.6899 12.26 47.9513 12.228C47.5299 11.924 47.3193 11.5613 47.3193 11.14C47.3193 10.852 47.3859 10.5907 47.5193 10.356C47.6526 10.116 47.8313 9.92668 48.0553 9.78802C48.2846 9.64935 48.5353 9.58002 48.8073 9.58002C49.0686 9.58002 49.3113 9.64935 49.5353 9.78802C49.7593 9.92668 49.9379 10.116 50.0713 10.356C50.2046 10.596 50.2713 10.8573 50.2713 11.14C50.2713 11.556 50.0606 11.9213 49.6393 12.236C49.9219 12.2627 50.2099 12.276 50.5033 12.276H50.8873L50.9353 12.636L50.8873 12.996H50.5033C50.2846 12.996 50.0179 12.9693 49.7033 12.916C49.3939 12.8573 49.0926 12.7747 48.7993 12.668C48.5006 12.7747 48.1939 12.8573 47.8793 12.916C47.5699 12.9693 47.3059 12.996 47.0873 12.996H46.6633V12.276ZM47.6953 8.18802H48.4953V8.98802H47.6953V8.18802ZM47.9433 11.14C47.9433 11.3427 48.0126 11.5214 48.1513 11.676C48.2953 11.8307 48.5059 11.956 48.7833 12.052C49.0659 11.956 49.2793 11.8307 49.4233 11.676C49.5726 11.5214 49.6473 11.3427 49.6473 11.14C49.6473 10.8893 49.5673 10.6867 49.4073 10.532C49.2473 10.3773 49.0473 10.3 48.8073 10.3C48.5566 10.3 48.3486 10.3773 48.1833 10.532C48.0233 10.6867 47.9433 10.8893 47.9433 11.14ZM49.1273 8.18802H49.9273V8.98802H49.1273V8.18802Z"
        fill="white" />
    <path
        d="M53.4446 10.532V11.668C53.4446 11.8867 53.498 12.044 53.6046 12.14C53.7113 12.2307 53.8793 12.276 54.1086 12.276H54.5166L54.5566 12.652L54.5166 12.996H54.1086C53.938 12.996 53.7593 12.9533 53.5726 12.868C53.386 12.7827 53.2286 12.6547 53.1006 12.484C52.9726 12.6493 52.81 12.7773 52.6126 12.868C52.4153 12.9533 52.2153 12.996 52.0126 12.996H50.8046V12.276H52.0126C52.2846 12.276 52.4873 12.22 52.6206 12.108C52.754 11.996 52.8206 11.8173 52.8206 11.572V10.532H53.4446ZM51.6926 8.82802H52.4926V9.62802H51.6926V8.82802ZM53.1246 8.82802H53.9246V9.62802H53.1246V8.82802Z"
        fill="white" />
    <path
        d="M57.9174 12.484C57.8108 12.6493 57.6721 12.7773 57.5014 12.868C57.3308 12.9533 57.1414 12.996 56.9334 12.996C56.7414 12.996 56.5494 12.9507 56.3574 12.86C56.1654 12.7694 56.0188 12.644 55.9174 12.484C55.7894 12.6547 55.6401 12.7827 55.4694 12.868C55.2988 12.9533 55.1174 12.996 54.9254 12.996H54.4374V12.276H54.9254C55.1868 12.276 55.3708 12.2253 55.4774 12.124C55.5841 12.0174 55.6374 11.8334 55.6374 11.572V10.532H56.2614V11.572C56.2614 11.828 56.3121 12.0093 56.4134 12.116C56.5201 12.2227 56.6934 12.276 56.9334 12.276C57.1788 12.276 57.3521 12.2227 57.4534 12.116C57.5601 12.0093 57.6134 11.828 57.6134 11.572V10.532H58.2374V11.572C58.2374 11.8227 58.2988 12.004 58.4214 12.116C58.5441 12.2227 58.7201 12.276 58.9494 12.276C59.1894 12.276 59.3601 12.2227 59.4614 12.116C59.5628 12.0093 59.6134 11.828 59.6134 11.572V10.532H60.2374V11.572C60.2374 11.8334 60.2908 12.0174 60.3974 12.124C60.5041 12.2253 60.6881 12.276 60.9494 12.276H61.4374L61.4774 12.636L61.4374 12.996H60.9494C60.7574 12.996 60.5761 12.9533 60.4054 12.868C60.2348 12.7827 60.0854 12.6547 59.9574 12.484C59.8561 12.644 59.7094 12.7694 59.5174 12.86C59.3254 12.9507 59.1334 12.996 58.9414 12.996C58.7548 12.996 58.5708 12.9533 58.3894 12.868C58.2134 12.7773 58.0561 12.6493 57.9174 12.484Z"
        fill="white" />
    <path
        d="M61.3593 12.276H61.5833C61.834 12.276 61.9887 12.164 62.0473 11.94L62.3033 11.02C62.4206 10.604 62.602 10.2787 62.8473 10.044C63.0926 9.80402 63.3887 9.68402 63.7353 9.68402C64.0126 9.68402 64.258 9.76668 64.4713 9.93202C64.6847 10.092 64.85 10.3107 64.9673 10.588C65.0847 10.86 65.1433 11.156 65.1433 11.476C65.1433 11.8707 65.0873 12.196 64.9753 12.452C64.8633 12.7027 64.7167 12.884 64.5353 12.996C64.3593 13.1133 64.1726 13.172 63.9753 13.172C63.7726 13.172 63.57 13.132 63.3673 13.052C63.1646 12.9773 62.8447 12.828 62.4073 12.604C62.3006 12.7267 62.1753 12.8227 62.0313 12.892C61.8873 12.9613 61.738 12.996 61.5833 12.996H61.3593V12.276ZM62.7033 11.964C63.0873 12.1614 63.3593 12.292 63.5193 12.356C63.6793 12.42 63.8313 12.452 63.9753 12.452C64.1567 12.452 64.2927 12.3853 64.3833 12.252C64.474 12.1133 64.5193 11.8547 64.5193 11.476C64.5193 11.14 64.4527 10.8787 64.3193 10.692C64.186 10.5 63.9913 10.404 63.7353 10.404C63.5433 10.404 63.3753 10.4707 63.2313 10.604C63.0927 10.7373 62.986 10.94 62.9113 11.212L62.7033 11.964Z"
        fill="white" />
    <path
        d="M70.9159 10.956C71.0866 11.2174 71.1719 11.5054 71.1719 11.82C71.1719 12.06 71.1159 12.26 71.0039 12.42C70.8493 12.6387 70.6626 12.7907 70.4439 12.876C70.2253 12.956 69.9853 12.996 69.7239 12.996H69.2919C69.0039 12.996 68.7426 12.956 68.5079 12.876C68.2786 12.7907 68.0893 12.6947 67.9399 12.588L68.2679 11.98C68.2839 11.9854 68.3346 12.0173 68.4199 12.076C68.5106 12.1293 68.6333 12.1774 68.7879 12.22C68.9426 12.2573 69.1106 12.276 69.2919 12.276H69.7239C69.9159 12.276 70.0733 12.2573 70.1959 12.22C70.3239 12.1774 70.4226 12.1054 70.4919 12.004C70.5399 11.94 70.5639 11.868 70.5639 11.788C70.5639 11.6707 70.5053 11.5213 70.3879 11.34C69.8866 10.5507 69.4813 9.92668 69.1719 9.46802L69.6999 9.06802L70.9159 10.956Z"
        fill="white" />
    <path
        d="M72.9312 14.3C73.3045 14.3 73.5925 14.2547 73.7952 14.164C74.0032 14.0787 74.1472 13.9453 74.2272 13.764C74.3072 13.5827 74.3472 13.3427 74.3472 13.044V12.996H73.4672C73.0192 12.996 72.6565 12.8627 72.3792 12.596C72.1072 12.3293 71.9712 11.956 71.9712 11.476C71.9712 11.1507 72.0325 10.8547 72.1552 10.588C72.2832 10.3213 72.4592 10.1107 72.6832 9.95602C72.9125 9.80135 73.1712 9.72402 73.4592 9.72402C73.7632 9.72402 74.0299 9.79868 74.2592 9.94802C74.4885 10.0973 74.6645 10.3054 74.7872 10.572C74.9099 10.8333 74.9712 11.1347 74.9712 11.476V12.276H75.4192L75.4672 12.644L75.4192 12.996H74.9712V13.044C74.9712 13.652 74.8085 14.132 74.4832 14.484C74.1632 14.8413 73.6459 15.02 72.9312 15.02H72.0752V14.3H72.9312ZM72.5952 11.476C72.5952 11.7693 72.6645 11.9773 72.8032 12.1C72.9419 12.2174 73.1632 12.276 73.4672 12.276H74.3472V11.476C74.3472 11.1507 74.2725 10.8973 74.1232 10.716C73.9739 10.5293 73.7525 10.436 73.4592 10.436C73.1872 10.436 72.9739 10.532 72.8192 10.724C72.6699 10.9107 72.5952 11.1613 72.5952 11.476Z"
        fill="white" />
    <path
        d="M75.3359 12.276H75.6559C75.8959 12.276 76.0745 12.2253 76.1919 12.124C76.3145 12.0174 76.3759 11.8334 76.3759 11.572V7.80402H76.9919V11.572V11.668C76.9919 11.8867 77.0452 12.044 77.1519 12.14C77.2585 12.2307 77.4265 12.276 77.6559 12.276H77.9519L77.9919 12.644L77.9519 12.996H77.6559C77.4852 12.996 77.3145 12.956 77.1439 12.876C76.9732 12.7907 76.8265 12.6653 76.7039 12.5C76.5759 12.6653 76.4212 12.7907 76.2399 12.876C76.0585 12.956 75.8825 12.996 75.7119 12.996H75.3359V12.276Z"
        fill="white" />
    <path
        d="M77.8749 12.276H78.7549C78.9843 12.276 79.1549 12.228 79.2669 12.132C79.3789 12.0307 79.4349 11.8947 79.4349 11.724C79.4349 11.5853 79.4083 11.3693 79.3549 11.076C79.3069 10.7773 79.2509 10.492 79.1869 10.22L79.7949 10.06C79.8589 10.332 79.9176 10.6307 79.9709 10.956C80.0296 11.2813 80.0589 11.5347 80.0589 11.716C80.0589 11.9347 80.0083 12.1427 79.9069 12.34C79.8056 12.5373 79.6563 12.6974 79.4589 12.82C79.2616 12.9374 79.0269 12.996 78.7549 12.996H77.8749V12.276ZM78.7389 8.31602H79.5389V9.11602H78.7389V8.31602Z"
        fill="white" />
    <path d="M81.174 7.80402H81.798L81.806 12.996H81.182L81.174 7.80402Z" fill="white" />
    <path
        d="M85.7441 10.956C85.9147 11.2174 86.0001 11.5054 86.0001 11.82C86.0001 12.06 85.9441 12.26 85.8321 12.42C85.6774 12.6387 85.4907 12.7907 85.2721 12.876C85.0534 12.956 84.8134 12.996 84.5521 12.996H84.1201C83.8321 12.996 83.5707 12.956 83.3361 12.876C83.1067 12.7907 82.9174 12.6947 82.7681 12.588L83.0961 11.98C83.1121 11.9854 83.1627 12.0173 83.2481 12.076C83.3387 12.1293 83.4614 12.1774 83.6161 12.22C83.7707 12.2573 83.9387 12.276 84.1201 12.276H84.5521C84.7441 12.276 84.9014 12.2573 85.0241 12.22C85.1521 12.1774 85.2507 12.1054 85.3201 12.004C85.3681 11.94 85.3921 11.868 85.3921 11.788C85.3921 11.6707 85.3334 11.5213 85.2161 11.34C84.7147 10.5507 84.3094 9.92668 84.0001 9.46802L84.5281 9.06802L85.7441 10.956Z"
        fill="white" />
    <path
        d="M48.3452 30.18C47.6838 30.18 47.1078 30.036 46.6172 29.748C46.1265 29.4493 45.7478 29.0547 45.4812 28.564C45.2252 28.0733 45.0972 27.54 45.0972 26.964C45.0972 26.708 45.1185 26.4733 45.1612 26.26C45.2145 25.9613 45.2838 25.604 45.3692 25.188C45.4545 24.772 45.5345 24.4093 45.6092 24.1L47.4812 24.564L47.3692 25.076C47.1558 25.908 47.0492 26.484 47.0492 26.804C47.0492 27.1347 47.1612 27.396 47.3852 27.588C47.6092 27.78 47.9292 27.876 48.3452 27.876H55.3052C55.7425 27.876 56.0518 27.8173 56.2332 27.7C56.4145 27.572 56.5052 27.3587 56.5052 27.06V24.82H58.5532V27.14C58.5532 27.4173 58.6225 27.6093 58.7612 27.716C58.9105 27.8227 59.1452 27.876 59.4652 27.876H59.9452L60.0412 29.06L59.9452 30.18H59.4652C59.1238 30.18 58.7718 30.116 58.4092 29.988C58.0572 29.8493 57.7425 29.6413 57.4652 29.364C57.2198 29.6413 56.9105 29.8493 56.5372 29.988C56.1638 30.116 55.7532 30.18 55.3052 30.18H48.3452ZM49.6252 22.484H51.5292V24.404H49.6252V22.484ZM52.6332 22.484H54.5372V24.404H52.6332V22.484Z"
        fill="white" />
    <path d="M59.7793 27.876H63.1233L63.2513 28.996L63.1233 30.18H59.7793V27.876Z" fill="white" />
    <path d="M62.9512 27.876H66.2952L66.4232 28.996L66.2952 30.18H62.9512V27.876Z" fill="white" />
    <path
        d="M66.059 27.876H67.979C68.9817 27.876 69.9257 27.748 70.811 27.492C71.6964 27.236 72.6084 26.8573 73.547 26.356C71.2964 25.5773 69.9844 25.188 69.611 25.188C69.387 25.188 69.2004 25.2573 69.051 25.396C68.9017 25.524 68.7684 25.748 68.651 26.068L66.859 25.492C67.1044 24.66 67.467 24.0253 67.947 23.588C68.427 23.1507 68.9817 22.932 69.611 22.932C70.0484 22.932 70.7364 23.0973 71.675 23.428C72.6244 23.7587 73.8724 24.244 75.419 24.884L75.723 27.396C74.7204 28.0253 73.851 28.5267 73.115 28.9C72.379 29.2733 71.5844 29.5827 70.731 29.828C69.8777 30.0627 68.9604 30.18 67.979 30.18H66.059V27.876ZM70.235 31.956H72.363V34.036H70.235V31.956Z"
        fill="white" />
    <path
        d="M80.8355 30.18C79.7155 30.18 78.8889 29.8547 78.3555 29.204C77.8329 28.5533 77.5715 27.6787 77.5715 26.58V19.492H79.6035V26.58C79.6035 26.9853 79.6249 27.2733 79.6675 27.444C79.7209 27.6147 79.8275 27.732 79.9875 27.796C80.1582 27.8493 80.4409 27.876 80.8355 27.876H81.4115L81.5075 29.06L81.4115 30.18H80.8355Z"
        fill="white" />
    <path
        d="M81.232 27.876H82.784C83.6054 27.876 84 27.556 83.968 26.916C83.936 26.4467 83.7974 25.5613 83.552 24.26L85.456 23.78C85.8187 25.348 86 26.468 86 27.14C86 27.6627 85.8827 28.1587 85.648 28.628C85.424 29.0867 85.0774 29.46 84.608 29.748C84.1494 30.036 83.5947 30.18 82.944 30.18H81.232V27.876ZM80.928 32.116H83.056V34.196H80.928V32.116Z"
        fill="white" />
    <mask id="mask0_457_3647" style="mask-type:luminance" maskUnits="userSpaceOnUse" x="109" y="14"
        width="15" height="14">
        <path
            d="M118.711 15.3802L109.82 24.6359C112.962 28.9392 118.115 28.2321 121.163 25.2138C123.609 22.7928 123.839 18.7484 122.591 15.8273C122.021 14.4925 120.891 13.8133 119.389 14.8074C119.142 14.9712 118.917 15.166 118.711 15.3797V15.3802Z"
            fill="white" />
    </mask>
    <g mask="url(#mask0_457_3647)">
        <path d="M123.839 13.8137H109.82V28.939H123.839V13.8137Z" fill="#002D5D" />
        <path
            d="M123.116 25.9284C122.046 27.0521 120.908 28.009 119.766 28.7777C119.48 28.97 119.194 29.1501 118.909 29.3185V29.0016H110.411V29.0326C110.237 28.6602 110.122 28.2461 110.064 27.7979C109.947 26.9015 110.056 25.8688 110.372 24.7659C111.003 22.5601 112.464 20.0719 114.604 17.8244C115.674 16.7006 116.812 15.7437 117.954 14.975C118.525 14.591 119.098 14.2537 119.662 13.9662C119.945 13.8228 120.226 13.6915 120.504 13.573V13.7516H123.901V24.6423H124.247C124.129 24.7873 124.009 24.9318 123.886 25.0752C123.64 25.3627 123.383 25.6475 123.116 25.9284H123.116Z"
            fill="#002D5D" />
        <path
            d="M123.094 25.9413C122.028 27.06 120.895 28.0133 119.758 28.7785C119.473 28.9697 119.189 29.1493 118.905 29.3167V29.0013H110.443V29.0323C110.27 28.662 110.156 28.2494 110.097 27.8027C109.981 26.9099 110.089 25.8818 110.404 24.7835C111.033 22.5868 112.487 20.1093 114.617 17.8714C116.748 15.6336 119.151 14.0596 121.314 13.3229V13.7508H123.901V24.6603H124.219C124.102 24.8048 123.982 24.9483 123.86 25.0917C123.615 25.3782 123.359 25.6615 123.093 25.9413H123.094Z"
            fill="#012E5F" />
        <path
            d="M123.071 25.9548C122.01 27.0689 120.882 28.0176 119.749 28.7797C119.465 28.97 119.182 29.149 118.9 29.3159V29.0015H110.475V29.0325C110.302 28.6637 110.188 28.2527 110.13 27.808C110.014 26.9193 110.122 25.8952 110.435 24.802C111.062 22.615 112.51 20.1477 114.631 17.9195C116.752 15.6913 119.145 14.1239 121.299 13.3903V13.7505H123.901V24.6789H124.192C124.075 24.8229 123.956 24.9658 123.834 25.1083C123.591 25.3931 123.336 25.6755 123.071 25.9538V25.9548Z"
            fill="#012F60" />
        <path
            d="M123.049 25.9673C121.993 27.0768 120.869 28.0215 119.742 28.78C119.46 28.9698 119.177 29.1478 118.896 29.3137V29.0008H110.507V29.0318C110.336 28.6645 110.222 28.2555 110.164 27.8129C110.049 26.9277 110.156 25.9088 110.468 24.8196C111.092 22.6417 112.534 20.1856 114.646 17.9671C116.758 15.7485 119.14 14.1878 121.285 13.4578V13.7508H123.902V24.6975H124.166C124.05 24.8405 123.931 24.9829 123.81 25.1248C123.567 25.4087 123.313 25.6895 123.049 25.9668L123.049 25.9673Z"
            fill="#023061" />
        <path
            d="M123.026 25.9807C121.975 27.0852 120.856 28.0258 119.733 28.7813C119.453 28.97 119.172 29.1475 118.891 29.3129V29.001H110.539V29.0321C110.368 28.6663 110.255 28.2588 110.197 27.8182C110.082 26.9371 110.189 25.9222 110.5 24.8381C111.121 22.67 112.556 20.224 114.659 18.0151C116.762 15.8063 119.135 14.2521 121.27 13.5251V13.751H123.901V24.7166H124.138C124.022 24.859 123.904 25.0009 123.783 25.1424C123.542 25.4247 123.289 25.7045 123.026 25.9807Z"
            fill="#033163" />
        <path
            d="M123.003 25.9937C121.956 27.0935 120.842 28.0301 119.725 28.7825C119.445 28.9707 119.166 29.1473 118.886 29.3116V29.0013H110.57V29.0323C110.4 28.668 110.287 28.2626 110.23 27.8241C110.116 26.9465 110.222 25.9362 110.532 24.8567C111.15 22.6977 112.579 20.2629 114.673 18.0632C116.767 15.864 119.129 14.3164 121.255 13.5925V13.7507H123.902V24.7351H124.111C123.996 24.877 123.878 25.0185 123.758 25.1589C123.517 25.4402 123.266 25.719 123.004 25.9937H123.003Z"
            fill="#033264" />
        <path
            d="M122.981 26.007C121.939 27.1018 120.83 28.0343 119.716 28.7836C119.438 28.9708 119.16 29.1468 118.882 29.3106V29.0013H110.602V29.0324C110.432 28.6697 110.32 28.2662 110.263 27.8292C110.149 26.9558 110.255 25.9495 110.563 24.8746C111.178 22.7252 112.601 20.3006 114.686 18.1111C116.771 15.9216 119.122 14.3806 121.239 13.6603V13.7513H123.901V24.7545H124.082C123.968 24.8959 123.851 25.0364 123.731 25.1762C123.491 25.4566 123.241 25.7338 122.98 26.0075L122.981 26.007Z"
            fill="#043366" />
        <path
            d="M122.959 26.0205C121.921 27.1106 120.816 28.0391 119.708 28.7849C119.431 28.9711 119.154 29.1461 118.878 29.3094V29.0016H110.634V29.0326C110.465 28.6714 110.353 28.2695 110.296 27.8346C110.183 26.9646 110.288 25.963 110.595 24.8931C111.208 22.7529 112.625 20.339 114.7 18.1592C116.776 15.9788 119.117 14.445 121.225 13.7277V13.7516H123.901V24.7731H124.055C123.941 24.9135 123.825 25.0539 123.705 25.1933C123.467 25.472 123.217 25.7483 122.958 26.021L122.959 26.0205Z"
            fill="#053467" />
        <path
            d="M122.936 26.0337C121.902 27.1188 120.803 28.0436 119.7 28.7858C119.424 28.9715 119.148 29.1455 118.872 29.3083V29.0015H110.665V29.0321C110.497 28.6724 110.386 28.2725 110.329 27.8396C110.216 26.9738 110.321 25.9767 110.626 24.9109C111.237 22.7804 112.648 20.3772 114.714 18.2064C116.781 16.0357 119.111 14.5085 121.209 13.7943C121.734 13.6157 122.244 13.488 122.732 13.4138V13.751H123.901V24.7914H124.028C123.914 24.9313 123.798 25.0706 123.679 25.2095C123.442 25.4873 123.193 25.762 122.936 26.0337Z"
            fill="#053569" />
        <path
            d="M122.913 26.0467C121.884 27.1272 120.79 28.0475 119.691 28.7867C119.417 28.9714 119.142 29.1448 118.868 29.3066V29.0014H110.697V29.0319C110.529 28.6743 110.419 28.2754 110.362 27.8445C110.25 26.9823 110.354 25.9897 110.658 24.929C111.265 22.8077 112.67 20.4151 114.727 18.2541C116.785 16.093 119.105 14.573 121.194 13.8618C122.239 13.5062 123.225 13.353 124.092 13.4232L123.901 13.7509V24.3903H124.331C123.901 24.9514 123.427 25.5064 122.913 26.0467H122.913Z"
            fill="#06366A" />
        <path
            d="M122.89 26.0601C121.866 27.1361 120.776 28.0523 119.683 28.7879C119.41 28.9721 119.136 29.1445 118.863 29.3058V29.0016H110.728V29.0321C110.561 28.676 110.451 28.2792 110.395 27.8498C110.283 26.9916 110.387 26.0031 110.689 24.947C111.294 22.8353 112.693 20.4535 114.741 18.3021C116.789 16.1507 119.1 14.6373 121.179 13.9291C122.219 13.575 123.201 13.4224 124.063 13.4926L123.9 13.7511V24.4108H124.301C123.873 24.9699 123.401 25.5219 122.889 26.0596L122.89 26.0601Z"
            fill="#07376C" />
        <path
            d="M122.868 26.0733C121.849 27.1442 120.764 28.0563 119.675 28.7889C119.403 28.972 119.131 29.144 118.859 29.3042V29.0015H110.761V29.0321C110.595 28.6775 110.485 28.2827 110.429 27.8554C110.318 27.0007 110.421 26.0169 110.722 24.9658C111.325 22.8633 112.717 20.4921 114.756 18.3504C116.795 16.2087 119.094 14.7018 121.165 13.9973C122.2 13.6447 123.178 13.4931 124.037 13.5623L123.901 13.7515V24.4322H124.274C123.847 24.9887 123.378 25.5382 122.868 26.0738V26.0733Z"
            fill="#07386D" />
        <path
            d="M122.846 26.0863C121.831 27.1526 120.751 28.0607 119.667 28.7897C119.396 28.9718 119.125 29.1433 118.855 29.303V29.0013H110.793V29.0318C110.628 28.6788 110.518 28.2856 110.463 27.8603C110.352 27.0097 110.455 26.0299 110.755 24.9834C111.354 22.8905 112.74 20.5296 114.77 18.3975C116.8 16.2654 119.09 14.7652 121.151 14.0637C122.181 13.7127 123.155 13.5616 124.01 13.6308L123.902 13.7508V24.4518H124.246C123.821 25.0058 123.354 25.5532 122.846 26.0858L122.846 26.0863Z"
            fill="#08396E" />
        <path
            d="M122.823 26.0996C121.812 27.1607 120.738 28.0648 119.659 28.7907C119.389 28.9723 119.119 29.1427 118.85 29.3015V29.0013H110.824V29.0318C110.659 28.6803 110.551 28.2891 110.495 27.8653C110.385 27.0183 110.487 26.0431 110.786 25.0017C111.383 22.918 112.762 20.5682 114.783 18.4453C116.804 16.3229 119.083 14.8293 121.135 14.1308C122.161 13.7818 123.13 13.6313 123.981 13.6999L123.901 13.7508V24.4727H124.216C123.793 25.0241 123.328 25.569 122.823 26.0996H122.823Z"
            fill="#093A70" />
        <path
            d="M122.8 26.1128C121.795 27.1694 120.724 28.0694 119.65 28.7918C119.382 28.9724 119.113 29.1423 118.845 29.3V29.0009H110.855V29.0314C110.692 28.6814 110.584 28.2917 110.529 27.8705C110.419 27.0275 110.521 26.0569 110.818 25.0196C111.412 22.9455 112.785 20.6059 114.797 18.4932C116.809 16.3799 119.078 14.8934 121.12 14.1985C122.141 13.8511 123.106 13.701 123.954 13.7697H123.902V24.4936H124.188C123.767 25.0425 123.303 25.5848 122.801 26.1133L122.8 26.1128Z"
            fill="#093B71" />
        <path
            d="M122.778 26.1262C121.777 27.1778 120.712 28.0736 119.642 28.793C119.375 28.9731 119.108 29.1414 118.841 29.2991V29.0015H110.887V29.0321C110.724 28.6836 110.616 28.2959 110.562 27.8762C110.452 27.0368 110.554 26.0708 110.85 25.0386C111.442 22.9737 112.809 20.6452 114.811 18.5417C116.813 16.4381 119.072 14.9582 121.105 14.2664C122.122 13.9204 123.082 13.7714 123.926 13.8395H123.901V24.5146H124.158C123.739 25.061 123.278 25.6007 122.778 26.1267L122.778 26.1262Z"
            fill="#0A3C73" />
        <path
            d="M122.755 26.1394C121.759 27.1863 120.698 28.0781 119.634 28.7939C119.368 28.973 119.101 29.1409 118.835 29.2975V29.001H110.918V29.031C110.756 28.684 110.649 28.2984 110.595 27.8807C110.485 27.0454 110.587 26.0834 110.881 25.0558C111.47 23.0006 112.83 20.6823 114.824 18.5884C116.817 16.4945 119.066 15.0217 121.09 14.3324C122.102 13.988 123.058 13.8395 123.898 13.9076C124.003 13.9163 124.106 13.928 124.207 13.9433H123.901V24.5339H124.13C123.713 25.0777 123.254 25.6154 122.756 26.1389L122.755 26.1394Z"
            fill="#0B3D74" />
        <path
            d="M122.733 26.1526C121.741 27.1944 120.685 28.0821 119.625 28.7954C119.36 28.9734 119.095 29.1408 118.831 29.297V29.0019H110.951V29.0319C110.789 28.687 110.682 28.3024 110.629 27.8868C110.52 27.055 110.621 26.0976 110.914 25.0746C111.5 23.0285 112.855 20.7209 114.839 18.6372C116.823 16.5529 119.061 15.0868 121.076 14.401C122.083 14.0582 123.034 13.9101 123.87 13.9778C123.974 13.9864 124.077 13.9981 124.178 14.0134H123.901V24.5557H124.101C123.685 25.097 123.229 25.6321 122.733 26.1531V26.1526Z"
            fill="#0B3E75" />
        <path
            d="M122.71 26.1657C121.723 27.203 120.672 28.0866 119.617 28.7963C119.354 28.9739 119.09 29.1402 118.827 29.2954V29.0013H110.982V29.0313C110.822 28.688 110.716 28.3054 110.661 27.8913C110.553 27.0636 110.653 26.1103 110.945 25.0923C111.528 23.0559 112.877 20.759 114.852 18.6844C116.827 16.6098 119.055 15.1503 121.06 14.4676C122.063 14.1263 123.01 13.9792 123.842 14.0464C123.946 14.055 124.048 14.0667 124.148 14.0815H123.901V24.5749H124.072C123.658 25.1137 123.204 25.6463 122.71 26.1652L122.71 26.1657Z"
            fill="#0C3F77" />
        <path
            d="M122.687 26.1789C121.704 27.2116 120.658 28.0907 119.609 28.7973C119.346 28.9738 119.084 29.1397 118.822 29.2943V29.0018H111.014V29.0318C110.854 28.69 110.748 28.3089 110.694 27.8974C110.586 27.0738 110.686 26.125 110.977 25.1111C111.557 23.0838 112.899 20.7976 114.866 18.7327C116.831 16.6678 119.049 15.2149 121.045 14.5353C122.043 14.1954 122.986 14.0489 123.814 14.1161C123.917 14.1242 124.019 14.1359 124.119 14.1512H123.901V24.5963H124.042C123.631 25.1325 123.179 25.6626 122.687 26.1789Z"
            fill="#0C4078" />
        <path
            d="M122.665 26.1922C121.687 27.2198 120.646 28.0954 119.601 28.7984C119.34 28.9739 119.079 29.1393 118.818 29.2929V29.0014H111.046V29.0314C110.887 28.6911 110.782 28.3121 110.728 27.902C110.621 27.082 110.72 26.1378 111.009 25.129C111.587 23.1114 112.923 20.8359 114.88 18.7801C116.837 16.7249 119.044 15.2786 121.031 14.6025C122.024 14.2642 122.962 14.1187 123.787 14.1853C123.89 14.1935 123.991 14.2052 124.09 14.2204H123.901V24.6167H124.014C123.605 25.1509 123.155 25.6784 122.665 26.1922Z"
            fill="#0D4179" />
        <path
            d="M122.642 26.2048C121.669 27.2279 120.632 28.0988 119.593 28.7988C119.333 28.9738 119.072 29.1381 118.813 29.2912V29.0013H111.077V29.0313C110.919 28.6925 110.814 28.3155 110.761 27.907C110.654 27.091 110.753 26.1509 111.04 25.1467C111.616 23.1382 112.945 20.8734 114.893 18.8278C116.841 16.7817 119.038 15.3426 121.015 14.6695C122.004 14.3327 122.937 14.1878 123.758 14.2544C123.861 14.2625 123.961 14.2742 124.06 14.2895H123.9V24.6374H123.984C123.577 25.1691 123.129 25.6941 122.642 26.2053L122.642 26.2048Z"
            fill="#0E427B" />
        <path
            d="M122.62 26.2181C121.651 27.236 120.619 28.1034 119.584 28.7998C119.325 28.9738 119.066 29.1371 118.809 29.2897V29.0008H111.109V29.0308C110.951 28.6935 110.847 28.3181 110.794 27.9121C110.688 27.0997 110.786 26.1641 111.073 25.165C111.645 23.1662 112.969 20.9121 114.907 18.8757C116.846 16.8392 119.032 15.4067 121.001 14.7367C121.984 14.4014 122.914 14.2575 123.731 14.3236C123.935 14.3399 124.132 14.3699 124.321 14.4131H123.901V24.6578H123.956C123.55 25.1869 123.104 25.7093 122.619 26.2186L122.62 26.2181Z"
            fill="#0E437C" />
        <path
            d="M122.597 26.2313C121.633 27.2447 120.606 28.1075 119.576 28.8009C119.319 28.9743 119.061 29.1366 118.804 29.2887V29.0013H111.141V29.0313C110.984 28.6956 110.881 28.3222 110.828 27.9177C110.722 27.1094 110.82 26.1779 111.105 25.1833C111.675 23.1942 112.992 20.9503 114.921 18.9235C116.851 16.8967 119.027 15.4713 120.986 14.8044C121.965 14.4712 122.89 14.3272 123.703 14.3928C123.906 14.4091 124.103 14.4386 124.291 14.4818H123.902V24.6782H123.928C123.524 25.2047 123.08 25.7246 122.597 26.2313Z"
            fill="#0F447D" />
        <path
            d="M122.574 26.2447C121.615 27.253 120.593 28.1122 119.567 28.8021C119.311 28.9745 119.055 29.1363 118.799 29.2874V29.001H111.172V29.031C111.016 28.6967 110.913 28.3249 110.86 27.9225C110.755 27.1177 110.852 26.1913 111.136 25.2013C111.704 23.2214 113.015 20.9881 114.934 18.971C116.855 16.9539 119.021 15.5351 120.97 14.8712C121.945 14.5395 122.866 14.3965 123.675 14.4616C123.877 14.4779 124.072 14.5074 124.26 14.5502H123.901V24.3044H124.192C124.097 24.4362 123.999 24.5674 123.899 24.6982C123.497 25.2222 123.055 25.74 122.575 26.2442L122.574 26.2447Z"
            fill="#0F457F" />
        <path
            d="M122.552 26.258C121.597 27.2617 120.58 28.1168 119.559 28.8031C119.304 28.9746 119.049 29.1358 118.794 29.2864V29.0015H111.203V29.031C111.048 28.6983 110.946 28.3285 110.893 27.9281C110.788 27.1274 110.886 26.2051 111.168 25.2197C111.733 23.2494 113.037 21.0268 114.948 19.0193C116.859 17.0119 119.015 15.5997 120.956 14.9389C121.926 14.6087 122.842 14.4663 123.647 14.5314C123.849 14.5477 124.043 14.5772 124.229 14.6194H123.901V24.3274H124.162C124.067 24.4586 123.97 24.5894 123.87 24.7196C123.47 25.241 123.03 25.7564 122.552 26.258Z"
            fill="#104680" />
        <path
            d="M122.53 26.2711C121.579 27.2702 120.567 28.1208 119.551 28.804C119.297 28.9749 119.043 29.1352 118.789 29.2848V29.0009H111.235V29.0304C111.081 28.6997 110.979 28.3314 110.927 27.9326C110.822 27.1354 110.919 26.2177 111.2 25.2374C111.761 23.2762 113.06 21.0643 114.962 19.0665C116.864 17.0688 119.009 15.6632 120.94 15.0059C121.906 14.6773 122.818 14.5353 123.619 14.6005C123.82 14.6167 124.013 14.6457 124.199 14.688H123.901V24.3491H124.132C124.037 24.4794 123.94 24.6096 123.841 24.7393C123.443 25.2582 123.005 25.771 122.529 26.2706L122.53 26.2711Z"
            fill="#114781" />
        <path
            d="M122.507 26.2844C121.56 27.2784 120.553 28.1255 119.543 28.8051C119.29 28.975 119.037 29.1348 118.785 29.2833V29.001H111.267V29.0305C111.113 28.7013 111.012 28.3345 110.96 27.9382C110.856 27.1452 110.952 26.2315 111.232 25.2558C111.791 23.3043 113.083 21.103 114.976 19.1144C116.869 17.1264 119.004 15.7274 120.926 15.0731C121.887 14.746 122.795 14.6051 123.592 14.6697C123.791 14.686 123.983 14.715 124.168 14.7567H123.901V24.3716H124.101C124.007 24.5013 123.911 24.631 123.812 24.7597C123.416 25.2761 122.98 25.7864 122.507 26.2839L122.507 26.2844Z"
            fill="#114882" />
        <path
            d="M122.485 26.2975C121.543 27.287 120.541 28.1294 119.535 28.806C119.284 28.9754 119.032 29.1341 118.781 29.2822V29.0009H111.299V29.0304C111.146 28.7027 111.045 28.338 110.994 27.9432C110.89 27.1537 110.986 26.2446 111.264 25.2734C111.821 23.3311 113.106 21.1406 114.99 19.1621C116.874 17.1837 118.999 15.7913 120.911 15.1402C121.868 14.8146 122.77 14.6742 123.564 14.7388C123.763 14.7551 123.954 14.7836 124.138 14.8258H123.901V24.3944H124.071C123.978 24.5236 123.882 24.6523 123.783 24.781C123.389 25.2948 122.956 25.803 122.485 26.2975Z"
            fill="#124884" />
        <path
            d="M122.462 26.3108C121.525 27.2952 120.527 28.1341 119.527 28.8072C119.277 28.9755 119.026 29.1338 118.776 29.2808V29.001H111.331V29.0305C111.179 28.7044 111.078 28.3412 111.027 27.9484C110.924 27.163 111.02 26.2584 111.297 25.2919C111.85 23.3592 113.13 21.1788 115.005 19.2101C116.879 17.2408 118.994 15.8556 120.897 15.208C121.849 14.8839 122.748 14.7445 123.538 14.8081C123.735 14.8239 123.926 14.8529 124.108 14.8946H123.902V24.0302H124.314C124.138 24.2882 123.951 24.5456 123.755 24.801C123.363 25.3122 122.932 25.8179 122.463 26.3103L122.462 26.3108Z"
            fill="#124985" />
        <path
            d="M122.439 26.3241C121.507 27.3039 120.514 28.1382 119.518 28.8087C119.269 28.9761 119.02 29.1333 118.771 29.2803V29.0015H111.362V29.031C111.211 28.7065 111.11 28.3453 111.059 27.9546C110.957 27.1727 111.052 26.2727 111.327 25.3107C111.878 23.3873 113.151 21.2181 115.017 19.2585C116.882 17.2989 118.987 15.9207 120.88 15.2757C121.828 14.9531 122.722 14.8143 123.508 14.8778C123.704 14.8936 123.894 14.9221 124.076 14.9638H123.901V24.0552H124.281C124.105 24.3116 123.92 24.568 123.725 24.8224C123.335 25.3316 122.905 25.8342 122.439 26.3241H122.439Z"
            fill="#134A86" />
        <path
            d="M122.417 26.3374C121.489 27.3121 120.501 28.1428 119.51 28.8098C119.262 28.9766 119.014 29.1328 118.767 29.2788V29.0015H111.394V29.0311C111.243 28.708 111.143 28.3489 111.092 27.9597C110.99 27.1818 111.085 26.286 111.359 25.3291C111.908 23.4153 113.175 21.2562 115.031 19.3063C116.887 17.3564 118.981 15.9848 120.866 15.3428C121.808 15.0218 122.699 14.884 123.481 14.9471C123.676 14.9628 123.865 14.9913 124.046 15.0325H123.901V24.0791H124.25C124.075 24.3345 123.891 24.5894 123.697 24.8422C123.308 25.3489 122.881 25.849 122.417 26.3369V26.3374Z"
            fill="#134B87" />
        <path
            d="M122.394 26.3506C121.47 27.3207 120.488 28.1469 119.501 28.8108C119.254 28.9766 119.008 29.1323 118.762 29.2778V29.0016H111.425V29.0311C111.275 28.7096 111.176 28.3519 111.125 27.9648C111.024 27.1905 111.118 26.2992 111.391 25.3469C111.936 23.4422 113.197 21.2944 115.044 19.3541C116.891 17.4139 118.975 16.049 120.85 15.4105C121.788 15.0915 122.674 14.9537 123.452 15.0168C123.646 15.0325 123.835 15.061 124.015 15.1017H123.901V24.1041H124.218C124.044 24.3579 123.86 24.6118 123.667 24.8636C123.281 25.3678 122.856 25.8658 122.394 26.3506Z"
            fill="#144C88" />
        <path
            d="M122.371 26.3639C121.452 27.3294 120.474 28.1515 119.493 28.8119C119.248 28.9767 119.002 29.1318 118.757 29.2763V29.0016H111.457V29.0311C111.308 28.7111 111.209 28.3555 111.159 27.9704C111.058 27.2002 111.151 26.313 111.423 25.3658C111.965 23.4708 113.22 21.3331 115.058 19.4025C116.896 17.4719 118.97 16.1136 120.836 15.4782C121.769 15.1608 122.651 15.0234 123.425 15.0865C123.618 15.1023 123.805 15.1303 123.985 15.1715H123.901V24.1291H124.186C124.014 24.3819 123.831 24.6342 123.639 24.885C123.254 25.3866 122.831 25.8821 122.371 26.3649V26.3639Z"
            fill="#144D8A" />
        <path
            d="M122.349 26.3769C121.434 27.3373 120.462 28.1554 119.485 28.8126C119.241 28.9769 118.996 29.1311 118.753 29.2751V29.0014H111.489V29.0304C111.34 28.7124 111.242 28.3578 111.192 27.9748C111.091 27.2081 111.184 26.326 111.455 25.3828C111.995 23.497 113.243 21.37 115.072 19.4491C116.901 17.5281 118.964 16.1765 120.821 15.5441C121.749 15.2282 122.626 15.0919 123.396 15.1544C123.589 15.1702 123.775 15.1982 123.953 15.2389H123.901V24.1522H124.154C123.982 24.404 123.801 24.6548 123.61 24.9041C123.227 25.4032 122.806 25.8961 122.349 26.3764V26.3769Z"
            fill="#154E8B" />
        <path
            d="M122.326 26.3902C121.416 27.3461 120.448 28.1601 119.477 28.8138C119.234 28.9771 118.991 29.1307 118.749 29.2737V29.0015H111.521V29.0305C111.373 28.7141 111.275 28.3615 111.226 27.9805C111.126 27.2179 111.218 26.3399 111.487 25.4018C112.024 23.5256 113.267 21.4093 115.087 19.4975C116.907 17.5863 118.959 16.2412 120.807 15.6124C121.731 15.298 122.603 15.1622 123.37 15.2243C123.562 15.2395 123.746 15.2675 123.924 15.3082H123.901V24.1768H124.123C123.952 24.4271 123.771 24.6769 123.581 24.9251C123.2 25.4216 122.781 25.9125 122.326 26.3902Z"
            fill="#154E8C" />
        <path
            d="M122.304 26.4033C121.398 27.3541 120.435 28.164 119.469 28.8146C119.227 28.9774 118.985 29.13 118.744 29.2725V29.0018H111.553V29.0308C111.406 28.7159 111.308 28.3654 111.259 27.9859C111.159 27.2269 111.251 26.3534 111.519 25.4199C112.054 23.5529 113.29 21.4473 115.1 19.5457C116.911 17.6436 118.954 16.3056 120.792 15.6799C121.711 15.367 122.579 15.2322 123.342 15.2938C123.533 15.309 123.717 15.337 123.894 15.3772C123.982 15.3976 124.069 15.4205 124.153 15.4469H123.902V24.201H124.093C123.922 24.4503 123.743 24.6985 123.553 24.9458C123.174 25.4398 122.757 25.9281 122.305 26.4033H122.304Z"
            fill="#164F8D" />
        <path
            d="M122.282 26.4168C121.381 27.363 120.422 28.1688 119.461 28.8159C119.22 28.9777 118.979 29.1298 118.739 29.2712V29.0016H111.584V29.0306C111.438 28.7172 111.341 28.3682 111.292 27.9907C111.193 27.2358 111.284 26.3664 111.551 25.438C112.083 23.5806 113.312 21.4857 115.114 19.5933C116.916 17.7008 118.948 16.3695 120.777 15.7473C121.691 15.436 122.555 15.3017 123.314 15.3632C123.504 15.3785 123.687 15.4059 123.862 15.4461C123.95 15.466 124.036 15.4894 124.12 15.5158H123.901V24.2257H124.06C123.89 24.4734 123.711 24.7207 123.523 24.9664C123.146 25.4578 122.731 25.9436 122.281 26.4168H122.282Z"
            fill="#17508E" />
        <path
            d="M122.259 26.4298C121.362 27.3709 120.409 28.1727 119.452 28.8167C119.213 28.9775 118.973 29.1286 118.735 29.27V29.0019H111.616V29.0309C111.471 28.7191 111.374 28.3721 111.325 27.9967C111.227 27.2458 111.318 26.3805 111.583 25.4566C112.112 23.6084 113.336 21.5242 115.128 19.6414C116.92 17.7586 118.942 16.4344 120.762 15.8148C121.672 15.505 122.531 15.3717 123.286 15.4327C123.664 15.4632 124.015 15.5426 124.334 15.6728H123.901V24.2504H124.028C123.86 24.4972 123.682 24.7429 123.494 24.9876C123.119 25.4765 122.707 25.9597 122.259 26.4303V26.4298Z"
            fill="#17518F" />
        <path
            d="M122.236 26.443C121.344 27.3795 120.396 28.1772 119.444 28.8177C119.206 28.9779 118.968 29.128 118.73 29.2684V29.0013H111.648V29.0303C111.503 28.72 111.407 28.3746 111.358 28.0012C111.26 27.2539 111.351 26.3936 111.615 25.4738C112.141 23.6353 113.358 21.5612 115.141 19.6881C116.925 17.815 118.936 16.4974 120.747 15.8808C121.652 15.5726 122.507 15.4398 123.258 15.5008C123.634 15.5313 123.984 15.6102 124.301 15.7394H123.902V24.2732H123.997C123.829 24.5185 123.652 24.7631 123.466 25.0063C123.093 25.4927 122.682 25.9739 122.236 26.4419V26.443Z"
            fill="#185290" />
        <path
            d="M122.213 26.4559C121.326 27.3878 120.382 28.1814 119.435 28.8184C119.199 28.9776 118.961 29.1272 118.725 29.2665V29.001H111.679V29.03C111.535 28.7212 111.439 28.3778 111.391 28.0059C111.293 27.2627 111.384 26.4065 111.646 25.4918C112.169 23.6624 113.381 21.5996 115.155 19.7361C116.929 17.8727 118.93 16.5617 120.731 15.9487C121.632 15.6419 122.483 15.5102 123.23 15.5702C123.604 15.6002 123.952 15.6791 124.267 15.8078H123.901V24.2984H123.965C123.798 24.5425 123.622 24.7857 123.437 25.0279C123.065 25.5122 122.657 25.9904 122.214 26.4564L122.213 26.4559Z"
            fill="#185291" />
        <path
            d="M122.191 26.469C121.308 27.3959 120.37 28.1854 119.427 28.8193C119.191 28.978 118.955 29.1265 118.72 29.2654V29.0009H111.711V29.0299C111.567 28.7226 111.472 28.3813 111.424 28.0114C111.327 27.2717 111.417 26.4201 111.678 25.51C112.199 23.6903 113.404 21.6376 115.169 19.7838C116.934 17.93 118.925 16.6257 120.716 16.0157C121.612 15.7105 122.459 15.5792 123.202 15.6393C123.574 15.6693 123.92 15.7471 124.234 15.8753H123.901V24.3221H123.934C123.768 24.5648 123.592 24.807 123.408 25.0481C123.038 25.5299 122.632 26.0055 122.191 26.469Z"
            fill="#195393" />
        <path
            d="M122.169 26.4823C121.291 27.4047 120.357 28.1901 119.419 28.8209C119.185 28.9787 118.95 29.1267 118.716 29.2646V29.0015H111.742V29.03C111.6 28.7248 111.505 28.3845 111.457 28.0167C111.361 27.281 111.45 26.4335 111.709 25.5285C112.228 23.7179 113.426 21.6764 115.182 19.8318C116.938 17.9877 118.919 16.6899 120.702 16.083C121.593 15.7798 122.435 15.6486 123.174 15.7086C123.544 15.7386 123.889 15.8159 124.201 15.9436H123.901V24.3467H123.902C123.737 24.5884 123.562 24.829 123.378 25.0686C123.011 25.5478 122.607 26.0209 122.168 26.4823H122.169Z"
            fill="#195494" />
        <path
            d="M122.146 26.4955C121.272 27.4127 120.343 28.1941 119.411 28.8218C119.178 28.9785 118.944 29.1261 118.712 29.2634V29.0014H111.774V29.0299C111.632 28.7262 111.538 28.3879 111.491 28.0216C111.395 27.2896 111.484 26.4466 111.742 25.5462C112.258 23.7453 113.45 21.714 115.197 19.8795C116.943 18.045 118.913 16.7539 120.687 16.1506C121.573 15.8489 122.411 15.7187 123.147 15.7782C123.515 15.8082 123.857 15.885 124.168 16.0122H123.901V23.6497H124.335C123.754 24.6122 123.019 25.5782 122.146 26.496V26.4955Z"
            fill="#195595" />
        <path
            d="M122.123 26.5087C121.254 27.4214 120.33 28.1987 119.403 28.8229C119.171 28.9791 118.939 29.1256 118.707 29.2619V29.0015H111.806V29.03C111.665 28.7278 111.572 28.391 111.524 28.0273C111.429 27.2993 111.517 26.4604 111.774 25.565C112.287 23.7733 113.473 21.7527 115.211 19.9279C116.948 18.1026 118.908 16.8186 120.672 16.2183C121.555 15.9181 122.388 15.7884 123.119 15.8479C123.485 15.8774 123.826 15.9542 124.135 16.0804H123.901V23.6782H124.301C123.723 24.6356 122.992 25.5971 122.123 26.5092V26.5087Z"
            fill="#1A5596" />
        <path
            d="M122.101 26.5218C121.237 27.4294 120.317 28.2026 119.394 28.8238C119.164 28.9789 118.933 29.1249 118.703 29.2608V29.0013H111.838V29.0298C111.697 28.7292 111.604 28.3944 111.557 28.0322C111.462 27.3078 111.55 26.474 111.805 25.5827C112.316 23.8006 113.496 21.7907 115.224 19.975C116.953 18.1594 118.902 16.8825 120.657 16.2848C121.534 15.9861 122.363 15.8574 123.091 15.9164C123.455 15.946 123.794 16.0223 124.101 16.1479H123.901V23.7055H124.267C123.692 24.6578 122.965 25.6142 122.101 26.5218Z"
            fill="#1A5697" />
        <path
            d="M122.078 26.5352C121.218 27.4382 120.304 28.2074 119.386 28.8249C119.156 28.9796 118.926 29.1241 118.697 29.2594V29.0015H111.869V29.03C111.729 28.7308 111.637 28.3981 111.59 28.0379C111.495 27.3176 111.583 26.4879 111.837 25.6017C112.345 23.8288 113.518 21.8295 115.238 20.0235C116.957 18.2176 118.896 16.9473 120.642 16.3531C121.515 16.056 122.339 15.9278 123.063 15.9863C123.426 16.0158 123.762 16.0916 124.068 16.2162H123.901V23.7336H124.233C123.661 24.6809 122.938 25.6322 122.078 26.5352H122.078Z"
            fill="#1B5798" />
        <path
            d="M122.055 26.5485C121.2 27.4464 120.291 28.2115 119.378 28.826C119.149 28.9797 118.921 29.1236 118.693 29.2585V29.0015H111.901V29.03C111.762 28.7324 111.67 28.4013 111.623 28.0431C111.529 27.3263 111.616 26.5012 111.869 25.6196C112.374 23.8563 113.541 21.8677 115.251 20.0714C116.962 18.2751 118.89 17.0114 120.627 16.4203C121.495 16.1247 122.315 15.9976 123.035 16.0556C123.395 16.0846 123.731 16.1604 124.035 16.2845H123.901V23.7622H124.199C123.63 24.7044 122.911 25.6506 122.055 26.549V26.5485Z"
            fill="#1B5799" />
        <path
            d="M122.033 26.5616C121.182 27.4549 120.277 28.216 119.369 28.8269C119.142 28.9796 118.915 29.123 118.688 29.2568V29.0014H111.932V29.0299C111.794 28.7338 111.703 28.4047 111.656 28.0481C111.563 27.3354 111.649 26.5143 111.901 25.6378C112.403 23.8837 113.564 21.9058 115.265 20.1191C116.967 18.3325 118.885 17.0754 120.612 16.4873C121.475 16.1933 122.291 16.0666 123.008 16.1246C123.366 16.1536 123.7 16.2289 124.002 16.3525H123.901V23.7901H124.165C123.599 24.7271 122.883 25.6683 122.033 26.5616Z"
            fill="#1C589A" />
        <path
            d="M122.011 26.575C121.165 27.4637 120.265 28.2202 119.361 28.8281C119.135 28.9802 118.909 29.1227 118.684 29.256V29.0016H111.964V29.0301C111.827 28.7356 111.736 28.4079 111.69 28.0539C111.597 27.3447 111.683 26.5282 111.933 25.6563C112.432 23.9118 113.588 21.9441 115.279 20.1671C116.971 18.3902 118.879 17.1397 120.597 16.5552C121.456 16.2627 122.267 16.137 122.98 16.1945C123.336 16.2235 123.668 16.2983 123.969 16.4209H123.901V23.8187H124.131C123.568 24.7507 122.857 25.6868 122.011 26.5755V26.575Z"
            fill="#1C599B" />
        <path
            d="M121.988 26.588C121.147 27.4716 120.251 28.2245 119.353 28.8289C119.128 28.98 118.904 29.1219 118.679 29.2542V29.0013H111.996V29.0298C111.859 28.7373 111.769 28.4112 111.723 28.0587C111.631 27.3536 111.716 26.5417 111.965 25.6738C112.462 23.939 113.611 21.982 115.294 20.2142C116.977 18.4469 118.875 17.203 120.583 16.6216C121.437 16.3306 122.244 16.2054 122.953 16.2629C123.308 16.2914 123.637 16.3662 123.937 16.4883H123.902V23.8459H124.097C123.538 24.7728 122.83 25.7043 121.989 26.588H121.988Z"
            fill="#1D5A9C" />
        <path
            d="M121.965 26.6014C121.128 27.4804 120.238 28.2288 119.345 28.8301C119.121 28.9802 118.898 29.1216 118.675 29.2533V29.0015H112.028V29.0295C111.892 28.7385 111.802 28.4145 111.756 28.0634C111.665 27.3619 111.749 26.5546 111.997 25.6918C112.491 23.9662 113.633 22.0198 115.307 20.2622C116.981 18.504 118.869 17.2673 120.568 16.6889C121.417 16.3994 122.22 16.2748 122.925 16.3323C123.277 16.3608 123.605 16.4345 123.903 16.5561H123.902V23.8741H124.063C123.507 24.7959 122.803 25.7223 121.966 26.6009L121.965 26.6014Z"
            fill="#1D5A9D" />
        <path
            d="M121.943 26.6144C121.11 27.4884 120.225 28.2332 119.337 28.8309C119.114 28.9805 118.892 29.1209 118.67 29.2517V29.0014H112.059V29.0294C111.924 28.7399 111.834 28.4174 111.789 28.0689C111.698 27.3714 111.782 26.5681 112.028 25.7099C112.52 23.994 113.656 22.0583 115.321 20.3098C116.985 18.5614 118.862 17.3318 120.552 16.7564C121.397 16.469 122.196 16.3448 122.897 16.4013C123.247 16.4298 123.574 16.5031 123.869 16.6241C124.017 16.6847 124.158 16.7569 124.289 16.8414H123.901V23.9024H124.028C123.475 24.8192 122.775 25.7405 121.943 26.6144Z"
            fill="#1E5B9E" />
        <path
            d="M121.92 26.6277C121.093 27.4971 120.212 28.2373 119.328 28.832C119.108 28.9805 118.886 29.1204 118.665 29.2502V29.0009H112.091V29.0289C111.957 28.7409 111.868 28.4204 111.823 28.0735C111.732 27.3796 111.816 26.5809 112.061 25.7278C112.55 24.021 113.679 22.096 115.335 20.3572C116.99 18.6184 118.857 17.3954 120.538 16.8231C121.378 16.5372 122.172 16.4135 122.87 16.47C123.218 16.498 123.543 16.5713 123.837 16.6918C123.984 16.7518 124.124 16.8236 124.255 16.9075H123.902V23.9294H123.996C123.445 24.8416 122.749 25.7573 121.921 26.6267L121.92 26.6277Z"
            fill="#1E5C9E" />
        <path
            d="M121.897 26.6408C121.074 27.5051 120.199 28.2417 119.32 28.8329C119.1 28.9809 118.88 29.1193 118.661 29.249V29.0013H112.123V29.0293C111.989 28.7428 111.9 28.4239 111.855 28.079C111.765 27.3891 111.849 26.5945 112.092 25.746C112.578 24.0489 113.702 22.134 115.348 20.4054C116.994 18.6762 118.851 17.4599 120.522 16.8906C121.358 16.6062 122.147 16.4836 122.84 16.5396C123.187 16.5676 123.51 16.6403 123.802 16.7599C123.949 16.8194 124.087 16.8911 124.218 16.9745H123.901V23.9578H123.96C123.413 24.8648 122.72 25.7755 121.897 26.6403V26.6408Z"
            fill="#1E5C9F" />
        <path
            d="M121.875 26.6542C121.056 27.5139 120.185 28.2465 119.311 28.8346C119.093 28.9816 118.874 29.1194 118.656 29.2482V29.0014H112.154V29.0294C112.021 28.7445 111.933 28.4276 111.888 28.0847C111.799 27.3989 111.882 26.6089 112.124 25.7649C112.607 24.077 113.725 22.1733 115.362 20.4539C116.999 18.7344 118.845 17.5246 120.507 16.9589C121.339 16.6761 122.124 16.554 122.813 16.6099C123.158 16.6379 123.479 16.7102 123.77 16.8292C123.915 16.8887 124.053 16.9599 124.183 17.0429H123.901V23.9874H123.927C123.382 24.8894 122.693 25.7949 121.875 26.6547V26.6542Z"
            fill="#1F5DA0" />
        <path
            d="M121.852 26.6675C121.038 27.5226 120.173 28.2506 119.303 28.8357C119.086 28.9817 118.868 29.119 118.652 29.2472V29.002H112.186V29.03C112.054 28.7466 111.966 28.4317 111.922 28.0904C111.833 27.4082 111.915 26.6227 112.156 25.7833C112.636 24.105 113.748 22.2116 115.376 20.5018C117.004 18.7919 118.84 17.5888 120.493 17.0262C121.319 16.7448 122.1 16.6238 122.785 16.6792C123.128 16.7072 123.447 16.7789 123.737 16.8969C123.881 16.9559 124.019 17.0267 124.148 17.1091H123.902V23.344H124.272C124.155 23.5668 124.028 23.7906 123.893 24.015C123.352 24.9119 122.667 25.8128 121.853 26.6675H121.852Z"
            fill="#1F5DA1" />
        <path
            d="M121.83 26.6806C121.021 27.5307 120.159 28.2551 119.295 28.8366C119.079 28.9821 118.863 29.1184 118.647 29.2456V29.0014H112.218V29.0294C112.086 28.7475 111.999 28.4342 111.955 28.0953C111.866 27.4172 111.948 26.6358 112.187 25.8015C112.665 24.1324 113.77 22.2501 115.389 20.5495C117.008 18.8493 118.834 17.6528 120.477 17.0932C121.299 16.8134 122.075 16.6928 122.757 16.7483C123.098 16.7757 123.416 16.8475 123.704 16.965C123.847 17.024 123.984 17.0942 124.112 17.1761H123.901V23.3759H124.235C124.119 23.5977 123.993 23.8205 123.858 24.0434C123.32 24.9352 122.639 25.831 121.829 26.6811L121.83 26.6806Z"
            fill="#205EA2" />
        <path
            d="M121.807 26.6934C121.003 27.5389 120.146 28.2588 119.287 28.8372C119.072 28.9817 118.857 29.1175 118.642 29.2442V29.0015H112.249V29.0295C112.118 28.7497 112.032 28.4378 111.988 28.1006C111.9 27.426 111.981 26.6492 112.219 25.8194C112.694 24.16 113.793 22.2879 115.403 20.5974C117.012 18.9069 118.828 17.717 120.462 17.161C121.279 16.8827 122.051 16.7631 122.729 16.8176C123.068 16.8451 123.384 16.9163 123.67 17.0333C123.813 17.0918 123.949 17.1615 124.076 17.2434H123.901V23.4081H124.199C124.083 23.6284 123.958 23.8502 123.824 24.0715C123.289 24.9582 122.612 25.8489 121.807 26.6944L121.807 26.6934Z"
            fill="#205FA3" />
        <path
            d="M121.784 26.7066C120.984 27.547 120.133 28.2633 119.278 28.8381C119.065 28.9821 118.851 29.1169 118.638 29.2426V29.0009H112.282V29.0289C112.151 28.7506 112.065 28.4403 112.022 28.1051C111.934 27.4346 112.015 26.6618 112.251 25.8367C112.724 24.1864 113.817 22.3255 115.417 20.6441C117.018 18.9628 118.823 17.7805 120.448 17.227C121.26 16.9503 122.028 16.8312 122.702 16.8857C123.039 16.9131 123.353 16.9839 123.638 17.0998C123.78 17.1578 123.915 17.2275 124.042 17.3084H123.902V23.438H124.164C124.048 23.6573 123.924 23.8776 123.791 24.0978C123.259 24.9795 122.586 25.8652 121.785 26.7056L121.784 26.7066Z"
            fill="#205FA4" />
        <path
            d="M121.762 26.7199C120.966 27.5557 120.12 28.2674 119.27 28.8392C119.058 28.9821 118.846 29.1164 118.633 29.2416V29.0015H112.313V29.0289C112.184 28.7522 112.098 28.4439 112.055 28.1107C111.968 27.4438 112.048 26.6761 112.283 25.8555C112.754 24.2149 113.84 22.3642 115.431 20.6925C117.022 19.0208 118.818 17.8452 120.433 17.2947C121.241 17.0195 122.004 16.901 122.675 16.9554C123.01 16.9824 123.322 17.0531 123.605 17.1686C123.746 17.2266 123.88 17.2952 124.007 17.3761H123.902V23.4711H124.128C124.013 23.6889 123.889 23.9081 123.757 24.1274C123.228 25.0039 122.559 25.8845 121.763 26.7204L121.762 26.7199Z"
            fill="#2160A4" />
        <path
            d="M121.74 26.733C120.949 27.5638 120.107 28.2719 119.262 28.8402C119.051 28.9821 118.839 29.1159 118.629 29.24V29.0009H112.344V29.0284C112.216 28.7532 112.131 28.4469 112.088 28.1152C112.001 27.4524 112.081 26.6888 112.315 25.8728C112.782 24.2413 113.863 22.4013 115.445 20.7393C118.609 17.4153 122.584 16.0626 124.322 17.7174H123.901V23.5021H124.091C123.977 23.7188 123.854 23.9366 123.723 24.1543C123.197 25.0258 122.531 25.9013 121.74 26.7325V26.733Z"
            fill="#2160A5" />
        <path
            d="M121.717 26.7463C120.93 27.5724 120.093 28.276 119.253 28.8412C119.043 28.9826 118.833 29.1149 118.624 29.239V29.0014H112.376V29.0289C112.248 28.7552 112.163 28.4505 112.121 28.1208C112.035 27.4615 112.114 26.7025 112.347 25.8916C112.811 24.2698 113.885 22.4404 115.458 20.7881C118.604 17.4834 122.556 16.1384 124.284 17.7836H123.901V23.5347H124.055C123.941 23.7499 123.819 23.9666 123.688 24.1833C123.165 25.0502 122.504 25.9206 121.717 26.7468L121.717 26.7463Z"
            fill="#2161A6" />
        <path
            d="M121.694 26.7594C120.912 27.581 120.08 28.2805 119.245 28.8421C119.037 28.9825 118.828 29.1143 118.619 29.2374V29.0009H112.407V29.0283C112.28 28.7562 112.196 28.4535 112.154 28.1259C112.068 27.4706 112.147 26.7157 112.378 25.9093C112.84 24.2967 113.908 22.478 115.472 20.8353C118.6 17.55 122.528 16.2126 124.246 17.8481H123.901V22.9267H124.329C124.14 23.3494 123.914 23.7793 123.654 24.2102C123.134 25.072 122.476 25.9373 121.694 26.7584V26.7594Z"
            fill="#2261A7" />
        <path
            d="M121.672 26.7726C120.895 27.5891 120.068 28.2845 119.237 28.8431C119.03 28.9825 118.822 29.1137 118.615 29.2358V29.0008H112.44V29.0283C112.314 28.7576 112.23 28.4565 112.188 28.1309C112.103 27.4792 112.181 26.7288 112.411 25.9276C112.87 24.3246 113.931 22.5166 115.486 20.8831C118.596 17.6166 122.501 16.2873 124.209 17.9137H123.901V22.9628H124.291C124.103 23.3835 123.879 23.8108 123.62 24.2386C123.103 25.0953 122.449 25.9556 121.672 26.7721L121.672 26.7726Z"
            fill="#2262A7" />
        <path
            d="M121.649 26.7859C120.877 27.5978 120.054 28.2891 119.229 28.8442C119.022 28.983 118.816 29.1133 118.61 29.2349V29.0008H112.471V29.0283C112.346 28.7592 112.263 28.4601 112.221 28.136C112.136 27.4884 112.214 26.7426 112.443 25.9454C112.899 24.3516 113.954 22.5543 115.5 20.931C118.592 17.6838 122.474 16.3621 124.173 17.9788H123.902V22.9984H124.254C124.067 23.4166 123.844 23.8414 123.587 24.2672C123.073 25.1188 122.423 25.9739 121.65 26.7859H121.649Z"
            fill="#2262A8" />
        <path
            d="M121.627 26.7993C120.859 27.6061 120.041 28.2934 119.221 28.8454C119.016 28.9832 118.81 29.113 118.606 29.2335V29.001H112.503V29.0285C112.378 28.7614 112.295 28.4638 112.253 28.1418C112.169 27.4978 112.247 26.7566 112.474 25.9645C112.928 24.3803 113.977 22.5932 115.513 20.9795C118.586 17.7516 122.446 16.4376 124.134 18.0447H123.901V23.0342H124.215C124.029 23.4498 123.807 23.8721 123.552 24.2953C123.041 25.1419 122.395 25.9919 121.626 26.7988L121.627 26.7993Z"
            fill="#2363A9" />
        <path
            d="M121.604 26.8124C120.841 27.6147 120.028 28.2979 119.213 28.8468C119.009 28.9842 118.805 29.1129 118.601 29.2329V29.0015H112.535V29.0289C112.411 28.7634 112.329 28.4673 112.287 28.1473C112.203 27.5073 112.28 26.7702 112.506 25.9827C112.958 24.4077 114 22.6317 115.528 21.0272C118.583 17.8187 122.419 16.5123 124.097 18.1102H123.901V23.0703H124.177C123.992 23.4833 123.772 23.903 123.518 24.3238C123.01 25.1652 122.367 26.0102 121.604 26.8124H121.604Z"
            fill="#2363A9" />
        <path
            d="M121.581 26.8256C120.822 27.6228 120.015 28.3019 119.204 28.8478C119.002 28.9841 118.799 29.1123 118.596 29.2313V29.0014H112.566V29.0289C112.443 28.7648 112.361 28.4708 112.32 28.1528C112.237 27.5164 112.314 26.7839 112.538 26.0015C112.986 24.4361 114.023 22.6703 115.541 21.0755C118.577 17.8858 122.391 16.5875 124.059 18.1758H123.901V23.1063H124.139C123.955 23.5168 123.736 23.934 123.484 24.3522C122.979 25.1885 122.34 26.0289 121.581 26.8261V26.8256Z"
            fill="#2364AA" />
        <path
            d="M121.559 26.8387C120.805 27.6313 120.002 28.3064 119.196 28.8487C118.995 28.984 118.793 29.1117 118.592 29.2303V29.0013H112.598V29.0283C112.475 28.7658 112.394 28.4738 112.353 28.1574C112.27 27.525 112.347 26.7965 112.569 26.0187C113.015 24.4625 114.045 22.7079 115.555 21.1227C118.573 17.9524 122.364 16.6617 124.022 18.2403H123.901V23.1413H124.102C123.919 23.5493 123.701 23.9645 123.45 24.3801C122.948 25.2113 122.313 26.0467 121.558 26.8393L121.559 26.8387Z"
            fill="#2464AB" />
        <path
            d="M121.536 26.852C120.786 27.64 119.988 28.311 119.187 28.8497C118.987 28.9846 118.787 29.1107 118.587 29.2287V29.0013H112.629V29.0283C112.507 28.7673 112.427 28.4768 112.386 28.1625C112.304 27.5337 112.38 26.8103 112.601 26.0365C113.044 24.49 114.068 22.7456 115.568 21.1701C118.568 18.019 122.336 16.7365 123.984 18.3049H123.901V23.176H124.064C123.882 23.5814 123.666 23.994 123.416 24.4071C122.917 25.2332 122.286 26.0635 121.537 26.851L121.536 26.852Z"
            fill="#2465AB" />
        <path
            d="M121.514 26.8652C120.769 27.6482 119.976 28.3151 119.179 28.8508C118.981 28.9846 118.781 29.1102 118.583 29.2277V29.0014H112.662V29.0283C112.541 28.7689 112.46 28.4804 112.42 28.1681C112.338 27.5434 112.414 26.824 112.634 26.0553C113.074 24.518 114.092 22.7843 115.583 21.2184C118.564 18.0867 122.309 16.8118 123.947 18.3711H123.901V23.2126H124.026C123.845 23.616 123.63 24.0255 123.383 24.4361C122.887 25.2572 122.26 26.0823 121.514 26.8652Z"
            fill="#2465AC" />
        <path
            d="M121.492 26.8785C120.751 27.6568 119.962 28.3197 119.171 28.8518C118.973 28.9851 118.775 29.1097 118.578 29.2262V29.0014H112.693V29.0284C112.573 28.7704 112.493 28.4835 112.453 28.1732C112.372 27.552 112.447 26.8373 112.666 26.0732C113.103 24.5455 114.115 22.8224 115.596 21.2657C118.56 18.1529 122.282 16.8861 123.91 18.4357H123.901V23.2477H123.988C123.808 23.6486 123.595 24.0556 123.348 24.4636C122.855 25.2801 122.232 26.0996 121.492 26.878V26.8785Z"
            fill="#2465AC" />
        <path
            d="M121.469 26.8917C120.732 27.665 119.949 28.3238 119.163 28.8528C118.966 28.9851 118.769 29.1092 118.573 29.2252V29.0019H112.724V29.0289C112.605 28.7725 112.525 28.4876 112.485 28.1788C112.405 27.5617 112.479 26.851 112.697 26.092C113.132 24.5735 114.137 22.8611 115.61 21.3146C118.555 18.221 122.254 16.9619 123.872 18.5018C123.973 18.598 124.064 18.7028 124.144 18.8157H123.901V23.2838H123.95C123.772 23.6822 123.559 24.0866 123.314 24.4926C122.824 25.304 122.205 26.1185 121.469 26.8922V26.8917Z"
            fill="#2566AD" />
        <path
            d="M121.446 26.905C120.715 27.6737 119.936 28.3284 119.154 28.8539C118.959 28.9852 118.764 29.1088 118.568 29.2238V29.0014H112.756V29.0284C112.637 28.774 112.559 28.4907 112.519 28.1839C112.439 27.5709 112.513 26.8643 112.729 26.1099C113.162 24.601 114.16 22.8993 115.624 21.3619C118.55 18.2877 122.227 17.0363 123.835 18.567C124.036 18.7583 124.195 18.9842 124.314 19.2385H123.902V23.3195H123.912C123.735 23.7153 123.524 24.1177 123.281 24.5206C122.794 25.3269 122.178 26.1368 121.447 26.905H121.446Z"
            fill="#2566AD" />
        <path
            d="M121.424 26.9182C120.697 27.6818 119.923 28.3325 119.147 28.8549C118.953 28.9857 118.759 29.1083 118.565 29.2227V29.0019H112.789V29.0289C112.671 28.7761 112.592 28.4942 112.553 28.1895C112.473 27.5801 112.547 26.8785 112.762 26.1287C113.191 24.629 114.184 22.938 115.639 21.4103C118.547 18.3549 122.2 17.1115 123.798 18.6326C123.998 18.8229 124.156 19.0472 124.274 19.3001H123.902V22.2003H124.301C123.872 23.7 122.879 25.391 121.424 26.9187L121.424 26.9182Z"
            fill="#2567AE" />
        <path
            d="M121.401 26.9315C120.679 27.6905 119.909 28.3371 119.138 28.856C118.945 28.9857 118.752 29.1078 118.56 29.2212V29.0015H112.82V29.0284C112.702 28.7771 112.624 28.4973 112.585 28.1946C112.506 27.5893 112.58 26.8918 112.793 26.1465C113.22 24.6565 114.206 22.9756 115.651 21.4581C118.541 18.4221 122.172 17.1864 123.759 18.6978C123.958 18.8865 124.115 19.1099 124.233 19.3612H123.901V22.2431H124.259C123.833 23.7331 122.846 25.414 121.401 26.9315Z"
            fill="#2567AE" />
        <path
            d="M121.378 26.9441C120.661 27.6986 119.897 28.3406 119.13 28.8564C118.938 28.9857 118.746 29.1062 118.555 29.2192V29.0009H112.852V29.0274C112.735 28.7776 112.658 28.4993 112.619 28.1987C112.54 27.5968 112.613 26.904 112.825 26.1638C113.25 24.6834 114.23 23.0132 115.666 21.5049C118.538 18.4881 122.145 17.2601 123.722 18.7624C123.92 18.9501 124.076 19.1714 124.192 19.4217H123.901V22.2853H124.219C123.794 23.7656 122.814 25.4358 121.378 26.9441Z"
            fill="#2567AF" />
        <path
            d="M121.356 26.9573C120.642 27.7066 119.883 28.345 119.121 28.8573C118.931 28.9855 118.74 29.1056 118.55 29.218V29.0008H112.883V29.0272C112.767 28.779 112.69 28.5028 112.651 28.2036C112.572 27.6059 112.645 26.9171 112.856 26.1814C113.277 24.7102 114.251 23.0508 115.678 21.5521C118.532 18.5547 122.116 17.3342 123.684 18.8268C123.88 19.0135 124.035 19.2333 124.151 19.4816H123.901V22.3274H124.177C123.756 23.7986 122.782 25.458 121.355 26.9567L121.356 26.9573Z"
            fill="#2667AF" />
        <path
            d="M121.333 26.9705C120.624 27.7152 119.87 28.3491 119.113 28.8583C118.924 28.9855 118.735 29.1051 118.545 29.2165V29.0008H112.914V29.0272C112.799 28.7805 112.723 28.5063 112.684 28.2092C112.606 27.615 112.678 26.9308 112.888 26.2003C113.307 24.7387 114.275 23.0899 115.692 21.6004C118.528 18.6218 122.089 17.4095 123.646 18.8924C123.841 19.0776 123.995 19.2964 124.11 19.5431H123.9V22.3706H124.137C123.718 23.8321 122.75 25.4809 121.333 26.9705H121.333Z"
            fill="#2668AF" />
        <path
            d="M121.311 26.9837C120.607 27.7234 119.857 28.3537 119.105 28.8599C118.917 28.9866 118.728 29.1051 118.541 29.216V29.0013H112.947V29.0278C112.832 28.7826 112.756 28.5099 112.718 28.2148C112.64 27.6247 112.712 26.9445 112.92 26.2186C113.336 24.7662 114.298 23.1281 115.707 21.6487C118.524 18.6895 122.062 17.4848 123.61 18.9586C123.997 19.3269 124.222 19.828 124.299 20.4181H123.901V22.4144H124.097C123.681 23.8668 122.719 25.5048 121.311 26.9842V26.9837Z"
            fill="#2668B0" />
        <path
            d="M121.288 26.997C120.588 27.7321 119.843 28.3578 119.096 28.8609C118.909 28.9866 118.722 29.1046 118.536 29.2145V29.0013H112.978V29.0278C112.864 28.7841 112.789 28.5135 112.75 28.2199C112.674 27.6334 112.745 26.9583 112.951 26.2364C113.364 24.7937 114.32 23.1658 115.719 21.6961C118.518 18.7561 122.034 17.5596 123.571 19.0232C123.955 19.389 124.18 19.8865 124.256 20.4731H123.9V22.4566H124.055C123.642 23.8993 122.687 25.5273 121.287 26.997H121.288Z"
            fill="#2668B0" />
        <path
            d="M121.266 27.0104C120.571 27.7404 119.831 28.3626 119.088 28.8621C118.903 28.9868 118.717 29.1043 118.532 29.2137V29.0015H113.01V29.028C112.897 28.7863 112.822 28.5167 112.784 28.2257C112.708 27.6432 112.778 26.9722 112.984 26.2554C113.394 24.8219 114.344 23.2051 115.734 21.7446C118.515 18.824 122.007 17.6351 123.535 19.089C123.917 19.4528 124.14 19.9468 124.215 20.5298H123.901V22.5H124.015C123.605 23.9336 122.656 25.5503 121.265 27.0109L121.266 27.0104Z"
            fill="#2668B0" />
        <path
            d="M121.247 26.993C120.556 27.7184 119.822 28.336 119.085 28.8325C118.9 28.9567 118.716 29.0732 118.532 29.1815V29.0014H113.243V29.3367C113.168 29.2309 113.102 29.1174 113.046 28.9974C112.934 28.7572 112.859 28.4897 112.822 28.2002C112.746 27.6213 112.816 26.9548 113.02 26.2426C113.428 24.8187 114.371 23.2122 115.752 21.7613C118.514 18.8595 121.984 17.6788 123.501 19.123C123.881 19.4842 124.102 19.9752 124.178 20.5541H123.901V22.5117H123.98C123.572 23.9356 122.629 25.5421 121.248 26.993H121.247Z"
            fill="#2668B0" />
        <path
            d="M120.86 27.2716C120.246 27.9162 119.593 28.4656 118.937 28.9067C118.774 29.0171 118.609 29.1203 118.446 29.217V29.0013H113.57V29.0532C113.47 28.8395 113.404 28.602 113.371 28.3445C113.303 27.8302 113.366 27.2376 113.547 26.6047C113.91 25.339 114.748 23.911 115.976 22.6214C118.431 20.0422 121.515 18.9922 122.864 20.2767C124.212 21.5607 123.316 24.6929 120.86 27.2716Z"
            fill="#286AB2" />
        <path
            d="M120.473 27.5507C119.936 28.1149 119.364 28.5956 118.791 28.9812C118.647 29.0779 118.504 29.1684 118.361 29.2529V29.0016H114.094V29.1094C114.007 28.9227 113.949 28.7147 113.92 28.4893C113.861 28.0391 113.916 27.5207 114.074 26.9667C114.392 25.8592 115.125 24.6098 116.199 23.4814C118.348 21.2247 121.046 20.306 122.227 21.4297C123.407 22.5535 122.622 25.2935 120.473 27.5507H120.473Z"
            fill="#296BB3" />
        <path
            d="M120.085 27.8295C119.625 28.3133 119.135 28.7248 118.644 29.056V29.0016H114.618V29.1659C114.543 29.0056 114.494 28.8276 114.468 28.6343C114.418 28.2481 114.465 27.804 114.601 27.3294C114.873 26.3801 115.501 25.3092 116.422 24.3422C118.264 22.408 120.577 21.6205 121.588 22.5835C122.6 23.5465 121.927 25.8953 120.085 27.83V27.8295Z"
            fill="#2A6CB4" />
        <path
            d="M119.698 28.108C119.315 28.511 118.906 28.8543 118.497 29.1301V29.0014H115.142V29.2216C115.079 29.0884 115.038 28.9398 115.017 28.7785C114.975 28.457 115.014 28.0867 115.127 27.6909C115.354 26.8998 115.878 26.0075 116.645 25.2012C118.18 23.5891 120.108 22.9328 120.951 23.7356C121.794 24.5383 121.233 26.4954 119.698 28.1075V28.108Z"
            fill="#2C6EB6" />
        <path
            d="M119.311 28.387C119.004 28.7095 118.677 28.9842 118.349 29.2045V29.001H115.665V29.2772C115.615 29.1704 115.582 29.0514 115.565 28.9232C115.532 28.6657 115.563 28.3697 115.653 28.0532C115.835 27.4204 116.254 26.7066 116.868 26.0616C118.095 24.772 119.637 24.247 120.312 24.889C120.986 25.531 120.538 27.0968 119.31 28.3864L119.311 28.387Z"
            fill="#2D6FB7" />
        <path
            d="M118.923 28.6657C118.693 28.9073 118.448 29.1134 118.202 29.2787V29.001H116.115V29.0676C116.089 28.8748 116.112 28.6525 116.181 28.4149C116.316 27.9403 116.631 27.4046 117.091 26.9213C118.012 25.9542 119.168 25.5605 119.675 26.0417C120.18 26.5235 119.844 27.6976 118.923 28.6647V28.6657Z"
            fill="#2E70B8" />
        <path
            d="M118.536 28.9444C118.383 29.1057 118.219 29.243 118.056 29.3534V29.0014H116.664V29.213C116.647 29.0843 116.663 28.9363 116.708 28.778C116.799 28.4616 117.008 28.1045 117.315 27.7825C117.929 27.1379 118.7 26.8754 119.037 27.1964C119.374 27.5174 119.15 28.3003 118.536 28.9454L118.536 28.9444Z"
            fill="#2E70B8" />
    </g>
    <mask id="mask1_457_3647" style="mask-type:luminance" maskUnits="userSpaceOnUse" x="96" y="14"
        width="22" height="14">
        <path
            d="M109.763 24.695L117.182 16.9716C116.558 17.6156 112.585 21.6584 109.758 21.662C106.964 21.6656 104.608 19.2939 104.449 19.1286L101.053 15.5716C99.5654 13.9676 98.1029 14.0841 97.3469 16.0757C96.2196 19.0451 96.3523 23.1765 98.8202 25.6509C101.949 28.7892 106.27 28.1024 109.749 24.7103L109.755 24.7037C109.758 24.7006 109.761 24.6981 109.764 24.695H109.763Z"
            fill="white" />
    </mask>
    <g mask="url(#mask1_457_3647)">
        <path d="M117.182 13.9668H96.2192V28.7885H117.182V13.9668Z" fill="#999933" />
        <path
            d="M109.553 24.9227C106.269 28.3729 100.809 28.5072 97.3588 25.2223C96.9274 24.8118 96.5479 24.3672 96.2208 23.8966C96.057 23.6616 95.9064 23.4199 95.7686 23.1727H96.1572V14.4074H95.9873C96.1394 14.1642 96.3047 13.9271 96.4833 13.6972V13.9048H110.136V13.7059C110.225 13.8203 110.31 13.9363 110.392 14.0538C110.719 14.5244 110.995 15.0204 111.218 15.5342C111.665 16.5618 111.902 17.6602 111.929 18.7636C111.984 20.9704 111.196 23.1976 109.553 24.9232V24.9227Z"
            fill="#999933" />
        <path
            d="M109.503 24.8749C106.245 28.2976 100.829 28.4304 97.4062 25.172C96.9783 24.7646 96.6019 24.3235 96.2773 23.857C96.115 23.6235 95.9655 23.3839 95.8286 23.1387H96.1572V14.4441H96.0458C96.1964 14.2029 96.3607 13.9679 96.5378 13.7395V13.9048H110.082V13.7482C110.169 13.8616 110.253 13.9766 110.335 14.0931C110.66 14.5596 110.933 15.052 111.154 15.5617C111.598 16.5812 111.833 17.6704 111.86 18.7652C111.914 20.9542 111.133 23.1641 109.503 24.8755V24.8749Z"
            fill="#9B9B31" />
        <path
            d="M109.453 24.8278C106.221 28.2225 100.849 28.3547 97.454 25.1228C97.0297 24.7189 96.6563 24.2814 96.3338 23.8185C96.1725 23.587 96.0245 23.3494 95.8887 23.1063H96.1568V14.4808H96.1044C96.2539 14.2417 96.4167 14.0082 96.5922 13.7819V13.905H110.027V13.7905C110.114 13.9029 110.198 14.0169 110.278 14.1329C110.6 14.5958 110.872 15.0842 111.091 15.5894C111.531 16.6007 111.764 17.6812 111.791 18.7668C111.845 20.9381 111.069 23.1302 109.454 24.8278H109.453Z"
            fill="#9D9E2F" />
        <path
            d="M109.403 24.78C106.197 28.1472 100.869 28.2785 97.5017 25.0725C97.081 24.6716 96.7107 24.2377 96.3907 23.7788C96.2309 23.5494 96.0839 23.3133 95.9496 23.0722H96.1572V15.245H95.7573C95.8799 14.9977 96.0152 14.7546 96.1633 14.5175C96.3113 14.2804 96.4731 14.049 96.6471 13.8241V13.905H109.704V13.5031C109.889 13.7188 110.062 13.9421 110.221 14.1721C110.541 14.631 110.81 15.1153 111.028 15.6169C111.463 16.6201 111.695 17.6914 111.722 18.7684C111.774 20.9223 111.006 23.0961 109.403 24.78H109.403Z"
            fill="#9FA02D" />
        <path
            d="M109.353 24.7322C106.174 28.0719 100.889 28.2017 97.5495 25.0221C97.1318 24.6248 96.7645 24.1945 96.4476 23.7391C96.2889 23.5112 96.1434 23.2777 96.0101 23.0386H96.1576V15.2755H95.8193C95.9409 15.0303 96.0747 14.7892 96.2222 14.5541C96.3693 14.3191 96.5295 14.0897 96.702 13.8664V13.905H109.652V13.5484C109.836 13.7626 110.007 13.9839 110.165 14.2118C110.482 14.6671 110.749 15.1473 110.965 15.6448C111.397 16.6394 111.627 17.7026 111.653 18.7704C111.706 20.9066 110.944 23.0625 109.354 24.7327L109.353 24.7322Z"
            fill="#A1A22B" />
        <path
            d="M109.304 24.6848C106.15 27.9971 100.909 28.1258 97.5973 24.9727C97.1832 24.5785 96.8189 24.1517 96.5045 23.7004C96.3473 23.4745 96.2029 23.2426 96.0706 23.0055H96.1576V15.306H95.8813C96.0019 15.0628 96.1347 14.8237 96.2807 14.5907C96.4267 14.3577 96.5854 14.1298 96.7569 13.9085C96.8428 13.7981 96.9314 13.6892 97.0234 13.5819V13.9049H109.6V13.5931C109.782 13.8057 109.951 14.025 110.108 14.2509C110.423 14.7026 110.687 15.1788 110.901 15.6723C111.33 16.6587 111.558 17.7133 111.584 18.7724C111.636 20.8907 110.88 23.0289 109.304 24.6853V24.6848Z"
            fill="#A3A42A" />
        <path
            d="M109.253 24.6368C106.126 27.9211 100.929 28.0488 97.6445 24.9222C96.8234 24.1403 96.1997 23.2292 95.7744 22.2509H96.157V15.3363H95.9428C96.0624 15.0952 96.1941 14.8581 96.3386 14.6267C96.4831 14.3952 96.6408 14.1698 96.8107 13.9506C96.8956 13.8412 96.9836 13.7328 97.0752 13.6265V13.9043H109.546V13.6372C109.727 13.8478 109.895 14.0656 110.051 14.2894C110.363 14.7371 110.625 15.2097 110.837 15.6986C111.262 16.6768 111.488 17.7223 111.514 18.7728C111.566 20.8733 110.816 22.9942 109.253 24.6363L109.253 24.6368Z"
            fill="#A4A628" />
        <path
            d="M109.203 24.5891C106.102 27.846 100.949 27.9726 97.6922 24.872C96.8782 24.0967 96.2596 23.1932 95.8379 22.2236H96.1569V15.3675H96.0048C96.1233 15.1284 96.254 14.8934 96.3975 14.6639C96.5409 14.4345 96.6971 14.2107 96.8655 13.9934C96.95 13.8846 97.0375 13.7777 97.128 13.6724V13.9054H109.494V13.6836C109.673 13.8927 109.84 14.1084 109.995 14.3302C110.304 14.7743 110.564 15.2423 110.775 15.7277C111.196 16.6978 111.42 17.7346 111.446 18.7759C111.497 20.8592 110.754 22.9617 109.204 24.5901L109.203 24.5891Z"
            fill="#A6A826" />
        <path
            d="M109.153 24.5417C106.079 27.771 100.969 27.8962 97.74 24.822C96.9327 24.0533 96.3197 23.1574 95.9015 22.1959H96.1574V16.1223H95.7524C95.9376 15.6319 96.1721 15.1552 96.4565 14.7004C96.599 14.473 96.7536 14.2512 96.9205 14.0355C97.0039 13.9277 97.0909 13.8213 97.1804 13.717V13.9048H109.442V13.7277C109.619 13.9348 109.785 14.1489 109.938 14.3692C110.244 14.8093 110.502 15.2737 110.711 15.755C111.129 16.717 111.351 17.7446 111.376 18.7773C111.427 20.8427 110.69 22.9275 109.153 24.5422L109.153 24.5417Z"
            fill="#A8AA25" />
        <path
            d="M109.103 24.494C106.055 27.6954 100.989 27.82 97.7872 24.7723C96.987 24.0102 96.3785 23.122 95.9644 22.1686H96.1567V16.1469H95.8164C96.0001 15.6605 96.2325 15.1879 96.5144 14.7372C96.6553 14.5118 96.8089 14.2915 96.9743 14.0779C97.0572 13.971 97.1432 13.8657 97.2322 13.762V13.9049H109.389V13.7726C109.565 13.9782 109.728 14.1903 109.881 14.4085C110.184 14.845 110.44 15.3054 110.647 15.7821C111.061 16.7355 111.282 17.7549 111.307 18.7785C111.357 20.8261 110.626 22.893 109.103 24.494Z"
            fill="#A9AC23" />
        <path
            d="M109.053 24.4465C106.031 27.6204 101.009 27.7441 97.8353 24.7223C97.0417 23.9668 96.4389 23.0862 96.0283 22.141H96.1576V16.1711H95.8818C96.2456 15.2066 96.8047 14.2975 97.5596 13.5044V13.9053H109.337V13.8178C109.512 14.0213 109.674 14.2319 109.825 14.4481C110.126 14.881 110.379 15.3373 110.585 15.8099C110.995 16.7551 111.214 17.7655 111.239 18.7804C111.289 20.8102 110.565 22.8593 109.054 24.4465H109.053Z"
            fill="#ABAE21" />
        <path
            d="M109.003 24.3988C106.008 27.5453 101.029 27.6674 97.883 24.672C97.0965 23.9232 96.4988 23.0502 96.0918 22.1131H96.1574V16.1952H95.9463C96.307 15.2393 96.861 14.3378 97.6098 13.5513V13.9044H109.285V13.8622C109.457 14.0641 109.619 14.2727 109.768 14.4869C110.066 14.9157 110.318 15.3685 110.521 15.837C110.928 16.7741 111.145 17.7758 111.17 18.782C111.219 20.7945 110.501 22.8259 109.003 24.3988Z"
            fill="#ADB020" />
        <path
            d="M108.953 24.3511C105.984 27.4695 101.049 27.5911 97.9302 24.6222C97.1503 23.88 96.5581 23.0146 96.1547 22.0857H96.1573V16.2196H96.0107C96.3684 15.2719 96.9173 14.3791 97.6595 13.5992V13.9044H108.966V13.6119C109.057 13.7086 109.146 13.8067 109.232 13.907C109.403 14.1069 109.563 14.3139 109.711 14.5261C110.007 14.9514 110.256 15.3996 110.458 15.864C110.861 16.7929 111.076 17.7855 111.101 18.7831C111.15 20.7778 110.438 22.7913 108.954 24.3505L108.953 24.3511Z"
            fill="#AEB21E" />
        <path
            d="M108.903 24.3037C105.961 27.3947 101.069 27.5148 97.9783 24.5723C97.2056 23.8367 96.6185 22.979 96.2187 22.0587C96.0187 21.5983 95.8656 21.1222 95.7593 20.6379H96.1576V16.245H96.0757C96.4298 15.3059 96.9741 14.4208 97.7097 13.648V13.9059H108.916V13.6612C109.006 13.7569 109.094 13.8546 109.179 13.9532C109.349 14.1516 109.508 14.3562 109.655 14.5673C109.948 14.9885 110.195 15.4331 110.395 15.8935C110.795 16.8143 111.008 17.7982 111.032 18.7866C111.08 20.7635 110.374 22.7592 108.903 24.3047V24.3037Z"
            fill="#B0B41D" />
        <path
            d="M108.853 24.256C105.937 27.3195 101.089 27.4386 98.0259 24.522C97.2602 23.793 96.6783 22.943 96.282 22.0308C96.0836 21.5745 95.932 21.1029 95.8267 20.6227H96.1578V16.269H96.1405C96.4916 15.3381 97.0308 14.461 97.7603 13.6949V13.905H108.866V13.7076C108.956 13.8022 109.043 13.8989 109.128 13.9971C109.296 14.1934 109.453 14.3964 109.598 14.6055C109.889 15.0232 110.133 15.4637 110.332 15.92C110.728 16.8327 110.939 17.8074 110.963 18.7872C111.012 20.7468 110.312 22.7242 108.854 24.256H108.853Z"
            fill="#B1B51B" />
        <path
            d="M108.803 24.2079C105.913 27.2435 101.109 27.3615 98.0733 24.4714C97.3143 23.7491 96.7379 22.9066 96.3452 22.0026C96.1488 21.5503 95.9983 21.0828 95.894 20.6067H96.1575V17.7085H95.8228C95.9036 17.2277 96.0308 16.7536 96.2048 16.2922C96.5528 15.3699 97.0874 14.5005 97.8098 13.7414V13.9037H108.539V13.4774C111.575 16.3675 111.693 21.1713 108.803 24.2069V24.2079Z"
            fill="#B2B71A" />
        <path
            d="M108.753 24.1607C105.889 27.1688 101.129 27.2858 98.1209 24.4222C96.6166 22.9901 95.8357 21.0844 95.7884 19.1604C95.7411 17.2364 96.4279 15.2941 97.8599 13.7904V13.9053H108.492V13.5289C111.5 16.3925 111.617 21.1526 108.753 24.1607H108.753Z"
            fill="#B4B819" />
        <path
            d="M108.703 24.1128C105.865 27.0934 101.149 27.2094 98.1689 24.3717C96.6788 22.9529 95.9045 21.0645 95.8577 19.1584C95.8109 17.2522 96.4911 15.3277 97.9099 13.8376V13.9048H108.444V13.5787C111.425 16.4163 111.541 21.1327 108.703 24.1128Z"
            fill="#B5BA17" />
        <path
            d="M108.653 24.0656C105.842 27.0182 101.169 27.1332 98.2163 24.322C96.74 22.9164 95.9728 21.0453 95.9265 19.1569C95.8803 17.268 96.5543 15.3619 97.9599 13.8855V13.9054H108.396V13.6292C111.349 16.4404 111.464 21.113 108.653 24.0656Z"
            fill="#B6BB16" />
        <path
            d="M108.603 24.0177C105.818 26.9429 101.189 27.0568 98.2643 24.2721C96.8017 22.8797 96.0422 21.0264 95.9959 19.1553C95.9501 17.2843 96.6175 15.3959 98.0099 13.9333C98.0969 13.8417 98.1859 13.7532 98.2765 13.6672V13.9053H108.349V13.6794C111.274 16.4642 111.388 21.0931 108.604 24.0182L108.603 24.0177Z"
            fill="#B8BD15" />
        <path
            d="M108.553 23.97C105.794 26.8676 101.209 26.9801 98.3113 24.2218C96.8624 22.8426 96.11 21.0066 96.0642 19.1534C96.0184 17.3001 96.6803 15.4295 98.0594 13.9807C98.2319 13.7996 98.4115 13.6291 98.5972 13.4699V13.9049H108.301V13.7288C111.198 16.4877 111.311 21.0728 108.552 23.9705L108.553 23.97Z"
            fill="#B9BE14" />
        <path
            d="M108.503 23.9225C105.77 26.7922 101.229 26.9041 98.3587 24.1718C96.9236 22.8058 96.1783 20.9871 96.1331 19.1517C96.0878 17.3162 96.743 15.4629 98.1094 14.0283C98.2804 13.8487 98.4579 13.6803 98.6421 13.5226V13.9052H108.253V13.779C111.123 16.5114 111.235 21.0528 108.503 23.923V23.9225Z"
            fill="#BAC013" />
        <path
            d="M108.453 23.8749C105.747 26.7171 101.249 26.8275 98.4067 24.1216C96.9853 22.7684 96.2471 20.9675 96.2024 19.1499C96.1576 17.3317 96.8067 15.4967 98.1594 14.0759C98.3283 13.8983 98.5048 13.7315 98.687 13.5748V13.9049H108.206V13.8291C111.048 16.535 111.158 21.0327 108.452 23.8754L108.453 23.8749Z"
            fill="#BBC112" />
        <path
            d="M108.403 23.8269C105.723 26.6417 101.269 26.751 98.4541 24.0716C97.047 22.7316 96.3159 20.9485 96.2717 19.1482C96.2274 17.3478 96.8699 15.5306 98.2099 14.1235C98.3773 13.9475 98.5518 13.7822 98.7324 13.6275V13.9053H108.158V13.8793C110.973 16.5588 111.083 21.0131 108.403 23.8279L108.403 23.8269Z"
            fill="#BCC210" />
        <path
            d="M108.352 23.7798C105.699 26.5671 101.289 26.6754 98.5015 24.0219C97.1082 22.6952 96.3842 20.9294 96.3405 19.1468C96.2967 17.3643 96.9332 15.5649 98.2594 14.1715C98.4252 13.9975 98.5977 13.8337 98.7768 13.6806V13.9055H107.844V13.6887C107.934 13.7661 108.023 13.8464 108.11 13.9294C110.898 16.5829 111.006 20.993 108.352 23.7803V23.7798Z"
            fill="#BDC40F" />
        <path
            d="M108.303 23.7318C105.676 26.4911 101.309 26.5984 98.5495 23.9714C97.1698 22.6579 96.453 20.9094 96.4098 19.1446C96.3666 17.3798 96.9964 15.5983 98.3099 14.2186C98.4742 14.0462 98.6451 13.8839 98.8222 13.7323V13.9048H107.527V13.5181C107.712 13.6611 107.89 13.8147 108.063 13.9785C110.822 16.6056 110.929 20.9719 108.302 23.7318H108.303Z"
            fill="#BEC50E" />
        <path
            d="M108.253 23.6842C105.652 26.416 101.329 26.5224 98.597 23.9213C95.8652 21.3207 95.7589 16.9975 98.36 14.2657C98.5227 14.0948 98.6916 13.9345 98.8672 13.7844V13.9045H107.485V13.5728C107.668 13.7142 107.845 13.8663 108.016 14.0286C110.747 16.6292 110.854 20.9524 108.253 23.6842Z"
            fill="#BFC60E" />
        <path
            d="M108.202 23.6366C105.628 26.341 101.349 26.4458 98.6444 23.8717C95.94 21.297 95.8352 17.0181 98.4094 14.3138C98.5701 14.1449 98.738 13.9862 98.9115 13.8371V13.9048H107.443V13.6275C107.623 13.7674 107.798 13.918 107.967 14.0787C110.672 16.6534 110.776 20.9323 108.202 23.6366Z"
            fill="#C0C70D" />
        <path
            d="M108.153 23.5889C105.604 26.2653 101.369 26.3696 98.6924 23.8214C96.0155 21.2732 95.9117 17.0381 98.4599 14.3612C98.7784 14.0264 99.1233 13.7324 99.4881 13.478V13.9043H107.401V13.682C107.579 13.8204 107.753 13.9695 107.92 14.1287C110.597 16.6769 110.701 20.912 108.153 23.5889Z"
            fill="#C1C80C" />
        <path
            d="M108.102 23.5416C105.58 26.1905 101.388 26.2933 98.7396 23.7716C96.0906 21.2498 95.9879 17.0579 98.5096 14.409C98.825 14.0778 99.1664 13.7863 99.5271 13.535V13.9044H107.358V13.7365C107.535 13.8738 107.706 14.0209 107.872 14.1786C110.521 16.7003 110.623 20.8922 108.102 23.5411L108.102 23.5416Z"
            fill="#C2C90B" />
        <path
            d="M108.053 23.4938C105.557 26.1153 101.409 26.217 98.7877 23.7217C96.1662 21.2265 96.0645 17.0783 98.5597 14.4569C98.8716 14.1293 99.2094 13.8408 99.567 13.592V13.9049H107.316V13.7915C107.491 13.9273 107.661 14.0728 107.825 14.229C110.446 16.7243 110.548 20.8724 108.053 23.4938Z"
            fill="#C3CA0A" />
        <path
            d="M108.003 23.4459C105.533 26.0393 101.429 26.1406 98.8355 23.6712C96.242 21.2019 96.1408 17.098 98.6101 14.504C98.9189 14.18 99.2531 13.8946 99.6067 13.6483V13.9042H106.74V13.4728C107.105 13.7013 107.453 13.9699 107.777 14.2787C110.371 16.748 110.472 20.8519 108.003 23.4459Z"
            fill="#C3CB09" />
        <path
            d="M107.952 23.3988C105.509 25.9648 101.449 26.0645 98.8828 23.6216C96.3168 21.1787 96.2171 17.1181 98.66 14.5521C98.9652 14.2311 99.2959 13.9493 99.6459 13.7056V13.905H106.703V13.5321C107.065 13.758 107.409 14.024 107.73 14.3293C110.296 16.7722 110.395 20.8328 107.952 23.3988Z"
            fill="#C4CC09" />
        <path
            d="M107.902 23.351C105.486 25.8895 101.469 25.9882 98.9303 23.5712C96.3918 21.1548 96.2931 17.1379 98.71 14.5994C99.0122 14.282 99.3393 14.0032 99.6853 13.762V13.9045H106.666V13.5901C107.024 13.8139 107.364 14.0764 107.682 14.3786C110.22 16.795 110.319 20.8119 107.902 23.3505V23.351Z"
            fill="#C5CD08" />
        <path
            d="M107.853 23.3029C105.462 25.8134 101.49 25.9111 98.9785 23.5211C96.468 21.1306 96.3703 17.158 98.7603 14.647C99.0589 14.3331 99.3824 14.0568 99.7248 13.8188V13.9047H106.63V13.6494C106.984 13.8706 107.321 14.1306 107.634 14.4292C110.145 16.8197 110.243 20.7923 107.853 23.3034V23.3029Z"
            fill="#C6CD07" />
        <path
            d="M107.802 23.2557C105.438 25.7387 101.509 25.8354 99.0255 23.4714C96.5425 21.1073 96.4458 17.1779 98.8099 14.6949C99.1054 14.3845 99.4254 14.1114 99.7637 13.8758V13.9048H106.593V13.7079C106.943 13.9267 107.276 14.1836 107.586 14.4792C110.069 16.8432 110.166 20.7726 107.802 23.2557Z"
            fill="#C6CE07" />
        <path
            d="M107.752 23.2078C105.415 25.6634 101.529 25.7585 99.0734 23.421C96.6178 21.0834 96.5226 17.1977 98.8602 14.7421C99.1522 14.4354 99.4686 14.1652 99.8034 13.9323C99.9708 13.8158 100.143 13.7084 100.319 13.6102V13.9043H106.557V13.7659C106.903 13.9821 107.232 14.2365 107.539 14.5285C109.994 16.8661 110.089 20.7517 107.752 23.2073L107.752 23.2078Z"
            fill="#C7CF06" />
        <path
            d="M107.702 23.1605C105.391 25.5881 101.549 25.6828 99.1213 23.3716C96.6936 21.0605 96.599 17.2186 98.9101 14.7905C99.1991 14.4868 99.512 14.2202 99.8431 13.9898C100.008 13.8748 100.179 13.7685 100.352 13.6718V13.9053H106.52V13.8254C106.862 14.0391 107.188 14.2904 107.491 14.5794C109.919 16.8905 110.014 20.7324 107.702 23.1605Z"
            fill="#C7D005" />
        <path
            d="M107.652 23.1129C105.367 25.513 101.568 25.6066 99.1683 23.3215C96.7681 21.0363 96.6745 17.2381 98.9597 14.838C99.531 14.2377 100.197 13.7819 100.912 13.4716V13.905H106.483V13.8841C106.821 14.0958 107.143 14.344 107.443 14.6299C109.843 16.9151 109.937 20.7132 107.652 23.1134V23.1129Z"
            fill="#C8D005" />
        <path
            d="M107.602 23.0648C105.343 25.4375 101.589 25.5296 99.2161 23.2708C96.8434 21.0121 96.7513 17.2577 99.0101 14.885C99.5748 14.2919 100.233 13.8411 100.94 13.5344V13.9047H105.934V13.6559C106.109 13.7419 106.28 13.8376 106.447 13.9418C106.781 14.1509 107.099 14.3966 107.395 14.679C109.768 16.9377 109.86 20.6921 107.601 23.0648H107.602Z"
            fill="#C9D104" />
        <path
            d="M107.552 23.0176C105.32 25.3623 101.609 25.4539 99.2639 23.2211C96.9192 20.9888 96.8277 17.2777 99.0604 14.933C99.6185 14.3469 100.269 13.9013 100.968 13.5981V13.9049H105.378V13.4897C106.091 13.7584 106.763 14.1714 107.349 14.7295C109.693 16.9618 109.785 20.6729 107.552 23.0176Z"
            fill="#C9D104" />
        <path
            d="M107.502 22.9698C105.295 25.287 101.629 25.3771 99.3113 23.1713C96.9941 20.9649 96.9041 17.2981 99.1099 14.9808C99.6613 14.4014 100.304 13.9613 100.995 13.6617V13.9054H105.353V13.5549C106.058 13.8204 106.721 14.2284 107.301 14.7799C109.618 16.9862 109.708 20.6531 107.502 22.9703L107.502 22.9698Z"
            fill="#C9D203" />
        <path
            d="M107.452 22.922C105.272 25.2118 101.649 25.3008 99.3593 23.121C97.0696 20.9411 96.9806 17.3179 99.1604 15.0282C99.7053 14.4559 100.341 14.0209 101.022 13.7248V13.9049H105.329V13.619C106.025 13.8815 106.681 14.2844 107.253 14.8298C109.543 17.0097 109.632 20.6328 107.452 22.9225V22.922Z"
            fill="#CAD203" />
        <path
            d="M107.402 22.8748C105.249 25.1371 101.669 25.2246 99.4072 23.0711C97.1449 20.9177 97.0574 17.3378 99.2108 15.0761C99.749 14.5104 100.377 14.081 101.05 13.788V13.9045H105.305V13.6832C105.993 13.9426 106.641 14.3409 107.206 14.8792C109.468 17.0326 109.556 20.6125 107.402 22.8743V22.8748Z"
            fill="#CAD303" />
        <path
            d="M107.352 22.827C105.225 25.0613 101.689 25.1483 99.4546 23.0213C97.2203 20.8943 97.1333 17.3582 99.2602 15.1239C99.7918 14.5653 100.412 14.141 101.077 13.8516V13.905H105.28V13.7483C105.959 14.0042 106.599 14.3979 107.158 14.9295C109.392 17.0565 109.479 20.5927 107.352 22.827Z"
            fill="#CBD302" />
        <path
            d="M107.302 22.7794C105.201 24.9863 101.709 25.0722 99.5021 22.9712C97.2952 20.8702 97.2093 17.3783 99.3103 15.1715C99.8353 14.62 100.448 14.2008 101.105 13.9149C101.434 13.772 101.774 13.6626 102.119 13.5868V13.9047H105.256V13.8127C105.926 14.0655 106.558 14.4542 107.11 14.9792C109.317 17.0802 109.403 20.5721 107.302 22.7789V22.7794Z"
            fill="#CBD402" />
        <path
            d="M107.252 22.7317C105.177 24.911 101.729 24.9955 99.5499 22.9209C97.3705 20.8463 97.2861 17.3977 99.3607 15.2188C100.398 14.1292 101.779 13.5635 103.173 13.5289C104.566 13.4948 105.973 13.9923 107.063 15.0296C109.242 17.1042 109.327 20.5528 107.252 22.7317Z"
            fill="#CBD402" />
        <path
            d="M107.202 22.6839C105.154 24.8353 101.749 24.9192 99.5972 22.8706C97.4458 20.8224 97.3619 17.4176 99.4105 15.2662C100.435 14.1902 101.798 13.6316 103.174 13.5976C104.55 13.564 105.939 14.0549 107.015 15.079C109.166 17.1271 109.25 20.532 107.202 22.6834V22.6839Z"
            fill="#CCD401" />
        <path
            d="M107.152 22.6367C105.13 24.7606 101.769 24.843 99.6451 22.8214C97.5212 20.7997 97.4388 17.4385 99.4605 15.3146C100.471 14.2529 101.817 13.701 103.176 13.6679C104.534 13.6343 105.905 14.1191 106.967 15.1305C109.091 17.1526 109.174 20.5133 107.152 22.6372V22.6367Z"
            fill="#CCD501" />
        <path
            d="M107.102 22.5888C105.106 24.6853 101.789 24.7667 99.6929 22.771C97.597 20.7752 97.5151 17.4579 99.5108 15.3619C100.508 14.3139 101.837 13.7691 103.178 13.7365C104.519 13.704 105.872 14.1822 106.92 15.1798C109.016 17.1755 109.098 20.4929 107.102 22.5888Z"
            fill="#CCD501" />
        <path
            d="M107.052 22.541C105.082 24.6095 101.809 24.6899 99.7403 22.7206C97.6718 20.7513 97.5914 17.4777 99.5607 15.4092C100.546 14.375 101.856 13.8378 103.179 13.8052C104.502 13.7727 105.838 14.2448 106.872 15.2297C108.941 17.1989 109.021 20.4726 107.052 22.541Z"
            fill="#CCD501" />
        <path
            d="M107.002 22.4937C105.059 24.5347 101.829 24.614 99.7884 22.6712C97.7474 20.7279 97.668 17.4985 99.6108 15.4575C100.582 14.437 101.876 13.9069 103.181 13.8749C104.486 13.8428 105.804 14.3088 106.825 15.2805C108.866 17.2238 108.945 20.4532 107.002 22.4942V22.4937Z"
            fill="#CCD501" />
        <path
            d="M106.951 22.4459C105.035 24.4594 101.848 24.5378 99.8354 22.6209C97.8219 20.704 97.7435 17.5179 99.6604 15.5049C100.619 14.4981 101.895 13.9751 103.182 13.9436C104.47 13.9121 105.77 14.3714 106.776 15.3299C108.79 17.2467 108.868 20.4329 106.951 22.4459Z"
            fill="#CDD500" />
        <path
            d="M103.306 23.9394C106.048 23.9394 108.27 21.7168 108.27 18.9752C108.27 16.2336 106.048 14.0111 103.306 14.0111C100.564 14.0111 98.3418 16.2336 98.3418 18.9752C98.3418 21.7168 100.564 23.9394 103.306 23.9394Z"
            fill="#CDD600" />
        <path
            d="M103.306 23.8707C106.01 23.8707 108.202 21.6789 108.202 18.9752C108.202 16.2715 106.01 14.0798 103.306 14.0798C100.602 14.0798 98.4106 16.2715 98.4106 18.9752C98.4106 21.6789 100.602 23.8707 103.306 23.8707Z"
            fill="#CDD600" />
        <path
            d="M103.306 23.8017C105.972 23.8017 108.132 21.6409 108.132 18.9754C108.132 16.31 105.972 14.1492 103.306 14.1492C100.641 14.1492 98.48 16.31 98.48 18.9754C98.48 21.6409 100.641 23.8017 103.306 23.8017Z"
            fill="#CDD600" />
        <path
            d="M103.306 23.7323C105.933 23.7323 108.063 21.6025 108.063 18.9753C108.063 16.348 105.933 14.2182 103.306 14.2182C100.679 14.2182 98.5488 16.348 98.5488 18.9753C98.5488 21.6025 100.679 23.7323 103.306 23.7323Z"
            fill="#CDD600" />
        <path
            d="M103.306 23.6633C105.895 23.6633 107.994 21.5645 107.994 18.9754C107.994 16.3864 105.895 14.2875 103.306 14.2875C100.717 14.2875 98.6182 16.3864 98.6182 18.9754C98.6182 21.5645 100.717 23.6633 103.306 23.6633Z"
            fill="#CDD600" />
        <path
            d="M103.306 23.594C105.857 23.594 107.925 21.5261 107.925 18.9753C107.925 16.4244 105.857 14.3566 103.306 14.3566C100.755 14.3566 98.6875 16.4244 98.6875 18.9753C98.6875 21.5261 100.755 23.594 103.306 23.594Z"
            fill="#CDD600" />
        <path
            d="M103.306 23.5253C105.819 23.5253 107.856 21.4882 107.856 18.9753C107.856 16.4624 105.819 14.4253 103.306 14.4253C100.793 14.4253 98.7559 16.4624 98.7559 18.9753C98.7559 21.4882 100.793 23.5253 103.306 23.5253Z"
            fill="#CDD600" />
        <path
            d="M103.306 23.4563C105.781 23.4563 107.787 21.4502 107.787 18.9755C107.787 16.5008 105.781 14.4946 103.306 14.4946C100.831 14.4946 98.8252 16.5008 98.8252 18.9755C98.8252 21.4502 100.831 23.4563 103.306 23.4563Z"
            fill="#CDD600" />
        <path
            d="M103.306 23.387C105.743 23.387 107.718 21.4118 107.718 18.9753C107.718 16.5388 105.743 14.5637 103.306 14.5637C100.87 14.5637 98.8945 16.5388 98.8945 18.9753C98.8945 21.4118 100.87 23.387 103.306 23.387Z"
            fill="#CDD600" />
        <path
            d="M103.306 21.1811C104.524 21.1811 105.512 20.1935 105.512 18.9752C105.512 17.757 104.524 16.7694 103.306 16.7694C102.088 16.7694 101.1 17.757 101.1 18.9752C101.1 20.1935 102.088 21.1811 103.306 21.1811Z"
            fill="#CDD600" />
    </g>
    <rect x="1" y="1" width="135" height="40" rx="4" stroke="#A6A6A6" />
</svg>
    