<svg width="58" height="24" viewBox="0 0 58 24" fill="none" xmlns="http://www.w3.org/2000/svg">
    <path fill-rule="evenodd" clip-rule="evenodd"
        d="M42.3808 0C41.7543 0 41.2461 0.508255 41.2461 1.13475V12.1523C41.2461 16.6181 44.8667 20.2387 49.3325 20.2387C53.768 20.2387 57.3049 16.728 57.4136 12.3571H57.4189V10.9233C57.4189 10.298 56.9126 9.7905 56.2878 9.78854H56.2868L56.2862 9.78854L56.286 9.87918L56.2859 9.78854L56.2852 9.78854H56.2842C55.6594 9.7905 55.1531 10.298 55.1531 10.9233V12.1523C55.1531 15.3651 52.5489 17.971 49.3343 17.971C46.1197 17.971 43.5156 15.3669 43.5156 12.1523V1.13475C43.5156 0.508255 43.0073 0 42.3808 0ZM49.4449 21.1504C48.6589 21.1504 48.0201 21.7892 48.0201 22.5752C48.0201 23.3612 48.6589 24 49.4449 24C50.2309 24 50.8697 23.3612 50.8697 22.5752C50.8697 21.7892 50.2309 21.1504 49.4449 21.1504Z"
        fill="#1E3E81" />
    <path fill-rule="evenodd" clip-rule="evenodd"
        d="M29.8732 9.34259C29.2593 9.34259 28.7566 9.82017 28.7566 10.4175C28.7566 11.0149 29.2593 11.4924 29.8732 11.4924H37.5717V11.8586H37.5698L37.5681 11.9475C37.5074 15.1085 34.9282 17.652 31.753 17.652C28.578 17.652 25.999 15.109 25.9378 11.9484V10.606C25.9378 9.97954 25.4296 9.47128 24.8031 9.47128C24.2289 9.47128 23.7542 9.89809 23.6788 10.4516C23.6382 10.6498 23.6353 10.8544 23.6321 11.0725V11.0726L23.632 11.0775L23.632 11.0786C23.6249 11.5743 23.6161 12.1856 23.1943 13.1135L23.1851 13.1337C23.0124 13.4778 22.7965 13.8375 22.5264 14.1969C20.7474 16.5624 17.4194 17.826 12.8774 17.826C8.92368 17.826 6.09437 16.8981 4.44274 15.0911C2.6825 13.1666 2.86432 10.884 2.8727 10.7981C2.93563 10.1703 2.47908 9.60916 1.85087 9.54608C1.21889 9.48117 0.661644 9.94016 0.598664 10.568L0.598616 10.5685C0.585292 10.7094 0.292425 13.9076 2.72434 16.598C4.8384 18.9375 8.26173 20.1118 12.8792 20.1118C18.8799 20.1118 22.1232 18.1074 23.8482 16.1862L23.8714 16.1604V16.1556C23.9442 16.0596 24.2023 15.7184 24.4706 15.3523C25.7784 18.0562 28.547 19.9215 31.7511 19.9215C36.1467 19.9215 39.723 16.411 39.8322 12.0399H39.8376V10.606C39.8376 10.4579 39.8091 10.3163 39.7573 10.1863C39.647 9.70125 39.1991 9.34259 38.6666 9.34259H29.8732ZM11.0139 9.72327C10.2279 9.72327 9.58917 10.362 9.58917 11.148C9.58917 11.9341 10.2279 12.5728 11.0139 12.5728C11.8 12.5728 12.4387 11.9341 12.4387 11.148C12.4387 10.362 11.8 9.72327 11.0139 9.72327ZM14.4653 9.72327C13.6793 9.72327 13.0405 10.362 13.0405 11.148C13.0405 11.9341 13.6793 12.5728 14.4653 12.5728C15.2513 12.5728 15.8901 11.9341 15.8901 11.148C15.8901 10.362 15.2513 9.72327 14.4653 9.72327ZM32.3457 21.1504C31.5597 21.1504 30.9209 21.7892 30.9209 22.5752C30.9209 23.3612 31.5597 24 32.3457 24C33.1317 24 33.7705 23.3612 33.7705 22.5752C33.7705 21.7892 33.1317 21.1504 32.3457 21.1504Z"
        fill="#1E3E81" />
</svg>
    