<svg width="54" height="48" viewBox="0 0 54 48" fill="none" xmlns="http://www.w3.org/2000/svg">
    <g style="mix-blend-mode:luminosity" opacity="0.5" clip-path="url(#clip0_485_3513)">
        <path
            d="M21.1283 46.4935C17.5626 46.4935 14.6621 43.5931 14.6621 40.0273C14.6621 36.4616 17.5626 33.5612 21.1283 33.5612C24.694 33.5612 27.5945 36.4616 27.5945 40.0273C27.5945 43.5931 24.694 46.4935 21.1283 46.4935ZM21.1283 35.0636C18.3916 35.0636 16.1645 37.2906 16.1645 40.0273C16.1645 42.7641 18.3916 44.9911 21.1283 44.9911C23.865 44.9911 26.092 42.7641 26.092 40.0273C26.092 37.2906 23.865 35.0636 21.1283 35.0636Z"
            fill="#1E3E81" />
        <path
            d="M21.1282 46.6194C17.4939 46.6194 14.5361 43.6626 14.5361 40.0273C14.5361 36.392 17.4929 33.4352 21.1282 33.4352C24.7635 33.4352 27.7203 36.392 27.7203 40.0273C27.7203 43.6626 24.7635 46.6194 21.1282 46.6194ZM21.1282 33.687C17.6321 33.687 14.7869 36.5312 14.7869 40.0283C14.7869 43.5255 17.6311 46.3697 21.1282 46.3697C24.6253 46.3697 27.4695 43.5255 27.4695 40.0283C27.4695 36.5312 24.6253 33.687 21.1282 33.687ZM21.1282 45.1169C18.3219 45.1169 16.0386 42.8336 16.0386 40.0273C16.0386 37.221 18.3219 34.9377 21.1282 34.9377C23.9345 34.9377 26.2178 37.221 26.2178 40.0273C26.2178 42.8336 23.9345 45.1169 21.1282 45.1169ZM21.1282 35.1894C18.4601 35.1894 16.2893 37.3602 16.2893 40.0283C16.2893 42.6965 18.4601 44.8662 21.1282 44.8662C23.7963 44.8662 25.9661 42.6955 25.9661 40.0283C25.9661 37.3612 23.7953 35.1894 21.1282 35.1894Z"
            fill="#1E3E81" />
        <path
            d="M26.843 40.4591C26.4285 40.4591 26.0918 40.1224 26.0918 39.7079V34.2478C26.0918 33.8333 26.4285 33.4966 26.843 33.4966C27.2575 33.4966 27.5942 33.8333 27.5942 34.2478V39.7079C27.5942 40.1224 27.2575 40.4591 26.843 40.4591Z"
            fill="#1E3E81" />
        <path
            d="M26.8429 40.584C26.3599 40.584 25.9658 40.191 25.9658 39.7069V34.2468C25.9658 33.7637 26.3588 33.3697 26.8429 33.3697C27.327 33.3697 27.72 33.7627 27.72 34.2468V39.7069C27.72 40.19 27.327 40.584 26.8429 40.584ZM26.8429 33.6215C26.498 33.6215 26.2166 33.9019 26.2166 34.2478V39.7079C26.2166 40.0528 26.497 40.3343 26.8429 40.3343C27.1888 40.3343 27.4693 40.0539 27.4693 39.7079V34.2478C27.4693 33.9029 27.1888 33.6215 26.8429 33.6215Z"
            fill="#1E3E81" />
        <path
            d="M7.02282 46.4935C3.45711 46.4935 0.556641 43.5931 0.556641 40.0273C0.556641 36.4616 3.45711 33.5612 7.02282 33.5612C10.5885 33.5612 13.489 36.4616 13.489 40.0273C13.489 43.5931 10.5885 46.4935 7.02282 46.4935ZM7.02282 35.0636C4.28611 35.0636 2.05907 37.2906 2.05907 40.0273C2.05907 42.7641 4.28611 44.9911 7.02282 44.9911C9.75954 44.9911 11.9866 42.7641 11.9866 40.0273C11.9866 37.2906 9.75954 35.0636 7.02282 35.0636Z"
            fill="#1E3E81" />
        <path
            d="M7.02273 46.6194C3.38845 46.6194 0.430664 43.6626 0.430664 40.0273C0.430664 36.392 3.38742 33.4352 7.02273 33.4352C10.658 33.4352 13.6148 36.392 13.6148 40.0273C13.6148 43.6626 10.658 46.6194 7.02273 46.6194ZM7.02273 33.687C3.52661 33.687 0.68141 36.5312 0.68141 40.0283C0.68141 43.5255 3.52559 46.3697 7.02273 46.3697C10.5199 46.3697 13.3641 43.5255 13.3641 40.0283C13.3641 36.5312 10.5199 33.687 7.02273 33.687ZM7.02273 45.1169C4.21642 45.1169 1.93309 42.8336 1.93309 40.0273C1.93309 37.221 4.21642 34.9377 7.02273 34.9377C9.82904 34.9377 12.1124 37.221 12.1124 40.0273C12.1124 42.8336 9.82904 45.1169 7.02273 45.1169ZM7.02273 35.1894C4.35459 35.1894 2.18486 37.3602 2.18486 40.0283C2.18486 42.6965 4.35561 44.8662 7.02273 44.8662C9.68985 44.8662 11.8616 42.6955 11.8616 40.0283C11.8616 37.3612 9.69088 35.1894 7.02273 35.1894Z"
            fill="#1E3E81" />
        <path
            d="M1.30786 40.8727C0.893357 40.8727 0.556641 40.5359 0.556641 40.1214V31.0977C0.556641 30.6832 0.893357 30.3464 1.30786 30.3464C1.72235 30.3464 2.05907 30.6832 2.05907 31.0977V40.1214C2.05907 40.5359 1.72235 40.8727 1.30786 40.8727Z"
            fill="#1E3E81" />
        <path
            d="M1.30776 40.9975C0.824693 40.9975 0.430664 40.6045 0.430664 40.1204V31.0966C0.430664 30.6136 0.82367 30.2195 1.30776 30.2195C1.79186 30.2195 2.18486 30.6126 2.18486 31.0966V40.1204C2.18486 40.6035 1.79186 40.9975 1.30776 40.9975ZM1.30776 30.4713C0.962859 30.4713 0.68141 30.7517 0.68141 31.0977V40.1215C0.68141 40.4664 0.961836 40.7478 1.30776 40.7478C1.65369 40.7478 1.93412 40.4674 1.93412 40.1215V31.0977C1.93412 30.7528 1.65369 30.4713 1.30776 30.4713Z"
            fill="#1E3E81" />
        <path
            d="M45.2124 40.059H37.1926C36.7781 40.059 36.4414 39.7223 36.4414 39.3078C36.4414 38.8933 36.7781 38.5566 37.1926 38.5566H45.2124C45.6269 38.5566 45.9636 38.8933 45.9636 39.3078C45.9636 39.7223 45.6269 40.059 45.2124 40.059Z"
            fill="#1E3E81" />
        <path
            d="M45.2123 40.1849H37.1925C36.7095 40.1849 36.3154 39.7919 36.3154 39.3078C36.3154 38.8237 36.7084 38.4307 37.1925 38.4307H45.2123C45.6954 38.4307 46.0894 38.8237 46.0894 39.3078C46.0894 39.7919 45.6964 40.1849 45.2123 40.1849ZM37.1925 38.6825C36.8476 38.6825 36.5662 38.9629 36.5662 39.3089C36.5662 39.6548 36.8466 39.9352 37.1925 39.9352H45.2123C45.5572 39.9352 45.8387 39.6548 45.8387 39.3089C45.8387 38.9629 45.5582 38.6825 45.2123 38.6825H37.1925Z"
            fill="#1E3E81" />
        <path
            d="M39.5218 46.5303C35.9315 46.5303 33.0146 43.6135 33.0146 40.0283C33.0146 36.4432 35.9315 33.5263 39.5166 33.5263C40.886 33.5263 42.1961 33.9469 43.3045 34.7432C44.7516 35.782 45.7198 37.3858 45.9593 39.143C46.0156 39.5545 45.727 39.9331 45.3166 39.9884C44.9062 40.0437 44.5265 39.7561 44.4712 39.3457C44.287 37.9957 43.5429 36.7625 42.4294 35.9632C41.5769 35.3511 40.5708 35.0287 39.5177 35.0287C36.7605 35.0287 34.5181 37.2711 34.5181 40.0283C34.5181 42.7855 36.7615 45.0279 39.5177 45.0279L45.4414 44.9829C45.4414 44.9829 45.4445 44.9829 45.4465 44.9829C45.859 44.9829 46.1947 45.3155 46.1978 45.729C46.2008 46.1435 45.8662 46.4822 45.4517 46.4853L39.5228 46.5303H39.5218Z"
            fill="#1E3E81" />
        <path
            d="M39.5217 46.6562C37.7521 46.6562 36.087 45.9664 34.8332 44.7127C33.5795 43.46 32.8887 41.7958 32.8887 40.0283C32.8887 36.3736 35.8618 33.4005 39.5166 33.4005C40.9126 33.4005 42.2471 33.8293 43.3781 34.6409C44.8539 35.7001 45.8395 37.3346 46.0841 39.1257C46.1158 39.358 46.0554 39.5883 45.9131 39.7745C45.7719 39.9608 45.5652 40.0805 45.3339 40.1123C44.8549 40.1778 44.4117 39.84 44.3473 39.3621C44.1682 38.0459 43.4425 36.8434 42.3566 36.0645C41.5256 35.4689 40.5441 35.1536 39.5176 35.1536C36.83 35.1536 34.6429 37.3407 34.6429 40.0283C34.6429 42.7159 36.83 44.9031 39.5176 44.9031L45.4403 44.858C45.9265 44.858 46.3195 45.249 46.3225 45.729C46.3246 45.9634 46.2345 46.1844 46.0697 46.3512C45.905 46.5181 45.6859 46.6102 45.4516 46.6122L39.5227 46.6573L39.5217 46.6562ZM39.5155 33.6512C35.9989 33.6512 33.1384 36.5117 33.1384 40.0283C33.1384 41.7293 33.8026 43.33 35.0093 44.5356C36.2159 45.7413 37.8176 46.4055 39.5207 46.4055L45.4495 46.3604C45.6163 46.3594 45.774 46.2929 45.8906 46.1742C46.0073 46.0555 46.0718 45.8979 46.0708 45.73C46.0687 45.3871 45.7873 45.1088 45.4454 45.1088L39.5176 45.1538C36.6908 45.1538 34.3911 42.8551 34.3911 40.0283C34.3911 37.2016 36.6908 34.9029 39.5166 34.9029C40.5963 34.9029 41.6279 35.2345 42.502 35.8608C43.6431 36.6806 44.4066 37.9436 44.5949 39.3283C44.642 39.6701 44.9583 39.9096 45.3001 39.8636C45.4659 39.841 45.6123 39.7551 45.7136 39.622C45.8149 39.489 45.8579 39.3242 45.8354 39.1584C45.6 37.4349 44.6512 35.8619 43.2317 34.8435C42.1438 34.0626 40.8593 33.6502 39.5166 33.6502L39.5155 33.6512Z"
            fill="#1E3E81" />
        <path
            d="M53.074 40.058H47.7622C47.3324 40.058 46.9834 39.71 46.9834 39.2792C46.9834 38.8483 47.3324 38.5003 47.7622 38.5003H53.074C53.5038 38.5003 53.8528 38.8483 53.8528 39.2792C53.8528 39.71 53.5038 40.058 53.074 40.058Z"
            fill="#1E3E81" />
        <path
            d="M53.0738 40.1839H47.7621C47.2637 40.1839 46.8584 39.7786 46.8584 39.2802C46.8584 38.7818 47.2637 38.3765 47.7621 38.3765H53.0738C53.5723 38.3765 53.9776 38.7818 53.9776 39.2802C53.9776 39.7786 53.5723 40.1839 53.0738 40.1839ZM47.7621 38.6272C47.4019 38.6272 47.1091 38.9199 47.1091 39.2802C47.1091 39.6404 47.4019 39.9331 47.7621 39.9331H53.0738C53.4341 39.9331 53.7268 39.6404 53.7268 39.2802C53.7268 38.9199 53.4341 38.6272 53.0738 38.6272H47.7621Z"
            fill="#1E3E81" />
        <path
            d="M51.7849 46.6756H51.4553C49.9478 46.6756 48.7217 45.4495 48.7217 43.942V34.1035C48.7217 33.6736 49.0707 33.3246 49.5005 33.3246C49.9304 33.3246 50.2794 33.6726 50.2794 34.1035V43.9287C50.2794 44.5919 50.8075 45.1189 51.4564 45.1189H51.7859C52.2158 45.1189 52.5647 45.4669 52.5647 45.8978C52.5647 46.3287 52.2158 46.6766 51.7859 46.6766L51.7849 46.6756Z"
            fill="#1E3E81" />
        <path
            d="M51.7848 46.8005H51.4552C49.8781 46.8005 48.5957 45.5181 48.5957 43.941V34.1025C48.5957 33.6041 49.001 33.1988 49.4994 33.1988C49.9978 33.1988 50.4031 33.6041 50.4031 34.1025V43.9277C50.4031 44.5151 50.8749 44.9931 51.4552 44.9931H51.7848C52.2832 44.9931 52.6885 45.3984 52.6885 45.8968C52.6885 46.3952 52.2832 46.8005 51.7848 46.8005ZM49.5004 33.4495C49.1402 33.4495 48.8475 33.7422 48.8475 34.1025V43.941C48.8475 45.3789 50.0173 46.5498 51.4563 46.5498H51.7858C52.1461 46.5498 52.4388 46.257 52.4388 45.8968C52.4388 45.5365 52.1461 45.2438 51.7858 45.2438H51.4563C50.7378 45.2438 50.1534 44.6533 50.1534 43.9277V34.1025C50.1534 33.7422 49.8607 33.4495 49.5004 33.4495Z"
            fill="#1E3E81" />
        <path
            d="M30.414 32.4599C31.0131 32.4599 31.4988 31.9742 31.4988 31.375C31.4988 30.7759 31.0131 30.2902 30.414 30.2902C29.8148 30.2902 29.3291 30.7759 29.3291 31.375C29.3291 31.9742 29.8148 32.4599 30.414 32.4599Z"
            fill="#1E3E81" />
        <path
            d="M30.4138 32.5847C29.7465 32.5847 29.2041 32.0423 29.2041 31.375C29.2041 30.7077 29.7465 30.1653 30.4138 30.1653C31.0811 30.1653 31.6235 30.7077 31.6235 31.375C31.6235 32.0423 31.0811 32.5847 30.4138 32.5847ZM30.4138 30.416C29.8847 30.416 29.4548 30.8459 29.4548 31.375C29.4548 31.9041 29.8847 32.334 30.4138 32.334C30.943 32.334 31.3728 31.9041 31.3728 31.375C31.3728 30.8459 30.943 30.416 30.4138 30.416Z"
            fill="#1E3E81" />
        <path
            d="M28.1162 46.5314C27.9095 46.5314 27.7038 46.4464 27.5554 46.2796C27.2791 45.9695 27.3968 45.4588 27.6823 45.1589C29.7415 42.9954 29.6883 39.8718 29.6688 39.2403C29.6637 39.0837 29.6668 38.9046 29.6688 38.7306C29.6699 38.6395 29.6719 38.5505 29.6719 38.4727V34.2192C29.6719 33.8047 30.0086 33.468 30.4231 33.468C30.8376 33.468 31.1743 33.8047 31.1743 34.2192V38.4727C31.1743 38.5577 31.1733 38.6549 31.1713 38.7542C31.1692 38.9107 31.1661 39.0714 31.1702 39.1932C31.204 40.3047 31.1754 44.0628 28.6147 46.4024C28.4734 46.5324 28.2933 46.5293 28.1152 46.5293L28.1162 46.5314Z"
            fill="#1E3E81" />
        <path
            d="M28.1357 46.6562H28.1265L28.1173 46.5303V46.6562C27.8675 46.6562 27.6291 46.5498 27.4623 46.3625C27.1337 45.9941 27.2739 45.4056 27.5922 45.0719C29.4539 43.1161 29.5777 40.3446 29.545 39.2444C29.5399 39.0806 29.5429 38.8944 29.545 38.7296C29.547 38.6323 29.5481 38.5484 29.5481 38.4737V34.2202C29.5481 33.7372 29.9411 33.3431 30.4252 33.3431C30.9092 33.3431 31.3023 33.7361 31.3023 34.2202V38.4737C31.3023 38.5597 31.3012 38.6569 31.2992 38.7572C31.2971 38.9118 31.2941 39.0714 31.2982 39.1901C31.3422 40.6332 31.1784 44.2337 28.7027 46.4966C28.5307 46.6542 28.322 46.6562 28.1367 46.6562H28.1357ZM30.4252 33.5939C30.0802 33.5939 29.7988 33.8743 29.7988 34.2202V38.4737C29.7988 38.5494 29.7978 38.6354 29.7957 38.7245C29.7927 38.8954 29.7896 39.0796 29.7947 39.2372C29.8285 40.3692 29.6995 43.2215 27.7734 45.2459C27.5308 45.5008 27.4234 45.9439 27.6485 46.1967C27.7672 46.3297 27.9371 46.4065 28.1162 46.4065H28.1255C28.2872 46.4065 28.4284 46.4065 28.5318 46.3124C30.9307 44.1191 31.0894 40.6076 31.0464 39.1993C31.0423 39.0745 31.0454 38.9117 31.0474 38.7541C31.0495 38.6549 31.0505 38.5587 31.0505 38.4747V34.2213C31.0505 33.8764 30.7701 33.5949 30.4241 33.5949L30.4252 33.5939Z"
            fill="#1E3E81" />
        <path
            d="M28.3435 44.4291C28.3066 44.4251 27.274 45.8313 26.271 46.4218C26.1594 46.4873 25.7982 46.7309 25.7255 46.8373C25.6221 46.9898 25.5832 47.2897 25.7255 47.5415C25.9803 47.9897 26.5872 47.8311 26.5872 47.8311C26.5872 47.8311 27.6987 47.3869 28.9862 46.038"
            fill="#1E3E81" />
        <path
            d="M26.3392 47.9846C26.11 47.9846 25.7958 47.9191 25.6167 47.6039C25.4488 47.3071 25.4918 46.9581 25.6218 46.7667C25.7221 46.6194 26.1468 46.3492 26.2072 46.3133C26.9717 45.863 27.7557 44.9255 28.0904 44.5254C28.2725 44.3084 28.2838 44.2951 28.3585 44.3043L28.3288 44.553L28.3432 44.4281L28.4189 44.5264C28.4035 44.5407 28.3421 44.6144 28.2828 44.685C27.9399 45.0954 27.1365 46.0554 26.3351 46.5283C26.1949 46.6112 25.8797 46.8333 25.8296 46.9059C25.7579 47.0124 25.7119 47.26 25.8357 47.478C26.0271 47.8147 26.4866 47.7237 26.5501 47.7093C26.6493 47.6674 27.7015 47.2027 28.8969 45.949L29.078 46.122C27.7874 47.476 26.6821 47.9263 26.635 47.9457L26.6207 47.9509C26.6094 47.9539 26.4938 47.9826 26.3403 47.9826L26.3392 47.9846Z"
            fill="#1E3E81" />
        <mask id="mask0_485_3513" style="mask-type:luminance" maskUnits="userSpaceOnUse" x="26"
            y="0" width="28" height="27">
            <path
                d="M44.4289 2.10834L26.542 20.7291C32.8628 29.3865 43.2284 27.9639 49.3619 21.8917C54.2817 17.0211 54.7453 8.88463 52.2348 3.00796C51.0875 0.322414 48.8134 -1.0439 45.7932 0.955931C45.2958 1.28548 44.8424 1.67747 44.4289 2.10732V2.10834Z"
                fill="white" />
        </mask>
        <g mask="url(#mask0_485_3513)">
            <path d="M54.7453 -1.04285H26.542V29.3865H54.7453V-1.04285Z" fill="#002D5D" />
            <path
                d="M53.2913 23.3297C51.139 25.5905 48.8495 27.5156 46.5508 29.062C45.9767 29.4489 45.4015 29.8112 44.8273 30.15V29.5123H27.7316V29.5748C27.3815 28.8256 27.1502 27.9925 27.0326 27.0908C26.7972 25.2875 27.0162 23.2099 27.6517 20.9911C28.9229 16.5534 31.8612 11.5476 36.1659 7.02603C38.3182 4.76522 40.6076 2.8401 42.9063 1.29366C44.0557 0.520954 45.207 -0.157596 46.3431 -0.735848C46.9111 -1.02446 47.4771 -1.28851 48.0359 -1.52698V-1.16775H54.8695V20.7424H55.5654C55.329 21.034 55.0875 21.3247 54.8398 21.6133C54.3455 22.1916 53.8286 22.7647 53.2903 23.3297H53.2913Z"
                fill="#002D5D" />
            <path
                d="M53.2457 23.3563C51.1026 25.6069 48.8224 27.5248 46.5339 29.0641C45.9618 29.4489 45.3897 29.8102 44.8186 30.1469V29.5124H27.7955V29.5748C27.4475 28.8297 27.2172 27.9997 27.0996 27.1011C26.8652 25.3049 27.0832 23.2365 27.7157 21.0269C28.9817 16.6076 31.9077 11.6234 36.1929 7.12122C40.4792 2.61905 45.314 -0.547518 49.6647 -2.02948V-1.16875H54.8689V20.7792H55.5096C55.2742 21.0699 55.0337 21.3585 54.7871 21.6471C54.2948 22.2233 53.78 22.7934 53.2437 23.3563H53.2457Z"
                fill="#012E5F" />
            <path
                d="M53.2002 23.3829C51.0663 25.6242 48.7962 27.533 46.517 29.0661C45.9469 29.4489 45.3769 29.8091 44.8089 30.1448V29.5123H27.8594V29.5748C27.5125 28.8328 27.2832 28.0058 27.1666 27.1113C26.9332 25.3233 27.1502 23.2631 27.7796 21.0637C29.0405 16.6639 31.9533 11.7001 36.2211 7.2174C40.4889 2.73467 45.3022 -0.418588 49.6355 -1.89441V-1.1698H54.8704V20.816H55.4558C55.2215 21.1057 54.982 21.3933 54.7364 21.6798C54.2461 22.253 53.7334 22.821 53.2002 23.3808V23.3829Z"
                fill="#012F60" />
            <path
                d="M53.1546 23.4085C51.0299 25.6407 48.7691 27.5412 46.5011 29.0672C45.9341 29.4489 45.3661 29.8071 44.8001 30.1408V29.5114H27.9233V29.5738C27.5784 28.8349 27.3492 28.012 27.2335 27.1216C27.0012 25.3408 27.2172 23.2908 27.8445 21.0996C29.0993 16.7182 32.0008 11.7769 36.2491 7.31366C40.4985 2.85037 45.2914 -0.289583 49.6062 -1.75824V-1.16873H54.8709V20.854H55.4021C55.1687 21.1415 54.9302 21.4281 54.6856 21.7137C54.1975 22.2847 53.6868 22.8497 53.1556 23.4075L53.1546 23.4085Z"
                fill="#023061" />
            <path
                d="M53.11 23.4351C50.9945 25.657 48.7439 27.5494 46.4852 29.0692C45.9202 29.4489 45.3553 29.8061 44.7914 30.1387V29.5113H27.9873V29.5738C27.6434 28.8379 27.4162 28.0181 27.3005 27.1318C27.0692 25.3592 27.2842 23.3174 27.9085 21.1364C29.1581 16.7744 32.0463 11.8537 36.2773 7.40984C40.5082 2.966 45.2806 -0.160653 49.576 -1.62317V-1.16876H54.8703V20.8918H55.3462C55.1139 21.1784 54.8765 21.4639 54.6329 21.7484C54.1468 22.3164 53.6391 22.8793 53.11 23.4351Z"
                fill="#033163" />
            <path
                d="M53.0634 23.4617C50.9572 25.6744 48.7158 27.5586 46.4673 29.0723C45.9054 29.4509 45.3425 29.8061 44.7806 30.1367V29.5123H28.0502V29.5748C27.7084 28.842 27.4812 28.0263 27.3665 27.1441C27.1363 25.3786 27.3502 23.346 27.9724 21.1743C29.2169 16.8307 32.0918 11.9325 36.3044 7.50706C40.5169 3.08266 45.2688 -0.0306852 49.5458 -1.48706V-1.16877H54.8708V20.9297H55.2915C55.0602 21.2152 54.8238 21.4997 54.5812 21.7822C54.0971 22.3482 53.5915 22.909 53.0644 23.4617H53.0634Z"
                fill="#033264" />
            <path
                d="M53.0189 23.4883C50.9219 25.6908 48.6907 27.5667 46.4514 29.0743C45.8916 29.4509 45.3318 29.805 44.7719 30.1346V29.5123H28.1142V29.5748C27.7734 28.845 27.5482 28.0334 27.4326 27.1543C27.2033 25.397 27.4162 23.3726 28.0354 21.2101C29.2738 16.886 32.1374 12.0082 36.3315 7.60325C40.5256 3.1983 45.256 0.098259 49.5146 -1.35095V-1.16775H54.8693V20.9685H55.2347C55.0044 21.2531 54.769 21.5355 54.5275 21.817C54.0454 22.3809 53.5419 22.9387 53.0179 23.4893L53.0189 23.4883Z"
                fill="#043366" />
            <path
                d="M52.9733 23.5149C50.8855 25.7082 48.6636 27.576 46.4345 29.0764C45.8767 29.451 45.3189 29.803 44.7632 30.1316V29.5124H28.1781V29.5748C27.8383 28.8481 27.6142 28.0396 27.4995 27.1646C27.2713 25.4145 27.4832 23.3993 28.1003 21.247C29.3336 16.9413 32.1839 12.085 36.3596 7.69949C40.5353 3.31296 45.2452 0.22725 49.4854 -1.21582V-1.16772H54.8698V21.0054H55.1799C54.9506 21.2879 54.7163 21.5704 54.4757 21.8508C53.9957 22.4116 53.4943 22.9674 52.9723 23.516L52.9733 23.5149Z"
                fill="#053467" />
            <path
                d="M52.9277 23.5415C50.8491 25.7246 48.6374 27.5852 46.4175 29.0784C45.8628 29.452 45.3071 29.802 44.7534 30.1295V29.5124H28.242V29.5738C27.9043 28.8502 27.6812 28.0458 27.5665 27.1748C27.3393 25.4329 27.5502 23.4269 28.1642 21.2828C29.3924 16.9965 32.2304 12.1618 36.3877 7.79467C40.545 3.42759 45.2344 0.355183 49.4552 -1.08175C50.5103 -1.44098 51.5369 -1.69787 52.5173 -1.84729V-1.16874H54.8703V21.0423H55.1251C54.8969 21.3237 54.6635 21.6041 54.424 21.8835C53.9461 22.4424 53.4466 22.995 52.9277 23.5415Z"
                fill="#053569" />
            <path
                d="M52.8822 23.5681C50.8128 25.7419 48.6113 27.5934 46.4007 29.0805C45.848 29.452 45.2953 29.801 44.7437 30.1264V29.5123H28.305V29.5738C27.9683 28.8543 27.7462 28.0519 27.6326 27.185C27.4064 25.4503 27.6162 23.4535 28.2272 21.3196C29.4492 17.0518 32.275 12.2385 36.4138 7.89086C40.5526 3.54322 45.2216 0.485141 49.4239 -0.945648C51.5251 -1.66104 53.5096 -1.9691 55.2535 -1.82786L54.8687 -1.16876V20.2358H55.7346C54.8687 21.3646 53.9159 22.4812 52.8812 23.5681H52.8822Z"
                fill="#06366A" />
            <path
                d="M52.8366 23.5947C50.7764 25.7593 48.5842 27.6026 46.3838 29.0825C45.8342 29.453 45.2836 29.7999 44.734 30.1244V29.5123H28.3679V29.5737C28.0332 28.8573 27.8112 28.059 27.6986 27.1952C27.4734 25.4687 27.6822 23.4801 28.2911 21.3554C29.508 17.1071 32.3215 12.3152 36.4419 7.98705C40.5624 3.65886 45.2109 0.614087 49.3937 -0.810561C51.4857 -1.52288 53.461 -1.82992 55.1967 -1.68868L54.8682 -1.16877V20.2767H55.6757C54.814 21.4015 53.8652 22.5119 52.8346 23.5937L52.8366 23.5947Z"
                fill="#07376C" />
            <path
                d="M52.792 23.6214C50.741 25.7757 48.559 27.6108 46.3688 29.0846C45.8213 29.453 45.2737 29.7989 44.7262 30.1213V29.5124H28.4338V29.5738C28.1001 28.8604 27.8801 28.0662 27.7675 27.2065C27.5434 25.4871 27.7512 23.5078 28.357 21.3933C29.5688 17.1634 32.369 12.3931 36.471 8.08432C40.573 3.77558 45.2 0.744107 49.3655 -0.673377C51.4482 -1.38263 53.4153 -1.68762 55.1429 -1.54843L54.8706 -1.16771V20.3197H55.6198C54.7611 21.4394 53.8175 22.5447 52.792 23.6224V23.6214Z"
                fill="#07386D" />
            <path
                d="M52.7464 23.648C50.7046 25.7931 48.5318 27.62 46.3519 29.0866C45.8064 29.453 45.2609 29.7979 44.7174 30.1193V29.5124H28.4977V29.5738C28.1661 28.8635 27.9461 28.0724 27.8345 27.2167C27.6114 25.5055 27.8181 23.5344 28.422 21.4291C29.6276 17.2186 32.4155 12.4688 36.5001 8.17948C40.5837 3.89018 45.1902 0.872014 49.3363 -0.53933C51.4098 -1.24551 53.3676 -1.54948 55.0881 -1.41029L54.8711 -1.16875V20.3596H55.5629C54.7084 21.4741 53.7688 22.5754 52.7474 23.6469L52.7464 23.648Z"
                fill="#08396E" />
            <path
                d="M52.7009 23.6746C50.6683 25.8095 48.5057 27.6282 46.335 29.0887C45.7926 29.454 45.2491 29.7969 44.7077 30.1162V29.5124H28.5607V29.5738C28.2301 28.8666 28.0121 28.0795 27.9005 27.227C27.6784 25.5229 27.8842 23.561 28.4849 21.466C29.6854 17.2739 32.461 12.5466 36.5262 8.27569C40.5914 4.00584 45.1775 1.00098 49.305 -0.404224C51.3694 -1.10631 53.318 -1.40926 55.0313 -1.27109L54.8706 -1.16874V20.4016H55.5041C54.6536 21.511 53.7182 22.6071 52.7019 23.6746H52.7009Z"
                fill="#093A70" />
            <path
                d="M52.6551 23.7012C50.6318 25.8269 48.4784 27.6374 46.3179 29.0907C45.7775 29.454 45.2371 29.7959 44.6978 30.1131V29.5113H28.6244V29.5728C28.2959 28.8686 28.0779 28.0847 27.9674 27.2372C27.7463 25.5414 27.952 23.5886 28.5487 21.5018C29.7441 17.3292 32.5064 12.6223 36.5541 8.3719C40.6009 4.12047 45.1665 1.12994 49.2757 -0.2681C51.3298 -0.967119 53.2702 -1.26904 54.9753 -1.13087H54.8709V20.4435H55.4461C54.5997 21.5478 53.6673 22.6389 52.6562 23.7022L52.6551 23.7012Z"
                fill="#093B71" />
            <path
                d="M52.61 23.7278C50.5959 25.8432 48.4528 27.6456 46.3015 29.0927C45.7641 29.455 45.2258 29.7938 44.6885 30.1111V29.5123H28.6878V29.5737C28.3603 28.8727 28.1433 28.0928 28.0338 27.2484C27.8128 25.5597 28.0185 23.6162 28.6131 21.5396C29.8034 17.3854 32.5534 12.7011 36.5817 8.46909C40.61 4.23711 45.1542 1.25988 49.2449 -0.132016C51.2898 -0.827965 53.222 -1.12784 54.9189 -0.990694H54.8698V20.4855H55.3867C54.5433 21.5847 53.6161 22.6705 52.609 23.7288L52.61 23.7278Z"
                fill="#0A3C73" />
            <path
                d="M52.5645 23.7544C50.5595 25.8607 48.4256 27.6548 46.2846 29.0948C45.7493 29.455 45.213 29.7928 44.6788 30.108V29.5113H28.7508V29.5717C28.4253 28.8737 28.2093 28.0979 28.0998 27.2577C27.8798 25.5772 28.0845 23.6418 28.676 21.5744C29.8602 17.4397 32.5979 12.7758 36.6088 8.56327C40.6187 4.35074 45.1424 1.38784 49.2147 0.00105518C51.2504 -0.691823 53.1734 -0.990671 54.8632 -0.853528C55.074 -0.836129 55.2818 -0.81259 55.4854 -0.781887H54.8703V20.5244H55.3299C54.4906 21.6185 53.5675 22.7002 52.5655 23.7534L52.5645 23.7544Z"
                fill="#0B3D74" />
            <path
                d="M52.5188 23.781C50.5231 25.877 48.3994 27.6629 46.2676 29.0978C45.7344 29.456 45.2011 29.7928 44.67 30.107V29.5134H28.8156V29.5737C28.4912 28.8798 28.2763 28.1061 28.1678 27.2699C27.9488 25.5966 28.1524 23.6705 28.742 21.6123C29.921 17.496 32.6464 12.8536 36.6379 8.6615C40.6294 4.46841 45.1326 1.51881 49.1855 0.139195C51.2119 -0.550613 53.1258 -0.848439 54.8073 -0.71232C55.0171 -0.694921 55.2238 -0.67138 55.4265 -0.640677H54.8697V20.5684H55.2709C54.4358 21.6573 53.5167 22.734 52.5188 23.782V23.781Z"
                fill="#0B3E75" />
            <path
                d="M52.4743 23.8076C50.4878 25.8944 48.3734 27.6722 46.2517 29.0999C45.7216 29.4571 45.1904 29.7917 44.6613 30.1039V29.5123H28.8796V29.5727C28.5572 28.8819 28.3433 28.1122 28.2338 27.2792C28.0158 25.614 28.2185 23.696 28.8049 21.6481C29.9788 17.5512 32.691 12.9303 36.665 8.75668C40.6381 4.58303 45.1208 1.64674 49.1553 0.273265C51.1725 -0.413473 53.0782 -0.709251 54.7515 -0.574155C54.9603 -0.556756 55.166 -0.533217 55.3676 -0.503537H54.8702V20.6073H55.2131C54.382 21.6911 53.4671 22.7626 52.4733 23.8066L52.4743 23.8076Z"
                fill="#0C3F77" />
            <path
                d="M52.4278 23.8342C50.4504 25.9118 48.3462 27.6803 46.2348 29.1019C45.7067 29.4571 45.1786 29.7907 44.6516 30.1018V29.5134H28.9426V29.5737C28.6212 28.886 28.4083 28.1194 28.2998 27.2914C28.0829 25.6345 28.2845 23.7257 28.8689 21.686C30.0366 17.6075 32.7365 13.0081 36.6922 8.85391C40.6468 4.69971 45.109 1.77672 49.124 0.409389C51.1321 -0.274278 53.0285 -0.569034 54.6947 -0.433938C54.9025 -0.417562 55.1072 -0.394023 55.3088 -0.363319H54.8697V20.6502H55.1542C54.3263 21.729 53.4164 22.7954 52.4278 23.8342Z"
                fill="#0C4078" />
            <path
                d="M52.3832 23.8608C50.4151 25.9282 48.32 27.6896 46.2189 29.104C45.6939 29.4571 45.1678 29.7897 44.6428 30.0988V29.5123H29.0075V29.5727C28.6871 28.888 28.4763 28.1256 28.3678 27.3007C28.1519 25.6509 28.3525 23.7513 28.9338 21.7218C30.0964 17.6628 32.784 13.0849 36.7202 8.9491C40.6574 4.81435 45.0972 1.90467 49.0948 0.544498C51.0936 -0.136099 52.9809 -0.428808 54.6388 -0.294736C54.8466 -0.27836 55.0503 -0.254821 55.2499 -0.224117H54.8701V20.6912H55.0974C54.2735 21.7658 53.3677 22.8271 52.3832 23.8608Z"
                fill="#0D4179" />
            <path
                d="M52.3366 23.8864C50.3778 25.9446 48.293 27.6967 46.201 29.105C45.6781 29.4571 45.154 29.7876 44.6321 30.0957V29.5123H29.0694V29.5727C28.7511 28.8911 28.5403 28.1327 28.4328 27.3109C28.2179 25.6693 28.4175 23.7779 28.9957 21.7576C30.1533 17.717 32.8276 13.1606 36.7464 9.0453C40.6652 4.92897 45.0845 2.03361 49.0626 0.679584C51.0522 0.0020569 52.9303 -0.289628 54.5811 -0.155555C54.7878 -0.13918 54.9905 -0.11564 55.189 -0.0849369H54.8676V20.7331H55.0365C54.2167 21.8027 53.3151 22.8589 52.3356 23.8874L52.3366 23.8864Z"
                fill="#0E427B" />
            <path
                d="M52.292 23.913C50.3423 25.961 48.2668 27.7059 46.1851 29.1071C45.6641 29.4571 45.1432 29.7856 44.6243 30.0926V29.5113H29.1343V29.5717C28.8171 28.8932 28.6072 28.1378 28.5008 27.3211C28.2869 25.6867 28.4855 23.8045 29.0617 21.7945C30.213 17.7733 32.8761 13.2384 36.7754 9.14151C40.6758 5.04463 45.0746 2.16258 49.0344 0.814692C51.0137 0.140236 52.8846 -0.149403 54.5272 -0.0163536C54.9377 0.016397 55.3347 0.0767817 55.7145 0.163775H54.8691V20.7741H54.9796C54.1639 21.8385 53.2663 22.8896 52.291 23.9141L52.292 23.913Z"
                fill="#0E437C" />
            <path
                d="M52.2474 23.9396C50.3069 25.9784 48.2416 27.7141 46.1691 29.1091C45.6513 29.4581 45.1324 29.7846 44.6155 30.0906V29.5123H29.1992V29.5727C28.884 28.8973 28.6752 28.146 28.5688 27.3324C28.3559 25.7061 28.5534 23.8322 29.1266 21.8313C30.2728 17.8296 32.9226 13.3152 36.8045 9.23772C40.6865 5.16028 45.0648 2.29256 49.0051 0.950811C50.9753 0.280449 52.8369 -0.00918827 54.4724 0.122837C54.8808 0.155588 55.2758 0.214948 55.6545 0.301942H54.8716V20.815H54.9238C54.1111 21.8743 53.2177 22.9203 52.2474 23.9396Z"
                fill="#0F447D" />
            <path
                d="M52.2009 23.9662C50.2696 25.9947 48.2145 27.7234 46.1513 29.1112C45.6354 29.4581 45.1196 29.7836 44.6048 30.0875V29.5113H29.2612V29.5717C28.947 28.8993 28.7392 28.1512 28.6338 27.3416C28.422 25.7225 28.6185 23.8588 29.1895 21.8671C30.3307 17.8839 32.9681 13.3909 36.8307 9.3329C40.6942 5.2749 45.051 2.42049 48.9739 1.08488C50.9349 0.417591 52.7873 0.13 54.4146 0.261002C54.822 0.293752 55.2139 0.353112 55.5916 0.439082H54.8701V20.0628H55.4555C55.2631 20.3279 55.0666 20.5919 54.8649 20.8549C54.0564 21.9091 53.167 22.951 52.2019 23.9652L52.2009 23.9662Z"
                fill="#0F457F" />
            <path
                d="M52.1563 23.9929C50.2343 26.0121 48.1884 27.7326 46.1354 29.1132C45.6226 29.4581 45.1088 29.7825 44.5961 30.0855V29.5123H29.3251V29.5717C29.013 28.9024 28.8062 28.1583 28.7008 27.3529C28.49 25.7419 28.6855 23.8864 29.2535 21.904C30.3895 17.9402 33.0136 13.4687 36.8588 9.43013C40.7039 5.39158 45.0403 2.55047 48.9447 1.22101C50.8965 0.556784 52.7397 0.270217 54.3598 0.401219C54.7651 0.43397 55.1561 0.49333 55.5307 0.578276H54.8705V20.1089H55.3956C55.2042 20.3729 55.0087 20.6359 54.8071 20.8979C54.0026 21.947 53.1174 22.9837 52.1563 23.9929Z"
                fill="#104680" />
            <path
                d="M52.1108 24.0195C50.1979 26.0295 48.1623 27.7407 46.1184 29.1152C45.6077 29.4591 45.096 29.7815 44.5863 30.0824V29.5113H29.3891V29.5707C29.0779 28.9054 28.8722 28.1645 28.7678 27.3621C28.558 25.7583 28.7525 23.912 29.3174 21.9398C30.4473 17.9944 33.0602 13.5444 36.8859 9.5253C40.7125 5.5062 45.0285 2.6784 48.9135 1.35609C50.856 0.694941 52.6911 0.409397 54.303 0.540399C54.7062 0.57315 55.0951 0.631487 55.4687 0.716433H54.87V20.1529H55.3336C55.1433 20.4149 54.9488 20.6769 54.7482 20.9378C53.9479 21.9818 53.0667 23.0134 52.1097 24.0184L52.1108 24.0195Z"
                fill="#114781" />
            <path
                d="M52.0652 24.0461C50.1615 26.0459 48.1351 27.75 46.1025 29.1173C45.5939 29.4591 45.0852 29.7805 44.5776 30.0793V29.5113H29.453V29.5707C29.1439 28.9085 28.9392 28.1706 28.8348 27.3733C28.626 25.7778 28.8194 23.9396 29.3823 21.9767C30.5071 18.0507 33.1067 13.6222 36.915 9.62152C40.7232 5.62186 45.0187 2.80736 48.8853 1.4912C50.8186 0.83312 52.6444 0.549622 54.2482 0.679601C54.6494 0.712352 55.0362 0.770689 55.4078 0.854612H54.8704V20.1979H55.2737C55.0844 20.4589 54.8899 20.7199 54.6913 20.9788C53.8941 22.0176 53.018 23.0441 52.0662 24.0451L52.0652 24.0461Z"
                fill="#114882" />
            <path
                d="M52.0194 24.0727C50.125 26.0633 48.1088 27.7581 46.0854 29.1193C45.5798 29.4601 45.0732 29.7795 44.5687 30.0773V29.5113H29.5167V29.5707C29.2087 28.9116 29.005 28.1778 28.9016 27.3836C28.6939 25.7952 28.8873 23.9662 29.4461 22.0125C30.5658 18.1049 33.152 13.6979 36.9419 9.71772C40.7317 5.7375 45.0067 2.93631 48.8539 1.62629C50.778 0.971276 52.5946 0.688803 54.1912 0.818782C54.5903 0.851532 54.9752 0.908846 55.3456 0.993793H54.8697V20.2439H55.2116C55.0233 20.5039 54.8298 20.7628 54.6323 21.0218C53.8391 22.0555 52.9671 23.0779 52.0194 24.0727Z"
                fill="#124884" />
            <path
                d="M51.9748 24.0993C50.0896 26.0797 48.0826 27.7674 46.0695 29.1214C45.5659 29.4602 45.0624 29.7785 44.5599 30.0742V29.5113H29.5816V29.5707C29.2756 28.9147 29.0719 28.1839 28.9696 27.3938C28.7629 25.8136 28.9553 23.9939 29.512 22.0493C30.6255 18.1612 33.2006 13.7747 36.972 9.81395C40.7434 5.85216 44.9969 3.06529 48.8267 1.76243C50.7415 1.11049 52.55 0.830066 54.1384 0.957998C54.5355 0.989725 54.9193 1.04806 55.2867 1.13198H54.8722V19.5112H55.7002C55.3461 20.0301 54.9704 20.5479 54.5764 21.0617C53.7873 22.0903 52.9194 23.1076 51.9768 24.0983L51.9748 24.0993Z"
                fill="#124985" />
            <path
                d="M51.9283 24.1259C50.0523 26.0971 48.0556 27.7756 46.0517 29.1245C45.5512 29.4612 45.0497 29.7774 44.5492 30.0732V29.5124H29.6436V29.5717C29.3387 28.9188 29.137 28.1921 29.0337 27.4061C28.828 25.8331 29.0193 24.0226 29.573 22.0872C30.6814 18.2175 33.2431 13.8535 36.9961 9.91118C40.7491 5.96883 44.9822 3.1963 48.7925 1.89856C50.6981 1.24969 52.4974 0.970283 54.0776 1.09822C54.4726 1.12994 54.8544 1.18726 55.2208 1.27118H54.8687V19.5613H55.6332C55.2802 20.0771 54.9076 20.593 54.5146 21.1047C53.7296 22.1292 52.8658 23.1403 51.9273 24.1259H51.9283Z"
                fill="#134A86" />
            <path
                d="M51.8838 24.1525C50.017 26.1134 48.0294 27.7847 46.0357 29.1265C45.5373 29.4622 45.0379 29.7764 44.5405 30.0701V29.5123H29.7076V29.5717C29.4036 28.9218 29.203 28.1992 29.1006 27.4163C28.896 25.8514 29.0863 24.0491 29.638 22.124C30.7412 18.2738 33.2907 13.9302 37.0253 10.0073C40.7598 6.08444 44.9724 3.3252 48.7643 2.0336C50.6597 1.3878 52.4508 1.11045 54.0238 1.23736C54.4168 1.26908 54.7965 1.3264 55.1609 1.4093H54.8702V19.6094H55.5713C55.2202 20.1232 54.8487 20.6359 54.4588 21.1446C53.6768 22.1639 52.8182 23.17 51.8838 24.1515V24.1525Z"
                fill="#134B87" />
            <path
                d="M51.8372 24.1791C49.9796 26.1308 48.0023 27.7929 46.0178 29.1285C45.5215 29.4622 45.0251 29.7754 44.5297 30.0681V29.5123H29.7705V29.5717C29.4686 28.9249 29.269 28.2054 29.1667 27.4265C28.963 25.8688 29.1523 24.0757 29.7009 22.1598C30.7981 18.328 33.3352 14.007 37.0514 10.1035C40.7675 6.20009 44.9596 3.45416 48.732 2.16972C50.6183 1.52802 52.4001 1.25066 53.966 1.37757C54.3569 1.4093 54.7356 1.46661 55.0979 1.54849H54.8687V19.6595H55.5063C55.1573 20.1702 54.7878 20.6809 54.3989 21.1875C53.6211 22.2018 52.7665 23.2038 51.8372 24.1791Z"
                fill="#144C88" />
            <path
                d="M51.7926 24.2057C49.9432 26.1482 47.9761 27.8021 46.0019 29.1306C45.5086 29.4622 45.0143 29.7743 44.522 30.065V29.5123H29.8354V29.5717C29.5345 28.9279 29.336 28.2125 29.2346 27.4378C29.032 25.8883 29.2203 24.1034 29.7658 22.1977C30.8578 18.3853 33.3827 14.0848 37.0804 10.2008C40.7782 6.31677 44.9498 3.58414 48.7038 2.30585C50.5808 1.66721 52.3545 1.39088 53.9122 1.51779C54.3011 1.54951 54.6777 1.6058 55.038 1.6887H54.8701V19.7097H55.4443C55.0963 20.2183 54.7289 20.726 54.342 21.2305C53.5683 22.2397 52.7168 23.2365 51.7926 24.2078V24.2057Z"
                fill="#144D8A" />
            <path
                d="M51.748 24.2324C49.9079 26.1647 47.951 27.8104 45.986 29.1327C45.4947 29.4632 45.0035 29.7734 44.5132 30.063V29.5124H29.8993V29.5707C29.6005 28.9311 29.403 28.2177 29.3016 27.447C29.1 25.9047 29.2873 24.13 29.8308 22.2325C30.9177 18.4386 33.4292 14.1595 37.1085 10.295C40.7879 6.43041 44.938 3.7111 48.6736 2.43894C50.5414 1.80338 52.3058 1.52909 53.8553 1.65498C54.2432 1.6867 54.6168 1.74299 54.976 1.82487H54.8696V19.7568H55.3803C55.0343 20.2634 54.669 20.768 54.2841 21.2695C53.5145 22.2735 52.6671 23.2652 51.748 24.2314V24.2324Z"
                fill="#154E8B" />
            <path
                d="M51.7014 24.2589C49.8705 26.182 47.9228 27.8195 45.9691 29.1347C45.4809 29.4632 44.9917 29.7723 44.5035 30.0599V29.5123H29.9633V29.5707C29.6654 28.9341 29.4689 28.2248 29.3686 27.4583C29.168 25.9241 29.3543 24.1576 29.8947 22.2704C30.9755 18.4959 33.4747 14.2383 37.1366 10.3922C40.7975 6.54705 44.9272 3.84103 48.6444 2.57604C50.503 1.94355 52.2582 1.67028 53.8005 1.79515C54.1864 1.82585 54.5579 1.88214 54.9151 1.96402H54.87V19.8059H55.3163C54.9724 20.3094 54.608 20.812 54.2253 21.3114C53.4597 22.3103 52.6164 23.2979 51.7014 24.2589Z"
                fill="#154E8C" />
            <path
                d="M51.6568 24.2856C49.8351 26.1984 47.8977 27.8278 45.9531 29.1368C45.467 29.4643 44.9798 29.7713 44.4947 30.0579V29.5134H30.0272V29.5717C29.7314 28.9382 29.5349 28.233 29.4356 27.4695C29.236 25.9426 29.4213 24.1853 29.9596 22.3072C31.0353 18.5512 33.5223 14.3151 37.1647 10.4894C40.8072 6.66272 44.9164 3.97104 48.6151 2.71219C50.4645 2.08276 52.2105 1.81155 53.7457 1.93539C54.1295 1.96609 54.5 2.02238 54.8551 2.10323C55.0332 2.14417 55.2072 2.19023 55.3771 2.24345H54.8725V19.855H55.2553C54.9125 20.3565 54.5512 20.856 54.1694 21.3534C53.407 22.3472 52.5687 23.3297 51.6579 24.2856H51.6568Z"
                fill="#164F8D" />
            <path
                d="M51.6113 24.3122C49.7988 26.2158 47.8706 27.837 45.9363 29.1388C45.4522 29.4642 44.9681 29.7703 44.485 30.0548V29.5123H30.0901V29.5707C29.7954 28.9402 29.6009 28.2381 29.5016 27.4787C29.3031 25.9599 29.4873 24.2109 30.0226 22.3431C31.0931 18.6064 33.5668 14.3918 37.1919 10.5846C40.8159 6.77734 44.9046 4.09896 48.5839 2.84727C50.4241 2.22092 52.1619 1.95073 53.6879 2.07457C54.0697 2.10527 54.4381 2.16054 54.7912 2.24139C54.9682 2.2813 55.1412 2.32838 55.3101 2.3816H54.869V19.9042H55.1883C54.8475 20.4026 54.4872 20.9 54.1085 21.3943C53.3502 22.383 52.516 23.3604 51.6103 24.3122H51.6113Z"
                fill="#17508E" />
            <path
                d="M51.5657 24.3388C49.7624 26.2322 47.8444 27.8452 45.9193 29.1409C45.4383 29.4643 44.9562 29.7682 44.4762 30.0528V29.5134H30.155V29.5717C29.8623 28.9444 29.6679 28.2464 29.5696 27.4911C29.3721 25.9804 29.5553 24.2395 30.0875 22.3809C31.1529 18.6627 33.6143 14.4696 37.2199 10.6818C40.8256 6.89404 44.8928 4.22999 48.5547 2.98342C50.3856 2.36014 52.1143 2.09199 53.6331 2.21481C54.3925 2.27621 55.0997 2.43587 55.7404 2.69788H54.8704V19.9543H55.1263C54.7875 20.4507 54.4293 20.945 54.0517 21.4373C53.2974 22.4209 52.4674 23.3931 51.5657 24.3398V24.3388Z"
                fill="#17518F" />
            <path
                d="M51.5201 24.3654C49.726 26.2496 47.8183 27.8543 45.9024 29.1429C45.4234 29.4653 44.9444 29.7672 44.4665 30.0497V29.5123H30.218V29.5707C29.9263 28.9464 29.7339 28.2514 29.6356 27.5002C29.4391 25.9968 29.6213 24.2661 30.1514 22.4157C31.2107 18.7169 33.6598 14.5443 37.247 10.776C40.8343 7.00761 44.881 4.35686 48.5235 3.11643C50.3442 2.49622 52.0646 2.2291 53.5763 2.35191C54.3316 2.41332 55.0357 2.57195 55.6733 2.83191H54.8709V20.0004H55.0633C54.7256 20.4937 54.3694 20.9859 53.9938 21.4751C53.2436 22.4536 52.4177 23.4218 51.5201 24.3633V24.3654Z"
                fill="#185290" />
            <path
                d="M51.4746 24.391C49.6897 26.266 47.7912 27.8626 45.8855 29.1439C45.4096 29.4643 44.9327 29.7652 44.4568 30.0456V29.5113H30.2809V29.5697C29.9913 28.9484 29.7989 28.2576 29.7016 27.5095C29.5062 26.0142 29.6873 24.2917 30.2144 22.4516C31.2685 18.7712 33.7054 14.6211 37.2742 10.8722C40.843 7.12328 44.8692 4.48584 48.4933 3.25258C50.3048 2.63543 52.017 2.37036 53.5205 2.49113C54.2727 2.55151 54.9717 2.71015 55.6063 2.96908H54.8704V20.0505H54.9994C54.6637 20.5418 54.3096 21.031 53.936 21.5182C53.1889 22.4925 52.3681 23.4545 51.4756 24.392L51.4746 24.391Z"
                fill="#185291" />
            <path
                d="M51.429 24.4176C49.6533 26.2823 47.765 27.8707 45.8686 29.146C45.3947 29.4653 44.9198 29.7641 44.447 30.0435V29.5113H30.3448V29.5697C30.0562 28.9515 29.8658 28.2648 29.7686 27.5207C29.5742 26.0326 29.7543 24.3193 30.2793 22.4884C31.3284 18.8275 33.7519 14.6979 37.3023 10.9684C40.8526 7.23892 44.8584 4.61479 48.463 3.38766C50.2653 2.77359 51.9684 2.50954 53.4636 2.63031C54.2118 2.69069 54.9077 2.84728 55.5392 3.10519H54.8699V20.0986H54.9354C54.6017 20.5868 54.2486 21.074 53.8771 21.5591C53.1341 22.5283 52.3174 23.4852 51.429 24.4176Z"
                fill="#195393" />
            <path
                d="M51.3843 24.4442C49.6179 26.2997 47.7388 27.8799 45.8526 29.149C45.3808 29.4663 44.9089 29.7641 44.4382 30.0415V29.5123H30.4086V29.5697C30.1221 28.9556 29.9317 28.2709 29.8345 27.5309C29.6411 26.051 29.8212 24.3459 30.3421 22.5252C31.385 18.8827 33.7963 14.7756 37.3292 11.0646C40.8612 7.35456 44.8465 4.74373 48.4327 3.52275C50.2258 2.91277 51.9196 2.64872 53.4077 2.76948C54.1518 2.82987 54.8446 2.98543 55.472 3.24232H54.8692V20.1477H54.8712C54.5396 20.6339 54.1876 21.118 53.8181 21.6C53.0792 22.5641 52.2655 23.5159 51.3833 24.4442H51.3843Z"
                fill="#195494" />
            <path
                d="M51.3387 24.4708C49.5814 26.3161 47.7126 27.8881 45.8366 29.1511C45.3679 29.4663 44.8981 29.7631 44.4304 30.0394V29.5124H30.4735V29.5697C30.188 28.9587 29.9987 28.2781 29.9024 27.5412C29.71 26.0684 29.8891 24.3726 30.408 22.5611C31.4458 18.938 33.8448 14.8514 37.3583 11.1608C40.8718 7.47023 44.8357 4.87271 48.4034 3.65889C50.1873 3.05198 51.8719 2.78998 53.3528 2.90972C54.0928 2.97011 54.7816 3.12465 55.4069 3.38051H54.8706V18.7456H55.7426C54.5738 20.682 53.096 22.6255 51.3387 24.4719V24.4708Z"
                fill="#195595" />
            <path
                d="M51.2931 24.4974C49.5451 26.3335 47.6854 27.8974 45.8197 29.1531C45.353 29.4673 44.8863 29.7621 44.4206 30.0364V29.5124H30.5375V29.5697C30.2529 28.9618 30.0657 28.2842 29.9694 27.5525C29.7781 26.0879 29.9561 24.4002 30.472 22.5989C31.5046 18.9943 33.8903 14.9292 37.3864 11.258C40.8815 7.58589 44.8249 5.00269 48.3742 3.79501C50.1489 3.19118 51.8253 2.9302 53.297 3.04994C54.0329 3.1093 54.7186 3.26384 55.3399 3.51766H54.8701V18.8029H55.6735C54.5108 20.7291 53.0401 22.6634 51.2931 24.4985V24.4974Z"
                fill="#1A5596" />
            <path
                d="M51.2486 24.5241C49.5097 26.3499 47.6603 27.9055 45.8038 29.1552C45.3402 29.4673 44.8755 29.7611 44.4119 30.0343V29.5124H30.6014V29.5697C30.3189 28.9648 30.1316 28.2914 30.0364 27.5627C29.8461 26.1053 30.0231 24.4279 30.5359 22.6348C31.5624 19.0496 33.9368 15.0059 37.4135 11.3532C40.8912 7.70051 44.8131 5.13164 48.343 3.92909C50.1084 3.32832 51.7756 3.06938 53.2402 3.1881C53.973 3.24747 54.6546 3.40098 55.2728 3.65378H54.8706V18.8582H55.6064C54.4499 20.7741 52.9874 22.6982 51.2486 24.5241Z"
                fill="#1A5697" />
            <path
                d="M51.202 24.5506C49.4724 26.3673 47.6322 27.9147 45.7859 29.1572C45.3243 29.4683 44.8617 29.759 44.4012 30.0312V29.5123H30.6634V29.5696C30.3819 28.9679 30.1967 28.2985 30.1015 27.5739C29.9121 26.1247 30.0882 24.4554 30.5989 22.6726C31.6203 19.1058 33.9814 15.0837 37.4407 11.4504C40.8999 7.81715 44.8013 5.26158 48.3128 4.06619C50.0691 3.46849 51.7271 3.21058 53.1845 3.32828C53.9132 3.38764 54.5907 3.54013 55.2058 3.79088H54.8701V18.9145H55.5374C54.387 20.8201 52.9317 22.734 51.2031 24.5506H51.202Z"
                fill="#1B5798" />
            <path
                d="M51.1574 24.5772C49.437 26.3836 47.6071 27.9229 45.77 29.1592C45.3104 29.4683 44.8509 29.758 44.3924 30.0292V29.5123H30.7283V29.5697C30.4489 28.9709 30.2636 28.3047 30.1695 27.5841C29.9811 26.1421 30.1561 24.4821 30.6638 22.7084C31.6801 19.1611 34.0289 15.1604 37.4687 11.5466C40.9096 7.93281 44.7895 5.39055 48.2836 4.20129C50.0306 3.60667 51.6794 3.3508 53.1286 3.46748C53.8532 3.52581 54.5277 3.67831 55.1397 3.92803H54.8705V18.9718H55.4692C54.325 20.8672 52.8778 22.7708 51.1574 24.5783V24.5772Z"
                fill="#1B5799" />
            <path
                d="M51.1119 24.6038C49.4007 26.401 47.5799 27.9321 45.7531 29.1613C45.2966 29.4683 44.8391 29.7569 44.3827 30.0261V29.5123H30.7912V29.5696C30.5128 28.974 30.3296 28.3118 30.2355 27.5944C30.0482 26.1605 30.2222 24.5087 30.7277 22.7453C31.7389 19.2164 34.0744 15.2372 37.4969 11.6428C40.9193 8.04845 44.7787 5.51949 48.2534 4.33638C49.9902 3.74482 51.6318 3.48998 53.0728 3.60666C53.7933 3.66499 54.4647 3.81647 55.0726 4.06516H54.87V19.0281H55.4001C54.2621 20.9133 52.8221 22.8067 51.1119 24.6038Z"
                fill="#1C589A" />
            <path
                d="M51.0663 24.6305C49.3643 26.4185 47.5538 27.9403 45.7361 29.1634C45.2817 29.4694 44.8273 29.7559 44.3739 30.0241V29.5124H30.8551V29.5697C30.5788 28.9771 30.3956 28.318 30.3025 27.6057C30.1162 26.179 30.2892 24.5363 30.7917 22.7821C31.7967 19.2727 34.121 15.314 37.5239 11.7391C40.928 8.16413 44.7669 5.64847 48.2231 4.47253C49.9507 3.88404 51.5831 3.63125 53.017 3.7469C53.7334 3.80523 54.4007 3.95568 55.0066 4.20233H54.8705V19.0854H55.3321C54.2001 20.9604 52.7683 22.8435 51.0663 24.6315V24.6305Z"
                fill="#1C599B" />
            <path
                d="M51.0207 24.6571C49.3279 26.4348 47.5266 27.9495 45.7192 29.1654C45.2668 29.4693 44.8155 29.7549 44.3641 30.021V29.5123H30.919V29.5696C30.6437 28.9812 30.4615 28.3251 30.3694 27.6159C30.1842 26.1974 30.3561 24.5639 30.8566 22.8179C31.8565 19.3279 34.1675 15.3907 37.5531 11.8342C40.9386 8.27873 44.7572 5.77638 48.1939 4.60657C49.9123 4.02116 51.5355 3.76939 52.9622 3.88504C53.6755 3.94235 54.3387 4.0928 54.9405 4.33843H54.8709V19.1406H55.2639C54.1381 21.0054 52.7135 22.8793 51.0217 24.6571H51.0207Z"
                fill="#1D5A9C" />
            <path
                d="M50.9751 24.6837C49.2915 26.4523 47.5005 27.9578 45.7033 29.1675C45.254 29.4694 44.8037 29.7539 44.3554 30.019V29.5124H30.983V29.5687C30.7097 28.9833 30.5285 28.3313 30.4364 27.6251C30.2522 26.2138 30.4231 24.5896 30.9205 22.8538C31.9153 19.3822 34.213 15.4665 37.5801 11.9305C40.9473 8.39341 44.7453 5.90539 48.1637 4.74172C49.8728 4.15938 51.4868 3.90863 52.9053 4.02428C53.6146 4.0816 54.2747 4.23 54.8735 4.4746H54.8714V19.197H55.1958C54.0762 21.0515 52.6597 22.9152 50.9761 24.6827L50.9751 24.6837Z"
                fill="#1D5A9D" />
            <path
                d="M50.9296 24.7103C49.2552 26.4686 47.4744 27.9669 45.6864 29.1695C45.2392 29.4704 44.7919 29.7529 44.3457 30.0159V29.5123H31.0459V29.5686C30.7737 28.9863 30.5935 28.3374 30.5025 27.6364C30.3193 26.2332 30.4892 24.6172 30.9835 22.8906C31.9721 19.4385 34.2585 15.5442 37.6073 12.0266C40.956 8.50902 44.7326 6.03533 48.1325 4.87781C49.8324 4.29955 51.4382 4.04983 52.8486 4.16343C53.5537 4.22075 54.2108 4.36812 54.8054 4.61171C55.1032 4.7335 55.3857 4.87883 55.6508 5.04872H54.8699V19.2543H55.1257C54.0122 21.0985 52.604 22.952 50.9296 24.7103Z"
                fill="#1E5B9E" />
            <path
                d="M50.885 24.7369C49.2198 26.486 47.4482 27.9752 45.6705 29.1716C45.2263 29.4704 44.7811 29.7519 44.3369 30.0129V29.5114H31.1108V29.5676C30.8406 28.9884 30.6615 28.3436 30.5704 27.6456C30.3882 26.2496 30.5571 24.6428 31.0494 22.9265C32.0329 19.4928 34.306 15.62 37.6363 12.1218C40.9667 8.62368 44.7227 6.1633 48.1042 5.01191C49.795 4.43673 51.3916 4.18803 52.7947 4.30164C53.4958 4.35793 54.1488 4.5053 54.7413 4.74786C55.0371 4.86863 55.3175 5.01294 55.5816 5.18181H54.8723V19.3085H55.0606C53.9533 21.1436 52.5522 22.9858 50.887 24.7349L50.885 24.7369Z"
                fill="#1E5C9E" />
            <path
                d="M50.8384 24.7635C49.1825 26.5024 47.4211 27.9843 45.6526 29.1736C45.2105 29.4714 44.7683 29.7498 44.3272 30.0108V29.5123H31.1738V29.5686C30.9046 28.9924 30.7266 28.3507 30.6355 27.6568C30.4543 26.269 30.6222 24.6704 31.1114 22.9633C32.0898 19.549 34.3506 15.6967 37.6625 12.219C40.9744 8.74032 44.71 6.29324 48.0721 5.148C49.7536 4.57589 51.341 4.32923 52.7359 4.44181C53.4339 4.4981 54.0828 4.64446 54.6713 4.88497C54.966 5.00471 55.2444 5.14902 55.5074 5.31687H54.8688V19.3658H54.9886C53.8873 21.1906 52.4944 23.0226 50.8384 24.7625V24.7635Z"
                fill="#1E5C9F" />
            <path
                d="M50.7939 24.7901C49.1471 26.5198 47.395 27.9936 45.6367 29.1767C45.1966 29.4725 44.7575 29.7498 44.3185 30.0087V29.5124H31.2377V29.5687C30.9706 28.9955 30.7925 28.3579 30.7024 27.6681C30.5223 26.2885 30.6891 24.6991 31.1763 23.0012C32.1486 19.6053 34.3971 15.7756 37.6906 12.3163C40.9841 8.85701 44.6992 6.42324 48.0428 5.28516C49.7152 4.71612 51.2943 4.47049 52.6811 4.58307C53.375 4.63936 54.0208 4.78469 54.6062 5.02418C54.8989 5.14392 55.1763 5.28721 55.4373 5.45403H54.8703V19.4252H54.9215C53.8264 21.2398 52.4406 23.0615 50.7939 24.7912V24.7901Z"
                fill="#1F5DA0" />
            <path
                d="M50.7483 24.8168C49.1108 26.5372 47.3689 28.0018 45.6198 29.1787C45.1828 29.4725 44.7447 29.7488 44.3087 30.0067V29.5134H31.3016V29.5697C31.0355 28.9996 30.8595 28.3661 30.7694 27.6794C30.5903 26.3069 30.7561 24.7267 31.2402 23.038C32.2074 19.6616 34.4436 15.8523 37.7187 12.4125C40.9938 8.97268 44.6874 6.55221 48.0126 5.42027C49.6747 4.8543 51.2457 4.61072 52.6253 4.72227C53.3151 4.77856 53.9568 4.92287 54.5392 5.16031C54.8298 5.27903 55.1062 5.42129 55.3661 5.58709H54.8708V18.1305H55.6158C55.3804 18.5788 55.1256 19.0291 54.8534 19.4805C53.7644 21.2848 52.3868 23.0974 50.7493 24.8168H50.7483Z"
                fill="#1F5DA1" />
            <path
                d="M50.7026 24.8434C49.0743 26.5536 47.3416 28.011 45.6027 29.1808C45.1678 29.4735 44.7328 29.7478 44.2989 30.0036V29.5124H31.3644V29.5687C31.0994 29.0017 30.9244 28.3712 30.8353 27.6896C30.6572 26.3253 30.823 24.7533 31.303 23.0748C32.2651 19.7169 34.488 15.9301 37.7447 12.5087C41.0013 9.08832 44.6745 6.68115 47.9812 5.55535C49.6341 4.99245 51.1959 4.7499 52.5684 4.86145C53.2541 4.91672 53.8927 5.06103 54.472 5.29744C54.7616 5.41616 55.0359 5.5574 55.2938 5.72218H54.8691V18.195H55.5415C55.3071 18.6412 55.0543 19.0895 54.7831 19.5378C53.7003 21.3319 52.3299 23.1342 50.7016 24.8444L50.7026 24.8434Z"
                fill="#205EA2" />
            <path
                d="M50.658 24.8689C49.0389 26.5699 47.3165 28.0181 45.5868 29.1818C45.1549 29.4724 44.722 29.7457 44.2901 30.0005V29.5123H31.4284V29.5686C31.1653 29.0057 30.9913 28.3783 30.9023 27.6998C30.7252 26.3427 30.89 24.7799 31.368 23.1106C32.3239 19.7721 34.5345 16.0058 37.7727 12.6049C41.011 9.20393 44.6637 6.81007 47.952 5.69144C49.5957 5.13161 51.1483 4.8911 52.5125 5.00061C53.1942 5.05587 53.8297 5.19916 54.4049 5.43455C54.6925 5.55225 54.9657 5.69246 55.2226 5.85724H54.8695V18.2595H55.4693C55.2359 18.7026 54.9852 19.1488 54.715 19.594C53.6383 21.3779 52.2761 23.17 50.657 24.871L50.658 24.8689Z"
                fill="#205FA3" />
            <path
                d="M50.6114 24.8956C49.0015 26.5863 47.2882 28.0273 45.5698 29.1838C45.14 29.4735 44.7101 29.7447 44.2813 29.9975V29.5113H31.4933V29.5676C31.2313 29.0078 31.0583 28.3835 30.9703 27.709C30.7942 26.3601 30.958 24.8055 31.4329 23.1455C32.3837 19.8254 34.582 16.0816 37.8018 12.6991C41.0216 9.31654 44.6539 6.93803 47.9228 5.82451C49.5572 5.26775 51.1016 5.02826 52.4577 5.13777C53.1362 5.19304 53.7667 5.3353 54.3398 5.56865C54.6264 5.68532 54.8976 5.82553 55.1524 5.98826H54.871V18.3199H55.3981C55.1658 18.761 54.916 19.2041 54.6489 19.6473C53.5784 21.4209 52.2233 23.2028 50.6134 24.8935L50.6114 24.8956Z"
                fill="#205FA4" />
            <path
                d="M50.5668 24.9222C48.9661 26.6037 47.2631 28.0355 45.5539 29.1859C45.1261 29.4735 44.6993 29.7437 44.2726 29.9954V29.5124H31.5572V29.5676C31.2972 29.0109 31.1253 28.3907 31.0373 27.7203C30.8622 26.3785 31.025 24.8342 31.4978 23.1833C32.4435 19.8827 34.6286 16.1594 37.8299 12.7963C41.0313 9.43321 44.6431 7.06801 47.8935 5.96063C49.5188 5.40695 51.054 5.16848 52.4029 5.27799C53.0773 5.33223 53.7047 5.47449 54.2738 5.70682C54.5583 5.82349 54.8285 5.96166 55.0823 6.12439H54.8715V18.3864H55.3259C55.0956 18.8244 54.8469 19.2655 54.5808 19.7066C53.5164 21.4701 52.1695 23.2417 50.5688 24.9232L50.5668 24.9222Z"
                fill="#2160A4" />
            <path
                d="M50.5213 24.9488C48.9298 26.6201 47.236 28.0447 45.5371 29.1879C45.1123 29.4735 44.6866 29.7426 44.2629 29.9924V29.5114H31.6201V29.5666C31.3612 29.0129 31.1903 28.3968 31.1033 27.7295C30.9293 26.396 31.091 24.8597 31.5608 23.2181C32.5013 19.9359 34.6741 16.2341 37.8571 12.8905C44.2229 6.20321 52.2192 3.48184 55.7163 6.81114H54.8699V18.4488H55.2517C55.0224 18.8848 54.7758 19.3229 54.5107 19.7609C53.4524 21.5141 52.1127 23.2754 50.5213 24.9478V24.9488Z"
                fill="#2160A5" />
            <path
                d="M50.4757 24.9754C48.8934 26.6374 47.2098 28.0529 45.5201 29.1899C45.0974 29.4745 44.6747 29.7406 44.2531 29.9903V29.5123H31.684V29.5676C31.4271 29.017 31.2562 28.4039 31.1703 27.7407C30.9973 26.4143 31.158 24.8873 31.6257 23.256C32.5601 19.9932 34.7206 16.3128 37.8851 12.9887C44.2142 6.3403 52.1644 3.63429 55.6411 6.94414H54.8704V18.5143H55.1795C54.9512 18.9472 54.7056 19.3832 54.4426 19.8192C53.3905 21.5632 52.059 23.3143 50.4767 24.9764L50.4757 24.9754Z"
                fill="#2161A6" />
            <path
                d="M50.4301 25.002C48.8571 26.6549 47.1827 28.0621 45.5032 29.192C45.0836 29.4745 44.663 29.7396 44.2434 29.9872V29.5113H31.747V29.5666C31.4911 29.0191 31.3223 28.4101 31.2363 27.751C31.0643 26.4328 31.224 24.914 31.6886 23.2918C32.6179 20.0475 34.7662 16.3886 37.9123 13.0839C44.2045 6.47441 52.1086 3.78375 55.5648 7.07416H54.8699V17.2913H55.7316C55.3509 18.1418 54.8965 19.0066 54.3735 19.8735C53.3275 21.6072 52.0032 23.3481 50.4301 25V25.002Z"
                fill="#2261A7" />
            <path
                d="M50.3855 25.0286C48.8217 26.6712 47.1576 28.0703 45.4873 29.1941C45.0697 29.4745 44.6522 29.7385 44.2356 29.9842V29.5113H31.8119V29.5666C31.5581 29.0221 31.3892 28.4162 31.3043 27.7612C31.1333 26.4502 31.292 24.9406 31.7536 23.3286C32.6777 20.1037 34.8127 16.4664 37.9403 13.1801C44.1967 6.60847 52.0538 3.93419 55.4895 7.20617H54.8693V17.364H55.6543C55.2756 18.2104 54.8243 19.0701 54.3043 19.9308C53.2645 21.6543 51.9484 23.3849 50.3845 25.0276L50.3855 25.0286Z"
                fill="#2262A7" />
            <path
                d="M50.339 25.0552C48.7843 26.6886 47.1294 28.0795 45.4694 29.1961C45.0538 29.4755 44.6393 29.7375 44.2248 29.9821V29.5113H31.8748V29.5666C31.622 29.0252 31.4552 28.4234 31.3703 27.7714C31.2004 26.4686 31.358 24.9682 31.8175 23.3645C32.7356 20.158 34.8582 16.5421 37.9685 13.2763C44.188 6.74356 51.999 4.08463 55.4153 7.33716H54.8708V17.4356H55.5801C55.2034 18.2769 54.7552 19.1314 54.2373 19.9881C53.2036 21.7013 51.8946 23.4218 50.34 25.0552H50.339Z"
                fill="#2262A8" />
            <path
                d="M50.2945 25.0818C48.749 26.705 47.1043 28.0877 45.4535 29.1981C45.0411 29.4755 44.6276 29.7365 44.2162 29.979V29.5113H31.9388V29.5666C31.6881 29.0293 31.5212 28.4306 31.4363 27.7827C31.2674 26.487 31.424 24.9958 31.8805 23.4023C32.7934 20.2153 34.9037 16.6199 37.9946 13.3735C44.1773 6.87968 51.9422 4.2361 55.338 7.46919H54.8693V17.5072H55.5018C55.1272 18.3434 54.681 19.1929 54.1672 20.0444C53.1386 21.7474 51.8388 23.4576 50.2934 25.0808L50.2945 25.0818Z"
                fill="#2363A9" />
            <path
                d="M50.2489 25.1084C48.7126 26.7224 47.0782 28.0969 45.4376 29.2012C45.0272 29.4775 44.6168 29.7365 44.2074 29.978V29.5123H32.0027V29.5676C31.753 29.0334 31.5882 28.4377 31.5033 27.794C31.3354 26.5065 31.491 25.0235 31.9454 23.4392C32.8532 20.2705 34.9503 16.6977 38.0237 13.4697C44.1695 7.01477 51.8884 4.38654 55.2638 7.60121H54.8697V17.5799H55.4255C55.0529 18.4109 54.6098 19.2553 54.0991 20.1017C53.0767 21.7945 51.784 23.4944 50.2478 25.1084H50.2489Z"
                fill="#2363A9" />
            <path
                d="M50.2033 25.135C48.6763 26.7388 47.051 28.1051 45.4207 29.2033C45.0133 29.4775 44.605 29.7355 44.1976 29.9749V29.5123H32.0666V29.5676C31.8179 29.0364 31.6542 28.4449 31.5703 27.8052C31.4034 26.5249 31.558 25.0511 32.0093 23.477C32.911 20.3279 34.9968 16.7755 38.0508 13.5669C44.1598 7.14987 51.8326 4.53801 55.1875 7.73324H54.8692V17.6526H55.3492C54.9787 18.4785 54.5386 19.3177 54.031 20.159C53.0147 21.8416 51.7303 23.5323 50.2033 25.136V25.135Z"
                fill="#2364AA" />
            <path
                d="M50.1577 25.1617C48.64 26.7562 47.0249 28.1143 45.4038 29.2053C44.9985 29.4776 44.5932 29.7345 44.1879 29.9729V29.5124H32.1296V29.5666C31.8829 29.0385 31.7192 28.4511 31.6363 27.8145C31.4705 26.5423 31.624 25.0767 32.0723 23.5119C32.9688 20.3811 35.0413 16.8512 38.0779 13.6621C44.1501 7.28398 51.7768 4.68747 55.1123 7.86325H54.8697V17.7232H55.273C54.9055 18.544 54.4675 19.3792 53.9619 20.2153C52.9518 21.8876 51.6755 23.5682 50.1567 25.1627L50.1577 25.1617Z"
                fill="#2464AB" />
            <path
                d="M50.1121 25.1882C48.6036 26.7736 46.9978 28.1235 45.3869 29.2073C44.9836 29.4786 44.5814 29.7324 44.1792 29.9698V29.5123H32.1935V29.5666C31.9479 29.0415 31.7862 28.4571 31.7033 27.8247C31.5385 26.5597 31.691 25.1043 32.1372 23.5476C33.0286 20.4363 35.0889 16.9269 38.106 13.7573C44.1413 7.418 51.721 4.83787 55.037 7.99318H54.8702V17.7928H55.1977C54.8323 18.6084 54.3963 19.4385 53.8948 20.2695C52.8908 21.9316 51.6217 23.6019 50.1132 25.1862L50.1121 25.1882Z"
                fill="#2465AB" />
            <path
                d="M50.0674 25.2148C48.568 26.7899 46.9725 28.1317 45.3708 29.2094C44.9706 29.4786 44.5694 29.7314 44.1702 29.9678V29.5123H32.2583V29.5666C32.0147 29.0446 31.853 28.4643 31.7711 27.8359C31.6073 26.5791 31.7598 25.132 32.202 23.5855C33.0873 20.4926 35.1352 17.0047 38.1349 13.8545C44.1334 7.55412 51.667 4.98935 54.9626 8.12624H54.8705V17.8665H55.1212C54.7579 18.678 54.325 19.5019 53.8265 20.3279C52.8287 21.9797 51.5678 23.6398 50.0674 25.2148Z"
                fill="#2465AC" />
            <path
                d="M50.0218 25.2415C48.5317 26.8074 46.9453 28.1409 45.3539 29.2115C44.9557 29.4796 44.5576 29.7304 44.1605 29.9647V29.5124H32.3212V29.5666C32.0786 29.0477 31.919 28.4705 31.8371 27.8462C31.6744 26.5965 31.8258 25.1586 32.2659 23.6214C33.1461 20.5479 35.1817 17.0815 38.162 13.9497C44.1237 7.68721 51.6113 5.13881 54.8863 8.25625H54.8699V17.9371H55.0439C54.6826 18.7436 54.2528 19.5623 53.7574 20.3832C52.7657 22.0258 51.512 23.6746 50.0218 25.2405V25.2415Z"
                fill="#2465AC" />
            <path
                d="M49.9763 25.2681C48.4954 26.8237 46.9192 28.1491 45.337 29.2135C44.9419 29.4796 44.5459 29.7293 44.1508 29.9626V29.5133H32.3841V29.5676C32.1436 29.0518 31.984 28.4786 31.9031 27.8574C31.7414 26.616 31.8919 25.1862 32.3289 23.6592C33.2039 20.6042 35.2263 17.1592 38.1892 14.0479C44.114 7.82431 51.5555 5.29126 54.8111 8.38926C55.0148 8.58269 55.1969 8.79352 55.3586 9.02073H54.8705V18.0097H54.9687C54.6095 18.8111 54.1827 19.6247 53.6894 20.4415C52.7038 22.0739 51.4583 23.7124 49.9763 25.2691V25.2681Z"
                fill="#2566AD" />
            <path
                d="M49.9307 25.2947C48.459 26.8411 46.8921 28.1583 45.32 29.2156C44.927 29.4796 44.534 29.7283 44.141 29.9596V29.5124H32.4481V29.5666C32.2086 29.0549 32.051 28.4848 31.9701 27.8677C31.8094 26.6344 31.9588 25.2128 32.3938 23.695C33.2638 20.6595 35.2728 17.236 38.2173 14.1432C44.1052 7.95842 51.5007 5.44072 54.7358 8.52029C55.1401 8.90511 55.4604 9.35953 55.6999 9.87125H54.8709V18.0814H54.8924C54.5352 18.8777 54.1105 19.6872 53.6213 20.4978C52.6418 22.12 51.4035 23.7493 49.9317 25.2947H49.9307Z"
                fill="#2566AD" />
            <path
                d="M49.8855 25.3213C48.423 26.8575 46.8663 28.1665 45.3045 29.2176C44.9136 29.4806 44.5236 29.7273 44.1337 29.9576V29.5134H32.5134V29.5676C32.276 29.059 32.1183 28.492 32.0385 27.8789C31.8778 26.6528 32.0273 25.2415 32.4592 23.7329C33.323 20.7158 35.3207 17.3138 38.2468 14.2404C44.0979 8.09352 51.4473 5.5922 54.662 8.65232C55.0642 9.03509 55.3815 9.48644 55.6199 9.99509H54.8718V15.8298H55.6742C54.8104 18.8469 52.8126 22.2489 49.8865 25.3223L49.8855 25.3213Z"
                fill="#2567AE" />
            <path
                d="M49.84 25.3479C48.3867 26.8749 46.8392 28.1757 45.2877 29.2196C44.8998 29.4806 44.5109 29.7263 44.124 29.9545V29.5124H32.5764V29.5666C32.3399 29.061 32.1833 28.4981 32.1045 27.8892C31.9449 26.6712 32.0933 25.2681 32.5221 23.7687C33.3808 20.771 35.3653 17.3895 38.2729 14.3366C44.0871 8.2286 51.3905 5.74263 54.5847 8.78332C54.9839 9.16302 55.3001 9.61231 55.5365 10.1179H54.8703V15.9158H55.5908C54.7321 18.9135 52.7476 22.295 49.84 25.3479Z"
                fill="#2567AE" />
            <path
                d="M49.7954 25.3735C48.3513 26.8913 46.814 28.1829 45.2717 29.2207C44.8858 29.4806 44.5 29.7232 44.1152 29.9504V29.5114H32.6412V29.5646C32.4069 29.0621 32.2513 28.5022 32.1725 27.8974C32.0139 26.6866 32.1612 25.2927 32.588 23.8035C33.4416 20.8253 35.4138 17.4653 38.302 14.4308C44.0804 8.36167 51.3367 5.89105 54.5104 8.91331C54.9075 9.29097 55.2217 9.73617 55.4561 10.2397H54.8707V16.0007H55.5093C54.6557 18.979 52.6835 22.339 49.7954 25.3735Z"
                fill="#2567AF" />
            <path
                d="M49.7489 25.4001C48.314 26.9077 46.786 28.1921 45.2539 29.2227C44.8711 29.4806 44.4873 29.7222 44.1045 29.9483V29.5113H32.7033V29.5646C32.4699 29.0651 32.3154 28.5094 32.2366 27.9076C32.079 26.705 32.2253 25.3193 32.649 23.8393C33.4964 20.8795 35.4564 17.541 38.3271 14.5259C44.0687 8.49572 51.279 6.04045 54.4332 9.04327C54.8273 9.41888 55.1394 9.86101 55.3728 10.3605H54.8692V16.0857H55.426C54.5786 19.0455 52.6187 22.384 49.7479 25.3991L49.7489 25.4001Z"
                fill="#2667AF" />
            <path
                d="M49.7033 25.4267C48.2777 26.9251 46.7599 28.2003 45.237 29.2248C44.8563 29.4806 44.4755 29.7211 44.0948 29.9453V29.5113H32.7662V29.5646C32.5349 29.0682 32.3814 28.5165 32.3026 27.9188C32.146 26.7234 32.2913 25.3469 32.713 23.8772C33.5553 20.9368 35.5029 17.6198 38.3543 14.6231C44.059 8.63082 51.2232 6.19193 54.357 9.1753C54.749 9.54784 55.0591 9.98792 55.2904 10.4843H54.8677V16.1727H55.3436C54.5013 19.113 52.5537 22.4301 49.7023 25.4267H49.7033Z"
                fill="#2668AF" />
            <path
                d="M49.6587 25.4533C48.2422 26.9414 46.7347 28.2095 45.221 29.2278C44.8423 29.4827 44.4636 29.7211 44.087 29.9443V29.5124H32.8321V29.5656C32.6018 29.0723 32.4493 28.5237 32.3715 27.9301C32.216 26.7429 32.3603 25.3745 32.7789 23.9141C33.616 20.9921 35.5504 17.6966 38.3843 14.7204C44.0522 8.76694 51.1703 6.3434 54.2837 9.30835C55.0625 10.0493 55.5159 11.0574 55.6715 12.2446H54.8701V16.2607H55.2641C54.427 19.1826 52.4926 22.4782 49.6587 25.4544V25.4533Z"
                fill="#2668B0" />
            <path
                d="M49.6132 25.48C48.2059 26.9589 46.7076 28.2177 45.2041 29.2299C44.8285 29.4827 44.4519 29.7201 44.0773 29.9412V29.5124H32.895V29.5656C32.6658 29.0754 32.5153 28.5309 32.4376 27.9403C32.283 26.7603 32.4263 25.4022 32.8418 23.9499C33.6729 21.0474 35.5949 17.7723 38.4104 14.8156C44.0415 8.90103 51.1135 6.49387 54.2064 9.43834C54.9802 10.1742 55.4315 11.1751 55.585 12.3552H54.8686V16.3456H55.1808C54.3497 19.2481 52.4277 22.5232 49.6121 25.48H49.6132Z"
                fill="#2668B0" />
            <path
                d="M49.5676 25.5066C48.1696 26.9752 46.6815 28.2269 45.1872 29.232C44.8137 29.4827 44.4401 29.7191 44.0676 29.9392V29.5124H32.958V29.5656C32.7308 29.0795 32.5803 28.537 32.5036 27.9516C32.35 26.7798 32.4923 25.4298 32.9058 23.9878C33.7317 21.1037 35.6415 17.8511 38.4386 14.9128C44.0328 9.03715 51.0588 6.64534 54.1322 9.57037C54.9008 10.3021 55.3491 11.2959 55.5016 12.4688H54.8691V16.4326H55.0994C54.2734 19.3167 52.3637 22.5693 49.5666 25.5076L49.5676 25.5066Z"
                fill="#2668B0" />
            <path
                d="M49.5308 25.4718C48.1409 26.9312 46.6631 28.1737 45.1801 29.1726C44.8096 29.4223 44.4381 29.6567 44.0676 29.8747V29.5124H33.4277V30.1868C33.2763 29.9739 33.1442 29.7457 33.0317 29.5042C32.8055 29.0211 32.6561 28.4828 32.5803 27.9004C32.4278 26.7357 32.5691 25.395 32.9795 23.9622C33.8003 21.0975 35.6967 17.8655 38.4754 14.9466C44.0328 9.10878 51.0127 6.73334 54.0657 9.63893C54.8292 10.3656 55.2744 11.3532 55.4269 12.5179H54.8701V16.4562H55.0277C54.2069 19.3208 52.3105 22.5529 49.5318 25.4718H49.5308Z"
                fill="#2668B0" />
            <path
                d="M48.752 26.0326C47.5167 27.3293 46.2025 28.4347 44.8843 29.322C44.5548 29.5441 44.2242 29.7519 43.8957 29.9463V29.5124H34.0859V29.6168C33.8853 29.1869 33.7522 28.709 33.6847 28.1911C33.5496 27.1564 33.6755 25.9641 34.0398 24.6909C34.7695 22.1445 36.4552 19.2717 38.9258 16.6772C43.866 11.4883 50.0702 9.37591 52.7834 11.9601C55.4965 14.5433 53.6922 20.8447 48.752 26.0326Z"
                fill="#286AB2" />
            <path
                d="M47.9728 26.5934C46.892 27.7285 45.7427 28.6956 44.5882 29.4714C44.2996 29.6659 44.011 29.848 43.7234 30.0179V29.5123H35.1397V29.7293C34.9637 29.3537 34.848 28.9351 34.7887 28.4817C34.6699 27.576 34.7805 26.5331 35.0998 25.4185C35.7384 23.1905 37.2132 20.6769 39.3748 18.4068C43.6968 13.8668 49.1262 12.0184 51.5006 14.2792C53.8751 16.5401 52.2959 22.0524 47.9738 26.5934H47.9728Z"
                fill="#296BB3" />
            <path
                d="M47.1931 27.1543C46.2669 28.1276 45.2813 28.9556 44.2927 29.6219V29.5123H36.1941V29.8429C36.0436 29.5205 35.9444 29.1623 35.8932 28.7734C35.7919 27.9966 35.886 27.1031 36.1593 26.1482C36.7068 24.2385 37.9708 22.0841 39.8233 20.1385C43.5282 16.2474 48.1818 14.663 50.2164 16.6004C52.2521 18.5378 50.8981 23.2631 47.1931 27.1553V27.1543Z"
                fill="#2A6CB4" />
            <path
                d="M46.414 27.7151C45.6423 28.5257 44.8205 29.2165 43.9966 29.7713V29.5123H37.2469V29.9555C37.1211 29.6873 37.0382 29.3885 36.9962 29.0641C36.9112 28.4172 36.9901 27.6722 37.2183 26.8759C37.6737 25.2844 38.7279 23.4893 40.2723 21.8671C43.36 18.6238 47.2379 17.3035 48.9338 18.9185C50.6296 20.5336 49.5018 24.4708 46.414 27.7141V27.7151Z"
                fill="#2C6EB6" />
            <path
                d="M45.6344 28.276C45.0173 28.9249 44.3602 29.4776 43.7001 29.9207V29.5114H38.3003V30.0671C38.2 29.8522 38.1335 29.6127 38.0998 29.3548C38.0322 28.8369 38.0946 28.2412 38.2768 27.6047C38.6412 26.3315 39.4845 24.8956 40.7198 23.5978C43.1894 21.0034 46.2915 19.9472 47.6486 21.2388C49.0057 22.5304 48.103 25.6806 45.6334 28.275L45.6344 28.276Z"
                fill="#2D6FB7" />
            <path
                d="M44.8552 28.8369C44.3916 29.323 43.8993 29.7375 43.405 30.0701V29.5113H39.2047V29.6454C39.1535 29.2575 39.2006 28.8103 39.3378 28.3323C39.611 27.3774 40.2435 26.2997 41.1697 25.3274C43.0222 23.3819 45.3485 22.5897 46.3668 23.5579C47.3842 24.5271 46.7077 26.8892 44.8552 28.8348V28.8369Z"
                fill="#2E70B8" />
            <path
                d="M44.0764 29.3977C43.7673 29.7222 43.4388 29.9985 43.1092 30.2206V29.5124H40.3091V29.9381C40.2753 29.6792 40.307 29.3814 40.3981 29.0631C40.5803 28.4265 41.002 27.708 41.6191 27.0602C42.8544 25.7634 44.4049 25.2353 45.0835 25.8811C45.762 26.5269 45.3107 28.102 44.0754 29.3998L44.0764 29.3977Z"
                fill="#2E70B8" />
        </g>
        <mask id="mask1_485_3513" style="mask-type:luminance" maskUnits="userSpaceOnUse" x="0" y="0"
            width="42" height="27">
            <path
                d="M26.4274 20.8478L41.3524 5.30971C40.0976 6.60541 32.1045 14.7388 26.4171 14.746C20.7953 14.7531 16.0557 9.98178 15.7364 9.64916L8.90378 2.49317C5.9112 -0.733782 2.96877 -0.499411 1.44791 3.50741C-0.820061 9.48131 -0.55294 17.7928 4.41184 22.7709C10.7071 29.0846 19.4003 27.7029 26.3977 20.8785L26.411 20.8652C26.4171 20.8591 26.4233 20.8539 26.4294 20.8478H26.4274Z"
                fill="white" />
        </mask>
        <g mask="url(#mask1_485_3513)">
            <path d="M41.3532 -0.733765H-0.820312V29.0846H41.3532V-0.733765Z" fill="#999933" />
            <path
                d="M26.006 21.3073C19.3975 28.2484 8.41382 28.5186 1.47275 21.9101C0.604865 21.0842 -0.158631 20.1897 -0.816712 19.243C-1.14626 18.7702 -1.44921 18.284 -1.72656 17.7866H-0.944644V0.152498H-1.28648C-0.980464 -0.336714 -0.647842 -0.813644 -0.288609 -1.27625V-0.858676H27.1788V-1.25885C27.3569 -1.02857 27.5278 -0.795222 27.6926 -0.558804C28.3517 0.387891 28.9054 1.38576 29.3547 2.41945C30.2533 4.48683 30.7313 6.69646 30.7855 8.91633C30.895 13.3561 29.3097 17.8368 26.006 21.3083V21.3073Z"
                fill="#999933" />
            <path
                d="M25.904 21.2111C19.3488 28.0969 8.45309 28.364 1.56729 21.8088C0.706562 20.989 -0.0507944 20.1017 -0.703758 19.1632C-1.03024 18.6934 -1.33114 18.2114 -1.60645 17.7181H-0.945293V0.226201H-1.16943C-0.866488 -0.258917 -0.535912 -0.731753 -0.17975 -1.19128V-0.858662H27.0677V-1.17389C27.2437 -0.945655 27.4136 -0.714355 27.5773 -0.479984C28.2313 0.458524 28.7809 1.44923 29.2261 2.47473C30.1176 4.52573 30.5914 6.71695 30.6457 8.91942C30.7542 13.3233 29.1821 17.7692 25.904 21.2121V21.2111Z"
                fill="#9B9B31" />
            <path
                d="M25.804 21.1159C19.302 27.9454 8.49333 28.2115 1.66382 21.7095C0.810256 20.8969 0.0590408 20.0167 -0.589829 19.0854C-0.914264 18.6197 -1.21209 18.1418 -1.48535 17.6526H-0.945991V0.299902H-1.05141C-0.750511 -0.181122 -0.423006 -0.650886 -0.0699143 -1.10632V-0.858648H26.9585V-1.08892C27.1335 -0.862741 27.3024 -0.633488 27.4641 -0.40014C28.1119 0.531203 28.6574 1.51372 29.0996 2.53001C29.9838 4.56464 30.4536 6.73845 30.5078 8.9225C30.6153 13.2906 29.0555 17.7007 25.8051 21.1159H25.804Z"
                fill="#9D9E2F" />
            <path
                d="M25.7031 21.0197C19.2533 27.794 8.53367 28.058 1.75943 21.6082C0.913028 20.8017 0.167953 19.9287 -0.4758 19.0056C-0.797164 18.544 -1.09294 18.0691 -1.36313 17.584H-0.945565V1.83713H-1.75C-1.50335 1.33973 -1.23111 0.85052 -0.933284 0.373591C-0.635459 -0.103339 -0.309999 -0.569009 0.0400219 -1.02138V-0.858647H26.308V-1.66718C26.6805 -1.23323 27.0275 -0.783935 27.3488 -0.321334C27.9916 0.601822 28.533 1.57615 28.971 2.58528C29.8471 4.60353 30.3138 6.75892 30.367 8.92557C30.4735 13.2589 28.927 17.6321 25.7021 21.0197H25.7031Z"
                fill="#9FA02D" />
            <path
                d="M25.602 20.9235C19.2054 27.6425 8.57377 27.9035 1.85479 21.5069C1.01453 20.7076 0.2756 19.8417 -0.362012 18.9257C-0.681329 18.4672 -0.974036 17.9974 -1.24218 17.5164H-0.94538V1.89852H-1.62598C-1.38137 1.40521 -1.1122 0.920093 -0.815401 0.447257C-0.519623 -0.025579 -0.197236 -0.487156 0.149715 -0.936452V-0.85867H26.2028V-1.57611C26.5722 -1.14524 26.9161 -0.700035 27.2354 -0.241527C27.873 0.674464 28.4093 1.6406 28.8443 2.64154C29.7132 4.6424 30.1768 6.78141 30.229 8.92965C30.3344 13.2271 28.8013 17.5645 25.603 20.9245L25.602 20.9235Z"
                fill="#A1A22B" />
            <path
                d="M25.5018 20.8283C19.1585 27.4921 8.61382 27.751 1.95113 21.4076C1.11804 20.6144 0.385249 19.7558 -0.247245 18.848C-0.563493 18.3935 -0.854155 17.9268 -1.12025 17.4499H-0.945242V1.95994H-1.50098C-1.25842 1.47073 -0.991297 0.989707 -0.697566 0.520965C-0.403835 0.0522228 -0.0845169 -0.406285 0.260387 -0.851488C0.433351 -1.07358 0.611433 -1.2926 0.796678 -1.50854V-0.858651H26.0975V-1.48603C26.4639 -1.05822 26.8047 -0.617115 27.1209 -0.162702C27.7534 0.746125 28.2856 1.70408 28.7165 2.69683C29.5783 4.68131 30.0378 6.80293 30.09 8.93376C30.1944 13.1954 28.6735 17.497 25.5018 20.8294V20.8283Z"
                fill="#A3A42A" />
            <path
                d="M25.4006 20.7322C19.1104 27.3396 8.65382 27.5965 2.0464 21.3063C0.394542 19.7333 -0.860213 17.9003 -1.71582 15.9322H-0.946182V2.02137H-1.37706C-1.13655 1.53626 -0.871471 1.05933 -0.58081 0.593654C-0.290149 0.127982 0.0271214 -0.325408 0.368955 -0.766517C0.539872 -0.98656 0.716929 -1.20456 0.901151 -1.41846V-0.85965H25.9901V-1.39696C26.3534 -0.973254 26.6922 -0.535216 27.0054 -0.0848964C27.6327 0.815743 28.1598 1.76653 28.5876 2.75007C29.4422 4.71817 29.8977 6.82137 29.9499 8.9348C30.0532 13.1606 28.5457 17.4274 25.3996 20.7311L25.4006 20.7322Z"
                fill="#A4A628" />
            <path
                d="M25.3003 20.6359C19.0623 27.1881 8.69475 27.4429 2.1426 21.205C0.505073 19.6452 -0.739447 17.8276 -1.58789 15.8769H-0.946184V2.0838H-1.2522C-1.01373 1.60277 -0.750705 1.12994 -0.462091 0.668358C-0.173477 0.20678 0.140723 -0.243539 0.479486 -0.680554C0.64938 -0.899573 0.825414 -1.1145 1.00759 -1.32635V-0.857613H25.8857V-1.30384C26.246 -0.883199 26.5817 -0.449254 26.8928 -0.00302792C27.5151 0.890447 28.038 1.83203 28.4617 2.8084C29.3092 4.76013 29.7605 6.84593 29.8127 8.94094C29.9161 13.132 28.4198 17.3619 25.3013 20.638L25.3003 20.6359Z"
                fill="#A6A826" />
            <path
                d="M25.2001 20.5407C19.0153 27.0376 8.73473 27.2894 2.23887 21.1047C0.614649 19.5582 -0.618613 17.7559 -1.45989 15.8216H-0.945095V3.60256H-1.75977C-1.38723 2.61595 -0.915415 1.65698 -0.343304 0.742009C-0.0567368 0.284525 0.254393 -0.161702 0.590086 -0.595646C0.757932 -0.812619 0.932943 -1.02652 1.11307 -1.23633V-0.858673H25.7804V-1.21483C26.1375 -0.798289 26.4702 -0.367415 26.7782 0.0757409C27.3943 0.961029 27.9132 1.89544 28.3339 2.86363C29.1741 4.79898 29.6214 6.86636 29.6726 8.94397C29.7749 13.0992 28.2919 17.2933 25.199 20.5418L25.2001 20.5407Z"
                fill="#A8AA25" />
            <path
                d="M25.0987 20.4445C18.9672 26.8851 8.7746 27.1359 2.334 21.0044C0.724108 19.4712 -0.499942 17.6843 -1.33303 15.7663H-0.946168V3.65171H-1.63086C-1.26139 2.67329 -0.793674 1.7225 -0.22668 0.815721C0.0568166 0.362331 0.365899 -0.0808253 0.698522 -0.510676C0.865345 -0.725601 1.03831 -0.937456 1.21741 -1.14624V-0.85865H25.6739V-1.12475C26.028 -0.711273 26.3575 -0.284493 26.6636 0.154569C27.2746 1.03269 27.7894 1.95892 28.2059 2.9179C29.039 4.83585 29.4832 6.88685 29.5333 8.94604C29.6346 13.0654 28.1639 17.2237 25.0987 20.4445Z"
                fill="#A9AC23" />
            <path
                d="M24.9983 20.3493C18.9189 26.7347 8.81539 26.9834 2.43006 20.9041C0.833475 19.3842 -0.379317 17.6126 -1.20524 15.7111H-0.945288V3.70082H-1.5C-0.76823 1.76035 0.356545 -0.0685586 1.87535 -1.66412V-0.857643H25.5693V-1.03368C25.9204 -0.624295 26.2479 -0.200585 26.5508 0.234383C27.1567 1.10534 27.6664 2.02338 28.0799 2.97417C28.9058 4.87575 29.3459 6.90833 29.396 8.95012C29.4963 13.0337 28.0389 17.1562 24.9993 20.3493H24.9983Z"
                fill="#ABAE21" />
            <path
                d="M24.8979 20.2532C18.8718 26.5832 8.85521 26.8289 2.52617 20.8028C0.943912 19.2962 -0.258646 17.54 -1.07741 15.6548H-0.945384V3.74895H-1.37012C-0.644488 1.82587 0.470053 0.012314 1.97658 -1.56995V-0.859669H25.4638V-0.944616C25.8118 -0.538304 26.1362 -0.118688 26.4361 0.312186C27.0369 1.17496 27.5425 2.08583 27.9518 3.02843C28.7706 4.91364 29.2066 6.92882 29.2567 8.95321C29.356 13.002 27.9109 17.0886 24.8979 20.2532Z"
                fill="#ADB020" />
            <path
                d="M24.7964 20.1569C18.8236 26.4307 8.89503 26.6753 2.62126 20.7024C1.0523 19.2092 -0.138998 17.4683 -0.950597 15.5995H-0.945479V3.79806H-1.24023C-0.520746 1.89136 0.583561 0.0952004 2.07678 -1.47375V-0.859682H24.8231V-1.44817C25.0073 -1.25371 25.1854 -1.05619 25.3583 -0.854566C25.7032 -0.452349 26.0246 -0.0358015 26.3224 0.390979C26.9181 1.24659 27.4185 2.14825 27.8248 3.08266C28.6364 4.95149 29.0683 6.94825 29.1185 8.95524C29.2167 12.9682 27.7849 17.019 24.7985 20.1559L24.7964 20.1569Z"
                fill="#AEB21E" />
            <path
                d="M24.6969 20.0618C18.7772 26.2803 8.93672 26.5218 2.71821 20.6022C1.16359 19.1222 -0.0174798 17.3967 -0.821915 15.5453C-1.22413 14.6191 -1.53219 13.6611 -1.74609 12.6868H-0.944729V3.84925H-1.10951C-0.397181 1.95995 0.697914 0.179139 2.17783 -1.37549V-0.856596H24.7225V-1.34888C24.9047 -1.15647 25.0817 -0.959966 25.2526 -0.761416C25.5945 -0.362269 25.9128 0.0491606 26.2085 0.473894C26.7991 1.32131 27.2954 2.21581 27.6977 3.14204C28.5021 4.99449 28.9309 6.97385 28.979 8.96242C29.0773 12.9396 27.6567 16.9546 24.6969 20.0638V20.0618Z"
                fill="#B0B41D" />
            <path
                d="M24.5962 19.9656C18.7288 26.1288 8.97626 26.3683 2.81404 20.5009C1.27374 19.0343 0.10291 17.3241 -0.69436 15.489C-1.09351 14.571 -1.3985 13.6222 -1.61035 12.6561H-0.944084V3.89737H-0.978881C-0.272697 2.02445 0.812164 0.260011 2.2798 -1.28131V-0.858624H24.6228V-1.25572C24.804 -1.06536 24.979 -0.870906 25.1489 -0.673379C25.4876 -0.278326 25.8039 0.130033 26.0956 0.550673C26.681 1.39093 27.1722 2.27724 27.5714 3.19528C28.3687 5.03135 28.7934 6.99229 28.8415 8.96346C28.9387 12.9058 27.5315 16.884 24.5983 19.9656H24.5962Z"
                fill="#B1B51B" />
            <path
                d="M24.4953 19.8694C18.681 25.9763 9.01655 26.2138 2.9096 20.3995C1.3826 18.9462 0.22303 17.2514 -0.567076 15.4327C-0.96213 14.5229 -1.26507 13.5823 -1.47488 12.6244H-0.944731V6.79375H-1.61816C-1.45543 5.82658 -1.19957 4.87272 -0.849549 3.94445C-0.149506 2.08893 0.926142 0.339842 2.37945 -1.18715V-0.860669H23.9651V-1.71832C30.0721 4.09592 30.3095 13.7604 24.4953 19.8673V19.8694Z"
                fill="#B2B71A" />
            <path
                d="M24.3949 19.7742C18.6339 25.8259 9.05742 26.0613 3.00573 20.3002C-0.0206225 17.4192 -1.59163 13.5854 -1.68681 9.71465C-1.78199 5.84394 -0.400324 1.9364 2.4807 -1.08893V-0.857635H23.8699V-1.61499C29.9216 4.14603 30.1569 13.7225 24.3959 19.7742H24.3949Z"
                fill="#B4B819" />
            <path
                d="M24.294 19.678C18.5852 25.6744 9.09676 25.9077 3.10136 20.1989C0.103665 17.3445 -1.45403 13.5454 -1.54819 9.71054C-1.64235 5.87565 -0.273989 2.00393 2.58042 -0.993772V-0.858675H23.7731V-1.51471C29.7695 4.19412 30.0029 13.6826 24.294 19.678Z"
                fill="#B5BA17" />
            <path
                d="M24.1932 19.5828C18.5375 25.5229 9.13712 25.7542 3.19699 20.0986C0.226928 17.2708 -1.31644 13.5065 -1.40957 9.70746C-1.50271 5.90738 -0.146632 2.07249 2.68117 -0.897571V-0.857656H23.6773V-1.41339C29.6175 4.24222 29.8488 13.6426 24.1932 19.5828Z"
                fill="#B6BB16" />
            <path
                d="M24.0923 19.4866C18.4899 25.3714 9.17749 25.6007 3.29262 19.9983C0.350194 17.1971 -1.17782 13.4687 -1.27096 9.70441C-1.36307 5.94015 -0.0202962 2.14109 2.7809 -0.801343C2.95591 -0.985565 3.13501 -1.16365 3.31719 -1.33661V-0.857633H23.5816V-1.31205C29.4664 4.29034 29.6957 13.6027 24.0933 19.4876L24.0923 19.4866Z"
                fill="#B8BD15" />
            <path
                d="M23.9925 19.3904C18.4423 25.22 9.21794 25.4462 3.38835 19.897C0.47355 17.1224 -1.04014 13.4288 -1.13225 9.70033C-1.22436 5.97188 0.107153 2.20864 2.88174 -0.706155C3.22869 -1.0705 3.58997 -1.41336 3.96353 -1.7337V-0.85865H23.4849V-1.21277C29.3145 4.33743 29.5407 13.5618 23.9915 19.3914L23.9925 19.3904Z"
                fill="#B9BE14" />
            <path
                d="M23.8907 19.2952C18.3937 25.0685 9.25733 25.2937 3.483 19.7967C0.595839 17.0487 -0.903521 13.3899 -0.994609 9.69726C-1.0857 6.00464 0.232512 2.27619 2.98151 -0.609946C3.32539 -0.971226 3.68258 -1.30999 4.05307 -1.62726V-0.857622H23.3892V-1.11144C29.1625 4.38553 29.3876 13.5219 23.8907 19.2962V19.2952Z"
                fill="#BAC013" />
            <path
                d="M23.7908 19.199C18.347 24.917 9.29867 25.1391 3.57961 19.6954C0.720078 16.973 -0.764954 13.3499 -0.855018 9.69314C-0.945082 6.03532 0.360846 2.34372 3.08221 -0.514785C3.422 -0.871971 3.77714 -1.20766 4.14353 -1.52289V-0.858666H23.2934V-1.01116C29.0114 4.43259 29.2335 13.4809 23.7898 19.2L23.7908 19.199Z"
                fill="#BBC112" />
            <path
                d="M23.6908 19.1028C18.3003 24.7656 9.33894 24.9856 3.67617 19.5951C0.845296 16.8993 -0.625407 13.3121 -0.714447 9.69008C-0.803488 6.06808 0.489135 2.4123 3.18491 -0.418575C3.52163 -0.77269 3.87267 -1.10531 4.236 -1.41644V-0.857638H23.1996V-0.909833C28.8624 4.4807 29.0824 13.4421 23.6919 19.1048L23.6908 19.1028Z"
                fill="#BCC210" />
            <path
                d="M23.589 19.0076C18.2507 24.6151 9.37833 24.8331 3.77082 19.4948C0.967582 16.8256 -0.488792 13.2732 -0.576809 9.68702C-0.664826 6.10083 0.615515 2.48088 3.28366 -0.322363C3.61731 -0.672385 3.96426 -1.00194 4.32451 -1.31V-0.857631H22.5666V-1.29362C22.7477 -1.13806 22.9268 -0.976352 23.1018 -0.809529C28.7093 4.52881 28.9273 13.4011 23.589 19.0086V19.0076Z"
                fill="#BDC40F" />
            <path
                d="M23.4891 18.9114C18.204 24.4626 9.41967 24.6786 3.86743 19.3935C1.09183 16.7509 -0.350221 13.2333 -0.437215 9.68293C-0.524209 6.13257 0.742827 2.54843 3.38539 -0.227178C3.71596 -0.574129 4.05984 -0.90061 4.416 -1.2056V-0.858649H21.9294V-1.63647C22.2998 -1.34888 22.6591 -1.0398 23.006 -0.710248C28.5572 4.57487 28.7732 13.3592 23.4881 18.9114H23.4891Z"
                fill="#BEC50E" />
            <path
                d="M23.3884 18.8152C18.1565 24.3111 9.45918 24.525 3.96323 19.2921C-1.53272 14.0602 -1.74662 5.36292 3.4863 -0.133033C3.8138 -0.476914 4.15359 -0.799301 4.50668 -1.10122V-0.859685H21.845V-1.52698C22.2114 -1.24246 22.5676 -0.936445 22.9115 -0.609963C28.4074 4.62193 28.6213 13.3192 23.3884 18.8152Z"
                fill="#BFC60E" />
            <path
                d="M23.2874 18.72C18.1077 24.1607 9.49942 24.3715 4.05874 19.1929C-1.38194 14.0132 -1.59277 5.40488 3.58591 -0.0358043C3.90932 -0.375591 4.24706 -0.694908 4.59605 -0.99478V-0.858661H21.7594V-1.41644C22.1227 -1.13499 22.4748 -0.832051 22.8146 -0.50864C28.2552 4.67106 28.4661 13.2793 23.2874 18.72Z"
                fill="#C0C70D" />
            <path
                d="M23.1867 18.6238C18.0602 24.0082 9.53993 24.218 4.15451 19.0915C-1.2309 13.965 -1.43969 5.44479 3.68679 0.0593703C4.32747 -0.614063 5.02138 -1.20562 5.75519 -1.71735V-0.859691H21.674V-1.30694C22.0332 -1.02856 22.3822 -0.72869 22.7189 -0.408349C28.1033 4.71813 28.3131 13.2384 23.1867 18.6238Z"
                fill="#C1C80C" />
            <path
                d="M23.0852 18.5286C18.0119 23.8577 9.57864 24.0645 4.24951 18.9912C-1.07961 13.918 -1.28635 5.4847 3.78691 0.155573C4.42145 -0.510696 5.10819 -1.09714 5.83382 -1.60272V-0.859694H21.5879V-1.19743C21.944 -0.921101 22.2889 -0.625323 22.6215 -0.308052C27.9507 4.76521 28.1574 13.1985 23.0841 18.5276L23.0852 18.5286Z"
                fill="#C2C90B" />
            <path
                d="M22.9855 18.4324C17.9655 23.7063 9.62026 23.911 4.3464 18.8909C-0.927458 13.8709 -1.13215 5.52563 3.88789 0.251774C4.51527 -0.407331 5.19485 -0.987629 5.91433 -1.4881V-0.858674H21.5036V-1.0869C21.8557 -0.813642 22.1975 -0.520935 22.527 -0.206735C27.8009 4.81331 28.0056 13.1586 22.9855 18.4324Z"
                fill="#C3CA0A" />
            <path
                d="M22.8854 18.3363C17.9176 23.5538 9.66137 23.7575 4.44278 18.7896C-0.774792 13.8218 -0.978459 5.5656 3.98939 0.347003C4.61062 -0.304937 5.28303 -0.879094 5.99433 -1.37445V-0.859649H20.3452V-1.72754C21.08 -1.26801 21.7801 -0.727623 22.432 -0.106387C27.6496 4.86146 27.8533 13.1177 22.8854 18.3363Z"
                fill="#C3CB09" />
            <path
                d="M22.7833 18.2411C17.8687 23.4034 9.69948 23.604 4.53717 18.6893C-0.625127 13.7747 -0.825725 5.6055 4.0889 0.4432C4.70297 -0.2026 5.36822 -0.769593 6.07236 -1.25983V-0.858634H20.2707V-1.60883C20.9974 -1.15441 21.6903 -0.619146 22.335 -0.00507331C27.4973 4.90955 27.6979 13.0788 22.7833 18.2411Z"
                fill="#C4CC09" />
            <path
                d="M22.6836 18.1448C17.8222 23.2519 9.74096 23.4504 4.63392 18.588C-0.473116 13.7266 -0.671664 5.64538 4.19077 0.538345C4.7987 -0.10029 5.45678 -0.661142 6.15273 -1.14626V-0.859692H20.1976V-1.49219C20.9171 -1.04187 21.6018 -0.513765 22.2404 0.0941665C27.3474 4.95557 27.546 13.0368 22.6836 18.1438V18.1448Z"
                fill="#C5CD08" />
            <path
                d="M22.5832 18.0486C17.774 23.0994 9.78181 23.2959 4.73004 18.4877C-0.320705 13.6785 -0.517207 5.68633 4.29098 0.634557C4.89175 0.00308597 5.54266 -0.552649 6.23145 -1.03163V-0.858662H20.1238V-1.37244C20.8351 -0.927234 21.5126 -0.404249 22.1441 0.196519C27.1949 5.00573 27.3914 12.9979 22.5832 18.0497V18.0486Z"
                fill="#C6CD07" />
            <path
                d="M22.4815 17.9535C17.7255 22.949 9.82032 23.1434 4.82484 18.3874C-0.170644 13.6314 -0.365101 5.72628 4.39089 0.730801C4.98552 0.106494 5.62927 -0.443102 6.30987 -0.916961V-0.858623H20.0497V-1.2547C20.7529 -0.814614 21.4232 -0.297771 22.0475 0.296856C27.043 5.05285 27.2375 12.958 22.4815 17.9535Z"
                fill="#C6CE07" />
            <path
                d="M22.3813 17.8573C17.6785 22.7975 9.8614 22.9889 4.92119 18.2861C-0.019027 13.5833 -0.210413 5.76617 4.49236 0.825953C5.07982 0.20881 5.71641 -0.334646 6.38984 -0.803388C6.72656 -1.03776 7.07249 -1.25371 7.4266 -1.45123V-0.859676H19.9762V-1.13806C20.6721 -0.703088 21.3343 -0.191362 21.9515 0.396101C26.8917 5.09887 27.0831 12.916 22.3803 17.8562L22.3813 17.8573Z"
                fill="#C7CF06" />
            <path
                d="M22.2813 17.7621C17.6318 22.646 9.90265 22.8364 5.0177 18.1868C0.133779 13.5373 -0.0565827 5.80813 4.59297 0.923184C5.17429 0.312182 5.80371 -0.224109 6.46998 -0.687734C6.80261 -0.919034 7.14546 -1.13294 7.49446 -1.32739V-0.857628H19.9028V-1.01831C20.5906 -0.588458 21.2456 -0.0828727 21.8566 0.498449C26.7405 5.148 26.9309 12.8771 22.2813 17.7621Z"
                fill="#C7D005" />
            <path
                d="M22.1796 17.6658C17.5823 22.4945 9.94115 22.6828 5.1125 18.0855C0.283839 13.4881 0.0955236 5.847 4.69288 1.01835C5.84222 -0.18933 7.18192 -1.10634 8.61987 -1.73065V-0.858669H19.8287V-0.900631C20.5083 -0.474874 21.1562 0.0245724 21.76 0.599754C26.5887 5.19711 26.777 12.8382 22.1796 17.6669V17.6658Z"
                fill="#C8D005" />
            <path
                d="M22.0795 17.5697C17.5353 22.3431 9.98224 22.5283 5.20885 17.9842C0.435457 13.4401 0.250211 5.88696 4.79435 1.11357C5.93038 -0.0797752 7.25473 -0.986556 8.67631 -1.6037V-0.858624H18.7246V-1.35909C19.0756 -1.18613 19.4195 -0.993721 19.7552 -0.783913C20.4276 -0.363273 21.0673 0.131056 21.6639 0.699073C26.4373 5.24321 26.6226 12.7963 22.0784 17.5697H22.0795Z"
                fill="#C9D104" />
            <path
                d="M21.9793 17.4745C17.4884 22.1916 10.0223 22.3758 5.30522 17.8839C0.588122 13.3929 0.4039 5.92685 4.89584 1.20975C6.01857 0.0307345 7.32757 -0.865812 8.73277 -1.47579V-0.858648H17.6061V-1.69379C19.04 -1.1534 20.3909 -0.322357 21.57 0.800372C26.2871 5.29129 26.4713 12.7574 21.9793 17.4745Z"
                fill="#C9D104" />
            <path
                d="M21.8783 17.3783C17.4396 22.0401 10.0626 22.2212 5.40074 17.7835C0.738904 13.3448 0.557752 5.96777 4.99545 1.30594C6.10487 0.140222 7.39852 -0.745065 8.78735 -1.34788V-0.857645H17.5563V-1.56281C18.9728 -1.02856 20.3084 -0.207752 21.4741 0.901672C26.1359 5.34039 26.3171 12.7175 21.8794 17.3793L21.8783 17.3783Z"
                fill="#C9D203" />
            <path
                d="M21.7776 17.2821C17.3921 21.8886 10.1031 22.0677 5.49651 17.6822C0.889941 13.2967 0.710835 6.0077 5.09634 1.40113C6.19246 0.249744 7.47075 -0.625309 8.84218 -1.22096V-0.858657H17.5067V-1.43384C18.9068 -0.905736 20.2261 -0.0951611 21.3774 1.00198C25.984 5.38748 26.1631 12.6765 21.7776 17.2831V17.2821Z"
                fill="#CAD203" />
            <path
                d="M21.6775 17.1869C17.3452 21.7382 10.1431 21.9142 5.59286 17.582C1.04156 13.2497 0.865523 6.04763 5.1978 1.49735C6.28062 0.359267 7.54356 -0.50453 8.89862 -1.09404V-0.859667H17.4588V-1.30487C18.8415 -0.782909 20.1454 0.0184551 21.2824 1.10127C25.8337 5.43355 26.0097 12.6356 21.6775 17.1859V17.1869Z"
                fill="#CAD303" />
            <path
                d="M21.5765 17.0907C17.2974 21.5857 10.1834 21.7607 5.6884 17.4816C1.19339 13.2026 1.01838 6.08854 5.29744 1.59353C6.36695 0.469779 7.61454 -0.383783 8.95322 -0.966128V-0.858665H17.408V-1.17389C18.7743 -0.659092 20.0618 0.133062 21.1855 1.20257C25.6805 5.48163 25.8556 12.5957 21.5765 17.0907Z"
                fill="#CBD302" />
            <path
                d="M21.4758 16.9955C17.2489 21.4353 10.2239 21.6082 5.78417 17.3814C1.34442 13.1545 1.17146 6.12951 5.39833 1.68977C6.45453 0.580343 7.68677 -0.262982 9.00907 -0.838163C9.67022 -1.12575 10.3539 -1.3458 11.0498 -1.49829V-0.858632H17.3594V-1.04388C18.7083 -0.535221 19.9795 0.246698 21.0899 1.3029C25.5297 5.52977 25.7026 12.5548 21.4758 16.9945V16.9955Z"
                fill="#CBD402" />
            <path
                d="M21.3756 16.8993C17.202 21.2838 10.264 21.4537 5.88052 17.28C1.49604 13.1064 1.32615 6.16838 5.49979 1.78493C7.58662 -0.407313 10.3643 -1.54539 13.1685 -1.61499C15.9728 -1.68356 18.8026 -0.682622 20.9949 1.4042C25.3794 5.57785 25.5493 12.5158 21.3756 16.8993Z"
                fill="#CBD402" />
            <path
                d="M21.2745 16.8031C17.1541 21.1313 10.3041 21.3002 5.97592 17.1787C1.64773 13.0583 1.47886 6.20832 5.60031 1.88013C7.66052 -0.284476 10.4034 -1.40823 13.1718 -1.4768C15.9403 -1.54435 18.7353 -0.556714 20.8989 1.5035C25.2271 5.62392 25.396 12.4739 21.2745 16.8021V16.8031Z"
                fill="#CCD401" />
            <path
                d="M21.1735 16.7079C17.1053 20.9808 10.3444 21.1466 6.07143 17.0794C1.79851 13.0122 1.63271 6.25026 5.69992 1.97734C7.73352 -0.158613 10.4416 -1.26906 13.1742 -1.33559C15.9068 -1.40313 18.6661 -0.427783 20.802 1.60684C25.0749 5.67508 25.2407 12.436 21.1735 16.7089V16.7079Z"
                fill="#CCD501" />
            <path
                d="M21.0734 16.6117C17.0584 20.8293 10.3844 20.9931 6.16781 16.9781C1.95118 12.9631 1.7864 6.28914 5.80141 2.0725C7.8084 -0.0358105 10.4806 -1.13193 13.1785 -1.19743C15.8763 -1.26293 18.5987 -0.300885 20.707 1.70611C24.9247 5.72112 25.0884 12.3951 21.0734 16.6117Z"
                fill="#CCD501" />
            <path
                d="M20.9723 16.5155C17.0105 20.6768 10.4245 20.8386 6.26318 16.8768C2.10182 12.915 1.94011 6.32904 5.9019 2.16768C7.88331 0.0869983 10.5197 -0.993769 13.1817 -1.05927C15.8437 -1.12477 18.5303 -0.175006 20.611 1.8064C24.7724 5.76819 24.9341 12.3541 20.9723 16.5155Z"
                fill="#CCD501" />
            <path
                d="M20.8717 16.4204C16.9621 20.5265 10.4652 20.6861 6.35909 16.7775C2.25299 12.8679 2.09334 6.37106 6.00191 2.26496C7.95671 0.211909 10.5583 -0.85453 13.1845 -0.919008C15.8107 -0.983485 18.4614 -0.0460024 20.5145 1.9088C24.6206 5.81839 24.7802 12.3153 20.8717 16.4214V16.4204Z"
                fill="#CCD501" />
            <path
                d="M20.7709 16.3241C16.9146 20.3749 10.5047 20.5326 6.45486 16.6762C2.40403 12.8198 2.24642 6.40991 6.10279 2.3601C8.03098 0.334687 10.5978 -0.717424 13.1882 -0.780878C15.7785 -0.844333 18.3935 0.0798464 20.4189 2.00803C24.4697 5.86441 24.6273 12.2743 20.7709 16.3241Z"
                fill="#CDD500" />
            <path
                d="M13.4361 19.329C18.9517 19.329 23.4229 14.8577 23.4229 9.34209C23.4229 3.8265 18.9517 -0.644775 13.4361 -0.644775C7.92049 -0.644775 3.44922 3.8265 3.44922 9.34209C3.44922 14.8577 7.92049 19.329 13.4361 19.329Z"
                fill="#CDD600" />
            <path
                d="M13.4366 19.1908C18.8759 19.1908 23.2853 14.7814 23.2853 9.34211C23.2853 3.90282 18.8759 -0.506592 13.4366 -0.506592C7.9973 -0.506592 3.58789 3.90282 3.58789 9.34211C3.58789 14.7814 7.9973 19.1908 13.4366 19.1908Z"
                fill="#CDD600" />
            <path
                d="M13.4361 19.0516C18.7985 19.0516 23.1456 14.7046 23.1456 9.34214C23.1456 3.97972 18.7985 -0.367371 13.4361 -0.367371C8.07366 -0.367371 3.72656 3.97972 3.72656 9.34214C3.72656 14.7046 8.07366 19.0516 13.4361 19.0516Z"
                fill="#CDD600" />
            <path
                d="M13.4365 18.9124C18.7221 18.9124 23.0069 14.6277 23.0069 9.34211C23.0069 4.05657 18.7221 -0.22821 13.4365 -0.22821C8.15099 -0.22821 3.86621 4.05657 3.86621 9.34211C3.86621 14.6277 8.15099 18.9124 13.4365 18.9124Z"
                fill="#CDD600" />
            <path
                d="M13.436 18.7733C18.6447 18.7733 22.8671 14.5508 22.8671 9.34214C22.8671 4.13347 18.6447 -0.0889893 13.436 -0.0889893C8.22734 -0.0889893 4.00488 4.13347 4.00488 9.34214C4.00488 14.5508 8.22734 18.7733 13.436 18.7733Z"
                fill="#CDD600" />
            <path
                d="M13.4365 18.6341C18.5683 18.6341 22.7284 14.4739 22.7284 9.34211C22.7284 4.21031 18.5683 0.0501709 13.4365 0.0501709C8.30468 0.0501709 4.14453 4.21031 4.14453 9.34211C4.14453 14.4739 8.30468 18.6341 13.4365 18.6341Z"
                fill="#CDD600" />
            <path
                d="M13.436 18.4959C18.4915 18.4959 22.5898 14.3976 22.5898 9.34213C22.5898 4.28664 18.4915 0.188354 13.436 0.188354C8.38051 0.188354 4.28223 4.28664 4.28223 9.34213C4.28223 14.3976 8.38051 18.4959 13.436 18.4959Z"
                fill="#CDD600" />
            <path
                d="M13.4365 18.3567C18.4151 18.3567 22.451 14.3207 22.451 9.3421C22.451 4.36348 18.4151 0.327515 13.4365 0.327515C8.45784 0.327515 4.42188 4.36348 4.42188 9.3421C4.42188 14.3207 8.45784 18.3567 13.4365 18.3567Z"
                fill="#CDD600" />
            <path
                d="M13.4369 18.2175C18.3387 18.2175 22.3123 14.2439 22.3123 9.34213C22.3123 4.44039 18.3387 0.466736 13.4369 0.466736C8.53517 0.466736 4.56152 4.44039 4.56152 9.34213C4.56152 14.2439 8.53517 18.2175 13.4369 18.2175Z"
                fill="#CDD600" />
            <path
                d="M13.4367 13.7798C15.8876 13.7798 17.8744 11.793 17.8744 9.34212C17.8744 6.89124 15.8876 4.90442 13.4367 4.90442C10.9858 4.90442 8.99902 6.89124 8.99902 9.34212C8.99902 11.793 10.9858 13.7798 13.4367 13.7798Z"
                fill="#CDD600" />
        </g>
    </g>
    <defs>
        <clipPath id="clip0_485_3513">
            <rect width="53.936" height="48" fill="white" transform="translate(0.0644531)" />
        </clipPath>
    </defs>
</svg>
    