<svg width="77" height="32" viewBox="0 0 77 32" fill="none" xmlns="http://www.w3.org/2000/svg">
    <path fill-rule="evenodd" clip-rule="evenodd"
        d="M56.0247 0C55.1894 0 54.5117 0.677673 54.5117 1.513V16.2031C54.5117 22.1574 59.3392 26.985 65.2936 26.985C71.2076 26.985 75.9234 22.304 76.0683 16.4762H76.0755V14.5644C76.0755 13.7307 75.4005 13.054 74.5674 13.0514L74.566 13.0514L74.5651 13.0514L74.5649 13.1722L74.5647 13.0514L74.5639 13.0514L74.5625 13.0514C73.7294 13.054 73.0544 13.7307 73.0544 14.5644V16.2031C73.0544 20.4868 69.5821 23.9614 65.296 23.9614C61.0099 23.9614 57.5377 20.4892 57.5377 16.2031V1.513C57.5377 0.677673 56.86 0 56.0247 0ZM65.4435 28.2006C64.3954 28.2006 63.5438 29.0523 63.5438 30.1003C63.5438 31.1483 64.3954 32 65.4435 32C66.4915 32 67.3432 31.1483 67.3432 30.1003C67.3432 29.0523 66.4915 28.2006 65.4435 28.2006Z"
        fill="#1E3E81" />
    <path fill-rule="evenodd" clip-rule="evenodd"
        d="M39.3477 12.4568C38.5292 12.4568 37.8589 13.0936 37.8589 13.89C37.8589 14.6865 38.5292 15.3233 39.3477 15.3233H49.6124V15.8115H49.6098L49.6076 15.93C49.5267 20.1447 46.0877 23.536 41.8541 23.536C37.6207 23.536 34.1821 20.1453 34.1006 15.9311V14.1414C34.1006 13.3061 33.4229 12.6284 32.5876 12.6284C31.822 12.6284 31.1891 13.1975 31.0885 13.9355C31.0344 14.1997 31.0304 14.4724 31.0263 14.7633V14.7634L31.0262 14.77L31.0261 14.7714C31.0166 15.4324 31.0049 16.2474 30.4425 17.4847L30.4303 17.5116C30.2 17.9704 29.9121 18.45 29.552 18.9292C27.1799 22.0832 22.7427 23.768 16.6866 23.768C11.415 23.768 7.6426 22.5308 5.44042 20.1215C3.09344 17.5555 3.33586 14.512 3.34703 14.3975C3.43093 13.5604 2.8222 12.8122 1.9846 12.7281C1.14196 12.6416 0.398957 13.2535 0.314983 14.0907L0.314919 14.0913C0.297154 14.2791 -0.0933354 18.5435 3.14921 22.1306C5.96796 25.25 10.5324 26.8157 16.689 26.8157C24.69 26.8157 29.0143 24.1432 31.3143 21.5817L31.3453 21.5472V21.5408C31.4424 21.4128 31.7865 20.9579 32.1442 20.4697C33.888 24.0749 37.5795 26.562 41.8516 26.562C47.7124 26.562 52.4807 21.8814 52.6264 16.0532H52.6335V14.1414C52.6335 13.9439 52.5956 13.755 52.5265 13.5817C52.3795 12.935 51.7822 12.4568 51.0722 12.4568H39.3477ZM14.202 12.9644C13.154 12.9644 12.3023 13.8161 12.3023 14.8641C12.3023 15.9121 13.154 16.7638 14.202 16.7638C15.25 16.7638 16.1017 15.9121 16.1017 14.8641C16.1017 13.8161 15.25 12.9644 14.202 12.9644ZM18.8038 12.9644C17.7558 12.9644 16.9041 13.8161 16.9041 14.8641C16.9041 15.9121 17.7558 16.7638 18.8038 16.7638C19.8519 16.7638 20.7035 15.9121 20.7035 14.8641C20.7035 13.8161 19.8519 12.9644 18.8038 12.9644ZM42.6444 28.2005C41.5964 28.2005 40.7447 29.0522 40.7447 30.1002C40.7447 31.1483 41.5964 32 42.6444 32C43.6924 32 44.5441 31.1483 44.5441 30.1002C44.5441 29.0522 43.6924 28.2005 42.6444 28.2005Z"
        fill="#1E3E81" />
</svg>
    