<svg width="100%" height="42" viewBox="0 0 135 42" fill="none" xmlns="http://www.w3.org/2000/svg">
    <rect x="1" y="1" width="134" height="40" rx="4" fill="black" />
    <path
        d="M43.5417 12.636L43.5017 12.996H43.4217C43.0804 12.996 42.819 12.884 42.6377 12.66C42.5257 12.836 42.3924 12.964 42.2377 13.044C42.083 13.1293 41.9204 13.172 41.7497 13.172C41.563 13.172 41.3364 13.1293 41.0697 13.044C40.803 12.9586 40.4084 12.8173 39.8857 12.62L39.4697 12.46V15.492H38.8457V12.196L39.4857 11.708L39.8457 11.852L40.0777 11.02C40.195 10.604 40.3764 10.2786 40.6217 10.044C40.867 9.80396 41.163 9.68396 41.5097 9.68396C41.787 9.68396 42.0324 9.76662 42.2457 9.93196C42.459 10.092 42.6244 10.3106 42.7417 10.588C42.859 10.86 42.9177 11.156 42.9177 11.476C42.9177 11.7 42.9364 11.8706 42.9737 11.988C43.011 12.1 43.0644 12.1773 43.1337 12.22C43.203 12.2573 43.299 12.276 43.4217 12.276H43.5017L43.5417 12.636ZM40.4457 12.084C41.123 12.3293 41.5577 12.452 41.7497 12.452C41.931 12.452 42.067 12.3853 42.1577 12.252C42.2484 12.1133 42.2937 11.8546 42.2937 11.476C42.2937 11.14 42.227 10.8786 42.0937 10.692C41.9604 10.5 41.7657 10.404 41.5097 10.404C41.3177 10.404 41.1524 10.4706 41.0137 10.604C40.875 10.7373 40.7657 10.94 40.6857 11.212L40.4457 12.084Z"
        fill="white" />
    <path
        d="M45.7013 10.532V11.668C45.7013 11.8866 45.7547 12.044 45.8613 12.14C45.968 12.2306 46.136 12.276 46.3653 12.276H46.7733L46.8133 12.652L46.7733 12.996H46.3653C46.1947 12.996 46.016 12.9533 45.8293 12.868C45.6427 12.7826 45.4853 12.6546 45.3573 12.484C45.2293 12.6493 45.0667 12.7773 44.8693 12.868C44.672 12.9533 44.472 12.996 44.2693 12.996H43.4213V12.276H44.2693C44.5413 12.276 44.744 12.22 44.8773 12.108C45.0107 11.996 45.0773 11.8173 45.0773 11.572V10.532H45.7013ZM43.1653 14.22H43.9653V15.02H43.1653V14.22ZM44.5973 14.22H45.3973V15.02H44.5973V14.22Z"
        fill="white" />
    <path
        d="M46.6628 12.276H47.0868C47.4014 12.276 47.6894 12.26 47.9508 12.228C47.5294 11.924 47.3188 11.5613 47.3188 11.14C47.3188 10.852 47.3854 10.5906 47.5188 10.356C47.6521 10.116 47.8308 9.92662 48.0548 9.78796C48.2841 9.64929 48.5348 9.57996 48.8068 9.57996C49.0681 9.57996 49.3108 9.64929 49.5348 9.78796C49.7588 9.92662 49.9374 10.116 50.0708 10.356C50.2041 10.596 50.2708 10.8573 50.2708 11.14C50.2708 11.556 50.0601 11.9213 49.6388 12.236C49.9214 12.2626 50.2094 12.276 50.5028 12.276H50.8868L50.9348 12.636L50.8868 12.996H50.5028C50.2841 12.996 50.0174 12.9693 49.7028 12.916C49.3934 12.8573 49.0921 12.7746 48.7988 12.668C48.5001 12.7746 48.1934 12.8573 47.8788 12.916C47.5694 12.9693 47.3054 12.996 47.0868 12.996H46.6628V12.276ZM47.6948 8.18796H48.4948V8.98796H47.6948V8.18796ZM47.9428 11.14C47.9428 11.3426 48.0121 11.5213 48.1508 11.676C48.2948 11.8306 48.5054 11.956 48.7828 12.052C49.0654 11.956 49.2788 11.8306 49.4228 11.676C49.5721 11.5213 49.6468 11.3426 49.6468 11.14C49.6468 10.8893 49.5668 10.6866 49.4068 10.532C49.2468 10.3773 49.0468 10.3 48.8068 10.3C48.5561 10.3 48.3481 10.3773 48.1828 10.532C48.0228 10.6866 47.9428 10.8893 47.9428 11.14ZM49.1268 8.18796H49.9268V8.98796H49.1268V8.18796Z"
        fill="white" />
    <path
        d="M53.4441 10.532V11.668C53.4441 11.8866 53.4975 12.044 53.6041 12.14C53.7108 12.2306 53.8788 12.276 54.1081 12.276H54.5161L54.5561 12.652L54.5161 12.996H54.1081C53.9375 12.996 53.7588 12.9533 53.5721 12.868C53.3855 12.7826 53.2281 12.6546 53.1001 12.484C52.9721 12.6493 52.8095 12.7773 52.6121 12.868C52.4148 12.9533 52.2148 12.996 52.0121 12.996H50.8041V12.276H52.0121C52.2841 12.276 52.4868 12.22 52.6201 12.108C52.7535 11.996 52.8201 11.8173 52.8201 11.572V10.532H53.4441ZM51.6921 8.82796H52.4921V9.62796H51.6921V8.82796ZM53.1241 8.82796H53.9241V9.62796H53.1241V8.82796Z"
        fill="white" />
    <path
        d="M57.917 12.484C57.8103 12.6493 57.6716 12.7773 57.501 12.868C57.3303 12.9533 57.141 12.996 56.933 12.996C56.741 12.996 56.549 12.9506 56.357 12.86C56.165 12.7693 56.0183 12.644 55.917 12.484C55.789 12.6546 55.6396 12.7826 55.469 12.868C55.2983 12.9533 55.117 12.996 54.925 12.996H54.437V12.276H54.925C55.1863 12.276 55.3703 12.2253 55.477 12.124C55.5836 12.0173 55.637 11.8333 55.637 11.572V10.532H56.261V11.572C56.261 11.828 56.3116 12.0093 56.413 12.116C56.5196 12.2226 56.693 12.276 56.933 12.276C57.1783 12.276 57.3516 12.2226 57.453 12.116C57.5596 12.0093 57.613 11.828 57.613 11.572V10.532H58.237V11.572C58.237 11.8226 58.2983 12.004 58.421 12.116C58.5436 12.2226 58.7196 12.276 58.949 12.276C59.189 12.276 59.3596 12.2226 59.461 12.116C59.5623 12.0093 59.613 11.828 59.613 11.572V10.532H60.237V11.572C60.237 11.8333 60.2903 12.0173 60.397 12.124C60.5036 12.2253 60.6876 12.276 60.949 12.276H61.437L61.477 12.636L61.437 12.996H60.949C60.757 12.996 60.5756 12.9533 60.405 12.868C60.2343 12.7826 60.085 12.6546 59.957 12.484C59.8556 12.644 59.709 12.7693 59.517 12.86C59.325 12.9506 59.133 12.996 58.941 12.996C58.7543 12.996 58.5703 12.9533 58.389 12.868C58.213 12.7773 58.0556 12.6493 57.917 12.484Z"
        fill="white" />
    <path
        d="M61.3588 12.276H61.5828C61.8335 12.276 61.9882 12.164 62.0468 11.94L62.3028 11.02C62.4202 10.604 62.6015 10.2786 62.8468 10.044C63.0922 9.80396 63.3882 9.68396 63.7348 9.68396C64.0122 9.68396 64.2575 9.76662 64.4708 9.93196C64.6842 10.092 64.8495 10.3106 64.9668 10.588C65.0842 10.86 65.1428 11.156 65.1428 11.476C65.1428 11.8706 65.0868 12.196 64.9748 12.452C64.8628 12.7026 64.7162 12.884 64.5348 12.996C64.3588 13.1133 64.1722 13.172 63.9748 13.172C63.7722 13.172 63.5695 13.132 63.3668 13.052C63.1642 12.9773 62.8442 12.828 62.4068 12.604C62.3002 12.7266 62.1748 12.8226 62.0308 12.892C61.8868 12.9613 61.7375 12.996 61.5828 12.996H61.3588V12.276ZM62.7028 11.964C63.0868 12.1613 63.3588 12.292 63.5188 12.356C63.6788 12.42 63.8308 12.452 63.9748 12.452C64.1562 12.452 64.2922 12.3853 64.3828 12.252C64.4735 12.1133 64.5188 11.8546 64.5188 11.476C64.5188 11.14 64.4522 10.8786 64.3188 10.692C64.1855 10.5 63.9908 10.404 63.7348 10.404C63.5428 10.404 63.3748 10.4706 63.2308 10.604C63.0922 10.7373 62.9855 10.94 62.9108 11.212L62.7028 11.964Z"
        fill="white" />
    <path
        d="M70.9155 10.956C71.0861 11.2173 71.1715 11.5053 71.1715 11.82C71.1715 12.06 71.1155 12.26 71.0035 12.42C70.8488 12.6386 70.6621 12.7906 70.4435 12.876C70.2248 12.956 69.9848 12.996 69.7235 12.996H69.2915C69.0035 12.996 68.7421 12.956 68.5075 12.876C68.2781 12.7906 68.0888 12.6946 67.9395 12.588L68.2675 11.98C68.2835 11.9853 68.3341 12.0173 68.4195 12.076C68.5101 12.1293 68.6328 12.1773 68.7875 12.22C68.9421 12.2573 69.1101 12.276 69.2915 12.276H69.7235C69.9155 12.276 70.0728 12.2573 70.1955 12.22C70.3235 12.1773 70.4221 12.1053 70.4915 12.004C70.5395 11.94 70.5635 11.868 70.5635 11.788C70.5635 11.6706 70.5048 11.5213 70.3875 11.34C69.8861 10.5506 69.4808 9.92662 69.1715 9.46796L69.6995 9.06796L70.9155 10.956Z"
        fill="white" />
    <path
        d="M72.9307 14.3C73.304 14.3 73.592 14.2546 73.7947 14.164C74.0027 14.0786 74.1467 13.9453 74.2267 13.764C74.3067 13.5826 74.3467 13.3426 74.3467 13.044V12.996H73.4667C73.0187 12.996 72.656 12.8626 72.3787 12.596C72.1067 12.3293 71.9707 11.956 71.9707 11.476C71.9707 11.1506 72.032 10.8546 72.1547 10.588C72.2827 10.3213 72.4587 10.1106 72.6827 9.95596C72.912 9.80129 73.1707 9.72396 73.4587 9.72396C73.7627 9.72396 74.0294 9.79862 74.2587 9.94796C74.488 10.0973 74.664 10.3053 74.7867 10.572C74.9094 10.8333 74.9707 11.1346 74.9707 11.476V12.276H75.4187L75.4667 12.644L75.4187 12.996H74.9707V13.044C74.9707 13.652 74.808 14.132 74.4827 14.484C74.1627 14.8413 73.6454 15.02 72.9307 15.02H72.0747V14.3H72.9307ZM72.5947 11.476C72.5947 11.7693 72.664 11.9773 72.8027 12.1C72.9414 12.2173 73.1627 12.276 73.4667 12.276H74.3467V11.476C74.3467 11.1506 74.272 10.8973 74.1227 10.716C73.9734 10.5293 73.752 10.436 73.4587 10.436C73.1867 10.436 72.9734 10.532 72.8187 10.724C72.6694 10.9106 72.5947 11.1613 72.5947 11.476Z"
        fill="white" />
    <path
        d="M75.3354 12.276H75.6554C75.8954 12.276 76.0741 12.2253 76.1914 12.124C76.3141 12.0173 76.3754 11.8333 76.3754 11.572V7.80396H76.9914V11.572V11.668C76.9914 11.8866 77.0447 12.044 77.1514 12.14C77.2581 12.2306 77.4261 12.276 77.6554 12.276H77.9514L77.9914 12.644L77.9514 12.996H77.6554C77.4847 12.996 77.3141 12.956 77.1434 12.876C76.9727 12.7906 76.8261 12.6653 76.7034 12.5C76.5754 12.6653 76.4207 12.7906 76.2394 12.876C76.0581 12.956 75.8821 12.996 75.7114 12.996H75.3354V12.276Z"
        fill="white" />
    <path
        d="M77.8745 12.276H78.7545C78.9838 12.276 79.1545 12.228 79.2665 12.132C79.3785 12.0306 79.4345 11.8946 79.4345 11.724C79.4345 11.5853 79.4078 11.3693 79.3545 11.076C79.3064 10.7773 79.2505 10.492 79.1865 10.22L79.7945 10.06C79.8585 10.332 79.9171 10.6306 79.9705 10.956C80.0291 11.2813 80.0585 11.5346 80.0585 11.716C80.0585 11.9346 80.0078 12.1426 79.9065 12.34C79.8051 12.5373 79.6558 12.6973 79.4585 12.82C79.2611 12.9373 79.0265 12.996 78.7545 12.996H77.8745V12.276ZM78.7385 8.31596H79.5385V9.11596H78.7385V8.31596Z"
        fill="white" />
    <path d="M81.1735 7.80396H81.7975L81.8055 12.996H81.1815L81.1735 7.80396Z" fill="white" />
    <path
        d="M85.7436 10.956C85.9142 11.2173 85.9996 11.5053 85.9996 11.82C85.9996 12.06 85.9436 12.26 85.8316 12.42C85.6769 12.6386 85.4902 12.7906 85.2716 12.876C85.0529 12.956 84.8129 12.996 84.5516 12.996H84.1196C83.8316 12.996 83.5702 12.956 83.3356 12.876C83.1062 12.7906 82.9169 12.6946 82.7676 12.588L83.0956 11.98C83.1116 11.9853 83.1622 12.0173 83.2476 12.076C83.3382 12.1293 83.4609 12.1773 83.6156 12.22C83.7702 12.2573 83.9382 12.276 84.1196 12.276H84.5516C84.7436 12.276 84.9009 12.2573 85.0236 12.22C85.1516 12.1773 85.2502 12.1053 85.3196 12.004C85.3676 11.94 85.3916 11.868 85.3916 11.788C85.3916 11.6706 85.3329 11.5213 85.2156 11.34C84.7142 10.5506 84.3089 9.92662 83.9996 9.46796L84.5276 9.06796L85.7436 10.956Z"
        fill="white" />
    <path
        d="M48.3447 30.1799C47.6833 30.1799 47.1073 30.0359 46.6167 29.7479C46.126 29.4493 45.7473 29.0546 45.4807 28.5639C45.2247 28.0733 45.0967 27.5399 45.0967 26.9639C45.0967 26.7079 45.118 26.4733 45.1607 26.2599C45.214 25.9613 45.2833 25.6039 45.3687 25.1879C45.454 24.7719 45.534 24.4093 45.6087 24.0999L47.4807 24.5639L47.3687 25.0759C47.1553 25.9079 47.0487 26.4839 47.0487 26.8039C47.0487 27.1346 47.1607 27.3959 47.3847 27.5879C47.6087 27.7799 47.9287 27.8759 48.3447 27.8759H55.3047C55.742 27.8759 56.0513 27.8173 56.2327 27.6999C56.414 27.5719 56.5047 27.3586 56.5047 27.0599V24.8199H58.5527V27.1399C58.5527 27.4173 58.622 27.6093 58.7607 27.7159C58.91 27.8226 59.1447 27.8759 59.4647 27.8759H59.9447L60.0407 29.0599L59.9447 30.1799H59.4647C59.1233 30.1799 58.7713 30.1159 58.4087 29.9879C58.0567 29.8493 57.742 29.6413 57.4647 29.3639C57.2193 29.6413 56.91 29.8493 56.5367 29.9879C56.1633 30.1159 55.7527 30.1799 55.3047 30.1799H48.3447ZM49.6247 22.4839H51.5287V24.4039H49.6247V22.4839ZM52.6327 22.4839H54.5367V24.4039H52.6327V22.4839Z"
        fill="white" />
    <path d="M59.7788 27.8759H63.1228L63.2508 28.9959L63.1228 30.1799H59.7788V27.8759Z" fill="white" />
    <path d="M62.9507 27.8759H66.2947L66.4227 28.9959L66.2947 30.1799H62.9507V27.8759Z" fill="white" />
    <path
        d="M66.0586 27.8759H67.9786C68.9812 27.8759 69.9252 27.7479 70.8106 27.4919C71.6959 27.2359 72.6079 26.8573 73.5466 26.3559C71.2959 25.5773 69.9839 25.1879 69.6106 25.1879C69.3866 25.1879 69.1999 25.2573 69.0506 25.3959C68.9012 25.5239 68.7679 25.7479 68.6506 26.0679L66.8586 25.4919C67.1039 24.6599 67.4666 24.0253 67.9466 23.5879C68.4266 23.1506 68.9812 22.9319 69.6106 22.9319C70.0479 22.9319 70.7359 23.0973 71.6746 23.4279C72.6239 23.7586 73.8719 24.2439 75.4186 24.8839L75.7226 27.3959C74.7199 28.0253 73.8506 28.5266 73.1146 28.8999C72.3786 29.2733 71.5839 29.5826 70.7306 29.8279C69.8772 30.0626 68.9599 30.1799 67.9786 30.1799H66.0586V27.8759ZM70.2346 31.9559H72.3626V34.0359H70.2346V31.9559Z"
        fill="white" />
    <path
        d="M80.8351 30.1799C79.7151 30.1799 78.8884 29.8546 78.3551 29.2039C77.8324 28.5533 77.5711 27.6786 77.5711 26.5799V19.4919H79.6031V26.5799C79.6031 26.9853 79.6244 27.2733 79.6671 27.4439C79.7204 27.6146 79.8271 27.7319 79.9871 27.7959C80.1577 27.8493 80.4404 27.8759 80.8351 27.8759H81.4111L81.5071 29.0599L81.4111 30.1799H80.8351Z"
        fill="white" />
    <path
        d="M81.2316 27.8759H82.7836C83.6049 27.8759 83.9996 27.5559 83.9676 26.9159C83.9356 26.4466 83.7969 25.5613 83.5516 24.2599L85.4556 23.7799C85.8182 25.3479 85.9996 26.4679 85.9996 27.1399C85.9996 27.6626 85.8822 28.1586 85.6476 28.6279C85.4236 29.0866 85.0769 29.4599 84.6076 29.7479C84.1489 30.0359 83.5942 30.1799 82.9436 30.1799H81.2316V27.8759ZM80.9276 32.1159H83.0556V34.1959H80.9276V32.1159Z"
        fill="white" />
    <mask id="mask0_834_8865" style="mask-type:luminance" maskUnits="userSpaceOnUse" x="109" y="14"
        width="15" height="14">
        <path
            d="M118.711 15.3801L109.82 24.6358C112.962 28.9391 118.115 28.232 121.163 25.2137C123.609 22.7927 123.839 18.7484 122.591 15.8273C122.021 14.4924 120.891 13.8132 119.389 14.8073C119.142 14.9711 118.917 15.1659 118.711 15.3796V15.3801Z"
            fill="white" />
    </mask>
    <g mask="url(#mask0_834_8865)">
        <path d="M123.839 13.8137H109.82V28.9391H123.839V13.8137Z" fill="#002D5D" />
        <path
            d="M123.117 25.9284C122.047 27.0521 120.909 28.009 119.766 28.7777C119.481 28.97 119.195 29.1501 118.91 29.3185V29.0016H110.412V29.0326C110.238 28.6602 110.123 28.2461 110.064 27.7979C109.947 26.9015 110.056 25.8688 110.372 24.7659C111.004 22.5601 112.465 20.0719 114.604 17.8244C115.674 16.7006 116.812 15.7437 117.955 14.975C118.526 14.591 119.098 14.2537 119.663 13.9662C119.945 13.8228 120.227 13.6915 120.504 13.573V13.7516H123.901V24.6423H124.247C124.13 24.7873 124.009 24.9318 123.886 25.0752C123.641 25.3627 123.384 25.6475 123.116 25.9284H123.117Z"
            fill="#002D5D" />
        <path
            d="M123.094 25.9414C122.028 27.0601 120.895 28.0134 119.758 28.7785C119.473 28.9698 119.189 29.1494 118.905 29.3168V29.0013H110.443V29.0324C110.27 28.662 110.156 28.2494 110.097 27.8028C109.981 26.91 110.089 25.8819 110.404 24.7835C111.033 22.5869 112.487 20.1094 114.617 17.8715C116.748 15.6336 119.151 14.0596 121.314 13.323V13.7508H123.901V24.6604H124.219C124.102 24.8049 123.982 24.9483 123.86 25.0918C123.615 25.3782 123.359 25.6616 123.093 25.9414H123.094Z"
            fill="#012E5F" />
        <path
            d="M123.071 25.9548C122.01 27.0689 120.882 28.0177 119.749 28.7798C119.465 28.97 119.182 29.1491 118.9 29.316V29.0016H110.475V29.0326C110.302 28.6638 110.188 28.2527 110.13 27.8081C110.014 26.9194 110.122 25.8953 110.435 24.8021C111.062 22.6151 112.51 20.1478 114.631 17.9195C116.752 15.6913 119.145 14.124 121.299 13.3904V13.7506H123.901V24.679H124.192C124.075 24.8229 123.956 24.9659 123.834 25.1083C123.591 25.3932 123.336 25.6755 123.071 25.9538V25.9548Z"
            fill="#012F60" />
        <path
            d="M123.049 25.9673C121.993 27.0768 120.869 28.0215 119.742 28.78C119.46 28.9698 119.177 29.1478 118.896 29.3137V29.0008H110.507V29.0318C110.336 28.6645 110.222 28.2555 110.164 27.8129C110.049 26.9277 110.156 25.9088 110.468 24.8196C111.092 22.6417 112.534 20.1856 114.646 17.9671C116.758 15.7485 119.14 14.1878 121.285 13.4578V13.7508H123.902V24.6975H124.166C124.05 24.8405 123.931 24.9829 123.81 25.1248C123.567 25.4087 123.313 25.6895 123.049 25.9668L123.049 25.9673Z"
            fill="#023061" />
        <path
            d="M123.026 25.9807C121.975 27.0852 120.856 28.0258 119.733 28.7813C119.453 28.97 119.172 29.1475 118.891 29.3129V29.001H110.539V29.0321C110.368 28.6663 110.255 28.2588 110.197 27.8182C110.082 26.9371 110.189 25.9222 110.5 24.8381C111.121 22.67 112.556 20.224 114.659 18.0151C116.762 15.8063 119.135 14.2521 121.27 13.5251V13.751H123.901V24.7166H124.138C124.022 24.859 123.904 25.0009 123.783 25.1424C123.542 25.4247 123.289 25.7045 123.026 25.9807Z"
            fill="#033163" />
        <path
            d="M123.003 25.9937C121.956 27.0935 120.842 28.0301 119.725 28.7825C119.445 28.9707 119.166 29.1473 118.886 29.3116V29.0013H110.57V29.0323C110.4 28.668 110.287 28.2626 110.23 27.8241C110.116 26.9465 110.222 25.9362 110.532 24.8567C111.15 22.6977 112.579 20.2629 114.673 18.0632C116.767 15.864 119.129 14.3164 121.255 13.5925V13.7507H123.902V24.7351H124.111C123.996 24.877 123.878 25.0185 123.758 25.1589C123.517 25.4402 123.266 25.719 123.004 25.9937H123.003Z"
            fill="#033264" />
        <path
            d="M122.98 26.0071C121.938 27.1019 120.829 28.0344 119.716 28.7837C119.438 28.9709 119.159 29.147 118.881 29.3108V29.0015H110.601V29.0325C110.432 28.6698 110.32 28.2664 110.262 27.8294C110.148 26.9559 110.254 25.9496 110.562 24.8747C111.178 22.7253 112.601 20.3008 114.686 18.1112C116.771 15.9217 119.122 14.3808 121.239 13.6604V13.7515H123.9V24.7546H124.082C123.967 24.8961 123.85 25.0365 123.73 25.1764C123.491 25.4567 123.24 25.7339 122.98 26.0076L122.98 26.0071Z"
            fill="#043366" />
        <path
            d="M122.959 26.0206C121.921 27.1108 120.816 28.0392 119.708 28.785C119.431 28.9712 119.154 29.1462 118.878 29.3095V29.0017H110.634V29.0327C110.465 28.6715 110.353 28.2696 110.296 27.8347C110.183 26.9648 110.288 25.9631 110.595 24.8932C111.208 22.753 112.625 20.3392 114.7 18.1593C116.776 15.9789 119.117 14.4451 121.225 13.7278V13.7517H123.901V24.7732H124.055C123.941 24.9136 123.825 25.054 123.705 25.1934C123.467 25.4722 123.217 25.7484 122.958 26.0211L122.959 26.0206Z"
            fill="#053467" />
        <path
            d="M122.936 26.0337C121.902 27.1188 120.803 28.0437 119.7 28.7859C119.424 28.9716 119.148 29.1456 118.872 29.3084V29.0016H110.665V29.0321C110.497 28.6725 110.386 28.2726 110.329 27.8397C110.216 26.9738 110.321 25.9767 110.626 24.911C111.237 22.7804 112.648 20.3772 114.714 18.2065C116.781 16.0358 119.111 14.5086 121.209 13.7943C121.734 13.6158 122.244 13.4881 122.732 13.4138V13.7511H123.901V24.7914H124.028C123.914 24.9313 123.798 25.0707 123.679 25.2096C123.442 25.4873 123.193 25.7621 122.936 26.0337Z"
            fill="#053569" />
        <path
            d="M122.913 26.0468C121.884 27.1274 120.79 28.0476 119.691 28.7868C119.417 28.9715 119.142 29.145 118.868 29.3067V29.0015H110.697V29.032C110.529 28.6744 110.419 28.2755 110.362 27.8447C110.25 26.9824 110.354 25.9899 110.658 24.9292C111.265 22.8078 112.67 20.4153 114.727 18.2542C116.785 16.0932 119.105 14.5731 121.194 13.8619C122.239 13.5063 123.225 13.3532 124.092 13.4234L123.901 13.751V24.3904H124.331C123.901 24.9516 123.427 25.5066 122.913 26.0468H122.913Z"
            fill="#06366A" />
        <path
            d="M122.891 26.0602C121.867 27.1362 120.777 28.0524 119.683 28.788C119.41 28.9722 119.136 29.1446 118.863 29.3059V29.0017H110.728V29.0322C110.562 28.6761 110.451 28.2793 110.395 27.8499C110.283 26.9917 110.387 26.0033 110.69 24.9472C111.295 22.8355 112.693 20.4536 114.741 18.3022C116.79 16.1508 119.1 14.6374 121.179 13.9292C122.219 13.5752 123.201 13.4225 124.064 13.4927L123.9 13.7512V24.411H124.302C123.874 24.9701 123.402 25.522 122.89 26.0597L122.891 26.0602Z"
            fill="#07376C" />
        <path
            d="M122.868 26.0735C121.849 27.1444 120.764 28.0565 119.675 28.7891C119.403 28.9722 119.131 29.1442 118.859 29.3044V29.0017H110.761V29.0322C110.595 28.6777 110.485 28.2829 110.429 27.8556C110.318 27.0009 110.421 26.017 110.722 24.966C111.325 22.8635 112.717 20.4923 114.756 18.3506C116.795 16.2089 119.094 14.702 121.165 13.9974C122.2 13.6449 123.178 13.4933 124.037 13.5625L123.901 13.7517V24.4324H124.274C123.847 24.9889 123.378 25.5383 122.868 26.074V26.0735Z"
            fill="#07386D" />
        <path
            d="M122.845 26.0865C121.83 27.1527 120.75 28.0608 119.667 28.7898C119.396 28.9719 119.124 29.1434 118.854 29.3031V29.0014H110.792V29.032C110.627 28.6789 110.518 28.2857 110.462 27.8604C110.352 27.0098 110.454 26.03 110.754 24.9836C111.354 22.8907 112.739 20.5297 114.77 18.3976C116.8 16.2656 119.089 14.7653 121.15 14.0638C122.181 13.7128 123.154 13.5617 124.009 13.6309L123.901 13.7509V24.4519H124.245C123.82 25.0059 123.353 25.5533 122.846 26.086L122.845 26.0865Z"
            fill="#08396E" />
        <path
            d="M122.823 26.0997C121.812 27.1609 120.738 28.0649 119.659 28.7908C119.389 28.9724 119.119 29.1429 118.85 29.3016V29.0014H110.824V29.032C110.659 28.6804 110.551 28.2892 110.495 27.8655C110.385 27.0184 110.487 26.0432 110.786 25.0018C111.383 22.9181 112.762 20.5683 114.783 18.4454C116.804 16.323 119.083 14.8294 121.135 14.1309C122.161 13.782 123.13 13.6314 123.981 13.7001L123.901 13.7509V24.4728H124.216C123.793 25.0242 123.328 25.5691 122.823 26.0997H122.823Z"
            fill="#093A70" />
        <path
            d="M122.801 26.1128C121.795 27.1694 120.725 28.0694 119.651 28.7918C119.382 28.9724 119.114 29.1423 118.845 29.3V29.0009H110.856V29.0314C110.693 28.6814 110.584 28.2917 110.529 27.8705C110.419 27.0275 110.522 26.0569 110.818 25.0196C111.412 22.9455 112.786 20.6059 114.798 18.4932C116.809 16.3799 119.078 14.8934 121.121 14.1985C122.142 13.8511 123.106 13.701 123.954 13.7697H123.902V24.4936H124.188C123.767 25.0425 123.304 25.5848 122.801 26.1133L122.801 26.1128Z"
            fill="#093B71" />
        <path
            d="M122.778 26.1263C121.776 27.1778 120.711 28.0737 119.642 28.793C119.375 28.9731 119.107 29.1415 118.84 29.2992V29.0016H110.887V29.0321C110.724 28.6836 110.616 28.296 110.562 27.8763C110.452 27.0369 110.554 26.0708 110.85 25.0386C111.441 22.9737 112.808 20.6453 114.81 18.5417C116.813 16.4382 119.071 14.9583 121.105 14.2664C122.121 13.9205 123.082 13.7714 123.925 13.8396H123.901V24.5147H124.158C123.739 25.061 123.278 25.6008 122.777 26.1268L122.778 26.1263Z"
            fill="#0A3C73" />
        <path
            d="M122.755 26.1395C121.759 27.1865 120.698 28.0783 119.634 28.794C119.368 28.9731 119.101 29.141 118.835 29.2977V29.0011H110.918V29.0311C110.756 28.6841 110.649 28.2985 110.595 27.8809C110.485 27.0455 110.587 26.0836 110.881 25.0559C111.47 23.0007 112.83 20.6824 114.824 18.5885C116.817 16.4946 119.066 15.0219 121.09 14.3325C122.102 13.9881 123.058 13.8396 123.898 13.9078C124.003 13.9164 124.106 13.9281 124.207 13.9434H123.901V24.534H124.13C123.713 25.0778 123.254 25.6155 122.756 26.139L122.755 26.1395Z"
            fill="#0B3D74" />
        <path
            d="M122.733 26.1527C121.741 27.1945 120.685 28.0823 119.625 28.7955C119.36 28.9736 119.095 29.1409 118.831 29.2971V29.002H110.951V29.0321C110.789 28.6871 110.682 28.3025 110.629 27.8869C110.52 27.0552 110.621 26.0977 110.914 25.0747C111.5 23.0286 112.855 20.721 114.839 18.6373C116.823 16.5531 119.061 15.0869 121.076 14.4012C122.083 14.0583 123.034 13.9103 123.87 13.9779C123.974 13.9866 124.077 13.9983 124.178 14.0135H123.901V24.5558H124.101C123.685 25.0971 123.229 25.6323 122.733 26.1532V26.1527Z"
            fill="#0B3E75" />
        <path
            d="M122.711 26.1657C121.723 27.203 120.672 28.0866 119.618 28.7963C119.354 28.9739 119.09 29.1402 118.827 29.2954V29.0013H110.983V29.0313C110.822 28.688 110.716 28.3054 110.662 27.8913C110.553 27.0636 110.654 26.1103 110.945 25.0923C111.529 23.0559 112.877 20.759 114.852 18.6844C116.827 16.6098 119.056 15.1503 121.061 14.4676C122.064 14.1263 123.011 13.9792 123.843 14.0464C123.946 14.055 124.049 14.0667 124.149 14.0815H123.902V24.5749H124.072C123.659 25.1137 123.204 25.6463 122.71 26.1652L122.711 26.1657Z"
            fill="#0C3F77" />
        <path
            d="M122.688 26.1791C121.705 27.2118 120.659 28.0909 119.609 28.7975C119.347 28.974 119.084 29.1399 118.822 29.2945V29.002H111.014V29.032C110.854 28.6902 110.749 28.3091 110.695 27.8976C110.587 27.0739 110.687 26.1252 110.977 25.1113C111.558 23.084 112.9 20.7978 114.866 18.7329C116.832 16.668 119.05 15.2151 121.046 14.5354C122.044 14.1956 122.986 14.0491 123.815 14.1163C123.918 14.1244 124.02 14.1361 124.12 14.1514H123.902V24.5965H124.043C123.631 25.1327 123.179 25.6627 122.688 26.1791Z"
            fill="#0C4078" />
        <path
            d="M122.665 26.1923C121.687 27.22 120.645 28.0955 119.601 28.7985C119.34 28.974 119.078 29.1394 118.817 29.293V29.0015H111.046V29.0315C110.886 28.6912 110.782 28.3122 110.728 27.9022C110.62 27.0821 110.72 26.1379 111.009 25.1291C111.587 23.1115 112.923 20.836 114.879 18.7802C116.836 16.725 119.043 15.2787 121.03 14.6026C122.024 14.2643 122.962 14.1188 123.786 14.1855C123.889 14.1936 123.991 14.2053 124.09 14.2206H123.901V24.6168H124.014C123.604 25.151 123.154 25.6785 122.665 26.1923Z"
            fill="#0D4179" />
        <path
            d="M122.642 26.2048C121.669 27.2278 120.632 28.0987 119.593 28.7987C119.333 28.9737 119.072 29.1381 118.813 29.2912V29.0012H111.077V29.0312C110.919 28.6924 110.814 28.3155 110.761 27.907C110.654 27.091 110.753 26.1508 111.04 25.1466C111.616 23.1382 112.945 20.8733 114.893 18.8278C116.841 16.7817 119.038 15.3425 121.015 14.6695C122.004 14.3327 122.937 14.1877 123.758 14.2543C123.861 14.2625 123.961 14.2742 124.06 14.2894H123.9V24.6374H123.984C123.577 25.169 123.129 25.694 122.642 26.2053L122.642 26.2048Z"
            fill="#0E427B" />
        <path
            d="M122.619 26.2183C121.65 27.2362 120.619 28.1036 119.584 28.8C119.325 28.974 119.066 29.1373 118.808 29.2899V29.001H111.109V29.031C110.951 28.6937 110.847 28.3183 110.794 27.9123C110.687 27.0999 110.786 26.1643 111.072 25.1652C111.645 23.1664 112.968 20.9123 114.907 18.8758C116.845 16.8394 119.032 15.4069 121 14.7369C121.984 14.4016 122.914 14.2577 123.73 14.3238C123.934 14.3401 124.132 14.3701 124.321 14.4133H123.9V24.658H123.955C123.55 25.1871 123.104 25.7095 122.619 26.2188L122.619 26.2183Z"
            fill="#0E437C" />
        <path
            d="M122.597 26.2314C121.633 27.2448 120.606 28.1076 119.576 28.801C119.319 28.9745 119.061 29.1368 118.804 29.2889V29.0014H111.141V29.0314C110.984 28.6957 110.881 28.3223 110.828 27.9179C110.722 27.1095 110.82 26.178 111.105 25.1835C111.675 23.1944 112.992 20.9504 114.921 18.9236C116.851 16.8969 119.027 15.4714 120.986 14.8045C121.965 14.4713 122.89 14.3273 123.703 14.3929C123.906 14.4092 124.103 14.4387 124.291 14.482H123.902V24.6783H123.928C123.524 25.2048 123.08 25.7247 122.597 26.2314Z"
            fill="#0F447D" />
        <path
            d="M122.575 26.2447C121.615 27.253 120.594 28.1122 119.568 28.8021C119.312 28.9745 119.055 29.1363 118.799 29.2874V29.001H111.172V29.031C111.016 28.6967 110.913 28.3249 110.861 27.9225C110.755 27.1177 110.853 26.1913 111.137 25.2013C111.704 23.2214 113.015 20.9881 114.935 18.971C116.855 16.9539 119.021 15.5351 120.971 14.8712C121.946 14.5395 122.866 14.3965 123.675 14.4616C123.878 14.4779 124.073 14.5074 124.26 14.5502H123.902V24.3044H124.193C124.097 24.4362 123.999 24.5674 123.899 24.6982C123.497 25.2222 123.055 25.74 122.575 26.2442L122.575 26.2447Z"
            fill="#0F457F" />
        <path
            d="M122.553 26.2581C121.597 27.2618 120.58 28.117 119.56 28.8032C119.305 28.9747 119.049 29.1359 118.795 29.2865V29.0016H111.204V29.0311C111.049 28.6984 110.946 28.3286 110.894 27.9282C110.789 27.1275 110.886 26.2052 111.168 25.2198C111.733 23.2495 113.037 21.0269 114.949 19.0195C116.86 17.012 119.015 15.5998 120.956 14.939C121.926 14.6088 122.843 14.4664 123.648 14.5315C123.849 14.5478 124.044 14.5773 124.23 14.6195H123.902V24.3275H124.163C124.068 24.4587 123.97 24.5895 123.87 24.7197C123.47 25.2412 123.03 25.7565 122.553 26.2581Z"
            fill="#104680" />
        <path
            d="M122.53 26.2713C121.579 27.2704 120.567 28.121 119.551 28.8042C119.297 28.9751 119.043 29.1354 118.789 29.2849V29.0011H111.235V29.0306C111.081 28.6999 110.979 28.3316 110.927 27.9328C110.822 27.1356 110.919 26.2178 111.2 25.2375C111.761 23.2764 113.06 21.0645 114.962 19.0667C116.864 17.069 119.009 15.6634 120.94 15.0061C121.906 14.6775 122.818 14.5355 123.619 14.6006C123.82 14.6169 124.013 14.6459 124.199 14.6881H123.901V24.3493H124.132C124.037 24.4795 123.94 24.6098 123.841 24.7395C123.443 25.2584 123.005 25.7712 122.529 26.2708L122.53 26.2713Z"
            fill="#114781" />
        <path
            d="M122.507 26.2845C121.56 27.2786 120.553 28.1256 119.543 28.8052C119.29 28.9752 119.037 29.1349 118.785 29.2834V29.0011H111.267V29.0306C111.113 28.7015 111.012 28.3347 110.96 27.9384C110.856 27.1453 110.952 26.2316 111.232 25.2559C111.791 23.3044 113.083 21.1032 114.976 19.1146C116.869 17.1265 119.004 15.7275 120.926 15.0733C121.887 14.7462 122.795 14.6052 123.592 14.6698C123.791 14.6861 123.983 14.7151 124.168 14.7568H123.901V24.3717H124.101C124.007 24.5014 123.911 24.6312 123.812 24.7599C123.416 25.2762 122.98 25.7865 122.507 26.284L122.507 26.2845Z"
            fill="#114882" />
        <path
            d="M122.485 26.2974C121.543 27.2869 120.541 28.1294 119.535 28.806C119.284 28.9754 119.032 29.1341 118.781 29.2821V29.0008H111.299V29.0303C111.146 28.7027 111.045 28.3379 110.994 27.9432C110.89 27.1536 110.986 26.2445 111.264 25.2734C111.821 23.3311 113.106 21.1405 114.99 19.1621C116.874 17.1837 118.999 15.7913 120.911 15.1401C121.868 14.8145 122.77 14.6741 123.564 14.7387C123.763 14.755 123.954 14.7835 124.138 14.8257H123.901V24.3943H124.071C123.978 24.5235 123.882 24.6522 123.783 24.7809C123.389 25.2947 122.956 25.803 122.485 26.2974Z"
            fill="#124884" />
        <path
            d="M122.462 26.311C121.525 27.2953 120.527 28.1342 119.526 28.8073C119.276 28.9757 119.026 29.1339 118.776 29.2809V29.0011H111.331V29.0306C111.179 28.7045 111.077 28.3413 111.027 27.9485C110.924 27.1631 111.019 26.2586 111.296 25.292C111.85 23.3594 113.13 21.179 115.004 19.2102C116.879 17.2409 118.993 15.8557 120.897 15.2081C121.849 14.884 122.748 14.7446 123.537 14.8082C123.734 14.824 123.925 14.853 124.108 14.8947H123.902V24.0304H124.313C124.137 24.2883 123.951 24.5457 123.755 24.8011C123.363 25.3123 122.931 25.818 122.463 26.3105L122.462 26.311Z"
            fill="#124985" />
        <path
            d="M122.439 26.3241C121.506 27.3039 120.514 28.1382 119.518 28.8087C119.269 28.9761 119.02 29.1333 118.771 29.2803V29.0015H111.362V29.031C111.21 28.7065 111.11 28.3453 111.059 27.9546C110.956 27.1727 111.051 26.2727 111.327 25.3107C111.878 23.3873 113.151 21.2181 115.016 19.2585C116.882 17.2989 118.986 15.9207 120.88 15.2757C121.827 14.9531 122.722 14.8143 123.507 14.8778C123.703 14.8936 123.893 14.9221 124.075 14.9638H123.9V24.0552H124.28C124.105 24.3116 123.92 24.568 123.724 24.8224C123.334 25.3316 122.905 25.8342 122.438 26.3241H122.439Z"
            fill="#134A86" />
        <path
            d="M122.417 26.3374C121.489 27.3121 120.501 28.1428 119.51 28.8098C119.263 28.9766 119.014 29.1328 118.767 29.2788V29.0015H111.394V29.0311C111.243 28.708 111.143 28.3489 111.093 27.9597C110.991 27.1818 111.085 26.286 111.36 25.3291C111.908 23.4153 113.175 21.2562 115.032 19.3063C116.888 17.3564 118.982 15.9848 120.867 15.3428C121.809 15.0218 122.699 14.884 123.481 14.9471C123.676 14.9628 123.865 14.9913 124.046 15.0325H123.902V24.0791H124.25C124.076 24.3345 123.891 24.5894 123.697 24.8422C123.309 25.3489 122.882 25.849 122.417 26.3369V26.3374Z"
            fill="#134B87" />
        <path
            d="M122.394 26.3507C121.471 27.3209 120.488 28.147 119.502 28.8109C119.255 28.9768 119.008 29.1324 118.762 29.2779V29.0017H111.426V29.0312C111.276 28.7097 111.176 28.352 111.126 27.9649C111.024 27.1906 111.118 26.2993 111.391 25.347C111.936 23.4424 113.198 21.2945 115.045 19.3543C116.892 17.414 118.976 16.0491 120.851 15.4106C121.788 15.0917 122.674 14.9538 123.452 15.0169C123.647 15.0327 123.835 15.0611 124.015 15.1018H123.901V24.1042H124.218C124.045 24.3581 123.861 24.6119 123.668 24.8637C123.281 25.3679 122.856 25.8659 122.394 26.3507Z"
            fill="#144C88" />
        <path
            d="M122.371 26.3639C121.452 27.3294 120.474 28.1515 119.493 28.8119C119.248 28.9767 119.002 29.1318 118.757 29.2763V29.0016H111.457V29.0311C111.308 28.7111 111.209 28.3555 111.159 27.9704C111.058 27.2002 111.151 26.313 111.423 25.3658C111.965 23.4708 113.22 21.3331 115.058 19.4025C116.896 17.4719 118.97 16.1136 120.836 15.4782C121.769 15.1608 122.651 15.0234 123.425 15.0865C123.618 15.1023 123.805 15.1303 123.985 15.1715H123.901V24.1291H124.186C124.014 24.3819 123.831 24.6342 123.639 24.885C123.254 25.3866 122.831 25.8821 122.371 26.3649V26.3639Z"
            fill="#144D8A" />
        <path
            d="M122.349 26.3769C121.434 27.3374 120.462 28.1554 119.485 28.8127C119.241 28.977 118.996 29.1312 118.753 29.2751V29.0014H111.489V29.0304C111.34 28.7125 111.242 28.3579 111.192 27.9748C111.091 27.2082 111.184 26.3261 111.455 25.3829C111.995 23.497 113.243 21.3701 115.072 19.4491C116.901 17.5282 118.964 16.1765 120.821 15.5442C121.749 15.2283 122.626 15.0919 123.396 15.1545C123.589 15.1703 123.775 15.1982 123.953 15.2389H123.901V24.1523H124.154C123.982 24.4041 123.801 24.6549 123.61 24.9042C123.227 25.4032 122.806 25.8962 122.349 26.3764V26.3769Z"
            fill="#154E8B" />
        <path
            d="M122.326 26.3904C121.416 27.3463 120.448 28.1602 119.477 28.8139C119.234 28.9772 118.991 29.1309 118.749 29.2738V29.0016H111.521V29.0306C111.373 28.7142 111.275 28.3617 111.226 27.9806C111.126 27.2181 111.218 26.34 111.487 25.4019C112.024 23.5257 113.267 21.4095 115.087 19.4977C116.907 17.5864 118.959 16.2413 120.807 15.6125C121.731 15.2982 122.603 15.1623 123.37 15.2244C123.562 15.2397 123.746 15.2676 123.924 15.3083H123.901V24.1769H124.123C123.952 24.4272 123.771 24.677 123.581 24.9252C123.2 25.4218 122.781 25.9127 122.326 26.3904Z"
            fill="#154E8C" />
        <path
            d="M122.304 26.4033C121.398 27.3541 120.435 28.164 119.469 28.8147C119.227 28.9775 118.985 29.1301 118.744 29.2725V29.0019H111.553V29.0309C111.406 28.716 111.308 28.3655 111.259 27.986C111.159 27.227 111.251 26.3535 111.519 25.42C112.054 23.553 113.29 21.4474 115.1 19.5457C116.911 17.6436 118.954 16.3057 120.792 15.68C121.711 15.3671 122.579 15.2323 123.342 15.2938C123.533 15.3091 123.717 15.3371 123.894 15.3773C123.982 15.3976 124.069 15.4205 124.153 15.447H123.902V24.2011H124.093C123.922 24.4504 123.743 24.6986 123.553 24.9458C123.174 25.4398 122.757 25.9282 122.305 26.4033H122.304Z"
            fill="#164F8D" />
        <path
            d="M122.282 26.4168C121.381 27.363 120.422 28.1688 119.461 28.8159C119.22 28.9777 118.979 29.1298 118.739 29.2712V29.0016H111.584V29.0306C111.438 28.7172 111.341 28.3682 111.292 27.9907C111.193 27.2358 111.284 26.3664 111.551 25.438C112.083 23.5806 113.312 21.4857 115.114 19.5933C116.916 17.7008 118.948 16.3695 120.777 15.7473C121.691 15.436 122.555 15.3017 123.314 15.3632C123.504 15.3785 123.687 15.4059 123.862 15.4461C123.95 15.466 124.036 15.4894 124.12 15.5158H123.901V24.2257H124.06C123.89 24.4734 123.711 24.7207 123.523 24.9664C123.146 25.4578 122.731 25.9436 122.281 26.4168H122.282Z"
            fill="#17508E" />
        <path
            d="M122.258 26.43C121.362 27.3711 120.408 28.1729 119.451 28.8169C119.212 28.9777 118.973 29.1288 118.734 29.2702V29.0021H111.616V29.0311C111.47 28.7192 111.373 28.3723 111.325 27.9969C111.226 27.246 111.317 26.3806 111.582 25.4568C112.112 23.6086 113.335 21.5244 115.127 19.6416C116.92 17.7588 118.941 16.4346 120.761 15.815C121.672 15.5051 122.531 15.3719 123.286 15.4329C123.663 15.4634 124.015 15.5428 124.333 15.673H123.901V24.2506H124.028C123.86 24.4973 123.682 24.7431 123.494 24.9878C123.119 25.4766 122.706 25.9599 122.258 26.4305V26.43Z"
            fill="#17518F" />
        <path
            d="M122.237 26.443C121.345 27.3795 120.397 28.1772 119.444 28.8177C119.206 28.9779 118.968 29.128 118.731 29.2684V29.0013H111.648V29.0303C111.503 28.72 111.407 28.3746 111.359 28.0012C111.261 27.2539 111.351 26.3936 111.615 25.4738C112.142 23.6353 113.359 21.5612 115.142 19.6881C116.925 17.815 118.937 16.4974 120.747 15.8808C121.652 15.5726 122.507 15.4398 123.259 15.5008C123.634 15.5313 123.984 15.6102 124.301 15.7394H123.902V24.2732H123.998C123.83 24.5185 123.653 24.7631 123.466 25.0063C123.093 25.4927 122.683 25.9739 122.237 26.4419V26.443Z"
            fill="#185290" />
        <path
            d="M122.213 26.456C121.326 27.388 120.382 28.1816 119.435 28.8185C119.199 28.9777 118.961 29.1273 118.725 29.2667V29.0011H111.679V29.0301C111.535 28.7213 111.439 28.3779 111.391 28.0061C111.293 27.2628 111.384 26.4066 111.646 25.4919C112.169 23.6626 113.381 21.5997 115.155 19.7362C116.929 17.8728 118.93 16.5618 120.731 15.9488C121.632 15.642 122.483 15.5103 123.23 15.5703C123.604 15.6003 123.952 15.6792 124.267 15.8079H123.901V24.2985H123.965C123.798 24.5427 123.622 24.7858 123.437 25.028C123.065 25.5123 122.657 25.9905 122.214 26.4565L122.213 26.456Z"
            fill="#185291" />
        <path
            d="M122.191 26.4689C121.309 27.3958 120.37 28.1853 119.427 28.8192C119.192 28.9779 118.956 29.1265 118.721 29.2654V29.0008H111.711V29.0298C111.568 28.7225 111.473 28.3812 111.425 28.0113C111.328 27.2717 111.417 26.4201 111.678 25.51C112.2 23.6903 113.405 21.6376 115.169 19.7838C116.934 17.93 118.925 16.6256 120.717 16.0157C121.613 15.7104 122.459 15.5792 123.203 15.6392C123.574 15.6692 123.92 15.747 124.234 15.8752H123.902V24.3221H123.934C123.768 24.5647 123.593 24.8069 123.408 25.048C123.039 25.5298 122.633 26.0055 122.191 26.4689Z"
            fill="#195393" />
        <path
            d="M122.168 26.4825C121.29 27.4048 120.356 28.1903 119.419 28.8211C119.184 28.9788 118.95 29.1269 118.716 29.2647V29.0017H111.742V29.0302C111.6 28.725 111.505 28.3846 111.457 28.0168C111.36 27.2812 111.45 26.4337 111.709 25.5287C112.227 23.7181 113.426 21.6766 115.182 19.832C116.938 17.9879 118.919 16.6901 120.701 16.0832C121.592 15.78 122.434 15.6488 123.174 15.7088C123.544 15.7388 123.888 15.8161 124.2 15.9438H123.9V24.3469H123.901C123.737 24.5886 123.562 24.8292 123.378 25.0688C123.011 25.548 122.606 26.0211 122.168 26.4825H122.168Z"
            fill="#195494" />
        <path
            d="M122.146 26.4955C121.272 27.4127 120.343 28.1941 119.411 28.8219C119.178 28.9786 118.944 29.1261 118.712 29.2635V29.0015H111.774V29.03C111.632 28.7263 111.538 28.388 111.491 28.0217C111.395 27.2896 111.484 26.4467 111.742 25.5462C112.258 23.7454 113.45 21.714 115.197 19.8796C116.943 18.0451 118.913 16.754 120.687 16.1506C121.573 15.8489 122.411 15.7187 123.147 15.7782C123.515 15.8082 123.857 15.8851 124.168 16.0122H123.901V23.6497H124.335C123.754 24.6122 123.019 25.5783 122.146 26.496V26.4955Z"
            fill="#195595" />
        <path
            d="M122.123 26.5087C121.254 27.4213 120.33 28.1986 119.402 28.8228C119.17 28.979 118.938 29.1255 118.707 29.2619V29.0014H111.806V29.0299C111.664 28.7277 111.571 28.3909 111.524 28.0272C111.428 27.2992 111.517 26.4603 111.773 25.565C112.287 23.7733 113.472 21.7526 115.21 19.9278C116.948 18.1025 118.908 16.8185 120.672 16.2182C121.554 15.9181 122.387 15.7883 123.119 15.8479C123.485 15.8774 123.826 15.9542 124.134 16.0803H123.901V23.6781H124.3C123.722 24.6355 122.991 25.597 122.123 26.5092V26.5087Z"
            fill="#1A5596" />
        <path
            d="M122.101 26.5219C121.237 27.4295 120.318 28.2028 119.395 28.8239C119.164 28.9791 118.934 29.1251 118.703 29.2609V29.0014H111.838V29.0299C111.698 28.7293 111.605 28.3945 111.558 28.0323C111.463 27.3079 111.551 26.4741 111.806 25.5828C112.316 23.8008 113.496 21.7908 115.224 19.9752C116.953 18.1595 118.903 16.8826 120.657 16.2849C121.535 15.9863 122.363 15.8576 123.091 15.9166C123.456 15.9461 123.794 16.0224 124.102 16.148H123.902V23.7056H124.267C123.693 24.658 122.966 25.6144 122.101 26.5219Z"
            fill="#1A5697" />
        <path
            d="M122.078 26.5354C121.218 27.4383 120.304 28.2075 119.386 28.8251C119.156 28.9798 118.926 29.1243 118.697 29.2596V29.0017H111.869V29.0301C111.729 28.731 111.637 28.3983 111.59 28.0381C111.495 27.3178 111.583 26.4881 111.837 25.6019C112.345 23.829 113.518 21.8297 115.238 20.0237C116.957 18.2177 118.896 16.9475 120.642 16.3533C121.515 16.0562 122.339 15.928 123.063 15.9865C123.426 16.016 123.762 16.0918 124.068 16.2164H123.901V23.7338H124.233C123.661 24.6811 122.938 25.6324 122.078 26.5354H122.078Z"
            fill="#1B5798" />
        <path
            d="M122.056 26.5486C121.201 27.4465 120.291 28.2116 119.378 28.8262C119.15 28.9798 118.921 29.1238 118.693 29.2586V29.0017H111.901V29.0302C111.762 28.7326 111.67 28.4014 111.624 28.0432C111.53 27.3264 111.617 26.5013 111.869 25.6197C112.374 23.8564 113.542 21.8678 115.252 20.0715C116.962 18.2752 118.891 17.0116 120.627 16.4204C121.496 16.1249 122.315 15.9977 123.036 16.0557C123.396 16.0847 123.731 16.1605 124.035 16.2846H123.902V23.7623H124.199C123.63 24.7045 122.911 25.6507 122.056 26.5491V26.5486Z"
            fill="#1B5799" />
        <path
            d="M122.034 26.5615C121.183 27.4549 120.278 28.2159 119.37 28.8269C119.143 28.9795 118.916 29.123 118.689 29.2568V29.0014H111.933V29.0299C111.794 28.7338 111.703 28.4046 111.657 28.048C111.563 27.3353 111.65 26.5142 111.901 25.6377C112.404 23.8836 113.565 21.9057 115.266 20.1191C116.967 18.3324 118.886 17.0754 120.613 16.4873C121.476 16.1932 122.292 16.0666 123.008 16.1246C123.366 16.1536 123.7 16.2289 124.002 16.3525H123.902V23.79H124.165C123.599 24.7271 122.884 25.6682 122.034 26.5615Z"
            fill="#1C589A" />
        <path
            d="M122.011 26.575C121.165 27.4637 120.265 28.2202 119.361 28.8281C119.135 28.9802 118.909 29.1227 118.684 29.256V29.0016H111.964V29.0301C111.827 28.7356 111.736 28.4079 111.69 28.0539C111.597 27.3447 111.683 26.5282 111.933 25.6563C112.432 23.9118 113.588 21.9441 115.279 20.1671C116.971 18.3902 118.879 17.1397 120.597 16.5552C121.456 16.2627 122.267 16.137 122.98 16.1945C123.336 16.2235 123.668 16.2983 123.969 16.4209H123.901V23.8187H124.131C123.568 24.7507 122.857 25.6868 122.011 26.5755V26.575Z"
            fill="#1C599B" />
        <path
            d="M121.988 26.588C121.146 27.4716 120.251 28.2245 119.352 28.8289C119.128 28.98 118.903 29.1219 118.679 29.2542V29.0013H111.996V29.0298C111.859 28.7373 111.768 28.4112 111.723 28.0587C111.631 27.3536 111.716 26.5417 111.965 25.6738C112.462 23.939 113.61 21.982 115.293 20.2142C116.976 18.4469 118.874 17.203 120.583 16.6216C121.437 16.3306 122.243 16.2054 122.953 16.2629C123.307 16.2914 123.637 16.3662 123.936 16.4883H123.901V23.8459H124.097C123.537 24.7728 122.829 25.7043 121.988 26.588H121.988Z"
            fill="#1D5A9C" />
        <path
            d="M121.965 26.6014C121.128 27.4804 120.238 28.2288 119.344 28.8301C119.121 28.9802 118.897 29.1216 118.674 29.2533V29.0015H112.027V29.0295C111.891 28.7385 111.801 28.4145 111.756 28.0634C111.664 27.3619 111.749 26.5546 111.996 25.6918C112.491 23.9662 113.633 22.0198 115.306 20.2622C116.98 18.504 118.868 17.2673 120.567 16.6889C121.417 16.3994 122.219 16.2748 122.924 16.3323C123.277 16.3608 123.605 16.4345 123.902 16.5561H123.901V23.8741H124.063C123.506 24.7959 122.802 25.7223 121.965 26.6009L121.965 26.6014Z"
            fill="#1D5A9D" />
        <path
            d="M121.942 26.6144C121.11 27.4884 120.225 28.2331 119.336 28.8309C119.114 28.9805 118.891 29.1209 118.67 29.2516V29.0013H112.059V29.0293C111.923 28.7398 111.834 28.4173 111.789 28.0688C111.698 27.3714 111.782 26.5681 112.028 25.7099C112.519 23.9939 113.656 22.0583 115.32 20.3098C116.985 18.5613 118.862 17.3317 120.552 16.7563C121.397 16.4689 122.195 16.3448 122.896 16.4012C123.247 16.4297 123.573 16.503 123.869 16.6241C124.017 16.6846 124.157 16.7568 124.289 16.8413H123.901V23.9024H124.028C123.475 24.8191 122.774 25.7404 121.942 26.6144Z"
            fill="#1E5B9E" />
        <path
            d="M121.92 26.6278C121.093 27.4972 120.212 28.2374 119.328 28.8321C119.108 28.9807 118.886 29.1206 118.665 29.2503V29.001H112.091V29.029C111.957 28.7411 111.868 28.4206 111.823 28.0736C111.732 27.3797 111.816 26.581 112.061 25.7279C112.55 24.0211 113.679 22.0961 115.335 20.3573C116.99 18.6185 118.857 17.3955 120.538 16.8232C121.378 16.5373 122.172 16.4137 122.87 16.4701C123.218 16.4981 123.543 16.5714 123.837 16.6919C123.984 16.752 124.124 16.8237 124.255 16.9076H123.902V23.9295H123.996C123.445 24.8417 122.749 25.7574 121.921 26.6268L121.92 26.6278Z"
            fill="#1E5C9E" />
        <path
            d="M121.898 26.6408C121.075 27.5051 120.199 28.2417 119.32 28.8329C119.1 28.9809 118.881 29.1193 118.661 29.249V29.0013H112.123V29.0293C111.989 28.7428 111.901 28.4239 111.856 28.079C111.766 27.3891 111.849 26.5945 112.092 25.746C112.579 24.0489 113.702 22.134 115.349 20.4054C116.995 18.6762 118.852 17.4599 120.523 16.8906C121.359 16.6062 122.148 16.4836 122.841 16.5396C123.188 16.5676 123.51 16.6403 123.803 16.7599C123.949 16.8194 124.088 16.8911 124.219 16.9745H123.901V23.9578H123.961C123.413 24.8648 122.721 25.7755 121.898 26.6403V26.6408Z"
            fill="#1E5C9F" />
        <path
            d="M121.875 26.6542C121.057 27.5139 120.186 28.2465 119.312 28.8346C119.093 28.9816 118.875 29.1194 118.657 29.2482V29.0014H112.155V29.0294C112.022 28.7445 111.933 28.4276 111.889 28.0847C111.799 27.3989 111.882 26.6089 112.124 25.7649C112.607 24.077 113.725 22.1733 115.362 20.4539C116.999 18.7344 118.846 17.5246 120.508 16.9589C121.339 16.6761 122.124 16.554 122.813 16.6099C123.158 16.6379 123.479 16.7102 123.77 16.8292C123.916 16.8887 124.054 16.9599 124.183 17.0429H123.902V23.9874H123.927C123.383 24.8894 122.694 25.7949 121.875 26.6547V26.6542Z"
            fill="#1F5DA0" />
        <path
            d="M121.852 26.6674C121.038 27.5226 120.173 28.2506 119.303 28.8356C119.086 28.9816 118.868 29.119 118.652 29.2472V29.0019H112.186V29.0299C112.054 28.7466 111.966 28.4317 111.922 28.0903C111.833 27.4081 111.915 26.6226 112.156 25.7833C112.636 24.105 113.748 22.2115 115.376 20.5017C117.004 18.7919 118.84 17.5887 120.493 17.0261C121.319 16.7448 122.1 16.6237 122.785 16.6791C123.128 16.7071 123.447 16.7789 123.737 16.8969C123.881 16.9559 124.019 17.0266 124.148 17.109H123.902V23.3439H124.272C124.155 23.5667 124.028 23.7906 123.893 24.0149C123.352 24.9118 122.667 25.8128 121.853 26.6674H121.852Z"
            fill="#1F5DA1" />
        <path
            d="M121.83 26.6806C121.021 27.5307 120.159 28.2551 119.295 28.8366C119.079 28.9821 118.863 29.1184 118.647 29.2456V29.0014H112.218V29.0294C112.086 28.7475 111.999 28.4342 111.955 28.0953C111.866 27.4172 111.948 26.6358 112.187 25.8015C112.665 24.1324 113.77 22.2501 115.389 20.5495C117.008 18.8493 118.834 17.6528 120.477 17.0932C121.299 16.8134 122.075 16.6928 122.757 16.7483C123.098 16.7757 123.416 16.8475 123.704 16.965C123.847 17.024 123.984 17.0942 124.112 17.1761H123.901V23.3759H124.235C124.119 23.5977 123.993 23.8205 123.858 24.0434C123.32 24.9352 122.639 25.831 121.829 26.6811L121.83 26.6806Z"
            fill="#205EA2" />
        <path
            d="M121.807 26.6936C121.003 27.5391 120.146 28.259 119.287 28.8374C119.072 28.9818 118.857 29.1177 118.642 29.2443V29.0017H112.249V29.0297C112.118 28.7499 112.032 28.438 111.988 28.1007C111.9 27.4262 111.981 26.6494 112.219 25.8196C112.694 24.1602 113.793 22.2881 115.403 20.5976C117.012 18.9071 118.828 17.7172 120.462 17.1612C121.279 16.8829 122.051 16.7633 122.729 16.8178C123.068 16.8452 123.384 16.9165 123.67 17.0335C123.813 17.092 123.949 17.1617 124.076 17.2436H123.901V23.4083H124.199C124.083 23.6286 123.958 23.8504 123.824 24.0717C123.289 24.9584 122.612 25.8491 121.807 26.6946L121.807 26.6936Z"
            fill="#205FA3" />
        <path
            d="M121.784 26.7066C120.984 27.547 120.133 28.2633 119.278 28.8381C119.065 28.9821 118.851 29.1169 118.638 29.2426V29.0009H112.282V29.0289C112.151 28.7506 112.065 28.4403 112.022 28.1051C111.934 27.4346 112.015 26.6618 112.251 25.8367C112.724 24.1864 113.817 22.3255 115.417 20.6441C117.018 18.9628 118.823 17.7805 120.448 17.227C121.26 16.9503 122.028 16.8312 122.702 16.8857C123.039 16.9131 123.353 16.9839 123.638 17.0998C123.78 17.1578 123.915 17.2275 124.042 17.3084H123.902V23.438H124.164C124.048 23.6573 123.924 23.8776 123.791 24.0978C123.259 24.9795 122.586 25.8652 121.785 26.7056L121.784 26.7066Z"
            fill="#205FA4" />
        <path
            d="M121.762 26.72C120.966 27.5558 120.12 28.2675 119.27 28.8393C119.058 28.9823 118.846 29.1166 118.633 29.2417V29.0016H112.313V29.0291C112.184 28.7523 112.098 28.444 112.055 28.1108C111.968 27.4439 112.048 26.6762 112.283 25.8557C112.754 24.215 113.84 22.3643 115.431 20.6926C117.022 19.021 118.818 17.8453 120.433 17.2949C121.241 17.0196 122.004 16.9011 122.675 16.9555C123.01 16.9825 123.322 17.0532 123.605 17.1687C123.746 17.2267 123.88 17.2954 124.007 17.3763H123.902V23.4713H124.128C124.013 23.689 123.889 23.9083 123.757 24.1275C123.228 25.0041 122.559 25.8847 121.763 26.7205L121.762 26.72Z"
            fill="#2160A4" />
        <path
            d="M121.74 26.733C120.949 27.5638 120.107 28.2719 119.262 28.8402C119.051 28.9821 118.839 29.1159 118.629 29.24V29.0009H112.344V29.0284C112.216 28.7532 112.131 28.4469 112.088 28.1152C112.001 27.4524 112.081 26.6888 112.315 25.8728C112.782 24.2413 113.863 22.4013 115.445 20.7393C118.609 17.4153 122.584 16.0626 124.322 17.7174H123.901V23.5021H124.091C123.977 23.7188 123.854 23.9366 123.723 24.1543C123.197 25.0258 122.531 25.9013 121.74 26.7325V26.733Z"
            fill="#2160A5" />
        <path
            d="M121.717 26.7463C120.93 27.5724 120.093 28.276 119.253 28.8412C119.043 28.9826 118.833 29.1149 118.624 29.239V29.0014H112.376V29.0289C112.248 28.7552 112.163 28.4505 112.121 28.1208C112.035 27.4615 112.114 26.7025 112.347 25.8916C112.811 24.2698 113.885 22.4404 115.458 20.7881C118.604 17.4834 122.556 16.1384 124.284 17.7836H123.901V23.5347H124.055C123.941 23.7499 123.819 23.9666 123.688 24.1833C123.165 25.0502 122.504 25.9206 121.717 26.7468L121.717 26.7463Z"
            fill="#2161A6" />
        <path
            d="M121.694 26.7595C120.912 27.5811 120.08 28.2806 119.245 28.8423C119.037 28.9827 118.828 29.1144 118.619 29.2375V29.001H112.407V29.0285C112.28 28.7563 112.196 28.4536 112.154 28.126C112.068 27.4707 112.147 26.7158 112.378 25.9095C112.84 24.2968 113.908 22.4781 115.472 20.8355C118.6 17.5501 122.528 16.2127 124.246 17.8482H123.901V22.9268H124.329C124.14 23.3496 123.914 23.7794 123.654 24.2103C123.134 25.0721 122.476 25.9374 121.694 26.7585V26.7595Z"
            fill="#2261A7" />
        <path
            d="M121.672 26.7727C120.895 27.5892 120.068 28.2846 119.237 28.8432C119.03 28.9826 118.822 29.1139 118.615 29.236V29.0009H112.44V29.0284C112.314 28.7578 112.23 28.4566 112.188 28.131C112.103 27.4793 112.181 26.729 112.411 25.9277C112.87 24.3247 113.931 22.5167 115.486 20.8832C118.596 17.6167 122.501 16.2874 124.209 17.9138H123.901V22.9629H124.291C124.103 23.3836 123.879 23.8109 123.62 24.2388C123.103 25.0955 122.449 25.9557 121.672 26.7722L121.672 26.7727Z"
            fill="#2262A7" />
        <path
            d="M121.649 26.786C120.877 27.5979 120.054 28.2893 119.229 28.8443C119.022 28.9832 118.816 29.1134 118.61 29.235V29.001H112.471V29.0284C112.346 28.7593 112.263 28.4602 112.221 28.1361C112.136 27.4885 112.214 26.7427 112.443 25.9456C112.899 24.3517 113.954 22.5544 115.5 20.9311C118.592 17.6839 122.474 16.3622 124.173 17.979H123.902V22.9985H124.254C124.067 23.4167 123.844 23.8415 123.587 24.2673C123.073 25.1189 122.423 25.9741 121.65 26.786H121.649Z"
            fill="#2262A8" />
        <path
            d="M121.626 26.7995C120.858 27.6063 120.041 28.2936 119.22 28.8456C119.015 28.9834 118.81 29.1131 118.605 29.2337V29.0012H112.502V29.0287C112.378 28.7616 112.295 28.464 112.253 28.142C112.169 27.4979 112.247 26.7567 112.473 25.9647C112.927 24.3805 113.976 22.5933 115.513 20.9797C118.586 17.7518 122.445 16.4378 124.133 18.0448H123.9V23.0344H124.215C124.029 23.45 123.807 23.8723 123.551 24.2955C123.04 25.142 122.394 25.9921 121.626 26.799L121.626 26.7995Z"
            fill="#2363A9" />
        <path
            d="M121.604 26.8125C120.841 27.6148 120.028 28.298 119.213 28.8469C119.009 28.9843 118.805 29.113 118.601 29.2331V29.0016H112.535V29.0291C112.411 28.7635 112.329 28.4674 112.287 28.1474C112.203 27.5075 112.28 26.7703 112.506 25.9828C112.958 24.4078 114 22.6319 115.528 21.0273C118.583 17.8188 122.419 16.5124 124.097 18.1103H123.901V23.0704H124.177C123.992 23.4835 123.772 23.9032 123.518 24.3239C123.01 25.1653 122.367 26.0103 121.604 26.8125H121.604Z"
            fill="#2363A9" />
        <path
            d="M121.581 26.8256C120.822 27.6228 120.015 28.302 119.204 28.8478C119.002 28.9842 118.799 29.1124 118.596 29.2314V29.0015H112.566V29.0289C112.443 28.7649 112.361 28.4709 112.32 28.1529C112.237 27.5165 112.314 26.7839 112.538 26.0015C112.986 24.4362 114.023 22.6704 115.541 21.0755C118.577 17.8858 122.391 16.5876 124.059 18.1758H123.901V23.1064H124.139C123.955 23.5169 123.736 23.9341 123.484 24.3522C122.979 25.1886 122.34 26.029 121.581 26.8262V26.8256Z"
            fill="#2364AA" />
        <path
            d="M121.559 26.8389C120.805 27.6315 120.002 28.3066 119.196 28.8489C118.995 28.9842 118.793 29.1119 118.592 29.2304V29.0015H112.598V29.0285C112.475 28.766 112.394 28.474 112.353 28.1575C112.27 27.5252 112.347 26.7967 112.569 26.0189C113.015 24.4627 114.045 22.7081 115.555 21.1229C118.573 17.9525 122.364 16.6619 124.022 18.2405H123.901V23.1415H124.102C123.919 23.5495 123.701 23.9646 123.45 24.3803C122.948 25.2115 122.313 26.0468 121.558 26.8394L121.559 26.8389Z"
            fill="#2464AB" />
        <path
            d="M121.536 26.852C120.786 27.64 119.988 28.311 119.187 28.8497C118.987 28.9846 118.787 29.1107 118.587 29.2287V29.0013H112.629V29.0283C112.507 28.7673 112.427 28.4768 112.386 28.1625C112.304 27.5337 112.38 26.8103 112.601 26.0365C113.044 24.49 114.068 22.7456 115.568 21.1701C118.568 18.019 122.336 16.7365 123.984 18.3049H123.901V23.176H124.064C123.882 23.5814 123.666 23.994 123.416 24.4071C122.917 25.2332 122.286 26.0635 121.537 26.851L121.536 26.852Z"
            fill="#2465AB" />
        <path
            d="M121.514 26.8653C120.769 27.6482 119.976 28.3152 119.179 28.8508C118.981 28.9846 118.781 29.1103 118.583 29.2278V29.0014H112.662V29.0284C112.541 28.7689 112.46 28.4805 112.42 28.1681C112.338 27.5434 112.414 26.8241 112.634 26.0554C113.074 24.518 114.092 22.7843 115.583 21.2185C118.564 18.0868 122.309 16.8119 123.947 18.3711H123.901V23.2127H124.026C123.845 23.6161 123.63 24.0256 123.383 24.4361C122.887 25.2572 122.26 26.0824 121.514 26.8653Z"
            fill="#2465AC" />
        <path
            d="M121.492 26.8784C120.751 27.6568 119.962 28.3196 119.171 28.8518C118.973 28.985 118.775 29.1097 118.578 29.2262V29.0013H112.693V29.0283C112.573 28.7704 112.493 28.4834 112.453 28.1731C112.372 27.552 112.447 26.8372 112.666 26.0731C113.103 24.5454 114.115 22.8224 115.596 21.2657C118.56 18.1528 122.282 16.8861 123.91 18.4357H123.901V23.2477H123.988C123.808 23.6485 123.595 24.0555 123.348 24.4635C122.855 25.28 122.232 26.0996 121.492 26.8779V26.8784Z"
            fill="#2465AC" />
        <path
            d="M121.468 26.8919C120.732 27.6652 119.949 28.324 119.162 28.853C118.966 28.9853 118.769 29.1094 118.572 29.2254V29.0021H112.724V29.029C112.604 28.7726 112.525 28.4878 112.485 28.179C112.404 27.5619 112.479 26.8512 112.696 26.0922C113.131 24.5736 114.136 22.8613 115.609 21.3148C118.554 18.2212 122.253 16.9621 123.871 18.502C123.973 18.5982 124.063 18.703 124.144 18.8159H123.901V23.284H123.95C123.771 23.6824 123.559 24.0868 123.314 24.4928C122.824 25.3042 122.205 26.1186 121.468 26.8924V26.8919Z"
            fill="#2566AD" />
        <path
            d="M121.446 26.905C120.715 27.6737 119.936 28.3284 119.154 28.8539C118.959 28.9852 118.764 29.1088 118.568 29.2238V29.0014H112.756V29.0284C112.637 28.774 112.559 28.4907 112.519 28.1839C112.439 27.5709 112.513 26.8643 112.729 26.1099C113.162 24.601 114.16 22.8993 115.624 21.3619C118.55 18.2877 122.227 17.0363 123.835 18.567C124.036 18.7583 124.195 18.9842 124.314 19.2385H123.902V23.3195H123.912C123.735 23.7153 123.524 24.1177 123.281 24.5206C122.794 25.3269 122.178 26.1368 121.447 26.905H121.446Z"
            fill="#2566AD" />
        <path
            d="M121.424 26.9183C120.697 27.6819 119.923 28.3326 119.147 28.855C118.953 28.9858 118.759 29.1084 118.565 29.2228V29.0021H112.789V29.029C112.671 28.7762 112.592 28.4944 112.553 28.1896C112.473 27.5802 112.547 26.8786 112.762 26.1288C113.191 24.6291 114.184 22.9381 115.639 21.4104C118.547 18.355 122.2 17.1117 123.798 18.6328C123.998 18.823 124.156 19.0474 124.274 19.3002H123.902V22.2004H124.301C123.872 23.7001 122.879 25.3911 121.424 26.9188L121.424 26.9183Z"
            fill="#2567AE" />
        <path
            d="M121.4 26.9316C120.678 27.6906 119.909 28.3372 119.138 28.8561C118.945 28.9858 118.752 29.1079 118.559 29.2214V29.0016H112.819V29.0286C112.702 28.7772 112.624 28.4974 112.585 28.1948C112.505 27.5894 112.579 26.8919 112.792 26.1466C113.219 24.6566 114.206 22.9758 115.651 21.4582C118.541 18.4222 122.171 17.1865 123.759 18.6979C123.957 18.8866 124.115 19.11 124.232 19.3613H123.901V22.2432H124.259C123.832 23.7333 122.846 25.4141 121.4 26.9316Z"
            fill="#2567AE" />
        <path
            d="M121.378 26.9442C120.661 27.6986 119.897 28.3407 119.13 28.8565C118.938 28.9857 118.746 29.1063 118.555 29.2192V29.001H112.852V29.0274C112.735 28.7776 112.658 28.4994 112.619 28.1987C112.54 27.5969 112.613 26.904 112.825 26.1638C113.25 24.6834 114.23 23.0133 115.666 21.5049C118.538 18.4882 122.145 17.2602 123.722 18.7624C123.92 18.9501 124.076 19.1714 124.192 19.4217H123.901V22.2853H124.219C123.794 23.7657 122.814 25.4358 121.378 26.9442Z"
            fill="#2567AF" />
        <path
            d="M121.356 26.9573C120.642 27.7066 119.883 28.345 119.121 28.8573C118.931 28.9855 118.74 29.1056 118.55 29.218V29.0008H112.883V29.0272C112.767 28.779 112.69 28.5028 112.651 28.2036C112.572 27.6059 112.645 26.9171 112.856 26.1814C113.277 24.7102 114.251 23.0508 115.678 21.5521C118.532 18.5547 122.116 17.3342 123.684 18.8268C123.88 19.0135 124.035 19.2333 124.151 19.4816H123.901V22.3274H124.177C123.756 23.7986 122.782 25.458 121.355 26.9567L121.356 26.9573Z"
            fill="#2667AF" />
        <path
            d="M121.333 26.9706C120.624 27.7154 119.87 28.3492 119.113 28.8585C118.924 28.9856 118.735 29.1052 118.545 29.2166V29.0009H112.914V29.0274C112.799 28.7806 112.723 28.5064 112.684 28.2093C112.606 27.6151 112.678 26.9309 112.888 26.2004C113.307 24.7388 114.275 23.09 115.692 21.6005C118.528 18.6219 122.089 17.4096 123.646 18.8926C123.841 19.0777 123.995 19.2965 124.11 19.5432H123.9V22.3707H124.137C123.718 23.8323 122.75 25.481 121.333 26.9706H121.333Z"
            fill="#2668AF" />
        <path
            d="M121.311 26.9836C120.607 27.7233 119.857 28.3536 119.105 28.8598C118.917 28.9865 118.728 29.105 118.541 29.2159V29.0012H112.947V29.0277C112.832 28.7825 112.756 28.5098 112.718 28.2148C112.64 27.6246 112.712 26.9445 112.92 26.2185C113.336 24.7661 114.298 23.128 115.707 21.6487C118.524 18.6894 122.062 17.4848 123.61 18.9585C123.997 19.3269 124.222 19.8279 124.299 20.4181H123.901V22.4143H124.097C123.681 23.8667 122.719 25.5048 121.311 26.9842V26.9836Z"
            fill="#2668B0" />
        <path
            d="M121.288 26.997C120.589 27.7321 119.844 28.3578 119.097 28.8609C118.91 28.9866 118.723 29.1046 118.537 29.2145V29.0013H112.978V29.0278C112.864 28.7841 112.789 28.5135 112.751 28.2199C112.674 27.6334 112.745 26.9583 112.952 26.2364C113.365 24.7937 114.32 23.1658 115.72 21.6961C118.519 18.7561 122.034 17.5596 123.571 19.0232C123.956 19.389 124.18 19.8865 124.257 20.4731H123.901V22.4566H124.056C123.643 23.8993 122.687 25.5273 121.288 26.997H121.288Z"
            fill="#2668B0" />
        <path
            d="M121.266 27.0104C120.571 27.7405 119.831 28.3626 119.088 28.8622C118.903 28.9868 118.717 29.1043 118.532 29.2137V29.0016H113.01V29.028C112.897 28.7864 112.822 28.5168 112.784 28.2258C112.708 27.6433 112.778 26.9723 112.984 26.2555C113.394 24.8219 114.344 23.2052 115.734 21.7446C118.515 18.8241 122.007 17.6352 123.535 19.0891C123.917 19.4528 124.14 19.9468 124.215 20.5298H123.901V22.5001H124.015C123.605 23.9337 122.656 25.5504 121.265 27.011L121.266 27.0104Z"
            fill="#2668B0" />
        <path
            d="M121.247 26.9931C120.556 27.7185 119.822 28.3361 119.085 28.8326C118.9 28.9567 118.716 29.0732 118.532 29.1816V29.0015H113.243V29.3367C113.168 29.2309 113.102 29.1175 113.046 28.9974C112.934 28.7573 112.859 28.4897 112.822 28.2003C112.746 27.6213 112.816 26.9549 113.02 26.2427C113.428 24.8188 114.371 23.2122 115.752 21.7613C118.514 18.8596 121.984 17.6788 123.501 19.1231C123.881 19.4843 124.102 19.9752 124.178 20.5541H123.901V22.5117H123.98C123.572 23.9356 122.629 25.5422 121.248 26.9931H121.247Z"
            fill="#2668B0" />
        <path
            d="M120.86 27.2716C120.246 27.9162 119.593 28.4656 118.938 28.9067C118.774 29.0171 118.61 29.1203 118.447 29.217V29.0013H113.57V29.0532C113.471 28.8395 113.405 28.602 113.371 28.3445C113.304 27.8302 113.366 27.2376 113.548 26.6047C113.91 25.339 114.748 23.911 115.976 22.6214C118.432 20.0422 121.516 18.9922 122.864 20.2767C124.213 21.5607 123.316 24.6929 120.86 27.2716Z"
            fill="#286AB2" />
        <path
            d="M120.473 27.5507C119.936 28.1149 119.364 28.5956 118.791 28.9812C118.647 29.0779 118.504 29.1684 118.361 29.2529V29.0016H114.094V29.1094C114.007 28.9227 113.949 28.7147 113.92 28.4893C113.861 28.0391 113.916 27.5207 114.074 26.9667C114.392 25.8592 115.125 24.6098 116.199 23.4814C118.348 21.2247 121.046 20.306 122.227 21.4297C123.407 22.5535 122.622 25.2935 120.473 27.5507H120.473Z"
            fill="#296BB3" />
        <path
            d="M120.086 27.8295C119.625 28.3133 119.135 28.7248 118.644 29.056V29.0016H114.619V29.1659C114.544 29.0056 114.494 28.8276 114.469 28.6343C114.419 28.2481 114.465 27.804 114.601 27.3294C114.873 26.3801 115.502 25.3092 116.422 24.3422C118.264 22.408 120.577 21.6205 121.589 22.5835C122.6 23.5465 121.927 25.8953 120.086 27.83V27.8295Z"
            fill="#2A6CB4" />
        <path
            d="M119.698 28.1081C119.314 28.511 118.906 28.8544 118.496 29.1301V29.0014H115.141V29.2217C115.079 29.0884 115.037 28.9399 115.017 28.7786C114.974 28.4571 115.014 28.0867 115.127 27.691C115.353 26.8999 115.877 26.0076 116.645 25.2013C118.18 23.5891 120.107 22.9329 120.95 23.7356C121.793 24.5384 121.233 26.4955 119.698 28.1076V28.1081Z"
            fill="#2C6EB6" />
        <path
            d="M119.31 28.3871C119.003 28.7097 118.677 28.9844 118.349 29.2047V29.0012H115.665V29.2774C115.615 29.1706 115.582 29.0515 115.565 28.9233C115.531 28.6659 115.562 28.3698 115.653 28.0534C115.834 27.4206 116.253 26.7068 116.867 26.0618C118.095 24.7722 119.637 24.2472 120.311 24.8892C120.986 25.5312 120.537 27.097 119.31 28.3866L119.31 28.3871Z"
            fill="#2D6FB7" />
        <path
            d="M118.923 28.6657C118.693 28.9073 118.448 29.1134 118.202 29.2787V29.001H116.115V29.0676C116.089 28.8748 116.112 28.6525 116.181 28.4149C116.316 27.9403 116.631 27.4046 117.091 26.9213C118.012 25.9542 119.168 25.5605 119.675 26.0417C120.18 26.5235 119.844 27.6976 118.923 28.6647V28.6657Z"
            fill="#2E70B8" />
        <path
            d="M118.536 28.9445C118.383 29.1058 118.219 29.2431 118.056 29.3535V29.0015H116.664V29.2131C116.647 29.0844 116.663 28.9364 116.708 28.7782C116.799 28.4617 117.008 28.1046 117.315 27.7826C117.929 27.138 118.7 26.8755 119.037 27.1965C119.374 27.5175 119.15 28.3005 118.536 28.9455L118.536 28.9445Z"
            fill="#2E70B8" />
    </g>
    <mask id="mask1_834_8865" style="mask-type:luminance" maskUnits="userSpaceOnUse" x="96" y="14"
        width="22" height="14">
        <path
            d="M109.764 24.6949L117.183 16.9714C116.559 17.6155 112.586 21.6583 109.759 21.6619C106.964 21.6654 104.608 19.2938 104.45 19.1284L101.053 15.5714C99.5659 13.9674 98.1033 14.0839 97.3474 16.0756C96.22 19.045 96.3528 23.1763 98.8206 25.6508C101.95 28.7891 106.271 28.1023 109.749 24.7101L109.756 24.7035C109.759 24.7005 109.762 24.6979 109.765 24.6949H109.764Z"
            fill="white" />
    </mask>
    <g mask="url(#mask1_834_8865)">
        <path d="M117.183 13.9666H96.2197V28.7882H117.183V13.9666Z" fill="#999933" />
        <path
            d="M109.554 24.9225C106.27 28.3727 100.81 28.507 97.3598 25.2221C96.9284 24.8116 96.5489 24.367 96.2218 23.8964C96.058 23.6614 95.9074 23.4197 95.7695 23.1725H96.1582V14.4072H95.9883C96.1404 14.164 96.3057 13.927 96.4843 13.697V13.9046H110.137V13.7057C110.226 13.8201 110.311 13.9361 110.393 14.0536C110.72 14.5242 110.996 15.0202 111.219 15.534C111.666 16.5616 111.903 17.66 111.93 18.7634C111.985 20.9702 111.197 23.1974 109.554 24.923V24.9225Z"
            fill="#999933" />
        <path
            d="M109.504 24.8747C106.245 28.2974 100.829 28.4302 97.4067 25.1718C96.9788 24.7643 96.6024 24.3232 96.2778 23.8567C96.1155 23.6232 95.9659 23.3836 95.8291 23.1384H96.1577V14.4438H96.0463C96.1969 14.2027 96.3612 13.9677 96.5383 13.7393V13.9046H110.082V13.7479C110.17 13.8614 110.254 13.9763 110.335 14.0928C110.66 14.5593 110.934 15.0518 111.155 15.5615C111.598 16.581 111.834 17.6702 111.861 18.7649C111.914 20.954 111.133 23.1639 109.504 24.8752V24.8747Z"
            fill="#9B9B31" />
        <path
            d="M109.454 24.8276C106.222 28.2224 100.85 28.3546 97.455 25.1227C97.0307 24.7188 96.6573 24.2813 96.3348 23.8183C96.1735 23.5869 96.0255 23.3493 95.8896 23.1061H96.1577V14.4807H96.1053C96.2549 14.2416 96.4177 14.0081 96.5932 13.7817V13.9048H110.028V13.7904C110.115 13.9028 110.199 14.0168 110.279 14.1328C110.601 14.5957 110.873 15.0841 111.092 15.5892C111.532 16.6006 111.765 17.6811 111.792 18.7667C111.846 20.9379 111.07 23.13 109.455 24.8276H109.454Z"
            fill="#9D9E2F" />
        <path
            d="M109.404 24.7798C106.198 28.147 100.869 28.2783 97.5022 25.0723C97.0815 24.6714 96.7112 24.2375 96.3912 23.7786C96.2314 23.5492 96.0844 23.3132 95.9501 23.072H96.1577V15.2448H95.7578C95.8804 14.9976 96.0157 14.7544 96.1638 14.5173C96.3118 14.2803 96.4736 14.0488 96.6476 13.8239V13.9048H109.704V13.5029C109.89 13.7186 110.062 13.942 110.222 14.1719C110.541 14.6308 110.81 15.1151 111.028 15.6167C111.464 16.6199 111.696 17.6912 111.722 18.7682C111.775 20.9222 111.006 23.0959 109.403 24.7798H109.404Z"
            fill="#9FA02D" />
        <path
            d="M109.353 24.7319C106.174 28.0716 100.889 28.2014 97.5495 25.0218C97.1318 24.6245 96.7645 24.1941 96.4476 23.7388C96.2889 23.5109 96.1434 23.2774 96.0101 23.0383H96.1576V15.2752H95.8193C95.9409 15.03 96.0747 14.7889 96.2222 14.5538C96.3693 14.3188 96.5295 14.0894 96.702 13.866V13.9047H109.652V13.5481C109.836 13.7623 110.007 13.9836 110.165 14.2115C110.482 14.6668 110.749 15.147 110.965 15.6445C111.397 16.6391 111.627 17.7023 111.653 18.7701C111.706 20.9063 110.944 23.0622 109.354 24.7324L109.353 24.7319Z"
            fill="#A1A22B" />
        <path
            d="M109.304 24.6847C106.151 27.997 100.91 28.1257 97.5978 24.9726C97.1837 24.5784 96.8194 24.1515 96.505 23.7003C96.3478 23.4744 96.2033 23.2424 96.0711 23.0054H96.1581V15.3059H95.8818C96.0024 15.0627 96.1352 14.8236 96.2812 14.5906C96.4272 14.3576 96.5859 14.1297 96.7573 13.9084C96.8433 13.798 96.9318 13.6891 97.0239 13.5818V13.9048H109.6V13.593C109.782 13.8056 109.952 14.0249 110.109 14.2508C110.423 14.7025 110.688 15.1787 110.902 15.6721C111.33 16.6585 111.559 17.7131 111.585 18.7723C111.636 20.8906 110.881 23.0288 109.304 24.6852V24.6847Z"
            fill="#A3A42A" />
        <path
            d="M109.253 24.6368C106.126 27.9211 100.929 28.0488 97.6445 24.9222C96.8234 24.1403 96.1997 23.2291 95.7744 22.2509H96.157V15.3363H95.9428C96.0624 15.0951 96.1941 14.8581 96.3386 14.6266C96.4831 14.3951 96.6408 14.1698 96.8107 13.9505C96.8956 13.8411 96.9836 13.7328 97.0752 13.6265V13.9042H109.546V13.6371C109.727 13.8478 109.895 14.0655 110.051 14.2893C110.363 14.737 110.625 15.2096 110.837 15.6985C111.262 16.6768 111.488 17.7222 111.514 18.7727C111.566 20.8732 110.816 22.9941 109.253 24.6363L109.253 24.6368Z"
            fill="#A4A628" />
        <path
            d="M109.204 24.5891C106.103 27.8459 100.95 27.9726 97.6932 24.8719C96.8792 24.0966 96.2606 23.1931 95.8389 22.2235H96.1578V15.3674H96.0057C96.1243 15.1283 96.255 14.8933 96.3985 14.6639C96.5419 14.4344 96.6981 14.2106 96.8665 13.9934C96.9509 13.8845 97.0384 13.7777 97.129 13.6724V13.9054H109.495V13.6836C109.674 13.8926 109.841 14.1083 109.996 14.3301C110.305 14.7743 110.565 15.2423 110.775 15.7276C111.197 16.6977 111.421 17.7345 111.447 18.7759C111.498 20.8591 110.755 22.9617 109.205 24.5901L109.204 24.5891Z"
            fill="#A6A826" />
        <path
            d="M109.154 24.5414C106.08 27.7708 100.969 27.8959 97.7405 24.8217C96.9332 24.053 96.3202 23.1572 95.902 22.1957H96.1579V16.122H95.7529C95.9381 15.6316 96.1726 15.155 96.457 14.7002C96.5994 14.4728 96.7541 14.251 96.921 14.0353C97.0044 13.9274 97.0914 13.8211 97.1809 13.7168V13.9045H109.442V13.7275C109.62 13.9345 109.785 14.1487 109.938 14.369C110.244 14.809 110.502 15.2735 110.711 15.7547C111.129 16.7167 111.351 17.7444 111.377 18.7771C111.428 20.8425 110.691 22.9272 109.153 24.5419L109.154 24.5414Z"
            fill="#A8AA25" />
        <path
            d="M109.104 24.4937C106.056 27.6951 100.99 27.8198 97.7882 24.772C96.988 24.01 96.3795 23.1217 95.9654 22.1684H96.1577V16.1466H95.8174C96.001 15.6603 96.2335 15.1877 96.5154 14.7369C96.6563 14.5116 96.8099 14.2913 96.9752 14.0776C97.0582 13.9708 97.1441 13.8655 97.2332 13.7617V13.9047H109.39V13.7724C109.566 13.9779 109.729 14.1901 109.882 14.4083C110.185 14.8448 110.441 15.3052 110.648 15.7819C111.062 16.7352 111.283 17.7547 111.308 18.7782C111.358 20.8259 110.627 22.8928 109.104 24.4937Z"
            fill="#A9AC23" />
        <path
            d="M109.053 24.4463C106.031 27.6202 101.009 27.7438 97.8353 24.722C97.0417 23.9666 96.4389 23.086 96.0283 22.1407H96.1576V16.1709H95.8818C96.2456 15.2063 96.8047 14.2973 97.5596 13.5042V13.905H109.337V13.8175C109.512 14.021 109.674 14.2316 109.825 14.4478C110.126 14.8808 110.379 15.3371 110.585 15.8097C110.995 16.7549 111.214 17.7652 111.239 18.7801C111.289 20.8099 110.565 22.8591 109.054 24.4463H109.053Z"
            fill="#ABAE21" />
        <path
            d="M109.003 24.3985C106.008 27.545 101.029 27.6671 97.883 24.6717C97.0965 23.9229 96.4988 23.0499 96.0918 22.1128H96.1574V16.1949H95.9463C96.307 15.239 96.861 14.3375 97.6098 13.551V13.9041H109.285V13.8619C109.457 14.0638 109.619 14.2724 109.768 14.4866C110.066 14.9154 110.318 15.3682 110.521 15.8367C110.928 16.7738 111.145 17.7755 111.17 18.7817C111.219 20.7942 110.501 22.8256 109.003 24.3985Z"
            fill="#ADB020" />
        <path
            d="M108.954 24.3507C105.985 27.4692 101.05 27.5908 97.9311 24.6219C97.1513 23.8797 96.5591 23.0143 96.1557 22.0854H96.1582V16.2193H96.0117C96.3694 15.2716 96.9183 14.3787 97.6605 13.5989V13.9041H108.967V13.6116C109.058 13.7083 109.147 13.8064 109.233 13.9067C109.404 14.1066 109.564 14.3136 109.712 14.5258C110.008 14.9511 110.257 15.3992 110.459 15.8637C110.862 16.7926 111.077 17.7852 111.102 18.7828C111.151 20.7775 110.439 22.791 108.955 24.3502L108.954 24.3507Z"
            fill="#AEB21E" />
        <path
            d="M108.904 24.3037C105.961 27.3947 101.07 27.5147 97.9788 24.5723C97.2061 23.8367 96.619 22.979 96.2191 22.0587C96.0192 21.5983 95.8661 21.1221 95.7598 20.6378H96.1581V16.245H96.0762C96.4303 15.3059 96.9746 14.4207 97.7102 13.6479V13.9059H108.916V13.6612C109.007 13.7568 109.095 13.8545 109.18 13.9532C109.35 14.1516 109.508 14.3561 109.655 14.5672C109.949 14.9884 110.195 15.4331 110.395 15.8935C110.795 16.8142 111.008 17.7981 111.032 18.7866C111.081 20.7635 110.375 22.7592 108.904 24.3047V24.3037Z"
            fill="#B0B41D" />
        <path
            d="M108.854 24.2559C105.937 27.3195 101.089 27.4385 98.0264 24.522C97.2607 23.793 96.6788 22.9429 96.2825 22.0308C96.0841 21.5744 95.9325 21.1029 95.8271 20.6226H96.1583V16.269H96.141C96.492 15.338 97.0313 14.461 97.7608 13.6948V13.9049H108.867V13.7075C108.957 13.8022 109.044 13.8988 109.128 13.997C109.297 14.1934 109.454 14.3964 109.599 14.6054C109.89 15.0231 110.134 15.4637 110.332 15.92C110.729 16.8326 110.94 17.8073 110.964 18.7871C111.012 20.7467 110.313 22.7242 108.855 24.2559H108.854Z"
            fill="#B1B51B" />
        <path
            d="M108.803 24.2078C105.913 27.2434 101.109 27.3614 98.0738 24.4713C97.3148 23.7489 96.7384 22.9065 96.3457 22.0025C96.1493 21.5502 95.9988 21.0827 95.8945 20.6065H96.158V17.7083H95.8232C95.9041 17.2276 96.0313 16.7535 96.2053 16.2921C96.5533 15.3697 97.0879 14.5003 97.8103 13.7413V13.9036H108.54V13.4773C111.575 16.3674 111.693 21.1712 108.803 24.2068V24.2078Z"
            fill="#B2B71A" />
        <path
            d="M108.754 24.1604C105.89 27.1685 101.13 27.2855 98.1219 24.4219C96.6176 22.9898 95.8367 21.0841 95.7894 19.1601C95.7421 17.2361 96.4289 15.2938 97.8609 13.79V13.905H108.493V13.5286C111.501 16.3922 111.618 21.1523 108.754 24.1604H108.754Z"
            fill="#B4B819" />
        <path
            d="M108.704 24.1125C105.866 27.0931 101.15 27.2091 98.1698 24.3714C96.6798 22.9526 95.9055 21.0642 95.8587 19.158C95.8119 17.2519 96.4921 15.3274 97.9109 13.8373V13.9045H108.445V13.5784C111.426 16.416 111.542 21.1324 108.704 24.1125Z"
            fill="#B5BA17" />
        <path
            d="M108.653 24.0654C105.842 27.018 101.169 27.133 98.2168 24.3218C96.7405 22.9162 95.9733 21.0451 95.927 19.1567C95.8807 17.2678 96.5548 15.3616 97.9604 13.8853V13.9051H108.397V13.6289C111.349 16.4401 111.464 21.1127 108.653 24.0654Z"
            fill="#B6BB16" />
        <path
            d="M108.604 24.0175C105.819 26.9426 101.19 27.0566 98.2647 24.2718C96.8022 22.8795 96.0426 21.0262 95.9963 19.1551C95.9506 17.284 96.618 15.3956 98.0104 13.9331C98.0974 13.8415 98.1864 13.753 98.277 13.667V13.9051H108.35V13.6792C111.275 16.464 111.389 21.0928 108.604 24.018L108.604 24.0175Z"
            fill="#B8BD15" />
        <path
            d="M108.553 23.9698C105.795 26.8675 101.209 26.9799 98.3118 24.2216C96.8629 22.8424 96.1105 21.0065 96.0647 19.1532C96.0189 17.2999 96.6808 15.4293 98.0599 13.9805C98.2324 13.7994 98.412 13.629 98.5977 13.4697V13.9047H108.301V13.7287C111.199 16.4875 111.311 21.0726 108.553 23.9703L108.553 23.9698Z"
            fill="#B9BE14" />
        <path
            d="M108.503 23.9223C105.77 26.792 101.229 26.9039 98.3587 24.1716C96.9236 22.8056 96.1783 20.987 96.1331 19.1515C96.0878 17.316 96.743 15.4627 98.1094 14.0281C98.2804 13.8486 98.4579 13.6802 98.6421 13.5225V13.905H108.253V13.7789C111.123 16.5112 111.235 21.0526 108.503 23.9228V23.9223Z"
            fill="#BAC013" />
        <path
            d="M108.453 23.8746C105.747 26.7168 101.249 26.8272 98.4067 24.1213C96.9853 22.7681 96.2471 20.9672 96.2024 19.1496C96.1576 17.3314 96.8067 15.4964 98.1594 14.0756C98.3283 13.898 98.5048 13.7311 98.687 13.5745V13.9046H108.206V13.8288C111.048 16.5347 111.158 21.0323 108.452 23.8751L108.453 23.8746Z"
            fill="#BBC112" />
        <path
            d="M108.404 23.8268C105.724 26.6416 101.27 26.751 98.4551 24.0715C97.0479 22.7316 96.3169 20.9485 96.2726 19.1481C96.2284 17.3477 96.8709 15.5306 98.2109 14.1234C98.3783 13.9474 98.5527 13.7821 98.7333 13.6274V13.9052H108.159V13.8793C110.974 16.5587 111.084 21.0131 108.404 23.8279L108.404 23.8268Z"
            fill="#BCC210" />
        <path
            d="M108.353 23.7796C105.699 26.5669 101.289 26.6752 98.502 24.0217C97.1086 22.695 96.3847 20.9292 96.341 19.1467C96.2972 17.3641 96.9336 15.5647 98.2599 14.1713C98.4257 13.9974 98.5982 13.8335 98.7773 13.6804V13.9053H107.845V13.6886C107.935 13.7659 108.024 13.8463 108.111 13.9292C110.898 16.5827 111.006 20.9928 108.353 23.7801V23.7796Z"
            fill="#BDC40F" />
        <path
            d="M108.303 23.7315C105.676 26.4908 101.31 26.5981 98.55 23.9711C97.1703 22.6575 96.4535 20.9091 96.4103 19.1443C96.367 17.3795 96.9968 15.598 98.3104 14.2183C98.4747 14.0459 98.6456 13.8836 98.8227 13.732V13.9045H107.528V13.5178C107.712 13.6608 107.891 13.8144 108.063 13.9782C110.822 16.6053 110.93 20.9716 108.303 23.7315H108.303Z"
            fill="#BEC50E" />
        <path
            d="M108.254 23.6839C105.653 26.4157 101.33 26.5221 98.598 23.921C95.8662 21.3204 95.7598 16.9972 98.3609 14.2654C98.5237 14.0945 98.6926 13.9342 98.8681 13.7841V13.9042H107.486V13.5725C107.669 13.7139 107.846 13.866 108.017 14.0283C110.748 16.6289 110.855 20.9521 108.254 23.6839Z"
            fill="#BFC60E" />
        <path
            d="M108.203 23.6366C105.628 26.3409 101.349 26.4457 98.6449 23.8716C95.9405 21.297 95.8357 17.0181 98.4099 14.3137C98.5706 14.1448 98.7385 13.9861 98.912 13.837V13.9047H107.443V13.6274C107.624 13.7673 107.799 13.9179 107.968 14.0787C110.672 16.6533 110.777 20.9322 108.203 23.6366Z"
            fill="#C0C70D" />
        <path
            d="M108.153 23.5887C105.605 26.2651 101.37 26.3693 98.6929 23.8211C96.016 21.273 95.9122 17.0378 98.4604 14.3609C98.7789 14.0262 99.1238 13.7321 99.4886 13.4778V13.9041H107.401V13.6818C107.58 13.8202 107.753 13.9692 107.921 14.1284C110.597 16.6766 110.701 20.9118 108.153 23.5887Z"
            fill="#C1C80C" />
        <path
            d="M108.103 23.5415C105.581 26.1904 101.389 26.2932 98.7405 23.7714C96.0916 21.2497 95.9889 17.0578 98.5106 14.4089C98.826 14.0777 99.1674 13.7862 99.5281 13.5349V13.9042H107.359V13.7364C107.536 13.8737 107.707 14.0207 107.873 14.1784C110.522 16.7002 110.624 20.8921 108.103 23.541L108.103 23.5415Z"
            fill="#C2C90B" />
        <path
            d="M108.053 23.4936C105.557 26.115 101.409 26.2168 98.7877 23.7215C96.1662 21.2262 96.0645 17.0781 98.5597 14.4566C98.8716 14.129 99.2094 13.8406 99.567 13.5918V13.9047H107.316V13.7912C107.491 13.927 107.661 14.0725 107.825 14.2287C110.446 16.724 110.548 20.8721 108.053 23.4936Z"
            fill="#C3CA0A" />
        <path
            d="M108.003 23.4457C105.533 26.0391 101.429 26.1404 98.8355 23.671C96.242 21.2017 96.1408 17.0978 98.6101 14.5038C98.9189 14.1798 99.2531 13.8944 99.6067 13.6482V13.9041H106.74V13.4727C107.105 13.7011 107.453 13.9697 107.777 14.2785C110.371 16.7478 110.472 20.8517 108.003 23.4457Z"
            fill="#C3CB09" />
        <path
            d="M107.953 23.3987C105.51 25.9647 101.449 26.0644 98.8833 23.6215C96.3173 21.1786 96.2176 17.118 98.6605 14.552C98.9657 14.231 99.2964 13.9491 99.6464 13.7055V13.9049H106.704V13.532C107.065 13.7579 107.409 14.0239 107.73 14.3292C110.296 16.772 110.396 20.8327 107.953 23.3987Z"
            fill="#C4CC09" />
        <path
            d="M107.903 23.3507C105.487 25.8892 101.47 25.9879 98.9313 23.571C96.3928 21.1546 96.2941 17.1377 98.711 14.5992C99.0132 14.2817 99.3403 14.0029 99.6862 13.7618V13.9042H106.667V13.5898C107.025 13.8137 107.365 14.0762 107.683 14.3784C110.221 16.7948 110.32 20.8117 107.903 23.3502V23.3507Z"
            fill="#C5CD08" />
        <path
            d="M107.853 23.3027C105.463 25.8133 101.49 25.9109 98.979 23.5209C96.4685 21.1305 96.3708 17.1578 98.7608 14.6468C99.0594 14.3329 99.3829 14.0567 99.7253 13.8186V13.9045H106.631V13.6492C106.984 13.8705 107.321 14.1304 107.635 14.429C110.145 16.8195 110.243 20.7922 107.853 23.3032V23.3027Z"
            fill="#C6CD07" />
        <path
            d="M107.803 23.2555C105.438 25.7386 101.509 25.8352 99.026 23.4712C96.543 21.1071 96.4463 17.1778 98.8103 14.6947C99.1059 14.3844 99.4259 14.1112 99.7642 13.8756V13.9046H106.594V13.7078C106.943 13.9265 107.277 14.1834 107.587 14.479C110.07 16.843 110.167 20.7724 107.803 23.2555Z"
            fill="#C6CE07" />
        <path
            d="M107.753 23.2077C105.415 25.6633 101.529 25.7584 99.0739 23.4208C96.6182 21.0833 96.5231 17.1976 98.8607 14.742C99.1527 14.4353 99.4691 14.1651 99.8039 13.9321C99.9712 13.8156 100.143 13.7083 100.319 13.6101V13.9041H106.557V13.7658C106.903 13.982 107.232 14.2363 107.539 14.5284C109.995 16.8659 110.09 20.7516 107.752 23.2072L107.753 23.2077Z"
            fill="#C7CF06" />
        <path
            d="M107.703 23.1603C105.392 25.588 101.55 25.6826 99.1217 23.3715C96.6941 21.0603 96.5995 17.2185 98.9106 14.7903C99.1996 14.4866 99.5124 14.22 99.8436 13.9896C100.009 13.8746 100.179 13.7683 100.353 13.6716V13.9051H106.521V13.8253C106.862 14.0389 107.188 14.2902 107.492 14.5792C109.919 16.8903 110.014 20.7322 107.703 23.1603Z"
            fill="#C7D005" />
        <path
            d="M107.652 23.1128C105.367 25.5129 101.569 25.6065 99.1688 23.3213C96.7686 21.0362 96.675 17.238 98.9602 14.8379C99.5315 14.2376 100.197 13.7818 100.912 13.4714V13.9049H106.484V13.884C106.822 14.0956 107.144 14.3439 107.444 14.6298C109.844 16.915 109.937 20.7131 107.652 23.1133V23.1128Z"
            fill="#C8D005" />
        <path
            d="M107.602 23.0646C105.344 25.4373 101.589 25.5294 99.2166 23.2706C96.8439 21.0119 96.7518 17.2575 99.0106 14.8848C99.5752 14.2917 100.234 13.8409 100.94 13.5342V13.9045H105.935V13.6558C106.109 13.7417 106.28 13.8374 106.447 13.9417C106.781 14.1508 107.099 14.3965 107.396 14.6788C109.769 16.9375 109.861 20.6919 107.602 23.0646H107.602Z"
            fill="#C9D104" />
        <path
            d="M107.553 23.0174C105.32 25.3621 101.609 25.4537 99.2644 23.2209C96.9197 20.9886 96.8281 17.2775 99.0609 14.9328C99.619 14.3467 100.27 13.9011 100.968 13.5979V13.9046H105.379V13.4895C106.091 13.7581 106.763 14.1712 107.349 14.7293C109.694 16.9615 109.785 20.6727 107.553 23.0174Z"
            fill="#C9D104" />
        <path
            d="M107.503 22.9696C105.296 25.2869 101.63 25.3769 99.3123 23.1711C96.9951 20.9648 96.905 17.2979 99.1109 14.9806C99.6623 14.4012 100.305 13.9612 100.996 13.6615V13.9052H105.354V13.5547C106.058 13.8202 106.722 14.2282 107.302 14.7797C109.619 16.986 109.709 20.6529 107.503 22.9701L107.503 22.9696Z"
            fill="#C9D203" />
        <path
            d="M107.452 22.9219C105.272 25.2117 101.649 25.3007 99.3593 23.1208C97.0696 20.9409 96.9806 17.3178 99.1604 15.0281C99.7053 14.4557 100.341 14.0208 101.022 13.7247V13.9048H105.329V13.6189C106.025 13.8814 106.681 14.2843 107.253 14.8297C109.543 17.0095 109.632 20.6327 107.452 22.9224V22.9219Z"
            fill="#CAD203" />
        <path
            d="M107.402 22.8747C105.249 25.137 101.669 25.2245 99.4072 23.0711C97.1449 20.9177 97.0574 17.3378 99.2108 15.076C99.749 14.5103 100.377 14.0809 101.05 13.7879V13.9044H105.305V13.6831C105.993 13.9426 106.641 14.3409 107.206 14.8791C109.468 17.0325 109.556 20.6124 107.402 22.8742V22.8747Z"
            fill="#CAD303" />
        <path
            d="M107.352 22.8267C105.226 25.061 101.689 25.148 99.4551 23.0211C97.2207 20.8941 97.1337 17.3579 99.2607 15.1236C99.7923 14.5651 100.412 14.1408 101.078 13.8513V13.9047H105.28V13.748C105.96 14.0039 106.6 14.3977 107.158 14.9293C109.392 17.0563 109.479 20.5924 107.352 22.8267Z"
            fill="#CBD302" />
        <path
            d="M107.303 22.7793C105.202 24.9861 101.71 25.0721 99.5031 22.9711C97.2962 20.8701 97.2102 17.3782 99.3113 15.1713C99.8363 14.6199 100.449 14.2007 101.106 13.9148C101.435 13.7718 101.775 13.6625 102.12 13.5867V13.9046H105.257V13.8125C105.927 14.0654 106.559 14.454 107.111 14.979C109.318 17.0801 109.404 20.5719 107.303 22.7788V22.7793Z"
            fill="#CBD402" />
        <path
            d="M107.253 22.7315C105.178 24.9109 101.73 24.9954 99.5509 22.9208C97.3715 20.8462 97.2871 17.3976 99.3616 15.2187C100.399 14.129 101.78 13.5633 103.173 13.5287C104.567 13.4947 105.974 13.9922 107.064 15.0295C109.243 17.104 109.328 20.5527 107.253 22.7315Z"
            fill="#CBD402" />
        <path
            d="M107.202 22.6836C105.154 24.835 101.749 24.919 99.5977 22.8703C97.4463 20.8222 97.3624 17.4173 99.411 15.2659C100.435 14.19 101.798 13.6314 103.175 13.5973C104.551 13.5637 105.94 14.0547 107.015 15.0787C109.167 17.1268 109.251 20.5317 107.202 22.6831V22.6836Z"
            fill="#CCD401" />
        <path
            d="M107.152 22.6364C105.13 24.7604 101.77 24.8428 99.6456 22.8211C97.5217 20.7994 97.4393 17.4383 99.4609 15.3144C100.472 14.2527 101.818 13.7007 103.176 13.6676C104.534 13.6341 105.906 14.1189 106.968 15.1302C109.092 17.1524 109.174 20.513 107.152 22.637V22.6364Z"
            fill="#CCD501" />
        <path
            d="M107.102 22.5887C105.107 24.6852 101.789 24.7666 99.6934 22.7708C97.5975 20.7751 97.5156 17.4577 99.5113 15.3618C100.509 14.3138 101.837 13.769 103.178 13.7364C104.519 13.7039 105.872 14.1821 106.92 15.1797C109.017 17.1754 109.098 20.4928 107.102 22.5887Z"
            fill="#CCD501" />
        <path
            d="M107.053 22.5408C105.083 24.6093 101.81 24.6897 99.7413 22.7204C97.6728 20.7512 97.5924 17.4775 99.5617 15.409C100.547 14.3748 101.857 13.8376 103.18 13.805C104.503 13.7725 105.839 14.2446 106.873 15.2295C108.942 17.1987 109.022 20.4724 107.053 22.5408Z"
            fill="#CCD501" />
        <path
            d="M107.002 22.4934C105.059 24.5344 101.829 24.6137 99.7884 22.6709C97.7474 20.7276 97.668 17.4982 99.6108 15.4572C100.582 14.4367 101.876 13.9066 103.181 13.8746C104.486 13.8425 105.804 14.3085 106.825 15.2802C108.866 17.2235 108.945 20.4529 107.002 22.4939V22.4934Z"
            fill="#CCD501" />
        <path
            d="M106.952 22.4457C105.036 24.4592 101.849 24.5376 99.8364 22.6207C97.8228 20.7038 97.7445 17.5177 99.6614 15.5047C100.62 14.4979 101.896 13.975 103.183 13.9434C104.471 13.9119 105.771 14.3713 106.777 15.3297C108.791 17.2466 108.869 20.4327 106.952 22.4457Z"
            fill="#CDD500" />
        <path
            d="M103.307 23.9392C106.049 23.9392 108.271 21.7167 108.271 18.9751C108.271 16.2335 106.049 14.011 103.307 14.011C100.565 14.011 98.3428 16.2335 98.3428 18.9751C98.3428 21.7167 100.565 23.9392 103.307 23.9392Z"
            fill="#CDD600" />
        <path
            d="M103.307 23.8705C106.01 23.8705 108.202 21.6787 108.202 18.975C108.202 16.2714 106.01 14.0796 103.307 14.0796C100.603 14.0796 98.4111 16.2714 98.4111 18.975C98.4111 21.6787 100.603 23.8705 103.307 23.8705Z"
            fill="#CDD600" />
        <path
            d="M103.307 23.8014C105.972 23.8014 108.133 21.6407 108.133 18.9752C108.133 16.3097 105.972 14.1489 103.307 14.1489C100.641 14.1489 98.4805 16.3097 98.4805 18.9752C98.4805 21.6407 100.641 23.8014 103.307 23.8014Z"
            fill="#CDD600" />
        <path
            d="M103.307 23.7322C105.934 23.7322 108.064 21.6023 108.064 18.9751C108.064 16.3478 105.934 14.218 103.307 14.218C100.68 14.218 98.5498 16.3478 98.5498 18.9751C98.5498 21.6023 100.68 23.7322 103.307 23.7322Z"
            fill="#CDD600" />
        <path
            d="M103.306 23.6631C105.895 23.6631 107.994 21.5643 107.994 18.9752C107.994 16.3862 105.895 14.2874 103.306 14.2874C100.717 14.2874 98.6182 16.3862 98.6182 18.9752C98.6182 21.5643 100.717 23.6631 103.306 23.6631Z"
            fill="#CDD600" />
        <path
            d="M103.306 23.5938C105.857 23.5938 107.925 21.526 107.925 18.9751C107.925 16.4243 105.857 14.3564 103.306 14.3564C100.755 14.3564 98.6875 16.4243 98.6875 18.9751C98.6875 21.526 100.755 23.5938 103.306 23.5938Z"
            fill="#CDD600" />
        <path
            d="M103.307 23.5251C105.82 23.5251 107.857 21.488 107.857 18.9751C107.857 16.4622 105.82 14.425 103.307 14.425C100.794 14.425 98.7568 16.4622 98.7568 18.9751C98.7568 21.488 100.794 23.5251 103.307 23.5251Z"
            fill="#CDD600" />
        <path
            d="M103.306 23.4561C105.781 23.4561 107.787 21.4499 107.787 18.9752C107.787 16.5005 105.781 14.4944 103.306 14.4944C100.831 14.4944 98.8252 16.5005 98.8252 18.9752C98.8252 21.4499 100.831 23.4561 103.306 23.4561Z"
            fill="#CDD600" />
        <path
            d="M103.306 23.3868C105.743 23.3868 107.718 21.4116 107.718 18.9751C107.718 16.5386 105.743 14.5635 103.306 14.5635C100.87 14.5635 98.8945 16.5386 98.8945 18.9751C98.8945 21.4116 100.87 23.3868 103.306 23.3868Z"
            fill="#CDD600" />
        <path
            d="M103.306 21.1809C104.525 21.1809 105.512 20.1934 105.512 18.9751C105.512 17.7569 104.525 16.7693 103.306 16.7693C102.088 16.7693 101.101 17.7569 101.101 18.9751C101.101 20.1934 102.088 21.1809 103.306 21.1809Z"
            fill="#CDD600" />
    </g>
    <rect x="1" y="1" width="135" height="40" rx="4" stroke="#A6A6A6" />
</svg>
    