<svg width="76" height="32" viewBox="0 0 76 32" fill="none" xmlns="http://www.w3.org/2000/svg">
    <path fill-rule="evenodd" clip-rule="evenodd" d="M55.8411 0C55.0058 0 54.3281 0.677673 54.3281 1.513V16.2031C54.3281 22.1574 59.1557 26.985 65.11 26.985C71.024 26.985 75.7398 22.304 75.8848 16.4762H75.8919V14.5644C75.8919 13.7307 75.2169 13.054 74.3838 13.0514L74.3824 13.0514L74.3815 13.0514L74.3813 13.1722L74.3811 13.0514L74.3803 13.0514L74.3789 13.0514C73.5458 13.054 72.8708 13.7307 72.8708 14.5644V16.2031C72.8708 20.4868 69.3986 23.9614 65.1124 23.9614C60.8263 23.9614 57.3541 20.4892 57.3541 16.2031V1.513C57.3541 0.677673 56.6764 0 55.8411 0ZM65.2599 28.2006C64.2119 28.2006 63.3602 29.0523 63.3602 30.1003C63.3602 31.1483 64.2119 32 65.2599 32C66.3079 32 67.1596 31.1483 67.1596 30.1003C67.1596 29.0523 66.3079 28.2006 65.2599 28.2006Z" fill="#ABC7FF"/>
    <path fill-rule="evenodd" clip-rule="evenodd" d="M39.1646 12.4568C38.3461 12.4568 37.6758 13.0936 37.6758 13.89C37.6758 14.6865 38.3461 15.3233 39.1646 15.3233H49.4293V15.8115H49.4267L49.4245 15.93C49.3435 20.1447 45.9046 23.536 41.6709 23.536C37.4376 23.536 33.999 20.1453 33.9174 15.9311V14.1414C33.9174 13.3061 33.2398 12.6284 32.4044 12.6284C31.6389 12.6284 31.006 13.1975 30.9054 13.9355C30.8513 14.1997 30.8473 14.4724 30.8431 14.7633V14.7634L30.8431 14.77L30.843 14.7714C30.8335 15.4324 30.8218 16.2474 30.2594 17.4847L30.2472 17.5116C30.0169 17.9704 29.729 18.45 29.3689 18.9292C26.9968 22.0832 22.5596 23.768 16.5035 23.768C11.2319 23.768 7.45949 22.5308 5.25732 20.1215C2.91033 17.5555 3.15275 14.512 3.16392 14.3975C3.24783 13.5604 2.63909 12.8122 1.80149 12.7281C0.95885 12.6416 0.215851 13.2535 0.131878 14.0907L0.131814 14.0913C0.114048 14.2791 -0.276441 18.5435 2.96611 22.1306C5.78486 25.25 10.3493 26.8157 16.5059 26.8157C24.5069 26.8157 28.8312 24.1432 31.1312 21.5817L31.1622 21.5472V21.5408C31.2593 21.4128 31.6033 20.9579 31.9611 20.4697C33.7049 24.0749 37.3963 26.562 41.6685 26.562C47.5293 26.562 52.2976 21.8814 52.4433 16.0532H52.4504V14.1414C52.4504 13.9439 52.4125 13.755 52.3434 13.5817C52.1964 12.935 51.5991 12.4568 50.8891 12.4568H39.1646ZM14.0189 12.9644C12.9709 12.9644 12.1192 13.8161 12.1192 14.8641C12.1192 15.9121 12.9709 16.7638 14.0189 16.7638C15.0669 16.7638 15.9186 15.9121 15.9186 14.8641C15.9186 13.8161 15.0669 12.9644 14.0189 12.9644ZM18.6207 12.9644C17.5727 12.9644 16.721 13.8161 16.721 14.8641C16.721 15.9121 17.5727 16.7638 18.6207 16.7638C19.6687 16.7638 20.5204 15.9121 20.5204 14.8641C20.5204 13.8161 19.6687 12.9644 18.6207 12.9644ZM42.4613 28.2005C41.4133 28.2005 40.5616 29.0522 40.5616 30.1002C40.5616 31.1483 41.4133 32 42.4613 32C43.5093 32 44.361 31.1483 44.361 30.1002C44.361 29.0522 43.5093 28.2005 42.4613 28.2005Z" fill="#ABC7FF"/>
    </svg>
    