<svg width="96" height="40" viewBox="0 0 96 40" fill="none" xmlns="http://www.w3.org/2000/svg">
    <path fill-rule="evenodd" clip-rule="evenodd" d="M70.3014 0C69.2572 0 68.4102 0.847092 68.4102 1.89125V20.2538C68.4102 27.6968 74.4446 33.7312 81.8875 33.7312C89.28 33.7312 95.1748 27.88 95.3559 20.5952H95.3649V18.2055C95.3649 17.1633 94.5211 16.3175 93.4797 16.3142H93.478L93.4769 16.3142L93.4767 16.4653L93.4764 16.3142L93.4753 16.3142H93.4737C92.4323 16.3175 91.5885 17.1633 91.5885 18.2055V20.2538C91.5885 25.6085 87.2482 29.9517 81.8905 29.9517C76.5329 29.9517 72.1926 25.6115 72.1926 20.2538V1.89125C72.1926 0.847092 71.3456 0 70.3014 0ZM82.0748 35.2507C80.7648 35.2507 79.7002 36.3153 79.7002 37.6254C79.7002 38.9354 80.7648 40 82.0748 40C83.3848 40 84.4495 38.9354 84.4495 37.6254C84.4495 36.3153 83.3848 35.2507 82.0748 35.2507Z" fill="#ABC7FF"/>
    <path fill-rule="evenodd" clip-rule="evenodd" d="M49.455 15.571C48.4319 15.571 47.594 16.367 47.594 17.3625C47.594 18.3581 48.4319 19.1541 49.455 19.1541H62.2858V19.7643H62.2827L62.2798 19.9125C62.1787 25.1809 57.8801 29.4199 52.5879 29.4199C47.2963 29.4199 42.998 25.1817 42.8961 19.9139V17.6767C42.8961 16.6326 42.049 15.7855 41.0048 15.7855C40.0479 15.7855 39.2567 16.4968 39.131 17.4194C39.0633 17.7496 39.0584 18.0906 39.0532 18.4542V18.4543L39.0531 18.4626L39.0531 18.4643C39.0412 19.2905 39.0265 20.3093 38.3235 21.8559L38.3082 21.8895C38.0204 22.463 37.6605 23.0625 37.2104 23.6615C34.2453 27.604 28.6987 29.71 21.1287 29.71C14.5391 29.71 9.82363 28.1635 7.07091 25.1518C4.13718 21.9444 4.44021 18.1399 4.45417 17.9968C4.55905 16.9506 3.79814 16.0153 2.75113 15.9101C1.69783 15.8019 0.769082 16.5669 0.664115 17.6133L0.664034 17.6142C0.641828 17.8489 0.153717 23.1794 4.2069 27.6633C7.73034 31.5625 13.4359 33.5197 21.1317 33.5197C31.1328 33.5197 36.5383 30.179 39.4133 26.9771L39.452 26.934V26.926C39.5734 26.766 40.0034 26.1974 40.4506 25.5871C42.6304 30.0936 47.2447 33.2024 52.5849 33.2024C59.9109 33.2024 65.8713 27.3517 66.0533 20.0665H66.0623V17.6767C66.0623 17.4299 66.0149 17.1938 65.9285 16.9772C65.7447 16.1687 64.9981 15.571 64.1106 15.571H49.455ZM18.0229 16.2055C16.7129 16.2055 15.6483 17.2701 15.6483 18.5801C15.6483 19.8901 16.7129 20.9547 18.0229 20.9547C19.3329 20.9547 20.3976 19.8901 20.3976 18.5801C20.3976 17.2701 19.3329 16.2055 18.0229 16.2055ZM23.7752 16.2055C22.4652 16.2055 21.4006 17.2701 21.4006 18.5801C21.4006 19.8901 22.4652 20.9547 23.7752 20.9547C25.0852 20.9547 26.1498 19.8901 26.1498 18.5801C26.1498 17.2701 25.0852 16.2055 23.7752 16.2055ZM53.5759 35.2507C52.2659 35.2507 51.2012 36.3153 51.2012 37.6253C51.2012 38.9353 52.2659 39.9999 53.5759 39.9999C54.8859 39.9999 55.9505 38.9353 55.9505 37.6253C55.9505 36.3153 54.8859 35.2507 53.5759 35.2507Z" fill="#ABC7FF"/>
    </svg>
    