<svg width="96" height="32" viewBox="0 0 96 32" fill="none" xmlns="http://www.w3.org/2000/svg">
    <path fill-rule="evenodd" clip-rule="evenodd"
        d="M45.5989 9.49158V7.37798C45.5989 6.46664 46.3412 5.72437 47.2525 5.72437C48.1638 5.72437 48.9061 6.46664 48.9061 7.37798V17.128C48.9061 17.1868 48.903 17.2448 48.897 17.302C48.9013 17.4328 48.9035 17.5642 48.9035 17.696C48.9035 24.2339 43.5834 29.5566 37.0455 29.5566C30.5076 29.5566 25.1875 24.2365 25.1875 17.696C25.1875 11.1555 30.5076 5.838 37.0455 5.838C40.403 5.838 43.4393 7.24106 45.5989 9.49158ZM28.4921 17.6986C28.4921 12.9808 32.3303 9.14524 37.0455 9.14524C41.7633 9.14524 45.5989 12.9808 45.5989 17.6986C45.5989 22.4165 41.7633 26.252 37.0455 26.252C32.3277 26.252 28.4921 22.4165 28.4921 17.6986Z"
        fill="#1E3E81" />
    <path fill-rule="evenodd" clip-rule="evenodd"
        d="M3.3069 17.8987C3.41351 22.5244 7.20703 26.252 11.858 26.252C16.5758 26.252 20.4114 22.4165 20.4114 17.6986C20.4114 12.9808 16.5758 9.14524 11.858 9.14524C7.21435 9.14524 3.42129 12.8653 3.30724 17.4845V17.8651C3.30724 17.8763 3.30713 17.8875 3.3069 17.8987ZM0 17.696V1.75151C0 0.840168 0.74228 0.0978851 1.65362 0.0978851C2.56496 0.0978851 3.30724 0.840168 3.30724 1.75151V9.48781C5.46664 7.23922 8.50187 5.838 11.858 5.838C18.3959 5.838 23.716 11.1581 23.716 17.696C23.716 24.2339 18.3959 29.5566 11.858 29.5566C5.41012 29.5566 0.146712 24.382 0.00301413 17.9654C0.00101436 17.9322 0 17.8987 0 17.8651V17.696Z"
        fill="#1E3E81" />
    <path fill-rule="evenodd" clip-rule="evenodd"
        d="M61.1947 26.1278C63.4506 28.381 66.4461 29.6226 69.6292 29.6226H69.6345L80.2219 29.5433C80.663 29.5407 81.0778 29.3663 81.3868 29.052C81.6959 28.7377 81.8649 28.3203 81.8623 27.8791C81.857 26.9731 81.1147 26.2361 80.1981 26.2361L69.6213 26.3153C64.8691 26.3153 61.0045 22.4507 61.0045 17.6985C61.0045 12.9464 64.8691 9.08176 69.6213 9.08176C71.436 9.08176 73.1716 9.63913 74.6403 10.6931C76.0594 11.7135 77.1314 13.1417 77.7213 14.7585H65.4688C64.5574 14.7585 63.8151 15.5008 63.8151 16.4121C63.8151 17.3234 64.5574 18.0657 65.4688 18.0657H79.7913C80.6796 18.0657 81.4073 17.3605 81.4435 16.4809C81.4577 16.349 81.4557 16.2144 81.437 16.0793C80.9959 12.8566 79.2234 9.91386 76.5686 8.00929C74.5346 6.5485 72.1308 5.77716 69.6213 5.77716C63.0464 5.77716 57.6973 11.1263 57.6973 17.7012C57.6973 20.8816 58.9388 23.8745 61.1947 26.1278Z"
        fill="#1E3E81" />
    <path fill-rule="evenodd" clip-rule="evenodd"
        d="M90.9388 29.6676H91.5278C92.4656 29.6676 93.229 28.9042 93.229 27.9665C93.229 27.0287 92.4656 26.2653 91.5278 26.2653H90.9388C89.9508 26.2653 89.1478 25.4517 89.1478 24.4505V17.8519H93.8286C94.7664 17.8519 95.5298 17.0884 95.5298 16.1507C95.5298 15.2129 94.7664 14.4495 93.8286 14.4495H89.1478V7.21696C89.1478 6.27921 88.3844 5.51579 87.4466 5.51579C86.5089 5.51579 85.7454 6.27921 85.7454 7.21696V14.4495H84.3428C83.405 14.4495 82.6416 15.2129 82.6416 16.1507C82.6416 17.0884 83.405 17.8519 84.3428 17.8519H85.7454V24.4743C85.7454 27.3378 88.0753 29.6676 90.9388 29.6676Z"
        fill="#1E3E81" />
    <path fill-rule="evenodd" clip-rule="evenodd"
        d="M51.1168 2.24797C51.1168 3.48687 52.1258 4.49594 53.3647 4.49594C54.6036 4.49594 55.6127 3.48687 55.6127 2.24797C55.6127 1.00908 54.6036 0 53.3647 0C52.1258 0 51.1168 1.00908 51.1168 2.24797ZM48.0117 26.9692C47.3691 27.652 46.583 28.3914 45.8098 28.846C45.7993 28.8513 44.9408 29.3796 44.7347 29.6833C44.4864 30.0479 44.4045 30.7109 44.7215 31.2709C45.0623 31.8706 45.6566 31.9947 46.0898 31.9947L46.0872 32C46.3689 32 46.5797 31.9469 46.6086 31.9397L46.6102 31.9392L46.6472 31.926C46.7263 31.8939 48.4718 31.18 50.5952 29.0988C50.7288 28.9701 50.8584 28.8391 50.9842 28.7062C51.0029 28.6868 51.0215 28.6674 51.0401 28.6479L51.0396 28.6473C54.8453 24.5716 55.1066 18.6496 55.0316 16.1981C55.0263 15.9868 55.0289 15.7042 55.0342 15.4294C55.0395 15.2498 55.0395 15.0755 55.0395 14.9223V7.32512C55.0395 6.41378 54.2972 5.6715 53.3859 5.6715C52.4745 5.6715 51.7322 6.41378 51.7322 7.32512V14.9223C51.7322 15.044 51.7297 15.1836 51.7271 15.326L51.727 15.3343V15.3766L51.7256 15.5142V15.5142V15.5143C51.723 15.7755 51.7202 16.0545 51.727 16.3012C51.7851 18.2559 51.5658 23.1772 48.2639 26.6455C48.171 26.743 48.0862 26.852 48.0117 26.9692Z"
        fill="#1E3E81" />
</svg>
    