<svg width="64" height="64" viewBox="0 0 64 64" fill="none" xmlns="http://www.w3.org/2000/svg">
    <mask id="mask0_685_12621" style="mask-type:alpha" maskUnits="userSpaceOnUse" x="0" y="0"
        width="64" height="64">
        <rect width="64" height="64" fill="#D9D9D9" />
    </mask>
    <g mask="url(#mask0_685_12621)">
        <path
            d="M6.9999 56.8667C6.28879 56.8667 5.67768 56.6111 5.16657 56.1C4.65546 55.5889 4.3999 54.9556 4.3999 54.2C4.3999 53.4445 4.65546 52.8222 5.16657 52.3333C5.67768 51.8445 6.28879 51.6 6.9999 51.6H29.3332V19.9333C28.2666 19.5333 27.2999 18.9 26.4332 18.0333C25.5666 17.1667 24.9332 16.1778 24.5332 15.0667H14.9999L22.2666 32.6C22.5332 33.2222 22.711 33.9111 22.7999 34.6667C22.8888 35.4222 22.8443 36.0222 22.6666 36.4667C22.1777 38.1556 21.0999 39.5667 19.4332 40.7C17.7666 41.8333 15.8443 42.4 13.6666 42.4C11.5332 42.4 9.63324 41.8333 7.96657 40.7C6.2999 39.5667 5.22212 38.1556 4.73324 36.4667C4.55546 36.0222 4.51101 35.4222 4.5999 34.6667C4.68879 33.9111 4.86657 33.2222 5.13324 32.6L12.3999 15.0667H9.5999C8.84435 15.0667 8.23324 14.8222 7.76657 14.3333C7.2999 13.8445 7.06657 13.2222 7.06657 12.4667C7.06657 11.7111 7.32212 11.0778 7.83324 10.5667C8.34435 10.0556 8.95546 9.80001 9.66657 9.80001H24.5332C25.1555 8.20001 26.1332 6.91112 27.4666 5.93334C28.7999 4.95556 30.311 4.46667 31.9999 4.46667C33.6888 4.46667 35.1999 4.95556 36.5332 5.93334C37.8666 6.91112 38.8443 8.20001 39.4666 9.80001H54.3332C55.0443 9.80001 55.6666 10.0556 56.1999 10.5667C56.7332 11.0778 56.9999 11.7111 56.9999 12.4667C56.9999 13.2222 56.7555 13.8445 56.2666 14.3333C55.7777 14.8222 55.1555 15.0667 54.3999 15.0667H51.5999L58.8666 32.6C59.1332 33.2222 59.311 33.9111 59.3999 34.6667C59.4888 35.4222 59.4666 36.0222 59.3332 36.4667C58.7999 38.1556 57.6999 39.5667 56.0332 40.7C54.3666 41.8333 52.4666 42.4 50.3332 42.4C48.1555 42.4 46.2332 41.8333 44.5666 40.7C42.8999 39.5667 41.8221 38.1556 41.3332 36.4667C41.1555 36.0222 41.111 35.4222 41.1999 34.6667C41.2888 33.9111 41.4888 33.2222 41.7999 32.6L48.9999 15.0667H39.4666C39.0666 16.1778 38.4332 17.1667 37.5666 18.0333C36.6999 18.9 35.7332 19.5333 34.6666 19.9333V51.6H56.9999C57.711 51.6 58.3332 51.8445 58.8666 52.3333C59.3999 52.8222 59.6666 53.4445 59.6666 54.2C59.6666 54.9556 59.3999 55.5889 58.8666 56.1C58.3332 56.6111 57.711 56.8667 56.9999 56.8667H6.9999ZM45.7332 34H54.8666L50.3332 22.7333L45.7332 34ZM9.13324 34H18.2666L13.6666 22.7333L9.13324 34ZM31.9999 15.6C32.8888 15.6 33.6332 15.2778 34.2332 14.6333C34.8332 13.9889 35.1332 13.2667 35.1332 12.4667C35.1332 11.5778 34.8332 10.8333 34.2332 10.2333C33.6332 9.63334 32.8888 9.33334 31.9999 9.33334C31.1555 9.33334 30.4221 9.63334 29.7999 10.2333C29.1777 10.8333 28.8666 11.5778 28.8666 12.4667C28.8666 13.2667 29.1777 13.9889 29.7999 14.6333C30.4221 15.2778 31.1555 15.6 31.9999 15.6Z"
            fill="white" />
    </g>
</svg>
    