<svg width="26" height="26" viewBox="0 0 26 26" fill="none" xmlns="http://www.w3.org/2000/svg">
    <path
        d="M1.43457 1.34204C1.77842 1.03206 2.28729 0.913171 2.72719 1.0671C2.70278 1.07559 2.65396 1.09257 2.62902 1.10107C2.72825 1.17166 2.83013 1.23801 2.92458 1.31444C6.10518 4.50068 9.29162 7.68428 12.4749 10.8695C12.6951 11.0802 12.8925 11.3148 13.1324 11.5048C13.3075 11.4231 13.4481 11.284 13.6248 11.2038C13.3669 11.4751 13.1037 11.7426 12.8309 11.999C12.6739 12.0457 12.5312 12.1269 12.3943 12.2155C8.83369 8.6678 5.28435 5.10789 1.73018 1.55329C1.63992 1.47213 1.53592 1.40791 1.43457 1.34204Z"
        fill="#002F66" stroke="#002F66" stroke-width="0.0442478" stroke-miterlimit="10" />
    <path
        d="M10.873 1.197C11.3618 1.10093 11.8605 1.04095 12.3583 1.02344C12.8666 1.197 13.1458 1.67045 13.5347 2.0059C15.4157 3.85778 17.2645 5.75424 19.1488 7.59603C18.6658 7.43945 18.14 7.42565 17.6519 7.56472C17.5065 7.52703 17.3547 7.48032 17.2485 7.36833C16.0865 6.19479 14.9127 5.03292 13.7491 3.8615C13.0375 3.24898 12.4098 2.54676 11.7342 1.89603C11.4541 1.65135 11.2615 1.28782 10.873 1.197ZM20.529 8.91395C20.6829 9.03072 20.7497 9.2218 20.8888 9.35343C22.1888 10.6528 23.491 11.9526 24.7819 13.2599C24.8759 13.442 24.877 13.6586 24.9592 13.8475C24.9417 14.2758 24.8966 14.7127 24.7947 15.1309C24.7687 14.7498 24.3871 14.6102 24.1775 14.3433C23.64 13.8013 23.0998 13.2621 22.5586 12.7244C21.9383 11.9802 21.1794 11.3651 20.5506 10.6289C20.7524 10.0763 20.729 9.46277 20.529 8.91395Z"
        fill="#002F66" stroke="#002F66" stroke-width="0.0442478" stroke-miterlimit="10" />
    <path
        d="M12.3594 1.02374C12.9696 0.983931 13.5847 0.999324 14.1928 1.06461C14.0893 1.07363 13.9863 1.08796 13.8839 1.10229C14.0755 1.25357 14.2464 1.42819 14.4119 1.60706C17.7464 4.94193 21.0803 8.27679 24.4143 11.6122C24.5698 11.764 24.7263 11.9147 24.893 12.0549C24.9104 12.0055 24.9274 11.9556 24.9439 11.9062C25.0135 12.5495 25.0182 13.2034 24.9604 13.8479C24.8782 13.6588 24.8771 13.4423 24.7831 13.2603C23.4922 11.953 22.19 10.6531 20.89 9.35379C20.7509 9.22215 20.6841 9.03107 20.5302 8.9143C20.2612 8.31506 19.765 7.83205 19.15 7.59639C17.2657 5.7546 15.417 3.85813 13.5359 2.00626C13.1469 1.67081 12.8677 1.1973 12.3594 1.02374Z"
        fill="#002F66" stroke="#002F66" stroke-width="0.0442478" stroke-miterlimit="10" />
    <path
        d="M2.62891 1.10233C2.65385 1.09384 2.70266 1.07685 2.72707 1.06836C2.99239 1.15806 3.22321 1.32313 3.46041 1.46856C4.32321 2.03066 5.15365 2.64105 5.97294 3.26471C6.06156 3.21694 6.14699 3.16174 6.22924 3.10229C8.72692 5.57624 11.197 8.07884 13.6942 10.5539C13.8035 10.703 13.9849 10.7407 14.1543 10.6818C13.9785 10.8569 13.8104 11.04 13.6247 11.2051C13.448 11.2853 13.3074 11.4243 13.1323 11.5061C12.8924 11.316 12.6951 11.0814 12.4748 10.8707C9.29156 7.68554 6.10512 4.50195 2.92452 1.3157C2.83007 1.23927 2.72813 1.17292 2.62891 1.10233ZM16.5012 14.9763C16.7958 14.6796 17.0924 14.385 17.3879 14.0888C17.5423 14.3488 17.7844 14.5336 17.9945 14.7438C19.6337 16.4142 21.3194 18.0378 22.9415 19.7241C22.7139 20.0595 22.4693 20.3828 22.2103 20.6938C21.9779 20.5309 21.7732 20.3345 21.5826 20.1254C20.0427 18.5872 18.5034 17.0484 16.9661 15.5076C16.7914 15.3484 16.6147 15.1865 16.5012 14.9763Z"
        fill="#002F66" stroke="#002F66" stroke-width="0.0442478" stroke-miterlimit="10" />
    <path
        d="M13.8838 1.10214C13.9862 1.08775 14.0891 1.07348 14.1926 1.06445C14.6548 1.10638 15.1164 1.17539 15.568 1.28313C15.5293 1.29003 15.4513 1.3033 15.412 1.3102C15.5155 1.3585 15.6259 1.39725 15.7166 1.46837C18.4897 4.26715 21.2887 7.04205 24.0682 9.83552C24.2582 10.0967 24.6561 10.1625 24.6774 10.5367C24.6858 10.4963 24.7018 10.4161 24.7103 10.3759C24.8233 10.879 24.914 11.3907 24.9436 11.9061C24.9272 11.9554 24.9102 12.0053 24.8927 12.0547C24.7261 11.9146 24.5695 11.7638 24.4141 11.612C21.0801 8.27663 17.7461 4.94177 14.4117 1.60691C14.2462 1.42798 14.0753 1.25336 13.8838 1.10214Z"
        fill="#002F66" stroke="#002F66" stroke-width="0.0442478" stroke-miterlimit="10" />
    <path
        d="M9.55469 1.50344C9.9898 1.38508 10.426 1.26034 10.8734 1.19824C11.2618 1.289 11.4544 1.65259 11.7345 1.89727C12.41 2.548 13.0379 3.25022 13.7494 3.86274C14.9131 5.03416 16.0869 6.19603 17.2489 7.36957C17.355 7.48157 17.5067 7.52827 17.6522 7.56596C17.2691 7.69122 16.922 7.91255 16.6392 8.19917C16.5273 8.1806 16.3972 8.18378 16.3166 8.09036C14.2344 5.97841 12.0832 3.93864 10.01 1.81766C9.88638 1.67594 9.72767 1.57403 9.55469 1.50344ZM20.551 10.6301C21.1798 11.3663 21.9386 11.9815 22.5589 12.7256C23.1002 13.2633 23.6403 13.8026 24.1779 14.3445C24.3875 14.6114 24.7691 14.7511 24.795 15.1322C24.758 15.5276 24.6422 15.9135 24.5376 16.2962C24.223 16.0743 23.972 15.7808 23.6976 15.5144C22.7526 14.5665 21.8022 13.6238 20.8609 12.6726C20.5542 12.2952 20.1891 11.9741 19.8453 11.6323C20.1488 11.3525 20.4056 11.0192 20.551 10.6301Z"
        fill="#002F66" stroke="#002F66" stroke-width="0.0442478" stroke-miterlimit="10" />
    <path
        d="M15.4121 1.31027C15.4514 1.30337 15.5294 1.2901 15.5681 1.2832C18.6521 1.93128 21.4257 3.88241 23.1152 6.53948C23.8651 7.71196 24.4138 9.01554 24.7104 10.3759C24.7019 10.4163 24.686 10.4964 24.6775 10.5367C24.6563 10.1626 24.2583 10.0967 24.0683 9.83559C21.2889 7.04212 18.4898 4.26722 15.7167 1.46844C15.626 1.39732 15.5156 1.35857 15.4121 1.31027Z"
        fill="#002F66" stroke="#002F66" stroke-width="0.0442478" stroke-miterlimit="10" />
    <path
        d="M1.00628 2.51534C0.967546 2.08488 1.10763 1.63372 1.43503 1.3418C1.53638 1.40761 1.64039 1.47184 1.73059 1.55305C5.28476 5.10765 8.83415 8.66756 12.3947 12.2153C12.5316 12.1266 12.6743 12.0454 12.8313 11.9987C12.5554 12.2875 12.2731 12.5704 11.9856 12.8474C11.8625 12.8671 11.7494 12.9217 11.6407 12.9806C8.72219 10.1171 5.85519 7.19466 2.94998 4.3152C2.3509 3.68093 1.69345 3.10238 1.12143 2.44422C1.08322 2.4681 1.04502 2.49199 1.00628 2.51534Z"
        fill="#002F66" stroke="#002F66" stroke-width="0.0442478" stroke-miterlimit="10" />
    <path
        d="M8.35059 1.9371C8.74431 1.77256 9.14706 1.63032 9.55454 1.50293C9.72757 1.57352 9.88618 1.67543 10.0098 1.81715C12.083 3.93813 14.2342 5.9779 16.3165 8.08986C16.3971 8.18327 16.5271 8.18009 16.6391 8.19867C16.3584 8.47679 16.0825 8.7597 15.7996 9.0357C15.7004 9.04525 15.5991 9.07285 15.4998 9.05268C13.1056 6.69392 10.7496 4.2895 8.35059 1.9371Z"
        fill="#002F66" stroke="#002F66" stroke-width="0.0442478" stroke-miterlimit="10" />
    <path
        d="M7.25488 2.46779C7.61041 2.27087 7.97813 2.09624 8.3517 1.93701C10.7507 4.28941 13.1067 6.69382 15.5008 9.05259C15.6001 9.07276 15.7014 9.04516 15.8006 9.0356C15.5374 9.30099 15.2758 9.56797 15.0068 9.82805C14.8715 9.84345 14.7049 9.93952 14.5982 9.80788C14.1827 9.4098 13.8039 8.97191 13.3539 8.61045C11.5774 6.83183 9.79979 5.05373 8.02159 3.27616C7.76323 3.00971 7.48624 2.75971 7.25488 2.46779Z"
        fill="#002F66" stroke="#002F66" stroke-width="0.0442478" stroke-miterlimit="10" />
    <path
        d="M1.00611 2.51546C1.04485 2.49211 1.08305 2.46822 1.12126 2.44434C1.69328 3.1025 2.35073 3.68104 2.94981 4.31532C5.85502 7.19478 8.72202 10.1172 11.6405 12.9807C11.7493 12.9219 11.8623 12.8672 11.9854 12.8475C11.7864 13.0524 11.588 13.2578 11.381 13.4543C10.6959 12.7754 10.0162 12.0918 9.33537 11.4092C8.97667 11.0302 8.48265 10.7956 7.96953 10.7187C8.01357 10.7054 8.10219 10.6788 8.14623 10.6656C7.92442 10.5658 7.64001 10.6767 7.46224 10.4692C5.36466 8.31848 3.20075 6.23094 1.10847 4.0744C1.07504 4.12589 1.04161 4.1779 1.00924 4.22992C1.00293 3.65875 1.0077 3.08711 1.00611 2.51546Z"
        fill="#002F66" stroke="#002F66" stroke-width="0.0442478" stroke-miterlimit="10" />
    <path
        d="M6.22949 3.1005C6.55795 2.86961 6.90074 2.65783 7.25414 2.46729C7.4855 2.75921 7.76248 3.00921 8.0209 3.27566C9.79905 5.05322 11.5767 6.83132 13.3532 8.60995C13.8032 8.97141 14.1821 9.4093 14.5975 9.80738C14.7042 9.93901 14.8708 9.84294 15.0061 9.82755C14.7243 10.1136 14.4426 10.3997 14.1545 10.68C13.9852 10.7389 13.8037 10.7012 13.6944 10.5521C11.1973 8.07705 8.72717 5.57445 6.22949 3.1005ZM17.3882 14.087C17.6577 13.8153 17.9294 13.5462 18.2007 13.2755C19.8954 15.0419 21.6609 16.7424 23.3779 18.4877C23.4464 18.571 23.482 18.675 23.5255 18.7732C23.3419 19.0965 23.1492 19.4138 22.9418 19.7223C21.3197 18.0359 19.6338 16.4124 17.9947 14.742C17.7845 14.5318 17.5426 14.3472 17.3882 14.087Z"
        fill="#002F66" stroke="#002F66" stroke-width="0.0442478" stroke-miterlimit="10" />
    <path
        d="M1.10887 4.0752C3.20114 6.23174 5.36506 8.31928 7.46264 10.47C7.6404 10.6775 7.92482 10.5666 8.14662 10.6664C8.10258 10.6796 8.01397 10.7062 7.96992 10.7194C7.49448 10.6642 7.01373 10.7508 6.58126 10.953C6.45816 10.9413 6.33558 10.9562 6.21831 10.9939C4.5187 9.29697 2.80742 7.61016 1.13009 5.89045C1.08923 5.91539 1.04837 5.94034 1.00698 5.96529C1.00911 5.38727 1.00168 4.80873 1.00964 4.23071C1.04201 4.17875 1.07544 4.12673 1.10887 4.0752Z"
        fill="#002F66" stroke="#002F66" stroke-width="0.0442478" stroke-miterlimit="10" />
    <path
        d="M1.00666 5.964C1.04804 5.93905 1.0889 5.91411 1.12976 5.88916C2.80709 7.60887 4.51837 9.29568 6.21798 10.9926C6.33525 10.9549 6.45783 10.94 6.58093 10.9517C6.18721 11.1757 5.84123 11.4904 5.61625 11.8875C5.53824 11.9044 5.45971 11.9214 5.38171 11.9389C4.06203 10.6147 2.73704 9.29568 1.41789 7.97086C1.30275 7.84719 1.1998 7.68 1.00825 7.69167C1.00453 7.11578 1.00612 6.53989 1.00666 5.964Z"
        fill="#002F66" stroke="#002F66" stroke-width="0.0442478" stroke-miterlimit="10" />
    <path
        d="M1.00845 7.69199C1.20001 7.68031 1.30295 7.8475 1.4181 7.97117C2.73725 9.29599 4.06223 10.615 5.38191 11.9393C5.45991 11.9217 5.53845 11.9048 5.61645 11.8878C5.32248 12.3978 5.25509 13.0135 5.36917 13.5863C5.29701 13.686 5.28587 13.806 5.29966 13.9249C4.83536 13.4626 4.35779 13.0125 3.93117 12.5151C3.04183 11.6181 2.14135 10.7317 1.25519 9.83149C1.19205 9.75718 1.10078 9.72374 1.00845 9.70463C1.00527 9.03379 1.00474 8.36289 1.00845 7.69199Z"
        fill="#002F66" stroke="#002F66" stroke-width="0.0442478" stroke-miterlimit="10" />
    <path
        d="M1.00871 9.70459C1.10104 9.7237 1.19231 9.75714 1.25546 9.83145C2.14161 10.7316 3.04209 11.618 3.93143 12.515C4.35806 13.0124 4.83563 13.4625 5.29993 13.9249C5.28613 13.806 5.29727 13.686 5.36944 13.5862C5.48034 14.0017 5.6857 14.3956 5.99346 14.6997C7.25 15.955 8.50494 17.2119 9.76147 18.4671C10.1674 18.8663 10.7235 19.0902 11.2886 19.1263C11.0652 19.2458 10.8153 19.1677 10.5791 19.1454C10.7076 19.3933 10.9373 19.5589 11.1273 19.7553C11.7699 20.4039 12.4178 21.0466 13.0619 21.6937C14.0234 22.552 14.889 23.511 15.8239 24.3974C15.8956 24.4595 15.9401 24.5445 15.9795 24.6299C15.5125 24.7339 15.044 24.8512 14.5664 24.8884C14.3695 24.8263 14.1488 24.7865 13.9996 24.6315C10.1902 20.8699 6.42433 17.0637 2.63191 13.2846C2.23766 12.8828 1.86356 12.4613 1.44914 12.0797C1.29526 11.9486 1.21354 11.7283 1.00978 11.6636C1.00394 11.0108 1.00553 10.3574 1.00871 9.70459Z"
        fill="#002F66" stroke="#002F66" stroke-width="0.0442478" stroke-miterlimit="10" />
    <path
        d="M1.00985 11.6641C1.21361 11.7288 1.29533 11.9491 1.44921 12.0802C1.86364 12.4618 2.23773 12.8833 2.63199 13.2851C6.42441 17.0642 10.1903 20.8704 13.9997 24.632C14.1489 24.787 14.3696 24.8268 14.5665 24.8889C13.6782 25.0248 12.7692 25.0285 11.8756 24.9408C11.9706 24.9095 12.064 24.8739 12.1578 24.8395C9.33858 22.065 6.56184 19.2477 3.75793 16.458C2.89566 15.5828 2.00898 14.7309 1.16209 13.8407C1.12813 13.9309 1.09364 14.0207 1.06392 14.113C0.972175 13.2999 1.0141 12.4803 1.00985 11.6641Z"
        fill="#002F66" stroke="#002F66" stroke-width="0.0442478" stroke-miterlimit="10" />
    <path
        d="M19.0498 12.4265C19.3146 12.16 19.5799 11.8947 19.8469 11.6309C20.1907 11.9727 20.5557 12.2938 20.8625 12.6712C21.8038 13.6223 22.7542 14.565 23.6992 15.513C23.9736 15.7795 24.2246 16.073 24.5392 16.2948C24.4156 16.7634 24.24 17.2162 24.0622 17.6669C24.0257 17.5734 24.0007 17.4732 23.9396 17.393C22.3849 15.8532 20.846 14.2964 19.2934 12.7546C19.1983 12.6558 19.1241 12.5406 19.0498 12.4265Z"
        fill="#002F66" stroke="#002F66" stroke-width="0.0442478" stroke-miterlimit="10" />
    <path
        d="M18.2012 13.2755C18.4818 12.991 18.7662 12.7097 19.0491 12.4268C19.1234 12.5409 19.1976 12.6561 19.2927 12.7548C20.8454 14.2966 22.3842 15.8534 23.9389 17.3932C23.9999 17.4734 24.0249 17.5736 24.0615 17.6671C23.8991 18.0434 23.7155 18.4102 23.5261 18.7732C23.4826 18.675 23.447 18.571 23.3786 18.4877C21.6614 16.7425 19.896 15.0419 18.2012 13.2755Z"
        fill="#002F66" stroke="#002F66" stroke-width="0.0442478" stroke-miterlimit="10" />
    <path
        d="M1.16164 13.8413C2.00853 14.7315 2.89521 15.5833 3.75749 16.4586C6.56134 19.2484 9.33814 22.0657 12.1574 24.84C12.0635 24.8745 11.9701 24.9101 11.8751 24.9414C11.0675 24.8793 10.27 24.7079 9.49366 24.4781L9.49096 24.4643C9.48565 24.2393 9.25377 24.1384 9.11845 23.9945C6.64359 21.4865 4.12575 19.0222 1.65938 16.5063C1.62329 16.5318 1.58721 16.5573 1.55113 16.5827C1.30173 15.7807 1.12715 14.9511 1.06348 14.1135C1.09319 14.0212 1.12768 13.9315 1.16164 13.8413Z"
        fill="#002F66" stroke="#002F66" stroke-width="0.0442478" stroke-miterlimit="10" />
    <path
        d="M15.4932 15.9831C15.8285 15.6456 16.166 15.3112 16.5019 14.9746C16.6155 15.1848 16.7922 15.3467 16.9668 15.506C18.5041 17.0468 20.0433 18.5856 21.5833 20.1237C21.7738 20.3328 21.9785 20.5293 22.211 20.6922C21.943 21.0079 21.6677 21.3185 21.3668 21.603C21.2214 21.5966 21.043 21.6449 20.9381 21.5133C19.3498 19.9173 17.7543 18.3281 16.1639 16.7342C15.9304 16.4927 15.6614 16.2793 15.4932 15.9831Z"
        fill="#002F66" stroke="#002F66" stroke-width="0.0442478" stroke-miterlimit="10" />
    <path
        d="M14.5381 16.9383C14.8559 16.6193 15.1754 16.3024 15.4932 15.9834C15.6614 16.2796 15.9305 16.493 16.164 16.7344C17.7543 18.3283 19.3498 19.9175 20.9381 21.5136C21.0431 21.6451 21.2215 21.5968 21.3668 21.6032C20.9815 21.9795 20.5693 22.3282 20.1363 22.6482C18.5412 20.9848 16.8815 19.3824 15.2614 17.7428C15.0135 17.4813 14.7201 17.2562 14.5381 16.9383Z"
        fill="#002F66" stroke="#002F66" stroke-width="0.0442478" stroke-miterlimit="10" />
    <path
        d="M1.55176 16.5827C1.58784 16.5573 1.62392 16.5318 1.66001 16.5063C4.12638 19.0222 6.64422 21.4866 9.11909 23.9945C9.2544 24.1384 9.48628 24.2392 9.49159 24.4643C5.75648 23.3751 2.68837 20.2997 1.55176 16.5827Z"
        fill="#002F66" stroke="#002F66" stroke-width="0.0442478" stroke-miterlimit="10" />
    <path
        d="M13.5752 17.9018C13.8951 17.5801 14.2173 17.2607 14.5378 16.939C14.7198 17.2569 15.0132 17.4819 15.261 17.7436C16.881 19.3832 18.5409 20.9856 20.1359 22.6491C19.7645 22.9245 19.3782 23.1819 18.9738 23.4069C17.2547 21.6321 15.4786 19.9092 13.7435 18.1486C13.6792 18.0722 13.6283 17.9857 13.5752 17.9018Z"
        fill="#002F66" stroke="#002F66" stroke-width="0.0442478" stroke-miterlimit="10" />
    <path
        d="M12.6793 18.7426C13.0115 18.4995 13.281 18.1853 13.5756 17.9009C13.6287 17.9847 13.6796 18.0713 13.7439 18.1476C15.479 19.9082 17.255 21.6311 18.9742 23.406C18.5226 23.6756 18.045 23.8985 17.5617 24.1051C17.5379 24.0249 17.5256 23.9362 17.4656 23.8731C16.1539 22.5663 14.8469 21.2532 13.5357 19.9459C13.1881 19.6486 12.8469 19.3414 12.5508 18.9921C12.6034 18.9141 12.6528 18.8334 12.6793 18.7426Z"
        fill="#002F66" stroke="#002F66" stroke-width="0.0442478" stroke-miterlimit="10" />
    <path
        d="M11.2884 19.1269C11.7777 19.1326 12.2643 19.0038 12.6792 18.7432C12.6527 18.8339 12.6034 18.9146 12.5508 18.9926C12.8469 19.3419 13.1881 19.6492 13.5358 19.9464C14.847 21.2537 16.1539 22.5669 17.4656 23.8736C17.5256 23.9368 17.5378 24.0254 17.5617 24.1056C17.0464 24.3152 16.517 24.4877 15.9794 24.6305C15.9402 24.5451 15.8956 24.4601 15.8239 24.398C14.889 23.5117 14.0234 22.5525 13.0619 21.6943C12.4177 21.0474 11.7698 20.4045 11.1272 19.7559C10.9373 19.5595 10.7075 19.3939 10.5791 19.146C10.8151 19.1682 11.0651 19.2463 11.2884 19.1269Z"
        fill="#002F66" stroke="#002F66" stroke-width="0.0442478" stroke-miterlimit="10" />
</svg>
    