<svg width="18" height="18" viewBox="0 0 18 18" fill="none" xmlns="http://www.w3.org/2000/svg">
    <path fill-rule="evenodd" clip-rule="evenodd"
        d="M9.62663 17.7404C9.46042 17.9066 9.23501 18 9 18C8.76495 18 8.53958 17.9066 8.37337 17.7404C7.70655 17.0736 6.74659 16.1137 6.74659 16.1137C6.74659 16.1137 7.77461 16.1137 8.4363 16.1137C8.78557 16.1137 9.12052 15.9749 9.3675 15.728C10.4586 14.6369 13.4886 11.6068 13.4886 11.6068L13.5068 13.8603C13.5068 13.8603 10.865 16.5021 9.62663 17.7404ZM3.57199 13.6323C3.81851 13.8787 4.15286 14.0172 4.5015 14.0172C6.04373 14.0172 10.3306 14.0172 10.3306 14.0172L8.75006 15.6235H2.37649V12.4367C2.37649 12.4367 3.10414 13.1644 3.57199 13.6323ZM15.6235 15.6235H12.4367C12.4367 15.6235 13.1644 14.8959 13.6323 14.428C13.8787 14.1815 14.0172 13.8471 14.0172 13.4985C14.0172 11.9563 14.0172 7.66943 14.0172 7.66943L15.6235 9.24994V15.6235ZM0.259575 9.62663C0.093375 9.46042 -3.74887e-05 9.23501 1.12863e-08 9C3.75113e-05 8.76495 0.093375 8.53958 0.259575 8.37337C0.926363 7.70655 1.88633 6.74659 1.88633 6.74659C1.88633 6.74659 1.88633 7.77461 1.88633 8.4363C1.88633 8.78557 2.02508 9.12052 2.27205 9.3675C3.36315 10.4586 6.39315 13.4886 6.39315 13.4886L4.13974 13.5068C4.13974 13.5068 1.4979 10.865 0.259575 9.62663ZM9 4.86878C11.2801 4.86878 13.1312 6.71989 13.1312 9C13.1312 11.2801 11.2801 13.1312 9 13.1312C6.71989 13.1312 4.86878 11.2801 4.86878 9C4.86878 6.71989 6.71989 4.86878 9 4.86878ZM17.7404 8.37337C17.9066 8.53958 18 8.76499 18 9C18 9.23505 17.9066 9.46043 17.7404 9.62663C17.0736 10.2935 16.1137 11.2534 16.1137 11.2534C16.1137 11.2534 16.1137 10.2254 16.1137 9.5637C16.1137 9.21443 15.9749 8.87948 15.728 8.6325C14.6369 7.54136 11.6068 4.5114 11.6068 4.5114L13.8603 4.49318C13.8603 4.49318 16.5021 7.13505 17.7404 8.37337ZM2.37649 2.37649H5.56327C5.56327 2.37649 4.83562 3.10414 4.36774 3.57199C4.12125 3.81851 3.98276 4.15286 3.98276 4.5015C3.98276 6.04373 3.98276 10.3306 3.98276 10.3306L2.37649 8.75006V2.37649ZM11.2534 1.88633C11.2534 1.88633 10.2254 1.88633 9.5637 1.88633C9.21443 1.88633 8.87948 2.02508 8.6325 2.27205C7.54136 3.36315 4.5114 6.39315 4.5114 6.39315L4.49318 4.13974C4.49318 4.13974 7.13505 1.4979 8.37337 0.259575C8.53958 0.093375 8.76499 0 9 0C9.23505 0 9.46043 0.093375 9.62663 0.259575C10.2935 0.926363 11.2534 1.88633 11.2534 1.88633ZM15.6235 2.37649V5.56327C15.6235 5.56327 14.8959 4.83562 14.428 4.36774C14.1815 4.12125 13.8471 3.98276 13.4985 3.98276C11.9563 3.98276 7.66943 3.98276 7.66943 3.98276L9.24994 2.37649H15.6235Z"
        fill="#2D5DA7" />
</svg>
    