<svg width="32" height="33" viewBox="0 0 32 33" fill="none" xmlns="http://www.w3.org/2000/svg">
    <mask id="mask0_485_3474" style="mask-type:alpha" maskUnits="userSpaceOnUse" x="0" y="0"
        width="32" height="33">
        <rect y="0.216553" width="32" height="32" fill="#D9D9D9" />
    </mask>
    <g mask="url(#mask0_485_3474)">
        <path
            d="M26.6 28.2166C23.7333 28.2166 20.9391 27.5774 18.2173 26.2992C15.4947 25.0219 13.0836 23.333 10.984 21.2326C8.88356 19.133 7.19467 16.7219 5.91733 13.9992C4.63911 11.2774 4 8.48322 4 5.61655C4 5.21655 4.13333 4.88322 4.4 4.61655C4.66667 4.34989 5 4.21655 5.4 4.21655H10.8C11.1111 4.21655 11.3889 4.31655 11.6333 4.51655C11.8778 4.71655 12.0222 4.97211 12.0667 5.28322L12.9333 9.94989C12.9778 10.261 12.9724 10.5441 12.9173 10.7992C12.8613 11.0552 12.7333 11.2832 12.5333 11.4832L9.33333 14.7499C10.2667 16.3499 11.4333 17.8499 12.8333 19.2499C14.2333 20.6499 15.7778 21.861 17.4667 22.8832L20.6 19.7499C20.8 19.5499 21.0613 19.3997 21.384 19.2992C21.7058 19.1997 22.0222 19.1721 22.3333 19.2166L26.9333 20.1499C27.2444 20.2166 27.5 20.3663 27.7 20.5992C27.9 20.833 28 21.1054 28 21.4166V26.8166C28 27.2166 27.8667 27.5499 27.6 27.8166C27.3333 28.0832 27 28.2166 26.6 28.2166Z"
            fill="#596400" />
    </g>
</svg>
    