<svg width="32" height="33" viewBox="0 0 32 33" fill="none" xmlns="http://www.w3.org/2000/svg">
    <mask id="mask0_762_5968" style="mask-type:alpha" maskUnits="userSpaceOnUse" x="0" y="0" width="32" height="33">
    <rect y="0.5" width="32" height="32" fill="#D9D9D9"/>
    </mask>
    <g mask="url(#mask0_762_5968)">
    <path d="M26.6 28.5C23.7333 28.5 20.9391 27.8609 18.2173 26.5827C15.4947 25.3053 13.0836 23.6164 10.984 21.516C8.88356 19.4164 7.19467 17.0053 5.91733 14.2827C4.63911 11.5609 4 8.76667 4 5.9C4 5.5 4.13333 5.16667 4.4 4.9C4.66667 4.63333 5 4.5 5.4 4.5H10.8C11.1111 4.5 11.3889 4.6 11.6333 4.8C11.8778 5 12.0222 5.25556 12.0667 5.56667L12.9333 10.2333C12.9778 10.5444 12.9724 10.8276 12.9173 11.0827C12.8613 11.3387 12.7333 11.5667 12.5333 11.7667L9.33333 15.0333C10.2667 16.6333 11.4333 18.1333 12.8333 19.5333C14.2333 20.9333 15.7778 22.1444 17.4667 23.1667L20.6 20.0333C20.8 19.8333 21.0613 19.6831 21.384 19.5827C21.7058 19.4831 22.0222 19.4556 22.3333 19.5L26.9333 20.4333C27.2444 20.5 27.5 20.6498 27.7 20.8827C27.9 21.1164 28 21.3889 28 21.7V27.1C28 27.5 27.8667 27.8333 27.6 28.1C27.3333 28.3667 27 28.5 26.6 28.5Z" fill="white"/>
    </g>
    </svg>
    