<svg width="33" height="32" viewBox="0 0 33 32" fill="none" xmlns="http://www.w3.org/2000/svg">
    <mask id="mask0_584_17384" style="mask-type:alpha" maskUnits="userSpaceOnUse" x="0" y="0"
        width="33" height="32">
        <rect x="0.5" width="32" height="32" fill="#D9D9D9" />
    </mask>
    <g mask="url(#mask0_584_17384)">
        <path
            d="M13.2333 23.4333C13.0556 23.4333 12.8889 23.4053 12.7333 23.3493C12.5778 23.2942 12.4333 23.2 12.3 23.0667L6.56667 17.3333C6.32222 17.0889 6.20533 16.772 6.216 16.3827C6.22756 15.9942 6.35556 15.6778 6.6 15.4333C6.84444 15.1889 7.15556 15.0667 7.53333 15.0667C7.91111 15.0667 8.22222 15.1889 8.46667 15.4333L13.2333 20.2L24.5333 8.89999C24.7778 8.65555 25.0947 8.53333 25.484 8.53333C25.8724 8.53333 26.1889 8.65555 26.4333 8.89999C26.6778 9.14444 26.8 9.46088 26.8 9.84933C26.8 10.2387 26.6778 10.5555 26.4333 10.8L14.1667 23.0667C14.0333 23.2 13.8889 23.2942 13.7333 23.3493C13.5778 23.4053 13.4111 23.4333 13.2333 23.4333Z"
            fill="#1A1C1F" />
    </g>
</svg>
    