<svg width="41" height="40" viewBox="0 0 41 40" fill="none" xmlns="http://www.w3.org/2000/svg">
    <rect x="0.5" width="40" height="40" rx="20" fill="#2D5DA7" />
    <mask id="mask0_685_12655" style="mask-type:alpha" maskUnits="userSpaceOnUse" x="8" y="8"
        width="25" height="24">
        <rect x="8.5" y="8" width="24" height="24" fill="#D9D9D9" />
    </mask>
    <g mask="url(#mask0_685_12655)">
        <path
            d="M18.0501 25.575C17.9168 25.575 17.7918 25.554 17.6751 25.512C17.5585 25.4707 17.4501 25.4 17.3501 25.3L13.0501 21C12.8668 20.8167 12.7791 20.579 12.7871 20.287C12.7958 19.9957 12.8918 19.7584 13.0751 19.575C13.2585 19.3917 13.4918 19.3 13.7751 19.3C14.0585 19.3 14.2918 19.3917 14.4751 19.575L18.0501 23.15L26.5251 14.675C26.7085 14.4917 26.9461 14.4 27.2381 14.4C27.5295 14.4 27.7668 14.4917 27.9501 14.675C28.1335 14.8584 28.2251 15.0957 28.2251 15.387C28.2251 15.679 28.1335 15.9167 27.9501 16.1L18.7501 25.3C18.6501 25.4 18.5418 25.4707 18.4251 25.512C18.3085 25.554 18.1835 25.575 18.0501 25.575Z"
            fill="white" />
    </g>
</svg>
    