<svg width="33" height="32" viewBox="0 0 33 32" fill="none" xmlns="http://www.w3.org/2000/svg">
    <mask id="mask0_584_17377" style="mask-type:alpha" maskUnits="userSpaceOnUse" x="0" y="0"
        width="33" height="32">
        <rect x="0.5" width="32" height="32" fill="#D9D9D9" />
    </mask>
    <g mask="url(#mask0_584_17377)">
        <path
            d="M16.5001 17.8666L9.96673 24.3999C9.72229 24.6444 9.41118 24.7666 9.0334 24.7666C8.65562 24.7666 8.34451 24.6444 8.10006 24.3999C7.85562 24.1555 7.7334 23.8444 7.7334 23.4666C7.7334 23.0888 7.85562 22.7777 8.10006 22.5333L14.6334 15.9999L8.10006 9.46661C7.85562 9.22216 7.7334 8.91105 7.7334 8.53328C7.7334 8.1555 7.85562 7.84439 8.10006 7.59994C8.34451 7.3555 8.65562 7.23328 9.0334 7.23328C9.41118 7.23328 9.72229 7.3555 9.96673 7.59994L16.5001 14.1333L23.0334 7.59994C23.2778 7.3555 23.589 7.23328 23.9667 7.23328C24.3445 7.23328 24.6556 7.3555 24.9001 7.59994C25.1445 7.84439 25.2667 8.1555 25.2667 8.53328C25.2667 8.91105 25.1445 9.22216 24.9001 9.46661L18.3667 15.9999L24.9001 22.5333C25.1445 22.7777 25.2667 23.0888 25.2667 23.4666C25.2667 23.8444 25.1445 24.1555 24.9001 24.3999C24.6556 24.6444 24.3445 24.7666 23.9667 24.7666C23.589 24.7666 23.2778 24.6444 23.0334 24.3999L16.5001 17.8666Z"
            fill="#1A1C1F" />
    </g>
</svg>
    