<svg width="24" height="24" viewBox="0 0 24 24" fill="none" xmlns="http://www.w3.org/2000/svg">
    <mask id="mask0_485_3373" style="mask-type:alpha" maskUnits="userSpaceOnUse" x="0" y="0"
        width="24" height="24">
        <rect width="24" height="24" fill="#D9D9D9" />
    </mask>
    <g mask="url(#mask0_485_3373)">
        <path
            d="M6.5 20.0001C4.98333 20.0001 3.6875 19.4751 2.6125 18.4251C1.5375 17.3751 1 16.0918 1 14.5751C1 13.2751 1.39167 12.1168 2.175 11.1001C2.95833 10.0834 3.98333 9.43343 5.25 9.1501C5.53333 7.9501 6.24167 6.80843 7.375 5.7251C8.50833 4.64176 9.71667 4.1001 11 4.1001C11.55 4.1001 12.0208 4.29593 12.4125 4.6876C12.8042 5.07926 13 5.5501 13 6.1001V12.1501L13.9 11.2751C14.0833 11.0918 14.3125 11.0001 14.5875 11.0001C14.8625 11.0001 15.1 11.1001 15.3 11.3001C15.4833 11.4834 15.575 11.7168 15.575 12.0001C15.575 12.2834 15.4833 12.5168 15.3 12.7001L12.7 15.3001C12.6 15.4001 12.4917 15.4709 12.375 15.5126C12.2583 15.5543 12.1333 15.5751 12 15.5751C11.8667 15.5751 11.7417 15.5543 11.625 15.5126C11.5083 15.4709 11.4 15.4001 11.3 15.3001L8.7 12.7001C8.51667 12.5168 8.42083 12.2876 8.4125 12.0126C8.40417 11.7376 8.5 11.5001 8.7 11.3001C8.88333 11.1168 9.1125 11.0209 9.3875 11.0126C9.6625 11.0043 9.9 11.0918 10.1 11.2751L11 12.1501V6.1001C9.73333 6.33343 8.75 6.94593 8.05 7.9376C7.35 8.92926 7 9.9501 7 11.0001H6.5C5.53333 11.0001 4.70833 11.3418 4.025 12.0251C3.34167 12.7084 3 13.5334 3 14.5001C3 15.4668 3.34167 16.2918 4.025 16.9751C4.70833 17.6584 5.53333 18.0001 6.5 18.0001H18.5C19.2 18.0001 19.7917 17.7584 20.275 17.2751C20.7583 16.7918 21 16.2001 21 15.5001C21 14.8001 20.7583 14.2084 20.275 13.7251C19.7917 13.2418 19.2 13.0001 18.5 13.0001H17V11.0001C17 10.2001 16.8167 9.45426 16.45 8.7626C16.0833 8.07093 15.6 7.48343 15 7.0001V4.6751C16.2333 5.25843 17.2083 6.12093 17.925 7.2626C18.6417 8.40426 19 9.6501 19 11.0001C20.15 11.1334 21.1042 11.6293 21.8625 12.4876C22.6208 13.3459 23 14.3501 23 15.5001C23 16.7501 22.5625 17.8126 21.6875 18.6876C20.8125 19.5626 19.75 20.0001 18.5 20.0001H6.5Z"
            fill="#001B3F" />
    </g>
</svg>
    