<svg width="57" height="56" viewBox="0 0 57 56" fill="none" xmlns="http://www.w3.org/2000/svg">
    <mask id="mask0_535_8958" style="mask-type:alpha" maskUnits="userSpaceOnUse" x="0" y="0"
        width="57" height="56">
        <rect x="0.286133" width="56" height="56" fill="#D9D9D9" />
    </mask>
    <g mask="url(#mask0_535_8958)">
        <path
            d="M51.6016 45.3758L47.8226 41.6297V26.6508H32.8107L25.2857 19.1258H47.8226V13.1301H19.323L14.7019 8.4761H47.8226C49.0958 8.4761 50.1898 8.93345 51.1046 9.84816C52.0193 10.7629 52.4766 11.8569 52.4766 13.1301V42.8754C52.4766 43.3655 52.3934 43.816 52.2268 44.2268C52.0603 44.6377 51.8519 45.0207 51.6016 45.3758ZM21.7882 26.6508H8.74943V42.87H38.0403L21.7882 26.6508ZM8.74943 47.491C7.48527 47.491 6.39906 47.0369 5.49081 46.1286C4.58252 45.2203 4.12838 44.1341 4.12838 42.87V13.1301C4.12838 12.0056 4.51135 11.0037 5.27731 10.1245C6.04323 9.24538 6.96979 8.72886 8.05701 8.57497H9.22368L13.7788 13.1301H8.74943V19.1258H14.2632L3.02768 7.89025C2.65571 7.51568 2.46973 7.0585 2.46973 6.51872C2.46973 5.97898 2.66888 5.51212 3.06718 5.11814C3.4479 4.74617 3.90004 4.56018 4.4236 4.56018C4.94708 4.56018 5.40582 4.74617 5.7998 5.11814L49.5549 48.8403C49.9268 49.2382 50.1128 49.6915 50.1128 50.2001C50.1128 50.7088 49.9206 51.1601 49.5362 51.554C49.1518 51.948 48.6952 52.145 48.1666 52.145C47.638 52.145 47.1767 51.9485 46.7828 51.5556L42.6944 47.491H8.74943Z"
            fill="#1A1E00" />
    </g>
</svg>
    