<svg width="57" height="56" viewBox="0 0 57 56" fill="none" xmlns="http://www.w3.org/2000/svg">
    <mask id="mask0_535_8964" style="mask-type:alpha" maskUnits="userSpaceOnUse" x="0" y="0"
        width="57" height="56">
        <rect x="0.571777" width="56" height="56" fill="#D9D9D9" />
    </mask>
    <g mask="url(#mask0_535_8964)">
        <path
            d="M9.03511 18.6008H48.1083V13.1301H9.03511V18.6008ZM4.41406 13.1301C4.41406 11.8569 4.86821 10.7629 5.7765 9.84813C6.68475 8.93343 7.77095 8.47607 9.03511 8.47607H48.1083C49.3815 8.47607 50.4755 8.93343 51.3902 9.84813C52.305 10.7629 52.7623 11.8569 52.7623 13.1301V26.7091H9.03511V42.8699H20.4152C21.0649 42.8699 21.6124 43.0936 22.0577 43.5408C22.5031 43.9881 22.7257 44.5381 22.7257 45.1907C22.7257 45.8433 22.5031 46.3898 22.0577 46.8303C21.6124 47.2708 21.0649 47.491 20.4152 47.491H9.03511C7.77095 47.491 6.68475 47.0368 5.7765 46.1285C4.86821 45.2203 4.41406 44.1341 4.41406 42.8699V13.1301ZM9.03511 13.1301V42.8699V36.1334V40.8637V13.1301ZM35.8178 45.8221L47.9409 33.7319C48.3814 33.294 48.91 33.0792 49.5267 33.0877C50.1434 33.0961 50.6703 33.3193 51.1073 33.7573C51.5389 34.1952 51.7566 34.7189 51.7602 35.3285C51.7638 35.938 51.5466 36.4618 51.1087 36.8997L37.4714 50.537C37.0015 50.9969 36.4533 51.2268 35.8267 51.2268C35.2002 51.2268 34.657 50.9969 34.1971 50.537L27.1261 43.433C26.6661 42.9731 26.4459 42.4342 26.4653 41.8161C26.4848 41.1982 26.7286 40.6626 27.1969 40.2094C27.6188 39.7648 28.1407 39.5479 28.7625 39.5589C29.3844 39.5699 29.9253 39.8053 30.3852 40.2652L35.8178 45.8221Z"
            fill="#0F0F0F" fill-opacity="0.4" />
    </g>
</svg>
    