<svg width="84" height="32" viewBox="0 0 84 32" fill="none" xmlns="http://www.w3.org/2000/svg">
    <g clip-path="url(#clip0_762_4967)">
        <rect x="0.400391" width="83.2" height="32" rx="2" fill="white" />
        <path
            d="M21.2198 0.203055C21.7234 0.158533 22.2271 0.0778363 22.7307 0.0778363C42.4678 0.072271 62.2048 0.0834028 81.9419 0.0444463C83.1356 0.0444463 83.3972 0.386705 83.3805 1.51644C83.3165 6.05488 83.3582 10.5961 83.3443 15.1373C83.3443 15.5269 83.4918 15.9498 83.1439 16.4424C82.1728 15.0399 81.2462 13.6737 80.0219 12.5717C79.4403 12.0486 78.8198 11.5505 78.1603 11.1331C77.4841 10.7046 76.9276 10.8799 76.6299 11.6813C76.2459 12.7248 75.8285 13.7544 75.4556 14.8034C75.2024 15.5185 75.2831 16.0584 76.2486 15.8163C76.794 15.6799 77.2587 15.8218 77.7039 16.089C79.3012 17.0462 80.7899 18.1453 82.0281 19.5422C82.8462 20.4632 82.7015 21.0531 81.5495 21.3258C79.5488 21.8017 77.5092 21.874 75.4806 21.5095C74.5401 21.3425 73.7749 20.8667 73.5773 19.8037C73.5189 19.481 73.3965 19.1109 73.0152 19.1665C72.8093 19.1971 72.5394 19.5004 72.4838 19.7258C72.0998 21.2229 71.8772 22.7561 72.4726 24.2337C72.9095 25.3161 73.7332 26.1064 74.9659 26.1954C76.6299 26.3151 78.3022 26.3568 79.9606 26.1509C81.3213 25.9811 82.3231 25.177 83.3554 23.7022C83.3554 25.9366 83.3554 27.7926 83.3554 29.6458C83.3554 31.1726 82.6125 31.935 81.1265 31.9331C70.0545 31.9331 58.9798 31.9331 47.9078 31.9248C47.4792 31.9248 46.9756 32.1474 46.5832 31.5324C49.7359 29.9686 50.849 27.1693 51.0521 23.8608C51.0827 23.3683 51.1523 23.0455 51.7812 23.2431C52.8636 23.5853 53.8013 23.3349 54.4942 22.4055C54.7808 22.0215 54.9561 21.9909 55.3512 22.3498C57.0125 23.858 57.722 23.7968 59.45 22.0131C60.3349 23.577 61.7958 23.5714 63.2705 23.2931C64.801 23.0037 65.7832 21.9686 66.401 20.5857C67.706 17.6611 67.4445 14.8368 65.7805 12.1293C65.2629 11.289 64.7843 11.033 64.1332 12.1071C62.7196 14.4333 62.6862 14.4027 64.4532 16.6705C64.7815 17.0907 65.3102 17.5025 65.0097 18.1258C64.7565 18.6545 64.1638 18.6545 63.6712 18.7074C63.0758 18.7742 62.4636 18.7157 61.8681 18.7853C60.5297 18.9384 59.7255 18.4709 59.6031 17.0406C59.5641 16.5926 59.5057 15.9832 58.9352 15.9637C58.2591 15.9415 58.2619 16.6121 58.1478 17.0907C57.9502 17.9171 57.8166 18.8187 56.6785 18.7714C55.5961 18.7269 55.3819 17.8782 55.2399 17.0239C55.162 16.5592 55.1259 15.9749 54.5554 15.9693C53.8848 15.961 53.9099 16.6149 53.8013 17.1046C53.3839 18.9523 52.3432 19.3084 50.8295 18.137C50.0476 17.5304 49.5105 16.7095 48.929 15.9359C48.4865 15.3488 48.1554 15.3571 47.8132 15.9916C47.354 16.8486 46.9144 17.7168 46.4274 18.5571C46.1074 19.1109 46.4719 19.4142 46.7669 19.7648C47.6852 20.8667 48.6452 21.9436 49.3297 23.2152C50.0754 24.601 49.8194 25.8114 48.4198 26.4904C44.9805 28.1571 41.3714 28.4215 37.7596 27.1804C35.6671 26.4625 34.9881 24.4841 35.8285 21.9297C36.8886 23.2987 38.3328 23.1484 39.7603 23.1484C41.1238 23.1484 42.1756 22.5697 43.0048 21.5484C45.025 19.0524 44.9832 14.3192 42.9825 11.7731C42.4065 11.0413 41.9697 10.8493 41.5105 11.826C41.4521 11.9512 41.3659 12.0625 41.2935 12.1822C40.4049 13.6143 40.5134 14.9861 41.6191 16.2977C41.9947 16.7484 42.5763 17.2131 42.3286 17.8504C42.0838 18.4876 41.3436 18.4653 40.7592 18.5349C40.1638 18.6044 39.5572 18.6017 38.9561 18.6017C37.0333 18.6017 36.1874 17.906 35.7923 16.0111C35.7172 15.6493 35.7116 15.2625 35.5752 14.9258C35.3248 14.3053 34.9158 14.2942 34.5819 14.8479C34.3954 15.154 34.3509 15.5436 34.2424 15.897C33.5885 18.0563 32.5617 18.7964 30.394 18.674C28.858 18.5877 27.9899 17.5721 27.6643 15.4684C27.5975 15.0427 27.5252 14.553 27.0465 14.5001C26.5123 14.4417 26.4205 14.9704 26.3314 15.3627C26.1645 16.0918 25.9613 16.8097 25.5245 17.4191C24.7648 18.4792 23.6991 18.8298 22.4636 18.5071C21.242 18.1871 21.2392 17.1575 21.2365 16.1557C21.2225 11.9429 21.2003 7.73001 21.1836 3.51714C21.1975 2.41245 21.2114 1.30775 21.2253 0.203055H21.2198ZM72.314 6.1467C70.8253 7.26253 69.7067 8.1474 68.5352 8.95714C67.9592 9.35505 67.8118 9.77523 67.8952 10.4653C68.2959 13.7711 68.6271 17.0824 68.9999 20.3909C69.1697 21.9046 69.3672 23.4184 69.5926 24.9237C69.6427 25.266 69.754 25.7224 70.2215 25.714C70.6945 25.7057 70.7335 25.2465 70.8142 24.8959C70.8754 24.6288 70.8893 24.3477 70.9116 24.0723C71.1259 21.3537 71.3401 18.6323 71.5516 15.9137C71.7937 12.7944 72.0358 9.67505 72.3112 6.1467H72.314Z"
            fill="#0592B2" />
        <path
            d="M83.3554 23.7022V29.6458C83.3554 31.1726 82.6125 31.935 81.1265 31.9331C70.0545 31.9331 58.9798 31.9331 47.9078 31.9248C47.4792 31.9248 46.9756 32.1474 46.5832 31.5324C45.9368 31.781 44.3933 32.306 43.3916 32.4173C42.3899 32.5286 70.151 32.4636 84.1568 32.4173V22.539L83.3554 23.7022Z"
            fill="#0592B2" />
        <path
            d="M21.2198 0.203055C21.7234 0.158533 22.2271 0.0778363 22.7307 0.0778363C42.4678 0.072271 62.2048 0.0834028 81.9419 0.0444463C83.1356 0.0444463 83.3972 0.386705 83.3805 1.51644C83.3165 6.05488 83.3582 10.5961 83.3443 15.1373C83.3443 15.5269 83.4918 15.9498 83.1439 16.4424L84.0177 17.6694V-0.556641H21.2198V0.203055Z"
            fill="#0592B2" />
        <path
            d="M21.2202 0.203082C21.2063 1.30778 21.1924 2.41247 21.1785 3.51717C18.6324 4.77212 17.3023 6.49456 17.8839 9.62499C18.3291 12.0069 18.0703 14.5224 18.1315 16.9766C18.1454 17.5332 18.1705 18.0897 18.2261 18.6406C18.6296 22.4695 20.6776 23.9053 24.4647 23.09C25.8282 22.7979 26.2818 21.6514 26.8995 20.608C28.4244 23.2347 29.8574 23.7746 33.7253 22.6587C33.4971 24.4201 33.2828 26.1704 33.7586 27.8956C34.2818 29.785 35.6313 30.9147 37.351 31.8191H12.6331C13.8491 31.1318 14.9287 30.6504 15.6912 29.76C17.9506 27.1193 17.9479 23.986 17.5193 20.8055C17.28 19.033 16.6762 17.3662 15.5298 15.9332C15.104 15.4017 14.7701 15.2765 14.439 15.9888C14.4195 16.0306 14.3917 16.0695 14.3666 16.1057C13.1571 17.9162 13.2332 19.673 14.5948 21.376C17.1298 24.5509 16.5927 26.226 12.6887 27.264C10.2011 27.9262 7.69395 28.1822 5.1729 27.4532C2.47099 26.6713 1.66403 25.3161 2.20943 22.578C2.29012 22.169 2.39308 21.7627 2.43482 21.3481C2.4849 20.8278 2.81882 20.1377 2.08977 19.904C1.46925 19.7064 1.27725 20.3269 1.05464 20.786C0.982295 20.9363 0.829252 21.0448 0.617773 21.2758C1.06856 20.416 0.659513 19.6758 0.662295 18.9273C0.678991 13.042 0.673426 7.15404 0.662295 1.26882C0.662295 0.573167 0.620556 0.0416898 1.63343 0.0500376C7.98334 0.0973419 14.3333 0.086211 20.6804 0.0973414C20.8613 0.0973414 21.0421 0.164124 21.223 0.197515L21.2202 0.203082Z"
            fill="#D61820" />
        <path
            d="M1.05464 20.786C0.982295 20.9363 0.829252 21.0448 0.617773 21.2758C1.06856 20.416 0.659513 19.6758 0.662295 18.9273C0.678991 13.042 0.673426 7.15404 0.662295 1.26882C0.662295 0.573167 0.620556 0.0416898 1.63343 0.0500376C7.98334 0.0973419 14.3333 0.086211 20.6804 0.0973414C20.8613 0.0973414 21.0421 0.164124 21.223 0.197515V-0.27832H1.63343H0.122529L-0.0166016 23.0956L1.05464 20.786Z"
            fill="#D61820" />
        <path
            d="M37.351 31.8191H12.6331L11.5312 32.2782H39.2182C38.7396 32.204 37.6962 32.0083 37.351 31.8191Z"
            fill="#D61820" />
        <path
            d="M3.61694 31.7693C0.230502 31.8973 0.56998 32.5456 0.787023 29.3428C1.6385 30.3251 2.43433 31.2656 3.61694 31.7693Z"
            fill="#D61820" />
        <path
            d="M3.61694 31.7693C0.230502 31.8973 0.56998 32.5456 0.787023 29.3428C0.611727 29.1156 0.233308 28.4662 0.122004 27.6871C0.0106994 26.908 0.0756269 30.4233 0.122004 32.2784L5.26979 32.4176L3.61694 31.7693Z"
            fill="#D61820" />
        <circle cx="49.3746" cy="9.46107" r="1.66957" fill="white" />
        <circle cx="53.2701" cy="9.46107" r="1.66957" fill="white" />
        <circle cx="57.1657" cy="9.46107" r="1.66957" fill="white" />
        <circle cx="62.1744" cy="9.46107" r="1.66957" fill="white" />
        <ellipse cx="33.7916" cy="9.46107" rx="1.66957" ry="1.66957" fill="white" />
        <ellipse cx="8.47035" cy="18.6437" rx="1.66957" ry="1.66957" fill="white" />
        <ellipse cx="22.1051" cy="28.3825" rx="1.66957" ry="1.66957" fill="white" />
        <ellipse cx="26.0006" cy="28.3825" rx="1.66957" ry="1.66957" fill="white" />
        <circle cx="31.0094" cy="28.3825" r="1.66957" fill="white" />
    </g>
    <defs>
        <clipPath id="clip0_762_4967">
            <rect x="0.400391" width="83.2" height="32" rx="2" fill="white" />
        </clipPath>
    </defs>
</svg>
    