<svg width="104" height="40" viewBox="0 0 104 40" fill="none" xmlns="http://www.w3.org/2000/svg">
    <g clip-path="url(#clip0_740_24323)">
        <rect width="104" height="40" rx="2" fill="white" />
        <path
            d="M26.0242 0.253819C26.6538 0.198167 27.2834 0.0972953 27.9129 0.0972953C52.5842 0.0903388 77.2555 0.104254 101.927 0.0555579C103.419 0.0555579 103.746 0.483382 103.725 1.89556C103.645 7.5686 103.697 13.2451 103.68 18.9216C103.68 19.4086 103.864 19.9373 103.429 20.5529C102.216 18.7999 101.057 17.0921 99.5268 15.7147C98.7999 15.0608 98.0242 14.4382 97.1999 13.9164C96.3547 13.3808 95.659 13.5999 95.2868 14.6016C94.8068 15.906 94.2851 17.1929 93.819 18.5043C93.5025 19.3982 93.6033 20.0729 94.8103 19.7703C95.492 19.5999 96.0729 19.7773 96.6294 20.1112C98.626 21.3077 100.487 22.6816 102.035 24.4277C103.057 25.579 102.876 26.3164 101.436 26.6573C98.9355 27.2521 96.386 27.3425 93.8503 26.8869C92.6747 26.6782 91.7181 26.0834 91.4712 24.7547C91.3981 24.3512 91.2451 23.8886 90.7686 23.9582C90.5112 23.9964 90.1738 24.3756 90.1042 24.6573C89.6242 26.5286 89.346 28.4451 90.0903 30.2921C90.6364 31.6451 91.666 32.6329 93.2068 32.7443C95.2868 32.8938 97.3773 32.946 99.4503 32.6886C101.151 32.4764 102.403 31.4712 103.694 29.6277C103.694 32.4208 103.694 34.7408 103.694 37.0573C103.694 38.9657 102.765 39.9187 100.908 39.9164C87.0677 39.9164 73.2242 39.9164 59.3842 39.906C58.8486 39.906 58.219 40.1843 57.7286 39.4156C61.6694 37.4608 63.0607 33.9616 63.3147 29.826C63.3529 29.2103 63.4399 28.8069 64.226 29.0538C65.579 29.4816 66.7512 29.1686 67.6173 28.0069C67.9755 27.5269 68.1947 27.4886 68.6886 27.9373C70.7651 29.8225 71.652 29.746 73.812 27.5164C74.9181 29.4712 76.7442 29.4643 78.5877 29.1164C80.5007 28.7547 81.7286 27.4608 82.5007 25.7321C84.132 22.0764 83.8051 18.546 81.7251 15.1616C81.0781 14.1112 80.4799 13.7912 79.666 15.1338C77.899 18.0416 77.8573 18.0034 80.066 20.8382C80.4764 21.3634 81.1373 21.8782 80.7616 22.6573C80.4451 23.3182 79.7042 23.3182 79.0886 23.3843C78.3442 23.4677 77.579 23.3947 76.8346 23.4816C75.1616 23.6729 74.1564 23.0886 74.0033 21.3008C73.9547 20.7408 73.8816 19.979 73.1686 19.9547C72.3233 19.9269 72.3268 20.7651 72.1842 21.3634C71.9373 22.3964 71.7703 23.5234 70.3477 23.4643C68.9947 23.4086 68.7268 22.3477 68.5494 21.2799C68.452 20.699 68.4068 19.9686 67.6938 19.9616C66.8555 19.9512 66.8868 20.7686 66.7512 21.3808C66.2294 23.6903 64.9286 24.1356 63.0364 22.6712C62.059 21.9129 61.3877 20.8869 60.6607 19.9199C60.1077 19.186 59.6938 19.1964 59.266 19.9895C58.692 21.0608 58.1425 22.146 57.5338 23.1964C57.1338 23.8886 57.5894 24.2677 57.9581 24.706C59.106 26.0834 60.306 27.4295 61.1616 29.019C62.0938 30.7512 61.7738 32.2643 60.0242 33.1129C55.7251 35.1964 51.2138 35.5269 46.699 33.9756C44.0833 33.0782 43.2347 30.6051 44.2851 27.4121C45.6103 29.1234 47.4155 28.9356 49.1999 28.9356C50.9042 28.9356 52.219 28.2121 53.2555 26.9356C55.7807 23.8156 55.7286 17.899 53.2277 14.7164C52.5077 13.8016 51.9616 13.5616 51.3877 14.7825C51.3147 14.939 51.2068 15.0782 51.1164 15.2277C50.0057 17.0179 50.1413 18.7327 51.5234 20.3721C51.9929 20.9356 52.7199 21.5164 52.4103 22.3129C52.1042 23.1095 51.179 23.0816 50.4486 23.1686C49.7042 23.2556 48.946 23.2521 48.1947 23.2521C45.7912 23.2521 44.7338 22.3825 44.2399 20.0138C44.146 19.5616 44.139 19.0782 43.9686 18.6573C43.6555 17.8816 43.1442 17.8677 42.7268 18.5599C42.4938 18.9425 42.4381 19.4295 42.3025 19.8712C41.4851 22.5703 40.2016 23.4956 37.492 23.3425C35.572 23.2347 34.4868 21.9651 34.0799 19.3356C33.9964 18.8034 33.906 18.1912 33.3077 18.1251C32.6399 18.0521 32.5251 18.7129 32.4138 19.2034C32.2051 20.1147 31.9512 21.0121 31.4051 21.7738C30.4555 23.099 29.1234 23.5373 27.579 23.1338C26.052 22.7338 26.0486 21.4469 26.0451 20.1947C26.0277 14.9286 25.9999 9.66251 25.979 4.39643C25.9964 3.01556 26.0138 1.63469 26.0312 0.253819H26.0242ZM89.892 7.68338C88.0312 9.07816 86.6329 10.1843 85.1686 11.1964C84.4486 11.6938 84.2642 12.219 84.3686 13.0816C84.8694 17.2138 85.2833 21.3529 85.7494 25.4886C85.9616 27.3808 86.2086 29.273 86.4903 31.1547C86.5529 31.5825 86.692 32.153 87.2764 32.1425C87.8677 32.1321 87.9164 31.5582 88.0173 31.1199C88.0938 30.786 88.1112 30.4347 88.139 30.0903C88.4068 26.6921 88.6747 23.2903 88.939 19.8921C89.2416 15.9929 89.5442 12.0938 89.8886 7.68338H89.892Z"
            fill="#0592B2" />
        <path
            d="M103.694 29.6277V37.0573C103.694 38.9657 102.765 39.9187 100.908 39.9164C87.0677 39.9164 73.2242 39.9164 59.3842 39.906C58.8486 39.906 58.219 40.1843 57.7286 39.4156C56.9205 39.7263 54.9912 40.3825 53.739 40.5216C52.4868 40.6607 87.1883 40.5796 104.696 40.5216V28.1738L103.694 29.6277Z"
            fill="#0592B2" />
        <path
            d="M26.0242 0.253819C26.6538 0.198167 27.2834 0.0972953 27.9129 0.0972953C52.5842 0.0903388 77.2555 0.104254 101.927 0.0555579C103.419 0.0555579 103.746 0.483382 103.725 1.89556C103.645 7.5686 103.697 13.2451 103.68 18.9216C103.68 19.4086 103.864 19.9373 103.429 20.5529L104.522 22.0868V-0.695801H26.0242V0.253819Z"
            fill="#0592B2" />
        <path
            d="M26.0245 0.254097C26.0071 1.63497 25.9897 3.01583 25.9724 4.3967C22.7897 5.9654 21.1271 8.11844 21.8541 12.0315C22.4106 15.0089 22.0871 18.1532 22.1637 21.2211C22.1811 21.9167 22.2124 22.6124 22.2819 23.3011C22.7863 28.0871 25.3463 29.8819 30.0802 28.8628C31.7845 28.4976 32.3515 27.0645 33.1237 25.7602C35.0297 29.0437 36.8211 29.7184 41.6558 28.3237C41.3706 30.5254 41.1028 32.7132 41.6976 34.8697C42.3515 37.2315 44.0384 38.6437 46.188 39.7741H15.2906C16.8106 38.915 18.1602 38.3132 19.1132 37.2002C21.9376 33.8993 21.9341 29.9828 21.3984 26.0071C21.0993 23.7915 20.3445 21.708 18.9115 19.9167C18.3793 19.2524 17.9619 19.0958 17.548 19.9863C17.5237 20.0384 17.4889 20.0871 17.4576 20.1324C15.9457 22.3955 16.0408 24.5915 17.7428 26.7202C20.9115 30.6889 20.2402 32.7828 15.3602 34.0802C12.2506 34.908 9.1167 35.228 5.9654 34.3167C2.58801 33.3393 1.57931 31.6454 2.26105 28.2228C2.36192 27.7115 2.49062 27.2037 2.54279 26.6854C2.6054 26.035 3.02279 25.1724 2.11148 24.8802C1.33583 24.6332 1.09583 25.4089 0.817571 25.9828C0.727136 26.1706 0.535832 26.3063 0.271484 26.595C0.834963 25.5202 0.323658 24.595 0.327137 23.6593C0.348006 16.3028 0.34105 8.94279 0.327137 1.58627C0.327137 0.716703 0.274962 0.0523563 1.54105 0.0627911C9.47844 0.121922 17.4158 0.108008 25.3497 0.121921C25.5758 0.121921 25.8019 0.205399 26.028 0.247139L26.0245 0.254097Z"
            fill="#D61820" />
        <path
            d="M0.817571 25.9828C0.727136 26.1706 0.535832 26.3063 0.271484 26.595C0.834963 25.5202 0.323658 24.595 0.327137 23.6593C0.348006 16.3028 0.34105 8.94279 0.327137 1.58627C0.327137 0.716703 0.274962 0.0523563 1.54105 0.0627911C9.47844 0.121922 17.4158 0.108008 25.3497 0.121921C25.5758 0.121921 25.8019 0.205399 26.028 0.247139V-0.347656H1.54105H-0.347571L-0.521484 28.8697L0.817571 25.9828Z"
            fill="#D61820" />
        <path
            d="M46.188 39.7741H15.2906L13.9133 40.348H48.522C47.9238 40.2553 46.6195 40.0106 46.188 39.7741Z"
            fill="#D61820" />
        <path
            d="M4.02068 39.7111C-0.212361 39.8711 0.211987 40.6815 0.483291 36.678C1.54764 37.9059 2.54242 39.0815 4.02068 39.7111Z"
            fill="#D61820" />
        <path
            d="M4.02068 39.7111C-0.212361 39.8711 0.211987 40.6815 0.483291 36.678C0.26417 36.394 -0.208853 35.5823 -0.347984 34.6084C-0.487114 33.6345 -0.405955 38.0287 -0.347984 40.3475L6.08674 40.5215L4.02068 39.7111Z"
            fill="#D61820" />
        <circle cx="61.2173" cy="11.8262" r="2.08696" fill="white" />
        <circle cx="66.087" cy="11.8262" r="2.08696" fill="white" />
        <circle cx="70.9566" cy="11.8262" r="2.08696" fill="white" />
        <circle cx="77.2173" cy="11.8262" r="2.08696" fill="white" />
        <circle cx="41.7393" cy="11.8262" r="2.08696" fill="white" />
        <circle cx="10.087" cy="23.3042" r="2.08696" fill="white" />
        <ellipse cx="27.1304" cy="35.4781" rx="2.08696" ry="2.08696" fill="white" />
        <ellipse cx="32" cy="35.4781" rx="2.08696" ry="2.08696" fill="white" />
        <circle cx="38.2608" cy="35.4781" r="2.08696" fill="white" />
    </g>
    <defs>
        <clipPath id="clip0_740_24323">
            <rect width="104" height="40" rx="2" fill="white" />
        </clipPath>
    </defs>
</svg>
    