<svg width="24" height="24" viewBox="0 0 24 24" fill="none" xmlns="http://www.w3.org/2000/svg">
    <mask id="mask0_640_7198" style="mask-type:alpha" maskUnits="userSpaceOnUse" x="0" y="0"
        width="24" height="24">
        <rect width="24" height="24" fill="#D9D9D9" />
    </mask>
    <g mask="url(#mask0_640_7198)">
        <path
            d="M6.6998 14.675C6.51647 14.4917 6.4248 14.2584 6.4248 13.975C6.4248 13.6917 6.51647 13.4584 6.6998 13.275L11.2998 8.67502C11.3998 8.57502 11.5081 8.50402 11.6248 8.46202C11.7415 8.42069 11.8665 8.40002 11.9998 8.40002C12.1331 8.40002 12.2581 8.42069 12.3748 8.46202C12.4915 8.50402 12.5998 8.57502 12.6998 8.67502L17.3248 13.3C17.5081 13.4834 17.5998 13.7084 17.5998 13.975C17.5998 14.2417 17.4998 14.475 17.2998 14.675C17.1165 14.8584 16.8831 14.95 16.5998 14.95C16.3165 14.95 16.0831 14.8584 15.8998 14.675L11.9998 10.775L8.0748 14.7C7.89147 14.8834 7.66647 14.975 7.3998 14.975C7.13314 14.975 6.8998 14.875 6.6998 14.675Z"
            fill="#44474E" />
    </g>
</svg>
    