<svg width="24" height="24" viewBox="0 0 24 24" fill="none" xmlns="http://www.w3.org/2000/svg">
    <mask id="mask0_640_7242" style="mask-type:alpha" maskUnits="userSpaceOnUse" x="0" y="0"
        width="24" height="24">
        <rect width="24" height="24" fill="#D9D9D9" />
    </mask>
    <g mask="url(#mask0_640_7242)">
        <path
            d="M11.9997 14.95C11.8664 14.95 11.7414 14.929 11.6247 14.887C11.508 14.8457 11.3997 14.775 11.2997 14.675L6.6747 10.05C6.49136 9.86667 6.40403 9.63734 6.4127 9.36201C6.4207 9.08734 6.51636 8.85834 6.6997 8.67501C6.88303 8.49167 7.11636 8.40001 7.3997 8.40001C7.68303 8.40001 7.91636 8.49167 8.0997 8.67501L11.9997 12.575L15.9247 8.65001C16.108 8.46667 16.3374 8.37901 16.6127 8.38701C16.8874 8.39567 17.1164 8.49167 17.2997 8.67501C17.483 8.85834 17.5747 9.09167 17.5747 9.37501C17.5747 9.65834 17.483 9.89167 17.2997 10.075L12.6997 14.675C12.5997 14.775 12.4914 14.8457 12.3747 14.887C12.258 14.929 12.133 14.95 11.9997 14.95Z"
            fill="#44474E" />
    </g>
</svg>
    