<svg width="24" height="24" viewBox="0 0 24 24" fill="none" xmlns="http://www.w3.org/2000/svg">
    <g clip-path="url(#clip0_457_3770)">
        <path
            d="M15.84 12.0001C15.84 12.7596 15.6148 13.502 15.1928 14.1335C14.7709 14.765 14.1712 15.2572 13.4695 15.5478C12.7678 15.8385 11.9957 15.9145 11.2509 15.7663C10.506 15.6182 9.82174 15.2524 9.28471 14.7154C8.74768 14.1784 8.38195 13.4942 8.23378 12.7493C8.08562 12.0044 8.16166 11.2323 8.4523 10.5306C8.74294 9.82895 9.23513 9.22922 9.86661 8.80728C10.4981 8.38533 11.2405 8.16012 12 8.16012C13.0181 8.16129 13.9941 8.56623 14.714 9.28612C15.4339 10.006 15.8388 10.982 15.84 12.0001ZM24 6.72012V17.2801C23.998 19.0618 23.2893 20.7698 22.0295 22.0296C20.7697 23.2895 19.0616 23.9981 17.28 24.0001H6.72C4.93836 23.9981 3.23028 23.2895 1.97047 22.0296C0.710664 20.7698 0.00201777 19.0618 0 17.2801V6.72012C0.00201777 4.93849 0.710664 3.2304 1.97047 1.97059C3.23028 0.710786 4.93836 0.00213984 6.72 0.00012207H17.28C19.0616 0.00213984 20.7697 0.710786 22.0295 1.97059C23.2893 3.2304 23.998 4.93849 24 6.72012ZM17.76 12.0001C17.76 10.8609 17.4222 9.74726 16.7893 8.80004C16.1563 7.85281 15.2568 7.11454 14.2043 6.67858C13.1518 6.24262 11.9936 6.12855 10.8763 6.3508C9.75895 6.57305 8.73262 7.12164 7.92706 7.92719C7.12151 8.73274 6.57293 9.75907 6.35068 10.8764C6.12843 11.9937 6.24249 13.1519 6.67845 14.2044C7.11441 15.2569 7.85269 16.1565 8.79992 16.7894C9.74714 17.4223 10.8608 17.7601 12 17.7601C13.5271 17.7584 14.9912 17.151 16.071 16.0711C17.1509 14.9913 17.7583 13.5272 17.76 12.0001ZM19.68 5.76012C19.68 5.47532 19.5955 5.19691 19.4373 4.9601C19.2791 4.72329 19.0542 4.53873 18.7911 4.42974C18.5279 4.32074 18.2384 4.29223 17.9591 4.34779C17.6797 4.40335 17.4232 4.5405 17.2218 4.74189C17.0204 4.94328 16.8832 5.19986 16.8277 5.47919C16.7721 5.75852 16.8006 6.04806 16.9096 6.31119C17.0186 6.57431 17.2032 6.79921 17.44 6.95744C17.6768 7.11567 17.9552 7.20012 18.24 7.20012C18.6219 7.20012 18.9882 7.04841 19.2582 6.77836C19.5283 6.5083 19.68 6.14203 19.68 5.76012Z"
            fill="#002F66" />
    </g>
    <defs>
        <clipPath id="clip0_457_3770">
            <rect width="24" height="24" fill="white" />
        </clipPath>
    </defs>
</svg>
    