<svg width="24" height="24" viewBox="0 0 24 24" fill="none" xmlns="http://www.w3.org/2000/svg">
    <g clip-path="url(#clip0_457_3767)">
        <path
            d="M0 3.19705C0 2.42484 0.270278 1.78777 0.810811 1.28585C1.35134 0.783917 2.05406 0.532959 2.91892 0.532959C3.76835 0.532959 4.45559 0.780048 4.98069 1.27427C5.52123 1.78392 5.79151 2.448 5.79151 3.26655C5.79151 4.00786 5.52897 4.62561 5.00386 5.11983C4.46333 5.62948 3.7529 5.88431 2.87259 5.88431H2.84942C1.99999 5.88431 1.31275 5.62948 0.787645 5.11983C0.262541 4.61018 0 3.96924 0 3.19705ZM0.301158 23.4673V7.99242H5.44402V23.4673H0.301158ZM8.29344 23.4673H13.4363V14.8264C13.4363 14.2858 13.4981 13.8689 13.6216 13.5754C13.8378 13.0503 14.166 12.6063 14.6062 12.2434C15.0463 11.8804 15.5984 11.699 16.2625 11.699C17.9923 11.699 18.8571 12.865 18.8571 15.1971V23.4673H24V14.5947C24 12.309 23.4595 10.5754 22.3784 9.39396C21.2973 8.2125 19.8687 7.62176 18.0927 7.62176C16.1004 7.62176 14.5483 8.4789 13.4363 10.1932V10.2395H13.4131L13.4363 10.1932V7.99242H8.29344C8.32432 8.48662 8.33977 10.0233 8.33977 12.6025C8.33977 15.1816 8.32432 18.8032 8.29344 23.4673Z"
            fill="#002F66" />
    </g>
    <defs>
        <clipPath id="clip0_457_3767">
            <rect width="24" height="22.9344" fill="white" transform="translate(0 0.532959)" />
        </clipPath>
    </defs>
</svg>
    