<svg width="18" height="18" viewBox="0 0 18 18" fill="none" xmlns="http://www.w3.org/2000/svg">
    <mask id="mask0_457_3708" style="mask-type:alpha" maskUnits="userSpaceOnUse" x="0" y="0"
        width="18" height="19">
        <rect y="0.00012207" width="18" height="18" fill="#D9D9D9" />
    </mask>
    <g mask="url(#mask0_457_3708)">
        <path
            d="M9 9.00012C9.4125 9.00012 9.76575 8.85312 10.0598 8.55912C10.3533 8.26562 10.5 7.91262 10.5 7.50012C10.5 7.08762 10.3533 6.73437 10.0598 6.44037C9.76575 6.14687 9.4125 6.00012 9 6.00012C8.5875 6.00012 8.2345 6.14687 7.941 6.44037C7.647 6.73437 7.5 7.08762 7.5 7.50012C7.5 7.91262 7.647 8.26562 7.941 8.55912C8.2345 8.85312 8.5875 9.00012 9 9.00012ZM9 16.2189C8.9 16.2189 8.8 16.2001 8.7 16.1626C8.6 16.1251 8.5125 16.0751 8.4375 16.0126C6.6125 14.4001 5.25 12.9034 4.35 11.5224C3.45 10.1409 3 8.85012 3 7.65012C3 5.77512 3.60325 4.28137 4.80975 3.16887C6.01575 2.05637 7.4125 1.50012 9 1.50012C10.5875 1.50012 11.9843 2.05637 13.1903 3.16887C14.3967 4.28137 15 5.77512 15 7.65012C15 8.85012 14.55 10.1409 13.65 11.5224C12.75 12.9034 11.3875 14.4001 9.5625 16.0126C9.4875 16.0751 9.4 16.1251 9.3 16.1626C9.2 16.2001 9.1 16.2189 9 16.2189Z"
            fill="#44474E" />
    </g>
</svg>
    