<svg width="19" height="18" viewBox="0 0 19 18" fill="none" xmlns="http://www.w3.org/2000/svg">
    <mask id="mask0_485_2615" style="mask-type:alpha" maskUnits="userSpaceOnUse" x="0" y="0"
        width="19" height="18">
        <rect x="0.5" width="18" height="18" fill="#D9D9D9" />
    </mask>
    <g mask="url(#mask0_485_2615)">
        <path
            d="M9.5 9C9.9125 9 10.2657 8.853 10.5598 8.559C10.8533 8.2655 11 7.9125 11 7.5C11 7.0875 10.8533 6.73425 10.5598 6.44025C10.2657 6.14675 9.9125 6 9.5 6C9.0875 6 8.7345 6.14675 8.441 6.44025C8.147 6.73425 8 7.0875 8 7.5C8 7.9125 8.147 8.2655 8.441 8.559C8.7345 8.853 9.0875 9 9.5 9ZM9.5 16.2188C9.4 16.2188 9.3 16.2 9.2 16.1625C9.1 16.125 9.0125 16.075 8.9375 16.0125C7.1125 14.4 5.75 12.9032 4.85 11.5223C3.95 10.1407 3.5 8.85 3.5 7.65C3.5 5.775 4.10325 4.28125 5.30975 3.16875C6.51575 2.05625 7.9125 1.5 9.5 1.5C11.0875 1.5 12.4843 2.05625 13.6903 3.16875C14.8967 4.28125 15.5 5.775 15.5 7.65C15.5 8.85 15.05 10.1407 14.15 11.5223C13.25 12.9032 11.8875 14.4 10.0625 16.0125C9.9875 16.075 9.9 16.125 9.8 16.1625C9.7 16.2 9.6 16.2188 9.5 16.2188Z"
            fill="#44474E" />
    </g>
</svg>
    