<svg width="57" height="56" viewBox="0 0 57 56" fill="none" xmlns="http://www.w3.org/2000/svg">
<mask id="mask0_535_8946" style="mask-type:alpha" maskUnits="userSpaceOnUse" x="0" y="0" width="57" height="56">
<rect x="0.714355" width="56" height="56" fill="#D9D9D9"/>
</mask>
<g mask="url(#mask0_535_8946)">
<path d="M13.8442 52.0916C12.5734 52.0916 11.4855 51.6391 10.5806 50.7342C9.67562 49.8293 9.22314 48.7414 9.22314 47.4706V22.7474C9.22314 21.4676 9.67562 20.3719 10.5806 19.4605C11.4855 18.5491 12.5734 18.0934 13.8442 18.0934H17.2681V13.2188C17.2681 10.013 18.3796 7.28744 20.6028 5.04199C22.8259 2.79655 25.5291 1.67383 28.7124 1.67383C31.8957 1.67383 34.5994 2.79655 36.8237 5.04199C39.048 7.28744 40.1602 10.013 40.1602 13.2188V18.0934H43.584C44.8639 18.0934 45.9595 18.5491 46.871 19.4605C47.7824 20.3719 48.238 21.4676 48.238 22.7474V47.4706C48.238 48.7414 47.7824 49.8293 46.871 50.7342C45.9595 51.6391 44.8639 52.0916 43.584 52.0916H13.8442ZM13.8442 47.4706H43.584V22.7474H13.8442V47.4706ZM28.7239 39.6007C29.9618 39.6007 31.0183 39.1723 31.8933 38.3155C32.7683 37.4587 33.2058 36.4288 33.2058 35.2257C33.2058 34.059 32.765 32.9993 31.8835 32.0465C31.0019 31.0938 29.9422 30.6174 28.7043 30.6174C27.4664 30.6174 26.41 31.0938 25.535 32.0465C24.66 32.9993 24.2225 34.0688 24.2225 35.2549C24.2225 36.441 24.6632 37.4618 25.5448 38.3174C26.4263 39.1729 27.486 39.6007 28.7239 39.6007ZM21.8892 18.0934H35.5391V13.2264C35.5391 11.2834 34.882 9.64784 33.5679 8.31986C32.2537 6.99188 30.6407 6.32789 28.7288 6.32789C26.8168 6.32789 25.1989 6.99188 23.875 8.31986C22.5511 9.64784 21.8892 11.2834 21.8892 13.2264V18.0934Z" fill="#1A1E00"/>
</g>
</svg>
