<svg width="64" height="32" viewBox="0 0 64 32" fill="none" xmlns="http://www.w3.org/2000/svg">
    <mask id="mask0_544_11377" style="mask-type:luminance" maskUnits="userSpaceOnUse" x="31" y="0"
        width="33" height="32">
        <path
            d="M52.911 2.51171L31.5791 24.7188C39.1173 35.0436 51.4793 33.347 58.7942 26.1053C64.6615 20.2967 65.2144 10.5931 62.2203 3.5846C60.8521 0.381817 58.1399 -1.24765 54.538 1.13735C53.9448 1.53037 53.4041 1.99785 52.911 2.51049V2.51171Z"
            fill="white" />
    </mask>
    <g mask="url(#mask0_544_11377)">
        <path d="M65.2144 -1.2464H31.5791V35.0436H65.2144V-1.2464Z" fill="#002D5D" />
        <path
            d="M63.4798 27.8203C60.9129 30.5165 58.1825 32.8124 55.4411 34.6567C54.7563 35.1181 54.0704 35.5501 53.3856 35.9542V35.1937H32.9972V35.2682C32.5798 34.3747 32.3039 33.3812 32.1636 32.3059C31.8828 30.1552 32.144 27.6775 32.902 25.0313C34.418 19.7389 37.9222 13.7691 43.0559 8.37658C45.6228 5.68034 48.3532 3.38444 51.0946 1.54016C52.4653 0.618631 53.8385 -0.190607 55.1933 -0.88023C55.8707 -1.22443 56.5457 -1.53934 57.2121 -1.82373V-1.39531H65.3619V24.7347H66.1919C65.9099 25.0825 65.6219 25.4292 65.3265 25.7734C64.7369 26.463 64.1206 27.1465 63.4785 27.8203H63.4798Z"
            fill="#002D5D" />
        <path
            d="M63.4261 27.852C60.8702 30.536 58.1508 32.8234 55.4216 34.6591C54.7393 35.1181 54.057 35.5489 53.3759 35.9505V35.1937H33.0742V35.2682C32.6592 34.3796 32.3845 33.3897 32.2442 32.3181C31.9647 30.176 32.2246 27.7092 32.979 25.074C34.4888 19.8036 37.9784 13.8594 43.0889 8.49009C48.2007 3.1208 53.9667 -0.655648 59.1553 -2.42303V-1.39653H65.3619V24.7786H66.126C65.8453 25.1253 65.5584 25.4695 65.2643 25.8137C64.6772 26.5008 64.0632 27.1807 63.4237 27.852H63.4261Z"
            fill="#012E5F" />
        <path
            d="M63.3715 27.8837C60.8266 30.5568 58.1193 32.8331 55.4011 34.6615C54.7213 35.118 54.0414 35.5477 53.364 35.948V35.1937H33.1501V35.2682C32.7363 34.3833 32.4629 33.397 32.3238 32.3302C32.0455 30.1979 32.3043 27.7409 33.0549 25.1179C34.5587 19.8707 38.0324 13.9509 43.1222 8.6048C48.212 3.25869 53.9523 -0.501884 59.1202 -2.26195V-1.39778H65.3634V24.8225H66.0616C65.7821 25.1679 65.4965 25.5109 65.2035 25.8527C64.6189 26.5362 64.0074 27.2136 63.3715 27.8813V27.8837Z"
            fill="#012F60" />
        <path
            d="M63.3178 27.9142C60.7839 30.5763 58.0876 32.8429 55.3828 34.6628C54.7066 35.118 54.0292 35.5452 53.3542 35.9431V35.1925H33.227V35.2669C32.8157 34.3857 32.5423 33.4044 32.4044 32.3425C32.1273 30.2187 32.3848 27.7739 33.1331 25.1606C34.6295 19.9354 38.0898 14.0424 43.1564 8.71953C48.2242 3.39662 53.9401 -0.34809 59.0861 -2.09961V-1.39656H65.3647V24.8677H65.9981C65.7199 25.2107 65.4355 25.5524 65.1437 25.893C64.5615 26.574 63.9525 27.2478 63.319 27.913L63.3178 27.9142Z"
            fill="#023061" />
        <path
            d="M63.2643 27.946C60.7414 30.5959 58.0574 32.8527 55.3636 34.6653C54.6898 35.1181 54.0161 35.5441 53.3436 35.9408V35.1925H33.303V35.267C32.8929 34.3894 32.6219 33.4117 32.484 32.3547C32.2081 30.2407 32.4645 27.8056 33.209 25.2046C34.6993 20.0025 38.1438 14.134 43.1896 8.83431C48.2355 3.53459 53.927 -0.19425 59.0497 -1.93845V-1.39651H65.3637V24.9129H65.9313C65.6542 25.2547 65.3711 25.5952 65.0806 25.9345C64.5008 26.6119 63.8954 27.2832 63.2643 27.946Z"
            fill="#033163" />
        <path
            d="M63.2087 27.9777C60.6968 30.6166 58.0237 32.8636 55.3421 34.6689C54.672 35.1205 54.0007 35.544 53.3306 35.9383V35.1937H33.378V35.2682C32.9703 34.3942 32.6993 33.4214 32.5626 32.3693C32.288 30.2638 32.5431 27.8398 33.2852 25.2497C34.7694 20.0696 38.198 14.228 43.2219 8.95021C48.2457 3.67368 53.9128 -0.0392964 59.0136 -1.77617V-1.39657H65.3642V24.958H65.8659C65.59 25.2985 65.3081 25.6379 65.0188 25.9747C64.4415 26.6497 63.8385 27.3186 63.2099 27.9777H63.2087Z"
            fill="#033264" />
        <path
            d="M63.1555 28.0094C60.6546 30.6361 57.9937 32.8734 55.3231 34.6713C54.6555 35.1205 53.9878 35.5428 53.3202 35.9358V35.1937H33.4542V35.2682C33.0477 34.3979 32.7792 33.43 32.6413 32.3815C32.3679 30.2858 32.6217 27.8715 33.3602 25.2924C34.8371 20.1355 38.2522 14.3183 43.2541 9.06496C48.256 3.81162 53.8975 0.114513 58.9763 -1.61382V-1.39533H65.3623V25.0044H65.7981C65.5234 25.3437 65.2427 25.6806 64.9547 26.0162C64.3798 26.6888 63.7792 27.354 63.1543 28.0107L63.1555 28.0094Z"
            fill="#043366" />
        <path
            d="M63.1018 28.0412C60.6119 30.6569 57.962 32.8844 55.3036 34.6738C54.6384 35.1205 53.9732 35.5404 53.3104 35.9322V35.1938H33.5311V35.2682C33.1258 34.4016 32.8585 33.4374 32.7218 32.3938C32.4497 30.3066 32.7023 27.9033 33.4383 25.3364C34.9091 20.2015 38.3084 14.4099 43.2883 9.17973C48.2682 3.94836 53.8853 0.268338 58.9421 -1.45267V-1.3953H65.3636V25.0484H65.7334C65.46 25.3852 65.1805 25.7221 64.8936 26.0566C64.3212 26.7254 63.7231 27.3882 63.1006 28.0424L63.1018 28.0412Z"
            fill="#053467" />
        <path
            d="M63.0472 28.0729C60.5682 30.6764 57.9306 32.8954 55.2832 34.6762C54.6216 35.1217 53.9588 35.5391 53.2985 35.9297V35.1937H33.607V35.2669C33.2042 34.404 32.9382 33.4446 32.8015 32.4059C32.5305 30.3285 32.7819 27.9362 33.5143 25.3791C34.979 20.2673 38.3636 14.5014 43.3216 9.29319C48.2795 4.08501 53.8722 0.420857 58.9058 -1.29282C60.1642 -1.72124 61.3885 -2.02761 62.5578 -2.20581V-1.39657H65.3639V25.0923H65.6678C65.3956 25.4279 65.1173 25.7624 64.8317 26.0956C64.2617 26.762 63.666 27.4211 63.0472 28.0729Z"
            fill="#053569" />
        <path
            d="M62.9928 28.1047C60.5248 30.6972 57.8994 32.9052 55.2629 34.6787C54.6038 35.1217 53.9447 35.5379 53.2868 35.9261V35.1937H33.682V35.267C33.2805 34.4089 33.0156 33.452 32.8801 32.4182C32.6104 30.3493 32.8606 27.968 33.5893 25.4231C35.0466 20.3333 38.4166 14.5929 43.3526 9.40796C48.2886 4.22298 53.8568 0.57591 58.8685 -1.13045C61.3743 -1.98363 63.741 -2.35102 65.8209 -2.18258L65.3619 -1.39653V24.1305H66.3945C65.3619 25.4768 64.2256 26.8084 62.9916 28.1047H62.9928Z"
            fill="#06366A" />
        <path
            d="M62.9384 28.1364C60.4814 30.7179 57.8669 32.9162 55.2427 34.6811C54.5872 35.123 53.9306 35.5367 53.2751 35.9237V35.1937H33.757V35.267C33.3579 34.4126 33.093 33.4605 32.9587 32.4304C32.6902 30.3713 32.9392 27.9997 33.6654 25.4658C35.1167 20.3992 38.472 14.6845 43.3861 9.5227C48.3001 4.36091 53.8439 0.72971 58.8324 -0.969324C61.3272 -1.81884 63.6829 -2.18501 65.753 -2.01657L65.3612 -1.39652V24.1793H66.3243C65.2965 25.5207 64.1651 26.845 62.9359 28.1352L62.9384 28.1364Z"
            fill="#07376C" />
        <path
            d="M62.8845 28.1681C60.4385 30.7374 57.8362 32.9259 55.2242 34.6835C54.5712 35.1229 53.9182 35.5355 53.2652 35.92V35.1937H33.8349V35.267C33.437 34.4162 33.1746 33.4691 33.0403 32.4438C32.773 30.3932 33.0208 28.0327 33.7434 25.511C35.1885 20.4663 38.528 14.7773 43.42 9.63865C48.3121 4.50004 53.8303 0.884712 58.798 -0.805778C61.2819 -1.65163 63.6278 -2.01536 65.6881 -1.84937L65.3635 -1.39531V24.2306H66.2569C65.2329 25.5659 64.1075 26.8841 62.8845 28.1694V28.1681Z"
            fill="#07386D" />
        <path
            d="M62.8308 28.1999C60.3958 30.7582 57.8045 32.9369 55.2047 34.686C54.5541 35.1229 53.9035 35.5343 53.2554 35.9175V35.1937H33.9118V35.267C33.5163 34.4199 33.2539 33.4764 33.1209 32.456C32.8548 30.4152 33.1013 28.0644 33.8215 25.5537C35.2593 20.5322 38.5842 14.8676 43.4555 9.75215C48.3255 4.63674 53.8193 1.03727 58.7639 -0.645892C61.2367 -1.48809 63.5717 -1.8506 65.6235 -1.6846L65.3647 -1.39654V24.2782H66.1898C65.1706 25.6074 64.0501 26.9207 62.832 28.1986L62.8308 28.1999Z"
            fill="#08396E" />
        <path
            d="M62.7754 28.2316C60.3514 30.7777 57.7723 32.9467 55.1835 34.6884C54.5366 35.1242 53.8884 35.5331 53.2428 35.9139V35.1937H33.9858V35.267C33.5916 34.4236 33.3316 33.4849 33.1985 32.4682C32.9337 30.436 33.179 28.0961 33.8955 25.5976C35.3272 20.5982 38.6374 14.9603 43.4855 9.86689C48.3336 4.77467 53.803 1.19108 58.7256 -0.484768C61.1875 -1.32208 63.5114 -1.68337 65.5547 -1.51859L65.363 -1.39653V24.3282H66.1186C65.1043 25.6513 63.9887 26.9585 62.7766 28.2316H62.7754Z"
            fill="#093A70" />
        <path
            d="M62.7225 28.2633C60.3095 30.7985 57.7414 32.9576 55.1648 34.6909C54.5203 35.1242 53.8758 35.5318 53.2326 35.9102V35.1925H34.0635V35.2658C33.6717 34.426 33.4118 33.491 33.2799 32.4804C33.0163 30.4579 33.2616 28.1291 33.9732 25.6403C35.3988 20.6641 38.6932 15.0507 43.5205 9.98162C48.3467 4.91137 53.7916 1.34486 58.6922 -0.322439C61.1419 -1.15609 63.4561 -1.51616 65.4896 -1.35138H65.3651V24.3783H66.051C65.0416 25.6953 63.9297 26.9964 62.7238 28.2646L62.7225 28.2633Z"
            fill="#093B71" />
        <path
            d="M62.6686 28.2951C60.2666 30.818 57.7107 32.9674 55.1451 34.6933C54.5043 35.1254 53.8622 35.5294 53.2214 35.9078V35.1937H34.139V35.267C33.7484 34.4309 33.4897 33.5008 33.3591 32.4938C33.0954 30.4799 33.3408 28.162 34.0499 25.6855C35.4694 20.7312 38.7491 15.1446 43.5533 10.0976C48.3575 5.05051 53.7768 1.49987 58.6554 -0.16011C61.0941 -0.990098 63.3985 -1.34773 65.4223 -1.18417H65.3637V24.4283H65.9801C64.9743 25.7392 63.8685 27.0342 62.6674 28.2963L62.6686 28.2951Z"
            fill="#0A3C73" />
        <path
            d="M62.6133 28.3268C60.2222 30.8388 57.6773 32.9784 55.1239 34.6958C54.4855 35.1254 53.8459 35.5282 53.2088 35.9041V35.1925H34.213V35.2645C33.8249 34.4321 33.5673 33.5069 33.4367 32.5048C33.1743 30.5007 33.4184 28.1926 34.1239 25.727C35.5361 20.7959 38.8012 15.2338 43.5846 10.2099C48.3668 5.18601 53.7617 1.65246 58.6183 -0.00141394C61.0461 -0.82774 63.3395 -1.18415 65.3547 -1.02059C65.6061 -0.99984 65.8539 -0.971767 66.0968 -0.93515H65.3632V24.4747H65.9113C64.9104 25.7795 63.8094 27.0696 62.6145 28.3256L62.6133 28.3268Z"
            fill="#0B3D74" />
        <path
            d="M62.5593 28.3586C60.1792 30.8583 57.6465 32.9882 55.1041 34.6994C54.4682 35.1266 53.8323 35.5282 53.1988 35.9029V35.195H34.2909V35.267C33.904 34.4394 33.6477 33.5167 33.5183 32.5195C33.2571 30.5239 33.5 28.2267 34.203 25.7722C35.6091 20.863 38.8595 15.3265 43.6197 10.3271C48.38 5.32638 53.7505 1.8087 58.5839 0.163369C61.0007 -0.659296 63.2831 -1.01448 65.2885 -0.852147C65.5388 -0.831397 65.7853 -0.803323 66.027 -0.766706H65.363V24.5272H65.8415C64.8455 25.8259 63.7494 27.1099 62.5593 28.3598V28.3586Z"
            fill="#0B3E75" />
        <path
            d="M62.5062 28.3903C60.137 30.879 57.6153 32.9992 55.0851 34.7019C54.4528 35.1278 53.8194 35.527 53.1883 35.8992V35.1937H34.3671V35.2658C33.9826 34.4419 33.7275 33.524 33.5969 32.5305C33.337 30.5446 33.5786 28.2572 34.278 25.8149C35.678 20.9289 38.9125 15.4181 43.652 10.4406C48.3903 5.46308 53.7364 1.96126 58.5479 0.323256C60.9536 -0.495747 63.2263 -0.848492 65.2219 -0.687376C65.4709 -0.666626 65.7163 -0.638553 65.9567 -0.603156H65.3635V24.5736H65.7724C64.7813 25.8661 63.6901 27.1441 62.505 28.3891L62.5062 28.3903Z"
            fill="#0C3F77" />
        <path
            d="M62.4515 28.422C60.0934 30.8998 57.5839 33.0089 55.0658 34.7043C54.436 35.1278 53.8062 35.5257 53.1776 35.8968V35.195H34.4431V35.267C34.0598 34.4468 33.8059 33.5325 33.6765 32.5451C33.4178 30.569 33.6582 28.2926 34.3552 25.86C35.7479 20.9961 38.9677 15.5108 43.6852 10.5565C48.4015 5.60222 53.7232 2.11627 58.5115 0.485586C60.9063 -0.329756 63.168 -0.681281 65.1551 -0.520166C65.4028 -0.500636 65.647 -0.472563 65.8874 -0.435946H65.3638V24.6248H65.7031C64.7157 25.9113 63.6306 27.1831 62.4515 28.422Z"
            fill="#0C4078" />
        <path
            d="M62.3978 28.4537C60.0507 30.9193 57.5522 33.0199 55.0463 34.7067C54.4202 35.1278 53.7928 35.5245 53.1667 35.8931V35.1937H34.52V35.2657C34.138 34.4492 33.8865 33.5398 33.7571 32.5561C33.4996 30.5885 33.7388 28.3231 34.4321 25.9027C35.8187 21.0619 39.0239 15.6023 43.7182 10.67C48.4138 5.73889 53.7086 2.2688 58.4761 0.646665C60.8599 -0.165015 63.1107 -0.514099 65.088 -0.354205C65.3358 -0.334676 65.5786 -0.306602 65.8167 -0.269985H65.3638V24.6736H65.6348C64.6522 25.9552 63.572 27.2209 62.3978 28.4537Z"
            fill="#0D4179" />
        <path
            d="M62.3425 28.4842C60.0063 30.9388 57.52 33.0284 55.0251 34.7079C54.4014 35.1278 53.7765 35.5221 53.154 35.8895V35.1937H34.594V35.2657C34.2144 34.4528 33.963 33.5484 33.8348 32.5683C33.5785 30.6105 33.8165 28.3549 34.5061 25.9455C35.8866 21.1266 39.0759 15.6927 43.7495 10.7847C48.4231 5.87561 53.6935 2.42262 58.4379 0.807803C60.8107 -0.000215411 63.0504 -0.348079 65.0192 -0.188184C65.2657 -0.168655 65.5074 -0.140581 65.7442 -0.103964H65.3609V24.7237H65.5623C64.5847 25.9992 63.5093 27.2588 62.3412 28.4855L62.3425 28.4842Z"
            fill="#0E427B" />
        <path
            d="M62.2888 28.516C59.9636 30.9584 57.4883 33.0394 55.0056 34.7104C54.3844 35.1278 53.7631 35.5196 53.1443 35.8858V35.1925H34.6709V35.2645C34.2925 34.4553 34.0423 33.5545 33.9154 32.5805C33.6603 30.6313 33.8971 28.3866 34.5843 25.9894C35.9574 21.1938 39.1333 15.7855 43.7837 10.8995C48.4353 6.01356 53.6813 2.57643 58.4037 0.968943C60.7643 0.164587 62.9955 -0.180836 64.9545 -0.0221619C65.444 0.0168963 65.9175 0.0889112 66.3704 0.19266H65.3622V24.7725H65.494C64.5212 26.0419 63.4508 27.2954 62.2876 28.5172L62.2888 28.516Z"
            fill="#0E437C" />
        <path
            d="M62.2351 28.5477C59.9209 30.9791 57.4578 33.0492 54.9861 34.7128C54.3685 35.129 53.7497 35.5184 53.1333 35.8834V35.1937H34.7479V35.2658C34.3719 34.4602 34.1229 33.5643 33.996 32.5939C33.7421 30.6544 33.9777 28.4196 34.6612 26.0334C36.0282 21.2609 39.1883 15.877 43.8179 11.0142C48.4475 6.15147 53.6691 2.73143 58.3683 1.13126C60.7179 0.331791 62.9382 -0.0136303 64.8886 0.143823C65.3756 0.182882 65.8468 0.253675 66.2984 0.357423H65.3647V24.8213H65.4269C64.4578 26.0846 63.3922 27.332 62.2351 28.5477Z"
            fill="#0F447D" />
        <path
            d="M62.1807 28.5795C59.8775 30.9986 57.4266 33.0602 54.9659 34.7153C54.3507 35.129 53.7356 35.5172 53.1216 35.8797V35.1925H34.8228V35.2645C34.4481 34.4626 34.2003 33.5704 34.0746 32.6049C33.822 30.674 34.0563 28.4513 34.7374 26.0761C36.0983 21.3256 39.2437 15.9673 43.8502 11.1277C48.4578 6.28817 53.6538 2.884 58.3322 1.29115C60.6709 0.495342 62.8801 0.152361 64.8208 0.308594C65.3066 0.347653 65.7741 0.418444 66.2244 0.520972H65.3639V23.9242H66.0621C65.8326 24.2403 65.5983 24.5552 65.3578 24.8689C64.3936 26.1261 63.3329 27.3687 62.1819 28.5782L62.1807 28.5795Z"
            fill="#0F457F" />
        <path
            d="M62.1263 28.6112C59.8341 31.0194 57.3941 33.0711 54.9457 34.7177C54.3342 35.129 53.7214 35.516 53.1099 35.8772V35.1937H34.8978V35.2645C34.5255 34.4663 34.279 33.5789 34.1533 32.6183C33.9018 30.6971 34.1349 28.4842 34.8124 26.12C36.1672 21.3927 39.2967 16.0601 43.8824 11.2437C48.4681 6.42731 53.6397 3.039 58.2961 1.45348C60.6238 0.661331 62.822 0.319572 64.7542 0.475805C65.2375 0.514863 65.7038 0.585655 66.1505 0.686963H65.3633V23.9791H65.9894C65.7612 24.294 65.528 24.6077 65.2876 24.9202C64.3282 26.1713 63.2724 27.4077 62.1263 28.6112Z"
            fill="#104680" />
        <path
            d="M62.0726 28.6429C59.7914 31.0401 57.3637 33.0809 54.9262 34.7202C54.3171 35.1303 53.7068 35.5148 53.099 35.8736V35.1925H34.9747V35.2633C34.6037 34.4699 34.3584 33.5863 34.2339 32.6293C33.9836 30.7167 34.2155 28.5148 34.8893 26.1627C36.2368 21.4574 39.3529 16.1504 43.9154 11.3572C48.4791 6.56404 53.6263 3.1916 58.2596 1.61462C60.5762 0.826132 62.7647 0.485592 64.6871 0.641825C65.168 0.680883 65.6318 0.750456 66.0773 0.851764H65.3633V24.0316H65.9162C65.6892 24.3441 65.4573 24.6566 65.218 24.9678C64.2636 26.2128 63.2127 27.4431 62.0714 28.6417L62.0726 28.6429Z"
            fill="#114781" />
        <path
            d="M62.018 28.6746C59.7477 31.0596 57.331 33.0919 54.9069 34.7226C54.3003 35.1302 53.6937 35.5135 53.0883 35.8699V35.1925H35.0507V35.2633C34.6821 34.4736 34.4379 33.5935 34.3135 32.6427C34.0645 30.7398 34.2951 28.5477 34.9665 26.2066C36.3079 21.5245 39.4081 16.2431 43.9499 11.4719C48.4916 6.70192 53.6143 3.34535 58.2257 1.7757C60.5313 0.990873 62.7088 0.652774 64.6214 0.807786C65.0999 0.846844 65.5613 0.916418 66.0044 1.0165H65.3636V24.0853H65.8445C65.6187 24.3965 65.3867 24.7078 65.15 25.0166C64.1991 26.2555 63.1543 27.4797 62.0192 28.6734L62.018 28.6746Z"
            fill="#114882" />
        <path
            d="M61.9641 28.7064C59.7048 31.0804 57.3003 33.1017 54.8872 34.725C54.2843 35.1315 53.6801 35.5123 53.0784 35.8675V35.1925H35.1274V35.2633C34.76 34.4773 34.5171 33.6021 34.3939 32.6549C34.1461 30.7606 34.3768 28.5795 35.0432 26.2494C36.3785 21.5892 39.4629 16.3335 43.9827 11.5867C48.5024 6.83987 53.6008 3.49917 58.1889 1.93684C60.4836 1.15567 62.6501 0.818795 64.5542 0.973807C65.0302 1.01287 65.4891 1.08122 65.931 1.18253H65.3634V24.1402H65.7711C65.5465 24.4503 65.3158 24.7591 65.0802 25.0679C64.1343 26.3007 63.0944 27.52 61.9641 28.7064Z"
            fill="#124884" />
        <path
            d="M61.9104 28.7382C59.6621 31.1 57.2686 33.1127 54.8677 34.7275C54.2672 35.1315 53.6667 35.5111 53.0674 35.8638V35.1925H35.2043V35.2633C34.8394 34.4809 34.5965 33.6095 34.4744 32.6672C34.2279 30.7826 34.4574 28.6124 35.1213 26.2934C36.4493 21.6564 39.5203 16.425 44.0181 11.7014C48.5159 6.9766 53.5886 3.65298 58.156 2.09919C60.4396 1.32169 62.5964 0.987253 64.4907 1.13982C64.9643 1.17766 65.422 1.24723 65.8602 1.34732H65.3659V23.2663H66.3533C65.931 23.8852 65.483 24.5028 65.0131 25.1155C64.0721 26.3422 63.037 27.5554 61.9129 28.7369L61.9104 28.7382Z"
            fill="#124985" />
        <path
            d="M61.8553 28.7699C59.618 31.1207 57.2367 33.1224 54.8468 34.7311C54.2499 35.1327 53.6518 35.5099 53.055 35.8626V35.1937H35.2786V35.2645C34.9149 34.4858 34.6744 33.6192 34.5511 32.6818C34.3058 30.8058 34.534 28.6466 35.1944 26.3385C36.5162 21.7235 39.5713 16.519 44.0472 11.8174C48.523 7.11573 53.5713 3.80921 58.1155 2.26152C60.3882 1.48768 62.5339 1.15446 64.4185 1.30704C64.8896 1.34487 65.3449 1.41323 65.7819 1.51331H65.362V23.3261H66.2738C65.8527 23.9413 65.4084 24.5565 64.9397 25.1668C64.0035 26.3885 62.9733 27.5945 61.8541 28.7699H61.8553Z"
            fill="#134A86" />
        <path
            d="M61.8019 28.8016C59.5755 31.1402 57.2052 33.1334 54.8275 34.7336C54.2331 35.1339 53.6375 35.5086 53.0443 35.8589V35.1937H35.3545V35.2645C34.992 34.4894 34.7528 33.6277 34.6307 32.694C34.3866 30.8277 34.6136 28.6783 35.2715 26.3824C36.5873 21.7906 39.6278 16.6105 44.0816 11.9321C48.5355 7.25362 53.5593 3.96296 58.0816 2.4226C60.3421 1.65242 62.4781 1.32165 64.3541 1.473C64.8228 1.51083 65.2756 1.57919 65.7101 1.67805H65.3635V23.3835H66.1996C65.7809 23.9962 65.3379 24.6077 64.8728 25.2143C63.9403 26.43 62.9162 27.6298 61.8019 28.8004V28.8016Z"
            fill="#134B87" />
        <path
            d="M61.7472 28.8334C59.5319 31.161 57.1737 33.1432 54.8071 34.736C54.2151 35.1339 53.6231 35.5074 53.0323 35.8565V35.1937H35.4305V35.2645C35.0704 34.4931 34.8324 33.6351 34.7104 32.7062C34.4675 30.8485 34.6933 28.7101 35.3475 26.4252C36.6559 21.8553 39.6817 16.7021 44.1136 12.0468C48.5455 7.39158 53.545 4.11679 58.044 2.58497C60.2935 1.81967 62.4185 1.4889 64.286 1.64025C64.7523 1.67809 65.2039 1.74644 65.636 1.84409H65.3626V23.4433H66.123C65.7067 24.0524 65.2661 24.6614 64.8023 25.2656C63.8747 26.4752 62.8555 27.6701 61.7472 28.8334Z"
            fill="#144C88" />
        <path
            d="M61.6926 28.8651C59.487 31.1817 57.1411 33.1542 54.7866 34.7385C54.1983 35.1339 53.6087 35.5062 53.0216 35.8528V35.1937H35.5065V35.2645C35.1476 34.4968 34.9108 33.6436 34.79 32.7196C34.5483 30.8717 34.7729 28.743 35.4235 26.4703C36.7258 21.9237 39.7369 16.7949 44.1469 12.1628C48.5568 7.53072 53.5318 4.2718 58.0089 2.7473C60.2474 1.98567 62.3627 1.65611 64.2204 1.80746C64.6842 1.8453 65.1334 1.91243 65.563 2.0113H65.3628V23.5031H66.0476C65.6326 24.1097 65.1944 24.7151 64.733 25.3169C63.8103 26.5204 62.7948 27.7092 61.6926 28.8675V28.8651Z"
            fill="#144D8A" />
        <path
            d="M61.6391 28.8968C59.4445 31.2013 57.1108 33.1639 54.7673 34.7409C54.1814 35.1352 53.5956 35.505 53.0109 35.8504V35.1937H35.5824V35.2633C35.226 34.5005 34.9904 33.6497 34.8696 32.7306C34.6291 30.8912 34.8525 28.7748 35.5006 26.5118C36.7969 21.9872 39.7921 16.884 44.1801 12.2751C48.568 7.66621 53.5175 4.42316 57.9725 2.90599C60.2001 2.14801 62.3043 1.8209 64.1523 1.97103C64.6149 2.00887 65.0604 2.076 65.4888 2.17364H65.3619V23.5593H65.9709C65.5584 24.1634 65.1226 24.7652 64.6637 25.3633C63.7458 26.5606 62.7352 27.7434 61.6391 28.8956V28.8968Z"
            fill="#154E8B" />
        <path
            d="M61.5842 28.9285C59.4006 31.222 57.0779 33.1749 54.7478 34.7433C54.1656 35.1352 53.5822 35.5038 53 35.8467V35.1937H35.6593V35.2633C35.3041 34.5041 35.0698 33.6583 34.9502 32.7441C34.7109 30.9144 34.9331 28.8077 35.5775 26.557C36.8665 22.0555 39.8471 16.9779 44.2143 12.391C48.5803 7.80535 53.5053 4.57816 57.9384 3.06953C60.155 2.31522 62.2482 1.98932 64.0876 2.13823C64.5478 2.17485 64.9909 2.24198 65.4168 2.33963H65.3631V23.6178H65.8953C65.4852 24.2184 65.0507 24.8177 64.5942 25.4133C63.6812 26.6046 62.6754 27.7824 61.5842 28.9285Z"
            fill="#154E8C" />
        <path
            d="M61.5308 28.9603C59.3582 31.2415 57.0476 33.1847 54.7286 34.7458C54.1488 35.1364 53.5678 35.5025 52.9893 35.8443V35.195H35.7353V35.2645C35.3825 34.509 35.1482 33.668 35.0298 32.7575C34.7918 30.9364 35.0127 28.8407 35.6547 26.6009C36.9375 22.1214 39.9035 17.0695 44.2475 12.507C48.5915 7.94326 53.4921 4.73316 57.9033 3.23186C60.1088 2.48121 62.1911 2.15776 64.022 2.30545C64.4797 2.34206 64.9215 2.4092 65.3451 2.50562C65.5575 2.55444 65.765 2.60937 65.9676 2.67284H65.3658V23.6764H65.8223C65.4134 24.2745 64.9826 24.8701 64.5273 25.4633C63.618 26.6485 62.6183 27.8203 61.532 28.9603H61.5308Z"
            fill="#164F8D" />
        <path
            d="M61.4774 28.992C59.3158 31.2623 57.0162 33.1957 54.7093 34.7482C54.132 35.1364 53.5547 35.5013 52.9786 35.8407V35.1938H35.8112V35.2633C35.4597 34.5115 35.2278 33.6741 35.1094 32.7685C34.8726 30.9572 35.0923 28.8712 35.7307 26.6437C37.0074 22.1873 39.9575 17.161 44.2808 12.6205C48.6028 8.07999 53.479 4.88576 57.8669 3.393C60.0615 2.64601 62.1341 2.32378 63.9539 2.47147C64.4092 2.50808 64.8486 2.57399 65.2697 2.67042C65.4809 2.71802 65.6871 2.77417 65.8885 2.83764H65.3625V23.735H65.7433C65.3368 24.3295 64.9072 24.9226 64.4556 25.5122C63.5511 26.6913 62.5564 27.8569 61.4762 28.992H61.4774Z"
            fill="#17508E" />
        <path
            d="M61.4225 29.0238C59.2719 31.2818 56.9845 33.2054 54.6886 34.7507C54.1149 35.1364 53.5401 35.4989 52.9676 35.8382V35.195H35.8882V35.2645C35.5391 34.5163 35.3072 33.6839 35.19 32.7831C34.9544 30.9816 35.1729 28.9054 35.8076 26.6888C37.0782 22.2545 40.0137 17.2538 44.3138 12.7365C48.6138 8.21913 53.4644 5.04198 57.8316 3.55533C60.0152 2.812 62.0767 2.49221 63.8881 2.63868C64.7937 2.71191 65.6371 2.90232 66.4012 3.21479H65.3637V23.7948H65.6689C65.2649 24.3868 64.8377 24.9763 64.3873 25.5634C63.4877 26.7364 62.4978 27.896 61.4225 29.025V29.0238Z"
            fill="#17518F" />
        <path
            d="M61.3681 29.0555C59.2284 31.3025 56.9533 33.2164 54.6684 34.7531C54.0971 35.1376 53.5259 35.4976 52.9559 35.8345V35.1937H35.9631V35.2633C35.6153 34.5187 35.3858 33.69 35.2686 32.7941C35.0343 31.001 35.2515 28.9371 35.8838 26.7303C37.1471 22.3191 40.0679 17.3429 44.346 12.8487C48.6241 8.35458 53.4502 5.1933 57.7942 3.71396C59.9656 2.9743 62.0174 2.65573 63.8202 2.8022C64.721 2.87543 65.5607 3.06462 66.3212 3.37465H65.3642V23.8497H65.5937C65.1909 24.438 64.7661 25.0251 64.3182 25.6086C63.4235 26.7754 62.4385 27.9301 61.3681 29.053V29.0555Z"
            fill="#185290" />
        <path
            d="M61.3137 29.086C59.185 31.3221 56.9209 33.2262 54.6481 34.7543C54.0806 35.1364 53.5118 35.4952 52.9442 35.8296V35.1925H36.0381V35.2621C35.6927 34.5212 35.4632 33.6973 35.3473 32.8051C35.1141 31.0218 35.3302 28.9676 35.9588 26.773C37.216 22.3838 40.1221 17.4344 44.3783 12.9635C48.6344 8.49251 53.4361 5.34709 57.7582 3.87631C59.9186 3.1403 61.9606 2.82417 63.7536 2.9682C64.6507 3.04021 65.4844 3.2294 66.2411 3.53821H65.3635V23.9095H65.5173C65.117 24.4954 64.6947 25.0788 64.2492 25.6598C63.3581 26.8218 62.3792 27.9692 61.3149 29.0872L61.3137 29.086Z"
            fill="#185291" />
        <path
            d="M61.26 29.1177C59.1423 31.3416 56.8904 33.2359 54.6286 34.7568C54.0635 35.1376 53.4972 35.494 52.9333 35.8272V35.1925H36.115V35.2621C35.7708 34.5249 35.5438 33.7059 35.4278 32.8185C35.1959 31.0438 35.4107 29.0006 36.0369 26.817C37.288 22.451 40.1783 17.526 44.4125 13.0782C48.6466 8.63045 53.4239 5.50091 57.7228 4.03744C59.8722 3.3051 61.9032 2.99019 63.6865 3.13422C64.5787 3.20623 65.4087 3.39298 66.1618 3.70057H65.3636V23.9669H65.4417C65.0438 24.5491 64.6227 25.1301 64.1796 25.7087C63.2935 26.8646 62.3195 28.0058 61.26 29.1177Z"
            fill="#195393" />
        <path
            d="M61.2057 29.1495C59.099 31.3624 56.858 33.2469 54.6085 34.7604C54.0458 35.1388 53.4831 35.494 52.9216 35.8248V35.1937H36.1901V35.2621C35.8483 34.5298 35.6213 33.7132 35.5053 32.8307C35.2746 31.0658 35.4894 29.0323 36.1107 26.8609C37.3545 22.5169 40.2301 17.6187 44.4436 13.193C48.6557 8.76838 53.4086 5.65471 57.6855 4.19857C59.824 3.47111 61.844 3.1562 63.6187 3.30023C64.5061 3.37224 65.3324 3.55777 66.0806 3.86413H65.3617V24.0255H65.3641C64.9687 24.6053 64.5488 25.1826 64.1082 25.7575C63.2269 26.9073 62.2566 28.0424 61.2044 29.1495H61.2057Z"
            fill="#195494" />
        <path
            d="M61.1507 29.1812C59.055 31.3819 56.8263 33.2567 54.589 34.7629C54.0299 35.1388 53.4697 35.4928 52.9119 35.8223V35.1937H36.267V35.2621C35.9264 34.5334 35.7006 33.7217 35.5859 32.8429C35.3564 31.0865 35.57 29.064 36.1889 26.9036C37.4265 22.5828 40.2875 17.7091 44.4778 13.3077C48.668 8.9063 53.3952 5.80849 57.6502 4.3609C59.7776 3.6371 61.7867 3.32463 63.5528 3.46744C64.4353 3.53945 65.2567 3.72376 66.0025 4.0289H65.3629V22.3533H66.4029C65.009 24.6627 63.2465 26.9805 61.1507 29.1824V29.1812Z"
            fill="#195595" />
        <path
            d="M61.0981 29.2129C59.0133 31.4026 56.7955 33.2677 54.5704 34.7653C54.0139 35.14 53.4573 35.4916 52.9019 35.8187V35.1937H36.3449V35.2621C36.0056 34.5371 35.7822 33.729 35.6675 32.8563C35.4392 31.1097 35.6516 29.097 36.2668 26.9488C37.4983 22.6499 40.3435 17.8018 44.5129 13.4236C48.6812 9.04422 53.3841 5.9635 57.617 4.52322C59.7335 3.80309 61.7328 3.49184 63.4879 3.63465C64.3655 3.70544 65.1833 3.88975 65.9242 4.19245H65.364V22.4217H66.3221C64.9355 24.7188 63.1816 27.0257 61.0981 29.2142V29.2129Z"
            fill="#1A5596" />
        <path
            d="M61.0437 29.2447C58.9699 31.4222 56.7643 33.2774 54.5502 34.7677C53.9973 35.14 53.4432 35.4903 52.8903 35.8162V35.1937H36.4199V35.2621C36.083 34.5407 35.8596 33.7376 35.7461 32.8685C35.5191 31.1304 35.7302 29.1299 36.3418 26.9915C37.566 22.7158 40.3977 17.8934 44.544 13.5371C48.6915 9.18092 53.3687 6.11728 57.5785 4.68311C59.6839 3.96664 61.6723 3.65783 63.4189 3.79942C64.2928 3.87021 65.1057 4.0533 65.8429 4.35478H65.3633V22.4876H66.2409C64.8616 24.7725 63.1174 27.0672 61.0437 29.2447Z"
            fill="#1A5697" />
        <path
            d="M60.9892 29.2764C58.9265 31.4429 56.7319 33.2884 54.53 34.7702C53.9795 35.1413 53.4278 35.4879 52.8786 35.8126V35.1938H36.4948V35.2621C36.1592 34.5444 35.9382 33.7462 35.8247 32.882C35.5989 31.1537 35.8089 29.1629 36.4179 27.0367C37.6361 22.783 40.4519 17.9861 44.5775 13.6531C48.703 9.3201 53.3558 6.27233 57.5436 4.8467C59.6381 4.13389 61.6154 3.82631 63.3535 3.96667C64.2225 4.03746 65.0306 4.21933 65.7641 4.51837H65.3638V22.5547H66.1596C64.7877 24.8274 63.052 27.1099 60.9905 29.2764H60.9892Z"
            fill="#1B5798" />
        <path
            d="M60.9356 29.3081C58.8838 31.4624 56.7014 33.2982 54.5105 34.7726C53.9625 35.1412 53.4144 35.4867 52.8676 35.8101V35.1937H36.5718V35.2621C36.2385 34.548 36.0176 33.7534 35.9053 32.8942C35.6807 31.1744 35.8895 29.1946 36.4949 27.0794C37.7069 22.8489 40.5081 18.0777 44.6104 13.7678C48.714 9.45798 53.3412 6.42609 57.5082 5.00778C59.5917 4.29863 61.5581 3.99349 63.2864 4.13263C64.1506 4.20221 64.9549 4.38407 65.6848 4.68189H65.3638V22.6231H66.0778C64.7132 24.8836 62.9874 27.1538 60.9356 29.3093V29.3081Z"
            fill="#1B5799" />
        <path
            d="M60.8812 29.3399C58.8404 31.4832 56.669 33.3092 54.4903 34.7751C53.9459 35.1413 53.4003 35.4855 52.8559 35.8065V35.1937H36.6467V35.2621C36.3147 34.5517 36.0962 33.762 35.984 32.9064C35.7606 31.1964 35.9681 29.2264 36.5711 27.1233C37.777 22.9148 40.5623 18.1692 44.6439 13.8826C48.7255 9.59593 53.3283 6.5799 57.4721 5.16892C59.5434 4.46343 61.5012 4.15951 63.2198 4.29865C64.0791 4.36823 64.8798 4.54887 65.6048 4.84547H65.3631V22.6902H65.9954C64.6381 24.9385 62.9207 27.1966 60.8812 29.3399Z"
            fill="#1C589A" />
        <path
            d="M60.8265 29.3716C58.7967 31.504 56.6375 33.319 54.4698 34.7775C53.9279 35.1425 53.3859 35.4842 52.8452 35.804V35.1938H36.7227V35.2621C36.3931 34.5554 36.1747 33.7694 36.0636 32.9198C35.8414 31.2184 36.0477 29.2593 36.647 27.1673C37.8456 22.9819 40.6175 18.2608 44.6759 13.9973C48.7355 9.73387 53.3139 6.7337 57.4358 5.33126C59.4961 4.62944 61.4429 4.32796 63.1529 4.46588C64.0073 4.53545 64.8031 4.71488 65.5257 5.00903H65.3634V22.7586H65.9139C64.5639 24.9947 62.8563 27.2405 60.8265 29.3729V29.3716Z"
            fill="#1C599B" />
        <path
            d="M60.7728 29.4033C58.754 31.5235 56.6058 33.3299 54.4503 34.78C53.9108 35.1425 53.3725 35.483 52.8342 35.8004V35.1937H36.7996V35.2621C36.4713 34.5603 36.254 33.7779 36.1442 32.932C35.9232 31.2403 36.1283 29.2923 36.7251 27.21C37.9176 23.0478 40.6737 18.3523 44.7113 14.1108C48.749 9.87055 53.3029 6.88625 57.4016 5.49114C59.451 4.79297 61.3868 4.49271 63.0883 4.63063C63.939 4.69899 64.7299 4.87841 65.4476 5.17135H65.3646V22.8245H65.8333C64.4907 25.0483 62.7917 27.2832 60.7741 29.4033H60.7728Z"
            fill="#1D5A9C" />
        <path
            d="M60.7182 29.4351C58.7104 31.5442 56.5744 33.3397 54.431 34.7824C53.8952 35.1425 53.3582 35.4818 52.8235 35.7979V35.1938H36.8756V35.2609C36.5497 34.5627 36.3336 33.7852 36.2238 32.943C36.0041 31.2599 36.2079 29.3228 36.8011 27.2527C37.9875 23.1125 40.7277 18.4426 44.7434 14.2256C48.759 10.0073 53.2886 7.04006 57.3653 5.65228C59.4036 4.95777 61.3285 4.65873 63.0202 4.79666C63.866 4.86501 64.6533 5.04199 65.3674 5.33371H65.3649V22.8916H65.7518C64.4165 25.1033 62.7273 27.326 60.7194 29.4339L60.7182 29.4351Z"
            fill="#1D5A9D" />
        <path
            d="M60.6648 29.4668C58.6679 31.5638 56.5441 33.3507 54.4118 34.7849C53.8784 35.1437 53.345 35.4806 52.8128 35.7943V35.1938H36.9515V35.2609C36.6268 34.5664 36.412 33.7925 36.3034 32.9565C36.0849 31.283 36.2875 29.3558 36.8771 27.2967C38.0561 23.1797 40.7829 18.5354 44.7766 14.3403C48.7703 10.1452 53.2742 7.19508 57.3289 5.81462C59.3563 5.12499 61.2714 4.82717 62.9533 4.96266C63.7943 5.03101 64.5779 5.20677 65.2871 5.49727C65.6423 5.64252 65.9791 5.81584 66.2953 6.01845H65.364V22.96H65.6691C64.3411 25.1594 62.6616 27.3699 60.6648 29.4668Z"
            fill="#1E5B9E" />
        <path
            d="M60.6101 29.4986C58.6242 31.5845 56.5114 33.3604 54.3913 34.7873C53.8616 35.1437 53.3306 35.4794 52.8009 35.7906V35.1925H37.0275V35.2596C36.7052 34.5688 36.4916 33.7998 36.383 32.9674C36.1657 31.3026 36.3671 29.3863 36.9542 27.3394C38.1272 23.2443 40.8381 18.6257 44.8098 14.4538C48.7816 10.2819 53.2611 7.34763 57.2938 5.97449C59.3102 5.28853 61.2143 4.99193 62.8877 5.12741C63.7238 5.19454 64.5025 5.3703 65.2092 5.65958C65.562 5.80361 65.8964 5.97571 66.2113 6.1771H65.3655V23.0246H65.59C64.2694 25.2131 62.5984 27.4102 60.6125 29.4961L60.6101 29.4986Z"
            fill="#1E5C9E" />
        <path
            d="M60.5557 29.5303C58.5808 31.604 56.4802 33.3714 54.3711 34.7897C53.8438 35.1449 53.3165 35.4769 52.7904 35.7882V35.1937H37.1037V35.2609C36.7827 34.5737 36.5703 33.8084 36.4616 32.9809C36.2456 31.3258 36.4458 29.4192 37.0292 27.3833C38.1961 23.3115 40.8923 18.7173 44.8421 14.5698C48.7919 10.421 53.2469 7.50265 57.2565 6.13683C59.2619 5.45453 61.155 5.16038 62.8187 5.29464C63.6511 5.36177 64.4249 5.53631 65.1267 5.82315C65.4783 5.96595 65.8103 6.13805 66.124 6.33823H65.3623V23.093H65.5051C64.1918 25.2693 62.5306 27.4541 60.5557 29.5291V29.5303Z"
            fill="#1E5C9F" />
        <path
            d="M60.5023 29.5621C58.5384 31.6248 56.4488 33.3824 54.3518 34.7934C53.827 35.1462 53.3033 35.4769 52.7797 35.7857V35.1938H37.1796V35.2609C36.861 34.5774 36.6487 33.817 36.5412 32.9943C36.3264 31.349 36.5254 29.4534 37.1064 27.4285C38.2659 23.3786 40.9475 18.8113 44.8753 14.6857C48.8031 10.5602 53.2338 7.65769 57.2214 6.30041C59.2158 5.62177 61.0991 5.32884 62.753 5.4631C63.5805 5.53023 64.3507 5.70355 65.0489 5.98917C65.398 6.13197 65.7288 6.30285 66.04 6.50181H65.3638V23.1638H65.4248C64.1188 25.3279 62.4662 27.5005 60.5023 29.5633V29.5621Z"
            fill="#1F5DA0" />
        <path
            d="M60.4486 29.5938C58.4957 31.6455 56.4183 33.3922 54.3323 34.7958C53.8111 35.1461 53.2887 35.4757 52.7688 35.7833V35.195H37.2565V35.2621C36.9392 34.5822 36.7292 33.8267 36.6218 33.0077C36.4082 31.3709 36.606 29.4863 37.1833 27.4724C38.3367 23.4457 41.0037 18.9028 44.9095 14.8004C48.8153 10.6981 53.2204 7.81144 57.186 6.46149C59.1682 5.78652 61.0418 5.49602 62.6871 5.62906C63.5098 5.69619 64.2751 5.86829 64.9696 6.15147C65.3162 6.29305 65.6458 6.46271 65.9558 6.66044H65.3651V21.6198H66.2536C65.9729 22.1544 65.669 22.6914 65.3443 23.2297C64.0456 25.3816 62.4027 27.5432 60.4498 29.5938H60.4486Z"
            fill="#1F5DA1" />
        <path
            d="M60.393 29.6255C58.4511 31.6651 56.3847 33.4032 54.3109 34.7983C53.7922 35.1474 53.2735 35.4745 52.7559 35.7796V35.1938H37.3304V35.2609C37.0142 34.5847 36.8055 33.8328 36.6993 33.0199C36.4869 31.3929 36.6847 29.5181 37.2571 27.5164C38.4045 23.5117 41.0555 18.9956 44.9394 14.9152C48.8233 10.836 53.2039 7.96526 57.1475 6.62263C59.1188 5.95132 60.9814 5.66204 62.6181 5.79508C63.4359 5.86099 64.1976 6.03309 64.8884 6.31504C65.2338 6.45663 65.5609 6.62507 65.8685 6.82158H65.362V21.6967H66.1639C65.8844 22.2288 65.5829 22.7635 65.2595 23.2981C63.9681 25.4377 62.3338 27.5872 60.3918 29.6267L60.393 29.6255Z"
            fill="#205EA2" />
        <path
            d="M60.3396 29.656C58.4087 31.6846 56.3544 33.4117 54.2917 34.7995C53.7766 35.1462 53.2603 35.472 52.7452 35.776V35.1938H37.4063V35.2609C37.0926 34.5896 36.8851 33.8414 36.7789 33.0321C36.5678 31.4136 36.7643 29.5498 37.3343 27.5591C38.4743 23.5776 41.1107 19.0859 44.9726 15.0299C48.8345 10.974 53.1907 8.11905 57.1124 6.78497C59.0727 6.11732 60.9243 5.83048 62.5513 5.96108C63.3642 6.027 64.1222 6.19788 64.8081 6.47861C65.1511 6.61897 65.477 6.78619 65.7833 6.9827H65.3622V21.7736H66.0775C65.7992 22.3021 65.5002 22.8343 65.1779 23.3652C63.8939 25.4927 62.2693 27.6299 60.3384 29.6585L60.3396 29.656Z"
            fill="#205FA3" />
        <path
            d="M60.2845 29.6877C58.3645 31.7041 56.3213 33.4227 54.2719 34.8019C53.7593 35.1473 53.2467 35.4708 52.7352 35.7723V35.1925H37.4842V35.2596C37.1717 34.592 36.9655 33.8474 36.8605 33.0431C36.6506 31.4344 36.8458 29.5803 37.4122 27.6005C38.5461 23.641 41.1679 19.1762 45.0078 15.1422C48.8477 11.1082 53.1795 8.27159 57.078 6.94361C59.0273 6.27962 60.8691 5.994 62.4864 6.1246C63.2956 6.19051 64.0475 6.36017 64.731 6.63846C65.0728 6.77761 65.3962 6.94483 65.7001 7.1389H65.3645V21.8456H65.9931C65.716 22.3716 65.4182 22.9001 65.0996 23.4286C63.8229 25.5439 62.2069 27.6689 60.2869 29.6853L60.2845 29.6877Z"
            fill="#205FA4" />
        <path
            d="M60.231 29.7195C58.3221 31.7249 56.291 33.4324 54.2527 34.8044C53.7425 35.1473 53.2335 35.4696 52.7245 35.7698V35.1937H37.5601V35.2596C37.2501 34.5956 37.0451 33.856 36.9401 33.0565C36.7314 31.4563 36.9254 29.6145 37.4894 27.6457C38.6172 23.7094 41.2231 19.2689 45.041 15.2581C48.859 11.2473 53.1664 8.42659 57.0429 7.10593C58.9812 6.44561 60.812 6.16121 62.4207 6.29181C63.2251 6.3565 63.9733 6.52616 64.6519 6.80323C64.9913 6.94238 65.3135 7.10715 65.6162 7.30122H65.3648V21.9249H65.9067C65.6321 22.4473 65.3355 22.9734 65.0181 23.4994C63.7487 25.6025 62.1424 27.7153 60.2335 29.7207L60.231 29.7195Z"
            fill="#2160A4" />
        <path
            d="M60.1766 29.7512C58.2786 31.7444 56.2586 33.4434 54.2325 34.8068C53.7259 35.1474 53.2182 35.4684 52.7128 35.7662V35.1925H37.6351V35.2584C37.3263 34.5981 37.1225 33.8633 37.0187 33.0675C36.8112 31.4771 37.0041 29.645 37.5643 27.6872C38.686 23.7728 41.2773 19.358 45.0733 15.3704C52.6652 7.39523 62.2016 4.14973 66.3723 8.12025H65.3628V21.9994H65.8181C65.5447 22.5193 65.2505 23.0417 64.9344 23.5641C63.6723 25.655 62.0746 27.7556 60.1766 29.75V29.7512Z"
            fill="#2160A5" />
        <path
            d="M60.122 29.7829C58.235 31.7652 56.2271 33.4532 54.212 34.8093C53.7079 35.1486 53.2038 35.4659 52.7009 35.7637V35.1937H37.7111V35.2596C37.4047 34.603 37.2009 33.8719 37.0983 33.0809C36.8921 31.4991 37.0837 29.678 37.6415 27.7324C38.7559 23.8412 41.3325 19.452 45.1065 15.4876C52.6545 7.5588 62.1359 4.33161 66.2822 8.27893H65.3631V22.0775H65.7317C65.4595 22.5938 65.1666 23.1137 64.8529 23.6337C63.5982 25.7136 62.0102 27.802 60.1232 29.7842L60.122 29.7829Z"
            fill="#2161A6" />
        <path
            d="M60.0686 29.8147C58.1925 31.7859 56.1957 33.4642 54.1927 34.8117C53.6923 35.1486 53.1906 35.4647 52.6902 35.7601V35.1925H37.787V35.2584C37.4819 34.6054 37.2805 33.8792 37.178 33.0931C36.9729 31.521 37.1633 29.7097 37.7175 27.7751C38.8257 23.9059 41.3877 19.5424 45.1397 15.6011C52.6438 7.71868 62.0703 4.5098 66.1922 8.43394H65.3634V20.6189H66.3911C65.9371 21.6332 65.3951 22.6646 64.7714 23.6984C63.524 25.766 61.9446 27.8422 60.0686 29.8122V29.8147Z"
            fill="#2261A7" />
        <path
            d="M60.0149 29.8464C58.1499 31.8054 56.1652 33.4739 54.1732 34.8141C53.6752 35.1485 53.1772 35.4635 52.6805 35.7564V35.1925H37.864V35.2584C37.5613 34.6091 37.3599 33.8865 37.2586 33.1053C37.0547 31.5418 37.2439 29.7414 37.7944 27.819C38.8966 23.973 41.4427 19.6351 45.1727 15.7158C52.6341 7.87855 62.0044 4.6892 66.1019 8.59137H65.3622V20.7055H66.2984C65.8468 21.7149 65.3085 22.7402 64.6884 23.7667C63.4483 25.8222 61.8787 27.8862 60.0137 29.8452L60.0149 29.8464Z"
            fill="#2262A7" />
        <path
            d="M59.9602 29.8781C58.1062 31.8262 56.1325 33.4849 54.1527 34.8166C53.6572 35.1498 53.1629 35.4622 52.6685 35.754V35.1925H37.9399V35.2584C37.6384 34.6127 37.4395 33.895 37.3382 33.1175C37.1355 31.5637 37.3235 29.7744 37.8715 27.8617C38.9664 24.0377 41.4979 19.7254 45.2072 15.8306C52.6246 8.03968 61.94 4.86863 66.0142 8.74761H65.3649V20.791H66.2108C65.7616 21.7943 65.227 22.8135 64.6094 23.8351C63.3766 25.8783 61.8155 27.9301 59.9614 29.8781H59.9602Z"
            fill="#2262A8" />
        <path
            d="M59.9061 29.9099C58.063 31.8457 56.1015 33.4947 54.1328 34.819C53.6409 35.1498 53.1478 35.4611 52.6571 35.7503V35.1925H38.0151V35.2584C37.7161 34.6176 37.5171 33.9036 37.4158 33.131C37.2144 31.5857 37.4012 29.8074 37.9456 27.9069C39.0343 24.1061 41.5511 19.8182 45.2372 15.9466C52.6107 8.20205 61.8712 5.04932 65.921 8.9051H65.362V20.8765H66.1163C65.6696 21.8737 65.1374 22.8867 64.5247 23.9023C63.298 25.9333 61.7479 27.9729 59.9049 29.9087L59.9061 29.9099Z"
            fill="#2363A9" />
        <path
            d="M59.8524 29.9416C58.0203 31.8665 56.0711 33.5057 54.1145 34.8227C53.625 35.1523 53.1356 35.4611 52.6474 35.7491V35.1938H38.092V35.2597C37.7942 34.6225 37.5977 33.9122 37.4964 33.1444C37.2962 31.6089 37.4818 29.8403 38.0237 27.9509C39.1063 24.172 41.6073 19.911 45.2727 16.0613C52.6022 8.36316 61.8077 5.22874 65.8332 9.06255H65.3633V20.9631H66.026C65.5817 21.9542 65.0532 22.9612 64.4442 23.9706C63.2248 25.9894 61.6832 28.0168 59.8512 29.9416H59.8524Z"
            fill="#2363A9" />
        <path
            d="M59.7977 29.9733C57.9767 31.886 56.0384 33.5154 54.094 34.8251C53.6082 35.1522 53.1212 35.4598 52.6354 35.7454V35.1937H38.168V35.2596C37.8714 34.6262 37.6761 33.9207 37.576 33.1578C37.3771 31.6309 37.5614 29.8733 38.0997 27.996C39.175 24.2403 41.6625 20.0037 45.3047 16.1772C52.5903 8.52425 61.7409 5.40935 65.7419 9.21997H65.3623V21.0498H65.9348C65.4929 22.0348 64.9681 23.0356 64.3627 24.0389C63.1506 26.0455 61.6188 28.0619 59.7977 29.9746V29.9733Z"
            fill="#2364AA" />
        <path
            d="M59.7443 30.0051C57.9342 31.9068 56.0082 33.5265 54.0748 34.8276C53.5914 35.1523 53.1081 35.4586 52.6247 35.743V35.1938H38.244V35.2585C37.9498 34.6286 37.7545 33.928 37.6556 33.1688C37.4579 31.6517 37.641 29.9038 38.1756 28.0376C39.2448 24.3038 41.7165 20.0941 45.3379 16.2908C52.5796 8.68418 61.6753 5.58759 65.6531 9.37503H65.3638V21.134H65.8447C65.4065 22.1129 64.8841 23.1089 64.2812 24.1061C63.0765 26.1005 61.5544 28.1047 59.7431 30.0063L59.7443 30.0051Z"
            fill="#2464AB" />
        <path
            d="M59.6887 30.0368C57.8896 31.9275 55.9745 33.5374 54.0533 34.83C53.5724 35.1535 53.0927 35.4562 52.613 35.7393V35.1937H38.3189V35.2584C38.026 34.6323 37.8331 33.9353 37.7343 33.181C37.5378 31.6724 37.7196 29.9367 38.2518 28.0803C39.3149 24.3697 41.7719 20.1844 45.3702 16.4043C52.5679 8.84406 61.6074 5.767 65.5621 9.53002H65.3631V21.217H65.7537C65.318 22.1898 64.798 23.1797 64.1999 24.1708C63.0025 26.153 61.489 28.1449 59.6899 30.0344L59.6887 30.0368Z"
            fill="#2465AB" />
        <path
            d="M59.6348 30.0685C57.8467 31.947 55.9438 33.5472 54.0336 34.8324C53.5564 35.1534 53.0779 35.4549 52.6019 35.7369V35.1937H38.3957V35.2584C38.1052 34.6359 37.9123 33.9438 37.8147 33.1944C37.6194 31.6956 37.8013 29.9697 38.3285 28.1254C39.3843 24.4368 41.8267 20.2771 45.4042 16.5202C52.558 9.00636 61.5426 5.94761 65.4728 9.68866H65.363V21.3048H65.662C65.2287 22.2727 64.7124 23.2553 64.118 24.2403C62.9279 26.2103 61.4242 28.1901 59.6348 30.0685Z"
            fill="#2465AC" />
        <path
            d="M59.5814 30.1003C57.8042 31.9678 55.9123 33.5582 54.0144 34.8349C53.5396 35.1547 53.0648 35.4537 52.5912 35.7332V35.1937H38.4716V35.2584C38.1823 34.6396 37.9919 33.9512 37.8943 33.2066C37.7002 31.7163 37.8809 30.0014 38.4057 28.1681C39.4554 24.5027 41.8831 20.3687 45.4374 16.6337C52.5472 9.16505 61.4769 6.12583 65.3828 9.84369H65.3632V21.3891H65.5707C65.1399 22.3509 64.6272 23.3273 64.0365 24.3062C62.8537 26.2652 61.3585 28.2316 59.5814 30.0991V30.1003Z"
            fill="#2465AC" />
        <path
            d="M59.527 30.132C57.7608 31.9873 55.8811 33.5679 53.9941 34.8373C53.523 35.1547 53.0506 35.4525 52.5795 35.7308V35.195H38.5466V35.2597C38.2598 34.6445 38.0694 33.961 37.9729 33.2201C37.7801 31.7395 37.9595 30.0344 38.4807 28.2133C39.5243 24.5699 41.9361 20.4615 45.4697 16.7509C52.5356 9.32863 61.4103 6.30772 65.293 10.0024C65.5359 10.2331 65.7531 10.4845 65.946 10.7555H65.3638V21.4757H65.4809C65.0525 22.4315 64.5435 23.4018 63.9552 24.3758C62.7798 26.3226 61.2944 28.2768 59.527 30.1333V30.132Z"
            fill="#2566AD" />
        <path
            d="M59.4733 30.1637C57.7181 32.008 55.8494 33.5789 53.9746 34.8397C53.5059 35.1546 53.0372 35.4512 52.5685 35.7271V35.1937H38.6235V35.2584C38.3379 34.6481 38.1499 33.9682 38.0535 33.2322C37.8619 31.7615 38.0401 30.0661 38.5588 28.256C39.5963 24.6358 41.9923 20.553 45.5039 16.8644C52.5258 9.48848 61.3457 6.48587 65.2039 10.1586C65.686 10.6175 66.068 11.1594 66.3537 11.7697H65.365V21.5611H65.3906C64.9646 22.5107 64.4581 23.4762 63.8747 24.4429C62.7066 26.3775 61.2297 28.3207 59.4745 30.1637H59.4733Z"
            fill="#2566AD" />
        <path
            d="M59.4189 30.1955C57.6747 32.0276 55.8183 33.5887 53.9557 34.8422C53.4894 35.1559 53.0244 35.45 52.5593 35.7247V35.1949H38.701V35.2596C38.4178 34.653 38.2298 33.9768 38.1346 33.2457C37.943 31.7835 38.1212 30.1003 38.6363 28.3012C39.6664 24.7029 42.049 20.6457 45.5386 16.9804C52.5166 9.64962 61.2815 6.66655 65.1153 10.3161C65.595 10.7725 65.9734 11.3108 66.2578 11.9174H65.3656V18.8759H66.3225C65.2923 22.4742 62.9098 26.5313 59.4202 30.1967L59.4189 30.1955Z"
            fill="#2567AE" />
        <path
            d="M59.3645 30.2272C57.6313 32.0483 55.7858 33.5997 53.9354 34.8447C53.4728 35.1559 53.009 35.4488 52.5477 35.721V35.1937H38.776V35.2584C38.494 34.6555 38.3073 33.9842 38.2133 33.2579C38.0229 31.8054 38.1998 30.132 38.7113 28.3439C39.7353 24.7688 42.102 20.7361 45.5697 17.0951C52.5037 9.81074 61.2137 6.84598 65.0231 10.4723C65.4991 10.9251 65.8763 11.461 66.1582 12.0639H65.3636V18.9785H66.2229C65.1989 22.5535 62.8322 26.5863 59.3645 30.2272Z"
            fill="#2567AE" />
        <path
            d="M59.3109 30.2577C57.5886 32.0679 55.7553 33.6082 53.9159 34.8459C53.4558 35.1559 52.9956 35.4452 52.5367 35.7161V35.1925H38.8529V35.256C38.5734 34.6567 38.3878 33.989 38.2938 33.2677C38.1047 31.8237 38.2804 30.1613 38.7894 28.3854C39.8074 24.8335 42.1594 20.8264 45.6038 17.2074C52.4952 9.96942 61.149 7.02296 64.934 10.6273C65.4076 11.0777 65.7823 11.6086 66.0618 12.2092H65.3637V19.0798H66.1253C65.1073 22.6316 62.7553 26.6388 59.3109 30.2577Z"
            fill="#2567AF" />
        <path
            d="M59.2557 30.2895C57.5445 32.0874 55.7222 33.6192 53.895 34.8483C53.4385 35.1559 52.9808 35.4439 52.5243 35.7137V35.1925H38.9271V35.256C38.6488 34.6603 38.4645 33.9976 38.3705 33.2799C38.1826 31.8457 38.3571 30.193 38.8624 28.4281C39.8731 24.8982 42.2104 20.9167 45.6342 17.3209C52.4816 10.1293 61.0805 7.20114 64.8423 10.7823C65.3122 11.2302 65.6845 11.7575 65.9628 12.3532H65.3622V19.181H66.0262C65.0156 22.7109 62.6782 26.6924 59.2545 30.2882L59.2557 30.2895Z"
            fill="#2667AF" />
        <path
            d="M59.2023 30.3212C57.502 32.1081 55.6919 33.629 53.8757 34.8508C53.4217 35.1559 52.9676 35.4427 52.5136 35.71V35.1925H39.0031V35.256C38.7272 34.664 38.5441 34.0061 38.4501 33.2933C38.2634 31.8677 38.4367 30.226 38.9396 28.4733C39.9441 24.9666 42.2669 21.0107 45.6674 17.4369C52.4708 10.2904 61.0148 7.38181 64.7522 10.9398C65.2197 11.3841 65.5895 11.9089 65.8654 12.5009H65.3613V19.2848H65.9289C64.9243 22.7915 62.6016 26.7474 59.2011 30.3212H59.2023Z"
            fill="#2668AF" />
        <path
            d="M59.1484 30.353C57.4591 32.1277 55.6612 33.64 53.856 34.8544C53.4044 35.1584 52.9528 35.4428 52.5036 35.7088V35.1938H39.081V35.2572C38.8063 34.6689 38.6245 34.0147 38.5317 33.3068C38.3462 31.8909 38.5183 30.259 39.0175 28.5172C40.0159 25.0325 42.3228 21.1023 45.7026 17.5528C52.4621 10.4528 60.9512 7.56247 64.6641 11.0985C65.593 11.9822 66.1337 13.1844 66.3192 14.6003H65.3635V19.3898H65.8334C64.835 22.8745 62.5281 26.8048 59.1484 30.3542V30.353Z"
            fill="#2668B0" />
        <path
            d="M59.093 30.3847C57.4147 32.1484 55.6278 33.6497 53.8348 34.8569C53.3868 35.1584 52.9377 35.4415 52.4909 35.7052V35.1938H39.155V35.2572C38.8816 34.6726 38.7021 34.0232 38.6094 33.319C38.4251 31.9116 38.596 30.2919 39.0915 28.5599C40.0826 25.0984 42.3748 21.1926 45.7326 17.6664C52.4482 10.6127 60.8824 7.74189 64.5709 11.2535C65.4937 12.1311 66.0319 13.3248 66.215 14.7321H65.3606V19.4911H65.7329C64.7418 22.9526 62.4496 26.8585 59.0918 30.3847H59.093Z"
            fill="#2668B0" />
        <path
            d="M59.0396 30.4164C57.3723 32.1679 55.5975 33.6607 53.8155 34.8593C53.37 35.1583 52.9245 35.4403 52.4802 35.7027V35.1937H39.2309V35.2572C38.9599 34.6774 38.7805 34.0305 38.689 33.3324C38.5059 31.9348 38.6756 30.3249 39.1687 28.6051C40.1537 25.1655 42.4313 21.2865 45.7671 17.7823C52.4387 10.775 60.8179 7.92251 64.4833 11.4109C65.3999 12.2836 65.9346 13.4688 66.1164 14.8676H65.3621V19.5948H65.6367C64.6517 23.0344 62.3742 26.9134 59.0383 30.4176L59.0396 30.4164Z"
            fill="#2668B0" />
        <path
            d="M58.9954 30.3749C57.3379 32.1155 55.5754 33.5972 53.8068 34.7885C53.3649 35.0863 52.9219 35.3658 52.48 35.6258V35.1937H39.791V35.9981C39.6103 35.7442 39.4529 35.472 39.3186 35.184C39.0488 34.6079 38.8706 33.9658 38.7803 33.2713C38.5985 31.8823 38.7669 30.2834 39.2563 28.5746C40.2352 25.1582 42.497 21.3036 45.8108 17.8226C52.4385 10.8604 60.7628 8.02749 64.4038 11.4927C65.3143 12.3593 65.8453 13.5371 66.0271 14.9262H65.3631V19.6229H65.5511C64.5722 23.0393 62.3105 26.8939 58.9966 30.3749H58.9954Z"
            fill="#2668B0" />
        <path
            d="M58.0664 31.0438C56.5932 32.5903 55.026 33.9085 53.4539 34.9667C53.0609 35.2316 52.6666 35.4794 52.2748 35.7113V35.1937H40.5757V35.3182C40.3364 34.8056 40.1778 34.2356 40.0972 33.618C39.9361 32.384 40.0862 30.962 40.5207 29.4436C41.391 26.4069 43.4013 22.9807 46.3478 19.8866C52.2394 13.6983 59.6385 11.179 62.8743 14.261C66.11 17.3417 63.9581 24.8567 58.0664 31.0438Z"
            fill="#286AB2" />
        <path
            d="M57.1382 31.7127C55.8493 33.0663 54.4786 34.2197 53.1018 35.1449C52.7576 35.3768 52.4134 35.5941 52.0704 35.7967V35.1937H41.8335V35.4525C41.6235 35.0046 41.4856 34.5053 41.4148 33.9646C41.2732 32.8844 41.405 31.6407 41.7859 30.3115C42.5475 27.6543 44.3063 24.6566 46.8842 21.9493C52.0386 16.5349 58.5138 14.3305 61.3455 17.0268C64.1772 19.723 62.2939 26.297 57.1394 31.7127H57.1382Z"
            fill="#296BB3" />
        <path
            d="M56.2082 32.3816C55.1036 33.5423 53.9282 34.5298 52.7491 35.3243V35.1937H43.0907V35.588C42.9113 35.2035 42.7929 34.7763 42.7319 34.3125C42.6111 33.3861 42.7233 32.3205 43.0492 31.1817C43.7022 28.9041 45.2096 26.3348 47.4189 24.0145C51.8373 19.3739 57.3873 17.4845 59.8138 19.795C62.2415 22.1056 60.6267 27.7409 56.2082 32.3828V32.3816Z"
            fill="#2A6CB4" />
        <path
            d="M55.2792 33.0504C54.3589 34.0171 53.3788 34.841 52.3962 35.5026V35.1937H44.3466V35.7223C44.1964 35.4025 44.0976 35.0461 44.0475 34.6591C43.9462 33.8877 44.0402 32.9992 44.3124 32.0496C44.8556 30.1516 46.1127 28.0107 47.9546 26.0761C51.637 22.2081 56.2618 20.6336 58.2843 22.5596C60.3068 24.4857 58.9617 29.1812 55.2792 33.0492V33.0504Z"
            fill="#2C6EB6" />
        <path
            d="M54.3485 33.7193C53.6125 34.4931 52.8289 35.1522 52.0416 35.6807V35.1925H45.6019V35.8553C45.4823 35.599 45.4029 35.3133 45.3627 35.0058C45.2821 34.3881 45.3566 33.6778 45.5738 32.9186C46.0084 31.4002 47.0141 29.6877 48.4873 28.14C51.4326 25.0459 55.1321 23.7863 56.7506 25.3266C58.3691 26.867 57.2925 30.6239 54.3473 33.7181L54.3485 33.7193Z"
            fill="#2D6FB7" />
        <path
            d="M53.42 34.3881C52.8671 34.9679 52.28 35.4622 51.6905 35.8589V35.1925H46.6812V35.3524C46.6202 34.8898 46.6764 34.3564 46.8399 33.7864C47.1658 32.6476 47.9201 31.3623 49.0247 30.2028C51.234 27.8825 54.0083 26.9378 55.2228 28.0924C56.436 29.2483 55.6292 32.0654 53.42 34.3857V34.3881Z"
            fill="#2E70B8" />
        <path
            d="M52.491 35.057C52.1224 35.4439 51.7306 35.7735 51.3376 36.0384V35.1937H47.9981V35.7015C47.9578 35.3927 47.9957 35.0375 48.1043 34.6579C48.3216 33.8987 48.8245 33.0419 49.5605 32.2692C51.0337 30.7228 52.8829 30.093 53.6921 30.8631C54.5013 31.6333 53.9631 33.5118 52.4898 35.0595L52.491 35.057Z"
            fill="#2E70B8" />
    </g>
    <mask id="mask1_544_11377" style="mask-type:luminance" maskUnits="userSpaceOnUse" x="0" y="0"
        width="50" height="32">
        <path
            d="M31.4424 24.8603L49.242 6.32963C47.7456 7.87487 38.213 17.5747 31.4302 17.5833C24.7256 17.5918 19.0732 11.9015 18.6924 11.5049L10.5438 2.97062C6.97488 -0.877841 3.46574 -0.59833 1.65198 4.18021C-1.05281 11.3047 -0.734241 21.2169 5.18675 27.1538C12.6945 34.6835 23.062 33.0357 31.4071 24.897L31.4229 24.8811C31.4302 24.8738 31.4376 24.8677 31.4449 24.8603H31.4424Z"
            fill="white" />
    </mask>
    <g mask="url(#mask1_544_11377)">
        <path d="M49.2433 -0.877762H-1.05273V34.6836H49.2433V-0.877762Z" fill="#999933" />
        <path
            d="M30.939 25.4085C23.0578 33.6864 9.95865 34.0086 1.68074 26.1274C0.645694 25.1424 -0.264851 24.0756 -1.04968 22.9466C-1.4427 22.3827 -1.80399 21.8029 -2.13477 21.2097H-1.20225V0.179275H-1.60992C-1.24497 -0.404158 -0.848284 -0.972945 -0.419863 -1.52464V-1.02665H32.3378V-1.50389C32.5502 -1.22927 32.754 -0.950975 32.9505 -0.669023C33.7366 0.460005 34.3969 1.65006 34.9328 2.88284C36.0044 5.34839 36.5744 7.9836 36.6391 10.631C36.7697 15.9259 34.879 21.2695 30.939 25.4097V25.4085Z"
            fill="#999933" />
        <path
            d="M30.8187 25.2937C23.001 33.5057 10.0068 33.8243 1.79476 26.0065C0.768257 25.0288 -0.134966 23.9706 -0.91369 22.8513C-1.30305 22.2911 -1.6619 21.7162 -1.99023 21.1279H-1.20174V0.267106H-1.46905C-1.10776 -0.311445 -0.713517 -0.875349 -0.288758 -1.42339V-1.0267H32.2065V-1.40264C32.4164 -1.13045 32.6191 -0.8546 32.8143 -0.575089C33.5943 0.544174 34.2497 1.72569 34.7807 2.9487C35.8438 5.39472 36.4089 8.00797 36.4736 10.6346C36.603 15.8867 34.7282 21.1889 30.8187 25.2949V25.2937Z"
            fill="#9B9B31" />
        <path
            d="M30.6986 25.1802C22.9443 33.3251 10.0539 33.6424 1.90902 25.8881C0.891062 24.919 -0.00483811 23.8693 -0.77868 22.7586C-1.1656 22.2032 -1.52079 21.6332 -1.84668 21.0498H-1.20344V0.354996H-1.32916C-0.970309 -0.218672 -0.579727 -0.778913 -0.15863 -1.32207V-1.02669H32.0754V-1.30132C32.2841 -1.03157 32.4855 -0.758164 32.6784 -0.479874C33.451 0.630845 34.1016 1.80259 34.6289 3.01462C35.6834 5.44112 36.2437 8.03361 36.3084 10.6383C36.4365 15.8477 34.5764 21.1071 30.6998 25.1802H30.6986Z"
            fill="#9D9E2F" />
        <path
            d="M30.5785 25.0655C22.8864 33.1444 10.1022 33.4593 2.02323 25.7673C1.01382 24.8055 0.12524 23.7643 -0.642499 22.6634C-1.02576 22.1129 -1.3785 21.5466 -1.70073 20.968H-1.20274V2.1883H-2.16211C-1.86795 1.5951 -1.54328 1.01167 -1.18809 0.442881C-0.832908 -0.125905 -0.444765 -0.681264 -0.0273302 -1.22076V-1.02669H31.2998V-1.99094C31.7441 -1.47341 32.1579 -0.937584 32.5412 -0.385886C33.3077 0.715069 33.9534 1.87705 34.4758 3.08053C35.5206 5.4875 36.0772 8.05802 36.1406 10.642C36.2676 15.8099 34.4233 21.0254 30.5773 25.0655H30.5785Z"
            fill="#9FA02D" />
        <path
            d="M30.4584 24.9507C22.8298 32.9638 10.1505 33.275 2.13749 25.6465C1.1354 24.6932 0.254148 23.6606 -0.506268 22.5682C-0.887086 22.0214 -1.23617 21.4611 -1.55596 20.8875H-1.20199V2.26154H-2.01367C-1.72196 1.67323 -1.40095 1.09468 -1.04698 0.530774C-0.694235 -0.0331302 -0.309756 -0.583606 0.104017 -1.11944V-1.02667H31.1749V-1.88229C31.6155 -1.36843 32.0256 -0.837486 32.4064 -0.29067C33.1668 0.801741 33.8064 1.95396 34.3252 3.14768C35.3614 5.53389 35.9143 8.08489 35.9766 10.6469C36.1023 15.772 34.2739 20.9448 30.4596 24.952L30.4584 24.9507Z"
            fill="#A1A22B" />
        <path
            d="M30.3383 24.8372C22.7732 32.7844 10.1977 33.0932 2.25175 25.5281C1.25821 24.5821 0.384278 23.5581 -0.370035 22.4754C-0.747191 21.9335 -1.09384 21.3769 -1.41118 20.8081H-1.20247V2.3348H-1.86523C-1.57596 1.75137 -1.25739 1.1777 -0.907087 0.61868C-0.556783 0.0596588 -0.175965 -0.487157 0.235367 -1.01811C0.441644 -1.28297 0.654024 -1.54417 0.874947 -1.80171V-1.02665H31.0487V-1.77486C31.4856 -1.26466 31.8921 -0.738594 32.2692 -0.19666C33.0236 0.887207 33.6583 2.02966 34.1721 3.21361C35.1998 5.5803 35.7479 8.11055 35.8101 10.6518C35.9346 15.7342 34.1209 20.8643 30.3383 24.8385V24.8372Z"
            fill="#A3A42A" />
        <path
            d="M30.2179 24.7225C22.7163 32.6025 10.2457 32.9089 2.36572 25.4072C0.395723 23.5312 -1.1007 21.3452 -2.12109 18.998H-1.20322V2.40802H-1.71709C-1.43025 1.82947 -1.11412 1.26068 -0.767481 0.705322C-0.420839 0.149962 -0.0424621 -0.390752 0.365209 -0.916818C0.569044 -1.17924 0.780202 -1.43922 0.999905 -1.69432V-1.02789H30.921V-1.66869C31.3543 -1.16337 31.7583 -0.640968 32.1318 -0.103917C32.88 0.970186 33.5086 2.1041 34.0188 3.27706C35.038 5.62422 35.5811 8.13249 35.6434 10.653C35.7667 15.6927 33.9688 20.7813 30.2167 24.7213L30.2179 24.7225Z"
            fill="#A4A628" />
        <path
            d="M30.0981 24.6077C22.6587 32.4218 10.2943 32.7258 2.48023 25.2864C0.527317 23.4262 -0.956897 21.2585 -1.96875 18.9321H-1.20345V2.48246H-1.5684C-1.28401 1.90879 -0.970323 1.34488 -0.626122 0.794405C-0.281921 0.243928 0.0927939 -0.293122 0.496803 -0.814306C0.699418 -1.07551 0.909356 -1.33183 1.12662 -1.58449V-1.02547H30.7963V-1.55764C31.2259 -1.05598 31.6262 -0.538458 31.9973 -0.00628877C32.7394 1.05927 33.3631 2.18219 33.8684 3.34662C34.8791 5.67425 35.4173 8.16177 35.4796 10.6603C35.6029 15.6585 33.8184 20.7031 30.0993 24.6102L30.0981 24.6077Z"
            fill="#A6A826" />
        <path
            d="M29.9785 24.4942C22.6025 32.2424 10.3419 32.5427 2.59494 25.1668C0.657897 23.3225 -0.812891 21.1731 -1.8162 18.8662H-1.20225V4.29378H-2.17383C-1.72954 3.11715 -1.16686 1.97347 -0.484557 0.882282C-0.142797 0.336687 0.228256 -0.195482 0.628603 -0.713005C0.828777 -0.971766 1.03749 -1.22686 1.25232 -1.47708V-1.02669H30.6705V-1.45145C31.0965 -0.954676 31.4932 -0.440816 31.8606 0.0876915C32.5954 1.14349 33.2142 2.25787 33.7158 3.41253C34.7179 5.72063 35.2513 8.18618 35.3123 10.6639C35.4344 15.6195 33.6658 20.6214 29.9772 24.4954L29.9785 24.4942Z"
            fill="#A8AA25" />
        <path
            d="M29.8571 24.3795C22.5447 32.0606 10.389 32.3596 2.70798 25.0472C0.788024 23.2188 -0.671777 21.0877 -1.66532 18.8003H-1.20395V4.35241H-2.02051C-1.57988 3.18554 -1.02208 2.05163 -0.345885 0.970205C-0.00778651 0.429492 0.360825 -0.0990157 0.757511 -0.611655C0.956464 -0.867975 1.16274 -1.12063 1.37634 -1.36963V-1.02665H30.5431V-1.344C30.9654 -0.850887 31.3584 -0.341909 31.7234 0.181716C32.4521 1.22897 33.066 2.33358 33.5628 3.47726C34.5563 5.76461 35.0861 8.21063 35.1459 10.6664C35.2667 15.5792 33.5127 20.5384 29.8571 24.3795Z"
            fill="#A9AC23" />
        <path
            d="M29.7375 24.266C22.4874 31.8812 10.4379 32.1778 2.82273 24.9276C0.918643 23.115 -0.527732 21.0022 -1.51273 18.7344H-1.20271V4.41099H-1.86426C-0.99155 2.09679 0.349857 -0.0843736 2.16118 -1.98724V-1.02544H30.4186V-1.23537C30.8373 -0.747145 31.2279 -0.241829 31.5891 0.276914C32.3117 1.31562 32.9196 2.41047 33.4127 3.54438C34.3977 5.8122 34.9225 8.23626 34.9823 10.6713C35.102 15.5414 33.3639 20.4578 29.7388 24.266H29.7375Z"
            fill="#ABAE21" />
        <path
            d="M29.6182 24.1513C22.4315 31.7005 10.4857 31.9934 2.93773 24.8067C1.05073 23.01 -0.383444 20.9155 -1.3599 18.6672H-1.20245V4.46834H-1.70898C-0.8436 2.17488 0.485602 0.0120332 2.28228 -1.87497V-1.02789H30.2932V-1.1292C30.7082 -0.644634 31.0951 -0.1442 31.4527 0.36966C32.1692 1.3986 32.7721 2.48491 33.2604 3.60906C34.2368 5.85735 34.7568 8.26065 34.8166 10.6749C34.935 15.5035 33.2115 20.3773 29.6182 24.1513Z"
            fill="#ADB020" />
        <path
            d="M29.4976 24.0365C22.3744 31.5186 10.5336 31.8103 3.0515 24.6871C1.18037 22.9063 -0.240376 20.8301 -1.20829 18.6013H-1.20219V4.52692H-1.55371C-0.69565 2.253 0.621347 0.110897 2.40216 -1.76024V-1.0279H29.5294V-1.72972C29.7491 -1.49782 29.9614 -1.26225 30.1677 -1.02179C30.579 -0.54211 30.9623 -0.0453364 31.3175 0.463642C32.0279 1.48404 32.6247 2.55936 33.1093 3.67374C34.0772 5.9025 34.5923 8.28384 34.6521 10.6774C34.7693 15.4632 33.0617 20.2943 29.5001 24.0353L29.4976 24.0365Z"
            fill="#AEB21E" />
        <path
            d="M29.3777 23.923C22.3179 31.3392 10.5821 31.6273 3.16593 24.5675C1.31188 22.8025 -0.0966589 20.7446 -1.05603 18.5366C-1.53571 17.432 -1.9031 16.2896 -2.1582 15.1276H-1.2025V4.58795H-1.39901C-0.549491 2.33477 0.75652 0.210981 2.52147 -1.64307V-1.02424H29.4082V-1.61133C29.6255 -1.38186 29.8366 -1.14751 30.0405 -0.910724C30.4481 -0.434701 30.8277 0.0559692 31.1805 0.562506C31.8847 1.57314 32.4767 2.63992 32.9564 3.74453C33.9158 5.95377 34.4272 8.31435 34.4846 10.6859C34.6017 15.4291 32.9076 20.2174 29.3777 23.9255V23.923Z"
            fill="#B0B41D" />
        <path
            d="M29.2578 23.8083C22.2603 31.1586 10.6295 31.4442 3.28043 24.4466C1.44347 22.6976 0.0471416 20.658 -0.903683 18.4695C-1.37971 17.3746 -1.74344 16.2432 -1.99609 15.091H-1.2015V4.64531H-1.243C-0.400808 2.41167 0.892997 0.307403 2.6433 -1.53078V-1.02668H29.2896V-1.50026C29.5056 -1.27324 29.7143 -1.04133 29.917 -0.805758C30.321 -0.334617 30.6981 0.152391 31.046 0.654046C31.7441 1.65613 32.33 2.71315 32.806 3.808C33.7569 5.99771 34.2634 8.33632 34.3208 10.6871C34.4367 15.3888 32.7584 20.1331 29.2603 23.8083H29.2578Z"
            fill="#B1B51B" />
        <path
            d="M29.137 23.6935C22.2029 30.9767 10.6771 31.2598 3.39395 24.3258C1.57285 22.5926 0.189948 20.5713 -0.752333 18.4024C-1.22347 17.3173 -1.58476 16.1956 -1.83498 15.0531H-1.20272V8.09952H-2.00586C-1.81179 6.94608 -1.50664 5.8085 -1.08921 4.70145C-0.254339 2.48855 1.02848 0.402595 2.76169 -1.4185V-1.02913H28.5048V-2.05197C35.7879 4.88209 36.0711 16.4079 29.137 23.6911V23.6935Z"
            fill="#B2B71A" />
        <path
            d="M29.0177 23.58C22.1472 30.7973 10.7263 31.078 3.50903 24.2074C-0.100197 20.7715 -1.97377 16.1993 -2.08729 11.5831C-2.2008 6.96686 -0.55303 2.30672 2.88288 -1.30129V-1.02544H28.3916V-1.92867C35.6088 4.94193 35.8896 16.3628 29.019 23.58H29.0177Z"
            fill="#B4B819" />
        <path
            d="M28.8981 23.4653C22.0897 30.6166 10.7738 30.8949 3.62372 24.0866C0.0486637 20.6824 -1.80904 16.1517 -1.92134 11.5782C-2.03363 7.00469 -0.401726 2.38727 3.00245 -1.18778V-1.02667H28.2768V-1.80905C35.4281 4.99929 35.7064 16.3152 28.8981 23.4653Z"
            fill="#B5BA17" />
        <path
            d="M28.7774 23.3518C22.0326 30.436 10.8216 30.7118 3.73742 23.9669C0.195326 20.5945 -1.64529 16.1052 -1.75637 11.5745C-1.86744 7.0425 -0.250181 2.46902 3.12226 -1.07308V-1.02548H28.1623V-1.68825C35.2465 5.05663 35.5223 16.2676 28.7774 23.3518Z"
            fill="#B6BB16" />
        <path
            d="M28.6578 23.237C21.9764 30.2553 10.8704 30.5287 3.85211 23.8473C0.342969 20.5066 -1.47934 16.0601 -1.59042 11.5708C-1.70027 7.08156 -0.0988781 2.5508 3.24182 -0.958337C3.45054 -1.17804 3.66414 -1.39042 3.8814 -1.59669V-1.02547H28.0487V-1.5674C35.067 5.114 35.3404 16.22 28.659 23.2383L28.6578 23.237Z"
            fill="#B8BD15" />
        <path
            d="M28.5385 23.1223C21.9193 30.0747 10.9183 30.3444 3.96593 23.7265C0.489741 20.4175 -1.31548 16.0125 -1.42533 11.566C-1.53519 7.11941 0.0527773 2.63137 3.36175 -0.844812C3.77552 -1.27934 4.20638 -1.68823 4.65189 -2.07027V-1.02668H27.9331V-1.449C34.8854 5.17016 35.1552 16.1712 28.5372 23.1235L28.5385 23.1223Z"
            fill="#B9BE14" />
        <path
            d="M28.4178 23.0088C21.8621 29.894 10.9661 30.1626 4.07964 23.6069C0.636407 20.3296 -1.15173 15.9661 -1.26036 11.5623C-1.36899 7.15847 0.203103 2.71193 3.48156 -0.730083C3.89167 -1.16094 4.31765 -1.56495 4.75949 -1.94333V-1.02546H27.8197V-1.32816C34.705 5.22752 34.9735 16.1236 28.4178 23.01V23.0088Z"
            fill="#BAC013" />
        <path
            d="M28.2982 22.8941C21.8059 29.7134 11.0149 29.9783 4.19432 23.4861C0.784046 20.2393 -0.987003 15.9185 -1.09441 11.5574C-1.20182 7.1951 0.355626 2.7925 3.60112 -0.616554C4.00635 -1.04253 4.42989 -1.44288 4.86686 -1.81882V-1.02667H27.705V-1.20853C34.5243 5.28368 34.7892 16.0748 28.2969 22.8953L28.2982 22.8941Z"
            fill="#BBC112" />
        <path
            d="M28.1782 22.7793C21.7495 29.5328 11.0622 29.7952 4.30876 23.3664C0.932664 20.1515 -0.821296 15.8734 -0.927486 11.5538C-1.03368 7.23415 0.507906 2.87428 3.72289 -0.501823C4.12446 -0.92414 4.54311 -1.32083 4.97642 -1.69188V-1.02545H27.5924V-1.0877C34.3458 5.34105 34.6082 16.0284 28.1795 22.7818L28.1782 22.7793Z"
            fill="#BCC210" />
        <path
            d="M28.0576 22.6658C21.6911 29.3534 11.11 29.6133 4.42247 23.2468C1.07933 20.0636 -0.657546 15.827 -0.762515 11.5501C-0.867484 7.27323 0.65945 2.95607 3.84148 -0.387074C4.23938 -0.804509 4.65316 -1.19753 5.0828 -1.56493V-1.02543H26.8383V-1.5454C27.0543 -1.35987 27.2679 -1.16702 27.4766 -0.968067C34.1641 5.39843 34.4241 15.9796 28.0576 22.6671V22.6658Z"
            fill="#BDC40F" />
        <path
            d="M27.9379 22.5511C21.6349 29.1715 11.1588 29.429 4.53716 23.126C1.22697 19.9745 -0.492816 15.7794 -0.596564 11.5452C-0.700313 7.31107 0.810753 3.03663 3.96227 -0.273558C4.35651 -0.687332 4.76662 -1.07669 5.19138 -1.44042V-1.02665H26.0778V-1.95428C26.5196 -1.6113 26.9481 -1.24269 27.3618 -0.849668C33.9822 5.45336 34.2397 15.9295 27.9367 22.5511H27.9379Z"
            fill="#BEC50E" />
        <path
            d="M27.8185 22.4364C21.5789 28.9908 11.2065 29.2459 4.65204 23.0051C-1.90243 16.7656 -2.15753 6.39317 4.08325 -0.161298C4.47383 -0.57141 4.87906 -0.955889 5.30016 -1.31596V-1.0279H25.9778V-1.82372C26.4148 -1.4844 26.8396 -1.11945 27.2497 -0.730085C33.8041 5.50947 34.0592 15.8819 27.8185 22.4364Z"
            fill="#BFC60E" />
        <path
            d="M27.6967 22.3229C21.5194 28.8114 11.2532 29.0628 4.76463 22.8868C-1.72393 16.7094 -1.97536 6.44322 4.20073 -0.0453303C4.58643 -0.45056 4.98921 -0.831377 5.40543 -1.189V-1.02667H25.8744V-1.69188C26.3077 -1.35622 26.7276 -0.994934 27.1328 -0.609233C33.6214 5.56808 33.8728 15.8343 27.6967 22.3229Z"
            fill="#C0C70D" />
        <path
            d="M27.5772 22.2081C21.4634 28.6296 11.3021 28.8798 4.87948 22.7659C-1.54316 16.6521 -1.79216 6.49084 4.32168 0.0681911C5.08576 -0.734945 5.9133 -1.44043 6.78845 -2.05072V-1.02788H25.7732V-1.56127C26.2016 -1.22928 26.6178 -0.87165 27.0194 -0.489611C33.4408 5.62423 33.6911 15.7855 27.5772 22.2081Z"
            fill="#C1C80C" />
        <path
            d="M27.4568 22.0946C21.4064 28.4501 11.3489 28.6966 4.99342 22.6463C-1.3621 16.5959 -1.60865 6.53839 4.44172 0.182879C5.19847 -0.611712 6.01748 -1.3111 6.88286 -1.91406V-1.02793H25.6711V-1.43072C26.0959 -1.10116 26.5072 -0.748416 26.9039 -0.370039C33.2594 5.68033 33.506 15.7378 27.4556 22.0933L27.4568 22.0946Z"
            fill="#C2C90B" />
        <path
            d="M27.3375 21.9798C21.3506 28.2695 11.398 28.5136 5.10843 22.5267C-1.18117 16.5398 -1.42528 6.58723 4.56162 0.297627C5.30983 -0.488421 6.12029 -1.18048 6.97835 -1.77734V-1.02669H25.5701V-1.29888C25.99 -0.972988 26.3976 -0.623906 26.7907 -0.24919C33.0803 5.73771 33.3244 15.6902 27.3375 21.9798Z"
            fill="#C3CA0A" />
        <path
            d="M27.2175 21.8651C21.2929 28.0876 11.4465 28.3305 5.22284 22.4058C-0.999627 16.4812 -1.24252 6.63485 4.68213 0.411155C5.42302 -0.366348 6.22493 -1.05109 7.07323 -1.64184V-1.0279H24.1881V-2.06294C25.0644 -1.51491 25.8993 -0.870443 26.6768 -0.129557C32.8993 5.79509 33.1422 15.6414 27.2175 21.8651Z"
            fill="#C3CB09" />
        <path
            d="M27.0966 21.7516C21.2354 27.9082 11.4928 28.1474 5.33625 22.2863C-0.820313 16.4251 -1.05955 6.68248 4.80164 0.525919C5.53398 -0.244261 6.32735 -0.920457 7.1671 -1.50511V-1.02665H24.1001V-1.92133C24.9667 -1.37939 25.793 -0.741034 26.562 -0.00869131C32.7185 5.85249 32.9578 15.5951 27.0966 21.7516Z"
            fill="#C4CC09" />
        <path
            d="M26.9771 21.6369C21.1794 27.7275 11.5417 27.9643 5.4511 22.1654C-0.639553 16.3677 -0.876342 6.73003 4.92259 0.639386C5.64761 -0.122251 6.43244 -0.791122 7.26242 -1.36967V-1.02791H24.0123V-1.78223C24.8704 -1.24518 25.6869 -0.615361 26.4486 0.109658C32.5392 5.90737 32.776 15.545 26.9771 21.6356V21.6369Z"
            fill="#C5CD08" />
        <path
            d="M26.8578 21.5221C21.1224 27.5456 11.5909 27.78 5.56618 22.0457C-0.45734 16.3103 -0.691689 6.77884 5.04255 0.754105C5.75903 0.00101256 6.53531 -0.661757 7.35675 -1.23298V-1.02671H23.9248V-1.63943C24.7731 -1.10849 25.5811 -0.484774 26.3342 0.231701C32.3577 5.96716 32.5921 15.4986 26.8578 21.5233V21.5221Z"
            fill="#C6CD07" />
        <path
            d="M26.7364 21.4087C21.0644 27.3663 11.6367 27.5982 5.67908 21.9262C-0.278531 16.2542 -0.51044 6.82649 5.16155 0.868883C5.8707 0.124335 6.63844 -0.531112 7.45012 -1.09624V-1.02666H23.8363V-1.49902C24.6748 -0.974178 25.4743 -0.357791 26.2188 0.351361C32.1764 6.02335 32.4084 15.451 26.7364 21.4087Z"
            fill="#C6CE07" />
        <path
            d="M26.6164 21.2939C21.0079 27.1856 11.6852 27.4138 5.79345 21.8053C-0.0982416 16.1968 -0.326489 6.87405 5.28203 0.982357C5.98264 0.246352 6.74184 -0.401772 7.54497 -0.960794C7.94654 -1.2403 8.35909 -1.49784 8.78141 -1.73341V-1.02792H23.7481V-1.35992C24.578 -0.841177 25.3677 -0.230892 26.1038 0.469715C31.9954 6.07824 32.2237 15.401 26.6152 21.2927L26.6164 21.2939Z"
            fill="#C7CF06" />
        <path
            d="M26.4976 21.1804C20.9525 27.005 11.7348 27.232 5.90901 21.6869C0.0844423 16.1419 -0.142583 6.92414 5.40247 1.09836C6.09575 0.369677 6.84641 -0.269903 7.641 -0.822821C8.03768 -1.09867 8.44657 -1.35377 8.86279 -1.58568V-1.02544H23.661V-1.21707C24.4812 -0.704425 25.2624 -0.101464 25.9911 0.59182C31.8156 6.13687 32.0426 15.3546 26.4976 21.1804Z"
            fill="#C7D005" />
        <path
            d="M26.3761 21.0656C20.8933 26.8243 11.7806 27.0489 6.0219 21.5661C0.263252 16.0833 0.038666 6.97047 5.52147 1.21182C6.89217 -0.228455 8.4899 -1.32209 10.2048 -2.06664V-1.02671H23.5725V-1.07675C24.383 -0.568995 25.1556 0.0266445 25.8757 0.712605C31.6344 6.19541 31.8589 15.3082 26.3761 21.0668V21.0656Z"
            fill="#C8D005" />
        <path
            d="M26.2571 20.9509C20.8378 26.6437 11.83 26.8646 6.13726 21.4453C0.444518 16.0259 0.223594 7.01811 5.64293 1.32536C6.99776 -0.0978223 8.57718 -1.17925 10.2726 -1.91525V-1.02668H22.2561V-1.62354C22.6748 -1.41726 23.0849 -1.18779 23.4852 -0.937576C24.2871 -0.435921 25.05 0.153615 25.7616 0.831032C31.4543 6.25037 31.6753 15.2582 26.2559 20.9509H26.2571Z"
            fill="#C9D104" />
        <path
            d="M26.1372 20.8374C20.7813 26.463 11.8773 26.6827 6.25167 21.3257C0.626057 15.9698 0.406355 7.06573 5.76344 1.44012C7.10241 0.034019 8.66352 -1.0352 10.3394 -1.76266V-1.02666H20.9217V-2.02264C22.6317 -1.37818 24.2429 -0.387078 25.649 0.951889C31.2746 6.30775 31.4943 15.2118 26.1372 20.8374Z"
            fill="#C9D104" />
        <path
            d="M26.0164 20.7227C20.7228 26.2824 11.9249 26.4984 6.36524 21.206C0.805539 15.9124 0.589497 7.11452 5.88189 1.55482C7.20499 0.16459 8.74779 -0.891203 10.4041 -1.61012V-1.02547H20.862V-1.86644C22.5512 -1.2293 24.1441 -0.250404 25.5343 1.0727C31.094 6.36631 31.31 15.1642 26.0176 20.7239L26.0164 20.7227Z"
            fill="#C9D203" />
        <path
            d="M25.8969 20.608C20.6668 26.1018 11.9739 26.3154 6.48009 21.0852C0.9863 15.8551 0.7727 7.16215 6.00285 1.66837C7.31008 0.295223 8.83457 -0.748365 10.4701 -1.45874V-1.02666H20.8035V-1.71262C22.4732 -1.0828 24.0465 -0.116111 25.4197 1.19234C30.9135 6.42249 31.1271 15.1154 25.8969 20.6092V20.608Z"
            fill="#CAD203" />
        <path
            d="M25.777 20.4944C20.6103 25.9223 12.0211 26.1322 6.59447 20.9656C1.16659 15.7989 0.956651 7.20973 6.12333 1.78307C7.41469 0.425796 8.92088 -0.604367 10.5369 -1.30742V-1.0279H20.7458V-1.55885C22.3948 -0.936362 23.9498 0.0193444 25.3058 1.31071C30.7337 6.47739 30.9436 15.0665 25.777 20.4932V20.4944Z"
            fill="#CAD303" />
        <path
            d="M25.6562 20.3797C20.553 25.7405 12.0688 25.9492 6.70807 20.846C1.34732 15.7428 1.1386 7.25858 6.24181 1.89784C7.51731 0.55765 9.00518 -0.460307 10.6017 -1.15481V-1.02665H20.6848V-1.40259C22.3143 -0.788641 23.8498 0.156081 25.19 1.43158C30.5507 6.53478 30.7594 15.019 25.6562 20.3797Z"
            fill="#CBD302" />
        <path
            d="M25.5367 20.2661C20.4958 25.561 12.1178 25.7673 6.82292 20.7263C1.52808 15.6853 1.32181 7.30735 6.36276 2.01251C7.62239 0.689413 9.09196 -0.316337 10.6689 -1.0023C11.4574 -1.34528 12.2728 -1.6077 13.1028 -1.78957V-1.02671H20.6276V-1.24763C22.2363 -0.641009 23.7522 0.291507 25.0766 1.55114C30.3714 6.59209 30.5777 14.9701 25.5367 20.2649V20.2661Z"
            fill="#CBD402" />
        <path
            d="M25.4167 20.1515C20.4393 25.3804 12.165 25.583 6.9373 20.6055C1.70837 15.628 1.50576 7.35377 6.48325 2.12607C8.97199 -0.488397 12.2846 -1.84567 15.629 -1.92867C18.9733 -2.01045 22.3482 -0.81673 24.9627 1.67201C30.1916 6.6495 30.3942 14.9237 25.4167 20.1515Z"
            fill="#CBD402" />
        <path
            d="M25.2968 20.0367C20.3828 25.1985 12.2135 25.3999 7.05171 20.4847C1.88991 15.5707 1.68852 7.40139 6.60376 2.23959C9.06077 -0.341915 12.3319 -1.6821 15.6335 -1.76388C18.9352 -1.84444 22.2686 -0.666586 24.8489 1.79042C30.0106 6.70444 30.212 14.8737 25.2968 20.0355V20.0367Z"
            fill="#CCD401" />
        <path
            d="M25.177 19.9232C20.3252 25.0191 12.2621 25.2168 7.16625 20.3663C2.07037 15.5157 1.87264 7.45141 6.72319 2.35552C9.14846 -0.19181 12.3781 -1.51613 15.637 -1.59547C18.8959 -1.67603 22.1866 -0.512821 24.7339 1.91367C29.8298 6.76544 30.0275 14.8285 25.177 19.9244V19.9232Z"
            fill="#CCD501" />
        <path
            d="M25.0571 19.8085C20.2688 24.8384 12.3094 25.0337 7.28066 20.2454C2.25191 15.4571 2.0554 7.49779 6.8437 2.46904C9.23724 -0.0453361 12.4241 -1.35257 15.6416 -1.43068C18.859 -1.5088 22.1057 -0.361464 24.6201 2.03208C29.6501 6.82038 29.8454 14.7797 25.0571 19.8085Z"
            fill="#CCD501" />
        <path
            d="M24.9361 19.6937C20.2113 24.6566 12.3569 24.8494 7.39406 20.1246C2.43122 15.3998 2.23837 7.5454 6.9632 2.58256C9.32623 0.101135 12.4704 -1.18779 15.6451 -1.2659C18.8198 -1.34402 22.0238 -0.211331 24.5052 2.15169C29.4681 6.87652 29.6609 14.7309 24.9361 19.6937Z"
            fill="#CCD501" />
        <path
            d="M24.8168 19.5802C20.1542 24.4772 12.406 24.6676 7.50908 20.0062C2.61215 15.3436 2.42174 7.59545 7.0831 2.69852C9.41439 0.250055 12.5171 -1.02178 15.6491 -1.09868C18.7811 -1.17557 21.9423 -0.0575302 24.3908 2.27376C29.2877 6.93634 29.4781 14.6845 24.8168 19.5815V19.5802Z"
            fill="#CCD501" />
        <path
            d="M24.6953 19.4655C20.0962 24.2965 12.4518 24.4845 7.62198 19.8854C2.79096 15.2863 2.60299 7.64183 7.2021 2.81203C9.50166 0.396523 12.5629 -0.858224 15.6521 -0.9339C18.7414 -1.00958 21.8599 0.0926003 24.2754 2.39216C29.1065 6.99127 29.2944 14.6357 24.6953 19.4655Z"
            fill="#CDD500" />
        <path
            d="M15.9494 23.0491C22.5273 23.0491 27.8597 17.7167 27.8597 11.1388C27.8597 4.56088 22.5273 -0.771561 15.9494 -0.771561C9.3715 -0.771561 4.03906 4.56088 4.03906 11.1388C4.03906 17.7167 9.3715 23.0491 15.9494 23.0491Z"
            fill="#CDD600" />
        <path
            d="M15.9497 22.8843C22.4365 22.8843 27.6952 17.6257 27.6952 11.1388C27.6952 4.6519 22.4365 -0.606766 15.9497 -0.606766C9.46277 -0.606766 4.2041 4.6519 4.2041 11.1388C4.2041 17.6257 9.46277 22.8843 15.9497 22.8843Z"
            fill="#CDD600" />
        <path
            d="M15.9487 22.7183C22.3439 22.7183 27.5283 17.534 27.5283 11.1388C27.5283 4.74355 22.3439 -0.440796 15.9487 -0.440796C9.55349 -0.440796 4.36914 4.74355 4.36914 11.1388C4.36914 17.534 9.55349 22.7183 15.9487 22.7183Z"
            fill="#CDD600" />
        <path
            d="M15.9487 22.5523C22.2522 22.5523 27.3623 17.4423 27.3623 11.1387C27.3623 4.83521 22.2522 -0.274811 15.9487 -0.274811C9.64518 -0.274811 4.53516 4.83521 4.53516 11.1387C4.53516 17.4423 9.64518 22.5523 15.9487 22.5523Z"
            fill="#CDD600" />
        <path
            d="M15.9497 22.3863C22.1616 22.3863 27.1973 17.3506 27.1973 11.1387C27.1973 4.92688 22.1616 -0.108826 15.9497 -0.108826C9.73785 -0.108826 4.70215 4.92688 4.70215 11.1387C4.70215 17.3506 9.73785 22.3863 15.9497 22.3863Z"
            fill="#CDD600" />
        <path
            d="M15.9497 22.2203C22.0699 22.2203 27.0313 17.2589 27.0313 11.1388C27.0313 5.01859 22.0699 0.0572052 15.9497 0.0572052C9.82955 0.0572052 4.86816 5.01859 4.86816 11.1388C4.86816 17.2589 9.82955 22.2203 15.9497 22.2203Z"
            fill="#CDD600" />
        <path
            d="M15.949 22.0555C21.9782 22.0555 26.8658 17.1679 26.8658 11.1387C26.8658 5.10955 21.9782 0.221939 15.949 0.221939C9.91984 0.221939 5.03223 5.10955 5.03223 11.1387C5.03223 17.1679 9.91984 22.0555 15.949 22.0555Z"
            fill="#CDD600" />
        <path
            d="M15.949 21.8896C21.8865 21.8896 26.6998 17.0763 26.6998 11.1388C26.6998 5.20128 21.8865 0.387985 15.949 0.387985C10.0115 0.387985 5.19824 5.20128 5.19824 11.1388C5.19824 17.0763 10.0115 21.8896 15.949 21.8896Z"
            fill="#CDD600" />
        <path
            d="M15.949 21.7235C21.7949 21.7235 26.5338 16.9846 26.5338 11.1387C26.5338 5.29293 21.7949 0.553955 15.949 0.553955C10.1032 0.553955 5.36426 5.29293 5.36426 11.1387C5.36426 16.9846 10.1032 21.7235 15.949 21.7235Z"
            fill="#CDD600" />
        <path
            d="M15.9496 16.4311C18.8725 16.4311 21.242 14.0616 21.242 11.1387C21.242 8.21583 18.8725 5.84634 15.9496 5.84634C13.0267 5.84634 10.6572 8.21583 10.6572 11.1387C10.6572 14.0616 13.0267 16.4311 15.9496 16.4311Z"
            fill="#CDD600" />
    </g>
</svg>
    