<svg width="113" height="24" viewBox="0 0 113 24" fill="none" xmlns="http://www.w3.org/2000/svg">
    <path fill-rule="evenodd" clip-rule="evenodd"
        d="M41.9765 0C41.3501 0 40.8418 0.508255 40.8418 1.13475V12.1523C40.8418 16.6181 44.4624 20.2387 48.9282 20.2387C53.3637 20.2387 56.9006 16.728 57.0093 12.3571H57.0147V10.9233C57.0147 10.298 56.5084 9.7905 55.8835 9.78854H55.8825L55.8819 9.78854L55.8817 9.87918L55.8816 9.78854L55.8809 9.78854H55.8799C55.2551 9.7905 54.7488 10.298 54.7488 10.9233V12.1523C54.7488 15.3651 52.1446 17.971 48.93 17.971C45.7154 17.971 43.1113 15.3669 43.1113 12.1523V1.13475C43.1113 0.508255 42.603 0 41.9765 0ZM49.0406 21.1504C48.2546 21.1504 47.6158 21.7892 47.6158 22.5752C47.6158 23.3612 48.2546 24 49.0406 24C49.8266 24 50.4654 23.3612 50.4654 22.5752C50.4654 21.7892 49.8266 21.1504 49.0406 21.1504Z"
        fill="#1E3E81" />
    <path fill-rule="evenodd" clip-rule="evenodd"
        d="M29.4689 9.34277C28.855 9.34277 28.3523 9.82036 28.3523 10.4177C28.3523 11.015 28.855 11.4926 29.4689 11.4926H37.1674V11.8588H37.1655L37.1638 11.9477C37.1031 15.1087 34.5239 17.6522 31.3487 17.6522C28.1737 17.6522 25.5947 15.1092 25.5335 11.9485V10.6062C25.5335 9.97972 25.0253 9.47147 24.3988 9.47147C23.8246 9.47147 23.3499 9.89828 23.2745 10.4518C23.2339 10.6499 23.231 10.8545 23.2278 11.0727V11.0727L23.2278 11.0777L23.2277 11.0787C23.2206 11.5745 23.2118 12.1858 22.79 13.1137L22.7808 13.1339C22.6081 13.478 22.3922 13.8377 22.1221 14.1971C20.3431 16.5626 17.0151 17.8262 12.4731 17.8262C8.51938 17.8262 5.69008 16.8983 4.03845 15.0913C2.27821 13.1668 2.46002 10.8841 2.4684 10.7983C2.53133 10.1705 2.07478 9.60934 1.44658 9.54626C0.814596 9.48135 0.257347 9.94034 0.194367 10.5682L0.194319 10.5687C0.180995 10.7095 -0.111872 13.9078 2.32004 16.5981C4.4341 18.9377 7.85743 20.112 12.4749 20.112C18.4756 20.112 21.7189 18.1076 23.4439 16.1864L23.4671 16.1606V16.1558C23.5399 16.0598 23.798 15.7186 24.0663 15.3525C25.3741 18.0564 28.1427 19.9216 31.3469 19.9216C35.7425 19.9216 39.3187 16.4112 39.4279 12.0401H39.4333V10.6062C39.4333 10.4581 39.4048 10.3164 39.353 10.1865C39.2427 9.70143 38.7948 9.34277 38.2623 9.34277H29.4689ZM10.6097 9.72346C9.82364 9.72346 9.18488 10.3622 9.18488 11.1482C9.18488 11.9342 9.82364 12.573 10.6097 12.573C11.3957 12.573 12.0344 11.9342 12.0344 11.1482C12.0344 10.3622 11.3957 9.72346 10.6097 9.72346ZM14.061 9.72346C13.275 9.72346 12.6362 10.3622 12.6362 11.1482C12.6362 11.9342 13.275 12.573 14.061 12.573C14.847 12.573 15.4858 11.9342 15.4858 11.1482C15.4858 10.3622 14.847 9.72346 14.061 9.72346ZM31.9414 21.1506C31.1554 21.1506 30.5166 21.7894 30.5166 22.5754C30.5166 23.3614 31.1554 24.0001 31.9414 24.0001C32.7274 24.0001 33.3662 23.3614 33.3662 22.5754C33.3662 21.7894 32.7274 21.1506 31.9414 21.1506Z"
        fill="#1E3E81" />
    <mask id="mask0_485_2709" style="mask-type:luminance" maskUnits="userSpaceOnUse" x="88" y="0"
        width="25" height="24">
        <path
            d="M104.683 1.88379L88.6836 18.5391C94.3373 26.2827 103.609 25.0102 109.095 19.579C113.495 15.2225 113.91 7.94483 111.665 2.68845C110.638 0.286363 108.604 -0.935734 105.903 0.853012C105.458 1.14778 105.052 1.49839 104.683 1.88287V1.88379Z"
            fill="white" />
    </mask>
    <g mask="url(#mask0_485_2709)">
        <path d="M113.91 -0.93457H88.6836V26.2829H113.91V-0.93457Z" fill="#002D5D" />
        <path
            d="M112.609 20.8653C110.683 22.8875 108.636 24.6094 106.58 25.9926C106.066 26.3387 105.552 26.6627 105.038 26.9657V26.3954H89.7467V26.4513C89.4336 25.7812 89.2267 25.036 89.1215 24.2295C88.9109 22.6165 89.1068 20.7582 89.6753 18.7736C90.8123 14.8043 93.4405 10.3269 97.2907 6.28256C99.2159 4.26038 101.264 2.53846 103.32 1.15524C104.348 0.464096 105.378 -0.142833 106.394 -0.66005C106.902 -0.918201 107.408 -1.15438 107.908 -1.36768V-1.04636H114.02V18.5511H114.643C114.431 18.812 114.215 19.072 113.994 19.3302C113.551 19.8474 113.089 20.36 112.608 20.8653H112.609Z"
            fill="#002D5D" />
        <path
            d="M112.569 20.8894C110.652 22.9024 108.613 24.6179 106.566 25.9947C106.054 26.3389 105.542 26.6621 105.031 26.9633V26.3957H89.8051V26.4515C89.4939 25.7851 89.2879 25.0427 89.1826 24.2389C88.973 22.6324 89.168 20.7823 89.7337 18.8059C90.8661 14.8531 93.4833 10.3949 97.3162 6.36795C101.15 2.34098 105.475 -0.491355 109.366 -1.81689V-1.04702H114.021V18.5843H114.594C114.383 18.8443 114.168 19.1025 113.948 19.3606C113.507 19.876 113.047 20.3859 112.567 20.8894H112.569Z"
            fill="#012E5F" />
        <path
            d="M112.528 20.913C110.619 22.9177 108.589 24.625 106.55 25.9963C106.04 26.3387 105.53 26.6609 105.022 26.9612V26.3955H89.8616V26.4513C89.5513 25.7876 89.3462 25.0479 89.2419 24.2479C89.0332 22.6486 89.2272 20.8059 89.7902 18.8386C90.918 14.9032 93.5233 10.4633 97.3407 6.45377C101.158 2.44419 105.463 -0.376242 109.339 -1.69629V-1.04817H114.022V18.6171H114.545C114.336 18.8761 114.121 19.1334 113.902 19.3897C113.463 19.9023 113.005 20.4104 112.528 20.9111V20.913Z"
            fill="#012F60" />
        <path
            d="M112.487 20.9362C110.587 22.9327 108.564 24.6327 106.536 25.9976C106.029 26.339 105.521 26.6594 105.014 26.9578V26.3949H89.9191V26.4507C89.6106 25.7898 89.4055 25.0538 89.3021 24.2573C89.0943 22.6645 89.2874 20.8309 89.8486 18.871C90.9709 14.952 93.5661 10.5323 97.3661 6.54014C101.167 2.54795 105.454 -0.260579 109.313 -1.57422V-1.04693H114.022V18.6513H114.497C114.289 18.9085 114.075 19.1648 113.857 19.4202C113.42 19.931 112.963 20.4363 112.488 20.9352L112.487 20.9362Z"
            fill="#023061" />
        <path
            d="M112.448 20.9602C110.555 22.9476 108.542 24.6402 106.522 25.9996C106.017 26.3393 105.511 26.6588 105.007 26.9563V26.3951H89.9765V26.451C89.6689 25.7928 89.4657 25.0595 89.3623 24.2667C89.1554 22.6812 89.3476 20.8549 89.906 18.9042C91.0238 15.0026 93.6071 10.6012 97.3915 6.62644C101.176 2.65165 105.445 -0.144978 109.287 -1.45312V-1.04667H114.022V18.6854H114.448C114.24 18.9417 114.028 19.1971 113.81 19.4516C113.375 19.9597 112.921 20.4631 112.448 20.9602Z"
            fill="#033163" />
        <path
            d="M112.406 20.9838C110.522 22.963 108.517 24.6483 106.506 26.0022C106.004 26.3409 105.5 26.6586 104.997 26.9543V26.3959H90.033V26.4517C89.7272 25.7963 89.524 25.0667 89.4215 24.2776C89.2155 22.6984 89.4068 20.8804 89.9634 18.9379C91.0766 15.0528 93.648 10.6716 97.4159 6.71324C101.184 2.75584 105.434 -0.0288887 109.26 -1.33154V-1.04684H114.023V18.7191H114.399C114.192 18.9745 113.981 19.229 113.764 19.4816C113.331 19.9879 112.878 20.4895 112.407 20.9838H112.406Z"
            fill="#033264" />
        <path
            d="M112.366 21.0075C110.491 22.9775 108.495 24.6555 106.492 26.0039C105.991 26.3408 105.491 26.6575 104.99 26.9523V26.3957H90.0904V26.4515C89.7855 25.7988 89.5841 25.0729 89.4807 24.2865C89.2756 22.7148 89.4661 20.904 90.0199 18.9697C91.1276 15.1021 93.6889 10.7391 97.4403 6.79912C101.192 2.85912 105.423 0.0862854 109.232 -1.20996V-1.0461H114.021V18.7537H114.348C114.142 19.0082 113.932 19.2608 113.716 19.5126C113.285 20.017 112.834 20.5159 112.365 21.0084L112.366 21.0075Z"
            fill="#043366" />
        <path
            d="M112.326 21.0311C110.458 22.9928 108.471 24.6635 106.477 26.0055C105.978 26.3405 105.479 26.6554 104.982 26.9493V26.3955H90.1478V26.4513C89.8439 25.8013 89.6434 25.0782 89.5409 24.2955C89.3367 22.7301 89.5262 20.9276 90.0782 19.0025C91.1813 15.1513 93.7308 10.8075 97.4658 6.88494C101.201 2.96141 105.413 0.201398 109.206 -1.08936V-1.04633H114.022V18.7864H114.3C114.095 19.0391 113.885 19.2917 113.67 19.5426C113.24 20.0442 112.792 20.5413 112.325 21.032L112.326 21.0311Z"
            fill="#053467" />
        <path
            d="M112.284 21.0552C110.425 23.0078 108.447 24.6721 106.461 26.0077C105.965 26.3418 105.468 26.6549 104.973 26.9478V26.3958H90.2043V26.4508C89.9022 25.8035 89.7026 25.084 89.6001 24.305C89.3969 22.7469 89.5855 20.9527 90.1347 19.0349C91.2332 15.2011 93.7717 10.8766 97.4902 6.97044C101.209 3.06431 105.403 0.316192 109.178 -0.969069C110.122 -1.29038 111.04 -1.52016 111.917 -1.65381V-1.04688H114.022V18.8197H114.25C114.046 19.0715 113.837 19.3223 113.623 19.5722C113.195 20.072 112.749 20.5664 112.284 21.0552Z"
            fill="#053569" />
        <path
            d="M112.244 21.0789C110.393 23.0232 108.424 24.6792 106.446 26.0094C105.952 26.3417 105.458 26.6538 104.964 26.9449V26.3957H90.2608V26.4506C89.9596 25.807 89.761 25.0894 89.6593 24.314C89.457 22.7623 89.6447 20.9763 90.1912 19.0677C91.2842 15.2503 93.8117 10.9451 97.5137 7.05633C101.216 3.1676 105.392 0.432294 109.151 -0.847474C111.03 -1.48736 112.805 -1.7629 114.365 -1.63657L114.021 -1.04704V18.0982H114.795C114.021 19.1079 113.168 20.1067 112.243 21.0789H112.244Z"
            fill="#06366A" />
        <path
            d="M112.203 21.1028C110.361 23.0389 108.4 24.6876 106.432 26.0113C105.94 26.3427 105.447 26.653 104.956 26.9432V26.3958H90.3172V26.4507C90.0179 25.8099 89.8193 25.0958 89.7186 24.3232C89.5172 22.7789 89.7039 21.0002 90.2486 19.0998C91.337 15.2999 93.8535 11.0138 97.5391 7.14247C101.225 3.27112 105.382 0.547725 109.124 -0.726551C110.995 -1.36369 112.762 -1.63832 114.314 -1.51199L114.02 -1.04695V18.1349H114.743C113.972 19.141 113.123 20.1342 112.201 21.1018L112.203 21.1028Z"
            fill="#07376C" />
        <path
            d="M112.163 21.1265C110.328 23.0535 108.377 24.6948 106.418 26.0131C105.928 26.3426 105.438 26.652 104.948 26.9404V26.3957H90.3757V26.4506C90.0773 25.8126 89.8804 25.1022 89.7797 24.3333C89.5793 22.7953 89.7651 21.0249 90.307 19.1336C91.3909 15.3502 93.8955 11.0833 97.5645 7.22939C101.234 3.37544 105.372 0.663943 109.098 -0.603926C110.961 -1.23832 112.72 -1.51112 114.266 -1.38662L114.022 -1.04608V18.1733H114.692C113.924 19.1748 113.08 20.1635 112.163 21.1274V21.1265Z"
            fill="#07386D" />
        <path
            d="M112.122 21.1503C110.296 23.0691 108.353 24.7031 106.403 26.0149C105.915 26.3426 105.427 26.6511 104.941 26.9386V26.3957H90.4331V26.4507C90.1365 25.8154 89.9397 25.1077 89.8399 24.3424C89.6404 22.8118 89.8253 21.0487 90.3654 19.1657C91.4438 15.3996 93.9374 11.1511 97.5909 7.31455C101.243 3.47799 105.364 0.778395 109.072 -0.483981C110.927 -1.11563 112.678 -1.38751 114.217 -1.26301L114.023 -1.04697V18.2091H114.642C113.877 19.206 113.037 20.191 112.123 21.1494L112.122 21.1503Z"
            fill="#08396E" />
        <path
            d="M112.081 21.1743C110.263 23.0839 108.328 24.7106 106.387 26.017C105.902 26.3438 105.416 26.6504 104.931 26.9361V26.3959H90.4886V26.4509C90.1929 25.8183 89.998 25.1143 89.8982 24.3518C89.6995 22.8276 89.8835 21.0727 90.4209 19.1988C91.4947 15.4493 93.9773 11.2209 97.6134 7.40081C101.249 3.58164 105.352 0.893948 109.043 -0.362935C110.89 -0.990919 112.633 -1.26189 114.165 -1.1383L114.022 -1.04676V18.2468H114.588C113.827 19.2391 112.991 20.2196 112.082 21.1743H112.081Z"
            fill="#093A70" />
        <path
            d="M112.041 21.1978C110.231 23.0991 108.305 24.7185 106.373 26.0184C105.889 26.3434 105.406 26.6492 104.924 26.933V26.3947H90.5469V26.4496C90.2531 25.8198 90.0581 25.1186 89.9592 24.3606C89.7615 22.8437 89.9455 21.0971 90.4792 19.2305C91.5484 15.4983 94.0191 11.2883 97.6397 7.48652C101.259 3.68383 105.343 1.00895 109.018 -0.241524C110.856 -0.866761 112.591 -1.13681 114.116 -1.01323H114.023V18.284H114.538C113.78 19.2717 112.947 20.2476 112.042 21.1987L112.041 21.1978Z"
            fill="#093B71" />
        <path
            d="M112.001 21.2214C110.199 23.1136 108.283 24.7257 106.358 26.0201C105.878 26.3442 105.396 26.6472 104.916 26.931V26.3954H90.6038V26.4504C90.3108 25.8233 90.1168 25.1257 90.0188 24.3705C89.8211 22.8601 90.0051 21.1217 90.537 19.2643C91.6016 15.5485 94.0614 11.3586 97.6645 7.57332C101.268 3.78803 105.332 1.12505 108.991 -0.119934C110.82 -0.742425 112.548 -1.01065 114.066 -0.887978H114.022V18.3214H114.485C113.73 19.3045 112.901 20.2758 112 21.2224L112.001 21.2214Z"
            fill="#0A3C73" />
        <path
            d="M111.959 21.2457C110.166 23.1296 108.257 24.7344 106.342 26.0224C105.864 26.3446 105.384 26.6467 104.906 26.9287V26.395H90.6593V26.449C90.3682 25.8247 90.175 25.1308 90.0771 24.3792C89.8803 22.8761 90.0633 21.145 90.5925 19.2958C91.6516 15.5975 94.1004 11.4259 97.6879 7.658C101.275 3.89009 105.321 1.23993 108.963 -0.000476778C110.784 -0.620222 112.504 -0.887526 114.016 -0.764858C114.204 -0.749296 114.39 -0.728242 114.572 -0.700779H114.022V18.3566H114.433C113.682 19.3352 112.857 20.3028 111.96 21.2448L111.959 21.2457Z"
            fill="#0B3D74" />
        <path
            d="M111.919 21.2693C110.134 23.1441 108.234 24.7416 106.328 26.025C105.851 26.3454 105.374 26.6466 104.899 26.9276V26.3967H90.7177V26.4507C90.4275 25.83 90.2353 25.1379 90.1382 24.39C89.9423 22.8933 90.1245 21.1705 90.6518 19.3295C91.7064 15.6477 94.1441 11.4953 97.7143 7.74572C101.284 3.99521 105.312 1.35694 108.937 0.122946C110.75 -0.494052 112.462 -0.760443 113.966 -0.638691C114.154 -0.623128 114.338 -0.602072 114.52 -0.57461H114.022V18.3958H114.381C113.634 19.3698 112.812 20.3329 111.919 21.2703V21.2693Z"
            fill="#0B3E75" />
        <path
            d="M111.879 21.2933C110.103 23.1599 108.211 24.75 106.314 26.027C105.839 26.3465 105.364 26.6459 104.891 26.9251V26.3959H90.7751V26.45C90.4867 25.832 90.2954 25.1436 90.1975 24.3985C90.0025 22.9091 90.1837 21.1936 90.7083 19.3618C91.7583 15.6973 94.1842 11.5642 97.7388 7.83106C101.292 4.09794 105.302 1.47158 108.911 0.243072C110.715 -0.371181 112.419 -0.635739 113.916 -0.514903C114.103 -0.49934 114.287 -0.478285 114.467 -0.451738H114.022V18.4308H114.329C113.586 19.4002 112.767 20.3587 111.878 21.2924L111.879 21.2933Z"
            fill="#0C3F77" />
        <path
            d="M111.838 21.3168C110.069 23.1751 108.187 24.757 106.299 26.0285C105.826 26.3462 105.354 26.6446 104.882 26.9229V26.3965H90.8316V26.4505C90.5441 25.8354 90.3537 25.1497 90.2567 24.4091C90.0626 22.927 90.2429 21.2198 90.7657 19.3953C91.8102 15.7473 94.2251 11.6334 97.7632 7.91768C101.3 4.20196 105.292 1.5875 108.883 0.364483C110.679 -0.247023 112.375 -0.510667 113.866 -0.38983C114.051 -0.375184 114.234 -0.354129 114.415 -0.326666H114.022V18.4689H114.277C113.536 19.4338 112.722 20.3876 111.838 21.3168Z"
            fill="#0C4078" />
        <path
            d="M111.797 21.3409C110.037 23.19 108.163 24.7655 106.284 26.0306C105.814 26.3464 105.344 26.6439 104.874 26.9204V26.3959H90.889V26.4499C90.6025 25.8375 90.4139 25.1555 90.3169 24.4176C90.1237 22.942 90.3031 21.2429 90.8231 19.4276C91.863 15.797 94.267 11.7023 97.7877 8.00308C101.309 4.30475 105.28 1.70219 108.856 0.485586C110.644 -0.123174 112.332 -0.384987 113.815 -0.265066C114.001 -0.250419 114.183 -0.229364 114.362 -0.201901H114.022V18.5058H114.225C113.488 19.467 112.678 20.4163 111.797 21.3409Z"
            fill="#0D4179" />
        <path
            d="M111.756 21.3634C110.004 23.2043 108.139 24.7715 106.268 26.0311C105.8 26.346 105.331 26.6417 104.865 26.9173V26.3955H90.9445V26.4495C90.6598 25.8398 90.4713 25.1615 90.3751 24.4264C90.1829 22.958 90.3614 21.2663 90.8786 19.4593C91.914 15.8452 94.306 11.7697 97.8112 8.08873C101.316 4.40688 105.269 1.81713 108.827 0.60602C110.607 6.30319e-06 112.287 -0.260891 113.763 -0.14097C113.948 -0.126323 114.13 -0.105268 114.307 -0.0778052H114.02V18.5429H114.171C113.438 19.4995 112.631 20.4443 111.755 21.3643L111.756 21.3634Z"
            fill="#0E427B" />
        <path
            d="M111.716 21.3874C109.972 23.2192 108.116 24.78 106.254 26.0332C105.788 26.3463 105.322 26.6401 104.858 26.9148V26.3948H91.0029V26.4488C90.7192 25.8419 90.5315 25.1663 90.4363 24.4358C90.245 22.9739 90.4226 21.2904 90.938 19.4925C91.9678 15.8958 94.3498 11.8395 97.8375 8.17505C101.326 4.51059 105.261 1.93274 108.803 0.727123C110.573 0.123856 112.246 -0.135211 113.716 -0.0162056C114.083 0.0130881 114.438 0.0670992 114.778 0.144911H114.021V18.5798H114.12C113.391 19.5318 112.588 20.472 111.715 21.3883L111.716 21.3874Z"
            fill="#0E437C" />
        <path
            d="M111.676 21.4114C109.94 23.2349 108.093 24.7875 106.239 26.0352C105.776 26.3474 105.312 26.6394 104.849 26.9131V26.3959H91.0604V26.4499C90.7785 25.8457 90.5917 25.1738 90.4965 24.446C90.3061 22.9914 90.4828 21.3152 90.9954 19.5256C92.0207 15.9463 94.3907 11.9083 97.8629 8.26124C101.335 4.61418 105.251 2.04915 108.776 0.849021C110.538 0.249415 112.203 -0.00965054 113.666 0.10844C114.031 0.137733 114.385 0.190828 114.723 0.26864H114.023V18.6166H114.07C113.343 19.564 112.544 20.4996 111.676 21.4114Z"
            fill="#0F447D" />
        <path
            d="M111.634 21.4349C109.907 23.2493 108.069 24.7954 106.223 26.0367C105.762 26.3471 105.3 26.6382 104.84 26.9101V26.3947H91.1159V26.4487C90.8349 25.8473 90.649 25.1781 90.5547 24.454C90.3652 23.0058 90.541 21.3388 91.0518 19.5573C92.0725 15.9945 94.4316 11.9758 97.8864 8.34609C101.342 4.71642 105.239 2.16329 108.748 0.968659C110.502 0.3718 112.159 0.114565 113.614 0.231739C113.979 0.261033 114.329 0.314127 114.667 0.391023H114.022V17.9434H114.545C114.373 18.1805 114.198 18.4167 114.017 18.652C113.294 19.5949 112.498 20.5268 111.635 21.434L111.634 21.4349Z"
            fill="#0F457F" />
        <path
            d="M111.594 21.4588C109.875 23.265 108.045 24.8038 106.208 26.0387C105.75 26.3472 105.29 26.6374 104.831 26.9084V26.3957H91.1724V26.4488C90.8932 25.8501 90.7083 25.1846 90.614 24.4642C90.4254 23.0233 90.6002 21.3636 91.1083 19.5904C92.1244 16.045 94.4716 12.0455 97.9108 8.43321C101.35 4.82093 105.229 2.2797 108.721 1.09056C110.467 0.496444 112.116 0.240125 113.565 0.3573C113.927 0.386593 114.277 0.439688 114.612 0.515668H114.021V17.9848H114.491C114.32 18.221 114.145 18.4562 113.965 18.6906C113.245 19.6289 112.453 20.5562 111.594 21.4588Z"
            fill="#104680" />
        <path
            d="M111.553 21.4827C109.842 23.2806 108.022 24.8112 106.193 26.0406C105.737 26.3482 105.279 26.6366 104.823 26.9057V26.3949H91.2298V26.448C90.9515 25.853 90.7675 25.1902 90.6742 24.4725C90.4865 23.038 90.6604 21.3866 91.1658 19.6226C92.1764 16.0936 94.5135 12.1133 97.9353 8.51843C101.358 4.92354 105.218 2.39421 108.693 1.21148C110.431 0.620114 112.072 0.364709 113.514 0.481884C113.875 0.511178 114.223 0.563357 114.557 0.639338H114.021V18.0242H114.436C114.266 18.2586 114.092 18.4929 113.912 18.7264C113.196 19.6601 112.408 20.5829 111.552 21.4818L111.553 21.4827Z"
            fill="#114781" />
        <path
            d="M111.513 21.5068C109.81 23.2955 107.998 24.8197 106.179 26.0427C105.724 26.3485 105.27 26.6359 104.815 26.9032V26.3952H91.2873V26.4483C91.0108 25.856 90.8277 25.196 90.7344 24.4828C90.5476 23.0557 90.7206 21.4116 91.2241 19.6558C92.2302 16.1442 94.5554 12.1832 97.9617 8.60474C101.368 5.02725 105.21 2.50982 108.669 1.33258C110.398 0.743963 112.031 0.490389 113.465 0.606648C113.824 0.635942 114.17 0.688122 114.503 0.763187H114.022V18.0648H114.383C114.213 18.2982 114.039 18.5316 113.862 18.7633C113.149 19.6924 112.365 20.6106 111.514 21.5059L111.513 21.5068Z"
            fill="#114882" />
        <path
            d="M111.472 21.5302C109.778 23.3107 107.974 24.8266 106.164 26.0442C105.712 26.349 105.259 26.6346 104.808 26.901V26.3948H91.3446V26.4479C91.0691 25.8583 90.8869 25.202 90.7944 24.4916C90.6086 23.0709 90.7816 21.435 91.2814 19.6874C92.2829 16.1923 94.5962 12.2505 97.986 8.69039C101.376 5.13029 105.2 2.62477 108.641 1.45302C110.362 0.867143 111.987 0.614485 113.415 0.730744C113.772 0.760038 114.116 0.811303 114.447 0.887283H114.022V18.1056H114.327C114.159 18.3381 113.986 18.5697 113.809 18.8013C113.1 19.7259 112.32 20.6404 111.472 21.5302Z"
            fill="#124884" />
        <path
            d="M111.433 21.5539C109.746 23.3252 107.951 24.8348 106.151 26.0459C105.7 26.3489 105.25 26.6336 104.8 26.8982V26.3947H91.403V26.4478C91.1293 25.861 90.9471 25.2074 90.8556 24.5006C90.6707 23.0872 90.8428 21.4596 91.3408 19.7203C92.3368 16.2426 94.64 12.319 98.0133 8.77634C101.387 5.23272 105.191 2.74001 108.617 1.57467C110.329 0.991538 111.947 0.740711 113.368 0.855139C113.723 0.883518 114.066 0.935697 114.395 1.01076H114.024V17.45H114.765C114.448 17.9141 114.112 18.3774 113.76 18.8369C113.054 19.7569 112.278 20.6668 111.434 21.553L111.433 21.5539Z"
            fill="#124985" />
        <path
            d="M111.391 21.5778C109.713 23.341 107.927 24.8423 106.135 26.0488C105.687 26.35 105.238 26.6328 104.791 26.8974V26.3957H91.4585V26.4488C91.1857 25.8648 91.0053 25.2148 90.9129 24.5118C90.7289 23.1048 90.9 21.4854 91.3953 19.7543C92.3867 16.2931 94.678 12.3897 98.0349 8.86345C101.392 5.33722 105.178 2.85733 108.586 1.69657C110.291 1.11618 111.9 0.866271 113.313 0.9807C113.667 1.00908 114.008 1.06034 114.336 1.13541H114.021V17.495H114.705C114.389 17.9564 114.056 18.4178 113.704 18.8755C113.002 19.7918 112.23 20.6963 111.39 21.5778H111.391Z"
            fill="#134A86" />
        <path
            d="M111.35 21.6014C109.681 23.3554 107.903 24.8503 106.12 26.0504C105.674 26.3507 105.227 26.6317 104.782 26.8944V26.3955H91.5149V26.4486C91.243 25.8673 91.0636 25.221 90.9721 24.5207C90.789 23.121 90.9593 21.509 91.4527 19.787C92.4395 16.3432 94.7198 12.4581 98.0602 8.94928C101.401 5.44044 105.169 2.97245 108.56 1.81718C110.256 1.23954 111.858 0.991463 113.265 1.10498C113.616 1.13335 113.956 1.18462 114.282 1.25877H114.022V17.5378H114.649C114.335 17.9974 114.002 18.456 113.654 18.911C112.954 19.8227 112.186 20.7226 111.35 21.6005V21.6014Z"
            fill="#134B87" />
        <path
            d="M111.31 21.6253C109.648 23.371 107.88 24.8577 106.105 26.0523C105.661 26.3507 105.217 26.6309 104.774 26.8927V26.3956H91.5724V26.4487C91.3023 25.8701 91.1238 25.2266 91.0323 24.53C90.8501 23.1367 91.0195 21.5328 91.5101 19.8192C92.4915 16.3918 94.7608 12.5269 98.0847 9.03542C101.409 5.54398 105.158 3.08788 108.533 1.93902C110.22 1.36505 111.813 1.11697 113.214 1.23048C113.564 1.25886 113.902 1.31012 114.226 1.38336H114.021V17.5828H114.592C114.28 18.0396 113.949 18.4964 113.601 18.9495C112.906 19.8567 112.141 20.7529 111.31 21.6253Z"
            fill="#144C88" />
        <path
            d="M111.268 21.6493C109.614 23.3867 107.855 24.8661 106.089 26.0543C105.648 26.3509 105.206 26.6301 104.765 26.8901V26.3957H91.6289V26.4488C91.3597 25.873 91.1821 25.2332 91.0915 24.5402C90.9102 23.1542 91.0787 21.5577 91.5666 19.8532C92.5434 16.4432 94.8017 12.5966 98.1092 9.12253C101.417 5.64848 105.148 3.20429 108.506 2.06092C110.185 1.48969 111.771 1.24253 113.164 1.35604C113.512 1.38442 113.849 1.43477 114.171 1.50892H114.021V17.6278H114.535C114.223 18.0827 113.895 18.5368 113.549 18.9881C112.857 19.8907 112.095 20.7823 111.268 21.6511V21.6493Z"
            fill="#144D8A" />
        <path
            d="M111.229 21.6732C109.583 23.4015 107.833 24.8735 106.075 26.0563C105.636 26.3519 105.196 26.6293 104.758 26.8884V26.3959H91.6863V26.4481C91.419 25.8759 91.2423 25.2379 91.1517 24.5486C90.9714 23.169 91.1389 21.5817 91.625 19.8844C92.5972 16.491 94.8436 12.6636 98.1346 9.20689C101.426 5.75024 105.138 3.31795 108.479 2.18007C110.15 1.61159 111.728 1.36625 113.114 1.47885C113.461 1.50723 113.795 1.55758 114.116 1.63081H114.021V17.67H114.478C114.168 18.1232 113.841 18.5745 113.497 19.023C112.809 19.9211 112.051 20.8081 111.229 21.6723V21.6732Z"
            fill="#154E8B" />
        <path
            d="M111.187 21.6968C109.55 23.4169 107.808 24.8815 106.06 26.0579C105.623 26.3517 105.186 26.6282 104.749 26.8854V26.3957H91.7438V26.4478C91.4774 25.8785 91.3016 25.2441 91.2119 24.5584C91.0325 23.1862 91.1991 21.6061 91.6824 19.9181C92.6491 16.542 94.8846 12.7338 98.16 9.29364C101.434 5.85438 105.128 3.43398 108.453 2.30251C110.115 1.73678 111.685 1.49236 113.065 1.60404C113.41 1.6315 113.742 1.68185 114.062 1.75509H114.022V17.7137H114.421C114.113 18.1641 113.787 18.6136 113.445 19.0603C112.76 19.9538 112.006 20.8372 111.187 21.6968Z"
            fill="#154E8C" />
        <path
            d="M111.147 21.7209C109.517 23.4318 107.785 24.8892 106.045 26.06C105.61 26.353 105.175 26.6276 104.741 26.8839V26.3969H91.8002V26.4491C91.5357 25.8824 91.3599 25.2517 91.2711 24.5688C91.0926 23.203 91.2583 21.6312 91.7398 19.9514C92.7019 16.5918 94.9264 12.8028 98.1844 9.38093C101.442 5.95814 105.118 3.55057 108.426 2.42459C110.08 1.8616 111.642 1.61902 113.015 1.72978C113.359 1.75725 113.69 1.80759 114.008 1.87991C114.167 1.91653 114.323 1.95772 114.474 2.00533H114.023V17.758H114.366C114.059 18.2066 113.736 18.6533 113.394 19.0982C112.712 19.9871 111.963 20.8659 111.148 21.7209H111.147Z"
            fill="#164F8D" />
        <path
            d="M111.107 21.7443C109.486 23.447 107.761 24.897 106.031 26.0615C105.598 26.3526 105.165 26.6263 104.733 26.8808V26.3956H91.8577V26.4478C91.594 25.8839 91.4201 25.2559 91.3313 24.5766C91.1537 23.2181 91.3185 21.6537 91.7973 19.983C92.7548 16.6408 94.9674 12.8711 98.2098 9.46567C101.451 6.06027 105.109 3.6646 108.399 2.54503C110.045 1.98479 111.6 1.74311 112.965 1.85388C113.306 1.88134 113.636 1.93077 113.952 2.00309C114.11 2.03879 114.265 2.08091 114.416 2.12851H114.021V17.8016H114.307C114.002 18.2474 113.68 18.6923 113.341 19.1344C112.663 20.0187 111.917 20.893 111.106 21.7443H111.107Z"
            fill="#17508E" />
        <path
            d="M111.066 21.7679C109.453 23.4615 107.737 24.9042 106.015 26.0631C105.585 26.3524 105.154 26.6243 104.725 26.8788V26.3963H91.9151V26.4485C91.6533 25.8874 91.4794 25.263 91.3915 24.5875C91.2148 23.2363 91.3787 21.6791 91.8547 20.0167C92.8077 16.691 95.0093 12.9405 98.2343 9.55247C101.459 6.16447 105.097 3.78161 108.373 2.66662C110.01 2.10912 111.557 1.86928 112.915 1.97913C113.594 2.03406 114.227 2.17686 114.8 2.41121H114.022V17.8462H114.251C113.948 18.2902 113.627 18.7324 113.289 19.1727C112.615 20.0524 111.872 20.9221 111.066 21.7689V21.7679Z"
            fill="#17518F" />
        <path
            d="M111.025 21.7922C109.421 23.4775 107.714 24.9129 106.001 26.0654C105.572 26.3538 105.144 26.6238 104.716 26.8765V26.3959H91.9716V26.4481C91.7107 25.8897 91.5386 25.2681 91.4507 24.5962C91.275 23.2514 91.4379 21.7034 91.9121 20.0483C92.8596 16.7399 95.0502 13.0077 98.2588 9.63714C101.467 6.26654 105.087 3.89557 108.345 2.78608C109.973 2.23133 111.512 1.9924 112.864 2.10225C113.54 2.15718 114.17 2.29907 114.74 2.53159H114.022V17.8879H114.195C113.892 18.3291 113.574 18.7694 113.238 19.207C112.567 20.0822 111.828 20.9482 111.025 21.7904V21.7922Z"
            fill="#185290" />
        <path
            d="M110.985 21.815C109.388 23.492 107.69 24.9201 105.986 26.0662C105.56 26.3528 105.133 26.6219 104.708 26.8727V26.3949H92.0281V26.4471C91.769 25.8914 91.5969 25.2735 91.51 24.6043C91.3351 23.2668 91.4971 21.7262 91.9686 20.0802C92.9115 16.7884 95.0911 13.0763 98.2832 9.72309C101.475 6.36988 105.077 4.01082 108.318 2.90773C109.938 2.35572 111.47 2.11863 112.815 2.22665C113.488 2.28066 114.113 2.42255 114.68 2.65415H114.022V17.9326H114.138C113.837 18.3721 113.521 18.8096 113.186 19.2454C112.518 20.1169 111.784 20.9774 110.986 21.8159L110.985 21.815Z"
            fill="#185291" />
        <path
            d="M110.944 21.8389C109.356 23.5068 107.667 24.9275 105.971 26.0681C105.547 26.3538 105.122 26.6211 104.699 26.871V26.395H92.0855V26.4471C91.8274 25.8942 91.6571 25.28 91.5701 24.6144C91.3962 23.2834 91.5573 21.751 92.0269 20.1133C92.9653 16.8388 95.133 13.145 98.3086 9.80923C101.484 6.4734 105.067 4.12625 108.291 3.02865C109.903 2.47939 111.427 2.24321 112.764 2.35123C113.433 2.40524 114.056 2.5453 114.621 2.77599H114.022V17.9758H114.081C113.782 18.4124 113.466 18.8482 113.134 19.2821C112.469 20.149 111.739 21.0049 110.944 21.8389Z"
            fill="#195393" />
        <path
            d="M110.904 21.8627C109.323 23.5224 107.643 24.9358 105.956 26.0709C105.534 26.3547 105.112 26.6211 104.69 26.8692V26.3959H92.1418V26.4472C91.8855 25.8979 91.7152 25.2855 91.6283 24.6236C91.4552 23.2999 91.6164 21.7748 92.0823 20.1463C93.0151 16.8883 95.1719 13.2146 98.3319 9.8953C101.491 6.57687 105.056 4.24162 108.263 3.14951C109.867 2.60392 111.382 2.36774 112.713 2.47576C113.379 2.52977 113.999 2.66891 114.56 2.89868H114.021V18.0197H114.022C113.726 18.4546 113.411 18.8876 113.08 19.3187C112.419 20.1811 111.692 21.0324 110.903 21.8627H110.904Z"
            fill="#195494" />
        <path
            d="M110.862 21.8863C109.29 23.5369 107.619 24.9429 105.941 26.0726C105.521 26.3545 105.101 26.62 104.683 26.8672V26.3957H92.1993V26.447C91.9438 25.9005 91.7745 25.2917 91.6884 24.6326C91.5163 23.3153 91.6765 21.7985 92.1407 20.1781C93.0689 16.9375 95.2147 13.2822 98.3573 9.98119C101.5 6.68016 105.045 4.3568 108.237 3.2711C109.832 2.72825 111.339 2.4939 112.664 2.60101C113.326 2.65502 113.942 2.79325 114.501 3.02211H114.021V16.7654H114.801C113.756 18.4974 112.434 20.2358 110.862 21.8872V21.8863Z"
            fill="#195595" />
        <path
            d="M110.823 21.9103C109.259 23.5526 107.596 24.9513 105.927 26.0746C105.509 26.3556 105.092 26.6192 104.675 26.8646V26.3959H92.2577V26.4471C92.0032 25.9034 91.8357 25.2974 91.7496 24.6428C91.5784 23.3329 91.7377 21.8233 92.1991 20.2122C93.1228 16.988 95.2566 13.3519 98.3837 10.0683C101.51 6.78375 105.037 4.47321 108.212 3.393C109.799 2.8529 111.299 2.61946 112.615 2.72657C113.273 2.77966 113.887 2.91789 114.442 3.14492H114.022V16.8168H114.741C113.701 18.5397 112.385 20.2698 110.823 21.9112V21.9103Z"
            fill="#1A5596" />
        <path
            d="M110.782 21.9338C109.227 23.5669 107.573 24.9584 105.912 26.0761C105.497 26.3553 105.082 26.618 104.667 26.8625V26.3956H92.3142V26.4469C92.0615 25.9058 91.894 25.3035 91.8089 24.6517C91.6386 23.3481 91.797 21.8478 92.2556 20.2439C93.1738 17.0372 95.2975 13.4203 98.4073 10.1532C101.518 6.88599 105.026 4.58827 108.183 3.51264C109.762 2.97528 111.253 2.74368 112.563 2.84987C113.219 2.90296 113.829 3.04028 114.381 3.26639H114.022V16.866H114.68C113.645 18.5797 112.337 20.3007 110.782 21.9338Z"
            fill="#1A5697" />
        <path
            d="M110.741 21.9574C109.194 23.5823 107.548 24.9664 105.897 26.0777C105.484 26.356 105.07 26.616 104.658 26.8595V26.3954H92.3706V26.4466C92.1189 25.9084 91.9532 25.3097 91.8681 24.6616C91.6987 23.3653 91.8562 21.8722 92.313 20.2776C93.2266 17.0873 95.3385 13.4897 98.4326 10.2399C101.527 6.99013 105.016 4.7043 108.157 3.63508C109.728 3.10047 111.211 2.86979 112.515 2.97506C113.166 3.02816 113.772 3.16455 114.323 3.38883H114.022V16.9161H114.619C113.59 18.6206 112.289 20.3325 110.742 21.9574H110.741Z"
            fill="#1B5798" />
        <path
            d="M110.701 21.9814C109.162 23.5972 107.525 24.974 105.882 26.0798C105.471 26.3563 105.06 26.6153 104.65 26.8579V26.3956H92.4281V26.4469C92.1782 25.9114 92.0125 25.3154 91.9283 24.671C91.7598 23.3811 91.9164 21.8963 92.3704 20.3099C93.2794 17.137 95.3803 13.5586 98.4571 10.3262C101.535 7.09384 105.005 4.81991 108.13 3.75619C109.693 3.22432 111.168 2.99547 112.464 3.09983C113.112 3.152 113.715 3.2884 114.263 3.51177H114.022V16.9676H114.558C113.534 18.663 112.24 20.3657 110.701 21.9824V21.9814Z"
            fill="#1B5799" />
        <path
            d="M110.66 22.0053C109.13 23.6128 107.501 24.9823 105.867 26.0817C105.459 26.3564 105.05 26.6145 104.641 26.8553V26.3957H92.4846V26.447C92.2356 25.9142 92.0717 25.3219 91.9875 24.6802C91.82 23.3977 91.9756 21.9202 92.4278 20.3429C93.3322 17.1865 95.4213 13.6273 98.4824 10.4124C101.544 7.19737 104.996 4.93534 108.104 3.87711C109.657 3.34799 111.125 3.12005 112.414 3.22441C113.059 3.27659 113.659 3.41207 114.203 3.63452H114.022V17.0181H114.496C113.478 18.7043 112.19 20.3978 110.66 22.0053Z"
            fill="#1C589A" />
        <path
            d="M110.619 22.029C109.097 23.6282 107.477 24.9895 105.851 26.0834C105.445 26.3571 105.038 26.6134 104.633 26.8533V26.3956H92.541V26.4468C92.2939 25.9168 92.13 25.3273 92.0467 24.6901C91.8801 23.414 92.0348 21.9448 92.4843 20.3757C93.3832 17.2367 95.4622 13.6958 98.506 10.4982C101.551 7.30065 104.984 5.05053 108.076 3.9987C109.621 3.47233 111.081 3.24622 112.364 3.34966C113.005 3.40184 113.601 3.53641 114.143 3.75703H114.022V17.0692H114.434C113.422 18.7462 112.141 20.4306 110.619 22.0299V22.029Z"
            fill="#1C599B" />
        <path
            d="M110.578 22.0528C109.064 23.6429 107.453 24.9977 105.836 26.0853C105.432 26.3571 105.028 26.6125 104.624 26.8506V26.3956H92.5985V26.4469C92.3522 25.9205 92.1893 25.3337 92.1069 24.6993C91.9412 23.4305 92.095 21.9695 92.5426 20.4078C93.437 17.2862 95.504 13.7645 98.5323 10.5834C101.561 7.4032 104.976 5.16498 108.05 4.11865C109.587 3.59502 111.039 3.36983 112.315 3.47327C112.953 3.52453 113.546 3.6591 114.084 3.8788H114.022V17.1186H114.374C113.367 18.7866 112.093 20.4627 110.579 22.0528H110.578Z"
            fill="#1D5A9C" />
        <path
            d="M110.538 22.0767C109.032 23.6585 107.43 25.0051 105.823 26.0872C105.421 26.3572 105.018 26.6117 104.617 26.8488V26.3957H92.6559V26.446C92.4115 25.9224 92.2495 25.3393 92.1671 24.7076C92.0023 23.4453 92.1552 21.9925 92.6001 20.4399C93.4899 17.3348 95.545 13.8323 98.5568 10.6695C101.569 7.50582 104.966 5.28041 108.023 4.23957C109.552 3.71869 110.996 3.49441 112.264 3.59785C112.899 3.64912 113.489 3.78185 114.025 4.00064H114.023V17.1691H114.313C113.312 18.8278 112.045 20.4948 110.539 22.0758L110.538 22.0767Z"
            fill="#1D5A9D" />
        <path
            d="M110.497 22.1008C109 23.6735 107.407 25.0137 105.808 26.0893C105.408 26.3585 105.008 26.6111 104.608 26.8464V26.396H92.7124V26.4464C92.4689 25.9255 92.3078 25.3451 92.2263 24.718C92.0625 23.463 92.2144 22.0175 92.6566 20.4732C93.5409 17.3854 95.586 13.9022 98.5812 10.7559C101.577 7.60959 104.954 5.397 107.995 4.36165C109.516 3.84443 110.952 3.62107 112.214 3.72268C112.845 3.77394 113.432 3.90577 113.964 4.12364C114.23 4.23257 114.483 4.36256 114.72 4.51453H114.022V17.2207H114.251C113.255 18.8703 111.995 20.5281 110.497 22.1008Z"
            fill="#1E5B9E" />
        <path
            d="M110.457 22.1246C108.967 23.6891 107.383 25.0211 105.793 26.0912C105.395 26.3585 104.997 26.6102 104.6 26.8437V26.3951H92.7699V26.4455C92.5282 25.9273 92.368 25.3506 92.2865 24.7263C92.1236 23.4776 92.2746 22.0404 92.7149 20.5053C93.5947 17.434 95.6278 13.97 98.6066 10.8411C101.585 7.71214 104.945 5.51145 107.97 4.48159C109.482 3.96712 110.91 3.74467 112.165 3.84629C112.792 3.89664 113.376 4.02846 113.906 4.24541C114.171 4.35343 114.422 4.48251 114.658 4.63356H114.023V17.2692H114.192C113.201 18.9106 111.948 20.5583 110.459 22.1228L110.457 22.1246Z"
            fill="#1E5C9E" />
        <path
            d="M110.416 22.1483C108.935 23.7036 107.36 25.0291 105.778 26.0929C105.382 26.3593 104.987 26.6082 104.592 26.8417V26.3959H92.8273V26.4462C92.5865 25.9308 92.4272 25.3569 92.3457 24.7362C92.1837 23.4949 92.3338 22.065 92.7714 20.538C93.6466 17.4842 95.6687 14.0385 98.6311 10.9279C101.593 7.81634 104.935 5.62755 107.942 4.60319C109.446 4.09146 110.866 3.87084 112.114 3.97154C112.738 4.02189 113.318 4.15279 113.845 4.36792C114.108 4.47503 114.357 4.6041 114.592 4.75423H114.021V17.3203H114.128C113.143 18.9525 111.897 20.5911 110.416 22.1474V22.1483Z"
            fill="#1E5C9F" />
        <path
            d="M110.376 22.1723C108.903 23.7194 107.336 25.0376 105.763 26.0958C105.369 26.3604 104.977 26.6085 104.584 26.8401V26.3961H92.8837V26.4464C92.6448 25.9338 92.4855 25.3635 92.405 24.7465C92.2438 23.5125 92.3931 22.0908 92.8288 20.5721C93.6985 17.5347 95.7097 14.1092 98.6555 11.0151C101.601 7.9209 104.924 5.74402 107.915 4.72606C109.411 4.21708 110.823 3.99738 112.064 4.09808C112.684 4.14843 113.262 4.27842 113.786 4.49263C114.048 4.59973 114.296 4.72789 114.529 4.87711H114.022V17.3736H114.068C113.088 18.9967 111.849 20.6261 110.376 22.1732V22.1723Z"
            fill="#1F5DA0" />
        <path
            d="M110.335 22.1954C108.871 23.7342 107.312 25.0442 105.748 26.0969C105.357 26.3597 104.965 26.6068 104.575 26.8375V26.3963H92.9412V26.4466C92.7032 25.9367 92.5457 25.3701 92.4652 24.7558C92.305 23.5282 92.4533 22.1148 92.8863 20.6044C93.7513 17.5844 95.7515 14.1771 98.6809 11.1004C101.61 8.02364 104.914 5.85865 107.888 4.84619C109.375 4.33996 110.78 4.12208 112.014 4.22186C112.631 4.27221 113.205 4.40129 113.726 4.61367C113.986 4.71986 114.233 4.8471 114.466 4.9954H114.023V16.2149H114.689C114.478 16.6158 114.251 17.0186 114.007 17.4223C113.033 19.0362 111.801 20.6575 110.336 22.1954H110.335Z"
            fill="#1F5DA1" />
        <path
            d="M110.294 22.2198C108.837 23.7494 107.287 25.053 105.732 26.0993C105.343 26.3612 104.954 26.6065 104.566 26.8353V26.3959H92.9965V26.4463C92.7595 25.9391 92.6029 25.3752 92.5233 24.7656C92.364 23.5453 92.5123 22.1392 92.9416 20.6379C93.8021 17.6344 95.7904 14.2473 98.7033 11.187C101.616 8.12766 104.902 5.97457 107.859 4.9676C109.338 4.46411 110.735 4.24716 111.962 4.34694C112.576 4.39637 113.147 4.52545 113.665 4.73691C113.924 4.8431 114.169 4.96943 114.4 5.11681H114.02V16.2731H114.622C114.412 16.6723 114.186 17.0732 113.943 17.4742C112.975 19.0789 111.749 20.691 110.293 22.2207L110.294 22.2198Z"
            fill="#205EA2" />
        <path
            d="M110.254 22.2425C108.806 23.764 107.265 25.0593 105.718 26.1002C105.332 26.3601 104.944 26.6046 104.558 26.8325V26.3958H93.054V26.4462C92.8187 25.9427 92.6631 25.3815 92.5835 24.7746C92.4251 23.5608 92.5725 22.1629 93 20.6698C93.855 17.6837 95.8323 14.3149 98.7287 11.273C101.625 8.231 104.892 6.08981 107.834 5.08925C109.304 4.58851 110.692 4.37338 111.913 4.47133C112.522 4.52077 113.091 4.64893 113.605 4.85947C113.863 4.96475 114.107 5.09016 114.337 5.23755H114.021V16.3307H114.557C114.349 16.7271 114.124 17.1262 113.883 17.5244C112.92 19.12 111.701 20.7229 110.253 22.2444L110.254 22.2425Z"
            fill="#205FA3" />
        <path
            d="M110.213 22.2658C108.773 23.7781 107.24 25.067 105.703 26.1015C105.319 26.3605 104.934 26.6031 104.551 26.8292V26.3944H93.1124V26.4447C92.8781 25.944 92.7234 25.3856 92.6446 24.7823C92.4872 23.5758 92.6337 22.1853 93.0584 20.7004C93.9088 17.7308 95.8752 14.3821 98.7551 11.3567C101.635 8.33117 104.884 6.20371 107.808 5.20773C109.27 4.70973 110.651 4.49552 111.864 4.59347C112.471 4.64291 113.035 4.77015 113.548 4.97887C113.804 5.08323 114.046 5.20864 114.274 5.3542H114.023V16.3842H114.494C114.286 16.7787 114.063 17.1751 113.824 17.5715C112.866 19.1579 111.654 20.7517 110.214 22.264L110.213 22.2658Z"
            fill="#205FA4" />
        <path
            d="M110.172 22.2903C108.74 23.7943 107.217 25.075 105.688 26.1039C105.306 26.3612 104.924 26.6028 104.542 26.828V26.3959H93.1689V26.4454C92.9364 25.9474 92.7826 25.3926 92.7039 24.793C92.5473 23.5929 92.6929 22.2115 93.1158 20.7349C93.9616 17.7827 95.9161 14.4524 98.7795 11.4443C101.643 8.43616 104.874 6.32061 107.781 5.33011C109.235 4.83487 110.608 4.62157 111.814 4.71952C112.418 4.76804 112.979 4.89528 113.488 5.10309C113.742 5.20745 113.984 5.33103 114.211 5.47658H114.022V16.4443H114.429C114.223 16.8361 114 17.2307 113.762 17.6252C112.81 19.2025 111.606 20.7871 110.174 22.2912L110.172 22.2903Z"
            fill="#2160A4" />
        <path
            d="M110.132 22.3138C108.708 23.8087 107.193 25.083 105.673 26.1055C105.293 26.3609 104.913 26.6017 104.534 26.8251V26.3948H93.2254V26.4442C92.9938 25.949 92.8409 25.3979 92.7631 24.8011C92.6075 23.6083 92.7521 22.2342 93.1723 20.7658C94.0136 17.8301 95.957 14.519 98.804 11.5283C104.498 5.54685 111.65 3.11273 114.778 6.09062H114.021V16.5H114.363C114.158 16.8899 113.937 17.2817 113.7 17.6735C112.753 19.2417 111.555 20.8171 110.132 22.3129V22.3138Z"
            fill="#2160A5" />
        <path
            d="M110.091 22.3376C108.676 23.8242 107.17 25.0903 105.658 26.1073C105.28 26.3618 104.902 26.5998 104.525 26.8232V26.3957H93.2828V26.4451C93.053 25.9526 92.9002 25.4043 92.8233 24.8111C92.6686 23.6247 92.8123 22.2588 93.2306 20.7997C94.0664 17.8813 95.9989 14.5894 98.8294 11.6161C104.49 5.66946 111.601 3.24906 114.711 6.20956H114.022V16.5585H114.298C114.094 16.9457 113.874 17.3357 113.639 17.7256C112.698 19.2855 111.507 20.8518 110.092 22.3385L110.091 22.3376Z"
            fill="#2161A6" />
        <path
            d="M110.05 22.3616C108.643 23.84 107.146 25.0987 105.644 26.1094C105.268 26.362 104.892 26.5991 104.517 26.8207V26.395H93.3393V26.4444C93.1104 25.9547 92.9594 25.41 92.8825 24.8205C92.7287 23.6414 92.8715 22.2829 93.2871 20.8319C94.1183 17.93 96.0398 14.6574 98.8538 11.7015C104.482 5.78962 111.552 3.38296 114.643 6.32606H114.022V15.4648H114.792C114.452 16.2255 114.045 16.999 113.578 17.7744C112.642 19.3251 111.457 20.8823 110.05 22.3598V22.3616Z"
            fill="#2261A7" />
        <path
            d="M110.01 22.3851C108.611 23.8543 107.123 25.1057 105.629 26.1109C105.255 26.3617 104.882 26.5979 104.509 26.8176V26.3946H93.3968V26.4441C93.1697 25.9571 93.0187 25.4151 92.9427 24.8293C92.7898 23.6566 92.9317 22.3063 93.3446 20.8645C94.1712 17.98 96.0808 14.7266 98.8783 11.7871C104.474 5.90918 111.502 3.51717 114.575 6.44379H114.02V15.5294H114.723C114.384 16.2865 113.98 17.0554 113.515 17.8253C112.585 19.3669 111.408 20.9149 110.009 22.3841L110.01 22.3851Z"
            fill="#2262A7" />
        <path
            d="M109.969 22.4092C108.579 23.8702 107.099 25.1143 105.614 26.113C105.242 26.3629 104.871 26.5972 104.501 26.816V26.3949H93.4542V26.4444C93.2281 25.9601 93.0789 25.4218 93.0029 24.8387C92.8509 23.6734 92.9919 22.3314 93.4029 20.8969C94.2241 18.0288 96.1227 14.7946 98.9046 11.8735C104.468 6.03032 111.454 3.65204 114.51 6.56127H114.023V15.5938H114.657C114.32 16.3463 113.92 17.1107 113.456 17.8769C112.532 19.4093 111.361 20.9481 109.97 22.4092H109.969Z"
            fill="#2262A8" />
        <path
            d="M109.929 22.4328C108.547 23.8847 107.075 25.1214 105.599 26.1147C105.23 26.3628 104.86 26.5962 104.492 26.8132V26.3948H93.5106V26.4442C93.2863 25.9636 93.1371 25.4281 93.0611 24.8486C92.9101 23.6897 93.0502 22.3559 93.4584 20.9306C94.275 18.08 96.1626 14.8641 98.9272 11.9603C104.457 6.15195 111.403 3.7874 114.44 6.67923H114.021V15.6578H114.587C114.251 16.4057 113.852 17.1655 113.393 17.9271C112.473 19.4504 111.31 20.9801 109.928 22.4319L109.929 22.4328Z"
            fill="#2363A9" />
        <path
            d="M109.888 22.4566C108.514 23.9002 107.052 25.1297 105.585 26.1174C105.218 26.3646 104.851 26.5962 104.485 26.8122V26.3957H93.5681V26.4451C93.3447 25.9673 93.1973 25.4345 93.1213 24.8587C92.9712 23.7071 93.1103 22.3806 93.5168 20.9635C94.3288 18.1294 96.2045 14.9336 98.9535 12.0464C104.451 6.27275 111.355 3.92194 114.374 6.7973H114.021V15.7227H114.519C114.185 16.466 113.789 17.2213 113.332 17.9783C112.418 19.4925 111.261 21.013 109.887 22.4566H109.888Z"
            fill="#2363A9" />
        <path
            d="M109.848 22.4805C108.482 23.9149 107.028 25.137 105.57 26.1193C105.206 26.3646 104.84 26.5953 104.476 26.8095V26.3957H93.6255V26.4452C93.4031 25.9701 93.2566 25.4409 93.1815 24.8688C93.0323 23.7236 93.1705 22.4054 93.5743 20.9975C94.3807 18.1807 96.2464 15.0032 98.978 12.1334C104.442 6.39363 111.305 4.05746 114.306 6.91542H114.021V15.7878H114.451C114.119 16.5265 113.726 17.2772 113.272 18.0296C112.362 19.5346 111.214 21.0469 109.848 22.4814V22.4805Z"
            fill="#2364AA" />
        <path
            d="M109.807 22.5045C108.45 23.9307 107.005 25.1455 105.555 26.1213C105.193 26.3649 104.83 26.5946 104.468 26.8079V26.396H93.682V26.4445C93.4614 25.9721 93.3149 25.4467 93.2408 24.8773C93.0925 23.7394 93.2298 22.4285 93.6307 21.0288C94.4326 18.2285 96.2864 15.0712 99.0025 12.2187C104.434 6.51379 111.255 4.19135 114.239 7.03192H114.022V15.8512H114.383C114.054 16.5853 113.662 17.3323 113.21 18.0802C112.306 19.576 111.165 21.0792 109.806 22.5054L109.807 22.5045Z"
            fill="#2464AB" />
        <path
            d="M109.766 22.5281C108.416 23.9461 106.98 25.1536 105.539 26.123C105.179 26.3656 104.819 26.5926 104.459 26.805V26.3958H93.7385V26.4443C93.5188 25.9747 93.3741 25.452 93.3 24.8863C93.1526 23.7548 93.289 22.4531 93.6881 21.0607C94.4854 18.2778 96.3282 15.1388 99.0269 12.3037C104.425 6.63355 111.205 4.32575 114.171 7.14802H114.022V15.9132H114.315C113.988 16.6428 113.598 17.3853 113.149 18.1286C112.251 19.6152 111.116 21.1092 109.767 22.5263L109.766 22.5281Z"
            fill="#2465AB" />
        <path
            d="M109.725 22.552C108.384 23.9608 106.957 25.1609 105.524 26.1249C105.166 26.3656 104.807 26.5917 104.45 26.8032V26.3958H93.7958V26.4444C93.5779 25.9775 93.4333 25.4584 93.36 24.8964C93.2136 23.7722 93.35 22.4778 93.7454 21.0946C94.5373 18.3282 96.369 15.2084 99.0522 12.3907C104.417 6.75533 111.156 4.46127 114.104 7.26706H114.021V15.9792H114.246C113.921 16.7051 113.533 17.442 113.088 18.1808C112.195 19.6583 111.067 21.1431 109.725 22.552Z"
            fill="#2465AC" />
        <path
            d="M109.686 22.5757C108.353 23.9763 106.934 25.1691 105.51 26.1266C105.154 26.3665 104.798 26.5907 104.443 26.8004V26.3958H93.8532V26.4443C93.6363 25.9802 93.4935 25.4639 93.4202 24.9054C93.2747 23.7877 93.4102 22.5015 93.8038 21.1266C94.5911 18.3775 96.4118 15.277 99.0776 12.4758C104.41 6.87425 111.107 4.59484 114.037 7.38323H114.022V16.0423H114.178C113.854 16.7636 113.47 17.496 113.027 18.2301C112.14 19.6994 111.018 21.1742 109.686 22.5748V22.5757Z"
            fill="#2465AC" />
        <path
            d="M109.644 22.5994C108.319 23.9909 106.91 25.1763 105.494 26.1284C105.141 26.3664 104.787 26.5898 104.433 26.7985V26.3966H93.9087V26.4451C93.6936 25.9838 93.5508 25.4711 93.4785 24.9154C93.3338 23.805 93.4684 22.5262 93.8593 21.1604C94.642 18.4278 96.4509 15.3465 99.101 12.5636C104.4 6.99686 111.057 4.73117 113.969 7.50217C114.151 7.67519 114.314 7.86377 114.458 8.06699H114.022V16.1072H114.109C113.788 16.824 113.406 17.5517 112.965 18.2823C112.084 19.7424 110.97 21.208 109.644 22.6003V22.5994Z"
            fill="#2566AD" />
        <path
            d="M109.604 22.6236C108.288 24.0068 106.887 25.185 105.48 26.1306C105.129 26.3668 104.777 26.5893 104.426 26.7961V26.3961H93.9671V26.4446C93.7529 25.9869 93.612 25.477 93.5396 24.925C93.3959 23.8219 93.5296 22.5504 93.9186 21.1928C94.6967 18.4776 96.4937 15.4155 99.1274 12.6491C104.394 7.11718 111.009 4.86522 113.902 7.61975C114.264 7.96395 114.551 8.3704 114.765 8.82811H114.023V16.1717H114.042C113.723 16.8839 113.343 17.608 112.906 18.333C112.029 19.784 110.922 21.2413 109.605 22.6236H109.604Z"
            fill="#2566AD" />
        <path
            d="M109.563 22.647C108.255 24.021 106.863 25.1919 105.466 26.132C105.116 26.3673 104.768 26.5879 104.419 26.7939V26.3966H94.025V26.4451C93.8126 25.9901 93.6716 25.483 93.6002 24.9346C93.4565 23.8379 93.5902 22.5756 93.9765 21.2262C94.7491 18.5275 96.536 15.4847 99.1532 12.7356C104.387 7.23756 110.96 5.00026 113.836 7.73739C114.196 8.07976 114.479 8.48346 114.693 8.93843H114.023V14.1573H114.741C113.969 16.856 112.182 19.8988 109.564 22.6479L109.563 22.647Z"
            fill="#2567AE" />
        <path
            d="M109.523 22.6711C108.223 24.0369 106.839 25.2004 105.451 26.1341C105.104 26.3676 104.756 26.5873 104.41 26.7914V26.3959H94.0815V26.4445C93.87 25.9922 93.73 25.4888 93.6595 24.9441C93.5167 23.8547 93.6494 22.5997 94.033 21.2586C94.801 18.5773 96.576 15.5527 99.1767 12.822C104.377 7.3587 110.91 5.13513 113.767 7.85486C114.124 8.19449 114.407 8.59636 114.618 9.04858H114.022V14.2345H114.667C113.899 16.9158 112.124 19.9403 109.523 22.6711Z"
            fill="#2567AE" />
        <path
            d="M109.482 22.6938C108.191 24.0514 106.816 25.2067 105.436 26.1349C105.091 26.3674 104.746 26.5844 104.402 26.7876V26.3949H94.1389V26.4425C93.9293 25.993 93.7901 25.4923 93.7197 24.9512C93.5778 23.8683 93.7096 22.6215 94.0913 21.2895C94.8548 18.6256 96.6188 15.6203 99.2021 12.906C104.371 7.47756 110.861 5.26771 113.7 7.97097C114.055 8.30876 114.336 8.70697 114.546 9.15737H114.022V14.3103H114.593C113.83 16.9742 112.066 19.9796 109.482 22.6938Z"
            fill="#2567AF" />
        <path
            d="M109.441 22.7174C108.157 24.0658 106.791 25.2146 105.42 26.1365C105.078 26.3672 104.735 26.5832 104.392 26.7855V26.3946H94.1944V26.4422C93.9856 25.9955 93.8474 25.4984 93.7769 24.9602C93.6359 23.8845 93.7669 22.645 94.1458 21.3213C94.9038 18.6739 96.6569 15.6878 99.2246 12.9909C104.36 7.59723 110.809 5.40112 113.631 8.08698C113.983 8.42294 114.262 8.81841 114.471 9.26514H114.021V14.386H114.519C113.761 17.0335 112.008 20.0196 109.44 22.7164L109.441 22.7174Z"
            fill="#2667AF" />
        <path
            d="M109.401 22.7412C108.126 24.0814 106.768 25.222 105.406 26.1383C105.066 26.3672 104.725 26.5823 104.385 26.7828V26.3947H94.2518V26.4423C94.0449 25.9983 93.9076 25.5049 93.8371 24.9703C93.6971 23.901 93.827 22.6698 94.2042 21.3552C94.9576 18.7252 96.6997 15.7583 99.25 13.0779C104.353 7.7181 110.761 5.53664 113.564 8.20511C113.914 8.53832 114.192 8.93196 114.399 9.37594H114.02V14.4639H114.446C113.693 17.0939 111.951 20.0608 109.4 22.7412H109.401Z"
            fill="#2668AF" />
        <path
            d="M109.361 22.765C108.094 24.0961 106.745 25.2303 105.391 26.1411C105.053 26.3691 104.714 26.5824 104.377 26.7819V26.3956H94.3102V26.4432C94.1043 26.002 93.9679 25.5113 93.8983 24.9804C93.7591 23.9185 93.8882 22.6945 94.2626 21.3882C95.0115 18.7747 96.7416 15.827 99.2764 13.1649C104.346 7.83988 110.713 5.67215 113.498 8.32415C114.194 8.98692 114.6 9.88862 114.739 10.9505H114.022V14.5427H114.375C113.626 17.1562 111.896 20.1039 109.361 22.7659V22.765Z"
            fill="#2668B0" />
        <path
            d="M109.319 22.7892C108.061 24.1119 106.72 25.2379 105.376 26.1433C105.04 26.3694 104.703 26.5818 104.368 26.7795V26.3959H94.3657V26.4435C94.1607 26.0051 94.0261 25.518 93.9565 24.9898C93.8183 23.9344 93.9465 22.7196 94.3181 21.4206C95.0615 18.8244 96.7806 15.8951 99.299 13.2504C104.336 7.96013 110.661 5.80705 113.428 8.44073C114.12 9.09893 114.523 9.99422 114.661 11.0497H114.02V14.619H114.299C113.556 17.2151 111.837 20.1445 109.318 22.7892H109.319Z"
            fill="#2668B0" />
        <path
            d="M109.279 22.8128C108.028 24.1265 106.697 25.246 105.361 26.145C105.027 26.3693 104.692 26.5807 104.359 26.7775V26.3958H94.4222V26.4434C94.219 26.0086 94.0844 25.5234 94.0158 24.9998C93.8784 23.9516 94.0057 22.7442 94.3755 21.4543C95.1143 18.8747 96.8225 15.9654 99.3243 13.3372C104.328 8.08176 110.612 5.9424 113.361 8.5587C114.049 9.21323 114.45 10.1021 114.586 11.1512H114.021V14.6966H114.227C113.488 17.2763 111.78 20.1856 109.278 22.8137L109.279 22.8128Z"
            fill="#2668B0" />
        <path
            d="M109.246 22.7814C108.003 24.0868 106.681 25.1981 105.355 26.0916C105.023 26.3149 104.691 26.5246 104.36 26.7195V26.3955H94.8427V26.9987C94.7072 26.8083 94.5892 26.6042 94.4885 26.3882C94.2861 25.9561 94.1525 25.4746 94.0848 24.9537C93.9484 23.9119 94.0747 22.7127 94.4418 21.4311C95.1759 18.8688 96.8722 15.9779 99.3576 13.3671C104.328 8.14551 110.572 6.02079 113.302 8.6197C113.985 9.26965 114.383 10.153 114.52 11.1948H114.022V14.7174H114.163C113.429 17.2796 111.732 20.1706 109.247 22.7814H109.246Z"
            fill="#2668B0" />
        <path
            d="M108.549 23.283C107.444 24.4429 106.268 25.4315 105.089 26.2252C104.794 26.4239 104.499 26.6097 104.205 26.7836V26.3955H95.4305V26.4889C95.2511 26.1044 95.1321 25.6769 95.0717 25.2137C94.9508 24.2882 95.0634 23.2217 95.3893 22.0829C96.042 19.8053 97.5497 17.2357 99.7596 14.9151C104.178 10.2739 109.728 8.38444 112.154 10.6959C114.581 13.0064 112.967 18.6427 108.549 23.283Z"
            fill="#286AB2" />
        <path
            d="M107.853 23.7851C106.886 24.8003 105.858 25.6653 104.825 26.3592C104.567 26.5332 104.309 26.6961 104.052 26.8481V26.3959H96.3741V26.5899C96.2167 26.254 96.1132 25.8796 96.0601 25.474C95.9539 24.6639 96.0528 23.731 96.3384 22.7341C96.9096 20.7413 98.2288 18.493 100.162 16.4625C104.028 12.4017 108.884 10.7484 111.008 12.7706C113.132 14.7928 111.719 19.7233 107.854 23.7851H107.853Z"
            fill="#296BB3" />
        <path
            d="M107.155 24.2867C106.327 25.1573 105.445 25.8979 104.561 26.4938V26.3959H97.3173V26.6915C97.1828 26.4032 97.094 26.0828 97.0482 25.7349C96.9576 25.0401 97.0418 24.2409 97.2862 23.3868C97.7759 21.6786 98.9065 19.7517 100.563 18.0114C103.877 14.531 108.04 13.1139 109.86 14.8468C111.68 16.5797 110.469 20.8062 107.155 24.2876V24.2867Z"
            fill="#2A6CB4" />
        <path
            d="M106.458 24.7882C105.768 25.5133 105.033 26.1312 104.296 26.6273V26.3957H98.259V26.7921C98.1464 26.5523 98.0722 26.285 98.0347 25.9948C97.9587 25.4162 98.0292 24.7498 98.2333 24.0376C98.6407 22.6141 99.5836 21.0084 100.965 19.5575C103.727 16.6565 107.195 15.4756 108.712 16.9201C110.229 18.3647 109.22 21.8863 106.458 24.7873V24.7882Z"
            fill="#2C6EB6" />
        <path
            d="M105.761 25.2898C105.209 25.8702 104.621 26.3646 104.031 26.7609V26.3948H99.2012V26.8918C99.1115 26.6996 99.052 26.4854 99.0218 26.2547C98.9613 25.7915 99.0172 25.2587 99.1801 24.6893C99.506 23.5505 100.26 22.2662 101.365 21.1054C103.574 18.7848 106.349 17.8401 107.563 18.9954C108.777 20.1506 107.969 22.9683 105.76 25.2889L105.761 25.2898Z"
            fill="#2D6FB7" />
        <path
            d="M105.064 25.7914C104.65 26.2262 104.209 26.597 103.767 26.8945V26.3946H100.01V26.5146C99.9644 26.1676 100.007 25.7676 100.129 25.3401C100.374 24.486 100.939 23.522 101.768 22.6524C103.425 20.9121 105.506 20.2036 106.416 21.0696C107.326 21.9365 106.721 24.0493 105.064 25.7895V25.7914Z"
            fill="#2E70B8" />
        <path
            d="M104.368 26.2932C104.091 26.5834 103.797 26.8306 103.503 27.0293V26.3958H100.998V26.7766C100.968 26.545 100.996 26.2786 101.078 25.9939C101.241 25.4245 101.618 24.7819 102.17 24.2024C103.275 23.0426 104.662 22.5702 105.269 23.1478C105.876 23.7255 105.472 25.1343 104.367 26.2951L104.368 26.2932Z"
            fill="#2E70B8" />
    </g>
    <mask id="mask1_485_2709" style="mask-type:luminance" maskUnits="userSpaceOnUse" x="65" y="0"
        width="37" height="24">
        <path
            d="M88.5818 18.6454L101.932 4.74741C100.809 5.90634 93.6597 13.1812 88.5727 13.1877C83.5442 13.1941 79.3049 8.92634 79.0193 8.62882L72.9079 2.22815C70.2312 -0.658198 67.5993 -0.448565 66.239 3.13534C64.2104 8.47869 64.4493 15.9129 68.8901 20.3655C74.5209 26.0128 82.2965 24.777 88.5553 18.6729L88.5672 18.661C88.5727 18.6555 88.5782 18.6509 88.5837 18.6454H88.5818Z"
            fill="white" />
    </mask>
    <g mask="url(#mask1_485_2709)">
        <path d="M101.932 -0.658203H64.21V26.0128H101.932V-0.658203Z" fill="#999933" />
        <path
            d="M88.2038 19.0563C82.2929 25.2647 72.4685 25.5064 66.2601 19.5955C65.4838 18.8567 64.8009 18.0566 64.2123 17.2099C63.9175 16.7869 63.6465 16.3521 63.3984 15.9072H64.0978V0.134384H63.7921C64.0658 -0.303191 64.3633 -0.729781 64.6846 -1.14355V-0.77006H89.2529V-1.12799C89.4122 -0.922021 89.565 -0.713304 89.7124 -0.50184C90.302 0.344931 90.7972 1.23747 91.1991 2.16206C92.0028 4.01122 92.4303 5.98763 92.4788 7.97319C92.5768 11.9443 91.1588 15.9521 88.2038 19.0572V19.0563Z"
            fill="#999933" />
        <path
            d="M88.1135 18.9704C82.2502 25.1294 72.5046 25.3683 66.3456 19.505C65.5757 18.7718 64.8983 17.9781 64.3142 17.1387C64.0222 16.7185 63.7531 16.2873 63.5068 15.8461H64.0982V0.200486H63.8977C64.1687 -0.233427 64.4644 -0.656356 64.7829 -1.06738V-0.769869H89.1544V-1.05182C89.3118 -0.84768 89.4638 -0.640794 89.6103 -0.431161C90.1952 0.408287 90.6868 1.29442 91.085 2.21168C91.8824 4.0462 92.3062 6.00613 92.3547 7.97613C92.4518 11.9152 91.0457 15.8918 88.1135 18.9713V18.9704Z"
            fill="#9B9B31" />
        <path
            d="M88.0232 18.885C82.2075 24.9936 72.5397 25.2317 66.431 19.4159C65.6676 18.6891 64.9956 17.9018 64.4153 17.0688C64.1251 16.6523 63.8587 16.2248 63.6143 15.7872H64.0967V0.266098H64.0024C64.2715 -0.164153 64.5645 -0.584334 64.8803 -0.991699V-0.770166H89.0558V-0.976137C89.2124 -0.773827 89.3634 -0.568772 89.5081 -0.360054C90.0875 0.472985 90.5755 1.3518 90.9709 2.26082C91.7618 4.08069 92.182 6.02506 92.2305 7.97858C92.3267 11.8856 90.9316 15.8302 88.0242 18.885H88.0232Z"
            fill="#9D9E2F" />
        <path
            d="M87.9334 18.7991C82.1643 24.8584 72.5762 25.0945 66.5169 19.3255C65.7599 18.6041 65.0934 17.8233 64.5176 16.9976C64.2302 16.5847 63.9656 16.16 63.724 15.726H64.0975V1.64126H63.3779C63.5985 1.19636 63.8421 0.758788 64.1084 0.332199C64.3748 -0.094391 64.6659 -0.51091 64.979 -0.915529V-0.769976H88.4744V-1.49316C88.8076 -1.10502 89.1179 -0.70315 89.4054 -0.289377C89.9803 0.53634 90.4645 1.40783 90.8563 2.31044C91.6399 4.11566 92.0574 6.04355 92.105 7.98152C92.2002 11.8574 90.817 15.7691 87.9325 18.7991H87.9334Z"
            fill="#9FA02D" />
        <path
            d="M87.8433 18.7132C82.1219 24.7229 72.6124 24.9564 66.6026 19.2349C65.8511 18.52 65.1901 17.7455 64.6198 16.9262C64.3342 16.5161 64.0724 16.0959 63.8325 15.6657H64.098V1.69626H63.4893C63.708 1.25502 63.9488 0.821107 64.2143 0.398179C64.4788 -0.0247484 64.7672 -0.437606 65.0775 -0.839478V-0.769906H88.3807V-1.41162C88.7111 -1.02623 89.0187 -0.628015 89.3043 -0.217903C89.8746 0.601405 90.3543 1.46557 90.7434 2.36086C91.5206 4.15052 91.9353 6.06377 91.982 7.98525C92.0762 11.8291 90.7049 15.7087 87.8442 18.7141L87.8433 18.7132Z"
            fill="#A1A22B" />
        <path
            d="M87.7532 18.6277C82.0794 24.588 72.6478 24.8196 66.6883 19.1458C65.9432 18.4363 65.2877 17.6683 64.722 16.8563C64.4391 16.4499 64.1791 16.0324 63.9411 15.6058H64.0977V1.75082H63.6006C63.8175 1.31325 64.0565 0.882998 64.3192 0.463732C64.5819 0.0444657 64.8675 -0.365647 65.176 -0.763858C65.3307 -0.962506 65.49 -1.15841 65.6557 -1.35156V-0.770265H88.286V-1.33142C88.6137 -0.948774 88.9186 -0.554224 89.2014 -0.147774C89.7672 0.665127 90.2432 1.52197 90.6286 2.40993C91.3994 4.18495 91.8104 6.08263 91.8571 7.98855C91.9505 11.8004 90.5902 15.6479 87.7532 18.6286V18.6277Z"
            fill="#A3A42A" />
        <path
            d="M87.6625 18.5421C82.0363 24.4521 72.6833 24.6819 66.7733 19.0557C65.2958 17.6486 64.1735 16.0091 63.4082 14.2487H64.0966V1.80625H63.7112C63.9263 1.37233 64.1634 0.945744 64.4234 0.529224C64.6834 0.112704 64.9672 -0.292831 65.2729 -0.687381C65.4258 -0.884198 65.5842 -1.07918 65.749 -1.27051V-0.770683H88.1898V-1.25128C88.5147 -0.872296 88.8177 -0.480493 89.0979 -0.0777051C89.659 0.727872 90.1305 1.5783 90.5131 2.45803C91.2775 4.2184 91.6849 6.0996 91.7316 7.98996C91.824 11.7698 90.4756 15.5862 87.6616 18.5412L87.6625 18.5421Z"
            fill="#A4A628" />
        <path
            d="M87.5736 18.4557C81.994 24.3163 72.7207 24.5442 66.8602 18.9647C65.3955 17.5696 64.2823 15.9438 63.5234 14.199H64.0974V1.86173H63.8237C64.037 1.43148 64.2723 1.00855 64.5304 0.595693C64.7886 0.182835 65.0696 -0.219952 65.3726 -0.61084C65.5246 -0.806742 65.682 -0.998983 65.845 -1.18848V-0.76921H88.0972V-1.16834C88.4194 -0.792096 88.7197 -0.403954 88.998 -0.00482726C89.5546 0.794342 90.0223 1.63654 90.4013 2.50985C91.1593 4.25558 91.563 6.12122 91.6097 7.9951C91.7021 11.7438 90.3638 15.5272 87.5745 18.4575L87.5736 18.4557Z"
            fill="#A6A826" />
        <path
            d="M87.4833 18.3706C81.9514 24.1817 72.7559 24.4069 66.9457 18.875C65.4929 17.4918 64.3898 15.8797 63.6374 14.1495H64.0978V3.22023H63.3691C63.7024 2.33776 64.1244 1.48001 64.6361 0.661613C64.8924 0.252416 65.1707 -0.146711 65.471 -0.534853C65.6211 -0.728923 65.7776 -0.920247 65.9387 -1.10791V-0.770117H88.0024V-1.08869C88.3219 -0.716106 88.6194 -0.330711 88.8949 0.0656694C89.446 0.857515 89.9101 1.6933 90.2864 2.55929C91.038 4.29037 91.438 6.13954 91.4838 7.99786C91.5753 11.7145 90.2489 15.4659 87.4824 18.3715L87.4833 18.3706Z"
            fill="#A8AA25" />
        <path
            d="M87.3926 18.2845C81.9083 24.0453 72.7915 24.2696 67.0307 18.7853C65.5908 17.414 64.4959 15.8156 63.7508 14.1001H64.0968V3.26418H63.4844C63.8148 2.38903 64.2332 1.5386 64.7403 0.727532C64.9939 0.321997 65.2704 -0.0743839 65.5679 -0.458864C65.7171 -0.651104 65.8718 -0.840596 66.032 -1.02734V-0.770109H87.9071V-1.00812C88.2238 -0.638288 88.5186 -0.256554 88.7923 0.136165C89.3388 0.921602 89.7993 1.75006 90.1719 2.60782C90.917 4.32333 91.3143 6.15785 91.3592 7.99969C91.4498 11.6843 90.1343 15.4037 87.3926 18.2845Z"
            fill="#A9AC23" />
        <path
            d="M87.3029 18.1997C81.8653 23.9111 72.8282 24.1335 67.1168 18.6959C65.6887 17.3365 64.604 15.7519 63.8652 14.051H64.0977V3.30844H63.6016C64.2561 1.57279 65.2621 -0.0630819 66.6206 -1.49023V-0.768878H87.8137V-0.926332C88.1277 -0.56016 88.4206 -0.181173 88.6916 0.207884C89.2335 0.986913 89.6894 1.80805 90.0593 2.65849C90.798 4.35935 91.1917 6.17739 91.2365 8.00367C91.3262 11.6562 90.0226 15.3436 87.3038 18.1997H87.3029Z"
            fill="#ABAE21" />
        <path
            d="M87.2132 18.1134C81.8231 23.7753 72.8638 23.9951 67.2028 18.605C65.7876 17.2575 64.7119 15.6866 63.9796 14.0004H64.0977V3.35123H63.7178C64.3668 1.63114 65.3637 0.00900197 66.7112 -1.40625V-0.770943H87.7194V-0.846923C88.0306 -0.483498 88.3208 -0.108173 88.589 0.277222C89.1264 1.04893 89.5786 1.86366 89.9448 2.70677C90.6771 4.39299 91.0671 6.19547 91.112 8.00618C91.2008 11.6276 89.9082 15.2829 87.2132 18.1134Z"
            fill="#ADB020" />
        <path
            d="M87.1225 18.0273C81.78 23.6388 72.8995 23.8576 67.2879 18.5152C65.8845 17.1796 64.819 15.6224 64.0931 13.9509H64.0976V3.39506H63.834C64.4775 1.68962 65.4653 0.083039 66.8009 -1.32031V-0.771056H87.1463V-1.29743C87.3111 -1.1235 87.4703 -0.946819 87.625 -0.76648C87.9335 -0.406716 88.221 -0.0341357 88.4874 0.347598C89.0202 1.1129 89.4678 1.91939 89.8312 2.75517C90.5572 4.42674 90.9435 6.21275 90.9883 8.0079C91.0762 11.5973 89.7955 15.2206 87.1243 18.0263L87.1225 18.0273Z"
            fill="#AEB21E" />
        <path
            d="M87.0328 17.9421C81.7379 23.5043 72.9361 23.7203 67.374 18.4255C65.9834 17.1018 64.927 15.5584 64.2075 13.9024C63.8477 13.0739 63.5722 12.217 63.3809 11.3456H64.0976V3.44084H63.9503C64.5874 1.75096 65.5669 0.158113 66.8906 -1.23242V-0.768299H87.0557V-1.20862C87.2186 -1.03652 87.377 -0.860758 87.5299 -0.683165C87.8356 -0.326148 88.1203 0.0418549 88.3849 0.421757C88.9131 1.17973 89.357 1.97982 89.7168 2.80828C90.4363 4.4652 90.8199 6.23564 90.8629 8.01432C90.9508 11.5717 89.6802 15.1629 87.0328 17.944V17.9421Z"
            fill="#B0B41D" />
        <path
            d="M86.9424 17.8563C81.6943 23.369 72.9711 23.5833 67.4593 18.3351C66.0816 17.0233 65.0344 15.4936 64.3213 13.8523C63.9642 13.0311 63.6914 12.1825 63.502 11.3184H64.0979V3.48412H64.0668C64.6984 1.80888 65.6688 0.230686 66.9815 -1.14795V-0.769877H86.9662V-1.12506C87.1282 -0.954794 87.2848 -0.780862 87.4367 -0.604185C87.7397 -0.250829 88.0226 0.114427 88.2835 0.490668C88.8071 1.24223 89.2465 2.035 89.6036 2.85613C90.3167 4.49841 90.6966 6.25237 90.7396 8.01549C90.8266 11.5417 89.5679 15.1 86.9442 17.8563H86.9424Z"
            fill="#B1B51B" />
        <path
            d="M86.8523 17.7701C81.6517 23.2324 73.0073 23.4448 67.545 18.2443C66.1792 16.9443 65.142 15.4284 64.4353 13.8017C64.0819 12.9879 63.8109 12.1466 63.6233 11.2897H64.0975V6.07455H63.4951C63.6407 5.20947 63.8695 4.35629 64.1826 3.526C64.8088 1.86633 65.7709 0.301862 67.0708 -1.06396V-0.771935H86.3781V-1.53906C91.8404 3.66149 92.0528 12.3059 86.8523 17.7682V17.7701Z"
            fill="#B2B71A" />
        <path
            d="M86.7626 17.6852C81.6096 23.0982 73.044 23.3087 67.631 18.1558C64.9241 15.5788 63.5189 12.1497 63.4338 8.6875C63.3487 5.22535 64.5845 1.73025 67.1614 -0.975759V-0.768873H86.293V-1.44629C91.7059 3.70666 91.9164 12.2723 86.7635 17.6852H86.7626Z"
            fill="#B4B819" />
        <path
            d="M86.6733 17.5988C81.5671 22.9623 73.0801 23.171 67.7175 18.0648C65.0363 15.5117 63.643 12.1136 63.5588 8.68348C63.4745 5.25337 64.6985 1.79031 67.2516 -0.890981V-0.770144H86.2074V-1.35693C91.5709 3.74932 91.7796 12.2363 86.6733 17.5988Z"
            fill="#B5BA17" />
        <path
            d="M86.5821 17.5134C81.5234 22.8266 73.1152 23.0334 67.8021 17.9748C65.1455 15.4455 63.7651 12.0785 63.6817 8.68044C63.5984 5.28146 64.8114 1.85135 67.3407 -0.805226V-0.769525H86.1207V-1.2666C91.4339 3.79205 91.6408 12.2003 86.5821 17.5134Z"
            fill="#B6BB16" />
        <path
            d="M86.4928 17.428C81.4818 22.6917 73.1523 22.8968 67.8886 17.8857C65.2567 15.3802 63.89 12.0453 63.8067 8.67837C63.7243 5.31143 64.9254 1.91336 67.4309 -0.718497C67.5874 -0.883274 67.7476 -1.04256 67.9106 -1.19727V-0.768846H86.036V-1.1753C91.2998 3.83576 91.5048 12.1652 86.4938 17.429L86.4928 17.428Z"
            fill="#B8BD15" />
        <path
            d="M86.4036 17.3417C81.4392 22.556 73.1885 22.7583 67.9742 17.7948C65.3671 15.3131 64.0131 12.0093 63.9308 8.67443C63.8484 5.33953 65.0393 1.9735 67.5211 -0.633644C67.8314 -0.959536 68.1545 -1.26621 68.4887 -1.55273V-0.770043H85.9495V-1.08678C91.1638 3.87759 91.3661 12.1283 86.4027 17.3426L86.4036 17.3417Z"
            fill="#B9BE14" />
        <path
            d="M86.3134 17.2566C81.3966 22.4205 73.2246 22.6219 68.0597 17.7051C65.4773 15.2472 64.1362 11.9746 64.0547 8.67169C63.9733 5.36883 65.1523 2.03392 67.6112 -0.547585C67.9188 -0.870731 68.2382 -1.17374 68.5696 -1.45752V-0.769118H85.8648V-0.996144C91.0287 3.92062 91.2301 12.0926 86.3134 17.2575V17.2566Z"
            fill="#BAC013" />
        <path
            d="M86.2231 17.1704C81.354 22.2849 73.2607 22.4836 68.1453 17.6144C65.5875 15.1794 64.2593 11.9387 64.1787 8.66792C64.0981 5.39618 65.2662 2.09423 67.7004 -0.462561C68.0043 -0.782045 68.3219 -1.08231 68.6497 -1.36426V-0.770144H85.7782V-0.906544C90.8927 3.96262 91.0914 12.0559 86.2222 17.1713L86.2231 17.1704Z"
            fill="#BBC112" />
        <path
            d="M86.133 17.0844C81.3114 22.1494 73.2959 22.3463 68.2308 17.5247C65.6988 15.1135 64.3833 11.9049 64.3037 8.66518C64.224 5.42548 65.3802 2.15557 67.7914 -0.376501C68.0926 -0.693239 68.4066 -0.990753 68.7316 -1.26904V-0.76922H85.6935V-0.815906C90.7586 4.00565 90.9554 12.0211 86.1339 17.0862L86.133 17.0844Z"
            fill="#BCC210" />
        <path
            d="M86.0427 16.9993C81.2678 22.0149 73.332 22.2099 68.3164 17.435C65.809 15.0476 64.5064 11.8701 64.4276 8.66245C64.3489 5.45479 65.4941 2.21692 67.8806 -0.290439C68.1791 -0.603516 68.4894 -0.898284 68.8116 -1.17383V-0.769209H85.1282V-1.15918C85.2902 -1.02004 85.4504 -0.875399 85.607 -0.726184C90.6226 4.04869 90.8176 11.9845 86.0427 17.0002V16.9993Z"
            fill="#BDC40F" />
        <path
            d="M85.9525 16.9132C81.2252 21.8785 73.3681 22.0717 68.4019 17.3444C65.9192 14.9808 64.6294 11.8344 64.5516 8.65881C64.4738 5.48319 65.6071 2.27737 67.9707 -0.205275C68.2664 -0.515606 68.574 -0.807627 68.8926 -1.08042V-0.770094H84.5574V-1.46582C84.8888 -1.20858 85.2101 -0.932125 85.5204 -0.637358C90.4857 4.08991 90.6788 11.947 85.9516 16.9132H85.9525Z"
            fill="#BEC50E" />
        <path
            d="M85.8634 16.8274C81.1837 21.7432 73.4044 21.9345 68.4885 17.254C63.5727 12.5743 63.3814 4.79499 68.0619 -0.120863C68.3549 -0.428447 68.6588 -0.716806 68.9746 -0.986857V-0.770816H84.4829V-1.36768C84.8106 -1.11319 85.1292 -0.839474 85.4368 -0.547453C90.3526 4.13222 90.5439 11.9115 85.8634 16.8274Z"
            fill="#BFC60E" />
        <path
            d="M85.772 16.742C81.1391 21.6084 73.4394 21.797 68.573 17.1649C63.7066 12.532 63.518 4.83228 68.1501 -0.0341313C68.4393 -0.338053 68.7414 -0.623667 69.0536 -0.891887V-0.770135H84.4053V-1.26904C84.7303 -1.0173 85.0452 -0.746334 85.3491 -0.457059C90.2155 4.17592 90.4041 11.8756 85.772 16.742Z"
            fill="#C0C70D" />
        <path
            d="M85.6819 16.656C81.0966 21.4721 73.4756 21.6598 68.6586 17.0744C63.8417 12.489 63.6549 4.86808 68.2403 0.0510974C68.8133 -0.551254 69.434 -1.08037 70.0904 -1.53809V-0.770957H84.3289V-1.171C84.6502 -0.922003 84.9624 -0.653783 85.2636 -0.367254C90.0797 4.21813 90.2673 11.8391 85.6819 16.656Z"
            fill="#C1C80C" />
        <path
            d="M85.5921 16.5709C81.0543 21.3376 73.5112 21.5225 68.7446 16.9847C63.9779 12.4469 63.793 4.90379 68.3308 0.137159C68.8984 -0.458784 69.5126 -0.983325 70.1617 -1.43555V-0.770945H84.2528V-1.07304C84.5714 -0.825871 84.8799 -0.561312 85.1774 -0.277529C89.9441 4.26025 90.129 11.8034 85.5912 16.57L85.5921 16.5709Z"
            fill="#C2C90B" />
        <path
            d="M85.5021 16.4849C81.012 21.2021 73.5476 21.3852 68.8303 16.895C64.1131 12.4048 63.9301 4.94042 68.4202 0.22322C68.9814 -0.366316 69.5892 -0.885363 70.2328 -1.33301V-0.77002H84.1766V-0.97416C84.4915 -0.729741 84.7972 -0.467929 85.092 -0.186893C89.8092 4.30328 89.9923 11.7677 85.5021 16.4849Z"
            fill="#C3CA0A" />
        <path
            d="M85.4127 16.3987C80.9692 21.0655 73.5844 21.2477 68.9166 16.8042C64.2498 12.3607 64.0676 4.97598 68.5111 0.30821C69.0668 -0.274918 69.6682 -0.788472 70.3044 -1.23154V-0.771079H83.1406V-1.54736C83.7978 -1.13634 84.424 -0.652989 85.0071 -0.097324C89.674 4.34616 89.8561 11.7309 85.4127 16.3987Z"
            fill="#C3CB09" />
        <path
            d="M85.3222 16.3138C80.9263 20.9312 73.6194 21.1107 69.0019 16.7148C64.3845 12.3189 64.2051 5.01194 68.601 0.394516C69.1502 -0.183119 69.7453 -0.690267 70.3751 -1.12876V-0.769909H83.0748V-1.44092C83.7248 -1.03447 84.3445 -0.555699 84.9212 -0.00644219C89.5387 4.38944 89.7181 11.6964 85.3222 16.3138Z"
            fill="#C4CC09" />
        <path
            d="M85.2321 16.2274C80.8838 20.7954 73.6556 20.973 69.0876 16.6238C64.5196 12.2755 64.342 5.04728 68.6912 0.479295C69.235 -0.0919322 69.8236 -0.593586 70.4461 -1.0275V-0.771179H83.0085V-1.33691C83.6521 -0.934126 84.2645 -0.461765 84.8357 0.0819995C89.4037 4.43028 89.5813 11.6585 85.2321 16.2265V16.2274Z"
            fill="#C5CD08" />
        <path
            d="M85.1434 16.1417C80.8418 20.6593 73.6932 20.8351 69.1746 16.5344C64.657 12.2328 64.4812 5.08422 68.7819 0.565663C69.3193 0.000843287 69.9015 -0.496234 70.5176 -0.924654V-0.769947H82.9436V-1.22949C83.5798 -0.831281 84.1858 -0.363497 84.7506 0.173859C89.2683 4.47546 89.444 11.624 85.1434 16.1426V16.1417Z"
            fill="#C6CD07" />
        <path
            d="M85.0523 16.0567C80.7983 20.5249 73.7275 20.6989 69.2593 16.4449C64.7911 12.1909 64.6172 5.12011 68.8712 0.651906C69.403 0.0934954 69.9788 -0.39809 70.5876 -0.821933V-0.769753H82.8772V-1.12402C83.5061 -0.730389 84.1057 -0.268099 84.6641 0.263765C89.1323 4.51776 89.3063 11.5885 85.0523 16.0567Z"
            fill="#C6CE07" />
        <path
            d="M84.9618 15.9707C80.7554 20.3894 73.7634 20.5606 69.3446 16.3542C64.9258 12.1478 64.7546 5.15579 68.961 0.737023C69.4865 0.18502 70.0559 -0.301074 70.6582 -0.72034C70.9594 -0.929973 71.2688 -1.12313 71.5856 -1.2998V-0.770687H82.8106V-1.01968C83.433 -0.630627 84.0253 -0.172914 84.5773 0.352542C88.9961 4.55893 89.1673 11.551 84.9609 15.9697L84.9618 15.9707Z"
            fill="#C7CF06" />
        <path
            d="M84.8725 15.8851C80.7137 20.2535 73.8004 20.4238 69.431 16.265C65.0626 12.1062 64.8923 5.19291 69.0511 0.823574C69.5711 0.277063 70.1341 -0.202622 70.73 -0.617311C71.0275 -0.824197 71.3342 -1.01552 71.6464 -1.18945V-0.769272H82.745V-0.912993C83.3602 -0.528514 83.946 -0.0762928 84.4926 0.44367C88.861 4.60246 89.0312 11.5158 84.8725 15.8851Z"
            fill="#C7D005" />
        <path
            d="M84.7814 15.7989C80.6693 20.1179 73.8347 20.2863 69.5157 16.1742C65.1967 12.0621 65.0283 5.22754 69.1404 0.908547C70.1684 -0.171658 71.3667 -0.991882 72.6529 -1.55029V-0.770348H82.6786V-0.807881C83.2865 -0.427063 83.8659 0.0196669 84.406 0.534137C88.725 4.64624 88.8935 11.4808 84.7814 15.7998V15.7989Z"
            fill="#C8D005" />
        <path
            d="M84.6929 15.7131C80.6284 19.9827 73.8725 20.1484 69.6029 16.0839C65.3334 12.0194 65.1677 5.2635 69.2322 0.993939C70.2483 -0.0734506 71.4329 -0.88452 72.7044 -1.43652V-0.770092H81.6921V-1.21774C82.0061 -1.06303 82.3137 -0.890929 82.6139 -0.703266C83.2154 -0.327025 83.7875 0.115127 84.3212 0.62319C88.5908 4.68769 88.7564 11.4436 84.6919 15.7131H84.6929Z"
            fill="#C9D104" />
        <path
            d="M84.6024 15.6285C80.5855 19.8477 73.9075 20.0124 69.6883 15.9946C65.4691 11.9777 65.3043 5.29968 69.3221 1.08047C70.3263 0.0258958 71.4971 -0.77602 72.754 -1.32161V-0.769612H80.6908V-1.5166C81.9733 -1.03326 83.1817 -0.289927 84.2362 0.714298C88.4555 4.7312 88.6202 11.4092 84.6024 15.6285Z"
            fill="#C9D104" />
        <path
            d="M84.5121 15.5419C80.5419 19.7117 73.9435 19.8737 69.7737 15.9044C65.6039 11.9342 65.4419 5.33582 69.4112 1.16604C70.4035 0.12337 71.5606 -0.668475 72.8028 -1.20766V-0.769172H80.6462V-1.3999C81.9132 -0.922049 83.1078 -0.187875 84.1505 0.804449C88.3203 4.77466 88.4823 11.3731 84.513 15.5428L84.5121 15.5419Z"
            fill="#C9D203" />
        <path
            d="M84.422 15.4558C80.4994 19.5761 73.9797 19.7363 69.8593 15.8137C65.739 11.8911 65.5788 5.37141 69.5014 1.25107C70.4818 0.221211 71.6252 -0.56148 72.8519 -1.09426V-0.770198H80.6019V-1.28467C81.8542 -0.812307 83.0342 -0.0872891 84.064 0.89405C88.1844 4.81666 88.3446 11.3363 84.422 15.4567V15.4558Z"
            fill="#CAD203" />
        <path
            d="M84.3325 15.3705C80.4575 19.4414 74.0156 19.5989 69.9456 15.7239C65.8747 11.8489 65.7172 5.407 69.5923 1.33701C70.5608 0.319053 71.6904 -0.453569 72.9024 -0.980856V-0.771222H80.5591V-1.16943C81.7958 -0.702565 82.9621 0.0142145 83.9791 0.982738C88.05 4.85775 88.2075 11.2996 84.3325 15.3696V15.3705Z"
            fill="#CAD303" />
        <path
            d="M84.2422 15.2845C80.4148 19.305 74.0516 19.4616 70.0311 15.6342C66.0105 11.8068 65.854 5.44363 69.6814 1.42307C70.638 0.417932 71.7539 -0.345536 72.9513 -0.866414V-0.770294H80.5136V-1.05225C81.7357 -0.591786 82.8873 0.116756 83.8925 1.07338C87.913 4.90078 88.0696 11.2639 84.2422 15.2845Z"
            fill="#CBD302" />
        <path
            d="M84.152 15.1995C80.3713 19.1706 74.0878 19.3253 70.1167 15.5446C66.1456 11.7639 65.9909 5.4804 69.7716 1.50927C70.7163 0.516949 71.8185 -0.237364 73.0012 -0.751834C73.5926 -1.00907 74.2041 -1.20589 74.8266 -1.34229V-0.770143H80.4702V-0.935835C81.6767 -0.480867 82.8137 0.218519 83.8069 1.16324C87.7781 4.94396 87.9328 11.2275 84.152 15.1986V15.1995Z"
            fill="#CBD402" />
        <path
            d="M84.0616 15.1138C80.3285 19.0355 74.1228 19.1875 70.202 15.4544C66.2803 11.7212 66.1283 5.51556 69.8615 1.59478C71.728 -0.366065 74.2125 -1.38402 76.7208 -1.44627C79.229 -1.5076 81.7602 -0.612315 83.721 1.25424C87.6427 4.98736 87.7947 11.193 84.0616 15.1138Z"
            fill="#CBD402" />
        <path
            d="M83.9721 15.0277C80.2866 18.899 74.1596 19.0501 70.2883 15.3636C66.4169 11.6781 66.2659 5.55117 69.9523 1.67982C71.7951 -0.256311 74.2484 -1.26145 76.7247 -1.32278C79.2009 -1.3832 81.7009 -0.499814 83.6362 1.34294C87.5075 5.02846 87.6585 11.1554 83.9721 15.0268V15.0277Z"
            fill="#CCD401" />
        <path
            d="M83.8827 14.9422C80.2439 18.7641 74.1966 18.9124 70.3747 15.2745C66.5528 11.6366 66.4045 5.58838 70.0424 1.76647C71.8613 -0.144029 74.2836 -1.13727 76.7278 -1.19677C79.172 -1.25719 81.6399 -0.384788 83.5504 1.43508C87.3724 5.07391 87.5207 11.1212 83.8827 14.9431V14.9422Z"
            fill="#CCD501" />
        <path
            d="M83.7923 14.856C80.2011 18.6285 74.2316 18.7749 70.46 15.1837C66.6884 11.5925 66.5411 5.62299 70.1323 1.85142C71.9274 -0.0343608 74.3176 -1.01478 76.7307 -1.07337C79.1438 -1.13196 81.5788 -0.271457 83.4646 1.5237C87.2371 5.11492 87.3835 11.0844 83.7923 14.856Z"
            fill="#CCD501" />
        <path
            d="M83.7018 14.7704C80.1582 18.4925 74.2674 18.6372 70.5453 15.0936C66.8232 11.5499 66.6785 5.65916 70.2222 1.93703C71.9944 0.0759654 74.3526 -0.890727 76.7336 -0.949314C79.1146 -1.0079 81.5176 -0.158384 83.3787 1.61388C87.1008 5.15751 87.2455 11.0483 83.7018 14.7704Z"
            fill="#CCD501" />
        <path
            d="M83.6118 14.6848C80.1149 18.3575 74.3038 18.5003 70.6311 15.0043C66.9584 11.5074 66.8156 5.69623 70.3116 2.02353C72.0601 0.187183 74.3871 -0.766693 76.7361 -0.824365C79.0851 -0.882037 81.456 -0.0435061 83.2924 1.70496C86.9651 5.2019 87.1079 11.013 83.6118 14.6857V14.6848Z"
            fill="#CCD501" />
        <path
            d="M83.5208 14.5992C80.0714 18.2224 74.3381 18.3634 70.7158 14.9141C67.0925 11.4647 66.9515 5.73141 70.4008 2.10906C72.1255 0.297426 74.4214 -0.643634 76.7384 -0.700391C79.0553 -0.757147 81.3942 0.0694846 83.2059 1.79415C86.8291 5.24348 86.9701 10.9768 83.5208 14.5992Z"
            fill="#CDD500" />
        <path
            d="M76.962 17.2869C81.8955 17.2869 85.8948 13.2876 85.8948 8.35413C85.8948 3.42071 81.8955 -0.578613 76.962 -0.578613C72.0286 -0.578613 68.0293 3.42071 68.0293 8.35413C68.0293 13.2876 72.0286 17.2869 76.962 17.2869Z"
            fill="#CDD600" />
        <path
            d="M76.9615 17.1633C81.8267 17.1633 85.7707 13.2193 85.7707 8.35409C85.7707 3.48892 81.8267 -0.455078 76.9615 -0.455078C72.0963 -0.455078 68.1523 3.48892 68.1523 8.35409C68.1523 13.2193 72.0963 17.1633 76.9615 17.1633Z"
            fill="#CDD600" />
        <path
            d="M76.961 17.0388C81.7574 17.0388 85.6457 13.1505 85.6457 8.3541C85.6457 3.55769 81.7574 -0.330566 76.961 -0.330566C72.1646 -0.330566 68.2764 3.55769 68.2764 8.3541C68.2764 13.1505 72.1646 17.0388 76.961 17.0388Z"
            fill="#CDD600" />
        <path
            d="M76.9606 16.9143C81.6882 16.9143 85.5207 13.0818 85.5207 8.35411C85.5207 3.62646 81.6882 -0.206055 76.9606 -0.206055C72.2329 -0.206055 68.4004 3.62646 68.4004 8.35411C68.4004 13.0818 72.2329 16.9143 76.9606 16.9143Z"
            fill="#CDD600" />
        <path
            d="M76.962 16.7898C81.6209 16.7898 85.3977 13.013 85.3977 8.35413C85.3977 3.69523 81.6209 -0.081543 76.962 -0.081543C72.3031 -0.081543 68.5264 3.69523 68.5264 8.35413C68.5264 13.013 72.3031 16.7898 76.962 16.7898Z"
            fill="#CDD600" />
        <path
            d="M76.9616 16.6653C81.5517 16.6653 85.2727 12.9443 85.2727 8.35414C85.2727 3.76401 81.5517 0.0429688 76.9616 0.0429688C72.3714 0.0429688 68.6504 3.76401 68.6504 8.35414C68.6504 12.9443 72.3714 16.6653 76.9616 16.6653Z"
            fill="#CDD600" />
        <path
            d="M76.961 16.5412C81.4829 16.5412 85.1486 12.8755 85.1486 8.35361C85.1486 3.83172 81.4829 0.166016 76.961 0.166016C72.4391 0.166016 68.7734 3.83172 68.7734 8.35361C68.7734 12.8755 72.4391 16.5412 76.961 16.5412Z"
            fill="#CDD600" />
        <path
            d="M76.9615 16.4172C81.4146 16.4172 85.0246 12.8072 85.0246 8.35411C85.0246 3.90098 81.4146 0.291016 76.9615 0.291016C72.5084 0.291016 68.8984 3.90098 68.8984 8.35411C68.8984 12.8072 72.5084 16.4172 76.9615 16.4172Z"
            fill="#CDD600" />
        <path
            d="M76.9611 16.2922C81.3454 16.2922 84.8996 12.738 84.8996 8.35363C84.8996 3.96927 81.3454 0.415039 76.9611 0.415039C72.5767 0.415039 69.0225 3.96927 69.0225 8.35363C69.0225 12.738 72.5767 16.2922 76.9611 16.2922Z"
            fill="#CDD600" />
        <path
            d="M76.9615 12.3234C79.1537 12.3234 80.9308 10.5462 80.9308 8.35406C80.9308 6.16188 79.1537 4.38477 76.9615 4.38477C74.7693 4.38477 72.9922 6.16188 72.9922 8.35406C72.9922 10.5462 74.7693 12.3234 76.9615 12.3234Z"
            fill="#CDD600" />
    </g>
</svg>
    