<svg width="37" height="32" viewBox="0 0 37 32" fill="none" xmlns="http://www.w3.org/2000/svg">
    <g style="mix-blend-mode:luminosity" opacity="0.5" clip-path="url(#clip0_481_940)">
        <path
            d="M14.9956 30.9956C12.6185 30.9956 10.6848 29.062 10.6848 26.6848C10.6848 24.3077 12.6185 22.374 14.9956 22.374C17.3727 22.374 19.3064 24.3077 19.3064 26.6848C19.3064 29.062 17.3727 30.9956 14.9956 30.9956ZM14.9956 23.3756C13.1711 23.3756 11.6864 24.8603 11.6864 26.6848C11.6864 28.5093 13.1711 29.994 14.9956 29.994C16.8201 29.994 18.3048 28.5093 18.3048 26.6848C18.3048 24.8603 16.8201 23.3756 14.9956 23.3756Z"
            fill="#1E3E81" />
        <path
            d="M14.9955 31.0795C12.5727 31.0795 10.6008 29.1083 10.6008 26.6847C10.6008 24.2612 12.572 22.29 14.9955 22.29C17.4191 22.29 19.3903 24.2612 19.3903 26.6847C19.3903 29.1083 17.4191 31.0795 14.9955 31.0795ZM14.9955 22.4579C12.6648 22.4579 10.768 24.354 10.768 26.6854C10.768 29.0169 12.6641 30.913 14.9955 30.913C17.327 30.913 19.2231 29.0169 19.2231 26.6854C19.2231 24.354 17.327 22.4579 14.9955 22.4579ZM14.9955 30.0778C13.1247 30.0778 11.6025 28.5556 11.6025 26.6847C11.6025 24.8139 13.1247 23.2917 14.9955 23.2917C16.8664 23.2917 18.3886 24.8139 18.3886 26.6847C18.3886 28.5556 16.8664 30.0778 14.9955 30.0778ZM14.9955 23.4595C13.2168 23.4595 11.7696 24.9067 11.7696 26.6854C11.7696 28.4642 13.2168 29.9107 14.9955 29.9107C16.7743 29.9107 18.2208 28.4635 18.2208 26.6854C18.2208 24.9074 16.7736 23.4595 14.9955 23.4595Z"
            fill="#1E3E81" />
        <path
            d="M18.8056 26.9728C18.5293 26.9728 18.3048 26.7483 18.3048 26.4719V22.8319C18.3048 22.5555 18.5293 22.3311 18.8056 22.3311C19.082 22.3311 19.3064 22.5555 19.3064 22.8319V26.4719C19.3064 26.7483 19.082 26.9728 18.8056 26.9728Z"
            fill="#1E3E81" />
        <path
            d="M18.8056 27.0559C18.4835 27.0559 18.2208 26.7939 18.2208 26.4712V22.8311C18.2208 22.509 18.4828 22.2463 18.8056 22.2463C19.1283 22.2463 19.3903 22.5083 19.3903 22.8311V26.4712C19.3903 26.7932 19.1283 27.0559 18.8056 27.0559ZM18.8056 22.4142C18.5756 22.4142 18.388 22.6011 18.388 22.8318V26.4718C18.388 26.7018 18.5749 26.8894 18.8056 26.8894C19.0362 26.8894 19.2231 26.7025 19.2231 26.4718V22.8318C19.2231 22.6018 19.0362 22.4142 18.8056 22.4142Z"
            fill="#1E3E81" />
        <path
            d="M5.59204 30.9956C3.2149 30.9956 1.28125 29.062 1.28125 26.6848C1.28125 24.3077 3.2149 22.374 5.59204 22.374C7.96918 22.374 9.90283 24.3077 9.90283 26.6848C9.90283 29.062 7.96918 30.9956 5.59204 30.9956ZM5.59204 23.3756C3.76756 23.3756 2.28287 24.8603 2.28287 26.6848C2.28287 28.5093 3.76756 29.994 5.59204 29.994C7.41652 29.994 8.90121 28.5093 8.90121 26.6848C8.90121 24.8603 7.41652 23.3756 5.59204 23.3756Z"
            fill="#1E3E81" />
        <path
            d="M5.5921 31.0795C3.16924 31.0795 1.19739 29.1083 1.19739 26.6847C1.19739 24.2612 3.16856 22.29 5.5921 22.29C8.01564 22.29 9.98681 24.2612 9.98681 26.6847C9.98681 29.1083 8.01564 31.0795 5.5921 31.0795ZM5.5921 22.4579C3.26135 22.4579 1.36455 24.354 1.36455 26.6854C1.36455 29.0169 3.26067 30.913 5.5921 30.913C7.92353 30.913 9.81965 29.0169 9.81965 26.6854C9.81965 24.354 7.92353 22.4579 5.5921 22.4579ZM5.5921 30.0778C3.72123 30.0778 2.19901 28.5556 2.19901 26.6847C2.19901 24.8139 3.72123 23.2917 5.5921 23.2917C7.46297 23.2917 8.98519 24.8139 8.98519 26.6847C8.98519 28.5556 7.46297 30.0778 5.5921 30.0778ZM5.5921 23.4595C3.81334 23.4595 2.36685 24.9067 2.36685 26.6854C2.36685 28.4642 3.81402 29.9107 5.5921 29.9107C7.37018 29.9107 8.81803 28.4635 8.81803 26.6854C8.81803 24.9074 7.37086 23.4595 5.5921 23.4595Z"
            fill="#1E3E81" />
        <path
            d="M1.78206 27.2484C1.50573 27.2484 1.28125 27.024 1.28125 26.7476V20.7318C1.28125 20.4554 1.50573 20.231 1.78206 20.231C2.05839 20.231 2.28287 20.4554 2.28287 20.7318V26.7476C2.28287 27.024 2.05839 27.2484 1.78206 27.2484Z"
            fill="#1E3E81" />
        <path
            d="M1.78212 27.3316C1.46007 27.3316 1.19739 27.0696 1.19739 26.7468V20.731C1.19739 20.4089 1.45939 20.1462 1.78212 20.1462C2.10485 20.1462 2.36685 20.4082 2.36685 20.731V26.7468C2.36685 27.0689 2.10485 27.3316 1.78212 27.3316ZM1.78212 20.3141C1.55218 20.3141 1.36455 20.501 1.36455 20.7317V26.7475C1.36455 26.9775 1.5515 27.1651 1.78212 27.1651C2.01274 27.1651 2.19969 26.9781 2.19969 26.7475V20.7317C2.19969 20.5017 2.01274 20.3141 1.78212 20.3141Z"
            fill="#1E3E81" />
        <path
            d="M31.0514 26.706H25.7049C25.4286 26.706 25.2041 26.4815 25.2041 26.2052C25.2041 25.9288 25.4286 25.7043 25.7049 25.7043H31.0514C31.3278 25.7043 31.5522 25.9288 31.5522 26.2052C31.5522 26.4815 31.3278 26.706 31.0514 26.706Z"
            fill="#1E3E81" />
        <path
            d="M31.0515 26.7898H25.705C25.3829 26.7898 25.1202 26.5278 25.1202 26.2051C25.1202 25.8824 25.3822 25.6204 25.705 25.6204H31.0515C31.3735 25.6204 31.6362 25.8824 31.6362 26.2051C31.6362 26.5278 31.3742 26.7898 31.0515 26.7898ZM25.705 25.7882C25.475 25.7882 25.2874 25.9752 25.2874 26.2058C25.2874 26.4364 25.4744 26.6233 25.705 26.6233H31.0515C31.2814 26.6233 31.4691 26.4364 31.4691 26.2058C31.4691 25.9752 31.2821 25.7882 31.0515 25.7882H25.705Z"
            fill="#1E3E81" />
        <path
            d="M27.2579 31.0202C24.8644 31.0202 22.9198 29.0756 22.9198 26.6855C22.9198 24.2954 24.8644 22.3508 27.2545 22.3508C28.1674 22.3508 29.0407 22.6313 29.7797 23.1621C30.7444 23.8546 31.3899 24.9238 31.5496 26.0953C31.5871 26.3696 31.3947 26.622 31.1211 26.6589C30.8475 26.6957 30.5943 26.504 30.5575 26.2304C30.4347 25.3304 29.9386 24.5083 29.1963 23.9754C28.6279 23.5674 27.9572 23.3525 27.2552 23.3525C25.417 23.3525 23.9221 24.8474 23.9221 26.6855C23.9221 28.5236 25.4177 30.0186 27.2552 30.0186L31.2043 29.9885C31.2043 29.9885 31.2064 29.9885 31.2077 29.9885C31.4827 29.9885 31.7065 30.2103 31.7085 30.4859C31.7106 30.7623 31.4875 30.9881 31.2111 30.9901L27.2586 31.0202H27.2579Z"
            fill="#1E3E81" />
        <path
            d="M27.2579 31.104C26.0782 31.104 24.9681 30.6442 24.1323 29.8083C23.2965 28.9732 22.8359 27.8638 22.8359 26.6854C22.8359 24.2489 24.818 22.2668 27.2545 22.2668C28.1852 22.2668 29.0749 22.5527 29.8289 23.0938C30.8127 23.8 31.4698 24.8896 31.6329 26.0836C31.654 26.2385 31.6138 26.392 31.5189 26.5162C31.4248 26.6404 31.2869 26.7202 31.1327 26.7414C30.8134 26.7851 30.518 26.5599 30.475 26.2413C30.3556 25.3638 29.8718 24.5621 29.1479 24.0429C28.5939 23.6458 27.9396 23.4356 27.2552 23.4356C25.4635 23.4356 24.0054 24.8937 24.0054 26.6854C24.0054 28.4772 25.4635 29.9352 27.2552 29.9352L31.2037 29.9052C31.5278 29.9052 31.7898 30.1659 31.7918 30.4859C31.7932 30.6421 31.7332 30.7895 31.6233 30.9007C31.5135 31.0119 31.3674 31.0733 31.2112 31.0747L27.2586 31.1047L27.2579 31.104ZM27.2538 22.434C24.9095 22.434 23.0024 24.341 23.0024 26.6854C23.0024 27.8194 23.4452 28.8865 24.2497 29.6903C25.0541 30.4941 26.1219 30.9369 27.2573 30.9369L31.2098 30.9068C31.3211 30.9062 31.4261 30.8618 31.5039 30.7827C31.5817 30.7035 31.6247 30.5984 31.624 30.4865C31.6226 30.258 31.435 30.0724 31.2071 30.0724L27.2552 30.1024C25.3707 30.1024 23.8376 28.57 23.8376 26.6854C23.8376 24.8009 25.3707 23.2685 27.2545 23.2685C27.9744 23.2685 28.6621 23.4895 29.2448 23.9071C30.0056 24.4536 30.5146 25.2956 30.6401 26.2187C30.6715 26.4466 30.8823 26.6063 31.1102 26.5756C31.2208 26.5606 31.3183 26.5033 31.3859 26.4146C31.4534 26.3259 31.4821 26.216 31.4671 26.1055C31.3101 24.9565 30.6776 23.9078 29.7313 23.2289C29.006 22.7083 28.1497 22.4333 27.2545 22.4333L27.2538 22.434Z"
            fill="#1E3E81" />
        <path
            d="M36.2931 26.7052H32.7519C32.4653 26.7052 32.2327 26.4732 32.2327 26.186C32.2327 25.8987 32.4653 25.6667 32.7519 25.6667H36.2931C36.5796 25.6667 36.8123 25.8987 36.8123 26.186C36.8123 26.4732 36.5796 26.7052 36.2931 26.7052Z"
            fill="#1E3E81" />
        <path
            d="M36.293 26.7892H32.7519C32.4196 26.7892 32.1494 26.519 32.1494 26.1867C32.1494 25.8544 32.4196 25.5842 32.7519 25.5842H36.293C36.6253 25.5842 36.8955 25.8544 36.8955 26.1867C36.8955 26.519 36.6253 26.7892 36.293 26.7892ZM32.7519 25.7514C32.5117 25.7514 32.3166 25.9465 32.3166 26.1867C32.3166 26.4269 32.5117 26.622 32.7519 26.622H36.293C36.5332 26.622 36.7284 26.4269 36.7284 26.1867C36.7284 25.9465 36.5332 25.7514 36.293 25.7514H32.7519Z"
            fill="#1E3E81" />
        <path
            d="M35.4332 31.1172H35.2135C34.2085 31.1172 33.3911 30.2998 33.3911 29.2948V22.7358C33.3911 22.4492 33.6238 22.2166 33.9103 22.2166C34.1969 22.2166 34.4296 22.4485 34.4296 22.7358V29.2859C34.4296 29.728 34.7816 30.0794 35.2142 30.0794H35.4339C35.7205 30.0794 35.9532 30.3114 35.9532 30.5986C35.9532 30.8859 35.7205 31.1179 35.4339 31.1179L35.4332 31.1172Z"
            fill="#1E3E81" />
        <path
            d="M35.4333 31.2004H35.2136C34.1622 31.2004 33.3073 30.3454 33.3073 29.294V22.735C33.3073 22.4028 33.5774 22.1326 33.9097 22.1326C34.242 22.1326 34.5122 22.4028 34.5122 22.735V29.2852C34.5122 29.6768 34.8267 29.9954 35.2136 29.9954H35.4333C35.7656 29.9954 36.0358 30.2656 36.0358 30.5979C36.0358 30.9302 35.7656 31.2004 35.4333 31.2004ZM33.9104 22.2997C33.6702 22.2997 33.4751 22.4949 33.4751 22.735V29.294C33.4751 30.2527 34.255 31.0332 35.2143 31.0332H35.434C35.6742 31.0332 35.8693 30.8381 35.8693 30.5979C35.8693 30.3577 35.6742 30.1626 35.434 30.1626H35.2143C34.7353 30.1626 34.3457 29.7689 34.3457 29.2852V22.735C34.3457 22.4949 34.1506 22.2997 33.9104 22.2997Z"
            fill="#1E3E81" />
        <path
            d="M21.1861 21.6398C21.5856 21.6398 21.9094 21.316 21.9094 20.9166C21.9094 20.5172 21.5856 20.1934 21.1861 20.1934C20.7867 20.1934 20.4629 20.5172 20.4629 20.9166C20.4629 21.316 20.7867 21.6398 21.1861 21.6398Z"
            fill="#1E3E81" />
        <path
            d="M21.1861 21.7231C20.7413 21.7231 20.3796 21.3615 20.3796 20.9166C20.3796 20.4717 20.7413 20.1101 21.1861 20.1101C21.631 20.1101 21.9926 20.4717 21.9926 20.9166C21.9926 21.3615 21.631 21.7231 21.1861 21.7231ZM21.1861 20.2773C20.8334 20.2773 20.5468 20.5638 20.5468 20.9166C20.5468 21.2693 20.8334 21.5559 21.1861 21.5559C21.5389 21.5559 21.8254 21.2693 21.8254 20.9166C21.8254 20.5638 21.5389 20.2773 21.1861 20.2773Z"
            fill="#1E3E81" />
        <path
            d="M19.6543 31.0209C19.5165 31.0209 19.3794 30.9643 19.2804 30.8531C19.0962 30.6463 19.1747 30.3059 19.365 30.106C20.7378 28.6636 20.7023 26.5812 20.6894 26.1602C20.686 26.0558 20.688 25.9364 20.6894 25.8204C20.6901 25.7597 20.6914 25.7003 20.6914 25.6485V22.8128C20.6914 22.5365 20.9159 22.312 21.1922 22.312C21.4686 22.312 21.693 22.5365 21.693 22.8128V25.6485C21.693 25.7051 21.6924 25.7699 21.691 25.8361C21.6896 25.9405 21.6876 26.0476 21.6903 26.1288C21.7128 26.8698 21.6937 29.3752 19.9866 30.935C19.8924 31.0216 19.7724 31.0196 19.6536 31.0196L19.6543 31.0209Z"
            fill="#1E3E81" />
        <path
            d="M19.6673 31.1042H19.6612L19.655 31.0202V31.1042C19.4886 31.1042 19.3296 31.0332 19.2184 30.9083C18.9993 30.6627 19.0928 30.2704 19.305 30.048C20.5461 28.7441 20.6287 26.8964 20.6069 26.1629C20.6034 26.0537 20.6055 25.9296 20.6069 25.8197C20.6082 25.7549 20.6089 25.699 20.6089 25.6491V22.8135C20.6089 22.4914 20.8709 22.2288 21.1936 22.2288C21.5164 22.2288 21.7784 22.4908 21.7784 22.8135V25.6491C21.7784 25.7065 21.7777 25.7713 21.7763 25.8381C21.775 25.9412 21.7729 26.0476 21.7756 26.1268C21.805 27.0888 21.6958 29.4891 20.0453 30.9977C19.9307 31.1028 19.7915 31.1042 19.668 31.1042H19.6673ZM21.1936 22.3959C20.9637 22.3959 20.7761 22.5829 20.7761 22.8135V25.6491C20.7761 25.6996 20.7754 25.7569 20.774 25.8163C20.772 25.9303 20.7699 26.0531 20.7733 26.1581C20.7958 26.9128 20.7099 28.8143 19.4258 30.1639C19.2641 30.3338 19.1924 30.6293 19.3425 30.7978C19.4217 30.8865 19.535 30.9377 19.6544 30.9377H19.6605C19.7683 30.9377 19.8625 30.9377 19.9314 30.8749C21.5307 29.4127 21.6364 27.0717 21.6078 26.1329C21.6051 26.0497 21.6071 25.9412 21.6085 25.8361C21.6098 25.7699 21.6105 25.7058 21.6105 25.6498V22.8142C21.6105 22.5842 21.4236 22.3966 21.193 22.3966L21.1936 22.3959Z"
            fill="#1E3E81" />
        <path
            d="M19.8058 29.6194C19.7812 29.6167 19.0928 30.5541 18.4241 30.9478C18.3497 30.9915 18.1089 31.1539 18.0604 31.2249C17.9915 31.3265 17.9656 31.5264 18.0604 31.6943C18.2303 31.9931 18.6349 31.8874 18.6349 31.8874C18.6349 31.8874 19.3759 31.5912 20.2343 30.692"
            fill="#1E3E81" />
        <path
            d="M18.4699 31.9896C18.317 31.9896 18.1076 31.9459 17.9881 31.7358C17.8763 31.5379 17.9049 31.3052 17.9916 31.1777C18.0584 31.0794 18.3416 30.8993 18.3818 30.8754C18.8915 30.5752 19.4142 29.9502 19.6373 29.6834C19.7587 29.5388 19.7662 29.5299 19.816 29.536L19.7963 29.7018L19.8058 29.6186L19.8563 29.6841C19.8461 29.6936 19.8051 29.7428 19.7655 29.7899C19.537 30.0635 19.0014 30.7035 18.4671 31.0187C18.3736 31.0739 18.1635 31.222 18.1301 31.2705C18.0823 31.3414 18.0516 31.5065 18.1342 31.6519C18.2618 31.8763 18.5681 31.8156 18.6104 31.8061C18.6766 31.7781 19.378 31.4683 20.1749 30.6325L20.2957 30.7478C19.4353 31.6505 18.6984 31.9507 18.667 31.9637L18.6575 31.9671C18.65 31.9691 18.5729 31.9882 18.4705 31.9882L18.4699 31.9896Z"
            fill="#1E3E81" />
        <mask id="mask0_481_940" style="mask-type:luminance" maskUnits="userSpaceOnUse" x="18" y="0"
            width="19" height="18">
            <path
                d="M30.5296 1.40552L18.605 13.8193C22.8189 19.5909 29.7292 18.6425 33.8183 14.5944C37.0981 11.3474 37.4072 5.92305 35.7335 2.00526C34.9686 0.214902 33.4526 -0.695973 31.4391 0.637247C31.1075 0.856948 30.8052 1.11827 30.5296 1.40484V1.40552Z"
                fill="white" />
        </mask>
        <g mask="url(#mask0_481_940)">
            <path d="M37.4072 -0.695312H18.605V19.5909H37.4072V-0.695312Z" fill="#002D5D" />
            <path
                d="M36.4376 15.553C35.0027 17.0602 33.4764 18.3436 31.944 19.3746C31.5612 19.6325 31.1777 19.874 30.795 20.0999V19.6748H19.3978V19.7164C19.1644 19.217 19.0102 18.6616 18.9318 18.0605C18.7748 16.8583 18.9209 15.4732 19.3446 13.994C20.192 11.0355 22.1509 7.69835 25.0206 4.68394C26.4555 3.17673 27.9818 1.89332 29.5143 0.86236C30.2805 0.347221 31.0481 -0.105146 31.8055 -0.490647C32.1841 -0.683056 32.5615 -0.85909 32.934 -1.01807V-0.778579H37.4897V13.8282H37.9537C37.7961 14.0226 37.6351 14.2164 37.4699 14.4088C37.1404 14.7943 36.7958 15.1764 36.4369 15.553H36.4376Z"
                fill="#002D5D" />
            <path
                d="M36.4076 15.5708C34.9789 17.0712 33.4587 18.3498 31.9331 19.376C31.5516 19.6326 31.1702 19.8734 30.7895 20.0979V19.6749H19.4408V19.7165C19.2088 19.2198 19.0553 18.6664 18.9768 18.0674C18.8206 16.8699 18.9659 15.491 19.3876 14.0179C20.2316 11.0717 22.1823 7.74889 25.0391 4.74744C27.8966 1.74599 31.1198 -0.365053 34.0202 -1.35303V-0.77921H37.4897V13.8528H37.9169C37.7599 14.0465 37.5996 14.239 37.4351 14.4314C37.107 14.8155 36.7638 15.1955 36.4062 15.5708H36.4076Z"
                fill="#012E5F" />
            <path
                d="M36.377 15.5886C34.9544 17.0828 33.441 18.3553 31.9215 19.3774C31.5415 19.6326 31.1614 19.8728 30.7828 20.0965V19.6749H19.4832V19.7165C19.2518 19.2218 19.099 18.6705 19.0212 18.0742C18.8657 16.8822 19.0103 15.5087 19.4299 14.0425C20.2705 11.1093 22.2124 7.80009 25.0576 4.8116C27.9028 1.82312 31.1116 -0.279059 34.0005 -1.26294V-0.779869H37.4905V13.8774H37.8808C37.7245 14.0705 37.5649 14.2622 37.4011 14.4532C37.0743 14.8353 36.7324 15.214 36.377 15.5872V15.5886Z"
                fill="#012F60" />
            <path
                d="M36.3469 15.6057C34.9305 17.0938 33.4233 18.3608 31.9113 19.3782C31.5333 19.6327 31.1546 19.8715 30.7773 20.0939V19.6743H19.5261V19.7159C19.2962 19.2233 19.1434 18.6747 19.0663 18.0811C18.9114 16.8939 19.0553 15.5272 19.4736 14.0664C20.3101 11.1455 22.2444 7.85134 25.0767 4.87581C27.9096 1.90029 31.1048 -0.193015 33.9814 -1.17212V-0.779113H37.4912V13.9027H37.8453C37.6897 14.0944 37.5307 14.2855 37.3677 14.4758C37.0422 14.8565 36.7017 15.2332 36.3476 15.605L36.3469 15.6057Z"
                fill="#023061" />
            <path
                d="M36.3169 15.6235C34.9065 17.1047 33.4062 18.3663 31.9003 19.3795C31.5237 19.6327 31.1471 19.8708 30.7711 20.0926V19.6743H19.5684V19.7159C19.3391 19.2253 19.1877 18.6788 19.1106 18.0879C18.9564 16.9062 19.0996 15.545 19.5158 14.091C20.3489 11.183 22.2744 7.90253 25.095 4.93997C27.9157 1.97741 31.0972 -0.107021 33.9609 -1.08203V-0.779089H37.4904V13.9279H37.8077C37.6528 14.119 37.4945 14.3094 37.3321 14.499C37.008 14.8777 36.6696 15.253 36.3169 15.6235Z"
                fill="#033163" />
            <path
                d="M36.2862 15.641C34.882 17.1162 33.3878 18.3723 31.8888 19.3814C31.5142 19.6339 31.1389 19.8706 30.7643 20.091V19.6748H19.6107V19.7164C19.3829 19.2279 19.2314 18.6841 19.155 18.096C19.0014 16.919 19.144 15.5639 19.5589 14.1161C20.3886 11.2204 22.3052 7.9549 25.1135 5.00462C27.9219 2.05503 31.0898 -0.0205383 33.9411 -0.991455V-0.779259H37.4912V13.953H37.7716C37.6174 14.1434 37.4598 14.3331 37.2981 14.5214C36.9753 14.8987 36.6383 15.2726 36.2869 15.641H36.2862Z"
                fill="#033264" />
            <path
                d="M36.2561 15.6589C34.8581 17.1272 33.3706 18.3778 31.8778 19.3829C31.5045 19.6339 31.1313 19.87 30.7581 20.0897V19.6749H19.6529V19.7165C19.4257 19.23 19.2756 18.689 19.1985 18.1029C19.0457 16.9314 19.1876 15.5818 19.6004 14.14C20.426 11.2573 22.3351 8.00546 25.1312 5.06883C27.9272 2.1322 31.0808 0.065506 33.9199 -0.900635V-0.778503H37.4897V13.979H37.7333C37.5798 14.1687 37.4228 14.357 37.2618 14.5447C36.9405 14.9206 36.6048 15.2925 36.2554 15.6595L36.2561 15.6589Z"
                fill="#043366" />
            <path
                d="M36.2262 15.6766C34.8343 17.1388 33.353 18.384 31.867 19.3843C31.4951 19.634 31.1232 19.8687 30.7528 20.0877V19.6749H19.696V19.7165C19.4695 19.2321 19.3201 18.6931 19.2437 18.1097C19.0915 16.943 19.2328 15.5995 19.6442 14.1646C20.4664 11.2942 22.3666 8.05666 25.1504 5.13299C27.9342 2.20864 31.0741 0.1515 33.9009 -0.810547V-0.778479H37.4905V14.0036H37.6972C37.5444 14.1919 37.3882 14.3802 37.2278 14.5672C36.9078 14.9411 36.5735 15.3116 36.2255 15.6773L36.2262 15.6766Z"
                fill="#053467" />
            <path
                d="M36.1954 15.6942C34.8097 17.1495 33.3352 18.39 31.8553 19.3855C31.4855 19.6345 31.115 19.8678 30.7459 20.0862V19.6747H19.7383V19.7157C19.5131 19.2333 19.3644 18.697 19.288 18.1164C19.1365 16.9551 19.2771 15.6178 19.6864 14.1884C20.5052 11.3309 22.3972 8.10767 25.1687 5.19629C27.9403 2.2849 31.0666 0.236626 33.8804 -0.721327C34.5838 -0.960816 35.2682 -1.13207 35.9218 -1.23169V-0.779322H37.4904V14.028H37.6603C37.5082 14.2156 37.3526 14.4026 37.193 14.5889C36.8743 14.9614 36.5414 15.3298 36.1954 15.6942Z"
                fill="#053569" />
            <path
                d="M36.1654 15.712C34.7858 17.1612 33.3181 18.3955 31.8443 19.3869C31.4759 19.6346 31.1075 19.8672 30.7397 20.0842V19.6748H19.7805V19.7158C19.5561 19.2361 19.408 18.7012 19.3323 18.1233C19.1815 16.9668 19.3214 15.6356 19.7287 14.213C20.5434 11.3678 22.4272 8.15891 25.1864 5.26049C27.9457 2.36207 31.0583 0.323346 33.8599 -0.630513C35.2606 -1.10744 36.5836 -1.31282 37.7463 -1.21866L37.4897 -0.779255V13.4904H38.0669C37.4897 14.243 36.8545 14.9874 36.1647 15.712H36.1654Z"
                fill="#06366A" />
            <path
                d="M36.1347 15.7298C34.7612 17.1728 33.2997 18.4017 31.8328 19.3883C31.4664 19.6353 31.0993 19.8666 30.7329 20.0829V19.6749H19.8222V19.7158C19.5991 19.2382 19.451 18.706 19.376 18.1301C19.2258 16.9791 19.365 15.6534 19.771 14.2369C20.5823 11.4047 22.4579 8.21012 25.2049 5.32466C27.9518 2.4392 31.0508 0.409351 33.8394 -0.540415C35.234 -1.0153 36.5509 -1.21999 37.7081 -1.12583L37.489 -0.77922V13.5178H38.0274C37.4529 14.2676 36.8204 15.0079 36.1333 15.7291L36.1347 15.7298Z"
                fill="#07376C" />
            <path
                d="M36.1047 15.7476C34.7374 17.1838 33.2827 18.4072 31.8226 19.3897C31.4575 19.6353 31.0925 19.866 30.7275 20.0809V19.6749H19.8659V19.7159C19.6435 19.2403 19.4968 18.7108 19.4217 18.1377C19.2723 16.9914 19.4108 15.6719 19.8147 14.2622C20.6226 11.4423 22.4893 8.26204 25.224 5.38955C27.9587 2.51705 31.0434 0.496071 33.8204 -0.448918C35.2088 -0.921754 36.5202 -1.12508 37.672 -1.03229L37.4905 -0.778471V13.5465H37.9899C37.4175 14.2929 36.7884 15.0298 36.1047 15.7483V15.7476Z"
                fill="#07386D" />
            <path
                d="M36.0747 15.7653C34.7135 17.1954 33.2649 18.4133 31.8116 19.3911C31.448 19.6353 31.0843 19.8653 30.722 20.0795V19.6749H19.9089V19.7158C19.6878 19.2423 19.5411 18.7149 19.4667 18.1445C19.318 17.0037 19.4558 15.6896 19.8584 14.2861C20.6621 11.4791 22.5207 8.31252 25.2438 5.45299C27.9662 2.59345 31.0372 0.581342 33.8012 -0.359553C35.1836 -0.830342 36.4888 -1.03299 37.6358 -0.940192L37.4911 -0.779169V13.5731H37.9524C37.3826 14.3161 36.7563 15.0503 36.0754 15.7646L36.0747 15.7653Z"
                fill="#08396E" />
            <path
                d="M36.044 15.7831C34.6889 17.2063 33.2472 18.4188 31.8001 19.3924C31.4384 19.636 31.0761 19.8646 30.7152 20.0775V19.6749H19.9505V19.7158C19.7301 19.2444 19.5848 18.7197 19.5104 18.1513C19.3624 17.0153 19.4995 15.7073 19.9 14.3106C20.7004 11.5159 22.5508 8.36438 25.2609 5.51713C27.971 2.67056 31.0284 0.667319 33.7801 -0.269483C35.1563 -0.737543 36.4554 -0.939504 37.5976 -0.847393L37.4905 -0.779163V13.601H37.9128C37.3458 14.3407 36.7222 15.0714 36.0447 15.7831H36.044Z"
                fill="#093A70" />
            <path
                d="M36.014 15.8006C34.6651 17.2178 33.2295 18.4248 31.7892 19.3936C31.4289 19.6359 31.0687 19.8638 30.7091 20.0753V19.6741H19.9935V19.715C19.7745 19.2456 19.6292 18.7229 19.5555 18.158C19.4081 17.0274 19.5452 15.7256 19.943 14.3344C20.74 11.5526 22.5815 8.41471 25.28 5.5811C27.9778 2.74682 31.0216 0.753129 33.761 -0.178896C35.1304 -0.644909 36.4241 -0.846189 37.5608 -0.754078H37.4912V13.6289H37.8746C37.3104 14.3651 36.6888 15.0924 36.0147 15.8013L36.014 15.8006Z"
                fill="#093B71" />
            <path
                d="M35.9839 15.8185C34.6412 17.2288 33.2124 18.4303 31.7782 19.3951C31.42 19.6366 31.0611 19.8625 30.7029 20.074V19.6748H20.0358V19.7158C19.8175 19.2484 19.6728 18.7285 19.5998 18.1656C19.4524 17.0398 19.5896 15.7441 19.986 14.3597C20.7795 11.5902 22.6129 8.46734 25.2984 5.64602C27.984 2.8247 31.0134 0.83988 33.7405 -0.0880514C35.1038 -0.552017 36.392 -0.751932 37.5232 -0.660503H37.4905V13.6569H37.835C37.2728 14.3897 36.6547 15.1137 35.9833 15.8192L35.9839 15.8185Z"
                fill="#0A3C73" />
            <path
                d="M35.9533 15.8361C34.6166 17.2403 33.194 18.4364 31.7667 19.3964C31.4098 19.6366 31.0523 19.8617 30.6961 20.0719V19.6741H20.0775V19.7144C19.8605 19.249 19.7165 18.7318 19.6435 18.1717C19.4968 17.0513 19.6333 15.7611 20.0276 14.3828C20.8171 11.6263 22.6422 8.51709 25.3162 5.70873C27.9894 2.90037 31.0052 0.925102 33.7201 0.000581384C35.0772 -0.461338 36.3592 -0.660569 37.4857 -0.569141C37.6263 -0.557542 37.7648 -0.541849 37.9006 -0.52138H37.4905V13.6828H37.7969C37.2374 14.4122 36.6219 15.1334 35.954 15.8355L35.9533 15.8361Z"
                fill="#0B3D74" />
            <path
                d="M35.9232 15.854C34.5927 17.2513 33.1769 18.442 31.7557 19.3986C31.4002 19.6374 31.0447 19.8618 30.6906 20.0713V19.6756H20.121V19.7158C19.9047 19.2532 19.7615 18.7374 19.6891 18.18C19.5431 17.0644 19.6789 15.7803 20.0719 14.4082C20.8579 11.664 22.6749 8.56904 25.3359 5.77433C27.9969 2.97894 30.999 1.01254 33.7009 0.0927966C35.0519 -0.367075 36.3278 -0.565626 37.4488 -0.47488C37.5887 -0.463281 37.7265 -0.447587 37.8616 -0.427118H37.4904V13.7122H37.7579C37.2011 14.4382 36.5884 15.156 35.9232 15.8547V15.854Z"
                fill="#0B3E75" />
            <path
                d="M35.8932 15.8717C34.5688 17.2629 33.1592 18.4481 31.7448 19.3999C31.3913 19.638 31.0372 19.8612 30.6845 20.0693V19.6749H20.1634V19.7151C19.9484 19.2546 19.8058 18.7415 19.7328 18.1861C19.5875 17.076 19.7226 15.7974 20.1136 14.4321C20.8962 11.7008 22.7043 8.62021 25.3536 5.83778C28.0023 3.05535 30.9908 1.09783 33.6805 0.182176C35.0253 -0.275649 36.2957 -0.472834 37.4113 -0.38277C37.5505 -0.371171 37.6876 -0.355478 37.822 -0.335691H37.4904V13.7382H37.719C37.165 14.4607 36.555 15.1751 35.8925 15.871L35.8932 15.8717Z"
                fill="#0C3F77" />
            <path
                d="M35.8625 15.8896C34.5443 17.2746 33.1415 18.4536 31.7339 19.4014C31.3818 19.6381 31.0298 19.8606 30.6784 20.068V19.6756H20.2057V19.7159C19.9915 19.2574 19.8496 18.7464 19.7772 18.1944C19.6326 17.0897 19.767 15.8172 20.1566 14.4574C20.9351 11.7384 22.735 8.67216 25.3721 5.90269C28.0085 3.13322 30.9834 1.18456 33.66 0.273007C34.9987 -0.182771 36.263 -0.379274 37.3738 -0.28921C37.5123 -0.278294 37.6488 -0.2626 37.7832 -0.242131H37.4905V13.7669H37.6802C37.1282 14.4861 36.5216 15.197 35.8625 15.8896Z"
                fill="#0C4078" />
            <path
                d="M35.8325 15.9071C34.5204 17.2853 33.1238 18.4596 31.723 19.4025C31.373 19.6379 31.0223 19.8597 30.6722 20.0657V19.6748H20.2487V19.715C20.0351 19.2586 19.8946 18.7503 19.8223 18.2003C19.6783 17.1004 19.812 15.8341 20.1996 14.4811C20.9747 11.7751 22.7664 8.72313 25.3905 5.96595C28.0154 3.20944 30.9752 1.26966 33.6403 0.362876C34.9728 -0.0908548 36.231 -0.285994 37.3363 -0.196613C37.4748 -0.185696 37.6106 -0.170003 37.7436 -0.149534H37.4905V13.794H37.642C37.0927 14.5104 36.4889 15.218 35.8325 15.9071Z"
                fill="#0D4179" />
            <path
                d="M35.8017 15.9242C34.4958 17.2963 33.1059 18.4644 31.7113 19.4033C31.3626 19.638 31.0133 19.8583 30.6653 20.0637V19.6748H20.2902V19.7151C20.078 19.2607 19.9375 18.7551 19.8658 18.2072C19.7226 17.1128 19.8556 15.8519 20.2411 14.505C21.0128 11.8113 22.7956 8.77366 25.4082 6.03012C28.0207 3.2859 30.9669 1.35566 33.619 0.452974C34.9454 0.00128987 36.1974 -0.193167 37.298 -0.103785C37.4358 -0.0928682 37.5709 -0.077175 37.7033 -0.056706H37.489V13.822H37.6016C37.0551 14.535 36.454 15.2392 35.801 15.9249L35.8017 15.9242Z"
                fill="#0E427B" />
            <path
                d="M35.7717 15.942C34.4719 17.3073 33.0882 18.4706 31.7004 19.4047C31.3531 19.638 31.0058 19.857 30.6599 20.0617V19.6742H20.3332V19.7144C20.1217 19.2621 19.9818 18.7585 19.9109 18.214C19.7683 17.1244 19.9006 15.8697 20.2848 14.5296C21.0523 11.8488 22.8277 8.82556 25.4273 6.0943C28.0275 3.36304 30.9601 1.44168 33.5999 0.543088C34.9195 0.09345 36.1667 -0.0996424 37.2618 -0.0109431C37.5354 0.0108906 37.8002 0.0511471 38.0533 0.109143H37.4897V13.8494H37.5634C37.0196 14.559 36.4212 15.2597 35.771 15.9427L35.7717 15.942Z"
                fill="#0E437C" />
            <path
                d="M35.7416 15.9597C34.448 17.3188 33.0711 18.476 31.6895 19.406C31.3442 19.6387 30.9983 19.8563 30.6537 20.0603V19.6748H20.3762V19.7151C20.166 19.2648 20.0269 18.7639 19.9559 18.2215C19.814 17.1373 19.9457 15.888 20.3277 14.5541C21.0919 11.8863 22.8584 8.87669 25.4464 6.1584C28.0344 3.4401 30.9532 1.52829 33.5801 0.633793C34.8935 0.186884 36.1347 -0.00620689 37.225 0.0818102C37.4972 0.103644 37.7606 0.143217 38.013 0.201213H37.4911V13.8766H37.5259C36.9841 14.5828 36.3885 15.2801 35.7416 15.9597Z"
                fill="#0F447D" />
            <path
                d="M35.711 15.9774C34.4234 17.3297 33.0534 18.4822 31.6779 19.4074C31.334 19.6387 30.9901 19.8556 30.6469 20.0583V19.6741H20.4178V19.7144C20.2084 19.2661 20.0698 18.7674 19.9996 18.2277C19.8583 17.1482 19.9893 15.9058 20.3701 14.578C21.1308 11.9225 22.8891 8.92718 25.4641 6.22185C28.0398 3.51652 30.9444 1.61358 33.5597 0.723174C34.8669 0.278312 36.1019 0.0865851 37.1868 0.17392C37.4583 0.195754 37.7197 0.235326 37.9714 0.29264H37.4904V13.3751H37.8807C37.7524 13.5518 37.6214 13.7279 37.487 13.9032C36.948 14.606 36.355 15.3006 35.7116 15.9767L35.711 15.9774Z"
                fill="#0F457F" />
            <path
                d="M35.681 15.9952C34.3996 17.3414 33.0357 18.4884 31.667 19.4088C31.3252 19.6387 30.9827 19.855 30.6408 20.057V19.6749H20.4602V19.7145C20.2521 19.2682 20.1143 18.7722 20.044 18.2352C19.9034 17.1613 20.0338 15.9243 20.4124 14.6027C21.1698 11.9601 22.9192 8.97912 25.4826 6.28676C28.046 3.59439 30.937 1.70031 33.5399 0.814004C34.8411 0.371189 36.0699 0.180145 37.15 0.267479C37.4202 0.289313 37.6808 0.328886 37.9306 0.385518H37.4905V13.4059H37.8405C37.7129 13.5819 37.5826 13.7573 37.4482 13.932C36.9119 14.6313 36.3217 15.3225 35.681 15.9952Z"
                fill="#104680" />
            <path
                d="M35.651 16.013C34.3758 17.3531 33.0187 18.4939 31.6561 19.4102C31.3156 19.6395 30.9745 19.8544 30.6347 20.055V19.6743H20.5032V19.7138C20.2958 19.2703 20.1586 18.7763 20.089 18.2414C19.9492 17.1722 20.0788 15.9414 20.4554 14.6266C21.2087 11.9963 22.9506 9.02965 25.5011 6.35024C28.0522 3.67084 30.9295 1.78564 33.5195 0.904102C34.8145 0.463335 36.0379 0.272972 37.1125 0.360307C37.3813 0.382141 37.6406 0.421032 37.8896 0.477663H37.4905V13.4353H37.7996C37.6727 13.6099 37.543 13.7846 37.4093 13.9586C36.8757 14.6545 36.2883 15.3423 35.6503 16.0123L35.651 16.013Z"
                fill="#114781" />
            <path
                d="M35.6202 16.0308C34.3511 17.364 33.0002 18.5001 31.6451 19.4116C31.306 19.6395 30.9669 19.8537 30.6285 20.053V19.6743H20.5454V19.7139C20.3394 19.2724 20.2029 18.7805 20.1333 18.249C19.9941 17.1853 20.1231 15.9598 20.4983 14.6512C21.2482 12.0339 22.9812 9.08155 25.5201 6.41443C28.0589 3.74799 30.9226 1.87166 33.5003 0.994215C34.7892 0.555495 36.0064 0.366496 37.0756 0.453149C37.343 0.474982 37.6009 0.513874 37.8486 0.569823H37.4904V13.4653H37.7592C37.633 13.6393 37.5034 13.8133 37.371 13.9859C36.8395 14.6785 36.2554 15.3628 35.6209 16.0301L35.6202 16.0308Z"
                fill="#114882" />
            <path
                d="M35.5902 16.0483C34.3273 17.3754 32.9831 18.5053 31.6342 19.4128C31.2972 19.64 30.9594 19.8529 30.6231 20.0514V19.6741H20.5884V19.7137C20.3831 19.2743 20.2473 18.785 20.1784 18.2556C20.0399 17.1966 20.1688 15.9774 20.5413 14.6749C21.2878 12.0698 23.012 9.13183 25.5385 6.47836C28.0651 3.82488 30.9151 1.95742 33.4799 1.08407C34.7626 0.647395 35.9737 0.45908 37.0381 0.545732C37.3042 0.567566 37.5607 0.605775 37.8077 0.662407H37.4904V13.4958H37.7183C37.5928 13.6691 37.4638 13.8418 37.3321 14.0144C36.8034 14.7035 36.222 15.3851 35.5902 16.0483Z"
                fill="#124884" />
            <path
                d="M35.5602 16.0661C34.3034 17.3863 32.9654 18.5115 31.6233 19.4142C31.2876 19.64 30.9519 19.8522 30.6169 20.0494V19.6741H20.6314V19.7137C20.4274 19.2763 20.2916 18.7892 20.2234 18.2624C20.0856 17.2089 20.2138 15.9958 20.585 14.6994C21.3274 12.1074 23.044 9.18302 25.5583 6.54251C28.0726 3.90132 30.9082 2.0434 33.4614 1.17483C34.738 0.740206 35.9436 0.553255 37.0026 0.638543C37.2673 0.659694 37.5232 0.698586 37.7681 0.754534H37.4918V13.0073H38.0438C37.8077 13.3533 37.5573 13.6985 37.2946 14.041C36.7685 14.7267 36.1899 15.4049 35.5615 16.0654L35.5602 16.0661Z"
                fill="#124985" />
            <path
                d="M35.5295 16.0839C34.2788 17.398 32.9476 18.517 31.6117 19.4163C31.278 19.6408 30.9437 19.8516 30.61 20.0488V19.6749H20.673V19.7144C20.4697 19.2791 20.3353 18.7947 20.2663 18.2707C20.1292 17.222 20.2568 16.015 20.6259 14.7248C21.3648 12.145 23.0727 9.23564 25.5747 6.60741C28.0767 3.97918 30.8987 2.13082 33.4389 1.26566C34.7093 0.833084 35.9088 0.646815 36.9623 0.732103C37.2257 0.753254 37.4802 0.791463 37.7244 0.847412H37.4897V13.0408H37.9994C37.764 13.3847 37.5156 13.7286 37.2536 14.0698C36.7303 14.7527 36.1544 15.4269 35.5288 16.0839H35.5295Z"
                fill="#134A86" />
            <path
                d="M35.4995 16.1017C34.255 17.409 32.9299 18.5232 31.6008 19.4177C31.2685 19.6415 30.9356 19.851 30.604 20.0468V19.6749H20.7154V19.7145C20.5127 19.2812 20.379 18.7995 20.3108 18.2776C20.1743 17.2343 20.3012 16.0328 20.669 14.7494C21.4045 12.1826 23.1041 9.28686 25.5938 6.6716C28.0835 4.05633 30.8919 2.21684 33.4198 1.35578C34.6835 0.925243 35.8775 0.740339 36.9262 0.824945C37.1882 0.846096 37.4413 0.884306 37.6842 0.939572H37.4905V13.073H37.9578C37.7238 13.4155 37.4761 13.7573 37.2162 14.0964C36.6949 14.776 36.1224 15.4467 35.4995 16.101V16.1017Z"
                fill="#134B87" />
            <path
                d="M35.4687 16.1195C34.2304 17.4206 32.9122 18.5287 31.5892 19.4191C31.2583 19.6415 30.9273 19.8503 30.5971 20.0455V19.675H20.7576V19.7145C20.5563 19.2833 20.4233 18.8037 20.3551 18.2844C20.2193 17.246 20.3455 16.0506 20.7112 14.7733C21.4426 12.2188 23.1341 9.33808 25.6115 6.73577C28.089 4.13347 30.8837 2.30285 33.3986 1.44656C34.6561 1.01876 35.844 0.833856 36.8879 0.918461C37.1486 0.939613 37.401 0.977822 37.6426 1.03241H37.4897V13.1064H37.9148C37.6821 13.4469 37.4358 13.7874 37.1765 14.1251C36.658 14.8013 36.0883 15.4692 35.4687 16.1195Z"
                fill="#144C88" />
            <path
                d="M35.4387 16.1371C34.2058 17.4321 32.8944 18.5347 31.5782 19.4203C31.2494 19.6414 30.9198 19.8495 30.5916 20.0432V19.6748H20.8006V19.7144C20.6 19.2852 20.4676 18.8083 20.4001 18.2918C20.265 17.2588 20.3905 16.0688 20.7542 14.7984C21.4822 12.2568 23.1655 9.38977 25.6306 6.80043C28.0958 4.2111 30.8768 2.38935 33.3795 1.53715C34.6309 1.11139 35.8133 0.927172 36.8518 1.01178C37.111 1.03293 37.3621 1.07046 37.6023 1.12572H37.4904V13.1397H37.8732C37.6412 13.4788 37.3962 13.8172 37.1383 14.1536C36.6225 14.8264 36.0548 15.4909 35.4387 16.1384V16.1371Z"
                fill="#144D8A" />
            <path
                d="M35.4088 16.1548C34.182 17.4429 32.8774 18.5401 31.5674 19.4216C31.2399 19.642 30.9124 19.8487 30.5856 20.0418V19.6748H20.843V19.7136C20.6437 19.2872 20.512 18.8116 20.4445 18.2979C20.3101 17.2696 20.4349 16.0865 20.7972 14.8215C21.5218 12.2922 23.1962 9.43953 25.6491 6.86315C28.102 4.28678 30.8687 2.4739 33.3591 1.6258C34.6043 1.20209 35.7806 1.01923 36.8136 1.10315C37.0722 1.12431 37.3213 1.16183 37.5607 1.21642H37.4898V13.171H37.8302C37.5996 13.5088 37.3561 13.8452 37.0995 14.1795C36.5864 14.8488 36.0215 15.51 35.4088 16.1541V16.1548Z"
                fill="#154E8B" />
            <path
                d="M35.3781 16.1725C34.1574 17.4546 32.859 18.5463 31.5565 19.423C31.231 19.6421 30.9049 19.8481 30.5794 20.0398V19.6748H20.8859V19.7137C20.6874 19.2893 20.5564 18.8165 20.4895 18.3054C20.3558 17.2827 20.48 16.105 20.8402 14.8468C21.5607 12.3305 23.2269 9.49212 25.6682 6.92803C28.1088 4.36462 30.8619 2.56061 33.34 1.71728C34.5791 1.29562 35.7492 1.11344 36.7775 1.19668C37.0347 1.21715 37.2824 1.25468 37.5205 1.30926H37.4905V13.2038H37.7879C37.5587 13.5395 37.3158 13.8746 37.0606 14.2075C36.5503 14.8734 35.988 15.5319 35.3781 16.1725Z"
                fill="#154E8C" />
            <path
                d="M35.348 16.1904C34.1335 17.4656 32.8419 18.5518 31.5455 19.4245C31.2214 19.6428 30.8966 19.8475 30.5732 20.0386V19.6756H20.9282V19.7145C20.731 19.2921 20.6 18.822 20.5338 18.313C20.4008 17.295 20.5243 16.1235 20.8832 14.8715C21.6003 12.3674 23.2582 9.54339 25.6866 6.99294C28.1149 4.44181 30.8543 2.64736 33.3202 1.80813C34.5531 1.38851 35.7171 1.2077 36.7406 1.29026C36.9964 1.31073 37.2434 1.34825 37.4802 1.40216C37.5989 1.42945 37.7149 1.46015 37.8281 1.49563H37.4918V13.2367H37.747C37.5184 13.571 37.2775 13.904 37.023 14.2356C36.5147 14.8981 35.9559 15.5531 35.3487 16.1904H35.348Z"
                fill="#164F8D" />
            <path
                d="M35.318 16.2082C34.1097 17.4772 32.8242 18.558 31.5347 19.4259C31.2119 19.6429 30.8892 19.8469 30.5672 20.0366V19.6749H20.9706V19.7138C20.7741 19.2935 20.6444 18.8255 20.5782 18.3192C20.4459 17.3067 20.5687 16.1406 20.9255 14.8954C21.6392 12.4043 23.2883 9.5946 25.7051 7.05643C28.1211 4.51827 30.8469 2.73268 33.2998 1.89822C34.5266 1.48065 35.6851 1.30053 36.7024 1.38308C36.9569 1.40355 37.2025 1.4404 37.4379 1.4943C37.556 1.52091 37.6713 1.5523 37.7839 1.58778H37.4898V13.2695H37.7027C37.4755 13.6018 37.2353 13.9334 36.9828 14.2629C36.4773 14.922 35.9212 15.5736 35.3173 16.2082H35.318Z"
                fill="#17508E" />
            <path
                d="M35.2873 16.2258C34.0851 17.488 32.8065 18.5633 31.5231 19.4271C31.2024 19.6427 30.881 19.8454 30.561 20.0351V19.6755H21.0135V19.7144C20.8184 19.2961 20.6888 18.8308 20.6233 18.3272C20.4916 17.3202 20.6137 16.1596 20.9685 14.9205C21.6788 12.4417 23.3197 9.64631 25.7235 7.12111C28.1272 4.5959 30.8387 2.81987 33.28 1.98882C34.5006 1.5733 35.653 1.39454 36.6656 1.47642C37.1718 1.51735 37.6433 1.62379 38.0704 1.79846H37.4905V13.3028H37.6611C37.4352 13.6337 37.1964 13.9632 36.9446 14.2914C36.4418 14.9471 35.8884 15.5953 35.2873 16.2264V16.2258Z"
                fill="#17518F" />
            <path
                d="M35.2572 16.2437C34.0612 17.4998 32.7893 18.5696 31.5121 19.4287C31.1928 19.6436 30.8734 19.8449 30.5548 20.0332V19.675H21.0558V19.7139C20.8613 19.2977 20.7331 18.8344 20.6676 18.3336C20.5366 17.3313 20.658 16.1775 21.0114 14.9439C21.7176 12.478 23.3504 9.6963 25.7418 7.18406C28.1333 4.67182 30.8311 2.90465 33.2595 2.0777C34.4733 1.66423 35.6202 1.48615 36.628 1.56802C37.1315 1.60896 37.6009 1.71472 38.026 1.88802H37.4911V13.3337H37.6194C37.3942 13.6625 37.1568 13.9907 36.9064 14.3168C36.4062 14.9691 35.8556 15.6146 35.2572 16.2423V16.2437Z"
                fill="#185290" />
            <path
                d="M35.2266 16.2605C34.0366 17.5105 32.771 18.5749 31.5005 19.4291C31.1832 19.6427 30.8653 19.8433 30.548 20.0302V19.6741H21.0974V19.713C20.9043 19.2988 20.7761 18.8382 20.7112 18.3395C20.5809 17.3426 20.7017 16.1943 21.0531 14.9675C21.7559 12.514 23.3804 9.74724 25.7596 7.24797C28.1388 4.74869 30.823 2.9904 33.239 2.16822C34.4467 1.75679 35.5882 1.58008 36.5905 1.66059C37.092 1.70084 37.558 1.8066 37.981 1.97922H37.4904V13.3669H37.5764C37.3526 13.6944 37.1165 14.0205 36.8675 14.3453C36.3694 14.9948 35.8222 15.6362 35.2272 16.2612L35.2266 16.2605Z"
                fill="#185291" />
            <path
                d="M35.1965 16.2783C34.0127 17.5214 32.7539 18.5804 31.4896 19.4305C31.1737 19.6434 30.8571 19.8426 30.5419 20.0289V19.6741H21.1404V19.713C20.948 19.3009 20.8211 18.8431 20.7563 18.347C20.6266 17.3549 20.7467 16.2128 21.0967 14.9921C21.7961 12.5515 23.4118 9.79845 25.7787 7.31214C28.1456 4.82583 30.8161 3.0764 33.2192 2.25832C34.4207 1.84894 35.5561 1.6729 36.5529 1.75342C37.0517 1.79367 37.5157 1.89806 37.9367 2.07H37.4904V13.399H37.5341C37.3117 13.7244 37.0763 14.0492 36.8286 14.3726C36.3332 15.0187 35.7888 15.6567 35.1965 16.2783Z"
                fill="#195393" />
            <path
                d="M35.1665 16.296C33.9889 17.533 32.7362 18.5865 31.4787 19.4326C31.1642 19.6441 30.8496 19.8426 30.5358 20.0275V19.6748H21.1827V19.713C20.9917 19.3036 20.8648 18.8471 20.8 18.3538C20.671 17.3672 20.7911 16.2305 21.1384 15.0167C21.8337 12.5884 23.4412 9.85029 25.7965 7.37626C28.1511 4.90292 30.808 3.16236 33.1988 2.34837C34.3942 1.94172 35.5234 1.76569 36.5155 1.8462C37.0115 1.88646 37.4734 1.99017 37.8917 2.16142H37.4898V13.4317H37.4911C37.2701 13.7558 37.0354 14.0785 36.7891 14.3999C36.2964 15.0426 35.754 15.6772 35.1659 16.296H35.1665Z"
                fill="#195494" />
            <path
                d="M35.1358 16.3138C33.9643 17.544 32.7184 18.5921 31.4678 19.434C31.1553 19.6442 30.8421 19.842 30.5303 20.0263V19.6749H21.2257V19.7131C21.0354 19.3057 20.9091 18.852 20.845 18.3608C20.7167 17.3789 20.8361 16.2483 21.1821 15.0407C21.8739 12.6253 23.4732 9.90088 25.8156 7.4405C28.1579 4.98012 30.8005 3.24843 33.179 2.43922C34.3682 2.03462 35.4913 1.85995 36.4786 1.93977C36.9719 1.98003 37.4311 2.08306 37.848 2.25363H37.4905V12.497H38.0718C37.2926 13.788 36.3073 15.0837 35.1358 16.3145V16.3138Z"
                fill="#195595" />
            <path
                d="M35.1058 16.3317C33.9404 17.5557 32.7007 18.5983 31.4569 19.4355C31.1457 19.6449 30.8346 19.8414 30.5241 20.0243V19.675H21.2687V19.7132C21.079 19.3079 20.9542 18.8562 20.89 18.3683C20.7624 17.392 20.8812 16.2669 21.225 15.066C21.9135 12.6629 23.5039 9.95282 25.8347 7.5054C28.1647 5.0573 30.7937 3.33517 33.1599 2.53005C34.343 2.12749 35.4606 1.9535 36.4418 2.03333C36.9323 2.07291 37.3895 2.17594 37.8036 2.34515H37.4905V12.5353H38.0261C37.251 13.8194 36.2705 15.109 35.1058 16.3324V16.3317Z"
                fill="#1A5596" />
            <path
                d="M35.0757 16.3494C33.9165 17.5666 32.6836 18.6037 31.4459 19.4368C31.1368 19.6449 30.827 19.8408 30.518 20.0229V19.675H21.311V19.7132C21.1226 19.3099 20.9978 18.861 20.9343 18.3752C20.8074 17.4036 20.9255 16.2853 21.2673 15.0899C21.9516 12.6998 23.5346 10.004 25.8524 7.56886C28.1708 5.13372 30.7854 3.42114 33.1387 2.61943C34.3157 2.21892 35.4271 2.0463 36.4035 2.12544C36.892 2.16502 37.3464 2.26736 37.7586 2.43589H37.4904V12.5722H37.981C37.21 13.8495 36.235 15.1322 35.0757 16.3494Z"
                fill="#1A5697" />
            <path
                d="M35.045 16.367C33.892 17.578 32.6652 18.6097 31.4343 19.438C31.1266 19.6454 30.8182 19.8392 30.5111 20.0207V19.6748H21.3526V19.713C21.165 19.3118 21.0415 18.8656 20.978 18.3825C20.8518 17.4163 20.9691 16.3035 21.3096 15.1149C21.9905 12.7371 23.5646 10.0557 25.8708 7.63348C28.177 5.21131 30.7779 3.5076 33.1189 2.71067C34.2897 2.3122 35.3951 2.14026 36.3667 2.21873C36.8525 2.2583 37.3042 2.35996 37.7142 2.52713H37.4904V12.6095H37.9353C37.1684 13.88 36.1981 15.1559 35.0457 16.367H35.045Z"
                fill="#1B5798" />
            <path
                d="M35.015 16.3847C33.8681 17.589 32.6481 18.6152 31.4234 19.4394C31.117 19.6455 30.8107 19.8386 30.505 20.0194V19.6748H21.3956V19.713C21.2093 19.3139 21.0858 18.8697 21.023 18.3894C20.8975 17.428 21.0142 16.3213 21.3526 15.1389C22.0301 12.774 23.596 10.1069 25.8892 7.69767C28.1831 5.28846 30.7697 3.59362 33.0991 2.80078C34.2638 2.40436 35.363 2.23379 36.3291 2.31157C36.8122 2.35046 37.2618 2.45212 37.6699 2.61861H37.4904V12.6478H37.8896C37.1267 13.9114 36.162 15.1805 35.015 16.3854V16.3847Z"
                fill="#1B5799" />
            <path
                d="M34.9851 16.4025C33.8443 17.6006 32.6304 18.6214 31.4125 19.4408C31.1082 19.6455 30.8032 19.8379 30.4989 20.0174V19.6748H21.4379V19.7131C21.2524 19.316 21.1302 18.8745 21.0675 18.3962C20.9426 17.4403 21.0586 16.3391 21.3956 15.1635C22.0698 12.8109 23.6268 10.1581 25.9084 7.76184C28.19 5.36559 30.763 3.67962 33.0794 2.89088C34.2373 2.49651 35.3317 2.32662 36.2924 2.4044C36.7727 2.44329 37.2203 2.54427 37.6256 2.71007H37.4905V12.6853H37.8439C37.0852 13.9421 36.1252 15.2044 34.9851 16.4025Z"
                fill="#1C589A" />
            <path
                d="M34.9543 16.4204C33.8196 17.6123 32.6126 18.6269 31.4009 19.4423C31.0979 19.6463 30.795 19.8373 30.4927 20.0161V19.6749H21.4802V19.7132C21.296 19.3181 21.1738 18.8787 21.1118 18.4038C20.9876 17.4527 21.1029 16.3576 21.4379 15.1881C22.1079 12.8485 23.6574 10.2094 25.9261 7.82608C28.1954 5.44279 30.7547 3.76569 33.0589 2.98172C34.2106 2.5894 35.2989 2.42087 36.2548 2.49797C36.7324 2.53686 37.1773 2.63716 37.5812 2.8016H37.4904V12.7236H37.7981C37.0435 13.9736 36.089 15.2291 34.9543 16.421V16.4204Z"
                fill="#1C599B" />
            <path
                d="M34.9243 16.4381C33.7957 17.6232 32.5949 18.6331 31.39 19.4436C31.0884 19.6463 30.7875 19.8366 30.4866 20.014V19.6749H21.5232V19.7131C21.3396 19.3208 21.2182 18.8835 21.1568 18.4106C21.0333 17.4649 21.1479 16.376 21.4815 15.212C22.1482 12.8853 23.6888 10.2605 25.9459 7.88951C28.2029 5.51919 30.7486 3.85096 33.0398 3.07109C34.1853 2.68081 35.2675 2.51297 36.2186 2.59007C36.6942 2.62828 37.1363 2.72857 37.5375 2.89233H37.4911V12.7605H37.7531C37.0026 14.0036 36.0528 15.2529 34.925 16.4381H34.9243Z"
                fill="#1D5A9C" />
            <path
                d="M34.8936 16.4559C33.7713 17.6349 32.5772 18.6385 31.3791 19.445C31.0796 19.6463 30.7794 19.836 30.4805 20.0127V19.675H21.5655V19.7125C21.3834 19.3222 21.2626 18.8876 21.2012 18.4168C21.0784 17.4759 21.1923 16.3931 21.5239 15.2359C22.1871 12.9215 23.7189 10.311 25.9637 7.95368C28.2084 5.59565 30.7405 3.93697 33.0194 3.16119C34.1588 2.77296 35.2348 2.60579 36.1805 2.6829C36.6533 2.7211 37.0934 2.82004 37.4925 2.98311H37.4912V12.798H37.7075C36.961 14.0344 36.0167 15.2768 34.8943 16.4552L34.8936 16.4559Z"
                fill="#1D5A9D" />
            <path
                d="M34.8636 16.4736C33.7473 17.6458 32.5601 18.6447 31.3681 19.4464C31.07 19.647 30.7718 19.8353 30.4743 20.0106V19.6749H21.6078V19.7125C21.4263 19.3242 21.3062 18.8917 21.2455 18.4243C21.1234 17.4888 21.2366 16.4115 21.5662 15.2604C22.2253 12.959 23.7495 10.3629 25.982 8.0178C28.2145 5.67272 30.7322 4.0236 32.9988 3.25191C34.1321 2.86641 35.2027 2.69993 36.1429 2.77566C36.613 2.81387 37.051 2.91212 37.4475 3.07451C37.646 3.15571 37.8343 3.25259 38.011 3.36586H37.4904V12.8362H37.661C36.9187 14.0657 35.9798 15.3014 34.8636 16.4736Z"
                fill="#1E5B9E" />
            <path
                d="M34.8335 16.4913C33.7234 17.6574 32.5424 18.6501 31.3572 19.4477C31.0611 19.6469 30.7643 19.8346 30.4682 20.0086V19.6742H21.6508V19.7118C21.4706 19.3256 21.3512 18.8957 21.2905 18.4304C21.1691 17.4997 21.2816 16.4285 21.6098 15.2843C22.2655 12.9952 23.7809 10.4133 26.0011 8.08123C28.2213 5.74912 30.7254 4.10887 32.9797 3.34128C34.1069 2.95782 35.1713 2.79202 36.1067 2.86776C36.5741 2.90528 37.0094 3.00354 37.4045 3.16524C37.6016 3.24575 37.7886 3.34196 37.9646 3.45454H37.4918V12.8724H37.6173C36.8791 14.0957 35.945 15.3239 34.8349 16.4899L34.8335 16.4913Z"
                fill="#1E5C9E" />
            <path
                d="M34.8029 16.5089C33.6989 17.6681 32.5247 18.6561 31.3456 19.4489C31.0509 19.6475 30.7561 19.8331 30.4621 20.0071V19.6748H21.6931V19.7123C21.5137 19.3282 21.3949 18.9004 21.3342 18.4378C21.2134 17.5126 21.3253 16.4468 21.6515 15.3087C22.3038 13.0326 23.811 10.4644 26.0189 8.14591C28.2268 5.82676 30.7172 4.19537 32.9586 3.43188C34.0796 3.05047 35.1379 2.88603 36.0679 2.96109C36.5332 2.99861 36.9658 3.09618 37.3581 3.25652C37.5546 3.33635 37.7402 3.43256 37.9155 3.54446H37.4898V12.9104H37.5696C36.8354 14.127 35.9068 15.3483 34.8029 16.5082V16.5089Z"
                fill="#1E5C9F" />
            <path
                d="M34.7728 16.5268C33.675 17.6799 32.5069 18.6624 31.3347 19.4511C31.0413 19.6483 30.7486 19.8332 30.4559 20.0058V19.6749H21.7353V19.7124C21.5573 19.3303 21.4385 18.9053 21.3785 18.4454C21.2584 17.5257 21.3696 16.466 21.6944 15.3341C22.3426 13.0702 23.8416 10.517 26.0373 8.21086C28.2329 5.90468 30.7097 4.28216 32.9388 3.52344C34.0536 3.14408 35.1064 2.98033 36.0309 3.05538C36.4935 3.09291 36.9241 3.18979 37.3144 3.34945C37.5095 3.42928 37.6944 3.5248 37.8684 3.63602H37.4904V12.9501H37.5245C36.7944 14.1599 35.8706 15.3744 34.7728 16.5274V16.5268Z"
                fill="#1F5DA0" />
            <path
                d="M34.7428 16.5446C33.6511 17.6915 32.4898 18.6679 31.3237 19.4525C31.0324 19.6483 30.7404 19.8326 30.4497 20.0045V19.6756H21.7783V19.7132C21.6009 19.3331 21.4836 18.9108 21.4235 18.453C21.3041 17.538 21.4147 16.4845 21.7374 15.3587C22.3822 13.1078 23.873 10.5683 26.0564 8.27504C28.2397 5.98183 30.7022 4.36818 32.919 3.61355C34.027 3.23624 35.0744 3.07385 35.9941 3.14822C36.454 3.18575 36.8818 3.28195 37.27 3.44025C37.4638 3.51939 37.648 3.61423 37.8213 3.72477H37.4911V12.0871H37.9878C37.8309 12.3859 37.661 12.6861 37.4795 12.987C36.7535 14.1899 35.8351 15.3983 34.7434 16.5446H34.7428Z"
                fill="#1F5DA1" />
            <path
                d="M34.7121 16.5621C33.6266 17.7022 32.4714 18.6738 31.3122 19.4537C31.0222 19.6488 30.7322 19.8317 30.4429 20.0023V19.6747H21.82V19.7123C21.6433 19.3343 21.5266 18.914 21.4672 18.4596C21.3485 17.5501 21.459 16.502 21.779 15.3831C22.4204 13.1444 23.9024 10.6199 26.0735 8.33897C28.2445 6.05872 30.6933 4.45394 32.8979 3.70341C33.9998 3.32814 35.041 3.16643 35.9559 3.24081C36.4131 3.27765 36.8388 3.37385 37.225 3.53147C37.4181 3.61061 37.601 3.70477 37.7729 3.81462H37.4898V12.1298H37.938C37.7818 12.4273 37.6133 12.7262 37.4324 13.025C36.7106 14.2211 35.797 15.4226 34.7114 16.5628L34.7121 16.5621Z"
                fill="#205EA2" />
            <path
                d="M34.6821 16.5792C33.6027 17.7131 32.4544 18.6786 31.3013 19.4544C31.0134 19.6482 30.7248 19.8303 30.4368 20.0002V19.6748H21.8624V19.7123C21.687 19.337 21.571 18.9188 21.5116 18.4664C21.3936 17.5617 21.5035 16.5198 21.8221 15.407C22.4594 13.1813 23.9331 10.6704 26.0919 8.40313C28.2508 6.13583 30.6859 4.53993 32.8781 3.79417C33.9739 3.42095 35.009 3.26061 35.9185 3.33362C36.3729 3.37046 36.7966 3.46598 37.18 3.62291C37.3718 3.70138 37.5539 3.79485 37.7252 3.9047H37.4898V12.1728H37.8896C37.7341 12.4683 37.5669 12.7658 37.3868 13.0626C36.669 14.2518 35.7609 15.4465 34.6815 16.5805L34.6821 16.5792Z"
                fill="#205FA3" />
            <path
                d="M34.6514 16.5971C33.5781 17.7242 32.4359 18.6849 31.2903 19.4559C31.0038 19.649 30.7172 19.8298 30.4313 19.9984V19.6743H21.9059V19.7118C21.7313 19.3386 21.616 18.9224 21.5573 18.4727C21.4399 17.5735 21.5491 16.537 21.8657 15.4303C22.4995 13.2169 23.9651 10.7211 26.1117 8.46607C28.2582 6.21106 30.6797 4.62539 32.859 3.88305C33.9486 3.51188 34.9782 3.35222 35.8822 3.42522C36.3346 3.46207 36.7549 3.55691 37.137 3.71247C37.328 3.79026 37.5088 3.88373 37.6787 3.99222H37.4911V12.2133H37.8425C37.6876 12.5074 37.5211 12.8028 37.343 13.0982C36.6294 14.2807 35.726 15.4685 34.6527 16.5957L34.6514 16.5971Z"
                fill="#205FA4" />
            <path
                d="M34.6214 16.6147C33.5543 17.7357 32.4189 18.6902 31.2795 19.4571C30.9943 19.6489 30.7098 19.829 30.4252 19.9968V19.6748H21.9483V19.7116C21.775 19.3405 21.6604 18.927 21.6017 18.4801C21.485 17.5856 21.5935 16.556 21.9087 15.4554C22.5392 13.255 23.9959 10.7728 26.1301 8.53073C28.2644 6.28869 30.6722 4.71189 32.8392 3.97363C33.9227 3.60451 34.9462 3.44553 35.8455 3.51854C36.2951 3.5547 36.7133 3.64954 37.0927 3.80442C37.2824 3.8822 37.4625 3.97432 37.6317 4.0828H37.4912V12.2575H37.7941C37.6406 12.5495 37.4748 12.8436 37.2974 13.1376C36.5878 14.3132 35.6899 15.4943 34.6228 16.6153L34.6214 16.6147Z"
                fill="#2160A4" />
            <path
                d="M34.5913 16.6324C33.5304 17.7466 32.4011 18.6964 31.2685 19.4585C30.9854 19.6489 30.7015 19.8284 30.419 19.9948V19.6742H21.9906V19.711C21.8179 19.3419 21.704 18.9311 21.646 18.4863C21.53 17.5972 21.6378 16.5731 21.951 15.4787C22.578 13.2905 24.0266 10.8226 26.1485 8.59355C30.3924 4.13539 35.7233 2.32114 38.0547 4.54068H37.4904V12.2991H37.7449C37.5921 12.5898 37.4277 12.8818 37.2509 13.1739C36.5454 14.3426 35.6523 15.5169 34.5913 16.6318V16.6324Z"
                fill="#2160A5" />
            <path
                d="M34.5607 16.6501C33.5058 17.7582 32.3835 18.7018 31.257 19.4598C30.9752 19.6495 30.6934 19.8269 30.4123 19.9934V19.6748H22.0329V19.7116C21.8617 19.3445 21.7477 18.9358 21.6904 18.4937C21.5751 17.6094 21.6822 16.5914 21.994 15.5038C22.617 13.3287 24.0573 10.8751 26.167 8.65899C30.3864 4.22675 35.6865 2.42274 38.0043 4.62931H37.4905V12.3427H37.6966C37.5444 12.6314 37.3806 12.922 37.2053 13.2127C36.5039 14.3753 35.6162 15.5427 34.5614 16.6508L34.5607 16.6501Z"
                fill="#2161A6" />
            <path
                d="M34.5306 16.6679C33.4819 17.7698 32.3657 18.708 31.246 19.4612C30.9663 19.6495 30.6858 19.8263 30.4061 19.9914V19.6741H22.0752V19.711C21.9046 19.3459 21.792 18.9399 21.7347 18.5005C21.6201 17.6217 21.7265 16.6092 22.0363 15.5278C22.6558 13.3649 24.088 10.9256 26.1854 8.72246C30.3802 4.31615 35.6496 2.52238 37.9537 4.71598H37.4904V11.5274H38.0649C37.8111 12.0944 37.5082 12.6709 37.1595 13.2489C36.4622 14.4047 35.5793 15.5653 34.5306 16.6665V16.6679Z"
                fill="#2261A7" />
            <path
                d="M34.5006 16.6856C33.458 17.7807 32.3486 18.7134 31.2351 19.4625C30.9567 19.6495 30.6783 19.8255 30.4006 19.9893V19.6741H22.1182V19.7109C21.949 19.3479 21.8364 18.944 21.7797 18.5073C21.6658 17.6333 21.7716 16.6269 22.0793 15.5523C22.6954 13.4023 24.1187 10.9774 26.2038 8.78655C30.3747 4.40549 35.6127 2.62263 37.9032 4.80395H37.4898V11.5758H38.0131C37.7606 12.1401 37.4597 12.7132 37.1131 13.287C36.4199 14.436 35.5425 15.5898 34.4999 16.6849L34.5006 16.6856Z"
                fill="#2262A7" />
            <path
                d="M34.4698 16.7034C33.4334 17.7923 32.3301 18.7196 31.2234 19.464C30.9464 19.6502 30.6701 19.8249 30.3938 19.988V19.6741H22.1604V19.711C21.9919 19.35 21.8807 18.9488 21.824 18.5142C21.7108 17.6456 21.8158 16.6454 22.1222 15.5762C22.7342 13.4386 24.1493 11.028 26.2228 8.85076C30.3692 4.49562 35.5765 2.723 37.8541 4.89136H37.4911V11.6236H37.9639C37.7128 12.1845 37.414 12.7542 37.0687 13.3253C36.3796 14.4675 35.5069 15.6144 34.4705 16.7034H34.4698Z"
                fill="#2262A8" />
            <path
                d="M34.4398 16.7213C33.4096 17.8034 32.3131 18.7252 31.2125 19.4655C30.9376 19.6504 30.6619 19.8244 30.3876 19.9861V19.6743H22.2027V19.7111C22.0356 19.3529 21.9244 18.9537 21.8677 18.5218C21.7551 17.6581 21.8595 16.6639 22.1638 15.6016C22.7725 13.4769 24.1794 11.08 26.2399 8.91571C30.3617 4.5865 35.5383 2.82411 37.8022 4.9795H37.4897V11.6715H37.9114C37.6617 12.229 37.3642 12.7953 37.0217 13.363C36.336 14.4983 35.4694 15.6384 34.4392 16.7206L34.4398 16.7213Z"
                fill="#2363A9" />
            <path
                d="M34.4098 16.7388C33.3857 17.8148 32.296 18.7311 31.2023 19.4674C30.9287 19.6516 30.6551 19.8242 30.3822 19.9852V19.6748H22.2457V19.7116C22.0792 19.3555 21.9694 18.9584 21.9127 18.5292C21.8008 17.6708 21.9046 16.6822 22.2075 15.626C22.8127 13.5136 24.2107 11.1317 26.2597 8.97967C30.3569 4.67639 35.5028 2.92424 37.7531 5.06735H37.4904V11.7198H37.8609C37.6125 12.2738 37.3171 12.8367 36.9766 13.401C36.295 14.5295 35.4333 15.6628 34.4091 16.7388H34.4098Z"
                fill="#2363A9" />
            <path
                d="M34.3792 16.7566C33.3612 17.8257 32.2777 18.7366 31.1908 19.4687C30.9192 19.6516 30.647 19.8235 30.3754 19.9832V19.6748H22.2881V19.7116C22.1223 19.3575 22.0131 18.9631 21.9572 18.5367C21.8459 17.6831 21.949 16.7006 22.2499 15.6512C22.851 13.5518 24.2415 11.1835 26.2775 9.04449C30.3502 4.76646 35.4654 3.02522 37.702 5.15537H37.4898V11.7682H37.8098C37.5628 12.3189 37.2694 12.8784 36.931 13.4392C36.2535 14.5609 35.3972 15.6881 34.3792 16.7572V16.7566Z"
                fill="#2364AA" />
            <path
                d="M34.3491 16.7743C33.3372 17.8374 32.2606 18.7428 31.1798 19.4701C30.9096 19.6516 30.6394 19.8229 30.3692 19.9818V19.6748H22.3303V19.711C22.1659 19.3589 22.0567 18.9672 22.0015 18.5429C21.8909 17.6948 21.9933 16.7177 22.2921 15.6745C22.8898 13.5873 24.2715 11.234 26.2959 9.10797C30.344 4.85586 35.4285 3.12486 37.6521 5.24204H37.4904V11.8154H37.7592C37.5143 12.3626 37.2223 12.9193 36.8852 13.4768C36.2118 14.5916 35.361 15.712 34.3484 16.775L34.3491 16.7743Z"
                fill="#2464AB" />
            <path
                d="M34.3185 16.792C33.3127 17.8489 32.2422 18.7489 31.1683 19.4714C30.8994 19.6522 30.6313 19.8215 30.3631 19.9798V19.6748H22.3727V19.7109C22.2089 19.3609 22.1011 18.9713 22.0459 18.5496C21.936 17.7063 22.0377 16.7361 22.3352 15.6983C22.9295 13.6241 24.3029 11.2845 26.3144 9.1714C30.3379 4.94521 35.391 3.22513 37.6017 5.32867H37.4905V11.8617H37.7088C37.4652 12.4055 37.1746 12.9589 36.8402 13.5129C36.1709 14.6209 35.3249 15.7345 34.3191 16.7907L34.3185 16.792Z"
                fill="#2465AB" />
            <path
                d="M34.2883 16.8099C33.2888 17.86 32.225 18.7545 31.1572 19.4729C30.8905 19.6524 30.623 19.8209 30.3569 19.9785V19.6749H22.4156V19.7111C22.2532 19.3631 22.1454 18.9762 22.0908 18.5573C21.9816 17.7194 22.0833 16.7546 22.3781 15.7237C22.9682 13.6618 24.3335 11.3365 26.3334 9.23634C30.3323 5.03608 35.3548 3.32623 37.5518 5.41749H37.4904V11.911H37.6575C37.4153 12.452 37.1267 13.0013 36.7944 13.5519C36.1292 14.6531 35.2886 15.7598 34.2883 16.8099Z"
                fill="#2465AC" />
            <path
                d="M34.2584 16.8275C33.2649 17.8715 32.2074 18.7605 31.1464 19.4742C30.881 19.653 30.6156 19.8201 30.3508 19.9764V19.6748H22.4579V19.711C22.2962 19.365 22.1898 18.9802 22.1352 18.564C22.0267 17.7309 22.1277 16.7723 22.4211 15.7475C23.0079 13.6985 24.365 11.3875 26.3518 9.29969C30.3263 5.12468 35.318 3.42575 37.5014 5.50405H37.4904V11.9579H37.6064C37.3656 12.4956 37.079 13.0414 36.7488 13.5886C36.0876 14.6837 35.2518 15.7829 34.2584 16.8269V16.8275Z"
                fill="#2465AC" />
            <path
                d="M34.2277 16.8455C33.2404 17.8826 32.1896 18.7661 31.1348 19.4757C30.8714 19.6531 30.6074 19.8196 30.344 19.9752V19.6756H22.4996V19.7118C22.3392 19.3679 22.2328 18.9858 22.1789 18.5717C22.0711 17.744 22.1714 16.7909 22.4627 15.7729C23.0461 13.7362 24.3943 11.4396 26.3696 9.36537C30.3195 5.21629 35.2805 3.52759 37.4509 5.59292C37.5867 5.72187 37.7081 5.86243 37.8159 6.0139H37.4905V12.0066H37.556C37.3165 12.5408 37.032 13.0832 36.7031 13.6277C36.046 14.716 35.2157 15.8084 34.2277 16.8461V16.8455Z"
                fill="#2566AD" />
            <path
                d="M34.1977 16.863C33.2165 17.8939 32.1719 18.7721 31.1239 19.4769C30.8619 19.6529 30.5999 19.8187 30.3379 19.9729V19.6747H22.5426V19.7109C22.3829 19.3698 22.2778 18.9897 22.2239 18.5783C22.1168 17.7561 22.2164 16.8084 22.5064 15.7965C23.0864 13.7728 24.4257 11.4905 26.3887 9.42861C30.314 5.30545 35.2443 3.62698 37.4011 5.68003C37.6706 5.93658 37.8841 6.23952 38.0438 6.58067H37.4911V12.0541H37.5055C37.2673 12.5849 36.9842 13.1246 36.658 13.665C36.0051 14.7465 35.1795 15.8327 34.1983 16.863H34.1977Z"
                fill="#2566AD" />
            <path
                d="M34.1676 16.8807C33.1926 17.9049 32.1548 18.7775 31.1136 19.4782C30.853 19.6536 30.593 19.818 30.3331 19.9715V19.6754H22.5862V19.7116C22.4279 19.3725 22.3228 18.9945 22.2696 18.5858C22.1625 17.7684 22.2621 16.8275 22.55 15.8218C23.1259 13.8104 24.4578 11.5424 26.4085 9.49343C30.3092 5.39552 35.2088 3.72797 37.3519 5.76805C37.6201 6.02323 37.8316 6.32413 37.9906 6.66323H37.4918V10.553H38.0267C37.4508 12.5645 36.119 14.8324 34.1683 16.8814L34.1676 16.8807Z"
                fill="#2567AE" />
            <path
                d="M34.1369 16.8985C33.1681 17.9165 32.1364 18.7837 31.102 19.4797C30.8435 19.6537 30.5842 19.8174 30.3263 19.9696V19.6748H22.6278V19.711C22.4702 19.3739 22.3658 18.9987 22.3133 18.5927C22.2069 17.7807 22.3058 16.8453 22.5917 15.8457C23.1641 13.8473 24.4871 11.5929 26.4255 9.55764C30.3017 5.48565 35.1706 3.82834 37.3001 5.85546C37.5662 6.1086 37.777 6.40813 37.9346 6.74518H37.4904V10.6104H37.9708C37.3983 12.6089 36.0754 14.8632 34.1369 16.8985Z"
                fill="#2567AE" />
            <path
                d="M34.1069 16.9156C33.1442 17.9274 32.1194 18.7885 31.0911 19.4803C30.8339 19.6536 30.5767 19.8154 30.3201 19.9668V19.6741H22.6708V19.7096C22.5146 19.3746 22.4109 19.0014 22.3583 18.5981C22.2526 17.791 22.3508 16.8617 22.6353 15.8689C23.2044 13.8834 24.5192 11.6434 26.4446 9.62038C30.2969 5.57433 35.1344 3.92725 37.2503 5.94209C37.515 6.19386 37.7245 6.49066 37.8807 6.82635H37.4904V10.667H37.9162C37.3472 12.6525 36.0324 14.8925 34.1069 16.9156Z"
                fill="#2567AF" />
            <path
                d="M34.0762 16.9333C33.1196 17.9384 32.1009 18.7946 31.0795 19.4817C30.8243 19.6537 30.5684 19.8147 30.3133 19.9655V19.6741H22.7124V19.7096C22.5568 19.3767 22.4538 19.0062 22.4013 18.605C22.2962 17.8033 22.3938 16.8794 22.6763 15.8928C23.2412 13.9196 24.5478 11.6939 26.4617 9.68386C30.2894 5.66373 35.0962 4.02689 37.1991 6.02876C37.4618 6.27917 37.6699 6.57393 37.8254 6.90689H37.4897V10.7237H37.8609C37.296 12.6969 35.9893 14.9226 34.0755 16.9326L34.0762 16.9333Z"
                fill="#2667AF" />
            <path
                d="M34.0462 16.9511C33.0958 17.95 32.0839 18.8001 31.0686 19.4831C30.8148 19.6537 30.561 19.814 30.3072 19.9634V19.6741H22.7548V19.7096C22.6006 19.3787 22.4982 19.0109 22.4457 18.6125C22.3413 17.8155 22.4382 16.8978 22.7193 15.9181C23.2808 13.9578 24.5793 11.7465 26.4802 9.74868C30.2833 5.7538 35.0594 4.12787 37.1486 6.11678C37.41 6.36514 37.6167 6.65853 37.7709 6.98945H37.4891V10.7817H37.8064C37.2448 12.7419 35.9464 14.9533 34.0455 16.9511H34.0462Z"
                fill="#2668AF" />
            <path
                d="M34.0161 16.9689C33.0718 17.961 32.0668 18.8064 31.0576 19.4853C30.8052 19.6552 30.5527 19.8141 30.3017 19.9629V19.6749H22.7984V19.7104C22.6449 19.3816 22.5432 19.0158 22.4913 18.6201C22.3876 17.8286 22.4838 16.9164 22.7629 15.9427C23.321 13.9948 24.6106 11.7978 26.4999 9.81362C30.2785 5.84467 35.0239 4.22898 37.0994 6.20561C37.6187 6.69959 37.9209 7.37166 38.0246 8.16313H37.4904V10.8405H37.7531C37.195 12.7885 35.9054 14.9855 34.0161 16.9696V16.9689Z"
                fill="#2668B0" />
            <path
                d="M33.9854 16.9866C33.0473 17.9726 32.0484 18.8118 31.0461 19.4866C30.7957 19.6551 30.5446 19.8134 30.2949 19.9608V19.6749H22.84V19.7104C22.6872 19.3836 22.5869 19.0206 22.535 18.6269C22.432 17.8402 22.5275 16.9348 22.8045 15.9666C23.3586 14.0316 24.6399 11.8482 26.5169 9.87705C30.271 5.93402 34.9857 4.32924 37.0476 6.29223C37.5634 6.7828 37.8643 7.4501 37.9667 8.23679H37.4891V10.8971H37.6972C37.1431 12.8321 35.8618 15.0155 33.9847 16.9866H33.9854Z"
                fill="#2668B0" />
            <path
                d="M33.9555 17.0043C33.0234 17.9834 32.0314 18.8178 31.0352 19.4878C30.7862 19.655 30.5371 19.8126 30.2888 19.9593V19.6748H22.8824V19.7103C22.7309 19.3862 22.6306 19.0246 22.5794 18.6343C22.4771 17.853 22.5719 16.9531 22.8476 15.9917C23.3982 14.069 24.6714 11.9006 26.5361 9.94175C30.2656 6.02465 34.9496 4.43011 36.9985 6.38013C37.5109 6.86797 37.8098 7.53049 37.9115 8.31241H37.4898V10.955H37.6433C37.0927 12.8777 35.8195 15.0461 33.9548 17.0049L33.9555 17.0043Z"
                fill="#2668B0" />
            <path
                d="M33.9309 16.9811C33.0043 17.9541 32.0191 18.7824 31.0304 19.4483C30.7834 19.6148 30.5357 19.7711 30.2887 19.9164V19.6749H23.1955V20.1245C23.0945 19.9826 23.0065 19.8304 22.9315 19.6694C22.7807 19.3474 22.6811 18.9885 22.6306 18.6002C22.5289 17.8238 22.6231 16.93 22.8967 15.9747C23.4439 14.065 24.7082 11.9103 26.5606 9.96433C30.2655 6.07248 34.9188 4.48885 36.9542 6.42591C37.4632 6.91034 37.76 7.56877 37.8616 8.34523H37.4904V10.9707H37.5955C37.0483 12.8805 35.784 15.0352 33.9316 16.9811H33.9309Z"
                fill="#2668B0" />
            <path
                d="M33.4116 17.3549C32.5881 18.2194 31.712 18.9563 30.8332 19.5478C30.6135 19.6959 30.3931 19.8344 30.1741 19.964V19.6747H23.6342V19.7443C23.5005 19.4578 23.4118 19.1391 23.3668 18.7939C23.2767 18.1041 23.3606 17.3092 23.6035 16.4604C24.09 14.7629 25.2138 12.8476 26.8608 11.118C30.1543 7.65872 34.2904 6.25044 36.0992 7.97326C37.908 9.69539 36.7051 13.8963 33.4116 17.3549Z"
                fill="#286AB2" />
            <path
                d="M32.8924 17.7288C32.1719 18.4855 31.4057 19.1303 30.6361 19.6475C30.4436 19.7771 30.2512 19.8986 30.0595 20.0118V19.6748H24.337V19.8194C24.2197 19.569 24.1426 19.29 24.103 18.9877C24.0239 18.3839 24.0975 17.6886 24.3104 16.9456C24.7362 15.4602 25.7194 13.7845 27.1604 12.2711C30.0418 9.24441 33.6614 8.01217 35.2443 9.51938C36.8273 11.0266 35.7745 14.7015 32.8931 17.7288H32.8924Z"
                fill="#296BB3" />
            <path
                d="M32.3725 18.1029C31.755 18.7517 31.098 19.3037 30.4389 19.7479V19.6749H25.0398V19.8953C24.9395 19.6804 24.8733 19.4415 24.8392 19.1823C24.7716 18.6644 24.8344 18.0688 25.0166 17.4322C25.3816 16.159 26.2243 14.7227 27.4592 13.4257C29.9292 10.8316 33.0316 9.77536 34.388 11.067C35.7451 12.3586 34.8424 15.5088 32.3725 18.1036V18.1029Z"
                fill="#2A6CB4" />
            <path
                d="M31.8532 18.4767C31.3388 19.0171 30.7909 19.4776 30.2416 19.8474V19.6748H25.7419V19.9702C25.6579 19.7915 25.6027 19.5922 25.5747 19.376C25.5181 18.9447 25.5706 18.448 25.7228 17.9172C26.0264 16.8562 26.7291 15.6594 27.7587 14.578C29.8173 12.4158 32.4025 11.5356 33.5331 12.6123C34.6636 13.689 33.9118 16.3138 31.8532 18.476V18.4767Z"
                fill="#2C6EB6" />
            <path
                d="M31.3334 18.8507C30.922 19.2832 30.4839 19.6517 30.0438 19.9471V19.6742H26.444V20.0447C26.3771 19.9014 26.3328 19.7417 26.3103 19.5698C26.2652 19.2246 26.3069 18.8275 26.4283 18.4031C26.6712 17.5543 27.2334 16.597 28.057 15.7318C29.7034 14.0022 31.7714 13.2981 32.6762 14.1591C33.5809 15.0202 32.9791 17.1203 31.3327 18.85L31.3334 18.8507Z"
                fill="#2D6FB7" />
            <path
                d="M30.8141 19.2246C30.505 19.5487 30.1768 19.825 29.8473 20.0468V19.6742H27.0471V19.7636C27.013 19.505 27.0444 19.2068 27.1358 18.8882C27.318 18.2516 27.7397 17.5331 28.3571 16.885C29.5921 15.5879 31.143 15.0598 31.8219 15.7053C32.5001 16.3514 32.0491 17.9262 30.8141 19.2232V19.2246Z"
                fill="#2E70B8" />
            <path
                d="M30.2949 19.5984C30.0888 19.8147 29.8698 19.9989 29.6501 20.147V19.6748H27.7833V19.9587C27.7608 19.786 27.782 19.5875 27.8427 19.3753C27.9641 18.9509 28.2452 18.4719 28.6567 18.04C29.4802 17.1756 30.5139 16.8235 30.9663 17.254C31.4186 17.6845 31.1177 18.7346 30.2942 19.5998L30.2949 19.5984Z"
                fill="#2E70B8" />
        </g>
        <mask id="mask1_481_940" style="mask-type:luminance" maskUnits="userSpaceOnUse" x="0" y="0"
            width="29" height="18">
            <path
                d="M18.5285 13.8985L28.4785 3.53977C27.642 4.40356 22.3132 9.82582 18.5217 9.8306C14.7738 9.83537 11.6141 6.65448 11.4012 6.43273L6.84613 1.66207C4.85108 -0.489229 2.88946 -0.332981 1.87555 2.33823C0.363571 6.32083 0.541652 11.8618 3.8515 15.1805C8.04835 19.3897 13.8438 18.4686 18.5087 13.919L18.5176 13.9101C18.5217 13.906 18.5258 13.9026 18.5299 13.8985H18.5285Z"
                fill="white" />
        </mask>
        <g mask="url(#mask1_481_940)">
            <path d="M28.4792 -0.489258H0.363525V19.3896H28.4792V-0.489258Z" fill="#999933" />
            <path
                d="M18.2474 14.2049C13.8418 18.8322 6.51929 19.0124 1.89191 14.6067C1.31332 14.0561 0.804321 13.4598 0.3656 12.8287C0.145899 12.5134 -0.0560628 12.1893 -0.240967 11.8577H0.280312V0.101665H0.0524236C0.256432 -0.224476 0.47818 -0.542429 0.717669 -0.85083V-0.57245H19.0293V-0.839231C19.148 -0.685713 19.262 -0.530148 19.3718 -0.372536C19.8112 0.258594 20.1804 0.923839 20.4799 1.61297C21.0789 2.99122 21.3976 4.46431 21.4337 5.94422C21.5068 8.90405 20.4499 11.8912 18.2474 14.2055V14.2049Z"
                fill="#999933" />
            <path
                d="M18.1798 14.1407C13.8096 18.7313 6.54583 18.9093 1.9553 14.5392C1.38148 13.9927 0.876578 13.4011 0.441269 12.7754C0.223615 12.4623 0.023017 12.1409 -0.160522 11.812H0.280246V0.1508H0.130821C0.332783 -0.172611 0.553166 -0.487836 0.790608 -0.794189V-0.572441H18.9556V-0.78259C19.0729 -0.630437 19.1862 -0.476237 19.2953 -0.319989C19.7313 0.305682 20.0977 0.966151 20.3945 1.64982C20.9888 3.01715 21.3047 4.47796 21.3409 5.94628C21.4132 8.88223 20.3652 11.8462 18.1798 14.1414V14.1407Z"
                fill="#9B9B31" />
            <path
                d="M18.113 14.0773C13.7783 18.6303 6.5725 18.8077 2.01949 14.473C1.45045 13.9313 0.949639 13.3445 0.517059 12.7236C0.300769 12.4132 0.102219 12.0945 -0.0799561 11.7684H0.279618V0.199935H0.209341C0.409938 -0.120748 0.628274 -0.433924 0.863669 -0.737549V-0.572432H18.8826V-0.72595C18.9993 -0.575161 19.1119 -0.422325 19.2197 -0.26676C19.6516 0.354135 20.0152 1.00915 20.31 1.68667C20.8995 3.04309 21.2127 4.4923 21.2488 5.94834C21.3205 8.8604 20.2806 11.8004 18.1136 14.0773H18.113Z"
                fill="#9D9E2F" />
            <path
                d="M18.0461 14.0133C13.7462 18.5294 6.5998 18.7055 2.08364 14.4056C1.51937 13.8679 1.02265 13.2859 0.593485 12.6705C0.379242 12.3628 0.182057 12.0462 0.00192893 11.7228H0.280309V1.22488H-0.255981C-0.0915465 0.893276 0.0899458 0.567136 0.288496 0.249183C0.487046 -0.0687704 0.704019 -0.379217 0.937366 -0.680795V-0.572309H18.4493V-1.11133C18.6977 -0.822032 18.929 -0.522501 19.1433 -0.2141C19.5717 0.401337 19.9327 1.05089 20.2247 1.72364C20.8088 3.06914 21.1199 4.50607 21.1554 5.9505C21.2263 8.83937 20.1954 11.7549 18.0454 14.0133H18.0461Z"
                fill="#9FA02D" />
            <path
                d="M17.9785 13.949C13.7141 18.4283 6.62637 18.6023 2.14705 14.3379C1.58688 13.805 1.09426 13.2278 0.669181 12.6171C0.456303 12.3114 0.261165 11.9983 0.0824016 11.6776H0.280269V1.26564H-0.173462C-0.0103916 0.936767 0.169054 0.613354 0.366922 0.298131C0.564107 -0.0170933 0.779032 -0.324811 1.01033 -0.624342V-0.572487H18.379V-1.05078C18.6253 -0.763532 18.8546 -0.466731 19.0675 -0.161059C19.4925 0.449602 19.8501 1.0937 20.1401 1.76099C20.7193 3.09489 21.0284 4.5209 21.0632 5.95306C21.1335 8.81805 20.1114 11.7096 17.9792 13.9496L17.9785 13.949Z"
                fill="#A1A22B" />
            <path
                d="M17.9117 13.8856C13.6828 18.3281 6.65299 18.5007 2.2112 14.2718C1.6558 13.743 1.16727 13.1706 0.745611 12.5654C0.534779 12.2624 0.341004 11.9513 0.163606 11.6334H0.28028V1.30671H-0.09021C0.0714958 0.980568 0.249576 0.659886 0.445397 0.347391C0.641218 0.0348966 0.854097 -0.270775 1.08403 -0.567577C1.19934 -0.715637 1.31806 -0.861649 1.44156 -1.00562V-0.572353H18.3088V-0.990604C18.553 -0.705402 18.7802 -0.411329 18.9911 -0.108386C19.4127 0.497498 19.7675 1.13613 20.0548 1.79797C20.6293 3.12095 20.9356 4.53537 20.9704 5.95592C21.04 8.79703 20.0261 11.6647 17.9117 13.8863V13.8856Z"
                fill="#A3A42A" />
            <path
                d="M17.8441 13.8215C13.6507 18.2265 6.67957 18.3977 2.27462 14.2043C1.17339 13.1556 0.336885 11.9336 -0.233521 10.6215H0.279571V1.34766H-0.00767845C0.152663 1.02425 0.329379 0.706299 0.523153 0.395851C0.716927 0.0854031 0.928441 -0.216858 1.15633 -0.51093C1.27027 -0.657625 1.38831 -0.802955 1.51113 -0.945557V-0.573019H18.2371V-0.931228C18.4793 -0.648754 18.7052 -0.356729 18.9139 -0.0565162C19.3322 0.54391 19.6836 1.17777 19.9688 1.83346C20.5385 3.14553 20.8421 4.54766 20.8769 5.95662C20.9458 8.77385 19.9408 11.6184 17.8434 13.8208L17.8441 13.8215Z"
                fill="#A4A628" />
            <path
                d="M17.7773 13.7573C13.6186 18.1254 6.7069 18.2953 2.3388 14.1366C1.24712 13.0968 0.417436 11.885 -0.148193 10.5846H0.279611V1.38916H0.0756019C0.234578 1.06847 0.40993 0.75325 0.60234 0.445531C0.794749 0.137813 1.00422 -0.1624 1.23006 -0.453743C1.34332 -0.599756 1.46068 -0.743041 1.58213 -0.884277V-0.571783H18.1675V-0.869267C18.4077 -0.58884 18.6315 -0.299543 18.8389 -0.00205928C19.2538 0.593591 19.6024 1.22131 19.8849 1.87223C20.4498 3.17338 20.7507 4.56391 20.7855 5.96058C20.8545 8.75461 19.8569 11.5746 17.7779 13.7586L17.7773 13.7573Z"
                fill="#A6A826" />
            <path
                d="M17.7104 13.6938C13.5872 18.0251 6.73352 18.1929 2.40294 14.0698C1.32013 13.0388 0.497951 11.8373 -0.0629022 10.5477H0.280296V2.40171H-0.262817C-0.0144592 1.74397 0.300083 1.10465 0.68149 0.494673C0.872535 0.189683 1.07995 -0.107801 1.30375 -0.397098C1.41565 -0.541746 1.53232 -0.684347 1.65241 -0.824219V-0.572449H18.0973V-0.80989C18.3354 -0.532193 18.5571 -0.244943 18.7625 0.0504939C19.1733 0.640686 19.5192 1.26363 19.7996 1.90909C20.3598 3.19932 20.6579 4.57757 20.6921 5.96265C20.7603 8.7328 19.7716 11.5289 17.7097 13.6945L17.7104 13.6938Z"
                fill="#A8AA25" />
            <path
                d="M17.6428 13.6297C13.5551 17.9234 6.76009 18.0906 2.46636 14.0029C1.3931 12.9808 0.577065 11.7895 0.0216705 10.5109H0.279581V2.43447H-0.17688C0.0694314 1.78219 0.381244 1.14833 0.75924 0.543814C0.948238 0.241554 1.15429 -0.0538836 1.37604 -0.340451C1.48726 -0.483734 1.60257 -0.62497 1.72197 -0.76416V-0.572433H18.0263V-0.749832C18.2624 -0.474182 18.4821 -0.189662 18.6861 0.103046C19.0934 0.688462 19.4366 1.30595 19.7143 1.94526C20.2697 3.2239 20.5658 4.59123 20.5992 5.96403C20.6668 8.7103 19.6863 11.4825 17.6428 13.6297Z"
                fill="#A9AC23" />
            <path
                d="M17.576 13.5663C13.5231 17.8232 6.78745 17.989 2.53056 13.9361C1.46617 12.9229 0.657644 11.7418 0.107026 10.4741H0.28033V2.46726H-0.0894775C0.398369 1.17361 1.14822 -0.0456649 2.16076 -1.10938V-0.571721H17.9567V-0.689077C18.1908 -0.416156 18.4091 -0.133683 18.6111 0.156296C19.015 0.736935 19.3548 1.34896 19.6304 1.98282C20.1811 3.25054 20.4744 4.60559 20.5079 5.96679C20.5747 8.68918 19.6031 11.4375 17.5767 13.5663H17.576Z"
                fill="#ABAE21" />
            <path
                d="M17.5092 13.5021C13.4918 17.7222 6.81408 17.8859 2.59472 13.8685C1.53988 12.8642 0.738173 11.6933 0.192331 10.4365H0.280348V2.4993H-0.00280762C0.480945 1.21725 1.22397 0.00820935 2.22832 -1.04663V-0.573113H17.8865V-0.629744C18.1185 -0.35887 18.3348 -0.0791255 18.5347 0.208124C18.9352 0.783305 19.2722 1.39055 19.5452 2.01896C20.091 3.27576 20.3817 4.61921 20.4151 5.96881C20.4813 8.668 19.5179 11.3924 17.5092 13.5021Z"
                fill="#ADB020" />
            <path
                d="M17.4415 13.438C13.4596 17.6206 6.84059 17.7836 2.65807 13.8017C1.6121 12.8062 0.817898 11.6456 0.276832 10.3998H0.280244V2.53212H0.0837402C0.563399 1.26099 1.2996 0.0635483 2.29508 -0.982422V-0.57304H17.4593V-0.965364C17.5821 -0.835727 17.7008 -0.704043 17.8161 -0.56963C18.046 -0.301485 18.2603 -0.0237864 18.4588 0.260734C18.8559 0.831139 19.1896 1.43225 19.4605 2.05519C20.0015 3.30107 20.2895 4.63225 20.3229 5.97024C20.3884 8.64555 19.4338 11.3461 17.4429 13.4374L17.4415 13.438Z"
                fill="#AEB21E" />
            <path
                d="M17.3748 13.3745C13.4283 17.5202 6.86797 17.6812 2.7223 13.7348C1.68588 12.7482 0.898503 11.5978 0.362213 10.3635C0.0940681 9.74604 -0.111305 9.1074 -0.253906 8.45785H0.280337V2.56616H0.170486C0.645369 1.30663 1.37543 0.119426 2.36204 -0.916992V-0.571064H17.3918V-0.899252C17.5133 -0.770979 17.6313 -0.639977 17.7452 -0.50761C17.9731 -0.241512 18.1853 0.0327738 18.3825 0.315929C18.7762 0.880876 19.1071 1.47721 19.3753 2.09469C19.9116 3.32966 20.1974 4.64923 20.2295 5.97495C20.295 8.62638 19.348 11.3031 17.3748 13.3759V13.3745Z"
                fill="#B0B41D" />
            <path
                d="M17.3078 13.3104C13.3962 17.4192 6.89453 17.5788 2.78639 13.6672C1.75952 12.6895 0.978966 11.5493 0.447453 10.326C0.181355 9.71394 -0.0219713 9.08145 -0.163208 8.43735H0.280971V2.5982H0.257773C0.728562 1.34959 1.4518 0.1733 2.43022 -0.854248V-0.572457H17.3256V-0.83719C17.4463 -0.710282 17.563 -0.580644 17.6763 -0.44896C17.9021 -0.185591 18.113 0.0866481 18.3074 0.367075C18.6977 0.927245 19.0252 1.51812 19.2913 2.13014C19.8228 3.3542 20.106 4.66149 20.138 5.9756C20.2028 8.60383 19.2647 11.2559 17.3092 13.3104H17.3078Z"
                fill="#B1B51B" />
            <path
                d="M17.2403 13.2463C13.3641 17.3176 6.92111 17.4759 2.84981 13.5997C1.83181 12.6309 1.05876 11.501 0.532024 10.2885C0.268655 9.68196 0.0666939 9.05492 -0.0731782 8.41628H0.280254V4.5292H-0.168701C-0.060215 3.88443 0.110361 3.24852 0.343709 2.62967C0.810404 1.39266 1.5275 0.226602 2.49637 -0.791394V-0.573739H16.8868V-1.14551C20.9581 2.73065 21.1164 9.17364 17.2403 13.2449V13.2463Z"
                fill="#B2B71A" />
            <path
                d="M17.1735 13.1828C13.3328 17.2172 6.94847 17.3742 2.91402 13.5335C0.896449 11.6128 -0.150886 9.0569 -0.214341 6.47643C-0.277795 3.89596 0.643314 1.29093 2.564 -0.725957V-0.571757H16.8234V-1.07666C20.8579 2.76402 21.0148 9.14833 17.1741 13.1828H17.1735Z"
                fill="#B4B819" />
            <path
                d="M17.1065 13.1187C13.3007 17.1163 6.97503 17.2719 2.9781 13.466C0.979633 11.563 -0.0588315 9.03032 -0.121603 6.47373C-0.184375 3.91714 0.727863 1.33599 2.63081 -0.662474V-0.572409H16.7593V-1.00977C20.7569 2.79612 20.9124 9.12175 17.1065 13.1187Z"
                fill="#B5BA17" />
            <path
                d="M17.039 13.0553C13.2686 17.0154 7.00165 17.1696 3.04157 13.3992C1.06152 11.514 0.032611 9.00447 -0.0294785 6.47176C-0.0915681 3.93837 0.812483 1.38178 2.69769 -0.598259V-0.571649H16.6951V-0.942139C20.6552 2.82827 20.8094 9.09522 17.039 13.0553Z"
                fill="#B6BB16" />
            <path
                d="M16.9722 12.991C13.2373 16.9143 7.02901 17.0671 3.10577 13.3322C1.14415 11.4647 0.12547 8.97908 0.0633808 6.46957C0.00197352 3.96006 0.897154 1.42735 2.76462 -0.534269C2.88129 -0.657084 3.00069 -0.775804 3.12214 -0.891113V-0.571796H16.6317V-0.874739C20.555 2.86019 20.7078 9.06846 16.9729 12.9917L16.9722 12.991Z"
                fill="#B8BD15" />
            <path
                d="M16.9053 12.927C13.2052 16.8134 7.05557 16.9642 3.16918 13.2647C1.22598 11.415 0.216852 8.95255 0.155445 6.46692C0.094038 3.9813 0.981714 1.47247 2.83144 -0.470729C3.06274 -0.713629 3.30359 -0.942201 3.55263 -1.15576V-0.572393H16.5669V-0.80847C20.4533 2.89166 20.6041 9.04125 16.9046 12.9276L16.9053 12.927Z"
                fill="#B9BE14" />
            <path
                d="M16.8378 12.8636C13.1731 16.7125 7.0822 16.8626 3.23265 13.1979C1.30787 11.3659 0.308297 8.92671 0.247572 6.46496C0.186847 4.00321 1.06565 1.51759 2.89832 -0.406509C3.12757 -0.647362 3.36569 -0.873203 3.61269 -1.08472V-0.571626H16.5034V-0.740837C20.3523 2.92381 20.5024 9.01473 16.8378 12.8643V12.8636Z"
                fill="#BAC013" />
            <path
                d="M16.7708 12.7994C13.1417 16.6115 7.10943 16.7595 3.29673 13.1304C1.39037 11.3154 0.40035 8.90009 0.340307 6.46222C0.280265 4.02367 1.15088 1.5626 2.96513 -0.343068C3.19165 -0.581192 3.42841 -0.804987 3.67267 -1.01514V-0.572322H16.4392V-0.673985C20.2513 2.95518 20.3993 8.98742 16.7702 12.8001L16.7708 12.7994Z"
                fill="#BBC112" />
            <path
                d="M16.704 12.7352C13.1103 16.5103 7.13604 16.657 3.36086 13.0633C1.47361 11.2662 0.493137 8.87468 0.433777 6.46001C0.374416 4.04534 1.23617 1.60816 3.03335 -0.279091C3.25783 -0.515167 3.49186 -0.736916 3.73408 -0.944336V-0.571799H16.3765V-0.606596C20.1516 2.98709 20.2983 8.96134 16.7047 12.7365L16.704 12.7352Z"
                fill="#BCC210" />
            <path
                d="M16.6364 12.6718C13.0775 16.4101 7.16266 16.5555 3.42432 12.9966C1.5555 11.2171 0.58458 8.84884 0.525902 6.45805C0.467224 4.06726 1.32078 1.65396 3.09955 -0.214868C3.32198 -0.448216 3.55328 -0.667918 3.79345 -0.873291V-0.571713H15.9548V-0.862374C16.0756 -0.758664 16.195 -0.65086 16.3117 -0.539645C20.05 3.01925 20.1953 8.93413 16.6364 12.6725V12.6718Z"
                fill="#BDC40F" />
            <path
                d="M16.5696 12.6075C13.0462 16.3083 7.19002 16.4523 3.48853 12.9289C1.63812 11.1672 0.676757 8.82211 0.618761 6.4552C0.560765 4.0883 1.40546 1.69887 3.16716 -0.151533C3.38754 -0.382834 3.6168 -0.600488 3.85424 -0.803815V-0.572514H15.5298V-1.09106C15.7768 -0.899337 16.0163 -0.693282 16.2476 -0.47358C19.9484 3.04983 20.0924 8.90604 16.569 12.6075H16.5696Z"
                fill="#BEC50E" />
            <path
                d="M16.5027 12.5436C13.0148 16.2076 7.21656 16.3502 3.55259 12.8616C-0.111374 9.37365 -0.253976 3.57544 3.23464 -0.0885262C3.45298 -0.31778 3.6795 -0.532705 3.91489 -0.733984V-0.572961H15.4738V-1.01782C15.7181 -0.828142 15.9555 -0.624134 16.1847 -0.40648C19.8487 3.08145 19.9913 8.87966 16.5027 12.5436Z"
                fill="#BFC60E" />
            <path
                d="M16.4352 12.48C12.9821 16.1071 7.24323 16.2476 3.61611 12.7952C-0.011016 9.34206 -0.15157 3.60321 3.30088 -0.0239102C3.51649 -0.250435 3.74165 -0.463313 3.97431 -0.663228V-0.572481H15.4165V-0.944336C15.6588 -0.756703 15.8935 -0.554741 16.12 -0.339134C19.7471 3.114 19.8877 8.85285 16.4352 12.48Z"
                fill="#C0C70D" />
            <path
                d="M16.3683 12.416C12.9506 16.0056 7.27043 16.1455 3.68016 12.7278C0.0898792 9.31015 -0.0493112 3.62998 3.36834 0.0397023C3.79546 -0.409253 4.25807 -0.803624 4.74728 -1.14478V-0.573005H15.3598V-0.871172C15.5993 -0.685586 15.832 -0.485671 16.0564 -0.272111C19.646 3.14554 19.7859 8.82572 16.3683 12.416Z"
                fill="#C1C80C" />
            <path
                d="M16.3008 12.3525C12.9186 15.9053 7.29645 16.0431 3.74369 12.6609C0.190944 9.27876 0.0531195 3.65659 3.43529 0.103837C3.85832 -0.340342 4.31615 -0.731302 4.7999 -1.06836V-0.573007H15.3026V-0.798167C15.54 -0.613945 15.77 -0.41676 15.9917 -0.205246C19.5445 3.17693 19.6823 8.7991 16.3001 12.3519L16.3008 12.3525Z"
                fill="#C2C90B" />
            <path
                d="M16.2339 12.2884C12.8872 15.8043 7.32374 15.9408 3.80784 12.5941C0.291932 9.24737 0.155472 3.68388 3.50217 0.167971C3.92042 -0.271432 4.37347 -0.658297 4.85313 -0.991943V-0.572328H15.246V-0.724481C15.4807 -0.542306 15.7086 -0.347168 15.9283 -0.137701C19.4442 3.20899 19.5806 8.77249 16.2339 12.2884Z"
                fill="#C3CA0A" />
            <path
                d="M16.167 12.2243C12.8551 15.7026 7.35095 15.8384 3.87189 12.5265C0.393506 9.21461 0.257728 3.71048 3.56963 0.231417C3.98378 -0.20321 4.43206 -0.585982 4.90626 -0.916216V-0.573018H14.4735V-1.15161C14.9634 -0.845257 15.4301 -0.485001 15.8647 -0.070843C19.3431 3.24105 19.4789 8.74519 16.167 12.2243Z"
                fill="#C3CB09" />
            <path
                d="M16.0995 12.1608C12.8231 15.6023 7.37696 15.736 3.93543 12.4596C0.493893 9.18318 0.360161 3.73704 3.63658 0.295507C4.04596 -0.135026 4.48946 -0.513021 4.95888 -0.839844V-0.572382H14.4245V-1.07251C14.9089 -0.769567 15.3708 -0.412723 15.8007 -0.00334156C19.2422 3.27308 19.3759 8.71922 16.0995 12.1608Z"
                fill="#C4CC09" />
            <path
                d="M16.0326 12.0967C12.7916 15.5014 7.40417 15.6338 3.99948 12.3922C0.594786 9.15121 0.462421 3.76375 3.70404 0.35906C4.10933 -0.0666974 4.54805 -0.440599 5.01202 -0.76401V-0.572965H14.3753V-0.994629C14.8549 -0.694416 15.3114 -0.342347 15.7371 0.0629404C19.1418 3.30388 19.2742 8.69134 16.0326 12.096V12.0967Z"
                fill="#C5CD08" />
            <path
                d="M15.9658 12.0326C12.7597 15.3997 7.43157 15.5308 4.06372 12.3253C0.696557 9.11915 0.565555 3.79105 3.77101 0.423201C4.17152 0.00222003 4.60547 -0.36827 5.06466 -0.687588V-0.572279H14.3262V-0.914795C14.8004 -0.617993 15.2521 -0.269336 15.6731 0.131175C19.0403 3.33732 19.1713 8.66542 15.9658 12.0333V12.0326Z"
                fill="#C6CD07" />
            <path
                d="M15.8982 11.969C12.7276 15.2994 7.45748 15.429 4.12716 12.2583C0.796841 9.08767 0.667203 3.81756 3.83786 0.487241C4.23428 0.0710365 4.66345 -0.295361 5.11718 -0.611267V-0.572375H14.2771V-0.836426C14.7458 -0.543036 15.1927 -0.198473 15.609 0.197944C18.9393 3.36861 19.0689 8.63871 15.8982 11.969Z"
                fill="#C6CE07" />
            <path
                d="M15.8314 11.9048C12.6962 15.1983 7.48479 15.3259 4.19131 12.1907C0.897838 9.0555 0.770247 3.84407 3.90543 0.550594C4.29707 0.139166 4.72146 -0.223138 5.17042 -0.535633C5.39489 -0.69188 5.62551 -0.835845 5.86159 -0.967529V-0.573158H14.228V-0.758745C14.692 -0.468766 15.1334 -0.127615 15.5448 0.264026C18.8383 3.39921 18.9659 8.61064 15.8307 11.9041L15.8314 11.9048Z"
                fill="#C7CF06" />
            <path
                d="M15.7644 11.8415C12.6647 15.0975 7.51196 15.2244 4.25533 12.1247C0.999383 9.025 0.872475 3.87225 3.97218 0.615619C4.35972 0.208284 4.77934 -0.149243 5.22352 -0.458326C5.44527 -0.612527 5.67384 -0.755128 5.90651 -0.884766V-0.571589H14.1787V-0.67871C14.6372 -0.392143 15.0739 -0.0550857 15.4813 0.332462C18.7372 3.43216 18.8641 8.58491 15.7644 11.8415Z"
                fill="#C7D005" />
            <path
                d="M15.697 11.7772C12.6321 14.9963 7.538 15.1218 4.31889 12.0569C1.09979 8.99203 0.974245 3.89796 4.03915 0.678857C4.80538 -0.126261 5.69851 -0.737604 6.65715 -1.15381V-0.572486H14.1297V-0.600461C14.5828 -0.316623 15.0147 0.016341 15.4172 0.399795C18.6363 3.4647 18.7619 8.55877 15.697 11.7779V11.7772Z"
                fill="#C8D005" />
            <path
                d="M15.63 11.7132C12.6006 14.8954 7.56518 15.0189 4.38292 11.9895C1.20066 8.96008 1.07717 3.92468 4.10659 0.742422C4.86395 -0.0531428 5.74685 -0.657663 6.69456 -1.06909V-0.572376H13.3934V-0.906021C13.6274 -0.790712 13.8567 -0.66244 14.0805 -0.522568C14.5288 -0.242141 14.9552 0.0874113 15.353 0.466089C18.5352 3.49551 18.6587 8.53091 15.6293 11.7132H15.63Z"
                fill="#C9D104" />
            <path
                d="M15.5632 11.6497C12.5692 14.7944 7.59183 14.9172 4.44709 11.9226C1.30236 8.92867 1.17955 3.95128 4.17417 0.806543C4.92266 0.0205303 5.79532 -0.577167 6.73212 -0.98382V-0.572391H12.6477V-1.12915C13.6036 -0.768895 14.5042 -0.214864 15.2902 0.533622C18.435 3.52757 18.5578 8.50496 15.5632 11.6497Z"
                fill="#C9D104" />
            <path
                d="M15.4957 11.5856C12.5365 14.6935 7.6185 14.8143 4.51061 11.8558C1.40272 8.89667 1.28195 3.97864 4.24041 0.870746C4.98003 0.0936036 5.84246 -0.496588 6.76835 -0.898464V-0.571642H12.6143V-1.04175C13.5586 -0.685586 14.449 -0.138379 15.2262 0.601237C18.3341 3.56038 18.4548 8.47842 15.4964 11.5863L15.4957 11.5856Z"
                fill="#C9D203" />
            <path
                d="M15.4287 11.5215C12.5051 14.5925 7.6457 14.7119 4.57466 11.7882C1.50361 8.86457 1.38421 4.00521 4.30788 0.934168C5.03862 0.166577 5.89082 -0.416791 6.8051 -0.813891V-0.572357H12.5815V-0.955811C13.5149 -0.603742 14.3944 -0.0633594 15.1619 0.668069C18.233 3.59174 18.3524 8.4511 15.4287 11.5221V11.5215Z"
                fill="#CAD203" />
            <path
                d="M15.3619 11.458C12.4737 14.4922 7.67233 14.6095 4.63881 11.7213C1.60461 8.83316 1.48725 4.03179 4.37544 0.998272C5.09732 0.239552 5.93928 -0.336312 6.84265 -0.729319V-0.573071H12.5494V-0.869873C13.4712 -0.521899 14.3405 0.0123441 15.0985 0.73422C18.1327 3.62241 18.2501 8.42377 15.3619 11.4573V11.458Z"
                fill="#CAD303" />
            <path
                d="M15.2944 11.3939C12.4417 14.3906 7.69901 14.5073 4.70234 11.6545C1.70567 8.80184 1.58899 4.05915 4.4417 1.06248C5.15471 0.313308 5.98643 -0.255733 6.87889 -0.643963V-0.572321H12.5154V-0.782471C13.4263 -0.439272 14.2846 0.0888299 15.0338 0.801836C18.0304 3.65454 18.1471 8.39723 15.2944 11.3939Z"
                fill="#CBD302" />
            <path
                d="M15.2275 11.3304C12.4095 14.2903 7.72622 14.4056 4.76639 11.5877C1.80656 8.76975 1.69125 4.08642 4.50916 1.12659C5.2133 0.386977 6.03479 -0.17524 6.91633 -0.558694C7.35709 -0.750421 7.81287 -0.897116 8.27684 -0.998779V-0.57234H12.4832V-0.695837C13.3825 -0.356732 14.2299 0.164547 14.9702 0.868683C17.9301 3.68659 18.0454 8.36992 15.2275 11.3297V11.3304Z"
                fill="#CBD402" />
            <path
                d="M15.1606 11.2662C12.3782 14.1892 7.75285 14.3024 4.83054 11.52C1.90756 8.73758 1.7943 4.11225 4.57673 1.18995C5.96794 -0.271542 7.81971 -1.03026 9.68922 -1.07666C11.5587 -1.12237 13.4453 -0.455082 14.9068 0.936134C17.8298 3.71856 17.943 8.34389 15.1606 11.2662Z"
                fill="#CBD402" />
            <path
                d="M15.093 11.2022C12.3461 14.0877 7.77944 14.2002 4.89398 11.4526C2.00852 8.70565 1.89594 4.139 4.64357 1.25354C6.01705 -0.189529 7.84562 -0.938696 9.69125 -0.984411C11.5369 -1.02944 13.4002 -0.371021 14.8426 1.00245C17.7281 3.74941 17.8407 8.31606 15.093 11.2015V11.2022Z"
                fill="#CCD401" />
            <path
                d="M15.0262 11.1386C12.314 13.9872 7.80672 14.0978 4.9581 11.3863C2.10949 8.67481 1.99896 4.16684 4.71043 1.31822C6.06616 -0.105742 7.87154 -0.846041 9.69328 -0.890391C11.515 -0.935423 13.3545 -0.285188 14.7785 1.07123C17.6271 3.78338 17.7376 8.29068 15.0262 11.1393V11.1386Z"
                fill="#CCD501" />
            <path
                d="M14.9593 11.0745C12.2827 13.8863 7.83336 13.9955 5.02227 11.3188C2.21119 8.64214 2.10133 4.19284 4.77801 1.38175C6.116 -0.0237923 7.8975 -0.754538 9.69605 -0.798206C11.4946 -0.841873 13.3095 -0.200509 14.7151 1.13749C17.5268 3.81416 17.636 8.26346 14.9593 11.0745Z"
                fill="#CCD501" />
            <path
                d="M14.8919 11.0104C12.2507 13.7846 7.86006 13.8924 5.08581 11.2512C2.31157 8.61002 2.20377 4.2194 4.84496 1.44516C6.1659 0.0580397 7.92351 -0.662472 9.69818 -0.706139C11.4729 -0.749807 13.2639 -0.11663 14.651 1.20431C17.4253 3.8455 17.5331 8.23612 14.8919 11.0104Z"
                fill="#CCD501" />
            <path
                d="M14.8249 10.9469C12.2185 13.6843 7.88723 13.7907 5.14984 11.185C2.41244 8.57863 2.306 4.24737 4.91171 1.50997C6.21491 0.141273 7.94933 -0.569687 9.70011 -0.612672C11.4509 -0.655657 13.2181 -0.0306683 14.5868 1.27253C17.3242 3.87893 17.4306 8.21019 14.8249 10.9476V10.9469Z"
                fill="#CCD501" />
            <path
                d="M14.7575 10.8829C12.1865 13.5835 7.91327 13.6885 5.2134 11.1176C2.51284 8.5467 2.40777 4.27344 4.97869 1.57356C6.26414 0.223287 7.97536 -0.47812 9.70227 -0.520423C11.4292 -0.562726 13.1725 0.0533937 14.5227 1.33885C17.2233 3.90977 17.3284 8.18303 14.7575 10.8829Z"
                fill="#CDD500" />
            <path
                d="M9.86799 12.8861C13.5451 12.8861 16.5259 9.90529 16.5259 6.22822C16.5259 2.55116 13.5451 -0.429688 9.86799 -0.429688C6.19093 -0.429688 3.21008 2.55116 3.21008 6.22822C3.21008 9.90529 6.19093 12.8861 9.86799 12.8861Z"
                fill="#CDD600" />
            <path
                d="M9.86805 12.794C13.4942 12.794 16.4338 9.85434 16.4338 6.22815C16.4338 2.60196 13.4942 -0.337646 9.86805 -0.337646C6.24186 -0.337646 3.30225 2.60196 3.30225 6.22815C3.30225 9.85434 6.24186 12.794 9.86805 12.794Z"
                fill="#CDD600" />
            <path
                d="M9.86803 12.7011C13.443 12.7011 16.341 9.80307 16.341 6.22813C16.341 2.65319 13.443 -0.244873 9.86803 -0.244873C6.29308 -0.244873 3.39502 2.65319 3.39502 6.22813C3.39502 9.80307 6.29308 12.7011 9.86803 12.7011Z"
                fill="#CDD600" />
            <path
                d="M9.86801 12.6083C13.3917 12.6083 16.2482 9.75181 16.2482 6.22811C16.2482 2.70442 13.3917 -0.1521 9.86801 -0.1521C6.34431 -0.1521 3.48779 2.70442 3.48779 6.22811C3.48779 9.75181 6.34431 12.6083 9.86801 12.6083Z"
                fill="#CDD600" />
            <path
                d="M9.86799 12.5155C13.3404 12.5155 16.1554 9.70054 16.1554 6.22809C16.1554 2.75565 13.3404 -0.0593262 9.86799 -0.0593262C6.39554 -0.0593262 3.58057 2.75565 3.58057 6.22809C3.58057 9.70054 6.39554 12.5155 9.86799 12.5155Z"
                fill="#CDD600" />
            <path
                d="M9.86797 12.4227C13.2892 12.4227 16.0626 9.64927 16.0626 6.22807C16.0626 2.80688 13.2892 0.0334473 9.86797 0.0334473C6.44677 0.0334473 3.67334 2.80688 3.67334 6.22807C3.67334 9.64927 6.44677 12.4227 9.86797 12.4227Z"
                fill="#CDD600" />
            <path
                d="M9.86802 12.3305C13.2383 12.3305 15.9705 9.59833 15.9705 6.228C15.9705 2.85768 13.2383 0.125488 9.86802 0.125488C6.49769 0.125488 3.7655 2.85768 3.7655 6.228C3.7655 9.59833 6.49769 12.3305 9.86802 12.3305Z"
                fill="#CDD600" />
            <path
                d="M9.868 12.238C13.1871 12.238 15.8777 9.54731 15.8777 6.22823C15.8777 2.90915 13.1871 0.218506 9.868 0.218506C6.54892 0.218506 3.85828 2.90915 3.85828 6.22823C3.85828 9.54731 6.54892 12.238 9.868 12.238Z"
                fill="#CDD600" />
            <path
                d="M9.86798 12.1451C13.1358 12.1451 15.7849 9.49604 15.7849 6.22821C15.7849 2.96038 13.1358 0.311279 9.86798 0.311279C6.60015 0.311279 3.95105 2.96038 3.95105 6.22821C3.95105 9.49604 6.60015 12.1451 9.86798 12.1451Z"
                fill="#CDD600" />
            <path
                d="M9.86801 9.18671C11.5019 9.18671 12.8265 7.86216 12.8265 6.22824C12.8265 4.59433 11.5019 3.26978 9.86801 3.26978C8.2341 3.26978 6.90955 4.59433 6.90955 6.22824C6.90955 7.86216 8.2341 9.18671 9.86801 9.18671Z"
                fill="#CDD600" />
        </g>
    </g>
    <defs>
        <clipPath id="clip0_481_940">
            <rect width="35.9574" height="32" fill="white" transform="translate(0.953125)" />
        </clipPath>
    </defs>
</svg>
    