<svg width="24" height="24" viewBox="0 0 24 24" fill="none" xmlns="http://www.w3.org/2000/svg">
    <mask id="mask0_485_2506" style="mask-type:alpha" maskUnits="userSpaceOnUse" x="0" y="0"
        width="24" height="24">
        <rect width="24" height="24" fill="#D9D9D9" />
    </mask>
    <g mask="url(#mask0_485_2506)">
        <path
            d="M8 13C7.71667 13 7.47917 12.9042 7.2875 12.7125C7.09583 12.5208 7 12.2833 7 12C7 11.7167 7.09583 11.4792 7.2875 11.2875C7.47917 11.0958 7.71667 11 8 11H16C16.2833 11 16.5208 11.0958 16.7125 11.2875C16.9042 11.4792 17 11.7167 17 12C17 12.2833 16.9042 12.5208 16.7125 12.7125C16.5208 12.9042 16.2833 13 16 13H8Z"
            fill="#44474E" />
    </g>
</svg>
    