<svg width="135" height="40" viewBox="0 0 135 40" fill="none" xmlns="http://www.w3.org/2000/svg">
    <g clip-path="url(#clip0_457_3622)">
        <path
            d="M129.811 39.9303H4.76598C2.17365 39.9303 0.0551758 37.8119 0.0551758 35.2195V4.7805C0.0551758 2.18817 2.17365 0.0697021 4.76598 0.0697021H129.811C132.404 0.0697021 134.592 2.18817 134.592 4.7805V35.2195C134.592 37.7979 132.39 39.9303 129.811 39.9303Z"
            fill="#A6A6A6" />
        <path
            d="M133.63 35.2056C133.63 37.3101 131.916 39.0244 129.811 39.0244H4.76586C2.64739 39.0244 0.933105 37.3101 0.933105 35.2056V4.76657C0.933105 2.66204 2.64739 0.947754 4.76586 0.947754H129.811C131.93 0.947754 133.63 2.66204 133.63 4.76657V35.2056Z"
            fill="black" />
        <path
            d="M92.3357 22.054C92.4158 22.3075 92.4825 22.5745 92.5626 22.8281C92.5893 22.9348 92.616 23.055 92.656 23.1617C92.696 23.2685 92.7094 23.402 92.7361 23.5087C92.7628 23.6289 92.7895 23.7356 92.8028 23.8558C92.8162 23.9625 92.8429 24.0693 92.8429 24.1627C92.8429 24.1894 92.8428 24.2295 92.8562 24.2695C92.8562 24.3095 92.8562 24.3496 92.8562 24.403C92.8562 24.6432 92.8162 24.8834 92.7494 25.1103C92.6827 25.3372 92.5759 25.5641 92.4558 25.7643C92.3357 25.9779 92.1755 26.1781 92.002 26.3649C91.8285 26.5651 91.6417 26.7386 91.4281 26.9121C91.2279 27.0857 91.001 27.2325 90.7741 27.3793C90.5472 27.5261 90.3203 27.6596 90.0801 27.7663L89.7197 27.0323C90.0134 26.8855 90.2936 26.7119 90.5739 26.5251C90.8542 26.3382 91.0944 26.1247 91.308 25.8978C91.5215 25.6709 91.695 25.4307 91.8285 25.1771C91.962 24.9235 92.0287 24.6566 92.0287 24.3896C92.0287 24.3763 92.0287 24.3496 92.0287 24.3229C92.0287 24.2962 92.0287 24.2562 92.0154 24.2295C92.002 24.1494 91.9887 24.0426 91.9753 23.9492C91.962 23.8424 91.9353 23.7356 91.9086 23.6289C91.8819 23.5221 91.8552 23.4153 91.8285 23.3085C91.8018 23.2018 91.7751 23.095 91.7484 23.0016C91.6817 22.7613 91.615 22.5344 91.5349 22.2942L92.3357 22.054ZM92.5359 20.3456L91.8552 21.0263L91.1612 20.3322L91.8419 19.6516L92.5359 20.3456Z"
            fill="white" />
        <path
            d="M94.3109 24.7633C94.3509 24.1227 94.3776 23.5221 94.3909 22.9615C94.4043 22.401 94.4043 21.8671 94.3909 21.3866C94.3776 20.9061 94.3643 20.479 94.3376 20.092C94.3109 19.7049 94.2842 19.3846 94.2575 19.1177C94.2308 18.8507 94.2174 18.6372 94.1907 18.4904C94.1774 18.3436 94.1641 18.2635 94.1641 18.2635L94.9916 18.1434C94.9916 18.1567 95.0182 18.3302 95.0583 18.6505C95.0716 18.8107 95.0983 18.9842 95.1117 19.1711C95.125 19.3579 95.1384 19.5581 95.1517 19.7717C95.1651 19.9852 95.1784 20.1854 95.1918 20.3723C95.2051 20.5591 95.2051 20.746 95.2185 20.9195C95.2318 21.44 95.2451 22.0139 95.2318 22.6679C95.2318 23.3219 95.2051 24.0293 95.1517 24.8034L94.3109 24.7633Z"
            fill="white" />
        <path
            d="M105.736 24.0827C105.629 23.9492 105.535 23.8024 105.469 23.6289C104.735 24.403 103.56 24.7901 101.972 24.7901C101.118 24.7901 100.424 24.6833 99.8631 24.4831C99.3025 24.2829 98.9021 23.9759 98.6485 23.5488C98.5684 23.4153 98.5017 23.2685 98.4617 23.1217C98.4216 22.9749 98.3949 22.8281 98.3816 22.6813C98.3682 22.5345 98.3682 22.401 98.3816 22.2542C98.3949 22.1207 98.4216 21.9873 98.4483 21.8538C98.4884 21.7203 98.5151 21.6002 98.5551 21.4934C98.5951 21.3867 98.6218 21.2932 98.6485 21.2131C98.6752 21.1331 98.7019 21.0797 98.7286 21.0263C98.7553 20.9863 98.7686 20.9596 98.7686 20.9462L99.4894 21.3466C99.4894 21.3466 99.476 21.3733 99.4493 21.4267C99.4226 21.4801 99.3959 21.5468 99.3692 21.6402C99.3426 21.7203 99.3025 21.8271 99.2758 21.9472C99.2491 22.0673 99.2224 22.1875 99.2224 22.3076C99.2091 22.4277 99.2224 22.5612 99.2491 22.6946C99.2758 22.8281 99.3159 22.9482 99.3826 23.0683C99.5561 23.3486 99.8497 23.5622 100.29 23.709C100.731 23.8558 101.291 23.9225 101.972 23.9225C102.586 23.9225 103.12 23.8691 103.547 23.7624C103.974 23.6556 104.334 23.4821 104.628 23.2552C104.761 23.1484 104.868 23.0416 104.962 22.9215C105.055 22.8014 105.135 22.6813 105.202 22.5478C105.268 22.4143 105.322 22.2942 105.362 22.1608C105.402 22.0273 105.442 21.9072 105.482 21.7737L106.283 21.9873C106.269 22.0406 106.256 22.1074 106.243 22.1741C106.229 22.2408 106.203 22.3209 106.189 22.401C106.149 22.5612 106.136 22.708 106.149 22.8147C106.149 22.9349 106.176 23.055 106.203 23.1885C106.229 23.3219 106.296 23.442 106.376 23.5355C106.576 23.7891 106.91 23.9092 107.377 23.9092C107.497 23.9092 107.591 23.9492 107.671 24.0293C107.751 24.1094 107.791 24.2028 107.791 24.3229C107.791 24.443 107.751 24.5365 107.671 24.6165C107.591 24.6966 107.497 24.7367 107.377 24.7367H107.337C106.616 24.7634 106.083 24.5365 105.736 24.0827ZM102.132 20.6526L101.451 21.3333L100.757 20.6526L101.438 19.9719L102.132 20.6526ZM103.854 20.6526L103.173 21.3333L102.479 20.6392L103.16 19.9586L103.854 20.6526Z"
            fill="white" />
        <path
            d="M107.017 24.3629C107.017 24.2428 107.057 24.1494 107.137 24.0693C107.217 23.9892 107.324 23.9492 107.431 23.9492C107.738 23.9492 108.031 23.9359 108.285 23.9092C108.552 23.8825 108.779 23.8424 108.979 23.789C109.179 23.749 109.353 23.6956 109.5 23.6289C109.646 23.5755 109.753 23.5221 109.82 23.4687C109.86 23.442 109.887 23.4153 109.913 23.3886C109.94 23.3619 109.953 23.3353 109.98 23.3086H109.553C109.406 23.3086 109.259 23.2952 109.113 23.2685C108.966 23.2418 108.832 23.2151 108.712 23.1617C108.592 23.1084 108.472 23.055 108.365 22.9882C108.258 22.9215 108.178 22.8414 108.098 22.748C108.058 22.6946 108.018 22.6412 107.978 22.5611C107.938 22.4944 107.911 22.401 107.885 22.3076C107.858 22.2141 107.845 22.1074 107.845 21.9872C107.845 21.8671 107.845 21.747 107.871 21.6002C107.911 21.3866 107.965 21.1864 108.045 21.0129C108.125 20.8394 108.218 20.6793 108.325 20.5325C108.445 20.3723 108.592 20.2388 108.752 20.1587C108.912 20.0787 109.072 20.0386 109.233 20.0386C109.606 20.0386 109.94 20.1988 110.234 20.5325C110.367 20.6793 110.474 20.8394 110.581 21.0263C110.674 21.2131 110.754 21.4133 110.821 21.6269C110.888 21.8404 110.928 22.0673 110.941 22.2942C110.968 22.5211 110.968 22.748 110.941 22.9749C110.928 23.0817 110.901 23.2018 110.874 23.3086C110.861 23.3486 110.848 23.3886 110.834 23.442C110.821 23.4954 110.794 23.5621 110.754 23.6289C110.714 23.6956 110.661 23.7757 110.594 23.8558C110.527 23.9359 110.447 24.0159 110.34 24.096C110.207 24.2028 110.033 24.2962 109.833 24.3763C109.633 24.4564 109.406 24.5231 109.153 24.5765C108.899 24.6299 108.632 24.6699 108.352 24.6966C108.071 24.7233 107.778 24.7367 107.498 24.7367H107.431C107.311 24.7367 107.217 24.6966 107.137 24.6165C107.07 24.5765 107.017 24.4831 107.017 24.3629ZM109.807 18.6105L109.126 19.2912L108.432 18.5972L109.113 17.9165L109.807 18.6105ZM109.233 20.8795C109.193 20.8795 109.153 20.8928 109.099 20.9329C109.046 20.9729 108.992 21.0263 108.939 21.1064C108.886 21.1864 108.832 21.2799 108.792 21.3866C108.752 21.4934 108.712 21.6269 108.685 21.7603C108.645 21.9739 108.672 22.1207 108.752 22.2275C108.806 22.2942 108.886 22.3476 108.992 22.3876C109.099 22.4277 109.233 22.4544 109.379 22.4677C109.526 22.4677 109.66 22.4811 109.78 22.4811C109.9 22.4811 110.007 22.4811 110.1 22.4677C110.087 22.2008 110.033 21.9339 109.94 21.6936C109.86 21.4534 109.74 21.2532 109.593 21.093C109.553 21.0396 109.486 20.9996 109.419 20.9462C109.393 20.9062 109.326 20.8795 109.233 20.8795Z"
            fill="white" />
        <path
            d="M114.037 24.7767C113.73 24.7767 113.463 24.7367 113.25 24.6699C113.036 24.6032 112.849 24.4831 112.689 24.3363C112.596 24.2428 112.529 24.1494 112.476 24.0426C112.422 23.9359 112.396 23.8291 112.369 23.7223C112.342 23.6155 112.329 23.5221 112.329 23.4287C112.329 23.3353 112.329 23.2552 112.329 23.1885V23.1084C112.329 23.1084 112.329 23.055 112.329 22.9616C112.329 22.8681 112.329 22.7347 112.329 22.5612C112.329 22.3876 112.329 22.2008 112.329 21.9739C112.329 21.7604 112.329 21.5201 112.329 21.2799C112.329 21.0396 112.329 20.786 112.316 20.5325C112.316 20.2655 112.302 20.0253 112.289 19.7717C112.276 19.5315 112.262 19.3046 112.249 19.1044C112.236 18.9042 112.209 18.7307 112.182 18.5972L113.01 18.4504C113.036 18.5972 113.063 18.7707 113.076 18.9709C113.09 19.1844 113.116 19.398 113.13 19.6516C113.143 19.8918 113.156 20.1454 113.156 20.4123C113.156 20.6793 113.17 20.9329 113.17 21.1864C113.17 21.4267 113.17 21.6669 113.17 21.8938C113.17 22.1207 113.17 22.3209 113.17 22.4944C113.17 22.6679 113.17 22.8147 113.17 22.9349C113.17 23.055 113.17 23.1217 113.17 23.1351V23.2151C113.17 23.3353 113.17 23.442 113.183 23.5355C113.196 23.6289 113.237 23.709 113.303 23.7624C113.423 23.8958 113.664 23.9626 114.011 23.9626H114.051C114.104 23.9626 114.157 23.9759 114.211 24.0026C114.264 24.0293 114.304 24.056 114.344 24.096C114.384 24.1361 114.411 24.1761 114.438 24.2295C114.464 24.2829 114.478 24.3363 114.478 24.3897C114.478 24.5098 114.438 24.6032 114.358 24.6833C114.291 24.7634 114.157 24.7767 114.037 24.7767Z"
            fill="white" />
        <path
            d="M113.41 24.3629C113.41 24.2428 113.45 24.1494 113.53 24.0693C113.61 23.9892 113.704 23.9492 113.824 23.9492H114.291C114.384 23.9492 114.491 23.9492 114.611 23.9492C114.731 23.9492 114.838 23.9358 114.958 23.9358C115.079 23.9358 115.185 23.9092 115.305 23.8825C115.412 23.8558 115.519 23.8291 115.612 23.789C115.706 23.749 115.786 23.709 115.866 23.6422C115.933 23.5888 115.986 23.5221 116.026 23.442C116.08 23.3219 116.093 23.1484 116.079 22.9348C116.053 22.708 115.999 22.4544 115.906 22.1607C115.879 22.0673 115.839 21.9739 115.799 21.8671C115.759 21.7603 115.719 21.6669 115.679 21.5735C115.639 21.4667 115.586 21.3599 115.546 21.2532L116.293 20.8795C116.293 20.8795 116.306 20.9061 116.333 20.9595C116.36 21.0129 116.386 21.093 116.427 21.1731C116.467 21.2665 116.507 21.3733 116.56 21.4934C116.613 21.6135 116.653 21.747 116.693 21.8805C116.96 22.6813 116.987 23.3086 116.787 23.7623C116.587 24.2161 116.24 24.5098 115.732 24.6566C115.652 24.6833 115.559 24.6966 115.439 24.71C115.319 24.7233 115.199 24.7366 115.078 24.7366C114.958 24.7366 114.838 24.75 114.731 24.75C114.625 24.75 114.531 24.75 114.478 24.75H113.864H113.824C113.704 24.75 113.61 24.71 113.53 24.6299C113.437 24.5765 113.41 24.4831 113.41 24.3629ZM115.426 26.2181L114.745 26.8988L114.051 26.2181L114.731 25.5374L115.426 26.2181ZM117.161 26.2315L116.48 26.9122L115.786 26.2181L116.467 25.5374L117.161 26.2315Z"
            fill="white" />
        <path
            d="M119.75 22.054C119.83 22.3075 119.897 22.5745 119.977 22.8281C120.003 22.9348 120.03 23.055 120.07 23.1617C120.11 23.2685 120.123 23.402 120.15 23.5087C120.177 23.6289 120.204 23.7356 120.217 23.8558C120.23 23.9625 120.257 24.0693 120.257 24.1627C120.257 24.1894 120.257 24.2295 120.27 24.2695C120.27 24.3095 120.27 24.3496 120.27 24.403C120.27 24.6432 120.23 24.8835 120.163 25.1103C120.097 25.3372 119.99 25.5641 119.87 25.7643C119.75 25.9779 119.59 26.1781 119.416 26.3649C119.243 26.5651 119.056 26.7386 118.842 26.9121C118.642 27.0857 118.415 27.2325 118.188 27.3793C117.961 27.5261 117.734 27.6596 117.494 27.7663L117.134 27.0323C117.427 26.8855 117.708 26.7119 117.988 26.5251C118.268 26.3382 118.509 26.1247 118.722 25.8978C118.936 25.6709 119.109 25.4307 119.243 25.1771C119.376 24.9235 119.443 24.6566 119.443 24.3896C119.443 24.3763 119.443 24.3496 119.443 24.3229C119.443 24.2962 119.443 24.2562 119.429 24.2295C119.416 24.1494 119.403 24.0426 119.389 23.9492C119.376 23.8424 119.349 23.7356 119.323 23.6289C119.296 23.5221 119.269 23.4153 119.243 23.3085C119.216 23.2018 119.189 23.095 119.162 23.0016C119.096 22.7613 119.029 22.5344 118.949 22.2942L119.75 22.054Z"
            fill="white" />
        <path
            d="M123.073 24.7633C122.939 24.7633 122.779 24.75 122.592 24.71C122.406 24.6699 122.232 24.6299 122.045 24.5765C121.858 24.5231 121.698 24.4697 121.551 24.403C121.405 24.3362 121.285 24.2695 121.218 24.2028L121.565 23.4153C121.672 23.4821 121.792 23.5488 121.938 23.6155C122.085 23.6823 122.232 23.7356 122.406 23.7757C122.566 23.8157 122.739 23.8558 122.913 23.8825C123.086 23.9092 123.26 23.9092 123.42 23.8958C123.58 23.8825 123.727 23.8424 123.874 23.789C124.007 23.7356 124.127 23.6422 124.221 23.5354C124.301 23.4554 124.301 23.2819 124.247 23.055C124.221 22.9215 124.167 22.7747 124.101 22.6279C124.034 22.4811 123.954 22.3342 123.847 22.1741C123.754 22.0273 123.647 21.8805 123.527 21.7336C123.407 21.5868 123.287 21.4534 123.153 21.3332C123.02 21.2131 122.899 21.1063 122.766 21.0129C122.633 20.9195 122.499 20.8394 122.379 20.786L122.713 20.0253C122.873 20.1053 123.046 20.1988 123.206 20.3189C123.38 20.439 123.54 20.5725 123.7 20.7193C123.86 20.8661 124.007 21.0396 124.154 21.2131C124.301 21.3866 124.434 21.5735 124.541 21.7603C124.661 21.9472 124.755 22.134 124.848 22.3209C124.928 22.5078 124.995 22.6946 125.035 22.8681C125.075 23.0283 125.088 23.1617 125.088 23.2952C125.088 23.4153 125.075 23.5354 125.048 23.6289C125.022 23.7223 124.995 23.8157 124.955 23.8825C124.915 23.9625 124.875 24.0159 124.835 24.0693C124.581 24.3763 124.221 24.5898 123.754 24.6833C123.647 24.71 123.54 24.7366 123.42 24.7366C123.313 24.7633 123.18 24.7633 123.073 24.7633Z"
            fill="white" />
        <path
            d="M44.3812 20.239C44.7549 20.239 45.0752 20.1055 45.3422 19.8386C45.4223 19.7585 45.489 19.6651 45.5424 19.585C45.5958 19.6784 45.6625 19.7585 45.7292 19.8386C45.9962 20.1055 46.3031 20.239 46.6768 20.239C47.0506 20.239 47.3709 20.1055 47.6245 19.8386C47.8914 19.5717 48.0115 19.2513 48.0115 18.8776C48.0115 18.5039 47.878 18.1836 47.6245 17.93C47.3709 17.6764 47.0506 17.543 46.6768 17.543C46.3031 17.543 45.9828 17.6764 45.7292 17.93C45.6491 18.0101 45.5824 18.0902 45.5424 18.1836C45.489 18.0902 45.4223 18.0101 45.3422 17.93C45.0752 17.6631 44.7549 17.543 44.3812 17.543C44.0209 17.543 43.6872 17.6764 43.4336 17.9434C43.18 18.2103 43.0332 18.5173 43.0332 18.891C43.0332 19.2647 43.1667 19.585 43.4203 19.8519C43.6872 20.1055 44.0075 20.239 44.3812 20.239Z"
            fill="white" />
        <path
            d="M71.7819 17.9434C71.4616 17.9434 71.1947 18.0501 70.9945 18.2904C70.7809 18.5173 70.6741 18.7976 70.6741 19.1179C70.6741 19.3448 70.7409 19.6918 70.8476 20.1456C70.9544 20.586 71.0212 20.933 71.0212 21.1733C71.0212 21.9874 70.4339 22.4012 69.2727 22.4012H68.859H68.1917H67.9114C66.8703 22.4012 65.8827 21.9474 64.9351 21.0398C63.8273 19.9454 63.0932 19.2113 62.7062 18.8243C61.3448 17.5029 60.1836 16.4619 59.2093 15.6611C59.0492 15.5276 58.9691 15.3808 58.9691 15.2207C58.9691 15.0605 59.0759 14.9404 59.2627 14.8603C61.2113 14.0995 63.3068 13.4589 65.5223 12.9517C66.2164 12.8049 66.55 12.4312 66.55 11.8573C66.55 11.0965 66.1096 10.7095 65.2153 10.7095C65.0685 10.7095 64.8817 10.7362 64.6815 10.7762C61.4249 11.537 59.0492 12.3912 57.5277 13.3121C56.847 13.7258 56.5133 14.4065 56.5133 15.3408C56.5133 15.7946 56.58 16.1549 56.7402 16.4352C57.0071 16.9023 57.8747 17.7832 59.3562 19.0511C60.6775 20.1856 61.3315 20.9597 61.3315 21.3601C61.3315 21.9073 60.7709 22.2277 59.6498 22.3478C59.4095 22.3745 58.502 22.3745 56.9137 22.3745H56.58H56.193C55.1386 22.3745 54.538 21.9474 54.3645 21.0932C54.2711 20.6127 54.2177 20.3191 54.191 20.199C54.0442 19.8519 53.7772 19.6784 53.3768 19.6784C53.0165 19.6784 52.7229 19.9053 52.5227 20.3725C52.189 21.1199 51.9888 21.5603 51.882 21.6804C51.188 22.5613 49.3461 23.0018 46.3698 23.0018H44.9284C42.8997 23.0018 41.5116 22.7749 40.7642 22.2944C40.2571 21.9741 40.0035 21.4802 40.0035 20.8263C40.0035 20.6394 40.0435 20.3458 40.1236 19.9721C40.2037 19.585 40.2437 19.3047 40.2437 19.1179C40.2437 18.544 39.9634 18.2637 39.3895 18.2637C38.8557 18.2637 38.4286 18.7308 38.1483 19.6651C37.9481 20.3191 37.8413 20.9998 37.8413 21.7071C37.8413 24.4299 40.1636 25.7912 44.8083 25.7912C49.2661 25.7912 52.0422 25.0972 53.0832 23.6958C53.537 24.6568 54.4312 25.1372 55.7526 25.1372H55.886H56.5667H56.5934C58.6087 25.1372 60.0235 25.0171 60.851 24.7635C62.1189 24.3765 62.893 23.5757 63.1867 22.3745C64.4946 24.2163 66.1229 25.1372 68.0582 25.1372H68.1783H68.8456H69.1126C70.4206 25.1372 71.4349 24.7502 72.1823 23.9894C72.9297 23.2287 73.2901 22.1876 73.2901 20.8663C73.2767 18.9177 72.7829 17.9434 71.7819 17.9434Z"
            fill="white" />
        <path
            d="M69.8466 26.592C69.4862 26.592 69.1526 26.7255 68.899 26.9924C68.7255 27.1659 68.6187 27.3661 68.552 27.5797C68.4852 27.3528 68.3785 27.1659 68.205 26.9924C67.938 26.7255 67.6311 26.592 67.2574 26.592C66.8837 26.592 66.5633 26.7255 66.2964 26.9791C66.0295 27.2327 65.896 27.553 65.896 27.9267C65.896 28.3004 66.0295 28.6207 66.2964 28.8877C66.5633 29.1546 66.8837 29.2881 67.2574 29.2881C67.6311 29.2881 67.9514 29.1546 68.205 28.8877C68.3785 28.7142 68.4719 28.514 68.5386 28.2871C68.6054 28.514 68.6988 28.7142 68.8723 28.8877C69.1392 29.1546 69.4462 29.2881 69.8199 29.2881C70.1936 29.2881 70.5139 29.1546 70.7809 28.8877C71.0478 28.6207 71.1813 28.3004 71.1813 27.9267C71.1813 27.553 71.0478 27.2327 70.7809 26.9791C70.5139 26.7255 70.2337 26.592 69.8466 26.592Z"
            fill="white" />
        <path
            d="M86.3968 19.8386C85.9163 19.0778 85.2223 18.6908 84.328 18.6908C83.5806 18.6908 82.8466 19.0912 82.0991 19.892C81.9523 20.0655 81.5786 20.5727 80.9914 21.4135C80.7244 21.8006 80.4708 22.0675 80.2173 22.1876C79.977 22.3211 79.63 22.3878 79.1762 22.3878H78.8693C77.628 22.3878 77.0274 21.6271 77.0274 20.1189V12.2043C77.0274 11.1499 76.627 10.6294 75.8262 10.6294C75.4258 10.6294 75.1055 10.8029 74.8919 11.1366C74.7051 11.4302 74.625 11.7906 74.625 12.2043L74.8919 19.6918C74.9587 21.5603 75.1589 22.8149 75.4658 23.4956C75.9864 24.6034 77.0274 25.1506 78.589 25.1506H78.7091H79.3764H79.4432C80.3107 25.1506 81.0448 24.8436 81.6454 24.243C82.326 25.0572 83.1936 25.4576 84.2747 25.4576C85.1155 25.4576 85.7962 25.1239 86.3033 24.4432C86.7705 23.8293 86.9974 23.1085 86.9974 22.241C87.0241 21.28 86.7972 20.4792 86.3968 19.8386ZM84.2213 23.1753C83.9543 23.1753 83.6874 23.0952 83.3671 22.9484C83.0067 22.7615 82.8332 22.548 82.8332 22.3211C82.8332 22.0141 82.98 21.7205 83.287 21.4536C83.594 21.1866 83.9009 21.0398 84.1946 21.0398C84.5015 21.0398 84.7418 21.1866 84.9286 21.4669C85.0755 21.7071 85.1555 21.9874 85.1555 22.3211C85.1555 22.895 84.8619 23.1753 84.2213 23.1753Z"
            fill="white" />
        <path
            d="M21.9586 31.9173C28.5632 31.9173 33.9172 26.5632 33.9172 19.9586C33.9172 13.3541 28.5632 8 21.9586 8C15.3541 8 10 13.3541 10 19.9586C10 26.5632 15.3541 31.9173 21.9586 31.9173Z"
            fill="#0091EA" />
        <path
            d="M29.2993 18.5439C29.2058 16.275 27.3373 14.4865 25.055 14.4865C23.7871 14.4865 22.6393 15.0471 21.8652 15.928C21.0911 15.0471 19.9432 14.4865 18.6753 14.4865C16.4331 14.4865 14.5912 16.2216 14.4311 18.4238C14.4311 18.4772 14.4177 18.5306 14.4177 18.5839V23.3887C14.4177 23.976 14.8982 24.4565 15.4855 24.4565H15.5122C16.0994 24.4565 16.5799 23.976 16.5799 23.3887V18.7441C16.5799 17.5829 17.5275 16.6353 18.6887 16.6353C19.8498 16.6353 20.7974 17.5829 20.7974 18.7441V22.668C20.7974 23.2553 21.2779 23.7358 21.8652 23.7358H21.8919C22.4791 23.7358 22.9596 23.2553 22.9596 22.668V18.7441C22.9596 17.5829 23.9072 16.6353 25.0684 16.6353C26.2295 16.6353 27.1771 17.5829 27.1771 18.7441V23.4021C27.1771 23.9893 27.6443 24.4565 28.2315 24.4565H28.2582C28.8455 24.4565 29.3126 23.9893 29.3126 23.4021V18.6507C29.2993 18.6106 29.2993 18.5706 29.2993 18.5439Z"
            fill="white" />
        <path
            d="M25.2686 24.8569C25.2152 24.7768 25.0684 24.937 25.0684 24.937C24.4811 25.5776 23.2532 25.9914 21.9853 25.9914C20.7174 25.9914 19.5028 25.5776 18.9022 24.937C18.9022 24.937 18.7421 24.7768 18.702 24.8569C18.6353 24.9503 18.7287 25.0971 18.7287 25.0971C19.4895 26.1916 20.6373 26.672 21.9853 26.672C23.3333 26.672 24.4811 26.1782 25.2419 25.0971C25.2285 25.1105 25.3353 24.9637 25.2686 24.8569Z"
            fill="white" />
    </g>
    <defs>
        <clipPath id="clip0_457_3622">
            <rect width="134.634" height="40" fill="white" />
        </clipPath>
    </defs>
</svg>
    