<svg width="64" height="64" viewBox="0 0 64 64" fill="none" xmlns="http://www.w3.org/2000/svg">
    <mask id="mask0_913_4957" style="mask-type:alpha" maskUnits="userSpaceOnUse" x="0" y="0"
        width="64" height="64">
        <rect width="64" height="64" fill="#D9D9D9" />
    </mask>
    <g mask="url(#mask0_913_4957)">
        <path
            d="M36.4145 35.1331C34.1923 35.1331 32.3034 34.3553 30.7479 32.7998C29.1923 31.2442 28.4145 29.3553 28.4145 27.1331C28.4145 24.9109 29.1923 23.022 30.7479 21.4664C32.3034 19.9109 34.1923 19.1331 36.4145 19.1331C38.6367 19.1331 40.5256 19.9109 42.0812 21.4664C43.6367 23.022 44.4145 24.9109 44.4145 27.1331C44.4145 29.3553 43.6367 31.2442 42.0812 32.7998C40.5256 34.3553 38.6367 35.1331 36.4145 35.1331ZM15.9856 45.3332C14.5094 45.3332 13.2538 44.8157 12.219 43.7808C11.1841 42.746 10.6667 41.4905 10.6667 40.0142V14.252C10.6667 12.7893 11.1841 11.5371 12.219 10.4955C13.2538 9.4539 14.5094 8.93311 15.9856 8.93311H56.9188C58.3711 8.93311 59.6144 9.4539 60.6487 10.4955C61.6829 11.5371 62.2001 12.7893 62.2001 14.252V40.0142C62.2001 41.4905 61.6829 42.746 60.6487 43.7808C59.6144 44.8157 58.3711 45.3332 56.9188 45.3332H15.9856ZM22.2001 40.4664H50.6667C50.6667 38.5998 51.3111 37.022 52.6 35.7331C53.8889 34.4442 55.4667 33.7998 57.3333 33.7998V20.4664C55.4667 20.4664 53.8889 19.8157 52.6 18.5143C51.3111 17.2128 50.6667 15.6413 50.6667 13.7998H22.2001C22.2001 15.6413 21.5556 17.2128 20.2667 18.5143C18.9778 19.8157 17.4001 20.4664 15.5334 20.4664V33.7998C17.4001 33.7998 18.9778 34.4442 20.2667 35.7331C21.5556 37.022 22.2001 38.5998 22.2001 40.4664ZM50.6927 54.1999H7.08119C5.62883 54.1999 4.38554 53.6828 3.35132 52.6485C2.3171 51.6143 1.79999 50.371 1.79999 48.9186V21.3071C1.79999 20.5646 2.05557 19.9388 2.56672 19.4299C3.07792 18.921 3.70643 18.6665 4.45225 18.6665C5.19808 18.6665 5.82268 18.921 6.32605 19.4299C6.82948 19.9388 7.08119 20.5646 7.08119 21.3071V48.9186H50.6927C51.4353 48.9186 52.061 49.1742 52.5699 49.6854C53.0789 50.1966 53.3333 50.8252 53.3333 51.571C53.3333 52.3168 53.0789 52.9414 52.5699 53.4448C52.061 53.9482 51.4353 54.1999 50.6927 54.1999Z"
            fill="white" />
    </g>
</svg>
    