<svg width="64" height="64" viewBox="0 0 64 64" fill="none" xmlns="http://www.w3.org/2000/svg">
    <mask id="mask0_584_17471" style="mask-type:alpha" maskUnits="userSpaceOnUse" x="0" y="0"
        width="64" height="64">
        <rect width="64" height="64" fill="#D9D9D9" />
    </mask>
    <g mask="url(#mask0_584_17471)">
        <path
            d="M14.9315 60.3999C12.6204 60.3999 10.6537 59.5999 9.03148 57.9999C7.40926 56.3999 6.59814 54.4222 6.59814 52.0666V45.4666C6.59814 44.7555 6.8537 44.1333 7.36481 43.5999C7.87592 43.0666 8.53148 42.7999 9.33148 42.7999H15.5315V6.93328C15.5315 6.31106 15.7426 5.97773 16.1648 5.93328C16.587 5.88884 17.0204 6.08884 17.4648 6.53328L19.7981 8.86662L22.9981 5.66662C23.2648 5.35551 23.5759 5.19995 23.9315 5.19995C24.287 5.19995 24.6204 5.35551 24.9315 5.66662L28.0648 8.86662L31.2648 5.66662C31.5315 5.35551 31.8537 5.19995 32.2315 5.19995C32.6093 5.19995 32.9537 5.35551 33.2648 5.66662L36.4648 8.86662L39.5981 5.66662C39.8648 5.35551 40.187 5.19995 40.5648 5.19995C40.9426 5.19995 41.287 5.35551 41.5981 5.66662L44.7981 8.86662L47.9981 5.66662C48.2648 5.35551 48.5759 5.19995 48.9315 5.19995C49.287 5.19995 49.6204 5.35551 49.9315 5.66662L53.1315 8.86662L55.3981 6.53328C55.8426 6.08884 56.287 5.88884 56.7315 5.93328C57.1759 5.97773 57.3981 6.33328 57.3981 6.99995V52.0666C57.3981 54.4222 56.587 56.3999 54.9648 57.9999C53.3426 59.5999 51.3759 60.3999 49.0648 60.3999H14.9315ZM49.0648 55.0666C49.9537 55.0666 50.6759 54.7888 51.2315 54.2333C51.787 53.6777 52.0648 52.9555 52.0648 52.0666V12.8H20.7981V42.7999H43.3981C44.1537 42.7999 44.787 43.0666 45.2981 43.5999C45.8092 44.1333 46.0648 44.7555 46.0648 45.4666V52.0666C46.0648 52.9555 46.3426 53.6777 46.8981 54.2333C47.4537 54.7888 48.1759 55.0666 49.0648 55.0666ZM26.2648 23.5333C25.7315 23.5333 25.2759 23.3333 24.8981 22.9333C24.5204 22.5333 24.3315 22.0666 24.3315 21.5333C24.3315 20.9555 24.5315 20.4777 24.9315 20.0999C25.3315 19.7222 25.7981 19.5333 26.3315 19.5333H37.6648C38.1981 19.5333 38.6648 19.7333 39.0648 20.1333C39.4648 20.5333 39.6648 21 39.6648 21.5333C39.6648 22.1111 39.4648 22.5888 39.0648 22.9666C38.6648 23.3444 38.1981 23.5333 37.6648 23.5333H26.2648ZM26.2648 32.4666C25.7315 32.4666 25.2759 32.2666 24.8981 31.8666C24.5204 31.4666 24.3315 31 24.3315 30.4666C24.3315 29.8888 24.5315 29.4111 24.9315 29.0333C25.3315 28.6555 25.7981 28.4666 26.3315 28.4666H37.6648C38.1981 28.4666 38.6648 28.6666 39.0648 29.0666C39.4648 29.4666 39.6648 29.9333 39.6648 30.4666C39.6648 31.0444 39.4648 31.5222 39.0648 31.8999C38.6648 32.2777 38.1981 32.4666 37.6648 32.4666H26.2648ZM45.8648 23.5333C45.3315 23.5333 44.8648 23.3333 44.4648 22.9333C44.0648 22.5333 43.8648 22.0666 43.8648 21.5333C43.8648 21 44.0648 20.5333 44.4648 20.1333C44.8648 19.7333 45.3315 19.5333 45.8648 19.5333C46.3981 19.5333 46.8648 19.7333 47.2648 20.1333C47.6648 20.5333 47.8648 21 47.8648 21.5333C47.8648 22.0666 47.6648 22.5333 47.2648 22.9333C46.8648 23.3333 46.3981 23.5333 45.8648 23.5333ZM45.8648 32.1333C45.3315 32.1333 44.8648 31.9333 44.4648 31.5333C44.0648 31.1333 43.8648 30.6666 43.8648 30.1333C43.8648 29.6 44.0648 29.1333 44.4648 28.7333C44.8648 28.3333 45.3315 28.1333 45.8648 28.1333C46.3981 28.1333 46.8648 28.3333 47.2648 28.7333C47.6648 29.1333 47.8648 29.6 47.8648 30.1333C47.8648 30.6666 47.6648 31.1333 47.2648 31.5333C46.8648 31.9333 46.3981 32.1333 45.8648 32.1333ZM14.8648 55.0666H40.7981V48.1333H11.9315V52.0666C11.9315 52.9555 12.2204 53.6777 12.7981 54.2333C13.3759 54.7888 14.0648 55.0666 14.8648 55.0666Z"
            fill="white" />
    </g>
</svg>
    