<svg width="64" height="64" viewBox="0 0 64 64" fill="none" xmlns="http://www.w3.org/2000/svg">
    <mask id="mask0_584_17464" style="mask-type:alpha" maskUnits="userSpaceOnUse" x="0" y="0"
        width="64" height="64">
        <rect width="64" height="64" fill="#D9D9D9" />
    </mask>
    <g mask="url(#mask0_584_17464)">
        <path
            d="M9.66657 45.6003V51.6669H54.3332V45.6003H9.66657ZM9.66657 56.9336C8.1999 56.9336 6.95546 56.4225 5.93324 55.4003C4.91101 54.378 4.3999 53.1336 4.3999 51.6669V20.3336C4.3999 18.8669 4.91101 17.6114 5.93324 16.5669C6.95546 15.5225 8.1999 15.0003 9.66657 15.0003H16.7999C16.6221 14.6003 16.4555 14.1114 16.2999 13.5336C16.1443 12.9558 16.0666 12.4003 16.0666 11.8669C16.0666 9.68915 16.8443 7.82248 18.3999 6.26693C19.9555 4.71137 21.8221 3.93359 23.9999 3.93359C25.3777 3.93359 26.6666 4.28915 27.8666 5.00026C29.0666 5.71137 30.0221 6.60026 30.7332 7.66693L32.0666 9.66693L33.3332 7.66693C34.0888 6.55582 35.0443 5.65582 36.1999 4.96693C37.3555 4.27804 38.5777 3.93359 39.8666 3.93359C42.1332 3.93359 44.0443 4.70026 45.5999 6.23359C47.1555 7.76693 47.9332 9.66693 47.9332 11.9336C47.9332 12.378 47.8777 12.8558 47.7666 13.3669C47.6555 13.878 47.4888 14.4225 47.2666 15.0003H54.3332C55.7999 15.0003 57.0555 15.5225 58.0999 16.5669C59.1443 17.6114 59.6666 18.8669 59.6666 20.3336V51.6669C59.6666 53.1336 59.1443 54.378 58.0999 55.4003C57.0555 56.4225 55.7999 56.9336 54.3332 56.9336H9.66657ZM9.66657 37.6003H54.3332V20.3336H38.8666L43.7332 27.2003C44.0888 27.7336 44.1999 28.278 44.0666 28.8336C43.9332 29.3891 43.6443 29.8891 43.1999 30.3336C42.6666 30.6891 42.0999 30.8336 41.4999 30.7669C40.8999 30.7003 40.4221 30.4003 40.0666 29.8669L31.9999 18.4003L23.7999 29.8669C23.4443 30.4003 22.9555 30.7114 22.3332 30.8003C21.711 30.8891 21.2221 30.7114 20.8666 30.2669C20.3332 29.9558 20.0221 29.5003 19.9332 28.9003C19.8443 28.3003 19.9777 27.7336 20.3332 27.2003L25.1999 20.3336H9.66657V37.6003ZM24.0666 15.4003C25.0443 15.4003 25.8777 15.0558 26.5666 14.3669C27.2555 13.678 27.5999 12.8447 27.5999 11.8669C27.5999 10.9336 27.2555 10.1114 26.5666 9.40026C25.8777 8.68915 25.0443 8.33359 24.0666 8.33359C23.0888 8.33359 22.2555 8.68915 21.5666 9.40026C20.8777 10.1114 20.5332 10.9336 20.5332 11.8669C20.5332 12.8447 20.8777 13.678 21.5666 14.3669C22.2555 15.0558 23.0888 15.4003 24.0666 15.4003ZM39.8666 15.4003C40.8888 15.4003 41.7443 15.0558 42.4332 14.3669C43.1221 13.678 43.4666 12.8447 43.4666 11.8669C43.4666 10.9336 43.1221 10.1114 42.4332 9.40026C41.7443 8.68915 40.8888 8.33359 39.8666 8.33359C38.9332 8.33359 38.1221 8.68915 37.4332 9.40026C36.7443 10.1114 36.3999 10.9336 36.3999 11.8669C36.3999 12.8447 36.7443 13.678 37.4332 14.3669C38.1221 15.0558 38.9332 15.4003 39.8666 15.4003Z"
            fill="white" />
    </g>
</svg>
    