<svg width="24" height="24" viewBox="0 0 24 24" fill="none" xmlns="http://www.w3.org/2000/svg">
    <mask id="mask0_485_4793" style="mask-type:alpha" maskUnits="userSpaceOnUse" x="0" y="0"
        width="24" height="24">
        <rect width="24" height="24" fill="#D9D9D9" />
    </mask>
    <g mask="url(#mask0_485_4793)">
        <path
            d="M6 22C5.45 22 4.97933 21.8043 4.588 21.413C4.196 21.021 4 20.55 4 20V4C4 3.45 4.196 2.979 4.588 2.587C4.97933 2.19567 5.45 2 6 2H13.175C13.4417 2 13.696 2.05 13.938 2.15C14.1793 2.25 14.3917 2.39167 14.575 2.575L19.425 7.425C19.6083 7.60833 19.75 7.82067 19.85 8.062C19.95 8.304 20 8.55833 20 8.825V20C20 20.55 19.8043 21.021 19.413 21.413C19.021 21.8043 18.55 22 18 22H6ZM10 18C9.71667 18 9.47933 17.904 9.288 17.712C9.096 17.5207 9 17.2833 9 17C9 16.7167 9.096 16.4793 9.288 16.288C9.47933 16.096 9.71667 16 10 16H13V15H10C9.71667 15 9.47933 14.904 9.288 14.712C9.096 14.5207 9 14.2833 9 14V11C9 10.7167 9.096 10.479 9.288 10.287C9.47933 10.0957 9.71667 10 10 10H11C11 9.71667 11.096 9.479 11.288 9.287C11.4793 9.09567 11.7167 9 12 9C12.2833 9 12.521 9.09567 12.713 9.287C12.9043 9.479 13 9.71667 13 10H14C14.2833 10 14.521 10.0957 14.713 10.287C14.9043 10.479 15 10.7167 15 11C15 11.2833 14.9043 11.5207 14.713 11.712C14.521 11.904 14.2833 12 14 12H11V13H14C14.2833 13 14.521 13.0957 14.713 13.287C14.9043 13.479 15 13.7167 15 14V17C15 17.2833 14.9043 17.5207 14.713 17.712C14.521 17.904 14.2833 18 14 18H13C13 18.2833 12.9043 18.5207 12.713 18.712C12.521 18.904 12.2833 19 12 19C11.7167 19 11.4793 18.904 11.288 18.712C11.096 18.5207 11 18.2833 11 18H10ZM18 8H14C13.7167 8 13.4793 7.90433 13.288 7.713C13.096 7.521 13 7.28333 13 7V4H6V20H18V8Z"
            fill="#44474E" />
    </g>
</svg>
    