<svg width="40" height="40" viewBox="0 0 40 40" fill="none" xmlns="http://www.w3.org/2000/svg">
    <g clip-path="url(#clip0_660_1775)">
        <mask id="mask0_660_1775" style="mask-type:alpha" maskUnits="userSpaceOnUse" x="8" y="8"
            width="24" height="24">
            <rect x="8" y="8" width="24" height="24" fill="#D9D9D9" />
        </mask>
        <g mask="url(#mask0_660_1775)">
            <path
                d="M26.9 28.3L21.3 22.7C20.8 23.1 20.225 23.4167 19.575 23.65C18.925 23.8833 18.2333 24 17.5 24C15.6833 24 14.146 23.371 12.888 22.113C11.6293 20.8543 11 19.3167 11 17.5C11 15.6833 11.6293 14.1457 12.888 12.887C14.146 11.629 15.6833 11 17.5 11C19.3167 11 20.8543 11.629 22.113 12.887C23.371 14.1457 24 15.6833 24 17.5C24 18.2333 23.8833 18.925 23.65 19.575C23.4167 20.225 23.1 20.8 22.7 21.3L28.325 26.925C28.5083 27.1083 28.6 27.3333 28.6 27.6C28.6 27.8667 28.5 28.1 28.3 28.3C28.1167 28.4833 27.8833 28.575 27.6 28.575C27.3167 28.575 27.0833 28.4833 26.9 28.3ZM17.5 22C18.75 22 19.8127 21.5627 20.688 20.688C21.5627 19.8127 22 18.75 22 17.5C22 16.25 21.5627 15.1873 20.688 14.312C19.8127 13.4373 18.75 13 17.5 13C16.25 13 15.1873 13.4373 14.312 14.312C13.4373 15.1873 13 16.25 13 17.5C13 18.75 13.4373 19.8127 14.312 20.688C15.1873 21.5627 16.25 22 17.5 22Z"
                fill="#1C1B1F" />
        </g>
    </g>
    <defs>
        <clipPath id="clip0_660_1775">
            <rect width="40" height="40" rx="20" fill="white" />
        </clipPath>
    </defs>
</svg>