<svg width="64" height="64" viewBox="0 0 64 64" fill="none" xmlns="http://www.w3.org/2000/svg">
    <mask id="mask0_584_17480" style="mask-type:alpha" maskUnits="userSpaceOnUse" x="0" y="0"
        width="64" height="64">
        <rect width="64" height="64" fill="#D9D9D9" />
    </mask>
    <g mask="url(#mask0_584_17480)">
        <path
            d="M19.1333 59.0003C17.8 59.0003 16.6667 58.5336 15.7333 57.6003C14.8 56.6669 14.3333 55.5336 14.3333 54.2003C14.3333 52.8669 14.8 51.7336 15.7333 50.8003C16.6667 49.8669 17.8 49.4003 19.1333 49.4003C20.4222 49.4003 21.5444 49.878 22.5 50.8336C23.4556 51.7891 23.9333 52.9114 23.9333 54.2003C23.9333 55.5336 23.4667 56.6669 22.5333 57.6003C21.6 58.5336 20.4667 59.0003 19.1333 59.0003ZM45.8 59.0003C44.4667 59.0003 43.3333 58.5336 42.4 57.6003C41.4667 56.6669 41 55.5336 41 54.2003C41 52.8669 41.4667 51.7336 42.4 50.8003C43.3333 49.8669 44.4667 49.4003 45.8 49.4003C47.0889 49.4003 48.2111 49.878 49.1667 50.8336C50.1222 51.7891 50.6 52.9114 50.6 54.2003C50.6 55.5336 50.1333 56.6669 49.2 57.6003C48.2667 58.5336 47.1333 59.0003 45.8 59.0003ZM16.4 15.0003L23.0667 28.9336H42.1333L49.7333 15.0003H16.4ZM18.4667 45.1336C16.3778 45.1336 14.8889 44.4336 14 43.0336C13.1111 41.6336 13.1333 40.1114 14.0667 38.4669L18.2667 30.8003L8.33333 9.73359H5.33333C4.66667 9.73359 4.11111 9.50026 3.66667 9.03359C3.22222 8.56693 3 8.00026 3 7.33359C3 6.66693 3.23333 6.10026 3.7 5.63359C4.16667 5.16693 4.73333 4.93359 5.4 4.93359H9.8C10.3333 4.93359 10.8111 5.05582 11.2333 5.30026C11.6556 5.5447 11.9556 5.91137 12.1333 6.40026L13.9333 10.2003H52.1333C54.0889 10.2003 55.2889 10.7447 55.7333 11.8336C56.1778 12.9225 56 14.2003 55.2 15.6669L46.8667 30.8003C46.3778 31.6003 45.7111 32.3003 44.8667 32.9003C44.0222 33.5003 43.0667 33.8003 42 33.8003H22.0667L18.6 40.3336H48.6667C49.3333 40.3336 49.8889 40.5669 50.3333 41.0336C50.7778 41.5003 51 42.0669 51 42.7336C51 43.4003 50.7667 43.9669 50.3 44.4336C49.8333 44.9003 49.2667 45.1336 48.6 45.1336H18.4667Z"
            fill="white" />
    </g>
</svg>
    