<svg width="46" height="24" viewBox="0 0 46 24" fill="none" xmlns="http://www.w3.org/2000/svg">
    <g clip-path="url(#clip0_504_8899)">
        <path
            d="M17.4601 4.13421C17.4068 3.53188 17.2611 3.27532 17.1129 3.07031C16.9647 2.86533 16.8139 2.71191 16.6236 2.57858C16.4332 2.44526 16.2032 2.33206 15.9272 2.26038C15.7837 2.22314 15.6277 2.19704 15.3279 2.18383C15.3329 1.83221 15.2726 1.63665 15.1828 1.42252C15.0931 1.20836 14.9741 0.975693 14.8191 0.777633C14.6639 0.579605 14.4728 0.416183 14.2238 0.271331C13.9749 0.126413 13.668 0 13.2061 0C12.8175 0 12.429 0 12.0405 0C10.5045 0 8.9686 0 7.43262 0C8.00996 0.381967 8.15666 0.633527 8.25841 0.846229C8.36016 1.05893 8.41695 1.23287 8.44531 1.6086C8.47374 1.98437 8.47374 2.56196 8.47374 3.06502C8.47374 3.56811 8.47374 3.99663 8.50056 4.42054C8.52734 4.84441 8.58097 5.26365 8.69772 5.62075C8.81444 5.97791 8.99426 6.27288 9.41543 6.71539C9.83661 7.15793 10.4992 7.74792 11.3131 8.47615C12.1271 9.20437 13.0925 10.0708 13.7187 10.7384C14.345 11.4061 14.6321 11.875 14.8331 12.3241C15.034 12.7732 15.1488 13.2025 15.1732 13.6472C15.1976 14.092 15.1315 14.5522 14.9771 14.9564C14.8227 15.3605 14.5799 15.7087 14.1654 16.1412C13.7508 16.5738 13.1643 17.0907 12.5203 17.317C13.3064 17.317 14.0924 17.317 14.8784 17.317C15.0569 17.317 15.2354 17.317 15.414 17.317C15.6017 17.2995 15.7274 17.2772 15.8851 17.2487C16.0426 17.2202 16.2321 17.1856 16.4442 17.1121C16.6563 17.0387 16.891 16.9265 17.1249 16.8019C17.3588 16.6773 17.5919 16.5403 17.8366 16.3439C18.0815 16.1476 18.338 15.8917 18.5333 15.6302C18.7286 15.3686 18.8627 15.1013 18.9943 14.8223C19.126 14.5435 19.2551 14.253 19.3175 13.9152C19.3799 13.5774 19.3756 13.1923 19.3622 12.8407C19.3487 12.4893 19.3259 12.1714 19.2597 11.8831C19.1934 11.5949 19.0837 11.3361 18.9895 11.1232C18.8953 10.9103 18.8167 10.7432 18.649 10.4926C18.4814 10.242 18.2247 9.90786 17.9068 9.58062C17.5888 9.25342 17.2096 8.9332 16.7433 8.57837C16.277 8.22355 15.7236 7.83418 15.25 7.49766C14.7763 7.16108 14.3825 6.87741 14.0888 6.63166C13.795 6.38585 13.6015 6.17798 13.4645 5.9771C13.3275 5.77628 13.2472 5.58241 13.206 5.40594C13.1647 5.22946 13.1625 5.07029 13.1757 4.93765C13.1889 4.80503 13.2175 4.69891 13.3143 4.57276C13.4111 4.4466 13.5761 4.30045 14.1967 4.13888C14.1973 4.13888 14.1979 4.13885 14.1985 4.13885C14.8471 4.12184 15.931 4.11937 17.4601 4.13421Z"
            fill="#616161" />
        <path
            d="M12.5203 17.317C13.3064 17.317 14.0924 17.317 14.8784 17.317C15.9857 16.6571 16.3975 16.3124 16.7232 15.9273C17.049 15.5423 17.2887 15.1169 17.4426 14.696C17.5965 14.2753 17.6646 13.8592 17.6797 13.4304C17.695 13.0016 17.6574 12.5601 17.521 12.148C17.3848 11.7358 17.1497 11.353 16.6041 10.8001C16.0584 10.2471 15.2022 9.52398 14.4534 8.87185C13.7046 8.21975 13.0632 7.63872 12.6441 7.21237C12.225 6.78603 12.0282 6.51437 11.9382 6.20782C11.8482 5.9013 11.8651 5.55988 11.9439 5.28683C12.0228 5.01381 12.1636 4.80916 12.3706 4.64246C12.5777 4.47579 12.851 4.34704 13.0941 4.26705C13.3372 4.18699 13.5502 4.15563 14.1986 4.13872C14.8471 4.12181 15.931 4.11934 17.4601 4.13421C17.4068 3.53188 17.2611 3.27532 17.1129 3.07031C16.9647 2.86533 16.8139 2.71191 16.6235 2.57858C16.4331 2.44526 16.2032 2.33206 15.9272 2.26038C15.6512 2.18873 15.3292 2.15854 14.0259 2.18116C14.0642 1.68311 13.9109 1.29449 13.7576 1.01968C13.6042 0.744845 13.4509 0.58389 13.1155 0.397679C12.8961 0.275908 12.5989 0.143294 12.0405 0C10.5045 0 8.9686 0 7.43262 0C8.00996 0.381967 8.15666 0.633527 8.25841 0.846229C8.36016 1.05893 8.41695 1.23287 8.44532 1.6086C8.47375 1.98437 8.47375 2.56196 8.47375 3.06502C8.47375 3.56811 8.47374 3.99663 8.50056 4.42054C8.52734 4.84441 8.58097 5.26365 8.69772 5.62075C8.81444 5.97791 8.99426 6.27288 9.41543 6.71539C9.83661 7.15793 10.4992 7.74792 11.3131 8.47615C12.1271 9.20437 13.0925 10.0708 13.7187 10.7384C14.345 11.4061 14.6321 11.875 14.8331 12.3241C15.034 12.7732 15.1488 13.2025 15.1732 13.6472C15.1976 14.092 15.1315 14.5522 14.9771 14.9564C14.8227 15.3605 14.5799 15.7087 14.1654 16.1412C13.7508 16.5737 13.1643 17.0906 12.5203 17.317Z"
            fill="#616161" />
        <path
            d="M11.9624 17.3169C11.6366 17.3169 11.3333 17.3169 11.0526 17.3169C12.1021 16.4922 12.419 16.0875 12.6139 15.6605C12.8089 15.2334 12.882 14.7839 12.8723 14.371C12.8627 13.958 12.7704 13.5814 12.6088 13.2306C12.4471 12.8798 12.2161 12.5547 11.9925 12.2834C11.7689 12.0121 11.5527 11.7945 10.9682 11.355C10.3837 10.9155 9.43095 10.254 8.33778 9.4808C7.24464 8.70758 6.01104 7.82253 4.98475 7.07648C3.95847 6.33043 3.13947 5.7233 2.50692 5.23888C1.87436 4.75442 1.42826 4.39265 1.13264 3.97575C0.837029 3.55885 0.691911 3.08687 0.616185 2.68935C0.54046 2.29187 0.534161 1.96895 0.620902 1.63506C0.707676 1.30124 0.887492 0.956572 1.20454 0.642162C1.52166 0.32772 1.97595 0.0435661 2.64297 0C2.91315 0 3.18337 0 3.45358 0C2.70589 0.839054 2.59231 1.1744 2.5308 1.48648C2.46925 1.79861 2.45979 2.08741 2.57021 2.46311C2.68063 2.83884 2.91097 3.30155 3.31318 3.786C3.71542 4.27042 4.28967 4.77656 5.10203 5.35727C5.91443 5.93798 6.96503 6.59319 8.17492 7.42546C9.38485 8.25773 10.7541 9.26696 11.7321 10.0014C12.7101 10.7358 13.2969 11.1954 13.6929 11.5866C14.0888 11.9779 14.2939 12.3009 14.45 12.6611C14.6062 13.0213 14.7135 13.4188 14.7024 13.8381C14.6914 14.2573 14.562 14.6983 14.4027 15.0647C14.2434 15.4311 14.0541 15.723 13.5123 16.1945C12.9704 16.6659 12.0759 17.3169 11.9624 17.3169Z"
            fill="#616161" />
        <path
            d="M8.52587 17.3168C8.72518 16.825 8.75199 16.4778 8.72963 16.1748C8.7073 15.8717 8.63573 15.6126 8.52716 15.3673C8.41855 15.1221 8.27287 14.8907 7.96113 14.6253C7.64932 14.3599 7.17145 14.0606 6.15081 13.4023C5.13019 12.744 3.56677 11.7268 2.67014 11.1358C1.77357 10.5447 1.54375 10.3798 1.31977 10.1575C1.0958 9.93513 0.87769 9.65523 0.66641 9.23064C0.455098 8.80605 0.250612 8.23676 0.390948 6.59326C1.10506 7.41235 1.6236 7.77601 2.37963 8.294C3.13567 8.81202 4.12927 9.48437 5.23082 10.2322C6.33243 10.9799 7.54203 11.8031 8.23699 12.2982C8.93194 12.7934 9.11222 12.9604 9.27135 13.147C9.43049 13.3337 9.56848 13.54 9.67966 13.7626C9.79078 13.9852 9.87514 14.2241 9.92112 14.5096C9.96716 14.7951 9.97481 15.1271 9.89556 15.4353C9.81637 15.7434 9.65021 16.0277 9.41192 16.3546C9.17363 16.6816 8.86317 17.0513 8.52587 17.3168Z"
            fill="#616161" />
        <path
            d="M8.11412 2.1015C7.9719 1.53442 7.78579 1.34136 7.60389 1.22586C7.422 1.11032 7.24426 1.07237 7.01036 1.04513C6.77645 1.0179 6.48638 1.0014 6.12002 1.00056C5.75373 0.999716 5.31105 1.01458 5.00845 1.08224C4.70584 1.14989 4.54318 1.2704 4.38615 1.4271C4.22913 1.5838 4.07771 1.7767 3.98843 2.04426C3.89915 2.31176 3.872 2.65403 3.92223 2.98288C3.97246 3.31174 4.1001 3.62719 4.26887 3.91027C4.4376 4.19335 4.64743 4.44401 5.1436 4.90564C4.40297 4.43394 3.82701 3.84973 3.48335 3.43153C3.13965 3.01334 3.0282 2.76113 2.97428 2.43714C2.92029 2.11315 2.92375 1.71726 2.99793 1.40191C3.0721 1.08652 3.21696 0.85165 3.3975 0.665731C3.57807 0.479812 3.79436 0.342815 3.98467 0.240036C4.17494 0.137224 4.33928 0.068628 4.50525 0.034314C4.67124 -2.70897e-08 4.83892 0 5.14153 0C5.44413 0 5.8818 -1.19969e-07 6.19614 0.0153227C6.51049 0.030678 6.70162 0.0613236 6.91514 0.130244C7.1286 0.199164 7.36441 0.306359 7.61831 0.560646C7.87226 0.814901 8.14436 1.21628 8.11412 2.1015Z"
            fill="#616161" />
        <path
            d="M8.11435 2.10146C7.97213 1.53439 7.78602 1.34132 7.60413 1.22582C7.42223 1.11028 7.2445 1.07233 7.01059 1.04509C6.77669 1.01786 6.48661 1.00137 6.12025 1.00052C5.75396 0.999678 5.31128 1.01455 5.00868 1.0822C4.70607 1.14985 4.54341 1.27036 4.38638 1.42706C4.22936 1.58376 4.07794 1.77666 3.98866 2.04423C3.89938 2.31173 3.87224 2.65399 3.92247 2.98285C3.9727 3.3117 4.10034 3.62715 4.2691 3.91023C4.43784 4.19332 4.64766 4.44397 5.14384 4.9056C4.66115 4.34664 4.57121 4.12307 4.53101 3.91656C4.4908 3.71006 4.50027 3.52064 4.5444 3.32806C4.58859 3.13552 4.66745 2.9399 4.78731 2.77063C4.90723 2.60143 5.06811 2.45856 5.22273 2.35919C5.37728 2.25982 5.5256 2.20395 5.70386 2.16431C5.88213 2.12474 6.09034 2.10146 8.11435 2.10146Z"
            fill="#616161" />
        <path
            d="M0.430664 3.60156C0.430664 5.10011 0.508005 5.5061 0.630499 5.86671C0.753025 6.22732 0.92067 6.5425 1.19062 6.81974C1.46058 7.09698 1.83277 7.33627 2.39946 7.71259C2.96615 8.08891 3.7274 8.60212 4.73459 9.27172C5.74178 9.94128 6.99494 10.7672 7.83917 11.3572C8.68333 11.9471 9.11852 12.3012 9.45084 12.6221C9.78323 12.9429 10.0127 13.2306 10.1606 13.5314C10.3085 13.8321 10.3748 14.1458 10.3975 14.4678C10.4203 14.7897 10.3996 15.1197 10.2673 15.5256C10.1349 15.9315 9.89098 16.4131 8.84837 17.3167C9.03287 17.3167 9.27855 17.3167 9.58537 17.3167C10.1834 17.1513 10.6893 16.7476 11.0242 16.3835C11.3589 16.0194 11.5224 15.6949 11.6336 15.3491C11.7448 15.0032 11.8035 14.6359 11.7537 14.2536C11.7039 13.8713 11.5454 13.4738 11.2707 13.099C10.996 12.7243 10.6051 12.3721 9.17047 11.3627C7.73587 10.3533 5.25764 8.68669 3.81615 7.71532C2.37466 6.74394 1.96981 6.46784 1.55375 6.06016C1.13759 5.65248 0.710248 5.11326 0.430664 3.60156Z"
            fill="#616161" />
        <path
            d="M0.430664 3.60156C0.710248 5.11329 1.13759 5.65251 1.55372 6.06019C1.96978 6.46787 2.37459 6.74394 3.81612 7.71535C5.25764 8.68676 7.73584 10.3534 9.17043 11.3628C10.605 12.3722 10.996 12.7243 11.2707 13.0991C11.5454 13.4739 11.7038 13.8713 11.7537 14.2536C11.8035 14.6359 11.7448 15.0032 11.6336 15.3491C11.5224 15.6949 11.3589 16.0194 11.0241 16.3835C10.6893 16.7476 10.1834 17.1513 9.58534 17.3167C9.71661 17.3167 9.85906 17.3167 10.0127 17.3167C10.851 17.1372 11.2019 16.8927 11.4394 16.7062C11.677 16.5198 11.8011 16.3915 11.9284 16.2051C12.0558 16.0186 12.1861 15.7741 12.2741 15.5459C12.3621 15.3177 12.4076 15.1058 12.4043 14.791C12.401 14.4762 12.3488 14.0585 12.2481 13.7077C12.1474 13.3569 11.9982 13.073 11.7894 12.7801C11.5807 12.4871 11.3124 12.1852 10.9897 11.8947C10.6669 11.6042 10.2897 11.3254 9.60896 10.8352C8.92825 10.3451 7.94405 9.64369 6.56433 8.65066C5.18465 7.65763 3.40942 6.37288 2.36275 5.59846C1.31615 4.82401 0.997979 4.55989 0.430664 3.60156Z"
            fill="#616161" />
        <path
            d="M0.359375 13.9688C0.778504 14.8063 0.947039 15.0612 1.14701 15.2985C1.34694 15.5357 1.57831 15.7552 1.84489 15.912C2.11148 16.0688 2.4133 16.1628 2.80812 16.2049C3.20301 16.247 3.69087 16.2371 4.28361 16.2297C4.87629 16.2223 5.57378 16.2173 6.10109 16.2355C6.62837 16.2536 6.98553 16.2949 7.31752 16.443C7.64948 16.5911 7.9563 16.8461 8.29139 17.3231C8.28137 16.717 8.0873 16.2792 7.82784 15.9314C7.56834 15.5835 7.24341 15.3258 6.9563 15.169C6.66923 15.0122 6.41999 14.9563 5.69275 14.9299C4.96557 14.9035 3.76036 14.9066 3.02214 14.8973C2.28391 14.888 2.01261 14.8662 1.70182 14.7785C1.391 14.6907 1.04081 14.537 0.359375 13.9688Z"
            fill="#616161" />
        <path
            d="M0.359487 13.9688C0.778616 14.8063 0.947151 15.0612 1.14712 15.2985C1.34705 15.5357 1.57842 15.7552 1.84501 15.912C2.1116 16.0688 2.41341 16.1628 2.80823 16.2049C3.20312 16.247 3.69098 16.2371 4.28373 16.2297C4.8764 16.2223 5.5739 16.2173 6.1012 16.2355C6.62848 16.2536 6.98564 16.2949 7.31763 16.443C7.64959 16.5911 7.95641 16.8461 8.29151 17.3231C3.30685 17.3231 3.09055 17.3231 2.93462 17.3231C2.77868 17.3231 2.68313 17.3231 2.51202 17.2806C2.34085 17.2381 2.09415 17.1531 1.91239 17.0751C1.73063 16.9972 1.61384 16.9263 1.49158 16.8388C1.36938 16.7512 1.24171 16.647 1.11674 16.522C0.991808 16.397 0.869546 16.2513 0.756815 16.0388C0.644117 15.8263 0.540918 15.5468 0.459783 15.1926C0.378583 14.8384 0.319546 14.4092 0.359487 13.9688Z"
            fill="#616161" />
    </g>
    <g clip-path="url(#clip1_504_8899)">
        <path
            d="M16.0555 21.2532C16.0689 21.8402 15.2652 21.9905 15.0743 21.4365C15.1533 21.0286 14.9477 20.6186 14.5774 20.4458C14.4997 20.4095 14.4232 20.3925 14.3377 20.3925C13.9839 20.3925 13.6302 20.3925 13.2764 20.3925C12.8745 20.3993 12.5559 20.7411 12.5689 21.1516C12.5689 21.3864 12.5689 21.6212 12.5689 21.856C12.5555 22.1367 12.4416 22.253 12.1669 22.2664C12.129 22.2664 12.0911 22.2664 12.0533 22.2664C11.8626 22.2517 11.7064 22.419 11.7299 22.6129C11.9068 22.6129 12.0837 22.6129 12.2606 22.6129C12.6325 22.6002 12.9283 22.29 12.9311 21.9097C12.9311 21.67 12.9311 21.4302 12.9311 21.1905C12.9339 20.9465 13.1401 20.7569 13.3779 20.7799C13.6547 20.7799 13.9315 20.7799 14.2083 20.7799C14.6466 20.776 14.8686 21.3173 14.5585 21.6337C14.2485 21.9502 13.7189 21.7228 13.7232 21.275C13.7232 21.225 13.7232 21.1749 13.7232 21.1249C13.7135 20.938 13.5307 20.813 13.3579 20.8753C13.3579 21.0446 13.3579 21.2139 13.3579 21.3833C13.3579 21.4651 13.3727 21.5392 13.4041 21.6145C13.6625 22.2336 14.4711 22.3527 14.8902 21.8335C15.2091 22.3073 15.8951 22.3034 16.2088 21.826C16.316 22.063 16.4539 22.1535 16.7094 22.1547C17.5339 22.1547 18.3584 22.1547 19.183 22.1547C19.183 21.896 19.0793 21.7879 18.8262 21.7828C18.8223 21.7828 18.8185 21.7827 18.8147 21.7827C18.1616 21.7827 17.5086 21.7827 16.8555 21.7827C16.6071 21.7568 16.4202 21.5396 16.4268 21.2846C16.4268 21.0379 16.4268 20.7911 16.4268 20.5444C16.4268 20.4827 16.4268 20.4209 16.4268 20.3591C16.1777 20.3346 16.0665 20.4334 16.0557 20.6888C16.0553 20.6973 16.0552 20.7058 16.0552 20.7143C16.0553 20.9019 16.0554 21.0895 16.0556 21.2771"
            fill="#616161" />
        <path
            d="M8.41924 21.2795C8.40106 21.9357 9.40125 21.9357 9.38308 21.2795C9.38308 21.1018 9.38308 20.9242 9.38308 20.7465C9.38018 20.4865 9.49553 20.3835 9.74736 20.4212C9.74736 20.7042 9.74736 20.9872 9.74736 21.2702C9.78631 22.1108 8.7283 22.4845 8.25087 21.7988C8.08394 22.0279 7.90322 22.1284 7.62429 22.1473C7.13019 22.1473 6.63609 22.1473 6.14201 22.1473C5.78685 22.1276 5.51147 21.8228 5.52074 21.4595C5.52081 20.9159 5.52088 20.3724 5.52095 19.8289C5.51719 19.5632 5.62427 19.4522 5.88437 19.4521C5.88437 20.0532 5.88437 20.6542 5.88437 21.2552C5.88437 21.2643 5.88413 21.2734 5.88373 21.2826C5.87219 21.5367 6.07247 21.7482 6.32143 21.7449C6.76639 21.7449 7.21135 21.7449 7.65631 21.7449C8.24661 21.7024 8.25914 20.8212 7.67029 20.7612C7.238 20.7612 6.80574 20.7612 6.3735 20.7612C6.37067 20.5459 6.45003 20.4483 6.65775 20.4117C6.97993 20.4117 7.30209 20.4117 7.62429 20.4117C8.07828 20.4424 8.42839 20.8325 8.41908 21.2973"
            fill="#616161" />
        <path
            d="M11.3707 19.8733C11.4895 19.8733 11.6083 19.8733 11.7271 19.8733C11.7523 19.8733 11.7775 19.8733 11.8028 19.8733C12.0257 19.8851 12.1203 19.791 12.1148 19.563C11.8283 19.563 11.5418 19.563 11.2554 19.563C11.201 19.563 11.1492 19.5704 11.0969 19.5857C10.4925 19.7621 10.2993 20.5392 10.7479 20.989C9.67151 21.366 9.69241 22.9287 10.7784 23.2755C10.8351 23.2936 10.8912 23.3024 10.9506 23.3024C11.3477 23.3024 11.7448 23.3024 12.1419 23.3024C12.1459 23.3024 12.1499 23.3023 12.1539 23.3023C12.3429 23.2983 12.4768 23.1121 12.4239 22.9266C11.963 22.9266 11.502 22.9266 11.041 22.9266C10.8942 22.9266 10.7829 22.8853 10.6704 22.7889C10.0653 22.2706 10.4078 21.2629 11.197 21.2394C11.2295 21.2394 11.262 21.2394 11.2944 21.2394C11.4736 21.2394 11.6528 21.2394 11.8319 21.2394C12.0646 21.2376 12.1568 21.1327 12.1334 20.8961C11.8827 20.8961 11.632 20.8961 11.3814 20.8961C10.7139 20.8993 10.72 19.8621 11.3873 19.8733"
            fill="#616161" />
        <path
            d="M7.05265 22.9429C7.23371 22.9065 7.29391 22.8147 7.25823 22.6297C7.22252 22.4447 7.13274 22.3832 6.95168 22.4197C6.77063 22.4562 6.71042 22.5479 6.74615 22.7329C6.78183 22.9179 6.87162 22.9794 7.05265 22.9429Z"
            fill="#616161" />
        <path
            d="M11.5165 19.3004C11.6976 19.2639 11.7578 19.1721 11.7221 18.9871C11.6864 18.8021 11.5966 18.7406 11.4156 18.7771C11.2345 18.8136 11.1743 18.9053 11.21 19.0903C11.2457 19.2753 11.3355 19.3368 11.5165 19.3004Z"
            fill="#616161" />
        <path
            d="M9.74886 19.7617C9.75439 20.0169 9.65243 20.1243 9.40266 20.1265C9.00476 20.1265 8.6069 20.1265 8.20898 20.1265C8.22353 19.8704 8.32941 19.7664 8.58044 19.7617C8.96993 19.7617 9.35941 19.7617 9.74886 19.7617Z"
            fill="#616161" />
        <path
            d="M16.3035 22.5776C16.3091 22.8328 16.2071 22.9402 15.9573 22.9424C15.5595 22.9424 15.1616 22.9424 14.7637 22.9424C14.7782 22.6863 14.8841 22.5823 15.1351 22.5776C15.5246 22.5776 15.9141 22.5776 16.3035 22.5776Z"
            fill="#616161" />
        <path
            d="M3.70196 20.4126C3.70749 20.6677 3.60553 20.7752 3.35576 20.7774C2.95787 20.7774 2.56 20.7774 2.16211 20.7774C2.17665 20.5213 2.28254 20.4173 2.53354 20.4126C2.92301 20.4126 3.31249 20.4126 3.70196 20.4126Z"
            fill="#616161" />
        <path
            d="M1.23948 22.1474C1.25211 22.1489 1.26472 22.1497 1.27742 22.15C1.28359 22.1501 1.28981 22.1501 1.29598 22.1501C2.05158 22.1501 2.80723 22.1501 3.56282 22.1501C3.57408 22.1501 3.58529 22.1504 3.5965 22.1511C3.95659 22.1726 4.27276 21.9087 4.32384 21.5438C4.32772 21.5161 4.32963 21.4884 4.32963 21.4604C4.32963 21.0996 4.32963 20.7387 4.32963 20.3779C4.07788 20.378 3.97248 20.4832 3.96631 20.7403C3.96616 20.7451 3.96614 20.7499 3.96614 20.7547C3.96623 20.9606 3.96635 21.1664 3.96647 21.3723C3.96647 21.3806 3.96626 21.3889 3.96593 21.3973C3.95413 21.6815 3.83428 21.7944 3.55609 21.7835C3.54873 21.7833 3.54135 21.7831 3.534 21.7831C2.80344 21.7833 2.07286 21.7834 1.34231 21.7835C1.14816 21.7835 1.03356 21.718 0.932203 21.5487C0.792278 21.315 0.804622 21.1475 0.977347 20.9379C1.07993 20.8134 1.18585 20.7631 1.3451 20.7631C1.41902 20.7631 1.49292 20.7631 1.56682 20.7631C1.75882 20.7652 1.90442 20.5868 1.86795 20.3942C1.67915 20.3942 1.49037 20.3942 1.30158 20.3942C1.28744 20.3942 1.2734 20.3949 1.25933 20.3961C0.223876 20.4894 0.206377 22.0296 1.23948 22.1474Z"
            fill="#616161" />
        <path
            d="M4.46107 22.6147C4.43868 22.6179 4.41634 22.6196 4.39371 22.6196C4.18773 22.6196 3.98172 22.6196 3.77574 22.6196C3.74952 22.3737 3.84342 22.2633 4.08536 22.2554C4.17396 22.2554 4.26259 22.2554 4.35117 22.2554C4.62369 22.2188 4.72697 22.0927 4.71446 21.8122C4.71406 21.8032 4.71385 21.7943 4.71385 21.7853C4.71383 21.4327 4.71378 21.0801 4.71375 20.7274C4.71375 20.7226 4.71383 20.7178 4.71392 20.713C4.72009 20.4558 4.82548 20.3507 5.07724 20.3506C5.07724 20.8523 5.07724 21.354 5.07724 21.8557C5.07724 21.8607 5.07726 21.8656 5.07741 21.8706C5.08668 22.2426 4.82163 22.5626 4.46107 22.6147Z"
            fill="#616161" />
    </g>
    <g clip-path="url(#clip2_504_8899)">
        <path
            d="M35.892 0H36.0529C36.1038 1.58845 36.1569 3.17691 36.212 4.76536C36.3031 4.78021 36.3434 4.65225 36.4035 4.59817C36.4695 4.4886 36.6217 4.42144 36.6175 4.28006C36.6175 2.85373 36.6175 1.4281 36.6175 0.00318115H36.7645C36.9894 0.0318115 37.2163 0.0445361 37.4404 0.0738733C37.3935 1.159 37.3361 2.24377 37.2882 3.3289C37.2628 3.63959 37.2732 3.95311 37.234 4.26274C37.3974 4.18247 37.5815 4.15674 37.7601 4.18922C37.8958 2.85785 38.0295 1.52648 38.1611 0.19511C38.4095 0.261915 38.6549 0.339676 38.903 0.408954C38.7049 1.80371 38.4926 3.1967 38.29 4.59075C38.454 4.57237 38.6215 4.55258 38.7838 4.59782C39.036 3.28471 39.2887 1.97161 39.5482 0.660265C39.7984 0.791046 40.0465 0.926421 40.2943 1.06215C40.0059 2.25261 39.7163 3.44259 39.4256 4.63211C39.3981 4.75087 39.3585 4.86716 39.3474 4.9891L39.3752 5.03399C39.4916 5.09196 39.6184 5.12624 39.73 5.19694C40.1059 3.92342 40.4746 2.65096 40.8562 1.38062C41.0647 1.53756 41.2672 1.69873 41.4764 1.85426C40.851 3.73078 40.2081 5.60094 39.5792 7.47429C39.5562 7.56159 39.5861 7.65102 39.5934 7.73868C39.6216 7.89915 39.6209 8.06386 39.6518 8.22398L39.6921 8.25614C39.7696 8.11476 39.8175 7.96242 39.8776 7.81467C40.5942 5.99599 41.3107 4.17673 42.0272 2.35688C42.2124 2.54881 42.3893 2.74922 42.5748 2.9408C41.7572 4.7537 40.9284 6.562 40.1077 8.37278C40.1834 8.47281 40.2898 8.59971 40.2262 8.73367C40.1251 8.89803 39.9266 8.97932 39.8439 9.15782C39.7984 9.28719 39.8415 9.42504 39.8787 9.55122C39.9114 9.49926 39.9437 9.44695 39.9729 9.39287C40.9734 7.4248 41.9745 5.45626 42.9762 3.48725C43.1291 3.7223 43.258 3.97255 43.4067 4.21043C42.3179 6.12218 41.226 8.03193 40.131 9.93968C40.1918 9.98881 40.2436 10.0599 40.3217 10.0811C40.3749 10.0931 40.4041 10.0415 40.4308 10.0054C41.524 8.29538 42.6194 6.58698 43.717 4.88024C43.8039 5.12377 43.9109 5.36412 43.9689 5.61614C43.8852 5.76212 43.7764 5.89149 43.683 6.03111C42.71 7.4089 41.7363 8.78739 40.762 10.1666C40.6623 10.308 40.5188 10.4518 40.5674 10.6431C40.574 10.7512 40.7113 10.7258 40.7505 10.6526C41.8889 9.19034 43.0116 7.71464 44.1559 6.25803C44.2056 6.54292 44.2601 6.82781 44.3091 7.1127C42.9259 8.72613 41.5416 10.3397 40.1563 11.9533C40.1216 12.0057 40.0448 12.082 40.1171 12.1386C40.1692 12.1474 40.2279 12.1477 40.263 12.0997C41.6157 10.6901 42.9681 9.27977 44.3202 7.86875C44.3202 8.08507 44.3202 8.30103 44.3202 8.51735C44.314 8.56577 44.3303 8.62728 44.29 8.66404C43.0096 9.89455 41.7285 11.1246 40.4465 12.3542C40.3422 12.5196 40.1685 12.6122 40.0431 12.7561C39.5566 13.2386 39.0732 13.7236 38.593 14.2109C38.6448 14.2109 38.6972 14.2084 38.7497 14.2081C40.1165 12.9787 41.4857 11.7526 42.8573 10.5296C43.316 10.1256 43.7608 9.70568 44.2296 9.31228C44.1865 9.56501 44.1389 9.81738 44.0923 10.0698C44.0742 10.1822 43.9585 10.2309 43.8838 10.3009C42.2694 11.607 40.6456 12.9013 39.0357 14.2148C39.0979 14.2042 39.1695 14.2208 39.2265 14.1865C40.7703 13.0618 42.3014 11.9169 43.8501 10.7993C43.7844 10.9873 43.7048 11.1701 43.6354 11.3571C43.6006 11.4362 43.5791 11.5306 43.5002 11.5776C42.7139 12.1066 41.9263 12.6347 41.1373 13.1618C40.6202 13.5153 40.092 13.8511 39.5809 14.213C39.642 14.2073 39.7012 14.1885 39.7546 14.1579C40.393 13.7691 41.0403 13.3944 41.679 13.0084C42.2051 12.7052 42.7173 12.3761 43.2493 12.0834C42.9863 12.5857 42.6353 13.0378 42.2499 13.4474C42.1339 13.5768 41.9886 13.6772 41.8812 13.8147C41.9507 13.9451 42.0866 14.0186 42.1648 14.1388C42.1787 14.8457 42.1665 15.5526 42.1707 16.2596C38.3678 16.2596 34.5648 16.2596 30.7617 16.2596C30.7617 15.588 30.7579 14.9185 30.7617 14.2477C30.8535 14.1621 30.9435 14.0741 31.0338 13.9868C30.6276 13.6066 30.2506 13.1954 29.9059 12.7568C29.7757 12.5917 29.6595 12.4157 29.5584 12.2308C30.7951 12.8723 32.0255 13.5308 33.2577 14.1784C33.3027 14.1961 33.3493 14.2096 33.3967 14.2187C33.2435 14.0996 33.0711 14.0094 32.9102 13.9044C31.7211 13.17 30.5323 12.435 29.3436 11.6996C29.2903 11.672 29.2476 11.6271 29.2224 11.572C29.1306 11.3673 29.041 11.1612 28.9552 10.9538C29.6129 11.3814 30.2568 11.8275 30.9101 12.2594C31.8507 12.8957 32.7963 13.5227 33.7359 14.1593C33.7903 14.1935 33.852 14.2138 33.9158 14.2183C33.773 14.0907 33.6135 13.985 33.462 13.8687L28.7324 10.3469C28.6577 10.0531 28.5778 9.75977 28.5305 9.45968C30.4144 11.0276 32.2948 12.5999 34.1719 14.1766C34.2268 14.2219 34.3036 14.2042 34.3686 14.2155C33.0885 13.0091 31.7972 11.8155 30.5115 10.6141C29.8218 9.97396 29.1379 9.32536 28.443 8.69125C28.443 8.44842 28.4384 8.2056 28.4468 7.96312C28.746 8.24165 29.0201 8.54633 29.312 8.83264C31.0724 10.6261 32.8335 12.419 34.5955 14.2113L34.6928 14.207C32.9881 12.3143 31.2834 10.4217 29.5789 8.52901C29.2172 8.12077 28.8433 7.72277 28.4874 7.30993C28.5166 7.01196 28.5778 6.71611 28.632 6.42168C30.7118 9.0175 32.7916 11.6133 34.8714 14.2091H34.9903C32.916 11.3937 30.8392 8.57979 28.7599 5.76742C28.8551 5.52 28.9461 5.27258 29.0396 5.02515C29.7401 6.05443 30.4191 7.09926 31.1113 8.13561C32.4561 10.1621 33.8008 12.1878 35.1456 14.2127L35.2498 14.2102C33.2687 10.9341 31.2872 7.65832 29.3054 4.38292C29.4573 4.12489 29.6084 3.86616 29.7617 3.60884C30.8674 5.6615 31.9703 7.71582 33.0704 9.77178C33.1441 9.70794 33.2274 9.65662 33.3171 9.61979C33.0332 9.06027 32.7691 8.48872 32.4915 7.92707C32.3897 7.88713 32.2795 7.85072 32.2059 7.76377C32.1266 7.68212 32.1061 7.56583 32.0829 7.45873C32.0558 7.32371 31.9439 7.2304 31.9011 7.10209C31.8848 6.93137 31.9706 6.74227 31.8629 6.58816C31.2833 5.42421 30.7218 4.25072 30.1519 3.08183C30.3291 2.8747 30.4938 2.65767 30.6773 2.45479C30.8265 2.80707 30.9751 3.15935 31.1231 3.51163C31.1704 3.41408 31.2155 3.29461 31.3243 3.25361C31.3997 3.24053 31.498 3.23311 31.5495 3.3038C31.6756 3.45897 31.7823 3.62934 31.9067 3.78592C31.6707 3.17125 31.44 2.55482 31.2051 1.94015C31.4136 1.77367 31.6197 1.6033 31.8306 1.43929C32.0846 2.19323 32.341 2.9461 32.5898 3.70144C32.6216 3.61732 32.6611 3.53648 32.708 3.46003C32.7719 3.37485 32.88 3.34904 32.9728 3.31016C32.7751 2.56789 32.5794 1.82563 32.3803 1.08619C32.6388 0.950103 32.8967 0.8119 33.159 0.682887C33.3335 1.5729 33.5062 2.46327 33.6771 3.35399C33.7008 3.52471 33.8808 3.63676 33.8648 3.81809C33.8648 3.90857 33.7789 3.95947 33.724 4.01779L33.6121 3.97149C33.6368 4.20018 33.6372 4.43099 33.6604 4.65897C33.7188 4.80247 33.8995 4.81414 34.0309 4.8357C34.222 4.85383 34.4023 4.934 34.5451 5.06439C34.6417 5.14215 34.7189 5.24854 34.836 5.29873C34.9055 5.28 34.9726 5.24571 35.0445 5.23052C35.1317 5.24677 35.2064 5.29944 35.2849 5.33655C35.4587 5.29096 35.6203 5.20966 35.7846 5.13685C35.8868 5.08136 35.917 5.22769 35.9643 5.28742C35.9938 5.24925 36.0421 5.21496 36.0303 5.15912C36.0244 4.93149 35.941 4.71305 35.9497 4.48401C35.9445 4.27158 35.9737 4.05973 36.0362 3.85697C35.9507 3.88878 35.844 4.02345 35.7561 3.93756C35.6268 3.77662 35.557 3.57459 35.5591 3.36672C35.4955 3.35823 35.4319 3.34975 35.3683 3.34197C35.5372 3.08077 35.4378 2.76124 35.4125 2.47493C35.3558 1.66834 35.3044 0.861384 35.2481 0.0551399C35.4622 0.0417084 35.6776 0.0236819 35.892 0ZM31.2982 3.56465C31.2559 3.82268 31.3281 4.07894 31.3719 4.33166C31.4001 4.52253 31.5328 4.6724 31.5853 4.85549C31.6666 5.0499 31.6485 5.27611 31.7639 5.45638C31.856 5.6165 31.989 5.74445 32.1086 5.88053C32.1809 5.96218 32.184 6.08024 32.1833 6.18415C32.1833 6.46445 32.0627 6.72318 32.0252 6.99711C31.9925 7.19505 32.2288 7.27741 32.2358 7.46262C32.2486 7.52978 32.2604 7.60401 32.3178 7.6496C32.4286 7.74539 32.5839 7.73691 32.7146 7.78569C32.8998 7.84931 33.0951 7.9557 33.1781 8.14551C33.199 8.27841 33.167 8.41555 33.1945 8.54739C33.2365 8.63187 33.2932 8.70928 33.322 8.80083C33.3738 8.95918 33.3501 9.12919 33.3845 9.29072C33.403 9.35611 33.4349 9.43988 33.5128 9.4466C33.6653 9.39782 33.6848 9.15888 33.8603 9.15393C33.9676 9.13979 33.9503 9.29744 34.0385 9.3236C34.1737 9.36071 34.337 9.3296 34.4437 9.44024C34.5132 9.49997 34.5299 9.59611 34.5535 9.6813C34.6438 10.0302 34.8213 10.3493 35.0688 10.6077C35.1466 10.6957 35.2683 10.7106 35.3666 10.7657C35.4959 10.8258 35.5883 10.9538 35.7353 10.9778C36.0432 11.0598 36.2655 11.3935 36.6075 11.3472C36.8959 11.2602 37.1221 10.9976 37.4369 10.9937C37.506 10.99 37.5749 11.0034 37.6378 11.0327C37.7006 11.062 37.7556 11.1063 37.798 11.1619C37.9477 11.3302 37.9915 11.5667 38.1378 11.7363C38.1868 11.7996 38.2671 11.807 38.3407 11.8049C38.7031 11.8006 39.0604 11.8728 39.4162 11.936C39.5899 11.9625 39.7425 12.0548 39.9138 12.0887C40.0048 11.7794 39.9954 11.4246 40.2133 11.1672C40.3381 10.9986 40.5479 10.9396 40.746 10.9287C40.6466 10.8866 40.5215 10.882 40.451 10.7908C40.3697 10.625 40.4857 10.3854 40.3252 10.256C40.1751 10.1521 40.0125 10.0613 39.894 9.91776C39.6765 9.68801 39.616 9.34127 39.6855 9.03906C39.78 8.8853 39.9774 8.84041 40.0781 8.69196C40.1153 8.63187 40.1077 8.52725 40.0337 8.50074C39.8721 8.43429 39.6643 8.50639 39.5284 8.37597C39.3957 8.20595 39.4791 7.97549 39.4308 7.78038C39.396 7.639 39.4151 7.49479 39.4197 7.35199C39.4138 7.17809 39.1886 7.11022 39.206 6.92784C39.206 6.58993 39.5493 6.39764 39.6125 6.07953C39.615 5.98551 39.575 5.89644 39.5694 5.80277C39.5503 5.67022 39.5875 5.5405 39.6202 5.41396C39.6476 5.34645 39.592 5.28283 39.5343 5.25844C39.404 5.1934 39.2595 5.14038 39.1764 5.01102C39.1236 5.00819 39.0691 5.01773 39.018 5.00253C38.9165 4.92689 38.8355 4.82227 38.7209 4.76501C38.5649 4.74769 38.405 4.81025 38.2507 4.76041C38.0203 4.68972 37.8518 4.50627 37.6947 4.33096C37.5995 4.33379 37.5047 4.33379 37.4098 4.33555C37.3237 4.40567 37.2192 4.4484 37.1094 4.4584C36.9996 4.46839 36.8893 4.44521 36.7923 4.39175C36.6426 4.57209 36.4836 4.74423 36.3159 4.90745C36.2715 4.96118 36.2002 4.9428 36.1401 4.94633C36.1748 5.03505 36.202 5.13296 36.1748 5.2291C36.1108 5.3411 36.0157 5.43136 35.9014 5.48854C35.8614 5.43962 35.8251 5.38776 35.7926 5.33337C35.6123 5.32065 35.4535 5.42103 35.2804 5.45178C35.1974 5.47794 35.1209 5.42457 35.0414 5.40937C34.9211 5.43411 34.7797 5.48642 34.6751 5.39028C34.5257 5.2489 34.3784 5.07853 34.1646 5.04636C33.9537 5.00854 33.7147 4.97178 33.5684 4.7947C33.4454 4.6466 33.5576 4.44124 33.4811 4.2744C33.3581 4.26239 33.1879 4.32247 33.1066 4.19594C33.0457 3.9927 33.1163 3.77673 33.0854 3.56925C33.0808 3.52577 33.0506 3.44306 32.9919 3.48513C32.8338 3.52047 32.7945 3.6972 32.6792 3.78981C32.5278 3.9191 32.3484 4.01007 32.1558 4.05526C32.046 4.07859 31.9025 4.07081 31.8389 3.96124C31.7104 3.75658 31.603 3.51552 31.382 3.3957C31.3369 3.44308 31.3067 3.50298 31.2951 3.56784M33.829 9.3554C33.7692 9.47028 33.6921 9.59258 33.551 9.60495C33.5416 9.65549 33.5555 9.74633 33.4815 9.74916C33.3772 9.758 33.2435 9.78274 33.2105 9.90362C33.2226 10.0432 33.3633 10.1182 33.3939 10.25C33.4099 10.3264 33.4238 10.408 33.4839 10.4621C33.7306 10.7304 34.0583 10.9 34.3724 11.0722C34.3853 11.2782 34.5337 11.4345 34.5778 11.6303C34.6063 11.7204 34.516 11.789 34.5205 11.8777C34.5417 11.9431 34.607 11.9788 34.6539 12.0244C34.6679 12.1195 34.6979 12.2114 34.7425 12.2962C34.7335 12.1873 34.738 12.052 34.8422 11.9894C34.9409 11.9682 35.016 12.0569 35.0817 12.117C35.1585 12.2022 35.2554 12.2842 35.2829 12.3998C35.2481 12.4768 35.1974 12.545 35.155 12.6182C35.5581 12.5765 35.9632 12.5885 36.3674 12.5949C36.524 12.481 36.66 12.3404 36.7694 12.1792C36.8184 12.0873 36.9292 12.111 37.0147 12.0937C37.0217 11.9215 37.1857 11.8257 37.218 11.6635C37.229 11.6116 37.2517 11.5629 37.2842 11.5213C37.3168 11.4798 37.3583 11.4464 37.4056 11.4239C37.4751 11.3977 37.5349 11.4465 37.5919 11.4783C37.5919 11.6699 37.5919 11.8618 37.5919 12.0537C37.5964 12.1202 37.5658 12.1806 37.5422 12.2404C37.6426 12.3333 37.7806 12.3637 37.8859 12.45C37.9505 12.4952 38.011 12.5655 38.0982 12.5489C38.7702 12.527 39.4426 12.5429 40.1136 12.521C40.145 12.5274 40.1774 12.5257 40.2079 12.5158C40.2385 12.506 40.266 12.4884 40.288 12.4648C40.31 12.4411 40.3257 12.4122 40.3337 12.3807C40.3417 12.3491 40.3416 12.316 40.3335 12.2845C40.2019 12.2806 40.0625 12.3036 39.9412 12.2382C39.8293 12.1799 39.698 12.205 39.583 12.1675C39.1827 11.9866 38.7341 12.0233 38.3084 11.9866C38.0884 11.9731 37.9491 11.7745 37.8591 11.591C37.7768 11.4302 37.71 11.2111 37.5092 11.1729C37.2715 11.1729 37.0616 11.3065 36.8709 11.4366C36.6589 11.5387 36.4038 11.5295 36.1884 11.4429C36.0598 11.3528 35.9608 11.2114 35.8062 11.1648C35.7238 11.1436 35.6182 11.1803 35.5629 11.098C35.4166 10.9361 35.2113 10.859 35.0233 10.7625C34.8762 10.6281 34.7506 10.4713 34.6508 10.2977C34.5083 10.063 34.4367 9.79476 34.3436 9.53779C34.2428 9.51411 34.1386 9.518 34.0371 9.50032C33.9499 9.48407 33.8884 9.41479 33.8286 9.35399M33.6201 10.8067C34.1789 11.8791 34.7366 12.952 35.2933 14.0253C35.3412 14.102 35.3628 14.2314 35.4785 14.2166C34.9889 13.1526 34.4889 12.0933 33.9926 11.0322C33.8953 10.9234 33.7438 10.8806 33.6201 10.8067ZM37.2138 12.053C37.1155 12.7783 37.0088 13.5022 36.9133 14.2282L36.9713 14.1908C37.1304 13.3272 37.2809 12.4613 37.4348 11.5963C37.3085 11.7157 37.2298 11.8783 37.2138 12.053ZM34.8965 12.1386C34.8551 12.2786 34.8645 12.4291 34.9229 12.5627C35.1446 13.0929 35.3607 13.6231 35.5807 14.1533C35.5869 14.1731 35.5993 14.1902 35.616 14.2023C35.6326 14.2143 35.6527 14.2206 35.6731 14.2201C35.5087 13.7397 35.343 13.2594 35.1703 12.7819C35.1337 12.7694 35.1002 12.749 35.0721 12.7221C35.0441 12.6952 35.0221 12.6624 35.0076 12.626C35.0316 12.5426 35.0577 12.4556 35.0459 12.3676C35.0278 12.2739 34.9583 12.2039 34.8965 12.1371M36.7843 12.3662C36.7538 12.9816 36.7249 13.5969 36.6877 14.2116L36.7798 14.2067C36.8219 13.5499 36.8983 12.8957 36.9369 12.2386C36.874 12.2598 36.7757 12.2778 36.7843 12.3662ZM37.5488 12.4344C37.4029 13.0321 37.2399 13.6256 37.1054 14.2257L37.1777 14.1883C37.3427 13.6298 37.4936 13.066 37.6586 12.5072L37.5471 12.4348M37.84 12.6468C37.6663 13.1703 37.481 13.6899 37.3021 14.2116L37.3914 14.207C37.5672 13.7122 37.7451 13.2205 37.9303 12.7306C37.9001 12.7023 37.8702 12.6744 37.84 12.6468ZM36.3969 12.7575C36.399 13.2403 36.4104 13.7238 36.4052 14.2067L36.5484 14.212C36.5505 13.6927 36.5442 13.1735 36.5515 12.6543C36.5001 12.6896 36.4473 12.7196 36.3969 12.7575ZM38.5548 12.6938C38.2643 13.2 37.972 13.7058 37.6909 14.218L37.7827 14.2021C38.1027 13.7072 38.3981 13.1954 38.7104 12.6953H38.5548M38.937 12.6953C38.5968 13.1979 38.266 13.7069 37.9262 14.2098C37.97 14.2098 38.0137 14.2098 38.0579 14.2123C38.4321 13.7044 38.814 13.2025 39.1893 12.6949C39.1048 12.6949 39.0211 12.6953 38.937 12.6953ZM38.25 14.2091H38.372L39.781 12.679C39.6949 12.6758 39.6073 12.6758 39.5225 12.6733C39.0951 13.183 38.671 13.695 38.25 14.2091ZM38.144 12.7246C37.9251 13.2194 37.7014 13.7143 37.48 14.2091H37.5717C37.8181 13.7118 38.0638 13.2141 38.3164 12.72C38.2587 12.72 38.2014 12.7232 38.1427 12.7253M35.6991 12.7553C35.8006 13.2032 35.8896 13.6542 35.982 14.1045C35.9966 14.1522 35.9952 14.225 36.0671 14.225C36.0021 13.7334 35.9115 13.2456 35.8371 12.7557H35.6981M36.0411 12.7575C36.0921 13.2421 36.1356 13.727 36.1874 14.2116H36.2676C36.2485 13.7274 36.2044 13.2445 36.1828 12.7606L36.0411 12.7575ZM35.3774 12.7925C35.5129 13.2633 35.6554 13.7323 35.7825 14.2063L35.875 14.2158C35.7478 13.7419 35.6227 13.2672 35.4948 12.7935H35.3774M31.0223 14.4626C31.0248 14.979 31.0258 15.495 31.0223 16.0114C34.6647 16.0178 38.307 16.0185 41.9494 16.0135C41.9466 15.4964 41.9476 14.979 41.9494 14.4619C38.3075 14.4619 34.6656 14.4619 31.0237 14.4619M33.8106 0.455965C34.0465 0.379617 34.2793 0.293373 34.5163 0.220206C34.6414 1.22368 34.77 2.22645 34.8881 3.23063C34.6751 3.22887 34.4624 3.23346 34.2498 3.2271C34.1021 2.30351 33.9534 1.38027 33.8106 0.455965ZM35.1213 6.26262C35.4357 5.94062 35.8913 5.79181 36.3312 5.79959C36.9675 5.79676 37.5822 6.13007 37.9707 6.63694C38.1121 6.8165 38.2295 7.02115 38.2768 7.24842C38.3703 7.67647 38.3491 8.119 38.3327 8.55411C38.3303 8.63894 38.3275 8.73084 38.3807 8.8033C38.5197 9.01219 38.7528 9.12672 38.9714 9.23311C38.8793 9.39853 38.7793 9.55935 38.6844 9.72336C38.4978 9.6456 38.3126 9.55158 38.1666 9.40772C37.9579 9.18212 37.8242 8.89551 37.7844 8.5884C37.7302 8.54845 37.6763 8.50887 37.6228 8.46857C37.678 8.34106 37.7162 8.20661 37.7364 8.06881C37.8021 8.0582 37.8671 8.04265 37.9328 8.03346C37.9454 7.79802 37.9199 7.56208 37.8574 7.33502L37.6798 7.39865C37.6299 7.25399 37.5553 7.11939 37.4595 7.001L37.5637 6.89072C37.4191 6.69699 37.2365 6.53585 37.0276 6.41744C36.988 6.47046 36.949 6.52348 36.9091 6.57685C36.7975 6.52524 36.6759 6.50969 36.5588 6.47823C36.5481 6.41522 36.5411 6.35159 36.538 6.28772C36.3062 6.28171 36.072 6.27464 35.843 6.32306C35.8496 6.398 35.8583 6.47258 35.867 6.54751C35.737 6.6182 35.6039 6.68501 35.4708 6.7511C35.3544 6.58745 35.23 6.42981 35.1188 6.26227M33.69 6.52595C33.7779 6.35664 33.8703 6.19016 33.9659 6.02545C34.1744 6.09367 34.3533 6.23046 34.5243 6.36689C34.7595 6.57013 34.837 6.90097 34.8297 7.20354L34.9941 7.28518C34.9593 7.42127 34.9333 7.55982 34.9072 7.69838H34.7258C34.7049 7.95139 34.7307 8.20614 34.8019 8.44948C34.8589 8.43323 34.916 8.41732 34.9732 8.40177C35.031 8.52007 35.1026 8.63081 35.1866 8.73155C35.1324 8.77679 35.0788 8.82262 35.0257 8.86904C35.1644 9.07603 35.3569 9.23976 35.5817 9.34197L35.6946 9.20059C35.8121 9.24512 35.9306 9.28719 36.0484 9.33066C36.0546 9.39429 36.0616 9.45756 36.0692 9.52083C36.3106 9.55462 36.5563 9.53827 36.7913 9.47275C36.7757 9.40595 36.7642 9.33809 36.7482 9.27128C36.8841 9.21296 37.0178 9.15005 37.1537 9.09102C37.258 9.2476 37.3622 9.40524 37.4744 9.55617C37.2461 9.72158 36.9855 9.83517 36.7103 9.88926C36.4351 9.94335 36.1516 9.93668 35.8791 9.86969C35.4703 9.77081 35.095 9.56207 34.7926 9.26527C34.4051 8.84112 34.2957 8.23069 34.3102 7.66869C34.3036 7.43046 34.3572 7.17384 34.254 6.95152C34.1184 6.75075 33.8936 6.64047 33.6896 6.52736M35.9483 6.48212C36.1005 6.47694 36.2528 6.47387 36.4052 6.47293C36.4052 6.53585 36.408 6.59876 36.4091 6.66168C36.5677 6.68575 36.7236 6.72649 36.874 6.78327C36.9126 6.73414 36.9511 6.68465 36.99 6.63588C37.1183 6.71574 37.2391 6.80731 37.3511 6.90946C37.3029 6.95658 37.2545 7.00242 37.2058 7.04695C37.3533 7.18204 37.4592 7.35755 37.5109 7.5524C37.5765 7.5451 37.6424 7.53873 37.7086 7.53331C37.718 7.68212 37.7198 7.83128 37.718 7.98044L37.5537 7.99776C37.5403 8.17674 37.4974 8.35215 37.4268 8.51664C37.472 8.55199 37.5172 8.58521 37.562 8.62021C37.4546 8.73049 37.3535 8.84819 37.2437 8.95458L37.137 8.84571C36.9985 8.98232 36.829 9.08221 36.6436 9.13661L36.6784 9.2734C36.5279 9.32395 36.3681 9.31829 36.2131 9.29673C36.2131 9.26951 36.2148 9.21544 36.2155 9.18822C36.0252 9.15589 35.8428 9.08691 35.6779 8.98498C35.6508 9.02704 35.6237 9.06946 35.5963 9.11152C35.4812 9.03226 35.3739 8.94182 35.2759 8.84147C35.3079 8.79729 35.3391 8.7524 35.3711 8.70822C35.2491 8.57814 35.1831 8.41131 35.1244 8.24518C35.0692 8.20984 34.9903 8.23599 34.927 8.22645C34.9256 8.08507 34.9256 7.94368 34.927 7.8023C34.9854 7.80018 35.0438 7.79912 35.1008 7.7977C35.1125 7.63272 35.16 7.47242 35.2398 7.32831C35.1918 7.27776 35.1453 7.2258 35.0976 7.17561C35.1834 7.05864 35.2796 6.95001 35.385 6.85113C35.4417 6.87835 35.4993 6.90415 35.5567 6.93102C35.6748 6.8165 35.8253 6.74898 35.9737 6.68183C35.9618 6.61538 35.9535 6.54857 35.9462 6.48212M36.3191 7.04766C36.3086 7.10457 36.2975 7.16147 36.2864 7.21838C36.2273 7.1848 36.1676 7.15299 36.1074 7.12189C36.1197 7.16557 36.1403 7.20634 36.1682 7.24184C36.196 7.27733 36.2305 7.30685 36.2697 7.32866C36.2697 7.42303 36.2669 7.51741 36.261 7.61143C36.1446 7.5676 36.0525 7.47959 35.9483 7.41455C35.9504 7.59658 36.0988 7.71252 36.2409 7.79275C36.2409 7.87299 36.2409 7.95358 36.2409 8.03381C36.0901 7.99175 35.9629 7.89773 35.8392 7.80442C35.85 7.91046 35.859 8.02639 35.9267 8.11405C35.9962 8.21337 36.1057 8.27099 36.211 8.32365C36.2134 8.40141 36.2141 8.47988 36.2131 8.558C36.0011 8.50356 35.8468 8.33814 35.6894 8.1957C35.7242 8.40778 35.8239 8.61703 35.9987 8.74462C36.1377 8.84253 36.325 8.89308 36.4883 8.82557C36.7562 8.74003 36.9153 8.46433 36.9577 8.19535C36.8007 8.33673 36.645 8.50038 36.4365 8.5587C36.4337 8.48024 36.4337 8.40177 36.4365 8.32365C36.5408 8.27028 36.6533 8.21373 36.7232 8.11334C36.7896 8.02462 36.8003 7.9094 36.8125 7.80265C36.687 7.89632 36.5585 7.9914 36.4063 8.03417C36.4063 7.95323 36.4104 7.87228 36.4125 7.79169C36.5533 7.7104 36.6999 7.59552 36.7037 7.4149C36.5977 7.47817 36.5074 7.5676 36.391 7.61108C36.3847 7.5167 36.382 7.42197 36.3844 7.32831C36.4237 7.30641 36.4583 7.27666 36.4861 7.24082C36.5139 7.20498 36.5342 7.16381 36.546 7.11976C36.4855 7.15228 36.425 7.18445 36.3653 7.21873C36.3548 7.16218 36.3451 7.10563 36.3361 7.04907H36.3184M40.9851 14.7393C40.9851 14.6891 41.0389 14.6655 41.0654 14.6298L41.1574 14.7252C41.1286 14.7581 41.0994 14.7902 41.0713 14.8238C41.0417 14.7962 41.0115 14.7694 40.9851 14.7393ZM39.5051 14.6626C39.5472 14.6898 39.5892 14.7185 39.6309 14.7471L39.7032 14.6457C39.7338 14.6867 39.7981 14.7139 39.8019 14.7704C39.771 14.8056 39.7383 14.8391 39.7039 14.8708L39.632 14.7665L39.5145 14.857C39.4798 14.8238 39.4485 14.7902 39.4158 14.757L39.5065 14.6612M40.6922 14.8408C40.729 14.8054 40.7662 14.7701 40.8044 14.7347C40.8161 14.9266 40.8173 15.1189 40.8079 15.3109C40.9121 15.3642 41.031 15.3596 41.1442 15.3423C41.1071 15.2927 41.067 15.2454 41.024 15.2009C41.0556 15.1384 41.09 15.0776 41.1248 15.0171C41.2092 15.138 41.2579 15.3042 41.187 15.4434C41.1678 15.4905 41.1345 15.5303 41.0918 15.5572C41.0492 15.584 40.9993 15.5965 40.9493 15.5929C40.8517 15.6127 40.8086 15.5085 40.7606 15.4445C40.6894 15.6265 40.4809 15.5912 40.3266 15.5922C40.2192 15.5894 40.0608 15.6131 40.0208 15.4784C40.0062 15.3724 39.9763 15.231 40.0663 15.1532C40.0872 15.2179 40.0705 15.3222 40.1542 15.3444C40.328 15.366 40.5038 15.354 40.6783 15.3462C40.6998 15.1794 40.7252 15.0094 40.6922 14.8425M40.2627 14.9867C40.2693 14.8807 40.3798 14.8351 40.4628 14.7994C40.4642 14.827 40.4592 14.8545 40.4481 14.8797C40.4369 14.9049 40.4201 14.9271 40.3989 14.9443C40.4246 14.9797 40.493 15.0016 40.4757 15.0574C40.4788 15.1504 40.3839 15.1914 40.3096 15.2066C40.3266 15.1614 40.3443 15.1168 40.3631 15.0723C40.327 15.0471 40.2934 15.0184 40.2627 14.9867ZM33.371 14.8492C33.4937 14.8528 33.6212 14.8309 33.7407 14.8655C33.8891 14.9387 33.8856 15.1483 33.7942 15.2674C33.8603 15.3851 33.8363 15.5229 33.8589 15.6513C33.8109 15.6513 33.7633 15.6513 33.7157 15.6513C33.6976 15.5523 33.7122 15.447 33.675 15.3526C33.6194 15.3437 33.5632 15.3434 33.5072 15.3402C33.5072 15.4427 33.5072 15.5456 33.5051 15.6484C33.4606 15.6484 33.4162 15.6484 33.372 15.6513C33.3693 15.3837 33.372 15.1165 33.372 14.8489M33.5069 15.0041C33.5069 15.0684 33.5069 15.1334 33.5069 15.1981C33.5882 15.1921 33.7345 15.2176 33.7244 15.09C33.7136 14.9744 33.5833 15.015 33.5055 15.0041M34.1622 14.8669C34.2068 14.8607 34.2517 14.8568 34.2967 14.8553C34.3662 15.1147 34.4239 15.3773 34.4899 15.6378H34.3509C34.3384 15.5848 34.3266 15.5318 34.3141 15.4802H34.1403C34.1285 15.5321 34.1163 15.5844 34.1056 15.6368L33.9721 15.6428C34.0319 15.3837 34.0906 15.1239 34.1615 14.868M34.2251 15.0889C34.2077 15.173 34.1904 15.2575 34.1719 15.3413L34.2842 15.337C34.2651 15.254 34.2463 15.1705 34.2251 15.0889ZM34.4934 14.862C34.6466 14.8595 34.7995 14.8577 34.9527 14.8644C34.9496 14.9143 34.9465 14.9641 34.943 15.0143C34.8905 15.0143 34.8388 15.0143 34.7856 15.0125C34.7856 15.2246 34.7922 15.4349 34.7807 15.646L34.6553 15.6375C34.6553 15.4296 34.6522 15.2222 34.6577 15.0143L34.4941 15.0111C34.4941 14.9613 34.4934 14.9115 34.4934 14.862ZM36.8528 14.8517C36.8948 14.8538 36.9369 14.8549 36.9793 14.8556C36.9793 14.9486 36.9793 15.0415 36.9828 15.1345C37.0467 15.0419 37.1058 14.9457 37.1666 14.8517L37.3181 14.8553C37.2524 14.9708 37.1749 15.0794 37.1065 15.1935C37.1843 15.3452 37.2576 15.4993 37.3327 15.653H37.1725C37.1148 15.542 37.0804 15.4148 36.9914 15.3239C36.9807 15.4325 36.9768 15.5415 36.9796 15.6505C36.9369 15.6505 36.8945 15.6523 36.8521 15.6544C36.85 15.3865 36.8493 15.1189 36.8521 14.851M38.6267 14.9571C38.6694 14.9164 38.7125 14.8768 38.757 14.8383C38.7726 15.0019 38.757 15.1674 38.7782 15.3303C38.9106 15.3826 39.0746 15.3596 39.2126 15.3243C39.1337 15.2511 39.0343 15.2628 38.9565 15.3335C38.9711 15.2416 38.9676 15.1129 39.0718 15.0744C39.1985 15.0982 39.3236 15.1301 39.4464 15.1698C39.4336 15.2236 39.4207 15.2759 39.4082 15.3307C39.394 15.3388 39.3651 15.3543 39.3505 15.3621C39.4468 15.3561 39.5434 15.354 39.6393 15.3427C39.6017 15.2932 39.5618 15.2462 39.5208 15.2013C39.5503 15.1419 39.5809 15.0836 39.6122 15.0246C39.7394 15.1543 39.7567 15.383 39.633 15.5212C39.5093 15.6594 39.2449 15.5989 39.2338 15.4006C39.1591 15.4791 39.0896 15.5947 38.9679 15.5908C38.8668 15.5908 38.7247 15.6152 38.6722 15.5007C38.626 15.3239 38.6375 15.138 38.6267 14.9571ZM41.2968 14.9542C41.3395 14.9139 41.3823 14.8743 41.4271 14.8365C41.442 14.9938 41.4208 15.1529 41.4445 15.3091C41.4542 15.3741 41.5292 15.3483 41.5741 15.3561C41.637 15.3555 41.6999 15.3514 41.7624 15.3437C41.7252 15.294 41.6848 15.2468 41.6415 15.2024C41.6741 15.1401 41.7089 15.0791 41.7457 15.0193C41.8684 15.1804 41.8872 15.4572 41.694 15.57C41.5796 15.6081 41.3875 15.6276 41.336 15.4848C41.2933 15.3123 41.3138 15.131 41.2968 14.9542ZM31.1853 14.8899C31.334 14.8899 31.4828 14.8899 31.6315 14.8899L31.6409 15.044L31.4741 15.0497C31.4755 15.2556 31.4755 15.4619 31.4741 15.6686H31.3406C31.3375 15.4614 31.3406 15.2543 31.3386 15.0472L31.1888 15.0511C31.1888 14.9977 31.1867 14.945 31.1853 14.891M31.7566 14.8931C31.8997 14.8892 32.0429 14.8895 32.1861 14.8913L32.1923 15.0447C32.0916 15.0497 31.9904 15.05 31.8897 15.0486C31.8897 15.0953 31.8897 15.1419 31.8897 15.19C31.9807 15.19 32.0717 15.19 32.1628 15.19C32.1628 15.2253 32.1628 15.3003 32.1628 15.3367C32.0735 15.3367 31.9835 15.3346 31.8942 15.3423C31.89 15.3985 31.89 15.4554 31.8893 15.5123C31.9936 15.5123 32.0978 15.5123 32.2021 15.5123C32.2021 15.5632 32.2021 15.6145 32.2021 15.6661C32.053 15.6661 31.9043 15.67 31.7555 15.6608C31.7583 15.4042 31.7555 15.1479 31.7573 14.8917M32.5012 15.5106C32.5377 15.2985 32.5012 15.0818 32.5214 14.8683L32.6555 14.8751C32.6517 15.0903 32.6715 15.3077 32.6454 15.5222C32.626 15.6636 32.4328 15.7177 32.3327 15.6244C32.2632 15.5505 32.2705 15.4409 32.2597 15.3473L32.3925 15.3441C32.3953 15.4074 32.397 15.5738 32.4998 15.5106M32.9516 14.8888H33.085C33.1528 15.1469 33.2153 15.4067 33.2744 15.6665C33.2296 15.6665 33.1847 15.6647 33.1403 15.6647C33.1281 15.6148 33.1156 15.565 33.1031 15.5155H32.9293C32.9172 15.5654 32.905 15.6152 32.8925 15.665H32.7605C32.8251 15.4052 32.8845 15.144 32.9526 14.8874M33.0152 15.1264C32.9971 15.2034 32.9804 15.2815 32.9637 15.3593L33.068 15.3639C33.0555 15.2837 33.0382 15.2044 33.0162 15.1264M35.1883 14.8789C35.3002 14.8789 35.4149 14.8634 35.5247 14.8924C35.6533 14.9595 35.6321 15.1271 35.5893 15.2423C35.6564 15.3706 35.671 15.5742 35.5223 15.6495C35.4118 15.6679 35.2988 15.6566 35.1876 15.6566C35.1876 15.3971 35.1883 15.138 35.1883 14.8789ZM35.3166 15.172C35.3783 15.18 35.4409 15.1791 35.5025 15.1691C35.4875 15.1267 35.5118 15.0567 35.4625 15.0352C35.4147 15.0274 35.3661 15.026 35.318 15.0309C35.3136 15.078 35.3136 15.1253 35.318 15.1723M35.318 15.3303C35.318 15.3918 35.318 15.4537 35.318 15.5155C35.377 15.5102 35.4392 15.5191 35.4952 15.4947C35.5237 15.4452 35.5115 15.3886 35.5028 15.3363C35.441 15.3338 35.3798 15.3321 35.318 15.3303ZM35.8892 14.8807L36.0348 14.8871C36.088 15.1454 36.1585 15.3992 36.2152 15.6566H36.0782C36.0675 15.6064 36.0564 15.5558 36.0456 15.5063H35.8698C35.8572 15.5562 35.8451 15.6057 35.835 15.6558C35.7905 15.6558 35.7464 15.6558 35.7023 15.6558C35.7638 15.3971 35.8277 15.1391 35.891 14.8807M35.9636 15.1158C35.9413 15.1928 35.9222 15.2706 35.9024 15.3487C35.9396 15.3508 35.9768 15.3547 36.0136 15.36C35.9962 15.2787 35.981 15.1971 35.9636 15.1158ZM36.2708 14.8867C36.3159 14.8842 36.3611 14.8811 36.4063 14.8775C36.4758 15.032 36.5345 15.19 36.5977 15.3469C36.6165 15.1918 36.6071 15.0352 36.6106 14.8796C36.6513 14.8825 36.6923 14.8849 36.7333 14.8871C36.7305 15.1416 36.7333 15.3964 36.7333 15.6513C36.6926 15.6513 36.6519 15.6513 36.6116 15.6491C36.5258 15.4947 36.4779 15.3222 36.4011 15.1631C36.3952 15.3264 36.4011 15.4901 36.3958 15.6534C36.3548 15.6505 36.3138 15.6488 36.2728 15.6481C36.2728 15.3943 36.2728 15.1405 36.2728 14.8867M37.6166 14.9889C37.6513 14.9553 37.6861 14.9221 37.7191 14.8892C37.7507 14.9182 37.7823 14.9468 37.8143 14.9765C37.8469 14.9479 37.88 14.9203 37.9133 14.8927C37.9383 14.9302 37.995 14.9571 37.9936 15.0072C37.9647 15.0398 37.9331 15.0695 37.9018 15.0995C37.8724 15.0663 37.8429 15.0334 37.8132 15.0009C37.7813 15.0323 37.7497 15.0645 37.718 15.0963C37.6833 15.061 37.6485 15.0256 37.6166 14.9903M38.0846 15.0991C38.2497 15.1963 38.193 15.4781 38.0249 15.5466C37.8685 15.6117 37.6868 15.6014 37.5238 15.571C37.3733 15.4901 37.4032 15.2805 37.4484 15.143C37.5248 15.1868 37.4786 15.3169 37.5776 15.3349C37.7458 15.3727 37.9192 15.3416 38.0895 15.337C38.0607 15.3038 38.0329 15.2702 38.0054 15.2363C38.0308 15.1896 38.0554 15.143 38.0846 15.0991ZM38.4321 15.2052C38.4839 15.2052 38.4891 15.2677 38.5082 15.3049C38.56 15.4629 38.5857 15.6562 38.4891 15.8018C38.4092 15.9015 38.2691 15.851 38.1708 15.8142C38.275 15.7209 38.3862 15.6375 38.4745 15.5268C38.4318 15.4763 38.3908 15.4247 38.347 15.3756C38.3744 15.3179 38.3994 15.2596 38.4321 15.2052ZM39.0722 15.8117L39.1792 15.7082C39.214 15.7435 39.2508 15.7813 39.2866 15.8184L39.1789 15.9216L39.0722 15.8117ZM41.5841 15.7325L41.6884 15.8255C41.6536 15.8587 41.6189 15.892 41.5841 15.9259C41.5574 15.8951 41.5313 15.864 41.507 15.8322C41.5311 15.7975 41.5572 15.7642 41.5852 15.7325M33.9919 18.2068C34.2699 18.2068 34.5517 18.2068 34.8318 18.2068C34.8297 18.7836 34.8318 19.3605 34.8318 19.9387C34.8318 20.0518 34.8409 20.183 34.9361 20.2568C34.992 20.3176 35.0751 20.3201 35.1522 20.3187C35.6953 20.3169 36.2384 20.3187 36.7819 20.3187C36.8355 20.32 36.8881 20.3041 36.9322 20.2733C36.9764 20.2425 37.0099 20.1982 37.0279 20.1469C37.0519 20.0727 37.046 19.9935 37.0495 19.9172C36.4935 19.9172 35.9358 19.9172 35.3788 19.9172C35.3788 19.6297 35.3788 19.3424 35.3788 19.0554C36.1262 19.0554 36.8729 19.0459 37.6214 19.0583C37.6214 19.3866 37.6214 19.7153 37.6214 20.0437C37.6198 20.0804 37.6257 20.1171 37.6388 20.1513C37.6519 20.1856 37.6718 20.2167 37.6974 20.2426C37.723 20.2686 37.7536 20.2888 37.7873 20.302C37.821 20.3153 37.8571 20.3212 37.8932 20.3194C38.4954 20.3194 39.0975 20.3194 39.7001 20.3194C39.7487 20.3254 39.8172 20.3003 39.845 20.3572C39.8516 20.6336 39.845 20.9104 39.8471 21.1868C39.3477 21.1893 38.8484 21.1868 38.3491 21.1868C37.9905 21.1819 37.6732 20.8924 37.61 20.5364C37.5488 20.8998 37.2159 21.1925 36.8514 21.1879C36.1453 21.1879 35.4392 21.1879 34.7317 21.1879C34.3408 21.1836 33.9881 20.8316 33.9902 20.4311C33.9902 19.6907 33.9902 18.95 33.9902 18.2089M30.3541 18.4913C30.5664 18.3125 30.9226 18.3662 31.0706 18.6048C31.1309 18.6918 31.1619 18.7964 31.1588 18.9028C31.1557 19.0092 31.1188 19.1118 31.0536 19.1951C30.9764 19.297 30.8639 19.3652 30.739 19.3858C30.6141 19.4064 30.4862 19.3779 30.3812 19.306C30.277 19.2385 30.2183 19.1208 30.1703 19.0081C30.1192 19.189 29.9854 19.3513 29.7988 19.3926C29.5407 19.4669 29.255 19.2866 29.1949 19.0219C29.1146 18.7257 29.3596 18.4026 29.6588 18.3969C29.8979 18.3821 30.1158 18.5677 30.1672 18.8013C30.2019 18.6839 30.253 18.5645 30.3541 18.4913ZM39.052 18.8041C39.1024 18.5822 39.2953 18.386 39.5267 18.3895C39.7932 18.3655 40.0448 18.6069 40.0427 18.8773C40.0597 19.1601 39.8019 19.4138 39.5263 19.3926C39.2967 19.3926 39.1045 19.2042 39.0558 18.9826C39.01 19.3007 38.6389 19.5004 38.3553 19.3569C38.0832 19.2368 37.9814 18.8529 38.1576 18.6104C38.2133 18.5288 38.2915 18.4658 38.3823 18.4292C38.4732 18.3926 38.5726 18.3841 38.6681 18.4048C38.7637 18.4255 38.8511 18.4745 38.9194 18.5455C38.9877 18.6165 39.0338 18.7065 39.052 18.8041ZM40.2422 19.6107C40.5233 19.6107 40.8044 19.6107 41.0859 19.6107C41.106 20.2371 41.0859 20.8644 41.0963 21.4908C41.1032 21.558 41.1344 21.6202 41.1838 21.6653C41.2332 21.7105 41.2974 21.7353 41.3638 21.735C41.7836 21.735 42.2034 21.735 42.6231 21.735C42.6231 22.0234 42.6231 22.3118 42.6231 22.5999C42.2159 22.5999 41.8086 22.6017 41.4017 22.5999C41.0494 22.5904 40.7266 22.3055 40.672 21.9499C40.614 22.1677 40.4934 22.3741 40.296 22.49C40.1483 22.5826 39.9715 22.6098 39.8009 22.6017C38.6976 22.5992 37.5947 22.6017 36.4918 22.5999C36.4918 22.3118 36.4918 22.0234 36.4918 21.735C37.6534 21.735 38.815 21.735 39.9767 21.735C40.1192 21.7378 40.2508 21.6039 40.2376 21.4572C40.2397 20.8418 40.2345 20.2265 40.2401 19.6114M43.0248 19.6114C43.3088 19.61 43.5928 19.61 43.8769 19.6114C43.8803 20.2265 43.8769 20.8411 43.8769 21.4561C43.875 21.4924 43.8806 21.5287 43.8932 21.5628C43.9057 21.5968 43.925 21.6278 43.9499 21.6539C43.9748 21.68 44.0047 21.7006 44.0377 21.7144C44.0708 21.7283 44.1063 21.735 44.142 21.7343C44.559 21.7375 44.9759 21.7343 45.3929 21.7343V22.5996C44.8835 22.6021 44.3741 22.5996 43.864 22.6017C43.4265 22.6441 43.0047 22.2589 43.021 21.8078C43.021 21.0755 43.021 20.3431 43.021 19.6107M27.7174 19.8977C29.2536 19.9069 30.7899 19.8949 32.3261 19.903C32.3261 20.1889 32.3261 20.4748 32.3261 20.7609C31.043 20.7632 29.7597 20.7632 28.4763 20.7609C28.0413 20.7609 27.6691 20.3346 27.7171 19.897M32.7337 19.897C33.0159 19.9073 33.298 19.8995 33.5805 19.9044C33.5854 20.4576 33.5805 21.0108 33.5784 21.5657C33.5784 21.9584 33.2348 22.308 32.8487 22.3168C32.4856 22.3214 32.1225 22.3168 31.7594 22.3168C31.7594 22.0277 31.7569 21.7386 31.7618 21.4498C31.9988 21.448 32.2361 21.4544 32.4734 21.448C32.5082 21.4477 32.5426 21.4402 32.5745 21.4261C32.6064 21.4121 32.6353 21.3916 32.6593 21.366C32.6833 21.3404 32.7021 21.3102 32.7144 21.2771C32.7268 21.244 32.7325 21.2087 32.7313 21.1734C32.7334 20.7492 32.7288 20.3222 32.7337 19.897ZM41.9011 20.0229C42.1665 19.8984 42.5029 20.0773 42.5724 20.3611C42.6659 20.6623 42.4049 21.0005 42.0977 20.9942C41.9825 20.9955 41.8703 20.956 41.7805 20.8825C41.6908 20.8089 41.6289 20.7059 41.6057 20.591C41.5824 20.4761 41.5992 20.3566 41.6531 20.253C41.707 20.1493 41.7946 20.068 41.9011 20.0229ZM35.1623 21.6894C35.417 21.5639 35.753 21.7106 35.8357 21.9867C35.9511 22.2861 35.7071 22.6551 35.3895 22.6515C35.123 22.6766 34.8659 22.4335 34.8739 22.1613C34.8575 21.9609 34.9882 21.7725 35.1623 21.6894ZM44.0291 23.5758C43.9794 23.3037 44.1913 23.0237 44.4596 22.994C44.7212 22.9534 44.986 23.1644 45.0131 23.4313C45.0531 23.6932 44.8595 23.9431 44.6114 23.9993H44.4672C44.3594 23.9851 44.2588 23.9363 44.18 23.86C44.1012 23.7838 44.0484 23.6847 44.0291 23.5758Z"
            fill="#616161" />
    </g>
    <defs>
        <clipPath id="clip0_504_8899">
            <rect width="19.0256" height="17.3233" fill="white" transform="translate(0.344727)" />
        </clipPath>
        <clipPath id="clip1_504_8899">
            <rect width="19.7143" height="6" fill="white" transform="translate(0 18)" />
        </clipPath>
        <clipPath id="clip2_504_8899">
            <rect width="17.6842" height="24" fill="white" transform="translate(27.7139)" />
        </clipPath>
    </defs>
</svg>
    