<svg width="27" height="32" viewBox="0 0 27 32" fill="none" xmlns="http://www.w3.org/2000/svg">
    <g clip-path="url(#clip0_485_3191)">
        <path
            d="M23.2792 5.51228C23.2081 4.70917 23.0139 4.36709 22.8162 4.09375C22.6186 3.82045 22.4176 3.61588 22.1638 3.43811C21.9099 3.26034 21.6033 3.10941 21.2353 3.01383C21.044 2.96419 20.836 2.92939 20.4362 2.91177C20.4429 2.44295 20.3625 2.1822 20.2428 1.8967C20.1232 1.61115 19.9645 1.30092 19.7578 1.03684C19.551 0.772807 19.2961 0.554911 18.9641 0.361774C18.6322 0.168551 18.2231 0 17.6071 0C17.089 0 16.571 0 16.0531 0C14.0051 0 11.9572 0 9.90918 0C10.679 0.509289 10.8746 0.844703 11.0102 1.1283C11.1459 1.41191 11.2216 1.64383 11.2594 2.1448C11.2973 2.64583 11.2973 3.41595 11.2973 4.08669C11.2973 4.75747 11.2973 5.32883 11.3331 5.89405C11.3688 6.45922 11.4403 7.0182 11.596 7.49433C11.7516 7.97055 11.9914 8.36383 12.5529 8.95385C13.1145 9.54391 13.9979 10.3306 15.0832 11.3015C16.1685 12.2725 17.4557 13.4277 18.2907 14.3179C19.1257 15.2081 19.5085 15.8333 19.7765 16.4321C20.0444 17.031 20.1974 17.6033 20.2299 18.1963C20.2624 18.7893 20.1743 19.4029 19.9685 19.9418C19.7626 20.4807 19.4389 20.945 18.8862 21.5216C18.3334 22.0984 17.5514 22.7876 16.6928 23.0894C17.7408 23.0894 18.7889 23.0894 19.8369 23.0894C20.0749 23.0894 20.3129 23.0894 20.551 23.0894C20.8013 23.0659 20.9689 23.0362 21.1791 22.9983C21.3892 22.9603 21.6418 22.9141 21.9246 22.8162C22.2075 22.7183 22.5204 22.5686 22.8322 22.4025C23.1441 22.2364 23.4549 22.0538 23.7812 21.7919C24.1076 21.5301 24.4496 21.189 24.71 20.8402C24.9705 20.4915 25.1493 20.135 25.3248 19.7631C25.5003 19.3913 25.6724 19.004 25.7556 18.5536C25.8389 18.1032 25.8332 17.5897 25.8152 17.121C25.7972 16.6524 25.7669 16.2285 25.6786 15.8442C25.5903 15.4598 25.444 15.1148 25.3184 14.8309C25.1928 14.547 25.088 14.3242 24.8644 13.9901C24.6408 13.656 24.2986 13.2105 23.8747 12.7742C23.4508 12.3379 22.9452 11.9109 22.3235 11.4378C21.7017 10.9647 20.9638 10.4456 20.3323 9.99688C19.7008 9.54811 19.1757 9.16988 18.7841 8.84222C18.3924 8.51447 18.1343 8.23731 17.9517 7.96947C17.7691 7.70171 17.662 7.44321 17.607 7.20791C17.552 6.97262 17.5491 6.76039 17.5666 6.58353C17.5842 6.40671 17.6224 6.26521 17.7515 6.09701C17.8805 5.9288 18.1006 5.73394 18.9279 5.51851C18.9287 5.51851 18.9295 5.51847 18.9304 5.51847C19.7951 5.49578 21.2403 5.49249 23.2792 5.51228Z"
            fill="#616161" />
        <path
            d="M16.6928 23.0893C17.7408 23.0893 18.7889 23.0893 19.8369 23.0893C21.3133 22.2095 21.8623 21.7499 22.2966 21.2364C22.731 20.723 23.0506 20.1558 23.2558 19.5947C23.4611 19.0337 23.5518 18.4789 23.572 17.9071C23.5923 17.3354 23.5422 16.7468 23.3604 16.1973C23.1787 15.6478 22.8653 15.1374 22.1378 14.4001C21.4103 13.6628 20.2686 12.6986 19.2703 11.8291C18.2718 10.9597 17.4166 10.185 16.8578 9.6165C16.299 9.04804 16.0366 8.68583 15.9167 8.27709C15.7967 7.8684 15.8191 7.41317 15.9242 7.0491C16.0294 6.68508 16.2171 6.41221 16.4932 6.18994C16.7693 5.96772 17.1337 5.79605 17.4579 5.6894C17.782 5.58266 18.0659 5.54084 18.9305 5.51829C19.7951 5.49574 21.2403 5.49245 23.2791 5.51227C23.208 4.70917 23.0138 4.36709 22.8162 4.09375C22.6186 3.82045 22.4176 3.61588 22.1637 3.43811C21.9099 3.26034 21.6032 3.10941 21.2352 3.01383C20.8673 2.9183 20.438 2.87805 18.7002 2.90822C18.7513 2.24414 18.5469 1.72598 18.3425 1.35958C18.138 0.993126 17.9336 0.77852 17.4864 0.530239C17.1939 0.367878 16.7976 0.191059 16.0531 0C14.0051 0 11.9572 0 9.90918 0C10.679 0.509289 10.8746 0.844703 11.0102 1.1283C11.1459 1.41191 11.2216 1.64383 11.2594 2.1448C11.2974 2.64583 11.2974 3.41595 11.2974 4.08669C11.2974 4.75747 11.2973 5.32883 11.3331 5.89405C11.3688 6.45922 11.4403 7.0182 11.596 7.49433C11.7516 7.97055 11.9914 8.36383 12.5529 8.95385C13.1145 9.54391 13.9979 10.3306 15.0832 11.3015C16.1685 12.2725 17.4557 13.4277 18.2907 14.3179C19.1257 15.2081 19.5085 15.8333 19.7765 16.4321C20.0444 17.031 20.1974 17.6033 20.2299 18.1963C20.2624 18.7893 20.1743 19.4029 19.9685 19.9418C19.7626 20.4807 19.4389 20.9449 18.8862 21.5216C18.3334 22.0982 17.5514 22.7875 16.6928 23.0893Z"
            fill="#616161" />
        <path
            d="M15.9496 23.0892C15.5151 23.0892 15.1108 23.0892 14.7365 23.0892C16.1358 21.9895 16.5583 21.45 16.8183 20.8806C17.0782 20.3112 17.1756 19.7119 17.1628 19.1613C17.15 18.6106 17.0269 18.1086 16.8114 17.6408C16.5959 17.1731 16.2879 16.7396 15.9897 16.3778C15.6916 16.0161 15.4033 15.726 14.624 15.14C13.8446 14.554 12.5743 13.6721 11.1167 12.6411C9.6592 11.6101 8.01439 10.43 6.64601 9.43531C5.27763 8.44058 4.18563 7.63107 3.34223 6.98517C2.49883 6.33923 1.90402 5.85687 1.50986 5.301C1.11571 4.74514 0.922222 4.11582 0.821255 3.5858C0.720288 3.05582 0.711889 2.62527 0.827544 2.18008C0.943243 1.73498 1.183 1.27543 1.60573 0.856216C2.02855 0.43696 2.63427 0.0580882 3.52363 0C3.88387 0 4.24416 0 4.60445 0C3.60753 1.11874 3.45608 1.56587 3.37407 1.98197C3.29201 2.39815 3.27939 2.78321 3.42662 3.28415C3.57385 3.78513 3.88097 4.40206 4.41725 5.048C4.95357 5.6939 5.71923 6.36875 6.80239 7.14303C7.88559 7.91731 9.28638 8.79093 10.8996 9.90062C12.5128 11.0103 14.3384 12.3559 15.6424 13.3352C16.9465 14.3144 17.7289 14.9272 18.2569 15.4489C18.7847 15.9706 19.0582 16.4012 19.2664 16.8815C19.4746 17.3618 19.6176 17.8918 19.6029 18.4507C19.5882 19.0097 19.4157 19.5977 19.2033 20.0862C18.9909 20.5749 18.7384 20.964 18.016 21.5926C17.2935 22.2212 16.1009 23.0892 15.9496 23.0892Z"
            fill="#616161" />
        <path
            d="M11.3672 23.0891C11.6329 22.4333 11.6687 21.9705 11.6389 21.5663C11.6091 21.1622 11.5137 20.8168 11.3689 20.4898C11.2241 20.1628 11.0298 19.8543 10.6142 19.5004C10.1984 19.1466 9.56129 18.7475 8.20042 17.8698C6.83961 16.9921 4.75504 15.6357 3.55953 14.8477C2.3641 14.0596 2.05768 13.8398 1.75905 13.5433C1.46041 13.2468 1.1696 12.8736 0.887896 12.3075C0.606146 11.7414 0.333498 10.9824 0.520613 8.79102C1.47277 9.88313 2.16415 10.368 3.17219 11.0587C4.18024 11.7494 5.50504 12.6458 6.97378 13.6429C8.4426 14.6399 10.0554 15.7374 10.982 16.3976C11.9086 17.0578 12.149 17.2805 12.3612 17.5294C12.5733 17.7783 12.7573 18.0533 12.9056 18.3501C13.0537 18.6469 13.1662 18.9655 13.2275 19.3462C13.2889 19.7268 13.2991 20.1695 13.1934 20.5804C13.0878 20.9912 12.8663 21.3702 12.5486 21.8062C12.2309 22.2421 11.8169 22.7351 11.3672 23.0891Z"
            fill="#616161" />
        <path
            d="M10.8182 2.802C10.6286 2.0459 10.3804 1.78848 10.1379 1.63448C9.89535 1.48043 9.65837 1.42983 9.34649 1.39351C9.03462 1.35719 8.64785 1.33521 8.15938 1.33408C7.67099 1.33295 7.08075 1.35278 6.67728 1.44298C6.2738 1.53319 6.05692 1.69386 5.84755 1.9028C5.63818 2.11173 5.43629 2.36893 5.31725 2.72569C5.19821 3.08235 5.16202 3.5387 5.22899 3.97718C5.29597 4.41565 5.46615 4.83625 5.69117 5.2137C5.91615 5.59114 6.19592 5.92534 6.85749 6.54085C5.86998 5.91192 5.10204 5.13297 4.64381 4.57538C4.18555 4.01778 4.03695 3.6815 3.96505 3.24952C3.89307 2.81754 3.89768 2.28968 3.99658 1.86921C4.09548 1.4487 4.28862 1.13553 4.52934 0.887641C4.77011 0.639749 5.0585 0.457087 5.31224 0.320048C5.56593 0.182965 5.78506 0.091504 6.00634 0.045752C6.22767 -3.61196e-08 6.45124 0 6.85472 0C7.25819 0 7.84174 -1.59958e-07 8.26087 0.0204303C8.68 0.040904 8.93484 0.0817648 9.21953 0.173658C9.50414 0.265552 9.81857 0.408478 10.1571 0.747528C10.4957 1.08653 10.8585 1.62171 10.8182 2.802Z"
            fill="#616161" />
        <path
            d="M10.8178 2.80195C10.6282 2.04585 10.3801 1.78843 10.1375 1.63443C9.89501 1.48037 9.65803 1.42977 9.34615 1.39346C9.03428 1.35714 8.64752 1.33515 8.15904 1.33403C7.67065 1.3329 7.08041 1.35273 6.67694 1.44293C6.27346 1.53314 6.05658 1.69381 5.84721 1.90275C5.63784 2.11168 5.43595 2.36888 5.31691 2.72563C5.19787 3.0823 5.16168 3.53865 5.22865 3.97713C5.29563 4.4156 5.46581 4.8362 5.69083 5.21364C5.91581 5.59109 6.19558 5.92529 6.85715 6.5408C6.21357 5.79552 6.09365 5.49742 6.04004 5.22209C5.98643 4.94675 5.99906 4.69418 6.0579 4.43742C6.11682 4.1807 6.22197 3.91986 6.38177 3.69418C6.54167 3.46857 6.75618 3.27808 6.96234 3.14558C7.16841 3.01309 7.36616 2.9386 7.60385 2.88575C7.84154 2.83298 8.11915 2.80195 10.8178 2.80195Z"
            fill="#616161" />
        <path
            d="M0.573242 4.80225C0.573242 6.80032 0.676364 7.34163 0.839688 7.82244C1.00306 8.30325 1.22658 8.7235 1.58652 9.09315C1.94646 9.46281 2.44272 9.78186 3.19831 10.2836C3.95389 10.7854 4.96889 11.4697 6.3118 12.3625C7.65472 13.2552 9.32561 14.3564 10.4512 15.1431C11.5768 15.9297 12.1571 16.4017 12.6001 16.8296C13.0433 17.2574 13.3494 17.641 13.5465 18.042C13.7437 18.4429 13.832 18.8613 13.8624 19.2905C13.8928 19.7197 13.8651 20.1598 13.6887 20.701C13.5123 21.2421 13.187 21.8843 11.7968 23.0891C12.0428 23.0891 12.3704 23.0891 12.7795 23.0891C13.5769 22.8686 14.2515 22.3303 14.6979 21.8448C15.1443 21.3593 15.3623 20.9267 15.5105 20.4656C15.6588 20.0044 15.7371 19.5147 15.6707 19.005C15.6042 18.4952 15.3929 17.9653 15.0267 17.4656C14.6604 16.9659 14.1391 16.4963 12.2263 15.1505C10.3135 13.8046 7.00921 11.5824 5.08722 10.2873C3.16524 8.99208 2.62544 8.62395 2.07069 8.08038C1.51581 7.53681 0.946021 6.81785 0.573242 4.80225Z"
            fill="#616161" />
        <path
            d="M0.573242 4.80225C0.946021 6.81789 1.51581 7.53685 2.07065 8.08042C2.6254 8.62399 3.16515 8.99208 5.08718 10.2873C7.00921 11.5825 10.3135 13.8047 12.2263 15.1505C14.1391 16.4964 14.6603 16.9659 15.0266 17.4656C15.3929 17.9653 15.6041 18.4953 15.6706 19.005C15.737 19.5147 15.6587 20.0044 15.5105 20.4656C15.3622 20.9267 15.1442 21.3594 14.6979 21.8448C14.2515 22.3303 13.5768 22.8686 12.7795 23.0892C12.9545 23.0892 13.1444 23.0892 13.3493 23.0892C14.467 22.8497 14.9349 22.5237 15.2516 22.2751C15.5683 22.0266 15.7339 21.8555 15.9036 21.6069C16.0734 21.3583 16.2472 21.0324 16.3645 20.7281C16.4818 20.4238 16.5425 20.1413 16.5381 19.7215C16.5337 19.3018 16.4641 18.7448 16.3299 18.2771C16.1956 17.8094 15.9966 17.4309 15.7183 17.0403C15.44 16.6497 15.0822 16.247 14.6519 15.8598C14.2216 15.4725 13.7186 15.1007 12.811 14.4471C11.9034 13.7936 10.5911 12.8584 8.75147 11.5344C6.91189 10.2103 4.54492 8.49734 3.14936 7.46478C1.75389 6.43218 1.32966 6.08001 0.573242 4.80225Z"
            fill="#616161" />
        <path
            d="M0.478516 18.625C1.03735 19.7417 1.26207 20.0817 1.52869 20.398C1.79527 20.7143 2.10376 21.0069 2.45921 21.216C2.81466 21.425 3.21708 21.5504 3.74351 21.6066C4.27003 21.6627 4.92051 21.6495 5.71083 21.6396C6.50107 21.6297 7.43106 21.6231 8.13414 21.6473C8.83717 21.6715 9.31338 21.7265 9.75604 21.924C10.1987 22.1215 10.6078 22.4615 11.0545 23.0975C11.0412 22.2894 10.7824 21.7055 10.4365 21.2418C10.0905 20.778 9.65722 20.4344 9.27442 20.2253C8.89166 20.0162 8.55934 19.9417 7.58968 19.9065C6.62011 19.8713 5.01316 19.8755 4.02886 19.863C3.04456 19.8506 2.68282 19.8216 2.26844 19.7047C1.85402 19.5877 1.38709 19.3827 0.478516 18.625Z"
            fill="#616161" />
        <path
            d="M0.478991 18.625C1.03783 19.7417 1.26254 20.0817 1.52916 20.398C1.79574 20.7143 2.10423 21.0069 2.45968 21.216C2.81514 21.425 3.21756 21.5504 3.74398 21.6066C4.2705 21.6627 4.92098 21.6495 5.71131 21.6396C6.50155 21.6297 7.43154 21.6231 8.13461 21.6473C8.83765 21.6715 9.31386 21.7265 9.75651 21.924C10.1991 22.1215 10.6082 22.4615 11.055 23.0975C4.4088 23.0975 4.12041 23.0975 3.9125 23.0975C3.70458 23.0975 3.57718 23.0975 3.34904 23.0408C3.12081 22.9841 2.79187 22.8708 2.54953 22.7668C2.30718 22.663 2.15146 22.5685 1.98844 22.4518C1.82551 22.335 1.65529 22.1959 1.48866 22.0293C1.32209 21.8627 1.15907 21.6684 1.00876 21.385C0.858498 21.1017 0.720898 20.7291 0.612719 20.2568C0.504452 19.7845 0.425736 19.2123 0.478991 18.625Z"
            fill="#616161" />
    </g>
    <path
        d="M21.4074 28.3371C21.4252 29.1198 20.3536 29.3201 20.0991 28.5816C20.2044 28.0376 19.9303 27.491 19.4366 27.2606C19.3329 27.2122 19.2309 27.1895 19.117 27.1895C18.6452 27.1895 18.1736 27.1895 17.7019 27.1895C17.166 27.1986 16.7412 27.6544 16.7585 28.2017C16.7585 28.5148 16.7585 28.8278 16.7585 29.1409C16.7407 29.5151 16.5887 29.6701 16.2225 29.688C16.172 29.688 16.1215 29.688 16.071 29.688C15.8168 29.6684 15.6086 29.8915 15.6398 30.1501C15.8757 30.1501 16.1116 30.1501 16.3474 30.1501C16.8434 30.1331 17.2378 29.7195 17.2415 29.2125C17.2415 28.8928 17.2415 28.5731 17.2415 28.2535C17.2452 27.9281 17.5201 27.6754 17.8372 27.706C18.2063 27.706 18.5754 27.706 18.9445 27.706C19.5288 27.7008 19.8248 28.4226 19.4114 28.8445C18.9979 29.2664 18.2918 28.9632 18.2976 28.3662C18.2976 28.2995 18.2976 28.2328 18.2976 28.166C18.2847 27.9168 18.0409 27.7502 17.8105 27.8333C17.8105 28.059 17.8105 28.2848 17.8105 28.5106C17.8105 28.6197 17.8303 28.7185 17.8721 28.8189C18.2167 29.6443 19.2948 29.8031 19.8536 29.1109C20.2788 29.7426 21.1935 29.7374 21.6118 29.1009C21.7547 29.4168 21.9385 29.5375 22.2792 29.5391C23.3785 29.5391 24.4779 29.5391 25.5773 29.5391C25.5773 29.1942 25.4391 29.0501 25.1016 29.0432C25.0965 29.0432 25.0914 29.0431 25.0863 29.0431C24.2155 29.0431 23.3447 29.0431 22.474 29.0431C22.1428 29.0086 21.8935 28.719 21.9024 28.379C21.9024 28.0501 21.9024 27.721 21.9024 27.3921C21.9024 27.3097 21.9024 27.2274 21.9024 27.145C21.5703 27.1122 21.422 27.244 21.4076 27.5845C21.4071 27.5959 21.4069 27.6072 21.4069 27.6186C21.407 27.8687 21.4072 28.1189 21.4074 28.369"
        fill="#616161" />
    <path
        d="M11.2263 28.3725C11.2021 29.2475 12.5356 29.2475 12.5114 28.3725C12.5114 28.1356 12.5114 27.8987 12.5114 27.6619C12.5076 27.3152 12.6614 27.1778 12.9971 27.2281C12.9971 27.6054 12.9971 27.9828 12.9971 28.3601C13.0491 29.4809 11.6384 29.9791 11.0018 29.0649C10.7792 29.3704 10.5383 29.5044 10.1664 29.5295C9.50757 29.5295 8.84877 29.5295 8.19 29.5295C7.71645 29.5033 7.34927 29.0969 7.36163 28.6124C7.36173 27.8878 7.36182 27.1631 7.36192 26.4384C7.3569 26.0841 7.49967 25.9361 7.84648 25.936C7.84648 26.7374 7.84648 27.5388 7.84648 28.3401C7.84648 28.3523 7.84616 28.3644 7.84563 28.3766C7.83024 28.7154 8.09727 28.9975 8.42923 28.9931C9.02251 28.9931 9.61579 28.9931 10.2091 28.9931C10.9961 28.9364 11.0128 27.7615 10.2277 27.6815C9.65132 27.6815 9.07497 27.6815 8.49866 27.6815C8.49487 27.3943 8.60069 27.2642 8.87765 27.2154C9.30723 27.2154 9.73677 27.2154 10.1664 27.2154C10.7717 27.2564 11.2385 27.7765 11.2261 28.3962"
        fill="#616161" />
    <path
        d="M15.16 26.4973C15.3184 26.4973 15.4768 26.4973 15.6352 26.4973C15.6688 26.4973 15.7024 26.4973 15.7361 26.4973C16.0333 26.513 16.1594 26.3875 16.152 26.0835C15.7701 26.0835 15.3882 26.0835 15.0062 26.0835C14.9337 26.0835 14.8646 26.0934 14.7949 26.1138C13.9891 26.349 13.7314 27.3851 14.3295 27.9848C12.8944 28.4875 12.9222 30.5711 14.3703 31.0336C14.4458 31.0577 14.5206 31.0693 14.5998 31.0693C15.1292 31.0693 15.6588 31.0693 16.1882 31.0693C16.1936 31.0693 16.1989 31.0693 16.2042 31.0692C16.4563 31.0639 16.6347 30.8157 16.5643 30.5683C15.9497 30.5683 15.335 30.5683 14.7204 30.5683C14.5247 30.5683 14.3763 30.5132 14.2263 30.3847C13.4194 29.6937 13.8761 28.3501 14.9284 28.3187C14.9717 28.3187 15.015 28.3187 15.0582 28.3187C15.2971 28.3187 15.536 28.3187 15.7749 28.3187C16.0852 28.3163 16.208 28.1764 16.1768 27.861C15.8426 27.861 15.5084 27.861 15.1742 27.861C14.2843 27.8653 14.2923 26.4822 15.1821 26.4973"
        fill="#616161" />
    <path
        d="M9.40419 30.5909C9.6456 30.5423 9.72587 30.42 9.67829 30.1733C9.63068 29.9266 9.51097 29.8446 9.26956 29.8932C9.02815 29.9419 8.94788 30.0642 8.99552 30.3109C9.0431 30.5575 9.16281 30.6395 9.40419 30.5909Z"
        fill="#616161" />
    <path
        d="M15.3554 25.7335C15.5968 25.6848 15.677 25.5625 15.6295 25.3159C15.5819 25.0692 15.4621 24.9872 15.2207 25.0358C14.9793 25.0845 14.8991 25.2068 14.9467 25.4534C14.9942 25.7001 15.1139 25.7821 15.3554 25.7335Z"
        fill="#616161" />
    <path
        d="M12.9985 26.3491C13.0059 26.6893 12.8699 26.8325 12.5369 26.8355C12.0064 26.8355 11.4759 26.8355 10.9453 26.8355C10.9647 26.4941 11.1059 26.3554 11.4406 26.3491C11.9599 26.3491 12.4792 26.3491 12.9985 26.3491Z"
        fill="#616161" />
    <path
        d="M21.7387 30.104C21.7461 30.4442 21.6101 30.5875 21.2771 30.5904C20.7466 30.5904 20.2161 30.5904 19.6855 30.5904C19.7049 30.2489 19.8461 30.1103 20.1808 30.104C20.7001 30.104 21.2194 30.104 21.7387 30.104Z"
        fill="#616161" />
    <path
        d="M4.93594 27.2173C4.94332 27.5575 4.80737 27.7007 4.47434 27.7037C3.94382 27.7037 3.41333 27.7037 2.88281 27.7037C2.9022 27.3622 3.04338 27.2236 3.37805 27.2173C3.89735 27.2173 4.41665 27.2173 4.93594 27.2173Z"
        fill="#616161" />
    <path
        d="M1.65297 29.5302C1.66981 29.5322 1.68661 29.5333 1.70355 29.5337C1.71178 29.5338 1.72007 29.5338 1.7283 29.5338C2.73576 29.5338 3.74329 29.5338 4.75076 29.5338C4.76577 29.5338 4.78071 29.5342 4.79566 29.5351C5.27577 29.5638 5.69734 29.2119 5.76544 28.7255C5.77062 28.6884 5.77317 28.6515 5.77317 28.6142C5.77317 28.1331 5.77317 27.652 5.77317 27.1709C5.4375 27.171 5.29696 27.3112 5.28873 27.6541C5.28855 27.6605 5.28851 27.6669 5.28851 27.6733C5.28864 27.9478 5.2888 28.2222 5.28895 28.4967C5.28895 28.5078 5.28867 28.5189 5.28823 28.5301C5.2725 28.909 5.1127 29.0596 4.74177 29.0451C4.73197 29.0447 4.72213 29.0445 4.71232 29.0445C3.73825 29.0447 2.76414 29.0449 1.79007 29.0451C1.5312 29.0451 1.3784 28.9576 1.24326 28.732C1.0567 28.4203 1.07316 28.197 1.30345 27.9175C1.44023 27.7515 1.58146 27.6844 1.79379 27.6844C1.89235 27.6844 1.99089 27.6844 2.08942 27.6844C2.34542 27.6872 2.53955 27.4494 2.49093 27.1926C2.23919 27.1926 1.98748 27.1926 1.73577 27.1926C1.71692 27.1926 1.69819 27.1935 1.67943 27.1952C0.298827 27.3195 0.275494 29.3731 1.65297 29.5302Z"
        fill="#616161" />
    <path
        d="M5.94875 30.1531C5.91889 30.1574 5.8891 30.1596 5.85893 30.1596C5.58429 30.1596 5.30961 30.1596 5.03497 30.1596C5.00001 29.8317 5.12521 29.6845 5.4478 29.6741C5.56594 29.6741 5.6841 29.6741 5.80221 29.6741C6.16557 29.6252 6.30328 29.4572 6.2866 29.0831C6.28607 29.0712 6.28578 29.0592 6.28578 29.0473C6.28575 28.5771 6.28569 28.1069 6.28566 27.6367C6.28566 27.6303 6.28575 27.6238 6.28588 27.6174C6.29411 27.2746 6.43463 27.1344 6.77031 27.1343C6.77031 27.8032 6.77031 28.4721 6.77031 29.141C6.77031 29.1477 6.77034 29.1543 6.77053 29.161C6.78288 29.657 6.42949 30.0836 5.94875 30.1531Z"
        fill="#616161" />
    <defs>
        <clipPath id="clip0_485_3191">
            <rect width="25.3674" height="23.0977" fill="white" transform="translate(0.458984)" />
        </clipPath>
    </defs>
</svg>
    