<svg width="20" height="24" viewBox="0 0 20 24" fill="none" xmlns="http://www.w3.org/2000/svg">
    <g clip-path="url(#clip0_485_4846)">
        <path
            d="M17.6027 4.13421C17.5494 3.53188 17.4037 3.27532 17.2555 3.07031C17.1073 2.86533 16.9565 2.71191 16.7662 2.57858C16.5757 2.44526 16.3458 2.33206 16.0698 2.26038C15.9263 2.22314 15.7703 2.19704 15.4705 2.18383C15.4755 1.83221 15.4152 1.63665 15.3254 1.42252C15.2357 1.20836 15.1167 0.975693 14.9616 0.777633C14.8065 0.579605 14.6154 0.416183 14.3664 0.271331C14.1174 0.126413 13.8106 0 13.3486 0C12.9601 0 12.5716 0 12.1831 0C10.6471 0 9.11118 0 7.5752 0C8.15254 0.381967 8.29924 0.633527 8.40099 0.846229C8.50273 1.05893 8.55953 1.23287 8.58789 1.6086C8.61632 1.98437 8.61632 2.56196 8.61632 3.06502C8.61632 3.56811 8.61632 3.99663 8.64314 4.42054C8.66992 4.84441 8.72355 5.26365 8.8403 5.62075C8.95702 5.97791 9.13684 6.27288 9.55801 6.71539C9.97918 7.15793 10.6417 7.74792 11.4557 8.47615C12.2697 9.20437 13.2351 10.0708 13.8613 10.7384C14.4876 11.4061 14.7747 11.875 14.9757 12.3241C15.1766 12.7732 15.2914 13.2025 15.3158 13.6472C15.3401 14.092 15.2741 14.5522 15.1197 14.9564C14.9653 15.3605 14.7225 15.7087 14.3079 16.1412C13.8933 16.5738 13.3069 17.0907 12.6629 17.317C13.4489 17.317 14.235 17.317 15.021 17.317C15.1995 17.317 15.378 17.317 15.5566 17.317C15.7443 17.2995 15.87 17.2772 16.0276 17.2487C16.1852 17.2202 16.3747 17.1856 16.5868 17.1121C16.7989 17.0387 17.0336 16.9265 17.2675 16.8019C17.5014 16.6773 17.7345 16.5403 17.9792 16.3439C18.224 16.1476 18.4805 15.8917 18.6758 15.6302C18.8712 15.3686 19.0053 15.1013 19.1369 14.8223C19.2686 14.5435 19.3976 14.253 19.46 13.9152C19.5225 13.5774 19.5182 13.1923 19.5047 12.8407C19.4912 12.4893 19.4685 12.1714 19.4022 11.8831C19.336 11.5949 19.2263 11.3361 19.1321 11.1232C19.0379 10.9103 18.9593 10.7432 18.7916 10.4926C18.6239 10.242 18.3673 9.90786 18.0493 9.58062C17.7314 9.25342 17.3522 8.9332 16.8859 8.57837C16.4196 8.22355 15.8662 7.83418 15.3925 7.49766C14.9189 7.16108 14.5251 6.87741 14.2314 6.63166C13.9376 6.38585 13.7441 6.17798 13.6071 5.9771C13.4701 5.77628 13.3898 5.58241 13.3485 5.40594C13.3073 5.22946 13.3051 5.07029 13.3183 4.93765C13.3315 4.80503 13.3601 4.69891 13.4569 4.57276C13.5537 4.4466 13.7187 4.30045 14.3392 4.13888C14.3399 4.13888 14.3405 4.13885 14.3411 4.13885C14.9897 4.12184 16.0736 4.11937 17.6027 4.13421Z"
            fill="#5B5B5B" />
        <path
            d="M12.6629 17.317C13.4489 17.317 14.235 17.317 15.021 17.317C16.1283 16.6571 16.54 16.3124 16.8658 15.9273C17.1915 15.5423 17.4313 15.1169 17.5852 14.696C17.7391 14.2753 17.8071 13.8592 17.8223 13.4304C17.8376 13.0016 17.8 12.5601 17.6636 12.148C17.5273 11.7358 17.2923 11.353 16.7467 10.8001C16.201 10.2471 15.3448 9.52398 14.596 8.87185C13.8472 8.21975 13.2057 7.63872 12.7866 7.21237C12.3675 6.78603 12.1708 6.51437 12.0808 6.20782C11.9908 5.9013 12.0076 5.55988 12.0865 5.28683C12.1653 5.01381 12.3062 4.80916 12.5132 4.64246C12.7203 4.47579 12.9936 4.34704 13.2367 4.26705C13.4798 4.18699 13.6927 4.15563 14.3412 4.13872C14.9896 4.12181 16.0735 4.11934 17.6027 4.13421C17.5493 3.53188 17.4037 3.27532 17.2555 3.07031C17.1072 2.86533 16.9565 2.71191 16.7661 2.57858C16.5757 2.44526 16.3457 2.33206 16.0697 2.26038C15.7938 2.18873 15.4718 2.15854 14.1685 2.18116C14.2068 1.68311 14.0535 1.29449 13.9002 1.01968C13.7468 0.744845 13.5935 0.58389 13.2581 0.397679C13.0387 0.275908 12.7415 0.143294 12.1831 0C10.6471 0 9.11118 0 7.5752 0C8.15254 0.381967 8.29924 0.633527 8.40099 0.846229C8.50274 1.05893 8.55953 1.23287 8.58789 1.6086C8.61632 1.98437 8.61632 2.56196 8.61632 3.06502C8.61632 3.56811 8.61632 3.99663 8.64314 4.42054C8.66992 4.84441 8.72355 5.26365 8.8403 5.62075C8.95702 5.97791 9.13684 6.27288 9.55801 6.71539C9.97919 7.15793 10.6417 7.74792 11.4557 8.47615C12.2697 9.20437 13.2351 10.0708 13.8613 10.7384C14.4876 11.4061 14.7747 11.875 14.9757 12.3241C15.1766 12.7732 15.2914 13.2025 15.3158 13.6472C15.3401 14.092 15.2741 14.5522 15.1197 14.9564C14.9653 15.3605 14.7225 15.7087 14.3079 16.1412C13.8934 16.5737 13.3069 17.0906 12.6629 17.317Z"
            fill="#5B5B5B" />
        <path
            d="M12.1055 17.3169C11.7797 17.3169 11.4764 17.3169 11.1957 17.3169C12.2451 16.4922 12.562 16.0875 12.757 15.6605C12.952 15.2334 13.025 14.7839 13.0154 14.371C13.0058 13.958 12.9135 13.5814 12.7519 13.2306C12.5902 12.8798 12.3592 12.5547 12.1356 12.2834C11.912 12.0121 11.6958 11.7945 11.1113 11.355C10.5268 10.9155 9.57402 10.254 8.48085 9.4808C7.38771 8.70758 6.1541 7.82253 5.12782 7.07648C4.10153 6.33043 3.28254 5.7233 2.64998 5.23888C2.01743 4.75442 1.57132 4.39265 1.27571 3.97575C0.980096 3.55885 0.834977 3.08687 0.759252 2.68935C0.683526 2.29187 0.677227 1.96895 0.763968 1.63506C0.850743 1.30124 1.03056 0.956572 1.34761 0.642162C1.66473 0.32772 2.11901 0.0435661 2.78603 0C3.05622 0 3.32643 0 3.59665 0C2.84896 0.839054 2.73537 1.1744 2.67386 1.48648C2.61232 1.79861 2.60285 2.08741 2.71327 2.46311C2.8237 2.83884 3.05404 3.30155 3.45625 3.786C3.85849 4.27042 4.43273 4.77656 5.2451 5.35727C6.0575 5.93798 7.10809 6.59319 8.31799 7.42546C9.52791 8.25773 10.8971 9.26696 11.8751 10.0014C12.8532 10.7358 13.44 11.1954 13.836 11.5866C14.2319 11.9779 14.4369 12.3009 14.5931 12.6611C14.7493 13.0213 14.8565 13.4188 14.8455 13.8381C14.8344 14.2573 14.7051 14.6983 14.5458 15.0647C14.3865 15.4311 14.1971 15.723 13.6553 16.1945C13.1135 16.6659 12.219 17.3169 12.1055 17.3169Z"
            fill="#5F5F5F" />
        <path
            d="M8.66845 17.3167C8.86776 16.8249 8.89457 16.4777 8.87221 16.1746C8.84988 15.8716 8.77831 15.6125 8.66973 15.3672C8.56113 15.1219 8.41545 14.8906 8.10371 14.6252C7.7919 14.3598 7.31403 14.0605 6.29338 13.4022C5.27277 12.7439 3.70935 11.7267 2.81271 11.1356C1.91614 10.5445 1.68633 10.3797 1.46235 10.1574C1.23837 9.93501 1.02027 9.65511 0.808989 9.23051C0.597676 8.80592 0.39319 8.23664 0.533526 6.59314C1.24764 7.41223 1.76618 7.77589 2.52221 8.29387C3.27825 8.8119 4.27185 9.48425 5.3734 10.232C6.47501 10.9798 7.68461 11.803 8.37956 12.2981C9.07452 12.7932 9.25479 12.9603 9.41393 13.1469C9.57307 13.3336 9.71106 13.5398 9.82224 13.7625C9.93336 13.985 10.0177 14.224 10.0637 14.5095C10.1097 14.795 10.1174 15.127 10.0381 15.4352C9.95895 15.7433 9.79279 16.0275 9.5545 16.3545C9.3162 16.6815 9.00575 17.0512 8.66845 17.3167Z"
            fill="#5F5F5F" />
        <path
            d="M8.2567 2.1015C8.11448 1.53442 7.92836 1.34136 7.74647 1.22586C7.56458 1.11032 7.38684 1.07237 7.15294 1.04513C6.91903 1.0179 6.62896 1.0014 6.2626 1.00056C5.89631 0.999716 5.45363 1.01458 5.15102 1.08224C4.84842 1.14989 4.68575 1.2704 4.52873 1.4271C4.3717 1.5838 4.22029 1.7767 4.131 2.04426C4.04172 2.31176 4.01458 2.65403 4.06481 2.98288C4.11504 3.31174 4.24268 3.62719 4.41145 3.91027C4.58018 4.19335 4.79001 4.44401 5.28618 4.90564C4.54555 4.43394 3.96959 3.84973 3.62593 3.43153C3.28223 3.01334 3.17078 2.76113 3.11686 2.43714C3.06287 2.11315 3.06633 1.71726 3.1405 1.40191C3.21468 1.08652 3.35953 0.85165 3.54007 0.665731C3.72065 0.479812 3.93694 0.342815 4.12724 0.240036C4.31752 0.137224 4.48186 0.068628 4.64782 0.034314C4.81382 -2.70897e-08 4.9815 0 5.2841 0C5.58671 0 6.02437 -1.19969e-07 6.33872 0.0153227C6.65307 0.030678 6.8442 0.0613236 7.05772 0.130244C7.27117 0.199164 7.50699 0.306359 7.76088 0.560646C8.01484 0.814901 8.28694 1.21628 8.2567 2.1015Z"
            fill="#5B5B5B" />
        <path
            d="M8.25644 2.10158C8.11422 1.53451 7.92811 1.34145 7.74622 1.22594C7.56432 1.1104 7.38659 1.07245 7.15268 1.04522C6.91878 1.01798 6.6287 1.00149 6.26234 1.00064C5.89605 0.9998 5.45337 1.01467 5.15077 1.08232C4.84816 1.14998 4.6855 1.27048 4.52847 1.42718C4.37145 1.58388 4.22003 1.77678 4.13075 2.04435C4.04147 2.31185 4.01432 2.65411 4.06456 2.98297C4.11479 3.31182 4.24243 3.62727 4.41119 3.91036C4.57993 4.19344 4.78975 4.44409 5.28593 4.90572C4.80324 4.34676 4.7133 4.12319 4.6731 3.91669C4.63289 3.71019 4.64236 3.52076 4.68649 3.32819C4.73068 3.13564 4.80954 2.94002 4.9294 2.77075C5.04932 2.60155 5.2102 2.45868 5.36482 2.35931C5.51937 2.25994 5.66769 2.20407 5.84595 2.16443C6.02422 2.12486 6.23243 2.10158 8.25644 2.10158Z"
            fill="#5B5B5B" />
        <path
            d="M0.573242 3.60168C0.573242 5.10024 0.650584 5.50623 0.773077 5.86683C0.895603 6.22744 1.06325 6.54263 1.3332 6.81987C1.60316 7.0971 1.97535 7.33639 2.54204 7.71271C3.10873 8.08903 3.86997 8.60225 4.87716 9.27184C5.88435 9.9414 7.13752 10.7673 7.98175 11.3573C8.82591 11.9473 9.2611 12.3013 9.59342 12.6222C9.92581 12.9431 10.1553 13.2307 10.3032 13.5315C10.4511 13.8322 10.5173 14.146 10.5401 14.4679C10.5629 14.7898 10.5422 15.1199 10.4098 15.5257C10.2775 15.9316 10.0336 16.4132 8.99095 17.3168C9.17545 17.3168 9.42112 17.3168 9.72795 17.3168C10.326 17.1514 10.8319 16.7477 11.1667 16.3836C11.5015 16.0195 11.665 15.695 11.7762 15.3492C11.8874 15.0033 11.9461 14.6361 11.8963 14.2537C11.8465 13.8714 11.688 13.474 11.4133 13.0992C11.1386 12.7244 10.7476 12.3722 9.31304 11.3629C7.87845 10.3535 5.40022 8.68681 3.95873 7.71544C2.51724 6.74406 2.11239 6.46796 1.69633 6.06028C1.28017 5.6526 0.852826 5.11338 0.573242 3.60168Z"
            fill="#5B5B5B" />
        <path
            d="M0.573242 3.60168C0.852826 5.11342 1.28017 5.65264 1.6963 6.06031C2.11236 6.46799 2.51717 6.74406 3.9587 7.71547C5.40022 8.68688 7.87842 10.3535 9.31301 11.3629C10.7476 12.3723 11.1386 12.7244 11.4133 13.0992C11.688 13.474 11.8464 13.8714 11.8963 14.2538C11.9461 14.6361 11.8874 15.0033 11.7762 15.3492C11.665 15.6951 11.5015 16.0195 11.1667 16.3836C10.8319 16.7478 10.3259 17.1515 9.72792 17.3169C9.85919 17.3169 10.0016 17.3169 10.1553 17.3169C10.9936 17.1373 11.3445 16.8928 11.582 16.7064C11.8195 16.52 11.9437 16.3916 12.071 16.2052C12.1983 16.0188 12.3287 15.7743 12.4167 15.546C12.5047 15.3178 12.5502 15.106 12.5469 14.7911C12.5436 14.4764 12.4914 14.0586 12.3907 13.7078C12.29 13.357 12.1408 13.0732 11.932 12.7802C11.7233 12.4873 11.455 12.1853 11.1323 11.8948C10.8095 11.6044 10.4323 11.3255 9.75154 10.8354C9.07083 10.3452 8.08663 9.64381 6.70691 8.65078C5.32723 7.65775 3.552 6.373 2.50533 5.59859C1.45873 4.82413 1.14056 4.56001 0.573242 3.60168Z"
            fill="#5B5B5B" />
        <path
            d="M0.502441 13.9689C0.92157 14.8064 1.09011 15.0614 1.29007 15.2986C1.49001 15.5359 1.72137 15.7553 1.98796 15.9121C2.25455 16.0689 2.55636 16.163 2.95119 16.2051C3.34607 16.2472 3.83394 16.2372 4.42668 16.2298C5.01936 16.2224 5.71685 16.2174 6.24416 16.2356C6.77143 16.2538 7.12859 16.295 7.46058 16.4431C7.79254 16.5912 8.09937 16.8462 8.43446 17.3233C8.42443 16.7171 8.23037 16.2793 7.9709 15.9315C7.71141 15.5836 7.38647 15.3259 7.09937 15.1691C6.8123 15.0123 6.56306 14.9564 5.83581 14.93C5.10864 14.9036 3.90343 14.9067 3.1652 14.8974C2.42698 14.8881 2.15567 14.8663 1.84489 14.7786C1.53407 14.6909 1.18387 14.5371 0.502441 13.9689Z"
            fill="#5B5B5B" />
        <path
            d="M0.502553 13.9689C0.921682 14.8064 1.09022 15.0614 1.29018 15.2986C1.49012 15.5359 1.72148 15.7553 1.98807 15.9121C2.25466 16.0689 2.55648 16.163 2.9513 16.2051C3.34619 16.2472 3.83405 16.2372 4.42679 16.2298C5.01947 16.2224 5.71696 16.2174 6.24427 16.2356C6.77155 16.2538 7.1287 16.295 7.4607 16.4431C7.79265 16.5912 8.09948 16.8462 8.43457 17.3233C3.44991 17.3233 3.23362 17.3233 3.07768 17.3233C2.92175 17.3233 2.8262 17.3233 2.65509 17.2807C2.48392 17.2382 2.23722 17.1532 2.05545 17.0752C1.87369 16.9973 1.75691 16.9265 1.63464 16.8389C1.51245 16.7514 1.38478 16.6471 1.25981 16.5221C1.13487 16.3971 1.01261 16.2515 0.899882 16.0389C0.787184 15.8264 0.683984 15.547 0.60285 15.1927C0.521649 14.8385 0.462613 14.4094 0.502553 13.9689Z"
            fill="#5B5B5B" />
    </g>
    <g clip-path="url(#clip1_485_4846)">
        <path
            d="M16.1986 21.2529C16.2119 21.84 15.4083 21.9902 15.2174 21.4363C15.2963 21.0284 15.0908 20.6183 14.7205 20.4455C14.6428 20.4093 14.5663 20.3922 14.4808 20.3922C14.127 20.3922 13.7732 20.3922 13.4195 20.3922C13.0175 20.3991 12.699 20.7409 12.7119 21.1514C12.7119 21.3862 12.7119 21.621 12.7119 21.8558C12.6986 22.1365 12.5846 22.2527 12.3099 22.2661C12.2721 22.2661 12.2342 22.2661 12.1963 22.2661C12.0056 22.2514 11.8495 22.4188 11.8729 22.6127C12.0499 22.6127 12.2268 22.6127 12.4036 22.6127C12.7756 22.5999 13.0714 22.2897 13.0742 21.9095C13.0742 21.6697 13.0742 21.43 13.0742 21.1902C13.0769 20.9462 13.2832 20.7567 13.5209 20.7796C13.7978 20.7796 14.0746 20.7796 14.3514 20.7796C14.7896 20.7757 15.0116 21.317 14.7016 21.6335C14.3915 21.9499 13.8619 21.7225 13.8663 21.2748C13.8663 21.2247 13.8663 21.1747 13.8663 21.1246C13.8566 20.9377 13.6737 20.8128 13.5009 20.8751C13.5009 21.0444 13.5009 21.2137 13.5009 21.383C13.5009 21.4649 13.5158 21.539 13.5472 21.6143C13.8056 22.2333 14.6142 22.3525 15.0333 21.8333C15.3521 22.3071 16.0382 22.3032 16.3519 21.8258C16.4591 22.0627 16.597 22.1532 16.8524 22.1544C17.677 22.1544 18.5015 22.1544 19.326 22.1544C19.326 21.8957 19.2224 21.7877 18.9692 21.7825C18.9654 21.7825 18.9616 21.7825 18.9578 21.7825C18.3047 21.7825 17.6516 21.7825 16.9986 21.7825C16.7501 21.7566 16.5632 21.5394 16.5698 21.2844C16.5698 21.0377 16.5698 20.7909 16.5698 20.5442C16.5698 20.4824 16.5698 20.4206 16.5698 20.3589C16.3208 20.3343 16.2096 20.4331 16.1987 20.6885C16.1984 20.697 16.1982 20.7055 16.1982 20.7141C16.1983 20.9017 16.1985 21.0893 16.1986 21.2769"
            fill="#747474" />
        <path
            d="M8.5628 21.2794C8.54461 21.9356 9.5448 21.9356 9.52664 21.2794C9.52664 21.1017 9.52664 20.924 9.52664 20.7464C9.52373 20.4864 9.63909 20.3834 9.89091 20.4211C9.89091 20.7041 9.89091 20.9871 9.89091 21.2701C9.92986 22.1106 8.87185 22.4843 8.39442 21.7987C8.22749 22.0278 8.04677 22.1283 7.76785 22.1471C7.27375 22.1471 6.77965 22.1471 6.28557 22.1471C5.9304 22.1275 5.65502 21.8226 5.66429 21.4593C5.66436 20.9158 5.66443 20.3723 5.6645 19.8288C5.66074 19.5631 5.76782 19.4521 6.02792 19.452C6.02792 20.053 6.02792 20.6541 6.02792 21.2551C6.02792 21.2642 6.02769 21.2733 6.02729 21.2824C6.01575 21.5365 6.21602 21.7481 6.46499 21.7448C6.90995 21.7448 7.35491 21.7448 7.79987 21.7448C8.39017 21.7023 8.4027 20.8211 7.81384 20.7611C7.38156 20.7611 6.9493 20.7611 6.51706 20.7611C6.51422 20.5457 6.59358 20.4482 6.80131 20.4116C7.12349 20.4116 7.44564 20.4116 7.76785 20.4116C8.22184 20.4423 8.57195 20.8324 8.56263 21.2971"
            fill="#747474" />
        <path
            d="M11.5133 19.8731C11.6321 19.8731 11.7509 19.8731 11.8697 19.8731C11.8949 19.8731 11.9201 19.8731 11.9454 19.8731C12.1683 19.8848 12.2629 19.7908 12.2573 19.5627C11.9709 19.5627 11.6844 19.5627 11.398 19.5627C11.3436 19.5627 11.2918 19.5702 11.2395 19.5855C10.6351 19.7619 10.4419 20.5389 10.8905 20.9888C9.81409 21.3657 9.83499 22.9285 10.921 23.2753C10.9777 23.2934 11.0338 23.3021 11.0931 23.3021C11.4902 23.3021 11.8874 23.3021 12.2845 23.3021C12.2885 23.3021 12.2925 23.3021 12.2965 23.302C12.4855 23.298 12.6194 23.1119 12.5665 22.9264C12.1055 22.9264 11.6446 22.9264 11.1836 22.9264C11.0368 22.9264 10.9255 22.885 10.813 22.7886C10.2079 22.2704 10.5504 21.2627 11.3396 21.2391C11.3721 21.2391 11.4045 21.2391 11.437 21.2391C11.6161 21.2391 11.7953 21.2391 11.9745 21.2391C12.2072 21.2374 12.2993 21.1324 12.2759 20.8959C12.0253 20.8959 11.7746 20.8959 11.5239 20.8959C10.8565 20.8991 10.8626 19.8618 11.5299 19.8731"
            fill="#747474" />
        <path
            d="M7.19572 22.943C7.37678 22.9066 7.43698 22.8148 7.4013 22.6299C7.36559 22.4449 7.27581 22.3833 7.09475 22.4198C6.91369 22.4563 6.85349 22.548 6.88922 22.733C6.9249 22.918 7.01469 22.9795 7.19572 22.943Z"
            fill="#747474" />
        <path
            d="M11.6601 19.3002C11.8411 19.2638 11.9013 19.172 11.8657 18.987C11.8299 18.802 11.7402 18.7405 11.5591 18.777C11.378 18.8135 11.3178 18.9052 11.3536 19.0902C11.3892 19.2752 11.479 19.3367 11.6601 19.3002Z"
            fill="#747474" />
        <path
            d="M9.89241 19.762C9.89795 20.0171 9.79598 20.1245 9.54621 20.1267C9.14832 20.1267 8.75045 20.1267 8.35254 20.1267C8.36708 19.8707 8.47297 19.7667 8.72399 19.762C9.11349 19.762 9.50296 19.762 9.89241 19.762Z"
            fill="#747474" />
        <path
            d="M16.4471 22.5779C16.4526 22.833 16.3507 22.9405 16.1009 22.9427C15.703 22.9427 15.3051 22.9427 14.9072 22.9427C14.9218 22.6866 15.0277 22.5826 15.2787 22.5779C15.6682 22.5779 16.0576 22.5779 16.4471 22.5779Z"
            fill="#747474" />
        <path
            d="M3.84502 20.4128C3.85056 20.668 3.7486 20.7754 3.49882 20.7776C3.10093 20.7776 2.70307 20.7776 2.30518 20.7776C2.31972 20.5215 2.4256 20.4176 2.67661 20.4128C3.06608 20.4128 3.45555 20.4128 3.84502 20.4128Z"
            fill="#747474" />
        <path
            d="M1.38255 22.1476C1.39518 22.149 1.40778 22.1499 1.42048 22.1501C1.42665 22.1502 1.43287 22.1502 1.43905 22.1502C2.19465 22.1502 2.95029 22.1502 3.70589 22.1502C3.71715 22.1502 3.72836 22.1506 3.73957 22.1512C4.09965 22.1728 4.41583 21.9088 4.46691 21.544C4.47078 21.5162 4.4727 21.4885 4.4727 21.4605C4.4727 21.0997 4.4727 20.7388 4.4727 20.3781C4.22094 20.3781 4.11554 20.4833 4.10937 20.7404C4.10923 20.7452 4.10921 20.7501 4.10921 20.7549C4.1093 20.9607 4.10942 21.1665 4.10954 21.3724C4.10954 21.3807 4.10932 21.3891 4.10899 21.3974C4.09719 21.6816 3.97735 21.7945 3.69915 21.7837C3.6918 21.7834 3.68442 21.7833 3.67706 21.7833C2.94651 21.7834 2.21593 21.7835 1.48537 21.7837C1.29122 21.7837 1.17662 21.7181 1.07527 21.5488C0.935345 21.3151 0.947689 21.1476 1.12041 20.938C1.223 20.8135 1.32892 20.7632 1.48816 20.7632C1.56209 20.7632 1.63599 20.7632 1.70989 20.7632C1.90188 20.7653 2.04748 20.5869 2.01102 20.3943C1.82221 20.3943 1.63343 20.3943 1.44465 20.3943C1.43051 20.3943 1.41646 20.395 1.40239 20.3962C0.366942 20.4895 0.349443 22.0297 1.38255 22.1476Z"
            fill="#747474" />
        <path
            d="M4.60463 22.6148C4.58224 22.6181 4.55989 22.6197 4.53726 22.6197C4.33128 22.6197 4.12528 22.6197 3.9193 22.6197C3.89307 22.3738 3.98697 22.2634 4.22892 22.2556C4.31752 22.2556 4.40614 22.2556 4.49472 22.2556C4.76724 22.2189 4.87053 22.0929 4.85802 21.8123C4.85762 21.8034 4.8574 21.7944 4.8574 21.7854C4.85738 21.4328 4.85733 21.0802 4.85731 20.7275C4.85731 20.7227 4.85738 20.7179 4.85747 20.7131C4.86365 20.4559 4.96904 20.3508 5.2208 20.3507C5.2208 20.8524 5.2208 21.3541 5.2208 21.8558C5.2208 21.8608 5.22082 21.8658 5.22096 21.8708C5.23023 22.2427 4.96518 22.5627 4.60463 22.6148Z"
            fill="#747474" />
    </g>
    <defs>
        <clipPath id="clip0_485_4846">
            <rect width="19.0256" height="17.3233" fill="white" transform="translate(0.487305)" />
        </clipPath>
        <clipPath id="clip1_485_4846">
            <rect width="19.7143" height="6" fill="white" transform="translate(0.143066 18)" />
        </clipPath>
    </defs>
</svg>
    