<svg width="40" height="48" viewBox="0 0 40 48" fill="none" xmlns="http://www.w3.org/2000/svg">
    <g opacity="0.5">
        <g clip-path="url(#clip0_485_3488)">
            <path
                d="M34.9212 8.26841C34.8145 7.06375 34.5233 6.55063 34.2268 6.14062C33.9304 5.73067 33.6289 5.42382 33.2481 5.15717C32.8673 4.89051 32.4074 4.66411 31.8554 4.52075C31.5684 4.44628 31.2564 4.39408 30.6568 4.36765C30.6668 3.66443 30.5461 3.2733 30.3667 2.84505C30.1872 2.41672 29.9492 1.95139 29.6391 1.55527C29.3289 1.15921 28.9466 0.832367 28.4487 0.542661C27.9507 0.252826 27.337 0 26.4131 0C25.636 0 24.859 0 24.082 0C21.0101 0 17.9382 0 14.8662 0C16.0209 0.763933 16.3143 1.26705 16.5178 1.69246C16.7213 2.11786 16.8349 2.46574 16.8916 3.21721C16.9485 3.96874 16.9485 5.12392 16.9485 6.13004C16.9485 7.13621 16.9485 7.99325 17.0021 8.84107C17.0557 9.68883 17.1629 10.5273 17.3964 11.2415C17.6299 11.9558 17.9895 12.5458 18.8318 13.4308C19.6742 14.3159 20.9993 15.4958 22.6272 16.9523C24.2552 18.4087 26.1859 20.1415 27.4384 21.4768C28.6909 22.8121 29.2651 23.7499 29.6671 24.6482C30.069 25.5464 30.2986 26.405 30.3473 27.2945C30.3961 28.184 30.264 29.1044 29.9552 29.9127C29.6463 30.7211 29.1609 31.4174 28.3317 32.2825C27.5025 33.1475 26.3295 34.1814 25.0417 34.6341C26.6137 34.6341 28.1857 34.6341 29.7578 34.6341C30.1147 34.6341 30.4718 34.6341 30.8289 34.6341C31.2044 34.5989 31.4558 34.5543 31.7711 34.4974C32.0863 34.4404 32.4652 34.3712 32.8894 34.2243C33.3136 34.0774 33.783 33.853 34.2508 33.6038C34.7186 33.3546 35.1847 33.0807 35.6742 32.6879C36.1639 32.2951 36.6769 31.7835 37.0675 31.2604C37.4582 30.7372 37.7264 30.2025 37.9896 29.6447C38.2529 29.0869 38.5111 28.506 38.6359 27.8304C38.7608 27.1548 38.7523 26.3845 38.7253 25.6815C38.6983 24.9785 38.6527 24.3428 38.5203 23.7663C38.3878 23.1897 38.1684 22.6722 37.98 22.2464C37.7917 21.8205 37.6344 21.4864 37.299 20.9851C36.9637 20.484 36.4504 19.8157 35.8145 19.1612C35.1786 18.5068 34.4202 17.8664 33.4876 17.1568C32.555 16.4471 31.4481 15.6684 30.5009 14.9953C29.5536 14.3222 28.766 13.7548 28.1785 13.2633C27.5911 12.7717 27.2039 12.356 26.93 11.9542C26.656 11.5526 26.4954 11.1648 26.4129 10.8119C26.3304 10.4589 26.326 10.1406 26.3524 9.8753C26.3788 9.61007 26.4361 9.39782 26.6297 9.14552C26.8233 8.89321 27.1533 8.60091 28.3943 8.27776C28.3956 8.27776 28.3967 8.2777 28.3981 8.2777C29.6952 8.24368 31.863 8.23874 34.9212 8.26841Z"
                fill="black" />
            <path
                d="M25.0417 34.6339C26.6137 34.6339 28.1857 34.6339 29.7578 34.6339C31.9724 33.3142 32.7959 32.6248 33.4474 31.8546C34.0989 31.0845 34.5784 30.2337 34.8862 29.3921C35.194 28.5506 35.3301 27.7183 35.3605 26.8607C35.3909 26.0031 35.3157 25.1202 35.043 24.296C34.7705 23.4717 34.3004 22.7061 33.2091 21.6002C32.1178 20.4943 30.4054 19.048 28.9078 17.7437C27.4101 16.4395 26.1273 15.2774 25.2891 14.4247C24.4509 13.5721 24.0574 13.0287 23.8774 12.4156C23.6975 11.8026 23.7311 11.1198 23.8888 10.5737C24.0465 10.0276 24.3281 9.61832 24.7423 9.28491C25.1564 8.95158 25.703 8.69408 26.1892 8.5341C26.6754 8.37399 27.1013 8.31126 28.3982 8.27744C29.6951 8.24361 31.8629 8.23868 34.9211 8.26841C34.8145 7.06375 34.5232 6.55063 34.2268 6.14062C33.9303 5.73067 33.6288 5.42382 33.2481 5.15717C32.8673 4.89051 32.4073 4.66411 31.8553 4.52075C31.3033 4.37746 30.6594 4.31707 28.0527 4.36233C28.1295 3.36622 27.8229 2.58897 27.5162 2.03936C27.2095 1.48969 26.9028 1.16778 26.232 0.795358C25.7932 0.551817 25.1988 0.286589 24.082 0C21.0101 0 17.9382 0 14.8662 0C16.0209 0.763933 16.3143 1.26705 16.5178 1.69246C16.7213 2.11786 16.8349 2.46574 16.8916 3.21721C16.9485 3.96874 16.9485 5.12392 16.9485 6.13004C16.9485 7.13621 16.9485 7.99325 17.0021 8.84107C17.0557 9.68883 17.1629 10.5273 17.3964 11.2415C17.6299 11.9558 17.9895 12.5458 18.8318 13.4308C19.6742 14.3159 20.9993 15.4958 22.6272 16.9523C24.2552 18.4087 26.1859 20.1415 27.4384 21.4768C28.6909 22.8121 29.2651 23.7499 29.6671 24.6482C30.069 25.5464 30.2986 26.405 30.3473 27.2945C30.3961 28.184 30.264 29.1044 29.9552 29.9127C29.6463 30.7211 29.1609 31.4174 28.3317 32.2825C27.5026 33.1474 26.3296 34.1812 25.0417 34.6339Z"
                fill="black" />
            <path
                d="M23.9268 34.6339C23.2751 34.6339 22.6686 34.6339 22.1071 34.6339C24.2061 32.9843 24.8399 32.1751 25.2298 31.3209C25.6198 30.4668 25.7659 29.5678 25.7466 28.7419C25.7274 27.916 25.5428 27.1629 25.2195 26.4613C24.8962 25.7596 24.4342 25.1094 23.9869 24.5668C23.5398 24.0241 23.1074 23.589 21.9384 22.71C20.7694 21.831 18.8639 20.5081 16.6775 18.9616C14.4912 17.4152 12.024 15.6451 9.97145 14.153C7.91888 12.6609 6.28089 11.4466 5.01579 10.4778C3.75068 9.50885 2.85846 8.7853 2.26724 7.9515C1.67601 7.11771 1.38578 6.17373 1.23432 5.3787C1.08287 4.58373 1.07027 3.9379 1.24376 3.27012C1.41731 2.60248 1.77694 1.91314 2.41104 1.28432C3.04527 0.65544 3.95385 0.0871323 5.28788 0C5.82825 0 6.36869 0 6.90912 0C5.41374 1.67811 5.18657 2.34881 5.06354 2.97295C4.94046 3.59723 4.92152 4.17482 5.14237 4.92622C5.36321 5.67769 5.8239 6.6031 6.62832 7.57201C7.4328 8.54085 8.58128 9.55313 10.206 10.7145C11.8308 11.876 13.932 13.1864 16.3518 14.8509C18.7716 16.5155 21.5101 18.5339 23.4661 20.0028C25.4222 21.4716 26.5958 22.3908 27.3877 23.1733C28.1796 23.9559 28.5897 24.6018 28.902 25.3223C29.2144 26.0427 29.4289 26.8377 29.4068 27.6761C29.3847 28.5146 29.126 29.3965 28.8074 30.1293C28.4887 30.8623 28.1101 31.446 27.0265 32.3889C25.9427 33.3319 24.1538 34.6339 23.9268 34.6339Z"
                fill="black" />
            <path
                d="M17.0527 34.6334C17.4513 33.6497 17.505 32.9554 17.4602 32.3493C17.4156 31.7431 17.2724 31.2249 17.0553 30.7344C16.8381 30.2439 16.5467 29.7812 15.9232 29.2504C15.2996 28.7197 14.3439 28.121 12.3026 26.8044C10.2614 25.4878 7.13452 23.4533 5.34125 22.2713C3.54811 21.0891 3.08848 20.7594 2.64052 20.3147C2.19257 19.87 1.75636 19.3102 1.3338 18.461C0.911172 17.6118 0.5022 16.4733 0.782873 13.1863C2.2111 14.8245 3.24817 15.5518 4.76024 16.5878C6.27232 17.6238 8.25952 18.9685 10.4626 20.4641C12.6658 21.9596 15.085 23.6059 16.4749 24.5962C17.8649 25.5865 18.2254 25.9205 18.5437 26.2938C18.862 26.6672 19.1379 27.0797 19.3603 27.5249C19.5825 27.9701 19.7513 28.448 19.8432 29.019C19.9353 29.59 19.9506 30.254 19.7921 30.8704C19.6337 31.4866 19.3014 32.0551 18.8248 32.709C18.3482 33.3629 17.7273 34.1024 17.0527 34.6334Z"
                fill="black" />
            <path
                d="M16.2292 4.203C15.9448 3.06885 15.5725 2.68273 15.2088 2.45172C14.845 2.22064 14.4895 2.14474 14.0217 2.09027C13.5539 2.03579 12.9737 2.00281 12.241 2.00112C11.5084 1.99943 10.6231 2.02917 10.0179 2.16448C9.41266 2.29979 9.08733 2.5408 8.77328 2.8542C8.45923 3.1676 8.15639 3.5534 7.97783 4.08853C7.79927 4.62353 7.74498 5.30806 7.84544 5.96577C7.9459 6.62348 8.20118 7.25438 8.53871 7.82054C8.87618 8.38671 9.29584 8.88801 10.2882 9.81128C8.80692 8.86789 7.65501 7.69946 6.96767 6.86306C6.28027 6.02667 6.05738 5.52225 5.94953 4.87428C5.84155 4.22631 5.84848 3.43452 5.99683 2.80382C6.14518 2.17305 6.43489 1.7033 6.79597 1.33146C7.15712 0.959624 7.5897 0.685631 7.97031 0.480071C8.35085 0.274447 8.67954 0.137256 9.01147 0.068628C9.34346 -5.41795e-08 9.67882 0 10.284 0C10.8892 0 11.7646 -2.39938e-07 12.3933 0.0306454C13.022 0.061356 13.4042 0.122647 13.8313 0.260488C14.2582 0.398328 14.7298 0.612718 15.2376 1.12129C15.7455 1.6298 16.2897 2.43256 16.2292 4.203Z"
                fill="black" />
            <path
                d="M16.2287 4.2031C15.9443 3.06895 15.572 2.68283 15.2083 2.45182C14.8445 2.22075 14.489 2.14485 14.0212 2.09037C13.5534 2.0359 12.9732 2.00291 12.2405 2.00123C11.5079 1.99954 10.6226 2.02927 10.0174 2.16458C9.41215 2.29989 9.08682 2.5409 8.77277 2.8543C8.45872 3.16771 8.15588 3.55351 7.97732 4.08864C7.79876 4.62364 7.74447 5.30816 7.84493 5.96588C7.94539 6.62359 8.20067 7.25449 8.5382 7.82065C8.87567 8.38682 9.29533 8.88812 10.2877 9.81138C9.32231 8.69347 9.14242 8.24631 9.06201 7.83331C8.98161 7.42031 9.00054 7.04146 9.0888 6.65631C9.17719 6.27123 9.33491 5.87998 9.57461 5.54145C9.81446 5.20305 10.1362 4.9173 10.4455 4.71856C10.7546 4.51982 11.0512 4.40808 11.4077 4.3288C11.7643 4.24966 12.1807 4.2031 16.2287 4.2031Z"
                fill="black" />
            <path
                d="M0.862305 7.20349C0.862305 10.2006 1.01699 11.0126 1.26197 11.7338C1.50703 12.455 1.84232 13.0854 2.38222 13.6399C2.92213 14.1943 3.66652 14.6729 4.7999 15.4255C5.93328 16.1782 7.45577 17.2046 9.47015 18.5438C11.4845 19.8829 13.9909 21.5347 15.6793 22.7147C17.3676 23.8947 18.238 24.6027 18.9027 25.2445C19.5674 25.8862 20.0265 26.4616 20.3223 27.0631C20.618 27.6645 20.7505 28.292 20.796 28.9359C20.8416 29.5797 20.8002 30.2399 20.5355 31.0516C20.2709 31.8633 19.7829 32.8266 17.6977 34.6338C18.0667 34.6338 18.5581 34.6338 19.1717 34.6338C20.3678 34.303 21.3796 33.4956 22.0493 32.7673C22.7188 32.0391 23.0459 31.3902 23.2682 30.6985C23.4906 30.0067 23.6081 29.2722 23.5085 28.5076C23.4087 27.7429 23.0918 26.948 22.5424 26.1985C21.993 25.4489 21.2111 24.7446 18.3419 22.7258C15.4727 20.7071 10.5163 17.3738 7.63328 15.431C4.7503 13.4882 3.9406 12.936 3.10848 12.1207C2.27616 11.3053 1.42147 10.2269 0.862305 7.20349Z"
                fill="black" />
            <path
                d="M0.862305 7.20349C1.42147 10.227 2.27616 11.3054 3.10841 12.1208C3.94053 12.9361 4.75017 13.4882 7.63321 15.4311C10.5163 17.3739 15.4727 20.7071 18.3418 22.7259C21.211 24.7447 21.993 25.449 22.5424 26.1985C23.0918 26.9481 23.4087 27.743 23.5084 28.5077C23.608 29.2722 23.4905 30.0068 23.2682 30.6986C23.0458 31.3902 22.7188 32.0392 22.0492 32.7673C21.3796 33.4956 20.3677 34.3031 19.1717 34.6339C19.4342 34.6339 19.7191 34.6339 20.0264 34.6339C21.703 34.2747 22.4048 33.7857 22.8798 33.4128C23.3549 33.04 23.6033 32.7833 23.8579 32.4105C24.1125 32.0376 24.3732 31.5487 24.5492 31.0922C24.7252 30.6358 24.8162 30.2121 24.8096 29.5824C24.803 28.9529 24.6986 28.1174 24.4972 27.4157C24.2958 26.7142 23.9974 26.1465 23.5798 25.5606C23.1624 24.9746 22.6258 24.3707 21.9804 23.7898C21.3348 23.2088 20.5804 22.6511 19.2189 21.6708C17.8575 20.6906 15.8891 19.2877 13.1296 17.3017C10.3703 15.3156 6.81982 12.7461 4.72648 11.1973C2.63328 9.64839 1.99693 9.12014 0.862305 7.20349Z"
                fill="black" />
            <path
                d="M0.720703 27.9378C1.55896 29.6129 1.89603 30.1228 2.29596 30.5973C2.69583 31.0718 3.15856 31.5107 3.69174 31.8243C4.22492 32.1379 4.82855 32.326 5.61819 32.4102C6.40797 32.4944 7.38369 32.4745 8.56918 32.4597C9.75454 32.4449 11.1495 32.4349 12.2041 32.4713C13.2587 32.5076 13.973 32.5901 14.637 32.8863C15.3009 33.1826 15.9146 33.6925 16.5847 34.6466C16.5647 33.4343 16.1766 32.5586 15.6576 31.863C15.1386 31.1673 14.4888 30.6519 13.9146 30.3382C13.3404 30.0246 12.8419 29.9128 11.3875 29.86C9.9331 29.8073 7.52268 29.8135 6.04623 29.7949C4.56978 29.7762 4.02717 29.7327 3.4056 29.5573C2.78396 29.3818 2.08357 29.0744 0.720703 27.9378Z"
                fill="black" />
            <path
                d="M0.720927 27.9378C1.55919 29.6129 1.89625 30.1228 2.29619 30.5973C2.69606 31.0718 3.15879 31.5107 3.69197 31.8243C4.22515 32.1379 4.82877 32.326 5.61842 32.4102C6.40819 32.4944 7.38392 32.4745 8.56941 32.4597C9.75476 32.4449 11.1497 32.4349 12.2044 32.4713C13.2589 32.5076 13.9732 32.5901 14.6372 32.8863C15.3011 33.1826 15.9148 33.6925 16.585 34.6466C6.61564 34.6466 6.18306 34.6466 5.87119 34.6466C5.55931 34.6466 5.36822 34.6466 5.026 34.5615C4.68365 34.4765 4.19025 34.3064 3.82673 34.1506C3.46321 33.9947 3.22963 33.853 2.98511 33.678C2.74071 33.5028 2.48537 33.2942 2.23544 33.0443C1.98557 32.7944 1.74104 32.503 1.51558 32.0778C1.29019 31.6528 1.08379 31.094 0.92152 30.3856C0.759119 29.677 0.641046 28.8188 0.720927 27.9378Z"
                fill="black" />
        </g>
        <g clip-path="url(#clip1_485_3488)">
            <path
                d="M32.113 42.5059C32.1397 43.6801 30.5323 43.9805 30.1506 42.8727C30.3085 42.0568 29.8974 41.2368 29.1568 40.8912C29.0013 40.8186 28.8484 40.7846 28.6774 40.7846C27.9698 40.7846 27.2623 40.7846 26.5548 40.7846C25.7509 40.7982 25.1138 41.4818 25.1397 42.3028C25.1397 42.7724 25.1397 43.242 25.1397 43.7116C25.1129 44.273 24.8851 44.5055 24.3357 44.5323C24.26 44.5323 24.1842 44.5323 24.1085 44.5323C23.7271 44.5029 23.4148 44.8376 23.4617 45.2255C23.8156 45.2255 24.1693 45.2255 24.5231 45.2255C25.267 45.1999 25.8586 44.5795 25.8642 43.819C25.8642 43.3395 25.8642 42.86 25.8642 42.3805C25.8697 41.8925 26.2821 41.5134 26.7577 41.5593C27.3114 41.5593 27.865 41.5593 28.4186 41.5593C29.2951 41.5515 29.7391 42.6341 29.119 43.267C28.4989 43.8999 27.4397 43.4451 27.4483 42.5496C27.4483 42.4495 27.4483 42.3495 27.4483 42.2493C27.429 41.8755 27.0633 41.6256 26.7177 41.7502C26.7177 42.0888 26.7177 42.4275 26.7177 42.7662C26.7177 42.9298 26.7473 43.0781 26.8102 43.2286C27.327 44.4667 28.9441 44.705 29.7824 43.6666C30.4201 44.6142 31.7922 44.6064 32.4196 43.6516C32.6339 44.1255 32.9097 44.3065 33.4207 44.3089C35.0698 44.3089 36.7188 44.3089 38.3679 44.3089C38.3679 43.7915 38.1606 43.5754 37.6543 43.5652C37.6466 43.5651 37.639 43.565 37.6314 43.565C36.3252 43.565 35.0191 43.565 33.7129 43.565C33.2161 43.5132 32.8423 43.0788 32.8555 42.5688C32.8555 42.0754 32.8555 41.5819 32.8555 41.0885C32.8555 40.9649 32.8555 40.8413 32.8555 40.7178C32.3574 40.6687 32.135 40.8663 32.1133 41.3771C32.1126 41.3941 32.1123 41.4111 32.1123 41.4282C32.1125 41.8034 32.1128 42.1786 32.1131 42.5538"
                fill="black" />
            <path
                d="M16.8414 42.5586C16.805 43.8711 18.8054 43.8711 18.7691 42.5586C18.7691 42.2033 18.7691 41.848 18.7691 41.4927C18.7633 40.9727 18.994 40.7666 19.4976 40.842C19.4976 41.408 19.4976 41.9741 19.4976 42.5401C19.5755 44.2212 17.4595 44.9686 16.5047 43.5972C16.1708 44.0555 15.8094 44.2564 15.2515 44.2942C14.2633 44.2942 13.2751 44.2942 12.287 44.2942C11.5766 44.2548 11.0259 43.6452 11.0444 42.9185C11.0445 41.8315 11.0447 40.7445 11.0448 39.6575C11.0373 39.1261 11.2515 38.904 11.7717 38.9039C11.7717 40.1059 11.7717 41.308 11.7717 42.5101C11.7717 42.5283 11.7712 42.5465 11.7704 42.5648C11.7473 43.073 12.1479 43.4961 12.6458 43.4895C13.5357 43.4895 14.4256 43.4895 15.3156 43.4895C16.4962 43.4045 16.5212 41.6421 15.3435 41.5221C14.4789 41.5221 13.6144 41.5221 12.7499 41.5221C12.7443 41.0914 12.903 40.8962 13.3184 40.823C13.9628 40.823 14.6071 40.823 15.2515 40.823C16.1595 40.8845 16.8597 41.6646 16.8411 42.5941"
                fill="black" />
            <path
                d="M22.7424 39.7462C22.98 39.7462 23.2176 39.7462 23.4552 39.7462C23.5057 39.7462 23.5561 39.7462 23.6065 39.7462C24.0524 39.7697 24.2416 39.5816 24.2305 39.1255C23.6576 39.1255 23.0847 39.1255 22.5118 39.1255C22.403 39.1255 22.2994 39.1404 22.1948 39.171C20.9861 39.5238 20.5996 41.078 21.4968 41.9776C19.344 42.7315 19.3858 45.857 21.5579 46.5506C21.6711 46.5868 21.7834 46.6043 21.9021 46.6043C22.6963 46.6043 23.4906 46.6043 24.2848 46.6043C24.2928 46.6043 24.3008 46.6043 24.3087 46.6041C24.6869 46.5962 24.9546 46.2238 24.8489 45.8528C23.9269 45.8528 23.005 45.8528 22.083 45.8528C21.7894 45.8528 21.5669 45.7701 21.3418 45.5773C20.1316 44.5408 20.8166 42.5254 22.3951 42.4783C22.46 42.4783 22.5249 42.4783 22.5898 42.4783C22.9481 42.4783 23.3065 42.4783 23.6648 42.4783C24.1302 42.4748 24.3145 42.2649 24.2677 41.7919C23.7664 41.7919 23.265 41.7919 22.7637 41.7919C21.4288 41.7982 21.441 39.7237 22.7755 39.7462"
                fill="black" />
            <path
                d="M14.1073 45.8861C14.4694 45.8132 14.5898 45.6297 14.5184 45.2597C14.447 44.8897 14.2674 44.7667 13.9053 44.8396C13.5432 44.9126 13.4228 45.0961 13.4943 45.4661C13.5656 45.836 13.7452 45.959 14.1073 45.8861Z"
                fill="black" />
            <path
                d="M23.036 38.6004C23.3981 38.5275 23.5185 38.344 23.4471 37.974C23.3757 37.604 23.1961 37.4809 22.834 37.554C22.4719 37.6269 22.3515 37.8104 22.423 38.1803C22.4943 38.5503 22.6739 38.6733 23.036 38.6004Z"
                fill="black" />
            <path
                d="M19.5006 39.5239C19.5117 40.0341 19.3078 40.249 18.8082 40.2534C18.0125 40.2534 17.2167 40.2534 16.4209 40.2534C16.45 39.7413 16.6618 39.5333 17.1638 39.5239C17.9428 39.5239 18.7217 39.5239 19.5006 39.5239Z"
                fill="black" />
            <path
                d="M32.61 45.1556C32.6211 45.6659 32.4172 45.8809 31.9176 45.8852C31.1218 45.8852 30.3261 45.8852 29.5303 45.8852C29.5594 45.373 29.7711 45.1651 30.2732 45.1556C31.0521 45.1556 31.8311 45.1556 32.61 45.1556Z"
                fill="black" />
            <path
                d="M7.40587 40.8256C7.41694 41.3358 7.21301 41.5507 6.71347 41.5551C5.91769 41.5551 5.12195 41.5551 4.32617 41.5551C4.35526 41.0429 4.56703 40.835 5.06903 40.8256C5.84798 40.8256 6.62692 40.8256 7.40587 40.8256Z"
                fill="black" />
            <path
                d="M2.48092 44.2952C2.50618 44.2981 2.53139 44.2998 2.55678 44.3004C2.56913 44.3005 2.58157 44.3006 2.59391 44.3006C4.10511 44.3006 5.6164 44.3006 7.1276 44.3006C7.15012 44.3006 7.17253 44.3012 7.19495 44.3026C7.91513 44.3456 8.54747 43.8177 8.64963 43.0881C8.65739 43.0325 8.66122 42.9772 8.66122 42.9211C8.66122 42.1995 8.66122 41.4778 8.66122 40.7562C8.15771 40.7564 7.94691 40.9667 7.93457 41.481C7.93428 41.4906 7.93423 41.5002 7.93423 41.5099C7.93442 41.9215 7.93466 42.3332 7.9349 42.7449C7.9349 42.7616 7.93447 42.7783 7.93381 42.795C7.91021 43.3634 7.67051 43.5892 7.11412 43.5675C7.09941 43.5669 7.08466 43.5666 7.06995 43.5666C5.60884 43.5669 4.14768 43.5672 2.68656 43.5675C2.29827 43.5675 2.06907 43.4363 1.86636 43.0978C1.58651 42.6304 1.6112 42.2953 1.95665 41.8761C2.16182 41.6272 2.37365 41.5265 2.69215 41.5265C2.83999 41.5265 2.98779 41.5265 3.13559 41.5265C3.51959 41.5307 3.81079 41.174 3.73786 40.7888C3.36025 40.7888 2.98268 40.7888 2.60512 40.7888C2.57684 40.7888 2.54874 40.7901 2.5206 40.7926C0.449705 40.9791 0.414707 44.0595 2.48092 44.2952Z"
                fill="black" />
            <path
                d="M8.92508 45.2296C8.88029 45.2361 8.8356 45.2393 8.79034 45.2393C8.37838 45.2393 7.96637 45.2393 7.55441 45.2393C7.50197 44.7475 7.68976 44.5267 8.17365 44.5111C8.35086 44.5111 8.52811 44.5111 8.70526 44.5111C9.2503 44.4377 9.45688 44.1857 9.43186 43.6246C9.43105 43.6067 9.43063 43.5888 9.43063 43.5708C9.43058 42.8656 9.43049 42.1603 9.43044 41.455C9.43044 41.4454 9.43058 41.4357 9.43077 41.4261C9.44311 40.9118 9.65389 40.7016 10.1574 40.7014C10.1574 41.7048 10.1574 42.7081 10.1574 43.7115C10.1574 43.7215 10.1575 43.7314 10.1577 43.7414C10.1763 44.4854 9.64618 45.1253 8.92508 45.2296Z"
                fill="black" />
        </g>
    </g>
    <defs>
        <clipPath id="clip0_485_3488">
            <rect width="38.0512" height="34.6466" fill="white" transform="translate(0.69043)" />
        </clipPath>
        <clipPath id="clip1_485_3488">
            <rect width="39.4286" height="12" fill="white" transform="translate(0.00195312 36)" />
        </clipPath>
    </defs>
</svg>
    