<svg width="80" height="80" viewBox="0 0 80 80" fill="none" xmlns="http://www.w3.org/2000/svg">
    <g clip-path="url(#clip0_640_6317)">
        <path
            d="M40 80C62.0914 80 80 62.0914 80 40C80 17.9086 62.0914 0 40 0C17.9086 0 0 17.9086 0 40C0 62.0914 17.9086 80 40 80Z"
            fill="#E31542" />
        <path
            d="M69.3497 40.0157C69.3467 45.9936 67.6205 51.8363 64.3896 56.8039C61.1588 61.7716 56.5685 65.641 51.1999 67.9223C45.8314 70.2035 39.9259 70.7941 34.231 69.6191C28.5362 68.4442 23.3081 65.5567 19.2085 61.322C15.109 57.0874 12.3223 51.696 11.2013 45.8305C10.0803 39.965 10.6753 33.889 12.9111 28.3717C15.1468 22.8544 18.9228 18.1439 23.761 14.8364C28.5992 11.529 34.282 9.7734 40.0901 9.79183C47.8562 9.83281 55.2914 13.0337 60.773 18.696C66.2547 24.3583 69.3379 32.0224 69.3497 40.0157ZM14.963 40.0157C14.96 45.1122 16.4254 50.0953 19.174 54.3346C21.9226 58.5739 25.8308 61.8792 30.4045 63.8324C34.9782 65.7856 40.012 66.299 44.8692 65.3078C49.7264 64.3165 54.1889 61.865 57.6925 58.2634C61.196 54.6617 63.5832 50.0717 64.5522 45.0736C65.5211 40.0756 65.0283 34.8941 63.1361 30.1843C61.2439 25.4745 58.0373 21.448 53.9217 18.614C49.8061 15.7799 44.9664 14.2656 40.0146 14.2625C33.3796 14.2666 27.0167 16.9781 22.3208 21.8026C17.6249 26.6271 14.9789 33.1711 14.963 40.0002V40.0157Z"
            fill="white" />
        <path
            d="M32.0183 51.6116C29.7881 51.6054 27.6098 50.918 25.7595 49.6367C23.9091 48.3553 22.4698 46.5375 21.624 44.4136C20.7781 42.2897 20.5638 39.9552 21.008 37.7058C21.4523 35.4563 22.5352 33.3932 24.1196 31.7778C25.704 30.1623 27.7186 29.0671 29.9081 28.631C32.0977 28.1949 34.3638 28.4374 36.4194 29.3279C38.4749 30.2184 40.2275 31.7167 41.455 33.6332C42.6825 35.5496 43.3298 37.7979 43.3149 40.0933C43.295 43.1606 42.0951 46.0949 39.9778 48.2536C37.8606 50.4124 34.9985 51.6198 32.0183 51.6116ZM38.9712 40.0001C38.9653 38.5892 38.5533 37.2117 37.7873 36.0415C37.0214 34.8713 35.9358 33.9609 34.6675 33.4252C33.3993 32.8894 32.0053 32.7525 30.6615 33.0315C29.3176 33.3105 28.0843 33.993 27.117 34.9929C26.1497 35.9928 25.492 37.2652 25.2267 38.6495C24.9614 40.0338 25.1006 41.468 25.6266 42.7709C26.1525 44.0739 27.0418 45.1873 28.1821 45.9706C29.3223 46.7539 30.6625 47.1719 32.0334 47.1719C32.9464 47.1699 33.8502 46.9827 34.693 46.6212C35.5358 46.2597 36.3012 45.7309 36.9454 45.0649C37.5897 44.399 38.1002 43.6089 38.4477 42.7399C38.7953 41.8709 38.9732 40.9399 38.9712 40.0001Z"
            fill="white" />
        <path
            d="M57.7839 28.4198C57.6783 28.6061 57.618 28.7147 57.5426 28.8234L50.4539 39.6897C50.3764 39.7826 50.3338 39.901 50.3338 40.0235C50.3338 40.1459 50.3764 40.2643 50.4539 40.3572C52.8269 43.969 55.1847 47.5911 57.5275 51.2235L57.7538 51.5961L57.4069 51.7047H52.8822C52.792 51.7095 52.7022 51.6889 52.6225 51.6451C52.5428 51.6014 52.4761 51.5361 52.4297 51.4564L45.2053 40.3262C45.1477 40.254 45.1162 40.1634 45.1162 40.07C45.1162 39.9766 45.1477 39.8861 45.2053 39.8139C47.6185 36.1194 50.0165 32.4093 52.4297 28.6992C52.4685 28.6361 52.5191 28.5815 52.5787 28.5389C52.6383 28.4962 52.7056 28.4663 52.7766 28.4508L57.7839 28.4198Z"
            fill="white" />
    </g>
    <defs>
        <clipPath id="clip0_640_6317">
            <rect width="80" height="80" fill="white" />
        </clipPath>
    </defs>
</svg>
    