<svg width="57" height="56" viewBox="0 0 57 56" fill="none" xmlns="http://www.w3.org/2000/svg">
    <mask id="mask0_535_8970" style="mask-type:alpha" maskUnits="userSpaceOnUse" x="0" y="0"
        width="57" height="56">
        <rect x="0.857422" width="56" height="56" fill="#D9D9D9" />
    </mask>
    <g mask="url(#mask0_535_8970)">
        <path
            d="M14.2185 28.175C14.2185 30.5371 14.659 32.5838 15.5399 34.3152C16.4208 36.0466 17.6171 37.5514 19.1287 38.8297L20.6808 39.8569V35.1649C20.6808 34.6154 20.8626 34.1589 21.2261 33.7953C21.5896 33.4318 22.0572 33.25 22.6287 33.25C23.1782 33.25 23.6347 33.4318 23.9982 33.7953C24.3618 34.1589 24.5435 34.6154 24.5435 35.1649V44.8508C24.5435 45.5102 24.3233 46.0601 23.8828 46.5006C23.4423 46.9411 22.8924 47.1613 22.233 47.1613H12.5801C12.0306 47.1613 11.574 46.974 11.2105 46.5995C10.847 46.225 10.6652 45.763 10.6652 45.2134C10.6652 44.6639 10.847 44.2074 11.2105 43.8439C11.574 43.4803 12.0416 43.2986 12.6131 43.2986H17.4242L16.879 42.8294C14.3681 40.7361 12.5213 38.5064 11.3385 36.1401C10.1558 33.7738 9.56445 31.1188 9.56445 28.175C9.56445 24.3436 10.5984 20.855 12.6663 17.7093C14.7342 14.5635 17.4809 12.2018 20.9066 10.6243C21.4442 10.3858 21.9515 10.4188 22.4283 10.7232C22.9051 11.0275 23.2323 11.4706 23.4098 12.0522C23.6043 12.6338 23.5658 13.2087 23.2944 13.7768C23.023 14.345 22.6185 14.7787 22.0808 15.078C19.6798 16.3562 17.7692 18.1666 16.349 20.5093C14.9287 22.8519 14.2185 25.4071 14.2185 28.175ZM43.4967 27.825C43.4967 26.0463 43.0508 24.2329 42.1588 22.3848C41.267 20.5368 40.1261 18.8958 38.7363 17.462L37.2424 16.1432V20.8352C37.2424 21.3847 37.0551 21.8412 36.6806 22.2047C36.3061 22.5683 35.8441 22.75 35.2946 22.75C34.7451 22.75 34.283 22.5628 33.9085 22.1883C33.534 21.8137 33.3467 21.3517 33.3467 20.8022V11.1493C33.3467 10.4899 33.5669 9.93994 34.0074 9.49949C34.4479 9.05899 35.0088 8.83875 35.6902 8.83875H45.3101C45.8597 8.83875 46.3217 9.02051 46.6962 9.38405C47.0707 9.74758 47.258 10.2041 47.258 10.7537C47.258 11.3032 47.0707 11.7652 46.6962 12.1397C46.3217 12.5142 45.8597 12.7015 45.3101 12.7015H40.4077L40.9859 13.2873C43.3632 15.5091 45.1517 17.8974 46.3513 20.4522C47.551 23.007 48.1508 25.4646 48.1508 27.825C48.1508 31.6175 47.1515 35.0672 45.1529 38.1741C43.1544 41.281 40.4702 43.6621 37.1004 45.3174C36.5627 45.5948 36.0263 45.5909 35.4911 45.306C34.956 45.0211 34.5912 44.5684 34.3967 43.9478C34.1803 43.3662 34.2078 42.7913 34.4791 42.2232C34.7506 41.6551 35.1661 41.2214 35.7257 40.9221C38.1216 39.6827 40.0158 37.882 41.4082 35.5199C42.8005 33.1579 43.4967 30.5929 43.4967 27.825Z"
            fill="#1A1E00" />
    </g>
</svg>
    