<svg width="36" height="48" viewBox="0 0 36 48" fill="none" xmlns="http://www.w3.org/2000/svg">
    <g opacity="0.5" clip-path="url(#clip0_485_3486)">
        <path
            d="M16.3572 0H16.679C16.7809 3.17691 16.887 6.35382 16.9973 9.53072C17.1794 9.56041 17.26 9.30451 17.3802 9.19635C17.5123 8.9772 17.8167 8.84289 17.8083 8.56012C17.8083 5.70745 17.8083 2.8562 17.8083 0.0063623H18.1023C18.552 0.063623 19.0058 0.0890722 19.454 0.147747C19.3602 2.318 19.2455 4.48754 19.1496 6.65779C19.0989 7.27918 19.1197 7.90621 19.0412 8.52548C19.3679 8.36493 19.7362 8.31347 20.0934 8.37844C20.3649 5.7157 20.6322 3.05296 20.8954 0.390221C21.3923 0.523829 21.8829 0.679352 22.3792 0.817909C21.983 3.60742 21.5584 6.3934 21.1532 9.1815C21.4812 9.14474 21.8162 9.10516 22.1408 9.19564C22.6453 6.56943 23.1506 3.94321 23.6697 1.32053C24.1701 1.58209 24.6663 1.85284 25.1618 2.1243C24.585 4.50521 24.0058 6.88518 23.4244 9.26421C23.3695 9.50174 23.2903 9.73431 23.268 9.9782L23.3236 10.068C23.5564 10.1839 23.8101 10.2525 24.0332 10.3939C24.7851 7.84683 25.5225 5.30192 26.2856 2.76124C26.7026 3.07511 27.1077 3.39747 27.5261 3.70851C26.2752 7.46156 24.9895 11.2019 23.7316 14.9486C23.6857 15.1232 23.7455 15.302 23.7601 15.4773C23.8163 15.7983 23.815 16.1277 23.8768 16.448L23.9574 16.5123C24.1124 16.2295 24.2083 15.9248 24.3285 15.6293C25.7616 11.992 27.1946 8.35346 28.6276 4.71376C28.998 5.09761 29.3518 5.49844 29.7229 5.88159C28.0876 9.50739 26.4301 13.124 24.7886 16.7456C24.9401 16.9456 25.1528 17.1994 25.0256 17.4673C24.8234 17.7961 24.4265 17.9586 24.2611 18.3156C24.1701 18.5744 24.2563 18.8501 24.3306 19.1024C24.396 18.9985 24.4606 18.8939 24.519 18.7857C26.52 14.8496 28.5222 10.9125 30.5256 6.97449C30.8314 7.4446 31.0892 7.9451 31.3867 8.42085C29.2091 12.2444 27.0253 16.0639 24.8352 19.8794C24.9568 19.9776 25.0603 20.1197 25.2167 20.1621C25.323 20.1862 25.3814 20.0829 25.4349 20.0108C27.6213 16.5908 29.8121 13.174 32.0073 9.76047C32.181 10.2475 32.3951 10.7282 32.5111 11.2323C32.3436 11.5242 32.1261 11.783 31.9392 12.0622C29.9932 14.8178 28.0459 17.5748 26.0972 20.3332C25.8978 20.616 25.6108 20.9037 25.7081 21.2861C25.7213 21.5024 25.9958 21.4515 26.0743 21.3052C28.351 18.3807 30.5965 15.4293 32.885 12.5161C32.9844 13.0858 33.0935 13.6556 33.1915 14.2254C30.425 17.4523 27.6565 20.6794 24.8859 23.9067C24.8164 24.0113 24.6628 24.164 24.8074 24.2771C24.9116 24.2948 25.0291 24.2955 25.0993 24.1994C27.8045 21.3801 30.5094 18.5595 33.2137 15.7375C33.2137 16.1701 33.2137 16.6021 33.2137 17.0347C33.2012 17.1315 33.2339 17.2546 33.1533 17.3281C30.5925 19.7891 28.0302 22.2492 25.4662 24.7083C25.2577 25.0392 24.9102 25.2244 24.6593 25.5121C23.6864 26.4773 22.7197 27.4472 21.7592 28.4218C21.8628 28.4218 21.9677 28.4168 22.0727 28.4161C24.8062 25.9575 27.5446 23.5052 30.2879 21.0592C31.2053 20.2512 32.0948 19.4114 33.0323 18.6246C32.9462 19.13 32.851 19.6348 32.7578 20.1395C32.7217 20.3643 32.4903 20.4619 32.3408 20.6018C29.112 23.2139 25.8644 25.8027 22.6446 28.4296C22.769 28.4084 22.9122 28.4416 23.0262 28.373C26.1139 26.1236 29.176 23.8339 32.2734 21.5986C32.1421 21.9747 31.9829 22.3401 31.8439 22.7141C31.7744 22.8725 31.7314 23.0612 31.5736 23.1552C30.0011 24.2133 28.4259 25.2694 26.8478 26.3237C25.8137 27.0306 24.7573 27.7022 23.735 28.426C23.8572 28.4145 23.9756 28.3769 24.0825 28.3158C25.3592 27.5381 26.6539 26.7888 27.9313 26.0168C28.9834 25.4103 30.0078 24.7522 31.0718 24.1668C30.5457 25.1714 29.8438 26.0755 29.0731 26.8948C28.841 27.1536 28.5505 27.3543 28.3357 27.6293C28.4747 27.8902 28.7465 28.0372 28.9028 28.2776C28.9306 29.6914 28.9063 31.1053 28.9146 32.5191C21.3089 32.5191 13.7029 32.5191 6.0967 32.5191C6.0967 31.176 6.08905 29.8371 6.0967 28.4953C6.28017 28.3242 6.46017 28.1482 6.64086 27.9736C5.82849 27.2131 5.07435 26.3907 4.38499 25.5135C4.1247 25.1834 3.89222 24.8315 3.69002 24.4616C6.16342 25.7447 8.6243 27.0617 11.0887 28.3568C11.1787 28.3922 11.2718 28.4192 11.3667 28.4373C11.0602 28.1991 10.7155 28.0189 10.3937 27.8089C8.01551 26.3399 5.63779 24.87 3.26053 23.3991C3.15385 23.3441 3.06844 23.2542 3.01798 23.1439C2.83451 22.7346 2.65521 22.3225 2.48355 21.9075C3.79913 22.7629 5.08691 23.655 6.39345 24.5189C8.27473 25.7913 10.1657 27.0454 12.0449 28.3186C12.1538 28.387 12.2773 28.4275 12.4049 28.4366C12.1193 28.1814 11.8003 27.9701 11.4973 27.7375L2.03807 20.6937C1.88866 20.1063 1.72881 19.5195 1.6343 18.9194C5.40196 22.0553 9.1629 25.1999 12.9171 28.3532C13.0269 28.4437 13.1805 28.4084 13.3105 28.431C10.7502 26.0183 8.16771 23.631 5.59632 21.2282C4.2168 19.9479 2.8491 18.6507 1.45916 17.3825C1.45916 16.8968 1.45013 16.4112 1.46681 15.9262C2.06518 16.4833 2.61351 17.0927 3.19728 17.6653C6.718 21.2522 10.2403 24.8379 13.7643 28.4225L13.9589 28.414C10.5494 24.6287 7.14008 20.8434 3.73102 17.058C3.00756 16.2415 2.25977 15.4455 1.54812 14.6199C1.6065 14.0239 1.72881 13.4322 1.83723 12.8434C5.99685 18.035 10.1565 23.2266 14.3161 28.4183H14.5538C10.4053 22.7874 6.25168 17.1596 2.09298 11.5348C2.2834 11.04 2.46548 10.5452 2.65243 10.0503C4.05349 12.1089 5.41146 14.1985 6.79584 16.2712C9.48537 20.3242 12.1749 24.3756 14.8644 28.4253L15.0729 28.4204C11.1107 21.8682 7.14772 15.3166 3.18408 8.76583C3.48778 8.24978 3.79009 7.73231 4.09658 7.21767C6.30797 11.323 8.5138 15.4316 10.7141 19.5436C10.8614 19.4159 11.028 19.3132 11.2075 19.2396C10.6397 18.1205 10.1115 16.9774 9.55626 15.8541C9.35263 15.7743 9.13233 15.7014 8.98499 15.5275C8.82654 15.3642 8.78554 15.1317 8.73897 14.9175C8.68477 14.6474 8.46099 14.4608 8.3755 14.2042C8.34284 13.8627 8.5145 13.4845 8.29906 13.1763C7.13985 10.8484 6.01678 8.50144 4.87703 6.16365C5.23146 5.7494 5.56088 5.31535 5.92782 4.90957C6.22619 5.61414 6.52341 6.3187 6.81947 7.02327C6.91398 6.82816 7.00433 6.58922 7.22185 6.50722C7.37266 6.48106 7.56934 6.46622 7.6722 6.6076C7.92447 6.91794 8.13783 7.25867 8.38662 7.57184C7.91474 6.3425 7.45328 5.10963 6.98348 3.88029C7.40046 3.54733 7.81258 3.2066 8.23443 2.87859C8.74245 4.38645 9.25534 5.89219 9.75294 7.40289C9.81636 7.23464 9.89548 7.07295 9.98923 6.92006C10.1171 6.74969 10.3332 6.69809 10.5188 6.62032C10.1234 5.13579 9.73209 3.65125 9.33387 2.17237C9.85093 1.90021 10.3666 1.6238 10.8913 1.36577C11.2402 3.1458 11.5856 4.92654 11.9275 6.70798C11.9748 7.04943 12.3347 7.27352 12.3028 7.63617C12.3028 7.81714 12.1311 7.91894 12.0213 8.03558L11.7975 7.94298C11.8469 8.40035 11.8476 8.86197 11.8941 9.31794C12.0109 9.60495 12.3723 9.62828 12.635 9.6714C13.0172 9.70765 13.3778 9.86801 13.6635 10.1288C13.8567 10.2843 14.011 10.4971 14.2452 10.5975C14.3842 10.56 14.5183 10.4914 14.6622 10.461C14.8366 10.4935 14.9861 10.5989 15.1431 10.6731C15.4906 10.5819 15.8138 10.4193 16.1425 10.2737C16.3468 10.1627 16.4073 10.4554 16.5018 10.5748C16.5609 10.4985 16.6575 10.4299 16.6338 10.3182C16.622 9.86298 16.4552 9.4261 16.4726 8.96801C16.4622 8.54316 16.5207 8.11946 16.6456 7.71393C16.4747 7.77756 16.2613 8.04689 16.0855 7.87511C15.8268 7.55324 15.6873 7.14919 15.6915 6.73343C15.5643 6.71647 15.4371 6.6995 15.3099 6.68395C15.6477 6.16153 15.4489 5.52247 15.3982 4.94987C15.2849 3.33667 15.182 1.72277 15.0695 0.11028C15.4976 0.0834168 15.9284 0.0473638 16.3572 0ZM7.16973 7.12931C7.08495 7.64536 7.2295 8.15788 7.31707 8.66333C7.37336 9.04507 7.63884 9.3448 7.74378 9.71099C7.9064 10.0998 7.87026 10.5522 8.10099 10.9128C8.28516 11.233 8.55133 11.4889 8.7904 11.7611C8.93496 11.9244 8.94121 12.1605 8.93982 12.3683C8.93982 12.9289 8.69867 13.4464 8.62361 13.9942C8.55828 14.3901 9.03086 14.5548 9.04476 14.9252C9.07047 15.0596 9.0941 15.208 9.20877 15.2992C9.43047 15.4908 9.74112 15.4738 10.0024 15.5714C10.3728 15.6986 10.7634 15.9114 10.9295 16.291C10.9712 16.5568 10.9073 16.8311 10.9622 17.0948C11.0463 17.2637 11.1596 17.4186 11.2172 17.6017C11.3208 17.9184 11.2735 18.2584 11.3423 18.5814C11.3792 18.7122 11.4431 18.8798 11.5988 18.8932C11.9039 18.7956 11.9428 18.3178 12.2937 18.3079C12.5085 18.2796 12.4737 18.5949 12.6503 18.6472C12.9206 18.7214 13.2472 18.6592 13.4606 18.8805C13.5996 18.9999 13.633 19.1922 13.6802 19.3626C13.8608 20.0603 14.2159 20.6986 14.7108 21.2154C14.8665 21.3915 15.1098 21.4211 15.3064 21.5314C15.565 21.6516 15.7498 21.9075 16.0438 21.9556C16.6595 22.1196 17.1043 22.7869 17.7882 22.6943C18.365 22.5204 18.8174 21.9952 19.4471 21.9874C19.5852 21.98 19.723 22.0067 19.8488 22.0653C19.9745 22.1239 20.0845 22.2126 20.1691 22.3239C20.4687 22.6604 20.5562 23.1333 20.8488 23.4726C20.9468 23.5992 21.1074 23.614 21.2547 23.6098C21.9795 23.6013 22.694 23.7455 23.4056 23.872C23.7531 23.9251 24.0582 24.1096 24.4008 24.1774C24.5829 23.5589 24.5641 22.8491 24.9999 22.3345C25.2494 21.9973 25.6691 21.8792 26.0653 21.8573C25.8665 21.7732 25.6163 21.764 25.4752 21.5816C25.3126 21.2501 25.5447 20.7708 25.2237 20.512C24.9234 20.3042 24.5982 20.1225 24.3612 19.8355C23.9262 19.376 23.8052 18.6825 23.9442 18.0781C24.1333 17.7706 24.528 17.6808 24.7295 17.3839C24.8039 17.2637 24.7886 17.0545 24.6406 17.0015C24.3174 16.8686 23.9018 17.0128 23.6301 16.7519C23.3646 16.4119 23.5314 15.951 23.4348 15.5608C23.3653 15.278 23.4035 14.9896 23.4126 14.704C23.4008 14.3562 22.9504 14.2204 22.9852 13.8557C22.9852 13.1799 23.6718 12.7953 23.7983 12.1591C23.8031 11.971 23.7232 11.7929 23.7121 11.6055C23.6739 11.3404 23.7482 11.081 23.8136 10.8279C23.8685 10.6929 23.7573 10.5657 23.6419 10.5169C23.3813 10.3868 23.0922 10.2808 22.9261 10.022C22.8205 10.0164 22.7113 10.0355 22.6092 10.0051C22.4063 9.85379 22.2443 9.64454 22.015 9.53001C21.7029 9.49538 21.3833 9.6205 21.0747 9.52082C20.6139 9.37944 20.2769 9.01255 19.9627 8.66191C19.7723 8.66757 19.5826 8.66757 19.3929 8.67111C19.2207 8.81134 19.0117 8.8968 18.7921 8.91679C18.5724 8.93679 18.3518 8.89042 18.1579 8.78351C17.8584 9.14418 17.5404 9.48846 17.2051 9.8149C17.1161 9.92236 16.9737 9.8856 16.8534 9.89267C16.9229 10.0701 16.9771 10.2659 16.9229 10.4582C16.7949 10.6822 16.6046 10.8627 16.376 10.9771C16.2961 10.8792 16.2234 10.7755 16.1585 10.6667C15.7978 10.6413 15.4802 10.8421 15.1341 10.9036C14.968 10.9559 14.8151 10.8491 14.6559 10.8187C14.4155 10.8682 14.1326 10.9728 13.9235 10.7806C13.6246 10.4978 13.3299 10.1571 12.9025 10.0927C12.4807 10.0171 12.0026 9.94356 11.71 9.5894C11.464 9.2932 11.6884 8.88247 11.5355 8.54881C11.2895 8.52477 10.949 8.64495 10.7864 8.39187C10.6647 7.98539 10.8058 7.55346 10.744 7.1385C10.7349 7.05155 10.6745 6.88613 10.557 6.97025C10.2408 7.04094 10.1623 7.3944 9.93154 7.57962C9.6288 7.83821 9.27013 8.02015 8.88492 8.11052C8.66531 8.15717 8.37829 8.14162 8.25111 7.92247C7.99397 7.51317 7.77922 7.03105 7.33722 6.7914C7.24711 6.88616 7.18665 7.00596 7.16348 7.13567M12.2312 18.7108C12.1117 18.9406 11.9574 19.1852 11.6752 19.2099C11.6565 19.311 11.6843 19.4927 11.5362 19.4983C11.3277 19.516 11.0602 19.5655 10.9942 19.8072C11.0185 20.0865 11.2999 20.2363 11.3611 20.5C11.3931 20.6527 11.4209 20.816 11.5411 20.9242C12.0345 21.4607 12.6899 21.8001 13.3181 22.1443C13.3438 22.5565 13.6406 22.8689 13.7289 23.2606C13.7858 23.4408 13.6052 23.578 13.6142 23.7554C13.6566 23.8862 13.7872 23.9576 13.8811 24.0488C13.9091 24.239 13.9691 24.4228 14.0583 24.5924C14.0402 24.3747 14.0492 24.1039 14.2577 23.9788C14.4551 23.9364 14.6052 24.1138 14.7366 24.234C14.8902 24.4044 15.084 24.5684 15.139 24.7995C15.0695 24.9536 14.968 25.0901 14.8832 25.2364C15.6894 25.153 16.4997 25.177 17.308 25.1897C17.6212 24.962 17.8933 24.6808 18.112 24.3584C18.21 24.1746 18.4317 24.222 18.6027 24.1873C18.6166 23.8431 18.9446 23.6515 19.0092 23.327C19.0313 23.2231 19.0766 23.1258 19.1417 23.0427C19.2068 22.9595 19.2899 22.8928 19.3845 22.8477C19.5235 22.7954 19.6431 22.893 19.757 22.9566C19.757 23.3397 19.757 23.7236 19.757 24.1075C19.7661 24.2404 19.7049 24.3612 19.6576 24.4807C19.8585 24.6666 20.1344 24.7274 20.345 24.8999C20.4742 24.9904 20.5952 25.1311 20.7696 25.0979C22.1137 25.054 23.4584 25.0858 24.8004 25.042C24.8632 25.0549 24.9281 25.0513 24.9891 25.0317C25.0502 25.012 25.1053 24.9769 25.1493 24.9296C25.1932 24.8823 25.2247 24.8244 25.2406 24.7613C25.2566 24.6982 25.2565 24.6321 25.2403 24.5691C24.9769 24.5613 24.6983 24.6072 24.4557 24.4765C24.2319 24.3598 23.9692 24.41 23.7392 24.3351C22.9386 23.9731 22.0414 24.0467 21.1901 23.9731C20.7501 23.9463 20.4715 23.549 20.2915 23.1821C20.1268 22.8604 19.9933 22.4222 19.5916 22.3458C19.1163 22.3458 18.6965 22.613 18.315 22.8732C17.891 23.0775 17.3809 23.0591 16.95 22.8859C16.6929 22.7056 16.4948 22.4229 16.1856 22.3295C16.0209 22.2871 15.8096 22.3606 15.6991 22.1959C15.4065 21.8722 14.9958 21.7181 14.6198 21.5251C14.3257 21.2563 14.0744 20.9427 13.8748 20.5955C13.5899 20.1261 13.4467 19.5895 13.2604 19.0756C13.0589 19.0282 12.8504 19.036 12.6475 19.0006C12.473 18.9681 12.35 18.8296 12.2305 18.708M11.8135 21.6134C12.931 23.7582 14.0465 25.904 15.1598 28.0507C15.2557 28.2041 15.2988 28.4628 15.5302 28.4331C14.551 26.3053 13.5509 24.1866 12.5585 22.0644C12.3639 21.8467 12.0609 21.7612 11.8135 21.6134ZM19.0009 24.106C18.8042 25.5566 18.5909 27.0044 18.3998 28.4564L18.5158 28.3815C18.8341 26.6545 19.135 24.9225 19.4429 23.1927C19.1902 23.4315 19.0328 23.7567 19.0009 24.106ZM14.3661 24.2771C14.2835 24.5572 14.3022 24.8582 14.419 25.1254C14.8624 26.1858 15.2946 27.2462 15.7345 28.3066C15.7471 28.3461 15.7719 28.3805 15.8052 28.4046C15.8385 28.4286 15.8786 28.4411 15.9194 28.4402C15.5907 27.4795 15.2592 26.5188 14.9138 25.5637C14.8406 25.5387 14.7737 25.4979 14.7175 25.4441C14.6614 25.3903 14.6174 25.3247 14.5885 25.252C14.6365 25.0851 14.6886 24.9112 14.665 24.7352C14.6288 24.5479 14.4899 24.4079 14.3661 24.2743M18.1419 24.7324C18.0808 25.9631 18.0231 27.1939 17.9487 28.4232L18.1329 28.4133C18.217 27.0999 18.3699 25.7913 18.447 24.4772C18.3212 24.5196 18.1245 24.5556 18.1419 24.7324ZM19.6709 24.8688C19.379 26.0642 19.053 27.2511 18.7841 28.4515L18.9286 28.3766C19.2587 27.2596 19.5604 26.1321 19.8905 25.0144L19.6674 24.8695M20.2532 25.2937C19.9058 26.3406 19.5353 27.3798 19.1774 28.4232L19.356 28.414C19.7077 27.4243 20.0635 26.441 20.4339 25.4612C20.3735 25.4047 20.3137 25.3488 20.2532 25.2937ZM17.367 25.5149C17.3712 26.4806 17.3941 27.4477 17.3837 28.4133L17.67 28.4239C17.6742 27.3854 17.6617 26.347 17.6763 25.3085C17.5734 25.3792 17.4678 25.4386 17.367 25.5142M21.6828 25.3877C21.1018 26.4 20.5173 27.4116 19.9551 28.4359L20.1386 28.4041C20.7786 27.4144 21.3694 26.3908 21.9941 25.3905H21.6828M22.4473 25.3905C21.7669 26.3958 21.1053 27.4137 20.4256 28.4197C20.5132 28.4197 20.6007 28.4197 20.689 28.4246C21.4375 27.4088 22.2012 26.4049 22.9518 25.3898C22.7829 25.3898 22.6154 25.3898 22.4473 25.3898M21.0733 28.4183H21.3172L24.1353 25.358C23.963 25.3516 23.7879 25.3516 23.6183 25.3467C22.7635 26.3661 21.9151 27.3899 21.0733 28.4183ZM20.8613 25.4492C20.4235 26.4389 19.9759 27.4286 19.5332 28.4183H19.7167C20.2095 27.4236 20.7008 26.4283 21.206 25.44C21.0907 25.44 20.976 25.4464 20.8586 25.4506M15.9715 25.5107C16.1745 26.4064 16.3524 27.3084 16.5372 28.209C16.5664 28.3044 16.5636 28.4501 16.7075 28.4501C16.5775 27.4667 16.3962 26.4912 16.2474 25.5114H15.9694M16.6554 25.5149C16.7575 26.4841 16.8444 27.454 16.948 28.4232H17.1085C17.0703 27.4547 16.982 26.4891 16.9389 25.5213L16.6554 25.5142M15.328 25.5849C15.599 26.5265 15.884 27.4646 16.1383 28.4126L16.3232 28.4317C16.0688 27.4837 15.8186 26.5343 15.5629 25.587H15.328M6.61793 28.9251C6.62279 29.9579 6.62488 30.99 6.61793 32.0229C13.9026 32.0356 21.1873 32.037 28.472 32.0271C28.4664 30.9929 28.4685 29.9579 28.472 28.9237C21.1882 28.9237 13.9045 28.9237 6.62071 28.9237M12.1944 0.911929C12.6662 0.759234 13.1319 0.586745 13.6058 0.440412C13.856 2.44736 14.1132 4.4529 14.3495 6.46127C13.9234 6.45773 13.4981 6.46692 13.0728 6.4542C12.7774 4.60701 12.48 2.76053 12.1944 0.911929ZM14.8158 12.5252C15.4447 11.8812 16.3558 11.5836 17.2357 11.5992C18.5082 11.5935 19.7376 12.2601 20.5145 13.2739C20.7974 13.633 21.0323 14.0423 21.1268 14.4968C21.3138 15.3529 21.2714 16.238 21.2387 17.1082C21.2338 17.2779 21.2283 17.4617 21.3346 17.6066C21.6126 18.0244 22.0789 18.2534 22.5161 18.4662C22.3319 18.7971 22.1317 19.1187 21.942 19.4467C21.5688 19.2912 21.1984 19.1032 20.9065 18.8154C20.4891 18.3642 20.2217 17.791 20.142 17.1768C20.0336 17.0969 19.9259 17.0177 19.8189 16.9371C19.9293 16.6821 20.0057 16.4132 20.0461 16.1376C20.1775 16.1164 20.3074 16.0853 20.4388 16.0669C20.464 15.596 20.413 15.1242 20.288 14.67L19.9329 14.7973C19.833 14.508 19.6838 14.2388 19.4922 14.002L19.7007 13.7814C19.4114 13.394 19.0463 13.0717 18.6284 12.8349C18.5492 12.9409 18.4713 13.047 18.3914 13.1537C18.1683 13.0505 17.9251 13.0194 17.6909 12.9565C17.6694 12.8304 17.6554 12.7032 17.6492 12.5754C17.1856 12.5634 16.7172 12.5493 16.2592 12.6461C16.2724 12.796 16.2898 12.9452 16.3072 13.095C16.0473 13.2364 15.7811 13.37 15.5149 13.5022C15.2821 13.1749 15.0333 12.8596 14.8109 12.5245M11.9532 13.0519C12.129 12.7133 12.3139 12.3803 12.505 12.0509C12.922 12.1873 13.2799 12.4609 13.6218 12.7338C14.0923 13.1403 14.2473 13.8019 14.2327 14.4071L14.5614 14.5704C14.4919 14.8425 14.4398 15.1196 14.3877 15.3968H14.0249C13.983 15.9028 14.0347 16.4123 14.1771 16.899C14.2911 16.8665 14.4053 16.8346 14.5197 16.8035C14.6352 17.0401 14.7785 17.2616 14.9464 17.4631C14.838 17.5536 14.7308 17.6452 14.6247 17.7381C14.902 18.1521 15.287 18.4795 15.7366 18.6839L15.9625 18.4012C16.1974 18.4902 16.4344 18.5744 16.67 18.6613C16.6825 18.7886 16.6964 18.9151 16.7117 19.0416C17.1945 19.1092 17.6858 19.0765 18.1558 18.9455C18.1245 18.8119 18.1016 18.6762 18.0696 18.5426C18.3414 18.4259 18.6089 18.3001 18.8807 18.182C19.0892 18.4952 19.2977 18.8105 19.5221 19.1123C19.0655 19.4432 18.5443 19.6703 17.9938 19.7785C17.4433 19.8867 16.8765 19.8734 16.3315 19.7394C15.5138 19.5416 14.7633 19.1241 14.1583 18.5305C13.3835 17.6822 13.1645 16.4614 13.1937 15.3374C13.1805 14.8609 13.2876 14.3477 13.0811 13.903C12.8101 13.5015 12.3605 13.2809 11.9525 13.0547M16.4698 12.9642C16.7742 12.9539 17.0788 12.9477 17.3837 12.9459C17.3837 13.0717 17.3893 13.1975 17.3913 13.3234C17.7087 13.3715 18.0204 13.453 18.3212 13.5665C18.3984 13.4683 18.4755 13.3693 18.5533 13.2718C18.8099 13.4315 19.0515 13.6146 19.2754 13.8189C19.179 13.9132 19.0822 14.0048 18.9849 14.0939C19.2798 14.3641 19.4916 14.7151 19.5951 15.1048C19.7262 15.0902 19.858 15.0775 19.9905 15.0666C20.0093 15.3642 20.0128 15.6626 20.0093 15.9609L19.6806 15.9955C19.6539 16.3535 19.5681 16.7043 19.4269 17.0333C19.5173 17.104 19.6076 17.1704 19.6973 17.2404C19.4825 17.461 19.2803 17.6964 19.0607 17.9092L18.8473 17.6914C18.5702 17.9646 18.2313 18.1644 17.8605 18.2732L17.93 18.5468C17.629 18.6479 17.3093 18.6366 16.9994 18.5935C16.9994 18.539 17.0029 18.4309 17.0043 18.3764C16.6237 18.3118 16.2588 18.1738 15.9291 17.97C15.8749 18.0541 15.8207 18.1389 15.7658 18.223C15.5356 18.0645 15.321 17.8836 15.1251 17.6829C15.189 17.5946 15.2515 17.5048 15.3155 17.4164C15.0715 17.1563 14.9395 16.8226 14.822 16.4904C14.7115 16.4197 14.5538 16.472 14.4273 16.4529C14.4245 16.1701 14.4245 15.8874 14.4273 15.6046C14.5441 15.6004 14.6608 15.5982 14.7748 15.5954C14.7982 15.2654 14.8931 14.9448 15.0528 14.6566C14.9569 14.5555 14.8637 14.4516 14.7685 14.3512C14.94 14.1173 15.1324 13.9 15.3433 13.7023C15.4566 13.7567 15.5719 13.8083 15.6866 13.862C15.9229 13.633 16.2238 13.498 16.5206 13.3637C16.4969 13.2308 16.4802 13.0971 16.4657 12.9642M17.2114 14.0953C17.1905 14.2091 17.1683 14.3229 17.146 14.4368C17.0279 14.3696 16.9083 14.306 16.7881 14.2438C16.8126 14.3311 16.8539 14.4127 16.9096 14.4837C16.9653 14.5547 17.0343 14.6137 17.1127 14.6573C17.1127 14.8461 17.1071 15.0348 17.0953 15.2229C16.8625 15.1352 16.6783 14.9592 16.4698 14.8291C16.474 15.1932 16.7707 15.425 17.055 15.5855C17.055 15.746 17.055 15.9072 17.055 16.0676C16.7534 15.9835 16.499 15.7955 16.2516 15.6088C16.2731 15.8209 16.2912 16.0528 16.4267 16.2281C16.5657 16.4267 16.7846 16.542 16.9952 16.6473C17.0001 16.8028 17.0015 16.9598 16.9994 17.116C16.5755 17.0071 16.2669 16.6763 15.9521 16.3914C16.0216 16.8156 16.221 17.234 16.5706 17.4892C16.8486 17.6851 17.2232 17.7862 17.5498 17.6511C18.0856 17.4801 18.4039 16.9287 18.4887 16.3907C18.1746 16.6735 17.8632 17.0008 17.4463 17.1174C17.4407 16.9605 17.4407 16.8035 17.4463 16.6473C17.6547 16.5406 17.8799 16.4275 18.0196 16.2267C18.1523 16.0492 18.1739 15.8188 18.1982 15.6053C17.9473 15.7926 17.6902 15.9828 17.3858 16.0683C17.3858 15.9065 17.3941 15.7446 17.3983 15.5834C17.6798 15.4208 17.973 15.191 17.9807 14.8298C17.7687 14.9563 17.588 15.1352 17.3552 15.2222C17.3427 15.0334 17.3371 14.8439 17.342 14.6566C17.4207 14.6128 17.4899 14.5533 17.5455 14.4816C17.601 14.41 17.6417 14.3276 17.6652 14.2395C17.5442 14.3046 17.4233 14.3689 17.3038 14.4375C17.2829 14.3244 17.2635 14.2113 17.2454 14.0981H17.21M26.5434 29.4786C26.5434 29.3783 26.6511 29.3309 26.7039 29.2595L26.8881 29.4504C26.8304 29.5161 26.7721 29.5804 26.7158 29.6476C26.6567 29.5925 26.5962 29.5387 26.5434 29.4786ZM23.5835 29.3252C23.6676 29.3797 23.7517 29.4369 23.8351 29.4942L23.9797 29.2913C24.0408 29.3733 24.1694 29.4277 24.177 29.5409C24.1152 29.6113 24.0498 29.6783 23.9811 29.7416L23.8372 29.5331L23.6023 29.7141C23.5328 29.6476 23.4703 29.5804 23.4049 29.514L23.5863 29.3224M25.9576 29.6815C26.0312 29.6108 26.1056 29.5401 26.182 29.4695C26.2055 29.8531 26.2079 30.2378 26.189 30.6217C26.3975 30.7285 26.6351 30.7193 26.8617 30.6847C26.7875 30.5853 26.7072 30.4909 26.6212 30.4019C26.6845 30.2768 26.7533 30.1552 26.8228 30.0343C26.9917 30.2761 27.089 30.6083 26.9472 30.8868C26.9088 30.9811 26.8422 31.0607 26.7569 31.1144C26.6716 31.168 26.5719 31.193 26.4718 31.1859C26.2765 31.2254 26.1904 31.0169 26.0945 30.889C25.952 31.253 25.535 31.1823 25.2264 31.1844C25.0117 31.1788 24.6948 31.2262 24.6149 30.9568C24.5857 30.7447 24.5259 30.462 24.7059 30.3065C24.7476 30.4358 24.7143 30.6444 24.8817 30.6889C25.2292 30.732 25.5809 30.708 25.9298 30.6924C25.9728 30.3588 26.0236 30.0187 25.9576 29.6851M25.0986 29.9735C25.1118 29.7614 25.3328 29.6702 25.4989 29.5988C25.5017 29.654 25.4916 29.7091 25.4694 29.7595C25.4471 29.8099 25.4134 29.8542 25.371 29.8887C25.4224 29.9594 25.5593 30.0032 25.5246 30.1149C25.5308 30.3008 25.3411 30.3828 25.1924 30.4132C25.2264 30.3227 25.2619 30.2336 25.2994 30.1446C25.2273 30.0942 25.16 30.0369 25.0986 29.9735ZM11.3152 29.6985C11.5606 29.7056 11.8156 29.6617 12.0547 29.731C12.3514 29.8774 12.3445 30.2966 12.1617 30.5348C12.2937 30.7702 12.2458 31.0459 12.291 31.3025C12.1951 31.3025 12.0998 31.3025 12.0046 31.3025C11.9685 31.1046 11.9977 30.8939 11.9233 30.7052C11.8121 30.6875 11.6995 30.6868 11.5877 30.6804C11.5877 30.8854 11.5877 31.0911 11.5835 31.2969C11.4945 31.2969 11.4056 31.2968 11.3173 31.3025C11.3118 30.7674 11.3173 30.2329 11.3173 29.6978M11.587 30.0081C11.587 30.1368 11.587 30.2669 11.587 30.3962C11.7496 30.3842 12.0422 30.4351 12.022 30.1799C12.0005 29.9487 11.7399 30.03 11.5842 30.0081M12.8977 29.7338C12.9869 29.7215 13.0766 29.7137 13.1666 29.7105C13.3056 30.2294 13.421 30.7546 13.553 31.2756H13.275C13.25 31.1696 13.2264 31.0636 13.2014 30.9604H12.8539C12.8303 31.0643 12.8059 31.1689 12.7844 31.2735L12.5175 31.2855C12.6371 30.7674 12.7545 30.2478 12.8963 29.736M13.0235 30.1778C12.9887 30.346 12.954 30.515 12.9171 30.6825L13.1416 30.6741C13.1034 30.5079 13.0659 30.3425 13.0235 30.1792M13.56 29.7239C13.8665 29.719 14.1722 29.7155 14.4787 29.7289C14.4725 29.8286 14.4662 29.9282 14.4593 30.0286C14.3543 30.0286 14.2508 30.0286 14.1445 30.0251C14.1445 30.4492 14.1577 30.8699 14.1347 31.2919L13.8838 31.2749C13.8838 30.8593 13.8776 30.4443 13.8887 30.0286L13.5614 30.0223C13.5614 29.9226 13.5614 29.8229 13.5614 29.7239M18.2788 29.7034C18.3629 29.7077 18.447 29.7098 18.5318 29.7112C18.5318 29.8971 18.5318 30.0831 18.5387 30.269C18.6666 30.0838 18.7848 29.8915 18.9064 29.7034L19.2094 29.7105C19.078 29.9417 18.9231 30.1587 18.7862 30.387C18.9418 30.6903 19.0885 30.9985 19.2386 31.306H18.9182C18.8028 31.0841 18.734 30.8296 18.5561 30.6479C18.5347 30.8649 18.5268 31.0831 18.5325 31.3011C18.447 31.3011 18.3622 31.3046 18.2774 31.3089C18.2733 30.773 18.2719 30.2379 18.2774 29.702M21.8267 29.9141C21.9121 29.8328 21.9983 29.7536 22.0873 29.6766C22.1185 30.0039 22.0873 30.3347 22.1297 30.6606C22.3944 30.7652 22.7225 30.7193 22.9984 30.6486C22.8406 30.5023 22.6418 30.5256 22.4862 30.667C22.5154 30.4832 22.5084 30.2259 22.7169 30.1488C22.9703 30.1965 23.2205 30.2602 23.4661 30.3397C23.4404 30.4471 23.4147 30.5518 23.3896 30.6613C23.3611 30.6776 23.3035 30.7087 23.2743 30.7242C23.4668 30.7122 23.66 30.708 23.8518 30.6854C23.7767 30.5864 23.6968 30.4924 23.6148 30.4026C23.6739 30.2838 23.735 30.1672 23.7976 30.0491C24.0519 30.3086 24.0867 30.7659 23.8393 31.0424C23.5919 31.3188 23.063 31.1979 23.0408 30.8013C22.8913 30.9582 22.7523 31.1894 22.5091 31.1816C22.3069 31.1816 22.0226 31.2304 21.9177 31.0014C21.8253 30.6479 21.8482 30.2768 21.8267 29.9148M27.1668 29.9085C27.2523 29.8279 27.3378 29.7487 27.4274 29.673C27.4573 29.9876 27.4149 30.3057 27.4622 30.6182C27.4816 30.7483 27.6317 30.6967 27.7214 30.7122C27.8473 30.711 27.973 30.7028 28.0981 30.6875C28.0236 30.588 27.9428 30.4935 27.8562 30.4047C27.9215 30.2803 27.991 30.1582 28.0647 30.0385C28.31 30.3609 28.3476 30.9144 27.9611 31.1399C27.7325 31.2163 27.3482 31.2551 27.2453 30.9695C27.1598 30.6246 27.2015 30.2626 27.1675 29.9092M6.94387 29.7798C7.24131 29.7798 7.53876 29.7798 7.83621 29.7798L7.85497 30.088L7.52139 30.0993C7.52417 30.5112 7.52417 30.9238 7.52139 31.3371H7.25452C7.24826 30.9229 7.25452 30.5086 7.25035 30.0944L6.95082 30.1022C6.95082 29.9954 6.94665 29.8901 6.94387 29.7819M8.0864 29.7862C8.37272 29.7784 8.65905 29.7791 8.94538 29.7826L8.95789 30.0894C8.75635 30.0993 8.55411 30.1 8.35257 30.0972C8.35257 30.1905 8.35257 30.2838 8.35257 30.38C8.53465 30.38 8.71673 30.38 8.89882 30.38C8.89882 30.4507 8.89882 30.6005 8.89882 30.6733C8.72021 30.6733 8.54021 30.6691 8.36161 30.6847C8.35327 30.7971 8.35327 30.9109 8.35188 31.0247C8.56037 31.0247 8.76886 31.0247 8.97735 31.0247C8.97735 31.1265 8.97735 31.229 8.97735 31.3322C8.67921 31.3322 8.38176 31.34 8.08431 31.3216C8.08987 30.8084 8.08431 30.2958 8.08779 29.7833M9.57572 31.0212C9.64869 30.597 9.57572 30.1637 9.61603 29.7367L9.88428 29.7501C9.87664 30.1806 9.91625 30.6154 9.86413 31.0445C9.82521 31.3272 9.43881 31.4354 9.23866 31.2488C9.09966 31.101 9.11426 30.8819 9.09271 30.6946L9.35819 30.6882C9.36375 30.8147 9.36723 31.1477 9.57294 31.0212M10.4764 29.7777H10.7433C10.8788 30.2937 11.0039 30.8133 11.122 31.3329C11.0324 31.3329 10.9427 31.3294 10.8538 31.3294C10.8294 31.2297 10.8044 31.13 10.7794 31.031H10.4319C10.4076 31.1307 10.3833 31.2304 10.3583 31.3301H10.0942C10.2234 30.8105 10.3423 30.2881 10.4785 29.7748M10.6036 30.2527C10.5674 30.4068 10.5341 30.5631 10.5007 30.7186L10.7092 30.7278C10.6842 30.5674 10.6496 30.4088 10.6057 30.2527M14.9499 29.7579C15.1737 29.7579 15.403 29.7268 15.6227 29.7847C15.8798 29.9191 15.8374 30.2541 15.7519 30.4846C15.886 30.7412 15.9152 31.1484 15.6178 31.299C15.3968 31.3357 15.1709 31.3131 14.9485 31.3131C14.9485 30.7942 14.9485 30.2761 14.9485 29.7579M15.2064 30.3439C15.3299 30.3601 15.4551 30.3582 15.5782 30.3383C15.5483 30.2534 15.5969 30.1135 15.4983 30.0703C15.4026 30.0548 15.3055 30.052 15.2091 30.0619C15.2004 30.1559 15.2004 30.2506 15.2091 30.3446M15.2091 30.6606C15.2091 30.7836 15.2091 30.9073 15.2091 31.031C15.3273 31.0204 15.4517 31.0381 15.5636 30.9893C15.6206 30.8904 15.5962 30.7773 15.5789 30.6726C15.4552 30.6677 15.3315 30.6642 15.2078 30.6606M16.3517 29.7614L16.6429 29.7741C16.7492 30.2909 16.8903 30.7985 17.0036 31.3131H16.7297C16.7082 31.2127 16.686 31.1116 16.6644 31.0127H16.3128C16.2877 31.1123 16.2634 31.2113 16.2433 31.3117C16.1543 31.3117 16.066 31.3117 15.9778 31.3117C16.1008 30.7942 16.2287 30.2782 16.3551 29.7614M16.5004 30.2315C16.4559 30.3856 16.4177 30.5411 16.3781 30.6974C16.4524 30.7016 16.5268 30.7094 16.6005 30.72C16.5657 30.5574 16.5351 30.3941 16.5004 30.2315ZM17.1148 29.7734C17.2051 29.7685 17.2954 29.7621 17.3858 29.7551C17.5248 30.064 17.6422 30.38 17.7687 30.6938C17.8062 30.3835 17.7875 30.0703 17.7944 29.7593C17.8757 29.7649 17.9578 29.7699 18.0398 29.7741C18.0342 30.2831 18.0398 30.7928 18.0398 31.3025C17.9584 31.3025 17.8771 31.3025 17.7965 31.2983C17.6249 30.9893 17.529 30.6444 17.3754 30.3262C17.3636 30.6528 17.3754 30.9801 17.3649 31.3067C17.2829 31.3011 17.2009 31.2976 17.1189 31.2961C17.1189 30.7886 17.1189 30.281 17.1189 29.7734M19.8064 29.9777C19.8759 29.9106 19.9454 29.8441 20.0114 29.7784C20.0746 29.8363 20.1379 29.8936 20.2018 29.953C20.2671 29.8957 20.3332 29.8406 20.3999 29.7854C20.4499 29.8604 20.5632 29.9141 20.5604 30.0145C20.5027 30.0795 20.4395 30.1389 20.3769 30.199C20.3181 30.1325 20.259 30.0668 20.1997 30.0018C20.1358 30.0647 20.0725 30.129 20.0093 30.1926C19.9398 30.1219 19.8703 30.0513 19.8064 29.9806M20.7425 30.1983C21.0726 30.3927 20.9593 30.9561 20.623 31.0933C20.3102 31.2233 19.9468 31.2028 19.6208 31.142C19.3199 30.9801 19.3797 30.5609 19.47 30.286C19.6229 30.3736 19.5305 30.6338 19.7285 30.6698C20.0649 30.7454 20.4117 30.6832 20.7522 30.6741C20.6945 30.6076 20.6389 30.5404 20.584 30.4726C20.6348 30.3793 20.6841 30.2859 20.7425 30.1983ZM21.4375 30.4104C21.541 30.4104 21.5514 30.5355 21.5897 30.6097C21.6932 30.9257 21.7446 31.3124 21.5514 31.6037C21.3916 31.803 21.1115 31.7019 20.9148 31.6284C21.1233 31.4418 21.3457 31.2749 21.5223 31.0537C21.4368 30.9526 21.3548 30.8494 21.2672 30.7511C21.3221 30.6359 21.3721 30.5192 21.4375 30.4104ZM22.7176 31.6234L22.9317 31.4163C23.0011 31.487 23.0748 31.5627 23.1464 31.6369L22.931 31.8433L22.7176 31.6234ZM27.7415 31.4651L27.95 31.651C27.8805 31.7175 27.811 31.7839 27.7415 31.8518C27.688 31.7903 27.6359 31.7281 27.5873 31.6644C27.6355 31.5949 27.6877 31.5284 27.7436 31.4651M12.5571 36.4135C13.1131 36.4135 13.6767 36.4135 14.2369 36.4135C14.2327 37.5672 14.2369 38.7209 14.2369 39.8775C14.2369 40.1037 14.255 40.3659 14.4454 40.5137C14.5573 40.6353 14.7234 40.6402 14.8776 40.6374C15.9639 40.6339 17.0501 40.6374 18.1371 40.6374C18.2442 40.6401 18.3494 40.6083 18.4377 40.5466C18.5261 40.4849 18.593 40.3965 18.6291 40.2938C18.677 40.1454 18.6652 39.987 18.6722 39.8343C17.5602 39.8343 16.4448 39.8343 15.3308 39.8343C15.3308 39.2594 15.3308 38.6849 15.3308 38.1109C16.8256 38.1109 18.3191 38.0918 19.8161 38.1165C19.8161 38.7733 19.8161 39.4307 19.8161 40.0874C19.8128 40.1608 19.8247 40.2341 19.8508 40.3026C19.877 40.3711 19.9169 40.4333 19.9681 40.4852C20.0192 40.5371 20.0805 40.5776 20.1479 40.6041C20.2153 40.6305 20.2874 40.6423 20.3596 40.6388C21.5639 40.6388 22.7683 40.6388 23.9734 40.6388C24.0707 40.6508 24.2076 40.6006 24.2632 40.7145C24.2764 41.2673 24.2632 41.8208 24.2674 42.3736C23.2687 42.3786 22.27 42.3736 21.2714 42.3736C20.5542 42.3637 19.9197 41.7847 19.7932 41.0729C19.6709 41.7996 19.0051 42.3849 18.276 42.3757C16.8639 42.3757 15.4517 42.3757 14.0367 42.3757C13.2549 42.3672 12.5495 41.6632 12.5537 40.8622C12.5537 39.3814 12.5537 37.9 12.5537 36.4178M5.2815 36.9826C5.70613 36.6249 6.41847 36.7324 6.71453 37.2095C6.83509 37.3836 6.89695 37.5928 6.89081 37.8056C6.88467 38.0184 6.81087 38.2235 6.68047 38.3901C6.52599 38.594 6.30101 38.7304 6.05124 38.7716C5.80147 38.8128 5.54564 38.7558 5.33571 38.6121C5.12722 38.4771 5.00977 38.2417 4.91386 38.0161C4.8117 38.3781 4.54414 38.7026 4.17094 38.7853C3.65457 38.9337 3.08331 38.5732 2.96308 38.0437C2.80254 37.4513 3.29249 36.8052 3.89086 36.7939C4.369 36.7642 4.80475 37.1353 4.90761 37.6026C4.9771 37.3679 5.07926 37.129 5.2815 36.9826ZM22.6773 37.6082C22.7781 37.1643 23.1638 36.772 23.6266 36.779C24.1597 36.731 24.6628 37.2138 24.6587 37.7546C24.6927 38.3201 24.177 38.8277 23.6259 38.7853C23.1665 38.7853 22.7822 38.4085 22.6849 37.9652C22.5932 38.6015 21.851 39.0009 21.2839 38.7139C20.7397 38.4735 20.5361 37.7058 20.8884 37.2209C20.9999 37.0576 21.1562 36.9315 21.3379 36.8584C21.5195 36.7852 21.7184 36.7683 21.9095 36.8097C22.1005 36.851 22.2754 36.9489 22.412 37.091C22.5486 37.2331 22.6409 37.413 22.6773 37.6082ZM25.0576 39.2214C25.6198 39.2214 26.182 39.2214 26.745 39.2214C26.7853 40.4741 26.745 41.7289 26.7658 42.9816C26.7796 43.116 26.842 43.2404 26.9409 43.3307C27.0397 43.4209 27.1681 43.4706 27.3009 43.47C28.1405 43.47 28.98 43.47 29.8195 43.47C29.8195 44.0469 29.8195 44.6235 29.8195 45.1999C29.005 45.1999 28.1905 45.2034 27.3767 45.1999C26.672 45.1808 26.0264 44.611 25.9172 43.8999C25.8012 44.3353 25.56 44.7482 25.1653 44.98C24.8699 45.1652 24.5162 45.2197 24.175 45.2034C21.9684 45.1985 19.7626 45.2034 17.5568 45.1999C17.5568 44.6235 17.5568 44.0469 17.5568 43.47C19.88 43.47 22.2033 43.47 24.5266 43.47C24.8115 43.4757 25.0749 43.2078 25.0485 42.9144C25.0527 41.6837 25.0423 40.4529 25.0534 39.2229M30.6229 39.2229C31.1909 39.22 31.7589 39.22 32.327 39.2229C32.3339 40.4529 32.327 41.6822 32.327 42.9123C32.3233 42.9849 32.3344 43.0575 32.3595 43.1255C32.3847 43.1936 32.4233 43.2556 32.4731 43.3078C32.5228 43.36 32.5826 43.4012 32.6487 43.4289C32.7148 43.4566 32.7858 43.4701 32.8572 43.4686C33.6912 43.475 34.5251 43.4686 35.3591 43.4686V45.1992C34.3403 45.2041 33.3215 45.1992 32.3012 45.2034C31.4263 45.2882 30.5826 44.5177 30.6152 43.6157C30.6152 42.1509 30.6152 40.6862 30.6152 39.2214M0.0080666 39.7955C3.08053 39.8138 6.15299 39.7898 9.22545 39.8061C9.22545 40.3777 9.22545 40.9496 9.22545 41.5218C6.65916 41.5265 4.09264 41.5265 1.52588 41.5218C0.655778 41.5218 -0.0885342 40.6692 0.00737163 39.794M10.0407 39.794C10.605 39.8145 11.1693 39.799 11.7343 39.8089C11.744 40.9152 11.7343 42.0216 11.7301 43.1314C11.7301 43.9168 11.0428 44.616 10.2707 44.6336C9.54444 44.6428 8.8182 44.6336 8.09196 44.6336C8.09196 44.0554 8.08709 43.4771 8.09682 42.8996C8.57079 42.896 9.04546 42.9087 9.52012 42.896C9.58971 42.8953 9.65845 42.8804 9.7223 42.8523C9.78614 42.8241 9.84379 42.7832 9.89186 42.732C9.93992 42.6808 9.97741 42.6204 10.0021 42.5542C10.0269 42.488 10.0383 42.4175 10.0358 42.3467C10.04 41.4984 10.0302 40.6452 10.04 39.7948M28.3754 40.0457C28.9063 39.7969 29.579 40.1546 29.718 40.7222C29.905 41.3245 29.3831 42.0011 28.7687 41.9883C28.5382 41.991 28.3139 41.912 28.1343 41.7649C27.9547 41.6178 27.8311 41.4117 27.7846 41.182C27.7381 40.9523 27.7716 40.7133 27.8794 40.506C27.9872 40.2986 28.1625 40.1359 28.3754 40.0457ZM14.8978 43.3789C15.4072 43.1279 16.0792 43.4213 16.2446 43.9734C16.4754 44.5721 15.9875 45.3102 15.3523 45.3031C14.8193 45.3533 14.305 44.8669 14.321 44.3226C14.2883 43.9218 14.5496 43.545 14.8978 43.3789ZM32.6313 47.1517C32.532 46.6074 32.9559 46.0475 33.4924 45.9881C34.0157 45.9068 34.5453 46.3288 34.5995 46.8626C34.6794 47.3864 34.2923 47.8862 33.7961 47.9986H33.5077C33.292 47.9701 33.0908 47.8726 32.9333 47.7201C32.7757 47.5676 32.67 47.368 32.6313 47.1503V47.1517Z"
            fill="black" />
    </g>
    <defs>
        <clipPath id="clip0_485_3486">
            <rect width="35.3684" height="48" fill="white" />
        </clipPath>
    </defs>
</svg>
    