<svg width="24" height="32" viewBox="0 0 24 32" fill="none" xmlns="http://www.w3.org/2000/svg">
    <g clip-path="url(#clip0_504_8437)">
        <path
            d="M11.1906 0H11.4051C11.4731 2.11794 11.5438 4.23588 11.6173 6.35382C11.7387 6.37361 11.7925 6.203 11.8726 6.1309C11.9607 5.9848 12.1636 5.89526 12.158 5.70675C12.158 3.80497 12.158 1.90413 12.158 0.00424153H12.354C12.6538 0.0424153 12.9563 0.0593814 13.2552 0.0984978C13.1926 1.54533 13.1162 2.99169 13.0522 4.43853C13.0184 4.85278 13.0323 5.27081 12.9799 5.68365C13.1978 5.57662 13.4433 5.54231 13.6814 5.58563C13.8624 3.81047 14.0406 2.03531 14.2161 0.260147C14.5473 0.349219 14.8744 0.452901 15.2052 0.545272C14.9412 2.40495 14.6581 4.26227 14.388 6.121C14.6066 6.0965 14.83 6.0701 15.0463 6.13043C15.3827 4.37962 15.7195 2.62881 16.0656 0.880354C16.3992 1.05473 16.73 1.23523 17.0603 1.4162C16.6758 3.00348 16.2897 4.59012 15.9021 6.17614C15.8655 6.33449 15.8126 6.48954 15.7978 6.65214L15.8349 6.71199C15.9901 6.78928 16.1592 6.83499 16.3079 6.92925C16.8092 5.23122 17.3008 3.53461 17.8095 1.84083C18.0875 2.05007 18.3576 2.26498 18.6365 2.47234C17.8026 4.97437 16.9454 7.46792 16.1068 9.96572C16.0763 10.0821 16.1161 10.2014 16.1258 10.3182C16.1634 10.5322 16.1624 10.7518 16.2037 10.9653L16.2574 11.0082C16.3607 10.8197 16.4247 10.6166 16.5048 10.4196C17.4602 7.99466 18.4155 5.56897 19.3709 3.1425C19.6178 3.39841 19.8537 3.66563 20.1011 3.92106C19.0109 6.33826 17.9059 8.74934 16.8115 11.1637C16.9126 11.2971 17.0543 11.4663 16.9695 11.6449C16.8347 11.864 16.5702 11.9724 16.4599 12.2104C16.3992 12.3829 16.4567 12.5667 16.5062 12.735C16.5498 12.6657 16.5929 12.5959 16.6318 12.5238C17.9658 9.89974 19.3006 7.27501 20.6362 4.64966C20.8401 4.96306 21.0119 5.29673 21.2102 5.6139C19.7585 8.16291 18.3026 10.7092 16.8426 13.2529C16.9237 13.3184 16.9927 13.4131 17.097 13.4414C17.1678 13.4574 17.2068 13.3886 17.2424 13.3406C18.7 11.0605 20.1605 8.78264 21.624 6.50698C21.7398 6.83169 21.8825 7.15217 21.9599 7.48819C21.8482 7.68283 21.7032 7.85532 21.5786 8.04147C20.2813 9.87853 18.9831 11.7165 17.684 13.5555C17.551 13.744 17.3596 13.9358 17.4245 14.1908C17.4333 14.335 17.6163 14.301 17.6687 14.2035C19.1865 12.2538 20.6835 10.2862 22.2092 8.34404C22.2754 8.72389 22.3481 9.10374 22.4135 9.48359C20.5692 11.6348 18.7235 13.7862 16.8764 15.9378C16.8301 16.0075 16.7277 16.1093 16.8241 16.1847C16.8936 16.1965 16.9719 16.197 17.0187 16.1329C18.8222 14.2534 20.6254 12.373 22.4283 10.4917C22.4283 10.7801 22.4283 11.068 22.4283 11.3565C22.42 11.421 22.4417 11.503 22.388 11.552C20.6808 13.1927 18.9726 14.8328 17.2633 16.4722C17.1243 16.6928 16.8926 16.8163 16.7254 17.0081C16.0767 17.6515 15.4323 18.2981 14.792 18.9479C14.861 18.9479 14.931 18.9446 15.0009 18.9441C16.8233 17.305 18.6489 15.6701 20.4777 14.0395C21.0893 13.5008 21.6824 12.9409 22.3074 12.4164C22.2499 12.7533 22.1864 13.0898 22.1244 13.4263C22.1003 13.5762 21.946 13.6412 21.8464 13.7346C19.6938 15.4759 17.5288 17.2018 15.3822 18.953C15.4652 18.9389 15.5606 18.9611 15.6366 18.9153C17.6951 17.4157 19.7364 15.8893 21.8014 14.3991C21.7139 14.6498 21.6078 14.8934 21.5151 15.1427C21.4688 15.2483 21.44 15.3741 21.3349 15.4368C20.2866 16.1422 19.2364 16.8463 18.1843 17.5491C17.4949 18.0204 16.7907 18.4681 16.1092 18.9507C16.1906 18.943 16.2695 18.918 16.3408 18.8772C17.1919 18.3588 18.0551 17.8592 18.9067 17.3446C19.6081 16.9402 20.291 16.5014 21.0004 16.1112C20.6496 16.7809 20.1817 17.3837 19.6679 17.9299C19.5131 18.1024 19.3195 18.2362 19.1763 18.4196C19.269 18.5935 19.4501 18.6915 19.5544 18.8517C19.5729 19.7943 19.5567 20.7369 19.5622 21.6794C14.4917 21.6794 9.42108 21.6794 4.35027 21.6794C4.35027 20.784 4.34518 19.8914 4.35027 18.9969C4.47259 18.8828 4.59259 18.7655 4.71305 18.6491C4.17147 18.1421 3.66871 17.5938 3.20913 17.009C3.0356 16.7889 2.88062 16.5543 2.74582 16.3077C4.39475 17.1631 6.03534 18.0411 7.67825 18.9045C7.73829 18.9281 7.80032 18.9461 7.86358 18.9582C7.65926 18.7994 7.42945 18.6792 7.21494 18.5393C5.62948 17.5599 4.04433 16.58 2.45949 15.5994C2.38837 15.5627 2.33143 15.5028 2.2978 15.4293C2.17548 15.1564 2.05595 14.8817 1.94151 14.605C2.81856 15.1753 3.67708 15.77 4.54811 16.3459C5.8023 17.1942 7.06297 18.0303 8.31577 18.8791C8.38832 18.9247 8.47068 18.9517 8.55577 18.9578C8.36535 18.7876 8.15269 18.6467 7.95068 18.4917L1.64452 13.7958C1.54491 13.4042 1.43835 13.013 1.37534 12.6129C3.88711 14.7035 6.39441 16.7999 8.89723 18.9022C8.97043 18.9625 9.07283 18.9389 9.15946 18.954C7.45262 17.3455 5.73095 15.754 4.01669 14.1521C3.09701 13.2986 2.18521 12.4338 1.25858 11.5883C1.25858 11.2646 1.25256 10.9408 1.26368 10.6175C1.66259 10.9889 2.02815 11.3951 2.41733 11.7769C4.76448 14.1681 7.1127 16.5586 9.46201 18.9483L9.59174 18.9427C7.31872 16.4191 5.04586 13.8956 2.77315 11.372C2.29085 10.8277 1.79232 10.297 1.31789 9.74657C1.35681 9.34928 1.43835 8.95482 1.51063 8.56224C4.28371 12.0233 7.0568 15.4844 9.82988 18.9455H9.98833C7.22266 15.1916 4.45359 11.4397 1.68113 7.6899C1.80807 7.36 1.92946 7.0301 2.05409 6.70021C2.98813 8.07258 3.89345 9.46569 4.81637 10.8475C6.60939 13.5495 8.40241 16.2504 10.1954 18.9502L10.3344 18.9469C7.69292 14.5788 5.05096 10.2111 2.40853 5.84389C2.61099 5.49985 2.81254 5.15488 3.01686 4.81178C4.49112 7.54867 5.96168 10.2878 7.42853 13.029C7.52674 12.9439 7.63782 12.8755 7.75748 12.8264C7.37895 12.0804 7.02683 11.3183 6.65665 10.5694C6.5209 10.5162 6.37403 10.4676 6.2758 10.3517C6.17017 10.2428 6.14283 10.0878 6.11179 9.94498C6.07565 9.76495 5.92646 9.64053 5.86948 9.46946C5.8477 9.24183 5.96214 8.98969 5.81851 8.78421C5.04571 7.23228 4.29699 5.66763 3.53716 4.1091C3.77345 3.83293 3.99306 3.54356 4.23769 3.27305C4.4366 3.74276 4.63475 4.21247 4.83212 4.68218C4.89513 4.55211 4.95536 4.39281 5.10038 4.33814C5.20092 4.32071 5.33203 4.31081 5.4006 4.40507C5.56879 4.61196 5.71102 4.83912 5.87689 5.04789C5.5623 4.22834 5.25466 3.40642 4.94146 2.58686C5.21945 2.36489 5.49419 2.13773 5.77542 1.91906C6.11411 2.9243 6.45603 3.92813 6.78776 4.93526C6.83004 4.82309 6.88279 4.7153 6.94529 4.61337C7.03054 4.49979 7.17463 4.46539 7.29834 4.41355C7.03471 3.42386 6.77386 2.43417 6.50839 1.44825C6.85309 1.2668 7.19687 1.08253 7.54667 0.910516C7.77925 2.0972 8.00952 3.28436 8.23747 4.47199C8.26898 4.69962 8.50897 4.84901 8.48766 5.09078C8.48766 5.21143 8.37322 5.27929 8.30002 5.35705L8.15083 5.29532C8.18373 5.60024 8.18419 5.90798 8.21523 6.21196C8.29307 6.4033 8.53399 6.41885 8.70912 6.4476C8.96393 6.47177 9.20434 6.57867 9.39483 6.75252C9.52363 6.8562 9.62648 6.99806 9.78262 7.06498C9.87528 7.04 9.9647 6.99429 10.0606 6.97402C10.1769 6.9957 10.2765 7.06592 10.3812 7.1154C10.6129 7.05461 10.8283 6.94622 11.0475 6.84913C11.1837 6.77514 11.224 6.97025 11.287 7.0499C11.3264 6.999 11.3908 6.95329 11.375 6.87882C11.3672 6.57532 11.256 6.28407 11.2675 5.97868C11.2606 5.69544 11.2996 5.41297 11.3829 5.14262C11.2689 5.18504 11.1267 5.3646 11.0095 5.25007C10.837 5.03549 10.744 4.76613 10.7468 4.48895C10.662 4.47764 10.5772 4.46633 10.4924 4.45597C10.7176 4.10769 10.5851 3.68165 10.5513 3.29991C10.4757 2.22445 10.4072 1.14851 10.3321 0.0735199C10.6175 0.0556112 10.9048 0.0315759 11.1906 0ZM5.06563 4.75287C5.0091 5.09691 5.10547 5.43859 5.16385 5.77555C5.20138 6.03004 5.37837 6.22987 5.44833 6.47399C5.55674 6.7332 5.53265 7.03482 5.68647 7.27517C5.80925 7.48866 5.9867 7.65926 6.14608 7.84071C6.24244 7.94957 6.24661 8.10698 6.24569 8.24554C6.24569 8.61926 6.08492 8.96424 6.03488 9.32949C5.99133 9.5934 6.30638 9.70321 6.31565 9.95016C6.33279 10.0397 6.34854 10.1387 6.42499 10.1995C6.57279 10.3272 6.77989 10.3159 6.95409 10.3809C7.20104 10.4657 7.46142 10.6076 7.57215 10.8607C7.59995 11.0379 7.55733 11.2207 7.59393 11.3965C7.64999 11.5092 7.72551 11.6124 7.76397 11.7344C7.833 11.9456 7.80149 12.1723 7.84736 12.3876C7.87192 12.4748 7.91454 12.5865 8.01832 12.5955C8.22172 12.5304 8.24766 12.2118 8.48164 12.2052C8.6248 12.1864 8.60164 12.3966 8.71932 12.4315C8.89955 12.4809 9.1173 12.4395 9.25954 12.587C9.3522 12.6666 9.37444 12.7948 9.40595 12.9084C9.52634 13.3736 9.76304 13.7991 10.093 14.1436C10.1968 14.261 10.359 14.2808 10.4901 14.3543C10.6625 14.4344 10.7857 14.605 10.9817 14.6371C11.3922 14.7464 11.6887 15.1913 12.1446 15.1295C12.5291 15.0136 12.8308 14.6634 13.2505 14.6583C13.3426 14.6533 13.4345 14.6711 13.5183 14.7102C13.6022 14.7493 13.6754 14.8084 13.7319 14.8826C13.9316 15.1069 13.99 15.4222 14.185 15.6484C14.2504 15.7328 14.3574 15.7427 14.4556 15.7399C14.9388 15.7342 15.4151 15.8303 15.8896 15.9147C16.1212 15.95 16.3246 16.0731 16.553 16.1183C16.6744 15.7059 16.6619 15.2328 16.9524 14.8897C17.1187 14.6649 17.3986 14.5862 17.6627 14.5715C17.5301 14.5155 17.3634 14.5093 17.2693 14.3877C17.1609 14.1667 17.3156 13.8472 17.1016 13.6747C16.9014 13.5361 16.6846 13.415 16.5266 13.2237C16.2366 12.9174 16.156 12.455 16.2486 12.0521C16.3746 11.8471 16.6378 11.7872 16.7722 11.5893C16.8217 11.5092 16.8115 11.3697 16.7129 11.3343C16.4974 11.2457 16.2204 11.3419 16.0392 11.168C15.8622 10.9413 15.9734 10.634 15.909 10.3738C15.8627 10.1853 15.8882 9.99305 15.8942 9.80265C15.8863 9.57078 15.5861 9.4803 15.6092 9.23711C15.6092 8.78657 16.067 8.53019 16.1513 8.10604C16.1546 7.98068 16.1013 7.86191 16.0939 7.73703C16.0684 7.56029 16.118 7.38734 16.1615 7.21862C16.1981 7.1286 16.124 7.04377 16.0471 7.01125C15.8733 6.92454 15.6806 6.85384 15.5699 6.68136C15.4994 6.67759 15.4267 6.69031 15.3586 6.67004C15.2233 6.56919 15.1154 6.42969 14.9625 6.35334C14.7544 6.33025 14.5413 6.41367 14.3356 6.34722C14.0284 6.25296 13.8037 6.00837 13.5943 5.77461C13.4674 5.77838 13.3409 5.77838 13.2144 5.78074C13.0996 5.87423 12.9603 5.9312 12.8138 5.94453C12.6674 5.95786 12.5203 5.92695 12.3911 5.85567C12.1914 6.09612 11.9794 6.32564 11.7559 6.54327C11.6966 6.6149 11.6016 6.5904 11.5214 6.59511C11.5678 6.7134 11.6039 6.84395 11.5678 6.97214C11.4824 7.12147 11.3555 7.24182 11.2031 7.31806C11.1498 7.25283 11.1014 7.18368 11.0581 7.11116C10.8177 7.0942 10.6059 7.22804 10.3752 7.26904C10.2645 7.30392 10.1625 7.23275 10.0564 7.21249C9.89613 7.24548 9.70756 7.31523 9.56811 7.18704C9.36888 6.99853 9.17244 6.77137 8.8875 6.72848C8.60627 6.67806 8.28751 6.62904 8.09245 6.39293C7.92844 6.19546 8.07809 5.92165 7.97616 5.69921C7.81215 5.68318 7.58513 5.7633 7.47671 5.59458C7.39563 5.32359 7.48968 5.03564 7.44845 4.759C7.44243 4.70103 7.40212 4.59075 7.32382 4.64683C7.11301 4.69396 7.06066 4.9296 6.90684 5.05308C6.70501 5.22547 6.46589 5.34676 6.20909 5.40701C6.06268 5.43812 5.87133 5.42775 5.78654 5.28165C5.61512 5.00878 5.47195 4.68736 5.17729 4.5276C5.11722 4.59077 5.07691 4.67064 5.06146 4.75711M8.43994 12.4739C8.36025 12.627 8.25739 12.7901 8.06929 12.8066C8.05678 12.874 8.07531 12.9951 7.97663 12.9989C7.83763 13.0107 7.65926 13.0437 7.61524 13.2048C7.63146 13.391 7.8191 13.4909 7.85987 13.6667C7.88118 13.7685 7.89972 13.8773 7.97987 13.9495C8.30882 14.3072 8.74573 14.5334 9.16456 14.7629C9.1817 15.0376 9.37954 15.246 9.43838 15.507C9.47637 15.6272 9.35591 15.7186 9.36193 15.8369C9.39019 15.9241 9.4773 15.9717 9.53985 16.0325C9.55857 16.1593 9.59853 16.2819 9.65799 16.3949C9.64594 16.2498 9.65197 16.0693 9.79096 15.9859C9.92254 15.9576 10.0226 16.0759 10.1102 16.156C10.2126 16.2696 10.3418 16.3789 10.3784 16.533C10.3321 16.6358 10.2645 16.7267 10.2079 16.8243C10.7454 16.7687 11.2856 16.7847 11.8244 16.7932C12.0333 16.6414 12.2147 16.4538 12.3605 16.2389C12.4258 16.1164 12.5736 16.148 12.6876 16.1249C12.6969 15.8954 12.9155 15.7677 12.9586 15.5513C12.9733 15.4821 13.0035 15.4172 13.0469 15.3618C13.0903 15.3064 13.1457 15.2619 13.2088 15.2318C13.3015 15.1969 13.3812 15.262 13.4572 15.3044C13.4572 15.5598 13.4572 15.8157 13.4572 16.0716C13.4632 16.1602 13.4224 16.2408 13.3909 16.3205C13.5248 16.4444 13.7087 16.485 13.8491 16.5999C13.9353 16.6603 14.0159 16.7541 14.1322 16.7319C15.0283 16.7027 15.9248 16.7239 16.8194 16.6947C16.8613 16.7033 16.9045 16.7009 16.9452 16.6878C16.9859 16.6747 17.0226 16.6512 17.052 16.6197C17.0813 16.5882 17.1023 16.5496 17.1129 16.5075C17.1235 16.4655 17.1234 16.4214 17.1127 16.3794C16.9371 16.3742 16.7513 16.4048 16.5896 16.3176C16.4404 16.2399 16.2653 16.2733 16.1119 16.2234C15.5782 15.9821 14.9801 16.0311 14.4125 15.9821C14.1192 15.9642 13.9334 15.6993 13.8134 15.4547C13.7036 15.2403 13.6147 14.9481 13.3469 14.8972C13.03 14.8972 12.7501 15.0753 12.4958 15.2488C12.2132 15.385 11.8731 15.3727 11.5858 15.2573C11.4144 15.1371 11.2824 14.9486 11.0762 14.8864C10.9664 14.8581 10.8255 14.9071 10.7519 14.7973C10.5568 14.5814 10.283 14.4787 10.0323 14.35C9.83627 14.1708 9.66872 13.9618 9.53568 13.7303C9.34572 13.4174 9.25027 13.0597 9.12611 12.7171C8.99175 12.6855 8.85275 12.6907 8.71746 12.6671C8.60117 12.6454 8.51917 12.553 8.43948 12.472M8.16149 14.409C8.9065 15.8388 9.65011 17.2693 10.3923 18.7004C10.4563 18.8027 10.485 18.9752 10.6393 18.9554C9.98648 17.5368 9.31977 16.1244 8.65816 14.7096C8.52843 14.5645 8.32643 14.5075 8.16149 14.409ZM12.9531 16.0707C12.822 17.0378 12.6797 18.0029 12.5523 18.971L12.6297 18.921C12.8419 17.7697 13.0425 16.615 13.2477 15.4618C13.0792 15.621 12.9743 15.8378 12.9531 16.0707ZM9.86324 16.1847C9.80812 16.3715 9.82062 16.5721 9.89845 16.7503C10.194 17.4572 10.4822 18.1641 10.7755 18.871C10.7839 18.8974 10.8004 18.9203 10.8226 18.9364C10.8448 18.9524 10.8715 18.9608 10.8987 18.9601C10.6796 18.3196 10.4586 17.6792 10.2283 17.0425C10.1796 17.0258 10.1349 16.9986 10.0975 16.9628C10.0601 16.9269 10.0307 16.8832 10.0115 16.8346C10.0435 16.7234 10.0782 16.6075 10.0625 16.4901C10.0384 16.3652 9.94571 16.2719 9.86324 16.1829M12.3804 16.4882C12.3396 17.3087 12.3012 18.1293 12.2516 18.9488L12.3744 18.9422C12.4305 18.0666 12.5324 17.1942 12.5838 16.3181C12.5 16.3464 12.3688 16.3704 12.3804 16.4882ZM13.3997 16.5792C13.2051 17.3761 12.9878 18.1674 12.8085 18.9677L12.9049 18.9177C13.125 18.1731 13.326 17.4214 13.5461 16.6763L13.3974 16.5797M13.788 16.8624C13.5563 17.5604 13.3094 18.2532 13.0708 18.9488L13.1898 18.9427C13.4243 18.2829 13.6615 17.6273 13.9084 16.9741C13.8681 16.9364 13.8283 16.8992 13.788 16.8624ZM11.8638 17.01C11.8666 17.6537 11.8819 18.2984 11.8749 18.9422L12.0658 18.9493C12.0686 18.257 12.0603 17.5647 12.07 16.8723C12.0014 16.9195 11.931 16.9595 11.8638 17.01ZM14.741 16.9251C14.3537 17.6 13.964 18.2744 13.5892 18.9573L13.7115 18.9361C14.1382 18.2763 14.532 17.5939 14.9486 16.927H14.741M15.2506 16.927C14.7971 17.5972 14.356 18.2758 13.9029 18.9465C13.9612 18.9465 14.0196 18.9465 14.0785 18.9498C14.5775 18.2725 15.0866 17.6033 15.587 16.9265C15.4744 16.9265 15.3628 16.927 15.2506 16.927ZM14.3347 18.9455H14.4973L16.376 16.9053C16.2611 16.9011 16.1444 16.9011 16.0313 16.8978C15.4615 17.5774 14.8959 18.26 14.3347 18.9455ZM14.1934 16.9661C13.9015 17.6259 13.6031 18.2857 13.308 18.9455H13.4303C13.7588 18.2824 14.0863 17.6189 14.4232 16.96C14.3463 16.96 14.2698 16.9642 14.1915 16.9671M10.9335 17.0071C11.0688 17.6042 11.1874 18.2056 11.3106 18.806C11.3301 18.8696 11.3282 18.9667 11.4241 18.9667C11.3375 18.3112 11.2166 17.6608 11.1174 17.0076H10.9321M11.3894 17.01C11.4575 17.6561 11.5154 18.3027 11.5844 18.9488H11.6915C11.666 18.3032 11.6071 17.6594 11.5784 17.0142L11.3894 17.01ZM10.5045 17.0566C10.6852 17.6844 10.8751 18.3098 11.0447 18.9417L11.1679 18.9545C10.9984 18.3225 10.8316 17.6895 10.6611 17.058H10.5045M4.69776 19.2834C4.701 19.972 4.70239 20.66 4.69776 21.3486C9.55421 21.3571 14.4107 21.358 19.2671 21.3514C19.2634 20.6619 19.2648 19.972 19.2671 19.2825C14.4113 19.2825 9.55544 19.2825 4.69961 19.2825M8.41538 0.607953C8.72997 0.506156 9.04039 0.391163 9.35637 0.293608C9.52317 1.63158 9.69459 2.9686 9.85212 4.30751C9.56811 4.30515 9.28456 4.31128 9.00101 4.3028C8.8041 3.07134 8.60581 1.84035 8.41538 0.607953ZM10.163 8.35016C10.5823 7.92083 11.1897 7.72242 11.7763 7.73278C12.6246 7.72901 13.4442 8.17343 13.9622 8.84925C14.1507 9.08866 14.3073 9.36153 14.3704 9.66457C14.495 10.2353 14.4667 10.8253 14.4449 11.4055C14.4417 11.5186 14.438 11.6411 14.5089 11.7377C14.6942 12.0163 15.0051 12.169 15.2965 12.3108C15.1737 12.5314 15.0403 12.7458 14.9138 12.9645C14.665 12.8608 14.4181 12.7354 14.2235 12.5436C13.9452 12.2428 13.7669 11.8607 13.7138 11.4512C13.6416 11.3979 13.5697 11.3452 13.4984 11.2914C13.572 11.1214 13.6229 10.9422 13.6499 10.7584C13.7375 10.7443 13.8241 10.7235 13.9117 10.7113C13.9284 10.3974 13.8945 10.0828 13.8111 9.78003L13.5744 9.86486C13.5078 9.67198 13.4083 9.49252 13.2806 9.33467L13.4196 9.18763C13.2267 8.92933 12.9833 8.71446 12.7047 8.55658C12.6519 8.62728 12.6 8.69797 12.5468 8.76913C12.398 8.70033 12.2359 8.67959 12.0797 8.63764C12.0654 8.55363 12.0561 8.46879 12.0519 8.38362C11.7429 8.37561 11.4306 8.36619 11.1253 8.43075C11.1341 8.53066 11.1457 8.6301 11.1573 8.73002C10.984 8.82427 10.8065 8.91334 10.6291 9.00147C10.4739 8.78327 10.308 8.57308 10.1598 8.34969M8.25461 8.70127C8.37183 8.47552 8.49507 8.25355 8.62249 8.03393C8.90047 8.12489 9.13908 8.30728 9.36703 8.48919C9.68069 8.76018 9.78401 9.2013 9.77428 9.60471L9.99343 9.71358C9.9471 9.89502 9.91235 10.0798 9.8776 10.2645H9.63575C9.60783 10.6018 9.64225 10.9415 9.73722 11.266C9.8132 11.2443 9.88934 11.2231 9.96563 11.2024C10.0426 11.3601 10.1381 11.5077 10.2501 11.6421C10.1778 11.7024 10.1063 11.7635 10.0356 11.8254C10.2205 12.1014 10.4771 12.3197 10.7769 12.456L10.9275 12.2675C11.0841 12.3268 11.2421 12.3829 11.3991 12.4409C11.4075 12.5257 11.4167 12.6101 11.4269 12.6944C11.7488 12.7395 12.0763 12.7177 12.3897 12.6303C12.3688 12.5413 12.3535 12.4508 12.3322 12.3617C12.5134 12.2839 12.6918 12.2001 12.8729 12.1214C13.0119 12.3301 13.1509 12.5403 13.3006 12.7416C12.9961 12.9621 12.6487 13.1136 12.2817 13.1857C11.9147 13.2578 11.5368 13.2489 11.1735 13.1596C10.6283 13.0278 10.128 12.7494 9.72471 12.3537C9.20811 11.7882 9.06217 10.9743 9.08163 10.2249C9.07283 9.90728 9.14418 9.56513 9.00657 9.26869C8.82588 9.001 8.52612 8.85396 8.25415 8.70315M11.2657 8.64283C11.4686 8.63592 11.6717 8.63183 11.8749 8.63058C11.8749 8.71446 11.8787 8.79835 11.88 8.88224C12.0916 8.91433 12.2994 8.96866 12.5 9.04436C12.5514 8.97885 12.6028 8.91287 12.6547 8.84784C12.8257 8.95432 12.9868 9.07641 13.1361 9.21261C13.0718 9.27545 13.0073 9.33655 12.9424 9.39594C13.139 9.57605 13.2802 9.81007 13.3492 10.0699C13.4366 10.0601 13.5245 10.0516 13.6128 10.0444C13.6253 10.2428 13.6277 10.4417 13.6253 10.6406L13.4062 10.6637C13.3884 10.9023 13.3312 11.1362 13.2371 11.3555C13.2973 11.4027 13.3575 11.447 13.4173 11.4936C13.2742 11.6406 13.1393 11.7976 12.9929 11.9394L12.8507 11.7943C12.6659 11.9764 12.44 12.1096 12.1928 12.1822L12.2391 12.3645C12.0385 12.4319 11.8254 12.4244 11.6187 12.3956C11.6187 12.3594 11.621 12.2872 11.622 12.251C11.3683 12.2079 11.125 12.1159 10.9052 11.98C10.8691 12.0361 10.833 12.0926 10.7964 12.1487C10.6428 12.043 10.4998 11.9224 10.3692 11.7886C10.4118 11.7297 10.4535 11.6699 10.4961 11.611C10.3335 11.4375 10.2455 11.2151 10.1672 10.9936C10.0935 10.9465 9.98833 10.9813 9.90401 10.9686C9.90216 10.7801 9.90216 10.5916 9.90401 10.4031C9.98185 10.4002 10.0597 10.3988 10.1357 10.3969C10.1513 10.177 10.2146 9.96323 10.321 9.77108C10.2571 9.70368 10.195 9.6344 10.1315 9.56748C10.2458 9.41152 10.374 9.26668 10.5147 9.13485C10.5902 9.17113 10.6671 9.20554 10.7435 9.24136C10.9011 9.08866 11.1017 8.99865 11.2995 8.9091C11.2838 8.8205 11.2726 8.73143 11.2629 8.64283M11.76 9.39688C11.7461 9.47275 11.7313 9.54863 11.7165 9.62451C11.6377 9.57974 11.558 9.53732 11.4779 9.49585C11.4942 9.55409 11.5217 9.60845 11.5589 9.65578C11.596 9.70311 11.642 9.74246 11.6943 9.77155C11.6943 9.89738 11.6905 10.0232 11.6827 10.1486C11.5275 10.0901 11.4047 9.97278 11.2657 9.88607C11.2685 10.1288 11.4663 10.2834 11.6558 10.3903C11.6558 10.4973 11.6558 10.6048 11.6558 10.7118C11.4547 10.6557 11.2851 10.5303 11.1202 10.4059C11.1346 10.5473 11.1466 10.7019 11.237 10.8187C11.3296 10.9512 11.4756 11.028 11.616 11.0982C11.6192 11.2019 11.6201 11.3065 11.6187 11.4107C11.3361 11.3381 11.1304 11.1175 10.9205 10.9276C10.9669 11.2104 11.0998 11.4894 11.3329 11.6595C11.5182 11.79 11.7679 11.8574 11.9857 11.7674C12.3429 11.6534 12.5551 11.2858 12.6116 10.9271C12.4022 11.1156 12.1946 11.3338 11.9166 11.4116C11.9129 11.307 11.9129 11.2024 11.9166 11.0982C12.0556 11.027 12.2058 10.9516 12.2989 10.8178C12.3874 10.6995 12.4017 10.5459 12.4179 10.4035C12.2507 10.5284 12.0793 10.6552 11.8763 10.7122C11.8763 10.6043 11.8819 10.4964 11.8847 10.3889C12.0723 10.2805 12.2678 10.1274 12.2729 9.88654C12.1316 9.9709 12.0112 10.0901 11.8559 10.1481C11.8476 10.0223 11.8439 9.89597 11.8471 9.77108C11.8996 9.74189 11.9458 9.70221 11.9828 9.65442C12.0198 9.60664 12.0469 9.55174 12.0626 9.49302C11.982 9.53638 11.9014 9.57926 11.8217 9.62498C11.8078 9.54957 11.7948 9.47417 11.7827 9.39876H11.7591M17.9814 19.6524C17.9814 19.5855 18.0532 19.5539 18.0884 19.5063L18.2112 19.6336C18.1728 19.6774 18.1338 19.7203 18.0963 19.7651C18.0569 19.7283 18.0166 19.6925 17.9814 19.6524ZM16.0082 19.5502C16.0642 19.5865 16.1203 19.6246 16.1759 19.6628L16.2723 19.5275C16.313 19.5822 16.3987 19.6185 16.4038 19.6939C16.3626 19.7408 16.319 19.7855 16.2732 19.8277L16.1773 19.6887L16.0207 19.8094C15.9743 19.7651 15.9326 19.7203 15.8891 19.676L16.01 19.5483M17.5908 19.7877C17.64 19.7406 17.6895 19.6934 17.7405 19.6463C17.7562 19.9021 17.7577 20.1585 17.7451 20.4145C17.8841 20.4857 18.0426 20.4795 18.1936 20.4564C18.1442 20.3902 18.0906 20.3272 18.0333 20.2679C18.0755 20.1845 18.1213 20.1034 18.1677 20.0229C18.2803 20.184 18.3451 20.4055 18.2506 20.5912C18.225 20.6541 18.1806 20.7071 18.1238 20.7429C18.0669 20.7787 18.0004 20.7954 17.9337 20.7906C17.8035 20.817 17.7461 20.6779 17.6821 20.5926C17.5871 20.8353 17.3091 20.7882 17.1034 20.7896C16.9603 20.7859 16.749 20.8174 16.6957 20.6379C16.6763 20.4965 16.6364 20.308 16.7564 20.2043C16.7842 20.2905 16.762 20.4296 16.8736 20.4593C17.1053 20.488 17.3397 20.472 17.5723 20.4616C17.601 20.2392 17.6349 20.0125 17.5908 19.79M17.0182 19.9823C17.027 19.8409 17.1743 19.7801 17.2851 19.7326C17.287 19.7693 17.2802 19.806 17.2654 19.8396C17.2506 19.8732 17.2281 19.9028 17.1998 19.9258C17.2341 19.9729 17.3254 20.0021 17.3022 20.0766C17.3064 20.2005 17.1799 20.2552 17.0807 20.2755C17.1034 20.2151 17.1271 20.1558 17.1521 20.0964C17.104 20.0628 17.0592 20.0246 17.0182 19.9823ZM7.82929 19.799C7.99284 19.8037 8.16288 19.7745 8.32226 19.8207C8.52009 19.9182 8.51546 20.1977 8.39361 20.3565C8.48164 20.5135 8.44967 20.6973 8.47978 20.8683C8.41585 20.8683 8.35237 20.8683 8.2889 20.8683C8.26481 20.7364 8.28427 20.5959 8.23469 20.4701C8.16056 20.4583 8.0855 20.4579 8.01091 20.4536C8.01091 20.5903 8.01091 20.7274 8.00813 20.8646C7.94883 20.8646 7.88952 20.8646 7.83068 20.8683C7.82698 20.5116 7.83068 20.1553 7.83068 19.7985M8.01045 20.0054C8.01045 20.0912 8.01045 20.1779 8.01045 20.2642C8.11886 20.2561 8.31392 20.2901 8.30048 20.1199C8.28612 19.9658 8.11238 20.02 8.00859 20.0054M8.88426 19.8226C8.94373 19.8143 9.00357 19.8091 9.06356 19.807C9.15622 20.1529 9.23313 20.5031 9.32116 20.8504H9.13584C9.11916 20.7797 9.1034 20.709 9.08673 20.6402H8.85507C8.83932 20.7095 8.8231 20.7793 8.80874 20.849L8.63082 20.857C8.71051 20.5116 8.78882 20.1652 8.88333 19.824M8.96812 20.1185C8.94495 20.2307 8.92178 20.3433 8.89723 20.455L9.04688 20.4494C9.0214 20.3386 8.99638 20.2274 8.96812 20.1185ZM9.32579 19.816C9.53012 19.8127 9.73397 19.8103 9.93829 19.8193C9.93412 19.8857 9.92995 19.9522 9.92532 20.0191C9.85536 20.0191 9.78633 20.0191 9.71544 20.0167C9.71544 20.2995 9.72424 20.5799 9.70895 20.8613L9.5417 20.85C9.5417 20.5728 9.53753 20.2962 9.54494 20.0191L9.32672 20.0148C9.32672 19.9484 9.32579 19.8819 9.32579 19.816ZM12.4717 19.8023C12.5278 19.8051 12.5838 19.8065 12.6403 19.8075C12.6403 19.9314 12.6403 20.0554 12.645 20.1793C12.7302 20.0558 12.809 19.9277 12.8901 19.8023L13.0921 19.807C13.0045 19.9611 12.9012 20.1058 12.8099 20.258C12.9137 20.4602 13.0115 20.6657 13.1115 20.8707H12.8979C12.821 20.7227 12.7752 20.5531 12.6566 20.4319C12.6423 20.5766 12.637 20.722 12.6408 20.8674C12.5838 20.8674 12.5273 20.8698 12.4708 20.8726C12.468 20.5153 12.4671 20.1586 12.4708 19.8014M14.8369 19.9427C14.8939 19.8885 14.9513 19.8358 15.0106 19.7844C15.0315 20.0026 15.0106 20.2232 15.0389 20.4404C15.2154 20.5102 15.4341 20.4795 15.6181 20.4324C15.5129 20.3348 15.3804 20.3504 15.2766 20.4447C15.2961 20.3221 15.2914 20.1506 15.4304 20.0992C15.5993 20.131 15.7661 20.1735 15.9299 20.2265C15.9127 20.2981 15.8956 20.3678 15.8789 20.4409C15.8599 20.4517 15.8214 20.4725 15.802 20.4828C15.9303 20.4748 16.0591 20.472 16.187 20.4569C16.137 20.3909 16.0837 20.3282 16.029 20.2684C16.0684 20.1892 16.1092 20.1115 16.1509 20.0328C16.3204 20.2057 16.3436 20.5106 16.1787 20.6949C16.0137 20.8792 15.6611 20.7986 15.6463 20.5342C15.5467 20.6388 15.454 20.7929 15.2919 20.7877C15.1571 20.7877 14.9676 20.8203 14.8976 20.6676C14.836 20.4319 14.8513 20.184 14.8369 19.9427ZM18.397 19.939C18.454 19.8852 18.511 19.8325 18.5707 19.782C18.5907 19.9918 18.5624 20.2038 18.5939 20.4121C18.6069 20.4989 18.707 20.4644 18.7667 20.4748C18.8507 20.474 18.9345 20.4685 19.0178 20.4583C18.9682 20.392 18.9143 20.329 18.8566 20.2698C18.9002 20.1869 18.9465 20.1055 18.9956 20.0257C19.1592 20.2406 19.1842 20.6096 18.9266 20.7599C18.7741 20.8108 18.5179 20.8368 18.4494 20.6464C18.3924 20.4164 18.4197 20.1746 18.397 19.939ZM4.91505 19.8532C5.11335 19.8532 5.31165 19.8532 5.50995 19.8532L5.52246 20.0587L5.30007 20.0662C5.30192 20.3408 5.30192 20.6159 5.30007 20.8914H5.12215C5.11798 20.6153 5.12215 20.3391 5.11937 20.0629L4.91968 20.0681C4.91968 19.9969 4.91691 19.9267 4.91505 19.8546M5.67674 19.8574C5.86762 19.8523 6.05851 19.8527 6.24939 19.8551L6.25773 20.0596C6.12337 20.0662 5.98855 20.0667 5.85419 20.0648C5.85419 20.127 5.85419 20.1892 5.85419 20.2533C5.97558 20.2533 6.09696 20.2533 6.21835 20.2533C6.21835 20.3004 6.21835 20.4004 6.21835 20.4489C6.09928 20.4489 5.97928 20.4461 5.86021 20.4564C5.85465 20.5314 5.85465 20.6072 5.85372 20.6831C5.99272 20.6831 6.13171 20.6831 6.27071 20.6831C6.27071 20.751 6.27071 20.8193 6.27071 20.8881C6.07194 20.8881 5.87365 20.8933 5.67535 20.8811C5.67906 20.5389 5.67535 20.1972 5.67767 19.8556M6.66962 20.6808C6.71827 20.398 6.66962 20.1091 6.69649 19.8244L6.87533 19.8334C6.87023 20.1204 6.89664 20.4103 6.86189 20.6963C6.83595 20.8848 6.57835 20.9569 6.44491 20.8325C6.35225 20.734 6.36198 20.5879 6.34762 20.463L6.5246 20.4588C6.52831 20.5432 6.53063 20.7651 6.66777 20.6808M7.27007 19.8518H7.44799C7.53833 20.1958 7.62173 20.5422 7.70049 20.8886C7.64072 20.8886 7.58096 20.8862 7.52165 20.8862C7.50544 20.8198 7.48876 20.7533 7.47208 20.6874H7.24042C7.22421 20.7538 7.20799 20.8203 7.19131 20.8867H7.01525C7.10143 20.5403 7.18065 20.1921 7.27146 19.8499M7.35486 20.1685C7.33077 20.2712 7.30853 20.3754 7.28629 20.4791L7.42528 20.4852C7.4086 20.3783 7.38554 20.2725 7.35625 20.1685M10.2524 19.8386C10.4016 19.8386 10.5545 19.8179 10.7009 19.8565C10.8723 19.946 10.8441 20.1694 10.7871 20.3231C10.8765 20.4941 10.896 20.7656 10.6977 20.866C10.5503 20.8905 10.3998 20.8754 10.2515 20.8754C10.2515 20.5295 10.2524 20.184 10.2524 19.8386ZM10.4234 20.2293C10.5058 20.24 10.5892 20.2388 10.6713 20.2255C10.6513 20.169 10.6838 20.0756 10.618 20.0469C10.5542 20.0365 10.4895 20.0346 10.4252 20.0412C10.4194 20.1039 10.4194 20.1671 10.4252 20.2298M10.4252 20.4404C10.4252 20.5224 10.4252 20.6049 10.4252 20.6874C10.504 20.6803 10.5869 20.6921 10.6615 20.6596C10.6995 20.5936 10.6833 20.5182 10.6717 20.4484C10.5892 20.4451 10.5077 20.4428 10.4252 20.4404ZM11.1869 19.8409L11.3811 19.8494C11.4519 20.1939 11.546 20.5323 11.6215 20.8754H11.439C11.4246 20.8085 11.4098 20.7411 11.3954 20.6751H11.161C11.1443 20.7416 11.1281 20.8075 11.1146 20.8745C11.0553 20.8745 10.9965 20.8745 10.9377 20.8745C11.0197 20.5295 11.1049 20.1855 11.1892 19.8409M11.2861 20.1543C11.2564 20.2571 11.2309 20.3608 11.2045 20.4649C11.2541 20.4677 11.3037 20.4729 11.3528 20.48C11.3296 20.3716 11.3092 20.2627 11.2861 20.1543ZM11.6956 19.849C11.7559 19.8457 11.8161 19.8414 11.8763 19.8367C11.969 20.0427 12.0473 20.2533 12.1316 20.4626C12.1566 20.2557 12.1441 20.0469 12.1488 19.8395C12.203 19.8433 12.2576 19.8466 12.3123 19.8494C12.3086 20.1887 12.3123 20.5285 12.3123 20.8683C12.2581 20.8683 12.2039 20.8683 12.1502 20.8655C12.0357 20.6596 11.9718 20.4296 11.8694 20.2175C11.8615 20.4352 11.8694 20.6534 11.8624 20.8712C11.8078 20.8674 11.7531 20.865 11.6984 20.8641C11.6984 20.5257 11.6984 20.1873 11.6984 19.849M13.4901 19.9852C13.5364 19.9404 13.5827 19.8961 13.6267 19.8523C13.6689 19.8909 13.7111 19.9291 13.7537 19.9687C13.7972 19.9305 13.8412 19.8937 13.8857 19.857C13.9191 19.9069 13.9946 19.9427 13.9928 20.0097C13.9543 20.053 13.9121 20.0926 13.8704 20.1327C13.8312 20.0884 13.7918 20.0445 13.7523 20.0012C13.7097 20.0431 13.6675 20.086 13.6253 20.1284C13.579 20.0813 13.5327 20.0342 13.4901 19.987M14.1141 20.1322C14.3342 20.2618 14.2587 20.6374 14.0344 20.7288C13.826 20.8156 13.5836 20.8019 13.3664 20.7614C13.1657 20.6534 13.2056 20.374 13.2658 20.1906C13.3677 20.2491 13.3061 20.4225 13.4382 20.4465C13.6624 20.497 13.8936 20.4555 14.1206 20.4494C14.0822 20.4051 14.0451 20.3603 14.0085 20.3151C14.0423 20.2528 14.0752 20.1906 14.1141 20.1322ZM14.5775 20.2736C14.6465 20.2736 14.6534 20.357 14.6789 20.4065C14.748 20.6171 14.7822 20.8749 14.6534 21.0691C14.5469 21.202 14.3602 21.1346 14.229 21.0856C14.368 20.9612 14.5163 20.85 14.634 20.7024C14.577 20.6351 14.5223 20.5662 14.4639 20.5007C14.5005 20.4239 14.5339 20.3462 14.5775 20.2736ZM15.4309 21.0823L15.5736 20.9442C15.6199 20.9913 15.669 21.0418 15.7167 21.0913L15.5731 21.2289L15.4309 21.0823ZM18.7802 20.9767L18.9192 21.1007C18.8728 21.145 18.8265 21.1893 18.7802 21.2345C18.7445 21.1935 18.7097 21.1521 18.6773 21.1096C18.7095 21.0633 18.7443 21.0189 18.7816 20.9767M8.65723 24.2757C9.02788 24.2757 9.40363 24.2757 9.77706 24.2757C9.77428 25.0448 9.77706 25.814 9.77706 26.585C9.77706 26.7358 9.78911 26.9106 9.91606 27.0091C9.99065 27.0902 10.1014 27.0935 10.2042 27.0916C10.9284 27.0893 11.6526 27.0916 12.3772 27.0916C12.4486 27.0934 12.5187 27.0722 12.5776 27.0311C12.6365 26.9899 12.6812 26.931 12.7052 26.8626C12.7372 26.7636 12.7293 26.658 12.7339 26.5562C11.9926 26.5562 11.249 26.5562 10.5063 26.5562C10.5063 26.1729 10.5063 25.7899 10.5063 25.4072C11.5029 25.4072 12.4986 25.3945 13.4965 25.411C13.4965 25.8488 13.4965 26.2871 13.4965 26.725C13.4944 26.7739 13.5022 26.8228 13.5197 26.8684C13.5371 26.9141 13.5638 26.9556 13.5979 26.9902C13.632 27.0248 13.6728 27.0517 13.7177 27.0694C13.7627 27.087 13.8107 27.0949 13.8589 27.0926C14.6618 27.0926 15.4647 27.0926 16.2681 27.0926C16.3329 27.1006 16.4242 27.0671 16.4613 27.143C16.4701 27.5115 16.4613 27.8805 16.4641 28.2491C15.7983 28.2524 15.1325 28.2491 14.4667 28.2491C13.9886 28.2425 13.5656 27.8565 13.4813 27.3819C13.3997 27.8664 12.9559 28.2566 12.4698 28.2505C11.5284 28.2505 10.5869 28.2505 9.64363 28.2505C9.1224 28.2448 8.65214 27.7754 8.65492 27.2415C8.65492 26.2543 8.65492 25.2666 8.65492 24.2785M3.80681 24.6551C4.08989 24.4166 4.56479 24.4883 4.76216 24.8064C4.84254 24.9224 4.88377 25.0618 4.87968 25.2037C4.87558 25.3456 4.82639 25.4824 4.73946 25.5934C4.63647 25.7293 4.48648 25.8202 4.31997 25.8477C4.15345 25.8752 3.9829 25.8372 3.84295 25.7414C3.70395 25.6514 3.62565 25.4944 3.56171 25.3441C3.49361 25.5854 3.31523 25.8017 3.06643 25.8569C2.72219 25.9558 2.34135 25.7155 2.26119 25.3625C2.15417 24.9675 2.4808 24.5368 2.87972 24.5293C3.19848 24.5095 3.48897 24.7569 3.55754 25.0684C3.60388 24.9119 3.67198 24.7526 3.80681 24.6551ZM15.404 25.0722C15.4712 24.7762 15.7283 24.5146 16.0369 24.5194C16.3922 24.4873 16.7277 24.8092 16.7249 25.1697C16.7476 25.5467 16.4038 25.8851 16.0364 25.8569C15.7302 25.8569 15.474 25.6057 15.4091 25.3102C15.3479 25.7343 14.8531 26.0006 14.4751 25.8093C14.1123 25.649 13.9765 25.1372 14.2114 24.8139C14.2857 24.7051 14.39 24.621 14.5111 24.5723C14.6322 24.5235 14.7647 24.5122 14.8921 24.5398C15.0195 24.5674 15.136 24.6326 15.2271 24.7273C15.3182 24.822 15.3797 24.942 15.404 25.0722ZM16.9909 26.1476C17.3657 26.1476 17.7405 26.1476 18.1158 26.1476C18.1426 26.9827 18.1158 27.8193 18.1297 28.6544C18.1389 28.744 18.1805 28.8269 18.2464 28.8871C18.3123 28.9473 18.3979 28.9804 18.4864 28.98C19.0461 28.98 19.6058 28.98 20.1655 28.98C20.1655 29.3646 20.1655 29.749 20.1655 30.1333C19.6225 30.1333 19.0795 30.1356 18.5369 30.1333C18.0671 30.1205 17.6367 29.7407 17.564 29.2666C17.4866 29.5569 17.3258 29.8321 17.0627 29.9867C16.8658 30.1102 16.6299 30.1465 16.4024 30.1356C14.9314 30.1323 13.4609 30.1356 11.9903 30.1333C11.9903 29.749 11.9903 29.3646 11.9903 28.98C13.5392 28.98 15.088 28.98 16.6369 28.98C16.8268 28.9838 17.0024 28.8052 16.9848 28.6096C16.9876 27.7891 16.9807 26.9686 16.9881 26.1486M20.7011 26.1486C21.0797 26.1467 21.4584 26.1467 21.8371 26.1486C21.8417 26.9686 21.8371 27.7882 21.8371 28.6082C21.8347 28.6566 21.8421 28.705 21.8588 28.7503C21.8756 28.7957 21.9014 28.8371 21.9345 28.8719C21.9677 28.9067 22.0075 28.9341 22.0516 28.9526C22.0957 28.971 22.143 28.9801 22.1906 28.9791C22.7466 28.9833 23.3026 28.9791 23.8585 28.9791V30.1328C23.1793 30.1361 22.5001 30.1328 21.82 30.1356C21.2367 30.1922 20.6742 29.6785 20.696 29.0771C20.696 28.1006 20.696 27.1241 20.696 26.1476M0.291185 26.5303C2.33949 26.5426 4.3878 26.5265 6.43611 26.5374C6.43611 26.9185 6.43611 27.2998 6.43611 27.6812C4.72525 27.6843 3.01423 27.6843 1.30306 27.6812C0.722993 27.6812 0.226784 27.1128 0.290722 26.5294M6.97958 26.5294C7.35579 26.543 7.732 26.5327 8.10867 26.5393C8.11516 27.2768 8.10867 28.0144 8.10589 28.7543C8.10589 29.2779 7.64767 29.744 7.13293 29.7558C6.64877 29.7619 6.16461 29.7558 5.68045 29.7558C5.68045 29.3703 5.6772 28.9847 5.68369 28.5997C5.99967 28.5974 6.31611 28.6058 6.63255 28.5974C6.67895 28.5969 6.72478 28.587 6.76734 28.5682C6.8099 28.5494 6.84834 28.5221 6.88038 28.488C6.91242 28.4539 6.93742 28.4136 6.9539 28.3695C6.97038 28.3254 6.97801 28.2783 6.97633 28.2312C6.97911 27.6656 6.97309 27.0963 6.97958 26.5294ZM19.2027 26.6971C19.5567 26.5313 20.0052 26.7697 20.0978 27.1482C20.2225 27.5497 19.8745 28.0007 19.4649 27.9922C19.3112 27.994 19.1617 27.9414 19.042 27.8433C18.9223 27.7452 18.8399 27.6078 18.8089 27.4547C18.7779 27.3015 18.8002 27.1422 18.8721 27.004C18.9439 26.8658 19.0608 26.7573 19.2027 26.6971ZM10.2177 28.9192C10.5573 28.7519 11.0053 28.9475 11.1156 29.3156C11.2694 29.7148 10.9441 30.2068 10.5207 30.2021C10.1653 30.2355 9.82247 29.9113 9.83312 29.5484C9.81135 29.2812 9.98555 29.03 10.2177 28.9192ZM22.04 31.4345C21.9738 31.0716 22.2564 30.6983 22.6141 30.6587C22.963 30.6045 23.316 30.8859 23.3521 31.2417C23.4054 31.5909 23.1474 31.9241 22.8166 31.9991H22.6243C22.4805 31.9801 22.3464 31.9151 22.2413 31.8134C22.1363 31.7117 22.0658 31.5796 22.04 31.4345Z"
            fill="#616161" />
    </g>
    <defs>
        <clipPath id="clip0_504_8437">
            <rect width="23.5789" height="32" fill="white" transform="translate(0.286133)" />
        </clipPath>
    </defs>
</svg>
    