<svg width="24" height="24" viewBox="0 0 24 24" fill="none" xmlns="http://www.w3.org/2000/svg">
    <g clip-path="url(#clip0_457_3722)">
        <path
            d="M12 24.0001C18.6274 24.0001 24 18.6275 24 12.0001C24 5.3727 18.6274 0.00012207 12 0.00012207C5.37258 0.00012207 0 5.3727 0 12.0001C0 18.6275 5.37258 24.0001 12 24.0001Z"
            fill="#002F66" />
        <path
            d="M4.99431 11.896C4.99431 11.896 10.9943 9.43359 13.0752 8.56654C13.8729 8.21972 16.5781 7.10989 16.5781 7.10989C16.5781 7.10989 17.8267 6.62434 17.7226 7.80354C17.6879 8.28908 17.4105 9.98851 17.133 11.8267C16.7169 14.4278 16.266 17.2717 16.266 17.2717C16.266 17.2717 16.1966 18.0694 15.607 18.2082C15.0174 18.3469 14.0463 17.7226 13.8729 17.5839C13.7342 17.4798 11.2718 15.9191 10.37 15.1561C10.1273 14.948 9.8498 14.5319 10.4047 14.0463C11.6533 12.9018 13.1446 11.4798 14.0463 10.5781C14.4625 10.1619 14.8787 9.19082 13.1446 10.37C10.6822 12.0694 8.25442 13.6648 8.25442 13.6648C8.25442 13.6648 7.69951 14.0116 6.65905 13.6995C5.61858 13.3874 4.40471 12.9712 4.40471 12.9712C4.40471 12.9712 3.57234 12.4509 4.99431 11.896Z"
            fill="#F0F2F4" />
    </g>
    <defs>
        <clipPath id="clip0_457_3722">
            <rect width="24" height="24" fill="white" />
        </clipPath>
    </defs>
</svg>
    