<svg width="57" height="56" viewBox="0 0 57 56" fill="none" xmlns="http://www.w3.org/2000/svg">
    <mask id="mask0_535_8930" style="mask-type:alpha" maskUnits="userSpaceOnUse" x="0" y="0"
        width="57" height="56">
        <rect x="0.142822" width="56" height="56" fill="#D9D9D9" />
    </mask>
    <g mask="url(#mask0_535_8930)">
        <path
            d="M28.1427 44.3334C32.6927 44.3334 36.5525 42.7487 39.7219 39.5792C42.8914 36.4098 44.4761 32.55 44.4761 28C44.4761 23.8389 43.1162 20.2125 40.3965 17.1209C37.6768 14.0292 34.2559 12.2805 30.1337 11.8747C29.5842 11.7969 29.1151 11.9391 28.7261 12.3011C28.3372 12.6632 28.1427 13.1154 28.1427 13.6576V28.0043L18.3532 38.2566C17.9793 38.6763 17.8076 39.1481 17.838 39.6721C17.8685 40.196 18.0891 40.6245 18.5 40.9576C19.8611 42.0415 21.3669 42.875 23.0173 43.4584C24.6678 44.0417 26.3763 44.3334 28.1427 44.3334ZM28.1473 52.1577C24.8235 52.1577 21.6928 51.5278 18.7553 50.268C15.8178 49.0082 13.2516 47.2809 11.0567 45.0861C8.86193 42.8912 7.13462 40.3265 5.87482 37.3921C4.61501 34.4575 3.98511 31.3284 3.98511 28.0046C3.98511 24.6419 4.61501 21.4918 5.87482 18.5542C7.13462 15.6167 8.86022 13.0597 11.0516 10.8832C13.243 8.70665 15.8067 6.98356 18.7428 5.71392C21.6789 4.44427 24.8098 3.80945 28.1355 3.80945C31.5 3.80945 34.6523 4.44342 37.5925 5.71135C40.5326 6.97928 43.0901 8.70006 45.265 10.8737C47.4399 13.0473 49.1617 15.6033 50.4303 18.5417C51.699 21.4801 52.3333 24.6329 52.3333 28C52.3333 31.3269 51.6985 34.4589 50.4289 37.3961C49.1592 40.3332 47.4361 42.8979 45.2596 45.09C43.0831 47.2822 40.5276 49.0082 37.5931 50.268C34.6586 51.5278 31.51 52.1577 28.1473 52.1577ZM28.1427 47.5366C33.577 47.5366 38.1917 45.6363 41.9868 41.8356C45.7818 38.0349 47.6793 33.4231 47.6793 28C47.6793 22.5658 45.7818 17.9511 41.9868 14.156C38.1917 10.361 33.5715 8.46345 28.1262 8.46345C22.7199 8.46345 18.1149 10.361 14.3114 14.156C10.5079 17.9511 8.60616 22.5713 8.60616 28.0166C8.60616 33.4229 10.5065 38.0279 14.3072 41.8314C18.1079 45.6349 22.7197 47.5366 28.1427 47.5366Z"
            fill="#0F0F0F" fill-opacity="0.4" />
    </g>
</svg>
    