<svg width="64" height="64" viewBox="0 0 64 64" fill="none" xmlns="http://www.w3.org/2000/svg">
    <mask id="mask0_685_12628" style="mask-type:alpha" maskUnits="userSpaceOnUse" x="0" y="0"
        width="64" height="64">
        <rect width="64" height="64" fill="#D9D9D9" />
    </mask>
    <g mask="url(#mask0_685_12628)">
        <path
            d="M51.1333 42.7334C47.9333 42.7334 45.1889 41.7556 42.9 39.8001C40.6111 37.8445 39.1333 35.3112 38.4667 32.2001H28.4L25.9333 27.7334H38.4667C38.6 26.6223 38.9111 25.5223 39.4 24.4334C39.8889 23.3445 40.5111 22.3556 41.2667 21.4667H22.2L19.6667 17.0001H43.8L40.2667 6.73339H29.6667V2.26672H39.6667C40.8222 2.26672 41.8556 2.60006 42.7667 3.26672C43.6778 3.93339 44.3333 4.80006 44.7333 5.86672L48.4 17.0001H50.4667C54.4222 17.0001 57.6667 18.1667 60.2 20.5001C62.7333 22.8334 64 25.9556 64 29.8667C64 33.3778 62.7222 36.4001 60.1667 38.9334C57.6111 41.4667 54.6 42.7334 51.1333 42.7334ZM51.1333 38.3334C53.3556 38.3334 55.3222 37.5001 57.0333 35.8334C58.7444 34.1667 59.6 32.1778 59.6 29.8667C59.6 27.5112 58.8222 25.5334 57.2667 23.9334C55.7111 22.3334 53.7556 21.5112 51.4 21.4667C51.3556 21.4667 51.1444 21.4778 50.7667 21.5001L50.2 21.5334L52.8 28.7334L48.6667 30.2001L45.9333 22.9334C44.8222 23.9112 44 24.9556 43.4667 26.0667C42.9333 27.1778 42.6667 28.4445 42.6667 29.8667C42.6667 32.2223 43.4889 34.2223 45.1333 35.8667C46.7778 37.5112 48.7778 38.3334 51.1333 38.3334ZM18.6667 61.5334C16.6667 61.5334 14.9667 60.8778 13.5667 59.5667C12.1667 58.2556 11.4 56.6445 11.2667 54.7334V54.0001H0V49.1334H13.0667C13.6444 48.4667 14.4111 47.8778 15.3667 47.3667C16.3222 46.8556 17.4222 46.6001 18.6667 46.6001C19.7778 46.6001 20.8 46.8223 21.7333 47.2667C22.6667 47.7112 23.5111 48.3334 24.2667 49.1334H32V41.5334H0V36.6667H5.6V29.1334H0V24.2667H19.2L26.4 36.6667H31.6C33.0667 36.6667 34.3111 37.1889 35.3333 38.2334C36.3556 39.2778 36.8667 40.5334 36.8667 42.0001V48.6667C36.8667 50.1334 36.3556 51.3889 35.3333 52.4334C34.3111 53.4778 33.0667 54.0001 31.6 54.0001H26.0667V54.7334C25.9333 56.6889 25.1556 58.3112 23.7333 59.6001C22.3111 60.8889 20.6222 61.5334 18.6667 61.5334ZM10.4 36.6667H20.8667L16.4 29.1334H10.4V36.6667ZM18.6667 57.1334C19.5111 57.1334 20.2333 56.8334 20.8333 56.2334C21.4333 55.6334 21.7333 54.9112 21.7333 54.0667C21.7333 53.2223 21.4333 52.5001 20.8333 51.9001C20.2333 51.3001 19.5111 51.0001 18.6667 51.0001C17.8222 51.0001 17.1 51.3001 16.5 51.9001C15.9 52.5001 15.6 53.2223 15.6 54.0667C15.6 54.9112 15.9 55.6334 16.5 56.2334C17.1 56.8334 17.8222 57.1334 18.6667 57.1334Z"
            fill="white" />
    </g>
</svg>
    