<svg width="24" height="20" viewBox="0 0 24 20" fill="none" xmlns="http://www.w3.org/2000/svg">
    <g clip-path="url(#clip0_457_3718)">
        <path
            d="M24 2.58915C23.117 2.98077 22.168 3.24544 21.172 3.36448C22.1886 2.75507 22.9693 1.79012 23.3369 0.640374C22.3856 1.20458 21.3318 1.61437 20.2102 1.83524C19.312 0.878276 18.0323 0.280273 16.6162 0.280273C13.8968 0.280273 11.6921 2.48486 11.6921 5.20405C11.6921 5.58996 11.7358 5.96578 11.8197 6.32614C7.72742 6.12081 4.09929 4.16053 1.67076 1.18158C1.24692 1.9088 1.0041 2.75463 1.0041 3.65699C1.0041 5.36523 1.87346 6.87235 3.19464 7.75531C2.38745 7.72976 1.62827 7.50828 0.964337 7.13949C0.963986 7.16003 0.963986 7.18066 0.963986 7.20138C0.963986 9.58707 2.66125 11.5772 4.91377 12.0295C4.50056 12.142 4.06558 12.2021 3.61646 12.2021C3.2992 12.2021 2.99072 12.1713 2.69014 12.1138C3.31667 14.0701 5.13508 15.4936 7.28972 15.5334C5.60456 16.854 3.48144 17.6411 1.17459 17.6411C0.777175 17.6411 0.385208 17.6179 0 17.5724C2.17904 18.9694 4.76726 19.7845 7.5479 19.7845C16.6047 19.7845 21.5572 12.2817 21.5572 5.77502C21.5572 5.56152 21.5525 5.34916 21.543 5.13804C22.505 4.44382 23.3398 3.57658 24 2.58915Z"
            fill="#002F66" />
    </g>
    <defs>
        <clipPath id="clip0_457_3718">
            <rect width="24" height="19.5938" fill="white" transform="translate(0 0.203247)" />
        </clipPath>
    </defs>
</svg>
    