<svg width="24" height="24" viewBox="0 0 24 24" fill="none" xmlns="http://www.w3.org/2000/svg">
    <mask id="mask0_485_3379" style="mask-type:alpha" maskUnits="userSpaceOnUse" x="0" y="0"
        width="24" height="24">
        <rect width="24" height="24" fill="#D9D9D9" />
    </mask>
    <g mask="url(#mask0_485_3379)">
        <path
            d="M10.95 12.6999L9.575 11.2999C9.375 11.0999 9.1375 10.9999 8.8625 10.9999C8.5875 10.9999 8.35 11.0999 8.15 11.2999C7.95 11.4999 7.84583 11.7374 7.8375 12.0124C7.82917 12.2874 7.925 12.5249 8.125 12.7249L10.25 14.8499C10.45 15.0499 10.6833 15.1499 10.95 15.1499C11.2167 15.1499 11.45 15.0499 11.65 14.8499L15.9 10.5999C16.1 10.3999 16.2 10.1624 16.2 9.8874C16.2 9.6124 16.1 9.3749 15.9 9.1749C15.7 8.9749 15.4625 8.8749 15.1875 8.8749C14.9125 8.8749 14.675 8.9749 14.475 9.1749L10.95 12.6999ZM12 21.9249H11.75C11.6667 21.9249 11.5917 21.9082 11.525 21.8749C9.34167 21.1916 7.54167 19.8374 6.125 17.8124C4.70833 15.7874 4 13.5499 4 11.0999V6.3749C4 5.95824 4.12083 5.58324 4.3625 5.2499C4.60417 4.91657 4.91667 4.6749 5.3 4.5249L11.3 2.2749C11.5333 2.19157 11.7667 2.1499 12 2.1499C12.2333 2.1499 12.4667 2.19157 12.7 2.2749L18.7 4.5249C19.0833 4.6749 19.3958 4.91657 19.6375 5.2499C19.8792 5.58324 20 5.95824 20 6.3749V11.0999C20 13.5499 19.2917 15.7874 17.875 17.8124C16.4583 19.8374 14.6583 21.1916 12.475 21.8749C12.3917 21.9082 12.2333 21.9249 12 21.9249ZM12 19.8999C13.7333 19.3499 15.1667 18.2499 16.3 16.5999C17.4333 14.9499 18 13.1166 18 11.0999V6.3749L12 4.1249L6 6.3749V11.0999C6 13.1166 6.56667 14.9499 7.7 16.5999C8.83333 18.2499 10.2667 19.3499 12 19.8999Z"
            fill="#1A1E00" />
    </g>
</svg>
    