<svg width="192" height="192" viewBox="0 0 192 192" fill="none" xmlns="http://www.w3.org/2000/svg">
<g clip-path="url(#clip0_5168_51479)">
<path d="M96 192C149.019 192 192 149.019 192 96C192 42.9807 149.019 0 96 0C42.9807 0 0 42.9807 0 96C0 149.019 42.9807 192 96 192Z" fill="white"/>
<path d="M71.4737 82.0727C71.6194 79.5797 73.8355 79.1809 75.0854 79.8942C76.5271 80.715 79.2033 80.1013 79.142 83.5991C78.9733 93.3715 78.3368 103.113 78.0071 112.87C77.9457 114.75 77.0332 115.708 75.5225 114.995C74.2573 114.404 74.5257 115.823 73.8739 115.693C72.7466 114.527 72.9307 112.909 72.4169 111.536C72.3402 111.029 71.558 111.489 72.0565 111.405C72.1715 111.39 72.2175 111.436 72.2558 111.528C72.6469 112.471 73.038 113.407 71.9951 114.213C70.5918 111.505 71.397 108.667 71.5044 105.875C71.7037 104.655 71.0519 103.819 70.2391 103.06C69.986 102.937 69.7176 102.822 69.4492 102.753C68.8128 102.714 68.4447 103.152 68.0689 103.527C68.0229 104.624 69.3035 103.972 69.5566 104.655C69.917 105.031 70.2161 105.422 69.871 105.967C68.6824 111.835 63.8667 115.225 57.709 115.371C54.335 115.448 51.1603 116.399 47.8169 114.55C45.7771 113.422 44.1744 111.95 42.4414 110.546C42.196 108.053 40.0489 106.527 39.2667 104.31C37.549 104.279 37.5643 105.445 37.618 106.657C37.6794 107.907 37.7101 109.158 37.7714 110.408C38.0091 115.049 36.7668 115.923 32.3806 114.174C30.7472 112.632 31.0693 110.784 31.5447 108.912C31.9741 108.137 31.9128 107.286 31.9128 107.179C31.8975 105.936 31.0386 106.396 31.5524 106.358C31.7288 106.343 31.8821 106.527 31.8821 106.78C31.8821 107.378 31.9511 108.015 31.284 108.368C29.7657 107.961 30.0877 106.511 29.643 105.491C28.8455 102.584 30.3561 99.3853 28.5234 96.6085C28.439 96.3784 28.4467 96.1559 28.5617 95.9335C29.3746 94.7446 28.8455 93.3869 29.0448 92.1212C29.2289 90.7328 29.6583 89.3598 29.2596 87.9484C29.2365 86.6751 28.7458 85.3327 29.8577 84.2511C29.8423 83.1236 30.8776 82.7477 31.4297 82.0267C34.1213 80.8991 35.4249 82.7937 36.8282 84.4889C37.549 87.4114 36.9892 90.4337 37.457 93.4866C39.0827 91.2237 40.6777 89.076 42.1807 86.9052C43.2542 85.3557 44.3661 84.0824 45.9688 83.369C48.2233 82.3642 50.0944 81.459 48.4457 78.4752C47.8629 77.4166 48.6451 76.9411 49.78 76.918C51.4287 76.8797 53.0774 76.6956 54.7337 76.6035C56.8885 76.4808 58.3608 76.9948 57.2106 79.5797C56.6968 80.7303 56.7428 81.7275 58.0541 81.9653C65.109 83.208 68.5444 88.2706 71.535 94.1999C71.535 91.2237 71.535 88.2552 71.535 85.279C72.2712 84.1975 72.2942 83.1312 71.4737 82.0727Z" fill="black"/>
<path d="M29.1994 134.24C26.04 134.976 24.2763 132.713 22.2519 131.011C21.4697 131.133 20.7642 131.003 20.2504 130.336C15.9102 122.964 13.1419 115.025 11.6312 106.626C12.2907 105.061 11.2938 103.557 11.4779 102.008C11.2862 92.4044 11.3705 82.7931 16.3396 74.1483C18.7935 69.8758 20.1508 64.9052 24.1613 61.5608C24.7824 61.0392 25.2579 60.5713 26.086 60.7017C26.2854 60.8858 26.5231 60.9932 26.7992 61.0162C27.0522 60.9088 27.2593 60.7477 27.4203 60.5253C27.6274 60.3412 27.8498 60.1878 28.0951 60.0727C28.4786 59.9117 28.862 59.7659 29.2224 59.5665C29.4831 59.4514 29.7592 59.4131 30.0429 59.4437C30.3113 59.5435 30.526 59.7122 30.6947 59.95C30.9784 63.3097 27.5507 64.6751 26.6918 67.4212C25.8943 67.751 25.672 68.472 25.4879 69.2161C21.14 75.6594 18.7091 82.9235 18.0956 90.5097C17.4362 98.6559 18.5864 106.633 23.1184 113.951C25.879 118.408 28.1488 123.079 31.8986 126.914C33.5166 128.564 33.0565 131.241 32.259 133.511C31.1855 133.496 30.503 135.176 29.1994 134.24Z" fill="#7B4595"/>
<path d="M92.9609 118.17C93.9041 119.382 93.4133 120.571 92.7768 121.645C91.3275 124.115 89.7708 126.516 88.2602 128.947C87.1943 129.615 86.1361 129.837 85.1085 128.863C83.5212 127.114 84.7558 124.889 85.4612 123.923C90.2463 117.334 89.6175 109.211 92.1327 102.023C92.6081 100.512 92.6158 99.0012 92.1327 97.4901C91.2585 91.2999 89.4488 85.5009 85.6069 80.4153C84.4874 78.9349 83.6208 77.1936 83.5518 75.207C83.4598 72.5913 81.7805 70.9037 79.6027 70.152C77.1488 69.3082 77.2255 67.9889 78.0153 66.1326C77.8466 65.542 77.7316 64.9667 78.23 64.4604C78.7361 64.4834 79.0889 64.2917 79.2269 63.7854C79.4569 63.0107 79.0505 61.699 80.6609 62.0979C82.1025 61.3922 83.7282 62.6348 85.1468 61.6837C86.0057 61.4305 86.7572 61.7067 87.455 62.1899C88.7586 68.0273 93.2753 72.4992 94.4945 78.3135C95.5144 83.146 98.3594 87.6027 97.5312 92.8187C98.2904 94.3144 98.1523 95.9329 98.16 97.5361C97.9529 99.5611 98.6814 101.694 97.4545 103.596C96.5496 105.537 97.0711 107.677 96.5727 109.671C96.0205 110.346 95.2153 110.829 94.993 111.757C94.7399 112.594 94.3488 113.399 94.3412 114.304C94.0574 115.04 93.7737 115.784 93.49 116.521C93.1372 117.012 93.2139 117.641 92.9609 118.17Z" fill="#BE1682"/>
<path d="M172.334 100.489C173.784 97.8123 175.241 95.1199 178.814 94.9512C180.003 94.8975 181.153 94.9588 180.984 96.6924C180.632 100.351 176.337 105.353 172.472 106.557C171.729 106.204 171.223 105.682 171.215 104.808C171.491 103.343 171.284 101.747 172.334 100.489Z" fill="#BF1883"/>
<path d="M170.172 105.959C169.527 105.698 168.96 105.023 168.185 105.867C167.035 107.117 165.77 108.336 164.06 106.618C163.554 106.112 163.17 106.503 162.733 106.657C161.706 107.017 160.716 109.119 159.704 107.408C158.968 106.166 161.008 105.537 161.836 104.747C163.569 103.105 163.853 100.528 165.724 98.8096C167.626 100.888 164.857 102.936 165.931 104.938C168.063 104.049 167.917 101.732 169.167 100.413C170.854 100.045 170.9 101.433 171.337 102.415C171.421 102.783 171.429 103.159 171.391 103.535C171.015 104.355 171.023 105.376 170.172 105.959Z" fill="#BF1883"/>
<path d="M131.8 103.565C135.313 107.331 140.872 106.142 143.326 101.041C143.916 99.8139 144.277 98.4792 144.745 97.1982C147.122 98.1264 145.174 100.727 146.616 102.015C147.444 101.409 149.031 100.719 149.139 101.647C149.292 102.951 147.927 105.268 146.654 104.746C143.349 103.396 141.647 106.656 138.986 106.717C137.306 107.208 135.619 107.162 133.932 106.733C130.727 106.234 129.615 104.416 130.504 101.325C132.33 101.256 130.942 103.059 131.8 103.565Z" fill="#C01A84"/>
<path d="M142.09 92.8501C143.693 90.4416 146.338 89.8202 148.631 88.6926C151.798 87.1355 155.08 85.8008 158.347 84.4585C158.906 84.2284 159.796 83.4766 160.248 84.5659C160.594 85.4019 160.594 86.3378 159.52 86.8057C153.868 89.2679 148.109 91.4004 142.09 92.8501Z" fill="#BF1984"/>
<path d="M146.008 109.425C145.893 111.097 145.034 112.631 144.083 111.903C142.534 110.714 140.026 113.582 139.367 110.553C139.022 108.965 140.601 108.919 141.468 108.328C142.327 110.714 145.034 107.584 146.008 109.425Z" fill="#C3258A"/>
<path d="M154.859 105.183C155.871 104.324 155.234 103.718 154.613 102.997C153.593 101.816 152.627 100.558 154.138 99.0469C155.104 99.2386 155.664 100.167 156.622 100.382C157.09 100.52 157.535 100.696 157.941 100.98C158.493 101.463 158.187 102.23 158.547 102.775C157.872 104.585 156.385 105.651 154.92 106.733C154.406 106.234 154.46 105.713 154.859 105.183Z" fill="#BF1984"/>
<path d="M36.7969 84.4965C34.4504 84.8723 33.8216 81.505 31.3984 82.0342C31.9506 80.8836 32.265 79.2344 34.0133 79.6563C36.5055 80.247 37.3491 82.0265 36.7969 84.4965Z" fill="#7B7B7B"/>
<path d="M28.5 96.6162C29.8803 96.6622 29.9953 97.5444 29.9877 98.6643C29.98 101.042 30.0873 103.42 30.141 105.79C30.0873 106.918 31.3143 108.429 29.1978 108.943C28.9678 104.839 28.73 100.728 28.5 96.6162Z" fill="#979797"/>
<path d="M85.1158 128.862C86.1664 128.893 87.217 128.924 88.2675 128.947C87.9991 130.734 86.5191 130.918 85.1695 131.279C84.0346 131.777 82.9994 132.023 82.6543 130.358C82.9304 128.97 83.9043 128.717 85.1158 128.862Z" fill="#E4A0CB"/>
<path d="M39.2441 104.302C41.3606 105.268 41.5216 107.876 43.3084 109.18C43.7224 109.479 43.0553 110.277 42.4188 110.538C40.31 108.996 39.3055 106.887 39.2441 104.302Z" fill="#656565"/>
<path d="M97.5078 97.5204C97.5155 95.9556 97.5308 94.3832 97.5385 92.8184C100.337 95.7792 98.3667 99.3921 98.8728 102.66C97.6305 103.028 97.8912 102.054 97.8145 101.44C97.6535 100.136 98.0753 98.7861 97.5078 97.5204Z" fill="#E8ACD2"/>
<path d="M82.6525 130.366C83.266 131.287 84.2705 131.133 85.1677 131.287C84.8993 132.552 84.4469 133.856 82.9132 133.634C82.2307 133.534 81.4102 132.606 81.1265 131.877C80.6434 130.619 81.8473 130.581 82.6525 130.366Z" fill="#F8ECF4"/>
<path d="M32.1674 108.912C32.2288 110.668 32.2978 112.417 32.3591 114.174C29.8363 113.714 28.847 112.203 29.3225 109.71C30.0586 109.548 30.7411 109.295 31.3316 108.797C31.6383 108.651 31.9144 108.682 32.1674 108.912Z" fill="#6A6A6A"/>
<path d="M29.8285 84.2581C29.8209 85.6311 29.8055 87.0041 29.7978 88.3849C29.3147 88.707 28.8623 88.6993 28.4482 88.2544C28.1875 87.1959 27.7581 86.145 27.6967 85.0711C27.5664 82.839 28.5939 83.1535 29.8285 84.2581Z" fill="#595859"/>
<path d="M29.8631 92.7193C30.2312 94.1307 29.9091 95.2506 28.5288 95.9409C28.0074 94.169 26.8188 92.3971 28.4521 90.5945C30.4229 90.3107 29.0273 92.259 29.8631 92.7193Z" fill="#3D3D3D"/>
<path d="M69.8471 105.958C69.5864 105.682 69.3333 105.406 69.0726 105.13C68.6738 103.872 68.7275 102.752 70.0158 102C72.1553 102.66 72.8071 103.895 71.4881 105.874C70.867 104.485 70.3992 105.989 69.8471 105.958Z" fill="#111111"/>
<path d="M146.615 102.016C144.913 100.827 146.132 98.5105 144.744 97.1988C144.967 96.4625 144.537 95.1815 145.902 95.3349C146.861 95.4423 146.684 96.4548 146.684 97.1605C146.7 98.779 146.646 100.397 146.615 102.016Z" fill="#BB0A7C"/>
<path d="M158.54 102.775C158.333 102.277 158.134 101.771 157.927 101.272C157.283 100.451 156.362 99.9373 155.611 99.2316C155.404 98.9094 155.419 98.5949 155.642 98.2958C159.683 98.2651 159.767 98.4108 158.54 102.775Z" fill="#BB087A"/>
<path d="M154.86 105.184C154.875 105.698 154.891 106.211 154.906 106.733C153.71 107.914 152.353 108.528 150.436 107.991C151.463 106.181 153.679 106.457 154.86 105.184Z" fill="#B50071"/>
<path d="M170.831 103.619C170.839 103.343 170.839 103.059 170.847 102.783C170.517 101.771 170.379 100.766 170.908 99.7764C171.383 100.014 171.867 100.252 172.342 100.49C172.304 101.978 172.572 103.52 171.66 104.87C170.341 105.138 170.563 104.394 170.831 103.619Z" fill="#FDFAFC"/>
<path d="M31.6302 108.851C31.3158 110.362 30.9707 111.788 29.3297 109.702C29.2914 109.449 29.253 109.196 29.207 108.943C30.2192 108.099 29.8052 106.833 30.1502 105.79C30.8634 106.396 30.3956 107.639 31.4002 108.099C31.6609 108.199 31.7759 108.352 31.7606 108.536C31.7376 108.751 31.6916 108.851 31.6302 108.851Z" fill="#494949"/>
<path d="M131.982 99.0245C132.627 97.4597 133.6 96.2861 136.054 95.7568C134.835 97.5594 133.976 98.8021 132.604 99.6305C132.297 99.5231 132.09 99.3237 131.982 99.0245Z" fill="#C3278B"/>
<path d="M11.4914 102.009C12.7874 103.505 12.6953 105.046 11.6448 106.627C11.1693 105.1 10.5482 103.581 11.4914 102.009Z" fill="#764091"/>
<path d="M94.3559 114.305C92.7149 113.261 93.9495 112.287 94.4249 111.298C94.9311 110.815 95.4372 110.784 95.9356 111.313C95.8589 112.548 95.9049 113.844 94.3559 114.305Z" fill="#EBB8D9"/>
<path d="M29.958 58.2321C30.4257 55.4553 31.9747 58.4161 32.7952 57.4266C32.4808 58.6079 31.5453 58.7537 30.8321 59.1832C30.5254 59.467 30.1957 59.49 29.8506 59.2446C29.6512 58.8841 29.6896 58.5466 29.958 58.2321Z" fill="#C0A6CC"/>
<path d="M97.507 97.5205C99.0636 98.9396 97.1926 101.271 98.8719 102.66C98.6802 103.381 98.1281 103.573 97.4609 103.596C97.4763 101.571 97.4916 99.5455 97.507 97.5205Z" fill="#F6E1EF"/>
<path d="M131.984 99.0244C132.191 99.2238 132.398 99.431 132.597 99.6304C132.329 100.942 132.061 102.254 131.8 103.565C131.37 102.821 130.933 102.07 130.504 101.326C130.765 100.405 130.979 99.4616 131.984 99.0244Z" fill="#C01B85"/>
<path d="M71.9793 114.212C72.0483 112.993 71.6572 111.719 72.7078 110.17C73.1372 112.233 73.4976 113.967 73.858 115.693C73.2369 115.202 72.6081 114.703 71.9793 114.212Z" fill="#BBBBBB"/>
<path d="M155.64 98.2957C155.64 98.5258 155.64 98.756 155.64 98.9937C156.476 99.5614 157.273 100.144 156.414 101.287C154.927 101.287 154.689 100.014 154.137 99.0551C154.367 98.2574 154.865 98.0042 155.64 98.2957Z" fill="#BB087A"/>
<path d="M29.8639 92.7189C29.3962 92.0055 28.9207 91.2998 28.453 90.5865C28.9054 89.8041 28.637 89.0217 28.4453 88.2393C28.8977 88.2853 29.3425 88.3313 29.7949 88.3696C29.8179 89.8271 29.8409 91.2768 29.8639 92.7189Z" fill="#AAAAAA"/>
<path d="M71.4727 82.0723C73.4127 83.1155 73.8958 84.1817 71.511 85.2786C71.4957 84.2124 71.4803 83.1385 71.4727 82.0723Z" fill="#585858"/>
<path d="M78.2376 64.4534C78.1685 65.0133 78.0919 65.5656 78.0229 66.1255C77.1257 65.2741 75.9831 64.5914 75.9141 62.5127C76.9033 63.3411 77.5704 63.9011 78.2376 64.4534Z" fill="#E4A0CC"/>
<path d="M80.6688 62.0897C80.1933 62.6497 79.7102 63.2173 79.2348 63.7773C78.606 63.0025 77.9388 62.2432 78.1229 61.0389C79.1658 60.9085 79.9556 61.3917 80.6688 62.0897Z" fill="#D25FA8"/>
<path d="M170.831 103.619C171.054 104.072 170.923 104.754 171.652 104.869C171.928 105.429 172.204 105.997 172.472 106.557C171.621 106.672 170.709 107.025 170.172 105.959C170.256 105.138 170.042 104.24 170.831 103.619Z" fill="#BA0479"/>
<path d="M29.1973 134.241C30.3322 134.463 30.7463 131.663 32.2646 133.504C31.4671 134.678 30.6466 135.767 29.1973 134.241Z" fill="#E4D9E9"/>
<path d="M92.1309 97.4824C93.1738 98.9935 93.1738 100.505 92.1309 102.016C92.1309 100.505 92.1309 98.9935 92.1309 97.4824Z" fill="#B20774"/>
<path d="M133.924 106.733C135.611 106.725 137.29 106.725 138.977 106.718C137.298 107.715 135.611 107.723 133.924 106.733Z" fill="#C01B85"/>
<path d="M20.2559 130.328C20.9767 130.389 21.7512 130.29 22.2573 131.003C22.1883 131.463 22.1116 131.924 22.0426 132.384C21.107 131.993 20.6239 131.21 20.2559 130.328Z" fill="#9267A7"/>
<path d="M87.4605 62.1821C86.686 62.0517 85.7351 62.7037 85.1523 61.6759C85.2674 61.231 85.4054 60.4025 85.4898 60.4102C86.571 60.4792 87.0234 61.3384 87.4605 62.1821Z" fill="#E39FCB"/>
<path d="M95.9267 111.305C95.4206 111.297 94.9221 111.297 94.416 111.289C94.6231 110.07 95.5203 109.763 96.5708 109.663C96.7165 110.353 96.5401 110.913 95.9267 111.305Z" fill="#DB80BA"/>
<path d="M25.4927 69.2165C24.8869 67.9431 24.5035 66.8232 26.6966 67.4215C26.5969 68.2193 26.1828 68.8099 25.4927 69.2165Z" fill="#AD8CBD"/>
<path d="M170.899 99.7761C170.884 100.781 170.861 101.778 170.838 102.783C169.971 102.208 170.354 100.75 169.158 100.405C169.519 99.5844 170.209 99.6841 170.899 99.7761Z" fill="#BA0679"/>
<path d="M29.9584 58.2324C29.9661 58.5392 29.9661 58.8461 29.9737 59.1529C30.1808 59.3063 30.2575 59.4674 30.1961 59.6361C30.1348 59.8049 30.0657 59.8893 30.0044 59.8893C29.736 59.9123 29.46 59.9276 29.1916 59.9506C29.0535 60.0427 28.9155 60.1424 28.7698 60.2344C28.6164 60.1731 28.4554 60.104 28.302 60.0427C28.118 59.7128 28.1793 59.429 28.4631 59.1836C28.9615 58.8691 29.46 58.5546 29.9584 58.2324Z" fill="#9469A9"/>
<path d="M92.959 118.171C92.6139 117.45 92.8133 116.905 93.4958 116.521C93.5725 117.15 93.5725 117.764 92.959 118.171Z" fill="#EAB4D6"/>
<path d="M27.779 60.702C27.4722 60.8937 27.1655 61.0855 26.8588 61.2696C26.6824 61.1469 26.6057 61.0088 26.6211 60.8477C26.6364 60.679 26.6671 60.5946 26.7131 60.5946C26.7438 60.3875 26.7898 60.188 26.8511 59.9886C26.9815 59.8735 27.1042 59.7508 27.2345 59.6357C27.4032 59.6894 27.5643 59.7431 27.733 59.7892C27.9093 59.9886 27.9707 60.188 27.9247 60.3951C27.8787 60.6022 27.8327 60.702 27.779 60.702Z" fill="#D9C8DF"/>
<path d="M30.0041 59.8887C29.9735 59.6433 29.9658 59.3978 29.9735 59.1523C30.2572 59.16 30.5409 59.1754 30.8246 59.183C30.7863 59.4362 30.7403 59.6893 30.702 59.9424C30.4642 59.9501 30.2342 59.9348 30.0041 59.8887Z" fill="#BB9FC8"/>
<path d="M28.4631 59.1904C28.4477 59.3975 28.4247 59.597 28.394 59.8041C28.187 60.2106 27.9339 60.249 27.6272 59.9115L27.6809 59.9651C27.4508 59.8347 27.3665 59.6813 27.4125 59.5203C27.4662 59.3438 27.5275 59.2595 27.5965 59.2595C27.8879 59.2288 28.1717 59.2058 28.4631 59.1904Z" fill="#C8AFD1"/>
<path d="M27.5945 59.2448C27.6328 59.4826 27.6635 59.7127 27.6788 59.9505C27.4028 59.9581 27.1344 59.9658 26.8583 59.9812L26.8736 59.9351C26.6743 59.659 26.7203 59.4289 26.981 59.2218C27.188 59.1681 27.3874 59.1757 27.5945 59.2448Z" fill="#9165A6"/>
<path d="M26.9823 59.2295C26.944 59.4673 26.9056 59.7051 26.875 59.9429C26.2002 59.5977 26.2922 59.3676 26.9823 59.2295Z" fill="#D1B8D6"/>
<path d="M26.7129 60.5947C26.7896 60.8172 26.8356 61.0396 26.851 61.2774C26.3219 61.4615 26.1685 61.1317 26.0918 60.7098C26.3065 60.6714 26.5136 60.6331 26.7129 60.5947Z" fill="#EDE6F0"/>
<path d="M55.4246 109.188C49.2976 109.403 45.3715 106.143 44.7043 98.135C44.3286 93.6707 48.6995 88.2936 52.1426 88.355C61.1222 88.5238 65.0637 91.9832 65.1404 99.7766C65.2017 105.299 61.2142 109.165 55.4246 109.188Z" fill="#FDFDFD"/>
<path d="M35.2174 87.1738C36.4366 88.6696 36.1989 89.7281 35.9765 90.9861C34.926 90.035 34.7496 89.0455 35.2174 87.1738Z" fill="#525252"/>
<path d="M70.0149 102C69.7005 103.043 69.3861 104.086 69.0717 105.13C68.5349 104.769 67.9981 104.424 67.469 104.048C67.4153 104.01 67.4153 103.803 67.4613 103.726C67.515 103.649 67.6607 103.626 67.7681 103.588C68.3892 103.043 68.3815 101.693 69.7235 102.077L70.0149 102Z" fill="#848484"/>
<path d="M69.7267 102.069C69.1822 102.706 68.9062 103.703 67.7712 103.581C67.6332 102.53 67.7866 101.525 68.8755 101.126C69.4429 100.919 69.7037 101.517 69.7267 102.069Z" fill="#CDCDCD"/>
<path d="M32.986 101.54C32.848 101.985 32.8557 102.606 32.1578 102.484C31.5597 102.384 31.4754 101.839 31.5827 101.364C31.6517 101.08 31.9201 100.673 32.1655 100.62C32.8557 100.474 32.8633 101.087 32.986 101.54Z" fill="#5E5E5E"/>
<path d="M31.6283 108.85C31.5517 108.597 31.475 108.344 31.3906 108.098C31.613 107.285 31.1069 106.296 31.9964 105.605C32.6789 106.695 32.1805 107.815 32.1651 108.912C31.9811 108.919 31.8047 108.904 31.6283 108.85Z" fill="#8C8C8C"/>
<path d="M27.625 59.9043C27.8781 59.8659 28.1388 59.8352 28.3918 59.7969L28.4609 60.027C28.6066 60.1727 28.6602 60.3185 28.6065 60.4642C28.5529 60.61 28.5069 60.679 28.4532 60.679C28.2308 60.6867 28.0008 60.6943 27.7784 60.6943C27.7247 60.4412 27.6787 60.1727 27.625 59.9043Z" fill="#85549D"/>
<path d="M28.4543 60.6871C28.4466 60.4724 28.4466 60.2499 28.4619 60.0351C28.6996 59.9584 28.945 59.9354 29.1981 59.9508C28.945 60.1962 28.6996 60.4417 28.4543 60.6871Z" fill="#7B4594"/>
<path d="M177.258 97.4905C177.749 97.4828 178.293 97.4061 178.492 98.0121C178.738 98.7561 175.494 102.684 174.559 102.791C174.037 102.852 173.546 102.806 173.37 102.193C173.063 101.172 175.993 97.6439 177.258 97.4905Z" fill="#F9EDF5"/>
<path d="M156.415 101.287C156.154 100.52 155.901 99.7609 155.641 98.9939C157.343 98.8174 158.148 99.5308 157.926 101.28C157.42 101.28 156.921 101.28 156.415 101.287Z" fill="#C3278B"/>
</g>
<defs>
<clipPath id="clip0_5168_51479">
<rect width="192" height="192" fill="white"/>
</clipPath>
</defs>
</svg>
