<svg width="192" height="192" viewBox="0 0 192 192" fill="none" xmlns="http://www.w3.org/2000/svg">
<g clip-path="url(#clip0_4927_33210)">
<path d="M96 192C149.019 192 192 149.019 192 96C192 42.9807 149.019 0 96 0C42.9807 0 0 42.9807 0 96C0 149.019 42.9807 192 96 192Z" fill="white"/>
<g clip-path="url(#clip1_4927_33210)">
<path d="M111.377 95.262C116.861 98.3639 118.722 102.782 117.068 108.461C115.891 112.498 112.717 115.106 108.506 115.269C105.133 115.401 101.753 115.289 98.3768 115.345C97.1002 115.365 96.623 114.848 96.627 113.583C96.6508 101.927 96.6508 90.271 96.627 78.6189C96.627 77.3463 97.1082 76.8373 98.3808 76.8612C101.359 76.9128 104.342 76.8413 107.321 76.9009C111.795 76.9884 114.964 79.3029 115.974 83.1286C117.271 88.048 115.748 92.4822 111.974 94.7728C111.807 94.8722 111.671 95.0194 111.377 95.266V95.262ZM98.0666 105.029C98.0666 107.411 98.0905 109.793 98.0547 112.171C98.0388 113.261 98.3171 113.961 99.5857 113.937C102.497 113.886 105.42 114.053 108.311 113.818C113.322 113.416 116.229 109.925 116.09 104.81C115.942 99.4377 113.004 96.3636 107.762 96.2005C105.185 96.121 102.6 96.2244 100.023 96.1448C98.5915 96.1011 97.9791 96.5823 98.0388 98.0816C98.1262 100.392 98.0626 102.711 98.0626 105.025L98.0666 105.029ZM98.0666 86.3936C98.0666 88.6485 98.0865 90.8994 98.0586 93.1542C98.0467 94.1803 98.341 94.8007 99.5102 94.7768C101.896 94.7331 104.294 94.8921 106.665 94.6973C112.367 94.228 114.392 92.4623 114.793 87.1691C115.183 82.0549 113.012 78.77 108.132 78.3604C105.3 78.1218 102.437 78.2968 99.5857 78.261C98.4842 78.2451 98.0427 78.7501 98.0586 79.8318C98.0905 82.0191 98.0666 84.2064 98.0666 86.3936Z" fill="black"/>
<path d="M84.7916 96.6854C89.5797 97.8506 90.6734 101.203 90.9279 105.188C91.1148 108.155 91.0353 111.145 91.5761 114.088C91.6596 114.541 91.8505 115.074 91.1745 115.198C90.6177 115.297 90.3194 114.875 90.1842 114.406C89.7508 112.871 89.6195 111.284 89.5638 109.698C89.4843 107.383 89.544 105.065 89.0747 102.774C88.4503 99.7277 86.784 98.2006 83.7258 97.7671C80.6239 97.3257 77.5101 97.5047 74.4002 97.4092C72.9765 97.3655 72.5748 97.966 72.5867 99.2982C72.6384 103.736 72.6066 108.178 72.6026 112.617C72.6026 113.213 72.5947 113.81 72.5271 114.402C72.4793 114.816 72.2686 115.166 71.7556 115.098C71.342 115.043 71.2624 114.689 71.2306 114.366C71.1829 113.905 71.1749 113.44 71.1749 112.979C71.1749 101.78 71.2227 90.581 71.1272 79.3822C71.1113 77.3182 71.7953 76.7416 73.7519 76.837C76.7266 76.9842 79.7172 76.837 82.6958 76.9126C86.9789 77.024 89.9138 79.4816 90.9199 83.6374C91.3335 85.3395 91.421 87.0575 91.2023 88.7715C90.7211 92.5376 88.9315 95.3691 84.7837 96.6934L84.7916 96.6854ZM72.6146 86.9581C72.6146 89.4038 72.6543 91.8496 72.5987 94.2954C72.5708 95.5799 73.0878 96.077 74.3564 96.0452C76.6033 95.9855 78.8542 96.081 81.0972 95.9895C86.4659 95.7708 89.5082 92.9989 89.7786 87.6461C90.049 82.3092 87.9135 78.209 81.4829 78.2647C79.1048 78.2846 76.7226 78.3045 74.3445 78.2528C73.0679 78.225 72.5668 78.7419 72.5987 80.0185C72.6543 82.3291 72.6146 84.6436 72.6146 86.9581Z" fill="black"/>
<path d="M161.688 96.7053C166.52 97.9222 167.459 101.458 167.701 105.55C167.868 108.385 167.781 111.245 168.318 114.056C168.401 114.498 168.628 115.035 167.96 115.19C167.403 115.317 167.093 114.911 166.954 114.442C166.496 112.911 166.389 111.32 166.321 109.737C166.222 107.49 166.306 105.24 165.872 103.009C165.232 99.7078 163.617 98.2045 160.324 97.7512C157.286 97.3296 154.24 97.5126 151.198 97.4131C149.814 97.3694 149.328 97.8904 149.348 99.2624C149.404 103.701 149.368 108.143 149.364 112.581C149.364 113.177 149.352 113.774 149.297 114.366C149.257 114.784 149.066 115.146 148.557 115.106C148.147 115.074 148.032 114.736 148 114.402C147.952 113.877 147.941 113.344 147.941 112.815C147.941 101.684 147.984 90.5491 147.897 79.4179C147.881 77.4136 148.462 76.7217 150.482 76.829C153.389 76.9881 156.312 76.841 159.227 76.9006C163.832 76.9961 166.807 79.4498 167.733 83.9913C168.493 87.7057 168.179 91.261 165.61 94.3072C164.647 95.4486 163.295 96.0292 161.696 96.7092L161.688 96.7053ZM149.364 87.1052C149.364 89.4197 149.42 91.7342 149.344 94.0448C149.297 95.4645 149.75 96.1127 151.257 96.0491C153.437 95.9576 155.62 96.0729 157.799 95.9894C163.255 95.7787 166.357 92.9074 166.544 87.4949C166.727 82.2296 164.659 78.1652 158.089 78.2567C155.974 78.2845 153.854 78.3482 151.746 78.2328C149.989 78.1374 149.201 78.6584 149.332 80.5593C149.48 82.7307 149.368 84.9179 149.368 87.1012L149.364 87.1052Z" fill="black"/>
<path d="M48.9604 114.375C48.9922 114.721 48.9683 115.047 48.5547 115.154C48.1888 115.249 47.8786 115.106 47.7315 114.78C47.4849 114.243 47.2583 113.687 47.0793 113.122C46.2044 110.342 45.3017 107.57 44.4983 104.77C44.1364 103.502 43.52 102.933 42.1242 102.965C38.4178 103.048 34.7034 103.068 30.997 102.957C29.3983 102.909 28.591 103.422 28.1575 104.977C27.3184 107.972 26.3202 110.923 25.3698 113.885C25.1789 114.482 25.0755 115.428 24.1847 115.118C23.2779 114.8 23.8705 113.961 24.0455 113.408C27.6684 101.847 31.3191 90.2908 34.9818 78.7381C35.2283 77.9626 35.2999 76.8888 36.489 76.9604C37.5269 77.0241 37.5747 78.0143 37.8013 78.7301C41.4521 90.2828 45.0829 101.844 48.7178 113.404C48.8172 113.718 48.8848 114.044 48.9643 114.367L48.9604 114.375ZM36.6003 79.2789C36.4612 79.2869 36.3259 79.2948 36.1867 79.3028C35.3397 82.011 34.4886 84.7232 33.6455 87.4314C32.369 91.5435 31.0805 95.6516 29.8357 99.7716C29.6091 100.523 29.0364 101.577 30.6152 101.585C34.4608 101.597 38.3024 101.585 42.148 101.581C43.19 101.581 43.3411 101.04 43.0627 100.137C40.8953 93.1859 38.7518 86.2304 36.6003 79.2789Z" fill="black"/>
<path d="M120.249 115.201C119.509 115.138 119.549 114.653 119.676 114.183C119.97 113.098 120.289 112.016 120.627 110.946C123.975 100.336 127.328 89.7297 130.68 79.1235C130.76 78.869 130.819 78.6105 130.923 78.3679C131.197 77.7117 131.336 76.8845 132.315 76.9521C133.158 77.0078 133.309 77.7236 133.508 78.352C134.557 81.6329 135.607 84.9098 136.637 88.1947C139.194 96.3432 141.744 104.496 144.297 112.648C144.376 112.903 144.519 113.145 144.539 113.404C144.587 113.992 145.315 114.792 144.388 115.114C143.517 115.416 143.366 114.486 143.171 113.889C142.487 111.813 141.855 109.721 141.191 107.641C140.202 104.545 138.07 102.996 134.796 102.996C132.346 102.996 129.885 103.136 127.447 102.953C125.375 102.802 124.317 103.434 123.808 105.542C123.128 108.365 122.098 111.109 121.215 113.885C121.04 114.442 120.957 115.078 120.245 115.205L120.249 115.201ZM132.426 79.2547C132.295 79.2468 132.163 79.2428 132.032 79.2348C129.857 86.2937 127.674 93.3526 125.502 100.415C125.224 101.322 125.697 101.601 126.528 101.597C130.306 101.585 134.084 101.585 137.862 101.589C138.988 101.589 139.23 101.084 138.888 100.066C138.419 98.6855 138.029 97.2817 137.596 95.8898C135.874 90.3421 134.152 84.7984 132.426 79.2507V79.2547Z" fill="black"/>
<path d="M57.896 96.6932C57.896 101.99 57.896 107.287 57.896 112.585C57.896 113.181 57.884 113.778 57.8244 114.37C57.7846 114.788 57.5897 115.146 57.0807 115.102C56.6711 115.066 56.5518 114.724 56.5279 114.394C56.4802 113.734 56.4683 113.074 56.4683 112.41C56.4683 101.815 56.4285 91.2211 56.5001 80.6268C56.512 78.8253 56.0149 78.1174 54.1538 78.2287C51.9784 78.36 49.7872 78.2605 47.5999 78.2287C47.0869 78.2208 46.379 78.2168 46.3751 77.5288C46.3671 76.7891 47.1068 76.8846 47.596 76.8846C53.9509 76.8686 60.3099 76.8647 66.6649 76.8846C67.154 76.8846 67.9136 76.7613 67.9375 77.4731C67.9653 78.3162 67.1461 78.2287 66.5933 78.2367C64.3424 78.2725 62.0875 78.3162 59.8406 78.2407C58.3811 78.1929 57.8602 78.7378 57.8761 80.2052C57.9357 85.7012 57.8999 91.1972 57.8999 96.6932H57.896Z" fill="black"/>
</g>
</g>
<defs>
<clipPath id="clip0_4927_33210">
<rect width="192" height="192" fill="white"/>
</clipPath>
<clipPath id="clip1_4927_33210">
<rect width="145" height="38.716" fill="white" transform="translate(23.5 76.6426)"/>
</clipPath>
</defs>
</svg>
