<svg width="192" height="192" viewBox="0 0 192 192" fill="none" xmlns="http://www.w3.org/2000/svg">
<g clip-path="url(#clip0_4927_33245)">
<path d="M96 192C149.019 192 192 149.019 192 96C192 42.9807 149.019 0 96 0C42.9807 0 0 42.9807 0 96C0 149.019 42.9807 192 96 192Z" fill="white"/>
<path d="M67.5273 108.318C73.0195 97.4007 78.4574 86.5835 84.0666 75.4277C88.0667 83.3651 91.9329 91.0391 95.9539 99.0183C99.9497 91.0851 103.82 83.4111 107.841 75.4277C113.417 86.5166 118.855 97.3255 124.385 108.318H67.5273Z" fill="black"/>
<path d="M67.4922 42.4531H124.404C118.891 53.4166 113.453 64.2338 107.839 75.398C103.839 67.4606 99.9772 59.7991 95.9521 51.8116C91.9438 59.7657 88.0817 67.4313 84.0649 75.4021C78.4808 64.2965 73.0429 53.4919 67.4922 42.4573V42.4531Z" fill="black"/>
<path d="M130.217 141.58C131.174 138.479 132.127 135.687 132.875 132.841C133.239 131.457 133.882 131.018 135.262 131.135C136.758 131.265 138.271 131.164 139.909 131.164V148.966H135.792V135.75C135.675 135.729 135.558 135.712 135.441 135.691C134.706 138.044 133.97 140.398 133.243 142.755C132.687 144.544 132.085 146.324 131.617 148.138C131.308 149.342 130.434 149.033 129.648 149.096C128.841 149.158 128.319 149.012 128.056 148.072C127.036 144.464 125.92 140.887 124.833 137.3C124.691 136.832 124.507 136.377 124.06 135.971V148.974H120.578V131.19C122.576 131.19 124.582 131.152 126.589 131.236C126.856 131.248 127.216 131.846 127.333 132.235C128.152 134.868 128.913 137.522 129.703 140.164C129.82 140.548 129.978 140.92 130.217 141.58Z" fill="black"/>
<path d="M95.8636 89.6392C93.6233 85.0122 91.4623 80.5691 89.3474 76.1051C89.1802 75.7498 89.1885 75.173 89.3599 74.8178C91.479 70.4165 93.6442 66.0361 95.8929 61.4551C96.198 61.9399 96.4362 62.2534 96.6076 62.5961C98.5554 66.5084 100.516 70.4165 102.405 74.358C102.66 74.8888 102.802 75.7122 102.572 76.2013C100.541 80.5357 98.4133 84.8241 96.3067 89.1251C96.244 89.2504 96.1186 89.3466 95.8678 89.635L95.8636 89.6392Z" fill="black"/>
<path d="M97.441 141.396C98.5152 143.958 99.5393 146.395 100.668 149.087C99.1965 149.087 97.9175 149.145 96.6511 149.049C96.3083 149.024 95.8611 148.606 95.7023 148.255C95.1255 146.976 94.6448 145.651 94.1307 144.343C93.5093 142.754 92.2637 142.077 90.394 142.311V148.949H86.1641V131.164C87.7733 131.164 89.4159 131.156 91.0544 131.164C92.5131 131.172 93.976 131.147 95.4306 131.239C98.0137 131.402 99.602 132.669 100.254 134.967C100.948 137.421 100.208 139.406 98.0346 140.944C97.8716 141.062 97.7127 141.187 97.441 141.396ZM90.4567 134.441V138.784C91.7608 138.784 92.952 138.846 94.1349 138.767C95.4431 138.675 96.0743 137.768 96.0868 136.564C96.0993 135.398 95.4348 134.558 94.2226 134.462C92.998 134.366 91.7566 134.441 90.4567 134.441Z" fill="black"/>
<path d="M102.379 140.033C102.567 138.855 102.647 137.651 102.956 136.51C103.955 132.848 106.475 130.825 109.991 130.734C113.464 130.646 115.942 132.443 117.13 136.109C118.292 139.691 118.112 143.214 116.022 146.454C113.414 150.491 107.228 150.587 104.415 146.683C103.132 144.899 102.496 142.704 102.375 140.033H102.379ZM113.539 140.176C113.251 138.717 113.088 137.375 112.707 136.096C112.369 134.963 111.499 134.328 110.25 134.295C109.012 134.261 108.08 134.826 107.654 135.925C106.563 138.742 106.45 141.643 107.771 144.38C108.131 145.124 109.372 145.856 110.2 145.839C111.019 145.827 112.181 145.041 112.549 144.28C113.155 143.022 113.247 141.513 113.543 140.171L113.539 140.176Z" fill="black"/>
<path d="M157.996 149.02C157.377 149.05 156.963 149.083 156.554 149.087C153.611 149.121 153.574 149.129 152.679 146.341C152.42 145.539 152.044 145.234 151.241 145.317C150.827 145.359 150.41 145.325 149.992 145.325C146.853 145.325 146.873 145.334 145.732 148.226C145.586 148.594 145.08 148.995 144.692 149.05C143.831 149.175 142.94 149.087 141.883 149.087C142.037 148.49 142.134 148.046 142.272 147.62C143.864 142.617 145.486 137.622 147.032 132.606C147.358 131.549 147.797 131.118 148.972 131.139C152.479 131.202 152.474 131.148 153.519 134.533C154.986 139.294 156.462 144.055 158 149.02H157.996ZM149.691 136.473C149.578 136.464 149.469 136.46 149.356 136.452C148.796 138.303 148.232 140.155 147.659 142.044H151.371C150.777 140.084 150.234 138.278 149.691 136.473Z" fill="black"/>
<path d="M50.0879 149.087C48.7211 149.087 47.5257 149.175 46.3554 149.037C45.9666 148.991 45.4567 148.447 45.3146 148.025C44.3992 145.334 44.4285 145.325 41.5528 145.321C38.8485 145.321 38.8151 145.308 38.0251 147.871C37.7576 148.74 37.3898 149.221 36.3992 149.104C35.6844 149.02 34.9488 149.087 34 149.087C34.1672 148.431 34.2759 147.904 34.4389 147.394C36.0146 142.437 37.6238 137.488 39.1536 132.518C39.4629 131.515 39.8935 131.127 40.9969 131.135C44.5497 131.168 44.5497 131.118 45.5905 134.462C46.9363 138.784 48.2822 143.106 49.6239 147.428C49.7744 147.912 49.8998 148.406 50.0837 149.083L50.0879 149.087ZM43.5006 142.103C42.8862 140.042 42.3302 138.178 41.6406 135.871C40.9468 138.178 40.3741 140.071 39.7639 142.103H43.5006Z" fill="black"/>
<path d="M48.3086 131.169C49.784 131.169 50.9418 131.056 52.0578 131.215C52.6472 131.299 53.3912 131.725 53.6838 132.223C54.6911 133.953 55.5354 135.784 56.5845 137.861C57.4037 136.244 58.0767 134.927 58.7413 133.602C60.1331 130.831 60.2209 130.785 63.6316 131.383C62.8207 132.891 62.1603 134.409 61.2533 135.763C58.7956 139.424 57.4999 143.345 58.1227 147.792C58.1728 148.139 58.0892 148.507 58.06 148.975H53.8593C53.8593 147.073 53.9638 145.205 53.8217 143.357C53.7297 142.162 53.4664 140.9 52.9439 139.834C51.5521 137 49.9805 134.254 48.3128 131.169H48.3086Z" fill="black"/>
<path d="M64.8086 131.248H68.9758V145.572H75.9393V148.995H64.8086V131.248Z" fill="black"/>
<path d="M82.4272 149.037H78.4062V131.303H82.4272V149.037Z" fill="black"/>
<path d="M149.692 136.468C150.235 138.274 150.782 140.079 151.372 142.04H147.66C148.233 140.146 148.797 138.295 149.357 136.447C149.47 136.456 149.579 136.46 149.692 136.468Z" fill="white"/>
</g>
<defs>
<clipPath id="clip0_4927_33245">
<rect width="192" height="192" fill="white"/>
</clipPath>
</defs>
</svg>
