<svg width="192" height="192" viewBox="0 0 192 192" fill="none" xmlns="http://www.w3.org/2000/svg">
<g clip-path="url(#clip0_4968_32754)">
<path d="M96 192C149.019 192 192 149.019 192 96C192 42.9807 149.019 0 96 0C42.9807 0 0 42.9807 0 96C0 149.019 42.9807 192 96 192Z" fill="white"/>
<path d="M53.9949 75.0693C54.0549 78.4593 52.0749 79.0993 49.1349 78.9393C45.2749 78.7293 41.4749 79.0093 39.2949 82.8393C39.4549 83.9493 40.2149 83.8593 40.8249 83.9093C49.1349 84.6493 53.0649 88.5593 53.7249 96.7593C54.6349 108.039 54.6349 108.049 43.2549 108.039C38.4349 108.029 33.6149 108.089 28.7949 107.919C25.2449 107.789 23.0249 103.889 20.2649 103.579C17.5749 103.279 15.4549 107.909 11.8249 107.889C10.2249 107.879 7.75494 109.239 7.21494 106.599C6.60494 103.599 9.38493 104.439 10.9449 104.079C15.3949 103.069 17.8449 100.349 18.1449 95.7993C18.2449 94.3093 18.1949 92.8193 18.2049 91.3193C18.2249 89.9293 18.3349 88.5293 20.1449 88.4193C22.2149 88.2893 21.9549 89.8993 21.9949 91.1793C22.0449 92.6693 21.9249 94.1693 22.0549 95.6593C22.4949 100.459 25.9649 103.969 30.8149 104.159C36.1249 104.369 41.4549 104.159 46.7649 104.279C49.0849 104.329 49.8449 103.499 50.0249 101.139C50.6949 92.2593 46.8549 86.7993 37.4749 87.6593C36.0049 87.7893 33.6549 88.8693 33.0949 86.0093C33.5749 85.4093 33.1649 84.4293 33.9749 83.9693C35.6049 79.0893 39.9649 77.2693 43.9849 75.0693C47.3349 75.0693 50.6649 75.0693 53.9949 75.0693Z" fill="#E37E7E"/>
<path d="M69.974 116.929C65.114 113.929 61.244 110.309 61.804 103.929C61.914 102.699 61.424 101.009 63.524 101.019C65.274 101.029 64.874 102.509 65.084 103.589C66.494 110.939 69.044 113.029 76.584 113.069C80.074 113.089 83.574 113.039 87.064 113.079C89.134 113.099 91.054 112.669 92.684 111.399C94.564 109.929 96.504 108.009 95.844 105.599C95.154 103.059 92.444 104.499 90.634 104.269C88.994 104.059 87.304 104.319 85.654 104.189C84.314 104.089 82.254 104.899 82.074 102.669C81.884 100.239 84.034 101.079 85.354 100.889C86.004 100.789 86.684 100.899 87.344 100.829C93.084 100.199 96.614 96.389 96.834 90.589C96.894 88.929 96.864 87.269 96.924 85.609C96.964 84.659 97.494 84.079 98.484 84.089C99.464 84.099 99.974 84.699 100.034 85.639C100.094 86.469 100.014 87.309 100.134 88.119C100.964 93.849 98.054 99.279 99.704 105.369C101.184 110.799 95.904 113.929 91.944 116.929C84.624 116.929 77.294 116.929 69.974 116.929Z" fill="#E27D7D"/>
<path d="M168.844 116.93C168.114 115.48 165.914 114.2 168.104 112.36C169.054 111.56 170.384 111.52 171.224 112.51C172.964 114.57 171.074 115.68 169.844 116.92C169.514 116.93 169.184 116.93 168.844 116.93Z" fill="#E58888"/>
<path d="M143.065 112.899C143.315 112.899 143.565 112.909 143.815 112.919C145.045 114.089 146.715 114.679 147.875 115.949C147.875 116.279 147.875 116.599 147.865 116.929C144.865 116.929 141.875 116.929 138.875 116.929C138.895 116.569 138.905 116.199 138.925 115.839C140.325 114.859 141.625 113.779 143.065 112.899Z" fill="#FAE9E9"/>
<path d="M33.9946 83.9696C34.0346 84.7896 33.8746 85.5296 33.1146 86.0096C32.0746 85.0896 30.0846 86.4196 29.4446 84.1096C29.0246 82.5996 28.2846 81.1396 29.8546 80.3096C31.6346 79.3596 32.9546 80.1696 33.2146 82.3496C33.2846 82.9196 33.7246 83.4296 33.9946 83.9696Z" fill="#E58A8A"/>
<path d="M89.0445 85.7395C89.3645 85.7395 89.7245 85.8294 90.0045 85.7294C91.3845 85.1994 92.5745 83.3295 94.2745 85.1295C95.0345 85.9295 95.1645 86.8995 94.5845 87.8095C93.1545 90.0295 91.5145 88.6395 89.9045 88.0195C89.6245 87.9095 89.2645 87.9995 88.9345 87.9895C88.3745 87.2095 88.3745 86.4595 89.0445 85.7395Z" fill="#E48484"/>
<path d="M89.045 85.739C89.015 86.489 88.975 87.239 88.945 87.979C87.725 89.679 86.445 89.239 85.365 87.919C84.705 87.109 84.745 86.009 85.505 85.219C86.855 83.819 88.075 84.099 89.045 85.739Z" fill="#E48484"/>
<path d="M147.886 115.95C145.536 116.27 143.606 116.03 143.826 112.92C145.076 112.1 146.366 111.25 147.806 112.45C149.116 113.54 148.536 114.76 147.886 115.95Z" fill="#E48383"/>
<path d="M143.064 112.899C143.184 115.979 141.454 116.459 138.934 115.839C138.424 112.209 139.264 110.479 143.064 112.899Z" fill="#E68C8C"/>
<path fill-rule="evenodd" clip-rule="evenodd" d="M109.265 113.05C106.265 112.89 104.906 113.99 104.936 116.93H123.886C124.601 116.528 125.356 116.168 126.111 115.807C128.366 114.731 130.635 113.647 131.946 111.43C133.886 108.14 136.655 107.88 139.955 108C140.342 108.013 140.73 108.029 141.119 108.044C146.037 108.24 150.998 108.438 154.705 103.98C155.979 102.452 156.788 103.36 157.56 104.227C157.788 104.483 158.013 104.735 158.246 104.92C162.686 108.46 173.806 109.42 178.616 106.56C181.906 104.6 184.286 101.74 184.666 97.8902C184.926 95.2273 184.879 92.5347 184.832 89.8403C184.812 88.7099 184.793 87.5792 184.795 86.4502C184.795 85.2602 184.776 84.0702 183.076 84.0402C181.476 84.0102 181.156 85.0502 181.136 86.3202C181.121 87.4802 181.121 88.6427 181.121 89.8052C181.121 90.9677 181.121 92.1302 181.106 93.2902C180.986 101.49 177.976 104.29 169.316 104.25C161.286 104.22 157.935 101.02 157.865 93.3102C157.853 91.9183 157.852 90.5228 157.851 89.1281C157.85 88.198 157.85 87.2683 157.846 86.3402C157.836 85.1002 157.675 84.0002 156.015 84.0302C154.425 84.0602 154.126 85.1002 154.106 86.3602C154.086 88.0202 154.085 89.6802 154.085 91.3402C154.076 101.93 151.735 104.06 141.295 104.36C136.925 104.48 135.635 103.33 135.765 98.8702C136.075 88.0902 131.646 83.9602 120.696 83.9502H116.205C104.165 83.9502 103.235 85.0702 105.295 97.1302C106.475 104.05 110.935 107.91 117.985 108.03C120.494 108.071 122.999 108.061 125.679 108.05C126.952 108.045 128.264 108.04 129.636 108.04C127.286 111.74 124.635 113.06 121.235 113.05C119.845 113.047 118.453 113.071 117.062 113.096C114.46 113.141 111.858 113.187 109.265 113.05ZM120.346 87.8762C119.663 87.9028 118.981 87.9295 118.303 87.9295V87.7595C117.686 87.7595 117.068 87.7578 116.45 87.7562C114.904 87.7521 113.356 87.748 111.813 87.7695C111.738 87.7702 111.663 87.7705 111.588 87.7707C110.678 87.7736 109.753 87.7765 109.153 88.7095C106.223 93.2595 110.213 103.039 115.753 103.859C118.942 104.335 122.215 104.287 125.485 104.239C126.89 104.219 128.295 104.198 129.693 104.219C130.553 104.229 131.273 103.969 131.763 103.149C134.843 97.9995 130.743 88.8994 124.773 87.9794C123.326 87.7599 121.836 87.8181 120.346 87.8762Z" fill="#E27D7D"/>
</g>
<defs>
<clipPath id="clip0_4968_32754">
<rect width="192" height="192" fill="white"/>
</clipPath>
</defs>
</svg>
