<svg width="192" height="192" viewBox="0 0 192 192" fill="none" xmlns="http://www.w3.org/2000/svg">
<g clip-path="url(#clip0_4926_32979)">
<path d="M96 192C149.019 192 192 149.019 192 96C192 42.9807 149.019 0 96 0C42.9807 0 0 42.9807 0 96C0 149.019 42.9807 192 96 192Z" fill="white"/>
<path d="M134.78 101.804C134.78 99.7476 134.78 97.6914 134.78 95.6352C134.78 94.9186 134.78 94.1917 134.635 93.4855C134.323 91.9797 133.544 91.3463 131.997 91.3047C131.789 91.3047 131.582 91.2943 131.374 91.3047C131.042 91.3255 131.01 91.1386 131 90.8686C131 90.5674 131.093 90.4532 131.395 90.4532C132.942 90.4843 134.489 90.3597 136.037 90.5466C136.909 90.6505 137.709 90.962 138.166 91.772C138.415 92.1978 138.591 92.0524 138.861 91.8343C141.136 89.9651 143.763 89.6639 146.525 90.3078C149.007 90.8893 150.565 92.8001 150.96 95.5521C151.063 96.2687 151.115 96.9852 151.115 97.7018C151.115 101.555 151.095 105.418 151.136 109.27C151.136 109.945 150.939 110.091 150.316 110.049C149.599 109.997 148.872 109.997 148.156 110.049C147.522 110.101 147.335 109.925 147.335 109.27C147.366 105.438 147.356 101.606 147.356 97.7745C147.356 96.871 147.263 95.9779 147.034 95.1056C146.183 91.9486 142.922 91.4397 141.001 92.2913C140.191 92.6548 139.505 93.1948 138.851 93.7763C138.519 94.0671 138.571 94.4098 138.571 94.7629C138.571 99.6022 138.56 104.431 138.591 109.27C138.591 109.935 138.415 110.101 137.781 110.06C136.982 109.997 136.182 110.018 135.382 110.06C134.894 110.08 134.78 109.914 134.78 109.447C134.801 106.903 134.78 104.358 134.78 101.804Z" fill="#1D1D1B"/>
<path d="M59.4799 100.247C59.4799 103.279 59.4591 106.312 59.4903 109.344C59.4903 109.946 59.293 110.009 58.753 110.081C57.621 110.216 56.8941 109.728 56.3125 108.866C56.001 108.399 55.731 108.388 55.2741 108.752C52.844 110.663 50.0816 110.933 47.2362 109.998C44.5881 109.136 43.4769 106.997 43.2484 104.38C42.9992 101.483 43.1861 98.5748 43.1446 95.6671C43.1342 94.9194 43.1446 94.1821 42.9784 93.4447C42.6565 92.022 41.9088 91.3782 40.4653 91.2951C40.1642 91.2743 39.7695 91.4405 39.7695 90.8693C39.7695 90.2774 40.1849 90.4539 40.4757 90.4539C41.7634 90.4539 43.0511 90.4331 44.3388 90.5162C45.72 90.6097 46.3639 91.212 46.6754 92.562C46.8727 93.4136 46.935 94.2859 46.935 95.1686C46.935 97.8167 46.935 100.465 46.935 103.113C46.935 104.1 47.0597 105.065 47.4647 105.969C48.4097 108.098 50.7255 109.084 52.9375 108.316C53.5294 108.108 54.0486 107.786 54.5575 107.433C55.3779 106.872 55.7518 106.208 55.731 105.128C55.6583 100.506 55.7102 95.8748 55.6791 91.2432C55.6791 90.5993 55.8452 90.3812 56.4891 90.4331C57.2368 90.4851 57.9845 90.4851 58.7322 90.4331C59.3657 90.3916 59.4903 90.6408 59.4903 91.2224C59.4591 94.234 59.4799 97.2352 59.4799 100.247Z" fill="#00A7E7"/>
<path d="M128.351 103.623C128.351 105.575 128.341 107.527 128.351 109.48C128.351 109.905 128.237 109.989 127.811 110.072C126.513 110.3 125.724 109.687 125.142 108.649C124.882 108.182 124.675 108.057 124.187 108.535C121.902 110.799 117.644 111.12 114.934 109.386C112.234 107.662 111.403 102.241 115.277 100.268C117.011 99.3857 118.87 99.0326 120.78 98.8872C121.829 98.8041 122.889 98.7937 123.948 98.7937C124.405 98.7937 124.581 98.7003 124.561 98.2018C124.488 96.8933 124.374 95.5952 123.948 94.3282C123.418 92.7394 122.328 91.8463 120.666 91.7113C117.925 91.4932 116.284 92.4798 115.692 94.8059C115.547 95.3667 115.193 95.2213 114.872 95.2213C113.584 95.2421 113.594 95.2317 113.677 93.9544C113.792 92.3032 114.539 91.1297 116.201 90.652C118.62 89.9459 121.082 89.7901 123.543 90.2989C126.326 90.8701 127.541 92.8951 128.039 95.4706C128.538 97.9941 128.278 100.549 128.341 103.083C128.341 103.259 128.341 103.446 128.341 103.623H128.351ZM124.581 103.373C124.581 102.553 124.581 101.733 124.581 100.912C124.581 100.673 124.581 100.455 124.239 100.445C122.162 100.435 120.095 100.486 118.288 101.67C116.689 102.719 116.18 104.557 116.948 106.354C117.665 108.015 119.451 108.888 121.362 108.514C123.283 108.13 124.592 106.676 124.592 104.921C124.592 104.412 124.592 103.893 124.592 103.384L124.581 103.373Z" fill="#1D1D1B"/>
<path d="M171.274 103.427C171.274 105.431 171.264 107.435 171.285 109.439C171.285 109.907 171.16 109.99 170.693 110.062C169.416 110.27 168.657 109.689 168.097 108.661C167.816 108.162 167.577 108.058 167.089 108.546C164.805 110.789 160.495 111.101 157.826 109.336C155.116 107.549 154.358 102.097 158.325 100.187C160.059 99.3557 161.887 99.0026 163.766 98.8676C164.846 98.7846 165.926 98.7846 167.017 98.7638C167.37 98.7638 167.525 98.6807 167.505 98.2861C167.422 96.8218 167.297 95.368 166.757 93.9764C166.238 92.6575 165.262 91.8994 163.87 91.7229C161.077 91.3698 159.176 92.3875 158.615 94.8072C158.511 95.2641 158.231 95.1914 157.93 95.1914C156.486 95.2122 156.528 95.2226 156.632 93.8102C156.756 92.1175 157.608 91.0271 159.238 90.5702C161.606 89.9055 164.015 89.7602 166.435 90.2379C168.813 90.7052 170.153 92.3044 170.776 94.5579C171.119 95.8041 171.274 97.0815 171.285 98.3692C171.285 100.041 171.285 101.713 171.285 103.385L171.274 103.427ZM167.505 103.354C167.505 102.533 167.505 101.713 167.505 100.893C167.505 100.633 167.494 100.446 167.152 100.446C165.21 100.436 163.278 100.498 161.523 101.474C159.955 102.357 159.311 103.717 159.612 105.483C159.903 107.144 161.014 108.245 162.748 108.526C164.005 108.733 165.147 108.442 166.144 107.632C167.11 106.843 167.754 105.929 167.505 104.59C167.432 104.195 167.494 103.769 167.494 103.354H167.505Z" fill="#1D1D1B"/>
<path d="M24.5676 97.9202C24.5676 94.4724 24.5676 91.0247 24.5676 87.5769C24.5676 86.9123 24.5676 86.2373 24.4222 85.583C24.0899 84.0565 23.363 83.423 21.826 83.3503C21.5976 83.3399 21.3587 83.3399 21.1302 83.3503C20.8291 83.3607 20.7148 83.2361 20.7148 82.9349C20.7148 82.6441 20.8187 82.5195 21.1199 82.5299C22.6672 82.5507 24.2145 82.4987 25.7619 82.6026C27.2157 82.7064 27.7973 83.3088 28.1192 84.7211C28.3269 85.6557 28.3684 86.6007 28.3684 87.5561C28.3684 94.2128 28.3788 100.88 28.3477 107.537C28.3477 108.243 28.5346 108.43 29.2408 108.419C32.8028 108.378 36.3544 108.419 39.9164 108.378C40.6745 108.378 40.6433 108.731 40.6537 109.26C40.6537 109.8 40.6018 110.07 39.9267 110.07C35.0563 110.039 30.1754 110.039 25.3049 110.07C24.7338 110.07 24.5572 109.925 24.5676 109.343C24.5988 105.543 24.578 101.731 24.578 97.9202H24.5676Z" fill="#00A7E7"/>
<path d="M72.4304 98.1397C73.9985 95.9277 75.5043 93.7781 77.0101 91.6388C77.9759 90.2784 78.0278 90.2576 79.8867 90.5484C79.0351 91.7427 78.2044 92.9058 77.3736 94.0689C76.117 95.8239 74.8708 97.5893 73.5935 99.334C73.3235 99.7078 73.3235 99.9674 73.5624 100.341C74.7566 102.294 75.9197 104.256 77.1036 106.219C78.007 107.704 79.2013 108.815 80.9771 109.158C81.3302 109.22 81.4548 109.366 81.434 109.708C81.4029 110.103 81.1329 110.061 80.8836 110.061C79.8036 110.061 78.7132 110.082 77.6332 110.061C75.8262 110.02 74.5074 109.065 73.552 107.631C72.5446 106.136 71.6412 104.578 70.7377 103.031C70.4261 102.501 70.2704 102.408 69.8861 102.979C68.4634 105.056 66.9576 107.081 65.566 109.179C65.0883 109.906 64.5587 110.196 63.7383 110.072C63.4891 110.041 63.2295 110.072 62.8556 110.072C63.0425 109.781 63.1568 109.563 63.2918 109.376C65.213 106.676 67.1238 103.966 69.0761 101.276C69.4188 100.809 69.4188 100.476 69.1177 99.9882C67.913 98.067 66.7915 96.1147 65.5764 94.1935C64.7041 92.8123 63.5618 91.7115 61.8794 91.3584C61.516 91.2857 61.5264 91.078 61.516 90.808C61.5056 90.4549 61.734 90.455 61.9729 90.455C63.1048 90.455 64.2472 90.4134 65.3791 90.4861C66.9576 90.5796 68.1207 91.4519 69.045 92.6669C70.1665 94.1416 70.9869 95.8135 71.9735 97.3816C72.1085 97.5997 72.2435 97.8178 72.4408 98.1501L72.4304 98.1397Z" fill="#00A7E7"/>
<path d="M97.724 101.918C97.724 99.685 97.724 97.4419 97.724 95.2092C97.724 94.5341 97.6824 93.8695 97.5266 93.2153C97.2255 91.9379 96.457 91.3668 95.0031 91.2941C94.6812 91.2837 94.3904 91.3356 94.4112 90.8475C94.4216 90.3906 94.7124 90.4529 94.9928 90.4529C96.2805 90.4737 97.5682 90.4529 98.8559 90.536C99.8528 90.5983 100.715 90.9825 101.161 91.9587C101.421 92.5299 101.639 92.1664 101.878 91.9379C103.643 90.2037 105.741 89.6741 108.13 90.2141C109.272 90.4737 109.853 91.3564 110.414 92.2599C110.487 92.3741 110.528 92.4883 110.393 92.5922C109.916 92.9453 109.448 93.3087 108.971 93.6514C108.742 93.8176 108.659 93.5476 108.545 93.4541C106.593 91.8964 103.425 92.2599 101.857 94.1915C101.597 94.503 101.577 94.8249 101.577 95.1884C101.577 99.8927 101.566 104.597 101.597 109.301C101.597 109.924 101.421 110.091 100.829 110.049C100.009 109.997 99.1778 110.008 98.3574 110.049C97.8278 110.08 97.724 109.883 97.7343 109.395C97.7551 106.902 97.7447 104.41 97.7343 101.918H97.724Z" fill="#1D1D1B"/>
<path d="M91.5484 101.733C91.5484 104.277 91.538 106.821 91.5588 109.365C91.5588 109.885 91.4653 110.092 90.8942 110.061C90.0945 110.009 89.2949 110.009 88.4953 110.061C87.9241 110.103 87.7684 109.947 87.7684 109.355C87.7995 104.734 87.7891 100.102 87.7684 95.481C87.7684 94.8163 87.7268 94.1413 87.6126 93.4871C87.3737 92.054 86.5326 91.3686 85.0579 91.3063C84.8502 91.3063 84.6425 91.2855 84.4348 91.3063C84.0921 91.3374 83.9883 91.192 83.9883 90.8597C83.9883 90.5586 84.1129 90.4547 84.4037 90.4547C86.0029 90.4859 87.6022 90.382 89.1911 90.5378C90.2192 90.6416 90.8942 91.2128 91.185 92.1994C91.3927 92.8951 91.4965 93.6013 91.4965 94.3282C91.4965 96.7998 91.4965 99.261 91.4965 101.733C91.4965 101.733 91.5069 101.733 91.5173 101.733H91.5484Z" fill="#1D1D1B"/>
<path d="M87.823 87.5147C86.4211 87.5355 85.3099 86.4451 85.2891 85.0535C85.2788 83.6516 86.3588 82.5404 87.7503 82.5196C89.1419 82.5092 90.2738 83.5996 90.2946 84.9808C90.305 86.3724 89.2146 87.4939 87.823 87.5043V87.5147Z" fill="#1D1D1B"/>
</g>
<defs>
<clipPath id="clip0_4926_32979">
<rect width="192" height="192" fill="white"/>
</clipPath>
</defs>
</svg>
