<svg width="192" height="192" viewBox="0 0 192 192" fill="none" xmlns="http://www.w3.org/2000/svg">
<g clip-path="url(#clip0_4927_33278)">
<path d="M96 192C149.019 192 192 149.019 192 96C192 42.9807 149.019 0 96 0C42.9807 0 0 42.9807 0 96C0 149.019 42.9807 192 96 192Z" fill="black"/>
<path d="M78.5694 105.625C61.4807 105.625 44.3623 105.625 27.2735 105.655C26.2665 105.655 26 105.388 26 104.411C26.0296 98.073 26.0296 91.7647 26 85.4267C26 84.7159 26.1481 84.479 26.8885 84.5086C28.8728 84.5679 30.8867 84.5382 32.871 84.5086C33.493 84.5086 33.6115 84.6567 33.6707 85.2786C33.9373 89.0103 33.7892 92.742 33.8188 96.4737C33.8188 97.1253 33.878 97.4214 34.6777 97.4214C38.9424 97.3622 43.1776 97.3622 47.4424 97.4214C48.2421 97.4214 48.3309 97.1549 48.3309 96.4737C48.3013 87.8849 48.3309 79.2961 48.3013 70.7369C48.3013 69.878 48.479 69.6115 49.3675 69.6411C51.3518 69.7003 53.3657 69.7003 55.35 69.6411C56.1201 69.6115 56.3274 69.8484 56.3274 70.6184C56.2978 79.2369 56.3274 87.8553 56.2978 96.4737C56.2978 97.4214 56.5939 97.6288 57.4824 97.5992C61.451 97.5399 65.3901 97.5695 69.3587 97.5992C70.1879 97.5992 70.4841 97.4807 70.4841 96.5329C70.4249 93.127 70.4841 89.7211 70.5137 86.3152C70.5137 84.7455 70.5433 84.7456 72.0538 84.7456C73.8308 84.7456 75.6078 84.7752 77.3848 84.7159C78.1252 84.6863 78.3029 84.9233 78.3029 85.634C78.2733 89.2177 78.3029 92.8013 78.2733 96.3849C78.2733 97.1549 78.451 97.3918 79.2506 97.3622C83.5746 97.3326 87.8987 97.303 92.2523 97.3622C93.1408 97.3622 93.2296 97.066 93.2296 96.296C93.2296 92.5939 93.3185 88.8919 93.3481 85.1898C93.3481 84.5679 93.5258 84.3901 94.1478 84.3901C96.1913 84.4198 98.2052 84.4494 100.249 84.3901C100.96 84.3605 101.108 84.5975 101.108 85.2786C101.078 89.0103 101.108 92.742 101.078 96.4737C101.078 97.3326 101.315 97.5399 102.115 97.5103C103.803 97.4511 105.521 97.4214 107.209 97.5103C108.186 97.5695 108.393 97.2141 108.393 96.3256C108.393 92.6532 108.453 89.0103 108.453 85.3379C108.453 84.5679 108.66 84.3605 109.43 84.3605C111.385 84.4198 113.339 84.4198 115.324 84.3605C116.094 84.3309 116.242 84.5975 116.212 85.3083C116.182 89.0103 116.212 92.7124 116.183 96.4145C116.183 97.2438 116.449 97.5103 117.249 97.4807C118.937 97.4214 120.655 97.4214 122.343 97.4807C123.142 97.5103 123.35 97.2141 123.35 96.4441C123.32 92.742 123.379 89.04 123.35 85.3379C123.35 84.5679 123.527 84.3309 124.327 84.3605C126.371 84.4198 128.385 84.3902 130.428 84.3605C130.991 84.3605 131.168 84.479 131.168 85.101C131.139 91.587 131.139 98.0434 131.168 104.529C131.168 105.388 130.902 105.536 130.102 105.536C112.925 105.625 95.747 105.625 78.5694 105.625Z" fill="#FEFEFE"/>
<path d="M135.609 87.6486C135.609 81.9918 135.639 76.335 135.58 70.6783C135.58 69.849 135.787 69.6121 136.616 69.6417C138.571 69.7009 140.526 69.7009 142.51 69.6417C143.339 69.6121 143.606 69.7898 143.606 70.7079C143.576 79.1782 143.606 87.6486 143.576 96.1189C143.576 97.1851 143.813 97.4813 144.879 97.4516C148.996 97.3924 153.083 97.3924 157.2 97.4516C157.91 97.4516 158.088 97.2739 158.088 96.5335C158.059 92.9499 158.118 89.3663 158.118 85.7827C158.118 85.0423 158.236 84.7461 159.066 84.7757C161.109 84.835 163.123 84.835 165.167 84.7757C165.937 84.7461 165.966 85.0719 165.966 85.6939C165.966 92.0614 165.966 98.429 165.996 104.767C165.996 105.507 165.759 105.655 165.078 105.655C155.541 105.626 145.975 105.626 136.438 105.655C135.698 105.655 135.52 105.448 135.55 104.737C135.58 99.0509 135.58 93.3349 135.58 87.6486C135.58 87.6486 135.58 87.6486 135.609 87.6486Z" fill="#FEFEFE"/>
<path d="M156.699 108.912C159.513 108.912 162.326 108.942 165.14 108.883C165.792 108.883 166.029 109.001 165.999 109.712C165.969 113.621 165.969 117.56 165.999 121.47C165.999 122.24 165.732 122.358 165.051 122.358C162.8 122.329 160.549 122.299 158.269 122.358C157.529 122.388 157.232 122.21 157.292 121.411C157.38 120.374 157.262 119.337 157.321 118.301C157.351 117.649 157.114 117.501 156.522 117.531C153.738 117.56 150.983 117.531 148.199 117.56C147.459 117.56 147.281 117.353 147.281 116.642C147.34 114.362 147.34 112.052 147.281 109.771C147.281 109.09 147.429 108.912 148.14 108.912C150.983 108.942 153.856 108.912 156.699 108.912Z" fill="#FEFEFE"/>
<path d="M69.0337 81.3411C66.309 81.3411 63.5547 81.3115 60.8299 81.3707C60.0303 81.3707 59.7341 81.2522 59.7637 80.3637C59.823 78.1129 59.823 75.862 59.7637 73.6112C59.7637 72.9892 59.8526 72.7227 60.593 72.7227C66.2497 72.7523 71.9065 72.7523 77.5633 72.7227C78.2149 72.7227 78.3629 72.93 78.3333 73.5223C78.3037 75.862 78.3037 78.1721 78.3333 80.5118C78.3333 81.2226 78.126 81.3707 77.4448 81.3707C74.6609 81.3411 71.8473 81.3411 69.0337 81.3411Z" fill="#FEFEFE"/>
</g>
<defs>
<clipPath id="clip0_4927_33278">
<rect width="192" height="192" fill="white"/>
</clipPath>
</defs>
</svg>
