<svg width="192" height="192" viewBox="0 0 192 192" fill="none" xmlns="http://www.w3.org/2000/svg">
<g clip-path="url(#clip0_4926_33132)">
<path d="M96 192C149.019 192 192 149.019 192 96C192 42.9807 149.019 0 96 0C42.9807 0 0 42.9807 0 96C0 149.019 42.9807 192 96 192Z" fill="#1D9CFF"/>
<path d="M58.5473 44.0197C63.7873 40.2097 72.3973 39.0097 76.1173 45.4997C90.1973 71.2897 103.857 97.3397 117.697 123.28C120.527 128.57 123.147 135.73 130.127 136.34C138.877 137.71 146.147 126.7 140.977 119.34C137.447 112.91 129.367 113.38 123.177 114.41C123.267 109.84 123.307 105.26 123.267 100.71C135.107 96.5397 149.077 101.7 154.597 113.14C161.387 125.65 155.677 142.89 142.637 148.7C130.777 154.68 114.897 149.78 108.667 138C91.8373 106.75 75.3073 75.3197 58.5273 44.0297L58.5473 44.0197Z" fill="white"/>
<path d="M117.351 43.2794C121.871 38.8994 128.581 40.8494 133.271 43.8694C124.461 60.3594 115.681 76.8494 106.951 93.3794C104.751 89.1294 102.021 85.1094 100.551 80.5094C99.0509 73.8694 103.661 68.1594 106.411 62.5394C110.191 56.1994 112.771 49.0994 117.341 43.2794H117.351Z" fill="white"/>
<path d="M34.5591 124.369C34.4291 111.659 45.2991 100.019 57.9791 99.1895C62.1391 99.2095 66.1991 100.249 70.2191 101.139C70.2391 105.499 70.2991 109.869 70.3491 114.229C64.4291 114.079 57.3491 112.369 52.6591 117.109C47.4591 121.949 48.6391 131.229 54.7891 134.699C59.7791 138.149 67.2391 136.099 70.0991 130.869C75.3191 121.779 79.9291 112.309 84.9791 103.109C87.8291 108.859 92.5891 114.779 91.1091 121.609C89.2691 127.529 85.9891 132.879 83.0491 138.309C77.6191 148.269 65.0591 153.399 54.1891 150.439C42.6291 147.749 33.8091 136.259 34.5691 124.369H34.5591Z" fill="white"/>
</g>
<defs>
<clipPath id="clip0_4926_33132">
<rect width="192" height="192" fill="white"/>
</clipPath>
</defs>
</svg>
