<svg width="192" height="192" viewBox="0 0 192 192" fill="none" xmlns="http://www.w3.org/2000/svg">
<g clip-path="url(#clip0_4926_33009)">
<path d="M96 192C149.019 192 192 149.019 192 96C192 42.9807 149.019 0 96 0C42.9807 0 0 42.9807 0 96C0 149.019 42.9807 192 96 192Z" fill="white"/>
<path d="M148.688 129.598C147.198 129.658 146.528 130.645 146.468 132.065C146.578 133.596 147.478 134.472 148.878 134.411C150.248 134.371 151.248 133.525 151.228 132.005C151.208 130.424 150.258 129.538 148.688 129.588V129.598ZM77.1981 154.439C75.5281 154.5 74.7481 155.406 74.7581 156.816C74.7581 158.316 75.5881 159.373 77.1881 159.293C78.5881 159.222 79.4781 158.386 79.4981 156.906C79.5281 155.245 78.5581 154.56 77.1981 154.439ZM145.678 134.935C144.168 134.915 143.348 135.912 143.308 137.271C143.268 138.62 144.038 139.688 145.538 139.768C147.098 139.839 147.948 138.942 148.178 137.412C148.018 135.901 147.258 134.955 145.678 134.945V134.935ZM71.1781 154.459C69.6781 154.52 68.8881 155.436 68.9081 156.876C68.9181 158.286 69.7481 159.262 71.2081 159.303C72.7581 159.333 73.5381 158.336 73.7981 156.866C73.5381 155.366 72.7881 154.409 71.1881 154.459H71.1781ZM151.458 134.945C149.958 134.985 149.248 135.922 149.218 137.583C149.348 138.872 150.078 139.798 151.578 139.758C153.028 139.728 153.948 138.842 153.968 137.382C153.978 135.801 153.038 134.884 151.458 134.945ZM41.4081 145.004C39.8781 144.994 39.5281 145.588 39.6381 146.968C39.7381 148.136 39.6781 149.334 39.6081 150.522C39.4481 153.321 38.0181 155.255 35.4981 156.332C34.6381 156.695 33.6481 156.936 32.7181 156.926C30.4581 156.896 30.7981 158.437 30.8781 159.806C30.9781 161.719 32.3981 160.783 33.1981 160.692C40.2881 159.846 43.3681 156.262 43.3781 148.982C43.3781 148.317 43.2981 147.632 43.3881 146.978C43.6081 145.377 42.9081 145.014 41.4081 145.004ZM159.398 143.292C158.258 143.363 157.278 143.172 157.338 144.964C157.408 147.441 155.968 148.79 153.728 148.649C151.848 148.528 150.178 147.501 150.568 145.004C150.838 143.282 149.798 143.343 148.588 143.282C147.158 143.212 146.558 143.655 146.748 145.155C146.958 146.877 146.188 147.985 144.488 148.438C141.768 149.153 139.988 147.884 140.028 145.055C140.048 143.685 139.668 143.151 138.298 143.302C137.268 143.413 136.088 142.93 136.098 144.833C136.128 147.491 135.388 148.337 132.718 148.377C115.108 148.639 97.5081 148.649 79.8981 148.377C77.2281 148.347 76.5281 147.491 76.5081 144.813C76.4981 143.393 75.8581 143.202 74.7581 143.313C73.8281 143.403 72.6981 142.88 72.6681 144.692C72.6281 147.481 71.8681 148.156 69.1281 148.418C67.8881 148.528 66.6281 148.528 65.3781 148.518C62.7381 148.518 60.9381 147.28 59.9081 144.803C58.8681 142.356 57.6881 139.959 56.6581 137.513C56.2781 136.637 55.9081 136.496 54.9981 136.788C52.3681 137.633 52.3581 137.573 53.5081 140.171C53.8981 141.047 54.2581 141.943 54.6481 142.819C57.0681 148.438 57.0181 148.528 50.9881 148.528C49.9481 148.528 48.9181 148.559 47.8881 148.518C46.7881 148.488 46.6781 149.213 46.8281 149.999C46.9781 150.814 46.1581 152.335 47.6581 152.304C51.2781 152.214 55.0781 153.261 58.4081 150.975C58.9081 150.623 59.2781 150.573 59.7881 150.905C62.1281 152.516 64.8081 152.385 67.4581 152.385C69.8681 152.385 72.0881 150.915 74.1381 150.693C74.2681 150.683 74.4081 150.673 74.5481 150.673C74.7081 150.673 74.8581 150.673 74.9881 150.693C77.0281 150.844 79.2581 152.385 81.6381 152.385C98.0681 152.375 114.508 152.385 130.928 152.375C133.078 152.375 135.238 152.184 137.058 150.885C137.858 150.311 138.288 150.623 138.958 151.046C141.758 152.818 144.698 152.909 147.508 151.157C148.478 150.552 148.988 150.834 149.808 151.277C155.238 154.318 161.158 150.995 161.188 145.004C161.198 143.544 160.688 143.222 159.398 143.292Z" fill="#595A5C"/>
<path d="M142.327 59.1016C136.567 43.1014 120.557 31.4612 104.677 31.008C102.567 30.9476 101.567 31.3101 101.907 33.7066C102.637 38.9024 102.217 44.209 103.167 49.3847C103.437 50.8145 103.387 51.9423 101.487 52.0329C99.4969 52.1235 99.0969 51.026 99.4069 49.4149C100.347 44.6218 99.8869 39.7281 100.487 34.9049C100.997 30.8671 100.787 30.7462 96.7169 31.1591C96.4169 31.1893 96.1369 31.2195 95.8369 31.2598C70.3769 34.8646 53.5469 59.3936 59.2369 84.6577C63.6769 104.404 81.5069 118.743 101.497 118.622C102.727 118.622 104.297 119.226 104.327 116.829C104.417 110.395 104.697 103.971 104.927 97.5364C105.047 94.3847 103.597 92.3406 100.787 91.0114C98.7569 90.0649 97.9869 90.3167 98.1569 92.7434C98.4369 96.7812 98.5569 100.849 98.6969 104.897C98.7069 105.531 98.8169 106.528 97.9669 106.619C96.9069 106.74 96.9069 105.703 96.7369 104.927C94.8369 96.3381 92.9969 87.7389 90.9769 79.1699C90.4869 77.0754 90.4669 75.6758 92.9069 75.2428C95.6869 74.7494 96.7469 75.4845 97.0769 78.2838C97.3169 80.2372 97.5069 82.2108 97.6869 84.1844C97.7769 84.9698 97.6769 85.9063 98.6569 86.1077C100.977 86.6011 102.947 87.9504 105.287 88.8969C105.527 86.6413 105.737 84.5872 105.947 82.5532C106.307 79.1799 107.067 78.4851 109.897 78.9785C112.397 79.4115 113.007 80.5494 112.187 83.5702C109.537 93.3274 108.047 103.286 107.037 113.335C106.497 118.702 106.527 118.712 111.657 117.464C137.047 111.331 151.677 85 142.337 59.0815L142.327 59.1016ZM140.457 76.5619C139.467 77.7501 138.187 77.4178 136.907 77.1661C123.847 74.548 110.697 72.9671 97.3569 73.3397C89.9869 73.5511 82.6669 74.4675 75.3369 75.2932C72.4169 75.6053 70.5369 78.173 67.4969 78.2938C64.1469 78.4147 62.8269 77.8608 62.3169 74.9911C61.6769 71.2855 62.6869 69.4328 66.0969 69.03C78.2169 67.6304 90.3469 66.271 102.577 67.0161C105.227 67.1772 107.877 67.439 110.357 67.137C102.447 66.0797 94.2469 65.0123 86.0769 63.9148C83.9569 63.6429 81.5569 63.6932 81.5869 60.461C81.5969 58.2155 83.6669 55.3659 86.0469 54.9732C92.6569 53.9159 99.2869 53.1506 106.007 53.2815C109.647 53.352 113.277 53.5332 116.917 53.6843C119.267 53.785 120.927 54.5704 120.727 57.3999C120.597 59.7158 119.667 60.8335 117.177 60.5214C112.987 59.9978 108.767 59.5749 104.567 59.2124C103.027 59.0613 101.457 59.1519 99.9569 59.9172C112.747 61.7297 125.377 63.9651 137.687 67.7008C141.097 68.738 142.717 73.8432 140.437 76.5418L140.457 76.5619Z" fill="#859A3E"/>
<path d="M125.067 124.662C104.147 136.272 71.3268 130.835 55.0268 103.899C38.0768 75.8961 50.0668 44.5803 67.0268 32.2051C47.6368 56.724 44.7268 82.1995 64.1268 107.131C79.6468 127.089 101.087 131.499 125.067 124.652V124.662Z" fill="#859A3E"/>
</g>
<defs>
<clipPath id="clip0_4926_33009">
<rect width="192" height="192" fill="white"/>
</clipPath>
</defs>
</svg>
