<svg width="192" height="192" viewBox="0 0 192 192" fill="none" xmlns="http://www.w3.org/2000/svg">
<g clip-path="url(#clip0_4926_33086)">
<path d="M96 192C149.019 192 192 149.019 192 96C192 42.9807 149.019 0 96 0C42.9807 0 0 42.9807 0 96C0 149.019 42.9807 192 96 192Z" fill="white"/>
<path d="M111.234 108.671C111.864 108.961 112.554 109.081 113.254 109.011C113.024 108.431 112.334 108.451 111.834 108.281C110.894 108.101 109.764 107.841 108.964 108.521C108.664 108.581 108.364 108.671 108.064 108.751C107.044 108.571 105.994 108.581 104.974 108.751C104.564 108.661 104.174 108.541 103.764 108.471C103.644 108.391 103.404 108.231 103.284 108.161C102.104 108.021 100.644 108.091 99.7539 108.981C100.394 109.061 101.034 108.961 101.594 108.651C103.214 108.511 104.704 109.411 106.334 109.211C108.014 109.421 109.554 108.581 111.224 108.671H111.234Z" fill="#8F5C22"/>
<path d="M119.592 60.8409C119.972 60.5609 119.622 59.6909 119.152 60.0609C118.762 60.3409 119.112 61.2109 119.592 60.8409Z" fill="#8F5C22"/>
<path d="M168.502 95.3904C168.472 93.9804 168.592 92.5604 168.332 91.1704C168.292 90.4604 168.332 89.7204 168.012 89.0704C167.902 88.2504 168.152 87.3504 167.702 86.6104C167.642 85.8104 167.722 84.9904 167.442 84.2404C167.352 83.8004 167.272 83.3704 167.142 82.9404C167.062 81.8804 166.682 80.8704 166.662 79.8004H166.412C166.382 79.3405 166.352 78.9004 166.312 78.4604C166.182 78.1404 166.072 77.8204 165.962 77.4904C165.542 75.7704 165.102 74.0604 164.372 72.4404C164.142 71.6704 163.862 70.9204 163.612 70.1604L163.372 70.1204C163.362 69.9204 163.332 69.5204 163.322 69.3204C163.152 69.0404 162.982 68.7504 162.822 68.4504C162.152 66.9604 161.502 65.4704 160.812 64.0004L160.672 64.2204C160.602 63.9904 160.452 63.5404 160.372 63.3204C160.352 63.2404 160.322 63.0704 160.312 62.9904C159.612 61.6704 158.742 60.4404 158.002 59.1404C157.812 58.8204 157.612 58.5104 157.422 58.2004C157.212 57.9104 157.002 57.6204 156.792 57.3304C156.162 56.1004 155.302 55.0104 154.422 53.9504C153.732 52.8104 152.932 51.7404 151.922 50.8704C151.362 49.8004 150.322 49.1204 149.642 48.1404C149.482 47.9204 149.292 47.7304 149.062 47.5904C148.912 47.3204 148.712 47.1204 148.442 46.9804C148.132 46.3004 147.522 45.8504 146.862 45.5304C146.592 45.1904 146.322 44.8504 146.062 44.5104C144.592 43.3604 143.322 41.9504 141.722 40.9704C140.422 39.9404 139.192 38.8304 137.752 38.0004C136.972 37.4004 136.232 36.6404 135.252 36.4104C134.902 36.1604 134.562 35.8904 134.222 35.6204H133.972C133.592 35.1504 133.032 34.9204 132.502 34.6604C132.082 34.4204 131.662 34.1704 131.232 33.9404C130.062 32.9904 128.612 32.4904 127.322 31.7404C122.562 29.6004 117.572 27.9604 112.442 26.9704C109.472 26.4004 106.452 25.8104 103.432 25.8304C98.7023 25.9404 93.9623 25.7804 89.2423 25.9104C88.1524 25.6904 87.0424 25.8304 85.9524 25.9904C79.6824 26.6404 73.5324 28.2204 67.6624 30.4904C66.4524 31.0104 65.1724 31.4004 64.0824 32.1704C62.3224 32.8904 60.6724 33.8704 58.9924 34.7704C56.0024 36.4804 53.1624 38.4304 50.4224 40.5304C47.7324 42.7304 45.0324 44.9804 42.7624 47.6204L42.6424 47.6004C41.0024 49.5804 39.1524 51.4204 37.7324 53.5604C33.7924 58.6604 30.6324 64.3604 28.3524 70.3904C28.2524 70.5504 28.0524 70.8704 27.9524 71.0304C22.4724 85.5104 22.0424 101.81 26.6124 116.58C27.1024 117.84 27.3024 119.22 28.0624 120.35C28.7924 122.5 29.7224 124.58 30.7724 126.59C32.7824 130.87 35.3224 134.92 38.2524 138.64C41.0024 142.24 44.0924 145.62 47.5724 148.53V148.56C48.5324 149.35 49.3824 150.34 50.5324 150.86C50.2724 151.29 51.0124 151.8 51.3724 151.51C51.8224 152.18 52.5824 152.55 53.2124 153.04C55.1124 154.32 57.0124 155.62 59.0324 156.7C60.2724 157.47 61.6024 158.09 62.9024 158.76C64.0924 159.33 65.2724 159.98 66.5424 160.36C66.9124 160.58 67.2824 160.8 67.6824 160.97C74.2324 163.58 81.1924 165.19 88.2224 165.76C89.3123 165.97 90.4223 166.13 91.5424 166.11C96.8523 166.06 102.232 166.48 107.452 165.28C110.002 164.96 112.552 164.57 115.032 163.88C116.602 163.6 118.102 163.05 119.632 162.62C120.842 162.25 121.972 161.66 123.222 161.4L123.092 161.29C124.442 160.85 125.742 160.29 127.022 159.7L126.712 159.66C127.752 159.64 128.582 158.91 129.482 158.48C129.632 158.4 129.942 158.24 130.092 158.16C130.442 158 130.782 157.84 131.132 157.68V157.52H131.452C132.022 157.11 132.612 156.74 133.212 156.38C133.512 156.22 133.812 156.06 134.112 155.9C134.112 155.79 134.082 155.57 134.072 155.46L134.362 155.79C134.672 155.28 135.142 154.97 135.752 154.97C136.032 154.72 136.312 154.47 136.592 154.23C137.372 153.85 138.072 153.32 138.732 152.76C138.862 152.71 139.122 152.61 139.252 152.56C139.522 152.19 139.892 151.98 140.342 151.89C140.342 151.76 140.322 151.51 140.312 151.38C140.432 151.38 140.672 151.38 140.792 151.39C141.202 150.87 141.722 150.44 142.312 150.13C142.582 149.88 142.862 149.64 143.142 149.41C143.782 149.06 144.282 148.51 144.792 148C145.232 147.52 145.702 147.07 146.322 146.84C146.482 146.57 146.652 146.3 146.802 146.02C146.892 146.02 147.072 146 147.162 145.99C147.582 145.53 148.022 145.07 148.392 144.56C148.612 144.41 148.842 144.26 149.072 144.12C149.262 143.81 149.452 143.49 149.642 143.18C150.352 142.46 151.092 141.77 151.732 140.98C152.382 140.29 152.992 139.54 153.472 138.72L153.782 138.74C153.742 138.58 153.672 138.27 153.632 138.12C153.762 138.12 154.022 138.12 154.152 138.12C155.082 136.62 156.202 135.26 157.112 133.75C157.332 133.45 157.562 133.15 157.802 132.85C157.872 132.63 157.932 132.41 157.992 132.19C158.392 131.73 158.742 131.23 159.112 130.75V129.95L159.372 130.03C159.722 129.41 160.082 128.8 160.422 128.17C160.642 127.72 160.862 127.25 161.072 126.79C161.442 126.16 161.832 125.51 161.872 124.76C161.982 124.69 162.212 124.56 162.322 124.49C162.612 123.18 163.342 122.02 163.792 120.76C163.922 120.44 164.012 120.11 164.072 119.77C164.192 119.49 164.322 119.2 164.452 118.92C164.542 118.61 164.642 118.31 164.742 118.01C165.412 116.27 165.822 114.44 166.302 112.64C166.382 112.21 166.422 111.76 166.672 111.38C166.692 111.07 166.722 110.76 166.752 110.45C167.022 109.99 167.032 109.44 167.132 108.93C167.332 108.35 167.352 107.74 167.422 107.14C167.792 106.47 167.622 105.68 167.702 104.95C167.852 104.59 167.982 104.22 167.962 103.82C167.962 102.58 168.392 101.39 168.342 100.15C168.592 98.5604 168.482 96.9404 168.512 95.3304L168.502 95.3904ZM51.5324 148.94C50.6624 148.22 49.8324 147.45 48.9824 146.72C48.6424 146.27 48.2124 145.89 47.7324 145.57C45.1324 143.25 42.7824 140.66 40.6024 137.94C37.4624 134.01 34.7924 129.71 32.5924 125.19C31.8424 123.59 31.1124 121.99 30.4624 120.36C30.1424 119.22 29.7724 118.09 29.3824 116.98C26.2124 107.54 25.3224 97.4004 26.4724 87.5304C26.6924 85.4304 27.1624 83.3704 27.4424 81.2804C27.9624 78.9004 28.6024 76.5604 29.3924 74.2504C31.4324 68.0904 34.3724 62.2404 38.0924 56.9404C39.8224 54.4404 41.7424 52.0604 43.8324 49.8404C45.9124 47.7004 48.0824 45.6404 50.2824 43.6204C50.3824 43.5304 50.5824 43.3504 50.6924 43.2604C51.5024 42.5904 52.3324 41.9304 53.2024 41.3504C53.2824 41.5204 53.4524 41.8704 53.5324 42.0504C52.4424 42.9304 51.3724 43.8604 50.3924 44.8704C48.8724 46.4304 47.2524 47.9004 45.8924 49.6004C44.3624 51.4404 42.8224 53.2704 41.4724 55.2604C40.5924 56.6204 39.6724 57.9504 38.8424 59.3304C38.0424 60.7504 37.1324 62.1204 36.4724 63.6204C36.1524 64.2104 35.8224 64.7904 35.5324 65.4004C35.0624 66.5504 34.6024 67.7104 33.9924 68.7904C33.9624 68.9504 33.8924 69.2604 33.8624 69.4204C33.6224 69.9304 33.4024 70.4604 33.1924 70.9904C32.9724 71.5504 32.7524 72.1204 32.5624 72.7004C32.2224 73.7304 31.8524 74.7404 31.5324 75.7804C30.9724 77.9904 30.3924 80.2004 29.9524 82.4304C29.8924 82.5304 29.7724 82.7304 29.7124 82.8204C29.6724 83.6904 29.8124 84.6104 29.4124 85.4204C29.3624 85.8304 29.3324 86.2404 29.2824 86.6504C28.8924 87.7104 29.0824 88.8504 28.9824 89.9504C28.5924 90.8004 28.7424 91.7604 28.7024 92.6704C28.7024 95.2604 28.5824 97.8604 28.7924 100.44C29.2024 101.88 28.8124 103.42 29.2524 104.85C29.5224 106.96 29.8324 109.09 30.4424 111.14C30.6924 112.47 31.1424 113.75 31.3224 115.09C31.4024 115.22 31.5624 115.47 31.6424 115.59C31.7124 116.95 32.5224 118.1 32.7824 119.42H32.9724C32.9924 119.78 33.0224 120.12 33.0424 120.47C33.2624 120.89 33.4624 121.31 33.6424 121.74C34.5424 123.81 35.2424 125.98 36.4824 127.87C36.5324 128.01 36.6224 128.3 36.6624 128.44C37.8924 130.43 38.8624 132.57 40.2424 134.49C42.0924 137.32 44.1324 140.02 46.3824 142.54C47.8524 144.31 49.5624 145.86 51.2024 147.46C52.1024 148.28 52.9824 149.13 53.9724 149.85C54.3624 150.18 54.6724 150.58 54.9524 151.01C53.5324 150.91 52.6124 149.69 51.5024 148.95L51.5324 148.94ZM131.572 152.3C131.422 152.36 131.132 152.48 130.982 152.54C126.842 155.55 122.132 157.67 117.392 159.58C114.332 160.72 111.162 161.52 108.012 162.34C106.052 162.7 104.072 163 102.112 163.37C99.6924 163.52 97.2924 163.95 94.8624 163.83C92.4623 163.65 90.0723 163.3 87.6824 163.03C87.0224 162.94 86.3724 162.81 85.7224 162.7C83.0824 161.98 80.3824 161.5 77.7824 160.6C75.9524 160.07 74.2124 159.29 72.4024 158.7C72.3724 158.65 72.2924 158.55 72.2624 158.51C67.4824 156.62 63.0024 154 58.8224 151.02C56.7324 149.57 54.8124 147.9 52.9124 146.21C50.5524 144.57 48.8424 142.24 46.9124 140.16C45.5424 138.7 44.3124 137.11 43.1724 135.46C42.6324 134.49 42.0224 133.55 41.3424 132.67C40.3324 131.31 39.5224 129.81 38.5824 128.4C38.3324 127.84 38.0624 127.3 37.8024 126.75C37.5524 126.21 37.2924 125.67 36.9824 125.15C36.9224 125 36.8124 124.68 36.7624 124.53C35.9624 123.24 35.7324 121.69 34.8524 120.45C34.6124 119.7 34.3324 118.96 34.0824 118.21C33.7024 117.5 33.4924 116.72 33.5024 115.91C33.4224 115.78 33.2524 115.51 33.1724 115.37C32.9924 114.57 32.7924 113.77 32.5624 112.98C32.3824 112.1 32.1624 111.22 31.8924 110.36C31.4324 108.72 31.3924 107.01 31.0424 105.35C30.8024 104.36 30.8624 103.34 30.8024 102.34C30.4024 101.49 30.5324 100.54 30.5224 99.6404C30.5624 96.6004 30.4524 93.5604 30.5624 90.5304C31.0224 88.4604 30.6924 86.2904 31.4224 84.2604C31.4724 83.2004 31.7324 82.1804 31.9124 81.1404C32.1724 80.5604 32.1824 79.9204 32.1324 79.3004L32.4624 79.2504C32.4924 79.0704 32.5524 78.7204 32.5824 78.5504C32.7324 78.0205 32.8124 77.4804 32.8924 76.9404C33.6224 75.3405 34.0124 73.6004 34.7824 72.0204C34.8224 71.7204 34.8624 71.4204 34.9024 71.1204C35.3424 70.3405 35.7524 69.5204 35.9824 68.6504C36.5224 67.4204 37.2224 66.2604 37.6324 64.9704H37.7824C38.2724 63.9404 38.8024 62.9504 39.3424 61.9604C40.5824 59.9504 41.8224 57.9404 43.2324 56.0504C44.4124 54.3504 45.7924 52.8004 47.0724 51.1804C47.1424 51.1004 47.2924 50.9404 47.3724 50.8604C48.2424 49.9704 49.0024 48.9904 49.8824 48.1204C50.8924 47.0804 51.9924 46.1404 53.0924 45.1904C55.0224 43.2904 57.2524 41.7304 59.4124 40.1104C64.3924 36.6604 69.7824 33.7804 75.4824 31.7204C80.2024 29.9704 85.1423 28.9304 90.1023 28.1504C91.6623 28.0204 93.2624 28.2304 94.7823 27.7604C95.9324 27.7904 97.1223 27.6304 98.2423 28.0104C102.932 27.9904 107.552 29.0604 112.072 30.2204C116.252 31.4604 120.332 33.0204 124.242 34.9704C133.332 39.6004 141.412 46.2404 147.572 54.3804C151.802 59.7904 155.122 65.9004 157.482 72.3504C159.492 77.6104 160.642 83.1604 161.292 88.7404C161.442 92.3704 162.002 96.0104 161.462 99.6304C160.852 114.83 154.522 129.58 144.522 140.98C143.032 142.65 141.352 144.13 139.822 145.76C137.242 148.14 134.442 150.26 131.602 152.31L131.572 152.3ZM166.042 103.5C165.422 107.81 164.742 112.15 163.252 116.27C162.552 119 161.382 121.58 160.252 124.15C159.732 125.25 159.232 126.37 158.732 127.49C158.062 128.51 157.442 129.55 156.922 130.65C155.922 132.37 154.742 133.99 153.652 135.66C153.422 135.93 153.212 136.2 152.992 136.48C152.572 137.09 152.152 137.7 151.732 138.31C150.542 139.63 149.302 140.91 148.212 142.33C146.722 143.87 145.292 145.48 143.562 146.77C142.992 147.33 142.392 147.86 141.782 148.38C141.022 148.91 140.332 149.51 139.642 150.13C138.452 150.9 137.342 151.78 136.212 152.62C135.962 152.62 135.452 152.64 135.202 152.65C135.242 152.51 135.312 152.22 135.352 152.08C139.182 149.44 142.592 146.21 145.692 142.75C154.062 133.56 159.822 122.06 162.312 109.9C164.952 96.7504 163.862 82.8404 158.972 70.3304C156.782 64.7404 153.902 59.4204 150.352 54.5704C149.142 52.9204 147.902 51.2904 146.532 49.7804C144.362 47.3404 142.012 45.0604 139.622 42.8404C139.052 42.2904 138.422 41.8204 137.792 41.3504C137.402 41.0204 137.072 40.6304 136.772 40.2204C137.002 40.2204 137.452 40.2204 137.672 40.2204C137.732 40.2304 137.842 40.2504 137.892 40.2604C138.392 40.5804 138.902 40.8804 139.412 41.1804C139.722 41.4604 140.022 41.7404 140.312 42.0504C140.422 42.0304 140.632 41.9804 140.732 41.9504C140.732 42.0704 140.732 42.3104 140.732 42.4304C141.952 43.1604 142.892 44.2404 143.992 45.1104C144.082 45.2104 144.262 45.4104 144.352 45.5104C146.282 47.1304 148.022 48.9704 149.672 50.8804C150.132 51.4304 150.582 51.9904 151.022 52.5604C151.922 53.5804 152.772 54.6404 153.542 55.7704C154.032 56.5404 154.552 57.2804 155.032 58.0504C155.112 58.0504 155.262 58.0504 155.342 58.0504C156.072 59.9604 157.402 61.5604 158.302 63.3804C158.582 63.9804 158.902 64.5704 159.242 65.1504C159.332 65.3304 159.512 65.7004 159.602 65.8804C160.322 67.5304 161.072 69.1704 161.752 70.8404C161.852 71.1504 161.952 71.4604 162.052 71.7704C164.582 78.2404 165.952 85.1604 166.272 92.0904C166.692 95.9004 166.232 99.7204 166.032 103.52L166.042 103.5Z" fill="#8F5C22"/>
<path d="M63.4116 76.9207C63.5116 76.9707 63.7016 77.0807 63.7916 77.1307C63.8816 77.5907 64.3316 77.8107 64.6616 78.0807C67.4816 80.1207 70.1016 82.4307 72.8316 84.5807C72.1016 83.0207 70.9716 81.6307 69.7216 80.4407C68.8416 79.5007 68.1016 78.4307 67.1416 77.5607C67.2516 77.3807 67.4716 77.0107 67.5816 76.8307C68.3416 76.8207 69.1316 76.8507 69.8516 76.5707C71.4716 76.5007 73.1516 76.3207 74.6216 75.5907C76.3016 75.0907 77.7416 74.0707 79.1016 73.0007C81.5916 70.7707 83.1516 67.7307 84.3516 64.6507C84.8316 62.7807 85.4216 60.9107 85.4416 58.9707C85.9016 57.4007 85.5716 55.7407 85.6816 54.1307C86.1216 54.1207 86.5716 54.1107 87.0116 54.1007C87.6916 54.8407 88.3716 55.5907 89.1516 56.2307C89.5816 57.0307 90.3316 57.5607 91.0516 58.0807C94.1516 60.3807 97.7016 62.1607 101.512 62.8707C103.422 62.9907 105.352 62.9207 107.262 62.8307C106.952 64.1907 106.302 65.4207 105.802 66.7007C105.152 68.3007 104.032 69.6407 103.262 71.1707C102.262 72.5907 101.112 73.9307 99.8716 75.1507C99.0816 75.4707 98.4916 76.0807 97.8616 76.6207C95.9216 78.1107 93.7916 79.3407 91.5616 80.3407C90.0716 81.1407 88.3816 81.4407 86.9216 82.3007C86.8016 82.3407 86.5716 82.4207 86.4516 82.4607C86.0416 82.5107 85.6416 82.5507 85.2416 82.6107L85.4416 82.9207C85.0616 82.8707 84.6716 82.8507 84.2816 82.8607C83.8216 83.4207 83.0116 83.0807 82.3916 83.2107C81.4316 83.7207 80.2816 83.3407 79.2416 83.5507H79.2216C78.2416 83.6307 77.1616 83.2907 76.2616 83.7607C78.4816 84.3007 80.7816 84.4607 83.0616 84.4207C84.1516 85.0607 85.4616 84.7907 86.6616 84.8707C88.4416 85.0007 90.1616 84.5307 91.9316 84.4907C93.6416 84.0207 95.5516 83.9607 97.0516 82.9207C97.1916 82.8907 97.4616 82.8207 97.6016 82.7907C99.9916 81.6907 102.472 80.2807 103.892 78.0107L104.072 78.1407C105.472 76.2707 106.832 74.3007 107.362 71.9807C107.472 71.7707 107.602 71.5607 107.722 71.3507C107.742 71.1507 107.792 70.7507 107.812 70.5507C108.202 69.3907 108.362 68.1707 108.462 66.9507C108.672 65.5407 108.952 64.1207 108.732 62.7007C108.542 62.0507 109.362 61.8307 109.722 61.4807C110.592 61.2907 111.412 60.8807 112.092 60.2807C112.192 60.1807 112.402 59.9807 112.502 59.8807L112.772 59.9007C113.182 59.5507 113.552 59.1607 113.912 58.7607C114.362 58.6807 114.732 58.5007 114.732 57.9907C115.302 57.9707 115.862 57.9807 116.432 58.0307C116.482 60.4507 116.292 62.8807 116.532 65.3007L116.932 64.8207C117.302 62.2207 117.772 59.6407 118.092 57.0507C118.492 56.3207 118.332 55.4807 118.332 54.6907H118.642C118.642 54.1407 118.662 53.5807 118.692 53.0107C119.052 52.4907 119.012 51.8207 119.152 51.2307V51.0007C119.232 50.6907 119.332 50.3907 119.432 50.0807C119.452 49.5407 119.502 49.0007 119.672 48.4807C119.762 48.0007 119.842 47.5107 119.982 47.0307C120.062 46.8707 120.212 46.5507 120.292 46.3907C120.602 45.7907 121.162 45.2507 121.062 44.5107C121.152 44.5807 121.342 44.7207 121.442 44.7907C121.862 44.2207 122.362 43.7107 122.852 43.1907C122.822 42.7407 122.802 42.2907 122.782 41.8307C122.472 40.9807 122.122 40.1007 121.292 39.6207L121.382 39.3607C120.382 39.3407 119.302 39.0907 118.372 39.5807C117.712 39.7807 117.632 40.5507 117.352 41.0807L117.092 41.1107C117.092 41.9007 117.092 42.6807 117.092 43.4707C117.242 43.5807 117.532 43.8107 117.682 43.9307C117.712 44.1007 117.762 44.4407 117.792 44.6107C117.902 44.7307 118.132 44.9807 118.242 45.1107C118.422 47.3907 117.372 49.5007 116.512 51.5507C115.372 53.6707 114.102 55.8407 112.122 57.2907C111.522 56.9907 110.842 56.7807 110.442 56.2107C109.262 54.7407 108.012 53.3207 107.072 51.6607C106.132 50.2007 105.132 48.3407 105.882 46.6007C106.142 45.8807 106.572 45.2507 106.862 44.5407C107.142 43.4207 106.502 42.3407 105.582 41.7207C103.802 40.2007 100.532 41.5407 100.552 43.9607C100.932 45.7307 102.612 47.2707 102.012 49.1907C101.362 51.6807 100.132 53.9707 99.0916 56.3007C98.5516 57.3307 97.7516 58.7907 96.3616 58.5107C94.7616 57.9907 93.5816 56.6607 92.0616 55.9607C90.9916 54.9307 89.7116 54.1407 88.7416 53.0007C87.5316 51.7507 86.0716 50.6107 85.6916 48.8007C86.0916 47.5807 86.7016 46.1607 85.9816 44.9407C85.2016 43.7307 83.5316 42.8007 82.1316 43.4707C80.5516 44.0107 79.9716 45.9307 80.2216 47.4507C80.8916 49.1407 83.0816 49.4907 83.6916 51.2507C84.0616 52.9407 83.5616 54.6507 83.4816 56.3407C83.4816 58.6507 82.9416 60.9307 82.3616 63.1507C82.1916 63.9407 81.6216 64.5407 81.1716 65.1807C78.9516 65.4707 77.0216 63.9507 74.9616 63.3707H75.1616C73.9816 62.8007 72.7616 62.2907 71.5416 61.8007C70.7116 61.2107 70.1016 60.3607 69.6716 59.4507C69.7316 58.4307 69.7316 57.1807 68.7616 56.5707C67.6816 56.0407 66.3316 55.5407 65.2516 56.3207C64.3116 56.6607 64.0116 57.6607 63.5616 58.4507C63.6116 59.2807 63.6616 60.3007 64.3916 60.8407C64.4816 60.9407 64.6616 61.1507 64.7516 61.2507H64.7916C65.6016 62.0707 66.8516 62.1607 67.7016 62.9307C69.1316 64.0007 69.0616 65.9707 69.5316 67.5207C70.0016 68.9007 69.7216 70.3507 69.9616 71.7607C70.1416 72.6507 69.7416 73.7807 68.8816 74.1607C65.5216 74.6307 62.4516 72.8307 59.3816 71.7607L59.3216 71.6707C59.0716 71.5607 58.8116 71.4307 58.5716 71.3007C57.7916 70.3107 56.7316 69.4307 56.5716 68.1007C56.4916 66.7907 55.4516 65.4907 54.0716 65.5107C53.3216 65.5107 52.4216 65.3607 51.8316 65.9407C50.8116 66.7707 50.2116 68.2207 50.6316 69.5107C51.0316 70.5707 52.1216 71.1307 53.1416 71.4507C54.1816 71.5707 55.3216 71.4107 56.2516 72.0107C58.3016 73.3507 60.2016 74.9607 62.3616 76.1207C62.6516 76.4607 63.0416 76.6707 63.4316 76.8707L63.4116 76.9207ZM101.942 57.4007C102.752 56.1107 103.342 54.6307 104.552 53.6407C105.852 55.0007 106.772 56.6507 107.952 58.1007C108.472 58.5907 108.202 59.2607 108.062 59.8507C105.882 60.3907 103.382 61.1507 101.302 59.9307C100.842 59.0307 101.542 58.1607 101.952 57.4007H101.942ZM72.6316 66.3407C73.0816 65.9107 73.7516 66.2307 74.2616 66.3407C76.1116 66.9607 78.1016 67.4607 79.5716 68.8307C78.8716 70.2207 77.5716 71.1507 76.5116 72.2407C75.7116 72.6507 74.9216 73.3307 73.9716 73.2507C73.2416 72.8707 73.1916 71.9307 73.0616 71.2107C72.8916 69.5907 72.5516 67.9807 72.6316 66.3507V66.3407Z" fill="#8F5C22"/>
<path d="M120.911 78.0912L120.881 77.9012C120.581 78.5112 120.111 78.9812 119.511 79.2912L119.351 79.4412C119.241 79.3212 119.011 79.0812 118.891 78.9612C119.081 78.2612 119.351 77.5912 119.781 77.0012C119.811 76.8412 119.881 76.5212 119.911 76.3612C120.061 75.9512 120.161 75.5412 120.291 75.1312C120.721 72.4412 121.081 69.6612 120.521 66.9612C120.501 65.1812 120.111 63.4312 119.721 61.7012C119.321 64.9312 119.981 68.2712 119.191 71.4812C118.661 73.2012 118.271 74.9912 117.441 76.6112L117.511 76.7312C117.331 77.0212 117.161 77.3112 116.991 77.6012C116.771 78.0412 116.511 78.4812 116.421 78.9712L116.391 78.7312C116.011 79.3512 115.621 79.9612 115.241 80.5812C114.901 80.9512 114.591 81.3512 114.311 81.7712C114.191 81.9212 113.961 82.2112 113.841 82.3512C113.301 82.1212 113.031 82.7812 112.751 83.0912C112.551 83.2212 112.341 83.3612 112.141 83.4912C114.821 83.1912 117.751 82.9312 119.871 81.0812C121.411 79.7212 122.901 78.0212 123.241 75.9312C123.621 75.1412 123.771 74.2712 123.861 73.4012L124.111 73.1812C124.311 70.5112 123.961 67.8312 124.081 65.1612C123.791 66.7512 123.871 68.3712 123.861 69.9812C123.861 71.3912 123.361 72.7212 123.101 74.0912L122.981 74.2012C122.731 75.3112 122.111 76.2812 121.491 77.2212C121.221 77.4612 121.031 77.7612 120.911 78.0912Z" fill="#8F5C22"/>
<path d="M111.013 78.8698L110.993 78.6298C110.683 79.9998 110.383 81.3798 109.793 82.6598C109.343 83.7698 108.733 84.8398 108.503 86.0298L108.413 86.1798C108.083 86.7298 107.723 87.2598 107.453 87.8398C106.233 89.6898 104.763 91.3498 103.383 93.0698C101.973 94.0298 100.753 95.2398 99.4233 96.3098C98.2833 96.9998 97.1933 97.8498 95.8633 98.1498C96.0533 98.1498 96.2433 98.1698 96.4433 98.1798C98.6833 96.7798 101.393 96.1398 103.263 94.1798C104.363 93.6398 105.323 92.8298 106.033 91.8398C107.093 90.5798 108.073 89.2498 108.903 87.8298C109.073 87.8298 109.413 87.8098 109.583 87.7998C109.233 88.6998 109.173 89.6698 109.183 90.6298C110.293 90.3898 111.023 89.4698 111.923 88.8598C112.553 88.3898 113.313 88.1798 114.043 87.9098L113.673 87.7898C113.853 87.7398 114.203 87.6298 114.373 87.5698V87.2198C114.713 87.1498 115.073 87.0798 115.423 87.0098C115.613 86.9498 116.003 86.8298 116.193 86.7698C116.213 86.6998 116.253 86.5698 116.273 86.4998C116.723 86.4898 117.173 86.4798 117.623 86.4598L117.673 86.2298C119.263 85.8598 120.913 85.7098 122.493 86.2698C122.203 85.6298 121.533 85.3698 120.963 85.0798C120.623 84.9698 120.293 84.8598 119.963 84.7398C118.913 84.7398 117.783 84.4798 116.793 84.9398C116.313 84.9698 115.863 85.1298 115.413 85.3098C115.233 85.3898 114.873 85.5698 114.693 85.6498L114.673 85.8798C114.383 85.8898 113.793 85.9198 113.493 85.9298L113.823 86.0398C113.313 86.1798 112.833 86.4098 112.373 86.6598C112.053 86.7698 111.733 86.8598 111.403 86.9198V87.1998C111.193 87.1798 110.783 87.1498 110.583 87.1298C110.493 87.2598 110.313 87.5298 110.223 87.6598C109.813 87.7398 109.483 87.4998 109.203 87.2598C110.303 85.0398 111.193 82.7198 111.613 80.2698L111.433 80.0998L111.633 80.1698C111.853 79.2098 111.963 78.2398 112.123 77.2798C112.233 75.0798 112.163 72.8698 112.183 70.6698C112.163 69.4498 112.263 68.2198 112.033 67.0098C111.843 69.5498 111.953 72.1098 111.933 74.6498C111.373 76.0098 111.413 77.5298 111.003 78.9398L111.013 78.8698Z" fill="#8F5C22"/>
<path d="M91.5441 75.4407C90.5341 75.9007 89.4441 76.0007 88.3541 76.0807C87.9141 76.0807 87.4141 76.1307 87.1641 76.5607C88.9141 76.7107 90.6841 76.6707 92.4241 76.4707L92.6041 76.1807C93.9541 76.2007 95.1541 75.4207 96.1741 74.6107C98.0941 72.7207 98.5441 69.8007 98.3641 67.2207C98.0841 69.0507 97.2841 70.7307 96.1641 72.1907C95.1941 73.3307 94.0041 74.2507 92.6641 74.9007L92.9441 75.0307L92.5041 74.9407C92.1941 75.1207 91.8741 75.2907 91.5441 75.4407Z" fill="#8F5C22"/>
<path d="M128.853 83.7302C129.193 84.5602 129.513 85.4002 129.893 86.2202C129.893 87.4402 130.623 88.4902 130.903 89.6402C131.913 93.1702 132.673 96.8302 132.513 100.52C132.433 102.31 131.923 104.04 131.823 105.83C131.663 106.13 131.613 106.44 131.683 106.77C131.183 107.75 130.993 108.86 130.463 109.82C130.203 110.3 129.933 110.78 129.793 111.32C128.933 112.28 128.153 113.32 127.543 114.44C128.673 113.88 129.573 112.96 130.263 111.92H130.283C130.683 111.03 131.423 110.38 131.943 109.57L131.863 109.17C131.993 109.17 132.263 109.19 132.403 109.2C132.733 107.77 134.253 106.74 134.063 105.18L134.213 105.46C134.553 104.53 134.833 103.59 135.133 102.65C135.973 99.2802 134.903 95.7102 136.093 92.4002C136.133 91.5802 136.133 90.7502 136.063 89.9302C135.793 89.1002 135.773 88.2202 135.533 87.3902C135.243 86.2002 134.663 85.1202 134.223 83.9802L134.003 84.1302C133.883 82.8802 132.803 81.8702 132.023 80.9302C131.433 80.1102 130.733 79.3702 129.913 78.7802C129.633 78.3202 129.333 77.8802 128.963 77.4902C128.963 77.6102 128.933 77.8602 128.913 77.9802L128.543 78.1202C128.703 78.1602 129.013 78.2302 129.173 78.2702C130.023 78.9402 130.253 80.0802 130.843 80.9602L131.083 80.6902L130.893 81.1002C131.783 82.6502 132.563 84.2602 133.133 85.9602L133.343 85.9402C133.303 86.3802 133.393 86.8102 133.553 87.2202C133.673 87.6302 133.793 88.0502 133.943 88.4602C133.983 89.0202 134.003 89.5802 134.053 90.1402L133.753 90.2302C132.763 89.6902 132.923 88.2502 131.953 87.7502C131.283 86.3202 130.343 84.9602 129.123 83.9302C129.123 83.8502 129.123 83.7102 129.123 83.6302C128.653 83.3002 128.253 82.8702 128.073 82.3102C127.803 82.1402 127.543 81.9802 127.273 81.8202C127.433 81.9402 127.763 82.1802 127.923 82.2902C128.193 82.7802 128.483 83.2602 128.823 83.7102L128.853 83.7302Z" fill="#8F5C22"/>
<path d="M107.293 106.82C106.773 106.77 106.243 106.75 105.723 106.8C106.233 106.95 106.773 106.93 107.293 106.82Z" fill="#8F5C22"/>
<path d="M123.124 95.6114C122.444 94.8014 121.144 95.1514 120.214 94.8614C120.184 94.2814 120.434 93.7614 120.684 93.2614V93.1414C120.484 93.2014 120.084 93.3214 119.884 93.3814C119.484 93.4814 119.074 93.5114 118.664 93.5714L118.204 93.3914C118.414 93.1514 118.634 92.9214 118.864 92.7114L119.244 92.8014V92.7614C120.544 92.1914 121.734 91.2414 122.364 89.9414C121.644 90.2914 120.984 90.7614 120.294 91.1514C119.594 91.5514 118.764 91.7014 118.144 92.2414C116.694 92.7514 115.154 92.9014 113.684 93.2914C113.094 93.4114 112.514 93.5614 111.934 93.6914L112.024 93.8114C111.514 94.0214 110.974 94.2214 110.914 94.8514C111.144 94.8614 111.614 94.8814 111.844 94.8914C112.014 95.0314 112.364 95.3214 112.534 95.4614C112.934 96.0014 113.554 96.3414 114.044 96.7814C114.244 96.7714 114.634 96.7414 114.834 96.7314C114.144 96.4514 113.554 96.0314 113.484 95.2014C114.034 95.4414 114.574 95.7414 115.134 95.9714C115.534 96.0914 115.944 96.1914 116.364 96.2614C117.334 96.4714 118.324 96.7114 119.324 96.6914C119.414 96.6214 119.604 96.4814 119.704 96.4114C119.854 96.4114 120.144 96.3914 120.304 96.3914C119.664 96.1814 118.804 96.1614 118.804 95.2914H119.234C120.414 95.9714 121.854 95.6514 123.144 95.6014L123.124 95.6114Z" fill="#8F5C22"/>
<path d="M49.0225 97.6008C48.1325 96.5908 46.6225 96.9108 45.4425 97.0208C45.4025 97.1708 45.3325 97.4608 45.2925 97.6108C44.7425 98.3008 44.0325 98.8608 43.5625 99.6008C43.6225 100.041 44.1125 100.251 44.3725 100.581C44.4825 100.871 44.5925 101.171 44.7125 101.461C44.4925 101.601 44.2725 101.741 44.0525 101.891H44.6125C44.9925 102.051 45.3825 102.201 45.7725 102.351L45.6925 102.551C45.8025 102.571 46.0225 102.601 46.1325 102.611C47.0625 103.001 48.0625 103.241 49.0725 103.151C49.3025 103.151 49.7425 103.131 49.9725 103.121L49.9425 102.831C50.4925 102.891 50.6225 102.491 50.6525 102.021C50.5325 101.961 50.2925 101.841 50.1725 101.781C49.3725 100.521 49.1725 99.0508 49.0225 97.6008Z" fill="#8F5C22"/>
<path d="M42.7413 102.801C43.2313 102.391 42.7713 101.711 42.7213 101.211C42.3013 101.211 41.8913 101.211 41.4713 101.231C41.2213 101.741 41.1312 102.291 41.1812 102.851C41.7012 102.841 42.2412 102.901 42.7512 102.791L42.7413 102.801Z" fill="#8F5C22"/>
<path d="M39.5039 104.58C39.4639 103.97 39.6439 103.49 40.0539 103.13C39.7139 103.02 39.3639 102.99 38.9939 103.07C39.2539 102.6 39.5739 102.16 39.9239 101.76C39.8539 101.51 39.7839 101.25 39.7039 101.01C39.8139 100.99 40.0139 100.95 40.1239 100.93C40.2139 100.77 40.3939 100.44 40.4839 100.28C40.8739 100.04 41.3339 100.09 41.7739 100.07C41.7639 99.7898 41.7539 99.5198 41.7439 99.2398C40.9139 98.2798 40.4339 96.8998 39.1439 96.4598C38.7239 96.3998 38.2839 96.3998 37.8639 96.4898C37.2639 96.8698 36.9839 97.5798 36.3839 97.9798C35.6939 99.7498 33.3739 99.7798 31.7539 99.7998C31.8239 101.17 33.0139 101.91 33.9339 102.73C34.8039 103.26 35.8639 103.4 36.8739 103.4L36.5739 103.32C36.9539 103.28 37.3139 103.23 37.6939 103.18C37.9239 103.12 38.3939 103 38.6239 102.94C38.6639 103.07 38.7339 103.34 38.7739 103.47L38.7439 103.51C38.5739 103.59 38.2339 103.75 38.0639 103.83C37.1539 104.2 36.4239 104.86 35.7539 105.55L35.7339 105.69C34.8939 106.07 35.2439 107.07 35.1639 107.8C35.5839 107.92 36.0039 108.06 36.4239 108.2C36.3939 109.34 36.6439 110.53 37.3539 111.46C37.8939 112.08 39.0739 112.21 39.6139 111.54C40.0939 110.14 40.4139 108.66 40.3339 107.18C40.2839 105.94 40.8539 104.8 40.9839 103.58C40.6539 104.12 40.1539 104.48 39.5039 104.58Z" fill="#8F5C22"/>
<path d="M104.062 103.34C104.092 103.8 104.953 104.01 105.333 103.82C105.453 103.23 104.442 103.04 104.062 103.34Z" fill="#8F5C22"/>
<path d="M46.2042 104.5C45.4842 104.04 44.7842 103.47 43.9242 103.32C43.8742 103.53 43.7742 103.94 43.7242 104.14C43.3442 104.48 42.8442 104.42 42.3842 104.42C42.4042 104.51 42.4342 104.69 42.4542 104.78C42.2842 105.19 42.1242 105.62 41.8842 106C41.8142 107.34 41.8842 108.69 41.8242 110.04H42.0242C42.2942 110.43 42.5842 110.81 42.9242 111.15C43.4642 110.68 43.7942 110.05 44.2742 109.53C44.8342 108.96 45.6742 108.91 46.4142 108.81L46.3742 108.59C46.5642 108.55 46.9442 108.48 47.1342 108.44C47.1642 108.28 47.2442 107.97 47.2742 107.81C47.9742 107.11 47.3942 106.07 46.9442 105.41C46.8342 105.03 46.4542 104.79 46.2042 104.5Z" fill="#8F5C22"/>
<path d="M90.1732 124.161C90.1932 124.021 90.2132 123.731 90.2332 123.591C89.4532 122.631 88.6032 121.701 88.1132 120.541C87.2532 119.051 87.1732 117.301 86.8232 115.661C87.2032 113.651 87.4132 111.581 88.3132 109.721C88.5732 109.091 89.1132 108.411 88.5932 107.771C88.2532 107.601 87.9332 107.401 87.5932 107.241C87.0932 106.601 86.4232 106.151 85.7632 105.701C85.3832 105.091 84.9832 104.501 84.5332 103.941C84.2232 103.501 83.8632 103.091 83.5232 102.671C83.4932 102.511 83.4432 102.181 83.4132 102.021C83.2732 101.981 82.9932 101.901 82.8432 101.861C82.8632 102.131 82.9032 102.391 82.9632 102.661C82.3732 103.681 82.7132 104.881 82.4432 105.981C82.0932 107.381 82.3332 108.821 82.5432 110.221C82.5532 111.291 82.7032 112.361 83.1332 113.361C83.4132 115.071 84.1632 116.741 85.1732 118.151C85.2732 118.281 85.4832 118.551 85.5932 118.691C85.6332 118.821 85.7132 119.091 85.7532 119.221C86.5432 119.821 86.8332 120.831 87.6432 121.401L87.6232 121.601C88.4432 122.491 89.3132 123.331 90.1832 124.171L90.1732 124.161Z" fill="#8F5C22"/>
<path d="M105.594 113.011C106.074 113.011 106.554 112.991 107.024 112.981C107.374 112.671 107.824 112.511 108.264 112.351C107.374 112.111 106.484 112.561 105.594 112.601C105.594 112.701 105.594 112.911 105.594 113.011Z" fill="#8F5C22"/>
<path d="M122.004 120.65C121.184 120.95 120.494 121.51 119.854 122.1C119.054 122.29 118.634 123.08 118.174 123.68C118.004 123.49 117.834 123.3 117.674 123.12C118.594 120.37 120.474 118.07 122.554 116.1C124.624 114.12 126.634 111.98 127.844 109.35C128.464 107.97 129.044 106.5 128.954 104.95L129.024 104.71C129.404 101.83 129.024 98.9005 128.274 96.1105L128.044 96.1505C128.044 95.5105 128.124 94.8005 127.684 94.2705C127.684 93.6105 127.324 92.9905 127.144 92.3705C127.324 91.5005 126.684 90.6805 126.244 89.9805C126.104 90.9105 126.554 91.7805 126.554 92.7005C126.654 94.0205 126.264 95.3005 126.214 96.6005C126.154 97.9105 125.494 99.1205 125.554 100.44C125.374 100.89 125.184 101.34 124.984 101.78L125.074 101.89C124.734 102.18 124.504 102.56 124.344 102.98C123.684 104.59 122.774 106.07 121.824 107.52C121.054 108.69 120.004 109.66 119.304 110.89C119.224 110.95 119.064 111.08 118.984 111.14C117.514 112.76 115.754 114.11 114.484 115.91C113.434 117.3 111.964 118.29 110.524 119.24C109.234 120.07 107.804 120.75 106.234 120.78C103.084 120.29 100.804 117.91 98.3041 116.17C97.1041 115.05 96.1041 113.69 94.5941 112.95C93.9841 111.62 93.1441 110.39 92.7641 108.96C92.5841 108.41 92.5341 107.77 92.0741 107.36C91.9941 107.01 91.8941 106.67 91.7941 106.33C91.6941 106 91.5841 105.68 91.4641 105.37C91.3841 104.14 91.2041 102.91 91.0841 101.69C91.2141 103.3 90.7741 105 91.3041 106.55C91.1941 108 91.5841 109.39 91.7841 110.8C92.0741 111.68 92.2841 112.58 92.4341 113.5L92.7641 113.29L92.5241 113.47C93.1641 114.83 93.7341 116.23 94.5041 117.52C94.8341 118.03 95.0241 118.69 95.6341 118.94C95.6341 119.12 95.6441 119.49 95.6541 119.67L95.8541 119.32V119.73C96.1241 119.97 96.4141 120.21 96.6841 120.46C97.2641 121.46 98.0841 122.29 99.0141 122.98C101.504 125.19 104.494 126.78 107.584 127.97C105.964 126.79 104.194 125.8 102.714 124.42C101.794 123.54 100.934 122.59 99.9841 121.73C98.9641 120.71 98.0741 119.58 97.2941 118.37L97.2441 118.62C96.6141 117.12 95.4941 115.87 94.9141 114.32L95.0641 114.09C95.2241 114.09 95.5341 114.09 95.6941 114.09C96.7341 115.29 97.9741 116.3 99.1141 117.41C101.074 118.95 103.034 120.68 105.504 121.31C106.254 121.41 107.184 121.59 107.784 121.01C108.734 120.71 109.614 120.21 110.504 119.77C111.444 119.32 112.214 118.48 113.294 118.38C113.214 118.67 113.054 119.25 112.974 119.54C111.944 123.19 113.104 127.05 115.084 130.17C115.994 131.36 116.924 132.57 118.094 133.52L117.874 133.54C118.404 134.12 118.994 134.67 119.664 135.09C119.474 133.97 118.654 133.1 118.444 132C118.254 131.1 117.984 130.21 117.894 129.29C117.874 127.11 118.914 125.14 119.714 123.18C120.404 122.27 121.134 121.39 122.004 120.65Z" fill="#8F5C22"/>
<path d="M110.182 137.871C110.332 136.291 109.532 134.881 108.682 133.621C107.442 131.851 105.682 130.531 103.922 129.321C102.262 128.201 100.362 127.481 98.6719 126.411C98.5019 126.411 98.1719 126.381 98.0019 126.371L98.1619 126.101H97.7919C97.0119 125.451 96.3519 124.571 95.3619 124.231C95.2719 124.181 95.0919 124.071 95.0019 124.021L95.0419 123.781C94.6919 123.391 94.3519 122.981 94.0419 122.551C93.8219 122.321 93.5919 122.101 93.3719 121.881C93.0219 121.411 92.7119 120.921 92.5219 120.361H92.2319C92.2819 120.191 92.3919 119.861 92.4519 119.701L92.0519 119.781C91.9919 119.411 91.9119 119.041 91.8019 118.681C91.4419 117.381 91.3719 116.041 91.3119 114.701C91.1219 115.711 91.1819 116.751 91.0719 117.771C90.9919 118.171 91.1119 118.561 91.3119 118.911C91.3219 119.551 91.3419 120.181 91.4119 120.821L91.5619 121.131C91.4619 122.311 92.0219 123.401 92.4119 124.481C93.3919 126.491 94.7419 128.321 96.2619 129.961C96.9619 130.621 97.6019 131.481 98.6019 131.691C99.0419 132.091 99.4119 132.591 99.9619 132.851L99.7019 132.871C100.272 133.111 100.902 133.351 101.162 133.971L101.322 133.951L101.442 134.091C102.122 134.651 102.682 135.361 103.412 135.871C103.842 136.771 104.682 137.371 105.362 138.071L105.382 138.361C106.192 139.301 106.642 140.451 107.082 141.591C107.082 142.531 107.082 143.471 107.102 144.411C106.952 144.711 106.802 145.011 106.652 145.311C106.552 145.621 106.462 145.951 106.372 146.271C107.432 145.591 107.962 144.321 108.902 143.471C108.922 143.111 108.932 142.751 108.952 142.391H109.362C109.312 142.251 109.232 141.951 109.182 141.801L109.492 141.821C109.682 141.491 109.872 141.161 110.052 140.831C109.902 139.831 110.712 138.811 110.182 137.871Z" fill="#8F5C22"/>
<path d="M130.922 140.77L130.742 140.73C131.402 139.92 130.512 138.7 129.532 139.03C129.272 139.58 129.021 140.2 129.401 140.76V140.97C129.901 140.93 130.422 140.89 130.922 140.76V140.77Z" fill="#8F5C22"/>
<path d="M137.511 138.28L137.271 138.63C137.441 137.67 137.031 136.71 137.071 135.73C136.831 135.52 136.601 135.3 136.371 135.09C136.121 135.09 135.621 135.09 135.371 135.09C134.961 135.07 134.551 135.04 134.141 135.01C133.981 135.15 133.671 135.44 133.511 135.58L133.551 135.32C132.791 136.05 132.021 136.8 131.551 137.76C131.831 137.92 132.111 138.09 132.391 138.25C132.511 138.6 132.651 138.95 132.801 139.29C132.691 139.48 132.591 139.68 132.481 139.88C132.951 140.07 133.421 140.28 133.871 140.51C135.041 140.97 136.291 141.25 137.551 141.2C137.841 141.06 138.141 140.92 138.451 140.79C138.531 140.61 138.691 140.25 138.771 140.07C138.441 139.8 138.101 139.54 137.771 139.28C137.701 139.03 137.571 138.53 137.501 138.28H137.511Z" fill="#8F5C22"/>
<path d="M101.203 139.55C100.913 139.09 100.673 138.6 100.383 138.14L100.273 138.08L100.213 137.92C99.4933 137.25 98.8033 136.56 98.1033 135.88C98.0233 135.67 97.8733 135.53 97.6533 135.45C95.2233 133.08 91.8433 132.12 89.1333 130.15C87.8033 129.34 86.8433 128.1 85.6833 127.09C85.5133 126.94 85.3433 126.79 85.1733 126.64C84.5733 125.32 83.7133 124.09 83.5133 122.62C83.3933 121.3 83.5433 119.98 83.3933 118.66C82.5633 120.57 82.8733 122.7 82.8933 124.72C83.5433 128.59 85.5733 132.26 88.6133 134.76C89.6833 136 90.9633 137.03 92.2233 138.08C92.9233 138.93 93.9033 139.47 94.7333 140.18L94.7033 140.32C95.5833 141.01 96.1633 141.97 96.9233 142.77C97.1733 143.35 97.4733 143.93 97.7633 144.5C98.8633 146.44 98.9333 149.01 97.7433 150.92C97.3133 151.73 96.5733 152.32 96.1133 153.11C97.4833 152.44 98.3133 151.11 99.3433 150.04C100.013 149.31 100.633 148.51 100.893 147.54C101.403 146.77 101.623 145.87 101.873 145C102.163 143.8 102.143 142.54 101.893 141.33C101.683 140.73 101.463 140.13 101.223 139.55H101.203Z" fill="#8F5C22"/>
<path d="M75.5123 141.661C75.0623 140.771 74.7723 139.741 73.9823 139.091C73.8723 138.801 73.7723 138.521 73.6823 138.221L73.4123 138.261C72.3923 135.961 70.9623 133.851 69.8523 131.601C68.4523 127.991 67.1623 124.291 66.8323 120.401C66.8323 119.321 66.7923 118.231 67.0123 117.161C67.2223 116.051 67.0723 114.891 67.4623 113.821C68.3123 110.581 69.7823 107.461 72.0323 104.951C72.6323 104.301 73.3923 103.751 73.7423 102.911C72.1123 103.621 70.7023 104.721 69.2423 105.711C68.6023 106.171 67.8423 106.531 67.4823 107.281C67.2823 107.411 67.1023 107.561 66.9423 107.741C64.5823 109.031 63.2223 111.501 61.5823 113.541L61.1323 113.161C61.0823 112.471 61.0523 111.781 61.0523 111.091C60.8723 108.891 61.9523 106.731 63.5223 105.231L63.4923 105.141C63.9923 104.761 64.4523 104.341 64.8623 103.861C67.2323 102.381 69.7023 101.051 72.3623 100.151C79.0623 97.6808 86.2323 97.1108 93.2123 95.8408C95.2423 95.5508 97.1123 94.6708 98.9123 93.7208C99.7523 93.2508 100.672 92.8208 101.222 91.9808C104.492 89.7108 106.592 86.0808 107.872 82.3908C108.692 80.3908 108.912 78.2208 109.382 76.1308C109.562 75.2808 109.542 74.4008 109.362 73.5508C109.282 73.9608 109.202 74.3808 109.142 74.8008C108.602 76.5508 107.732 78.1908 106.542 79.5808C105.452 81.2908 103.692 82.4008 102.082 83.5808C101.532 83.9008 100.982 84.2508 100.432 84.5808C100.032 84.7708 99.6423 84.9608 99.2623 85.1908C98.2423 85.4308 97.3123 85.9108 96.3223 86.2408C92.2923 87.6108 88.0423 88.1208 83.9123 89.1208C82.6923 89.4308 81.4123 89.6308 80.2823 90.2408C79.9123 90.3008 79.5423 90.3708 79.1723 90.4208C77.2323 90.9208 75.3423 91.5908 73.5523 92.4908C72.5223 93.0108 71.3423 93.3408 70.5323 94.2008C70.3923 94.2508 70.1123 94.3408 69.9723 94.3808C69.4223 94.7208 68.8923 95.1108 68.3323 95.4108C67.4323 96.1208 66.4623 96.7608 65.6723 97.6008C65.3223 97.8908 64.8723 98.0908 64.6423 98.4908C64.3723 98.8308 63.6923 99.2508 63.6323 98.5308C64.1723 98.0708 64.2523 97.2708 64.7423 96.7608C65.4023 96.0008 65.9423 95.1308 66.6723 94.4208C67.5423 93.5308 68.6223 92.8908 69.5123 92.0108C69.9023 91.7708 70.2823 91.4908 70.6323 91.1808C68.7923 92.1408 67.0323 93.2308 65.3223 94.3908C64.8523 94.8108 64.3923 95.2308 63.9623 95.7008C62.2523 97.2608 60.5423 99.0508 59.8223 101.291C57.7023 105.591 58.9423 110.711 61.1323 114.731C60.5523 115.901 60.0523 117.131 59.9923 118.461L59.9423 118.571C59.9023 120.321 59.6923 122.111 60.0923 123.831C60.2723 124.571 60.4523 125.311 60.5923 126.071C60.6423 126.071 60.7523 126.071 60.8123 126.071C61.1023 127.551 61.8423 128.861 62.4923 130.201C62.7823 130.801 63.1123 131.371 63.5023 131.911C63.7423 132.301 63.9723 132.691 64.2023 133.081L64.3123 133.051C65.5323 134.881 66.9423 136.601 68.5923 138.061C68.9723 139.071 69.9723 139.741 70.6623 140.571C70.7223 140.721 70.8423 141.031 70.9023 141.191C72.7223 143.431 74.5923 145.851 75.1623 148.751C75.2423 148.871 75.4123 149.121 75.4923 149.241C75.4123 150.011 75.2523 150.771 75.0623 151.531C74.4423 152.101 73.8523 152.701 73.3823 153.411C75.7223 152.461 77.3223 149.961 77.1523 147.431C76.9423 145.431 76.3623 143.471 75.4823 141.671L75.5123 141.661Z" fill="#8F5C22"/>
<path d="M127.741 141.091C127.541 141.171 127.151 141.331 126.961 141.411C126.981 141.231 127.011 140.851 127.021 140.671C127.171 140.571 127.471 140.381 127.621 140.281L127.711 140.461C127.681 140.271 127.631 139.901 127.611 139.711H127.881C127.771 138.761 128.801 138.891 129.221 138.261C129.361 138.221 129.631 138.141 129.771 138.101C129.771 137.881 129.801 137.431 129.801 137.211C129.291 135.961 128.251 134.911 127.041 134.321C125.361 133.821 124.701 135.831 123.931 136.891C123.641 137.061 123.481 137.291 123.441 137.581L123.161 137.241C122.071 137.751 120.871 137.771 119.711 137.921L119.771 138.281L119.881 138.231C119.961 138.831 120.541 139.161 120.911 139.581C121.251 140.031 121.651 140.431 122.021 140.861C122.191 140.881 122.531 140.931 122.691 140.951C122.901 141.031 123.321 141.201 123.521 141.281C124.001 141.261 124.491 141.261 124.981 141.281C125.151 141.241 125.491 141.171 125.661 141.131C125.891 141.131 126.361 141.151 126.591 141.151C126.341 141.971 125.411 142.161 124.791 142.621C124.761 142.651 124.691 142.711 124.661 142.741C123.521 143.181 122.921 144.381 123.101 145.571C123.071 146.241 123.971 145.971 124.371 146.131L124.581 146.231C124.601 147.131 124.751 148.031 125.001 148.891L125.201 148.811C125.311 149.681 126.301 149.991 127.051 150.031C127.891 149.301 128.211 148.171 128.071 147.091C128.761 145.861 128.261 144.411 128.741 143.131C128.801 142.801 128.851 142.471 128.901 142.141C129.001 142.041 129.201 141.841 129.301 141.741C128.671 141.911 128.331 142.561 127.631 142.571C127.661 142.071 127.701 141.571 127.741 141.071V141.091Z" fill="#8F5C22"/>
<path d="M92.0934 149.5C90.2534 148.52 88.6634 147.15 87.0534 145.85C85.4134 144.3 83.8634 142.65 82.2034 141.11C81.6134 140.25 80.9034 139.48 80.2734 138.65L80.1334 138.97L80.2934 138.46L79.8834 138.53C79.8834 138.35 79.8534 137.98 79.8434 137.8C79.0134 136.97 78.6334 135.85 78.0534 134.86C77.3734 133.74 77.2234 132.4 76.6034 131.26C76.6034 131.08 76.5834 130.73 76.5834 130.56L76.2234 130.64C76.2234 130.06 76.2234 129.48 76.2034 128.89C75.9834 128.56 75.8634 128.18 75.9034 127.77C75.9134 125.74 75.8534 123.72 75.9334 121.69C76.2834 120.95 76.2834 120.13 76.1734 119.33L76.5134 119.47C76.6934 118.66 76.8634 117.84 77.1434 117.05C77.7834 116.64 77.8734 115.85 78.1534 115.2C77.1234 115.76 77.2334 117.17 76.6634 118.08C76.6434 118.25 76.6234 118.58 76.6134 118.75C75.9034 118.89 76.1134 119.72 75.7634 120.18C75.7334 120.33 75.6834 120.63 75.6534 120.78C75.3434 121.14 75.3934 121.63 75.3334 122.07C75.1434 122.54 74.9734 123.01 74.7834 123.48C74.7534 124.02 74.7434 124.55 74.7334 125.09C74.6634 125.22 74.5234 125.48 74.4534 125.61C74.5234 127 74.1334 128.54 74.7234 129.84C74.7534 130.18 74.7934 130.52 74.8234 130.87L74.9434 131.2C74.6934 131.23 74.1934 131.28 73.9434 131.31L73.9234 131.25L73.9034 131.07C74.0934 129.83 73.1834 128.76 72.9634 127.56C71.9134 122.97 71.6834 118.05 73.2634 113.54C73.7734 111.98 74.6634 110.57 75.2034 109.02C75.3234 108.88 75.5634 108.61 75.6834 108.47C75.7034 108.38 75.7334 108.2 75.7534 108.11C77.1334 106.19 78.8934 104.62 80.5834 102.99C78.8034 104.12 77.1534 105.46 75.7134 107C74.7934 108.03 73.8034 109.04 73.1134 110.24C73.0234 110.35 72.8334 110.58 72.7434 110.7C70.4634 113.74 69.8034 117.69 69.7734 121.4C70.2034 122.88 70.0334 124.45 70.5434 125.9C71.1734 128.16 71.9134 130.45 73.1834 132.43C73.2134 132.52 73.2634 132.69 73.2934 132.78L73.4034 132.88C74.0234 134.4 74.9934 135.75 75.8934 137.12C76.3434 137.8 76.7134 138.57 77.4334 139.02C77.7734 139.79 78.4134 140.34 79.0834 140.82C78.7934 140.42 78.4834 140.04 78.1834 139.65L78.0334 139.29C78.2934 139.29 78.8234 139.31 79.0934 139.31C79.1334 139.36 79.2234 139.45 79.2734 139.5C79.4434 139.72 79.6134 139.95 79.7734 140.18C80.1834 140.85 80.6734 141.47 81.3134 141.93C81.3834 142.05 81.5134 142.3 81.5834 142.42L81.9634 142.38C82.2334 143.28 83.3334 143.75 84.0134 144.37C84.0834 144.47 84.2134 144.66 84.2834 144.76C85.7934 145.6 87.0234 146.88 88.6034 147.64C88.7434 147.72 89.0134 147.88 89.1534 147.96C90.1734 148.7 91.3834 149.12 92.3934 149.86C92.3434 149.71 92.2734 149.56 92.1134 149.5H92.0934Z" fill="#8F5C22"/>
<path d="M132.511 141.411C132.381 141.431 132.131 141.491 132.001 141.511L131.951 141.391C131.921 141.641 131.871 142.131 131.851 142.381C131.431 142.521 130.991 142.611 130.561 142.721L130.501 142.481C130.161 143.281 130.011 144.131 129.961 144.981C129.511 146.011 130.071 147.081 130.051 148.131C130.421 148.511 130.791 148.871 131.181 149.231C131.261 149.011 131.411 148.571 131.491 148.351C131.961 147.921 132.411 147.471 132.921 147.091C133.741 146.991 134.641 146.941 135.291 146.381C135.761 145.831 136.101 145.001 135.721 144.311C135.201 142.881 133.951 141.811 132.491 141.401L132.511 141.411Z" fill="#8F5C22"/>
</g>
<defs>
<clipPath id="clip0_4926_33086">
<rect width="192" height="192" fill="white"/>
</clipPath>
</defs>
</svg>
