<svg width="192" height="192" viewBox="0 0 192 192" fill="none" xmlns="http://www.w3.org/2000/svg">
<g clip-path="url(#clip0_5170_53875)">
<path d="M96 192C149.019 192 192 149.019 192 96C192 42.9807 149.019 0 96 0C42.9807 0 0 42.9807 0 96C0 149.019 42.9807 192 96 192Z" fill="white"/>
<path d="M164.101 94.7858C164.728 94.0673 165.373 93.3298 165.999 92.6113C165.999 102.671 165.999 112.749 165.999 122.808L165.088 122.543L164.215 122.921C159.319 113.562 159.964 104.183 164.101 94.7858Z" fill="#828282"/>
<path d="M34.3727 93.8029C34.3727 106.472 34.4296 117.665 34.3537 128.878C34.2967 135.307 34.98 141.622 43.2171 141.641C51.1884 141.66 52.441 135.836 52.4031 129.143C52.2512 104.921 52.498 80.6994 52.2323 56.4778C52.1753 50.654 53.2192 46.0404 58.6852 43.2041C59.1218 43.4877 59.9569 43.7713 59.9569 44.0739C60.0897 73.9491 60.3175 103.824 60.1087 133.681C60.0328 143.343 53.333 149.337 43.8434 149.602C34.0121 149.866 26.705 143.721 26.2305 133.889C25.756 124.151 26.1736 114.394 26.0977 104.637C26.0408 99.4755 29.5899 97.3199 34.3727 93.8029Z" fill="#030303"/>
<path d="M164.092 94.7859C164.13 104.164 164.187 113.543 164.225 122.922C159.366 132.792 153.293 136.328 144.353 134.494C135.737 132.716 130.954 126.268 130.897 115.717C130.783 95.6367 131.049 75.5561 130.745 55.4943C130.65 49.4247 132.852 45.5106 139.191 42.334C139.191 65.7993 139.191 88.5272 139.191 111.236C139.191 114.054 138.963 116.928 139.419 119.688C140.178 124.359 143.385 126.798 147.997 126.779C152.628 126.76 155.893 124.321 156.481 119.613C156.956 115.907 157.032 112.068 156.671 108.343C156.121 102.009 158.303 97.4898 164.092 94.7859Z" fill="#090909"/>
<path d="M83.003 135.117C86.2295 130.787 88.3742 126.514 92.3219 127.138C102.931 128.821 101.318 121.995 101.299 115.812C101.242 102.935 101.261 90.0586 101.28 77.2009C101.299 70.6586 99.7428 64.6268 91.9803 64.5323C84.1418 64.4377 82.2059 70.375 82.7374 76.9929C83.2118 82.7789 80.6116 86.2391 74.9368 89.1888C74.9368 82.949 74.5762 77.4089 75.0127 71.9255C75.7719 62.8116 82.1679 56.8554 90.9554 56.4773C100.16 56.0613 108.321 61.7905 108.682 71.0178C109.46 91.0796 109.043 111.198 109.233 131.279C109.27 135.023 107.088 135.174 104.336 135.155C97.769 135.079 91.2021 135.117 83.003 135.117Z" fill="#020202"/>
<path d="M97.959 149.639C101.091 145.46 103.045 141.603 106.652 142.17C116.881 143.74 115.838 137.273 115.705 130.939C115.572 123.754 116.008 116.531 115.572 109.364C115.173 103.106 116.881 98.3407 124.094 94.4834C124.094 107.7 124.094 120.199 124.094 132.716C124.094 149.734 124.094 149.734 106.879 149.658C104.412 149.639 101.907 149.639 97.959 149.639Z" fill="#101010"/>
<path d="M82.6586 93.1221C82.6586 103.522 82.6775 111.596 82.6586 119.669C82.6396 132.111 78.559 135.628 62.6543 134.305C76.2056 127.271 75.4654 116.285 74.6872 105.45C74.2886 100.08 78.3123 98.1517 82.6586 93.1221Z" fill="#010101"/>
<path d="M75.0973 147.219C74.1674 147.162 72.8768 146.689 72.4023 147.105C70.0299 149.223 67.9611 150.244 65.4938 147.2C64.0893 145.46 64.0703 144.364 65.6077 142.548C68.5495 139.069 70.1627 141.981 72.3074 143.342C72.9527 143.758 74.0915 143.399 75.0025 143.38C76.0653 144.628 76.0653 145.914 75.0973 147.219Z" fill="#161616"/>
<path d="M94.3137 144.704C93.8392 147.03 92.5106 148.902 90.2521 149.148C87.7848 149.431 86.1715 147.2 85.8109 145.234C85.3744 142.87 87.614 141.131 89.6637 140.866C92.0172 140.563 93.2698 142.776 94.3137 144.704Z" fill="#191919"/>
<path d="M152.344 145.045C151.262 146.992 149.915 149.28 147.789 149.299C145.701 149.299 143.272 147.276 143.728 145.082C144.088 143.343 146.385 140.96 147.979 140.828C149.725 140.658 151.661 142.775 152.344 145.045Z" fill="#1B1B1B"/>
<path d="M75.1007 147.219C75.0628 145.933 75.0248 144.666 75.0059 143.381C76.4862 140.336 78.2134 140.147 80.6997 142.53C82.5027 144.269 82.3888 145.574 80.7945 147.2C78.8776 149.129 77.0176 150.963 75.1007 147.219Z" fill="#161616"/>
</g>
<defs>
<clipPath id="clip0_5170_53875">
<rect width="192" height="192" fill="white"/>
</clipPath>
</defs>
</svg>
