<svg width="192" height="192" viewBox="0 0 192 192" fill="none" xmlns="http://www.w3.org/2000/svg">
<g clip-path="url(#clip0_4938_32673)">
<path d="M96 192C149.019 192 192 149.019 192 96C192 42.9807 149.019 0 96 0C42.9807 0 0 42.9807 0 96C0 149.019 42.9807 192 96 192Z" fill="#891F1F"/>
<path d="M80.5276 59.2401C81.0176 61.2201 80.3476 62.2301 79.8376 63.2801C77.8776 67.3001 75.4676 71.0801 73.8676 75.2801C72.4976 78.8801 71.6976 82.5402 71.9976 86.4102C72.4576 92.4102 76.4476 96.3301 82.4476 96.1701C89.3776 95.9801 94.8976 92.8301 98.8976 87.1701C100.588 84.7801 100.168 83.3801 97.3476 82.7201C90.4476 81.1002 89.7576 76.0901 91.8176 70.8601C94.7176 63.4901 99.8676 57.8801 106.108 53.1901C106.638 52.7901 107.198 52.4201 107.778 52.0301C103.458 48.8801 98.2076 49.6201 92.2576 54.4001C93.8476 49.7601 96.4476 46.7601 100.878 45.6501C104.618 44.7101 108.408 44.8201 112.158 45.6901C114.818 46.3101 115.268 47.3501 114.118 49.9201C112.938 52.5601 110.928 54.4401 108.498 55.9201C104.798 58.1601 101.358 60.7101 98.4276 63.9201C97.5176 64.9201 96.6476 65.9601 96.0976 67.2101C95.1276 69.4101 95.6576 70.9301 97.7576 72.0301C97.9776 72.1501 98.2076 72.2601 98.4376 72.3601C103.568 74.6001 104.308 75.9001 103.128 81.5601C101.148 91.0001 96.1876 98.5001 88.0576 103.75C84.1276 106.29 79.8176 107.13 75.2476 105.55C74.4876 105.29 73.8676 105 73.3776 105.99C70.7376 111.27 67.8276 116.46 67.4176 122.53C66.7076 132.92 73.1576 138.74 83.4976 137.1C96.0176 135.12 104.428 125.99 105.998 112.63C106.978 104.3 106.608 95.9602 106.208 87.6202C105.768 78.2502 105.248 68.8501 109.998 60.1801C110.318 59.5901 110.598 58.9701 110.928 58.3901C110.998 58.2701 111.178 58.2101 111.478 58.0101C111.068 61.5901 110.668 65.0401 110.268 68.4802C109.888 71.6802 109.858 74.8902 110.068 78.0802C110.268 81.2201 111.128 84.2302 114.398 85.5102C117.818 86.8402 120.888 85.7901 123.388 83.2401C124.818 81.7901 126.108 81.1901 128.288 81.9601C131.368 83.0401 133.528 81.0201 135.448 78.8401C137.928 76.0101 137.888 76.1501 134.678 74.2501C131.568 72.4101 128.798 72.6601 126.118 75.2001C129.768 69.0501 132.078 68.2701 138.468 70.7302C140.288 71.4302 142.138 72.0001 144.118 71.9401C145.468 71.9001 145.478 72.5301 144.978 73.5001C144.628 74.1901 144.228 74.8601 143.538 75.2201C139.898 77.1101 137.618 80.4201 134.968 83.3501C133.728 84.7201 132.438 86.0601 131.098 87.3401C129.708 88.6601 128.008 89.1201 126.178 88.5201C124.138 87.8501 122.788 88.6501 121.598 90.2001C120.578 91.5401 119.558 92.9101 118.348 94.0601C116.468 95.8501 114.178 96.7701 111.628 95.7101C109.858 94.9801 110.078 96.0301 110.068 97.0701C109.958 105.12 109.148 113.09 106.438 120.72C103.108 130.07 97.9876 138.13 89.3876 143.62C84.8276 146.53 79.8576 147.55 74.6276 146.85C69.4376 146.15 66.2376 142.77 64.5476 137.97C62.9576 133.46 63.1876 128.84 64.2676 124.25C65.7676 117.87 68.4276 111.96 71.8276 106.38C72.6076 105.09 72.8276 104.3 71.6576 102.94C67.8876 98.5702 67.7076 93.2101 68.3076 87.8401C69.1076 80.6701 72.0876 74.2302 75.4876 67.9802C76.9976 65.1902 78.6676 62.4901 80.5676 59.2301L80.5276 59.2401Z" fill="#F5B355"/>
<path d="M114.639 64.0195C116.039 59.5095 118.499 55.8395 122.649 53.4595C123.939 52.7195 125.349 52.4295 126.789 52.8495C135.059 55.2595 141.769 52.1695 147.849 46.8895C148.469 46.3495 148.909 45.5995 149.439 44.9395C150.329 45.7495 149.859 46.2795 149.649 46.7195C145.669 54.9995 139.269 60.1995 130.169 61.9695C128.629 62.2695 127.139 62.0995 125.669 61.7095C119.899 60.1895 119.019 60.3695 114.629 64.0095L114.639 64.0195Z" fill="#F5B355"/>
<path d="M156.449 100.68C157.669 98.7201 159.169 97.0201 161.229 95.9401C163.189 94.9101 164.289 95.6501 164.299 97.8601C164.319 102.76 158.899 108.99 154.069 109.62C153.819 109.65 153.519 109.79 153.329 109.69C149.979 108.04 148.129 109.78 146.069 112.3C143.729 115.16 140.349 114.2 139.409 110.61C138.219 106.03 139.129 101.4 139.569 96.8101C139.809 94.2901 140.289 91.8201 141.519 89.5801C142.069 90.7601 142.069 90.7601 141.959 91.8801C141.659 94.9801 141.319 98.0801 141.059 101.18C140.979 102.18 141.099 103.19 141.169 104.2C141.309 106.1 141.989 107.7 143.999 108.23C145.809 108.71 147.419 108.08 148.489 106.63C149.849 104.78 151.169 103.18 153.799 104.16C153.909 104.2 154.169 103.86 154.359 103.7C154.459 103.78 154.559 103.85 154.659 103.93C154.699 104.61 155.129 104.74 155.699 104.69C158.059 104.48 160.119 103.62 161.689 101.82C162.149 101.3 162.969 100.74 162.429 99.8901C161.889 99.0201 160.979 98.7901 159.989 99.0201C158.689 99.3201 157.829 100.28 156.909 101.14C156.749 100.99 156.599 100.84 156.439 100.69L156.449 100.68Z" fill="#F5B355"/>
<path d="M63.3883 86.0898C63.0783 89.0498 63.4083 91.4598 63.0883 93.8898C62.4883 98.4598 59.3883 100.48 55.7283 102.71C51.9883 104.99 48.1983 105.6 44.0883 106.22C40.3583 106.79 37.9583 109.91 35.7183 112.79C33.9483 115.06 32.1883 117.31 29.9983 119.19C28.1383 120.79 26.1183 122.08 23.4883 122.24C30.0083 117.88 33.8383 111.03 39.2283 105.65C42.8583 102.02 46.8583 99.1798 52.4583 100.63C53.0883 100.79 53.6683 100.51 54.0783 100.09C55.6383 98.4798 57.6883 97.9798 59.7483 97.4698C61.3983 97.0598 61.1783 95.7298 61.0083 94.6098C60.5583 91.6398 60.9783 88.9298 63.3883 86.0898Z" fill="#F5B355"/>
<path d="M63.9083 64.8496C63.9083 70.2296 64.3183 75.6396 62.4083 80.8596C60.6283 85.7196 58.0383 89.9596 53.7383 92.9996C51.5383 94.5596 49.0783 95.3396 46.4283 95.5596C42.7783 95.8496 40.0183 93.9096 39.0583 90.3596C37.8283 85.7796 38.9983 81.5996 41.3383 77.1896C41.8283 78.2196 41.4483 78.7696 41.3083 79.3396C41.1483 79.9896 41.0083 80.6496 40.8883 81.3196C39.8383 87.0896 43.5383 90.9096 49.3583 90.0696C56.6883 89.0096 61.9083 82.7796 61.9783 74.9696C62.0083 71.7996 61.2783 68.5296 63.3283 65.6496C63.5183 65.3796 63.7283 65.1296 63.9283 64.8796L63.8983 64.8496H63.9083Z" fill="#F5B355"/>
<path d="M126.597 122.089C126.657 124.379 122.987 128.999 121.257 129.169C120.057 129.289 119.367 128.199 118.447 127.669C117.077 126.879 115.997 126.669 115.157 128.319C114.977 128.679 114.627 128.969 114.347 129.279C111.797 132.049 108.797 132.009 106.247 129.219C105.727 128.659 106.117 128.309 106.407 127.949C107.907 126.029 109.277 123.969 110.977 122.249C112.757 120.439 114.427 122.319 115.447 123.319C116.897 124.719 117.417 124.389 118.277 122.969C118.837 122.039 119.597 121.229 120.287 120.379C120.957 119.559 121.497 118.449 122.907 119.159C124.457 119.949 126.247 120.449 126.597 122.069V122.089Z" fill="#F5B355"/>
<path d="M127.129 118.319C128.849 112.099 128.989 105.809 129.399 99.5187C129.789 93.5687 133.409 88.8088 136.179 83.7188C136.449 83.9488 136.679 84.0888 136.659 84.1488C134.089 91.9688 134.419 100.269 132.729 108.229C131.989 111.709 130.949 115.079 128.549 117.839C128.279 118.149 128.019 118.509 127.129 118.319Z" fill="#F5B355"/>
<path d="M90.009 110.709C91.079 109.369 92.179 108.269 92.929 106.979C94.219 104.759 95.629 105.719 97.089 106.609C98.809 107.649 98.679 109.069 97.739 110.509C97.149 111.419 96.349 112.199 95.619 113.009C94.609 114.139 93.629 114.609 92.239 113.349C90.669 111.919 89.339 111.859 87.859 113.989C85.869 116.859 83.479 116.749 81.029 114.279C80.469 113.709 80.879 113.369 81.159 113.009C82.389 111.399 83.669 109.829 84.889 108.219C85.439 107.499 86.009 107.699 86.669 107.989C87.999 108.559 89.179 109.299 90.009 110.729V110.709Z" fill="#F5B355"/>
<path d="M116.66 120.519C114.89 119.529 113.24 118.699 111.69 117.719C111.08 117.329 111.68 116.819 111.96 116.459C113.03 115.059 114.13 113.679 115.23 112.289C117.37 109.579 117.86 109.509 120.71 111.549C122.52 112.839 122.56 114.319 120.8 116.779C119.67 118.359 118.32 119.709 116.67 120.519H116.66Z" fill="#F5B355"/>
<path d="M62.7469 110.759C58.9869 110.589 58.1769 109.299 59.8269 106.089C60.1769 105.419 60.5069 104.739 60.8369 104.059C61.3669 102.959 62.0069 101.869 63.4169 102.059C64.7469 102.239 65.2969 103.359 65.6469 104.529C66.9769 108.989 63.9069 114.669 59.4769 116.019C58.5369 116.299 57.6469 116.719 56.0469 117.349C58.3669 114.469 61.6469 113.799 63.1869 111.159C63.2369 111.009 63.3769 110.819 63.3369 110.729C63.1569 110.429 62.9469 110.589 62.7469 110.749V110.759Z" fill="#F5B355"/>
<path d="M36.0691 87.1895C33.3691 94.8395 36.3391 103.589 31.2891 110.749C33.4091 102.989 29.6891 94.1095 36.0691 87.1895Z" fill="#F5B355"/>
<path d="M85.0469 121.25C86.3169 119.65 87.5769 118.38 88.4469 116.88C89.7869 114.57 91.2469 115.14 92.9469 116.29C94.7969 117.54 94.2469 118.96 93.3169 120.41C92.9569 120.97 92.4869 121.45 92.0569 121.97C90.7169 123.6 89.3069 124.32 87.4569 122.6C86.8669 122.05 86.0169 121.79 85.0469 121.26V121.25Z" fill="#F5B355"/>
<path d="M52.2679 81.7594C50.9779 80.5294 49.2779 80.0394 48.3979 78.5794C48.1479 78.1694 51.0879 74.5394 51.5379 74.5294C52.5979 74.5094 55.0579 76.8494 54.9179 77.8894C54.6879 79.5494 53.6879 80.7494 52.2679 81.7594Z" fill="#F5B355"/>
<path d="M113.797 144.139C114.937 141.329 116.217 139.349 116.727 137.049C117.087 135.429 117.217 133.859 116.447 132.379C115.897 131.319 115.787 130.209 116.917 129.829C118.037 129.449 118.337 130.779 118.667 131.569C120.037 134.839 117.837 141.009 113.807 144.149L113.797 144.139Z" fill="#F5B355"/>
<path d="M168.497 102.209C168.507 108.939 165.567 112.279 159.047 112.889C161.057 111.179 163.117 109.889 164.757 108.099C166.347 106.349 167.407 104.279 168.507 102.199L168.497 102.209Z" fill="#F5B355"/>
<path d="M155.278 92.3299C154.438 91.1799 152.098 90.9399 152.328 89.7299C152.588 88.3399 153.728 86.3699 155.448 86.2399C156.788 86.1399 158.168 87.3999 157.908 89.1099C157.688 90.5299 156.778 91.6699 155.288 92.3299H155.278Z" fill="#F5B355"/>
<path d="M51.7268 111.069C52.7168 111.449 53.5768 111.739 53.9568 112.539C54.5568 113.789 53.5368 114.589 52.8668 115.379C52.3168 116.039 51.6368 117.079 50.6068 116.379C49.8868 115.889 48.1168 115.859 48.6668 114.679C49.3168 113.279 50.2968 111.809 51.7268 111.059V111.069Z" fill="#F5B355"/>
<path d="M44.6677 118.04C43.9377 117.48 42.7477 117.33 42.2377 116.3C42.0177 115.85 45.1277 112.42 45.5877 112.58C46.5777 112.93 47.7377 113.21 47.7577 114.63C47.7777 115.73 45.7777 118.05 44.6777 118.04H44.6677Z" fill="#F5B355"/>
<path d="M47.8081 123.229C46.9181 122.579 45.7381 122.409 45.2281 121.389C44.9881 120.919 48.0781 117.469 48.5481 117.649C49.5181 118.039 50.8681 118.329 50.7281 119.689C50.5481 121.369 49.3181 122.409 47.8181 123.229H47.8081Z" fill="#F5B355"/>
<path d="M155.797 101.58C156.017 101.28 156.227 100.98 156.447 100.68C156.607 100.83 156.757 100.98 156.917 101.13C156.677 101.39 156.427 101.66 156.187 101.92C156.057 101.81 155.927 101.69 155.797 101.58Z" fill="#F5B355"/>
<path d="M154.359 103.69C154.569 103.38 154.779 103.06 154.979 102.75C155.109 102.87 155.239 102.98 155.369 103.1C155.129 103.37 154.889 103.65 154.659 103.92C154.559 103.84 154.459 103.77 154.359 103.69Z" fill="#F5B355"/>
<path d="M63.9402 64.8785L64.0702 64.7285L63.9102 64.8485L63.9402 64.8785Z" fill="#F5B355"/>
<path d="M42.5683 75.7996C42.5083 75.8596 42.4483 75.9196 42.3883 75.9696C42.3383 75.8996 42.2383 75.8296 42.2383 75.7696C42.2383 75.7096 42.3483 75.6496 42.4083 75.5996C42.4583 75.6696 42.5083 75.7296 42.5683 75.7996Z" fill="#F5B355"/>
<path d="M41.9291 76.9196C41.9291 76.9196 41.8391 76.8696 41.7891 76.8396C41.8391 76.7596 41.8991 76.6796 41.9491 76.5996C41.9991 76.6596 42.0891 76.7196 42.0791 76.7696C42.0791 76.8196 41.9791 76.8696 41.9191 76.9296L41.9291 76.9196Z" fill="#F5B355"/>
<path d="M155.379 102.14C155.519 101.95 155.659 101.77 155.799 101.58C155.929 101.69 156.049 101.81 156.179 101.92C156.039 102.12 155.899 102.31 155.759 102.51C155.629 102.39 155.509 102.26 155.379 102.14Z" fill="#F5B355"/>
<path d="M154.977 102.749C155.107 102.549 155.247 102.339 155.377 102.129C155.497 102.249 155.627 102.379 155.757 102.499C155.627 102.699 155.497 102.899 155.377 103.089C155.247 102.969 155.117 102.859 154.987 102.739L154.977 102.749Z" fill="#F5B355"/>
</g>
<defs>
<clipPath id="clip0_4938_32673">
<rect width="192" height="192" fill="white"/>
</clipPath>
</defs>
</svg>
