<svg width="192" height="192" viewBox="0 0 192 192" fill="none" xmlns="http://www.w3.org/2000/svg">
<g clip-path="url(#clip0_4938_32377)">
<path d="M96 192C149.019 192 192 149.019 192 96C192 42.9807 149.019 0 96 0C42.9807 0 0 42.9807 0 96C0 149.019 42.9807 192 96 192Z" fill="white"/>
<path d="M161.493 122.219C152.893 124.289 142.343 129.109 134.723 132.759C120.403 139.629 109.513 143.459 93.4531 136.059C94.4031 138.649 96.0131 140.949 98.1231 142.739C103.613 147.539 113.283 150.529 122.423 143.519C133.443 135.059 148.253 127.909 162.123 126.709C164.843 126.479 166.233 125.399 165.923 123.739C165.623 122.079 163.973 121.549 161.493 122.149" fill="#F48300"/>
<path d="M123.033 136.349C118.363 128.169 112.233 126.849 104.733 132.099C100.073 135.379 96.8425 132.459 94.3125 135.019C103.182 139.979 116.503 139.749 123.033 136.349Z" fill="#F48300"/>
<path d="M123.763 160.84C116.233 156.23 105.353 152.17 97.3528 149.37C82.3728 144.09 71.9628 139.1 65.8328 122.52C64.6728 125.03 64.1828 127.79 64.4028 130.54C64.8728 137.84 69.6228 146.77 81.0428 148.27C94.8228 150.08 110.303 155.47 120.953 164.49C123.053 166.26 124.793 166.47 125.763 165.09C126.723 163.71 125.933 162.16 123.743 160.83" fill="#F48300"/>
<path d="M86.5927 143.65C89.0827 134.56 85.6527 129.24 76.6527 127.71C71.0427 126.73 70.8127 122.39 67.2227 122.4C69.9827 132.17 79.5527 141.43 86.5927 143.65Z" fill="#F48300"/>
<path d="M59.2124 134.709C52.3524 120.389 48.5124 109.499 55.9124 93.4395C53.3224 94.3895 51.0224 95.9994 49.2324 98.0994C44.4324 103.599 41.4424 113.279 48.4524 122.409C56.9124 133.429 64.0024 148.239 65.2024 162.099C65.4424 164.829 66.5124 166.209 68.1724 165.909C69.8324 165.609 70.3624 163.959 69.7624 161.469C67.7124 152.889 62.8724 142.329 59.2224 134.709H59.2124Z" fill="#F48300"/>
<path d="M56.9945 94.3105C52.0245 103.181 52.2545 116.491 55.6545 123.031C63.8445 118.361 65.1645 112.221 59.9045 104.731C56.6345 100.071 59.5445 96.8405 56.9945 94.3105Z" fill="#F48300"/>
<path d="M69.6141 67.2288C59.8241 69.9588 50.5841 79.5588 48.4141 86.5788C57.5041 89.0788 62.8241 85.6588 64.3441 76.6488C65.3241 71.0388 69.6741 70.8087 69.6641 67.2188" fill="#F48300"/>
<path d="M69.4826 65.8693C66.9726 64.7193 64.2126 64.2193 61.4626 64.4393C54.1526 64.9093 45.2326 69.6593 43.7326 81.0793C41.9226 94.8593 36.4526 110.339 27.5026 120.989C25.7326 123.089 25.5326 124.819 26.9126 125.789C28.2926 126.759 29.8326 125.959 31.1726 123.769C35.7826 116.239 39.8326 105.359 42.6426 97.3593C47.9226 82.3793 52.9126 71.9693 69.4926 65.8393" fill="#F48300"/>
<path d="M97.6319 56.9797C88.7619 52.0197 75.4519 52.2497 68.9219 55.6497C73.5819 63.8397 79.7319 65.1597 87.2119 59.8997C91.8719 56.6297 95.1119 59.5397 97.6319 56.9797Z" fill="#F48300"/>
<path d="M30.5223 69.7798C39.1123 67.7298 49.7323 62.8898 57.2823 59.2398C71.6223 52.3798 82.4923 48.5398 98.5623 55.9398C97.6023 53.3498 95.9923 51.0498 93.8923 49.2598C88.3923 44.4598 78.7123 41.4698 69.5823 48.4798C58.5623 56.8798 43.7523 64.0298 29.9623 65.2298C27.2223 65.4698 25.8423 66.5398 26.1523 68.1998C26.4623 69.8598 28.1023 70.3898 30.5823 69.7798" fill="#F48300"/>
<path d="M68.2324 31.1597C75.7624 35.7797 86.6524 39.8297 94.6424 42.6397C109.642 47.9197 120.042 52.9097 126.172 69.4897C127.332 66.9797 127.812 64.2197 127.592 61.4697C127.122 54.1597 122.362 45.2297 110.952 43.7197C97.1824 41.9197 81.6924 36.5197 71.0524 27.4997C68.9524 25.7397 67.2124 25.5197 66.2524 26.9097C65.2924 28.2997 66.0924 29.8297 68.2724 31.1597" fill="#F48300"/>
<path d="M105.412 48.3398C102.922 57.4198 106.332 62.7498 115.342 64.2698C120.952 65.2498 121.172 69.5998 124.782 69.5798C122.002 59.8298 112.442 50.5698 105.412 48.3398Z" fill="#F48300"/>
<path d="M132.753 57.2803C139.623 71.6203 143.453 82.4903 136.063 98.5603C138.653 97.6003 140.953 95.9903 142.743 93.8903C147.543 88.3903 150.523 78.7103 143.513 69.5803C135.113 58.5603 127.963 43.7503 126.773 29.9603C126.533 27.2203 125.453 25.8403 123.793 26.1503C122.133 26.4603 121.613 28.1003 122.203 30.5803C124.263 39.1603 129.093 49.7903 132.743 57.3403" fill="#F48300"/>
<path d="M135.013 97.6888C139.973 88.8188 139.743 75.5087 136.343 68.9688C128.163 73.6388 126.843 79.7787 132.093 87.2687C135.373 91.9287 132.453 95.1588 135.013 97.6888Z" fill="#F48300"/>
<path d="M122.393 124.78C132.183 122.01 141.423 112.44 143.643 105.41C134.553 102.92 129.233 106.33 127.693 115.34C126.723 120.95 122.373 121.18 122.383 124.78H122.393Z" fill="#F48300"/>
<path d="M122.522 126.139C125.032 127.299 127.792 127.779 130.542 127.559C137.842 127.089 146.772 122.339 148.272 110.919C150.082 97.1489 155.552 81.6589 164.492 71.0189C166.262 68.9189 166.472 67.1789 165.092 66.2189C163.712 65.2589 162.162 66.0489 160.832 68.2389C156.222 75.7689 152.162 86.6589 149.362 94.6489C144.082 109.649 139.092 120.059 122.512 126.179" fill="#F48300"/>
</g>
<defs>
<clipPath id="clip0_4938_32377">
<rect width="192" height="192" fill="white"/>
</clipPath>
</defs>
</svg>
