<svg width="192" height="192" viewBox="0 0 192 192" fill="none" xmlns="http://www.w3.org/2000/svg">
<g clip-path="url(#clip0_4938_32580)">
<path d="M96 192C149.019 192 192 149.019 192 96C192 42.9807 149.019 0 96 0C42.9807 0 0 42.9807 0 96C0 149.019 42.9807 192 96 192Z" fill="white"/>
<path d="M76.2963 80.0267C76.2963 85.5743 76.2963 91.1218 76.2963 96.6721C76.2963 98.7922 77.0685 99.5778 79.1804 99.5912C81.2493 99.602 83.3156 99.6073 85.3845 99.5885C87.2758 99.5697 88.1152 98.7276 88.1206 96.8389C88.1314 91.2913 88.126 85.7437 88.1287 80.1935C88.1287 78.0331 88.7824 77.3712 90.8971 77.3712C92.8127 77.3712 94.7255 77.3712 96.6411 77.3712C98.2607 77.3712 99.0221 78.1111 99.0221 79.7334C99.0275 85.3967 99.0194 91.06 99.0221 96.7232C99.0221 98.6738 99.8776 99.645 101.586 99.6719C103.262 99.6988 104.217 98.6011 104.217 96.6372C104.215 91.1649 104.209 85.6953 104.206 80.2231C104.206 77.9201 104.745 77.3712 106.996 77.3712C108.796 77.3712 110.604 77.4789 112.393 77.3443C114.505 77.1856 115.218 78.4662 115.199 80.1531C115.14 85.7357 115.173 91.3209 115.181 96.9035C115.183 98.8702 116.364 99.8441 118.304 99.5213C119.625 99.3006 120.311 98.4182 120.306 96.8954C120.284 91.3882 120.252 85.8783 120.23 80.371C120.23 79.9137 120.236 79.4482 120.308 78.9989C120.47 78.0089 121.11 77.4089 122.079 77.3847C124.527 77.3282 126.978 77.3228 129.426 77.3766C130.562 77.4008 131.205 78.3263 131.205 79.7415C131.207 84.1403 131.207 88.5418 131.188 92.9406C131.183 94.4687 131.285 95.9995 131.016 97.5196C130.188 102.206 126.351 105.421 121.608 105.394C120.115 105.386 118.622 105.354 117.128 105.354C116.052 105.354 115.068 105.139 114.371 104.246C114.008 103.783 113.747 103.807 113.397 104.256C112.708 105.144 111.742 105.376 110.663 105.373C107.752 105.367 104.844 105.405 101.933 105.405C100.913 105.405 99.9503 105.206 99.283 104.324C98.9414 103.872 98.6885 103.761 98.2392 104.286C97.537 105.112 96.5738 105.411 95.4708 105.405C88.8847 105.378 82.2959 105.421 75.7098 105.362C69.5165 105.306 65.3437 101.017 65.341 94.805C65.3383 84.2829 65.341 73.7607 65.341 63.2386C65.341 61.6405 65.941 60.828 67.5445 60.6128C69.7883 60.3115 72.0563 60.4218 74.3054 60.5509C75.5215 60.6209 76.2856 61.662 76.2856 62.9185C76.2883 68.6194 76.2856 74.3203 76.2856 80.0213L76.2963 80.0267Z" fill="#0E5930"/>
<path d="M26.0783 121.283C26.6244 121.283 27.1975 121.283 27.7705 121.283C29.6484 121.283 30.4313 120.519 30.434 118.666C30.4394 113.732 30.434 108.795 30.4421 103.86C30.4502 99.1927 30.6331 94.5194 30.4421 89.8597C30.1677 83.0718 34.6364 78.0569 41.1553 77.5027C44.4698 77.2202 47.8274 77.0776 51.1124 77.6749C56.4528 78.6488 60.0257 82.6736 60.3943 88.1271C60.631 91.6273 60.8247 95.1651 60.1145 98.6411C59.1728 103.244 54.887 106.914 50.1977 107.304C47.5961 107.519 44.9944 107.428 42.3928 107.401C41.505 107.39 41.3167 107.67 41.3247 108.509C41.3678 112.906 41.349 117.302 41.3436 121.7C41.3382 126.433 37.873 130.46 33.2132 131.168C31.7389 131.391 31.0448 131.047 30.3345 129.715C28.9678 127.162 27.6064 124.606 26.2505 122.048C26.1348 121.83 25.8657 121.639 26.081 121.286L26.0783 121.283ZM49.4982 91.4874C49.4982 91.4874 49.4982 91.4874 49.5009 91.4874C49.5009 90.0722 49.5439 88.6571 49.4901 87.2419C49.4094 84.9901 47.8247 83.392 45.6644 83.3032C43.4367 83.209 41.7821 84.565 41.5454 86.8733C41.244 89.8435 41.2871 92.8379 41.5104 95.8081C41.6933 98.2429 43.3937 99.5908 45.7558 99.459C48.0158 99.3326 49.447 97.7856 49.4901 95.3884C49.5143 94.089 49.4955 92.7868 49.4955 91.4874H49.4982Z" fill="#0D5930"/>
<path d="M131.396 121.695C132.072 121.695 132.532 121.695 132.989 121.695C135.26 121.69 136.045 120.923 136.048 118.695C136.056 109.128 136.183 99.5613 136.029 89.9997C135.911 82.7437 141.612 77.1019 148.768 77.3737C151.365 77.4705 153.966 77.2069 156.562 77.6024C161.478 78.353 165.548 82.6415 165.912 87.6214C166.011 88.9908 166.011 90.3737 165.987 91.7484C165.957 93.4757 165.083 94.3797 163.369 94.4092C161.419 94.4442 159.463 94.4335 157.512 94.3662C155.96 94.3151 155.04 93.3519 155.005 91.7969C154.97 90.3441 155.034 88.8886 155.01 87.4357C154.97 84.9875 153.512 83.3759 151.319 83.3033C148.795 83.2199 147.259 84.6135 147.068 87.2151C146.99 88.2805 146.99 89.354 146.99 90.4248C146.979 100.681 146.952 110.934 146.985 121.189C146.995 124.983 145.653 128.034 142.462 130.175C141.133 131.066 139.651 131.534 138.042 131.58C137.245 131.601 136.57 131.308 136.199 130.627C134.609 127.727 133.062 124.8 131.399 121.695H131.396Z" fill="#0C582F"/>
<path d="M114.261 117.749C114.337 117.749 114.415 117.749 114.49 117.746C114.686 117.781 114.816 117.695 114.888 117.517C116.349 117.377 117.818 117.03 119.247 117.7C119.505 117.821 119.739 117.762 120.008 117.679C122.058 117.041 124.146 117.186 126.18 117.649C127.851 118.031 128.598 119.365 128.843 120.993C128.768 124.109 128.744 127.224 128.857 130.34C128.795 130.689 128.722 131.031 128.243 130.988C128.168 130.983 128.09 130.988 128.015 130.993C126.008 131.103 125.003 130.157 125.001 128.155C125.001 125.9 125.012 123.646 124.975 121.394C124.95 119.982 124.461 119.476 123.269 119.476C122.002 119.476 121.523 119.982 121.507 121.442C121.474 124.308 121.442 127.173 121.469 130.038C121.477 130.805 121.224 131.015 120.49 131.018C117.686 131.036 117.686 131.058 117.686 128.316C117.686 126.099 117.689 123.885 117.686 121.668C117.684 119.667 116.89 119.096 114.937 119.683C114.891 119.731 114.845 119.777 114.799 119.826C114.175 120.234 114.28 120.886 114.278 121.483C114.269 124.316 114.253 127.146 114.294 129.979C114.304 130.773 114.07 131.018 113.25 131.012C110.403 130.996 110.401 131.031 110.401 128.195C110.401 125.058 110.433 121.919 110.382 118.782C110.363 117.727 110.608 117.2 111.786 117.334C112.464 117.412 113.161 117.342 113.834 117.514C113.922 117.692 114.054 117.789 114.261 117.754V117.749Z" fill="#F69421"/>
<path d="M47.107 111.623C47.715 111.703 47.7688 112.139 47.7661 112.626C47.7607 113.926 47.828 115.228 47.75 116.522C47.7016 117.326 47.9921 117.531 48.7185 117.49C49.4422 117.45 50.1713 117.482 50.8977 117.485C53.6339 117.49 55.4364 118.736 55.8804 121.381C56.222 123.428 56.2974 125.572 55.7512 127.628C55.1916 129.726 53.5612 130.975 51.3793 130.983C50.3005 130.988 49.2243 130.937 48.1293 130.757C47.1689 130.598 46.0012 130.959 44.9089 131.015C44.0695 131.058 43.8758 130.759 43.8785 129.979C43.9027 124.246 43.9108 118.515 43.8731 112.782C43.8677 111.886 44.1206 111.539 45.0327 111.625C45.6353 111.682 46.2514 111.59 46.8622 111.563C46.9429 111.582 47.0263 111.601 47.107 111.62V111.623ZM51.608 124.238C51.608 124.238 51.5999 124.238 51.5972 124.238C51.5972 123.781 51.5919 123.32 51.5972 122.863C51.6026 122.406 51.6161 121.948 51.6295 121.491C51.6591 120.415 50.9462 119.718 49.8485 119.745C48.8127 119.772 48.1912 120.455 48.1939 121.499C48.1993 123.329 48.1805 125.161 48.1643 126.99C48.1562 127.959 48.8127 128.693 49.7463 128.739C50.9381 128.798 51.5865 128.241 51.608 127.101C51.6268 126.145 51.6107 125.19 51.6107 124.235L51.608 124.238Z" fill="#F69421"/>
<path d="M108.005 125.92C108.005 127.297 107.98 128.675 108.015 130.05C108.034 130.72 107.849 131.05 107.117 130.991C106.178 130.916 105.207 131.193 104.311 130.663C104.023 130.491 103.738 130.771 103.45 130.822C100.498 131.346 97.6977 131.01 96.4063 128.295C96.1965 127.854 96.0216 127.357 96.0001 126.875C95.9032 124.639 95.5077 122.374 96.3767 120.2C97.009 118.613 98.2546 117.717 99.9092 117.459C101.271 117.249 102.651 117.278 104.028 117.445C106.511 117.746 108.179 120.205 108.021 122.247C107.924 123.464 108.002 124.693 108.005 125.917V125.92ZM103.668 124.211C103.668 123.259 103.681 122.307 103.665 121.357C103.649 120.426 103.218 119.864 102.234 119.78C101.222 119.694 100.38 120.017 100.326 121.088C100.221 123.138 100.235 125.199 100.313 127.249C100.35 128.247 101.101 128.686 102.191 128.61C103.165 128.543 103.635 128 103.66 127.063C103.687 126.111 103.665 125.158 103.668 124.209V124.211Z" fill="#F69421"/>
<path d="M58.3152 126.718C58.3152 125.023 58.3152 123.328 58.3152 121.633C58.3582 121.569 58.3636 121.501 58.334 121.431C59.0147 118.671 60.7339 117.331 63.5964 117.358C65.2618 117.372 66.9621 117.17 68.4418 118.27C69.5826 119.118 70.3251 120.196 70.3547 121.609C70.4139 124.474 70.3762 127.339 70.3762 130.205C70.3762 130.549 70.4166 130.974 69.9215 130.958C68.9073 130.926 67.8499 131.254 66.8895 130.729C66.529 130.533 66.2788 130.654 65.9371 130.729C63.9327 131.163 61.9365 131.391 60.1581 129.992C59.1546 129.204 58.5519 128.179 58.3313 126.925C58.3609 126.855 58.3529 126.788 58.3125 126.723L58.3152 126.718ZM62.6117 124.176C62.6117 124.94 62.6117 125.701 62.6117 126.465C62.6117 126.54 62.6117 126.618 62.6117 126.694C62.6467 127.972 63.1579 128.604 64.1991 128.666C65.3936 128.736 66.0205 128.252 66.0931 126.898C66.19 125.034 66.1765 123.159 66.1066 121.291C66.0662 120.221 65.3398 119.71 64.2314 119.753C63.1956 119.793 62.6602 120.326 62.6198 121.429C62.5875 122.343 62.6117 123.261 62.6117 124.176Z" fill="#F6931F"/>
<path d="M86.2139 123.199C88.3204 123.202 90.427 123.234 92.5336 123.191C93.338 123.175 93.6474 123.436 93.5802 124.243C93.4887 125.344 93.712 126.457 93.3649 127.547C92.7085 129.611 91.1158 130.867 88.95 130.864C87.5053 130.864 86.0444 131.088 84.6185 130.622C82.9746 130.084 82.0868 128.884 81.6429 127.291C81.4842 126.724 81.694 126.412 82.3289 126.436C82.902 126.457 83.4777 126.441 84.0535 126.436C84.9844 126.425 85.9986 126.172 85.9906 127.714C85.9906 128.23 86.612 128.58 87.1851 128.618C87.8335 128.661 88.5115 128.682 88.9258 128.012C89.3993 127.248 89.3616 126.398 89.2648 125.567C89.2056 125.061 88.7213 125.128 88.342 125.128C86.3887 125.128 84.4355 125.096 82.4823 125.147C81.6859 125.169 81.3792 124.935 81.4465 124.119C81.5218 123.245 81.3873 122.344 81.5353 121.488C81.9281 119.234 83.2921 117.854 85.5574 117.399C85.6596 117.372 85.7646 117.345 85.8668 117.315C87.3734 117.458 88.915 117.151 90.3947 117.668C91.9955 118.225 92.9748 119.347 93.4107 120.956C93.5936 121.623 93.373 121.94 92.617 121.903C91.5543 121.849 90.4862 121.881 89.4181 121.878C89.3562 121.623 89.2944 121.364 89.2325 121.109C88.8693 119.925 88.3151 119.535 87.1528 119.742C86.1547 119.92 85.7673 120.576 85.8937 121.564C85.9556 122.048 85.7807 122.551 85.9986 123.024C86.0013 123.164 86.0605 123.24 86.2112 123.197L86.2139 123.199Z" fill="#F6931F"/>
<path d="M160.577 105.391C159.431 105.391 158.282 105.391 157.136 105.391C156.297 105.391 155.888 105.02 155.901 104.135C155.934 102.225 155.947 100.315 155.901 98.4044C155.877 97.5004 156.34 97.1426 157.115 97.1345C159.485 97.1103 161.855 97.1345 164.225 97.1426C164.976 97.1426 165.337 97.5058 165.331 98.2752C165.318 100.261 165.323 102.249 165.331 104.234C165.334 105.05 164.936 105.421 164.134 105.416C162.947 105.407 161.764 105.416 160.577 105.416C160.577 105.407 160.577 105.402 160.577 105.394V105.391Z" fill="#0E5930"/>
<path d="M72.7114 124.13C72.7114 122.179 72.7491 120.229 72.6926 118.281C72.6711 117.503 72.9347 117.234 73.6665 117.353C74.6109 117.509 75.644 116.984 76.521 117.735C76.6206 117.821 76.8923 117.751 77.0672 117.697C77.2851 117.63 77.4761 117.493 77.6914 117.406C78.5657 117.062 79.6258 116.737 80.3226 117.302C80.8849 117.759 80.0078 118.579 79.9163 119.284C79.8464 119.825 79.4428 120.315 79.2787 120.856C79.1227 121.364 78.7621 121.326 78.3828 121.356C76.9112 121.469 76.669 121.679 76.6448 123.148C76.6071 125.402 76.5856 127.66 76.6367 129.914C76.6556 130.786 76.3542 131.023 75.5175 131.025C72.7168 131.039 72.7168 131.068 72.7168 128.254C72.7168 126.877 72.7168 125.502 72.7168 124.124L72.7114 124.13Z" fill="#F69421"/>
</g>
<defs>
<clipPath id="clip0_4938_32580">
<rect width="192" height="192" fill="white"/>
</clipPath>
</defs>
</svg>
