<svg width="192" height="192" viewBox="0 0 192 192" fill="none" xmlns="http://www.w3.org/2000/svg">
<path d="M96 191C148.467 191 191 148.467 191 96C191 43.5329 148.467 1 96 1C43.5329 1 1 43.5329 1 96C1 148.467 43.5329 191 96 191Z" fill="white"/>
<path d="M33.1232 92.6841H29.4045C29.2984 92.0074 29.1029 91.4078 28.8178 90.8855C28.5328 90.3559 28.1781 89.9071 27.7539 89.5393C27.3297 89.1715 26.8458 88.8956 26.3022 88.7117C25.7653 88.5205 25.1853 88.4248 24.5621 88.4248C23.4551 88.4248 22.4741 88.7338 21.619 89.3517C20.7638 89.9623 20.0943 90.8598 19.6104 92.0441C19.1265 93.2211 18.8846 94.6593 18.8846 96.3586C18.8846 98.0874 19.1265 99.5439 19.6104 100.728C20.101 101.905 20.7705 102.795 21.619 103.399C22.4741 103.994 23.4518 104.292 24.5522 104.292C25.1621 104.292 25.7321 104.204 26.2624 104.028C26.7994 103.844 27.2799 103.575 27.7042 103.222C28.1351 102.869 28.4963 102.435 28.788 101.92C29.0863 101.405 29.2918 100.817 29.4045 100.154L33.1232 100.177C32.984 101.251 32.6824 102.258 32.2184 103.2C31.761 104.142 31.1611 104.973 30.4187 105.694C29.6763 106.407 28.8079 106.966 27.8136 107.371C26.8192 107.768 25.7156 107.967 24.5025 107.967C22.7127 107.967 21.1152 107.507 19.7099 106.588C18.3046 105.668 17.1976 104.34 16.3888 102.604C15.5801 100.868 15.1758 98.7862 15.1758 96.3586C15.1758 93.9237 15.5835 91.8418 16.3988 90.1131C17.2141 88.377 18.3245 87.0492 19.7298 86.1297C21.1351 85.2101 22.726 84.7503 24.5025 84.7503C25.636 84.7503 26.69 84.9269 27.6644 85.28C28.6389 85.6331 29.5072 86.1517 30.2695 86.8359C31.0318 87.5126 31.6583 88.3439 32.1488 89.3297C32.646 90.308 32.9708 91.4262 33.1232 92.6841Z" fill="black"/>
<path d="M43.0043 107.989C41.5128 107.989 40.2202 107.625 39.1264 106.897C38.0327 106.168 37.1842 105.149 36.581 103.84C35.9844 102.531 35.6861 101 35.6861 99.2497C35.6861 97.4989 35.9844 95.9651 36.581 94.6483C37.1842 93.3315 38.0327 92.309 39.1264 91.5807C40.2202 90.8524 41.5128 90.4883 43.0043 90.4883C44.4957 90.4883 45.7884 90.8524 46.8821 91.5807C47.9759 92.309 48.821 93.3315 49.4176 94.6483C50.0208 95.9651 50.3224 97.4989 50.3224 99.2497C50.3224 101 50.0208 102.531 49.4176 103.84C48.821 105.149 47.9759 106.168 46.8821 106.897C45.7884 107.625 44.4957 107.989 43.0043 107.989ZM43.0241 104.789C43.8329 104.789 44.509 104.543 45.0526 104.05C45.5961 103.549 46.0005 102.88 46.2656 102.041C46.5374 101.203 46.6733 100.269 46.6733 99.2386C46.6733 98.2014 46.5374 97.2634 46.2656 96.4248C46.0005 95.5788 45.5961 94.9057 45.0526 94.4055C44.509 93.9053 43.8329 93.6552 43.0241 93.6552C42.1955 93.6552 41.5062 93.9053 40.956 94.4055C40.4124 94.9057 40.0047 95.5788 39.733 96.4248C39.4678 97.2634 39.3352 98.2014 39.3352 99.2386C39.3352 100.269 39.4678 101.203 39.733 102.041C40.0047 102.88 40.4124 103.549 40.956 104.05C41.5062 104.543 42.1955 104.789 43.0241 104.789Z" fill="black"/>
<path d="M61.1133 90.709V93.7986H52.0849V90.709H61.1133ZM54.342 107.658V89.109C54.342 87.9687 54.5541 87.0198 54.9783 86.2621C55.4092 85.5044 55.9859 84.9379 56.7085 84.5628C57.431 84.1876 58.2331 84 59.1147 84C59.7378 84 60.2913 84.0552 60.7752 84.1655C61.2591 84.2759 61.6171 84.3752 61.8491 84.4634L61.1332 87.5531C60.9807 87.5016 60.7885 87.4501 60.5565 87.3986C60.3245 87.3398 60.0659 87.3103 59.7809 87.3103C59.1114 87.3103 58.6374 87.4906 58.359 87.851C58.0872 88.2041 57.9513 88.7117 57.9513 89.3738V107.658H54.342Z" fill="black"/>
<path d="M71.668 90.709V93.7986H62.6396V90.709H71.668ZM64.8967 107.658V89.109C64.8967 87.9687 65.1088 87.0198 65.533 86.2621C65.9639 85.5044 66.5406 84.9379 67.2631 84.5628C67.9857 84.1876 68.7878 84 69.6694 84C70.2925 84 70.846 84.0552 71.3299 84.1655C71.8138 84.2759 72.1718 84.3752 72.4038 84.4634L71.6879 87.5531C71.5354 87.5016 71.3432 87.4501 71.1111 87.3986C70.8791 87.3398 70.6206 87.3103 70.3356 87.3103C69.6661 87.3103 69.1921 87.4906 68.9137 87.851C68.6419 88.2041 68.506 88.7117 68.506 89.3738V107.658H64.8967Z" fill="black"/>
<path d="M80.674 107.989C79.1428 107.989 77.8203 107.636 76.7067 106.93C75.5997 106.216 74.7479 105.208 74.1513 103.906C73.5547 102.597 73.2564 101.056 73.2564 99.2828C73.2564 97.5393 73.5547 96.0092 74.1513 94.6924C74.7545 93.3683 75.5964 92.3384 76.6768 91.6028C77.7573 90.8598 79.0268 90.4883 80.4851 90.4883C81.4264 90.4883 82.3146 90.6575 83.1499 90.9959C83.9917 91.3269 84.7341 91.8418 85.3771 92.5407C86.0267 93.2395 86.5372 94.1297 86.9084 95.211C87.2796 96.2851 87.4652 97.5651 87.4652 99.051V100.276H74.9467V97.5834H84.0149C84.0083 96.8184 83.8591 96.1379 83.5675 95.5421C83.2758 94.9389 82.8681 94.4644 82.3445 94.1186C81.8274 93.7729 81.2242 93.6 80.5348 93.6C79.799 93.6 79.1527 93.7986 78.5959 94.1959C78.0391 94.5857 77.6049 95.1007 77.2933 95.7407C76.9884 96.3733 76.8326 97.0685 76.826 97.8262V100.177C76.826 101.162 76.9884 102.008 77.3132 102.714C77.638 103.413 78.0921 103.95 78.6754 104.326C79.2588 104.693 79.9415 104.877 80.7237 104.877C81.2474 104.877 81.7214 104.796 82.1456 104.634C82.5698 104.465 82.9377 104.219 83.2493 103.895C83.5608 103.571 83.7962 103.171 83.9553 102.692L87.316 103.112C87.1039 104.097 86.6996 104.958 86.103 105.694C85.513 106.422 84.7573 106.989 83.8359 107.393C82.9145 107.79 81.8606 107.989 80.674 107.989Z" fill="black"/>
<path d="M97.2717 107.989C95.7404 107.989 94.418 107.636 93.3043 106.93C92.1973 106.216 91.3455 105.208 90.7489 103.906C90.1523 102.597 89.854 101.056 89.854 99.2828C89.854 97.5393 90.1523 96.0092 90.7489 94.6924C91.3521 93.3683 92.194 92.3384 93.2745 91.6028C94.355 90.8598 95.6244 90.4883 97.0827 90.4883C98.024 90.4883 98.9123 90.6575 99.7475 90.9959C100.589 91.3269 101.332 91.8418 101.975 92.5407C102.624 93.2395 103.135 94.1297 103.506 95.211C103.877 96.2851 104.063 97.5651 104.063 99.051V100.276H91.5444V97.5834H100.613C100.606 96.8184 100.457 96.1379 100.165 95.5421C99.8735 94.9389 99.4658 94.4644 98.9421 94.1186C98.4251 93.7729 97.8218 93.6 97.1325 93.6C96.3967 93.6 95.7504 93.7986 95.1935 94.1959C94.6367 94.5857 94.2025 95.1007 93.891 95.7407C93.5861 96.3733 93.4303 97.0685 93.4237 97.8262V100.177C93.4237 101.162 93.5861 102.008 93.9109 102.714C94.2357 103.413 94.6897 103.95 95.2731 104.326C95.8564 104.693 96.5392 104.877 97.3214 104.877C97.8451 104.877 98.319 104.796 98.7433 104.634C99.1675 104.465 99.5354 104.219 99.8469 103.895C100.159 103.571 100.394 103.171 100.553 102.692L103.914 103.112C103.702 104.097 103.297 104.958 102.701 105.694C102.111 106.422 101.355 106.989 100.434 107.393C99.5122 107.79 98.4582 107.989 97.2717 107.989Z" fill="black"/>
<path d="M118.334 91.2717C118.241 90.308 117.85 89.5577 117.161 89.0207C116.478 88.4837 115.589 88.2152 114.496 88.2152C113.727 88.2152 113.067 88.3439 112.517 88.6014C111.967 88.8589 111.546 89.2083 111.254 89.6497C110.963 90.091 110.813 90.5949 110.807 91.1614C110.807 91.6322 110.903 92.0405 111.095 92.3862C111.294 92.732 111.562 93.0262 111.901 93.269C112.239 93.5044 112.613 93.703 113.024 93.8648C113.435 94.0267 113.849 94.1628 114.267 94.2731L116.176 94.8028C116.945 95.0014 117.684 95.2699 118.393 95.6083C119.109 95.9467 119.749 96.3733 120.312 96.8883C120.883 97.4032 121.333 98.0248 121.665 98.7531C121.996 99.4814 122.162 100.335 122.162 101.313C122.162 102.637 121.857 103.803 121.247 104.811C120.637 105.811 119.756 106.595 118.602 107.161C117.455 107.72 116.067 108 114.436 108C112.852 108 111.476 107.728 110.31 107.183C109.15 106.639 108.241 105.845 107.585 104.8C106.936 103.755 106.584 102.483 106.531 100.982H110.161C110.214 101.769 110.432 102.424 110.817 102.946C111.201 103.469 111.702 103.858 112.318 104.116C112.941 104.373 113.637 104.502 114.406 104.502C115.208 104.502 115.911 104.37 116.514 104.105C117.124 103.833 117.601 103.457 117.946 102.979C118.291 102.494 118.466 101.927 118.473 101.28C118.466 100.691 118.311 100.206 118.006 99.8234C117.701 99.4336 117.273 99.1099 116.723 98.8524C116.179 98.5876 115.543 98.3522 114.814 98.1462L112.497 97.4841C110.82 97.006 109.494 96.2814 108.52 95.3103C107.552 94.332 107.068 93.0336 107.068 91.4152C107.068 90.0837 107.393 88.9177 108.043 87.9172C108.699 86.9168 109.59 86.1407 110.717 85.589C111.844 85.0299 113.12 84.7503 114.545 84.7503C115.991 84.7503 117.257 85.0299 118.344 85.589C119.438 86.1407 120.296 86.9094 120.919 87.8952C121.542 88.8736 121.864 89.9991 121.884 91.2717H118.334Z" fill="black"/>
<path d="M132.918 90.709V93.7986H124.138V90.709H132.918ZM126.306 86.6483H129.905V102.56C129.905 103.097 129.978 103.509 130.124 103.796C130.276 104.075 130.475 104.267 130.721 104.37C130.966 104.473 131.238 104.524 131.536 104.524C131.761 104.524 131.967 104.506 132.152 104.469C132.345 104.432 132.49 104.399 132.59 104.37L133.196 107.492C133.004 107.566 132.729 107.647 132.371 107.735C132.02 107.823 131.589 107.875 131.078 107.89C130.177 107.919 129.365 107.768 128.642 107.437C127.92 107.099 127.346 106.577 126.922 105.87C126.505 105.164 126.299 104.281 126.306 103.222V86.6483Z" fill="black"/>
<path d="M142.426 107.989C140.935 107.989 139.642 107.625 138.548 106.897C137.455 106.168 136.606 105.149 136.003 103.84C135.406 102.531 135.108 101 135.108 99.2497C135.108 97.4989 135.406 95.9651 136.003 94.6483C136.606 93.3315 137.455 92.309 138.548 91.5807C139.642 90.8524 140.935 90.4883 142.426 90.4883C143.918 90.4883 145.21 90.8524 146.304 91.5807C147.398 92.309 148.243 93.3315 148.839 94.6483C149.443 95.9651 149.744 97.4989 149.744 99.2497C149.744 101 149.443 102.531 148.839 103.84C148.243 105.149 147.398 106.168 146.304 106.897C145.21 107.625 143.918 107.989 142.426 107.989ZM142.446 104.789C143.255 104.789 143.931 104.543 144.474 104.05C145.018 103.549 145.422 102.88 145.688 102.041C145.959 101.203 146.095 100.269 146.095 99.2386C146.095 98.2014 145.959 97.2634 145.688 96.4248C145.422 95.5788 145.018 94.9057 144.474 94.4055C143.931 93.9053 143.255 93.6552 142.446 93.6552C141.617 93.6552 140.928 93.9053 140.378 94.4055C139.834 94.9057 139.427 95.5788 139.155 96.4248C138.89 97.2634 138.757 98.2014 138.757 99.2386C138.757 100.269 138.89 101.203 139.155 102.041C139.427 102.88 139.834 103.549 140.378 104.05C140.928 104.543 141.617 104.789 142.446 104.789Z" fill="black"/>
<path d="M152.799 107.658V90.709H156.289V93.5338H156.449C156.727 92.5554 157.204 91.8014 157.88 91.2717C158.563 90.7347 159.342 90.4662 160.217 90.4662C160.416 90.4662 160.638 90.4772 160.883 90.4993C161.135 90.514 161.344 90.5398 161.51 90.5766V94.251C161.357 94.1922 161.115 94.1407 160.784 94.0966C160.459 94.0451 160.144 94.0193 159.839 94.0193C159.183 94.0193 158.593 94.1775 158.069 94.4938C157.552 94.8028 157.145 95.2331 156.846 95.7848C156.548 96.3366 156.399 96.9729 156.399 97.6938V107.658H152.799Z" fill="black"/>
<path d="M170.033 107.989C168.502 107.989 167.18 107.636 166.066 106.93C164.959 106.216 164.107 105.208 163.511 103.906C162.914 102.597 162.616 101.056 162.616 99.2828C162.616 97.5393 162.914 96.0092 163.511 94.6924C164.114 93.3683 164.956 92.3384 166.036 91.6028C167.117 90.8598 168.386 90.4883 169.844 90.4883C170.786 90.4883 171.674 90.6575 172.509 90.9959C173.351 91.3269 174.094 91.8418 174.737 92.5407C175.386 93.2395 175.897 94.1297 176.268 95.211C176.639 96.2851 176.825 97.5651 176.825 99.051V100.276H164.306V97.5834H173.374C173.368 96.8184 173.219 96.1379 172.927 95.5421C172.635 94.9389 172.228 94.4644 171.704 94.1186C171.187 93.7729 170.584 93.6 169.894 93.6C169.158 93.6 168.512 93.7986 167.955 94.1959C167.398 94.5857 166.964 95.1007 166.653 95.7407C166.348 96.3733 166.192 97.0685 166.185 97.8262V100.177C166.185 101.162 166.348 102.008 166.673 102.714C166.997 103.413 167.451 103.95 168.035 104.326C168.618 104.693 169.301 104.877 170.083 104.877C170.607 104.877 171.081 104.796 171.505 104.634C171.929 104.465 172.297 104.219 172.609 103.895C172.92 103.571 173.156 103.171 173.315 102.692L176.675 103.112C176.463 104.097 176.059 104.958 175.462 105.694C174.872 106.422 174.117 106.989 173.195 107.393C172.274 107.79 171.22 107.989 170.033 107.989Z" fill="black"/>
</svg>
