<svg width="192" height="192" viewBox="0 0 192 192" fill="none" xmlns="http://www.w3.org/2000/svg">
<g clip-path="url(#clip0_4938_32527)">
<path d="M96 192C149.019 192 192 149.019 192 96C192 42.9807 149.019 0 96 0C42.9807 0 0 42.9807 0 96C0 149.019 42.9807 192 96 192Z" fill="white"/>
<path d="M154.109 105.221C152.799 106.591 151.649 107.031 150.379 105.861C149.879 105.411 149.709 105.901 149.469 106.231C147.499 108.901 145.339 108.721 144.129 105.671C143.639 104.451 143.189 104.701 142.359 105.191C137.489 108.071 132.229 109.131 126.649 108.141C122.429 107.391 118.979 105.311 116.599 101.371C116.179 102.241 115.869 102.911 115.539 103.581C114.779 105.081 113.779 106.371 112.259 107.161C110.159 108.251 108.419 107.701 107.439 105.561C107.019 104.641 106.799 104.601 106.149 105.371C104.799 106.971 103.139 108.291 100.939 107.411C98.7585 106.541 98.6885 104.381 98.6585 102.411C98.6185 100.221 99.0985 98.1112 100.289 96.2312C100.919 95.2312 101.729 94.4512 103.079 94.8112C104.299 95.1412 105.459 96.8112 105.589 98.4112C105.689 99.6912 104.999 100.431 103.919 100.891C103.639 101.011 103.329 101.181 103.039 101.171C101.529 101.121 101.249 102.001 101.379 103.261C101.469 104.221 101.269 105.421 102.399 105.781C103.409 106.101 104.089 105.181 104.659 104.471C105.839 102.971 106.859 101.391 107.239 99.4512C107.479 98.1812 107.939 96.9712 108.729 95.9212C109.909 94.3412 111.429 94.3012 112.729 95.7912C114.819 98.2012 114.039 100.631 110.929 101.231C110.119 101.391 109.549 101.561 109.609 102.511C109.679 103.661 109.319 104.961 110.519 105.741C111.079 106.101 111.669 105.691 112.039 105.301C114.069 103.101 115.909 100.791 115.809 97.5412C115.729 95.1012 116.379 92.8612 117.769 90.8512C122.109 84.6012 132.069 81.7112 139.059 84.6512C140.259 85.1612 141.329 85.8512 142.199 86.8312C143.929 88.7812 143.999 91.6012 142.369 93.6112C139.729 96.8712 133.369 98.2612 129.619 96.3812C127.579 95.3612 126.639 93.4312 127.359 91.7412C128.119 89.9612 131.279 88.5412 132.999 89.2012C133.249 89.3012 133.519 89.3812 133.529 89.6712C133.549 90.0112 133.289 90.2312 133.019 90.3912C132.269 90.8312 131.449 91.1812 130.749 91.6912C129.699 92.4512 129.799 93.1212 131.049 93.4912C133.869 94.3312 136.589 93.9512 138.979 92.2412C140.769 90.9512 140.519 88.9712 138.569 87.9012C137.699 87.4312 136.759 87.1712 135.779 87.0512C130.579 86.3712 125.799 87.5012 121.809 90.9312C117.029 95.0312 117.849 101.261 123.479 104.081C129.319 107.001 135.229 106.341 141.129 104.151C142.719 103.561 143.869 102.891 143.779 100.841C143.719 99.4212 144.449 98.0512 145.539 97.0112C146.739 95.8612 148.149 95.7412 149.419 96.7512C149.869 97.1012 150.219 97.1812 150.789 97.1412C152.039 97.0412 152.689 97.8012 152.469 99.0812C152.219 100.561 152.059 102.031 152.129 103.531C152.139 103.861 152.059 104.341 152.559 104.381C152.909 104.411 153.029 104.031 153.159 103.761C153.749 102.501 154.339 101.261 154.309 99.8112C154.289 98.7312 154.349 97.6512 154.419 96.5712C154.469 95.9312 154.429 95.4512 153.609 95.4212C153.139 95.4012 152.619 95.2512 152.659 94.6512C152.699 94.1612 153.179 94.0112 153.599 94.0412C154.489 94.1112 154.719 93.6412 154.829 92.8612C154.959 91.9512 155.159 91.0212 155.759 90.2812C156.559 89.3012 157.639 88.9512 158.799 89.3512C159.889 89.7312 160.299 90.6912 160.249 91.8212C160.219 92.5112 159.889 93.0112 159.239 93.2212C158.489 93.4712 157.859 93.4512 158.059 92.3512C158.129 92.0012 158.199 91.6412 158.249 91.2912C158.289 91.0312 158.299 90.7312 157.979 90.6612C157.679 90.5912 157.499 90.8612 157.459 91.1012C157.339 91.8112 157.159 92.5312 157.209 93.2312C157.279 94.3212 158.249 93.7212 158.789 93.9212C159.229 94.0812 159.779 94.1212 159.719 94.7312C159.669 95.3012 159.129 95.4912 158.679 95.4212C156.919 95.1412 156.939 96.2212 156.959 97.4512C157.009 100.231 157.009 103.001 157.009 105.781C157.009 106.291 157.009 106.841 156.809 107.291C156.439 108.111 155.689 108.551 154.799 108.401C153.859 108.251 154.099 107.431 154.109 106.781C154.109 106.431 154.109 106.071 154.109 105.241V105.221ZM149.439 100.851C149.399 100.511 149.369 100.051 149.279 99.6012C149.159 99.0112 149.109 98.2612 148.359 98.1612C147.559 98.0512 147.209 98.7312 146.929 99.3412C146.139 101.121 145.939 102.991 146.249 104.911C146.349 105.501 146.469 106.251 147.209 106.321C147.929 106.391 148.189 105.681 148.459 105.141C149.099 103.831 149.329 102.421 149.429 100.851H149.439ZM102.979 96.6312C102.219 97.2012 102.229 97.9612 101.999 98.6012C101.899 98.8812 101.679 99.3412 102.209 99.4712C102.579 99.5612 102.929 99.3412 103.099 99.0312C103.529 98.2712 103.459 97.5012 102.979 96.6312ZM111.079 96.7012C110.639 97.0812 110.489 97.5312 110.409 97.9812C110.329 98.4512 109.809 98.9112 110.289 99.3912C110.389 99.4912 110.699 99.4512 110.859 99.3912C111.469 99.1312 111.619 98.5912 111.589 97.9912C111.569 97.5512 111.669 97.0512 111.069 96.7112L111.079 96.7012Z" fill="#593326"/>
<path d="M68.3494 108.45C64.1594 108.58 60.4694 107.47 57.3294 104.88C53.1394 101.41 52.3494 95.4704 55.4594 91.0004C58.7494 86.2704 63.5294 84.1504 69.0994 83.6604C71.7194 83.4304 74.3494 83.5704 76.8194 84.6704C77.5194 84.9804 78.2094 85.3504 78.8294 85.8004C82.0394 88.1704 82.2494 92.1004 79.1494 94.6004C75.8894 97.2204 72.1194 97.8304 68.0894 96.6804C67.2894 96.4504 66.5894 96.0004 65.9994 95.4104C64.4294 93.8404 64.5394 91.6804 66.2794 90.3104C67.4594 89.3804 68.8394 89.0204 70.3294 89.1404C70.6794 89.1704 71.1194 89.1704 71.2394 89.5804C71.3994 90.0804 70.9494 90.3204 70.6194 90.5204C69.9194 90.9504 69.1294 91.2504 68.4794 91.7404C67.5094 92.4704 67.5894 93.1304 68.7294 93.4804C71.5994 94.3704 74.3694 93.9804 76.7894 92.2104C78.5094 90.9504 78.2594 89.0204 76.3894 87.9604C75.3894 87.3904 74.2794 87.1204 73.1594 87.0004C68.3594 86.4904 63.9194 87.5404 60.0794 90.4904C54.6994 94.6204 55.4294 101.42 61.5594 104.29C67.3994 107.03 73.2694 106.34 79.0794 104.08C79.5594 103.89 80.0094 103.63 80.4894 103.46C81.3094 103.17 81.6694 102.76 81.5594 101.76C81.3994 100.31 81.7994 98.9004 82.6894 97.6804C84.3594 95.3904 87.4994 95.6604 88.6794 98.2404C89.5394 100.13 89.4494 102.07 88.2994 103.84C86.9594 105.91 84.5894 106.29 82.7394 104.67C82.0294 104.05 81.6394 104.29 81.0294 104.67C77.1094 107.13 72.8894 108.57 68.3394 108.46L68.3494 108.45ZM86.8394 100.79C86.7194 100.18 86.6194 99.4204 86.4194 98.6804C86.2894 98.1904 86.0594 97.6204 85.4594 97.6104C84.8394 97.6004 84.6594 98.2004 84.5294 98.6804C84.1994 99.9404 84.1894 101.22 84.5294 102.47C84.6894 103.05 84.9094 103.78 85.6394 103.78C86.5194 103.78 86.5294 102.93 86.6794 102.31C86.7794 101.87 86.7894 101.4 86.8494 100.78L86.8394 100.79Z" fill="#593326"/>
<path d="M45.2872 95.2013C44.8172 99.5113 42.4772 102.831 38.6272 105.121C35.5972 106.921 32.3172 107.841 28.7472 107.371C28.0772 107.281 27.3572 107.161 27.1172 106.421C26.8472 105.611 27.5072 105.191 28.0372 104.811C31.5172 102.301 34.3172 99.2413 36.2772 95.3813C37.1172 93.7313 38.3772 92.3313 39.8272 91.1513C42.3872 89.0813 44.3572 89.7613 45.0772 92.9713C45.2272 93.6213 45.2072 94.3013 45.2972 95.2013H45.2872Z" fill="#593326"/>
<path d="M36.7987 86.3817C38.1787 86.3417 39.5987 86.4917 40.8087 87.4217C41.6087 88.0417 41.7387 88.7817 40.7187 89.1817C36.3587 90.8817 34.0887 94.4717 32.1087 98.3817C31.1087 100.352 29.8387 102.182 28.0287 103.532C25.9487 105.082 23.9087 104.232 23.5887 101.662C22.6387 94.0417 30.2387 85.8017 36.8087 86.3717L36.7987 86.3817Z" fill="#593326"/>
<path d="M90.0294 101.671C90.0294 99.9707 89.9994 98.2807 90.0494 96.5807C90.0694 95.8607 90.0194 95.3707 89.1294 95.3807C88.7094 95.3807 88.2594 95.1807 88.2994 94.6607C88.3294 94.1507 88.7894 94.0107 89.2194 94.0407C90.0994 94.1107 90.3694 93.6707 90.4594 92.8707C90.5294 92.2107 90.7194 91.5507 90.9794 90.9407C91.5494 89.6007 93.2094 88.6107 94.2094 89.3507C95.4794 90.2907 96.3094 89.7907 97.3994 89.3107C98.1894 88.9707 99.0294 89.1307 99.6594 89.8207C100.299 90.5207 100.519 91.3507 100.259 92.2507C100.029 93.0607 99.3694 93.4507 98.5994 93.2907C97.7294 93.1107 98.2094 92.4007 98.2594 91.9007C98.2994 91.4707 98.6794 90.8107 98.1194 90.6907C97.4094 90.5407 97.4994 91.3607 97.4094 91.8007C97.1694 92.9407 96.9094 94.1507 98.8294 93.9307C99.2694 93.8807 99.8494 94.0707 99.8294 94.6607C99.8094 95.3207 99.2094 95.4907 98.6894 95.4207C97.1394 95.1907 97.0794 96.0807 97.0994 97.2407C97.1594 100.121 97.1194 103.001 97.1494 105.881C97.1494 106.681 97.0894 107.451 96.3694 107.941C95.8694 108.291 95.2994 108.591 94.6494 108.281C94.0394 107.981 94.1994 107.411 94.2094 106.921C94.2994 103.581 94.4194 100.241 94.5094 96.9007C94.5294 96.2207 94.8294 95.4207 93.5994 95.4207C92.4094 95.4207 92.5994 96.2307 92.5994 96.9007C92.5994 99.8807 92.6194 102.861 92.6394 105.851C92.6394 106.471 92.6794 107.091 92.2194 107.601C91.7094 108.171 91.0594 108.561 90.3194 108.341C89.5494 108.121 89.7294 107.381 89.7294 106.771C89.7294 105.071 89.7294 103.381 89.7294 101.681C89.8294 101.681 89.9294 101.681 90.0294 101.681V101.671ZM93.8094 91.7607C93.8094 91.2207 93.9994 90.8307 93.6394 90.7007C93.1494 90.5307 93.1294 91.0207 92.9694 91.3207C92.6194 91.9807 92.5494 92.6807 92.7094 93.3807C92.7894 93.7507 93.1594 93.9107 93.5494 93.8507C93.7894 93.8107 93.9294 93.6107 93.7894 93.4207C93.2994 92.7607 93.8194 92.1507 93.8094 91.7607Z" fill="#593326"/>
<path d="M158.559 102.18C158.619 99.9903 159.029 97.8803 160.289 96.0403C161.529 94.2403 163.269 94.2603 164.559 96.0203C166.379 98.4903 165.579 100.65 162.559 101.22C161.719 101.38 161.219 101.6 161.249 102.52C161.299 103.68 160.969 105 162.179 105.73C162.839 106.13 163.449 105.54 163.929 105.09C165.299 103.79 166.129 102.14 166.919 100.46C167.159 99.9403 167.249 99.0903 168.089 99.4303C168.829 99.7303 168.359 100.4 168.219 100.89C167.689 102.73 166.969 104.49 165.579 105.87C164.279 107.16 162.779 108.11 160.889 107.44C159.079 106.79 158.789 105.07 158.569 103.41C158.519 103.01 158.569 102.59 158.569 102.18H158.559ZM163.249 97.8203C163.129 97.5403 163.249 96.6903 162.839 96.8103C161.979 97.0703 162.069 98.1103 161.829 98.8503C161.729 99.1803 161.849 99.5103 162.269 99.4303C163.089 99.2803 163.269 98.6703 163.249 97.8203Z" fill="#593326"/>
</g>
<defs>
<clipPath id="clip0_4938_32527">
<rect width="192" height="192" fill="white"/>
</clipPath>
</defs>
</svg>
