<svg width="192" height="192" viewBox="0 0 192 192" fill="none" xmlns="http://www.w3.org/2000/svg">
<path d="M96 191C148.467 191 191 148.467 191 96C191 43.5329 148.467 1 96 1C43.5329 1 1 43.5329 1 96C1 148.467 43.5329 191 96 191Z" fill="white"/>
<path d="M154.718 85.8459C154.352 85.2846 152.595 85.0162 154.084 84.04C156.671 82.3561 155.182 81.2334 153.767 79.94C153.059 79.2811 152.473 78.5245 151.595 77.5239C159.038 77.5239 166.335 76.7185 173.608 77.8411C176.439 78.2804 178.123 81.5019 176.976 84.2108C173.754 91.9227 169.898 99.3418 165.334 106.322C163.358 109.372 160.185 110.641 156.524 110.617C145.737 110.592 134.95 110.568 124.164 110.617C123.017 110.617 121.015 109.811 120.893 111.251C120.747 113.13 122.895 113.35 124.408 113.375C131.509 113.497 138.587 113.497 145.689 113.521C147.934 113.521 150.155 113.399 152.4 113.472C156.109 113.57 158.355 115.4 158.599 118.353C158.843 121.428 156.256 124.576 152.888 125.04C151.204 125.284 149.471 125.235 147.739 125.333C149.789 129.311 149.252 132.117 146.104 134.094C143.492 135.729 141.418 135.558 139.88 133.606C138.196 131.458 139.124 128.481 142.98 125.162C136.317 125.235 130.24 124.723 124.115 125.699C125.799 130.214 124.871 132.63 121.137 134.655C119.527 135.534 118.233 135.388 116.818 134.46C115.329 133.46 114.987 132.069 115.231 130.385C116.11 124.381 120.332 120.525 126.653 120.403C134.316 120.257 142.004 120.403 149.691 120.33C150.984 120.33 153.205 121.111 153.181 119.036C153.181 117.792 151.058 118.451 149.911 118.451C142.028 118.402 134.17 118.426 126.287 118.5C121.259 118.548 117.257 117.157 115.72 111.813C115.475 110.958 114.987 110.592 114.133 110.373C113.059 110.08 112.108 109.372 112.254 108.127C112.425 106.81 113.474 106.151 114.719 106.004C115.964 105.858 117.233 105.907 118.502 105.882C119.673 105.858 120.845 105.955 121.992 105.882C123.431 105.785 124.798 105.419 124.823 103.613C124.871 101.636 123.383 101.294 121.845 101.148C120.967 101.075 120.088 101.123 119.234 101.123C114.475 101.123 109.716 101.172 104.957 101.148C103.224 101.148 101.345 100.928 101.37 98.7073C101.418 96.4132 103.42 96.462 105.079 96.4376C107.788 96.3888 110.521 96.4864 113.23 96.4376C114.865 96.3888 116.598 95.9251 116.476 93.9239C116.354 91.9959 114.743 91.6299 113.011 91.6543C109.521 91.7275 106.006 91.7275 102.517 91.6787C101.565 91.6787 100.564 91.5322 99.6612 91.2638C98.6606 90.9465 98.0505 90.1167 98.0749 89.0429C98.0993 88.0423 98.9046 87.4566 99.7588 87.237C100.784 86.9686 101.858 86.9197 102.931 86.9197C108.471 86.8953 114.011 86.9442 119.551 86.9442C120.43 86.9442 121.333 86.993 122.162 86.7977C123.358 86.5049 124.822 86.334 124.774 84.6012C124.749 82.8685 123.553 82.3804 122.065 82.1852C118.087 81.6971 114.109 82.3805 110.131 82.2341C108.862 82.1852 107.617 82.1364 106.373 81.9656C105.079 81.7947 104.2 81.0381 104.225 79.6471C104.274 78.4024 105.152 77.8412 106.275 77.5483C107.812 77.1334 109.374 77.1823 110.912 77.3531C112.205 77.4995 112.547 77.0358 112.571 75.7424C112.645 72.765 112.181 70.1781 109.374 68.4209C108.081 67.6156 106.983 66.4441 105.86 65.3459C104.908 64.4185 104.664 63.2959 105.665 62.2465C106.592 61.2703 107.617 60.6358 108.935 61.7584C111.229 63.7108 113.67 65.4924 115.817 67.5912C117.672 69.3971 117.111 72.0084 117.184 74.2781C117.257 76.7918 118.014 77.4995 120.6 77.4263C128.166 77.2067 135.731 77.3531 144.078 77.3531C142.614 78.8418 141.686 79.9643 140.539 80.8673C139.27 81.8679 139.905 82.6245 140.588 83.4786C140.93 84.04 142.003 83.7959 142.028 84.7233C141.589 86.5049 140.466 86.5537 139.221 85.6507C138.099 84.8454 137.342 85.1626 136.439 86.0168C130.631 91.5322 131.046 92.3376 136.879 97.8775C138.074 99.0245 138.928 98.3656 139.807 97.4626C140.051 97.3162 140.32 97.2674 140.588 97.243C142.321 97.7555 142.394 98.8781 141.467 100.123C140.637 101.27 140.978 102.075 141.881 102.905C142.028 103.027 142.15 103.173 142.296 103.32C147.568 108.835 147.909 108.42 153.449 102.734C154.499 101.66 154.059 100.855 153.205 100.025C153.01 99.6346 152.961 99.2442 153.059 98.8293C153.62 97.3162 154.596 96.828 155.963 97.8775C157.086 98.7316 157.867 98.2924 158.721 97.4626C164.602 91.7519 164.456 91.581 158.281 85.6751C157.476 84.8941 156.622 84.6745 155.743 85.5531C155.475 85.7971 155.158 86.0167 154.718 85.8459Z" fill="#005308"/>
<path d="M68.1551 100.053C67.2521 102.493 65.7634 103.03 63.6646 101.932C61.517 100.809 60.4432 98.2955 61.1265 96.0014C61.9075 93.3901 64.2748 92.0722 67.6426 92.3895C70.1319 92.6336 71.7426 94.0246 71.6694 96.5139C71.5962 98.8812 72.6212 99.1985 74.5736 99.2717C78.0146 99.3937 80.6504 97.7098 83.2617 95.3913C81.3093 95.3913 79.3569 95.4401 77.4289 95.3669C76.7944 95.3425 75.6718 95.855 75.8426 94.4151C75.9646 93.4145 75.745 92.0967 77.3801 92.0967C79.6986 92.0967 82.0414 92.0723 84.3598 92.1455C85.8973 92.1943 86.8735 93.1949 87.3372 94.5616C87.8253 96.0259 87.2152 97.2949 86.0438 98.1491C82.3098 100.858 78.4051 103.298 73.4998 102.591C72.2795 102.42 71.9622 102.64 71.6205 103.884C70.4735 107.935 65.7146 110.156 61.7366 108.741C61.1265 108.521 60.9557 108.228 61.1509 107.716C61.4438 106.886 60.9801 105.593 62.3712 105.373C62.9325 105.275 63.5426 105.324 64.1039 105.324C68.0087 105.275 68.4724 104.714 68.1551 100.053Z" fill="#B50101"/>
<path d="M40.1595 92.5375C40.1595 90.7804 40.306 89.0233 40.1107 87.2905C39.9155 85.4114 40.8916 84.85 42.4047 84.7768C44.3571 84.6792 43.4785 86.2411 43.5029 87.0709C43.6006 89.7798 43.4541 92.5131 43.5762 95.2221C43.6494 96.8816 42.4779 99.1269 45.9922 99.2245C49.4089 99.3221 48.9696 97.3453 48.8232 95.3441C48.7011 93.7334 49.0185 92.8061 50.8488 92.6108C51.9714 92.4888 52.2399 92.806 52.191 93.8066C52.1666 94.3923 52.1422 94.9781 52.191 95.5638C52.8012 103.08 49.1404 102.861 43.088 102.226C41.1845 102.031 40.2083 100.372 40.1595 98.3947C40.1351 96.418 40.1839 94.4899 40.1595 92.5375Z" fill="#B50303"/>
<path d="M100.907 110.523C98.8817 110.523 96.8561 110.548 94.8305 110.523C93.3662 110.499 92.3656 109.718 92.2924 108.278C92.2192 106.911 93.3662 106.13 94.5377 106.057C98.8817 105.74 103.226 105.569 107.545 106.204C108.644 106.374 109.742 106.96 109.571 108.254C109.425 109.425 108.668 110.45 107.301 110.499C105.178 110.548 103.055 110.523 100.932 110.523C100.907 110.523 100.907 110.523 100.907 110.523Z" fill="#02540A"/>
<path d="M59.4637 93.0961C59.4637 96.4883 59.5613 99.8806 59.4393 103.273C59.3173 106.323 56.5595 108.715 53.3381 108.715C52.6792 108.715 51.3369 109.35 51.459 107.837C51.5322 106.885 51.3613 105.396 52.8744 105.347C55.925 105.25 56.2179 103.322 56.1203 100.954C56.0471 99.3925 56.2667 97.8306 56.0714 96.2931C55.7054 93.7062 56.8768 92.8276 59.4637 93.0961Z" fill="#B60505"/>
<path d="M17.5137 108.495C17.6845 106.689 17.9285 105.176 20.3934 105.103C21.7845 105.054 22.297 103.663 22.297 102.272C22.297 99.9536 22.4434 97.6107 22.2482 95.2923C22.0774 93.1691 23.566 93.0959 24.8107 93.0471C26.4946 92.9983 25.5916 94.4869 25.6404 95.2191C25.7625 97.3423 25.6893 99.4899 25.6893 101.613C25.6649 106.909 22.8827 109.252 17.5137 108.495Z" fill="#B60505"/>
<path d="M27.5423 93.587C27.5423 91.4638 27.6887 89.3162 27.4935 87.193C27.2982 85.2162 28.4941 84.85 29.8852 84.7768C31.8131 84.6792 30.9346 86.2411 30.9346 87.0465C31.0322 91.2929 30.8614 95.5638 31.0322 99.8102C31.1054 101.714 30.1292 102.177 28.6405 102.226C26.6881 102.299 27.6155 100.762 27.5667 99.9566C27.4691 97.8578 27.5423 95.7102 27.5423 93.587Z" fill="#B60606"/>
<path d="M38.1897 99.0019C38.1897 100.271 38.2385 101.54 38.1897 102.809C38.0676 106.299 35.4807 108.788 31.9664 108.739C31.3563 108.739 30.1605 109.252 30.2337 108.007C30.3069 107.08 29.9897 105.469 31.4784 105.42C34.9194 105.298 34.9926 103.077 34.9194 100.564C34.8706 98.8066 35.0658 97.0495 34.8706 95.3168C34.6509 93.4132 35.92 93.1691 37.1646 93.0959C38.9462 92.9739 38.0432 94.4626 38.1408 95.2191C38.2872 96.4394 38.1897 97.7329 38.1897 99.0019Z" fill="#B50202"/>
<path d="M153.448 98.8324C153.448 99.1741 153.448 99.5402 153.448 99.8818C152.496 101.273 151.203 101.224 149.885 100.565C147.737 99.4914 147.518 97.4658 147.542 95.1962C146.322 95.0009 144.614 96.4164 143.955 94.3175C143.784 93.5366 144.321 93.0729 144.687 92.536C145.224 91.7062 144.565 91.1694 144.199 90.5348C143.442 89.2414 143.906 88.436 145.248 88.0211C146.224 87.9479 145.956 89.0217 146.493 89.3878C146.664 89.4854 146.883 89.705 146.956 89.6562C149.275 88.2407 151.666 89.7783 154.009 89.4366C154.351 89.7539 154.375 90.1687 154.229 90.5836C153.277 91.9747 151.74 90.9253 150.324 91.4622C151.3 93.1218 151.349 94.586 150.568 96.4652C149.616 98.8568 152.374 98.1247 153.448 98.8324Z" fill="#095911"/>
<path d="M94.8969 77.5503C95.4826 77.5503 96.0439 77.5503 96.6296 77.5503C98.3135 77.5259 99.5582 78.3313 99.6558 79.9908C99.7535 81.6259 98.1916 81.8456 96.9957 82.114C95.385 82.4801 93.7255 82.4801 92.1148 82.1385C90.8213 81.87 89.6742 81.2598 89.8451 79.6491C89.9915 78.2336 91.0409 77.7456 92.2855 77.648C93.1397 77.5992 94.0183 77.648 94.8969 77.648C94.8969 77.5992 94.8969 77.5747 94.8969 77.5503Z" fill="#04550C"/>
<path d="M95.1493 101.221C93.4897 101.099 91.5617 100.952 91.5373 98.7804C91.5129 96.584 93.4898 96.3643 95.1737 96.3643C96.9064 96.3399 98.7368 96.7304 98.688 98.9269C98.6148 100.977 96.7844 101.05 95.1493 101.221Z" fill="#03550B"/>
<path d="M146.514 89.3862C146.148 88.9957 145.807 88.6297 145.441 88.2392C145.123 86.1404 143.854 85.0178 141.78 84.7249C141.389 84.31 141.023 83.8951 140.633 83.4802C141.097 83.5046 141.633 83.6755 142 83.5047C143.635 82.6749 145.026 83.041 146.173 84.2856C147.247 85.4815 147.393 86.8237 146.514 88.2635C146.368 88.532 146.49 88.9957 146.514 89.3862Z" fill="#196320"/>
<path d="M36.1636 91.2146C35.4803 90.5557 34.3089 90.092 34.4797 89.1158C34.6261 88.3104 35.4559 87.1879 36.3833 87.3343C37.1398 87.4563 38.2137 88.3593 38.0916 89.3111C38.0184 90.1652 37.1154 90.8242 36.1636 91.2146Z" fill="#B91111"/>
<path d="M80.9682 107.058C80.3825 107.839 79.7968 108.937 78.8938 108.839C78.0884 108.742 76.9658 107.887 77.1611 106.862C77.2831 106.179 78.2837 105.227 78.9426 105.203C79.8456 105.154 80.4557 106.179 80.9682 107.058Z" fill="#B91212"/>
<path d="M47.3584 108.982C46.431 108.567 45.4548 107.908 45.406 107.054C45.3572 106.151 46.3578 105.272 47.2364 105.175C48.0661 105.077 48.8471 106.078 48.9935 106.81C49.1888 107.859 47.9929 108.274 47.3584 108.982Z" fill="#B70808"/>
<path d="M154.037 90.5342C154.037 90.1681 154.037 89.7776 154.037 89.4115C155.282 88.4109 155.404 87.2151 154.72 85.8484C154.891 85.6288 155.087 85.4335 155.257 85.2139C156.844 85.5555 157.088 86.8002 156.844 88.0448C156.575 89.5091 155.867 90.7294 154.037 90.5342Z" fill="#2A6F31"/>
<path d="M154.034 90.5322C156.67 89.2876 156.963 87.4816 155.255 85.2119C156.377 83.3328 157.353 83.3328 158.94 84.968C165.505 91.7769 165.505 91.6793 158.842 98.4638C157.549 99.7817 156.743 99.9036 155.767 98.4149C154.669 96.731 154.132 98.2197 153.449 98.8054C152.18 99.1715 150.813 99.8548 149.886 98.3417C149.08 97.0239 149.422 95.706 150.593 94.8274C151.96 93.8024 150.642 93.4608 150.252 92.8751C149.837 92.265 148.592 91.9965 149.495 90.8495C150.203 89.9221 150.935 90.0685 151.667 90.6542C152.546 91.3376 153.253 90.8251 154.034 90.5322Z" fill="#FDFDFD"/>
<path d="M141.782 84.7252C145.004 83.9931 146.078 85.0425 145.443 88.2395C144.662 88.874 143.418 89.4353 145.053 90.4847C146.175 91.2169 146.346 92.0466 145.321 93.0228C144.955 93.1693 144.565 93.2181 144.174 93.2425C140.465 93.3889 139.903 93.9502 139.806 97.6354C139.195 100.051 138.268 100.271 136.438 98.4651C129.897 91.9246 129.873 91.5341 136.487 85.0181C137.634 83.8954 138.488 83.261 139.562 84.9693C140.44 86.3604 141.172 85.9455 141.782 84.7252Z" fill="#FDFDFD"/>
<path d="M144.155 93.9951C144.839 95.2397 145.571 95.7522 146.62 94.2879C146.962 93.8242 147.377 93.0189 148.231 93.6778C148.841 94.1659 148.89 94.5564 148.475 95.3618C147.718 96.8748 148.231 98.3879 149.329 99.5594C150.549 100.853 152.014 100.536 153.453 99.8766C155.528 100.316 156.553 101.024 154.43 102.903C153.063 104.123 151.892 105.563 150.525 106.783C148.67 108.467 146.693 108.467 144.839 106.759C143.618 105.661 142.593 104.343 141.349 103.293C139.811 102.024 139.201 100.999 141.227 99.6326C142.837 98.5344 141.105 98.2171 140.617 97.607C139.03 96.338 139.543 95.1665 140.763 93.9951C141.91 92.8969 143.033 92.5308 144.155 93.9951Z" fill="#FDFDFD"/>
<path d="M125.452 96.3915C124.866 96.3915 124.281 96.4403 123.695 96.3915C122.255 96.2451 120.888 95.7814 120.815 94.073C120.742 92.2915 122.255 91.9498 123.597 91.7058C125.037 91.4373 126.526 91.4374 127.941 91.8278C129.088 92.1451 130.211 92.6332 130.138 94.1463C130.064 95.6349 128.893 96.0254 127.746 96.2939C126.989 96.4647 126.209 96.4159 125.428 96.4647C125.452 96.4403 125.452 96.4159 125.452 96.3915Z" fill="#FBFCFB"/>
<path d="M144.149 93.999C141.049 93.3889 140.024 94.4383 140.61 97.5865C140.342 97.6109 140.073 97.611 139.805 97.6354C138.56 96.3419 138.804 94.9996 139.829 93.755C140.83 92.5347 142.099 91.9735 143.685 92.73C144.198 92.9741 144.71 93.2913 145.32 93.0229C144.93 93.3645 144.539 93.6818 144.149 93.999Z" fill="#216928"/>
<path d="M66.6384 95.7788C68.0051 95.5591 68.4932 96.2424 68.3712 97.6091C68.2979 98.4145 68.6152 99.4151 67.1021 99.1954C65.8331 99.0246 64.3688 99.1466 64.32 97.4138C64.2712 96.0472 65.345 95.7055 66.6384 95.7788Z" fill="#FAEFEF"/>
</svg>
