<svg width="192" height="192" viewBox="0 0 192 192" fill="none" xmlns="http://www.w3.org/2000/svg">
<g clip-path="url(#clip0_4938_32440)">
<path d="M96 192C149.019 192 192 149.019 192 96C192 42.9807 149.019 0 96 0C42.9807 0 0 42.9807 0 96C0 149.019 42.9807 192 96 192Z" fill="white"/>
<path d="M63.3908 82.4786C63.5408 82.4586 63.6708 82.3586 63.8008 82.2986C65.5308 81.3986 67.3708 80.8886 69.3108 80.6986C70.6408 80.5686 71.9608 80.6586 73.2708 80.8886C73.6308 80.9486 74.0008 80.9786 74.4208 81.0886C73.6008 81.2186 72.8508 81.3286 72.1008 81.4486C70.6508 81.6886 69.4008 82.3586 68.3008 83.3186C66.9908 84.4586 66.0308 85.8586 65.2308 87.3786C64.7608 88.2786 64.3308 89.1986 63.8508 90.0886C62.8808 91.8686 61.4608 93.1786 59.6808 94.1186C57.3508 95.3386 54.8908 96.1586 52.3108 96.6386C52.1908 96.6586 52.0608 96.6886 51.9408 96.7186C51.9208 96.7186 51.9108 96.7486 51.8808 96.7786C52.0708 96.7986 52.2408 96.8286 52.4108 96.8286C53.3108 96.8286 54.1708 97.0486 55.0308 97.2686C56.9008 97.7486 58.6608 98.4786 60.2808 99.5386C61.7008 100.469 62.8408 101.679 63.8008 103.069C64.5308 104.119 65.1608 105.239 65.8308 106.329C66.7108 107.789 67.8508 109.019 69.1108 110.149C70.0208 110.959 71.0108 111.689 71.9908 112.419C72.0508 112.469 72.1308 112.499 72.1708 112.579C72.1308 112.669 72.0508 112.629 71.9908 112.629C70.2008 112.659 68.4208 112.469 66.6608 112.119C65.7908 111.939 64.9608 111.619 64.1408 111.279C63.6308 111.069 63.1308 110.829 62.6208 110.609C62.6008 110.599 62.5808 110.569 62.5708 110.579C62.5308 110.599 62.5508 110.629 62.5708 110.659C62.5908 110.819 62.6708 110.969 62.7308 111.119C63.3608 112.779 63.8708 114.479 64.0708 116.259C64.2108 117.519 64.4308 118.769 64.8808 119.969C64.9308 120.109 65.0008 120.249 64.9608 120.409C64.8308 120.389 64.7708 120.279 64.6908 120.209C63.6108 119.299 62.6808 118.239 61.8508 117.099C60.8808 115.759 59.6508 114.719 58.2508 113.859C56.7808 112.959 55.3308 112.049 53.9608 110.989C52.6908 110.009 51.5708 108.879 50.7608 107.479C50.2908 106.659 49.9808 105.759 49.6808 104.859C49.0908 103.079 48.7008 101.259 48.4608 99.3986C48.4208 99.0586 48.4208 98.7086 48.2908 98.2986C48.2308 98.7786 48.1708 99.1886 48.1208 99.5886C47.8108 101.939 47.2608 104.239 46.4008 106.449C45.9408 107.639 45.2608 108.689 44.4308 109.639C43.2508 110.989 41.8208 112.039 40.3208 112.999C39.6408 113.429 38.9608 113.869 38.2708 114.299C36.9208 115.139 35.8008 116.219 34.8708 117.509C34.1208 118.539 33.3408 119.539 32.4908 120.479C32.4408 120.539 32.4108 120.629 32.2908 120.629C32.3508 120.249 32.4208 119.879 32.4808 119.509C32.6408 118.459 32.8108 117.409 32.9608 116.359C33.2208 114.509 33.7508 112.739 34.4008 110.989C34.4308 110.899 34.4608 110.819 34.4908 110.729C34.4908 110.709 34.4908 110.689 34.4808 110.659C34.3808 110.639 34.3108 110.699 34.2408 110.739C33.2508 111.249 32.2208 111.649 31.1708 111.999C30.5008 112.219 29.8008 112.309 29.1008 112.419C28.0408 112.589 26.9708 112.669 25.8908 112.639C25.6808 112.639 25.4608 112.719 25.2408 112.639C25.2708 112.519 25.3708 112.479 25.4508 112.419C26.4908 111.609 27.5208 110.789 28.4708 109.889C29.8108 108.619 30.9108 107.159 31.7908 105.529C32.4108 104.389 33.0908 103.269 33.8508 102.209C35.1708 100.379 36.8908 99.0686 38.9108 98.1186C40.2608 97.4786 41.6808 97.0486 43.1508 96.7486C43.5908 96.6586 44.0408 96.6286 44.4908 96.6286C44.6108 96.6286 44.7408 96.6486 44.8708 96.5286C43.9908 96.3786 43.1408 96.2286 42.3008 96.0086C41.0708 95.6886 39.8508 95.3286 38.6908 94.8086C37.0708 94.0786 35.7408 92.9686 34.5708 91.6486C33.3408 90.2586 32.3408 88.7086 31.4708 87.0786C31.2208 86.5986 30.9408 86.1286 30.6808 85.6586C30.0008 84.4586 29.0608 83.5086 27.9408 82.7186C27.3508 82.3086 26.7708 81.8886 26.1608 81.5186C25.5508 81.1586 25.0008 80.7186 24.5208 80.1986C24.3008 79.9486 24.0608 79.7186 23.8008 79.4586C23.9208 79.4086 24.0008 79.4586 24.0808 79.4786C24.6808 79.6386 25.2708 79.8386 25.8808 79.9586C26.5108 80.0786 27.1608 80.1686 27.8008 80.2186C29.6808 80.3586 31.5008 80.7486 33.2708 81.3586C33.4108 81.4086 33.5408 81.4886 33.7508 81.4586C33.2508 79.9286 32.8808 78.3886 32.6508 76.8186C32.4208 75.2486 32.3608 73.6786 32.4108 72.0586C32.5408 72.1486 32.5808 72.2486 32.6408 72.3486C33.1508 73.1586 33.6308 73.9886 34.2208 74.7486C35.2508 76.0986 36.5308 77.1686 37.9408 78.0786C38.9808 78.7486 40.0508 79.3586 41.1508 79.9186C43.3108 81.0286 44.8908 82.6986 46.0208 84.8186C46.9608 86.5886 47.5408 88.4786 47.9108 90.4386C48.0208 91.0286 48.1208 91.6186 48.1908 92.2186C48.1908 92.2586 48.1908 92.3086 48.2908 92.3386C48.3608 92.2086 48.3708 92.0486 48.3908 91.8986C48.6608 90.1586 49.1008 88.4686 49.7908 86.8486C50.4708 85.2586 51.3708 83.7986 52.6208 82.5786C53.4608 81.7586 54.4108 81.0886 55.4608 80.5686C56.6508 79.9786 57.8308 79.3886 58.9808 78.7186C60.9808 77.5586 62.6708 76.0786 63.9208 74.1186C64.1808 73.7186 64.4508 73.3286 64.7108 72.9386C64.7608 72.8686 64.7908 72.7686 64.9108 72.7286C64.9508 72.8186 64.9308 72.9086 64.9308 72.9886C64.9208 73.6586 64.9208 74.3286 64.8908 74.9986C64.8008 76.8286 64.4808 78.6186 63.9908 80.3786C63.8008 81.0686 63.5408 81.7386 63.3208 82.4186C63.3008 82.4486 63.2808 82.4786 63.3008 82.5086C63.3308 82.5386 63.3508 82.5086 63.3808 82.4886L63.3908 82.4786ZM44.4508 92.8186C44.4508 92.8186 44.4208 92.7586 44.3808 92.7586C44.3708 92.6786 44.3308 92.6286 44.2408 92.6286C44.2408 92.5886 44.2208 92.5586 44.1708 92.5586C44.1708 92.5286 44.1508 92.4986 44.1408 92.4686C44.1308 92.4986 44.1208 92.5286 44.1108 92.5586C43.8108 92.3786 43.7608 92.0386 43.6008 91.7686C45.2908 92.6986 46.7208 93.9186 47.9708 95.3986C48.0508 95.1686 48.0508 95.1686 48.0208 95.0086C47.7108 93.3786 47.3608 91.7586 46.8808 90.1686C46.3608 88.4386 45.7208 86.7586 44.7708 85.2186C43.7408 83.5386 42.4108 82.1486 40.6808 81.1686C39.6308 80.5686 38.6008 79.9386 37.5908 79.2486C36.0208 78.1786 34.6008 76.9686 33.4808 75.4186C33.4508 75.3786 33.4308 75.3386 33.3708 75.3686C33.3708 75.5386 33.3508 75.7086 33.3708 75.8786C33.4308 76.3786 33.4708 76.8886 33.5508 77.3886C33.7508 78.8086 34.0608 80.1986 34.5108 81.5586C34.5808 81.7686 34.6808 81.8986 34.9008 81.9886C35.7708 82.3386 36.6008 82.7586 37.4008 83.2586C39.6108 84.6386 41.4508 86.3886 42.7808 88.6486C43.1408 89.2486 43.4508 89.8786 43.6708 90.5786C43.5708 90.4986 43.5408 90.4086 43.5108 90.3286C43.3108 89.8886 43.0708 89.4586 42.8108 89.0586C40.9508 86.1686 38.3408 84.1886 35.2208 82.8286C35.1608 82.7986 35.0908 82.7686 35.0008 82.8486C35.3508 83.7886 35.8108 84.6886 36.3508 85.5486C36.8908 86.3986 37.4908 87.1986 38.2008 87.9186C38.9208 88.6486 39.6908 89.2986 40.5608 89.8386C41.4108 90.3786 42.3308 90.7986 43.2908 91.1786C43.1708 91.2986 43.0808 91.2486 43.0008 91.2186C42.8408 91.1686 42.6708 91.0986 42.5108 91.0386C40.3608 90.2486 38.5408 88.9986 37.0408 87.2686C35.8408 85.8886 34.9208 84.3386 34.2208 82.6486C34.1408 82.4586 34.0308 82.3586 33.8408 82.2986C33.2808 82.1186 32.7208 81.9386 32.1508 81.7886C31.1508 81.5186 30.1508 81.2586 29.1008 81.1786C28.4808 81.1286 27.8608 81.0586 27.2408 80.9986C27.1708 80.9986 27.0908 80.9686 26.9908 81.0386C27.3808 81.2986 27.7408 81.5586 28.1208 81.8086C29.5008 82.7286 30.6508 83.8586 31.4508 85.3186C31.7808 85.9286 32.1208 86.5286 32.4408 87.1386C33.2608 88.6986 34.2208 90.1586 35.3908 91.4786C36.6508 92.8986 38.1308 94.0186 39.9008 94.7186C42.0208 95.5586 44.2008 96.1586 46.4508 96.5386C46.8608 96.6086 47.2308 96.4686 47.7008 96.4186C47.3808 96.1586 47.1308 95.9586 46.8808 95.7586C45.9008 94.9886 45.0308 94.1286 44.3508 93.0786C44.2908 92.9886 44.1808 92.9086 44.2308 92.7786C44.2708 92.7786 44.3208 92.7786 44.3608 92.7886C44.3608 92.8286 44.3808 92.8586 44.4108 92.8786C44.4308 92.9086 44.4508 92.9486 44.4808 92.9186C44.5108 92.8886 44.4808 92.8586 44.4508 92.8486V92.8186ZM52.9608 92.4086C52.9608 92.4086 53.0308 92.4086 52.9808 92.3686C52.9808 92.3886 52.9708 92.3986 52.9608 92.4186C52.9208 92.3986 52.8808 92.4186 52.8608 92.4486C52.6108 92.5286 52.4208 92.6986 52.2208 92.8486C50.9608 93.7886 49.9308 94.9486 48.9808 96.1886C48.9608 96.2086 48.9408 96.2486 49.0108 96.2886C49.2708 96.1786 49.5108 95.9886 49.7408 95.8086C50.5408 95.1686 51.2508 94.4186 51.9308 93.6486C52.2708 93.2686 52.6308 92.9186 52.9108 92.4886C52.9508 92.4686 52.9708 92.4486 52.9708 92.4086H52.9608ZM49.3308 97.5686C49.3308 97.5686 49.2908 97.4786 49.2408 97.5186C49.2008 97.5486 49.2408 97.5986 49.2708 97.6286C49.4708 98.1486 49.7508 98.6286 50.0808 99.0686C50.5908 99.7386 51.2508 100.239 51.9408 100.719C52.1508 100.869 52.3908 100.989 52.5708 101.179C52.1708 101.039 51.8108 100.809 51.4508 100.589C50.8408 100.199 50.2908 99.7486 49.8608 99.1586C49.5208 98.6986 49.3108 98.1786 49.1008 97.6486C49.0608 97.5386 49.0408 97.4086 48.9308 97.3486C48.8608 97.3886 48.8708 97.4386 48.8708 97.4786C48.7808 98.4286 48.8608 99.3686 48.8808 100.319C48.8808 100.379 48.8908 100.429 48.9108 100.489C49.3208 102.269 49.8608 104.009 50.5708 105.689C51.0908 106.899 51.7808 107.989 52.7308 108.919C53.5408 109.719 54.4408 110.399 55.3708 111.039C56.5108 111.809 57.6908 112.509 58.8608 113.229C60.0608 113.979 61.1808 114.829 62.0608 115.949C62.4308 116.419 62.7908 116.899 63.1708 117.369C63.2208 117.429 63.2508 117.539 63.4108 117.509C63.3008 116.639 63.2008 115.769 63.0608 114.909C62.9208 113.969 62.6208 113.069 62.3408 112.169C61.6908 110.039 60.7308 108.069 59.3508 106.319C58.0208 104.629 56.4408 103.239 54.4708 102.319C54.3708 102.269 54.2408 102.259 54.1608 102.139C54.9708 102.379 55.7008 102.739 56.4008 103.169C58.2208 104.269 59.6608 105.759 60.8608 107.509C61.4108 108.309 61.8808 109.159 62.2708 110.049C62.3608 110.249 62.4808 110.359 62.6908 110.409C62.9808 110.479 63.2708 110.569 63.5608 110.639C65.1408 111.029 66.7508 111.249 68.3508 111.539C68.7108 111.599 69.0708 111.629 69.4608 111.679C69.4208 111.559 69.3508 111.519 69.2908 111.469C69.0508 111.269 68.8108 111.069 68.5808 110.859C67.2008 109.649 65.9808 108.309 65.0408 106.719C64.4608 105.749 63.9008 104.769 63.2608 103.829C62.5908 102.839 61.8508 101.919 60.9408 101.139C59.8208 100.189 58.5608 99.4786 57.2108 98.9186C56.0508 98.4386 54.8608 98.0686 53.6408 97.8586C52.6308 97.6786 51.6208 97.4986 50.5908 97.4286C50.2808 97.4086 49.9708 97.3086 49.5908 97.3686C50.4008 97.9986 51.1408 98.6286 51.7908 99.3686C52.4308 100.109 53.0308 100.859 53.4808 101.779C53.3508 101.769 53.3208 101.699 53.2708 101.649C52.2908 100.499 51.2508 99.3986 50.1608 98.3486C49.9008 98.0886 49.6508 97.8086 49.3508 97.5986L49.3308 97.5686ZM69.9508 81.2686C69.3308 81.2286 68.7308 81.2786 68.1408 81.3586C66.5208 81.5586 64.9508 81.9686 63.4508 82.6386C63.2508 82.7286 63.1208 82.8386 63.0208 83.0486C62.0708 85.2086 60.7808 87.1286 59.0008 88.6986C57.4408 90.0686 55.6508 91.0186 53.6608 91.5886C53.6208 91.5986 53.5708 91.6186 53.5308 91.6286C53.4908 91.6386 53.4708 91.6086 53.4508 91.5786C53.4308 91.5386 53.4508 91.4986 53.4808 91.4886C53.5708 91.4386 53.6708 91.3986 53.7708 91.3686C55.4708 90.7586 57.0108 89.8686 58.3608 88.6586C59.9408 87.2386 61.1108 85.5286 61.9708 83.5986C62.9308 81.4486 63.4908 79.1986 63.7208 76.8686C63.7408 76.6986 63.8108 76.5186 63.7408 76.3086C63.6208 76.4386 63.5208 76.5486 63.4308 76.6686C62.6508 77.5986 61.7508 78.4086 60.7708 79.1286C59.6208 79.9686 58.4008 80.6886 57.1608 81.3886C56.4508 81.7886 55.7108 82.1486 55.0408 82.6186C53.2308 83.8886 51.9408 85.5986 50.9708 87.5686C50.3808 88.7686 49.9008 90.0186 49.5408 91.3086C49.2108 92.4686 48.7708 93.6086 48.7708 94.8386C48.7708 95.0486 48.7608 95.2486 48.7508 95.4586C48.7508 95.6586 48.7508 95.8586 48.7508 96.0786C48.9108 96.0086 48.9608 95.8986 49.0308 95.8086C49.8008 94.8286 50.6208 93.8886 51.5808 93.0886C52.2008 92.5686 52.8508 92.0886 53.6108 91.7886C53.6808 91.7586 53.7408 91.6886 53.8508 91.7786C52.3908 93.4386 51.0308 95.1986 49.1208 96.4986C49.7708 96.5986 50.3508 96.5686 50.9208 96.6286C50.9908 96.6286 51.0608 96.6086 51.1208 96.5986C53.9008 95.9486 56.5608 95.0086 59.0708 93.6386C60.6508 92.7786 61.9808 91.6486 62.9008 90.0786C63.3308 89.3486 63.6908 88.5886 64.0508 87.8286C64.5708 86.7186 65.1708 85.6586 65.9108 84.6786C66.9708 83.2786 68.2308 82.1186 69.8508 81.3786C69.8908 81.3586 69.9408 81.3486 69.9508 81.2686ZM42.4508 103.099C42.5108 103.209 42.4508 103.279 42.4208 103.349C42.1308 104.039 41.7908 104.709 41.4208 105.359C40.6508 106.699 39.7208 107.909 38.5108 108.899C37.6208 109.629 36.6408 110.209 35.5008 110.469C35.2808 110.519 35.2308 110.659 35.1708 110.819C34.4208 112.899 33.8708 115.019 33.6308 117.229C33.6208 117.359 33.5808 117.489 33.6508 117.669C33.8508 117.399 34.0308 117.179 34.2008 116.949C35.1408 115.639 36.2808 114.549 37.6608 113.699C38.3908 113.249 39.1008 112.789 39.8308 112.339C41.2208 111.489 42.5508 110.559 43.6908 109.379C44.5908 108.449 45.3208 107.409 45.8408 106.229C47.0108 103.559 47.7108 100.759 48.2008 97.8986C48.2308 97.7186 48.1808 97.5686 48.0908 97.3786C47.5008 98.0986 46.9708 98.8286 46.3808 99.5086C45.7908 100.199 45.1408 100.819 44.3808 101.389C44.3908 101.319 44.3808 101.289 44.4008 101.279C44.5508 101.139 44.7108 101.009 44.8708 100.869C45.8708 99.9686 46.7008 98.9186 47.5008 97.8486C47.6408 97.6586 47.7908 97.4586 47.9308 97.2686C47.9708 97.2186 47.9808 97.1686 47.9308 97.1186C47.8908 97.0786 47.8408 97.0886 47.8008 97.1186C47.6708 97.1886 47.5408 97.2586 47.4108 97.3486C47.1108 97.5586 46.8408 97.8186 46.5808 98.0786C45.9408 98.7086 45.3408 99.3786 44.7508 100.059C44.6908 100.129 44.6508 100.229 44.4708 100.219C45.4408 99.0486 46.3708 97.9086 47.5708 96.9786C47.3808 96.9386 47.2508 96.9586 47.1208 96.9786C45.7608 97.2186 44.4008 97.4486 43.0408 97.7186C41.8308 97.9586 40.6508 98.3386 39.5208 98.8386C37.5408 99.7186 35.8508 100.959 34.5608 102.719C33.8208 103.729 33.1908 104.799 32.5808 105.889C31.8308 107.249 30.9808 108.539 29.9108 109.669C29.3208 110.289 28.7008 110.879 28.0608 111.439C27.9708 111.519 27.8508 111.569 27.8208 111.719C28.2008 111.739 28.5508 111.659 28.9008 111.619C29.4608 111.549 30.0108 111.399 30.5708 111.319C31.8408 111.129 33.0908 110.869 34.3208 110.509C34.5308 110.449 34.6508 110.359 34.7408 110.149C35.4508 108.479 36.4108 106.959 37.6008 105.599C38.7608 104.289 40.1008 103.209 41.6908 102.459C41.9808 102.319 42.2808 102.189 42.6008 102.129C38.8708 103.739 36.2708 107.929 35.6608 109.779C35.7708 109.819 35.8608 109.779 35.9608 109.739C36.3208 109.639 36.6608 109.499 36.9908 109.329C39.0208 108.299 40.4208 106.649 41.5808 104.739C41.8908 104.229 42.1708 103.699 42.4408 103.149L42.4508 103.099ZM44.5308 92.9686C44.7508 93.5786 47.3608 96.1086 48.0208 96.3186C47.7908 95.9986 47.6208 95.7086 47.3508 95.4786C46.4508 94.7186 45.5808 93.9386 44.7508 93.1086C44.6908 93.0486 44.6408 92.9586 44.5308 92.9686Z" fill="#B99D5B"/>
<path d="M100.119 114.73C100.809 115.05 101.479 115.27 102.199 115.35C102.899 115.43 103.559 115.31 104.169 114.96C104.809 114.59 105.249 114.07 105.379 113.32C105.399 113.19 105.409 113.07 105.379 112.94C105.359 112.81 105.349 112.69 105.349 112.56C105.349 112.33 105.419 112.27 105.599 112.27C105.779 112.27 105.849 112.32 105.869 112.55C105.909 112.96 105.839 113.36 105.699 113.74C105.429 114.44 104.939 114.97 104.339 115.41C103.559 115.97 102.669 116.23 101.729 116.36C100.849 116.49 99.9785 116.47 99.1085 116.3C98.8985 116.26 98.7485 116.3 98.5885 116.47C97.8485 117.26 96.9885 117.91 96.0585 118.44C95.2085 118.92 94.2885 119.17 93.3185 119.2C92.6385 119.22 91.9885 119.05 91.3985 118.71C91.2285 118.61 91.0685 118.49 90.9385 118.34C90.5785 117.92 90.5585 117.48 90.8585 117.04C91.1785 116.57 91.7985 116.5 92.1885 116.66C92.3985 116.75 92.5085 116.91 92.5785 117.12C92.6285 117.28 92.6385 117.44 92.6385 117.6C92.6385 118.61 93.8285 119.12 94.5385 118.68C95.3685 118.17 96.1085 117.59 96.7085 116.82C96.9085 116.56 97.1085 116.31 97.2985 116.05C97.4185 115.88 97.4185 115.87 97.2185 115.78C96.1085 115.32 95.1085 114.68 94.1585 113.97C93.3885 113.39 92.6785 112.72 91.9585 112.07C90.7085 110.92 89.4685 109.76 88.2185 108.62C86.8685 107.38 85.4485 106.21 84.0185 105.07C83.7585 104.86 83.7585 104.87 83.4785 105.04C82.5285 105.63 81.5985 106.26 80.6185 106.8C79.0385 107.68 77.3885 108.38 75.5885 108.7C74.2885 108.94 72.9985 108.95 71.7285 108.53C71.0485 108.3 70.4485 107.95 69.9785 107.39C69.2685 106.54 69.1385 105.57 69.4185 104.53C69.6785 103.53 70.2685 102.75 71.0385 102.09C72.2385 101.07 73.6485 100.54 75.1985 100.36C77.4385 100.1 79.5585 100.51 81.6085 101.42C82.5685 101.85 83.5185 102.3 84.4085 102.85C84.6585 103 84.6685 103 84.8985 102.76C85.9285 101.7 86.8285 100.53 87.6485 99.29C88.7785 97.58 89.7285 95.78 90.5885 93.92C90.6385 93.82 90.7085 93.72 90.6985 93.56C90.4385 93.52 90.1885 93.56 89.9285 93.57C88.8785 93.66 87.8285 93.6 86.7785 93.51C85.6985 93.42 84.6285 93.24 83.5885 92.93C82.2585 92.53 81.0185 91.97 79.9585 91.04C78.9585 90.16 78.3785 89.05 78.3385 87.72C78.3085 86.94 78.5085 86.19 78.8285 85.47C79.3585 84.26 80.2485 83.35 81.3185 82.61C82.5885 81.73 83.9885 81.22 85.5185 81.01C87.3785 80.75 89.1585 81.04 90.8285 81.87C91.8185 82.35 92.5985 83.12 93.3285 83.93C93.4385 84.05 93.5185 84.19 93.5785 84.34C93.6285 84.46 93.6385 84.57 93.5385 84.66C93.4185 84.76 93.3185 84.67 93.2385 84.6C92.9085 84.29 92.5585 84.01 92.2585 83.67C91.6385 82.97 90.8385 82.62 89.9585 82.42C88.8985 82.18 87.8185 82.06 86.7285 82.14C84.8085 82.27 83.0085 82.8 81.3585 83.8C80.2585 84.46 79.4885 85.39 79.1285 86.65C78.7285 88.09 79.0585 89.34 80.0485 90.43C80.9985 91.47 82.1985 92.08 83.5385 92.45C84.7285 92.78 85.9585 92.93 87.1885 93.03C88.3985 93.13 89.6085 93.04 90.8185 93.03C91.0585 93.03 91.1585 92.94 91.2585 92.74C91.9085 91.37 92.6085 90.04 93.3985 88.74C94.6185 86.72 95.9985 84.82 97.7185 83.18C98.8785 82.07 100.199 81.18 101.569 80.37C102.629 79.75 103.719 79.2 104.909 78.87C105.739 78.64 106.579 78.55 107.439 78.66C108.659 78.82 109.049 79.67 108.829 80.76C108.669 81.51 108.299 82.16 107.899 82.79C107.389 83.59 106.799 84.33 106.179 85.04C105.029 86.34 103.829 87.59 102.459 88.66C100.779 89.97 98.9485 91.04 96.9885 91.9C96.0985 92.29 95.1985 92.64 94.2685 92.93C93.9785 93.02 93.7785 93.18 93.6185 93.44C92.7085 94.9 91.7285 96.32 90.6985 97.69C89.4385 99.36 88.0385 100.91 86.5785 102.4C86.3185 102.66 86.0685 102.93 85.8085 103.2C85.5385 103.49 85.4985 103.45 85.8385 103.69C86.9585 104.5 88.0685 105.33 89.1385 106.22C90.3185 107.2 91.4785 108.2 92.6585 109.19C94.3985 110.65 96.1185 112.15 97.9985 113.43C98.1485 113.53 98.3085 113.64 98.4585 113.74C98.7385 113.92 98.7485 113.93 98.9185 113.62C99.2385 113.08 99.5585 112.55 99.8585 112.01C101.799 108.59 103.699 105.14 105.489 101.64C106.189 100.26 106.869 98.87 107.429 97.43C107.609 96.96 107.759 96.47 107.869 95.98C107.999 95.39 107.489 94.89 106.889 95.09C106.489 95.22 106.169 95.47 105.889 95.76C105.029 96.63 104.229 97.55 103.629 98.64C103.499 98.88 103.359 99.12 103.169 99.33C103.039 99.47 102.869 99.68 102.679 99.55C102.489 99.42 102.669 99.21 102.749 99.06C103.219 98.21 103.819 97.45 104.419 96.68C104.809 96.18 105.249 95.72 105.769 95.34C106.129 95.07 106.529 94.87 106.959 94.71C107.609 94.46 108.289 94.81 108.589 95.29C108.839 95.69 108.969 96.13 109.019 96.59C109.089 97.21 108.969 97.81 108.839 98.4C108.509 99.99 107.919 101.49 107.249 102.96C105.969 105.76 104.399 108.4 102.749 110.99C101.939 112.26 101.079 113.48 100.119 114.71V114.73ZM94.3385 92.44C94.4085 92.49 94.4685 92.45 94.5385 92.44C96.2685 91.89 97.9285 91.18 99.4785 90.22C100.869 89.36 102.149 88.36 103.349 87.26C104.769 85.95 106.099 84.56 107.199 82.96C107.639 82.32 108.039 81.66 108.269 80.91C108.349 80.64 108.409 80.37 108.389 80.09C108.339 79.52 108.029 79.14 107.499 79.05C107.159 78.99 106.809 78.98 106.469 79.06C105.739 79.24 105.039 79.51 104.379 79.88C103.409 80.43 102.559 81.14 101.749 81.9C100.279 83.29 99.0185 84.87 97.8785 86.55C96.6385 88.36 95.5385 90.26 94.4485 92.16C94.3985 92.25 94.3185 92.33 94.3385 92.44ZM83.0985 104.5C83.0485 104.37 82.9285 104.33 82.8385 104.27C81.7485 103.53 80.5985 102.89 79.3985 102.36C77.6785 101.6 75.8785 101.28 73.9985 101.54C72.9785 101.68 72.0385 102.04 71.2185 102.69C70.5685 103.2 70.0785 103.83 69.8485 104.64C69.4985 105.88 69.9285 107.09 70.9685 107.77C71.7085 108.25 72.5385 108.5 73.4085 108.55C74.9885 108.63 76.5085 108.34 77.9685 107.73C79.5585 107.07 80.9985 106.16 82.3585 105.12C82.6185 104.93 82.8785 104.74 83.1085 104.51L83.0985 104.5Z" fill="#B99D5B"/>
<path d="M145.291 102.08C144.821 102.75 144.361 103.43 143.891 104.1C143.071 105.26 142.191 106.38 141.211 107.4C140.821 107.81 140.401 108.19 139.941 108.53C139.641 108.75 139.321 108.93 138.971 109.05C138.411 109.24 137.931 109.11 137.521 108.68C137.131 108.27 136.971 107.76 136.861 107.22C136.701 106.37 136.821 105.54 136.971 104.71C137.411 102.34 138.481 100.29 140.151 98.5599C141.141 97.5399 142.201 96.5999 143.431 95.8699C144.181 95.4299 144.971 95.0799 145.841 94.9299C146.141 94.8799 146.441 94.8699 146.741 94.9099C147.391 94.9999 147.761 95.4099 147.821 96.0699C147.851 96.3899 147.761 96.6899 147.711 96.9899C147.701 97.0899 147.651 97.1899 147.691 97.2899C147.821 97.2599 147.831 97.1399 147.871 97.0599C148.811 95.2299 149.771 93.4199 150.781 91.6299C151.791 89.8399 152.771 88.0399 153.881 86.3099C154.671 85.0799 155.561 83.9299 156.581 82.8899C158.441 80.9999 160.621 79.6499 163.191 78.9599C164.441 78.6199 165.711 78.5299 167.001 78.7099C167.381 78.7599 167.751 78.8599 168.071 79.0799C168.561 79.4099 168.631 79.8099 168.271 80.2799C168.081 80.5299 167.841 80.7199 167.551 80.8599C167.241 81.0099 166.951 80.9699 166.671 80.7899C166.421 80.6299 166.241 80.3999 166.121 80.1399C165.911 79.6899 165.541 79.4699 165.101 79.3299C164.581 79.1699 164.061 79.1799 163.531 79.2899C162.531 79.4999 161.681 79.9999 160.901 80.6299C159.901 81.4299 159.071 82.3799 158.291 83.3899C156.881 85.2199 155.671 87.1899 154.551 89.2099C153.241 91.5799 151.961 93.9799 150.661 96.3499C149.471 98.5199 148.251 100.69 147.051 102.86C146.461 103.93 145.881 105.01 145.451 106.16C145.241 106.73 145.091 107.3 145.121 107.91C145.131 108.11 145.181 108.29 145.301 108.46C145.461 108.69 145.691 108.77 145.961 108.74C146.241 108.71 146.491 108.6 146.711 108.41C147.581 107.66 148.281 106.76 148.901 105.79C149.121 105.44 149.311 105.07 149.511 104.71C149.651 104.46 149.811 104.22 150.011 104.01C150.081 103.94 150.171 103.86 150.281 103.95C150.371 104.02 150.401 104.12 150.351 104.23C150.271 104.4 150.201 104.57 150.101 104.72C149.491 105.72 148.851 106.71 148.071 107.6C147.601 108.14 147.061 108.57 146.411 108.88C145.631 109.25 144.911 108.79 144.671 108.24C144.381 107.58 144.341 106.88 144.381 106.17C144.451 104.96 144.831 103.82 145.201 102.68C145.261 102.5 145.331 102.34 145.351 102.15C145.381 102.11 145.421 102.05 145.361 102.02C145.331 102 145.301 102.06 145.291 102.1V102.08ZM137.771 107.99C137.771 107.99 137.771 108.08 137.771 108.13C137.841 108.79 138.301 109.05 138.901 108.78C139.191 108.65 139.451 108.49 139.701 108.31C140.461 107.75 141.101 107.07 141.701 106.35C143.311 104.42 144.731 102.37 145.961 100.18C146.561 99.0999 147.091 97.9899 147.371 96.7699C147.441 96.4799 147.481 96.1899 147.411 95.8799C147.281 95.3499 146.891 95.1199 146.371 95.2899C145.881 95.4499 145.451 95.7199 145.051 96.0299C144.071 96.7799 143.291 97.7199 142.561 98.6999C141.441 100.2 140.481 101.8 139.571 103.44C138.931 104.59 138.341 105.77 137.971 107.03C137.881 107.34 137.801 107.65 137.791 107.98L137.771 107.99Z" fill="#B99D5B"/>
<path d="M120.649 109.129C120.999 108.569 121.319 108.059 121.639 107.539C123.289 104.869 124.919 102.189 126.359 99.3987C126.789 98.5687 127.189 97.7287 127.479 96.8287C127.559 96.5787 127.629 96.3187 127.659 96.0587C127.709 95.3887 127.259 95.0387 126.619 95.2487C126.259 95.3687 125.959 95.5887 125.709 95.8587C124.979 96.6487 124.319 97.4887 123.829 98.4587C123.719 98.6887 123.569 98.8987 123.379 99.0687C123.299 99.1387 123.219 99.2087 123.119 99.2387C122.979 99.2787 122.899 99.2087 122.919 99.0587C122.929 98.9787 122.959 98.8987 122.999 98.8287C123.739 97.5587 124.549 96.3387 125.729 95.4187C126.059 95.1587 126.429 94.9787 126.839 94.8687C127.349 94.7387 127.919 94.9887 128.159 95.4587C128.329 95.7787 128.409 96.1287 128.429 96.4887C128.469 97.3287 128.329 98.1487 128.109 98.9487C127.849 99.8887 127.519 100.789 127.159 101.699C127.109 101.829 127.039 101.939 127.029 102.109C127.179 102.089 127.219 101.969 127.279 101.889C128.339 100.369 129.439 98.8987 130.599 97.4487C131.179 96.7287 131.799 96.0487 132.539 95.4787C132.859 95.2287 133.199 95.0187 133.589 94.8887C134.109 94.7087 134.569 94.8587 134.899 95.3087C135.199 95.7287 135.319 96.1987 135.359 96.7087C135.439 97.8787 135.139 98.9687 134.619 100.009C134.029 101.199 133.329 102.329 132.589 103.429C132.049 104.239 131.519 105.049 131.039 105.889C130.719 106.469 130.479 107.079 130.489 107.759C130.489 107.919 130.519 108.079 130.569 108.229C130.699 108.569 130.969 108.759 131.339 108.759C131.739 108.759 132.079 108.599 132.379 108.349C132.839 107.959 133.229 107.499 133.609 107.039C133.979 106.579 134.309 106.099 134.509 105.529C134.589 105.319 134.709 105.139 134.889 105.009C134.979 104.949 135.079 104.909 135.179 104.979C135.289 105.049 135.269 105.159 135.219 105.259C135.159 105.389 135.109 105.519 135.039 105.629C134.489 106.509 133.879 107.349 133.129 108.079C132.739 108.449 132.309 108.749 131.799 108.939C131.229 109.139 130.659 108.989 130.269 108.519C129.929 108.109 129.769 107.609 129.659 107.099C129.349 105.709 129.609 104.389 130.219 103.139C130.829 101.879 131.579 100.709 132.379 99.5587C132.879 98.8387 133.369 98.1187 133.859 97.3887C134.089 97.0387 134.269 96.6687 134.379 96.2687C134.429 96.0787 134.449 95.8787 134.429 95.6887C134.389 95.2587 134.079 95.0587 133.669 95.2087C133.339 95.3287 133.049 95.5187 132.779 95.7387C132.059 96.3087 131.449 96.9787 130.869 97.6887C129.099 99.8687 127.559 102.219 126.069 104.589C125.179 105.999 124.349 107.439 123.559 108.899C123.539 108.939 123.519 108.979 123.489 109.019C123.389 109.149 123.279 109.139 123.189 109.019C122.809 108.489 122.549 108.399 121.929 108.569C121.599 108.659 121.329 108.859 121.039 109.019C120.929 109.079 120.839 109.169 120.629 109.149L120.649 109.129ZM126.999 102.179C126.999 102.179 126.979 102.199 126.979 102.209C126.979 102.209 126.989 102.229 126.999 102.239C126.999 102.239 127.019 102.219 127.019 102.209C127.019 102.209 127.009 102.189 126.999 102.179Z" fill="#B99D5B"/>
<path d="M109.48 105.459C109.56 102.389 110.46 99.6587 112.8 97.5387C113.98 96.4687 115.26 95.5587 116.75 94.9587C117.47 94.6687 118.22 94.4787 119 94.4887C120.18 94.5087 121.06 95.0987 121.48 96.1987C121.82 97.0987 121.92 98.0287 121.85 98.9887C121.77 100.029 121.59 101.049 121.26 102.039C120.61 104.009 119.44 105.589 117.8 106.849C116.77 107.639 115.7 108.349 114.47 108.799C113.85 109.029 113.21 109.179 112.55 109.219C111.39 109.289 110.5 108.809 109.99 107.749C109.64 107.029 109.52 106.259 109.48 105.459ZM119.11 94.8187C118.98 94.8187 118.86 94.8387 118.74 94.8687C117.81 95.1187 117.04 95.6287 116.35 96.2787C115.48 97.0887 114.79 98.0387 114.19 99.0587C113.33 100.499 112.62 102.009 111.93 103.539C111.51 104.489 111.12 105.449 110.87 106.459C110.76 106.889 110.65 107.329 110.75 107.789C110.94 108.589 111.83 109.129 112.62 108.919C113.44 108.699 114.14 108.259 114.77 107.699C115.75 106.829 116.51 105.789 117.17 104.669C118.16 102.959 119.02 101.189 119.77 99.3587C120.14 98.4787 120.47 97.5787 120.63 96.6287C120.79 95.6587 120.12 94.8387 119.12 94.8287L119.11 94.8187Z" fill="#B99D5B"/>
<path d="M101.612 97.2189C101.592 98.0889 101.242 99.0689 100.692 99.9889C99.9817 101.179 99.1417 102.279 98.2817 103.369C97.7417 104.059 97.2317 104.769 96.7617 105.509C96.3717 106.119 96.1117 106.779 96.0117 107.499C95.9717 107.829 95.9917 108.139 96.1717 108.439C96.3917 108.799 96.6817 108.919 97.0817 108.789C97.5117 108.649 97.8917 108.399 98.2317 108.099C98.7017 107.689 99.0917 107.199 99.4617 106.699C99.8617 106.139 100.272 105.579 100.712 105.039C100.782 104.959 100.842 104.879 100.912 104.809C100.972 104.749 101.042 104.649 101.142 104.719C101.232 104.779 101.202 104.889 101.182 104.979C101.172 105.049 101.142 105.109 101.102 105.169C100.322 106.429 99.4517 107.619 98.2617 108.529C97.9817 108.749 97.6617 108.919 97.3217 109.029C96.6217 109.269 95.9517 109.059 95.5517 108.419C95.0917 107.679 94.9217 106.869 94.9917 105.999C95.1017 104.649 95.6717 103.479 96.3617 102.339C97.0717 101.159 97.9417 100.099 98.7517 98.9889C99.1317 98.4689 99.5217 97.9489 99.8617 97.3989C100.122 96.9789 100.352 96.5389 100.462 96.0489C100.532 95.7389 100.542 95.4389 100.282 95.2189C100.012 94.9889 99.7017 95.0389 99.4017 95.1889C98.9417 95.4189 98.5617 95.7689 98.2117 96.1189C97.5417 96.7889 96.9317 97.5089 96.4417 98.3289C96.2917 98.5789 96.1417 98.8289 95.9217 99.0189C95.8117 99.1089 95.6917 99.2689 95.5317 99.1389C95.3917 99.0289 95.5017 98.8789 95.5717 98.7589C95.8117 98.3189 96.1117 97.9289 96.4217 97.5389C96.9417 96.8789 97.4617 96.2189 98.1117 95.6689C98.5717 95.2789 99.0717 94.9489 99.6517 94.7689C100.302 94.5689 100.902 94.8189 101.232 95.4289C101.472 95.8789 101.612 96.4389 101.612 97.2389V97.2189Z" fill="#B99D5B"/>
<path d="M73.5594 96.5198C71.4194 98.4098 68.1994 99.4298 65.8894 98.6598C68.5494 98.8098 70.8994 97.8598 73.1894 96.6898C73.1894 96.6598 73.1894 96.6398 73.1794 96.6098C73.0194 96.6098 72.8694 96.6098 72.7094 96.6298C71.0394 96.8298 69.4494 96.5298 67.8994 95.9098C67.0494 95.5698 66.1794 95.3098 65.2694 95.2098C64.4294 95.1198 63.5894 95.1098 62.7494 95.1898C61.3194 95.3198 59.9294 95.6698 58.5994 96.2198C58.2894 96.3498 57.9894 96.4998 57.6894 96.6398C57.6394 96.6598 57.5994 96.6998 57.5694 96.7298C57.6094 96.8098 57.6594 96.7998 57.6994 96.7998C58.7294 96.7098 59.7194 96.8998 60.6994 97.1898C61.8894 97.5398 63.0194 98.0198 64.1294 98.5698C64.1794 98.5898 64.2294 98.6298 64.2694 98.6698C63.9694 98.6498 63.6794 98.5698 63.3894 98.4798C62.2894 98.1498 61.1894 97.7998 60.0794 97.4698C59.1394 97.1898 58.1894 96.9598 57.1894 96.9698C57.1694 96.9698 57.1594 96.9498 57.1094 96.9298C57.2694 96.7398 57.4494 96.5898 57.6394 96.4398C58.8294 95.5198 60.1794 94.9398 61.6294 94.5898C63.1394 94.2298 64.6594 94.1698 66.1894 94.4898C66.9094 94.6398 67.5694 94.9298 68.2394 95.2098C68.6494 95.3798 69.0694 95.5698 69.4794 95.7398C70.3394 96.0998 71.2494 96.2398 72.1694 96.3598C72.6094 96.4198 73.0594 96.4698 73.5594 96.5198Z" fill="#B99D5B"/>
<path d="M48.0785 75.2495C48.5085 74.3095 48.8185 73.3395 49.0585 72.3395C49.2985 71.3495 49.2185 70.3295 49.2585 69.2695C49.8885 70.0595 50.3785 70.8495 50.7885 71.6895C51.3385 72.8095 51.7085 73.9695 51.8785 75.2095C52.0985 76.8795 51.8585 78.4695 51.0985 79.9795C50.7185 80.7395 50.3085 81.4895 49.9285 82.2595C49.5185 83.0895 49.1985 83.9595 49.0585 84.8795C48.9585 85.5395 48.9885 86.1895 49.1085 86.8395C49.1485 87.0295 49.1685 87.2195 49.2185 87.4895C47.4285 85.3095 46.5585 82.9095 46.6885 80.1595C46.7985 82.1195 47.3285 83.9395 48.4585 85.5895C48.4685 85.4095 48.4885 85.2395 48.4985 85.0595C48.5785 84.0295 48.8985 83.0695 49.2985 82.1395C49.6385 81.3695 50.0185 80.6195 50.4085 79.8695C51.3385 78.1095 51.4785 76.2695 51.0585 74.3595C50.8585 73.4695 50.5485 72.6095 50.1485 71.7895C50.0285 71.5495 49.8385 71.4695 49.5985 71.5695C49.5185 71.5995 49.5085 71.6695 49.4985 71.7295C49.2485 72.9695 48.7585 74.1295 48.1785 75.2495C48.1385 75.2495 48.0985 75.2495 48.0685 75.2495H48.0785Z" fill="#B99D5B"/>
<path d="M49.6484 122.73C49.0084 122.15 48.3984 121.55 47.8984 120.83C46.8784 119.37 46.2984 117.75 46.0984 115.99C45.8784 113.99 46.1384 112.06 46.9384 110.2C47.0284 109.99 47.1184 109.77 47.2384 109.58C47.6184 108.99 47.6884 108.33 47.7684 107.67C47.8684 106.85 47.8484 106.04 47.7684 105.22C47.7584 105.08 47.7684 104.93 47.7684 104.79C47.8484 104.77 47.8684 104.82 47.8984 104.85C48.7584 105.94 49.5684 107.06 50.1384 108.33C50.4584 109.05 50.7184 109.79 50.8184 110.57C50.8384 110.74 50.8684 110.92 50.8384 111.12C50.5184 109.22 49.5684 107.65 48.3884 106.18C48.2684 106.27 48.3184 106.38 48.3184 106.48C48.3484 107.35 48.3184 108.21 48.0984 109.06C48.0684 109.19 48.0284 109.33 47.9584 109.45C47.1984 110.85 46.7884 112.35 46.6784 113.94C46.5484 115.94 46.9184 117.84 47.8384 119.63C47.9684 119.89 48.1384 120.12 48.2784 120.38C48.3584 120.53 48.4684 120.56 48.6184 120.52C48.7684 120.48 48.7184 120.36 48.7184 120.26C48.7384 119.54 48.8884 118.84 49.0984 118.16C49.3084 117.46 49.5584 116.76 49.9084 116.1C49.8284 116.39 49.7484 116.68 49.6584 116.97C49.3784 117.89 49.1484 118.81 49.0884 119.78C49.0484 120.4 49.0884 121 49.3084 121.58C49.4484 121.94 49.5584 122.32 49.6884 122.69C49.6684 122.7 49.6484 122.72 49.6284 122.73H49.6484Z" fill="#B99D5B"/>
<path d="M24.6289 95.6202C24.9089 95.2702 25.2689 95.0402 25.6489 94.8202C27.0689 94.0102 28.5889 93.5802 30.2289 93.5002C31.5489 93.4402 32.8289 93.6002 34.0489 94.1202C34.7389 94.4102 35.3889 94.8002 36.0189 95.2102C37.2089 95.9802 38.5189 96.3702 39.8889 96.6402C40.0689 96.6802 40.2489 96.7102 40.4289 96.7502C40.4689 96.7502 40.5189 96.7802 40.5689 96.8002C40.5589 96.9202 40.4489 96.9602 40.3689 97.0202C39.1089 97.9102 37.7389 98.5502 36.2089 98.8102C35.1689 98.9902 34.1389 98.9402 33.1389 98.5902C33.0489 98.5602 32.9589 98.5402 32.8489 98.4302C35.5689 98.8802 37.9689 98.0002 40.3189 96.9202C40.3189 96.9002 40.3189 96.8702 40.3189 96.8502C40.1689 96.8502 40.0089 96.8502 39.8589 96.8502C38.8089 96.8402 37.7589 96.7502 36.7689 96.3702C36.1589 96.1402 35.5889 95.8402 35.0189 95.5402C34.2889 95.1502 33.5289 94.8002 32.7189 94.6102C31.5089 94.3202 30.2789 94.2802 29.0389 94.4002C27.5289 94.5502 26.0989 94.9602 24.7289 95.6202C24.6989 95.6302 24.6689 95.6402 24.6289 95.6402V95.6202Z" fill="#B99D5B"/>
<path d="M105.818 89.1999C105.788 89.4399 105.738 89.7099 105.628 89.9599C105.378 90.5299 105.028 91.0199 104.498 91.3699C104.228 91.5499 103.938 91.6399 103.628 91.6899C103.168 91.7499 102.878 91.5399 102.758 91.0899C102.678 90.7899 102.718 90.4899 102.798 90.1999C103.028 89.4299 103.498 88.8299 104.188 88.4099C104.308 88.3399 104.438 88.2799 104.568 88.2399C105.308 87.9799 105.848 88.3699 105.818 89.1999Z" fill="#B99D5B"/>
<path d="M113.109 89.1291C113.099 90.1091 112.169 91.2791 111.199 91.4691C110.659 91.5791 110.319 91.3291 110.259 90.7891C110.219 90.3891 110.309 90.0091 110.479 89.6491C110.669 89.2591 110.909 88.9191 111.239 88.6291C111.519 88.3791 111.849 88.2191 112.229 88.1791C112.789 88.1091 113.079 88.3691 113.099 88.9291C113.099 88.9791 113.099 89.0191 113.099 89.1291H113.109Z" fill="#B99D5B"/>
<path d="M28.95 97.2991C28.02 97.0691 27.14 96.7891 26.24 96.6191C25.33 96.4491 24.43 96.3591 23.5 96.4691C24.07 96.2591 24.66 96.2191 25.26 96.2491C26.52 96.3291 27.7 96.7191 28.85 97.2091C28.88 97.2191 28.9 97.2491 28.95 97.2991Z" fill="#B99D5B"/>
<path d="M64.9492 120.389C64.9492 120.389 64.9692 120.399 64.9792 120.409C64.9792 120.409 64.9692 120.409 64.9592 120.409C64.9592 120.409 64.9592 120.389 64.9492 120.389Z" fill="#B99D5B"/>
<path d="M44.1717 92.5391C44.1717 92.5391 44.2217 92.5891 44.2417 92.6091C44.2417 92.6591 44.2417 92.6991 44.2417 92.7491C44.0917 92.7491 44.0717 92.6591 44.1017 92.5391C44.1217 92.5391 44.1517 92.5391 44.1717 92.5391Z" fill="#B99D5B"/>
<path d="M44.4888 100.26C44.4388 100.4 44.3387 100.49 44.2188 100.6C44.2587 100.46 44.3488 100.346 44.4888 100.26Z" fill="#B99D5B"/>
<path d="M44.1784 100.65C44.0984 100.78 44.0584 100.87 43.8984 100.92C43.9684 100.79 44.0084 100.7 44.1784 100.65Z" fill="#B99D5B"/>
<path d="M43.8806 100.99C43.8306 101.13 43.7706 101.2 43.6406 101.27C43.6806 101.13 43.7406 101.06 43.8806 100.99Z" fill="#B99D5B"/>
<path d="M44.1116 101.549C44.1116 101.439 44.1816 101.399 44.3016 101.369C44.2616 101.479 44.1916 101.519 44.1016 101.549H44.1116Z" fill="#B99D5B"/>
<path d="M43.9581 101.619C43.9581 101.709 43.8881 101.739 43.8281 101.759C43.8281 101.679 43.8881 101.639 43.9581 101.619Z" fill="#B99D5B"/>
<path d="M43.4102 101.55C43.4302 101.48 43.4702 101.42 43.5502 101.42C43.5302 101.48 43.4902 101.54 43.4102 101.55Z" fill="#B99D5B"/>
<path d="M43.2689 101.76C43.2389 101.82 43.1989 101.88 43.1289 101.89C43.1589 101.83 43.1989 101.78 43.2689 101.76Z" fill="#B99D5B"/>
<path d="M43.8314 101.76C43.8314 101.76 43.7414 101.82 43.6914 101.82C43.6914 101.82 43.7814 101.76 43.8314 101.76Z" fill="#B99D5B"/>
<path d="M43.9609 101.619C43.9909 101.569 44.0409 101.549 44.1009 101.549C44.0709 101.599 44.0209 101.619 43.9609 101.619Z" fill="#B99D5B"/>
<path d="M43.4099 101.549C43.4099 101.549 43.4099 101.579 43.3999 101.579C43.3799 101.579 43.3799 101.569 43.4199 101.549H43.4099Z" fill="#B99D5B"/>
<path d="M43.2695 101.76C43.2695 101.76 43.2695 101.74 43.2795 101.73C43.2795 101.73 43.2795 101.75 43.2695 101.75V101.76Z" fill="#B99D5B"/>
<path d="M43.5508 101.419C43.5508 101.419 43.5608 101.389 43.5708 101.379C43.5708 101.379 43.5708 101.389 43.5708 101.399C43.5708 101.399 43.5508 101.409 43.5508 101.419Z" fill="#B99D5B"/>
<path d="M43.1311 101.889L43.1211 101.909L43.1311 101.899V101.889Z" fill="#B99D5B"/>
<path d="M43.6802 101.82C43.6802 101.82 43.6602 101.84 43.6602 101.85C43.6602 101.85 43.6602 101.84 43.6602 101.83C43.6602 101.83 43.6802 101.83 43.6802 101.82Z" fill="#B99D5B"/>
</g>
<defs>
<clipPath id="clip0_4938_32440">
<rect width="192" height="192" fill="white"/>
</clipPath>
</defs>
</svg>
