<svg width="192" height="192" viewBox="0 0 192 192" fill="none" xmlns="http://www.w3.org/2000/svg">
<g clip-path="url(#clip0_4938_32715)">
<path d="M96 192C149.019 192 192 149.019 192 96C192 42.9807 149.019 0 96 0C42.9807 0 0 42.9807 0 96C0 149.019 42.9807 192 96 192Z" fill="url(#paint0_linear_4938_32715)"/>
<path d="M138.36 85.0004C140.86 84.9704 142.98 82.8904 142.99 80.4404C143 78.0104 140.63 75.6304 138.24 75.6704C135.61 75.7204 133.58 77.8104 133.6 80.4404C133.61 83.0604 135.67 85.0304 138.36 85.0004ZM104.25 105.97C102.78 106 101.56 106.85 100.99 108.09C100.35 106.88 99.0398 105.95 97.7298 105.97C96.3298 106 95.1398 106.77 94.5498 107.92C93.8798 106.79 92.6298 105.94 91.3798 105.97C89.3498 106.01 87.7798 107.62 87.7898 109.66C87.7898 111.69 89.3898 113.21 91.4698 113.19C92.7798 113.18 93.9498 112.43 94.5698 111.37C95.1798 112.48 96.3798 113.2 97.8198 113.19C99.1898 113.17 100.41 112.36 101.01 111.22C101.59 112.42 102.83 113.21 104.34 113.19C106.28 113.17 107.92 111.55 107.92 109.66C107.92 107.78 106.09 105.94 104.25 105.97ZM47.7798 97.7004C45.1798 97.6404 42.5798 97.6804 39.9798 97.6704C39.8298 97.5904 39.6798 97.5004 39.5298 97.4204C39.4198 97.3504 39.2998 97.2904 39.1798 97.2504C38.1898 94.7104 38.8598 93.6904 41.5898 93.6704C43.9798 93.6504 46.3698 93.7104 48.7598 93.6504C51.8398 93.5704 54.3498 91.2304 54.7898 88.2504C54.9398 87.2204 54.8098 86.7004 53.6198 86.7104C49.8598 86.7504 46.0898 86.5204 42.3498 86.7804C36.4798 87.1904 32.6598 92.9704 34.5098 98.1104C34.5798 98.3804 34.6498 98.6604 34.7198 98.9304C34.7998 99.0804 34.8898 99.2304 34.9698 99.3804C36.6098 102.8 39.4398 104.41 43.1398 104.58C45.2598 104.67 47.3798 104.6 49.4998 104.61C51.6198 104.62 52.7998 105.44 52.6598 106.92C52.4698 108.89 51.0598 109.16 49.3898 109.15C44.1198 109.11 38.8498 109.13 33.5798 109.13C27.9598 109.13 27.9398 109.13 27.6698 103.5C27.5898 101.79 26.7898 100.69 25.2398 100.07C24.0798 99.6104 23.4498 99.7804 23.5098 101.24C23.5898 103.08 23.5098 104.93 23.5098 106.77C23.5398 112.06 27.5398 116.12 32.8098 116.16C37.7398 116.2 42.6598 116.11 47.5898 116.21C52.1998 116.3 56.9098 112.08 56.8698 107.05C56.8198 101.81 53.0398 97.8104 47.7798 97.6904V97.7004ZM168.49 91.3804C168.39 88.3804 166.94 87.0504 163.99 86.9904C160.99 86.9404 157.99 86.9904 154.99 86.9804C152.94 86.9804 151.33 87.8704 149.99 89.3504C148.21 91.3004 148.19 93.6504 148.46 96.0704C148.5 97.1104 148.16 97.7004 146.96 97.6404C145.27 97.5604 143.58 97.6404 141.89 97.6404C141.38 96.9904 141.53 96.2204 141.52 95.4804C141.5 93.1004 141.39 90.7204 141.52 88.3504C141.61 86.6504 140.85 86.3904 139.46 86.6304C136.95 87.0504 134.96 89.3904 134.87 92.1204C134.81 93.9504 134.81 95.7804 134.78 97.6204C132.52 97.6204 130.25 97.6204 127.99 97.6104C127.94 94.4804 127.89 91.3404 127.86 88.2104C127.86 87.3704 127.95 86.5504 126.67 86.5704C123.73 86.6304 120.78 86.4304 117.87 86.6804C112.62 87.1304 108.94 92.8704 110.62 97.7004C110.67 97.9804 110.73 98.2504 110.78 98.5304C110.86 98.6704 110.95 98.8104 111.03 98.9504C112.59 102.62 115.42 104.4 119.36 104.36C120.7 104.34 121.19 104.75 121.12 106.11C121.05 107.67 121.08 109.26 121.25 110.82C121.53 113.37 123.57 115.34 126.07 115.69C127.31 115.86 127.97 115.6 127.9 114.11C127.78 111.52 127.94 108.91 127.81 106.32C127.73 104.8 128.16 104.34 129.73 104.35C139.18 104.42 148.63 104.23 158.08 104.46C161.99 104.55 164.35 102.85 166.1 99.7204C166.18 99.6004 166.27 99.4804 166.35 99.3504C166.4 99.2004 166.45 99.0604 166.51 98.9104C168.05 96.6304 168.59 94.0504 168.5 91.3904L168.49 91.3804ZM121.78 97.7204C119.4 100.15 116.45 99.9704 115.06 97.3104C114.49 95.0004 115.04 93.3104 116.75 92.4004C118.4 91.5204 119.95 91.8104 121.22 93.1204C122.54 94.4704 122.25 96.1004 121.77 97.7104L121.78 97.7204ZM161.99 97.6304C158.95 97.6304 155.92 97.5704 152.88 97.6504C151.66 97.6804 151.1 97.3304 151.23 96.0904C151.06 94.2904 151.91 93.8304 153.62 93.9504C156 94.1104 158.39 94.0004 160.78 93.9804C161.9 93.9804 163.05 93.9004 163.46 95.2604C163.84 96.5404 162.83 97.0504 161.99 97.6204V97.6304ZM100.3 86.7604C97.6498 86.5404 94.9698 86.7804 92.2998 86.7004C91.0098 86.6604 90.7998 87.2604 90.9198 88.3204C91.2398 91.1304 93.8298 93.5104 96.8098 93.6504C98.3098 93.7204 99.8198 93.6704 101.32 93.6604C102.4 93.6604 103.43 93.8204 103.9 94.9204C104.42 96.1404 103.75 96.9904 102.78 97.6704C97.3098 97.6804 91.8298 97.6904 86.3598 97.7004C86.3898 96.6104 86.4898 95.5204 86.4298 94.4304C86.2398 90.9304 84.3398 88.5604 81.2098 87.2504C78.0098 85.9104 74.9698 86.5804 72.4798 88.9204C70.0598 91.1904 69.2598 94.0404 70.3298 97.2904C69.7998 97.9604 69.0598 97.6604 68.4198 97.6604C65.5498 97.6904 62.6798 97.7004 59.8098 97.6604C58.9198 97.6504 58.4298 97.7904 58.4398 98.8704C58.4798 102.76 58.3598 106.65 58.4598 110.54C58.5398 113.25 60.9598 115.46 63.6898 115.7C64.7898 115.8 65.1298 115.41 65.0898 114.34C65.0198 112.36 65.0598 110.38 65.0598 108.4C65.0498 104.46 65.0498 104.5 68.9398 104.58C70.1198 104.6 70.4098 104.81 70.1498 106.08C69.4298 109.67 70.4398 112.73 73.5998 114.79C76.5698 116.73 79.7898 116.89 82.6298 114.79C85.7698 112.46 87.1298 110.21 86.2098 105.98C85.8798 104.43 86.5298 104.6 87.4698 104.6C90.7498 104.6 94.0398 104.5 97.3098 104.63C101.97 104.81 105.81 103.65 107.84 99.0104C110.18 95.0604 107.74 87.3604 100.29 86.7504L100.3 86.7604ZM77.8798 112.14C75.7998 112.08 74.3598 110.47 74.4198 108.31C74.4898 106.22 76.2298 104.6 78.3198 104.7C80.3998 104.79 81.9498 106.52 81.8498 108.67C81.7598 110.8 80.1398 112.21 77.8698 112.14H77.8798ZM80.8798 96.9304C80.6598 97.1904 80.4498 97.4504 80.2398 97.7204L80.2098 97.7404C80.0398 97.8304 79.8698 97.9304 79.6898 98.0204C77.4798 99.3904 76.1798 97.8704 74.8398 96.4804C74.1398 93.9404 74.7198 91.9004 76.3298 91.1504C78.1498 90.3104 79.9798 90.6804 81.0898 92.2404C82.2198 93.8304 82.1298 95.4204 80.8698 96.9304H80.8798Z" fill="url(#paint1_linear_4938_32715)"/>
</g>
<defs>
<linearGradient id="paint0_linear_4938_32715" x1="96.91" y1="-3.6" x2="95.15" y2="188.39" gradientUnits="userSpaceOnUse">
<stop stop-color="#221A0C"/>
<stop offset="0.21" stop-color="#2B2010"/>
<stop offset="0.45" stop-color="#3D2D17"/>
<stop offset="1" stop-color="#20170E"/>
</linearGradient>
<linearGradient id="paint1_linear_4938_32715" x1="96.1898" y1="75.2904" x2="95.8098" y2="116.74" gradientUnits="userSpaceOnUse">
<stop stop-color="#ECBA66"/>
<stop offset="0.18" stop-color="#E2B05F"/>
<stop offset="0.49" stop-color="#CA954C"/>
<stop offset="0.89" stop-color="#A36A2F"/>
<stop offset="1" stop-color="#975D26"/>
</linearGradient>
<clipPath id="clip0_4938_32715">
<rect width="192" height="192" fill="white"/>
</clipPath>
</defs>
</svg>
