<svg width="192" height="192" viewBox="0 0 192 192" fill="none" xmlns="http://www.w3.org/2000/svg">
<g clip-path="url(#clip0_4938_32563)">
<path d="M96 192C149.019 192 192 149.019 192 96C192 42.9807 149.019 0 96 0C42.9807 0 0 42.9807 0 96C0 149.019 42.9807 192 96 192Z" fill="white"/>
<path d="M89.2103 138.039C87.3703 137.139 85.4403 137.209 83.5703 137.269C83.1603 137.279 82.7503 137.299 82.3503 137.299C81.3203 137.299 81.2003 138.229 81.1403 138.669L81.1103 138.879C81.0503 139.219 81.1103 139.489 81.2703 139.689C81.5303 139.999 81.9303 139.999 82.2203 139.979C82.2803 139.979 82.3403 139.979 82.4003 139.979C82.9003 140.009 83.4003 140.009 83.9003 139.979C86.4003 139.849 87.9003 140.169 88.7403 141.019C89.5903 141.869 89.8803 143.379 89.7303 146.059C89.6903 146.789 89.6003 146.859 89.0003 146.869C86.6203 146.849 84.2403 146.859 81.8603 146.849C79.1903 146.849 76.5103 146.849 73.8303 146.829C71.7603 146.809 70.3603 145.419 70.2603 143.289C70.2303 142.679 70.2403 142.069 70.2403 141.459C70.2403 140.889 70.2503 140.319 70.2403 139.749C70.2403 139.679 70.2403 139.589 70.2603 139.509C70.2903 139.189 70.3303 138.759 70.0303 138.449C69.8303 138.239 69.5203 138.149 69.1203 138.179C67.6803 138.289 67.5003 139.279 67.5303 139.859C67.5603 140.599 67.5503 141.339 67.5403 142.079V142.739C67.5103 145.649 66.3403 146.839 63.4703 146.849C59.1703 146.869 54.8703 146.869 50.5703 146.849C47.6803 146.849 46.3903 145.539 46.3803 142.639V138.539C46.3803 136.189 46.3803 133.849 46.3603 131.499C46.3603 131.439 46.3703 131.359 46.3803 131.279C46.4203 130.979 46.4803 130.559 46.2003 130.249C46.0203 130.049 45.7403 129.969 45.4003 129.969C44.9603 129.989 43.6203 130.029 43.6003 131.449C43.6003 131.769 43.6003 132.099 43.6003 132.429V141.469V144.229C43.6003 146.379 43.6003 148.519 43.6003 150.669C43.5903 152.749 42.5803 153.929 40.5903 154.179C39.3603 154.339 38.0603 154.339 36.8403 154.189C34.9803 153.959 33.8003 152.599 33.7703 150.639C33.7603 149.979 33.7703 149.329 33.7703 148.669C33.7703 147.819 33.7703 146.969 33.7503 146.119C33.7503 146.069 33.7703 145.959 33.7803 145.869C33.8303 145.559 33.9103 145.129 33.6203 144.809C33.4303 144.589 33.1403 144.509 32.7403 144.499C32.2903 144.509 31.7403 144.579 31.3603 144.979C31.1003 145.259 30.9703 145.669 31.0003 146.179C31.0303 146.929 31.0203 147.689 31.0103 148.439C31.0003 149.339 30.9803 150.269 31.0503 151.189C31.2103 153.449 32.3503 155.179 34.3303 156.179C35.6703 156.859 37.0603 157.069 38.3903 157.069C39.3203 157.069 40.2203 156.969 41.0603 156.859C44.3603 156.419 46.3503 154.099 46.3803 150.649C46.3803 149.999 46.3803 149.349 46.3803 148.709C46.3803 148.629 46.3803 148.569 46.3803 148.519C46.4203 148.539 46.4603 148.569 46.5203 148.609C47.8503 149.519 49.3603 149.609 50.8003 149.589H52.2003C55.8703 149.569 59.6603 149.559 63.3803 149.599C65.7303 149.599 67.4003 148.979 68.6603 147.559C68.8103 147.399 68.8803 147.349 68.8803 147.339C68.9203 147.359 69.0103 147.419 69.2003 147.639C70.3103 148.859 71.8003 149.539 73.3903 149.549C77.5703 149.589 81.8303 149.589 85.9403 149.579H90.9803C91.4103 149.619 91.8603 149.549 92.1803 149.219C92.4003 148.999 92.5003 148.679 92.5003 148.269C92.4903 147.639 92.5003 147.009 92.5003 146.389C92.5203 145.139 92.5303 143.859 92.4003 142.589C92.1803 140.559 91.0503 138.949 89.2103 138.049V138.039Z" fill="#B6AF99"/>
<path d="M160.88 142.26C160.42 139.77 158.48 137.92 155.81 137.44C154.63 137.23 153.46 137.25 152.31 137.27C151.63 137.28 150.96 137.29 150.28 137.25C149.77 137.21 149.4 137.33 149.14 137.58C148.78 137.93 148.75 138.44 148.76 138.9C148.8 140.54 148.8 142.01 148.76 143.39C148.71 145.33 147.39 146.76 145.63 146.79C140.56 146.88 135.58 146.88 130.81 146.79C128.88 146.75 127.66 145.42 127.64 143.31C127.63 141.99 127.63 140.67 127.64 139.34V135.93C127.64 134.41 127.65 132.89 127.63 131.37C127.63 131.31 127.63 131.24 127.65 131.17C127.68 130.88 127.73 130.45 127.42 130.16C127.21 129.96 126.91 129.9 126.51 129.96L126.31 129.99C125.84 130.05 124.86 130.18 124.9 131.36C124.9 131.52 124.9 131.68 124.9 131.84V135.36C124.9 138 124.9 140.64 124.9 143.28C124.91 146.89 127.53 149.52 131.13 149.54C133.07 149.55 135 149.56 136.94 149.56C139.68 149.56 142.42 149.56 145.17 149.54C147.06 149.54 148.47 149.02 149.48 147.97C150.07 147.36 150.24 147.36 150.9 147.98C152.81 149.78 155.6 150.04 158.01 148.65C160.21 147.38 161.37 144.8 160.9 142.25L160.88 142.26ZM153.52 146.53C152.29 145.99 151.65 145.06 151.57 143.66C151.55 143.34 151.56 143.02 151.57 142.7V142.24C151.57 141.13 151.57 140.4 151.78 140.19C151.97 140 152.61 139.99 153.57 139.99H153.83C156.45 139.99 157.71 140.78 158.18 142.7C158.49 144 158.13 145.1 157.1 145.99C156.03 146.91 154.82 147.09 153.53 146.53H153.52Z" fill="#B6AF99"/>
<path d="M116.972 140C118.212 139.97 119.532 139.97 120.982 140C121.432 140 121.892 139.97 122.212 139.65C122.452 139.41 122.562 139.06 122.552 138.59C122.522 137.25 121.432 137.25 121.072 137.26C120.522 137.26 119.962 137.26 119.412 137.25C118.362 137.24 117.282 137.22 116.212 137.3C112.982 137.55 110.532 140.01 110.382 143.15C110.342 144.04 110.352 144.94 110.352 145.8C110.352 146.53 110.372 147.26 110.352 147.99C110.342 148.34 110.372 148.84 110.712 149.19C111.062 149.54 111.582 149.57 111.942 149.57C113.342 149.54 114.742 149.55 116.152 149.55H117.902C118.932 149.55 119.582 149.75 119.822 150.12C120.072 150.5 119.972 151.19 119.532 152.17C118.952 153.47 117.882 154.16 116.352 154.23C115.572 154.27 114.802 154.26 114.022 154.25C113.682 154.25 113.332 154.25 112.992 154.25C112.602 154.25 112.222 154.25 111.832 154.25C110.992 154.26 110.142 154.27 109.302 154.23C107.132 154.13 105.772 152.71 105.732 150.53C105.732 149.94 105.732 149.36 105.732 148.77C105.732 147.9 105.742 147.03 105.712 146.16C105.712 146.08 105.732 145.99 105.742 145.89C105.792 145.57 105.862 145.13 105.572 144.79C105.362 144.56 105.052 144.47 104.602 144.47C104.022 144.5 103.612 144.66 103.332 144.96C103.052 145.26 102.932 145.68 102.962 146.24C103.002 147.1 102.992 147.99 102.982 148.85C102.982 149.53 102.972 150.22 102.982 150.9C103.052 153.88 105.202 156.29 108.192 156.75C109.632 156.97 111.082 157.05 112.502 157.05C113.922 157.05 115.202 156.98 116.492 156.89C120.382 156.62 122.522 154.22 122.532 150.14C122.532 149.95 122.532 149.76 122.532 149.57C122.532 149.18 122.512 148.79 122.542 148.41C122.582 147.88 122.482 147.5 122.222 147.23C121.862 146.85 121.322 146.82 120.932 146.83C119.802 146.86 118.662 146.85 117.532 146.85H116.102C114.572 146.85 113.652 146.85 113.362 146.54C113.072 146.24 113.082 145.34 113.102 143.85C113.132 141.34 114.432 140.04 116.962 139.98L116.972 140Z" fill="#B6AF99"/>
<path d="M96.2086 130.078C94.8286 130.098 94.8286 131.318 94.8286 131.898C94.8286 134.698 94.8286 137.498 94.8286 140.298V147.688V147.888C94.8186 148.248 94.7986 148.708 95.1186 149.038C95.3386 149.268 95.6486 149.378 96.0686 149.388H96.1086C96.5186 149.388 96.8286 149.278 97.0486 149.068C97.3886 148.728 97.3886 148.258 97.3886 147.748V137.708C97.3886 135.788 97.3986 133.868 97.3686 131.948C97.3686 131.858 97.3886 131.748 97.3986 131.638C97.4486 131.278 97.5186 130.798 97.1986 130.438C96.9786 130.198 96.6586 130.098 96.1986 130.088L96.2086 130.078Z" fill="#B6AF99"/>
<path d="M98.3898 125.339C98.1298 125.269 97.8698 125.199 97.6298 125.099C97.4698 125.029 97.0298 124.849 96.6998 125.099C96.3898 125.329 96.4198 125.719 96.4498 125.969C96.4498 126.039 96.4698 126.139 96.4998 126.109C96.4598 126.169 96.4498 126.189 96.1998 126.169C96.1298 126.169 96.0598 126.169 95.9998 126.169C94.9898 126.189 93.9798 126.189 92.9698 126.169C92.5598 126.169 91.6098 126.149 91.5898 127.359C91.5898 127.669 91.6098 128.109 91.9198 128.409C92.2298 128.709 92.6498 128.719 92.9898 128.719C93.6898 128.689 94.3998 128.699 95.0998 128.699H96.0098C96.3398 128.699 96.6698 128.699 96.9998 128.699C97.7198 128.689 98.4598 128.669 99.1798 128.729C99.2598 128.729 99.3298 128.729 99.3998 128.729C100.05 128.729 100.38 128.459 100.55 128.229C100.81 127.859 100.82 127.319 100.57 126.799C100.12 125.839 99.1998 125.579 98.3898 125.349V125.339Z" fill="#26BC9D"/>
<path d="M66.5201 151.67C66.0401 151.68 65.5701 151.67 65.0901 151.67H64.4501H63.8101C63.3301 151.67 62.8601 151.67 62.3901 151.67C61.9401 151.67 61.5901 151.76 61.3501 151.99C61.1301 152.21 61.0101 152.53 61.0201 152.94C61.0301 154.17 61.7901 154.37 62.2401 154.37C62.9701 154.38 63.7001 154.39 64.4301 154.39C65.2001 154.39 65.9601 154.39 66.7301 154.37C67.2701 154.36 67.9101 154.1 67.9201 152.91C67.9201 152.52 67.8101 152.21 67.5901 152C67.2801 151.69 66.8301 151.68 66.5201 151.68V151.67Z" fill="#B6AF99"/>
<path d="M85.6507 151.399C85.1807 151.399 84.6507 151.419 84.2807 151.779C84.0207 152.039 83.9007 152.429 83.9107 152.959C83.9107 153.489 84.0607 153.859 84.3307 154.109C84.6907 154.419 85.1807 154.429 85.5807 154.389C85.7007 154.399 85.8207 154.409 85.9507 154.409C86.2807 154.409 86.6207 154.339 86.8907 154.099C87.1807 153.839 87.3207 153.429 87.3107 152.849C87.2807 151.419 86.2207 151.399 85.6507 151.389V151.399Z" fill="#B6AF99"/>
<path d="M153.379 84.9292C153.319 84.9292 153.279 84.9292 153.259 84.9292C153.259 84.8392 153.259 84.6792 153.259 84.5792C153.259 84.4592 153.269 84.3492 153.269 84.2392V83.8392C153.219 81.3392 153.179 78.8292 153.199 76.3292C153.199 75.8792 153.149 75.2292 152.699 74.7792C152.249 74.3392 151.589 74.2992 151.149 74.3092C149.609 74.3492 148.069 74.3292 146.529 74.3092C145.619 74.3092 144.699 74.2992 143.729 74.2992C143.489 74.2992 143.089 74.2992 143.009 74.2392C143.009 74.2392 142.959 74.1392 143.009 73.8192C143.039 73.6392 143.129 73.0692 142.749 72.6992C142.369 72.3292 141.849 72.4192 141.329 72.5092C138.899 72.9292 136.319 73.6492 133.459 74.7192C129.669 76.1292 126.089 78.0692 122.529 80.6492L122.489 80.3892C122.059 77.4892 121.659 74.7492 120.999 72.0792C117.739 58.7592 110.509 46.8292 98.9088 35.5892C97.6988 34.4192 96.8288 34.9392 96.0688 35.6792C87.5888 43.8692 81.5488 52.2892 77.6288 61.4392C73.0088 72.1892 71.2988 83.0892 72.5488 93.8292C72.6388 94.6192 72.7588 95.3792 72.8988 96.1392C72.0088 93.2692 70.3188 90.6492 67.9088 88.5392C61.8888 83.2692 54.5688 80.6992 45.5488 80.6992H44.6288C43.9888 80.6892 43.3388 80.6792 42.6888 80.6992C38.1088 80.8492 37.8488 81.0692 37.1888 85.6692C37.1588 85.7692 37.1388 85.8592 37.1288 85.9692C36.2888 96.2192 38.3188 104.049 43.5088 110.589C47.2788 115.339 51.5888 117.649 56.6888 117.649C56.8588 117.649 57.0288 117.649 57.1988 117.649C61.6888 117.519 65.5688 115.489 69.4088 111.279C72.3288 108.079 73.8088 104.019 73.5788 99.8592C73.5588 99.4592 73.4988 99.0692 73.4488 98.6692C74.6988 103.409 76.9588 107.569 80.1888 111.099C84.5788 115.889 91.0688 118.349 97.5588 118.349C102.999 118.349 108.439 116.619 112.639 113.079C113.689 112.199 114.039 112.099 115.049 113.149C118.309 116.539 122.469 118.189 127.079 117.919C132.429 117.609 137.289 115.359 141.529 111.259C148.349 104.659 152.819 96.5492 154.819 87.1392L154.869 86.9092C154.989 86.4292 155.129 85.8292 154.739 85.3592C154.329 84.8692 153.609 84.8992 153.369 84.9092L153.379 84.9292ZM55.7288 113.739C55.4788 114.269 55.3988 114.349 54.7788 114.249C51.2888 113.669 48.4788 111.759 45.6588 108.049C43.7388 105.539 42.3388 102.679 41.3588 99.3092C41.0788 98.3492 41.1488 97.9892 42.0988 97.5292C47.3688 95.0492 51.3588 91.1392 53.9488 85.9192C54.2388 85.3392 54.4388 85.1092 54.8288 85.1092C55.0188 85.1092 55.2488 85.1592 55.5488 85.2592C61.0888 86.9992 65.2788 89.8592 68.3488 94.0092C69.3588 95.3692 69.9888 97.0492 70.3788 99.4392C70.4188 99.6892 70.4388 99.7792 69.7888 100.059C63.4088 102.729 58.6688 107.339 55.7188 113.739H55.7288ZM51.2088 84.3092C51.2088 84.3092 51.1688 84.3892 51.1488 84.4392C48.7388 89.1092 45.2588 92.4892 40.5388 94.7492C39.9888 91.1692 40.2188 87.7892 40.5588 84.6492C40.5988 84.2892 40.6388 84.2392 41.1988 84.1692C42.5388 83.9992 43.9088 83.9092 45.3588 83.9092C47.1588 83.9092 49.0888 84.0392 51.2088 84.3092ZM70.0888 103.579C70.0388 103.989 69.8888 104.409 69.6888 104.879C67.6988 109.359 64.4188 112.409 59.9188 113.959C59.6088 114.069 59.3588 114.139 59.0988 114.139C62.0088 108.839 65.5288 105.449 70.0988 103.579H70.0888ZM77.0288 73.6892C77.1688 74.0292 77.3988 74.3192 77.5388 74.4792L77.6888 74.6792C77.7888 74.8092 77.8888 74.9492 77.9988 75.0692C80.7388 77.9292 81.8388 81.5792 81.1888 85.6092C80.0688 92.5592 79.7888 99.1792 80.2688 105.799C77.9388 102.559 76.8488 98.8392 76.1688 95.8492C74.7688 89.7592 75.3688 83.6192 76.2188 77.8992C76.4288 76.4892 76.7088 75.0892 77.0188 73.6892H77.0288ZM82.6588 108.869C82.5188 108.719 82.3988 108.539 82.2788 108.369C82.5888 108.299 82.8588 108.179 83.0588 107.979C83.5488 107.479 83.5688 106.739 83.5488 106.079C83.5088 104.869 83.4388 103.659 83.3688 102.449C83.1788 99.2392 82.9788 95.9292 83.5088 92.6892L83.6388 91.9092C84.0688 89.2992 84.5188 86.6092 84.5388 83.8992C84.5788 79.3692 83.0388 75.4892 79.9688 72.3492C79.6088 71.9792 78.6488 71.0092 77.4888 71.9992C77.4488 72.0392 77.4288 72.0692 77.3888 72.1092C78.7788 66.6292 80.9688 61.2692 83.9388 56.1292C83.9388 56.1492 83.9288 56.1692 83.9188 56.1892C83.8588 56.4292 83.7988 56.6592 83.7588 56.8892C82.7088 63.1192 83.5988 69.3292 86.5588 76.4192C89.0388 82.3692 90.3988 87.7392 90.7088 92.8492C91.0288 98.1292 90.0188 103.599 87.5888 109.649C87.4988 109.879 87.4088 110.109 87.2988 110.319C86.8188 111.289 87.0688 112.199 87.9388 112.629C88.3588 112.839 88.7688 112.879 89.1488 112.749C89.5988 112.589 89.9588 112.209 90.2488 111.579C91.1488 109.629 91.9088 107.439 92.6488 104.689C95.0588 95.7392 94.1688 86.5692 89.8288 75.8392C87.9688 71.2292 86.0388 65.8392 86.6888 60.0992C86.7588 59.4492 86.8588 58.8092 86.9488 58.1592C87.0888 57.2392 87.2188 56.3092 87.2988 55.3792C87.3088 55.2292 87.3388 55.0692 87.3688 54.9192C87.4888 54.2692 87.7488 52.9492 86.1888 52.4592L86.2788 52.3292C89.4388 47.6192 93.0888 43.1792 97.1488 39.1392C97.3888 38.8992 97.5088 38.8892 97.5188 38.8892C97.6288 38.8892 97.8888 39.1592 98.1588 39.4392C103.569 44.9692 107.789 50.4192 111.069 56.0992C111.339 56.5692 111.569 57.0392 111.819 57.5092C111.619 57.4592 111.389 57.4392 111.139 57.4692C110.609 57.5192 110.209 57.7192 109.949 58.0492C109.519 58.6092 109.639 59.3292 109.739 59.9192C109.769 60.0892 109.799 60.2492 109.799 60.3892C110.079 66.3892 108.699 71.4292 105.559 75.7792C102.309 80.2992 101.359 85.6292 102.579 92.5492L102.759 93.5792C103.259 96.4092 103.779 99.3292 104.099 102.219C104.399 104.889 104.029 107.729 102.949 111.149C102.749 111.789 102.759 112.299 102.979 112.709C103.179 113.069 103.519 113.319 103.989 113.449C104.159 113.499 104.319 113.519 104.469 113.519C105.189 113.519 105.759 113.039 106.009 112.189L106.169 111.669C106.359 111.049 106.549 110.429 106.699 109.799C108.009 104.359 107.169 99.0492 106.189 94.5792C104.459 86.7692 105.399 81.0292 109.209 75.9892C112.489 71.6592 112.959 66.5592 112.979 62.1392C112.979 61.9492 112.999 61.7592 113.009 61.5692C113.049 61.0792 113.089 60.5292 112.909 60.0092C112.869 59.8992 112.859 59.6892 112.859 59.4892C115.749 65.2292 117.709 71.2392 118.739 77.4692C118.659 77.3692 118.599 77.2692 118.489 77.1892C117.379 76.2992 116.479 77.2992 116.049 77.7692C115.719 78.1392 115.419 78.5292 115.139 78.9392C112.649 82.5592 111.359 86.8792 111.199 92.1592V92.1792V92.1992C111.379 96.1292 111.969 99.6392 112.979 102.909C113.289 103.919 113.829 104.429 114.559 104.429C114.699 104.429 114.849 104.409 115.009 104.369C115.499 104.249 115.849 104.019 116.049 103.659C116.359 103.129 116.239 102.519 116.049 101.929C115.899 101.439 115.749 100.939 115.629 100.439C114.799 97.0492 114.039 92.9992 114.749 88.6892C115.319 85.1792 116.539 82.2892 118.459 79.8492C118.679 79.5792 118.839 79.3092 118.939 79.0592C119.429 82.5692 119.669 86.1392 119.569 89.7692C119.349 98.0692 116.769 104.549 111.669 109.579C107.389 113.799 102.009 115.569 95.2088 114.959C90.1188 114.519 85.9988 112.529 82.6088 108.899L82.6588 108.869ZM149.939 80.6992V82.0492L149.979 82.2392C150.809 84.6892 149.889 86.0492 146.479 87.4492C141.059 89.6692 136.109 92.9492 131.559 96.1692C136.159 89.6292 139.409 83.9192 141.779 78.1992C141.989 77.6992 142.239 77.5292 142.819 77.5292H142.849C145.019 77.5492 147.189 77.5692 149.359 77.5392C149.789 77.5592 149.869 77.6092 149.899 77.6392C149.919 77.6592 149.999 77.7692 149.979 78.1592C149.939 78.9692 149.949 79.7792 149.959 80.6992H149.939ZM118.849 111.449C129.059 101.139 139.399 93.8392 150.469 89.1292C150.559 89.0892 150.639 89.0492 150.729 89.0092C150.839 88.9592 151.029 88.8592 151.049 88.8192C151.069 88.8892 150.999 89.1292 150.939 89.3292C148.049 99.1092 143.079 106.409 135.739 111.649C133.269 113.409 130.219 114.429 126.399 114.749C123.179 114.449 120.899 113.689 118.999 112.279C118.619 111.999 118.539 111.889 118.529 111.869C118.529 111.869 118.549 111.749 118.849 111.449ZM122.759 85.5492C122.719 84.8692 122.829 84.5392 123.229 84.2292C127.869 80.5592 133.169 77.9192 138.989 76.3892C137.179 81.2392 134.629 85.5492 132.349 89.1592C127.879 96.2192 122.619 102.829 116.699 108.799C116.719 108.769 116.739 108.749 116.759 108.719C121.379 102.179 123.339 94.5992 122.759 85.5392V85.5492ZM116.489 109.059C116.489 109.059 116.429 109.149 116.399 109.189C116.329 109.299 116.199 109.479 116.199 109.479C116.219 109.389 116.389 109.179 116.499 109.059H116.489Z" fill="#B6AF99"/>
<path d="M66.7369 58.1087C66.7869 58.1087 66.8469 58.1087 66.8969 58.1087C70.1969 58.0187 72.7469 55.3487 72.7169 52.0287C72.6769 48.7187 70.0669 46.1387 66.7669 46.1387H66.7469C63.4169 46.1387 60.8069 48.7587 60.7969 52.0787C60.7969 53.6887 61.4569 55.2687 62.6269 56.4087C63.7469 57.5087 65.1969 58.0987 66.7269 58.0987L66.7369 58.1087ZM64.8769 54.0987C64.3469 53.5687 64.0469 52.8587 64.0369 52.1487C64.0169 50.5787 65.1669 49.3787 66.6969 49.3387C68.2169 49.3287 69.5069 50.5187 69.5869 51.9987C69.6269 52.6787 69.3369 53.3887 68.7969 53.9587C68.2369 54.5487 67.5069 54.8987 66.7769 54.9087C66.0469 54.8787 65.3969 54.6187 64.8669 54.0987H64.8769Z" fill="#26BC9D"/>
<path d="M55.8271 68.51C55.8271 69.08 55.3271 69.7 54.3471 70.38C54.0371 70.59 53.8371 70.92 53.7871 71.3C53.7271 71.73 53.8671 72.17 54.1571 72.52C54.4771 72.91 54.9471 73.13 55.4271 73.13C55.4371 73.13 55.4571 73.13 55.4671 73.13C55.8871 73.12 56.2571 72.93 56.4971 72.61C57.2371 71.6 57.9071 71.1 58.4871 71.1H58.5071C59.0671 71.1 59.6771 71.6 60.3271 72.55C60.5571 72.88 60.9071 73.09 61.3171 73.13C61.7771 73.19 62.2871 72.98 62.6471 72.61C62.9371 72.32 63.5071 71.52 62.6171 70.41C62.5671 70.35 62.5171 70.3 62.4671 70.25C62.2571 70.03 62.0071 69.81 61.7571 69.59C61.3371 69.23 60.8671 68.82 60.8171 68.51C60.7771 68.25 61.0671 68 61.5671 67.61C61.8871 67.36 62.2071 67.1 62.4571 66.76C62.6171 66.55 62.7571 66.33 62.8671 66.14L63.0771 65.82V65.65C63.0971 65 62.8571 64.51 62.3671 64.15C62.0171 63.9 61.6271 63.79 61.2471 63.85C60.9171 63.9 60.6171 64.09 60.4271 64.36C59.7171 65.36 59.0571 65.86 58.4671 65.86C57.8771 65.86 57.2271 65.36 56.5271 64.38C56.3071 64.07 55.9871 63.88 55.6071 63.84C55.1871 63.81 54.7371 63.95 54.3871 64.27C53.9871 64.63 53.7671 65.11 53.7971 65.58C53.8171 65.98 54.0171 66.34 54.3471 66.58C55.3571 67.3 55.8671 67.96 55.8571 68.54L55.8271 68.51Z" fill="#26BC9D"/>
<path d="M98.3072 114.239C98.7272 114.239 99.0872 114.109 99.3672 113.869C99.7472 113.539 99.9472 113.019 99.9872 112.289C100.047 111.229 100.107 110.029 99.9672 108.849C99.4772 104.779 99.3372 100.609 99.2072 96.5691L99.1072 93.6591C98.8872 87.7291 99.2872 81.8691 99.6672 77.4191C100.387 69.0491 101.277 58.6291 103.837 48.8691C104.007 48.2291 104.407 46.7191 102.857 46.2591C102.387 46.1191 101.977 46.1491 101.627 46.3391C101.047 46.6591 100.867 47.3291 100.687 48.0091C99.4672 52.3991 98.5972 57.1591 97.8672 63.4391C97.1672 69.4891 96.6172 74.7991 96.1872 79.6791C95.8972 82.9991 95.8072 86.6491 95.8872 91.1491L95.9472 94.4491C96.0272 99.7591 96.1172 105.249 96.7572 110.629V112.179V112.379C96.7472 112.899 96.7272 114.129 98.1272 114.239C98.1872 114.239 98.2472 114.239 98.2972 114.239H98.3072Z" fill="#B6AF99"/>
</g>
<defs>
<clipPath id="clip0_4938_32563">
<rect width="192" height="192" fill="white"/>
</clipPath>
</defs>
</svg>
