<svg width="192" height="192" viewBox="0 0 192 192" fill="none" xmlns="http://www.w3.org/2000/svg">
<g clip-path="url(#clip0_4938_32618)">
<path d="M96 192C149.019 192 192 149.019 192 96C192 42.9807 149.019 0 96 0C42.9807 0 0 42.9807 0 96C0 149.019 42.9807 192 96 192Z" fill="#00AB9E"/>
<path d="M79.1799 38.6994C78.2899 38.6594 77.7999 39.1894 77.6699 40.0094C77.5999 40.5394 77.6499 41.1194 77.6499 41.6794C77.6499 52.3794 77.6899 63.1094 77.6099 73.8094C77.5899 75.7894 78.1899 76.9494 80.4799 77.5694V40.1894C80.4099 39.3694 80.0799 38.7394 79.1899 38.6994H79.1799ZM79.1799 38.6994C78.2899 38.6594 77.7999 39.1894 77.6699 40.0094C77.5999 40.5394 77.6499 41.1194 77.6499 41.6794C77.6499 52.3794 77.6899 63.1094 77.6099 73.8094C77.5899 75.7894 78.1899 76.9494 80.4799 77.5694V40.1894C80.4099 39.3694 80.0799 38.7394 79.1899 38.6994H79.1799ZM79.1799 38.6994C78.2899 38.6594 77.7999 39.1894 77.6699 40.0094C77.5999 40.5394 77.6499 41.1194 77.6499 41.6794C77.6499 52.3794 77.6899 63.1094 77.6099 73.8094C77.5899 75.7894 78.1899 76.9494 80.4799 77.5694V40.1894C80.4099 39.3694 80.0799 38.7394 79.1899 38.6994H79.1799Z" fill="white"/>
<path d="M89.1703 63.5494C89.1903 65.4194 87.5003 66.0394 86.3203 67.3094V33.0494C86.3203 31.9994 86.5403 31.1094 87.7403 31.1094C88.9203 31.1294 89.1603 32.0194 89.1403 33.0694C89.1403 43.2394 89.1203 53.3894 89.1603 63.5494H89.1703Z" fill="white"/>
<path d="M115.008 73.7902C115.028 75.9702 114.208 76.9702 112.048 77.4802V44.1702C112.048 42.8802 112.028 41.5702 112.068 40.2802C112.088 39.3202 112.578 38.6802 113.608 38.7402C114.498 38.8102 114.878 39.4302 114.918 40.2502C114.938 40.8102 114.938 41.3602 114.958 41.9202C114.958 52.5302 114.888 63.1702 114.998 73.7802L115.008 73.7902Z" fill="white"/>
<path d="M106.599 33.9604C106.619 45.0404 106.599 56.1204 106.599 67.5604C104.169 65.8504 103.659 63.8404 103.709 61.3504C103.839 52.2704 103.729 43.1904 103.779 34.1104C103.779 32.9304 103.199 31.1504 105.249 31.1504C107.029 31.1704 106.609 32.8404 106.609 33.9504L106.599 33.9604Z" fill="white"/>
<path d="M107.979 80.2695C104.599 82.1795 101.439 84.4495 98.209 86.6095C97.189 87.2995 96.389 87.4795 95.229 86.7395C91.509 84.2895 87.779 81.9295 83.949 79.6895C82.369 78.7595 82.899 77.7995 83.499 76.7295C86.039 72.1495 89.509 68.3195 93.489 64.9795C94.849 63.8195 95.269 62.6695 95.269 60.9695C95.179 49.7795 95.229 38.5795 95.229 27.3895C95.229 26.7495 95.249 26.0995 95.229 25.4495C95.209 24.3995 95.519 23.4495 96.649 23.4895C97.739 23.5295 98.099 24.4495 98.099 25.4895C98.079 28.9195 98.079 32.3395 98.079 35.7695V44.0895C98.079 49.8095 98.119 55.5495 98.059 61.2895C98.059 62.8695 98.439 63.9195 99.749 65.0295C103.419 68.1495 106.449 71.9095 108.959 76.0395C110.029 77.7995 110.119 79.0195 107.979 80.2495V80.2695Z" fill="white"/>
<path d="M123.171 86.6687C123.211 91.3887 121.411 94.7887 117.411 97.2587C111.111 101.089 104.901 105.049 98.2108 109.249C98.2108 104.959 98.1008 101.259 98.2508 97.5887C98.4108 93.6987 100.411 90.7987 103.751 88.8187C108.511 85.9687 113.231 83.0787 118.061 80.3387C119.681 79.4287 120.331 78.3987 120.311 76.4487C120.201 67.3887 120.271 58.3387 120.271 49.2787C120.271 48.6087 120.251 47.9687 120.291 47.3187C120.331 46.3587 120.871 45.7187 121.851 45.7387C122.701 45.7587 123.101 46.4487 123.141 47.2787C123.161 47.8087 123.161 48.3687 123.161 48.9287C123.161 61.5187 123.091 74.0987 123.181 86.6687H123.171Z" fill="white"/>
<path d="M94.1093 131.85C87.0993 127.44 80.4893 123.35 73.9493 119.19C71.1193 117.39 69.4993 114.67 69.3193 111.38C69.1193 107.71 69.2793 104.04 69.2793 99.8496C76.5293 104.26 83.5193 108.35 90.3493 112.69C92.7093 114.18 93.9293 116.76 94.0693 119.52C94.2693 123.48 94.1093 127.44 94.1093 131.85Z" fill="white"/>
<path d="M94.1403 109.22C89.8503 106.55 85.9503 104.12 82.0803 101.7C79.5703 100.12 77.0703 98.5196 74.5603 96.9796C71.0203 94.7996 69.2403 91.6196 69.2203 87.5196C69.1803 74.4596 69.2003 61.3996 69.2003 48.3596C69.2003 47.1796 69.2203 45.8196 70.6503 45.7996C72.4103 45.7596 72.1003 47.3596 72.1003 48.5096C72.1203 57.8596 72.1703 67.2196 72.0603 76.5696C72.0403 78.4196 72.6403 79.3696 74.2003 80.2596C79.1203 83.0396 83.9203 85.9796 88.7703 88.8896C92.4003 91.0696 94.2203 94.2496 94.1803 98.5196C94.1103 101.92 94.1603 105.31 94.1603 109.2L94.1403 109.22Z" fill="white"/>
<path d="M122.881 113.549C122.751 115.219 121.371 116.889 119.881 117.979C113.071 123.009 105.621 126.989 98.2311 131.929C98.2311 127.549 98.1011 123.699 98.2711 119.849C98.4311 116.889 99.6711 114.149 102.211 112.529C108.971 108.279 115.891 104.229 123.021 99.9395C123.021 104.769 123.241 109.169 122.891 113.559L122.881 113.549Z" fill="white"/>
<path d="M157.618 122.169C150.338 147.359 132.878 162.219 107.148 167.339C104.348 167.899 100.788 169.319 98.828 167.869C96.958 166.469 98.298 162.689 98.228 159.949C98.138 154.499 98.208 149.049 98.208 143.569C98.208 140.229 99.208 137.089 101.968 135.289C108.758 130.879 115.788 126.829 123.038 122.429C123.038 126.809 123.238 130.689 122.968 134.509C122.748 137.979 120.588 140.429 117.668 142.229C113.258 144.939 108.948 147.819 104.468 150.419C102.688 151.439 101.978 152.649 102.218 154.649C102.348 155.829 102.238 157.049 102.238 158.249C102.238 160.843 103.485 161.909 105.978 161.449C130.718 156.979 149.438 138.709 153.328 114.029C156.758 92.4194 149.698 74.1995 132.858 60.1995C129.318 57.2595 127.788 54.5295 128.898 49.9395C132.658 51.9395 136.128 54.4995 139.218 57.4595C157.958 75.4195 164.788 97.1995 157.598 122.149L157.618 122.169Z" fill="white"/>
<path d="M34.3798 122.169C41.6598 147.359 59.1198 162.219 84.8498 167.339C87.6498 167.899 91.2098 169.319 93.1698 167.869C95.0398 166.469 93.6998 162.689 93.7698 159.949C93.8598 154.499 93.7898 149.049 93.7898 143.569C93.7898 140.229 92.7898 137.089 90.0298 135.289C83.2398 130.879 76.2098 126.829 68.9598 122.429C68.9598 126.809 68.7598 130.689 69.0298 134.509C69.2498 137.979 71.4098 140.429 74.3298 142.229C78.7398 144.939 83.0498 147.819 87.5298 150.419C89.3098 151.439 90.0198 152.649 89.7798 154.649C89.6498 155.829 89.7598 157.049 89.7598 158.249C89.7598 160.843 88.5131 161.909 86.0198 161.449C61.2798 156.979 42.5598 138.709 38.6698 114.029C35.2398 92.4194 42.2998 74.1995 59.1398 60.1995C62.6798 57.2595 64.2098 54.5295 63.0998 49.9395C59.3398 51.9395 55.8698 54.4995 52.7798 57.4595C34.0398 75.4195 27.2098 97.1995 34.3998 122.149L34.3798 122.169Z" fill="white"/>
</g>
<defs>
<clipPath id="clip0_4938_32618">
<rect width="192" height="192" fill="white"/>
</clipPath>
</defs>
</svg>
