<svg width="192" height="192" viewBox="0 0 192 192" fill="none" xmlns="http://www.w3.org/2000/svg">
<g clip-path="url(#clip0_4938_31837)">
<path d="M96 192C149.019 192 192 149.019 192 96C192 42.9807 149.019 0 96 0C42.9807 0 0 42.9807 0 96C0 149.019 42.9807 192 96 192Z" fill="white"/>
<path d="M71.3698 100.069C64.6298 81.259 58.0498 62.899 51.3598 44.219C52.4098 44.169 53.1898 44.099 53.9698 44.099C58.2498 44.089 62.5198 44.169 66.7998 44.059C68.4198 44.019 69.2098 44.469 69.7998 46.069C78.7998 70.499 87.9098 94.889 96.8698 119.329C97.6598 121.469 98.6598 122.149 100.78 121.769C101.77 121.589 102.82 121.739 104.05 121.739V125.579H71.1098V121.789H79.0298C78.7098 120.779 78.4898 120.019 78.2298 119.269C76.6198 114.709 74.9298 110.179 73.4198 105.589C72.8798 103.949 72.1298 103.349 70.3498 103.359C61.1798 103.459 52.0098 103.409 42.8298 103.409C42.0898 103.409 41.3598 103.409 40.5898 103.409C41.0998 100.109 41.1198 100.089 44.0398 100.089C52.2498 100.089 60.4498 100.089 68.6598 100.089C69.4098 100.089 70.1598 100.089 71.3798 100.089L71.3698 100.069Z" fill="#262626"/>
<path d="M136.009 104.779C130.699 104.609 125.819 104.569 121.319 102.109C111.559 96.7787 107.289 86.9387 110.779 77.1987C113.219 70.3987 118.369 66.4187 125.059 64.4987C133.669 62.0187 142.249 62.2088 150.469 66.1588C155.389 68.5288 158.989 72.2588 160.669 77.5488C161.139 79.0388 161.829 79.5988 163.289 79.3988C165.239 79.1187 166.079 79.8888 165.889 81.9388C165.739 83.5088 165.789 85.1187 165.879 86.6987C165.969 88.2287 165.349 88.9488 163.839 88.7288C161.899 88.4488 161.109 89.2887 160.279 91.0987C156.539 99.1987 150.149 103.789 141.179 104.539C139.329 104.689 137.459 104.719 136.029 104.779H136.009ZM122.029 83.7387C122.619 87.3287 122.869 90.6587 123.759 93.8087C125.339 99.4587 129.369 102.399 134.949 102.499C141.559 102.619 145.609 100.139 147.469 94.2188C149.629 87.3288 149.589 80.3087 147.219 73.4587C145.469 68.4087 141.369 65.7787 135.899 65.7787C130.019 65.7787 125.879 68.2487 124.179 73.4487C123.079 76.8187 122.709 80.4188 122.049 83.7288L122.029 83.7387Z" fill="#262626"/>
<path d="M116.281 124.609C112.091 120.349 111.871 114.449 115.181 110.289C115.581 111.529 115.631 113.519 116.631 114.349C117.921 115.429 119.971 116.029 121.711 116.059C131.701 116.219 141.701 116.019 151.701 116.219C154.601 116.279 157.671 116.809 160.321 117.929C169.441 121.799 171.281 133.199 164.061 139.989C159.991 143.819 154.941 145.629 149.601 146.629C138.811 148.649 128.061 148.319 117.411 145.659C115.371 145.149 113.351 144.259 111.531 143.189C106.841 140.459 105.671 135.609 108.811 131.169C110.251 129.139 112.391 127.599 114.261 125.889C114.801 125.399 115.491 125.089 116.271 124.589L116.281 124.609ZM137.691 145.279C140.431 145.059 143.191 144.969 145.911 144.579C150.161 143.969 154.371 143.089 157.611 139.939C160.191 137.429 160.761 134.319 159.731 130.979C158.751 127.799 156.191 126.579 153.131 126.179C152.251 126.069 151.351 126.029 150.451 126.029C143.361 126.029 136.261 126.109 129.171 126.059C126.491 126.039 123.801 125.919 121.151 125.539C119.931 125.369 119.241 125.579 118.511 126.469C113.661 132.359 115.891 140.309 123.241 143.119C127.891 144.899 132.771 145.179 137.691 145.279Z" fill="#262626"/>
<path d="M23.5 125.569V121.809H42.02V125.569H23.5Z" fill="#262626"/>
<path d="M142.689 74.4084C143.689 75.5484 144.169 76.0984 144.409 76.3684C141.469 79.5784 138.659 82.6584 135.599 86.0084C133.659 83.7784 131.919 81.7784 130.039 79.6184C130.229 79.3984 130.709 78.8684 131.309 78.1984C132.749 79.5584 134.079 80.8084 135.749 82.3784C138.039 79.7484 140.229 77.2284 142.689 74.3984V74.4084Z" fill="#A63349"/>
</g>
<defs>
<clipPath id="clip0_4938_31837">
<rect width="192" height="192" fill="white"/>
</clipPath>
</defs>
</svg>
