<svg width="192" height="192" viewBox="0 0 192 192" fill="none" xmlns="http://www.w3.org/2000/svg">
<g clip-path="url(#clip0_5298_11301)">
<path d="M96 192C149.019 192 192 149.019 192 96C192 42.9807 149.019 0 96 0C42.9807 0 0 42.9807 0 96C0 149.019 42.9807 192 96 192Z" fill="white"/>
<path d="M91.3731 107.588C90.7149 108.732 90.1581 109.68 89.626 110.642C89.4415 110.978 89.1523 110.999 88.8447 110.987C85.5228 110.873 82.1762 111.35 78.885 110.682C72.2964 109.347 67.5472 104.1 66.7136 97.339C65.96 91.2241 69.4296 84.9554 75.1631 82.0795C80.912 79.1943 87.9681 80.3201 92.6435 84.8632C92.9572 85.1677 93.2833 85.4599 93.6585 85.8075C94.2183 84.7401 93.2771 83.4729 94.2675 82.7223C95.1011 82.0887 96.0854 81.655 97.2204 81.0121C97.2204 85.9951 97.2173 90.7474 97.2204 95.4966C97.2266 100.209 97.2081 104.921 97.2758 109.63C97.2912 110.661 97.0943 111.058 95.9655 111.018C93.8954 110.941 93.8923 111.014 93.8892 108.907C93.8831 104.604 93.9323 100.301 93.8585 96.001C93.7723 91.015 91.5608 87.2162 87.0176 85.06C82.6068 82.9684 78.3467 83.5405 74.4803 86.5272C70.6046 89.5201 69.0944 94.7399 70.6385 99.5075C72.1118 104.06 76.3966 107.406 81.1827 107.566C84.4862 107.677 87.8051 107.588 91.3731 107.588Z" fill="#0B0B0B"/>
<path d="M157.242 97.4379C157.679 96.6782 158.07 96.1891 158.263 95.6324C158.752 94.2205 159.737 93.9652 161.112 94.0052C164.437 94.0975 167.771 93.9652 171.096 94.0698C172.459 94.1129 172.456 93.6638 172.163 92.5841C170.622 86.9183 164.797 83.0888 158.98 83.9839C152.862 84.9251 148.393 90.3726 148.777 96.4136C149.165 102.485 154.009 107.388 159.983 107.573C163.923 107.696 167.869 107.598 171.93 107.598C171.616 108.73 170.884 109.572 170.404 110.541C170.262 110.827 170.026 111.003 169.669 110.987C165.685 110.846 161.662 111.424 157.716 110.674C150.051 109.222 144.686 102.067 145.449 94.5281C146.264 86.4846 152.711 80.5205 160.619 80.502C168.463 80.4835 175.012 86.3339 175.845 94.1098C176.202 97.441 176.202 97.441 172.855 97.441C167.734 97.4379 162.616 97.4379 157.242 97.4379Z" fill="#0B0B0B"/>
<path d="M105.107 80.9907C105.107 82.744 105.107 84.2081 105.107 85.6507C105.667 85.8168 105.808 85.3954 106.039 85.1678C110.739 80.5478 117.109 79.2497 123.006 81.7166C128.896 84.1835 132.455 89.6094 132.476 96.1918C132.492 100.698 132.458 105.204 132.498 109.71C132.507 110.63 132.387 111.058 131.292 111.021C129.102 110.947 129.099 111.021 129.099 108.861C129.099 104.611 129.117 100.363 129.096 96.1118C129.065 89.7324 124.494 84.5434 118.401 83.9313C112.058 83.2976 106.525 87.4255 105.208 93.7741C104.944 95.0414 105.076 96.3271 105.07 97.6036C105.052 101.648 104.984 105.696 105.098 109.738C105.147 111.491 104.03 110.919 103.191 110.984C102.326 111.048 101.594 111.187 101.61 109.76C101.696 101.516 101.699 93.2728 101.631 85.0293C101.619 83.5375 101.862 82.4671 103.391 81.9473C103.901 81.772 104.353 81.4182 105.107 80.9907Z" fill="#0B0B0B"/>
<path d="M126.268 126.118C126.268 124.866 126.314 123.857 126.253 122.854C126.21 122.162 126.708 122.011 127.132 121.762C129.027 120.652 130.965 119.612 132.814 118.434C135.914 116.459 137.341 113.559 137.332 109.898C137.317 101.76 137.403 93.6176 137.277 85.4788C137.246 83.5194 137.741 82.2767 139.593 81.6339C139.913 81.5232 140.199 81.3078 140.734 81.0156C140.734 81.6985 140.734 82.1814 140.734 82.6643C140.734 91.6244 140.682 100.585 140.752 109.542C140.795 114.989 138.713 119.135 133.89 121.814C131.411 123.199 128.944 124.61 126.268 126.118Z" fill="#0B0B0B"/>
<path d="M137.329 79.1917C137.329 77.6968 137.344 76.3957 137.323 75.0946C137.313 74.544 137.569 74.384 138.067 74.424C138.421 74.4517 138.799 74.3564 139.131 74.4456C139.672 74.5932 140.663 73.9134 140.691 74.9931C140.712 75.9405 141.3 77.1554 139.885 77.7737C139.063 78.1336 138.307 78.6411 137.329 79.1917Z" fill="#171617"/>
<path fill-rule="evenodd" clip-rule="evenodd" d="M26.4037 111.384C27.5804 111.388 28.7572 111.393 29.9339 111.393C30.3773 111.393 30.8206 111.395 31.2639 111.397L31.266 111.397H31.2664H31.2667H31.2671H31.2674H31.2677H31.2681C32.155 111.401 33.0414 111.405 33.9265 111.393C34.9574 111.375 35.9919 111.4 37.0265 111.424H37.0266H37.0266H37.0267H37.0268H37.0268H37.0269C39.3783 111.479 41.7308 111.535 44.0462 111.095C56.5159 108.729 64.1995 98.0805 62.6492 85.4632C61.3881 75.1835 52.3665 66.4849 41.9884 66.0696C36.5775 65.852 31.1575 65.8741 25.7377 65.8963C22.8081 65.9082 19.8786 65.9202 16.9505 65.8943C15.9611 65.8859 15.9812 66.3398 16.0084 66.9556C16.011 67.0137 16.0136 67.0732 16.0155 67.1339C16.2308 74.6083 18.59 81.3599 22.9055 87.4348C23.5114 88.2869 23.6499 88.8682 22.9732 89.8125C18.6946 95.7736 16.3261 102.414 16.0155 109.784C15.9632 111.027 16.1385 111.455 17.4888 111.424C20.4593 111.36 23.4313 111.372 26.4037 111.384ZM54.4808 87.0576C55.2328 87.5908 55.9956 88.1317 56.8176 88.6343C56.5144 88.8551 56.2292 89.0772 55.9524 89.2929L55.9523 89.2929C55.3616 89.7531 54.8085 90.1839 54.197 90.5106C53.3246 90.9742 52.5415 91.5748 51.7594 92.1745C50.6994 92.9875 49.6412 93.799 48.365 94.2663C47.9391 94.4218 47.9116 94.702 47.8827 94.9955L47.8827 94.9955V94.9956C47.8744 95.0793 47.8661 95.1642 47.8483 95.2475C47.4054 97.3606 46.3749 99.0493 44.3387 99.9721C43.8373 100.2 43.5513 100.593 43.2529 101.009C41.3797 103.614 38.393 104.651 35.1079 103.845C32.1151 103.109 29.9004 100.698 29.4236 97.6713C29.4032 97.5386 29.406 97.3981 29.4089 97.257C29.4154 96.9306 29.422 96.6015 29.1407 96.361C27.8549 95.2598 27.0183 93.9187 26.6307 92.2516C26.4862 91.6333 25.9663 91.2703 25.4434 92.0516C22.3921 96.6224 20.3128 101.568 19.5992 107.056C19.459 108.125 20.0424 108.097 20.641 108.068C20.7383 108.063 20.836 108.059 20.9311 108.059C27.2828 108.062 33.6346 108.065 39.9863 108.052C40.8537 108.049 41.7273 107.988 42.5916 107.896C52.4037 106.834 59.6444 98.4064 59.5183 88.2037C59.3983 78.5669 51.6255 70.0743 42.0564 69.4284C37.5579 69.1249 33.0508 69.1749 28.5429 69.225C25.8783 69.2546 23.2133 69.2842 20.5497 69.2407C19.4854 69.2254 19.5285 69.7636 19.63 70.4865C20.3651 75.8016 22.3337 80.6308 25.3296 85.0601C25.3683 85.1168 25.4038 85.1803 25.4396 85.2444C25.5806 85.4963 25.727 85.758 26.0924 85.6599C26.4585 85.5615 26.6461 85.2354 26.723 84.8602C27.0306 83.3468 27.8026 82.1134 28.9807 81.1291C29.301 80.8617 29.3439 80.5187 29.3902 80.148L29.3903 80.1477C29.3951 80.1091 29.4 80.0702 29.4052 80.031C29.8604 76.6629 31.9274 74.2852 35.0433 73.5101C38.3068 72.6981 41.3428 73.7623 43.3267 76.4291C43.6066 76.8044 43.8896 77.1366 44.3295 77.3365C46.3626 78.2654 47.3931 79.951 47.8544 82.0611C47.874 82.1513 47.8752 82.2557 47.8764 82.3613C47.8796 82.6371 47.8829 82.9207 48.2143 82.9808C49.0458 83.1291 49.6265 83.6519 50.1946 84.1634L50.1946 84.1634C50.5576 84.4902 50.9154 84.8123 51.3302 85.0293C52.4428 85.6123 53.4517 86.3277 54.4808 87.0576ZM32.6387 94.0358C33.0324 92.5901 33.703 91.5997 34.6965 90.8338C35.3486 90.3293 35.9422 89.9141 36.8189 90.6461C37.5909 91.289 38.5352 91.0675 39.3934 90.5477C40.5868 89.8279 42.0387 90.4524 42.2909 91.815C42.4283 92.5558 42.8865 93.0561 43.3473 93.559C43.4643 93.6867 43.5814 93.8146 43.6935 93.9466C44.364 94.7371 44.7085 95.5584 44.0319 96.5027C43.7021 96.4975 43.6332 96.3082 43.5605 96.1087C43.5471 96.0719 43.5335 96.0347 43.5182 95.9982C42.3955 93.3283 40.1624 92.2856 37.3141 93.0115C36.8622 93.1242 36.4184 93.2775 35.971 93.432C34.9291 93.7918 33.8674 94.1584 32.6387 94.0358ZM35.1665 83.6544C34.408 83.3944 33.638 83.1305 32.7204 83.3931C33.0741 85.0264 34.0615 86.103 35.4672 86.8627C35.8578 87.0749 36.1993 87.078 36.593 86.795C37.5865 86.0784 38.5585 86.2168 39.5581 86.8812C40.364 87.4194 42.2157 86.7674 42.2403 85.9C42.2695 84.8399 42.856 84.2096 43.4786 83.5405L43.5783 83.4331C44.3043 82.6487 44.6703 81.8029 43.9567 80.7201C41.5267 84.7588 40.0564 85.2725 35.4764 83.7591C35.3731 83.7252 35.2699 83.6898 35.1665 83.6544L35.1665 83.6544L35.1665 83.6544L35.1665 83.6544L35.1665 83.6544ZM30.3888 84.8273L30.3889 84.8274C31.1864 86.132 31.9154 87.3246 33.0325 88.2286C33.377 88.5085 33.4569 88.7607 33.0601 89.0775C31.759 90.1141 30.9685 91.5382 30.2795 93.0085C29.8551 92.787 29.6797 92.5164 29.6705 92.2057C29.6274 91.0092 29.1138 90.1664 28.0556 89.5512C27.6865 89.3359 26.8868 88.8068 27.6127 88.2501C28.9292 87.2443 29.7935 86.0201 30.0827 84.3283C30.1864 84.4961 30.2881 84.6624 30.3887 84.827L30.3888 84.8273ZM46.4846 86.758C45.2942 87.1979 44.193 87.8223 42.9165 88.742C43.3256 88.9546 43.7086 89.1592 44.0751 89.3551C44.8964 89.7941 45.6349 90.1888 46.3985 90.5291C47.1028 90.8428 48.0779 91.0704 48.5147 90.3507C49.0234 89.5144 49.6878 89.4092 50.4577 89.2872L50.5786 89.2679L50.6403 89.2581C51.001 89.2013 51.5181 89.1199 51.4891 88.6405C51.4703 88.324 51.1909 88.2386 50.9092 88.1526C50.7748 88.1116 50.6398 88.0703 50.5325 88.0037C50.3403 87.8848 50.1092 87.9108 49.8776 87.9369C49.5161 87.9776 49.1536 88.0185 48.9361 87.5085C48.4316 86.3305 47.4627 86.395 46.4846 86.758ZM41.0891 80.1664C41.1014 80.7631 40.9414 81.3568 40.397 81.5998C40.037 81.7602 39.9177 81.4983 39.7973 81.2335C39.7376 81.1025 39.6777 80.9707 39.588 80.8892C39.2035 80.5355 38.7698 80.3048 38.2931 80.1141C37.8102 79.9203 37.4164 79.6004 37.2319 79.0806C36.8197 77.9271 35.9738 77.7395 35.1034 78.6315C35.0101 78.7276 34.9464 78.8578 34.8835 78.9863C34.8075 79.1416 34.7327 79.2945 34.6081 79.382C34.0176 79.8004 33.1686 80.0464 32.655 79.6958C32.2491 79.4182 32.6078 78.8888 32.8981 78.4604C32.9487 78.3856 32.9974 78.3138 33.0394 78.247C33.5408 77.4473 34.2575 76.8906 35.1372 76.5399C35.6355 76.34 36.0784 76.2169 36.426 76.8352C36.872 77.6319 37.6471 77.761 38.5053 77.8379C40.0463 77.9702 41.0552 78.9514 41.0891 80.1664ZM38.4329 99.5017C40.0508 99.3571 41.1028 98.3482 41.0843 96.7334C41.0812 96.5457 40.9367 96.0167 40.4568 95.7645C40.0554 95.5509 39.9121 95.8077 39.7653 96.0706C39.6837 96.2167 39.6011 96.3647 39.4725 96.435C39.2153 96.5741 38.9734 96.7405 38.7316 96.9068C38.5137 97.0566 38.2958 97.2065 38.0669 97.3363C37.6485 97.5731 37.1872 97.8653 37.2302 98.3359C37.3426 99.5947 36.7131 99.3868 36.1282 99.1936C36.0085 99.154 35.8907 99.1151 35.7815 99.0895C35.2678 98.9696 34.9264 98.5605 34.6895 98.0868C34.4475 97.6027 34.0414 97.6051 33.6335 97.6075C33.3831 97.609 33.132 97.6104 32.9178 97.4993C32.7302 97.4039 32.4779 97.5454 32.521 97.7946C32.7548 99.0957 33.5699 99.9538 34.6864 100.572C35.3816 100.957 36.0245 101.289 36.572 100.301C36.9431 99.631 37.6549 99.5692 38.3731 99.5069C38.393 99.5052 38.4129 99.5034 38.4329 99.5017Z" fill="#0B0B0B"/>
</g>
<defs>
<clipPath id="clip0_5298_11301">
<rect width="192" height="192" fill="white"/>
</clipPath>
</defs>
</svg>
