<svg width="192" height="192" viewBox="0 0 192 192" fill="none" xmlns="http://www.w3.org/2000/svg">
<g clip-path="url(#clip0_4938_31800)">
<path d="M96 192C149.019 192 192 149.019 192 96C192 42.9807 149.019 0 96 0C42.9807 0 0 42.9807 0 96C0 149.019 42.9807 192 96 192Z" fill="#F8600D"/>
<path d="M52.2695 42.9004V130.35H139.72V42.9004H52.2695Z" fill="black"/>
<path d="M60.3606 147.812C58.8906 147.812 57.6106 146.942 57.0306 145.682L65.3106 143.382L65.1306 142.762C64.5306 140.642 62.5606 139.172 60.3606 139.172C57.6206 139.172 55.4006 141.402 55.4006 144.132C55.4006 144.352 55.4206 144.572 55.4506 144.782L54.6406 145.002L54.9806 146.242L55.7806 146.022C56.5206 147.822 58.3006 149.092 60.3606 149.092C61.7106 149.092 62.9706 148.562 63.9106 147.592L62.9906 146.692C62.2906 147.412 61.3606 147.802 60.3606 147.802V147.812ZM56.7006 144.442C56.7006 144.332 56.6906 144.242 56.6906 144.132C56.6906 142.102 58.3406 140.452 60.3706 140.452C61.7806 140.452 63.0606 141.272 63.6706 142.502L56.7006 144.432V144.442Z" fill="black"/>
<path d="M82.7091 144.142C82.7091 141.402 80.4791 139.182 77.7491 139.182C75.0191 139.182 72.7891 141.412 72.7891 144.142C72.7891 146.872 75.0191 149.102 77.7491 149.102C79.2091 149.102 80.5091 148.462 81.4291 147.462V148.812H82.7191V144.202C82.7191 144.202 82.7191 144.162 82.7191 144.142H82.7091ZM77.7491 147.822C75.7191 147.822 74.0691 146.172 74.0691 144.142C74.0691 142.112 75.7191 140.462 77.7491 140.462C79.7791 140.462 81.4291 142.112 81.4291 144.142C81.4291 146.172 79.7791 147.822 77.7491 147.822Z" fill="black"/>
<path d="M92.4405 140.462C93.8505 140.462 95.1205 141.252 95.7405 142.522L96.8905 141.952C96.0505 140.242 94.3405 139.172 92.4405 139.172C89.7005 139.172 87.4805 141.402 87.4805 144.132V144.772H96.0605C95.7605 146.492 94.2505 147.802 92.4405 147.802C91.1005 147.802 89.8705 147.072 89.2205 145.902L88.0905 146.522C88.9605 148.102 90.6305 149.092 92.4405 149.092C95.1805 149.092 97.4005 146.862 97.4005 144.132V143.492H88.8205C89.1205 141.772 90.6305 140.462 92.4405 140.462Z" fill="black"/>
<path d="M111.12 139.182C108.38 139.182 106.16 141.412 106.16 144.142C106.16 146.872 108.39 149.102 111.12 149.102C113.85 149.102 116.08 146.872 116.08 144.142C116.08 141.412 113.85 139.182 111.12 139.182ZM111.12 147.822C109.09 147.822 107.44 146.172 107.44 144.142C107.44 142.112 109.09 140.462 111.12 140.462C113.15 140.462 114.8 142.112 114.8 144.142C114.8 146.172 113.15 147.822 111.12 147.822Z" fill="black"/>
<path d="M134.772 144.142C134.772 141.402 132.542 139.182 129.812 139.182C127.292 139.182 125.202 141.072 124.892 143.502H123.652V144.792H124.892C125.212 147.222 127.292 149.112 129.812 149.112C130.852 149.112 131.842 148.792 132.692 148.192L131.952 147.142C131.322 147.582 130.592 147.822 129.822 147.822C128.012 147.822 126.512 146.512 126.202 144.792H134.782V144.152L134.772 144.142ZM126.192 143.502C126.492 141.782 128.002 140.472 129.812 140.472C131.622 140.472 133.122 141.782 133.432 143.502H126.192Z" fill="black"/>
<path d="M101.34 133.762H100.05V139.522H98.9297V140.812H100.05V149.102H101.34V140.812H104.34V139.522H101.34V133.762Z" fill="black"/>
<path d="M68.2019 133.711H66.9219V149.101H71.1419V147.811H68.2019V133.711Z" fill="black"/>
<path d="M117.59 149.102H118.88V140.792H121.72V139.512H117.59V149.102Z" fill="black"/>
<path d="M85.5713 148.9C86.1456 148.9 86.6113 148.435 86.6113 147.86C86.6113 147.286 86.1456 146.82 85.5713 146.82C84.9969 146.82 84.5312 147.286 84.5312 147.86C84.5312 148.435 84.9969 148.9 85.5713 148.9Z" fill="black"/>
<path d="M129.21 85.0195C129.21 104.12 113.67 119.71 94.5602 119.71C75.4502 119.71 59.9102 104.13 59.9102 85.0195H79.6802C79.6802 93.2195 86.3602 99.8995 94.5602 99.8995C102.76 99.8995 109.4 93.2195 109.4 85.0195H129.21Z" fill="white"/>
<path d="M102.909 86.8098C102.909 87.8898 102.019 88.7798 100.939 88.7798C99.8588 88.7798 98.9688 87.8898 98.9688 86.8098C98.9688 85.7298 99.8588 84.8398 100.939 84.8398C102.019 84.8398 102.909 85.7298 102.909 86.8098Z" fill="white"/>
</g>
<defs>
<clipPath id="clip0_4938_31800">
<rect width="192" height="192" fill="white"/>
</clipPath>
</defs>
</svg>
