<svg width="192" height="192" viewBox="0 0 192 192" fill="none" xmlns="http://www.w3.org/2000/svg">
<g clip-path="url(#clip0_4937_31712)">
<path d="M96 192C149.019 192 192 149.019 192 96C192 42.9807 149.019 0 96 0C42.9807 0 0 42.9807 0 96C0 149.019 42.9807 192 96 192Z" fill="white"/>
<path d="M96.5808 118.41C92.7608 114.59 89.0908 110.63 84.5908 107.74C81.5408 105.8 78.2408 104.4 74.9008 103.53C71.9808 102.78 68.9408 101.84 65.7908 102.3C65.6508 98.9102 74.0308 96.3002 76.4208 95.4602C80.3708 94.0702 84.3308 94.4902 88.3108 94.5802C91.1608 94.6402 93.6908 95.9702 96.2208 97.0802C102.351 99.7702 105.911 105.44 110.741 109.62C113.951 112.37 118.811 112.83 122.251 109.62C123.251 108.68 124.061 109.56 124.421 110.27C125.391 112.15 127.171 113.25 128.541 114.71C129.061 115.26 129.741 115.23 130.321 114.52C131.781 112.83 133.531 111.44 134.891 109.69C135.381 109.07 136.191 108.94 136.581 109.88C137.171 111.22 139.141 111.26 140.401 111.66C142.061 112.19 143.821 111.81 145.331 110.98C147.051 110.04 148.771 109.2 149.641 107.06C151.001 103.72 151.101 100.51 149.151 97.6002C147.301 94.8502 144.551 93.2902 141.021 93.6502C139.531 93.7802 138.301 94.5902 137.071 95.2402C135.871 95.8902 134.901 95.9202 133.891 94.8802C132.791 93.7102 131.561 92.6402 130.491 91.4102C129.551 90.3102 128.871 90.5302 128.031 91.4702C126.991 92.6402 125.861 93.6702 124.761 94.7802C123.591 95.9102 121.781 96.0802 120.551 94.9402C118.441 93.0302 116.211 93.4202 113.841 94.1902C111.731 94.9002 110.471 96.5902 108.951 97.9802C108.331 98.5302 107.331 99.6002 106.971 99.2402C106.321 98.5902 105.451 98.4302 104.831 97.7802C100.681 93.5302 96.4708 89.3902 92.2908 85.2102C89.6608 82.5802 87.0408 79.9602 84.4108 77.3002C84.1808 77.0402 83.6608 76.8802 83.8308 76.4602C84.0208 75.9702 84.5408 76.0402 84.9608 76.0402H85.7708C104.661 76.0402 123.561 76.1002 142.451 76.0102C147.641 75.9802 152.371 77.4402 156.581 80.1602C159.461 82.0102 161.831 84.5702 163.941 87.4502C165.691 89.8502 166.861 92.4702 167.601 95.1002C168.671 98.8602 168.671 102.85 168.221 106.83C167.641 111.79 165.561 116.13 162.451 119.83C159.571 123.27 156.071 125.96 151.661 127.67C146.961 129.48 142.291 129.61 137.531 129.19C135.911 129.03 134.321 128.41 132.771 127.73C131.151 127.02 129.371 126.92 127.681 127.96C127.421 128.12 127.101 128.28 126.801 128.32C123.431 128.77 120.091 129.94 116.621 129.36C112.231 128.62 107.421 127.68 103.861 124.91C103.521 124.65 103.181 124.38 102.851 124.12C100.631 122.37 98.5908 120.41 96.5908 118.41H96.5808Z" fill="#9E162E"/>
<path d="M65.8295 102.26C68.9695 101.81 72.0495 102.75 74.9395 103.49C78.2795 104.37 81.5795 105.76 84.6295 107.7C85.9895 108.58 87.1595 109.97 88.8795 110.33C88.9795 110.36 88.9795 110.69 89.0395 110.88C84.0795 110.91 79.1195 110.98 74.1595 110.98C67.3595 110.98 60.5595 110.99 53.7595 111.02C47.0495 111.04 40.4095 111.35 33.8095 109.88C29.9895 109.04 26.8395 106.8 24.9595 103.07C23.2395 99.7004 23.0795 96.1304 24.2495 92.7604C25.2195 89.9404 27.1995 87.5704 29.9895 86.0504C42.3395 79.3004 57.5595 83.6504 70.8895 81.6704C72.6395 81.4104 74.2595 80.2404 75.9495 79.4704C77.0795 78.9204 78.2495 78.4004 79.0595 77.3304C79.3195 76.9704 79.7095 76.7504 80.1895 76.9104C80.7095 77.0704 80.6395 77.5904 80.6795 78.0104C80.8095 81.2804 80.5495 84.5204 78.6695 87.3104C77.8895 88.4404 76.9495 89.7104 75.2995 90.1304C74.2295 90.3904 73.4195 91.3004 72.2895 91.6504C64.1895 94.2004 55.5995 93.5604 47.2495 93.0904C42.1295 92.8004 33.3095 91.5204 29.3495 95.6404C28.5395 96.4804 28.5995 98.1004 29.2895 98.9804C30.1295 100.08 31.2995 100.96 32.8895 101.35C40.2495 103.1 47.6695 101.87 55.0595 102.19C58.5895 102.42 62.2195 102.25 65.8495 102.25L65.8295 102.26Z" fill="#9E162E"/>
<path d="M96.3588 118.631C97.2388 119.471 98.2088 120.221 98.9888 121.161C99.9588 122.291 101.259 122.911 102.359 123.791C102.719 124.081 102.679 124.411 102.749 124.761C102.099 126.091 100.809 126.741 99.6388 127.421C97.0088 128.941 94.1288 129.531 91.0488 129.491C76.7888 129.431 62.5588 129.431 48.2988 129.491C46.5188 129.491 45.2488 129.071 44.1788 127.611C42.5288 125.341 39.9988 123.921 38.2188 121.741C38.1888 121.711 38.0888 121.711 38.0888 121.681C37.6688 121.161 36.8288 120.551 36.9588 120.191C37.2188 119.411 38.1588 119.771 38.8088 119.771C56.3388 119.741 73.9088 119.771 91.4388 119.741C93.1588 119.741 94.9688 120.031 96.3688 118.641L96.3588 118.631Z" fill="#9E162E"/>
<path d="M25.6405 85.47C23.4005 82.79 29.3805 77.82 31.0005 76.3C35.0005 72.53 39.6605 70.46 45.1205 69.68C54.3605 68.35 63.3205 70.43 72.2805 67.23C74.5505 66.42 77.0105 65.38 78.6005 63.21C78.9605 62.72 79.4405 62.3 80.1205 62.56C80.8005 62.85 80.5105 63.5 80.4805 63.99C80.2205 67.33 79.1505 70.28 76.8205 72.81C74.7805 75.05 72.4105 76.83 69.5605 77.77C67.6805 78.39 65.6405 78.35 63.6305 78.32C50.3705 78.11 38.0305 76.5 26.5205 84.25C26.1305 84.51 25.7705 84.87 25.6405 85.48V85.47Z" fill="#9E162E"/>
<path d="M133.919 102.679C134.369 105.049 132.589 106.119 131.169 107.439C129.059 109.419 129.289 109.219 127.249 107.669C123.939 105.109 124.169 100.569 127.479 97.5893C129.229 96.0293 129.289 95.9693 130.949 97.6493C131.469 98.1993 131.989 98.7493 132.569 99.2393C133.669 100.149 134.129 101.279 133.929 102.679H133.919Z" fill="#E4A927"/>
</g>
<defs>
<clipPath id="clip0_4937_31712">
<rect width="192" height="192" fill="white"/>
</clipPath>
</defs>
</svg>
