<svg width="192" height="192" viewBox="0 0 192 192" fill="none" xmlns="http://www.w3.org/2000/svg">
<g clip-path="url(#clip0_4934_36841)">
<path d="M96 192C149.019 192 192 149.019 192 96C192 42.9807 149.019 0 96 0C42.9807 0 0 42.9807 0 96C0 149.019 42.9807 192 96 192Z" fill="white"/>
<path d="M80.7497 134.235C80.6897 136.515 80.6297 138.765 80.5597 141.015H72.7597V134.245H68.4797V138.775L68.4397 140.495C68.4397 140.495 68.4397 140.545 68.4397 140.575C68.4397 140.645 68.4397 140.715 68.4397 140.785C68.4097 141.825 68.3797 142.875 68.3497 143.915C68.2897 146.135 68.2397 148.345 68.1797 150.565C68.1797 150.855 68.1797 151.145 68.1797 151.465H72.4197C72.4797 149.125 72.5397 146.795 72.6097 144.455H80.4097V151.455H84.5997C84.7497 145.695 84.8897 139.965 85.0397 134.235H80.7597H80.7497Z" fill="#001847"/>
<path d="M102.84 148.505C101.6 146.775 100.69 144.765 98.5901 143.695C100.24 143.185 101.63 142.435 102.41 140.925C103.15 139.485 103.1 138.015 102.46 136.605C101.12 134.235 97.7902 134.285 97.7902 134.285L94.7902 134.225H89.3401C89.2001 139.995 89.0502 145.705 88.9102 151.445H93.1802C93.2402 149.235 93.3002 147.055 93.3602 144.945C94.9302 144.565 95.9501 145.205 96.7001 146.425C96.7901 146.565 96.8902 146.705 96.9802 146.845C97.9002 148.275 98.8102 149.715 99.7502 151.135C99.8702 151.315 100.15 151.465 100.36 151.475C101.29 151.515 102.23 151.495 103.17 151.495H104.87C104.15 150.435 103.53 149.465 102.85 148.525L102.84 148.505ZM98.0102 140.675C97.6102 141.255 97.0602 141.685 96.3801 141.785C95.4302 141.925 94.4602 141.925 93.5102 141.995V137.025C94.6902 137.115 95.8302 137.075 96.9002 137.315C98.3902 137.645 98.9102 139.375 98.0002 140.685L98.0102 140.675Z" fill="#001847"/>
<path d="M118.8 134.365C118.51 134.265 118.23 134.185 117.84 134.065C117.84 134.065 117.81 134.065 117.79 134.055C115.57 133.585 113.77 133.735 112.37 134.115C110.6 134.595 109.46 135.455 108.93 135.915C108.7 136.115 108.51 136.345 108.3 136.535C108.3 136.535 108.3 136.535 108.3 136.545C106.23 138.655 105.55 141.235 105.72 144.105C105.85 146.345 106.7 148.275 108.45 149.685C111.67 152.275 115.31 152.435 118.98 150.945C122.43 149.545 124.05 146.715 124.32 143.035C124.61 138.985 122.48 135.585 118.81 134.355L118.8 134.365ZM119.41 145.205C118.71 147.405 116.91 148.565 114.5 148.455C112.46 148.355 110.85 146.985 110.37 144.825C109.99 143.145 110.09 141.475 110.86 139.905C111.99 137.615 114.61 136.595 116.99 137.535C118.78 138.235 119.49 139.725 119.74 141.515C119.8 141.905 119.79 142.295 119.82 142.685C119.85 142.685 119.88 142.695 119.9 142.705C119.74 143.545 119.67 144.415 119.41 145.215V145.205Z" fill="#001847"/>
<path d="M31.4302 151.444C31.5702 145.684 31.7202 139.984 31.8602 134.234H36.1202C36.0602 136.884 36.0002 139.534 35.9402 142.174C35.9702 142.184 36.0102 142.204 36.0402 142.214C36.2502 141.884 36.4502 141.544 36.6902 141.224C38.3702 138.984 40.0602 136.734 41.7602 134.504C41.8802 134.354 42.1002 134.194 42.2802 134.194C43.8302 134.174 45.3802 134.184 47.0702 134.184C44.7602 136.974 42.5202 139.684 40.2402 142.424C42.5102 145.364 44.7602 148.284 47.0702 151.284C47.5202 150.244 47.9302 149.284 48.3302 148.324C50.2702 143.774 52.2202 139.214 54.1402 134.654C54.3002 134.274 54.4902 134.164 54.8802 134.174C56.2502 134.194 57.6102 134.184 58.9802 134.174C59.2602 134.174 59.4402 134.204 59.5602 134.534C61.5802 140.104 63.6202 145.654 65.6602 151.214C65.6802 151.264 65.6802 151.324 65.7002 151.454C64.5902 151.454 63.4902 151.454 62.4002 151.454C61.5202 151.454 60.9468 151.038 60.6802 150.204C60.4502 149.474 60.2202 148.744 59.9602 148.024C59.9002 147.874 59.7102 147.664 59.5802 147.654C57.4102 147.634 55.2402 147.634 53.0502 147.634C52.6202 148.774 52.1902 149.894 51.7902 151.014C51.6702 151.354 51.5002 151.454 51.1502 151.454C48.1802 151.444 45.2002 151.454 42.2302 151.434C42.0002 151.434 41.7002 151.274 41.5602 151.084C39.9002 148.794 38.2702 146.494 36.6302 144.194C36.4002 143.864 36.2102 143.494 35.8902 143.144C35.8202 145.904 35.7502 148.654 35.6802 151.434H31.4102L31.4302 151.444ZM58.9202 144.614C58.1502 142.184 57.4002 139.804 56.7002 137.604C55.8802 139.814 55.0002 142.204 54.1002 144.614H58.9202Z" fill="#001847"/>
<path d="M137.579 142.196C137.979 142.306 138.399 142.386 138.799 142.516C141.849 143.546 142.719 147.016 140.519 149.386C139.379 150.616 137.909 151.246 136.289 151.336C133.769 151.466 131.239 151.436 128.719 151.476C128.269 151.476 127.829 151.476 127.309 151.476C127.449 145.706 127.599 139.976 127.739 134.226C127.909 134.216 128.039 134.196 128.169 134.196C130.529 134.196 132.889 134.126 135.239 134.226C136.419 134.276 137.619 134.526 138.739 134.876C140.089 135.306 140.999 136.266 141.149 137.756C141.289 139.196 140.669 140.316 139.519 141.116C138.929 141.526 138.259 141.816 137.579 142.186V142.196ZM131.739 148.566C132.499 148.566 133.289 148.596 134.059 148.556C134.589 148.526 135.149 148.456 135.649 148.286C136.699 147.936 137.279 147.076 137.219 146.086C137.159 145.156 136.529 144.386 135.429 144.226C134.239 144.056 133.029 144.076 131.739 144.006V148.566ZM131.939 141.106C132.769 141.106 133.629 141.156 134.479 141.086C134.919 141.046 135.389 140.846 135.769 140.606C136.479 140.176 136.709 139.476 136.619 138.666C136.519 137.886 135.989 137.446 135.289 137.336C134.209 137.166 133.119 137.116 131.939 137.006V141.106Z" fill="#001847"/>
<path d="M161.431 151.476C159.931 151.476 158.531 151.486 157.121 151.456C156.961 151.456 156.711 151.236 156.651 151.066C156.301 150.086 156.001 149.076 155.661 148.096C155.601 147.926 155.401 147.686 155.261 147.686C153.091 147.656 150.921 147.666 148.741 147.666C148.311 148.806 147.881 149.926 147.481 151.046C147.361 151.386 147.201 151.496 146.841 151.486C145.481 151.466 144.121 151.486 142.691 151.486C143.081 150.556 143.441 149.696 143.801 148.846C145.801 144.136 147.821 139.436 149.811 134.716C149.971 134.326 150.161 134.186 150.581 134.196C152.071 134.226 153.571 134.206 155.101 134.206C157.201 139.946 159.301 145.676 161.421 151.486L161.431 151.476ZM149.761 144.616H154.581C153.811 142.196 153.061 139.806 152.361 137.606C151.541 139.816 150.661 142.186 149.761 144.616Z" fill="#001847"/>
<path d="M68.2891 139.365C68.3991 139.425 68.5091 139.495 68.6191 139.555C68.6491 139.565 68.6691 139.575 68.6891 139.575C68.5591 139.515 68.4291 139.445 68.2891 139.365Z" fill="#001847"/>
<path d="M134.009 101.955C132.859 94.435 129.599 87.825 124.669 82.045C117.849 74.035 109.129 69.555 98.7195 68.315C97.7895 68.205 96.8495 68.125 95.7595 68.015C96.7995 67.245 97.7395 66.585 98.6495 65.895C104.149 61.695 109.639 57.495 115.129 53.295C117.909 51.165 120.679 49.045 123.439 46.895C124.199 46.305 124.149 45.995 123.319 45.525C121.019 44.225 118.739 42.875 116.419 41.615C114.079 40.345 111.709 39.135 109.329 37.925C109.019 37.765 108.639 37.695 108.299 37.695C97.8895 37.685 87.4795 37.685 77.0695 37.695C76.7395 37.695 76.3695 37.745 76.0795 37.885C74.3395 38.745 72.5795 39.585 70.8795 40.525C67.9495 42.165 65.0595 43.885 62.1495 45.585C61.8695 45.745 61.6395 45.995 61.3095 46.275C70.7495 53.695 80.0795 61.075 89.7395 68.035C89.6695 68.105 89.6395 68.145 89.6095 68.145C89.4195 68.175 89.2395 68.205 89.0495 68.225C85.5995 68.555 82.2095 69.185 78.8995 70.225C69.2595 73.275 61.6895 79.005 56.5695 87.765C51.3595 96.675 49.8495 106.275 51.9595 116.355C53.9395 125.775 58.7895 133.235 66.7495 138.425C67.2395 138.745 67.7495 139.065 68.2695 139.365C68.4095 139.435 68.5395 139.505 68.6695 139.575C71.3395 140.905 72.7295 140.495 72.7295 140.495C72.7295 140.495 71.2695 139.755 71.2695 139.735C70.3695 139.345 69.6395 138.915 69.0595 138.515C69.0595 138.505 69.0595 138.495 69.0595 138.495C68.7995 138.305 68.6695 138.235 68.5595 138.135C67.0295 136.645 65.3695 135.275 63.9995 133.655C58.5095 127.135 55.9495 119.505 55.8895 111.035C55.8595 105.905 56.8595 100.975 58.9295 96.265C61.6995 89.985 65.8695 84.865 71.6595 81.135C75.6695 78.545 80.0595 76.945 84.7495 76.115C89.7795 75.225 94.8095 75.065 99.8495 76.035C106.299 77.275 111.889 80.155 116.569 84.775C118.539 86.725 120.209 88.915 121.729 91.225C124.659 95.675 126.549 100.515 127.009 105.835C127.399 110.405 126.709 114.845 124.839 119.065C124.089 120.765 123.179 122.335 122.099 123.775C120.759 125.565 119.139 127.135 117.219 128.445C114.169 130.515 110.789 131.395 107.099 131.385C101.649 131.355 96.9195 129.675 93.0395 125.965C92.7795 125.715 92.5295 125.465 92.2795 125.205C86.1295 118.705 85.7595 108.735 91.3995 101.765C91.4795 101.665 91.5395 101.545 91.6095 101.435C91.5595 101.385 91.5095 101.345 91.4595 101.295C90.5195 102.165 89.4995 102.955 88.6595 103.915C84.9195 108.195 83.8095 113.255 84.7195 118.735C85.1895 121.605 86.1495 124.145 87.5495 126.375C88.2695 127.515 89.0995 128.575 90.0495 129.555C90.0695 129.575 90.0895 129.595 90.1095 129.615C92.6895 132.195 97.2195 135.465 103.969 136.115H108.799C112.249 135.805 116.139 134.835 120.519 132.895C120.609 132.855 120.689 132.815 120.779 132.775C124.119 130.975 126.949 128.555 129.089 125.355C129.579 124.625 130.029 123.895 130.439 123.155C134.109 116.615 135.119 109.475 133.969 101.955H134.009ZM91.3695 68.075C85.7895 62.215 80.6595 55.995 75.1495 50.095C78.3795 54.465 82.1395 58.405 85.3995 62.925C83.3995 62.495 66.6695 47.915 66.3195 46.355C67.4995 46.355 68.6295 46.355 69.7595 46.355C73.9095 46.385 78.0695 46.425 82.2195 46.445C82.5995 46.445 82.7795 46.565 82.9195 46.925C84.4195 50.615 85.9395 54.295 87.4395 57.975C88.7395 61.155 90.0195 64.335 91.3095 67.525C91.3795 67.685 91.4095 67.855 91.3695 68.085V68.075ZM93.3095 68.055C92.7695 68.015 92.2195 68.055 91.5595 68.055C91.7695 61.615 91.9295 55.185 92.5895 48.795C92.6595 48.795 92.7395 48.795 92.8095 48.795C92.8895 49.635 92.9895 50.465 93.0395 51.305C93.2795 55.465 93.4995 59.635 93.7195 63.795C93.7795 65.025 93.7995 66.245 93.8595 67.475C93.8795 67.895 93.7895 68.105 93.3095 68.065V68.055ZM94.0895 67.925C94.1495 67.725 94.1895 67.525 94.2595 67.345C96.7495 61.185 99.2395 55.035 101.729 48.885C101.979 48.255 102.249 47.635 102.469 46.985C102.609 46.575 102.819 46.445 103.249 46.445C107.439 46.465 111.639 46.445 115.829 46.445C116.899 46.445 117.979 46.445 119.159 46.445C118.969 46.695 118.799 46.975 118.579 47.195C117.029 48.695 115.499 50.195 113.909 51.655C111.199 54.145 108.509 56.665 105.719 59.065C104.149 60.415 102.409 61.555 100.729 62.785C100.559 62.915 100.349 62.985 100.149 63.085C100.109 63.045 100.079 63.015 100.039 62.975C100.139 62.815 100.209 62.635 100.329 62.495C102.119 60.345 103.929 58.225 105.689 56.055C107.279 54.085 108.809 52.075 110.359 50.075C110.409 50.005 110.449 49.935 110.499 49.865C110.459 49.835 110.429 49.805 110.399 49.785C105.019 55.855 99.6395 61.935 94.2495 68.005C94.1995 67.975 94.1395 67.955 94.0895 67.925Z" fill="#001847"/>
</g>
<defs>
<clipPath id="clip0_4934_36841">
<rect width="192" height="192" fill="white"/>
</clipPath>
</defs>
</svg>
