<svg width="192" height="192" viewBox="0 0 192 192" fill="none" xmlns="http://www.w3.org/2000/svg">
<g clip-path="url(#clip0_4938_31870)">
<path d="M96 192C149.019 192 192 149.019 192 96C192 42.9807 149.019 0 96 0C42.9807 0 0 42.9807 0 96C0 149.019 42.9807 192 96 192Z" fill="white"/>
<path d="M26 133.958C26.0787 133.811 26.1432 133.658 26.1928 133.499C26.4399 132.308 27.0736 131.237 27.9919 130.457C28.9103 129.678 30.0596 129.236 31.2548 129.203C32.2099 129.165 33.1653 129.267 34.092 129.505V131.014C33.9246 130.928 33.7805 130.857 33.6386 130.781C32.719 130.279 31.6524 130.131 30.634 130.363C29.8914 130.531 29.2205 130.935 28.7184 131.516C28.2164 132.098 27.9092 132.827 27.8413 133.598C27.7724 134.197 27.7831 134.802 27.8731 135.398C28.1952 137.292 29.5089 138.437 31.4604 138.592C32.2287 138.641 32.9988 138.529 33.7233 138.264C33.7465 138.147 33.7628 138.029 33.7721 137.911C33.7721 137.264 33.7721 136.636 33.7721 136C33.7721 135.441 33.717 134.9 33.2741 134.413H35.0688V139.256L33.6492 139.537L32.613 139.752H30.9815C30.723 139.683 30.4687 139.599 30.2081 139.547C28.1189 139.138 26.6547 137.684 26.1928 135.556C26.1424 135.397 26.0778 135.243 26 135.096V133.958Z" fill="black"/>
<path d="M166 129.511C165.88 129.688 165.75 129.86 165.638 130.044C164.714 131.553 163.797 133.063 162.869 134.559C162.71 134.802 162.628 135.089 162.634 135.381C162.653 136.138 162.634 136.89 162.634 137.654C162.634 138.264 162.682 138.857 163.157 139.441C162.271 139.441 161.479 139.441 160.593 139.441C161.131 138.768 161.106 138.042 161.106 137.321C161.106 136.651 161.106 135.978 161.106 135.307C161.113 135.067 161.049 134.829 160.922 134.626C160.169 133.401 159.438 132.157 158.669 130.943C158.343 130.427 157.925 129.97 157.506 129.433C157.745 129.433 157.97 129.433 158.197 129.433C158.633 129.444 159.072 129.461 159.51 129.474C159.735 129.839 159.964 130.199 160.182 130.565C160.724 131.48 161.261 132.398 161.799 133.313C161.883 133.457 161.975 133.595 162.089 133.778C162.201 133.612 162.301 133.492 162.369 133.362C162.832 132.602 163.295 131.84 163.757 131.076C163.782 131.033 163.81 130.99 163.835 130.945C164.117 130.468 164.329 129.987 163.767 129.416H165.992L166 129.511Z" fill="black"/>
<path d="M53.4429 66.0539C53.6293 65.6226 53.7967 65.2582 53.9577 64.8808C54.002 64.7784 54.0762 64.6924 54.1702 64.6345C54.2643 64.5766 54.3736 64.5497 54.4832 64.5574C55.9368 64.4603 57.3903 64.3525 58.8418 64.2468C60.6344 64.1153 62.4248 63.973 64.2153 63.8544C66.1096 63.7271 68.0038 63.6193 69.896 63.505C70.4045 63.4748 70.9109 63.4382 71.4195 63.4166C71.767 63.4015 71.9047 63.4986 72.0001 63.7897C72.0954 64.0808 72.017 64.2619 71.7331 64.4366C71.5868 64.526 71.4312 64.5983 71.269 64.6522C70.7471 64.8182 70.294 65.1557 69.9808 65.6119C69.6928 65.9952 69.4363 66.402 69.2137 66.8281C66.7918 71.665 64.2704 76.4479 61.7044 81.2072C61.6725 81.2772 61.6449 81.3493 61.6218 81.4228L70.1503 85.8845L70.6461 85.5049C76.6468 80.8542 82.7442 76.3408 88.9384 71.9647C92.2007 69.6408 95.6646 67.6248 99.2871 65.9418C103.08 64.1808 107.105 62.9909 111.235 62.4096C112.761 62.1939 114.301 62.0969 115.838 61.9783C117.089 61.8654 118.349 61.9578 119.571 62.2521C119.116 62.2176 118.781 62.1853 118.444 62.1659C117.338 62.1033 116.247 62.2672 115.155 62.4096C107.809 63.3756 101.243 66.345 95.1277 70.4789C91.6951 72.8014 88.449 75.3762 85.2325 77.9919C82.586 80.1484 79.9353 82.2832 77.2951 84.4612C76.098 85.4489 74.9517 86.5012 73.7842 87.5234C73.7424 87.5687 73.7049 87.6178 73.6719 87.67C73.7566 87.7304 73.8287 87.7929 73.9113 87.8404C79.1266 90.7702 84.3475 93.6994 89.5741 96.6278C94.92 99.6468 100.291 102.61 105.837 105.236C110.53 107.457 115.323 109.448 120.298 110.929C123.283 111.838 126.335 112.503 129.424 112.917C134.484 113.564 139.51 113.45 144.419 111.917C152.57 109.375 158.564 104.223 162.4 96.4596C163.606 94.0121 164.307 91.3812 164.788 88.6965C165.066 87.1201 165.269 85.5308 165.509 83.9523C165.525 83.865 165.546 83.7786 165.572 83.6935C165.572 84.5928 165.604 85.3756 165.572 86.1562C165.444 89.1895 164.94 92.1942 164.072 95.0989C161.582 103.203 156.891 109.597 149.733 114.03C146.226 116.182 142.312 117.555 138.247 118.058C135.521 118.406 132.766 118.446 130.032 118.179C125.006 117.722 120.167 116.454 115.412 114.776C109.881 112.836 104.582 110.338 99.3803 107.628C93.6042 104.622 87.9998 101.299 82.355 98.0532C78.3292 95.7394 74.2694 93.4902 70.2265 91.213C70.11 91.1462 69.9871 91.0923 69.843 91.0189C69.4659 91.3187 69.0908 91.6119 68.7221 91.9139C66.6491 93.6336 64.4754 95.2237 62.2129 96.6753C58.5578 98.9977 54.765 101.048 50.6629 102.454C50.5362 102.495 50.4191 102.562 50.3189 102.651C50.2186 102.739 50.1374 102.848 50.0802 102.97C48.9529 105.094 47.8469 107.229 46.6773 109.325C45.4822 111.468 44.2681 113.603 42.9756 115.686C41.7191 117.713 39.8841 118.902 37.4982 119.063C36.2269 119.15 34.9259 119.145 33.6398 119.167C33.2287 119.167 33.199 119.111 33.2393 118.587C34.8157 117.94 35.9621 116.717 37.0279 115.41C38.1168 114.044 39.1115 112.603 40.0049 111.097C41.3355 108.917 42.681 106.744 43.8613 104.471C43.946 104.309 44.0265 104.143 44.1367 103.919C43.9503 103.919 43.8231 103.919 43.6981 103.919C40.1617 104.085 36.746 103.522 33.6122 101.829C31.1187 100.485 29.0928 98.3921 27.8107 95.8342C27.3002 94.84 26.9361 93.7749 26.7301 92.6729C26.2194 89.9515 26.6284 87.3573 27.7895 84.8753C28.7347 82.8785 30.104 81.1203 31.7984 79.7279C34.731 77.2825 38.1254 75.9929 41.8737 75.6134C46.2662 75.167 50.434 76.0447 54.443 77.8345C55.3096 78.2205 56.1656 78.6389 57.0259 79.0443L57.5111 79.275C57.5938 79.1521 57.6764 79.0594 57.74 78.9364C59.1024 76.435 60.4945 73.9443 61.8125 71.4213C62.3802 70.3604 62.7989 69.2236 63.0562 68.0443C63.1014 67.8078 63.1213 67.5671 63.1156 67.3262C63.1204 67.021 63.0307 66.7219 62.8592 66.4715C62.6877 66.2211 62.443 66.032 62.16 65.931C61.3648 65.6237 60.5092 65.5136 59.6639 65.6097L53.6844 66.0733C53.6036 66.0716 53.5229 66.0651 53.4429 66.0539ZM55.388 83.2515C55.2524 83.1846 55.1761 83.1307 55.0765 83.0962C51.9618 81.8584 48.7855 80.86 45.4547 80.4352C43.3231 80.1635 41.1978 80.1268 39.0853 80.571C36.0786 81.2072 33.6694 82.7512 31.9891 85.4079C31.1919 86.7036 30.8208 88.224 30.9297 89.7488C31.0272 91.7974 31.7963 93.5894 33.0698 95.1657C34.2373 96.6106 35.729 97.6068 37.3775 98.3745C40.2168 99.6964 43.1832 99.884 46.2259 99.3665C46.3819 99.3452 46.53 99.2837 46.656 99.1878C46.7821 99.092 46.8821 98.9649 46.9464 98.8187C49.6557 93.7957 52.3806 88.777 55.121 83.7625C55.2015 83.6137 55.2799 83.4628 55.388 83.2558V83.2515ZM53.3221 96.8909C55.1358 96.4165 63.4609 91.0685 66.0354 88.897C65.6413 88.5498 59.9881 85.326 59.5601 85.216C57.492 89.0932 55.4198 92.9727 53.3221 96.8909Z" fill="black"/>
<path d="M152.573 69.431C151.855 70.5373 151.133 71.6715 150.372 72.8684C150.55 72.8921 150.671 72.9115 150.796 72.9223C151.605 72.9934 152.415 73.0495 153.222 73.1379C153.507 73.1774 153.786 73.2498 154.055 73.3536C154.211 73.4145 154.355 73.5052 154.478 73.621C154.557 73.6747 154.613 73.7577 154.633 73.8524C154.652 73.9471 154.635 74.0459 154.584 74.1277C154.532 74.1768 154.47 74.2141 154.402 74.2371C154.335 74.2602 154.263 74.2684 154.192 74.2614C153.872 74.2334 153.557 74.1385 153.241 74.104C152.247 73.9962 151.253 73.9056 150.262 73.8043C150.138 73.7835 150.01 73.8048 149.899 73.8648C149.788 73.9248 149.7 74.0202 149.647 74.1363C146.389 79.6865 143.448 85.4227 140.837 91.3166C140.171 92.8076 139.619 94.3482 139.184 95.9249C138.835 97.1352 138.715 98.4017 138.828 99.6577C138.848 99.863 138.883 100.066 138.934 100.266C139.248 101.491 140.119 102.09 141.36 101.954C142.134 101.858 142.889 101.643 143.6 101.318C145.268 100.554 146.853 99.614 148.329 98.5148C151.355 96.327 154.22 93.9184 156.902 91.308C158.835 89.4492 160.697 87.5148 162.562 85.5848C163.272 84.8495 163.899 84.0279 164.564 83.2473C164.682 83.101 164.812 82.9648 164.952 82.8397C165.164 82.6607 165.376 82.6586 165.497 82.8052C165.56 82.8962 165.591 83.0071 165.583 83.1185C165.574 83.23 165.528 83.335 165.452 83.4155C165.268 83.6311 165.075 83.8468 164.886 84.0797C161.028 88.675 156.883 92.9814 152.298 96.8349C150.141 98.6485 147.878 100.315 145.39 101.644C144.039 102.399 142.587 102.952 141.081 103.287C139.935 103.55 138.744 103.531 137.608 103.231C136.042 102.785 135.152 101.721 134.887 100.098C134.633 98.5601 134.91 97.0786 135.345 95.6122C136.03 93.3549 136.985 91.1917 138.188 89.171C138.315 88.9553 138.434 88.7397 138.555 88.5241L138.466 88.4658C138.351 88.6038 138.237 88.7419 138.127 88.882C135.692 91.9894 133.075 94.92 130.098 97.5078C128.888 98.5881 127.583 99.5531 126.2 100.391C125.212 100.971 124.191 101.469 123.047 101.631C122.678 101.679 122.304 101.675 121.936 101.62C121.556 101.569 121.196 101.413 120.896 101.169C120.595 100.926 120.365 100.604 120.231 100.238C119.946 99.515 119.831 98.7344 119.896 97.9584C119.983 96.5455 120.293 95.1562 120.816 93.844C121.087 93.1194 121.411 92.4164 121.712 91.7048C121.777 91.5711 121.809 91.4229 121.805 91.2735L121.292 91.7048C119.173 93.4299 116.997 95.0667 114.586 96.3519C112.452 97.5219 110.128 98.2891 107.725 98.6162C106.14 98.8189 104.547 98.9073 102.985 98.4501C102.498 98.3073 102.029 98.1053 101.589 97.8485C100.476 97.2015 99.9191 96.1729 99.8111 94.8877C99.748 93.8532 99.8701 92.8157 100.171 91.8256C100.773 89.7952 101.564 87.8282 102.534 85.9514C104.066 82.8548 105.831 79.894 107.594 76.9311C108.577 75.2814 109.59 73.649 110.56 71.9929C111.401 70.4951 112.771 69.3799 114.391 68.8747C114.828 68.7366 115.251 68.562 115.688 68.4304C115.854 68.3906 116.027 68.3891 116.194 68.4261C116.271 68.4317 116.346 68.4555 116.413 68.4955C116.479 68.5355 116.536 68.5907 116.578 68.6568C116.62 68.7228 116.647 68.7979 116.656 68.8761C116.664 68.9543 116.655 69.0336 116.629 69.1075C116.521 69.4517 116.374 69.7818 116.19 70.0909C114.883 72.2667 113.535 74.4167 112.257 76.6098C111.622 77.7052 111.098 78.8697 110.528 80.0062C109.096 82.8591 107.691 85.7272 106.558 88.7224C106.087 89.9624 105.659 91.2174 105.547 92.5501C105.475 93.2 105.475 93.8561 105.547 94.506C105.759 95.9292 106.606 96.7034 108.001 96.8263C109.407 96.9428 110.821 96.7425 112.143 96.2398C113.58 95.6709 114.964 94.9731 116.279 94.1545C118.676 92.6821 120.938 90.9933 123.038 89.1085C123.195 88.9528 123.332 88.7766 123.443 88.5844C126.96 83.1934 131.446 78.8417 137.004 75.6804C139.338 74.3383 141.888 73.4278 144.534 72.9913C145.12 72.9 145.711 72.8474 146.304 72.8339C146.451 72.8468 146.598 72.8121 146.725 72.7346C146.852 72.6572 146.951 72.541 147.009 72.4026C147.265 71.9388 147.57 71.5049 147.918 71.1087C148.304 70.6674 148.803 70.3435 149.359 70.1728L152.114 69.293C152.279 69.2434 152.446 69.1421 152.573 69.431ZM145.52 74.4447C145.308 74.4447 145.204 74.4447 145.096 74.4447C143.747 74.5723 142.42 74.8782 141.148 75.3547C138.65 76.2842 136.546 77.8217 134.675 79.7107C132.069 82.3532 129.785 85.3058 127.874 88.5047C126.32 91.0924 125.034 93.7922 124.25 96.725C124.079 97.3195 123.962 97.9287 123.901 98.545C123.824 99.5111 124.276 99.8712 125.172 99.5715C125.716 99.3815 126.24 99.1389 126.738 98.8469C128.042 98.0762 129.267 97.1746 130.395 96.1557C133.967 93.0455 137.022 89.3681 139.441 85.2657C141.473 81.8607 143.38 78.3845 145.329 74.9364C145.403 74.7769 145.467 74.6127 145.52 74.4447Z" fill="black"/>
<path d="M145.034 139.372C143.913 139.601 143.036 139.329 142.394 138.454C141.434 137.143 140.499 135.81 139.556 134.486C139.516 134.417 139.481 134.345 139.452 134.27C139.664 134.199 139.861 134.154 140.044 134.072C140.453 133.916 140.848 133.722 141.224 133.494C141.86 133.063 142.023 132.416 141.872 131.67C141.79 131.341 141.612 131.046 141.361 130.823C141.11 130.601 140.798 130.461 140.467 130.423C139.965 130.347 139.452 130.384 138.965 130.531C138.965 130.682 138.938 130.801 138.938 130.919C138.938 133.23 138.938 135.538 138.938 137.844C138.938 138.387 139.003 138.911 139.389 139.34C139.024 139.467 137.55 139.487 136.952 139.377C137.427 138.773 137.418 138.068 137.418 137.361C137.418 135.348 137.418 133.335 137.418 131.323C137.418 130.676 137.384 130.046 136.914 129.47C137.062 129.453 137.153 129.431 137.245 129.431C138.245 129.431 139.243 129.431 140.241 129.431C141.025 129.402 141.799 129.616 142.461 130.044C142.867 130.303 143.178 130.689 143.349 131.144C143.52 131.599 143.541 132.099 143.408 132.567C143.277 133.072 142.97 133.512 142.544 133.805C142.171 134.07 141.768 134.292 141.323 134.568C141.578 134.984 141.902 135.374 142.196 135.782C142.491 136.19 142.783 136.582 143.08 136.981C143.377 137.38 143.678 137.818 144 138.214C144.322 138.611 144.652 138.952 145.034 139.372Z" fill="black"/>
<path d="M120.15 57.2817C120.174 57.0432 120.212 56.8063 120.263 56.5722C120.459 55.7215 120.837 54.9253 121.369 54.2402C121.902 53.5552 122.577 52.9981 123.346 52.6087C123.756 52.4034 124.201 52.2825 124.657 52.2529C125.6 52.1882 126.27 52.7769 126.46 53.7149C126.557 54.2244 126.533 54.75 126.391 55.2482C125.991 56.8032 125.005 58.1351 123.647 58.9551C123.19 59.2568 122.664 59.4349 122.121 59.4726C121.038 59.5265 120.309 58.899 120.178 57.8014C120.161 57.6655 120.163 57.5275 120.15 57.2817Z" fill="black"/>
<path d="M55.7079 135.708H52.002C51.8961 135.962 51.7901 136.228 51.6799 136.495C51.4935 136.956 51.3098 137.419 51.129 137.884C50.8345 138.634 50.8387 138.727 51.218 139.404H49.2051C49.2763 139.31 49.3428 139.212 49.4043 139.111C49.6499 138.701 49.8707 138.276 50.0653 137.838C50.9807 135.522 51.8685 133.196 52.7733 130.877C52.9597 130.399 53.089 129.933 52.7584 129.433H54.8561C54.9261 129.605 55.0002 129.778 55.068 129.952L57.7315 137.097C58.0366 137.914 58.2993 138.751 59.0812 139.406H56.4495C56.5127 139.31 56.5659 139.207 56.6085 139.1C56.6833 138.933 56.714 138.748 56.6975 138.565C56.386 137.614 56.0406 136.663 55.7079 135.708ZM55.3054 134.66L53.9535 130.921H53.856C53.3729 132.156 52.8919 133.392 52.3982 134.66H55.3054Z" fill="black"/>
<path d="M115.568 129.453H120.847V130.904C119.804 130.292 118.747 130.365 117.643 130.641V133.399C118.007 133.529 118.397 133.447 118.776 133.46C119.156 133.473 119.554 133.46 119.961 133.46C120.094 133.891 120.01 134.322 120.024 134.797C119.243 134.45 118.456 134.581 117.641 134.557V138.141C119.162 138.448 120.643 138.473 122.09 137.656C121.891 138.234 121.692 138.812 121.484 139.409H115.585C116.09 138.778 116.081 138.072 116.081 137.365C116.081 135.315 116.081 133.264 116.081 131.213C116.081 130.607 116.028 130.014 115.568 129.453Z" fill="black"/>
<path d="M94.3418 139.461C94.7931 138.924 94.8503 138.368 94.8482 137.788C94.8482 135.631 94.8482 133.475 94.8482 131.318C94.8482 130.695 94.8334 130.078 94.3545 129.516H96.84C96.3293 130.184 96.3675 130.928 96.3675 131.672V138.176C97.9015 138.512 99.3699 138.525 100.8 137.639C100.805 137.749 100.797 137.86 100.777 137.969C100.648 138.361 100.497 138.745 100.378 139.14C100.356 139.257 100.289 139.361 100.193 139.429C100.096 139.498 99.9776 139.525 99.8615 139.506C98.694 139.491 97.5307 139.506 96.3547 139.506H94.6787C94.6003 139.498 94.5198 139.48 94.3418 139.461Z" fill="black"/>
<path d="M73.1146 139.424C73.6062 138.866 73.6274 138.247 73.6274 137.626C73.6274 135.49 73.6274 133.353 73.6274 131.215C73.6274 130.609 73.6125 130.001 73.0977 129.44C73.9855 129.41 74.7928 129.44 75.67 129.423C75.0682 130.139 75.1699 130.943 75.1678 131.724C75.1678 133.665 75.1678 135.618 75.1678 137.568V138.146C76.7315 138.443 78.2084 138.478 79.6514 137.65C79.4395 138.236 79.2424 138.825 79.0348 139.424H73.1146Z" fill="black"/>
</g>
<defs>
<clipPath id="clip0_4938_31870">
<rect width="192" height="192" fill="white"/>
</clipPath>
</defs>
</svg>
