<svg width="192" height="192" viewBox="0 0 192 192" fill="none" xmlns="http://www.w3.org/2000/svg">
<g clip-path="url(#clip0_4938_31894)">
<path d="M96 192C149.019 192 192 149.019 192 96C192 42.9807 149.019 0 96 0C42.9807 0 0 42.9807 0 96C0 149.019 42.9807 192 96 192Z" fill="white"/>
<g clip-path="url(#clip1_4938_31894)">
<path d="M120.809 104.067C121.039 104.84 120.964 105.635 120.967 106.419C120.989 110.424 120.953 114.433 121.014 118.438C121.13 125.998 121.114 133.56 121.142 141.122C121.144 141.917 121.255 142.696 121.443 143.466C121.535 143.831 121.734 144.075 122.155 144.1C122.571 144.125 122.781 143.934 122.937 143.568C123.651 141.89 124.382 140.219 125.396 138.696C125.679 138.272 126.069 137.914 126.452 137.571C127.928 136.252 128.515 134.64 128.502 132.646C128.443 124.164 128.485 115.679 128.471 107.197C128.471 106.144 128.848 105.347 129.696 104.726C130.081 104.444 130.399 104.07 130.934 103.563C130.934 107.081 130.934 110.394 130.934 113.704C130.934 116.252 130.853 118.804 130.981 121.344C131.081 123.344 130.942 125.338 131.022 127.338C131.111 129.535 130.945 131.723 130.313 133.854C130.305 133.878 130.305 133.903 130.299 133.926C130.186 134.438 129.557 134.995 129.928 135.402C130.255 135.762 130.964 135.388 131.479 135.3C134.2 134.84 136.297 136.034 138.28 137.673C139.452 138.64 140.443 139.762 141.349 140.962C142.424 142.385 142.568 144.07 141.599 145.408C141.105 146.089 140.449 146.336 139.632 146.394C136.693 146.61 133.751 146.455 130.812 146.557C127.873 146.66 124.931 146.69 121.989 146.673C120.732 146.668 119.801 146.227 119.355 144.962C119.122 144.302 118.723 144.236 118.255 144.768C116.532 146.721 114.247 147.826 111.973 148.939C111.654 149.095 111.1 149.408 110.92 149.053C110.756 148.732 111.377 148.582 111.665 148.402C113.011 147.557 114.471 146.906 115.693 145.851C116.878 144.826 116.745 143.975 116.244 142.427C115.823 141.131 114.845 140.167 113.845 139.288C112.125 137.776 110.344 136.33 108.624 134.826C106.829 133.255 105.061 131.646 103.277 130.059C101.787 128.734 100.266 127.441 98.8812 126.009C96.2662 123.3 94.003 120.344 93.377 116.499C92.9421 113.823 93.2994 111.192 94.1748 108.618C94.8147 106.74 95.8867 105.15 97.2163 103.712C97.3881 103.527 97.5848 103.325 97.4269 103.064C97.2579 102.784 96.992 102.942 96.7593 103C93.2191 103.867 89.6512 104.549 86.0086 104.851C83.0391 105.095 80.0723 105.067 77.1416 104.638C73.8258 104.15 70.6513 103.133 67.9532 101.039C65.2995 98.981 63.4851 96.3245 62.402 93.1195C61.1942 89.5461 60.9366 85.873 61.1194 82.1639C61.2441 79.6016 61.9615 77.1279 62.7953 74.6985C63.751 71.9063 65.1388 69.3218 66.6264 66.801C67.5876 65.175 68.7953 63.6958 69.9283 62.1778C72.6457 58.5351 75.9089 55.4105 79.2468 52.3412C81.4075 50.3551 83.7039 48.5434 86.0529 46.8094C89.3355 44.3855 92.7344 42.1224 96.3465 40.2C99.269 38.6459 102.208 37.103 105.335 36.0171C107.928 35.1169 110.551 34.1612 113.374 34.308C114.612 34.3717 115.853 34.6182 116.784 35.5185C117.859 36.5601 117.801 37.8121 116.704 38.8121C116.061 39.3966 115.341 39.8869 114.538 40.211C111.585 41.3966 108.704 42.7457 105.887 44.2055C102.64 45.8897 99.4656 47.7235 96.4075 49.754C92.9836 52.0282 89.6873 54.452 86.6236 57.1999C83.751 59.7761 81.172 62.6044 78.8895 65.7124C76.8812 68.4464 75.2718 71.3993 74.0197 74.5462C72.8701 77.4353 72.3244 80.4658 72.0058 83.5434C71.8119 85.4076 71.9892 87.2774 72.5128 89.0337C73.6263 92.7705 75.9615 95.4547 79.8175 96.6292C83.0086 97.6015 86.2385 97.5073 89.4906 97.0641C92.6734 96.6292 95.7454 95.7511 98.7731 94.7317C102.039 93.6292 105.222 92.3079 108.338 90.8287C109.047 90.4907 109.768 90.1694 110.488 89.8481C111.022 89.6098 111.214 89.258 111.247 88.6514C111.471 84.6126 111.74 80.5738 112.009 76.5351C112.286 72.3993 112.587 68.2664 112.856 64.1279C112.917 63.1861 112.876 63.1916 111.975 63.4797C108.383 64.6293 104.793 65.7844 101.194 66.9174C97.7426 68.0032 94.2828 69.0642 90.8285 70.1417C89.5349 70.5434 88.2468 70.9617 86.9587 71.3716C86.4352 71.5378 86.2025 71.4741 86.2718 70.8038C86.4878 68.6431 86.6485 66.4769 86.8008 64.3135C86.8507 63.5988 87.0834 63.2082 87.8562 62.9866C91.028 62.0753 94.1748 61.0642 97.3299 60.0919C101.067 58.9395 104.806 57.8038 108.538 56.6376C111.848 55.6016 115.15 54.5268 118.457 53.4825C119.466 53.1639 120.493 52.9063 121.502 52.5877C122.128 52.3883 122.238 52.6265 122.153 53.1916C121.878 55.0199 121.621 56.8481 121.374 58.6791C120.942 61.8786 120.46 65.0753 120.114 68.2858C119.826 70.9561 119.593 73.6403 119.263 76.3024C118.787 80.15 118.59 84.0171 118.238 87.8702C117.986 90.6154 117.973 93.391 117.773 96.1417C117.515 99.7206 117.565 103.302 117.443 106.879C117.355 109.469 117.416 112.067 117.493 114.662C117.56 116.903 117.635 119.144 117.732 121.385C117.756 121.956 117.64 122.313 117.086 122.632C114.848 123.917 112.643 125.264 110.438 126.61C109.984 126.887 109.873 126.757 109.898 126.297C110.022 124.078 110.147 121.859 110.274 119.643C110.341 118.46 110.419 117.277 110.482 116.097C110.748 111.167 110.992 106.236 111.288 101.305C111.341 100.416 111.36 99.5295 111.413 98.6431C111.438 98.2137 111.263 98.1306 110.876 98.2968C107.923 99.5544 104.889 100.593 101.837 101.571C100.873 101.881 99.9919 102.308 99.2745 102.984C97.5931 104.571 96.2302 106.366 95.3687 108.568C94.3244 111.241 94.3798 113.926 94.9449 116.64C95.2717 118.214 96.2053 119.521 97.0695 120.837C98.6429 123.23 100.815 125.047 102.917 126.948C104.707 128.565 106.538 130.136 108.363 131.71C110 133.122 111.643 134.529 113.344 135.87C114.712 136.948 116.039 138.108 116.973 139.632C117.416 140.355 117.745 141.114 117.851 141.962C117.873 142.142 117.817 142.427 118.103 142.408C118.324 142.394 118.366 142.15 118.388 141.945C118.477 141.136 118.618 140.333 118.651 139.521C118.867 134.333 118.632 129.142 118.707 123.951C118.792 118.189 118.768 112.43 118.781 106.668C118.784 105.444 119.618 104.374 120.787 104.067H120.809ZM127.352 144.216C127.352 144.172 127.352 144.128 127.352 144.083C128.682 144.083 130.014 144.103 131.344 144.081C133.837 144.039 136.327 143.975 138.817 143.912C139.056 143.906 139.344 143.962 139.493 143.709C139.657 143.43 139.474 143.189 139.322 142.964C138.986 142.477 138.659 141.984 138.294 141.518C137.117 140.031 135.754 138.746 133.959 138.059C131.995 137.308 130.069 137.629 128.261 138.61C126.236 139.707 124.967 141.449 124.211 143.596C124.053 144.042 124.2 144.233 124.687 144.222C125.576 144.2 126.466 144.216 127.355 144.216H127.352Z" fill="#D5B26C"/>
<path d="M90.3963 81.8698C89.9559 83.2576 89.7287 84.615 89.424 85.9501C88.9476 88.0222 88.8312 90.1551 88.3936 92.2327C88.2938 92.6981 88.3022 93.3961 87.7564 93.4515C87.1581 93.5152 87.1221 92.7812 86.9697 92.3546C86.2357 90.2992 86.0612 88.1496 86.1886 85.9945C86.3936 82.5651 86.6844 79.1413 87.352 75.7618C87.5348 74.8421 87.7398 73.928 88.1747 73.0831C88.7343 71.9945 89.3077 71.9557 89.9864 72.9917C90.6262 73.9696 91.0168 75.0693 91.5044 76.1247C92.8395 79.0277 94.3298 81.8393 96.3714 84.3241C96.7537 84.7895 97.1941 85.4377 97.8783 85.1496C98.4877 84.892 98.3936 84.1496 98.424 83.5651C98.5182 81.7258 98.1165 79.9252 97.9559 78.108C97.7814 76.1164 97.5514 74.1164 98.0279 72.1302C98.2855 71.0527 98.7066 70.5707 99.4046 70.5097C100.305 70.4322 101.081 70.9391 101.49 71.8698C102.122 73.2964 102.244 74.8366 102.424 76.3518C102.964 80.8754 102.756 85.3324 101.003 89.615C100.77 90.1856 100.518 90.7535 100.225 91.2936C99.6401 92.3656 98.9088 92.5845 97.8146 92.0471C96.4102 91.3573 95.2661 90.3463 94.3354 89.1053C92.8562 87.1357 91.7426 84.964 90.8894 82.6565C90.7952 82.4072 90.7564 82.1247 90.3963 81.8698Z" fill="#181818"/>
<path d="M68.3585 147.59C68.4942 146.895 68.0593 146.175 67.9347 145.399C67.7491 144.247 67.6909 143.1 67.7519 141.942C67.799 141.059 68.2172 140.344 68.7352 139.671C68.8322 139.543 68.943 139.341 69.1452 139.424C69.3253 139.496 69.3114 139.704 69.3308 139.876C69.4111 140.574 69.1923 141.247 69.1508 141.937C69.0704 143.272 69.594 144.493 69.7879 145.776C70.2809 149.02 69.3557 151.812 67.1009 154.18C66.8959 154.397 66.6798 154.599 66.4749 154.815C66.3585 154.937 66.1812 155.053 66.2726 155.25C66.3641 155.449 66.5774 155.51 66.7768 155.493C68.6992 155.358 70.6771 155.275 72.3668 154.286C74.9375 152.782 76.9097 150.754 77.1978 147.557C77.2283 147.214 77.1674 146.912 77.0122 146.635C76.81 146.277 76.6189 146.036 76.0953 146.344C75.1674 146.884 74.4804 146.757 74.0483 146.011C73.4278 144.945 74.1369 144.025 74.5219 143.1C74.7906 142.46 75.3668 142.192 76.0455 142.322C77.1203 142.527 77.7048 143.277 78.0621 144.258C78.3807 145.125 78.5164 145.153 79.1701 144.516C79.7768 143.926 79.9153 143.239 79.7048 142.416C79.1978 140.441 78.425 138.518 78.5912 136.41C78.7352 134.604 79.3613 133.014 80.4776 131.602C80.6327 131.405 80.7851 131.269 81.0316 131.391C81.3059 131.527 81.3336 131.746 81.2144 132.014C80.1092 134.541 80.5275 137 81.4721 139.474C82.1951 141.369 81.7241 143.114 80.4887 144.671C80.0926 145.169 79.6632 145.624 79.123 146.003C78.6549 146.333 78.3973 146.89 78.353 147.535C78.1424 150.577 77.0039 153.252 74.7352 155.288C73.3031 156.574 71.4942 157.319 69.605 157.787C69.2893 157.865 69.0649 157.759 68.835 157.499C67.9098 156.444 65.4943 155.962 64.2006 156.51C63.317 156.884 62.4167 157.214 61.5192 157.56C61.0317 157.748 60.6245 157.737 60.3253 157.197C60.076 156.743 59.6522 156.529 59.1231 156.438C57.1785 156.103 55.2754 155.668 53.5331 154.651C52.3253 153.945 51.4333 152.97 50.6245 151.873C50.45 151.638 50.2228 151.441 50.0372 151.214C49.9596 151.12 49.943 150.975 50.0372 150.87C50.1425 150.754 50.2588 150.818 50.3669 150.887C50.8544 151.192 51.2173 151.635 51.6383 152.014C53.1342 153.38 54.6439 154.751 56.7436 155.097C58.281 155.352 59.8322 155.438 61.3807 155.169C61.522 155.144 61.6937 155.161 61.7463 154.981C61.8211 154.734 61.6245 154.635 61.4721 154.513C60.3835 153.649 59.4749 152.604 58.5275 151.599C58.4776 151.543 58.4001 151.499 58.3807 151.435C58.3031 151.2 57.8571 151.003 58.1286 150.768C58.4084 150.521 58.5801 150.945 58.7463 151.111C59.8571 152.233 61.0067 153.305 62.3558 154.142C62.9208 154.491 63.425 154.41 64.0123 154.114C65.835 153.197 67.0095 151.704 67.9098 149.945C68.2671 149.247 68.3557 148.493 68.3447 147.596L68.3585 147.59Z" fill="#D5B26C"/>
<path d="M92.1784 135.59C92.1092 136.05 92.0593 136.318 91.6383 136.457C90.9873 136.67 90.5607 137.221 90.1203 137.712C89.0289 138.928 88.1313 140.232 87.8045 141.9C87.1895 145.044 88.8903 146.731 91.5053 147.504C92.5552 147.814 93.6438 147.853 94.7352 147.831C96.9319 147.787 99.1341 147.878 101.328 147.684C101.494 147.67 101.677 147.717 101.852 147.546C101.442 147 100.755 147.05 100.22 146.878C97.5302 146.008 94.81 145.235 92.1036 144.415C91.7989 144.324 91.5247 144.136 91.22 144.036C90.6854 143.861 90.5247 143.496 90.6798 142.997C90.8349 142.496 91.0178 141.986 91.6992 142.011C91.7491 142.011 91.8045 141.997 91.846 142.019C93.4444 142.795 94.159 141.878 94.882 140.609C95.8987 138.823 97.5662 137.709 99.4 136.856C100.117 136.523 101.098 136.712 101.478 137.169C101.965 137.756 101.948 138.753 101.439 139.501C101.356 139.623 101.278 139.751 101.184 139.864C100.682 140.466 100.218 140.443 99.7934 139.795C99.4637 139.296 99.0011 139.138 98.4416 139.341C96.9845 139.867 95.9513 140.889 95.2089 142.213C95.0178 142.551 95.1203 142.834 95.5939 142.969C97.5358 143.529 99.4859 144.064 101.425 144.631C103.408 145.21 105.394 145.784 107.375 146.368C107.799 146.493 108.248 146.554 108.66 146.712C109.317 146.967 109.469 147.46 109.131 148.083C108.793 148.706 108.284 149.122 107.577 149.219C104.993 149.573 102.406 149.895 99.8239 150.26C97.6383 150.568 95.4444 150.656 93.2505 150.512C91.5164 150.399 89.8266 150.003 88.4388 148.861C86.5995 147.349 86.2976 145.327 86.5496 143.097C86.8017 140.867 87.7989 139.003 89.2421 137.365C89.9928 136.512 91.0344 136.044 92.184 135.595L92.1784 135.59Z" fill="#D5B26C"/>
<path d="M63.2557 119.94C63.2557 124.638 63.2917 129.336 63.2446 134.034C63.2141 137.147 62.9621 140.25 62.0673 143.253C61.4884 145.192 60.7155 147.062 59.3859 148.624C58.7349 149.386 58.0424 150.136 57.0507 150.496C56.8984 150.552 56.7571 150.754 56.6103 150.541C56.4829 150.355 56.6629 150.225 56.7709 150.098C57.2612 149.521 57.7765 148.965 58.2419 148.369C59.7876 146.399 60.2003 144.034 60.4773 141.649C61.1061 136.231 60.6961 130.785 60.8319 125.352C60.9842 119.172 60.9122 112.992 60.9122 106.812C60.9122 105.538 61.6684 104.768 62.5272 104.045C62.8679 103.757 63.131 104.02 63.2335 104.366C63.2945 104.571 63.2612 104.807 63.2612 105.031C63.2612 110.001 63.2612 114.973 63.2612 119.942L63.2557 119.94Z" fill="#D5B26C"/>
<path d="M78.7652 125.15C78.6821 124.704 79.0034 124.411 79.3359 124.156C79.7043 123.873 79.9314 124.275 80.1613 124.433C80.6683 124.776 81.1226 125.197 81.6018 125.582C82.1586 126.031 82.2029 126.491 81.7985 127.139C81.3913 127.793 80.8788 127.386 80.5159 127.195C79.9841 126.918 79.5408 126.463 79.0672 126.078C78.7874 125.851 78.768 125.53 78.7652 125.15Z" fill="#D5B26C"/>
</g>
</g>
<defs>
<clipPath id="clip0_4938_31894">
<rect width="192" height="192" fill="white"/>
</clipPath>
<clipPath id="clip1_4938_31894">
<rect width="92.6437" height="124" fill="white" transform="translate(49.6777 34)"/>
</clipPath>
</defs>
</svg>
