<svg width="192" height="192" viewBox="0 0 192 192" fill="none" xmlns="http://www.w3.org/2000/svg">
<g clip-path="url(#clip0_4934_36894)">
<path d="M96 192C149.019 192 192 149.019 192 96C192 42.9807 149.019 0 96 0C42.9807 0 0 42.9807 0 96C0 149.019 42.9807 192 96 192Z" fill="white"/>
<path d="M76.74 89.8662C73.31 88.9662 69.71 88.4862 66 88.4862C58.3 88.4862 51.07 90.5562 44.81 94.1762C44.84 93.4762 44.86 92.7762 44.86 92.0662C44.86 91.8662 44.86 91.6762 44.86 91.4762C44.73 81.1862 41.2 71.7362 35.38 64.2562C35.36 64.2362 35.34 64.2062 35.32 64.1862C34.69 63.3762 34.02 62.5862 33.33 61.8262C32.33 62.4062 27.87 66.0262 27.13 66.7062C26.22 67.5462 24.58 68.2062 24.02 71.1462C23.89 71.9662 23.78 72.7962 23.7 73.6362C23.61 74.5962 23.55 75.5562 23.52 76.5362C23.52 76.8962 23.5 77.2662 23.5 77.6362C23.5 78.5362 23.53 79.4262 23.59 80.3062C23.61 80.5062 23.73 80.6162 23.86 80.3562C24.53 78.6362 25.31 76.9762 26.2 75.3962C31.21 71.8762 29.81 68.9762 32.66 66.7562C37.5 73.9462 40.33 82.6662 40.33 92.0662C40.33 92.9462 40.31 93.8162 40.26 94.6762C40.21 95.5862 40.13 96.4962 40.03 97.3962C39.56 97.7562 39.09 98.1362 38.64 98.5162C36.63 100.206 34.77 102.076 33.09 104.106C32.06 105.336 31.1 106.636 30.21 107.986C28.97 109.866 27.86 111.846 26.9 113.916C26.75 114.236 26.61 114.566 26.46 114.886C24.93 118.086 24.06 121.786 23.83 124.056C23.73 124.816 23.66 125.576 23.6 126.336C23.57 126.646 23.55 126.966 23.54 127.276C23.52 127.596 23.51 127.916 23.5 128.246C23.5 128.426 23.74 128.456 23.78 128.286C23.89 127.796 24 127.296 24.13 126.806C24.15 126.736 24.17 126.656 24.19 126.586C24.36 125.916 24.55 125.246 24.75 124.586C24.96 123.906 25.19 123.226 25.43 122.556C25.75 121.666 26.1 120.786 26.47 119.926C27.76 116.676 29.47 113.656 31.51 110.916C33.26 108.566 35.27 106.426 37.49 104.546C37.63 104.426 37.78 104.306 37.92 104.186C38.01 104.106 38.09 104.036 38.18 103.956C38.71 103.486 39.58 102.826 39.9 102.656C39.9 102.676 39.9 102.686 39.9 102.706C39.64 104.126 39.32 105.516 38.95 106.886C37.58 111.866 35.43 116.516 32.66 120.686C31.18 123.086 29.34 125.596 27.06 128.146C26.94 128.276 27.11 128.466 27.25 128.366C27.3 128.326 27.35 128.296 27.39 128.256C34.19 123.166 41.97 113.816 44.26 99.5662C50.65 95.7362 58.08 93.5362 66.01 93.5362C69.58 93.5362 73.06 93.9862 76.38 94.8262C76.45 94.8462 76.49 94.9162 76.49 94.9862C75.55 103.136 72.18 110.526 67.14 116.356C65.46 118.306 63.6 120.066 61.57 121.636C57.87 124.506 53.65 126.766 49.08 128.096C48.91 128.146 48.96 128.396 49.13 128.376C51.66 128.096 57.16 127.046 63.43 123.316C65.55 122.056 69.22 119.026 70.13 118.096C71.1 117.096 72.02 116.046 72.89 114.946C77.04 109.676 79.88 103.266 80.91 96.2562C81.15 94.6562 81.29 93.0262 81.33 91.3662C79.84 90.7862 78.31 90.2862 76.75 89.8762L76.74 89.8662Z" fill="url(#paint0_linear_4934_36894)"/>
<path d="M114.381 102.175C114.381 106.015 113.231 109.255 110.941 111.875C108.651 114.505 105.831 115.815 102.501 115.815C99.1711 115.815 96.3811 114.495 94.0811 111.855C91.7711 109.215 90.6211 105.985 90.6211 102.165C90.6211 98.3454 91.7711 95.0854 94.0611 92.4654C96.3511 89.8354 99.1711 88.5254 102.501 88.5254C105.831 88.5254 108.621 89.8454 110.921 92.4854C113.231 95.1254 114.381 98.3554 114.381 102.175ZM108.751 101.875C108.751 97.7054 108.281 94.6054 107.351 92.5654C106.341 90.3754 104.731 89.2854 102.491 89.2854C100.251 89.2854 98.6611 90.3254 97.6911 92.4154C96.7211 94.5054 96.2411 97.6554 96.2411 101.875C96.2411 106.525 96.7211 109.885 97.6711 111.955C98.6311 114.025 100.231 115.065 102.491 115.065C104.751 115.065 106.351 114.025 107.311 111.935C108.271 109.845 108.741 106.495 108.741 101.875H108.751Z" fill="#706F6F"/>
<path d="M142.053 114.465C142.053 114.665 141.743 114.895 141.133 115.145C140.693 115.325 140.363 115.405 140.143 115.405H137.163C136.403 115.405 135.883 115.245 135.603 114.935C135.323 114.625 134.933 113.845 134.443 112.615L132.203 106.845C131.863 105.815 131.533 104.765 131.213 103.715C130.693 102.735 129.653 102.245 128.083 102.245H126.653V113.345C126.653 114.075 126.933 114.435 127.503 114.435L129.493 114.475C129.733 114.475 129.863 114.615 129.863 114.895C129.863 115.125 129.773 115.235 129.603 115.235H118.643C118.473 115.235 118.383 115.125 118.383 114.895C118.383 114.615 118.503 114.475 118.753 114.475L120.743 114.435C121.303 114.435 121.593 114.065 121.593 113.335V90.9655C121.593 90.2355 121.313 89.8655 120.743 89.8655H118.753C118.503 89.8655 118.383 89.7555 118.383 89.5255C118.383 89.2455 118.473 89.1055 118.643 89.1055H130.123C132.743 89.1055 134.823 89.6755 136.363 90.8255C137.893 91.9755 138.663 93.5655 138.663 95.5955C138.663 97.3855 138.023 98.8455 136.753 99.9755C135.303 101.285 133.133 101.935 130.243 101.935C132.573 101.935 134.213 102.315 135.173 103.075C135.913 103.655 136.583 104.845 137.193 106.645L138.923 111.735C139.313 112.845 139.583 113.535 139.733 113.785C140.003 114.215 140.393 114.435 140.913 114.435C141.063 114.435 141.233 114.375 141.433 114.245C141.633 114.115 141.743 114.055 141.763 114.055C141.983 114.055 142.093 114.195 142.093 114.475L142.053 114.465ZM133.373 95.7455C133.373 91.8155 131.813 89.8555 128.703 89.8555H126.643V101.555H128.523C131.763 101.555 133.383 99.6155 133.383 95.7455H133.373Z" fill="#706F6F"/>
<path d="M168.502 102.175C168.502 106.015 167.352 109.255 165.062 111.875C162.772 114.505 159.952 115.815 156.622 115.815C153.292 115.815 150.502 114.495 148.202 111.855C145.892 109.215 144.742 105.985 144.742 102.165C144.742 98.3454 145.892 95.0854 148.182 92.4654C150.472 89.8354 153.292 88.5254 156.622 88.5254C159.952 88.5254 162.742 89.8454 165.042 92.4854C167.352 95.1254 168.502 98.3554 168.502 102.175ZM162.872 101.875C162.872 97.7054 162.402 94.6054 161.472 92.5654C160.462 90.3754 158.852 89.2854 156.612 89.2854C154.372 89.2854 152.782 90.3254 151.812 92.4154C150.842 94.5054 150.362 97.6554 150.362 101.875C150.362 106.525 150.842 109.885 151.792 111.955C152.752 114.025 154.352 115.065 156.612 115.065C158.872 115.065 160.472 114.025 161.432 111.935C162.392 109.845 162.862 106.495 162.862 101.875H162.872Z" fill="#706F6F"/>
</g>
<defs>
<linearGradient id="paint0_linear_4934_36894" x1="52.41" y1="61.8162" x2="52.41" y2="128.396" gradientUnits="userSpaceOnUse">
<stop stop-color="#E2819F"/>
<stop offset="1" stop-color="#502372"/>
</linearGradient>
<clipPath id="clip0_4934_36894">
<rect width="192" height="192" fill="white"/>
</clipPath>
</defs>
</svg>
