<svg width="192" height="192" viewBox="0 0 192 192" fill="none" xmlns="http://www.w3.org/2000/svg">
<g clip-path="url(#clip0_4934_36764)">
<path d="M96 192C149.019 192 192 149.019 192 96C192 42.9807 149.019 0 96 0C42.9807 0 0 42.9807 0 96C0 149.019 42.9807 192 96 192Z" fill="white"/>
<path d="M102.205 30.6851C102.025 30.5351 101.815 30.4251 101.625 30.2851C99.3116 28.6185 97.5583 29.0751 96.365 31.6551C95.295 33.9651 94.755 34.1151 93.045 32.2251C91.925 30.9951 90.535 30.1451 89.295 29.0951C87.855 27.8751 86.755 27.8451 86.015 29.8751C85.475 31.3351 84.795 32.7551 84.065 34.1251C83.465 35.2451 83.635 35.9351 84.725 36.6251C86.565 37.7951 88.405 38.9951 90.055 40.4051C91.325 41.4851 91.775 40.9051 92.545 39.8851C93.445 38.7051 93.425 36.3351 95.105 36.4251C96.435 36.4951 97.685 38.0251 98.965 38.9151C99.735 39.4451 100.485 40.0051 101.255 40.5351C101.575 40.7551 101.905 40.9551 102.165 41.1151C102.625 41.1951 102.815 40.9551 102.995 40.6951C104.335 38.6751 105.985 36.5951 105.975 34.2051C105.975 32.3851 103.555 31.8151 102.215 30.6851H102.205ZM96.775 121.155C96.775 121.155 96.775 121.245 96.775 121.285V121.155ZM98.855 143.565C98.685 143.405 98.495 143.265 98.305 143.135C95.8183 141.342 93.875 141.822 92.475 144.575C92.435 144.645 92.395 144.715 92.375 144.785C91.835 146.295 91.075 146.205 89.965 145.255C88.485 143.985 86.905 142.835 85.335 141.685C84.035 140.725 82.985 140.665 82.305 142.475C81.735 144.005 81.035 145.505 80.255 146.945C79.625 148.095 79.895 148.775 80.925 149.455C82.805 150.715 84.685 151.995 86.435 153.415C87.525 154.295 88.125 154.145 88.745 153.015C88.775 152.965 88.805 152.915 88.835 152.875C88.895 152.785 88.975 152.705 89.045 152.615C89.175 152.485 89.305 152.365 89.445 152.235C89.525 152.165 89.595 152.095 89.665 152.015C90.585 148.755 90.605 148.755 93.225 150.615C94.685 151.655 96.185 152.635 97.645 153.685C98.275 154.145 98.865 154.535 99.405 153.665C100.705 151.535 102.435 149.425 102.455 146.925C102.465 145.155 100.115 144.665 98.855 143.545V143.565ZM97.115 154.905C96.075 154.085 94.975 153.335 94.015 152.435C93.915 152.345 93.815 152.255 93.715 152.175C93.615 152.095 93.515 152.015 93.415 151.935C93.165 151.755 92.915 151.605 92.665 151.485C92.565 151.445 92.465 151.405 92.365 151.375C92.285 151.355 92.215 151.325 92.145 151.315C92.065 151.295 91.995 151.285 91.915 151.275C91.885 151.275 91.855 151.275 91.825 151.275C91.745 151.275 91.665 151.265 91.585 151.265C91.505 151.265 91.425 151.265 91.355 151.265C91.205 151.275 91.045 151.315 90.895 151.355C90.825 151.375 90.765 151.395 90.695 151.425C90.645 151.435 90.605 151.455 90.555 151.485C90.275 151.605 89.995 151.775 89.695 152.005C89.825 152.495 89.745 152.945 89.595 153.385C89.545 153.525 89.495 153.665 89.435 153.805L89.265 154.225C88.715 155.655 86.975 156.965 87.535 158.355C88.045 159.615 89.775 160.385 90.955 161.375C93.8816 163.822 96.2583 163.338 98.085 159.925C99.605 157.105 99.545 156.845 97.105 154.905H97.115Z" fill="#262626"/>
<path d="M147.627 127.346C146.567 131.806 143.467 135.016 139.377 137.046C136.607 138.426 133.667 137.296 132.147 134.226C131.317 132.546 130.607 132.546 129.447 133.666C128.077 134.986 126.317 135.676 124.697 136.556C121.887 138.086 118.677 135.986 118.447 132.536C118.297 130.296 119.127 128.236 119.627 126.116C119.907 124.896 120.967 123.456 119.507 122.466C118.307 121.646 116.937 122.036 115.537 122.546C107.537 125.476 81.3969 135.846 70.1168 137.216C64.8269 137.866 59.9569 136.976 55.7368 133.916C52.4868 131.566 49.5268 128.726 47.8268 124.896C45.2868 120.726 44.6468 116.046 44.1768 111.316C43.0768 100.126 44.9568 89.0457 45.3468 77.9157C45.6168 70.3957 45.2668 62.9257 44.0468 55.5057C43.8268 54.1557 44.1168 53.3557 45.1268 52.5357C46.7468 51.2057 48.2768 49.7657 50.1468 48.0957C50.9368 50.8757 50.9868 53.4357 51.0868 55.9257C51.5668 69.0657 50.2668 82.1457 49.4668 95.2257C49.0468 102.156 48.3968 109.116 50.6168 115.916C51.1568 117.556 51.9068 119.096 52.7868 120.576C56.2168 124.216 60.0468 127.206 65.2668 127.596C70.4168 127.986 75.4569 127.246 80.4769 126.016C86.0069 124.656 91.2968 122.596 96.7768 121.126C96.7768 121.176 96.7768 121.216 96.7768 121.256V121.126C105.047 118.066 113.197 114.636 121.687 112.206C127.167 110.636 126.607 111.636 126.207 116.576C125.957 119.666 124.157 122.466 124.267 125.706C124.357 128.326 125.837 129.396 128.347 128.286C130.597 127.296 132.397 125.656 133.987 123.786C134.697 122.956 135.337 122.036 136.357 121.546C136.837 121.316 137.337 121.006 137.897 121.366C138.547 121.786 138.517 122.416 138.347 123.046C137.987 124.406 137.527 125.746 137.227 127.116C136.877 128.726 137.247 130.186 138.907 130.816C140.647 131.476 141.757 130.286 142.537 128.976C143.467 127.426 143.547 125.746 142.747 124.036C141.607 121.616 140.207 119.356 138.747 117.146C138.097 116.166 138.187 115.526 139.067 114.766C140.667 113.396 142.217 111.966 143.737 110.496C144.517 109.736 144.897 110.016 145.257 110.846C147.587 116.126 148.997 121.626 147.637 127.326L147.627 127.346Z" fill="#262626"/>
<path d="M89.685 151.996C89.365 152.336 88.965 152.626 88.745 153.016C88.115 154.146 87.515 154.306 86.435 153.426C84.685 151.996 82.805 150.726 80.925 149.466C79.895 148.776 79.625 148.096 80.255 146.946C81.035 145.506 81.735 144.016 82.305 142.476C82.985 140.666 84.035 140.726 85.335 141.686C86.905 142.846 88.485 143.996 89.965 145.256C91.075 146.206 91.825 146.296 92.375 144.786C92.405 144.716 92.445 144.646 92.475 144.576C93.875 141.822 95.8216 141.342 98.315 143.136C98.505 143.276 98.695 143.416 98.865 143.566C100.115 144.686 102.475 145.176 102.465 146.946C102.445 149.446 100.715 151.556 99.415 153.686C98.885 154.556 98.285 154.156 97.655 153.706C96.205 152.656 94.695 151.676 93.235 150.636C90.615 148.766 90.595 148.766 89.675 152.036L89.705 152.006L89.685 151.996Z" fill="#262626"/>
<path d="M102.167 41.1151C101.907 40.9451 101.567 40.7551 101.257 40.5351C100.487 39.9951 99.7374 39.4451 98.9674 38.9151C97.6874 38.0251 96.4374 36.5051 95.1174 36.4351C93.4374 36.3451 93.4573 38.7151 92.5573 39.8951C91.7873 40.9051 91.3373 41.4851 90.0673 40.4051C88.4173 38.9951 86.5674 37.7951 84.7274 36.6251C83.6374 35.9351 83.4673 35.2451 84.0573 34.1251C84.7873 32.7551 85.4674 31.3351 86.0074 29.8751C86.7474 27.8451 87.8574 27.8751 89.2874 29.0951C90.5274 30.1451 91.9174 30.9951 93.0374 32.2251C94.7474 34.1151 95.2874 33.9651 96.3574 31.6551C97.5574 29.0751 99.3107 28.6185 101.617 30.2851C101.807 30.4251 102.017 30.5351 102.197 30.6851C103.537 31.8151 105.947 32.3851 105.957 34.2051C105.957 36.5951 104.317 38.6751 102.977 40.6951C102.807 40.9551 102.607 41.1951 102.147 41.1151H102.167Z" fill="#262626"/>
<path d="M144.816 88.7855C144.056 88.7555 143.246 88.8655 142.506 89.0655C133.546 91.5755 90.4856 105.525 78.4256 109.295C72.8356 111.045 67.1756 111.795 61.5456 109.315C60.4356 108.565 59.9056 107.725 59.4256 106.565C57.3656 101.685 59.1356 97.7555 62.3256 94.1555C66.1156 89.8755 70.7056 86.4855 75.2256 83.0355C75.7656 82.6255 76.2556 81.8255 77.0056 82.2055C77.9556 82.6855 77.0356 83.4355 76.9856 84.0555C76.8056 86.5354 75.3356 88.9355 76.5156 91.5055C76.5956 96.2955 82.1256 101.535 88.6956 97.2655C92.3356 94.9055 94.9656 91.4555 97.8256 88.2655C99.5756 86.3155 99.8556 86.3555 100.466 88.8355C101.456 92.8655 105.996 95.2355 110.366 92.0455C116.096 87.8655 121.096 82.6155 127.806 79.8455C132.126 78.1455 136.626 77.9955 141.186 78.1755C141.916 78.2055 142.736 78.5254 143.286 77.6254C144.716 75.3254 146.456 73.1954 147.466 70.5554C142.226 69.0954 137.106 70.4255 131.996 70.4355C129.256 70.4055 126.526 70.2855 123.786 70.3555C120.866 70.4255 118.246 69.5555 115.776 68.1355C111.486 65.6655 111.276 60.0354 115.406 57.3654C116.056 56.9454 116.746 56.5855 117.466 56.2955C117.866 56.1355 118.276 55.9854 118.696 55.8654C122.616 54.6954 127.276 55.2555 131.136 58.2055C131.296 58.3254 131.466 58.4555 131.626 58.5955C131.786 58.7255 131.946 58.8655 132.106 59.0055C132.206 59.0955 132.316 59.1954 132.426 59.2955C132.526 59.3955 132.636 59.4955 132.736 59.6055C132.896 59.7655 133.046 59.9155 133.196 60.0855C133.346 60.2455 133.496 60.4155 133.636 60.5855C134.466 59.6655 135.346 58.7655 136.136 57.7955C139.556 53.6155 139.646 52.9155 135.316 49.8755C128.226 44.9055 122.326 44.1255 115.606 50.7955C112.356 54.0254 109.956 57.8655 107.896 61.8955C106.886 63.8855 106.186 66.0555 106.766 68.4555C107.876 73.0154 109.866 76.7755 114.726 78.2655C115.696 78.5655 115.816 79.1855 114.976 79.7455C112.966 81.0855 111.016 82.6055 108.556 83.0255C106.726 83.3355 105.116 83.1155 103.896 81.2555C102.906 79.7455 102.716 78.2655 102.746 76.6055C102.746 76.1055 102.986 75.4155 102.286 75.1855C101.676 74.9755 101.276 75.4755 100.896 75.8555C100.456 76.3055 100.056 76.7755 99.6456 77.2455C97.2056 80.0755 94.8856 83.0255 92.3056 85.7255C88.4956 89.7355 85.1956 89.3855 82.0856 84.8855C81.1556 81.2155 81.2756 77.9755 85.0956 75.7855C86.7556 74.8255 88.1456 73.3955 89.6656 72.1855C94.0656 69.5255 97.9056 66.0655 102.206 63.2655C104.306 61.8955 105.456 60.0655 106.286 57.8155C107.386 54.8155 108.606 51.8555 109.816 48.9055C111.076 45.8055 110.986 45.6555 107.706 46.0055C107.496 46.0255 74.0256 48.0655 70.5656 48.7455C59.3956 50.9455 55.5556 61.9654 59.7356 70.3054C61.0256 72.8854 62.3256 75.4855 63.8756 77.9155C65.0756 79.8055 64.7056 80.9355 63.2456 82.5455C57.2156 89.2155 53.9156 96.8955 54.4656 106.165C54.8256 112.165 60.3856 117.445 61.6856 118.035C66.4056 120.175 71.2856 120.555 76.2456 119.055C84.2256 116.635 134.386 100.575 137.016 99.8755C137.906 99.6354 139.046 99.3154 139.676 100.125C140.446 101.095 139.546 102.075 139.026 102.885C137.666 104.985 136.156 106.985 134.776 109.065C134.476 109.515 133.396 109.865 134.026 110.505C134.716 111.215 135.316 110.295 135.706 109.815C137.966 107.015 140.226 104.225 142.346 101.325C144.326 98.6155 146.386 95.9254 147.486 92.6954C148.306 90.2854 147.336 88.8855 144.816 88.7855ZM70.1856 57.8355C72.4656 56.9655 74.8956 56.7854 77.2956 56.5254C84.5056 55.7754 91.7256 55.0755 98.9456 54.3755C99.2356 54.3455 99.5456 54.4855 99.8456 54.5555C99.8656 55.1555 99.2356 55.2655 98.9956 55.6755C93.2056 58.7855 87.9856 62.7554 82.6556 66.5554C78.2156 69.7254 73.8056 72.9555 69.6556 76.5055C68.6056 77.4055 68.1756 77.2555 67.7356 76.0055C66.7256 73.1355 65.4856 70.3355 64.5856 67.4355C63.3956 63.6255 65.8956 59.4755 70.1656 57.8455L70.1856 57.8355Z" fill="#262626"/>
<path d="M89.6663 152.025C91.2463 150.775 92.6263 151.145 94.0163 152.445C94.9763 153.345 96.0763 154.095 97.1163 154.915C99.5563 156.845 99.6063 157.105 98.0963 159.935C96.2696 163.348 93.8929 163.831 90.9663 161.385C89.7763 160.395 88.0563 159.625 87.5463 158.365C86.9763 156.975 88.7263 155.665 89.2763 154.235C89.5563 153.505 89.9263 152.815 89.6963 152.005L89.6663 152.035V152.025Z" fill="#262626"/>
</g>
<defs>
<clipPath id="clip0_4934_36764">
<rect width="192" height="192" fill="white"/>
</clipPath>
</defs>
</svg>
