<svg width="192" height="192" viewBox="0 0 192 192" fill="none" xmlns="http://www.w3.org/2000/svg">
<g clip-path="url(#clip0_4934_36809)">
<path d="M96 192C149.019 192 192 149.019 192 96C192 42.9807 149.019 0 96 0C42.9807 0 0 42.9807 0 96C0 149.019 42.9807 192 96 192Z" fill="white"/>
<path d="M90.1601 49.1064C88.9901 49.1064 87.8101 49.0964 86.6401 49.1064C83.1801 49.1564 79.7601 49.4664 76.4401 50.4764C74.9801 50.9264 73.5901 51.5164 72.3701 52.4464C70.0501 54.2164 69.2901 56.6664 70.0901 59.6464C70.6101 61.5764 71.7901 63.0564 73.2001 64.3764C75.2601 66.3164 77.6401 67.7964 80.1201 69.1364C83.7301 71.0964 87.5101 72.6864 91.3901 74.0464C91.6201 74.1264 91.7701 74.1864 91.7701 74.4964C91.7601 78.4864 91.7701 82.4664 91.7701 86.4564C91.7701 86.5264 91.7701 86.5964 91.7501 86.7264C90.5801 86.4664 89.4401 86.2364 88.3001 85.9664C83.3501 84.8164 78.5101 83.3464 73.8801 81.2164C70.7701 79.7764 67.8201 78.0664 65.2401 75.7864C63.0101 73.8164 61.1501 71.5764 60.1301 68.7364C58.3601 63.7864 59.4401 59.4664 63.2101 55.8564C66.6101 52.5964 70.6601 50.5064 75.2601 49.4664C79.3201 48.5464 83.4301 48.4164 87.5701 48.7664C88.4401 48.8364 89.3101 48.9464 90.1801 49.0364C90.1801 49.0564 90.1801 49.0864 90.1801 49.1064H90.1601Z" fill="#003D0F"/>
<path d="M93.207 73.5866V61.0566C94.117 61.2566 95.017 61.4366 95.907 61.6366C100.777 62.7366 105.557 64.1266 110.137 66.1366C113.567 67.6466 116.817 69.4566 119.647 71.9266C121.987 73.9666 123.917 76.3166 124.927 79.3066C126.567 84.1766 125.427 88.3966 121.757 91.9166C118.257 95.2766 114.077 97.3866 109.337 98.3966C105.397 99.2366 101.407 99.3566 97.407 99.0166C96.527 98.9466 95.647 98.8366 94.777 98.6666C95.937 98.6666 97.097 98.6766 98.257 98.6666C101.627 98.6266 104.967 98.3266 108.217 97.3866C109.487 97.0166 110.707 96.5266 111.837 95.8366C114.727 94.0466 115.747 91.4266 114.867 88.1366C114.347 86.2066 113.177 84.7266 111.757 83.4066C109.667 81.4366 107.247 79.9366 104.727 78.5866C101.147 76.6566 97.407 75.0766 93.567 73.7266C93.447 73.6866 93.327 73.6466 93.207 73.5966V73.5866Z" fill="#CAA35C"/>
<path d="M91.7286 91.596V98.246C90.4786 97.976 89.2486 97.756 88.0486 97.426C85.2686 96.676 82.4686 95.956 79.7286 95.056C75.4786 93.656 71.3886 91.876 67.6486 89.376C65.0086 87.606 62.6486 85.546 60.8786 82.876C59.1486 80.286 58.3086 77.446 58.4786 74.316C58.5086 73.726 58.6586 73.146 58.7586 72.556C58.7786 72.426 58.8386 72.296 58.8886 72.166C59.2486 73.016 59.5486 73.856 59.9486 74.656C61.1086 76.976 62.7986 78.876 64.7486 80.556C68.0086 83.366 71.7586 85.326 75.7086 86.946C80.2486 88.806 84.9386 90.126 89.7286 91.156C90.3886 91.296 91.0486 91.446 91.7286 91.596Z" fill="#003D0F"/>
<path d="M93.207 56.1756V49.5156C94.787 49.8756 96.337 50.2156 97.877 50.5856C102.177 51.6256 106.387 52.9456 110.437 54.7156C114.027 56.2856 117.427 58.1656 120.387 60.7656C122.887 62.9656 124.917 65.4956 125.897 68.7456C126.557 70.9356 126.747 73.1556 126.127 75.3956C126.107 75.4656 126.087 75.5256 126.027 75.6856C125.917 75.3456 125.827 75.0956 125.737 74.8456C124.827 72.2756 123.267 70.1456 121.337 68.2656C118.137 65.1556 114.317 63.0256 110.267 61.2656C105.677 59.2656 100.887 57.8956 96.027 56.7856C95.097 56.5756 94.157 56.3756 93.207 56.1756Z" fill="#CAA35C"/>
<path d="M137.068 132.367C136.488 133.027 135.878 133.627 135.058 133.927C134.648 134.077 134.198 134.217 133.768 134.217C131.128 134.247 128.488 134.227 125.858 134.227H125.398C125.798 132.067 126.198 129.937 126.598 127.767H129.998C130.038 127.327 130.078 126.917 130.118 126.497C130.228 125.007 130.348 123.507 130.458 122.007C130.498 121.487 130.508 120.967 130.548 120.447C130.658 119.037 130.768 117.627 130.888 116.217C130.918 115.787 130.948 115.347 130.978 114.917C131.008 114.417 131.028 113.917 131.048 113.387H134.898C134.868 113.867 134.838 114.327 134.808 114.787C134.758 115.487 134.698 116.187 134.638 116.877C134.528 118.217 134.408 119.557 134.308 120.897C134.258 121.567 134.268 122.247 134.208 122.917C134.148 123.667 134.098 124.417 133.958 125.157C133.808 125.947 133.438 126.657 132.928 127.287C132.828 127.417 132.738 127.547 132.588 127.747C133.508 127.747 134.368 127.747 135.218 127.747C135.308 127.747 135.438 127.657 135.468 127.587C135.768 126.697 136.038 125.807 136.338 124.917C136.558 124.257 136.818 123.597 137.038 122.937C137.328 122.087 137.588 121.227 137.868 120.387C138.168 119.497 138.498 118.617 138.798 117.727C139.088 116.867 139.368 115.997 139.658 115.137C139.838 114.617 140.018 114.087 140.208 113.577C140.238 113.497 140.358 113.397 140.438 113.397C141.608 113.387 142.788 113.397 143.988 113.397C142.348 118.227 140.718 123.027 139.088 127.837H146.598C147.058 126.437 147.518 125.017 147.998 123.597C148.358 122.527 148.758 121.467 149.118 120.397C149.548 119.117 149.948 117.837 150.378 116.557C150.608 115.867 150.888 115.187 151.128 114.507C151.228 114.227 151.288 113.917 151.398 113.637C151.438 113.537 151.578 113.407 151.668 113.407C152.818 113.387 153.958 113.397 155.188 113.397C154.078 116.677 152.978 119.897 151.848 123.237C152.448 122.737 152.918 122.277 153.458 121.917C154.188 121.437 154.938 120.937 155.748 120.617C156.648 120.257 157.598 119.947 158.598 119.947C160.998 119.947 163.388 119.947 165.788 119.947C166.738 119.947 167.898 120.787 168.278 121.767C168.688 122.827 168.458 123.777 168.148 124.767C167.878 125.617 167.598 126.477 167.318 127.327C167.038 128.177 166.738 129.027 166.448 129.867C166.148 130.757 165.858 131.647 165.528 132.527C165.248 133.267 164.778 133.867 163.998 134.167C163.858 134.217 163.698 134.247 163.558 134.247C155.348 134.247 147.138 134.247 138.928 134.247C138.018 134.247 137.238 133.547 137.078 132.397L137.068 132.367ZM150.288 127.837H163.408C163.778 126.817 164.118 125.817 164.498 124.827C164.818 123.987 164.498 123.507 163.588 123.507C161.888 123.507 160.188 123.487 158.488 123.507C157.648 123.517 156.788 123.527 155.978 123.687C154.608 123.957 153.268 124.337 152.108 125.207C151.208 125.877 150.648 126.747 150.288 127.827V127.837Z" fill="#003D0F"/>
<path d="M77.918 132.405C78.738 128.045 79.558 123.715 80.388 119.365H94.758C94.258 122.015 93.748 124.655 93.238 127.315C93.998 127.315 94.768 127.345 95.538 127.305C95.898 127.285 96.108 127.015 96.178 126.635C96.438 125.295 96.738 123.965 96.998 122.635C97.138 121.945 97.228 121.255 97.348 120.555H103.858C103.638 121.695 103.408 122.815 103.198 123.935C103.018 124.905 102.858 125.875 102.718 126.845C102.668 127.255 102.878 127.425 103.288 127.425C103.468 127.425 103.658 127.405 103.838 127.375C104.678 127.275 104.768 126.965 104.918 126.265C105.118 125.355 105.258 124.445 105.428 123.535C105.608 122.555 105.798 121.575 105.988 120.575H112.478C112.388 121.075 112.298 121.575 112.208 122.065C111.918 123.565 111.608 125.065 111.318 126.575C111.208 127.175 111.448 127.455 112.068 127.445C112.278 127.445 112.488 127.435 112.698 127.385C113.288 127.255 113.338 126.745 113.428 126.285C113.608 125.415 113.738 124.545 113.908 123.675C114.108 122.655 114.308 121.635 114.528 120.585H120.928C120.888 120.895 120.848 121.215 120.798 121.525C120.618 122.505 120.438 123.485 120.248 124.465C120.108 125.185 119.988 125.905 119.818 126.615C119.578 127.605 119.408 128.635 119.038 129.575C118.508 130.895 117.448 131.635 116.018 131.885C114.248 132.195 112.468 132.235 110.688 132.225C110.418 132.225 110.098 132.105 109.898 131.935C109.358 131.455 108.848 130.935 108.358 130.395C108.148 130.165 108.038 130.155 107.828 130.375C107.408 130.835 106.968 131.275 106.528 131.715C106.178 132.065 105.758 132.285 105.248 132.275C104.538 132.265 103.828 132.195 103.128 132.255C102.438 132.315 101.988 132.025 101.548 131.565C101.088 131.085 100.588 130.645 100.158 130.245C99.628 130.745 99.038 131.265 98.478 131.825C98.178 132.125 97.858 132.275 97.428 132.265C95.778 132.245 94.138 132.265 92.488 132.265C92.338 132.265 92.178 132.265 92.068 132.265C91.838 133.335 91.688 134.365 91.368 135.355C90.968 136.575 90.108 137.455 88.948 138.005C88.288 138.325 87.598 138.465 86.868 138.445C85.958 138.415 85.048 138.445 84.148 138.435C84.008 138.435 83.828 138.385 83.738 138.295C82.228 136.795 80.728 135.295 79.228 133.785C79.218 133.775 79.218 133.735 79.198 133.675H79.658C81.938 133.675 84.228 133.675 86.508 133.675C86.848 133.675 86.998 133.555 87.048 133.255C87.098 132.955 87.148 132.645 87.218 132.275C84.138 132.325 81.068 132.385 77.918 132.435V132.405ZM88.988 123.515C87.808 123.515 86.698 123.515 85.578 123.515C84.968 123.515 84.388 123.975 84.248 124.595C84.058 125.475 83.888 126.355 83.698 127.245H88.248C88.488 126.015 88.728 124.795 88.978 123.515H88.988Z" fill="#003D0F"/>
<path d="M32.6668 114.006C32.5768 114.526 32.4868 115.026 32.3968 115.516C32.1468 116.826 31.9068 118.136 31.6568 119.446C31.4868 120.306 31.3068 121.156 31.1468 122.016C30.9168 123.246 30.6968 124.476 30.4668 125.706C30.3968 126.066 30.3268 126.426 30.2868 126.786C30.2068 127.426 30.3368 127.586 30.9668 127.586C33.0468 127.586 35.1368 127.586 37.2168 127.586C37.7868 127.586 38.1368 127.306 38.2368 126.756C38.5368 125.136 38.8968 123.536 39.2168 121.916C39.3668 121.136 39.4768 120.336 39.6168 119.516H45.9968C45.8668 120.166 45.7268 120.796 45.6068 121.426C45.3768 122.636 45.1668 123.856 44.9368 125.076C44.7868 125.886 44.6068 126.706 44.4468 127.516C44.2868 128.326 44.1568 129.146 43.9968 129.956C43.8768 130.576 43.7368 131.186 43.5668 131.796C43.5268 131.926 43.3668 132.076 43.2268 132.126C42.9868 132.206 42.7268 132.256 42.4768 132.256C37.5468 132.256 32.6068 132.276 27.6768 132.256C26.6168 132.256 25.5568 132.066 24.5968 131.506C23.6468 130.956 23.4368 130.046 23.5268 129.076C23.6168 128.066 23.8668 127.076 24.0368 126.076C24.2468 124.886 24.4568 123.696 24.6768 122.506C24.8268 121.686 24.9968 120.876 25.1568 120.066C25.3368 119.096 25.5168 118.136 25.6968 117.166C25.8568 116.336 26.0268 115.506 26.1968 114.686C26.2368 114.466 26.2868 114.246 26.3368 113.996H32.6668V114.006Z" fill="#003D0F"/>
<path d="M55.6071 114.016C55.4371 114.846 55.2771 115.646 55.1271 116.446C54.9871 117.206 54.8671 117.966 54.7271 118.726C54.6371 119.226 54.5271 119.716 54.4371 120.216C54.1371 121.846 53.8371 123.476 53.5271 125.106C53.4371 125.606 53.3171 126.096 53.2071 126.586C53.0671 127.226 53.2071 127.606 53.9771 127.596C55.9871 127.566 58.0071 127.566 60.0171 127.596C60.8471 127.596 61.0771 127.346 61.2671 126.446C61.4571 125.586 61.6071 124.706 61.7671 123.836C61.9471 122.866 62.1171 121.896 62.2971 120.926C62.3671 120.526 62.4471 120.126 62.5471 119.726C62.5771 119.626 62.7171 119.496 62.8071 119.496C64.8371 119.486 66.8571 119.486 68.9271 119.486C68.6771 120.706 68.4371 121.886 68.2071 123.076C67.9771 124.266 67.7871 125.456 67.5671 126.646C67.4071 127.516 67.2071 128.376 67.0371 129.246C66.8971 129.976 66.7571 130.706 66.6371 131.446C66.5771 131.836 66.3771 132.096 65.9971 132.186C65.7971 132.236 65.5771 132.256 65.3671 132.256C60.4571 132.256 55.5571 132.276 50.6471 132.246C49.5571 132.246 48.4771 132.056 47.4871 131.466C46.5071 130.876 46.3971 129.956 46.5071 129.006C46.6471 127.796 46.9071 126.596 47.1171 125.386C47.3771 123.876 47.6371 122.366 47.9171 120.856C48.1671 119.546 48.4671 118.246 48.7271 116.936C48.8971 116.056 49.0371 115.166 49.1971 114.276C49.2271 114.096 49.2871 113.946 49.5471 113.956C51.5071 113.966 53.4571 113.956 55.4171 113.956C55.4571 113.956 55.4971 113.976 55.6071 113.996V114.016Z" fill="#003D0F"/>
<path d="M63.4453 133.485C63.5553 133.485 63.6853 133.465 63.8153 133.465C65.2453 133.465 66.6753 133.455 68.1153 133.465C68.5053 133.465 68.7153 133.345 68.7953 132.955C68.9953 131.925 69.2353 130.895 69.4353 129.865C69.7053 128.485 69.9553 127.105 70.2253 125.725C70.3953 124.845 70.5853 123.965 70.7553 123.075C70.9753 121.945 71.2053 120.815 71.3953 119.675C71.4453 119.395 71.5453 119.315 71.7953 119.325C72.0353 119.325 72.2853 119.295 72.5153 119.335C72.6953 119.365 72.8953 119.435 73.0253 119.555C73.5453 120.055 74.0353 120.585 74.5753 121.145C75.1053 120.595 75.5853 120.115 76.0453 119.615C76.2453 119.395 76.4553 119.305 76.7453 119.325C77.0853 119.345 77.4253 119.325 77.8153 119.325C77.6053 120.435 77.3953 121.495 77.1953 122.555C76.9653 123.815 76.7453 125.075 76.5053 126.325C76.3453 127.185 76.1553 128.035 75.9953 128.885C75.8453 129.675 75.7153 130.465 75.5753 131.245C75.4953 131.685 75.4253 132.135 75.3153 132.565C75.0653 133.575 74.8953 134.605 74.5153 135.565C74.0153 136.815 73.0053 137.575 71.6553 137.775C70.5853 137.935 69.4953 138.025 68.4153 138.115C68.2353 138.135 67.9953 138.045 67.8553 137.915C67.0653 137.155 66.2953 136.385 65.5253 135.605C64.8353 134.905 64.1553 134.185 63.4553 133.465L63.4453 133.485Z" fill="#003D0F"/>
<path d="M37.5586 118.716C36.2486 117.406 35.0186 116.176 33.8086 114.966C35.0586 113.726 36.3086 112.486 37.6286 111.176C38.7186 112.296 39.8686 113.476 41.0286 114.656C41.1786 114.806 41.2986 114.906 41.0886 115.116C39.9086 116.296 38.7486 117.496 37.5586 118.706V118.716Z" fill="#003D0F"/>
<path d="M61.5677 134.186C62.7777 135.396 64.0177 136.646 65.2477 137.876C63.9877 139.146 62.7577 140.386 61.5377 141.616C60.2877 140.356 59.0577 139.116 57.8477 137.886C59.0477 136.696 60.2877 135.456 61.5677 134.176V134.186Z" fill="#003D0F"/>
<path d="M56.9869 137.885C56.4369 138.405 55.9569 138.845 55.4969 139.295C54.7769 139.995 54.0569 140.705 53.3469 141.425C53.1569 141.615 53.0769 141.605 52.8869 141.415C52.1769 140.685 51.4469 139.985 50.7269 139.265C50.2769 138.815 49.8269 138.355 49.2969 137.825C50.4669 136.695 51.6169 135.585 52.7669 134.465C53.0169 134.215 53.2169 134.215 53.4669 134.465C54.6169 135.595 55.7769 136.705 56.9969 137.895L56.9869 137.885Z" fill="#003D0F"/>
<path d="M78.3286 114.985C77.1386 116.175 75.9086 117.405 74.6586 118.665C73.4686 117.475 72.2986 116.275 71.1086 115.105C70.8686 114.865 71.0386 114.745 71.1786 114.605C72.2686 113.525 73.3686 112.455 74.4586 111.385C74.5186 111.325 74.5586 111.255 74.5886 111.205C75.8386 112.465 77.0786 113.735 78.3286 114.985Z" fill="#003D0F"/>
</g>
<defs>
<clipPath id="clip0_4934_36809">
<rect width="192" height="192" fill="white"/>
</clipPath>
</defs>
</svg>
