<svg width="192" height="192" viewBox="0 0 192 192" fill="none" xmlns="http://www.w3.org/2000/svg">
<g clip-path="url(#clip0_4938_31770)">
<path d="M96 192C149.019 192 192 149.019 192 96C192 42.9807 149.019 0 96 0C42.9807 0 0 42.9807 0 96C0 149.019 42.9807 192 96 192Z" fill="white"/>
<g clip-path="url(#clip1_4938_31770)">
<path d="M93.8889 79.0883C101.84 71.779 111.258 68.3678 122.264 68.8221C117.876 65.3565 102.134 66.0502 96.0488 69.8232C96.7261 71.0037 96.7343 71.099 95.502 71.6348C93.1571 72.6549 90.7851 73.6125 88.4212 74.589C88.2308 74.6679 88.0104 74.6815 87.6187 74.7631C87.8227 73.1473 88.0295 71.643 88.1954 70.1333C88.3042 69.154 88.443 68.1665 88.413 67.19C88.3722 65.8788 87.7656 65.3647 86.4708 65.3266C82.0749 65.1933 75.1736 70.0381 73.8135 74.2109C73.7672 74.3496 73.7237 74.4884 73.6856 74.6298C72.8152 77.8778 73.6856 79.1536 77.0098 79.461C78.174 79.5698 79.3465 79.5725 80.5107 79.6786C81.5335 79.7711 82.0368 79.3984 81.9307 78.3348C81.8056 77.0672 81.6886 75.7968 81.5526 74.5292C81.5145 74.181 81.4193 73.841 81.3295 73.3867C82.5373 73.5907 83.2935 74.2708 83.6281 75.1875C84.0334 76.2973 84.2293 77.5024 84.3789 78.6857C84.4687 79.3875 84.6809 79.5997 85.3908 79.597C87.8744 79.5861 90.3662 79.5263 92.8389 79.7167C96.9764 80.035 99.4273 82.6246 99.6612 86.7703C99.9224 91.4165 98.3691 95.5594 95.8529 99.3514C92.254 104.776 87.5208 108.63 80.8589 109.601C77.0587 110.153 73.4789 109.623 70.3833 107.178C69.6189 106.574 68.9279 105.836 68.3594 105.045C67.8017 104.27 67.3475 104.226 66.5586 104.705C61.0311 108.073 55.0166 109.656 48.5587 109.218C40.855 108.695 34.2639 105.896 29.8652 99.1991C26.6907 94.3652 25.8637 88.9138 26.0922 83.2476C26.299 78.1716 27.5938 73.4846 30.7112 69.3308C36.9243 61.0531 47.4271 61.4639 53.7952 65.1743C58.2482 67.7694 61.3657 71.5206 63.0196 76.3436C64.8204 81.5909 66.3355 86.9362 67.9758 92.238C68.6994 94.5774 69.3876 96.9249 70.1602 99.248C70.5737 100.494 70.8103 100.529 71.8195 99.7105C75.0675 97.0718 77.3144 93.6634 79.1343 89.9666C79.9368 88.3371 80.4862 86.5826 81.1282 84.877C81.4601 83.9984 81.1881 83.6638 80.187 83.6474C78.1087 83.6121 76.006 83.6066 73.9631 83.2693C69.9834 82.6137 68.7484 80.4675 70.3071 76.7543C72.6003 71.2894 76.6589 67.4348 82.0014 64.9784C85.4344 63.4007 89.0741 62.4187 92.8117 61.8447C93.0211 61.812 93.2387 61.8392 93.5978 61.8392C93.5053 62.7206 93.4156 63.5557 93.334 64.3256C112.079 55.463 128.422 58.5532 142.592 73.8165C142.723 73.3894 142.875 73.0004 142.957 72.5951C143.963 67.579 144.959 62.5628 145.96 57.544C146.039 57.1495 146.142 56.7605 146.213 56.3661C146.379 55.414 146.896 55.1638 147.788 55.4984C149.912 56.2899 152.064 57.0027 154.161 57.8568C154.79 58.1125 155.451 58.6239 155.788 59.2006C159.129 64.9077 162.42 70.6474 165.676 76.4034C165.956 76.8985 166.005 77.5976 165.97 78.1906C165.823 80.6715 165.595 83.1469 165.412 85.6251C165.293 87.2436 164.95 87.5075 163.41 86.9825C159.156 85.5353 154.912 84.0555 150.658 82.6001C149.599 82.2384 148.528 81.9174 147.157 81.4821C152.774 95.5322 151.98 108.859 143.087 120.898C134.162 132.982 121.788 137.797 106.922 136.102C106.9 135.982 106.875 135.863 106.854 135.746C109.438 135.746 112.049 135.979 114.601 135.68C117.19 135.376 119.799 134.764 122.25 133.877C124.704 132.99 127.1 131.796 129.285 130.373C131.439 128.969 133.458 127.267 135.239 125.409C137.046 123.526 138.694 121.415 140.03 119.179C141.368 116.941 142.339 114.462 143.278 112.011C144.208 109.58 144.809 107.042 144.771 104.351C135.911 119.612 122.77 126.412 105.265 124.894C108.423 124.655 111.617 124.642 114.729 124.136C129.2 121.788 140.775 109.454 142.864 94.9473C143.629 89.6347 141.49 85.6414 138.939 81.474C135.351 75.6118 129.6 73.3323 123.393 72.0429C112.699 69.8232 103.032 72.3176 94.4982 79.1536C94.3676 79.257 94.2099 79.3304 94.0657 79.4147C94.0059 79.3059 93.946 79.1971 93.8862 79.0883H93.8889ZM154.482 64.5731C154.839 64.3174 155.198 64.0617 155.617 63.7597C154.006 62.6444 152.51 61.608 151.014 60.5716C152.66 61.5155 154.303 62.4567 156.063 63.466C156.272 61.9073 156.422 60.6995 155.179 59.5216C154.297 58.6865 153.318 58.2893 152.29 57.9194C151.011 57.4597 149.67 57.1767 148.052 56.7361C148.364 57.3808 148.462 57.748 148.683 58.0037C149.45 58.8905 150.261 59.7419 151.058 60.607C150.824 60.5825 150.592 60.558 150.119 60.5063C150.747 61.5863 151.259 62.4867 151.789 63.3762C152.446 64.4806 153.355 64.8705 154.518 64.5459C154.371 64.6465 154.238 64.7907 154.074 64.8424C153.087 65.1579 152.943 65.6802 153.533 66.5371C154.069 67.3151 154.49 68.1693 154.975 68.9826C155.252 69.4505 155.554 69.9048 155.842 70.3645C155.929 70.3291 156.019 70.2938 156.106 70.2557V64.1161C155.5 64.2847 154.991 64.4289 154.482 64.5704V64.5731ZM163.666 81.4604C162.825 82.8776 163.008 83.8134 164.468 84.9504C164.811 83.3645 165.203 81.863 165.434 80.3396C165.54 79.646 165.091 79.7793 164.727 80.1438C166.1 78.6776 165.235 77.1406 164.661 75.7669C164.398 75.1358 163.386 74.8148 162.714 74.3524L162.39 74.6353C162.526 76.8822 162.621 79.1346 162.823 81.3788C162.893 82.1758 163.331 81.882 163.66 81.4631L163.666 81.4604ZM150.962 67.3777C151.245 66.6976 151.936 65.8516 151.74 65.3701C151.117 63.8468 150.163 62.4622 149.336 61.0232C149.219 61.0313 149.104 61.0422 148.987 61.0504C147.91 65.1688 146.83 69.29 145.753 73.4084L146.041 73.5744C146.308 73.3214 146.572 73.0711 146.838 72.8182C146.664 73.1827 146.493 73.5445 146.319 73.909C146.387 73.9851 146.455 74.0613 146.52 74.1347C149.259 73.3214 152.001 72.5162 154.73 71.6729C154.896 71.6212 155.116 71.1561 155.048 71.0282C154.167 69.4151 153.236 67.8265 152.118 65.887C151.615 66.5344 151.289 66.956 150.962 67.3777ZM28.6139 82.7824C28.5976 84.6267 29.1172 87.6598 30.1672 90.6276C33.5729 100.238 41.7908 106.495 51.8149 106.965C56.9153 107.205 61.6268 105.774 66.1234 103.448C66.9231 103.035 66.9639 102.643 66.6756 101.911C66.0472 100.314 65.3943 98.7176 64.9128 97.0746C63.2916 91.5361 61.8716 85.9379 60.1171 80.443C58.7461 76.1504 56.8092 72.081 53.6619 68.7242C47.6175 62.2826 36.878 62.8213 31.8592 69.8585C29.3865 73.3268 28.6112 77.3093 28.6139 82.7824ZM86.819 83.4461C86.8108 83.5169 86.8027 83.5903 86.7945 83.661C86.1362 83.661 85.4779 83.6991 84.825 83.6502C84.1178 83.5985 83.7941 83.8923 83.5764 84.5614C81.4002 91.2886 77.4314 96.7726 71.9202 101.16C71.3544 101.609 71.2565 101.99 71.5747 102.635C73.7319 106.99 76.803 108.687 81.6342 108.064C86.8897 107.387 90.5375 104.297 93.3612 100.056C95.6326 96.6448 96.5466 92.8691 96.0596 88.7941C95.7822 86.4711 94.5309 84.8171 92.2078 84.2758C90.4423 83.8651 88.6198 83.71 86.8217 83.4407L86.819 83.4461ZM161.258 82.5213C161.348 82.4342 161.435 82.3472 161.525 82.2574C160.976 81.2917 160.385 80.3423 159.887 79.3522C159.373 78.3321 158.818 77.4752 157.464 77.856C157.834 77.7119 158.201 77.5704 158.74 77.361C157.641 75.4486 156.618 73.6696 155.5 71.7246C153.095 74.0151 150.856 76.1504 148.617 78.2831C148.672 78.3756 148.724 78.4681 148.778 78.5606C150.533 78.4191 152.287 78.2804 154.039 78.1389L154.047 78.275L149.363 78.7809L149.336 79.1237C153.31 80.2553 157.284 81.3896 161.261 82.5213H161.258ZM156.471 64.7037C156.471 65.8434 156.612 66.8989 156.444 67.9C156.025 70.3536 156.914 71.8307 159.338 72.4672C160.138 72.6767 160.869 73.1473 161.726 73.5417C161.661 69.8884 159.395 66.0583 156.471 64.7037ZM156.92 71.624C156.83 71.7219 156.74 71.8171 156.65 71.915C158.487 75.0923 160.325 78.2722 162.284 81.6617C162.406 81.2563 162.485 81.1285 162.477 81.0034C162.368 79.1454 162.295 77.2848 162.102 75.4377C162.042 74.8747 161.794 74.0939 161.378 73.8464C159.953 73.0004 158.416 72.3503 156.92 71.624ZM144.148 68.6018C144.268 68.6317 144.388 68.6616 144.507 68.6915C145.723 66.3793 146.931 64.0617 148.155 61.7522C149.004 60.15 148.732 58.9449 147.072 57.6528C146.085 61.3496 145.119 64.9757 144.151 68.6018H144.148ZM163.222 85.6523C162.659 83.4978 162.2 83.1061 160.396 82.9783C158.212 82.8259 156.03 82.6518 153.846 82.4941C153.549 82.4723 153.25 82.4913 152.951 82.4913C152.94 82.5865 152.926 82.6845 152.915 82.7797C156.294 83.7209 159.67 84.6621 163.225 85.6523H163.222ZM92.847 67.8075C92.7981 67.7993 92.7491 67.7911 92.7001 67.7803C92.6022 68.2971 92.4145 68.8167 92.4308 69.3281C92.4472 69.8232 92.526 70.5005 92.8443 70.748C93.1653 70.9929 93.8182 70.8025 94.3269 70.8025C92.8008 70.6474 92.7301 70.5658 92.8416 68.9608C92.8688 68.5773 92.8443 68.191 92.8443 67.8075H92.847Z" fill="black"/>
<path d="M124.857 91.7347C125.969 91.3457 126.698 91.09 127.781 90.7119C127.294 92.2053 126.913 93.3805 126.532 94.5556C126.589 94.5937 126.647 94.6318 126.704 94.6699C127.321 94.0741 127.906 93.4403 128.567 92.8963C129.408 92.2053 130.286 91.5498 131.206 90.9703C131.472 90.8017 131.943 90.9567 132.321 90.9649C132.313 91.3131 132.411 91.7075 132.28 91.9986C131.548 93.628 130.765 95.2357 129.998 96.8488C129.873 97.1126 129.734 97.3711 129.623 97.6404C129.342 98.3232 129.147 98.9706 130.357 99.0059C129.587 99.3215 128.815 99.6343 127.797 100.051C128.241 96.944 129.995 94.6617 130.953 92.0911C130.863 92.004 130.77 91.917 130.681 91.8299C130.27 92.0557 129.818 92.2271 129.457 92.5127C127.343 94.1639 125.871 96.3156 124.664 98.6849C124.421 99.1583 123.926 99.4983 123.548 99.9009C123.437 99.8193 123.322 99.7377 123.211 99.6561C123.312 99.3705 123.401 99.0821 123.513 98.8019C124.269 96.9059 125.05 95.0153 125.782 93.1112C126.002 92.5426 126.236 91.8789 124.859 91.732L124.857 91.7347Z" fill="black"/>
<path d="M129.336 105.105C132.467 105.959 133.729 105.51 135.204 102.727C136.05 101.131 136.566 99.357 137.211 97.6568C137.276 97.4828 137.219 97.2597 137.219 96.8353C136.632 97.3767 136.207 97.8092 135.739 98.19C135.146 98.6742 134.572 99.2237 133.898 99.5474C133.362 99.8031 132.565 99.9908 132.108 99.7623C131.8 99.6073 131.697 98.628 131.828 98.0975C132.336 96.0029 133.71 94.4959 135.269 93.2637C134.589 94.3599 133.852 95.5079 133.169 96.6884C132.976 97.0203 132.864 97.4583 132.88 97.8391C132.897 98.239 133.006 98.8075 133.275 98.9707C133.539 99.1339 134.143 99.0061 134.45 98.7912C136.112 97.6296 137.187 95.9921 137.978 94.1532C138.117 93.8322 138.256 93.5112 138.46 93.0352C139.107 94.262 138.242 95.0318 137.973 95.9812C138.22 96.09 138.465 96.1961 138.816 96.3484C137.619 99.8303 136.711 103.437 133.191 105.412C132.391 105.861 131.441 106.098 130.53 106.264C129.885 106.381 129.363 106.03 129.339 105.108L129.336 105.105Z" fill="black"/>
<path d="M116.998 99.0057C117.661 98.7826 118.021 98.6629 118.388 98.5405C118.399 98.6112 118.418 98.6575 118.407 98.6684C117.705 99.2695 116.971 100.279 116.043 99.6939C115.673 99.46 115.771 98.0482 116.043 97.3137C117.278 93.9569 118.66 90.6545 119.968 87.325C120.183 86.7809 120.602 86.1008 119.234 85.8832C120.186 85.4806 120.89 85.1841 121.9 84.7598C121.704 85.5976 121.638 86.1933 121.426 86.7319C120.406 89.3107 119.337 91.8705 118.303 94.4466C117.909 95.4286 117.536 96.4215 117.213 97.4279C117.077 97.8523 117.087 98.3229 117.003 99.0057H116.998Z" fill="black"/>
<path d="M101.43 90.763C102.697 91.035 102.224 88.6058 103.728 88.7881C104.324 89.4763 102.632 90.423 103.921 90.8555C103.603 91.1139 103.043 91.3533 102.847 91.764C101.971 93.6057 101.166 95.4881 100.407 97.3813C100.222 97.8438 100.295 98.4123 100.252 98.9319H101.688C101.65 98.9808 101.609 99.0842 101.536 99.1196C100.698 99.5167 99.7294 100.336 98.9677 99.5766C98.6304 99.242 99.0575 97.9744 99.3458 97.2127C100.015 95.4391 100.834 93.7226 101.536 91.9626C101.647 91.6824 101.484 91.288 101.43 90.7657V90.763Z" fill="black"/>
<path d="M109.832 99.7594C110.561 97.6593 111.263 95.6708 111.935 93.6715C112.142 93.0567 112.37 92.3739 111.179 92.2216C112.063 91.6966 112.767 91.2804 113.727 90.7118C113.564 91.6666 113.447 92.3521 113.281 93.3396C114.677 92.4011 115.425 90.8506 117.011 90.6982C117.109 90.7989 117.204 90.8995 117.302 91.0002C117.041 91.2722 116.788 91.7646 116.513 91.7755C115.044 91.8407 114.103 92.7112 113.488 93.8483C112.642 95.4124 111.976 97.0745 111.293 98.7202C111.037 99.3377 110.814 99.8627 109.835 99.7594H109.832Z" fill="black"/>
<path d="M121.73 91.3536C122.1 91.2013 122.728 90.9401 123.599 90.5811C123.482 91.155 123.46 91.5359 123.327 91.8732C122.576 93.7719 121.793 95.657 121.034 97.553C120.797 98.1461 120.514 98.7962 121.643 98.9893C120.949 99.3049 120.258 99.6177 119.565 99.9333C119.478 99.8625 119.391 99.7918 119.301 99.7211C119.469 99.0329 119.565 98.3174 119.82 97.6646C120.457 96.0351 121.197 94.4438 121.825 92.8117C121.956 92.4771 121.782 92.0228 121.727 91.3536H121.73Z" fill="black"/>
<path d="M107.583 91.6963C106.218 93.0863 105.075 94.6205 104.602 96.5519C104.39 97.4142 103.925 98.4724 104.923 99.0355C105.897 99.585 106.767 98.8424 107.417 98.1569C108.108 97.4306 108.647 96.5601 109.281 95.7141C109.319 95.8392 109.39 95.9399 109.368 96.0215C108.984 97.5693 106.248 99.9196 104.665 100.061C103.789 100.14 103.283 99.7727 103.185 98.8587C102.921 96.4077 105.23 92.6674 107.611 91.7235L107.586 91.699L107.583 91.6963Z" fill="black"/>
<path d="M107.607 91.7204C108.417 91.3777 109.201 90.9234 110.044 90.7248C110.702 90.5698 111.029 91.0213 110.849 91.7422C110.591 92.7731 108.159 94.661 106.176 94.3182C106.81 94.1768 107.177 94.1387 107.511 94.0109C107.982 93.8313 108.529 93.6817 108.853 93.339C109.212 92.9581 109.356 92.3733 109.592 91.8782C109.103 91.802 108.613 91.715 108.121 91.6578C107.947 91.6361 107.764 91.685 107.585 91.6986L107.609 91.7231L107.607 91.7204Z" fill="black"/>
<path d="M136.58 92.3004C138.038 91.3456 139.719 90.7906 141.58 90.8478C141.789 90.8532 141.993 91.1443 142.197 91.3021C141.972 91.4762 141.762 91.7727 141.52 91.7999C139.885 91.9957 138.242 92.1372 136.58 92.2977V92.3004Z" fill="black"/>
</g>
</g>
<defs>
<clipPath id="clip0_4938_31770">
<rect width="192" height="192" fill="white"/>
</clipPath>
<clipPath id="clip1_4938_31770">
<rect width="140" height="81.3021" fill="white" transform="translate(26 55.3486)"/>
</clipPath>
</defs>
</svg>
