<svg width="192" height="192" viewBox="0 0 192 192" fill="none" xmlns="http://www.w3.org/2000/svg">
<g clip-path="url(#clip0_4937_31737)">
<path d="M96 192C149.019 192 192 149.019 192 96C192 42.9807 149.019 0 96 0C42.9807 0 0 42.9807 0 96C0 149.019 42.9807 192 96 192Z" fill="white"/>
<path d="M37.81 93.7487C35.2 91.8987 32.55 90.9688 29.87 90.9688C28.34 90.9688 26.83 93.2488 25.37 97.7988C24.12 101.659 23.5 104.599 23.5 106.629C23.5 112.179 26.48 114.949 32.45 114.949C35.8 114.949 38.4 113.729 40.24 111.279C41.88 109.089 42.69 106.259 42.69 102.779C42.69 99.0687 41.06 96.0587 37.81 93.7487ZM33.74 105.029C30.69 105.029 29.16 104.309 29.16 102.859C29.16 102.269 29.29 101.689 29.56 101.119C29.9 100.429 30.32 100.079 30.82 100.079C31.7 100.079 33 100.459 34.74 101.219C36.65 102.049 37.6 102.799 37.6 103.469C37.6 104.519 36.31 105.039 33.73 105.039L33.74 105.029Z" fill="#262626"/>
<path d="M95.3203 77.7695C95.2503 77.7695 95.1403 77.7895 94.9903 77.8395L75.3903 84.3195C75.1003 84.4195 74.9303 84.6595 74.8603 85.0295L73.4403 93.1795C75.6003 95.1195 77.0903 96.4595 77.9203 97.2095C79.5703 98.6995 80.8403 100.09 81.7403 101.39C81.9403 101.68 82.0403 101.95 82.0403 102.2C82.0403 102.64 81.7803 102.93 81.2603 103.06C80.0503 103.38 77.7003 103.54 74.2303 103.54H71.4203C69.7803 103.54 68.5503 102.39 67.7303 100.1L62.9803 87.0095C62.8303 86.6095 62.6903 86.3995 62.5803 86.3995C62.4503 86.3995 62.2403 86.5295 61.9703 86.7995L56.3603 92.4595L60.5603 102.5C60.6103 102.62 60.6403 102.73 60.6403 102.83C60.6403 103.44 59.9103 103.96 58.4703 104.4C57.2903 104.75 56.1003 104.93 54.9003 104.93C53.1103 104.93 51.8803 104.47 51.2103 103.54C51.0903 103.37 50.7903 102.51 50.3003 100.96C50.0103 100.03 49.4103 99.5695 48.4803 99.5695C47.5503 99.5695 46.8903 100.59 46.3803 102.63C46.0103 104.11 45.8203 105.5 45.8203 106.78C45.8203 112.83 48.4003 115.86 53.5603 115.86C55.8503 115.86 57.7403 115.26 59.2203 114.06C60.4503 113.07 61.7803 111.29 63.2203 108.72C65.2803 112.92 67.9103 115.02 71.1403 115.02H76.4803C79.1303 115.02 81.3903 114.5 83.2603 113.48C86.8203 111.52 88.6003 108.01 88.6003 102.95C88.6003 100.4 88.1103 98.0995 87.1303 96.0595C86.4203 94.5895 85.2103 92.8395 83.5103 90.8195L93.9203 87.5695C94.1903 87.4895 94.3603 87.3895 94.4303 87.2695C94.4603 87.2195 94.5003 87.0195 94.5303 86.6595L95.4203 78.3595C95.4503 77.9695 95.4203 77.7795 95.3403 77.7795L95.3203 77.7695Z" fill="#262626"/>
<path d="M166.881 92.8194C165.751 91.5394 164.251 90.8994 162.381 90.8994C158.101 90.8994 152.911 94.2994 146.801 101.089C148.251 97.5194 148.971 93.8694 148.971 90.1694C148.971 89.2394 148.921 88.3294 148.821 87.4394C149.651 87.6894 150.251 87.8194 150.641 87.8194C150.991 87.8194 151.171 87.7194 151.171 87.5194C151.171 87.2994 151.031 86.8694 150.741 86.2294L146.901 77.6794C146.551 76.8994 146.271 76.5194 146.071 76.5194C145.901 76.5194 145.521 76.7694 144.931 77.2794L138.381 82.9694C141.011 88.5694 142.331 95.4294 142.331 103.549H136.511C135.211 103.549 134.561 101.599 134.561 97.6994C134.561 95.8394 134.691 93.0594 134.951 89.3594C135.211 85.6594 135.341 82.8794 135.341 81.0194C135.341 80.2294 135.311 79.3794 135.261 78.4894C135.191 77.2594 134.671 76.6394 133.691 76.6394C132.881 76.6394 132.301 77.1494 131.941 78.1794C128.081 89.3094 125.321 96.1394 123.651 98.6894C123.451 95.7894 122.421 92.2694 120.561 88.1194C118.251 82.9594 115.481 79.1794 112.241 76.7694C111.651 76.3294 111.141 76.1094 110.701 76.1094C110.081 76.1094 109.621 76.5694 109.331 77.4994L107.231 84.2494C107.041 84.8594 107.151 85.3994 107.561 85.8894L113.001 92.2594L113.891 90.9994C115.171 91.5394 116.521 93.2294 117.941 96.0794C119.291 98.7794 119.961 100.899 119.961 102.449C119.961 102.909 119.881 103.249 119.731 103.489C117.351 107.199 113.911 110.389 109.411 113.049C108.801 113.399 108.501 113.889 108.501 114.519C108.501 115.449 108.941 115.909 109.821 115.909C110.901 115.909 112.791 115.789 115.481 115.559C119.901 115.169 122.221 114.819 122.461 114.499C123.271 113.419 124.311 111.669 125.571 109.239C126.951 106.579 127.981 104.319 128.661 102.459C128.661 106.999 129.091 110.159 129.951 111.939C130.941 113.999 132.841 115.029 135.641 115.029H145.651C153.781 115.029 159.901 112.739 164.031 108.169C167.001 104.899 168.481 101.339 168.481 97.5094C168.481 95.5994 167.941 94.0394 166.861 92.8294L166.881 92.8194ZM158.481 102.959C156.561 103.529 154.071 103.819 151.021 103.819C150.281 103.819 149.521 103.799 148.741 103.769C152.301 100.259 155.201 98.5094 157.461 98.5094C159.721 98.5094 160.921 99.4794 160.921 101.419C160.921 101.959 160.101 102.469 158.471 102.959H158.481Z" fill="#262626"/>
</g>
<defs>
<clipPath id="clip0_4937_31737">
<rect width="192" height="192" fill="white"/>
</clipPath>
</defs>
</svg>
