<svg width="192" height="192" viewBox="0 0 192 192" fill="none" xmlns="http://www.w3.org/2000/svg">
<g clip-path="url(#clip0_4934_36871)">
<path d="M96 192C149.019 192 192 149.019 192 96C192 42.9807 149.019 0 96 0C42.9807 0 0 42.9807 0 96C0 149.019 42.9807 192 96 192Z" fill="white"/>
<path d="M118.898 118.155H113.138C112.078 111.975 111.018 105.765 109.888 99.1654C109.578 99.7654 109.388 100.045 109.278 100.355C107.438 105.815 105.568 111.255 103.798 116.735C103.408 117.935 102.848 118.335 101.618 118.285C97.0784 118.095 98.3084 119.115 96.7884 114.755C95.1184 109.965 93.5584 105.135 91.9484 100.325C91.8484 100.025 91.6884 99.7354 91.3684 99.0054C90.5984 103.425 89.9084 107.385 89.2184 111.345C88.8984 113.195 88.4984 115.045 88.2784 116.905C88.1484 118.015 87.6584 118.335 86.6084 118.275C85.1984 118.205 83.7884 118.255 82.1484 118.255C82.8084 114.505 83.4284 110.985 84.0384 107.465C85.1084 101.285 86.1984 95.1054 87.1884 88.9154C87.4084 87.5554 87.8184 86.9854 89.3184 87.0254C93.3584 87.1254 93.3584 87.0454 94.6384 90.8554C96.4384 96.2054 98.2284 101.555 100.028 106.905C100.168 107.325 100.348 107.725 100.648 108.515C101.458 106.135 102.148 104.125 102.828 102.105C104.358 97.5654 105.908 93.0354 107.388 88.4854C107.718 87.4754 108.158 87.0354 109.288 87.0354C113.658 87.0154 113.668 86.9654 114.388 91.2254C115.778 99.4354 117.158 107.645 118.538 115.855C118.658 116.575 118.758 117.295 118.878 118.145L118.898 118.155Z" fill="#262626"/>
<path d="M161.231 104.536C163.611 109.036 165.971 113.486 168.501 118.256C166.281 118.256 164.371 118.316 162.471 118.206C162.071 118.186 161.601 117.546 161.351 117.096C159.441 113.596 157.581 110.066 155.701 106.546C155.441 106.066 155.141 105.606 154.471 105.216V118.156H148.551V86.8359C152.841 87.1159 157.071 87.0859 161.181 87.7659C164.611 88.3359 166.411 91.0659 166.911 94.4459C167.431 98.0059 166.671 101.156 163.451 103.286C162.791 103.726 162.081 104.066 161.251 104.536H161.231ZM154.391 99.3459C156.111 99.2059 157.621 99.1759 159.101 98.9259C160.521 98.6859 161.191 97.6559 161.221 96.2459C161.251 94.8559 160.691 93.6859 159.341 93.3459C157.991 93.0059 156.541 93.0259 155.141 92.9759C154.901 92.9759 154.431 93.4159 154.421 93.6659C154.361 95.4659 154.391 97.2659 154.391 99.3459Z" fill="#262626"/>
<path d="M130.708 104.366V112.346H141.668V118.136H124.718C124.678 117.566 124.618 117.066 124.618 116.576C124.618 107.336 124.648 98.0857 124.578 88.8457C124.578 87.3957 125.018 87.0257 126.418 87.0457C131.428 87.1257 136.448 87.0757 141.608 87.0757V92.8957H130.758V98.4357H141.738C141.738 100.246 141.798 101.876 141.678 103.496C141.658 103.786 140.908 104.226 140.488 104.236C137.808 104.306 135.128 104.266 132.448 104.276C131.898 104.276 131.338 104.326 130.708 104.356V104.366Z" fill="#262626"/>
<path d="M28.93 93.0473H23.5V87.1973H40.54V92.9573H35.05V118.137H28.93V93.0573V93.0473Z" fill="#262626"/>
<path d="M70.5586 83.1462C71.8086 79.7262 72.9786 76.5363 74.1286 73.4062C75.6086 73.8063 76.4886 74.3462 76.4886 74.3462C76.8586 76.2862 77.2986 79.2162 78.1086 81.2262C78.7986 79.3662 79.4986 77.5062 80.2486 75.4662C80.8986 75.6862 81.4586 75.8862 82.1886 76.1362C80.9786 79.4462 79.8086 82.6362 78.6386 85.8462C77.2986 85.6462 76.6886 85.1662 76.7586 85.1662C76.7886 85.1662 75.4386 80.0962 74.6186 78.0962C73.9186 79.9762 73.2286 81.8462 72.4986 83.8162C71.8086 83.5762 71.2886 83.3862 70.5586 83.1362V83.1462Z" fill="#262626"/>
<path d="M51.6402 83.7964C50.9602 83.9864 50.4402 84.1264 49.6802 84.3364C48.7602 80.9164 47.8702 77.6064 46.9102 74.0564C48.9702 73.3764 51.1902 72.1864 53.1702 74.1864C54.3602 75.3764 54.2102 76.8264 52.8502 78.8764C53.9102 80.0164 54.9802 81.1764 56.1602 82.4464C55.5102 82.8464 54.1302 83.1564 54.1302 83.1864C54.1302 83.2064 53.5702 82.7164 53.1602 82.1864C52.5102 81.3364 51.7002 80.6164 50.7002 79.9464C51.0002 81.1564 51.2902 82.3564 51.6502 83.7964H51.6402ZM50.1102 77.7664C51.1402 77.4664 51.6402 77.3964 51.9302 76.8564C52.3802 76.0164 51.5602 75.2364 51.3602 75.1864C50.7802 75.0264 49.9802 75.1664 49.4002 75.3864C49.6702 76.3064 49.8402 76.8664 50.1002 77.7664H50.1102Z" fill="#262626"/>
<path d="M68.0786 82.3664C66.7786 82.4564 65.7186 82.3664 65.7086 82.3463L65.1186 80.1564C64.0186 80.1364 61.2486 80.2864 61.2486 80.2764C61.2386 80.2563 60.2286 82.0664 60.2086 82.0864C60.1886 82.1064 58.9186 82.2464 57.8086 82.4764C58.6786 80.4464 59.3486 78.8564 60.0386 77.2664C60.6886 75.7464 61.5186 73.6964 62.2786 72.2264C62.4986 71.8064 62.9486 71.9463 63.4386 71.9163C63.8586 71.8863 64.4786 71.9564 64.6186 72.3264C65.7986 75.5264 66.9686 79.0964 68.0886 82.3664H68.0786ZM64.4886 78.1764C64.1186 77.0964 63.7886 76.1363 63.2986 74.7363C62.7186 76.1163 62.3186 77.0564 61.8486 78.1764H64.4886Z" fill="#262626"/>
<path d="M62.9102 97.8866C67.4302 94.3666 76.8702 87.1766 76.8702 87.1566C76.8702 87.1366 77.7802 87.9766 77.8002 88.1766C73.1602 91.7866 68.5302 95.4066 63.8102 99.0866C63.4902 98.6566 63.2402 98.3266 62.9102 97.8866Z" fill="#262626"/>
<path d="M57.3694 99.0662C54.3894 96.2562 51.5794 93.6162 48.6094 90.8262C49.0794 90.3262 49.4794 89.9062 49.9594 89.4062C52.8894 92.1562 55.6994 94.7962 58.6494 97.5762C58.2094 98.0962 57.7994 98.5662 57.3694 99.0762V99.0662Z" fill="#262626"/>
<path d="M47.0481 85.5566C46.3981 85.8766 45.8681 86.1466 45.1981 86.4866C43.6481 83.3166 42.1481 80.2666 40.5781 77.0566C41.1381 76.7466 41.6581 76.4566 42.3781 76.0566C43.9481 79.2566 45.4681 82.3366 47.0481 85.5566Z" fill="#262626"/>
<path d="M63.0418 100.447C63.0018 101.727 61.8918 102.787 60.6018 102.787C59.2218 102.787 58.1118 101.647 58.1618 100.297C58.2118 98.9568 59.4318 97.8468 60.7618 97.9368C62.0318 98.0268 63.0918 99.1867 63.0518 100.447H63.0418Z" fill="#262626"/>
<path d="M60.2396 103.439L59.6523 103.211L53.9491 117.892L54.5363 118.12L60.2396 103.439Z" fill="#262626"/>
</g>
<defs>
<clipPath id="clip0_4934_36871">
<rect width="192" height="192" fill="white"/>
</clipPath>
</defs>
</svg>
