<svg width="192" height="192" viewBox="0 0 192 192" fill="none" xmlns="http://www.w3.org/2000/svg">
<g clip-path="url(#clip0_5298_11284)">
<path d="M96 192C149.019 192 192 149.019 192 96C192 42.9807 149.019 0 96 0C42.9807 0 0 42.9807 0 96C0 149.019 42.9807 192 96 192Z" fill="black"/>
<g clip-path="url(#clip1_5298_11284)">
<path d="M30.8835 118.866C30.6022 118.866 30.3313 118.833 30.0711 118.766C29.8108 118.699 29.5646 118.604 29.3325 118.481C29.1039 118.358 28.8911 118.207 28.6942 118.027C28.5007 117.848 28.3319 117.646 28.1877 117.421C28.0189 117.146 27.8888 116.84 27.7973 116.503C27.7059 116.169 27.6602 115.819 27.6602 115.453C27.6602 115.221 27.6742 114.996 27.7024 114.778C27.7305 114.559 27.7745 114.336 27.8342 114.108C27.8976 113.879 27.9784 113.64 28.0769 113.39C28.1789 113.14 28.302 112.866 28.4462 112.567L29.6332 113.132C29.5066 113.388 29.4011 113.619 29.3167 113.823C29.2323 114.027 29.1637 114.22 29.1109 114.403C29.0582 114.582 29.0195 114.756 28.9949 114.925C28.9738 115.091 28.9632 115.265 28.9632 115.448C28.9632 115.687 28.9931 115.915 29.0529 116.133C29.1127 116.355 29.1953 116.554 29.3009 116.73C29.4697 116.979 29.6912 117.178 29.9656 117.326C30.2434 117.477 30.5494 117.552 30.8835 117.552H31.9545C32.3273 117.552 32.6297 117.514 32.8619 117.436C33.0975 117.359 33.2804 117.248 33.4105 117.104C33.5407 116.963 33.6286 116.793 33.6743 116.592C33.7235 116.392 33.7481 116.17 33.7481 115.928V112.377H35.0617V115.928C35.0617 116.909 34.8015 117.644 34.281 118.133C33.7639 118.622 32.9885 118.866 31.9545 118.866H30.8835ZM30.778 111.966L31.7276 111.006L32.6983 111.976L31.7382 112.936L30.778 111.966ZM37.7256 116.028H36.412V108.42H37.7256V116.028ZM42.0788 116.028H41.8784C41.7342 116.028 41.597 116.019 41.4669 116.001C41.3403 115.984 41.2154 115.935 41.0923 115.854C41.0501 116.307 40.9464 116.719 40.7811 117.088C40.6157 117.458 40.3942 117.772 40.1164 118.033C39.842 118.296 39.5132 118.5 39.1299 118.645C38.7465 118.789 38.3156 118.861 37.8373 118.861H37.1778V117.547H37.8373C38.175 117.547 38.4668 117.512 38.713 117.442C38.9592 117.371 39.1615 117.259 39.3198 117.104C39.478 116.949 39.5958 116.747 39.6732 116.497C39.7506 116.251 39.7892 115.95 39.7892 115.595V112.382H41.1029V113.96C41.1029 114.122 41.1363 114.252 41.2031 114.35C41.2734 114.449 41.3526 114.526 41.4405 114.582C41.532 114.635 41.6199 114.67 41.7043 114.688C41.7887 114.705 41.8467 114.714 41.8784 114.714H42.0788V116.028ZM45.7317 111.596C45.7387 111.621 45.7528 111.679 45.7739 111.77C45.7985 111.862 45.8249 111.974 45.853 112.108C45.8812 112.238 45.9093 112.384 45.9374 112.546C45.9691 112.708 45.9973 112.871 46.0218 113.037C46.05 113.198 46.0711 113.357 46.0852 113.511C46.1027 113.666 46.1115 113.802 46.1115 113.918C46.1115 114.28 46.0517 114.595 45.9322 114.862C45.8126 115.126 45.6561 115.344 45.4626 115.516C45.2692 115.688 45.0511 115.817 44.8085 115.901C44.5693 115.986 44.3284 116.028 44.0857 116.028H41.812V114.714H44.1226C44.1648 114.714 44.2246 114.709 44.302 114.698C44.3829 114.684 44.462 114.651 44.5394 114.598C44.6203 114.545 44.6906 114.466 44.7505 114.361C44.8102 114.252 44.8401 114.104 44.8401 113.918C44.8401 113.84 44.8331 113.747 44.819 113.638C44.8085 113.525 44.7926 113.406 44.7716 113.279C44.7505 113.153 44.7258 113.024 44.6976 112.894C44.6731 112.76 44.6485 112.636 44.6238 112.52C44.5992 112.4 44.5745 112.293 44.55 112.198C44.5254 112.099 44.506 112.024 44.4919 111.971L45.7317 111.596ZM45.0933 118.898L44.2071 118.001L45.0828 117.094L45.9902 118.001L45.0933 118.898ZM42.8829 118.903L41.9966 118.006L42.8671 117.099L43.7744 118.006L42.8829 118.903ZM48.7085 116.028H47.3949V108.42H48.7085V116.028ZM56.8121 115.706C56.791 116.191 56.7013 116.628 56.543 117.014C56.3847 117.405 56.1667 117.735 55.8889 118.006C55.611 118.28 55.2751 118.492 54.8812 118.639C54.4873 118.787 54.0424 118.861 53.5465 118.861H52.8924V117.547H53.5465C53.8841 117.547 54.1761 117.512 54.4223 117.442C54.6685 117.371 54.8706 117.259 55.0289 117.104C55.1872 116.949 55.305 116.747 55.3824 116.497C55.4598 116.251 55.4985 115.95 55.4985 115.595V112.382H56.8121V115.706ZM59.8865 116.033C59.7529 116.033 59.6209 116.026 59.4909 116.012C59.3607 115.998 59.2288 115.979 59.0952 115.954C58.9615 115.929 58.8244 115.899 58.6836 115.864C58.543 115.826 58.3952 115.783 58.2405 115.738L57.6128 115.548L57.9926 114.282C58.2985 114.387 58.6151 114.48 58.9422 114.561C59.2727 114.642 59.5823 114.695 59.8707 114.72C60.1626 114.744 60.4141 114.734 60.6251 114.688C60.8396 114.639 60.9838 114.537 61.0577 114.382C61.0823 114.333 61.084 114.271 61.0629 114.197C61.0454 114.123 61.0084 114.046 60.9522 113.965L58.9844 111.095L60.0922 110.378L60.451 110.932C60.451 110.935 60.4563 110.946 60.4668 110.963C60.4809 110.981 60.5055 111.018 60.5406 111.074C60.5794 111.13 60.6321 111.211 60.6989 111.317C60.7693 111.419 60.8607 111.554 60.9733 111.723C61.0858 111.892 61.2229 112.101 61.3848 112.351C61.55 112.597 61.747 112.892 61.9756 113.237C62.155 113.508 62.264 113.788 62.3027 114.076C62.3449 114.364 62.3097 114.639 62.1972 114.899C62.1374 115.04 62.0565 115.17 61.9545 115.289C61.8561 115.405 61.74 115.509 61.6063 115.601C61.3566 115.773 61.0559 115.891 60.7042 115.954C60.4088 116.007 60.1362 116.033 59.8865 116.033ZM70.8337 116.028H70.6333C70.4891 116.028 70.3519 116.019 70.2217 116.001C70.0952 115.984 69.9703 115.935 69.8472 115.854C69.805 116.307 69.7012 116.719 69.5359 117.088C69.3707 117.458 69.149 117.772 68.8712 118.033C68.5969 118.296 68.2681 118.5 67.8847 118.645C67.5013 118.789 67.0705 118.861 66.5922 118.861H65.9327V117.547H66.5922C66.9298 117.547 67.2217 117.512 67.4679 117.442C67.7141 117.371 67.9163 117.259 68.0746 117.104C68.2329 116.949 68.3507 116.747 68.4281 116.497C68.5054 116.251 68.5441 115.95 68.5441 115.595V112.382H69.8577V113.96C69.8577 114.122 69.8911 114.252 69.958 114.35C70.0283 114.449 70.1074 114.526 70.1953 114.582C70.2868 114.635 70.3747 114.67 70.4592 114.688C70.5435 114.705 70.6016 114.714 70.6333 114.714H70.8337V116.028ZM73.558 111.596C73.5651 111.621 73.5791 111.679 73.6002 111.77C73.6248 111.862 73.6512 111.974 73.6794 112.108C73.7075 112.238 73.7357 112.384 73.7638 112.546C73.7954 112.708 73.8236 112.871 73.8482 113.037C73.8763 113.198 73.8974 113.357 73.9115 113.511C73.9291 113.666 73.9379 113.802 73.9379 113.918C73.9379 114.28 73.8781 114.595 73.7585 114.862C73.6389 115.126 73.4824 115.344 73.289 115.516C73.0955 115.688 72.8775 115.817 72.6348 115.901C72.3957 115.986 72.1548 116.028 71.912 116.028H70.5088V114.714H71.949C71.9912 114.714 72.051 114.709 72.1284 114.698C72.2092 114.684 72.2884 114.651 72.3658 114.598C72.4467 114.545 72.517 114.466 72.5768 114.361C72.6366 114.252 72.6665 114.104 72.6665 113.918C72.6665 113.84 72.6594 113.747 72.6453 113.638C72.6348 113.525 72.619 113.406 72.5979 113.279C72.5768 113.153 72.5522 113.024 72.5241 112.894C72.4994 112.76 72.4748 112.636 72.4501 112.52C72.4256 112.4 72.401 112.293 72.3763 112.198C72.3517 112.099 72.3323 112.024 72.3183 111.971L73.558 111.596ZM71.3212 109.476L72.2708 108.515L73.2415 109.486L72.2813 110.446L71.3212 109.476ZM77.8015 116.028C77.4146 116.028 77.0822 116.003 76.8044 115.954C76.5265 115.908 76.2927 115.84 76.1027 115.748C75.9128 115.653 75.7598 115.534 75.6437 115.39C75.5312 115.245 75.4451 115.077 75.3852 114.883C75.3254 114.69 75.285 114.472 75.2639 114.229C75.2463 113.983 75.2375 113.712 75.2375 113.416V108.42H76.5511V113.416C76.5511 113.698 76.5599 113.923 76.5775 114.092C76.5986 114.261 76.6496 114.392 76.7305 114.487C76.8149 114.579 76.9398 114.64 77.1051 114.672C77.2739 114.7 77.506 114.714 77.8015 114.714V116.028ZM77.5721 116.028V114.714H80.6583C80.7146 114.714 80.792 114.713 80.8905 114.709C80.9889 114.702 81.0856 114.688 81.1806 114.667C81.2756 114.642 81.3565 114.609 81.4233 114.566C81.4936 114.521 81.5288 114.459 81.5288 114.382C81.5288 114.231 81.4708 114.048 81.3547 113.833C81.2421 113.619 81.0962 113.39 80.9168 113.147C80.7374 112.905 80.5352 112.66 80.3102 112.414C80.0886 112.164 79.867 111.931 79.6454 111.712C79.4274 111.491 79.2216 111.296 79.0282 111.127C78.8347 110.958 78.68 110.831 78.5639 110.747L78.6694 109.555L83.2592 107.455L83.7392 108.605L79.8775 110.309C80.0112 110.439 80.1607 110.587 80.326 110.752C80.4948 110.918 80.6671 111.093 80.843 111.28C81.0188 111.463 81.1929 111.654 81.3652 111.855C81.5411 112.052 81.7046 112.251 81.8559 112.451C82.0106 112.648 82.1478 112.841 82.2673 113.031C82.3869 113.221 82.4802 113.401 82.547 113.569C82.6067 113.717 82.649 113.86 82.6735 113.997C82.6982 114.134 82.7105 114.259 82.7105 114.371C82.7105 114.512 82.6965 114.635 82.6683 114.741C82.6437 114.846 82.6155 114.936 82.5839 115.01C82.5417 115.105 82.4766 115.212 82.3887 115.331C82.3008 115.451 82.1777 115.562 82.0194 115.664C81.8647 115.766 81.6677 115.852 81.4286 115.922C81.1929 115.993 80.9063 116.028 80.5686 116.028H77.5721ZM91.8357 116.028C91.9166 116.144 91.9834 116.271 92.0361 116.408C92.0889 116.548 92.1153 116.675 92.1153 116.788C92.1153 117.115 92.0256 117.41 91.8462 117.674C91.6668 117.941 91.4242 118.168 91.1182 118.354C90.8123 118.541 90.4552 118.685 90.0473 118.787C89.6428 118.889 89.212 118.94 88.7548 118.94H87.4042C87.1158 118.94 86.8397 118.907 86.576 118.84C86.3122 118.773 86.0642 118.676 85.8321 118.55C85.6 118.427 85.3872 118.275 85.1938 118.096C85.0003 117.92 84.8298 117.72 84.682 117.494C84.3338 116.932 84.1597 116.272 84.1597 115.516C84.1597 115.284 84.1721 115.054 84.1967 114.825C84.2248 114.596 84.2688 114.363 84.3286 114.123C84.3918 113.881 84.4728 113.629 84.5712 113.369C84.6732 113.105 84.7981 112.82 84.9458 112.514L86.117 113.079C85.9939 113.339 85.8919 113.576 85.811 113.791C85.7301 114.006 85.6633 114.21 85.6105 114.403C85.5613 114.593 85.5261 114.778 85.505 114.957C85.4839 115.133 85.4734 115.31 85.4734 115.49C85.4734 116 85.5859 116.432 85.811 116.788C85.9728 117.055 86.1926 117.259 86.4704 117.4C86.7518 117.544 87.0631 117.616 87.4042 117.616H88.7548C89.0185 117.616 89.2683 117.591 89.5039 117.542C89.7396 117.493 89.947 117.424 90.1264 117.336C90.3058 117.248 90.4517 117.146 90.5643 117.03C90.6768 116.918 90.7419 116.795 90.7595 116.661C90.6575 116.552 90.5273 116.459 90.3691 116.381C90.2143 116.307 90.0367 116.244 89.8363 116.191C89.6393 116.142 89.4247 116.103 89.1926 116.075C88.964 116.051 88.7249 116.033 88.4751 116.023L88.5121 114.714H93.297V116.028H91.8357ZM91.9048 114.714C92.2565 114.714 92.5308 114.693 92.7278 114.651C92.9283 114.609 93.0689 114.547 93.1498 114.466C93.2061 114.417 93.2465 114.341 93.2712 114.239C93.2993 114.134 93.3134 113.993 93.3134 113.817V108.42H94.6217V113.817C94.6217 113.944 94.6147 114.076 94.6006 114.213C94.5901 114.35 94.5654 114.489 94.5268 114.63C94.4881 114.771 94.4318 114.909 94.358 115.047C94.2841 115.18 94.1856 115.307 94.0625 115.426C93.9535 115.528 93.8304 115.618 93.6932 115.695C93.556 115.769 93.3996 115.831 93.2237 115.88C93.0514 115.929 92.8562 115.966 92.6381 115.991C92.4201 116.016 92.1756 116.028 91.9048 116.028V114.714ZM106.887 116.028C106.968 116.144 107.035 116.271 107.088 116.408C107.141 116.548 107.167 116.675 107.167 116.788C107.167 117.115 107.077 117.41 106.898 117.674C106.719 117.941 106.476 118.168 106.17 118.354C105.864 118.541 105.507 118.685 105.099 118.787C104.694 118.889 104.263 118.94 103.806 118.94H102.456C102.168 118.94 101.891 118.907 101.628 118.84C101.364 118.773 101.116 118.676 100.884 118.55C100.652 118.427 100.439 118.275 100.246 118.096C100.052 117.92 99.8814 117.72 99.7341 117.494C99.3859 116.932 99.2118 116.272 99.2118 115.516C99.2118 115.284 99.2242 115.054 99.2488 114.825C99.2764 114.596 99.3206 114.363 99.3801 114.123C99.4439 113.881 99.5245 113.629 99.6231 113.369C99.7254 113.105 99.8502 112.82 99.9974 112.514L101.169 113.079C101.046 113.339 100.944 113.576 100.863 113.791C100.782 114.006 100.715 114.21 100.663 114.403C100.613 114.593 100.578 114.778 100.557 114.957C100.536 115.133 100.526 115.31 100.526 115.49C100.526 116 100.638 116.432 100.863 116.788C101.025 117.055 101.244 117.259 101.522 117.4C101.804 117.544 102.115 117.616 102.456 117.616H103.806C104.07 117.616 104.32 117.591 104.556 117.542C104.792 117.493 104.999 117.424 105.178 117.336C105.357 117.248 105.504 117.146 105.616 117.03C105.729 116.918 105.794 116.795 105.811 116.661C105.709 116.552 105.579 116.459 105.421 116.381C105.266 116.307 105.088 116.244 104.888 116.191C104.691 116.142 104.477 116.103 104.245 116.075C104.016 116.051 103.777 116.033 103.527 116.023L103.564 114.714H108.349V116.028H106.887ZM111.946 115.031C111.978 115.031 112.027 115.026 112.094 115.015C112.164 115.001 112.235 114.962 112.305 114.899C112.375 114.836 112.437 114.739 112.489 114.609C112.546 114.475 112.574 114.289 112.574 114.05C112.574 113.958 112.557 113.842 112.521 113.701C112.489 113.557 112.431 113.418 112.347 113.285C112.267 113.147 112.156 113.031 112.015 112.936C111.878 112.838 111.704 112.789 111.493 112.789C111.31 112.789 111.16 112.843 111.044 112.952C110.928 113.061 110.83 113.197 110.748 113.358C110.672 113.52 110.605 113.696 110.548 113.886C110.495 114.072 110.437 114.243 110.374 114.398C110.504 114.472 110.642 114.547 110.785 114.625C110.933 114.698 111.078 114.765 111.218 114.825C111.359 114.885 111.49 114.934 111.614 114.973C111.741 115.011 111.851 115.031 111.946 115.031ZM111.493 111.48C111.855 111.48 112.169 111.545 112.437 111.676C112.708 111.806 112.935 111.982 113.118 112.203C113.3 112.425 113.437 112.681 113.529 112.973C113.624 113.265 113.675 113.571 113.682 113.891C113.682 114.088 113.72 114.243 113.798 114.355C113.876 114.465 113.963 114.545 114.062 114.598C114.16 114.651 114.257 114.684 114.352 114.698C114.447 114.709 114.512 114.714 114.547 114.714H114.695V116.028H114.547C114.298 116.028 114.067 115.993 113.856 115.922C113.649 115.848 113.458 115.755 113.287 115.643C113.181 115.79 113.065 115.907 112.938 115.991C112.811 116.079 112.685 116.144 112.558 116.186C112.431 116.228 112.31 116.255 112.194 116.265C112.078 116.276 111.978 116.281 111.894 116.281C111.718 116.281 111.551 116.263 111.393 116.228C111.234 116.197 111.072 116.149 110.907 116.086C110.746 116.026 110.576 115.952 110.4 115.864C110.225 115.773 110.033 115.671 109.826 115.558C109.668 115.727 109.496 115.848 109.314 115.922C109.134 115.993 108.923 116.028 108.681 116.028H108.032L108.021 114.714H108.681C108.758 114.714 108.825 114.691 108.881 114.646C108.941 114.6 108.994 114.537 109.039 114.456C109.089 114.371 109.133 114.271 109.171 114.155C109.213 114.035 109.256 113.904 109.298 113.759C109.368 113.506 109.453 113.246 109.552 112.979C109.649 112.708 109.78 112.462 109.942 112.24C110.107 112.018 110.315 111.837 110.564 111.697C110.814 111.552 111.123 111.48 111.493 111.48ZM118.485 116.017C117.841 116.017 117.331 115.85 116.955 115.516C116.762 115.695 116.547 115.826 116.311 115.907C116.076 115.987 115.833 116.028 115.583 116.028H114.396V114.714H115.583C115.625 114.714 115.685 114.707 115.763 114.693C115.844 114.679 115.923 114.646 116 114.593C116.081 114.537 116.151 114.456 116.211 114.35C116.271 114.241 116.301 114.092 116.301 113.902V113.881V112.382H117.614V113.881C117.614 114.169 117.681 114.38 117.815 114.514C117.952 114.644 118.176 114.709 118.485 114.709C118.527 114.709 118.587 114.702 118.665 114.688C118.745 114.67 118.824 114.633 118.902 114.577C118.982 114.521 119.053 114.438 119.113 114.329C119.172 114.217 119.202 114.067 119.202 113.881V112.382H120.511V113.881C120.511 114.169 120.58 114.382 120.717 114.519C120.857 114.653 121.084 114.72 121.397 114.72C121.443 114.72 121.504 114.711 121.581 114.693C121.663 114.672 121.742 114.633 121.819 114.577C121.896 114.517 121.963 114.433 122.019 114.324C122.076 114.215 122.104 114.067 122.104 113.881C122.104 113.803 122.097 113.71 122.083 113.601C122.072 113.492 122.056 113.378 122.035 113.258C122.018 113.135 121.997 113.012 121.972 112.889C121.948 112.762 121.923 112.643 121.898 112.53C121.874 112.418 121.849 112.316 121.824 112.224C121.803 112.133 121.786 112.061 121.771 112.008L123.011 111.602C123.018 111.626 123.032 111.683 123.053 111.77C123.075 111.858 123.1 111.967 123.127 112.098C123.159 112.228 123.191 112.372 123.222 112.53C123.254 112.688 123.282 112.848 123.307 113.01C123.335 113.169 123.358 113.325 123.375 113.48C123.393 113.631 123.401 113.765 123.401 113.881C123.401 114.239 123.342 114.554 123.222 114.825C123.106 115.092 122.953 115.316 122.763 115.495C122.574 115.671 122.359 115.803 122.12 115.891C121.881 115.979 121.639 116.024 121.397 116.028C120.743 116.028 120.226 115.856 119.846 115.511C119.653 115.69 119.438 115.82 119.202 115.901C118.97 115.979 118.731 116.017 118.485 116.017ZM126.925 115.706C126.904 116.191 126.814 116.628 126.656 117.014C126.498 117.405 126.28 117.735 126.002 118.006C125.724 118.28 125.388 118.492 124.994 118.639C124.6 118.787 124.156 118.861 123.66 118.861H123.006V117.547H123.66C123.998 117.547 124.289 117.512 124.536 117.442C124.782 117.371 124.984 117.259 125.142 117.104C125.3 116.949 125.419 116.747 125.496 116.497C125.573 116.251 125.612 115.95 125.612 115.595V112.382H126.925V115.706ZM133.693 116.028C133.356 116.028 133.044 115.98 132.76 115.885C132.478 115.787 132.235 115.65 132.031 115.474C131.827 115.295 131.667 115.082 131.551 114.836C131.439 114.589 131.383 114.317 131.383 114.018C131.383 113.722 131.419 113.459 131.493 113.227C131.567 112.991 131.666 112.773 131.789 112.572C131.915 112.368 132.061 112.175 132.226 111.992C132.395 111.806 132.573 111.614 132.76 111.417L132.427 111.042L133.398 110.161C133.436 110.207 133.482 110.258 133.535 110.314C133.588 110.371 133.64 110.429 133.693 110.489C133.75 110.548 133.804 110.606 133.857 110.663C133.909 110.719 133.957 110.77 133.999 110.816C134.252 111.086 134.498 111.35 134.738 111.607C134.981 111.86 135.195 112.115 135.381 112.372C135.571 112.625 135.723 112.882 135.835 113.142C135.951 113.399 136.007 113.666 136.004 113.944C136.001 114.253 135.939 114.531 135.819 114.778C135.7 115.02 135.526 115.245 135.297 115.453C135.086 115.632 134.845 115.773 134.575 115.875C134.307 115.977 134.013 116.028 133.693 116.028ZM133.63 112.224C133.489 112.382 133.356 112.532 133.229 112.673C133.106 112.813 132.998 112.954 132.907 113.095C132.819 113.235 132.751 113.381 132.702 113.533C132.656 113.68 132.638 113.842 132.649 114.018C132.659 114.148 132.698 114.261 132.765 114.355C132.831 114.447 132.914 114.524 133.013 114.588C133.111 114.647 133.22 114.691 133.34 114.72C133.46 114.748 133.577 114.762 133.693 114.762C133.827 114.762 133.955 114.742 134.078 114.704C134.202 114.665 134.309 114.611 134.4 114.54C134.495 114.47 134.571 114.384 134.627 114.282C134.683 114.18 134.712 114.067 134.712 113.944C134.712 113.793 134.681 113.645 134.622 113.501C134.562 113.357 134.481 113.214 134.379 113.074C134.281 112.933 134.166 112.792 134.036 112.651C133.906 112.511 133.771 112.368 133.63 112.224ZM142.82 116.028H142.393C141.925 116.028 141.478 115.822 141.052 115.411C140.936 115.548 140.798 115.662 140.636 115.754C140.478 115.841 140.307 115.912 140.124 115.965C139.941 116.017 139.755 116.054 139.565 116.075C139.379 116.096 139.199 116.107 139.027 116.107C138.893 116.107 138.758 116.098 138.621 116.081C138.484 116.067 138.327 116.04 138.151 116.001C137.979 115.966 137.78 115.919 137.555 115.859C137.33 115.796 137.06 115.717 136.748 115.622L137.128 114.361C137.342 114.445 137.564 114.521 137.792 114.588C138.021 114.651 138.244 114.704 138.463 114.746C138.68 114.785 138.89 114.811 139.09 114.825C139.29 114.836 139.47 114.83 139.628 114.809C139.786 114.788 139.92 114.749 140.029 114.693C140.142 114.633 140.217 114.554 140.256 114.456C140.274 114.414 140.283 114.377 140.283 114.345C140.283 114.31 140.272 114.269 140.251 114.224C140.233 114.178 140.204 114.123 140.161 114.06C140.119 113.993 140.064 113.907 139.998 113.802L138.125 111.169L139.232 110.457L141.116 113.311C141.218 113.466 141.325 113.626 141.437 113.791C141.551 113.956 141.663 114.108 141.775 114.245C141.888 114.378 141.997 114.489 142.103 114.577C142.208 114.665 142.305 114.709 142.393 114.709H142.82V116.028ZM146.889 114.714V116.028H146.556C146.258 116.028 145.986 115.987 145.739 115.907C145.493 115.826 145.286 115.706 145.117 115.548C144.919 115.713 144.686 115.834 144.415 115.912C144.147 115.989 143.841 116.028 143.497 116.028H142.563V114.714H143.497C143.712 114.714 143.882 114.695 144.009 114.656C144.139 114.614 144.235 114.563 144.299 114.503C144.366 114.443 144.408 114.377 144.425 114.303C144.446 114.229 144.457 114.157 144.457 114.086V112.377H145.765V114.05C145.765 114.208 145.801 114.333 145.871 114.424C145.941 114.512 146.02 114.579 146.108 114.625C146.2 114.667 146.29 114.693 146.377 114.704C146.465 114.711 146.525 114.714 146.556 114.714H146.889ZM143.85 109.95L144.8 108.99L145.771 109.961L144.81 110.921L143.85 109.95ZM150.664 111.596C150.671 111.621 150.685 111.679 150.706 111.77C150.73 111.862 150.757 111.974 150.785 112.108C150.813 112.238 150.841 112.384 150.87 112.546C150.901 112.708 150.929 112.871 150.954 113.037C150.982 113.198 151.003 113.357 151.017 113.511C151.035 113.666 151.044 113.802 151.044 113.918C151.044 114.28 150.984 114.595 150.864 114.862C150.745 115.126 150.588 115.344 150.395 115.516C150.201 115.688 149.983 115.817 149.74 115.901C149.502 115.986 149.26 116.028 149.018 116.028H146.744V114.714H149.055C149.097 114.714 149.156 114.709 149.234 114.698C149.315 114.684 149.394 114.651 149.471 114.598C149.552 114.545 149.623 114.466 149.682 114.361C149.742 114.252 149.772 114.104 149.772 113.918C149.772 113.84 149.765 113.747 149.751 113.638C149.74 113.525 149.724 113.406 149.703 113.279C149.682 113.153 149.658 113.024 149.63 112.894C149.605 112.76 149.581 112.636 149.556 112.52C149.531 112.4 149.507 112.293 149.482 112.198C149.457 112.099 149.438 112.024 149.424 111.971L150.664 111.596ZM150.025 118.898L149.139 118.001L150.015 117.094L150.922 118.001L150.025 118.898ZM147.815 118.903L146.929 118.006L147.799 117.099L148.707 118.006L147.815 118.903ZM154.964 116.028C154.578 116.028 154.246 116.003 153.968 115.954C153.69 115.908 153.456 115.84 153.266 115.748C153.076 115.653 152.923 115.534 152.807 115.39C152.695 115.245 152.608 115.077 152.548 114.883C152.489 114.69 152.448 114.472 152.427 114.229C152.41 113.983 152.401 113.712 152.401 113.416V108.42H153.715V113.416C153.715 113.698 153.723 113.923 153.741 114.092C153.762 114.261 153.813 114.392 153.894 114.487C153.978 114.579 154.103 114.64 154.268 114.672C154.437 114.7 154.669 114.714 154.964 114.714V116.028ZM158.586 115.031C158.618 115.031 158.668 115.026 158.734 115.015C158.805 115.001 158.875 114.962 158.945 114.899C159.016 114.836 159.077 114.739 159.13 114.609C159.186 114.475 159.215 114.289 159.215 114.05C159.215 113.958 159.196 113.842 159.162 113.701C159.13 113.557 159.072 113.418 158.987 113.285C158.906 113.147 158.796 113.031 158.655 112.936C158.518 112.838 158.344 112.789 158.133 112.789C157.95 112.789 157.801 112.843 157.685 112.952C157.569 113.061 157.47 113.197 157.389 113.358C157.312 113.52 157.245 113.696 157.189 113.886C157.136 114.072 157.078 114.243 157.014 114.398C157.144 114.472 157.281 114.547 157.426 114.625C157.574 114.698 157.718 114.765 157.859 114.825C157.999 114.885 158.131 114.934 158.254 114.973C158.381 115.011 158.491 115.031 158.586 115.031ZM158.133 111.48C158.495 111.48 158.81 111.545 159.077 111.676C159.348 111.806 159.575 111.982 159.758 112.203C159.941 112.425 160.078 112.681 160.169 112.973C160.264 113.265 160.315 113.571 160.322 113.891C160.322 114.088 160.361 114.243 160.438 114.355C160.516 114.465 160.604 114.545 160.702 114.598C160.8 114.651 160.897 114.684 160.992 114.698C161.087 114.709 161.152 114.714 161.188 114.714H161.335V116.028H161.188C160.937 116.028 160.707 115.993 160.496 115.922C160.289 115.848 160.099 115.755 159.926 115.643C159.821 115.79 159.705 115.907 159.578 115.991C159.452 116.079 159.325 116.144 159.199 116.186C159.072 116.228 158.95 116.255 158.834 116.265C158.718 116.276 158.618 116.281 158.533 116.281C158.358 116.281 158.191 116.263 158.033 116.228C157.874 116.197 157.712 116.149 157.547 116.086C157.385 116.026 157.217 115.952 157.041 115.864C156.865 115.773 156.673 115.671 156.466 115.558C156.307 115.727 156.137 115.848 155.954 115.922C155.775 115.993 155.564 116.028 155.321 116.028H154.672L154.661 114.714H155.321C155.398 114.714 155.465 114.691 155.522 114.646C155.581 114.6 155.634 114.537 155.68 114.456C155.729 114.371 155.773 114.271 155.812 114.155C155.854 114.035 155.896 113.904 155.938 113.759C156.008 113.506 156.093 113.246 156.191 112.979C156.29 112.708 156.42 112.462 156.582 112.24C156.747 112.018 156.955 111.837 157.204 111.697C157.454 111.552 157.764 111.48 158.133 111.48ZM164.107 111.596C164.114 111.621 164.128 111.679 164.149 111.77C164.174 111.862 164.2 111.974 164.228 112.108C164.257 112.238 164.284 112.384 164.313 112.546C164.344 112.708 164.373 112.871 164.397 113.037C164.425 113.198 164.446 113.357 164.461 113.511C164.478 113.666 164.487 113.802 164.487 113.918C164.487 114.28 164.427 114.595 164.307 114.862C164.188 115.126 164.031 115.344 163.838 115.516C163.644 115.688 163.426 115.817 163.184 115.901C162.944 115.986 162.704 116.028 162.461 116.028H161.058V114.714H162.498C162.54 114.714 162.6 114.709 162.678 114.698C162.758 114.684 162.837 114.651 162.915 114.598C162.995 114.545 163.066 114.466 163.126 114.361C163.185 114.252 163.215 114.104 163.215 113.918C163.215 113.84 163.209 113.747 163.194 113.638C163.184 113.525 163.168 113.406 163.147 113.279C163.126 113.153 163.101 113.024 163.073 112.894C163.048 112.76 163.024 112.636 162.999 112.52C162.974 112.4 162.95 112.293 162.925 112.198C162.901 112.099 162.881 112.024 162.867 111.971L164.107 111.596ZM161.87 109.476L162.82 108.515L163.79 109.486L162.831 110.446L161.87 109.476Z" fill="white"/>
<mask id="mask0_5298_11284" style="mask-type:luminance" maskUnits="userSpaceOnUse" x="26" y="65" width="140" height="32">
<path d="M166 65.8965H26V96.3628H166V65.8965Z" fill="white"/>
</mask>
<g mask="url(#mask0_5298_11284)">
<path d="M87.9443 83.4295C88.5257 83.4295 89.0833 83.2026 89.4944 82.7986C89.9055 82.3945 90.1365 81.8466 90.1365 81.2752C90.1365 80.7039 89.9055 80.1559 89.4944 79.7519C89.0833 79.3478 88.5257 79.1209 87.9443 79.1209H85.7573V77.6084C85.7573 77.037 85.5263 76.4891 85.1153 76.085C84.7041 75.6811 84.1466 75.4541 83.5652 75.4541C82.9838 75.4541 82.4262 75.6811 82.0151 76.085C81.604 76.4891 81.373 77.037 81.373 77.6084V89.9049C81.373 91.6203 82.0664 93.2654 83.3007 94.4784C84.5349 95.6914 86.209 96.3728 87.9545 96.3728C88.5233 96.3539 89.0624 96.1184 89.4579 95.7162C89.8535 95.3141 90.0746 94.7766 90.0746 94.2172C90.0746 93.6579 89.8535 93.1204 89.4579 92.7183C89.0624 92.3161 88.5233 92.0807 87.9545 92.0617C87.3746 92.0611 86.8188 91.8344 86.4087 91.4314C85.9987 91.0285 85.7681 90.4822 85.7674 89.9124V83.4445L87.9443 83.4295Z" fill="white"/>
<path d="M102.98 79.7627C103.561 79.7627 104.119 79.5358 104.529 79.1317C104.94 78.7277 105.172 78.1797 105.172 77.6084C105.172 77.037 104.94 76.4891 104.529 76.085C104.119 75.6811 103.561 75.4541 102.98 75.4541C100.655 75.4567 98.426 76.3655 96.7822 77.9809C95.1383 79.5964 94.2136 81.7867 94.2109 84.0714V87.7456C94.2136 90.0304 95.1382 92.221 96.782 93.8369C98.4257 95.4528 100.655 96.362 102.98 96.3653C103.548 96.3464 104.087 96.1109 104.483 95.7088C104.879 95.3066 105.099 94.7692 105.099 94.2098C105.099 93.6505 104.879 93.113 104.483 92.7108C104.087 92.3087 103.548 92.0733 102.98 92.0543C101.817 92.0529 100.703 91.5986 99.8809 90.7908C99.059 89.9831 98.5962 88.8879 98.5955 87.7456V84.0714C98.5962 82.929 99.059 81.8339 99.8809 81.0261C100.703 80.2184 101.817 79.7641 102.98 79.7627Z" fill="white"/>
<path d="M137.241 75.7324C134.991 75.735 132.835 76.6144 131.244 78.1776C129.654 79.7408 128.759 81.8603 128.756 84.0711V88.0264C128.832 90.1868 129.759 92.2337 131.34 93.7356C132.922 95.2375 135.036 96.077 137.236 96.077C139.436 96.077 141.55 95.2375 143.132 93.7356C144.714 92.2337 145.64 90.1868 145.716 88.0264V84.0711C145.713 81.862 144.82 79.7441 143.232 78.1811C141.643 76.6182 139.489 75.7377 137.241 75.7324ZM141.342 88.0264C141.315 89.0775 140.872 90.0769 140.106 90.8111C139.34 91.5453 138.312 91.9563 137.242 91.9563C136.172 91.9563 135.145 91.5453 134.379 90.8111C133.613 90.0769 133.169 89.0775 133.143 88.0264V84.0711C133.129 83.5335 133.225 82.9988 133.425 82.4983C133.625 81.9979 133.925 81.5418 134.307 81.1569C134.689 80.772 135.146 80.4662 135.65 80.2573C136.153 80.0485 136.695 79.9409 137.242 79.9409C137.79 79.9409 138.331 80.0485 138.835 80.2573C139.339 80.4662 139.796 80.772 140.178 81.1569C140.56 81.5418 140.86 81.9979 141.06 82.4983C141.259 82.9988 141.355 83.5335 141.342 84.0711V88.0264Z" fill="white"/>
<path d="M53.3636 76.0283C52.7822 76.0283 52.2246 76.2553 51.8136 76.6593C51.4025 77.0633 51.1715 77.6113 51.1715 78.1827V87.9915C51.1715 88.5208 51.0655 89.0448 50.8594 89.5337C50.6533 90.0227 50.3512 90.4669 49.9704 90.8411C49.5897 91.2154 49.1376 91.5122 48.6401 91.7147C48.1425 91.9172 47.6093 92.0215 47.0707 92.0215C46.5322 92.0215 45.999 91.9172 45.5014 91.7147C45.004 91.5122 44.5519 91.2154 44.1711 90.8411C43.7903 90.4669 43.4883 90.0227 43.2822 89.5337C43.0761 89.0448 42.97 88.5208 42.97 87.9915V78.1827C42.97 77.6113 42.7391 77.0633 42.3279 76.6593C41.9169 76.2553 41.3593 76.0283 40.7779 76.0283C40.1965 76.0283 39.6389 76.2553 39.2278 76.6593C38.8167 77.0633 38.5857 77.6113 38.5857 78.1827V87.9915C38.5857 89.0603 38.1537 90.0853 37.3847 90.8411C36.6156 91.5969 35.5726 92.0215 34.485 92.0215C33.3974 92.0215 32.3544 91.5969 31.5853 90.8411C30.8163 90.0853 30.3843 89.0603 30.3843 87.9915V78.1827C30.3843 77.6113 30.1533 77.0633 29.7422 76.6593C29.3311 76.2553 28.7735 76.0283 28.1921 76.0283C27.6107 76.0283 27.0532 76.2553 26.6421 76.6593C26.231 77.0633 26 77.6113 26 78.1827V87.9915C25.9969 89.6787 26.515 91.327 27.4857 92.7186C28.4564 94.1102 29.834 95.1795 31.4364 95.7849C33.0389 96.3905 34.7905 96.5038 36.4598 96.1098C38.1292 95.716 39.6375 94.8333 40.7855 93.5787C41.934 94.8305 43.4417 95.7107 45.1097 96.103C46.7777 96.4953 48.5275 96.3814 50.1283 95.7761C51.729 95.1709 53.1053 94.1029 54.0757 92.7131C55.046 91.3233 55.5648 89.677 55.5634 87.9915V78.1827C55.5634 77.8991 55.5064 77.6184 55.3957 77.3565C55.2851 77.0947 55.123 76.8568 54.9186 76.6567C54.7142 76.4565 54.4717 76.298 54.2049 76.1902C53.938 76.0824 53.6521 76.0273 53.3636 76.0283Z" fill="white"/>
<path d="M76.9409 83.1211V78.1832C76.9401 77.6999 76.774 77.2308 76.4692 76.8515C76.1645 76.4722 75.7388 76.2046 75.2605 76.0918C74.7823 75.9789 74.2793 76.0274 73.8326 76.2294C73.3858 76.4315 73.0211 76.7752 72.7972 77.2055C71.5104 76.4507 70.0429 76.0446 68.5444 76.0288C67.046 76.013 65.57 76.3879 64.267 77.1154C62.964 77.8429 61.8806 78.897 61.1273 80.17C60.3739 81.4432 59.9775 82.8897 59.9785 84.3625V88.0268C59.9771 89.5006 60.3734 90.9483 61.1272 92.2224C61.8809 93.4964 62.9651 94.5512 64.2691 95.2791C65.573 96.0069 67.0501 96.3818 68.5496 96.3655C70.0492 96.3493 71.5175 95.9423 72.8047 95.1863C73.0271 95.6187 73.3915 95.9648 73.839 96.1683C74.2864 96.372 74.7907 96.4211 75.2701 96.3081C75.7495 96.195 76.176 95.9261 76.4807 95.5451C76.7853 95.1641 76.9501 94.6932 76.9485 94.2086V84.564C76.9485 84.4993 76.9485 84.4321 76.9485 84.3675C76.9485 84.2381 76.9485 84.1188 76.9485 83.9819L76.9409 83.1211ZM68.4559 92.0518C67.3699 92.0512 66.3284 91.6274 65.5597 90.8734C64.791 90.1194 64.3578 89.0966 64.3552 88.0293V84.365C64.3486 83.3152 64.7591 82.3043 65.4995 81.5474C66.2398 80.7905 67.2514 80.3475 68.3191 80.3124C69.3867 80.2775 70.4262 80.6533 71.2162 81.36C72.0062 82.0666 72.4844 83.0484 72.5491 84.0964V88.0243C72.5477 89.0912 72.1162 90.1141 71.3491 90.869C70.5819 91.6239 69.5415 92.0492 68.4559 92.0518Z" fill="white"/>
<path d="M116.979 76.0287C115.544 76.0271 114.133 76.385 112.878 77.0686V68.0508C112.878 67.4794 112.648 66.9315 112.236 66.5275C111.825 66.1235 111.267 65.8965 110.686 65.8965C110.105 65.8965 109.547 66.1235 109.136 66.5275C108.725 66.9315 108.494 67.4794 108.494 68.0508V94.2085C108.494 94.7799 108.725 95.3278 109.136 95.7319C109.547 96.1358 110.105 96.3628 110.686 96.3628C111.267 96.3628 111.825 96.1358 112.236 95.7319C112.648 95.3278 112.878 94.7799 112.878 94.2085V84.3673C112.878 83.2985 113.311 82.2734 114.08 81.5177C114.849 80.7619 115.892 80.3373 116.979 80.3373C118.066 80.3373 119.109 80.7619 119.879 81.5177C120.648 82.2734 121.08 83.2985 121.08 84.3673V88.0242C121.08 88.0864 121.08 88.1486 121.08 88.2083V94.2135C121.08 94.4964 121.137 94.7765 121.246 95.0379C121.357 95.2992 121.518 95.5368 121.722 95.7368C121.925 95.9369 122.167 96.0955 122.433 96.2038C122.699 96.312 122.984 96.3678 123.272 96.3678C123.56 96.3678 123.845 96.312 124.111 96.2038C124.377 96.0955 124.619 95.9369 124.822 95.7368C125.026 95.5368 125.187 95.2992 125.297 95.0379C125.407 94.7765 125.464 94.4964 125.464 94.2135V86.2008C125.464 86.1733 125.464 86.146 125.464 86.1186V84.3773C125.464 82.1648 124.57 80.0429 122.979 78.4775C121.389 76.9121 119.231 76.0313 116.979 76.0287Z" fill="white"/>
<path d="M166 84.3678C166.039 83.2492 165.849 82.1342 165.441 81.0894C165.032 80.0446 164.414 79.0912 163.623 78.2862C162.831 77.4812 161.883 76.841 160.834 76.4038C159.786 75.9665 158.659 75.7412 157.52 75.7412C156.381 75.7412 155.254 75.9665 154.205 76.4038C153.157 76.841 152.209 77.4812 151.417 78.2862C150.626 79.0912 150.008 80.0446 149.6 81.0894C149.191 82.1342 149 83.2492 149.04 84.3678V94.209C149.04 94.7803 149.271 95.3283 149.682 95.7323C150.093 96.1363 150.651 96.3633 151.232 96.3633C151.814 96.3633 152.371 96.1363 152.782 95.7323C153.193 95.3283 153.425 94.7803 153.425 94.209V84.3678C153.425 83.299 153.856 82.2739 154.625 81.5182C155.395 80.7624 156.437 80.3378 157.525 80.3378C158.613 80.3378 159.656 80.7624 160.425 81.5182C161.194 82.2739 161.626 83.299 161.626 84.3678V88.0247C161.626 88.0894 161.626 88.1515 161.626 88.2137V94.214C161.626 94.4969 161.682 94.777 161.793 95.0384C161.903 95.2997 162.064 95.5372 162.268 95.7373C162.472 95.9373 162.713 96.096 162.979 96.2043C163.245 96.3125 163.53 96.3682 163.818 96.3682C164.106 96.3682 164.391 96.3125 164.657 96.2043C164.923 96.096 165.164 95.9373 165.368 95.7373C165.571 95.5372 165.733 95.2997 165.843 95.0384C165.954 94.777 166.01 94.4969 166.01 94.214V86.2012C166.01 86.1738 166.01 86.144 166.01 86.1167L166 84.3678Z" fill="white"/>
<path d="M157.514 89.8896C156.933 89.8896 156.376 90.1166 155.964 90.5206C155.553 90.9246 155.322 91.4726 155.322 92.0439V94.2082C155.322 94.7796 155.553 95.3275 155.964 95.7315C156.376 96.1355 156.933 96.3625 157.514 96.3625C158.095 96.3625 158.653 96.1355 159.065 95.7315C159.475 95.3275 159.707 94.7796 159.707 94.2082V92.0514C159.707 91.7679 159.651 91.487 159.542 91.2247C159.432 90.9624 159.271 90.7241 159.067 90.5233C158.864 90.3224 158.621 90.163 158.355 90.0543C158.088 89.9456 157.803 89.8896 157.514 89.8896Z" fill="#FF8DAA"/>
</g>
</g>
</g>
<defs>
<clipPath id="clip0_5298_11284">
<rect width="192" height="192" fill="white"/>
</clipPath>
<clipPath id="clip1_5298_11284">
<rect width="140" height="60.2073" fill="white" transform="translate(26 65.8965)"/>
</clipPath>
</defs>
</svg>
