<svg width="192" height="192" viewBox="0 0 192 192" fill="none" xmlns="http://www.w3.org/2000/svg">
<g clip-path="url(#clip0_4929_34375)">
<path d="M96 192C149.019 192 192 149.019 192 96C192 42.9807 149.019 0 96 0C42.9807 0 0 42.9807 0 96C0 149.019 42.9807 192 96 192Z" fill="#00AEFF"/>
<path d="M98.4506 88.4199H98.7706V107.4C98.7706 109.8 96.8206 111.75 94.4106 111.76H93.8906V92.9899C93.8906 90.4699 95.9406 88.4299 98.4606 88.4299L98.4506 88.4199Z" fill="white"/>
<path d="M73.8882 80.2402H74.2082V98.2002L82.6582 89.7402C84.4282 87.9702 87.2982 87.9702 89.0682 89.7402C89.0882 89.7602 89.0982 89.7702 89.1182 89.7902L89.3382 90.0202L79.7282 99.6502C79.5782 99.8002 79.4282 99.9302 79.2582 100.06C79.4782 100.21 79.6882 100.39 79.8782 100.58L89.3482 110.06L88.9782 110.44C87.3082 112.15 84.5782 112.19 82.8582 110.53C82.8382 110.51 82.8282 110.5 82.8082 110.48L74.2082 101.87V107.36C74.2082 109.78 72.2682 111.75 69.8482 111.78H69.3282V84.8902C69.3182 82.3502 71.3582 80.2802 73.8982 80.2602L73.8882 80.2402Z" fill="white"/>
<path d="M23.5091 106.99V106.67L23.5691 103.02C23.5491 102.56 23.5691 102.09 23.6491 101.63V101.38H23.7091C24.1991 99.4203 25.9491 98.0403 27.9691 98.0003H38.1391C38.5991 97.8403 38.9191 97.4203 38.9591 96.9303V94.0603C38.8991 93.7103 38.6291 93.4403 38.2791 93.3603H28.0791C25.5591 93.3403 23.5391 91.2803 23.5591 88.7603V88.4103H39.6691C42.1991 88.6203 44.0791 90.8303 43.8691 93.3603C43.8691 93.3903 43.8691 93.4203 43.8691 93.4503V111.58H43.3491C42.1491 111.58 40.9991 111.07 40.1791 110.19C39.3191 111.18 38.0691 111.75 36.7491 111.74L28.0491 111.66C25.9791 111.62 24.1791 110.2 23.6591 108.19H23.6391V108.11C23.5491 107.74 23.4991 107.36 23.5091 106.98V106.99ZM38.9491 101.3C38.1091 102.31 36.8591 102.9 35.5491 102.89L29.4791 102.87C29.0391 102.84 28.6591 103.17 28.6291 103.61C28.6291 103.64 28.6291 103.66 28.6291 103.69L28.6091 106.16C28.6091 106.95 29.1891 106.86 29.5691 106.86H38.1891C38.6091 106.86 38.9491 106.51 38.9591 106.09V101.3H38.9491Z" fill="white"/>
<path d="M96.2789 86.3498C97.8805 86.3498 99.1789 85.0514 99.1789 83.4498C99.1789 81.8482 97.8805 80.5498 96.2789 80.5498C94.6773 80.5498 93.3789 81.8482 93.3789 83.4498C93.3789 85.0514 94.6773 86.3498 96.2789 86.3498Z" fill="white"/>
<path d="M49.421 105.54L58.951 93.3499H51.621C49.111 93.3099 47.111 91.2499 47.141 88.7399V88.4199H63.311C67.201 88.4199 67.571 90.8499 65.361 93.6699L55.091 106.8L62.471 106.77C64.901 106.82 66.861 108.79 66.881 111.23V111.75H50.921C48.881 111.75 47.961 111.18 47.551 110.46C46.731 109.02 47.981 107.36 49.421 105.52V105.54Z" fill="white"/>
<path d="M125.071 95.9707H113.971C112.221 95.9707 110.801 97.3907 110.801 99.1407V108.581C110.801 110.331 112.221 111.751 113.971 111.751H125.071C125.071 110.241 123.851 109.021 122.341 109.021H115.181C114.361 109.021 113.691 108.351 113.691 107.531V100.331C113.691 99.5107 114.361 98.8407 115.181 98.8407H122.341C123.851 98.8407 125.071 97.6207 125.071 96.1107V95.9707Z" fill="white"/>
<path d="M139.59 98.9507C140.14 98.9507 140.6 99.4007 140.6 99.9507V107.771C140.6 108.321 140.15 108.771 139.59 108.771H131.31C130.76 108.771 130.3 108.321 130.3 107.771V99.9507C130.3 99.4007 130.75 98.9507 131.31 98.9507H139.59ZM139.59 95.9707H131.31C129.11 95.9707 127.32 97.7507 127.32 99.9607V107.781C127.32 109.981 129.1 111.771 131.31 111.771H139.59C141.79 111.771 143.58 109.991 143.58 107.781V99.9607C143.58 97.7607 141.79 95.9707 139.59 95.9707Z" fill="white"/>
<path d="M147.277 99.8807V111.761H147.737C149.227 111.761 150.437 110.551 150.437 109.061V100.121C150.437 99.4207 151.007 98.8507 151.707 98.8507H155.297C155.997 98.8507 156.577 99.4207 156.577 100.121V109.061C156.577 110.551 157.787 111.761 159.277 111.761H159.917V100.051C159.917 99.3507 160.487 98.7707 161.197 98.7807H164.337C165.037 98.7807 165.607 99.3507 165.607 100.051V109.061C165.607 110.551 166.817 111.761 168.307 111.761H168.497V99.8807C168.497 97.7207 166.747 95.9707 164.587 95.9707H159.937C159.577 95.9707 159.227 96.1007 158.957 96.3407L158.387 96.8407L157.817 96.3407C157.547 96.1007 157.197 95.9707 156.837 95.9707H151.187C149.027 95.9707 147.277 97.7207 147.277 99.8807Z" fill="white"/>
<path d="M104.96 111.73C106.131 111.73 107.08 110.781 107.08 109.61C107.08 108.439 106.131 107.49 104.96 107.49C103.789 107.49 102.84 108.439 102.84 109.61C102.84 110.781 103.789 111.73 104.96 111.73Z" fill="white"/>
</g>
<defs>
<clipPath id="clip0_4929_34375">
<rect width="192" height="192" fill="white"/>
</clipPath>
</defs>
</svg>
