<svg width="192" height="192" viewBox="0 0 192 192" fill="none" xmlns="http://www.w3.org/2000/svg">
<g clip-path="url(#clip0_4929_34402)">
<path d="M96 192C149.019 192 192 149.019 192 96C192 42.9807 149.019 0 96 0C42.9807 0 0 42.9807 0 96C0 149.019 42.9807 192 96 192Z" fill="white"/>
<path d="M116.679 43.1479H57.0252C44.3088 43.1479 34 53.4567 34 66.1732V125.827C34 138.543 44.3088 148.852 57.0252 148.852H116.679C129.395 148.852 139.704 138.543 139.704 125.827V66.1732C139.704 53.4567 129.395 43.1479 116.679 43.1479Z" fill="#562B99"/>
<path d="M66.2223 96.3875C66.2223 88.8007 72.3901 82.6518 79.9769 82.6518H88.6232C96.2479 82.6518 102.435 88.8386 102.435 96.4632V116.934C102.435 127.018 94.2613 135.192 84.1771 135.192H66.9034C56.4409 135.192 47.9648 126.716 47.9648 116.272V68.0648C47.9648 63.4862 51.6731 59.759 56.2517 59.759H57.4058C62.306 59.759 66.2602 63.7322 66.2602 68.6324L66.2223 96.3875Z" fill="white"/>
<path d="M84.4384 99.4341H66.2188V117.654H84.4384V99.4341Z" fill="#562B99"/>
<path d="M157.999 129.687C148.16 129.687 140.195 137.652 140.195 147.49H157.999V129.687Z" fill="#7FD244"/>
</g>
<defs>
<clipPath id="clip0_4929_34402">
<rect width="192" height="192" fill="white"/>
</clipPath>
</defs>
</svg>
