<svg width="192" height="192" viewBox="0 0 192 192" fill="none" xmlns="http://www.w3.org/2000/svg">
<g clip-path="url(#clip0_5180_39795)">
<path d="M96 192C149.019 192 192 149.019 192 96C192 42.9807 149.019 0 96 0C42.9807 0 0 42.9807 0 96C0 149.019 42.9807 192 96 192Z" fill="white"/>
<path d="M86.6183 161.391C70.4973 161.391 54.3763 161.391 38.2406 161.391C38.0927 161.391 37.9448 161.406 37.7969 161.406C37.5307 161.376 37.2644 161.494 37.013 161.317C33.5522 160.829 31.1562 158.936 29.7512 155.756C29.3371 154.824 29.1596 153.863 29.1004 152.872C28.9525 152.694 29.0117 152.487 29.0117 152.28C29.0117 114.758 29.0117 77.2513 29.0117 39.7293C29.0117 39.5371 28.9525 39.3152 29.1004 39.1377C29.1892 37.2298 29.8399 35.529 31.0231 34.0352C32.3838 32.3196 34.1438 31.2252 36.3031 30.811C36.5397 30.7667 36.7764 30.7223 36.9982 30.6779C37.2053 30.5152 37.4567 30.6188 37.6786 30.604C41.9824 30.604 46.2863 30.604 50.5901 30.604C62.4812 30.604 74.3723 30.604 86.2633 30.604C86.5 30.604 86.7366 30.604 86.988 30.5892C87.2099 30.6188 87.4465 30.5152 87.6536 30.6631C89.8869 31.0033 91.8243 31.9499 93.3329 33.6507C94.5605 35.0409 95.3147 36.653 95.5514 38.5314C95.6697 39.4335 95.6401 40.3357 95.6401 41.2379C95.6401 78.183 95.6549 115.128 95.6401 152.073C95.6401 156.052 93.7322 158.906 90.1383 160.637C89.3544 161.006 88.5114 161.184 87.6536 161.317C87.4465 161.465 87.2099 161.376 86.988 161.391C86.8845 161.406 86.7514 161.391 86.6183 161.391Z" fill="#4DA6A6"/>
<path d="M103.51 80.4755C103.377 79.8839 103.362 79.3071 103.51 78.7155C103.806 77.1478 104.723 76.2012 106.305 75.9202C106.483 75.7575 106.69 75.8315 106.882 75.8315C123.077 75.8315 139.272 75.8315 155.467 75.8315C155.659 75.8315 155.881 75.7723 156.058 75.9202C157.818 76.3343 158.883 77.5471 158.927 79.174C158.987 81.5404 158.232 82.6644 156.162 83.2856C155.984 83.4335 155.777 83.3743 155.57 83.3743C139.301 83.3743 123.032 83.3743 106.749 83.3743C106.556 83.3743 106.335 83.4483 106.172 83.2856C105.063 83.2264 103.613 81.8953 103.51 80.4755Z" fill="#4DA6A6"/>
<path d="M158.97 154.41C158.97 156.274 158.201 157.634 156.782 158.714C155.436 159.749 153.868 160.267 152.197 160.444C152.034 160.592 151.842 160.533 151.664 160.533C148.706 160.533 145.748 160.533 142.805 160.533C142.45 160.533 142.213 160.533 142.228 160.06C142.243 150.387 142.243 140.7 142.243 131.027C142.066 128.853 140.808 127.019 138.93 126.472C138.516 126.354 138.087 126.28 137.643 126.28C133.443 126.28 129.258 126.28 125.072 126.28C122.957 126.28 121.803 127.345 121.079 129.06C120.886 129.504 120.679 129.977 120.739 130.495C120.724 130.687 120.798 130.879 120.65 131.057C120.635 131.294 120.62 131.53 120.62 131.782C120.62 141.336 120.62 150.89 120.62 160.444C120.502 160.607 120.324 160.563 120.162 160.563C116.982 160.563 113.802 160.563 110.622 160.563C110.474 160.563 110.326 160.592 110.208 160.474C108.123 160.356 106.318 159.587 104.854 158.122C104.159 157.427 103.612 156.599 103.538 155.579C103.39 155.401 103.449 155.194 103.449 154.987C103.449 134.725 103.449 114.463 103.449 94.2005C103.449 94.0082 103.39 93.7864 103.538 93.6089C103.908 91.5531 105.357 90.4587 107.087 89.6452C107.931 89.2459 108.847 89.0684 109.764 88.9353C110.001 88.7578 110.282 88.8761 110.548 88.8466C110.696 88.8466 110.844 88.8614 110.992 88.8614H151.442C151.59 88.8614 151.738 88.8466 151.886 88.8466C152.152 88.8761 152.418 88.7578 152.67 88.9353C154.09 89.1867 155.465 89.5861 156.663 90.4291C158.187 91.5087 159 92.8842 159 94.8513C158.941 114.67 158.941 134.547 158.97 154.41Z" fill="#4DA6A6"/>
<path d="M86.6183 161.391C70.4973 161.391 54.3763 161.391 38.2406 161.391C38.0927 161.391 37.9448 161.406 37.7969 161.406C37.5307 161.376 37.2644 161.494 37.013 161.317C33.5522 160.829 31.1562 158.936 29.7512 155.756C29.3371 154.824 29.1596 153.863 29.1004 152.872C28.9525 152.694 29.0117 152.487 29.0117 152.28C29.0117 114.758 29.0117 77.2513 29.0117 39.7293C29.0117 39.5371 28.9525 39.3152 29.1004 39.1377C29.1892 37.2298 29.8399 35.529 31.0231 34.0352C32.3838 32.3196 34.1438 31.2252 36.3031 30.811C36.5397 30.7667 36.7764 30.7223 36.9982 30.6779C37.2053 30.5152 37.4567 30.6188 37.6786 30.604C41.9824 30.604 46.2863 30.604 50.5901 30.604C62.4812 30.604 74.3723 30.604 86.2633 30.604C86.5 30.604 86.7366 30.604 86.988 30.5892C87.2099 30.6188 87.4465 30.5152 87.6536 30.6631C89.8869 31.0033 91.8243 31.9499 93.3329 33.6507C94.5605 35.0409 95.3147 36.653 95.5514 38.5314C95.6697 39.4335 95.6401 40.3357 95.6401 41.2379C95.6401 78.183 95.6549 115.128 95.6401 152.073C95.6401 156.052 93.7322 158.906 90.1383 160.637C89.3544 161.006 88.5114 161.184 87.6536 161.317C87.4465 161.465 87.2099 161.376 86.988 161.391C86.8845 161.406 86.7514 161.391 86.6183 161.391Z" fill="#FEFEFE"/>
<path d="M103.51 80.4755C103.377 79.8839 103.362 79.3071 103.51 78.7155C103.806 77.1478 104.723 76.2012 106.305 75.9202C106.483 75.7575 106.69 75.8315 106.882 75.8315C123.077 75.8315 139.272 75.8315 155.467 75.8315C155.659 75.8315 155.881 75.7723 156.058 75.9202C157.818 76.3343 158.883 77.5471 158.927 79.174C158.987 81.5404 158.232 82.6644 156.162 83.2856C155.984 83.4335 155.777 83.3743 155.57 83.3743C139.301 83.3743 123.032 83.3743 106.749 83.3743C106.556 83.3743 106.335 83.4483 106.172 83.2856C105.063 83.2264 103.613 81.8953 103.51 80.4755Z" fill="#FEFEFE"/>
<path d="M158.97 154.41C158.97 156.274 158.201 157.634 156.782 158.714C155.436 159.749 153.868 160.267 152.197 160.444C152.034 160.592 151.842 160.533 151.664 160.533C148.706 160.533 145.748 160.533 142.805 160.533C142.45 160.533 142.213 160.533 142.228 160.06C142.243 150.387 142.243 140.7 142.243 131.027C142.066 128.853 140.808 127.019 138.93 126.472C138.516 126.354 138.087 126.28 137.643 126.28C133.443 126.28 129.258 126.28 125.072 126.28C122.957 126.28 121.803 127.345 121.079 129.06C120.886 129.504 120.679 129.977 120.739 130.495C120.724 130.687 120.798 130.879 120.65 131.057C120.635 131.294 120.62 131.53 120.62 131.782C120.62 141.336 120.62 150.89 120.62 160.444C120.502 160.607 120.324 160.563 120.162 160.563C116.982 160.563 113.802 160.563 110.622 160.563C110.474 160.563 110.326 160.592 110.208 160.474C108.123 160.356 106.318 159.587 104.854 158.122C104.159 157.427 103.612 156.599 103.538 155.579C103.39 155.401 103.449 155.194 103.449 154.987C103.449 134.725 103.449 114.463 103.449 94.2005C103.449 94.0082 103.39 93.7864 103.538 93.6089C103.908 91.5531 105.357 90.4587 107.087 89.6452C107.931 89.2459 108.847 89.0684 109.764 88.9353C110.001 88.7578 110.282 88.8761 110.548 88.8466C110.696 88.8466 110.844 88.8614 110.992 88.8614H151.442C151.59 88.8614 151.738 88.8466 151.886 88.8466C152.152 88.8761 152.418 88.7578 152.67 88.9353C154.09 89.1867 155.465 89.5861 156.663 90.4291C158.187 91.5087 159 92.8842 159 94.8513C158.941 114.67 158.941 134.547 158.97 154.41Z" fill="#FEFEFE"/>
<path d="M95.654 152.088C95.654 156.067 93.7461 158.921 90.1521 160.651C89.3683 161.021 88.5252 161.199 87.6674 161.332C87.4604 161.406 87.2533 161.302 87.0462 161.391C87.0315 161.391 87.0167 161.406 87.0019 161.406C86.8688 161.406 86.7505 161.391 86.6173 161.391C70.4964 161.391 54.3754 161.391 38.2396 161.391C38.0917 161.391 37.9438 161.406 37.7959 161.406C37.7811 161.391 37.7516 161.391 37.722 161.376C37.4853 161.302 37.2487 161.406 37.0121 161.317C33.5512 160.829 31.1553 158.936 29.7502 155.756C29.3361 154.824 29.1586 153.863 29.0995 152.872C29.0551 152.665 29.0699 152.473 29.0699 152.266C29.0699 114.758 29.0699 77.2661 29.0699 39.759C29.0699 39.5519 29.0403 39.3448 29.0995 39.1526C29.1882 37.2447 29.839 35.5438 31.0222 34.0501C32.3828 32.3344 34.1428 31.24 36.3022 30.8259C36.5388 30.7815 36.7754 30.7371 36.9973 30.6928C37.1895 30.6188 37.4114 30.6928 37.6185 30.6336C37.648 30.6336 37.6628 30.6188 37.6924 30.604C41.9963 30.604 46.3001 30.604 50.604 30.604C62.495 30.604 74.3861 30.604 86.2772 30.604C86.5138 30.604 86.7504 30.604 87.0019 30.5892C87.0167 30.604 87.0462 30.6188 87.061 30.6188C87.2533 30.6928 87.4752 30.604 87.6674 30.6632C89.9007 31.0034 91.8382 31.9499 93.3467 33.6507C94.5743 35.041 95.3286 36.6531 95.5652 38.5314C95.6835 39.4336 95.654 40.3358 95.654 41.2379C95.6687 78.1979 95.6687 115.143 95.654 152.088Z" fill="#4CA6A6"/>
<path d="M158.971 154.41C158.971 156.274 158.202 157.634 156.783 158.714C155.437 159.749 153.869 160.267 152.198 160.444C151.103 160.518 150.024 160.474 148.929 160.474C146.932 160.489 144.936 160.474 142.939 160.474C142.214 160.474 142.274 160.548 142.274 159.838C142.274 150.446 142.274 141.07 142.274 131.678C142.274 131.456 142.318 131.234 142.229 131.027C142.052 128.853 140.795 127.019 138.916 126.472C138.502 126.354 138.073 126.28 137.63 126.28C133.429 126.28 129.244 126.28 125.058 126.28C122.943 126.28 121.79 127.345 121.065 129.06C120.873 129.504 120.666 129.977 120.725 130.495C120.725 130.51 120.71 130.51 120.71 130.524C120.621 130.687 120.71 130.879 120.636 131.057C120.621 131.294 120.606 131.53 120.606 131.782C120.606 141.336 120.606 150.89 120.606 160.444C120.488 160.533 120.355 160.504 120.237 160.504C116.983 160.504 113.729 160.504 110.475 160.504C110.387 160.504 110.298 160.504 110.209 160.474C108.124 160.356 106.319 159.587 104.855 158.122C104.16 157.427 103.613 156.599 103.539 155.578C103.48 155.371 103.509 155.179 103.509 154.972C103.509 134.725 103.509 114.477 103.509 94.2301C103.509 94.023 103.48 93.8307 103.539 93.6237C103.909 91.5679 105.358 90.4734 107.089 89.66C107.932 89.2607 108.849 89.0832 109.765 88.9501C109.987 88.8613 110.239 88.9649 110.475 88.8909H110.49C110.505 88.8909 110.52 88.8761 110.549 88.8613C110.697 88.8613 110.845 88.8761 110.993 88.8761H151.443C151.591 88.8761 151.739 88.8613 151.887 88.8613C151.902 88.8761 151.931 88.8761 151.961 88.8909C152.198 88.9649 152.449 88.8613 152.671 88.9501C154.091 89.2015 155.466 89.6008 156.664 90.4438C158.188 91.5235 159.001 92.899 159.001 94.866C158.942 114.67 158.942 134.547 158.971 154.41Z" fill="#4DA6A6"/>
<path d="M156.189 83.2707C155.982 83.3299 155.79 83.3003 155.583 83.3003C139.329 83.3003 123.075 83.3003 106.806 83.3003C106.599 83.3003 106.392 83.3299 106.2 83.2707C105.046 83.2264 103.611 81.8953 103.508 80.4754C103.464 79.8838 103.464 79.307 103.508 78.7154C103.804 77.1477 104.721 76.2012 106.303 75.9201C106.481 75.861 106.673 75.8906 106.85 75.8906C123.075 75.8906 139.285 75.8906 155.509 75.8906C155.687 75.8906 155.879 75.861 156.056 75.9201C157.816 76.3343 158.881 77.547 158.926 79.1739C159.014 81.5255 158.26 82.6495 156.189 83.2707Z" fill="#4DA6A6"/>
<path d="M29.1445 39.6997C29.1445 77.2365 29.1445 114.773 29.1445 152.31C29.1445 152.487 29.1445 152.68 29.1297 152.857C28.9818 152.68 29.041 152.473 29.041 152.266C29.041 114.744 29.041 77.2365 29.041 39.7145C29.041 39.5223 28.9818 39.3004 29.1297 39.1229C29.1297 39.33 29.1445 39.5075 29.1445 39.6997Z" fill="#FCFCFC"/>
<path d="M103.508 154.854C103.508 155.076 103.508 155.297 103.522 155.519C103.374 155.342 103.434 155.135 103.434 154.928C103.434 134.666 103.434 114.403 103.434 94.1413C103.434 93.949 103.374 93.7272 103.522 93.5497C103.508 114.004 103.508 134.429 103.508 154.854Z" fill="#FCFCFC"/>
<path d="M156.189 83.2708C156.012 83.4187 155.805 83.3595 155.597 83.3595C139.329 83.3595 123.06 83.3595 106.776 83.3595C106.584 83.3595 106.362 83.4334 106.199 83.2708C106.702 83.2708 107.19 83.2855 107.693 83.2855C123.119 83.2855 138.545 83.2855 153.971 83.2855C154.71 83.2855 155.45 83.2855 156.189 83.2708Z" fill="#FCFCFC"/>
<path d="M156.086 75.9054C145.896 75.9054 135.691 75.8906 125.501 75.8906C121.034 75.8906 116.553 75.8906 112.086 75.8906C110.164 75.8906 108.241 75.9054 106.318 75.9054C106.496 75.7427 106.703 75.8167 106.895 75.8167C123.09 75.8167 139.285 75.8167 155.48 75.8167C155.687 75.8315 155.894 75.7575 156.086 75.9054Z" fill="#FCFCFC"/>
<path d="M152.198 160.43C152.035 160.578 151.843 160.518 151.665 160.518C148.707 160.518 145.749 160.518 142.806 160.518C142.451 160.518 142.214 160.518 142.229 160.045C142.244 150.373 142.244 140.685 142.244 131.013C142.362 131.234 142.303 131.486 142.303 131.722C142.303 141.025 142.303 150.343 142.303 159.646C142.303 160.533 142.2 160.43 143.057 160.43C146.104 160.43 149.151 160.43 152.198 160.43Z" fill="#FCFCFC"/>
<path d="M120.605 160.4C120.487 160.563 120.31 160.518 120.147 160.518C116.967 160.518 113.787 160.518 110.607 160.518C110.46 160.518 110.312 160.548 110.193 160.43C113.447 160.43 116.701 160.43 119.94 160.415C120.177 160.415 120.384 160.415 120.605 160.4Z" fill="#FCFCFC"/>
<path d="M103.523 78.7155C103.523 79.307 103.523 79.8839 103.523 80.4755C103.375 79.8839 103.375 79.307 103.523 78.7155Z" fill="#FCFCFC"/>
<path d="M37.8112 161.406C37.545 161.376 37.2788 161.494 37.0273 161.317C37.264 161.317 37.5006 161.287 37.7373 161.376C37.7668 161.376 37.7816 161.391 37.8112 161.406Z" fill="#FCFCFC"/>
<path d="M152.639 88.8909C152.403 88.8761 152.166 88.9205 151.929 88.8317C151.9 88.8169 151.885 88.8169 151.855 88.8021C152.122 88.8317 152.403 88.7134 152.639 88.8909Z" fill="#FCFCFC"/>
<path d="M110.534 88.8021C110.519 88.8169 110.504 88.8169 110.475 88.8317H110.46C110.238 88.9205 109.987 88.8761 109.75 88.8909C110.001 88.7134 110.268 88.8317 110.534 88.8021Z" fill="#FCFCFC"/>
<path d="M37.7068 30.6039C37.6921 30.6187 37.6625 30.6187 37.6329 30.6335C37.4406 30.7074 37.2188 30.6927 37.0117 30.6927C37.2336 30.5152 37.485 30.6187 37.7068 30.6039Z" fill="#FCFCFC"/>
<path d="M87.6831 161.332C87.4761 161.48 87.2394 161.391 87.0176 161.406C87.0324 161.406 87.0472 161.391 87.062 161.391C87.2542 161.287 87.4761 161.317 87.6831 161.332Z" fill="#FCFCFC"/>
<path d="M87.6831 30.678C87.4761 30.678 87.269 30.7076 87.0767 30.6336C87.062 30.6336 87.0324 30.6188 87.0176 30.604C87.2394 30.6188 87.4761 30.5301 87.6831 30.678Z" fill="#FCFCFC"/>
<path d="M120.634 131.027C120.619 130.85 120.604 130.658 120.707 130.495C120.707 130.48 120.722 130.48 120.722 130.465C120.707 130.658 120.781 130.85 120.634 131.027Z" fill="#FCFCFC"/>
<path d="M73.6763 64.8129C72.0938 64.8129 70.4965 64.8277 68.914 64.7981C68.4999 64.7981 68.3816 64.9017 68.3816 65.3158C68.3963 68.3477 68.3964 71.3796 68.3964 74.3968C68.3964 75.2546 68.2041 76.0384 67.5829 76.6892C67.2132 77.0589 66.7843 77.266 66.2518 77.266C63.7819 77.266 61.2972 77.3104 58.8273 77.2512C57.4962 77.2216 56.4609 76.5117 55.7214 75.4025C55.4848 75.0475 55.47 74.6482 55.47 74.2341C55.47 71.2909 55.4552 68.3625 55.4848 65.4193C55.4848 64.9312 55.3517 64.7981 54.8636 64.7981C52.2014 64.8277 49.5392 64.8129 46.8771 64.8129C45.0283 64.8129 43.9043 63.7037 43.9043 61.8549C43.9043 59.6808 43.9043 57.4919 43.9043 55.3178C43.9043 54.0607 44.3924 53.0254 45.2354 52.138C45.6939 51.6647 46.2263 51.4281 46.9066 51.4281C49.554 51.4429 52.1866 51.4133 54.834 51.4576C55.3665 51.4576 55.47 51.295 55.4552 50.8069C55.4404 48.263 55.47 45.7044 55.4256 43.1605C55.4108 42.1844 55.8397 41.5336 56.6088 41.0604C57.3483 40.6019 58.147 40.3652 59.0196 40.3652C61.3416 40.3652 63.6784 40.3652 66.0004 40.3652C67.509 40.3652 68.352 41.1935 68.3668 42.7464C68.3816 45.4382 68.3816 48.1447 68.3668 50.8365C68.3668 51.3393 68.4999 51.4724 69.0027 51.4724C72.0642 51.4429 75.1405 51.4724 78.202 51.4576C78.8824 51.4576 79.4148 51.6943 79.8881 52.1528C80.8199 53.0697 81.3375 54.1642 81.3227 55.5101C81.2931 57.6546 81.3079 59.7991 81.3079 61.9437C81.3079 63.6297 80.1247 64.8277 78.4239 64.8425C76.8562 64.8277 75.2736 64.8129 73.6763 64.8129Z" fill="#FEFEFE"/>
<path d="M68.4121 134.532C68.4121 132.728 68.4121 130.909 68.4121 129.105C68.4121 127.448 69.5805 126.28 71.2222 126.265C74.8753 126.265 78.5284 126.265 82.1963 126.265C83.8232 126.265 85.0064 127.419 85.0212 129.045C85.0359 132.713 85.0359 136.396 85.0212 140.064C85.0212 141.72 83.8232 142.874 82.1667 142.874C78.5284 142.874 74.8901 142.874 71.2518 142.874C69.5657 142.874 68.4121 141.706 68.4121 140.005C68.4121 138.186 68.4121 136.352 68.4121 134.532Z" fill="#FEFEFE"/>
<path d="M48.0462 113.753C46.2123 113.753 44.3931 113.753 42.5592 113.753C40.9471 113.753 39.7935 112.629 39.7787 111.017C39.7639 107.319 39.7639 103.636 39.7787 99.9389C39.7787 98.3268 40.9175 97.1732 42.5887 97.1584C46.2419 97.1288 49.8949 97.1288 53.548 97.1584C55.2489 97.1732 56.3581 98.3564 56.3729 100.057C56.3729 103.636 56.3729 107.216 56.3729 110.795C56.3729 112.643 55.2637 113.738 53.4002 113.738C51.6254 113.753 49.8358 113.753 48.0462 113.753Z" fill="#FEFEFE"/>
<path d="M39.7773 134.532C39.7773 132.743 39.7773 130.953 39.7773 129.164C39.7773 127.404 40.9162 126.265 42.6909 126.265C46.2849 126.265 49.8936 126.265 53.4876 126.265C55.2032 126.265 56.3716 127.419 56.3716 129.149C56.3716 132.772 56.3716 136.381 56.3716 140.005C56.3716 141.72 55.1884 142.874 53.4728 142.874C49.8493 142.874 46.2405 142.874 42.617 142.874C40.9457 142.874 39.7921 141.72 39.7773 140.064C39.7773 138.23 39.7773 136.381 39.7773 134.532Z" fill="#FEFEFE"/>
<path d="M76.6797 113.753C74.8457 113.753 73.0266 113.753 71.1926 113.753C69.5657 113.753 68.4121 112.584 68.4121 110.957C68.4121 107.319 68.4121 103.681 68.4121 100.042C68.4121 98.3416 69.5214 97.1584 71.237 97.1436C74.8901 97.1141 78.5432 97.1141 82.1963 97.1436C83.8971 97.1584 85.0212 98.3416 85.0212 100.042C85.0359 103.636 85.0359 107.245 85.0212 110.839C85.0212 112.614 83.8823 113.738 82.1075 113.738C80.3032 113.753 78.4988 113.753 76.6797 113.753Z" fill="#FEFEFE"/>
</g>
<defs>
<clipPath id="clip0_5180_39795">
<rect width="192" height="192" fill="white"/>
</clipPath>
</defs>
</svg>
