<svg width="192" height="192" viewBox="0 0 192 192" fill="none" xmlns="http://www.w3.org/2000/svg">
<g clip-path="url(#clip0_4929_34513)">
<path d="M96 192C149.019 192 192 149.019 192 96C192 42.9807 149.019 0 96 0C42.9807 0 0 42.9807 0 96C0 149.019 42.9807 192 96 192Z" fill="#FF3600"/>
<path d="M142.84 40.5C130.48 30.03 114.54 24.29 98.43 23.5H94.15C75.84 24.32 57.81 31.82 44.89 44.9C31.81 57.84 24.3 75.86 23.5 94.19V98.53C24.31 114.41 29.89 130.13 40.12 142.39C51.68 156.74 69 165.98 87.19 168.5H105.54C119.1 166.46 132.23 161.02 142.75 152.15C156.89 140.59 165.98 123.44 168.49 105.42V87.1C165.95 69.15 156.92 52.05 142.83 40.5H142.84ZM152.83 127.99C145.3 140.41 133.57 150.21 120.04 155.49C106.35 160.79 90.87 161.66 76.77 157.44C68.56 155.14 60.94 151 54.14 145.91C41.98 136.46 33.18 122.75 29.87 107.7C27.53 97.67 27.56 87.11 30.05 77.12C33.62 61.48 43.26 47.46 56.28 38.16C65.92 31.23 77.38 27 89.15 25.65C110.72 23.64 133.03 32.8 146.97 49.39C155.97 60.28 161.71 73.91 162.58 88.05C163.61 101.95 160.17 116.15 152.84 128L152.83 127.99Z" fill="white"/>
<path d="M131.678 74.03C131.308 75.27 130.028 74.33 129.218 74.39C129.438 73.23 130.718 72.88 131.448 73.86C131.878 73.47 132.308 73.08 132.728 72.68C131.138 70.13 127.338 69.04 125.158 71.49C122.458 73.66 123.588 77.57 121.458 80.08C120.078 81.97 118.638 84.6 115.918 84.32C115.668 83.36 115.428 82.41 115.178 81.45C118.708 81.75 121.528 76.56 117.938 74.64C114.838 74.21 111.408 76.19 110.668 79.31C109.968 81.71 108.668 84.47 106.068 85.2C105.578 82.34 104.548 79.5 104.618 76.6C106.768 72.71 106.058 67.51 102.978 64.33C101.718 62.79 99.6781 62.58 97.8281 62.71C97.1681 69.79 99.1081 76.77 100.168 83.71C100.368 85.62 98.7081 86.97 97.2781 87.91C94.7781 85.22 97.4281 80.16 93.8381 78.42C91.0081 78.54 88.2381 79.68 85.3381 79.32C84.9881 77.04 84.6981 74.75 84.4981 72.45C86.7281 72.43 88.9981 72.33 91.1481 71.64C91.3981 69.97 91.3981 68.27 91.2081 66.59C87.9481 66.63 84.6981 66.95 81.5181 67.63C79.8781 68.04 77.9981 69.37 78.2181 71.27C78.5881 75.87 79.4381 80.44 79.7681 85.05C77.2781 86.28 75.6381 88.97 72.8281 89.47C74.6481 87.67 77.2181 85.84 77.0581 82.97C77.2281 81.22 76.3781 79.01 74.2581 79.24C71.3681 79.81 68.9281 81.66 66.5781 83.33C65.7781 84.78 67.4881 86.82 69.1481 86.3C71.3281 85.37 72.9881 83.26 75.5081 83.16C75.5181 86.06 73.0881 87.79 71.1981 89.56C71.3281 90.06 71.5981 91.06 71.7381 91.56C69.9881 93.74 67.2681 95.85 67.5381 98.94C69.0281 101.81 71.4681 104.32 74.5181 105.52C77.0181 106.27 79.8281 104.81 80.9581 102.51C82.5581 97.64 80.3581 91.51 75.1181 90.03C76.5781 88.44 78.1881 86.96 80.1281 85.95C80.7681 89.39 81.1581 93.51 84.2181 95.74C85.8781 95.3 87.3281 94.4 88.4781 93.14C86.5381 89.4 86.3081 85.13 85.4881 81.07C87.2381 80.77 88.9981 80.55 90.7581 80.38C91.6381 84.14 90.4381 90.02 95.2381 91.31C97.8681 90.47 99.8881 88.46 101.028 85.97C101.568 87.57 102.358 89.09 103.858 89.96C106.898 88.86 108.578 86.05 110.358 83.56C110.718 85.45 111.818 87.8 114.118 87.61C118.268 87.02 121.138 83.28 122.938 79.77C124.008 81.25 125.058 83.35 127.128 83.44C131.088 84.1 133.528 79.64 133.468 76.23C135.568 74.68 138.518 73.53 139.338 70.85C136.898 72.13 134.698 74.63 131.688 74.03H131.678ZM76.1081 101.57C73.3781 102.14 71.1081 100.28 69.4481 98.36C69.4981 96.13 70.7781 94.18 72.3381 92.68C73.1381 91.9 74.0481 92.84 74.4981 93.5C76.2781 95.75 76.9081 98.8 76.1081 101.57ZM103.458 67.44C105.398 69.55 105.008 72.65 104.698 75.24C103.418 72.85 103.468 70.08 103.458 67.44ZM115.968 76.71C116.758 76.69 117.538 76.67 118.328 76.65C118.708 78.72 117.318 80.71 115.088 80.65C115.258 79.31 115.568 78 115.968 76.71ZM129.498 81.26C129.118 81.23 128.738 81.2 128.358 81.15C128.188 79.61 128.078 78.07 128.028 76.52C129.488 76.71 130.968 76.77 132.448 76.7C132.288 77.8 131.978 78.86 131.598 79.9C131.278 80.76 130.428 81.32 129.508 81.26H129.498Z" fill="white"/>
<path d="M90.6604 76.0802C90.1204 74.9802 89.7804 73.8002 89.8104 72.5602C91.3304 71.1102 94.6904 70.8202 94.9104 73.5302C95.3504 76.0002 92.5204 76.8702 90.6504 76.0702L90.6604 76.0802Z" fill="white"/>
<path d="M62.9092 76.0495C62.6192 74.1495 61.2492 71.9195 59.0192 72.3295C56.0492 72.0095 54.1592 74.7995 53.2592 77.2495C51.3592 83.0595 51.0892 89.2195 50.8892 95.2795C50.8992 98.2295 50.6992 101.22 51.3392 104.12C52.5492 103.07 54.4392 102.18 54.3992 100.32C54.5192 96.6195 53.9292 92.9395 53.7492 89.2495C55.6092 89.0995 57.4792 88.9695 59.3492 88.8595C59.8992 91.7995 60.3092 94.8795 61.7792 97.5395C62.9492 100.29 67.3892 98.2495 67.4092 95.9695C64.7792 89.6295 64.2092 82.7195 62.9092 76.0495ZM53.6392 87.6595C53.6992 83.7695 53.1392 79.4795 55.3092 76.0195C55.7292 75.9395 56.5592 75.7695 56.9792 75.6895C58.8792 79.2195 58.5792 83.4295 58.8992 87.3195C57.1492 87.4295 55.3892 87.5395 53.6392 87.6495V87.6595Z" fill="white"/>
<path d="M138.559 95.0903C136.789 96.6603 134.369 95.6203 132.309 95.4703C131.059 95.8203 130.009 96.8303 128.609 96.5403C129.279 94.4403 131.439 92.7003 133.709 93.6803C135.639 94.6403 137.379 93.1703 139.309 93.2303C139.489 94.0503 139.239 94.6703 138.559 95.0903Z" fill="white"/>
<path d="M141.459 121.08C140.519 121.17 139.589 121.26 138.649 121.35C137.119 114.2 135.489 107.07 133.879 99.9402C134.799 99.8502 135.709 99.7902 136.629 99.7402C138.299 106.84 139.749 113.99 141.449 121.08H141.459Z" fill="white"/>
<path d="M113.25 103.97C112.91 104.57 112.58 105.17 112.24 105.78C111.58 105.74 110.92 105.7 110.26 105.66C109.39 104.01 110.05 102.32 112 102.25C112.41 102.82 112.83 103.4 113.25 103.97Z" fill="white"/>
<path d="M117.478 110.79C115.648 108.34 111.268 108.65 109.938 111.46C108.398 114.01 107.878 117.94 110.388 120.07C112.568 121.76 115.388 120.64 117.778 120.18C115.428 124.98 109.128 124.59 104.598 125.36C102.718 123.29 102.638 120.41 101.948 117.84C100.858 113.39 99.7684 108.93 98.8284 104.45C98.1584 104.54 96.8184 104.72 96.1484 104.81C97.3784 111.14 99.0084 117.37 100.428 123.66C100.688 125.09 101.518 126.3 102.348 127.46C105.228 128.71 108.298 127.68 111.218 127.17C114.608 126.37 118.568 125.07 119.908 121.49C120.898 117.87 119.948 113.67 117.488 110.81L117.478 110.79ZM111.598 117.28C111.338 115.55 110.968 113.14 112.798 112.12C115.868 111.26 117.188 114.9 117.608 117.24C115.758 117.84 113.138 119.17 111.608 117.28H111.598Z" fill="white"/>
<path d="M127.24 107.72C126.44 108.18 125.49 107.94 124.62 107.96C124.55 106.97 124.53 105.98 124.55 104.99C125.53 104.99 126.51 105.04 127.49 105.13C127.49 105.99 127.71 106.94 127.24 107.73V107.72Z" fill="white"/>
<path d="M91.7903 116.63C91.0503 117.12 90.3003 117.61 89.5503 118.09C90.6103 121.1 93.4903 123.8 92.5703 127.22C91.1603 128.52 89.1203 128.73 87.3003 128.97C85.3003 129.41 83.9703 127.42 83.6003 125.72C82.3503 119.95 80.9003 114.21 79.6803 108.44C78.7303 108.54 77.7803 108.64 76.8303 108.75C78.2903 114.67 79.5603 120.63 80.9803 126.55C81.0703 127.78 81.8103 129.68 80.2203 130.25C78.5003 130.87 76.6703 131.09 74.8603 131.29C74.5003 127.7 72.1603 122.95 67.8303 123.71C63.6303 124.61 62.6403 130.2 64.1603 133.6C66.1203 136.33 69.7903 135.14 72.5703 134.83C71.4303 138.3 68.1003 140.15 64.8503 141.24C65.0703 142.13 65.2903 143.02 65.5203 143.92C70.3303 142.8 74.6503 139.16 75.3103 134.07C78.3003 133.66 82.1203 133.49 83.6803 130.41C84.7703 131.13 85.8603 132.14 87.2803 131.85C90.0503 131.42 93.3603 130.72 94.8703 128.07C95.9903 123.97 93.8403 120.05 91.8003 116.64L91.7903 116.63ZM66.8403 132.44C65.6103 130.82 66.0403 128.79 66.7903 127.07C67.2203 126.87 68.0703 126.45 68.4903 126.24C71.0103 126.94 71.7903 129.63 72.5303 131.82C70.6703 132.3 68.7703 132.54 66.8503 132.44H66.8403Z" fill="white"/>
<path d="M125.011 132.37C124.521 131.6 124.041 130.83 123.551 130.06C126.751 128.16 130.251 125.45 130.421 121.4C130.721 118.2 128.541 115.59 126.601 113.32C127.421 112.82 128.251 112.33 129.091 111.86C131.001 114.43 132.961 117.3 132.851 120.65C133.141 125.79 129.271 130.05 125.011 132.37Z" fill="white"/>
<path d="M94.0298 135.5C92.5698 136.55 90.8498 138.91 89.0898 136.88C89.1398 136.23 89.1998 135.58 89.2498 134.93C90.7998 134.19 92.2699 135.02 93.6599 135.71C93.9299 134.72 94.3798 133.83 95.2198 133.24C95.8498 133.62 96.4799 134 97.1199 134.37C97.7999 136.45 94.1498 138.28 94.0398 135.51L94.0298 135.5Z" fill="white"/>
</g>
<defs>
<clipPath id="clip0_4929_34513">
<rect width="192" height="192" fill="white"/>
</clipPath>
</defs>
</svg>
