<svg width="192" height="192" viewBox="0 0 192 192" fill="none" xmlns="http://www.w3.org/2000/svg">
<g clip-path="url(#clip0_4929_36090)">
<path d="M96 192C149.019 192 192 149.019 192 96C192 42.9807 149.019 0 96 0C42.9807 0 0 42.9807 0 96C0 149.019 42.9807 192 96 192Z" fill="white"/>
<g clip-path="url(#clip1_4929_36090)">
<path d="M62.901 90.2945L66.534 75.7143C67.249 72.8446 71.4134 73.1055 71.7612 76.0428L75.7324 109.619L79.9354 96.5363C80.4282 95.0096 81.8485 93.9758 83.4428 93.9661L101.598 93.9178C103.221 93.9178 104.632 92.7873 104.989 91.2027L108.468 75.7916C109.096 73.0089 113.125 73.2311 113.453 76.0621L117.425 110.836L121.289 97.2802C121.85 95.2995 123.657 93.9371 125.715 93.9371L168.441 93.9661V75.5597C168.441 71.3663 165.04 67.9653 160.846 67.9653H127.811C125.744 67.9653 124.063 66.2937 124.063 64.226V30.9592C124.063 26.8721 120.748 23.558 116.671 23.558L75.7807 23.5C71.4714 23.5 67.9833 26.9784 67.9737 31.2877L67.9544 64.2163C67.9544 66.284 66.2731 67.9556 64.2054 67.9556H31.0353C26.9095 67.9556 23.5664 71.2987 23.5664 75.4244V93.9565L58.2536 93.9275C60.4565 93.9275 62.3696 92.4298 62.9107 90.2848L62.901 90.2945Z" fill="#29EEB7"/>
<path d="M66.5437 98.0436L69.0365 89.5505L72.5246 122.885C72.7951 125.445 76.4087 125.755 77.1044 123.271L84.2158 98.0436L108.439 98.1015L110.719 89.5505L114.478 123.117C114.739 125.465 118.043 125.726 118.681 123.455L125.802 97.9953L168.45 98.0339V116.566C168.45 120.692 165.107 124.035 160.982 124.035H127.802C125.734 124.035 124.062 125.706 124.053 127.774L124.034 160.703C124.034 165.012 120.536 168.5 116.226 168.49L75.3459 168.442C71.2588 168.442 67.9544 165.128 67.9544 161.041V127.774C67.9544 125.706 66.2731 124.025 64.2054 124.025H31.1609C26.9675 124.044 23.5664 120.643 23.5664 116.45V98.0436H66.5437Z" fill="#0268FE"/>
<path d="M83.6647 44.1094C79.3168 46.4379 77.1234 49.182 78.1573 53.4816C79.1718 57.6944 82.7372 58.6509 86.2832 59.0954C89.4427 59.4915 92.6988 59.1533 95.8874 59.3659C98.8633 59.5591 99.8199 58.3031 99.7522 55.4237C99.6073 49.6458 99.6653 43.8678 99.7619 38.0898C99.7909 36.341 98.9599 33.7709 101.965 33.6646C104.728 33.5583 107.134 34.6404 107.598 37.771C108.139 41.4136 107.376 44.5345 103.308 45.8099C102.438 46.0901 101.24 46.1964 101.52 47.5104C101.607 47.9162 102.448 48.3221 102.999 48.4283C107.298 49.2786 112.922 45.3365 113.849 40.8725C114.902 35.8386 112.555 32.5244 106.96 31.307C100.583 29.9253 94.1675 30.8915 87.7808 31.2394C84.5053 31.4229 81.1622 32.0993 79.8772 35.6453C78.6211 39.114 80.225 41.8581 83.6647 44.1094Z" fill="#29EEB7"/>
<path d="M83.6647 44.1094C80.2347 41.8581 78.6211 39.1044 79.8772 35.6453C81.1719 32.0993 84.5053 31.4229 87.7808 31.2394C94.1675 30.8915 100.583 29.9253 106.96 31.307C112.555 32.5244 114.902 35.8386 113.849 40.8725C112.912 45.3365 107.298 49.2883 102.999 48.4283C102.448 48.3221 101.607 47.9066 101.52 47.5104C101.24 46.1964 102.438 46.0901 103.308 45.8099C107.366 44.5248 108.129 41.4136 107.598 37.771C107.134 34.6404 104.738 33.5583 101.965 33.6646C98.9599 33.7709 99.7909 36.3506 99.7619 38.0898C99.6653 43.8678 99.6073 49.6458 99.7522 55.4237C99.8199 58.2934 98.873 59.5591 95.8874 59.3659C92.6892 59.1533 89.4427 59.5012 86.2832 59.0954C82.7372 58.6509 79.1718 57.6944 78.1573 53.4817C77.1234 49.182 79.3168 46.4379 83.6647 44.1094ZM93.2496 50.9405C92.4186 49.3366 94.8149 45.5683 90.1287 45.8002C86.5924 45.9742 84.3894 47.636 84.3024 51.4333C84.2251 55.1629 86.3122 56.3996 89.7615 56.5832C94.1965 56.8151 92.9211 53.6362 93.2496 50.9405ZM93.1723 38.5633C92.7665 36.9111 94.2834 33.8868 90.4476 33.9834C87.4813 34.0511 85.6068 35.3748 85.6068 38.6116C85.6068 41.6745 87.462 42.6987 90.1963 42.9113C93.5394 43.1721 93.1336 40.8629 93.1723 38.5633Z" fill="#0268FE"/>
<path d="M93.2402 50.9405C92.9117 53.6362 94.1871 56.8151 89.7522 56.5832C86.3125 56.4093 84.2158 55.1725 84.2931 51.4333C84.3704 47.6264 86.583 45.9741 90.1194 45.8002C94.8055 45.5683 92.4093 49.3366 93.2402 50.9405Z" fill="#29EEB7"/>
<path d="M93.1729 38.5633C93.1342 40.8629 93.5401 43.1721 90.1969 42.9112C87.4529 42.6987 85.6074 41.6745 85.6074 38.6116C85.6074 35.3748 87.4722 34.0607 90.4482 33.9834C94.2937 33.8868 92.7671 36.911 93.1729 38.5633Z" fill="#29EEB7"/>
</g>
</g>
<defs>
<clipPath id="clip0_4929_36090">
<rect width="192" height="192" fill="white"/>
</clipPath>
<clipPath id="clip1_4929_36090">
<rect width="144.865" height="145" fill="white" transform="translate(23.5664 23.5)"/>
</clipPath>
</defs>
</svg>
