<svg width="192" height="192" viewBox="0 0 192 192" fill="none" xmlns="http://www.w3.org/2000/svg">
<g clip-path="url(#clip0_4929_36083)">
<path d="M96 192C149.019 192 192 149.019 192 96C192 42.9807 149.019 0 96 0C42.9807 0 0 42.9807 0 96C0 149.019 42.9807 192 96 192Z" fill="white"/>
<path d="M86.8283 101.54C86.2083 100.28 85.4683 99.3101 86.4483 97.7401C89.3483 93.1401 89.4783 88.0101 88.6083 82.8401C87.3083 75.0401 80.1883 69.0801 72.2683 69.0601C65.3183 69.0401 58.3683 69.0601 51.4183 69.0601C45.3483 69.0601 39.2783 69.1001 33.2183 69.0601C32.2983 69.0601 31.3783 69.0601 30.4483 69.0401H25.9883V82.9401H33.2183V82.9001C45.9983 82.8001 58.7683 82.8501 71.5383 82.8801C75.2783 82.8801 77.1283 84.8701 76.6983 88.2801C76.2583 91.7301 73.8483 92.4001 70.8383 92.3901C59.8283 92.3601 48.8183 92.3901 37.8183 92.3601H27.7583V129.66H36.2583C36.7783 129.66 37.2983 129.66 37.8183 129.66C48.9183 129.64 60.0183 129.67 71.1183 129.63C75.9783 129.62 80.3583 128.32 83.8183 124.61C89.6283 118.38 90.8483 109.66 86.8283 101.54ZM71.1183 115.78C61.5783 115.84 52.0483 115.74 42.5083 115.84C40.4183 115.86 40.0083 115.08 39.9683 113.19C39.8283 105.99 39.7583 105.99 46.9983 105.99H57.2383C61.8283 105.99 66.4183 105.95 71.0183 106C74.6283 106.04 76.6883 107.84 76.7083 110.8C76.7083 113.74 74.5783 115.76 71.1283 115.77L71.1183 115.78Z" fill="#15A8DC"/>
<path d="M146.847 128.091C143.467 129.281 139.947 129.531 136.417 129.591C131.587 129.661 126.757 129.601 121.927 129.601C116.627 129.601 111.317 129.521 106.027 129.641C103.797 129.701 102.927 129.141 102.947 126.741C102.987 119.901 102.957 113.051 102.887 106.201C102.887 105.631 102.877 105.051 102.867 104.481V92.3505H115.537V101.651C115.537 105.621 115.627 109.591 115.497 113.551C115.447 115.411 116.097 115.951 117.937 115.931C124.647 115.841 131.367 116.031 138.077 115.851C147.147 115.601 153.407 108.161 153.157 98.2206C152.947 89.6306 146.167 83.0105 137.577 82.9505C136.647 82.9505 135.717 82.9306 134.787 82.9106H124.937V69.0605H135.597C136.127 69.0605 136.647 69.0705 137.157 69.0705C151.817 69.1105 163.017 79.2506 165.607 94.6506C167.957 108.631 159.547 123.601 146.857 128.071L146.847 128.091Z" fill="#42AF3F"/>
<path d="M121.07 70.3601H113.01V62.3301H102.23V70.3601H94.1602V81.3701H102.23V89.4001H113.01V81.3701H121.07V70.3601Z" fill="url(#paint0_linear_4929_36083)"/>
</g>
<defs>
<linearGradient id="paint0_linear_4929_36083" x1="97.6202" y1="69.9901" x2="120.82" y2="83.6201" gradientUnits="userSpaceOnUse">
<stop stop-color="#15A8DC"/>
<stop offset="1" stop-color="#42AF3F"/>
</linearGradient>
<clipPath id="clip0_4929_36083">
<rect width="192" height="192" fill="white"/>
</clipPath>
</defs>
</svg>
