<svg width="192" height="192" viewBox="0 0 192 192" fill="none" xmlns="http://www.w3.org/2000/svg">
<g clip-path="url(#clip0_4929_36101)">
<path d="M96 192C149.019 192 192 149.019 192 96C192 42.9807 149.019 0 96 0C42.9807 0 0 42.9807 0 96C0 149.019 42.9807 192 96 192Z" fill="white"/>
<g clip-path="url(#clip1_4929_36101)">
<path d="M166 93.6415V87.4437C159.195 87.4437 153.981 91.8863 153.981 98.852V113.716H160.402V99.1811C160.402 95.616 162.543 93.6415 166 93.6415ZM151.347 103.624C151.347 103.624 151.621 102.033 151.621 100.717C151.621 92.8736 146.133 87.1694 138.23 87.1694C130.383 87.1694 124.62 92.8187 124.62 100.772C124.62 108.725 130.547 114.374 138.724 114.374C143.279 114.374 147.176 112.838 149.865 110.315L146.408 106.037C144.103 107.792 142.017 108.615 138.779 108.615C134.938 108.615 132.139 106.695 131.096 103.569H151.347V103.624ZM145.53 98.7423H130.822C131.59 95.1772 134.444 92.8736 138.23 92.8736C142.182 92.8736 144.926 95.0127 145.53 98.7423ZM123.907 93.6415V87.4437C117.102 87.4437 111.888 91.8863 111.888 98.852V113.716H118.309V99.1811C118.309 95.616 120.449 93.6415 123.907 93.6415ZM108.705 103.02V88.1567H102.284V102.691C102.284 106.256 100.143 108.231 96.686 108.231C93.2285 108.231 91.0882 106.256 91.0882 102.691V88.1567H84.6672V103.02C84.6672 109.986 89.8808 114.429 96.686 114.429C103.491 114.429 108.705 109.931 108.705 103.02ZM82.0878 103.624C82.0878 103.624 82.3622 102.033 82.3622 100.717C82.3622 92.8736 76.8742 87.1694 68.9714 87.1694C61.1235 87.1694 55.361 92.8736 55.361 100.772C55.361 108.725 61.2881 114.374 69.4653 114.374C74.0204 114.374 77.9169 112.838 80.606 110.315L77.1486 106.037C74.8436 107.792 72.7581 108.615 69.5202 108.615C65.6786 108.615 62.8797 106.695 61.8369 103.569H82.0878V103.624ZM76.2705 98.7423H61.5625C62.3309 95.1772 65.1846 92.8736 68.9714 92.8736C72.9228 92.8736 75.6119 95.0127 76.2705 98.7423ZM50.2023 109.712C53.1109 106.421 54.0439 101.485 52.8365 96.9872C51.2999 91.996 46.8546 87.8824 41.6409 87.334C38.1286 87.0049 34.8358 87.7179 32.2564 89.8021V77.571H26V99.8941C26.0549 102.801 26.439 105.05 27.6464 107.244C30.1709 112.015 35.2199 114.703 40.8177 114.429C44.4398 114.1 47.7875 112.399 50.2023 109.712ZM45.9216 105.324C44.1105 107.683 41.0921 108.889 38.0188 108.286C35.165 107.573 32.8601 105.05 32.421 102.088C31.9271 99.0166 33.354 96.1096 35.8785 94.4093C38.1286 92.9284 41.6958 92.9833 43.9459 94.5739C45.0435 95.2869 45.9765 96.3839 46.5802 97.7002C47.7327 99.8941 47.4583 103.185 45.9216 105.324Z" fill="#C4014B"/>
</g>
</g>
<defs>
<clipPath id="clip0_4929_36101">
<rect width="192" height="192" fill="white"/>
</clipPath>
<clipPath id="clip1_4929_36101">
<rect width="140" height="36.8577" fill="white" transform="translate(26 77.571)"/>
</clipPath>
</defs>
</svg>
