<svg width="192" height="192" viewBox="0 0 192 192" fill="none" xmlns="http://www.w3.org/2000/svg">
<g clip-path="url(#clip0_5191_39734)">
<path d="M96 192C149.019 192 192 149.019 192 96C192 42.9807 149.019 0 96 0C42.9807 0 0 42.9807 0 96C0 149.019 42.9807 192 96 192Z" fill="white"/>
<path d="M88.6183 158.391C72.4973 158.391 56.3763 158.391 40.2406 158.391C40.0927 158.391 39.9448 158.406 39.7969 158.406C39.5307 158.376 39.2644 158.494 39.013 158.317C35.5522 157.829 33.1562 155.936 31.7512 152.756C31.3371 151.824 31.1596 150.863 31.1004 149.872C30.9525 149.694 31.0117 149.487 31.0117 149.28C31.0117 111.758 31.0117 74.2512 31.0117 36.7292C31.0117 36.5369 30.9525 36.3151 31.1004 36.1376C31.1892 34.2297 31.8399 32.5289 33.0231 31.0351C34.3838 29.3195 36.1438 28.225 38.3031 27.8109C38.5397 27.7665 38.7764 27.7222 38.9982 27.6778C39.2053 27.5151 39.4567 27.6187 39.6786 27.6039C43.9824 27.6039 48.2863 27.6039 52.5901 27.6039C64.4812 27.6039 76.3723 27.6039 88.2633 27.6039C88.5 27.6039 88.7366 27.6039 88.988 27.5891C89.2099 27.6186 89.4465 27.5151 89.6536 27.663C91.8869 28.0032 93.8243 28.9497 95.3329 30.6506C96.5605 32.0408 97.3147 33.6529 97.5514 35.5312C97.6697 36.4334 97.6401 37.3356 97.6401 38.2378C97.6401 75.1829 97.6549 112.128 97.6401 149.073C97.6401 153.052 95.7322 155.906 92.1383 157.637C91.3544 158.006 90.5114 158.184 89.6536 158.317C89.4465 158.465 89.2099 158.376 88.988 158.391C88.8845 158.406 88.7514 158.391 88.6183 158.391Z" fill="#4DA6A6"/>
<path d="M105.51 77.4753C105.377 76.8837 105.362 76.3068 105.51 75.7153C105.806 74.1475 106.723 73.201 108.305 72.92C108.483 72.7573 108.69 72.8312 108.882 72.8312C125.077 72.8312 141.272 72.8312 157.467 72.8312C157.659 72.8312 157.881 72.7721 158.058 72.92C159.818 73.3341 160.883 74.5468 160.927 76.1737C160.987 78.5401 160.232 79.6642 158.162 80.2853C157.984 80.4332 157.777 80.3741 157.57 80.3741C141.301 80.3741 125.032 80.3741 108.749 80.3741C108.556 80.3741 108.335 80.448 108.172 80.2853C107.063 80.2262 105.613 78.8951 105.51 77.4753Z" fill="#4DA6A6"/>
<path d="M160.97 151.41C160.97 153.274 160.201 154.634 158.782 155.714C157.436 156.749 155.868 157.267 154.197 157.444C154.034 157.592 153.842 157.533 153.664 157.533C150.706 157.533 147.748 157.533 144.805 157.533C144.45 157.533 144.213 157.533 144.228 157.06C144.243 147.387 144.243 137.7 144.243 128.027C144.066 125.853 142.808 124.019 140.93 123.472C140.516 123.354 140.087 123.28 139.643 123.28C135.443 123.28 131.258 123.28 127.072 123.28C124.957 123.28 123.803 124.345 123.079 126.06C122.886 126.504 122.679 126.977 122.739 127.495C122.724 127.687 122.798 127.879 122.65 128.057C122.635 128.294 122.62 128.53 122.62 128.782C122.62 138.336 122.62 147.89 122.62 157.444C122.502 157.607 122.324 157.563 122.162 157.563C118.982 157.563 115.802 157.563 112.622 157.563C112.474 157.563 112.326 157.592 112.208 157.474C110.123 157.356 108.318 156.587 106.854 155.122C106.159 154.427 105.612 153.599 105.538 152.579C105.39 152.401 105.449 152.194 105.449 151.987C105.449 131.725 105.449 111.463 105.449 91.2005C105.449 91.0082 105.39 90.7864 105.538 90.6089C105.908 88.5531 107.357 87.4587 109.087 86.6452C109.931 86.2459 110.847 86.0684 111.764 85.9353C112.001 85.7578 112.282 85.8761 112.548 85.8466C112.696 85.8466 112.844 85.8614 112.992 85.8614H153.442C153.59 85.8614 153.738 85.8466 153.886 85.8466C154.152 85.8761 154.418 85.7578 154.67 85.9353C156.09 86.1867 157.465 86.5861 158.663 87.4291C160.187 88.5087 161 89.8842 161 91.8513C160.941 111.67 160.941 131.547 160.97 151.41Z" fill="#4DA6A6"/>
<path d="M88.6183 158.391C72.4973 158.391 56.3763 158.391 40.2406 158.391C40.0927 158.391 39.9448 158.406 39.7969 158.406C39.5307 158.376 39.2644 158.494 39.013 158.317C35.5522 157.829 33.1562 155.936 31.7512 152.756C31.3371 151.824 31.1596 150.863 31.1004 149.872C30.9525 149.694 31.0117 149.487 31.0117 149.28C31.0117 111.758 31.0117 74.2512 31.0117 36.7292C31.0117 36.5369 30.9525 36.3151 31.1004 36.1376C31.1892 34.2297 31.8399 32.5289 33.0231 31.0351C34.3838 29.3195 36.1438 28.225 38.3031 27.8109C38.5397 27.7665 38.7764 27.7222 38.9982 27.6778C39.2053 27.5151 39.4567 27.6187 39.6786 27.6039C43.9824 27.6039 48.2863 27.6039 52.5901 27.6039C64.4812 27.6039 76.3723 27.6039 88.2633 27.6039C88.5 27.6039 88.7366 27.6039 88.988 27.5891C89.2099 27.6186 89.4465 27.5151 89.6536 27.663C91.8869 28.0032 93.8243 28.9497 95.3329 30.6506C96.5605 32.0408 97.3147 33.6529 97.5514 35.5312C97.6697 36.4334 97.6401 37.3356 97.6401 38.2378C97.6401 75.1829 97.6549 112.128 97.6401 149.073C97.6401 153.052 95.7322 155.906 92.1383 157.637C91.3544 158.006 90.5114 158.184 89.6536 158.317C89.4465 158.465 89.2099 158.376 88.988 158.391C88.8845 158.406 88.7514 158.391 88.6183 158.391Z" fill="#FEFEFE"/>
<path d="M105.51 77.4753C105.377 76.8837 105.362 76.3068 105.51 75.7153C105.806 74.1475 106.723 73.201 108.305 72.92C108.483 72.7573 108.69 72.8312 108.882 72.8312C125.077 72.8312 141.272 72.8312 157.467 72.8312C157.659 72.8312 157.881 72.7721 158.058 72.92C159.818 73.3341 160.883 74.5468 160.927 76.1737C160.987 78.5401 160.232 79.6642 158.162 80.2853C157.984 80.4332 157.777 80.3741 157.57 80.3741C141.301 80.3741 125.032 80.3741 108.749 80.3741C108.556 80.3741 108.335 80.448 108.172 80.2853C107.063 80.2262 105.613 78.8951 105.51 77.4753Z" fill="#FEFEFE"/>
<path d="M160.97 151.41C160.97 153.274 160.201 154.634 158.782 155.714C157.436 156.749 155.868 157.267 154.197 157.444C154.034 157.592 153.842 157.533 153.664 157.533C150.706 157.533 147.748 157.533 144.805 157.533C144.45 157.533 144.213 157.533 144.228 157.06C144.243 147.387 144.243 137.7 144.243 128.027C144.066 125.853 142.808 124.019 140.93 123.472C140.516 123.354 140.087 123.28 139.643 123.28C135.443 123.28 131.258 123.28 127.072 123.28C124.957 123.28 123.803 124.345 123.079 126.06C122.886 126.504 122.679 126.977 122.739 127.495C122.724 127.687 122.798 127.879 122.65 128.057C122.635 128.294 122.62 128.53 122.62 128.782C122.62 138.336 122.62 147.89 122.62 157.444C122.502 157.607 122.324 157.563 122.162 157.563C118.982 157.563 115.802 157.563 112.622 157.563C112.474 157.563 112.326 157.592 112.208 157.474C110.123 157.356 108.318 156.587 106.854 155.122C106.159 154.427 105.612 153.599 105.538 152.579C105.39 152.401 105.449 152.194 105.449 151.987C105.449 131.725 105.449 111.463 105.449 91.2005C105.449 91.0082 105.39 90.7864 105.538 90.6089C105.908 88.5531 107.357 87.4587 109.087 86.6452C109.931 86.2459 110.847 86.0684 111.764 85.9353C112.001 85.7578 112.282 85.8761 112.548 85.8466C112.696 85.8466 112.844 85.8614 112.992 85.8614H153.442C153.59 85.8614 153.738 85.8466 153.886 85.8466C154.152 85.8761 154.418 85.7578 154.67 85.9353C156.09 86.1867 157.465 86.5861 158.663 87.4291C160.187 88.5087 161 89.8842 161 91.8513C160.941 111.67 160.941 131.547 160.97 151.41Z" fill="#FEFEFE"/>
<path d="M97.654 149.088C97.654 153.066 95.7461 155.921 92.1521 157.651C91.3683 158.021 90.5252 158.198 89.6674 158.331C89.4604 158.405 89.2533 158.302 89.0462 158.391C89.0315 158.391 89.0167 158.405 89.0019 158.405C88.8688 158.405 88.7505 158.391 88.6173 158.391C72.4964 158.391 56.3754 158.391 40.2396 158.391C40.0917 158.391 39.9438 158.405 39.7959 158.405C39.7811 158.391 39.7516 158.391 39.722 158.376C39.4853 158.302 39.2487 158.405 39.0121 158.317C35.5512 157.829 33.1553 155.935 31.7502 152.756C31.3361 151.824 31.1586 150.863 31.0995 149.872C31.0551 149.665 31.0699 149.472 31.0699 149.265C31.0699 111.758 31.0699 74.2657 31.0699 36.7586C31.0699 36.5515 31.0403 36.3445 31.0995 36.1522C31.1882 34.2443 31.839 32.5435 33.0222 31.0497C34.3828 29.3341 36.1428 28.2396 38.3022 27.8255C38.5388 27.7811 38.7754 27.7368 38.9973 27.6924C39.1895 27.6184 39.4114 27.6924 39.6185 27.6332C39.648 27.6332 39.6628 27.6184 39.6924 27.6037C43.9963 27.6037 48.3001 27.6037 52.604 27.6037C64.495 27.6037 76.3861 27.6037 88.2772 27.6037C88.5138 27.6037 88.7504 27.6037 89.0019 27.5889C89.0167 27.6037 89.0462 27.6184 89.061 27.6184C89.2533 27.6924 89.4752 27.6037 89.6674 27.6628C91.9007 28.003 93.8382 28.9495 95.3467 30.6504C96.5743 32.0406 97.3286 33.6527 97.5652 35.531C97.6835 36.4332 97.654 37.3354 97.654 38.2376C97.6687 75.1975 97.6687 112.143 97.654 149.088Z" fill="#4CA6A6"/>
<path d="M160.971 151.41C160.971 153.274 160.202 154.634 158.783 155.714C157.437 156.749 155.869 157.267 154.198 157.444C153.103 157.518 152.024 157.474 150.929 157.474C148.932 157.489 146.936 157.474 144.939 157.474C144.214 157.474 144.274 157.548 144.274 156.838C144.274 147.446 144.274 138.07 144.274 128.678C144.274 128.456 144.318 128.234 144.229 128.027C144.052 125.853 142.795 124.019 140.916 123.472C140.502 123.354 140.073 123.28 139.63 123.28C135.429 123.28 131.244 123.28 127.058 123.28C124.943 123.28 123.79 124.345 123.065 126.06C122.873 126.504 122.666 126.977 122.725 127.495C122.725 127.51 122.71 127.51 122.71 127.524C122.621 127.687 122.71 127.879 122.636 128.057C122.621 128.294 122.606 128.53 122.606 128.782C122.606 138.336 122.606 147.89 122.606 157.444C122.488 157.533 122.355 157.504 122.237 157.504C118.983 157.504 115.729 157.504 112.475 157.504C112.387 157.504 112.298 157.504 112.209 157.474C110.124 157.356 108.319 156.587 106.855 155.122C106.16 154.427 105.613 153.599 105.539 152.578C105.48 152.371 105.509 152.179 105.509 151.972C105.509 131.725 105.509 111.477 105.509 91.2301C105.509 91.023 105.48 90.8307 105.539 90.6237C105.909 88.5679 107.358 87.4734 109.089 86.66C109.932 86.2607 110.849 86.0832 111.765 85.9501C111.987 85.8613 112.239 85.9649 112.475 85.8909H112.49C112.505 85.8909 112.52 85.8761 112.549 85.8613C112.697 85.8613 112.845 85.8761 112.993 85.8761H153.443C153.591 85.8761 153.739 85.8613 153.887 85.8613C153.902 85.8761 153.931 85.8761 153.961 85.8909C154.198 85.9649 154.449 85.8613 154.671 85.9501C156.091 86.2015 157.466 86.6008 158.664 87.4438C160.188 88.5235 161.001 89.899 161.001 91.866C160.942 111.67 160.942 131.547 160.971 151.41Z" fill="#4DA6A6"/>
<path d="M158.189 80.2708C157.982 80.33 157.79 80.3004 157.583 80.3004C141.329 80.3004 125.075 80.3004 108.806 80.3004C108.599 80.3004 108.392 80.33 108.2 80.2708C107.046 80.2265 105.611 78.8954 105.508 77.4756C105.464 76.884 105.464 76.3072 105.508 75.7156C105.804 74.1478 106.721 73.2013 108.303 72.9203C108.481 72.8611 108.673 72.8907 108.85 72.8907C125.075 72.8907 141.285 72.8907 157.509 72.8907C157.687 72.8907 157.879 72.8611 158.056 72.9203C159.816 73.3344 160.881 74.5472 160.926 76.174C161.014 78.5256 160.26 79.6497 158.189 80.2708Z" fill="#4DA6A6"/>
<path d="M31.1445 36.6999C31.1445 74.2366 31.1445 111.773 31.1445 149.31C31.1445 149.488 31.1445 149.68 31.1297 149.857C30.9818 149.68 31.041 149.473 31.041 149.266C31.041 111.744 31.041 74.2366 31.041 36.7146C31.041 36.5224 30.9818 36.3005 31.1297 36.123C31.1297 36.3301 31.1445 36.5076 31.1445 36.6999Z" fill="#FCFCFC"/>
<path d="M105.508 151.854C105.508 152.076 105.508 152.298 105.522 152.519C105.374 152.342 105.434 152.135 105.434 151.928C105.434 131.666 105.434 111.404 105.434 91.1414C105.434 90.9491 105.374 90.7273 105.522 90.5498C105.508 111.004 105.508 131.429 105.508 151.854Z" fill="#FCFCFC"/>
<path d="M158.189 80.2705C158.012 80.4184 157.805 80.3593 157.597 80.3593C141.329 80.3593 125.06 80.3593 108.776 80.3593C108.584 80.3593 108.362 80.4332 108.199 80.2705C108.702 80.2705 109.19 80.2853 109.693 80.2853C125.119 80.2853 140.545 80.2853 155.971 80.2853C156.71 80.2853 157.45 80.2853 158.189 80.2705Z" fill="#FCFCFC"/>
<path d="M158.086 72.9053C147.896 72.9053 137.691 72.8905 127.501 72.8905C123.034 72.8905 118.553 72.8905 114.086 72.8905C112.164 72.8905 110.241 72.9053 108.318 72.9053C108.496 72.7426 108.703 72.8166 108.895 72.8166C125.09 72.8166 141.285 72.8166 157.48 72.8166C157.687 72.8314 157.894 72.7574 158.086 72.9053Z" fill="#FCFCFC"/>
<path d="M154.198 157.429C154.035 157.577 153.843 157.518 153.665 157.518C150.707 157.518 147.749 157.518 144.806 157.518C144.451 157.518 144.214 157.518 144.229 157.045C144.244 147.372 144.244 137.685 144.244 128.012C144.362 128.234 144.303 128.485 144.303 128.722C144.303 138.025 144.303 147.343 144.303 156.645C144.303 157.533 144.2 157.429 145.057 157.429C148.104 157.429 151.151 157.429 154.198 157.429Z" fill="#FCFCFC"/>
<path d="M122.605 157.4C122.487 157.563 122.31 157.518 122.147 157.518C118.967 157.518 115.787 157.518 112.607 157.518C112.46 157.518 112.312 157.548 112.193 157.429C115.447 157.429 118.701 157.429 121.94 157.415C122.177 157.415 122.384 157.415 122.605 157.4Z" fill="#FCFCFC"/>
<path d="M105.523 75.7153C105.523 76.3069 105.523 76.8837 105.523 77.4753C105.375 76.8837 105.375 76.3069 105.523 75.7153Z" fill="#FCFCFC"/>
<path d="M39.8112 158.405C39.545 158.376 39.2788 158.494 39.0273 158.317C39.264 158.317 39.5006 158.287 39.7373 158.376C39.7668 158.376 39.7816 158.391 39.8112 158.405Z" fill="#FCFCFC"/>
<path d="M154.639 85.8909C154.403 85.8761 154.166 85.9205 153.929 85.8317C153.9 85.8169 153.885 85.8169 153.855 85.8021C154.122 85.8317 154.403 85.7134 154.639 85.8909Z" fill="#FCFCFC"/>
<path d="M112.534 85.8021C112.519 85.8169 112.504 85.8169 112.475 85.8317H112.46C112.238 85.9205 111.987 85.8761 111.75 85.8909C112.001 85.7134 112.268 85.8317 112.534 85.8021Z" fill="#FCFCFC"/>
<path d="M39.7068 27.6037C39.6921 27.6185 39.6625 27.6185 39.6329 27.6333C39.4406 27.7072 39.2188 27.6924 39.0117 27.6924C39.2336 27.5149 39.485 27.6185 39.7068 27.6037Z" fill="#FCFCFC"/>
<path d="M89.6831 158.331C89.4761 158.479 89.2394 158.391 89.0176 158.405C89.0324 158.405 89.0472 158.391 89.062 158.391C89.2542 158.287 89.4761 158.317 89.6831 158.331Z" fill="#FCFCFC"/>
<path d="M89.6831 27.6779C89.4761 27.6779 89.269 27.7074 89.0767 27.6335C89.062 27.6335 89.0324 27.6187 89.0176 27.6039C89.2394 27.6187 89.4761 27.53 89.6831 27.6779Z" fill="#FCFCFC"/>
<path d="M122.634 128.027C122.619 127.85 122.604 127.658 122.707 127.495C122.707 127.48 122.722 127.48 122.722 127.465C122.707 127.658 122.781 127.85 122.634 128.027Z" fill="#FCFCFC"/>
<path d="M75.6763 61.8129C74.0938 61.8129 72.4965 61.8277 70.914 61.7981C70.4999 61.7981 70.3816 61.9017 70.3816 62.3158C70.3963 65.3477 70.3964 68.3796 70.3964 71.3968C70.3964 72.2546 70.2041 73.0384 69.5829 73.6892C69.2132 74.0589 68.7843 74.266 68.2518 74.266C65.7819 74.266 63.2972 74.3104 60.8273 74.2512C59.4962 74.2216 58.4609 73.5117 57.7214 72.4025C57.4848 72.0475 57.47 71.6482 57.47 71.2341C57.47 68.2909 57.4552 65.3625 57.4848 62.4193C57.4848 61.9312 57.3517 61.7981 56.8636 61.7981C54.2014 61.8277 51.5392 61.8129 48.8771 61.8129C47.0283 61.8129 45.9043 60.7037 45.9043 58.8549C45.9043 56.6808 45.9043 54.4919 45.9043 52.3178C45.9043 51.0607 46.3924 50.0254 47.2354 49.138C47.6939 48.6647 48.2263 48.4281 48.9066 48.4281C51.554 48.4429 54.1866 48.4133 56.834 48.4576C57.3665 48.4576 57.47 48.295 57.4552 47.8069C57.4404 45.263 57.47 42.7044 57.4256 40.1605C57.4108 39.1844 57.8397 38.5336 58.6088 38.0604C59.3483 37.6019 60.147 37.3652 61.0196 37.3652C63.3416 37.3652 65.6784 37.3652 68.0004 37.3652C69.509 37.3652 70.352 38.1935 70.3668 39.7464C70.3816 42.4382 70.3816 45.1447 70.3668 47.8365C70.3668 48.3393 70.4999 48.4724 71.0027 48.4724C74.0642 48.4429 77.1405 48.4724 80.202 48.4576C80.8824 48.4576 81.4148 48.6943 81.8881 49.1528C82.8199 50.0697 83.3375 51.1642 83.3227 52.5101C83.2931 54.6546 83.3079 56.7991 83.3079 58.9437C83.3079 60.6297 82.1247 61.8277 80.4239 61.8425C78.8562 61.8277 77.2736 61.8129 75.6763 61.8129Z" fill="#FEFEFE"/>
<path d="M70.4121 131.532C70.4121 129.728 70.4121 127.909 70.4121 126.104C70.4121 124.448 71.5805 123.279 73.2222 123.265C76.8753 123.265 80.5284 123.265 84.1963 123.265C85.8232 123.265 87.0064 124.418 87.0212 126.045C87.0359 129.713 87.0359 133.396 87.0212 137.064C87.0212 138.72 85.8232 139.874 84.1667 139.874C80.5284 139.874 76.8901 139.874 73.2518 139.874C71.5657 139.874 70.4121 138.705 70.4121 137.004C70.4121 135.185 70.4121 133.351 70.4121 131.532Z" fill="#FEFEFE"/>
<path d="M50.0462 110.753C48.2123 110.753 46.3931 110.753 44.5592 110.753C42.9471 110.753 41.7935 109.629 41.7787 108.017C41.7639 104.319 41.7639 100.636 41.7787 96.9389C41.7787 95.3268 42.9175 94.1732 44.5887 94.1584C48.2419 94.1288 51.8949 94.1288 55.548 94.1584C57.2489 94.1732 58.3581 95.3564 58.3729 97.0572C58.3729 100.636 58.3729 104.216 58.3729 107.795C58.3729 109.643 57.2637 110.738 55.4002 110.738C53.6254 110.753 51.8358 110.753 50.0462 110.753Z" fill="#FEFEFE"/>
<path d="M41.7773 131.532C41.7773 129.743 41.7773 127.953 41.7773 126.163C41.7773 124.403 42.9162 123.265 44.6909 123.265C48.2849 123.265 51.8936 123.265 55.4876 123.265C57.2032 123.265 58.3716 124.418 58.3716 126.149C58.3716 129.772 58.3716 133.381 58.3716 137.004C58.3716 138.72 57.1884 139.874 55.4728 139.874C51.8493 139.874 48.2405 139.874 44.617 139.874C42.9457 139.874 41.7921 138.72 41.7773 137.064C41.7773 135.23 41.7773 133.381 41.7773 131.532Z" fill="#FEFEFE"/>
<path d="M78.6797 110.753C76.8457 110.753 75.0266 110.753 73.1926 110.753C71.5657 110.753 70.4121 109.584 70.4121 107.958C70.4121 104.319 70.4121 100.681 70.4121 97.0426C70.4121 95.3418 71.5214 94.1586 73.237 94.1438C76.8901 94.1142 80.5432 94.1142 84.1963 94.1438C85.8971 94.1586 87.0212 95.3418 87.0212 97.0426C87.0359 100.637 87.0359 104.245 87.0212 107.839C87.0212 109.614 85.8823 110.738 84.1075 110.738C82.3032 110.753 80.4988 110.753 78.6797 110.753Z" fill="#FEFEFE"/>
</g>
<defs>
<clipPath id="clip0_5191_39734">
<rect width="192" height="192" fill="white"/>
</clipPath>
</defs>
</svg>
