<svg width="192" height="192" viewBox="0 0 192 192" fill="none" xmlns="http://www.w3.org/2000/svg">
<g clip-path="url(#clip0_5193_39848)">
<path d="M96 192C149.019 192 192 149.019 192 96C192 42.9807 149.019 0 96 0C42.9807 0 0 42.9807 0 96C0 149.019 42.9807 192 96 192Z" fill="white"/>
<path d="M89.6183 161.391C73.4973 161.391 57.3763 161.391 41.2406 161.391C41.0927 161.391 40.9448 161.406 40.7969 161.406C40.5307 161.376 40.2644 161.494 40.013 161.317C36.5522 160.829 34.1562 158.936 32.7512 155.756C32.3371 154.824 32.1596 153.863 32.1004 152.872C31.9525 152.694 32.0117 152.487 32.0117 152.28C32.0117 114.758 32.0117 77.2512 32.0117 39.7292C32.0117 39.5369 31.9525 39.3151 32.1004 39.1376C32.1892 37.2297 32.8399 35.5289 34.0231 34.0351C35.3838 32.3195 37.1438 31.225 39.3031 30.8109C39.5397 30.7665 39.7764 30.7222 39.9982 30.6778C40.2053 30.5151 40.4567 30.6187 40.6786 30.6039C44.9824 30.6039 49.2863 30.6039 53.5901 30.6039C65.4812 30.6039 77.3723 30.6039 89.2633 30.6039C89.5 30.6039 89.7366 30.6039 89.988 30.5891C90.2099 30.6186 90.4465 30.5151 90.6536 30.663C92.8869 31.0032 94.8243 31.9497 96.3329 33.6506C97.5605 35.0408 98.3147 36.6529 98.5514 38.5312C98.6697 39.4334 98.6401 40.3356 98.6401 41.2378C98.6401 78.1829 98.6549 115.128 98.6401 152.073C98.6401 156.052 96.7322 158.906 93.1383 160.637C92.3544 161.006 91.5114 161.184 90.6536 161.317C90.4465 161.465 90.2099 161.376 89.988 161.391C89.8845 161.406 89.7514 161.391 89.6183 161.391Z" fill="#4DA6A6"/>
<path d="M106.51 80.4753C106.377 79.8837 106.362 79.3068 106.51 78.7153C106.806 77.1475 107.723 76.201 109.305 75.92C109.483 75.7573 109.69 75.8312 109.882 75.8312C126.077 75.8312 142.272 75.8312 158.467 75.8312C158.659 75.8312 158.881 75.7721 159.058 75.92C160.818 76.3341 161.883 77.5468 161.927 79.1737C161.987 81.5401 161.232 82.6642 159.162 83.2853C158.984 83.4332 158.777 83.3741 158.57 83.3741C142.301 83.3741 126.032 83.3741 109.749 83.3741C109.556 83.3741 109.335 83.448 109.172 83.2853C108.063 83.2262 106.613 81.8951 106.51 80.4753Z" fill="#4DA6A6"/>
<path d="M161.97 154.41C161.97 156.274 161.201 157.634 159.782 158.714C158.436 159.749 156.868 160.267 155.197 160.444C155.034 160.592 154.842 160.533 154.664 160.533C151.706 160.533 148.748 160.533 145.805 160.533C145.45 160.533 145.213 160.533 145.228 160.06C145.243 150.387 145.243 140.7 145.243 131.027C145.066 128.853 143.808 127.019 141.93 126.472C141.516 126.354 141.087 126.28 140.643 126.28C136.443 126.28 132.258 126.28 128.072 126.28C125.957 126.28 124.803 127.345 124.079 129.06C123.886 129.504 123.679 129.977 123.739 130.495C123.724 130.687 123.798 130.879 123.65 131.057C123.635 131.294 123.62 131.53 123.62 131.782C123.62 141.336 123.62 150.89 123.62 160.444C123.502 160.607 123.324 160.563 123.162 160.563C119.982 160.563 116.802 160.563 113.622 160.563C113.474 160.563 113.326 160.592 113.208 160.474C111.123 160.356 109.318 159.587 107.854 158.122C107.159 157.427 106.612 156.599 106.538 155.579C106.39 155.401 106.449 155.194 106.449 154.987C106.449 134.725 106.449 114.463 106.449 94.2005C106.449 94.0082 106.39 93.7864 106.538 93.6089C106.908 91.5531 108.357 90.4587 110.087 89.6452C110.931 89.2459 111.847 89.0684 112.764 88.9353C113.001 88.7578 113.282 88.8761 113.548 88.8466C113.696 88.8466 113.844 88.8614 113.992 88.8614H154.442C154.59 88.8614 154.738 88.8466 154.886 88.8466C155.152 88.8761 155.418 88.7578 155.67 88.9353C157.09 89.1867 158.465 89.5861 159.663 90.4291C161.187 91.5087 162 92.8842 162 94.8513C161.941 114.67 161.941 134.547 161.97 154.41Z" fill="#4DA6A6"/>
<path d="M89.6183 161.391C73.4973 161.391 57.3763 161.391 41.2406 161.391C41.0927 161.391 40.9448 161.406 40.7969 161.406C40.5307 161.376 40.2644 161.494 40.013 161.317C36.5522 160.829 34.1562 158.936 32.7512 155.756C32.3371 154.824 32.1596 153.863 32.1004 152.872C31.9525 152.694 32.0117 152.487 32.0117 152.28C32.0117 114.758 32.0117 77.2512 32.0117 39.7292C32.0117 39.5369 31.9525 39.3151 32.1004 39.1376C32.1892 37.2297 32.8399 35.5289 34.0231 34.0351C35.3838 32.3195 37.1438 31.225 39.3031 30.8109C39.5397 30.7665 39.7764 30.7222 39.9982 30.6778C40.2053 30.5151 40.4567 30.6187 40.6786 30.6039C44.9824 30.6039 49.2863 30.6039 53.5901 30.6039C65.4812 30.6039 77.3723 30.6039 89.2633 30.6039C89.5 30.6039 89.7366 30.6039 89.988 30.5891C90.2099 30.6186 90.4465 30.5151 90.6536 30.663C92.8869 31.0032 94.8243 31.9497 96.3329 33.6506C97.5605 35.0408 98.3147 36.6529 98.5514 38.5312C98.6697 39.4334 98.6401 40.3356 98.6401 41.2378C98.6401 78.1829 98.6549 115.128 98.6401 152.073C98.6401 156.052 96.7322 158.906 93.1383 160.637C92.3544 161.006 91.5114 161.184 90.6536 161.317C90.4465 161.465 90.2099 161.376 89.988 161.391C89.8845 161.406 89.7514 161.391 89.6183 161.391Z" fill="#FEFEFE"/>
<path d="M106.51 80.4753C106.377 79.8837 106.362 79.3068 106.51 78.7153C106.806 77.1475 107.723 76.201 109.305 75.92C109.483 75.7573 109.69 75.8312 109.882 75.8312C126.077 75.8312 142.272 75.8312 158.467 75.8312C158.659 75.8312 158.881 75.7721 159.058 75.92C160.818 76.3341 161.883 77.5468 161.927 79.1737C161.987 81.5401 161.232 82.6642 159.162 83.2853C158.984 83.4332 158.777 83.3741 158.57 83.3741C142.301 83.3741 126.032 83.3741 109.749 83.3741C109.556 83.3741 109.335 83.448 109.172 83.2853C108.063 83.2262 106.613 81.8951 106.51 80.4753Z" fill="#FEFEFE"/>
<path d="M161.97 154.41C161.97 156.274 161.201 157.634 159.782 158.714C158.436 159.749 156.868 160.267 155.197 160.444C155.034 160.592 154.842 160.533 154.664 160.533C151.706 160.533 148.748 160.533 145.805 160.533C145.45 160.533 145.213 160.533 145.228 160.06C145.243 150.387 145.243 140.7 145.243 131.027C145.066 128.853 143.808 127.019 141.93 126.472C141.516 126.354 141.087 126.28 140.643 126.28C136.443 126.28 132.258 126.28 128.072 126.28C125.957 126.28 124.803 127.345 124.079 129.06C123.886 129.504 123.679 129.977 123.739 130.495C123.724 130.687 123.798 130.879 123.65 131.057C123.635 131.294 123.62 131.53 123.62 131.782C123.62 141.336 123.62 150.89 123.62 160.444C123.502 160.607 123.324 160.563 123.162 160.563C119.982 160.563 116.802 160.563 113.622 160.563C113.474 160.563 113.326 160.592 113.208 160.474C111.123 160.356 109.318 159.587 107.854 158.122C107.159 157.427 106.612 156.599 106.538 155.579C106.39 155.401 106.449 155.194 106.449 154.987C106.449 134.725 106.449 114.463 106.449 94.2005C106.449 94.0082 106.39 93.7864 106.538 93.6089C106.908 91.5531 108.357 90.4587 110.087 89.6452C110.931 89.2459 111.847 89.0684 112.764 88.9353C113.001 88.7578 113.282 88.8761 113.548 88.8466C113.696 88.8466 113.844 88.8614 113.992 88.8614H154.442C154.59 88.8614 154.738 88.8466 154.886 88.8466C155.152 88.8761 155.418 88.7578 155.67 88.9353C157.09 89.1867 158.465 89.5861 159.663 90.4291C161.187 91.5087 162 92.8842 162 94.8513C161.941 114.67 161.941 134.547 161.97 154.41Z" fill="#FEFEFE"/>
<path d="M98.654 152.088C98.654 156.066 96.7461 158.921 93.1521 160.651C92.3683 161.021 91.5252 161.198 90.6674 161.331C90.4604 161.405 90.2533 161.302 90.0462 161.391C90.0315 161.391 90.0167 161.405 90.0019 161.405C89.8688 161.405 89.7505 161.391 89.6173 161.391C73.4964 161.391 57.3754 161.391 41.2396 161.391C41.0917 161.391 40.9438 161.405 40.7959 161.405C40.7811 161.391 40.7516 161.391 40.722 161.376C40.4853 161.302 40.2487 161.405 40.0121 161.317C36.5512 160.829 34.1553 158.935 32.7502 155.756C32.3361 154.824 32.1586 153.863 32.0995 152.872C32.0551 152.665 32.0699 152.472 32.0699 152.265C32.0699 114.758 32.0699 77.2657 32.0699 39.7586C32.0699 39.5515 32.0403 39.3445 32.0995 39.1522C32.1882 37.2443 32.839 35.5435 34.0222 34.0497C35.3828 32.3341 37.1428 31.2396 39.3022 30.8255C39.5388 30.7811 39.7754 30.7368 39.9973 30.6924C40.1895 30.6184 40.4114 30.6924 40.6185 30.6332C40.648 30.6332 40.6628 30.6184 40.6924 30.6037C44.9963 30.6037 49.3001 30.6037 53.604 30.6037C65.495 30.6037 77.3861 30.6037 89.2772 30.6037C89.5138 30.6037 89.7504 30.6037 90.0019 30.5889C90.0167 30.6037 90.0462 30.6184 90.061 30.6184C90.2533 30.6924 90.4752 30.6037 90.6674 30.6628C92.9007 31.003 94.8382 31.9495 96.3467 33.6504C97.5743 35.0406 98.3286 36.6527 98.5652 38.531C98.6835 39.4332 98.654 40.3354 98.654 41.2376C98.6687 78.1975 98.6687 115.143 98.654 152.088Z" fill="#4CA6A6"/>
<path d="M161.971 154.41C161.971 156.274 161.202 157.634 159.783 158.714C158.437 159.749 156.869 160.267 155.198 160.444C154.103 160.518 153.024 160.474 151.929 160.474C149.932 160.489 147.936 160.474 145.939 160.474C145.214 160.474 145.274 160.548 145.274 159.838C145.274 150.446 145.274 141.07 145.274 131.678C145.274 131.456 145.318 131.234 145.229 131.027C145.052 128.853 143.795 127.019 141.916 126.472C141.502 126.354 141.073 126.28 140.63 126.28C136.429 126.28 132.244 126.28 128.058 126.28C125.943 126.28 124.79 127.345 124.065 129.06C123.873 129.504 123.666 129.977 123.725 130.495C123.725 130.51 123.71 130.51 123.71 130.524C123.621 130.687 123.71 130.879 123.636 131.057C123.621 131.294 123.606 131.53 123.606 131.782C123.606 141.336 123.606 150.89 123.606 160.444C123.488 160.533 123.355 160.504 123.237 160.504C119.983 160.504 116.729 160.504 113.475 160.504C113.387 160.504 113.298 160.504 113.209 160.474C111.124 160.356 109.319 159.587 107.855 158.122C107.16 157.427 106.613 156.599 106.539 155.578C106.48 155.371 106.509 155.179 106.509 154.972C106.509 134.725 106.509 114.477 106.509 94.2301C106.509 94.023 106.48 93.8307 106.539 93.6237C106.909 91.5679 108.358 90.4734 110.089 89.66C110.932 89.2607 111.849 89.0832 112.765 88.9501C112.987 88.8613 113.239 88.9649 113.475 88.8909H113.49C113.505 88.8909 113.52 88.8761 113.549 88.8613C113.697 88.8613 113.845 88.8761 113.993 88.8761H154.443C154.591 88.8761 154.739 88.8613 154.887 88.8613C154.902 88.8761 154.931 88.8761 154.961 88.8909C155.198 88.9649 155.449 88.8613 155.671 88.9501C157.091 89.2015 158.466 89.6008 159.664 90.4438C161.188 91.5235 162.001 92.899 162.001 94.866C161.942 114.67 161.942 134.547 161.971 154.41Z" fill="#4DA6A6"/>
<path d="M159.189 83.2708C158.982 83.33 158.79 83.3004 158.583 83.3004C142.329 83.3004 126.075 83.3004 109.806 83.3004C109.599 83.3004 109.392 83.33 109.2 83.2708C108.046 83.2265 106.611 81.8954 106.508 80.4756C106.464 79.884 106.464 79.3072 106.508 78.7156C106.804 77.1478 107.721 76.2013 109.303 75.9203C109.481 75.8611 109.673 75.8907 109.85 75.8907C126.075 75.8907 142.285 75.8907 158.509 75.8907C158.687 75.8907 158.879 75.8611 159.056 75.9203C160.816 76.3344 161.881 77.5472 161.926 79.174C162.014 81.5256 161.26 82.6497 159.189 83.2708Z" fill="#4DA6A6"/>
<path d="M32.1445 39.6999C32.1445 77.2366 32.1445 114.773 32.1445 152.31C32.1445 152.488 32.1445 152.68 32.1297 152.857C31.9818 152.68 32.041 152.473 32.041 152.266C32.041 114.744 32.041 77.2366 32.041 39.7146C32.041 39.5224 31.9818 39.3005 32.1297 39.123C32.1297 39.3301 32.1445 39.5076 32.1445 39.6999Z" fill="#FCFCFC"/>
<path d="M106.508 154.854C106.508 155.076 106.508 155.298 106.522 155.519C106.374 155.342 106.434 155.135 106.434 154.928C106.434 134.666 106.434 114.404 106.434 94.1414C106.434 93.9491 106.374 93.7273 106.522 93.5498C106.508 114.004 106.508 134.429 106.508 154.854Z" fill="#FCFCFC"/>
<path d="M159.189 83.2705C159.012 83.4184 158.805 83.3593 158.597 83.3593C142.329 83.3593 126.06 83.3593 109.776 83.3593C109.584 83.3593 109.362 83.4332 109.199 83.2705C109.702 83.2705 110.19 83.2853 110.693 83.2853C126.119 83.2853 141.545 83.2853 156.971 83.2853C157.71 83.2853 158.45 83.2853 159.189 83.2705Z" fill="#FCFCFC"/>
<path d="M159.086 75.9053C148.896 75.9053 138.691 75.8905 128.501 75.8905C124.034 75.8905 119.553 75.8905 115.086 75.8905C113.164 75.8905 111.241 75.9053 109.318 75.9053C109.496 75.7426 109.703 75.8166 109.895 75.8166C126.09 75.8166 142.285 75.8166 158.48 75.8166C158.687 75.8314 158.894 75.7574 159.086 75.9053Z" fill="#FCFCFC"/>
<path d="M155.198 160.429C155.035 160.577 154.843 160.518 154.665 160.518C151.707 160.518 148.749 160.518 145.806 160.518C145.451 160.518 145.214 160.518 145.229 160.045C145.244 150.372 145.244 140.685 145.244 131.012C145.362 131.234 145.303 131.485 145.303 131.722C145.303 141.025 145.303 150.343 145.303 159.645C145.303 160.533 145.2 160.429 146.057 160.429C149.104 160.429 152.151 160.429 155.198 160.429Z" fill="#FCFCFC"/>
<path d="M123.605 160.4C123.487 160.563 123.31 160.518 123.147 160.518C119.967 160.518 116.787 160.518 113.607 160.518C113.46 160.518 113.312 160.548 113.193 160.429C116.447 160.429 119.701 160.429 122.94 160.415C123.177 160.415 123.384 160.415 123.605 160.4Z" fill="#FCFCFC"/>
<path d="M106.523 78.7153C106.523 79.3069 106.523 79.8837 106.523 80.4753C106.375 79.8837 106.375 79.3069 106.523 78.7153Z" fill="#FCFCFC"/>
<path d="M40.8112 161.405C40.545 161.376 40.2788 161.494 40.0273 161.317C40.264 161.317 40.5006 161.287 40.7373 161.376C40.7668 161.376 40.7816 161.391 40.8112 161.405Z" fill="#FCFCFC"/>
<path d="M155.639 88.8909C155.403 88.8761 155.166 88.9205 154.929 88.8317C154.9 88.8169 154.885 88.8169 154.855 88.8021C155.122 88.8317 155.403 88.7134 155.639 88.8909Z" fill="#FCFCFC"/>
<path d="M113.534 88.8021C113.519 88.8169 113.504 88.8169 113.475 88.8317H113.46C113.238 88.9205 112.987 88.8761 112.75 88.8909C113.001 88.7134 113.268 88.8317 113.534 88.8021Z" fill="#FCFCFC"/>
<path d="M40.7068 30.6037C40.6921 30.6185 40.6625 30.6185 40.6329 30.6333C40.4406 30.7072 40.2188 30.6924 40.0117 30.6924C40.2336 30.5149 40.485 30.6185 40.7068 30.6037Z" fill="#FCFCFC"/>
<path d="M90.6831 161.331C90.4761 161.479 90.2394 161.391 90.0176 161.405C90.0324 161.405 90.0472 161.391 90.062 161.391C90.2542 161.287 90.4761 161.317 90.6831 161.331Z" fill="#FCFCFC"/>
<path d="M90.6831 30.6779C90.4761 30.6779 90.269 30.7074 90.0767 30.6335C90.062 30.6335 90.0324 30.6187 90.0176 30.6039C90.2394 30.6187 90.4761 30.53 90.6831 30.6779Z" fill="#FCFCFC"/>
<path d="M123.634 131.027C123.619 130.85 123.604 130.658 123.707 130.495C123.707 130.48 123.722 130.48 123.722 130.465C123.707 130.658 123.781 130.85 123.634 131.027Z" fill="#FCFCFC"/>
<path d="M76.6763 64.8129C75.0938 64.8129 73.4965 64.8277 71.914 64.7981C71.4999 64.7981 71.3816 64.9017 71.3816 65.3158C71.3963 68.3477 71.3964 71.3796 71.3964 74.3968C71.3964 75.2546 71.2041 76.0384 70.5829 76.6892C70.2132 77.0589 69.7843 77.266 69.2518 77.266C66.7819 77.266 64.2972 77.3104 61.8273 77.2512C60.4962 77.2216 59.4609 76.5117 58.7214 75.4025C58.4848 75.0475 58.47 74.6482 58.47 74.2341C58.47 71.2909 58.4552 68.3625 58.4848 65.4193C58.4848 64.9312 58.3517 64.7981 57.8636 64.7981C55.2014 64.8277 52.5392 64.8129 49.8771 64.8129C48.0283 64.8129 46.9043 63.7037 46.9043 61.8549C46.9043 59.6808 46.9043 57.4919 46.9043 55.3178C46.9043 54.0607 47.3924 53.0254 48.2354 52.138C48.6939 51.6647 49.2263 51.4281 49.9066 51.4281C52.554 51.4429 55.1866 51.4133 57.834 51.4576C58.3665 51.4576 58.47 51.295 58.4552 50.8069C58.4404 48.263 58.47 45.7044 58.4256 43.1605C58.4108 42.1844 58.8397 41.5336 59.6088 41.0604C60.3483 40.6019 61.147 40.3652 62.0196 40.3652C64.3416 40.3652 66.6784 40.3652 69.0004 40.3652C70.509 40.3652 71.352 41.1935 71.3668 42.7464C71.3816 45.4382 71.3816 48.1447 71.3668 50.8365C71.3668 51.3393 71.4999 51.4724 72.0027 51.4724C75.0642 51.4429 78.1405 51.4724 81.202 51.4576C81.8824 51.4576 82.4148 51.6943 82.8881 52.1528C83.8199 53.0697 84.3375 54.1642 84.3227 55.5101C84.2931 57.6546 84.3079 59.7991 84.3079 61.9437C84.3079 63.6297 83.1247 64.8277 81.4239 64.8425C79.8562 64.8277 78.2736 64.8129 76.6763 64.8129Z" fill="#FEFEFE"/>
<path d="M71.4121 134.532C71.4121 132.728 71.4121 130.909 71.4121 129.104C71.4121 127.448 72.5805 126.279 74.2222 126.265C77.8753 126.265 81.5284 126.265 85.1963 126.265C86.8232 126.265 88.0064 127.418 88.0212 129.045C88.0359 132.713 88.0359 136.396 88.0212 140.064C88.0212 141.72 86.8232 142.874 85.1667 142.874C81.5284 142.874 77.8901 142.874 74.2518 142.874C72.5657 142.874 71.4121 141.705 71.4121 140.004C71.4121 138.185 71.4121 136.351 71.4121 134.532Z" fill="#FEFEFE"/>
<path d="M51.0462 113.753C49.2123 113.753 47.3931 113.753 45.5592 113.753C43.9471 113.753 42.7935 112.629 42.7787 111.017C42.7639 107.319 42.7639 103.636 42.7787 99.9389C42.7787 98.3268 43.9175 97.1732 45.5887 97.1584C49.2419 97.1288 52.8949 97.1288 56.548 97.1584C58.2489 97.1732 59.3581 98.3564 59.3729 100.057C59.3729 103.636 59.3729 107.216 59.3729 110.795C59.3729 112.643 58.2637 113.738 56.4002 113.738C54.6254 113.753 52.8358 113.753 51.0462 113.753Z" fill="#FEFEFE"/>
<path d="M42.7773 134.532C42.7773 132.743 42.7773 130.953 42.7773 129.163C42.7773 127.403 43.9162 126.265 45.6909 126.265C49.2849 126.265 52.8936 126.265 56.4876 126.265C58.2032 126.265 59.3716 127.418 59.3716 129.149C59.3716 132.772 59.3716 136.381 59.3716 140.004C59.3716 141.72 58.1884 142.874 56.4728 142.874C52.8493 142.874 49.2405 142.874 45.617 142.874C43.9457 142.874 42.7921 141.72 42.7773 140.064C42.7773 138.23 42.7773 136.381 42.7773 134.532Z" fill="#FEFEFE"/>
<path d="M79.6797 113.753C77.8457 113.753 76.0266 113.753 74.1926 113.753C72.5657 113.753 71.4121 112.584 71.4121 110.958C71.4121 107.319 71.4121 103.681 71.4121 100.043C71.4121 98.3418 72.5214 97.1586 74.237 97.1438C77.8901 97.1142 81.5432 97.1142 85.1963 97.1438C86.8971 97.1586 88.0212 98.3418 88.0212 100.043C88.0359 103.637 88.0359 107.245 88.0212 110.839C88.0212 112.614 86.8823 113.738 85.1075 113.738C83.3032 113.753 81.4988 113.753 79.6797 113.753Z" fill="#FEFEFE"/>
</g>
<defs>
<clipPath id="clip0_5193_39848">
<rect width="192" height="192" fill="white"/>
</clipPath>
</defs>
</svg>
