<svg width="192" height="192" viewBox="0 0 192 192" fill="none" xmlns="http://www.w3.org/2000/svg">
<g clip-path="url(#clip0_4929_34481)">
<path d="M96 192C149.019 192 192 149.019 192 96C192 42.9807 149.019 0 96 0C42.9807 0 0 42.9807 0 96C0 149.019 42.9807 192 96 192Z" fill="white"/>
<path d="M150.051 74.4903H116.961V41.0303C116.961 36.2503 113.281 32.5703 108.501 32.5703H83.1306C78.3506 32.5703 74.6706 36.2503 74.6706 41.0303V74.8603H41.5806C36.4306 74.8603 32.3906 78.9003 32.3906 84.0503V108.32C32.3906 113.47 36.4306 117.51 41.5806 117.51H57.7606L75.0406 104.64L89.0106 94.3403C93.4206 91.0303 98.9406 91.0303 103.351 94.3403L136.081 117.87H150.421C155.571 117.87 159.611 113.83 159.611 108.68V84.4103C159.241 78.8903 155.201 74.4803 150.051 74.4803V74.4903Z" fill="#289EFF"/>
<path d="M95.6308 103.54L74.3008 119.35V150.61C74.3008 155.39 78.3408 159.44 83.1308 159.44H108.131C112.911 159.44 116.961 155.4 116.961 150.61V118.62L95.6308 103.54Z" fill="#289EFF"/>
</g>
<defs>
<clipPath id="clip0_4929_34481">
<rect width="192" height="192" fill="white"/>
</clipPath>
</defs>
</svg>
