<svg width="192" height="192" viewBox="0 0 192 192" fill="none" xmlns="http://www.w3.org/2000/svg">
<g clip-path="url(#clip0_5191_39741)">
<path d="M96 192C149.019 192 192 149.019 192 96C192 42.9807 149.019 0 96 0C42.9807 0 0 42.9807 0 96C0 149.019 42.9807 192 96 192Z" fill="white"/>
<path d="M88.6183 160.391C72.4973 160.391 56.3763 160.391 40.2406 160.391C40.0927 160.391 39.9448 160.406 39.7969 160.406C39.5307 160.376 39.2644 160.494 39.013 160.317C35.5522 159.829 33.1562 157.936 31.7512 154.756C31.3371 153.824 31.1596 152.863 31.1004 151.872C30.9525 151.694 31.0117 151.487 31.0117 151.28C31.0117 113.758 31.0117 76.2512 31.0117 38.7292C31.0117 38.5369 30.9525 38.3151 31.1004 38.1376C31.1892 36.2297 31.8399 34.5289 33.0231 33.0351C34.3838 31.3195 36.1438 30.225 38.3031 29.8109C38.5397 29.7665 38.7764 29.7222 38.9982 29.6778C39.2053 29.5151 39.4567 29.6187 39.6786 29.6039C43.9824 29.6039 48.2863 29.6039 52.5901 29.6039C64.4812 29.6039 76.3723 29.6039 88.2633 29.6039C88.5 29.6039 88.7366 29.6039 88.988 29.5891C89.2099 29.6186 89.4465 29.5151 89.6536 29.663C91.8869 30.0032 93.8243 30.9497 95.3329 32.6506C96.5605 34.0408 97.3147 35.6529 97.5514 37.5312C97.6697 38.4334 97.6401 39.3356 97.6401 40.2378C97.6401 77.1829 97.6549 114.128 97.6401 151.073C97.6401 155.052 95.7322 157.906 92.1383 159.637C91.3544 160.006 90.5114 160.184 89.6536 160.317C89.4465 160.465 89.2099 160.376 88.988 160.391C88.8845 160.406 88.7514 160.391 88.6183 160.391Z" fill="#4DA6A6"/>
<path d="M105.51 79.4753C105.377 78.8837 105.362 78.3068 105.51 77.7153C105.806 76.1475 106.723 75.201 108.305 74.92C108.483 74.7573 108.69 74.8312 108.882 74.8312C125.077 74.8312 141.272 74.8312 157.467 74.8312C157.659 74.8312 157.881 74.7721 158.058 74.92C159.818 75.3341 160.883 76.5468 160.927 78.1737C160.987 80.5401 160.232 81.6642 158.162 82.2853C157.984 82.4332 157.777 82.3741 157.57 82.3741C141.301 82.3741 125.032 82.3741 108.749 82.3741C108.556 82.3741 108.335 82.448 108.172 82.2853C107.063 82.2262 105.613 80.8951 105.51 79.4753Z" fill="#4DA6A6"/>
<path d="M160.97 153.41C160.97 155.274 160.201 156.634 158.782 157.714C157.436 158.749 155.868 159.267 154.197 159.444C154.034 159.592 153.842 159.533 153.664 159.533C150.706 159.533 147.748 159.533 144.805 159.533C144.45 159.533 144.213 159.533 144.228 159.06C144.243 149.387 144.243 139.7 144.243 130.027C144.066 127.853 142.808 126.019 140.93 125.472C140.516 125.354 140.087 125.28 139.643 125.28C135.443 125.28 131.258 125.28 127.072 125.28C124.957 125.28 123.803 126.345 123.079 128.06C122.886 128.504 122.679 128.977 122.739 129.495C122.724 129.687 122.798 129.879 122.65 130.057C122.635 130.294 122.62 130.53 122.62 130.782C122.62 140.336 122.62 149.89 122.62 159.444C122.502 159.607 122.324 159.563 122.162 159.563C118.982 159.563 115.802 159.563 112.622 159.563C112.474 159.563 112.326 159.592 112.208 159.474C110.123 159.356 108.318 158.587 106.854 157.122C106.159 156.427 105.612 155.599 105.538 154.579C105.39 154.401 105.449 154.194 105.449 153.987C105.449 133.725 105.449 113.463 105.449 93.2005C105.449 93.0082 105.39 92.7864 105.538 92.6089C105.908 90.5531 107.357 89.4587 109.087 88.6452C109.931 88.2459 110.847 88.0684 111.764 87.9353C112.001 87.7578 112.282 87.8761 112.548 87.8466C112.696 87.8466 112.844 87.8614 112.992 87.8614H153.442C153.59 87.8614 153.738 87.8466 153.886 87.8466C154.152 87.8761 154.418 87.7578 154.67 87.9353C156.09 88.1867 157.465 88.5861 158.663 89.4291C160.187 90.5087 161 91.8842 161 93.8513C160.941 113.67 160.941 133.547 160.97 153.41Z" fill="#4DA6A6"/>
<path d="M88.6183 160.391C72.4973 160.391 56.3763 160.391 40.2406 160.391C40.0927 160.391 39.9448 160.406 39.7969 160.406C39.5307 160.376 39.2644 160.494 39.013 160.317C35.5522 159.829 33.1562 157.936 31.7512 154.756C31.3371 153.824 31.1596 152.863 31.1004 151.872C30.9525 151.694 31.0117 151.487 31.0117 151.28C31.0117 113.758 31.0117 76.2512 31.0117 38.7292C31.0117 38.5369 30.9525 38.3151 31.1004 38.1376C31.1892 36.2297 31.8399 34.5289 33.0231 33.0351C34.3838 31.3195 36.1438 30.225 38.3031 29.8109C38.5397 29.7665 38.7764 29.7222 38.9982 29.6778C39.2053 29.5151 39.4567 29.6187 39.6786 29.6039C43.9824 29.6039 48.2863 29.6039 52.5901 29.6039C64.4812 29.6039 76.3723 29.6039 88.2633 29.6039C88.5 29.6039 88.7366 29.6039 88.988 29.5891C89.2099 29.6186 89.4465 29.5151 89.6536 29.663C91.8869 30.0032 93.8243 30.9497 95.3329 32.6506C96.5605 34.0408 97.3147 35.6529 97.5514 37.5312C97.6697 38.4334 97.6401 39.3356 97.6401 40.2378C97.6401 77.1829 97.6549 114.128 97.6401 151.073C97.6401 155.052 95.7322 157.906 92.1383 159.637C91.3544 160.006 90.5114 160.184 89.6536 160.317C89.4465 160.465 89.2099 160.376 88.988 160.391C88.8845 160.406 88.7514 160.391 88.6183 160.391Z" fill="#FEFEFE"/>
<path d="M105.51 79.4753C105.377 78.8837 105.362 78.3068 105.51 77.7153C105.806 76.1475 106.723 75.201 108.305 74.92C108.483 74.7573 108.69 74.8312 108.882 74.8312C125.077 74.8312 141.272 74.8312 157.467 74.8312C157.659 74.8312 157.881 74.7721 158.058 74.92C159.818 75.3341 160.883 76.5468 160.927 78.1737C160.987 80.5401 160.232 81.6642 158.162 82.2853C157.984 82.4332 157.777 82.3741 157.57 82.3741C141.301 82.3741 125.032 82.3741 108.749 82.3741C108.556 82.3741 108.335 82.448 108.172 82.2853C107.063 82.2262 105.613 80.8951 105.51 79.4753Z" fill="#FEFEFE"/>
<path d="M160.97 153.41C160.97 155.274 160.201 156.634 158.782 157.714C157.436 158.749 155.868 159.267 154.197 159.444C154.034 159.592 153.842 159.533 153.664 159.533C150.706 159.533 147.748 159.533 144.805 159.533C144.45 159.533 144.213 159.533 144.228 159.06C144.243 149.387 144.243 139.7 144.243 130.027C144.066 127.853 142.808 126.019 140.93 125.472C140.516 125.354 140.087 125.28 139.643 125.28C135.443 125.28 131.258 125.28 127.072 125.28C124.957 125.28 123.803 126.345 123.079 128.06C122.886 128.504 122.679 128.977 122.739 129.495C122.724 129.687 122.798 129.879 122.65 130.057C122.635 130.294 122.62 130.53 122.62 130.782C122.62 140.336 122.62 149.89 122.62 159.444C122.502 159.607 122.324 159.563 122.162 159.563C118.982 159.563 115.802 159.563 112.622 159.563C112.474 159.563 112.326 159.592 112.208 159.474C110.123 159.356 108.318 158.587 106.854 157.122C106.159 156.427 105.612 155.599 105.538 154.579C105.39 154.401 105.449 154.194 105.449 153.987C105.449 133.725 105.449 113.463 105.449 93.2005C105.449 93.0082 105.39 92.7864 105.538 92.6089C105.908 90.5531 107.357 89.4587 109.087 88.6452C109.931 88.2459 110.847 88.0684 111.764 87.9353C112.001 87.7578 112.282 87.8761 112.548 87.8466C112.696 87.8466 112.844 87.8614 112.992 87.8614H153.442C153.59 87.8614 153.738 87.8466 153.886 87.8466C154.152 87.8761 154.418 87.7578 154.67 87.9353C156.09 88.1867 157.465 88.5861 158.663 89.4291C160.187 90.5087 161 91.8842 161 93.8513C160.941 113.67 160.941 133.547 160.97 153.41Z" fill="#FEFEFE"/>
<path d="M97.654 151.088C97.654 155.066 95.7461 157.921 92.1521 159.651C91.3683 160.021 90.5252 160.198 89.6674 160.331C89.4604 160.405 89.2533 160.302 89.0462 160.391C89.0315 160.391 89.0167 160.405 89.0019 160.405C88.8688 160.405 88.7505 160.391 88.6173 160.391C72.4964 160.391 56.3754 160.391 40.2396 160.391C40.0917 160.391 39.9438 160.405 39.7959 160.405C39.7811 160.391 39.7516 160.391 39.722 160.376C39.4853 160.302 39.2487 160.405 39.0121 160.317C35.5512 159.829 33.1553 157.935 31.7502 154.756C31.3361 153.824 31.1586 152.863 31.0995 151.872C31.0551 151.665 31.0699 151.472 31.0699 151.265C31.0699 113.758 31.0699 76.2657 31.0699 38.7586C31.0699 38.5515 31.0403 38.3445 31.0995 38.1522C31.1882 36.2443 31.839 34.5435 33.0222 33.0497C34.3828 31.3341 36.1428 30.2396 38.3022 29.8255C38.5388 29.7811 38.7754 29.7368 38.9973 29.6924C39.1895 29.6184 39.4114 29.6924 39.6185 29.6332C39.648 29.6332 39.6628 29.6184 39.6924 29.6037C43.9963 29.6037 48.3001 29.6037 52.604 29.6037C64.495 29.6037 76.3861 29.6037 88.2772 29.6037C88.5138 29.6037 88.7504 29.6037 89.0019 29.5889C89.0167 29.6037 89.0462 29.6184 89.061 29.6184C89.2533 29.6924 89.4752 29.6037 89.6674 29.6628C91.9007 30.003 93.8382 30.9495 95.3467 32.6504C96.5743 34.0406 97.3286 35.6527 97.5652 37.531C97.6835 38.4332 97.654 39.3354 97.654 40.2376C97.6687 77.1975 97.6687 114.143 97.654 151.088Z" fill="#4CA6A6"/>
<path d="M160.971 153.41C160.971 155.274 160.202 156.634 158.783 157.714C157.437 158.749 155.869 159.267 154.198 159.444C153.103 159.518 152.024 159.474 150.929 159.474C148.932 159.489 146.936 159.474 144.939 159.474C144.214 159.474 144.274 159.548 144.274 158.838C144.274 149.446 144.274 140.07 144.274 130.678C144.274 130.456 144.318 130.234 144.229 130.027C144.052 127.853 142.795 126.019 140.916 125.472C140.502 125.354 140.073 125.28 139.63 125.28C135.429 125.28 131.244 125.28 127.058 125.28C124.943 125.28 123.79 126.345 123.065 128.06C122.873 128.504 122.666 128.977 122.725 129.495C122.725 129.51 122.71 129.51 122.71 129.524C122.621 129.687 122.71 129.879 122.636 130.057C122.621 130.294 122.606 130.53 122.606 130.782C122.606 140.336 122.606 149.89 122.606 159.444C122.488 159.533 122.355 159.504 122.237 159.504C118.983 159.504 115.729 159.504 112.475 159.504C112.387 159.504 112.298 159.504 112.209 159.474C110.124 159.356 108.319 158.587 106.855 157.122C106.16 156.427 105.613 155.599 105.539 154.578C105.48 154.371 105.509 154.179 105.509 153.972C105.509 133.725 105.509 113.477 105.509 93.2301C105.509 93.023 105.48 92.8307 105.539 92.6237C105.909 90.5679 107.358 89.4734 109.089 88.66C109.932 88.2607 110.849 88.0832 111.765 87.9501C111.987 87.8613 112.239 87.9649 112.475 87.8909H112.49C112.505 87.8909 112.52 87.8761 112.549 87.8613C112.697 87.8613 112.845 87.8761 112.993 87.8761H153.443C153.591 87.8761 153.739 87.8613 153.887 87.8613C153.902 87.8761 153.931 87.8761 153.961 87.8909C154.198 87.9649 154.449 87.8613 154.671 87.9501C156.091 88.2015 157.466 88.6008 158.664 89.4438C160.188 90.5235 161.001 91.899 161.001 93.866C160.942 113.67 160.942 133.547 160.971 153.41Z" fill="#4DA6A6"/>
<path d="M158.189 82.2708C157.982 82.33 157.79 82.3004 157.583 82.3004C141.329 82.3004 125.075 82.3004 108.806 82.3004C108.599 82.3004 108.392 82.33 108.2 82.2708C107.046 82.2265 105.611 80.8954 105.508 79.4756C105.464 78.884 105.464 78.3072 105.508 77.7156C105.804 76.1478 106.721 75.2013 108.303 74.9203C108.481 74.8611 108.673 74.8907 108.85 74.8907C125.075 74.8907 141.285 74.8907 157.509 74.8907C157.687 74.8907 157.879 74.8611 158.056 74.9203C159.816 75.3344 160.881 76.5472 160.926 78.174C161.014 80.5256 160.26 81.6497 158.189 82.2708Z" fill="#4DA6A6"/>
<path d="M31.1445 38.6999C31.1445 76.2366 31.1445 113.773 31.1445 151.31C31.1445 151.488 31.1445 151.68 31.1297 151.857C30.9818 151.68 31.041 151.473 31.041 151.266C31.041 113.744 31.041 76.2366 31.041 38.7146C31.041 38.5224 30.9818 38.3005 31.1297 38.123C31.1297 38.3301 31.1445 38.5076 31.1445 38.6999Z" fill="#FCFCFC"/>
<path d="M105.508 153.854C105.508 154.076 105.508 154.298 105.522 154.519C105.374 154.342 105.434 154.135 105.434 153.928C105.434 133.666 105.434 113.404 105.434 93.1414C105.434 92.9491 105.374 92.7273 105.522 92.5498C105.508 113.004 105.508 133.429 105.508 153.854Z" fill="#FCFCFC"/>
<path d="M158.189 82.2705C158.012 82.4184 157.805 82.3593 157.597 82.3593C141.329 82.3593 125.06 82.3593 108.776 82.3593C108.584 82.3593 108.362 82.4332 108.199 82.2705C108.702 82.2705 109.19 82.2853 109.693 82.2853C125.119 82.2853 140.545 82.2853 155.971 82.2853C156.71 82.2853 157.45 82.2853 158.189 82.2705Z" fill="#FCFCFC"/>
<path d="M158.086 74.9053C147.896 74.9053 137.691 74.8905 127.501 74.8905C123.034 74.8905 118.553 74.8905 114.086 74.8905C112.164 74.8905 110.241 74.9053 108.318 74.9053C108.496 74.7426 108.703 74.8166 108.895 74.8166C125.09 74.8166 141.285 74.8166 157.48 74.8166C157.687 74.8314 157.894 74.7574 158.086 74.9053Z" fill="#FCFCFC"/>
<path d="M154.198 159.429C154.035 159.577 153.843 159.518 153.665 159.518C150.707 159.518 147.749 159.518 144.806 159.518C144.451 159.518 144.214 159.518 144.229 159.045C144.244 149.372 144.244 139.685 144.244 130.012C144.362 130.234 144.303 130.485 144.303 130.722C144.303 140.025 144.303 149.343 144.303 158.645C144.303 159.533 144.2 159.429 145.057 159.429C148.104 159.429 151.151 159.429 154.198 159.429Z" fill="#FCFCFC"/>
<path d="M122.605 159.4C122.487 159.563 122.31 159.518 122.147 159.518C118.967 159.518 115.787 159.518 112.607 159.518C112.46 159.518 112.312 159.548 112.193 159.429C115.447 159.429 118.701 159.429 121.94 159.415C122.177 159.415 122.384 159.415 122.605 159.4Z" fill="#FCFCFC"/>
<path d="M105.523 77.7153C105.523 78.3069 105.523 78.8837 105.523 79.4753C105.375 78.8837 105.375 78.3069 105.523 77.7153Z" fill="#FCFCFC"/>
<path d="M39.8112 160.405C39.545 160.376 39.2788 160.494 39.0273 160.317C39.264 160.317 39.5006 160.287 39.7373 160.376C39.7668 160.376 39.7816 160.391 39.8112 160.405Z" fill="#FCFCFC"/>
<path d="M154.639 87.8909C154.403 87.8761 154.166 87.9205 153.929 87.8317C153.9 87.8169 153.885 87.8169 153.855 87.8021C154.122 87.8317 154.403 87.7134 154.639 87.8909Z" fill="#FCFCFC"/>
<path d="M112.534 87.8021C112.519 87.8169 112.504 87.8169 112.475 87.8317H112.46C112.238 87.9205 111.987 87.8761 111.75 87.8909C112.001 87.7134 112.268 87.8317 112.534 87.8021Z" fill="#FCFCFC"/>
<path d="M39.7068 29.6037C39.6921 29.6185 39.6625 29.6185 39.6329 29.6333C39.4406 29.7072 39.2188 29.6924 39.0117 29.6924C39.2336 29.5149 39.485 29.6185 39.7068 29.6037Z" fill="#FCFCFC"/>
<path d="M89.6831 160.331C89.4761 160.479 89.2394 160.391 89.0176 160.405C89.0324 160.405 89.0472 160.391 89.062 160.391C89.2542 160.287 89.4761 160.317 89.6831 160.331Z" fill="#FCFCFC"/>
<path d="M89.6831 29.6779C89.4761 29.6779 89.269 29.7074 89.0767 29.6335C89.062 29.6335 89.0324 29.6187 89.0176 29.6039C89.2394 29.6187 89.4761 29.53 89.6831 29.6779Z" fill="#FCFCFC"/>
<path d="M122.634 130.027C122.619 129.85 122.604 129.658 122.707 129.495C122.707 129.48 122.722 129.48 122.722 129.465C122.707 129.658 122.781 129.85 122.634 130.027Z" fill="#FCFCFC"/>
<path d="M75.6763 63.8129C74.0938 63.8129 72.4965 63.8277 70.914 63.7981C70.4999 63.7981 70.3816 63.9017 70.3816 64.3158C70.3963 67.3477 70.3964 70.3796 70.3964 73.3968C70.3964 74.2546 70.2041 75.0384 69.5829 75.6892C69.2132 76.0589 68.7843 76.266 68.2518 76.266C65.7819 76.266 63.2972 76.3104 60.8273 76.2512C59.4962 76.2216 58.4609 75.5117 57.7214 74.4025C57.4848 74.0475 57.47 73.6482 57.47 73.2341C57.47 70.2909 57.4552 67.3625 57.4848 64.4193C57.4848 63.9312 57.3517 63.7981 56.8636 63.7981C54.2014 63.8277 51.5392 63.8129 48.8771 63.8129C47.0283 63.8129 45.9043 62.7037 45.9043 60.8549C45.9043 58.6808 45.9043 56.4919 45.9043 54.3178C45.9043 53.0607 46.3924 52.0254 47.2354 51.138C47.6939 50.6647 48.2263 50.4281 48.9066 50.4281C51.554 50.4429 54.1866 50.4133 56.834 50.4576C57.3665 50.4576 57.47 50.295 57.4552 49.8069C57.4404 47.263 57.47 44.7044 57.4256 42.1605C57.4108 41.1844 57.8397 40.5336 58.6088 40.0604C59.3483 39.6019 60.147 39.3652 61.0196 39.3652C63.3416 39.3652 65.6784 39.3652 68.0004 39.3652C69.509 39.3652 70.352 40.1935 70.3668 41.7464C70.3816 44.4382 70.3816 47.1447 70.3668 49.8365C70.3668 50.3393 70.4999 50.4724 71.0027 50.4724C74.0642 50.4429 77.1405 50.4724 80.202 50.4576C80.8824 50.4576 81.4148 50.6943 81.8881 51.1528C82.8199 52.0697 83.3375 53.1642 83.3227 54.5101C83.2931 56.6546 83.3079 58.7991 83.3079 60.9437C83.3079 62.6297 82.1247 63.8277 80.4239 63.8425C78.8562 63.8277 77.2736 63.8129 75.6763 63.8129Z" fill="#FEFEFE"/>
<path d="M70.4121 133.532C70.4121 131.728 70.4121 129.909 70.4121 128.104C70.4121 126.448 71.5805 125.279 73.2222 125.265C76.8753 125.265 80.5284 125.265 84.1963 125.265C85.8232 125.265 87.0064 126.418 87.0212 128.045C87.0359 131.713 87.0359 135.396 87.0212 139.064C87.0212 140.72 85.8232 141.874 84.1667 141.874C80.5284 141.874 76.8901 141.874 73.2518 141.874C71.5657 141.874 70.4121 140.705 70.4121 139.004C70.4121 137.185 70.4121 135.351 70.4121 133.532Z" fill="#FEFEFE"/>
<path d="M50.0462 112.753C48.2123 112.753 46.3931 112.753 44.5592 112.753C42.9471 112.753 41.7935 111.629 41.7787 110.017C41.7639 106.319 41.7639 102.636 41.7787 98.9389C41.7787 97.3268 42.9175 96.1732 44.5887 96.1584C48.2419 96.1288 51.8949 96.1288 55.548 96.1584C57.2489 96.1732 58.3581 97.3564 58.3729 99.0572C58.3729 102.636 58.3729 106.216 58.3729 109.795C58.3729 111.643 57.2637 112.738 55.4002 112.738C53.6254 112.753 51.8358 112.753 50.0462 112.753Z" fill="#FEFEFE"/>
<path d="M41.7773 133.532C41.7773 131.743 41.7773 129.953 41.7773 128.163C41.7773 126.403 42.9162 125.265 44.6909 125.265C48.2849 125.265 51.8936 125.265 55.4876 125.265C57.2032 125.265 58.3716 126.418 58.3716 128.149C58.3716 131.772 58.3716 135.381 58.3716 139.004C58.3716 140.72 57.1884 141.874 55.4728 141.874C51.8493 141.874 48.2405 141.874 44.617 141.874C42.9457 141.874 41.7921 140.72 41.7773 139.064C41.7773 137.23 41.7773 135.381 41.7773 133.532Z" fill="#FEFEFE"/>
<path d="M78.6797 112.753C76.8457 112.753 75.0266 112.753 73.1926 112.753C71.5657 112.753 70.4121 111.584 70.4121 109.958C70.4121 106.319 70.4121 102.681 70.4121 99.0426C70.4121 97.3418 71.5214 96.1586 73.237 96.1438C76.8901 96.1142 80.5432 96.1142 84.1963 96.1438C85.8971 96.1586 87.0212 97.3418 87.0212 99.0426C87.0359 102.637 87.0359 106.245 87.0212 109.839C87.0212 111.614 85.8823 112.738 84.1075 112.738C82.3032 112.753 80.4988 112.753 78.6797 112.753Z" fill="#FEFEFE"/>
</g>
<defs>
<clipPath id="clip0_5191_39741">
<rect width="192" height="192" fill="white"/>
</clipPath>
</defs>
</svg>
