<svg width="192" height="192" viewBox="0 0 192 192" fill="none" xmlns="http://www.w3.org/2000/svg">
<g clip-path="url(#clip0_5191_39639)">
<path d="M96 192C149.019 192 192 149.019 192 96C192 42.9807 149.019 0 96 0C42.9807 0 0 42.9807 0 96C0 149.019 42.9807 192 96 192Z" fill="white"/>
<path d="M88.6183 164.391C72.4973 164.391 56.3763 164.391 40.2406 164.391C40.0927 164.391 39.9448 164.406 39.7969 164.406C39.5307 164.376 39.2644 164.494 39.013 164.317C35.5522 163.829 33.1562 161.936 31.7512 158.756C31.3371 157.824 31.1596 156.863 31.1004 155.872C30.9525 155.694 31.0117 155.487 31.0117 155.28C31.0117 117.758 31.0117 80.2512 31.0117 42.7292C31.0117 42.5369 30.9525 42.3151 31.1004 42.1376C31.1892 40.2297 31.8399 38.5289 33.0231 37.0351C34.3838 35.3195 36.1438 34.225 38.3031 33.8109C38.5397 33.7665 38.7764 33.7222 38.9982 33.6778C39.2053 33.5151 39.4567 33.6187 39.6786 33.6039C43.9824 33.6039 48.2863 33.6039 52.5901 33.6039C64.4812 33.6039 76.3723 33.6039 88.2633 33.6039C88.5 33.6039 88.7366 33.6039 88.988 33.5891C89.2099 33.6186 89.4465 33.5151 89.6536 33.663C91.8869 34.0032 93.8243 34.9497 95.3329 36.6506C96.5605 38.0408 97.3147 39.6529 97.5514 41.5312C97.6697 42.4334 97.6401 43.3356 97.6401 44.2378C97.6401 81.1829 97.6549 118.128 97.6401 155.073C97.6401 159.052 95.7322 161.906 92.1383 163.637C91.3544 164.006 90.5114 164.184 89.6536 164.317C89.4465 164.465 89.2099 164.376 88.988 164.391C88.8845 164.406 88.7514 164.391 88.6183 164.391Z" fill="#4DA6A6"/>
<path d="M105.51 83.4753C105.377 82.8837 105.362 82.3068 105.51 81.7153C105.806 80.1475 106.723 79.201 108.305 78.92C108.483 78.7573 108.69 78.8312 108.882 78.8312C125.077 78.8312 141.272 78.8312 157.467 78.8312C157.659 78.8312 157.881 78.7721 158.058 78.92C159.818 79.3341 160.883 80.5468 160.927 82.1737C160.987 84.5401 160.232 85.6642 158.162 86.2853C157.984 86.4332 157.777 86.3741 157.57 86.3741C141.301 86.3741 125.032 86.3741 108.749 86.3741C108.556 86.3741 108.335 86.448 108.172 86.2853C107.063 86.2262 105.613 84.8951 105.51 83.4753Z" fill="#4DA6A6"/>
<path d="M160.97 157.41C160.97 159.273 160.201 160.634 158.782 161.714C157.436 162.749 155.868 163.267 154.197 163.444C154.034 163.592 153.842 163.533 153.664 163.533C150.706 163.533 147.748 163.533 144.805 163.533C144.45 163.533 144.213 163.533 144.228 163.06C144.243 153.387 144.243 143.7 144.243 134.027C144.066 131.853 142.808 130.019 140.93 129.472C140.516 129.353 140.087 129.28 139.643 129.28C135.443 129.28 131.258 129.28 127.072 129.28C124.957 129.28 123.803 130.344 123.079 132.06C122.886 132.504 122.679 132.977 122.739 133.495C122.724 133.687 122.798 133.879 122.65 134.057C122.635 134.293 122.62 134.53 122.62 134.781C122.62 144.336 122.62 153.89 122.62 163.444C122.502 163.607 122.324 163.562 122.162 163.562C118.982 163.562 115.802 163.562 112.622 163.562C112.474 163.562 112.326 163.592 112.208 163.474C110.123 163.355 108.318 162.586 106.854 161.122C106.159 160.427 105.612 159.599 105.538 158.578C105.39 158.401 105.449 158.194 105.449 157.987C105.449 137.725 105.449 117.462 105.449 97.2003C105.449 97.008 105.39 96.7861 105.538 96.6087C105.908 94.5529 107.357 93.4584 109.087 92.645C109.931 92.2457 110.847 92.0682 111.764 91.9351C112.001 91.7576 112.282 91.8759 112.548 91.8463C112.696 91.8463 112.844 91.8611 112.992 91.8611H153.442C153.59 91.8611 153.738 91.8463 153.886 91.8463C154.152 91.8759 154.418 91.7576 154.67 91.9351C156.09 92.1865 157.465 92.5858 158.663 93.4288C160.187 94.5085 161 95.884 161 97.851C160.941 117.669 160.941 137.547 160.97 157.41Z" fill="#4DA6A6"/>
<path d="M88.6183 164.391C72.4973 164.391 56.3763 164.391 40.2406 164.391C40.0927 164.391 39.9448 164.406 39.7969 164.406C39.5307 164.376 39.2644 164.494 39.013 164.317C35.5522 163.829 33.1562 161.936 31.7512 158.756C31.3371 157.824 31.1596 156.863 31.1004 155.872C30.9525 155.694 31.0117 155.487 31.0117 155.28C31.0117 117.758 31.0117 80.2512 31.0117 42.7292C31.0117 42.5369 30.9525 42.3151 31.1004 42.1376C31.1892 40.2297 31.8399 38.5289 33.0231 37.0351C34.3838 35.3195 36.1438 34.225 38.3031 33.8109C38.5397 33.7665 38.7764 33.7222 38.9982 33.6778C39.2053 33.5151 39.4567 33.6187 39.6786 33.6039C43.9824 33.6039 48.2863 33.6039 52.5901 33.6039C64.4812 33.6039 76.3723 33.6039 88.2633 33.6039C88.5 33.6039 88.7366 33.6039 88.988 33.5891C89.2099 33.6186 89.4465 33.5151 89.6536 33.663C91.8869 34.0032 93.8243 34.9497 95.3329 36.6506C96.5605 38.0408 97.3147 39.6529 97.5514 41.5312C97.6697 42.4334 97.6401 43.3356 97.6401 44.2378C97.6401 81.1829 97.6549 118.128 97.6401 155.073C97.6401 159.052 95.7322 161.906 92.1383 163.637C91.3544 164.006 90.5114 164.184 89.6536 164.317C89.4465 164.465 89.2099 164.376 88.988 164.391C88.8845 164.406 88.7514 164.391 88.6183 164.391Z" fill="#FEFEFE"/>
<path d="M105.51 83.4753C105.377 82.8837 105.362 82.3068 105.51 81.7153C105.806 80.1475 106.723 79.201 108.305 78.92C108.483 78.7573 108.69 78.8312 108.882 78.8312C125.077 78.8312 141.272 78.8312 157.467 78.8312C157.659 78.8312 157.881 78.7721 158.058 78.92C159.818 79.3341 160.883 80.5468 160.927 82.1737C160.987 84.5401 160.232 85.6642 158.162 86.2853C157.984 86.4332 157.777 86.3741 157.57 86.3741C141.301 86.3741 125.032 86.3741 108.749 86.3741C108.556 86.3741 108.335 86.448 108.172 86.2853C107.063 86.2262 105.613 84.8951 105.51 83.4753Z" fill="#FEFEFE"/>
<path d="M160.97 157.41C160.97 159.273 160.201 160.634 158.782 161.714C157.436 162.749 155.868 163.267 154.197 163.444C154.034 163.592 153.842 163.533 153.664 163.533C150.706 163.533 147.748 163.533 144.805 163.533C144.45 163.533 144.213 163.533 144.228 163.06C144.243 153.387 144.243 143.7 144.243 134.027C144.066 131.853 142.808 130.019 140.93 129.472C140.516 129.353 140.087 129.28 139.643 129.28C135.443 129.28 131.258 129.28 127.072 129.28C124.957 129.28 123.803 130.344 123.079 132.06C122.886 132.504 122.679 132.977 122.739 133.495C122.724 133.687 122.798 133.879 122.65 134.057C122.635 134.293 122.62 134.53 122.62 134.781C122.62 144.336 122.62 153.89 122.62 163.444C122.502 163.607 122.324 163.562 122.162 163.562C118.982 163.562 115.802 163.562 112.622 163.562C112.474 163.562 112.326 163.592 112.208 163.474C110.123 163.355 108.318 162.586 106.854 161.122C106.159 160.427 105.612 159.599 105.538 158.578C105.39 158.401 105.449 158.194 105.449 157.987C105.449 137.725 105.449 117.462 105.449 97.2003C105.449 97.008 105.39 96.7861 105.538 96.6087C105.908 94.5529 107.357 93.4584 109.087 92.645C109.931 92.2457 110.847 92.0682 111.764 91.9351C112.001 91.7576 112.282 91.8759 112.548 91.8463C112.696 91.8463 112.844 91.8611 112.992 91.8611H153.442C153.59 91.8611 153.738 91.8463 153.886 91.8463C154.152 91.8759 154.418 91.7576 154.67 91.9351C156.09 92.1865 157.465 92.5858 158.663 93.4288C160.187 94.5085 161 95.884 161 97.851C160.941 117.669 160.941 137.547 160.97 157.41Z" fill="#FEFEFE"/>
<path d="M97.654 155.088C97.654 159.066 95.7461 161.921 92.1521 163.651C91.3683 164.021 90.5252 164.199 89.6674 164.332C89.4604 164.406 89.2533 164.302 89.0462 164.391C89.0315 164.391 89.0167 164.406 89.0019 164.406C88.8688 164.406 88.7505 164.391 88.6173 164.391C72.4964 164.391 56.3754 164.391 40.2396 164.391C40.0917 164.391 39.9438 164.406 39.7959 164.406C39.7811 164.391 39.7516 164.391 39.722 164.376C39.4853 164.302 39.2487 164.406 39.0121 164.317C35.5512 163.829 33.1553 161.936 31.7502 158.756C31.3361 157.824 31.1586 156.863 31.0995 155.872C31.0551 155.665 31.0699 155.473 31.0699 155.265C31.0699 117.758 31.0699 80.266 31.0699 42.7588C31.0699 42.5518 31.0403 42.3447 31.0995 42.1525C31.1882 40.2446 31.839 38.5437 33.0222 37.0499C34.3828 35.3343 36.1428 34.2399 38.3022 33.8258C38.5388 33.7814 38.7754 33.737 38.9973 33.6926C39.1895 33.6187 39.4114 33.6926 39.6185 33.6335C39.648 33.6335 39.6628 33.6187 39.6924 33.6039C43.9963 33.6039 48.3001 33.6039 52.604 33.6039C64.495 33.6039 76.3861 33.6039 88.2772 33.6039C88.5138 33.6039 88.7504 33.6039 89.0019 33.5891C89.0167 33.6039 89.0462 33.6187 89.061 33.6187C89.2533 33.6926 89.4752 33.6039 89.6674 33.6631C91.9007 34.0032 93.8382 34.9498 95.3467 36.6506C96.5743 38.0409 97.3286 39.653 97.5652 41.5313C97.6835 42.4335 97.654 43.3356 97.654 44.2378C97.6687 81.1977 97.6687 118.143 97.654 155.088Z" fill="#4CA6A6"/>
<path d="M160.971 157.41C160.971 159.274 160.202 160.634 158.783 161.714C157.437 162.749 155.869 163.267 154.198 163.444C153.103 163.518 152.024 163.474 150.929 163.474C148.932 163.489 146.936 163.474 144.939 163.474C144.214 163.474 144.274 163.548 144.274 162.838C144.274 153.446 144.274 144.07 144.274 134.678C144.274 134.456 144.318 134.234 144.229 134.027C144.052 131.853 142.795 130.019 140.916 129.472C140.502 129.354 140.073 129.28 139.63 129.28C135.429 129.28 131.244 129.28 127.058 129.28C124.943 129.28 123.79 130.345 123.065 132.06C122.873 132.504 122.666 132.977 122.725 133.495C122.725 133.51 122.71 133.51 122.71 133.524C122.621 133.687 122.71 133.879 122.636 134.057C122.621 134.294 122.606 134.53 122.606 134.782C122.606 144.336 122.606 153.89 122.606 163.444C122.488 163.533 122.355 163.504 122.237 163.504C118.983 163.504 115.729 163.504 112.475 163.504C112.387 163.504 112.298 163.504 112.209 163.474C110.124 163.356 108.319 162.587 106.855 161.122C106.16 160.427 105.613 159.599 105.539 158.578C105.48 158.371 105.509 158.179 105.509 157.972C105.509 137.725 105.509 117.477 105.509 97.2301C105.509 97.023 105.48 96.8307 105.539 96.6237C105.909 94.5679 107.358 93.4734 109.089 92.66C109.932 92.2607 110.849 92.0832 111.765 91.9501C111.987 91.8613 112.239 91.9649 112.475 91.8909H112.49C112.505 91.8909 112.52 91.8761 112.549 91.8613C112.697 91.8613 112.845 91.8761 112.993 91.8761H153.443C153.591 91.8761 153.739 91.8613 153.887 91.8613C153.902 91.8761 153.931 91.8761 153.961 91.8909C154.198 91.9649 154.449 91.8613 154.671 91.9501C156.091 92.2015 157.466 92.6008 158.664 93.4438C160.188 94.5235 161.001 95.899 161.001 97.866C160.942 117.67 160.942 137.547 160.971 157.41Z" fill="#4DA6A6"/>
<path d="M158.189 86.2706C157.982 86.3298 157.79 86.3002 157.583 86.3002C141.329 86.3002 125.075 86.3002 108.806 86.3002C108.599 86.3002 108.392 86.3298 108.2 86.2706C107.046 86.2262 105.611 84.8951 105.508 83.4753C105.464 82.8837 105.464 82.3069 105.508 81.7153C105.804 80.1476 106.721 79.201 108.303 78.92C108.481 78.8609 108.673 78.8905 108.85 78.8905C125.075 78.8905 141.285 78.8905 157.509 78.8905C157.687 78.8905 157.879 78.8609 158.056 78.92C159.816 79.3341 160.881 80.5469 160.926 82.1738C161.014 84.5254 160.26 85.6494 158.189 86.2706Z" fill="#4DA6A6"/>
<path d="M31.1445 42.6996C31.1445 80.2363 31.1445 117.773 31.1445 155.31C31.1445 155.487 31.1445 155.68 31.1297 155.857C30.9818 155.68 31.041 155.472 31.041 155.265C31.041 117.743 31.041 80.2363 31.041 42.7144C31.041 42.5221 30.9818 42.3003 31.1297 42.1228C31.1297 42.3299 31.1445 42.5073 31.1445 42.6996Z" fill="#FCFCFC"/>
<path d="M105.508 157.854C105.508 158.075 105.508 158.297 105.522 158.519C105.374 158.342 105.434 158.135 105.434 157.928C105.434 137.665 105.434 117.403 105.434 97.1412C105.434 96.9489 105.374 96.727 105.522 96.5496C105.508 117.004 105.508 137.429 105.508 157.854Z" fill="#FCFCFC"/>
<path d="M158.189 86.2705C158.012 86.4184 157.805 86.3593 157.597 86.3593C141.329 86.3593 125.06 86.3593 108.776 86.3593C108.584 86.3593 108.362 86.4332 108.199 86.2705C108.702 86.2705 109.19 86.2853 109.693 86.2853C125.119 86.2853 140.545 86.2853 155.971 86.2853C156.71 86.2853 157.45 86.2853 158.189 86.2705Z" fill="#FCFCFC"/>
<path d="M158.086 78.9053C147.896 78.9053 137.691 78.8905 127.501 78.8905C123.034 78.8905 118.553 78.8905 114.086 78.8905C112.164 78.8905 110.241 78.9053 108.318 78.9053C108.496 78.7426 108.703 78.8166 108.895 78.8166C125.09 78.8166 141.285 78.8166 157.48 78.8166C157.687 78.8314 157.894 78.7574 158.086 78.9053Z" fill="#FCFCFC"/>
<path d="M154.198 163.43C154.035 163.577 153.843 163.518 153.665 163.518C150.707 163.518 147.749 163.518 144.806 163.518C144.451 163.518 144.214 163.518 144.229 163.045C144.244 153.372 144.244 143.685 144.244 134.012C144.362 134.234 144.303 134.486 144.303 134.722C144.303 144.025 144.303 153.343 144.303 162.646C144.303 163.533 144.2 163.43 145.057 163.43C148.104 163.43 151.151 163.43 154.198 163.43Z" fill="#FCFCFC"/>
<path d="M122.605 163.4C122.487 163.563 122.31 163.518 122.147 163.518C118.967 163.518 115.787 163.518 112.607 163.518C112.46 163.518 112.312 163.548 112.193 163.429C115.447 163.429 118.701 163.429 121.94 163.415C122.177 163.415 122.384 163.415 122.605 163.4Z" fill="#FCFCFC"/>
<path d="M105.523 81.7153C105.523 82.3069 105.523 82.8837 105.523 83.4753C105.375 82.8837 105.375 82.3069 105.523 81.7153Z" fill="#FCFCFC"/>
<path d="M39.8112 164.406C39.545 164.376 39.2788 164.494 39.0273 164.317C39.264 164.317 39.5006 164.287 39.7373 164.376C39.7668 164.376 39.7816 164.391 39.8112 164.406Z" fill="#FCFCFC"/>
<path d="M154.639 91.8909C154.403 91.8761 154.166 91.9205 153.929 91.8317C153.9 91.8169 153.885 91.8169 153.855 91.8021C154.122 91.8317 154.403 91.7134 154.639 91.8909Z" fill="#FCFCFC"/>
<path d="M112.534 91.8021C112.519 91.8169 112.504 91.8169 112.475 91.8317H112.46C112.238 91.9205 111.987 91.8761 111.75 91.8909C112.001 91.7134 112.268 91.8317 112.534 91.8021Z" fill="#FCFCFC"/>
<path d="M39.7068 33.6039C39.6921 33.6187 39.6625 33.6187 39.6329 33.6335C39.4406 33.7074 39.2188 33.6927 39.0117 33.6927C39.2336 33.5152 39.485 33.6187 39.7068 33.6039Z" fill="#FCFCFC"/>
<path d="M89.6831 164.332C89.4761 164.48 89.2394 164.391 89.0176 164.406C89.0324 164.406 89.0472 164.391 89.062 164.391C89.2542 164.287 89.4761 164.317 89.6831 164.332Z" fill="#FCFCFC"/>
<path d="M89.6831 33.6779C89.4761 33.6779 89.269 33.7074 89.0767 33.6335C89.062 33.6335 89.0324 33.6187 89.0176 33.6039C89.2394 33.6187 89.4761 33.53 89.6831 33.6779Z" fill="#FCFCFC"/>
<path d="M122.634 134.027C122.619 133.85 122.604 133.657 122.707 133.495C122.707 133.48 122.722 133.48 122.722 133.465C122.707 133.657 122.781 133.85 122.634 134.027Z" fill="#FCFCFC"/>
<path d="M75.6763 67.8129C74.0938 67.8129 72.4965 67.8277 70.914 67.7981C70.4999 67.7981 70.3816 67.9017 70.3816 68.3158C70.3963 71.3477 70.3964 74.3796 70.3964 77.3968C70.3964 78.2546 70.2041 79.0384 69.5829 79.6892C69.2132 80.0589 68.7843 80.266 68.2518 80.266C65.7819 80.266 63.2972 80.3104 60.8273 80.2512C59.4962 80.2216 58.4609 79.5117 57.7214 78.4025C57.4848 78.0475 57.47 77.6482 57.47 77.2341C57.47 74.2909 57.4552 71.3625 57.4848 68.4193C57.4848 67.9312 57.3517 67.7981 56.8636 67.7981C54.2014 67.8277 51.5392 67.8129 48.8771 67.8129C47.0283 67.8129 45.9043 66.7037 45.9043 64.8549C45.9043 62.6808 45.9043 60.4919 45.9043 58.3178C45.9043 57.0607 46.3924 56.0254 47.2354 55.138C47.6939 54.6647 48.2263 54.4281 48.9066 54.4281C51.554 54.4429 54.1866 54.4133 56.834 54.4576C57.3665 54.4576 57.47 54.295 57.4552 53.8069C57.4404 51.263 57.47 48.7044 57.4256 46.1605C57.4108 45.1844 57.8397 44.5336 58.6088 44.0604C59.3483 43.6019 60.147 43.3652 61.0196 43.3652C63.3416 43.3652 65.6784 43.3652 68.0004 43.3652C69.509 43.3652 70.352 44.1935 70.3668 45.7464C70.3816 48.4382 70.3816 51.1447 70.3668 53.8365C70.3668 54.3393 70.4999 54.4724 71.0027 54.4724C74.0642 54.4429 77.1405 54.4724 80.202 54.4576C80.8824 54.4576 81.4148 54.6943 81.8881 55.1528C82.8199 56.0697 83.3375 57.1642 83.3227 58.5101C83.2931 60.6546 83.3079 62.7991 83.3079 64.9437C83.3079 66.6297 82.1247 67.8277 80.4239 67.8425C78.8562 67.8277 77.2736 67.8129 75.6763 67.8129Z" fill="#FEFEFE"/>
<path d="M70.4121 137.532C70.4121 135.728 70.4121 133.909 70.4121 132.105C70.4121 130.448 71.5805 129.28 73.2222 129.265C76.8753 129.265 80.5284 129.265 84.1963 129.265C85.8232 129.265 87.0064 130.419 87.0212 132.045C87.0359 135.713 87.0359 139.396 87.0212 143.064C87.0212 144.72 85.8232 145.874 84.1667 145.874C80.5284 145.874 76.8901 145.874 73.2518 145.874C71.5657 145.874 70.4121 144.706 70.4121 143.005C70.4121 141.186 70.4121 139.352 70.4121 137.532Z" fill="#FEFEFE"/>
<path d="M50.0462 116.753C48.2123 116.753 46.3931 116.753 44.5592 116.753C42.9471 116.753 41.7935 115.629 41.7787 114.017C41.7639 110.319 41.7639 106.636 41.7787 102.939C41.7787 101.327 42.9175 100.173 44.5887 100.158C48.2419 100.129 51.8949 100.129 55.548 100.158C57.2489 100.173 58.3581 101.356 58.3729 103.057C58.3729 106.636 58.3729 110.216 58.3729 113.795C58.3729 115.643 57.2637 116.738 55.4002 116.738C53.6254 116.753 51.8358 116.753 50.0462 116.753Z" fill="#FEFEFE"/>
<path d="M41.7773 137.532C41.7773 135.743 41.7773 133.953 41.7773 132.164C41.7773 130.404 42.9162 129.265 44.6909 129.265C48.2849 129.265 51.8936 129.265 55.4876 129.265C57.2032 129.265 58.3716 130.419 58.3716 132.149C58.3716 135.772 58.3716 139.381 58.3716 143.005C58.3716 144.72 57.1884 145.874 55.4728 145.874C51.8493 145.874 48.2405 145.874 44.617 145.874C42.9457 145.874 41.7921 144.72 41.7773 143.064C41.7773 141.23 41.7773 139.381 41.7773 137.532Z" fill="#FEFEFE"/>
<path d="M78.6797 116.753C76.8457 116.753 75.0266 116.753 73.1926 116.753C71.5657 116.753 70.4121 115.584 70.4121 113.957C70.4121 110.319 70.4121 106.681 70.4121 103.042C70.4121 101.342 71.5214 100.158 73.237 100.144C76.8901 100.114 80.5432 100.114 84.1963 100.144C85.8971 100.158 87.0212 101.342 87.0212 103.042C87.0359 106.636 87.0359 110.245 87.0212 113.839C87.0212 115.614 85.8823 116.738 84.1075 116.738C82.3032 116.753 80.4988 116.753 78.6797 116.753Z" fill="#FEFEFE"/>
</g>
<defs>
<clipPath id="clip0_5191_39639">
<rect width="192" height="192" fill="white"/>
</clipPath>
</defs>
</svg>
