<svg width="192" height="192" viewBox="0 0 192 192" fill="none" xmlns="http://www.w3.org/2000/svg">
<g clip-path="url(#clip0_4959_32371)">
<path d="M96 192C149.019 192 192 149.019 192 96C192 42.9807 149.019 0 96 0C42.9807 0 0 42.9807 0 96C0 149.019 42.9807 192 96 192Z" fill="white"/>
<path d="M126.54 94.2815C128.815 118.946 126.648 142.563 109.206 166C109.567 148.847 103.392 136.46 97.3613 124.002C96.3141 122.557 95.7001 120.932 95.5918 119.163C103.067 107.318 111.734 96.9899 126.54 94.2815Z" fill="#40E3FE"/>
<path d="M97.3965 35.6354C114.333 23.5378 127.911 22.8517 139.467 33.4687C150.192 43.3272 151.492 61.1305 142.139 76.5142C138.456 82.6171 134.411 88.7201 127.369 91.7535C123.506 90.3812 121.411 87.6006 120.942 83.5561C121.014 81.7866 121.519 80.0893 122.35 78.5004C124.733 75.1058 128.092 72.3613 129.897 68.5335C136.975 53.5831 129.789 42.3161 113.214 42.3161C102.199 42.3161 102.199 42.3161 97.3965 35.6354Z" fill="#26EEDA"/>
<path d="M68.6183 98.1467C62.6959 91.4299 56.1957 85.1103 51.0317 77.8517C40.4148 62.9014 41.3898 43.6897 52.5123 33.4339C63.9598 22.8892 77.7546 23.6115 94.5467 35.6007C96.244 38.7785 94.3662 40.5841 91.9828 42.1369C89.7077 42.9675 87.3965 43.2564 84.977 43.0397C76.3101 42.3175 66.2349 38.3091 61.1792 49.1066C56.7013 58.6401 60.2403 67.7404 66.3071 75.8295C68.4377 78.6823 70.7128 81.4991 71.8684 85.0019C72.9879 89.9493 72.9517 94.5716 68.6183 98.1467Z" fill="#42E3FE"/>
<path d="M90.6556 40.3653C91.9556 38.7764 93.2917 37.1875 94.5918 35.6346C95.5307 35.7069 96.4696 35.743 97.4085 35.6708C100.622 41.3403 104.992 39.5347 109.867 38.0903C121.567 34.6957 132.473 36.6458 136.048 49.4656C139.515 61.852 139.479 74.8162 123.265 79.9802C119.329 79.0052 117.126 76.0801 116.006 72.6495C111.637 59.288 102.175 50.8017 89.9694 44.8071C89.2472 43.1821 89.4278 41.6654 90.6556 40.3653Z" fill="#13CFD8"/>
<path d="M68.623 98.145C68.7314 93.2698 68.8759 88.3947 68.9842 83.5196C70.4648 82.5085 72.0176 82.2557 73.751 82.689C74.8343 83.1585 75.9177 83.664 76.8205 84.4224C94.7682 99.5533 94.7321 99.5172 113.546 85.8669C116.363 83.8446 119.18 81.389 123.08 83.4835C124.525 86.228 125.933 89.0086 127.377 91.7531C127.45 92.692 127.161 93.5587 126.547 94.281C116.941 102.695 107.335 111.145 97.7293 119.559C80.215 122.809 76.7844 107.317 68.8036 97.9283L68.623 98.145Z" fill="#15CFDA"/>
<path d="M68.7986 97.9285C80.1739 102.84 84.2546 117.465 97.7244 119.56C97.616 121.04 97.5077 122.521 97.3994 123.965C86.638 127.468 87.4686 139.205 81.2934 147.005C72.2654 131.44 67.7875 115.407 68.7986 97.9285Z" fill="#26EEDB"/>
<path d="M123.121 83.5207C121.207 84.8568 119.076 85.9402 117.343 87.5291C93.3645 109.666 93.3645 109.666 72.5279 83.4484C66.9305 66.1869 74.3696 49.9365 90.6561 43.8696C114.598 44.1224 115.501 65.1396 123.265 79.9817C123.229 81.1734 123.157 82.329 123.121 83.5207Z" fill="#0CBAE7"/>
<path d="M90.6447 43.8679C79.0527 54.521 72.9498 67.7019 72.5164 83.4467C71.3609 83.4828 70.1692 83.519 69.0136 83.5551C65.9079 80.8106 62.044 78.6077 59.8772 75.2493C53.341 65.1379 50.777 53.5098 57.855 43.3985C66.7024 30.7231 79.3416 38.0539 90.6447 40.3651C90.6447 41.5206 90.6447 42.6762 90.6447 43.8679Z" fill="#2EC4FE"/>
</g>
<defs>
<clipPath id="clip0_4959_32371">
<rect width="192" height="192" fill="white"/>
</clipPath>
</defs>
</svg>
