<svg width="192" height="192" viewBox="0 0 192 192" fill="none" xmlns="http://www.w3.org/2000/svg">
<g clip-path="url(#clip0_5193_39842)">
<path d="M96 192C149.019 192 192 149.019 192 96C192 42.9807 149.019 0 96 0C42.9807 0 0 42.9807 0 96C0 149.019 42.9807 192 96 192Z" fill="white"/>
<path d="M88.6183 161.391C72.4973 161.391 56.3763 161.391 40.2406 161.391C40.0927 161.391 39.9448 161.406 39.7969 161.406C39.5307 161.376 39.2644 161.494 39.013 161.317C35.5522 160.829 33.1562 158.936 31.7512 155.756C31.3371 154.824 31.1596 153.863 31.1004 152.872C30.9525 152.694 31.0117 152.487 31.0117 152.28C31.0117 114.758 31.0117 77.2512 31.0117 39.7292C31.0117 39.5369 30.9525 39.3151 31.1004 39.1376C31.1892 37.2297 31.8399 35.5289 33.0231 34.0351C34.3838 32.3195 36.1438 31.225 38.3031 30.8109C38.5397 30.7665 38.7764 30.7222 38.9982 30.6778C39.2053 30.5151 39.4567 30.6187 39.6786 30.6039C43.9824 30.6039 48.2863 30.6039 52.5901 30.6039C64.4812 30.6039 76.3723 30.6039 88.2633 30.6039C88.5 30.6039 88.7366 30.6039 88.988 30.5891C89.2099 30.6186 89.4465 30.5151 89.6536 30.663C91.8869 31.0032 93.8243 31.9497 95.3329 33.6506C96.5605 35.0408 97.3147 36.6529 97.5514 38.5312C97.6697 39.4334 97.6401 40.3356 97.6401 41.2378C97.6401 78.1829 97.6549 115.128 97.6401 152.073C97.6401 156.052 95.7322 158.906 92.1383 160.637C91.3544 161.006 90.5114 161.184 89.6536 161.317C89.4465 161.465 89.2099 161.376 88.988 161.391C88.8845 161.406 88.7514 161.391 88.6183 161.391Z" fill="#4DA6A6"/>
<path d="M105.51 80.4753C105.377 79.8837 105.362 79.3068 105.51 78.7153C105.806 77.1475 106.723 76.201 108.305 75.92C108.483 75.7573 108.69 75.8312 108.882 75.8312C125.077 75.8312 141.272 75.8312 157.467 75.8312C157.659 75.8312 157.881 75.7721 158.058 75.92C159.818 76.3341 160.883 77.5468 160.927 79.1737C160.987 81.5401 160.232 82.6642 158.162 83.2853C157.984 83.4332 157.777 83.3741 157.57 83.3741C141.301 83.3741 125.032 83.3741 108.749 83.3741C108.556 83.3741 108.335 83.448 108.172 83.2853C107.063 83.2262 105.613 81.8951 105.51 80.4753Z" fill="#4DA6A6"/>
<path d="M160.97 154.41C160.97 156.274 160.201 157.634 158.782 158.714C157.436 159.749 155.868 160.267 154.197 160.444C154.034 160.592 153.842 160.533 153.664 160.533C150.706 160.533 147.748 160.533 144.805 160.533C144.45 160.533 144.213 160.533 144.228 160.06C144.243 150.387 144.243 140.7 144.243 131.027C144.066 128.853 142.808 127.019 140.93 126.472C140.516 126.354 140.087 126.28 139.643 126.28C135.443 126.28 131.258 126.28 127.072 126.28C124.957 126.28 123.803 127.345 123.079 129.06C122.886 129.504 122.679 129.977 122.739 130.495C122.724 130.687 122.798 130.879 122.65 131.057C122.635 131.294 122.62 131.53 122.62 131.782C122.62 141.336 122.62 150.89 122.62 160.444C122.502 160.607 122.324 160.563 122.162 160.563C118.982 160.563 115.802 160.563 112.622 160.563C112.474 160.563 112.326 160.592 112.208 160.474C110.123 160.356 108.318 159.587 106.854 158.122C106.159 157.427 105.612 156.599 105.538 155.579C105.39 155.401 105.449 155.194 105.449 154.987C105.449 134.725 105.449 114.463 105.449 94.2005C105.449 94.0082 105.39 93.7864 105.538 93.6089C105.908 91.5531 107.357 90.4587 109.087 89.6452C109.931 89.2459 110.847 89.0684 111.764 88.9353C112.001 88.7578 112.282 88.8761 112.548 88.8466C112.696 88.8466 112.844 88.8614 112.992 88.8614H153.442C153.59 88.8614 153.738 88.8466 153.886 88.8466C154.152 88.8761 154.418 88.7578 154.67 88.9353C156.09 89.1867 157.465 89.5861 158.663 90.4291C160.187 91.5087 161 92.8842 161 94.8513C160.941 114.67 160.941 134.547 160.97 154.41Z" fill="#4DA6A6"/>
<path d="M88.6183 161.391C72.4973 161.391 56.3763 161.391 40.2406 161.391C40.0927 161.391 39.9448 161.406 39.7969 161.406C39.5307 161.376 39.2644 161.494 39.013 161.317C35.5522 160.829 33.1562 158.936 31.7512 155.756C31.3371 154.824 31.1596 153.863 31.1004 152.872C30.9525 152.694 31.0117 152.487 31.0117 152.28C31.0117 114.758 31.0117 77.2512 31.0117 39.7292C31.0117 39.5369 30.9525 39.3151 31.1004 39.1376C31.1892 37.2297 31.8399 35.5289 33.0231 34.0351C34.3838 32.3195 36.1438 31.225 38.3031 30.8109C38.5397 30.7665 38.7764 30.7222 38.9982 30.6778C39.2053 30.5151 39.4567 30.6187 39.6786 30.6039C43.9824 30.6039 48.2863 30.6039 52.5901 30.6039C64.4812 30.6039 76.3723 30.6039 88.2633 30.6039C88.5 30.6039 88.7366 30.6039 88.988 30.5891C89.2099 30.6186 89.4465 30.5151 89.6536 30.663C91.8869 31.0032 93.8243 31.9497 95.3329 33.6506C96.5605 35.0408 97.3147 36.6529 97.5514 38.5312C97.6697 39.4334 97.6401 40.3356 97.6401 41.2378C97.6401 78.1829 97.6549 115.128 97.6401 152.073C97.6401 156.052 95.7322 158.906 92.1383 160.637C91.3544 161.006 90.5114 161.184 89.6536 161.317C89.4465 161.465 89.2099 161.376 88.988 161.391C88.8845 161.406 88.7514 161.391 88.6183 161.391Z" fill="#FEFEFE"/>
<path d="M105.51 80.4753C105.377 79.8837 105.362 79.3068 105.51 78.7153C105.806 77.1475 106.723 76.201 108.305 75.92C108.483 75.7573 108.69 75.8312 108.882 75.8312C125.077 75.8312 141.272 75.8312 157.467 75.8312C157.659 75.8312 157.881 75.7721 158.058 75.92C159.818 76.3341 160.883 77.5468 160.927 79.1737C160.987 81.5401 160.232 82.6642 158.162 83.2853C157.984 83.4332 157.777 83.3741 157.57 83.3741C141.301 83.3741 125.032 83.3741 108.749 83.3741C108.556 83.3741 108.335 83.448 108.172 83.2853C107.063 83.2262 105.613 81.8951 105.51 80.4753Z" fill="#FEFEFE"/>
<path d="M160.97 154.41C160.97 156.274 160.201 157.634 158.782 158.714C157.436 159.749 155.868 160.267 154.197 160.444C154.034 160.592 153.842 160.533 153.664 160.533C150.706 160.533 147.748 160.533 144.805 160.533C144.45 160.533 144.213 160.533 144.228 160.06C144.243 150.387 144.243 140.7 144.243 131.027C144.066 128.853 142.808 127.019 140.93 126.472C140.516 126.354 140.087 126.28 139.643 126.28C135.443 126.28 131.258 126.28 127.072 126.28C124.957 126.28 123.803 127.345 123.079 129.06C122.886 129.504 122.679 129.977 122.739 130.495C122.724 130.687 122.798 130.879 122.65 131.057C122.635 131.294 122.62 131.53 122.62 131.782C122.62 141.336 122.62 150.89 122.62 160.444C122.502 160.607 122.324 160.563 122.162 160.563C118.982 160.563 115.802 160.563 112.622 160.563C112.474 160.563 112.326 160.592 112.208 160.474C110.123 160.356 108.318 159.587 106.854 158.122C106.159 157.427 105.612 156.599 105.538 155.579C105.39 155.401 105.449 155.194 105.449 154.987C105.449 134.725 105.449 114.463 105.449 94.2005C105.449 94.0082 105.39 93.7864 105.538 93.6089C105.908 91.5531 107.357 90.4587 109.087 89.6452C109.931 89.2459 110.847 89.0684 111.764 88.9353C112.001 88.7578 112.282 88.8761 112.548 88.8466C112.696 88.8466 112.844 88.8614 112.992 88.8614H153.442C153.59 88.8614 153.738 88.8466 153.886 88.8466C154.152 88.8761 154.418 88.7578 154.67 88.9353C156.09 89.1867 157.465 89.5861 158.663 90.4291C160.187 91.5087 161 92.8842 161 94.8513C160.941 114.67 160.941 134.547 160.97 154.41Z" fill="#FEFEFE"/>
<path d="M97.654 152.088C97.654 156.066 95.7461 158.921 92.1521 160.651C91.3683 161.021 90.5252 161.198 89.6674 161.331C89.4604 161.405 89.2533 161.302 89.0462 161.391C89.0315 161.391 89.0167 161.405 89.0019 161.405C88.8688 161.405 88.7505 161.391 88.6173 161.391C72.4964 161.391 56.3754 161.391 40.2396 161.391C40.0917 161.391 39.9438 161.405 39.7959 161.405C39.7811 161.391 39.7516 161.391 39.722 161.376C39.4853 161.302 39.2487 161.405 39.0121 161.317C35.5512 160.829 33.1553 158.935 31.7502 155.756C31.3361 154.824 31.1586 153.863 31.0995 152.872C31.0551 152.665 31.0699 152.472 31.0699 152.265C31.0699 114.758 31.0699 77.2657 31.0699 39.7586C31.0699 39.5515 31.0403 39.3445 31.0995 39.1522C31.1882 37.2443 31.839 35.5435 33.0222 34.0497C34.3828 32.3341 36.1428 31.2396 38.3022 30.8255C38.5388 30.7811 38.7754 30.7368 38.9973 30.6924C39.1895 30.6184 39.4114 30.6924 39.6185 30.6332C39.648 30.6332 39.6628 30.6184 39.6924 30.6037C43.9963 30.6037 48.3001 30.6037 52.604 30.6037C64.495 30.6037 76.3861 30.6037 88.2772 30.6037C88.5138 30.6037 88.7504 30.6037 89.0019 30.5889C89.0167 30.6037 89.0462 30.6184 89.061 30.6184C89.2533 30.6924 89.4752 30.6037 89.6674 30.6628C91.9007 31.003 93.8382 31.9495 95.3467 33.6504C96.5743 35.0406 97.3286 36.6527 97.5652 38.531C97.6835 39.4332 97.654 40.3354 97.654 41.2376C97.6687 78.1975 97.6687 115.143 97.654 152.088Z" fill="#4CA6A6"/>
<path d="M160.971 154.41C160.971 156.274 160.202 157.634 158.783 158.714C157.437 159.749 155.869 160.267 154.198 160.444C153.103 160.518 152.024 160.474 150.929 160.474C148.932 160.489 146.936 160.474 144.939 160.474C144.214 160.474 144.274 160.548 144.274 159.838C144.274 150.446 144.274 141.07 144.274 131.678C144.274 131.456 144.318 131.234 144.229 131.027C144.052 128.853 142.795 127.019 140.916 126.472C140.502 126.354 140.073 126.28 139.63 126.28C135.429 126.28 131.244 126.28 127.058 126.28C124.943 126.28 123.79 127.345 123.065 129.06C122.873 129.504 122.666 129.977 122.725 130.495C122.725 130.51 122.71 130.51 122.71 130.524C122.621 130.687 122.71 130.879 122.636 131.057C122.621 131.294 122.606 131.53 122.606 131.782C122.606 141.336 122.606 150.89 122.606 160.444C122.488 160.533 122.355 160.504 122.237 160.504C118.983 160.504 115.729 160.504 112.475 160.504C112.387 160.504 112.298 160.504 112.209 160.474C110.124 160.356 108.319 159.587 106.855 158.122C106.16 157.427 105.613 156.599 105.539 155.578C105.48 155.371 105.509 155.179 105.509 154.972C105.509 134.725 105.509 114.477 105.509 94.2301C105.509 94.023 105.48 93.8307 105.539 93.6237C105.909 91.5679 107.358 90.4734 109.089 89.66C109.932 89.2607 110.849 89.0832 111.765 88.9501C111.987 88.8613 112.239 88.9649 112.475 88.8909H112.49C112.505 88.8909 112.52 88.8761 112.549 88.8613C112.697 88.8613 112.845 88.8761 112.993 88.8761H153.443C153.591 88.8761 153.739 88.8613 153.887 88.8613C153.902 88.8761 153.931 88.8761 153.961 88.8909C154.198 88.9649 154.449 88.8613 154.671 88.9501C156.091 89.2015 157.466 89.6008 158.664 90.4438C160.188 91.5235 161.001 92.899 161.001 94.866C160.942 114.67 160.942 134.547 160.971 154.41Z" fill="#4DA6A6"/>
<path d="M158.189 83.2708C157.982 83.33 157.79 83.3004 157.583 83.3004C141.329 83.3004 125.075 83.3004 108.806 83.3004C108.599 83.3004 108.392 83.33 108.2 83.2708C107.046 83.2265 105.611 81.8954 105.508 80.4756C105.464 79.884 105.464 79.3072 105.508 78.7156C105.804 77.1478 106.721 76.2013 108.303 75.9203C108.481 75.8611 108.673 75.8907 108.85 75.8907C125.075 75.8907 141.285 75.8907 157.509 75.8907C157.687 75.8907 157.879 75.8611 158.056 75.9203C159.816 76.3344 160.881 77.5472 160.926 79.174C161.014 81.5256 160.26 82.6497 158.189 83.2708Z" fill="#4DA6A6"/>
<path d="M31.1445 39.6999C31.1445 77.2366 31.1445 114.773 31.1445 152.31C31.1445 152.488 31.1445 152.68 31.1297 152.857C30.9818 152.68 31.041 152.473 31.041 152.266C31.041 114.744 31.041 77.2366 31.041 39.7146C31.041 39.5224 30.9818 39.3005 31.1297 39.123C31.1297 39.3301 31.1445 39.5076 31.1445 39.6999Z" fill="#FCFCFC"/>
<path d="M105.508 154.854C105.508 155.076 105.508 155.298 105.522 155.519C105.374 155.342 105.434 155.135 105.434 154.928C105.434 134.666 105.434 114.404 105.434 94.1414C105.434 93.9491 105.374 93.7273 105.522 93.5498C105.508 114.004 105.508 134.429 105.508 154.854Z" fill="#FCFCFC"/>
<path d="M158.189 83.2705C158.012 83.4184 157.805 83.3593 157.597 83.3593C141.329 83.3593 125.06 83.3593 108.776 83.3593C108.584 83.3593 108.362 83.4332 108.199 83.2705C108.702 83.2705 109.19 83.2853 109.693 83.2853C125.119 83.2853 140.545 83.2853 155.971 83.2853C156.71 83.2853 157.45 83.2853 158.189 83.2705Z" fill="#FCFCFC"/>
<path d="M158.086 75.9053C147.896 75.9053 137.691 75.8905 127.501 75.8905C123.034 75.8905 118.553 75.8905 114.086 75.8905C112.164 75.8905 110.241 75.9053 108.318 75.9053C108.496 75.7426 108.703 75.8166 108.895 75.8166C125.09 75.8166 141.285 75.8166 157.48 75.8166C157.687 75.8314 157.894 75.7574 158.086 75.9053Z" fill="#FCFCFC"/>
<path d="M154.198 160.429C154.035 160.577 153.843 160.518 153.665 160.518C150.707 160.518 147.749 160.518 144.806 160.518C144.451 160.518 144.214 160.518 144.229 160.045C144.244 150.372 144.244 140.685 144.244 131.012C144.362 131.234 144.303 131.485 144.303 131.722C144.303 141.025 144.303 150.343 144.303 159.645C144.303 160.533 144.2 160.429 145.057 160.429C148.104 160.429 151.151 160.429 154.198 160.429Z" fill="#FCFCFC"/>
<path d="M122.605 160.4C122.487 160.563 122.31 160.518 122.147 160.518C118.967 160.518 115.787 160.518 112.607 160.518C112.46 160.518 112.312 160.548 112.193 160.429C115.447 160.429 118.701 160.429 121.94 160.415C122.177 160.415 122.384 160.415 122.605 160.4Z" fill="#FCFCFC"/>
<path d="M105.523 78.7153C105.523 79.3069 105.523 79.8837 105.523 80.4753C105.375 79.8837 105.375 79.3069 105.523 78.7153Z" fill="#FCFCFC"/>
<path d="M39.8112 161.405C39.545 161.376 39.2788 161.494 39.0273 161.317C39.264 161.317 39.5006 161.287 39.7373 161.376C39.7668 161.376 39.7816 161.391 39.8112 161.405Z" fill="#FCFCFC"/>
<path d="M154.639 88.8909C154.403 88.8761 154.166 88.9205 153.929 88.8317C153.9 88.8169 153.885 88.8169 153.855 88.8021C154.122 88.8317 154.403 88.7134 154.639 88.8909Z" fill="#FCFCFC"/>
<path d="M112.534 88.8021C112.519 88.8169 112.504 88.8169 112.475 88.8317H112.46C112.238 88.9205 111.987 88.8761 111.75 88.8909C112.001 88.7134 112.268 88.8317 112.534 88.8021Z" fill="#FCFCFC"/>
<path d="M39.7068 30.6037C39.6921 30.6185 39.6625 30.6185 39.6329 30.6333C39.4406 30.7072 39.2188 30.6924 39.0117 30.6924C39.2336 30.5149 39.485 30.6185 39.7068 30.6037Z" fill="#FCFCFC"/>
<path d="M89.6831 161.331C89.4761 161.479 89.2394 161.391 89.0176 161.405C89.0324 161.405 89.0472 161.391 89.062 161.391C89.2542 161.287 89.4761 161.317 89.6831 161.331Z" fill="#FCFCFC"/>
<path d="M89.6831 30.6779C89.4761 30.6779 89.269 30.7074 89.0767 30.6335C89.062 30.6335 89.0324 30.6187 89.0176 30.6039C89.2394 30.6187 89.4761 30.53 89.6831 30.6779Z" fill="#FCFCFC"/>
<path d="M122.634 131.027C122.619 130.85 122.604 130.658 122.707 130.495C122.707 130.48 122.722 130.48 122.722 130.465C122.707 130.658 122.781 130.85 122.634 131.027Z" fill="#FCFCFC"/>
<path d="M75.6763 64.8129C74.0938 64.8129 72.4965 64.8277 70.914 64.7981C70.4999 64.7981 70.3816 64.9017 70.3816 65.3158C70.3963 68.3477 70.3964 71.3796 70.3964 74.3968C70.3964 75.2546 70.2041 76.0384 69.5829 76.6892C69.2132 77.0589 68.7843 77.266 68.2518 77.266C65.7819 77.266 63.2972 77.3104 60.8273 77.2512C59.4962 77.2216 58.4609 76.5117 57.7214 75.4025C57.4848 75.0475 57.47 74.6482 57.47 74.2341C57.47 71.2909 57.4552 68.3625 57.4848 65.4193C57.4848 64.9312 57.3517 64.7981 56.8636 64.7981C54.2014 64.8277 51.5392 64.8129 48.8771 64.8129C47.0283 64.8129 45.9043 63.7037 45.9043 61.8549C45.9043 59.6808 45.9043 57.4919 45.9043 55.3178C45.9043 54.0607 46.3924 53.0254 47.2354 52.138C47.6939 51.6647 48.2263 51.4281 48.9066 51.4281C51.554 51.4429 54.1866 51.4133 56.834 51.4576C57.3665 51.4576 57.47 51.295 57.4552 50.8069C57.4404 48.263 57.47 45.7044 57.4256 43.1605C57.4108 42.1844 57.8397 41.5336 58.6088 41.0604C59.3483 40.6019 60.147 40.3652 61.0196 40.3652C63.3416 40.3652 65.6784 40.3652 68.0004 40.3652C69.509 40.3652 70.352 41.1935 70.3668 42.7464C70.3816 45.4382 70.3816 48.1447 70.3668 50.8365C70.3668 51.3393 70.4999 51.4724 71.0027 51.4724C74.0642 51.4429 77.1405 51.4724 80.202 51.4576C80.8824 51.4576 81.4148 51.6943 81.8881 52.1528C82.8199 53.0697 83.3375 54.1642 83.3227 55.5101C83.2931 57.6546 83.3079 59.7991 83.3079 61.9437C83.3079 63.6297 82.1247 64.8277 80.4239 64.8425C78.8562 64.8277 77.2736 64.8129 75.6763 64.8129Z" fill="#FEFEFE"/>
<path d="M70.4121 134.532C70.4121 132.728 70.4121 130.909 70.4121 129.104C70.4121 127.448 71.5805 126.279 73.2222 126.265C76.8753 126.265 80.5284 126.265 84.1963 126.265C85.8232 126.265 87.0064 127.418 87.0212 129.045C87.0359 132.713 87.0359 136.396 87.0212 140.064C87.0212 141.72 85.8232 142.874 84.1667 142.874C80.5284 142.874 76.8901 142.874 73.2518 142.874C71.5657 142.874 70.4121 141.705 70.4121 140.004C70.4121 138.185 70.4121 136.351 70.4121 134.532Z" fill="#FEFEFE"/>
<path d="M50.0462 113.753C48.2123 113.753 46.3931 113.753 44.5592 113.753C42.9471 113.753 41.7935 112.629 41.7787 111.017C41.7639 107.319 41.7639 103.636 41.7787 99.9389C41.7787 98.3268 42.9175 97.1732 44.5887 97.1584C48.2419 97.1288 51.8949 97.1288 55.548 97.1584C57.2489 97.1732 58.3581 98.3564 58.3729 100.057C58.3729 103.636 58.3729 107.216 58.3729 110.795C58.3729 112.643 57.2637 113.738 55.4002 113.738C53.6254 113.753 51.8358 113.753 50.0462 113.753Z" fill="#FEFEFE"/>
<path d="M41.7773 134.532C41.7773 132.743 41.7773 130.953 41.7773 129.163C41.7773 127.403 42.9162 126.265 44.6909 126.265C48.2849 126.265 51.8936 126.265 55.4876 126.265C57.2032 126.265 58.3716 127.418 58.3716 129.149C58.3716 132.772 58.3716 136.381 58.3716 140.004C58.3716 141.72 57.1884 142.874 55.4728 142.874C51.8493 142.874 48.2405 142.874 44.617 142.874C42.9457 142.874 41.7921 141.72 41.7773 140.064C41.7773 138.23 41.7773 136.381 41.7773 134.532Z" fill="#FEFEFE"/>
<path d="M78.6797 113.753C76.8457 113.753 75.0266 113.753 73.1926 113.753C71.5657 113.753 70.4121 112.584 70.4121 110.958C70.4121 107.319 70.4121 103.681 70.4121 100.043C70.4121 98.3418 71.5214 97.1586 73.237 97.1438C76.8901 97.1142 80.5432 97.1142 84.1963 97.1438C85.8971 97.1586 87.0212 98.3418 87.0212 100.043C87.0359 103.637 87.0359 107.245 87.0212 110.839C87.0212 112.614 85.8823 113.738 84.1075 113.738C82.3032 113.753 80.4988 113.753 78.6797 113.753Z" fill="#FEFEFE"/>
</g>
<defs>
<clipPath id="clip0_5193_39842">
<rect width="192" height="192" fill="white"/>
</clipPath>
</defs>
</svg>
