<svg width="192" height="192" viewBox="0 0 192 192" fill="none" xmlns="http://www.w3.org/2000/svg">
<g clip-path="url(#clip0_4929_36106)">
<path d="M96 192C149.019 192 192 149.019 192 96C192 42.9807 149.019 0 96 0C42.9807 0 0 42.9807 0 96C0 149.019 42.9807 192 96 192Z" fill="white"/>
<g clip-path="url(#clip1_4929_36106)">
<path d="M70.3353 44.1096C84.6324 44.1973 96.1445 55.8182 96.1138 70.114C96.0261 84.4011 84.4175 95.9254 70.1204 95.886C55.8234 95.8027 44.3024 84.1818 44.3419 69.8948L44.4515 44L70.3353 44.1096Z" fill="#E81D33"/>
<path d="M95.8943 121.89C95.8022 136.177 84.1891 147.697 69.8965 147.667L44.0039 147.557L44.1267 121.671C44.21 107.371 55.8275 95.8553 70.1201 95.8903C84.4172 95.978 95.9293 107.595 95.8943 121.89Z" fill="#69BD45"/>
<path d="M122.115 44.3333C107.818 44.2982 96.2098 55.8182 96.1133 70.114H96.1221C96.0914 84.4011 107.599 96.0219 121.896 96.1096C136.189 96.1447 147.806 84.6247 147.89 70.3377L147.999 44.4429L122.115 44.3333Z" fill="#FCB01B"/>
<path d="M95.8946 121.89C95.8683 136.177 107.38 147.794 121.677 147.886L147.57 147.996L147.671 122.11C147.71 107.809 136.189 96.193 121.897 96.1096C107.604 96.0746 95.9911 107.59 95.9033 121.89H95.8946Z" fill="#184898"/>
</g>
</g>
<defs>
<clipPath id="clip0_4929_36106">
<rect width="192" height="192" fill="white"/>
</clipPath>
<clipPath id="clip1_4929_36106">
<rect width="104" height="104" fill="white" transform="translate(44 44)"/>
</clipPath>
</defs>
</svg>
