<svg width="192" height="192" viewBox="0 0 192 192" fill="none" xmlns="http://www.w3.org/2000/svg">
<g clip-path="url(#clip0_4929_33812)">
<path d="M96 192C149.019 192 192 149.019 192 96C192 42.9807 149.019 0 96 0C42.9807 0 0 42.9807 0 96C0 149.019 42.9807 192 96 192Z" fill="white"/>
<path d="M106.6 132.028C103.448 132.028 100.893 129.475 100.893 126.324C100.893 123.173 103.448 120.619 106.6 120.619C109.753 120.619 112.308 123.173 112.308 126.324C112.308 129.475 109.753 132.028 106.6 132.028Z" fill="white"/>
<path d="M106.601 131.304C103.849 131.304 101.619 129.075 101.619 126.325C101.619 123.575 103.849 121.345 106.601 121.345C109.353 121.345 111.584 123.574 111.584 126.325C111.584 129.075 109.353 131.304 106.601 131.304Z" fill="#FF6060"/>
<path d="M106.229 122.506H106.974C107.289 122.506 107.545 122.761 107.545 123.077V126.989C107.545 127.304 107.29 127.56 106.974 127.56H106.229C105.914 127.56 105.658 127.304 105.658 126.989V123.077C105.658 122.761 105.914 122.506 106.229 122.506Z" fill="white"/>
<path fill-rule="evenodd" clip-rule="evenodd" d="M135.197 135.045L129.576 134.911C128.758 134.892 128.409 133.964 129.022 133.364L141.336 121.312C141.759 120.9 142.29 120.92 142.687 121.316C143.684 122.313 143.176 125.221 141.761 126.678L137.113 131.106C141.439 131.992 144.692 135.818 144.692 140.403C144.692 145.651 140.787 149.893 135.551 149.893H132.385C127.116 149.893 122.803 145.53 122.803 140.262C122.803 135.592 122.803 132.167 122.803 127.497C122.803 125.658 123.798 122.548 126.062 122.548C126.49 122.548 126.837 122.895 126.837 123.322C126.837 129.385 126.837 134.2 126.837 140.262C126.837 143.634 129.596 145.761 132.969 145.761H135.197C138.551 145.761 140.558 143.362 140.558 140.403C140.558 137.865 138.792 135.74 136.422 135.185C136.027 135.102 135.617 135.054 135.197 135.045ZM116.363 140.696L116.353 139.032C116.353 137.193 117.349 134.083 119.612 134.083C120.04 134.083 120.386 134.431 120.386 134.857L120.396 140.263C120.4 142.424 119.932 144.433 118.346 147.163L115.298 152.41C114.378 154.002 111.959 156.199 110 155.068C109.63 154.855 109.493 154.373 109.716 154.01L114.939 145.521C115.842 144.052 116.372 142.422 116.362 140.695L116.363 140.696ZM91.7635 145.148L87.7984 152.412C86.8783 154.004 84.4597 156.2 82.5003 155.07C82.1303 154.855 82.0041 154.381 82.2169 154.012L84.6313 149.825C84.252 149.87 83.8652 149.895 83.4741 149.895C78.1668 149.895 73.8653 145.595 73.8653 140.291C73.8653 134.987 78.1668 130.687 83.4741 130.687C88.7814 130.687 93.083 134.987 93.083 140.291C93.083 142.007 92.5817 143.651 91.7643 145.148L91.7635 145.148ZM83.4733 134.818C86.4965 134.818 88.9479 137.269 88.9479 140.29C88.9479 143.312 86.4965 145.762 83.4733 145.762C80.45 145.762 77.9986 143.312 77.9986 140.29C77.9986 137.269 80.45 134.818 83.4733 134.818ZM47.3178 140.819C47.3178 145.831 51.3839 149.894 56.3977 149.894C61.4107 149.894 65.4893 145.831 65.4877 140.819L65.4776 122.286C65.4776 121.859 65.1302 121.511 64.703 121.511C62.44 121.511 61.4443 124.621 61.4443 126.46L61.4544 140.819C61.4561 143.595 59.1434 145.762 56.3985 145.762C53.6368 145.762 51.3519 143.579 51.3519 140.819L51.3418 134.858C51.341 134.431 50.9945 134.084 50.5673 134.084C48.3035 134.084 47.3086 137.194 47.3086 139.033L47.3178 140.819ZM113.444 140.819C113.444 145.831 109.379 149.894 104.364 149.894C99.3498 149.894 95.2846 145.831 95.2846 140.819L95.2745 126.46C95.2745 124.621 96.2702 121.511 98.5332 121.511C98.9613 121.511 99.3078 121.859 99.3078 122.286L99.3178 140.819C99.3178 143.579 101.603 145.762 104.364 145.762C107.126 145.762 109.411 143.579 109.411 140.819L109.401 139.033C109.401 137.194 110.397 134.084 112.66 134.084C113.088 134.084 113.433 134.431 113.434 134.858L113.444 140.819ZM71.8411 144.945C71.8411 146.784 70.8463 149.894 68.5824 149.894C68.1543 149.894 67.8079 149.546 67.8079 149.12C67.8045 141.15 67.8028 134.428 67.7978 126.46C67.7978 124.621 68.7935 121.511 71.0565 121.511C71.4845 121.511 71.831 121.859 71.8319 122.286C71.8352 130.255 71.8369 136.977 71.8411 144.945Z" fill="#231F20"/>
<path d="M85.7341 88.6315C90.752 88.6315 94.8198 84.5658 94.8198 79.5506C94.8198 74.5354 90.752 70.4697 85.7341 70.4697C80.7162 70.4697 76.6484 74.5354 76.6484 79.5506C76.6484 84.5658 80.7162 88.6315 85.7341 88.6315Z" fill="white"/>
<path d="M106.129 88.6315C111.147 88.6315 115.214 84.5658 115.214 79.5506C115.214 74.5354 111.147 70.4697 106.129 70.4697C101.111 70.4697 97.043 74.5354 97.043 79.5506C97.043 84.5658 101.111 88.6315 106.129 88.6315Z" fill="white"/>
<path fill-rule="evenodd" clip-rule="evenodd" d="M75.6025 84.4813C76.1322 85.5543 76.8281 86.5319 77.6567 87.3782L73.9748 90.1449C73.1848 90.7426 72.0597 90.5906 71.4617 89.8023C70.8625 89.0127 71.0145 87.8883 71.8045 87.2906L75.6025 84.48V84.4813ZM106.888 76.695C108.448 77.1123 109.372 78.7134 108.954 80.2719C108.537 81.8305 106.935 82.754 105.375 82.3367C104.233 82.0314 103.432 81.0898 103.249 79.9976L105.279 79.5828C105.621 79.5133 105.634 79.2183 105.307 78.9285L103.875 77.6597C104.581 76.8045 105.745 76.3897 106.887 76.6963L106.888 76.695ZM86.6007 76.695C88.1601 77.1123 89.0841 78.7134 88.6666 80.2719C88.249 81.8305 86.6471 82.754 85.0877 82.3367C83.9459 82.0314 83.1443 81.0898 82.9613 79.9976L84.991 79.5828C85.3338 79.5133 85.3467 79.2183 85.0194 78.9285L83.5876 77.6597C84.2938 76.8045 85.4588 76.3897 86.5994 76.6963L86.6007 76.695ZM85.8648 69.1855C80.1556 69.1855 75.529 73.8097 75.529 79.5158C75.529 85.2207 80.1556 89.8461 85.8648 89.8461C90.8922 89.8461 95.0807 86.2576 96.0086 81.5046C96.9365 86.2576 101.124 89.8461 106.152 89.8461C111.861 89.8461 116.488 85.2207 116.488 79.5158C116.488 73.8097 111.861 69.1855 106.152 69.1855C101.125 69.1855 96.9365 72.7728 96.0086 77.5258C95.0807 72.7728 90.8922 69.1855 85.8648 69.1855ZM85.8648 71.1717C90.4773 71.1717 94.2133 74.9071 94.2133 79.5158C94.2133 84.1245 90.476 87.8612 85.8648 87.8612C81.2524 87.8612 77.5163 84.1245 77.5163 79.5158C77.5163 74.9071 81.2537 71.1717 85.8648 71.1717ZM106.152 71.1717C110.765 71.1717 114.501 74.9071 114.501 79.5158C114.501 84.1245 110.763 87.8612 106.152 87.8612C101.54 87.8612 97.8038 84.1245 97.8038 79.5158C97.8038 74.9071 101.541 71.1717 106.152 71.1717Z" fill="#231F20"/>
<path fill-rule="evenodd" clip-rule="evenodd" d="M100.539 88.1904L96.0489 108.619L91.5486 88.1415C93.822 86.6422 95.4664 84.2695 96.0064 81.5028C96.5529 84.2992 98.2269 86.6937 100.538 88.1891L100.539 88.1904ZM114.825 67.5401C110.658 65.2242 107.929 64.718 102.718 66.0344C106.922 61.3561 113.259 58.6795 118.793 61.3536C124.502 64.1126 120.508 70.6985 114.825 67.5401ZM116.611 57.0167C109.966 57.0798 106.4 58.2957 101.374 63.2663C102.61 55.0536 107.886 47.7568 116.398 47.208C125.182 46.6413 125.675 56.9304 116.611 57.0167ZM103.562 48.5541C107.699 48.8555 109.201 46.564 108.072 45.2321C106.967 43.9286 103.913 44.6847 103.562 48.5541ZM104.515 41.0743C101.723 42.124 100.438 43.1854 99.2206 46.0565C98.2514 42.401 99.1523 38.511 102.645 36.9692C106.248 35.3784 108.323 39.6432 104.515 41.0756V41.0743ZM96.7539 52.2521C98.5195 54.2937 99.0414 55.7067 98.6071 58.5752C101.226 55.9888 102.428 52.4183 100.335 49.6773C98.1754 46.8487 94.3452 49.4673 96.7526 52.2521H96.7539ZM77.112 67.4526C82.2542 64.6008 85.6217 63.9799 92.0461 65.608C86.8666 59.8324 79.0542 56.5246 72.2264 59.8169C65.1808 63.2148 70.0987 71.3412 77.1133 67.4513L77.112 67.4526ZM80.6046 55.3151C79.6354 50.4862 76.0462 49.533 74.626 51.2654C73.2355 52.9605 75.2717 56.2013 80.6046 55.3151Z" fill="#FF6060"/>
<path fill-rule="evenodd" clip-rule="evenodd" d="M94.7603 47.9023C92.9728 54.8436 93.4664 58.901 98.1652 65.532C88.4184 61.9383 80.9307 54.3928 82.6435 45.3699C84.4117 36.0585 97.1974 38.4337 94.759 47.9023H94.7603Z" fill="#35B994"/>
</g>
<defs>
<clipPath id="clip0_4929_33812">
<rect width="192" height="192" fill="white"/>
</clipPath>
</defs>
</svg>
