<svg width="192" height="192" viewBox="0 0 192 192" fill="none" xmlns="http://www.w3.org/2000/svg">
<g clip-path="url(#clip0_4929_33757)">
<path d="M96 192C149.019 192 192 149.019 192 96C192 42.9807 149.019 0 96 0C42.9807 0 0 42.9807 0 96C0 149.019 42.9807 192 96 192Z" fill="white"/>
<path d="M96.2157 161.215C82.5957 161.215 68.9757 161.235 55.3557 161.215C44.2657 161.195 36.6557 154.175 36.3657 143.125C35.8457 123.535 35.9457 103.935 36.3257 84.3448C36.4357 78.6248 38.7757 73.9548 42.9757 70.2848C56.2957 58.6548 69.6557 47.0648 83.1057 35.5848C90.2757 29.4648 99.2857 29.0848 106.676 35.0248C119.216 45.1048 131.436 55.5848 143.786 65.8948C145.536 67.3548 147.256 68.8548 149.006 70.3148C153.776 74.2948 156.026 79.3248 155.996 85.5648C155.906 104.595 156.016 123.625 155.966 142.645C155.936 153.495 148.206 161.165 137.406 161.185C123.676 161.205 109.936 161.185 96.2057 161.185L96.2157 161.215ZM124.086 112.895C124.086 106.525 124.106 100.145 124.086 93.7748C124.066 89.5348 122.186 87.2248 118.816 87.1748C115.596 87.1248 113.516 89.5948 113.506 93.7548C113.466 106.505 113.466 119.245 113.486 131.995C113.486 136.135 115.546 138.455 118.956 138.375C122.116 138.305 124.066 135.955 124.086 132.025C124.126 125.655 124.096 119.275 124.086 112.905V112.895ZM78.4857 113.355C78.5557 113.355 78.6257 113.355 78.6857 113.355C78.6857 106.405 78.7657 99.4648 78.6557 92.5148C78.6057 89.2048 76.5557 87.2148 73.6457 87.1748C70.7057 87.1348 68.6257 89.0648 68.2257 92.2248C68.1557 92.7848 68.1857 93.3648 68.1857 93.9348C68.1857 106.585 68.1857 119.235 68.1957 131.875C68.1957 132.555 68.1957 133.255 68.3257 133.915C68.8857 136.765 71.1757 138.615 73.8757 138.465C76.6557 138.305 78.4457 136.335 78.4757 133.165C78.5257 126.555 78.4857 119.955 78.4857 113.345V113.355ZM107.266 109.375C107.006 107.475 106.296 105.845 104.476 104.965C102.456 103.985 100.336 103.975 98.7657 105.615C96.8257 107.615 95.4757 107.455 93.4657 105.585C91.2557 103.545 88.3057 103.955 86.4457 106.095C84.4957 108.345 84.5957 110.785 86.5657 112.845C88.9957 115.385 91.7057 117.655 94.2957 120.035C95.3057 120.965 96.2557 120.935 97.3057 120.035C99.9057 117.825 102.546 115.665 105.186 113.505C106.496 112.425 107.136 111.035 107.256 109.375H107.266Z" fill="#7DC142"/>
</g>
<defs>
<clipPath id="clip0_4929_33757">
<rect width="192" height="192" fill="white"/>
</clipPath>
</defs>
</svg>
