<svg width="192" height="192" viewBox="0 0 192 192" fill="none" xmlns="http://www.w3.org/2000/svg">
<g clip-path="url(#clip0_4929_33784)">
<path d="M96 192C149.019 192 192 149.019 192 96C192 42.9807 149.019 0 96 0C42.9807 0 0 42.9807 0 96C0 149.019 42.9807 192 96 192Z" fill="#008AFE"/>
<path fill-rule="evenodd" clip-rule="evenodd" d="M120.04 91.8103C119.278 92.1186 118.603 92.5769 117.982 93.206C118.322 93.5042 118.659 93.6305 118.992 93.7555L119.082 93.7893C123.161 95.3392 126.594 97.7515 129.114 101.36C131.089 104.184 132.243 107.342 132.768 110.73C133.389 114.746 133.264 118.762 132.201 122.67C130.131 130.299 125.265 135.415 117.803 138.011C114.399 139.198 110.887 139.994 107.304 140.448C104.975 140.74 102.633 140.873 100.288 140.873C87.3761 140.881 74.4605 140.877 61.5491 140.873C60.97 140.873 60.3867 140.844 59.8118 140.785C59.241 140.727 58.9952 140.481 58.9368 139.906C58.8785 139.331 58.8535 138.748 58.8535 138.169V53.2427C58.8535 52.9053 58.8535 52.5636 58.8994 52.2303C58.9868 51.597 59.3618 51.2346 59.9868 51.1471C60.1734 51.1209 60.3652 51.123 60.5561 51.1251C60.6081 51.1257 60.66 51.1262 60.7117 51.1262C64.0625 51.1262 67.4132 51.1249 70.764 51.1235C79.1414 51.1201 87.5188 51.1167 95.8962 51.1346C101.5 51.1471 107.041 51.7637 112.474 53.1636C115.628 53.976 118.636 55.1842 121.302 57.0924C125.315 59.9672 127.76 63.871 128.739 68.7039C129.118 70.5788 129.368 72.4703 129.381 74.3826C129.402 78.0448 128.952 81.6112 127.148 84.8942C125.756 87.4232 123.856 89.4772 121.444 91.0604C120.998 91.352 120.536 91.6103 120.04 91.8103ZM82.1016 113.242V103.888C82.1016 103.551 82.1016 103.209 82.1349 102.876C82.2182 102.114 82.6307 101.709 83.3973 101.618C83.5401 101.6 83.686 101.6 83.8323 101.601H83.8324L83.9056 101.601C85.3065 101.601 86.7078 101.597 88.1093 101.593H88.1095C91.4968 101.582 94.8849 101.572 98.271 101.622C100.742 101.655 103.1 102.297 105.225 103.626C107.666 105.151 109.074 107.388 109.562 110.192C110.041 112.942 109.728 115.65 108.816 118.262C107.916 120.841 106.12 122.612 103.587 123.662C101.408 124.566 99.1501 124.957 96.8003 124.941C93.6371 124.922 90.4764 124.927 87.3143 124.932C86.3657 124.934 85.417 124.936 84.468 124.937C84.0306 124.937 83.5973 124.932 83.1681 124.832C82.539 124.687 82.2141 124.337 82.1349 123.687C82.1016 123.399 82.1016 123.108 82.1016 122.816V113.242ZM82.1044 69.0006V76.175L82.1002 76.1834C82.0992 76.8229 82.1018 77.4624 82.1044 78.102C82.1122 80.0208 82.12 81.9402 82.0294 83.8619C81.9627 85.2201 82.4502 85.6867 83.8126 85.7617H83.9584C85.3709 85.7617 86.7835 85.7749 88.196 85.788C90.9165 85.8133 93.6369 85.8386 96.3573 85.7701C97.4697 85.7409 98.5738 85.6242 99.6529 85.3326C103.148 84.3827 105.348 82.1995 106.027 78.5915C106.315 77.0541 106.244 75.5126 105.973 73.9794C105.452 71.0255 103.765 69.0006 101.019 67.8424C99.4696 67.1883 97.8405 66.8883 96.149 66.8967C93.2161 66.9118 90.2809 66.9093 87.3451 66.9068C86.2441 66.9059 85.1429 66.905 84.0417 66.905C83.7751 66.905 83.5084 66.905 83.2459 66.9341C82.596 67.005 82.2377 67.3466 82.1502 67.9882C82.1044 68.3215 82.1044 68.6632 82.1044 69.0006Z" fill="white"/>
</g>
<defs>
<clipPath id="clip0_4929_33784">
<rect width="192" height="192" fill="white"/>
</clipPath>
</defs>
</svg>
