<svg width="192" height="192" viewBox="0 0 192 192" fill="none" xmlns="http://www.w3.org/2000/svg">
<g clip-path="url(#clip0_4929_33701)">
<path d="M96 192C149.019 192 192 149.019 192 96C192 42.9807 149.019 0 96 0C42.9807 0 0 42.9807 0 96C0 149.019 42.9807 192 96 192Z" fill="#0097DC"/>
<path d="M70.0502 130.4C65.2602 132.58 60.5602 134.97 55.8802 137.38C54.4002 138.15 53.5702 138.34 52.6602 136.49C45.2702 121.45 37.5102 106.6 30.3602 91.4499C23.3202 76.5299 33.8902 60.8699 49.9202 61.8699C52.3902 62.0199 54.7102 62.6999 56.8102 63.8999C58.7202 65.0099 59.4602 64.8499 59.9702 62.4999C62.1802 52.4399 70.9101 45.8299 81.2402 45.9999C86.6502 46.0999 90.4302 49.0199 94.2602 53.3399C93.0602 41.3399 100.22 35.7599 109.19 31.4399C113.34 29.4299 117.5 27.4399 121.55 25.2499C123.38 24.2799 124.12 24.6699 124.96 26.4499C127.03 30.9199 129.18 35.3599 131.57 39.6599C132.81 41.8899 132.64 43.0299 130.18 44.0599C126.76 45.52 123.45 47.2699 120.15 49.0099C118.09 50.1099 116.4 51.6299 117.7 54.2699C119.04 57.0099 121.3 56.2399 123.36 55.3199C126.56 53.8599 129.74 52.3499 132.8 50.6699C134.52 49.7499 135.26 50.1199 136.02 51.7999C137.58 55.1699 139.24 58.5199 141.04 61.7799C141.99 63.4999 141.5 64.2299 139.88 64.9699C136.3 66.6199 132.77 68.4299 129.26 70.2099C127.05 71.3399 125.31 72.7399 126.73 75.6199C128.1 78.4199 130.2 77.7499 132.3 76.7499C136.35 74.8199 140.42 72.8799 144.39 70.7899C146.01 69.9399 146.8 70.0799 147.6 71.7999C149.84 76.5499 152.21 81.2399 154.61 85.9299C155.32 87.3199 155.38 88.1799 153.72 88.9599C148.35 91.4699 143.12 94.2899 137.71 96.66C131.57 99.3599 125.2 99.7899 118.81 97.2999C118.63 97.4699 118.45 97.63 118.25 97.7999C118.27 97.8999 118.32 97.9899 118.35 98.0999C118.99 100.48 121.79 102.8 120.71 104.85C119.8 106.59 116.69 107.2 114.54 108.28C111.32 109.91 107.99 111.39 104.86 113.17C102.91 114.25 102.11 113.77 101.19 111.88C95.0002 99.2999 88.6902 86.7899 82.4202 74.2599C81.7402 72.8899 81.0302 71.5099 80.2202 70.2099C79.4502 68.9699 78.3302 68.4099 76.8602 69.1299C75.5002 69.8099 74.9002 70.9799 75.2902 72.3899C75.6502 73.7499 76.2402 75.0699 76.8702 76.3399C83.1602 88.9799 89.4002 101.66 95.8502 114.23C97.0201 116.52 96.5802 117.33 94.4402 118.31C89.8502 120.4 85.2902 122.59 80.8902 125.04C78.4902 126.37 77.5902 125.61 76.5302 123.45C70.4002 110.97 64.1602 98.5299 57.9402 86.0999C57.2502 84.7299 56.4802 83.3999 55.6502 82.1199C54.9102 80.95 53.7602 80.5999 52.5002 81.1699C51.2602 81.7199 50.5802 82.8099 50.9102 84.0999C51.3102 85.6799 51.9202 87.2299 52.6502 88.6899C58.8702 101.25 65.0702 113.83 71.4702 126.3C72.6402 128.6 72.2102 129.4 70.0502 130.39V130.4Z" fill="white"/>
<path d="M163.41 113.821C158.07 141.581 133.83 163.701 105.46 166.671C102.75 166.961 100 167.141 98.6103 167.271C86.7803 167.101 76.8403 164.751 67.4803 160.021C66.0303 159.291 64.0903 158.711 65.9103 156.561C67.2003 155.081 66.8803 151.641 70.8603 153.621C105.65 170.881 146.92 151.701 155.94 114.211C156.23 113.031 156.6 111.861 156.66 110.671C156.77 108.721 157.74 108.491 159.46 108.641C164.25 109.041 164.34 109.051 163.41 113.821Z" fill="white"/>
</g>
<defs>
<clipPath id="clip0_4929_33701">
<rect width="192" height="192" fill="white"/>
</clipPath>
</defs>
</svg>
