<svg width="192" height="192" viewBox="0 0 192 192" fill="none" xmlns="http://www.w3.org/2000/svg">
<g clip-path="url(#clip0_4929_33730)">
<path d="M96 192C149.019 192 192 149.019 192 96C192 42.9807 149.019 0 96 0C42.9807 0 0 42.9807 0 96C0 149.019 42.9807 192 96 192Z" fill="#293275"/>
<path d="M150.37 92.5078H128.98V101.078H150.37V92.5078Z" fill="white"/>
<path d="M139.679 77.3287L134.234 82.7734L139.679 88.2182L145.124 82.7734L139.679 77.3287Z" fill="white"/>
<path d="M72.3158 142.754L66.8711 148.199L72.3158 153.644L77.7605 148.199L72.3158 142.754Z" fill="white"/>
<path d="M152.519 107.359V126.779H148.239C145.879 126.779 143.959 124.859 143.959 122.499V111.789L135.379 113.939V122.519C135.299 124.879 133.319 126.729 130.949 126.649C128.699 126.569 126.899 124.769 126.819 122.519V111.789L118.259 113.939V118.229C118.259 122.959 114.429 126.789 109.699 126.789C104.969 126.789 101.139 122.959 101.139 118.229V107.509H101.099L92.5594 109.669V110.519C92.5394 119.489 85.2794 126.769 76.2994 126.799H48.8094L46.6094 135.369H76.2994C83.4494 135.369 90.2494 132.289 94.9594 126.909C99.6994 135.059 110.149 137.819 118.299 133.079C119.389 132.449 120.409 131.689 121.329 130.839C125.869 136.239 133.919 136.939 139.319 132.399C139.319 132.399 139.329 132.389 139.339 132.379L139.699 132.069C142.039 134.189 145.089 135.369 148.259 135.369H161.099V105.229L152.519 107.369V107.359Z" fill="white"/>
<path d="M56.6406 89.8496C70.862 89.8496 82.3906 78.3209 82.3906 64.0996C82.3906 49.8783 70.862 38.3496 56.6406 38.3496C42.4193 38.3496 30.8906 49.8783 30.8906 64.0996C30.8906 78.3209 42.4193 89.8496 56.6406 89.8496Z" fill="url(#paint0_linear_4929_33730)"/>
<path d="M67.3789 89.8496C81.6002 89.8496 93.1289 78.3209 93.1289 64.0996C93.1289 49.8783 81.6002 38.3496 67.3789 38.3496C53.1576 38.3496 41.6289 49.8783 41.6289 64.0996C41.6289 78.3209 53.1576 89.8496 67.3789 89.8496Z" fill="url(#paint1_linear_4929_33730)"/>
<path d="M78.1211 89.8496C92.3424 89.8496 103.871 78.3209 103.871 64.0996C103.871 49.8783 92.3424 38.3496 78.1211 38.3496C63.8998 38.3496 52.3711 49.8783 52.3711 64.0996C52.3711 78.3209 63.8998 89.8496 78.1211 89.8496Z" fill="url(#paint2_linear_4929_33730)"/>
</g>
<defs>
<linearGradient id="paint0_linear_4929_33730" x1="28.5006" y1="64.0996" x2="80.0006" y2="64.0996" gradientUnits="userSpaceOnUse">
<stop offset="0.06" stop-color="#1F9ED6"/>
<stop offset="0.54" stop-color="#21305D"/>
</linearGradient>
<linearGradient id="paint1_linear_4929_33730" x1="41.6289" y1="64.0996" x2="93.1289" y2="64.0996" gradientUnits="userSpaceOnUse">
<stop stop-color="#EDC618"/>
<stop offset="0.11" stop-color="#EAC01A"/>
<stop offset="0.26" stop-color="#E2B022"/>
<stop offset="0.42" stop-color="#D6952E"/>
<stop offset="0.51" stop-color="#CE8437"/>
</linearGradient>
<linearGradient id="paint2_linear_4929_33730" x1="52.3711" y1="64.0996" x2="103.871" y2="64.0996" gradientUnits="userSpaceOnUse">
<stop stop-color="#21305D"/>
<stop offset="1" stop-color="#1F9ED6"/>
</linearGradient>
<clipPath id="clip0_4929_33730">
<rect width="192" height="192" fill="white"/>
</clipPath>
</defs>
</svg>
