<svg width="192" height="192" viewBox="0 0 192 192" fill="none" xmlns="http://www.w3.org/2000/svg">
<g clip-path="url(#clip0_4929_34319)">
<path d="M96 192C149.019 192 192 149.019 192 96C192 42.9807 149.019 0 96 0C42.9807 0 0 42.9807 0 96C0 149.019 42.9807 192 96 192Z" fill="white"/>
<g clip-path="url(#clip1_4929_34319)">
<path d="M130.206 70.3716C129.585 69.7075 129.396 69.0867 129.407 68.239C129.461 64.2763 129.531 60.3135 129.461 56.3561C129.434 54.8229 129.79 53.7971 131.167 52.8793C133.931 51.0437 135.011 48.2416 134.46 45.0131C133.839 41.3851 131.145 38.745 127.901 38.1944C124.381 37.5951 121.071 39.1931 119.144 42.5296C118.647 43.3881 118.291 44.0035 117.081 43.9819C112.514 43.8956 107.946 43.9226 103.384 43.9819C102.245 43.9981 101.792 43.658 101.5 42.4973C100.874 40.0354 98.1907 38 95.9285 38C93.5746 38 91.0048 39.9274 90.3299 42.4595C90.0006 43.6904 89.4445 44.0143 88.2459 43.9981C83.3438 43.9441 78.4416 43.9549 73.5394 44.0089C72.4111 44.0197 71.7632 43.7444 71.2125 42.6538C69.7278 39.7222 67.131 38.162 63.9187 38.0756C60.2474 37.973 56.6896 41.1313 56.0471 44.6622C55.3183 48.6682 57.1701 52.4366 60.8791 53.8187C62.299 54.3478 62.4718 55.082 62.461 56.3291C62.434 59.752 62.4988 63.1749 62.5311 66.5924C63.3518 66.425 63.8215 66.8839 64.2912 67.359C63.8269 66.8785 63.3518 66.425 62.5311 66.5924C62.7417 68.0825 62.4232 69.1299 60.9817 70.0908C58.9463 71.4406 58.1635 73.6649 58.6278 76.1106C59.1353 78.7938 60.7927 80.8238 63.4598 81.1369C65.6949 81.3961 66.2672 82.7188 66.942 84.3115C67.2012 84.9269 67.5035 85.5262 67.8166 86.1201C73.6204 96.9826 82.3342 104.849 92.9969 110.766C94.8811 111.808 96.5278 112.51 98.3796 110.939C98.8115 110.76 99.2704 110.631 99.6645 110.393C105.922 106.63 111.682 102.36 116.585 96.7936C120.315 92.5555 123.209 87.9449 125.649 82.9617C126.135 81.9737 126.794 81.4879 127.782 81.0937C132.614 79.1609 133.753 74.1508 130.211 70.3824L130.206 70.3716ZM126.481 41.1313C129.418 41.1583 131.772 43.4744 131.75 46.3143C131.723 49.2674 129.175 51.5943 126.119 51.6429C122.793 51.6969 121.12 48.5278 121.055 46.2927C120.974 43.3773 123.42 41.1043 126.481 41.1313ZM95.8745 41.0935C97.8235 41.0828 98.7845 42.0653 98.7683 44.0521C98.7575 45.7744 97.6184 47.0053 95.9933 47.0485C94.4222 47.0917 92.8512 45.6232 92.8026 44.0683C92.7594 42.4757 94.1739 41.0989 95.8745 41.0882V41.0935ZM94.3791 59.9032C94.3791 60.5079 94.3521 61.1125 94.3899 61.7172C94.514 63.758 94.4762 65.3506 91.9442 66.3764C89.5471 67.3482 88.5267 69.9073 88.7534 72.6175C88.991 75.4141 90.5729 77.4171 93.0887 78.4429C94.2279 78.9072 94.4546 79.4363 94.4114 80.4729C94.3575 81.747 94.1253 83.1021 94.4492 84.2899C95.3832 87.6965 92.8134 89.0949 90.9454 90.9143C90.3839 91.4596 89.7846 90.9413 89.2555 90.7577C81.9293 88.1932 77.4752 82.9995 76.4062 75.4087C75.3427 67.8611 78.339 61.7712 84.5585 57.3117C87.1338 55.4653 90.0708 54.7149 93.1589 54.2938C94.3035 54.1372 94.4006 54.5907 94.3899 55.4599C94.3683 56.9392 94.3845 58.4185 94.3845 59.8978L94.3791 59.9032ZM95.9501 90.9197C97.6022 90.9197 98.8169 92.2856 98.7899 94.105C98.7683 95.8056 97.37 97.2039 95.7558 97.1284C94.3683 97.0636 92.835 95.4439 92.8242 94.0186C92.8134 92.4745 94.3845 90.9143 95.9447 90.9197H95.9501ZM95.5884 76.2887C93.2129 76.2456 91.4313 74.4261 91.4583 72.0668C91.4799 69.7885 93.4343 67.7855 95.6208 67.8017C97.9045 67.8179 100.042 69.9883 99.9507 72.191C99.8589 74.4531 97.8559 76.3319 95.5884 76.2941V76.2887ZM77.4212 46.8595C81.5729 46.8811 85.7409 46.7138 89.8764 46.9567C91.7174 47.0647 92.8674 48.9219 94.2225 50.0827C94.7516 50.5308 94.0821 51.1894 93.2075 51.2326C88.2621 51.481 84.0402 53.403 80.4176 56.7557C78.9923 58.073 77.7883 59.5793 76.1903 61.5336C76.1903 56.6639 76.2011 52.334 76.1795 48.0095C76.1795 47.1187 76.5952 46.8595 77.4158 46.8649L77.4212 46.8595ZM63.8377 51.6645C61.3164 51.5997 58.6764 49.2188 58.6656 47.0053C58.6494 43.2045 60.6361 41.0504 64.1346 41.0828C67.0446 41.1097 69.3607 43.4205 69.3553 46.2873C69.3553 49.4078 66.9528 51.7401 63.8377 51.6591V51.6645ZM66.4939 78.6372C65.1388 79.1771 63.7351 79.107 62.5257 78.1298C60.9979 76.9042 60.5282 75.128 61.257 73.4759C62.0614 71.6457 63.6325 70.8899 66.0566 71.1598C67.5845 71.8509 68.4483 73.0818 68.9396 74.6367C68.8424 76.4075 68.2431 77.9408 66.4993 78.6372H66.4939ZM75.4938 92.5501C72.9294 89.1866 70.7428 85.6126 68.972 81.7686C68.5509 80.8562 68.5347 80.2677 69.3607 79.5389C70.4189 78.6049 70.6996 77.158 71.2449 75.8946C71.6768 72.1316 69.5011 69.2648 65.7111 68.6008C65.6463 68.4766 65.5815 68.3524 65.5167 68.2282C65.4735 64.2169 65.4519 60.2001 65.3656 56.1888C65.3386 54.9902 65.5653 54.3316 66.8988 53.8511C69.4849 52.9171 71.2233 51.0113 71.8064 48.2039C71.909 47.7126 71.9468 46.9675 72.627 47.0053C73.4854 47.0539 73.3181 47.8583 73.3181 48.4252C73.3181 55.6003 73.7284 62.8132 73.1723 69.9505C72.3787 80.1327 76.417 87.3888 84.958 92.4637C85.9136 93.0306 86.9826 93.4085 88.1002 93.9214C87.4037 94.0294 86.826 94.1212 86.243 94.213C83.7649 94.2022 81.2868 94.078 78.8195 94.213C77.2862 94.2994 76.3792 93.7109 75.4884 92.5447L75.4938 92.5501ZM86.7397 95.2981C86.6641 95.1902 86.5885 95.0768 86.5183 94.9634C86.5831 95.0768 86.6587 95.1902 86.7397 95.2981ZM93.6232 107.721C88.6401 104.914 84.0726 101.577 79.6509 97.1392C82.5663 97.1392 85.012 97.1392 87.4523 97.1392C87.5657 96.4535 87.2148 95.9568 86.8638 95.4601C87.2148 95.9568 87.5657 96.4535 87.4577 97.1392C89.8602 96.8098 91.712 97.9382 93.5584 99.2717C94.3089 99.8116 94.3359 100.389 94.3629 101.124C94.433 103.11 94.1577 105.108 94.5032 107.089C94.5842 107.813 94.3899 108.142 93.6286 107.716L93.6232 107.721ZM101.668 105.621C100.879 106.134 100.015 106.533 99.265 107.084C97.7749 108.18 97.4672 107.521 97.5536 106.047C97.6076 105.108 97.559 104.168 97.5536 103.224C97.5428 98.9748 99.3244 97.2093 103.633 97.2039C106.321 97.2039 109.005 97.2039 112.179 97.2039C108.789 100.681 105.306 103.251 101.662 105.621H101.668ZM113.669 93.4139C113.669 93.9052 113.264 94.0726 112.827 94.0726C109.318 94.078 105.803 94.0726 102.294 94.0726C106.796 91.9077 110.489 88.9491 113.68 84.3978C113.68 87.7721 113.691 90.5903 113.669 93.4085V93.4139ZM102.661 90.099C100.593 90.9953 97.5536 89.0247 97.5212 86.7625C97.505 85.6882 97.5212 84.6138 97.5212 83.5394C97.5212 83.2047 97.5374 82.8646 97.5212 82.5298C97.424 80.4459 97.5752 78.8748 99.7671 77.3793C104.005 74.4963 103.384 68.59 98.8979 66.0579C97.8559 65.4694 97.4888 64.8647 97.5158 63.7202C97.586 61.1017 97.5752 58.4833 97.5266 55.8594C97.505 54.6609 97.8937 54.3586 99.0761 54.6123C106.775 56.286 112.957 63.2721 113.669 71.1706C114.393 79.2041 109.879 86.9623 102.661 90.0936V90.099ZM122.459 82.7404C120.947 85.7746 119.354 88.7331 116.892 91.7565C116.892 86.1417 116.833 81.002 116.909 75.8622C116.973 71.5215 116.655 67.2726 114.668 63.3261C111.526 57.0742 106.365 53.3976 99.7185 51.5619C98.9897 51.3622 97.8181 51.7617 97.5806 50.5416C97.3646 49.4348 98.6226 49.451 98.9897 48.8355C100.291 46.6274 102.364 46.8757 104.432 46.8973C108.529 46.9405 112.622 46.9243 116.72 46.9243C117.551 46.9243 118.274 46.8865 118.501 48.0257C119.241 51.7725 121.778 53.7107 125.342 54.4881C125.968 54.6231 126.545 54.5745 126.529 55.4491C126.443 59.3363 126.718 63.2289 126.378 67.1215C126.286 68.1743 125.871 68.482 124.802 68.6548C122.037 69.0975 120.213 70.8197 119.543 73.5515C118.911 76.1322 119.667 78.4375 121.811 79.9762C123.042 80.8616 123.079 81.5202 122.469 82.7458L122.459 82.7404ZM125.763 78.9342C123.652 78.9234 121.757 77.0284 121.789 74.966C121.821 72.9199 123.819 71.0141 125.865 71.0734C127.895 71.1328 129.742 72.9954 129.72 74.966C129.698 77.131 127.89 78.9504 125.763 78.9342Z" fill="url(#paint0_linear_4929_34319)"/>
<path d="M102.471 134.246C99.9177 134.861 99.1133 134.246 99.0863 131.67C99.0809 130.931 99.1133 130.191 99.0539 129.451C98.9783 128.463 98.4007 127.853 97.4289 127.664C96.4463 127.475 95.739 127.94 95.2153 128.723C94.778 129.37 94.8158 130.121 94.8212 130.866C94.8266 134.159 94.8212 137.453 94.8212 140.746C94.8212 144.239 94.8104 147.737 94.8212 151.23C94.8266 152.731 95.3017 153.995 97.0509 153.946C98.6814 153.903 99.1025 152.715 99.0863 151.268C99.0593 148.984 99.0647 146.695 99.0863 144.412C99.1133 140.784 101.456 138.187 104.744 138.117C108.124 138.041 110.591 140.649 110.645 144.401C110.678 146.755 110.624 149.103 110.661 151.457C110.683 152.78 111.104 153.924 112.675 153.962C114.333 154 114.846 152.861 114.862 151.425C114.889 148.871 114.91 146.317 114.862 143.764C114.738 137.399 108.669 132.745 102.477 134.24L102.471 134.246Z" fill="#7FCCC2"/>
<path d="M63.9342 141.383C62.9408 136.702 57.6337 133.274 52.8773 134.062C46.809 135.066 43.8234 140.336 44.1582 144.325C44.6009 149.578 48.3639 153.568 53.8221 153.968C56.527 154.167 56.8509 153.557 56.1166 150.944C55.7603 149.681 55.0099 149.686 54.0111 149.67C51.6032 149.632 49.8594 148.347 49.0171 146.22C48.1587 144.061 48.3747 141.858 50.0591 140.012C51.6464 138.273 54.0111 137.598 56.095 138.397C58.5191 139.321 59.9174 141.129 60.0308 143.721C60.1442 146.334 60.0416 148.958 60.0848 151.576C60.1064 152.947 60.7003 154 62.212 153.946C63.5779 153.903 64.1825 152.963 64.1825 151.63C64.1825 150.151 64.1825 148.677 64.1825 147.197C64.2095 147.197 64.2419 147.197 64.2689 147.197C64.1717 145.254 64.3337 143.256 63.9342 141.383Z" fill="#7FCCC2"/>
<path d="M146.44 139.331C144.578 135.914 141.635 134.073 137.802 134.008C133.958 133.943 131.048 135.757 128.959 139.029C127.339 141.572 127.874 144.347 127.744 146.814C127.744 148.472 127.771 149.886 127.739 151.295C127.701 152.753 128.127 153.951 129.763 153.946C131.372 153.946 131.858 152.747 131.863 151.311C131.863 149.092 131.853 146.874 131.863 144.66C131.89 140.865 134.212 138.23 137.559 138.187C141.02 138.138 143.331 140.735 143.357 144.719C143.368 146.868 143.341 149.022 143.368 151.171C143.384 152.65 143.833 154.011 145.566 153.935C147.121 153.87 147.849 152.726 147.839 151.155C147.822 149.071 147.747 146.981 147.86 144.903C147.974 142.868 147.39 141.064 146.446 139.331H146.44Z" fill="#7FCCC2"/>
<path d="M90.4361 134.262C90.2579 134.278 90.123 134.278 89.9934 134.31C89.7343 134.375 89.4751 134.445 89.2268 134.537C85.4152 135.979 83.0991 138.802 82.7265 142.765C82.4188 146.053 81.393 148.412 78.1105 149.535C76.9066 149.945 76.6042 151.09 77.0577 152.213C77.495 153.304 78.3481 153.854 79.6384 153.525C83.0127 152.661 86.4302 149.19 86.6731 145.729C86.9161 142.198 87.9526 139.493 91.5267 138.187C92.4661 137.841 92.871 136.864 92.5093 135.817C92.1745 134.839 91.4565 134.289 90.4307 134.267L90.4361 134.262Z" fill="#7FCCC2"/>
<path d="M77.0414 138.386C78.3047 137.928 78.9526 137.026 78.4991 135.736C78.024 134.375 76.9172 134.013 75.5567 134.483C73.1218 135.325 71.2538 136.826 69.9149 139.051C68.3654 141.631 68.5436 144.444 68.5706 147.257C68.5706 148.331 68.5868 149.406 68.5706 150.475C68.5382 152.1 68.6138 153.703 70.6923 153.957C72.1014 154.13 72.8897 152.834 72.8951 150.577C72.9004 148.698 72.9706 146.82 72.8789 144.946C72.7223 141.745 73.9694 139.504 77.0414 138.386Z" fill="#7FCCC2"/>
<path d="M122.83 136.405C122.814 135.012 122.117 133.981 120.686 134.013C119.272 134.046 118.629 135.05 118.635 136.481C118.651 141.442 118.646 146.398 118.635 151.36C118.635 152.823 119.164 153.973 120.757 153.951C122.355 153.93 122.824 152.699 122.835 151.284C122.846 148.806 122.835 146.323 122.835 143.845C122.835 141.367 122.857 138.883 122.824 136.405H122.83Z" fill="#7FCCC2"/>
<path d="M122.522 129.473C122.403 128.453 121.799 127.783 120.649 127.805C119.407 127.832 118.77 128.544 118.792 129.689C118.813 130.871 119.655 131.4 120.93 131.552C121.81 131.217 122.657 130.682 122.517 129.473H122.522Z" fill="#7FCCC2"/>
</g>
</g>
<defs>
<linearGradient id="paint0_linear_4929_34319" x1="117.211" y1="37.3683" x2="61.1167" y2="96.3563" gradientUnits="userSpaceOnUse">
<stop stop-color="#73C386"/>
<stop offset="0.35" stop-color="#7FCCC2"/>
<stop offset="1" stop-color="#4E67AE"/>
</linearGradient>
<clipPath id="clip0_4929_34319">
<rect width="192" height="192" fill="white"/>
</clipPath>
<clipPath id="clip1_4929_34319">
<rect width="103.739" height="116" fill="white" transform="translate(44.1309 38)"/>
</clipPath>
</defs>
</svg>
