<svg width="192" height="192" viewBox="0 0 192 192" fill="none" xmlns="http://www.w3.org/2000/svg">
<g clip-path="url(#clip0_4929_34230)">
<path d="M96 192C149.019 192 192 149.019 192 96C192 42.9807 149.019 0 96 0C42.9807 0 0 42.9807 0 96C0 149.019 42.9807 192 96 192Z" fill="white"/>
<path d="M72.8955 138.715C72.6897 139.497 72.7015 140.415 72.2486 140.885C71.7722 141.379 70.8253 141.038 70.0902 141.044C65.2676 141.062 60.445 141.05 55.6282 141.056C54.0874 141.056 53.4639 141.467 53.0228 142.973C52.4171 145.037 51.876 147.119 51.3114 149.195C51.1232 149.895 50.888 150.583 50.8821 151.324C50.8821 151.948 51.1115 152.283 51.7937 152.283C57.9807 152.271 64.1619 152.271 70.349 152.283C71.0547 152.283 71.4017 151.842 71.7075 151.33C72.2015 150.513 72.3603 149.578 72.6015 148.684C74.0777 143.197 75.5303 137.703 77.0065 132.216C77.4241 130.669 78.071 129.252 79.5942 128.458C80.4235 128.029 81.3233 127.852 82.2408 127.852C96.3734 127.841 110.512 127.847 124.644 127.829C125.144 127.829 125.186 127.982 125.056 128.388C124.862 128.987 124.868 129.805 124.462 130.14C124.092 130.44 123.292 130.228 122.686 130.228C110.577 130.228 98.4612 130.228 86.3518 130.228C85.9754 130.228 85.599 130.228 85.2226 130.24C84.0816 130.27 83.37 130.711 83.0524 131.781C82.4055 133.951 81.8409 136.151 81.2351 138.333C81.1116 138.78 81.4233 138.697 81.6703 138.697C83.4817 138.697 85.2932 138.697 87.1046 138.697C89.2689 138.697 91.4332 138.697 93.5975 138.703C93.9444 138.703 94.3032 138.739 94.6443 138.809C96.1499 139.109 96.8439 140.062 96.6851 141.591C96.4969 143.42 95.8441 145.137 95.403 146.908C95.0854 148.178 94.7325 149.442 94.4267 150.713C94.2973 151.26 94.1856 151.871 94.8149 152.218C95.2736 152.471 95.8794 152.142 96.3146 151.466C96.7792 150.742 96.9439 149.913 97.1674 149.101C98.0613 145.808 98.9553 142.508 99.8198 139.209C99.9257 138.803 100.067 138.691 100.473 138.697C102.096 138.721 103.719 138.709 105.342 138.697C105.666 138.697 105.866 138.674 105.736 139.138C104.613 143.197 103.501 147.255 102.419 151.324C101.866 153.395 100.62 154.512 98.4318 154.594C96.0088 154.683 93.5857 154.688 91.1685 154.559C88.8925 154.436 87.9868 153.189 88.5043 150.948C89.0572 148.578 89.7217 146.243 90.3393 143.885C90.5039 143.249 90.7098 142.626 90.6921 141.956C90.6804 141.367 90.4275 141.038 89.7982 141.044C86.8576 141.05 83.917 141.056 80.9763 141.038C80.5235 141.038 80.4588 141.279 80.3706 141.62C79.5354 144.737 78.6885 147.849 77.8416 150.966C77.7946 151.148 77.7417 151.324 77.6887 151.507C77.1359 153.4 75.9596 154.518 73.9071 154.571C73.2719 154.588 72.6368 154.647 72.0075 154.647C64.1501 154.641 56.2987 154.624 48.4414 154.606C47.9944 154.606 47.5474 154.571 47.1063 154.512C45.5772 154.306 44.7303 153.242 44.9185 151.707C45.2067 149.372 46.0418 147.166 46.5888 144.896C46.7593 144.19 46.9593 143.496 47.171 142.802C47.9944 140.132 49.5529 138.768 52.323 138.739C59.1629 138.662 66.0086 138.715 72.9014 138.715H72.8955Z" fill="#050406"/>
<path d="M111.883 154.618C110.089 154.618 108.331 154.707 106.59 154.595C104.943 154.483 104.367 153.577 104.696 151.931C105.202 149.425 105.967 146.99 106.614 144.52C106.878 143.503 107.113 142.479 107.59 141.521C108.354 139.98 109.531 138.974 111.254 138.815C113.924 138.574 116.612 138.557 119.276 138.815C120.828 138.968 121.552 140.098 121.37 141.668C121.217 142.979 120.817 144.226 120.476 145.497C119.893 147.69 119.305 149.884 118.717 152.089C119.582 151.96 120.57 151.166 121.193 150.196C121.94 149.025 122.193 147.678 122.558 146.373C123.234 143.962 123.881 141.538 124.504 139.115C124.598 138.751 124.751 138.686 125.081 138.692C126.727 138.704 128.374 138.704 130.021 138.686C130.462 138.686 130.527 138.815 130.415 139.221C129.309 143.238 128.215 147.261 127.127 151.284C126.51 153.56 125.663 154.265 123.316 154.53C121.817 154.701 120.311 154.689 118.805 154.636C118.123 154.612 117.923 154.906 117.794 155.471C117.506 156.7 117.176 157.918 116.765 159.117C116.265 160.558 115.194 161.241 113.765 161.405C111.918 161.617 110.06 161.605 108.066 161.599C108.56 161.264 108.984 161.041 109.331 160.735C110.548 159.688 111.154 158.276 111.56 156.771C112.46 153.448 113.359 150.131 114.224 146.802C114.612 145.308 115.124 143.838 115.335 142.303C115.394 141.874 115.441 141.35 114.93 141.139C114.441 140.939 114.024 141.168 113.695 141.562C113.371 141.944 113.13 142.368 112.995 142.85C112.712 143.814 112.436 144.785 112.177 145.755C111.748 147.361 111.348 148.978 110.913 150.578C110.754 151.154 110.701 151.731 110.695 152.319C110.677 153.519 110.907 153.954 111.889 154.618H111.883Z" fill="#E36E06"/>
<path d="M126.428 154.589C128.61 153.601 129.38 151.683 129.927 149.584C130.792 146.279 131.697 142.979 132.585 139.68C133.585 135.945 134.591 132.217 135.567 128.482C135.697 127.988 135.885 127.806 136.414 127.817C137.99 127.859 139.566 127.841 141.143 127.823C141.525 127.823 141.678 127.853 141.548 128.323C140.725 131.329 139.931 134.34 139.131 137.351C138.125 141.127 137.12 144.908 136.108 148.684C135.838 149.701 135.538 150.713 135.255 151.725C134.756 153.513 133.526 154.342 131.727 154.512C129.968 154.683 128.21 154.636 126.434 154.589H126.428Z" fill="#E36E06"/>
<path d="M111.613 110.779C111.502 115.178 108.196 119.354 103.921 120.53C102.227 120.995 100.533 121.124 98.8569 120.589C96.2398 119.76 94.7812 117.413 95.087 114.673C95.6281 109.85 99.0333 106.015 103.821 105.104C106.191 104.651 108.514 104.921 110.278 106.903C111.237 107.98 111.654 109.197 111.613 110.779ZM107.943 111.279C108.008 110.056 107.502 108.991 106.255 108.427C105.032 107.868 103.762 107.98 102.562 108.521C100.568 109.426 99.4391 111.073 98.8922 113.138C98.5864 114.296 98.557 115.472 99.2745 116.525C100.127 117.784 102.015 118.213 103.721 117.554C106.238 116.584 107.92 114.131 107.943 111.279Z" fill="#E36E06"/>
<path d="M135.455 113.384C135.002 115.072 134.579 116.66 134.15 118.248C133.967 118.925 133.744 119.595 133.609 120.277C133.526 120.677 133.344 120.754 132.985 120.742C132.185 120.718 131.385 120.707 130.586 120.742C130.109 120.765 130.109 120.571 130.203 120.213C131.268 116.266 132.332 112.32 133.391 108.374C133.644 107.427 133.908 106.48 134.138 105.527C134.208 105.221 134.32 105.098 134.65 105.104C135.638 105.121 136.62 105.11 137.655 105.11C137.078 107.291 136.508 109.42 135.89 111.749C137.867 109.891 139.749 108.221 141.501 106.427C142.454 105.457 143.418 104.88 144.812 105.086C145.5 105.186 146.218 105.104 147.106 105.104C146.565 105.615 146.124 106.033 145.677 106.445C143.618 108.368 141.566 110.303 139.484 112.208C139.172 112.496 139.172 112.679 139.349 113.026C140.625 115.549 141.878 118.084 143.195 120.73C141.854 120.73 140.578 120.73 139.307 120.73C138.99 120.73 138.972 120.442 138.872 120.248C137.802 118.095 136.737 115.937 135.673 113.778C135.62 113.678 135.561 113.578 135.449 113.373L135.455 113.384Z" fill="#050406"/>
<path d="M72.5135 105.116C72.7958 105.116 73.0781 105.116 73.3604 105.116C74.2073 105.116 74.2132 105.116 73.9956 105.945C73.2369 108.792 72.49 111.65 71.7019 114.485C71.4196 115.496 71.302 116.461 72.2136 117.178C73.1369 117.902 74.1838 117.672 75.1542 117.267C76.4245 116.731 77.0362 115.637 77.3773 114.373C78.1595 111.456 78.9241 108.539 79.6827 105.622C79.7827 105.239 79.9533 105.081 80.365 105.104C81.0001 105.139 81.6353 105.116 82.2705 105.116C83.2291 105.116 83.2056 105.116 82.9351 106.075C82.5881 107.316 82.2881 108.568 81.9352 109.803C81.3706 111.803 80.9531 113.85 80.265 115.82C79.0417 119.313 75.3306 121.395 71.6607 120.913C68.3908 120.484 67.4263 117.69 68.1673 115.032C69.0024 112.032 69.8317 109.033 70.5904 106.016C70.7668 105.316 71.0138 104.992 71.7372 105.104C71.9901 105.145 72.2547 105.11 72.5135 105.11V105.116Z" fill="#E36E06"/>
<path d="M49.8711 120.748C50.5768 119.671 51.2061 118.707 51.8531 117.748C54.5408 113.743 57.2462 109.744 59.9221 105.727C60.2279 105.262 60.5632 105.01 61.1219 105.11C61.1689 105.115 61.216 105.11 61.263 105.11C63.0568 105.11 63.0333 105.11 63.2862 106.886C63.8273 110.714 64.3919 114.543 64.9506 118.372C65.0447 119.019 65.127 119.671 65.2329 120.318C65.2799 120.607 65.2564 120.76 64.9094 120.76C64.0154 120.748 63.1215 120.742 62.2276 120.76C61.8512 120.765 61.8159 120.518 61.7747 120.265C61.6688 119.571 61.5512 118.878 61.4806 118.178C61.4453 117.795 61.3042 117.66 60.9102 117.666C59.1693 117.684 57.4344 117.678 55.6935 117.666C55.4053 117.666 55.2465 117.754 55.0819 118.013C54.5761 118.825 54.0115 119.601 53.4822 120.395C53.3645 120.571 53.2822 120.754 53.0176 120.754C52.0177 120.742 51.0121 120.754 49.8711 120.754V120.748ZM57.2285 114.837C58.4636 114.837 59.534 114.837 60.6102 114.837C60.8102 114.837 60.9866 114.837 60.9396 114.537C60.7337 113.167 60.5396 111.797 60.3103 110.226C59.234 111.838 58.2695 113.279 57.2285 114.837Z" fill="#E36E06"/>
<path d="M117.641 108.433C116.558 108.433 115.576 108.415 114.594 108.439C114.118 108.451 114.041 108.327 114.194 107.88C114.441 107.127 114.623 106.351 114.812 105.575C114.876 105.304 114.929 105.104 115.288 105.104C118.693 105.116 122.104 105.11 125.551 105.11C125.292 106.11 125.033 107.057 124.798 108.004C124.716 108.333 124.551 108.445 124.216 108.433C123.369 108.409 122.522 108.457 121.675 108.409C121.169 108.38 120.999 108.58 120.875 109.039C119.905 112.72 118.905 116.396 117.94 120.084C117.817 120.566 117.664 120.789 117.123 120.748C116.376 120.69 115.617 120.713 114.865 120.742C114.435 120.76 114.365 120.666 114.488 120.231C115.553 116.332 116.582 112.42 117.646 108.427L117.641 108.433Z" fill="#050406"/>
<path d="M84.5039 108.409C84.7921 107.351 85.0685 106.386 85.3096 105.416C85.3802 105.128 85.5566 105.116 85.7743 105.116C89.0383 105.116 92.3083 105.116 95.5724 105.11C95.937 105.11 96.0135 105.222 95.9076 105.563C95.6724 106.321 95.4253 107.08 95.2783 107.862C95.1842 108.362 94.9548 108.439 94.5255 108.421C93.7021 108.392 92.8788 108.433 92.0613 108.403C91.6555 108.386 91.479 108.533 91.3791 108.921C90.691 111.544 89.9793 114.161 89.2795 116.784C88.9678 117.96 88.6561 119.137 88.3561 120.313C88.262 120.677 88.062 120.789 87.6974 120.777C86.9211 120.748 86.1448 120.754 85.3743 120.772C84.9803 120.777 84.8215 120.713 84.9509 120.254C85.5155 118.201 86.0507 116.143 86.5917 114.085C87.0387 112.391 87.4798 110.691 87.9562 108.997C88.1032 108.468 87.8974 108.403 87.4504 108.409C86.4918 108.433 85.5331 108.415 84.5157 108.415L84.5039 108.409Z" fill="#E36E06"/>
<path d="M95.7218 124.859C111.054 124.859 126.387 124.859 141.719 124.859C141.884 124.859 142.048 124.847 142.213 124.859C142.342 124.871 142.519 124.836 142.501 125.053C142.489 125.212 142.478 125.4 142.26 125.424C142.119 125.441 141.978 125.436 141.837 125.436C111.078 125.436 80.3247 125.436 49.5659 125.436C49.4718 125.436 49.3777 125.447 49.2836 125.436C49.1248 125.412 48.8778 125.541 48.8954 125.2C48.9131 124.924 49.0483 124.853 49.3071 124.853C49.9423 124.865 50.5775 124.853 51.2126 124.853C66.051 124.853 80.8893 124.853 95.7277 124.853L95.7218 124.859Z" fill="#E36E06"/>
<path d="M96.0807 123.841C111.466 123.841 126.845 123.841 142.231 123.847C142.431 123.847 142.778 123.665 142.813 123.994C142.848 124.388 142.484 124.359 142.195 124.359C141.443 124.359 140.69 124.359 139.937 124.359C110.113 124.359 80.2896 124.359 50.46 124.359C50.1306 124.359 49.8013 124.359 49.4719 124.359C49.3249 124.359 49.1837 124.341 49.1896 124.141C49.1896 123.977 49.272 123.865 49.4366 123.853C49.6484 123.835 49.8601 123.841 50.0718 123.841C65.4101 123.841 80.7424 123.841 96.0807 123.841Z" fill="#E36E06"/>
<path d="M129.45 110.491C128.82 112.855 128.22 115.137 127.609 117.413C127.356 118.36 127.056 119.295 126.844 120.254C126.75 120.683 126.562 120.766 126.174 120.748C125.515 120.719 124.856 120.713 124.203 120.748C123.739 120.772 123.645 120.654 123.768 120.195C124.533 117.402 125.262 114.602 126.021 111.809C126.38 110.485 126.391 110.491 127.803 110.491C128.32 110.491 128.832 110.491 129.45 110.491Z" fill="#050406"/>
<path d="M129.026 133.234C129.826 133.234 130.626 133.258 131.426 133.228C131.849 133.211 131.984 133.363 131.873 133.757C131.561 134.91 131.237 136.057 130.937 137.216C130.855 137.545 130.696 137.674 130.349 137.668C128.703 137.657 127.056 137.651 125.415 137.668C124.962 137.668 124.921 137.527 125.039 137.122C125.374 135.975 125.68 134.822 125.956 133.663C126.044 133.299 126.238 133.234 126.556 133.234C127.379 133.246 128.203 133.234 129.026 133.234Z" fill="#E36E06"/>
<path d="M133.438 127.835C133.073 129.211 132.72 130.517 132.385 131.829C132.309 132.134 132.126 132.228 131.826 132.223C130.156 132.211 128.486 132.211 126.816 132.223C126.463 132.223 126.38 132.14 126.486 131.776C126.822 130.582 127.122 129.376 127.427 128.176C127.486 127.941 127.616 127.835 127.874 127.835C129.703 127.841 131.538 127.835 133.438 127.835Z" fill="#E36E06"/>
<path d="M84.0175 147.737C83.1706 147.737 82.3237 147.725 81.4827 147.743C81.1181 147.749 81.0534 147.667 81.1593 147.302C81.4886 146.161 81.7768 145.002 82.0767 143.85C82.1591 143.514 82.3002 143.356 82.6943 143.361C84.341 143.391 85.9819 143.391 87.6286 143.361C88.0756 143.356 88.0697 143.544 87.9874 143.85C87.6698 145.02 87.3287 146.19 87.0464 147.367C86.9581 147.725 86.7699 147.737 86.4935 147.731C85.6701 147.725 84.8468 147.731 84.0293 147.731L84.0175 147.737Z" fill="#050406"/>
<path d="M96.7324 137.598C97.0912 136.233 97.4382 134.928 97.7793 133.622C97.8499 133.351 98.0028 133.275 98.2851 133.275C99.9495 133.287 101.62 133.293 103.284 133.275C103.708 133.275 103.743 133.44 103.649 133.775C103.325 134.922 103.008 136.068 102.708 137.215C102.649 137.433 102.631 137.609 102.337 137.603C100.485 137.592 98.6379 137.603 96.7383 137.603L96.7324 137.598Z" fill="#030204"/>
<path d="M106.689 137.603C105.865 137.603 105.042 137.597 104.219 137.603C103.901 137.603 103.754 137.586 103.878 137.18C104.219 136.039 104.513 134.88 104.795 133.722C104.889 133.345 105.077 133.263 105.436 133.269C107.036 133.286 108.635 133.292 110.235 133.269C110.694 133.263 110.806 133.369 110.67 133.822C110.341 134.921 110.023 136.021 109.771 137.139C109.676 137.539 109.512 137.609 109.153 137.603C108.33 137.586 107.506 137.597 106.683 137.603H106.689Z" fill="#030204"/>
<path d="M83.6719 148.813C84.4012 148.813 85.1304 148.849 85.8538 148.802C86.4537 148.766 86.6948 148.849 86.4655 149.537C86.1244 150.554 85.8715 151.601 85.6186 152.648C85.5304 153.013 85.3892 153.142 85.0069 153.136C83.3837 153.119 81.7664 153.119 80.1432 153.136C79.755 153.136 79.5844 153.095 79.7197 152.636C80.0549 151.519 80.3666 150.39 80.6372 149.255C80.7195 148.902 80.8607 148.802 81.2018 148.808C82.0251 148.825 82.8485 148.813 83.666 148.813H83.6719Z" fill="#030204"/>
<path d="M130.906 106.21C130.924 107.468 129.483 108.768 128.23 108.621C127.331 108.515 126.807 107.804 126.954 106.874C127.142 105.692 128.483 104.687 129.671 104.834C130.395 104.922 130.895 105.481 130.906 106.21Z" fill="#050406"/>
<path d="M113.93 78.1219C116.047 78.1219 118.19 78.1219 120.327 78.1219C122.012 78.1219 122.875 78.7323 122.888 79.9201C122.901 81.0945 121.979 81.7713 120.353 81.7713C117.195 81.7713 114.036 81.7713 110.878 81.7647C110.46 81.7647 110.128 81.8642 109.803 82.1495C108.542 83.2444 107.169 84.1866 105.516 85.1487H106.512C113.12 85.1487 119.723 85.1487 126.332 85.1487C127.904 85.1487 128.86 86.3697 128.329 87.6835C128.03 88.4333 127.4 88.8048 126.424 88.8048C116.027 88.8048 105.622 88.8048 95.2248 88.8048C92.2854 88.8048 89.3392 88.9442 86.4263 88.3603C77.3159 86.5488 70.4947 81.5855 66.2282 73.3577C57.9273 57.3398 66.6926 37.6659 84.0973 33.0277C86.6453 32.3509 89.2331 32.0125 91.8607 32.0059C98.8411 31.9926 105.815 32.0059 112.795 32.0059C114.295 32.0059 115.244 33.1206 114.846 34.4013C114.6 35.2108 113.996 35.6819 113.061 35.6885C110.626 35.7084 108.19 35.6952 105.569 35.6952C106.704 36.4715 107.845 37.0023 108.695 37.8649C109.816 39.0062 111.117 39.1854 112.629 39.1655C117.327 39.0925 122.025 39.1788 126.716 39.1124C128.156 39.0925 128.893 39.9949 128.933 40.957C128.972 42.0452 128.03 42.7751 126.683 42.7751C122.437 42.7751 118.197 42.7751 113.963 42.7751C122.012 54.5463 122.012 66.2777 113.937 78.1285L113.93 78.1219ZM112.623 60.485C112.656 48.8465 103.201 39.3446 91.5687 39.3048C79.9701 39.2717 70.4018 48.7735 70.3886 60.3656C70.3753 71.9775 79.7577 81.7713 92.0133 81.5192C103.479 81.2869 112.629 71.8979 112.623 60.485Z" fill="#030204"/>
<path d="M112.623 60.4849C112.623 71.8978 103.479 81.2869 92.0134 81.5191C79.7579 81.7713 70.3754 71.9774 70.3887 60.3655C70.402 48.7735 79.9702 39.2716 91.5689 39.3048C103.201 39.338 112.656 48.8465 112.623 60.4849ZM95.8553 57.1407C94.7671 57.1407 93.6789 57.1739 92.5907 57.1341C91.1774 57.081 90.5802 56.2914 90.8655 54.9245C91.1707 53.4912 91.8276 52.1841 92.4115 50.857C93.7386 47.8312 95.2714 44.905 96.8241 41.9855C97.3085 41.0698 97.3151 41.0632 96.3198 40.8442C95.5965 40.6849 94.8666 40.5655 94.1434 40.4062C93.5595 40.2802 93.2941 40.4792 93.1945 41.0831C92.4182 45.761 91.3433 50.3726 89.9565 54.9046C89.5849 56.1122 89.2531 57.3464 88.7024 58.4877C88.1384 59.6489 87.2957 59.9077 86.161 59.3038C85.4577 58.9256 84.8804 58.3749 84.2766 57.8573C81.1778 55.1965 78.3512 52.2571 75.5842 49.2645C75.0865 48.727 74.9008 48.8597 74.5823 49.3839C74.1576 50.0873 73.786 50.8172 73.368 51.5205C73.0229 52.0978 73.1357 52.3499 73.713 52.6618C77.7606 54.8449 81.702 57.2203 85.451 59.8944C86.5724 60.6906 87.7137 61.467 88.7223 62.4026C89.7309 63.3382 89.7176 64.2605 88.6891 65.1695C88.3175 65.5013 87.8862 65.7733 87.4615 66.0321C83.6926 68.3479 79.6849 70.1925 75.6771 72.0438C75.2922 72.2229 75.1794 72.3225 75.478 72.6941C76.115 73.477 76.7653 74.2335 77.4819 74.9435C77.7938 75.2487 77.9597 75.2752 78.3113 74.9634C80.0365 73.404 81.7883 71.8646 83.5533 70.3584C86.2473 68.0559 89.0739 65.9127 92.04 63.9752C93.6656 62.9135 94.8136 63.2784 95.3112 65.0634C95.9615 67.3857 96.353 69.7612 96.6715 72.15C96.9833 74.4591 97.2487 76.7748 97.5208 79.0906C97.5739 79.5152 97.6601 79.6878 98.1578 79.502C99.2725 79.0773 100.347 78.5796 101.409 78.0488C101.94 77.7834 101.986 77.518 101.728 77.0137C100.52 74.6913 99.4318 72.3158 98.4033 69.9072C97.1094 66.8682 95.8819 63.8026 94.9993 60.611C94.5614 59.0318 95.2449 58.1559 96.8838 58.0763C97.1227 58.063 97.3615 58.063 97.6004 58.0763C99.8498 58.2223 102.093 58.4412 104.315 58.7796C106.591 59.1247 108.861 59.5361 111.123 59.9342C111.581 60.0138 111.714 59.9209 111.687 59.4299C111.641 58.3948 111.488 57.3729 111.329 56.3511C111.249 55.8468 111.097 55.7141 110.559 55.7937C105.682 56.4838 100.792 57.1208 95.8553 57.1274V57.1407ZM71.1982 60.4186C71.2845 63.0661 71.7091 65.634 72.7642 68.0692C73.1291 68.9185 73.4277 69.0048 74.2173 68.5735C75.7899 67.7109 77.3957 66.9014 78.9218 65.9658C80.302 65.1231 81.6357 64.9439 83.1154 65.6406C84.8804 66.4701 86.4662 66.0255 87.8597 64.7581C88.6028 64.0813 88.6493 63.3182 87.926 62.6348C87.3753 62.1106 86.7449 61.666 86.1146 61.2215C82.3324 58.5607 78.1056 56.7558 73.9054 54.8847C72.7509 54.3671 72.1603 54.6524 71.7954 55.88C71.3575 57.3663 71.2579 58.8924 71.1916 60.4186H71.1982ZM98.0583 58.919C95.9217 58.8924 95.3378 59.6754 95.8686 61.321C95.9548 61.5997 96.0278 61.8784 96.1274 62.1504C97.7862 66.9014 100.434 71.1414 103.028 75.4079C103.406 76.0317 103.964 76.0317 104.548 75.7596C105.059 75.5207 105.47 75.1491 105.868 74.7577C106.804 73.8154 107.64 72.7936 108.376 71.6921C109.743 69.655 110.699 67.4256 111.263 65.0368C111.508 64.0083 111.322 63.7495 110.281 63.6367C108.788 63.4709 107.288 63.2718 105.788 63.1789C103.871 63.0661 102.219 62.5684 101.203 60.7504C100.447 59.3835 99.1796 58.8792 98.0649 58.9256L98.0583 58.919ZM91.2238 80.6565C91.7546 80.6565 92.2855 80.703 92.8097 80.6432C93.6723 80.5504 93.9111 80.1987 93.7585 79.3693C93.4732 77.863 93.1282 76.3701 92.9158 74.8506C92.7632 73.7491 92.2656 72.6476 92.8097 71.4997C93.1215 70.8428 93.5727 70.2987 94.0239 69.7546C95.2382 68.3014 95.1122 66.7355 94.4088 65.143C94.0704 64.3733 93.5197 64.1676 92.7168 64.4396C92.4248 64.5392 92.1329 64.6918 91.8741 64.8643C87.4284 67.8237 83.9182 71.785 80.355 75.6866C79.8707 76.2174 80.0233 76.7815 80.4612 77.2459C80.7664 77.5644 81.1447 77.8431 81.5295 78.0621C84.5353 79.7607 87.7734 80.6167 91.2238 80.6632V80.6565ZM94.9662 56.4971C96.6449 56.5568 98.2905 56.298 99.9427 56.0525C102.929 55.6146 105.848 54.8581 108.788 54.2145C110.082 53.9292 110.466 53.1993 109.883 51.9253C108.151 48.1431 105.483 45.1837 101.9 43.067C100.965 42.5163 100.646 42.6556 100.221 43.6443C99.4583 45.4093 98.6621 47.1677 97.9123 48.9394C97.4412 50.0408 96.6383 50.7243 95.5036 51.0494C95.225 51.129 94.9595 51.2485 94.6742 51.3215C92.8097 51.7859 92.0798 53.186 91.7546 54.8913C91.5821 55.8136 92.1063 56.4241 93.0552 56.4838C93.6855 56.5236 94.3292 56.4904 94.9595 56.4904L94.9662 56.4971ZM83.9116 54.1548C83.6197 56.0061 84.5287 57.2535 85.9752 58.209C87.1032 58.9455 87.9061 58.6934 88.4038 57.4393C89.1469 55.5681 89.6048 53.6107 89.9697 51.6333C90.5404 48.5611 90.8257 45.4491 91.1376 42.3438C91.3034 40.6982 90.7328 40.0745 89.0939 40.32C88.1251 40.466 87.163 40.6385 86.2207 40.8906C83.2945 41.667 80.6669 43.0405 78.3777 45.0311C77.5682 45.7411 77.5947 45.9999 78.3976 46.7364C79.665 47.891 80.9058 49.0853 82.1997 50.2134C83.414 51.2684 84.2102 52.4694 83.9116 54.1614V54.1548Z" fill="#E36E06"/>
<path d="M95.8529 57.1471C100.796 57.1338 105.68 56.5035 110.557 55.8134C111.094 55.7404 111.247 55.8665 111.327 56.3708C111.486 57.3926 111.639 58.4078 111.685 59.4496C111.705 59.9406 111.579 60.0335 111.121 59.9539C108.852 59.5557 106.589 59.1444 104.313 58.7993C102.09 58.4609 99.8474 58.2419 97.598 58.096C97.3592 58.0827 97.1203 58.0827 96.8814 58.096C95.2358 58.1756 94.559 59.0515 94.997 60.6307C95.8795 63.8223 97.107 66.8879 98.4009 69.9269C99.4294 72.3355 100.511 74.711 101.725 77.0334C101.991 77.5377 101.938 77.8097 101.407 78.0685C100.338 78.5993 99.2701 79.097 98.1554 79.5216C97.6577 79.7074 97.5715 79.5349 97.5184 79.1102C97.2464 76.7945 96.9809 74.4787 96.6691 72.1696C96.3506 69.7809 95.9591 67.4054 95.3088 65.083C94.8112 63.2981 93.6632 62.9265 92.0376 63.9948C89.0716 65.939 86.2449 68.0756 83.5509 70.3781C81.7793 71.8909 80.0341 73.4237 78.3089 74.983C77.9639 75.2949 77.7914 75.275 77.4795 74.9631C76.7629 74.2531 76.1126 73.4901 75.4756 72.7137C75.177 72.3421 75.2898 72.2426 75.6747 72.0635C79.6825 70.2122 83.6902 68.3609 87.4592 66.0518C87.8838 65.793 88.3151 65.5143 88.6867 65.1892C89.7152 64.2735 89.7285 63.3578 88.7199 62.4222C87.7113 61.4866 86.5634 60.7169 85.4486 59.9141C81.6996 57.24 77.7648 54.8645 73.7106 52.6815C73.1333 52.3696 73.0272 52.1175 73.3656 51.5402C73.7836 50.8368 74.1618 50.107 74.5799 49.4036C74.8984 48.8728 75.0841 48.7467 75.5818 49.2842C78.3554 52.2767 81.1754 55.2162 84.2742 57.877C84.8713 58.3946 85.4553 58.9453 86.1586 59.3235C87.2933 59.9273 88.1293 59.6685 88.7 58.5074C89.2573 57.3661 89.5891 56.1319 89.9541 54.9242C91.3409 50.3923 92.4092 45.7807 93.1921 41.1027C93.2917 40.4923 93.5571 40.2932 94.141 40.4259C94.8643 40.5852 95.5941 40.7046 96.3174 40.8639C97.3127 41.0828 97.3061 41.0828 96.8217 42.0051C95.2756 44.9247 93.7362 47.8509 92.4092 50.8767C91.8252 52.2037 91.1683 53.5109 90.8631 54.9441C90.5711 56.311 91.175 57.094 92.5883 57.1537C93.6765 57.2002 94.7647 57.1604 95.8529 57.1604V57.1471ZM91.5266 57.7509C89.8081 57.7509 88.7 58.786 88.6933 60.4117C88.6867 62.0307 89.9275 63.2716 91.5466 63.2716C93.0661 63.2716 94.3666 61.9644 94.3865 60.4383C94.4064 58.8524 93.2386 57.7576 91.5333 57.7509H91.5266Z" fill="#050406"/>
<path d="M71.1973 60.4247C71.2636 58.8985 71.3632 57.3724 71.8011 55.8861C72.166 54.6585 72.7566 54.3732 73.9111 54.8908C78.1047 56.7619 82.3315 58.5668 86.1203 61.2276C86.744 61.6655 87.3743 62.1167 87.9317 62.6409C88.655 63.3243 88.6152 64.0874 87.8654 64.7642C86.4719 66.0316 84.8927 66.4762 83.1211 65.6467C81.6347 64.95 80.301 65.1292 78.9275 65.9719C77.4014 66.9075 75.7956 67.7236 74.223 68.5796C73.4334 69.0109 73.1348 68.918 72.7699 68.0753C71.7148 65.6401 71.2902 63.0722 71.2039 60.4247H71.1973ZM72.7898 61.002C72.7898 61.4266 72.7566 61.8513 72.7898 62.2693C72.9888 64.5254 73.951 65.4609 75.8022 65.2287C77.5075 65.0097 79.2128 64.8306 80.9115 64.5784C81.8205 64.4391 82.7628 64.4524 83.6254 64.0741C84.4614 63.7092 84.6339 63.1319 84.1495 62.3556C83.8775 61.9243 83.5192 61.5726 83.1211 61.2607C80.6925 59.3763 78.045 57.8501 75.3112 56.47C74.1965 55.906 73.6325 56.1847 73.2542 57.4056C72.8893 58.5734 72.7499 59.781 72.7831 61.002H72.7898Z" fill="#050406"/>
<path d="M98.0581 58.9184C99.1795 58.872 100.44 59.3763 101.197 60.7432C102.212 62.5679 103.857 63.0589 105.782 63.1717C107.281 63.258 108.774 63.4637 110.274 63.6295C111.316 63.7424 111.501 64.0078 111.256 65.0296C110.685 67.4184 109.736 69.6478 108.369 71.6849C107.633 72.7864 106.79 73.8082 105.861 74.7505C105.47 75.1486 105.052 75.5202 104.541 75.7524C103.957 76.0245 103.4 76.0245 103.021 75.4007C100.427 71.1342 97.7794 66.8942 96.1206 62.1432C96.0277 61.8712 95.9547 61.5858 95.8618 61.3138C95.331 59.6682 95.9149 58.8852 98.0515 58.9118L98.0581 58.9184ZM108.608 67.7169C108.628 66.6752 108.257 66.0647 107.5 65.6732C105.35 64.5519 103.207 63.4239 101.057 62.3091C100.805 62.1764 100.526 62.0769 100.248 61.9972C99.1596 61.6854 98.5358 62.1897 98.6354 63.3177C98.6686 63.7092 98.7548 64.1007 98.861 64.4789C99.7236 67.4515 101.084 70.2119 102.524 72.9324C103.108 74.0338 103.718 74.14 104.693 73.3836C106.24 72.1826 107.441 70.683 108.263 68.898C108.462 68.4734 108.608 68.0089 108.615 67.7169H108.608Z" fill="#050406"/>
<path d="M91.2239 80.6628C87.7735 80.6163 84.5354 79.7603 81.5296 78.0617C81.1448 77.8427 80.7665 77.5707 80.4613 77.2455C80.0167 76.781 79.8641 76.2237 80.3551 75.6862C83.925 71.7912 87.4285 67.8299 91.8742 64.8639C92.133 64.6914 92.4183 64.5388 92.7169 64.4392C93.5198 64.1672 94.0705 64.3729 94.4089 65.1426C95.1056 66.7351 95.2383 68.301 94.024 69.7542C93.5728 70.2983 93.1216 70.8424 92.8098 71.4993C92.2657 72.6406 92.7633 73.7487 92.9159 74.8501C93.1283 76.363 93.4799 77.8626 93.7586 79.3688C93.9179 80.1983 93.6724 80.55 92.8098 80.6428C92.2856 80.6959 91.7481 80.6561 91.2239 80.6561V80.6628ZM88.3574 78.9176C89.9964 78.9375 90.7263 78.3669 91.0249 77.0266C91.2571 75.9715 91.4628 74.9099 91.6751 73.8482C91.9405 72.5012 92.2192 71.1542 92.4581 69.8073C92.5576 69.23 92.5842 68.6062 92.0998 68.1816C91.5756 67.7237 91.0049 68.0091 90.4608 68.2148C90.3613 68.2546 90.2618 68.2811 90.1689 68.3408C87.3024 70.0859 84.834 72.3287 82.4586 74.6776C81.7486 75.3743 81.8149 75.9583 82.5979 76.5621C84.3696 77.929 86.4 78.6854 88.3707 78.9243L88.3574 78.9176Z" fill="#050406"/>
<path d="M94.9643 56.497C94.3273 56.497 93.6903 56.5301 93.06 56.4903C92.1045 56.424 91.5803 55.8135 91.7594 54.8978C92.0779 53.1925 92.8144 51.7925 94.679 51.328C94.9577 51.255 95.2297 51.1422 95.5084 51.0559C96.6431 50.7242 97.4459 50.0474 97.9171 48.9459C98.6735 47.1742 99.4631 45.4159 100.226 43.6508C100.651 42.6622 100.969 42.5162 101.905 43.0736C105.488 45.1903 108.155 48.1496 109.887 51.9318C110.471 53.2058 110.086 53.9357 108.792 54.221C105.853 54.8647 102.933 55.6211 99.9475 56.059C98.2953 56.3045 96.6497 56.5633 94.9709 56.5036L94.9643 56.497ZM99.065 54.6988C101.925 54.5329 104.393 54.2476 106.828 53.7764C107.976 53.5508 108.282 52.9935 107.903 51.8787C107.552 50.8502 107.001 49.9213 106.384 49.0321C105.734 48.0899 105.024 47.2074 104.022 46.6102C102.98 45.9865 102.184 46.0794 101.294 46.9155C100.91 47.2804 100.531 47.652 100.16 48.0236C98.7465 49.417 97.3265 50.8038 95.9397 52.2238C95.535 52.6418 95.17 53.166 95.4022 53.7897C95.6212 54.3736 96.1985 54.4997 96.7559 54.6059C97.6516 54.7784 98.5474 54.7253 99.0716 54.7054L99.065 54.6988Z" fill="#050406"/>
<path d="M83.9119 54.1615C84.2039 52.4695 83.4077 51.2751 82.2 50.2135C80.9061 49.0855 79.6653 47.8977 78.3979 46.7365C77.595 46.0066 77.5685 45.7412 78.378 45.0312C80.6672 43.0406 83.2948 41.6671 86.2211 40.8908C87.1633 40.6386 88.132 40.4661 89.0942 40.3201C90.7331 40.068 91.3038 40.6917 91.1379 42.3439C90.826 45.4493 90.5407 48.5613 89.9701 51.6334C89.6051 53.6108 89.1473 55.5682 88.4041 57.4394C87.9064 58.6935 87.1036 58.9456 85.9755 58.2091C84.5224 57.2536 83.62 56.0062 83.9119 54.1549V54.1615ZM88.3377 42.1647C88.0723 42.1979 87.5946 42.2377 87.1301 42.3306C85.4978 42.6491 83.8788 43.0273 82.5251 44.0824C81.4967 44.8853 81.3042 45.6948 81.8616 46.8626C82.8635 48.9527 83.8589 51.0495 84.8873 53.1198C85.2191 53.7899 85.5509 54.6326 86.4599 54.6061C87.4088 54.5729 87.6941 53.6838 87.9662 52.9672C89.0942 50.021 89.6715 46.9356 90.1227 43.8236C90.3085 42.5629 89.8373 42.1581 88.3377 42.1647Z" fill="#050406"/>
<path d="M91.5294 57.7444C93.2414 57.7444 94.4025 58.8459 94.3826 60.4317C94.3627 61.9645 93.0622 63.2651 91.5427 63.2651C89.9237 63.2651 88.6828 62.0242 88.6895 60.4052C88.6961 58.7729 89.8042 57.7378 91.5228 57.7444H91.5294Z" fill="#E36E06"/>
</g>
<defs>
<clipPath id="clip0_4929_34230">
<rect width="192" height="192" fill="white"/>
</clipPath>
</defs>
</svg>
