<svg width="192" height="192" viewBox="0 0 192 192" fill="none" xmlns="http://www.w3.org/2000/svg">
<g clip-path="url(#clip0_4929_34057)">
<path d="M96 192C149.019 192 192 149.019 192 96C192 42.9807 149.019 0 96 0C42.9807 0 0 42.9807 0 96C0 149.019 42.9807 192 96 192Z" fill="white"/>
<path d="M91.2053 93.9401C91.2453 93.6101 91.1053 93.5201 90.8353 93.5201C89.4353 93.5201 88.0353 93.5301 86.6353 93.5001C83.6053 93.4201 80.5753 93.3101 77.5553 93.2101C74.0553 93.1001 70.5453 93.0101 67.0453 92.8901C65.9653 92.8501 64.8853 92.8401 63.8553 92.4201C61.7853 91.5701 60.6153 89.9001 60.6153 87.6701C60.6153 84.5001 60.5953 81.3201 60.6253 78.1501C60.6253 77.5601 60.7353 76.9301 60.9753 76.3901C62.1853 73.6701 63.9053 71.3301 66.2453 69.4801C66.8853 68.9701 67.6953 68.6601 68.4053 68.2401C68.5253 68.1701 68.6753 67.9901 68.6553 67.8901C68.4853 67.0601 68.3153 66.2201 68.0553 65.4201C67.9853 65.2101 67.6353 65.0401 67.3753 64.9601C65.9153 64.4801 64.4353 64.0301 62.9653 63.5601C62.1553 63.3001 61.3453 63.0501 60.5353 62.7901C59.2253 62.3701 58.7253 61.6101 58.5953 60.2401C58.4853 59.0701 58.9053 58.2001 59.8453 57.5901C60.1553 57.3901 60.5653 57.2401 60.9253 57.2401C63.0653 57.2101 65.1953 57.2101 67.3353 57.2401C69.5653 57.2601 70.8053 58.5201 70.8153 60.7601C70.8153 61.8801 70.7653 63.0101 70.7353 64.1301C70.7353 64.3301 70.7553 64.5301 70.7753 64.7701C71.9353 64.7701 72.9353 64.4501 73.6253 63.5501C74.1053 62.9201 74.5053 62.1901 74.7953 61.4501C75.6153 59.3901 76.4053 57.3101 77.1153 55.2101C77.5353 53.9501 78.2953 52.9901 79.2653 52.1501C81.6753 50.0701 84.4953 48.7401 87.4753 47.7201C90.9953 46.5101 94.6253 45.8301 98.3253 45.4601C101.055 45.1901 103.795 45.1201 106.535 45.2401C110.825 45.4201 115.055 46.0301 119.175 47.2901C119.425 47.3701 119.665 47.5101 119.955 47.6301C119.655 47.9801 119.365 48.1701 118.925 48.1701C116.895 48.1501 114.855 48.1701 112.815 48.1701C111.925 48.1701 111.555 48.5701 111.495 49.4601C111.415 50.8301 111.285 52.1901 111.195 53.5601C111.175 53.8301 111.065 53.9301 110.825 54.0001C108.965 54.4901 107.195 55.2101 105.545 56.2101C105.275 56.3701 105.145 56.2101 104.985 56.0701C103.935 55.1601 102.895 54.2501 101.855 53.3401C101.225 52.7901 100.695 52.8101 100.105 53.3901C98.5553 54.9301 97.0153 56.4701 95.4853 58.0101C94.9053 58.5901 94.8853 59.1401 95.4253 59.7601C96.3353 60.8101 97.2353 61.8501 98.1553 62.8901C98.3553 63.1201 98.3953 63.3001 98.2353 63.5701C97.2753 65.1601 96.5853 66.8601 96.1153 68.6601C96.0353 68.9701 95.9153 69.1101 95.5653 69.1301C94.1853 69.2101 92.8053 69.3201 91.4253 69.4201C90.7053 69.4701 90.2853 69.8901 90.2753 70.6101C90.2753 72.8501 90.2753 75.0801 90.2753 77.3201C90.2753 78.0801 90.6553 78.4601 91.3953 78.5201C92.8053 78.6201 94.2153 78.7401 95.6253 78.8201C95.9353 78.8401 96.0853 78.9401 96.1653 79.2501C96.6353 81.0801 97.3553 82.8001 98.3153 84.4201C98.4653 84.6701 98.4153 84.8201 98.2453 85.0201C97.3453 86.0401 96.4653 87.0701 95.5653 88.0801C94.9353 88.8001 94.9353 89.3101 95.6153 89.9901C97.1353 91.5101 98.6553 93.0301 100.175 94.5501C100.755 95.1301 101.295 95.1501 101.925 94.6101C102.985 93.6901 104.045 92.7801 105.085 91.8501C105.315 91.6401 105.475 91.6601 105.725 91.8001C107.325 92.7401 109.015 93.4601 110.815 93.9101C111.115 93.9801 111.265 94.1101 111.285 94.4601C111.365 95.8701 111.485 97.2801 111.595 98.6901C111.655 99.4701 112.115 99.8701 112.905 99.8701C115.055 99.8701 117.205 99.8701 119.355 99.8701C120.195 99.8701 120.615 99.4801 120.675 98.6101C120.775 97.2401 120.875 95.8801 120.955 94.5101C120.975 94.1901 121.095 94.0401 121.405 93.9301C122.795 93.4201 124.175 92.8801 125.555 92.3501C125.605 92.3301 125.665 92.3101 125.765 92.2801C126.905 94.3301 128.035 96.3801 129.175 98.4301C124.605 101.54 114.105 104.36 104.275 98.3101C104.065 98.7001 104.105 98.8601 104.565 99.0601C106.275 99.8201 107.965 100.64 109.725 101.28C112.805 102.41 115.995 102.98 119.275 102.66C121.055 102.49 122.835 102.1 124.585 101.7C125.585 101.47 126.355 101.54 127.015 102.39C127.515 103.03 128.125 103.58 128.685 104.17C128.665 104.21 128.655 104.25 128.635 104.29C128.455 104.29 128.275 104.29 128.095 104.29C120.405 104.26 112.705 104.23 105.015 104.21C103.445 104.21 101.865 104.27 100.295 104.25C99.4853 104.25 98.8153 104.5 98.2053 105.02C97.2053 105.87 96.2053 106.71 95.1853 107.54C94.8153 107.84 94.4253 108.11 94.0253 108.36C93.8853 108.45 93.6953 108.47 93.5353 108.49C93.3453 108.51 93.1653 108.5 92.9753 108.5C82.3653 108.5 71.7553 108.5 61.1453 108.5C60.9753 108.5 60.8053 108.5 60.5653 108.5C60.5653 108.31 60.5653 108.16 60.5653 108.01C60.4553 104.75 60.3353 101.5 60.2553 98.2401C60.2353 97.5801 60.3153 96.8801 60.4853 96.2401C60.8553 94.8901 61.7753 94.2001 63.2053 94.1801C64.5353 94.1601 65.8553 94.0601 67.1853 94.0601C75.0053 94.0101 82.8353 93.9801 90.6553 93.9401C90.8253 93.9401 90.9953 93.9401 91.1553 93.9401H91.2053ZM92.8853 89.1001C86.9053 80.7101 77.7553 76.9201 67.9653 77.9001C67.9953 78.0701 67.9853 78.2501 68.0453 78.4001C68.4153 79.4301 68.7653 80.4701 69.1953 81.4701C70.0953 83.5401 71.2553 85.4401 73.0053 86.9201C74.4853 88.1701 76.1753 89.0101 78.1453 89.0301C82.7153 89.0801 87.2953 89.0801 91.8653 89.1001C92.1753 89.1001 92.4953 89.1001 92.8953 89.1001H92.8853Z" fill="#14FDCB"/>
<path d="M115.535 57.6301C120.645 57.7401 125.165 59.4001 128.815 63.0801C131.895 66.1901 133.505 69.9701 133.415 74.3801C133.335 78.2101 131.935 81.5501 129.385 84.3901C126.155 87.9701 122.065 89.9001 117.295 90.3301C111.945 90.8101 107.125 89.3901 103.065 85.8201C99.1752 82.4001 97.2452 78.0501 97.6252 72.8301C97.9152 68.8901 99.6052 65.5401 102.455 62.8101C106.095 59.3101 110.515 57.7301 115.535 57.6301ZM114.845 83.2201C114.765 81.6201 114.535 81.3001 113.035 80.7901C112.425 80.5801 111.785 80.4301 111.195 80.1701C110.575 79.9001 109.945 79.6201 109.415 79.2101C108.035 78.1301 107.205 76.6901 106.835 74.9801C106.515 73.4801 106.215 71.9701 105.895 70.4601C105.745 69.7601 105.435 69.1301 104.905 68.6301C104.185 67.9701 103.405 68.0001 102.905 68.8401C102.545 69.4301 102.275 70.1101 102.145 70.7901C101.785 72.6501 101.805 74.5201 102.255 76.3701C102.925 79.1601 104.325 81.5501 106.385 83.5401C107.865 84.9701 109.565 86.0101 111.625 86.4001C112.955 86.6501 114.055 86.1601 114.495 84.9901C114.705 84.4401 114.745 83.8201 114.855 83.2301L114.845 83.2201ZM116.395 83.1901C116.395 83.5101 116.375 83.8301 116.395 84.1401C116.515 85.5201 117.545 86.5401 118.875 86.4501C119.625 86.4001 120.395 86.2201 121.085 85.9301C123.235 85.0401 124.945 83.5801 126.345 81.7101C127.535 80.1201 128.315 78.3601 128.835 76.4801C129.325 74.7101 129.265 72.8801 129.015 71.0701C128.885 70.1701 128.635 69.2901 127.995 68.5901C127.565 68.1201 127.065 68.0501 126.525 68.3901C126.035 68.7001 125.645 69.1201 125.485 69.6701C125.195 70.6601 124.935 71.6601 124.695 72.6701C124.445 73.7501 124.325 74.8701 123.975 75.9101C123.275 78.0001 121.935 79.5301 119.775 80.2401C119.215 80.4201 118.655 80.6001 118.095 80.8001C116.585 81.3301 116.375 81.6201 116.385 83.2001L116.395 83.1901ZM116.385 73.9601C116.385 75.1301 116.385 76.3001 116.385 77.4701C116.385 77.7301 116.405 77.9901 116.465 78.2401C116.555 78.6401 116.845 78.8601 117.235 78.8901C119.035 79.0001 120.485 78.3801 121.475 76.8201C122.195 75.6701 122.625 74.4001 122.875 73.0801C123.075 72.0201 123.275 70.9501 123.005 69.8601C122.815 69.1001 122.355 68.6901 121.575 68.6801C120.425 68.6801 119.265 68.6801 118.115 68.6801C116.965 68.6801 116.425 69.1901 116.405 70.3201C116.385 71.5301 116.405 72.7401 116.405 73.9601H116.385ZM114.755 74.0001C114.755 72.7901 114.755 71.5801 114.755 70.3701C114.755 69.2701 114.315 68.7501 113.215 68.7101C111.995 68.6601 110.765 68.6701 109.535 68.7001C108.745 68.7201 108.275 69.1301 108.135 69.9201C108.055 70.4001 108.045 70.9001 108.055 71.3801C108.095 73.0401 108.625 74.5801 109.305 76.0701C110.205 78.0601 111.555 78.9501 113.615 78.9101C114.425 78.9001 114.745 78.5701 114.745 77.7701C114.745 76.5201 114.745 75.2601 114.745 74.0101L114.755 74.0001ZM125.685 64.7001C125.685 64.7001 125.575 64.5301 125.455 64.4201C124.955 63.9701 124.465 63.4901 123.925 63.0901C122.235 61.8701 120.385 60.9901 118.315 60.6501C117.175 60.4701 116.375 61.1001 116.335 62.2501C116.305 63.2701 116.335 64.3001 116.385 65.3201C116.425 66.1401 116.945 66.6001 117.765 66.6101C119.505 66.6101 121.255 66.6101 122.995 66.6101C123.545 66.6101 123.995 66.4001 124.375 66.0001C124.785 65.5801 125.205 65.1701 125.685 64.6901V64.7001ZM105.475 64.7001C105.955 65.1801 106.365 65.5801 106.765 65.9901C107.105 66.3501 107.495 66.6101 108.005 66.6101C109.825 66.6101 111.635 66.6201 113.455 66.6101C114.225 66.6101 114.725 66.1001 114.745 65.3301C114.775 64.3701 114.805 63.4001 114.805 62.4301C114.805 61.1101 113.995 60.4201 112.705 60.6701C110.035 61.1801 107.745 62.4501 105.775 64.3201C105.635 64.4501 105.525 64.6201 105.475 64.6901V64.7001Z" fill="#4F4D4E"/>
<path d="M41.3767 131.47H47.0667C47.0667 131.31 47.0867 131.15 47.0867 131C47.0867 129.59 47.0867 128.17 47.0867 126.76C47.0867 126.58 47.1467 126.35 47.2667 126.22C48.8467 124.62 50.4467 123.03 52.0367 121.44C52.0767 121.4 52.1267 121.37 52.2367 121.29V131.47H62.8167C62.7367 131.3 62.6667 131.16 62.5967 131.03C60.4767 127.21 58.3667 123.39 56.2367 119.57C56.0567 119.26 56.0667 119.07 56.3367 118.81C57.8867 117.29 59.4067 115.76 60.9267 114.22C61.1367 114.01 61.3467 113.92 61.6467 113.93C63.2167 113.94 64.7967 113.93 66.3667 113.93C66.5067 113.93 66.6467 113.93 66.7867 113.93C65.0767 115.64 63.3867 117.32 61.6867 119.02C61.8267 119.27 61.9167 119.43 62.0067 119.59C64.5667 124.02 67.1267 128.46 69.6967 132.88C69.8867 133.21 69.8967 133.4 69.6067 133.68C68.6667 134.58 67.7667 135.51 66.8367 136.42C66.7067 136.55 66.4967 136.65 66.3167 136.65C60.8467 136.66 55.3767 136.65 49.9067 136.65C49.8267 136.65 49.7367 136.63 49.5967 136.61V134.17C48.8067 134.96 48.1167 135.65 47.4367 136.35C47.2267 136.56 47.0167 136.65 46.7167 136.65C45.0467 136.64 43.3667 136.65 41.6967 136.64C41.4067 136.64 41.2267 136.73 41.0467 136.96C38.7067 140.09 36.3567 143.22 34.0167 146.34C33.9267 146.46 33.8167 146.58 33.6967 146.73C33.5067 146.49 33.3467 146.27 33.1867 146.06C30.8867 142.99 28.5867 139.92 26.2967 136.84C26.1367 136.62 26.0267 136.3 26.0267 136.02C25.9967 134.62 26.0067 133.22 26.0267 131.82C26.0267 131.64 26.0967 131.41 26.2267 131.29C27.8067 129.69 29.4067 128.1 30.9967 126.51C31.0367 126.47 31.0867 126.44 31.2067 126.34V126.85C31.2067 129.58 31.2067 132.3 31.2067 135.03C31.2067 135.2 31.2067 135.4 31.2967 135.52C32.0967 136.58 32.9067 137.62 33.7467 138.7C34.5667 137.62 35.3667 136.58 36.1367 135.53C36.2267 135.41 36.2167 135.2 36.2167 135.04C36.2167 129.86 36.2167 124.68 36.2167 119.5C36.2167 119.17 36.3167 118.94 36.5467 118.71C38.0267 117.23 39.4967 115.75 40.9667 114.26C41.0767 114.15 41.1367 114 41.2167 113.86L41.3767 113.98V131.44V131.47Z" fill="#4F4D4E"/>
<path d="M75.3572 121.26V121.83C75.3572 126.23 75.3572 130.63 75.3672 135.03C75.3672 135.29 75.4772 135.59 75.6372 135.8C76.3572 136.77 77.1072 137.72 77.8872 138.73C78.3072 138.17 78.7072 137.65 79.0972 137.13C79.5172 136.57 80.0972 136.05 80.3172 135.42C80.5272 134.8 80.3772 134.05 80.3772 133.36C80.3772 131.18 80.3772 129 80.3872 126.82C80.3872 126.59 80.4972 126.31 80.6572 126.15C82.1572 124.61 83.6772 123.09 85.1872 121.56C85.2672 121.48 85.3572 121.41 85.5172 121.26V131.46H88.5172C88.5172 131.31 88.5472 131.16 88.5472 131.01C88.5472 129.6 88.5472 128.18 88.5472 126.77C88.5472 126.6 88.5972 126.38 88.7072 126.27C90.0472 124.9 91.4072 123.55 92.8672 122.09V131.47H95.5372C95.5472 131.31 95.5672 131.16 95.5672 131.01C95.5672 129.62 95.5672 128.24 95.5672 126.85C95.5672 126.55 95.6472 126.34 95.8572 126.13C97.3872 124.62 98.9072 123.1 100.427 121.58C100.517 121.49 100.617 121.41 100.787 121.25V131.45H107.497C107.497 131.26 107.517 131.11 107.517 130.96C107.517 129.55 107.517 128.13 107.517 126.72C107.517 126.54 107.577 126.31 107.707 126.18C109.287 124.58 110.887 122.99 112.477 121.4C112.517 121.36 112.567 121.34 112.667 121.26C112.677 121.44 112.697 121.58 112.697 121.71C112.697 124.86 112.697 128 112.697 131.15C112.697 131.36 112.587 131.63 112.447 131.78C110.927 133.32 109.397 134.85 107.857 136.37C107.717 136.51 107.497 136.62 107.307 136.62C104.377 136.64 101.447 136.64 98.5172 136.65C98.4172 136.65 98.3172 136.63 98.1672 136.62V134.14C97.3872 134.92 96.6872 135.6 96.0072 136.31C95.7672 136.56 95.5272 136.66 95.1772 136.66C92.1072 136.65 89.0272 136.66 85.9572 136.65C85.6072 136.65 85.3872 136.74 85.1672 137.03C82.8572 140.13 80.5372 143.22 78.2172 146.31C78.1172 146.45 78.0072 146.58 77.8772 146.75C77.7572 146.6 77.6472 146.49 77.5572 146.36C75.1672 143.17 72.7872 139.99 70.4072 136.79C70.2772 136.61 70.1872 136.35 70.1872 136.13C70.1772 133.01 70.1772 129.9 70.1872 126.78C70.1872 126.59 70.2572 126.34 70.3872 126.21C71.9572 124.62 73.5472 123.04 75.1272 121.46C75.1772 121.41 75.2372 121.37 75.3772 121.26H75.3572Z" fill="#4F4D4E"/>
<path d="M121.127 113.91V131.46H127.917C127.917 131.31 127.937 131.16 127.937 131C127.937 129.59 127.937 128.17 127.937 126.76C127.937 126.58 127.997 126.34 128.117 126.22C129.697 124.62 131.297 123.03 132.887 121.44C132.937 121.39 132.997 121.36 133.097 121.28V131.44H139.857C139.857 131.26 139.857 131.1 139.857 130.93C139.857 127.11 139.857 123.28 139.857 119.46C139.857 119.14 139.957 118.93 140.177 118.71C141.667 117.24 143.147 115.76 144.617 114.27C144.727 114.16 144.787 114.01 144.877 113.87C144.927 113.91 144.977 113.94 145.027 113.98C145.027 114.1 145.057 114.22 145.057 114.34C145.057 119.94 145.057 125.54 145.047 131.14C145.047 131.35 144.937 131.62 144.787 131.77C143.257 133.32 141.717 134.86 140.167 136.39C140.027 136.52 139.797 136.63 139.607 136.63C136.687 136.65 133.777 136.64 130.857 136.63C130.727 136.63 130.607 136.61 130.437 136.6V134.18C129.727 134.89 129.077 135.5 128.487 136.16C128.147 136.54 127.777 136.66 127.277 136.65C125.327 136.63 123.377 136.65 121.427 136.63C121.197 136.63 120.917 136.51 120.757 136.35C119.217 134.84 117.697 133.32 116.197 131.79C116.047 131.64 115.937 131.37 115.937 131.16C115.917 127.25 115.927 123.34 115.937 119.43C115.937 119.23 115.997 118.98 116.127 118.85C117.707 117.24 119.307 115.66 120.897 114.07C120.937 114.03 120.987 114.01 121.127 113.9V113.91Z" fill="#4F4D4E"/>
<path d="M143.316 142.24C143.466 142.04 143.556 141.91 143.646 141.79C145.426 139.52 147.216 137.26 148.986 134.99C149.136 134.79 149.236 134.5 149.236 134.25C149.256 131.77 149.236 129.29 149.256 126.81C149.256 126.6 149.336 126.34 149.466 126.2C151.026 124.62 152.606 123.06 154.186 121.49C154.246 121.43 154.306 121.39 154.426 121.29V131.45H160.796C160.796 131.3 160.816 131.15 160.816 130.99C160.816 129.56 160.816 128.13 160.816 126.71C160.816 126.54 160.876 126.33 160.986 126.21C162.576 124.6 164.186 123 165.786 121.4C165.816 121.37 165.856 121.35 165.956 121.29C165.966 121.46 165.986 121.59 165.986 121.72C165.986 124.86 165.986 128.01 165.986 131.15C165.986 131.35 165.886 131.61 165.746 131.75C164.206 133.31 162.656 134.86 161.096 136.4C160.956 136.54 160.696 136.64 160.496 136.64C158.606 136.66 156.716 136.66 154.826 136.64C154.466 136.64 154.256 136.75 154.046 137.04C152.836 138.68 151.616 140.3 150.386 141.92C150.286 142.05 150.106 142.21 149.966 142.22C147.786 142.24 145.606 142.23 143.316 142.23V142.24Z" fill="#4F4D4E"/>
<path d="M159.867 138.36C159.867 139.53 159.867 140.67 159.857 141.8C159.857 141.88 159.687 142.03 159.597 142.03C158.287 142.05 156.977 142.04 155.657 142.03C155.567 142.03 155.417 141.9 155.407 141.83C155.387 140.68 155.397 139.53 155.397 138.35H159.857L159.867 138.36Z" fill="#4F4D4E"/>
<path d="M104.027 117.65H108.407V121.3H104.027V117.65Z" fill="#4F4D4E"/>
<path d="M125.086 138.35H129.456V142.01H125.086V138.35Z" fill="#4F4D4E"/>
<path d="M44.207 143.15H48.587V146.83H44.207V143.15Z" fill="#4F4D4E"/>
<path d="M125.078 146.82V143.16H129.468V146.82H125.078Z" fill="#4F4D4E"/>
<path d="M44.1953 142.02V138.36H48.5853V142.02H44.1953Z" fill="#4F4D4E"/>
<path d="M55.3053 117.931C55.0953 117.641 54.7853 117.201 54.4453 116.721C55.2453 115.921 56.0453 115.161 56.8053 114.361C57.1053 114.041 57.4153 113.891 57.8553 113.921C58.3853 113.961 58.9153 113.921 59.4453 113.921C58.0653 115.251 56.6953 116.581 55.3053 117.921V117.931Z" fill="#4F4D4E"/>
</g>
<defs>
<clipPath id="clip0_4929_34057">
<rect width="192" height="192" fill="white"/>
</clipPath>
</defs>
</svg>
