<svg width="192" height="192" viewBox="0 0 192 192" fill="none" xmlns="http://www.w3.org/2000/svg">
<g clip-path="url(#clip0_4929_34296)">
<path d="M96 192C149.019 192 192 149.019 192 96C192 42.9807 149.019 0 96 0C42.9807 0 0 42.9807 0 96C0 149.019 42.9807 192 96 192Z" fill="#231F20"/>
<path d="M162.144 77.6834C164.274 77.6834 166.001 75.9566 166.001 73.8265C166.001 71.6964 164.274 69.9696 162.144 69.9696C160.014 69.9696 158.287 71.6964 158.287 73.8265C158.287 75.9566 160.014 77.6834 162.144 77.6834Z" stroke="white" stroke-width="0.66" stroke-miterlimit="10"/>
<path d="M160.125 76.3076V71.3376H162.366C162.668 71.3376 162.923 71.3686 163.124 71.4227C163.333 71.4768 163.495 71.5618 163.626 71.6777C163.75 71.7937 163.843 71.9405 163.905 72.126C163.959 72.3115 163.99 72.528 163.99 72.7753C163.99 72.8912 163.982 72.9994 163.966 73.0922C163.951 73.1849 163.92 73.27 163.881 73.355C163.843 73.44 163.781 73.5173 163.704 73.5946C163.626 73.6719 163.534 73.7569 163.418 73.8497C163.526 73.9269 163.611 73.9965 163.673 74.0583C163.734 74.1202 163.781 74.1975 163.812 74.2825C163.843 74.3675 163.866 74.4757 163.881 74.5994C163.897 74.7231 163.905 74.8776 163.912 75.0709C163.912 75.2332 163.928 75.3646 163.928 75.4728C163.928 75.5733 163.943 75.6583 163.966 75.7279C163.982 75.7974 164.005 75.8515 164.036 75.8902C164.067 75.9288 164.105 75.9752 164.16 76.0138V76.3076H163.271C163.147 76.037 163.085 75.7433 163.085 75.411C163.085 75.009 163.07 74.7462 163.039 74.6071H163.047C162.962 74.3675 162.745 74.2516 162.397 74.2516H160.929V76.3076H160.117H160.125ZM160.936 72.0719V73.5173H162.382C162.629 73.5173 162.822 73.4555 162.962 73.3395C163.101 73.2236 163.17 73.0458 163.17 72.8062V72.7366C163.17 72.2961 162.907 72.0719 162.382 72.0719H160.936Z" fill="white"/>
<path d="M46.3357 93.6674H52.179C52.1635 95.1668 51.7693 96.6818 51.0119 98.2199C50.2544 99.758 49.3037 100.972 48.1598 101.868C45.8564 103.7 42.9348 104.666 39.4025 104.759C36.164 104.875 33.4046 103.963 31.1168 102.038C28.9062 100.222 27.3913 97.6943 26.5642 94.4558C26.1932 92.9176 26 91.1786 26 89.2308C26 86.9661 26.2319 85.057 26.7034 83.5034C28.6898 76.8794 33.0027 73.5636 39.6499 73.5636C42.757 73.5636 45.4236 74.3443 47.6496 75.8978C50.5867 77.9538 52.0939 80.7054 52.1712 84.1527H46.3279C46.1965 82.8232 45.6632 81.6561 44.728 80.6436C43.3831 79.1673 41.4044 78.518 38.7996 78.7036C37.4702 78.8349 36.2799 79.3373 35.2365 80.203C34.1853 81.0764 33.4046 82.174 32.8945 83.5034C32.3766 84.8328 32.0675 86.5333 31.9515 88.6124C31.8588 91.1245 32.1757 93.1959 32.9099 94.85C33.9225 97.0992 35.3369 98.5445 37.1533 99.2015C37.7175 99.387 38.3823 99.4952 39.1475 99.5107C40.0286 99.5261 40.8865 99.4257 41.729 99.2015C43.5454 98.6759 44.8053 97.7716 45.5164 96.4808C45.8178 95.9552 46.0883 95.02 46.3279 93.6751L46.3357 93.6674Z" fill="#BD2030"/>
<path d="M68.2555 74.066L78.4504 103.831H72.1897L70.1647 97.8799H59.1273L57.0791 103.831H50.8184L61.1833 74.066H68.2555ZM64.7465 81.2001L61.0673 92.7708H68.6807L64.7465 81.2001Z" fill="#BD2030"/>
<path d="M80.2754 103.831V74.066H96.816C98.4082 74.066 99.8149 74.437 101.028 75.1868C102.373 76.0679 103.254 77.2582 103.664 78.75C104.074 80.2494 104.282 81.4629 104.282 82.3982C104.282 83.202 104.182 84.0059 103.973 84.8097C103.633 85.9691 103.123 86.9121 102.427 87.6463C101.925 88.1874 101.09 88.8057 99.9309 89.5013C101.144 90.3438 101.786 90.7767 101.84 90.7921C102.644 91.5187 103.115 92.4694 103.247 93.6442C103.378 94.8113 103.471 97.0296 103.525 100.284C103.54 101.443 103.919 102.262 104.646 102.726V103.824H98.0758C97.5889 102.943 97.3184 102.015 97.2643 101.041V95.0587C97.2643 93.0568 96.0353 92.052 93.5852 92.052H86.397V103.816H80.2754V103.831ZM86.397 79.1751V86.9507H94.7909C95.6489 86.9507 96.4759 86.5797 97.2643 85.83C98.1841 84.9488 98.5628 83.8435 98.4159 82.5141C98.4159 80.2881 97.1793 79.1751 94.7059 79.1751H86.397Z" fill="#BD2030"/>
<path d="M152.459 74.066H145.386L135.153 103.453V74.066H126.225L120.668 96.9214L115.134 74.066H106.176V103.831H112.297V79.7393L117.607 103.831H123.729L129.039 79.7393V103.831H141.29L143.338 97.8799H154.375L156.4 103.831H162.661L152.466 74.066H152.459ZM145.27 92.7708L148.949 81.2001L152.884 92.7708H145.27Z" fill="#BD2030"/>
<path d="M117.884 116.345H120.875C120.868 117.11 120.667 117.891 120.28 118.671C119.894 119.46 119.407 120.078 118.819 120.542C117.637 121.485 116.145 121.972 114.336 122.026C112.675 122.08 111.268 121.616 110.093 120.635C108.964 119.707 108.184 118.409 107.766 116.755C107.573 115.966 107.48 115.077 107.48 114.08C107.48 112.921 107.604 111.939 107.836 111.151C108.849 107.758 111.059 106.065 114.468 106.065C116.06 106.065 117.428 106.459 118.564 107.255C120.071 108.307 120.844 109.721 120.883 111.483H117.892C117.822 110.803 117.552 110.2 117.072 109.682C116.385 108.925 115.372 108.593 114.043 108.693C113.362 108.763 112.752 109.018 112.219 109.466C111.685 109.914 111.283 110.478 111.02 111.159C110.758 111.839 110.595 112.712 110.541 113.779C110.495 115.062 110.657 116.129 111.028 116.971C111.546 118.123 112.273 118.865 113.2 119.197C113.486 119.29 113.826 119.344 114.22 119.359C114.669 119.367 115.109 119.313 115.542 119.197C116.47 118.927 117.119 118.463 117.482 117.806C117.637 117.535 117.776 117.056 117.899 116.368L117.884 116.345Z" fill="white"/>
<path d="M130.738 106.312L135.955 121.554H132.747L131.712 118.509H126.062L125.01 121.554H121.803L127.105 106.312H130.73H130.738ZM128.937 109.961L127.051 115.881H130.946L128.937 109.961Z" fill="white"/>
<path d="M137.648 121.554V106.312H146.12C146.931 106.312 147.65 106.506 148.276 106.884C148.964 107.333 149.42 107.943 149.629 108.708C149.837 109.474 149.946 110.1 149.946 110.579C149.946 110.989 149.892 111.406 149.783 111.816C149.613 112.411 149.351 112.898 148.995 113.269C148.74 113.547 148.307 113.864 147.712 114.219C148.338 114.652 148.663 114.869 148.694 114.884C149.103 115.255 149.343 115.742 149.412 116.345C149.482 116.948 149.528 118.076 149.559 119.746C149.567 120.341 149.76 120.758 150.131 120.998V121.562H146.769C146.522 121.114 146.382 120.635 146.352 120.14V117.079C146.352 116.051 145.726 115.541 144.466 115.541H140.787V121.562H137.648V121.554ZM140.787 108.933V112.913H145.084C145.525 112.913 145.95 112.72 146.352 112.341C146.823 111.893 147.016 111.329 146.939 110.648C146.939 109.505 146.305 108.94 145.038 108.94H140.779L140.787 108.933Z" fill="white"/>
<path d="M152.35 106.312H163.395V108.933H155.488V112.395H162.792V115.016H155.488V118.942H163.743V121.562H152.357V106.32L152.35 106.312Z" fill="white"/>
</g>
<defs>
<clipPath id="clip0_4929_34296">
<rect width="192" height="192" fill="white"/>
</clipPath>
</defs>
</svg>
