<svg width="192" height="192" viewBox="0 0 192 192" fill="none" xmlns="http://www.w3.org/2000/svg">
<g clip-path="url(#clip0_4929_34310)">
<path d="M96 192C149.019 192 192 149.019 192 96C192 42.9807 149.019 0 96 0C42.9807 0 0 42.9807 0 96C0 149.019 42.9807 192 96 192Z" fill="white"/>
<g clip-path="url(#clip1_4929_34310)">
<path d="M146.263 95.7267C146.263 127.023 117.66 151.643 85.1702 144.866C65.9774 140.867 50.8507 125.74 46.8515 106.547C40.0746 74.0574 64.6945 45.455 95.9909 45.455C107.487 45.455 118.079 49.3148 126.546 55.8016C127.131 56.2534 127.979 55.8351 127.99 55.0988L128.224 34.6622C128.224 34.1992 127.973 33.7698 127.561 33.5634C115.284 27.3498 100.927 24.667 85.8116 26.8311C55.6029 31.1594 31.6356 55.0096 27.1846 85.2016C20.7814 128.624 54.4539 165.888 96.7272 165.532C134.985 165.208 166.08 133.633 165.84 95.3698C165.729 77.4988 158.896 61.2231 147.741 48.9467C147.216 48.3722 146.263 48.7403 146.263 49.5212V95.7267Z" fill="#5E5E5F"/>
<path d="M103.125 126.804C98.3111 128.706 93.492 128.544 88.6673 126.838C88.3884 126.609 88.143 126.324 87.8306 126.151C75.6211 119.291 72.0513 106.178 79.096 94.063C81.0649 90.6829 83.4745 87.6264 85.9844 84.6535C90.9597 78.7523 94.7972 72.2933 95.9517 64.5068C97.3796 73.1411 101.964 80.1021 107.548 86.561C109.913 89.2941 112.004 92.2503 113.678 95.4686C116.082 100.104 117.32 104.962 116.16 110.205C114.475 117.824 110.08 123.324 103.119 126.81L103.125 126.804Z" fill="#FCC63B"/>
<path d="M95.9571 64.5012C94.8025 72.2877 90.9651 78.7466 85.9898 84.6478C83.4798 87.6263 81.0647 90.6773 79.1014 94.0574C72.0512 106.172 75.6209 119.285 87.836 126.146C88.1428 126.319 88.3938 126.603 88.6727 126.832C79.0344 124.991 71.895 119.614 67.3826 111.03C56.534 90.3873 69.9372 65.7674 93.1404 63.4917C93.8711 63.4192 94.6185 63.4917 95.3603 63.5028C95.5611 63.8375 95.7619 64.1666 95.9627 64.5012H95.9571Z" fill="#5F5E5E"/>
<path d="M95.9559 64.5012C95.7551 64.1666 95.5543 63.8375 95.3535 63.5028C108.879 62.8502 122.277 72.2096 126.616 85.3395C131.101 98.9212 126.02 114.561 114.479 122.264C111.049 124.551 107.597 127.01 103.123 126.798C110.084 123.318 114.479 117.818 116.164 110.194C117.324 104.951 116.086 100.092 113.682 95.4574C112.014 92.2391 109.917 89.2829 107.552 86.5498C101.969 80.0909 97.3838 73.1299 95.9559 64.4957V64.5012Z" fill="#5F5E5F"/>
</g>
</g>
<defs>
<clipPath id="clip0_4929_34310">
<rect width="192" height="192" fill="white"/>
</clipPath>
<clipPath id="clip1_4929_34310">
<rect width="140" height="140" fill="white" transform="translate(26 26)"/>
</clipPath>
</defs>
</svg>
