<svg width="192" height="192" viewBox="0 0 192 192" fill="none" xmlns="http://www.w3.org/2000/svg">
<g clip-path="url(#clip0_4929_34137)">
<path d="M96 192C149.019 192 192 149.019 192 96C192 42.9807 149.019 0 96 0C42.9807 0 0 42.9807 0 96C0 149.019 42.9807 192 96 192Z" fill="white"/>
<path d="M148.289 43.1451C148.699 40.6751 148.519 38.0251 149.699 35.7451C152.799 43.2151 155.799 50.7151 158.979 58.1551C160.069 60.2751 159.059 62.6751 158.869 64.8951C157.899 72.9551 156.739 81.0051 155.779 89.0751C154.779 88.2551 154.049 87.1951 153.349 86.1251C147.919 78.2651 138.529 73.3251 128.949 73.5351C129.869 72.5451 130.779 71.4651 132.069 70.9551C136.519 69.0951 141.049 67.1651 145.949 67.0051C145.769 66.4551 145.589 65.9051 145.399 65.3751C146.499 57.9851 147.269 50.5551 148.289 43.1551V43.1451Z" fill="#F7052D"/>
<path d="M97.857 79.565C102.847 76.315 108.917 74.755 114.857 75.265C120.487 75.065 126.157 74.905 131.787 75.215C140.017 75.595 147.867 80.165 152.487 86.955C158.387 95.245 159.507 106.655 155.647 116.015L155.597 116.135L155.547 116.255C153.107 122.185 148.867 127.535 143.077 130.465C138.097 133.355 132.187 133.975 126.537 133.795C124.187 133.545 121.847 134.195 119.497 133.925C120.727 132.995 121.917 131.985 123.297 131.265C130.377 127.955 135.937 121.505 138.177 114.015C141.427 104.425 139.487 93.195 133.077 85.325C131.257 83.025 128.997 81.155 126.657 79.405C125.107 78.155 123.277 77.355 121.467 76.595C117.127 77.805 113.627 80.775 110.587 83.985C107.587 87.245 105.657 91.275 103.457 95.075C99.437 101.985 95.497 108.935 91.507 115.855C89.567 119.425 87.467 122.985 84.507 125.815C81.777 128.605 78.127 130.175 74.667 131.815C70.357 133.735 65.547 133.325 60.957 133.385C61.187 133.185 61.657 132.775 61.887 132.565C65.717 129.195 68.527 124.885 70.967 120.445C75.827 111.915 80.737 103.405 85.637 94.895C85.517 94.595 85.287 93.995 85.177 93.705C85.357 93.835 85.707 94.095 85.877 94.225C87.327 92.125 88.347 89.765 89.897 87.735C90.267 87.395 90.647 87.075 91.047 86.765C91.267 86.175 91.497 85.575 91.707 84.985C93.697 83.095 95.607 81.105 97.877 79.555L97.857 79.565Z" fill="#F7052D"/>
<path d="M62.4989 67.2754C64.1089 67.2954 65.7189 67.3154 67.3289 67.3154C67.4789 68.3654 67.6289 69.4154 67.7789 70.4754C68.8889 70.6454 69.9989 70.8154 71.1089 71.0154C71.7189 70.0954 72.3389 69.1754 72.9189 68.2354C74.4389 68.6654 75.9189 69.2054 77.4189 69.6954C77.1389 70.7254 76.9289 71.7754 76.7389 72.8254C77.7189 73.3054 78.6989 73.8154 79.6689 74.3154C80.5789 73.6154 81.4889 72.9254 82.4089 72.2354C83.5489 73.1154 84.7489 73.9254 85.8389 74.8754C85.6889 75.9354 84.6889 76.6954 84.1489 77.6054C84.8789 78.4054 85.5989 79.1954 86.3189 80.0154C87.4489 79.6354 88.5889 79.2554 89.7089 78.8354C90.4889 80.0354 91.2689 81.2354 92.0489 82.4454C91.4589 82.8954 90.8689 83.3254 90.2989 83.7954C91.7389 84.9354 90.9089 86.6454 89.8989 87.7554C88.3489 89.7854 87.3289 92.1454 85.8789 94.2454C85.6989 94.1154 85.3489 93.8554 85.1789 93.7254C83.5589 88.9354 80.6389 84.5654 76.8089 81.2754C69.4689 75.8654 58.2689 76.7854 51.8389 83.2454C46.2389 89.0854 42.9789 97.1654 43.2489 105.275C43.2489 116.955 50.6589 128.685 61.8789 132.575C61.6489 132.775 61.1789 133.185 60.9489 133.395C65.5389 133.335 70.3489 133.745 74.6589 131.825C78.1289 130.175 81.7789 128.615 84.4989 125.825C87.4689 123.005 89.5689 119.445 91.4989 115.865C95.4889 108.945 99.4389 101.995 103.449 95.0854C105.659 91.2854 107.579 87.2454 110.579 83.9954C113.609 80.7754 117.119 77.8154 121.459 76.6054C123.279 77.3654 125.109 78.1654 126.649 79.4154C125.229 78.6454 123.829 77.8554 122.399 77.1054C119.029 79.8054 116.229 83.1654 114.009 86.8554C107.059 98.2554 100.189 109.705 93.2189 121.095C88.6089 128.555 80.2789 133.595 71.4989 133.995C66.8389 134.045 62.1789 133.845 57.5289 133.545C49.1889 133.055 41.4089 128.095 36.9689 121.095C31.3289 112.435 30.6689 100.995 34.8689 91.6054C34.6689 90.0554 35.2289 88.5554 35.5089 87.0554C35.9989 87.0454 36.9889 87.0254 37.4789 87.0154C38.2489 85.9454 39.0789 84.9154 39.9189 83.8954C39.1189 83.3354 38.3189 82.7854 37.5189 82.2354C38.2889 81.0154 39.0989 79.8254 39.9089 78.6354C41.0489 78.9954 42.1789 79.3754 43.3189 79.7454C44.0289 78.9754 44.8289 78.2554 45.4289 77.3954C44.8689 76.4954 44.2589 75.6254 43.6589 74.7554C44.8489 73.8554 46.0689 72.9854 47.2389 72.0454C48.2089 72.7754 49.1789 73.4954 50.1789 74.1854C51.0989 73.6554 52.0289 73.1454 52.9789 72.6654C52.7589 71.6254 52.5389 70.5954 52.3289 69.5554C53.8189 69.0754 55.3089 68.5954 56.8089 68.1754C57.3789 69.1054 57.9589 70.0354 58.5389 70.9554C59.6589 70.7554 60.7789 70.5954 61.9089 70.4354C62.0989 69.3854 62.2889 68.3354 62.4889 67.2854L62.4989 67.2754Z" fill="#030403"/>
<path d="M156.587 118.705L156.637 118.585C156.607 118.645 156.557 118.775 156.527 118.835L156.577 118.715L156.587 118.705Z" fill="#030403"/>
<path d="M35.2778 145.345C36.5278 143.485 38.9278 142.475 41.1178 143.035C40.6378 143.825 39.6378 144.135 39.1578 144.945C37.3678 147.755 36.0778 150.865 34.3578 153.725C33.2178 155.535 31.0178 156.145 29.0078 156.255C31.7378 153.035 33.0178 148.875 35.2778 145.345Z" fill="#F7052D"/>
<path d="M42.0169 143.035C43.3369 142.685 44.8169 143.005 45.9869 143.675C49.7069 146.055 49.8869 152.065 46.6369 154.915C45.0969 156.225 42.9669 156.255 41.0469 156.255C42.3569 155.465 43.7269 154.595 44.4069 153.175C45.9869 150.395 45.4969 146.615 43.2269 144.365C42.8869 143.895 41.7769 143.755 42.0169 143.035Z" fill="#F7052D"/>
<path d="M57.5475 143.095C59.4175 142.375 61.7475 143.345 62.5275 145.205C62.5175 146.145 61.6775 146.855 61.1775 147.595C60.5875 146.825 59.6275 145.885 58.5575 146.185C56.9675 146.575 56.5875 148.495 56.6875 149.895C56.7075 151.105 57.3175 152.635 58.6775 152.805C59.4575 152.865 61.0375 152.815 60.6575 151.605C60.6375 150.775 60.5375 149.955 60.4575 149.135C61.4675 149.185 62.4775 149.195 63.4875 149.165C63.1475 151.405 63.3375 153.655 63.5075 155.895C61.6475 154.895 59.7975 156.485 57.8875 155.985C56.4375 155.735 55.3775 154.545 54.7375 153.295C53.7475 151.055 53.7375 148.425 54.5975 146.145C55.1375 144.815 56.1275 143.565 57.5275 143.105L57.5475 143.095Z" fill="#F7052D"/>
<path d="M50.0578 143.265C51.0078 143.265 51.9578 143.265 52.9078 143.225C52.6778 147.445 52.8378 151.665 52.8078 155.885H50.0078C50.1278 151.675 50.0578 147.475 50.0578 143.265Z" fill="#F7052D"/>
<path d="M64.4494 143.266C65.4294 143.266 66.4094 143.266 67.3894 143.236C67.5494 146.016 67.0994 148.796 67.3494 151.566C67.4294 153.006 67.3894 154.446 67.3994 155.886H64.3594C64.6594 151.686 64.8294 147.466 64.4494 143.266Z" fill="#F7052D"/>
<path d="M70.5678 143.625C71.5978 143.595 72.6378 143.565 73.6678 143.535C74.6978 145.855 75.7278 148.185 77.0178 150.375C78.0478 148.075 79.0978 145.795 80.2178 143.535C81.0378 143.565 82.6878 143.615 83.5078 143.645C83.1578 147.595 83.1878 151.545 83.4878 155.485H79.8678C79.9478 153.615 80.0278 151.755 80.0578 149.895C78.5678 151.805 78.0478 154.255 76.6978 156.255C75.6578 154.225 74.8178 152.105 73.7978 150.065C73.7078 151.865 73.7178 153.665 73.7078 155.475C72.6478 155.475 71.5678 155.475 70.5078 155.475C70.7378 151.525 70.6978 147.575 70.5678 143.625Z" fill="#030403"/>
<path d="M88.2361 143.926C91.2161 142.536 95.3761 143.516 96.5961 146.806C98.8261 150.916 95.1861 156.756 90.3661 155.856C84.2561 155.766 82.8261 146.246 88.2361 143.926ZM89.5561 146.736C87.5961 147.786 87.9661 150.216 88.4761 151.996C89.8261 152.396 91.3761 153.846 92.6361 152.456C94.5261 151.336 94.0261 148.926 93.5061 147.196C92.2661 146.706 90.8061 145.646 89.5561 146.736Z" fill="#030403"/>
<path d="M98.4366 143.626C101.197 143.836 103.967 143.816 106.727 143.566L106.997 146.236C106.297 146.196 104.887 146.116 104.187 146.086C104.187 149.236 104.147 152.386 104.307 155.546C103.037 155.546 101.767 155.526 100.517 155.506C100.677 152.386 101.267 149.266 100.767 146.156C100.077 146.176 98.6666 146.206 97.9766 146.226C98.0966 145.576 98.3266 144.286 98.4466 143.636L98.4366 143.626Z" fill="#030403"/>
<path d="M111.166 144.005C115.786 141.335 121.606 146.006 120.026 151.076C119.396 155.886 112.526 157.556 109.516 154.016C106.666 151.206 107.576 145.745 111.166 144.005ZM110.646 149.415C111.056 151.515 113.286 154.075 115.516 152.555C118.226 151.105 117.236 146.316 114.106 146.206C112.246 146.106 111.386 148.035 110.646 149.415Z" fill="#030403"/>
<path d="M121.716 143.676C124.796 143.626 127.946 143.396 130.956 144.276C132.076 146.406 132.446 149.536 129.876 150.796C130.576 152.396 131.356 153.956 132.126 155.516C130.926 155.536 129.726 155.546 128.526 155.556C127.626 153.836 127.366 151.506 125.226 150.896C125.166 152.436 125.226 153.976 125.336 155.506H121.586C121.976 151.556 121.726 147.606 121.726 143.656L121.716 143.676ZM125.106 145.746C125.106 146.976 125.106 148.226 125.106 149.456C126.206 149.366 127.306 149.266 128.406 149.156C129.116 146.856 127.336 145.356 125.106 145.746Z" fill="#030403"/>
<path d="M157.988 144.415C158.658 144.545 159.988 144.795 160.658 144.915C160.658 145.595 160.658 146.945 160.658 147.615C161.228 147.595 162.348 147.555 162.918 147.535C162.918 148.125 162.938 149.305 162.938 149.895C160.318 148.955 160.588 151.255 160.508 153.025C161.138 153.105 162.378 153.275 162.998 153.365L162.898 155.225C161.278 155.775 159.588 155.855 157.918 155.415C157.458 153.505 158.978 150.425 156.648 149.485C157.548 147.935 158.048 146.235 157.978 144.435L157.988 144.415Z" fill="#030403"/>
<path d="M151.448 155.736C146.988 155.396 146.948 147.876 151.188 147.146C154.178 146.146 156.938 148.996 156.278 151.956C154.358 152.046 152.448 152.116 150.538 152.226C151.578 154.396 153.838 153.236 155.558 153.416C157.198 155.986 153.038 155.956 151.448 155.736ZM151.608 148.716C151.148 149.426 150.708 150.156 150.308 150.906C151.458 150.856 152.598 150.786 153.748 150.706C153.168 149.906 152.798 148.716 151.608 148.716Z" fill="#030403"/>
<path d="M138.168 147.596C139.588 147.076 140.758 147.296 141.688 148.256C143.088 147.246 144.718 147.196 146.358 147.456C146.788 150.136 146.748 152.846 146.818 155.556C146.028 155.556 144.468 155.526 143.688 155.516C143.578 153.586 143.988 151.566 143.388 149.706C140.138 149.036 141.628 153.686 141.338 155.546H138.258C138.308 152.906 138.298 150.246 138.168 147.606V147.596Z" fill="#030403"/>
<path d="M133.629 155.265C131.809 154.265 133.559 151.285 135.359 151.895C136.709 152.035 136.719 153.575 137.189 154.525C136.109 154.985 134.669 156.675 133.619 155.265H133.629Z" fill="#030403"/>
</g>
<defs>
<clipPath id="clip0_4929_34137">
<rect width="192" height="192" fill="white"/>
</clipPath>
</defs>
</svg>
