<svg width="192" height="192" viewBox="0 0 192 192" fill="none" xmlns="http://www.w3.org/2000/svg">
<g clip-path="url(#clip0_4929_34012)">
<path d="M96 192C149.019 192 192 149.019 192 96C192 42.9807 149.019 0 96 0C42.9807 0 0 42.9807 0 96C0 149.019 42.9807 192 96 192Z" fill="white"/>
<path d="M88.69 134.42V167.41C59.35 164.85 30.03 135.69 28.5 103.07C34.86 103.07 41.2 103.07 47.55 103.07C51.44 103.07 55.33 102.97 59.21 103.16C60.04 103.2 61.34 104.16 61.55 104.93C65.31 119.14 74.04 128.79 87.8 133.92C88.1 134.03 88.36 134.23 88.69 134.41V134.42Z" fill="#262626"/>
<path d="M28.6797 88.3802C30.3097 57.6502 57.5097 28.3402 88.4797 24.7002C88.5597 25.6202 88.6997 26.5302 88.6997 27.4502C88.7197 36.6302 88.6497 45.8102 88.7597 54.9902C88.7897 57.0302 88.1697 57.9802 86.2397 58.7502C73.5397 63.7902 65.4697 73.0602 61.7697 86.1602C61.3797 87.5502 61.2997 88.8302 59.2797 88.8102C49.4497 88.7202 39.6197 88.7502 29.7897 88.7202C29.4897 88.7202 29.1897 88.5402 28.6797 88.3802Z" fill="#ED1B24"/>
<path d="M103.09 56.1404V23.6704C122.74 21.0404 155.22 40.6804 163.5 60.2704C161.92 60.8704 160.35 61.5004 158.76 62.0704C150.64 64.9804 142.53 67.9404 134.36 70.7004C133.34 71.0404 131.49 70.7404 130.83 70.0104C123.46 61.8604 114.36 57.2604 103.1 56.1404H103.09Z" fill="#262626"/>
<path d="M103.121 136.02C114.821 134.82 124.461 129.86 132.031 120.5C142.491 124.24 152.981 127.99 163.491 131.74C156.001 150.98 124.171 170.3 103.121 168.46V136.03V136.02Z" fill="#262626"/>
<path d="M99.2491 108.391C92.5291 108.371 87.0791 102.901 87.1691 96.2605C87.2591 89.5705 92.8091 84.1505 99.4391 84.2705C105.949 84.3805 111.309 89.7905 111.369 96.3005C111.429 102.941 105.949 108.411 99.2491 108.391Z" fill="#262626"/>
<path d="M99.3702 69.4403C101.81 69.5103 103.85 71.7403 103.69 74.1603C103.54 76.4803 101.48 78.3503 99.1502 78.2903C96.7002 78.2303 94.6602 76.0303 94.8302 73.6103C94.9902 71.3103 97.1002 69.3703 99.3802 69.4403H99.3702Z" fill="#262626"/>
<path d="M103.701 118.901C103.671 121.391 101.611 123.281 99.0409 123.171C96.6609 123.071 94.7809 121.111 94.8209 118.781C94.8609 116.301 96.9409 114.391 99.4809 114.501C101.871 114.601 103.731 116.541 103.701 118.901Z" fill="#262626"/>
<path d="M87.7297 80.4002C87.7697 82.8602 86.0497 84.7202 83.6197 84.8402C81.0497 84.9702 79.0697 83.1202 79.0397 80.5502C78.9997 78.0202 80.9997 75.9802 83.4597 76.0302C85.8097 76.0802 87.6797 77.9902 87.7297 80.3902V80.4002Z" fill="#262626"/>
<path d="M126.049 96.4703C125.989 98.8503 124.079 100.79 121.749 100.82C119.299 100.85 117.299 98.7703 117.349 96.2503C117.399 93.6903 119.409 91.8203 121.959 91.9703C124.349 92.1003 126.099 94.0303 126.039 96.4703H126.049Z" fill="#262626"/>
<path d="M115.23 76.0405C117.72 76.1105 119.6 78.2005 119.47 80.7305C119.34 83.1605 117.48 84.8905 115.03 84.8405C112.46 84.7905 110.67 82.8205 110.8 80.2105C110.92 77.8105 112.87 75.9805 115.23 76.0405Z" fill="#262626"/>
<path d="M76.7195 100.82C74.2395 100.75 72.3595 98.6505 72.4995 96.0905C72.6295 93.6505 74.5095 91.9005 76.9395 91.9605C79.4795 92.0205 81.2895 94.0305 81.1595 96.6305C81.0395 99.0005 79.0495 100.88 76.7195 100.82Z" fill="#262626"/>
<path d="M87.7409 112.22C87.7609 114.8 85.8609 116.68 83.2709 116.62C80.8209 116.56 79.0609 114.77 79.0509 112.31C79.0309 109.77 81.0109 107.78 83.5109 107.85C85.9009 107.91 87.7209 109.79 87.7409 112.22Z" fill="#262626"/>
<path d="M115.25 116.621C112.78 116.681 110.94 114.991 110.8 112.541C110.66 109.981 112.51 107.921 115.02 107.851C117.4 107.781 119.34 109.591 119.47 111.991C119.61 114.611 117.83 116.561 115.26 116.631L115.25 116.621Z" fill="#262626"/>
</g>
<defs>
<clipPath id="clip0_4929_34012">
<rect width="192" height="192" fill="white"/>
</clipPath>
</defs>
</svg>
