<svg width="192" height="192" viewBox="0 0 192 192" fill="none" xmlns="http://www.w3.org/2000/svg">
<g clip-path="url(#clip0_4929_34094)">
<path d="M96 192C149.019 192 192 149.019 192 96C192 42.9807 149.019 0 96 0C42.9807 0 0 42.9807 0 96C0 149.019 42.9807 192 96 192Z" fill="#F2AA9C"/>
<path d="M60.9553 119.28C60.9553 118.02 60.8453 116.75 61.0053 115.51C61.0653 115.01 61.7153 114.57 62.0953 114.11C62.4053 114.57 62.9553 115.01 62.9753 115.49C63.0753 117.38 63.0153 119.28 63.3253 121.19C63.3653 120.7 63.3253 120.18 63.4753 119.73C63.7453 118.97 64.1553 118.26 64.5053 117.52C65.1053 118.1 65.7053 118.68 66.4053 119.35C66.4953 118.67 66.8353 117.7 66.7253 116.78C65.8253 108.97 68.1453 102.46 74.4253 97.5796C77.4053 95.2696 80.3353 92.7996 83.6153 91.0196C85.8453 89.7996 88.6353 89.4396 91.2253 89.1196C92.1953 88.9996 93.3853 89.9596 94.3453 90.6196C95.1553 91.1696 95.8753 91.9296 96.4253 92.7396C96.7053 93.1496 96.8153 94.1496 96.5553 94.3896C95.0953 95.7496 93.4853 96.9496 91.9353 98.2296C91.5253 98.5696 91.0853 98.9196 90.8053 99.3696C89.4953 101.49 87.5253 102.52 85.1653 102.96C81.3453 103.68 80.3053 104.94 80.2053 108.89C80.0353 115.63 84.3053 120.05 91.0553 120.07C95.8053 120.09 100.555 120.09 105.305 120.04C109.025 120 110.935 119.33 111.125 114.03C111.335 108.33 107.955 104.44 102.435 102.96C100.325 102.39 98.4353 100.88 96.5553 99.6296C96.0653 99.2996 95.6153 98.1996 95.8053 97.7096C96.2553 96.5496 97.2553 95.6096 97.7453 94.4596C98.3053 93.1396 98.9553 92.2496 100.525 92.3196C100.865 92.3296 101.365 92.0696 101.545 91.7796C103.335 88.9096 106.065 89.1596 108.795 89.5996C121.965 91.6796 129.305 105.54 123.635 117.56C123.265 118.34 122.925 119.14 122.515 120.05C126.845 121.58 129.695 118.32 132.905 117.21C133.475 116.15 134.015 115.14 134.555 114.13C135.145 114.48 135.735 114.82 136.055 115.01C136.995 114.65 137.895 114.03 138.805 114.01C143.145 113.91 147.485 113.99 151.835 113.97C153.115 113.97 154.025 114.23 154.435 115.67C154.555 116.1 155.555 116.53 156.165 116.55C159.285 116.65 162.405 116.58 165.525 116.62C167.825 116.65 168.415 117.23 168.455 119.53C168.505 122.92 168.455 126.31 168.495 129.71C168.515 131.17 168.035 132.05 166.455 132.13C165.155 132.2 164.235 132.62 163.775 134.1C163.245 135.8 161.725 136.59 159.995 136.74C158.715 136.86 157.415 136.86 156.135 136.82C153.575 136.74 151.305 137.25 148.995 138.62C147.295 139.63 145.005 139.88 142.955 139.98C140.055 140.11 137.085 140.06 134.245 139.55C132.425 139.22 130.525 138.22 129.095 137C126.815 135.05 124.475 133.91 121.415 133.92C113.755 133.93 106.095 133.71 98.4253 133.65C91.6653 133.6 84.8953 133.6 78.1353 133.65C73.9453 133.68 69.7253 133.57 65.5753 134.02C63.1653 134.28 60.2753 134.9 58.6553 136.45C55.8653 139.12 52.7653 139.91 49.2653 140.01C46.6953 140.08 44.1153 139.95 41.5553 139.69C40.3253 139.56 38.9953 139.15 37.9753 138.48C36.0553 137.21 34.0453 136.79 31.8053 136.83C30.1853 136.86 28.5553 136.72 26.9453 136.56C25.0853 136.38 23.7953 135.22 23.6853 133.45C23.4753 130.16 23.3953 126.83 23.7353 123.56C23.8353 122.59 25.3653 121.53 26.4753 120.96C27.5453 120.41 28.3453 119.96 28.3853 118.67C28.4253 117.1 29.3353 116.59 30.7953 116.59C34.0553 116.59 37.3053 116.52 40.5653 116.49C41.5653 116.49 42.3353 116.39 42.7253 115.15C42.8953 114.6 44.0053 114.03 44.7053 114.02C49.0453 113.92 53.3853 114.03 57.7353 113.95C59.6753 113.91 60.4753 114.67 60.3653 116.59C60.3153 117.49 60.4553 118.41 60.5053 119.32C60.6653 119.32 60.8153 119.31 60.9753 119.3L60.9553 119.28ZM88.2653 127.96C88.2653 127.96 88.2653 127.95 88.2653 127.94C94.2953 127.94 100.335 128.11 106.365 127.9C114.675 127.62 121.115 122.88 123.505 114.97C125.865 107.18 124.665 101.38 117.605 95.3896C114.465 92.7196 110.825 91.1996 106.655 91.0796C104.175 91.0096 103.175 91.7496 103.005 93.8496C102.845 95.8096 103.715 96.6496 106.145 96.9096C106.755 96.9696 107.375 96.9796 107.965 97.1196C116.825 99.2096 120.315 106.03 117.555 113.97C115.815 118.96 110.675 122.06 104.625 122.07C93.7753 122.1 82.9253 122.09 72.0853 122.12C68.5453 122.12 68.5453 122.15 67.8753 125.51C67.3953 127.94 67.3953 127.96 69.9653 127.96C76.0653 127.96 82.1653 127.96 88.2753 127.96H88.2653ZM137.735 124.32C137.735 124.32 137.715 124.32 137.705 124.32C137.705 126.56 137.685 128.8 137.705 131.04C137.735 133.88 137.745 133.87 140.445 133.38C141.035 133.27 141.665 133.31 142.275 133.3C144.985 133.3 147.705 133.26 150.415 133.3C151.795 133.32 152.345 132.74 152.335 131.35C152.285 126.74 152.285 122.13 152.335 117.51C152.345 116.18 151.785 115.7 150.515 115.71C147.595 115.74 144.685 115.74 141.765 115.7C141.035 115.69 140.235 115.66 139.605 115.35C138.145 114.63 137.745 115.25 137.745 116.58C137.745 119.16 137.745 121.73 137.745 124.31L137.735 124.32ZM59.0453 124.42H58.9953C58.9953 122.38 58.9953 120.35 58.9953 118.31C58.9953 116.323 58.0686 115.453 56.2153 115.7C55.8153 115.75 55.4053 115.7 54.9953 115.7C52.1453 115.7 49.2953 115.76 46.4453 115.68C44.8253 115.63 44.3053 116.3 44.3353 117.85C44.4053 121.65 44.3353 125.45 44.3653 129.25C44.4053 133.55 43.8153 133.24 48.4453 133.29C51.2253 133.32 54.0253 133.19 56.7653 133.53C58.9553 133.8 59.0253 134 59.0353 131.74C59.0353 129.3 59.0353 126.85 59.0353 124.41L59.0453 124.42ZM87.5253 91.3396C86.7953 91.5096 85.9453 91.5996 85.1753 91.9096C75.0453 96.0296 70.8353 106.16 75.0053 116.29C76.8253 120.72 79.1253 121.73 83.4653 120.26C82.0553 118.09 80.1753 116.03 79.2353 113.6C76.6053 106.86 79.8953 99.8896 86.6353 97.1296C87.3553 96.8296 88.5053 96.9196 88.1553 95.4896C87.8653 94.2896 87.7753 93.0296 87.5253 91.3296V91.3396ZM34.7153 123.88C34.7253 124.15 34.7453 124.41 34.7553 124.68C33.9353 124.77 33.0853 124.75 32.3053 124.98C31.5353 125.21 30.8353 125.69 30.1053 126.06C30.8053 126.38 31.4853 126.8 32.2253 126.98C33.0553 127.19 33.9453 127.18 34.8053 127.26C34.7953 127.57 34.7853 127.87 34.7753 128.18C33.7053 128.18 32.6053 128.05 31.5653 128.23C31.0153 128.33 30.5653 128.98 30.0753 129.39C30.5853 129.76 31.0953 130.45 31.6153 130.46C34.7953 130.54 37.9753 130.44 41.1553 130.46C42.3753 130.46 42.8553 129.97 42.8353 128.77C42.7953 125.93 42.8053 123.08 42.8353 120.24C42.8553 118.94 42.2853 118.41 41.0153 118.42C37.9053 118.44 34.7853 118.36 31.6753 118.46C31.1253 118.48 30.6053 119.12 30.0653 119.48C30.5753 119.79 31.0653 120.27 31.6153 120.37C32.6453 120.56 33.7053 120.53 34.7553 120.59C34.7553 120.89 34.7553 121.18 34.7453 121.48C33.6553 121.54 32.5453 121.49 31.4853 121.7C30.9853 121.8 30.5753 122.38 30.1253 122.75C30.5653 123.07 30.9653 123.59 31.4453 123.67C32.5153 123.86 33.6353 123.83 34.7253 123.89L34.7153 123.88ZM160.695 121.63C160.695 121.22 160.695 120.81 160.705 120.4C162.205 120.4 163.705 120.48 165.195 120.35C165.705 120.31 166.165 119.73 166.655 119.4C166.165 119.07 165.685 118.47 165.195 118.46C161.945 118.38 158.695 118.44 155.445 118.42C154.355 118.42 153.835 118.79 153.855 119.96C153.915 122.87 153.935 125.78 153.895 128.69C153.885 129.98 154.375 130.52 155.695 130.49C157.925 130.44 160.175 130.66 162.385 130.45C163.805 130.31 166.385 131.53 166.415 129.38C166.455 127.04 163.835 128.66 162.475 128.2C161.885 128 161.245 127.94 160.625 127.82C160.655 127.55 160.685 127.28 160.715 127.01C162.285 127.01 163.855 127.08 165.415 126.96C165.845 126.93 166.245 126.33 166.655 126C166.245 125.66 165.885 125.14 165.415 125.01C164.785 124.84 164.075 124.99 163.395 124.95C162.475 124.89 161.565 124.79 160.645 124.71C160.655 124.39 160.675 124.06 160.685 123.74C162.035 123.74 163.395 123.86 164.715 123.69C165.395 123.6 166.005 122.98 166.645 122.6C166.015 122.28 165.395 121.75 164.735 121.68C163.405 121.53 162.035 121.64 160.685 121.64L160.695 121.63ZM113.925 127.39C118.315 127.39 122.765 127.42 127.215 127.35C127.715 127.35 128.525 126.83 128.655 126.39C129.455 123.71 128.615 122.31 125.935 121.82C124.685 121.59 123.395 121.55 122.115 121.52C121.675 121.51 121.135 121.64 120.795 121.91C118.475 123.71 116.205 125.56 113.915 127.4L113.925 127.39ZM93.6353 92.5896C93.1653 91.0596 92.1553 90.7696 90.9253 90.9696C89.5153 91.1996 88.5953 92.1996 88.8653 93.5096C89.0553 94.4496 89.9153 95.5796 90.7753 95.9796C91.8953 96.4996 93.1253 96.0396 93.6453 94.4296C92.6753 94.1596 91.8253 93.9296 90.9753 93.6996C90.9753 93.5696 90.9753 93.4296 90.9753 93.2996C91.8153 93.0796 92.6553 92.8696 93.6353 92.6096V92.5896Z" fill="#262626"/>
<path d="M105.886 54.8799L103.316 64.2299L107.506 64.8699L104.606 73.2499L113.626 61.3299L110.076 60.3599L112.656 55.8499L105.886 54.8799Z" fill="#262626"/>
<path d="M93.8086 67.7498L94.2786 77.4298L98.4586 76.7298L98.3286 85.5898L103.169 71.4498L99.4986 71.6398L100.539 66.5498L93.8086 67.7498Z" fill="#262626"/>
<path d="M80.707 55.1497L84.087 64.2297L87.857 62.2997L90.407 70.7897L90.747 55.8497L87.317 57.1397L86.767 51.9697L80.707 55.1497Z" fill="#262626"/>
</g>
<defs>
<clipPath id="clip0_4929_34094">
<rect width="192" height="192" fill="white"/>
</clipPath>
</defs>
</svg>
