<svg width="192" height="192" viewBox="0 0 192 192" fill="none" xmlns="http://www.w3.org/2000/svg">
<g clip-path="url(#clip0_4929_33977)">
<path d="M96 192C149.019 192 192 149.019 192 96C192 42.9807 149.019 0 96 0C42.9807 0 0 42.9807 0 96C0 149.019 42.9807 192 96 192Z" fill="white"/>
<path d="M117.239 81.9504C119.599 81.9504 121.899 82.5404 123.629 81.8004C125.659 80.9304 125.389 78.3104 125.579 76.2304C125.969 74.1504 125.749 73.6204 123.539 73.6004C120.159 73.5804 116.789 73.5904 113.409 73.5904C106.999 73.5904 107.069 73.6104 105.509 79.7304C104.999 81.7204 106.269 82.8904 107.009 84.3104C109.169 88.4304 111.349 92.5204 112.409 97.1004C112.689 98.3204 112.759 99.4904 110.899 99.4804C103.849 99.4504 96.8087 99.4504 89.7587 99.4804C88.4787 99.4804 87.9387 98.7704 88.1087 97.7104C88.7787 93.5104 89.5287 89.3204 90.3287 85.1404C90.7287 83.0404 90.1387 82.3904 88.1087 82.9804C86.1587 83.5404 84.2287 84.1604 82.2687 84.6804C81.1487 84.9804 80.6487 85.7404 80.4487 86.7604C79.4587 91.8504 78.3487 96.9304 77.5587 102.06C77.1287 104.86 79.2787 108.33 82.2187 108.32C94.1087 108.29 105.999 108.3 117.899 108.3C119.249 108.3 120.189 107.76 120.959 106.58C123.269 103.04 122.889 99.3204 122.039 95.4904C121.009 90.8804 119.469 86.4504 117.249 81.9604L117.239 81.9504ZM145.489 99.4904C146.209 96.3004 146.999 93.3704 147.509 90.4004C148.169 86.5404 147.069 82.3704 141.449 82.7804C138.239 83.0104 134.999 82.8504 131.769 82.8104C129.849 82.7904 128.469 83.7104 127.829 85.3804C127.239 86.9104 127.009 88.5904 126.729 90.2204C126.549 91.2304 127.129 91.6604 128.149 91.6304C129.759 91.5904 131.379 91.6204 132.989 91.6204C137.799 91.6204 137.619 91.5804 136.739 96.4104C136.279 98.9004 134.939 99.4804 132.839 99.4804C131.519 99.4804 130.199 99.5004 128.879 99.4804C126.579 99.4304 125.289 99.4104 124.209 101.65C124.209 101.77 123.899 102.86 123.839 103.05C122.639 106.81 123.419 108.13 126.849 108.33C132.579 108.65 138.269 107.71 144.029 108.2C148.979 108.62 153.999 108.3 158.989 108.28C161.679 108.28 163.609 106.94 164.439 104.43C164.929 102.93 165.289 101.39 165.629 99.8404C166.549 95.6904 167.479 91.5404 168.279 87.3704C168.409 86.6904 168.999 85.5904 167.689 85.1404C165.569 84.4104 163.479 83.5704 161.319 82.9504C160.049 82.5904 159.249 82.9904 158.949 84.6204C158.139 89.0804 156.989 93.4804 156.129 97.9404C155.909 99.1004 155.279 99.4504 154.399 99.4704C151.479 99.5404 148.559 99.5004 145.509 99.5004L145.489 99.4904ZM156.069 110.03C153.649 110.03 151.239 110.03 148.819 110.03C148.129 110.03 147.409 110.07 147.259 110.9C146.919 112.74 146.629 114.6 146.359 116.46C146.149 117.86 146.729 118.53 148.199 118.4C150.519 118.19 152.899 118.14 155.169 118.18C157.589 118.22 160.059 118.18 162.499 118.39C163.329 118.47 163.509 118.1 163.689 117.29C164.089 115.53 164.209 113.71 164.679 111.99C165.139 110.32 164.459 110.04 163.109 110.04C160.759 110.04 158.409 110.04 156.069 110.04V110.03Z" fill="#FF5C31"/>
<path d="M156.068 110.031C158.418 110.031 160.768 110.031 163.108 110.031C164.448 110.031 165.128 110.311 164.678 111.981C164.208 113.701 164.088 115.521 163.688 117.281C163.508 118.091 163.328 118.461 162.498 118.381C160.058 118.161 157.588 118.211 155.168 118.171C152.898 118.131 150.518 118.181 148.198 118.391C146.728 118.521 146.148 117.851 146.358 116.451C146.628 114.591 146.918 112.741 147.258 110.891C147.408 110.061 148.138 110.021 148.818 110.021C151.238 110.021 153.648 110.021 156.068 110.021V110.031Z" fill="#FF5C31"/>
<path d="M45.1784 98.6305C45.4584 99.7505 46.3784 99.2505 46.9984 99.2605C51.3184 99.3105 55.6484 99.2405 59.9684 99.3305C62.1984 99.3705 63.5884 98.5105 64.1184 96.3105C64.2684 95.6805 64.6284 95.0805 64.7184 94.4505C64.8484 93.4405 66.2384 92.2905 64.5584 91.4305C63.2184 90.7505 60.8484 91.4605 60.4584 92.9305C59.9684 94.7605 58.9084 94.9205 57.3884 94.8505C55.5584 94.7705 53.7284 94.8205 51.8884 94.8505C50.6884 94.8705 50.1484 94.1305 50.5484 93.1905C51.7184 90.5005 52.0584 87.5005 53.6784 84.9605C54.7384 83.2905 56.1684 82.6305 58.0184 82.6205C62.0484 82.6105 66.0984 82.8605 70.1084 82.5605C73.7484 82.2905 75.6084 86.1905 75.2184 88.7305C74.5284 93.2205 73.4784 97.6805 71.9884 101.97C70.4684 106.34 67.6284 107.66 62.6884 108.08C60.7984 108.24 58.8784 108.14 56.9784 108.16C52.0684 108.1 47.1484 108.11 42.2484 107.94C40.9384 107.89 40.0984 108.52 39.5184 109.35C37.7884 111.85 35.3684 113.69 33.4584 116C32.4984 117.17 31.5284 117.29 30.2984 116.22C28.9884 115.07 27.5084 114.12 26.0984 113.08C24.3884 111.82 24.3084 110.53 26.0484 109.25C27.1884 108.41 28.1884 107.47 29.0984 106.42C29.7384 105.68 29.9684 104.97 28.7384 104.39C21.6884 101.02 22.6284 93.6405 26.5184 88.4805C27.8984 86.6605 29.5684 85.2305 31.3684 83.8505C35.2384 80.8905 41.5584 81.5705 44.3084 85.5105C46.4684 88.6105 46.1684 92.1505 45.7384 95.6705C45.6184 96.6705 45.0484 97.5905 45.1784 98.6405V98.6305ZM37.0584 91.4705C35.6284 91.3605 32.7084 95.1505 33.1584 96.4605C33.5984 97.7305 34.8284 98.0405 35.6884 96.9705C36.6484 95.7805 37.4084 94.4505 37.8184 92.9405C38.0384 92.1205 37.7584 91.6905 37.0484 91.4705H37.0584Z" fill="#FF5C31"/>
<path d="M57.0168 109.691C58.7768 109.711 60.5368 109.791 62.2868 109.731C64.0868 109.681 64.9968 110.181 64.2668 112.171C64.0468 112.771 64.0968 113.461 63.9468 114.101C63.3068 116.841 61.5735 118.214 58.7468 118.221C58.0168 118.221 57.2868 118.251 56.5468 118.261C54.8668 118.251 54.1768 117.671 54.7568 115.831C55.2568 114.261 55.4768 112.591 55.6268 110.941C55.7168 109.941 56.2068 109.731 57.0068 109.681L57.0168 109.691Z" fill="#FF5C31"/>
</g>
<defs>
<clipPath id="clip0_4929_33977">
<rect width="192" height="192" fill="white"/>
</clipPath>
</defs>
</svg>
