<svg width="192" height="192" viewBox="0 0 192 192" fill="none" xmlns="http://www.w3.org/2000/svg">
<g clip-path="url(#clip0_4938_33100)">
<path d="M96 192C149.019 192 192 149.019 192 96C192 42.9807 149.019 0 96 0C42.9807 0 0 42.9807 0 96C0 149.019 42.9807 192 96 192Z" fill="#1E7D5F"/>
<path d="M107.333 107.439C107.853 109.479 106.903 110.099 105.403 110.419C100.983 111.349 96.5827 112.349 92.1627 113.289C91.3027 113.469 90.1027 113.979 90.0227 112.429C89.9627 111.219 89.3627 109.589 91.2727 109.149C96.2227 108.019 101.193 106.979 106.143 105.849C108.323 105.349 107.073 107.089 107.323 107.439H107.333Z" fill="#EB9174"/>
<path d="M144.443 82.9999C144.023 80.2899 143.783 77.9099 146.663 76.5899C147.783 76.0699 147.783 75.0199 147.683 73.9099C147.493 71.8099 148.603 70.4799 150.513 69.8899C152.443 69.2999 153.863 70.2999 154.723 71.8999C155.643 73.5999 155.193 75.2299 153.723 76.4799C150.863 78.8999 147.833 81.0999 144.443 83.0099V82.9999Z" fill="#EB9174"/>
<path d="M168.503 90.0797C167.403 90.7397 166.263 91.3397 165.223 92.0897C160.673 95.3297 156.143 98.6097 151.393 102.03C155.273 104.25 158.333 107.17 158.753 111.98C159.023 115.12 158.453 118.02 156.473 120.57C152.253 126 146.043 126.56 138.523 121.97C136.613 127.94 133.123 132.52 127.103 134.73C123.323 136.11 119.483 136.16 115.673 135.02C108.013 132.74 102.963 125.32 103.263 116.63C104.293 116.34 105.423 116.03 106.593 115.71C106.933 117.99 107.033 120.09 107.583 122.06C109.473 128.76 116.003 132.8 123.233 131.92C129.543 131.15 134.933 125.17 135.003 118.52C135.113 108.05 135.153 97.5797 134.973 87.1097C134.923 84.3297 135.863 82.8697 138.743 82.1797V104.98C145.933 100.41 152.503 96.3597 158.933 92.1097C162.243 89.9197 165.313 87.3497 168.483 84.9597V90.0997L168.503 90.0797ZM147.183 105.35C142.683 105.33 138.953 108.98 138.963 113.38C138.963 117.69 142.893 121.6 147.173 121.57C151.543 121.53 155.173 117.74 155.133 113.24C155.093 108.78 151.643 105.37 147.183 105.35Z" fill="white"/>
<path d="M168.5 76.9388C161.5 82.1188 154.51 87.3188 147.49 92.4788C146.59 93.1388 145.57 93.6388 144.49 94.2788C143.69 91.4788 144.51 89.9988 146.81 88.3488C154.2 83.0588 161.29 77.3488 168.5 71.7988V76.9388Z" fill="white"/>
<path d="M69.6713 102.269C90.7713 100.719 110.901 96.0294 130.031 86.6295C130.701 89.0595 130.671 90.6095 128.091 91.7695C112.861 98.5895 96.9913 102.949 80.4413 104.879C79.9713 104.939 79.5013 105.079 79.0313 105.059C75.2613 104.899 73.2213 106.319 71.9213 110.269C70.2313 115.399 64.3613 117.849 59.0413 116.739C54.0013 115.689 50.2113 111.119 50.1113 105.659C50.0013 99.3795 49.9813 93.0895 50.1113 86.8095C50.1513 84.5595 49.3113 83.9495 47.1813 83.7195C40.2313 82.9595 33.3313 81.8195 26.3813 81.0695C23.5813 80.7695 23.1513 79.4395 23.7613 76.8895C27.9713 77.5895 32.1313 78.3795 36.3113 78.9595C40.2513 79.4995 44.2213 79.7895 48.1613 80.2495C49.8513 80.4495 50.0613 79.4595 50.0613 78.1795C50.0613 75.0395 49.9613 71.8895 50.1513 68.7595C50.2013 67.9395 51.0213 66.6595 51.7113 66.4795C53.5013 66.0095 53.5713 67.4495 53.5613 68.7795C53.5413 71.8295 53.6413 74.8795 53.5313 77.9195C53.4613 79.8895 54.1413 80.5295 56.1413 80.5295C85.6013 80.5695 113.251 74.4495 137.521 56.6595C137.811 56.4495 138.171 56.3495 138.511 56.1895C139.491 59.0495 138.491 60.7595 136.111 62.3695C120.681 72.7795 103.651 79.1295 85.3913 81.8495C75.5913 83.3095 65.6113 83.4895 55.7013 84.2495C55.1413 84.2895 54.5913 84.3495 53.7413 84.4295C53.6813 85.5795 53.5613 86.6895 53.5613 87.7995C53.5413 93.2295 53.5213 98.6595 53.5613 104.079C53.6113 109.529 56.8713 113.179 61.6213 113.219C66.3113 113.249 69.4913 109.599 69.6013 104.069C69.6013 103.599 69.6413 103.119 69.6813 102.269H69.6713Z" fill="white"/>
<path d="M78.28 90.6289C79.16 93.4889 77.96 94.3989 75.59 94.5189C70.88 94.7389 66.17 95.0389 61.25 95.3289V91.6289C66.94 91.2989 72.57 90.9689 78.28 90.6389V90.6289Z" fill="white"/>
<path d="M78.3629 65.8594C78.6529 69.4494 78.4129 69.6094 73.6629 69.3094C72.6029 65.8694 73.4129 65.2594 78.3629 65.8594Z" fill="white"/>
</g>
<defs>
<clipPath id="clip0_4938_33100">
<rect width="192" height="192" fill="white"/>
</clipPath>
</defs>
</svg>
