<svg width="192" height="192" viewBox="0 0 192 192" fill="none" xmlns="http://www.w3.org/2000/svg">
<g clip-path="url(#clip0_4958_32240)">
<path d="M96 192C149.019 192 192 149.019 192 96C192 42.9807 149.019 0 96 0C42.9807 0 0 42.9807 0 96C0 149.019 42.9807 192 96 192Z" fill="white"/>
<path d="M97.7417 99.776C99.2106 113.571 97.4837 127.585 100.481 141.281C100.699 143.981 103.141 146.243 102.128 149.201C102.247 152.476 101.97 155.85 102.605 159.026C104.034 166.212 100.243 168.137 94.1093 168.852C88.1148 169.566 85.5343 167.78 86.2688 161.448C87.3208 152.297 87.956 143.107 88.8095 133.957C89.9409 121.809 90.7944 109.82 85.7329 98.0888C84.4228 95.0519 90.1989 92.1142 87.9957 87.9855C87.1421 85.941 88.1346 85.6235 89.8615 86.0204C90.7547 89.7124 91.6479 93.3846 92.5213 97.0766C93.5932 99.2401 96.8088 97.3147 97.7417 99.776Z" fill="#3F2617"/>
<path d="M58.6953 73.5525C65.186 74.7237 71.4584 76.3116 76.3215 82.4252C72.1333 85.6011 66.6747 82.2466 62.1094 85.2041C66.1785 89.571 72.6295 88.3602 75.6466 92.9652C60.5016 100.726 49.9219 97.9871 41.863 84.827C39.362 80.7182 39.1635 78.2767 44.5824 77.4629C48.2942 72.5998 52.6214 69.9003 58.6953 73.5525Z" fill="#8FC743"/>
<path d="M80.3106 44.2367H79.338L78.3852 44.4351C77.0355 45.5665 70.9219 41.7158 74.5543 48.0874C74.2367 50.0922 69.195 50.251 73.3634 54.3598C78.8815 59.7787 79.8144 65.5747 79.5762 72.919C61.7713 64.6021 55.9555 50.3503 62.9028 32.3866C64.1731 29.0916 65.4236 27.325 69.2347 29.687C73.4031 32.2476 77.9287 34.2127 82.2956 36.4557C83.5659 39.5125 82.7124 42.0532 80.3106 44.2367Z" fill="#8EC642"/>
<path d="M118.047 46.2782C117.313 45.6033 116.558 44.9482 115.824 44.2734C114.276 42.3083 112.053 40.8791 111.259 38.3185C111.1 37.465 111.179 36.6115 111.457 35.7977C112.668 32.8798 115.983 33.7929 117.948 32.2446C118.881 32.0858 119.853 32.0064 120.747 31.7285C131.684 28.2946 131.684 28.2946 132.16 39.5095C133.51 43.142 132.12 47.0721 133.351 50.7443C134.085 56.1234 132.517 60.4307 127.575 63.1699C123.486 65.9885 121.402 71.8639 113.998 71.725C117.789 64.3609 115.804 55.8654 121.858 49.8709C123.307 48.1638 123.367 46.1392 121.858 44.7895C120.211 43.3008 119.357 45.8018 118.047 46.2782Z" fill="#8FC744"/>
<path d="M133.876 75.6709C140.128 75.6907 148.564 78.6284 148.624 82.7373C148.743 89.0692 141.895 94.0713 135.285 96.6517C129.33 98.9939 123.058 97.8029 116.885 97.4258C117.957 91.1732 121.43 88.573 131.831 86.1514C132.943 86.2308 134.61 87.3622 135.087 86.4094C135.841 84.9207 134.451 83.7694 133.002 83.0747C132.208 82.6777 131.633 82.0822 131.196 81.3081C131.018 78.9262 131.752 76.981 133.876 75.6709Z" fill="#92C849"/>
<path d="M80.3091 44.2317C80.0908 41.4131 80.8054 38.8129 82.2544 36.4111C82.9293 36.3714 83.6041 36.3317 84.279 36.292C89.0428 37.9395 91.2263 41.3932 91.3454 46.296C93.8265 53.7197 96.8039 61.1037 93.0326 71.4253C91.9607 59.2378 77.6691 56.2009 80.3091 44.2317Z" fill="#94C94C"/>
<path d="M112.05 36.5321C112.109 37.2864 112.169 38.0208 112.228 38.7751C113.459 40.3432 113.975 42.1495 113.856 44.1344C115.106 54.0194 107.722 59.1604 101.986 67.2986C98.7108 57.2152 102.542 49.851 104.586 42.3083C105.539 38.3583 107.167 35.3213 112.05 36.5321Z" fill="#93C94A"/>
<path d="M91.881 30.2209C95.8311 27.7794 98.4711 16.4652 104.565 28.3153C106.788 33.4761 107.979 38.4583 101.984 42.0907C99.543 43.4206 97.7366 46.001 94.5806 45.9216C89.2411 41.4754 88.2089 36.2551 91.881 30.2209Z" fill="#91C847"/>
<path d="M145.503 151.636C138.953 168.071 138.953 168.071 118.051 166.662C117.535 166.265 117.297 165.808 117.376 165.312C117.456 164.796 117.555 164.518 117.694 164.518C118.865 163.287 120.354 162.533 121.902 161.858C123.748 161.143 125.653 160.608 127.599 160.171C128.313 160.091 129.028 160.171 129.703 160.389C130.358 160.33 130.477 162.196 131.509 160.846C131.41 159.714 130.695 159 129.981 158.226C129.484 157.511 129.187 156.737 129.107 155.883C129.266 153.958 129.961 152.291 131.211 150.822C131.985 150.127 132.859 149.631 133.831 149.313C138.02 148.599 142.267 147.666 145.503 151.636Z" fill="#C24A47"/>
<path d="M44.4383 68.3935C39.8531 63.7091 42.2946 60.5927 46.7607 57.9131L46.6813 58.052C51.2863 58.1711 55.7127 58.7269 59.3253 62.0616C61.866 64.4038 64.3472 66.6667 60.5361 69.9617C54.7203 74.0308 49.3411 73.6933 44.4383 68.3935Z" fill="#91C746"/>
<path d="M147.499 59.9514C150.099 66.6407 146.129 71.6626 138.11 71.7221C133.922 71.7618 130.349 70.5113 128.205 66.5613C129.972 60.8844 133.961 58.2444 139.777 58.1055C141.484 59.4354 143.39 60.1897 145.593 59.9118C146.248 59.217 146.863 59.1972 147.499 59.9514Z" fill="#91C847"/>
<path d="M112.357 101.637C118.709 101.081 122.639 103.999 123.572 109.298C124.267 113.288 119.999 113.467 117.339 113.248C112.218 112.832 107.474 110.529 106.581 105.11C105.846 100.565 110.432 102.173 112.357 101.637Z" fill="#92C848"/>
<path d="M127.875 161.205C126.525 163.507 124.242 162.971 122.178 163.11C120.57 162.574 119.32 163.229 118.228 164.361C118.168 165.135 118.109 165.909 118.049 166.683C112.988 164.639 114.695 158.247 110.546 155.151C108.78 153.821 110.884 151.121 113.881 151.22C117.136 151.34 120.391 151.379 123.647 151.459C127.12 153.821 129.066 156.838 127.875 161.205Z" fill="#CC6357"/>
<path d="M133.883 75.6754C133.208 77.5412 132.513 79.4071 131.838 81.2531C129.853 87.2079 124.752 87.6446 119.67 88.1408C117.07 87.5453 113.795 87.7835 113.874 83.6747C119.71 78.9704 125.228 73.4126 133.883 75.6754Z" fill="#90C746"/>
<path d="M120.072 85.937C124.359 85.3217 128.408 84.0514 131.842 81.2725C132.517 81.3916 133.212 81.5304 133.887 81.6495C134.522 83.7536 134.482 85.8577 133.827 87.9617C126.642 88.3587 121.58 92.5667 116.916 97.4298C112.092 95.5044 114.673 91.2368 113.958 88.0014C115.427 85.6591 118.384 87.6639 120.072 85.937Z" fill="#F2F7EA"/>
<path d="M75.4972 104.834C74.3062 104.477 70.2371 106.263 71.0112 101.936C71.6861 98.1247 75.2193 96.3978 78.8914 95.6833C82.3651 94.9885 82.3452 97.5491 82.5238 99.8516C82.9208 104.397 80.261 105.429 75.4972 104.834Z" fill="#9BCC57"/>
<path d="M145.484 151.638C140.919 151.539 136.354 151.44 131.808 151.321C129.387 147.728 132.185 145.425 133.892 142.865C134.408 139.292 135.282 136.315 139.768 139.292C141.038 140.423 141.713 141.892 142.189 143.48C142.705 145.882 145.048 147.192 145.742 149.475C145.643 150.209 145.564 150.924 145.484 151.638Z" fill="#FAF3F2"/>
<path d="M118.246 138.757C121.957 144.831 120.032 147.054 113.224 146.557C110.028 146.319 108.4 152.473 104.133 149.158C103.001 147.868 102.882 146.498 103.696 145.009C104.411 144.374 105.145 143.739 105.86 143.104C106.872 142.151 107.983 141.317 109.293 140.821C112.271 140.106 114.673 136.811 118.246 138.757Z" fill="#FD6A9B"/>
<path d="M131.996 52.3523C132.056 48.0648 132.115 43.7972 132.175 39.5098C134.438 41.8321 133.207 45.0676 134.338 47.8465C136.879 47.906 138.368 42.3879 141.008 45.6432C143.707 48.9581 142.159 52.9676 139.896 56.3817C133.763 61.9395 134.636 53.6624 131.996 52.3523Z" fill="#9ECE5C"/>
<path d="M147.503 59.9554L146.55 60.0149L145.598 59.9355C145.637 59.618 145.637 59.2805 145.697 58.9629C146.61 54.1196 148.595 50.3086 154.292 50.3086C156.019 50.3086 157.646 51.2812 157.19 53.286C156.038 58.3674 151.552 58.9232 147.503 59.9554Z" fill="#A1D061"/>
<path d="M84.1922 34.845C83.8349 34.2892 83.3982 33.793 83.1401 33.1975C81.6713 29.8231 80.1826 25.0989 83.815 23.6499C88.0429 21.9627 89.1545 26.9846 90.4249 30.2598C90.1073 34.1701 90.4646 38.9737 84.1922 34.845Z" fill="#A8D36C"/>
<path d="M110.242 142.945C108.773 142.984 107.324 143.044 105.856 143.083C105.3 140.285 100.357 139.034 103.493 134.806C106.59 130.638 110.103 132.107 113.775 133C114.45 133.615 114.768 134.37 114.728 135.263C113.478 137.962 111.949 140.503 110.242 142.945Z" fill="#FB9EB4"/>
<path d="M84.2031 34.8482C88.9273 36.8927 88.709 32.2678 90.4359 30.263C90.9321 30.2432 91.4085 30.2432 91.9047 30.2432C91.6863 35.6819 91.7856 41.0412 94.6042 45.9639C93.5324 46.083 92.4605 46.2021 91.3688 46.3212C89.0067 42.9865 86.6446 39.6518 84.3024 36.3171C84.223 35.801 84.2031 35.3246 84.2031 34.8482Z" fill="#F4F9ED"/>
<path d="M102.002 42.1104C104.166 37.7634 104.979 33.1584 104.582 28.335C105.615 28.9701 106.647 29.6053 107.679 30.2405C110.299 31.1734 113.396 30.0618 115.738 32.1659C116.472 32.1857 117.226 32.2056 117.961 32.2453C115.996 33.6744 114.031 35.1036 112.066 36.5328C109.584 38.4581 107.103 40.3637 104.602 42.2891C103.729 42.2295 102.855 42.17 102.002 42.1104Z" fill="#F7FBF3"/>
<path d="M52.8307 44.4718C56.1059 45.8216 57.0586 48.4218 56.7807 51.6374C56.6219 53.5826 56.483 56.3219 53.9621 55.9249C50.0121 55.3095 49.1189 51.8161 49.3769 48.3821C49.5159 46.5957 50.1312 44.3924 52.8307 44.4718Z" fill="#99CC54"/>
<path d="M131.994 52.3565C136.024 50.9472 135.051 59.3831 139.894 56.3859C139.875 56.9814 139.835 57.557 139.775 58.1326C135.925 60.9512 132.054 63.7698 128.203 66.5884C128.005 65.457 127.786 64.3057 127.588 63.1743C127.965 59.1052 132.272 56.6638 131.994 52.3565Z" fill="#F2F8EA"/>
<path d="M46.783 57.8891C42.1581 58.4846 37.3545 59.4573 35.0123 53.7804C34.3176 52.0733 34.8932 50.525 36.9972 50.1479C43.2696 49.0165 44.5202 54.0979 46.7036 58.0281C46.6838 58.0281 46.783 57.8891 46.783 57.8891Z" fill="#A3D165"/>
<path d="M118.035 46.2818C118.154 43.5823 116.566 39.7315 120.596 39.0566C126.412 38.084 123.514 44.0983 125.439 46.5596C128.258 50.1722 123.851 49.4577 121.866 49.8546C120.576 48.6637 119.306 47.4727 118.035 46.2818Z" fill="#F4F8ED"/>
<path d="M44.4402 68.3926C49.6606 70.318 54.9207 72.025 60.5182 69.9408C59.9029 71.1516 59.2875 72.3426 58.6722 73.5534C53.5908 73.5137 49.2041 75.9949 44.5395 77.4637C44.5196 76.8484 44.5394 76.2132 44.6188 75.5979C43.6065 73.871 43.6661 72.1243 44.5792 70.3577C44.5395 69.7027 44.4997 69.0476 44.4402 68.3926Z" fill="#E8F3D8"/>
<path d="M74.5287 48.0661C71.8491 47.5698 69.1893 46.8354 69.3679 43.4411C69.4274 42.409 70.539 40.9996 71.5513 40.5233C75.4815 38.6574 76.0373 43.1831 78.3795 44.4138C77.0893 45.6246 75.7991 46.8552 74.5287 48.0661Z" fill="#EAF4DC"/>
<path d="M151 76.1936C149.372 75.8959 146.653 76.4715 146.594 73.7919C146.514 71.0129 149.134 70.2587 151.417 69.9609C153.898 69.6235 156.717 70.4969 156.637 73.0376C156.538 75.3996 153.68 76.2135 151 76.1936Z" fill="#9ACC55"/>
<path d="M44.6029 70.3557C45.3572 72.1024 45.7343 73.8293 44.6426 75.5959C41.03 75.6554 35.3928 77.2235 35.7699 71.9833C36.0677 67.6958 41.3278 69.8594 44.6029 70.3557Z" fill="#9ACC56"/>
<path d="M113.912 135.443C113.873 134.63 113.813 133.816 113.773 133.002C114.865 129.35 117.247 127.98 120.205 130.62C123.658 133.736 120.026 135.582 118.22 137.627C115.977 138.48 114.071 138.679 113.912 135.443Z" fill="#FD77A3"/>
<path d="M115.725 32.161C112.946 31.903 108.678 37.838 107.666 30.2357C109.274 27.7148 111.14 25.1741 114.494 26.3253C117.551 27.3575 115.467 30.1563 115.725 32.161Z" fill="#9BCC57"/>
<path d="M127.866 161.209C126.476 157.954 125.067 154.699 123.678 151.463C125.067 150.709 126.457 149.935 127.866 149.181C130.188 149.478 130.486 151.86 131.856 153.131C131.181 154.48 130.526 155.81 129.851 157.16C131.121 158.728 130.962 160.177 129.454 161.507C128.938 161.348 128.402 161.249 127.866 161.209Z" fill="#EBBAB5"/>
<path d="M109.88 65.6553C108.967 70.3596 109.206 73.9722 105.355 75.6395C104.799 75.8777 103.072 74.8257 103.092 74.7066C104.045 71.4513 104.6 67.8586 109.88 65.6553Z" fill="#A2D063"/>
<path d="M145.725 149.493C143.283 148.878 140.862 148.242 139.988 145.424C141.417 143.359 143.283 141.831 145.606 140.858C146.618 143.717 151.461 146.535 145.725 149.493Z" fill="#FD6D9C"/>
<path d="M113.913 135.444C114.846 137.132 116.533 137.39 118.201 137.628C118.201 138.005 118.201 138.382 118.24 138.759C114.608 138.323 114.032 143.702 110.241 142.947C109.626 139.553 110.519 136.873 113.913 135.444Z" fill="#F5CDC6"/>
<path d="M145.635 140.842C146.171 145.348 142.935 145.189 140.017 145.407C139.938 143.363 139.859 141.338 139.779 139.293C141.883 139.274 144.226 138.281 145.635 140.842Z" fill="#F8BAC1"/>
<path d="M131.857 153.13C129.713 152.614 128.661 151.026 127.867 149.18C129.257 146.481 129.674 142.848 133.921 142.888C133.227 145.707 132.532 148.525 131.837 151.344C131.956 151.919 131.956 152.515 131.857 153.13Z" fill="#D17166"/>
<path d="M96.7031 89.8729C97.8345 86.7367 97.1001 82.866 101.149 80.6826C100.236 84.4738 101.447 88.6224 98.3705 92.0365C97.4772 91.5601 96.9413 90.8257 96.7031 89.8729Z" fill="#806F65"/>
<path d="M96.7035 89.8682C97.2593 90.5827 97.8151 91.2973 98.3709 92.0119C98.1525 94.5923 97.954 97.1728 97.7357 99.7532C95.8103 99.2172 92.8329 100.686 92.5352 97.0338C96.4058 96.1008 95.4927 92.3692 96.7035 89.8682Z" fill="#6C594D"/>
<path d="M120.074 85.9425C118.466 87.8877 116.104 87.6297 113.96 88.0068C108.641 86.6571 111.697 85.1684 113.881 83.6797C115.211 86.4387 117.93 85.3867 120.074 85.9425Z" fill="#C3E09A"/>
<path d="M89.8749 85.9973C89.2596 86.6523 88.6443 87.3074 88.0091 87.9624C86.3219 85.7194 85.8852 83.2779 86.8578 80.499C89.1405 81.7098 89.7161 83.7344 89.8749 85.9973Z" fill="#817368"/>
<path d="M103.691 144.989C103.83 146.378 103.988 147.748 104.127 149.137C103.452 149.157 102.797 149.157 102.123 149.177C100.634 146.735 99.9193 144.135 100.475 141.257C101.547 142.507 102.619 143.758 103.691 144.989Z" fill="#F1E0E3"/>
<path d="M113.879 44.1133C111.457 42.9024 112.37 40.6594 112.251 38.7539C114.712 39.7662 116.221 41.3939 115.844 44.272C115.169 44.2919 114.514 44.2324 113.879 44.1133Z" fill="#CEE6AB"/>
<path d="M133.832 87.9616C132.641 85.8575 132.602 83.7534 133.892 81.6494C136.135 80.5775 138.695 80.2798 138.735 83.2969C138.735 84.1108 138.914 90.1648 133.832 87.9616Z" fill="#E7F2D7"/>
<path d="M118.241 164.361C118.678 162.714 117.11 160.034 119.968 159.637C122.31 159.3 121.754 161.741 122.191 163.111C121.159 164.421 119.769 164.659 118.241 164.361Z" fill="#F3F6EB"/>
<path d="M129.482 161.487C129.621 160.038 129.74 158.589 129.879 157.14C130.435 157.06 130.991 157.12 131.547 157.278C133.611 158.986 132.777 161.07 132.301 163.114C129.542 165.695 129.939 162.836 129.482 161.487Z" fill="#FAEDEA"/>
<path d="M132.27 163.115C132.012 161.17 131.774 159.225 131.516 157.279C134.553 158.867 134.295 160.892 132.27 163.115Z" fill="#D27B76"/>
</g>
<defs>
<clipPath id="clip0_4958_32240">
<rect width="192" height="192" fill="white"/>
</clipPath>
</defs>
</svg>
