<svg width="192" height="192" viewBox="0 0 192 192" fill="none" xmlns="http://www.w3.org/2000/svg">
<g clip-path="url(#clip0_4938_33147)">
<path d="M96 192C149.019 192 192 149.019 192 96C192 42.9807 149.019 0 96 0C42.9807 0 0 42.9807 0 96C0 149.019 42.9807 192 96 192Z" fill="white"/>
<g clip-path="url(#clip1_4938_33147)">
<path d="M167.007 83.0004L162.795 82.0384L136.301 75.8244L113.785 70.6244L96.4427 66.5424C96.2805 66.5027 96.111 66.5027 95.9487 66.5424L64.7487 73.8744L32.7427 81.2844L25.1247 83.0004H24.9688V82.7144C24.9688 80.6084 24.9688 78.5024 24.9688 76.3964C24.9688 76.1624 24.9688 76.0844 25.2808 76.0064L60.0167 65.4764L95.8187 54.6864C96.0549 54.6071 96.3106 54.6071 96.5467 54.6864L128.813 64.4884L166.825 76.0324H167.007V83.0004Z" fill="#D3A669"/>
<path d="M167.007 69.2204L142.957 60.3024L96.3387 43.0124C96.1627 42.9466 95.9688 42.9466 95.7927 43.0124L52.4767 59.1064L25.3067 69.1684C24.9688 69.3244 24.9688 69.3244 24.9688 68.9344C24.9688 66.8804 24.9688 64.8004 24.9688 62.7464C24.9688 62.4864 24.9688 62.3824 25.3067 62.2784L56.7407 48.4724L95.8967 31.2344C95.9805 31.1889 96.0744 31.165 96.1697 31.165C96.2651 31.165 96.3589 31.1889 96.4427 31.2344L148.183 54.0104L166.695 62.2004H167.007V69.2204Z" fill="#D3A669"/>
<path d="M114.148 160.61C114.148 160.48 114.148 160.324 114.148 160.194V101.668C114.148 101.174 114.148 101.252 114.564 101.252C118.62 101.252 122.65 101.252 126.706 101.252C133.328 101.274 139.776 103.374 145.14 107.258C147.641 109.052 149.66 111.437 151.016 114.2C152.135 116.434 152.578 118.946 152.29 121.428C150.347 119.083 147.928 117.177 145.192 115.838C141.503 113.963 137.534 112.699 133.44 112.094C131.24 111.734 129.014 111.543 126.784 111.522C126.342 111.522 126.342 111.522 126.342 111.964V160.61H114.148Z" fill="#D3A669"/>
<path d="M93.8152 160.61C93.8152 160.48 93.8152 160.324 93.8152 160.194V112.12C93.8042 111.99 93.8272 111.859 93.8819 111.741C93.9366 111.622 94.0211 111.52 94.1272 111.444C95.7977 109.936 97.8628 108.935 100.081 108.558C101.983 108.206 103.948 108.547 105.619 109.52C105.703 109.565 105.772 109.633 105.818 109.716C105.864 109.799 105.885 109.893 105.879 109.988V160.61H93.8152Z" fill="#D3A669"/>
<path d="M25.3848 89.864L27.9848 89.448L37.4488 87.862L48.5508 86.016L58.7688 84.326L69.8448 82.48L80.3748 80.738L91.4768 78.892L96.0268 78.138C96.4558 78.1023 96.8878 78.1463 97.3008 78.268L108.767 80.166L120.129 82.064L130.685 83.832L142.047 85.73L152.447 87.498L163.107 89.292C164.251 89.474 165.395 89.656 166.513 89.89H25.3848V89.864Z" fill="#D3A669"/>
<path d="M66.1003 139.55C62.5123 146.518 58.8983 153.46 55.4663 160.558L54.1143 157.958L43.4023 136.794C40.421 130.901 37.4223 125.016 34.4063 119.14L25.4883 101.59C25.2803 101.2 25.2803 101.2 25.7223 101.2H37.0323C37.1312 101.188 37.2311 101.21 37.3161 101.262C37.401 101.314 37.4659 101.393 37.5003 101.486L47.1983 120.596L55.3883 136.716C55.9211 137.828 56.6524 138.832 57.5463 139.68C58.5019 140.582 59.729 141.143 61.0364 141.275C62.3438 141.406 63.6581 141.102 64.7743 140.408C65.2305 140.145 65.6731 139.859 66.1003 139.55Z" fill="#D3A669"/>
<path d="M79.6457 101.2H85.3397C85.5997 101.2 85.6777 101.2 85.5217 101.512C82.9217 106.244 80.5037 111.106 78.0597 115.942L69.1937 133.596L67.8677 136.196C67.7873 136.351 67.6819 136.492 67.5557 136.612C66.4699 137.697 65.1002 138.454 63.6037 138.796C62.5243 139.004 61.4069 138.864 60.4119 138.397C59.4169 137.93 58.5955 137.159 58.0657 136.196C57.6372 135.487 57.3214 134.715 57.1297 133.908C57.0982 133.834 57.082 133.755 57.082 133.674C57.082 133.594 57.0982 133.514 57.1297 133.44C61.411 125.016 65.7444 116.592 70.1297 108.168L73.5617 101.408C73.5979 101.35 73.6474 101.3 73.7061 101.264C73.7647 101.228 73.8311 101.206 73.8997 101.2H79.6457Z" fill="#D3A669"/>
<path d="M129.176 98.5996C131.126 98.5996 133.076 98.8596 135.026 99.1196C138.744 99.6577 142.408 100.528 145.972 101.72C150.025 102.956 153.904 104.703 157.516 106.92C160.04 108.45 162.276 110.412 164.12 112.718C165.417 114.289 166.31 116.155 166.72 118.152C167.158 120.647 166.697 123.217 165.42 125.406C164.134 127.719 162.359 129.724 160.22 131.282C157.094 133.572 153.64 135.378 149.976 136.638C146.113 138.025 142.112 138.993 138.042 139.524C135.456 139.881 132.851 140.072 130.242 140.096C129.93 140.096 129.852 140.096 129.852 139.732C129.878 139.29 129.878 138.847 129.852 138.406C129.852 138.172 129.852 138.12 130.164 138.12C132.281 138.14 134.396 137.966 136.482 137.6C140.829 136.825 144.914 134.975 148.364 132.218C151.294 129.903 153.377 126.686 154.292 123.066C154.885 120.845 154.959 118.517 154.508 116.262C154.057 114.008 153.094 111.888 151.692 110.066C149.523 107.217 146.73 104.905 143.528 103.306C139.741 101.331 135.61 100.104 131.36 99.6916C130.22 99.5576 129.075 99.4881 127.928 99.4836C127.616 99.4836 127.616 99.4836 127.59 99.1456C127.564 98.8076 127.59 98.8336 127.928 98.8336C128.266 98.8336 128.734 98.5996 129.176 98.5996Z" fill="#D3A669"/>
<path d="M93.8159 109.312C93.7905 109.21 93.7905 109.103 93.8159 109V101.59C93.8159 101.304 93.8159 101.2 94.1799 101.2C97.9759 101.2 101.746 101.2 105.516 101.2C105.776 101.2 105.88 101.2 105.88 101.538V106.4C105.88 106.4 105.88 106.556 105.88 106.66C103.831 105.865 101.594 105.692 99.4473 106.164C97.301 106.636 95.3419 107.731 93.8159 109.312Z" fill="#D3A669"/>
</g>
</g>
<defs>
<clipPath id="clip0_4938_33147">
<rect width="192" height="192" fill="white"/>
</clipPath>
<clipPath id="clip1_4938_33147">
<rect width="143" height="130" fill="white" transform="translate(24.5 31)"/>
</clipPath>
</defs>
</svg>
