<svg width="56" height="56" viewBox="0 0 56 56" fill="none" xmlns="http://www.w3.org/2000/svg">
<path d="M54.785 21H52.1148C51.9571 21 51.7903 21.0093 51.6326 21.0278L23.985 23.8927C23.5863 23.9298 23.373 24.1245 23.373 24.5139V24.8106C23.373 25.1444 23.6512 25.4225 23.985 25.4225H54.785C55.4525 25.4225 55.9995 24.8755 55.9995 24.2079V22.2146C55.9995 21.547 55.4525 21 54.785 21Z" fill="url(#paint0_linear_1473_14128)"/>
<path d="M5.8596 35.6861H5.15497C4.98808 35.6861 4.84901 35.547 4.84901 35.3801V35.0463C4.11656 35.4728 3.34702 35.7973 2.49404 35.7973C1.19603 35.7973 0 35.2318 0 33.3218V33.1364C0 31.4861 0.964238 30.6609 3.69007 30.6609H4.82119V30.049C4.82119 28.7602 4.37616 28.3152 3.18013 28.3152C2.18808 28.3152 1.44636 28.3801 0.834437 28.4357C0.806623 28.4357 0.788079 28.4357 0.760265 28.4357C0.621192 28.4357 0.482119 28.3894 0.482119 28.1947V27.6569C0.482119 27.49 0.593377 27.3973 0.806623 27.3695C1.43709 27.2582 2.14172 27.1748 3.18013 27.1748C5.31258 27.1748 6.16556 28.2503 6.16556 30.049V35.3894C6.16556 35.5563 6.03576 35.6861 5.8596 35.6861ZM4.82119 31.6159H3.69007C1.83576 31.6159 1.34437 32.0331 1.34437 33.1179V33.3033C1.34437 34.4066 1.86358 34.694 2.75364 34.694C3.45828 34.694 4.08874 34.4808 4.82119 34.0821V31.6159Z" fill="#001BC1"/>
<path d="M13.518 35.6861H8.8915C8.23322 35.6861 7.95508 35.2689 7.95508 34.8424V34.555C7.95508 34.1285 8.04779 33.8967 8.3074 33.5629L12.2571 28.649C12.2849 28.6027 12.322 28.5563 12.322 28.51C12.322 28.4451 12.2942 28.3987 12.1643 28.3987H8.44647C8.27958 28.3987 8.14051 28.2596 8.14051 28.0927V27.5735C8.14051 27.4067 8.27958 27.2676 8.44647 27.2676H12.9432C13.5736 27.2676 13.7961 27.555 13.7961 28.0186V28.3894C13.7961 28.7139 13.6849 28.9365 13.4438 29.2331L9.41998 34.2676C9.35508 34.3325 9.34581 34.3881 9.34581 34.4345C9.34581 34.5086 9.36435 34.555 9.46634 34.555H13.5087C13.6756 34.555 13.8147 34.6941 13.8147 34.861V35.3802C13.824 35.5563 13.6849 35.6861 13.518 35.6861Z" fill="#001BC1"/>
<path d="M24.431 35.6859H23.6985C23.5317 35.6859 23.3926 35.5468 23.3926 35.3799V27.221C23.3926 27.0541 23.5317 26.915 23.6985 26.915H24.431C24.5979 26.915 24.7369 27.0541 24.7369 27.221V35.3799C24.7369 35.5561 24.5979 35.6859 24.431 35.6859Z" fill="#001BC1"/>
<path d="M34.5822 27.2674L32.6537 34.221C32.2736 35.5839 31.3372 35.825 30.4378 35.825C29.5385 35.825 28.6206 35.5839 28.2312 34.221L26.3213 27.2674C26.3027 27.2395 26.3027 27.2025 26.3027 27.1746C26.3027 27.017 26.414 26.915 26.5438 26.915H28.565C28.7226 26.915 28.8431 27.0541 28.8895 27.2395L30.206 33.2382C30.2524 33.47 30.3266 33.5627 30.4378 33.5627C30.5491 33.5627 30.6325 33.47 30.6789 33.2382L31.9954 27.2395C32.0418 27.0541 32.1623 26.915 32.32 26.915H34.3411C34.4802 26.915 34.6007 27.0263 34.6007 27.1746C34.6007 27.2117 34.6007 27.2395 34.5822 27.2674Z" fill="#001BC1"/>
<path d="M42.2975 35.6863H40.5823C40.4154 35.6863 40.2763 35.5472 40.2763 35.3804V35.1393C39.6829 35.5658 39.071 35.8254 38.1439 35.8254C36.8088 35.8254 35.5293 35.1857 35.5293 33.1923V33.0532C35.5293 31.2638 36.679 30.4664 39.2935 30.4664H40.1187V29.9194C40.1187 29.0479 39.6922 28.8625 38.969 28.8625C37.9862 28.8625 36.9015 28.9274 36.4286 28.9737H36.3545C36.1968 28.9737 36.0763 28.8996 36.0763 28.6956V27.4532C36.0763 27.2863 36.1876 27.1658 36.3637 27.1194C36.9293 26.9804 38.0048 26.7949 39.0154 26.7949C41.222 26.7949 42.5942 27.685 42.5942 29.9194V35.3804C42.6035 35.5565 42.4644 35.6863 42.2975 35.6863ZM40.1743 31.9406H39.3028C38.2273 31.9406 37.9584 32.3115 37.9584 33.0625V33.2015C37.9584 33.8413 38.2829 33.9711 38.9227 33.9711C39.3862 33.9711 39.8127 33.8135 40.1743 33.6373V31.9406Z" fill="#001BC1"/>
<path d="M55.676 35.6863H53.8217C53.6549 35.6863 53.5158 35.5287 53.5158 35.3618V30.1512C53.5158 29.1684 53.284 28.881 52.5794 28.881C52.3198 28.881 51.8562 28.9459 51.4019 29.1592C51.4297 29.4651 51.4482 29.8174 51.4482 30.1512V35.3711C51.4482 35.538 51.3092 35.6956 51.1423 35.6956H49.288C49.1211 35.6956 48.9635 35.538 48.9635 35.3711V30.1512C48.9635 29.1684 48.778 28.881 48.0734 28.881C47.786 28.881 47.3873 29.0386 46.9145 29.2797V35.3711C46.9145 35.538 46.7754 35.6956 46.6085 35.6956H44.7542C44.5873 35.6956 44.4297 35.538 44.4297 35.3711V27.2214C44.4297 27.0545 44.5688 26.9154 44.7356 26.9154H46.4787C46.6456 26.9154 46.7847 27.0545 46.7847 27.2214V27.5552C47.4244 27.1287 48.1661 26.7856 49.0469 26.7856C49.8628 26.7856 50.4284 27.0174 50.8549 27.5366C51.7449 27.036 52.3568 26.7856 53.3489 26.7856C55.3701 26.7856 55.982 28.13 55.982 30.1419V35.3711C56.0005 35.538 55.8429 35.6863 55.676 35.6863Z" fill="#001BC1"/>
<path d="M16.9674 31.7272V35.3894C16.9674 35.5563 16.8283 35.6954 16.6615 35.6954H15.929C15.7621 35.6954 15.623 35.5563 15.623 35.3894V24.4861C15.623 24.3192 15.7621 24.1802 15.929 24.1802H16.6615C16.8283 24.1802 16.9674 24.3192 16.9674 24.4861V30.8557V31.7272Z" fill="#001BC1"/>
<path d="M21.826 35.2872L18.5346 31.3005L21.826 27.3137C21.9558 27.1561 21.8446 26.915 21.6406 26.915H20.7598C20.6114 26.915 20.4724 26.9799 20.3797 27.1005L16.9121 31.3097L20.3797 35.519C20.4724 35.6303 20.6114 35.7044 20.7598 35.7044H21.6406C21.8446 35.6859 21.9558 35.4541 21.826 35.2872Z" fill="#001BC1"/>
<defs>
<linearGradient id="paint0_linear_1473_14128" x1="23.373" y1="23.2113" x2="55.9995" y2="23.2113" gradientUnits="userSpaceOnUse">
<stop stop-color="#0000DD"/>
<stop offset="0.1067" stop-color="#010BDF"/>
<stop offset="0.2943" stop-color="#0428E4"/>
<stop offset="0.5408" stop-color="#0958EC"/>
<stop offset="0.8335" stop-color="#0F9AF8"/>
<stop offset="1" stop-color="#13C2FF"/>
</linearGradient>
</defs>
</svg>
