<svg width="56" height="56" viewBox="0 0 56 56" fill="none" xmlns="http://www.w3.org/2000/svg">
<path d="M10.0129 35.2745C10.0129 37.9289 7.85686 40.0849 5.20246 40.0849C2.54806 40.0849 0.392059 37.9289 0.392059 35.2745L0.380859 7.10093C0.380859 4.44093 2.53686 2.29053 5.19126 2.29053C7.85126 2.29053 10.0017 4.44653 10.0017 7.10093L10.0129 35.2745Z" fill="#2E3192"/>
<path d="M20.0032 23.3521C17.36 23.3521 15.2152 25.5025 15.2152 28.1401V35.0337C15.2152 40.4825 11.06 44.9848 5.75684 45.2704C5.58884 45.2816 5.41524 45.2817 5.24724 45.2873C2.60404 45.2929 0.464844 47.432 0.464844 50.0752C0.464844 52.7184 2.60404 54.8577 5.24724 54.8633H5.25284H5.25844C5.81844 54.8633 6.38964 54.8408 6.95524 54.7904C16.9568 53.9056 24.7912 45.1921 24.7912 34.9497V28.1401C24.7912 25.5025 22.6408 23.3521 20.0032 23.3521Z" fill="#2E3192"/>
<mask id="mask0_744_10283" style="mask-type:luminance" maskUnits="userSpaceOnUse" x="32" y="1" width="23" height="20">
<path d="M41.8041 7.63832C41.8041 7.71112 41.8041 7.78952 41.8097 7.85672L41.8041 7.63832ZM32.1777 5.94712V8.68552C32.1777 8.70232 32.1777 8.71352 32.1777 8.73032V8.85352H32.1833C32.2729 15.3607 37.5257 20.6135 44.0329 20.6975V20.7031H49.2073C51.8617 20.7031 54.0177 18.5471 54.0177 15.8927C54.0177 13.2327 51.8617 11.0767 49.2073 11.0767H45.2425C43.4169 11.0767 41.9273 9.65432 41.8153 7.86232H41.8097V7.63832V5.94712C41.8097 3.29272 39.6537 1.13672 36.9993 1.13672C34.3337 1.13672 32.1777 3.29272 32.1777 5.94712Z" fill="white"/>
</mask>
<g mask="url(#mask0_744_10283)">
<path d="M50.4165 28.8118L24.9141 17.4774L35.7781 -6.97217L61.2805 4.36223L50.4165 28.8118Z" fill="url(#paint0_linear_744_10283)"/>
</g>
<mask id="mask1_744_10283" style="mask-type:luminance" maskUnits="userSpaceOnUse" x="30" y="2" width="26" height="44">
<path d="M30.0996 7.10067V32.5247C30.0996 36.0415 31.5332 39.2279 33.846 41.5407C36.1532 43.8535 39.3452 45.2871 42.862 45.2871C46.3732 45.2871 49.5652 43.8535 51.878 41.5407C54.1908 39.2279 55.6244 36.0415 55.6244 32.5247V28.1679C55.6244 25.5135 53.474 23.3575 50.814 23.3575C48.154 23.3575 46.0036 25.5135 46.0036 28.1679V32.5247C46.0036 33.3815 45.6508 34.1599 45.0796 34.7311C44.5084 35.3023 43.7244 35.6551 42.8732 35.6551C42.0164 35.6551 41.2324 35.3023 40.6668 34.7311C40.0956 34.1599 39.7428 33.3759 39.7428 32.5247V7.10067C39.7428 4.44067 37.5868 2.28467 34.9324 2.28467C32.2556 2.29027 30.0996 4.44067 30.0996 7.10067Z" fill="white"/>
</mask>
<g mask="url(#mask1_744_10283)">
<path d="M32.7656 53.0879L16.9512 6.77589L52.9536 -5.51611L68.768 40.7903L32.7656 53.0879Z" fill="url(#paint1_linear_744_10283)"/>
</g>
<mask id="mask2_744_10283" style="mask-type:luminance" maskUnits="userSpaceOnUse" x="32" y="2" width="8" height="18">
<path d="M33.6953 2.44147C32.7601 3.32067 32.1777 4.56387 32.1777 5.94707V8.68547C32.1777 8.70227 32.1777 8.71347 32.1777 8.73027V8.85347H32.1833C32.2505 13.8375 35.3529 18.0879 39.7265 19.8407V7.10067C39.7265 4.44067 37.5705 2.28467 34.9161 2.28467C34.4905 2.29027 34.0817 2.34067 33.6953 2.44147Z" fill="white"/>
</mask>
<g mask="url(#mask2_744_10283)">
<path d="M25.0996 5.88014L38.1812 -0.755859L46.8052 16.2513L33.7236 22.8873L25.0996 5.88014Z" fill="url(#paint2_linear_744_10283)"/>
</g>
<defs>
<linearGradient id="paint0_linear_744_10283" x1="57.313" y1="17.238" x2="34.6251" y2="7.15447" gradientUnits="userSpaceOnUse">
<stop stop-color="#2E3192"/>
<stop offset="0.127" stop-color="#2E3192"/>
<stop offset="0.7115" stop-color="#EC008C"/>
<stop offset="1" stop-color="#EC008C"/>
</linearGradient>
<linearGradient id="paint1_linear_744_10283" x1="49.9235" y1="44.47" x2="35.6398" y2="2.64413" gradientUnits="userSpaceOnUse">
<stop stop-color="#2E3192"/>
<stop offset="0.2292" stop-color="#2E3192"/>
<stop offset="0.81" stop-color="#EC008C"/>
<stop offset="1" stop-color="#EC008C"/>
</linearGradient>
<linearGradient id="paint2_linear_744_10283" x1="27.461" y1="15.3646" x2="43.5512" y2="7.20532" gradientUnits="userSpaceOnUse">
<stop stop-color="#2E3192"/>
<stop offset="0.1122" stop-color="#522E91"/>
<stop offset="0.3697" stop-color="#8D288F"/>
<stop offset="0.5521" stop-color="#AF1F8E"/>
<stop offset="0.6413" stop-color="#BD1A8D"/>
<stop offset="1" stop-color="#BD1A8D"/>
</linearGradient>
</defs>
</svg>
