<svg width="192" height="192" viewBox="0 0 192 192" fill="none" xmlns="http://www.w3.org/2000/svg">
<g clip-path="url(#clip0_4926_32845)">
<path d="M96 192C149.019 192 192 149.019 192 96C192 42.9807 149.019 0 96 0C42.9807 0 0 42.9807 0 96C0 149.019 42.9807 192 96 192Z" fill="#FFFF00"/>
<path d="M168.501 95.9096C168.501 97.3896 168.281 99.2496 167.531 100.53C163.761 106.98 158.481 108.88 150.021 108.11C148.241 107.95 147.641 107.13 147.751 104.92C148.061 98.9496 147.811 93.2295 147.751 86.9495C147.731 85.2095 147.931 83.8796 149.551 83.7896C154.361 83.5196 159.051 83.8196 163.231 86.7096C165.261 88.1096 166.541 89.9796 167.591 92.0296C168.191 93.2096 168.491 94.5095 168.491 95.8395C168.491 95.8595 168.491 95.8796 168.491 95.8996L168.501 95.9096ZM153.751 86.8296C152.841 87.0696 151.151 86.0596 151.181 88.3596C151.231 93.4496 151.231 98.5496 151.211 103.64C151.211 104.75 151.721 105.04 152.751 105.14C158.861 105.74 164.601 101.65 164.881 96.4396C165.161 91.2996 160.351 86.9996 154.151 86.8296C154.071 86.8296 153.981 86.8296 153.751 86.8296Z" fill="#3BA59C"/>
<path d="M127.582 91.6097C127.582 95.4797 127.582 99.3497 127.582 103.22C127.582 103.9 127.562 104.58 127.582 105.26C127.642 106.66 127.422 107.92 125.652 107.9C124.002 107.88 123.852 106.66 123.852 105.38C123.882 100.11 123.912 94.8397 123.942 89.5697C123.942 88.7197 123.982 87.8697 123.962 87.0197C123.932 85.8297 123.662 84.4897 125.072 83.9297C126.652 83.3097 127.362 84.6697 128.122 85.6397C131.442 89.8397 134.712 94.0797 138.032 98.2797C138.652 99.0597 139.122 99.9997 140.532 100.7C140.532 97.4697 140.532 94.4797 140.532 91.4897C140.532 89.6197 140.522 87.7497 140.542 85.8797C140.562 84.6597 141.252 83.9197 142.432 83.9397C143.482 83.9597 144.162 84.6697 144.172 85.7697C144.192 92.5697 144.192 99.3697 144.192 106.16C144.192 107 143.832 107.62 142.992 107.91C141.782 108.32 141.072 107.64 140.412 106.8C137.572 103.2 134.722 99.5997 131.882 95.9997C130.672 94.4697 129.452 92.9597 128.242 91.4397C128.022 91.4997 127.812 91.5497 127.592 91.6097H127.582Z" fill="#3BA59C"/>
<path d="M88.5397 83.7586C90.2497 83.6386 92.5697 83.9386 94.6797 85.2486C98.3997 87.5486 98.7897 92.3486 95.9597 95.6686C95.3097 96.4286 95.3097 95.9486 96.1597 97.0486C99.6597 101.519 97.7397 106.539 92.1597 107.789C89.7297 108.339 87.2597 108.099 84.8097 108.069C83.3697 108.049 82.7597 107.159 82.7697 105.719C82.7997 99.1886 82.7997 92.6586 82.7697 86.1286C82.7697 84.5086 83.4897 83.7786 85.0497 83.7586C85.9797 83.7486 86.9197 83.7586 88.5497 83.7586H88.5397ZM86.3997 90.4286C86.3997 93.1219 87.2997 94.4686 89.0997 94.4686C92.1997 94.4686 94.3197 93.0486 94.4197 90.8986C94.5297 88.5186 92.1397 87.0186 88.6797 86.8386C85.6497 86.6686 86.6597 89.1586 86.3997 90.4286ZM86.3997 101.039C86.4797 102.989 85.4597 105.439 89.0797 105.129C92.2597 104.859 94.4097 103.519 94.4197 101.239C94.4197 98.9686 92.1597 97.6786 88.7497 97.4586C85.6597 97.2586 86.5297 99.4686 86.3997 101.039Z" fill="#3BA59C"/>
<path d="M28.9103 83.7588C31.0003 83.6288 33.4703 84.0788 35.8703 85.0588C41.3003 87.2888 44.5803 91.8688 44.1603 96.6688C43.7003 101.919 39.5603 106.329 33.8703 107.579C31.2003 108.169 28.4703 108.159 25.7503 108.079C24.2003 108.039 23.5103 107.279 23.5203 105.659C23.5603 99.2088 23.5603 92.7488 23.5003 86.2988C23.4803 84.4188 24.3303 83.6688 26.1203 83.7388C26.8803 83.7688 27.6503 83.7388 28.9103 83.7388V83.7588ZM27.0503 95.7788C27.0503 95.7788 27.0703 95.7788 27.0803 95.7788C27.0803 97.8088 27.0803 99.8388 27.0803 101.879C27.0803 104.172 28.2537 105.252 30.6003 105.119C36.2003 104.789 40.5103 100.919 40.5603 96.1888C40.6203 90.4888 33.3403 85.1488 27.8903 86.8488C26.9503 87.1388 27.0603 87.7888 27.0603 88.4288C27.0403 90.8788 27.0603 93.3388 27.0603 95.7988L27.0503 95.7788Z" fill="#3BA59C"/>
<path d="M121.522 106.129C121.602 106.989 121.312 107.459 120.742 107.779C120.082 108.149 119.402 108.139 118.822 107.699C118.432 107.409 118.092 106.939 117.912 106.529C116.022 102.319 115.492 101.879 115.492 101.839C115.492 101.809 106.172 101.919 105.332 101.759C105.292 101.759 104.872 102.599 103.602 105.299C103.352 105.829 103.142 106.389 102.852 106.909C102.312 107.869 101.452 108.119 100.462 107.779C99.2616 107.369 99.3016 106.399 99.6516 105.469C100.262 103.889 100.972 102.349 101.652 100.789C103.842 95.8194 106.032 90.8594 108.232 85.8894C108.682 84.8694 109.092 83.7294 110.462 83.7894C111.652 83.8494 112.092 84.8294 112.512 85.7994C115.362 92.2394 118.232 98.6694 121.092 105.099C121.262 105.489 121.412 105.879 121.502 106.099L121.522 106.129ZM114.482 99.0194C113.112 95.9594 111.902 93.2294 110.422 89.9294C109.082 92.9394 107.982 95.3694 106.912 97.8094C106.512 98.7094 106.952 99.0294 107.832 99.0294C109.922 99.0194 112.002 99.0294 114.482 99.0294V99.0194Z" fill="#3BA59C"/>
<path d="M64.3295 95.7599C64.3295 92.6199 64.3595 89.4699 64.3195 86.3299C64.2995 85.0699 64.6195 83.9899 65.9895 83.9399C67.4695 83.8799 67.9595 84.9299 67.9495 86.3299C67.9295 91.8499 67.9995 97.3799 67.9095 102.9C67.8795 104.54 68.3395 105.19 70.0395 105.12C72.7595 105.02 75.4795 105.11 78.1995 105.12C79.2695 105.12 80.4595 105.22 80.4895 106.54C80.5195 107.82 79.3995 108.11 78.2895 108.11C74.3795 108.11 70.4695 108.12 66.5595 108.11C64.9995 108.11 64.2795 107.34 64.3095 105.72C64.3695 102.41 64.3295 99.0899 64.3295 95.7799V95.7599Z" fill="#3BA59C"/>
<path d="M53.7422 108.1C51.8822 108.1 50.0122 108.12 48.1522 108.1C47.1022 108.09 45.9422 107.96 45.8922 106.62C45.8422 105.24 46.9722 105.12 48.0522 105.11C51.7822 105.08 55.5022 105.01 59.2322 105.01C60.3922 105.01 61.9122 104.93 61.8222 106.65C61.7422 108.31 60.2422 108.11 59.0822 108.13C57.3022 108.16 55.5222 108.13 53.7422 108.13C53.7422 108.13 53.7422 108.11 53.7422 108.1Z" fill="#3BA59C"/>
<path d="M53.922 97.4805C51.882 97.4805 49.852 97.4805 47.812 97.4805C46.782 97.4805 45.842 97.1505 45.802 96.0105C45.762 94.8505 46.702 94.4805 47.732 94.4805C51.802 94.4805 55.882 94.4805 59.952 94.5005C60.982 94.5005 61.882 94.9005 61.812 96.0905C61.752 97.2905 60.772 97.5005 59.772 97.5005C57.822 97.5005 55.872 97.5005 53.912 97.5005V97.4805H53.922Z" fill="#3BA59C"/>
<path d="M53.8303 86.8502C51.7903 86.8502 49.7503 86.8502 47.7203 86.8502C46.6903 86.8502 45.7503 86.5002 45.7903 85.3302C45.8303 84.2302 46.7003 83.7702 47.7503 83.7702C51.7403 83.7702 55.7303 83.7502 59.7203 83.7802C60.8403 83.7802 61.8403 84.2802 61.7803 85.5302C61.7203 86.7002 60.6903 86.8802 59.6903 86.8802C57.7403 86.8802 55.7803 86.8802 53.8303 86.8802V86.8602V86.8502Z" fill="#3BA59C"/>
</g>
<defs>
<clipPath id="clip0_4926_32845">
<rect width="192" height="192" fill="white"/>
</clipPath>
</defs>
</svg>
