<svg width="192" height="192" viewBox="0 0 192 192" fill="none" xmlns="http://www.w3.org/2000/svg">
<g clip-path="url(#clip0_4926_32827)">
<path d="M96 192C149.019 192 192 149.019 192 96C192 42.9807 149.019 0 96 0C42.9807 0 0 42.9807 0 96C0 149.019 42.9807 192 96 192Z" fill="#33909C"/>
<path d="M110.818 138.738C110.798 147.738 103.388 155.468 94.4478 156.188C93.1878 156.288 92.7478 155.998 92.7678 154.668C92.8378 149.578 92.8278 144.488 92.7678 139.388C92.7578 138.188 93.1278 137.858 94.3078 137.838C98.6078 137.808 98.6078 137.758 98.6078 133.488C98.6178 120.698 98.6078 107.908 98.6778 95.1183C98.6778 93.5483 98.3278 92.9983 96.6878 93.0883C93.9378 93.2283 91.1778 93.1283 88.0078 93.1283C93.0178 91.4683 95.9478 88.5483 95.8978 83.4783C95.8578 79.3983 93.1978 76.3283 88.7478 74.8183C89.1378 74.3883 89.6378 74.6083 90.0478 74.5983C96.4178 74.5783 102.788 74.6083 109.148 74.5583C110.398 74.5483 110.798 74.8783 110.798 76.1783C110.778 97.0283 110.858 117.878 110.798 138.738H110.818Z" fill="white"/>
<path d="M114.518 51.4492C114.478 59.9792 107.518 66.8092 98.898 66.7692C90.298 66.7392 83.428 59.8592 83.418 51.2792C83.418 42.6692 90.398 35.7592 99.078 35.7892C107.798 35.8192 114.548 42.6592 114.508 51.4492H114.518Z" fill="white"/>
<path d="M86.7785 91.8297C86.8085 92.9197 86.4685 93.1497 85.4085 92.9897C80.9885 92.3597 77.5085 88.4397 77.4885 83.9497C77.4585 79.4597 80.8585 75.4997 85.2685 74.7697C86.4285 74.5797 86.7585 74.8797 86.7385 76.0297C86.6685 78.6897 86.7085 81.3597 86.7085 84.0197H86.7585C86.7585 86.6197 86.7185 89.2297 86.7785 91.8297Z" fill="white"/>
<path d="M94.0691 97.5996H80.3291C79.6166 97.5996 79.0391 98.1772 79.0391 98.8896V132.07C79.0391 132.782 79.6166 133.36 80.3291 133.36H94.0691C94.7815 133.36 95.3591 132.782 95.3591 132.07V98.8896C95.3591 98.1772 94.7815 97.5996 94.0691 97.5996Z" fill="white"/>
</g>
<defs>
<clipPath id="clip0_4926_32827">
<rect width="192" height="192" fill="white"/>
</clipPath>
</defs>
</svg>
