<svg width="192" height="192" viewBox="0 0 192 192" fill="none" xmlns="http://www.w3.org/2000/svg">
<g clip-path="url(#clip0_4926_32643)">
<path d="M96 192C149.019 192 192 149.019 192 96C192 42.9807 149.019 0 96 0C42.9807 0 0 42.9807 0 96C0 149.019 42.9807 192 96 192Z" fill="white"/>
<g clip-path="url(#clip1_4926_32643)">
<path d="M135.018 102.333C139.176 98.201 142.894 94.4259 146.719 90.7608C147.762 89.763 147.777 89.1939 146.696 88.2682C145.36 87.1186 144.135 85.8286 142.947 84.5197C142.306 83.8102 141.953 83.886 141.343 84.55C140.06 85.9462 138.732 87.3083 137.317 88.5641C136.384 89.395 136.517 89.9717 137.389 90.647C137.685 90.8785 137.905 91.2123 138.205 91.4362C139.282 92.2253 139.241 92.8969 138.235 93.7961C136.744 95.1278 135.386 96.6037 133.641 98.3489C133.732 91.8687 133.576 85.84 134.456 79.8378C134.578 79.0221 135.029 78.8248 135.701 78.6958C139.563 77.9598 143.452 77.6259 147.386 77.7283C148.487 77.7549 148.771 78.2633 148.748 79.2687C148.695 81.2909 148.76 83.3131 148.722 85.3354C148.707 86.2346 148.904 86.7581 149.955 86.7505C151.014 86.743 150.998 86.1018 150.995 85.3657C150.987 83.279 151.029 81.1961 150.976 79.1094C150.949 78.1229 151.336 77.7511 152.288 77.7245C156.219 77.6183 160.108 77.9749 163.974 78.673C165.021 78.8627 165.215 79.5229 165.317 80.4107C165.97 86.1245 165.989 91.8573 165.97 98.1934C163.978 96.2318 162.259 94.6383 160.669 92.9272C160.085 92.2974 161.022 91.9787 161.352 91.6335C163.314 89.5733 163.363 89.5543 161.284 87.5663C160.024 86.3598 158.958 84.1365 157.456 84.2351C156.154 84.3186 154.963 86.3408 153.753 87.5359C151.704 89.5543 151.738 89.5392 153.745 91.6107C157.167 95.143 160.552 98.7093 163.932 102.242C162.707 102.526 161.166 102.295 159.649 102.325C157.186 102.371 154.72 102.302 152.254 102.355C151.253 102.378 150.941 102.033 150.972 101.039C151.036 98.8308 150.976 96.615 150.998 94.4069C151.006 93.614 150.888 93.0752 149.883 93.098C148.946 93.1169 148.707 93.5419 148.718 94.3917C148.752 96.6037 148.711 98.8156 148.737 101.028C148.745 101.798 148.73 102.367 147.682 102.359C143.657 102.321 139.631 102.344 135.018 102.344V102.333Z" fill="#08BBFE"/>
<path d="M56.4165 89.9598C56.4165 86.9891 56.3937 84.0184 56.4241 81.0477C56.4468 78.9533 57.4788 77.8531 59.5541 77.8379C65.5601 77.7962 71.5623 77.8189 77.5682 77.8265C78.972 77.8265 80.0306 78.4525 80.5314 79.7729C81.017 81.0514 80.7932 82.2731 79.8067 83.271C77.9856 85.1149 76.1796 86.9739 74.294 88.7495C73.281 89.7056 73.2544 90.4455 74.2712 91.4054C76.1075 93.143 77.8756 94.9528 79.6474 96.755C81.2257 98.3598 81.404 100.139 80.1596 101.433C78.8886 102.757 77.1243 102.643 75.4929 101.031C72.6132 98.1929 69.7563 95.3284 66.9184 92.4487C65.2376 90.7414 65.2528 89.239 66.8994 87.4975C67.5482 86.8108 68.2273 86.1468 68.9027 85.4829C69.2365 85.1528 69.5097 84.781 69.2972 84.3143C69.0886 83.8552 68.6143 83.8135 68.1552 83.8173C66.9525 83.8211 65.7498 83.8856 64.5547 83.8021C63.0105 83.6921 62.4035 84.2688 62.4376 85.8623C62.5211 89.8422 62.468 93.826 62.4604 97.8059C62.4604 98.4357 62.4604 99.0769 62.3504 99.6916C62.0354 101.437 60.7606 102.469 59.1937 102.313C57.6419 102.161 56.4506 100.909 56.4241 99.2439C56.3785 96.1479 56.4127 93.052 56.4127 89.9523L56.4165 89.9598Z" fill="#07BBFE"/>
<path d="M50.9796 90.0811C50.9796 92.8622 50.9834 95.6394 50.9796 98.4204C50.9759 100.985 49.8794 102.374 47.9141 102.328C46.017 102.283 44.9623 100.924 44.9585 98.5001C44.9547 95.8481 44.9585 93.1922 44.9585 90.5402C44.9585 90.0394 45.0192 89.4817 44.4463 89.2313C43.8355 88.9657 43.5282 89.4968 43.1867 89.8345C39.5141 93.4882 35.8566 97.157 32.1916 100.818C31.2772 101.733 30.3059 102.571 28.887 102.283C27.7526 102.055 26.952 101.323 26.5574 100.257C26.1173 99.0654 26.5157 98.0258 27.3883 97.1532C29.7103 94.8275 32.0398 92.5131 34.3542 90.1836C37.913 86.5982 41.4642 83.0052 45.0154 79.4085C46.184 78.2248 47.4664 77.3104 49.2078 78.0958C50.8658 78.8432 51.0176 80.3342 50.9872 81.9353C50.9379 84.6519 50.9721 87.3684 50.9759 90.0849L50.9796 90.0811Z" fill="#06BBFE"/>
<path d="M125.009 90.2786C125.009 93.1203 125.035 95.962 125.001 98.8038C124.975 101.008 123.749 102.359 121.901 102.321C120.137 102.287 118.927 100.955 118.893 98.8834C118.847 96.2314 118.893 93.5794 118.874 90.9236C118.87 90.3317 119.154 89.5577 118.411 89.2352C117.663 88.9089 117.284 89.6298 116.863 90.0509C113.19 93.7008 109.548 97.3772 105.868 101.019C104.305 102.567 102.844 102.734 101.516 101.623C99.968 100.329 100.036 98.4357 101.759 96.7057C106.57 91.8683 111.403 87.0536 116.225 82.2314C117.341 81.116 118.449 79.9891 119.583 78.8889C120.562 77.9366 121.704 77.5078 123.04 78.0314C124.455 78.5891 125.001 79.7387 125.005 81.1805C125.016 84.2119 125.005 87.2433 125.009 90.2748V90.2786Z" fill="#05BBFE"/>
<path d="M87.2654 77.8115C88.3733 77.8456 89.2497 78.4261 90.0351 79.1963C91.6134 80.7443 93.1993 82.2771 94.7738 83.8288C96.5532 85.5817 96.7277 85.5893 98.5679 83.7681C100.139 82.2126 101.679 80.6267 103.265 79.0863C104.893 77.5042 106.577 77.3941 107.932 78.7221C109.32 80.0803 109.222 81.6662 107.552 83.3432C101.713 89.2012 95.8589 95.044 90.0009 100.879C88.8779 101.998 87.6221 102.841 85.9565 102.006C84.6855 101.372 84.1543 100.306 84.3023 98.8912C84.3971 98.011 84.9321 97.4001 85.5202 96.812C87.3527 94.9833 89.1511 93.1204 91.0291 91.3372C91.989 90.4267 91.9548 89.7324 91.0177 88.8294C89.0183 86.9058 87.0757 84.9177 85.1408 82.9221C84.2188 81.9698 83.9987 80.7898 84.5451 79.5909C85.0459 78.4868 85.9451 77.8229 87.2692 77.8077L87.2654 77.8115Z" fill="#06BBFE"/>
<path d="M98.6395 117.471C98.0097 117.471 97.3761 117.429 96.75 117.486C96.2303 117.535 95.4828 117.152 95.2476 117.831C95.0275 118.465 95.5549 119.011 95.9988 119.455C97.1598 120.62 98.7723 120.54 100.214 119.273C100.601 118.931 100.935 118.123 101.534 118.814C102.058 119.417 101.314 119.819 100.958 120.191C99.7929 121.413 97.5809 121.758 96.0709 120.999C94.504 120.214 93.5441 118.138 93.9159 116.348C94.2801 114.595 95.8205 113.221 97.6113 113.054C99.4172 112.887 101.128 113.95 101.815 115.63C102.35 116.939 102.187 117.691 100.525 117.482C99.9067 117.402 99.2655 117.471 98.6357 117.471H98.6395ZM98.0704 116.359C98.2563 116.359 98.4536 116.397 98.6281 116.351C99.2958 116.188 100.472 116.784 100.544 115.961C100.628 115.02 99.5425 114.469 98.5901 114.257C97.9869 114.12 97.3495 114.117 96.7766 114.462C96.1847 114.819 95.3918 115.221 95.5359 115.934C95.6953 116.735 96.5793 116.245 97.137 116.348C97.4368 116.404 97.7593 116.359 98.0704 116.359Z" fill="#1EC1FE"/>
<path d="M119.8 116.849C117.69 116.898 116.408 116.033 116.036 114.163C115.748 112.725 116.347 111.541 117.58 110.759C118.829 109.97 120.126 110.031 121.295 110.915C122.444 111.787 123.032 113.013 122.558 114.421C121.72 116.906 119.88 118.825 118.552 121.037C118.377 121.33 118.058 121.413 117.725 121.219C117.307 120.977 117.281 120.639 117.527 120.267C118.218 119.216 118.92 118.173 119.8 116.853V116.849ZM121.416 113.472C121.261 112.262 120.521 111.476 119.322 111.484C118.028 111.495 117.171 112.334 117.228 113.666C117.284 114.993 118.203 115.771 119.493 115.676C120.68 115.589 121.382 114.766 121.42 113.468L121.416 113.472Z" fill="#1CC1FE"/>
<path d="M67.902 121.374C66.7145 121.549 65.9139 120.748 65.1741 119.845C64.9123 119.527 64.7833 119.178 65.1665 118.859C65.5307 118.555 65.8494 118.665 66.1378 119.007C66.3806 119.295 66.612 119.61 66.908 119.83C67.7389 120.452 68.5698 120.384 69.2906 119.641C70.0684 118.844 69.8901 117.983 69.1844 117.288C68.289 116.404 67.2343 115.68 66.3465 114.788C65.1513 113.585 65.1665 111.923 66.2706 110.929C67.3784 109.932 69.0554 110.03 70.186 111.191C70.4971 111.51 71.1497 111.798 70.573 112.402C70.1633 112.83 69.7839 112.61 69.431 112.276C68.6419 111.529 67.7123 111.187 67.0066 112.208C66.2706 113.27 67.2381 113.912 67.9513 114.53C68.7595 115.232 69.6321 115.877 70.3568 116.655C71.1345 117.486 71.4153 118.517 70.9183 119.637C70.4061 120.786 69.4007 121.386 67.8982 121.378L67.902 121.374Z" fill="#1AC0FE"/>
<path d="M149.792 70.2576C150.93 70.0793 151.693 70.2728 151.291 71.7107C151.017 72.6896 151.704 72.6782 152.379 72.7047C153.062 72.7313 153.95 72.3822 153.954 73.6798C153.954 74.9053 153.161 74.7915 152.425 74.7118C151.268 74.5866 150.634 74.9584 150.634 76.2066C150.634 76.7112 150.524 77.2576 149.811 77.2272C149.128 77.1969 148.984 76.6771 149.018 76.1611C149.105 74.7952 148.32 74.6435 147.231 74.708C146.54 74.7497 145.679 75.0115 145.618 73.7519C145.558 72.4923 146.377 72.6971 147.109 72.6896C147.83 72.682 148.623 72.7009 148.38 71.631C148.088 70.3335 148.714 70.0755 149.796 70.2576H149.792Z" fill="#10BEFE"/>
<path d="M127.247 114.853C128.488 114.951 129.527 115.122 130.252 116.006C131.185 117.148 131.212 119.06 130.29 120.236C129.421 121.348 127.426 121.83 126.147 121.12C124.739 120.339 124.003 119.064 124.443 117.471C125.164 114.856 127.122 112.933 128.499 110.687C128.689 110.376 129.019 110.319 129.315 110.539C129.687 110.816 129.653 111.161 129.41 111.529C128.723 112.572 128.044 113.623 127.243 114.853H127.247ZM129.759 118.207C129.687 116.875 128.97 116.116 127.752 116.059C126.409 115.998 125.548 116.864 125.54 118.138C125.532 119.424 126.409 120.252 127.744 120.229C129.015 120.206 129.626 119.368 129.759 118.203V118.207Z" fill="#18C0FE"/>
<path d="M75.9476 117.216C75.9476 116.207 75.9287 115.194 75.9476 114.185C75.9666 113.346 76.327 112.906 77.0251 113.657C77.636 114.314 77.8864 113.638 78.2658 113.471C80.7053 112.375 82.739 113.634 82.8224 116.336C82.8642 117.66 82.83 118.988 82.8338 120.316C82.8338 120.706 82.8186 121.15 82.3444 121.192C81.7373 121.249 81.6766 120.786 81.6804 120.301C81.688 119.037 81.7221 117.774 81.6501 116.514C81.5894 115.395 81.3048 114.279 79.9124 114.211C78.4517 114.139 77.4918 114.966 77.2376 116.37C77.0479 117.413 77.1541 118.51 77.0631 119.576C77.0137 120.137 77.4273 121.128 76.5471 121.131C75.4468 121.135 76.0463 120.073 75.9742 119.485C75.8793 118.737 75.9514 117.971 75.9476 117.216Z" fill="#10BEFE"/>
<path d="M88.9608 121.371C86.6009 121.322 84.9277 120.047 84.5028 118.192C84.0854 116.363 84.9695 114.504 86.6882 113.586C88.3461 112.702 90.8161 112.998 91.9846 114.212C92.2502 114.489 92.5803 114.758 92.2426 115.156C91.9619 115.483 91.59 115.536 91.2562 115.202C90.6529 114.595 89.9321 114.28 89.0746 114.223C87.667 114.132 86.6237 114.716 85.9559 115.93C85.2882 117.144 85.5955 118.298 86.4567 119.243C87.3787 120.252 88.589 120.555 89.9093 120.077C90.3153 119.929 90.6947 119.683 91.0437 119.425C91.4231 119.144 91.8215 118.848 92.1895 119.303C92.6903 119.918 92.0415 120.195 91.6849 120.476C90.8085 121.174 89.7803 121.424 88.957 121.367L88.9608 121.371Z" fill="#1AC0FE"/>
<path d="M112.295 115.964C112.295 117.349 112.295 118.734 112.295 120.115C112.295 120.726 112.234 121.31 111.426 121.257C110.697 121.208 110.781 120.624 110.781 120.123C110.781 117.858 110.796 115.593 110.769 113.328C110.766 112.861 110.989 112.322 110.458 111.947C110.113 111.704 109.062 112.125 109.552 111.085C109.92 110.308 110.705 110.467 111.388 110.474C112.158 110.486 112.295 110.987 112.291 111.62C112.283 113.066 112.291 114.515 112.291 115.961L112.295 115.964Z" fill="#35C8FE"/>
<path d="M82.7995 93.0177C81.9762 93.067 79.9729 91.1131 79.9805 90.2632C79.9843 89.512 81.8661 87.5884 82.6325 87.5467C83.5089 87.5012 85.4515 89.3906 85.4553 90.2936C85.4553 91.0562 83.5962 92.9684 82.8033 93.0139L82.7995 93.0177Z" fill="#08BBFE"/>
<path d="M136.437 116.166C136.437 117.304 136.486 118.442 136.418 119.573C136.384 120.165 136.866 121.239 135.758 121.182C134.714 121.128 135.223 120.078 135.204 119.482C135.143 117.399 135.192 115.316 135.166 113.233C135.158 112.778 135.412 112.216 134.767 111.909C134.403 111.734 133.512 112.125 133.777 111.23C134.024 110.41 134.824 110.475 135.534 110.49C136.312 110.505 136.448 110.972 136.441 111.621C136.422 113.134 136.433 114.652 136.433 116.166H136.437Z" fill="#27C4FE"/>
<path d="M74.0856 117.338C74.0856 118.339 74.0818 119.345 74.0856 120.346C74.0856 120.828 73.9983 121.264 73.4026 121.242C72.936 121.223 72.8184 120.851 72.8184 120.441C72.8184 118.309 72.8184 116.177 72.8184 114.044C72.8184 113.646 72.8942 113.24 73.3761 113.233C73.9452 113.225 74.078 113.654 74.078 114.139C74.078 115.205 74.078 116.272 74.078 117.338H74.0856Z" fill="#35C8FE"/>
<path d="M74.2707 111.059C74.2138 111.571 73.9293 111.89 73.4133 111.863C72.848 111.833 72.4192 111.506 72.5103 110.903C72.59 110.368 72.977 109.985 73.5802 110.08C74.0962 110.16 74.2631 110.573 74.2707 111.059Z" fill="#27C4FE"/>
<path d="M98.0703 116.355C97.7592 116.355 97.4405 116.401 97.137 116.344C96.5792 116.242 95.6952 116.735 95.5359 115.93C95.3955 115.213 96.1885 114.815 96.7765 114.458C97.3494 114.109 97.9906 114.117 98.5901 114.253C99.5424 114.466 100.624 115.016 100.544 115.957C100.472 116.78 99.292 116.188 98.628 116.348C98.4497 116.39 98.2562 116.355 98.0703 116.355Z" fill="#E2F6FE"/>
<path d="M121.416 113.472C121.378 114.769 120.676 115.596 119.488 115.68C118.202 115.775 117.28 114.997 117.223 113.669C117.166 112.333 118.024 111.499 119.318 111.487C120.52 111.476 121.256 112.261 121.412 113.476L121.416 113.472Z" fill="#F0FAFE"/>
<path d="M129.762 118.207C129.629 119.371 129.022 120.21 127.747 120.233C126.412 120.255 125.535 119.428 125.543 118.142C125.551 116.867 126.412 115.998 127.755 116.063C128.973 116.12 129.69 116.882 129.762 118.21V118.207Z" fill="#F0FAFE"/>
</g>
</g>
<defs>
<clipPath id="clip0_4926_32643">
<rect width="192" height="192" fill="white"/>
</clipPath>
<clipPath id="clip1_4926_32643">
<rect width="140" height="51.5989" fill="white" transform="translate(26 70.2002)"/>
</clipPath>
</defs>
</svg>
