<svg width="192" height="192" viewBox="0 0 192 192" fill="none" xmlns="http://www.w3.org/2000/svg">
<g clip-path="url(#clip0_4926_32620)">
<path d="M96 192C149.019 192 192 149.019 192 96C192 42.9807 149.019 0 96 0C42.9807 0 0 42.9807 0 96C0 149.019 42.9807 192 96 192Z" fill="white"/>
<path d="M48.1088 88.7079C50.5015 89.0375 52.0828 90.8819 52.1798 93.5017C52.2518 95.4624 52.1189 97.4176 51.7228 99.6331C54.999 96.3486 58.0979 93.2663 61.1692 90.1563C62.3129 88.9987 63.6561 88.4199 65.2734 88.5861C67.8821 88.8519 69.6102 90.8043 69.649 93.5765C69.6878 96.4345 69.6573 99.2952 69.6573 102.156C69.6573 102.602 69.6573 103.045 69.6573 103.71C72.8144 101.685 74.3818 98.9906 74.4234 95.4763C74.4788 90.7268 74.4068 85.9746 74.4455 81.2251C74.4788 77.2372 78.1759 74.7891 81.4742 76.5532C83.086 77.4144 84.0802 78.7853 84.0885 80.6546C84.1134 86.1878 84.2491 91.7293 84.0331 97.257C83.7091 105.507 76.2152 113.416 68.0234 114.444C67.0181 114.568 66.0073 114.693 64.9964 114.698C62.0747 114.715 60.0226 112.693 59.9783 109.794C59.9562 108.34 59.9756 106.889 59.9756 105.164C57.2782 107.85 54.7747 110.337 52.2822 112.835C51.6591 113.458 51.0166 114.05 50.1803 114.374C47.8845 115.261 45.4336 114.441 44.2151 112.286C43.8274 111.602 43.675 111.384 42.8719 111.899C39.0751 114.333 34.8214 114.978 30.4097 114.682C27.9312 114.516 25.9843 112.261 26.0092 109.811C26.0341 107.34 28.1029 105.202 30.6701 105.017C31.9551 104.923 33.2483 105.086 34.5306 104.834C38.1806 104.114 40.6066 101.984 42.0466 98.3093C41.4291 98.3093 40.9527 98.3093 40.4764 98.3093C37.3415 98.3093 34.2038 98.3453 31.0689 98.2955C28.4103 98.254 26.4717 96.5563 26.0507 94.0251C25.7018 91.9315 27.1917 89.5332 29.3075 88.8049C29.5595 88.719 29.8476 88.7356 30.1217 88.7052C30.3211 88.8464 30.551 88.8409 30.7808 88.8409C36.3362 88.8409 41.8916 88.8409 47.4469 88.8409C47.6768 88.8409 47.9066 88.8464 48.1088 88.7079Z" fill="#E04D1D"/>
<path d="M155.555 110.301C155.716 112.829 155.896 115.358 156.037 117.886C156.184 120.567 155.281 121.982 152.703 122.73C148.682 123.893 144.636 124.97 140.579 126C138.089 126.632 136.054 124.879 136.203 122.286C136.79 111.984 137.408 101.682 138.009 91.3803C138.106 89.7242 138.131 88.0626 138.288 86.4148C138.499 84.2409 139.931 83.0279 142.132 83.1774C145.165 83.3851 148.194 83.6537 151.219 83.9473C152.966 84.1162 154.215 85.3375 154.318 87.1016C154.666 93.1721 154.943 99.2453 155.248 105.319C154.489 105.881 153.78 105.601 153.08 105.191C152.44 104.817 151.947 104.261 151.396 103.779C150.269 102.793 149.153 102.713 148.325 103.53C147.419 104.421 147.425 105.576 148.482 106.712C149.917 108.254 151.612 109.392 153.772 109.694C154.398 109.783 155.062 109.805 155.555 110.303V110.301Z" fill="#EB9028"/>
<path d="M97.8846 98.1457C100.452 95.4484 102.955 92.6845 105.606 90.0702C108.184 87.5252 112.294 88.4585 113.509 91.7928C114.177 93.6206 113.916 95.3847 112.523 96.7915C107.01 102.363 101.476 107.919 95.9072 113.435C94.4228 114.903 92.5535 115.18 90.6565 114.335C88.7705 113.496 87.7376 111.94 87.7348 109.86C87.7099 100.223 87.7126 90.5826 87.732 80.9452C87.7376 78.2201 89.8728 76.0434 92.4898 76.0074C95.201 75.9686 97.3445 78.0705 97.3944 80.9202C97.4442 83.7311 97.4054 86.5448 97.4054 89.3585C97.4054 92.1694 97.4054 94.9776 97.4054 97.7885C97.5661 97.9076 97.7267 98.0266 97.8846 98.143V98.1457Z" fill="#E04D1D"/>
<path d="M138.914 68.336C138.914 67.4138 138.947 66.4889 138.902 65.5694C138.866 64.8272 139.06 64.5392 139.85 64.794C140.811 65.1042 141.802 65.3257 142.774 65.6027C142.987 65.6636 143.239 65.7439 143.264 66.0236C143.289 66.3005 143.045 66.3975 142.857 66.5165C142.78 66.5636 142.683 66.5775 142.602 66.619C139.891 68.0674 139.83 68.2557 140.603 71.2937C140.75 71.8697 141.015 72.0525 141.556 72.0138C141.877 71.9916 142.201 72.0138 142.525 72.0082C143.583 71.9944 144.821 72.3101 145.654 71.867C146.563 71.3851 146.227 69.9589 146.521 68.9647C146.992 67.3751 148.246 66.3338 149.825 66.2867C151.384 66.2424 152.719 67.22 153.251 68.7985C153.264 68.8428 153.267 68.8899 153.281 68.9342C154.297 72.1661 154.297 72.1439 157.668 72.0248C158.379 71.9999 158.676 71.8116 158.612 71.0805C158.562 70.4851 158.579 69.8813 158.601 69.2832C158.656 67.7351 159.706 66.5359 161.179 66.3088C162.622 66.0873 164.068 66.9569 164.411 68.4883C165.137 71.723 165.763 74.9881 165.987 78.2975C166.164 80.9173 164.503 82.4571 161.869 82.2438C152.68 81.5016 143.497 80.7096 134.308 79.9397C133.574 79.8788 132.832 79.8898 132.098 79.8068C130.212 79.5935 128.911 78.0316 129.063 76.1844C129.237 74.0243 129.417 71.867 129.617 69.7096C129.664 69.2084 129.733 68.6933 129.891 68.2169C130.295 66.9929 131.176 66.3088 132.469 66.295C133.779 66.2812 134.663 66.979 135.014 68.2225C135.277 69.1475 135.463 70.1084 135.565 71.0639C135.648 71.8448 136 72.0941 136.728 72.011C137.094 71.9694 137.471 71.9611 137.833 72.011C138.781 72.1411 139.168 71.831 139.041 70.8146C138.936 69.9977 139.019 69.1585 139.019 68.3277C138.986 68.3277 138.95 68.3277 138.916 68.3277L138.914 68.336Z" fill="#E04D1D"/>
<path d="M111.14 114.762C109.188 114.754 107.432 113.605 106.693 111.802C105.845 109.736 106.308 107.913 107.848 106.363C112.201 101.981 116.571 97.6197 120.936 93.2524C122.01 92.1779 123.063 91.0785 124.168 90.0316C126.214 88.0931 129.205 88.1318 131.113 90.0843C132.971 91.984 133.016 94.9694 131.069 96.9274C125.58 102.452 120.038 107.922 114.508 113.408C113.583 114.327 112.434 114.74 111.14 114.765V114.762Z" fill="#E04D1D"/>
<path d="M155.555 110.3C152.678 110.164 150.199 109.14 148.233 106.993C147.361 106.041 146.923 104.986 147.621 103.742C148.444 102.277 150.257 102.147 151.606 103.485C152.631 104.498 153.603 105.562 155.251 105.318C156.943 105.57 158.109 104.692 159.164 103.526C159.889 102.723 160.784 102.324 161.875 102.681C162.794 102.981 163.274 103.681 163.445 104.601C163.603 105.437 163.246 106.107 162.736 106.736C160.884 109.018 158.405 110.026 155.558 110.303L155.555 110.3Z" fill="#E04D1D"/>
<path d="M55.0842 85.7281C52.348 85.717 50.2876 83.6594 50.2793 80.926C50.271 78.1456 52.4007 75.9993 55.1506 76.0187C57.8231 76.0381 59.9777 78.1871 59.9971 80.854C60.0164 83.5818 57.8425 85.7392 55.0814 85.7281H55.0842Z" fill="#E04D1D"/>
<path d="M102.64 122.549C102.621 125.227 100.452 127.338 97.7603 127.296C95.085 127.257 92.9526 125.078 92.9748 122.414C92.9997 119.763 95.2041 117.559 97.824 117.564C100.53 117.57 102.659 119.777 102.64 122.549Z" fill="#E04D1D"/>
<path d="M104.278 122.359C104.308 119.711 106.526 117.532 109.16 117.565C111.78 117.598 113.97 119.833 113.965 122.469C113.959 125.12 111.777 127.294 109.116 127.296C106.366 127.302 104.247 125.139 104.278 122.359Z" fill="#E04D1D"/>
<path d="M156.593 95.0249C156.593 92.0949 158.429 89.7686 161.171 89.0929C162.096 88.8658 162.893 89.0236 163.209 89.9735C163.55 90.9927 163.01 91.6795 162.027 91.9536C160.985 92.2444 160.188 92.7983 159.756 93.7953C159.653 94.0307 159.587 94.3879 159.695 94.5818C159.866 94.8919 160.188 94.6178 160.429 94.5569C161.232 94.3575 162.018 94.0916 162.827 93.9227C163.705 93.7399 164.422 94.0334 164.644 94.9612C164.857 95.8585 164.436 96.4871 163.55 96.753C162.007 97.2155 160.465 97.6779 158.911 98.0961C157.9 98.3675 157.219 97.9687 156.906 96.9441C156.704 96.2794 156.524 95.6175 156.59 95.0221L156.593 95.0249Z" fill="#019ED5"/>
<path d="M78.6235 122.427C78.6235 121.402 78.6152 120.641 78.6235 119.882C78.6345 119.178 79.0084 118.702 79.6952 118.68C80.3709 118.658 80.8639 119.09 80.8888 119.777C80.9525 121.524 80.9608 123.277 80.9525 125.027C80.9525 125.504 80.706 125.911 80.2159 126.105C79.6647 126.321 79.2383 126.107 78.8422 125.734C77.8508 124.789 76.8538 123.853 75.7156 122.779C75.7156 123.568 75.7322 124.277 75.7101 124.983C75.6879 125.678 75.303 126.138 74.6162 126.179C73.9045 126.221 73.4586 125.742 73.4364 125.083C73.381 123.333 73.4004 121.58 73.4226 119.829C73.4309 119.275 73.7577 118.871 74.2949 118.699C74.8045 118.536 75.1839 118.824 75.5107 119.167C76.4855 120.187 77.4548 121.208 78.6179 122.43L78.6235 122.427Z" fill="#EB9028"/>
<path d="M34.8289 122.483C34.8289 122.436 34.8234 122.389 34.8289 122.345C35.0117 121.204 34.2196 119.675 35.3662 118.98C36.6622 118.193 38.3266 118.487 39.7888 118.866C41.5779 119.329 42.3062 121.245 41.3092 122.802C40.916 123.416 40.8357 123.771 41.4062 124.275C41.9157 124.729 41.9933 125.336 41.4782 125.856C40.9215 126.421 40.3206 126.31 39.775 125.806C39.3374 125.399 38.9193 124.97 38.4983 124.546C37.7035 123.743 37.734 123.026 38.7365 122.428C39.1242 122.195 39.667 122.01 39.4067 121.423C39.0965 120.725 38.3959 120.943 37.8198 120.91C37.1662 120.869 37.0887 121.267 37.1026 121.794C37.1275 122.804 37.1026 123.818 37.1136 124.829C37.1192 125.571 36.845 126.122 36.0447 126.158C35.1695 126.197 34.8372 125.635 34.8344 124.829C34.8317 124.048 34.8344 123.264 34.8344 122.483H34.8289Z" fill="#EB9026"/>
<path d="M82.207 122.405C82.207 122.128 82.207 121.852 82.207 121.577C82.207 118.98 82.3317 118.728 83.6803 118.645C87.1919 118.429 89.1997 119.592 89.4185 121.979C89.604 123.987 88.3246 125.873 86.6048 126.175C85.9651 126.288 85.5026 126.089 85.2533 125.513C84.9958 124.914 85.2173 124.435 85.7657 124.106C86.1174 123.895 86.5356 123.757 86.8291 123.485C87.4522 122.909 87.5575 122.214 87.0036 121.519C86.3916 120.755 85.5441 120.802 84.7272 121.018C84.3422 121.12 84.489 121.569 84.4862 121.874C84.4724 122.887 84.4862 123.901 84.4779 124.914C84.4752 125.668 84.1345 126.208 83.348 126.183C82.6003 126.161 82.207 125.657 82.207 124.89C82.207 124.061 82.207 123.231 82.207 122.403V122.405Z" fill="#EB9027"/>
<path d="M31.2163 122.901C30.1861 123.846 29.2029 124.721 28.2503 125.632C27.6908 126.169 27.0982 126.482 26.4446 125.895C25.7246 125.247 25.9932 124.599 26.5914 124.001C28.181 122.406 29.7596 120.799 31.352 119.204C31.7535 118.8 32.1966 118.487 32.817 118.775C33.357 119.027 33.4816 119.481 33.4788 120.024C33.4733 121.633 33.4678 123.242 33.4788 124.851C33.4844 125.596 33.213 126.186 32.4348 126.2C31.615 126.216 31.2218 125.646 31.2135 124.837C31.208 124.195 31.2135 123.555 31.2135 122.904L31.2163 122.901Z" fill="#EB8F25"/>
<path d="M66.9321 122.876C66.9321 123.538 66.9238 124.206 66.9321 124.876C66.9432 125.64 66.5638 126.152 65.8244 126.197C65.0351 126.244 64.6806 125.69 64.6751 124.951C64.6612 123.25 64.6169 121.544 64.6972 119.849C64.7554 118.667 65.769 118.238 66.6275 119.052C68.3944 120.727 70.0837 122.486 71.7841 124.233C72.2659 124.729 72.2909 125.33 71.7924 125.837C71.2385 126.396 70.6431 126.302 70.0892 125.792C69.0562 124.843 68.026 123.89 66.9294 122.876H66.9321Z" fill="#EB9027"/>
<path d="M53.2675 122.489C52.096 123.718 51.1794 124.685 50.2599 125.646C49.7254 126.205 49.1023 126.507 48.4571 125.892C47.8395 125.302 47.9863 124.649 48.5568 124.073C50.1796 122.433 51.7969 120.791 53.4281 119.16C53.7964 118.792 54.2201 118.504 54.7851 118.75C55.3722 119.008 55.5522 119.498 55.5494 120.096C55.5439 121.663 55.5522 123.234 55.5467 124.801C55.5439 125.588 55.2309 126.227 54.3724 126.197C53.5333 126.166 53.237 125.541 53.2592 124.737C53.2785 124.109 53.2619 123.477 53.2619 122.486L53.2675 122.489Z" fill="#EB9026"/>
<path d="M50.3938 119.871C50.3966 120.273 50.1723 120.558 49.912 120.827C48.375 122.411 46.8324 123.995 45.3037 125.587C44.7637 126.15 44.1267 126.457 43.4898 125.898C42.7781 125.272 43.0744 124.579 43.6476 123.978C43.7418 123.879 43.8249 123.76 43.9357 123.682C45.1016 122.873 45.1542 122.07 43.9744 121.206C43.6864 120.996 43.4621 120.672 43.2793 120.359C42.9885 119.866 43.0688 119.37 43.4898 118.98C43.9135 118.586 44.5449 118.467 44.8495 118.913C46.1955 120.874 47.4057 120.589 48.699 118.877C48.9565 118.537 49.4356 118.581 49.8427 118.83C50.2387 119.074 50.4077 119.417 50.3938 119.866V119.871Z" fill="#EB9027"/>
<path d="M56.8349 121.248C56.8349 120.788 56.8016 120.325 56.8432 119.868C56.9041 119.204 57.2419 118.683 57.9481 118.675C58.7042 118.669 59.114 119.154 59.1362 119.916C59.1556 120.605 59.1224 121.297 59.1445 121.987C59.1888 123.338 59.7344 123.87 61.108 123.92C62.0524 123.953 63.3456 123.71 63.2847 125.116C63.221 126.595 61.8557 126.268 60.8975 126.219C58.1281 126.077 56.8958 124.527 56.8321 121.245L56.8349 121.248Z" fill="#EB9028"/>
<path d="M48.1082 88.7074C47.7925 89.0896 47.3521 88.9677 46.9533 88.9705C41.7275 88.976 36.499 88.976 31.2732 88.9705C30.8771 88.9705 30.434 89.0923 30.1211 88.7046C32.9542 88.4111 35.7955 88.5855 38.6341 88.5883C41.7912 88.5938 44.9539 88.4027 48.1082 88.7074Z" fill="#DB2D00"/>
<path d="M145.507 93.5541C145.507 92.679 145.477 91.8039 145.516 90.9315C145.563 89.8044 146.186 89.137 147.302 89.0179C148.352 88.9043 149.299 89.677 149.349 90.8041C149.426 92.6402 149.423 94.4846 149.354 96.3235C149.313 97.4617 148.399 98.2565 147.355 98.1679C146.169 98.0654 145.53 97.3869 145.513 96.1767C145.502 95.3016 145.513 94.4292 145.513 93.5541H145.507Z" fill="#FEFEFD"/>
</g>
<defs>
<clipPath id="clip0_4926_32620">
<rect width="192" height="192" fill="white"/>
</clipPath>
</defs>
</svg>
