<svg width="192" height="192" viewBox="0 0 192 192" fill="none" xmlns="http://www.w3.org/2000/svg">
<g clip-path="url(#clip0_4926_32696)">
<path d="M96 192C149.019 192 192 149.019 192 96C192 42.9807 149.019 0 96 0C42.9807 0 0 42.9807 0 96C0 149.019 42.9807 192 96 192Z" fill="white"/>
<g clip-path="url(#clip1_4926_32696)">
<path d="M26.0478 100.843C26.7696 100.509 26.7018 99.7534 26.8374 99.1818C28.5475 91.9638 33.2852 87.8994 40.3142 86.3008C41.9758 85.923 42.7412 85.5693 42.2132 83.5057C41.5108 80.7638 43.7828 77.8863 46.8104 77.0676C50.434 76.089 54.1835 76.6219 57.8651 76.2392C63.7412 75.624 68.6969 73.4053 72.5094 68.8032C74.8153 66.0178 77.0243 63.1935 80.9675 62.4185C86.2623 61.3721 90.7821 65.7465 89.7793 71.0704C89.2367 73.9576 87.7835 76.2974 85.9523 78.4773C83.0118 81.9797 79.5046 84.7797 75.3869 86.7756C74.1468 87.3762 73.5655 87.7977 74.5828 89.1977C76.4963 91.8185 77.7994 94.7493 78.4679 97.9562C78.5938 98.5714 78.526 99.797 79.9115 99.0461C83.7094 96.9825 87.4831 97.307 91.189 99.4918C91.8187 90.0745 101.512 88.5195 106.739 94.0371C108.866 89.7257 112.218 87.3617 117.116 87.788C121.732 88.1949 124.566 91.5763 127.996 94.8558C128.151 90.5299 128.582 86.6641 129.643 82.8953C131.169 77.4842 135.054 74.8974 140.547 75.6967C145.619 76.433 148.09 80.0807 146.845 85.0752C146.206 87.6427 145.091 90.0939 144.883 92.7679C144.791 93.95 144.738 95.1368 144.646 96.6724C146.138 95.6212 147.271 94.6378 148.565 93.9548C154.78 90.6558 161.799 93.6884 164.561 100.732C165.079 102.05 164.963 103.585 165.961 104.724V111.985C165.132 112.445 165.21 113.327 164.992 114.073C163.805 118.167 161.62 121.567 157.914 123.781C156.601 124.566 156.214 125.075 156.999 126.668C159.145 131.028 157.682 136.197 153.918 138.629C149.999 141.162 144.728 140.402 141.652 136.856C139.109 133.925 138.726 129.72 140.635 126.019C140.925 125.462 141.914 124.789 140.804 124.251C137.224 122.512 134.536 119.848 132.564 116.253C132.177 116.796 131.988 117.038 131.818 117.295C131.595 117.629 131.411 117.992 131.179 118.317C126.625 124.595 120.245 126.726 112.809 126.223C110.905 126.092 108.502 124.643 109.714 128.514C109.815 128.843 109.602 129.304 109.466 129.677C107.107 136.216 102.462 140.785 96.7309 144.413H94.3087C92.1094 143.72 90.3703 142.359 88.8056 140.707C86.4706 138.236 84.4603 135.514 82.6194 132.675C81.7184 131.29 81.1371 131.251 79.9502 132.423C77.8575 134.497 75.261 135.776 72.3641 136.439C66.2845 137.82 60.7765 132.782 61.7502 126.639C61.9634 125.288 61.6727 124.808 60.3018 125.191C55.2347 126.615 50.2014 126.092 45.3136 124.537C36.216 121.645 28.7897 116.863 26.6388 106.657C26.5565 106.269 26.508 105.852 26.043 105.693V100.853L26.0478 100.843ZM68.2755 85.9859C69.099 85.705 69.8402 85.4482 70.5862 85.1915C76.4914 83.1472 81.2146 79.5333 84.8381 74.4614C85.744 73.1922 86.4222 71.8358 86.5482 70.2614C86.834 66.7008 84.1309 64.6517 80.7495 65.8288C79.0783 66.4102 77.8042 67.5292 76.8014 68.9098C71.2014 76.5686 63.5668 79.8773 54.2125 79.6787C52.2845 79.6399 50.3419 79.8143 48.4236 80.0323C46.8395 80.2115 45.6769 81.1126 45.4686 82.7645C45.27 84.3243 46.3987 85.0946 47.6485 85.5887C49.4457 86.3008 51.272 86.9306 53.0983 87.5603C58.3011 89.3527 62.0457 92.9326 64.9136 97.4621C67.4035 101.396 67.0499 106.429 64.279 109.665C58.2623 116.684 43.2305 114.32 39.636 105.77C38.7786 103.726 38.6672 101.648 40.0963 99.8067C41.4817 98.024 43.4727 97.7382 45.5703 98.024C46.8492 98.1936 48.1039 98.5569 49.3828 98.6586C52.3959 98.9008 54.3578 96.2413 53.3454 93.3783C52.7641 91.741 51.5336 90.7721 50.0028 90.0891C41.7336 86.3929 31.3475 91.9057 29.87 100.8C28.8672 106.836 30.9841 111.787 35.5329 115.638C41.5059 120.695 48.4914 123.021 56.3392 122.57C70.5814 121.756 81.6167 105.76 72.3883 91.8185C71.1046 89.8759 69.7142 88.006 68.29 85.9859H68.2755ZM108.808 106.695C108.672 103.377 106.909 99.3852 103.804 96.0282C101.57 93.6109 98.5523 93.4461 96.2271 95.3596C94.3281 96.9243 94.3281 99.1866 96.29 102.069C97.2395 103.469 98.2762 104.806 98.7315 106.482C99.4437 109.098 98.4312 111.627 96.3385 112.363C94.1343 113.138 92.1627 112.126 90.971 109.49C90.1378 107.659 89.4596 105.76 88.6603 103.915C87.8997 102.161 86.6402 100.95 84.6153 101.003C82.5565 101.057 81.1274 102.19 80.3523 104.055C79.8921 105.164 79.6354 106.356 79.2769 107.509C77.252 113.967 74.2388 119.717 68.1059 123.277C65.1073 125.016 64.0852 127.502 65.2187 130.05C66.3523 132.603 69.6707 133.93 72.6257 132.966C75.5516 132.012 77.9641 130.297 79.7129 127.768C81.1322 125.719 82.4644 123.597 83.7288 121.446C85.4485 118.515 85.4049 118.496 88.2097 120.235C91.3246 122.168 94.6139 123.234 98.3246 122.289C104.477 120.729 108.798 114.863 108.813 106.695H108.808ZM131.295 94.1534C131.179 101.657 132.06 108.967 136.033 115.555C140.756 123.389 152.179 125.331 158.21 119.397C163.146 114.543 164.11 105.47 160.249 99.7243C158.631 97.3167 156.432 95.8005 153.399 95.8925C150.188 95.9894 148.725 98.2323 150.008 101.139C150.754 102.83 151.801 104.394 152.445 106.119C153.608 109.214 152.682 112.005 150.372 113.017C148.264 113.938 146.147 112.809 144.554 109.621C141.977 104.462 140.935 98.9783 141.511 93.2185C141.792 90.3942 142.577 87.7008 143.464 85.0122C144.471 81.9652 143.662 80.0275 141.313 79.2136C137.578 77.9202 134.308 79.4849 133.005 83.2005C131.76 86.7416 131.498 90.4378 131.285 94.1534H131.295ZM115.953 123.079C117.406 123.054 119.925 122.56 122.309 121.495C128.756 118.617 131.876 112.407 130.026 105.615C128.432 99.7728 124.653 95.4226 119.722 92.0413C118.341 91.0967 116.738 90.806 115.091 91.0821C112.683 91.4842 110.876 92.7728 110.101 95.1223C109.331 97.4572 111.094 98.6586 112.61 99.86C113.938 100.911 115.352 101.841 116.709 102.854C117.876 103.726 118.952 104.699 119.79 105.901C120.822 107.383 121.19 108.967 120.356 110.682C119.518 112.416 118.06 113.017 116.21 113.056C115.008 113.08 113.763 113.128 112.625 113.458C110.576 114.059 109.074 115.318 108.725 117.6C108.178 121.175 110.295 123.093 115.943 123.074L115.953 123.079ZM106.386 128.567C106.318 125.239 103.251 123.243 100.359 124.362C98.9786 124.9 97.7482 125.753 96.9004 126.91C95.4423 128.906 94.2893 128.64 92.836 126.901C91.8672 125.738 90.6416 124.755 89.1399 124.275C87.58 123.781 86.0831 123.859 84.9302 125.176C83.7239 126.552 83.6513 128.16 84.5959 129.648C86.8776 133.252 89.3336 136.744 92.5309 139.622C94.7447 141.613 96.3433 141.569 98.3682 139.418C100.519 137.137 102.588 134.773 104.637 132.404C105.649 131.232 106.356 129.88 106.386 128.567ZM148.768 136.754C152.145 136.735 154.785 134.09 154.722 130.791C154.659 127.443 152.009 124.697 148.797 124.658C145.435 124.614 142.64 127.453 142.713 130.834C142.786 134.158 145.46 136.773 148.768 136.754Z" fill="#D6DB2A"/>
<path d="M96.4557 80.091C96.2329 72.5145 94.1401 66.1636 90.9042 60.1616C90.1872 58.8294 91.2965 58.9214 91.9796 58.7131C97.5893 57.0031 103.18 55.2398 108.586 52.9484C111.463 51.7276 114.196 50.2453 117.402 48.3027C113.561 61.1885 106.997 71.5311 96.4557 80.0861V80.091Z" fill="#D7DE29"/>
<path d="M116.23 81.1764C120.493 73.3287 122.344 64.8318 122.974 55.9619C123.923 56.1605 124.025 57.0761 124.422 57.6913C127.057 61.8284 129.63 66.0041 132.275 70.1363C132.793 70.9453 133.311 71.4636 132.1 72.1854C126.927 75.2713 121.806 78.4394 116.671 81.5834C116.526 81.4477 116.381 81.3121 116.235 81.1764H116.23Z" fill="#C60693"/>
<path d="M103.174 89.8711C115.251 72.0005 117.925 66.2067 120.56 52.2939C122.018 53.8974 122.144 54.222 121.79 56.2033C119.562 68.6047 114.127 79.4801 106.148 89.159C105.32 90.1618 104.535 90.6607 103.174 89.8711Z" fill="#C60693"/>
<path d="M118.628 48.4775C119.592 49.4658 119.714 50.4201 119.442 51.3938C115.79 64.5315 110.505 76.773 100.08 86.1322C98.1419 87.8713 96.1412 89.5765 93.5156 90.4485C106.929 79.5634 113.76 64.764 118.624 48.4824L118.628 48.4775Z" fill="#90C746"/>
<path d="M116.666 81.5827C116.448 81.9654 116.157 82.0914 115.76 81.8443C115.915 81.6215 116.075 81.4035 116.23 81.1807C116.375 81.3163 116.52 81.4519 116.666 81.5876V81.5827Z" fill="#C60693"/>
<path d="M68.2761 85.9861C69.7003 88.0062 71.0906 89.8761 72.3743 91.8187C81.6027 105.761 70.5674 121.752 56.3252 122.57C48.4775 123.021 41.492 120.695 35.519 115.638C30.9702 111.787 28.8532 106.836 29.856 100.8C31.3335 91.9059 41.7197 86.3931 49.9889 90.0892C51.5197 90.7723 52.7501 91.7411 53.3314 93.3785C54.3439 96.2415 52.382 98.901 49.3688 98.6588C48.0899 98.5571 46.8304 98.1937 45.5563 98.0242C43.4588 97.7432 41.4678 98.0242 40.0823 99.8069C38.6532 101.648 38.7647 103.726 39.6221 105.77C43.2166 114.316 58.2484 116.684 64.265 109.665C67.0359 106.429 67.3896 101.396 64.8996 97.4623C62.0318 92.928 58.292 89.3529 53.0844 87.5605C51.2581 86.9308 49.4269 86.2962 47.6345 85.5889C46.3847 85.0948 45.256 84.3197 45.4546 82.7647C45.6629 81.1128 46.8255 80.2117 48.4096 80.0325C50.328 79.8145 52.2705 79.6401 54.1986 79.6789C63.5529 79.8775 71.1875 76.5688 76.7875 68.91C77.7951 67.5342 79.0691 66.4104 80.7356 65.829C84.1169 64.6519 86.82 66.7059 86.5342 70.2616C86.4082 71.836 85.73 73.1924 84.8242 74.4616C81.2006 79.5384 76.4775 83.1474 70.5723 85.1917C69.8311 85.4484 69.0851 85.7003 68.2615 85.9861H68.2761Z" fill="#C60693"/>
<path d="M108.804 106.696C108.789 114.864 104.473 120.725 98.316 122.29C94.6053 123.23 91.3209 122.169 88.2011 120.236C85.3914 118.497 85.4399 118.516 83.7202 121.447C82.4558 123.598 81.1236 125.715 79.7043 127.769C77.9555 130.298 75.543 132.012 72.6171 132.967C69.662 133.931 66.3485 132.603 65.2101 130.05C64.0766 127.498 65.0987 125.017 68.0973 123.278C74.2302 119.718 77.2434 113.967 79.2683 107.51C79.6316 106.357 79.8835 105.165 80.3437 104.056C81.1188 102.196 82.543 101.057 84.6067 101.004C86.6364 100.956 87.8911 102.167 88.6517 103.916C89.4558 105.761 90.134 107.66 90.9624 109.491C92.1589 112.122 94.1305 113.134 96.3299 112.364C98.4226 111.628 99.435 109.099 98.7229 106.483C98.2676 104.807 97.2309 103.47 96.2814 102.07C94.3195 99.1827 94.3146 96.9252 96.2184 95.3605C98.5437 93.447 101.562 93.6117 103.795 96.029C106.9 99.3861 108.663 103.378 108.799 106.696H108.804Z" fill="#C60693"/>
<path d="M131.291 94.154C131.504 90.4433 131.766 86.7471 133.011 83.201C134.314 79.4855 137.579 77.9159 141.319 79.2142C143.673 80.028 144.477 81.9658 143.47 85.0128C142.583 87.7014 141.798 90.3948 141.517 93.219C140.946 98.9837 141.987 104.463 144.56 109.622C146.149 112.809 148.266 113.938 150.378 113.018C152.688 112.005 153.614 109.22 152.451 106.119C151.807 104.4 150.76 102.83 150.014 101.139C148.731 98.2329 150.189 95.9851 153.405 95.8931C156.438 95.801 158.637 97.3173 160.255 99.7249C164.116 105.47 163.147 114.544 158.216 119.398C152.185 125.332 140.757 123.384 136.039 115.556C132.066 108.968 131.185 101.658 131.301 94.154H131.291Z" fill="#C60693"/>
<path d="M115.948 123.084C110.299 123.103 108.183 121.185 108.73 117.609C109.079 115.328 110.58 114.068 112.63 113.468C113.768 113.133 115.013 113.09 116.214 113.066C118.06 113.027 119.518 112.421 120.361 110.692C121.189 108.977 120.826 107.398 119.794 105.911C118.956 104.709 117.881 103.731 116.713 102.863C115.357 101.851 113.938 100.916 112.615 99.8697C111.099 98.6683 109.331 97.4669 110.106 95.132C110.881 92.7874 112.688 91.4988 115.095 91.0919C116.742 90.8157 118.346 91.1064 119.726 92.051C124.658 95.4323 128.432 99.7825 130.03 105.625C131.886 112.416 128.761 118.632 122.313 121.504C119.93 122.565 117.411 123.064 115.958 123.088L115.948 123.084Z" fill="#C60693"/>
<path d="M106.382 128.573C106.353 129.891 105.65 131.242 104.633 132.41C102.579 134.779 100.515 137.143 98.3643 139.424C96.3346 141.57 94.7408 141.619 92.5269 139.628C89.3297 136.75 86.8736 133.257 84.592 129.653C83.6474 128.166 83.72 126.558 84.9262 125.182C86.0792 123.869 87.5761 123.787 89.1359 124.281C90.6377 124.761 91.8681 125.744 92.8321 126.907C94.2806 128.651 95.4335 128.912 96.8965 126.916C97.7442 125.758 98.9747 124.901 100.355 124.368C103.243 123.249 106.309 125.245 106.382 128.573Z" fill="#C60693"/>
<path d="M148.764 136.76C145.455 136.774 142.781 134.158 142.708 130.84C142.636 127.459 145.431 124.62 148.793 124.664C152.005 124.707 154.654 127.454 154.717 130.796C154.78 134.095 152.135 136.74 148.764 136.76Z" fill="#C60693"/>
</g>
</g>
<defs>
<clipPath id="clip0_4926_32696">
<rect width="192" height="192" fill="white"/>
</clipPath>
<clipPath id="clip1_4926_32696">
<rect width="140" height="96.8858" fill="white" transform="translate(26 47.5566)"/>
</clipPath>
</defs>
</svg>
