<svg width="192" height="192" viewBox="0 0 192 192" fill="none" xmlns="http://www.w3.org/2000/svg">
<g clip-path="url(#clip0_4925_32166)">
<path d="M96 192C149.019 192 192 149.019 192 96C192 42.9807 149.019 0 96 0C42.9807 0 0 42.9807 0 96C0 149.019 42.9807 192 96 192Z" fill="white"/>
<path d="M109.036 91.7528C112.246 87.8474 115.468 83.9664 118.604 80C119.129 81.8673 119.63 83.7468 120.191 85.6018C118.714 87.3348 117.262 89.0923 115.895 90.9107C118.971 91.6796 121.887 93.6567 123.01 96.7322C125.134 101.565 122.229 107.777 117.14 109.23C113.845 110.462 110.366 109.156 107.633 107.24C107.267 107.741 106.888 108.229 106.522 108.729C105.912 109.535 104.923 109.986 103.91 109.852C100.151 109.388 96.7708 106.703 95.8067 102.956C94.6472 98.7337 93.4878 94.511 92.365 90.2761C91.3521 87.5789 94.4398 86.0412 95.587 83.9908C96.6854 87.884 97.6861 91.8138 98.7113 95.7315C99.8463 99.0266 99.6999 103.506 103.422 105.104C105.289 102.786 107.145 100.491 109.024 98.1845C109.561 100.149 110.098 102.102 110.903 103.969C112.99 105.007 115.871 105.654 117.591 103.615C120.008 101.516 119.178 97.1716 116.249 95.9877C113.894 95.1334 111.318 95.6338 108.865 95.4752C108.804 94.2547 107.999 92.778 109.012 91.7528H109.036Z" fill="#F15A21"/>
<path d="M136.439 91.8519C139.551 87.8733 142.907 84.0899 145.934 80.0625C146.507 81.9054 147.032 83.7482 147.545 85.6033C146.117 87.3729 144.713 89.167 143.261 90.9122C146.971 91.7299 150.266 94.5613 150.925 98.4057C151.377 101.03 152.268 103.654 154.684 105.118C156.625 102.848 158.516 100.541 160.31 98.1616C161.043 99.9678 161.592 101.847 162.007 103.751C160.298 105.582 158.907 107.705 157.162 109.512C154.184 110.281 151.023 108.535 149.058 106.314C147.008 108.548 144.103 109.988 141.015 109.707C137.037 109.451 132.594 110.525 129.079 108.096C124.454 105.179 123.502 98.0884 127.224 94.0609C128.433 92.6208 130.153 91.8031 131.789 90.9366C132.314 92.3523 132.826 93.768 133.18 95.2325C131.777 96.5018 129.58 97.5148 129.641 99.7238C129.165 102.335 131.52 105.008 134.132 104.947C137.049 104.996 139.966 105.069 142.87 104.862C146.471 104.203 147.642 98.8694 144.75 96.6971C142.297 94.7566 138.941 95.8428 136.073 95.3668C136.109 94.1952 135.499 92.7917 136.451 91.8275L136.439 91.8519Z" fill="#F15A21"/>
<path d="M159.833 88.7875C160.406 86.8592 162.212 85.4923 163.494 83.9668C163.628 84.516 163.884 85.6144 164.006 86.1636C165.581 91.3382 166.618 96.6472 168.217 101.81C168.62 103.274 169.974 104.092 171.024 105.068C173.001 102.749 174.905 100.382 176.882 98.0751C177.395 99.9301 177.919 101.785 178.359 103.652C176.54 105.617 175.161 107.985 173.111 109.718C169.059 109.913 164.995 107.265 163.811 103.335C162.383 98.5144 161.102 93.6449 159.82 88.7875H159.833Z" fill="#F15A21"/>
<path d="M101.8 90.6295C102.495 90.6539 103.045 90.0803 103.045 89.3846C103.045 88.3594 103.24 87.3465 104.29 86.8461C105.839 85.7111 107.365 86.9193 108.305 88.2252C108.537 88.5425 108.585 88.9575 108.451 89.3358C108.293 89.763 108.134 90.2023 107.975 90.6295C107.89 90.8491 107.756 91.0444 107.56 91.1787C107.341 91.3373 107.097 91.5204 106.877 91.679C106.657 91.8377 106.389 91.9231 106.12 91.9109H106.01C105.302 91.8743 104.717 92.4479 104.753 93.1558C104.79 94.0345 104.79 94.9132 103.984 95.4014C102.862 96.6462 100.823 96.2191 99.9081 94.962C99.7983 94.8156 99.7373 94.6447 99.7129 94.4738C99.6152 93.7294 99.6763 92.9849 99.7129 92.2404C99.7373 91.8377 99.9692 91.4838 100.311 91.2763C100.604 91.1176 100.909 90.9346 101.177 90.7881C101.373 90.6783 101.58 90.6295 101.8 90.6417V90.6295Z" fill="#F15A21"/>
<path d="M71.3377 96.7073C72.3507 94.0711 74.7183 92.3503 77.147 91.1055C77.5986 92.6188 78.0135 94.1444 78.3675 95.6821C77.6596 96.2313 77.0128 96.8415 76.427 97.5006C75.7191 98.2817 75.3652 99.3312 75.3774 100.381C75.3774 100.381 75.3774 100.405 75.3774 100.417C75.3774 101.43 75.7191 102.407 76.3781 103.176C77.2569 104.201 78.3064 105.067 79.7466 104.994C81.7237 105.263 83.3102 103.883 84.433 102.431C86.7641 99.4533 89.2538 96.6219 91.5116 93.5952C92.073 95.438 92.7442 97.2687 93.0005 99.197C91.3041 101.626 89.2904 103.835 87.4597 106.153C84.8114 109.607 79.6367 110.718 75.8045 108.655C71.5574 106.629 69.324 101.04 71.3499 96.7195L71.3377 96.7073Z" fill="#F15A21"/>
<path d="M152.108 95.5961C151.705 94.0461 153.035 92.3741 154.634 92.4474C155.415 92.2643 156.013 92.5816 156.55 93.021C157.563 93.8753 157.832 95.3642 157.099 96.4626C157.051 96.5358 157.002 96.609 156.941 96.6823C156.16 97.7318 154.744 98.0492 153.572 97.4756C152.791 97.085 152.144 96.548 152.108 95.5839V95.5961Z" fill="#F15A21"/>
<path d="M90.3174 105.164C91.0985 104.859 91.8796 104.554 92.6606 104.236C93.1854 104.444 94.235 104.847 94.7598 105.042C95.2114 106.335 95.8582 108.056 94.5279 109.069C93.3075 110.339 91.4158 109.643 90.1343 108.874C90.1221 107.641 90.1832 106.397 90.3296 105.164H90.3174Z" fill="#F15A21"/>
<path d="M178.61 105.813C178.903 105.533 179.488 104.959 179.781 104.678C181.148 104.703 183.235 104.41 183.614 106.204C184.529 108.254 182.552 110.671 180.343 109.828C178.256 109.706 178.573 107.302 178.598 105.813H178.61Z" fill="#F15A21"/>
<path d="M30.1936 92.7893C33.623 88.591 36.7839 84.1242 40.6527 80.3164C40.9944 82.1349 41.8365 83.9167 41.7389 85.7962C40.6527 87.5658 39.2004 89.0425 37.9067 90.6413C41.1531 90.8 44.5093 90.324 47.6458 91.4468C47.7068 92.2523 47.7801 93.0578 47.8411 93.8633C43.4475 99.1478 39.0906 104.444 34.697 109.741C33.4155 109.668 31.8778 109.912 31.0479 108.692C30.4254 107.361 30.5231 105.262 32.134 104.701C33.623 103.688 35.0265 105.03 36.2347 105.811C35.8198 103.126 33.623 100.429 30.6573 100.893C27.1425 101.637 25.9708 105.555 23.3713 107.593C19.173 111.511 11.5453 110.01 9.11658 104.835C7.18829 101.393 7.83512 96.8533 10.4591 93.9731C11.7161 92.655 13.4369 91.9228 14.9991 91.0563C15.4018 92.5818 15.8046 94.1074 16.1585 95.6451C13.9373 96.7435 11.8015 99.099 12.7779 101.76C13.5834 104.628 17.086 105.946 19.6612 104.579C22.0044 102.785 23.3225 100.014 25.6047 98.1592C27.9357 96.536 31.0479 95.6695 33.8061 96.6581C35.2218 97.1096 36.5032 97.9151 37.9189 98.3667C38.8587 97.488 39.6642 96.4628 40.5063 95.4865C37.3575 95.4132 34.221 95.4376 31.0723 95.4376C30.7916 94.5467 30.4987 93.6558 30.1936 92.7649V92.7893Z" fill="#F15A21"/>
<path d="M44.8962 84.198C46.5071 82.88 49.3141 84.1736 49.2409 86.2972C49.4484 88.3597 46.7268 90.2148 45.0182 88.7381C43.3462 87.7739 43.3706 85.2964 44.8962 84.198Z" fill="#F15A21"/>
<path d="M52.2383 88.3345C53.4343 86.9554 54.5815 85.5275 55.7287 84.0996C56.8882 88.3101 58.0598 92.5084 59.1826 96.7189C60.0491 99.7456 60.3786 103.273 63.2344 105.201C65.4556 103.053 67.1764 100.453 69.361 98.2689C69.8126 100.136 70.2642 101.991 70.5937 103.883C69.5319 105.152 68.5677 106.507 67.506 107.788C66.2245 109.326 64.1498 110.022 62.2337 109.424C60.6715 108.936 59.2436 108.02 58.133 106.824C56.4 104.969 55.802 102.431 55.2161 100.039C54.3008 96.1209 52.9827 92.301 52.2383 88.3345Z" fill="#F15A21"/>
<path d="M63.7776 92.9231C64.5221 92.5936 65.2665 92.2519 65.9988 91.9102C67.0606 92.7034 68.879 93.2893 68.4275 94.9735C68.5617 96.4258 67.4389 97.8415 65.9012 97.5608C64.1682 97.9757 63.5091 96.2915 62.7891 95.1077C63.1186 94.3754 63.4481 93.6432 63.7776 92.9109V92.9231Z" fill="#F15A21"/>
<path d="M43.2283 102.967C45.8889 99.6719 48.5983 96.4133 51.2344 93.0938C51.7348 94.9 52.2474 96.7184 52.7722 98.5247C50.5632 101.393 48.342 104.261 45.9255 106.958C44.6929 108.447 42.911 109.252 41.1414 109.911C40.763 108.422 40.4091 106.934 40.1406 105.432C41.2634 104.737 42.4228 104.041 43.2283 102.979V102.967Z" fill="#F15A21"/>
</g>
<defs>
<clipPath id="clip0_4925_32166">
<rect width="192" height="192" fill="white"/>
</clipPath>
</defs>
</svg>
