<svg width="192" height="192" viewBox="0 0 192 192" fill="none" xmlns="http://www.w3.org/2000/svg">
<g clip-path="url(#clip0_4926_32614)">
<path d="M96 192C149.019 192 192 149.019 192 96C192 42.9807 149.019 0 96 0C42.9807 0 0 42.9807 0 96C0 149.019 42.9807 192 96 192Z" fill="white"/>
<path d="M93.2196 133.823C83.293 135.221 73.3665 136.643 61.9284 138.244C66.6661 129.22 62.6729 124.392 56.8298 120.038C53.2202 117.354 49.6782 114.488 46.61 111.24C42.1882 106.547 32.397 104.539 39.5035 93.8908C41.5565 90.8226 37.27 83.5582 35.8262 77.8956C39.887 75.7523 44.2412 76.7676 48.5502 77.3541C50.7836 77.6474 53.6037 78.5724 54.7317 76.2487C59.0633 67.2922 62.8083 72.4585 67.0722 76.2487C69.441 78.3693 71.3361 81.5503 75.8256 81.5052C77.4274 71.3756 72.5092 61.7875 73.5695 50.6427C83.5412 56.5987 87.196 49.6501 90.4672 42.4759C94.5506 33.4743 97.6188 35.2792 101.432 42.8143C104.68 49.2214 107.117 59.0352 119.209 47.5971C117.427 61.201 116.028 71.8268 114.584 82.746C119.976 82.2948 122.548 78.234 125.594 75.3011C129.632 71.4433 132.587 68.691 136.377 75.617C138.836 80.0839 143.326 77.4895 146.552 76.4066C153.884 73.9475 156.073 75.3463 154.11 83.3326C152.846 88.5215 148.357 94.1841 155.17 99.6437C157.855 101.787 153.501 103.862 151.831 105.374C145.424 111.149 138.791 116.654 132.271 122.317C129.767 124.483 126.428 126.423 127.647 130.529C129.97 138.402 125.774 138.289 120.111 137.207C113.118 135.853 106.056 134.86 99.0176 133.71C97.0774 133.732 95.1372 133.777 93.197 133.8L93.2196 133.823Z" fill="#ED222A"/>
<path d="M93.2197 133.823C95.1599 133.778 97.1001 133.755 99.0403 133.732C98.9275 139.237 98.8598 144.742 98.6568 150.247C98.5891 152.412 98.5665 155.074 95.363 154.736C93.0167 154.488 92.9941 152.187 92.9941 150.404C92.9941 144.877 93.1295 139.372 93.2197 133.845V133.823Z" fill="#F2666B"/>
</g>
<defs>
<clipPath id="clip0_4926_32614">
<rect width="192" height="192" fill="white"/>
</clipPath>
</defs>
</svg>
