<svg width="192" height="192" viewBox="0 0 192 192" fill="none" xmlns="http://www.w3.org/2000/svg">
<g clip-path="url(#clip0_4925_32248)">
<path d="M96 192C149.019 192 192 149.019 192 96C192 42.9807 149.019 0 96 0C42.9807 0 0 42.9807 0 96C0 149.019 42.9807 192 96 192Z" fill="#FF5221"/>
<path d="M144.611 114.359C144.611 108.049 144.541 101.739 144.661 95.439C144.691 93.709 144.101 93.049 142.501 93.019C142.081 93.019 141.671 92.919 141.261 92.889C139.961 92.809 139.411 92.289 139.451 90.839C139.561 86.399 139.481 81.969 139.491 77.529C139.491 76.359 139.781 75.139 137.841 75.319C136.941 75.399 137.191 74.429 137.191 73.869C137.171 71.439 137.191 69.019 137.171 66.589C137.171 66.119 137.261 65.299 137.051 65.209C135.451 64.469 136.451 63.389 136.671 62.499C138.561 54.709 136.981 47.809 131.391 41.969C129.401 39.889 128.951 39.899 126.951 42.019C121.121 48.149 119.811 55.369 121.951 63.389C122.061 63.799 122.801 64.389 121.951 64.739C121.291 65.009 121.011 64.379 120.731 63.889C120.211 63.019 119.691 62.149 119.031 61.019C117.391 63.849 115.871 66.439 114.361 69.029C114.231 69.009 114.111 68.979 113.981 68.949V66.909C113.981 55.539 113.961 44.179 114.011 32.809C114.021 31.339 113.611 30.969 112.171 30.989C101.711 31.049 91.2414 31.019 80.7714 31.019C78.9447 31.019 78.0314 31.9324 78.0314 33.759V43.409C76.3414 41.699 75.0514 40.459 73.8414 39.139C73.2014 38.449 72.7714 38.309 72.0314 39.079C69.6314 41.579 67.1514 43.999 64.6814 46.429C64.1814 46.919 64.0314 47.419 64.1914 48.089C65.0014 51.519 65.9014 54.889 65.0314 58.509C64.6414 60.149 64.9714 61.959 64.9514 63.689C64.9514 64.059 65.1214 64.759 64.6014 64.709C61.8014 64.499 62.6214 66.539 62.6514 67.909C62.6714 69.179 62.1414 69.369 61.0614 69.349C58.7714 69.289 56.4814 69.399 54.2014 69.299C52.8614 69.239 52.4414 69.609 52.4614 71.009C52.5414 77.249 52.3714 83.489 52.5614 89.719C52.6314 91.999 52.0214 93.029 49.7414 92.969C47.9714 92.919 47.3514 93.639 47.3714 95.559C47.4614 111.839 47.6514 128.139 47.3314 144.419C47.1514 153.459 54.3914 161.079 63.9414 160.959C85.2814 160.689 106.641 160.689 127.981 160.959C136.731 161.079 144.881 154.519 144.661 144.259C144.431 134.289 144.611 124.299 144.611 114.319V114.359ZM134.341 83.719C134.361 84.549 134.341 85.379 134.341 86.199V88.269C134.341 91.959 134.351 91.909 130.701 91.389C129.621 91.239 129.331 90.819 129.351 89.809C129.401 87.259 129.431 84.699 129.351 82.139C129.311 80.879 129.701 80.459 130.981 80.489C135.121 80.599 134.251 80.139 134.341 83.699V83.719ZM126.421 72.149C126.191 69.559 127.761 69.979 129.261 70.039C132.401 70.069 131.841 69.659 132.001 72.809C132.101 74.609 131.891 75.619 129.651 75.439C126.841 75.219 126.671 75.019 126.421 72.149ZM128.341 48.769C129.011 47.579 129.431 47.669 130.081 48.799C131.461 51.199 132.141 53.769 132.221 56.739C132.091 58.939 131.721 61.319 130.761 63.579C130.481 64.249 130.191 64.779 129.301 64.769C128.501 64.769 128.021 64.489 127.721 63.739C125.701 58.649 125.581 53.649 128.341 48.749V48.769ZM119.041 71.359C120.571 74.009 121.871 76.249 123.281 78.699H114.821C116.201 76.299 117.511 74.029 119.041 71.359ZM113.991 85.109C113.961 84.199 114.391 83.909 115.241 83.929C116.551 83.969 117.861 83.939 119.171 83.939C124.491 83.939 124.451 83.939 124.141 89.269C124.081 90.419 123.641 90.649 122.631 90.559C120.161 90.359 117.691 90.199 115.211 90.069C114.351 90.019 113.971 89.719 113.991 88.829C114.041 87.589 114.041 86.349 113.991 85.109ZM84.7014 36.269C92.2614 36.299 99.8114 36.299 107.361 36.269C108.321 36.269 108.811 36.549 108.711 37.569C108.681 37.909 108.711 38.259 108.711 38.609C108.681 39.919 109.081 41.489 108.511 42.489C107.831 43.679 106.121 42.869 104.861 42.969C103.951 43.039 103.621 43.379 103.701 44.239C103.731 44.649 103.701 45.069 103.701 45.489C103.731 48.499 103.381 48.209 106.381 48.069C108.341 47.969 109.021 48.629 108.711 50.479C108.691 50.619 108.711 50.759 108.711 50.899C108.711 54.549 108.711 54.589 105.141 54.699C104.111 54.729 103.551 54.949 103.691 56.089C103.741 56.499 103.691 56.919 103.701 57.339C103.731 60.279 103.311 60.099 106.361 59.959C108.271 59.869 109.051 60.449 108.721 62.359C108.691 62.559 108.721 62.779 108.721 62.989C108.721 66.649 108.721 66.709 105.161 66.779C103.911 66.809 103.561 67.269 103.701 68.379C103.741 68.719 103.701 69.069 103.701 69.419C103.741 72.329 103.311 72.159 106.381 72.009C108.341 71.909 108.821 72.569 108.761 74.439C108.631 78.389 108.731 78.419 104.811 78.829C104.041 78.909 103.641 79.099 103.701 79.919C103.721 80.199 103.701 80.479 103.701 80.749C103.671 83.909 103.681 84.019 106.861 83.909C108.551 83.849 108.771 84.539 108.751 85.969C108.691 89.699 108.751 89.689 105.061 89.609C103.461 89.579 101.861 89.479 100.281 89.559C98.9814 89.619 98.6514 89.129 98.6614 87.879C98.7214 82.339 98.6814 76.789 98.6914 71.239C98.6914 70.249 98.8514 69.249 97.2914 69.359C96.0614 69.449 96.3214 68.439 96.3214 67.729C96.3014 62.669 96.3114 57.609 96.3014 52.549C96.3014 52.209 96.2514 51.869 96.1814 51.069C91.8414 54.279 87.7214 57.329 83.2714 60.619C83.2714 52.639 83.2914 45.149 83.2514 37.669C83.2514 36.549 83.6814 36.259 84.7114 36.269H84.7014ZM91.1714 68.149C91.1914 69.019 90.9014 69.439 89.9914 69.379C89.3614 69.349 88.7314 69.469 88.1314 69.359C87.2714 69.199 85.8714 70.009 85.6514 68.699C85.4314 67.329 84.9214 65.669 86.6314 64.579C88.0714 63.669 89.4014 62.559 91.1614 61.269C91.1614 63.879 91.1314 66.009 91.1714 68.149ZM84.5914 74.629C85.8914 74.719 87.2114 74.649 88.5214 74.649C89.4214 74.649 90.3314 74.749 91.2114 74.629C93.1414 74.349 93.7314 75.119 93.5914 76.999C93.4914 78.249 93.3114 78.889 91.8614 78.819C89.4514 78.709 87.0314 78.719 84.6214 78.819C82.8214 78.899 83.2714 77.669 83.2814 76.739C83.2914 75.829 82.7714 74.519 84.5914 74.639V74.629ZM83.2814 84.689C83.2714 84.039 83.7414 83.929 84.2814 83.929C86.9814 83.929 89.6814 83.929 92.3714 83.919C93.1414 83.919 93.5514 84.199 93.5314 84.999C93.5314 85.139 93.5314 85.279 93.5314 85.419C93.6914 88.139 91.9581 89.5357 88.3314 89.609C87.9114 89.609 87.5014 89.629 87.0914 89.609C85.8714 89.529 84.1514 90.289 83.5514 89.369C82.7214 88.109 83.3214 86.289 83.2814 84.709V84.689ZM72.2814 46.269C72.7014 45.879 73.0114 45.829 73.5314 46.169C75.6414 47.549 76.2114 48.909 75.6414 51.529C75.4314 52.469 75.0814 53.409 75.0314 54.359C74.9414 55.869 74.1714 56.249 72.8214 55.979C71.4414 56.339 71.0114 55.519 70.8314 54.349C70.6914 53.389 70.6614 52.359 70.2614 51.519C69.0714 48.999 70.7314 47.689 72.2814 46.279V46.269ZM75.8214 62.979C75.8714 65.229 74.5414 64.789 73.2914 64.819H72.7914C71.7414 64.659 70.1214 65.479 70.2014 63.129C70.2514 61.669 70.6614 61.099 72.1014 61.299C72.5114 61.359 72.9314 61.299 73.3414 61.309C74.4914 61.359 75.7714 60.839 75.8114 62.979H75.8214ZM67.9214 80.299C67.9214 77.389 67.9714 74.489 67.9014 71.589C67.8714 70.409 68.2614 70.029 69.4314 70.059C71.8514 70.139 74.2714 70.109 76.6914 70.069C77.6714 70.049 78.0314 70.389 78.0314 71.379C78.0014 77.119 78.0014 82.859 78.0314 88.599C78.0414 89.669 77.6514 90.049 76.5914 90.089C74.2414 90.189 71.8914 90.329 69.5614 90.569C68.2914 90.699 67.8514 90.329 67.8914 89.019C67.9714 86.109 67.9114 83.209 67.9114 80.309L67.9214 80.299ZM62.3714 91.009C61.2014 91.589 59.7114 91.559 58.3514 91.699C57.6614 91.779 57.6714 91.169 57.6714 90.689C57.6614 89.509 57.6714 88.339 57.6714 87.169C57.6714 84.029 58.7914 83.199 61.8914 83.969C62.6214 84.159 62.7114 84.589 62.7114 85.169C62.7114 85.999 62.7114 86.829 62.7114 87.649C62.7114 87.859 62.7314 88.069 62.7114 88.269C62.6214 89.209 63.1614 90.619 62.3914 90.999L62.3714 91.009ZM60.1514 74.569C61.6114 74.599 62.7014 74.449 62.6914 76.629C62.6814 78.769 61.8314 79.119 60.1414 78.759C58.5614 79.019 57.6014 78.899 57.5614 76.789C57.5214 74.599 58.5214 74.519 60.1514 74.569ZM75.8414 155.849C71.5414 155.729 67.2514 155.829 62.9514 155.799C56.8214 155.759 52.5414 151.429 52.5214 145.269C52.5014 140.829 52.5514 136.389 52.4914 131.959C52.4714 130.729 52.7614 130.219 54.0914 130.279C56.4414 130.379 58.8014 130.369 61.1514 130.279C62.4814 130.229 62.7914 130.749 62.7714 131.979C62.7114 135.859 62.8314 139.739 62.7114 143.619C62.6614 145.269 63.1614 145.919 64.8014 145.689C65.4114 145.609 66.0414 145.649 66.6714 145.689C67.5614 145.739 67.8914 145.369 67.8814 144.469C67.8614 135.459 67.8614 126.449 67.8814 117.439C67.8814 116.519 67.5314 116.179 66.6514 116.309C65.8314 116.429 65.0014 116.609 64.1814 116.619C63.0314 116.619 62.5914 117.089 62.6414 118.249C62.7114 120.049 62.5914 121.859 62.7014 123.649C62.7614 124.739 62.4814 125.139 61.3614 125.109C58.8714 125.049 56.3714 125.039 53.8814 125.109C52.7414 125.139 52.4914 124.669 52.5014 123.629C52.5414 118.779 52.5514 113.929 52.5014 109.079C52.4814 107.969 52.9614 107.639 53.9414 107.539C60.1214 106.889 66.2614 105.699 72.5214 105.839C73.7414 105.859 74.9714 105.569 76.1714 105.329C77.6914 105.029 78.0514 105.679 78.0414 107.109C77.9914 115.009 78.0214 122.909 78.0214 130.819C78.0214 138.729 77.9614 146.069 78.0614 153.689C78.0814 155.469 77.5314 155.879 75.8414 155.839V155.849ZM122.481 155.829C116.171 155.799 109.871 155.809 103.561 155.809C97.2514 155.809 91.2314 155.759 85.0714 155.839C83.5914 155.859 83.1614 155.409 83.2314 153.969C83.3514 151.759 83.3314 149.529 83.2314 147.319C83.1814 146.049 83.5814 145.639 84.8614 145.659C88.8114 145.739 92.7614 145.609 96.7114 145.719C98.2914 145.769 98.8814 145.289 98.6414 143.729C98.5614 143.259 98.5714 142.759 98.6414 142.279C98.8514 140.799 98.2414 140.389 96.7914 140.419C92.9114 140.519 89.0314 140.409 85.1514 140.479C83.8014 140.509 83.2014 140.269 83.2114 138.709C83.2814 128.039 83.2714 117.369 83.2214 106.699C83.2214 105.399 83.5214 104.939 84.9214 104.879C92.1914 104.569 99.4514 104.569 106.731 104.859C108.361 104.919 108.801 105.379 108.791 106.999C108.721 119.119 108.741 131.239 108.771 143.369C108.771 144.119 108.301 145.319 109.341 145.539C110.721 145.839 112.241 145.969 113.611 145.409C114.141 145.189 113.911 144.399 113.911 143.859C113.931 141.499 113.961 139.149 113.901 136.799C113.881 135.739 114.221 135.319 115.321 135.349C117.821 135.409 120.311 135.409 122.801 135.349C123.841 135.329 124.081 135.769 124.071 136.699C124.041 142.589 124.021 148.479 124.081 154.369C124.101 155.679 123.521 155.809 122.461 155.809L122.481 155.829ZM118.871 120.049C122.338 120.049 124.071 121.809 124.071 125.329C124.071 128.642 122.438 130.299 119.171 130.299C115.678 130.299 113.931 128.532 113.931 124.999C113.931 121.692 115.578 120.039 118.871 120.039V120.049ZM113.931 109.919C113.931 106.779 115.511 105.306 118.671 105.499C122.271 105.719 124.071 107.479 124.071 110.779C124.071 113.572 122.661 114.969 119.841 114.969H119.011C115.631 114.969 113.941 113.286 113.941 109.919H113.931ZM139.491 138.959C139.491 141.309 139.541 143.669 139.471 146.019C139.331 150.769 135.861 154.729 131.241 155.679C129.771 155.979 129.301 155.619 129.311 154.079C129.371 146.399 129.341 138.709 129.341 131.029C129.341 123.349 129.391 116.069 129.311 108.599C129.291 106.879 129.831 106.429 131.431 106.709C133.471 107.059 135.541 107.359 137.601 107.499C139.111 107.599 139.551 108.179 139.531 109.679C139.461 119.439 139.501 129.199 139.501 138.969L139.491 138.959ZM139.491 99.869C139.491 102.729 139.491 102.689 137.031 102.349C118.801 99.839 100.491 99.099 82.1014 99.929C72.7514 100.349 63.4514 101.099 54.2014 102.479C52.9714 102.669 52.4714 102.479 52.4714 101.069C52.4714 97.749 52.3814 97.689 55.5714 97.259C73.9514 94.759 92.4014 94.069 110.921 94.949C119.711 95.369 128.451 96.209 137.171 97.359C139.131 97.619 139.931 98.249 139.481 99.869H139.491Z" fill="white"/>
<path d="M97.081 103.709C92.691 103.589 93.601 104.089 93.541 100.259C93.491 96.9485 93.631 93.6285 93.491 90.3185C93.411 88.6085 94.051 88.1085 95.601 88.3185C96.071 88.3885 96.571 88.3785 97.051 88.3185C98.371 88.1485 98.701 88.7485 98.651 89.9785C98.561 91.9785 98.631 93.9785 98.631 95.9785C98.631 97.9785 98.581 99.9785 98.651 101.979C98.691 103.159 98.451 103.739 97.091 103.699L97.081 103.709Z" fill="white"/>
</g>
<defs>
<clipPath id="clip0_4925_32248">
<rect width="192" height="192" fill="white"/>
</clipPath>
</defs>
</svg>
