<svg width="192" height="192" viewBox="0 0 192 192" fill="none" xmlns="http://www.w3.org/2000/svg">
<g clip-path="url(#clip0_4925_32078)">
<path d="M96 192C149.019 192 192 149.019 192 96C192 42.9807 149.019 0 96 0C42.9807 0 0 42.9807 0 96C0 149.019 42.9807 192 96 192Z" fill="url(#paint0_linear_4925_32078)"/>
<path d="M168.501 94.3912C168.441 94.4612 168.451 94.5612 168.421 94.6412C168.181 95.4412 167.451 95.9912 166.621 96.0012C166.401 96.0012 166.141 95.9412 165.971 96.0312C165.791 96.1212 165.781 96.4112 165.681 96.6012C165.361 97.2212 164.991 97.8012 164.541 98.3412C163.161 100.021 161.391 101.001 159.271 101.371C158.811 101.451 158.351 101.481 157.891 101.481C153.891 101.481 149.881 101.481 145.881 101.481C144.181 101.481 142.611 101.021 141.181 100.101C141.041 100.011 141.001 100.011 140.941 100.181C140.681 100.981 139.961 101.481 139.101 101.481C137.401 101.481 135.701 101.481 134.001 101.481C133.821 101.481 133.741 101.541 133.671 101.701C132.331 104.661 130.041 106.401 126.821 106.891C126.321 106.971 125.821 107.021 125.321 106.911C124.361 106.701 123.751 105.821 123.851 104.831C123.941 103.921 124.751 103.191 125.701 103.171C127.071 103.151 128.241 102.671 129.211 101.691C129.251 101.651 129.291 101.611 129.321 101.571C129.331 101.561 129.341 101.541 129.351 101.521C129.311 101.461 129.251 101.491 129.201 101.491C125.411 101.491 121.621 101.491 117.831 101.491C114.911 101.491 112.411 99.3812 111.971 96.5112C111.821 95.4812 111.911 94.4712 112.291 93.5012C113.111 91.4212 114.631 90.2112 116.811 89.7812C117.151 89.7112 117.491 89.6912 117.841 89.6912C120.461 89.6912 123.071 89.6612 125.691 89.6912C128.561 89.7212 130.911 90.8712 132.641 93.1712C133.601 94.4512 134.161 95.9112 134.311 97.5112C134.321 97.6512 134.371 97.6912 134.511 97.6912C135.341 97.6912 136.171 97.6912 137.001 97.6912C137.191 97.6912 137.231 97.6312 137.231 97.4512C137.231 91.7712 137.231 86.0812 137.231 80.4012C137.231 79.5312 137.731 78.8112 138.521 78.5512C139.751 78.1412 141.021 79.0412 141.031 80.3412C141.031 81.2912 141.031 82.2412 141.031 83.2012C141.031 86.4912 141.031 89.7812 141.031 93.0712C141.031 95.4912 143.211 97.6712 145.611 97.6812C146.551 97.6812 147.491 97.6812 148.431 97.6812C151.441 97.6812 154.451 97.6812 157.461 97.6812C158.271 97.6812 159.061 97.6312 159.811 97.2912C160.471 97.0012 161.051 96.5912 161.571 96.0012C161.451 96.0012 161.381 96.0012 161.311 96.0012C157.511 96.0012 153.721 96.0212 149.921 96.0012C147.891 95.9912 146.231 95.1312 145.111 93.4512C142.711 89.8212 144.691 85.4012 148.481 84.4112C148.971 84.2812 149.471 84.2212 149.971 84.2212C152.611 84.2212 155.241 84.2212 157.881 84.2212C161.411 84.2212 164.611 86.3812 165.911 89.6612C166.201 90.3912 166.401 91.1412 166.461 91.9212C166.471 92.0912 166.511 92.1712 166.721 92.1912C167.611 92.2612 168.241 92.8312 168.441 93.6912C168.451 93.7312 168.441 93.7912 168.491 93.8212V94.4012L168.501 94.3912ZM156.111 92.1612C158.231 92.1612 160.351 92.1612 162.471 92.1612C162.641 92.1612 162.691 92.1312 162.661 91.9512C162.311 89.7712 160.261 88.0112 158.041 88.0112C155.331 88.0112 152.631 88.0112 149.921 88.0112C148.801 88.0112 147.871 88.9412 147.871 90.0712C147.871 91.2212 148.781 92.1512 149.921 92.1512C151.981 92.1512 154.051 92.1512 156.111 92.1512V92.1612ZM123.951 97.6812C125.001 97.6812 126.051 97.6812 127.101 97.6812C128.151 97.6812 129.201 97.6812 130.251 97.6812C130.431 97.6812 130.508 97.5945 130.481 97.4212C130.081 95.2312 128.081 93.5412 125.861 93.5312C123.161 93.5212 120.461 93.5312 117.771 93.5312C116.691 93.5312 115.841 94.3412 115.721 95.4712C115.621 96.4412 116.341 97.4112 117.331 97.6312C117.631 97.7012 117.931 97.6812 118.241 97.6812C120.151 97.6812 122.061 97.6812 123.971 97.6812H123.951Z" fill="white"/>
<path d="M154.29 76.7109C154.4 76.7809 154.53 76.7709 154.64 76.8009C155.87 77.1309 156.77 78.3609 156.67 79.5809C156.56 81.0009 155.54 82.0609 154.18 82.1809C152.66 82.3109 151.37 81.2609 151.2 79.7209C151.04 78.2609 152.09 76.9709 153.49 76.7509C153.52 76.7509 153.55 76.7309 153.58 76.7109C153.81 76.7109 154.05 76.7109 154.28 76.7109H154.29Z" fill="white"/>
<path d="M67.9797 101.471C64.5797 101.471 61.1897 101.461 57.7897 101.471C56.5197 101.471 55.3397 101.211 54.2797 100.501C52.7697 99.4906 51.8997 98.0806 51.6697 96.2806C51.6197 95.9406 51.6297 95.5906 51.6297 95.2506C51.6297 91.1006 51.6297 86.9406 51.6297 82.7906C51.6297 81.8006 52.2497 81.0506 53.2197 80.8606C54.2397 80.6706 55.2997 81.4506 55.3997 82.4906C55.4197 82.6506 55.4197 82.8206 55.4197 82.9906C55.4197 86.9806 55.4197 90.9806 55.4197 94.9706C55.4197 95.3406 55.3897 95.7207 55.4697 96.0807C55.6797 97.0007 56.4997 97.6507 57.4497 97.6507C64.4797 97.6507 71.5197 97.6507 78.5497 97.6507C79.2597 97.6507 79.8597 97.8706 80.2697 98.4606C80.6997 99.0806 80.7497 99.7506 80.4097 100.421C80.0697 101.091 79.4897 101.451 78.7397 101.451C75.1497 101.451 71.5597 101.451 67.9697 101.451L67.9797 101.471Z" fill="white"/>
<path d="M99.898 101.471C96.788 101.471 93.668 101.471 90.558 101.471C87.568 101.471 85.078 99.2807 84.708 96.3207C84.658 95.9207 84.618 95.5207 84.718 95.1307C84.968 94.1807 85.838 93.6007 86.838 93.7207C87.738 93.8307 88.438 94.6407 88.458 95.5807C88.478 96.6107 89.148 97.4407 90.138 97.6307C90.428 97.6807 90.728 97.6707 91.028 97.6707C97.148 97.6707 103.258 97.6707 109.378 97.6707C110.008 97.6707 110.568 97.8407 110.978 98.3407C111.488 98.9507 111.598 99.6507 111.258 100.371C110.928 101.081 110.338 101.461 109.548 101.471C106.328 101.471 103.118 101.471 99.898 101.471Z" fill="white"/>
<path d="M35.0194 101.47C31.8294 101.47 28.6394 101.47 25.4494 101.47C24.4494 101.47 23.6994 100.84 23.5194 99.8502C23.3294 98.8202 24.1594 97.7602 25.1994 97.6902C25.3394 97.6902 25.4894 97.6902 25.6294 97.6902C31.7194 97.6902 37.8094 97.6902 43.8994 97.6902C44.2094 97.6902 44.5294 97.6902 44.8294 97.6402C45.8094 97.4402 46.4694 96.6102 46.4894 95.5902C46.5094 94.7002 47.0894 93.9702 47.9494 93.7602C49.1294 93.4702 50.2894 94.3602 50.2694 95.5702C50.2394 97.8802 49.1994 99.6202 47.1894 100.76C46.2394 101.3 45.1994 101.48 44.0994 101.47C41.0694 101.45 38.0394 101.47 35.0094 101.47H35.0194Z" fill="white"/>
<path d="M103.239 94.3719C101.619 94.3619 100.519 93.0719 100.489 91.5919C100.469 90.0719 101.719 88.8319 103.249 88.8419C104.759 88.8419 105.989 90.0819 105.969 91.6119C105.949 93.0719 104.829 94.3619 103.229 94.3719H103.239Z" fill="white"/>
<path d="M96.9379 94.3614C95.2679 94.3514 94.1479 92.9114 94.2179 91.4214C94.2879 89.9414 95.5579 88.7914 97.0979 88.8414C98.5979 88.8914 99.7479 90.1914 99.6879 91.7514C99.6379 93.1814 98.3379 94.4114 96.9279 94.3614H96.9379Z" fill="white"/>
<path d="M65.3398 91.0916C65.3398 89.5816 66.5698 88.3516 68.0798 88.3516C69.5998 88.3516 70.8098 89.5816 70.8298 91.1116C70.8398 92.5216 69.6198 93.9016 68.0798 93.8916C66.5498 93.8916 65.3098 92.5016 65.3498 91.0916H65.3398Z" fill="white"/>
<path d="M64.5308 91.1016C64.5708 92.5116 63.3308 93.9016 61.7908 93.8916C60.3008 93.8816 59.0508 92.6216 59.0508 91.1016C59.0508 89.5816 60.2908 88.3516 61.8008 88.3516C63.3108 88.3516 64.5308 89.5816 64.5308 91.1016Z" fill="white"/>
<path d="M65.0391 88.22C63.5091 88.22 62.2791 87 62.2891 85.48C62.2891 83.97 63.5191 82.75 65.0391 82.75C66.5691 82.75 67.7891 83.97 67.7891 85.49C67.7891 87 66.5591 88.22 65.0491 88.22H65.0391Z" fill="white"/>
<path d="M31.1775 115.291C29.6675 115.291 28.4375 114.061 28.4375 112.551C28.4375 111.041 29.6875 109.791 31.1875 109.801C32.6975 109.801 33.9375 111.051 33.9275 112.561C33.9275 114.061 32.6775 115.291 31.1675 115.291H31.1775Z" fill="white"/>
<path d="M28.1602 109.671C26.6402 109.671 25.4102 108.461 25.4102 106.951C25.4102 105.421 26.6202 104.191 28.1402 104.191C29.6702 104.191 30.8902 105.411 30.8902 106.931C30.8902 108.451 29.6802 109.661 28.1602 109.661V109.671Z" fill="white"/>
<path d="M34.4292 109.671C32.9092 109.671 31.6992 108.461 31.6992 106.941C31.6992 105.411 32.9192 104.191 34.4492 104.201C35.9692 104.201 37.1892 105.431 37.1792 106.961C37.1792 108.471 35.9492 109.681 34.4292 109.681V109.671Z" fill="white"/>
</g>
<defs>
<linearGradient id="paint0_linear_4925_32078" x1="18.1" y1="39.88" x2="173.9" y2="152.12" gradientUnits="userSpaceOnUse">
<stop offset="0.13" stop-color="#FF5E4C"/>
<stop offset="1" stop-color="#F9C727"/>
</linearGradient>
<clipPath id="clip0_4925_32078">
<rect width="192" height="192" fill="white"/>
</clipPath>
</defs>
</svg>
