<svg width="192" height="192" viewBox="0 0 192 192" fill="none" xmlns="http://www.w3.org/2000/svg">
<g clip-path="url(#clip0_4925_32266)">
<path d="M96 192C149.019 192 192 149.019 192 96C192 42.9807 149.019 0 96 0C42.9807 0 0 42.9807 0 96C0 149.019 42.9807 192 96 192Z" fill="white"/>
<g clip-path="url(#clip1_4925_32266)">
<path d="M96.0246 49.4908C125.696 49.3657 143.007 73.5928 143.177 94.877C143.383 121.223 121.951 143 96.3483 142.882C69.6493 142.757 48.9242 122.098 48.9904 95.6863C49.0566 69.8995 69.8773 49.4467 96.0246 49.4834V49.4908Z" fill="#202020"/>
<path d="M131.736 130.949C137.482 124.629 141.308 118.214 144.052 110.121C146.509 118.788 150.74 125.277 156.405 131.045C148.349 128.764 140.499 128.551 131.736 130.949Z" fill="#212121"/>
<path d="M107.84 144.626C104.868 148.201 102.271 151.225 100.453 154.793C98.6877 158.273 97.4149 161.915 96.1347 165.829C93.9276 158.045 90.558 150.96 83.9219 144.604C92.3532 146.222 99.7765 146.546 107.84 144.626Z" fill="#212121"/>
<path d="M131.227 156.183C125.408 150.585 118.985 146.317 110.127 144.14C118.198 141.366 124.643 137.636 130.477 132.56C128.652 140.557 129.329 148.319 131.227 156.191V156.183Z" fill="#212121"/>
<path d="M84.3785 47.453C90.4702 41.1995 94.0384 34.3941 95.7894 26.3086C97.3197 27.5078 97.0622 29.1337 97.4742 30.3771C99.1884 35.5418 101.624 40.2725 105.089 44.4807C105.589 45.0914 106.626 45.6505 106.031 46.6143C105.611 47.2912 104.692 47.041 103.993 46.9307C97.6949 45.9301 91.4192 46.3127 84.3711 47.453H84.3785Z" fill="#212121"/>
<path d="M61.5055 132.479C67.965 138.056 74.3658 141.691 82.569 144.141C73.6521 146.473 67.1999 150.828 61.373 156.493C63.308 148.687 63.8965 141.036 61.5055 132.487V132.479Z" fill="#212121"/>
<path d="M165.652 96.1345C158.015 98.3637 151.106 101.689 144.779 107.994C146.516 100.166 146.744 93.1548 145.618 85.29C151.717 90.7858 158.199 94.1922 165.659 96.1345H165.652Z" fill="#222222"/>
<path d="M80.4272 48.284C73.4673 50.8443 67.4124 54.5744 61.4016 59.7465C63.5205 51.2637 62.9834 43.6122 60.6953 35.8799C66.3897 41.5007 72.7463 45.8267 80.4272 48.284Z" fill="#212121"/>
<path d="M46.9309 107.075C43.5025 104.566 40.6553 102.094 37.271 100.417C33.8646 98.7248 30.3185 97.4594 26.4707 96.216C33.8793 94.053 40.7362 90.9483 46.85 84.8271C45.5551 92.6699 45.5772 99.6297 46.9309 107.083V107.075Z" fill="#222222"/>
<path d="M130.427 36.5791C129.125 43.9583 128.397 51.0506 130.28 58.702C126.727 56.414 123.828 54.4349 120.826 52.6324C117.883 50.874 114.698 49.616 111.232 48.2549C118.501 45.805 124.799 41.8836 130.435 36.5791H130.427Z" fill="#212121"/>
<path d="M144.228 81.1777C141.057 73.9456 137.761 67.7436 132.824 61.5856C141.138 63.6309 148.591 63.035 156.132 60.9971C150.827 66.6768 146.523 72.7906 144.228 81.1777Z" fill="#212121"/>
<path d="M48.1063 111.371C50.7402 118.964 54.404 124.945 59.7968 130.86C51.3802 128.903 43.8465 129.477 35.5918 131.846C38.542 128.226 41.2127 125.578 43.1991 122.377C45.2149 119.14 46.576 115.631 48.0989 111.371H48.1063Z" fill="#212121"/>
<path d="M59.2163 61.9167C53.875 68.1997 50.0419 73.9456 47.9598 81.7295C45.5908 73.5042 41.5297 67.3757 36.2031 61.7695C43.5971 63.138 50.8953 63.9546 59.2163 61.9167Z" fill="#212121"/>
<path d="M138.071 96.723C138.049 119.03 118.449 138.129 95.5758 138.136C72.5847 138.144 53.4193 118.846 53.5003 95.5385C53.5665 75.0857 69.686 54.0369 97.3635 54.2576C120.7 54.4489 138.093 72.4739 138.071 96.723Z" fill="#FEFEFE"/>
<path d="M68.1412 82.3989C68.5973 83.8335 67.7365 84.6354 66.7727 85.4742C61.3211 90.2637 64.801 97.7606 70.5322 101.395C71.7535 102.168 72.2538 100.968 72.9821 100.453C74.9906 99.0334 76.6754 97.0469 79.6036 97.0984C78.2646 98.1579 76.9035 99.1952 75.5792 100.277C73.6664 101.844 73.9165 102.984 76.2414 103.808C79.8022 105.074 83.4587 105.007 87.1373 104.735C88.7264 104.617 90.3009 104.36 91.89 104.294C93.538 104.22 94.6195 103.735 93.8838 101.866C92.9568 99.5116 94.2811 98.9157 96.1939 98.3786C102.367 96.6276 102.83 95.9728 102.139 89.5868C101.704 85.5772 100.895 81.6043 100.483 77.5947C100.248 75.3066 100.262 72.9082 102.425 71.2822C102.69 71.4367 103.066 71.5544 103.073 71.6795C103.286 79.1176 103.544 86.563 103.61 94.0084C103.632 96.8189 101.903 98.7317 99.5488 100.152C98.4526 100.806 97.1504 101.255 96.1792 102.859C98.8057 103.19 101.006 102.565 103.235 102.293C105.611 102.006 109.326 101.344 109.54 104.014C109.768 106.861 106.089 105.486 104.096 105.773C98.2834 106.604 92.4491 107.34 86.6223 108.061C82.6936 108.546 78.7575 108.502 75.0201 107.075C72.7982 106.229 72.7541 107.332 72.9454 108.914C73.5119 113.549 76.44 116.359 80.4202 118.184C88.1084 121.723 96.1792 121.303 104.228 120.001C108.569 119.302 112.814 118.052 117.118 117.088C119.45 116.565 121.76 116.683 123.938 117.735C124.57 118.037 125.439 118.368 125.372 119.229C125.299 120.178 124.46 120.612 123.636 120.906C123.298 121.024 122.878 121.127 122.555 121.039C114.616 118.831 107.392 122.723 99.821 123.687C93.1187 124.541 86.6076 123.974 80.3834 121.274C74.5198 118.728 70.9737 114.314 70.5249 107.825C70.3998 106.037 69.6567 104.875 68.4502 103.757C67.1921 102.594 65.9267 101.424 64.8084 100.13C60.7031 95.3695 60.8944 89.8958 65.2645 85.327C66.1915 84.3632 67.1626 83.4362 68.1117 82.4945L68.1264 82.4136L68.1412 82.3989Z" fill="#212121"/>
<path d="M117.117 91.8607C116.669 93.3984 115.624 93.8177 114.314 94.009C112.578 94.2665 109.687 93.3542 109.385 95.1346C108.995 97.3712 112.004 97.4816 113.704 98.2541C116.904 99.7034 117.551 102.565 114.954 105.339C111.077 109.481 105.751 110.688 100.49 111.902C99.5706 112.115 99.1218 111.593 98.9747 110.769C98.7834 109.702 98.9305 108.812 100.233 108.569C102.396 108.157 104.566 107.767 106.707 107.281C107.884 107.009 109.083 106.671 110.165 106.141C111.68 105.391 113.63 104.508 113.505 102.676C113.387 101.006 111.342 100.579 109.893 99.9683C108.995 99.5857 108.017 99.3503 107.171 98.8794C104.22 97.2388 104.117 93.8913 107.009 92.1403C109.797 90.4481 112.902 90.8013 115.948 91.1912C116.367 91.2427 116.75 91.64 117.117 91.8607Z" fill="#232323"/>
<path d="M84.8848 93.8469C86.7756 91.8973 90.5203 93.0818 91.3738 90.5951C92.1021 88.4688 91.1825 85.7982 91.0868 83.363C90.925 79.3386 90.8956 75.3143 90.7043 71.2899C90.6381 69.9583 90.6675 68.5531 92.1536 68.428C93.5368 68.3103 93.603 69.9215 93.7428 70.9C94.2504 74.5491 93.8752 78.2056 93.5294 81.8548C93.2498 84.7903 93.1395 87.7184 94.3166 90.5068C94.6403 91.2719 95.0744 92.1621 96.1559 91.9488C97.3625 91.7133 97.6126 90.7937 97.4508 89.7122C97.3772 89.234 97.2521 88.7558 97.1491 88.2776C96.9211 87.2328 97.002 86.1366 98.1644 85.8865C99.4813 85.6069 99.6873 86.8135 99.8418 87.7773C100.202 90.0506 99.9228 92.1768 98.1203 93.8396C96.3693 95.4581 94.8758 94.4355 93.1763 93.5306C90.4836 92.0959 87.7393 94.3987 84.8921 93.8322L84.8848 93.8469Z" fill="#252525"/>
<path d="M120.686 82.8184C120.679 90.4845 121.841 97.9961 121.9 105.552C121.944 110.915 115.419 116.669 110.04 116.051C108.996 115.933 107.473 115.97 107.385 114.69C107.274 113.159 108.812 112.806 110.026 112.791C113.101 112.769 115.728 111.842 117.979 109.679C119.671 108.053 120.672 106.31 120.34 103.874C119.715 99.2836 119.053 94.6854 118.678 90.0725C118.472 87.5343 118.207 84.7974 120.686 82.8184Z" fill="#252525"/>
<path d="M126.674 106.442C125.534 105.772 122.966 106.251 124.739 103.573C125.092 103.035 125.254 102.491 124.687 101.961C123.731 101.071 123.429 100.137 124.702 99.2907C125.769 98.577 126.909 98.3269 128.116 99.0553C129.477 99.8719 128.999 100.784 128.337 101.77C127.939 102.366 128.292 102.925 128.594 103.455C129.845 105.64 128.05 105.816 126.681 106.442H126.674Z" fill="#2D2D2D"/>
<path d="M96.4797 111.431C95.0157 113.167 98.7752 116.993 93.9047 116.801C92.3156 116.742 91.6608 115.926 92.4701 114.454C93.3603 112.843 89.8951 109.488 94.4345 109.422C95.6852 109.407 96.7078 110.062 96.4724 111.431H96.4797Z" fill="#2B2B2B"/>
<path d="M68.1191 82.4803C71.6064 80.7735 74.7406 78.1838 79.0519 78.3677C75.8662 80.0157 72.6953 81.6858 69.4876 83.2823C68.7739 83.6354 68.4649 82.907 68.1339 82.4068L68.1191 82.4803Z" fill="#3B3B3B"/>
<path d="M85.2764 71.1865C85.0263 72.6727 83.8933 73.0479 82.6058 72.989C81.6567 72.9449 80.3619 72.7756 80.4869 71.5249C80.6414 70.002 81.9289 69.281 83.393 69.3252C84.4083 69.3546 85.2323 69.9358 85.2838 71.1939L85.2764 71.1865Z" fill="#303030"/>
</g>
</g>
<defs>
<clipPath id="clip0_4925_32266">
<rect width="192" height="192" fill="white"/>
</clipPath>
<clipPath id="clip1_4925_32266">
<rect width="140" height="140" fill="white" transform="translate(26 26)"/>
</clipPath>
</defs>
</svg>
