<svg width="192" height="192" viewBox="0 0 192 192" fill="none" xmlns="http://www.w3.org/2000/svg">
<g clip-path="url(#clip0_4968_32552)">
<path d="M96 192C149.019 192 192 149.019 192 96C192 42.9807 149.019 0 96 0C42.9807 0 0 42.9807 0 96C0 149.019 42.9807 192 96 192Z" fill="white"/>
<path d="M30.4065 131.814C30.0015 131.654 29.5906 131.499 29.1856 131.338C28.8759 130.879 28.8759 130.433 29.2333 129.998C33.003 130.731 36.7728 130.713 40.5425 130.028C40.9534 130.361 41.3048 130.725 41.2988 131.308C40.6199 132.124 39.0656 131.624 38.7559 133C38.1604 133 37.5648 133 36.9693 133C35.8556 132.327 34.611 132.91 33.4497 132.63C32.4551 132.273 31.2998 132.529 30.4065 131.814Z" fill="#231F20"/>
<path d="M30.4043 131.812C31.4584 131.753 32.5065 131.687 33.4594 132.289C33.4237 132.694 33.0187 132.759 32.7984 132.992C32.2028 132.992 31.6073 132.992 31.0117 132.992C30.8093 132.599 30.6068 132.206 30.4043 131.812Z" fill="#5D595A"/>
<path d="M32.7988 132.995C33.0192 132.762 33.2395 132.524 33.4599 132.292C34.5973 132.697 36.0028 131.75 36.9676 132.995C35.574 132.995 34.1864 132.995 32.7988 132.995Z" fill="#9B999A"/>
<path d="M101.285 98.2852C98.2123 98.2852 95.1334 98.19 92.0663 98.321C90.238 98.3984 89.708 97.7016 89.6008 95.9567C89.2435 90.2038 89.184 90.2098 95.0143 90.2098C99.5761 90.2098 104.132 90.2812 108.694 90.1681C110.403 90.1264 112.327 90.2812 113.333 88.2683C114.435 86.0589 113.113 84.3914 111.957 82.8906C110.766 81.3482 109.265 79.9665 107.675 78.8409C105.972 77.638 104.942 76.3814 105.49 74.2017C106.157 71.5397 106.109 68.5084 109.873 67.895C113.869 67.2399 117.71 65.9297 121.486 64.4945C123.255 63.8215 123.886 64.3218 124.386 66.0846C125.762 70.9024 125.845 70.8667 120.896 72.159C119.372 72.5581 117.883 73.1774 116.334 73.3977C113.363 73.8206 114.316 74.827 115.667 76.2742C118.693 79.5318 121.76 82.7536 121.51 87.78C121.266 92.7051 117.508 97.4813 112.571 97.9934C108.849 98.3805 105.055 98.0708 101.291 98.0708C101.285 98.1363 101.285 98.2078 101.285 98.2852Z" fill="#034EA1"/>
<path d="M159.548 94.6517C155.558 98.4095 150.728 100.964 146.226 103.99C145.029 104.794 144.356 105.008 143.623 103.412C142.861 101.75 141.694 100.274 140.693 98.7013C143.868 96.6884 147.042 94.7231 150.145 92.6566C150.8 92.2219 152.11 92.0908 151.824 90.9117C151.58 89.9231 150.49 90.3578 149.763 90.203C144.535 89.0655 141.08 84.7241 141.152 79.3523C141.217 74.2664 144.487 70.3359 149.436 69.3711C151.026 69.8058 152.616 69.258 154.2 69.389C156.85 69.6034 158.804 70.9493 159.995 73.2481C162.728 78.5126 164.426 83.9141 161.394 89.6849C159.703 90.9415 160.954 93.2938 159.548 94.6517Z" fill="#01B08D"/>
<path d="M45.2183 94.8111C41.0912 98.3247 36.4877 101.142 31.908 104.012C30.6753 104.786 30.1869 104.703 29.3949 103.524C26.2683 98.8488 26.2981 98.6225 31.0504 95.746C33.2301 94.4239 35.3443 93.0006 37.4703 91.5892C37.6728 91.4582 37.7085 91.0889 37.9587 90.5291C36.2733 90.2314 34.6773 89.9753 33.1706 89.3142C25.101 85.7768 25.5179 75.8313 30.5621 71.3826C34.1711 68.2025 43.3066 67.6486 45.8138 73.4849C46.3498 74.7355 47.0882 75.9028 47.7314 77.1117C47.8744 78.2909 48.5056 79.3628 48.5056 80.5718C48.1483 82.0547 48.1483 83.5435 48.5235 85.0264C48.458 85.7529 48.857 86.5629 48.1662 87.1882C47.8327 88.2363 47.4932 89.2845 47.1597 90.3326C45.2302 91.2736 46.7488 93.6974 45.2183 94.8111Z" fill="#0098B5"/>
<path d="M45.2232 94.809C45.7116 93.2486 44.1334 90.795 47.1647 90.3305C50.2377 91.2 52.5662 90.3126 53.4714 87.4124C54.6804 83.5176 57.1816 81.0282 60.7787 79.4262C62.9762 78.3066 65.1559 78.4555 67.3236 79.5275C70.0512 80.6173 72.3261 82.255 73.7792 84.8813C78.0254 90.5151 73.6661 100.181 67.3594 101.509C63.0238 103.111 59.3315 101.687 56.4551 98.5549C54.8173 96.7742 53.4833 96.3633 51.4466 97.4055C50.863 97.7092 50.1186 97.6973 49.4456 97.8462C46.8908 98.4119 44.985 98.0963 45.2232 94.809Z" fill="#4EAE49"/>
<path d="M159.555 94.6549C159.555 93.4936 159.59 92.3263 159.537 91.165C159.471 89.7536 160.311 89.5809 161.407 89.6821C164.569 90.897 167.845 90.4504 171.007 89.9739C173.187 89.6464 173.717 86.6449 172.341 84.2568C170.727 81.4459 168.148 79.5461 165.838 77.4141C163.932 75.6572 164.73 69.815 167.183 68.9932C171.674 67.4865 176.236 66.1882 180.762 64.7768C182.465 64.2467 183.043 65.4438 183.108 66.5932C183.192 67.9867 185.228 69.8746 182.465 70.7977C179.94 71.6433 177.379 72.3639 174.83 73.1262C172.198 73.9123 172.097 74.3887 174.056 76.4255C176.438 78.9089 179.053 81.2434 179.702 84.8821C179.344 86.633 179.434 88.3898 179.654 90.1526C178.189 94.8097 174.175 98.0137 169.399 97.8886C166.356 97.8112 163.217 98.7522 160.257 97.3288C163.586 96.6559 166.915 97.2514 169.893 97.0251C168.011 97.0251 165.766 97.0191 163.521 97.0311C162.336 97.037 161.145 97.1085 160.222 96.1497C159.995 95.6494 159.775 95.1492 159.555 94.6549Z" fill="#8757A4"/>
<path d="M130.495 75.4229C133.824 77.4775 136.474 80.2944 138.529 83.5103C142.46 89.6741 138.243 97.5947 130.978 98.0413C130.483 98.0711 129.989 98.0711 129.495 98.0771C123.242 98.1485 123.265 98.1307 123.766 91.9847C123.867 90.7162 124.272 90.2041 125.528 90.2577C126.714 90.3113 127.905 90.2934 129.09 90.2398C130.269 90.1922 131.639 90.2517 132.133 88.9237C132.603 87.6611 132.276 86.3688 131.347 85.3266C130.894 84.8145 130.376 84.344 129.84 83.9271C125.832 80.7946 125.826 80.8006 129.221 77.1082C129.828 76.6854 129.894 75.8576 130.495 75.4229Z" fill="#EC313C"/>
<path d="M66.6694 67.0051C68.2 64.8671 69.2957 62.3004 71.6064 60.877C73.6908 59.5847 76.0253 58.739 78.598 59.1916C80.7003 60.2696 83.005 59.811 85.1727 59.7872C87.942 59.7515 90.7887 60.2517 93.5043 59.2393C95.017 61.4666 94.0284 63.9262 94.076 66.2726C94.0939 67.2493 93.0993 66.8681 92.4383 66.8741C88.0075 66.9217 83.5767 67.0111 79.1459 67.0706C77.9132 67.0885 76.6983 67.291 75.9598 68.3212C74.1553 70.8344 72.0531 70.7451 69.6531 69.3039C69.1647 69.0061 68.5394 68.9287 67.9796 68.75C67.3186 68.3272 65.9369 68.4582 66.6694 67.0051Z" fill="#F37D23"/>
<path d="M79.9023 70.6067C81.8438 69.2072 84.0115 70.2196 86.0661 70.0647C87.0785 69.9873 86.882 70.97 86.882 71.6191C86.888 79.8137 86.8642 88.0083 86.8999 96.2029C86.9059 97.7155 86.3163 98.5731 84.8215 98.2336C83.1897 97.8644 81.1708 99.4485 79.9023 97.2867C80.2597 88.3954 80.2656 79.498 79.9023 70.6067Z" fill="#F37D23"/>
<path d="M25.0439 91.3787C24.4364 94.9698 21.8637 97.0899 19.2136 99.1445C17.9808 100.103 16.7004 100.997 15.4438 101.92C14.4016 102.456 13.4905 103.194 12.5197 103.843C9.19665 104.272 9.6433 101.032 8.40458 99.484C7.37431 98.1917 9.16687 97.9952 9.78622 97.4711C12.6627 95.0175 16.5634 93.7966 18.4692 90.1877C19.029 89.1991 18.9992 88.2045 18.487 87.21C18.3739 87.0492 18.2488 86.9003 18.1595 86.7276C17.4984 85.4531 15.8964 83.875 16.6468 82.8745C17.7426 81.4214 19.7793 80.6531 21.4528 79.6586C22.1198 79.2655 22.5545 79.8015 22.8166 80.3494C23.692 82.1837 24.9129 83.8869 24.9307 86.0427C24.6032 87.8234 24.5972 89.604 25.0439 91.3787Z" fill="#7E469B"/>
<path d="M19.6399 76.472C15.8999 79.1281 14.6612 79.2591 12.3684 77.2462C10.0339 75.1976 9.57535 72.9167 11.0582 70.743C12.8984 68.0452 15.0186 67.4556 17.9069 68.9028C18.5084 69.2065 19.0265 69.6889 19.5804 70.0879C20.9561 72.202 21.0097 74.3281 19.6399 76.472Z" fill="#80489C"/>
<path d="M131.518 118.082C132.018 115.873 132.572 113.675 132.989 111.454C133.268 109.965 134.346 109.84 135.43 109.935C136.544 110.037 137.145 110.817 137.145 111.984C137.139 115.146 137.151 118.309 137.122 121.471C137.116 122.162 137.02 122.984 136.115 123.013C134.799 123.055 135.216 121.929 135.198 121.268C135.127 119.041 135.174 116.808 135.174 114.176C133.036 115.343 133.834 117.463 132.762 118.606C132.869 117.32 132.244 118.094 131.833 118.279C131.726 118.219 131.625 118.154 131.518 118.082Z" fill="#383435"/>
<path d="M70.9297 117.023C71.025 114.754 72.0314 112.836 73.2285 110.984C74.1515 111.413 75.289 111.354 76.0453 112.175C76.8255 114.319 78.493 116.261 77.5937 118.798C77.3555 119.018 77.0756 119.167 76.76 119.239C75.5153 119.322 74.2766 119.417 73.0438 119.161C71.4478 118.03 72.5436 116.702 72.6567 115.552C72.1922 116.005 72.091 117.13 70.9297 117.023Z" fill="#E6E6E6"/>
<path d="M64.9778 119.325C64.0309 122.643 57.9743 125.025 55.3659 123.048C54.9668 122.744 54.6869 122.041 54.675 121.511C54.6036 118.081 54.5976 114.651 54.6393 111.214C54.6453 110.934 55.1217 110.66 55.3837 110.381C55.6874 110.124 55.9614 110.154 56.1996 110.476C56.2413 110.631 56.2889 110.791 56.3366 110.946C56.3366 111.107 56.3306 111.268 56.3366 111.429C56.2175 114.668 56.009 117.908 56.4676 121.142C56.5272 121.326 56.5867 121.511 56.6344 121.702C56.9023 122.75 57.8195 122.512 58.5401 122.66C58.022 122.375 56.8845 122.887 57.1644 121.589C58.9569 120.624 61.1426 120.749 62.8458 119.534C63.5307 119.26 64.2155 118.891 64.9778 119.325Z" fill="#2D292A"/>
<path d="M160.804 120.576C160.679 121.785 161.513 121.713 162.317 121.713C164.181 121.713 166.045 121.713 167.909 121.749C168.356 121.761 168.987 121.731 168.963 122.428C168.945 122.993 168.481 123.25 167.945 123.256C165.199 123.273 162.436 123.47 159.714 123.208C157.981 123.041 157.195 121.969 158.982 120.516C159.595 120.343 160.244 119.105 160.804 120.576Z" fill="#191616"/>
<path d="M25.0823 117.582C25.0109 117.76 24.9335 117.939 24.862 118.124C23.8317 118.951 24.2129 120.113 24.1652 121.155C24.0997 122.501 23.5697 122.983 22.2952 122.28C21.932 118.534 22.0451 114.783 22.2297 111.031C22.998 110.542 24.0699 110.441 24.0104 111.465C23.8734 113.639 24.8084 115.533 25.0823 117.582Z" fill="#1D191A"/>
<path d="M79.9023 70.6055C80.0691 71.0521 80.3847 71.4988 80.3907 71.9395C80.4204 79.9435 80.4204 87.9475 80.3907 95.9515C80.3907 96.3982 80.075 96.8389 79.9083 97.2855C79.9023 88.3941 79.9023 79.4968 79.9023 70.6055Z" fill="#F26F05"/>
<path d="M38.0592 112.193C38.2855 111.954 38.5118 111.722 38.7322 111.484C39.6195 110.483 40.8344 110.281 42.0672 110.114C43.3 110.257 44.5804 109.787 45.7774 110.412C46.1526 110.751 46.5635 110.972 47.0935 110.781C47.9332 110.847 48.3918 111.323 48.5466 112.133C48.4275 112.848 48.2727 113.544 47.7188 114.068C47.6236 114.08 47.4866 114.134 47.433 114.092C44.6101 111.758 42.0017 111.996 39.5898 114.718C38.7262 114.432 38.4761 113.586 37.9937 112.955C37.8925 112.693 37.9223 112.437 38.0592 112.193Z" fill="#2F2B2C"/>
<path d="M38.2219 112.787C39.4249 112.876 39.3237 113.782 39.3534 114.604C40.3718 116.736 40.747 119.022 40.9554 121.351C40.7827 121.839 40.4552 122.161 39.943 122.28C38.6686 122.381 38.8413 120.964 38.0849 120.517C37.7336 119.785 37.0963 119.147 37.3167 118.224C37.6442 117.129 37.4179 116.045 37.281 114.949C37.2452 114.068 37.1857 113.192 38.2219 112.787Z" fill="#2D2A2A"/>
<path d="M67.3496 101.509C73.6683 98.3708 77.0985 92.6536 73.7695 84.8818C76.8842 87.8297 76.1576 91.4744 74.9248 94.7142C73.6563 98.0492 71.7923 101.39 67.3496 101.509Z" fill="#D6ECD5"/>
<path d="M108.358 120.505C108.727 119.689 109.09 118.867 109.459 118.051C109.573 118.081 109.686 118.105 109.799 118.129C110.311 118.427 110.853 118.593 111.454 118.439C111.842 118.325 112.223 118.206 112.616 118.123C113.849 117.926 115.063 117.915 116.26 118.319C117.571 119.106 119.03 119.832 117.874 121.768C115.468 118.957 111.377 119.284 109.632 122.447C109.37 122.923 109.072 123.233 108.56 123.352C107.524 122.47 108.018 121.482 108.358 120.505Z" fill="#373434"/>
<path d="M77.3442 118.566C77.0643 116.356 76.2901 114.296 75.498 112.241C75.9209 111.872 76.3497 111.83 76.7963 112.199C77.237 113.111 77.6837 114.022 78.1244 114.933C78.702 116.183 78.9819 117.553 79.7204 118.732C80.0241 119.602 80.2802 120.495 80.6554 121.341C80.8996 121.901 81.7155 122.466 80.5899 122.859C79.8038 123.127 79.0236 123.068 79.1547 121.865C79.2738 120.364 77.5467 119.882 77.3442 118.566Z" fill="#2F2B2C"/>
<path d="M25.0831 117.584C24.0588 116.119 23.6657 114.511 23.8861 112.73C24.0349 111.509 23.4811 110.92 22.2305 111.033C23.225 109.371 24.1779 109.443 24.5828 111.307C24.8627 112.593 24.6364 113.987 24.6364 115.208C25.8513 115.922 26.0776 114.463 26.8757 114.672C27.37 115.416 28.031 115.315 28.7278 115.029C29.3352 116.047 29.9427 117.072 30.5501 118.09C29.5496 118.704 28.9183 117.661 28.0846 117.542C27.0603 116.238 26.0776 117.471 25.0831 117.584Z" fill="#454142"/>
<path d="M93.506 59.2311C93.4226 59.5051 93.3512 60.0173 93.2559 60.0232C88.6047 60.2495 83.9476 60.4282 79.2965 60.0709C79.0404 60.053 78.826 59.4932 78.5938 59.1895C83.5665 58.9751 88.5392 58.8857 93.506 59.2311Z" fill="#F2791C"/>
<path d="M125.644 110.44C128.509 109.534 127.853 112.149 128.592 113.376C126.49 113.4 125.704 114.323 125.864 116.526C126.019 118.628 126.245 120.802 125.65 122.91C125.465 123.44 125.251 123.375 125.031 122.934C124.417 119.254 124.911 115.543 124.775 111.851C124.751 111.202 125.084 110.743 125.644 110.44Z" fill="#1F1B1C"/>
<path d="M87.5175 122.793C86.9101 123.27 86.2192 124.026 86.2966 122.394C85.9393 118.577 85.9215 114.759 86.3086 110.948V110.954C87.3329 110.454 87.7617 110.912 87.8272 111.907C87.9046 113.169 87.7736 114.444 87.9165 115.7C88.113 116.82 87.7557 117.934 87.8391 119.053C87.6842 120.298 88.1964 121.596 87.5175 122.793Z" fill="#0D0809"/>
<path d="M143.852 111.476C146.585 109.028 149.33 109.082 152.261 111.637C151.778 112.262 151.075 112.465 150.349 112.608C148.479 112.31 146.585 112.631 144.709 112.477C144.28 112.268 144.024 111.911 143.852 111.476Z" fill="#504C4D"/>
<path d="M150.602 112.247C150.953 111.497 151.65 111.699 152.258 111.646C153.473 114.069 155.229 116.398 153.544 119.31C151.96 120.001 151.96 118.703 151.74 117.815C151.454 116.672 151.841 115.433 151.275 114.319C150.953 113.652 150.37 113.075 150.602 112.247Z" fill="#1C1819"/>
<path d="M39.9514 122.275C40.2015 122.055 40.4516 121.834 40.7017 121.608C41.4104 120.911 42.3395 121.006 43.209 120.893C45.0432 121.001 46.139 119.16 47.9077 119.089C48.3187 119.309 48.676 119.559 48.3544 120.101C48.1817 121.56 46.9251 122.126 45.9901 122.954C43.8938 123.448 41.8749 123.264 39.9395 122.293L39.9514 122.275Z" fill="#1A1617"/>
<path d="M70.9293 117.022C71.9536 115.777 72.0132 113.973 73.4961 112.621C74.4072 114.908 72.442 116.593 72.7635 118.517C72.9005 118.666 72.966 118.827 72.9601 118.999C72.9541 119.178 72.9363 119.267 72.9005 119.267C72.3348 119.666 71.7392 119.988 71.0484 120.131C70.6137 120.006 70.3278 119.732 70.2266 119.285C70.4529 118.535 70.6911 117.778 70.9293 117.022Z" fill="#353132"/>
<path d="M28.0762 117.541C29.1362 116.653 29.6901 118.035 30.5417 118.089C31.0836 118.94 31.6315 119.792 32.1735 120.649C32.1556 121.471 34.103 122.859 31.5124 122.936C30.369 121.138 29.2256 119.339 28.0762 117.541Z" fill="#2B2728"/>
<path d="M164.915 111.515C162.926 111.443 160.872 112.08 158.972 110.973C158.889 110.318 159.288 110.139 159.83 110.133C161.968 110.097 164.111 110.05 166.249 110.145C167.631 110.204 168.673 110.675 167.506 112.313C167.232 112.664 166.964 113.015 166.69 113.373C165.821 113.605 165.833 113.009 165.797 112.438C165.767 111.896 165.815 111.247 164.915 111.515Z" fill="#181314"/>
<path d="M89.3112 115.73C90.1271 114.95 90.9489 114.17 91.7648 113.39C92.7772 113.431 92.676 113.985 92.3484 114.646C92.4437 115.879 93.0333 116.933 93.5693 118.005C93.9087 118.755 93.4919 119.131 92.8785 119.411C92.003 118.499 91.61 116.993 89.9603 117.028C89.4482 116.743 89.2993 116.278 89.3112 115.73Z" fill="#211D1E"/>
<path d="M48.3577 120.107C48.0838 119.827 47.8039 119.547 47.5299 119.267C47.4823 119.142 47.4346 119.023 47.387 118.904C47.387 118.773 47.3929 118.642 47.387 118.511C47.649 117.236 47.6073 115.968 47.387 114.687C47.381 114.414 47.4763 114.181 47.6669 113.991C47.7443 113.312 47.5895 112.544 48.3875 112.145C49.2927 112.145 49.1081 112.812 49.1259 113.353C49.2331 113.58 49.3344 113.806 49.4416 114.026C49.9359 115.789 49.9061 117.552 49.4594 119.315C49.0902 119.577 48.721 119.845 48.3577 120.107Z" fill="#231F20"/>
<path d="M167.509 112.319C167.652 111.598 167.98 110.466 167.045 110.449C164.353 110.395 161.566 109.436 158.975 110.979C158.725 109.972 158.719 109.799 159.243 109.788C162.013 109.716 164.782 109.674 167.551 109.764C168.438 109.793 168.885 110.669 168.861 111.497C168.837 112.223 168.48 112.884 167.509 112.319Z" fill="#ABAAAA"/>
<path d="M150.061 122.948C148.28 123.716 146.512 123.484 144.749 122.864C144.201 122.567 143.707 122.215 143.582 121.542C143.48 120.911 143.564 120.327 144.01 119.833C145.91 120.012 147.56 121.036 149.376 121.471C149.519 121.62 149.579 121.78 149.567 121.953C149.555 122.132 149.525 122.221 149.489 122.221C148.697 122.84 147.78 122.495 147.524 122.507C147.774 122.441 148.691 122.864 149.495 122.269C150.001 122.245 150.305 122.364 150.061 122.948Z" fill="#3E3A3B"/>
<path d="M125.646 122.909C125.628 120.462 125.747 118.008 125.563 115.572C125.366 112.988 126.402 112.488 128.588 113.375C128.624 113.56 128.665 113.744 128.701 113.935C128.57 114.596 128.689 115.34 128.004 115.793C127.302 115.459 127.796 113.947 126.676 114.209C125.837 114.405 126.277 115.388 126.188 116.031C125.89 118.312 126.837 120.694 125.646 122.909Z" fill="#2F2B2C"/>
<path d="M111.929 111.591C112.465 110.876 112.631 109.673 113.947 109.965C115.043 110.203 115.424 111.06 115.579 112.061C115.853 112.74 115.99 113.413 115.472 114.044C114.269 114.264 113.596 113.085 112.53 112.925C112.06 112.603 111.655 112.246 111.929 111.591Z" fill="#1C1819"/>
<path d="M117.876 121.767C118.335 120.07 116.763 119.54 116.012 118.533C115.756 118.182 115.762 117.807 115.929 117.42C116.28 116.985 116.679 116.675 117.275 116.949C118.067 118.551 118.859 120.153 119.657 121.755C119.46 123.161 118.918 123.47 117.924 122.291C117.811 122.124 117.793 121.952 117.876 121.767Z" fill="#2B2728"/>
<path d="M143.851 111.478C144.137 111.734 144.423 111.996 144.714 112.252C145.441 114.455 144.577 116.343 143.559 118.207C141.165 117.492 142.797 115.408 142.16 114.098C142.058 113.776 142.082 113.461 142.225 113.157C142.451 112.282 143.16 111.888 143.851 111.478Z" fill="#454242"/>
<path d="M63.851 112.134C64.244 112.687 64.6371 113.235 65.0301 113.789C65.6554 115.171 66.2807 116.552 65.5244 118.089C65.3458 118.303 65.1611 118.518 64.9825 118.732C63.6366 118.905 63.708 117.72 63.2971 116.987C63.0827 116.261 63.0232 115.516 62.9934 114.766C63.0291 113.89 62.7075 113.003 63.0648 112.14C63.315 111.955 63.583 111.949 63.851 112.134Z" fill="#221E1F"/>
<path d="M70.911 119.926C71.4886 119.712 72.0722 119.497 72.6499 119.283C73.9839 118.61 75.5026 119.468 76.8306 118.765C76.9854 118.658 77.1581 118.592 77.3487 118.568C78.4445 119.396 79.7249 120.117 79.1532 121.856C77.3011 119.247 72.9239 119.253 70.9705 121.856C70.3452 121.23 70.3512 120.587 70.911 119.926Z" fill="#3E3B3C"/>
<path d="M151.676 113.46C153.117 114.347 152.272 115.777 152.492 116.95C152.659 117.825 152.01 119.04 153.54 119.302C153.725 120.35 153.409 121.154 152.385 121.595C151.551 121.357 150.956 120.892 150.807 119.987C151.134 117.819 150.551 115.526 151.676 113.46Z" fill="#484545"/>
<path d="M125.641 110.442C124.355 114.551 125.385 118.78 125.028 122.937C123.682 118.935 124.42 114.855 124.665 110.806C124.683 110.418 125.219 110.317 125.641 110.442Z" fill="#2F2B2C"/>
<path d="M129.784 118.202C130.38 118.422 130.975 118.613 131.517 118.083L131.773 118.226C131.958 118.631 131.893 119.018 131.726 119.411C130.838 120.328 129.981 121.251 131.577 122.299C130.41 123.616 129.981 123.663 129.415 122.329C128.933 121.204 128.552 120.001 128.694 118.72C128.98 118.375 129.415 118.357 129.784 118.202Z" fill="#3C3839"/>
<path d="M63.8513 112.13C63.6191 112.148 63.3868 112.166 63.1486 112.19C62.9759 112.392 62.7556 112.529 62.4935 112.6C61.9278 112.636 61.4632 112.481 61.2072 111.928C61.4752 110.701 60.427 111.642 60.1531 111.296C58.7952 111.01 57.3004 111.481 56.0617 110.558C55.8354 110.498 55.6091 110.445 55.3828 110.385C59.1109 109.146 62.4757 109.837 63.8513 112.13Z" fill="#4A4747"/>
<path d="M160.223 96.1426C163.647 97.3217 167.22 96.3808 170.71 97.3277C167.226 97.3277 163.742 97.3277 160.258 97.3277C160.241 96.9287 160.235 96.5356 160.223 96.1426Z" fill="#8353A1"/>
<path d="M27.5195 113.984C28.2163 112.584 29.2942 111.596 30.6699 110.863C31.1761 110.589 31.7061 110.006 32.1647 110.554C32.8377 111.352 31.6228 111.572 31.4501 112.144C30.5985 113.037 29.5086 113.686 28.8059 114.728L28.7523 114.663C28.0555 114.949 27.7458 114.544 27.5195 113.984Z" fill="#221E1F"/>
<path d="M86.306 110.946C86.6336 114.764 86.6574 118.581 86.2941 122.393C85.7343 118.575 85.645 114.764 86.306 110.946Z" fill="#444142"/>
<path d="M111.982 118.647C111.744 118.85 111.506 119.052 111.261 119.261C110.749 118.915 110.219 118.588 109.725 118.225C109.642 118.165 109.552 118.105 109.463 118.058C109.91 116.73 110.362 115.396 110.809 114.068C110.976 113.812 111.196 113.758 111.464 113.901C111.934 114.407 112.101 115.05 112.292 115.688C112.417 116.688 112.375 117.689 111.982 118.647Z" fill="#343031"/>
<path d="M161.296 117.425C162.082 116.615 162.874 115.805 163.66 114.995C164.077 115.12 164.357 115.388 164.476 115.817C163.952 117.228 163.082 118.39 161.891 119.313C159.229 119.462 161.474 118.056 161.296 117.425Z" fill="#343031"/>
<path d="M131.584 122.29C130.446 122.862 130.018 122.326 129.863 121.248C129.672 119.908 130.178 119.229 131.572 119.301C131.786 119.027 131.995 119.033 132.191 119.319C132.775 120.474 131.56 121.254 131.584 122.29Z" fill="#161112"/>
<path d="M38.2205 112.788C37.9525 113.568 37.2379 114.229 37.5833 115.176C37.9764 116.159 37.9883 117.147 37.5774 118.13C37.7501 118.928 37.9168 119.72 38.0895 120.518C36.154 118.124 36.1421 114.694 38.0538 112.198C38.1133 112.389 38.1669 112.585 38.2205 112.788Z" fill="#EDEDEE"/>
<path d="M89.3098 115.73C89.8279 116.01 89.9113 116.511 89.953 117.023C89.3694 117.594 88.7798 118.172 88.1962 118.744C87.952 119.065 87.7197 119.065 87.4815 118.738C86.7847 117.898 86.6716 117.094 87.6185 116.356C88.0115 115.724 88.9406 116.397 89.2919 115.671L89.3098 115.73Z" fill="#333031"/>
<path d="M164.478 115.819C164.204 115.545 163.936 115.271 163.662 114.997C163.769 113.723 165.973 113.21 164.919 111.519C167.152 110.572 165.52 113.312 166.693 113.377C166.253 114.455 165.496 115.253 164.478 115.819Z" fill="#353132"/>
<path d="M48.185 80.7064C48.0362 79.5094 47.8873 78.3124 47.7324 77.1094C49.3582 80.4027 49.4476 83.7615 48.1672 87.1858C48.1791 86.3997 48.185 85.6077 48.1969 84.8216C47.8515 83.4518 47.8754 82.0761 48.185 80.7064Z" fill="#CCEBED"/>
<path d="M92.8711 119.41C93.1034 118.94 93.3356 118.475 93.562 118.005C93.7704 118.011 93.9371 118.094 94.0682 118.261C94.9317 119.035 95.3783 120.113 96.0334 121.036C97.0697 121.56 96.3907 122.263 96.1942 122.888C95.9679 123.621 95.5987 123.329 95.2533 122.954C94.5505 121.906 93.9133 120.81 93.0319 119.893C92.8533 119.774 92.7937 119.619 92.8711 119.41Z" fill="#292526"/>
<path d="M142.223 113.152C142.27 113.468 142.312 113.784 142.36 114.099C142.61 116.172 142.789 118.262 143.128 120.323C142.92 120.644 142.634 120.728 142.282 120.579C141.359 118.113 140.817 115.642 142.223 113.152Z" fill="#484546"/>
<path d="M129.783 118.203C129.42 118.375 129.062 118.548 128.699 118.715C127.818 117.893 128.038 116.815 128.002 115.791C128.092 115.118 127.919 114.344 128.699 113.933C130.176 115.076 128.699 116.964 129.783 118.203Z" fill="#242121"/>
<path d="M89.2957 115.669C88.9861 116.508 88.2476 116.3 87.6163 116.353C87.5627 115.097 87.4734 113.84 87.4555 112.578C87.4436 111.744 87.39 111 86.3002 110.952C86.2228 110.392 86.4014 109.969 87.0148 109.993C87.7295 110.023 87.9796 110.612 88.0213 111.196C88.0927 112.25 88.0808 113.316 88.057 114.376C88.0391 115.246 88.1225 115.954 89.2957 115.669Z" fill="#444142"/>
<path d="M92.3454 114.644C92.1488 114.227 91.9582 113.805 91.7617 113.388C91.8749 112.411 92.8099 112.125 93.3578 111.518C94.1796 111.131 94.4833 109.564 95.8531 110.416C95.4422 112.453 93.1493 112.929 92.3454 114.644Z" fill="#292526"/>
<path d="M41.2876 131.309C40.7635 131.047 40.5491 130.594 40.5312 130.029C40.8886 129.802 41.2459 129.582 41.6092 129.356C42.431 128.963 43.3184 129.225 44.17 129.1C44.4677 129.153 44.7 129.308 44.8549 129.564C44.831 130.064 44.5333 130.344 44.0866 130.499C43.1516 130.773 42.2226 131.041 41.2876 131.309Z" fill="#161213"/>
<path d="M19.6397 76.472C20.408 74.3341 20.4556 72.208 19.5742 70.0879C21.5276 72.4045 21.5454 74.4055 19.6397 76.472Z" fill="#C5ACD2"/>
<path d="M67.3106 79.5284C65.1309 79.1592 62.9512 78.9508 60.7656 79.4272C62.9751 77.8133 65.1607 77.6704 67.3106 79.5284Z" fill="#E4F3E5"/>
<path d="M76.7919 112.2C76.3571 112.212 75.9283 112.229 75.4936 112.241C74.3621 112.503 73.5045 112.259 73.2246 110.991C74.9219 109.883 76.3393 109.621 76.7919 112.2Z" fill="#454243"/>
<path d="M154.208 69.3912C152.618 70.2965 151.027 70.3143 149.443 69.3734C151.027 68.9208 152.618 68.5694 154.208 69.3912Z" fill="#00AD87"/>
<path d="M70.9124 119.928C70.9303 120.571 70.9482 121.215 70.966 121.858C70.5849 122.447 70.1204 123.18 69.37 122.829C68.6434 122.489 69.1258 121.84 69.4474 121.358C69.8702 120.732 69.2092 119.702 70.2156 119.291C70.4539 119.505 70.6802 119.714 70.9124 119.928Z" fill="#1D191A"/>
<path d="M22.2891 122.281C23.6112 122.37 23.8791 121.614 23.8732 120.476C23.8732 119.601 23.4444 118.446 24.8558 118.124C24.3675 119.256 24.5819 120.453 24.4985 121.62C24.3556 123.68 23.5516 123.817 22.2891 122.281Z" fill="#282525"/>
<path d="M22.5921 128.908C21.4308 129.152 20.7399 128.396 20.9186 127.508C21.133 126.466 22.1633 126.966 22.8362 127.21C23.4556 127.437 24.0154 127.83 24.599 128.145C24.1405 128.949 23.3424 128.86 22.5921 128.908Z" fill="#494546"/>
<path d="M29.2252 129.998C29.2073 130.445 29.1954 130.891 29.1776 131.338C28.7964 131.29 28.4153 131.237 28.0341 131.189C27.0277 130.766 26.0272 130.308 24.9254 130.183L25.0505 130.093L24.9135 130.165C24.7825 129.909 24.717 129.629 24.7051 129.343C24.7706 129.057 24.9254 128.831 25.1696 128.664C26.0748 129.021 27.0932 128.986 27.9627 129.456C28.3855 129.635 28.8083 129.813 29.2252 129.998Z" fill="#221F20"/>
<path d="M27.5172 113.983C27.9281 114.21 28.3391 114.436 28.75 114.662C28.8095 114.787 28.7976 114.906 28.7202 115.026C28.5296 115.824 28.1902 116.449 27.2075 116.229C25.9926 115.961 27.1063 115.163 26.8681 114.668C27.0825 114.442 27.3028 114.21 27.5172 113.983Z" fill="#191415"/>
<path d="M161.299 117.427C161.686 117.998 160.334 119.118 161.895 119.315C161.871 120.029 161.24 120.22 160.805 120.577C160.221 119.749 159.584 120.786 158.982 120.518C159.751 119.487 160.525 118.457 161.299 117.427Z" fill="#4C4849"/>
<path d="M151.089 120.433C151.673 120.654 152.125 121.011 152.387 121.589C151.613 122.041 150.839 122.494 150.065 122.941C149.862 122.72 149.654 122.506 149.451 122.286C149.451 122.089 149.451 121.887 149.451 121.69C149.677 120.868 150.166 120.368 151.089 120.433Z" fill="#282425"/>
<path d="M39.9434 122.302C41.9622 122.522 43.9751 122.742 45.994 122.963C43.8739 123.648 41.8133 123.85 39.9434 122.302Z" fill="#37404A"/>
<path d="M25.0457 91.378C24.3192 89.6152 23.8666 87.8405 24.9326 86.042C25.3256 87.8107 25.4745 89.5854 25.0457 91.378Z" fill="#793E97"/>
<path d="M44.7223 128.374C45.2762 128.106 45.836 127.844 46.3898 127.576C46.8484 127.332 47.3784 127.267 47.6405 127.719C47.9084 128.19 47.4737 128.577 47.1223 128.898L47.0926 128.851C46.3124 129.149 45.705 130.161 44.6747 129.428L44.6985 129.452C44.3293 129.083 44.365 128.726 44.7223 128.374Z" fill="#211D1E"/>
<path d="M47.1251 128.898C47.4705 128.129 47.4765 127.552 46.3926 127.576C47.2382 126.658 48.1911 126.742 49.269 127.248C48.8402 128.243 48.2507 128.915 47.1251 128.898Z" fill="#626061"/>
<path d="M179.642 90.1436C178.97 88.3808 178.904 86.6239 179.69 84.873C180.065 86.6358 180.024 88.3927 179.642 90.1436Z" fill="#8250A0"/>
<path d="M142.28 120.578C142.453 120.608 142.632 120.632 142.81 120.656C143.656 120.632 143.787 121.323 144.049 121.882C144.281 122.21 144.519 122.537 144.752 122.859C143.054 123.044 142.203 122.311 142.28 120.578Z" fill="#F6F6F6"/>
<path d="M49.4573 119.314C49.4514 117.551 49.4454 115.788 49.4395 114.025C50.3804 115.782 50.3506 117.551 49.4573 119.314Z" fill="#4E4A4B"/>
<path d="M31.5137 122.933C33.3003 122.624 31.7995 121.367 32.1747 120.646C33.0204 121.063 33.6993 121.736 33.3658 122.665C33.0502 123.565 32.2521 123.636 31.5137 122.933Z" fill="#434041"/>
<path d="M28.8105 114.729C29.15 113.312 30.0731 112.496 31.4547 112.145C30.9485 113.395 29.9063 114.086 28.8105 114.729Z" fill="#524E4F"/>
<path d="M79.721 118.726C78.3632 117.809 78.3156 116.338 78.125 114.927C79.1255 115.999 79.4233 117.362 79.721 118.726Z" fill="#3F3B3C"/>
<path d="M93.041 119.888C94.4167 120.447 95.0063 121.579 95.2624 122.949C94.1309 122.216 93.4877 121.12 93.041 119.888Z" fill="#4C4849"/>
<path d="M117.283 116.952C116.902 117.148 116.52 117.345 116.139 117.541C114.972 116.952 114.799 116.1 115.466 115.028C115.788 114.826 116.104 114.844 116.401 115.082C117.056 115.534 117.146 116.255 117.283 116.952Z" fill="#383435"/>
<path d="M41.4639 110.292C40.5527 110.691 39.6475 111.084 38.7363 111.483C39.183 109.923 40.4277 109.81 41.7438 109.816C41.9105 110.131 41.8153 110.286 41.4639 110.292Z" fill="#EDEDEE"/>
<path d="M65.5236 118.088C65.3568 116.653 65.1901 115.223 65.0293 113.788C66.3157 115.092 66.3573 116.539 65.5236 118.088Z" fill="#3C393A"/>
<path d="M63.8257 116.95C64.2069 117.546 64.594 118.135 64.9751 118.731C64.9751 118.927 64.9751 119.124 64.9751 119.326C64.3856 119.523 63.796 119.713 63.2004 119.91C62.4203 118.719 62.8967 117.784 63.8257 116.95Z" fill="#151011"/>
<path d="M49.1245 113.354C48.8625 112.961 48.9876 112.336 48.3861 112.145C47.9573 111.692 47.5285 111.24 47.0938 110.787C49.0471 110.87 49.4223 111.341 49.1245 113.354Z" fill="#EDEDEE"/>
<path d="M87.4766 118.742C87.7148 118.742 87.953 118.748 88.1912 118.748C87.685 120.046 88.6319 121.595 87.5123 122.792C87.5004 121.44 87.4885 120.088 87.4766 118.742Z" fill="#444142"/>
<path d="M117.928 122.294C118.72 122.806 119.34 122.764 119.661 121.758C120.471 122.621 119.882 123.122 119.113 123.336C118.393 123.538 117.773 123.265 117.928 122.294Z" fill="#5D5A5B"/>
<path d="M41.4609 110.293C41.58 110.15 41.6753 109.99 41.7408 109.817C43.0808 110.073 44.5756 109.239 45.7786 110.418C44.3433 110.377 42.9021 110.335 41.4609 110.293Z" fill="#403D3E"/>
<path d="M12.5176 103.837C13.0952 102.592 14.191 102.133 15.4417 101.913C14.733 102.961 13.8516 103.735 12.5176 103.837Z" fill="#DCCCE4"/>
<path d="M116.396 115.073C116.074 115.115 115.753 115.15 115.431 115.192C114.568 115.043 114.55 114.585 114.984 113.965C115.651 113.477 115.479 112.727 115.58 112.06C116.896 112.78 115.914 114.126 116.396 115.073Z" fill="#2C292A"/>
<path d="M44.6756 129.428C45.4796 129.238 46.2895 129.041 47.0935 128.851C46.3788 129.923 45.3783 130.494 44.0801 130.512C44.2826 130.149 44.4791 129.792 44.6756 129.428Z" fill="#444142"/>
<path d="M96.0317 121.035C95.055 120.338 94.2868 119.493 94.0664 118.26C95.1681 118.873 95.9423 119.713 96.0317 121.035Z" fill="#4C4849"/>
<path d="M108.363 120.506C108.422 121.453 107.97 122.441 108.559 123.353C106.386 122.549 107.642 121.506 108.363 120.506Z" fill="#C0C0C0"/>
<path d="M132.192 119.321C131.983 119.315 131.781 119.309 131.572 119.303C131.644 118.94 131.709 118.583 131.781 118.22C131.983 117.803 132.186 117.386 132.4 116.957C133.073 117.38 132.507 118.095 132.769 118.607C132.579 118.851 132.382 119.089 132.192 119.321Z" fill="#201C1D"/>
<path d="M27.9706 129.45C26.9224 129.676 25.9755 129.33 25.0405 128.92C24.9214 128.789 24.8857 128.658 24.9214 128.532C24.9631 128.401 24.9988 128.336 25.0405 128.336C26.0887 128.515 27.1249 128.735 27.9706 129.45Z" fill="#4B4849"/>
<path d="M44.7299 128.373C44.7239 128.73 44.712 129.094 44.7061 129.451C43.6758 129.421 42.6455 129.391 41.6152 129.362C42.6515 129.028 43.6937 128.701 44.7299 128.373Z" fill="#444142"/>
<path d="M95.8566 110.417C94.8025 110.275 94.338 111.477 93.3613 111.519C93.8437 110.364 94.2963 109.143 95.8566 110.417Z" fill="#575455"/>
<path d="M24.9258 130.178C26.1645 129.886 27.1948 130.244 28.0345 131.185C26.8672 131.25 25.8131 130.97 24.9258 130.178Z" fill="#4B4849"/>
<path d="M111.323 113.914C111.168 114.033 111.001 114.081 110.805 114.063C110.59 112.973 110.876 112.11 111.924 111.592C112.115 112.003 112.312 112.42 112.502 112.831C112.454 112.932 112.407 113.027 112.359 113.128C112.085 113.48 111.776 113.795 111.323 113.914Z" fill="#DADADA"/>
<path d="M25.0257 128.337C24.99 128.534 24.9959 128.725 25.0257 128.921C25.0376 129.082 25.0495 129.249 25.0555 129.409C24.0431 130.19 23.4118 129.064 22.5899 128.915L22.584 128.909C23.0604 128.141 23.8823 128.29 24.5909 128.153C24.7696 128.141 24.9185 128.2 25.0257 128.337Z" fill="#1B1718"/>
<path d="M18.4866 87.209C19.3978 88.2035 19.4276 89.1981 18.4688 90.1867C18.4747 89.1921 18.4807 88.2035 18.4866 87.209Z" fill="#753893"/>
<path d="M66.673 67.0039C66.6313 67.9389 67.5008 68.2009 67.9773 68.7429C66.7385 68.7667 65.3509 68.8977 66.673 67.0039Z" fill="#FBDEC7"/>
<path d="M22.5996 128.914C23.4215 129.081 24.2433 129.242 25.0651 129.408C25.0175 129.658 24.9698 129.909 24.9162 130.165C24.0646 129.903 23.0344 129.956 22.5996 128.914Z" fill="#494546"/>
<path d="M130.485 75.4229C130.319 76.1792 130.366 77.0963 129.217 77.1142C129.264 76.2745 129.592 75.6372 130.485 75.4229Z" fill="#F59399"/>
<path d="M91.1238 91.3852C91.1238 96.7331 91.1238 96.7331 96.436 96.7331C101.76 96.7331 107.09 96.7331 112.414 96.7331C112.414 96.9296 112.42 97.1262 112.42 97.3227C107.489 97.3227 102.558 97.3227 97.6211 97.3227C97.2281 97.3227 96.829 97.3227 96.436 97.3227C90.5223 97.3227 90.5223 97.3227 90.5342 91.3792C90.7248 91.1767 90.9273 91.1648 91.1238 91.3852Z" fill="#014A9F"/>
<path d="M91.1228 91.3854C90.9263 91.3854 90.7297 91.3854 90.5332 91.3854C91.1168 90.647 91.9446 90.8078 92.7129 90.8078C98.698 90.8018 104.689 90.8018 110.674 91.3914C104.153 91.3854 97.638 91.3854 91.1228 91.3854Z" fill="#00479D"/>
<path d="M120.52 88.7213C120.288 87.7208 120.073 87.1312 120.627 86.5654C120.99 87.2086 120.972 87.8101 120.52 88.7213Z" fill="#02469D"/>
<path d="M152.32 82.4924C149.408 82.4924 148.11 81.4383 148.092 78.9787C148.074 76.7395 149.2 75.7509 151.403 75.7569C153.898 75.7688 155.34 77.5614 155.477 80.5152C155.59 83.0701 153.845 82.4031 152.32 82.4924Z" fill="#F5FBFA"/>
<path d="M38.6901 82.5041C35.5099 82.5041 33.7769 81.2118 33.8603 79.0024C33.9377 76.912 34.9799 75.709 37.231 75.7388C39.5417 75.7746 41.0246 77.5731 41.2271 80.3423C41.3938 82.7185 39.9229 82.5935 38.6901 82.5041Z" fill="#FAFCFD"/>
<path d="M48.1871 80.707C48.1931 82.0768 48.1931 83.4525 48.199 84.8222C47.401 83.4525 47.4129 82.0768 48.1871 80.707Z" fill="#0090B0"/>
<path d="M65.3763 86.7056C69.2056 90.2491 69.0567 92.3037 64.7748 94.8407C64.5008 95.3588 64.1852 95.2813 63.8457 94.9062C62.1068 94.2749 60.3678 93.7151 60.1713 91.3985C59.9688 89.0104 61.1241 87.5572 63.1609 86.6163C63.9172 86.253 64.6616 86.1041 65.3763 86.7056Z" fill="#F4F9F4"/>
<path d="M63.8435 94.8966C64.1532 94.8728 64.4629 94.8549 64.7725 94.8311C64.0519 96.3973 62.8668 94.9978 61.9199 95.0931C62.5631 95.0335 63.2063 94.968 63.8435 94.8966Z" fill="#44AA3E"/>
<path d="M65.3736 86.7014C64.6351 86.6716 63.8967 86.6359 63.1582 86.6061C63.8967 85.7069 64.9091 86.088 65.8203 86.0642C66.2074 86.0582 66.1954 86.35 65.9215 86.5466C65.7726 86.6478 65.5582 86.6538 65.3736 86.7014Z" fill="#48AB43"/>
<path d="M170.085 91.2176C167.393 91.2176 164.707 91.2176 162.016 91.2176C162.016 91.1223 162.016 91.0211 162.016 90.9258C164.743 90.9258 167.465 90.9258 170.192 90.9258C170.157 91.0211 170.121 91.1164 170.085 91.2176Z" fill="#824F9F"/>
<path d="M132.064 97.1775C129.741 97.1775 127.412 97.1775 125.09 97.1775C125.09 97.0823 125.09 96.981 125.09 96.8857C127.406 96.8857 129.717 96.8857 132.034 96.8857C132.04 96.987 132.052 97.0823 132.064 97.1775Z" fill="#EC2935"/>
<path d="M125.2 90.9492C126.927 90.9492 128.654 90.9492 130.381 90.9492C130.381 91.0445 130.381 91.1457 130.381 91.241C128.642 91.241 126.909 91.241 125.17 91.241C125.176 91.1398 125.188 91.0445 125.2 90.9492Z" fill="#EC2934"/>
<path d="M135.753 113.971C135.229 113.006 134.8 111.738 133.145 114.204C133.728 112.167 133.853 110.517 135.259 110.749C136.998 111.035 136.134 112.816 136.253 113.989C136.075 114.251 135.908 114.257 135.753 113.971Z" fill="#181315"/>
<path d="M135.756 113.973C135.923 113.973 136.095 113.979 136.262 113.991C136.262 116.331 136.262 118.665 136.262 121.006C136.095 121.006 135.929 121.012 135.756 121.012C135.756 118.665 135.756 116.319 135.756 113.973Z" fill="#110C0D"/>
<path d="M76.8272 118.761C75.5468 119.827 74.046 119.13 72.6465 119.279C72.6822 119.023 72.718 118.767 72.7537 118.517C74.1115 118.6 75.4693 118.683 76.8272 118.761Z" fill="#3C3839"/>
<path d="M63.8219 116.953C63.6135 117.941 63.411 118.924 63.2025 119.912C61.5648 121.735 59.397 121.788 57.1936 121.711C56.5921 121.508 56.1276 121.08 56.1276 120.466C56.1276 117.59 55.5142 114.678 56.5027 111.843C56.7231 111.563 56.997 111.349 57.3186 111.194C58.6705 111.021 60.0521 110.634 61.2313 111.73C61.4159 112.26 61.8804 112.254 62.3211 112.307C63.3871 112.736 63.2799 113.844 63.679 114.654C63.7206 115.422 63.7742 116.19 63.8219 116.953Z" fill="#F0F0F0"/>
<path d="M57.19 111.59C56.6124 114.967 56.6183 118.338 57.196 121.709C57.726 122.649 58.8695 121.965 59.8283 122.81C58.2739 122.596 56.7315 123.751 56.0049 121.691C55.5344 118.123 55.5404 114.562 56.0049 110.995H55.999C56.66 110.667 56.9578 111.066 57.19 111.59Z" fill="#221F1F"/>
<path d="M55.9987 110.995C55.9987 114.562 55.9987 118.124 55.9987 121.691C55.0339 118.124 55.0399 114.562 55.9987 110.995Z" fill="#1C1819"/>
<path d="M57.1968 111.591C56.8038 111.394 56.4048 111.198 56.0117 110.995C56.0177 110.846 56.0355 110.703 56.0713 110.555C57.6733 110.596 59.3229 110.007 60.8534 110.936C59.7457 111.781 58.3284 110.829 57.1968 111.555V111.591Z" fill="#1C1819"/>
<path d="M47.6654 113.989C47.6118 114.191 47.6476 114.382 47.7726 114.555C48.0168 115.954 48.1657 117.354 47.6893 118.735L47.4749 118.884C47.2902 118.974 47.0997 119.003 46.9031 118.979C45.7538 118.86 45.2714 116.83 43.8778 117.729C42.2818 118.759 43.8123 120.278 43.586 121.552C42.6212 121.57 41.6565 121.588 40.6976 121.606C39.9592 119.325 38.8634 117.109 39.3517 114.59C41.9304 110.541 44.6461 110.344 47.6654 113.989Z" fill="#EDEDEE"/>
<path d="M37.584 118.123C37.584 117.14 37.5899 116.152 37.5899 115.169C38.4356 116.158 38.4654 117.14 37.584 118.123Z" fill="#0E090A"/>
<path d="M114.99 113.967C114.937 114.449 114.949 114.908 115.437 115.194C115.503 116.027 115.532 116.867 116.14 117.54C116.098 117.874 116.056 118.201 116.015 118.535C114.669 118.57 113.323 118.612 111.977 118.648C110.911 117.707 112.031 116.7 111.888 115.736C111.911 114.693 111.763 113.61 112.572 112.752L112.501 112.829C113.966 111.841 114.532 112.782 114.99 113.967Z" fill="#DADADA"/>
<path d="M109.727 118.218C111.09 117.307 110.846 118.772 111.263 119.254C110.513 119.26 109.625 119.475 109.727 118.218Z" fill="#201C1D"/>
<path d="M151.084 120.432C150.537 120.855 149.989 121.272 149.441 121.695C147.41 121.921 145.534 121.629 144.057 120.045C142.848 119.736 143.015 118.979 143.426 118.139C143.932 116.192 143.634 114.072 144.7 112.25C146.666 111.41 148.631 111.207 150.596 112.244C150.953 112.649 151.311 113.06 151.674 113.465C151.984 115.829 152.311 118.199 151.084 120.432Z" fill="#F6F6F6"/>
<path d="M43.595 121.559C43.2019 121.011 42.7196 120.505 42.4337 119.91C41.8501 118.695 42.1657 117.617 43.2913 116.884C44.3692 116.182 45.2982 116.533 46.0962 117.456C46.525 117.956 47.0193 118.403 47.4838 118.879C47.5494 118.999 47.5672 119.13 47.5315 119.261C46.5131 120.541 45.2565 121.399 43.595 121.559Z" fill="#468FC7"/>
<path d="M47.6934 118.738C47.7231 117.345 47.747 115.951 47.7767 114.558C48.5807 115.963 48.7177 117.363 47.6934 118.738Z" fill="#4E4A4B"/>
<path d="M143.436 118.141C143.52 118.82 143.317 119.594 144.068 120.047C144.062 120.66 144.056 121.274 144.05 121.881C143.639 121.47 143.228 121.059 142.811 120.655C142.341 118.493 142.12 116.307 142.359 114.098C143.693 115.187 142.186 117.028 143.436 118.141Z" fill="#1A1617"/>
<path d="M149.448 122.292C148.566 123.251 147.518 122.655 146.518 122.292C147.494 122.298 148.471 122.298 149.448 122.292Z" fill="#272424"/>
<path d="M63.6781 114.657C63.2255 113.877 62.7729 113.091 62.3203 112.311C62.5943 112.269 62.8742 112.233 63.1481 112.191C63.434 112.989 64.0176 113.722 63.6781 114.657Z" fill="#5C595A"/>
<path d="M57.1855 111.563C58.2635 110.515 59.6332 111.223 60.8362 110.943C61.1756 111.104 62.0273 111.015 61.2233 111.729C59.8774 111.676 58.5315 111.616 57.1855 111.563Z" fill="#080203"/>
<path d="M112.575 112.752C112.7 113.83 112.527 114.837 111.89 115.736C111.205 115.283 111.497 114.527 111.324 113.913C111.336 113.086 111.628 112.568 112.575 112.752Z" fill="#191415"/>
</g>
<defs>
<clipPath id="clip0_4968_32552">
<rect width="192" height="192" fill="white"/>
</clipPath>
</defs>
</svg>
