<svg width="192" height="192" viewBox="0 0 192 192" fill="none" xmlns="http://www.w3.org/2000/svg">
<g clip-path="url(#clip0_4925_32217)">
<path d="M96 192C149.019 192 192 149.019 192 96C192 42.9807 149.019 0 96 0C42.9807 0 0 42.9807 0 96C0 149.019 42.9807 192 96 192Z" fill="white"/>
<path d="M36.02 42.8592C53.48 41.8192 71 42.6292 88.48 42.4092C88.43 44.0992 88.36 45.7692 88.3 47.4592C83.4 47.5992 78.32 46.8092 73.54 48.2292C69.6 50.2792 66.59 53.6592 63.28 56.5592C61.93 55.5092 60.59 54.4492 59.24 53.3892C61.27 51.4892 63.26 49.5492 65.24 47.5892C58.99 47.4292 52.74 47.4892 46.49 47.4892C49.52 50.5892 52.58 53.6592 55.52 56.8392C54.4 57.8592 53.3 58.8792 52.19 59.8892C48.92 57.2192 45.7 54.4692 42.41 51.8092C41.55 57.2492 41.56 62.7792 42.09 68.2492C44.21 66.6392 46.3 64.9992 48.34 63.2792C49.57 64.4392 50.79 65.6092 52.02 66.7792C48.75 69.7392 44.93 72.2992 42.62 76.1392C41.1 80.2092 41.71 84.6892 41.6 88.9592C39.8 89.0592 38 89.1493 36.2 89.2293C35.98 73.7693 36.31 58.3092 36 42.8492L36.02 42.8592Z" fill="#E0B466"/>
<path d="M103.941 42.4983C121.181 42.3883 138.431 42.2783 155.681 42.5183C155.861 45.8683 156.111 49.2183 155.991 52.5783C155.391 64.7283 155.861 76.8983 155.691 89.0583C154.051 89.0383 152.411 89.0183 150.771 88.9783C150.821 84.7283 151.341 80.2383 149.741 76.1983C147.201 72.1883 143.161 69.4783 139.691 66.3583C140.941 65.1683 142.191 63.9483 143.411 62.7383C145.601 64.6383 147.831 66.5083 150.101 68.3483C150.801 62.9383 150.781 57.4683 150.061 52.0683C146.641 54.5383 143.341 57.1583 140.031 59.7783C138.791 58.6883 137.541 57.6083 136.311 56.5283C139.561 53.7983 142.641 50.8683 145.501 47.7183C139.371 47.4683 133.231 47.4083 127.101 47.6283C128.841 49.4883 130.601 51.3283 132.441 53.0783C131.431 54.4283 130.441 55.7683 129.431 57.1083C125.741 53.9883 122.551 50.0283 118.051 48.0483C113.511 46.9983 108.791 47.5983 104.171 47.4883C104.081 45.8283 104.011 44.1683 103.941 42.5083V42.4983Z" fill="#E0B466"/>
<path d="M93.8409 71.7285C95.4309 71.7285 97.0109 71.7585 98.6109 71.7285C98.6809 77.7685 98.6309 83.8285 98.8909 89.8685C103.861 85.7985 108.491 81.3485 113.541 77.3785C114.601 78.5685 115.691 79.7585 116.781 80.9285C112.251 85.1885 107.491 89.1985 103.081 93.5985C109.681 93.7585 116.281 93.7385 122.881 93.7785C123.121 95.2385 123.351 96.6885 123.581 98.1485C117.031 98.5185 110.481 98.8485 103.921 99.0785C108.121 103.509 112.721 107.539 117.161 111.749C115.851 112.709 114.541 113.689 113.231 114.649C108.521 110.709 103.911 106.669 99.1209 102.839C98.6509 108.829 98.7009 114.849 98.6109 120.849C96.9909 120.839 95.3709 120.769 93.7609 120.779C93.4209 114.759 93.2709 108.729 93.1309 102.689C88.4209 106.589 83.8709 110.659 79.1909 114.589C77.8809 113.679 76.5509 112.769 75.2509 111.849C79.6209 107.549 84.2109 103.449 88.5109 99.0585C81.8309 98.7885 75.1409 98.8385 68.4609 98.8385C68.7609 97.1285 69.0309 95.4185 69.3409 93.7285C76.0109 93.8885 82.6709 93.7785 89.3409 93.6285C84.6709 89.1585 79.8709 84.8285 75.0409 80.5085C76.3109 79.3285 77.5609 78.1185 78.7709 76.8985C83.3409 81.1985 87.9809 85.4385 93.0209 89.1685C93.3909 83.3685 93.6709 77.5385 93.8309 71.7285H93.8409Z" fill="#E0B466"/>
<path d="M36.2283 103.31C38.0383 103.27 39.8383 103.22 41.6483 103.18C41.6083 106.05 41.5183 108.93 41.6583 111.81C41.5883 118.29 48.0583 121.73 52.1983 125.67C50.8283 126.72 49.4683 127.76 48.1183 128.81C46.1283 127.24 43.9883 125.88 41.8683 124.51C41.5983 129.85 41.6683 135.22 42.1983 140.54C45.5683 137.9 48.8683 135.16 52.1183 132.38C53.2783 133.43 54.4383 134.47 55.6183 135.5C52.6483 138.43 49.7483 141.44 47.0983 144.66C53.1283 145.03 59.1783 144.97 65.1983 144.59C63.4783 142.82 61.7483 141.04 59.9683 139.35C60.9983 138.05 62.0483 136.76 63.0983 135.46C66.6883 138.48 69.8983 142.17 74.1983 144.2C78.9483 145.61 83.9883 144.81 88.8683 144.89C88.5683 146.44 88.2883 148 88.0083 149.56C70.7883 149.68 53.5683 149.65 36.3583 149.63C36.0183 134.19 36.2883 118.75 36.2383 103.31H36.2283Z" fill="#E0B466"/>
<path d="M150.78 103C152.4 103.24 154.01 103.47 155.64 103.7C155.78 119.03 155.68 134.35 155.68 149.68C138.71 149.52 121.74 149.77 104.77 149.55C104.75 148.03 104.72 146.51 104.68 145C109.21 144.91 113.9 145.51 118.3 144.16C122.57 142.16 125.72 138.49 129.19 135.4C130.3 136.69 131.41 137.98 132.52 139.29C130.89 140.83 129.3 142.42 127.72 144.02C133.57 145.06 139.53 145.14 145.43 144.41C142.63 141.32 139.68 138.39 136.74 135.45C137.91 134.41 139.07 133.37 140.23 132.33C143.48 135.05 146.73 137.75 150.04 140.42C150.74 134.87 150.9 129.26 150.27 123.7C148.23 125.31 146.21 126.95 144.27 128.67C143 127.52 141.73 126.37 140.48 125.2C143.62 122.41 147.22 119.92 149.47 116.29C151.34 112.14 150.79 107.42 150.76 103H150.78Z" fill="#E0B466"/>
<path d="M88.4789 42.4091C93.6289 42.4091 98.7789 42.3591 103.939 42.4991C104.009 44.1591 104.079 45.8191 104.169 47.4791C102.349 47.4891 100.539 47.4891 98.7189 47.4991C98.6389 53.8091 98.6189 60.1191 98.7089 66.4391C102.939 65.5091 107.139 64.4991 111.379 63.6491C113.449 66.8691 115.529 70.0991 117.639 73.2991C122.799 69.1191 127.619 64.5591 132.509 60.0591C131.489 59.0691 130.459 58.0791 129.429 57.0991C130.439 55.7591 131.429 54.4191 132.439 53.0691C133.709 54.2391 135.009 55.3791 136.319 56.5191C137.559 57.5991 138.809 58.6791 140.039 59.7691C141.169 60.7591 142.279 61.7491 143.419 62.7391C142.189 63.9591 140.949 65.1691 139.699 66.3591C138.549 65.3991 137.409 64.4291 136.269 63.4791C131.559 68.0491 126.439 72.1591 121.749 76.7691C125.299 78.8091 128.869 80.7991 132.399 82.8591C131.339 86.4591 130.299 90.0691 129.379 93.7191C136.349 93.7291 143.329 93.7391 150.289 93.7491C150.479 92.1591 150.649 90.5791 150.769 88.9791C152.399 89.0091 154.039 89.0291 155.689 89.0591C155.639 93.9391 155.659 98.8091 155.639 103.699C154.009 103.469 152.399 103.239 150.779 102.999C150.689 101.629 150.599 100.259 150.499 98.8891C143.489 98.8391 136.489 98.8491 129.479 98.8891C130.399 102.469 131.439 106.029 132.409 109.599C128.869 111.479 125.329 113.369 121.789 115.269C126.449 119.959 131.379 124.349 136.339 128.699C137.729 127.529 139.119 126.369 140.499 125.199C141.749 126.369 143.019 127.519 144.289 128.669C142.929 129.869 141.599 131.109 140.249 132.329C139.089 133.369 137.929 134.409 136.759 135.449C135.339 136.709 133.919 137.979 132.529 139.279C131.419 137.979 130.309 136.689 129.199 135.389L132.479 132.299C127.779 127.589 122.749 123.259 117.609 119.039C115.439 122.209 113.329 125.409 111.179 128.599C107.059 127.629 102.909 126.729 98.7189 126.069C98.6489 132.319 98.6389 138.569 98.6889 144.829C100.679 144.879 102.679 144.939 104.679 144.979C104.709 146.489 104.749 148.009 104.769 149.529C99.1789 149.609 93.5889 149.619 87.9989 149.539C88.2789 147.969 88.5689 146.419 88.8589 144.869C90.3389 144.849 91.8289 144.829 93.3189 144.799C93.3489 138.499 93.3989 132.219 93.2789 125.929C89.2389 126.659 85.2389 127.639 81.2589 128.629C79.0589 125.329 76.6689 122.179 74.3689 118.959C69.5889 123.539 64.4789 127.769 59.6189 132.269C60.7789 133.329 61.9289 134.379 63.0889 135.429C62.0389 136.719 60.9889 138.009 59.9589 139.319C58.5389 137.999 57.0689 136.739 55.6089 135.469C54.4289 134.439 53.2689 133.399 52.1089 132.349C50.7889 131.149 49.4789 129.919 48.1089 128.779C49.4689 127.729 50.8289 126.689 52.1889 125.639C53.4389 126.649 54.7089 127.629 55.9789 128.629C60.9889 124.329 65.8689 119.849 70.5489 115.189C66.9789 113.339 63.3989 111.489 59.7889 109.709C60.7889 106.089 61.8689 102.479 62.8989 98.8691C55.8489 98.8191 48.7889 98.8291 41.7389 98.8291C41.6989 100.279 41.6589 101.719 41.6389 103.169C39.8289 103.209 38.0289 103.259 36.2189 103.299C36.1689 98.5991 36.1889 93.9191 36.2089 89.2291C38.0089 89.1391 39.8089 89.0491 41.6089 88.9591C41.6389 90.5591 41.6889 92.1591 41.7189 93.7591C48.8089 93.7391 55.9089 93.7691 62.9889 93.7591C61.9589 90.0591 60.8389 86.3891 59.7789 82.6991C63.4089 80.7591 67.0489 78.8191 70.6189 76.7691C65.7689 72.3291 60.7689 68.0391 55.9689 63.5291C54.6589 64.5991 53.3189 65.6791 52.0289 66.7791C50.7989 65.6091 49.5789 64.4391 48.3489 63.2791C49.6489 62.1691 50.9189 61.0391 52.1889 59.8891C53.2989 58.8691 54.3989 57.8491 55.5189 56.8391C56.7589 55.6891 58.0089 54.5391 59.2389 53.3891C60.5889 54.4491 61.9289 55.5091 63.2789 56.5591C62.0589 57.6991 60.8489 58.8491 59.6489 59.9891C64.6589 64.3991 69.3889 69.1391 74.7089 73.1891C76.8289 70.0291 78.9189 66.8391 81.0389 63.6791C85.1589 64.5591 89.2489 65.5491 93.3289 66.5491C93.3189 60.1991 93.3289 53.8491 93.3489 47.4991C91.6589 47.4891 89.9789 47.4791 88.2889 47.4691C88.3389 45.7791 88.4089 44.1091 88.4689 42.4191L88.4789 42.4091ZM83.7689 69.1891C82.0489 71.7191 80.3689 74.2791 78.7689 76.8991C77.5489 78.1291 76.3089 79.3291 75.0389 80.5091C72.0589 81.8491 69.1289 83.2791 66.2289 84.7591C66.7989 87.7591 67.3889 90.7791 68.4689 93.6591L69.3289 93.7291C69.0189 95.4291 68.7489 97.1291 68.4489 98.8391C67.5389 101.649 66.7189 104.509 66.1789 107.429C69.1789 108.929 72.1789 110.449 75.2289 111.839C76.5289 112.759 77.8589 113.669 79.1689 114.579L78.4989 115.149C80.2389 117.829 81.9689 120.529 83.7089 123.219C87.0489 122.369 90.3889 121.569 93.7389 120.769C95.3489 120.759 96.9689 120.819 98.5889 120.839C101.849 121.529 105.129 122.609 108.509 122.409C110.789 120.429 112.119 117.609 113.889 115.209L113.219 114.649C114.529 113.689 115.839 112.709 117.149 111.749C120.199 110.549 123.199 109.179 125.949 107.389C125.709 104.189 124.559 101.169 123.569 98.1491C123.339 96.6891 123.109 95.2391 122.869 93.7791H123.809C124.609 90.8791 125.449 87.9891 126.229 85.0791C123.319 83.4491 120.349 81.9191 117.419 80.3291L116.759 80.9391C115.669 79.7691 114.579 78.5891 113.519 77.3891C112.159 74.6991 110.719 72.0091 108.789 69.6791C105.299 69.2591 101.949 70.9891 98.5889 71.7391C96.9889 71.7691 95.3989 71.7391 93.8189 71.7391C90.4689 70.8491 87.1389 69.9291 83.7589 69.1991L83.7689 69.1891Z" fill="#08A59D"/>
</g>
<defs>
<clipPath id="clip0_4925_32217">
<rect width="192" height="192" fill="white"/>
</clipPath>
</defs>
</svg>
