<svg width="192" height="192" viewBox="0 0 192 192" fill="none" xmlns="http://www.w3.org/2000/svg">
<g clip-path="url(#clip0_4919_31955)">
<path d="M96 192C149.019 192 192 149.019 192 96C192 42.9807 149.019 0 96 0C42.9807 0 0 42.9807 0 96C0 149.019 42.9807 192 96 192Z" fill="#04C5A1"/>
<path d="M48.9494 140.55C48.9494 144.31 45.9094 147.35 42.1594 147.35H42.1094C38.3894 147.35 35.3794 144.35 35.3594 140.63V140.55C35.3594 136.8 38.3994 133.76 42.1594 133.76C45.9194 133.76 48.9494 136.8 48.9494 140.55Z" fill="white"/>
<path d="M41.8789 73.56C41.8689 69.81 44.8689 66.77 48.6089 66.75H95.4989C99.2389 67.04 102.029 70.31 101.739 74.07C101.479 77.4 98.8289 80.05 95.4989 80.31H48.6689C44.9289 80.32 41.8889 77.31 41.8789 73.57V73.56Z" fill="white"/>
<path d="M52.9298 95.8892C52.9098 92.1492 55.9098 89.0992 59.6398 89.0792H130.86C134.6 88.7892 137.87 91.5892 138.16 95.3292C138.46 99.0692 135.66 102.339 131.92 102.629C131.57 102.669 131.2 102.669 130.85 102.629H59.6898C55.9598 102.639 52.9398 99.6192 52.9398 95.8892H52.9298Z" fill="white"/>
<path d="M138.42 139.999C138.71 143.739 135.92 147.019 132.18 147.319C131.83 147.339 131.46 147.339 131.11 147.319H60.9697C57.2297 147.329 54.1897 144.309 54.1797 140.579V140.559C54.1697 136.829 57.1697 133.779 60.9097 133.769H131.12C134.86 133.479 138.13 136.269 138.42 140.009V139.999Z" fill="white"/>
<path d="M53.9376 51.4691C53.9176 47.7391 56.9276 44.6891 60.6576 44.6691H131.118C134.858 44.3791 138.128 47.1791 138.418 50.9191C138.708 54.6591 135.918 57.9291 132.178 58.2191C131.828 58.2591 131.458 58.2591 131.108 58.2191H60.7076C56.9676 58.2291 53.9376 55.2091 53.9376 51.4691Z" fill="white"/>
<path d="M148.93 118.73C148.67 122.06 146.02 124.71 142.68 124.98H96.3504C92.6104 124.98 89.5704 121.97 89.5704 118.23C89.5504 114.49 92.5604 111.44 96.2904 111.43H142.67C146.42 111.72 149.21 114.99 148.92 118.73H148.93Z" fill="white"/>
<path d="M156.639 51.4699C156.639 55.2199 153.599 58.2699 149.839 58.2699C146.109 58.2899 143.059 55.2899 143.039 51.5599V51.4699H143.049C143.049 47.7199 146.089 44.6699 149.839 44.6699C153.589 44.6699 156.639 47.7199 156.639 51.4699Z" fill="white"/>
</g>
<defs>
<clipPath id="clip0_4919_31955">
<rect width="192" height="192" fill="white"/>
</clipPath>
</defs>
</svg>
