<svg width="192" height="192" viewBox="0 0 192 192" fill="none" xmlns="http://www.w3.org/2000/svg">
<g clip-path="url(#clip0_4925_32112)">
<path d="M96 192C149.019 192 192 149.019 192 96C192 42.9807 149.019 0 96 0C42.9807 0 0 42.9807 0 96C0 149.019 42.9807 192 96 192Z" fill="white"/>
<path d="M86.8403 69.3008C67.7303 69.3008 48.6303 69.3208 29.5303 69.3408C28.7803 69.3408 28.0203 69.4408 27.2903 69.6108C24.8703 70.1908 23.5403 71.9108 23.5403 74.3708C23.5403 88.8408 23.5803 103.301 23.5003 117.771C23.4803 120.051 24.6103 121.331 26.4203 122.131C27.3803 122.551 28.5303 122.631 29.6003 122.631C48.5603 122.681 67.5303 122.691 86.4803 122.711C86.9903 122.711 87.5003 122.711 88.0403 122.711V69.3808C87.5803 69.3608 87.2103 69.3108 86.8403 69.3108V69.3008ZM42.7403 77.3808C46.4803 77.3808 49.5503 80.4108 49.5403 84.0808C49.5403 87.7708 46.4903 90.7908 42.7403 90.8108C38.9503 90.8308 35.7003 87.7408 35.7503 84.0908C35.8003 80.6808 38.9203 77.0608 42.7403 77.3808ZM49.5403 107.941C49.5103 111.841 46.4103 114.911 42.5003 114.951C40.7103 114.971 38.9103 114.911 37.1203 114.971C36.0903 115.011 35.6903 114.661 35.7103 113.601C35.7603 110.911 35.7303 108.221 35.7303 105.531C35.7303 103.121 35.7303 100.721 35.7303 98.3108C35.7503 94.3608 37.8803 91.7608 41.9703 91.2408C45.3803 90.8008 48.0903 92.4808 49.2503 95.9408C49.4403 96.5108 49.5203 97.1408 49.5303 97.7408C49.5503 101.141 49.5703 104.531 49.5303 107.931L49.5403 107.941ZM63.4303 118.381C60.0203 118.381 57.2403 115.541 57.1603 112.171C57.1003 109.471 59.5503 105.771 63.5303 105.991C66.9503 106.011 69.6103 108.671 69.6303 112.111C69.6503 115.491 66.7803 118.391 63.4303 118.371V118.381ZM78.1903 94.9208C78.0103 97.1108 78.1603 99.3808 77.6203 101.481C77.0003 103.911 74.7503 105.241 72.2003 105.231C67.0003 105.201 61.8103 105.131 56.6003 105.041C54.2103 105.001 51.7603 102.641 51.7203 99.9908C51.6103 93.2808 51.7003 86.5808 51.7203 79.8708C51.7203 79.7808 51.7903 79.7008 51.9003 79.4308C54.2303 79.4308 56.5503 79.3208 58.8603 79.4708C61.1903 79.6208 63.2303 82.2408 63.2803 84.9608C63.3303 87.7808 63.3003 90.6208 63.3003 93.7008H71.1303C73.0703 93.7008 75.0103 93.7008 76.9503 93.6808C77.8303 93.6608 78.2803 93.9808 78.2003 94.9308L78.1903 94.9208Z" fill="#F6101A"/>
<path d="M109.148 78.3008C111.548 78.3008 113.768 78.1408 115.968 78.3408C118.858 78.6008 120.878 81.1408 120.898 84.3108C120.938 89.6008 120.908 94.9008 120.908 100.191C120.908 101.431 121.512 102.051 122.718 102.051C137.368 102.051 152.018 102.051 166.668 102.051H168.428C168.428 104.461 168.618 106.731 168.378 108.961C168.068 111.841 165.538 113.801 162.478 113.811C153.778 113.831 145.088 113.811 136.388 113.811C129.438 113.811 122.488 113.811 115.548 113.811C111.508 113.811 109.148 111.431 109.148 107.361C109.148 98.1908 109.148 89.0208 109.148 79.8608V78.3008Z" fill="#262626"/>
<path d="M94.2897 113.81C94.2897 107.64 94.2297 101.69 94.3197 95.7403C94.3597 93.0603 95.5697 91.7503 98.6697 90.2403C97.5197 89.2303 96.1097 88.3003 95.1097 87.0403C94.0397 85.6903 94.0497 83.9403 94.5697 82.2903C95.3697 79.7303 97.8497 78.0803 100.56 78.2503C103.21 78.4103 105.5 80.4503 105.97 83.0603C106.51 86.0503 105.03 88.3403 101.46 90.0003C101.48 90.0703 101.48 90.2003 101.51 90.2103C104.97 91.4003 106.22 93.9103 106.07 97.4503C105.93 100.84 106.05 104.25 106.04 107.65C106.02 111.34 103.6 113.78 99.9297 113.81C98.0997 113.82 96.2697 113.81 94.2897 113.81Z" fill="#262626"/>
</g>
<defs>
<clipPath id="clip0_4925_32112">
<rect width="192" height="192" fill="white"/>
</clipPath>
</defs>
</svg>
