<svg width="192" height="192" viewBox="0 0 192 192" fill="none" xmlns="http://www.w3.org/2000/svg">
<g clip-path="url(#clip0_4923_32006)">
<path d="M96 192C149.019 192 192 149.019 192 96C192 42.9807 149.019 0 96 0C42.9807 0 0 42.9807 0 96C0 149.019 42.9807 192 96 192Z" fill="white"/>
<path d="M122.51 91.4494C138.01 95.5694 153.2 99.6195 168.5 103.689V106.929H125.12C124.71 110.579 124.31 114.049 123.89 117.739C122.96 117.659 122.09 117.579 120.88 117.469C121.05 114.039 121.21 110.719 121.38 107.189C118.95 107.069 112.11 107.189 112.11 107.189C112.11 107.189 109.32 99.7595 107.86 97.4795C107.24 100.859 105.61 110.709 105.2 112.239C104.36 115.409 103.78 118.639 103.07 121.839C102.98 122.229 102.76 122.589 102.47 123.279C100.2 113.879 98.0105 104.829 95.6405 95.0194C94.9605 96.6894 94.5305 97.6795 94.1605 98.6895C90.8605 107.539 87.5705 116.389 84.3005 125.249C83.7605 126.719 83.1805 127.799 81.2305 126.179C85.8305 111.529 90.4705 96.7595 95.1105 81.9995C95.4105 81.9795 95.7005 81.9595 96.0005 81.9395C97.8705 90.1895 99.7405 98.4494 101.6 106.699C101.77 106.719 101.94 106.749 102.1 106.769C103.53 98.9794 104.97 91.1895 106.56 82.5495C108.93 88.3395 114.99 103.519 114.99 103.519L121.51 103.479C121.51 103.479 122.42 93.0195 122.5 91.4695L122.51 91.4494ZM154.92 103.599C154.94 103.539 154.96 103.469 154.97 103.409C145.46 101.099 135.95 98.7995 126.24 96.4395C125.97 98.9195 125.73 101.059 125.45 103.599H154.91H154.92Z" fill="#262626"/>
<path d="M60.0917 119.17C59.4317 109.65 58.7617 100.14 58.1017 90.6195C57.6417 83.8795 57.2217 77.1295 56.7217 70.3895C56.6117 68.9395 56.9517 68.2695 58.8017 68.7495C60.1717 80.3195 61.5517 92.0095 62.9317 103.7C63.0717 103.74 63.2017 103.78 63.3417 103.82C64.8317 100.29 66.3217 96.7695 67.9317 92.9695C69.1017 93.4295 70.2317 93.8595 71.7317 94.4495C68.0217 102.82 64.3817 111.01 60.7517 119.2C60.5317 119.19 60.3117 119.18 60.0917 119.17Z" fill="#262626"/>
<path d="M78.9319 65.0195H82.5119C82.5819 66.2595 82.7019 67.3995 82.7019 68.5495C82.6419 84.0895 82.5519 99.6295 82.4919 115.17C82.4919 116.89 82.1519 118.02 79.7119 117.2C79.4519 99.9395 79.1919 82.5895 78.9219 65.0195H78.9319Z" fill="#262626"/>
<path d="M42.4482 115.92C41.1882 116 40.2782 116.06 39.0882 116.14C38.8482 112.97 38.5682 109.9 38.3982 106.82C37.8282 97.0404 37.3282 87.2504 36.7282 77.4704C36.6282 75.8304 36.7182 74.7304 39.0982 75.3704C40.1982 88.7104 41.3082 102.15 42.4482 115.92Z" fill="#262626"/>
<path d="M45.2491 124.86C44.4391 124.73 43.8091 124.62 42.7891 124.45C45.0991 114.55 47.3891 104.76 49.7391 94.75C50.9191 95.1 51.8491 95.37 53.1791 95.77C50.5191 105.53 47.8991 115.14 45.2491 124.87V124.86Z" fill="#262626"/>
<path d="M23.5 119.889C25.52 110.359 27.55 100.839 29.62 91.0586C30.92 91.5086 31.83 91.8286 32.94 92.2086C31.18 99.1786 29.43 106.089 27.69 112.989C27.18 115.019 26.43 118.249 25.76 120.229C25.76 120.229 23.55 119.919 23.5 119.889Z" fill="#262626"/>
<path d="M51.6386 86.9004C53.0086 87.2904 54.0386 87.5804 55.2886 87.9304C54.8586 89.5004 54.4786 90.9104 54.0486 92.5004C52.8286 92.1704 51.8086 91.8904 50.5586 91.5504C50.9286 89.9804 51.2586 88.5604 51.6386 86.9004Z" fill="#262626"/>
<path d="M70.6406 104.11C71.9206 103.75 72.8606 103.49 74.0906 103.15C74.5006 104.7 74.8906 106.18 75.3406 107.86C74.3206 108.13 73.4706 108.35 72.4206 108.62C71.8606 107.19 71.3106 105.81 70.6406 104.1V104.11Z" fill="#262626"/>
</g>
<defs>
<clipPath id="clip0_4923_32006">
<rect width="192" height="192" fill="white"/>
</clipPath>
</defs>
</svg>
