<svg width="192" height="192" viewBox="0 0 192 192" fill="none" xmlns="http://www.w3.org/2000/svg">
<g clip-path="url(#clip0_4926_32715)">
<path d="M96 192C149.019 192 192 149.019 192 96C192 42.9807 149.019 0 96 0C42.9807 0 0 42.9807 0 96C0 149.019 42.9807 192 96 192Z" fill="white"/>
<g clip-path="url(#clip1_4926_32715)">
<path d="M98.0913 76.7397C97.8251 76.7473 97.5569 76.7625 97.2907 76.7625C76.8697 76.7625 56.4488 76.7625 36.0298 76.7625C33.1715 76.7625 30.7905 74.6402 30.4672 71.8066C30.102 68.6003 31.884 65.8028 34.7271 65.1524C35.1246 65.0611 35.5486 65.044 35.9594 65.044C56.4526 65.0383 76.9458 65.0383 97.4409 65.0402C97.6577 65.0402 97.8764 65.0649 98.0932 65.0782C98.0932 68.9654 98.0932 72.8507 98.0932 76.7378L98.0913 76.7397Z" fill="#333D65"/>
<path d="M151.841 94.0633C151.777 94.3828 151.528 94.5463 151.28 94.6965C147.688 96.8664 144.092 99.0268 140.501 101.199C138.448 102.44 136.407 103.705 134.359 104.955C134.1 105.112 133.853 105.304 133.417 105.35C134.188 103.656 134.433 101.948 134.317 100.189C134.142 97.5682 133.239 95.2861 131.189 93.546C130.641 93.0801 130.65 92.6921 131.219 92.2471C134.148 89.9574 135.165 86.1197 133.646 82.784C133.134 81.662 132.43 80.6369 131.403 79.8705C130.426 79.1422 130.551 77.5942 131.533 76.8943C133.76 75.3064 135.043 73.2049 134.726 70.3827C134.6 69.2645 134.087 68.2509 133.408 67.3419C133.294 67.1878 133.121 67.0699 133.147 66.8436L133.153 66.8379C134.787 67.7793 136.428 68.7035 138.05 69.6639C142.175 72.1038 146.292 74.5571 150.411 77.0103C150.676 77.1663 150.99 77.2671 151.138 77.577C150.67 78.8474 150.333 80.1539 150.079 81.4794C149.812 82.8696 149.822 84.2826 149.818 85.688C149.807 88.6395 150.356 91.4693 151.847 94.0652L151.841 94.0633Z" fill="#FBCFA1"/>
<path d="M98.0918 76.7399C98.0918 72.8528 98.0918 68.9675 98.0918 65.0803C98.3333 65.067 98.5767 65.0442 98.8183 65.0442C108.165 65.0423 117.512 65.0404 126.859 65.0442C129.824 65.0442 132.198 67.2464 132.439 70.2093C132.709 73.507 130.785 76.2169 127.807 76.7228C127.616 76.7551 127.419 76.7665 127.227 76.7665C117.611 76.7665 107.998 76.7665 98.3828 76.7665C98.2858 76.7665 98.1888 76.7513 98.0918 76.7437V76.7399Z" fill="#303B67"/>
<path fill-rule="evenodd" clip-rule="evenodd" d="M65.9565 105.347C64.9488 105.349 63.9409 105.356 62.9329 105.362C60.6063 105.378 58.2794 105.394 55.9534 105.354C53.0532 105.305 50.5467 102.671 50.4763 99.7326C50.4022 96.648 52.7242 93.8543 55.6643 93.7136C58.7759 93.5651 61.8937 93.6173 65.0092 93.6694C65.325 93.6747 65.6408 93.68 65.9565 93.685V105.345V105.347ZM108.024 103.429L108.023 103.432L108.023 103.431C107.275 103.433 106.526 103.433 105.778 103.434C103.907 103.436 102.035 103.438 100.165 103.445C99.7825 103.445 99.4079 103.464 99.0218 103.57C98.1744 103.804 97.6087 104.384 97.0408 104.966L97.0407 104.966L97.0406 104.966C96.9025 105.108 96.7643 105.25 96.6218 105.386C94.7496 105.385 92.8776 105.383 91.0057 105.381L91.0041 105.381L91.0024 105.381L90.9978 105.381C87.2517 105.378 83.5058 105.374 79.759 105.369C79.5486 105.369 79.3381 105.363 79.1276 105.356C79.0225 105.352 78.9174 105.349 78.8124 105.347V105.347H65.9566V93.6871H78.812V93.6869C78.8729 93.6833 78.9337 93.6788 78.9944 93.6743C79.1269 93.6644 79.259 93.6546 79.392 93.6546C82.5255 93.6546 85.6588 93.6544 88.792 93.6542C95.0583 93.6538 101.324 93.6533 107.591 93.6546C107.733 93.6546 107.874 93.6658 108.015 93.677L108.015 93.677C108.067 93.6811 108.119 93.6853 108.171 93.6888C108.171 94.4173 108.171 95.1458 108.171 95.8743C108.17 98.0612 108.169 100.248 108.175 102.435C108.175 102.778 108.137 103.108 108.024 103.429L108.024 103.429ZM108.024 103.429C108.137 103.106 108.177 102.778 108.175 102.435C108.169 100.248 108.17 98.0612 108.171 95.8743C108.171 95.1458 108.171 94.4174 108.171 93.6889C108.498 93.6853 108.825 93.6808 109.153 93.6763C109.871 93.6664 110.59 93.6566 111.307 93.6566C112.674 93.6576 114.042 93.6552 115.409 93.6529C119.055 93.6466 122.702 93.6403 126.346 93.6984C129.482 93.7478 131.901 96.4902 131.838 99.7117C131.779 102.777 129.17 105.354 126.101 105.369C125.079 105.374 124.057 105.371 123.036 105.367H123.035L122.524 105.366C122.541 105.295 122.556 105.222 122.571 105.149L122.571 105.149L122.571 105.149C122.604 104.987 122.637 104.824 122.702 104.677C123.199 103.561 123.049 103.264 121.862 103.296C120.52 103.335 119.172 103.352 117.832 103.37L117.233 103.378C115.828 103.397 114.39 103.395 112.971 103.291C112.161 103.232 111.594 103.344 111.461 104.341C111.419 104.647 111.33 105.075 111.1 105.385L110.248 105.379C109.745 104.458 109.13 103.662 108.024 103.429Z" fill="url(#paint0_linear_4926_32715)"/>
<path fill-rule="evenodd" clip-rule="evenodd" d="M117.959 91.043V79.1476C118.791 79.1446 119.624 79.1356 120.456 79.1265C122.298 79.1065 124.14 79.0865 125.98 79.1324C129.356 79.2161 131.691 81.3859 132.043 84.6208C132.391 87.8291 129.723 90.9783 126.492 91.0506C124.519 91.0955 122.546 91.0781 120.572 91.0607L120.572 91.0607C119.701 91.053 118.83 91.0453 117.959 91.043ZM57.7768 91.0519L57.7801 91.0519C58.7523 91.0487 59.7246 91.0456 60.6969 91.043H60.695V79.1476C60.2029 79.1444 59.7106 79.1405 59.2182 79.1366C57.9848 79.1269 56.7507 79.1172 55.5166 79.1172L52.5639 79.1153C47.1502 79.1115 41.7356 79.1078 36.3223 79.1191C32.8687 79.1248 30.1777 81.7644 30.1777 85.1001C30.1796 88.4567 32.8668 91.0658 36.3223 91.0658C38.058 91.0658 39.7935 91.0663 41.529 91.0667H41.5321H41.5323H41.5325H41.5327C45.0022 91.0675 48.4713 91.0684 51.9413 91.0658C53.8854 91.0646 55.8304 91.0582 57.7757 91.0519L57.7768 91.0519ZM114.65 91.0489L117.959 91.043V91.0411V79.1457C117.376 79.1425 116.794 79.138 116.213 79.1336C115.05 79.1247 113.887 79.1159 112.723 79.1171C109.577 79.12 106.431 79.1293 103.284 79.1385L103.284 79.1385C102.237 79.1416 101.189 79.1447 100.141 79.1476V79.1475H88.4514V91.0429L88.4533 91.041H100.141V91.0411C100.65 91.0436 101.158 91.047 101.667 91.0504L101.668 91.0504C102.686 91.0571 103.704 91.0639 104.722 91.0639C108.032 91.061 111.341 91.055 114.65 91.0489ZM88.4511 91.0428H73.5529V79.1474C75.9396 79.1427 78.3263 79.1375 80.713 79.1322C83.0996 79.127 85.4863 79.1218 87.873 79.117C88.0106 79.117 88.1492 79.1268 88.2874 79.1365C88.3421 79.1404 88.3967 79.1442 88.4511 79.1474V91.0428ZM73.5526 91.0429V79.1475H60.6968V91.0429H73.5526Z" fill="url(#paint1_linear_4926_32715)"/>
<path d="M111.103 105.387C111.333 105.078 111.423 104.651 111.464 104.342C111.598 103.344 112.164 103.232 112.974 103.293C114.393 103.397 115.829 103.399 117.236 103.38C118.773 103.359 120.323 103.34 121.865 103.298C123.05 103.266 123.202 103.563 122.706 104.679C122.611 104.892 122.586 105.137 122.527 105.368C122.584 106.012 122.451 106.602 122.261 107.235C121.882 108.504 121.382 109.73 120.983 110.989C120.574 112.277 120.076 113.553 119.583 114.821C119.022 116.265 118.708 117.799 117.594 119.011C116.875 119.792 115.994 120.211 115.053 120.235C111.843 120.321 108.629 120.251 105.417 120.289C104.875 120.294 104.563 119.973 104.23 119.71C103.987 119.518 103.823 119.397 103.618 119.638C103.329 119.979 102.929 119.771 102.595 119.904C101.693 120.266 100.739 120.289 99.7725 120.281C96.0984 120.256 92.4242 120.273 88.75 120.268C88.5123 120.268 88.1966 120.311 88.0483 120.184C87.3104 119.555 86.9833 119.962 86.4337 120.542C85.0664 121.989 83.6781 123.444 81.9076 124.442C81.6033 124.613 81.3808 124.923 81.1145 125.148C80.6087 125.574 80.0286 125.437 79.2052 124.642C78.5015 123.961 77.6115 123.516 76.9877 122.734C76.5865 123.162 76.4857 123.691 76.3811 124.143C76.2137 124.862 75.8695 125.526 75.7592 126.252C75.666 126.853 75.3104 127.042 74.7399 127.006C73.1481 126.905 71.5431 126.924 69.957 126.916C68.4223 126.909 66.8648 126.943 65.3205 126.992C64.2803 127.026 64.1415 126.798 64.4952 125.779C64.6911 125.212 64.7405 124.59 64.963 124.06C65.2654 123.339 65.583 122.622 65.8835 121.897C66.0052 121.603 66.3589 121.686 66.6099 121.7C68.1789 121.783 69.7573 121.761 71.3206 121.776C72.8039 121.791 74.3139 121.776 75.8106 121.694C75.9076 121.688 76.0407 121.717 76.0939 121.665C77.9691 119.834 80.2207 118.375 81.8125 116.278C83.4137 114.167 84.9066 111.955 85.5513 109.304C85.6901 108.736 86.0762 108.384 86.7741 108.405C88.208 108.45 89.6458 108.416 91.0816 108.42C91.9069 108.422 92.3748 109.203 91.8594 109.869C91.3782 110.489 91.2965 111.225 91.0835 111.902C90.899 112.484 90.5358 112.98 90.435 113.612C90.3266 114.306 90.4122 114.551 91.1576 114.557C92.6429 114.566 94.1263 114.561 95.6115 114.561C97.1443 114.561 98.6771 114.561 100.21 114.561C101.094 114.561 101.971 113.973 102.292 113.161C102.677 112.195 102.96 111.194 103.549 110.308C103.954 109.698 103.584 109.179 102.819 109.188C102.114 109.198 101.381 109.021 100.775 109.622C100.33 110.063 100.334 110.723 99.8905 111.17C99.6832 111.381 99.531 111.51 99.242 111.51C97.7092 111.504 96.1763 111.514 94.6435 111.504C94.0255 111.501 93.8011 111.054 94.0749 110.47C94.6588 109.228 95.2103 107.973 95.8055 106.737C96.0337 106.265 96.3475 105.835 96.6214 105.387C97.3478 104.689 97.9678 103.863 99.0214 103.57C99.4074 103.464 99.7821 103.445 100.164 103.445C102.783 103.435 105.404 103.435 108.022 103.432C109.131 103.664 109.747 104.458 110.251 105.383C110.36 105.887 110.466 106.389 110.605 107.032C110.677 106.364 110.869 105.868 111.103 105.387ZM120.983 108.54C119.596 108.538 118.204 108.601 116.824 108.502C116.213 108.458 116.046 108.618 115.877 109.148C115.367 110.742 114.806 112.32 114.228 113.891C113.806 115.036 113.496 115.224 112.275 115.228C110.886 115.234 109.5 115.228 108.112 115.228C106.879 115.228 106.723 114.975 107.206 113.847C108.038 111.906 108.85 109.958 109.667 108.011C110.417 106.229 109.411 103.859 106.984 104.025C104.755 104.177 102.507 104.069 100.269 104.052C99.1088 104.042 98.2093 104.544 97.4714 105.381C96.1764 106.853 95.6553 108.745 94.7538 110.432C94.5104 110.888 94.8927 110.89 95.1969 110.89C96.3171 110.89 97.4372 110.856 98.5554 110.904C99.1507 110.93 99.5006 110.74 99.7497 110.202C100.278 109.063 101.104 108.386 102.456 108.633C102.597 108.659 102.747 108.635 102.893 108.637C104.103 108.646 104.523 109.162 104.114 110.293C103.736 111.339 103.209 112.332 102.789 113.366C102.327 114.504 101.465 115.171 100.292 115.198C97.2756 115.264 94.2556 115.259 91.2394 115.203C89.9614 115.181 89.5221 114.424 89.9386 113.216C90.3589 112.001 90.783 110.788 91.2413 109.588C91.4258 109.104 91.3478 108.937 90.8096 108.949C89.545 108.973 88.2784 108.983 87.0137 108.943C86.4984 108.926 86.2816 109.127 86.1275 109.584C85.6597 110.964 85.0911 112.305 84.3532 113.568C82.5465 116.66 80.1389 119.203 77.2407 121.287C76.7786 121.618 76.8109 121.842 77.2045 122.168C77.7846 122.647 78.3228 123.179 78.9218 123.634C80.7285 125.003 79.9754 125.073 81.9969 123.712C83.7808 122.51 85.3117 121.011 86.6923 119.362C86.8616 119.159 87.0271 118.699 87.4207 119.079C88.0749 119.712 88.887 119.79 89.7218 119.792C92.8122 119.8 95.9044 119.823 98.9947 119.783C100.6 119.762 102.205 119.617 103.686 118.9C104.01 118.744 104.221 118.798 104.439 119.068C104.827 119.549 105.343 119.792 105.965 119.794C108.667 119.794 111.369 119.832 114.07 119.781C115.918 119.747 117.352 118.971 118.058 117.147C119.142 114.34 120.152 111.504 121.091 108.646C121.112 108.608 121.16 108.553 121.148 108.532C121.099 108.448 121.038 108.477 120.986 108.54H120.983ZM107.547 114.561C109.302 114.561 111.004 114.538 112.704 114.574C113.292 114.587 113.556 114.213 113.682 113.813C114.214 112.134 114.737 110.451 115.42 108.823C115.565 108.481 115.35 108.504 115.093 108.507C113.903 108.524 112.712 108.523 111.52 108.515C111.231 108.515 110.886 108.557 110.664 108.422C110.247 108.169 110.204 108.321 110.051 108.694C109.251 110.643 108.403 112.573 107.547 114.561ZM113.083 108.03C113.642 108.03 114.201 108.019 114.76 108.034C115.144 108.045 115.388 107.95 115.509 107.528C115.819 106.457 116.158 105.392 116.531 104.342C116.7 103.867 116.514 103.787 116.114 103.791C114.996 103.797 113.876 103.806 112.758 103.787C112.358 103.78 112.202 103.985 112.094 104.318C111.746 105.379 111.39 106.436 111.025 107.492C110.894 107.868 110.983 108.043 111.404 108.034C111.963 108.02 112.522 108.03 113.081 108.03H113.083ZM67.2071 126.418C67.789 126.418 68.3728 126.412 68.9548 126.42C69.2553 126.424 69.4626 126.329 69.5576 126.019C69.8866 124.955 70.2232 123.894 70.5694 122.837C70.7082 122.413 70.6302 122.194 70.1301 122.2C69.0137 122.213 67.8974 122.217 66.7811 122.194C66.4045 122.187 66.2562 122.39 66.1592 122.681C65.8055 123.736 65.467 124.8 65.1057 125.853C64.9573 126.283 65.1018 126.433 65.5316 126.422C66.0889 126.408 66.648 126.418 67.2071 126.418ZM120.176 103.793C119.594 103.793 119.012 103.799 118.431 103.791C118.094 103.785 117.902 103.917 117.792 104.251C117.438 105.331 117.067 106.406 116.679 107.473C116.519 107.912 116.664 108.039 117.096 108.036C118.187 108.022 119.279 108.011 120.368 108.041C120.808 108.053 121.026 107.903 121.158 107.488C121.498 106.406 121.865 105.329 122.236 104.257C122.373 103.861 122.181 103.789 121.85 103.793C121.293 103.799 120.734 103.793 120.176 103.795V103.793ZM72.8058 126.418C73.363 126.418 73.9221 126.403 74.4793 126.424C74.8692 126.437 75.0879 126.33 75.2096 125.912C75.5215 124.845 75.8771 123.792 76.2518 122.746C76.4172 122.285 76.2689 122.2 75.8391 122.209C74.7722 122.228 73.7053 122.23 72.6404 122.204C72.1782 122.192 71.9405 122.346 71.796 122.799C71.4594 123.858 71.079 124.904 70.6987 125.95C70.558 126.334 70.7158 126.427 71.0581 126.426C71.64 126.42 72.222 126.426 72.8039 126.424L72.8058 126.418Z" fill="#170F07"/>
<path d="M151.842 94.0633C150.351 91.4674 149.801 88.6395 149.813 85.6861C149.818 84.2807 149.807 82.8678 150.073 81.4776C150.328 80.1502 150.667 78.8456 151.132 77.5752C155.632 79.8345 159.951 82.4265 164.371 84.8323C164.812 85.0719 165.245 85.3286 165.707 85.591C161.063 88.4646 156.381 91.1479 151.84 94.0633H151.842Z" fill="#636264"/>
<path d="M36.9845 111.525C36.6003 113.315 36.2485 115.043 35.8054 116.753C35.5391 117.784 35.387 118.841 35.1721 119.885C34.8754 121.325 34.5521 122.761 34.2726 124.204C34.206 124.548 34.0348 124.647 33.7325 124.651C32.9052 124.664 32.0799 124.689 31.2526 124.693C29.9138 124.698 28.5749 124.698 27.2361 124.691C26.2035 124.685 26.0019 124.421 26.2643 123.39C26.4507 122.658 26.5857 121.916 26.7892 121.186C27.0954 120.092 27.2684 118.963 27.5024 117.848C27.9036 115.945 28.3696 114.051 28.6928 112.134C29.0485 110.021 29.7008 107.976 30.0374 105.858C30.277 104.363 30.6307 102.88 30.9483 101.4C31.2032 100.214 31.4447 99.0059 31.7984 97.8306C32.0722 96.9235 32.0875 95.9365 32.3784 95.035C32.6979 94.0442 32.8025 93.0363 32.9413 92.0246C32.9794 91.7545 33.1486 91.6956 33.3845 91.6347C34.09 91.4541 34.7936 91.6062 35.4878 91.6595C37.1024 91.785 38.7131 91.9561 40.3372 91.9428C40.9135 91.9371 41.328 92.5171 41.0827 93.023C40.651 93.913 40.5807 94.9 40.3125 95.83C40.0748 96.661 39.8637 97.5377 39.7572 98.4221C39.7097 98.8138 39.6792 99.1599 39.7895 99.546C40.012 100.322 40.4475 100.482 41.0694 99.9435C41.7312 99.3691 42.1154 98.5875 42.2523 97.766C42.5318 96.1 43.0833 94.5064 43.4314 92.8633C43.5341 92.3821 43.7965 92.1406 44.232 92.2433C45.529 92.5495 46.8697 92.1729 48.1724 92.5913C48.8704 92.8157 49.6615 92.6027 50.4089 92.7777C50.8082 92.8709 50.9452 93.0477 50.9528 93.4034C50.9794 94.5596 50.6009 95.6417 50.2719 96.7219C50.1616 97.0813 50.2035 97.4312 50.1236 97.785C49.7566 99.4053 49.2849 100.999 48.9769 102.638C48.6345 104.452 48.1914 106.286 47.4935 107.988C46.8165 109.639 45.6564 111.055 43.9848 111.885C43.5226 112.113 42.9559 112.183 42.4234 112.086C41.0009 111.827 39.567 111.995 38.1388 111.955C37.6995 111.943 37.2659 111.983 36.9826 111.529L36.9845 111.525ZM36.6459 110.205C37.1176 110.894 37.5074 111.274 38.1768 111.28C39.491 111.287 40.8051 111.335 42.1173 111.394C43.536 111.459 44.6466 110.888 45.5822 109.857C46.883 108.421 47.2976 106.609 47.7388 104.821C48.644 101.168 49.4808 97.4978 50.3765 93.8408C50.4887 93.3786 50.4374 93.2398 49.9543 93.2151C48.5699 93.1447 47.1873 93.0268 45.8028 92.9412C44.0057 92.8309 44.0209 92.8404 43.6158 94.5691C43.2165 96.2655 43.0244 98.0227 42.1439 99.5802C41.8624 100.08 41.4954 100.484 40.9762 100.74C40.2478 101.1 39.7116 100.919 39.354 100.191C39.0136 99.4965 39.0612 98.7568 39.2057 98.0455C39.5328 96.4271 39.8827 94.8106 40.303 93.2132C40.4589 92.6198 40.244 92.5628 39.7724 92.5266C37.8821 92.3802 35.9917 92.2224 34.1033 92.0455C33.7306 92.0113 33.6564 92.1881 33.5917 92.4886C33.1372 94.5767 32.658 96.6591 32.2092 98.7473C31.3363 102.807 30.4824 106.872 29.6152 110.934C28.7062 115.184 27.7914 119.433 26.8729 123.681C26.8006 124.012 26.8425 124.181 27.2418 124.181C29.1398 124.177 31.0377 124.189 32.9337 124.212C33.3616 124.217 33.5936 124.101 33.6906 123.637C34.3277 120.644 34.9914 117.656 35.6494 114.669C35.9613 113.252 36.2808 111.835 36.644 110.205H36.6459Z" fill="#170F07"/>
<path d="M69.84 120.269C68.5506 120.269 67.2593 120.267 65.9699 120.269C65.4907 120.269 65.0191 120.294 64.6026 119.967C64.2146 119.662 63.9122 119.845 63.6213 120.183C62.2064 121.832 60.6431 123.315 58.7794 124.458C58.361 124.715 58.1195 125.2 57.5946 125.329C57.1763 125.432 56.8397 125.331 56.5259 125.057C55.6073 124.247 54.7021 123.424 53.7607 122.642C53.04 122.045 53.137 121.315 53.911 120.775C54.7648 120.178 55.5198 119.438 56.3224 118.767C57.5661 117.728 58.5645 116.462 59.5249 115.182C60.2761 114.181 60.8542 113.056 61.4343 111.937C61.9915 110.865 62.1988 109.665 62.7826 108.606C62.9766 108.252 63.1839 108.124 63.5737 108.13C65.1313 108.147 66.6907 108.134 68.2482 108.14C69.0203 108.141 69.2029 108.364 68.9652 109.127C68.7427 109.847 68.4593 110.551 68.176 111.251C67.8736 112.002 67.6587 112.782 67.3259 113.525C67.014 114.225 67.3183 114.552 68.1094 114.558C69.2048 114.566 70.3021 114.518 71.3956 114.575C72.1867 114.617 72.6584 114.36 72.7382 113.55C72.7839 113.084 73.0558 112.711 73.2099 112.293C73.5617 111.336 73.8546 110.357 74.1303 109.376C74.4308 108.311 74.6229 108.138 75.7088 108.138C77.1199 108.138 78.5328 108.134 79.9439 108.14C80.6799 108.143 80.8378 108.36 80.6894 109.073C80.5943 109.528 80.3509 109.91 80.1417 110.308C79.6834 111.177 79.6986 112.192 79.2593 113.073C78.6983 114.195 78.51 115.475 78.0099 116.591C77.5154 117.696 77.0628 118.978 75.8495 119.622C75.2695 119.93 74.7008 120.278 74.001 120.273C72.6127 120.261 71.2263 120.269 69.8381 120.269H69.84ZM69.7449 119.736C69.7449 119.755 69.7449 119.774 69.7449 119.793C70.8156 119.793 71.8862 119.812 72.9569 119.79C74.9328 119.746 76.4257 118.959 77.1332 117.004C78.0669 114.427 79.0007 111.852 79.942 109.277C80.1132 108.807 79.9439 108.68 79.4837 108.685C78.1943 108.704 76.905 108.704 75.6156 108.685C75.1801 108.678 74.9861 108.824 74.8473 109.254C74.3148 110.891 73.7157 112.508 73.1661 114.14C72.9322 114.836 72.4321 115.184 71.7531 115.206C70.5132 115.25 69.2695 115.273 68.0314 115.201C66.917 115.136 66.4739 114.476 66.8048 113.402C67.2118 112.082 67.7043 110.787 68.1683 109.484C68.4365 108.733 68.4213 108.697 67.6492 108.693C66.4815 108.689 65.31 108.739 64.1462 108.674C63.5034 108.638 63.2599 108.902 63.0736 109.452C62.6229 110.785 62.1094 112.097 61.4019 113.322C59.5249 116.57 57.0565 119.276 53.9604 121.4C53.6599 121.606 53.601 121.731 53.9148 121.99C54.7782 122.699 55.6454 123.409 56.4574 124.175C57.0393 124.723 57.5034 124.709 58.1595 124.257C60.1962 122.855 62.0238 121.237 63.6004 119.339C63.9046 118.974 64.1462 118.85 64.5341 119.25C64.8859 119.613 65.3918 119.719 65.8786 119.729C67.1661 119.752 68.4555 119.736 69.743 119.736H69.7449Z" fill="#170F07"/>
<path d="M44.6417 122.314C43.5729 122.314 42.5003 122.278 41.4335 122.327C40.7184 122.359 40.5853 121.998 40.6823 121.435C40.8173 120.64 41.114 119.872 41.3821 119.13C41.5989 118.533 41.7035 117.9 41.9659 117.308C42.3083 116.536 42.4737 115.684 42.7285 114.872C42.8997 114.325 43.2192 113.971 43.8601 113.975C46.0167 113.982 48.1656 114.216 50.326 114.134C50.8794 114.113 51.0886 114.606 50.8794 115.232C50.2518 117.113 49.6224 118.995 49.0385 120.891C48.9187 121.283 48.6848 121.612 48.5764 122.002C48.4832 122.342 48.1885 122.316 47.9222 122.316C46.8287 122.316 45.7352 122.316 44.6417 122.316V122.314ZM44.5961 121.848C45.545 121.848 46.494 121.838 47.443 121.854C47.8233 121.859 48.0458 121.787 48.1808 121.355C48.8046 119.362 49.4683 117.381 50.1434 115.403C50.3127 114.905 50.2557 114.703 49.6699 114.701C47.772 114.695 45.874 114.654 43.9761 114.604C43.6091 114.595 43.4588 114.752 43.3561 115.074C42.6943 117.158 42.0363 119.242 41.3384 121.315C41.1748 121.8 41.3422 121.857 41.7472 121.852C42.6962 121.84 43.6452 121.848 44.5942 121.848H44.5961Z" fill="#170F07"/>
<path d="M133.147 66.8413C133.124 66.8204 133.101 66.7995 133.08 66.7785C133.095 66.7785 133.116 66.7766 133.124 66.7842C133.137 66.7975 133.143 66.8185 133.152 66.8356L133.147 66.8413Z" fill="#FBCFA1"/>
<path d="M121.091 108.646C120.151 111.504 119.141 114.34 118.057 117.147C117.352 118.971 115.918 119.745 114.069 119.781C111.369 119.832 108.666 119.794 105.964 119.794C105.342 119.794 104.827 119.549 104.439 119.068C104.22 118.796 104.009 118.744 103.686 118.9C102.204 119.617 100.599 119.762 98.9941 119.783C95.9038 119.823 92.8116 119.798 89.7212 119.792C88.8864 119.792 88.0743 119.712 87.4201 119.079C87.0265 118.697 86.8629 119.159 86.6918 119.362C85.3111 121.013 83.7802 122.512 81.9964 123.712C79.9729 125.073 80.726 125.003 78.9212 123.634C78.3222 123.179 77.784 122.647 77.204 122.167C76.8084 121.842 76.778 121.618 77.2401 121.287C80.1403 119.205 82.546 116.66 84.3526 113.568C85.0905 112.305 85.6591 110.966 86.1269 109.584C86.281 109.129 86.4997 108.928 87.0132 108.943C88.2778 108.983 89.5444 108.973 90.809 108.948C91.3472 108.937 91.4252 109.104 91.2407 109.587C90.7824 110.787 90.3564 112.001 89.938 113.216C89.5216 114.424 89.9609 115.18 91.2388 115.203C94.255 115.258 97.275 115.264 100.291 115.198C101.465 115.171 102.326 114.505 102.788 113.366C103.207 112.334 103.733 111.341 104.114 110.293C104.524 109.161 104.102 108.646 102.893 108.637C102.746 108.637 102.596 108.659 102.455 108.633C101.103 108.386 100.278 109.063 99.7491 110.202C99.5 110.74 99.1482 110.93 98.5548 110.903C97.4366 110.854 96.3165 110.89 95.1964 110.89C94.8921 110.89 94.5098 110.89 94.7533 110.432C95.6547 108.745 96.1758 106.853 97.4708 105.381C98.2087 104.544 99.1082 104.042 100.268 104.051C102.507 104.069 104.755 104.175 106.983 104.025C109.41 103.859 110.416 106.231 109.667 108.011C108.849 109.958 108.035 111.906 107.206 113.847C106.723 114.975 106.881 115.228 108.111 115.228C109.499 115.228 110.886 115.232 112.274 115.228C113.495 115.224 113.807 115.036 114.227 113.891C114.805 112.32 115.366 110.742 115.876 109.148C116.045 108.618 116.213 108.458 116.823 108.502C118.204 108.6 119.596 108.538 120.982 108.54C121.018 108.576 121.054 108.61 121.089 108.646H121.091Z" fill="#F1881D"/>
<path d="M113.085 108.029C112.526 108.029 111.967 108.02 111.408 108.033C110.988 108.042 110.9 107.867 111.03 107.491C111.395 106.435 111.75 105.378 112.098 104.317C112.207 103.982 112.363 103.779 112.762 103.786C113.88 103.805 114.999 103.796 116.119 103.79C116.52 103.788 116.705 103.868 116.535 104.342C116.163 105.391 115.824 106.456 115.514 107.527C115.392 107.949 115.149 108.044 114.765 108.033C114.206 108.016 113.647 108.029 113.087 108.029H113.085Z" fill="#F1881D"/>
<path d="M67.2087 126.417C66.6496 126.417 66.0924 126.406 65.5332 126.421C65.1034 126.433 64.9589 126.282 65.1073 125.853C65.4686 124.799 65.8052 123.738 66.1608 122.68C66.2578 122.389 66.408 122.186 66.7827 122.194C67.899 122.216 69.0153 122.213 70.1317 122.199C70.6318 122.194 70.7098 122.412 70.571 122.836C70.2248 123.894 69.8882 124.955 69.5592 126.018C69.4622 126.328 69.2569 126.423 68.9564 126.419C68.3745 126.412 67.7906 126.417 67.2087 126.417Z" fill="#F1881D"/>
<path d="M120.178 103.791C120.735 103.791 121.294 103.795 121.851 103.789C122.182 103.785 122.372 103.858 122.237 104.253C121.866 105.328 121.501 106.402 121.159 107.484C121.03 107.897 120.809 108.049 120.37 108.038C119.28 108.007 118.188 108.019 117.097 108.032C116.665 108.038 116.521 107.91 116.68 107.469C117.068 106.402 117.439 105.328 117.793 104.247C117.903 103.913 118.095 103.783 118.432 103.787C119.014 103.797 119.596 103.789 120.178 103.789V103.791Z" fill="#F1881D"/>
<path d="M72.807 126.418C72.225 126.418 71.6431 126.414 71.0612 126.42C70.7189 126.424 70.561 126.33 70.7017 125.944C71.084 124.9 71.4624 123.852 71.799 122.793C71.9417 122.342 72.1813 122.186 72.6434 122.198C73.7084 122.226 74.7753 122.224 75.8422 122.204C76.272 122.196 76.4203 122.282 76.2548 122.74C75.8802 123.786 75.5246 124.841 75.2127 125.906C75.091 126.325 74.8723 126.431 74.4824 126.418C73.9252 126.399 73.3661 126.412 72.8089 126.414L72.807 126.418Z" fill="#F1881D"/>
<path d="M120.982 108.539C121.034 108.476 121.095 108.448 121.144 108.531C121.155 108.55 121.108 108.606 121.089 108.646C121.053 108.609 121.019 108.575 120.982 108.539Z" fill="#F1881D"/>
<path d="M36.6442 110.205C36.2809 111.835 35.9615 113.252 35.6496 114.668C34.9916 117.658 34.3279 120.644 33.6908 123.637C33.5919 124.101 33.3618 124.215 32.9339 124.211C31.0359 124.188 29.1399 124.177 27.242 124.181C26.8407 124.181 26.8008 124.012 26.873 123.681C27.7916 119.432 28.7063 115.184 29.6153 110.933C30.4844 106.871 31.3364 102.807 32.2093 98.7469C32.6581 96.6588 33.1374 94.5764 33.5919 92.4883C33.6565 92.1897 33.7307 92.011 34.1035 92.0452C35.9919 92.2202 37.8822 92.3799 39.7726 92.5263C40.2423 92.5625 40.4591 92.6195 40.3031 93.2129C39.8829 94.8103 39.5329 96.4268 39.2058 98.0452C39.0613 98.7564 39.0138 99.4962 39.3542 100.19C39.7117 100.919 40.248 101.099 40.9764 100.74C41.4955 100.483 41.8626 100.08 42.144 99.5799C43.0245 98.0224 43.2166 96.2652 43.616 94.5688C44.0229 92.8401 44.0058 92.8306 45.803 92.9409C47.1875 93.0265 48.57 93.1444 49.9545 93.2148C50.4375 93.2395 50.4889 93.3783 50.3767 93.8404C49.481 97.4975 48.6442 101.168 47.739 104.821C47.2959 106.609 46.8813 108.421 45.5824 109.857C44.6486 110.888 43.5361 111.458 42.1174 111.394C40.8052 111.335 39.4911 111.287 38.177 111.279C37.5076 111.276 37.1196 110.895 36.6461 110.205H36.6442Z" fill="#F1881D"/>
<path d="M69.7437 119.735C68.4562 119.735 67.1668 119.75 65.8793 119.727C65.3906 119.718 64.8866 119.611 64.5348 119.248C64.1487 118.848 63.9053 118.972 63.601 119.337C62.0245 121.237 60.195 122.854 58.1601 124.255C57.504 124.706 57.04 124.719 56.4581 124.173C55.646 123.409 54.7788 122.699 53.9155 121.988C53.6036 121.731 53.6606 121.606 53.9611 121.399C57.0571 119.274 59.5275 116.568 61.4026 113.32C62.1101 112.095 62.6216 110.783 63.0743 109.45C63.2606 108.9 63.504 108.636 64.1468 108.672C65.3107 108.737 66.4822 108.687 67.6498 108.691C68.4239 108.695 68.4372 108.729 68.169 109.482C67.705 110.785 67.2124 112.08 66.8055 113.4C66.4746 114.474 66.9177 115.134 68.0321 115.199C69.2682 115.269 70.5139 115.247 71.7538 115.205C72.4308 115.182 72.931 114.834 73.1668 114.138C73.7164 112.506 74.3155 110.89 74.8479 109.252C74.9868 108.822 75.1808 108.676 75.6163 108.684C76.9056 108.705 78.195 108.703 79.4844 108.684C79.9446 108.678 80.1139 108.805 79.9427 109.275C79.0014 111.848 78.0676 114.425 77.1338 117.002C76.4264 118.957 74.9335 119.744 72.9576 119.788C71.8869 119.811 70.8163 119.792 69.7456 119.792C69.7456 119.773 69.7456 119.754 69.7456 119.735H69.7437Z" fill="#F1881D"/>
<path d="M44.5933 121.846C43.6443 121.846 42.6953 121.838 41.7464 121.849C41.3413 121.855 41.174 121.796 41.3375 121.313C42.0354 119.24 42.6934 117.156 43.3553 115.072C43.4579 114.75 43.6082 114.594 43.9752 114.602C45.8732 114.649 47.7711 114.691 49.669 114.699C50.2548 114.701 50.3137 114.902 50.1426 115.401C49.4694 117.378 48.8057 119.36 48.18 121.353C48.045 121.785 47.8225 121.857 47.4421 121.851C46.4931 121.836 45.5442 121.846 44.5952 121.846H44.5933Z" fill="#F1881D"/>
</g>
</g>
<defs>
<linearGradient id="paint0_linear_4926_32715" x1="53.2513" y1="98.1324" x2="127.852" y2="98.1324" gradientUnits="userSpaceOnUse">
<stop stop-color="#FDBE10"/>
<stop offset="1" stop-color="#F1881D"/>
</linearGradient>
<linearGradient id="paint1_linear_4926_32715" x1="30.0815" y1="84.9863" x2="131.959" y2="84.9863" gradientUnits="userSpaceOnUse">
<stop stop-color="#048ECB"/>
<stop offset="1" stop-color="#283F82"/>
</linearGradient>
<clipPath id="clip0_4926_32715">
<rect width="192" height="192" fill="white"/>
</clipPath>
<clipPath id="clip1_4926_32715">
<rect width="140" height="62.1127" fill="white" transform="translate(26 64.9434)"/>
</clipPath>
</defs>
</svg>
