<svg width="192" height="192" viewBox="0 0 192 192" fill="none" xmlns="http://www.w3.org/2000/svg">
<g clip-path="url(#clip0_4926_32667)">
<path d="M96 192C149.019 192 192 149.019 192 96C192 42.9807 149.019 0 96 0C42.9807 0 0 42.9807 0 96C0 149.019 42.9807 192 96 192Z" fill="white"/>
<g clip-path="url(#clip1_4926_32667)">
<path d="M61.6844 117.482C59.4056 117.538 57.3588 117.149 55.3183 116.71C55.2901 116.703 55.2619 116.688 55.2337 116.681C51.1432 115.674 47.222 113.175 44.5013 109.847C44.4449 109.778 44.3884 109.706 44.3446 109.628C44.1314 109.251 43.6581 108.856 43.9214 108.447C44.2192 107.983 44.7301 108.363 45.1501 108.46C47.1624 108.928 49.1528 109.389 51.2466 109.515C55.6443 109.785 59.8194 108.962 63.9193 107.493C68.7839 105.751 73.1534 103.127 77.341 100.141C80.8704 97.6238 84.5158 95.2694 88.0201 92.7173C90.4211 90.9689 92.9255 89.3836 95.361 87.6979C98.6114 85.444 101.928 83.2874 105.213 81.0838C105.608 80.8201 105.984 80.525 106.366 80.2456C107.388 79.5017 108.36 79.6429 109.033 80.6914C110.494 82.9673 111.914 85.2714 113.372 87.5504C113.782 88.1907 113.698 88.6428 113.13 89.1733C111.773 90.4415 110.137 91.3204 108.701 92.4788C106.291 94.4187 103.846 96.3148 101.367 98.1637C98.9374 99.975 96.4549 101.711 93.9818 103.466C91.8285 104.994 89.6437 106.495 87.412 107.889C85.243 109.245 83.1711 110.792 80.8077 111.853C79.532 112.428 78.4287 113.505 77.1153 113.856C75.6766 114.239 74.4918 115.178 72.9966 115.385C72.1566 115.501 71.3636 115.928 70.5424 116.207C69.1663 116.675 67.7182 116.86 66.2983 117.074C64.7185 117.309 63.12 117.62 61.675 117.488L61.6844 117.482Z" fill="#FBBC12"/>
<path d="M53.7766 108.136C49.5388 108.142 45.9906 107.194 42.5301 105.816C41.897 105.565 41.7152 104.956 41.4487 104.454C38.5807 99.0545 37.4648 93.3037 38.239 87.2326C38.5932 84.4482 39.3769 81.7549 40.4959 79.1682C42.5615 74.3811 45.6928 70.3505 49.4698 66.8315C52.7861 63.7426 56.6634 61.5923 61.1018 60.5533C64.5183 59.7528 67.9537 59.6806 71.3828 60.5188C72.4328 60.7762 73.2196 61.4699 74.0408 62.104C77.7019 64.9324 80.6075 68.3446 82.1998 72.7613C82.2092 72.7896 82.2468 72.8115 82.2468 72.8367C82.228 73.229 82.7233 73.6779 82.2938 73.9824C81.8895 74.2712 81.6231 73.7658 81.3253 73.5492C79.3725 72.1272 77.4041 70.7083 75.0501 70.046C72.4297 69.3083 69.7748 69.1576 67.1043 69.8922C64.3679 70.6455 61.9512 71.9765 59.7446 73.7407C56.2622 76.5251 53.4568 79.9059 51.2627 83.7514C49.5826 86.6927 48.4323 89.8726 48.4856 93.3476C48.5295 96.0912 49.3632 98.5931 50.8333 100.916C52.4225 103.421 54.7106 105.148 57.0897 106.796C57.2966 106.937 57.657 106.996 57.5755 107.345C57.5066 107.646 57.1806 107.665 56.9267 107.744C55.7387 108.111 54.5194 108.158 53.7734 108.139L53.7766 108.136Z" fill="#14654E"/>
<path d="M92.8596 122.121C92.7876 118.075 93.2734 114.434 94.1698 110.861C94.662 108.899 95.3986 106.997 95.9972 105.067C96.4831 103.5 97.2322 102.191 98.5393 101.353C100.853 99.865 102.881 98.0286 105.05 96.3712C106.871 94.9805 108.626 93.4989 110.416 92.0674C110.629 91.8979 110.861 91.5181 111.159 91.8226C111.441 92.1114 111.083 92.3719 110.917 92.5854C108.849 95.2223 107.541 98.2546 106.369 101.356C104.034 107.531 103.172 113.947 103.241 120.511C103.272 123.412 103.467 126.312 104.006 129.159C104.645 132.54 106.407 135.425 108.344 138.212C110.337 141.082 112.785 143.43 115.97 144.921C119.239 146.453 122.64 146.832 126.176 145.994C127.662 145.643 129.066 145.081 130.47 144.503C130.658 144.425 130.865 144.086 131.066 144.422C131.185 144.623 131.091 144.88 130.931 145.087C130.075 146.205 129.1 147.212 128.025 148.11C126.605 149.294 125.054 150.282 123.333 150.989C122.349 151.394 121.308 151.507 120.27 151.56C116.669 151.755 113.165 151.142 109.839 149.821C106.601 148.534 103.758 146.566 101.335 144.026C98.4452 140.997 96.0317 137.657 94.662 133.661C93.3423 129.812 92.7092 125.847 92.8596 122.121Z" fill="#14654E"/>
<path d="M42.8679 136.473C42.8334 136.005 43.1406 135.786 43.4916 135.585C46.9678 133.576 50.3279 131.382 53.5815 129.04C56.647 126.833 59.5589 124.416 62.3736 121.892C63.3014 121.06 64.1571 120.15 64.7746 119.042C65.1821 118.317 65.9406 118.119 66.6616 118.084C69.4575 117.949 72.1468 117.306 74.739 116.333C77.046 115.466 79.2746 114.393 81.4499 113.2C83.8791 111.869 86.1735 110.34 88.4492 108.774C88.6247 108.654 88.866 108.406 89.0792 108.642C89.2955 108.88 89.2265 109.229 89.1043 109.496C88.5495 110.711 88.0636 111.972 87.3772 113.109C85.4369 116.308 83.4058 119.44 80.9766 122.31C79.3592 124.221 77.6102 125.985 75.8706 127.778C72.9555 130.779 69.8085 133.516 66.5142 136.056C63.223 138.592 59.7595 140.915 56.3053 143.232C54.409 144.506 52.3684 145.57 50.4094 146.751C49.8358 147.096 49.3938 147.014 49.024 146.484C46.9458 143.505 45.0965 140.375 43.15 137.311C42.9933 137.063 42.8585 136.787 42.871 136.473H42.8679Z" fill="#FBBC12"/>
<path d="M146.154 126.531C146.42 129.651 145.828 132.69 144.994 135.638C143.956 139.304 142.248 142.701 139.556 145.476C138.543 146.521 137.28 147.303 136.029 148.053C133.738 149.425 131.29 150.401 128.629 150.784C128.569 150.793 128.513 150.834 128.457 150.831C127.952 150.818 127.256 151.183 127.018 150.548C126.761 149.864 127.504 149.663 127.936 149.321C129.607 147.996 131.005 146.424 132.045 144.553C133.136 142.597 134.092 140.566 134.763 138.438C135.96 134.643 136.945 130.86 135.591 126.801C134.453 123.389 132.208 120.981 129.55 118.799C126.585 116.363 123.153 114.825 119.577 113.557C118.94 113.331 118.091 113.146 118.034 112.386C117.969 111.558 118.937 111.488 119.467 111.306C123.959 109.759 128.5 108.447 133.343 108.735C137.963 109.012 141.452 111.181 143.787 115.105C145.094 117.299 145.552 119.826 145.984 122.328C146.226 123.725 146.138 125.128 146.154 126.528V126.531Z" fill="#FBBC12"/>
<path d="M141.845 108.275C141.786 108.275 141.726 108.281 141.667 108.275C141.36 108.231 140.946 108.416 140.789 108.023C140.636 107.644 140.99 107.414 141.228 107.22C142.181 106.438 142.971 105.509 143.707 104.533C145.485 102.175 146.174 99.6483 145.375 96.6567C144.262 92.5037 142.2 88.856 139.955 85.268C137.442 81.2468 134.646 77.4359 131.574 73.8259C131.069 73.2326 131.191 72.7618 131.806 72.3411C133.451 71.2111 135.285 70.4137 136.984 69.3778C138.25 68.6056 139.645 68.0562 140.871 67.1961C141.767 66.5652 142.331 66.7158 142.986 67.5948C144.833 70.0778 146.563 72.6519 148.061 75.3515C149.459 77.866 150.656 80.4997 151.663 83.215C152.38 85.1487 153.098 87.0887 153.452 89.1103C153.941 91.8947 154.18 94.6948 153.854 97.5514C153.318 102.235 150.619 105.11 146.553 107.041C145.043 107.76 143.497 108.171 141.849 108.275H141.845Z" fill="#FBBC12"/>
<path d="M129.607 64.76C126.924 64.873 124.432 63.9972 122.041 62.7886C119.273 61.3886 116.74 61.9348 114.455 63.7712C112.08 65.6829 110.111 68.0215 108.058 70.2629C107.575 70.7902 107.093 71.3207 106.657 71.8889C106.196 72.4885 105.883 72.3284 105.641 71.7445C105.187 70.6427 104.754 69.5346 104.319 68.4233C103.309 65.8399 102.309 63.2564 101.3 60.6729C100.714 59.1755 100.109 57.6813 99.5292 56.1808C99.3693 55.7633 99.4007 55.4274 99.852 55.1104C102.272 53.4215 104.942 52.8847 107.839 53.2269C110.597 53.5534 112.96 54.8059 115.098 56.457C117.787 58.5351 121.577 58.5759 124.36 56.6611C126.106 55.4588 127.266 53.7668 128.432 52.078C129.905 49.9434 131.256 47.7303 132.265 45.3257C132.366 45.0872 132.501 44.9114 132.783 44.9082C133.084 44.9051 133.171 45.1343 133.278 45.3509C135.569 50.0689 137.857 54.787 140.155 59.502C140.462 60.1329 140.261 60.5818 139.763 60.9836C136.81 63.3537 133.497 64.7569 129.611 64.7631L129.607 64.76Z" fill="#14654E"/>
<path d="M95.1418 55.2798C92.4932 55.0318 89.8885 55.5121 87.3778 56.4255C86.0143 56.9247 84.7385 57.6623 83.8045 58.8489C83.7293 58.9431 83.6446 59.0279 83.5631 59.1126C82.7294 59.9884 82.419 59.9665 81.8956 58.8584C80.7641 56.4569 79.6764 54.0335 78.5731 51.6164C77.78 49.8805 77.0435 48.1163 76.1815 46.4149C75.7677 45.5987 75.915 44.9552 76.4542 44.3713C78.0622 42.626 80.0181 41.5053 82.3407 40.8932C86.3465 39.8353 90.1831 40.686 94.0542 41.6058C95.4584 41.9417 95.7875 42.965 96.0916 44.1045C96.7059 46.4086 97.3015 48.7159 97.9534 51.0074C98.2387 52.0088 98.6963 52.96 98.9063 53.9864C99.1257 55.06 98.9596 55.2766 97.8751 55.2798C96.9786 55.2829 96.0821 55.2798 95.1418 55.2798Z" fill="#FBBC12"/>
<path d="M141.34 99.9655C142.118 99.9655 142.895 99.9498 143.669 99.9686C144.647 99.9937 144.879 100.342 144.534 101.284C143.907 102.995 142.914 104.464 141.582 105.707C140.641 106.586 139.601 107.327 138.516 108.011C138.074 108.29 137.616 108.256 137.137 108.14C132.219 106.953 127.433 107.606 122.69 109.119C121.126 109.618 119.596 110.183 118.104 110.858C117.876 110.962 117.628 111.037 117.437 110.849C117.192 110.61 117.268 110.281 117.355 110.004C117.653 109.075 118.242 108.312 118.879 107.6C121.173 105.019 124.057 103.353 127.27 102.182C131.818 100.524 136.566 100.166 141.34 99.9561V99.9655Z" fill="#14654E"/>
<path d="M91.9136 87.7854C92.1863 88.9186 91.3306 89.3455 90.6191 89.8195C88.9892 90.9025 87.2119 91.8034 85.7231 93.0528C84.0336 94.4717 82.062 95.4731 80.4133 96.9296C80.2252 97.096 79.9212 97.479 79.661 97.2498C79.3852 97.0018 79.5639 96.6094 79.7112 96.2641C80.0716 95.404 80.7832 94.7793 81.1812 93.9506C81.7078 92.8519 82.3065 91.7815 82.7391 90.6482C83.6794 88.1966 84.3502 85.6539 84.6323 83.0422C84.9269 80.3111 84.9677 77.5958 84.1621 74.8899C83.7076 73.3674 83.2876 71.8387 82.5541 70.448C81.6138 68.6619 80.5324 66.9511 79.1438 65.4568C78.9934 65.2967 78.5953 65.0927 78.8429 64.8165C79.078 64.5559 79.3727 64.7757 79.6266 64.9703C81.758 66.612 83.7484 68.4202 85.3626 70.5673C86.5568 72.1526 87.5975 73.8571 88.5065 75.6464C89.732 78.0604 90.6003 80.5874 91.1708 83.218C91.4967 84.7247 91.6691 86.266 91.9105 87.7948L91.9136 87.7854Z" fill="#FBBC12"/>
</g>
</g>
<defs>
<clipPath id="clip0_4926_32667">
<rect width="192" height="192" fill="white"/>
</clipPath>
<clipPath id="clip1_4926_32667">
<rect width="116" height="111.2" fill="white" transform="translate(38 40.4004)"/>
</clipPath>
</defs>
</svg>
