<svg width="192" height="192" viewBox="0 0 192 192" fill="none" xmlns="http://www.w3.org/2000/svg">
<g clip-path="url(#clip0_4885_43208)">
<path d="M96 192C149.019 192 192 149.019 192 96C192 42.9807 149.019 0 96 0C42.9807 0 0 42.9807 0 96C0 149.019 42.9807 192 96 192Z" fill="white"/>
<path d="M161.528 80.1254C160.528 69.8354 163.118 59.4654 166.968 50.0254C165.888 64.6054 169.158 79.1054 168.388 93.7254C167.818 106.815 165.588 121.335 155.768 130.895C149.128 137.295 139.178 136.825 130.778 135.215C129.398 137.235 127.878 139.175 126.158 140.935C124.448 139.775 122.748 138.635 121.038 137.495C119.808 138.855 118.718 140.405 117.178 141.455C115.198 140.385 113.588 138.745 111.918 137.255C113.068 134.075 114.978 131.165 117.298 128.715C119.128 129.975 120.608 131.645 122.128 133.225C123.438 131.175 124.838 129.175 126.438 127.325C128.358 128.855 130.078 130.625 131.358 132.745C142.128 133.875 150.768 126.055 156.728 118.035C159.468 113.165 162.048 107.985 162.448 102.315C163.048 94.9154 162.138 87.4954 161.528 80.1254Z" fill="#3B2C63"/>
<path d="M91.6178 132.825C81.9878 138.515 69.6378 140.545 59.3878 135.275C55.2178 133.595 51.9078 130.435 49.4978 126.685C45.2878 121.945 42.9578 115.815 42.1978 109.545C36.7678 109.685 32.2178 113.105 28.2878 116.505C26.8278 117.585 25.5778 119.645 23.5078 119.215C24.4478 116.265 24.8378 115.065 25.9578 113.125C29.1178 106.835 35.1078 102.685 41.2478 99.6355C41.1878 88.9255 45.7978 78.4355 53.0278 70.6455C55.7278 66.2655 59.6378 62.9355 63.9078 60.1555C71.5178 53.7455 81.6678 51.8455 91.2778 51.3655C99.6078 52.9955 108.628 56.6555 112.758 64.5955C116.408 71.9155 118.458 80.9855 114.738 88.6955C111.148 96.3455 103.808 101.015 97.6678 106.425C89.6278 111.585 79.2278 114.355 69.9378 111.085C66.6978 108.995 65.0678 114.675 62.1878 113.925C58.4478 108.525 51.6378 108.235 45.6978 108.205C45.9378 109.865 46.1878 111.515 46.4478 113.175C50.7678 120.575 58.6278 125.175 66.9578 126.495C77.4078 128.735 88.2078 124.925 96.7378 118.985C111.898 109.255 121.578 93.0855 136.688 83.3055C142.288 78.2455 149.498 74.9655 157.088 74.4855C158.708 78.1855 158.268 82.2855 158.458 86.2155C144.558 85.3555 133.338 95.2355 124.328 104.595M108.018 121.545C108.018 121.545 115.318 114.575 116.958 113.095C121.238 108.615 125.628 104.195 130.318 100.155C130.318 100.155 132.258 98.4855 132.438 97.9255C139.428 92.6555 147.548 87.1655 156.718 88.1355C159.578 90.4755 158.138 94.5255 158.458 97.6855C145.758 97.0655 134.988 105.455 126.528 114.025C121.058 118.935 117.498 123.595 112.318 129.005C105.748 133.955 100.308 135.125 95.7778 132.005M44.8078 98.2355C48.4178 97.1855 52.1778 97.4055 55.8678 96.9855C59.2878 95.5255 60.6978 91.6955 63.7778 89.7455C65.0878 94.4855 67.0078 99.8155 72.0978 101.655C77.3078 103.075 82.6378 102.725 87.7978 101.435C94.4178 99.7755 100.478 96.3855 105.638 91.9055C107.398 90.3755 109.038 88.7355 110.328 86.7755C112.648 83.3755 111.888 78.9955 110.818 75.2955C108.268 67.9755 101.828 62.1955 94.2778 60.4355C71.2878 56.7255 47.2778 75.1055 44.8178 98.2355H44.8078Z" fill="#3B2C63"/>
<path d="M122.138 133.225L117.308 128.715L111.928 137.255L117.438 141.825L123.038 134.315L122.138 133.225Z" fill="#3B2C63"/>
<path d="M82.9971 66.7353L78.1771 73.9353C77.9571 74.2653 77.9971 74.7153 78.2671 75.0053L82.3371 79.2453C82.7071 79.6353 83.3471 79.5853 83.6571 79.1453L86.7971 74.6253C88.1371 72.6953 87.8871 70.0653 86.1971 68.4253L84.3071 66.5953C83.9271 66.2253 83.2971 66.2853 82.9971 66.7353Z" fill="#3B2C63"/>
<path d="M89.1085 78.1055L84.2885 85.3054C84.0685 85.6354 84.1085 86.0854 84.3785 86.3754L88.4485 90.6155C88.8185 91.0055 89.4585 90.9554 89.7685 90.5154L92.9085 85.9955C94.2485 84.0655 93.9985 81.4355 92.3085 79.7955L90.4185 77.9655C90.0385 77.5955 89.4085 77.6555 89.1085 78.1055Z" fill="#3B2C63"/>
<path d="M149.708 104.715L144.888 111.915C144.668 112.245 144.708 112.695 144.978 112.985L149.048 117.225C149.418 117.615 150.058 117.565 150.368 117.125L153.508 112.605C154.848 110.675 154.598 108.045 152.908 106.405L151.018 104.575C150.638 104.205 150.008 104.265 149.708 104.715Z" fill="#3B2C63"/>
<path d="M77.3878 79.8955L72.5678 87.0955C72.3478 87.4255 72.3878 87.8755 72.6578 88.1655L76.7278 92.4055C77.0978 92.7955 77.7378 92.7455 78.0478 92.3055L81.1878 87.7855C82.5278 85.8555 82.2778 83.2255 80.5878 81.5855L78.6978 79.7555C78.3178 79.3855 77.6878 79.4455 77.3878 79.8955Z" fill="#3B2C63"/>
</g>
<defs>
<clipPath id="clip0_4885_43208">
<rect width="192" height="192" fill="white"/>
</clipPath>
</defs>
</svg>
