<svg width="192" height="192" viewBox="0 0 192 192" fill="none" xmlns="http://www.w3.org/2000/svg">
<g clip-path="url(#clip0_4885_43564)">
<path d="M96 192C149.019 192 192 149.019 192 96C192 42.9807 149.019 0 96 0C42.9807 0 0 42.9807 0 96C0 149.019 42.9807 192 96 192Z" fill="white"/>
<path d="M83.5363 102.967C83.4063 102.967 83.2863 102.967 83.1563 102.967C82.4863 103.137 82.3263 102.857 82.3363 102.207C82.3763 99.4466 82.3563 96.6866 82.3663 93.9266C82.3663 92.1966 82.3863 90.4766 82.3563 88.7466C82.3263 87.2766 81.8063 86.6466 80.5663 86.6266C77.6663 86.5866 74.7563 86.5366 71.8663 86.6466C69.9263 86.7266 67.9463 88.4466 67.9063 90.5166C67.8263 93.9966 67.8863 97.4866 67.8663 100.967C67.8663 101.997 68.3563 102.957 68.9663 103.537C69.7963 104.337 70.8963 104.997 72.2563 104.897C73.1563 104.827 74.0763 104.807 74.9863 104.957C75.7063 105.077 75.9763 105.617 76.1063 106.177C76.2363 106.697 75.9663 107.007 75.5563 107.117C74.6763 107.357 73.9363 107.177 73.2363 107.297C72.6663 107.397 72.0263 107.447 72.0363 108.167C72.0463 108.887 72.7063 108.997 73.2463 109.007C74.9763 109.047 76.7163 109.037 78.4463 109.007C80.0363 108.977 81.7063 107.357 81.9963 106.187C82.3063 104.877 82.3563 104.857 83.6863 104.857C92.1763 104.877 100.656 104.887 109.146 104.907C110.416 104.907 110.426 104.887 110.406 103.687C110.406 98.7266 110.436 93.7666 110.426 88.8066C110.426 88.3766 110.306 87.9366 110.176 87.5266C110.026 87.0366 109.556 86.7066 109.136 86.7366C108.456 86.7766 107.796 86.6566 107.116 86.6566C100.716 86.6866 94.3063 86.6766 87.9063 86.6766C87.0363 86.6766 86.2663 87.2866 86.2463 88.1366C86.2063 90.6466 86.1963 93.1566 86.2463 95.6666C86.2563 96.2766 86.6263 96.9266 87.3263 96.9666C88.5163 97.0366 89.7263 96.9966 90.9163 96.9366C91.5963 96.8966 92.1063 96.6166 92.2563 95.7966C92.3963 95.0766 92.3463 94.3666 92.3663 93.6466C92.3763 92.8666 92.7263 92.4266 93.5563 92.4266C96.8963 92.4266 100.246 92.4466 103.586 92.4266C104.236 92.4266 104.406 92.7266 104.406 93.2866C104.396 93.9766 104.386 94.6666 104.406 95.3566C104.496 97.3266 104.296 99.2866 104.576 101.257C104.806 102.847 104.706 102.867 103.226 102.947M83.9163 102.947C83.7863 102.947 83.6663 102.947 83.5363 102.947H83.9163ZM103.226 102.947H102.466C102.466 102.997 102.466 103.067 102.466 103.127C102.466 103.067 102.466 103.007 102.466 102.947C96.2863 102.947 90.1063 102.947 83.9163 102.947M76.0163 101.527C75.9163 102.217 75.6663 103.047 75.0263 103.017C74.3963 102.987 74.0363 102.217 74.0563 101.437C74.0963 100.057 74.0663 98.6866 74.0663 97.3066C74.0663 96.0866 74.0663 94.8666 74.0663 93.6466C74.0663 93.3366 74.1063 93.0266 74.1563 92.7166C74.2463 92.1966 74.4763 91.7566 75.0563 91.6966C75.7063 91.6266 75.7863 92.2366 75.9363 92.6266C76.2863 93.5266 76.1163 94.5166 76.1263 95.4466C76.1563 97.4766 76.2863 99.5066 76.0063 101.537L76.0163 101.527Z" fill="#F69200"/>
<path d="M158.435 88.2765C158.435 87.5665 158.165 87.0865 157.385 86.8465C156.475 86.5665 155.585 86.7065 154.685 86.6865C152.825 86.6465 152.306 87.2065 152.306 89.0765C152.306 93.4065 152.285 97.7365 152.306 102.067C152.306 102.707 152.115 102.997 151.435 102.947C150.775 102.897 150.105 102.887 149.455 102.947C148.775 102.997 148.625 102.737 148.635 102.087C148.665 97.8465 148.655 93.6165 148.655 89.3765C148.655 88.9365 148.655 88.4965 148.595 88.0665C148.475 87.1865 147.895 86.7065 147.005 86.6865C146.215 86.6765 145.425 86.7265 144.645 86.6765C142.905 86.5665 142.495 87.3665 142.485 88.8465C142.465 91.0465 142.485 93.2365 142.485 95.4365C142.485 98.6365 142.515 101.837 142.475 105.037C142.455 106.387 142.285 106.907 140.515 107.107C140.025 107.167 139.516 107.227 139.056 107.407C138.746 107.527 138.425 107.727 138.395 108.207C138.355 108.717 138.735 108.697 138.995 108.877C139.315 109.097 139.665 109.047 139.995 109.057C141.255 109.077 142.515 109.067 143.775 109.067C146.195 109.067 147.715 108.007 148.515 105.757C148.675 105.297 148.845 104.957 149.485 104.967C151.845 104.987 154.215 104.917 156.575 104.897C157.915 104.887 158.505 104.317 158.505 102.977C158.505 100.627 158.505 98.2665 158.505 95.9165C158.485 95.9165 158.475 95.9165 158.455 95.9165C158.455 93.3765 158.455 90.8365 158.455 88.2965L158.435 88.2765Z" fill="#F69200"/>
<path d="M53.7259 88.0865C53.7059 87.6565 53.6359 87.2165 53.3159 86.9665C53.0659 86.7665 52.7159 86.7265 52.3959 86.7065C51.4659 86.6465 50.5459 86.6365 49.6159 86.6765C49.2159 86.6965 48.7959 86.7265 48.4459 86.9265C47.6359 87.3865 47.5459 88.4965 47.5459 89.4265C47.5459 93.6065 47.5659 97.7965 47.5659 101.977C47.5659 102.277 47.5459 102.617 47.3059 102.797C47.1459 102.917 46.9259 102.917 46.7259 102.917C41.4659 102.917 36.2159 102.917 30.9559 102.917C30.6359 102.917 30.2859 102.907 30.0659 102.687C29.8259 102.457 29.8159 102.087 29.8159 101.757C29.8159 97.5065 29.8159 93.2565 29.8159 89.0065C29.8159 88.3665 29.7859 87.6465 29.3359 87.1965C28.9559 86.8165 28.3759 86.7265 27.8459 86.6665C26.7559 86.5365 25.5359 86.4765 24.5159 86.9565C24.2659 87.0665 24.0359 87.2165 23.8359 87.3965C23.5459 87.6565 23.5759 87.8165 23.5659 88.1965V90.5365C23.5359 93.1465 23.5159 95.7465 23.5059 98.3565C23.5059 99.5465 23.4959 100.767 23.8359 101.907C24.1759 103.047 24.9159 104.137 26.0159 104.597C26.7559 104.907 27.5959 104.917 28.3959 104.917C35.0659 104.917 41.7259 104.927 48.3959 104.937C49.8259 104.937 51.2659 104.937 52.6959 104.827C52.9959 104.807 53.3159 104.767 53.5259 104.557C53.7659 104.317 53.7759 103.937 53.7759 103.597C53.7759 98.5065 53.7659 93.4165 53.7559 88.3365C53.7559 88.2565 53.7559 88.1865 53.7559 88.1065L53.7259 88.0865Z" fill="#F69200"/>
<path d="M62.0649 78.0667C61.4049 78.0667 60.7349 78.1167 60.0849 78.0667C58.1849 77.9167 57.7349 78.7567 57.7349 80.4467C57.7549 87.9067 57.7349 95.3767 57.7349 102.837C57.7349 103.057 57.7249 103.277 57.7349 103.497C57.8149 104.397 58.3249 104.887 59.2449 104.917C60.1249 104.947 61.0049 104.947 61.8949 104.947C63.4749 104.947 63.9849 104.417 63.9849 102.807C63.9849 99.0467 63.9849 95.2767 63.9849 91.5167C63.9849 87.6567 63.9849 83.7967 63.9849 79.9467C63.9849 78.7267 63.2949 78.0667 62.0649 78.0667Z" fill="#F69200"/>
<path d="M134.386 79.7267C134.336 79.1067 134.156 78.3067 133.366 78.2067C132.316 78.0667 131.306 78.0067 130.236 78.0567C128.716 78.1167 128.166 78.6367 128.166 80.1567C128.166 83.9867 128.166 87.8167 128.166 91.6367C128.166 95.4667 128.166 99.2967 128.166 103.117C128.166 104.477 128.646 104.937 130.036 104.937C130.796 104.937 131.546 104.957 132.306 104.937C133.956 104.867 134.436 104.147 134.436 102.787C134.396 95.3467 134.416 87.9167 134.416 80.4767C134.416 80.2267 134.416 79.9567 134.396 79.7267H134.386Z" fill="#F69200"/>
<path d="M168.456 80.1467C168.386 78.5067 167.676 78.0967 165.876 78.1867C165.496 78.2067 165.216 78.2067 164.776 78.1867C163.086 78.1567 162.246 78.4467 162.246 80.0967C162.246 83.9267 162.246 87.7467 162.246 91.5767C162.246 95.4667 162.246 99.3567 162.246 103.247C162.246 104.367 162.616 104.777 163.726 104.857C164.606 104.917 165.496 104.857 166.366 104.927C167.776 105.027 168.476 104.327 168.476 102.737C168.476 96.8667 168.476 91.0067 168.476 85.1367C168.476 83.4767 168.526 81.8067 168.466 80.1467H168.456Z" fill="#F69200"/>
<path d="M122.735 86.7066C121.885 86.6966 121.035 86.7066 120.185 86.7066C119.605 86.7066 119.135 86.9366 118.745 87.3566C118.235 87.9366 118.375 88.6466 118.365 89.3066C118.345 93.9666 118.335 98.6366 118.365 103.297C118.365 104.457 118.395 105.607 118.005 106.717C117.385 107.037 116.685 106.997 116.025 107.127C115.345 107.257 114.215 107.207 114.255 108.187C114.295 109.047 115.295 108.997 116.005 109.007C117.295 109.027 118.595 109.097 119.875 109.007C122.725 108.787 124.525 107.317 124.445 104.367C124.375 101.577 124.385 98.7866 124.395 96.0066C124.405 93.5066 124.255 90.9966 124.495 88.4966C124.585 87.5866 123.655 86.7366 122.715 86.7166L122.735 86.7066Z" fill="#F69200"/>
<path d="M98.6059 84.1367C99.0159 84.1367 99.4259 84.1367 99.8359 84.1367C101.076 84.1267 101.696 83.5667 101.746 82.3567C101.786 81.5467 101.776 80.7267 101.746 79.9067C101.696 78.6667 101.116 78.1067 99.8859 78.0567C99.4159 78.0367 98.9359 78.0567 98.4659 78.0567C95.9259 78.0267 95.5359 78.5167 95.5059 81.0067C95.4659 83.8167 96.0259 84.3067 98.6059 84.1467V84.1367Z" fill="#F69200"/>
<path d="M145.746 84.1466C146.266 84.0566 146.976 84.3466 147.626 84.0366C148.776 83.4766 148.656 82.4166 148.686 81.3766C148.746 78.7366 148.426 77.9666 145.436 78.0266C143.026 78.0766 142.436 78.6266 142.456 81.0266C142.476 83.6366 142.726 84.2966 145.746 84.1466Z" fill="#F69200"/>
<path d="M41.4258 108.087C40.5258 107.887 39.5558 107.777 38.6458 107.877C37.6558 107.987 36.5358 108.047 36.3258 109.527C36.1958 110.497 36.2058 111.457 36.2358 112.417C36.2658 113.277 37.0258 113.857 37.9058 113.907C38.3758 113.937 38.8458 113.957 39.3258 113.977C39.3258 113.977 39.3258 113.967 39.3258 113.957C39.7658 113.957 40.2058 113.957 40.6458 113.957C41.6658 113.957 42.3558 113.367 42.4058 112.357C42.4558 111.447 42.4558 110.537 42.4058 109.627C42.3758 108.947 42.1158 108.237 41.4258 108.077V108.087Z" fill="#F69200"/>
<path d="M155.616 108.427C154.026 107.487 152.376 107.997 150.736 108.157C150.656 108.157 150.596 108.337 150.516 108.427C149.826 109.147 150.056 110.047 150.056 110.897C150.046 113.867 150.096 113.907 153.106 113.907C153.576 113.907 154.046 113.907 154.516 113.907C155.476 113.887 156.176 113.247 156.206 112.307C156.236 111.307 156.186 110.307 156.176 109.307C156.176 108.897 155.986 108.647 155.616 108.427Z" fill="#F69200"/>
</g>
<defs>
<clipPath id="clip0_4885_43564">
<rect width="192" height="192" fill="white"/>
</clipPath>
</defs>
</svg>
