<svg width="192" height="192" viewBox="0 0 192 192" fill="none" xmlns="http://www.w3.org/2000/svg">
<g clip-path="url(#clip0_4885_43831)">
<path d="M96 192C149.019 192 192 149.019 192 96C192 42.9807 149.019 0 96 0C42.9807 0 0 42.9807 0 96C0 149.019 42.9807 192 96 192Z" fill="white"/>
<path d="M57.0305 112.66C54.1723 110.239 51.5328 108.066 48.9517 105.813C46.2175 103.422 43.527 100.986 41.026 98.3542C40.7927 98.1063 40.5813 97.6032 40.1438 97.8365C39.7938 98.0188 39.823 98.4854 39.823 98.8719C39.823 104.063 39.8448 109.247 39.8157 114.439C39.8157 115.321 40.1292 115.54 40.9677 115.525C44.4092 115.474 47.8507 115.503 51.2922 115.467C52.1891 115.46 52.8744 115.715 53.5525 116.342C55.7181 118.34 57.9711 120.257 60.2241 122.241C59.6481 122.649 59.1158 122.474 58.62 122.474C52.7213 122.489 46.8299 122.503 40.9312 122.459C39.8959 122.452 39.5532 122.715 39.5678 123.794C39.6261 129.073 39.5678 134.359 39.6188 139.638C39.6334 140.841 39.4511 141.322 38.0439 141.278C34.5149 141.169 30.9713 141.3 27.435 141.315C26.9392 141.315 26.2829 141.585 26.21 140.622C26.1517 139.842 26.5163 139.711 27.1433 139.536C30.3005 138.668 31.0515 137.618 31.0588 134.322C31.0734 127.111 30.9786 119.893 31.1754 112.682C31.3577 106.127 31.0588 99.5864 31.0004 93.0388C30.964 89.5171 30.5921 89.0431 27.0923 88.0953C26.3413 87.8911 25.9184 87.6724 26.0132 86.8047C26.0715 86.287 26.21 86.0391 26.7496 86.0172C27.5006 85.9954 28.2516 85.8641 29.0026 85.8641C33.4357 85.8495 37.8689 85.8933 42.302 85.8277C43.4322 85.8131 44.1613 86.1047 44.8977 87.0162C48.6017 91.6024 52.612 95.9189 56.6659 100.192C57.067 100.614 57.3586 100.994 57.3586 101.643C57.3295 105.172 57.3003 108.708 57.0232 112.645L57.0305 112.66Z" fill="#262626"/>
<path d="M146.844 59.4106C148.266 60.9345 148.04 62.8011 147.807 64.5947C147.508 66.8988 146.655 69.057 145.612 71.1278C145.291 71.7694 145.218 72.2215 145.729 72.8704C147.202 74.7224 147.296 77.0556 147.216 79.2066C147.049 83.6251 148.653 87.2854 151.212 90.6831C151.854 91.5289 152.437 92.4185 153.21 93.2132C153.137 91.23 152.575 89.3925 151.766 87.6499C150.264 84.398 148.726 81.1606 148.39 77.5295C148.084 74.2339 147.661 70.9528 147.953 67.6133C148.23 69.9611 148.558 72.309 148.762 74.6641C149.097 78.5649 150.14 82.2397 151.977 85.6958C154.252 89.9831 155.149 94.7371 156.425 99.3452C157.089 101.737 157.832 104.085 159.101 106.483C159.196 106.133 159.247 106.024 159.247 105.915C159.276 104.894 159.05 103.669 160.29 103.246C161.493 102.838 162.171 103.917 162.827 104.653C164.088 106.061 165.299 107.621 165.517 109.539C165.78 111.821 166.064 114.227 163.622 115.794C162.929 116.239 162.462 117.027 161.843 117.603C160.917 118.47 159.91 119.017 158.744 117.982C158.554 117.814 158.379 117.734 158.117 117.814C155.849 118.529 154.719 116.917 153.669 115.452C152.626 114.008 152.823 112.142 153.902 110.691C154.099 110.428 154.318 110.049 154.58 109.991C156.52 109.568 155.805 108.343 155.499 107.198C154.909 105.018 154.26 102.852 153.793 100.643C152.969 96.7276 150.993 93.3736 148.828 90.1071C146.968 87.2999 146.093 84.2595 146.246 80.8909C146.319 79.3378 146.268 77.7775 146.217 76.2244C146.181 74.9703 145.743 73.8401 144.934 72.6662C144.008 74.0005 143.155 75.2692 142.273 76.5088C140.413 79.1191 138.357 81.5908 136.739 84.3615C136.265 85.1709 135.834 86.0312 135.587 86.9281C135.368 87.7301 135.091 87.8832 134.245 87.8322C132.867 87.752 132.852 87.2489 133.297 86.1844C134.624 82.9908 136.928 80.4825 139.05 77.8431C140.049 76.6035 141.062 75.3859 142.069 74.1609C141.988 74.0589 141.908 73.9568 141.828 73.8547C140.508 74.7224 139.123 75.5171 137.883 76.4869C136.68 77.4348 134.755 77.5004 134.157 79.4982C132.189 77.9962 131.598 75.5973 130.337 73.3516C129.958 75.2328 129.673 76.9608 129.25 78.6524C128.485 81.7585 127.69 84.8646 125.991 87.6353C125.495 88.4374 124.985 89.1957 124.249 89.83C123.191 90.7342 122.593 91.9518 122.149 93.2788C121.704 94.6131 120.705 94.8392 119.64 93.9788C119.196 93.6215 119.086 93.3372 119.4 92.8049C121.733 88.8603 122.703 84.2959 125.08 80.3659C125.488 79.6878 125.328 78.8857 125.313 78.142C125.255 75.0797 125.116 72.0173 125.831 68.9987C126.29 67.0446 127.056 65.2364 128.412 63.7343C129.272 62.7719 130.264 62.0282 131.642 61.8969C132.32 61.8313 133.02 61.5542 133.632 61.2261C135.535 60.2126 135.689 58.1783 134.019 56.8294C133.8 56.6545 133.625 56.5378 133.282 56.618C128.354 57.7482 123.906 54.1754 123.862 49.1152C123.847 47.1466 124.394 45.4914 126.159 44.4123C126.45 44.2373 126.713 44.0477 126.691 43.654C126.633 42.2614 127.406 41.4812 128.631 41.0364C129.192 40.8323 129.527 40.3583 129.943 39.9792C131.299 38.7396 133.107 38.623 134.609 39.6656C135.302 40.1469 135.995 40.6427 136.717 41.0729C138.277 41.9989 138.663 42.8228 138.204 44.5946C137.825 46.0456 137.373 47.482 136.972 48.9329C136.811 49.5017 136.571 50.1141 136.017 50.2527C134.245 50.6974 134.821 51.9005 135.309 52.7536C137.329 56.2461 139.458 59.7022 144.431 60.1251C143.184 60.8543 142.244 60.5116 141.485 60.1762C137.971 58.6231 135.565 55.8889 133.953 52.4765C133.53 51.587 133.574 50.5006 133.18 49.5162C132.736 48.408 134.048 48.5902 134.398 48.6559C135.288 48.8308 135.484 48.4882 135.543 47.7517C135.565 47.4236 135.689 47.1101 135.747 46.7893C136.214 44.354 135.356 42.5627 133.173 41.4156C132.677 41.1531 132.327 41.2406 132.196 41.7583C132.05 42.3124 131.657 42.5749 131.277 42.9322C130.876 43.3113 129.491 42.6113 130.023 44.1061C130.206 44.631 129.265 45.2654 129.899 45.9872C130.133 46.257 130.329 46.6653 129.928 46.9861C129.608 47.2486 129.236 47.1757 128.857 47.0591C127.078 46.5341 126.399 46.9205 126.013 48.7506C125.59 50.7266 126.071 52.4911 127.508 53.9494C128.273 54.7295 129.214 55.2764 130.206 55.7285C131.569 56.3482 132.889 56.8222 133.902 54.9264C133.713 55.8232 134.157 56.1805 134.653 56.6107C136.848 58.5283 136.688 61.1022 134.165 62.5531C133.035 63.2021 132.787 63.9385 132.772 65.127C132.743 67.6644 132.466 70.2018 132.415 72.7391C132.386 74.2995 132.787 75.8088 133.414 77.2525C133.691 77.8868 133.968 77.9743 134.558 77.5295C138.926 74.2922 142.725 70.5663 145.24 65.6665C146.225 63.7562 146.4 61.8459 145.408 59.7387C146.341 59.9866 146.509 60.7595 146.997 61.2626C147.289 60.6136 146.874 60.1251 146.684 59.6074C146.75 59.5418 146.808 59.4689 146.874 59.396L146.844 59.4106ZM123.629 88.0874C125.123 86.1552 126.21 84.0261 126.873 81.6783C125.393 83.5668 124.438 85.7396 123.41 87.8687C123.337 87.9926 123.024 88.0509 123.206 88.2405C123.33 88.3718 123.541 88.2843 123.636 88.0874H123.629ZM130.774 64.4051C129.396 65.9363 128.951 67.8394 128.507 69.7861C127.763 73.0381 127.646 76.3265 127.705 79.6513C128.66 76.9171 129.746 74.1682 129.819 71.2882C129.885 68.9476 129.965 66.7019 130.964 64.5656C131.139 64.4416 131.365 64.3249 131.132 64.0625C131.008 64.1791 130.891 64.2958 130.767 64.4124L130.774 64.4051ZM160.96 105.893C160.96 106.126 160.982 106.359 160.96 106.586C160.858 107.409 161.354 108.569 160.632 108.984C159.816 109.451 159.32 109.786 159.101 110.778C159.014 111.179 158.744 111.471 158.999 111.93C159.262 112.397 159.006 112.645 158.532 112.666C158.015 112.681 157.497 112.681 156.987 112.637C156.6 112.608 156.192 112.207 155.864 112.747C155.587 113.213 155.681 113.68 155.929 114.088C156.163 114.482 156.513 114.803 156.819 115.153C158.387 113.585 158.685 113.636 160.355 115.714C161.536 114.292 163.213 113.388 163.469 111.164C163.738 108.795 162.207 107.482 160.968 105.878L160.96 105.893ZM153.574 93.6288C153.523 93.5632 153.479 93.4976 153.428 93.4247C153.385 93.4903 153.29 93.5705 153.304 93.6142C153.334 93.7017 153.421 93.7746 153.487 93.8548C153.516 93.7819 153.545 93.709 153.574 93.6288Z" fill="#262626"/>
<path d="M150.601 148.206C144.367 151.64 137.725 153.222 130.587 153.025C121.903 152.785 114.269 149.226 106.671 145.624C95.4059 140.287 85.0741 133.397 74.9537 126.164C70.7029 123.131 66.5103 120.01 62.3689 116.831C62.1939 116.692 62.0553 116.51 61.8949 116.35L61.873 116.364C62.9522 116.138 64.0386 116.321 65.1104 116.35C66.226 116.386 66.5905 115.818 66.678 114.811C66.7582 113.827 66.576 113.105 65.4312 113.025C63.2292 112.857 63.149 112.216 63.098 110.32C63.0761 109.379 63.098 108.439 63.098 107.294C65.125 109.226 67.0645 111.1 69.0258 112.945C79.0952 122.445 89.726 131.224 101.611 138.391C107.962 142.219 114.575 145.493 121.669 147.703C131.221 150.677 140.824 151.64 150.463 148.016C150.507 148.074 150.558 148.133 150.601 148.191V148.206Z" fill="#262626"/>
<path d="M58.459 102.962C58.4736 99.3163 58.3934 96.305 58.2476 93.2864C58.1747 91.8281 57.6934 90.9531 56.1987 90.7563C55.9654 90.7271 55.7394 90.6323 55.5133 90.6032C55.0686 90.5448 55.0248 90.2386 55.0394 89.8813C55.054 89.4876 55.3238 89.4584 55.6227 89.4511C60.2819 89.3199 64.9483 88.7074 69.5929 89.4584C74.3979 90.2386 76.3811 95.2186 73.5011 99.1267C72.4219 100.592 71.0439 101.722 69.5273 102.699C69.1992 102.911 68.6159 103.079 69.2575 103.582C71.8459 105.616 73.6396 108.379 75.8416 110.764C77.555 112.616 79.407 114.125 82.0684 114.234C82.484 114.249 83.0308 114.264 83.0527 114.818C83.0746 115.488 82.4184 115.408 82.0028 115.474C77.9634 116.13 74.5583 115.015 71.8897 111.836C70.1325 109.743 68.2805 107.723 66.5962 105.572C65.5462 104.238 64.2484 103.99 62.7245 104.099C62.1557 104.143 61.8932 104.333 61.9005 104.96C61.9443 107.315 61.9005 109.677 62.1922 112.018C62.3745 113.469 63.563 113.79 64.7296 114.059C65.116 114.147 65.6118 113.972 65.5827 114.672C65.5535 115.481 64.9775 115.248 64.5619 115.226C61.7328 115.095 58.9111 115.124 56.0821 115.226C55.7175 115.241 55.1706 115.496 55.0904 114.81C55.0102 114.176 55.5279 114.198 55.9144 114.081C57.8757 113.483 58.0726 113.155 58.2257 111.099C58.4372 108.183 58.408 105.259 58.459 102.962ZM61.9297 98.2591C61.9297 99.2142 61.9297 99.7757 61.9297 100.337C61.9054 101.956 62.7172 102.758 64.365 102.743C67.8867 102.714 70.1398 100.935 70.8616 97.6174C71.4959 94.679 70.1106 91.6823 67.7409 90.9531C66.1806 90.4719 64.591 90.5813 62.9942 90.8146C62.3016 90.9167 62.1849 91.325 62.1849 91.8937C62.1849 94.1467 61.8058 96.3852 61.9297 98.2591Z" fill="#262626"/>
<path d="M122.661 108.46C123.143 108.781 123.15 109.35 123.339 109.802C124.499 112.573 126.796 113.922 129.515 114.6C131.046 114.979 133.591 113.455 134.43 111.924C135.268 110.393 134.984 108.337 133.671 106.805C132.424 105.347 130.777 104.414 129.187 103.4C127.999 102.642 126.759 101.949 125.629 101.104C123.164 99.2515 122.516 96.6339 123.106 93.783C123.704 90.9029 125.76 89.2332 128.604 88.803C131.025 88.4385 133.496 88.4749 135.895 89.2113C136.34 89.3499 136.602 89.5467 136.632 90.079C136.69 91.3258 136.858 92.5726 136.916 93.8195C136.93 94.1622 137.295 94.6944 136.61 94.8621C135.924 95.0298 135.881 94.5267 135.72 94.0674C134.626 90.8738 131.834 89.3863 128.728 90.3196C125.439 91.304 124.557 94.9423 127.051 97.3339C128.042 98.2891 129.238 98.9672 130.441 99.6088C132.06 100.476 133.628 101.439 135.064 102.591C137.485 104.516 138.586 107.053 137.951 110.079C137.324 113.069 135.21 114.826 132.366 115.708C129.224 116.678 126.234 115.745 123.252 114.862C123.121 114.826 122.975 114.76 122.88 114.665C121.947 113.812 121.786 109.583 122.654 108.46H122.661Z" fill="#262626"/>
<path d="M138.141 113.06C137.266 116.502 136.238 119.907 135.56 123.385C134.744 127.556 133.723 131.785 134.933 136.05C136.428 141.292 140.97 144.53 146.68 142.488C152.163 140.527 156.618 137.034 160.584 132.864C162.458 130.895 164.055 128.708 165.681 126.528C165.017 128.401 163.873 129.984 162.677 131.522C158.718 136.626 153.913 140.695 147.97 143.319C141.021 146.389 134.948 143.699 132.432 136.539C131.295 133.301 130.792 129.984 131.018 126.564C131.2 123.698 131.397 120.84 132.068 118.026C132.257 117.238 132.476 116.757 133.366 116.473C135.29 115.846 136.727 114.475 137.996 112.922C138.047 112.973 138.098 113.017 138.149 113.068L138.141 113.06Z" fill="#262626"/>
<path d="M86.2677 120.315C86.2482 119.163 85.9298 118.359 85.3125 117.902C86.9312 117.678 88.0516 118.237 88.6738 119.579C89.0457 120.381 89.4175 121.176 89.9206 122.247C90.4237 121.227 90.9706 120.454 91.1966 119.593C91.6487 117.865 92.7132 117.464 94.5506 117.938C93.2528 118.274 93.2528 119.134 93.3184 120.038C93.3913 121.074 93.4205 122.109 93.4861 123.144C93.5225 123.706 93.5226 124.311 94.2954 124.42C95.0027 124.515 95.5058 124.202 95.7537 123.574C96.3735 122 96.9276 120.403 97.5547 118.835C97.7224 118.405 97.6859 117.763 98.4661 117.792C99.2244 117.822 99.166 118.441 99.3337 118.886C99.8733 120.337 100.413 121.795 100.916 123.254C101.193 124.048 101.667 124.632 102.542 124.486C103.475 124.333 103.213 123.487 103.227 122.875C103.256 121.744 103.213 120.614 103.242 119.484C103.256 118.799 103.22 118.179 102.498 117.778C103.716 117.778 104.926 117.756 106.144 117.778C107.019 117.792 107.886 117.982 108.258 118.893C108.616 119.783 108.339 120.556 107.493 121.081C107.281 121.212 107.033 121.373 107.194 121.62C107.872 122.685 108.419 123.91 109.695 124.391C110.351 124.639 110.927 124.391 110.927 123.531C110.934 122.021 110.876 120.512 110.956 119.01C110.993 118.317 110.227 118.354 110.132 117.8H113.362C112.101 118.821 112.648 120.089 112.56 121.351C113.61 121.023 113.975 120.118 114.624 119.55L114.857 119.783C114.062 120.578 114.215 121.3 114.959 122.058C115.55 122.663 116.06 123.348 116.607 123.99C117.059 124.515 117.613 124.639 118.262 124.42C118.94 124.187 118.802 123.611 118.809 123.115C118.831 122.029 118.809 120.942 118.816 119.863C118.816 119.083 118.926 118.274 117.562 117.792H123.402C123.359 118.347 123.315 118.879 123.242 119.819C122.702 118.237 121.609 117.938 120.734 118.471C120.048 118.886 120.187 120.264 120.617 120.789C121.251 121.562 122.178 121.023 122.848 120.257C123.045 121.037 123.038 121.679 122.863 122.51C122.221 121.606 121.281 121.219 120.624 121.876C120.18 122.328 120.158 123.443 120.734 124.092C121.281 124.697 122.899 124.07 123.913 122.969C123.847 124.705 123.767 124.792 122.156 124.799C120.457 124.814 118.751 124.748 117.066 124.887C115.63 125.004 114.616 124.559 113.916 123.297C113.61 122.743 113.18 122.262 112.699 121.795C112.713 122.845 111.911 124.027 113.661 124.799C112.48 124.799 111.627 124.727 110.796 124.814C108.616 125.033 106.749 124.69 105.801 122.386C105.684 122.094 105.495 121.708 105.101 121.832C104.7 121.963 104.89 122.393 104.882 122.692C104.861 123.458 104.7 124.289 106.107 124.77H98.8525C99.8368 123.91 99.3994 122.998 98.7359 122.452C98.2984 122.094 97.2849 122 96.8109 122.612C96.2933 123.283 96.1256 124.129 97.3797 124.763H91.2185C92.4361 123.283 91.6341 121.577 91.5976 119.907C90.8758 121.504 90.1467 123.093 89.3227 124.916C88.3967 123.56 88.1124 122.138 87.4999 120.877C87.3395 120.541 87.252 120.082 86.9822 119.9C86.6979 119.703 86.8145 120.177 86.6906 120.308C86.5447 120.308 86.4062 120.308 86.2604 120.308L86.2677 120.315ZM104.817 119.776C105.094 120.279 104.387 121.227 105.582 121.241C106.472 121.249 106.888 120.738 106.837 119.907C106.793 119.112 106.479 118.368 105.553 118.332C104.357 118.288 105.123 119.302 104.817 119.768V119.776ZM97.963 119.564C97.4599 119.994 97.489 120.556 97.3068 121.023C97.2193 121.249 97.0807 121.628 97.5182 121.693C97.8317 121.737 98.1963 121.744 98.4807 121.628C98.7431 121.518 98.5463 121.227 98.4807 121.023C98.3202 120.556 98.1525 120.089 97.9703 119.572L97.963 119.564Z" fill="#262626"/>
<path d="M162.498 136.393C162.564 136.852 162.163 137.042 161.915 137.253C156.155 142.066 149.841 145.886 142.586 148.015C138.306 149.269 133.975 149.474 129.826 147.884C125.932 146.397 123.541 143.218 122.199 139.324C121.536 137.406 121.266 135.387 121.317 133.345C121.324 133.046 121.142 132.674 121.652 132.478C122.061 132.915 121.973 133.491 122.053 134.016C122.819 139.054 125.356 142.583 130.256 144.537C137.175 147.301 143.796 146.178 150.373 143.553C154.543 141.891 158.262 139.448 161.769 136.67C161.981 136.502 162.148 136.24 162.506 136.386L162.498 136.393Z" fill="#262626"/>
<path d="M97.8096 112.2C94.7691 110.1 93.4056 103.648 94.9368 99.2145C97.0148 93.1846 102.564 89.5243 109.301 89.7504C115.054 89.94 120.58 94.2929 122.097 99.8416C123.278 104.158 122.002 110.02 119.399 111.639C121.047 108.788 122.221 105.966 121.579 102.707C120.952 99.5353 119.479 96.8886 116.942 94.8689C112.195 91.092 105.13 90.9243 100.383 94.4897C97.5981 96.5824 95.7243 99.2947 95.3305 102.809C94.9441 106.222 95.6441 109.415 97.8242 112.208L97.8096 112.2Z" fill="#262626"/>
<path d="M85.4007 92.5581C84.6788 92.3831 84.0591 92.0695 83.483 91.5664C82.0321 90.2977 80.5301 89.0947 79.028 87.8843C78.4156 87.3885 78.3135 86.9073 78.4739 86.0688C78.9989 83.2616 80.2603 81.3367 83.3591 81.1398C83.6362 81.1252 83.9278 81.0377 84.1684 80.9065C86.9683 79.4045 89.3015 80.1263 91.4598 82.2554C92.0358 82.8241 92.3201 83.2543 92.0722 84.0564C91.4816 85.9375 90.9129 87.8187 90.4171 89.729C90.1984 90.5748 89.688 90.9321 88.9224 91.2092C87.7339 91.6466 86.385 91.6904 85.3788 92.5945L85.4007 92.5726V92.5581ZM86.6767 81.4242C85.0288 81.8762 83.381 82.3356 81.5144 82.8533C82.1779 83.3418 82.6154 83.6772 83.0674 83.998C84.5695 85.0553 85.4955 84.8147 86.2392 83.1741C86.4725 82.6637 86.6548 82.1314 86.8589 81.6065C86.9027 81.5408 86.9975 81.4461 86.9829 81.4242C86.8881 81.2784 86.7787 81.3367 86.6767 81.4242ZM83.0674 86.2438C84.0664 87.5999 84.9778 88.8395 85.8965 90.079C86.1517 90.4217 86.3777 90.7571 86.9246 90.604C87.4714 90.4509 87.5079 89.9988 87.537 89.6051C87.6318 88.2926 87.6464 86.9656 87.7193 85.6532C87.7558 84.9969 87.4787 84.9896 86.9537 85.1501C85.7142 85.5365 84.4601 85.8573 83.0674 86.2438ZM90.8473 83.9178C89.8994 84.5959 88.6234 83.9834 88.5141 85.4125C88.4193 86.6667 88.3318 87.9281 88.2807 89.1822C88.2662 89.4592 88.0693 89.8967 88.5505 89.9915C88.937 90.0717 89.1557 89.7728 89.2505 89.4447C89.7536 87.7239 90.2494 85.9959 90.84 83.9178H90.8473ZM80.0707 87.2427C81.8935 88.5697 83.3226 90.203 85.3132 91.1144C84.9121 89.8894 83.9643 89.0582 83.3883 88.0156C82.6372 86.6667 81.6967 86.2438 80.0707 87.25V87.2427ZM90.3369 82.9699C89.4838 82.3648 88.8568 81.3804 88.1349 81.5919C87.4787 81.7888 87.3547 82.9189 87.0193 83.8959C88.2005 83.5678 89.163 83.2981 90.3369 82.9699ZM82.9581 85.048C82.0539 84.472 81.4196 83.5022 80.6394 83.6918C80.078 83.8303 79.9832 84.9605 79.954 85.8865C80.9821 85.6021 81.8498 85.3615 82.9581 85.048Z" fill="#262626"/>
<path d="M85.3697 92.5796C88.1113 91.8359 90.8528 91.2963 93.6819 92.2369C94.5787 92.5359 95.4609 92.8494 96.2557 93.3671C96.6057 93.5931 97.4296 93.5931 97.0286 94.3587C96.6932 95.0003 96.2411 95.2045 95.4391 94.8253C91.5601 93.0025 87.7467 93.1848 84.1812 95.6055C77.8451 99.9074 77.6847 109.087 83.8094 113.739C84.1375 113.987 84.4729 114.235 85.1218 114.716C83.7438 114.461 83.0219 113.812 82.3147 113.192C75.716 107.403 76.8899 97.2679 84.626 93.0973C84.8958 92.9515 85.2822 92.9369 85.4062 92.565L85.3843 92.5869L85.3697 92.5796Z" fill="#262626"/>
<path d="M117.732 100.921C119.241 103.852 119.088 106.827 117.55 109.7C114.393 115.599 105.811 116.838 101.057 112.128C100.736 111.807 100.145 111.559 100.743 110.903C101.399 110.181 101.662 110.94 101.954 111.188C103.784 112.726 106.037 113.681 108.239 113.659C110.813 113.637 113.364 112.639 115.311 110.677C117.039 108.942 118.031 106.886 118.104 104.399C118.14 103.218 117.907 102.081 117.725 100.914L117.732 100.921Z" fill="#262626"/>
<path d="M124.598 119.863C124.415 117.836 124.452 117.785 126.1 117.785C127.784 117.785 129.476 117.785 131.211 117.785C131.087 118.492 130.985 119.09 130.883 119.703C130.394 119.506 130.489 119.054 130.321 118.74C130.03 118.193 129.505 118.354 129.06 118.368C128.513 118.383 128.557 118.828 128.55 119.2C128.55 120.57 128.571 121.934 128.55 123.305C128.535 124.019 128.936 124.384 129.505 124.756H126.019C127.135 124.428 126.989 123.531 126.982 122.692C126.982 121.657 127.011 120.614 126.967 119.579C126.953 119.171 127.274 118.543 126.588 118.39C125.976 118.252 125.356 118.303 125.057 119.039C124.962 119.28 124.809 119.499 124.598 119.87V119.863Z" fill="#262626"/>
<path d="M81.4925 102.605C81.3613 102.496 81.1498 102.437 81.2155 102.189C82.98 95.6273 89.6442 93.243 94.6023 95.9845C94.894 96.1449 95.4117 96.2106 95.2659 96.7355C95.12 97.2605 94.7919 96.9689 94.493 96.8668C88.3099 94.7888 84.0372 96.6845 81.4925 102.605Z" fill="#262626"/>
<path d="M100.852 109.89C100.648 109.299 100.83 108.891 100.983 108.512C102.033 105.828 101.851 103.174 100.808 100.542C100.67 100.199 100.422 99.8567 100.589 99.4776C100.699 99.2369 100.896 98.9526 101.114 98.8724C101.333 98.7995 101.457 99.1203 101.537 99.339C102.872 102.919 102.733 106.39 100.852 109.89Z" fill="#262626"/>
<path d="M99.3989 100.36C98.1156 103.283 98.2615 106.127 99.9312 108.854C100.252 109.379 100.201 109.802 99.7489 110.05C99.202 110.349 99.1656 109.707 99.0343 109.437C97.4959 106.331 97.35 103.24 99.2093 100.192C99.2677 100.25 99.3333 100.309 99.3989 100.36Z" fill="#262626"/>
<path d="M86.2689 120.316C86.4147 120.316 86.5532 120.316 86.699 120.316C86.6553 121.242 86.5897 122.175 86.5678 123.101C86.5605 123.414 86.699 123.735 86.6845 124.056C86.6699 124.362 87.7271 124.238 86.9907 124.72C86.4657 125.062 85.8387 124.909 85.321 124.479C85.2043 124.377 85.2116 124.457 85.3064 124.37C86.5459 123.247 85.8387 121.65 86.2689 120.323V120.316Z" fill="#262626"/>
<path d="M114.632 119.558C114.982 118.96 115.565 118.333 114.377 117.801H116.98C116.083 118.34 115.58 119.179 114.865 119.799L114.632 119.565V119.558Z" fill="#262626"/>
<path d="M99.6278 96.2475C100.022 96.5756 100.444 96.9475 100.379 97.4579C100.342 97.7277 99.8101 98.187 99.6569 98.1287C99.2049 97.961 98.7455 97.5527 98.7601 97.0423C98.7747 96.6777 99.183 96.3642 99.6278 96.2402V96.2475Z" fill="#262626"/>
<path d="M99.209 100.192C99.2527 99.8197 99.4059 99.5207 99.7558 99.2947C100.018 99.8051 99.5298 100.024 99.3986 100.359C99.3329 100.308 99.2746 100.25 99.2163 100.192H99.209Z" fill="#262626"/>
<path d="M85.3931 114.833C85.3931 114.833 85.415 114.899 85.4296 114.928C85.3931 114.942 85.3566 114.972 85.3348 114.957C85.3129 114.942 85.3056 114.891 85.291 114.862C85.3275 114.855 85.3566 114.84 85.3931 114.833Z" fill="#262626"/>
<path d="M146.655 59.6223C146.494 59.491 146.21 59.4691 146.246 59.1629L146.225 59.1848C146.48 59.1265 146.713 59.1192 146.837 59.4108C146.779 59.4837 146.713 59.5566 146.648 59.6223H146.655Z" fill="#262626"/>
<path d="M137.984 112.915C138.057 112.776 138.13 112.638 138.203 112.499C138.385 112.71 138.312 112.893 138.145 113.06C138.094 113.009 138.043 112.966 137.992 112.915H137.984Z" fill="#262626"/>
<path d="M150.453 148.03C150.584 147.826 150.737 147.68 150.978 147.891C150.847 147.993 150.723 148.103 150.592 148.205C150.548 148.147 150.497 148.088 150.453 148.03Z" fill="#262626"/>
<path d="M146.255 59.1636C146.219 59.149 146.175 59.1345 146.139 59.1199C146.175 59.1417 146.204 59.1636 146.241 59.1782L146.263 59.1563L146.255 59.1636Z" fill="#262626"/>
<path d="M61.8857 116.35C61.8492 116.328 61.8055 116.321 61.7763 116.292C61.7617 116.277 61.769 116.241 61.7617 116.219C61.7982 116.27 61.8273 116.321 61.8638 116.372L61.8857 116.357V116.35Z" fill="#262626"/>
<path d="M165.883 126.061C165.883 126.061 165.948 126.054 165.963 126.061C165.985 126.083 166.007 126.126 165.999 126.148C165.948 126.272 165.89 126.265 165.839 126.148C165.832 126.126 165.861 126.09 165.876 126.061H165.883Z" fill="#262626"/>
</g>
<defs>
<clipPath id="clip0_4885_43831">
<rect width="192" height="192" fill="white"/>
</clipPath>
</defs>
</svg>
