<svg width="192" height="192" viewBox="0 0 192 192" fill="none" xmlns="http://www.w3.org/2000/svg">
<g clip-path="url(#clip0_4885_43669)">
<path d="M96 192C149.019 192 192 149.019 192 96C192 42.9807 149.019 0 96 0C42.9807 0 0 42.9807 0 96C0 149.019 42.9807 192 96 192Z" fill="white"/>
<path d="M88.9355 141.624C88.9355 138.749 88.9355 136.08 88.9355 133.422C88.9355 131.366 88.9355 129.311 88.9355 127.256C88.9355 126.737 88.9355 126.237 89.671 126.266C92.4617 126.369 95.2714 126.247 98.0244 126.605C101.551 127.058 103.465 129.292 103.757 132.677C104.106 136.816 102.569 139.842 99.1087 140.804C96.8553 141.426 94.4228 141.407 92.0657 141.615C91.0946 141.7 90.1141 141.634 88.9355 141.634V141.624ZM92.6409 133.865C92.6409 135.345 92.622 136.825 92.6597 138.296C92.6597 138.598 92.8483 139.079 93.0746 139.173C94.6208 139.823 97.9867 138.824 98.8918 137.391C100.202 135.317 100.193 133.073 99.2124 130.914C98.345 129 96.5065 128.717 94.6208 128.707C94.338 128.707 94.0457 128.726 93.7628 128.698C92.9237 128.604 92.5843 128.924 92.6126 129.801C92.6692 131.149 92.6314 132.507 92.6314 133.865H92.6409Z" fill="#262626"/>
<path d="M153.771 141.917C148.614 141.804 146.068 139.051 146.181 133.733C146.294 128.764 149.406 125.908 154.563 126.021C159.692 126.134 162.115 128.887 161.993 134.459C161.889 139.183 158.749 142.021 153.771 141.917ZM158.174 133.922C158.07 133.167 158.004 132.3 157.816 131.47C157.354 129.509 156.1 128.595 154.073 128.623C152.074 128.651 150.688 129.632 150.396 131.555C150.179 132.988 150.16 134.497 150.33 135.939C150.622 138.287 151.791 139.268 153.96 139.315C156.185 139.371 157.382 138.41 157.901 136.09C158.052 135.421 158.07 134.714 158.165 133.912L158.174 133.922Z" fill="#262626"/>
<path d="M60.488 134.195C62.0625 136.599 63.5993 138.947 65.3247 141.577C63.7313 141.577 62.4491 141.606 61.1762 141.549C60.95 141.54 60.6765 141.172 60.5257 140.908C59.7997 139.663 59.1303 138.4 58.4138 137.156C57.5086 135.581 56.6978 135.194 54.7179 135.468V141.511H51.088C51.0597 141.153 51.0031 140.804 51.0031 140.446C51.0031 136.137 51.022 131.819 50.9748 127.51C50.9654 126.53 51.2671 126.219 52.2382 126.256C54.369 126.341 56.5092 126.275 58.64 126.388C59.564 126.436 60.5163 126.652 61.3837 126.982C63.1845 127.671 63.9105 128.849 63.8539 130.669C63.8067 132.3 63.0053 133.299 61.2045 133.959C60.9028 134.073 60.5917 134.167 60.4974 134.204L60.488 134.195ZM54.6707 130.584C54.6707 131.367 54.6141 131.866 54.699 132.347C54.7461 132.592 55.0478 132.998 55.2176 132.988C56.4244 132.894 57.6878 132.875 58.8003 132.479C59.3283 132.291 59.762 131.348 59.9034 130.669C60.0826 129.792 59.4226 129.226 58.6023 128.991C58.0555 128.83 57.4804 128.746 56.9147 128.727C54.1522 128.651 54.7367 128.576 54.6801 130.584H54.6707Z" fill="#262626"/>
<path d="M30.0078 141.483C31.2523 138.193 32.4497 135.016 33.6471 131.838C34.2128 130.339 34.8445 128.868 35.3442 127.341C35.6271 126.474 36.0891 126.191 36.9565 126.257C38.2576 126.351 39.8887 125.899 40.7938 126.521C41.6989 127.143 41.9158 128.793 42.3872 130.019C43.6789 133.394 44.9422 136.779 46.2151 140.164C46.3753 140.578 46.4979 141.003 46.6959 141.597C45.4419 141.597 44.3011 141.663 43.1792 141.559C42.8774 141.531 42.5192 141.04 42.3777 140.682C41.4066 138.278 42.0855 138.683 39.3513 138.646C38.1162 138.627 36.881 138.589 35.6554 138.674C35.2594 138.702 34.6937 138.985 34.5334 139.315C33.2794 141.861 33.3077 141.87 30.0172 141.502L30.0078 141.483ZM38.3707 129.594C38.2576 129.594 38.1444 129.594 38.0313 129.594C37.2487 131.763 36.4662 133.931 35.6554 136.204H40.7844C39.9452 133.894 39.1627 131.744 38.3801 129.604L38.3707 129.594Z" fill="#262626"/>
<path d="M121.575 126.266V128.717C119.595 128.717 117.719 128.717 115.834 128.717C114.331 128.717 113.58 129.487 113.58 131.027C113.58 131.47 113.58 131.913 113.58 132.526H121.227V134.902H113.674V139.239C115.739 139.239 117.776 139.239 119.812 139.239C121.877 139.239 121.896 139.267 121.519 141.53H109.856C109.828 141.106 109.781 140.738 109.781 140.38C109.781 136.099 109.799 131.828 109.762 127.548C109.762 126.633 109.941 126.228 110.978 126.247C114.466 126.303 117.955 126.266 121.566 126.266H121.575Z" fill="#262626"/>
<path d="M141.291 129.103C139.386 128.962 137.557 128.66 135.737 128.726C133.616 128.811 132.221 130.074 131.796 132.158C131.57 133.261 131.532 134.459 131.721 135.571C132.098 137.834 133.569 139.144 135.888 139.192C137.632 139.229 139.377 138.909 141.159 138.739C141.772 140.653 141.47 141.2 139.396 141.558C136.982 141.982 134.568 142.029 132.202 141.275C129.618 140.455 128.082 138.692 127.62 135.995C126.667 130.433 129.816 126.407 135.445 126.114C136.916 126.039 138.387 126.256 139.867 126.284C141.121 126.303 141.508 126.925 141.338 128.085C141.281 128.481 141.291 128.886 141.281 129.094L141.291 129.103Z" fill="#262626"/>
<path d="M78.8397 141.464C78.5757 141.549 78.5003 141.587 78.4154 141.596C76.1715 141.778 75.0495 140.766 75.0495 138.56C75.0495 135.807 75.0495 133.054 75.0495 130.301C75.0495 129.82 75.0495 129.33 75.0495 128.717H69.8262C69.7508 128.33 69.6942 128.066 69.6565 127.793C69.468 126.652 69.8545 126.219 71.099 126.237C75.4078 126.313 79.7165 126.266 84.129 126.266V128.689C82.7619 128.689 81.3759 128.736 79.9994 128.67C79.0754 128.623 78.802 128.953 78.8114 129.867C78.8585 133.28 78.8303 136.693 78.8303 140.097C78.8303 140.54 78.8303 140.983 78.8303 141.464H78.8397Z" fill="#262626"/>
<path d="M96.9725 107.699C88.3079 107.604 81.0481 105.134 74.882 99.8921C68.697 94.6405 64.9729 87.937 64.03 79.8287C62.1255 63.5271 73.43 49.4695 88.2985 45.9622C98.6602 43.5203 108.183 45.3871 116.678 51.7606C123.749 57.0687 127.916 64.2343 128.831 73.0686C129.849 82.94 126.672 91.3972 119.619 98.3459C113.199 104.672 105.326 107.52 96.9725 107.689V107.699ZM97.0102 46.5939C88.2513 46.7825 81.067 49.4318 74.9669 54.9662C63.6529 65.2242 62.3235 82.742 72.0064 94.5462C83.1883 108.161 103.78 109.914 117.121 98.393C128.133 88.8798 130.66 73.1063 122.9 61.0286C116.753 51.4589 107.655 46.9993 97.0102 46.5939Z" fill="#262626"/>
<path d="M72.9299 104.088C73.0808 104.626 73.0808 105.38 73.4391 105.653C73.8445 105.964 74.6459 106.068 75.1456 105.889C76.2864 105.484 76.6824 103.918 75.8716 102.976C75.2399 102.25 74.4102 101.675 73.6088 101.128C73.1279 100.798 72.6659 100.817 72.7131 101.656C72.7225 101.873 72.4397 102.108 72.2888 102.325C72.072 102.127 71.742 101.967 71.6665 101.722C71.4308 101.005 72.1474 100.336 72.9959 100.402C74.5233 100.515 76.6258 102.542 76.7861 104.06C76.8993 105.088 76.1544 106.247 75.1362 106.624C74.1745 106.992 73.1185 106.643 72.5528 105.776C71.8363 104.692 72.3265 103.447 73.5993 103.164C74.2876 103.013 74.9759 103.145 75.1173 103.871C75.1833 104.22 74.7873 104.918 74.4573 105.031C73.6371 105.304 73.4014 104.644 73.3825 103.9C73.2316 103.956 73.0808 104.013 72.9299 104.06V104.088Z" fill="#262626"/>
<path d="M118.768 103.787C118.457 104.315 118.315 104.862 117.995 105.013C117.75 105.126 117.269 104.739 116.892 104.569C117.146 104.117 117.325 103.381 117.674 103.287C118.193 103.146 118.994 103.297 119.371 103.645C119.73 103.985 119.918 104.777 119.814 105.295C119.616 106.295 118.551 106.889 117.561 106.757C116.486 106.625 115.459 105.559 115.393 104.503C115.279 102.806 117.655 100.346 119.362 100.402C120.041 100.421 120.55 100.76 120.55 101.458C120.55 101.741 120.182 102.033 119.984 102.325C119.814 102.09 119.503 101.863 119.484 101.618C119.447 100.911 119.079 100.789 118.608 101.119C117.787 101.694 116.911 102.278 116.288 103.042C115.383 104.164 116.213 105.936 117.608 106.087C118.372 106.172 118.881 105.814 119.145 105.107C119.4 104.437 119.22 103.957 118.758 103.787H118.768Z" fill="#262626"/>
<path d="M70.9409 99.2134C70.8749 97.8557 69.2532 95.9889 68.0841 95.8475C67.1884 95.7438 66.4341 96.1115 66.1041 96.9129C65.9156 97.3843 65.9156 98.1386 66.1796 98.5346C66.4153 98.8928 67.1978 99.1662 67.6127 99.0437C68.0275 98.9211 68.2821 98.2706 68.6121 97.8463C68.5084 97.7709 68.4141 97.7049 68.3104 97.6294C68.2067 97.7709 68.1312 97.9594 67.9898 98.0348C67.6881 98.1857 67.2167 98.4591 67.0753 98.3554C66.8396 98.1763 66.6416 97.686 66.717 97.3937C66.783 97.1297 67.2073 96.8186 67.509 96.7903C68.3009 96.7243 68.8855 97.4032 68.8572 98.1951C68.8101 99.1757 68.1029 99.8922 67.1978 99.8828C65.727 99.8639 64.7559 98.1857 65.4159 96.8092C66.0476 95.4798 67.4807 94.9518 68.8666 95.6118C70.1489 96.2246 71.0257 97.2806 71.516 98.61C71.8366 99.4774 71.4217 100.288 70.6769 100.288C70.3563 100.288 70.0357 99.9394 69.7246 99.7508C69.9792 99.5999 70.2337 99.4302 70.4977 99.2888C70.6109 99.2322 70.7617 99.2417 70.9597 99.2134H70.9409Z" fill="#262626"/>
<path d="M118.958 48.9144C119.495 48.7353 119.58 48.1885 119.316 47.5002C119.015 46.7271 118.43 46.4348 117.638 46.5951C116.403 46.8496 115.649 48.4525 116.422 49.499C117.025 50.3098 117.911 50.951 118.76 51.5355C119.25 51.8749 119.703 51.7147 119.646 50.9321C119.637 50.7624 119.948 50.5644 120.108 50.3758C120.306 50.555 120.589 50.687 120.674 50.9038C120.938 51.6204 120.278 52.3181 119.429 52.2992C117.751 52.2521 115.507 49.8196 115.611 48.1508C115.677 47.1419 116.667 46.0765 117.685 45.9351C118.741 45.7842 119.722 46.3877 120.089 47.3965C120.363 48.1319 120.136 48.8107 119.505 49.1124C118.977 49.367 118.241 49.4236 117.685 49.2633C117.402 49.1784 117.317 48.4242 117.138 47.9716C117.506 47.849 117.987 47.5191 118.204 47.651C118.524 47.8396 118.656 48.3487 118.967 48.8956L118.958 48.9144Z" fill="#262626"/>
<path d="M73.44 49.0842C73.3457 48.7825 73.2231 48.5939 73.2608 48.4714C73.374 48.1791 73.506 47.7737 73.7323 47.6794C73.9962 47.5757 74.4771 47.6417 74.6751 47.8302C74.8542 48.0094 74.9202 48.5091 74.7977 48.7542C74.4582 49.4613 73.8643 49.763 73.0534 49.4708C72.1295 49.1408 71.6675 48.3959 71.8843 47.5191C72.1389 46.482 73.2137 45.7749 74.298 45.9446C75.4576 46.1237 76.4476 47.3305 76.3816 48.4902C76.2873 50.0176 74.1565 52.205 72.6291 52.3181C72.4594 52.3275 72.2049 52.3464 72.1294 52.2521C71.8183 51.8844 71.5072 51.4979 71.3375 51.0547C71.2903 50.9322 71.7335 50.621 71.9597 50.3947C72.1483 50.753 72.3463 51.1113 72.582 51.545C73.374 51.6864 75.0711 50.6116 75.6462 49.4613C76.0988 48.5562 75.8913 47.7548 75.1842 47.0666C74.2885 46.1992 73.0063 46.4537 72.6291 47.5663C72.4123 48.2074 72.5726 48.5562 73.44 49.0748V49.0842Z" fill="#262626"/>
<path d="M123.879 98.3361C124.124 99.2224 124.718 99.2507 125.369 99.0433C126.104 98.8075 126.425 98.2513 126.321 97.497C126.123 96.0733 124.417 95.3002 123.257 96.1959C122.522 96.7616 121.937 97.5442 121.381 98.2984C121.004 98.8076 121.004 99.2978 121.89 99.2978C122.088 99.2978 122.286 99.5618 122.484 99.7032C122.286 99.9107 122.126 100.241 121.899 100.297C121.126 100.505 120.523 99.8541 120.617 98.9678C120.777 97.3933 122.918 95.3568 124.483 95.2908C125.52 95.2436 126.689 96.1676 126.944 97.2236C127.189 98.2418 126.651 99.3261 125.68 99.7221C124.869 100.052 124.134 99.9295 123.672 99.1375C123.257 98.421 123.116 97.6384 123.879 97.0727C124.153 96.8747 124.756 96.7805 124.982 96.9407C125.218 97.1199 125.331 97.7233 125.209 98.025C125.124 98.2419 124.558 98.2701 124.209 98.3738C124.124 98.3927 124.03 98.3644 123.879 98.3456V98.3361Z" fill="#262626"/>
<path d="M124.076 54.3257C124.491 54.3257 125.066 54.1749 125.198 54.3634C125.415 54.6557 125.462 55.212 125.339 55.5703C125.283 55.74 124.594 55.8531 124.293 55.7305C123.614 55.4571 123.444 54.8254 123.623 54.1466C123.831 53.364 124.293 52.8455 125.169 52.8455C126.235 52.8455 127.168 53.7506 127.225 54.8443C127.281 56.0228 126.197 57.2485 125 57.3711C123.293 57.5408 120.795 55.2214 120.832 53.4866C120.851 52.7512 121.2 52.2515 121.983 52.3081C122.247 52.3269 122.473 52.6663 122.718 52.8643C122.501 53.0152 122.284 53.298 122.058 53.298C121.238 53.3263 121.228 53.8449 121.549 54.2786C122.171 55.1083 122.822 55.9757 123.642 56.5791C124.689 57.3522 126.339 56.4942 126.527 55.1931C126.65 54.3823 126.254 53.8449 125.49 53.5809C124.773 53.3358 124.283 53.562 124.066 54.3257H124.076Z" fill="#262626"/>
<path d="M67.9209 54.4943C67.77 53.7401 67.3741 53.3912 66.7046 53.5326C65.9975 53.6741 65.4884 54.07 65.4318 54.862C65.3281 56.2197 67.0723 57.4265 68.2132 56.644C69.0994 56.0311 69.7783 55.0789 70.4477 54.202C70.7494 53.8061 70.6551 53.3252 69.9197 53.3064C69.7123 53.3064 69.5048 52.9952 69.2974 52.8349C69.5237 52.6558 69.7311 52.3541 69.9763 52.307C70.7305 52.1655 71.2868 52.8821 71.1737 53.7589C70.9945 55.126 69.024 57.1342 67.6663 57.3511C66.4689 57.5397 65.3375 56.8703 64.9227 55.7106C64.5738 54.7395 64.8944 53.5421 65.8184 53.1744C66.3841 52.9481 67.2703 52.9292 67.7323 53.2309C68.1472 53.5138 68.4206 54.4095 68.3169 54.9469C68.2415 55.3334 67.4212 55.5691 66.9403 55.8709C66.7895 55.4937 66.4501 55.0694 66.5255 54.7395C66.7141 53.8909 67.3552 54.202 67.9209 54.4943Z" fill="#262626"/>
<path d="M79.0218 106.116C79.0784 106.144 79.1444 106.191 79.2009 106.201C79.8138 106.295 80.37 106.54 80.1815 107.257C79.9835 108.002 79.3141 108.03 78.7201 107.804C78.1072 107.568 77.7584 107.115 78.0318 106.389C78.4184 105.381 79.4366 104.853 80.6246 105.211C81.3883 105.437 82.1237 105.795 82.8308 106.173C85.5462 107.643 88.4972 108.303 91.5143 108.803C89.8266 108.963 87.1207 108.416 84.1979 107.323C83.0854 106.908 81.9917 106.427 80.8603 106.05C80.304 105.871 79.6818 105.871 79.0972 105.795C79.0784 105.899 79.0501 106.003 79.0312 106.107L79.0218 106.116Z" fill="#262626"/>
<path d="M113.781 105.776C113.102 105.89 112.395 105.927 111.745 106.135C109.312 106.898 106.908 107.775 104.457 108.501C103.467 108.793 102.382 108.812 101.336 108.878C103.042 108.473 104.796 108.181 106.455 107.615C108.143 107.04 109.737 106.201 111.368 105.475C112.235 105.088 113.112 104.881 113.989 105.409C114.95 105.984 115.139 107.238 114.29 107.738C113.96 107.935 113.432 107.907 113.036 107.813C112.838 107.766 112.546 107.247 112.622 107.096C112.791 106.766 113.14 106.521 113.442 106.267C113.536 106.191 113.696 106.201 113.828 106.172C113.819 106.04 113.8 105.899 113.791 105.767L113.781 105.776Z" fill="#262626"/>
<path d="M129.405 80.9223C129.367 84.4013 128.17 87.5692 126.84 90.6994C126.529 91.4348 126.397 92.2362 126.18 93.0094C126.284 93.0471 126.397 93.0848 126.501 93.1131C126.557 93.0094 126.623 92.9056 126.67 92.7925C126.906 92.2551 127.302 91.8025 127.858 92.2079C128.151 92.4248 128.396 93.1508 128.245 93.4148C128.028 93.8013 127.425 94.2256 127.01 94.1973C126.067 94.1313 125.426 93.0942 125.624 92.0759C125.737 91.4631 125.954 90.8408 126.265 90.3129C127.981 87.3995 128.886 84.2222 129.395 80.9128L129.405 80.9223Z" fill="#262626"/>
<path d="M126.916 59.3783C126.246 60.4154 126.567 61.1697 126.822 61.924C127.595 64.2056 128.415 66.4778 129.103 68.7783C129.395 69.74 129.405 70.7771 129.386 71.8048C129.207 70.8997 129.141 69.9569 128.839 69.0895C128.075 66.921 127.208 64.7808 126.388 62.6311C126.18 62.0748 125.907 61.528 125.794 60.9623C125.615 60.0289 126.162 59.1332 126.972 58.8409C127.821 58.5298 128.726 59.1332 128.594 60.01C128.537 60.3683 128.113 60.67 127.849 60.9906C127.566 60.7266 127.246 60.4909 127.01 60.1986C126.906 60.0666 126.954 59.812 126.906 59.3689L126.916 59.3783Z" fill="#262626"/>
<path d="M78.5567 47.1781C79.2355 47.0933 79.9521 47.1121 80.5932 46.8953C82.0546 46.4144 83.45 45.745 84.9208 45.2924C86.5424 44.8022 88.2112 44.4628 89.9083 44.2271C86.7027 44.8493 83.7517 46.1127 80.8666 47.5835C79.5183 48.2718 78.321 47.9324 77.7458 46.8953C77.3404 46.1693 77.5761 45.2924 78.3681 45.1322C78.7924 45.0473 79.5278 45.2642 79.7541 45.6036C80.15 46.1881 79.5749 46.5181 79.0469 46.6973C78.8866 46.7538 78.7169 46.7633 78.5472 46.7915C78.5472 46.9235 78.5661 47.0555 78.5755 47.1781H78.5567Z" fill="#262626"/>
<path d="M102.109 44.0762C103.749 44.4722 105.418 44.7927 107.031 45.283C108.53 45.7356 109.972 46.4144 111.462 46.9235C112.037 47.1215 112.688 47.1027 113.31 47.1781C113.319 47.0838 113.329 46.9989 113.348 46.9047C113.3 46.8669 113.263 46.8009 113.216 46.7915C112.593 46.7161 112.065 46.4804 112.235 45.745C112.395 45.0284 113.008 44.9719 113.583 45.151C114.224 45.349 114.564 45.811 114.394 46.5275C114.187 47.4044 113.291 48.0266 112.301 47.9135C111.82 47.8569 111.33 47.7155 110.906 47.4892C108.105 46.0278 105.211 44.8493 102.043 44.4062C102.071 44.3024 102.1 44.1893 102.118 44.0856L102.109 44.0762Z" fill="#262626"/>
<path d="M62.5938 70.6261C62.688 69.0516 63.1877 66.7888 64.0834 64.6014C64.5171 63.536 64.9791 62.4706 65.328 61.3675C65.4788 60.8867 65.4034 60.3398 65.4411 59.6516C65.1582 59.8496 65.0734 59.8778 65.064 59.925C64.9225 60.5378 64.7057 61.2072 63.9514 60.9244C63.6403 60.8018 63.3386 60.057 63.414 59.6704C63.5649 58.935 64.1871 58.6145 64.9603 58.8596C65.9691 59.1802 66.5159 60.3304 66.1105 61.4429C65.7994 62.2915 65.2902 63.074 64.9791 63.9226C64.0834 66.3645 63.2349 68.8347 62.6032 70.6355L62.5938 70.6261Z" fill="#262626"/>
<path d="M65.6416 93.2637C65.6227 92.7829 65.6981 92.2926 65.5567 91.8872C65.123 90.6332 64.5385 89.4264 64.1236 88.163C63.5296 86.3433 63.0394 84.4954 62.502 82.6569C62.5962 82.6286 62.6905 82.6003 62.7942 82.572C63.1619 83.8637 63.4354 85.1931 63.9351 86.4282C64.5668 88.0216 65.3776 89.5395 66.0941 91.0952C66.7447 92.5094 66.3958 93.7634 65.1796 94.1594C64.8307 94.2725 64.199 94.1594 63.9916 93.8954C63.7371 93.5843 63.6899 93.0092 63.7465 92.5755C63.7748 92.3869 64.3876 92.0569 64.5479 92.1417C64.9156 92.3397 65.1796 92.7546 65.651 93.2543L65.6416 93.2637Z" fill="#262626"/>
<path d="M115.621 45.9633C115.064 44.7282 115.479 43.1066 116.601 42.4749C116.893 42.3146 117.44 42.2297 117.648 42.3994C117.912 42.6069 118.072 43.116 118.044 43.4743C117.949 44.436 116.677 45.6711 115.621 45.9728V45.9633Z" fill="#262626"/>
<path d="M70.9112 101.212C70.7227 102.419 70.2984 103.447 69.365 104.135C69.0444 104.37 68.3467 104.465 68.0827 104.267C67.8282 104.088 67.7433 103.381 67.8659 103.003C68.2619 101.778 69.5535 101.033 70.9112 101.212Z" fill="#262626"/>
<path d="M76.6923 46.0471C75.5986 45.472 74.7406 44.7554 74.42 43.6335C74.3069 43.2469 74.4483 42.5586 74.7217 42.3606C74.9669 42.1815 75.6646 42.3512 75.9851 42.5963C76.9374 43.3223 77.2202 44.7743 76.6923 46.0471Z" fill="#262626"/>
<path d="M76.6986 106.946C77.3114 108.313 76.8117 110.029 75.6803 110.613C75.4163 110.745 74.8883 110.792 74.7375 110.641C74.4923 110.387 74.2943 109.887 74.3698 109.557C74.6432 108.266 75.5766 107.54 76.708 106.955L76.6986 106.946Z" fill="#262626"/>
<path d="M115.591 106.935C116.779 107.51 117.609 108.264 117.967 109.358C118.09 109.744 117.769 110.282 117.656 110.753C117.213 110.63 116.666 110.64 116.365 110.366C115.403 109.49 115.186 108.368 115.601 106.935H115.591Z" fill="#262626"/>
<path d="M121.314 101.165C122.776 101.081 124.115 101.957 124.379 103.174C124.454 103.523 124.35 104.145 124.115 104.267C123.804 104.437 123.191 104.399 122.889 104.182C121.88 103.494 121.465 102.419 121.314 101.156V101.165Z" fill="#262626"/>
<path d="M121.629 51.5445C121.299 50.0737 122.42 48.4143 123.769 48.3294C124.061 48.3106 124.523 48.4991 124.636 48.7348C124.778 49.0177 124.749 49.5174 124.58 49.7814C123.91 50.8562 122.807 51.2616 121.629 51.5445Z" fill="#262626"/>
<path d="M64.8033 95.3671C64.2753 96.4796 63.5305 97.2999 62.418 97.611C62.0408 97.7147 61.5506 97.4225 61.1074 97.3187C61.2206 96.885 61.2111 96.3476 61.4751 96.0365C62.2388 95.1314 63.6059 94.8768 64.8033 95.3671Z" fill="#262626"/>
<path d="M70.3248 51.8273C69.2971 51.1767 68.3731 50.6959 67.6094 50.0359C67.336 49.8002 67.4491 49.1119 67.3926 48.6311C67.8734 48.5934 68.4203 48.3954 68.8162 48.5557C70.0136 49.0365 70.6548 50.3376 70.3248 51.8273Z" fill="#262626"/>
<path d="M64.7193 57.5492C63.3711 58.0678 61.8626 57.7284 61.1837 56.7761C60.9952 56.5121 60.8443 55.9559 60.9952 55.7579C61.1837 55.4939 61.7117 55.2676 62.0323 55.3336C63.2768 55.5504 64.1159 56.3519 64.7193 57.5492Z" fill="#262626"/>
<path d="M127.588 58.0209C128.286 56.8801 128.974 56.0032 130.152 55.7581C130.548 55.6732 131.02 55.9844 131.454 56.1164C131.312 56.5406 131.284 57.1063 131.001 57.3703C130.105 58.2095 129.012 58.4546 127.588 58.0209Z" fill="#262626"/>
<path d="M127.34 95.3957C128.716 95.0186 129.847 95.1977 130.724 96.15C130.988 96.4423 131.12 97.0645 130.988 97.4228C130.903 97.6491 130.187 97.8094 129.81 97.7151C128.612 97.4322 127.924 96.5366 127.33 95.3957H127.34Z" fill="#262626"/>
<path d="M61.7572 75.6812V77.482C61.4272 77.2651 60.9935 76.9917 60.4844 76.6523C60.9746 76.2751 61.3706 75.9734 61.7572 75.6812Z" fill="#262626"/>
<path d="M96.0773 42.0781C96.4733 42.6533 96.7373 43.0398 96.973 43.3981C96.3885 43.3415 95.8133 43.2944 95.1816 43.2378C95.4456 42.8984 95.7285 42.5307 96.0679 42.0781H96.0773Z" fill="#262626"/>
<path d="M130.349 75.7935C130.708 76.0386 131.075 76.2932 131.519 76.6043C131.028 76.9343 130.604 77.2171 130.18 77.5C130.236 76.9249 130.283 76.3686 130.34 75.7935H130.349Z" fill="#262626"/>
<path d="M95.4824 109.717H97.1984C96.9438 110.075 96.6798 110.452 96.3404 110.933C96.0198 110.481 95.7558 110.104 95.4824 109.717Z" fill="#262626"/>
<path d="M96.1336 47.9431C110.285 48.226 122.118 57.1357 125.041 70.1279C127.228 79.8391 124.72 88.4565 117.79 95.6126C111.728 101.864 104.157 104.796 95.5019 104.541C81.1897 104.117 69.3289 94.0287 67.2735 80.4048C65.7273 70.1656 69.3949 61.6896 77.1355 55.0143C82.6322 50.2813 89.1943 48.1505 96.1241 47.9431H96.1336ZM124.852 75.0118C124.607 73.6447 124.381 71.2216 123.73 68.9117C121.892 62.4533 117.875 57.56 112.313 53.9207C106.099 49.8571 99.3486 47.962 91.9097 49.2631C86.0076 50.2908 80.9446 53.025 76.5321 57.0226C67.2075 65.4892 65.105 78.868 71.554 89.5125C79.37 102.401 97.5855 108.925 112.718 98.2714C120.383 92.8784 124.56 85.5243 124.852 75.0023V75.0118Z" fill="#262626"/>
<path d="M87.3072 97.3466C87.1281 97.4504 86.9584 97.5824 86.7698 97.6389C84.7899 98.2329 82.8382 98.148 81.1317 96.9224C79.5949 95.8098 78.9726 94.207 79.2272 92.3119C79.2555 92.0762 79.3309 91.8217 79.4629 91.6331C81.1128 89.2854 83.1682 87.5506 86.2136 87.6826C87.4581 87.7392 88.0049 87.2961 88.4575 86.193C90.1263 82.1011 91.8988 78.0469 93.6148 73.9833C93.7939 73.5685 93.9165 73.1253 94.0485 72.6822C95.161 68.8637 92.2382 65.4978 88.2784 66.007C88.0049 66.0447 87.7127 65.9315 87.4298 65.8938C87.477 65.6298 87.4864 65.347 87.5807 65.1018C88.0049 64.0459 88.8912 63.4613 89.9377 63.4236C91.286 63.3765 92.6437 63.5933 94.0013 63.6782C94.3313 63.697 94.6613 63.6876 94.9913 63.697C94.9347 63.3388 94.9725 62.9428 94.8122 62.6316C93.7751 60.6423 92.0968 59.5486 89.8906 59.294C85.1293 58.7472 81.8577 62.6033 83.1777 67.1666C83.2248 67.3364 83.3379 67.5061 83.3191 67.6663C83.2908 67.9586 83.1965 68.2415 83.1211 68.5243C82.8194 68.4112 82.3102 68.3546 82.2631 68.166C81.9803 67.1478 81.5748 66.073 81.6503 65.0547C82.018 60.3123 86.289 56.4278 91.0409 56.3052C93.0208 56.2581 94.963 56.3335 96.8298 57.0972C97.0844 57.2009 97.3955 57.2575 97.5935 57.4366C98.4609 58.2192 99.3189 58.3983 100.299 57.6063C100.479 57.4555 100.959 57.4555 101.139 57.5969C101.327 57.7478 101.346 58.1438 101.384 58.436C101.403 58.5586 101.337 58.7283 101.252 58.8226C100.177 60.086 100.545 61.3965 101.035 62.7636C102.892 67.9492 104.75 73.1348 106.532 78.3486C107.531 81.2714 108.427 84.2224 109.332 87.1735C109.85 88.8612 110.529 89.144 112 88.1541C112.641 87.7204 113.235 87.2301 113.857 86.7775C114.112 86.5984 114.414 86.4664 114.687 86.3061C114.772 86.391 114.866 86.4664 114.951 86.5512C114.744 86.9001 114.593 87.3149 114.31 87.5978C112.405 89.5117 110.491 91.4257 108.549 93.3019C107.701 94.1127 106.513 94.1127 105.551 93.0756C104.75 92.2082 104.09 91.1051 103.665 90.002C103.062 88.4369 102.723 86.7775 102.298 85.1464C102.053 84.213 101.544 83.7133 100.535 83.6945C97.8009 83.6473 95.0762 83.5342 92.342 83.4776C92.0308 83.4776 91.5217 83.6096 91.418 83.8265C90.8051 85.1464 90.23 86.4947 89.768 87.8712C89.5795 88.4463 90.7863 89.5589 91.3897 89.4363C91.6066 89.3892 91.7668 89.078 91.946 88.88C92.6437 88.0975 93.3131 87.3055 94.0391 86.5512C94.1805 86.4004 94.5199 86.4381 94.765 86.391C94.765 86.6172 94.8593 86.9284 94.7462 87.0604C92.9265 89.276 91.088 91.4822 89.2212 93.6602C88.7875 94.1599 88.3915 93.9807 88.0709 93.415C87.1658 91.7934 84.8182 90.6808 83.0268 90.9637C82.0274 91.124 80.8866 92.1045 80.764 93.0662C80.6131 94.2636 80.8489 95.3761 81.9237 96.1398C83.1399 96.9978 84.5165 97.1298 85.9496 96.9601C86.3361 96.9129 86.7321 96.9601 87.1281 96.9601C87.1847 97.0921 87.2507 97.2241 87.3072 97.3561V97.3466ZM97.5087 70.146L97.1127 70.0706C96.8298 70.5986 96.4998 71.1077 96.283 71.6545C95.3496 73.955 94.633 76.3687 93.4922 78.556C92.3985 80.6397 92.3797 80.9037 95.0385 81.1771C95.6607 81.2431 96.2924 81.1771 96.9241 81.1583C97.8669 81.1394 98.8192 81.0828 99.762 81.1205C100.941 81.1677 100.988 81.1205 100.648 80.008C99.7903 77.1984 98.9418 74.3793 98.0838 71.5697C97.9329 71.0794 97.7067 70.6174 97.5181 70.146H97.5087Z" fill="#262626"/>
</g>
<defs>
<clipPath id="clip0_4885_43669">
<rect width="192" height="192" fill="white"/>
</clipPath>
</defs>
</svg>
