<svg width="192" height="192" viewBox="0 0 192 192" fill="none" xmlns="http://www.w3.org/2000/svg">
<g clip-path="url(#clip0_4884_42836)">
<path d="M96 192C149.019 192 192 149.019 192 96C192 42.9807 149.019 0 96 0C42.9807 0 0 42.9807 0 96C0 149.019 42.9807 192 96 192Z" fill="#C55253"/>
<path d="M77.9336 106.077C75.9349 106.077 73.9267 106.096 71.9281 106.077C71.146 106.077 70.3736 105.97 69.5915 105.922C67.3998 105.806 65.855 103.354 64.1364 103.537C62.4371 103.711 60.8923 105.729 58.7971 105.874C53.4096 106.27 48.0027 106.318 42.6248 105.883C38.8883 105.584 36.2621 102.62 36.0883 98.9028C35.9241 95.4366 36.0979 91.9608 36.011 88.4946C35.9628 86.5539 37.2952 87.1043 38.3186 87.0077C39.4869 86.9015 40.3076 87.027 40.2593 88.5912C40.1531 91.7098 40.24 94.838 40.2303 97.9566C40.2303 99.4532 40.7131 100.699 42.0648 101.442C43.8703 102.437 44.8069 101.877 44.8841 99.8104C45.0193 96.267 47.3461 93.7953 50.9185 93.5346C52.5696 93.4187 54.2302 93.5925 55.8813 93.4574C57.5709 93.3222 58.0826 93.8725 58.1213 95.6104C58.1599 97.5028 57.3585 97.7732 55.804 97.6959C54.2399 97.6091 52.6661 97.6477 51.102 97.7442C49.9048 97.8118 49.142 98.5456 49.1227 99.7525C49.1034 100.969 49.9144 101.751 51.0634 101.809C53.3227 101.915 55.6013 101.992 57.8413 101.78C60.6992 101.51 62.6592 99.1732 62.6012 96.5084C62.5433 93.8242 60.535 91.6036 57.6482 91.4008C54.964 91.2077 52.2509 91.227 49.5572 91.3622C47.8193 91.4491 47.3558 90.8698 47.3848 89.1801C47.4137 87.6353 47.742 86.9981 49.422 87.0946C51.942 87.2298 54.4716 87.0753 57.0013 87.1526C62.9005 87.336 66.6564 91.1691 66.8205 97.078C66.9171 100.477 68.1915 101.828 71.5708 101.886C74.9694 101.944 78.368 101.799 81.757 101.944C83.6204 102.021 83.7073 101.124 83.5432 99.7332C83.0025 95.2146 78.8991 91.507 74.0522 91.2077C73.357 91.1691 72.6522 91.1305 71.9667 91.2077C70.3543 91.3718 69.4757 91.1208 69.466 89.0739C69.4564 86.9112 70.557 87.0077 72.0632 86.9981C82.3942 86.9788 88.6507 93.6987 87.8301 103.923C87.7045 105.497 86.9514 106.077 85.5225 106.077C82.9928 106.077 80.4729 106.077 77.9432 106.077H77.9336Z" fill="white"/>
<path d="M131.888 101.644C128.789 104.493 125.294 105.96 121.152 105.902C119.385 105.873 118.632 105.188 118.642 103.421C118.69 98.5645 118.719 93.708 118.622 88.8514C118.584 87.1425 119.472 87.0845 120.727 87.1135C121.915 87.1328 122.938 86.9976 122.89 88.7838C122.774 92.5107 122.909 96.2376 122.832 99.9645C122.803 101.461 123.257 101.722 124.657 101.278C128.548 100.051 131.338 96.4597 131.425 92.3659C131.444 91.41 131.512 90.4542 131.415 89.508C131.242 87.799 131.705 87.0652 133.655 87.0556C135.606 87.0556 135.731 87.9342 135.683 89.4211C135.606 92.1052 135.644 94.799 135.664 97.4831C135.683 100.438 136.639 101.799 138.695 101.644C141.244 101.451 141.64 99.6652 141.601 97.5603C141.553 94.9631 141.63 92.3562 141.573 89.759C141.544 88.2045 141.408 87.0363 143.745 87.0266C146.265 87.0266 145.772 88.4749 145.782 89.8749C145.782 92.6459 145.821 95.4266 145.782 98.1976C145.753 100.244 146.555 101.673 148.708 101.702C150.88 101.731 151.701 100.312 151.672 98.2555C151.633 95.1369 151.749 92.0087 151.623 88.89C151.556 87.2487 152.309 87.0749 153.651 87.0845C155.022 87.0942 155.968 87.1328 155.901 88.9673C155.766 92.3466 155.959 95.7355 155.823 99.1148C155.621 104.502 149.972 107.66 145.251 105.004C144.044 104.329 143.339 104.203 142.065 104.937C138.444 107.042 134.862 105.835 131.898 101.635L131.888 101.644Z" fill="white"/>
<path d="M115.55 93.6407C115.55 93.8145 115.54 93.9883 115.55 94.162C116.544 106.241 108.627 106.916 100.99 105.768C96.4616 105.082 93.4202 101.123 93.4395 96.5372C93.4589 91.9703 96.5968 88.2145 101.125 87.3938C102.139 87.2104 103.201 87.2393 104.234 87.1235C105.837 86.9497 106.744 87.1911 106.764 89.2476C106.783 91.3717 105.769 91.4103 104.224 91.3428C103.278 91.3041 102.293 91.3717 101.386 91.6228C97.8423 92.5979 96.4616 96.8655 98.7016 99.762C100.633 102.253 107.662 102.881 110.027 100.756C111.07 99.8199 111.398 98.6227 111.379 97.2517C111.34 94.4807 111.475 91.7 111.33 88.9386C111.234 87.0462 112.315 87.1524 113.619 87.0945C115.038 87.0366 115.704 87.4131 115.588 88.9579C115.473 90.5124 115.559 92.0765 115.559 93.631L115.55 93.6407Z" fill="white"/>
<path d="M159.531 96.3438C159.531 93.7466 159.609 91.1494 159.502 88.5521C159.435 86.6791 160.671 87.0363 161.762 86.9977C162.853 86.959 163.799 86.8722 163.77 88.5039C163.693 93.7852 163.683 99.0666 163.77 104.348C163.799 105.98 162.911 105.96 161.8 105.883C160.777 105.806 159.425 106.337 159.493 104.396C159.58 101.712 159.512 99.0279 159.512 96.3438H159.531Z" fill="white"/>
<path d="M26.2214 105.497C25.7483 103.122 25.8835 101.22 28.1331 99.81C29.398 99.0183 29.7938 97.4445 29.7938 95.8997C29.7938 93.7369 29.8711 91.5839 29.7745 89.4211C29.6973 87.8184 29.8807 86.9397 31.9276 86.9204C34.0614 86.9011 34.071 87.9246 34.0131 89.4501C33.9359 91.6032 34.0324 93.7659 33.9841 95.9287C33.8586 100.718 31.1069 104.136 26.2214 105.487V105.497Z" fill="white"/>
<path d="M160.541 79.5055C161.497 79.5055 162.453 79.5441 163.409 79.5055C164.886 79.4282 166.045 79.3413 165.996 81.533C165.948 83.5027 165.166 83.831 163.505 83.7247C161.864 83.6089 160.213 83.6765 158.562 83.7054C157.49 83.7247 156.515 83.551 155.675 84.8254C154.932 85.9551 153.165 85.5785 152.112 85.0861C151.041 84.584 151.852 83.3385 152.18 82.5468C152.933 80.7317 154.391 79.6792 156.39 79.573C157.77 79.4958 159.161 79.5634 160.551 79.5634C160.551 79.5537 160.551 79.5344 160.551 79.5248L160.541 79.5055Z" fill="white"/>
<path d="M34.1405 82.8753C34.0729 84.3236 33.2812 85.2118 31.9102 85.2408C30.6936 85.2698 29.7764 84.5553 29.6798 83.2229C29.5736 81.7939 30.3267 80.8863 31.7267 80.7705C33.1557 80.6546 33.9184 81.5332 34.1405 82.8753Z" fill="white"/>
<path d="M79.3463 110.45C79.0566 111.763 78.3325 112.613 76.8746 112.516C75.5422 112.429 74.7891 111.599 74.7891 110.354C74.7891 108.954 75.6773 108.094 77.0773 108.114C78.487 108.133 79.2111 109.04 79.3463 110.44V110.45Z" fill="white"/>
<path d="M108.231 96.0837C108.163 97.4934 107.41 98.3623 106 98.3623C104.591 98.3623 103.789 97.4837 103.799 96.0644C103.809 94.7513 104.639 93.9403 105.875 93.892C107.236 93.8437 108.105 94.6258 108.221 96.0741L108.231 96.0837Z" fill="white"/>
</g>
<defs>
<clipPath id="clip0_4884_42836">
<rect width="192" height="192" fill="white"/>
</clipPath>
</defs>
</svg>
