<svg width="192" height="192" viewBox="0 0 192 192" fill="none" xmlns="http://www.w3.org/2000/svg">
<g clip-path="url(#clip0_4885_44054)">
<path d="M96 192C149.019 192 192 149.019 192 96C192 42.9807 149.019 0 96 0C42.9807 0 0 42.9807 0 96C0 149.019 42.9807 192 96 192Z" fill="white"/>
<path d="M51.543 114.086C51.833 110.606 51.953 107.246 52.423 103.936C52.973 100.056 53.633 96.1756 54.613 92.3956C55.633 88.4556 57.053 84.5956 59.173 81.0756C60.853 78.2956 62.413 75.3956 64.483 72.9256C67.013 69.8956 69.833 67.0556 72.843 64.5056C75.363 62.3756 78.273 60.6656 81.133 58.9656C84.453 56.9856 88.023 55.4856 91.743 54.4056C94.713 53.5456 97.673 52.5856 100.693 51.9956C104.213 51.3056 107.793 50.9056 111.363 50.5256C113.033 50.3456 114.743 50.4956 116.603 50.4956C114.273 56.8756 115.123 62.9156 118.953 68.4656C118.023 69.5556 116.983 70.5656 116.203 71.7556C114.693 74.0456 115.233 76.4456 116.493 78.5656C118.483 81.9256 120.693 85.1456 122.873 88.3956C126.113 93.2256 129.173 98.1556 130.893 103.776C131.913 107.096 132.433 110.516 132.283 114.086H51.543Z" fill="#FF0002"/>
<path d="M91.9638 120.616C104.194 120.616 116.424 120.616 128.654 120.616C131.834 120.616 134.514 121.606 136.524 124.186C137.874 125.916 138.234 127.916 138.214 130.006C138.194 133.236 138.314 136.486 138.024 139.696C137.754 142.666 135.874 144.816 133.204 145.966C131.704 146.616 129.924 146.896 128.274 146.906C103.894 146.966 79.5138 146.936 55.1338 146.956C51.0338 146.956 47.4638 145.006 45.9938 140.946C45.7438 140.266 45.5738 139.506 45.5638 138.786C45.5238 135.466 45.4838 132.146 45.5638 128.836C45.6338 125.916 47.1038 123.706 49.4838 122.076C51.2238 120.886 53.2138 120.606 55.2638 120.606C67.4938 120.606 79.7238 120.606 91.9538 120.606L91.9638 120.616Z" fill="#FF0002"/>
<path d="M134.173 69.6358C127.423 69.7958 121.843 64.1158 121.883 57.3358C121.933 50.4358 127.403 45.1258 134.103 45.0458C140.883 44.9658 146.503 50.5858 146.483 57.3558C146.463 64.1258 141.063 69.7458 134.173 69.6358Z" fill="#FF0002"/>
</g>
<defs>
<clipPath id="clip0_4885_44054">
<rect width="192" height="192" fill="white"/>
</clipPath>
</defs>
</svg>
