<svg width="192" height="192" viewBox="0 0 192 192" fill="none" xmlns="http://www.w3.org/2000/svg">
<g clip-path="url(#clip0_5218_40610)">
<path d="M96 192C149.019 192 192 149.019 192 96C192 42.9807 149.019 0 96 0C42.9807 0 0 42.9807 0 96C0 149.019 42.9807 192 96 192Z" fill="white"/>
<path d="M160.256 117.931C151.267 123.442 140.714 122.101 133.814 113.681C126.783 105.109 120.436 95.9855 113.915 87.0146C111.993 84.3675 112.699 81.5319 115.269 79.7914C117.772 78.0871 120.531 78.515 122.583 81.2128C128.566 89.0814 134.476 97.0081 140.372 104.949C142.388 107.654 144.775 109.765 148.181 110.425C153.4 111.44 158.312 108.496 159.812 103.528C161.435 98.1322 158.676 92.9178 153.087 90.8292C148.05 88.9509 142.919 90.996 140.597 95.826C140.255 96.5512 140.015 97.3272 139.564 98.5093C137.453 95.6374 135.728 93.0556 133.741 90.6914C132.424 89.1249 133.581 88.2474 134.323 87.2829C138.821 81.5029 144.789 78.7181 152.09 79.5883C160.067 80.5384 165.758 84.8607 168.699 92.3739C172.498 102.099 168.968 112.593 160.256 117.931Z" fill="#C50074"/>
<path d="M45.7027 98.85C45.3679 102.44 42.0636 105 37.9513 105.138C33.3587 105.297 28.7661 105.167 24.1735 105.188C20.1486 105.203 17.9142 102.65 16 99.6187V83.6929C16.2475 83.7799 16.4804 83.7582 16.706 83.6276C17.2446 82.1627 18.4455 81.4157 20.4179 80.4512C20.4179 85.7453 20.3961 90.6913 20.4325 95.6445C20.4616 99.8363 21.7353 100.975 25.9058 100.83C29.1519 100.721 30.8259 99.3359 30.5711 95.8983C30.3819 93.2658 30.149 90.5245 32.8856 88.7912C33.366 88.4866 33.7881 87.8992 34.4723 88.24C35.1783 88.5881 34.8945 89.2843 34.8872 89.821C34.8581 92.9467 35.0182 96.1014 34.6033 99.1763C34.3995 100.721 34.8508 100.721 35.9498 100.837C39.7709 101.229 41.6123 99.684 41.525 95.7823C41.4522 92.4245 41.5031 89.2481 45.7755 87.7179C45.7755 91.5543 46.0448 95.2311 45.7027 98.85Z" fill="#4A4A4A"/>
<path d="M175.621 79.8783C175.636 79.1603 175.665 78.4423 175.614 77.7244C175.046 68.9057 169.813 63.6914 160.963 63.0677C159.915 62.9952 158.794 63.4158 157.818 62.7051H126.544C126.558 62.9154 126.529 63.1257 126.456 63.3288C116.383 64.4383 111.07 68.9275 110.022 77.9999C108.632 89.9951 108.661 102.048 110.007 114.043C110.924 122.195 115.488 126.735 123.545 128.417C124.557 128.627 125.772 128.25 126.544 129.295H159.274C159.259 129.171 159.267 129.048 159.296 128.932C159.325 128.932 159.354 128.932 159.383 128.925C162.091 129.331 163.117 128.236 162.768 125.502C162.52 123.529 163.357 121.752 164.551 120.171C166.392 117.742 168.969 116.864 171.873 117.096C174.944 117.336 176.072 116.045 175.636 113.115C175.585 112.789 175.599 112.448 175.614 112.107L175.738 112.121L176 111.926V80.0741C175.89 79.9435 175.767 79.8783 175.621 79.8783ZM160.257 117.93C151.268 123.442 140.714 122.101 133.815 113.681C126.784 105.109 120.437 95.9854 113.916 87.0144C111.994 84.3674 112.7 81.5318 115.269 79.7912C117.773 78.087 120.532 78.5148 122.584 81.2127C128.567 89.0813 134.477 97.0079 140.372 104.949C142.388 107.654 144.776 109.765 148.182 110.424C153.4 111.44 158.313 108.495 159.813 103.528C161.436 98.132 158.677 92.9177 153.087 90.8291C148.051 88.9507 142.92 90.9959 140.598 95.8258C140.256 96.551 140.016 97.327 139.564 98.5091C137.454 95.6373 135.729 93.0555 133.742 90.6913C132.424 89.1248 133.582 88.2473 134.324 87.2828C138.822 81.5028 144.79 78.7179 152.09 79.5882C160.067 80.5382 165.759 84.8605 168.699 92.3738C172.499 102.099 168.969 112.593 160.257 117.93Z" fill="#CE2789"/>
<path d="M64.6621 105.189C66.2415 102.077 68.032 100.54 70.9942 100.815C72.872 100.99 72.9303 100.098 72.3625 98.6253C71.4964 96.3916 70.7904 94.0927 70.0116 91.8228C69.1528 89.299 69.4731 87.0943 71.9477 85.2378C74.2476 89.241 75.0409 93.7518 76.7805 97.8928C77.2026 98.9081 76.8096 100.982 78.9639 100.446C80.6671 100.025 81.4822 98.7558 81.4531 96.9428C81.4095 93.5778 81.4313 90.2055 81.4458 86.8405C81.4531 85.7744 81.2202 84.6503 81.9117 83.6858C82.7268 82.54 83.5129 80.8212 85.0632 81.2273C86.4242 81.5827 85.7692 83.3304 85.7837 84.4618C85.8492 88.552 85.8711 92.6423 85.7983 96.7325C85.7109 101.461 83.0907 104.405 78.469 105.087C77.6393 105.21 76.7805 105.181 75.9362 105.181C72.3553 105.196 68.7671 105.189 64.6621 105.189Z" fill="#494949"/>
<path d="M52.217 80.3862C52.217 86.0429 52.2679 91.0832 52.1952 96.1307C52.1515 99.2347 53.367 100.917 56.6713 100.83C60.1285 100.736 61.5332 99.503 61.4604 96.0074C61.3876 92.5554 61.2639 89.2121 65.711 87.6457C65.711 91.2863 65.9584 94.7456 65.6527 98.1541C65.2306 102.795 61.6206 105.356 56.3365 105.196C51.3363 105.044 48.0538 102.252 47.8355 97.6392C47.6462 93.6722 47.7627 89.6835 47.7554 85.7093C47.7481 83.0115 49.5168 81.7351 52.217 80.3862Z" fill="#4A4A4A"/>
<path d="M92.0432 80.2334C92.0432 85.9191 92.0214 90.8216 92.0505 95.7241C92.0723 99.604 93.1568 100.815 96.4829 100.815C100.064 100.815 101.258 99.5532 101.316 95.7168C101.403 90.0819 101.512 89.857 105.435 87.8409C105.435 91.7064 105.756 95.521 105.341 99.2559C104.933 102.925 101.119 105.232 96.5776 105.195C91.7593 105.159 88.2803 102.853 87.8946 98.7265C87.4724 94.1939 87.5816 89.596 87.6908 85.0343C87.7563 82.7354 89.685 81.6983 92.0432 80.2334Z" fill="#4A4A4A"/>
<path d="M39.1886 81.5171C40.8772 81.7709 41.9398 82.7717 41.8524 84.3889C41.7724 86.0134 40.5569 87.0795 38.9266 86.9707C37.3617 86.8619 36.1899 85.8684 36.3137 84.1134C36.4301 82.4236 37.5291 81.6041 39.1886 81.5171Z" fill="#4F4F4F"/>
<path d="M30.6793 109.075C30.592 111.012 29.6895 112.049 27.9864 112.085C26.5016 112.114 25.4462 111.403 25.3662 109.728C25.2861 108.038 25.9048 106.907 27.7389 106.777C29.5293 106.646 30.3372 107.705 30.6793 109.075Z" fill="#4D4D4D"/>
<path d="M56.7601 106.748C58.405 106.835 59.5113 107.712 59.5404 109.373C59.5695 111.026 58.5069 112.034 56.8256 112.085C55.1007 112.136 54.0162 111.034 53.9798 109.474C53.9361 107.893 54.9988 106.864 56.7601 106.748Z" fill="#4B4B4B"/>
<path d="M99.5766 109.54C99.1254 111.084 98.2665 112.179 96.5489 112.078C94.8676 111.976 93.8195 110.932 93.9141 109.286C94.0087 107.669 95.1005 106.697 96.8254 106.777C98.5504 106.864 99.3219 107.966 99.5766 109.54Z" fill="#4B4B4B"/>
<path d="M21.3944 106.755C23.3159 106.741 24.2402 107.647 24.2621 109.388C24.2766 110.903 23.5706 111.955 21.9549 112.071C20.2299 112.194 19.1163 111.273 18.9708 109.627C18.8252 107.959 19.8514 106.98 21.3944 106.755Z" fill="#4B4B4B"/>
<path d="M160.256 117.931C151.267 123.442 140.714 122.101 133.814 113.681C126.783 105.109 120.436 95.9855 113.915 87.0146C111.993 84.3675 112.699 81.5319 115.269 79.7914C117.772 78.0871 120.531 78.515 122.583 81.2128C128.566 89.0814 134.476 97.0081 140.372 104.949C142.388 107.654 144.775 109.765 148.181 110.425C153.4 111.44 158.312 108.496 159.812 103.528C161.435 98.1322 158.676 92.9178 153.087 90.8292C148.05 88.9509 142.919 90.996 140.597 95.826C140.255 96.5512 140.015 97.3272 139.564 98.5093C137.453 95.6374 135.728 93.0556 133.741 90.6914C132.424 89.1249 133.581 88.2474 134.323 87.2829C138.821 81.5029 144.789 78.7181 152.09 79.5883C160.067 80.5384 165.758 84.8607 168.699 92.3739C172.498 102.099 168.968 112.593 160.256 117.931Z" fill="#FEFEFE"/>
</g>
<defs>
<clipPath id="clip0_5218_40610">
<rect width="192" height="192" fill="white"/>
</clipPath>
</defs>
</svg>
