<svg width="192" height="192" viewBox="0 0 192 192" fill="none" xmlns="http://www.w3.org/2000/svg">
<g clip-path="url(#clip0_4885_43753)">
<path d="M96 192C149.019 192 192 149.019 192 96C192 42.9807 149.019 0 96 0C42.9807 0 0 42.9807 0 96C0 149.019 42.9807 192 96 192Z" fill="#7C1F6A"/>
<path d="M75.5332 83.5572C75.7632 80.4672 77.3432 77.1771 80.5232 76.2571C83.6432 75.4971 86.9132 75.9971 90.0932 75.8571V79.6372C87.3432 79.7272 84.5632 79.4072 81.8332 79.8072C80.0432 80.1272 79.7932 82.1572 79.3032 83.5572C78.0432 83.5572 76.7832 83.5472 75.5332 83.5572Z" fill="white"/>
<path d="M52.6543 78.1772H56.3743C56.3743 86.1472 56.3743 94.1172 56.3743 102.087C57.9543 102.057 59.5543 102.217 61.1043 101.857C63.1043 101.167 63.3143 98.6972 63.3343 96.9072C63.3343 90.6772 63.3343 84.4372 63.3443 78.2072C64.5943 78.2072 65.8543 78.2072 67.1043 78.2072C67.1343 84.6472 67.0743 91.0972 67.1343 97.5472C67.0843 99.5272 68.0543 102.147 70.4343 102.037C72.6543 102.037 76.0943 102.777 77.0643 100.097C77.3843 97.8472 77.1943 95.5672 77.2143 93.2972C78.4643 93.2972 79.7243 93.2972 80.9743 93.2972C81.0643 97.4872 81.6343 103.287 76.9743 105.317C73.1043 106.157 68.3643 106.567 65.2243 103.637C61.8443 106.937 56.8643 105.597 52.6543 105.857V78.1772Z" fill="white"/>
<path d="M82.9941 81.0571C84.2341 81.0571 85.4741 81.0571 86.7141 81.0571V105.857C85.4741 105.857 84.2341 105.857 82.9941 105.857V81.0571Z" fill="white"/>
<path d="M73.9938 87.0572C75.8238 86.3472 77.8738 88.3272 77.1738 90.1772C76.7238 91.9472 74.1838 92.5572 72.9838 91.1772C71.6838 89.9572 72.2938 87.5472 73.9838 87.0572H73.9938Z" fill="white"/>
<path d="M23.5136 93.5972H27.2636C27.2936 98.8372 27.2036 104.097 27.2936 109.337C27.2236 110.757 28.2936 112.197 29.7736 112.257C32.6536 112.517 35.5536 112.287 38.4336 112.357C38.4336 106.107 38.4336 99.8472 38.4336 93.5972H42.2036C42.2036 96.4772 42.2036 99.3572 42.2036 102.237C43.9536 102.167 46.4136 102.267 46.9936 100.137C47.2936 97.9672 47.1136 95.7772 47.1236 93.5872C48.3736 93.5872 49.6336 93.5872 50.8836 93.5872C50.8136 97.1172 51.5336 101.297 48.8036 104.077C47.1536 105.967 44.4936 105.907 42.1936 105.937C42.1936 109.317 42.1836 112.697 42.1936 116.087C37.8036 116.007 33.4036 116.237 29.0236 115.977C25.8136 115.667 23.6536 112.467 23.5736 109.407C23.4136 104.137 23.5736 98.8572 23.5136 93.5872V93.5972Z" fill="white"/>
<path d="M31.2138 100.877C32.9038 99.8071 35.3038 101.467 34.9038 103.437C34.7238 105.317 32.1438 106.267 30.7938 104.947C29.4938 103.907 29.7238 101.627 31.2138 100.877Z" fill="white"/>
<path d="M44.3335 108.817C45.7635 108.017 47.7835 109.057 47.9335 110.707C48.3335 112.617 46.0235 114.257 44.3435 113.297C42.5235 112.497 42.5235 109.627 44.3435 108.817H44.3335Z" fill="white"/>
<path d="M49.7838 108.967C51.2038 107.927 53.4738 108.937 53.6238 110.697C54.0738 112.757 51.4038 114.407 49.7538 113.127C48.2938 112.217 48.3138 109.857 49.7838 108.967Z" fill="white"/>
<path d="M112.664 78.1772C113.924 78.1772 115.174 78.1772 116.434 78.1772C116.434 82.7872 116.464 87.3972 116.414 91.9972C118.164 90.9172 119.944 89.7072 122.024 89.3872C125.034 88.8472 128.284 90.3672 129.784 93.0372C131.464 95.7972 131.094 99.1672 131.124 102.257C132.454 101.987 134.134 101.817 134.654 100.317C135.134 98.0172 134.814 95.6372 134.874 93.3072C136.124 93.3072 137.374 93.3072 138.624 93.3072C138.514 96.7972 139.314 100.857 136.814 103.727C135.454 105.477 133.174 105.807 131.114 105.927C131.114 107.137 131.114 108.357 131.114 109.567C129.854 109.567 128.604 109.567 127.354 109.567C127.354 108.327 127.344 107.087 127.344 105.847C120.214 105.847 113.084 105.887 105.954 105.867C105.954 102.857 105.954 99.8572 105.954 96.8472C103.804 97.0072 100.594 96.1672 99.5445 98.6972C97.8745 103.397 100.404 108.917 97.6345 113.337C96.4245 115.377 94.0345 116.037 91.8145 116.177C91.8145 114.957 91.8145 113.737 91.8145 112.517C93.1745 112.177 94.9345 111.737 95.1145 110.047C95.4945 106.417 94.8945 102.737 95.3945 99.1072C95.8445 96.2772 98.0745 93.7372 100.954 93.2572C103.844 92.8572 106.774 93.1472 109.694 93.0772C109.694 94.8972 109.694 96.7072 109.684 98.5272C110.674 97.4472 111.664 96.3672 112.674 95.2972V78.1472L112.664 78.1772ZM121.344 93.5272C117.364 95.4172 114.484 98.8972 111.624 102.127C116.864 102.127 122.114 102.097 127.364 102.097C127.284 99.7172 127.734 97.1172 126.534 94.9372C125.554 93.1372 123.124 92.5972 121.344 93.5272Z" fill="white"/>
<path d="M122.205 81.7972C123.665 80.7972 125.915 81.8872 126.005 83.6472C126.345 85.5872 123.935 87.1572 122.285 86.0972C120.675 85.2572 120.615 82.7072 122.195 81.7972H122.205Z" fill="white"/>
<path d="M135.394 81.8271C137.074 80.5971 139.684 82.2871 139.234 84.3271C139.044 86.0271 136.864 87.0371 135.454 86.0771C133.904 85.1971 133.874 82.7471 135.404 81.8271H135.394Z" fill="white"/>
<path d="M164.705 93.3972C165.955 93.3972 167.215 93.3972 168.465 93.3972C168.375 97.0272 169.175 101.377 166.285 104.197C164.275 106.317 161.105 105.907 158.465 105.847C160.585 108.857 159.535 112.677 159.785 116.087C155.535 116.027 151.275 116.197 147.025 116.027C143.905 115.947 141.525 113.067 141.235 110.097C140.925 106.557 141.185 102.997 141.105 99.4472C142.355 99.4572 143.615 99.4572 144.865 99.4472C144.915 102.777 144.775 106.117 144.895 109.437C144.865 110.717 145.765 112.037 147.085 112.217C150.075 112.547 153.085 112.267 156.085 112.347C155.895 110.407 156.355 107.867 154.515 106.567C152.965 105.757 151.115 106.127 149.435 106.017V102.167C153.505 102.117 157.575 102.247 161.635 102.117C162.935 102.177 164.285 101.377 164.585 100.057C164.875 97.8472 164.695 95.6072 164.715 93.3872L164.705 93.3972Z" fill="white"/>
<path d="M102.335 108.807C103.975 107.837 106.245 109.387 105.965 111.267C105.895 113.177 103.335 114.267 101.905 112.987C100.505 111.947 100.755 109.547 102.335 108.807Z" fill="white"/>
<path d="M107.784 108.957C109.214 107.907 111.524 108.927 111.664 110.707C112.034 112.537 109.894 114.157 108.234 113.347C106.424 112.687 106.164 109.967 107.794 108.967L107.784 108.957Z" fill="white"/>
<path d="M164.514 109.097C165.974 108.377 167.914 109.647 167.794 111.297C167.824 112.937 165.814 114.137 164.394 113.297C162.664 112.537 162.764 109.767 164.524 109.087L164.514 109.097Z" fill="white"/>
</g>
<defs>
<clipPath id="clip0_4885_43753">
<rect width="192" height="192" fill="white"/>
</clipPath>
</defs>
</svg>
