<svg width="192" height="192" viewBox="0 0 192 192" fill="none" xmlns="http://www.w3.org/2000/svg">
<g clip-path="url(#clip0_5218_40899)">
<path d="M96 192C149.019 192 192 149.019 192 96C192 42.9807 149.019 0 96 0C42.9807 0 0 42.9807 0 96C0 149.019 42.9807 192 96 192Z" fill="white"/>
<path d="M114.708 128.679C114.222 128.587 113.945 128.318 113.987 127.79C114.993 122.433 114.256 117.034 114.423 111.66C114.582 106.597 114.314 101.525 114.482 96.4611C114.415 105.557 114.44 114.645 114.398 123.741C114.39 125.099 114.775 126.524 113.996 127.807C112.512 125.493 113.358 122.936 113.317 120.505C113.199 113.128 113.124 105.75 113.35 98.3809C113.451 95.2036 112.705 93.7281 109.292 94.273C107.842 94.4994 106.333 94.3149 103.65 94.3149C116.033 83.2319 127.594 72.8951 139.146 62.5498C139.708 62.5498 140.261 62.5498 140.823 62.5498C144.076 63.3882 146.264 65.8529 148.645 67.8985C156.869 74.9825 164.775 82.4355 172.999 89.5196C174.298 90.6346 175.145 92.0598 176 93.485C176 93.7616 176 94.0383 176 94.3233C175.019 95.1952 173.812 95.606 172.554 95.5305C168.681 95.2958 167.994 97.5258 168.044 100.753C168.145 106.697 168.145 112.641 168.027 118.577C167.994 120.43 168.413 122.542 166.309 123.749C164.347 122.601 164.842 120.639 164.816 118.937C164.733 112.884 164.808 106.832 164.766 100.787C164.758 99.3199 165.169 97.7186 163.827 96.5282C163.148 95.9916 162.771 95.2623 162.419 94.491C158.101 84.8583 150.078 80.4318 140.295 82.2594C131.266 83.9445 124.106 92.6802 123.427 102.187C122.74 111.904 126.713 119.105 134.351 124.73C135.659 125.694 138.266 126.156 137.059 128.889C129.606 128.956 122.153 129.358 114.708 128.679Z" fill="#D20802"/>
<path d="M137.444 127.824C138.29 128.36 139.54 128.268 139.976 129.442C131.6 129.442 123.225 129.442 114.842 129.442C114.842 129.173 114.8 128.922 114.699 128.679C120.97 128.654 127.233 128.662 133.503 128.587C134.845 128.57 136.329 129.073 137.444 127.824Z" fill="#D32924"/>
<path d="M164.291 126.482C164.903 126.248 165.649 125.476 166.144 126.197C167.083 127.564 165.356 128.318 165.104 129.45C163.151 129.45 161.197 129.45 159.244 129.45C159.538 128.142 160.946 128.343 161.692 127.656C162.304 126.692 163.042 126.021 164.291 126.482Z" fill="#D6221F"/>
<path d="M77.9992 112.021C75.962 112.054 73.9164 112.071 71.8792 112.063C69.7163 112.054 67.3186 111.484 65.6587 114.536C64.0826 117.428 57.0656 116.615 55.2631 113.882C54.7685 111.409 54.8439 108.936 55.2463 106.463C58.5662 106.588 57.1913 109.154 57.1829 110.654C57.1745 112.859 57.8452 113.639 60.0501 113.446C61.9699 113.278 64.1328 113.89 63.9233 110.688C63.764 108.332 63.8981 105.951 63.9317 103.587C63.9484 102.371 63.6215 100.586 65.2143 100.493C67.0168 100.384 66.5138 102.246 66.5808 103.386C66.6647 104.769 66.6479 106.169 66.5892 107.561C66.5306 108.936 67.0084 109.632 68.4839 109.598C69.8672 109.564 70.0181 108.743 70.0181 107.661C70.0265 105.708 70.0432 103.763 70.1522 101.818C70.1941 101.147 70.4708 100.376 71.3678 100.435C72.1307 100.485 72.6673 101.03 72.7008 101.785C72.7846 103.453 72.7343 105.121 72.7762 106.789C72.8098 108.106 72.3235 109.682 74.6625 109.615C77.0518 109.548 76.2973 107.863 76.3812 106.639C76.4734 105.255 76.4147 103.855 76.4231 102.464C76.4315 101.399 76.7081 100.41 77.9656 100.485C79.0639 100.552 79.0471 101.625 79.0471 102.422C79.0471 104.643 78.9465 106.873 78.8878 109.095C80.4975 110.319 82.1406 110.118 83.8006 109.221C83.7838 106.991 83.7754 104.769 83.7503 102.539C83.7419 101.55 84.1275 101.055 85.1922 100.963C86.542 100.854 86.4246 101.776 86.433 102.556C86.4581 104.786 86.4162 107.007 86.3995 109.237C86.7013 110.093 88.16 109.506 88.2103 110.688C87.5228 112.046 86.1731 112.314 84.8988 112.725C82.585 112.691 80.3047 112.264 77.9992 112.021Z" fill="#D30C09"/>
<path d="M30.951 97.2743C33.2397 97.0731 32.9379 98.7079 32.9379 100.1C32.9463 102.556 32.9463 105.004 32.9379 107.46C32.9295 109.481 33.7762 110.537 35.9308 110.143C37.532 109.481 39.2004 109.841 40.8351 109.824C46.3934 109.774 46.5611 109.573 45.2113 103.562L45.2952 103.646C43.4173 102.321 41.1453 103.721 39.2087 102.774C38.1776 102.833 37.4566 102.346 37.9512 101.357C38.5548 100.158 39.3848 98.9845 40.3657 98.0707C41.4807 97.0228 42.4112 94.3233 43.937 95.4467C45.5383 96.6204 42.6041 97.8779 42.4699 99.4121C42.7214 101.407 44.6413 100.133 45.4964 100.946C49.051 103.528 47.7348 107.309 47.9108 110.721C47.9527 111.493 47.5 112.105 46.712 112.096C41.8999 112.046 37.0961 111.971 32.284 111.778C31.8564 111.761 31.4708 110.789 31.0684 110.269C30.3641 105.943 30.5905 101.609 30.951 97.2743Z" fill="#D00000"/>
<path d="M27.0525 104.694C27.0608 105.666 27.1782 106.655 27.0273 107.603C26.7926 109.137 27.9998 111.375 26.0213 112.071C23.6907 112.893 20.9996 112.893 18.8031 111.426C17.2773 110.403 16.6988 108.341 17.9899 107.1C19.3983 105.75 19.7923 107.519 20.3037 108.659C20.8822 109.942 22.2236 109.481 23.2631 109.422C24.7722 109.347 24.3614 108.089 24.3781 107.217C24.4284 104.442 24.3949 101.667 24.4117 98.8923C24.42 97.8444 24.6883 96.8552 25.9794 96.9474C27.1028 97.0312 27.0105 98.0791 27.0273 98.8672C27.0776 100.804 27.0441 102.749 27.0525 104.694Z" fill="#D4120E"/>
<path d="M107.213 108.995C107.146 106.941 107.088 104.878 107.012 102.824C106.962 101.424 107.457 100.712 108.966 101.198C109.821 104.669 109.276 108.173 109.284 111.669C106.61 113.002 103.634 111.962 100.892 112.734C100.205 112.608 99.5928 112.323 99.0898 111.828C98.7964 111.493 98.6287 111.099 98.6035 110.655C98.6874 109.959 99.4167 109.724 99.685 109.154C99.6515 107.083 99.6515 105.013 99.5844 102.942C99.5425 101.634 99.8611 100.754 101.429 101.081C102.586 103.747 101.026 106.698 102.326 109.347L102.275 109.288C103.986 110.009 105.654 110.412 107.213 108.995Z" fill="#D30C09"/>
<path d="M98.8798 110.286C98.9049 110.537 98.9217 110.789 98.9385 111.049C97.5552 112.507 95.6354 111.493 94.0676 112.122C93.6401 112.248 93.2041 112.306 92.7598 112.289C90.3621 111.912 87.8554 113.103 85.5332 111.77C86.3883 111.283 87.2434 110.797 88.0986 110.303C91.4184 110.16 92.349 108.366 91.8795 105.272C91.6867 103.998 91.4352 102.548 92.2484 101.29C92.7933 101.265 93.3383 101.24 93.8916 101.215C94.6125 102.204 94.4365 103.378 94.2688 104.401C93.6736 108.106 94.8054 110.303 98.8798 110.286Z" fill="#D10000"/>
<path d="M20.0761 100.996C20.0761 101.952 20.1348 102.916 20.0594 103.864C20.0007 104.618 19.4893 105.104 18.7096 105.138C17.8461 105.171 17.5359 104.501 17.4605 103.805C17.2593 101.96 17.6868 100.066 16.1862 98.4059C15.5826 97.7352 16.5634 96.9387 17.4605 96.813C18.5839 96.6621 19.7659 96.6956 20.0426 98.1292C20.2186 99.0598 20.1516 100.032 20.1935 100.988C20.16 100.996 20.118 100.996 20.0761 100.996Z" fill="#D3130E"/>
<path d="M99.7635 111.845C102.832 111.954 105.917 112.599 108.96 111.644C109.161 111.426 109.379 111.401 109.622 111.577C109.664 112.624 108.516 112.775 108.155 113.522C107.837 113.807 107.552 113.765 107.283 113.438C105.909 112.474 104.534 112.516 103.142 113.404C102.857 114.335 102.237 114.938 101.323 115.249C101.038 115.223 100.761 115.198 100.476 115.173C99.4952 114.905 98.7491 114.293 98.0868 113.555C96.8879 112.247 95.2867 113.052 93.895 112.759C93.6016 112.591 93.5178 112.44 93.6351 112.323C93.7357 112.214 93.8447 112.155 93.9621 112.155L93.8699 111.795C95.8484 111.35 97.8101 111.224 99.7635 111.845Z" fill="#F8E1DF"/>
<path d="M93.9686 112.147C93.9351 112.348 93.91 112.549 93.9016 112.75C91.6799 113.044 89.3577 112.205 87.2283 113.396C87.0355 114.385 86.1301 114.695 85.4678 115.24C85.1911 115.224 84.9061 115.207 84.6294 115.198C83.6653 114.913 82.8856 114.335 82.2066 113.614C81.2005 112.038 79.0208 113.547 77.998 112.013C80.5131 111.929 83.0198 111.845 85.5348 111.77C88.3517 111.895 91.1602 112.021 93.9686 112.147Z" fill="#F9E1DF"/>
<path d="M45.2102 103.562C47.5073 108.793 46.669 110.235 41.2784 110.235C39.4927 110.235 37.7154 110.177 35.9297 110.143C36.9776 109.154 38.2855 109.531 39.4927 109.506C45.3779 109.397 45.3779 109.414 45.2102 103.562Z" fill="#D30E09"/>
<path d="M92.2476 101.29C92.256 102.933 92.0883 104.602 92.3231 106.22C92.8093 109.648 91.141 110.629 88.0978 110.311C87.3852 110.193 86.6726 110.059 86.4043 109.238C91.6691 109.766 91.6356 109.766 91.7278 104.819C91.753 103.637 91.2332 102.338 92.2476 101.29Z" fill="#D30F0A"/>
<path d="M98.881 110.286C95.0497 110.822 93.2054 109.422 93.8425 105.34C94.0521 103.998 93.8844 102.59 93.8928 101.215C95.3264 102.254 94.6893 103.814 94.53 104.996C93.9515 109.406 95.93 110.311 99.6942 109.154C99.4259 109.54 99.1493 109.909 98.881 110.286Z" fill="#D30F0A"/>
<path d="M30.9503 97.2744C30.9838 101.6 31.0257 105.935 31.0593 110.26C29.7934 105.951 29.9275 101.617 30.9503 97.2744Z" fill="#D30E09"/>
<path d="M109.627 111.577C109.409 111.593 109.183 111.618 108.965 111.644C108.965 108.164 108.965 104.685 108.973 101.198C110.44 104.585 109.3 108.123 109.627 111.577Z" fill="#D51917"/>
<path d="M102.344 109.355C100.499 106.764 101.858 103.83 101.447 101.089C103.45 103.663 101.732 106.63 102.344 109.355Z" fill="#D30F0A"/>
<path d="M55.2356 106.462C55.244 108.936 55.2523 111.409 55.2523 113.882C54.196 111.409 54.1625 108.936 55.2356 106.462Z" fill="#D41712"/>
<path d="M101.327 115.248C101.277 113.982 101.905 113.396 103.146 113.404C103.775 114.016 104.328 114.619 103.482 115.491C102.635 116.347 101.989 115.793 101.327 115.248Z" fill="#D82A27"/>
<path d="M39.1992 102.774C41.2532 102.9 43.4916 101.743 45.2856 103.646C43.2568 103.353 41.228 103.068 39.1992 102.774Z" fill="#D30E09"/>
<path d="M93.4421 96.8719C94.0457 96.9557 93.987 97.6515 93.9367 98.3222C93.8948 98.951 93.5091 99.3534 92.9055 99.236C92.2432 99.1103 91.5055 98.6576 91.5977 97.9701C91.6815 97.3749 92.2935 96.83 93.4421 96.8719Z" fill="#D30F0A"/>
<path d="M107.29 113.438C107.583 113.463 107.868 113.488 108.161 113.522C108.69 114.193 109.251 114.855 108.354 115.651C107.709 116.221 107.055 116.163 106.611 115.475C106.032 114.587 106.485 113.924 107.29 113.438Z" fill="#D51C19"/>
<path d="M85.4676 115.249C85.4173 114.025 86.0628 113.471 87.2281 113.404C87.8988 113.983 88.4437 114.57 87.6221 115.441C86.8089 116.313 86.1466 115.727 85.4676 115.249Z" fill="#D51B17"/>
<path d="M82.2058 113.622C83.5639 113.304 84.4442 113.74 84.6286 115.207C82.5579 116.599 81.8537 115.919 82.2058 113.622Z" fill="#D5201D"/>
<path d="M98.0931 113.555C99.4764 113.237 100.223 113.849 100.482 115.173C98.3111 116.657 97.6656 115.894 98.0931 113.555Z" fill="#D5211E"/>
<path d="M107.216 108.995C105.69 110.889 104.022 110.571 102.295 109.296C103.963 109.531 105.623 109.749 107.216 108.995Z" fill="#D30F0A"/>
<path d="M83.8092 109.212C82.1325 110.688 80.4894 110.839 78.8965 109.086C80.5145 109.967 82.166 109.506 83.8092 109.212Z" fill="#D30F0A"/>
<path d="M45.495 100.946C44.4555 100.502 42.1668 102.497 42.4686 99.4121C42.9632 100.93 44.7741 99.8648 45.495 100.946Z" fill="#D30E09"/>
<path d="M166.007 123.766C165.965 124.286 165.646 124.471 165.16 124.454C163.24 124.177 163.835 122.593 163.852 121.562C163.919 115.173 163.55 108.777 164.162 102.397C164.179 100.309 164.187 98.2218 164.204 96.1427C164.472 95.6984 164.766 94.8516 164.992 94.8684C166.183 94.9774 165.906 96.017 165.906 96.7631C165.931 102.439 165.914 108.123 165.931 113.798C165.94 117.118 165.981 120.447 166.007 123.766Z" fill="#D20300"/>
<path d="M113.987 127.807C113.987 117.009 113.987 106.211 113.987 95.4134C114.272 95.405 114.557 95.3883 114.842 95.3799C114.842 98.6411 114.842 101.911 114.842 105.172C114.842 111.409 114.867 117.655 114.825 123.892C114.817 125.225 115.278 126.709 113.979 127.782L113.987 127.807Z" fill="#D10400"/>
<path d="M164.164 102.397C165.942 109.196 164.919 116.095 164.902 122.953C164.902 123.506 164.718 124.009 165.162 124.454C164.869 124.739 164.575 125.024 164.282 125.309C163.158 126.667 161.423 126.357 159.981 126.876C149.887 129.006 140.95 126.977 133.556 119.491C130.773 116.665 128.803 113.387 128.325 109.355C128.669 106.857 128.685 104.358 128.316 101.86C130.396 90.0309 141.328 83.7516 151.078 88.7901C158.447 92.5962 160.249 101.826 154.708 107.376C150.147 111.945 142.552 110.369 140.305 104.434C139.257 101.667 140.581 99.4372 142.208 97.6599C143.348 96.4191 145.067 95.673 147.272 96.5784C149.057 97.3078 150.625 97.8611 150.902 99.8564C151.212 102.103 151.011 104.291 148.345 105.197C148.311 106.563 148.311 106.563 150.189 106.136C152.629 105.624 152.947 103.277 154.087 101.634C155.144 100.661 154.8 99.7138 154.054 98.7665C152.327 94.9185 149.652 92.4453 145.134 92.6298C140.883 92.8058 138.134 95.1867 136.608 98.8839C134.897 103.025 135.417 107.066 138.36 110.57C145.075 118.56 157.675 116.464 162.454 106.572C163.116 105.222 163.603 103.788 164.164 102.397Z" fill="#D20802"/>
<path d="M128.332 101.86C129.523 104.359 129.514 106.857 128.341 109.355C127.502 106.857 127.544 104.359 128.332 101.86Z" fill="#D10200"/>
<path d="M159.99 126.876C161.424 126.357 162.857 125.837 164.291 125.309C164.291 125.703 164.291 126.088 164.299 126.482C163.545 127.111 162.774 127.723 161.7 127.648C161.122 127.388 160.56 127.128 159.99 126.876Z" fill="#F3C7C5"/>
<path d="M150.207 106.144C149.662 106.915 148.824 106.915 148.036 106.865C147.315 106.823 146.082 107.15 146.116 106.094C146.166 104.719 147.566 105.448 148.363 105.205C148.732 106.002 149.528 105.951 150.207 106.144Z" fill="#F4CBC8"/>
<path d="M154.068 98.7749C155.896 99.4456 154.907 100.77 154.781 101.894C154.781 101.919 154.521 101.952 154.404 101.91C154.286 101.868 154.194 101.734 154.094 101.642C154.085 100.686 154.077 99.7306 154.068 98.7749Z" fill="#D10100"/>
<path d="M99.7602 111.845C97.7985 112.155 95.8367 112.314 93.875 111.786C95.4008 110.445 97.2452 111.283 98.9303 111.048C99.2069 111.317 99.4836 111.577 99.7602 111.845Z" fill="#D10000"/>
</g>
<defs>
<clipPath id="clip0_5218_40899">
<rect width="192" height="192" fill="white"/>
</clipPath>
</defs>
</svg>
