<svg width="192" height="192" viewBox="0 0 192 192" fill="none" xmlns="http://www.w3.org/2000/svg">
<g clip-path="url(#clip0_4885_42857)">
<path d="M96 192C149.019 192 192 149.019 192 96C192 42.9807 149.019 0 96 0C42.9807 0 0 42.9807 0 96C0 149.019 42.9807 192 96 192Z" fill="white"/>
<path d="M38.3205 75.549C41.4874 73.8787 45.0501 72.9807 48.6322 72.9614C54.377 72.9614 60.1218 72.9614 65.8569 72.9614C65.8569 75.9545 65.8569 78.9573 65.8569 81.9504C60.2087 81.9504 54.5604 81.9504 48.9218 81.9504C45.8032 81.96 42.7039 83.0993 40.2998 85.0883C37.7122 87.2028 35.9164 90.2634 35.3564 93.5558C34.7674 96.9158 35.4626 100.469 37.2681 103.356C39.7784 107.459 44.5094 110.105 49.337 109.96C54.879 109.96 60.4211 109.96 65.9535 109.96C65.9535 112.963 65.9535 115.956 65.9535 118.958C60.2763 118.958 54.599 118.958 48.9122 118.958C45.977 118.968 43.0418 118.418 40.3288 117.307C36.0226 115.57 32.286 112.461 29.7564 108.57C27.3233 104.862 26.0005 100.43 26.0005 95.9986C25.9716 91.8276 27.1302 87.6662 29.2736 84.0938C31.4267 80.4924 34.5839 77.4897 38.3108 75.5394L38.3205 75.549Z" fill="#87AF30"/>
<path d="M83.6812 74.6513C87.8136 72.9423 92.4577 72.5175 96.8315 73.4251C101.572 74.3906 105.956 76.9395 109.18 80.5409C113.11 84.8664 115.244 90.7367 115.051 96.5781C115.051 104.061 115.051 111.544 115.051 119.036C112.087 119.036 109.113 119.036 106.149 119.036C105.56 114.517 102.847 110.346 98.9557 107.971C97.2081 106.89 95.2191 106.195 93.1722 105.973C92.2646 105.866 91.3474 105.886 90.4398 105.886H78.3902C78.3902 110.269 78.3902 114.652 78.3902 119.036H69.4785C69.4785 111.273 69.4785 103.501 69.4785 95.7284C69.4882 91.4995 70.7144 87.2802 72.964 83.6981C75.484 79.6719 79.2785 76.4568 83.6812 74.6513ZM85.4095 83.9685C82.0978 85.8609 79.6164 89.1533 78.7571 92.8802C78.4288 94.2029 78.3709 95.5739 78.3806 96.9353C81.924 96.9643 85.4578 96.9353 89.0012 96.945C91.0481 96.9546 93.1143 96.8677 95.1515 97.167C99.1198 97.6981 102.924 99.2815 106.139 101.666C106.139 99.687 106.139 97.7077 106.139 95.7284C106.081 92.5326 104.855 89.3753 102.76 86.9712C100.703 84.5767 97.826 82.9064 94.717 82.3561C91.5502 81.7767 88.1998 82.3561 85.4191 83.9685H85.4095Z" fill="#87AF30"/>
<path d="M122.831 74.4676C124.414 73.4249 126.326 72.9035 128.228 72.9711C130.603 73.0097 133.065 73.6083 134.929 75.1531C135.826 75.8869 136.551 76.8138 137.12 77.818C143.435 88.3517 149.73 98.9048 156.054 109.429C156.073 97.2731 156.054 85.1172 156.054 72.9614H165.999V109.747C165.999 111.978 165.139 114.189 163.662 115.859C162.117 117.626 159.897 118.775 157.56 118.978C156.45 119.065 155.33 119.074 154.229 118.92C151.593 118.524 149.189 116.912 147.76 114.672C141.436 104.099 135.131 93.5076 128.807 82.9255C128.72 82.8 128.614 82.6841 128.498 82.5876C128.469 94.7338 128.508 106.88 128.498 119.016C125.186 119.016 121.875 119.016 118.563 119.016C118.563 107.285 118.563 95.5544 118.563 83.8331C118.563 82.7228 118.505 81.6028 118.737 80.5117C119.2 78.0497 120.716 75.8097 122.831 74.4483V74.4676Z" fill="#87AF30"/>
</g>
<defs>
<clipPath id="clip0_4885_42857">
<rect width="192" height="192" fill="white"/>
</clipPath>
</defs>
</svg>
