<svg width="192" height="192" viewBox="0 0 192 192" fill="none" xmlns="http://www.w3.org/2000/svg">
<g clip-path="url(#clip0_4885_44025)">
<path d="M96 192C149.019 192 192 149.019 192 96C192 42.9807 149.019 0 96 0C42.9807 0 0 42.9807 0 96C0 149.019 42.9807 192 96 192Z" fill="white"/>
<path d="M80.2164 138.274C80.2164 135.464 80.2664 132.644 80.1964 129.834C80.1564 128.324 81.0664 128.454 82.0864 128.394C83.2364 128.324 83.4764 128.794 83.4664 129.844C83.4364 133.904 83.0164 133.394 87.0464 133.434C87.6664 133.434 88.2764 133.434 88.8964 133.434C91.9264 133.424 93.4164 134.864 93.4164 137.874C93.4164 140.814 93.3164 143.764 93.4164 146.704C93.4764 148.284 92.4964 147.904 91.6164 147.984C90.5764 148.074 90.0964 147.774 90.1364 146.614C90.2164 144.334 90.1664 142.044 90.1564 139.754C90.1464 137.394 89.6264 136.844 87.2964 136.894C86.3264 136.914 85.2664 136.524 84.3964 137.344C83.7664 137.944 83.3964 138.604 83.4164 139.534C83.4664 141.954 83.3664 144.374 83.4464 146.784C83.4964 148.224 82.6364 148.124 81.6564 148.164C80.6464 148.204 80.1164 148.034 80.1564 146.834C80.2264 143.984 80.1764 141.124 80.1764 138.264H80.2064L80.2164 138.274Z" fill="#FD0100"/>
<path d="M158.987 140.944H158.998C158.998 138.884 158.988 136.814 158.998 134.754C158.998 134.124 158.867 133.794 158.127 133.804C154.827 133.834 151.518 133.784 148.218 133.834C146.528 133.854 145.137 135.384 145.127 137.064C145.127 139.784 145.117 142.514 145.127 145.234C145.127 146.704 146.408 147.994 147.858 148.004C151.208 148.024 154.547 147.974 157.897 148.034C158.837 148.054 158.997 147.674 158.977 146.884C158.947 144.904 158.968 142.934 158.968 140.954L158.987 140.944ZM151.828 144.854C150.728 144.854 149.537 145.184 148.687 144.014C147.917 142.944 147.728 139.154 148.498 138.094C148.598 137.954 148.717 137.814 148.837 137.704C149.497 137.094 154.528 137.024 155.218 137.574C155.548 137.834 155.568 138.164 155.578 138.514C155.588 139.394 155.578 140.264 155.578 141.144C155.598 145.174 155.987 144.884 151.817 144.854H151.828Z" fill="#010101"/>
<path d="M132.818 147.095C132.788 145.125 132.808 143.145 132.808 141.175C132.808 139.115 132.808 137.055 132.808 134.985C132.808 134.425 132.838 133.945 132.018 133.955C128.938 133.985 125.858 133.905 122.788 134.015C120.578 134.095 118.988 135.755 119.128 137.955C119.288 140.355 119.158 142.775 119.168 145.195C119.178 146.805 120.458 148.105 122.028 148.115C125.288 148.115 128.538 148.085 131.788 148.145C132.658 148.165 132.818 147.845 132.808 147.095H132.818ZM129.908 143.505C129.888 144.485 129.448 145.055 128.368 145.025C127.098 144.985 125.808 145.025 124.538 145.015C123.138 144.995 122.348 144.255 122.278 142.845C122.218 141.795 122.228 140.735 122.228 139.685C122.238 137.965 122.798 137.415 124.538 137.405C125.108 137.405 125.688 137.405 126.258 137.405C126.748 137.405 127.228 137.405 127.718 137.405C129.728 137.415 129.928 137.595 129.938 139.555C129.938 140.875 129.948 142.195 129.928 143.515L129.908 143.505Z" fill="#010101"/>
<path d="M46.5072 138.274C46.5072 135.464 46.5472 132.644 46.4872 129.834C46.4572 128.494 47.1772 128.384 48.2372 128.384C49.3072 128.384 49.7172 128.744 49.7372 129.844C49.7972 133.434 49.8272 133.434 53.4572 133.434C54.0772 133.434 54.6872 133.434 55.3072 133.434C57.4172 133.444 58.9172 134.944 58.9372 137.044C58.9572 140.294 58.9372 143.554 58.9872 146.804C59.0072 147.744 58.6672 148.104 57.7572 147.964C56.9972 147.854 55.8772 148.414 55.9172 146.854C55.9672 144.394 55.9472 141.934 55.9172 139.464C55.8972 137.614 55.1072 136.834 53.2372 136.884C52.3772 136.904 51.4472 136.584 50.6772 137.174C49.9572 137.724 49.4772 138.404 49.4872 139.404C49.5272 141.774 49.4772 144.154 49.4972 146.524C49.5072 147.514 49.4072 148.194 48.0972 148.174C46.8972 148.154 46.4672 147.794 46.4972 146.574C46.5672 143.804 46.5172 141.034 46.5172 138.264L46.5072 138.274Z" fill="#FD0100"/>
<path d="M118.075 148.114C116.755 148.114 115.495 148.134 114.245 148.104C113.765 148.094 113.505 147.664 113.215 147.344C111.915 145.914 110.605 144.494 109.295 143.064C109.035 142.784 108.845 142.324 108.355 142.524C107.945 142.704 108.105 143.134 108.105 143.464C108.085 144.734 108.065 146.014 108.105 147.284C108.125 147.924 107.885 148.104 107.275 148.134C105.225 148.234 105.225 148.254 105.225 146.144C105.225 141.004 105.225 135.854 105.225 130.714C105.225 129.184 106.425 128.394 107.805 129.014C108.315 129.244 108.095 129.694 108.095 130.044C108.115 132.724 108.095 135.404 108.115 138.094C108.115 138.554 107.965 139.144 108.525 139.384C109.125 139.634 109.365 139.044 109.665 138.704C110.765 137.504 111.895 136.324 112.905 135.064C113.645 134.144 114.485 133.734 115.645 133.894C116.495 134.014 117.845 133.504 118.105 134.144C118.395 134.874 117.225 135.584 116.675 136.294C115.575 137.714 114.485 139.154 113.325 140.534C112.805 141.154 112.925 141.574 113.395 142.124C114.625 143.554 115.825 145.014 117.015 146.474C117.395 146.934 117.875 147.344 118.095 148.114H118.075Z" fill="#010101"/>
<path d="M33.0064 141.024C33.0064 139.964 32.9964 138.914 33.0064 137.854C33.0464 135.324 34.4064 133.944 36.9164 133.924C38.8964 133.914 40.8864 133.964 42.8664 133.894C43.9264 133.854 44.2864 134.234 44.1964 135.254C44.1164 136.194 44.4264 137.264 42.8064 137.154C41.3164 137.044 39.8064 137.114 38.3164 137.134C36.6364 137.144 36.0264 137.764 35.9964 139.464C35.9764 140.514 35.9864 141.574 36.0064 142.634C36.0464 144.334 36.7164 144.984 38.4564 144.994C40.0464 145.004 41.6264 145.024 43.2164 144.994C44.8064 144.954 44.1464 146.134 44.2564 146.874C44.3764 147.664 44.2364 148.214 43.1864 148.184C40.8564 148.114 38.5164 148.184 36.1764 148.144C34.7164 148.124 33.1064 146.604 33.0364 145.124C32.9664 143.764 33.0264 142.404 33.0264 141.034C33.0264 141.034 33.0164 141.034 33.0064 141.034V141.024Z" fill="#FD0100"/>
<path d="M73.4551 148.123C72.5751 148.123 71.6951 148.123 70.8151 148.123C68.0551 148.123 66.7351 146.803 66.7251 144.043C66.7251 141.893 66.7151 139.743 66.7251 137.593C66.7251 135.703 68.2551 134.023 70.1351 133.963C72.4651 133.893 74.7951 133.963 77.1251 133.933C78.1451 133.913 78.1751 134.543 78.0751 135.233C77.9751 135.953 78.5351 137.073 77.1051 137.093C75.3851 137.113 73.6751 137.093 71.9551 137.093C70.4751 137.103 69.9851 137.583 69.9551 139.063C69.9351 140.383 69.9451 141.693 69.9551 143.013C69.9651 144.443 70.4651 144.963 71.9551 144.993C73.5851 145.033 75.2151 145.103 76.8351 144.983C78.2851 144.873 78.1951 145.693 78.2351 146.673C78.2751 147.693 78.0751 148.243 76.8851 148.133C75.7551 148.033 74.5951 148.113 73.4551 148.113V148.123Z" fill="#FD0100"/>
<path d="M138.207 138.593C138.207 141.353 138.127 144.123 138.237 146.883C138.287 148.163 137.687 148.203 136.747 148.153C135.927 148.113 135.197 148.363 135.217 146.963C135.317 141.393 135.277 135.823 135.227 130.253C135.227 129.223 135.567 128.923 136.527 129.043C137.277 129.143 138.217 128.703 138.167 130.163C138.067 132.963 138.137 135.773 138.137 138.583C138.157 138.583 138.187 138.583 138.207 138.583V138.593Z" fill="#010101"/>
<path d="M140.445 138.585C140.445 135.775 140.485 132.965 140.425 130.155C140.405 129.135 140.925 129.065 141.645 129.155C142.285 129.235 143.175 128.755 143.165 130.105C143.115 135.725 143.095 141.355 143.185 146.975C143.205 148.535 142.235 148.015 141.465 148.145C140.495 148.305 140.395 147.805 140.405 147.015C140.435 144.205 140.415 141.395 140.415 138.575C140.425 138.575 140.435 138.575 140.445 138.575V138.585Z" fill="#010101"/>
<path d="M98.9069 140.965C98.9069 142.895 98.8569 144.825 98.9269 146.755C98.9669 147.795 98.5269 148.065 97.5969 147.975C96.8169 147.905 95.8969 148.265 95.9169 146.845C95.9769 142.895 95.9769 138.945 95.8969 134.995C95.8769 133.705 96.6469 133.875 97.4369 133.855C98.2769 133.835 98.9969 133.795 98.9369 135.045C98.8369 137.015 98.9069 138.995 98.9069 140.965C98.9069 140.965 98.9069 140.965 98.8969 140.965H98.9069Z" fill="#FD0100"/>
<path d="M64.7274 141.305C64.7274 143.195 64.6574 145.085 64.7474 146.965C64.8074 148.195 64.1174 148.175 63.2574 148.155C62.4574 148.135 61.6974 148.295 61.7174 147.025C61.7774 143.075 61.7774 139.125 61.7174 135.175C61.6974 134.065 62.1974 133.855 63.1474 133.865C64.1274 133.865 64.7574 134.085 64.7374 135.245C64.6974 137.265 64.7274 139.285 64.7274 141.305Z" fill="#FD0100"/>
<path d="M63.2474 128.923C64.1774 128.763 64.4974 129.143 64.4774 130.063C64.4574 130.993 64.2874 131.463 63.1774 131.463C62.0874 131.463 62.0274 130.973 61.9974 130.123C61.9574 129.143 62.2774 128.733 63.2474 128.923Z" fill="#FD0100"/>
<path d="M98.617 130.013C98.747 130.963 98.637 131.493 97.447 131.503C96.097 131.503 96.187 130.813 96.127 129.883C96.037 128.663 96.737 128.713 97.577 128.663C98.717 128.603 98.777 129.233 98.617 130.013Z" fill="#FD0100"/>
<path d="M95.3691 112.383H57.2191C49.7091 112.383 43.6191 106.293 43.6191 98.7835V57.4135C43.6191 49.9035 49.7091 43.8135 57.2191 43.8135H95.3691V59.5835H61.6391C60.3991 59.5835 59.3891 60.5935 59.3891 61.8335V94.3635C59.3891 95.6035 60.3991 96.6135 61.6391 96.6135H95.3691V112.383Z" fill="#FD0100"/>
<path d="M124.29 43.8135H148.38L118.37 76.7135L148.38 111.173H125.52L94.9004 76.7135L124.29 43.8135Z" fill="#010101"/>
</g>
<defs>
<clipPath id="clip0_4885_44025">
<rect width="192" height="192" fill="white"/>
</clipPath>
</defs>
</svg>
