<svg width="192" height="192" viewBox="0 0 192 192" fill="none" xmlns="http://www.w3.org/2000/svg">
<g clip-path="url(#clip0_4885_43109)">
<path d="M96 192C149.019 192 192 149.019 192 96C192 42.9807 149.019 0 96 0C42.9807 0 0 42.9807 0 96C0 149.019 42.9807 192 96 192Z" fill="#9D2C0B"/>
<path d="M106.01 80.2652C96.7581 76.8595 87.4882 73.5086 77.2895 75.6211C77.2895 75.4937 77.2713 75.3844 77.2531 75.2569C79.9485 74.6559 82.6438 74.0185 85.3392 73.4721C92.023 72.1062 98.3971 73.2354 104.571 75.8943C105.9 76.4589 107.266 76.9324 108.578 77.5334C109.179 77.7884 109.543 77.6973 109.98 77.242C113.003 74.146 116.008 71.0317 119.122 68.0086C121.927 65.295 125.078 63.0914 128.92 62.0351C132.217 61.1245 135.531 61.1973 138.846 62.0351C136.023 61.8347 133.382 62.3993 130.978 63.9109C128.574 65.4407 126.698 67.4986 125.26 69.8844C123.092 73.4904 121.144 77.242 119.013 81.1029C125.715 83.1427 132.198 84.1443 138.882 82.9605C138.882 83.0698 138.9 83.1791 138.919 83.3066C136.351 83.6526 133.765 84.2718 131.197 84.3082C127.172 84.3629 123.129 84.0532 119.086 83.8165C118.23 83.7619 117.829 83.944 117.392 84.6907C116.281 86.6211 115.152 88.5698 113.823 90.3546C110.982 94.1062 107.084 96.0003 102.404 96.3463C97.1587 96.7287 92.1505 95.545 87.1786 94.1062C82.7531 92.8132 78.3276 91.4473 73.8293 90.4456C68.73 89.2983 63.6488 89.6443 59.0048 92.2668C56.8376 93.487 54.9436 95.2171 53.0859 96.6012C53.5594 95.8363 54.1604 94.7983 54.8161 93.8148C57.1108 90.3728 59.9154 87.3678 62.8839 84.5085C66.6174 80.9208 71.1704 79.9191 76.1058 80.684C80.3856 81.3397 84.6107 82.2685 88.8723 83.0698C93.7349 83.9804 98.561 84.2536 103.205 82.0681C104.17 81.6128 105.099 81.0665 106.064 80.5748C106.046 80.4655 106.01 80.3562 105.991 80.247L106.01 80.2652Z" fill="white"/>
<path d="M118.632 64.6064C114.916 64.6064 111.948 61.6379 111.93 57.9591C111.93 54.2074 114.935 51.166 118.632 51.166C122.329 51.166 125.334 54.2256 125.334 57.9773C125.334 61.6561 122.329 64.6246 118.632 64.6246V64.6064Z" fill="white"/>
<path d="M118.25 87.1172C117.94 90.195 117.357 93.2364 119.761 95.7496L119.506 95.9864C118.359 95.1122 117.23 94.2562 116.228 93.5096C114.225 94.8026 112.149 96.1503 110.054 97.4433C107.377 99.1006 104.427 99.7562 101.294 99.8655C95.6304 100.048 90.2761 98.6635 84.9218 97.1155C80.2414 95.7496 75.5427 94.4566 70.6437 94.0923C66.0179 93.7463 61.4649 93.9466 57.2215 96.1321C56.3292 96.5874 55.4914 97.1701 54.6719 97.6801C56.1835 95.3125 60.4632 92.8539 63.8689 92.3076C68.0394 91.6519 72.0824 92.2529 76.0891 93.3092C80.7331 94.5294 85.3225 95.9682 89.9665 97.1337C94.7381 98.3175 99.5642 98.536 104.463 97.589C110.327 96.4417 114.48 93.0543 117.521 88.0824C117.685 87.8092 117.849 87.5178 118.013 87.2447C118.013 87.2265 118.067 87.2264 118.25 87.1354V87.1172Z" fill="white"/>
<path d="M127.898 132.649C130.087 132.649 132.185 132.688 134.27 132.598C134.516 132.598 134.917 131.924 134.93 131.562C134.995 129.464 134.943 127.353 134.969 125.255C134.982 123.144 135.604 122.198 136.924 122.211C138.245 122.211 138.815 123.092 138.841 125.281C138.867 127.379 138.854 129.49 138.841 131.588C138.841 132.196 138.906 132.662 139.696 132.662C145.135 132.662 150.574 132.662 156.169 132.662C156.04 132.261 156.001 131.95 155.858 131.704C154.395 129.114 152.944 126.524 151.39 123.985C151.131 123.545 150.432 123.195 149.901 123.144C148.645 123.027 147.363 123.105 145.873 123.105C145.873 124.4 145.912 125.565 145.873 126.731C145.835 127.547 145.886 128.453 145.537 129.14C145.239 129.71 144.436 130.318 143.84 130.344C143.309 130.37 142.325 129.645 142.286 129.179C142.105 127.288 142.092 125.371 142.286 123.48C142.338 123.001 143.348 122.276 143.944 122.25C146.819 122.121 149.707 122.095 152.582 122.276C153.45 122.328 154.563 123.001 155.042 123.739C156.713 126.304 158.228 128.959 159.627 131.678C160.378 133.129 160.016 133.556 158.371 133.556C144.824 133.582 131.278 133.595 117.745 133.582C115.931 133.582 115.452 132.909 115.621 130.655H119.389C119.454 131.212 119.519 131.834 119.609 132.624C120.853 132.624 122.07 132.662 123.287 132.598C123.521 132.598 123.922 132.17 123.922 131.95C123.961 129.075 123.948 126.2 123.948 123.221H119.584C119.519 124.309 119.48 125.358 119.376 126.394C119.26 127.495 118.794 128.35 117.511 128.35C116.294 128.35 115.841 127.534 115.698 126.498C115.608 125.824 115.543 125.125 115.621 124.452C115.828 122.652 116.385 122.185 118.198 122.172C120.529 122.172 122.86 122.172 125.204 122.172C127.095 122.172 127.755 122.781 127.807 124.711C127.872 127.042 127.833 129.373 127.833 131.704C127.833 131.924 127.872 132.157 127.911 132.637L127.898 132.649Z" fill="white"/>
<path d="M95.588 132.544H99.007C99.007 131.055 99.007 129.643 99.007 128.245C99.007 127.014 98.9811 125.771 99.0458 124.541C99.1494 122.78 99.784 122.197 101.532 122.158C108.254 122.041 107.684 122.443 110.365 127.144C111.271 128.737 112.139 130.343 113.084 131.91C113.654 132.855 113.279 133.283 112.385 133.438C111.712 133.555 111.025 133.593 110.339 133.593C104.99 133.593 99.6286 133.593 94.28 133.593C92.4669 133.593 91.7805 133.114 91.7287 131.314C91.6251 126.924 91.6898 122.534 91.7157 118.143C91.7157 117.832 91.7416 117.418 91.9229 117.224C92.428 116.719 92.9849 116.097 93.6195 115.929C94.539 115.696 95.1865 116.382 95.3678 117.276C95.5232 118.027 95.588 118.817 95.588 119.594C95.6139 123.388 95.588 127.183 95.588 130.99C95.588 131.482 95.588 131.975 95.588 132.544ZM103.061 123.077V132.519H109.652C108.331 129.669 104.135 123.557 103.061 123.077Z" fill="white"/>
<path d="M79.1007 138.813H85.7444C85.7444 137.311 85.7444 135.899 85.7444 134.5C85.7444 131.483 85.7185 128.465 85.7444 125.448C85.7444 124.723 85.7444 123.894 86.0811 123.324C86.3919 122.793 87.156 122.275 87.7388 122.262C88.2568 122.236 88.9821 122.793 89.2799 123.298C89.6037 123.842 89.6296 124.606 89.6426 125.28C89.6814 129.113 89.6814 132.959 89.6555 136.793C89.6425 139.383 89.0986 139.901 86.5085 139.901C83.4003 139.901 80.2922 139.901 77.184 139.901C75.604 139.901 75.086 139.344 75.604 137.881C77.2358 133.283 78.9453 128.711 80.7066 124.153C81.1081 123.117 81.8721 122.288 83.1543 122.223C84.0608 122.171 84.5918 122.573 84.4882 123.505C84.3975 124.218 84.2292 124.943 83.9831 125.629C82.5715 129.489 81.134 133.335 79.7094 137.194C79.5281 137.699 79.3468 138.204 79.1266 138.839L79.1007 138.813Z" fill="white"/>
<path d="M58.0817 133.812C58.0169 135.185 58.0428 136.506 57.8874 137.814C57.6802 139.484 57.1233 139.899 55.4268 139.899C54.3001 139.899 53.1734 139.834 52.0467 139.808C52.0467 139.614 52.0208 139.407 52.0078 139.212C52.6035 139.057 53.2122 138.902 54.0152 138.694C54.0152 138.293 54.0152 137.814 54.0152 137.322C54.0152 133.294 54.0152 129.266 54.0281 125.252C54.0411 123.128 54.6756 122.195 55.9707 122.182C57.2787 122.169 57.9522 123.128 57.991 125.213C58.0299 127.635 57.991 130.043 57.991 132.556H65.075C65.075 130.574 65.0621 128.671 65.075 126.767C65.075 125.809 65.1009 124.837 65.2305 123.892C65.36 122.882 65.9298 122.208 67.0436 122.182C68.1703 122.156 68.766 122.856 68.8825 123.84C69.038 125.057 69.0121 126.301 69.025 127.531C69.038 128.722 69.0639 129.914 68.9991 131.092C68.9084 132.996 68.2609 133.605 66.3701 133.618C63.7152 133.631 61.0603 133.644 58.4184 133.67C58.3407 133.67 58.25 133.734 58.0558 133.825L58.0817 133.812Z" fill="white"/>
<path d="M45.9608 132.649C45.9608 130.176 45.9479 127.987 45.9608 125.799C45.9608 125.073 45.9997 124.335 46.1551 123.623C46.3494 122.742 46.9192 122.185 47.8905 122.172C48.8618 122.159 49.4316 122.677 49.6777 123.558C49.7813 123.947 49.859 124.361 49.859 124.775C49.8719 126.835 49.9108 128.894 49.859 130.94C49.7942 133.064 49.1985 133.608 47.1264 133.608C44.4327 133.608 41.7389 133.647 39.0452 133.595C38.0868 133.582 37.7631 133.893 37.8019 134.851C37.8537 135.9 37.8278 136.949 37.7112 137.998C37.5817 139.267 36.8695 139.98 35.5096 139.915C34.6419 139.876 33.7742 139.915 32.9065 139.85C32.5957 139.824 32.2979 139.617 32 139.487C32.2979 139.306 32.5957 139.099 32.9065 138.969C33.1526 138.879 33.4375 138.892 33.9037 138.84C33.9037 138.335 33.9037 137.843 33.9037 137.363C33.9037 133.388 33.9037 129.412 33.9167 125.436C33.9167 124.711 33.9297 123.908 34.2534 123.312C34.5254 122.807 35.2506 122.237 35.7686 122.263C36.3514 122.276 37.1026 122.794 37.4393 123.312C37.776 123.83 37.776 124.62 37.789 125.293C37.8278 127.353 37.8408 129.412 37.789 131.458C37.776 132.313 37.9962 132.688 38.9286 132.675C41.195 132.624 43.4743 132.662 45.9349 132.662L45.9608 132.649Z" fill="white"/>
<path d="M45.0273 118.027H48.796V119.944H45.0273V118.027Z" fill="white"/>
<path d="M43.8194 118.012V119.915H40.0508V118.012H43.8194Z" fill="white"/>
<path d="M82.7812 119.958V118.041H86.5499V119.958H82.7812Z" fill="white"/>
<path d="M64.6241 135.848V137.803H60.8555V135.848H64.6241Z" fill="white"/>
<path d="M138.748 137.713H135.031V135.848H138.748V137.713Z" fill="white"/>
<path d="M152.779 135.848V137.713H149.062V135.848H152.779Z" fill="white"/>
<path d="M133.794 135.861V137.687H130.051V135.861H133.794Z" fill="white"/>
<path d="M147.757 135.885V137.75H144.04C144.014 137.18 143.975 136.584 143.949 135.885H147.757Z" fill="white"/>
<path d="M150.242 139.033V140.833H146.59V139.033H150.242Z" fill="white"/>
</g>
<defs>
<clipPath id="clip0_4885_43109">
<rect width="192" height="192" fill="white"/>
</clipPath>
</defs>
</svg>
