<svg width="192" height="192" viewBox="0 0 192 192" fill="none" xmlns="http://www.w3.org/2000/svg">
<g clip-path="url(#clip0_4885_43340)">
<path d="M96 192C149.019 192 192 149.019 192 96C192 42.9807 149.019 0 96 0C42.9807 0 0 42.9807 0 96C0 149.019 42.9807 192 96 192Z" fill="white"/>
<path d="M166.297 86.4481C162.197 77.9181 155.137 73.5581 145.597 73.4781C138.207 73.4181 130.817 73.4581 123.427 73.4581C116.607 73.4581 109.787 73.4581 102.977 73.4581C102.357 73.4581 101.547 73.1981 101.557 74.3081C101.577 76.0181 101.557 77.7181 101.557 79.6381H103.477C117.447 79.6381 131.417 79.6381 145.387 79.6381C156.267 79.6381 163.847 88.6381 161.937 99.3281C160.717 106.158 153.957 112.188 147.267 112.308C142.457 112.388 137.637 112.308 132.827 112.358C131.767 112.358 131.427 112.028 131.437 110.958C131.487 105.478 131.457 99.9881 131.457 94.5081C131.457 91.7781 131.457 91.0981 132.947 90.9081H125.467C125.467 99.5881 125.447 108.258 125.367 116.938C125.367 118.338 125.877 118.588 127.107 118.568C133.297 118.518 139.497 118.528 145.697 118.548C149.137 118.568 152.417 117.908 155.527 116.428C167.057 110.918 171.617 97.4981 166.297 86.4281V86.4481Z" fill="#A30E02"/>
<path d="M156.645 93.2782C155.605 88.4782 151.155 85.0082 145.825 84.9582C139.535 84.9082 133.245 84.9782 126.945 84.9182C125.715 84.9182 125.445 85.3382 125.445 86.4882C125.445 87.9582 125.445 89.4382 125.445 90.9182H132.925C133.445 90.8382 134.155 90.8382 135.105 90.8182C136.535 90.7882 136.905 91.3282 136.895 92.6582C136.835 96.9882 136.895 101.338 136.855 105.668C136.835 106.678 137.085 107.128 138.205 107.098C140.965 107.018 143.745 107.178 146.495 107.018C147.835 106.948 149.255 106.628 150.495 106.078C155.485 103.798 157.835 98.7782 156.635 93.2682L156.645 93.2782ZM147.435 100.828C147.085 100.948 146.705 101.038 146.325 101.098C143.115 101.628 142.805 101.358 142.825 98.1282C142.825 97.4082 142.825 96.6982 142.825 95.9882C142.825 94.6482 142.775 93.3182 142.865 91.9882C142.895 91.5982 143.385 90.8982 143.625 90.9182C145.125 91.0182 146.715 91.0082 148.085 91.5382C150.085 92.3082 150.975 94.1182 150.935 96.2382C150.895 98.3782 149.475 100.148 147.445 100.828H147.435Z" fill="#F2421E"/>
<path d="M40.9653 108.198C44.3453 106.218 47.5253 104.348 50.7053 102.488C50.6753 102.348 50.6453 102.198 50.6053 102.058C50.1253 102.018 49.6553 101.948 49.1753 101.928C47.1153 101.868 45.3653 101.088 43.9653 99.598C43.6753 99.288 43.5153 98.518 43.6853 98.148C45.3253 94.658 45.2553 91.128 44.0553 87.568C43.6753 86.448 43.8153 85.748 44.8353 85.058C47.8953 82.968 51.2153 82.968 54.3953 84.258C57.7053 85.608 58.7753 88.728 59.0453 92.058C59.2653 94.808 59.1953 94.818 61.9753 94.818C62.4953 94.818 63.0553 94.948 63.5453 94.798C64.3153 94.568 65.3953 94.348 65.6753 93.788C65.9953 93.148 65.8453 91.968 65.4253 91.328C63.4453 88.238 61.3053 85.258 59.2353 82.228C58.9953 81.878 58.7753 81.518 58.3753 80.918C61.1253 80.918 63.6653 80.898 66.1953 80.948C66.4853 80.948 66.8253 81.338 67.0353 81.618C68.4153 83.558 69.8353 85.478 71.1053 87.488C73.4753 91.228 72.8953 96.398 69.8453 99.518C68.3453 101.058 66.5353 101.898 64.3653 101.898C62.9353 101.898 61.5053 101.928 60.0753 101.898C59.2953 101.888 58.8653 102.168 58.6953 102.988C58.2653 105.088 56.9053 106.558 55.1653 107.648C52.7053 109.188 50.1853 110.648 47.6753 112.108C47.4053 112.268 46.8853 112.348 46.6653 112.198C44.7853 110.928 42.9453 109.588 40.9453 108.158L40.9653 108.198ZM50.6953 94.838C52.8053 94.838 52.8253 94.818 52.8253 93.178C52.8253 91.258 52.1053 90.568 50.1253 90.588C48.5253 90.608 47.7553 91.338 47.7953 92.778C47.8353 94.288 48.6153 94.838 50.6953 94.828V94.838Z" fill="#F2421E"/>
<path d="M82.9757 83.2581C85.6057 83.2581 87.9457 83.0681 90.2357 83.2981C94.1857 83.6981 97.3957 87.3281 97.6457 91.3581C97.7057 92.3081 97.6457 93.2581 97.6457 94.1781C99.4257 94.7681 100.386 94.1481 100.426 92.3481C100.476 89.8281 100.446 87.2981 100.456 84.7781C100.456 84.3081 100.456 83.8481 100.456 83.2781H107.016C107.066 83.5081 107.156 83.7281 107.156 83.9381C107.156 86.9381 107.236 89.9381 107.126 92.9381C106.956 97.5981 104.006 101.068 99.6857 101.758C98.7257 101.908 97.7257 101.778 96.5657 101.778V97.5581C95.9457 98.2681 95.6257 98.6481 95.2957 99.0181C93.8357 100.648 92.0357 101.718 89.8457 101.808C87.0557 101.918 84.2557 101.838 81.5957 101.838C82.7557 100.868 84.1357 99.9981 85.1257 98.8081C86.0957 97.6281 86.6757 96.1181 87.5557 94.5081C87.8657 94.5081 88.4757 94.5281 89.0857 94.5081C90.3557 94.4481 90.9857 93.7481 90.9957 92.4881C90.9957 91.2181 90.3457 90.4281 89.0857 90.5281C87.8657 90.6181 87.2857 90.0281 86.7257 89.1181C85.5557 87.2181 84.3257 85.3681 82.9657 83.2681L82.9757 83.2581Z" fill="#A30E02"/>
<path d="M58.3164 79.5781C59.4864 77.5381 60.3864 75.8081 61.4564 74.1881C61.7064 73.8081 62.5064 73.6381 63.0664 73.6281C67.1664 73.5781 71.2564 73.5981 75.3564 73.5981C82.6964 73.5981 90.0264 73.6381 97.3664 73.5781C98.7464 73.5681 99.2564 73.9681 99.1064 75.3481C98.9664 76.6581 99.4964 78.5581 98.8064 79.1681C98.0064 79.8781 96.2164 79.5581 94.8564 79.5581C83.3764 79.5781 71.8964 79.5681 60.4164 79.5681H58.3264L58.3164 79.5781Z" fill="#F2421E"/>
<path d="M33.2961 83.4881C36.0461 83.4881 38.5461 83.4681 41.0561 83.5181C41.3261 83.5181 41.7661 83.8981 41.8261 84.1681C42.4561 86.9381 43.3461 89.6981 43.5161 92.5081C43.7461 96.2481 42.0761 99.3281 38.9061 101.488C36.2761 103.288 33.6561 105.108 30.9961 106.868C30.6561 107.088 29.9661 107.168 29.6661 106.968C27.6461 105.638 25.6761 104.218 23.4961 102.688C24.0561 102.278 24.4861 101.938 24.9361 101.638C27.5461 99.8981 30.1761 98.1681 32.7861 96.4181C35.7761 94.4081 36.2361 93.0881 35.1961 89.6881C34.5861 87.6981 33.9761 85.7181 33.2961 83.4881Z" fill="#F2421E"/>
<path d="M108.236 83.2481C110.776 83.2481 113.006 83.1181 115.226 83.2781C118.176 83.4881 120.296 85.1781 121.636 87.7281C124.936 94.0281 121.046 102.128 113.626 101.908C110.266 101.808 106.906 101.888 103.156 101.888C106.316 100.368 108.176 98.2081 109.116 95.2281C109.216 94.8981 109.856 94.5581 110.266 94.5281C111.546 94.4381 112.836 94.5381 114.126 94.4981C115.496 94.4481 116.136 93.7481 116.106 92.4281C116.086 91.1381 114.446 90.5681 113.196 90.6681C112.046 90.7581 111.486 90.2081 110.956 89.3081C109.826 87.3881 109.216 85.4881 108.236 83.2381V83.2481Z" fill="#A30E02"/>
<path d="M70.1458 83.228C73.3958 83.398 76.2758 83.208 79.0158 83.768C83.1058 84.608 85.5858 89.308 84.9958 94.028C84.4758 98.158 80.9658 102.168 76.0158 101.818C73.9458 101.668 71.8558 101.798 69.4258 101.798C70.3258 101.038 71.0358 100.578 71.5758 99.958C72.3158 99.108 73.1458 98.218 73.5358 97.188C74.1758 95.478 74.8158 94.238 77.0358 94.528C78.1458 94.668 78.5658 93.518 78.5458 92.488C78.5258 91.448 78.0558 90.428 76.9058 90.558C74.9358 90.778 74.1558 89.578 73.3258 88.178C72.4158 86.638 71.3958 85.168 70.1458 83.228Z" fill="#F2421E"/>
<path d="M100.677 105.888C101.907 103.528 103.177 102.758 104.937 103.218C106.427 103.608 107.437 105.058 107.427 106.808C107.427 108.428 106.377 109.928 104.997 110.308C103.227 110.788 101.897 110.008 100.657 107.648C99.6969 109.738 98.2669 110.958 95.9269 110.188C94.5569 109.738 93.7069 108.088 93.8569 106.448C94.0069 104.788 94.9869 103.538 96.4169 103.198C98.1369 102.788 99.1569 103.418 100.687 105.898L100.677 105.888Z" fill="#A30E02"/>
<path d="M82.9161 106.708C82.4961 105.378 82.7961 104.748 83.9861 104.378C85.8861 103.798 87.7261 103.038 89.6761 102.318C90.1061 103.528 89.9461 104.278 88.5961 104.688C86.7061 105.268 84.8561 106.008 82.9161 106.698V106.708Z" fill="#A30E02"/>
</g>
<defs>
<clipPath id="clip0_4885_43340">
<rect width="192" height="192" fill="white"/>
</clipPath>
</defs>
</svg>
