<svg width="192" height="192" viewBox="0 0 192 192" fill="none" xmlns="http://www.w3.org/2000/svg">
<g clip-path="url(#clip0_4884_42778)">
<path d="M96 192C149.019 192 192 149.019 192 96C192 42.9807 149.019 0 96 0C42.9807 0 0 42.9807 0 96C0 149.019 42.9807 192 96 192Z" fill="#1246A9"/>
<path d="M65.2005 132.588C63.5405 131.208 63.1972 129.541 64.1705 127.588C64.5405 126.838 64.8605 126.058 65.2805 125.348C65.4405 125.088 65.8905 124.788 66.1205 124.848C67.1305 125.098 68.7205 127.478 68.7305 128.918C68.6505 130.258 67.7305 131.548 66.6705 132.718C66.4805 132.938 65.9005 132.828 65.5005 132.828C65.4005 132.828 65.3005 132.668 65.2005 132.588Z" fill="white"/>
<path d="M127.031 79.1375C126.141 78.1375 125.261 77.1475 124.381 76.1575C125.211 74.3775 126.031 72.5975 126.911 70.8475C127.001 70.6675 127.551 70.5775 127.831 70.6475C128.951 70.9275 130.851 73.4575 130.861 74.7475C130.621 76.4875 129.671 78.0275 128.281 79.3075C128.111 79.4675 127.681 79.3775 127.361 79.3575C127.251 79.3575 127.131 79.2275 127.041 79.1375H127.031Z" fill="white"/>
<path d="M135.93 79.1676C135.04 78.1776 134.15 77.1776 133.27 76.1976C134.08 74.4176 134.86 72.6076 135.78 70.8776C135.89 70.6876 137.02 70.7176 137.33 71.0176C138.31 71.9376 139.11 73.0276 139.96 74.0176C140.41 73.1976 140.92 72.2276 141.47 71.2776C141.97 70.3876 142.63 70.3676 143.45 70.9376C146.43 73.0476 146.36 77.3276 143.24 79.3276C142.99 79.4876 142.38 79.3976 142.12 79.1976C141.14 78.3976 140.23 77.5176 139.28 76.6576C138.66 77.4876 138.08 78.3776 137.36 79.1176C137.13 79.3576 136.5 79.2176 136.05 79.2476C136.01 79.2476 135.97 79.1976 135.94 79.1676H135.93Z" fill="white"/>
<path d="M120.959 107.928C120.039 105.448 119.729 102.818 120.189 100.248C120.899 96.1377 121.889 92.0677 122.829 88.0077C122.979 87.3477 123.429 86.7577 123.749 86.1277C123.909 86.1777 124.059 86.2277 124.229 86.2877C124.069 87.2977 123.839 88.2877 123.739 89.3077C123.439 92.7077 122.839 96.1477 123.009 99.5377C123.199 103.278 125.519 104.808 129.259 104.428C131.669 104.178 134.129 102.858 135.669 100.868C134.689 100.968 133.889 101.098 133.109 101.118C131.749 101.148 130.379 101.138 129.019 101.068C128.189 101.018 127.799 100.408 128.039 99.6777C128.319 98.7777 128.639 97.7877 129.259 97.1077C132.179 93.8077 135.919 91.8177 140.169 90.7377C140.849 90.5677 141.499 90.5377 142.009 91.3077C142.599 92.1777 143.339 91.7777 143.899 91.1777C144.669 90.3477 145.369 89.4677 146.109 88.6077C146.209 88.6677 146.319 88.7377 146.429 88.7977C145.939 91.2077 144.939 93.3577 142.949 94.9177C142.029 95.6377 141.019 95.7277 140.089 94.7977C139.889 94.5877 139.589 94.4277 139.299 94.3577C137.339 93.8677 132.139 96.0777 130.879 98.0377C133.259 98.0877 135.509 98.1377 137.719 97.3877C138.209 97.2277 138.769 97.3277 139.299 97.3077C139.249 97.8377 139.389 98.5177 139.119 98.8877C136.729 102.208 134.399 105.568 131.779 108.708C130.289 110.498 128.139 111.438 125.649 111.308C123.219 111.188 121.869 110.298 120.979 107.928H120.959Z" fill="white"/>
<path d="M147.001 110.308C146.971 109.788 146.931 109.598 146.951 109.408C147.731 104.098 148.511 98.7876 149.301 93.4876C149.761 90.4776 151.191 87.8776 152.711 85.3276C152.841 85.3576 152.971 85.3776 153.091 85.4076C152.801 87.2076 152.491 89.0276 152.201 90.8376C151.571 94.9676 151.011 99.0976 150.311 103.218C149.881 105.748 148.791 108.028 146.981 110.308H147.001Z" fill="white"/>
<path d="M150.571 79.2275C149.651 78.2475 148.731 77.2675 147.811 76.2775C148.641 74.4575 149.461 72.6175 150.341 70.8175C150.431 70.6375 150.981 70.5475 151.271 70.6175C152.391 70.8975 154.291 73.4175 154.331 74.7575C153.971 76.4875 153.071 78.1175 151.611 79.4175C151.471 79.5475 151.131 79.4875 150.891 79.4675C150.781 79.4475 150.661 79.3375 150.571 79.2375V79.2275Z" fill="white"/>
<path d="M165.99 86.9076V67.5876C161.19 53.1476 150.19 46.6876 135.62 45.1176C126.68 44.1576 118.27 46.4876 110.11 49.8476C98.44 54.6476 88.27 61.5476 80.22 71.3576C72.52 80.7576 68.7 91.5676 68.72 103.718C68.72 104.158 68.72 104.598 68.72 105.038C68.72 105.128 68.67 105.208 68.61 105.448C65.47 105.448 62.38 105.608 59.3 105.418C54.46 105.128 49.62 104.698 44.8 104.168C42.37 103.898 40.08 103.038 38.09 101.518C37.96 101.418 37.8 101.348 37.63 101.278C37.56 101.248 37.47 101.298 37.25 101.328C37.12 103.408 37.02 105.488 37.75 107.528C38.34 109.158 39.68 110.128 41.25 110.508C44.02 111.178 46.85 111.898 49.68 112.048C55.8 112.348 61.95 112.308 68.08 112.398C68.6 112.398 69.13 112.398 69.72 112.398C71.27 117.888 74.15 122.508 78.32 126.318C83 130.588 88.51 133.418 94.47 135.388C97.06 136.248 99.72 136.908 102.67 137.748C100.89 138.228 99.38 138.688 97.84 139.028C85.45 141.778 72.93 142.388 60.3 141.318C48.98 140.348 37.98 137.918 27.27 134.148C26.33 133.818 26 133.418 26 132.388L26.05 141.888C29.17 142.698 32.21 143.588 35.29 144.268C46.84 146.798 58.54 147.488 70.32 146.908C80.77 146.388 91.04 144.818 101.01 141.528C102.1 141.168 103.25 140.918 104.24 140.368C107.08 138.818 109.99 138.758 113.14 139.118C122.3 140.158 131.5 139.878 140.67 139.228C148.69 138.668 156.68 137.778 164.67 137.038C165.06 136.998 165.45 136.988 165.99 136.978V130.448L165.9 130.428C150.48 133.528 134.96 136.048 119.02 135.048C119.56 134.828 120.11 134.598 120.66 134.378C132.74 129.538 143.56 122.798 152.27 112.998C158.9 105.528 163.69 97.0576 165.91 87.1976V87.3876L166 86.9176L165.99 86.9076ZM161.11 96.9976C156.35 108.418 147.88 116.518 137.76 123.148C129.76 128.398 120.92 131.838 111.85 134.708C110.43 135.158 108.7 134.788 107.14 134.608C99.32 133.678 91.82 131.588 84.92 127.688C79.26 124.488 74.62 120.268 72.03 114.138C71.77 113.538 71.56 112.908 71.28 112.148C74.58 111.768 77.7 111.478 80.79 111.038C89.27 109.838 97.46 107.558 105.21 103.868C110.44 101.388 114.29 97.6676 115.96 91.9876C116.06 91.6576 116.12 91.3176 115.98 90.8076C115.65 91.1376 115.23 91.4076 114.99 91.8076C112.88 95.2976 109.65 97.3276 105.99 98.8676C98.71 101.938 91.1 103.548 83.3 104.408C79.31 104.848 75.29 105.028 71.28 105.328C70.94 105.348 70.6 105.328 69.91 105.328C70.18 102.378 70.24 99.5276 70.71 96.7276C72.71 84.7376 79.09 75.2376 88.04 67.3576C99.39 57.3776 112.56 51.1376 127.55 48.9476C134.4 47.9476 141.21 48.1276 147.84 50.3976C158.16 53.9176 163.8 61.3976 165.41 71.9176C166.76 80.6876 164.46 88.9576 161.1 96.9976H161.11Z" fill="white"/>
</g>
<defs>
<clipPath id="clip0_4884_42778">
<rect width="192" height="192" fill="white"/>
</clipPath>
</defs>
</svg>
