<svg width="192" height="192" viewBox="0 0 192 192" fill="none" xmlns="http://www.w3.org/2000/svg">
<g clip-path="url(#clip0_4885_42978)">
<path d="M96 192C149.019 192 192 149.019 192 96C192 42.9807 149.019 0 96 0C42.9807 0 0 42.9807 0 96C0 149.019 42.9807 192 96 192Z" fill="#E5D9CD"/>
<path d="M80.6755 95.4847C79.66 95.9412 78.5512 95.8294 77.3213 95.9226C78.0574 96.4909 78.6444 96.9754 79.3339 97.2922C80.6103 97.8885 81.8775 99.0346 83.1633 99.7613C84.6354 100.591 86.1728 101.317 87.7753 101.867C90.878 102.929 94.4745 103.544 97.5585 102.156C97.8008 102.044 98.3132 101.504 98.5648 101.876C98.8536 102.305 97.8939 102.584 98.1175 103.022C98.2107 103.199 98.4623 103.209 98.6673 103.19C105.944 102.529 113.007 99.7799 118.448 94.8325C124.858 88.9998 130.355 80.5583 129.526 71.5392C128.939 65.1196 125.771 60.2746 120.46 56.7619C119.585 56.1843 118.578 55.7929 117.6 55.3923C115.569 54.5537 114.05 53.2307 113.286 51.125C113.184 50.8361 113.137 50.3609 112.587 50.6684C111.218 51.4231 109.904 53.8177 110.202 55.3457C110.342 56.0724 110.034 56.1656 109.531 56.3147C107.863 56.8178 106.335 57.5725 105.096 58.8211C102.813 61.1224 101.425 63.8151 101.453 67.1507C101.462 68.2688 101.63 69.3496 101.789 70.4397C102.226 72.1914 103.177 73.5983 104.696 74.6232C104.053 73.4679 103.876 72.21 103.633 70.9615C103.661 69.6571 103.727 68.3527 104.267 67.1507C106.047 63.1722 109.326 61.2063 113.454 60.5075C115.932 60.0882 118.178 60.9174 120.246 62.2405C121.839 63.2654 122.93 64.663 123.554 66.5172C125.026 70.8683 123.079 75.9463 119.482 78.6576C115.327 81.7975 109.708 82.3286 104.779 80.9683C101.146 79.962 97.2417 77.1389 95.723 73.6263C95.4621 73.0299 93.1794 68.7347 94.1484 63.4424C95.4435 56.3054 99.8972 51.7958 106.745 49.5783C106.857 49.5876 106.988 49.6342 107.09 49.6062C109.028 49.0006 111.022 48.9447 112.969 49.2988C115.494 49.746 117.852 50.7057 120.013 52.1219C121.718 53.24 123.302 54.5165 124.83 55.8768C122.538 51.4883 119.026 48.3018 114.796 45.842C114.684 45.7489 114.581 45.6464 114.451 45.5718C109.736 42.8139 104.686 41.0343 99.2449 40.5125C96.2634 40.2237 93.2819 40.3169 90.3935 41.3231C88.0362 41.9381 85.8653 42.9071 84.1136 44.6587C81.0948 47.3514 80.0047 51.8238 81.4209 55.6159C80.2004 54.4885 79.5202 52.8766 79.2314 51.2461C78.9425 49.6156 79.0077 47.9384 79.0823 46.2893C79.073 46.5688 77.5356 47.5657 77.284 47.7894C76.6039 48.395 75.9424 49.0192 75.2995 49.6715C74.0696 50.9293 72.9235 52.2617 71.8707 53.6686C68.8332 57.7402 65.479 63.2281 66.7555 68.5576C67.5661 71.9678 70.4917 74.5021 73.6317 76.0674C73.2403 75.8717 72.1968 76.0674 71.7123 76.0022C71.0135 75.8997 70.3333 75.7133 69.6718 75.4525C68.2649 74.8841 67.1095 73.8499 65.8983 72.9554C65.8331 72.9088 65.7492 72.8529 65.6654 72.8529C65.4604 72.8529 65.4231 73.1418 65.4417 73.3467C66.3921 81.9653 70.3333 96.2766 81.7843 94.0498C82.0359 94.0032 82.3061 93.7517 82.3247 94.2548C81.7843 94.6647 81.2346 95.0747 80.6942 95.4847M96.3566 75.5363C96.2448 75.5549 96.133 75.5549 96.0305 75.5549C96.1423 75.5549 96.2541 75.5549 96.3566 75.5363ZM98.8163 101.578C98.7977 101.597 98.7791 101.615 98.7511 101.643C98.7791 101.662 98.7977 101.681 98.8257 101.699C98.7977 101.681 98.7698 101.662 98.7511 101.643C98.7698 101.625 98.7977 101.606 98.8163 101.578ZM98.8443 101.709C98.8443 101.709 98.8536 101.69 98.8629 101.681C98.8629 101.69 98.8629 101.699 98.8443 101.709Z" fill="#A9723B"/>
<path d="M133.476 73.7381C133.261 73.6636 133.038 73.617 132.842 73.5052C132.088 73.0673 132.097 72.0144 132.125 71.1386C132.237 68.213 131.594 65.2501 130.271 62.6412C129.87 61.8586 129.33 61.0386 128.472 60.8337C130.038 66.1539 130.69 71.8095 130.056 77.316C129.963 78.0986 128.761 82.4964 128.202 83.9592C125.966 89.8291 121.904 94.9816 116.872 98.7551C110.471 103.554 102.179 106.041 94.1847 105.315C92.1256 105.128 90.0851 104.783 88.0819 104.252C80.4883 102.258 72.7828 97.0128 68.6273 90.2391C66.6334 86.9874 65.2544 83.3443 64.4066 79.6267C63.1953 74.3158 63.3351 68.6229 64.565 63.3307C64.6581 63.0791 64.7513 62.8369 64.8352 62.576C67.4067 54.0507 73.4444 46.4943 81.3361 42.3202C88.2496 38.6678 96.4861 37.587 104.108 39.3386C113.276 41.4537 121.27 47.5285 126.702 55.206C126.404 52.8394 125.277 50.5753 123.571 48.9075C122.481 47.836 121.009 46.485 121.643 45.0967C121.783 44.7893 122.015 44.5191 122.034 44.1836C122.062 43.6991 121.633 43.3358 121.242 43.0469C120.376 42.404 119.5 41.7611 118.633 41.1182C118.298 40.8667 117.897 40.6058 117.487 40.7176C117.115 40.8201 116.891 41.1928 116.574 41.4257C115.875 41.9382 114.888 41.6307 114.086 41.3046C112.698 40.7455 111.105 39.9163 110.965 38.4348C110.928 38.0249 111.012 37.587 110.863 37.205C110.62 36.5807 109.884 36.3291 109.241 36.1521C108.384 35.9192 107.527 35.6769 106.67 35.444C106.456 35.3881 106.223 35.3229 106.008 35.3788C105.682 35.4626 105.477 35.7608 105.263 36.0123C103.549 38.0715 99.7285 37.6522 98.5079 35.267C98.2936 34.857 98.1259 34.3818 97.7253 34.1489C97.4178 33.9719 97.0358 33.9905 96.6724 34.0184C95.7314 34.0837 94.7903 34.1396 93.8493 34.2048C93.5697 34.2234 93.2716 34.2514 93.0293 34.4005C92.6473 34.6427 92.5355 35.1365 92.3771 35.5558C91.4827 37.8944 87.998 38.7051 86.1718 36.9907C85.855 36.6925 85.5569 36.3198 85.1283 36.236C84.8022 36.1707 84.4667 36.2919 84.15 36.413C83.2928 36.7391 82.4262 37.0652 81.5691 37.4006C80.8237 37.6801 79.9478 38.174 80.0038 38.9659C80.0317 39.3852 80.3485 39.7579 80.3112 40.1865C80.2833 40.5871 79.9572 40.8853 79.659 41.1462C78.2335 42.3854 76.2955 43.6991 74.6183 42.8326C74.2363 42.637 73.8543 42.3295 73.435 42.404C73.1835 42.4506 72.9878 42.6276 72.7921 42.7954C71.8884 43.6153 70.9846 44.4259 70.0715 45.2458C69.8665 45.4322 69.6522 45.6278 69.587 45.8887C69.382 46.6248 70.3696 47.1931 70.4256 47.9571C70.4535 48.3112 70.2765 48.6466 70.1088 48.9541C69.1677 50.6778 67.6863 52.6717 65.7669 52.2804C65.4874 52.2245 65.1985 52.1127 64.9283 52.1965C64.6209 52.2897 64.4345 52.5972 64.2761 52.886C63.7264 53.9016 63.1767 54.9079 62.627 55.9234C62.4313 56.2775 62.2356 56.6968 62.3661 57.0788C62.5617 57.6285 63.2978 57.7496 63.6891 58.1876C64.8631 59.4733 62.2356 61.7654 63.3724 63.0791C63.5307 62.9207 63.1767 62.7064 63.009 62.8462C62.8413 62.986 62.8133 63.2375 62.7015 63.4239C62.4034 63.8991 61.7046 63.7873 61.1548 63.8804C59.515 64.1599 59.1237 66.3122 59.133 67.98C59.133 68.5018 59.1609 69.0888 59.5336 69.4522C59.7666 69.6851 60.102 69.7876 60.4001 69.9367C61.3505 70.4398 61.8536 71.5393 61.9375 72.6107C62.012 73.6543 61.8816 75.4059 61.1548 76.1793C60.5772 76.8035 59.4404 76.757 59.3752 77.8284C59.2914 79.0956 59.9808 80.5118 60.3815 81.6858C60.8567 83.0834 61.807 82.3194 62.8599 82.748C64.0059 83.2138 64.6116 85.9718 65.0401 86.9967C65.1333 87.2296 65.2358 87.4719 65.2079 87.7234C65.0961 88.6458 63.6146 88.767 63.6239 89.6801C63.6332 90.8075 65.2265 92.4939 65.8042 93.4163C65.9532 93.6586 66.1116 93.9008 66.3353 94.0778C66.9129 94.5251 67.7142 94.0965 68.3012 93.8822C68.8602 93.6772 69.2329 93.7051 69.6429 94.2642C70.0342 94.8046 70.3696 95.4568 71.0591 95.7363C71.0498 96.0345 71.3573 96.0624 71.4877 96.2488C71.8511 96.7519 72.4567 97.1432 72.5033 97.8234C72.5592 98.6526 71.3759 99.3794 71.7952 100.181C71.8884 100.358 72.0468 100.479 72.1958 100.6C73.2394 101.411 74.2829 102.221 75.3171 103.022C75.8855 103.46 76.3886 103.47 76.8545 102.92C77.0781 102.659 77.4229 102.435 77.6931 102.184C78.0005 101.886 78.1962 101.793 78.6434 102.091C79.5752 102.724 80.5814 103.265 81.5877 103.749C82.9201 104.392 82.9387 104.364 82.8642 105.799C82.8642 105.976 82.8176 106.153 82.7989 106.321C82.8921 106.507 82.8642 106.703 82.7989 106.889C83.0039 107.048 83.1251 107.28 83.3953 107.364C84.2431 107.607 85.091 107.84 85.9109 108.156C86.5725 108.408 87.3365 108.771 87.9141 108.725C89.1813 108.604 88.5664 106.47 90.1596 106.61C90.9702 106.684 91.7808 106.759 92.5914 106.824C93.5884 106.917 94.6785 107.01 95.0326 108.11C95.2096 108.659 95.3307 109.321 95.8432 109.591C96.1134 109.74 96.4395 109.731 96.747 109.731C97.7439 109.712 98.7409 109.684 99.7378 109.666C100.129 109.666 100.567 109.638 100.865 109.386C101.135 109.163 101.238 108.809 101.378 108.492C102.3 106.349 105.272 105.408 107.266 106.628C107.676 106.88 108.04 107.197 108.477 107.392C109.754 107.961 111.235 107.308 112.419 106.554C112.931 106.228 113.453 105.846 113.686 105.277C113.919 104.709 113.677 103.926 113.09 103.786C114.263 102.659 115.605 101.709 117.049 100.963C117.543 100.712 118.121 100.479 118.624 100.693C119.136 100.907 119.472 101.541 120.031 101.55C120.32 101.55 120.581 101.373 120.814 101.206C121.764 100.497 122.64 99.6962 123.441 98.8203C123.888 98.3358 124.326 97.6743 124.075 97.078C123.916 96.7053 123.525 96.4724 123.385 96.0904C123.189 95.5872 123.488 95.0375 123.767 94.581C124.652 93.1647 125.901 91.5528 127.559 91.7392C127.923 91.7765 128.277 91.9069 128.631 91.8324C129.181 91.7206 129.516 91.1708 129.777 90.677C130.215 89.8664 130.662 89.0558 131.1 88.2452C131.333 87.8166 131.566 87.3228 131.389 86.8662C131.258 86.5494 130.951 86.3445 130.709 86.0929C129.628 84.9655 130.159 83.1207 130.746 81.6765C130.904 81.2852 131.072 80.8845 131.407 80.6143C131.789 80.3068 132.32 80.2603 132.777 80.0646C134.147 79.4683 134.519 77.7353 134.613 76.2538C134.668 75.35 134.585 74.2506 133.783 73.8313C133.69 73.7847 133.597 73.7475 133.504 73.7195L133.476 73.7381ZM75.0283 99.1092C75.2147 99.1465 75.4103 99.1837 75.5967 99.221C75.401 99.1837 75.2147 99.1465 75.0283 99.1092ZM113.593 101.289C113.593 101.289 113.677 101.373 113.723 101.401C113.677 101.373 113.63 101.336 113.593 101.289ZM125.36 91.4969C125.5 91.5342 125.64 91.5901 125.77 91.6646C125.64 91.5901 125.5 91.5435 125.36 91.4969Z" fill="#A9723B"/>
<path d="M93.0749 143.906C93.2333 143.841 93.2985 143.729 93.2613 143.571C93.2333 143.422 93.0936 143.375 92.9631 143.366C92.7581 143.347 92.5532 143.366 92.3482 143.412C91.0903 143.711 89.8325 143.981 88.584 144.288C84.8012 145.22 81.037 146.226 77.3194 147.419C76.5274 147.67 75.7447 147.95 74.9621 148.22C74.3937 148.36 73.8533 148.565 73.3222 148.807C71.3376 149.394 69.3903 150.298 67.4523 151.025C65.7286 151.891 63.8279 152.301 62.039 152.972C60.7904 153.438 59.5419 153.913 58.3027 154.407C57.2592 154.826 55.9175 155.227 55.1721 156.121C54.9671 156.363 54.6224 156.475 54.5478 156.829C54.3149 157.006 54.1286 157.239 54.1752 157.528C54.2124 157.789 54.4826 157.947 54.6969 157.966C55.5355 158.041 56.3834 158.031 57.1194 157.519C57.5108 157.249 58.2375 157.118 58.6847 156.922C59.3369 156.643 59.9892 156.354 60.6414 156.065C62.8962 155.059 65.1416 154.043 67.4057 153.065C72.9682 150.661 78.7542 148.63 84.531 146.795C85.2484 146.562 85.9658 146.319 86.6833 146.096C88.5001 145.518 90.3077 144.903 92.1059 144.279C92.432 144.167 92.7488 144.027 93.0749 143.906Z" fill="#792B16"/>
<path d="M124.668 127.862C124.668 128.514 125.059 128.84 125.674 128.626C126.792 128.225 127.547 127.433 127.836 126.278C128.041 125.458 127.295 124.824 126.466 125.02C125.674 125.206 124.574 126.567 124.668 127.666C124.668 127.731 124.668 127.797 124.668 127.862Z" fill="#792B16"/>
<path d="M137.371 134.049C137.25 134.049 137.111 134.049 136.989 134.058C135.219 134.161 133.523 134.869 132.033 135.829C130.542 136.788 129.228 137.999 127.924 139.201C127.924 137.785 127.858 136.369 127.747 134.953C127.709 134.394 127.598 133.751 127.104 133.49C126.74 133.294 126.293 133.397 125.902 133.546C125.278 133.788 124.7 134.133 124.197 134.571C124.085 134.664 123.983 134.766 123.927 134.897C123.871 135.037 123.88 135.186 123.889 135.335C124.271 141.969 122.11 150.447 121.69 152.879C121.681 152.944 121.672 153.019 121.69 153.084C121.728 153.187 121.849 153.243 121.951 153.28C123.116 153.643 124.411 153 125.175 152.059C125.939 151.118 126.321 149.907 126.694 148.752C127.775 145.388 129.06 142.025 131.241 139.239C132.592 137.515 134.353 136.006 136.477 135.493C136.822 135.409 137.185 135.344 137.474 135.139C137.679 134.99 137.893 134.664 137.819 134.394C137.753 134.151 137.567 134.086 137.353 134.077L137.371 134.049Z" fill="#792B16"/>
<path d="M58.8416 134.012C60.0249 133.937 61.7859 133.164 62.2517 133.015C68.6807 131.319 74.9139 129.027 81.3056 127.22C82.2187 126.959 83.1411 126.763 84.0542 126.493C85.5264 126.055 87.2128 125.328 88.0979 124.005C88.247 123.781 88.2191 123.632 87.9116 123.66C87.4085 123.716 86.9053 123.735 86.4115 123.837C80.4298 125.095 74.4295 126.633 68.5036 128.207C67.0222 128.599 65.5687 129.064 64.0872 129.446C62.6058 129.828 61.2082 130.08 59.792 130.518C59.6429 130.564 59.4845 130.611 59.3634 130.714C59.0466 130.965 58.8975 131.394 58.6459 131.701C58.3291 132.074 57.854 132.465 57.7515 132.968C57.5744 133.816 58.0962 134.058 58.8416 134.012ZM71.6156 127.741C71.4945 127.723 71.3641 127.704 71.2988 127.574C71.3641 127.704 71.4945 127.732 71.6156 127.741Z" fill="#792B16"/>
<path d="M83.1342 133.854C78.2519 135.009 73.4256 136.575 68.8135 138.578C66.8475 139.435 64.9002 140.376 62.8038 140.861C61.956 141.056 61.0894 141.177 60.2882 141.522C59.4869 141.867 58.7601 142.491 58.5365 143.33C58.4433 143.684 58.5085 144.159 58.8533 144.28C59.0024 144.336 59.1608 144.308 59.3192 144.28C60.6049 144.01 61.8069 143.47 62.9995 142.929C68.9346 140.264 74.9163 137.926 81.2055 136.23C83.4603 135.615 85.771 135.028 87.7183 133.668C88.2121 133.323 89.0693 132.643 87.9047 132.857C87.1127 133.006 86.3207 133.155 85.5381 133.323C84.7368 133.491 83.9262 133.668 83.1249 133.863L83.1342 133.854Z" fill="#792B16"/>
<path d="M121.41 134.701C120.581 134.906 119.845 135.297 119.454 136.117C119.267 136.509 118.438 138.474 118.214 138.959C117.404 140.72 116.677 142.537 115.876 144.298C115.149 145.9 114.487 147.54 113.891 149.189C113.518 150.214 113.36 151.267 113.696 152.348C113.891 153 114.515 153.494 115.065 153.466C115.773 153.429 116.463 152.972 116.891 152.413C117.199 152.003 117.05 151.332 117.012 150.848C116.863 149.087 117.068 147.568 117.702 145.928C118.531 143.748 119.463 141.605 120.395 139.462C120.656 138.866 121.802 136.248 122.109 135.53C122.286 135.111 121.876 134.58 121.42 134.692L121.41 134.701Z" fill="#792B16"/>
<path d="M117.234 135.465C117.094 134.953 116.405 134.412 115.874 134.412C112.622 134.412 109.519 136.816 106.976 138.605C106.324 139.071 105.662 139.528 105.056 140.059C104.693 140.45 104.507 140.115 104.311 139.863C103.966 139.341 103.51 138.922 103.072 138.484C102.14 137.552 100.78 137.413 99.699 138.158C99.4288 138.344 99.0747 138.475 98.9629 138.847C98.3293 139.602 98.3386 140.31 98.9909 140.888C99.1306 141.195 99.3915 141.41 99.5965 141.661C100.062 142.23 100.472 142.835 100.994 143.357C101.087 143.45 101.078 143.609 101.218 143.674C101.218 143.72 101.246 143.748 101.302 143.748C101.078 144.009 100.789 144.186 100.538 144.41C99.5033 145.323 98.348 146.078 97.3137 147C96.2702 147.932 95.208 148.845 94.1552 149.767C93.1303 150.671 90.4003 153.177 90.2978 153.261C89.8413 153.671 89.3381 154.081 89.0027 154.584C88.8443 154.827 88.7511 155.097 88.7045 155.386C88.6393 155.758 89.0213 156.597 89.4965 156.466C90.4282 156.196 91.2016 155.684 91.9936 155.125C92.4035 154.836 92.7948 154.519 93.1675 154.193C93.2887 154.091 94.1645 153.289 94.2018 153.261C96.4565 151.379 98.73 149.525 101.003 147.662C101.544 147.224 102.084 146.786 102.625 146.339C102.746 146.236 102.764 146.217 102.876 146.404C103.277 147.084 103.603 147.811 103.976 148.509C104.833 150.084 105.653 151.687 106.491 153.271C106.696 153.653 107.069 153.867 107.516 153.802C108.457 153.681 109.277 153.289 109.929 152.59C110.386 152.097 110.544 151.556 110.265 150.895C109.752 149.637 109.119 148.426 108.504 147.214C108.001 146.245 107.479 145.276 106.976 144.307C106.873 144.102 106.799 143.879 106.659 143.692C105.802 142.556 107.47 141.298 108.252 140.683C108.783 140.264 109.333 139.872 109.892 139.5C111.849 138.214 113.973 137.226 116.228 136.518C116.489 136.434 116.787 136.397 116.955 136.127C117.197 135.968 117.309 135.754 117.234 135.465Z" fill="#792B16"/>
<path d="M118.062 139.313C118.062 139.313 118.1 139.266 118.128 139.248C118.081 139.248 118.053 139.266 118.062 139.313Z" fill="#792B16"/>
</g>
<defs>
<clipPath id="clip0_4885_42978">
<rect width="192" height="192" fill="white"/>
</clipPath>
</defs>
</svg>
