<svg width="192" height="192" viewBox="0 0 192 192" fill="none" xmlns="http://www.w3.org/2000/svg">
<g clip-path="url(#clip0_5165_46255)">
<path d="M96 192C149.019 192 192 149.019 192 96C192 42.9807 149.019 0 96 0C42.9807 0 0 42.9807 0 96C0 149.019 42.9807 192 96 192Z" fill="white"/>
<path d="M21.6066 99.3422C20.6655 106.04 21.5586 107.466 28.3864 108.484C36.4001 109.675 43.8185 107.322 50.9776 103.956C52.3412 103.318 52.4181 101.757 53.244 100.735C53.6233 100.567 53.8105 100.807 53.993 101.071C55.0541 102.108 55.8848 100.523 56.8739 100.811C57.09 100.831 57.2916 100.898 57.4837 100.999C57.9446 101.373 57.8198 101.925 57.9303 102.41C58.0167 102.775 58.2328 103.131 58.0167 103.515C55.7696 104.197 53.8777 105.57 51.9091 106.761C45.3406 110.736 38.3688 113.569 30.6287 113.968C25.5391 114.232 20.5743 113.247 18.7017 108.11C17.2612 111.884 14.6444 113.584 11 113.675C11 113.516 11 113.353 11 113.195C15.403 110.299 18.6585 106.54 20.0221 101.33C20.3246 100.182 20.7903 99.0733 21.1841 97.9497C22.2548 98.1322 21.6882 98.814 21.6066 99.3422Z" fill="#D2AD6D"/>
<path d="M148.872 110.347C146.658 110.448 143.686 110.179 140.877 109.291C138.578 108.566 137.382 108.95 136.59 111.332C135.965 113.204 134.832 114.943 133.013 115.989C132.446 116.316 131.678 116.902 131.106 116.066C130.679 115.447 131.121 114.813 131.606 114.376C134.338 111.918 136.033 108.753 137.675 105.551C138.592 103.765 139.869 103.428 141.838 103.913C154.144 106.967 165.399 104.686 175.516 96.9896C176.025 96.6054 176.534 96.2117 176.971 95.7508C177.552 95.1314 178.584 94.6512 178.368 93.6669C178.123 92.5529 177.043 93.1675 176.327 93.0283C176.097 92.9851 175.847 92.9131 175.669 92.7786C174.992 92.2744 174.906 91.5302 175.184 90.8388C175.775 89.3743 176.212 87.7418 177.796 86.9832C178.67 86.5654 179.304 87.2232 179.852 87.8234C181.354 89.48 181.383 92.1688 179.933 94.7665C177.893 98.43 174.743 100.994 171.367 103.313C164.818 107.812 157.668 110.453 148.872 110.347Z" fill="#D2AD6D"/>
<path d="M79.2345 89.6911C78.7207 93.0618 78.207 96.4277 77.626 100.235C85.5533 93.5804 93.7592 88.0538 100.923 81.1636C100.433 83.67 98.844 85.4513 97.077 87.0455C91.8673 91.751 86.3216 96.058 80.6077 100.485C82.8837 101.46 84.9675 102.372 87.0706 103.236C87.9925 103.616 88.6359 103.635 88.3622 102.242C87.8869 99.7888 89.9323 98.1946 90.6094 96.1252C90.787 95.5874 91.2527 95.6978 91.5792 95.9427C92.9573 96.951 94.5706 97.4216 96.1359 98.0122C97.2739 98.4443 97.6388 99.4574 97.2883 100.581C96.9042 101.81 96.376 103.246 94.7963 103.039C92.1218 102.689 90.182 103.884 88.3286 105.507C87.5988 106.146 86.8449 106.746 85.7934 106.007C84.5402 105.128 84.1897 105.954 83.868 107.025C83.431 108.475 82.9893 109.949 82.005 111.144C80.9534 112.417 79.7146 113.473 77.8997 113.012C76.0511 112.542 75.5181 110.991 75.326 109.349C74.9947 106.549 75.35 103.755 75.8542 101.013C76.5696 97.1479 76.6369 93.0906 79.2345 89.6911Z" fill="#D2AE6D"/>
<path d="M141.092 95.0063C140.732 97.287 138.6 97.5847 137.049 98.2713C135.508 98.958 134.951 99.8751 134.673 101.416C133.727 106.616 131.864 111.38 127.672 114.923C125.785 116.517 123.672 117.516 121.161 117.554C117.752 117.607 115.635 116.114 114.953 112.815C114.05 108.451 115.687 104.633 118.098 101.047C117.661 102.54 117.171 104.019 116.801 105.531C115.683 110.136 117.565 112.455 122.256 112.321C128.901 112.129 133.05 107.567 133.328 100.125C133.357 99.3277 133.309 98.5306 133.323 97.7336C133.343 96.6244 133.607 95.885 135.033 96.2211C137.342 96.7637 138.884 95.0639 140.66 94.0892C141.496 94.0748 141.347 94.5165 141.092 95.0063Z" fill="#D2AE6D"/>
<path d="M58.0153 103.515C57.8617 103.289 57.7032 103.068 57.5496 102.843C58.5003 101.344 60.6513 101.412 61.5973 99.7071C59.7967 99.1357 59.2013 101.44 57.6648 101.244C57.4151 101.205 57.1654 101.172 56.9158 101.133C56.7669 100.485 57.5255 100.005 57.2423 99.3086C56.4452 98.7996 55.7586 99.7695 54.9759 99.5007C54.6494 99.3326 54.419 99.1213 54.6062 98.7132C55.4849 97.0039 56.4644 95.453 58.8028 96.298C59.6814 96.6149 59.8831 95.8659 60.2912 95.4386C61.4388 94.219 62.4903 92.8841 63.9932 92.0727C64.6846 91.6982 65.6017 91.1316 66.2019 91.3188C68.862 92.1591 70.2976 89.96 72.3143 89.2302C75.0368 88.2411 75.853 85.7346 77.524 83.9149C78.0425 83.3531 78.1145 81.8838 79.2189 82.4936C80.2512 83.065 80.8418 84.3278 80.6209 85.6002C80.4433 86.6421 79.7855 87.7465 78.5803 87.4536C77.0678 87.0887 76.2996 87.8521 75.5601 88.8076C73.5963 91.3428 70.677 92.6008 68.1754 94.4158C67.7288 94.7423 67.1959 94.8816 66.5861 94.7039C64.5598 94.0989 62.8264 94.7135 61.1219 96.2308C62.4087 96.6437 64.3725 96.3509 64.1805 98.2907C63.974 100.375 62.7304 102.002 60.8002 102.895C59.9455 103.275 58.9468 103.318 58.0153 103.515Z" fill="#D3AE6E"/>
<path d="M101.777 93.6046C101.441 97.0905 101.072 100.567 100.788 104.058C100.663 105.599 100.779 107.126 102.421 107.976C103.967 108.777 105.086 107.832 106.396 107.207C108.759 106.079 111.28 105.263 112.792 102.483C112.61 105.503 110.636 108.408 108.279 108.825C106.68 109.109 105.662 109.882 104.788 111.044C103.847 112.292 102.685 113.075 101.096 112.633C99.343 112.143 98.8244 110.621 98.8484 109.066C98.9349 103.496 99.1894 97.9308 101.307 92.6539C102.171 92.6203 101.936 93.1293 101.777 93.6046Z" fill="#D3AE6E"/>
<path d="M138.759 84.5006C141.308 85.9075 141.683 87.007 140.195 88.8604C139.858 89.2782 139.369 89.5711 138.951 89.9216C136.973 87.2615 135.417 91.4245 133.549 90.2577C132.771 89.7727 131.609 89.2686 132.531 88.1258C133.348 87.1175 133.232 84.5391 135.734 85.9027C137.285 86.6037 137.506 84.443 138.759 84.5006Z" fill="#D3AF6F"/>
<path d="M110.354 91.6265C113.009 92.4331 113.571 94.1905 111.91 96.1063C110.498 97.734 109.725 95.7318 108.688 95.7366C107.564 95.7414 107.661 98.2958 105.85 97.4843C105.149 97.1722 104.184 96.7641 104.203 95.9238C104.237 94.6226 105.145 93.5711 105.966 92.6444C106.604 91.9242 107.315 92.6876 107.776 93.1534C108.818 94.2193 109.202 93.5471 109.557 92.6012C109.548 92.0538 109.936 91.8233 110.354 91.6265Z" fill="#D3AE6F"/>
<path d="M67.1062 79.6129C67.8408 78.4846 68.6234 78.4365 69.6222 79.3632C70.8706 80.5156 70.5056 81.6055 69.651 82.7099C69.0076 83.5358 68.3257 84.5009 67.2022 83.2957C66.3187 82.345 65.7713 82.7099 65.2383 83.651C64.4989 84.957 63.6538 84.7314 62.5159 83.9871C61.2051 83.1324 61.5748 82.3066 62.2758 81.4615C62.9384 80.6597 62.9864 78.9263 64.7726 79.6225C65.5505 79.8674 66.3283 79.949 67.1062 79.6129Z" fill="#D3AE6E"/>
<path d="M72.7332 100.02C72.9684 108.446 69.689 113.253 63.7207 113.483C65.3916 111.178 67.9845 110.045 69.4681 107.755C70.9086 105.522 71.1343 102.833 72.7332 100.02Z" fill="#D3B071"/>
<path d="M179.043 81.3029C178.731 82.4889 178.323 83.8861 176.815 83.8477C175.946 83.8237 174.549 83.2043 174.731 81.9991C174.933 80.6883 175.25 78.9021 176.94 78.7725C178.222 78.6764 178.937 79.8768 179.043 81.3029Z" fill="#D3AF70"/>
<path d="M65.2324 79.1521C63.7295 77.8269 63.7871 75.887 65.3332 74.6915C65.7942 74.3361 66.1975 74.389 66.62 74.6867C67.3595 75.2148 68.0317 75.8678 67.7724 76.8329C67.5516 77.6492 67.057 78.3982 66.6825 79.1713C66.1879 79.9731 65.7029 79.9155 65.2324 79.1521Z" fill="#D4B071"/>
<path d="M108.822 92.519C107.329 91.8852 105.682 91.2899 106.988 89.182C107.416 88.4906 107.488 87.0309 108.851 87.6215C109.898 88.0728 110.647 88.9611 110.229 90.2959C110.133 90.5984 110.013 90.8865 109.908 91.1842C109.6 91.674 109.576 92.3942 108.822 92.519Z" fill="#D3AF70"/>
<path d="M136.243 85.4463C135.653 84.6013 133.761 84.414 134.769 82.7671C135.293 81.9172 135.432 80.2847 136.877 80.6976C138.38 81.125 138.807 82.4214 138.174 83.9291C137.789 84.7693 137.746 86.0321 136.243 85.4463Z" fill="#D4B071"/>
<path d="M136.242 85.4465C137.323 85.4945 137.529 84.4382 138.173 83.9292C138.37 84.1213 138.562 84.3085 138.758 84.5006C138.384 84.9999 137.966 85.4753 137.64 86.0035C136.924 87.1462 136.324 86.8341 135.738 85.9074C135.902 85.7538 136.07 85.6001 136.242 85.4465Z" fill="#F7F1E7"/>
<path d="M54.6019 98.7134C54.7844 98.9054 54.9668 99.1023 55.1493 99.2944C55.2837 100.384 54.8564 101.076 53.7376 101.268C53.5696 101.09 53.4063 100.912 53.2383 100.74C53.2767 99.7841 54.0353 99.3088 54.6019 98.7134Z" fill="#D8B880"/>
<path d="M65.2324 79.1519C65.7126 79.3823 66.1975 79.4832 66.6873 79.1759C66.8265 79.3199 66.9658 79.464 67.105 79.608C66.3368 81.4134 65.5541 80.4051 64.7715 79.6176C64.9251 79.464 65.0788 79.3103 65.2324 79.1519Z" fill="#F8F3E9"/>
<path d="M118.349 100.25C118.1 99.2371 118.623 98.9731 119.161 98.6802C119.19 99.2564 119.151 99.7941 118.349 100.25Z" fill="#E2CBA2"/>
<path d="M21.6081 99.3427C21.4832 98.8722 21.7041 98.3008 21.1855 97.9503C21.344 97.715 21.4688 97.3165 21.6657 97.2733C22.0882 97.1821 22.0594 97.6094 22.0594 97.8831C22.0546 98.4112 22.0498 98.949 21.6081 99.3427Z" fill="#E0C89C"/>
<path d="M141.093 95.0066C140.949 94.6993 140.81 94.392 140.666 94.0895C140.776 93.6573 140.834 93.1964 141.381 92.9707C141.77 93.7341 141.646 94.3968 141.093 95.0066Z" fill="#E0C69A"/>
<path d="M101.777 93.6045C101.619 93.2876 101.46 92.9707 101.307 92.6586C101.479 92.2601 101.652 91.8616 101.907 91.271C102.377 92.2793 102.272 92.9611 101.777 93.6045Z" fill="#E1CAA0"/>
<path d="M108.822 92.5194C109.182 92.0729 109.543 91.6311 109.907 91.1846C110.056 91.3334 110.205 91.4775 110.359 91.6263C110.095 91.9528 109.826 92.2793 109.562 92.6058C109.312 92.5722 109.067 92.5482 108.822 92.5194Z" fill="#F5EDDF"/>
<path d="M57.662 101.244C58.6656 100.389 59.3618 99.112 60.7686 98.8191C61.4216 98.6847 62.2955 98.4254 62.6412 99.2656C62.9197 99.9427 62.2955 100.432 61.7625 100.759C60.4277 101.585 59.1073 102.459 57.5516 102.843C56.8025 102.257 57.7197 101.782 57.662 101.244Z" fill="#FCFBF8"/>
<path d="M53.7443 101.268C54.2148 100.61 54.6854 99.9524 55.1559 99.2946C56.0202 98.6272 57.0045 97.5612 58.0032 98.7232C59.0212 99.9044 57.4463 100.389 56.9133 101.138C56.0682 101.527 55.228 101.916 54.3829 102.296C54.0612 102.44 53.6338 102.805 53.4178 102.334C53.3073 102.075 53.6194 101.628 53.7443 101.268Z" fill="#FAF6F0"/>
<path d="M79.8292 107.971C78.091 108.038 77.3852 106.962 77.3324 105.469C77.2747 103.899 78.3119 103.126 79.7716 103.251C81.0968 103.361 82.8253 103.16 83.0366 105.171C83.1902 106.612 81.5865 107.952 79.8292 107.971Z" fill="#FDFCFA"/>
<path d="M92.6294 100.101C92.2981 101.224 91.4434 101.503 90.5551 101.484C89.9549 101.469 89.1579 101.191 89.3547 100.336C89.5612 99.4381 90.1182 98.7227 91.2082 98.8379C92.0004 98.9195 92.5334 99.3277 92.6294 100.101Z" fill="#F8F4EC"/>
<path d="M94.7861 101.628C94.2291 101.532 93.5713 101.383 93.5473 100.591C93.5281 99.8657 94.1043 99.7024 94.6901 99.7697C95.3959 99.8513 96.2266 100.01 96.1642 100.908C96.1257 101.508 95.4631 101.676 94.7861 101.628Z" fill="#F9F4EC"/>
</g>
<defs>
<clipPath id="clip0_5165_46255">
<rect width="192" height="192" fill="white"/>
</clipPath>
</defs>
</svg>
