<svg width="192" height="192" viewBox="0 0 192 192" fill="none" xmlns="http://www.w3.org/2000/svg">
<g clip-path="url(#clip0_4885_43000)">
<path d="M96 192C149.019 192 192 149.019 192 96C192 42.9807 149.019 0 96 0C42.9807 0 0 42.9807 0 96C0 149.019 42.9807 192 96 192Z" fill="#FF5C69"/>
<path d="M161.004 60.1318C158.704 66.0418 156.354 71.9318 154.134 77.8918C153.414 79.7918 151.984 79.5218 150.524 79.5218H51.8535C54.5535 72.2018 59.5235 67.3318 65.9535 63.6918C68.8235 62.0618 72.0635 61.4418 75.0335 60.1318H161.014H161.004Z" fill="white"/>
<path d="M148.734 90.1719C147.074 94.2519 145.294 98.2819 143.864 102.442C143.124 104.522 142.014 104.962 139.954 104.962C113.984 104.892 88.0244 104.942 62.0544 104.862C59.6344 104.842 58.4444 105.502 57.5744 107.832C54.8244 115.052 51.7144 122.122 48.9644 129.342C48.1744 131.372 47.1144 131.942 45.0544 131.862C40.5244 131.712 35.9744 131.812 30.9844 131.812C36.0044 119.452 40.8244 107.502 45.6944 95.5619C46.8344 92.7919 47.3744 88.9619 49.5044 87.5719C51.6344 86.1619 55.4144 87.1219 58.4544 87.1219C87.8844 87.1019 117.284 87.1019 146.714 87.1019C149.954 87.1019 149.954 87.1219 148.714 90.1719H148.734Z" fill="white"/>
</g>
<defs>
<clipPath id="clip0_4885_43000">
<rect width="192" height="192" fill="white"/>
</clipPath>
</defs>
</svg>
