<svg width="192" height="192" viewBox="0 0 192 192" fill="none" xmlns="http://www.w3.org/2000/svg">
<g clip-path="url(#clip0_5216_39622)">
<path d="M96 192C149.019 192 192 149.019 192 96C192 42.9807 149.019 0 96 0C42.9807 0 0 42.9807 0 96C0 149.019 42.9807 192 96 192Z" fill="white"/>
<path d="M15.62 103.8C13.8 103.8 12.2 103.41 10.82 102.63C9.46 101.83 8.4 100.69 7.64 99.21C6.88 97.73 6.49 96 6.47 94.02L6.44 92.16C6.42 90.2 6.74 88.44 7.4 86.88C8.08 85.32 9.09 84.1 10.43 83.22C11.77 82.32 13.4 81.87 15.32 81.87C17.8 81.87 19.75 82.46 21.17 83.64C22.59 84.82 23.44 86.56 23.72 88.86H19.64C19.42 87.58 18.97 86.65 18.29 86.07C17.61 85.47 16.66 85.17 15.44 85.17C13.92 85.17 12.75 85.77 11.93 86.97C11.11 88.15 10.7 89.85 10.7 92.07V93.54C10.7 95.78 11.13 97.5 11.99 98.7C12.87 99.9 14.15 100.5 15.83 100.5C17.53 100.5 18.76 100.12 19.52 99.36V95.46H15.41V92.4H23.72V100.8C22.96 101.74 21.86 102.48 20.42 103.02C19 103.54 17.4 103.8 15.62 103.8ZM34.3292 103.8C32.7892 103.8 31.4292 103.48 30.2492 102.84C29.0692 102.18 28.1492 101.26 27.4892 100.08C26.8492 98.9 26.5292 97.53 26.5292 95.97V95.55C26.5292 93.99 26.8192 92.59 27.3992 91.35C27.9992 90.11 28.8492 89.14 29.9492 88.44C31.0692 87.72 32.3792 87.36 33.8792 87.36C36.0392 87.36 37.7292 88.05 38.9492 89.43C40.1892 90.81 40.8092 92.74 40.8092 95.22V96.84H30.6392V96.9C30.7592 98.02 31.1692 98.92 31.8692 99.6C32.5892 100.28 33.4992 100.62 34.5992 100.62C36.2192 100.62 37.5092 100.01 38.4692 98.79L40.4792 100.89C39.8392 101.81 38.9792 102.53 37.8992 103.05C36.8392 103.55 35.6492 103.8 34.3292 103.8ZM36.8192 94.08V93.78C36.7792 92.74 36.4992 91.94 35.9792 91.38C35.4792 90.82 34.7692 90.54 33.8492 90.54C32.9892 90.54 32.2792 90.85 31.7192 91.47C31.1592 92.07 30.8092 92.94 30.6692 94.08H36.8192ZM43.2418 87.66H47.1118L47.2018 89.61C48.0818 88.11 49.2818 87.36 50.8018 87.36C51.3218 87.36 51.7618 87.42 52.1218 87.54L52.0618 91.32C51.7818 91.24 51.2818 91.2 50.5618 91.2C48.9218 91.2 47.8418 91.8 47.3218 93V103.5H43.2418V87.66ZM59.4266 103.8C58.1866 103.8 57.0966 103.47 56.1566 102.81C55.2166 102.13 54.4866 101.16 53.9666 99.9C53.4666 98.64 53.2166 97.16 53.2166 95.46C53.2166 93.82 53.4666 92.39 53.9666 91.17C54.4866 89.95 55.2166 89.01 56.1566 88.35C57.0966 87.69 58.1966 87.36 59.4566 87.36C61.0366 87.36 62.3366 87.95 63.3566 89.13V81H67.4066V103.5H63.7466L63.5366 101.79C62.5166 103.13 61.1466 103.8 59.4266 103.8ZM57.2966 95.76C57.2966 97.32 57.5666 98.52 58.1066 99.36C58.6466 100.18 59.4266 100.59 60.4466 100.59C61.7866 100.59 62.7566 100.01 63.3566 98.85V92.31C62.7566 91.15 61.7966 90.57 60.4766 90.57C59.4966 90.57 58.7166 90.96 58.1366 91.74C57.5766 92.5 57.2966 93.6 57.2966 95.04V95.76ZM77.6209 103.8C76.1609 103.8 74.8709 103.48 73.7509 102.84C72.6309 102.2 71.7509 101.3 71.1109 100.14C70.4909 98.96 70.1609 97.58 70.1209 96V95.43C70.0809 93.95 70.3509 92.6 70.9309 91.38C71.5109 90.16 72.3609 89.19 73.4809 88.47C74.6209 87.73 75.9909 87.36 77.5909 87.36C79.0909 87.36 80.4009 87.7 81.5209 88.38C82.6609 89.04 83.5309 89.99 84.1309 91.23C84.7509 92.45 85.0609 93.89 85.0609 95.55V95.73C85.0609 97.35 84.7509 98.77 84.1309 99.99C83.5109 101.21 82.6409 102.15 81.5209 102.81C80.4009 103.47 79.1009 103.8 77.6209 103.8ZM74.1709 95.73C74.1709 97.31 74.4709 98.52 75.0709 99.36C75.6709 100.2 76.5209 100.62 77.6209 100.62C78.7009 100.62 79.5309 100.21 80.1109 99.39C80.7109 98.57 81.0209 97.39 81.0409 95.85V95.43C81.0409 93.89 80.7409 92.69 80.1409 91.83C79.5409 90.97 78.6909 90.54 77.5909 90.54C76.5509 90.54 75.7309 90.93 75.1309 91.71C74.5509 92.49 74.2309 93.62 74.1709 95.1V95.73ZM94.5838 103.8C93.1238 103.8 91.8338 103.48 90.7138 102.84C89.5938 102.2 88.7138 101.3 88.0737 100.14C87.4537 98.96 87.1238 97.58 87.0837 96V95.43C87.0438 93.95 87.3138 92.6 87.8938 91.38C88.4738 90.16 89.3238 89.19 90.4438 88.47C91.5838 87.73 92.9538 87.36 94.5538 87.36C96.0538 87.36 97.3638 87.7 98.4838 88.38C99.6238 89.04 100.494 89.99 101.094 91.23C101.714 92.45 102.024 93.89 102.024 95.55V95.73C102.024 97.35 101.714 98.77 101.094 99.99C100.474 101.21 99.6038 102.15 98.4838 102.81C97.3638 103.47 96.0638 103.8 94.5838 103.8ZM91.1338 95.73C91.1338 97.31 91.4338 98.52 92.0338 99.36C92.6338 100.2 93.4838 100.62 94.5838 100.62C95.6638 100.62 96.4938 100.21 97.0738 99.39C97.6738 98.57 97.9838 97.39 98.0038 95.85V95.43C98.0038 93.89 97.7038 92.69 97.1038 91.83C96.5038 90.97 95.6538 90.54 94.5538 90.54C93.5138 90.54 92.6938 90.93 92.0938 91.71C91.5138 92.49 91.1938 93.62 91.1338 95.1V95.73ZM111.337 103.8C109.077 103.8 107.297 103.08 105.997 101.64C104.697 100.18 104.047 98.19 104.047 95.67V95.34C104.047 93.8 104.327 92.43 104.887 91.23C105.447 90.03 106.267 89.09 107.347 88.41C108.447 87.71 109.767 87.36 111.307 87.36C113.267 87.36 114.837 87.92 116.017 89.04C117.217 90.14 117.837 91.62 117.877 93.48H114.067C114.047 92.58 113.777 91.87 113.257 91.35C112.737 90.81 112.067 90.54 111.247 90.54C109.167 90.54 108.117 92.14 108.097 95.34V95.82C108.077 97.46 108.327 98.67 108.847 99.45C109.387 100.23 110.197 100.62 111.277 100.62C112.077 100.62 112.737 100.39 113.257 99.93C113.777 99.45 114.047 98.84 114.067 98.1H117.877C117.857 99.14 117.567 100.1 117.007 100.98C116.447 101.84 115.667 102.53 114.667 103.05C113.687 103.55 112.577 103.8 111.337 103.8ZM120.261 81H124.341V89.43C125.461 88.05 126.891 87.36 128.631 87.36C130.351 87.36 131.641 87.86 132.501 88.86C133.381 89.86 133.831 91.35 133.851 93.33V103.5H129.801V93.36C129.781 92.4 129.561 91.7 129.141 91.26C128.741 90.8 128.091 90.57 127.191 90.57C126.551 90.57 125.981 90.71 125.481 90.99C125.001 91.27 124.621 91.66 124.341 92.16V103.5H120.261V81ZM143.949 103.8C142.489 103.8 141.199 103.48 140.079 102.84C138.959 102.2 138.079 101.3 137.439 100.14C136.819 98.96 136.489 97.58 136.449 96V95.43C136.409 93.95 136.679 92.6 137.259 91.38C137.839 90.16 138.689 89.19 139.809 88.47C140.949 87.73 142.319 87.36 143.919 87.36C145.419 87.36 146.729 87.7 147.849 88.38C148.989 89.04 149.859 89.99 150.459 91.23C151.079 92.45 151.389 93.89 151.389 95.55V95.73C151.389 97.35 151.079 98.77 150.459 99.99C149.839 101.21 148.969 102.15 147.849 102.81C146.729 103.47 145.429 103.8 143.949 103.8ZM140.499 95.73C140.499 97.31 140.799 98.52 141.399 99.36C141.999 100.2 142.849 100.62 143.949 100.62C145.029 100.62 145.859 100.21 146.439 99.39C147.039 98.57 147.349 97.39 147.369 95.85V95.43C147.369 93.89 147.069 92.69 146.469 91.83C145.869 90.97 145.019 90.54 143.919 90.54C142.879 90.54 142.059 90.93 141.459 91.71C140.879 92.49 140.559 93.62 140.499 95.1V95.73ZM160.912 103.8C159.452 103.8 158.162 103.48 157.042 102.84C155.922 102.2 155.042 101.3 154.402 100.14C153.782 98.96 153.452 97.58 153.412 96V95.43C153.372 93.95 153.642 92.6 154.222 91.38C154.802 90.16 155.652 89.19 156.772 88.47C157.912 87.73 159.282 87.36 160.882 87.36C162.382 87.36 163.692 87.7 164.812 88.38C165.952 89.04 166.822 89.99 167.422 91.23C168.042 92.45 168.352 93.89 168.352 95.55V95.73C168.352 97.35 168.042 98.77 167.422 99.99C166.802 101.21 165.932 102.15 164.812 102.81C163.692 103.47 162.392 103.8 160.912 103.8ZM157.462 95.73C157.462 97.31 157.762 98.52 158.362 99.36C158.962 100.2 159.812 100.62 160.912 100.62C161.992 100.62 162.822 100.21 163.402 99.39C164.002 98.57 164.312 97.39 164.332 95.85V95.43C164.332 93.89 164.032 92.69 163.432 91.83C162.832 90.97 161.982 90.54 160.882 90.54C159.842 90.54 159.022 90.93 158.422 91.71C157.842 92.49 157.522 93.62 157.462 95.1V95.73ZM179.105 103.8C177.325 103.8 175.925 103.13 174.905 101.79L174.695 103.5H171.035V81H175.115V89.1C176.095 87.94 177.405 87.36 179.045 87.36C180.985 87.36 182.505 88.08 183.605 89.52C184.705 90.94 185.255 92.93 185.255 95.49V95.73C185.255 98.25 184.705 100.23 183.605 101.67C182.505 103.09 181.005 103.8 179.105 103.8ZM175.115 98.85C175.675 100.01 176.655 100.59 178.055 100.59C179.155 100.59 179.945 100.17 180.425 99.33C180.925 98.47 181.175 97.16 181.175 95.4C181.175 92.18 180.125 90.57 178.025 90.57C177.405 90.57 176.835 90.73 176.315 91.05C175.795 91.35 175.395 91.77 175.115 92.31V98.85Z" fill="black"/>
</g>
<defs>
<clipPath id="clip0_5216_39622">
<rect width="192" height="192" fill="white"/>
</clipPath>
</defs>
</svg>
