<svg width="192" height="192" viewBox="0 0 192 192" fill="none" xmlns="http://www.w3.org/2000/svg">
<g clip-path="url(#clip0_4885_43975)">
<path d="M96 192C149.019 192 192 149.019 192 96C192 42.9807 149.019 0 96 0C42.9807 0 0 42.9807 0 96C0 149.019 42.9807 192 96 192Z" fill="white"/>
<path d="M125.241 96.1057C121.63 97.0224 118.048 97.9954 114.452 98.9544C113.113 99.307 111.759 99.6877 110.306 100.083C111.251 98.3762 112.238 96.8814 112.957 95.2737C115.51 89.6187 115.397 83.879 113.254 78.1253C112.859 77.0817 112.111 76.7573 111.011 77.0394C104.637 78.7316 98.2629 80.4239 91.8886 82.1162C90.295 82.5393 89.9283 83.1739 90.3514 84.711C90.9014 86.7277 91.4373 88.7584 92.0014 90.7751C92.354 92.0302 93.045 92.3968 94.2578 92.0725C96.218 91.5507 98.1782 91.0007 100.153 90.5071C100.547 90.4084 100.985 90.5212 101.408 90.5353C101.365 90.9725 101.408 91.452 101.238 91.8327C100.04 94.5827 97.6282 95.8942 94.9629 96.5852C90.2809 97.798 86.3323 96.3173 83.3708 92.5802C80.7759 89.2943 80.4375 85.5149 81.9323 81.6649C83.3708 77.9701 86.1066 75.6855 90.0835 74.9381C93.4257 74.3176 96.3167 75.3471 99.0385 77.1381C100.562 78.1394 101.055 78.097 102.268 76.7855C104.031 74.9099 105.751 73.0202 107.486 71.1305C108.261 70.2702 108.149 69.3113 107.204 68.4369C104.835 66.2793 102.099 64.7985 98.9962 63.9383C95.2026 62.8806 91.395 62.8947 87.5733 63.6562C80.0708 65.1511 74.6132 69.3818 71.1017 76.1368C70.5517 77.2086 70.1992 78.3791 69.7479 79.5073C69.6351 79.7893 69.5223 80.0573 69.2966 80.5791C67.8159 75.1638 66.4197 70.0023 65.0236 64.8549C64.6711 63.5575 64.3326 62.2601 63.98 60.9627C63.3454 58.5371 64.7275 56.3653 67.139 55.773C70.721 54.8846 74.2607 53.8833 77.8285 52.9385C81.2413 52.0218 84.64 51.1052 88.0528 50.1885C92.1565 49.0885 96.2603 48.0167 100.364 46.9168C103.749 46.0142 107.105 45.0553 110.49 44.1809C113.719 43.3489 115.552 44.463 116.427 47.7206C118.725 56.2666 121.038 64.8126 123.323 73.3587C124.239 76.7855 125.057 80.2265 125.96 83.6534C126.594 86.0931 127.243 88.5469 128.005 90.9443C128.653 93.0032 127.37 95.5557 125.198 96.1057H125.241Z" fill="#AA882C"/>
<path d="M83.3406 107.09C79.9419 108.867 76.6561 108.359 75.7817 104.636C75.5702 103.734 75.3022 102.845 75.0625 101.943C77.5586 104.072 80.224 105.892 83.3406 107.09Z" fill="#AA882C"/>
<path d="M149.16 133.069C147.928 132.225 146.507 131.892 145.054 131.703C142.678 131.404 140.548 132.025 138.705 133.535C136.585 135.266 136.152 137.708 135.942 140.227C135.864 141.182 135.919 141.204 136.907 141.215C139.504 141.248 142.09 141.293 144.687 141.315C145.12 141.315 145.753 141.381 145.941 141.148C146.53 140.394 146.951 139.506 147.517 138.518C147.018 138.485 146.741 138.44 146.452 138.44C144.099 138.44 141.757 138.44 139.404 138.44C138.583 138.44 138.494 138.285 138.805 137.519C139.449 135.954 141.824 134.045 144.465 134.4C146.396 134.667 148.072 135.344 148.727 137.308C149.105 138.451 149.138 139.705 149.249 140.926C149.304 141.503 148.894 141.892 148.339 142.036C147.984 142.125 147.606 142.18 147.24 142.18C142.789 142.18 138.35 142.18 133.899 142.203C133.2 142.203 132.956 142.036 132.967 141.304C133.012 139.262 132.967 137.208 132.989 135.166C132.989 134.578 132.801 134.389 132.235 134.645C131.835 134.822 131.413 135 130.992 135.122C130.459 135.277 130.259 135.566 130.281 136.132C130.315 137.852 130.259 139.583 130.315 141.315C130.337 142.036 130.093 142.314 129.393 142.203C129.271 142.18 129.138 142.18 129.027 142.203C128.261 142.325 128.073 141.992 128.095 141.248C128.139 139.25 128.117 137.253 128.106 135.255C128.106 134.489 127.995 134.411 127.296 134.667C126.852 134.833 126.43 135.022 125.986 135.155C125.531 135.299 125.387 135.566 125.398 136.032C125.42 137.83 125.398 139.628 125.42 141.437C125.42 142.014 125.254 142.269 124.665 142.203C124.466 142.18 124.266 142.18 124.077 142.203C123.422 142.28 123.223 142.003 123.234 141.359C123.267 139.317 123.245 137.264 123.234 135.222C123.234 135 123.167 134.767 123.123 134.467C122.468 134.711 121.924 134.933 121.358 135.111C120.836 135.277 120.637 135.566 120.648 136.132C120.692 137.908 120.681 139.683 120.648 141.459C120.648 141.703 120.404 142.147 120.259 142.158C119.083 142.214 117.906 142.192 116.663 142.192C116.697 141.881 116.719 141.67 116.741 141.448C116.83 140.516 117.018 139.583 116.974 138.662C116.896 137.009 116.175 135.61 114.566 134.977C113.511 134.567 112.335 134.267 111.214 134.245C107.063 134.156 102.912 134.201 98.7613 134.223C98.1841 134.223 97.9955 134.067 98.0066 133.468C98.0399 131.67 98.0288 129.872 98.0066 128.063C97.9955 126.343 98.284 126.476 96.4416 126.465C95.3207 126.465 95.3207 126.465 95.3207 127.619C95.3207 132.203 95.3207 136.798 95.3207 141.381C95.3207 141.97 95.1875 142.247 94.5438 142.192C93.9334 142.147 93.3118 142.169 92.6903 142.192C92.1243 142.214 92.0577 141.992 92.1354 141.47C92.2797 140.527 92.3907 139.561 92.3574 138.618C92.3019 137.042 91.6249 135.71 90.1376 135.055C89.161 134.633 88.0733 134.278 87.03 134.256C83.0234 134.167 79.0279 134.212 75.0213 134.223C74.8216 134.223 74.5108 134.356 74.422 134.511C74.0447 135.233 73.7339 135.976 73.3233 136.875C73.7117 136.909 73.9448 136.942 74.1889 136.942C75.0324 136.942 75.8648 136.942 76.7083 136.942C80.16 136.975 83.6228 136.997 87.0744 137.053C88.7281 137.075 89.6382 138.063 89.6715 139.805C89.7048 141.37 89.0056 142.058 87.2298 142.169C86.9634 142.192 86.686 142.169 86.4196 142.169C81.281 142.169 76.1423 142.169 71.0036 142.169C70.704 142.169 70.4043 142.169 70.1158 142.203C69.0281 142.347 68.7617 142.214 68.3178 141.226C68.118 140.804 67.8849 140.382 67.7518 139.939C67.3522 138.673 66.3866 138.329 65.2213 138.329C62.4022 138.307 59.5832 138.318 56.7752 138.318C56.5533 138.318 56.3202 138.374 56.0649 138.407C56.1093 138.573 56.1093 138.662 56.1426 138.707C58.1404 141.337 57.0305 141.159 60.4378 141.137C60.6375 141.137 60.9816 141.415 61.0038 141.592C61.1037 142.447 61.1481 143.313 61.137 144.167C61.137 145.122 60.9372 145.266 59.9827 145.266C55.4101 145.266 50.8375 145.266 46.2649 145.266C45.6988 145.266 45.1328 145.21 44.5779 145.11C43.7233 144.944 43.013 144.489 42.8909 143.568C42.7355 142.425 42.5579 141.259 42.6689 140.127C42.8354 138.318 42.9131 138.34 41.0929 138.307C40.4936 138.307 40.2161 138.518 40.1828 139.073C40.1051 140.438 39.9719 141.814 40.0052 143.19C40.0496 146.076 42.0585 148.007 44.9774 148.018C50.0162 148.029 55.0549 148.041 60.1048 147.996C60.915 147.996 61.7696 147.785 62.5354 147.486C63.5898 147.086 64.0226 146.076 63.9338 144.966C63.845 143.934 63.845 142.902 63.8783 141.87C63.8783 141.603 64.0892 141.182 64.3112 141.104C64.7662 140.937 65.1325 141.159 65.3545 141.659C65.7651 142.58 66.2534 143.468 66.6641 144.389C66.8417 144.789 67.0969 144.922 67.5298 144.922C68.7839 144.9 70.0381 144.922 71.2922 144.922H149.748C150.903 144.922 151.147 144.811 151.369 143.668C151.657 142.147 151.924 140.616 151.99 139.084C152.101 136.631 151.28 134.522 149.16 133.08V133.069ZM114.288 140.072C114.255 141.204 113.678 141.925 112.413 142.025C110.726 142.158 109.016 142.136 107.318 142.169C106.819 142.169 106.319 142.169 105.82 142.169C105.598 142.169 105.387 142.169 105.165 142.169C104.022 142.169 102.89 142.169 101.747 142.169C100.759 142.169 99.7823 142.169 98.7946 142.18C98.2063 142.18 97.9622 142.036 97.9844 141.392C98.0287 140.161 98.0287 138.929 97.9844 137.697C97.9622 137.053 98.2285 136.909 98.8057 136.909C102.213 136.92 105.62 136.909 109.016 136.931C110.171 136.931 111.336 136.986 112.468 137.175C113.7 137.375 114.322 138.485 114.277 140.072H114.288Z" fill="#AA882C"/>
<path d="M143.924 129.469C143.924 129.947 143.369 130.479 142.903 130.468C142.426 130.468 141.893 129.913 141.904 129.447C141.904 128.97 142.459 128.448 142.926 128.448C143.403 128.448 143.936 129.003 143.924 129.469Z" fill="#AA882C"/>
<path d="M146.584 129.426C146.606 129.892 146.084 130.447 145.607 130.458C145.141 130.48 144.586 129.958 144.575 129.481C144.553 129.015 145.074 128.46 145.552 128.449C146.018 128.427 146.573 128.948 146.584 129.426Z" fill="#AA882C"/>
<path d="M75.2732 147.039C75.2954 147.505 74.7738 148.06 74.2965 148.071C73.8304 148.093 73.2755 147.572 73.2644 147.094C73.2422 146.628 73.7638 146.073 74.241 146.062C74.7072 146.04 75.2621 146.562 75.2732 147.039Z" fill="#AA882C"/>
<path d="M77.9498 147.084C77.9498 147.561 77.3949 148.083 76.9287 148.083C76.4515 148.083 75.9188 147.528 75.9299 147.062C75.9299 146.585 76.4848 146.063 76.9509 146.063C77.4282 146.063 77.9609 146.618 77.9498 147.084Z" fill="#AA882C"/>
<path d="M80.615 147.094C80.5928 147.572 80.049 148.093 79.5828 148.071C79.1056 148.049 78.584 147.505 78.6062 147.039C78.6284 146.562 79.1722 146.04 79.6383 146.062C80.1156 146.084 80.6372 146.628 80.615 147.094Z" fill="#AA882C"/>
</g>
<defs>
<clipPath id="clip0_4885_43975">
<rect width="192" height="192" fill="white"/>
</clipPath>
</defs>
</svg>
