<svg width="192" height="192" viewBox="0 0 192 192" fill="none" xmlns="http://www.w3.org/2000/svg">
<g clip-path="url(#clip0_4884_42739)">
<path d="M96 192C149.019 192 192 149.019 192 96C192 42.9807 149.019 0 96 0C42.9807 0 0 42.9807 0 96C0 149.019 42.9807 192 96 192Z" fill="white"/>
<path d="M49.8887 89.7577C49.8887 81.2672 56.7136 74.4422 65.2233 74.4326C73.7712 74.4231 80.7398 81.382 80.7302 89.9013C80.7206 98.4396 73.7617 105.341 65.185 105.312C56.5796 105.284 49.8887 98.4779 49.8887 89.7577Z" fill="#D1172F"/>
<path d="M74.3068 71.0252C66.0747 70.9582 57.68 63.5111 56.7227 55.4321C55.9378 48.8561 60.4846 44.0221 67.2043 44.3093C75.1587 44.6443 82.9601 51.4118 84.3672 59.1844C85.5924 65.952 81.2371 71.0826 74.3164 71.0252H74.3068Z" fill="#D1172F"/>
<path d="M102.704 107.496C102.742 112.263 101.545 116.283 98.76 119.738C93.6867 126.037 85.7801 125.434 81.7119 118.484C77.9884 112.119 78.8786 102.824 83.7412 97.2821C88.8145 91.5005 96.2904 92.1227 100.282 98.6701C102.005 101.484 102.752 104.576 102.704 107.496Z" fill="#D1172F"/>
<path d="M128.493 106.509C128.532 109.629 126.713 111.496 123.564 111.448C122.597 111.439 121.573 111.333 120.673 111.008C112.843 108.222 107.368 102.977 104.305 95.2711C103.893 94.2278 103.759 93.1078 103.797 91.9783C103.874 89.1545 105.549 87.4698 108.411 87.3454C110.124 87.2688 111.761 87.69 113.302 88.3696C119.639 91.1551 124.33 95.6732 127.354 101.866C128.063 103.312 128.484 104.872 128.493 106.509Z" fill="#D1172F"/>
<path d="M104.708 45.4482C104.641 49.3249 103.962 53.0676 102.363 56.6285C101.703 58.1026 100.87 59.481 99.75 60.6488C96.8784 63.6545 93.5664 63.3577 91.4031 59.7969C88.7707 55.4415 88.7133 50.6172 89.2206 45.7832C89.6131 42.0022 90.6948 38.3839 92.9442 35.2442C94.2365 33.4351 95.8063 31.8078 98.2472 32.0184C100.784 32.2386 102.066 34.153 103.014 36.2589C104.326 39.1784 104.737 42.2702 104.699 45.4482H104.708Z" fill="#D1172F"/>
<path d="M118.568 73.5425C125.134 73.8201 131.816 73.8201 138.325 75.4953C139.818 75.8781 142.135 76.0026 142.106 77.8021C142.077 79.5634 139.742 79.6783 138.248 80.0708C134.506 81.0567 130.658 81.4204 126.8 81.631C117.534 82.1288 108.278 82.1096 99.1364 80.1952C98.2462 80.0133 97.3751 79.7357 96.5232 79.4007C95.7 79.0753 94.5896 78.8264 94.6279 77.716C94.6662 76.6439 95.7766 76.3759 96.5902 76.06C99.0886 75.0837 101.74 74.7199 104.382 74.3849C109.053 73.7818 113.753 73.6957 118.549 73.533L118.568 73.5425Z" fill="#59595B"/>
<path d="M128.238 47.9081C127.941 49.1237 127.443 50.2054 126.763 51.1913C122.351 57.6525 116.751 62.8694 109.907 66.6982C108.519 67.4736 106.671 68.8807 105.322 67.3779C104.097 66.0282 105.513 64.3243 106.375 63.0321C110.778 56.4656 116.445 51.2392 123.356 47.3625C124.342 46.8073 125.375 46.3574 126.505 46.2329C127.74 46.0989 128.362 46.6828 128.238 47.9081Z" fill="#D1172F"/>
<path d="M142.753 155.07C142.379 155.194 142.398 155.558 142.284 155.836C141.24 158.41 139.02 159.961 136.215 159.98C133.046 159.999 129.878 159.98 126.7 159.98C124.968 159.98 123.417 159.454 122.153 158.248C121.684 157.798 121.426 157.74 120.938 158.229C119.665 159.492 118.066 159.99 116.286 159.98C115.175 159.98 114.065 159.961 112.954 159.98C111.088 160.019 109.422 159.502 108.073 158.19C107.623 157.75 107.374 157.769 106.934 158.2C105.622 159.492 103.995 159.99 102.176 159.98C99.161 159.961 96.1553 159.952 93.1401 159.99C92.3552 159.999 92.1063 159.751 92.135 158.975C92.202 156.754 91.934 157.185 93.9633 157.166C96.5765 157.137 99.1993 157.166 101.812 157.166C104.799 157.166 106.11 155.874 106.12 152.935C106.12 150.054 106.158 147.173 106.101 144.301C106.082 143.411 106.321 143.057 107.221 143.2C107.489 143.239 107.776 143.239 108.054 143.2C108.8 143.095 108.982 143.43 108.982 144.138C108.944 147.134 108.963 150.131 108.963 153.136C108.963 155.836 110.322 157.166 113.079 157.176C114.151 157.176 115.223 157.185 116.286 157.176C118.698 157.147 120.134 155.73 120.143 153.337C120.153 147.776 120.191 142.214 120.114 136.653C120.095 135.38 120.765 135.514 121.569 135.514C122.402 135.514 123.034 135.418 123.015 136.672C122.938 142.195 122.977 147.718 122.986 153.241C122.986 155.797 124.374 157.176 126.949 157.185C129.926 157.185 132.893 157.195 135.87 157.185C138.445 157.185 139.852 155.788 139.871 153.241C139.871 152.055 139.891 150.877 139.871 149.69C139.824 147.489 138.416 146.072 136.205 146.053C133.506 146.024 130.816 146.024 128.117 146.053C127.332 146.062 126.949 145.794 127.14 145.038C127.294 144.426 126.547 143.286 127.743 143.248C130.95 143.152 134.176 143.076 137.364 143.325C139.795 143.516 141.413 145.124 142.322 147.402C142.465 147.747 142.37 148.207 142.753 148.446V155.079V155.07Z" fill="#525252"/>
<path d="M61.4549 159.98C59.5979 159.98 57.7314 159.989 55.8744 159.98C52.0455 159.941 49.2983 157.213 49.3079 153.384C49.3079 151.69 49.1068 149.986 49.4419 148.311C50.0545 145.286 52.4858 143.248 55.5585 143.209C57.7409 143.181 59.9138 143.228 62.0963 143.19C62.8429 143.171 63.2162 143.353 63.1014 144.157C63.0631 144.425 63.0631 144.712 63.1014 144.98C63.2162 145.813 62.8812 146.062 62.0484 146.043C59.9904 145.985 57.9324 146.014 55.8744 146.033C53.577 146.052 52.1699 147.45 52.1412 149.709C52.1221 150.972 52.1221 152.236 52.1412 153.49C52.1699 155.605 53.577 157.118 55.6829 157.146C59.5214 157.194 63.3694 157.194 67.2078 157.146C69.285 157.127 70.7112 155.691 70.74 153.624C70.7782 150.513 70.8165 147.392 70.7208 144.281C70.6825 142.941 71.477 143.209 72.2332 143.19C73.0086 143.171 73.6595 143.066 73.6212 144.272C73.5255 147.344 73.6116 150.417 73.5829 153.499C73.5542 157.271 70.8452 159.951 67.0451 159.98C65.1881 159.999 63.3215 159.98 61.4645 159.98H61.4549Z" fill="#525252"/>
<path d="M95.1008 146.023C93.8755 146.023 92.6503 146.023 91.4155 146.023C88.8118 146.042 87.5196 147.353 87.51 149.976C87.51 151.163 87.5196 152.34 87.51 153.527C87.4526 157.203 84.7149 159.931 81.0201 159.979C79.3162 159.998 77.6124 159.941 75.9086 159.998C75.1045 160.027 74.8365 159.74 74.9418 158.983C74.98 158.715 74.98 158.428 74.9418 158.16C74.846 157.414 75.1045 157.117 75.9086 157.155C77.4497 157.213 79.0004 157.174 80.5415 157.174C83.3174 157.174 84.6671 155.806 84.6671 153.01C84.6671 151.823 84.6575 150.646 84.6671 149.459C84.715 145.965 87.4047 143.266 90.9273 143.218C93.7415 143.18 96.5462 143.237 99.3604 143.189C100.174 143.17 100.432 143.448 100.337 144.204C100.308 144.472 100.298 144.759 100.337 145.027C100.432 145.783 100.164 146.08 99.3604 146.051C97.9341 145.994 96.5079 146.032 95.0816 146.032L95.1008 146.023Z" fill="#525252"/>
<path d="M76.3502 145.008C76.3502 142.175 76.398 139.342 76.3215 136.508C76.2927 135.475 76.8096 135.398 77.5467 135.513C78.2072 135.609 79.2027 135.025 79.1931 136.47C79.1548 142.137 79.1644 147.804 79.1931 153.47C79.1931 154.188 78.9921 154.485 78.255 154.408C77.9009 154.37 77.5371 154.37 77.1925 154.408C76.4842 154.494 76.3406 154.15 76.3502 153.518C76.3789 150.685 76.3597 147.851 76.3597 145.018L76.3502 145.008Z" fill="#525252"/>
<path d="M134.318 135.503C136.252 135.503 138.195 135.561 140.129 135.475C141.115 135.436 141.402 135.791 141.277 136.681C141.239 136.949 141.249 137.236 141.277 137.504C141.335 138.097 141.124 138.346 140.493 138.346C136.3 138.327 132.107 138.327 127.915 138.346C127.273 138.346 127.053 138.097 127.13 137.504C127.139 137.389 127.13 137.265 127.13 137.15C127.149 135.274 126.9 135.503 128.747 135.494C130.605 135.484 132.461 135.494 134.318 135.494V135.503Z" fill="#525252"/>
<path d="M134.185 139.352C136.166 139.352 138.148 139.4 140.12 139.333C141.096 139.294 141.402 139.639 141.278 140.539C141.24 140.807 141.249 141.094 141.278 141.362C141.335 141.946 141.144 142.214 140.493 142.214C136.3 142.195 132.098 142.195 127.906 142.214C127.264 142.214 127.044 141.975 127.111 141.372C127.111 141.295 127.111 141.218 127.111 141.132C127.14 139.084 126.843 139.361 128.844 139.342C130.624 139.323 132.405 139.342 134.185 139.342V139.352Z" fill="#525252"/>
<path d="M63.0899 151.604C63.0803 152.532 62.3528 153.221 61.4243 153.202C60.5245 153.183 59.7683 152.417 59.7875 151.537C59.8066 150.685 60.6394 149.881 61.4913 149.909C62.3911 149.938 63.109 150.694 63.0994 151.604H63.0899Z" fill="#525252"/>
<path d="M93.7583 149.909C94.639 149.871 95.4239 150.608 95.4526 151.508C95.4813 152.446 94.8113 153.173 93.8923 153.202C92.9925 153.231 92.2076 152.522 92.1693 151.632C92.131 150.78 92.9064 149.947 93.7679 149.909H93.7583Z" fill="#525252"/>
<path d="M98.6336 153.202C97.7147 153.183 97.0159 152.446 97.0542 151.527C97.083 150.627 97.8583 149.89 98.7389 149.919C99.5909 149.947 100.395 150.79 100.357 151.622C100.318 152.503 99.5334 153.221 98.6336 153.202Z" fill="#525252"/>
</g>
<defs>
<clipPath id="clip0_4884_42739">
<rect width="192" height="192" fill="white"/>
</clipPath>
</defs>
</svg>
