<svg width="192" height="192" viewBox="0 0 192 192" fill="none" xmlns="http://www.w3.org/2000/svg">
<g clip-path="url(#clip0_5218_40958)">
<path d="M96 192C149.019 192 192 149.019 192 96C192 42.9807 149.019 0 96 0C42.9807 0 0 42.9807 0 96C0 149.019 42.9807 192 96 192Z" fill="white"/>
<path d="M174.254 108.373C173.694 108.582 173.834 109.141 173.694 109.561C171.667 119.137 163.908 125.358 154.122 125.218C144.476 125.079 135.879 116.551 135.739 106.905C135.669 100.194 135.809 93.4839 135.669 86.7037C135.459 77.2672 141.96 68.7395 151.816 67.0619C152.095 66.992 152.445 67.1318 152.585 66.7124C153.913 66.7124 155.311 66.7124 156.639 66.7124C156.779 66.992 157.058 66.992 157.268 66.992C164.747 68.1803 169.92 72.3044 172.716 79.3642C173.345 80.902 173.694 82.5796 174.114 84.1873C174.114 84.4669 174.114 84.8164 174.114 85.096C173.834 85.2358 173.904 85.5154 173.904 85.795C173.904 92.6451 173.904 99.4953 173.904 106.345C173.904 106.625 173.904 106.835 174.184 107.044C174.254 107.534 174.254 107.953 174.254 108.373ZM141.68 107.184C141.68 109.072 141.68 110.959 141.68 112.776C141.68 114.384 142.309 115.293 143.428 115.223C144.826 115.083 145.105 114.104 145.105 112.846C145.105 109.281 145.105 105.646 145.105 102.082C145.105 99.2856 146.643 97.7478 149.509 97.7478C153.074 97.7478 156.569 97.7478 160.134 97.7478C163 97.7478 164.537 99.2856 164.537 102.151C164.537 105.716 164.537 109.211 164.537 112.776C164.537 114.384 165.167 115.293 166.285 115.223C167.683 115.083 167.963 114.104 167.963 112.846C167.963 109.141 167.963 105.437 167.963 101.732C167.963 99.2856 166.984 97.2585 165.027 95.8605C164.398 95.4411 164.258 95.0916 164.677 94.3926C165.516 92.9946 165.726 91.4568 165.726 89.919C165.726 86.4241 165.726 82.9291 165.726 79.4341C165.726 78.9448 165.656 78.5254 165.586 78.0361C165.376 77.1973 164.747 76.8478 163.978 76.8478C163.14 76.9177 162.51 77.407 162.441 78.3157C162.371 78.7351 162.441 79.1545 162.441 79.5739C162.441 83.1388 162.441 86.6338 162.441 90.1986C162.371 93.0645 161.182 94.2528 158.386 94.2528C156.01 94.2528 153.563 94.2528 151.187 94.2528C149.16 94.2528 148.251 93.5538 147.762 91.5966C147.622 90.8976 147.552 90.1287 147.552 89.4297C147.552 85.8649 147.552 82.3699 147.552 78.805C147.552 77.6866 147.133 76.9177 146.014 76.8478C144.826 76.7779 144.267 77.5468 144.127 78.7351C144.127 78.805 144.127 78.9448 144.127 79.0147C144.127 82.7893 144.057 86.494 144.127 90.2685C144.127 91.5267 144.337 92.9247 145.036 94.0431C145.595 94.9518 145.525 95.3712 144.616 96.0003C142.799 97.3284 141.89 99.2157 141.82 101.522C141.68 103.41 141.68 105.297 141.68 107.184ZM154.891 104.598C156.849 104.598 158.736 104.528 160.693 104.598C161.881 104.598 162.86 104.179 162.93 102.92C163 101.662 162.021 101.173 160.833 101.173C156.849 101.173 152.934 101.173 148.95 101.173C147.832 101.173 146.923 101.662 146.923 102.85C146.923 104.109 147.762 104.598 149.02 104.598C150.907 104.598 152.864 104.598 154.891 104.598Z" fill="#FE601F"/>
<path d="M36.6202 110.26C37.7386 109.001 38.6473 108.023 39.556 107.044C39.9754 106.555 40.4647 106.625 41.0239 106.625C42.8412 106.625 44.6586 106.625 46.476 106.625C47.9439 106.555 48.9924 104.738 48.3633 103.409C48.0837 102.85 47.6643 103.06 47.3148 103.06C45.0081 103.06 42.7014 103.06 40.4647 103.06C37.9483 103.06 36.76 102.011 36.6901 99.4951C36.5503 96.9787 36.6202 94.4623 36.6901 92.0158C36.76 89.6392 37.6687 88.8004 40.0453 88.5907C43.8198 88.2412 47.6643 88.5208 51.4389 88.4509C52.4175 88.4509 52.3476 89.08 52.3476 89.7091C52.3476 92.5051 52.4175 95.2312 52.3476 98.0272C52.3476 99.0757 52.4874 99.4951 53.6757 99.4951C59.4773 99.4252 65.279 99.4951 71.0107 99.4951C73.0378 99.4951 73.5271 98.9359 73.5271 96.8389C73.5271 95.2312 73.5271 93.6235 73.5271 92.0158C73.597 89.9188 74.4358 88.9402 76.4629 88.7305C79.888 88.381 83.3131 88.381 86.7381 88.7305C88.6254 88.9402 89.3244 89.5693 89.5341 91.4566C89.8836 94.3225 89.8836 97.2583 89.604 100.194C89.3943 102.291 88.3458 103.13 86.2488 103.13C83.5927 103.2 80.9365 103.13 78.2803 103.13C76.8124 103.13 76.0435 102.221 75.2746 100.963C74.4358 102.85 72.9679 103.2 71.2903 103.2C65.4887 103.13 59.687 103.2 53.9553 103.13C52.6272 103.13 51.9981 103.34 52.2078 104.807C52.3476 105.576 52.2777 106.345 52.2078 107.114C52.068 109.141 51.0195 110.26 48.9225 110.329C44.9382 110.26 41.0239 110.26 36.6202 110.26ZM81.4258 99.2854C82.3345 99.2854 83.1733 99.2854 84.082 99.2854C85.1305 99.2854 85.6896 98.7262 85.6896 97.6078C85.6896 96.3496 85.6896 95.0914 85.6896 93.8332C85.6896 92.6449 85.0606 92.0158 83.8024 92.0158C82.6141 92.0158 81.4258 92.0158 80.2375 92.0158C77.6512 92.0158 77.3017 92.4352 77.3017 95.0215C77.2318 99.3553 77.2318 99.3553 81.4258 99.2854ZM45.0081 92.0857C44.1693 92.0857 43.3305 92.1556 42.4917 92.0857C41.0938 92.0158 40.5346 92.7148 40.5346 94.0429C40.5346 94.4623 40.5346 94.8817 40.5346 95.3011C40.4647 99.8446 40.6744 99.2854 44.5188 99.2854C48.3633 99.2854 48.3633 99.2854 48.3633 95.4409C48.3633 92.0857 48.3633 92.0857 45.0081 92.0857Z" fill="#FE6221"/>
<path d="M95.9652 81.9507C95.9652 87.1931 95.9652 92.0861 95.9652 96.9791C95.9652 99.0062 96.2448 99.2858 98.3417 99.2858C101.138 99.2858 101.138 99.2858 101.138 96.4898C101.138 94.1831 101.138 91.8764 101.138 89.6396C101.138 88.7309 101.347 88.3814 102.326 88.3814C108.267 88.4513 114.209 88.3814 120.15 88.4513C123.575 88.4513 124.484 89.4998 124.484 92.855C124.484 95.8607 124.484 98.8664 124.484 101.942C124.484 102.851 124.274 103.06 123.366 103.06C114.209 103.06 105.052 103.06 95.8254 102.99C93.1692 102.99 92.2605 102.082 92.1906 99.4256C92.0508 94.952 92.1207 90.4784 92.0508 86.0049C92.0508 85.5156 92.1207 85.0962 92.5401 84.7467C93.5886 83.9079 94.707 82.9992 95.9652 81.9507ZM114.768 95.651C114.768 99.2858 114.768 99.2858 118.333 99.2858C118.822 99.2858 119.381 99.2858 119.871 99.2858C120.22 99.2858 120.57 99.2159 120.57 98.8664C120.57 96.9791 120.919 95.0219 120.22 93.1346C120.011 92.6453 119.521 92.2958 119.032 92.2259C117.704 91.9463 116.166 91.7366 115.048 92.2958C114.209 92.7152 114.838 94.1831 114.768 95.2316C114.768 95.3714 114.768 95.5112 114.768 95.651ZM110.714 95.3714C110.714 94.6724 110.644 94.0433 110.714 93.3443C110.784 92.4356 110.574 92.0162 109.526 92.0861C108.337 92.156 107.149 92.156 105.961 92.0861C105.332 92.0861 105.052 92.2958 105.052 92.9948C105.122 94.6025 105.052 96.2102 105.052 97.8179C105.052 98.7965 105.541 99.3557 106.59 99.2858C110.994 99.2159 110.644 99.7751 110.644 95.5112C110.714 95.5112 110.714 95.4413 110.714 95.3714Z" fill="#FE6120"/>
<path d="M17.748 108.373C17.748 102.711 17.748 97.1188 17.748 91.457C18.9363 90.5483 20.1246 89.6396 21.5925 88.5911C21.5925 90.9677 21.5925 93.1345 21.5925 95.3014C21.5925 97.678 21.5925 100.124 21.5925 102.501C21.6624 104.388 22.1517 104.878 24.039 104.878C25.1574 104.878 26.2059 104.878 27.3243 104.878C29.631 104.878 29.9805 104.528 29.9805 102.152C29.9805 98.0974 30.0504 94.0432 29.9805 89.9891C29.9805 88.7309 30.33 88.1717 31.5882 88.4513C32.4269 88.661 33.9647 87.6125 33.9647 89.2202C33.9647 94.6723 34.3142 100.194 33.8249 105.647C33.6152 107.674 32.7764 108.373 30.7494 108.443C26.4156 108.373 22.0818 108.373 17.748 108.373Z" fill="#FE6221"/>
<path d="M25.9966 81.8105C26.6257 82.0901 28.3732 83.9774 28.4431 84.3968C28.4431 84.8861 26.6257 86.8433 26.2063 86.7734C25.9966 86.7734 23.7598 84.5366 23.8297 84.3968C24.5287 83.558 25.2277 82.7192 25.9966 81.8105Z" fill="#FE6221"/>
</g>
<defs>
<clipPath id="clip0_5218_40958">
<rect width="192" height="192" fill="white"/>
</clipPath>
</defs>
</svg>
