<svg width="192" height="192" viewBox="0 0 192 192" fill="none" xmlns="http://www.w3.org/2000/svg">
<g clip-path="url(#clip0_4886_45399)">
<path d="M96 192C149.019 192 192 149.019 192 96C192 42.9807 149.019 0 96 0C42.9807 0 0 42.9807 0 96C0 149.019 42.9807 192 96 192Z" fill="white"/>
<g clip-path="url(#clip1_4886_45399)">
<path d="M84.524 100.077C77.5694 100.077 70.6147 100.077 63.6601 100.077C62.9064 100.077 62.1185 99.7686 61.6388 101.036C61.3305 101.858 59.9944 101.379 59.1379 101.345C58.2472 101.31 58.624 100.488 58.624 99.9741C58.5898 98.6038 58.5898 97.2334 58.624 95.863C58.6583 95.0408 58.4184 94.5954 57.4934 94.6297C54.6842 94.664 51.9092 94.664 49.0999 94.6297C48.1064 94.6297 47.524 95.1778 47.5583 96.0686C47.5925 96.8908 48.1407 97.4389 49.1684 97.4047C50.7786 97.3362 52.3546 97.4732 53.9647 97.3704C55.1296 97.3019 55.061 97.9528 55.061 98.7408C55.061 99.5288 55.1296 100.18 53.9647 100.111C52.0805 100.008 50.1962 100.111 48.312 100.077C46.0166 100.008 44.4064 98.4667 44.2694 96.3084C44.1323 94.1158 45.4684 92.2658 47.7981 92.1288C52.1833 91.9232 56.5685 91.9917 60.9536 91.9575C61.6046 91.9575 61.9129 92.2316 61.8444 92.8825C61.8444 93.0538 61.8444 93.2251 61.8444 93.3964C61.9129 97.3704 61.9129 97.3704 65.9898 97.3704C68.2166 97.3704 70.4435 97.3362 72.6703 97.4047C73.6638 97.4389 74.2462 97.1649 74.0407 96.1028C73.7666 94.6639 74.6573 94.7325 75.6509 94.7325C76.7129 94.6982 77.4666 94.801 77.2268 96.1714C77.0555 97.1306 77.5009 97.4732 78.4601 97.439C80.0018 97.3704 81.5434 97.4047 83.0851 97.439C83.8388 97.4732 84.0786 97.1991 84.0786 96.4454C84.0444 95.3149 84.1129 94.1501 84.0444 93.0195C83.9758 91.9232 84.6953 91.9232 85.3805 92.0602C86.0999 92.163 87.2305 91.4436 87.3675 92.9167C87.4018 93.1565 87.3675 93.3621 87.3675 93.6019C87.436 97.4047 87.4361 97.4047 91.3416 97.4047C94.1166 97.4047 94.1166 97.4047 94.1508 94.6297C94.1508 94.3556 94.1851 94.0473 94.1508 93.7732C94.0138 92.5741 94.2536 91.9232 95.761 91.9575C97.1314 91.9917 97.5083 92.3686 97.474 93.7047C97.4055 97.4047 97.474 97.4047 100.968 97.4047C104.223 97.4047 104.292 97.4047 104.189 94.0473C104.12 92.4371 104.497 91.8204 106.21 91.9575C107.204 92.0603 107.443 92.3686 107.409 93.2936C107.341 95.1093 107.306 96.9251 107.409 98.7408C107.478 99.9399 106.998 100.111 105.936 100.111C98.7759 100.043 91.6499 100.077 84.524 100.077Z" fill="black"/>
<path d="M151.294 97.3704C150.678 95.7945 151.055 94.2528 150.952 92.7111C150.918 91.9917 151.431 91.9574 151.98 91.9574C156.536 91.9574 161.093 91.8889 165.649 91.9917C168.253 92.0602 170 93.8417 169.966 96.0685C169.931 98.3982 168.047 100.043 165.375 100.043C157.701 100.043 149.993 100.043 142.318 100.043C141.359 100.043 140.606 100.18 140.571 98.7408C140.537 97.1648 141.428 97.3361 142.421 97.3361C145.299 97.3704 148.211 97.3704 151.294 97.3704Z" fill="#010101"/>
<path d="M33.614 100.077C31.2843 100.077 28.9547 100.111 26.5908 100.077C24.1927 100.042 22.4112 98.535 22.3084 96.4109C22.1714 93.9785 23.5075 92.334 26.0769 92.0942C27.8927 91.9229 29.7084 92.0257 31.5241 91.9914C32.689 91.9914 32.2779 92.8822 32.3464 93.4989C32.4149 94.1498 32.4149 94.7322 31.4214 94.6637C30.051 94.5951 28.6806 94.6637 27.3103 94.6294C26.3167 94.6294 25.5288 95.0748 25.563 96.034C25.5973 96.9933 26.3167 97.4044 27.3445 97.3702C30.7019 97.3016 34.0593 97.3359 37.4167 97.3702C38.376 97.3702 38.7871 97.1303 38.7186 96.1368C38.6501 95.2803 38.7871 94.4239 38.6843 93.5674C38.5473 92.3341 38.8899 91.8887 40.2603 91.8887C41.5964 91.8887 42.0417 92.2655 41.9732 93.6016C41.8362 95.3489 41.9047 97.1303 41.9732 98.8776C42.0075 99.7683 41.6992 100.042 40.8084 100.042C38.4103 100.008 36.0121 100.077 33.614 100.077Z" fill="#010101"/>
<path d="M114.568 100.077C113.643 100.077 112.718 100.214 111.827 100.042C110.868 99.8368 109.155 101.104 109.189 98.672C109.224 96.3767 110.868 97.5072 111.725 97.4387C113.643 97.2674 115.596 97.3702 117.549 97.4044C118.508 97.4044 119.33 97.2331 119.364 96.1026C119.399 94.9035 118.508 94.6637 117.514 94.6637C115.185 94.6637 112.821 94.6294 110.491 94.698C109.566 94.7322 109.155 94.4924 109.189 93.4989C109.224 92.6424 109.155 91.9572 110.389 91.9915C113.061 92.06 115.767 91.9572 118.439 92.06C121.112 92.1628 122.79 93.8415 122.722 96.1711C122.653 98.5692 120.872 100.111 118.131 100.145C116.966 100.077 115.767 100.077 114.568 100.077Z" fill="#010101"/>
<path d="M128.238 100.042C127.484 100.042 126.764 100.008 126.011 100.042C125.086 100.077 124.401 100.111 124.435 98.7748C124.435 97.5414 124.88 97.1988 126.011 97.3016C126.799 97.3701 127.587 97.2674 128.409 97.3359C130.088 97.4729 130.67 96.6507 130.567 95.109C130.533 94.6979 130.636 94.3211 130.567 93.91C130.259 92.2313 130.978 91.7174 132.623 91.8887C133.479 91.9914 133.822 92.1627 133.788 93.0535C133.719 94.4581 133.788 95.897 133.753 97.3016C133.719 98.9461 132.794 99.9053 131.15 100.008C130.19 100.111 129.197 100.042 128.238 100.042Z" fill="#010101"/>
<path d="M138.858 96.1026C138.858 96.7878 138.79 97.473 138.858 98.1582C139.064 99.6999 138.55 100.248 136.94 100.145C135.912 100.077 135.535 99.8369 135.604 98.7749C135.672 96.8906 135.706 95.0406 135.604 93.1564C135.535 91.7517 136.46 91.9915 137.282 91.9573C138.173 91.923 139.029 91.8545 138.892 93.1906C138.755 94.1499 138.858 95.1434 138.858 96.1026Z" fill="#E10C18"/>
<path d="M68.5922 92.4712C68.4895 90.8953 69.1746 90.2444 70.1339 90.2786C70.9561 90.2786 71.7098 90.7925 71.7441 91.8888C71.7441 93.0194 71.1617 93.5675 70.1339 93.6018C69.0719 93.636 68.6608 92.9509 68.5922 92.4712Z" fill="#050505"/>
<path d="M73.9718 91.9232C73.9376 90.8269 74.6913 90.313 75.5477 90.313C76.507 90.313 77.2264 90.9296 77.1922 92.0602C77.1579 93.0195 76.644 93.6704 75.6163 93.6361C74.52 93.5676 74.0061 92.9509 73.9718 91.9232Z" fill="#030303"/>
<path d="M36.286 93.2932C35.4295 93.2247 34.9499 92.8136 34.9841 91.9228C35.0184 91.0321 35.635 90.5867 36.423 90.621C37.1767 90.6552 37.8619 91.1349 37.7591 92.0256C37.6564 92.8478 37.211 93.3617 36.286 93.2932Z" fill="#070707"/>
<path d="M162.943 97.3702C162.361 97.3702 161.813 97.3359 161.23 97.3702C160.237 97.4387 159.654 97.3016 159.654 96.034C159.689 94.9035 160.065 94.5267 161.162 94.5952C162.361 94.6637 163.56 94.6294 164.759 94.5952C165.718 94.5952 166.506 94.835 166.506 95.9313C166.54 97.0618 165.821 97.3702 164.827 97.3359C164.211 97.3359 163.594 97.3702 162.943 97.3702Z" fill="#FDFDFD"/>
<path d="M156.227 96.4798C156.193 96.6511 156.604 97.4733 155.508 97.3705C154.412 97.2677 154.001 96.5825 153.898 95.589C153.795 94.4585 154.583 94.7325 155.2 94.6298C156.467 94.4585 156.296 95.315 156.227 96.4798Z" fill="#FAFAFA"/>
</g>
</g>
<defs>
<clipPath id="clip0_4886_45399">
<rect width="192" height="192" fill="white"/>
</clipPath>
<clipPath id="clip1_4886_45399">
<rect width="148" height="11.6481" fill="white" transform="translate(22 90.1758)"/>
</clipPath>
</defs>
</svg>
