<svg width="192" height="192" viewBox="0 0 192 192" fill="none" xmlns="http://www.w3.org/2000/svg">
<g clip-path="url(#clip0_4885_43382)">
<path d="M96 192C149.019 192 192 149.019 192 96C192 42.9807 149.019 0 96 0C42.9807 0 0 42.9807 0 96C0 149.019 42.9807 192 96 192Z" fill="white"/>
<path d="M89.1523 108.8C91.8198 108.8 93.9823 107.73 93.9823 106.41C93.9823 105.09 91.8198 104.02 89.1523 104.02C86.4847 104.02 84.3223 105.09 84.3223 106.41C84.3223 107.73 86.4847 108.8 89.1523 108.8Z" fill="#024999"/>
<path d="M99.1425 108.8C101.81 108.8 103.973 107.73 103.973 106.41C103.973 105.09 101.81 104.02 99.1425 104.02C96.475 104.02 94.3125 105.09 94.3125 106.41C94.3125 107.73 96.475 108.8 99.1425 108.8Z" fill="#024999"/>
<path d="M111.342 108.8C114.009 108.8 116.172 107.73 116.172 106.41C116.172 105.09 114.009 104.02 111.342 104.02C108.674 104.02 106.512 105.09 106.512 106.41C106.512 107.73 108.674 108.8 111.342 108.8Z" fill="#024999"/>
<path d="M121.441 108.8C124.109 108.8 126.271 107.73 126.271 106.41C126.271 105.09 124.109 104.02 121.441 104.02C118.774 104.02 116.611 105.09 116.611 106.41C116.611 107.73 118.774 108.8 121.441 108.8Z" fill="#024999"/>
<path d="M116.412 113.58C119.08 113.58 121.242 112.51 121.242 111.19C121.242 109.87 119.08 108.8 116.412 108.8C113.744 108.8 111.582 109.87 111.582 111.19C111.582 112.51 113.744 113.58 116.412 113.58Z" fill="#024999"/>
<path d="M88.6608 89.2699C87.5408 89.2699 86.5408 89.1899 85.5508 89.2899C84.2408 89.4299 83.6408 90.2199 83.6408 91.6299C83.6308 94.3699 83.7308 97.1099 83.6108 99.8499C83.4408 103.74 81.7208 106.74 78.1308 108.53C77.5308 108.83 77.0408 108.86 76.4408 108.44C74.9508 107.4 73.4108 106.44 71.8008 105.38C72.2508 105.18 72.6308 105.01 73.0108 104.84C75.4308 103.8 76.6708 102.02 76.6208 99.3399C76.5708 96.5999 76.5808 93.8599 76.6108 91.1199C76.6108 90.3599 76.6808 89.5799 76.8408 88.8399C77.4508 86.1099 79.1808 84.5699 82.3608 84.4499C86.7408 84.2899 91.1208 84.4099 95.6008 84.4099V96.9499C95.8908 96.9699 96.0908 96.9899 96.2908 96.9899C102.751 96.9899 109.221 96.9999 115.681 96.9699C116.381 96.9699 117.111 96.8099 117.771 96.5699C119.521 95.9199 120.421 94.3999 120.181 92.6699C119.941 90.8799 118.511 89.4499 116.751 89.2399C116.391 89.1999 116.031 89.1999 115.681 89.1999C110.401 89.1999 105.111 89.1999 99.8308 89.1999C99.5008 89.1999 99.1708 89.1699 98.8108 89.1499V84.3899C99.0808 84.3899 99.3508 84.3899 99.6208 84.3899C105.291 84.3899 110.961 84.3399 116.621 84.4099C119.911 84.4499 122.931 85.3499 125.081 88.0399C126.801 90.1899 127.401 92.6999 126.841 95.3999C126.441 97.3399 125.211 98.7299 123.581 99.7799C121.381 101.19 118.931 101.8 116.351 101.82C108.301 101.86 100.241 101.84 92.1908 101.82C91.5308 101.82 90.8608 101.75 90.2008 101.66C89.0008 101.49 88.6108 101.03 88.6108 99.8199C88.6108 96.6199 88.6308 93.4199 88.6508 90.2199C88.6508 89.9199 88.6508 89.6199 88.6508 89.2599L88.6608 89.2699Z" fill="#024999"/>
<path d="M130.631 78.4199H137.561V96.9899C137.971 96.9899 138.271 96.9899 138.571 96.9899C144.211 96.9899 149.851 96.9899 155.491 96.9899C156.481 96.9899 157.531 97.0599 158.451 96.7799C159.371 96.5099 160.301 95.9699 160.981 95.3099C162.611 93.7399 162.271 91.3499 160.361 90.1199C159.271 89.4199 158.041 89.1999 156.771 89.2099C151.691 89.2099 146.621 89.2099 141.541 89.2099C141.211 89.2099 140.881 89.1799 140.521 89.1699V84.4099C140.791 84.4099 141.051 84.4099 141.321 84.4099C146.501 84.4099 151.681 84.3799 156.861 84.4199C159.361 84.4399 161.791 84.8799 164.051 86.0499C168.071 88.1299 169.201 92.5999 168.091 95.8099C167.341 97.9799 165.671 99.3199 163.681 100.27C161.401 101.36 158.961 101.82 156.461 101.83C149.131 101.86 141.801 101.84 134.461 101.83C131.621 101.83 130.641 100.84 130.631 97.9699C130.631 93.3099 130.631 88.6499 130.631 83.9899C130.631 82.1499 130.631 80.3199 130.631 78.4199Z" fill="#024999"/>
<path d="M37.9016 84.5499V89.1999C36.9516 89.1999 36.0016 89.1399 35.0716 89.2199C34.0616 89.2999 33.0016 89.3599 32.0816 89.7099C30.1616 90.4499 29.2216 92.4499 29.7816 94.1699C30.1116 95.1799 30.8016 95.9199 31.7616 96.2999C32.6016 96.6399 33.5216 96.9499 34.4116 96.9599C40.7916 97.0199 47.1816 96.9899 53.5616 96.9899C53.6816 96.9899 53.8116 96.9699 54.0416 96.9499V84.4199H60.9616C60.9816 84.6599 61.0116 84.8799 61.0116 85.0999C61.0116 90.0199 61.0216 94.9299 61.0216 99.8499C61.0216 101.05 60.6316 101.52 59.4316 101.68C58.7216 101.77 58.0016 101.84 57.2916 101.84C49.6216 101.85 41.9616 101.87 34.2916 101.84C31.2616 101.83 28.4616 101.04 26.1616 98.9399C22.9616 96.0199 22.5816 90.5799 25.4016 87.5799C27.1516 85.7299 29.4416 84.8499 31.9016 84.6099C33.8516 84.4199 35.8416 84.5699 37.9016 84.5699V84.5499Z" fill="#024999"/>
<path d="M71.5823 101.73H64.6523V80.5898H71.5823V101.73Z" fill="#024999"/>
<path d="M140.381 83.2098C140.381 81.7198 140.381 80.2698 140.401 78.8198C140.401 78.6998 140.631 78.5198 140.791 78.4698C140.971 78.4098 141.201 78.4498 141.401 78.4498C150.091 78.4498 158.791 78.4498 167.481 78.4498C167.761 78.4498 168.031 78.4498 168.361 78.4498V83.2198H140.381V83.2098Z" fill="#024999"/>
<path d="M45.4919 78.52C46.7919 78.47 48.0519 78.67 49.1919 79.33C50.6819 80.19 50.7119 81.55 49.1919 82.32C46.7819 83.54 44.3119 83.5 41.8719 82.36C41.2319 82.06 40.6719 81.59 40.6919 80.79C40.7119 80.04 41.2519 79.62 41.8619 79.29C42.9919 78.67 44.2219 78.47 45.4919 78.52Z" fill="#024999"/>
</g>
<defs>
<clipPath id="clip0_4885_43382">
<rect width="192" height="192" fill="white"/>
</clipPath>
</defs>
</svg>
