<svg width="192" height="192" viewBox="0 0 192 192" fill="none" xmlns="http://www.w3.org/2000/svg">
<g clip-path="url(#clip0_4885_44081)">
<path d="M96 192C149.019 192 192 149.019 192 96C192 42.9807 149.019 0 96 0C42.9807 0 0 42.9807 0 96C0 149.019 42.9807 192 96 192Z" fill="#F6B509"/>
<path d="M98.6866 99.0224C98.6366 97.9724 98.5666 96.8824 98.2166 95.9024C97.2766 93.2324 95.2166 91.7924 92.4666 91.6824C88.3866 91.5224 84.2966 91.5724 80.2066 91.5824C79.1666 91.5824 78.4366 92.3924 78.3966 93.4324C78.3766 93.9324 78.4266 94.4324 78.3866 94.9224C78.3366 95.5124 78.5766 95.6524 79.1366 95.6424C82.6266 95.6224 86.1166 95.5924 89.5966 95.6524C90.7166 95.6724 91.8666 95.8724 92.9566 96.1724C94.0266 96.4624 94.3466 97.0724 94.3466 98.1724C94.3466 99.2724 94.3166 100.332 94.3566 101.412C94.3766 101.972 94.1966 102.112 93.6466 102.112C87.9566 102.062 82.2766 102.032 76.5866 102.022C76.0966 102.022 75.9966 101.842 76.0066 101.402C76.0266 100.362 76.0266 99.3224 76.0066 98.2924C75.9666 96.9424 75.6066 95.6824 74.8566 94.5324C72.5166 90.9524 68.3566 89.9924 64.9466 92.2324C59.5266 95.7924 61.2366 102.722 65.0466 105.002C66.4466 105.842 67.9866 106.102 69.5866 106.082C70.0766 106.082 70.5566 106.082 71.0766 106.082C71.0466 106.252 71.0466 106.322 71.0166 106.362C70.9266 106.502 70.8166 106.632 70.7166 106.752C69.4866 108.182 67.8866 108.922 66.0466 109.092C64.7466 109.212 63.4366 109.172 62.1266 109.202C60.7166 109.242 59.9866 109.982 59.9766 111.382C59.9766 111.732 59.9766 112.092 59.9766 112.442C59.9766 112.996 60.2432 113.272 60.7766 113.272C62.5366 113.272 64.3066 113.222 66.0666 113.272C70.3066 113.422 73.8966 110.472 75.3166 106.582C75.4666 106.162 75.6566 106.052 76.0666 106.062C78.7466 106.072 81.4166 106.062 84.0966 106.062C88.1866 106.062 92.2766 106.062 96.3666 106.062C97.9466 106.062 98.7066 105.292 98.7066 103.732C98.7066 102.152 98.7666 100.572 98.6866 99.0024V99.0224ZM68.8166 101.942C66.9066 101.952 65.4866 100.492 65.4866 98.5224C65.4866 96.5524 66.9166 95.1724 68.7566 95.1724C70.6166 95.1724 72.0866 96.6724 72.0666 98.5724C72.0566 100.432 70.6066 101.932 68.8166 101.952V101.942Z" fill="#57505B"/>
<path d="M164.135 96.9826C165.555 98.7726 165.765 100.973 164.785 103.053C163.835 105.073 162.065 106.073 159.805 106.083C155.405 106.093 151.005 106.003 146.605 106.123C143.825 106.203 141.355 103.353 141.405 100.923C141.495 95.9626 141.425 91.0026 141.445 86.0426C141.445 85.5926 141.535 85.1326 141.685 84.7126C141.865 84.1626 142.305 83.8026 142.885 83.7526C143.585 83.6826 144.295 83.7026 144.995 83.7226C145.115 83.7226 145.275 83.9226 145.315 84.0626C145.375 84.2326 145.335 84.4326 145.335 84.6126V98.7526C145.335 99.0826 145.335 99.4126 145.335 99.7526C145.405 101.363 146.215 102.133 147.815 102.133C151.755 102.133 155.705 102.133 159.645 102.133C161.445 102.133 162.185 100.903 161.265 99.3426C160.825 98.5926 160.265 97.9126 159.715 97.2526C156.545 93.4426 153.355 89.6426 150.185 85.8326C149.555 85.0726 149.615 84.0826 150.385 83.4626C150.815 83.1226 151.325 82.8326 151.835 82.6426C155.615 81.2526 159.395 79.8926 163.185 78.5426C163.925 78.2726 164.675 78.0226 165.435 77.8226C166.685 77.4926 167.545 77.9426 167.995 79.1626C168.195 79.7026 168.315 80.2726 168.485 80.8926C163.915 82.5726 159.435 84.2026 154.855 85.8826C155.055 86.1426 155.185 86.3326 155.335 86.5126C158.265 90.0126 161.275 93.4526 164.115 97.0226L164.135 96.9826Z" fill="#57505B"/>
<path d="M127.505 97.2126C126.745 93.7026 123.675 91.4426 119.945 91.4726C116.645 91.5026 112.355 94.9126 113.025 99.5126C113.145 100.343 113.405 101.153 113.625 102.073C113.415 102.073 113.215 102.103 113.015 102.103C110.985 102.103 108.945 102.103 106.915 102.103C105.025 102.103 104.275 101.363 104.225 99.4826C104.225 99.2926 104.225 99.1126 104.225 98.9226V85.4126C104.225 84.9726 104.255 84.5326 104.205 84.1026C104.185 83.9526 103.965 83.7026 103.835 83.6926C103.195 83.6526 102.545 83.6526 101.905 83.6926C101.225 83.7426 100.735 84.1426 100.525 84.7826C100.395 85.1926 100.335 85.6326 100.335 86.0626C100.325 91.0026 100.395 95.9426 100.305 100.883C100.255 103.363 102.775 106.163 105.505 106.093C110.465 105.973 115.425 106.063 120.385 106.063C125.085 106.063 128.515 101.793 127.515 97.2026L127.505 97.2126ZM120.275 102.103C118.575 102.103 116.975 100.573 116.975 98.9426C116.975 97.0126 118.615 95.2826 120.275 95.4726C122.265 95.4726 123.655 96.8726 123.655 98.8726C123.655 100.693 122.185 102.103 120.275 102.103Z" fill="#57505B"/>
<path d="M57.7956 104.513V106.083H57.0056C46.6956 106.083 36.3756 106.083 26.0656 106.083C25.6356 106.083 25.1956 106.023 24.7856 105.893C23.8556 105.603 23.5256 105.113 23.5156 104.143C23.5156 103.503 23.5156 102.863 23.5156 102.163C23.7856 102.153 24.0056 102.123 24.2256 102.123C34.6256 102.123 45.0256 102.123 55.4156 102.123C57.1656 102.123 57.8056 102.773 57.8056 104.533L57.7956 104.513Z" fill="#57505B"/>
<path d="M137.495 102.383C137.455 106.743 135.395 109.923 131.615 112.003C130.425 112.653 129.115 112.873 127.765 112.883C125.815 112.893 123.865 112.883 121.915 112.893C121.415 112.893 121.245 112.733 121.285 112.243C121.325 111.793 121.285 111.333 121.285 110.873C121.315 109.533 122.065 108.833 123.375 108.783C124.905 108.723 126.455 108.733 127.955 108.483C131.935 107.803 133.455 105.683 133.415 101.873C133.385 99.1525 133.385 96.4325 133.425 93.7225C133.425 93.1925 133.645 92.6325 133.905 92.1625C134.065 91.8825 134.475 91.5925 134.795 91.5625C135.655 91.4825 136.525 91.5325 137.445 91.5325C137.455 91.7925 137.485 92.0125 137.485 92.2325C137.485 95.6125 137.515 99.0025 137.485 102.383H137.495Z" fill="#57505B"/>
<path d="M43.6062 111.303C43.6062 112.943 42.2262 114.293 40.5762 114.283C38.9362 114.283 37.5662 112.893 37.5862 111.253C37.6062 109.593 38.9662 108.253 40.6162 108.263C42.2562 108.273 43.6162 109.653 43.6062 111.293V111.303Z" fill="#57505B"/>
<path d="M95.3158 109.963C95.3258 111.273 94.2658 112.353 92.9658 112.363C91.6358 112.363 90.5658 111.343 90.5358 110.033C90.5058 108.693 91.5758 107.603 92.9258 107.603C94.2458 107.603 95.3058 108.643 95.3258 109.963H95.3158Z" fill="#57505B"/>
<path d="M90.0552 110.013C90.0552 111.313 88.9652 112.373 87.6552 112.373C86.3552 112.373 85.2852 111.303 85.2852 109.993C85.2852 108.653 86.3052 107.623 87.6452 107.603C88.9852 107.593 90.0752 108.673 90.0652 110.013H90.0552Z" fill="#57505B"/>
<path d="M84.7657 110.023C84.7557 111.353 83.7157 112.363 82.3657 112.363C81.0157 112.363 80.0057 111.313 80.0157 109.973C80.0157 108.623 81.0457 107.593 82.3757 107.603C83.7357 107.603 84.7757 108.663 84.7657 110.023Z" fill="#57505B"/>
</g>
<defs>
<clipPath id="clip0_4885_44081">
<rect width="192" height="192" fill="white"/>
</clipPath>
</defs>
</svg>
