<svg width="192" height="192" viewBox="0 0 192 192" fill="none" xmlns="http://www.w3.org/2000/svg">
<g clip-path="url(#clip0_4885_43447)">
<path d="M96 192C149.019 192 192 149.019 192 96C192 42.9807 149.019 0 96 0C42.9807 0 0 42.9807 0 96C0 149.019 42.9807 192 96 192Z" fill="white"/>
<path d="M113.83 134.243C113.83 132.213 113.876 130.183 113.812 128.153C113.776 127.124 113.994 126.678 115.16 126.696C117.718 126.733 117.718 126.669 117.718 129.263C117.718 131.327 118.755 132.358 120.831 132.358C122.172 132.358 122.843 131.688 122.843 130.347C122.843 130.037 122.843 129.719 122.843 129.409C122.843 126.46 122.888 126.441 125.865 126.715C126.438 126.769 126.711 126.906 126.702 127.525C126.684 132.058 126.684 136.582 126.702 141.116C126.702 141.808 126.42 141.971 125.783 142.017C122.843 142.235 122.843 142.254 122.843 139.386C122.843 138.348 122.797 137.301 122.861 136.264C122.952 134.771 121.768 135.071 121.168 135.271C120.03 135.663 118.154 133.97 117.772 136.273C117.526 137.738 117.681 139.286 117.745 140.797C117.79 141.762 117.444 142.035 116.489 142.026C113.84 142.026 113.84 142.072 113.84 139.413C113.84 137.693 113.84 135.972 113.84 134.261L113.83 134.243Z" fill="#C55144"/>
<path d="M91.0443 133.514C93.5294 134.806 94.2031 135.971 93.8116 138.193C93.4657 140.113 91.8818 141.524 89.6424 141.834C87.312 142.152 84.9543 141.925 82.6148 141.998C81.8775 142.016 81.7773 141.615 81.7773 141.015C81.7864 136.581 81.7955 132.157 81.7773 127.724C81.7773 126.959 82.0777 126.732 82.7969 126.75C84.6721 126.777 86.5474 126.741 88.4226 126.777C90.1431 126.814 91.8636 127.041 92.6009 128.88C93.3474 130.764 92.7102 132.339 91.0534 133.523L91.0443 133.514ZM85.5369 136.663C85.6462 138.038 85.1 139.258 86.957 139.121C89.0325 138.966 89.9246 138.511 89.9519 137.173C89.9701 135.853 89.1417 135.434 87.13 135.271C85.5369 135.143 85.4186 135.926 85.5369 136.663ZM85.5915 131.256C85.4732 132.121 85.4732 132.858 86.784 132.74C87.9037 132.64 88.9688 132.494 88.987 131.12C89.0052 129.681 87.9037 129.636 86.8023 129.536C85.3184 129.399 85.5642 130.355 85.5915 131.256Z" fill="#C55144"/>
<path d="M131.271 134.298C131.307 131.303 132.181 128.636 135.03 127.261C137.707 125.968 140.538 125.996 143.05 127.789C145.981 129.874 146.282 133.014 145.845 136.218C145.453 139.05 143.951 141.207 141.066 142.008C138.116 142.836 135.358 142.454 133.164 140.087C131.653 138.467 131.243 136.437 131.271 134.289V134.298ZM141.985 134.525C142.022 133.369 141.894 132.25 141.393 131.184C140.838 129.983 139.928 129.318 138.59 129.309C137.306 129.3 136.378 129.965 135.895 131.093C134.967 133.287 134.93 135.536 135.913 137.739C136.432 138.895 137.379 139.487 138.635 139.468C139.891 139.459 140.802 138.813 141.366 137.702C141.867 136.701 142.012 135.627 141.976 134.525H141.985Z" fill="#C55144"/>
<path d="M43.1549 126.724C41.5072 128.881 40.1418 130.784 38.6489 132.586C37.9297 133.451 37.866 134.07 38.5578 134.999C40.1782 137.202 41.6802 139.496 43.4007 141.99C41.8805 141.99 40.6424 141.972 39.4044 141.99C38.7672 142.008 38.4941 141.58 38.2028 141.143C37.247 139.714 36.3094 138.276 35.3262 136.856C35.1169 136.555 35.0076 135.954 34.4614 136.173C34.0609 136.337 33.9243 136.792 33.9243 137.229C33.9243 138.476 33.8879 139.732 33.9243 140.979C33.9517 141.717 33.6968 141.953 32.9503 141.999C30.0282 142.172 30.0282 142.199 30.0282 139.304C30.0282 135.599 30.0737 131.894 30.0009 128.199C29.9827 127.07 30.2285 126.505 31.4483 126.706C31.8033 126.76 32.1857 126.76 32.5407 126.706C33.633 126.551 33.9972 126.979 33.9335 128.08C33.8424 129.664 33.9061 131.266 34.2065 132.969C35.2807 131.476 36.455 130.028 37.4108 128.463C38.2301 127.106 39.2315 126.451 40.8245 126.697C41.4708 126.797 42.1536 126.715 43.1458 126.715L43.1549 126.724Z" fill="#C55144"/>
<path d="M59.6479 134.445C59.6479 136.53 59.5933 138.614 59.6661 140.699C59.7025 141.728 59.393 142.037 58.3644 142.028C55.8064 142.01 55.8064 142.064 55.8155 139.461C55.8155 139.251 55.8155 139.042 55.8155 138.833C55.8337 135 55.2875 134.572 51.3732 135.201C50.5994 135.319 50.6359 135.756 50.6359 136.293C50.6359 137.804 50.5994 139.315 50.6541 140.826C50.6814 141.673 50.4629 142.01 49.5344 142.028C46.8126 142.092 46.8217 142.137 46.8217 139.461C46.8217 135.71 46.8763 131.96 46.7944 128.209C46.767 127.008 47.1403 126.598 48.2873 126.762C48.7515 126.826 49.2249 126.808 49.6891 126.762C50.472 126.689 50.6996 127.072 50.645 127.782C50.6177 128.146 50.6177 128.51 50.645 128.874C50.7451 129.994 50.1079 131.596 50.9363 132.142C52.0924 132.907 53.7582 132.351 55.2056 132.379C55.8975 132.388 55.8337 131.851 55.8337 131.368C55.8337 130.221 55.8883 129.074 55.8246 127.927C55.7791 127.062 56.034 126.762 56.9443 126.744C59.6661 126.689 59.6661 126.644 59.6661 129.293C59.6661 131.013 59.6661 132.734 59.6661 134.445H59.6479Z" fill="#C55144"/>
<path d="M97.5564 137.485C98.8399 138.168 99.7685 138.851 100.888 139.151C101.853 139.406 102.818 139.57 103.81 139.424C104.657 139.306 105.558 139.151 105.676 138.113C105.813 136.948 104.866 136.684 103.992 136.438C102.891 136.138 101.762 135.919 100.688 135.528C98.8035 134.854 97.6656 133.525 97.6383 131.441C97.611 129.456 98.6215 128.045 100.351 127.235C103.009 125.997 105.731 126.361 108.426 127.208C108.972 127.381 109.09 127.772 109.072 128.3C109.045 129.128 109.072 129.948 109.072 130.967C108.207 130.549 107.488 130.166 106.751 129.848C105.531 129.32 104.256 129.083 102.945 129.483C102.281 129.684 101.616 130.002 101.607 130.813C101.589 131.614 102.199 131.978 102.891 132.169C103.992 132.469 105.112 132.706 106.195 133.07C108.68 133.898 109.682 135.136 109.682 137.267C109.682 139.397 108.38 141.145 106.15 141.891C103.51 142.774 100.915 142.428 98.3484 141.527C97.7931 141.336 97.5018 141.017 97.5382 140.38C97.5837 139.506 97.5473 138.632 97.5473 137.494L97.5564 137.485Z" fill="#C55144"/>
<path d="M70.7474 126.787C72.5043 126.268 73.014 127.261 73.4692 128.681C74.7345 132.695 76.0909 136.691 77.511 140.66C77.957 141.907 77.5474 142.108 76.4641 141.998C76.1 141.962 75.7268 141.944 75.3717 141.998C74.2703 142.19 73.6877 141.707 73.5602 140.642C73.3964 139.249 72.6772 138.648 71.2571 138.894C70.802 138.976 70.3104 138.976 69.8553 138.894C68.5262 138.658 68.0164 139.313 67.7433 140.506C67.4703 141.744 64.8668 142.617 63.8745 141.898C63.5286 141.643 63.6925 141.334 63.7835 141.061C65.3037 136.527 66.8239 131.985 68.3715 127.461C68.8266 126.123 70.0009 127.042 70.7474 126.778V126.787ZM70.6381 131.093C70.2467 132.358 69.9554 133.269 69.6914 134.188C69.1088 136.2 69.1088 136.145 71.1297 136.109C72.0764 136.091 72.1402 135.772 71.8671 134.998C71.4574 133.842 71.1297 132.659 70.6381 131.093Z" fill="#C55144"/>
<path d="M150.537 134.38C150.537 132.195 150.564 130.01 150.528 127.825C150.519 127.042 150.746 126.706 151.584 126.733C153.559 126.788 155.534 126.715 157.51 126.788C159.986 126.879 161.834 128.308 161.961 130.101C162.234 134.061 161.087 136.109 158.192 136.755C157.637 136.883 157.045 137.029 156.499 136.947C154.761 136.692 154.123 137.384 154.424 139.077C154.487 139.432 154.378 139.814 154.442 140.169C154.715 141.735 154.005 142.108 152.548 142.017C150.555 141.899 150.546 141.99 150.546 139.987C150.546 138.112 150.546 136.246 150.546 134.37L150.537 134.38ZM154.351 131.776C154.952 132.459 153.386 134.152 155.571 134.097C157.455 134.052 158.347 133.305 158.311 131.685C158.274 130.247 157.419 129.628 155.634 129.555C153.641 129.473 154.77 130.975 154.36 131.776H154.351Z" fill="#C55144"/>
<path d="M92.7749 110.358C98.3806 110.358 102.925 105.813 102.925 100.208C102.925 94.6019 98.3806 90.0576 92.7749 90.0576C87.1693 90.0576 82.625 94.6019 82.625 100.208C82.625 105.813 87.1693 110.358 92.7749 110.358Z" fill="#E12126"/>
<path d="M124.518 70.2772C124.518 82.6939 116.388 94.0272 104.682 98.0326C104.19 95.3563 102.816 92.9075 100.74 91.096C98.865 89.4575 96.4891 88.4288 94.0131 88.1739C94.0131 88.1375 94.004 88.092 93.9949 88.0556C93.9949 88.0374 93.9949 88.0192 93.9857 87.9737C93.5397 81.7562 94.0768 75.9667 97.0444 70.3501C99.3111 66.0625 102.643 62.3757 106.685 59.6903C110.717 57.014 115.387 55.3846 120.212 54.9658C123.025 59.5629 124.518 64.8518 124.518 70.2681V70.2772Z" fill="#76B72F"/>
<path d="M79.5857 75.7482C79.8133 81.0644 81.9525 85.9346 84.2738 90.6409C84.3466 90.7865 84.4194 90.9504 84.4103 91.1143C84.4012 91.3054 84.2829 91.4602 84.1736 91.6149C83.3544 92.7073 82.5442 93.8088 81.7249 94.9011C75.4347 91.4147 70.61 85.3793 68.58 78.4701C66.5591 71.5699 67.3602 63.8778 70.7648 57.542C70.9013 57.2871 71.0561 57.0141 71.311 56.8775C71.5658 56.741 71.8845 56.741 72.1758 56.7592C75.9262 56.9594 79.6312 57.8971 83.0357 59.4901C82.6898 59.3262 80.4778 66.5996 80.3321 67.2641C79.7586 69.8494 79.5493 72.4347 79.5493 75.0746C79.5493 75.1929 79.5584 75.3022 79.5675 75.4023C79.5675 75.5115 79.5766 75.6117 79.5857 75.7209" fill="#E12126"/>
<path d="M85.3417 59.3897C87.7085 55.4844 90.7581 52.1163 94.5996 49.5947C98.6596 51.7522 102.182 54.8654 104.813 58.6341C104.431 58.8981 104.058 59.1803 103.703 59.4716C103.575 59.5717 103.448 59.6628 103.329 59.7629C95.5736 66.0531 91.1222 76.1849 91.8414 86.1528C91.8778 86.617 91.9051 87.0904 91.9779 87.5546V87.5911C91.9961 87.7549 92.0234 87.9188 92.0416 88.0735C92.0416 88.0917 92.0416 88.1099 92.0416 88.1281C89.9934 88.2465 88.0363 88.8837 86.3158 89.967C83.1297 84.8692 81.3546 79.0797 81.5093 73.0443C81.5731 70.6684 81.919 68.3016 82.5562 66.0076C83.1934 63.7227 84.3131 61.5926 85.2962 59.4443L85.3326 59.3806L85.3417 59.3897Z" fill="#4574CB"/>
</g>
<defs>
<clipPath id="clip0_4885_43447">
<rect width="192" height="192" fill="white"/>
</clipPath>
</defs>
</svg>
