<svg width="192" height="192" viewBox="0 0 192 192" fill="none" xmlns="http://www.w3.org/2000/svg">
<g clip-path="url(#clip0_4885_43513)">
<path d="M96 192C149.019 192 192 149.019 192 96C192 42.9807 149.019 0 96 0C42.9807 0 0 42.9807 0 96C0 149.019 42.9807 192 96 192Z" fill="white"/>
<path d="M91.6384 43.6922C92.9033 42.5081 93.9888 41.0996 95.4241 40.1038C96.2046 39.7271 96.7518 40.4627 97.2721 40.9202C113.169 56.8167 129.074 72.7133 144.998 88.5739C145.482 89.0673 145.966 89.6145 145.85 90.3591C145.895 109.324 145.895 128.279 145.913 147.235C147.124 147.253 148.326 147.289 149.537 147.361C149.349 147.639 148.972 148.195 148.783 148.464C135.21 148.473 121.637 148.464 108.055 148.464C108.073 148.159 108.1 147.558 108.118 147.262C120.327 147.244 132.528 147.307 144.737 147.226C144.791 129.078 144.737 110.93 144.827 92.7902C144.809 91.8483 144.881 90.9063 144.711 89.9823C144.262 89.3903 143.724 88.8699 143.212 88.3496C127.37 72.6235 111.671 56.745 95.8009 41.0548C91.8806 44.9482 87.9603 48.8416 84.0759 52.7708C83.0442 53.7666 82.0843 55.1481 80.4785 55.0584C83.9413 51.0305 87.9424 47.5139 91.6204 43.6922H91.6384Z" fill="#692929"/>
<path d="M78.3529 45.1187C79.9498 46.8949 79.5909 49.5324 78.8643 51.6047C78.1735 53.363 77.6442 55.2469 77.8954 57.1577C78.5055 57.4806 79.1244 57.7587 79.7524 58.0368C79.4923 60.1629 80.5239 62.8453 78.7028 64.4869C77.0073 66.1555 75.3656 67.869 73.5983 69.4569C73.5176 66.4157 73.5894 63.3745 73.5714 60.3334C72.8538 60.3154 72.145 60.2975 71.4453 60.2885C71.4633 59.3376 71.4812 58.3867 71.5081 57.4358H73.5445C73.2305 54.2959 74.5672 51.3893 75.6168 48.5186C75.7962 51.0395 74.5224 53.2912 74.0917 55.7044C73.7957 56.6732 74.8274 57.2025 75.3208 57.8574C74.935 54.5202 77.0073 51.6047 76.9086 48.3033C76.9625 47.8548 77.0701 46.9577 77.1239 46.5092C77.7429 48.4289 77.6173 50.5461 76.783 52.3851C76.0115 54.1255 75.3836 56.2965 76.6844 57.9651C77.6891 56.6374 77.3123 54.9508 77.5725 53.4258C77.9044 52.1609 78.4427 50.9587 78.8374 49.7118C79.2142 48.1688 78.6131 46.6437 78.3709 45.1276L78.3529 45.1187Z" fill="#692929"/>
<path d="M95.2932 49.7924C96.5043 50.5459 98.2536 51.4789 98.0563 53.1565C98.0473 66.1105 98.0204 79.0646 98.0742 92.0097C107.458 92.0455 116.832 92.0455 126.216 92.0097C123.211 88.2688 119.47 85.1917 116.178 81.6931C113.872 79.4324 111.728 77.0013 109.216 74.9559C109.117 77.7279 109.18 80.4999 109.171 83.2719C108.059 83.2899 106.946 83.2989 105.834 83.2989C105.861 79.4862 105.78 75.6646 105.861 71.8519C107.305 71.2419 109.091 71.6097 110.66 71.6366C111.755 72.453 112.652 73.5116 113.63 74.4625C119.658 80.4999 125.669 86.5374 131.724 92.5389C132.433 93.2207 132.944 94.064 133.438 94.9073C131.563 95.6788 129.526 95.3917 127.553 95.4276C116.68 95.4366 105.816 95.4097 94.9434 95.4635C94.8985 81.0382 94.9613 66.6129 94.9164 52.1876C94.8895 51.3623 95.0959 50.5728 95.2932 49.7744V49.7924Z" fill="#692929"/>
<path d="M90.0949 57.0766C89.7809 54.9864 91.9699 53.9009 93.1181 52.4924C93.2617 66.1014 93.1181 79.7193 93.1899 93.3372C93.2079 94.5393 93.4321 95.7324 93.5936 96.9256C107.247 96.9076 120.901 96.9884 134.555 96.9525C134.582 95.7773 134.743 94.5752 134.519 93.4C132.788 91.1662 130.581 89.363 128.652 87.3177C122.821 81.666 117.187 75.79 111.338 70.1742C109.024 69.9051 106.682 70.1114 104.359 70.0845C104.314 74.4982 104.35 78.9119 104.341 83.3256C103.219 83.2359 102.008 83.514 100.95 83.0654C100.887 77.8174 100.959 72.5515 100.914 67.2945C101.066 67.142 101.389 66.837 101.551 66.6845C105.023 66.6665 108.494 66.6755 111.957 66.6845C112.675 66.5768 113.168 67.1779 113.635 67.6085C121.457 75.4401 129.28 83.2718 137.112 91.0944C137.435 91.534 138.045 91.8839 138.018 92.4849C138.107 94.9878 137.991 97.4907 138.063 100.003C134.232 100.065 130.392 99.8501 126.58 100.272C114.415 100.335 102.251 100.263 90.086 100.326C90.086 85.9092 90.1667 71.4929 90.0949 57.0766Z" fill="#692929"/>
<path d="M100.95 55.0334C103.991 57.8861 106.871 60.9094 109.84 63.8249C106.871 63.798 103.892 63.807 100.914 63.807C100.959 60.8824 100.887 57.9489 100.95 55.0244V55.0334Z" fill="#692929"/>
<path d="M84.7875 61.2295C85.3885 59.7851 86.9315 58.8701 88.0529 57.8115C88.1426 71.4474 88.026 85.0922 88.1336 98.737C88.313 99.4726 87.8645 100.433 87.0033 100.325C79.7278 100.334 72.4524 100.334 65.168 100.325C65.0962 97.6784 65.168 95.023 65.1052 92.3766C63.8941 93.5339 62.2165 94.5655 61.9295 96.3328C61.8128 99.3201 61.9653 102.316 61.8667 105.304C60.8081 105.295 59.7495 105.286 58.6999 105.277C58.8255 101.392 58.4667 97.4542 58.8614 93.5966C62.0192 90.385 65.1859 87.1645 68.4962 84.1054C68.6577 88.3666 68.4334 92.6278 68.6487 96.889C73.9864 96.88 79.3152 96.9249 84.6439 96.871C84.8861 84.9935 84.6439 73.107 84.7875 61.2295Z" fill="#692929"/>
<path d="M79.8777 65.9325C80.8286 64.6407 82.0577 63.5911 83.2329 62.5056C83.2598 73.495 83.2418 84.4755 83.2508 95.4649C78.8371 95.4828 74.4324 95.4559 70.0276 95.4828C69.911 90.5309 70.1622 85.5879 69.9828 80.6359C66.0714 84.0808 62.6086 88.0011 58.8498 91.5984C58.2757 92.2981 57.2709 92.8274 57.3068 93.8501C57.2261 97.6359 57.3247 101.44 57.2709 105.234C56.1495 105.261 55.0192 105.279 53.8978 105.306C53.2968 101.987 53.7005 98.6047 53.5749 95.2586C53.6377 93.8411 53.216 92.1277 54.463 91.096C60.6978 84.942 66.8519 78.7072 73.1136 72.58C73.1854 77.209 73.0598 81.829 73.1674 86.4581C73.4007 88.2971 73.5083 90.1451 73.5532 91.9931C75.6345 91.9752 77.7157 91.9931 79.797 91.9752C79.9136 83.2913 79.7432 74.6074 79.8867 65.9235L79.8777 65.9325Z" fill="#692929"/>
<path d="M68.8983 66.3962C69.625 65.6695 70.4413 65.0595 71.2936 64.4854C70.549 66.7729 68.5574 68.2173 66.9516 69.8769C60.6002 76.2373 54.1949 82.5529 47.9422 89.0119C46.7042 90.0885 47.1438 91.8378 47.063 93.2731C47.0989 111.269 47.063 129.265 47.081 147.26C52.2662 147.278 57.4604 147.287 62.6456 147.26C62.6815 147.61 62.7443 148.328 62.7801 148.687C56.0071 148.758 49.234 148.687 42.4609 148.723V147.287C43.5554 147.278 44.6588 147.26 45.7533 147.251C45.7712 128.43 45.7533 109.618 45.7622 90.7972C45.6636 89.7206 46.3274 88.8235 47.072 88.1238C54.4013 80.9291 61.6408 73.6537 68.8983 66.3872V66.3962Z" fill="#692929"/>
<path d="M71.4287 103.204C72.577 103.204 73.7253 103.222 74.8736 103.249C74.8736 108.201 74.8736 113.144 74.8825 118.096C69.0335 118.203 63.1755 118.087 57.3264 118.158C57.2367 125.102 57.2457 132.037 57.3264 138.98C64.8261 139.052 72.3348 138.944 79.8345 139.034C79.7986 140.182 79.6999 141.321 79.4846 142.434C70.8456 142.335 62.2156 142.524 53.5765 142.344C53.5765 133.23 53.6034 124.124 53.5586 115.01C55.5322 114.507 57.5686 114.714 59.5781 114.687C63.4625 114.687 67.3469 114.705 71.2403 114.678C71.644 110.865 71.339 107.034 71.4377 103.213L71.4287 103.204Z" fill="#692929"/>
<path d="M76.0553 103.26C77.2933 103.224 78.5402 103.224 79.7782 103.26C79.7334 109.925 79.7961 116.591 79.7423 123.256C73.8753 123.274 68.0173 123.238 62.1503 123.274C62.1413 126.782 62.1503 130.289 62.1503 133.797C67.9007 133.842 73.651 133.824 79.3925 133.806C79.6616 135.026 79.7962 136.264 79.832 137.511C72.7809 137.628 65.7387 137.538 58.6875 137.556C58.7144 131.554 58.6785 125.553 58.7054 119.551C64.4827 119.533 70.269 119.578 76.0463 119.533C76.0822 114.106 76.0732 108.687 76.0553 103.26Z" fill="#692929"/>
<path d="M81.8011 103.213C82.9314 103.213 84.0707 103.222 85.219 103.249C85.2369 115.153 85.1383 127.067 85.2639 138.98C91.1219 138.998 96.9709 139.007 102.829 138.98C102.946 130.87 102.802 122.761 102.901 114.651C104.058 114.633 105.215 114.696 106.337 114.965C106.238 124.106 106.328 133.257 106.292 142.398C98.1461 142.407 89.9915 142.398 81.8369 142.407C81.7921 129.336 81.7921 116.275 81.81 103.204L81.8011 103.213Z" fill="#692929"/>
<path d="M86.623 103.215C87.7982 103.215 88.9734 103.224 90.1576 103.251C90.1576 113.522 90.1217 123.803 90.1755 134.075C92.7502 134.093 95.3338 134.093 97.9175 134.066C97.9175 127.697 97.9085 121.318 97.9175 114.94C99.0927 114.922 100.268 114.913 101.452 114.931C101.443 122.467 101.488 130.002 101.425 137.547C96.4911 137.565 91.5571 137.565 86.623 137.547C86.623 126.1 86.623 114.662 86.623 103.215Z" fill="#692929"/>
<path d="M129.443 114.276C130.654 114.258 131.865 114.258 133.085 114.249C133.184 122.018 133.094 129.786 133.13 137.555C131.228 137.582 129.317 137.573 127.415 137.537C127.469 136.461 127.236 135.304 127.657 134.281C128.25 134.057 128.851 133.859 129.452 133.671C129.371 127.203 129.407 120.744 129.434 114.276H129.443Z" fill="#692929"/>
<path d="M134.304 114.636C135.542 114.537 136.78 114.456 138.009 114.214C138.153 123.616 138.054 133.017 138.054 142.41C134.591 142.419 131.137 142.392 127.675 142.428C127.361 141.199 127.441 139.943 127.818 138.732C129.971 138.75 132.133 138.759 134.295 138.723C134.349 130.694 134.313 122.665 134.313 114.636H134.304Z" fill="#692929"/>
<path d="M108.394 114.608C114.072 114.429 119.76 114.608 125.439 114.51C125.421 123.812 125.465 133.124 125.412 142.427C119.868 142.418 114.324 142.4 108.779 142.436C108.726 141.315 108.672 140.193 108.51 139.072C112.96 138.884 117.419 139.072 121.877 138.964C122.021 131.949 121.868 124.934 121.94 117.918C118.97 117.255 115.867 117.658 112.834 117.605C112.655 117.748 112.305 118.026 112.126 118.17C112.054 121.543 112.099 124.925 112.126 128.307C114.916 128.379 117.697 128.325 120.487 128.334C120.531 131.411 120.487 134.488 120.513 137.565C116.575 137.565 112.628 137.565 108.681 137.565C108.681 136.408 108.69 135.25 108.699 134.093C111.471 134.093 114.243 134.102 117.015 134.093C117.042 133.259 117.06 132.433 117.087 131.608C114.189 131.456 111.22 131.922 108.385 131.178C108.412 125.66 108.421 120.125 108.385 114.608H108.394Z" fill="#692929"/>
<path d="M113.559 118.985C114.519 118.985 115.478 118.985 116.438 119.003C116.456 120.124 116.438 121.254 116.402 122.385C115.461 122.385 114.519 122.385 113.577 122.385C113.541 121.254 113.541 120.124 113.559 118.994V118.985Z" fill="#692929"/>
<path d="M117.909 118.968C118.779 118.968 119.649 118.977 120.519 118.986C120.537 120.117 120.537 121.256 120.501 122.386C119.64 122.386 118.77 122.395 117.909 122.404C117.882 121.256 117.882 120.108 117.909 118.968Z" fill="#692929"/>
<path d="M113.535 123.793C114.495 123.793 115.464 123.811 116.433 123.829C116.442 124.852 116.451 125.866 116.451 126.888C115.482 126.906 114.504 126.924 113.535 126.924C113.535 125.875 113.535 124.834 113.544 123.793H113.535Z" fill="#692929"/>
<path d="M117.901 123.784C118.78 123.784 119.65 123.802 120.529 123.811C120.538 124.843 120.547 125.875 120.547 126.906C119.659 126.924 118.771 126.942 117.883 126.951C117.883 125.893 117.883 124.834 117.901 123.784Z" fill="#692929"/>
<path d="M64.7206 144.042C69.87 144.042 75.0103 144.06 80.1596 144.024C82.4024 143.683 83.6314 145.935 85.0488 147.254C78.2578 147.388 71.4668 147.281 64.6758 147.317C64.6758 146.222 64.6937 145.137 64.7206 144.051V144.042Z" fill="#692929"/>
<path d="M85.375 147.26C86.3259 146.237 87.2051 145.098 88.3803 144.308C94.0589 144.21 99.7465 144.308 105.434 144.272C105.434 145.286 105.434 146.3 105.425 147.314C98.7417 147.287 92.0584 147.385 85.375 147.26Z" fill="#692929"/>
<path d="M65.1016 148.753C71.6773 148.736 78.253 148.664 84.8287 148.798C83.7701 149.911 82.6936 150.996 81.5363 152.001H65.1554C65.1285 150.924 65.1195 149.839 65.1016 148.762V148.753Z" fill="#692929"/>
<path d="M85.3242 148.831C92.1332 148.652 98.9511 148.733 105.769 148.777C105.742 149.845 105.724 150.922 105.679 151.998H88.6704C87.4862 151.011 86.4097 149.917 85.3242 148.831Z" fill="#692929"/>
</g>
<defs>
<clipPath id="clip0_4885_43513">
<rect width="192" height="192" fill="white"/>
</clipPath>
</defs>
</svg>
