<svg width="192" height="192" viewBox="0 0 192 192" fill="none" xmlns="http://www.w3.org/2000/svg">
<g clip-path="url(#clip0_4885_43306)">
<path d="M96 192C149.019 192 192 149.019 192 96C192 42.9807 149.019 0 96 0C42.9807 0 0 42.9807 0 96C0 149.019 42.9807 192 96 192Z" fill="#F9D713"/>
<path d="M131.4 36.8101C134.91 50.5101 138.35 63.9401 141.84 77.5801H77.55C76.67 68.7201 76.51 59.5401 67.75 53.1101C89.25 47.6001 110.21 42.2301 131.4 36.8101ZM112.37 56.4901C112.37 54.0567 111.253 52.8367 109.02 52.8301C106.467 52.8301 105.19 54.0167 105.19 56.3901C105.19 58.7634 106.347 59.9734 108.66 60.0201C111.127 60.0201 112.363 58.8434 112.37 56.4901ZM116.99 60.0201C119.53 60.0201 120.803 58.9101 120.81 56.6901C120.817 54.1234 119.63 52.8367 117.25 52.8301C114.843 52.8301 113.637 54.0034 113.63 56.3501C113.63 58.7901 114.75 60.0101 116.99 60.0101V60.0201ZM108.91 68.4401C111.217 68.4401 112.37 67.2234 112.37 64.7901C112.37 62.4434 111.19 61.2701 108.83 61.2701C106.403 61.2701 105.19 62.5167 105.19 65.0101C105.19 67.3034 106.43 68.4467 108.91 68.4401ZM113.62 64.7801C113.62 67.2267 114.763 68.4501 117.05 68.4501C120.77 68.4501 120.79 68.4401 120.8 65.0201C120.8 62.5201 119.597 61.2701 117.19 61.2701C114.81 61.2701 113.62 62.4401 113.62 64.7801Z" fill="#0158A7"/>
<path d="M77.6206 81.11C78.5406 81.07 79.3406 81 80.1506 81C98.1206 81 116.091 81.02 134.061 80.95C135.961 80.95 136.781 81.44 137.251 83.37C139.451 92.44 141.821 101.46 144.131 110.5C144.251 110.96 144.321 111.43 144.461 112.14H127.561C127.561 111.06 127.571 109.94 127.561 108.82C127.491 102.67 122.911 98.78 116.991 100.41C111.921 101.81 107.111 104.12 102.091 105.74C98.1006 107.03 94.0206 108.32 89.8906 108.82C84.0506 109.52 79.0606 107.38 78.5206 100.48C78.0706 94.72 77.7606 88.96 77.4106 83.19C77.3706 82.55 77.5306 81.91 77.6206 81.1V81.11Z" fill="#0158A7"/>
<path d="M35.4494 81C44.5294 81 53.4494 80.96 62.3794 81.08C62.9894 81.08 63.9694 82.21 64.1194 82.94C65.4594 89.55 66.7594 96.18 67.8594 102.84C68.3494 105.83 68.3394 108.9 68.5694 112.17C67.3794 112.24 66.4994 112.34 65.6094 112.34C58.8294 112.35 52.0394 112.34 45.2494 112.34C44.0794 112.34 43.0894 112.43 42.6794 110.79C40.2894 101.18 37.7694 91.6 35.2994 82.01C35.2394 81.79 35.3594 81.53 35.4494 80.97V81Z" fill="#0158A7"/>
<path d="M50.0491 115.74C51.2791 115.69 52.1591 115.62 53.0491 115.61C56.6091 115.6 60.1791 115.81 63.7191 115.55C67.2291 115.28 69.7391 115.78 71.0991 119.65C71.7491 121.5 73.7491 122.98 75.3691 124.35C76.4991 125.3 77.0991 126.15 76.8591 127.66C75.6191 135.58 74.4891 143.51 73.1891 151.42C73.0691 152.14 72.1191 153.02 71.3691 153.28C69.0291 154.07 66.6191 154.64 64.2091 155.23C60.5291 156.13 60.3191 156 59.3991 152.43C56.6591 141.8 53.9391 131.16 51.2191 120.52C50.8391 119.02 50.4791 117.52 50.0391 115.75L50.0491 115.74Z" fill="#0158A7"/>
<path d="M76.6799 152.04C78.4899 145.1 80.1199 138.89 81.7499 132.68C81.9199 132.04 82.2199 131.43 82.3099 130.78C82.6199 128.61 83.6599 128.16 85.8799 128.4C95.6099 129.44 105.32 129.31 114.87 126.89C116.41 126.5 117.03 127 117.5 128.23C119 132.16 120.5 136.09 122.17 140.45C107.16 144.27 92.2899 148.06 76.6699 152.04H76.6799Z" fill="#0158A7"/>
<path d="M139.091 115.61C142.481 115.61 145.871 115.69 149.261 115.58C150.911 115.53 151.791 115.91 152.171 117.7C152.971 121.49 153.951 125.25 155.021 128.97C155.631 131.1 154.621 132.27 152.911 132.72C144.291 134.96 135.641 137.08 126.981 139.15C126.511 139.26 125.451 138.59 125.311 138.09C124.071 133.81 122.901 129.51 121.891 125.17C121.701 124.37 122.021 122.88 122.591 122.56C125.631 120.83 124.511 114.93 129.921 115.55C132.941 115.9 136.031 115.61 139.091 115.61Z" fill="#0158A7"/>
<path d="M40.3699 77.57C38.9699 72.15 37.5999 66.82 36.1699 61.26C41.5999 59.86 46.8399 58.5 52.6899 56.99C55.9899 63.65 59.3299 70.38 62.8999 77.57H40.3799H40.3699Z" fill="#0158A7"/>
<path d="M96 168.5C56.02 168.5 23.5 135.98 23.5 96C23.5 56.02 56.02 23.5 96 23.5C135.98 23.5 168.5 56.02 168.5 96C168.5 135.98 135.98 168.5 96 168.5ZM96 25.99C57.4 25.99 25.99 57.39 25.99 96C25.99 134.61 57.39 166.01 96 166.01C134.61 166.01 166.01 134.61 166.01 96C166.01 57.39 134.6 25.99 96 25.99Z" fill="#0158A7"/>
</g>
<defs>
<clipPath id="clip0_4885_43306">
<rect width="192" height="192" fill="white"/>
</clipPath>
</defs>
</svg>
