<svg width="192" height="192" viewBox="0 0 192 192" fill="none" xmlns="http://www.w3.org/2000/svg">
<g clip-path="url(#clip0_4885_42888)">
<path d="M96 192C149.019 192 192 149.019 192 96C192 42.9807 149.019 0 96 0C42.9807 0 0 42.9807 0 96C0 149.019 42.9807 192 96 192Z" fill="white"/>
<path d="M162 85.1025C150.474 83.7915 139.668 79.1575 129.08 74.651C128.67 74.4143 127.841 73.9409 127.432 73.7042C127.45 66.6941 127.568 59.6748 127.377 52.6647C127.587 51.0715 127.605 49.4691 127.678 47.8668C121.359 47.3843 115.014 47.8486 108.687 47.7029C108.796 52.9105 108.614 58.1271 108.823 63.3255C102.459 59.0102 96.0501 54.6494 90.5785 49.196C89.049 47.6574 87.3557 46.1553 86.6456 44.0249C83.5684 48.6862 79.5808 52.6191 75.8936 56.7797C63.412 68.7698 48.6816 78.6841 32.1941 84.2103C31.4384 84.183 30.7192 84.5107 30 84.6655C31.4384 84.8203 32.886 84.8021 34.3244 84.8021C33.1136 85.3574 31.9483 86.0038 30.8376 86.7412C42.1357 85.3483 53.0879 81.6429 63.1479 76.3717C71.3598 72.1383 79.2804 66.9672 85.4711 60.0572C96.9332 73.2581 112.956 81.124 128.779 87.8155C134.633 90.2099 140.605 92.3766 146.778 93.7514C151.785 91.4298 156.756 89.0263 161.936 87.1236C161.326 86.9415 160.115 86.5682 159.515 86.3862C160.334 85.9674 161.172 85.5486 161.991 85.1207L162 85.1025Z" fill="#46499B"/>
<path d="M70.3304 93.7872C70.3304 93.0771 70.3304 92.367 70.3122 91.6478C66.6979 91.3018 62.7832 92.6765 61.0625 96.0997C63.7664 94.0513 67.053 93.6325 70.3213 93.7872H70.3304Z" fill="#A134DD"/>
<path d="M132.794 99.7601C135.406 102.51 140.386 99.0591 139.03 95.6451C138.438 93.3964 135.871 92.4223 133.777 93.1142C131.1 94.0701 130.281 98.1214 132.803 99.751L132.794 99.7601Z" fill="#A134DD"/>
<path d="M112.954 97.0381C112.226 95.7908 111.762 94.2067 110.387 93.4966C108.557 92.4132 106.099 93.36 105.152 95.1717C103.541 97.5115 105.644 101.017 108.439 100.889C110.842 101.199 112.226 98.9772 112.954 97.0381Z" fill="#A134DD"/>
<path d="M114.823 114.945C116.607 116.793 119.43 116.047 121.715 116.183C120.713 119.306 117.026 118.769 114.459 118.769C114.249 120.362 113.394 122.693 114.932 123.813C118.201 124.368 122.07 124.058 124.446 121.464C125.894 120.034 126.385 118.013 126.959 116.138C133.122 116.138 139.304 116.356 145.458 116.065C146.769 114.918 146.068 112.997 146.305 111.486C145.267 110.839 144.074 110.675 142.882 110.694C143.337 106.797 141.48 102.637 137.783 101.016C135.617 102.045 133.25 101.489 131.374 100.115C129.672 101.417 129.098 104.284 131.001 105.677C132.84 106.087 134.988 105.295 136.6 106.497C138.057 107.389 137.319 109.346 137.501 110.739C133.923 110.712 130.345 110.712 126.777 110.739C126.777 108.245 127.013 105.732 126.622 103.256C126.13 101.38 124.273 100.178 122.361 100.279C120.012 100.324 117.39 99.787 115.278 101.08C113.111 102.791 113.703 105.732 113.667 108.126C113.803 110.393 113.048 113.079 114.814 114.918L114.823 114.945ZM121.414 105.641C121.396 107.343 121.396 109.055 121.414 110.767H119.065C119.084 109.055 119.084 107.343 119.047 105.641C119.839 105.641 120.622 105.641 121.423 105.641H121.414Z" fill="#46499B"/>
<path d="M62.5989 116.111C77.3748 116.266 92.1599 116.184 106.936 116.156C109.485 116.411 111.397 113.999 111.433 111.632C111.597 108.208 111.406 104.767 111.506 101.344C109.64 101.79 107.719 101.863 105.871 101.308C105.916 104.449 105.852 107.599 105.98 110.739C97.1307 110.667 88.2815 110.812 79.4324 110.667C79.3322 108.6 79.9422 106.215 78.5857 104.43C77.7845 103.201 76.2095 102.928 74.8439 102.919C71.093 102.864 67.3239 102.955 63.5731 102.919C64.5381 100.06 67.8065 100.506 70.1826 100.707C71.5664 99.3229 71.9397 96.1456 69.9641 95.1714C66.1768 94.6343 61.6885 95.7177 59.6856 99.2592C58.1652 101.526 58.6296 104.357 58.3473 106.934C58.6569 107.271 59.285 107.935 59.6037 108.263C64.4653 108.636 69.3724 108.336 74.243 108.4C74.1793 109.21 74.243 110.048 73.9244 110.812C65.403 110.585 56.8725 110.794 48.351 110.694C47.2039 110.521 46.2298 111.067 45.3103 111.677C45.3103 113.298 45.2375 115 46.4028 116.284C47.6773 116.238 48.9428 116.193 50.2174 116.147C49.9898 116.612 49.5164 117.513 49.2888 117.968C46.9672 119.006 44.3179 118.642 42.5153 116.821C42.3515 114.181 42.1876 111.541 42.0966 108.9C40.5671 107.908 36.6341 107.526 36.8162 110.22C36.7251 112.751 36.716 115.319 37.4535 117.759C37.9542 120.535 40.1665 122.966 42.8613 123.813C46.0932 124.477 49.7349 124.277 52.3295 122.001C53.8954 120.435 54.9606 118.469 55.2337 116.256C57.7009 116.156 60.1681 116.384 62.6171 116.12L62.5989 116.111Z" fill="#46499B"/>
<path d="M81.9595 117.393C79.2829 118.167 78.1631 121.873 80.1205 123.93C82.0596 126.67 86.8302 125.35 87.2854 122.091C88.0137 119.114 84.8182 116.328 81.9595 117.393Z" fill="#4AB598"/>
<path d="M93.9758 119.278C93.2839 117.585 91.2172 118.331 89.8334 118.185C89.5148 118.486 88.8593 119.096 88.5406 119.396C88.4951 125.186 88.568 130.986 88.5406 136.776C88.395 137.805 89.0323 138.597 89.5603 139.389C91.1626 139.143 94.2307 140.09 94.0395 137.486C93.994 131.414 94.167 125.332 93.9758 119.269V119.278Z" fill="#46499B"/>
<path d="M154.045 119.097C152.707 117.294 148.118 117.713 148.756 120.699C148.756 125.078 148.728 129.457 148.801 133.845C135.746 133.845 122.691 133.773 109.635 133.882C109.499 130.877 110.391 127.427 108.543 124.787C106.312 122.547 102.744 123.558 99.9214 123.503C97.1811 123.685 96.1068 126.717 96.2889 129.084C96.4801 131.988 95.597 135.338 97.436 137.86C99.1202 140.1 102.197 139.053 104.564 139.271C104.31 139.736 103.8 140.664 103.545 141.129C101.751 141.966 99.7848 141.857 97.8548 141.939C96.1432 142.613 97.0172 144.788 96.8351 146.181C97.3723 146.7 97.9094 147.21 98.4374 147.738C99.6574 147.702 100.877 147.629 102.097 147.538C103.973 146.573 106.185 145.999 107.523 144.251C108.798 142.886 109.18 141.01 109.599 139.262C123.173 139.28 136.747 139.299 150.322 139.262C152.689 139.372 154.264 136.923 154.154 134.756C154.1 129.548 154.346 124.322 154.045 119.133V119.097ZM104.337 133.736C103.472 133.782 102.607 133.836 101.751 133.882C101.797 132.197 101.806 130.513 101.797 128.838C102.653 128.865 103.508 128.893 104.364 128.92C104.337 130.522 104.328 132.134 104.346 133.736H104.337Z" fill="#46499B"/>
<path d="M80.6172 125.371C80.7538 130.16 80.69 134.949 80.7082 139.738C80.1529 142.423 76.311 140.657 75.4825 143.133C74.9545 144.836 75.8011 146.384 76.7935 147.695C80.9449 147.321 85.2421 144.69 85.9886 140.311C86.5804 135.313 86.0523 130.242 86.3163 125.217C84.5228 126.291 82.4653 126.227 80.6172 125.371Z" fill="#46499B"/>
<path d="M70.0462 123.44C67.5608 123.458 64.693 122.885 62.5263 124.387C60.2047 126.827 61.4429 130.541 61.2881 133.546C58.5842 134.502 56.3082 136.768 55.7437 139.627C55.3249 142.367 55.1884 145.226 56.026 147.903C57.4462 147.939 58.8664 147.948 60.2867 147.976C61.8708 145.345 60.1865 141.93 62.3533 139.554C65.2393 138.999 68.1981 139.436 71.1023 139.19C73.1325 138.844 74.3434 136.632 74.2887 134.693C74.3069 132.107 74.398 129.522 74.1886 126.945C73.9701 124.879 72.1038 123.34 70.0462 123.431V123.44ZM66.5321 133.864C66.5321 132.207 66.5321 130.559 66.5321 128.912C67.3332 128.884 68.1344 128.848 68.9355 128.821C68.9173 130.487 68.9355 132.153 68.9902 133.828C68.1708 133.828 67.3423 133.846 66.523 133.873L66.5321 133.864Z" fill="#46499B"/>
</g>
<defs>
<clipPath id="clip0_4885_42888">
<rect width="192" height="192" fill="white"/>
</clipPath>
</defs>
</svg>
