<svg width="192" height="192" viewBox="0 0 192 192" fill="none" xmlns="http://www.w3.org/2000/svg">
<g clip-path="url(#clip0_4885_43179)">
<path d="M96 192C149.019 192 192 149.019 192 96C192 42.9807 149.019 0 96 0C42.9807 0 0 42.9807 0 96C0 149.019 42.9807 192 96 192Z" fill="white"/>
<path d="M144.039 92.5511C144.039 95.9311 143.779 99.0211 144.109 102.041C144.449 105.211 147.539 107.831 150.649 108.221C154.199 108.661 157.379 107.051 158.989 103.991C160.499 101.121 159.949 97.5911 157.619 95.1111C157.289 94.7611 156.969 94.4011 156.519 93.9011C158.739 92.2611 160.829 90.6411 163.039 89.2011C163.349 89.0011 164.469 89.5411 164.849 90.0311C171.049 97.8611 169.169 109.241 160.809 114.831C154.339 119.161 146.119 118.831 139.939 113.971C139.259 113.441 138.699 112.701 137.749 113.611C133.509 117.671 128.249 118.071 122.739 117.881C118.089 117.721 114.889 115.351 112.279 111.821C112.069 111.531 111.809 111.271 111.499 110.921C111.209 111.111 110.899 111.221 110.739 111.441C107.679 115.631 103.449 117.571 98.3792 117.821C96.2892 117.931 94.1792 117.921 92.0892 117.821C91.6292 117.801 90.8391 117.121 90.8291 116.711C90.7191 113.961 90.7692 111.201 90.7692 108.211C92.9692 108.211 94.9891 108.191 96.9991 108.211C99.7691 108.251 101.969 107.211 103.279 104.751C104.539 102.391 104.029 100.111 102.579 97.9711C100.409 94.7611 98.2691 91.5411 95.9291 88.0511C98.5991 86.4311 101.119 84.8411 103.719 83.3811C103.939 83.2511 104.759 83.8311 105.069 84.2511C106.659 86.4411 108.189 88.6811 109.709 90.9211C113.209 96.0611 116.719 101.191 120.159 106.371C121.039 107.701 122.089 108.171 123.669 108.251C130.539 108.621 133.829 106.421 133.349 98.6311C133.069 94.0911 133.339 89.5211 133.279 84.9611C133.259 83.6711 133.679 83.2411 134.969 83.2511C140.829 83.3011 146.699 83.2511 152.559 83.3211C153.089 83.3211 154.009 83.9311 154.049 84.3211C154.149 85.4711 155.789 86.7211 153.879 87.8511C152.339 88.7511 150.889 89.8111 149.459 90.8811C147.899 92.0411 146.359 93.1511 144.019 92.5711L144.039 92.5511Z" fill="#E35E55"/>
<path d="M88.6785 98.9712C87.8085 89.8212 81.6985 83.1512 71.8785 82.7612C66.4585 82.5412 61.0085 82.7812 55.5785 82.6812C53.9885 82.6612 53.5885 83.2812 53.5985 84.7412C53.6485 90.2212 53.6385 95.7012 53.5985 101.181C53.5985 102.211 53.4985 103.271 53.2785 104.291C52.7485 106.781 50.9785 108.181 48.4085 108.201C45.5685 108.221 42.7285 108.251 39.8885 108.201C35.6685 108.121 33.1585 105.531 33.1485 101.321C33.1485 93.0112 33.1485 84.7012 33.1485 76.3812C33.1485 75.6912 33.0485 74.9912 32.9785 73.9912C30.0685 75.7012 27.5085 77.2912 24.8685 78.7312C23.7785 79.3312 23.4785 80.0612 23.4885 81.2412C23.5385 88.1412 23.4885 95.0312 23.5185 101.931C23.5385 110.081 29.6085 116.891 37.7485 117.681C40.9285 117.991 44.1485 117.791 47.3585 117.901C51.8885 118.041 56.1085 117.301 59.4385 113.761C65.2585 117.621 68.5885 118.521 73.9885 117.761C82.8185 116.511 89.5385 108.181 88.6585 98.9812L88.6785 98.9712ZM79.1085 100.981C78.8185 104.641 75.7085 107.871 72.1085 108.231C68.1285 108.641 64.3985 106.481 63.6885 102.661C63.1185 99.5612 63.4085 96.3012 63.4185 93.1112C63.4185 92.8212 64.1185 92.3212 64.5485 92.2712C65.6485 92.1512 66.7585 92.2212 67.8685 92.2212C67.8685 92.1712 67.8685 92.1112 67.8885 92.0512C69.6585 92.2412 71.4685 92.2512 73.1885 92.6512C76.8185 93.4912 79.4085 97.2512 79.1185 100.961L79.1085 100.981Z" fill="#E35E55"/>
<path d="M151.818 91.0711C153.118 90.1611 154.278 89.2811 155.508 88.5011C156.388 87.9411 156.628 87.4911 156.048 86.4511C154.858 84.3111 155.588 81.8611 157.548 80.6511C159.458 79.4711 161.918 79.8811 163.378 81.6311C164.868 83.4111 164.828 86.0011 162.968 87.5811C160.488 89.6811 157.828 91.5711 155.158 93.4311C154.778 93.7011 153.778 93.4811 153.328 93.1411C152.738 92.6911 152.408 91.9011 151.828 91.0511L151.818 91.0711Z" fill="#4B4E58"/>
</g>
<defs>
<clipPath id="clip0_4885_43179">
<rect width="192" height="192" fill="white"/>
</clipPath>
</defs>
</svg>
