<svg width="192" height="192" viewBox="0 0 192 192" fill="none" xmlns="http://www.w3.org/2000/svg">
<g clip-path="url(#clip0_4885_44120)">
<path d="M96 192C149.019 192 192 149.019 192 96C192 42.9807 149.019 0 96 0C42.9807 0 0 42.9807 0 96C0 149.019 42.9807 192 96 192Z" fill="white"/>
<path d="M54.2238 158C53.7898 158 53.4355 157.646 53.4355 157.212V150.498C53.4355 150.02 53.7013 149.568 54.1175 149.338C54.5427 149.107 55.0564 149.116 55.4638 149.373L65.7115 155.795V149.515C65.7115 149.081 66.0658 148.727 66.4998 148.727C66.9338 148.727 67.2881 149.081 67.2881 149.515V156.229C67.2881 156.707 67.0223 157.159 66.6061 157.389C66.1809 157.619 65.6672 157.61 65.2598 157.353L55.0121 150.932V157.212C55.0121 157.646 54.6578 158 54.2238 158Z" fill="#262626"/>
<path d="M70.4504 158C70.0164 158 69.6621 157.646 69.6621 157.212V149.515C69.6621 149.081 70.0164 148.727 70.4504 148.727C70.8844 148.727 71.2387 149.081 71.2387 149.515V157.212C71.2387 157.646 70.8844 158 70.4504 158Z" fill="#262626"/>
<path d="M87.6171 158C87.1831 158 86.8288 157.646 86.8288 157.212V151.277L85.4205 152.535C82.7102 154.962 78.5828 154.997 75.8283 152.624L74.2074 151.233V157.212C74.2074 157.646 73.8531 158 73.4191 158C72.9851 158 72.6309 157.646 72.6309 157.212V149.825C72.6309 149.462 72.8434 149.134 73.1711 148.983C73.4989 148.833 73.8886 148.886 74.1631 149.125L76.8468 151.428C79.008 153.288 82.2408 153.252 84.3665 151.357L86.8465 149.143C87.1211 148.895 87.5108 148.842 87.8474 148.983C88.1839 149.134 88.3965 149.462 88.3965 149.834V157.212C88.3965 157.646 88.0422 158 87.6082 158H87.6171Z" fill="#262626"/>
<path d="M101.875 157.582H93.8151C91.6717 157.582 89.918 155.838 89.918 153.685V149.682C89.918 149.248 90.2723 148.894 90.7063 148.894C91.1402 148.894 91.4945 149.248 91.4945 149.682V153.685C91.4945 154.97 92.5397 156.006 93.8151 156.006H101.875C102.309 156.006 102.663 156.36 102.663 156.794C102.663 157.228 102.309 157.582 101.875 157.582Z" fill="#262626"/>
<path d="M129.623 157.582H126.009C124.043 157.582 122.439 155.979 122.439 154.013V149.682C122.439 149.248 122.794 148.894 123.228 148.894C123.662 148.894 124.016 149.248 124.016 149.682V154.013C124.016 155.111 124.911 156.015 126.018 156.015H129.631C130.065 156.015 130.42 156.369 130.42 156.803C130.42 157.237 130.065 157.591 129.631 157.591L129.623 157.582Z" fill="#262626"/>
<path d="M137.765 157.582H134.151C132.185 157.582 130.582 155.979 130.582 154.013V149.682C130.582 149.248 130.936 148.894 131.37 148.894C131.804 148.894 132.159 149.248 132.159 149.682V154.013C132.159 155.111 133.053 156.015 134.16 156.015H137.774C138.208 156.015 138.562 156.369 138.562 156.803C138.562 157.237 138.208 157.591 137.774 157.591L137.765 157.582Z" fill="#262626"/>
<path d="M102.382 157.582H101.992C99.565 157.582 97.5898 155.607 97.5898 153.18V149.682C97.5898 149.248 97.9441 148.894 98.3781 148.894C98.8121 148.894 99.1664 149.248 99.1664 149.682V153.18C99.1664 154.739 100.433 156.006 101.992 156.006H102.382C103.94 156.006 105.207 154.739 105.207 153.18V149.682C105.207 149.248 105.561 148.894 105.995 148.894C106.429 148.894 106.784 149.248 106.784 149.682V153.18C106.784 155.607 104.808 157.582 102.382 157.582Z" fill="#262626"/>
<path d="M120.606 157.584C120.385 157.584 120.164 157.495 120.013 157.309L114.486 150.879L108.809 157.318C108.525 157.646 108.02 157.672 107.702 157.389C107.374 157.105 107.347 156.609 107.631 156.282L113.583 149.532C113.813 149.276 114.141 149.125 114.486 149.125C114.832 149.125 115.168 149.284 115.39 149.541L121.191 156.29C121.474 156.618 121.439 157.114 121.111 157.398C120.961 157.522 120.784 157.584 120.598 157.584H120.606Z" fill="#262626"/>
<path d="M115.063 155.475H113.92C113.847 155.475 113.787 155.535 113.787 155.608V156.981C113.787 157.054 113.847 157.114 113.92 157.114H115.063C115.136 157.114 115.195 157.054 115.195 156.981V155.608C115.195 155.535 115.136 155.475 115.063 155.475Z" fill="#262626"/>
<path d="M81.0879 155.475H79.9454C79.872 155.475 79.8125 155.535 79.8125 155.608V156.981C79.8125 157.054 79.872 157.114 79.9454 157.114H81.0879C81.1613 157.114 81.2208 157.054 81.2208 156.981V155.608C81.2208 155.535 81.1613 155.475 81.0879 155.475Z" fill="#262626"/>
<path d="M137.97 145.015H54.4297V34H137.961V145.015H137.97ZM60.5588 138.895H131.841V40.1203H60.5588V138.886V138.895Z" fill="#262626"/>
</g>
<defs>
<clipPath id="clip0_4885_44120">
<rect width="192" height="192" fill="white"/>
</clipPath>
</defs>
</svg>
