<svg width="192" height="192" viewBox="0 0 192 192" fill="none" xmlns="http://www.w3.org/2000/svg">
<g clip-path="url(#clip0_4886_44154)">
<path d="M96 192C149.019 192 192 149.019 192 96C192 42.9807 149.019 0 96 0C42.9807 0 0 42.9807 0 96C0 149.019 42.9807 192 96 192Z" fill="white"/>
<path fill-rule="evenodd" clip-rule="evenodd" d="M96 23.5C116.01 23.5 134.14 31.62 147.26 44.74C160.38 57.86 168.5 75.98 168.5 96C168.5 116.02 160.38 134.14 147.26 147.26C134.14 160.38 116.01 168.5 96 168.5C75.99 168.5 57.86 160.38 44.74 147.26C31.62 134.14 23.5 116.01 23.5 96C23.5 75.99 31.62 57.86 44.74 44.74C57.86 31.62 75.99 23.5 96 23.5ZM96 48.46C69.75 48.46 48.46 69.74 48.46 96C48.46 122.26 69.75 143.53 96 143.53C122.25 143.53 143.54 122.25 143.53 96C143.53 69.75 122.24 48.46 96 48.46ZM143.31 48.68C131.2 36.57 114.47 29.08 96 29.08C77.53 29.08 60.8 36.57 48.69 48.68C36.58 60.79 29.09 77.52 29.09 95.99C29.09 114.46 36.58 131.19 48.69 143.3C60.8 155.41 77.53 162.9 96 162.9C114.47 162.9 131.2 155.41 143.31 143.3C155.42 131.19 162.91 114.47 162.91 95.99C162.91 77.51 155.42 60.79 143.31 48.68Z" fill="#E92327"/>
</g>
<defs>
<clipPath id="clip0_4886_44154">
<rect width="192" height="192" fill="white"/>
</clipPath>
</defs>
</svg>
