<svg width="192" height="192" viewBox="0 0 192 192" fill="none" xmlns="http://www.w3.org/2000/svg">
<g clip-path="url(#clip0_4885_43161)">
<path d="M96 192C149.019 192 192 149.019 192 96C192 42.9807 149.019 0 96 0C42.9807 0 0 42.9807 0 96C0 149.019 42.9807 192 96 192Z" fill="#050CCC"/>
<path d="M45.8731 103.561C45.2454 102.576 44.695 101.727 44.2218 101.041C43.7487 100.355 43.3238 99.8243 42.9568 99.4284C42.5802 99.0132 42.1553 98.6366 41.7015 98.2986C41.238 97.9413 40.7165 97.613 40.1371 97.304C42.3871 96.937 44.0866 96.1356 45.2164 94.8995C46.3463 93.6635 46.916 92.0895 46.916 90.1775C46.916 89.405 46.8194 88.6807 46.6166 88.0144C46.4138 87.3578 46.1435 86.7301 45.7862 86.1218C45.0523 84.9726 44.0673 84.1518 42.8023 83.6883C42.1746 83.4662 41.3635 83.3021 40.3882 83.1765C39.4129 83.051 38.2251 82.9834 36.8346 82.9834H26V108.573H31.1952V97.8834H32.2381C33.4355 97.8834 34.2949 97.98 34.7971 98.1731C35.3378 98.3469 35.8593 98.7042 36.3614 99.2643C36.6028 99.5057 36.9505 99.9499 37.4043 100.578C37.8485 101.205 38.399 102.016 39.0556 103.011L42.8023 108.592H49.0018L45.8731 103.581V103.561ZM37.9837 93.7214C37.2305 93.7794 36.2166 93.7987 34.9516 93.7987H31.1759V87.3095H35.1737C37.2691 87.3095 38.5341 87.3578 38.959 87.435C39.7895 87.5702 40.4461 87.8986 40.9 88.42C41.3538 88.9415 41.5856 89.6271 41.5856 90.4865C41.5856 90.8631 41.5373 91.2107 41.4504 91.5391C41.3635 91.8577 41.2283 92.1474 41.0448 92.3888C40.8807 92.6689 40.6779 92.891 40.4268 93.0551C40.1757 93.2193 39.8957 93.3545 39.5964 93.48C39.2777 93.5862 38.7273 93.6828 37.9837 93.7214Z" fill="white"/>
<path d="M67.3005 107.308C67.1653 106.892 67.0591 106.487 66.9722 106.091C66.8756 105.705 66.808 105.202 66.779 104.604C66.7501 103.995 66.7307 103.31 66.7307 102.528L66.779 96.7723C66.779 94.6093 66.5666 93.1608 66.1514 92.3979C65.9293 91.9827 65.6396 91.6254 65.2823 91.2778C64.925 90.9301 64.4711 90.6501 63.911 90.399C63.3413 90.1576 62.6557 89.9548 61.8639 89.8196C61.0624 89.6844 60.1064 89.6072 59.0055 89.6072C57.7985 89.6072 56.7363 89.7134 55.8479 89.9355C54.9401 90.1479 54.1773 90.4763 53.54 90.9108C52.893 91.3454 52.3715 91.8861 51.9659 92.5524C51.5604 93.2091 51.2224 93.9816 50.981 94.8796L55.4326 95.7101C55.7513 94.8313 56.1569 94.2326 56.63 93.8947C57.1032 93.5567 57.7792 93.3829 58.6482 93.3829C59.3049 93.3829 59.836 93.4312 60.2705 93.5277C60.7051 93.6146 61.0334 93.7691 61.3038 93.9816C61.5742 94.194 61.748 94.4547 61.8542 94.7831C61.9604 95.1114 62.0184 95.5073 62.0184 95.9708V96.4923C61.5549 96.6661 60.9175 96.8592 60.1353 97.062C59.3532 97.2648 58.3682 97.4772 57.2191 97.6704C56.3693 97.8249 55.6064 97.9987 54.9691 98.2015C54.3221 98.3946 53.7717 98.6167 53.3082 98.8485C52.4391 99.283 51.7535 99.901 51.2514 100.703C50.7492 101.514 50.5078 102.441 50.5078 103.522C50.5078 104.324 50.643 105.058 50.9327 105.714C51.2127 106.39 51.6183 106.97 52.1494 107.452C52.6709 107.945 53.3179 108.321 54.0807 108.592C54.8339 108.872 55.703 109.007 56.6493 109.007C57.7405 109.007 58.7448 108.804 59.6911 108.408C60.6375 108.012 61.5452 107.385 62.4336 106.535L62.5881 107.076C62.6653 107.404 62.7426 107.694 62.8102 107.955C62.8778 108.206 62.9454 108.418 63.0226 108.573H67.8605C67.6481 108.138 67.4743 107.723 67.3294 107.298L67.3005 107.308ZM61.9991 100.625C61.9991 101.234 61.9797 101.736 61.9411 102.132C61.8928 102.528 61.8542 102.827 61.777 103.039C61.69 103.368 61.5549 103.667 61.3521 103.937C61.1493 104.208 60.9079 104.459 60.5989 104.7C59.807 105.251 58.9669 105.531 58.0785 105.531C57.6923 105.531 57.3253 105.463 56.9873 105.318C56.659 105.183 56.3693 105 56.1376 104.778C55.8961 104.555 55.703 104.285 55.5678 103.976C55.4326 103.667 55.3554 103.329 55.3554 102.991C55.3554 102.653 55.4326 102.334 55.5871 102.045C55.7416 101.745 55.9734 101.494 56.321 101.292C56.688 101.002 57.586 100.712 58.9862 100.422C59.6815 100.258 60.2802 100.123 60.7823 99.9976C61.2845 99.8914 61.6804 99.7658 61.9894 99.6499V100.606L61.9991 100.625Z" fill="white"/>
<path d="M83.6874 82.9929V92.1763C82.2003 90.4671 80.4042 89.6173 78.3184 89.6173C77.2079 89.6173 76.1747 89.8297 75.238 90.2353C74.2916 90.6505 73.4612 91.2685 72.7176 92.099C71.2788 93.7213 70.5449 96.1065 70.5449 99.2641C70.5449 102.422 71.2885 104.739 72.7659 106.449C73.5578 107.298 74.3979 107.945 75.2959 108.37C76.2036 108.805 77.2079 109.017 78.2894 109.017C79.371 109.017 80.3559 108.766 81.3699 108.245C82.3838 107.723 83.2819 106.931 84.0544 105.888V108.583H88.6509V82.9929H83.6971H83.6874ZM83.417 101.891C83.2046 102.605 82.9149 103.185 82.5383 103.667C82.1714 104.141 81.7368 104.498 81.254 104.73C80.7519 104.961 80.2304 105.087 79.6896 105.087C78.2122 105.087 77.0824 104.469 76.3195 103.214C76.0684 102.779 75.856 102.2 75.7112 101.485C75.5663 100.751 75.4987 99.9015 75.4987 98.8972C75.4987 97.9702 75.5953 97.159 75.8077 96.4637C76.0202 95.7781 76.3099 95.2084 76.6865 94.7449C77.0534 94.291 77.4879 93.9531 77.9997 93.7213C78.5115 93.4992 79.0523 93.393 79.651 93.393C80.2497 93.393 80.7905 93.4992 81.2926 93.7213C81.7948 93.9531 82.2196 94.3007 82.5769 94.7739C82.9439 95.247 83.2239 95.8747 83.4267 96.6376C83.6295 97.3908 83.7261 98.3081 83.7261 99.3897C83.7261 100.346 83.6295 101.176 83.417 101.881V101.891Z" fill="white"/>
<path d="M113.381 103.561C112.763 102.576 112.212 101.727 111.73 101.041C111.256 100.355 110.832 99.8243 110.474 99.4284C110.098 99.0132 109.673 98.6366 109.209 98.2986C108.755 97.9413 108.224 97.613 107.645 97.304C109.905 96.937 111.604 96.1356 112.724 94.8995C113.854 93.6635 114.424 92.0895 114.424 90.1775C114.424 89.405 114.327 88.6807 114.134 88.0144C113.931 87.3578 113.661 86.7301 113.294 86.1218C112.57 84.9726 111.585 84.1518 110.32 83.6883C109.692 83.4662 108.881 83.3021 107.906 83.1765C106.93 83.051 105.743 82.9834 104.352 82.9834H93.5078V108.573H98.703V97.8834H99.7459C100.953 97.8834 101.812 97.98 102.305 98.1731C102.855 98.3469 103.377 98.7042 103.869 99.2643C104.12 99.5057 104.468 99.9499 104.922 100.578C105.366 101.205 105.916 102.016 106.563 103.011L110.32 108.592H116.51L113.381 103.581V103.561ZM105.492 93.7214C104.738 93.7794 103.744 93.7987 102.479 93.7987H98.6934V87.3095H102.701C104.796 87.3095 106.061 87.3578 106.486 87.435C107.317 87.5702 107.973 87.8986 108.427 88.42C108.881 88.9415 109.103 89.6271 109.103 90.4865C109.103 90.8631 109.074 91.2107 108.978 91.5391C108.891 91.8577 108.755 92.1474 108.562 92.3888C108.398 92.6689 108.195 92.891 107.944 93.0551C107.693 93.2193 107.413 93.3545 107.104 93.48C106.795 93.5862 106.254 93.6828 105.492 93.7214Z" fill="white"/>
<path d="M134.82 107.308C134.685 106.892 134.578 106.487 134.491 106.091C134.395 105.705 134.327 105.202 134.289 104.604C134.269 103.995 134.24 103.31 134.24 102.528L134.289 96.7723C134.289 94.6093 134.076 93.1608 133.661 92.3979C133.449 91.9827 133.159 91.6254 132.811 91.2778C132.454 90.9301 132 90.6501 131.44 90.399C130.87 90.1576 130.185 89.9548 129.383 89.8196C128.572 89.6844 127.616 89.6072 126.525 89.6072C125.308 89.6072 124.256 89.7134 123.348 89.9355C122.45 90.1479 121.687 90.4763 121.05 90.9108C120.403 91.3454 119.881 91.8861 119.476 92.5524C119.051 93.2091 118.732 93.9816 118.481 94.8796L122.942 95.7101C123.261 94.8313 123.667 94.2326 124.14 93.8947C124.613 93.5567 125.279 93.3829 126.158 93.3829C126.815 93.3829 127.346 93.4312 127.78 93.5277C128.205 93.6146 128.543 93.7691 128.813 93.9816C129.065 94.194 129.258 94.4547 129.364 94.7831C129.47 95.1114 129.518 95.5073 129.518 95.9708V96.4923C129.065 96.6661 128.427 96.8592 127.645 97.062C126.853 97.2648 125.878 97.4772 124.729 97.6704C123.879 97.8249 123.116 97.9987 122.479 98.2015C121.832 98.3946 121.281 98.6167 120.818 98.8485C119.949 99.283 119.263 99.901 118.761 100.703C118.259 101.514 118.008 102.441 118.008 103.522C118.008 104.324 118.153 105.058 118.442 105.714C118.722 106.39 119.128 106.97 119.649 107.452C120.181 107.945 120.828 108.321 121.59 108.592C122.344 108.872 123.203 109.007 124.169 109.007C125.26 109.007 126.264 108.804 127.21 108.408C128.157 108.012 129.065 107.385 129.953 106.535L130.098 107.076C130.185 107.404 130.262 107.694 130.33 107.955C130.397 108.206 130.465 108.418 130.532 108.573H135.38C135.167 108.138 134.994 107.723 134.849 107.298L134.82 107.308ZM129.509 100.625C129.509 101.234 129.499 101.736 129.46 102.132C129.412 102.528 129.364 102.827 129.296 103.039C129.209 103.368 129.065 103.667 128.871 103.937C128.669 104.208 128.418 104.459 128.118 104.7C127.317 105.251 126.477 105.531 125.598 105.531C125.212 105.531 124.845 105.463 124.507 105.318C124.178 105.183 123.889 105 123.657 104.778C123.415 104.555 123.222 104.285 123.087 103.976C122.942 103.667 122.875 103.329 122.875 102.991C122.875 102.653 122.952 102.334 123.106 102.045C123.251 101.745 123.493 101.494 123.831 101.292C124.207 101.002 125.096 100.712 126.506 100.422C127.201 100.258 127.8 100.123 128.302 99.9976C128.804 99.8914 129.2 99.7658 129.499 99.6499V100.606L129.509 100.625Z" fill="white"/>
<path d="M165.518 92.8904C165.084 91.7992 164.398 90.9784 163.432 90.4376C162.476 89.8872 161.318 89.6072 159.937 89.6072C157.803 89.6072 155.929 90.5921 154.317 92.5717C153.148 90.6018 151.41 89.6072 149.083 89.6072C146.756 89.6072 144.902 90.5921 143.279 92.5717V90.0128H138.789V108.582H143.666V99.5437C143.666 97.7669 143.801 96.5019 144.062 95.768C144.313 94.9762 144.737 94.3968 145.327 93.9912C145.916 93.5953 146.601 93.3925 147.383 93.3925C148.069 93.3925 148.571 93.5277 148.899 93.8078C149.073 93.9333 149.228 94.0781 149.353 94.2423C149.488 94.4161 149.595 94.6575 149.682 94.9376C149.846 95.459 149.933 96.6275 149.933 98.4332V108.582H154.867V99.6789C154.867 97.9601 155.002 96.6854 155.253 95.8549C155.543 95.0341 155.987 94.4161 156.586 94.0105C157.175 93.5953 157.803 93.4022 158.469 93.4022C158.981 93.4022 159.406 93.4891 159.744 93.6726C160.072 93.8367 160.362 94.0878 160.593 94.4065C160.922 95.0052 161.096 96.1929 161.096 97.989V108.592H166.001V96.7337C166.001 94.9859 165.837 93.7015 165.499 92.9097L165.518 92.8904Z" fill="white"/>
</g>
<defs>
<clipPath id="clip0_4885_43161">
<rect width="192" height="192" fill="white"/>
</clipPath>
</defs>
</svg>
