<svg width="192" height="192" viewBox="0 0 192 192" fill="none" xmlns="http://www.w3.org/2000/svg">
<g clip-path="url(#clip0_4885_43908)">
<path d="M96 192C149.019 192 192 149.019 192 96C192 42.9807 149.019 0 96 0C42.9807 0 0 42.9807 0 96C0 149.019 42.9807 192 96 192Z" fill="white"/>
<path d="M122.237 110.565C119.332 116.348 114.93 120.768 109.137 123.717C105.134 125.754 100.723 126.8 96.073 126.8H95.5859C90.5817 126.711 85.9494 125.684 81.8221 123.717C79.0321 122.371 76.4724 120.635 74.2139 118.527C70.6533 115.215 67.9962 111.22 66.278 106.632C65.038 103.311 64.4977 100.122 64.5951 96.8716C64.6837 93.8779 65.3214 91.3714 66.5437 89.2191C68.3594 86.0129 71.2733 84.1175 75.197 83.5595L76.5964 83.3646C79.3864 82.9749 82.2826 82.5763 85.0726 81.9564C89.7934 80.9112 93.6816 78.8918 96.631 75.9601C100.121 72.497 102.06 68.1128 102.388 62.9492C102.68 58.2638 101.449 54.225 98.739 50.9125C98.181 50.2393 97.5344 49.6548 96.8259 49.0082C96.5336 48.7513 96.2324 48.4856 95.9579 48.2022L95.5859 47.9188L95.2227 48.1845C93.407 49.5396 91.9456 51.4173 90.7499 53.9239C89.4391 56.6961 88.8368 59.6543 88.9697 62.7277C89.0671 64.8623 89.6339 66.9083 90.2451 68.7859C90.5285 69.6539 90.7854 70.5131 90.8828 71.3633C90.9714 72.1073 90.9182 72.8956 90.7234 73.5865C90.5551 74.2065 90.1654 74.6139 89.634 74.7467C89.0937 74.8796 88.4914 74.6582 88.0308 74.1622C86.9414 72.993 86.1531 71.6202 85.6926 70.0791C83.3189 62.3469 84.2489 55.1904 88.4648 48.8399C89.9794 46.5548 92.0519 44.7214 94.0625 42.95L95.6213 41.5771L95.6656 41.6126C96.3033 42.2149 96.941 42.7906 97.6319 43.4283C99.0047 44.686 100.413 45.9879 101.724 47.3254C104.478 50.1419 106.126 53.7644 106.799 58.3789C107.472 63.1529 106.746 67.8205 104.611 72.2845C102.087 77.5721 97.9064 81.5312 92.1759 84.0732C87.6588 86.0749 82.5926 87.4211 76.7027 88.2271C75.8436 88.3334 74.9224 88.5106 73.9747 88.732C71.0696 89.4228 69.7853 90.902 69.5373 93.8425C68.8819 101.566 71.0165 108.297 75.8878 113.815C80.1746 118.686 85.6749 121.521 92.2291 122.238C98.9781 122.982 105.178 121.317 110.669 117.305C116.94 112.717 120.465 106.579 121.138 99.0593C121.271 97.4916 121.227 95.8353 120.988 94.1259C120.536 90.778 118.765 88.8914 115.434 88.2094C113.734 87.864 111.998 87.616 110.306 87.368C109.483 87.2529 108.659 87.12 107.835 86.996C105.408 86.6063 103.265 85.9686 101.316 85.012C100.51 84.6223 100.262 83.9935 100.599 83.1432C101.086 81.8766 102.512 81.1415 103.911 81.4426C106.179 81.9386 108.491 82.4169 110.731 82.8863C112.051 83.1521 113.371 83.4355 114.682 83.71C116.657 84.1175 118.756 84.6489 120.669 85.694C123.503 87.244 125.142 89.6974 125.514 93.0099C126.187 98.9973 125.098 104.896 122.272 110.538L122.237 110.565Z" fill="#262626"/>
<path d="M83.5857 58.3887C83.3465 59.921 83.2757 61.4798 83.3377 63.0741L83.6388 58.3799H83.5857V58.3887Z" fill="white"/>
<path d="M141.45 105.259C141.3 109.404 140.547 113.522 139.2 117.499C137.438 122.707 134.869 127.41 131.575 131.449C131.468 131.582 131.371 131.706 131.273 131.839L131.087 132.087C130.68 132.636 129.688 133.592 129.015 134.168L128.917 134.301L128.723 134.398L128.652 134.319L128.359 133.902C127.961 133.362 127.314 132.459 127.04 132.096L126.925 131.936H126.889V131.874C126.898 131.617 127.111 131.352 127.305 131.121C130.033 127.915 132.106 124.833 133.647 121.689C135.879 117.136 137.278 112.256 137.783 107.207C138.155 103.479 138.049 99.794 137.447 96.2689C136.233 89.139 133.426 82.7353 129.112 77.244C125.614 72.7977 121.504 69.2372 116.916 66.6953C115.348 65.8184 113.648 65.0833 111.938 64.3393C111.283 64.0559 110.61 63.7724 109.955 63.4713C109.839 63.4182 109.715 63.4093 109.521 63.3827C109.459 63.3827 109.379 63.3739 109.308 63.365L109.264 59.8311H109.326C109.485 59.8665 109.636 59.8753 109.866 59.8931C110.211 59.9108 110.566 59.9462 110.876 60.0525C116.615 62.0187 121.832 65.0921 126.402 69.1841C131.885 74.082 136.074 80.3351 138.864 87.775C140.839 93.0095 141.68 98.7311 141.441 105.276L141.45 105.259Z" fill="#262626"/>
<path d="M82.4774 59.7334L82.256 63.3736H82.2205C79.2357 64.4365 76.614 65.6853 74.1872 67.1733C67.5976 71.2387 62.4428 76.7212 58.8557 83.4968C56.2429 88.4479 54.6663 93.8241 54.1969 99.4749C54.0906 100.715 54.0375 101.937 54.0375 103.151C54.0375 109.262 55.366 115.214 57.9877 120.865C59.2897 123.672 60.9459 126.356 62.8945 128.871C63.2399 129.314 63.2842 129.66 63.0362 130.173C62.7262 130.838 62.4339 131.502 62.1328 132.228L61.7342 133.185L61.6722 133.105C49.6798 118.89 47.1201 99.7938 55.0206 83.2754C59.086 74.7726 65.401 68.059 73.8152 63.3205C76.3395 61.8945 79.1294 60.4597 82.4065 59.7423H82.4774V59.7334Z" fill="#262626"/>
<path d="M83.5837 58.3883C83.3446 59.9205 83.2737 61.4794 83.3357 63.0736L83.6369 58.3794H83.5837V58.3883Z" fill="white"/>
<path d="M36.5154 139.552C36.5154 141.244 36.5154 142.864 36.5154 144.485C36.5154 144.778 36.4888 145.079 36.4003 145.344C36.2143 145.902 35.612 146.23 35.054 146.142C34.4694 146.044 34 145.53 34 144.919C34 140.606 34 136.293 34 131.97C34 131.226 34.5403 130.722 35.2843 130.713C37.4277 130.695 39.5711 130.606 41.7145 130.686C43.4416 130.748 45.0359 131.315 45.9127 132.971C46.7276 134.521 46.6744 136.142 45.6824 137.586C45.2307 138.241 44.4867 138.693 43.7782 139.331C44.1767 140.154 44.655 141.146 45.1333 142.129C45.4699 142.82 45.8241 143.502 46.143 144.193C46.5327 145.043 46.3378 145.708 45.647 146.044C45.027 146.336 44.3982 146.044 43.9819 145.203C43.1582 143.52 42.3345 141.837 41.5462 140.145C41.3425 139.703 41.0945 139.508 40.5808 139.525C39.2522 139.561 37.9325 139.534 36.5331 139.534L36.5154 139.552ZM36.542 137.311C36.604 137.347 36.6571 137.4 36.7191 137.4C38.4374 137.4 40.1468 137.462 41.8562 137.364C43.3087 137.285 44.0084 136.346 43.911 134.893C43.8313 133.777 42.8836 132.998 41.5993 132.989C40.1556 132.989 38.7119 132.989 37.2682 132.989C37.0291 132.989 36.7988 133.015 36.542 133.024V137.302V137.311Z" fill="#262626"/>
<path d="M99.0745 139.712C97.8965 139.712 96.8336 139.712 95.7708 139.712C95.0888 139.712 94.5928 139.296 94.5662 138.702C94.5397 138.073 95.0091 137.542 95.6999 137.533C97.2588 137.507 98.8176 137.507 100.376 137.533C101.067 137.551 101.51 138.011 101.528 138.711C101.554 140.04 101.563 141.377 101.51 142.706C101.501 143.024 101.289 143.388 101.067 143.653C98.7291 146.408 94.3182 147.072 91.05 145.177C87.9146 143.361 86.4178 139.234 87.6489 135.824C88.7206 132.865 90.74 130.97 93.902 130.518C96.0808 130.208 98.1268 130.625 99.8805 132.068C100.022 132.183 100.155 132.299 100.279 132.431C100.757 132.963 100.775 133.539 100.341 134.008C99.9425 134.442 99.4022 134.424 98.8088 134.097C97.9939 133.636 97.1879 133.043 96.2934 132.848C92.8745 132.068 89.9606 134.336 89.6949 137.843C89.5 140.403 90.7223 142.67 92.9188 143.582C94.7965 144.353 96.6388 144.105 98.3482 143.016C98.8442 142.697 99.1542 142.281 99.0745 141.616C99.0036 141.023 99.0568 140.412 99.0568 139.721L99.0745 139.712Z" fill="#262626"/>
<path d="M130.043 141.732C130.335 143.548 131.664 144.522 133.471 144.319C134.348 144.221 135.118 143.885 135.783 143.291C136.341 142.795 136.819 142.769 137.2 143.203C137.58 143.637 137.554 144.159 137.031 144.637C135.366 146.161 133.409 146.666 131.265 145.966C129.157 145.275 127.953 143.707 127.731 141.52C127.51 139.279 128.431 137.49 130.415 136.383C132.045 135.47 133.754 135.479 135.384 136.418C137.023 137.357 137.837 138.827 137.873 140.714C137.89 141.467 137.607 141.732 136.792 141.732C134.782 141.732 132.771 141.732 130.761 141.732C130.539 141.732 130.318 141.732 130.043 141.732ZM135.561 140.005C135.464 138.606 134.33 137.649 132.833 137.658C131.381 137.667 130.265 138.65 130.185 140.005H135.561Z" fill="#262626"/>
<path d="M67.8427 141.731C67.7541 143.193 69.3041 144.566 71.2261 144.318C72.1029 144.203 72.8735 143.875 73.5289 143.273C74.0958 142.759 74.5209 142.75 74.9372 143.202C75.3446 143.645 75.3003 144.07 74.7778 144.619C73.3872 146.089 70.739 146.656 68.8081 145.903C66.771 145.106 65.4425 143.184 65.4336 141.041C65.4336 138.782 66.6913 136.807 68.817 136.063C71.8284 135.009 74.9815 136.612 75.5749 140.049C75.8229 141.457 75.5395 141.74 74.1223 141.74C72.0232 141.74 69.9241 141.74 67.8338 141.74L67.8427 141.731ZM73.3429 140.004C73.0861 138.499 71.9701 137.613 70.4555 137.657C69.0738 137.702 68.0641 138.614 67.9136 140.004H73.3429Z" fill="#262626"/>
<path d="M111.101 145.044C109.444 146.391 107.673 146.621 106.026 145.7C104.803 145.018 104.148 143.769 104.334 142.352C104.511 140.997 105.326 140.129 106.61 139.766C108.196 139.314 109.737 139.447 111.101 140.492C111.517 138.924 110.87 137.932 109.303 137.702C108.107 137.525 106.982 137.782 105.849 138.162C105.521 138.278 105.007 138.242 104.741 138.056C104.192 137.658 104.307 136.896 104.981 136.586C105.645 136.276 106.371 135.966 107.088 135.904C108.266 135.806 109.489 135.78 110.649 135.975C112.252 136.24 113.297 137.534 113.359 139.181C113.43 141.147 113.395 143.114 113.386 145.08C113.386 145.664 113.014 146.01 112.491 146.116C111.978 146.222 111.561 146.01 111.304 145.532C111.225 145.372 111.172 145.204 111.101 145.036V145.044ZM108.736 144.646C109.4 144.389 110.047 144.238 110.578 143.902C111.393 143.397 111.331 142.157 110.498 141.696C109.444 141.121 108.328 141.103 107.257 141.634C106.362 142.077 106.203 143.282 107.009 143.884C107.478 144.247 108.125 144.38 108.745 144.637L108.736 144.646Z" fill="#262626"/>
<path d="M59.4018 142.697C60.2609 140.704 61.0935 138.809 61.9083 136.904C62.9534 134.477 63.9809 132.051 65.0171 129.624C65.336 128.889 65.8674 128.596 66.4254 128.844C66.9923 129.101 67.1605 129.659 66.8417 130.394C64.716 135.345 62.5726 140.288 60.4469 145.239C60.2343 145.735 59.9686 146.133 59.3841 146.133C58.8172 146.133 58.5869 145.708 58.3832 145.256C57.2052 142.644 56.0272 140.04 54.8493 137.427C54.5304 136.727 54.7164 136.16 55.3187 135.895C55.8855 135.647 56.3727 135.895 56.6915 136.612C57.5861 138.605 58.4629 140.607 59.3929 142.679L59.4018 142.697Z" fill="#262626"/>
<path d="M153.324 142.671C154.28 140.536 155.148 138.534 156.078 136.559C156.229 136.249 156.636 135.913 156.955 135.868C157.247 135.833 157.655 136.125 157.876 136.391C158.027 136.577 158.036 137.002 157.929 137.241C156.734 139.969 155.52 142.679 154.28 145.39C153.297 147.542 151.871 149.304 149.621 150.252C148.886 150.562 148.435 150.447 148.178 149.907C147.903 149.34 148.116 148.879 148.851 148.525C150.179 147.896 151.171 146.922 151.915 145.664C152.137 145.292 152.119 144.982 151.942 144.593C150.861 142.21 149.807 139.819 148.762 137.427C148.444 136.701 148.63 136.152 149.223 135.886C149.737 135.656 150.286 135.948 150.605 136.639C151.428 138.472 152.243 140.306 153.067 142.139C153.129 142.281 153.2 142.414 153.341 142.671H153.324Z" fill="#262626"/>
<path d="M116.725 138.321C116.725 136.177 116.725 134.034 116.725 131.89C116.725 131.031 117.105 130.535 117.77 130.518C118.487 130.5 118.983 131.04 118.992 131.908C118.992 135.185 118.992 138.453 118.992 141.731C118.992 142.767 119.01 143.812 118.992 144.848C118.983 145.424 118.762 145.929 118.168 146.115C117.628 146.283 117.176 146.07 116.893 145.592C116.769 145.38 116.733 145.078 116.733 144.822C116.725 142.652 116.733 140.491 116.733 138.321H116.725Z" fill="#262626"/>
<path d="M124.803 138.34C124.803 140.527 124.803 142.724 124.803 144.911C124.803 145.655 124.422 146.116 123.767 146.151C123.085 146.187 122.633 145.717 122.633 144.929C122.624 142.511 122.633 140.093 122.633 137.675C122.633 135.736 122.633 133.787 122.633 131.847C122.633 130.97 123.04 130.501 123.793 130.51C124.431 130.51 124.812 131.024 124.812 131.83C124.812 134 124.812 136.17 124.812 138.34H124.803Z" fill="#262626"/>
<path d="M143.198 137.357C144.092 136.214 145.173 135.718 146.51 135.754C147.157 135.771 147.67 136.17 147.688 136.71C147.706 137.215 147.228 137.587 146.634 137.729C145.81 137.924 144.978 138.136 144.225 138.517C143.534 138.863 143.189 139.58 143.171 140.368C143.136 141.785 143.144 143.211 143.136 144.637C143.136 145.647 142.746 146.161 141.993 146.152C141.276 146.134 140.859 145.576 140.859 144.602C140.859 142.211 140.859 139.819 140.859 137.419C140.859 136.427 141.258 135.851 141.94 135.816C142.595 135.78 143.047 136.303 143.198 137.348V137.357Z" fill="#262626"/>
<path d="M80.8525 137.454C81.7913 136.249 82.8896 135.7 84.2713 135.762C84.8913 135.789 85.3607 136.161 85.3873 136.692C85.4138 137.241 85.0064 137.657 84.3776 137.728C84.0233 137.773 83.6601 137.808 83.3147 137.888C81.6407 138.295 80.8702 139.261 80.8436 140.961C80.8259 142.29 80.8436 143.627 80.8436 144.956C80.8436 145.549 80.4982 146.018 79.949 146.125C79.3999 146.24 78.8596 145.93 78.6825 145.363C78.6028 145.106 78.5851 144.832 78.5762 144.566C78.5762 142.175 78.5673 139.783 78.5762 137.392C78.5762 137.082 78.6205 136.754 78.7356 136.471C78.9393 135.983 79.3556 135.735 79.887 135.842C80.445 135.957 80.817 136.285 80.8436 136.896C80.8436 137.02 80.8436 137.144 80.8436 137.445L80.8525 137.454Z" fill="#262626"/>
<path d="M50.2441 140.962C50.2441 139.678 50.2441 138.385 50.2441 137.1C50.2441 136.339 50.6339 135.869 51.2627 135.825C51.8738 135.789 52.4761 136.321 52.485 137.021C52.5115 139.66 52.5115 142.308 52.485 144.948C52.485 145.639 51.8738 146.179 51.2716 146.152C50.6338 146.126 50.2441 145.656 50.2441 144.895C50.2441 143.584 50.2441 142.273 50.2441 140.962Z" fill="#262626"/>
<path d="M51.2707 134.3C50.2167 134.3 49.393 133.486 49.3753 132.432C49.3576 131.263 50.199 130.395 51.3415 130.395C52.4132 130.395 53.2989 131.307 53.2901 132.405C53.2812 133.503 52.4309 134.3 51.2707 134.3Z" fill="#262626"/>
</g>
<defs>
<clipPath id="clip0_4885_43908">
<rect width="192" height="192" fill="white"/>
</clipPath>
</defs>
</svg>
