<svg width="192" height="192" viewBox="0 0 192 192" fill="none" xmlns="http://www.w3.org/2000/svg">
<g clip-path="url(#clip0_5218_40958)">
<path d="M96 192C149.019 192 192 149.019 192 96C192 42.9807 149.019 0 96 0C42.9807 0 0 42.9807 0 96C0 149.019 42.9807 192 96 192Z" fill="white"/>
<path d="M183.277 121.947C182.877 121.947 182.577 121.847 182.177 121.847C180.477 120.147 180.677 117.847 180.677 115.747C180.577 102.947 180.577 90.2471 180.677 77.4471C180.677 75.3471 180.577 73.0471 182.177 71.3471C182.577 71.3471 182.877 71.2471 183.277 71.2471C183.277 88.0471 183.277 105.047 183.277 121.947Z" fill="#64C3CD"/>
<path d="M182.276 71.2473C182.276 88.0473 182.276 104.947 182.276 121.747C166.676 121.747 150.976 121.847 135.376 121.947C133.076 121.947 132.176 121.347 132.176 118.847C132.276 103.947 132.276 88.9473 132.176 74.0473C132.176 71.6473 133.076 70.9473 135.376 70.9473C150.976 71.2473 166.576 71.2473 182.276 71.2473Z" fill="#17A6B4"/>
<path d="M103.175 111.947C103.375 111.147 103.675 110.347 103.675 109.547C103.775 108.147 103.775 106.847 105.775 106.847C107.575 106.847 107.375 108.047 107.475 109.247C107.575 110.347 107.175 111.947 108.975 111.747C110.175 111.647 110.075 110.247 110.075 109.247C110.075 107.747 110.375 106.647 112.275 106.847C114.275 107.047 113.975 108.547 113.875 109.847C113.775 114.947 111.775 115.747 106.375 115.547C96.9754 115.247 87.3754 115.647 77.9754 115.847C76.9754 115.847 75.9754 115.847 74.9754 115.847C73.5754 115.847 72.2754 115.947 72.2754 113.847C72.2754 111.847 73.6754 111.947 74.9754 111.947C81.2754 111.947 87.5754 111.947 93.8754 111.947C95.3754 111.947 97.4754 112.647 97.4754 109.947C97.4754 108.447 97.3754 106.847 99.6754 106.947C102.175 107.047 101.075 109.047 101.475 110.247C101.675 110.947 101.675 111.647 103.175 111.947Z" fill="#1BA8B5"/>
<path d="M52.4761 115.947C48.3761 115.947 44.1761 115.947 40.0761 115.947C37.3761 115.947 35.4761 114.947 35.4761 112.047C35.3761 108.447 35.4761 104.747 35.4761 101.147C35.4761 99.7475 35.8761 98.9474 37.4761 99.0474C38.6761 99.1474 39.2761 99.6475 39.2761 100.847C39.2761 101.147 39.2761 101.547 39.2761 101.847C39.5761 105.047 37.7761 109.447 40.0761 111.347C42.6761 113.447 47.0761 111.947 50.6761 112.047C55.4761 112.147 60.2761 112.047 65.0761 112.147C66.3761 112.147 68.2761 111.547 68.3761 113.947C68.4761 116.747 66.3761 115.947 64.8761 116.047C60.7761 116.047 56.6761 115.947 52.4761 115.947Z" fill="#1CA8B6"/>
<path d="M14.3754 108.947C14.3754 112.847 14.3754 116.047 14.3754 119.147C14.3754 120.447 14.4754 121.847 12.4754 121.847C10.3754 121.947 10.4754 120.647 10.4754 119.247C10.4754 117.247 10.4754 115.247 10.4754 113.247C10.4754 105.647 11.5754 104.647 19.0754 104.747C22.8754 104.747 25.1754 106.147 25.4754 110.047C25.6754 113.047 24.7754 115.347 21.3754 115.747C17.2754 116.247 15.5754 114.047 15.4754 110.247C15.4754 110.147 15.0754 109.947 14.3754 108.947Z" fill="#1BA8B6"/>
<path d="M26.6762 88.7473C22.4762 89.3473 18.4762 86.8473 13.8762 88.7473C10.9762 89.9473 8.4762 86.2472 8.9762 82.5472C9.1762 80.6472 10.5762 79.4472 10.9762 77.5472C11.3762 75.6472 13.1762 74.7472 14.9762 77.0472C15.8762 78.2472 17.1762 79.1473 17.9762 80.3473C20.6762 84.0473 24.0762 85.4472 28.6762 85.0472C30.1762 84.9472 33.2762 83.4473 33.2762 86.7473C33.2762 89.9473 30.2762 88.2472 28.6762 88.6472C28.0762 88.8472 27.3762 88.7473 26.6762 88.7473Z" fill="#1DA9B6"/>
<path d="M107.377 81.7474C105.277 80.5474 103.477 81.1473 101.777 80.9473C100.177 80.7473 99.9771 79.6473 99.7771 78.5473C99.5771 76.9473 100.877 77.1473 101.777 77.1473C103.977 77.1473 106.077 77.0473 108.177 77.4473C110.377 77.8473 111.277 79.6474 111.777 81.7474C112.377 84.1474 110.377 84.3474 109.177 85.3474C102.877 90.1474 95.5771 88.5474 88.4771 88.7474C87.0771 88.7474 86.4771 87.8473 86.5771 86.4473C86.6771 85.0473 87.7771 85.0473 88.7771 85.0473C92.2771 85.0473 95.7771 85.0473 99.2771 85.0473C102.277 84.9473 104.877 84.0474 107.377 81.7474Z" fill="#21AAB7"/>
<path d="M66.5762 79.1474C66.5762 77.4474 66.5762 75.8474 66.5762 74.1474C66.5762 72.8474 66.9762 71.9474 68.5762 71.8474C70.1762 71.7474 70.5762 72.6474 70.4762 74.0474C70.4762 74.2474 70.4762 74.3474 70.4762 74.5474C70.7762 77.7474 69.0762 81.7474 71.2762 84.1474C73.3762 86.3474 77.2762 84.6474 80.3762 84.9474C81.6762 85.0474 83.1762 84.8474 83.0762 86.9474C82.9762 88.4474 81.9762 88.8474 80.6762 88.8474C79.1762 88.8474 77.6762 88.8474 76.1762 88.8474C66.5762 88.7474 66.5762 88.7474 66.5762 79.1474Z" fill="#23ABB8"/>
<path d="M44.4754 88.7471C42.7754 88.7471 41.1754 88.7471 39.4754 88.7471C38.0754 88.7471 37.2754 88.1471 37.2754 86.6471C37.2754 84.9471 38.4754 84.9471 39.6754 84.9471C41.3754 84.9471 42.9754 84.9471 44.6754 84.9471C47.3754 84.8471 50.7754 85.9471 50.3754 81.1471C50.2754 80.1471 51.1754 79.7471 52.0754 79.7471C53.1754 79.7471 53.8754 80.1471 54.1754 81.3471C55.0754 84.6471 52.8754 88.2471 49.3754 88.6471C47.7754 88.8471 46.1754 88.7471 44.4754 88.7471Z" fill="#25ACB9"/>
<path d="M108.076 73.1475C107.776 74.2475 107.276 74.9475 106.076 74.9475C104.576 74.9475 104.076 73.9475 104.276 72.6475C104.376 71.5475 105.176 70.9475 106.376 71.1475C107.476 71.3475 107.976 72.1475 108.076 73.1475Z" fill="#35B2BE"/>
<path d="M47.877 75.1473C48.177 74.0473 48.777 73.2473 49.977 73.3473C51.077 73.4473 51.677 74.2473 51.677 75.4473C51.677 76.6473 50.877 77.2473 49.677 77.1473C48.477 77.0473 47.877 76.2473 47.877 75.1473Z" fill="#33B1BD"/>
<path d="M158.976 102.447C158.376 102.147 157.376 101.848 157.076 101.348C155.976 98.9475 154.976 99.8475 153.676 101.148C152.176 102.748 150.376 102.948 148.876 101.348C146.876 99.2475 143.376 97.8475 143.676 94.5475C143.876 91.9475 146.176 91.3475 148.576 92.9475C149.776 93.7475 150.576 96.1475 152.576 94.1475C154.776 91.9475 156.776 90.7475 158.876 94.3475C159.476 95.4475 160.176 94.4475 160.876 94.0475C164.376 91.9475 170.776 95.0475 171.476 99.1475C171.676 100.148 171.476 101.148 170.676 101.848C169.676 102.648 168.276 102.947 167.476 102.047C165.176 99.4475 163.076 99.2475 160.776 102.047C160.376 102.247 159.776 102.247 158.976 102.447Z" fill="#FCFDFD"/>
<path d="M168.776 82.5474C170.776 82.8474 171.676 83.9474 171.476 85.6474C171.276 87.4474 170.176 88.2474 168.376 88.0474C166.776 87.8474 166.176 86.7474 166.176 85.2474C166.176 83.3474 167.376 82.7474 168.776 82.5474Z" fill="#F6FBFC"/>
<path d="M21.4766 110.648C21.3766 111.248 21.2766 111.948 20.3766 111.848C19.5766 111.748 19.4766 111.048 19.4766 110.348C19.4766 109.748 19.4766 108.948 20.4766 109.148C21.2766 109.248 21.4766 109.948 21.4766 110.648Z" fill="#F8FCFC"/>
<path d="M13.9753 81.3472C14.9753 81.7472 15.5753 82.5472 15.4753 83.6472C15.3753 84.5472 14.7753 85.1471 13.7753 85.0471C12.5753 84.9471 12.0753 84.0471 12.2753 82.9471C12.4753 82.0471 12.9753 81.4472 13.9753 81.3472Z" fill="#E6F5F7"/>
</g>
<defs>
<clipPath id="clip0_5218_40958">
<rect width="192" height="192" fill="white"/>
</clipPath>
</defs>
</svg>
