<svg width="192" height="192" viewBox="0 0 192 192" fill="none" xmlns="http://www.w3.org/2000/svg">
<g clip-path="url(#clip0_4885_43140)">
<path d="M96 192C149.019 192 192 149.019 192 96C192 42.9807 149.019 0 96 0C42.9807 0 0 42.9807 0 96C0 149.019 42.9807 192 96 192Z" fill="white"/>
<path d="M139.377 134.738C138.026 134.962 136.647 135.083 135.268 135.083C111.295 135.111 87.3129 135.111 63.3401 135.102C50.9764 135.083 40.8581 126.567 38.7525 114.446C38.5754 113.337 38.6313 112.2 38.5568 110.775H40.6252C44.8831 110.775 49.1316 110.793 53.3895 110.756C55.5045 110.737 57.489 110.355 58.2623 113.383C58.7561 115.331 60.8618 116.216 63.0327 116.216C87.1265 116.216 111.23 116.234 135.324 116.216C138.613 116.197 141.231 113.533 141.1 110.383C140.97 107.234 138.268 104.849 135.221 104.849C109.618 104.905 84.024 104.877 58.4207 104.896C51.2373 104.914 44.8458 102.883 39.6376 97.8147C34.8486 93.1655 32.1653 87.4914 32.0908 80.7459C32.0442 76.1992 31.8765 71.6431 32.1653 67.1151C32.7616 57.3322 37.3363 49.9065 46.5788 46.2449C60.7686 40.6174 75.033 46.9343 80.5394 61.7578C82.5239 67.1244 81.9463 72.7239 81.8251 78.2769C81.8065 79.4788 81.1823 79.8515 79.9617 79.8328C74.9212 79.7769 69.8993 79.7397 64.8588 79.8328C63.3401 79.8608 63.042 79.2738 63.0886 77.9415C63.1631 75.0718 63.1445 72.1928 63.0886 69.3139C63.042 67.0033 60.6009 63.9752 58.3648 63.2671C56.0263 62.5497 53.3057 63.4162 51.9454 65.6243C51.2839 66.6772 50.8367 68.0374 50.7901 69.2952C50.641 72.7612 50.7342 76.2271 50.7621 79.7024C50.7901 83.541 53.3616 86.0287 57.2561 86.0287C83.2041 86.01 109.161 85.9541 135.119 85.9821C144.566 86.0007 151.889 90.1375 156.641 98.2712C165.315 113.132 156.352 131.906 139.358 134.738H139.377Z" fill="#E01E29"/>
<path d="M144.983 134.86V147.689H143.501C142.104 143.823 140.772 140.04 139.393 136.201C141.293 135.735 143.063 135.316 144.992 134.869L144.983 134.86Z" fill="#E01E29"/>
<path d="M58.9708 136.211C57.6385 139.919 56.2968 143.637 54.8154 147.717C54.7129 147.717 54.098 147.745 53.334 147.792V134.851C55.3558 135.344 57.126 135.764 58.9708 136.22V136.211Z" fill="#E01E29"/>
</g>
<defs>
<clipPath id="clip0_4885_43140">
<rect width="192" height="192" fill="white"/>
</clipPath>
</defs>
</svg>
