<svg width="192" height="192" viewBox="0 0 192 192" fill="none" xmlns="http://www.w3.org/2000/svg">
<g clip-path="url(#clip0_4885_43263)">
<path d="M96 192C149.019 192 192 149.019 192 96C192 42.9807 149.019 0 96 0C42.9807 0 0 42.9807 0 96C0 149.019 42.9807 192 96 192Z" fill="#051D72"/>
<path d="M23.4902 108.855C23.6102 108.165 23.6902 107.465 23.8702 106.795C24.5702 104.165 26.1002 102.025 28.0102 100.155C31.1202 97.1047 34.8302 95.0147 38.8802 93.4947C42.4202 92.1647 46.0602 91.3747 49.8602 91.4447C50.4902 91.4547 51.1202 91.5247 51.8202 91.5747C51.6802 91.2947 51.5602 91.0347 51.4202 90.7947C50.2702 88.7647 48.6402 87.1647 46.7802 85.8047C44.4402 84.0947 42.0302 82.4547 39.6602 80.7847C38.5402 79.9947 37.6202 79.0247 37.1302 77.7047C36.0102 74.6947 38.1002 71.6547 41.3102 71.5947C42.4802 71.5747 43.5702 71.8847 44.6002 72.4147C44.9502 72.5947 45.0602 72.8647 44.9202 73.1447C44.7702 73.4447 44.4802 73.5247 44.1102 73.3347C43.1202 72.8247 42.1002 72.5247 40.9702 72.6447C38.6702 72.8947 37.2802 75.0547 38.0302 77.2447C38.4402 78.4347 39.2602 79.2847 40.2502 79.9947C42.2502 81.4147 44.2702 82.8047 46.2502 84.2447C48.1202 85.6047 49.9002 87.0647 51.2502 88.9547C51.8102 89.7347 52.2402 90.6047 52.7002 91.4447C52.8202 91.6747 52.9502 91.7847 53.2102 91.8447C54.7302 92.2047 56.1402 92.8047 57.3202 93.8547C59.0702 95.4047 59.7602 97.4247 59.7602 99.6847C59.7602 101.195 59.6402 102.705 59.5702 104.225C59.5702 104.315 59.5702 104.415 59.5702 104.615C60.7002 104.355 61.8102 104.145 62.8902 103.825C64.2502 103.425 65.5902 102.975 66.9302 102.505C69.7202 101.515 72.4902 101.345 75.3402 102.315C77.9502 103.195 80.6802 103.255 83.4002 102.995C84.8502 102.855 86.2802 102.555 87.7202 102.315C87.9402 102.275 88.1502 102.175 88.4702 102.075C87.3302 101.175 86.0702 101.345 84.8202 101.295V102.405C83.1402 102.385 81.4902 102.505 79.8902 101.945C80.0202 101.425 80.3502 101.115 80.7802 100.995C81.3702 100.835 81.9902 100.735 82.6002 100.665C83.1102 100.615 83.6402 100.655 84.2002 100.655C84.2002 99.4747 84.1302 98.3347 83.8302 97.2247C83.3202 95.3647 83.1602 93.4647 83.0702 91.5547C83.0702 91.4847 83.0702 91.4247 83.0502 91.3047C82.8502 91.4547 82.6902 91.6047 82.5102 91.7147C82.2002 91.9047 81.9502 91.8147 81.8902 91.4647C81.7702 90.7647 81.6402 90.0547 81.5702 89.3447C81.5002 88.6747 81.6302 88.0247 81.9702 87.4347C82.1502 87.1247 82.1802 86.8047 82.1002 86.4447C81.8802 85.4347 81.7002 84.4247 81.5002 83.4247C81.3202 83.4047 81.1502 83.4247 81.0102 83.3747C80.5802 83.1747 80.5102 82.8547 80.8202 82.4947C80.9402 82.3647 81.0702 82.2247 81.2202 82.1347C81.8302 81.7747 82.1802 81.2347 82.3302 80.5647C82.5102 79.7747 82.9702 79.3147 83.7902 79.2247C83.8402 79.2247 83.8902 79.1847 83.9502 79.1647C84.0602 78.2247 83.6202 77.1247 84.7302 76.4747C85.4302 76.8647 85.6402 77.2647 85.5502 78.0547C85.4202 79.1647 85.5502 79.4347 86.5502 79.9647C86.8602 80.1347 87.2002 80.2647 87.5302 80.4147C88.5402 80.8747 89.5702 81.3047 90.5702 81.7847C91.9802 82.4647 93.4702 82.6647 95.0002 82.5047C97.0402 82.2847 99.0702 82.0047 101.1 81.6947C103.48 81.3247 105.86 80.9447 108.29 80.9847C109.38 81.0047 109.48 80.8347 109.42 79.7447C109.37 78.9947 109.36 78.2347 109.37 77.4747C109.39 76.6847 109.75 76.3147 110.53 76.3547C111.39 76.3947 112.25 76.5447 113.06 76.6347C113.01 77.9147 112.97 79.1147 112.91 80.3047C112.89 80.6447 112.97 80.7847 113.35 80.8647C115.04 81.2147 116.36 82.0847 117.09 83.7347C117.51 84.6747 117.36 85.6147 117.2 86.5747C117.14 86.9547 117.14 87.3447 117.15 87.7247C117.15 87.8247 117.3 87.9947 117.4 88.0047C117.71 88.0447 118.03 88.0147 118.42 88.0147C118.33 87.1647 118.25 86.3647 118.17 85.5647C118.05 84.4447 117.94 83.3147 118.22 82.1947C118.38 81.5547 118.66 80.9847 119.15 80.5447C119.97 80.9847 120.25 81.6847 120.15 82.5647C120.27 81.1847 119.93 79.7247 120.98 78.5047C121.29 78.6547 121.59 78.7947 121.94 78.9647C121.89 78.5847 121.85 78.2447 121.8 77.9147C121.77 77.6947 121.86 77.5847 122.07 77.5447C122.22 77.5147 122.37 77.4747 122.52 77.4547C123.33 77.3547 123.81 77.6147 124.01 78.4147C124.23 79.2647 124.37 80.1347 124.5 81.0047C124.6 81.6847 124.64 82.3747 124.69 83.0547C124.74 83.7447 124.76 84.4247 124.79 85.1547C124.92 84.8247 125.02 84.5047 125.17 84.2147C125.53 83.5047 126.06 83.3447 126.78 83.6747C127.37 83.9447 127.71 84.2747 127.65 85.0347C127.51 87.0147 127.44 88.9947 127.42 90.9747C127.41 91.8747 127.55 92.7847 127.66 93.6847C127.79 94.8147 127.48 95.7447 126.48 96.5347C126.72 96.5047 126.86 96.4947 126.99 96.4747C127.14 96.4547 127.29 96.4347 127.44 96.4047C128.65 96.1347 129.84 96.1447 131.03 96.5047C131.97 96.7947 132.87 96.7547 133.84 96.4047C135.2 95.9147 135.1 95.9047 135.57 97.3047C135.71 97.7147 135.71 98.2047 135.64 98.6447C135.55 99.2847 135.04 99.6347 134.45 99.4747C133.01 99.0647 131.58 99.0447 130.13 99.4147C129.37 99.6147 128.63 99.4347 127.91 99.1547C127.45 98.9747 126.99 98.8047 126.51 98.6647C126.02 98.5147 125.57 98.6647 125.12 98.8847C124.64 99.1347 124.14 99.3547 123.6 99.6047C123.46 102.145 124.82 103.855 127.12 104.205C129.04 104.505 130.91 104.155 132.76 103.665C134.05 103.325 135.35 102.985 136.59 102.515C138.74 101.695 140.87 101.755 143.03 102.425C144.82 102.985 146.6 103.555 148.39 104.075C149.49 104.385 150.63 104.555 151.78 104.395C153 104.225 154.05 103.755 154.79 102.725C155.14 102.225 155.45 102.085 155.93 102.115C155.84 102.265 155.77 102.385 155.69 102.505C154.35 104.355 152.52 105.055 150.28 104.845C148.47 104.675 146.78 104.035 145.05 103.535C143.68 103.135 142.3 102.745 140.89 102.515C139.1 102.225 137.36 102.615 135.66 103.205C134.26 103.695 132.87 104.235 131.45 104.645C129.41 105.245 127.41 104.955 125.48 104.125C124.07 103.525 123.35 102.425 123.18 100.905C123.06 99.8447 122.9 98.7847 122.7 97.7247C122.58 97.1047 122.84 96.7247 123.34 96.4047C121.76 96.1647 120.2 95.8847 118.62 96.1047C117.71 96.2347 117.36 96.6547 117.35 97.5847C117.35 98.2747 117.43 98.9547 117.43 99.6447C117.43 100.225 117.46 100.805 117.37 101.375C117.08 103.125 116.11 104.185 114.26 104.495C111.16 105.005 108.05 104.935 105.01 104.025C104.4 103.845 103.81 103.465 103.31 103.055C102.69 102.545 102.64 101.975 103.09 101.295C103.58 100.555 104.14 99.8447 104.68 99.1347C105.95 97.4647 106.98 95.6647 107.35 93.5747C107.45 93.0347 107.5 92.4847 107.49 91.9347C107.47 90.7347 106.89 89.8447 105.82 89.2847C104.91 88.8047 103.93 88.5947 102.92 88.5347C101.46 88.4447 100 88.4247 98.5402 88.3947C96.6502 88.3547 94.7602 88.3347 92.8802 88.3147C92.3602 88.3147 91.8302 88.3147 91.3102 88.3747C90.2802 88.4747 89.4602 88.9647 88.9902 89.8947C88.6402 90.5847 88.4102 91.3447 88.1102 92.0647C87.7902 92.8547 87.4802 93.6447 87.1202 94.4147C87.0002 94.6747 86.7702 94.9147 86.5402 95.0947C86.1902 95.3647 85.7902 95.1747 85.7902 94.7347C85.7902 94.3847 85.8402 94.0047 85.9702 93.6847C86.5802 92.2747 86.8802 90.7747 87.2202 89.2947C87.2402 89.2147 87.2702 89.1347 87.2902 89.0547C87.7002 87.2947 88.8702 86.3747 90.6102 86.1347C91.1702 86.0547 91.7302 85.9847 92.3002 85.9847C96.9402 85.9347 101.59 85.8647 106.23 85.8947C107.86 85.9047 109.49 86.1747 111.12 86.3147C111.75 86.3647 112.38 86.4047 113.02 86.4347C114.34 86.4847 115.56 86.7647 116.57 87.8647C116.62 87.4247 116.68 87.0847 116.69 86.7447C116.72 85.9547 116.85 85.1347 116.72 84.3647C116.45 82.7447 114.6 81.3347 112.95 81.4147C111.06 81.5047 109.18 81.6547 107.3 81.7847C106.09 81.8647 104.87 81.8947 103.67 82.0447C102 82.2447 100.35 82.5347 98.6902 82.7747C96.6202 83.0847 94.5402 83.3647 92.4402 83.0547C91.8402 82.9647 91.2202 82.7947 90.6702 82.5447C89.0902 81.8347 87.5402 81.0547 85.9702 80.3047C85.8502 80.2447 85.7202 80.1947 85.5302 80.1147C85.5302 80.6747 85.5602 81.1847 85.5302 81.6947C85.4302 83.1447 85.2102 84.5947 85.2002 86.0447C85.1802 88.5747 85.2702 91.1047 85.3202 93.6347C85.3202 93.8247 85.3902 94.0147 85.4202 94.2047C85.4402 94.3447 85.4702 94.4747 85.4802 94.6147C85.5102 95.0447 85.3702 95.4547 84.9902 95.6347C84.7402 95.7447 84.3902 95.6347 84.1602 95.6247C84.4102 97.1947 84.6802 98.8947 84.9502 100.615C85.5402 100.675 86.2202 100.725 86.9002 100.825C87.3202 100.885 87.7302 101.015 88.1402 101.115C88.2202 101.135 88.3102 101.155 88.3702 101.195C88.6202 101.405 88.9502 101.585 89.0602 101.855C89.1102 101.975 88.7502 102.335 88.5202 102.495C87.6702 103.105 86.6602 103.335 85.6502 103.455C81.7802 103.925 77.9402 103.805 74.2002 102.625C71.8802 101.895 69.6702 102.155 67.4502 102.945C65.8302 103.515 64.2202 104.135 62.5802 104.645C61.6002 104.945 60.5702 105.065 59.5202 105.275C59.3602 106.135 59.2002 107.095 58.9902 108.045C58.5902 109.855 58.0202 111.595 57.1002 113.215C56.5202 114.245 55.8002 115.165 54.9002 115.925C54.8502 115.965 54.8102 116.015 54.6902 116.125C92.6902 116.535 130.6 116.935 168.51 117.345C168.51 117.395 168.51 117.445 168.51 117.495C168.39 117.505 168.26 117.525 168.14 117.525C156.18 117.725 144.22 117.925 132.25 118.125C120.88 118.315 109.51 118.505 98.1402 118.705C83.3802 118.955 68.6202 119.205 53.8602 119.445C51.9202 119.475 49.9702 119.495 48.0302 119.405C47.0302 119.355 46.0302 119.055 45.0402 118.835C44.7802 118.775 44.5302 118.635 44.2902 118.495C43.6202 118.075 43.5902 117.495 44.2902 117.135C44.8702 116.835 45.5102 116.615 46.1402 116.465C47.8802 116.055 49.6702 116.005 51.4402 116.125C52.5702 116.195 53.4402 115.775 54.2602 115.095C55.4302 114.115 56.2102 112.865 56.8202 111.485C57.6902 109.535 58.1502 107.475 58.4702 105.375C58.4702 105.325 58.4702 105.265 58.4702 105.215C57.9102 105.145 57.3702 105.095 56.8302 105.005C54.8802 104.655 53.5302 103.615 53.0702 101.515C52.9702 101.855 52.8902 102.115 52.8102 102.375C51.7902 105.695 50.0402 108.625 47.9002 111.335C45.6002 114.245 42.9402 116.765 39.6802 118.585C38.0302 119.505 36.2902 120.165 34.3902 120.355C31.7102 120.625 29.4002 119.825 27.4902 117.945C25.5902 116.085 24.2402 113.895 23.7002 111.255C23.6202 110.845 23.5602 110.425 23.4902 110.005C23.4902 109.615 23.4902 109.235 23.4902 108.845V108.855ZM52.8802 96.7447C52.8902 95.3847 52.7202 94.0547 52.2902 92.7647C52.2202 92.5447 52.1202 92.4347 51.8702 92.4047C50.1902 92.1547 48.5102 92.1547 46.8402 92.3647C40.6402 93.1447 35.0502 95.4547 30.1202 99.3047C28.0202 100.945 26.2302 102.885 25.0202 105.295C23.9502 107.445 23.5802 109.695 24.1502 112.065C24.6202 113.995 25.6102 115.645 26.9102 117.125C28.9802 119.485 31.5602 120.405 34.6602 119.865C36.6802 119.515 38.5002 118.685 40.1902 117.575C44.5202 114.735 47.8002 110.935 50.2802 106.415C51.9302 103.405 52.8002 100.185 52.8702 96.7547L52.8802 96.7447ZM124.77 86.8947C124.65 87.9747 124.55 89.1647 124.38 90.3447C124.21 91.4747 123.93 92.5847 123.32 93.5747C122.92 94.2247 122.39 94.7547 121.6 94.7847C120.42 94.8447 119.24 94.8447 118.06 94.7847C117.21 94.7447 116.66 94.2147 116.48 93.3847C116.36 92.8547 116.33 92.2947 116.31 91.7447C116.28 90.9747 116.32 90.2047 116.29 89.4347C116.24 88.2547 115.85 87.7447 114.73 87.3747C114.29 87.2247 113.83 87.1147 113.37 87.0347C111.01 86.6147 108.63 86.5547 106.25 86.5447C102.72 86.5247 99.2002 86.5447 95.6702 86.5347C94.2102 86.5347 92.7502 86.4347 91.2902 86.4647C89.3902 86.5047 88.4202 87.2647 87.8202 89.0647C87.7802 89.1947 87.7302 89.3247 87.7002 89.4547C87.4402 90.5547 87.1902 91.6447 86.9402 92.7447C86.9102 92.8647 86.9102 92.9847 86.8902 93.1047C86.9302 93.1147 86.9702 93.1247 87.0102 93.1347C87.2002 92.6747 87.4302 92.2147 87.5802 91.7447C87.7702 91.1847 87.8902 90.6047 88.0602 90.0447C88.3902 88.9647 89.1202 88.2847 90.2102 88.0247C90.8202 87.8847 91.4602 87.7747 92.0902 87.7847C95.1802 87.7847 98.2602 87.8147 101.35 87.8747C102.78 87.9047 104.22 87.9647 105.59 88.4347C107.32 89.0347 108.16 90.2247 108.04 92.0447C107.89 94.4447 107.21 96.6747 105.73 98.6047C105.09 99.4447 104.36 100.225 103.69 101.045C103.19 101.645 103.25 102.355 103.84 102.875C104.08 103.085 104.37 103.295 104.68 103.385C105.48 103.615 106.3 103.895 107.12 103.945C108.96 104.045 110.81 104.065 112.65 104.025C113.46 104.005 114.29 103.815 115.07 103.585C116.02 103.305 116.6 102.625 116.72 101.615C116.77 101.225 116.78 100.815 116.77 100.425C116.75 99.5547 116.68 98.6947 116.69 97.8247C116.7 96.3947 117.38 95.6047 118.81 95.5547C120.07 95.5147 121.33 95.6647 122.59 95.7447C123.2 95.7847 123.81 95.8647 124.43 95.9247C124.56 92.8247 125.33 89.8247 124.75 86.8747L124.77 86.8947ZM53.2302 92.6947C53.2302 92.6947 53.2002 92.7547 53.2102 92.7647C53.8802 95.1647 53.8202 97.5747 53.3702 99.9947C53.3502 100.125 53.3702 100.265 53.4002 100.395C53.5002 100.765 53.6702 101.125 53.7302 101.495C53.9202 102.555 54.5002 103.315 55.4202 103.855C56.3902 104.425 57.4302 104.625 58.6602 104.605C58.7202 102.855 58.8402 101.145 58.8102 99.4347C58.7402 95.9547 56.6602 93.4847 53.2302 92.6947ZM116.84 88.4247C116.87 89.0047 116.93 89.6847 116.95 90.3647C116.97 91.0647 116.95 91.7647 116.98 92.4647C117 92.9147 117.07 93.3647 117.11 93.8147C117.13 94.0447 117.24 94.1647 117.46 94.1847C118.42 94.2747 119.37 94.4447 120.33 94.4547C121.86 94.4547 122.87 93.7547 123.3 92.3047C123.66 91.0947 123.93 89.8447 124.05 88.5947C124.29 85.9047 124.06 83.2047 123.88 80.5147C123.84 79.9147 123.73 79.3147 123.58 78.7347C123.44 78.1747 123.03 77.9747 122.41 78.0747C122.58 79.4047 122.75 80.7447 122.91 82.0747C123.29 85.1747 123.12 88.2547 122.61 91.3147C122.51 91.9047 122.33 92.4547 121.92 92.9247C121.72 93.1547 121.52 93.1747 121.27 93.0247C120.77 92.7247 120.59 92.2447 120.51 91.7147C120.44 91.2347 120.42 90.7347 120.38 90.2347C120.27 90.2147 120.16 90.1947 120.06 90.1847C119.45 90.1547 119.06 89.8447 118.88 89.2647C118.84 89.1347 118.82 88.9847 118.73 88.8847C118.64 88.7747 118.5 88.6547 118.37 88.6347C117.85 88.5447 117.33 88.4847 116.84 88.4147V88.4247ZM127.16 86.0147C127.16 86.0147 127.2 86.0147 127.22 86.0147C127.17 85.5647 127.15 85.1147 127.05 84.6747C126.95 84.2547 126.67 84.1147 126.19 84.1647C125.63 84.2147 125.52 84.2947 125.47 84.8047C125.41 85.5247 125.33 86.2647 125.37 86.9847C125.48 88.9647 125.56 90.9447 125.22 92.9147C125.08 93.7147 124.98 94.5147 124.89 95.3247C124.87 95.4847 124.99 95.7747 125.12 95.8247C125.5 95.9747 125.93 96.0647 126.31 95.8047C126.69 95.5447 127.02 95.3047 126.98 94.7047C126.87 93.1147 126.78 91.5147 126.81 89.9247C126.83 88.6247 127.04 87.3247 127.16 86.0247V86.0147ZM134.87 98.9247C135.11 98.1547 135.11 97.4847 134.87 96.7447C134.5 96.8547 134.13 96.9147 133.81 97.0747C132.74 97.6047 131.68 97.6147 130.58 97.1547C129.53 96.7047 128.46 96.6247 127.35 96.9247C126.46 97.1747 125.57 97.2147 124.7 96.7647C124.37 96.5947 123.98 96.5447 123.71 96.4647C123.75 97.2747 123.78 98.0547 123.82 98.9147C124.07 98.8147 124.35 98.7447 124.56 98.5947C125.07 98.2247 125.63 98.0847 126.24 98.2047C126.67 98.2947 127.09 98.4147 127.5 98.5547C128.72 98.9847 129.93 99.1047 131.17 98.6147C132.04 98.2647 132.91 98.2947 133.79 98.6147C134.13 98.7447 134.49 98.8047 134.87 98.9047V98.9247ZM120.8 88.8947C121.36 88.1347 121.56 87.2847 121.67 86.4047C121.94 84.1747 121.78 81.9547 121.43 79.7447C121.4 79.5347 121.27 79.3447 121.19 79.1447C121.1 79.3547 120.97 79.5447 120.94 79.7647C120.57 82.1147 120.54 84.4747 120.7 86.8447C120.75 87.5247 120.77 88.2047 120.81 88.8947H120.8ZM84.3602 79.9347C84.2802 80.3847 84.1402 80.8047 84.1402 81.2247C84.1202 85.3947 84.1402 89.5647 84.1402 93.7447C84.1402 93.9447 84.1602 94.1647 84.2302 94.3547C84.3302 94.6247 84.4802 94.8747 84.6102 95.1347L84.7202 95.0947C84.7402 94.8247 84.7902 94.5447 84.7702 94.2747C84.7202 93.2447 84.6302 92.2147 84.5802 91.1847C84.5102 89.8847 84.3602 88.5647 84.4402 87.2747C84.5702 85.2447 84.8702 83.2247 85.0902 81.2047C85.1602 80.5647 85.0202 80.2947 84.3702 79.9447L84.3602 79.9347ZM52.1302 117.815C51.9102 117.565 51.6802 117.445 51.3602 117.505C51.0502 117.565 50.7302 117.605 50.4902 117.295C50.4602 117.245 50.3702 117.215 50.3102 117.215C48.9502 117.075 47.5902 117.085 46.2602 117.475C46.0702 117.535 45.9002 117.675 45.7002 117.785C46.5902 118.745 51.2402 118.745 52.1302 117.815ZM112.24 77.8347C111.47 77.7447 110.73 77.6547 109.97 77.5647V80.3247C110.52 80.4047 111.05 80.4947 111.58 80.5747C112.06 80.6447 112.22 80.5247 112.24 80.0347C112.26 79.3047 112.24 78.5847 112.24 77.8247V77.8347ZM118.91 87.4147C118.96 87.4247 119.02 87.4347 119.07 87.4547C119.17 87.2547 119.32 87.0747 119.37 86.8647C119.69 85.4447 119.67 84.0047 119.56 82.5647C119.53 82.1547 119.45 81.7547 119.37 81.2647C118.94 81.6947 118.81 82.1447 118.79 82.6147C118.75 83.6047 118.71 84.5947 118.73 85.5747C118.73 86.1847 118.84 86.7947 118.91 87.4147ZM82.2302 82.9247C82.2302 82.9247 82.1702 83.0147 82.1402 83.0647C82.4202 84.4947 82.7002 85.9147 83.0002 87.3447C83.0302 87.5047 83.1602 87.6447 83.2802 87.8447C83.3202 87.7147 83.3402 87.6647 83.3502 87.6047C83.4002 86.2847 83.4602 84.9647 83.5002 83.6547C83.5002 83.5847 83.4802 83.4647 83.4302 83.4447C83.0302 83.2647 82.6302 83.1047 82.2302 82.9347V82.9247ZM83.5102 82.3347C83.5802 81.5047 83.6602 80.6547 83.7402 79.7347C82.9802 80.3147 82.3902 81.4247 82.4202 82.0847C82.7802 82.1647 83.1302 82.2447 83.5102 82.3247V82.3347Z" fill="white"/>
<path d="M158.241 109.555C158.731 108.985 159.291 108.725 159.991 108.765C160.801 108.815 161.371 109.275 161.431 110.075C161.501 111.015 161.481 111.975 161.491 112.915C161.491 113.315 161.491 113.705 161.491 114.135H160.441C160.441 113.375 160.441 112.615 160.441 111.865C160.441 111.455 160.441 111.035 160.441 110.625C160.421 110.035 160.221 109.765 159.771 109.685C159.291 109.605 158.751 109.865 158.591 110.315C158.501 110.575 158.461 110.875 158.461 111.165C158.441 112.135 158.461 113.115 158.461 114.125H157.401C157.401 113.985 157.401 113.835 157.401 113.695C157.401 112.695 157.401 111.685 157.401 110.685C157.401 110.035 157.181 109.735 156.711 109.685C156.171 109.625 155.641 109.955 155.511 110.485C155.441 110.785 155.411 111.115 155.411 111.425C155.401 112.315 155.411 113.205 155.411 114.135H154.391V108.895H155.301C155.321 109.035 155.331 109.165 155.351 109.355C155.801 108.985 156.281 108.745 156.861 108.765C157.451 108.785 157.931 108.995 158.261 109.555H158.241Z" fill="white"/>
<path d="M98.9497 114.435C99.1497 114.455 99.3297 114.475 99.5097 114.495C99.7397 114.525 99.9597 114.555 100.01 114.865C100.03 114.975 100.16 115.105 100.26 115.175C101.12 115.745 102.26 115.215 102.37 114.195C102.38 114.045 102.37 113.895 102.37 113.765C102.03 113.895 101.7 114.085 101.35 114.135C100.01 114.335 98.9897 113.485 98.7797 112.015C98.6897 111.385 98.7497 110.755 98.9997 110.155C99.5697 108.775 101.1 108.345 102.31 109.215C102.34 109.235 102.38 109.255 102.45 109.295C102.47 109.145 102.49 109.025 102.5 108.885H103.39C103.41 108.935 103.44 108.985 103.44 109.035C103.43 110.755 103.44 112.475 103.39 114.195C103.35 115.445 102.65 116.145 101.39 116.215C100.85 116.245 100.26 116.135 99.7497 115.955C99.1297 115.725 98.8897 115.175 98.9597 114.445L98.9497 114.435ZM99.7597 111.445C99.8297 111.795 99.8697 112.175 99.9897 112.515C100.17 113.015 100.58 113.275 101.11 113.275C101.62 113.275 102.03 113.045 102.23 112.575C102.54 111.845 102.55 111.095 102.23 110.375C102 109.885 101.59 109.625 101.03 109.665C100.5 109.695 100.16 109.995 99.9797 110.465C99.8697 110.765 99.8397 111.105 99.7597 111.445Z" fill="white"/>
<path d="M119.29 113.695C118.72 114.175 118.07 114.265 117.38 114.095C116.5 113.885 115.83 113.035 115.73 111.945C115.69 111.475 115.72 110.975 115.83 110.515C116.29 108.655 118.24 108.305 119.38 109.285C119.41 109.145 119.43 109.015 119.45 108.875H120.34C120.34 108.875 120.39 108.955 120.39 108.995C120.38 110.755 120.39 112.515 120.33 114.275C120.29 115.395 119.58 116.075 118.44 116.205C117.81 116.285 117.2 116.235 116.63 115.925C116.06 115.615 115.81 115.085 115.91 114.415C116.22 114.455 116.53 114.495 116.83 114.535C117.11 115.255 117.63 115.485 118.47 115.285C119.11 115.125 119.4 114.565 119.29 113.675V113.695ZM119.46 111.485C119.38 111.135 119.34 110.755 119.19 110.425C118.98 109.935 118.58 109.655 118.02 109.665C117.52 109.675 117.08 109.975 116.9 110.495C116.67 111.165 116.67 111.845 116.93 112.515C117.12 113.015 117.52 113.275 118.05 113.275C118.58 113.275 118.99 113.035 119.19 112.535C119.32 112.205 119.36 111.845 119.45 111.475L119.46 111.485Z" fill="white"/>
<path d="M81.4511 114.435C81.7011 114.465 81.9211 114.465 82.1211 114.535C82.2611 114.585 82.3711 114.715 82.4711 114.835C82.5411 114.915 82.5711 115.045 82.6511 115.105C83.1111 115.455 83.6311 115.435 84.1411 115.275C84.5911 115.125 84.8011 114.765 84.8411 114.295C84.8511 114.125 84.8411 113.945 84.8411 113.785C84.5011 113.915 84.1811 114.095 83.8411 114.145C82.6711 114.325 81.7611 113.725 81.3811 112.555C81.1211 111.725 81.1611 110.895 81.5111 110.095C82.0811 108.785 83.5611 108.375 84.7411 109.185C84.7811 109.215 84.8311 109.235 84.9011 109.285C84.9211 109.145 84.9411 109.025 84.9611 108.895H85.9111C85.9111 109.065 85.9111 109.205 85.9111 109.355C85.9111 110.665 85.9111 111.965 85.9111 113.275C85.9111 113.445 85.9111 113.605 85.9111 113.775C85.8711 115.755 84.4211 116.765 82.5411 116.125C81.7511 115.855 81.3811 115.325 81.4311 114.445L81.4511 114.435ZM84.9911 111.515C84.9311 111.185 84.9011 110.845 84.8011 110.545C84.6111 109.975 84.1411 109.655 83.5911 109.665C83.0611 109.665 82.6311 110.005 82.4411 110.565C82.2311 111.195 82.2511 111.845 82.4711 112.465C82.6511 112.965 83.1011 113.265 83.6011 113.275C84.1211 113.285 84.5911 112.985 84.7811 112.465C84.8911 112.155 84.9211 111.825 84.9911 111.505V111.515Z" fill="white"/>
<path d="M68.6601 110.655C68.3801 111.705 68.1001 112.745 67.8301 113.795C67.7601 114.065 67.6701 114.225 67.3701 114.165C67.0701 114.105 66.7101 114.335 66.5601 113.805C66.1001 112.165 65.5901 110.545 65.0801 108.885H66.1701C66.5001 110.085 66.8401 111.295 67.2101 112.615C67.3801 112.015 67.5201 111.505 67.6501 110.995C67.8101 110.395 67.9901 109.805 68.1301 109.205C68.2001 108.915 68.3301 108.815 68.6101 108.855C68.7201 108.875 68.8301 108.865 68.9401 108.855C69.1701 108.825 69.2701 108.915 69.3301 109.155C69.5801 110.165 69.8501 111.175 70.1201 112.185C70.1401 112.255 70.1601 112.335 70.2601 112.415C70.3601 112.085 70.4601 111.755 70.5601 111.415C70.7701 110.705 71.0101 110.005 71.1901 109.285C71.2801 108.945 71.4201 108.795 71.7801 108.845C71.9401 108.865 72.1101 108.845 72.3201 108.845C72.2901 108.985 72.2701 109.105 72.2401 109.215C71.7601 110.745 71.2601 112.275 70.8101 113.815C70.6501 114.345 70.2701 114.095 69.9801 114.155C69.6801 114.215 69.6201 114.025 69.5601 113.785C69.2901 112.735 69.0101 111.685 68.7301 110.645C68.7101 110.645 68.6901 110.645 68.6601 110.645V110.655Z" fill="white"/>
<path d="M91.0899 113.165H95.4599V114.145H89.7399C89.6899 113.615 89.6899 113.165 90.0699 112.715C91.3399 111.205 92.5499 109.655 93.7799 108.125C93.8099 108.085 93.8399 108.045 93.8999 107.945H90.1699V106.955H95.3299C95.3899 107.445 95.3899 107.885 95.0199 108.315C93.7599 109.805 92.5499 111.345 91.3099 112.855C91.2499 112.925 91.1999 113.005 91.0799 113.155L91.0899 113.165Z" fill="white"/>
<path d="M123.93 114.175C124 113.975 124.03 113.845 124.08 113.725C124.9 111.595 125.72 109.465 126.53 107.335C126.65 107.025 126.79 106.915 127.12 106.925C128.01 106.965 127.78 106.785 128.11 107.595C128.95 109.645 129.78 111.695 130.62 113.745C130.67 113.865 130.72 113.995 130.79 114.175C130.39 114.175 130.04 114.195 129.71 114.165C129.61 114.165 129.5 114.015 129.45 113.905C129.24 113.395 129.04 112.885 128.86 112.365C128.78 112.125 128.66 112.015 128.39 112.025C127.66 112.045 126.93 112.045 126.2 112.025C125.92 112.025 125.81 112.125 125.74 112.375C125.58 112.855 125.38 113.325 125.24 113.815C125.15 114.105 125.02 114.225 124.72 114.185C124.49 114.165 124.26 114.185 123.95 114.185L123.93 114.175ZM128.35 111.075C127.98 110.085 127.63 109.145 127.27 108.175C126.91 109.165 126.57 110.105 126.22 111.075H128.35Z" fill="white"/>
<path d="M146.951 114.125C146.161 114.265 146.031 114.225 145.961 113.795C145.471 114.185 144.941 114.375 144.321 114.265C143.241 114.075 142.501 113.265 142.401 111.955C142.351 111.355 142.431 110.705 142.631 110.145C143.101 108.815 144.581 108.395 145.781 109.185C145.811 109.205 145.851 109.215 145.941 109.245C145.941 108.855 145.941 108.485 145.941 108.115C145.941 107.745 145.941 107.375 145.941 106.965H146.951V114.125ZM146.071 111.505C145.971 111.125 145.921 110.675 145.731 110.295C145.291 109.445 144.121 109.425 143.691 110.255C143.281 111.065 143.281 111.935 143.691 112.755C143.911 113.185 144.301 113.425 144.811 113.385C145.311 113.345 145.661 113.065 145.831 112.605C145.951 112.275 145.981 111.915 146.071 111.495V111.505Z" fill="white"/>
<path d="M137.651 110.635C137.321 110.585 137.011 110.535 136.691 110.495C136.811 109.715 137.191 109.185 137.921 108.945C138.571 108.725 139.241 108.705 139.921 108.845C140.751 109.025 141.151 109.495 141.181 110.345C141.201 110.945 141.171 111.555 141.191 112.165C141.221 112.815 141.281 113.465 141.331 114.135C140.681 114.315 140.401 114.225 140.231 113.755C139.701 113.935 139.191 114.165 138.651 114.265C137.751 114.425 136.951 114.025 136.661 113.355C136.301 112.515 136.711 111.575 137.641 111.275C138.211 111.095 138.821 111.045 139.421 110.935C139.471 110.935 139.541 110.935 139.581 110.915C139.761 110.815 140.101 110.955 140.111 110.585C140.131 110.225 140.011 109.935 139.661 109.785C138.811 109.405 138.051 109.715 137.651 110.645V110.635ZM140.071 111.685C139.451 111.805 138.851 111.895 138.261 112.025C137.821 112.125 137.601 112.415 137.631 112.775C137.671 113.125 137.951 113.365 138.381 113.405C139.511 113.515 140.181 112.835 140.061 111.685H140.071Z" fill="white"/>
<path d="M111.031 110.635C110.701 110.585 110.391 110.545 110.081 110.505C110.141 109.665 110.621 109.055 111.501 108.895C112.071 108.795 112.681 108.785 113.261 108.865C114.111 108.985 114.501 109.475 114.541 110.335C114.561 110.845 114.541 111.355 114.561 111.865C114.591 112.625 114.641 113.385 114.691 114.155C113.931 114.285 113.801 114.235 113.591 113.755C113.091 113.925 112.601 114.155 112.091 114.255C111.751 114.325 111.371 114.275 111.031 114.185C110.421 114.025 110.021 113.615 109.941 112.975C109.851 112.295 110.081 111.705 110.711 111.425C111.201 111.205 111.761 111.135 112.291 111.015C112.521 110.965 112.761 110.975 112.981 110.895C113.161 110.835 113.431 110.725 113.471 110.595C113.551 110.275 113.421 109.975 113.091 109.805C112.261 109.375 111.401 109.705 111.041 110.635H111.031ZM113.451 111.685C112.851 111.795 112.271 111.885 111.701 112.005C111.231 112.105 110.981 112.375 111.001 112.735C111.021 113.115 111.321 113.375 111.801 113.405C112.911 113.495 113.531 112.855 113.451 111.685Z" fill="white"/>
<path d="M63.4804 112.345C63.7904 112.385 64.1204 112.435 64.4404 112.475C64.3304 113.485 63.4904 114.195 62.3404 114.285C60.8304 114.405 59.7004 113.435 59.6404 111.925C59.6204 111.425 59.6504 110.895 59.7904 110.425C60.1104 109.305 61.0504 108.705 62.2904 108.775C63.3504 108.825 64.2104 109.585 64.4204 110.685C64.4904 111.045 64.5004 111.415 64.5304 111.815H60.7704C60.6404 112.385 61.0104 113.055 61.5604 113.295C62.3104 113.615 62.8304 113.365 63.4704 112.345H63.4804ZM60.7704 110.925H63.3404C63.4404 110.325 62.8504 109.685 62.2104 109.665C61.4104 109.635 60.8504 110.105 60.7804 110.925H60.7704Z" fill="white"/>
<path d="M152.07 112.335C152.41 112.385 152.74 112.425 153.08 112.475C152.98 113.015 152.73 113.425 152.35 113.755C151.03 114.875 148.83 114.215 148.35 112.565C148.14 111.845 148.16 111.115 148.38 110.405C148.73 109.285 149.74 108.655 150.98 108.765C152.09 108.865 152.94 109.735 153.06 110.925C153.09 111.205 153.06 111.495 153.06 111.815H149.3C149.37 112.695 149.78 113.235 150.45 113.365C151.15 113.505 151.59 113.225 152.05 112.325L152.07 112.335ZM149.36 110.905H151.98C151.86 110.095 151.43 109.665 150.73 109.655C149.99 109.645 149.5 110.085 149.36 110.905Z" fill="white"/>
<path d="M162.71 115.175C162.89 115.195 162.96 115.205 163.02 115.205C164.02 115.325 164.57 114.615 164.21 113.665C163.66 112.215 163.11 110.765 162.56 109.315C162.51 109.185 162.47 109.065 162.4 108.865C162.75 108.865 163.06 108.835 163.36 108.875C163.46 108.885 163.57 109.065 163.61 109.185C164.03 110.325 164.44 111.475 164.89 112.695C165.08 112.165 165.24 111.705 165.41 111.245C165.65 110.605 165.91 109.965 166.11 109.305C166.22 108.935 166.4 108.785 166.78 108.845C166.94 108.865 167.11 108.845 167.3 108.845C167.27 108.965 167.25 109.065 167.22 109.145C166.53 110.995 165.84 112.855 165.14 114.705C165.03 114.995 164.91 115.305 164.72 115.545C164.52 115.795 164.26 116.045 163.97 116.145C163.68 116.245 163.25 116.265 163.03 116.105C162.83 115.955 162.82 115.535 162.7 115.145L162.71 115.175Z" fill="white"/>
<path d="M104.66 109.765V108.895H108.97C109.06 109.265 109.01 109.585 108.73 109.895C107.82 110.925 106.93 111.975 106.03 113.025C105.98 113.085 105.93 113.145 105.85 113.255H109.13V114.145H104.47C104.4 113.685 104.44 113.305 104.78 112.935C105.71 111.925 106.59 110.865 107.54 109.775H104.65L104.66 109.765Z" fill="white"/>
<path d="M76.7793 114.155H75.7793V108.895H76.6593C76.6793 109.035 76.6893 109.165 76.7093 109.365C77.1893 108.945 77.6993 108.745 78.3093 108.765C79.3993 108.795 80.0393 109.395 80.0593 110.485C80.0793 111.695 80.0593 112.905 80.0593 114.145H79.0593C79.0593 114.015 79.0393 113.865 79.0393 113.725C79.0393 112.725 79.0393 111.715 79.0193 110.715C79.0193 110.315 78.9093 109.945 78.4793 109.775C78.0193 109.595 77.5593 109.655 77.2093 110.005C77.0093 110.205 76.8493 110.515 76.8293 110.785C76.7693 111.715 76.7793 112.655 76.7693 113.585C76.7693 113.765 76.7693 113.935 76.7693 114.155H76.7793Z" fill="white"/>
<path d="M135.861 110.535C135.521 110.585 135.221 110.635 134.901 110.685C134.861 110.585 134.831 110.515 134.801 110.445C134.641 109.995 134.351 109.685 133.851 109.665C133.291 109.635 132.831 109.835 132.601 110.355C132.261 111.135 132.271 111.945 132.601 112.725C132.821 113.235 133.271 113.435 133.821 113.405C134.321 113.375 134.671 113.095 134.841 112.575C134.881 112.445 134.911 112.315 134.961 112.135C135.281 112.175 135.601 112.215 135.921 112.265C135.851 113.285 135.191 114.055 134.261 114.235C133.111 114.465 132.051 114.015 131.621 113.035C131.161 111.985 131.181 110.915 131.691 109.885C132.101 109.055 133.151 108.625 134.171 108.795C135.091 108.945 135.661 109.515 135.871 110.545L135.861 110.535Z" fill="white"/>
<path d="M74.2405 114.145H73.2305V108.885H74.2405V114.145Z" fill="white"/>
<path d="M97.5803 108.895V114.135H96.5703V108.895H97.5803Z" fill="white"/>
<path d="M74.2402 108.075H73.2402V106.955H74.2402V108.075Z" fill="white"/>
<path d="M97.5703 106.955V108.055H96.5703V106.955H97.5703Z" fill="white"/>
</g>
<defs>
<clipPath id="clip0_4885_43263">
<rect width="192" height="192" fill="white"/>
</clipPath>
</defs>
</svg>
