<svg width="192" height="192" viewBox="0 0 192 192" fill="none" xmlns="http://www.w3.org/2000/svg">
<g clip-path="url(#clip0_4885_42923)">
<path d="M96 192C149.019 192 192 149.019 192 96C192 42.9807 149.019 0 96 0C42.9807 0 0 42.9807 0 96C0 149.019 42.9807 192 96 192Z" fill="white"/>
<path d="M59.9927 95.9443C59.9154 91.9663 56.9899 88.6256 53.0216 88.0753C49.8934 87.6408 46.8906 88.1912 44.0231 89.4946C42.5265 90.1705 42.0244 91.0394 42.5168 92.1401C43.0189 93.2698 43.9844 93.5498 45.481 92.8836C47.441 92.0146 49.4782 91.6381 51.612 91.6767C54.0547 91.7153 55.5996 92.9512 56.2272 95.5291C54.0837 95.1525 52.0851 95.0656 50.0768 95.0946C46.0699 95.1525 42.9127 97.8463 42.5458 101.544C42.1113 105.928 44.612 109.568 48.7058 110.33C49.7968 110.533 50.9361 110.495 52.0561 110.466C56.4106 110.35 59.9154 106.826 60.012 102.49C60.0602 100.308 60.0506 98.1263 60.012 95.9346L59.9927 95.9443ZM52.9637 106.594C51.7279 106.932 50.4534 106.932 49.2175 106.642C47.103 106.15 45.9251 104.267 46.2051 101.959C46.4272 100.115 47.9334 98.8504 50.0189 98.7829C50.4341 98.7732 50.8589 98.7829 51.2837 98.7829V98.8215C51.7472 98.8215 52.2492 98.7153 52.6741 98.8408C53.8906 99.2173 55.8989 98.3677 56.2175 100.057C56.8741 103.553 55.5223 105.889 52.9637 106.584V106.594Z" fill="#3E4266"/>
<path d="M63.555 95.9349C63.555 91.8894 63.555 87.8439 63.555 83.7984C63.555 82.2729 64.1729 81.4811 65.3219 81.4329C66.5191 81.3942 67.2432 82.2729 67.2432 83.808C67.2432 87.2935 67.2722 90.7887 67.2239 94.2742C67.2143 95.1818 67.446 95.568 68.3825 95.3749C69.4929 95.1432 70.6901 95.7708 71.7715 94.979C73.2391 93.9073 73.9439 92.4977 73.9825 90.6921C74.0115 89.2535 74.7839 88.4039 75.9039 88.4618C77.0432 88.5101 77.6997 89.3984 77.6611 90.8466C77.6129 93.0094 76.9853 94.979 75.4694 96.5625C74.948 97.1032 75.0349 97.3639 75.5177 97.8466C77.1397 99.4687 77.9025 101.467 77.8928 103.765C77.8928 105.3 77.9122 106.836 77.8928 108.371C77.8735 109.722 77.1687 110.505 76.0294 110.505C74.8804 110.505 74.2239 109.751 74.2046 108.351C74.1853 106.865 74.2239 105.378 74.2046 103.881C74.1563 100.454 71.2018 98.2618 67.8418 99.0825C67.0501 99.2756 67.2529 99.8066 67.2529 100.27C67.2432 103.012 67.2625 105.764 67.2336 108.506C67.2239 109.751 66.4708 110.505 65.3798 110.505C64.2694 110.505 63.6032 109.78 63.5453 108.496C63.5357 108.216 63.5453 107.936 63.5453 107.656C63.5453 103.746 63.5453 99.8452 63.5453 95.9349H63.555Z" fill="#3E4266"/>
<path d="M113.848 99.9219C113.848 98.2033 113.906 96.9482 113.848 95.693C113.655 91.9275 110.526 88.6447 106.819 88.3647C103.845 88.1427 100.958 88.5385 98.2063 89.784C97.2988 90.1895 96.565 90.7013 97.0767 91.773C97.5498 92.7675 98.4091 92.5454 99.2394 92.1592C101.354 91.1647 103.594 90.8171 105.911 90.8751C108.557 90.933 110.652 92.6516 111.212 95.1909C111.405 96.0792 111.357 96.4847 110.246 96.2047C108.238 95.7026 106.181 95.6544 104.125 95.7026C100.263 95.7799 97.2505 98.4254 96.9512 101.988C96.5939 106.246 99.085 109.722 103.034 110.359C104.086 110.523 105.177 110.485 106.249 110.446C109.783 110.321 112.737 107.878 113.626 104.45C114.05 102.79 113.761 101.119 113.857 99.9123L113.848 99.9219ZM111.318 99.8833C111.25 100.858 111.337 101.834 111.289 102.809C111.193 105.001 109.715 106.97 107.63 107.617C106.085 108.1 104.482 108.11 102.928 107.694C100.533 107.047 99.2298 104.875 99.5098 102.172C99.7318 100.057 101.421 98.5219 103.797 98.3288C104.54 98.2709 105.293 98.3192 106.037 98.3192C107.533 98.3771 109.02 98.5026 110.478 98.8792C111.048 99.024 111.366 99.2268 111.318 99.893V99.8833Z" fill="#E06F24"/>
<path d="M148.712 95.964C148.712 91.9185 148.712 87.873 148.712 83.8275C148.712 83.4992 148.692 83.1709 148.712 82.8523C148.789 82.0606 149.194 81.491 150.025 81.5006C150.855 81.5006 151.299 82.0799 151.309 82.8716C151.348 84.7737 151.377 86.6854 151.309 88.5875C151.27 89.5337 151.492 89.6978 152.39 89.3889C154.215 88.7613 156.137 88.6261 158.058 88.6647C162.422 88.742 165.888 92.102 165.965 96.4661C166.033 100.56 165.975 104.654 165.985 108.747C165.985 109.703 165.705 110.476 164.623 110.456C163.59 110.427 163.407 109.645 163.407 108.767C163.416 104.953 163.416 101.139 163.407 97.3254C163.407 93.3089 161.167 91.1461 157.102 91.233C155.499 91.2716 153.954 91.5516 152.429 92.0537C151.618 92.324 151.28 92.6909 151.29 93.6275C151.357 98.4164 151.319 103.205 151.319 108.004C151.319 108.332 151.328 108.661 151.319 108.979C151.28 109.819 150.932 110.476 150.005 110.456C149.098 110.437 148.712 109.8 148.712 108.95C148.702 107.318 148.712 105.696 148.712 104.065C148.712 101.371 148.712 98.6675 148.712 95.9737V95.964Z" fill="#E06F24"/>
<path d="M26.0347 93.7042C26.0347 90.7787 26.0347 87.8436 26.0347 84.9181C26.0347 83.4988 26.7685 82.6008 27.8885 82.6008C29.0085 82.6008 29.7037 83.4794 29.7326 84.9181C29.7519 86.0284 29.3754 87.4863 29.9354 88.1525C30.6016 88.9443 32.1271 88.3649 33.2664 88.4132C34.4347 88.4712 35.6029 88.3939 36.7712 88.4325C37.9974 88.4712 38.8181 89.2339 38.8278 90.267C38.8374 91.3001 38.0264 92.0822 36.7905 92.1015C34.9271 92.1401 33.054 92.1787 31.1809 92.0918C30.0512 92.0339 29.6457 92.3139 29.6843 93.5208C29.7809 96.0698 29.8485 98.638 29.6843 101.187C29.4623 104.644 31.5574 107.501 36.2595 106.71C36.9547 106.594 37.5629 106.594 38.1036 107.038C38.6443 107.482 38.905 108.061 38.7698 108.766C38.625 109.51 38.1905 110.041 37.4374 110.224C30.9105 111.798 26.1988 107.752 26.0444 102.481C25.9575 99.5553 26.025 96.6201 26.025 93.6946L26.0347 93.7042Z" fill="#3E4266"/>
<path d="M137.523 98.1358C139.155 98.2034 140.786 98.1358 142.409 98.4448C145.064 98.9565 146.338 100.617 146.097 103.301C145.769 107.057 142.64 110.176 138.855 110.436C135.775 110.649 132.811 110.108 130.011 108.776C129.191 108.38 128.64 107.839 129.055 106.932C129.471 106.014 130.272 106.063 131.083 106.439C133.313 107.501 135.679 107.965 138.141 107.907C140.825 107.849 142.997 106.043 143.49 103.456C143.799 101.853 143.335 101.196 141.733 100.936C140.294 100.704 138.846 100.694 137.397 100.791C136.084 100.888 134.781 100.81 133.477 100.685C129.953 100.337 128.351 98.1744 129.036 94.7179C129.712 91.2903 132.802 88.5772 136.306 88.4034C139.29 88.2489 142.157 88.7413 144.88 90.0255C145.72 90.4213 146.435 90.8944 145.971 91.9082C145.517 92.9027 144.649 92.7579 143.809 92.362C141.569 91.3 139.203 90.8655 136.741 90.9331C134.192 91.0103 132.049 92.8061 131.556 95.2296C131.18 97.0737 131.711 97.9041 133.584 98.0972C134.877 98.2323 136.191 98.1261 137.504 98.1261L137.523 98.1358Z" fill="#E06F24"/>
<path d="M82.3445 98.6963C82.3445 95.6742 82.3252 92.6522 82.3445 89.6301C82.3735 84.8508 85.7624 81.4715 90.5514 81.4619C92.9748 81.4619 95.4176 81.3653 97.7348 82.2922C98.3045 82.5239 98.8741 82.7556 99.0093 83.4508C99.1059 83.9432 98.99 84.3777 98.5748 84.6963C98.1307 85.0439 97.6576 85.0632 97.1362 84.8315C94.79 83.7694 92.2893 83.9046 89.8273 84.0977C86.8631 84.3294 84.9128 86.5501 84.9031 89.5142C84.8838 95.6935 84.9031 101.873 84.9031 108.062C84.9031 108.39 84.9224 108.709 84.9031 109.037C84.8549 109.896 84.4397 110.485 83.5321 110.447C82.6825 110.408 82.3445 109.829 82.3445 109.018C82.3445 105.58 82.3445 102.143 82.3445 98.6963Z" fill="#E06F24"/>
<path d="M116.6 102.221C116.6 100.222 116.581 98.2234 116.6 96.2248C116.658 91.6966 120.057 88.3559 124.624 88.3269C125.367 88.3269 126.12 88.3559 126.864 88.3945C127.742 88.4428 128.486 88.7324 128.447 89.7559C128.409 90.789 127.665 91.0014 126.767 90.9434C126.024 90.8952 125.271 90.8662 124.527 90.8759C121.505 90.9241 119.207 93.1545 119.169 96.1669C119.12 100.299 119.149 104.432 119.169 108.574C119.169 109.24 119.169 109.887 118.493 110.283C117.576 110.823 116.629 110.157 116.61 108.902C116.581 106.672 116.61 104.441 116.61 102.211L116.6 102.221Z" fill="#E06F24"/>
<path d="M90.4327 93.0093C91.5527 93.0865 92.6727 93.1058 93.7831 93.2507C94.6713 93.3665 95.2989 93.8686 95.0672 94.8631C94.8548 95.7513 94.1886 95.9251 93.3293 95.7803C91.572 95.481 89.7955 95.6451 88.019 95.6548C87.0631 95.6548 86.2617 95.4327 86.2617 94.3513C86.2617 93.3569 87.0148 93.0672 87.9224 93.0962C88.7624 93.1155 89.6024 93.0962 90.4424 93.0962C90.4424 93.0672 90.4424 93.0382 90.4424 93.0189L90.4327 93.0093Z" fill="#E06F24"/>
</g>
<defs>
<clipPath id="clip0_4885_42923">
<rect width="192" height="192" fill="white"/>
</clipPath>
</defs>
</svg>
