<svg width="192" height="192" viewBox="0 0 192 192" fill="none" xmlns="http://www.w3.org/2000/svg">
<g clip-path="url(#clip0_5218_40171)">
<path d="M96 192C149.019 192 192 149.019 192 96C192 42.9807 149.019 0 96 0C42.9807 0 0 42.9807 0 96C0 149.019 42.9807 192 96 192Z" fill="white"/>
<path d="M52.2817 121.942C51.9846 122.109 51.7527 122.341 51.586 122.638C51.4048 122.775 51.2744 122.725 51.1657 122.536C51.1077 122.087 51.4701 121.884 51.7092 121.609C52.086 121.174 52.5932 120.855 52.8106 120.29C53.499 119.217 54.0063 118.036 54.7164 116.971C55.057 116.717 55.173 116.341 55.2309 115.942C57.4338 111.848 59.4121 107.645 61.5208 103.507C61.6657 103.225 61.7672 102.92 61.8758 102.623C62.3179 101.681 62.7744 100.768 62.8324 99.6884C62.8976 98.4565 62.5425 97.3623 62.0208 96.2826C61.4411 95.0869 60.7889 93.9275 60.2744 92.7029C60.1947 92.2753 60.0063 91.884 59.8106 91.5C57.3396 86.5797 54.8759 81.6594 52.4193 76.7391C52.2237 76.355 52.0353 75.9637 51.7382 75.6449C50.615 73.7246 49.8034 71.6449 48.6367 69.7463C46.5498 66.3478 43.5208 64.6014 39.528 64.5724C37.3324 64.558 35.1367 64.5652 32.9411 64.5724C32.4483 64.5724 31.9556 64.5579 31.4773 64.4275C29.5498 64.384 27.6222 64.3551 25.6947 64.4348C24.3324 64.4927 23.0425 64.9275 21.9918 65.8695C21.8396 66.0217 21.6729 66.1594 21.5135 66.3116C21.3106 66.4927 21.1222 66.6884 20.9845 66.9347C20.9483 67 20.9048 67.0652 20.8541 67.1304C20.4483 67.6739 20.2309 68.2971 20.1295 68.9637C20.115 69.0507 20.0932 69.1304 20.0715 69.2174C19.9121 69.8913 20.1802 70.6014 19.8614 71.2608C19.7889 71.3405 19.7092 71.3551 19.615 71.2971C19.4773 70.5435 19.4773 69.7898 19.615 69.0434C19.8541 67.2826 20.7454 65.9855 22.2382 65C23.6874 64.0435 25.2672 63.8405 26.9266 63.8333C31.0063 63.8261 35.086 63.8333 39.1657 63.8333C41.6367 63.8333 43.9556 64.4203 45.999 65.8188C47.7961 67.0435 49.0208 68.7681 49.9846 70.7101C51.6657 74.0942 53.4048 77.4493 55.1077 80.8261C56.499 83.5869 57.8614 86.3551 59.2309 89.1232C60.2817 91.2391 61.2309 93.413 62.4048 95.4638C63.8324 97.971 63.8251 100.326 62.5498 102.92C60.5715 106.935 58.6005 110.957 56.5498 114.935C55.586 116.797 54.7382 118.732 53.557 120.478C53.3903 120.717 53.2527 120.971 52.9773 121.101C52.7816 121.391 52.4701 121.616 52.2817 121.942Z" fill="#F7F7F7"/>
<path d="M114.114 104.065C113.013 103.492 112.158 102.587 111.143 101.884C110.281 101.282 109.607 100.5 108.955 99.6954C108.448 99.0722 108.129 98.4127 108.194 97.5649C108.259 96.7388 108.621 96.1881 109.426 96.007C110.042 95.8693 110.672 95.7533 111.295 95.7461C115.143 95.7243 118.991 95.6664 122.839 95.7678C124.397 95.8113 125.94 95.8693 127.448 95.478C130.143 94.7823 131.955 92.9997 133.187 90.5867C135.085 86.8838 136.962 83.1736 138.839 79.4635C140.259 76.6591 141.672 73.8475 143.064 71.0214C144.455 68.1881 146.419 65.9055 149.368 64.6446C150.6 64.1156 151.955 63.8258 153.31 63.8113C157.882 63.7823 162.455 63.7098 167.02 63.8258C170.433 63.9127 173.027 65.4417 173.759 68.8693C174.056 70.2606 174.02 71.7171 173.172 72.9997C173.013 72.8475 172.962 72.6519 172.948 72.4417C172.897 71.7388 173.288 71.1156 173.288 70.4055C173.31 67.4345 171.368 65.0722 168.433 64.5722C167.665 64.4417 166.897 64.3765 166.114 64.3765C162.506 64.391 158.897 64.4417 155.288 64.362C152.687 64.304 150.237 64.7171 147.984 66.0504C146.411 66.8475 145.361 68.1736 144.411 69.6084C143.527 70.9417 142.977 72.4345 142.266 73.8548C139.737 78.949 136.955 83.92 134.491 89.0504C133.622 90.862 132.694 92.5866 131.216 93.9924C130.419 94.7533 129.498 95.2533 128.484 95.6156C127.056 96.1229 125.578 96.3693 124.056 96.3113C121.919 96.2388 119.774 96.2026 117.643 96.2171C115.165 96.2316 112.672 96.2533 110.194 96.3185C109.853 96.3258 109.585 96.4707 109.324 96.6519C108.969 96.9055 108.6 97.1591 108.73 97.6954C108.882 99.0069 109.853 99.7968 110.687 100.652C111.469 101.463 112.419 102.072 113.288 102.79C113.513 102.971 113.745 103.145 113.904 103.391C114.013 103.608 114.223 103.79 114.114 104.065Z" fill="#F8F8F8"/>
<path d="M114.115 104.066C113.999 103.892 113.884 103.718 113.768 103.544C114.181 103.305 114.405 103.645 114.659 103.848C116.84 105.609 118.13 107.957 119.014 110.551C119.905 113.182 119.898 115.855 119.326 118.544C119.26 118.797 119.195 119.058 119.123 119.312C118.855 119.921 118.63 120.544 118.485 121.196C118.463 121.276 118.434 121.355 118.405 121.428C118.253 121.674 118.13 121.928 118.057 122.21C117.412 123.587 116.673 124.928 116.427 126.464C116.412 126.595 116.384 126.718 116.355 126.841C116.202 127.892 116.246 128.913 116.92 129.805C117.108 130.022 117.268 130.261 117.376 130.522C117.449 130.855 117.586 131.153 117.855 131.377C118.072 131.631 118.34 131.805 118.666 131.899C118.804 131.957 118.934 132.029 119.05 132.131C119.26 132.45 119.579 132.508 119.934 132.5C120.108 132.515 120.268 132.551 120.42 132.638C120.572 132.747 120.702 132.884 120.876 132.957C121.862 133.203 122.869 133.312 123.876 133.319C127.608 133.348 131.34 133.341 135.079 133.319C136.115 133.312 137.152 133.167 138.166 132.964C140.297 132.442 142.137 131.428 143.601 129.761C144.26 129.015 144.768 128.182 145.217 127.312C146.173 125.464 147.101 123.602 148.014 121.725C149.485 118.863 150.891 115.964 152.347 113.095C152.528 112.732 152.615 112.239 153.166 112.189C153.239 112.247 153.282 112.319 153.289 112.406C152.057 115.247 150.615 117.979 149.195 120.725C148.398 122.747 147.326 124.631 146.253 126.5C145.659 127.544 145.173 128.638 144.441 129.624C142.405 132.392 139.644 133.515 136.318 133.754C132.528 134.029 128.746 133.826 124.963 133.899C123.608 133.921 122.253 133.819 120.927 133.544C117.811 132.884 115.797 130.667 115.724 127.602C115.688 126.254 116.065 124.899 116.775 123.645C117.92 121.638 118.594 119.457 118.978 117.174C119.434 114.457 119.065 111.826 118.007 109.334C117.21 107.457 116.137 105.71 114.441 104.457C114.311 104.363 114.224 104.203 114.115 104.066Z" fill="#F5F5F5"/>
<path d="M90.1425 121.073C89.7585 122.254 88.9396 123.174 88.1933 124.102C86.215 126.558 83.9469 128.718 81.1715 130.29C78.4396 131.841 75.5194 132.848 72.4324 133.392C67.7367 134.218 62.9904 133.884 58.2657 133.877C56.4324 133.877 54.628 133.392 52.8672 132.812C52.3817 132.652 51.8309 132.616 51.3889 132.37C49.9107 131.551 49.8962 129.486 51.4251 128.718C53.3382 127.761 55.0266 126.551 56.4324 124.95C57.6353 123.58 58.6063 122.058 59.4396 120.442C59.5556 120.218 59.6353 119.95 59.9107 119.848C60.0121 119.95 60.0338 120.073 60.0194 120.203C59.4469 121.964 58.3237 123.384 57.215 124.826C55.8744 126.573 54.1933 127.892 52.2295 128.87C51.8889 129.037 51.5701 129.225 51.3672 129.566C51.0483 129.971 51.1063 130.442 51.1425 130.906C51.2585 131.377 51.5846 131.631 52.0121 131.797C53.9324 132.529 55.8962 133.029 57.9686 133.174C59.6715 133.29 61.3744 133.334 63.0773 133.319C67.0338 133.283 70.9904 133.232 74.8527 132.225C77.0556 131.761 79.0411 130.768 80.9831 129.674C81.802 129.312 82.4324 128.652 83.2222 128.232C83.5121 128.138 83.7512 127.964 83.9324 127.71C84.0121 127.624 84.0991 127.558 84.2005 127.5C84.7295 127.232 85.0918 126.79 85.4469 126.334C85.6063 126.102 85.7947 125.906 86.0266 125.754C86.4831 125.406 86.9179 125.037 87.186 124.515C87.2367 124.413 87.3092 124.326 87.3962 124.247C87.6353 124.073 87.8237 123.863 87.9106 123.58C88.0411 123.312 88.2077 123.073 88.4324 122.863C88.6715 122.689 88.8599 122.486 88.9469 122.189C89.0339 121.971 89.1498 121.776 89.3164 121.616C89.6135 121.464 89.686 120.986 90.1425 121.073Z" fill="#F8F8F8"/>
<path d="M19.6289 71.2686C19.6869 71.2686 19.7448 71.2686 19.8028 71.2686C19.9405 71.2975 20.0419 71.3773 20.1144 71.5004C20.8898 74.0004 22.2231 76.2468 23.368 78.5801C24.4043 80.7106 25.4767 82.8265 26.5492 84.9425C32.0927 96.0801 37.6869 107.189 43.2448 118.319C43.3753 118.58 43.5202 118.827 43.6796 119.066C43.8753 119.421 44.0419 119.79 44.2231 120.16C44.3173 120.421 44.4333 120.667 44.5927 120.892C45.3246 122.102 46.1072 123.254 47.5637 123.711C47.9188 123.841 48.2738 123.863 48.6434 123.776C48.7159 123.754 48.7883 123.732 48.8608 123.718C49.0927 123.667 49.3173 123.631 49.513 123.493C49.5709 123.457 49.6361 123.421 49.7086 123.392C49.9043 123.327 50.0999 123.247 50.2666 123.109C50.3246 123.066 50.3825 123.022 50.4477 122.986C50.6434 122.87 50.7956 122.711 50.9405 122.544C51.0275 122.464 51.1217 122.399 51.2448 122.464C51.3173 122.602 51.4477 122.631 51.5927 122.638C49.5782 125.008 46.5854 124.863 44.8246 122.29C44.4043 121.674 44.013 121.022 43.6796 120.356C35.9622 104.95 28.2448 89.5367 20.5419 74.1236C20.0854 73.2251 19.6579 72.312 19.6289 71.2686Z" fill="#F8F8F8"/>
<path d="M76.071 88.1014C76.0782 87.9564 76.1072 87.826 76.2449 87.7535C77.6507 84.6955 79.1579 81.6883 80.7666 78.7318C81.5782 76.8477 82.7232 75.1593 83.9768 73.5579C85.8174 71.2028 88.0348 69.2463 90.5927 67.681C90.6652 67.6376 90.7594 67.6448 90.8464 67.6231C93.3971 66.0941 96.1579 65.1521 99.0637 64.5868C101.339 64.1448 103.636 63.9999 105.941 63.9854C110.854 63.9637 115.759 63.9564 120.672 63.9926C122.158 64.0071 123.68 63.9637 125.071 64.6738C126.542 65.5071 125.941 67.21 124.774 67.8405C123.6 68.4781 122.296 68.7028 121.078 69.181C120.825 69.3912 120.477 69.355 120.209 69.5289C120.013 69.6303 119.825 69.6883 119.658 69.4926C119.73 69.0796 120.093 68.9709 120.404 68.8477C121.151 68.5506 121.904 68.2463 122.694 68.0579C123.404 67.8912 124.056 67.5796 124.643 67.1448C125.6 66.4347 125.535 65.6013 124.477 65.0869C123.629 64.6666 122.694 64.5868 121.781 64.5796C116.035 64.5506 110.281 64.5071 104.535 64.6013C102.854 64.6303 101.136 64.681 99.484 65.1665C98.7594 65.4781 97.9768 65.5361 97.2159 65.7318C90.5348 67.4129 85.5927 71.3695 82.2014 77.2825C80.0275 81.0651 78.2594 85.0579 76.2521 88.9347C76.0565 89.3115 75.9913 89.8622 75.3681 89.855C75.2956 89.1448 75.8246 88.6811 76.071 88.1014Z" fill="#F2F0F1"/>
<path d="M76.0721 88.1016C76.0069 88.761 75.3909 89.2175 75.4127 89.9059C75.5721 90.2827 75.333 90.5798 75.1808 90.8769C70.4924 100.268 65.7822 109.652 61.0938 119.044C60.9634 119.304 60.8402 119.565 60.6301 119.768C60.3909 119.913 60.2822 120.268 59.9199 120.203C59.9199 120.087 59.9199 119.971 59.9199 119.855C60.0069 119.225 60.4707 118.79 60.7388 118.246C63.3909 112.855 65.9924 107.442 68.746 102.102C71.0431 97.6378 73.3692 93.1885 75.6083 88.6885C75.717 88.4711 75.804 88.2103 76.0721 88.1016Z" fill="#F5F4F4"/>
<path d="M117.935 70.9207C117.174 71.6598 116.312 72.2758 115.544 73.0222C113.718 74.8048 112.457 76.928 111.421 79.2251C111.022 80.1164 110.551 80.9859 110.109 81.8627C105.174 91.7323 100.24 101.595 95.2976 111.457C94.7179 112.616 94.0875 113.754 93.486 114.906C93.3918 115.087 93.2977 115.261 93.0948 115.348C92.8266 114.906 93.16 114.573 93.3339 114.232C97.7542 105.421 102.124 96.5801 106.573 87.783C108.174 84.6091 109.667 81.3772 111.276 78.2105C112.363 76.0584 113.653 74.0439 115.406 72.3555C115.892 71.8917 116.406 71.4859 116.957 71.1018C117.269 70.9714 117.551 70.6816 117.935 70.9207Z" fill="#F6F6F6"/>
<path d="M117.064 71.2683C114.658 72.9494 112.977 75.2538 111.716 77.8262C106.586 88.2972 101.289 98.6885 96.1294 109.145C95.1149 111.21 93.9047 113.181 93.0932 115.348C92.2453 117.138 91.3323 118.891 90.3395 120.609C90.2526 120.754 90.2018 120.92 90.1366 121.073C89.9047 121.304 89.6729 121.536 89.441 121.768C89.2308 121.515 89.3975 121.297 89.4989 121.073C89.7091 120.768 89.883 120.449 90.0569 120.131C90.6221 119.181 91.1294 118.203 91.5352 117.167C93.1728 113.681 95.0134 110.304 96.7453 106.87C98.6221 103.152 100.484 99.4277 102.332 95.6958C104.376 91.674 106.368 87.6306 108.405 83.6016C108.55 83.319 108.673 83.0291 108.695 82.703C109.448 80.79 110.448 78.9929 111.39 77.174C111.832 76.848 112.035 76.3552 112.282 75.8987C113.209 74.4277 114.245 73.0509 115.557 71.8987C115.992 71.5146 116.361 70.9711 117.064 71.0581C117.108 71.1088 117.129 71.1523 117.115 71.203C117.093 71.2465 117.079 71.2683 117.064 71.2683Z" fill="#F4F4F4"/>
<path d="M153.195 112.398C153.195 112.34 153.195 112.282 153.195 112.224C152.913 111.746 153.29 111.398 153.471 111.036C156.464 105.036 159.464 99.0287 162.471 93.0287C162.688 92.5867 162.927 92.1592 163.094 91.6954C164.993 88.1157 166.739 84.449 168.58 80.8403C168.797 80.4055 168.797 79.8765 169.159 79.507C169.529 79.0577 169.79 78.565 169.855 77.978C170.116 77.2026 170.42 76.449 170.978 75.8258C171.761 75.0867 172 74.036 172.514 73.1374C172.674 72.862 172.688 72.4273 173.174 72.4852C173.174 72.6591 173.174 72.8331 173.174 73.007C173.036 73.0794 173.007 73.2099 173 73.3548C171.391 76.7389 169.674 80.0649 168 83.42C165.427 88.5867 162.84 93.7389 160.253 98.8983C160.109 99.1809 159.985 99.4708 159.797 99.7316C158.768 102.13 157.529 104.42 156.34 106.739C156.051 107.297 155.753 107.855 155.456 108.406C154.79 109.507 154.304 110.688 153.688 111.811C153.565 112.029 153.601 112.413 153.195 112.398Z" fill="#F5F5F5"/>
<path d="M125.057 64.674C122.818 63.8914 120.492 64.174 118.202 64.1595C113.927 64.1305 109.644 64.1595 105.369 64.1523C100.514 64.1378 95.8761 65.0363 91.5572 67.3479C91.3326 67.4711 91.079 67.5363 90.8398 67.6233C90.8471 67.3842 91.0138 67.2827 91.2022 67.1885C94.4196 65.5218 97.8181 64.4639 101.449 64.1378C103.195 63.9856 104.941 63.8044 106.702 63.8044C111.333 63.8044 115.963 63.761 120.593 63.8334C121.898 63.8552 123.246 63.8479 124.514 64.3117C124.738 64.3986 124.949 64.4349 125.057 64.674Z" fill="#F5F4F4"/>
<path d="M159.797 99.7323C159.891 99.4931 159.964 99.2395 160.072 99.0149C164.253 90.6526 168.442 82.2903 172.623 73.9279C172.724 73.725 172.869 73.5439 172.993 73.3555C173.029 73.725 172.833 74.0221 172.674 74.3265C168.558 82.5439 164.449 90.7613 160.333 98.9786C160.203 99.254 160.123 99.5873 159.797 99.7323Z" fill="#F8F8F8"/>
<path d="M153.194 112.399C153.897 111.384 154.31 110.217 154.912 109.152C155.064 108.884 155.122 108.551 155.455 108.413C155.339 108.703 155.238 109.007 155.1 109.29C153.332 112.833 151.564 116.37 149.789 119.906C149.637 120.21 149.564 120.573 149.209 120.732C149.666 119.42 150.405 118.246 150.992 116.993C151.709 115.457 152.455 113.928 153.194 112.399Z" fill="#F8F8F8"/>
<path d="M80.7684 78.7319C80.1307 80.4058 79.2322 81.9493 78.4351 83.5435C77.7322 84.9566 77.1162 86.4203 76.2539 87.7537C76.3046 87.529 76.3119 87.2899 76.4061 87.0943C77.6887 84.3044 79.022 81.5435 80.5655 78.8841C80.5945 78.8117 80.6959 78.7827 80.7684 78.7319Z" fill="#F5F4F4"/>
<path d="M121.064 69.1879C121.398 68.8256 121.869 68.7821 122.304 68.6662C122.992 68.4778 123.673 68.2531 124.311 67.9198C125.992 67.0357 126.202 66.1589 125.057 64.6807C125.659 64.8691 126.072 65.2241 126.093 65.8908C126.13 66.7893 125.688 67.4923 124.956 67.8981C123.753 68.5647 122.441 69.014 121.064 69.1879Z" fill="#F5F4F4"/>
<path d="M117.064 71.2678C117.064 71.2099 117.064 71.1519 117.064 71.0939C117.369 70.2968 118.796 69.4417 119.666 69.5359C119.84 69.5359 120.014 69.5359 120.188 69.5359C119.434 69.9997 118.68 70.4635 117.927 70.9273C117.644 71.036 117.354 71.1519 117.064 71.2678Z" fill="#F5F4F4"/>
<path d="M19.6299 69.0146C19.6299 69.7683 19.6299 70.5219 19.6299 71.2683C19.3473 70.5146 19.3473 69.7683 19.6299 69.0146Z" fill="#F8F8F8"/>
<path d="M52.2812 121.942C52.3247 121.5 52.6508 121.29 52.9769 121.072C52.9334 121.514 52.6001 121.724 52.2812 121.942Z" fill="#F8F8F8"/>
<path d="M120.195 69.5362C120.42 69.2609 120.724 69.1812 121.065 69.1884C120.891 69.5942 120.529 69.529 120.195 69.5362Z" fill="#F5F4F4"/>
<path d="M21.3706 66.2391C21.4865 66.1304 21.5952 66.0145 21.7112 65.9058C22.5807 65.1522 23.588 64.7029 24.7184 64.5072C26.8271 64.3478 28.9358 64.3985 31.0373 64.4493C33.9213 64.5217 36.8054 64.4638 39.6894 64.5072C40.9141 64.5217 42.0952 64.7391 43.2184 65.2464C44.5662 65.9493 45.8561 66.7246 46.8416 67.9203C47.7546 69.0869 48.4431 70.3913 49.1025 71.7101C53.1749 79.8623 57.2546 88.0072 61.3344 96.1594C61.5807 96.6522 61.8344 97.1377 61.9865 97.6739C62.3489 99.029 62.059 100.275 61.4648 101.507C59.6967 105.167 57.9068 108.812 56.0662 112.428C55.0373 114.101 54.2184 115.891 53.3851 117.667C52.5373 119.464 51.2474 120.877 49.8054 122.174C49.0373 122.862 48.1097 123.145 47.0735 123.007C46.8054 122.978 46.559 122.884 46.3199 122.761C45.2257 121.971 44.6242 120.797 44.0445 119.645C36.2836 104.167 28.5228 88.6811 20.7836 73.1884C20.0952 71.8116 19.7691 70.3768 20.059 68.8333C20.1677 68.1304 20.4431 67.5 20.8706 66.9348L20.8633 66.9493C20.9793 66.6811 21.2184 66.4855 21.3706 66.2391Z" fill="#B60137"/>
<path d="M20.1299 68.8405C19.9342 70.5144 20.4342 72.0144 21.1733 73.4927C28.8183 88.7318 36.4487 103.978 44.0791 119.225C44.6951 120.456 45.369 121.652 46.3835 122.616C47.985 123.746 49.2241 123.326 50.6589 122.123C51.2313 121.645 51.6806 121.029 52.2965 120.594C52.5139 120.485 52.6951 120.261 52.9777 120.384C52.6661 121.304 51.7023 121.674 51.2386 122.464C51.1806 122.522 51.1226 122.58 51.0647 122.638C50.8183 122.79 50.6154 123 50.369 123.159C50.1734 123.348 49.898 123.377 49.6734 123.507C49.4342 123.746 49.0864 123.725 48.8038 123.855C48.398 123.985 47.9922 123.985 47.5864 123.855C45.9342 123.514 45.1299 122.283 44.4632 120.906C44.2748 120.71 44.2531 120.435 44.1154 120.21C43.8328 119.92 43.6661 119.565 43.5936 119.167C41.1371 114.42 38.7965 109.63 36.398 104.855C33.2241 98.5362 30.0719 92.2101 26.898 85.884C26.7458 85.5724 26.6081 85.2536 26.398 84.9782C26.2603 84.7608 26.1009 84.5579 25.9922 84.326C24.1589 80.5724 22.1661 76.8985 20.4415 73.0869C20.2023 72.5579 20.0357 72.0144 19.9704 71.4419C19.8328 70.6304 19.8328 69.8188 19.9704 69.0072C19.9704 68.9492 19.9704 68.8912 19.9704 68.8333C20.0284 68.7608 20.0791 68.7608 20.1299 68.8405Z" fill="#EBEBEB"/>
<path d="M43.427 65.5433C41.6009 64.7969 39.7023 64.623 37.7458 64.6447C33.3255 64.6955 28.9052 64.6738 24.4922 64.6882C24.9994 64.1738 25.6661 64.2752 26.282 64.2607C27.782 64.2172 29.2748 64.2534 30.7748 64.2462C31.0574 64.2462 31.3545 64.3259 31.6226 64.1665C31.9342 64.3549 32.282 64.3404 32.6299 64.3332C34.9994 64.3332 37.3618 64.3042 39.7313 64.3404C43.782 64.4056 46.8183 66.2462 48.8907 69.6955C50.0357 71.6013 50.9125 73.6447 51.9415 75.6085C54.2313 80.0071 56.398 84.4708 58.6226 88.8984C59.2458 90.1303 59.8907 91.3549 60.4487 92.6158C61.1733 94.152 62.0357 95.623 62.6661 97.2027C63.4342 99.1448 63.1734 100.964 62.0139 102.681C61.9342 102.746 61.8545 102.739 61.7893 102.659C61.6226 102.203 61.9922 101.84 62.0139 101.413C62.811 99.71 62.4342 98.1375 61.6589 96.5216C57.7893 88.5071 53.7241 80.594 49.7676 72.6303C49.2313 71.5433 48.6371 70.4853 47.9849 69.4636C47.9342 69.3984 47.8907 69.3332 47.8473 69.2679C47.7313 69.0216 47.5574 68.8114 47.3762 68.6085C47.3255 68.5505 47.2748 68.4853 47.2386 68.4201C46.2313 67.0868 44.927 66.181 43.427 65.5433Z" fill="#E4E3E4"/>
<path d="M61.834 102.681C61.892 102.681 61.95 102.681 62.0152 102.681C62.0514 103.051 61.8485 103.341 61.6964 103.652C59.8123 107.413 57.9355 111.181 56.0514 114.942C55.863 115.319 55.6311 115.681 55.4138 116.043C55.2471 116.391 55.1311 116.768 54.892 117.087C54.2543 118.188 53.6167 119.283 52.979 120.384C52.8051 120.5 52.6311 120.616 52.4572 120.732C52.2036 120.37 52.5732 120.123 52.6239 119.819C52.7036 119.63 52.7833 119.442 52.921 119.283C53.5007 118.768 53.7761 118.08 53.9935 117.362C54.0514 117.123 54.1384 116.891 54.2906 116.688C55.008 115.833 55.3848 114.775 55.9935 113.855C57.1529 111.978 58.008 109.935 59.0297 107.985C59.2833 107.507 59.5732 107.036 59.6819 106.5C59.6891 106.377 59.7036 106.254 59.7253 106.13C59.7978 105.667 60.0732 105.304 60.3123 104.92C60.6022 104.543 60.834 104.145 60.9717 103.688C61.0732 103.428 61.1964 103.181 61.363 102.957C61.4935 102.826 61.5732 102.594 61.834 102.681Z" fill="#E8E8E8"/>
<path d="M60.4422 92.6156C60.3335 92.449 60.1958 92.2968 60.1089 92.1229C57.4567 86.833 54.8118 81.5432 52.1669 76.2533C52.0654 76.0504 52.0074 75.8258 51.9277 75.6084C52.2611 75.7533 52.3335 76.0794 52.4712 76.362C55.0219 81.4562 57.5727 86.5504 60.1234 91.6446C60.2828 91.949 60.4857 92.2461 60.4422 92.6156Z" fill="#EEEEEE"/>
<path d="M31.6154 64.1592C31.3617 64.4345 31.0211 64.3186 30.7168 64.3258C28.8255 64.3911 26.9197 64.1881 25.0356 64.4997C24.84 64.5287 24.6298 64.4925 24.4922 64.6882C23.4849 64.9055 22.6009 65.42 21.7168 65.9055C22.7603 64.6157 24.2458 64.2606 25.7675 64.1809C27.7023 64.0795 29.6588 64.1592 31.6154 64.1592Z" fill="#F1EEEE"/>
<path d="M20.1307 68.8404C20.08 68.8404 20.0292 68.8404 19.9785 68.8404C20.1017 68.1231 20.2176 67.4057 20.8771 66.9419C20.6234 67.5796 20.3771 68.21 20.1307 68.8404Z" fill="#F1EEEE"/>
<path d="M19.9691 69.0146C19.9691 69.8262 19.9691 70.6378 19.9691 71.4494C19.9112 71.3914 19.8532 71.3335 19.7952 71.2755C19.8967 70.5219 19.5996 69.7393 19.9691 69.0146Z" fill="#F1EEEE"/>
<path d="M54.8828 117.08C54.9553 116.681 55.1147 116.326 55.4046 116.036C55.3973 116.471 55.2886 116.848 54.8828 117.08Z" fill="#EBEBEB"/>
<path d="M21.3669 66.2393C21.3235 66.5653 21.0771 66.7538 20.8597 66.9639C20.8307 66.5798 21.0843 66.3914 21.3669 66.2393Z" fill="#F1EEEE"/>
<path d="M117.253 130.595C117.13 130.37 117.006 130.153 116.891 129.928C116.231 129.435 116.347 128.667 116.217 127.986C116.115 127.471 116.34 126.95 116.217 126.435C116.427 125.21 116.948 124.095 117.499 122.993C117.644 122.696 117.796 122.399 117.941 122.095C118.079 121.884 118.108 121.616 118.275 121.421C118.318 121.399 118.333 121.363 118.311 121.312C118.506 120.645 118.731 119.986 118.977 119.334C119.021 119.087 118.919 118.812 119.159 118.616C119.84 115.674 119.804 112.776 118.782 109.899C117.702 106.855 115.956 104.312 113.325 102.399C112.137 101.537 110.948 100.66 109.927 99.5873C109.362 98.9931 108.876 98.3627 108.586 97.5873C108.369 97.0583 108.804 96.8554 109.086 96.58C109.579 96.3844 110.093 96.3626 110.615 96.3626C115.209 96.3699 119.811 96.3482 124.405 96.3699C128.644 96.3844 131.738 94.4641 133.586 90.725C135.876 86.0873 138.318 81.5366 140.608 76.9061C141.521 75.0728 142.441 73.2395 143.333 71.3989C144.376 69.2467 145.724 67.3192 147.782 65.9858C149.006 65.4279 150.217 64.8192 151.564 64.58C151.825 64.5365 152.079 64.5221 152.333 64.5003C152.789 64.4206 153.253 64.4351 153.717 64.4351C157.963 64.4351 162.202 64.4351 166.448 64.4351C167.651 64.4351 168.796 64.667 169.847 65.2757C170.709 65.8989 171.463 66.6308 171.963 67.5945C172.282 68.196 172.347 68.8626 172.47 69.5148C172.499 69.696 172.485 69.8699 172.448 70.0438C172.325 71.3047 171.811 72.4206 171.246 73.5366C169.717 76.5511 168.217 79.58 166.702 82.5945C166.456 83.0873 166.217 83.58 166.101 84.1235C165.622 85.4279 164.927 86.6235 164.311 87.8626C164.267 87.9351 164.209 87.9931 164.151 88.0511C163.369 88.8482 163.093 89.9279 162.564 90.8627C158.977 98.0583 155.354 105.239 151.782 112.442C149.202 117.457 146.637 122.479 144.122 127.529C143.405 128.529 142.804 129.624 141.767 130.363C139.891 131.855 137.738 132.58 135.354 132.595C130.818 132.616 126.289 132.602 121.753 132.602C120.796 132.595 119.927 132.254 119.072 131.87C118.485 131.558 117.97 131.145 117.419 130.776C117.354 130.718 117.296 130.66 117.253 130.595Z" fill="#B60137"/>
<path d="M147.812 66.0509C145.022 68.0219 143.696 71.0146 142.239 73.9349C139.479 79.4567 136.667 84.9567 133.892 90.4712C132.247 93.7393 129.819 95.9712 126.08 96.5219C125.848 96.5581 125.624 96.5944 125.392 96.5944C119.957 96.5944 114.515 96.5871 109.08 96.5798C109.486 96.1378 109.993 96.0581 110.573 96.0654C112.167 96.0871 113.754 96.0726 115.348 96.0726C118.457 96.0726 121.573 96.0943 124.682 96.0654C128.029 96.0436 130.783 94.79 132.703 91.9712C133.283 91.1161 133.674 90.1523 134.138 89.232C136.928 83.7175 139.783 78.232 142.544 72.703C143.305 71.1813 143.964 69.6161 145.044 68.2972C145.819 67.348 146.631 66.3987 147.805 65.877C147.863 65.9132 147.884 65.9494 147.863 65.9856C147.848 66.0364 147.826 66.0509 147.812 66.0509Z" fill="#F3F2F3"/>
<path d="M108.579 97.5947C109.934 99.6744 111.971 101.015 113.84 102.558C118.826 106.674 120.608 111.935 119.333 118.254C119.304 118.392 119.311 118.544 119.152 118.616C119.268 117.624 119.442 116.631 119.492 115.638C119.652 112.443 118.724 109.515 117.036 106.856C116.21 105.551 115.246 104.261 113.768 103.544C112.797 102.486 111.471 101.834 110.507 100.776C109.666 99.8484 108.507 99.0875 108.579 97.5947Z" fill="#ECEBEC"/>
<path d="M147.811 66.0506C147.811 65.9999 147.811 65.9419 147.811 65.8912C150.05 64.5361 152.492 64.0869 155.093 64.1376C158.941 64.2101 162.789 64.1448 166.637 64.1666C168.376 64.1738 169.977 64.6014 171.398 65.6883C173.1 66.9854 173.977 69.5072 173.34 71.5579C173.245 71.8622 173.144 72.1593 173.173 72.4854C172.535 73.355 172.202 74.384 171.673 75.3043C171.528 75.5579 171.499 75.9347 171.086 75.9492C170.984 75.8332 170.977 75.7028 171.006 75.5651C171.593 74.4492 172.209 73.3405 172.644 72.1521C173.086 70.9202 173.057 69.6738 172.753 68.4202C172.666 68.0579 172.492 67.7173 172.202 67.4637C171.774 66.9854 171.332 66.5217 170.926 66.0217C169.832 65.0724 168.528 64.6086 167.115 64.6014C162.267 64.5579 157.427 64.5869 152.579 64.5869C152.434 64.5869 152.289 64.5796 152.158 64.6593C150.622 64.855 149.209 65.4347 147.811 66.0506Z" fill="#EBEAEB"/>
<path d="M118.985 131.623C119.854 131.863 120.644 132.37 121.579 132.355C121.702 132.457 121.847 132.442 121.992 132.442C125.079 132.442 128.159 132.623 131.246 132.515C132.92 132.457 134.593 132.522 136.26 132.428C138.347 132.312 140.253 131.609 141.891 130.276C141.963 130.225 142.028 130.167 142.086 130.109C142.34 129.877 142.688 129.732 142.804 129.37C142.862 129.268 142.919 129.174 143.006 129.102C143.217 128.942 143.391 128.754 143.514 128.515C143.55 128.442 143.601 128.377 143.644 128.312C143.977 127.87 144.246 127.392 144.492 126.906C146.463 122.979 148.528 119.102 150.448 115.152C150.622 114.79 150.825 114.435 150.956 114.051C150.992 113.971 151.035 113.899 151.093 113.834C151.354 113.551 151.506 113.21 151.673 112.877C155.079 106.066 158.492 99.2612 161.898 92.4496C162.093 92.0655 162.296 91.6814 162.391 91.2539C162.419 91.08 162.521 90.9423 162.586 90.7829C163.101 89.8264 163.499 88.8046 164.101 87.8988V87.9133C164.282 87.8119 164.441 87.6235 164.688 87.7539C164.767 87.8698 164.782 87.993 164.76 88.1235C164.231 89.4496 163.405 90.6379 162.948 92.0003C162.122 93.9061 161.122 95.7322 160.202 97.5872C159.202 99.6017 158.217 101.623 157.166 103.616C156.347 105.073 155.651 106.594 154.898 108.087C154.651 108.522 154.456 108.986 154.18 109.406C152.028 113.537 149.992 117.725 147.898 121.884C147.224 123.225 146.55 124.573 145.883 125.921C145.811 126.073 145.731 126.21 145.644 126.355C145.021 127.29 144.63 128.355 143.941 129.247C143.876 129.348 143.796 129.442 143.717 129.529C143.188 130.073 142.615 130.58 142.144 131.181C141.021 132 139.818 132.645 138.427 132.899C138.028 132.942 137.63 132.986 137.267 133.174C137.166 133.181 137.064 133.174 136.963 133.16C132.869 133.116 128.775 133.152 124.68 133.145C123.383 133.145 122.086 133.174 120.804 132.942C120.637 132.906 120.485 132.841 120.354 132.732C120.18 132.732 120.014 132.725 119.84 132.725C119.593 132.529 119.209 132.551 119.072 132.203C118.985 132.008 118.833 131.841 118.985 131.623Z" fill="#CDCDCC"/>
<path d="M157.013 103.544C158.817 99.9349 160.629 96.3262 162.433 92.7175C162.564 92.4638 162.651 92.1885 162.759 91.9204C162.904 91.7827 163.042 91.616 163.274 91.7465C163.143 92.0653 163.035 92.3914 162.883 92.6957C159.788 98.8841 156.687 105.073 153.593 111.268C153.441 111.573 153.332 111.906 153.201 112.217C152.868 112.362 152.796 112.696 152.658 112.971C151.325 115.63 149.991 118.297 148.658 120.957C148.52 121.239 148.332 121.493 148.172 121.761C148.093 121.819 148.013 121.812 147.955 121.732C148.571 120.21 149.39 118.783 150.107 117.312C151.412 114.623 152.832 111.986 154.078 109.268C154.317 108.87 154.426 108.391 154.767 108.051C155.578 106.587 156.325 105.087 157.013 103.544Z" fill="#E5E5E5"/>
<path d="M147.986 121.768C148.044 121.768 148.102 121.768 148.16 121.768C146.566 124.927 145.493 128.398 142.761 130.884C141.53 132.007 140.08 132.732 138.435 133.051C138.167 133.188 137.892 133.159 137.609 133.08C137.479 132.841 137.645 132.819 137.812 132.79C138.022 132.761 138.247 132.848 138.435 132.703C139.805 132.442 141.015 131.855 142.08 130.964C142.674 130.514 143.196 129.993 143.645 129.399C143.703 129.341 143.761 129.283 143.819 129.225C144.588 128.355 144.972 127.254 145.559 126.275C145.566 126.13 145.595 126 145.732 125.927C146.399 124.841 146.877 123.667 147.479 122.543C147.624 122.275 147.682 121.942 147.986 121.768Z" fill="#E7E6E6"/>
<path d="M137.563 133.051C137.853 133.051 138.142 133.051 138.432 133.051C137.454 133.551 136.367 133.529 135.331 133.544C131.432 133.609 127.534 133.609 123.642 133.544C122.606 133.529 121.519 133.551 120.541 133.051C120.751 132.819 121.019 132.899 121.28 132.891C121.367 132.899 121.454 132.92 121.541 132.949C121.925 133.123 122.338 133.029 122.737 133.058C122.889 133.058 123.034 133.073 123.179 133.116C127.345 133.174 131.505 133.188 135.664 133.109C135.903 133.036 136.15 133.058 136.396 133.051C136.751 133 137.099 133.145 137.454 133.101C137.483 133.08 137.519 133.065 137.563 133.051Z" fill="#ECEBEC"/>
<path d="M118.983 131.623C119.041 131.805 119.099 131.993 119.149 132.174C119.091 132.239 119.033 132.247 118.968 132.189C118.823 132.181 118.693 132.152 118.62 132.015C118.432 131.834 118.128 131.826 117.983 131.58C117.831 131.247 117.345 131.123 117.41 130.66C118.07 130.768 118.432 131.355 118.983 131.623Z" fill="#DADADA"/>
<path d="M116.339 128.015C116.36 128.696 116.563 129.334 116.882 129.928C116.701 129.913 116.491 129.87 116.455 129.696C116.23 128.747 115.788 127.812 116.179 126.797C116.426 127.174 116.165 127.623 116.339 128.015Z" fill="#ECEBEC"/>
<path d="M118.969 119.341C118.897 120.051 118.651 120.703 118.303 121.319C118.339 120.594 118.549 119.935 118.969 119.341Z" fill="#ECEBEC"/>
<path d="M117.413 130.652C117.645 130.927 117.869 131.21 118.101 131.485C117.985 131.594 117.869 131.579 117.753 131.485C117.391 131.297 117.181 131.021 117.246 130.594C117.304 130.615 117.362 130.637 117.413 130.652Z" fill="#E7E6E6"/>
<path d="M118.979 132.188C119.036 132.181 119.102 132.181 119.16 132.174C119.406 132.326 119.725 132.384 119.855 132.696C119.457 132.703 119.036 132.761 118.979 132.188Z" fill="#ECEBEC"/>
<path d="M116.338 128.015C116.048 127.638 116.251 127.203 116.178 126.797C116.186 126.674 116.193 126.558 116.207 126.435C116.49 126.942 116.287 127.486 116.338 128.015Z" fill="#E0DDDE"/>
<path d="M121.403 133.05C121.113 133.05 120.823 133.05 120.533 133.05C120.396 132.978 120.367 132.848 120.359 132.71C120.475 132.71 120.591 132.71 120.707 132.703C120.881 132.949 121.359 132.565 121.403 133.05Z" fill="#E7E6E6"/>
<path d="M117.758 131.485C117.874 131.485 117.99 131.485 118.106 131.485C118.236 131.703 118.555 131.732 118.627 132.007C118.207 132.043 117.939 131.84 117.758 131.485Z" fill="#ECEBEC"/>
<path d="M118.267 121.42C118.231 121.681 118.195 121.949 117.934 122.094C117.919 121.812 117.97 121.558 118.267 121.42Z" fill="#ECEBEC"/>
<path d="M60.4613 119.696C62.0917 116.754 63.5047 113.696 65.0192 110.688C68.3888 104.007 71.7511 97.3116 75.1062 90.6159C75.2221 90.384 75.3091 90.1449 75.4105 89.9057C77.0265 86.7463 78.6642 83.6086 80.2439 80.4347C81.7946 77.3188 83.5265 74.3333 85.9975 71.8333C89.5192 68.2608 93.7801 66.1159 98.6859 65.1883C98.8526 65.1594 99.012 65.0942 99.1787 65.0434C100.954 64.6304 102.766 64.5289 104.57 64.5144C110.302 64.4782 116.026 64.4927 121.758 64.5072C122.86 64.5072 123.961 64.5869 124.845 65.3913C124.932 65.5289 124.969 65.6739 124.896 65.826C124.787 66.0362 124.613 66.1956 124.447 66.3695C123.874 66.9854 123.135 67.2681 122.338 67.4855C119.2 68.3405 116.382 69.7753 114.113 72.1739C113.751 72.5289 113.353 72.8478 113.077 73.2826C113.034 73.3478 112.99 73.413 112.94 73.471C112.758 73.6666 112.592 73.8768 112.476 74.1159C112.403 74.2608 112.324 74.3985 112.237 74.5362C111.519 75.413 110.99 76.413 110.497 77.4202C107.179 84.1159 103.889 90.8333 100.534 97.5144C98.5844 101.319 96.7149 105.159 94.7801 108.971C93.8163 110.551 93.0844 112.246 92.2439 113.884C91.1786 115.964 90.1714 118.065 89.0337 120.109C87.9033 121.891 86.7076 123.63 85.2221 125.13C83.0989 127.283 80.6786 129.043 77.8888 130.261C75.0844 131.485 72.1642 132.217 69.1062 132.398C68.8453 132.413 68.5989 132.514 68.3453 132.551C67.3598 132.616 66.3743 132.536 65.396 132.587C62.5699 132.732 59.7511 132.587 56.925 132.58C56.3163 132.63 55.7366 132.398 55.1352 132.391C54.7656 132.348 54.4033 132.246 54.0555 132.116C53.5265 131.746 52.9395 131.543 52.3018 131.5C51.9178 131.456 51.6134 131.203 51.2439 131.116C51.0699 131.058 50.983 130.906 50.8815 130.775C50.9395 130.312 50.5917 129.739 51.2439 129.427C52.0627 128.797 53.0482 128.442 53.9033 127.855C56.3236 126.181 58.0192 123.891 59.454 121.377C59.7873 120.826 60.0844 120.239 60.4613 119.696Z" fill="#B60137"/>
<path d="M50.8906 130.797C51.0066 130.855 51.1225 130.92 51.2384 130.978C52.7457 132.05 54.55 132.261 56.2747 132.724C56.579 132.833 56.8906 132.826 57.2022 132.826C57.4413 132.826 57.6877 132.84 57.9196 132.898C58.7747 133.079 59.6442 132.949 60.5066 132.985C61.6877 132.985 62.8761 132.985 64.0573 132.985C65.4776 132.942 66.9051 133.087 68.3254 132.906C68.6153 132.826 68.9196 132.833 69.2167 132.826C69.6298 132.811 70.05 132.877 70.4558 132.746C70.5428 132.717 70.637 132.703 70.7239 132.688C71.1297 132.645 71.55 132.695 71.9414 132.543C72.6298 132.391 73.3181 132.261 74.0066 132.094C74.3399 132.014 74.666 131.935 74.9921 132.123C75.079 132.195 75.0935 132.275 75.0355 132.377C73.7457 132.877 72.3834 133.094 71.0283 133.224C67.4124 133.587 63.7819 133.659 60.1515 133.579C57.3327 133.514 54.55 133.159 51.9196 132.043C51.3616 131.79 50.9051 131.478 50.8906 130.797Z" fill="#E7E7E7"/>
<path d="M89.6224 121.072C89.5645 121.304 89.5065 121.536 89.4485 121.768C89.3326 121.942 89.2166 122.116 89.1007 122.289C88.9413 122.529 88.7311 122.739 88.5789 122.985C88.405 123.217 88.2311 123.449 88.0572 123.681C87.8978 123.92 87.6876 124.13 87.5355 124.376C87.4775 124.434 87.4195 124.492 87.3616 124.55C87.0282 125.072 86.4775 125.413 86.1441 125.942C85.9123 126.058 85.7384 126.231 85.6224 126.463C85.0934 126.797 84.7601 127.34 84.2311 127.681C84.1731 127.739 84.1152 127.797 84.0572 127.855C83.8108 128.007 83.6007 128.217 83.3615 128.376C82.5789 128.797 82.021 129.565 81.1079 129.768C81.0934 129.731 81.0789 129.695 81.0645 129.659C81.1514 129.289 81.5427 129.181 81.7239 128.891C83.1152 127.739 84.6079 126.71 85.8326 125.362C86.8181 124.275 87.7601 123.159 88.5427 121.92C88.5862 121.847 88.6297 121.789 88.6876 121.724C88.992 121.536 89.1297 121.152 89.5065 121.05C89.55 121.05 89.5862 121.065 89.6224 121.072Z" fill="#EBEBEB"/>
<path d="M60.464 119.696C58.5582 123.602 56.1669 127.073 52.1307 129.094C51.8481 129.232 51.551 129.333 51.2539 129.457C51.3264 129.181 51.5148 129.007 51.7612 128.899C55.6669 127.116 58.08 123.928 59.9278 120.218C60.1452 120.08 60.1742 119.747 60.464 119.696Z" fill="#F2EFF0"/>
<path d="M75.0371 132.355C75.0371 132.297 75.0371 132.231 75.0371 132.173C75.0444 131.76 75.4139 131.789 75.6531 131.71C76.2255 131.529 76.769 131.268 77.356 131.123C77.9502 131.079 78.4429 130.775 78.9357 130.478C79.2907 130.26 79.6531 130.058 80.0444 129.905C80.3994 129.855 80.711 129.471 81.1168 129.746C79.8632 130.731 78.3922 131.289 76.9284 131.847C76.3197 132.087 75.7183 132.384 75.0371 132.355Z" fill="#EBEBEB"/>
<path d="M84.2383 127.667C84.6441 127.196 84.9702 126.638 85.6296 126.449C85.2238 126.927 84.8977 127.485 84.2383 127.667Z" fill="#F4F4F4"/>
<path d="M86.1523 125.935C86.3407 125.283 86.8987 124.949 87.3697 124.543C87.1813 125.203 86.6234 125.529 86.1523 125.935Z" fill="#F4F4F4"/>
<path d="M88.5781 122.985C88.5926 122.637 88.8245 122.442 89.0999 122.29C89.0926 122.645 88.8607 122.833 88.5781 122.985Z" fill="#F4F4F4"/>
<path d="M83.3691 128.362C83.5213 128.087 83.7097 127.855 84.0648 127.84C83.9126 128.123 83.7242 128.348 83.3691 128.362Z" fill="#F4F4F4"/>
<path d="M87.5371 124.369C87.5516 124.022 87.7835 123.826 88.0588 123.674C88.0516 124.029 87.8197 124.217 87.5371 124.369Z" fill="#F4F4F4"/>
<path d="M26.3984 84.9785C26.7028 85.1017 26.7825 85.3988 26.9057 85.6524C32.3767 96.58 37.8477 107.515 43.3115 118.45C43.4274 118.681 43.4999 118.928 43.5868 119.174C43.2825 119.051 43.2028 118.754 43.0796 118.5C37.5941 107.544 32.1086 96.5872 26.6303 85.6307C26.5361 85.4205 26.4781 85.1959 26.3984 84.9785Z" fill="#F1EEEE"/>
<path d="M47.5938 123.855C47.9995 123.855 48.4053 123.855 48.8111 123.855C48.4053 124.123 47.9995 124.123 47.5938 123.855Z" fill="#F1EEEE"/>
<path d="M50.3672 123.159C50.5194 122.884 50.7078 122.652 51.0628 122.638C50.9107 122.913 50.7223 123.145 50.3672 123.159Z" fill="#F1EEEE"/>
<path d="M48.8027 123.855C49.0419 123.616 49.3679 123.58 49.6723 123.507C49.4984 123.906 49.1433 123.848 48.8027 123.855Z" fill="#F1EEEE"/>
<path d="M49.6738 123.507C49.8477 123.282 50.0941 123.188 50.3695 123.159C50.2391 123.471 49.9709 123.522 49.6738 123.507Z" fill="#F1EEEE"/>
<path d="M44.1135 120.21C44.3454 120.384 44.4324 120.631 44.4613 120.906C44.1498 120.768 44.099 120.508 44.1135 120.21Z" fill="#F1EEEE"/>
<path d="M124.863 65.7102C124.167 65.058 123.334 64.6957 122.392 64.6885C115.95 64.6233 109.5 64.5653 103.058 64.703C101.761 64.732 100.471 64.9276 99.1816 65.0436C99.9715 64.5363 100.906 64.6305 101.761 64.558C102.819 64.4638 103.877 64.3262 104.942 64.3262C110.493 64.3334 116.051 64.3262 121.602 64.3334C122.551 64.3334 123.5 64.4276 124.399 64.7827C124.957 65.0073 125.508 65.3044 125.544 65.9566C125.58 66.5943 125.203 67.058 124.66 67.4349C123.443 68.2899 121.943 68.3696 120.645 69.0001C120.312 69.1667 119.935 69.2465 119.674 69.5291C118.682 69.8407 117.819 70.3696 117.073 71.087C115.834 71.645 115.008 72.6812 114.153 73.6595C113.515 74.3841 112.971 75.1812 112.385 75.9493C112.356 75.9131 112.334 75.8841 112.305 75.8479C112.232 75.587 112.348 75.3551 112.414 75.116C113.783 72.7175 115.769 70.9276 118.124 69.5581C119.551 68.7247 121.066 68.0653 122.682 67.674C123.073 67.5798 123.45 67.4204 123.812 67.232C124.443 66.9349 124.906 66.4928 124.863 65.7102Z" fill="#E2E2E2"/>
<path d="M102.475 95.7393C102.367 96.0074 102.287 96.2828 102.157 96.5364C100.019 100.826 97.9175 105.138 95.7073 109.384C94.3522 111.993 93.0551 114.638 91.7073 117.254C91.5986 117.377 91.5117 117.565 91.3015 117.391C91.1494 116.978 91.4319 116.674 91.5769 116.341C91.9464 115.529 92.4392 114.776 92.7001 113.913C92.8667 113.247 93.3522 112.739 93.5986 112.109C94.7508 109.703 96.0841 107.399 97.2435 104.993C98.7073 102.087 100.157 99.1813 101.62 96.2683C101.794 95.9205 101.903 95.5002 102.331 95.3335C102.555 95.4132 102.613 95.5364 102.475 95.7393Z" fill="#E1E1E1"/>
<path d="M102.477 95.739C102.477 95.5941 102.448 95.4709 102.31 95.3912C102.187 95.1521 102.296 94.9347 102.405 94.7318C103.948 91.6883 105.405 88.6086 107.013 85.5941C107.47 84.8695 107.796 84.0724 108.202 83.3187C108.354 83.0361 108.448 82.6521 108.912 82.7173C108.941 82.9926 108.832 83.2245 108.716 83.4564C106.724 87.4347 104.731 91.4129 102.738 95.384C102.666 95.5216 102.564 95.6231 102.477 95.739Z" fill="#E2E2E2"/>
<path d="M108.903 82.7243C108.251 83.2677 108.121 84.1156 107.693 84.7895C107.512 85.0793 107.447 85.4417 107.164 85.6736C106.875 85.333 107.092 85.0141 107.237 84.717C108.461 82.2315 109.708 79.7533 110.954 77.275C111.092 76.9924 111.215 76.688 111.577 76.6011C111.679 76.6083 111.737 76.6591 111.766 76.7533C111.802 76.9634 111.65 77.0649 111.512 77.1808C110.911 78.746 110.041 80.1808 109.338 81.6953C109.179 82.0286 109.048 82.3764 108.903 82.7243Z" fill="#D9D9D9"/>
<path d="M91.3599 117.428C91.4758 117.37 91.5918 117.312 91.7077 117.254C91.2874 118.29 90.8961 119.341 90.1425 120.203C90.1207 120.174 90.0917 120.138 90.07 120.109C89.9903 119.58 90.4396 119.203 90.4758 118.71C90.7149 118.247 90.6859 117.595 91.3599 117.428Z" fill="#EBEBEB"/>
<path d="M111.514 77.174C111.572 77.058 111.63 76.9421 111.688 76.8189C111.854 76.4783 111.746 75.9203 112.383 75.9493C112.195 76.4348 112.173 77.029 111.514 77.174Z" fill="#E2E2E2"/>
<path d="M90.1454 120.21C90.0802 120.566 89.9715 120.892 89.6237 121.08C89.4425 120.573 89.5802 120.261 90.1454 120.21Z" fill="#EBEBEB"/>
<path d="M164.66 88.1016C164.66 87.9856 164.66 87.8697 164.66 87.7537C164.392 87.3407 164.733 87.0363 164.885 86.7247C167.052 82.2827 169.276 77.8697 171.486 73.4494C172.023 72.3842 172.479 71.29 172.465 70.0726C172.457 69.203 172.356 68.3479 171.798 67.6233C171.312 66.8334 170.66 66.1958 169.994 65.5726C170.581 65.319 170.863 65.8552 171.269 66.0653C171.617 66.4711 171.965 66.8769 172.312 67.2755C173.465 69.1523 173.291 71.0726 172.436 72.9784C172.037 73.8697 171.602 74.7537 171.102 75.6016C171.102 75.7175 171.095 75.8262 171.095 75.9422C170.653 76.5871 170.298 77.2755 170.052 78.0219C169.776 78.3624 169.646 78.7827 169.436 79.1668C168.841 79.9566 168.588 80.9132 168.139 81.7755C167.168 83.6306 166.254 85.5219 165.312 87.3914C165.16 87.6813 165.124 88.1016 164.66 88.1016Z" fill="#D2D2D2"/>
<path d="M164.658 88.1013C165.665 86.4854 166.375 84.7173 167.274 83.0506C167.977 81.7318 168.52 80.3332 169.346 79.0796C169.484 79.2535 169.455 79.4274 169.346 79.6013C169.006 79.855 169.078 80.2825 168.919 80.6013C167.035 84.3187 165.281 88.1013 163.266 91.7463C163.093 91.8042 162.926 91.8622 162.752 91.9202C163.266 90.5941 163.911 89.3187 164.658 88.1013Z" fill="#E0E0E0"/>
<path d="M169.346 79.6014C169.346 79.4274 169.346 79.2535 169.346 79.0796C169.483 78.6666 169.505 78.1883 170.034 78.0361C170.012 78.6448 169.708 79.1376 169.346 79.6014Z" fill="#E5E5E5"/>
<path d="M61.4924 103.029C61.3764 103.261 61.2532 103.485 61.1373 103.717C60.8329 104.08 60.6663 104.522 60.4489 104.935C60.4054 105.398 59.9199 105.667 59.9126 106.145C59.4199 107.029 58.9779 107.935 58.5576 108.855C58.2895 109.558 57.8981 110.203 57.5866 110.884C56.6228 112.58 55.7822 114.333 54.8329 116.036C54.6952 116.282 54.6155 116.565 54.3692 116.746C54.3112 116.971 54.246 117.203 54.188 117.427C53.6735 118 53.5721 118.826 52.9779 119.348C52.9199 119.514 52.8619 119.688 52.7967 119.855C52.1155 120.594 51.6228 121.507 50.717 122.036C50.63 122.029 50.5576 121.993 50.4996 121.927C50.4924 121.398 50.9271 121.123 51.2242 120.811C52.246 119.739 52.9634 118.478 53.5866 117.152C54.7967 114.949 55.8909 112.688 57.0213 110.449C58.5358 107.435 60.0721 104.427 61.4996 101.362C62.0648 100.145 62.275 98.9274 61.8112 97.6376C57.3982 88.8042 52.9851 79.9781 48.5866 71.1448C48.0286 70.0289 47.3764 68.9854 46.6445 67.9781C47.1228 67.797 47.188 68.268 47.4199 68.4781C47.5721 68.7245 47.7822 68.9347 47.9416 69.1738C50.8329 74.1448 53.2025 79.3912 55.8184 84.5071C57.8981 88.5723 59.8909 92.6738 61.8909 96.7753C62.63 98.2897 62.7895 99.7897 62.1083 101.355C62.0068 101.956 61.601 102.442 61.4924 103.029Z" fill="#C5C4C4"/>
<path d="M61.8102 97.6519C62.4479 98.8765 62.2667 100.094 61.745 101.29C60.3392 104.492 58.6653 107.558 57.1291 110.695C56.1798 112.637 55.1943 114.572 54.216 116.507C54.0783 116.782 53.9986 117.116 53.6725 117.261C53.4552 116.942 53.745 116.724 53.8537 116.485C54.5204 115.087 55.2523 113.724 55.9044 112.326C56.803 110.492 57.7015 108.659 58.6001 106.833C59.3972 105.203 60.1508 103.558 61.0059 101.956C61.7305 100.587 62.1363 99.2026 61.8102 97.6519Z" fill="#AFACAD"/>
<path d="M55.9063 112.326C55.6672 113.413 54.9933 114.297 54.5585 115.297C54.2759 115.956 53.8339 116.543 53.6672 117.253C53.1527 118.884 52.0585 120.145 50.9788 121.405C50.8266 121.579 50.6817 121.753 50.5368 121.927C49.7397 122.934 48.6962 123.326 47.4353 123.137C47.2542 123.094 47.044 123.087 47.073 122.811C48.2904 122.956 49.2469 122.427 50.102 121.637C51.2976 120.536 52.2904 119.289 53.0368 117.826C53.9788 115.992 54.8266 114.101 55.9063 112.326Z" fill="#AEAAAB"/>
<path d="M47.0726 122.826C47.1886 122.884 47.3045 122.942 47.4204 123C48.7465 123.37 49.7248 122.645 50.7175 121.949C51.4422 121.5 51.79 120.696 52.3914 120.13C52.5219 120.014 52.6088 119.87 52.7972 119.862C52.6813 120.152 52.5654 120.442 52.4422 120.725C51.5364 121.391 50.9059 122.355 49.9277 122.942C48.7465 123.645 47.2103 123.812 46.377 122.616C46.6161 122.688 46.848 122.754 47.0726 122.826Z" fill="#CECFCE"/>
<path d="M47.4185 68.4927C47.1214 68.3913 46.991 68.0145 46.6432 67.9927C45.7156 66.9855 44.6214 66.2029 43.4258 65.5435C45.0924 66.0652 46.491 66.9638 47.4185 68.4927Z" fill="#CBCACA"/>
<path d="M62.0061 101.464C62.6075 99.6812 62.3829 98.0363 61.5423 96.3117C57.7452 88.5363 53.8176 80.8262 49.9626 73.0798C49.3104 71.7682 48.6075 70.4856 47.9336 69.1885C48.7669 69.9493 49.1582 71.0001 49.6437 71.9566C53.2959 79.1667 56.8974 86.3986 60.5061 93.6305C61.0858 94.7899 61.6365 95.9638 62.18 97.145C62.8466 98.5798 62.9046 100.029 62.18 101.471C62.122 101.529 62.064 101.522 62.0061 101.464Z" fill="#CBCACA"/>
<path d="M62.0057 101.464C62.0637 101.464 62.1217 101.464 62.1796 101.464C62.2448 101.92 61.8608 102.246 61.8318 102.674C61.7159 102.79 61.6072 102.906 61.4912 103.022C61.3173 102.391 61.8173 101.978 62.0057 101.464Z" fill="#D5D5D5"/>
<path d="M47.9417 69.1888C47.6591 69.0366 47.4344 68.8482 47.4199 68.4932C47.6953 68.6453 47.9272 68.841 47.9417 69.1888Z" fill="#CBCACA"/>
<path d="M57.4914 110.833C57.7812 110.145 58.0711 109.449 58.361 108.761C58.8754 108.283 59.0059 107.58 59.3682 107.015C59.4986 106.804 59.4986 106.42 59.9189 106.493C58.9841 108.775 57.745 110.913 56.6798 113.138C56.5349 113.442 56.4551 113.804 56.1001 113.964C55.8972 113.507 56.2885 113.225 56.4407 112.891C56.7595 112.189 57.0856 111.493 57.4914 110.833Z" fill="#DEDEDE"/>
<path d="M57.4909 110.833C57.0272 111.877 56.5634 112.913 56.0996 113.957C55.6793 114.739 55.2591 115.522 54.846 116.305C54.7373 116.507 54.6576 116.732 54.375 116.747C55.2591 114.971 56.1431 113.196 57.0272 111.428C57.1359 111.203 57.2156 110.942 57.4909 110.833Z" fill="#CDCDCD"/>
<path d="M59.9193 106.493C59.3686 106.884 59.2961 107.565 58.9483 108.087C58.7816 108.341 58.7599 108.717 58.3613 108.761C58.6947 108.087 59.028 107.413 59.3686 106.746C59.4918 106.5 59.5425 106.174 59.9121 106.145C59.9193 106.261 59.9193 106.377 59.9193 106.493Z" fill="#CACBCA"/>
<path d="M52.9863 119.348C53.3776 118.703 53.4863 117.877 54.1965 117.427C53.8704 118.123 53.8124 118.978 52.9863 119.348Z" fill="#CECFCE"/>
<path d="M60.4479 104.942C60.4334 104.399 60.6725 104 61.1363 103.725C61.0276 104.196 60.8682 104.638 60.4479 104.942Z" fill="#D5D5D5"/>
<path d="M171.79 67.623C172.544 68.0723 172.529 68.8767 172.631 69.5796C172.812 70.9129 172.391 72.1375 171.797 73.3187C169.544 77.8114 167.297 82.3042 165.051 86.8042C164.899 87.1086 164.79 87.4419 164.652 87.7607C164.478 87.8404 164.312 87.9636 164.102 87.9129C164.507 86.5723 165.348 85.4274 165.848 84.123C166.275 83.5071 166.529 82.797 166.862 82.1303C168.5 78.8332 170.203 75.5578 171.79 72.2317C172.015 71.7607 172.102 71.2535 172.239 70.7607C172.246 70.3477 172.551 69.9491 172.283 69.5361C172.123 68.8912 171.957 68.2607 171.79 67.623Z" fill="#B5B3B4"/>
<path d="M162.753 90.8773C162.695 90.9933 162.637 91.1092 162.579 91.2251C159.905 96.4715 157.376 101.783 154.702 107.029C153.891 108.624 153.065 110.211 152.268 111.812C152.152 112.044 152.079 112.305 151.833 112.443C151.739 112.464 151.659 112.443 151.594 112.377C153.101 109.356 154.594 106.327 156.108 103.312C158.217 99.1092 160.347 94.9135 162.471 90.7106C162.601 90.7034 162.695 90.7541 162.753 90.8773Z" fill="#AEAAAB"/>
<path d="M142.254 130.102C141.109 131.442 139.544 131.971 137.906 132.355C137.196 132.522 136.486 132.522 135.761 132.537C133.428 132.58 131.102 132.616 128.776 132.703C126.558 132.783 124.348 132.45 122.131 132.522C121.928 132.529 121.725 132.537 121.58 132.348C125.739 132.348 129.899 132.297 134.058 132.37C136.921 132.421 139.558 131.877 141.848 130.073C141.993 130.008 142.131 129.979 142.254 130.102Z" fill="#B2AEAF"/>
<path d="M151.586 112.384C151.658 112.391 151.731 112.391 151.803 112.398C151.89 113.058 151.455 113.493 151.115 113.964V113.956C149.1 118.224 146.854 122.377 144.738 126.587C144.571 126.92 144.47 127.29 144.165 127.543C144.079 127.558 143.999 127.529 143.934 127.471C146.484 122.449 149.035 117.413 151.586 112.384Z" fill="#AFACAD"/>
<path d="M172.303 70.7464C172.23 71.587 171.911 72.3624 171.549 73.1088C169.839 76.5653 168.107 80.0146 166.375 83.4566C166.252 83.7102 166.165 84.0073 165.854 84.1088C165.89 83.6595 166.143 83.3044 166.332 82.9204C167.781 80.0073 169.238 77.087 170.701 74.1812C171.375 72.8406 172.093 71.5291 172.281 70.0073C172.448 70.2537 172.412 70.5001 172.303 70.7464Z" fill="#AFA9AB"/>
<path d="M171.252 66.0648C170.781 66.0286 170.505 65.4779 169.976 65.5721C168.65 64.8547 167.23 64.6445 165.73 64.6518C161.201 64.6808 156.679 64.659 152.15 64.659C152.447 64.3909 152.81 64.5069 153.143 64.5069C157.795 64.4996 162.447 64.4779 167.1 64.5214C168.636 64.5359 170.136 64.8474 171.252 66.0648Z" fill="#E0E0E0"/>
<path d="M162.753 90.877C162.659 90.8263 162.557 90.7683 162.463 90.7176C162.861 89.8915 163.26 89.0582 163.673 88.2321C163.76 88.0582 163.84 87.8481 164.108 87.8915C163.869 88.9857 163.18 89.877 162.753 90.877Z" fill="#AFA9AB"/>
<path d="M143.925 127.478C144.005 127.485 144.077 127.493 144.157 127.5C144.157 127.935 143.78 128.181 143.635 128.543C143.468 128.782 143.265 128.993 143.113 129.239C143.055 129.297 142.997 129.355 142.939 129.413C142.758 129.695 142.526 129.927 142.244 130.108C142.106 130.101 141.976 130.094 141.838 130.087C142.635 129.29 143.302 128.398 143.925 127.478Z" fill="#AFACAD"/>
<path d="M172.303 70.7466C172.296 70.5002 172.288 70.2539 172.281 70.0075C172.281 69.8481 172.288 69.6886 172.288 69.522C172.586 69.935 172.564 70.3408 172.303 70.7466Z" fill="#B4B0B1"/>
<path d="M171.084 75.6088C171.338 74.7102 171.852 73.9349 172.251 73.1088C173.193 71.1668 173.214 69.232 172.287 67.2827C172.968 67.8045 173.062 68.5943 173.149 69.3479C173.316 70.8045 173.033 72.1957 172.309 73.4784C171.91 74.1885 171.736 75.0363 171.084 75.6088Z" fill="#E0E0E0"/>
<path d="M151.115 113.964C151.318 113.428 151.702 112.971 151.804 112.399C153.92 108.232 156.086 104.094 158.13 99.8914C159.42 97.2464 160.731 94.616 162.036 91.9783C162.173 91.7029 162.246 91.3696 162.579 91.2319C162.615 91.6015 162.42 91.8986 162.26 92.203C158.753 99.2102 155.253 106.21 151.738 113.21C151.594 113.5 151.557 113.906 151.115 113.964Z" fill="#B5B3B4"/>
<path d="M147.984 121.768C147.411 122.913 146.839 124.058 146.259 125.195C146.121 125.471 146.049 125.797 145.723 125.927C145.802 125.71 145.86 125.492 145.962 125.289C148.549 120.115 151.136 114.942 153.73 109.768C153.817 109.594 153.947 109.442 154.063 109.275C154.107 109.681 153.875 109.992 153.708 110.326C151.802 114.137 149.889 117.956 147.984 121.768Z" fill="#DADADA"/>
<path d="M143.645 128.536C143.659 128.109 143.971 127.833 144.166 127.493C146.347 123.196 148.521 118.899 150.71 114.609C150.826 114.384 150.891 114.116 151.123 113.964C151.159 114.37 150.934 114.681 150.76 115.015C148.674 119.131 146.587 123.254 144.492 127.37C144.268 127.797 144.065 128.246 143.645 128.536Z" fill="#B2AEAF"/>
<path d="M121.405 133.05C121.26 132.768 120.861 132.985 120.709 132.703C125.963 133.079 131.223 132.782 136.484 132.877C136.738 132.884 137.013 132.804 137.216 133.043C136.963 133.21 136.673 133.101 136.405 133.13C132.158 133.326 127.905 133.166 123.658 133.224C123.339 133.232 123.028 133.145 122.709 133.13C122.281 133.094 121.832 133.224 121.405 133.05Z" fill="#DADADA"/>
<path d="M157.013 103.544C156.484 105.16 155.745 106.667 154.752 108.058C155.39 106.5 156.158 105 157.013 103.544Z" fill="#DCDCDC"/>
<path d="M145.552 126.283C145.124 127.355 144.747 128.457 143.812 129.232C144.407 128.254 144.805 127.16 145.552 126.283Z" fill="#DADADA"/>
<path d="M143.636 129.406C143.324 130.138 142.802 130.652 142.07 130.971C142.527 130.377 143.049 129.855 143.636 129.406Z" fill="#DADADA"/>
<path d="M142.252 130.101C142.411 129.797 142.65 129.572 142.948 129.406C142.897 129.819 142.658 130.043 142.252 130.101Z" fill="#B2AEAF"/>
<path d="M138.434 132.71C138.223 133.029 137.767 132.725 137.564 133.051C137.506 133.109 137.441 133.109 137.383 133.044C137.571 132.428 138.078 132.812 138.434 132.71Z" fill="#DADADA"/>
<path d="M143.121 129.232C143.136 128.877 143.36 128.688 143.643 128.536C143.621 128.884 143.404 129.08 143.121 129.232Z" fill="#B2AEAF"/>
<path d="M137.383 133.044C137.441 133.044 137.499 133.051 137.564 133.051C137.259 133.363 136.868 133.167 136.52 133.225C136.462 133.189 136.448 133.145 136.462 133.109C136.484 133.073 136.499 133.051 136.52 133.051C136.752 133.051 136.984 133.044 137.216 133.044C137.274 133.044 137.332 133.044 137.383 133.044Z" fill="#E7E6E6"/>
<path d="M136.52 133.051C136.52 133.109 136.52 133.167 136.52 133.225C136.288 133.225 136.056 133.225 135.824 133.225C135.643 133.348 135.433 133.304 135.237 133.304C131.346 133.304 127.455 133.304 123.564 133.304C123.368 133.304 123.158 133.348 122.977 133.225C122.861 133.225 122.745 133.225 122.629 133.225C122.571 133.188 122.549 133.152 122.571 133.109C122.593 133.073 122.607 133.051 122.629 133.051C127.252 133.051 131.89 133.051 136.52 133.051Z" fill="#E0DDDE"/>
<path d="M122.971 133.225C127.253 133.225 131.536 133.225 135.826 133.225C135.63 133.464 135.355 133.392 135.101 133.399C131.297 133.399 127.5 133.399 123.695 133.399C123.449 133.392 123.166 133.464 122.971 133.225Z" fill="#E7E6E6"/>
<path d="M122.622 133.051C122.622 133.109 122.622 133.167 122.622 133.225C122.216 133.159 121.774 133.384 121.404 133.051C121.81 133.051 122.216 133.051 122.622 133.051Z" fill="#E7E6E6"/>
<path d="M111.681 76.6449C111.449 76.7391 111.355 76.9565 111.253 77.1594C109.956 79.7536 108.659 82.3405 107.362 84.9347C107.246 85.1666 107.137 85.4058 107.166 85.6739C105.543 88.913 103.927 92.1521 102.304 95.3913C100.681 98.6304 99.0575 101.87 97.4343 105.109C97.3184 105.203 97.2024 105.217 97.072 105.145C96.8474 104.746 97.13 104.442 97.2749 104.116C97.4923 103.623 97.7821 103.159 97.9488 102.645C98.7024 100.92 99.601 99.2753 100.434 97.5942C101.311 95.8043 102.21 94.0217 103.108 92.2391C103.405 91.913 103.572 91.5072 103.768 91.1232C106.231 86.2246 108.659 81.3043 111.137 76.413C111.268 76.1739 111.398 75.942 111.514 75.6956C111.55 75.6304 111.586 75.5652 111.63 75.5C111.826 75.2681 111.942 74.9927 112.087 74.7319C112.13 74.6666 112.181 74.6087 112.246 74.5579C114.181 71.7753 116.652 69.6376 119.811 68.3405C120.13 68.2826 120.434 68.1594 120.717 68.0072C121.217 67.8043 121.739 67.6521 122.253 67.4782C123.311 67.326 124.246 66.9782 124.702 65.8985C124.753 65.8405 124.811 65.7826 124.862 65.7246C125.159 66.4565 124.833 67.1087 123.905 67.4637C122.753 67.9058 121.558 68.2391 120.413 68.7029C117.094 70.0579 114.413 72.1884 112.543 75.2753C112.253 75.7174 111.971 76.1884 111.681 76.6449Z" fill="#C7C8C7"/>
<path d="M80.0644 130.094C79.7165 130.268 79.3687 130.442 79.0281 130.616C78.4919 130.811 77.9919 131.101 77.4629 131.311C76.6513 131.601 75.8397 131.884 75.0281 132.174C73.9557 132.166 72.9702 132.688 71.9049 132.703C71.5209 132.92 71.0716 132.637 70.6876 132.877C70.6296 132.877 70.5716 132.877 70.5136 132.884C70.1223 133.051 69.7093 132.927 69.3035 132.964C68.731 132.927 68.1731 133.014 67.6223 133.13C66.4412 133.137 65.26 133.13 64.0861 133.13C62.8905 133.13 61.702 133.13 60.5064 133.13C59.7745 133.13 59.0426 133.13 58.318 133.13C57.9412 132.993 57.5499 132.92 57.1441 132.956C56.8542 132.92 56.5499 133.036 56.2745 132.877C54.8687 132.703 53.5281 132.282 52.2093 131.797C51.7962 131.645 51.4629 131.369 51.2383 130.978C51.6586 130.848 51.8904 131.333 52.2745 131.304C52.847 131.616 53.5426 131.601 54.0789 131.985C54.4267 131.964 54.7528 132.036 55.0571 132.203C55.6006 132.261 56.1223 132.507 56.6803 132.449C56.7673 132.464 56.8542 132.485 56.9412 132.507C57.5934 132.558 58.2455 132.507 58.8977 132.536C58.9991 132.543 59.0934 132.558 59.1948 132.58C61.5354 132.797 63.876 132.623 66.2165 132.572C66.318 132.551 66.4194 132.536 66.5209 132.529C67.6078 132.536 68.7021 132.522 69.789 132.42C69.8832 132.391 69.9702 132.369 70.0716 132.362C71.8107 132.166 73.5426 131.942 75.1948 131.333C75.6513 131.065 76.1586 130.942 76.6586 130.79C77.0136 130.732 77.3832 130.732 77.6658 130.464C77.76 130.391 77.8687 130.326 77.9847 130.29C78.7745 130.13 79.4919 129.811 80.1006 129.268C80.8615 128.717 81.6441 128.203 82.4484 127.724C83.8905 126.891 85.0209 125.695 86.1151 124.478C86.3108 124.261 86.4774 124.029 86.7021 123.848C87.1876 123.369 87.5716 122.797 87.9992 122.275C88.1876 122.051 88.347 121.71 88.7455 121.942C87.5934 123.826 86.1513 125.464 84.4991 126.913C83.6368 127.674 82.702 128.348 81.8035 129.058C81.2383 129.427 80.6513 129.753 80.0644 130.094Z" fill="#D5D5D5"/>
<path d="M82.5051 127.847C81.7515 128.369 80.9979 128.884 80.2442 129.405C79.4979 129.768 78.7805 130.181 77.9906 130.449C77.9326 130.507 77.8747 130.565 77.8167 130.623C77.4906 130.804 77.0993 130.782 76.7732 130.971C76.3022 131.123 75.8022 131.195 75.3819 131.492C73.5921 131.934 71.8022 132.413 69.9399 132.478C69.4761 132.514 68.9978 132.674 68.5703 132.347C70.3602 132.058 72.1645 131.905 73.9254 131.442C79.8457 129.876 84.4761 126.514 87.8892 121.456C88.208 120.978 88.5341 120.5 88.8529 120.021C89.1718 119.826 89.2225 119.449 89.4109 119.166C89.5558 118.949 89.5631 118.572 89.9761 118.623C90.2297 119.101 89.8819 119.449 89.6935 119.804C88.9471 121.224 87.9399 122.471 86.9254 123.71C85.8529 124.855 84.8457 126.058 83.5921 127.036C83.237 127.304 82.8602 127.558 82.5051 127.847Z" fill="#B1AEAF"/>
<path d="M103.174 92.2755C102.442 94.1306 101.42 95.848 100.565 97.6523C100.399 97.6741 100.283 97.6451 100.37 97.4349C101.42 95.2827 102.464 93.1306 103.529 90.9856C106.014 86.0001 108.5 81.0146 111.014 76.0436C111.319 75.4422 111.572 74.7683 112.196 74.377C112.312 74.5001 112.297 74.6233 112.203 74.7465C111.978 75.0074 111.884 75.348 111.681 75.6161C111.493 75.8769 111.333 76.1523 111.21 76.4567C108.71 81.4422 106.217 86.4277 103.717 91.4132C103.572 91.7103 103.478 92.0653 103.174 92.2755Z" fill="#ADACAC"/>
<path d="M112.201 74.7464C112.201 74.6232 112.193 74.5001 112.193 74.3769C112.208 74.2537 112.179 74.116 112.317 74.029C112.556 73.8406 112.744 73.6088 112.875 73.3261L112.867 73.3334C113.201 72.9059 113.672 72.6015 113.925 72.1015C116.15 69.616 118.998 68.1812 122.15 67.3117C122.976 67.087 123.722 66.7899 124.36 66.2319C124.541 66.6812 124.186 66.8261 123.918 67C123.418 67.3189 122.838 67.4493 122.273 67.616C121.751 67.7899 121.23 67.9638 120.708 68.1377C120.425 68.2754 120.114 68.3261 119.838 68.4783C116.875 69.7754 114.454 71.7537 112.592 74.3986C112.498 74.5435 112.338 74.6305 112.201 74.7464Z" fill="#B0ADAE"/>
<path d="M100.369 97.4346C100.435 97.507 100.5 97.5795 100.565 97.652C99.7824 99.3404 98.8114 100.942 98.1302 102.681C97.036 104.5 96.3983 106.543 95.3331 108.377C95.1592 108.674 95.123 109.123 94.623 109.108C94.5795 109.022 94.5867 108.942 94.6302 108.862C96.0143 106.072 97.3911 103.282 98.7751 100.5C99.2969 99.4636 99.8403 98.4563 100.369 97.4346Z" fill="#AEABAC"/>
<path d="M68.5718 132.34C69.0501 132.348 69.5211 132.355 69.9993 132.355C70.0573 132.391 70.0718 132.435 70.0573 132.471C70.0356 132.507 70.0211 132.529 69.9993 132.529C69.1515 132.717 68.2964 132.558 67.4414 132.616C67.137 132.637 66.8109 132.529 66.5211 132.703H66.4341H66.3472C64.4269 132.891 62.5066 132.746 60.5791 132.775C60.0718 132.782 59.5501 132.869 59.0428 132.703H58.9559H58.8689C58.1878 132.456 57.4631 132.761 56.7819 132.529C56.724 132.485 56.7095 132.442 56.724 132.406C56.7457 132.362 56.7602 132.34 56.7819 132.34C60.724 132.529 64.6443 132.369 68.5718 132.34Z" fill="#C0BEBE"/>
<path d="M94.6367 108.854C94.6439 108.934 94.6512 109.021 94.6657 109.101C94.8106 109.608 94.441 109.963 94.2599 110.369C93.9628 111.021 93.6005 111.644 93.3324 112.311C93.1077 112.891 92.8106 113.441 92.528 113.999C92.0353 114.702 91.7092 115.492 91.3251 116.253C90.9555 116.92 90.6367 117.615 90.2961 118.297C90.2164 118.441 90.1295 118.579 89.9773 118.652C89.3758 118.927 89.5497 119.818 88.8613 120.021C90.7164 116.391 92.5715 112.76 94.4338 109.13C94.4773 109.028 94.5642 108.949 94.6367 108.854Z" fill="#ADA9AA"/>
<path d="M122.273 67.6229C122.737 67.42 123.201 67.2244 123.657 67.0142C123.998 66.8548 124.324 66.6809 124.36 66.2389C124.476 66.1229 124.592 65.9997 124.701 65.8838C124.527 66.9852 123.766 67.5287 122.273 67.6229Z" fill="#BFBCBC"/>
<path d="M54.0856 131.985C53.4769 131.775 52.774 131.804 52.2812 131.304C52.9189 131.427 53.6146 131.398 54.0856 131.985Z" fill="#C0BEBE"/>
<path d="M113.925 72.1084C113.816 72.7316 113.331 73.0214 112.867 73.3403C113.099 72.8258 113.498 72.4562 113.925 72.1084Z" fill="#ABA3A5"/>
<path d="M56.7944 132.34C56.7944 132.405 56.7944 132.463 56.7944 132.528C56.1929 132.55 55.606 132.5 55.0625 132.202C55.6567 132.028 56.2074 132.449 56.7944 132.34Z" fill="#BFBFBF"/>
<path d="M112.876 73.3262C112.891 73.7175 112.666 73.9204 112.318 74.0291C112.442 73.7465 112.608 73.4928 112.876 73.3262Z" fill="#ABA3A5"/>
<path d="M64.0944 133.05C65.3118 133.05 66.522 133.05 67.7394 133.05C67.9713 132.927 68.2032 132.927 68.435 133.05C67.7321 133.42 66.9785 133.166 66.2466 133.21C65.5292 133.253 64.8118 133.217 64.0944 133.217C64.0365 133.181 64.022 133.137 64.0365 133.101C64.051 133.072 64.0727 133.05 64.0944 133.05Z" fill="#DEDEDE"/>
<path d="M64.094 133.051C64.094 133.109 64.094 133.167 64.094 133.225C62.8766 133.225 61.6592 133.225 60.449 133.225C60.3911 133.188 60.3693 133.152 60.3911 133.109C60.4128 133.073 60.4273 133.051 60.449 133.051C61.6592 133.051 62.8766 133.051 64.094 133.051Z" fill="#DCDBDB"/>
<path d="M60.4407 133.051C60.4407 133.109 60.4407 133.167 60.4407 133.225C59.5712 133.13 58.6799 133.428 57.832 133.051C57.948 132.949 58.0639 132.949 58.1799 133.051C58.9407 133.051 59.6871 133.051 60.4407 133.051Z" fill="#DEDEDE"/>
<path d="M68.4339 133.05C68.2021 133.05 67.9702 133.05 67.7383 133.05C68.231 132.71 68.7818 132.956 69.3035 132.876C69.3615 132.913 69.376 132.956 69.3615 132.992C69.3397 133.028 69.3252 133.05 69.3035 133.05C69.0136 133.05 68.7238 133.05 68.4339 133.05Z" fill="#DCDBDB"/>
<path d="M70.6934 132.877C71.0629 132.543 71.5049 132.768 71.9107 132.703C71.5412 133.029 71.0919 132.812 70.6934 132.877Z" fill="#DEDEDE"/>
<path d="M69.3047 133.051C69.3047 132.993 69.3047 132.935 69.3047 132.877C69.7105 132.877 70.1163 132.877 70.5221 132.877C70.1525 133.203 69.7105 132.986 69.3047 133.051Z" fill="#DEDEDE"/>
<path d="M58.1878 133.051C58.0719 133.051 57.956 133.051 57.84 133.051C57.6081 133.051 57.3763 133.051 57.1444 133.051C57.0864 133.015 57.0647 132.979 57.0864 132.935C57.1081 132.899 57.1226 132.877 57.1444 132.877C57.4922 132.928 57.8835 132.739 58.1878 133.051Z" fill="#DCDBDB"/>
<path d="M57.145 132.877C57.145 132.935 57.145 132.993 57.145 133.051C56.8551 133.007 56.5218 133.167 56.2754 132.877C56.5652 132.877 56.8551 132.877 57.145 132.877Z" fill="#DEDEDE"/>
<path d="M89.9695 118.645C89.9767 118.507 90.0057 118.377 90.1434 118.297C90.5492 117.688 90.8245 117.014 91.1506 116.362C91.5999 115.58 91.9187 114.725 92.4042 113.956C92.6361 113.384 92.868 112.804 93.0999 112.232C93.2448 112.123 93.3825 112 93.5709 111.993C93.6941 112.022 93.7231 112.138 93.781 112.225C93.5854 112.848 93.0347 113.297 92.9187 113.964C92.0419 115.623 91.1071 117.254 90.455 119.022C89.9767 119.993 89.4622 120.949 88.7593 121.775C88.7521 121.833 88.7521 121.884 88.7448 121.942C87.8535 122.406 87.5709 123.42 86.839 124.022C86.7376 123.906 86.7448 123.79 86.839 123.681C87.9767 122.058 89.2883 120.543 89.9695 118.645Z" fill="#C7C8C7"/>
<path d="M88.7598 121.775C89.2815 120.848 89.796 119.92 90.3177 118.993C90.4119 118.899 90.4627 118.71 90.6656 118.819C90.4917 119.283 90.3177 119.746 90.1438 120.21C89.796 120.399 89.6873 120.725 89.6221 121.08C89.2453 121.196 89.2598 121.797 88.7598 121.775Z" fill="#E1E1E1"/>
<path d="M80.0625 130.094C80.5553 129.601 81.1422 129.26 81.8016 129.05C81.5697 129.282 81.3379 129.514 81.106 129.746C80.7654 129.869 80.4103 129.978 80.0625 130.094Z" fill="#E7E7E7"/>
<path d="M77.4629 131.311C77.9267 130.949 78.4194 130.659 79.0281 130.616C78.5643 130.985 78.0716 131.282 77.4629 131.311Z" fill="#E7E7E7"/>
<path d="M111.682 76.6448C111.805 76.0796 112.124 75.6303 112.551 75.2607C112.493 75.4926 112.435 75.7245 112.377 75.9564C111.979 76.1086 112.008 76.6086 111.682 76.826C111.682 76.768 111.682 76.7028 111.682 76.6448Z" fill="#DDDDDD"/>
<path d="M93.7881 112.224C93.7301 112.166 93.6722 112.108 93.6142 112.05C93.4258 111.855 93.5635 111.666 93.6432 111.492C94.6722 109.427 95.7591 107.384 96.7809 105.319C96.8461 105.195 96.8895 105.043 97.0852 105.108C97.2011 105.108 97.3171 105.108 97.433 105.108C96.2229 107.478 95.0055 109.855 93.7881 112.224Z" fill="#CDCDCD"/>
<path d="M90.6662 118.818C90.5503 118.876 90.4343 118.934 90.3184 118.992C91.0937 117.268 91.8111 115.507 92.9271 113.956C92.4053 115.115 91.8836 116.268 91.3618 117.427C91.014 117.833 90.7966 118.304 90.6662 118.818Z" fill="#D2D2D2"/>
<path d="M50.717 121.942C50.0866 122.833 48.4489 123.507 47.4199 122.993C48.6446 123.188 49.5721 122.507 50.5359 121.942C50.6011 121.942 50.6591 121.942 50.717 121.942Z" fill="#CBCBCB"/>
<path d="M103.172 92.2753C105.831 86.9492 108.498 81.6304 111.157 76.3043C111.215 76.2391 111.273 76.2391 111.331 76.3043C111.215 76.5941 111.114 76.8985 110.976 77.1811C108.599 81.9347 106.223 86.6956 103.839 91.442C103.679 91.7535 103.65 92.2028 103.172 92.2753Z" fill="#B4B1B2"/>
<path d="M97.0943 105.109C95.8262 107.362 94.6668 109.681 93.6161 112.051C93.4422 112.109 93.2755 112.174 93.1016 112.232C93.6233 111.188 94.1378 110.145 94.6595 109.101C95.7465 107.297 96.5653 105.362 97.5508 103.507C97.7103 103.21 97.7755 102.841 98.1305 102.681C97.79 103.493 97.4421 104.297 97.0943 105.109Z" fill="#B4B1B2"/>
<path d="M111.682 75.6088C111.74 75.2537 111.848 74.9204 112.203 74.7393C112.145 75.1016 112.029 75.4277 111.682 75.6088Z" fill="#B0ADAE"/>
<path d="M119.848 68.4927C120.072 68.2173 120.377 68.1304 120.717 68.1521C120.485 68.4202 120.188 68.5072 119.848 68.4927Z" fill="#BFBCBC"/>
<path d="M111.332 76.3041C111.274 76.3041 111.216 76.3041 111.158 76.3041C111.303 76.0504 111.368 75.7316 111.68 75.6084C111.651 75.8838 111.557 76.1229 111.332 76.3041Z" fill="#B0ADAE"/>
<path d="M86.8464 123.674C86.8464 123.79 86.8464 123.906 86.8464 124.014C85.7812 125.138 84.7667 126.304 83.5349 127.254C83.216 127.5 82.9334 127.79 82.5059 127.84C83.2377 127.196 83.9479 126.536 84.7015 125.913C85.4986 125.254 85.9914 124.29 86.8464 123.674Z" fill="#BFBFBF"/>
<path d="M59.0488 132.703C61.4836 132.703 63.9184 132.703 66.3532 132.703C63.9184 132.985 61.4836 132.985 59.0488 132.703Z" fill="#BFBFBF"/>
<path d="M69.998 132.529C69.998 132.471 69.998 132.413 69.998 132.355C71.498 132.369 72.9256 131.949 74.3676 131.616C74.7082 131.536 75.0343 131.485 75.3821 131.485C73.6502 132.188 71.8386 132.442 69.998 132.529Z" fill="#BFBFBF"/>
<path d="M77.9863 130.442C78.6892 129.985 79.3849 129.522 80.2399 129.398C79.6095 130 78.8776 130.398 77.9863 130.442Z" fill="#BFBFBF"/>
<path d="M66.5215 132.703C67.6664 132.305 68.8403 132.638 69.9997 132.529C68.8548 132.92 67.6809 132.602 66.5215 132.703Z" fill="#BFBFBF"/>
<path d="M56.7949 132.529C57.4906 132.616 58.2152 132.34 58.8819 132.702C58.1862 132.615 57.4616 132.884 56.7949 132.529Z" fill="#BFBFBF"/>
<path d="M76.7676 130.964C77.0429 130.631 77.4197 130.609 77.811 130.616C77.5357 130.957 77.1589 130.986 76.7676 130.964Z" fill="#BFBFBF"/>
<path d="M92.4043 113.964C92.1144 114.833 91.7014 115.638 91.1869 116.391C91.1362 116.355 91.1217 116.312 91.1362 116.275C91.1507 116.239 91.1652 116.217 91.1869 116.217C91.4985 115.413 91.7594 114.587 92.4043 113.964Z" fill="#B4B1B2"/>
<path d="M91.1861 116.217C91.1861 116.275 91.1861 116.333 91.1861 116.391C90.9324 117.08 90.7223 117.79 90.1426 118.297C90.3745 117.551 90.7295 116.855 91.1861 116.217Z" fill="#B1AEAF"/>
</g>
<defs>
<clipPath id="clip0_5218_40171">
<rect width="192" height="192" fill="white"/>
</clipPath>
</defs>
</svg>
