<svg width="192" height="192" viewBox="0 0 192 192" fill="none" xmlns="http://www.w3.org/2000/svg">
<g clip-path="url(#clip0_4884_42805)">
<path d="M96 192C149.019 192 192 149.019 192 96C192 42.9807 149.019 0 96 0C42.9807 0 0 42.9807 0 96C0 149.019 42.9807 192 96 192Z" fill="white"/>
<path d="M143.2 93.9009C142.777 91.4435 141.426 89.6522 139.194 88.536C137.358 87.6178 135.377 87.3028 133.343 87.2128C133.046 87.2128 132.74 87.2398 132.443 87.1768H130.985C130.985 87.1768 130.949 87.2038 130.922 87.2128C130.481 87.2308 130.039 87.2668 129.598 87.3118C128.338 87.4378 127.114 87.6898 125.935 88.1489C123.576 89.0671 121.983 90.6963 121.317 93.1627C121.011 94.2969 120.921 95.4671 120.966 96.6373C121.002 97.5375 121.128 98.4106 121.407 99.2747C121.758 100.373 122.334 101.345 123.162 102.155C124.089 103.055 125.206 103.649 126.43 104.046C128.131 104.604 129.886 104.784 131.669 104.82C132.83 104.838 133.991 104.793 135.143 104.64C136.467 104.46 137.745 104.154 138.951 103.577C140.742 102.731 142.065 101.426 142.768 99.5538C143.461 97.7175 143.542 95.8182 143.209 93.9009H143.2ZM137.889 97.8705C137.448 99.5718 136.386 100.715 134.702 101.21C132.956 101.723 131.192 101.714 129.454 101.174C127.771 100.652 126.772 99.4728 126.376 97.7625C126.232 97.1504 126.187 96.5203 126.178 95.9172C126.187 95.0261 126.277 94.1709 126.556 93.3518C127.069 91.8395 128.113 90.8584 129.643 90.4353C131.318 89.9762 133.01 89.9672 134.684 90.4533C136.476 90.9754 137.565 92.1816 137.961 93.9999C138.24 95.2871 138.222 96.5833 137.889 97.8615V97.8705Z" fill="#2A396C"/>
<path d="M51.3752 104.235C51.3392 104.289 51.2942 104.262 51.2491 104.262C49.3948 104.262 47.5315 104.262 45.6772 104.262C45.5602 104.262 45.4882 104.208 45.4162 104.145C43.7059 102.66 41.9956 101.183 40.2763 99.6982C39.7813 99.2752 39.2862 98.8431 38.8001 98.42C38.7281 98.357 38.6831 98.348 38.6021 98.42C36.8648 99.9233 35.1275 101.427 33.3902 102.93C32.9131 103.344 32.4361 103.749 31.968 104.172C31.887 104.244 31.806 104.271 31.6979 104.271C29.8166 104.271 27.9263 104.271 26.045 104.271C26.027 104.271 26.009 104.271 26 104.271V104.235C26.3511 103.974 26.6661 103.668 26.9992 103.38C29.2945 101.372 31.5989 99.3562 33.8943 97.3488C34.4614 96.8538 35.0285 96.3497 35.6046 95.8546C35.7126 95.7556 35.6856 95.7196 35.5956 95.6386C33.3812 93.7212 31.1668 91.8129 28.9525 89.8956C28.0973 89.1575 27.2422 88.4104 26.3871 87.6723C26.3421 87.6272 26.288 87.5822 26.243 87.5372C26.297 87.4922 26.3421 87.5102 26.3871 87.5102C28.3044 87.5102 30.2217 87.5102 32.148 87.5102C32.238 87.5102 32.31 87.5282 32.382 87.5912C34.4524 89.4005 36.5227 91.2098 38.5841 93.0281C38.6921 93.1271 38.7461 93.1001 38.8451 93.0191C40.9064 91.2098 42.9768 89.4005 45.0381 87.5912C45.1011 87.5372 45.1551 87.5012 45.2452 87.5012C47.2075 87.5012 49.1698 87.5012 51.1321 87.5012C51.1411 87.5012 51.1501 87.5012 51.1771 87.5012C51.1591 87.5642 51.1051 87.5912 51.0601 87.6272C48.6117 89.7426 46.1633 91.8579 43.7149 93.9823C43.0758 94.5314 42.4457 95.0805 41.8066 95.6296C41.7076 95.7106 41.7076 95.7466 41.8066 95.8366C43.3639 97.1958 44.9211 98.564 46.4874 99.9233C48.0896 101.327 49.6829 102.723 51.2852 104.127C51.3212 104.154 51.3482 104.19 51.3842 104.217L51.3752 104.235Z" fill="#2A396C"/>
<path d="M133.344 87.2128C133.046 87.2128 132.74 87.2398 132.443 87.1768H133.344C133.344 87.1768 133.344 87.1948 133.344 87.2128Z" fill="#2A396C"/>
<path d="M117.923 104.172C117.923 104.334 117.887 104.37 117.725 104.37C116.186 104.37 114.638 104.37 113.098 104.37C112.954 104.37 112.927 104.334 112.927 104.199C112.927 99.725 112.927 95.2423 112.927 90.7686C112.927 90.5255 112.954 90.5615 112.711 90.5615C107.562 90.5615 102.414 90.5615 97.2648 90.5615C96.4277 90.5615 95.8516 90.9666 95.5545 91.7407C95.2395 92.5868 95.4645 93.568 96.1036 94.1261C96.3917 94.3691 96.7247 94.5042 97.1028 94.5042C99.8032 94.5042 102.504 94.5042 105.195 94.5042C107.436 94.5042 109.444 96.0074 110.038 98.1318C110.776 100.742 109.084 103.56 106.446 104.127C105.681 104.289 104.898 104.388 104.115 104.388C100.622 104.388 97.1388 104.388 93.6462 104.388C90.1536 104.388 86.337 104.388 82.6824 104.388C82.5204 104.388 82.4844 104.352 82.4844 104.19C82.4844 98.7169 82.4844 93.253 82.4844 87.7801C82.4844 87.627 82.5114 87.582 82.6734 87.582C84.2127 87.582 85.7519 87.582 87.2822 87.582C87.4262 87.582 87.4712 87.618 87.4712 87.7711C87.4712 92.1638 87.4712 96.5565 87.4712 100.949C87.4712 101.12 87.5162 101.156 87.6782 101.156C92.8091 101.156 97.9309 101.129 103.062 101.165C104.493 101.174 105.159 99.815 104.808 98.7439C104.556 97.9697 103.962 97.5287 103.152 97.5287C100.586 97.5287 98.0209 97.5287 95.4555 97.5287C93.3132 97.5287 91.3688 96.1964 90.6847 94.1891C90.0456 92.3168 90.4777 90.6335 91.8099 89.1843C92.638 88.2841 93.7002 87.8431 94.9064 87.7171C95.5995 87.645 96.2836 87.618 96.9768 87.618C103.89 87.618 110.803 87.618 117.716 87.618C117.869 87.618 117.914 87.645 117.914 87.8161C117.914 93.271 117.914 98.7349 117.914 104.19L117.923 104.172Z" fill="#2A396C"/>
<path d="M166.001 104.216C166.001 104.342 165.974 104.369 165.848 104.369C164.156 104.369 162.464 104.369 160.772 104.369C160.673 104.369 160.61 104.342 160.547 104.27C157.954 101.174 155.362 98.0862 152.76 94.9987C152.247 94.3866 151.734 93.7835 151.23 93.1714C151.203 93.1444 151.185 93.1174 151.131 93.0634V93.2704C151.131 96.907 151.131 100.544 151.131 104.18C151.131 104.324 151.104 104.369 150.951 104.369C149.394 104.369 147.845 104.369 146.288 104.369C146.162 104.369 146.117 104.342 146.117 104.207C146.117 98.7163 146.117 93.2254 146.117 87.7345C146.117 87.6085 146.144 87.5635 146.279 87.5635C148.161 87.5635 150.051 87.5635 151.932 87.5635C152.031 87.5635 152.094 87.5905 152.157 87.6715C154.912 91.0921 157.675 94.5126 160.439 97.9332C160.61 98.1492 160.781 98.3563 160.988 98.6083V98.3743C160.988 94.8367 160.988 91.2991 160.988 87.7615C160.988 87.5995 161.033 87.5635 161.186 87.5635C162.734 87.5635 164.282 87.5635 165.83 87.5635C165.956 87.5635 166.001 87.5815 166.001 87.7255C166.001 93.2254 166.001 98.7163 166.001 104.216Z" fill="#2A396C"/>
<path d="M80.9979 87.7349C77.9103 93.2168 74.8138 98.6987 71.7263 104.181C71.6633 104.298 71.5913 104.325 71.4653 104.325C69.935 104.325 68.4048 104.325 66.8655 104.325C66.7395 104.325 66.6675 104.28 66.6045 104.172C63.517 98.6807 60.4205 93.1988 57.324 87.7079C57.306 87.6719 57.288 87.6269 57.252 87.5639H57.405C59.0793 87.5639 60.7535 87.5639 62.4278 87.5549C62.5628 87.5549 62.6168 87.5999 62.6798 87.7079C64.8042 91.6596 66.9285 95.6022 69.0529 99.5539C69.0799 99.6079 69.1159 99.6619 69.1429 99.7159C69.1879 99.6979 69.1969 99.6619 69.2149 99.6259C71.3573 95.6472 73.4996 91.6686 75.642 87.6899C75.687 87.6089 75.714 87.5459 75.831 87.5459C77.5683 87.5459 79.3056 87.5459 81.0429 87.5459C81.0519 87.6179 81.0069 87.6629 80.9799 87.7169L80.9979 87.7349Z" fill="#2A396C"/>
<path d="M57.4879 96.0251C57.4879 97.8074 56.0657 99.2207 54.2654 99.2207C52.5191 99.2207 51.0879 97.7804 51.0879 96.0251C51.0879 94.2519 52.5191 92.8386 54.3014 92.8386C56.0837 92.8386 57.4879 94.2609 57.4879 96.0251Z" fill="#DC3523"/>
</g>
<defs>
<clipPath id="clip0_4884_42805">
<rect width="192" height="192" fill="white"/>
</clipPath>
</defs>
</svg>
