<svg width="192" height="192" viewBox="0 0 192 192" fill="none" xmlns="http://www.w3.org/2000/svg">
<g clip-path="url(#clip0_4915_32063)">
<path d="M96 192C149.019 192 192 149.019 192 96C192 42.9807 149.019 0 96 0C42.9807 0 0 42.9807 0 96C0 149.019 42.9807 192 96 192Z" fill="white"/>
<g clip-path="url(#clip1_4915_32063)">
<path fill-rule="evenodd" clip-rule="evenodd" d="M79.0176 69.4625C81.1626 63.3054 83.2282 57.7442 85.3733 51.6268C85.7308 50.9515 86.4855 49.9187 88.0347 51.2296L101.898 86.1462L102.136 51.4282C107.777 51.4679 115.126 51.4679 120.767 51.5076C113.299 52.1829 112.584 55.0827 112.544 60.207L112.623 117.448C113.497 119.911 114.133 120.824 119.217 121.897L91.0537 122.135C95.026 121.579 97.6875 119.792 97.2902 116.574C91.1729 100.844 85.0952 85.1531 79.0176 69.4625Z" fill="black"/>
<path fill-rule="evenodd" clip-rule="evenodd" d="M79.0586 69.4625C81.2036 63.3054 83.2692 57.7839 85.4143 51.6268C85.7718 50.9515 86.5265 49.9584 88.0757 51.2693L101.899 86.1462C101.542 113.118 101.82 95.0044 101.661 122.056C101.661 122.056 92.3658 122.135 91.0947 122.135C95.067 121.579 97.7285 119.792 97.2915 116.574C91.2139 100.883 85.1362 85.1531 79.0586 69.4625Z" fill="#FD0209"/>
<path fill-rule="evenodd" clip-rule="evenodd" d="M146.985 104.102L143.052 121.739C137.769 121.818 132.645 121.898 127.361 121.977C140.907 118.879 145.674 106.644 146.985 104.102Z" fill="black"/>
<path fill-rule="evenodd" clip-rule="evenodd" d="M49.0273 121.739C59.0773 119.276 60.8251 113.794 65.1152 104.578C64.1221 116.654 63.4071 120.15 71.9873 121.897L49.0273 121.739Z" fill="#FD0209"/>
<path fill-rule="evenodd" clip-rule="evenodd" d="M146.985 104.102L143.052 121.739C137.769 121.818 132.645 121.898 127.361 121.977C140.907 118.879 145.674 106.644 146.985 104.102Z" fill="black"/>
<path d="M56.1767 141.362C59.7088 141.362 62.5721 138.499 62.5721 134.967C62.5721 131.435 59.7088 128.571 56.1767 128.571C52.6446 128.571 49.7812 131.435 49.7812 134.967C49.7812 138.499 52.6446 141.362 56.1767 141.362Z" fill="#FD0209"/>
<path d="M34.5682 129.167H37.6268L42.195 141.362L34.5682 141.402L35.5612 138.343H38.1035L36.1174 133.735L33.0587 141.362H30L34.5682 129.167Z" fill="#FD0209"/>
<path d="M47.1212 133.774H44.0625V141.401H47.1212V133.774Z" fill="#FD0209"/>
<path d="M47.1212 128.968V132.146H44.0625L45.6117 128.968H47.1212Z" fill="#FD0209"/>
<path d="M158.863 129.087C159.975 129.087 161.008 129.683 161.603 130.636C161.881 131.153 162.001 131.669 162.001 132.265V133.576C162.001 134.728 161.405 135.721 160.451 136.317C159.975 136.595 159.419 136.714 158.863 136.714H157.432L162.001 141.322H157.432L152.825 136.714V141.322H149.766V133.655H158.306C158.664 133.655 158.942 133.377 158.942 133.02C158.942 132.741 158.982 132.543 158.743 132.344C158.624 132.225 158.465 132.146 158.306 132.146H149.766L151.434 129.087H158.863ZM135.346 141.322V133.655H147.621V136.714H138.405V138.263H147.621V141.322H135.346ZM135.346 132.146L136.776 129.087H147.621L147.581 132.146H135.346ZM130.103 133.655V129.087H133.162V141.322H130.103V136.714H125.495V141.322H122.436V129.087H125.495V133.655H130.103ZM108.136 132.146L109.606 129.087H120.371L120.132 132.146H115.763V141.322H112.704V132.146H108.136ZM100.549 129.087H103.608L108.216 141.322H105.157L102.058 133.655L98.9998 141.322H95.9411L100.549 129.087ZM81.5216 141.322V133.655H93.796V136.714H84.62V138.263H93.796V141.322H81.5216ZM81.5216 132.146L82.8722 129.087H93.796L93.6769 132.146H81.5216ZM73.4181 129.087V138.263H79.5751L77.9862 141.322H70.3594V129.087H73.4181Z" fill="black"/>
<path d="M100.547 129.087H103.606L108.214 141.322H100.547L101.54 138.263H104.083L102.057 133.655L98.9981 141.322H95.9395L100.547 129.087Z" fill="black"/>
<path fill-rule="evenodd" clip-rule="evenodd" d="M53.2385 130.557C52.881 130.914 52.5235 131.272 52.166 131.629C52.7619 132.662 53.3974 133.655 53.3974 134.847C53.3974 136.039 52.7619 137.389 52.166 138.74C52.5235 138.938 52.881 139.177 53.2385 139.375C53.7549 139.137 54.2713 138.859 54.748 138.978C55.2644 139.097 55.7411 139.614 56.2178 140.09C56.6547 139.614 57.0917 139.097 57.6081 138.978C58.1245 138.859 58.7203 139.097 59.3559 139.375C59.634 139.137 59.8723 138.859 60.1504 138.621C59.5148 137.31 58.8395 135.999 58.8395 134.807C58.8395 133.615 59.5148 132.622 60.1901 131.629C59.912 131.232 59.634 130.875 59.3559 130.517C58.7203 130.795 58.0848 131.033 57.5684 130.914C57.0917 130.795 56.6945 130.318 56.2972 129.842C55.7808 130.318 55.2644 130.795 54.7877 130.914C54.2713 131.033 53.7549 130.795 53.2385 130.557Z" fill="#FEFEFE"/>
</g>
</g>
<defs>
<clipPath id="clip0_4915_32063">
<rect width="192" height="192" fill="white"/>
</clipPath>
<clipPath id="clip1_4915_32063">
<rect width="132" height="90.8038" fill="white" transform="translate(30 50.5977)"/>
</clipPath>
</defs>
</svg>
