<svg width="192" height="192" viewBox="0 0 192 192" fill="none" xmlns="http://www.w3.org/2000/svg">
<g clip-path="url(#clip0_4915_31987)">
<path d="M96 192C149.019 192 192 149.019 192 96C192 42.9807 149.019 0 96 0C42.9807 0 0 42.9807 0 96C0 149.019 42.9807 192 96 192Z" fill="white"/>
<path d="M66.1597 68.0566C72.1409 68.3965 72.1409 68.3965 74.044 74.0378C77.3064 83.6212 84.5109 88.175 94.1623 88.9906C104.153 89.8062 111.562 85.3204 116.524 76.6885C117.543 74.8534 118.291 72.8144 118.97 70.7753C119.446 69.416 119.582 67.309 121.553 68.3965C123.184 69.2801 126.447 69.2121 125.495 72.7464C124.26 76.708 118.01 84.6911 112.082 88.9906C106.918 92.7362 95.6462 92.9342 90.56 92.4569C85.7344 91.9132 81.1126 90.8937 76.8986 88.107C70.8495 84.029 66.7715 78.8634 66.0918 71.455C66.1597 70.2998 66.1597 69.2126 66.1597 68.0575V68.0566Z" fill="#DA002B"/>
<path d="M66.7029 57.1141C67.8584 51.3369 69.7614 46.1714 76.1503 44.2683C79.3385 43.3188 80.7548 43.5775 83.151 44.2683C90.1639 46.1173 95.9968 53.3759 95.1132 61.1922C89.6759 60.9203 89.5399 60.7843 87.9087 55.6868C87.161 53.4438 86.2095 51.2689 84.6463 49.4338C81.9276 46.1034 79.6167 46.1714 77.0339 49.7057C74.9269 52.5603 73.9074 55.8907 73.2278 59.357C72.3442 63.7749 72.2762 63.7749 67.9263 62.3476C67.3214 62.2056 66.124 61.6501 66.1734 60.5636C66.2227 59.4771 66.547 57.8112 66.7029 57.1141Z" fill="#0D4680"/>
<path d="M108.231 44.2685C110.144 43.5709 111.494 43.4274 113.82 43.9951C122.452 46.1021 126.038 51.9488 125.902 60.6486C125.902 63.0954 125.359 63.8431 122.708 62.6876C119.921 61.5322 118.358 60.1728 118.154 56.9784C118.018 54.5995 116.999 52.2207 115.775 49.9778C113.804 46.3755 111.901 46.0356 108.978 48.9582C106.6 51.2691 105.104 54.1917 104.085 57.3182C102.657 61.6002 101.366 62.1439 96.8123 60.5806C96.2685 53.648 100.958 46.9192 108.231 44.2685Z" fill="#0D4680"/>
<path d="M93.11 122.411C93.11 130.593 93.11 137.441 93.11 144.2C93.11 145.356 93.7325 147.313 91.776 147.313C89.8195 147.402 90.2641 145.445 90.2641 144.289C90.1752 134.951 90.1752 125.702 90.0862 116.364C90.0862 115.386 89.8194 114.23 91.1534 113.785C92.9321 113.251 93.8214 114.318 94.7108 115.652C99.6021 122.678 104.582 129.615 109.474 136.641C109.918 137.352 110.363 138.064 111.608 138.686C111.252 132.461 110.985 126.235 110.719 120.099C110.63 118.765 110.63 117.431 110.808 116.097C110.985 114.585 111.964 113.696 113.564 113.785C115.343 113.963 114.898 115.386 114.898 116.453C114.898 125.613 114.81 134.773 114.81 143.933C114.81 145.534 114.987 147.402 113.031 148.024C111.252 148.558 110.541 146.779 109.563 145.712C103.604 138.775 98.5349 131.216 93.11 122.411Z" fill="#0E4881"/>
<path d="M85.7295 115.208C85.8184 117.253 84.5733 118.142 82.6168 118.142C80.1267 118.142 77.5476 118.231 75.0575 118.053C73.0121 117.876 71.9448 118.409 72.3006 120.632C72.3895 121.077 72.3006 121.522 72.3006 121.966C72.2116 128.903 72.2116 128.903 79.1484 128.992C80.2156 128.992 81.1939 128.992 82.2611 129.17C83.1504 129.348 83.2393 130.148 83.1504 130.949C83.1504 131.571 82.7947 132.105 82.0832 132.194C81.4607 132.283 80.9271 132.194 80.3045 132.283C77.7255 132.549 73.5457 131.127 72.8342 132.994C71.5891 136.374 72.3006 140.465 72.3895 144.289C72.3895 146.245 74.0793 145.534 75.0575 145.445C77.7255 145.089 80.3045 144.555 82.8836 144.022C84.3955 143.755 86.0852 143.666 86.352 145.623C86.7077 147.935 85.018 148.202 83.2393 148.202H70.344C68.0318 148.202 66.8756 147.223 66.7867 144.733C66.5199 135.306 67.5871 125.88 66.1642 116.542C65.8974 114.585 67.4982 114.407 68.7432 114.318L84.3133 113.793C85.0538 113.734 85.6777 113.914 85.7295 115.208Z" fill="#0E4881"/>
<path d="M124.948 131.038C124.948 135.484 124.948 139.842 124.948 144.289C124.948 146.245 124.593 148.024 122.28 148.024C119.968 148.024 119.612 146.156 119.612 144.2C119.346 134.773 120.235 125.346 119.168 115.919C118.901 113.785 120.413 113.785 121.658 113.696C123.703 113.518 125.037 114.585 125.037 116.809C124.948 121.611 124.948 126.324 124.948 131.038Z" fill="#0E4881"/>
<path fill-rule="evenodd" clip-rule="evenodd" d="M141.756 148.069C146.175 147.833 150.132 146.293 151.539 142.066C152.186 140.121 152.093 138.814 151.628 136.819C150.669 132.709 147.391 130.924 144.064 129.112C143.828 128.984 143.592 128.855 143.357 128.726C141.045 127.481 138.732 125.969 136.776 124.279C134.997 122.767 134.286 120.633 135.442 118.32C136.598 116.008 138.821 115.564 141.133 115.83C143.624 116.186 145.758 117.342 146.114 120.099C146.381 121.789 147.092 122.411 148.782 121.878C150.56 121.344 151.005 120.01 150.471 118.409C149.938 116.542 148.515 115.386 146.825 114.763C144.157 113.785 141.4 113.429 138.554 113.874C134.908 114.407 131.351 115.475 130.373 119.566C129.394 123.568 130.551 127.125 134.108 129.615C135.62 130.674 137.19 131.647 138.752 132.615C139.945 133.355 141.134 134.092 142.29 134.862C148.07 138.686 146.346 145.399 141.756 146.423C141.756 146.423 141.756 146.423 141.756 146.423C137.644 146.423 133.397 145.978 132.952 140.376C132.863 139.398 131.974 137.975 130.462 138.775C129.217 139.487 127.883 140.554 128.506 142.244C129.128 144.2 130.284 145.801 132.33 146.779C135.347 148.245 138.177 148.167 141.447 148.077C141.549 148.074 141.652 148.071 141.756 148.069C141.756 148.069 141.756 148.069 141.756 148.069Z" fill="#124B83"/>
<path fill-rule="evenodd" clip-rule="evenodd" d="M40.4629 143.755C40.4629 144.045 40.4452 144.33 40.4281 144.606C40.3511 145.847 40.2854 146.908 41.8858 147.49C47.3712 149.484 54.0696 147.401 54.0696 147.401C54.0696 147.401 61.54 144.911 62.2515 140.286C62.9629 135.395 61.2732 132.638 55.7594 130.059C56.1189 129.732 56.5025 129.429 56.8837 129.128C57.5395 128.611 58.188 128.099 58.6942 127.48C62.5183 123.033 61.0064 116.719 55.5815 114.851C51.2238 113.428 46.5993 113.34 42.0637 114.318C41.9449 114.338 41.8251 114.354 41.7061 114.37L41.7061 114.37C40.7557 114.501 39.8602 114.624 40.0182 116.363C40.7414 123.135 40.6384 129.883 40.5355 136.624C40.4992 139.001 40.4629 141.378 40.4629 143.755ZM54.6028 144.466C52.1759 146.894 45.9763 146.156 45.9763 146.156C45.9763 146.156 45.9763 137.885 45.7984 133.794C45.7095 131.837 46.4209 131.215 48.2885 131.304C51.0455 131.393 53.8024 131.571 55.3143 134.15C57.3597 137.618 57.4577 141.61 54.6028 144.466ZM45.7179 119.074C45.6611 117.512 45.6088 116.072 47.9605 115.744C50.9842 115.655 53.6236 116.274 54.5129 119.832C55.0465 121.966 55.0466 124.278 53.9794 126.324C52.4675 129.081 50.4077 129.784 47.7397 129.251C45.7281 128.915 45.7741 127.534 45.8218 126.104C45.8373 125.637 45.8531 125.165 45.7975 124.723L45.7086 120.454C45.7516 120 45.7346 119.532 45.7179 119.074Z" fill="#0F4881"/>
</g>
<defs>
<clipPath id="clip0_4915_31987">
<rect width="192" height="192" fill="white"/>
</clipPath>
</defs>
</svg>
