<svg width="192" height="192" viewBox="0 0 192 192" fill="none" xmlns="http://www.w3.org/2000/svg">
<g clip-path="url(#clip0_4887_46643)">
<path d="M96 192C149.019 192 192 149.019 192 96C192 42.9807 149.019 0 96 0C42.9807 0 0 42.9807 0 96C0 149.019 42.9807 192 96 192Z" fill="white"/>
<path d="M31.1644 86.2002C32.7144 86.2002 33.8644 86.2702 34.6144 86.4002C34.9744 86.4702 35.3244 86.5602 35.6644 86.6902C36.0044 86.8202 36.3244 86.9802 36.6144 87.1802C37.2144 87.5702 37.7144 88.1002 38.1044 88.7802C38.4944 89.4502 38.6944 90.2002 38.6944 91.0302C38.6944 91.4902 38.6244 91.9302 38.4944 92.3502C38.3644 92.7802 38.1844 93.1702 37.9444 93.5402C37.7144 93.9102 37.4244 94.2302 37.0844 94.5202C36.7444 94.8102 36.3744 95.0502 35.9544 95.2302C37.1444 95.5802 38.0544 96.1602 38.6844 96.9602C39.3144 97.7702 39.6244 98.7302 39.6244 99.8602C39.6044 100.54 39.4744 101.19 39.2544 101.83C39.0344 102.47 38.7044 103.04 38.2844 103.54C37.8644 104.04 37.3544 104.46 36.7644 104.78C36.1744 105.11 35.4944 105.29 34.7244 105.34C34.3944 105.37 33.8444 105.4 33.0644 105.41C32.2844 105.43 31.2744 105.45 30.0244 105.47H23.4844V86.2002H31.1544H31.1644ZM27.4044 93.8702H29.9444C30.7144 93.8702 31.3344 93.8702 31.7844 93.8502C32.2344 93.8402 32.5544 93.8202 32.7444 93.7802C33.4344 93.7102 33.9644 93.4902 34.3444 93.1202C34.7244 92.7502 34.9144 92.2402 34.9144 91.6102C34.9144 91.0202 34.7444 90.5402 34.4144 90.1502C34.0844 89.7602 33.5944 89.5402 32.9544 89.4802C32.7444 89.4502 32.3744 89.4202 31.8344 89.4002C31.2944 89.3802 30.5644 89.3702 29.6344 89.3702H27.4044V93.8702ZM27.4044 102.21H31.0044C31.6944 102.21 32.2544 102.21 32.6944 102.19C33.1344 102.17 33.4644 102.14 33.6644 102.08C34.2344 101.98 34.6944 101.73 35.0544 101.34C35.4144 100.94 35.5944 100.41 35.5944 99.7302C35.5944 98.5102 35.0444 97.7102 33.9444 97.3202C33.6844 97.2302 33.2644 97.1702 32.7044 97.1202C32.1344 97.0802 31.4044 97.0502 30.5144 97.0502H27.4044V102.2V102.21Z" fill="#262626"/>
<path d="M42.7344 105.47V91.4804H46.1544V93.4804C46.4444 93.0204 46.7244 92.6504 46.9844 92.3504C47.2444 92.0504 47.4944 91.8204 47.7444 91.6504C47.9944 91.4804 48.2544 91.3604 48.5144 91.2904C48.7744 91.2204 49.0644 91.1904 49.3644 91.1904C49.7644 91.1904 50.1744 91.2504 50.5844 91.3804C50.9944 91.5104 51.3944 91.6804 51.7844 91.9104L50.6044 95.1004C50.3144 94.8904 50.0144 94.7404 49.7244 94.6504C49.4344 94.5604 49.1544 94.5104 48.9044 94.5104C48.3744 94.5104 47.9244 94.6504 47.5744 94.9404C47.2244 95.2304 46.9244 95.7504 46.6944 96.5004C46.6044 96.8604 46.5344 97.4304 46.4844 98.2104C46.4344 98.9904 46.4044 99.9704 46.4044 101.16V105.46H42.7444L42.7344 105.47Z" fill="#262626"/>
<path d="M52.7645 95.1704C52.9545 94.4904 53.1945 93.9104 53.5045 93.4104C53.8145 92.9104 54.2145 92.5004 54.6945 92.1704C55.1745 91.8404 55.7545 91.6004 56.4245 91.4304C57.1045 91.2704 57.8945 91.1904 58.8145 91.1904C59.6445 91.1904 60.3645 91.2404 60.9645 91.3504C61.5745 91.4504 62.0845 91.6004 62.5145 91.7804C62.9445 91.9704 63.2845 92.1904 63.5545 92.4404C63.8245 92.6904 64.0345 92.9804 64.2045 93.2804C64.5245 93.8504 64.6745 94.9404 64.6745 96.5704L64.6445 100.91C64.6445 101.5 64.6545 102.02 64.6745 102.47C64.6945 102.92 64.7445 103.3 64.8245 103.59C64.8945 103.9 64.9745 104.2 65.0745 104.51C65.1745 104.82 65.3145 105.14 65.4745 105.47H61.8245C61.7745 105.35 61.7145 105.19 61.6645 105C61.6145 104.81 61.5545 104.59 61.4945 104.34L61.3845 103.93C60.7145 104.57 60.0345 105.05 59.3245 105.34C58.6145 105.64 57.8545 105.79 57.0345 105.79C56.3145 105.79 55.6645 105.69 55.0945 105.48C54.5245 105.27 54.0345 104.99 53.6345 104.62C53.2345 104.25 52.9345 103.82 52.7145 103.31C52.5045 102.8 52.3945 102.25 52.3945 101.65C52.3945 100.84 52.5845 100.14 52.9545 99.5304C53.3245 98.9204 53.8445 98.4604 54.5045 98.1304C54.8545 97.9604 55.2745 97.7904 55.7545 97.6504C56.2445 97.5004 56.8045 97.3704 57.4445 97.2504C58.3145 97.1004 59.0545 96.9404 59.6445 96.7904C60.2345 96.6404 60.7145 96.5004 61.0645 96.3604V95.9704C61.0645 95.6204 61.0245 95.3204 60.9445 95.0804C60.8645 94.8404 60.7245 94.6304 60.5245 94.4704C60.3245 94.3104 60.0645 94.2004 59.7445 94.1304C59.4245 94.0604 59.0145 94.0204 58.5245 94.0204C57.8645 94.0204 57.3645 94.1504 57.0045 94.4004C56.6445 94.6604 56.3445 95.1104 56.1045 95.7704L52.7545 95.1504L52.7645 95.1704ZM61.0745 98.7704C60.8445 98.8604 60.5445 98.9404 60.1645 99.0304C59.7845 99.1204 59.3345 99.2204 58.8145 99.3404C57.7545 99.5604 57.0845 99.7804 56.8045 100C56.5545 100.15 56.3745 100.34 56.2545 100.56C56.1345 100.78 56.0845 101.02 56.0845 101.27C56.0845 101.52 56.1345 101.78 56.2445 102.01C56.3445 102.24 56.4945 102.45 56.6745 102.62C56.8545 102.79 57.0745 102.93 57.3245 103.03C57.5745 103.13 57.8445 103.19 58.1445 103.19C58.8045 103.19 59.4445 102.98 60.0445 102.57C60.2745 102.38 60.4645 102.19 60.6045 101.99C60.7545 101.79 60.8545 101.56 60.9245 101.31C60.9745 101.16 61.0245 100.93 61.0445 100.63C61.0745 100.33 61.0845 99.9504 61.0845 99.4904V98.7704H61.0745Z" fill="#262626"/>
<path d="M77.3247 105.47V98.3504C77.3247 97.5904 77.3047 96.9604 77.2547 96.4804C77.2147 95.9904 77.1647 95.6404 77.1047 95.4304C76.9347 94.9904 76.6747 94.6504 76.3547 94.4204C75.9747 94.1704 75.5347 94.0404 75.0347 94.0404C74.7147 94.0404 74.4147 94.0804 74.1247 94.1704C73.8347 94.2604 73.5747 94.3804 73.3347 94.5504C73.0947 94.7104 72.8847 94.9204 72.7047 95.1604C72.5247 95.4004 72.3847 95.6704 72.2847 95.9604C72.1747 96.2404 72.1047 96.6504 72.0647 97.1804C72.0247 97.7104 72.0047 98.3704 72.0047 99.1504V105.48H68.3047V91.4904H71.7047V93.6004C72.9147 92.0004 74.4647 91.1904 76.3547 91.1904C77.1747 91.1904 77.9147 91.3304 78.5847 91.6204C79.2547 91.9004 79.7547 92.2904 80.0847 92.7704C80.2547 93.0004 80.4047 93.2404 80.5147 93.4804C80.6247 93.7304 80.7247 94.0004 80.7947 94.3104C80.8647 94.6204 80.9147 94.9804 80.9547 95.3904C80.9847 95.8004 81.0047 96.2704 81.0047 96.8104V105.48H77.3247V105.47Z" fill="#262626"/>
<path d="M94.1448 105.47V103.44C93.5548 104.23 92.8748 104.81 92.1148 105.21C91.3548 105.6 90.5748 105.8 89.7948 105.8C89.0148 105.8 88.2248 105.64 87.5448 105.32C86.8648 105 86.2248 104.52 85.6348 103.87C84.5248 102.58 83.9648 100.78 83.9648 98.4602C83.9648 96.1402 84.5148 94.2802 85.6048 93.0602C86.1648 92.4402 86.7948 91.9702 87.5048 91.6602C88.2148 91.3502 88.9848 91.1902 89.8248 91.1902C91.3948 91.1902 92.7448 91.8302 93.8648 93.1202V86.2002H97.5948V105.47H94.1448ZM87.6948 98.1702C87.6948 98.9202 87.7448 99.5702 87.8548 100.12C87.9648 100.67 88.1148 101.1 88.3148 101.43C88.8948 102.37 89.7348 102.84 90.8548 102.84C91.2648 102.84 91.6648 102.75 92.0348 102.58C92.4048 102.41 92.7348 102.14 93.0048 101.78C93.2848 101.42 93.5048 100.97 93.6548 100.44C93.8148 99.9102 93.8948 99.2802 93.8948 98.5602C93.8948 97.7502 93.8148 97.0602 93.6648 96.4902C93.5148 95.9202 93.2948 95.4502 93.0248 95.0902C92.7548 94.7302 92.4248 94.4702 92.0548 94.3002C91.6748 94.1302 91.2648 94.0502 90.8148 94.0502C90.3648 94.0502 89.9548 94.1302 89.5748 94.3002C89.1948 94.4702 88.8648 94.7302 88.5848 95.0702C88.3048 95.4102 88.0848 95.8502 87.9348 96.3602C87.7748 96.8802 87.6948 97.4902 87.6948 98.1802V98.1702Z" fill="#262626"/>
<path d="M101.194 86.2002H106.984L110.504 99.3402L113.954 86.2002H119.794V105.47H116.194V90.3002L112.384 105.47H108.634L104.784 90.3002V105.47H101.184V86.2002H101.194Z" fill="#262626"/>
<path d="M122.814 98.2704C122.814 97.6604 122.884 97.0604 123.024 96.4804C123.164 95.9004 123.394 95.3104 123.694 94.7204C124.014 94.1504 124.384 93.6504 124.804 93.2104C125.234 92.7704 125.724 92.4004 126.274 92.1104C127.334 91.5004 128.574 91.1904 129.984 91.1904C131.054 91.1904 132.014 91.3704 132.874 91.7204C133.734 92.0704 134.494 92.6004 135.174 93.2804C136.534 94.6404 137.224 96.3704 137.224 98.4504C137.224 100.53 136.534 102.32 135.144 103.72C134.454 104.41 133.694 104.93 132.844 105.27C131.994 105.61 131.054 105.79 130.024 105.79C128.734 105.79 127.514 105.51 126.344 104.94C125.214 104.34 124.324 103.48 123.694 102.37C123.384 101.81 123.164 101.19 123.024 100.51C122.884 99.8304 122.814 99.0804 122.814 98.2604V98.2704ZM126.574 98.5204C126.574 99.2104 126.664 99.8204 126.834 100.34C127.004 100.87 127.254 101.31 127.564 101.67C127.874 102.03 128.244 102.3 128.664 102.49C129.084 102.68 129.544 102.77 130.034 102.77C130.524 102.77 130.944 102.68 131.364 102.49C131.784 102.3 132.134 102.03 132.434 101.67C132.734 101.31 132.974 100.86 133.144 100.33C133.314 99.8004 133.404 99.1804 133.404 98.4804C133.404 97.7804 133.314 97.1804 133.144 96.6604C132.974 96.1304 132.734 95.6904 132.434 95.3304C132.134 94.9704 131.774 94.7004 131.364 94.5004C130.954 94.3004 130.504 94.2104 130.034 94.2104C129.564 94.2104 129.084 94.3004 128.664 94.4904C128.244 94.6804 127.874 94.9504 127.564 95.3204C127.254 95.6904 127.014 96.1404 126.834 96.6704C126.664 97.2004 126.574 97.8204 126.574 98.5204Z" fill="#262626"/>
<path d="M149.465 105.47V103.44C148.875 104.23 148.195 104.81 147.435 105.21C146.675 105.6 145.895 105.8 145.115 105.8C144.335 105.8 143.545 105.64 142.865 105.32C142.185 105 141.545 104.52 140.955 103.87C139.845 102.58 139.285 100.78 139.285 98.4602C139.285 96.1402 139.835 94.2802 140.925 93.0602C141.485 92.4402 142.115 91.9702 142.825 91.6602C143.535 91.3502 144.305 91.1902 145.145 91.1902C146.715 91.1902 148.065 91.8302 149.185 93.1202V86.2002H152.915V105.47H149.465ZM143.015 98.1702C143.015 98.9202 143.065 99.5702 143.175 100.12C143.285 100.67 143.435 101.1 143.635 101.43C144.215 102.37 145.055 102.84 146.175 102.84C146.585 102.84 146.985 102.75 147.355 102.58C147.725 102.41 148.055 102.14 148.325 101.78C148.605 101.42 148.825 100.97 148.975 100.44C149.135 99.9102 149.215 99.2802 149.215 98.5602C149.215 97.7502 149.135 97.0602 148.985 96.4902C148.835 95.9202 148.615 95.4502 148.345 95.0902C148.075 94.7302 147.745 94.4702 147.375 94.3002C146.995 94.1302 146.585 94.0502 146.135 94.0502C145.685 94.0502 145.275 94.1302 144.895 94.3002C144.515 94.4702 144.185 94.7302 143.905 95.0702C143.625 95.4102 143.405 95.8502 143.255 96.3602C143.095 96.8802 143.015 97.4902 143.015 98.1802V98.1702Z" fill="#262626"/>
<path d="M168.295 101.66C167.815 103.01 167.075 104.04 166.065 104.74C165.055 105.44 163.775 105.8 162.215 105.8C159.805 105.8 158.005 105 156.835 103.41C155.915 102.12 155.465 100.53 155.465 98.6202C155.465 96.2902 156.075 94.4602 157.285 93.1602C158.495 91.8502 160.025 91.2002 161.885 91.2002C162.925 91.2002 163.855 91.3702 164.685 91.7102C165.515 92.0502 166.215 92.5702 166.785 93.2602C167.355 93.9502 167.795 94.8202 168.095 95.8702C168.395 96.9202 168.535 98.1402 168.515 99.5502H159.255C159.265 100.1 159.355 100.58 159.505 101.01C159.655 101.44 159.875 101.8 160.155 102.1C160.435 102.4 160.745 102.62 161.115 102.77C161.485 102.92 161.875 103 162.305 103C162.895 103 163.385 102.85 163.765 102.54C164.155 102.23 164.445 101.74 164.645 101.05L168.325 101.66H168.295ZM164.845 97.2902C164.825 96.7602 164.735 96.2902 164.595 95.8802C164.445 95.4802 164.255 95.1402 164.005 94.8702C163.755 94.6002 163.475 94.3902 163.145 94.2502C162.815 94.1102 162.465 94.0402 162.095 94.0402C161.295 94.0402 160.625 94.3302 160.085 94.9102C159.565 95.4902 159.305 96.2802 159.305 97.3002H164.855L164.845 97.2902Z" fill="#262626"/>
</g>
<defs>
<clipPath id="clip0_4887_46643">
<rect width="192" height="192" fill="white"/>
</clipPath>
</defs>
</svg>
