<svg width="192" height="192" viewBox="0 0 192 192" fill="none" xmlns="http://www.w3.org/2000/svg">
<g clip-path="url(#clip0_4887_46764)">
<path d="M96 192C149.019 192 192 149.019 192 96C192 42.9807 149.019 0 96 0C42.9807 0 0 42.9807 0 96C0 149.019 42.9807 192 96 192Z" fill="white"/>
<path d="M88.6163 127.793C88.6163 128.828 88.6163 129.812 88.6163 130.787C88.6334 132.48 88.6334 134.166 88.3084 135.834C87.7866 138.494 86.5549 140.769 84.6988 142.728C82.4663 145.071 79.6863 146.286 76.5044 146.526C74.041 146.714 71.74 146.2 69.8411 144.473C69.6444 144.293 69.4733 144.071 69.2852 143.874L69.345 143.754C69.499 143.788 69.653 143.814 69.7984 143.865C72.775 144.935 75.6661 144.84 78.352 143.07C80.9352 141.368 82.3978 138.913 82.8683 135.859C83.2104 133.618 83.0479 131.36 83.0565 129.11C83.0565 128.82 83.0394 128.529 83.0736 128.238C83.1163 127.879 82.9453 127.767 82.6202 127.716C81.0891 127.442 79.635 126.938 78.275 126.194C74.9391 124.38 72.7066 121.626 71.5348 118.042C70.2175 114.005 70.4998 110.002 72.1763 106.135C73.9554 102.047 76.9577 99.0958 80.9095 97.0857C83.2104 95.9138 85.6568 95.1697 88.1801 94.6565C88.2913 94.6308 88.411 94.6222 88.5735 94.5966V124.432C89.4717 124.269 90.3185 124.141 91.1567 123.953C93.4491 123.422 95.5789 122.516 97.4351 121.044C99.6505 119.291 101.173 117.067 101.618 114.244C102.105 111.122 101.207 108.385 99.0945 106.041C97.7687 104.57 96.152 103.527 94.3301 102.782C94.0136 102.654 93.8939 102.5 93.8939 102.149C93.911 100.105 93.9024 98.0693 93.9024 95.9395C94.2531 96.102 94.5611 96.2389 94.869 96.3843C97.9569 97.8983 100.737 99.8228 102.875 102.56C104.928 105.194 106.049 108.188 106.203 111.533C106.339 114.578 105.304 117.247 103.474 119.624C101.909 121.669 99.9242 123.2 97.5377 124.192C97.5035 124.209 97.4693 124.226 97.4351 124.252C97.418 124.269 97.4094 124.295 97.3495 124.38C97.8114 124.38 98.222 124.397 98.6411 124.38C100.942 124.295 103.243 124.278 105.527 124.089C107.674 123.918 109.829 123.593 111.745 122.524C115.321 120.531 117.476 117.572 117.622 113.389C117.733 110.224 116.826 107.367 114.508 105.092C112.652 103.278 110.36 102.286 107.836 101.824C106.716 101.619 105.57 101.534 104.363 101.388C104.406 99.2925 104.449 97.1284 104.5 94.8788C105.193 94.8788 105.869 94.896 106.545 94.8788C108.709 94.8275 110.839 94.588 112.909 93.9294C115.398 93.1339 117.51 91.7653 119.238 89.8066C121.077 87.7195 122.283 85.2731 123.207 82.6814C123.267 82.5189 123.327 82.3649 123.387 82.1938H130.187C130.007 82.7242 129.853 83.2374 129.665 83.7335C128.519 86.7444 126.945 89.4986 124.73 91.8594C121.907 94.8617 118.486 96.7692 114.397 97.4364C113.995 97.5048 113.593 97.5561 113.114 97.6246C113.747 98.0009 114.32 98.3259 114.867 98.6852C117.853 100.67 119.88 103.381 120.855 106.82C122.258 111.772 121.488 116.408 118.614 120.668C116.775 123.397 114.243 125.278 111.172 126.433C109.35 127.117 107.451 127.425 105.535 127.622C101.481 128.041 97.4094 127.964 93.3379 127.87C91.9009 127.836 90.4639 127.819 89.0269 127.793C88.8986 127.793 88.7617 127.793 88.5992 127.793H88.6163ZM83.0308 124.124V102.996C82.8854 103.039 82.7656 103.056 82.663 103.099C78.2066 105.006 75.4095 108.257 74.7338 113.115C74.2976 116.254 75.247 119 77.5479 121.233C79.079 122.712 80.9437 123.568 83.0308 124.124Z" fill="#1E1512"/>
<path d="M154.528 64.6231C154.314 63.6223 154.152 62.6558 153.895 61.7063C153.296 59.5081 152.287 57.5151 150.67 55.8728C148.891 54.0594 146.71 53.0929 144.204 52.8362C141.176 52.5369 138.327 53.1271 135.71 54.6924C133.803 55.83 132.442 57.4723 131.425 59.414C130.997 60.2266 130.621 61.0648 130.201 61.8774C130.142 61.9972 129.962 62.1426 129.842 62.1426C127.747 62.1597 125.651 62.1511 123.547 62.1426C123.495 62.1426 123.453 62.1255 123.341 62.1084C123.872 61.1161 124.376 60.1581 124.89 59.2001C126.104 56.9334 127.55 54.8463 129.483 53.1185C132.186 50.6978 135.334 49.1753 138.918 48.6108C142.459 48.0462 145.923 48.3285 149.225 49.8254C152.441 51.2795 154.776 53.6403 156.298 56.8222C157.325 58.9692 157.77 61.2615 157.881 63.6052C157.984 65.7607 157.958 67.9334 157.992 70.0889C157.992 70.1573 157.984 70.2172 157.975 70.3284H119.167C119.159 70.5165 119.142 70.6534 119.142 70.7903C119.142 73.5958 119.167 76.4014 119.116 79.207C119.065 81.8586 118.175 84.2536 116.653 86.4177C115.079 88.6588 113.034 90.2925 110.426 91.1735C107.8 92.0545 105.174 92.2427 102.548 91.1735C101.675 90.8143 100.914 90.2925 100.247 89.6339C100.11 89.497 99.9987 89.3345 99.8789 89.1891C99.896 89.1549 99.9131 89.1292 99.9388 89.095C100.084 89.1292 100.23 89.1463 100.366 89.1976C102.274 89.8905 104.207 90.1214 106.2 89.6082C108.261 89.0779 109.895 87.9146 111.204 86.2637C112.915 84.0997 113.625 81.5935 113.633 78.8734C113.65 70.7561 113.65 62.6387 113.65 54.5213C113.65 54.1877 113.736 53.9739 114.009 53.7515C115.703 52.4 117.38 51.0314 119.125 49.6201V64.606H154.536L154.528 64.6231Z" fill="#1E1512"/>
<path d="M93.0248 51.2125C90.8864 50.8533 88.7737 50.9303 86.6096 50.9388C86.6096 51.0928 86.6096 51.2382 86.6096 51.375C86.6182 57.0119 86.6096 62.6487 86.6438 68.2941C86.6609 71.2793 86.909 74.2388 87.8071 77.1128C88.6283 79.7217 89.9284 82.0141 92.178 83.6649C94.325 85.2388 96.7029 86.0343 99.3887 85.7263C99.4571 85.7263 99.517 85.7178 99.5854 85.7092C99.594 85.7092 99.6025 85.7263 99.6624 85.7777C99.5598 85.8632 99.4828 85.9487 99.3801 86.0086C97.8491 87.0094 96.1469 87.4199 94.3335 87.3259C91.0233 87.1548 88.2091 85.8204 85.9082 83.4596C83.9067 81.4068 82.6835 78.9006 81.965 76.1377C81.2037 73.1867 81.084 70.1759 81.084 67.1565C81.084 60.7755 81.084 54.3859 81.084 48.0049C81.084 47.8852 81.0925 47.7654 81.1011 47.62C82.042 47.62 82.9743 47.6115 83.8981 47.62C86.3273 47.6542 88.7651 47.6457 91.1943 47.7483C94.7441 47.8937 98.2083 48.501 101.347 50.2887C105.753 52.8035 108.772 56.4131 109.807 61.4597C110.602 65.3345 109.781 68.9442 107.549 72.1945C105.043 75.8469 101.501 77.9083 97.1733 78.6012C95.9587 78.7979 94.7099 78.7209 93.4782 78.7637C93.3413 78.7637 93.1959 78.7295 93.0163 78.7038V51.2125H93.0248ZM98.7899 71.9465C98.9011 71.9465 98.9952 71.9465 99.0808 71.9294C99.9532 71.7326 100.783 71.4076 101.527 70.9115C103.52 69.5942 104.743 67.7124 105.47 65.4714C106.069 63.6067 106.163 61.7164 105.633 59.8175C104.829 56.9434 102.956 54.9505 100.355 53.599C99.8677 53.3424 99.3459 53.1542 98.7899 52.9147V71.9294V71.9465Z" fill="#1E1512"/>
<path d="M130.467 91.2271V124.321C131.271 124.347 132.058 124.407 132.828 124.398C134.992 124.364 137.087 123.97 139.021 122.97C142.365 121.242 144.375 118.479 144.974 114.784C145.555 111.2 144.683 107.949 142.382 105.118C140.783 103.151 138.695 101.885 136.275 101.192C135.445 100.953 134.598 100.807 133.726 100.61V93.9814C134.53 93.9814 135.342 93.9985 136.146 93.9814C138.73 93.913 141.21 93.4254 143.528 92.2279C146.283 90.808 148.301 88.6525 149.704 85.9239C150.251 84.8547 150.645 83.7 151.107 82.588C151.175 82.4169 151.192 82.2544 151.466 82.2544C153.57 82.2715 155.674 82.2544 157.77 82.2544C157.821 82.2544 157.873 82.2715 158.001 82.2886C157.667 83.2381 157.377 84.1704 157.017 85.0771C155.922 87.8399 154.366 90.3119 152.185 92.3562C149.721 94.6742 146.821 96.0941 143.46 96.5475C143.075 96.5988 142.699 96.6587 142.314 96.6843C141.929 96.71 141.544 96.6843 141.167 96.6843C141.167 96.7185 141.15 96.7528 141.142 96.7784C141.561 97.0094 141.989 97.2232 142.399 97.4798C144.794 98.9681 146.548 101.03 147.822 103.51C149.601 106.957 150.311 110.618 149.858 114.476C149.49 117.624 148.276 120.421 146.052 122.722C144.315 124.518 142.202 125.707 139.842 126.485C137.72 127.186 135.539 127.589 133.315 127.683C130.578 127.794 127.841 127.802 125.095 127.862C125.027 127.862 124.967 127.854 124.839 127.845C124.839 127.152 124.839 126.468 124.839 125.784C124.839 121.293 124.839 116.802 124.839 112.312C124.839 108.334 124.839 104.365 124.839 100.388C124.839 98.9938 124.839 97.5996 124.83 96.2053C124.83 95.8974 124.916 95.7007 125.164 95.5039C126.772 94.2209 128.371 92.9122 129.971 91.612C130.108 91.5008 130.253 91.3896 130.458 91.2357L130.467 91.2271Z" fill="#1E1512"/>
<path d="M54.3538 95.5053C54.7387 95.5994 55.1065 95.6849 55.4829 95.7705C59.8367 96.7798 64.0878 96.4547 68.2449 94.821C72.2907 93.2386 75.6865 90.6982 78.723 87.636C79.7238 86.6266 80.6647 85.5574 81.6398 84.5225C83.2565 85.9595 84.8987 87.405 86.5581 88.8762C80.0916 96.1896 71.9486 99.8505 62.0863 99.7735C62.1633 99.8847 62.1804 99.9446 62.2317 99.9788C65.1399 102.297 66.6881 105.41 67.3981 108.977C68.031 112.142 67.8172 115.264 66.6197 118.292C65.3794 121.414 63.2496 123.758 60.3499 125.426C58.0575 126.743 55.5855 127.539 52.9767 127.821C49.1532 128.24 45.4666 127.752 42.0623 125.828C39.9068 124.605 38.1533 122.945 36.8104 120.867C34.7917 117.762 33.8765 114.34 34.0133 110.654C34.1587 106.899 35.3734 103.52 37.8368 100.655C40.1377 97.9858 43.0716 96.3692 46.5187 95.5053C46.5187 95.6764 46.5358 95.8303 46.5358 95.9757C46.5358 97.8233 46.5273 99.6794 46.5444 101.527C46.5444 101.912 46.4417 102.049 46.0654 102.126C43.7816 102.596 41.78 103.606 40.1976 105.359C38.8034 106.907 37.9993 108.738 37.7342 110.791C37.4262 113.228 37.8282 115.555 38.9744 117.745C40.1463 119.986 41.8912 121.654 44.1151 122.808C47.7932 124.724 51.668 124.972 55.6283 123.946C58.7162 123.142 61.1967 121.44 62.7363 118.583C64.3701 115.572 64.4984 112.433 63.241 109.277C61.6843 105.359 58.6477 103.152 54.6446 102.151C54.4222 102.092 54.2597 102.066 54.2597 101.767C54.2939 99.7393 54.3025 97.7207 54.3196 95.6935C54.3196 95.6421 54.3367 95.5908 54.3538 95.5053Z" fill="#1E1512"/>
<path d="M61.5656 71.9979C61.4801 73.2125 60.6333 73.9824 59.3331 74.1706C58.2639 74.3245 57.8961 74.6752 57.7849 75.7444C57.7422 76.1892 57.7849 76.634 57.7849 77.1643C57.9988 77.0103 58.1271 76.9163 58.2554 76.8222C57.7165 77.6348 57.802 78.5586 57.7336 79.4567C57.5454 81.9372 57.5711 84.4178 57.6823 86.9069C57.6823 87.0865 57.725 87.2576 57.7507 87.4457L54.9195 87.403C54.9366 87.1036 54.9708 86.8213 54.9708 86.5391C54.9708 84.4776 54.9793 82.4162 54.9366 80.3548C54.9366 80.0469 54.68 79.7475 54.5431 79.4396C54.6201 79.4738 54.7313 79.5166 54.9451 79.6021C54.8681 78.3105 55.1932 77.0702 54.7142 75.7872C54.8425 75.8556 54.9195 75.8898 54.9964 75.9326C55.253 75.0174 54.9024 74.0337 54.0812 73.4007C53.5594 73.0073 53.0206 72.648 52.4817 72.2802C51.2585 71.4505 50.6683 70.3129 50.7111 68.8331C50.7282 68.3113 50.8308 67.7553 50.3262 67.2849H50.5913C50.5913 66.8316 50.5742 66.3953 50.5913 65.9676C50.6084 65.54 50.54 65.0182 50.7539 64.7017C51.019 64.2911 51.5066 64.0089 52.0882 64.1286C52.2165 64.1543 52.3534 64.1286 52.5244 64.1286C52.533 64.1799 52.5244 64.3253 52.5758 64.3852C53.1061 64.9583 53.1146 65.6939 53.1831 66.4039C53.243 66.9855 53.2772 67.5672 53.3627 68.1488C53.414 68.4995 53.4825 68.8844 53.9187 68.9956C54.3891 69.1154 54.7655 68.7476 54.7484 68.1488C54.7313 67.0711 54.6885 65.9933 54.6543 64.9241C54.6372 64.4879 54.6372 64.0431 54.5773 63.6154C54.5431 63.3673 54.3977 63.1364 54.295 62.9054C54.3293 62.9054 54.4148 62.9226 54.5431 62.9482C54.5003 62.2041 54.4661 61.4855 54.4234 60.8013C54.4918 60.7414 54.603 60.6815 54.6457 60.596C54.7912 60.2538 54.8852 59.8946 55.0392 59.561C55.2274 59.159 55.5781 59.005 56.0143 59.005C56.2624 59.005 56.5104 58.928 56.7499 58.8853C56.7328 58.928 56.6901 59.0649 56.6387 59.236C57.5711 59.8518 57.7678 60.7842 57.7678 61.8106C57.7678 61.956 57.8448 62.11 57.8619 62.1869C57.8533 62.8456 57.8277 63.4614 57.8362 64.0773C57.8705 66.0703 57.9303 68.0633 57.9645 70.0477C57.9645 70.3813 57.9303 70.7063 57.8961 71.0399C57.8619 71.3479 58.0159 71.4077 58.2725 71.3906C58.8028 71.3564 59.1792 70.9972 59.2134 70.4412C59.239 69.9536 59.2476 69.4661 59.2305 68.97C59.2134 68.3541 59.2305 67.7553 59.5042 67.1823C59.547 67.0796 59.5384 66.9513 59.547 66.823C60.1372 66.5749 60.7445 66.3098 61.3689 66.0532C61.0952 66.3868 61.2833 66.7032 61.4202 67.0539C61.5656 67.4303 61.6255 67.858 61.6255 68.26C61.6255 69.5088 61.634 70.7577 61.5485 71.9979H61.5656Z" fill="#086C56"/>
<path d="M71.0578 79.4997C69.6464 82.5704 67.4824 84.9826 64.5228 86.642C62.5983 87.7283 60.5283 88.3441 58.33 88.5665C55.379 88.8659 52.5478 88.4468 49.8277 87.2749C45.8589 85.5557 42.9849 82.7159 41.2228 78.7641C40.2049 76.5059 39.6746 74.128 39.6661 71.656C39.6575 67.02 41.1715 62.9998 44.6785 59.8521C46.0556 58.6204 47.6295 57.6795 49.2718 56.8583C50.7002 56.1484 52.1458 55.4983 53.617 54.7969C53.9164 55.4213 54.2072 56.003 54.5151 56.6274C54.0874 56.8327 53.6854 57.0379 53.2834 57.2261C51.7352 57.9617 50.1271 58.5947 48.6473 59.4415C44.9094 61.597 42.4631 64.8132 41.6761 69.0643C40.7181 74.2478 41.813 78.9608 45.5082 82.8698C47.6466 85.128 50.3067 86.5393 53.3518 87.198C53.6512 87.2578 53.9506 87.3092 54.25 87.3605H54.2585C54.3954 87.3861 54.5408 87.4032 54.6776 87.4375C54.7375 87.446 54.7974 87.4375 54.9086 87.4375C54.9086 87.4203 54.9086 87.3947 54.9086 87.3776L57.7398 87.4203C57.7398 87.4203 57.7484 87.4888 57.7569 87.523C57.9194 87.523 58.0905 87.5059 58.253 87.4973C59.2538 87.4289 60.2033 87.2151 61.1442 86.9242C64.0524 86.0261 66.4303 84.3582 68.295 81.9546C70.1169 79.6109 71.1861 76.9764 71.2374 73.9826C71.2802 71.1685 70.459 68.5853 69.0306 66.1817C67.2514 63.1965 64.7965 60.8785 61.9225 58.9796C60.8961 58.3039 59.8611 57.6196 58.809 56.9267C59.8526 55.7292 60.8876 54.5146 61.9482 53.3257C62.6154 52.573 63.12 51.7689 63.026 50.7168C62.9233 49.5706 62.4272 48.6126 61.4093 48.0224C60.6053 47.552 59.767 47.6461 58.9887 48.1422C58.3215 48.5613 57.9451 49.1772 58.0563 49.9898C58.1761 50.828 58.6807 51.4097 59.4249 51.786C59.8183 51.9828 60.2204 52.1367 60.6737 52.3335C60.4085 52.6842 60.169 53.0349 59.8868 53.3428C59.8183 53.4198 59.5874 53.4027 59.4677 53.3428C58.2958 52.8296 57.5516 51.9314 57.2352 50.6997C56.6792 48.5784 57.7997 46.4828 59.7927 45.8498C61.4008 45.3452 63.2227 46.0466 64.309 47.5948C65.2413 48.9206 65.2071 50.5885 64.155 51.9314C63.2569 53.0691 62.2903 54.1468 61.3494 55.2502C61.2297 55.3871 61.1099 55.5239 60.9731 55.6779C61.7942 56.2596 62.5812 56.8155 63.3681 57.3801C65.5749 58.9796 67.6278 60.7416 69.2102 62.9912C70.5873 64.9329 71.7335 66.9858 72.2125 69.3551C72.9139 72.8621 72.5205 76.2322 71.0236 79.474L71.0578 79.4997Z" fill="#1E1512"/>
<path d="M72.3852 63.3931C73.0011 62.9312 73.5913 62.4693 74.2841 61.9475C74.6177 62.666 74.9513 63.3076 75.225 63.9748C76.2258 66.4639 76.9443 69.0299 77.1496 71.7243C77.6371 78.302 75.3619 83.7079 70.1955 87.8393C67.3215 90.1402 64.0198 91.5174 60.4358 92.2102C56.4327 92.98 52.4895 92.7234 48.6746 91.2351C44.9966 89.8066 41.9429 87.5143 39.5308 84.3922C37.1358 81.2873 35.6218 77.7974 35.2968 73.8884C34.7579 67.2593 36.8621 61.6482 42.0541 57.3372C43.9359 55.7718 46.0658 54.5914 48.2555 53.5222C48.4095 53.4453 48.5634 53.3683 48.6661 53.3255C48.3581 52.6669 47.9989 52.0339 47.7594 51.3582C47.4343 50.4601 47.3574 49.5192 47.537 48.5697C47.8706 46.8162 49.6241 45.4049 51.4118 45.4391C53.3107 45.4733 54.9786 46.859 55.2866 48.6638C55.6287 50.6568 54.9273 52.0596 53.0883 52.9149C51.6171 53.5992 50.1116 54.1809 48.6319 54.8481C43.4056 57.2174 39.7789 61.058 38.0168 66.5579C36.7594 70.5012 36.7851 74.4871 37.957 78.456C38.8893 81.5866 40.4803 84.3152 42.824 86.6076C45.3644 89.0881 48.3924 90.6278 51.8566 91.2779C56.1163 92.0734 60.2819 91.697 64.2678 89.935C67.8604 88.344 70.6317 85.8292 72.5648 82.3992C74.2585 79.3969 75.0197 76.1551 74.9171 72.7251C74.823 69.5859 74.019 66.6178 72.5734 63.8208C72.505 63.6925 72.4451 63.5642 72.3767 63.4102L72.3852 63.3931ZM50.1116 52.6925C51.1466 52.205 52.1474 51.7688 53.0968 51.247C53.3877 51.0845 53.6785 50.7167 53.7469 50.4002C53.9607 49.3994 53.7212 48.45 53.0113 47.7058C51.7881 46.4228 49.6155 47.0643 49.1365 48.8434C48.7516 50.2804 49.3247 51.4865 50.1116 52.6925Z" fill="#1E1512"/>
<path d="M132.283 80.251C130.273 80.251 128.605 78.6087 128.588 76.5901C128.571 74.5971 130.239 72.9035 132.24 72.8864C134.233 72.8693 135.927 74.5201 135.97 76.4276C136.021 78.6173 134.199 80.3023 132.283 80.251Z" fill="#086C56"/>
<path d="M138.359 82.0652C140.498 82.1508 142.055 83.8529 141.969 85.9999C141.892 87.9501 140.079 89.5154 138.009 89.4213C136.135 89.3358 134.502 87.531 134.587 85.6492C134.681 83.6049 136.392 81.9797 138.359 82.0652Z" fill="#086C56"/>
<path d="M143.747 72.9136C145.064 72.9051 146.39 73.923 146.903 75.3257C147.63 77.2931 146.509 79.5598 144.499 80.1842C143.131 80.6033 141.369 79.8164 140.573 78.4307C139.17 76.0015 140.941 72.9307 143.747 72.9136Z" fill="#086C56"/>
<path d="M72.9979 138.151H74.4862C74.529 138.331 74.5632 138.528 74.6316 138.699C74.8625 139.238 75.2303 139.64 75.8034 139.811C76.5305 140.033 77.2404 140.033 77.9333 139.682C78.2925 139.503 78.5064 139.195 78.5235 138.793C78.5406 138.382 78.3182 138.057 77.9333 137.937C77.1806 137.698 76.4022 137.527 75.6495 137.27C75.0935 137.082 74.5033 136.885 74.0328 136.543C73.0064 135.808 72.9893 134.2 73.9131 133.267C75.1363 132.035 77.8392 132.053 79.0624 133.301C79.5328 133.78 79.7638 134.354 79.8578 135.004C79.8921 135.217 79.8579 135.38 79.567 135.329C79.4387 135.303 79.3019 135.329 79.1736 135.329C78.686 135.38 78.2925 135.371 78.1557 134.713C78.0616 134.268 77.6425 133.994 77.1549 133.9C76.5733 133.789 75.9916 133.755 75.4356 134.003C75.0593 134.165 74.8027 134.448 74.8369 134.892C74.8625 135.312 75.179 135.491 75.5041 135.594C76.0601 135.765 76.6331 135.893 77.1977 136.03C78.0274 136.227 78.8485 136.466 79.4729 137.091C80.354 137.972 80.2599 139.597 79.3019 140.504C77.9076 141.812 75.0251 141.701 73.7335 140.281C73.2545 139.751 72.9465 138.895 72.9722 138.143L72.9979 138.151Z" fill="#086C56"/>
<path d="M89.9007 117.323C89.8751 115.57 91.3463 114.073 93.1169 114.047C94.973 114.022 96.487 115.493 96.4956 117.332C96.5127 119.102 94.9901 120.633 93.2024 120.651C91.3976 120.668 89.9264 119.188 89.9007 117.323Z" fill="#086C56"/>
<path d="M89.8962 107.854C89.8363 106.101 91.4102 104.475 93.2749 104.535C95.0283 104.595 96.491 106.066 96.491 107.871C96.491 109.616 94.9599 111.13 93.1979 111.139C91.4187 111.147 89.8876 109.625 89.8962 107.846V107.854Z" fill="#086C56"/>
<path d="M72.2805 132.609C72.2976 132.763 72.3062 132.857 72.3062 132.952C72.3062 134.765 72.3233 136.587 72.2805 138.4C72.2549 139.358 72.0496 140.308 71.1857 140.889C70.758 141.172 70.2277 141.403 69.7316 141.445C68.9361 141.514 68.1064 141.497 67.328 141.334C66.0792 141.069 65.4547 140.128 65.3863 138.913C65.2922 137.245 65.3179 135.578 65.3008 133.901C65.3008 133.49 65.3008 133.08 65.3008 132.635H66.8661C66.8661 132.789 66.8832 132.943 66.8832 133.097C66.9003 134.833 66.9089 136.57 66.9345 138.315C66.9345 138.571 67.0115 138.836 67.0885 139.085C67.2425 139.564 67.5504 139.923 68.055 139.983C68.5597 140.043 69.09 140.06 69.5861 139.983C70.1336 139.897 70.4501 139.461 70.5612 138.939C70.6553 138.486 70.7067 138.024 70.7152 137.562C70.7323 136.039 70.7238 134.508 70.7152 132.986C70.7152 132.704 70.7836 132.575 71.0916 132.592C71.4765 132.618 71.8528 132.592 72.272 132.592L72.2805 132.609Z" fill="#086C56"/>
<path d="M50.5562 141.504C50.0258 141.504 49.5383 141.521 49.0507 141.487C48.9224 141.487 48.7514 141.333 48.7 141.205C48.452 140.623 48.2381 140.024 48.0243 139.426C47.9131 139.126 47.7848 138.947 47.4084 138.964C46.6386 138.998 45.8688 138.972 45.099 138.964C44.8424 138.964 44.6884 139.032 44.6029 139.297C44.3976 139.93 44.141 140.538 43.9271 141.171C43.8501 141.41 43.7475 141.513 43.4823 141.504C43.0461 141.479 42.6184 141.504 42.1309 141.504C42.55 140.401 42.9435 139.349 43.3455 138.297C44.0127 136.56 44.6798 134.832 45.3385 133.096C45.4326 132.839 45.5437 132.703 45.8431 132.728C46.2366 132.771 46.7156 132.643 46.9979 132.831C47.263 133.01 47.3229 133.498 47.4683 133.849C48.4862 136.338 49.5041 138.827 50.5219 141.316C50.5391 141.35 50.5391 141.393 50.5647 141.487L50.5562 141.504ZM46.1425 134.644C45.7747 135.671 45.4411 136.586 45.1075 137.527H47.2203C46.861 136.577 46.5274 135.671 46.1425 134.644Z" fill="#086C56"/>
<path d="M57.5786 138.281C57.4588 140.095 56.2271 141.352 54.4308 141.506C53.2248 141.609 52.1043 141.369 51.1719 140.514C50.4791 139.872 50.1198 139.06 49.9573 138.153C49.7606 137.032 49.8119 135.929 50.2481 134.868C50.941 133.209 52.5405 132.311 54.3453 132.49C56.0218 132.653 57.2792 133.808 57.5615 135.33C57.5786 135.407 57.5786 135.484 57.5786 135.587H55.9876C55.7652 134.595 55.2434 134.064 54.3795 133.936C53.2847 133.773 52.3266 134.158 51.899 135.108C51.2574 136.528 51.2318 137.982 52.1727 139.308C52.7201 140.086 53.584 140.223 54.4651 140.069C55.2948 139.923 55.7738 139.368 55.9534 138.546C55.979 138.444 56.1159 138.298 56.21 138.298C56.6548 138.273 57.1081 138.29 57.5871 138.29L57.5786 138.281Z" fill="#086C56"/>
<path d="M42.2374 135.577H40.5694C40.4325 134.653 39.8851 134.097 38.987 133.935C37.7638 133.712 36.7459 134.285 36.3354 135.457C35.9162 136.655 35.9333 137.861 36.5407 139.007C37.2592 140.367 39.1153 140.333 39.8595 139.708C40.2187 139.4 40.4154 139.016 40.5352 138.562C40.5609 138.451 40.7148 138.306 40.8175 138.297C41.2537 138.271 41.6899 138.288 42.1775 138.288C42.1091 139.272 41.7584 140.085 41.0227 140.709C38.8245 142.565 35.2491 141.325 34.6161 138.477C34.2911 137.023 34.3595 135.586 35.155 134.277C35.9505 132.968 37.1907 132.446 38.6619 132.481C40.0647 132.515 41.1682 133.131 41.8353 134.397C42.0235 134.747 42.0919 135.149 42.2374 135.586V135.577Z" fill="#086C56"/>
<path d="M142.781 141.488V132.567C142.781 132.567 142.858 132.516 142.892 132.516C144.483 132.533 146.083 132.516 147.674 132.593C149.042 132.661 149.812 133.414 149.958 134.654C150.103 135.929 149.496 136.887 148.256 137.331C148.187 137.357 148.119 137.391 147.99 137.442C148.957 137.853 149.248 138.7 149.556 139.538C149.795 140.18 150.026 140.83 150.283 141.523C149.881 141.523 149.53 141.54 149.179 141.514C149.085 141.514 148.966 141.377 148.931 141.283C148.692 140.642 148.469 139.983 148.23 139.333C147.794 138.135 147.144 137.673 145.869 137.656C145.245 137.656 144.629 137.656 143.962 137.656V141.488H142.79H142.781ZM143.936 136.57C145.014 136.57 146.049 136.579 147.084 136.57C147.332 136.57 147.605 136.536 147.819 136.425C148.11 136.262 148.444 136.065 148.581 135.792C149.094 134.782 148.529 133.739 147.426 133.551C147.246 133.516 147.058 133.491 146.87 133.491C145.997 133.491 145.116 133.491 144.244 133.482C144.03 133.482 143.936 133.525 143.936 133.773C143.945 134.697 143.936 135.629 143.936 136.587V136.57Z" fill="#1E1512"/>
<path d="M134.244 141.359V132.404H140.719V133.422H135.433V136.193H140.36V137.271H135.425V140.307H140.916V141.351H134.244V141.359Z" fill="#1E1512"/>
<path d="M98.9016 140.46H104.41V141.495H97.7383V132.54H104.188V133.532H98.9016V136.32H103.837V137.372H98.9016V140.46Z" fill="#1E1512"/>
<path d="M124.52 132.402H125.666V136.046C125.777 136.063 125.854 136.08 125.931 136.08C127.299 136.08 128.668 136.08 130.037 136.08C130.319 136.08 130.404 135.995 130.396 135.713C130.379 134.609 130.396 133.506 130.396 132.385H131.568C131.568 133.001 131.568 133.591 131.568 134.19C131.568 136.448 131.568 138.706 131.576 140.965C131.576 141.307 131.474 141.418 131.149 141.384C130.918 141.358 130.678 141.384 130.396 141.384V137.15H125.683V141.358H124.52V132.402Z" fill="#1E1512"/>
<path d="M106.744 141.522C107.907 138.494 109.054 135.508 110.191 132.54C110.234 132.523 110.26 132.515 110.285 132.515C111.072 132.492 111.617 132.845 111.919 133.575C112.954 136.116 113.989 138.665 115.033 141.205C115.067 141.291 115.101 141.376 115.152 141.53C114.725 141.53 114.331 141.547 113.946 141.522C113.869 141.522 113.775 141.376 113.741 141.274C113.459 140.547 113.168 139.811 112.903 139.075C112.826 138.853 112.706 138.767 112.467 138.767C111.423 138.767 110.388 138.767 109.344 138.767C109.079 138.767 108.942 138.853 108.857 139.118C108.617 139.837 108.335 140.538 108.096 141.256C108.019 141.487 107.899 141.564 107.668 141.547C107.377 141.53 107.095 141.547 106.744 141.547V141.522ZM112.432 137.826C111.902 136.415 111.389 135.072 110.841 133.627C110.311 135.081 109.815 136.441 109.31 137.826H112.432Z" fill="#1E1512"/>
<path d="M61.8408 141.487H60.2584V134.208H57.5469V132.78H64.5865V134.2H61.8493V141.487H61.8408Z" fill="#086C56"/>
<path d="M122.468 133.447H119.465V141.393C119.115 141.393 118.807 141.393 118.49 141.393C118.208 141.393 118.276 141.171 118.276 141.017C118.276 139.743 118.276 138.46 118.276 137.185C118.276 135.962 118.276 134.739 118.276 133.447C117.96 133.447 117.661 133.447 117.361 133.447C116.788 133.447 116.224 133.447 115.65 133.447C115.394 133.447 115.283 133.379 115.308 133.114C115.325 132.891 115.308 132.66 115.308 132.386C115.496 132.386 115.659 132.386 115.822 132.386C117.891 132.386 119.97 132.386 122.04 132.378C122.399 132.378 122.528 132.472 122.476 132.823C122.451 133.002 122.476 133.191 122.476 133.447H122.468Z" fill="#1E1512"/>
<path d="M96.5901 141.504H91.0645V132.523H92.1935V140.426H96.5901V141.504Z" fill="#1E1512"/>
<path d="M68.3154 54.4285C68.3154 55.626 67.4429 56.5155 66.2454 56.5326C65.1249 56.5412 64.107 55.5832 64.0899 54.514C64.0813 53.3165 65.065 52.3157 66.2454 52.3243C67.4173 52.3243 68.3154 53.2481 68.3154 54.437V54.4285Z" fill="#086C56"/>
<path d="M67.9819 57.1396C68.0075 56.0875 68.7859 55.3347 69.8123 55.3518C70.7874 55.3604 71.6171 56.2329 71.5915 57.2165C71.5658 58.2344 70.7276 59.0213 69.6926 58.9957C68.6833 58.97 67.9476 58.1745 67.9733 57.1396H67.9819Z" fill="#086C56"/>
<path d="M70.7169 60.5717C70.7169 59.7077 71.4268 59.0063 72.2822 59.0063C73.0777 59.0063 73.8475 59.7676 73.8646 60.5631C73.8817 61.3757 73.052 62.1712 72.1967 62.1626C71.3584 62.1626 70.7083 61.4612 70.7169 60.5631V60.5717Z" fill="#086C56"/>
</g>
<defs>
<clipPath id="clip0_4887_46764">
<rect width="192" height="192" fill="white"/>
</clipPath>
</defs>
</svg>
