<svg width="192" height="192" viewBox="0 0 192 192" fill="none" xmlns="http://www.w3.org/2000/svg">
<g clip-path="url(#clip0_4915_32038)">
<path d="M96 192C149.019 192 192 149.019 192 96C192 42.9807 149.019 0 96 0C42.9807 0 0 42.9807 0 96C0 149.019 42.9807 192 96 192Z" fill="white"/>
<g clip-path="url(#clip1_4915_32038)">
<path d="M113.006 82.5244C113.006 82.5244 121.396 92.8127 130.586 94.213V102.603C130.586 102.603 127.389 98.2059 119.799 97.9078L110.809 98.0059C110.809 98.0059 108.711 97.7078 107.413 100.402C107.413 100.402 106.114 105.596 102.619 106.396H96.8262C96.8262 106.396 102.019 104.897 102.219 98.9041V90.2161L107.213 85.5211L107.114 93.911H116.206C116.206 93.911 111.81 91.1143 108.715 87.3175L113.01 82.5244H113.006Z" fill="black"/>
<path d="M52.2715 83.9483C52.2715 83.9483 62.5088 87.8706 52.5225 89.8161C52.5225 89.8161 54.8053 90.8516 57.5784 90.679C58.5158 90.6202 59.4219 90.3142 60.1946 89.7769C61.6106 88.7963 63.662 86.839 62.4617 84.2425C62.3519 84.0032 62.2068 83.7796 62.0538 83.56C61.4027 82.6461 59.516 80.3005 56.3193 78.7002C56.3193 78.7002 55.1936 81.2458 52.2754 83.9444L52.2715 83.9483Z" fill="black"/>
<path d="M119.677 108.051C119.677 108.051 109.44 104.129 119.426 102.183C119.426 102.183 117.143 101.148 114.37 101.32C113.433 101.379 112.527 101.685 111.754 102.222C110.338 103.203 108.287 105.16 109.487 107.757C109.597 107.996 109.742 108.22 109.895 108.439C110.546 109.353 112.433 111.699 115.629 113.299C115.629 113.299 116.755 110.753 119.673 108.055L119.677 108.051Z" fill="black"/>
<path d="M148.541 86.1724V103.952H165.995C165.995 103.952 153.515 94.8134 148.6 86.1568C148.584 86.1254 148.537 86.1411 148.537 86.1724H148.541Z" fill="black"/>
<path d="M130.586 86.0469H148.472C148.503 86.0469 148.527 86.0822 148.511 86.1096L139.564 103.952L130.586 86.0469Z" fill="black"/>
<path fill-rule="evenodd" clip-rule="evenodd" d="M68.4475 99.6931C67.9219 99.0694 67.6121 98.4732 67.4434 98.0653H67.4395C67.3414 97.826 67.0394 97.7476 66.8433 97.9162C64.635 99.7911 62.16 100.674 60.5362 101.078C59.6419 101.301 58.7201 101.407 57.7984 101.407H49.5732C48.9771 105.2 46.0784 106.683 46.0784 106.683H41.5834C46.102 103.219 44.5644 100.223 43.0308 98.6066C42.2228 97.7554 41.1128 97.2455 39.94 97.1671C30.9304 96.5513 26 101.87 26 101.87V94.4646H37.0884C32.9935 92.4171 30.295 88.4203 30.295 88.4203L34.79 83.5762C43.5799 95.9119 48.8751 91.4169 48.8751 91.4169V95.4138H56.4883C57.9278 95.4138 59.3634 95.2373 60.7441 94.8333C68.8751 92.4603 71.6403 86.6081 72.4052 84.4195C72.5581 83.988 73.072 83.8076 73.4603 84.0508C76.3157 85.8472 77.9514 88.0476 78.881 89.8519C80.0302 92.0798 80.2577 94.7038 79.4497 97.0808C78.9123 98.6654 78.0808 99.748 77.1826 100.489C74.5193 102.69 70.6833 102.329 68.4475 99.6931ZM75.9353 94.3782C75.9353 95.3422 75.1538 96.1237 74.1898 96.1237C73.2258 96.1237 72.4444 95.3422 72.4444 94.3782C72.4444 93.4142 73.2258 92.6328 74.1898 92.6328C75.1538 92.6328 75.9353 93.4142 75.9353 94.3782Z" fill="black"/>
<path fill-rule="evenodd" clip-rule="evenodd" d="M89.0224 102.755C89.07 102.804 89.7994 103.541 91.1223 104.007C94.3818 105.156 98.1041 103.317 99.1592 100.026C99.4926 98.9827 99.6181 97.7119 99.3082 96.2057C98.8101 93.7464 97.2882 91.597 95.1702 90.2516C93.4051 89.1298 90.7732 88.0198 87.2431 87.9649C86.9058 87.961 86.6351 88.2394 86.6351 88.5768V95.9586C86.6351 95.9586 86.7332 102.607 78.4453 104.352C78.4453 104.352 80.128 106.874 83.258 106.667C84.1366 106.608 84.976 106.306 85.7409 105.866C86.7287 105.294 88.1828 104.263 89.0224 102.755ZM94.8325 96.1194C94.8325 97.0833 94.051 97.8648 93.087 97.8648C92.123 97.8648 91.3416 97.0833 91.3416 96.1194C91.3416 95.1554 92.123 94.3739 93.087 94.3739C94.051 94.3739 94.8325 95.1554 94.8325 96.1194Z" fill="black"/>
</g>
</g>
<defs>
<clipPath id="clip0_4915_32038">
<rect width="192" height="192" fill="white"/>
</clipPath>
<clipPath id="clip1_4915_32038">
<rect width="140" height="34.5911" fill="white" transform="translate(26 78.7041)"/>
</clipPath>
</defs>
</svg>
