<svg width="192" height="192" viewBox="0 0 192 192" fill="none" xmlns="http://www.w3.org/2000/svg">
<g clip-path="url(#clip0_5166_51216)">
<path d="M96 192C149.019 192 192 149.019 192 96C192 42.9807 149.019 0 96 0C42.9807 0 0 42.9807 0 96C0 149.019 42.9807 192 96 192Z" fill="white"/>
<path d="M61.8412 126.805C65.7604 129.42 69.7086 132.064 74.55 135.311C71.6394 135.311 69.7662 135.311 67.893 135.311C59.1899 135.311 50.5156 135.282 41.8124 135.34C40.141 135.34 38.7577 135.196 37.6626 133.644C34.0603 128.615 30.8039 123.442 29.2765 117.378C28.9595 115.597 28.0085 113.93 28.3255 112.004C29.4494 110.711 30.6887 111.545 31.7837 111.976C38.9883 114.878 46.2505 117.666 53.5703 120.339C55.7029 121.114 57.1726 122.724 58.7287 124.247C59.6509 125.167 60.4867 126.287 61.8412 126.805Z" fill="#BC8D3B"/>
<path d="M108.391 60.8797C111.878 58.1209 116.2 57.7473 120.321 57.0576C135.998 54.3562 154.932 64.6158 161.503 79.186C161.647 79.5021 161.676 79.8469 161.733 80.1918C160.638 80.7665 159.745 80.1056 158.851 79.6745C154.759 77.7203 150.552 75.8811 146.373 74.1855C140.609 71.829 134.702 69.6162 128.736 67.8344C124.298 66.5125 120.148 64.5295 116.2 62.3742C113.491 60.9085 110.898 61.7419 108.391 60.8797Z" fill="#F0D58E"/>
<path d="M40.207 67.0883C40.4664 66.8584 40.697 66.6286 40.9563 66.4274C42.9448 64.5594 44.9909 64.5306 47.5269 65.5652C57.5556 69.6173 67.7285 73.3245 77.6996 77.5203C82.5699 79.5607 87.7572 81.1125 92.3105 84.0438C94.76 85.5956 97.8435 86.0268 100.61 86.9751C103.204 87.8373 105.394 89.0155 107.296 90.8548C107.526 91.1422 107.671 91.4583 107.757 91.8031C107.901 92.5216 107.844 93.2113 107.44 93.8435C103.261 95.7689 100.322 92.5791 97.1231 91.1134C91.5611 88.527 86.1433 85.7681 79.8897 85.337C78.3047 84.906 77.2097 83.6415 75.7976 82.923C71.8495 80.8826 67.7573 79.8193 63.2616 80.9113C61.8495 81.2562 60.4375 81.9746 58.9677 81.0838C59.0254 78.4686 61.3884 79.0721 62.8005 78.3537C63.8668 78.21 64.9619 77.8939 65.6247 78.4687C60.1205 76.8019 54.7026 73.928 49.0254 71.7152C45.9419 70.3932 42.1955 70.5081 40.207 67.0883Z" fill="#DEB96E"/>
<path d="M108.385 60.8799C112.766 58.3797 116.137 61.5409 119.624 63.1215C126.281 66.1103 133.255 68.1507 139.97 70.8521C143.399 72.2315 147.088 73.0649 150.431 75.1628C153.803 77.2607 158.01 78.3527 161.728 80.192C163.284 82.2324 164.12 84.5315 164.379 87.0604C164.062 87.2903 163.716 87.2903 163.399 87.0604C162.102 85.2212 160.287 84.3015 158.241 83.3532C146.512 77.9504 134.178 74.0708 122.333 68.9267C116.57 66.4264 110.719 63.7251 104.293 63.0066C105.33 61.6272 106.743 61.0236 108.385 60.8799Z" fill="#EFD38B"/>
<path d="M26.4577 101.63C25.7084 99.2731 25.9966 96.9165 26.4865 94.5888C27.4951 93.6691 28.5614 93.9565 29.6853 94.4163C38.3596 97.9511 46.8898 101.773 55.7947 104.762C60.8379 106.458 65.6793 108.958 70.7225 110.768C72.0193 111.228 73.979 111.832 73.2585 114.102C72.2211 114.648 71.0395 114.533 69.9156 114.849C64.2384 114.849 58.5901 114.849 52.9417 114.849C51.0685 113.987 52.25 113.441 53.2298 113.211C55.4776 112.694 57.7831 112.895 60.5497 113.125C52.6246 110.222 45.3913 106.774 37.8121 104.187C34.8438 103.181 32.279 101.486 29.3395 100.451C27.6681 99.9053 27.0917 100.509 26.4577 101.63Z" fill="#C59948"/>
<path d="M107.173 91.1692C104.234 88.6115 100.459 87.4332 97.0007 86.4561C91.4099 84.9043 86.3379 82.2891 81.1795 79.9901C75.5887 77.5186 69.8539 75.3057 64.1767 73.1216C57.7791 70.6501 51.5831 67.7763 45.0702 65.5635C43.2258 64.9312 42.3901 66.5981 40.9492 66.4257C42.4766 64.2703 44.8685 63.3507 47.1163 62.2012C47.2604 62.2874 47.4333 62.3448 47.5774 62.431C51.2661 64.7876 55.56 65.7934 59.5369 67.489C67.7213 70.9375 76.1362 73.7826 84.2053 77.5473C91.0353 80.7372 98.3839 82.6627 105.3 85.7377C107.231 86.5998 109.306 87.347 108.614 90.1059C108.441 90.6806 108.096 91.3703 107.173 91.1692Z" fill="#E1BD72"/>
<path d="M104.295 62.9478C108.416 61.3097 111.701 64.0111 115.188 65.2181C121.557 67.4309 127.926 69.7875 134.035 72.69C140.779 75.8799 148.271 77.2019 154.756 81.0241C156.283 81.9149 158.07 82.4322 159.799 82.892C162.047 83.4668 163.401 84.7025 163.718 87.0303C162.306 88.266 160.894 87.5189 159.539 86.9729C146.197 81.8575 133.027 76.311 119.741 71.0807C115.073 69.2415 110.347 67.6033 105.822 65.4767C104.814 64.9882 103.603 64.787 102.998 63.6662C103.402 63.4363 103.863 63.2064 104.295 62.9478Z" fill="#EDD189"/>
<path d="M51.2383 60.2196C53.0826 58.7827 55.2728 58.4952 57.4629 58.1791C58.6733 57.5469 60.0278 58.0929 61.267 57.748C71.7568 60.3345 81.1515 65.8235 91.3244 69.1858C97.1457 71.1113 102.621 73.9564 108.558 75.5083C110.661 76.2267 112.794 76.9739 114.782 78.0085C116.195 78.7557 118.01 79.704 116.252 81.8306C115.935 82.0318 115.618 82.1467 115.244 82.2042C112.563 82.1467 110.2 81.3708 107.808 80.0201C104.264 78.0084 100.402 76.5428 96.2524 76.083C83.8317 70.9389 71.3245 66.0534 58.9903 60.7081C56.7137 59.731 54.7541 60.7081 52.6215 60.8518C52.1028 60.8231 51.6129 60.6794 51.2383 60.2196Z" fill="#E7C77D"/>
<path d="M73.4058 113.817C72.2819 112.294 70.7546 111.546 68.939 111C64.6163 109.707 60.38 108.213 56.5472 105.713C55.6826 105.138 54.4146 105.224 53.3483 104.966C47.21 103.442 41.8787 99.8214 35.8269 98.1259C32.5704 97.2062 30.0056 94.6198 26.4609 94.591C26.4898 94.1312 26.4897 93.6714 26.5185 93.2116C27.239 92.6081 26.5185 91.4586 27.3831 90.8838C32.7432 92.3782 37.8153 94.6772 43.0026 96.6602C50.8123 99.5915 58.3339 103.212 66.2877 105.741C70.4375 107.063 74.0687 109.535 78.2185 110.943C79.3136 111.317 82.0513 111.69 80.4087 114.305C78.0744 114.363 75.6536 115.11 73.4058 113.817Z" fill="#C79B4A"/>
<path d="M160.23 123.413C160.057 123.528 159.884 123.614 159.682 123.643C153.025 121.171 146.599 118.125 140.057 115.395C138.328 113.642 136.051 115.021 134.12 114.331C130.028 111.774 125.36 110.509 120.922 108.67C113.227 105.48 105.418 102.549 97.7807 99.2726C96.6568 98.7841 95.1006 98.2956 95.5617 96.4276C96.5127 95.7091 97.6654 95.7665 98.7605 95.7378C102.593 95.5079 105.504 98.353 109.106 98.8702C111.7 100.566 114.553 101.658 117.435 102.779C125.158 105.71 132.824 108.842 140.489 112.004C145.648 114.13 150.979 115.797 155.994 118.268C157.694 119.102 159.74 119.447 160.691 121.401C160.662 122.062 160.691 122.809 160.23 123.413Z" fill="#D8B164"/>
<path d="M26.4559 101.631C26.2253 98.0679 28.4731 99.1311 30.1446 99.8496C34.4385 101.718 38.8188 103.384 43.228 105.051C49.7409 107.523 56.081 110.397 62.9685 113.299C59.1357 114.621 55.3605 112.724 52.0752 114.477C52.3058 114.621 52.3923 114.793 52.3634 114.995C52.3346 115.196 52.277 115.311 52.2194 115.311L52.1617 115.253C49.5104 113.27 46.6863 111.546 43.5739 110.396C42.133 109.649 40.5192 109.391 38.963 109.103C38.329 108.96 37.7237 108.701 37.205 108.299C34.8707 106.775 32.5653 105.166 29.6259 105.08C28.0121 105.281 28.4443 106.344 28.646 107.35C28.9054 108.816 29.0495 110.282 28.7037 111.747C28.9054 113.615 29.136 115.483 29.3377 117.322C27.1187 112.322 26.3118 107.063 26.4559 101.631Z" fill="#C29543"/>
<path d="M102.968 63.666C106.484 64.6431 109.596 66.8559 112.91 67.8905C117.147 69.2125 121.239 70.8505 125.302 72.5461C130.23 74.5865 135.331 76.1096 140.201 78.3225C147.118 81.4262 154.236 84.0414 161.296 86.8002C162.017 87.0876 162.881 86.9726 163.659 87.0301C163.89 87.0301 164.121 87.0301 164.351 87.0301C166.599 95.278 166.484 103.555 164.409 111.802C163.4 110.911 163.486 109.733 163.573 108.584C163.803 107.319 164.12 106.083 164.12 104.79C164.12 103.526 164.12 102.261 164.12 100.997C164.149 100.278 164.149 99.56 164.149 98.8415C164.149 98.2955 164.149 97.7782 164.149 97.2322C164.149 96.1976 164.149 95.163 164.149 94.1284C164.322 91.9156 162.968 90.881 161.066 90.2775C159.884 89.9039 158.587 89.8465 157.636 88.9268C157.291 88.6107 157.06 88.0647 156.657 87.9785C151.556 86.9727 147.435 83.524 142.391 82.432C141.498 82.2308 140.547 82.2022 139.769 81.6849C133.054 77.4316 125.331 75.4774 118.098 72.4024C112.248 69.9022 106.426 67.2583 100.23 65.7065C100.836 64.6432 101.931 64.1833 102.968 63.666Z" fill="#ECCF87"/>
<path d="M100.233 65.7353C103.662 64.1259 106.429 66.7124 109.109 67.747C115.074 70.046 121.068 72.3451 126.947 74.8453C131.241 76.6845 135.593 78.7824 139.887 80.4205C144.93 82.3172 149.569 85.3347 154.93 86.2831C156.457 86.5417 157.494 87.0877 158.186 88.4097C155.074 89.5879 152.394 87.8349 149.886 86.6566C145.765 84.7312 141.241 83.8691 137.264 81.5988C136.025 80.8803 134.872 81.2539 133.719 81.8286C129.829 81.1102 125.939 80.4205 122.019 79.9032C120.809 77.7766 123.172 78.4663 123.95 77.5179C116.601 74.8453 109.656 71.4542 102.452 68.6953C100.665 68.0056 99.1087 68.4079 97.6678 69.5862C96.371 69.931 94.786 70.9369 94.8148 68.3218C97.3797 69.069 98.1866 66.1376 100.233 65.7353Z" fill="#ECCE85"/>
<path d="M94.7851 68.3805C95.2174 70.2197 96.5142 69.2139 97.5229 69.2139C99.7131 68.5817 101.01 69.9036 102.307 71.3118C103.344 72.5475 104.843 73.0361 106.197 73.7545C107.177 74.2718 108.675 74.4155 108.531 76.0823C107.148 76.7145 105.65 76.3984 104.612 75.7087C98.4739 71.5991 91.0099 70.7658 84.5258 67.5758C80.2607 65.478 75.621 64.156 71.4135 61.8282C69.3098 60.6499 66.7161 60.2763 64.3242 59.6153C63.3156 59.3279 62.3358 59.0981 61.673 58.2359C61.4424 57.4313 61.9611 57.2588 62.5951 57.2301C66.6008 57.1151 70.5489 57.1726 74.3241 59.0406C80.2607 61.9719 86.6872 63.8111 92.739 66.455C93.6612 66.8286 94.324 67.4896 94.7851 68.3805Z" fill="#E8C980"/>
<path d="M28.6181 111.747C27.2925 110.31 28.1858 108.528 27.9264 106.948C29.5979 105.568 31.183 106.545 32.6815 107.206C39.1944 110.052 45.6497 113.098 52.249 115.77C55.3038 119.564 58.2145 123.472 61.8456 126.777C61.1251 126.835 60.4047 126.691 59.9724 126.116C56.5142 121.461 51.0675 120.397 46.1107 118.443C40.3183 116.173 34.4394 113.989 28.6181 111.747Z" fill="#BE903E"/>
<path d="M164.387 108.327C164.416 109.505 164.416 110.655 164.445 111.833C163.955 114.161 163.811 116.575 162.341 118.586C161.995 118.213 161.765 117.782 161.707 117.264C161.649 115.942 162.255 114.735 162.283 113.442C162.283 112.034 161.217 111.459 160.18 111.057C156.491 109.591 152.917 107.838 149.027 106.89C148.71 106.804 148.422 106.66 148.134 106.516C145.367 104.907 142.284 104.073 139.402 102.752C139.085 102.637 138.797 102.464 138.508 102.292C135.799 99.6478 131.995 99.3892 128.825 97.7511C127.73 97.1764 125.598 97.1189 126.808 94.8773C128.595 94.1301 130.439 94.3025 132.284 94.6474C136.923 97.3487 142.139 98.7282 146.981 100.941C152.687 103.556 159.113 104.648 164.387 108.327Z" fill="#E1BE73"/>
<path d="M160.233 121.372C154.239 118.154 147.899 115.797 141.587 113.268C137.524 111.659 133.461 109.848 129.369 108.325C124.441 106.486 119.83 103.784 114.642 102.664C112.568 102.204 110.521 101.313 109.225 99.3876C109.743 98.7553 110.464 98.6116 111.242 98.5254C117.438 99.7899 123.288 101.945 128.85 104.963C134.642 107.578 140.579 109.906 146.458 112.348C151.587 114.446 156.861 116.257 161.847 118.7C161.76 119.361 161.674 120.021 161.587 120.682C161.242 121.085 161.011 121.775 160.233 121.372Z" fill="#DAB367"/>
<path d="M29.3105 82.2311C29.9445 79.9033 30.8956 77.7767 32.5959 76.0237C33.5181 74.788 34.6131 74.9316 35.9387 75.4201C41.1836 77.3456 46.2269 79.8171 51.4142 81.8862C52.7398 82.4035 53.8925 83.122 53.9501 84.7888C53.3737 86.628 52.855 88.5248 50.7225 89.2432C49.9732 86.4269 48.0136 85.0187 45.2182 84.5014C41.9329 83.8691 39.0223 82.1449 35.9676 80.9091C34.2096 80.1907 32.4517 79.6447 31.0973 81.6563C30.6074 82.1161 30.0598 82.5185 29.3105 82.2311Z" fill="#D4AC5E"/>
<path d="M156.864 129.738C156.72 130.629 156.288 131.318 155.481 131.778C149.372 129.824 143.666 126.835 137.7 124.536C136.605 124.105 135.769 123.329 135.827 122.007C136.807 119.334 138.853 118.99 141.043 120.082C145.712 122.467 150.784 123.818 155.625 125.714C158.132 126.691 158.104 127.898 156.864 129.738Z" fill="#D1A95A"/>
<path d="M156.863 129.736C157.295 128.098 157.18 127.35 155.134 126.46C150.58 124.505 145.566 123.758 141.272 120.999C139.773 120.051 137.353 119.218 136.142 122.034C135.854 122.235 135.566 122.206 135.307 121.976C136.402 120.367 137.526 118.758 138.621 117.148C139.284 116.947 139.629 116.085 140.494 116.315C146.315 117.752 151.243 121.402 157.036 122.896C158.563 123.298 159.543 124.448 158.938 126.287C158.621 127.667 157.987 128.845 156.863 129.736Z" fill="#D4AD5E"/>
<path d="M161.843 118.7C157.578 119.045 154.12 116.516 150.46 115.079C146.425 113.499 142.42 111.803 138.327 110.309C134.927 109.073 131.786 107.176 128.529 105.567C129.682 104.446 131.008 104.762 132.304 105.193C133.486 105.596 134.61 106.084 135.878 106.027C139.797 106.601 143.371 108.182 146.858 109.878C150.748 111.803 154.725 113.412 158.904 114.591C160.402 115.022 161.642 115.769 162.276 117.234C162.276 117.666 162.276 118.125 162.276 118.556C162.16 118.7 162.016 118.729 161.843 118.7Z" fill="#DBB569"/>
<path d="M135.278 121.977C135.566 122.005 135.855 122.005 136.114 122.034C138.391 124.937 142.281 124.764 145.163 126.632C147.612 128.213 150.696 128.845 153.491 129.966C154.327 130.311 155.105 130.799 155.48 131.748C155.192 132.955 154.414 133.845 153.405 134.535C151.532 133.472 149.572 132.696 147.439 132.207C142.54 131.115 138.564 127.782 133.809 126.316C133.175 126.115 132.742 125.483 132.627 124.764C133.492 123.845 134.385 122.925 135.278 121.977Z" fill="#CEA656"/>
<path d="M33.9805 73.9858C34.4416 72.4627 35.5079 71.4281 36.7182 70.5085C37.871 69.8188 38.9373 70.2786 39.9747 70.7671C44.9603 73.0087 50.1476 74.7905 55.1907 76.9746C57.2368 77.8655 59.2829 78.8713 58.2166 81.7739C57.6691 82.7797 56.9487 83.4981 55.6518 83.2395C53.4617 80.7393 50.1764 79.9634 47.3522 78.9001C42.9718 77.2045 38.6202 75.1928 33.9805 73.9858Z" fill="#D8B265"/>
<path d="M140.257 116.545C139.71 116.746 139.162 116.947 138.586 117.149C138.816 116.258 139.767 115.079 137.779 115.051C137.202 115.051 136.626 115.051 136.05 115.051C109.335 115.079 82.6206 115.079 55.9349 115.108C54.6669 115.108 53.4277 115.223 52.1597 115.309C52.102 115.051 52.0733 114.763 52.0156 114.505C58.2115 114.476 64.4363 114.447 70.6322 114.418C77.9232 114.275 85.1855 113.298 92.4765 113.528C95.5024 113.556 98.557 113.556 101.583 113.528C105.214 113.528 108.845 113.614 112.447 113.47C116.77 113.441 121.122 113.93 125.416 113.183C125.819 113.068 126.223 112.982 126.655 112.924C129.162 112.78 131.698 112.522 134.003 113.815C136.05 114.418 138.643 112.464 140.199 115.194C140.661 115.654 140.632 116.114 140.257 116.545Z" fill="#D9B367"/>
<path d="M92.7365 66.4278C84.6962 65.1633 77.6645 61.1687 70.2006 58.3236C67.3764 57.2316 64.5234 57.0304 61.6704 58.2086C60.2583 58.2086 58.875 58.1799 57.4629 58.1799C65.9066 55.4498 74.1199 56.7718 82.0737 59.8755C85.993 61.3699 89.8258 63.2091 92.7365 66.4278Z" fill="#EACC83"/>
<path d="M132.622 124.766C138.501 126.519 143.285 130.858 149.567 131.778C151.123 132.008 152.996 132.439 153.429 134.537C150.749 136.031 147.895 135.054 145.1 135.14C144.495 133.56 143.054 133.272 141.7 132.611C137.867 130.801 133.198 130.571 130.432 126.749C131.123 126.088 131.873 125.427 132.622 124.766Z" fill="#CCA252"/>
<path d="M33.9789 73.9841C34.6417 73.7829 35.5063 73.2083 35.9098 73.4382C40.319 76.1108 45.6791 76.4556 50.0019 79.2432C51.0393 79.9329 52.1056 79.9617 53.1719 80.2491C54.5263 80.6227 56.3419 80.8238 55.535 83.0941C55.4774 84.4161 54.8433 85.1633 53.4312 85.0771C53.3736 84.1 52.9701 83.3815 51.9903 82.9791C46.169 80.5651 40.3766 78.065 34.5265 75.6797C34.0077 75.4786 33.2297 75.8809 32.5957 75.9958C32.7398 75.1049 33.2008 74.4152 33.9789 73.9841Z" fill="#D6AF61"/>
<path d="M51.2437 60.2197C51.7336 60.2485 52.2235 60.2484 52.7134 60.2772C61.0418 62.1451 68.7651 65.565 76.3731 69.2722C77.3529 70.2206 78.7074 70.508 79.8313 71.1977C80.6959 71.715 82.0792 71.9449 81.5893 73.5255C79.572 74.7038 77.8141 73.5255 76.0562 72.8645C70.3213 70.6804 64.7594 67.979 58.7364 66.5421C58.4194 66.4271 58.1024 66.2834 57.7854 66.111C54.7018 64.5304 51.503 63.151 48.3906 61.5704C49.1975 60.737 50.1774 60.4209 51.2437 60.2197Z" fill="#E4C278"/>
<path d="M52.2505 115.798C49.8874 116.028 48.0143 114.879 45.8817 114.131C39.8011 111.976 34.5273 107.78 27.9279 106.976C26.6023 105.165 27.121 104.303 29.3112 104.217C32.2219 104.964 34.6714 106.861 37.582 107.637C37.8702 108.183 38.389 108.298 38.9653 108.326C40.3486 109.562 42.2218 109.045 43.7779 109.706C45.4494 110.367 47.1209 110.999 48.7924 111.66C50.4927 112.321 51.2419 113.844 52.1065 115.252C52.1641 115.425 52.2217 115.597 52.2505 115.798Z" fill="#C09341"/>
<path d="M57.6145 81.7135C58.5943 79.6731 57.1822 78.7247 55.6836 78.1212C49.4012 75.5348 43.0612 73.0346 36.75 70.5057C37.1823 70.0459 37.6146 69.5573 38.0469 69.0975C41.5339 68.4078 44.4733 70.1609 47.3263 71.5403C51.5914 73.6094 56.404 74.2129 60.5251 76.6843C61.5049 77.2591 63.1476 77.0005 63.0899 78.811C61.9948 80.018 59.7758 79.2133 58.9977 80.9951C58.8824 81.8859 58.3349 81.9722 57.6145 81.7135Z" fill="#DBB569"/>
<path d="M29.312 82.2327C29.7731 82.0028 30.2054 81.7728 30.6664 81.5429C31.7327 81.0256 32.7125 81.4854 33.6059 81.9165C37.8998 83.9856 42.2514 85.8536 46.7758 87.4055C48.5626 88.009 50.8104 89.1872 48.9084 91.8886C45.5078 91.8886 42.4819 90.4805 39.6289 88.9286C37.1793 87.5779 34.5281 87.0031 31.9056 86.1985C30.9258 85.8823 29.8307 85.6525 29.3984 87.0606C29.1391 87.7791 28.9085 88.5263 28.7356 89.3022C28.5915 90.1644 28.0152 90.7104 27.3524 91.1989C27.2659 91.9461 27.4099 92.7795 26.5742 93.2393C26.6895 89.3597 27.4964 85.6812 29.312 82.2327Z" fill="#CEA555"/>
<path d="M63.0591 78.8117C59.428 77.6334 56.5175 74.6446 52.3964 74.5872C51.4166 74.5872 50.2927 74.2135 49.5146 73.6675C46.0564 71.196 42.0218 70.2477 38.0449 69.1269C38.7654 68.466 39.4859 67.7762 40.2351 67.1152C49.0535 70.7937 57.9007 74.5009 66.9496 78.2656C65.5087 79.1565 64.2407 78.6392 63.0591 78.8117Z" fill="#DCB66A"/>
<path d="M130.408 126.775C134.904 129.046 139.371 131.402 144.385 132.494C145.999 132.839 145.653 134.046 145.077 135.167C142.31 135.167 139.572 135.167 136.806 135.167C137.353 133.989 137.469 133.127 135.768 132.782C132.742 132.149 130.149 130.511 127.584 128.845C128.362 127.896 129.198 127.092 130.408 126.775Z" fill="#CAA050"/>
<path d="M140.26 116.545C140.26 116.085 140.26 115.625 140.26 115.165C143.314 114.763 145.447 117.177 148.185 117.838C151.441 118.614 153.977 121.344 157.58 121.545C158.588 121.602 159.222 122.666 159.683 123.614C159.741 124.591 159.799 125.568 158.905 126.258C158.675 124.591 157.752 123.7 156.081 123.384C150.634 122.292 146.196 118.642 140.836 117.349C140.606 117.292 140.461 116.832 140.26 116.545Z" fill="#D7B062"/>
<path d="M127.585 128.815C131.129 128.815 133.55 131.718 136.922 132.321C138.852 132.666 138.478 134.247 136.778 135.109C135.654 135.109 134.501 135.109 133.377 135.109C129.948 134.707 126.489 134.333 124.443 130.971C125.51 130.281 126.547 129.563 127.585 128.815Z" fill="#C89E4D"/>
<path d="M124.468 131.002C127.494 132.238 129.915 134.824 133.402 135.14C128.474 135.14 123.517 135.14 118.589 135.14C118.503 134.968 118.417 134.767 118.33 134.594C120.347 133.387 122.422 132.209 124.468 131.002Z" fill="#C79D4E"/>
<path d="M48.4448 61.5703C52.3065 61.5991 55.2171 63.8406 58.243 65.7661C57.5514 66.5707 56.5715 66.6282 55.7646 66.2259C52.9981 64.789 49.7704 64.3292 47.2344 62.375L47.1191 62.2026C47.5514 61.9726 48.0126 61.7715 48.4448 61.5703Z" fill="#E3C076"/>
<path d="M160.23 121.375C160.663 121.145 161.124 120.915 161.556 120.686C161.47 121.778 161.181 122.755 160.23 123.416C160.23 122.726 160.23 122.036 160.23 121.375Z" fill="#DBB569"/>
<path d="M57.6072 81.715C58.0683 81.4851 58.5294 81.2264 58.9617 80.9965C66.8579 78.2376 74.0048 79.2435 80.2007 85.1348C83.1978 86.1119 83.3418 89.1869 84.7539 91.3422C85.4744 93.6126 84.9845 95.4518 82.3332 95.4518C71.4687 95.4805 60.5754 96.0553 49.7109 95.1645C47.2614 92.7217 49.7974 91.0549 50.662 89.1294C51.5842 87.7787 52.5352 86.4568 53.4574 85.1061C54.149 84.4451 54.8695 83.7842 55.5611 83.1232C56.3968 82.8933 57.1173 82.4621 57.6072 81.715Z" fill="#FDFDFC"/>
<path d="M83.719 90.5072C82.5374 88.6967 81.3847 86.915 80.2031 85.1045C81.5864 83.3802 82.768 85.1332 84.0936 85.2482C90.9812 85.8517 96.2837 90.3061 102.393 92.7489C104.007 93.3811 105.592 93.381 107.119 93.9271C107.667 94.0708 108.186 94.3582 108.762 94.4444C109.54 94.5594 110.318 94.6456 111.039 95.0479C114.151 97.5769 118.214 97.7493 121.759 99.2436C125.938 100.997 130.174 102.635 134.295 104.531C135.304 104.991 136.456 105.451 136.168 106.974C133.488 107.348 131.327 104.962 128.589 105.595C123.748 103.669 118.906 101.686 114.007 99.8184C113.2 99.5023 112.249 99.531 111.356 99.4161C102.336 97.3182 94.3817 92.4615 85.7074 89.4153C84.0936 88.8692 84.353 90.1624 83.719 90.5072Z" fill="#DBB66A"/>
<path d="M47.2305 62.3447C49.5647 62.6608 51.7837 63.523 53.7722 64.6725C55.2419 65.5347 56.6541 65.7933 58.2391 65.7358C67.3456 69.2706 76.5098 72.5755 85.4723 76.4264C86.3368 76.8 87.2302 76.9437 88.1524 76.7425C92.504 76.4552 95.9621 79.1566 99.8814 80.3348C103.253 81.3406 106.279 83.381 109.708 84.3581C110.573 84.588 111.063 85.1915 111.034 86.1399C110.198 88.209 110.141 90.6518 108.123 92.1461C107.749 92.2036 107.432 92.1174 107.144 91.8587C107.144 91.6288 107.144 91.399 107.144 91.1691C108.902 89.0712 108.152 87.663 105.876 86.8009C104.175 86.1687 102.504 85.5651 100.861 84.818C97.1725 83.1224 93.3109 81.7717 89.3916 80.6797C85.2994 79.5301 81.6683 77.3748 77.8354 75.6793C73.5127 73.7825 69.0747 72.3169 64.7232 70.5351C59.2189 68.2935 53.7722 65.9945 48.1238 64.0403C47.461 63.8104 47.2593 63.0919 47.2305 62.3447Z" fill="#E2C075"/>
<path d="M107.177 91.832C107.436 91.832 107.667 91.832 107.926 91.8607C108.675 92.5792 108.646 93.4414 108.445 94.361C108.301 94.6771 108.099 94.9932 107.868 95.2519C107.292 94.9645 107.177 94.4472 107.119 93.9012C107.148 93.2402 107.148 92.5217 107.177 91.832Z" fill="#E3C177"/>
<path d="M92.6807 114.418C85.3321 114.418 77.9834 114.418 70.6348 114.418C71.4129 113.527 72.4504 113.901 73.3725 113.815C75.9085 113.815 78.4157 113.815 80.9517 113.815C83.1708 112.062 85.7356 113.096 88.1563 112.838C89.5684 112.809 91.0093 112.751 92.3349 113.384C92.7672 113.642 92.8824 113.987 92.6807 114.418Z" fill="#CCA253"/>
<path d="M107.896 94.5019C107.896 93.611 107.897 92.7488 107.925 91.8579C109.222 90.1911 109.107 87.8633 110.634 86.3115C111.153 85.4493 111.095 84.2424 112.219 83.7251C113.285 82.9204 114.352 82.1157 115.562 81.5697C115.764 81.5697 115.966 81.541 116.139 81.4835C117.493 80.334 118.819 79.127 120.778 79.127C121.124 79.127 121.412 79.2419 121.643 79.5006C125.937 79.2419 130.144 79.558 134.035 81.6272C134.669 81.4835 135.245 81.6846 135.793 82.0008C136.772 82.8054 137.839 83.5239 138.905 84.2423C139.337 84.5872 139.741 84.9895 140.087 85.4206C141.499 87.2598 142.68 89.2141 143.17 91.4844C143.689 93.8409 142.824 95.2778 140.288 95.4502C139.366 95.5077 138.415 95.6514 137.55 95.4789C130.259 94.1857 122.94 95.795 115.649 95.5364C112.997 95.4789 110.432 95.2203 107.896 94.5019Z" fill="#FEFEFD"/>
<path d="M76.171 69.8743C69.9174 67.2304 63.6062 64.7015 57.4103 61.9139C55.8541 61.2242 53.491 62.9485 52.7129 60.2758C55.1624 59.1838 57.4103 58.7815 60.0616 60.2184C66.3152 63.6095 73.462 64.9889 79.658 68.3512C84.9605 71.2538 91.0988 71.9722 96.1132 75.3633C98.2457 75.7369 100.263 76.3691 102.107 77.4899C102.914 77.9785 104.096 78.3234 103.779 79.7028C102.597 81.1972 101.387 80.3351 100.119 79.8178C92.1363 76.5417 84.3265 72.8056 76.171 69.8743Z" fill="#E6C57B"/>
<path d="M121.043 79.7035C119.4 80.307 117.787 80.9105 116.144 81.514C117.009 79.1862 114.962 78.9276 113.694 78.3816C111.965 77.6344 110.063 77.2895 108.536 76.0537C106.634 74.0421 103.435 74.157 101.648 71.9442C103.205 70.6222 104.905 71.0246 106.49 71.6856C110.697 73.4386 114.934 75.1628 119.256 76.686C120.64 77.1745 121.821 77.893 121.043 79.7035Z" fill="#E9CA80"/>
<path d="M103.722 79.473C101.676 77.2027 98.6209 76.8292 96.1426 75.3635C100.494 75.2486 104.385 77.0878 107.958 79.0708C110.436 80.4214 112.886 81.1112 115.537 81.5997C114.759 82.663 113.981 83.6976 112.655 84.1861C110.84 83.2378 108.909 82.548 106.949 81.9158C105.739 81.4847 103.924 81.456 103.722 79.473Z" fill="#E6C57C"/>
<path d="M88.5625 113.815C86.0265 113.815 83.5193 113.815 80.9833 113.815C75.5655 110.222 69.5426 107.895 63.4907 105.739C58.534 103.957 53.7213 101.888 48.8222 100.02C43.462 97.9799 38.1306 95.767 32.7128 93.8703C30.7531 93.1806 29.0817 92.0886 27.2949 91.1977C27.4966 90.508 27.6984 89.8182 27.9289 89.1285C29.1105 88.094 30.3497 88.64 31.4736 89.1285C36.5456 91.2551 41.5311 93.4967 46.6608 95.4509C53.289 97.9511 59.802 100.71 66.3437 103.354C72.799 105.94 79.773 107.205 85.8249 110.826C87.0352 111.515 88.7355 111.832 88.5625 113.815Z" fill="#C99E4D"/>
<path d="M134.059 113.815C131.523 113.815 129.016 113.815 126.48 113.815C119.304 111.143 112.33 108.039 105.183 105.28C98.9585 102.866 92.3592 101.171 86.5667 97.6358C85.6157 97.061 84.3765 96.8312 84.2324 95.423C84.6071 94.8195 84.7224 94.0723 85.2699 93.5837C89.1892 92.8365 92.1574 95.2505 95.4715 96.6299C98.5839 99.5325 102.791 100.251 106.509 101.947C110.601 103.814 114.837 105.481 119.074 107.033C122.59 108.326 125.875 110.252 129.592 110.999C131.437 111.401 132.935 112.292 134.059 113.815Z" fill="#D6AF61"/>
<path d="M85.128 93.9013C85.0991 94.4761 84.9839 94.9646 84.4075 95.2807C81.8715 97.1774 78.9609 95.8842 76.2231 96.2578C73.6871 96.459 71.1511 96.1429 68.5863 96.2578C65.8486 96.459 63.1397 96.1429 60.4019 96.2866C58.1253 96.4015 55.8487 96.2579 53.572 96.2291C52.1311 96.2291 50.6613 96.4016 49.3645 95.5107C49.0475 95.1658 49.0476 94.7922 49.3357 94.4186C59.7968 94.4474 70.2289 94.5049 80.6899 94.5336C84.6957 94.5336 84.6957 94.5335 83.687 90.5102C83.5718 89.5331 83.4565 88.5273 83.3124 87.5215C89.4219 89.8493 95.4161 92.2345 101.122 95.2807C102.822 96.1716 104.494 96.4303 106.252 96.8326C108.067 97.2062 110.171 97.4648 111.237 99.419C110.546 99.419 109.854 99.419 109.162 99.419C107.03 99.5627 105.013 98.9305 103.341 97.781C101.9 96.8039 100.43 96.574 98.8166 96.6602C95.3873 94.9646 91.3815 94.7635 88.0962 92.6081C86.7994 91.6885 85.9349 92.9817 85.128 93.9013Z" fill="#DAB367"/>
<path d="M85.1328 93.9002C85.4786 90.9114 86.372 90.3653 88.8792 91.8597C91.2135 93.2391 93.6054 94.4461 96.3719 94.6473C97.6399 94.7335 98.3316 95.6532 98.8792 96.659C97.7264 96.659 96.5737 96.659 95.4209 96.659C91.6746 97.0613 88.908 93.6128 85.1328 93.9002Z" fill="#D8B165"/>
<path d="M37.558 107.637C34.2727 107.78 31.9384 105.596 29.2871 104.217C32.5724 104.131 35.022 105.97 37.558 107.637Z" fill="#C09342"/>
<path d="M43.7813 109.705C42.1099 109.446 40.0927 110.481 38.9688 108.325C40.6402 108.469 42.3116 108.756 43.7813 109.705Z" fill="#C09342"/>
<path d="M164.384 108.326C154.211 105.28 144.614 100.625 134.586 97.176C133.692 96.8598 133.116 96.1414 132.684 95.2792C135.854 94.5033 139.081 95.1931 142.28 94.877C149.629 96.8024 156.142 100.74 163.173 103.412C163.951 103.7 164.499 104.303 165.047 104.878C165.133 106.085 165.018 107.263 164.384 108.326Z" fill="#E3C177"/>
<path d="M142.998 95.2783C139.54 95.2783 136.111 95.2783 132.652 95.2783C130.577 95.2783 128.531 95.2783 126.456 95.2783C125.477 96.3129 124.18 96.1118 122.941 96.2267C121.096 96.2555 119.223 96.1979 117.379 96.2554C115.073 96.3129 112.71 96.629 110.606 95.2783C109.684 95.2783 108.762 95.2497 107.84 95.2497C107.84 94.991 107.869 94.7323 107.869 94.5024C118.387 94.5024 128.906 94.5312 139.396 94.5312C142.825 94.5312 143.286 93.9564 141.932 90.7665C141.096 88.8123 139.828 87.0305 138.762 85.1625C138.33 82.4899 139.799 83.1222 141.384 83.582C146.197 85.0189 150.462 87.6628 155.131 89.4733C158.502 90.7665 162.076 91.6573 165.015 93.9276C165.015 95.0772 165.015 96.2267 165.015 97.3475C163.344 98.4108 161.932 97.2901 160.577 96.6866C155.534 94.4162 150.318 92.577 145.188 90.4791C144.67 90.2779 144.093 90.0193 143.863 90.8527C143.834 91.6287 144.151 92.3183 144.266 93.0655C144.266 93.9851 144.67 95.2209 142.998 95.2783Z" fill="#EACB82"/>
<path d="M142.996 95.2783C144.005 94.5599 143.601 93.4679 143.688 92.5195C145.964 91.7436 147.895 92.9793 149.826 93.6978C154.178 95.3071 158.212 97.7211 162.794 98.8132C163.86 99.0718 164.523 99.819 165.071 100.739C165.071 102.118 165.071 103.497 165.042 104.877C159.048 102.721 153.054 100.48 147.578 97.2326C146.08 96.3417 143.601 97.9222 142.996 95.2783Z" fill="#E6C67C"/>
<path d="M165.049 93.8996C161.36 93.641 158.334 91.4856 154.991 90.2786C150.064 88.4968 145.395 86.0253 140.611 83.87C139.401 83.3239 138.968 84.0999 138.796 85.1632C138.565 84.9333 138.363 84.7034 138.133 84.4735C137.297 83.6114 136.404 82.8354 135.309 82.2894C134.761 82.2894 134.271 82.2032 134.012 81.6572C134.185 79.3869 135.366 79.9042 136.836 80.5077C143.032 82.9791 149.285 85.3644 155.51 87.8072C156.375 88.152 157.21 88.4681 158.161 88.4106C159.343 89.6464 161.101 89.0428 162.513 89.79C164.3 90.7384 165.424 91.8018 165.049 93.8996Z" fill="#EBCD84"/>
<path d="M165.075 100.769C158.793 98.9298 153.144 95.4813 146.804 93.8145C145.738 93.5271 144.758 92.9523 143.721 92.5212C142.914 92.0327 143.058 91.228 143.029 90.4521C145.911 89.7336 148.217 91.4005 150.609 92.3776C155.479 94.3605 160.58 95.8548 165.075 98.6999C165.075 99.3896 165.075 100.079 165.075 100.769Z" fill="#E8C87F"/>
<path d="M165.072 98.6984C157.55 96.3706 150.778 92.1461 143.025 90.4506C142.449 87.2894 144.293 89.1574 145.187 89.5023C151.383 91.9738 157.579 94.5027 163.775 97.0029C164.178 97.1753 164.639 97.2328 165.1 97.319C165.071 97.8076 165.072 98.2386 165.072 98.6984Z" fill="#E8C97F"/>
<path d="M121.043 79.7024C120.928 76.5125 117.931 77.3459 116.346 76.8286C111.475 75.1618 107.181 71.627 101.648 71.9431C100.928 70.0464 98.9971 69.9602 97.5273 69.1843C98.4495 67.3738 99.6887 67.0577 101.735 67.6612C106.951 69.1843 111.763 71.7133 116.72 73.7824C119.861 75.1044 123.435 75.6504 126.288 77.9781C125.02 79.6737 122.772 77.9207 121.648 79.53C121.446 79.5875 121.245 79.645 121.043 79.7024Z" fill="#EACC83"/>
<path d="M110.631 95.2783C112.936 95.2783 115.213 95.2783 117.518 95.2783C121.524 96.1692 124.954 98.7269 128.758 99.7615C137.461 102.118 144.982 107.492 153.916 109.101C156.942 110.452 159.564 112.694 163.022 113.125C163.253 114.59 162.561 115.884 162.302 117.234C160.285 116.056 157.893 115.654 155.876 114.82C153.397 113.814 150.688 113.182 148.325 111.717C144.579 109.417 140.487 107.837 136.135 106.946C133.541 104.532 130.198 103.44 127.057 102.262C122.475 100.537 118.037 98.2959 113.138 97.4912C111.956 97.29 111.15 96.3416 110.631 95.2783Z" fill="#DDB86D"/>
<path d="M154.032 109.705C148.153 108.785 142.39 107.09 137.606 103.727C135.012 101.917 132.303 102.377 129.767 101.285C125.79 99.589 122.303 96.7727 117.865 96.198C117.721 96.1692 117.635 95.5944 117.52 95.2783C119.364 95.2783 121.208 95.2783 123.024 95.2783C128.211 97.7785 134.032 98.8706 138.874 102.118C139.104 102.118 139.335 102.118 139.565 102.118C142.13 104.417 145.733 104.446 148.528 106.228C150.199 107.664 153.312 106.774 154.032 109.705Z" fill="#DFBB70"/>
<path d="M154.037 109.705C152.769 107.665 149.744 108.412 148.533 106.285C153.576 106.889 158.014 109.101 162.424 111.458C163.029 111.774 164.124 112.148 163.029 113.154C159.109 114.332 156.804 111.429 154.037 109.705Z" fill="#DFBB70"/>
<path d="M138.875 102.149C136.829 102.293 135.388 100.741 133.602 100.195C130.547 99.2467 127.579 97.9247 124.553 96.8039C123.775 96.5165 123.054 96.2867 123.025 95.3096C124.178 95.3096 125.331 95.3096 126.484 95.3096C128.501 97.3212 131.239 97.8385 133.775 98.7006C135.821 99.3616 137.896 99.9652 138.875 102.149Z" fill="#E1BD72"/>
<path d="M148.535 106.258C145.855 105.453 143.146 104.706 140.466 103.844C139.774 103.614 139.601 102.838 139.572 102.148C142.598 103.442 146.056 103.758 148.535 106.258Z" fill="#DFBB70"/>
<path d="M49.3705 94.4162C49.3417 94.7035 49.3129 94.9909 49.2841 95.2783C48.5924 95.422 48.2754 94.9909 48.0161 94.4449C47.7279 93.4678 47.8144 92.5769 48.5636 91.8297C49.9757 88.6973 47.2668 88.2088 45.5377 87.8064C40.1776 86.5994 35.653 83.4957 30.6387 81.5128C30.8404 78.0355 33.4917 78.9263 35.0479 79.5873C39.5147 81.5415 44.0103 83.3233 48.6501 84.7314C50.9844 85.4499 51.2725 87.0305 50.6385 89.0421C50.3792 90.9101 48.9671 92.4332 49.3705 94.4162Z" fill="#D0A859"/>
<path d="M76.1645 95.3071C78.9311 95.3071 81.6688 95.3071 84.4354 95.2783C86.0204 97.1176 88.4123 97.8648 90.4584 98.612C98.124 101.313 105.501 104.877 113.225 107.348C116.942 108.527 120.084 110.826 123.801 111.86C124.839 112.148 125.991 112.636 126.452 113.843C126.222 113.843 125.991 113.843 125.761 113.843C123.455 114.562 121.121 113.987 118.787 114.159C110.689 110.711 102.533 107.377 94.3488 104.13C89.0463 102.032 83.8878 99.5316 78.4124 97.8073C77.3173 97.405 75.4441 97.4624 76.1645 95.3071Z" fill="#D4AC5D"/>
<path d="M76.17 95.3096C78.3313 97.8098 81.7319 98.2121 84.4696 99.0168C87.3226 99.8502 89.7145 101.488 92.4523 102.437C100.925 105.397 109.109 109.248 117.38 112.811C117.755 112.955 117.956 113.501 118.216 113.846C116.458 114.708 114.469 113.673 112.711 114.478C109.023 114.478 105.363 114.478 101.674 114.449C101.472 114.104 101.53 113.788 101.847 113.558C102.135 113.386 102.452 113.242 102.769 113.156C104.556 112.869 106.4 113.07 108.562 112.983C98.7923 109.449 89.7722 104.966 80.2909 101.517C76.948 100.281 73.317 99.5628 70.2334 97.5799C69.3689 97.0339 67.7262 97.1201 68.6196 95.3383C71.098 95.3096 73.634 95.3096 76.17 95.3096Z" fill="#D1A959"/>
<path d="M112.713 114.448C114.442 113.212 116.402 114.103 118.217 113.816C120.753 113.816 123.26 113.816 125.796 113.816C121.474 115.281 117.064 114.161 112.713 114.448Z" fill="#D6AF61"/>
<path d="M101.672 113.815C101.672 114.016 101.672 114.217 101.672 114.418C98.6744 114.418 95.7061 114.418 92.709 114.418C92.709 114.217 92.7378 114.016 92.7378 113.815C93.5159 112.924 94.611 112.953 95.6484 112.809C97.6657 112.953 99.856 112.263 101.672 113.815Z" fill="#CFA657"/>
<path d="M103.724 79.4738C105.511 80.4509 107.269 81.3705 109.372 81.6004C110.842 81.7729 112.168 82.5488 112.658 84.1294C111.966 84.8479 111.274 85.5663 110.612 86.2848C109.372 84.0145 106.721 84.5317 104.819 83.5834C100.122 81.2556 95.1363 79.5313 90.2371 77.6058C89.5167 77.3184 88.6809 77.4334 87.874 77.3759C86.0873 76.715 84.4735 75.7091 82.6579 75.1344C81.7646 74.847 80.8712 74.4733 81.6781 73.2663C80.3237 71.3409 77.3842 71.9444 76.1738 69.8466C78.1047 69.0132 79.7761 70.1627 81.3611 70.8237C88.1334 73.64 94.848 76.6575 101.505 79.675C102.427 80.106 103.004 79.7899 103.724 79.4738Z" fill="#E5C379"/>
<path d="M81.6695 73.295C81.7559 74.7319 82.9374 74.502 83.8596 74.8181C85.4158 75.3354 87.1449 75.6228 87.8941 77.4045C86.6261 78.5541 85.5023 77.4333 84.5225 76.9735C78.0384 73.841 71.2372 71.5133 64.4937 69.0418C62.3036 68.2371 60.3151 66.8577 58.2402 65.7656C64.6379 66.5416 70.1998 69.7602 76.1075 71.9443C77.923 72.6053 79.6522 73.4674 81.6695 73.295Z" fill="#E3C076"/>
<path d="M95.4523 113.816C94.5301 113.816 93.6079 113.816 92.6857 113.816C91.3024 113.816 89.9191 113.816 88.5359 113.816C85.2218 110.597 80.8703 109.017 76.7205 107.81C69.1701 105.654 62.0807 102.378 54.7609 99.6195C49.1125 97.4928 43.5795 95.0789 37.9887 92.8948C34.6458 91.5728 31.5911 89.4749 27.9023 89.1013C28.1329 88.4116 28.3634 87.7219 28.594 87.0322C30.7841 86.0838 33.0608 86.5148 34.7899 87.6356C37.9599 89.6186 41.4757 90.5095 44.8762 91.7452C46.4324 92.2913 47.7581 93.0959 48.5362 94.6191C48.7668 94.849 48.9973 95.0788 49.2278 95.3087C50.6111 95.3087 51.9944 95.3375 53.3488 95.3375C60.0923 98.9873 67.5563 100.769 74.5591 103.787C80.0057 106.114 85.3947 108.528 91.1007 110.224C92.8875 110.684 95.3659 111.057 95.4523 113.816Z" fill="#CAA050"/>
<path d="M48.5879 94.591C42.0461 91.7746 35.6485 88.5559 28.6168 87.0328C28.4727 85.0212 29.222 84.274 31.2681 85.0212C32.9683 85.6247 35.0144 85.7397 36.4842 86.5443C40.4034 88.6709 44.6974 89.8491 48.6167 91.8608C48.5879 92.7517 48.5879 93.6713 48.5879 94.591Z" fill="#CCA354"/>
<path d="M135.33 82.2595C136.857 82.2307 137.664 83.1216 138.154 84.4436C136.915 84.0987 136.079 83.2366 135.33 82.2595Z" fill="#ECCE85"/>
<path d="M95.4462 113.817C94.3511 111.978 92.3626 111.288 90.5759 110.828C82.8238 108.788 75.9074 104.649 68.3858 102.235C64.2936 100.914 60.432 99.1317 56.4263 97.7236C55.2447 97.3212 53.6309 97.0626 53.4004 95.3096C55.7059 95.3096 58.0113 95.3096 60.2879 95.3096C65.8786 97.2638 71.6711 98.7007 77.0601 101.258C84.38 104.764 92.3338 106.719 99.5672 110.397C100.979 111.116 102.564 111.748 102.305 113.817C102.074 113.817 101.844 113.817 101.613 113.817C99.596 113.817 97.5211 113.817 95.4462 113.817Z" fill="#CCA253"/>
<path d="M102.368 113.817C99.5151 110.225 95.0771 109.449 91.2154 107.753C85.1636 105.08 78.6794 103.5 72.7717 100.31C69.7169 98.6719 66.1435 97.9822 62.8294 96.8901C61.8496 96.574 60.7834 96.4304 60.3223 95.3096C63.0888 95.3096 65.8265 95.3096 68.5931 95.3096C69.7746 96.5453 74.6738 98.9018 75.9129 98.6144C77.9014 98.1834 78.4201 100.368 79.8898 100.655C86.4892 101.891 92.1376 105.569 98.3911 107.782C102.57 109.248 106.806 111.058 110.898 112.955C110.841 113.242 110.783 113.501 110.725 113.788C107.93 113.817 105.135 113.817 102.368 113.817Z" fill="#CFA657"/>
</g>
<defs>
<clipPath id="clip0_5166_51216">
<rect width="192" height="192" fill="white"/>
</clipPath>
</defs>
</svg>
