<svg width="192" height="192" viewBox="0 0 192 192" fill="none" xmlns="http://www.w3.org/2000/svg">
<g clip-path="url(#clip0_4887_46582)">
<path d="M96 192C149.019 192 192 149.019 192 96C192 42.9807 149.019 0 96 0C42.9807 0 0 42.9807 0 96C0 149.019 42.9807 192 96 192Z" fill="white"/>
<path d="M160.39 64.7754H31.6095C28.5223 64.7754 26.0195 67.2781 26.0195 70.3654V121.635C26.0195 124.723 28.5223 127.225 31.6095 127.225H160.39C163.477 127.225 165.98 124.723 165.98 121.635V70.3654C165.98 67.2781 163.477 64.7754 160.39 64.7754Z" stroke="#8C2823" stroke-width="1.67" stroke-miterlimit="10"/>
<path d="M80.22 67.166H31.85C29.9998 67.166 28.5 68.6659 28.5 70.516V120.886C28.5 122.736 29.9998 124.236 31.85 124.236H80.22C82.0702 124.236 83.57 122.736 83.57 120.886V70.516C83.57 68.6659 82.0702 67.166 80.22 67.166Z" fill="#8C2823"/>
<path d="M159.571 67.166H91.7405C89.5701 67.166 87.8105 68.9255 87.8105 71.096V120.306C87.8105 122.476 89.5701 124.236 91.7405 124.236H159.571C161.741 124.236 163.501 122.476 163.501 120.306V71.096C163.501 68.9255 161.741 67.166 159.571 67.166Z" fill="#8C2823"/>
<path d="M110.319 96.396H105.779V100.126H110.319V96.396Z" fill="white"/>
<path d="M116.66 106.286V115.536C116.66 118.776 115.54 119.896 112.35 119.906H97.0599C96.5899 122.386 95.2199 123.806 92.9199 124.376C92.0699 124.586 91.7199 124.366 91.7399 123.516C91.7499 122.506 91.4299 121.426 92.9699 121.026C93.3999 120.906 93.7899 119.686 93.7899 118.976C93.8599 113.816 93.8399 108.666 93.8399 103.506C93.8399 102.646 93.8299 101.886 95.0799 101.876C96.8899 101.866 96.9599 101.936 96.9399 103.806C96.8899 107.606 96.9199 111.426 96.8899 115.226C96.8899 116.396 97.3599 116.986 98.6199 116.976C103.05 116.936 107.48 116.916 111.92 116.966C113.21 116.976 113.73 116.546 113.7 115.206C113.63 112.306 113.69 109.426 113.7 106.536C113.7 105.076 113.3 104.626 111.84 104.616C108.66 104.606 105.48 104.606 102.3 104.656C101.35 104.666 100.62 104.716 100.63 103.376C100.64 102.226 100.93 101.756 102.18 101.796C105.55 101.866 108.93 101.806 112.3 101.836C114.98 101.846 116.67 103.596 116.67 106.296L116.66 106.286Z" fill="white"/>
<path d="M116.69 76.086C116.7 72.766 115.11 71.186 111.73 71.186C106.81 71.186 101.9 71.186 96.9902 71.186C94.1602 71.186 92.0502 73.256 92.0402 76.066C92.0102 78.706 92.0302 81.366 92.0302 84.006H92.0002C92.0002 86.716 92.0302 89.406 91.9902 92.106C91.9902 93.096 92.0402 93.796 93.3602 93.686C94.4602 93.576 95.3402 93.736 95.3102 92.056C95.2002 86.706 95.3002 81.356 95.2602 76.006C95.2602 74.836 95.8302 74.226 96.8702 74.266C97.8902 74.296 98.4502 74.896 98.4102 76.086C98.3202 78.876 98.3502 81.676 98.3702 84.476C98.4102 87.186 100.45 89.216 103.13 89.236C106.21 89.246 109.3 89.246 112.38 89.236C115.05 89.206 116.72 87.546 116.72 84.916C116.73 81.976 116.72 79.036 116.72 76.096L116.69 76.086ZM113.51 83.116C113.49 86.156 113.44 86.216 110.47 86.216C107.97 86.216 105.46 86.216 102.96 86.246C101.8 86.276 101.27 85.806 101.31 84.626C101.34 83.086 101.31 81.546 101.31 79.996C101.31 78.446 101.34 76.916 101.31 75.366C101.28 74.286 101.77 73.726 102.83 73.716C105.87 73.686 108.91 73.676 111.94 73.716C113.06 73.746 113.67 74.336 113.63 75.586C113.55 78.086 113.54 80.596 113.52 83.096L113.51 83.116Z" fill="white"/>
<path d="M147.95 90.9062H143.41V94.6363H147.95V90.9062Z" fill="white"/>
<path d="M153.739 90.9062H149.199V94.6363H153.739V90.9062Z" fill="white"/>
<path d="M153.8 96.3359H149.26V100.066H153.8V96.3359Z" fill="white"/>
<path d="M159.53 90.9062H154.99V94.6363H159.53V90.9062Z" fill="white"/>
<path d="M120.391 93.6761V90.9561C122.471 90.8561 122.461 89.3761 122.431 87.7761C122.371 82.7661 122.441 77.7561 122.321 72.7461C122.281 71.0461 123.241 71.2261 124.341 71.1761C125.701 71.1261 125.571 71.926 125.551 72.876C125.491 76.966 125.491 81.066 125.471 85.156C125.471 86.206 126.011 86.5361 127.031 86.5361C136.621 86.4961 146.221 86.5161 155.811 86.4961C157.801 86.4861 157.921 86.3661 157.921 84.3461C157.931 81.5961 157.881 78.8561 157.971 76.1061C158.021 74.7261 157.561 74.176 156.161 74.196C152.981 74.266 149.801 74.196 146.621 74.266C145.581 74.286 145.131 74.076 145.161 72.936C145.181 71.886 145.271 71.206 146.611 71.236C149.831 71.306 153.061 71.2261 156.291 71.2761C159.211 71.3161 161.061 73.1461 161.121 76.0961C161.181 79.0761 161.181 82.076 161.111 85.056C161.051 88.026 159.561 89.396 156.571 89.396C146.791 89.396 137.011 89.4061 127.231 89.3861C126.221 89.3861 125.601 89.5061 125.291 90.7061C124.821 92.5461 122.771 93.6761 120.411 93.6761H120.391Z" fill="white"/>
<path d="M161.21 106.386C161.18 103.946 159.21 101.906 156.83 101.856C153.56 101.796 150.28 101.796 147 101.856C144.75 101.896 142.91 103.836 142.88 106.056C142.85 107.556 142.84 109.056 142.88 110.546C142.94 112.636 144.5 114.146 146.6 114.156C149.82 114.176 153.06 114.156 156.29 114.156H157.82C158.09 116.546 157.8 116.906 155.61 116.906C145.57 116.916 135.55 116.906 125.53 116.936C123.6 116.936 123.35 116.736 123.37 114.806C123.37 109.456 123.4 104.106 123.4 98.7561C123.4 98.3561 123.31 97.7961 123.05 97.6161C121.84 96.8061 120.15 97.6861 120.15 99.1261C120.19 104.656 120.22 110.196 120.3 115.746C120.32 117.506 121.23 118.816 122.83 119.466C123.79 119.836 124.87 120.046 125.91 120.046C135.93 120.076 145.95 120.066 155.99 120.066C156.33 120.066 156.66 120.076 156.99 120.046C159.31 119.806 161.18 117.886 161.2 115.636C161.24 112.556 161.25 109.466 161.2 106.386H161.21ZM157.96 109.756C158.06 111.066 157.46 111.456 156.26 111.416C154.82 111.366 153.38 111.406 151.93 111.406V111.426C150.44 111.426 148.95 111.426 147.45 111.426C146.39 111.436 145.83 110.966 145.84 109.866C145.85 108.706 145.84 107.556 145.84 106.396C145.85 105.236 146.45 104.596 147.62 104.586C150.51 104.576 153.4 104.566 156.29 104.586C157.45 104.596 158.04 105.176 157.97 106.416C157.9 107.516 157.88 108.636 157.96 109.736V109.756Z" fill="white"/>
<path d="M63.2699 72.656C63.3099 71.646 63.0099 71.206 61.9599 71.206C52.3899 71.216 42.8199 71.216 33.2699 71.206C32.3499 71.206 31.9199 71.496 31.9299 72.486C31.9699 74.806 31.9699 77.136 31.9299 79.456C31.9199 80.416 32.2599 80.756 33.2299 80.746C38.0399 80.706 42.8499 80.736 47.6599 80.736V80.606C52.3099 80.606 56.9599 80.566 61.5999 80.626C62.8699 80.656 63.2599 80.226 63.2199 79.006C63.1599 76.896 63.1899 74.786 63.2699 72.666V72.656ZM63.2699 90.156C63.3099 89.186 62.9299 88.866 61.9799 88.866C52.4199 88.876 42.8499 88.876 33.2799 88.866C32.3899 88.866 31.9299 89.086 31.9299 90.096C31.9599 99.706 31.9599 109.326 31.9299 118.946C31.9299 119.816 32.2699 120.176 33.1599 120.156C35.3799 120.086 37.5999 120.036 39.8099 120.076C40.9899 120.106 41.3499 119.706 41.3299 118.526C41.2899 112.386 41.3199 106.266 41.3199 100.136V98.236H43.4999C49.5299 98.236 55.5399 98.206 61.5699 98.266C62.7999 98.266 63.2499 97.946 63.2099 96.666C63.1399 94.506 63.1999 92.336 63.2599 90.156H63.2699ZM78.3099 71.196C76.2999 71.216 74.2799 71.196 72.2699 71.196C70.1499 71.196 70.1299 71.206 70.1299 73.286V110.806H68.1599C61.8199 110.806 55.4599 110.846 49.1199 110.786C47.7899 110.776 47.3199 111.206 47.3699 112.506C47.4399 114.616 47.3999 116.736 47.3799 118.856C47.3799 119.796 47.6799 120.256 48.7599 120.246C58.4499 120.196 68.1299 120.196 77.8099 120.176C78.3199 120.176 78.8299 120.126 79.4099 120.086C79.4399 119.476 79.4899 119.006 79.4899 118.546C79.5099 103.196 79.5099 87.856 79.5599 72.516C79.5599 71.536 79.2599 71.186 78.2999 71.206L78.3099 71.196ZM63.2699 72.646C63.3099 71.636 63.0099 71.196 61.9599 71.196C52.3899 71.206 42.8199 71.206 33.2699 71.196C32.3499 71.196 31.9199 71.486 31.9299 72.476C31.9699 74.796 31.9699 77.126 31.9299 79.446C31.9199 80.406 32.2599 80.746 33.2299 80.736C38.0399 80.696 42.8499 80.726 47.6599 80.726V80.596C52.3099 80.596 56.9599 80.556 61.5999 80.616C62.8699 80.646 63.2599 80.216 63.2199 78.996C63.1599 76.886 63.1899 74.776 63.2699 72.656V72.646ZM63.2699 90.146C63.3099 89.176 62.9299 88.856 61.9799 88.856C52.4199 88.866 42.8499 88.866 33.2799 88.856C32.3899 88.856 31.9299 89.076 31.9299 90.086C31.9599 99.696 31.9599 109.316 31.9299 118.936C31.9299 119.806 32.2699 120.166 33.1599 120.146C35.3799 120.076 37.5999 120.026 39.8099 120.066C40.9899 120.096 41.3499 119.696 41.3299 118.516C41.2899 112.376 41.3199 106.256 41.3199 100.126V98.226H43.4999C49.5299 98.226 55.5399 98.196 61.5699 98.256C62.7999 98.256 63.2499 97.936 63.2099 96.656C63.1399 94.496 63.1999 92.326 63.2599 90.146H63.2699ZM78.3099 71.186C76.2999 71.206 74.2799 71.186 72.2699 71.186C70.1499 71.186 70.1299 71.196 70.1299 73.276V110.796H68.1599C61.8199 110.796 55.4599 110.836 49.1199 110.776C47.7899 110.766 47.3199 111.196 47.3699 112.496C47.4399 114.606 47.3999 116.726 47.3799 118.846C47.3799 119.786 47.6799 120.246 48.7599 120.236C58.4499 120.186 68.1299 120.186 77.8099 120.166C78.3199 120.166 78.8299 120.116 79.4099 120.076C79.4399 119.466 79.4899 118.996 79.4899 118.536C79.5099 103.186 79.5099 87.846 79.5599 72.506C79.5599 71.526 79.2599 71.176 78.2999 71.196L78.3099 71.186ZM78.3099 71.186C76.2999 71.206 74.2799 71.186 72.2699 71.186C70.1499 71.186 70.1299 71.196 70.1299 73.276V110.796H68.1599C61.8199 110.796 55.4599 110.836 49.1199 110.776C47.7899 110.766 47.3199 111.196 47.3699 112.496C47.4399 114.606 47.3999 116.726 47.3799 118.846C47.3799 119.786 47.6799 120.246 48.7599 120.236C58.4499 120.186 68.1299 120.186 77.8099 120.166C78.3199 120.166 78.8299 120.116 79.4099 120.076C79.4399 119.466 79.4899 118.996 79.4899 118.536C79.5099 103.186 79.5099 87.846 79.5599 72.506C79.5599 71.526 79.2599 71.176 78.2999 71.196L78.3099 71.186ZM63.2699 90.146C63.3099 89.176 62.9299 88.856 61.9799 88.856C52.4199 88.866 42.8499 88.866 33.2799 88.856C32.3899 88.856 31.9299 89.076 31.9299 90.086C31.9599 99.696 31.9599 109.316 31.9299 118.936C31.9299 119.806 32.2699 120.166 33.1599 120.146C35.3799 120.076 37.5999 120.026 39.8099 120.066C40.9899 120.096 41.3499 119.696 41.3299 118.516C41.2899 112.376 41.3199 106.256 41.3199 100.126V98.226H43.4999C49.5299 98.226 55.5399 98.196 61.5699 98.256C62.7999 98.256 63.2499 97.936 63.2099 96.656C63.1399 94.496 63.1999 92.326 63.2599 90.146H63.2699ZM63.2699 72.646C63.3099 71.636 63.0099 71.196 61.9599 71.196C52.3899 71.206 42.8199 71.206 33.2699 71.196C32.3499 71.196 31.9199 71.486 31.9299 72.476C31.9699 74.796 31.9699 77.126 31.9299 79.446C31.9199 80.406 32.2599 80.746 33.2299 80.736C38.0399 80.696 42.8499 80.726 47.6599 80.726V80.596C52.3099 80.596 56.9599 80.556 61.5999 80.616C62.8699 80.646 63.2599 80.216 63.2199 78.996C63.1599 76.886 63.1899 74.776 63.2699 72.656V72.646Z" fill="white"/>
</g>
<defs>
<clipPath id="clip0_4887_46582">
<rect width="192" height="192" fill="white"/>
</clipPath>
</defs>
</svg>
