<svg width="192" height="192" viewBox="0 0 192 192" fill="none" xmlns="http://www.w3.org/2000/svg">
<g clip-path="url(#clip0_4887_46611)">
<path d="M96 192C149.019 192 192 149.019 192 96C192 42.9807 149.019 0 96 0C42.9807 0 0 42.9807 0 96C0 149.019 42.9807 192 96 192Z" fill="white"/>
<path d="M63.159 99.3473C63.399 99.5173 63.629 99.6873 63.879 99.8473C67.459 102.167 71.039 104.487 74.629 106.797C75.409 107.297 75.959 107.907 76.019 108.867C76.139 110.687 74.339 111.967 72.649 111.237C72.349 111.107 72.069 110.917 71.789 110.737C65.809 106.867 59.829 102.997 53.849 99.1273C53.669 99.0173 53.499 98.8973 53.329 98.7673C52.359 98.0273 51.999 97.0173 52.329 96.0073C52.669 94.9873 53.539 94.3473 54.749 94.3373C57.069 94.3173 59.379 94.3373 61.699 94.3373C63.359 94.3373 65.009 94.3573 66.669 94.3373C69.219 94.2973 71.199 92.3773 71.219 89.9473C71.249 87.4373 69.329 85.4673 66.719 85.4273C63.589 85.3773 60.459 85.4173 57.329 85.4173C56.609 85.4173 55.889 85.4173 55.159 85.4173C53.319 85.4073 52.209 84.4973 52.209 82.9973C52.209 81.4973 53.319 80.5873 55.149 80.5773C59.029 80.5773 62.909 80.5473 66.799 80.5773C71.649 80.6273 75.409 84.0673 76.039 88.9773C76.599 93.3273 73.569 97.7173 69.109 98.8473C67.909 99.1473 66.609 99.0973 65.359 99.1773C64.639 99.2173 63.919 99.1773 63.199 99.1773C63.179 99.2373 63.159 99.2873 63.139 99.3473H63.159Z" fill="#262626"/>
<path d="M94.3774 99.2876C92.3974 99.1976 90.3774 99.3176 88.4474 98.9776C83.7374 98.1576 80.5774 93.7776 81.0174 88.9776C81.4474 84.3376 85.3874 80.6776 90.0974 80.5976C93.0174 80.5476 95.9374 80.5476 98.8574 80.5976C103.847 80.6776 107.907 84.8376 107.937 89.8276C107.967 94.8876 103.947 99.0576 98.9074 99.1776C97.4074 99.2176 95.8974 99.1776 94.3974 99.1776C94.3974 99.2076 94.3974 99.2376 94.3974 99.2776L94.3774 99.2876ZM94.4274 94.3676C95.7774 94.3676 97.1374 94.3876 98.4874 94.3676C101.107 94.3176 103.057 92.4076 103.057 89.9076C103.057 87.3876 101.127 85.4876 98.4874 85.4676C95.8074 85.4476 93.1274 85.4476 90.4574 85.4676C87.7874 85.4876 85.8774 87.3376 85.8674 89.8676C85.8574 92.4476 87.7674 94.3276 90.4674 94.3676C91.7874 94.3876 93.1174 94.3676 94.4374 94.3676H94.4274Z" fill="#262626"/>
<path d="M155.027 99.2873C153.017 99.1973 150.967 99.3173 149.007 98.9673C144.407 98.1673 141.127 93.7473 141.557 89.2373C142.017 84.3473 145.867 80.6673 150.677 80.5973C153.597 80.5573 156.517 80.5473 159.437 80.5973C164.417 80.6773 168.467 84.8373 168.507 89.8373C168.547 94.8773 164.497 99.0573 159.467 99.1773C157.997 99.2073 156.517 99.1773 155.047 99.1773C155.047 99.2073 155.047 99.2373 155.047 99.2673L155.027 99.2873ZM154.987 85.4473C153.637 85.4473 152.277 85.4273 150.927 85.4473C148.357 85.4873 146.427 87.3673 146.397 89.8373C146.367 92.3273 148.307 94.3073 150.907 94.3473C153.667 94.3873 156.437 94.3973 159.197 94.3473C161.727 94.3073 163.667 92.2973 163.637 89.8573C163.607 87.3773 161.687 85.4973 159.127 85.4473C157.747 85.4273 156.367 85.4473 154.977 85.4473H154.987Z" fill="#262626"/>
<path d="M127.837 99.1775C125.877 99.1775 123.927 99.1975 121.967 99.1775C116.927 99.1175 112.817 94.9775 112.787 89.9575C112.757 84.8675 116.797 80.6575 121.897 80.5875C125.957 80.5275 130.017 80.5675 134.077 80.5775C135.607 80.5775 136.667 81.5875 136.667 82.9775C136.667 84.3575 135.627 85.3875 134.087 85.3975C130.177 85.4275 126.267 85.3975 122.357 85.4175C120.187 85.4175 118.527 86.5675 117.897 88.4275C116.907 91.3375 119.037 94.2975 122.197 94.3275C125.987 94.3675 129.777 94.3275 133.567 94.3375C133.927 94.3375 134.297 94.3375 134.647 94.3975C135.917 94.6175 136.767 95.7175 136.667 96.9775C136.567 98.1875 135.587 99.1575 134.337 99.1675C132.167 99.1975 130.007 99.1675 127.837 99.1675V99.1775Z" fill="#262626"/>
<path d="M38.498 99.0073C36.008 99.0073 33.478 99.2973 31.028 98.9473C26.328 98.2773 23.158 93.8873 23.518 89.0373C23.858 84.4673 27.778 80.6873 32.418 80.5973C36.508 80.5173 40.598 80.5673 44.688 80.5773C46.278 80.5773 47.358 81.5873 47.348 83.0073C47.338 84.3773 46.268 85.3973 44.738 85.4073C40.978 85.4273 37.218 85.4073 33.458 85.4273C32.828 85.4273 32.178 85.4473 31.588 85.6073C29.448 86.1873 28.098 88.2473 28.388 90.4073C28.688 92.6873 30.478 94.3173 32.818 94.3373C36.758 94.3673 40.698 94.3573 44.638 94.3373C45.798 94.3373 46.698 94.7573 47.168 95.8573C47.828 97.4273 46.718 99.1373 44.998 99.1673C42.828 99.2073 40.668 99.1673 38.498 99.1673C38.498 99.1073 38.498 99.0573 38.498 98.9973V99.0073Z" fill="#262626"/>
</g>
<defs>
<clipPath id="clip0_4887_46611">
<rect width="192" height="192" fill="white"/>
</clipPath>
</defs>
</svg>
