<svg width="192" height="192" viewBox="0 0 192 192" fill="none" xmlns="http://www.w3.org/2000/svg">
<g clip-path="url(#clip0_5166_50215)">
<path d="M96 192C149.019 192 192 149.019 192 96C192 42.9807 149.019 0 96 0C42.9807 0 0 42.9807 0 96C0 149.019 42.9807 192 96 192Z" fill="white"/>
<path d="M9.98 82.17H16.49C18.39 82.17 20.07 82.6 21.53 83.46C22.99 84.3 24.13 85.49 24.95 87.03C25.77 88.55 26.18 90.29 26.18 92.25V93.36C26.18 95.34 25.78 97.1 24.98 98.64C24.18 100.16 23.05 101.35 21.59 102.21C20.13 103.07 18.44 103.5 16.52 103.5H9.98V82.17ZM16.43 100.2C18.19 100.2 19.54 99.62 20.48 98.46C21.44 97.28 21.92 95.58 21.92 93.36V92.31C21.92 90.09 21.45 88.4 20.51 87.24C19.59 86.08 18.26 85.49 16.52 85.47H14.15V100.2H16.43ZM29.7617 82.17H33.9617V103.5H29.7617V82.17ZM44.2829 82.17H48.1829L56.1629 103.5H51.7229L50.1629 98.88H42.3629L40.8029 103.5H36.3629L44.2829 82.17ZM49.0829 95.58L46.2329 87.15L43.4429 95.58H49.0829ZM58.2612 82.17H62.4613L71.3113 96.72V82.17H75.4813V103.5H71.2812L62.4613 88.98V103.5H58.2612V82.17ZM85.1558 82.17H93.3758C94.9758 82.17 96.3758 82.47 97.5758 83.07C98.7958 83.65 99.7258 84.47 100.366 85.53C101.006 86.57 101.326 87.76 101.326 89.1C101.326 91.2 100.616 92.85 99.1958 94.05C97.7958 95.23 95.8358 95.82 93.3158 95.82H89.3258V103.5H85.1558V82.17ZM93.3758 92.52C94.5758 92.52 95.4858 92.23 96.1058 91.65C96.7458 91.07 97.0658 90.23 97.0658 89.13C97.0658 88.03 96.7458 87.15 96.1058 86.49C95.4658 85.83 94.5858 85.49 93.4658 85.47H89.3258V92.52H93.3758ZM109.293 103.8C107.573 103.8 106.263 103.3 105.363 102.3C104.483 101.3 104.033 99.84 104.013 97.92V87.66H108.093V97.92C108.093 99.7 108.873 100.59 110.433 100.59C111.953 100.59 112.983 100.04 113.523 98.94V87.66H117.603V103.5H113.793L113.703 101.85C112.643 103.15 111.173 103.8 109.293 103.8ZM126.891 103.8C125.651 103.8 124.511 103.57 123.471 103.11C122.431 102.65 121.601 102.02 120.981 101.22C120.381 100.4 120.081 99.49 120.081 98.49H123.921C123.941 99.29 124.221 99.9 124.761 100.32C125.321 100.74 126.051 100.95 126.951 100.95C127.771 100.95 128.401 100.79 128.841 100.47C129.301 100.13 129.531 99.69 129.531 99.15C129.531 98.59 129.261 98.15 128.721 97.83C128.201 97.51 127.351 97.22 126.171 96.96C124.311 96.56 122.911 95.97 121.971 95.19C121.051 94.41 120.591 93.42 120.591 92.22C120.591 91.3 120.851 90.47 121.371 89.73C121.911 88.99 122.651 88.41 123.591 87.99C124.551 87.57 125.641 87.36 126.861 87.36C128.161 87.36 129.301 87.58 130.281 88.02C131.281 88.44 132.051 89.03 132.591 89.79C133.151 90.55 133.431 91.43 133.431 92.43H129.381C129.381 91.75 129.151 91.21 128.691 90.81C128.231 90.39 127.611 90.18 126.831 90.18C126.131 90.18 125.561 90.36 125.121 90.72C124.681 91.06 124.461 91.5 124.461 92.04C124.461 92.62 124.751 93.05 125.331 93.33C125.931 93.61 126.771 93.88 127.851 94.14C128.411 94.26 128.801 94.36 129.021 94.44C130.521 94.86 131.631 95.44 132.351 96.18C133.091 96.9 133.461 97.84 133.461 99C133.461 99.94 133.181 100.78 132.621 101.52C132.061 102.24 131.281 102.8 130.281 103.2C129.301 103.6 128.171 103.8 126.891 103.8ZM136.181 81H140.261V89.43C141.381 88.05 142.811 87.36 144.551 87.36C146.271 87.36 147.561 87.86 148.421 88.86C149.301 89.86 149.751 91.35 149.771 93.33V103.5H145.721V93.36C145.701 92.4 145.481 91.7 145.061 91.26C144.661 90.8 144.011 90.57 143.111 90.57C142.471 90.57 141.901 90.71 141.401 90.99C140.921 91.27 140.541 91.66 140.261 92.16V103.5H136.181V81ZM157.769 103.8C156.769 103.8 155.859 103.6 155.039 103.2C154.219 102.78 153.569 102.21 153.089 101.49C152.629 100.75 152.399 99.94 152.399 99.06C152.399 97.38 153.029 96.09 154.289 95.19C155.569 94.29 157.389 93.84 159.749 93.84H161.729V92.85C161.729 92.03 161.519 91.4 161.099 90.96C160.679 90.52 160.059 90.3 159.239 90.3C158.499 90.3 157.909 90.49 157.469 90.87C157.029 91.23 156.809 91.72 156.809 92.34H152.789C152.789 91.42 153.069 90.58 153.629 89.82C154.209 89.06 154.999 88.46 155.999 88.02C157.019 87.58 158.169 87.36 159.449 87.36C161.389 87.36 162.919 87.84 164.039 88.8C165.159 89.74 165.739 91.05 165.779 92.73V99.84C165.779 101.28 165.979 102.42 166.379 103.26V103.5H162.299C162.139 103.14 161.999 102.63 161.879 101.97C160.839 103.19 159.469 103.8 157.769 103.8ZM156.479 98.76C156.479 99.36 156.679 99.84 157.079 100.2C157.479 100.56 158.009 100.74 158.669 100.74C159.329 100.74 159.939 100.58 160.499 100.26C161.059 99.92 161.469 99.51 161.729 99.03V96.21H160.019C157.659 96.21 156.479 97.06 156.479 98.76ZM169.143 81H173.193V93.6L174.093 92.52L178.293 87.66H183.153L177.333 94.2L183.663 103.5H178.983L174.693 97.02L173.193 98.58V103.5H169.143V81Z" fill="black"/>
</g>
<defs>
<clipPath id="clip0_5166_50215">
<rect width="192" height="192" fill="white"/>
</clipPath>
</defs>
</svg>
