<svg width="192" height="192" viewBox="0 0 192 192" fill="none" xmlns="http://www.w3.org/2000/svg">
<g clip-path="url(#clip0_4887_46504)">
<path d="M96 192C149.019 192 192 149.019 192 96C192 42.9807 149.019 0 96 0C42.9807 0 0 42.9807 0 96C0 149.019 42.9807 192 96 192Z" fill="white"/>
<path d="M84.1608 61.199C87.4908 61.139 90.8308 61.139 94.1708 61.179V67.299C95.4508 67.299 96.7508 67.279 98.0308 67.279C98.0308 65.249 98.0308 63.219 98.0308 61.189C101.351 61.139 104.661 61.139 107.981 61.159C107.981 63.209 107.981 65.249 107.981 67.289H114.281C114.281 70.939 114.281 74.589 114.281 78.239C112.181 78.239 110.081 78.239 107.981 78.239C107.981 79.239 107.961 80.259 107.961 81.259C110.061 81.259 112.161 81.279 114.271 81.279V91.379C112.171 91.429 110.071 91.469 107.961 91.489C107.961 93.479 107.961 95.469 107.961 97.459C104.641 97.439 101.331 97.439 98.0108 97.439C98.0108 95.409 98.0108 93.389 98.0108 91.359H94.1508V97.449C90.8208 97.449 87.4808 97.449 84.1508 97.449C84.1508 95.469 84.1508 93.499 84.1508 91.519C82.1208 91.469 80.0808 91.419 78.0508 91.379C78.0708 88.009 78.0708 84.639 78.0508 81.269C80.0808 81.269 82.1108 81.249 84.1308 81.249C84.1308 80.499 84.1308 78.999 84.1508 78.249C82.1208 78.229 80.0808 78.229 78.0508 78.229C78.0508 74.579 78.0508 70.929 78.0508 67.279C80.0808 67.279 82.1108 67.279 84.1408 67.259V61.189L84.1608 61.199ZM90.7908 91.359C89.2708 90.919 87.2308 91.339 85.6608 91.169C85.6408 92.749 85.6408 94.329 85.6408 95.909C88.0008 95.909 90.3608 95.909 92.7308 95.909C92.7308 93.859 92.7308 91.809 92.7308 89.759C96.8408 89.759 100.961 89.759 105.071 89.759C105.071 91.299 105.071 92.849 105.071 94.389C103.741 94.389 102.411 94.389 101.081 94.409L101.041 92.949C101.741 92.889 102.761 92.789 103.461 92.719C103.361 92.389 103.521 91.689 103.421 91.359H99.5508V95.899C101.871 95.899 104.201 95.899 106.521 95.919C106.521 92.059 106.521 88.189 106.521 84.339C108.091 84.359 109.661 84.379 111.231 84.409C111.231 85.649 111.251 86.899 111.251 88.149C110.821 88.169 109.961 88.189 109.521 88.209C109.501 87.619 109.461 86.449 109.431 85.859C109.071 85.859 108.361 85.889 108.001 85.899C107.981 87.209 107.961 88.519 107.951 89.829C109.521 89.829 111.091 89.829 112.661 89.829C112.661 87.499 112.661 85.169 112.661 82.839C110.601 82.819 108.551 82.799 106.491 82.789C106.491 78.909 106.491 75.029 106.491 71.149C108.071 71.149 109.651 71.149 111.231 71.149C111.041 72.779 110.841 71.179 110.591 72.809C109.901 71.399 108.851 73.199 108.161 71.779C107.841 73.379 108.061 74.959 107.991 76.639C109.621 76.639 111.021 76.649 112.661 76.649V69.629C110.601 69.629 108.551 69.629 106.491 69.609V62.719C104.171 62.719 101.851 62.719 99.5308 62.739C99.5308 64.249 99.5308 65.749 99.5108 67.259C100.871 67.259 102.211 67.279 103.571 67.279L103.551 65.659C102.691 65.389 102.221 65.149 101.371 64.869C102.981 64.409 103.381 64.259 105.041 64.019C105.041 65.879 105.061 67.739 105.061 69.609C100.951 69.609 96.8208 69.609 92.7108 69.629V62.739C90.3508 62.719 87.9908 62.719 85.6308 62.739C85.6308 64.289 85.6508 65.829 85.6708 67.379C86.6808 67.279 89.8808 67.399 89.8808 67.399V65.769C89.0908 65.709 87.9808 65.809 87.2108 65.769C87.2108 65.389 87.2108 64.619 87.1908 64.239C88.5308 64.239 89.8808 64.239 91.2208 64.239C91.2208 66.029 91.2208 67.809 91.2208 69.599H79.5408V76.649C81.1608 76.649 82.6108 76.619 84.2408 76.599C84.2408 75.049 84.2308 73.509 84.1408 71.909C83.4508 73.269 83.0308 71.069 82.3308 72.429C82.0708 70.829 81.1808 72.729 81.0008 71.109C82.6208 71.089 84.0508 71.109 85.6608 71.109V82.759C83.6208 82.759 81.5908 82.779 79.5408 82.809C79.5408 85.149 79.5408 87.499 79.5408 89.839C81.1308 89.809 82.7308 89.779 84.3208 89.739C84.1508 88.419 84.7308 86.629 83.8608 85.569C83.7008 85.379 83.1108 85.439 82.8808 85.289C82.7908 86.019 82.6208 87.469 82.5308 88.199C82.1508 88.219 81.3708 88.259 80.9908 88.289C80.9908 86.969 80.9908 85.649 80.9908 84.339C82.5408 84.339 84.0908 84.339 85.6508 84.339V89.739H91.2208" fill="#5E1F00"/>
<path d="M23.8411 115.119C24.8111 109.789 29.1011 105.109 34.5211 104.219C38.8011 103.349 43.3011 104.909 46.4711 107.819C45.8111 108.859 44.9911 109.769 44.1711 110.689C42.0311 109.259 39.7511 107.599 37.0311 107.759C32.1311 107.609 27.9311 112.159 27.9511 116.959C27.5811 121.509 30.9211 126.099 35.4611 126.859C37.8811 127.329 40.2811 126.539 42.6011 125.939C42.6011 124.489 42.5811 123.039 42.5811 121.589C41.1711 121.589 39.7611 121.609 38.3511 121.609C38.3511 120.409 38.3711 119.209 38.3811 118.009C41.0911 118.009 43.7911 118.009 46.5011 118.059C46.6011 121.459 46.5711 124.879 46.6111 128.279C41.6911 130.829 35.4111 132.099 30.3911 129.159C27.1711 127.399 25.2111 124.159 23.8811 120.839C23.2111 118.479 23.5911 115.069 23.8511 115.129L23.8411 115.119Z" fill="#5E1F00"/>
<path d="M48.5215 130.439C52.3815 121.299 56.3715 112.169 60.9415 103.349C62.0915 105.219 63.0815 107.169 63.9515 109.179C67.0415 116.269 70.4615 123.209 73.3715 130.379C72.1115 130.419 70.8515 130.469 69.5915 130.509C66.5415 124.159 63.7615 117.669 60.9015 111.229C58.2115 117.669 55.2115 123.979 52.4315 130.389C51.1315 130.409 49.8215 130.439 48.5215 130.449V130.439Z" fill="#5E1F00"/>
<path d="M76.7612 104.429C80.2312 104.449 83.7012 104.249 87.1612 104.529C90.8812 104.799 94.0612 108.449 93.4112 112.209C93.1912 114.349 91.3612 115.739 89.9412 117.149C91.5912 118.389 93.6412 119.599 94.0412 121.799C95.0612 125.699 92.0412 129.799 88.1212 130.269C84.3312 130.649 80.5212 130.389 76.7212 130.399C76.7212 121.739 76.6512 113.089 76.7612 104.429ZM80.5812 107.909C80.5612 114.269 80.5312 120.629 80.5412 126.999C82.8612 126.959 85.2212 127.219 87.5012 126.739C89.9712 126.019 90.9412 122.489 89.1812 120.619C88.1712 119.659 86.7512 119.339 85.5112 118.769C85.4912 117.869 85.4712 116.969 85.4512 116.079C87.8612 115.349 90.2112 113.049 89.0712 110.369C87.8312 106.859 83.3912 108.189 80.5712 107.909H80.5812Z" fill="#5E1F00"/>
<path d="M100.591 104.339C101.851 104.399 103.121 104.449 104.381 104.519C104.401 113.139 104.421 121.749 104.381 130.369C103.111 130.419 101.851 130.459 100.591 130.499C100.451 121.789 100.431 113.059 100.591 104.349V104.339Z" fill="#5E1F00"/>
<path d="M107.721 130.399C111.831 121.389 115.741 112.289 120.081 103.379C121.001 104.579 121.851 105.869 122.471 107.259C125.901 114.969 129.311 122.679 132.841 130.339C131.491 130.389 130.151 130.439 128.811 130.479C125.931 124.109 123.201 117.669 120.231 111.339C117.361 117.689 114.601 124.099 111.751 130.459C110.401 130.439 109.061 130.429 107.721 130.399Z" fill="#5E1F00"/>
<path d="M136.001 103.679H138.891C143.771 109.309 148.821 117.069 153.711 122.699C153.711 116.629 153.691 110.569 153.711 104.499C154.971 104.459 156.221 104.429 157.481 104.399C157.581 113.349 157.731 121.549 157.571 130.489L154.341 130.429C150.311 125.489 143.821 116.549 139.751 111.649C139.771 117.909 139.821 124.169 139.711 130.429C138.451 130.429 137.181 130.409 135.921 130.379C135.881 121.479 135.731 112.569 136.001 103.669V103.679Z" fill="#5E1F00"/>
<path d="M164.67 104.499C165.94 104.469 167.2 104.439 168.46 104.429C168.48 113.099 168.52 121.769 168.46 130.439C167.21 130.419 165.96 130.419 164.7 130.399C164.62 121.769 164.68 113.129 164.67 104.499Z" fill="#5E1F00"/>
<path d="M105.061 64.0791H100.701V65.6791H105.061V64.0791Z" fill="#5E1F00"/>
<path d="M91.3014 92.6191H86.9414V94.2191H91.3014V92.6191Z" fill="#5E1F00"/>
<path d="M111.241 71.209H106.881V72.809H111.241V71.209Z" fill="#5E1F00"/>
<path d="M85.1502 71.1592H80.9902V72.7592H85.1502V71.1592Z" fill="#5E1F00"/>
<path d="M91.3012 89.7988H89.4512V93.5688H91.3012V89.7988Z" fill="#5E1F00"/>
<path d="M80.9798 85.9985H85.3398V84.3985H80.9798V85.9985Z" fill="#5E1F00"/>
<path d="M80.9897 75.2588H82.6797V71.4888H80.9897V75.2588Z" fill="#5E1F00"/>
<path d="M109.54 75.2588H111.23V71.4888H109.54V75.2588Z" fill="#5E1F00"/>
</g>
<defs>
<clipPath id="clip0_4887_46504">
<rect width="192" height="192" fill="white"/>
</clipPath>
</defs>
</svg>
