<svg width="192" height="192" viewBox="0 0 192 192" fill="none" xmlns="http://www.w3.org/2000/svg">
<g clip-path="url(#clip0_4915_32055)">
<path d="M96 192C149.019 192 192 149.019 192 96C192 42.9807 149.019 0 96 0C42.9807 0 0 42.9807 0 96C0 149.019 42.9807 192 96 192Z" fill="white"/>
<path d="M118.896 68.3609C123.521 69.0429 127.656 68.4043 131.761 67.5735C137.142 66.4823 142.319 64.7215 147.354 62.5329C148.389 62.0803 149.468 61.7083 150.547 61.3673C151.074 61.1999 151.613 61.3983 151.886 61.8881C152.27 62.5763 151.867 63.0599 151.297 63.4133C150.95 63.6303 150.578 63.8225 150.206 63.9899C140.397 68.3113 130.322 71.6283 119.429 71.2005C116.515 71.0889 114.847 72.1801 113.514 74.6291C109.999 81.0957 109.379 87.7483 111.884 94.6489C114.047 100.619 115.542 106.695 115.411 113.094C115.399 113.819 115.411 114.545 115.349 115.258C115.281 115.989 115.151 116.814 114.202 116.808C113.229 116.808 113.179 115.958 113.124 115.233C112.913 112.35 112.882 109.448 112.485 106.59C109.044 82.0381 88.305 64.0023 63.5236 63.8039C55.9162 63.7419 48.5196 65.0005 41.1788 66.7613C38.7794 67.3379 36.6466 67.6045 35.4748 64.8083C34.458 62.3779 35.4066 59.6561 37.775 58.0689C39.9946 56.5871 42.4746 56.5871 44.9546 56.8537C47.1618 57.0955 48.8048 56.4445 50.5532 54.9999C55.8976 50.5855 62.141 50.3561 68.4402 52.2409C71.4286 53.1337 73.9892 52.8609 76.8164 51.8007C85.2174 48.6511 93.5316 45.0985 102.571 44.1623C108.151 43.5795 113.074 45.1357 116.391 49.9593C117.619 51.7449 118.852 51.8069 120.582 51.0381C123.887 49.5687 127.229 48.0931 130.868 47.7645C135.096 47.3801 139.232 47.5971 141.693 51.9123C142.524 53.3631 143.702 52.9415 144.948 52.7803C148.197 52.3525 151.458 51.2923 154.719 52.6377C156.406 53.3321 157.888 54.4109 157.956 56.4073C158.018 58.2177 156.728 59.3957 155.432 60.4621C154.93 60.8775 154.31 61.1317 153.746 60.6667C152.996 60.0405 153.442 59.4267 153.864 58.7819C155.773 55.8555 155.222 54.6527 151.669 54.6465C144.384 54.6341 137.645 56.9901 131.209 60.1335C126.9 62.2353 122.659 64.5789 118.908 68.3609H118.896ZM75.843 54.7519C88.088 60.4249 99.868 65.2919 112.473 67.8897C114.184 68.2431 115.61 67.8339 117.011 66.6125C122.746 61.6215 129.225 57.8395 136.336 55.1239C137.483 54.6837 139.35 54.7457 139.095 52.8299C138.866 51.1249 137.235 50.7157 135.828 50.4305C134.631 50.1887 133.36 50.1825 132.133 50.2135C127.892 50.3437 124.135 52.1169 120.378 53.8219C118.164 54.8263 116.348 54.6961 115.114 52.4145C112.485 47.5475 108.015 46.1525 103.042 46.6299C93.7052 47.5227 85.205 51.4039 75.8554 54.7457L75.843 54.7519ZM107.488 85.6837C107.897 83.5943 108.108 82.0939 108.498 80.6431C108.926 79.0497 109.571 77.5245 110.03 75.9373C110.569 74.0711 113.167 72.4467 112.262 70.8595C111.35 69.2661 108.529 69.6443 106.564 69.1173C96.148 66.3273 86.2838 62.1175 76.4568 57.7899C74.5844 56.9653 72.7244 55.9113 70.542 56.7421C61.7566 60.1025 52.7728 61.1689 43.4914 59.1415C41.7306 58.7571 39.9636 59.2965 38.6306 60.6047C37.7998 61.4169 37.279 62.4833 37.8432 63.6985C38.4508 65.0067 39.5296 64.5541 40.5278 64.3309C43.045 63.7667 45.556 63.1715 48.0794 62.6445C65.3216 59.0485 81.3486 61.4479 95.559 72.4715C100.135 76.0241 103.917 80.3641 107.494 85.6837H107.488ZM67.4358 54.7333C62.1286 53.7289 56.8338 52.8795 51.539 57.3683C57.615 57.9263 62.5874 56.7855 67.4358 54.7333Z" fill="black"/>
<path d="M112.051 122.703C109.038 123.205 106.781 124.513 105.814 127.508C105.15 129.566 104.741 131.606 107.01 132.995C108.759 134.068 110.513 133.875 111.691 132.226C113.111 130.242 114.041 128.004 112.243 125.691C111.822 125.146 111.152 124.799 110.563 124.334C113.086 123.751 114.897 124.898 115.225 127.403C115.56 129.963 114.531 132.046 112.584 133.677C110.631 135.301 108.412 135.611 106.248 134.34C104.58 133.361 103.148 133.2 101.35 133.993C99.2728 134.911 96.9168 135.022 95.3482 133.107C93.6308 131.011 95.5032 129.287 96.5572 127.576C96.923 126.975 97.3508 126.411 97.7662 125.803C96.706 124.768 95.5156 125.307 94.4554 125.177C92.3908 124.923 91.4484 125.617 91.6778 127.923C91.901 130.174 91.2438 132.313 89.0304 133.441C87.065 134.44 85.4158 133.572 84.0704 132.09C83.314 131.259 82.9296 131.724 82.3282 132.27C81.5036 133.026 80.6294 133.801 79.6374 134.303C77.2938 135.487 74.944 135.314 73.0716 133.417C71.1992 131.519 72.0424 129.374 73.115 127.409C75.378 123.261 78.2424 122.691 82.8366 123.577C86.1288 124.21 85.8808 125.437 85.1616 127.706C84.988 128.246 85.1492 128.946 85.3042 129.529C85.6018 130.614 85.8622 132.003 87.1952 132.084C88.832 132.183 88.9312 130.614 89.266 129.461C89.4086 128.971 89.5078 128.45 89.5202 127.942C89.6194 123.844 89.607 123.881 93.606 123.769C96.0674 123.701 98.5598 124.092 100.996 123.36C101.48 123.211 102.075 123.156 102.36 123.707C102.677 124.321 102.131 124.637 101.74 124.941C100.345 126.026 99.0248 127.204 98.1568 128.748C97.5678 129.79 96.6006 130.899 97.3136 132.164C97.8964 133.2 99.0868 133.119 100.116 132.883C101.499 132.573 102.59 131.978 102.72 130.286C102.912 127.812 104.072 125.747 105.851 124.067C107.575 122.436 109.546 121.562 112.057 122.709L112.051 122.703ZM74.4418 130.906C74.51 132.592 75.3532 133.584 77.0768 133.652C79.0856 133.733 82.5204 129.777 82.2228 127.508C82.0182 125.958 81.3114 124.544 79.2902 124.588C77.1016 124.637 74.4108 128.116 74.4356 130.906H74.4418Z" fill="black"/>
<path d="M67.8026 125.835C64.5786 128.234 61.4662 129.933 57.616 129.604C56.1528 129.48 54.764 129.176 53.4744 128.494C51.1122 127.248 49.5746 125.357 49.6366 122.617C49.6986 119.734 51.4098 117.868 53.989 116.776C58.515 114.854 63.6176 116.169 66.792 120.031C67.1082 120.416 67.5918 121.16 67.7654 121.098C72.248 119.449 70.543 123.231 70.5306 124.626C70.481 129.685 69.8176 134.701 67.7778 139.413C66.0976 143.294 63.5184 146.22 59.2404 147.262C56.6302 147.9 54.2928 147.305 52.4762 145.303C50.7092 143.35 51.0812 141.074 51.9926 138.904C53.9146 134.329 57.7462 132.667 62.3838 132.493C67.8646 132.283 68.125 132.047 67.8088 125.847L67.8026 125.835ZM58.6328 128.147C62.421 128.11 65.6822 126.163 65.6078 123.987C65.4838 120.242 62.1482 117.229 58.1058 117.217C54.6214 117.204 52.0794 119.591 52.0546 122.89C52.0298 126.293 54.3982 128.184 58.6266 128.141L58.6328 128.147ZM63.3014 133.882C58.236 133.864 54.8198 136.133 53.7534 140.15C53.2946 141.893 53.5364 143.474 54.764 144.763C56.035 146.096 57.6284 146.171 59.3582 145.65C63.3262 144.447 64.8762 141.248 66.017 137.708C67.1082 134.341 66.7796 133.901 63.3014 133.888V133.882Z" fill="black"/>
<path d="M124.576 129.425C126.318 124.285 127.428 123.497 132.939 124.105C134.496 124.279 134.948 123.603 135.333 122.425C136.008 120.373 136.697 118.327 137.447 116.305C137.701 115.617 138.203 114.979 139.09 115.363C139.821 115.679 139.673 116.405 139.524 116.981C139.065 118.773 138.662 120.596 138.017 122.326C136.752 125.711 136.529 129.127 137.329 132.63C137.459 133.2 137.955 133.851 137.162 134.23C136.486 134.552 135.829 134.062 135.63 133.535C134.527 130.596 133.33 131.88 131.755 133.194C128.401 135.99 124.173 134.174 124.476 129.549L124.563 129.425H124.576ZM126.479 129.325C126.467 131.409 127.31 132.487 128.978 132.512C130.534 132.537 133.504 129.573 133.33 127.887C133.113 125.798 131.253 125.909 129.777 125.829C127.403 125.698 126.491 127.131 126.479 129.325Z" fill="black"/>
<path d="M124.49 129.549C123.77 130.906 123.219 132.382 121.96 133.374C120.565 134.471 119.04 134.887 117.372 133.988C115.785 133.132 115.32 131.688 115.667 130.051C116.008 128.451 116.56 126.895 117.068 125.333C117.267 124.713 117.719 124.179 118.426 124.359C119.437 124.613 119.17 125.469 118.996 126.139C118.593 127.726 117.763 129.201 117.887 130.913C117.942 131.657 118.035 132.413 118.829 132.698C119.604 132.977 120.255 132.518 120.739 131.979C122.282 130.255 122.537 128.135 122.58 125.928C122.599 125.103 122.202 123.77 123.64 123.838C124.868 123.9 124.75 125.153 124.769 126.039C124.787 127.168 124.651 128.296 124.583 129.425L124.496 129.549H124.49Z" fill="black"/>
</g>
<defs>
<clipPath id="clip0_4915_32055">
<rect width="192" height="192" fill="white"/>
</clipPath>
</defs>
</svg>
