<svg width="192" height="192" viewBox="0 0 192 192" fill="none" xmlns="http://www.w3.org/2000/svg">
<g clip-path="url(#clip0_4915_32006)">
<path d="M96 192C149.019 192 192 149.019 192 96C192 42.9807 149.019 0 96 0C42.9807 0 0 42.9807 0 96C0 149.019 42.9807 192 96 192Z" fill="white"/>
<path fill-rule="evenodd" clip-rule="evenodd" d="M54.3184 105.048C46.8957 103.941 41.4697 98.0155 39.2125 91.2004C36.4127 82.6925 38.8435 74.5535 42.62 67.847C51.2799 52.5023 73.0706 39.8923 75.2193 48.27C76.3913 52.8496 71.6816 54.3905 68.8818 56.0183C65.8432 57.7764 62.5659 60.077 60.5692 62.1171C50.9977 71.9056 60.4823 70.3429 64.0201 71.4933C81.8173 77.3099 76.8254 108.368 54.3184 105.048Z" fill="black"/>
<path fill-rule="evenodd" clip-rule="evenodd" d="M94.0677 105.872C85.0823 104.31 77.4642 96.3661 79.1571 85.3405C80.4594 76.8326 88.9239 68.585 99.4286 70.495C108.175 72.0794 115.815 80.175 114.035 91.1355C112.69 99.6 104.464 107.674 94.0677 105.872Z" fill="#BD3530"/>
<path fill-rule="evenodd" clip-rule="evenodd" d="M52.8456 145.916C44.4896 143.985 37.2188 135.281 39.7364 124.299C41.6898 115.77 50.5016 108.607 61.0497 111.082C69.0151 112.948 76.5898 121.673 74.1155 132.59C72.2056 140.838 63.741 148.434 52.8456 145.916Z" fill="#BD3530"/>
<path fill-rule="evenodd" clip-rule="evenodd" d="M133.9 105.872C124.936 104.396 117.448 96.648 118.902 85.6441C120.074 76.7455 128.669 68.6716 139.022 70.4513C148.072 72.014 155.3 80.1964 153.802 91.005C152.63 99.4912 144.166 107.587 133.9 105.872Z" fill="#BD3530"/>
<path fill-rule="evenodd" clip-rule="evenodd" d="M133.867 146.198C124.947 144.809 117.437 136.887 118.87 125.926C120.02 117.071 128.332 109.236 138.989 110.82C147.736 112.123 155.267 120.435 153.769 131.287C152.597 139.904 144.263 147.804 133.867 146.198Z" fill="#BD3530"/>
<path fill-rule="evenodd" clip-rule="evenodd" d="M94.2918 146.22C85.0242 144.983 77.9053 136.8 79.1642 125.818C80.1842 116.963 88.9092 109.171 99.5007 110.821C108.074 112.166 115.54 120.587 114.064 131.179C112.849 139.947 104.645 147.609 94.2918 146.22Z" fill="#BD3530"/>
</g>
<defs>
<clipPath id="clip0_4915_32006">
<rect width="192" height="192" fill="white"/>
</clipPath>
</defs>
</svg>
