<svg width="192" height="192" viewBox="0 0 192 192" fill="none" xmlns="http://www.w3.org/2000/svg">
<g clip-path="url(#clip0_4887_46668)">
<path d="M96 192C149.019 192 192 149.019 192 96C192 42.9807 149.019 0 96 0C42.9807 0 0 42.9807 0 96C0 149.019 42.9807 192 96 192Z" fill="white"/>
<path d="M147.784 103.006C153.324 105.016 158.684 107.466 163.914 110.136C167.564 111.996 169.154 115.146 168.244 117.676C167.304 120.306 163.964 121.596 159.844 120.606C153.064 118.986 146.524 116.476 139.634 115.286C119.834 111.836 100.134 111.736 80.6135 117.136C79.4335 117.466 78.2435 117.576 77.1035 117.796C77.3835 117.056 78.1835 116.936 78.8635 116.716C92.3135 112.396 106.034 109.806 120.244 110.226C133.144 110.596 145.604 113.216 157.814 117.216C159.644 117.816 161.504 118.256 163.444 117.976C165.694 117.646 166.254 116.286 164.864 114.516C163.754 113.106 162.184 112.326 160.584 111.596C156.124 109.576 151.654 107.576 147.194 105.566C147.384 104.716 147.574 103.866 147.764 103.016L147.784 103.006Z" fill="#EFAC1E"/>
<path d="M47.2841 108.956C41.7941 108.956 36.3141 108.996 30.8241 108.946C25.3841 108.896 23.5341 106.966 23.5641 101.546C23.5641 100.386 23.7241 99.2058 23.5641 98.0758C23.2441 95.9558 24.2641 95.5658 26.0941 95.6558C27.1941 95.7058 27.5641 96.0358 27.4841 97.1058C27.3941 98.3458 27.4041 99.5858 27.4141 100.826C27.4441 104.806 28.1741 105.516 32.2941 105.536C37.5341 105.556 42.7641 105.556 48.0041 105.566C52.9941 105.566 57.9841 105.606 62.9641 105.566C66.3541 105.546 67.2241 104.646 67.2841 101.266C67.3041 100.186 67.3141 99.1158 67.2741 98.0358C67.2241 96.7258 67.1141 95.6858 69.1041 95.7158C70.8941 95.7358 71.1741 96.4258 71.0741 97.9158C70.9741 99.3958 71.0741 100.896 71.0441 102.386C70.9941 106.896 69.1141 108.886 64.5041 108.956C58.7741 109.046 53.0341 108.976 47.2941 108.976C47.2941 108.966 47.2941 108.956 47.2941 108.946L47.2841 108.956Z" fill="#262626"/>
<path d="M143.534 103.756C138.014 101.786 132.794 99.1157 127.434 96.7757C126.684 96.4457 126.004 95.9257 125.114 96.0057L125.064 95.9957C122.574 92.7957 122.664 92.2057 125.924 89.4857C127.134 88.4757 128.364 87.4757 129.414 86.3157C132.104 83.3657 132.344 80.2857 130.254 77.2957C128.194 74.3557 124.284 73.1357 120.984 74.3957C117.884 75.5857 115.934 78.9357 116.154 82.3357C116.194 83.0257 117.614 84.2657 115.684 84.6057C113.964 84.9157 113.564 83.8457 113.404 82.4657C112.884 78.1057 115.684 73.4757 119.914 71.7657C124.134 70.0657 129.464 71.5357 132.244 75.1857C135.274 79.1657 135.284 83.6557 132.114 87.4857C131.014 88.8157 129.694 89.9757 128.394 91.1357C126.364 92.9357 126.344 93.2057 128.904 94.3657C133.964 96.6657 139.044 98.8857 144.124 101.146C144.304 102.096 144.104 102.966 143.534 103.746V103.756Z" fill="#EFAC1E"/>
<path d="M125.065 95.9959L125.115 96.0059C125.685 98.9459 125.545 101.926 125.195 104.856C124.905 107.276 123.075 108.616 120.765 108.906C117.475 109.316 114.125 109.366 110.835 108.906C108.045 108.516 106.405 106.646 106.345 103.796C106.225 97.8459 106.335 91.8959 106.245 85.9559C106.215 84.2459 107.305 84.6859 108.215 84.6359C109.245 84.5759 110.145 84.4859 110.115 86.0659C110.015 91.0259 110.035 95.9759 110.045 100.936C110.045 104.696 110.995 105.636 114.715 105.746C121.205 105.936 121.665 105.496 121.635 99.0759C121.628 97.0359 122.771 96.0126 125.065 96.0059V95.9959Z" fill="#262626"/>
<path d="M143.534 103.756C144.104 102.976 144.294 102.106 144.124 101.156C144.144 96.3656 144.184 91.5756 144.184 86.7856C144.184 85.4956 144.004 84.4956 146.004 84.4956C148.144 84.4956 147.704 85.7256 147.704 86.8956C147.734 92.2656 147.754 97.6356 147.774 103.016C147.584 103.866 147.394 104.716 147.204 105.566C145.944 107.896 143.874 108.956 141.324 109.006C136.444 109.106 131.564 109.046 126.684 109.156C125.364 109.186 125.244 108.606 125.224 107.536C125.204 106.396 125.494 105.956 126.734 105.976C130.704 106.036 134.674 106.046 138.644 105.926C140.504 105.876 142.524 105.876 143.524 103.766L143.534 103.756Z" fill="#262626"/>
<path d="M81.9338 105.476C80.0138 108.636 77.0438 109.356 73.5838 109.186C72.2738 109.126 72.1038 108.586 72.1438 107.526C72.1838 106.576 72.1038 105.886 73.4838 105.736C77.9238 105.276 78.0238 105.066 78.0238 100.516C78.0238 99.7758 78.0838 99.0258 78.0038 98.2958C77.8338 96.7458 78.0938 95.9458 80.0338 95.9458C81.9238 95.9458 81.9438 96.8158 81.9038 98.1858C81.8338 100.636 81.8738 103.076 81.8738 105.526L81.9238 105.476H81.9338Z" fill="#262626"/>
<path d="M101.894 100.596C101.894 101.176 101.894 101.756 101.894 102.336C101.854 107.556 98.2739 110.296 93.0839 109.186C91.6939 108.886 92.3439 107.946 92.2339 107.256C92.1139 106.476 92.2239 105.946 93.3239 105.786C98.0639 105.086 98.0639 105.026 98.0539 100.186C98.0539 99.6056 98.0739 99.0256 98.0439 98.4456C97.9739 97.0756 97.8139 95.9656 99.9539 95.9556C102.024 95.9556 102.014 96.9356 101.904 98.3656C101.844 99.1056 101.904 99.8556 101.894 100.606V100.596Z" fill="#262626"/>
<path d="M81.8834 105.526C86.3734 106.446 87.9134 105.266 87.9234 100.906C87.9234 100.076 87.9434 99.2558 87.9134 98.4258C87.8634 97.0858 87.6434 95.9358 89.8034 95.9558C91.8134 95.9758 91.9134 96.8658 91.8034 98.3558C91.6534 100.496 92.0134 102.656 91.5434 104.786C90.8134 108.106 85.4334 110.746 82.5134 109.066C81.1634 108.286 82.4734 106.636 81.9334 105.486L81.8834 105.536V105.526Z" fill="#262626"/>
<path d="M44.8346 95.6058C46.3046 95.2658 46.5946 95.8858 46.6146 97.1558C46.6246 98.5258 46.2546 99.0058 44.8146 98.9958C43.4046 98.9958 43.0146 98.5658 42.9946 97.1658C42.9746 95.5858 43.6646 95.3358 44.8346 95.6158V95.6058Z" fill="#262626"/>
<path d="M52.4545 97.2756C52.8345 99.0156 51.7345 98.8756 50.5745 98.9756C48.9045 99.1056 49.0245 98.1556 48.9345 96.9956C48.8145 95.4356 49.7245 95.5756 50.7645 95.5156C52.1645 95.4256 52.8145 95.8656 52.4545 97.2756Z" fill="#262626"/>
<path d="M116.133 116.066C117.843 115.616 117.923 116.546 117.963 117.806C118.003 119.156 117.503 119.446 116.243 119.446C114.933 119.446 114.313 119.216 114.353 117.706C114.393 116.296 114.753 115.646 116.133 116.076V116.066Z" fill="#262626"/>
</g>
<defs>
<clipPath id="clip0_4887_46668">
<rect width="192" height="192" fill="white"/>
</clipPath>
</defs>
</svg>
