<svg width="192" height="192" viewBox="0 0 192 192" fill="none" xmlns="http://www.w3.org/2000/svg">
<g clip-path="url(#clip0_5165_48775)">
<path d="M96 192C149.019 192 192 149.019 192 96C192 42.9807 149.019 0 96 0C42.9807 0 0 42.9807 0 96C0 149.019 42.9807 192 96 192Z" fill="white"/>
<path d="M78.1623 125.476C75.6064 125.476 73.0504 125.569 70.4945 125.476C69.2165 125.429 68.8269 125.741 68.8425 127.097C68.9048 133.253 68.7957 139.424 68.8736 145.596C68.8892 147.061 68.4529 147.341 67.1126 147.279C63.6839 147.154 60.2707 147.17 56.842 147.123C56.1563 145.3 56.546 144.957 58.9305 145.3C61.0812 144.91 63.2475 145.128 65.4138 145.175C66.6917 145.191 66.9411 144.77 66.9411 143.601C66.91 137.071 66.9567 130.541 66.9879 124.011C67.1905 123.465 67.6892 123.59 68.0944 123.559C71.0088 123.325 73.9232 123.496 76.8532 123.465C77.5545 123.465 78.1623 123.808 78.6299 124.354C79.2844 125.071 78.7078 125.258 78.1623 125.476Z" fill="#020202"/>
<path d="M146.255 124.509C146.255 125.787 145.475 125.506 144.79 125.506C140.551 125.506 136.311 125.538 132.072 125.475C130.935 125.46 130.436 125.647 130.498 126.971C130.685 130.696 130.249 134.437 130.904 138.146C130.327 139.05 129.672 138.255 129.049 138.224C128.613 137.413 128.613 136.525 128.613 135.668C128.597 129.247 128.613 122.841 128.613 116.42C128.597 115.688 128.41 114.955 129.657 115.002C130.857 115.049 130.514 115.813 130.514 116.405C130.545 118.088 130.654 119.787 130.498 121.439C130.327 123.091 130.966 123.356 132.462 123.324C136.561 123.215 140.675 123.309 144.79 123.278C145.709 123.262 146.255 123.293 146.255 124.509Z" fill="#010101"/>
<path d="M27.6834 146.063C23.8183 143.881 21.4494 140.764 21.2935 136.197C21.0442 135.527 21.1377 134.842 21.1377 134.156C21.1377 125.74 21.1533 117.34 21.1221 108.924C21.1221 108.363 21.4805 107.677 20.7948 107.225C19.8285 107.256 18.8467 107.209 17.896 107.334C16.244 107.521 15.6518 106.944 16.1972 105.324C17.0544 105.199 17.9272 105.137 18.7999 105.105C19.1895 105.09 19.5636 105.09 19.9532 105.09C19.9688 105.09 19.9844 105.09 19.9844 105.09C20.2649 105.074 20.5454 105.074 20.826 105.074C20.8416 105.074 20.8416 105.074 20.8572 105.074H20.8727C21.2468 105.074 21.6052 105.074 21.9792 105.09C22.1507 105.09 22.3221 105.105 22.4936 105.168C22.6027 105.183 22.7118 105.246 22.8209 105.308C23.491 106.025 23.0079 106.929 23.1637 107.739C23.0702 108.129 22.9923 108.519 22.9923 108.924C23.0079 117.823 22.9923 126.722 22.9923 135.621C22.9923 135.87 23.0235 136.104 23.1325 136.338C23.865 139.33 25.2989 141.87 27.7613 143.787C26.5768 144.504 27.9951 145.315 27.6834 146.063Z" fill="#080808"/>
<path d="M120.133 146.327C120.102 147.683 119.198 147.231 118.575 147.247C114.959 147.278 111.328 147.044 107.743 147.293C99.4054 147.901 93.3429 138.862 95.9924 131.693C96.117 131.365 95.9768 130.929 96.3508 130.695C97.0833 130.306 97.6911 130.352 98.0963 131.147C96.6157 134.95 97.8626 140.015 100.948 142.711C101.556 143.132 102.164 143.568 102.772 144.005C104.408 145.096 106.294 145.096 108.149 145.111C111.64 145.143 115.131 145.143 118.622 145.111C119.494 145.111 120.165 145.08 120.133 146.327Z" fill="#040404"/>
<path d="M175.316 138.861C175.051 139.391 174.77 139.921 174.505 140.451C174.568 140.482 174.615 140.529 174.646 140.56C174.615 140.591 174.568 140.607 174.521 140.623C174.521 140.623 174.506 140.638 174.49 140.638C173.617 140.934 172.651 141.745 172.074 140.373L172.37 140.077C172.09 139.173 173.056 138.893 173.305 138.222C174.755 134.482 173.664 129.729 170.531 126.596C167.726 123.806 163.284 123.089 159.388 124.804C159.326 124.897 159.248 124.991 159.185 125.069H159.17C158.936 125.115 158.718 125.209 158.531 125.412C158.531 125.412 158.531 125.412 158.515 125.412C158.406 125.427 158.282 125.443 158.157 125.443C156.785 125.957 156.318 127.438 155.227 128.248C155.009 128.186 154.853 128.061 154.744 127.89C154.713 127.858 154.681 127.827 154.666 127.796C154.666 127.781 154.65 127.781 154.65 127.765C154.588 127.142 154.448 126.503 154.806 125.895C157.549 122.232 161.399 121.235 165.653 121.827C170.095 122.466 173.134 125.147 174.895 129.261C176.235 132.394 176.329 135.604 175.316 138.861Z" fill="#040404"/>
<path d="M92.5007 147.277C90.7396 147.074 88.3551 148.04 87.342 146.887C86.4693 145.905 87.0771 143.583 87.0615 141.853C87.0459 140.123 86.9992 138.378 87.0771 136.632C87.3109 131.411 84.4121 126.362 78.1625 125.473C78.7392 123.993 77.4144 123.697 76.6819 123.712C73.7831 123.79 70.8376 123.12 67.9699 124.04C67.705 124.133 67.3309 123.728 66.9881 124.008C66.8946 123.556 67.0348 123.307 67.5335 123.323C72.3181 123.541 77.1495 122.73 81.8717 124.055C82.3237 124.32 82.7757 124.569 83.2276 124.819C83.5082 125.286 83.9289 125.551 84.4744 125.614C84.7394 125.832 84.9887 126.034 85.2537 126.253C87.1083 128.668 89.0252 131.068 89.0408 134.341C89.3525 137.411 89.1499 140.497 89.1499 143.583C89.1499 144.643 89.3369 145.188 90.3655 145.188C90.3655 145.188 90.3655 145.188 90.3811 145.188C90.4746 145.188 90.5682 145.188 90.6773 145.173C91.098 145.126 91.5032 145.095 91.924 145.095C92.6565 145.095 93.4046 145.142 94.1371 145.329C94.7294 146.918 94.0903 147.448 92.5007 147.277Z" fill="#040404"/>
<path d="M120.118 124.275C120.072 129.355 120.072 134.452 120.056 139.548C120.056 139.704 119.885 139.875 119.791 140.031C119.744 140 119.682 139.984 119.62 139.969C119.588 139.953 119.542 139.937 119.511 139.937H119.495C119.448 139.922 119.401 139.922 119.355 139.922H119.246C118.466 139.86 117.516 140.093 117.749 138.597C117.765 134.623 117.796 130.649 117.812 126.675C117.812 126.16 117.983 125.49 117.064 125.537C112.326 125.802 107.526 124.882 102.835 126.254C101.868 126.675 101.962 126.067 102.118 125.475C102.289 124.882 102.928 124.617 103.209 124.072C104.409 123.495 105.702 123.339 107.011 123.324C110.923 123.308 114.835 123.324 118.747 123.324C119.417 123.324 120.118 123.152 120.118 124.275Z" fill="#020202"/>
<path d="M169.649 145.873C169.649 145.873 169.649 145.873 169.633 145.889C169.462 145.998 169.259 146.076 169.01 146.06C168.62 146.294 168.231 146.544 167.841 146.793C165.566 147.214 163.29 147.557 160.999 146.996C154.22 145.375 150.292 138.533 151.929 131.208C152.116 130.382 152.209 129.509 152.786 128.823C153.378 128.418 153.955 127.982 154.672 127.795C154.718 127.764 154.765 127.764 154.812 127.748C154.952 127.919 155.092 128.075 155.233 128.247C154.75 129.992 153.659 131.457 153.581 133.437C153.3 142.398 160.843 147.557 168.963 143.801C168.947 143.723 168.932 143.629 168.948 143.567H168.963C169.01 143.582 169.041 143.598 169.072 143.614C170.397 144.175 170.21 145.001 169.649 145.873Z" fill="#040404"/>
<path d="M58.9312 145.3C57.6376 145.237 56.531 145.362 56.8427 147.123C51.6529 146.843 46.6969 140.64 47.0866 136.182C46.7437 133.019 47.0242 129.839 46.9463 126.676C46.9307 125.772 46.9307 124.93 45.6216 125.46C44.9514 125.491 44.2813 125.46 43.6111 125.553C42.0526 125.756 41.476 125.179 41.9591 123.637C43.9228 123.247 45.9021 123.559 47.8658 123.449C48.9723 123.403 48.7853 124.198 48.8009 124.852C48.8009 128.078 48.7853 131.289 48.8009 134.499C48.8009 134.998 48.723 135.512 48.8321 135.995C48.8477 136.105 48.8788 136.229 48.9256 136.338C49.0814 138.396 50.2035 140.001 51.3568 141.575C52.1828 142.759 53.2893 143.585 54.5985 144.131C55.892 145.081 57.4973 144.832 58.9312 145.3Z" fill="#060606"/>
<path d="M144.425 147.278C142.228 147.029 140.03 147.403 137.786 146.935C132.908 145.891 130.227 142.852 129.043 138.223C129.635 137.694 130.29 138.566 130.898 138.146C131.661 139.688 132.394 141.247 133.796 142.353C134.046 142.868 134.513 143.133 134.996 143.366C135.791 144.566 137.241 144.426 138.363 145.003C140.249 145.299 142.165 145.05 144.067 145.143H144.41C144.971 145.128 145.532 145.034 146.062 145.33C146.607 146.904 146.031 147.45 144.425 147.278Z" fill="#060606"/>
<path d="M42.8691 146.201C42.8691 147.37 42.2769 147.323 41.4509 147.323C38.3495 147.276 35.2325 147.292 32.1155 147.245C30.5414 147.229 29.0609 146.855 27.6894 146.061C27.5024 145.811 27.3465 145.546 27.1283 145.328C26.0374 144.284 26.7855 143.988 27.7673 143.785C29.5128 145.048 31.57 145.048 33.5805 145.11C36.1988 145.172 38.8171 145.125 41.4197 145.11C42.199 145.11 42.8691 145.001 42.8691 146.201Z" fill="#060606"/>
<path d="M102.831 126.254C100.68 127.345 99.1218 128.997 98.0932 131.148C97.5165 131.008 96.9399 130.852 96.3477 130.696C97.8282 127.657 99.8231 125.148 103.205 124.072C103.299 124.68 102.909 125.023 102.55 125.428C102.239 125.787 102.161 126.176 102.831 126.254Z" fill="#090909"/>
<path d="M174.648 140.561C174.664 140.592 174.679 140.639 174.648 140.67C174.601 140.748 174.555 140.779 174.508 140.779C174.196 140.92 174.196 141.185 174.196 141.45C173.822 141.98 173.448 142.494 173.074 143.024V143.039C172.716 143.444 172.373 143.819 172.014 144.208C171.531 144.286 171.219 144.629 170.908 144.956C170.674 144.941 170.534 145.034 170.487 145.268C170.175 145.408 169.941 145.673 169.645 145.876C169.645 145.876 169.645 145.876 169.63 145.891C169.458 146 169.256 146.078 169.006 146.063C169.474 145.299 170.393 144.52 168.96 143.803C168.944 143.725 168.928 143.631 168.944 143.569H168.96C169.006 143.585 169.037 143.6 169.069 143.616C169.318 143.18 169.583 142.774 170.128 142.618C170.674 142.291 171.297 142.011 171.266 141.2C171.547 140.92 171.812 140.655 172.077 140.374L172.373 140.078C172.825 141.652 173.838 140.094 174.508 140.452C174.57 140.483 174.617 140.53 174.648 140.561Z" fill="#0A0A0A"/>
<path d="M23.2091 107.941C23.178 117.401 23.1624 126.876 23.1312 136.336C22.6325 135.822 22.8195 135.167 22.8195 134.56V105.307C23.4897 106.024 23.0065 106.927 23.1624 107.738C23.1624 107.816 23.1935 107.878 23.2091 107.941Z" fill="#080808"/>
<path d="M21.3073 108.859C21.3229 117.961 21.3073 127.078 21.2917 136.195C20.8709 135.509 21.0579 134.73 21.0579 134.013C21.0423 125.753 21.0579 117.493 21.0423 109.233C21.0423 108.547 21.1826 107.846 20.793 107.223C21.5722 107.581 21.3073 108.282 21.3073 108.859Z" fill="#080808"/>
<path d="M48.9274 124.788C48.943 128.638 48.9274 132.487 48.9274 136.337C48.8807 136.228 48.8495 136.103 48.8339 135.994C48.304 134.124 48.7404 132.207 48.6313 130.305C48.5534 128.591 48.569 126.861 48.6313 125.131C48.6781 124.009 48.304 123.573 47.1507 123.619C45.4208 123.697 43.6909 123.635 41.9609 123.635C44.0493 122.918 46.1845 123.432 48.304 123.354C49.2859 123.323 48.9118 124.258 48.9274 124.788Z" fill="#070707"/>
<path d="M20.5742 104.979C20.6677 105.025 20.7612 105.056 20.8703 105.072C20.8548 105.088 20.8392 105.072 20.8236 105.072C20.7301 105.056 20.6521 105.025 20.5742 104.979Z" fill="#FBFBFB"/>
<path d="M22.4919 105.168C22.4452 105.168 22.3984 105.168 22.3517 105.152C22.0555 105.105 21.7438 105.121 21.4477 105.121H21.2763C21.1516 105.121 21.0269 105.105 20.9178 105.09C20.9023 105.09 20.8867 105.09 20.8711 105.074C21.2451 105.074 21.6036 105.074 21.9776 105.09C22.149 105.09 22.3205 105.105 22.4919 105.168Z" fill="#FBFBFB"/>
<path d="M94.1386 145.329C92.6113 145.345 91.0839 145.376 89.5722 145.407C88.6994 145.407 89.0112 144.721 89.0112 144.332C88.9956 140.997 89.0267 137.677 89.0423 134.342C89.5566 137.163 89.2605 139.999 89.2138 142.82C89.1826 144.192 89.3696 145.002 90.367 145.189C90.367 145.189 90.3671 145.189 90.3826 145.189C90.6788 145.236 91.0372 145.236 91.4892 145.173C91.6294 145.158 91.7853 145.127 91.9255 145.095C92.6424 144.971 93.4373 144.846 94.1386 145.329Z" fill="#060606"/>
<path d="M47.1172 126.424C47.1172 129.682 47.1017 132.923 47.0861 136.18C46.5406 133.11 46.9458 130.009 46.8835 126.923C46.8523 125.957 46.7432 125.349 45.6211 125.458C46.9458 124.507 47.1172 125.333 47.1172 126.424Z" fill="#070707"/>
<path d="M154.807 127.749C154.792 127.796 154.776 127.843 154.745 127.889C154.371 128.731 153.529 128.684 152.781 128.825C153.28 127.718 153.732 126.596 154.807 125.895C154.994 126.518 154.963 127.126 154.807 127.749Z" fill="#070707"/>
<path d="M146.066 145.329C143.495 145.127 140.908 145.719 138.367 145.002C140.378 145.251 142.404 145.018 144.414 145.142C144.96 145.158 145.521 145.22 146.066 145.329Z" fill="#070707"/>
<path d="M22.8189 105.306C20.6059 105.306 18.4084 105.321 16.1953 105.321C17.0369 104.994 17.9252 105.072 18.798 105.103C19.1876 105.119 19.5773 105.134 19.9513 105.088C19.9669 105.088 19.9825 105.088 19.9825 105.088C20.1851 105.072 20.3877 105.025 20.5747 104.979C20.6682 105.025 20.7461 105.056 20.8552 105.072H20.8708C20.8864 105.088 20.902 105.088 20.9176 105.088C21.0267 105.103 21.1513 105.119 21.276 105.119H21.4474C21.6189 105.103 21.8059 105.088 21.9773 105.088C22.1488 105.088 22.3202 105.103 22.4916 105.166C22.6007 105.181 22.7098 105.243 22.8189 105.306Z" fill="#141414"/>
<path d="M174.648 140.56C174.664 140.591 174.679 140.638 174.648 140.669C174.601 140.747 174.555 140.778 174.508 140.778C174.523 140.732 174.523 140.685 174.523 140.623C174.523 140.576 174.523 140.514 174.508 140.451C174.57 140.482 174.617 140.529 174.648 140.56Z" fill="#F5F5F5"/>
<path d="M159.391 124.805C159.329 124.898 159.251 124.992 159.189 125.07H159.173C159.002 125.241 158.784 125.35 158.534 125.412C158.534 125.412 158.534 125.412 158.519 125.412C158.41 125.428 158.285 125.444 158.16 125.444C158.519 125.116 158.924 124.898 159.391 124.805Z" fill="#FEFEFE"/>
<path d="M169.069 143.613C169.022 143.675 168.991 143.738 168.96 143.8C168.944 143.722 168.928 143.629 168.944 143.566H168.96C169.006 143.582 169.037 143.598 169.069 143.613Z" fill="#FEFEFE"/>
<path d="M159.391 124.803C159.329 124.897 159.251 124.99 159.189 125.068H159.173C159.002 125.24 158.784 125.349 158.534 125.411C158.534 125.411 158.534 125.411 158.519 125.411C158.41 125.427 158.285 125.442 158.16 125.442C158.238 124.585 158.659 124.414 159.391 124.803Z" fill="#070707"/>
<path d="M139.398 67.8201V69.363C127.242 76.3451 115.07 83.296 102.929 90.3092C100.264 91.8521 97.7547 93.7379 94.4196 92.3352C81.9048 83.9038 68.642 76.7191 55.4727 69.363V67.8201C63.0937 56.4119 74.2837 49.7415 86.5491 44.5361H106.763C120.072 48.8999 131.122 56.4119 139.398 67.8201Z" fill="#FEFE00"/>
</g>
<defs>
<clipPath id="clip0_5165_48775">
<rect width="192" height="192" fill="white"/>
</clipPath>
</defs>
</svg>
