<svg width="192" height="192" viewBox="0 0 192 192" fill="none" xmlns="http://www.w3.org/2000/svg">
<g clip-path="url(#clip0_4887_46620)">
<path d="M96 192C149.019 192 192 149.019 192 96C192 42.9807 149.019 0 96 0C42.9807 0 0 42.9807 0 96C0 149.019 42.9807 192 96 192Z" fill="#FACA0B"/>
<path d="M96.0009 181.224C143.069 181.224 181.225 143.068 181.225 96.0004C181.225 48.9327 143.069 10.7769 96.0009 10.7769C48.9332 10.7769 10.7773 48.9327 10.7773 96.0004C10.7773 143.068 48.9332 181.224 96.0009 181.224Z" fill="#3A3082"/>
<path d="M45.7107 56.8026C47.906 53.5332 50.8226 52.2239 54.5545 52.7923C58.2355 53.3529 60.4465 55.5795 61.1286 59.2683C61.7166 62.4476 61.4226 65.6503 61.454 68.8413C61.4971 73.0868 61.3991 77.3323 61.454 81.5739C61.4696 82.7695 61.1364 83.1811 59.9133 83.1223C57.9572 83.0243 55.9893 83.0008 54.0371 83.1262C52.6494 83.2164 52.4651 82.6323 52.4769 81.4445C52.5396 75.6976 52.5239 69.9507 52.5317 64.2038C52.5317 63.6158 52.52 63.0277 52.4808 62.4436C52.4494 61.9497 52.2534 61.5655 51.6811 61.5106C51.1166 61.4558 50.6971 61.593 50.3757 62.1339C50.0072 62.7533 50.1169 63.4002 50.113 64.0352C50.0934 69.8488 50.0581 75.6584 50.1091 81.4719C50.1209 82.7225 49.7994 83.1968 48.4862 83.1262C46.534 83.0165 44.566 83.0165 42.6099 83.1262C41.3555 83.1968 41.0967 82.7499 41.1124 81.5778C41.183 75.8309 41.1673 70.084 41.1791 64.3371C41.1791 63.749 41.1673 63.161 41.1477 62.573C41.1281 61.9967 40.9203 61.5459 40.2774 61.4675C39.5953 61.3813 39.0857 61.6949 38.9289 62.326C38.776 62.9454 38.7643 63.6118 38.7643 64.2587C38.7447 70.0056 38.7015 75.7525 38.7643 81.4994C38.7799 82.8165 38.3526 83.1889 37.0982 83.1223C35.7458 83.0517 33.9582 82.6872 33.1546 83.3732C32.4411 83.9847 33.4407 85.7645 33.672 87.0228C35.6634 97.8189 37.7019 108.607 39.7208 119.399C39.8619 120.164 39.9834 120.928 40.1363 121.81C42.3629 120.708 44.4916 119.517 46.726 118.576C56.5381 114.448 66.4835 113.68 76.5778 117.576C79.3533 118.646 81.8543 120.187 83.9476 122.265C85.4295 123.739 86.8289 123.696 88.1735 122.394C89.6867 120.928 91.4547 120.658 93.3991 120.732C95.9393 120.83 98.4835 120.595 101.028 120.932C102.443 121.12 103.607 121.543 104.626 122.629C105.744 123.821 106.763 124.115 108.354 122.7C115.25 116.573 123.588 114.871 132.557 115.436C138.994 115.844 144.851 118.082 150.425 121.163C151.817 121.932 152.221 121.83 152.55 120.062C154.733 108.246 157.082 96.4586 159.414 84.6708C159.618 83.6476 159.296 83.4751 158.367 83.4477C157.093 83.4124 155.361 84.0945 154.663 83.1301C154.036 82.2638 154.447 80.6252 154.447 79.3276C154.447 71.4247 154.51 63.5256 154.432 55.6226C154.416 54.035 154.89 53.6038 156.403 53.7135C158.289 53.8507 160.19 53.8115 162.084 53.7566C163.083 53.7292 163.444 54.0193 163.436 55.0738C163.381 64.1489 163.342 73.2279 163.397 82.303C163.405 83.6006 162.499 83.7299 161.841 83.7848C160.759 83.875 160.445 84.2983 160.261 85.2941C158.03 97.172 155.788 109.05 153.432 120.901C153.165 122.249 153.55 122.676 154.647 122.963C156.215 123.378 157.764 123.923 159.355 124.186C160.868 124.437 161.174 125.366 161.343 126.636C161.519 127.957 160.625 128.204 159.735 128.38C157.27 128.858 156.333 130.615 156.011 132.814C155.894 133.61 155.729 134.119 154.894 134.386C153.726 134.758 153.8 135.973 153.691 136.832C153.009 142.293 150.366 146.817 146.928 150.897C143.82 154.59 139.598 156.448 134.921 157.311C127.026 158.769 119.766 157.303 113.349 152.36C109.593 149.467 107.531 145.499 106.139 141.015C105.152 137.824 104.505 134.794 105.873 131.579C106.32 130.528 106.073 129.384 105.473 128.384C104.912 127.455 103.627 126.687 105.01 125.428C105.273 125.189 105.018 124.77 104.701 124.636C103.137 123.978 101.953 122.496 100.102 122.465C97.7543 122.422 95.3983 122.465 93.0541 122.371C91.0078 122.292 89.5573 123.57 87.907 124.417C87.4718 124.64 87.2562 124.962 87.6482 125.311C88.9458 126.463 87.856 127.181 87.3542 128.196C86.3115 130.313 86.7897 132.547 87.6796 134.609C88.0873 135.554 88.0912 136.271 87.6522 137.157C87.2249 138.024 86.8799 138.957 86.6604 139.898C84.5239 148.984 77.3736 155.578 68.3024 157.162C54.041 159.651 41.8259 151.897 38.8427 136.389C38.6231 135.256 38.5839 134.092 37.1335 133.649C36.6356 133.496 36.3769 132.724 36.4592 132.124C36.7611 129.921 35.4361 128.827 33.6681 128.223C32.4921 127.824 32.104 127.028 31.7982 126.008C31.5159 125.068 31.61 124.397 32.7116 124.076C34.1463 123.66 35.5223 123.029 36.9728 122.696C38.6467 122.312 39.168 121.61 38.8113 119.803C36.863 109.983 35.0597 100.14 33.1977 90.304C32.8841 88.6458 32.5156 86.9993 32.202 85.3411C31.9864 84.1847 32.2843 82.7068 30.2419 83.0047C29.599 83.0988 29.7989 82.3304 29.7989 81.9306C29.8107 75.0076 29.7636 68.0847 29.9009 61.1657C29.9793 57.1789 32.4333 53.9762 35.7771 52.9844C39.7717 51.7966 42.853 52.9413 45.7225 56.7869L45.7107 56.8026ZM131.577 118.349C127.955 118.262 124.427 118.909 121.02 120.03C116.085 121.657 111.89 124.346 109.268 129.066C108.476 130.493 108.307 132.018 108.139 133.567C108.005 134.794 109.26 135.048 109.758 135.821C110.405 136.82 111.047 138.035 109.28 138.623C108.127 139.008 108.648 139.69 108.821 140.329C111.914 151.803 125.274 157.373 135.921 154.104C143.832 151.674 148.422 146.029 150.747 138.341C153.702 128.557 148.932 122.99 141.711 120.136C138.484 118.862 135.078 118.247 131.577 118.345V118.349ZM60.9443 118.18C57.2908 118.066 53.0492 118.631 49.1252 120.646C45.2129 122.653 41.8964 125.515 41.2535 129.991C40.4303 135.719 41.8964 141.172 45.452 145.829C50.6422 152.626 57.7102 155.057 66.0915 154.492C74.1316 153.951 81.9954 147.601 83.9398 139.819C84.0496 139.384 84.2456 139.066 83.7203 138.655C81.9445 137.259 81.8974 136.393 83.6615 135.052C84.4925 134.417 84.5631 133.868 84.4455 132.92C83.9241 128.694 81.7249 125.491 78.4046 123.061C73.4339 119.423 67.7222 118.129 60.9443 118.176V118.18Z" fill="#FEFEFD"/>
<path d="M121.853 68.6807C121.853 64.1764 121.846 59.6761 121.861 55.1719C121.861 54.5172 121.575 53.6548 122.798 53.7058C128.384 53.9371 134.033 53.1099 139.553 54.5016C146.621 56.2813 150.674 61.844 150.31 69.0413C149.906 77.0658 144.382 82.8872 137.052 83.4752C133.712 83.7444 132.044 82.2142 132.05 78.8848C132.05 77.646 131.677 76.1759 132.214 75.2351C132.775 74.2512 134.37 74.9764 135.499 74.7686C140.149 73.914 142.607 69.2491 140.47 65.1329C139.749 63.7413 138.439 62.9769 136.891 62.6633C136.573 62.5966 136.268 62.4673 135.946 62.4124C130.995 61.5304 130.599 61.844 130.568 66.7872C130.536 71.8128 130.482 76.8384 130.533 81.8601C130.544 83.1107 130.25 83.5889 128.925 83.5066C127.106 83.3929 125.268 83.3929 123.445 83.5066C122.096 83.5889 121.665 83.2008 121.693 81.8013C121.787 77.4304 121.728 73.0594 121.728 68.6846H121.853V68.6807Z" fill="#FEFEFD"/>
<path d="M87.7921 71.5777C87.7921 74.9059 87.749 78.2341 87.8156 81.5622C87.8392 82.7696 87.5961 83.3302 86.2319 83.2283C84.413 83.095 82.5744 83.0872 80.7555 83.1695C79.4383 83.2283 78.9718 82.9069 79.0071 81.4642C79.1365 76.1172 79.1129 70.7662 79.1325 65.4152C79.1325 64.7018 79.1169 63.9766 79.0032 63.2749C78.8268 62.2125 78.3211 61.4442 77.0627 61.5304C75.8632 61.6127 75.3104 62.3732 75.2085 63.4356C75.087 64.7331 75.1301 66.0425 75.0674 67.3439C75.0321 68.03 75.33 68.3436 75.9847 68.2299C77.5292 67.9633 77.6625 68.8258 77.5998 70.041C77.5175 71.6012 77.5292 73.1732 77.5919 74.7373C77.6311 75.7017 77.4038 76.2662 76.314 76.0976C75.0674 75.9055 75.0047 76.6542 74.9537 77.6186C74.8596 79.4101 75.7691 81.8053 74.5186 82.8206C73.4444 83.6909 71.1512 83.0872 69.3989 83.095C66.1648 83.1107 66.1687 83.095 66.1765 79.8217C66.1922 74.6667 66.1883 69.5118 66.2196 64.3568C66.2784 55.1053 74.6636 49.8406 83.0488 53.8195C86.2005 55.317 87.5334 58.1316 87.7215 61.405C87.9176 64.788 87.7647 68.1868 87.7647 71.5816H87.7921V71.5777Z" fill="#FEFEFD"/>
<path d="M101.856 65.1954C101.636 68.5118 102.216 72.4437 101.487 76.3246C100.554 81.2914 96.4578 84.4079 91.7262 83.9218C90.4522 83.7925 89.8367 83.3808 89.9386 81.997C90.0523 80.5035 89.9778 78.9981 90.0053 77.4967C90.0249 76.3442 89.5976 75.0898 91.6792 75.0702C92.8552 75.0584 92.8748 73.5766 92.8787 72.5103C92.8944 66.834 92.965 61.1576 92.9022 55.4813C92.8866 54.0387 93.2237 53.5055 94.7369 53.6271C96.4892 53.7682 98.2689 53.7956 100.017 53.6349C101.66 53.4859 101.938 54.1602 101.887 55.6067C101.785 58.6056 101.856 61.6085 101.856 65.1993V65.1954Z" fill="#FEFEFD"/>
<path d="M106.924 53.4272C108.398 54.9404 109.503 56.0067 110.523 57.1514C111.173 57.8805 111.601 57.9354 112.341 57.1984C113.42 56.1243 114.666 55.2187 115.736 54.1329C116.077 54.1054 115.83 54.6268 115.826 55.0267C115.779 63.9528 115.697 72.8789 115.681 81.805C115.681 83.0085 115.47 83.5769 114.098 83.4907C112.149 83.3653 110.189 83.4437 108.233 83.4397C107.567 83.4397 106.912 83.4985 106.912 82.495C106.924 73.0083 106.92 63.5255 106.92 53.4272H106.924Z" fill="#FEFEFD"/>
<path d="M118.319 48.1236C118.056 48.4685 117.852 48.8057 117.586 49.0722C115.841 50.8167 114.062 52.5298 112.333 54.2899C111.702 54.9289 111.227 55.0112 110.557 54.3095C108.769 52.4435 106.95 50.605 105.077 48.8253C104.324 48.1118 104.551 47.6806 105.163 47.0808C106.966 45.3246 108.722 43.5096 110.526 41.7494C110.941 41.3417 111.349 40.7302 112.086 41.4946C113.968 43.4429 115.924 45.3246 117.829 47.2494C118.044 47.465 118.142 47.7943 118.319 48.1196V48.1236Z" fill="#FACA0B"/>
<path d="M131.579 118.348C135.08 118.246 138.483 118.862 141.709 120.136C148.93 122.986 153.7 128.552 150.745 138.341C148.42 146.028 143.83 151.673 135.919 154.104C125.272 157.377 111.912 151.807 108.819 140.328C108.646 139.689 108.125 139.011 109.278 138.623C111.046 138.031 110.407 136.82 109.756 135.82C109.258 135.048 108.004 134.793 108.137 133.566C108.305 132.018 108.47 130.489 109.266 129.066C111.888 124.346 116.083 121.657 121.018 120.03C124.425 118.909 127.953 118.258 131.575 118.348H131.579Z" fill="#FACA0B"/>
<path d="M60.9452 118.18C67.7231 118.133 73.4387 119.427 78.4055 123.065C81.7298 125.495 83.925 128.702 84.4464 132.924C84.564 133.873 84.4935 134.421 83.6624 135.056C81.8983 136.401 81.9454 137.264 83.7212 138.659C84.2465 139.071 84.0505 139.388 83.9407 139.823C82.0003 147.601 74.1326 153.955 66.0924 154.496C57.7111 155.061 50.6431 152.627 45.4529 145.833C41.8973 141.176 40.4312 135.723 41.2544 129.996C41.8973 125.515 45.2138 122.657 49.1261 120.65C53.0462 118.635 57.2917 118.071 60.9452 118.184V118.18Z" fill="#FACA0B"/>
</g>
<defs>
<clipPath id="clip0_4887_46620">
<rect width="192" height="192" fill="white"/>
</clipPath>
</defs>
</svg>
