<svg width="192" height="192" viewBox="0 0 192 192" fill="none" xmlns="http://www.w3.org/2000/svg">
<g clip-path="url(#clip0_4887_46692)">
<path d="M96 192C149.019 192 192 149.019 192 96C192 42.9807 149.019 0 96 0C42.9807 0 0 42.9807 0 96C0 149.019 42.9807 192 96 192Z" fill="white"/>
<path d="M131.57 98.09C132.99 97.39 133.65 97.68 134.72 99.44C135.14 98.96 135.34 98.33 135.85 97.95C136.17 97.71 136.48 97.3 136.85 97.41C137.29 97.54 137.39 98.12 137.39 98.51C137.37 99.51 137.57 99.88 138.69 99.53C139.46 99.29 140.2 99.76 140.92 100.52C139.84 100.69 139.02 101.01 138.46 101.86C137.98 102.6 137.89 103 138.75 103.54C140.8 104.84 142.52 106.5 143.64 108.7C146.53 114.37 145.23 122.16 139.58 125.82C136.36 127.91 132.81 128.13 129.18 127.38C124.79 126.47 121.15 124.35 119 120.25C115.99 114.51 118.68 105.36 126.08 102.56C127.81 101.91 129.57 101.53 131.43 101.56C132.93 101.58 133.35 100.91 132.81 99.49C132.59 98.91 132.21 98.47 131.57 98.09Z" fill="url(#paint0_linear_4887_46692)"/>
<path d="M97.6914 104.91C98.0714 95.4799 99.4214 84.8799 102.911 74.6499C103.691 72.3499 104.751 70.1799 106.341 68.3199C107.181 67.3399 108.171 66.5699 109.441 66.1999C111.621 65.5699 113.251 66.4299 113.881 68.5699C114.811 71.7499 114.171 74.1199 111.251 75.7199C106.731 78.1899 104.821 82.1299 103.901 86.8899C102.451 94.4199 101.781 101.99 102.261 109.65C102.461 112.83 103.101 115.93 104.341 118.89C104.521 119.33 104.711 119.77 104.951 120.17C106.501 122.82 108.911 122.79 110.431 120.08C111.221 118.67 111.611 117.13 111.681 115.53C111.781 113.49 110.451 112.11 108.411 112.13C107.261 112.13 106.111 112.26 104.961 112.33C104.521 112.35 104.031 112.4 103.751 111.99C103.451 111.54 103.801 111.15 104.051 110.82C105.601 108.76 107.391 106.99 109.841 106.01C111.541 105.34 112.931 105.67 114.081 107.12C115.421 108.8 116.311 110.69 116.311 112.88C116.311 116.67 115.601 120.3 113.711 123.62C110.751 128.8 104.281 128.94 101.021 123.93C99.2014 121.13 98.5814 117.93 98.1714 114.7C97.8114 111.9 97.6914 109.08 97.7014 104.93L97.6914 104.91Z" fill="black"/>
<path d="M65.11 114.96C64.58 116.79 63.91 118.55 63.29 120.32C62.17 123.53 59.91 125.48 56.61 126.07C53.42 126.63 50.76 125.48 48.67 123.02C47.56 121.71 47.3 120.24 47.77 118.58C49.03 114.15 51.61 110.52 54.68 107.2C56.72 104.98 59.02 103.12 62.08 102.44C64.45 101.92 65.96 102.51 67.31 104.51C68.77 106.66 69.33 109.15 69.88 111.61C70.81 115.76 72.07 119.77 74.28 123.45C75.28 125.12 75.14 125.43 73.22 125.61C71.01 125.82 69.19 124.92 67.74 123.27C66.18 121.49 65.63 119.31 65.36 117.03C65.28 116.34 65.19 115.64 65.11 114.95V114.96ZM61.96 109.15C57.6 111.22 54.26 114.24 52.86 119.03C52.55 120.08 52.71 120.96 53.66 121.66C54.66 122.39 55.66 122.54 56.76 121.91C58 121.19 58.67 120.04 59.18 118.77C60.42 115.69 61.02 112.41 61.96 109.16V109.15Z" fill="black"/>
<path d="M45.5506 123.83C45.5506 124.62 45.6306 125.43 45.5306 126.21C45.3106 127.97 43.8106 128.77 42.1706 128.12C40.7106 127.54 39.8106 126.42 39.0706 125.12C37.6006 122.55 37.0206 119.65 35.9606 116.92C35.3106 115.26 34.6906 113.59 33.7906 112.05C32.8106 110.39 31.4706 110.34 30.2706 111.92C29.1506 113.4 28.5706 115.13 28.0806 116.89C27.4506 119.14 26.9906 121.44 25.9706 123.55C25.5506 124.41 25.1506 125.77 24.0806 125.49C23.3006 125.29 23.5206 123.89 23.5706 123C23.8106 118.36 24.4806 113.75 24.6206 109.1C24.6806 107.12 25.5806 105.14 28.5606 105.36C29.0806 105.4 29.3206 105.21 29.5706 104.78C30.1506 103.79 30.7506 102.8 31.4706 101.91C33.1206 99.8699 34.7506 99.6299 37.0206 100.99C38.4506 101.85 39.5006 103.09 40.3506 104.5C42.7106 108.43 43.8906 112.78 44.8206 117.21C45.2806 119.39 45.5806 121.59 45.5506 123.83Z" fill="black"/>
<path d="M168.5 124.16C168.43 124.99 168.59 125.82 168.31 126.64C167.81 128.11 166.63 128.65 165.19 128.15C163.65 127.61 162.74 126.46 161.97 125.13C160.52 122.64 159.95 119.82 158.93 117.16C158.26 115.43 157.63 113.68 156.68 112.07C155.69 110.38 154.31 110.34 153.1 111.95C151.68 113.83 151.13 116.07 150.55 118.29C150.1 120.01 149.63 121.73 148.9 123.36C148.75 123.68 148.6 124.01 148.41 124.31C148.06 124.88 147.65 125.71 146.98 125.53C146.34 125.36 146.5 124.46 146.5 123.84C146.51 120.18 147.01 116.56 147.35 112.93C147.49 111.39 147.25 109.83 147.63 108.31C148.21 106.04 149.1 105.32 151.41 105.36C152 105.36 152.23 105.15 152.49 104.69C153.13 103.55 153.85 102.46 154.72 101.47C155.87 100.17 157.18 99.89 158.79 100.49C160.68 101.2 161.97 102.56 163.03 104.18C164.87 107 165.89 110.16 166.79 113.36C167.78 116.88 168.4 120.47 168.51 124.14L168.5 124.16Z" fill="black"/>
<path d="M79.0608 106.12C79.8508 105.04 80.5908 104.07 81.2908 103.06C82.7208 101.03 84.5208 99.9899 87.1108 100.55C89.8608 101.14 92.4908 101.97 94.7508 103.7C95.9608 104.62 96.5108 105.82 96.1308 107.36C95.7508 108.91 94.7508 109.57 93.2108 109.13C92.3308 108.88 91.5008 108.49 90.6508 108.17C88.0208 107.19 85.9508 108.02 84.7308 110.54C83.9908 112.07 83.7608 113.71 83.6208 115.38C83.4008 118.11 83.2108 120.85 82.9708 123.58C82.8308 125.23 82.1508 125.74 80.5508 125.54C77.8108 125.2 77.1308 124.43 77.3308 121.64C77.6408 117.31 77.3308 113.08 75.6308 109.03C74.8808 107.25 73.8108 105.7 72.3208 104.44C71.9208 104.1 71.4708 103.74 71.6308 103.17C71.8008 102.55 72.3208 102.23 72.9408 102.08C73.8208 101.87 74.5808 102.22 75.3108 102.64C76.7908 103.48 77.8608 104.76 79.0608 106.11V106.12Z" fill="black"/>
<path d="M94.2106 83.19C88.4506 83.35 83.6706 80.27 81.6906 75.38C81.5006 74.92 81.4106 74.68 82.0506 74.49C87.3206 72.96 94.4106 74.47 97.9506 79.47C99.5506 81.74 99.4706 82.14 96.8006 82.81C95.8406 83.05 94.8706 83.28 94.2106 83.2V83.19Z" fill="#4A6E43"/>
<path d="M101.251 72.46C101.221 74.67 100.651 76.69 99.2413 78.43C98.9713 78.76 98.8413 78.89 98.4213 78.55C94.2413 75.19 93.3113 69.07 96.3413 64.74C97.3313 63.32 97.4813 63.32 98.4813 64.64C100.301 67.04 101.261 69.76 101.251 72.46Z" fill="#97B48D"/>
</g>
<defs>
<linearGradient id="paint0_linear_4887_46692" x1="120.19" y1="104.09" x2="142.37" y2="120.07" gradientUnits="userSpaceOnUse">
<stop offset="0.13" stop-color="#E89AC0"/>
<stop offset="1" stop-color="#AD1057"/>
</linearGradient>
<clipPath id="clip0_4887_46692">
<rect width="192" height="192" fill="white"/>
</clipPath>
</defs>
</svg>
