<svg width="192" height="192" viewBox="0 0 192 192" fill="none" xmlns="http://www.w3.org/2000/svg">
<g clip-path="url(#clip0_5165_48985)">
<path d="M96 192C149.019 192 192 149.019 192 96C192 42.9807 149.019 0 96 0C42.9807 0 0 42.9807 0 96C0 149.019 42.9807 192 96 192Z" fill="white"/>
<path d="M155.594 80.2207C155.665 80.3617 155.735 80.5204 155.788 80.6615C155.718 80.5733 155.647 80.4852 155.577 80.397C155.559 80.3794 155.541 80.3618 155.506 80.3441C155.489 80.3089 155.453 80.256 155.418 80.2207H155.594Z" fill="#FDFDFD"/>
<path d="M103.499 130.979C101.436 131.491 99.3907 131.984 97.3279 132.496C95.1241 132.637 92.9204 132.778 90.7166 132.919H88.1602C89.0064 132.178 89.9937 131.667 91.0691 131.261C93.2553 130.539 95.5296 130.362 97.8039 130.362C99.708 130.68 101.612 130.909 103.499 130.979Z" fill="#FDFDFD"/>
<path d="M141.949 117.951C141.79 118.092 141.632 118.251 141.473 118.41C141.191 118.533 140.927 118.656 140.645 118.78C141.032 118.445 141.473 118.163 141.949 117.951Z" fill="#FDFDFD"/>
<path d="M70.601 111.955C69.79 112.925 68.3796 113.083 66.8634 113.083H66.8458C66.0877 113.083 65.3119 113.048 64.5714 113.048C62.1737 113.277 59.776 113.506 57.3607 113.736C57.3607 113.806 57.3431 113.859 57.3254 113.929C57.2725 114.247 57.1491 114.564 57.0081 114.864C52.2655 113.612 46.9764 115.04 42.657 111.884C41.6521 110.633 40.6648 109.381 39.6599 108.129C35.8165 102.928 35.2875 97.7625 39.8361 92.6497C40.5061 91.9621 41.1761 91.2746 41.846 90.587C40.3474 87.2725 43.9087 87.0609 45.0723 85.3684C46.8001 82.9177 48.5455 80.4848 50.2909 78.0342C50.4849 77.7521 50.714 77.5229 50.9785 77.3818C51.0843 77.611 51.1548 77.8402 51.1372 78.1223V78.14C50.908 81.4368 49.2684 83.9756 47.0293 86.2323C47.0117 86.2499 46.9941 86.2675 46.9764 86.2852C46.6767 86.5849 46.3946 86.8846 46.1125 87.1843C45.3897 87.9071 44.7197 88.6653 44.1379 89.4939C43.8735 89.8465 43.6267 90.2167 43.3975 90.587C43.2564 90.8514 43.1154 91.1158 42.9743 91.3803C42.4278 92.3676 41.7931 93.2844 41.1584 94.2012C40.6471 94.8887 40.2416 95.5763 39.9419 96.2639C39.8009 96.546 39.6951 96.8281 39.5893 97.1102C39.5541 97.2336 39.5188 97.3394 39.4836 97.4628C38.796 99.6313 38.9723 101.817 39.7832 104.004C40.1006 104.903 40.5414 105.784 41.0526 106.683C42.0576 108.253 43.3446 109.54 45.0195 110.368C46.4122 110.809 47.805 111.179 49.2155 111.514C51.4369 112.043 53.7112 112.431 55.9855 112.695C56.4439 112.766 56.9199 112.801 57.3783 112.854C59.7584 112.766 62.2266 113.03 64.6243 113.03H64.8712C65.6469 113.013 66.405 112.977 67.1455 112.889C68.3444 112.748 69.508 112.466 70.601 111.955Z" fill="#FBFCFD"/>
<path d="M96.0586 61.092C95.512 61.5857 94.9655 62.0793 94.4013 62.573C91.1397 62.4319 87.9486 62.5201 85.6214 65.3409C83.206 65.6407 80.7907 65.958 78.393 66.2754C74.3028 66.5222 70.3536 67.0863 67.6032 70.6124C65.3642 71.4586 63.1428 72.3226 60.9037 73.1865C58.03 74.4558 55.1562 75.7252 52.3001 76.9946C52.1415 76.9946 52.0004 76.9946 51.8594 77.0474C51.9475 77.1356 52.0533 77.2061 52.1767 77.2943C52.2649 77.3472 52.3707 77.4001 52.4764 77.453C55.3326 78.3521 57.5363 76.4128 60.0046 75.637C60.4982 75.4784 61.0271 75.3726 61.556 75.3549C61.6089 75.3373 61.6618 75.3374 61.7147 75.3374C63.9361 74.9671 66.087 74.35 67.903 72.9396C68.0616 72.8338 68.2203 72.7104 68.3614 72.587C68.52 72.4283 68.661 72.2873 68.8197 72.1639C71.2527 69.8719 74.0912 68.532 77.3881 68.2323C77.7054 68.197 78.0404 68.1794 78.3754 68.1618C78.4988 68.1442 78.6045 68.1441 78.7279 68.1265C80.8965 67.915 83.0298 67.4566 85.163 67.0511C85.498 66.9806 85.8506 66.91 86.1856 66.8571C86.2208 66.8571 86.2561 66.8395 86.2914 66.8395C88.8478 65.7993 91.316 64.6005 93.9253 63.7189C94.3308 63.525 94.701 63.2782 95.036 62.9961C95.2123 62.8727 95.371 62.7317 95.512 62.573C95.8999 62.2027 96.2349 61.762 96.4993 61.2507C96.517 61.1802 96.5346 61.1273 96.5346 61.0568C96.5875 60.9334 96.6051 60.8099 96.6051 60.6865L96.0586 61.092Z" fill="#FBFCFD"/>
<path d="M74.5128 86.8856C74.0721 86.9208 73.6313 87.009 73.2082 87.1677C73.455 89.6006 72.3972 90.87 69.8937 90.7995C66.4734 94.3256 69.6116 98.9976 67.778 102.806V102.823C68.9416 104.604 70.0876 106.402 71.2336 108.201C71.2688 108.571 71.3041 108.923 71.3217 109.258C71.1983 109.258 71.0573 109.241 70.9162 109.206C70.7928 109.153 70.687 109.117 70.5812 109.064C69.5939 108.606 68.8358 108.007 68.2188 107.284C67.5136 106.42 67.0023 105.38 66.6144 104.269C66.4381 103.793 66.2971 103.299 66.1561 102.806C65.539 98.7155 65.2922 94.6605 67.9191 91.0463C68.0778 90.8524 68.2541 90.6761 68.448 90.4822C68.5538 90.3411 68.6948 90.2001 68.8359 90.059C68.8887 89.9885 68.9417 89.918 69.0122 89.8651C69.1003 89.777 69.1708 89.6888 69.259 89.6183C70.0171 88.8601 70.8281 88.1373 71.6567 87.4498C71.9564 87.1853 72.2561 86.9561 72.5735 86.7093L72.5911 86.6916C73.314 86.2861 74.1073 86.0393 74.9536 85.9512H75.0946C74.883 86.2509 74.6891 86.5506 74.5128 86.8856Z" fill="#FBFCFD"/>
<path d="M101.4 118.479C100.678 118.938 100.008 119.52 99.3905 120.243C97.3278 121.847 94.9653 122.411 92.4266 122.323C91.4569 122.2 90.4872 122.023 89.5176 121.829C90.4167 121.565 91.2982 121.177 92.1268 120.56C92.215 120.507 92.3208 120.436 92.4089 120.366C95.0358 120.771 97.3454 119.872 99.5139 118.515C100.166 118.55 100.783 118.55 101.4 118.479Z" fill="#FBFCFD"/>
<path d="M108.381 115.2C109.139 115.094 109.879 114.935 110.602 114.741C110.232 115.006 109.862 115.27 109.491 115.552C108.821 115.975 108.116 116.293 107.376 116.54C107.058 116.592 106.759 116.645 106.459 116.698C107.111 116.275 107.728 115.781 108.328 115.217L108.381 115.2Z" fill="#FBFCFD"/>
<path d="M111.947 104.303C111.894 104.356 111.824 104.409 111.771 104.462C108.245 106.384 104.736 108.305 101.21 110.209C97.1375 110.192 93.0473 110.192 88.9747 110.174C87.7582 109.011 86.5417 107.865 85.3252 106.701C77.7089 102.717 80.4945 97.5685 83.6856 92.3499C83.8971 92.2089 84.1263 92.0678 84.3379 91.9268C84.4084 92.0678 84.4437 92.2265 84.4789 92.3675C84.4789 92.4733 84.4789 92.5791 84.4613 92.6849C84.3379 96.5459 81.4113 100.777 85.096 104.145C85.3957 104.427 85.7307 104.691 86.1185 104.956C86.1361 104.973 86.1538 104.991 86.1714 105.008C87.4408 106.331 88.622 107.759 90.0501 108.922C93.7172 110.615 97.208 109.645 100.664 108.2C104.242 106.578 107.328 103.598 111.718 104.127C111.771 104.162 111.824 104.197 111.859 104.233C111.894 104.25 111.929 104.268 111.947 104.303Z" fill="#FBFCFD"/>
<path d="M33.1403 126.942C31.2891 126.607 29.4555 126.272 27.5867 125.937C27.0754 125.725 26.5465 125.602 26 125.566C26.4936 125.161 26.9696 124.844 27.4633 124.579C27.6043 124.614 27.7278 124.667 27.8688 124.72C28.3625 125.037 28.8561 125.32 29.3673 125.566C30.5662 126.166 31.8356 126.607 33.1403 126.942Z" fill="#FBFCFD"/>
<path d="M40.3299 129.499C39.5895 129.411 38.8314 129.34 38.0733 129.323L37.3152 128.988L36.4865 129.058C35.6932 128.512 34.6177 128.212 34.2828 127.26C34.2651 127.242 34.2475 127.225 34.2651 127.207C34.2827 127.207 34.3004 127.207 34.3181 127.225C34.3533 127.225 34.3885 127.225 34.4414 127.242H34.4591C35.1467 127.383 35.8342 127.507 36.5394 127.613C37.2975 127.824 38.0028 128.124 38.6903 128.512C39.2192 128.9 39.7658 129.234 40.3299 129.499Z" fill="#FBFCFD"/>
<path d="M57.3254 132.9L57.5017 132.336C55.1745 132.319 52.8472 132.301 50.52 132.283C49.3741 131.825 48.2105 131.402 47.0469 131.014C48.3163 131.084 49.6209 131.084 50.9079 131.102C52.8296 130.838 54.7514 130.767 56.6731 131.155V131.173C56.8317 131.19 56.9727 131.225 57.1314 131.261C57.2372 131.278 57.3606 131.314 57.4664 131.349C58.1892 131.543 58.9121 131.79 59.6173 132.072C60.3225 132.407 61.0277 132.689 61.7329 132.9H57.3254Z" fill="#FBFCFD"/>
<path d="M82.2936 122.745C77.4981 128.598 70.3049 126.289 64.2754 127.999C64.0286 127.999 63.7994 128.017 63.5525 128.017C61.7542 128.052 59.956 128.052 58.1577 128.069H56.2007C54.561 128.069 52.9038 128.069 51.2642 128.087H50.8058C46.9095 128.158 43.0308 128.246 39.1874 127.435C37.9709 127.188 36.7544 126.906 35.5379 126.624C35.0972 126.536 34.6564 126.43 34.2333 126.342C32.629 125.989 31.007 125.689 29.3673 125.566C28.2566 125.478 27.1283 125.46 26 125.566C26.4936 125.16 26.9696 124.843 27.4633 124.579C30.7073 122.869 34.0041 123.979 37.301 125.002C37.3362 125.019 37.3891 125.037 37.4244 125.037C37.7241 125.143 38.0239 125.231 38.3236 125.319C42.3433 125.495 46.363 125.654 50.4003 125.83C55.0724 125.778 59.7444 125.707 64.4164 125.654C70.1462 123.732 76.4579 124.949 82.0644 122.41C82.1525 122.516 82.223 122.622 82.2936 122.745Z" fill="#F6FAF9"/>
<path d="M165.995 67.7745C165.819 68.0566 165.607 68.2681 165.36 68.4091C165.219 68.4973 165.061 68.5502 164.902 68.6031C164.373 68.5149 163.862 68.4092 163.333 68.2858C162.945 68.1976 162.575 68.1094 162.187 68.0213C160.195 67.51 158.255 66.8224 156.404 65.8528C156.034 65.6236 155.646 65.4473 155.241 65.3062C153.53 64.7421 151.556 64.8126 149.81 64.3189H149.793C148.506 63.9487 147.342 63.2788 146.496 61.8331C146.478 61.5862 146.478 61.3746 146.514 61.1983C146.531 61.0749 146.567 60.9692 146.637 60.881C146.725 60.8634 146.813 60.8458 146.901 60.8281C149.81 63.6666 154.5 61.2336 157.321 64.3189C159.754 66.6285 163.791 64.8655 165.995 67.7745Z" fill="#EDF4F8"/>
<path d="M132.216 65.2702H132.199C132.128 65.5347 132.005 65.7991 131.864 66.046C131.829 66.1518 131.758 66.2399 131.705 66.3457C131.687 66.3633 131.67 66.3986 131.635 66.4162C131.106 67.0156 130.506 67.5093 129.872 67.9324C129.166 67.8972 128.461 67.8443 127.756 67.7561C126.416 68.285 125.076 68.7963 123.736 69.3076H123.719C119.752 69.431 115.785 69.5368 111.8 69.6426C111.73 69.6778 111.642 69.7307 111.571 69.766C111.518 69.7131 111.466 69.6602 111.448 69.6073C110.055 67.6856 110.372 65.0587 109.438 62.943C109.385 62.8196 109.332 62.6786 109.244 62.5552C109.226 62.4847 109.174 62.4141 109.138 62.3436C108.891 61.0918 109.085 59.9812 110.055 59.082H115.327C116.702 60.4043 118.359 59.9459 119.963 59.9283C120.175 59.9283 120.369 59.9459 120.563 59.9635C120.651 59.9635 120.739 59.9635 120.827 59.9811H128.25C128.937 59.9988 129.625 60.0164 130.312 60.0693C130.63 60.1575 130.929 60.2985 131.176 60.4924C131.247 60.5101 131.3 60.5453 131.352 60.5806C131.476 60.6863 131.582 60.7745 131.67 60.898C131.828 61.039 131.952 61.2329 132.075 61.4268V61.4445C132.111 61.4797 132.128 61.4974 132.146 61.5503C132.587 62.8196 132.64 64.0714 132.216 65.2702Z" fill="#265FB0"/>
<path d="M165.365 68.4086C165.224 68.4967 165.065 68.5496 164.906 68.6025C164.113 68.867 163.196 68.8317 162.561 69.3783C161.468 69.4135 160.393 69.4311 159.317 69.4664C159.194 69.4135 159.088 69.3782 158.965 69.343C159.035 69.2372 159.124 69.1314 159.229 69.0433C159.388 68.8846 159.582 68.7435 159.776 68.6201C160.552 68.2323 161.363 68.0736 162.191 68.0207C162.702 67.9678 163.214 67.9678 163.725 68.0031C163.76 68.0207 163.778 68.0207 163.796 68.0383H163.813L165.365 68.4086Z" fill="#F5FEF9"/>
<path d="M110.056 59.082C110.038 60.228 110.038 61.3916 110.021 62.5552C109.827 62.6962 109.633 62.8196 109.439 62.943C104.644 66.0636 99.8481 66.0636 95.0351 62.996C94.8235 62.8549 94.612 62.7138 94.4004 62.5728C94.9646 62.0791 95.5111 61.5855 96.0576 61.0919C96.2339 60.9332 96.4102 60.7921 96.6042 60.6863C99.619 58.6412 103.568 61.3916 106.548 59.082H110.056Z" fill="#3B569E"/>
<path d="M96.6071 60.6863C99.6219 58.6412 103.571 61.3916 106.551 59.082C103.642 61.9381 99.9568 60.8098 96.5365 61.0566C96.3779 61.0566 96.2192 61.0742 96.0605 61.0919L96.6071 60.6863Z" fill="#E0FAFE"/>
<path d="M128.251 59.9816C128.251 60.0345 128.216 60.105 128.198 60.1579C128.022 60.5281 127.828 60.7221 127.634 60.7221C125.272 60.7045 122.909 60.6868 120.547 60.6868C120.176 60.44 119.982 60.1755 119.965 59.9287C120.176 59.9287 120.37 59.9464 120.564 59.964C120.652 59.964 120.741 59.964 120.829 59.9816H128.251Z" fill="#4383D9"/>
<path d="M146.906 60.8278C146.782 60.9689 146.659 61.0923 146.518 61.1981C146.13 61.5683 145.671 61.8328 145.178 61.9914C145.09 62.0443 144.984 62.062 144.896 62.0972C144.755 62.1148 144.614 62.1325 144.473 62.1325C143.362 62.1854 142.357 61.9209 141.458 61.2157C141.423 61.1628 141.387 61.0923 141.37 61.0394C141.282 60.8807 141.211 60.7397 141.176 60.5986C141.37 60.6163 141.581 60.6163 141.775 60.6163C142.904 60.7926 144.032 60.9689 145.16 61.1452C145.654 61.057 146.148 60.9689 146.641 60.8807C146.729 60.8631 146.817 60.8455 146.906 60.8278Z" fill="#E3FBFE"/>
<path d="M141.774 60.6176C141.65 60.7762 141.509 60.9173 141.368 61.0407C139.517 62.839 137.402 62.6627 135.11 61.6049C134.81 61.3757 134.581 61.1112 134.457 60.8291C134.404 60.741 134.369 60.6352 134.352 60.547C134.51 60.5294 134.651 60.5118 134.81 60.4941C136.943 60.547 139.059 60.5823 141.174 60.5999C141.368 60.6175 141.58 60.6176 141.774 60.6176Z" fill="#98C5FB"/>
<path d="M120.566 59.9635C120.566 60.1927 120.549 60.4395 120.549 60.6863C118.627 60.7392 116.564 61.2506 115.33 59.082C116.705 60.4043 118.362 59.9459 119.967 59.9283C120.178 59.9283 120.372 59.9459 120.566 59.9635Z" fill="#518CD9"/>
<path d="M131.357 60.5818C131.304 60.6347 131.251 60.6524 131.198 60.6524C130.017 60.67 128.836 60.6877 127.637 60.7229C127.637 60.4761 127.619 60.2292 127.637 59.9824H128.254C128.941 60.0001 129.629 60.0177 130.317 60.0706C130.634 60.1588 130.934 60.2998 131.18 60.4937C131.251 60.5113 131.304 60.5466 131.357 60.5818Z" fill="#5B87DD"/>
<path d="M134.814 60.4941C134.69 60.6176 134.585 60.741 134.461 60.8291C133.721 61.5167 132.927 61.693 132.081 61.4462V61.4285C131.764 61.3404 131.429 61.1817 131.094 60.9701L131.2 60.6528C131.2 60.5999 131.182 60.547 131.182 60.4941C131.252 60.5118 131.305 60.547 131.358 60.5823C131.482 60.6881 131.587 60.7762 131.676 60.8997C132.557 60.7762 133.456 60.6704 134.355 60.547C134.514 60.5294 134.655 60.5118 134.814 60.4941Z" fill="#629FE8"/>
<path d="M158.963 88.8955C158.875 88.296 158.787 87.6966 158.699 87.1148C158.276 86.1804 157.852 85.246 157.447 84.3116C157.429 84.294 157.429 84.294 157.429 84.294C156.936 83.8003 156.442 83.3948 155.86 83.1304C154.943 82.7072 153.833 82.672 152.387 83.4477C152.51 83.3067 152.634 83.148 152.74 82.9894C153.057 82.1607 153.092 81.385 152.828 80.6798C152.793 80.5035 152.722 80.3448 152.634 80.1861H152.193L151.682 79.7454L151.03 79.8688C145.564 77.7179 140.134 77.7002 134.704 79.4456C134.563 79.5691 134.439 79.7101 134.334 79.8512H134.316V79.8688C134.175 80.0274 134.052 80.2037 133.928 80.38C131.936 83.3067 132.465 87.5556 130.067 90.2706C129.803 90.5703 129.485 90.8524 129.15 91.1169C129.045 91.5753 129.186 91.9808 129.538 92.3334C128.11 98.4687 126.964 104.763 120.635 108.148C117.832 111.268 114.588 113.666 110.603 114.741C109.88 114.935 109.14 115.094 108.382 115.2L108.329 115.218C107.729 115.782 107.112 116.275 106.46 116.698C104.926 117.703 103.251 118.303 101.4 118.479C100.783 118.55 100.166 118.55 99.5138 118.514C97.3452 119.872 95.0357 120.771 92.4088 120.366C92.3206 120.436 92.2148 120.507 92.1267 120.56C91.298 121.177 90.4166 121.564 89.5174 121.829C87.2079 122.481 84.722 122.27 82.289 122.323C82.2185 122.358 82.1303 122.393 82.0598 122.411C76.4533 124.949 70.1417 123.733 64.4118 125.655C62.8956 127.735 60.1453 127.083 58.1531 128.07C57.7652 128.246 57.4126 128.493 57.1129 128.828C57.0424 128.899 56.9718 128.969 56.919 129.04C56.9013 129.075 56.9013 129.093 56.8837 129.128C56.6016 129.851 56.4782 130.521 56.6722 131.155V131.173C56.8132 131.596 57.06 131.984 57.5008 132.337L57.3245 132.901H61.732C70.5296 132.901 79.3623 132.918 88.1599 132.918H90.7163C92.9201 132.777 95.1238 132.636 97.3276 132.495C99.3904 131.984 101.435 131.49 103.498 130.979C110.885 129.181 118.272 127.365 125.66 125.567C126.1 125.373 126.541 125.161 126.982 124.967C131.53 122.904 136.097 120.842 140.645 118.779C140.927 118.655 141.192 118.532 141.474 118.409C141.633 118.25 141.791 118.091 141.95 117.95C145.353 114.618 148.773 111.286 152.193 107.954C152.634 107.725 153.092 107.478 153.551 107.231C153.639 106.931 153.709 106.649 153.762 106.35C154.097 104.269 153.656 102.242 152.581 100.39C150.43 96.7057 153.709 96.3178 155.596 95.0308C155.613 95.0308 155.649 95.0132 155.666 94.9956C155.825 94.8722 155.966 94.7487 156.107 94.6253C156.636 94.1669 157.112 93.6733 157.553 93.1444C158.205 92.3686 158.752 91.5048 159.21 90.588C159.122 90.0238 159.034 89.4596 158.963 88.8955ZM144.718 89.9709C144.577 90.1825 144.436 90.394 144.295 90.6056C143.149 91.9808 143.977 94.3961 141.915 95.4539C140.451 92.8975 142.038 91.0816 142.99 89.1423C143.008 89.1071 143.025 89.0541 143.043 89.0189C143.184 88.6839 143.36 88.4018 143.537 88.1374C145.247 85.6868 148.632 85.8631 151.03 84.5232C148.967 86.0923 146.71 87.4674 145.07 89.5125C144.947 89.6712 144.841 89.8123 144.718 89.9709Z" fill="#039F50"/>
<path d="M151.032 79.8688C145.461 78.8286 139.907 78.7405 134.336 79.8512H134.318L134.001 79.904C133.895 80.0451 133.772 80.1685 133.631 80.2919C132.908 81.05 131.991 81.5789 131.057 82.0373C130.863 82.1078 130.686 82.1784 130.528 82.2665C129.593 82.813 129.258 83.8356 128.923 84.8758C128.923 84.8758 128.923 84.8758 128.923 84.8934C128.659 85.7925 128.377 86.6917 127.742 87.2912C127.672 87.3617 127.583 87.4322 127.495 87.4851C127.425 87.3616 127.372 87.2382 127.301 87.1148C128.624 85.0697 122.33 80.5916 129.452 80.3977C130.598 80.2919 131.727 80.2037 132.873 80.098C133.401 79.5338 133.807 79.3751 134.124 79.6396C134.318 79.569 134.512 79.4985 134.706 79.4456C140.136 77.7002 145.566 77.7179 151.032 79.8688Z" fill="#F7FBFB"/>
<path d="M155.598 80.2218C155.563 80.257 155.545 80.3099 155.51 80.3452C155.422 80.4686 155.351 80.5744 155.263 80.6978C154.381 81.068 153.57 81.1033 152.83 80.6802C152.601 80.5568 152.389 80.3981 152.195 80.1865H152.636C153.553 80.1865 154.505 80.2041 155.422 80.2218H155.598Z" fill="#F7FBFB"/>
<path d="M159.318 69.4668C159.195 69.4139 159.089 69.3787 158.965 69.3434C149.445 65.7468 139.572 68.5148 129.875 67.933C129.17 67.8977 128.465 67.8448 127.76 67.7567C129.047 67.2101 130.334 66.7694 131.638 66.4168C132.22 66.2757 132.802 66.1347 133.384 66.0289C133.401 66.0289 133.401 66.0289 133.419 66.0289C137.139 65.2532 140.947 65.1827 144.738 65.3061C144.896 65.2885 145.055 65.3061 145.214 65.3061H145.231C147.964 65.3942 150.714 65.5706 153.447 65.6411C153.641 65.6411 153.835 65.6587 154.047 65.6587C154.047 65.6587 154.047 65.6587 154.064 65.6587C156.25 65.7645 158.666 66.1523 159.23 69.0437C159.283 69.1671 159.3 69.3258 159.318 69.4668Z" fill="#F7FBFB"/>
<path d="M158.703 87.1142C157.698 85.8095 156.481 84.6106 155.864 83.1297C155.529 82.3187 155.388 81.4372 155.582 80.397C155.582 80.3441 155.582 80.2736 155.6 80.2207C155.67 80.3617 155.741 80.5204 155.794 80.6615L155.811 80.6791C156.358 81.878 156.887 83.0768 157.433 84.2933C157.433 84.2933 157.433 84.2933 157.451 84.3109C157.856 85.2454 158.28 86.1798 158.703 87.1142Z" fill="#F7FBFB"/>
<path d="M157.447 101.113C156.83 102.788 156.213 104.463 155.613 106.138C155.296 106.314 154.979 106.473 154.679 106.632C154.573 106.438 154.503 106.226 154.45 106.015L154.432 105.997C154.132 103.881 154.996 102.048 155.772 100.197C155.842 100.055 155.895 99.9321 155.948 99.7911C156.424 98.8038 156.706 97.7812 156.936 96.7058V96.6881C157.165 95.5245 157.323 94.3256 157.553 93.1444C157.817 91.6635 158.187 90.2178 158.963 88.8955C159.034 89.4597 159.122 90.0239 159.21 90.5881C159.739 94.2375 160.056 97.8517 157.447 101.113Z" fill="#F7FBFB"/>
<path d="M126.982 124.967C126.542 125.161 126.101 125.372 125.66 125.566C126.101 125.267 126.542 125.055 126.982 124.967Z" fill="#F9FBFA"/>
<path d="M155.616 106.139C155.298 106.315 154.981 106.474 154.681 106.632C154.293 106.844 153.923 107.038 153.553 107.232C153.094 107.479 152.636 107.725 152.195 107.955C152.742 107.479 153.165 106.756 153.764 106.35C153.958 106.192 154.188 106.068 154.452 106.015C154.769 105.945 155.157 105.962 155.616 106.139Z" fill="#F3FBF6"/>
<path d="M111.945 104.305C111.892 104.358 111.822 104.411 111.769 104.464C111.786 104.393 111.822 104.305 111.857 104.234C113.408 99.5094 114.325 96.6533 114.325 94.6964V94.4672C114.219 91.6992 112.121 90.7119 107.167 88.3671C106.48 88.0497 105.827 87.6619 105.21 87.2211C105.175 87.2035 105.157 87.1859 105.122 87.1682C105.122 87.1682 105.122 87.1682 105.104 87.1682C102.513 85.2642 99.7624 85.5991 96.9416 86.5335C96.6242 86.6746 96.3068 86.798 95.9719 86.9214C95.6016 87.0801 95.2314 87.2211 94.8612 87.3798C92.675 88.226 90.7357 89.4778 88.9021 90.8882C88.6201 91.1174 88.338 91.329 88.0559 91.5582C87.7914 91.7168 87.527 91.8931 87.2625 92.0518C86.381 92.5807 85.4818 92.9862 84.4593 92.6865C84.1948 92.6336 83.948 92.5102 83.6836 92.3516C83.8952 92.2105 84.1243 92.0694 84.3359 91.9284C85.1293 91.4171 85.905 90.9235 86.6807 90.4122C88.62 87.7853 91.4585 86.798 94.4557 86.0752C94.9846 85.7578 95.5311 85.4404 96.06 85.1055C99.5332 85.2465 103.006 85.3876 106.497 85.5286C106.532 86.0399 106.621 86.5335 106.762 87.0272C111.363 86.463 114.678 88.2084 116.353 92.5983C118.345 97.7993 115.207 101.079 111.945 104.305Z" fill="#FAFAFC"/>
<path d="M129.538 92.3338C129.185 91.9812 129.044 91.5757 129.15 91.1173C129.168 91.0291 129.185 90.941 129.221 90.8529C128.656 89.7245 128.075 88.6138 127.493 87.4855C127.422 87.362 127.369 87.2386 127.299 87.1152C127.458 87.1681 127.599 87.221 127.74 87.2915C128.18 87.5031 128.533 87.7675 128.815 88.0849C129.15 88.4199 129.397 88.8254 129.626 89.2485C129.785 89.5835 129.926 89.9184 130.067 90.271C130.067 90.2887 130.084 90.2887 130.084 90.3063C130.208 91.0644 130.032 91.7344 129.538 92.3338Z" fill="#FAFAFC"/>
<path d="M84.5486 78.5286C84.337 78.7225 84.1079 78.9164 83.8963 79.128C81.0402 79.3396 80.3878 82.2662 78.4132 83.5532C77.9725 83.6766 77.567 83.8353 77.1968 84.0468C77.1791 83.9587 77.1968 83.8529 77.2144 83.7471C78.0959 80.7676 80.0176 78.7578 82.9795 77.7881C83.5613 78.1583 84.0902 78.3875 84.5486 78.5286Z" fill="#FAFAFC"/>
<path d="M111.802 69.6422C111.731 69.6774 111.643 69.7303 111.573 69.7656C107.306 72.0752 102.599 72.798 97.8917 73.1506C94.9298 73.3621 92.197 73.3445 90.6808 76.4122C89.8875 76.5532 89.1117 76.6767 88.3184 76.8001C88.9531 75.8833 89.5172 74.8255 90.2401 74.0674C96.7633 69.9595 103.886 68.743 111.449 69.6069C111.573 69.6069 111.679 69.6245 111.802 69.6422Z" fill="#FAFAFC"/>
<path d="M111.943 104.304C111.89 104.357 111.82 104.409 111.767 104.462C108.241 106.384 104.732 108.306 101.206 110.21C97.1334 110.192 93.0432 110.192 88.9706 110.175C87.7542 109.011 86.5377 107.865 85.3212 106.701C84.8099 105.767 84.8275 104.938 85.092 104.145C85.2859 103.493 85.6561 102.876 86.0264 102.259C86.1498 102.118 86.2732 101.959 86.3966 101.8C87.1018 100.901 87.5778 99.9314 87.8246 98.9088C87.9304 98.5033 88.0009 98.0802 88.0362 97.657C88.1067 96.7755 88.0538 95.8588 87.8423 94.9067V94.8891C87.8423 94.8362 87.8423 94.8009 87.8246 94.7481C87.666 93.8489 87.5073 92.9321 87.2605 92.0506C87.1195 91.4865 86.9255 90.9399 86.6787 90.411C88.618 87.7841 91.4565 86.7968 94.4536 86.074C98.5615 86.2855 102.846 84.2051 106.76 87.026C111.361 86.4618 114.676 88.2072 116.351 92.5972C118.343 97.7981 115.205 101.077 111.943 104.304Z" fill="#745EBF"/>
<path d="M68.2236 107.283C68.541 108.87 68.7702 110.404 68.1708 111.656C67.9416 112.114 67.6242 112.52 67.1482 112.89C67.0601 112.96 66.9719 113.013 66.8661 113.084H66.8485C66.0904 113.084 65.3146 113.049 64.5742 113.049C62.1764 113.278 59.7787 113.507 57.3634 113.736C57.3634 113.807 57.3458 113.86 57.3281 113.93H57.3105C57.1342 113.895 56.9755 113.859 56.7992 113.807C52.1977 112.238 47.3141 112.907 42.6597 111.885C41.6548 110.633 40.6675 109.381 39.6626 108.13C39.0103 104.939 37.8466 101.8 38.8163 98.4683C38.9926 98.0451 39.2218 97.7102 39.4863 97.4633C39.5568 97.3928 39.6273 97.3223 39.6978 97.2694C39.7683 97.1989 39.8565 97.146 39.9623 97.0931C40.4735 96.7758 41.1259 96.6347 41.8311 96.6171C42.7478 96.6347 43.3649 97.0755 43.8938 97.6396C44.0701 97.8336 44.2464 98.0451 44.4051 98.2391C44.934 98.8738 45.4453 99.5084 46.1858 99.8081C46.3797 99.9139 46.6089 99.9668 46.8557 100.002C46.8734 100.002 46.8733 100.002 46.891 100.002C47.9135 99.914 48.9009 99.9139 49.9058 100.161H49.9234C50.1878 100.249 50.4347 100.355 50.6815 100.478C51.087 100.654 51.4749 100.866 51.8275 101.113C53.52 102.294 54.7894 102.365 55.5299 101.113C55.7767 100.707 55.9706 100.178 56.094 99.4908C57.716 95.4711 63.1461 94.7483 64.1158 90.182C64.2216 90.1115 64.3097 90.0586 64.4155 90.0057C64.6094 89.8823 64.8034 89.7942 64.9973 89.706C66.0375 89.2476 67.0953 89.1947 68.206 89.5473C68.4704 89.6179 68.7349 89.7236 68.9994 89.847L69.017 89.8647C69.1404 90.0057 69.2814 90.1467 69.4225 90.2878C69.5812 90.4641 69.7399 90.6228 69.8985 90.7991C66.4783 94.3251 69.6164 98.9972 67.7829 102.805V102.823C67.5537 104.18 67.9416 105.75 68.2236 107.283Z" fill="#1D62B9"/>
<path d="M111.805 69.6438C111.734 69.6791 111.646 69.732 111.576 69.7672C107.309 72.0768 102.602 72.7996 97.8945 73.1522C94.9326 73.3638 92.1999 73.3462 90.6837 76.4138C89.8903 76.5549 89.1146 76.6783 88.3212 76.8017C87.5455 76.9251 86.7521 77.0662 85.9764 77.1896C85.9588 77.2777 85.9411 77.3659 85.9059 77.454C85.8706 77.454 85.8177 77.4187 85.7824 77.3835C85.4122 77.1719 85.0772 76.8898 84.8128 76.5549C84.6365 76.3609 84.4778 76.1318 84.3544 75.885C84.3368 75.8144 84.3015 75.7439 84.2839 75.6733C83.6492 73.8751 83.6492 72.0768 84.4073 70.3138C84.4425 70.2256 84.4778 70.1551 84.5131 70.0669C84.9362 69.9435 85.2183 69.7672 85.4122 69.5909C86.0822 68.921 85.4828 67.9513 85.1654 67.0522C84.9715 66.4351 84.8833 65.8357 85.5004 65.4478C85.5357 65.4125 85.5709 65.3773 85.6238 65.342C87.951 62.5212 91.1421 62.433 94.4037 62.574H95.5144C100.081 62.574 104.682 62.5741 109.248 62.5564H110.024C116.142 63.5261 110.959 67.3519 111.805 69.6438Z" fill="#2463B6"/>
<path d="M61.5547 75.355C61.1668 77.0652 58.9278 78.3875 59.5272 80.2915C59.4919 80.3268 59.4743 80.3621 59.4391 80.3973C59.4214 80.4326 59.3861 80.4678 59.3509 80.5031C58.5751 81.4551 57.6936 82.319 57.5878 83.606C57.5349 83.7647 57.535 83.941 57.5526 84.1349C57.6055 84.3465 57.6407 84.5404 57.6936 84.752V84.7696C57.8699 85.3867 58.0462 86.0037 58.2049 86.6208C58.2402 86.7971 58.2754 86.9557 58.3107 87.132C58.3988 87.5904 58.4517 88.0665 58.4341 88.5425C57.9581 91.2576 56.2127 92.0862 53.9736 92.2449C53.6563 92.2625 53.3213 92.2801 52.9687 92.2801C52.1577 92.1743 51.3644 91.9451 50.6063 91.6102C50.3242 91.4162 50.0421 91.2047 49.76 90.9931C49.6013 90.8697 49.4427 90.7463 49.3016 90.6052C48.0675 89.6179 46.992 88.4896 46.1105 87.1849C45.7226 86.6031 45.37 86.0037 45.0703 85.369C46.7981 82.9184 48.5435 80.4855 50.2889 78.0349C50.4829 77.7528 50.712 77.5235 50.9765 77.3825C51.2409 77.1886 51.523 77.0651 51.858 77.0475C51.999 76.9946 52.1401 76.9946 52.2987 76.9946C55.1549 75.7252 58.0286 74.4559 60.9023 73.1865C61.5723 73.9975 61.6957 74.7027 61.5547 75.355Z" fill="#1F60BB"/>
<path d="M85.9753 77.189C85.9576 77.2772 85.94 77.3653 85.9047 77.4535C85.8695 77.4535 85.8165 77.4182 85.7813 77.3829C85.3758 77.7532 84.9527 78.1411 84.5472 78.5289C84.3356 78.7229 84.1065 78.9168 83.8949 79.1284C81.0388 79.3399 80.3864 82.2665 78.4118 83.5535C77.9711 83.6769 77.5656 83.8356 77.1953 84.0472C76.3491 84.5056 75.6615 85.1579 75.0973 85.9513C74.8858 86.251 74.6919 86.5507 74.5156 86.8857C74.0748 86.9209 73.6341 87.0091 73.2109 87.1678C72.6468 87.4499 72.1355 87.5028 71.6595 87.4499C70.4606 87.2736 69.5085 86.2862 68.3978 85.8102C68.0981 85.6868 67.7984 85.5987 67.4811 85.5634C67.2871 85.5105 67.0932 85.44 66.9169 85.3519C66.0706 85.0521 65.2596 84.6642 64.5368 84.1001C64.4839 84.0472 64.4486 84.0119 64.4134 83.959C64.3428 83.8885 64.29 83.8357 64.2547 83.7651L64.2371 83.7475C64.2018 83.6946 64.1665 83.6593 64.1313 83.6064C63.5847 82.8307 63.3908 81.9492 63.5143 80.9619C63.5319 80.909 63.5495 80.8561 63.5671 80.8208C63.6729 80.5211 63.814 80.2567 63.9903 80.0099C64.1137 79.8159 64.2723 79.6572 64.431 79.4986C64.5721 79.3752 64.7307 79.2518 64.8894 79.1284C65.2244 78.9521 65.577 78.7934 65.9296 78.67C66.2998 78.5113 66.6877 78.4055 67.0756 78.2997C67.1637 78.2821 67.2519 78.2645 67.3577 78.2468C69.2088 77.859 71.2011 77.7708 72.7173 76.5896H72.7349C73.2109 76.2194 73.6517 75.7433 74.0043 75.1086C74.1982 74.8795 74.4098 74.6855 74.639 74.5092C74.7448 74.4211 74.8505 74.3505 74.9563 74.2976C75.2737 74.0861 75.6263 73.9274 76.0141 73.804C79.0289 73.5043 81.8145 74.0508 84.2828 75.6728C84.653 75.902 85.0232 76.1664 85.3758 76.4662C85.5874 76.713 85.7813 76.9422 85.9753 77.189Z" fill="#2863B6"/>
<path d="M88.9923 94.1145C88.5339 95.2605 88.2518 96.4593 88.0402 97.6581C87.9521 98.0813 87.8816 98.4868 87.8287 98.9099C87.6171 100.232 87.4584 101.572 87.2292 102.877C86.8766 103.582 86.524 104.305 86.1714 105.01C85.8893 105.574 85.6073 106.138 85.3252 106.702C77.7089 102.718 80.4945 97.57 83.6856 92.3515C83.8971 92.2104 84.1263 92.0693 84.3379 91.9283C85.1313 91.417 85.907 90.9234 86.6827 90.4121C87.3703 90.606 88.2342 90.6942 88.9041 90.8881C90.0854 91.2583 90.72 91.9636 88.9923 94.1145Z" fill="#715DBF"/>
<path d="M68.9961 73.0982C68.9961 73.3803 68.9785 73.6624 68.9256 73.9268C68.6435 75.9367 67.3212 77.3295 65.9284 78.6694C65.4172 79.1454 64.9059 79.6038 64.4299 80.0974H64.4122C64.1301 80.3266 63.8481 80.5734 63.566 80.8203C62.1556 82.0896 60.7451 83.2709 59.3523 80.5029C59.2642 80.3795 59.2113 80.2385 59.1408 80.0974C57.6598 78.1581 58.9821 76.9416 60.0046 75.637C60.6041 74.8965 61.0977 74.1208 60.9038 73.1864C63.1428 72.3225 65.3642 71.4586 67.6033 70.6123C68.1851 71.0178 68.5906 71.5291 68.8198 72.1638C68.8903 72.3225 68.9432 72.4988 68.9785 72.6751C68.9785 72.8161 68.9961 72.9571 68.9961 73.0982Z" fill="#1B61BB"/>
<path d="M78.7282 68.1266C78.6577 68.6202 78.4638 69.0962 78.2346 69.5722C78.0935 69.8543 77.9349 70.1364 77.7762 70.4185V70.4361C77.7057 70.5772 77.6352 70.7006 77.5647 70.824C76.8771 71.9876 76.0661 73.0102 74.9377 73.6801C74.7791 73.8036 74.6204 73.8917 74.4441 73.9798C74.2854 74.0503 74.0915 74.1385 73.9152 74.209C72.0993 74.9319 70.4244 74.9142 68.9258 73.9269C68.5732 73.6977 68.2382 73.4333 67.9209 73.0983C67.9209 73.0454 67.9033 72.9925 67.9033 72.9396C67.7975 72.1639 67.7093 71.3882 67.6035 70.6124C70.3538 67.0864 74.3031 66.5222 78.3933 66.2754C78.7459 66.9453 78.8164 67.5448 78.7282 68.1266Z" fill="#2165C0"/>
<path d="M57.3114 113.93C57.329 113.86 57.3467 113.807 57.3643 113.736C57.3643 113.807 57.3467 113.86 57.3291 113.93C57.2762 114.248 57.1528 114.565 57.0117 114.865C57.1175 114.565 57.2233 114.248 57.3114 113.93Z" fill="#F4FBFC"/>
<path d="M71.3247 109.258C71.36 110.527 71.0779 111.391 70.6019 111.955C69.7909 112.925 68.3804 113.084 66.8642 113.084H66.8466C66.0885 113.084 65.3127 113.049 64.5723 113.049C64.678 113.049 64.7839 113.031 64.872 113.031C66.2119 112.89 67.2697 112.379 68.1689 111.656C69.0856 110.951 69.8261 110.016 70.5842 109.064C70.7958 108.782 71.0073 108.482 71.2365 108.2C71.2718 108.57 71.3071 108.923 71.3247 109.258Z" fill="#F4FBFC"/>
<path d="M47.4514 97.5355C47.2575 97.6942 47.0459 97.8352 46.852 97.941C46.7109 98.0291 46.5699 98.0996 46.4465 98.1525C45.7589 98.4522 45.0889 98.5052 44.4014 98.2407C44.0487 98.1173 43.7138 97.9234 43.3612 97.6413C42.2328 97.6237 41.1045 97.606 39.9762 97.606C39.8704 97.5002 39.7822 97.3768 39.6941 97.271C39.6588 97.2181 39.6236 97.1652 39.5883 97.1123C38.5658 95.6667 38.8302 94.1681 39.8351 92.6519C40.5051 91.9643 41.175 91.2767 41.845 90.5892C42.5855 89.9721 43.3612 89.6019 44.1369 89.4961C45.1771 89.3374 46.2526 89.6371 47.3456 90.4305C47.3809 90.4834 47.4162 90.5539 47.4514 90.6068C47.5748 90.8007 47.6983 91.0123 47.804 91.2062C48.8971 93.2866 48.7561 95.4022 47.4514 97.5355Z" fill="#205DC5"/>
<path d="M85.4811 69.5907C85.1285 69.8552 84.7582 70.102 84.4056 70.3136C82.2018 71.6358 79.9981 71.865 77.7766 70.4369V70.4193C77.424 70.1901 77.0538 69.908 76.7012 69.5731C76.9304 69.1147 77.1596 68.6739 77.3888 68.2331L78.3937 66.2762C80.7914 65.9589 83.2068 65.6415 85.6221 65.3418C85.0227 65.8178 85.534 66.3291 86.1863 66.858C87.4028 67.81 89.1129 68.7973 85.4811 69.5907Z" fill="#246AAA"/>
<path d="M71.3247 109.259C71.36 110.529 71.0779 111.393 70.6019 111.957C69.7909 112.926 68.3804 113.085 66.8642 113.085H66.8466C66.0885 113.085 65.3127 113.05 64.5723 113.05C64.5899 113.05 64.6075 113.032 64.6252 113.032C69.3853 111.393 65.6654 107.091 66.6174 104.27C66.7937 103.723 67.1639 103.23 67.781 102.824C68.9446 104.605 70.0905 106.403 71.2365 108.201C71.2718 108.572 71.3071 108.924 71.3247 109.259Z" fill="#405C96"/>
<path d="M39.9772 97.6045C39.9067 99.7378 39.8538 101.871 39.7832 104.004C39.748 105.379 39.6951 106.755 39.6599 108.13C35.8165 102.929 35.2875 97.7632 39.8361 92.6504C39.8538 93.8669 39.889 95.0658 39.9419 96.2646C39.9419 96.5467 39.9596 96.8112 39.9596 97.0933C39.9596 97.2696 39.9772 97.4282 39.9772 97.6045Z" fill="#425B7D"/>
<path d="M57.3638 113.736C57.3638 113.807 57.3462 113.86 57.3286 113.93C57.2757 114.248 57.1523 114.565 57.0112 114.865C52.2687 113.613 46.9796 115.041 42.6602 111.885C44.8111 112.061 47.0325 111.674 49.2186 111.515C51.5458 111.303 53.8378 111.391 55.9887 112.696C56.4471 112.978 56.9054 113.313 57.3638 113.736Z" fill="#3C689A"/>
<path d="M52.2989 76.9951C52.2636 77.1009 52.2107 77.2067 52.1755 77.2949C51.9286 77.8061 51.5937 78.0882 51.1353 78.1411C50.8885 78.1764 50.6064 78.1411 50.2891 78.0354C50.483 77.7533 50.7122 77.524 50.9766 77.383C51.2411 77.1891 51.5232 77.0656 51.8581 77.048C51.9992 76.9951 52.1402 76.9951 52.2989 76.9951Z" fill="#F9FCF5"/>
<path d="M50.3601 90.6053C50.1661 90.764 49.9722 90.9051 49.7606 90.9932C49.1083 91.3634 48.456 91.4693 47.8037 91.2048C47.4864 91.099 47.169 90.8874 46.8517 90.6053C45.6881 90.6053 44.5421 90.6054 43.3961 90.5877C42.8848 90.6054 42.3559 90.5877 41.8447 90.5877C40.3461 87.2733 43.9074 87.0616 45.071 85.3691C45.688 85.7041 46.3404 85.9862 46.9751 86.286C48.7205 87.1146 50.3072 88.0842 50.3601 90.6053Z" fill="#1F65AF"/>
<path d="M69.8963 90.7996L69.4556 90.447C69.244 90.3236 69.0325 90.1826 68.8385 90.0591C68.6093 89.8828 68.3977 89.7066 68.2038 89.5479C66.8463 88.349 66.335 86.9739 66.9168 85.3519C67.1108 84.8053 67.4281 84.2235 67.9041 83.6064C70.3547 83.342 71.1657 85.4753 72.5761 86.7094C72.7701 86.8857 72.9817 87.0444 73.2109 87.1678C73.4577 89.6008 72.3998 90.8702 69.8963 90.7996Z" fill="#1E5DCA"/>
<path d="M57.5008 132.336C55.1736 132.318 52.8463 132.301 50.5191 132.283C49.3732 131.825 48.2096 131.402 47.046 131.014C44.8598 130.309 42.6384 129.762 40.3465 129.498H40.3288C39.5884 129.409 38.8303 129.339 38.0721 129.321L37.3141 128.986L36.4854 129.057C35.6921 128.51 34.6166 128.211 34.2816 127.259C34.264 127.241 34.2464 127.223 34.264 127.206H34.2464C34.2464 127.188 34.2288 127.17 34.2288 127.153C34.1759 126.959 34.1406 126.747 34.1406 126.5C34.1583 126.448 34.1935 126.395 34.2288 126.342C34.9692 124.879 36.0623 124.702 37.2964 125.002C37.3317 125.02 37.3846 125.037 37.4198 125.037C37.7196 125.143 38.0193 125.231 38.319 125.319C42.3387 125.496 46.3584 125.654 50.3958 125.831C51.8062 127.664 54.3802 127.065 56.1961 128.07C56.5311 128.263 56.8485 128.493 57.1129 128.828C57.2187 128.933 57.3068 129.039 57.3774 129.163C57.395 129.886 57.4302 130.626 57.4655 131.349C57.4831 131.684 57.4831 132.001 57.5008 132.336Z" fill="#149A5E"/>
<path d="M38.3236 125.32C37.3892 125.761 36.4724 126.184 35.5379 126.625C35.1501 126.801 34.7623 126.995 34.3744 127.171C34.3568 127.189 34.3391 127.207 34.3215 127.224C34.3039 127.224 34.3038 127.242 34.2862 127.259C34.2686 127.242 34.2509 127.224 34.2686 127.207H34.251C33.916 127.118 33.5986 127.048 33.2813 126.977C33.2284 126.96 33.1931 126.96 33.1403 126.942C31.2891 126.607 29.4555 126.272 27.5867 125.937C27.0754 125.726 26.5465 125.602 26 125.567C26.4936 125.161 26.9696 124.844 27.4633 124.58C30.7073 122.87 34.0041 123.98 37.301 125.003C37.3362 125.02 37.3891 125.038 37.4244 125.038C37.7241 125.144 38.0239 125.232 38.3236 125.32Z" fill="#6B8D7C"/>
<path d="M36.488 129.058C35.6947 128.511 34.6192 128.212 34.2842 127.26C34.2666 127.242 34.249 127.224 34.2666 127.207H34.249C33.914 127.119 33.5966 127.048 33.2793 126.978C33.5966 127.03 33.914 127.083 34.2313 127.154C34.2842 127.154 34.3195 127.172 34.3724 127.172C34.3901 127.189 34.4253 127.207 34.4429 127.242H34.4606C35.1305 127.859 35.8181 128.441 36.488 129.058Z" fill="#F6FAF9"/>
<path d="M64.4165 125.655C64.2754 126.748 63.9757 127.489 63.5526 128.018C62.1774 129.728 59.4976 128.899 57.382 129.164C57.2233 129.146 57.047 129.128 56.8883 129.128C54.8961 129.005 52.5513 129.657 51.2643 128.088C50.8588 127.595 50.5591 126.872 50.4004 125.832C55.0724 125.779 59.7444 125.708 64.4165 125.655Z" fill="#00A054"/>
<path d="M166 67.7739C165.824 68.0559 165.612 68.2675 165.365 68.4085C165.224 68.4967 165.065 68.5496 164.907 68.6025C164.113 68.8669 163.197 68.8317 162.562 69.3782C161.469 69.4135 160.393 69.4311 159.318 69.4663C159.195 69.4135 159.089 69.3782 158.965 69.3429C149.445 65.7463 139.572 68.5143 129.875 67.9325C129.17 67.8973 128.465 67.8444 127.76 67.7562C128.43 66.3105 129.752 66.1342 131.127 66.0461C131.48 65.764 131.832 65.4995 132.203 65.2703H132.22C135.887 62.996 140.03 63.6131 144.121 63.7188H144.262C144.579 63.7894 144.879 63.8599 145.196 63.9128C146.712 64.1949 148.246 64.3007 149.798 64.3183H149.815C152.319 64.336 154.822 64.1773 157.326 64.3183C159.759 66.6279 163.796 64.8649 166 67.7739Z" fill="#395A93"/>
<path d="M157.326 64.3189C156.639 64.7421 155.951 65.0594 155.246 65.3062C154.858 65.4473 154.453 65.5707 154.065 65.6588C154.047 65.6588 154.047 65.6588 154.047 65.6588C151.191 66.3464 148.194 66.0114 145.232 65.9057C145.056 65.7117 144.879 65.5002 144.738 65.3062C144.368 64.7773 144.157 64.2484 144.121 63.7195C144.068 63.1906 144.192 62.6617 144.474 62.1328C144.633 61.7978 144.862 61.4804 145.162 61.1455C145.655 61.0573 146.149 60.9692 146.642 60.881C146.731 60.8634 146.819 60.8458 146.907 60.8281C149.816 63.6666 154.506 61.2336 157.326 64.3189Z" fill="#1264BC"/>
<path d="M165.996 67.7742C165.82 68.0563 165.609 68.2679 165.362 68.4089C165.221 68.4971 165.062 68.55 164.903 68.6029C164.11 68.8673 163.193 68.8321 162.559 69.3786C162.753 68.9026 163.017 68.55 163.334 68.2855C163.475 68.1974 163.634 68.0916 163.793 68.0387H163.81C164.445 67.739 165.203 67.7213 165.996 67.7742Z" fill="#ACB4E9"/>
<path d="M145.233 65.3072V65.9067C141.284 65.9595 137.353 65.9948 133.421 66.03C133.403 66.03 133.403 66.03 133.386 66.03C132.874 66.03 132.381 66.03 131.869 66.0477H131.129C131.111 64.3552 131.094 62.6626 131.094 60.9701C131.288 60.9525 131.482 60.9173 131.676 60.8997C132.557 60.7762 133.456 60.6704 134.355 60.547C134.514 60.5294 134.655 60.5118 134.814 60.4941C136.947 60.547 139.063 60.5823 141.178 60.5999C141.372 60.6175 141.584 60.6176 141.778 60.6176C142.906 60.7939 144.034 60.9702 145.163 61.1465C145.163 61.4285 145.163 61.7106 145.18 61.9927C145.18 62.6274 145.198 63.2797 145.198 63.9144C145.216 64.3728 145.216 64.8488 145.216 65.3072H145.233Z" fill="#2264AB"/>
<path d="M157.451 101.114C156.834 102.789 156.217 104.463 155.617 106.138C155.3 106.315 154.983 106.473 154.683 106.632C154.295 106.844 153.925 107.037 153.555 107.231C153.096 107.478 152.638 107.725 152.197 107.954C152.074 105.75 152.426 103.511 150.91 101.519C145.85 94.802 150.223 94.0792 155.706 94.1145C155.864 94.2731 156.005 94.4494 156.111 94.6257C156.569 95.2604 156.799 95.9656 156.94 96.6885V96.7061C157.204 98.1518 157.063 99.7033 157.451 101.114Z" fill="#059E4F"/>
<path d="M145.176 90.6053C145.176 93.7082 145.176 96.8112 145.176 102.065C139.287 97.0404 134.58 94.2019 141.667 88.8423C143.695 87.6963 145.176 87.6787 145.176 90.6053Z" fill="#029D52"/>
<path d="M145.18 90.605C144.422 89.1946 143.118 88.8949 141.672 88.8596C141.813 80.3794 148.389 84.7341 152.197 83.6058C151.228 87.3081 148.883 89.653 145.18 90.605Z" fill="#059E4F"/>
<path d="M129.537 92.334C129.184 91.9814 129.043 91.5759 129.149 91.1175C129.166 91.0293 129.184 90.9412 129.219 90.853C128.972 89.9363 128.849 89.0018 128.814 88.0851C128.761 87.0096 128.814 85.9518 128.919 84.894C128.919 84.8763 128.919 84.8763 128.919 84.8763C129.078 83.3778 129.307 81.8792 129.448 80.3983C130.594 80.2925 131.723 80.2043 132.869 80.0985C133.398 79.5344 133.803 79.3757 134.12 79.6401C134.191 79.6754 134.261 79.746 134.314 79.8517V79.8693C134.42 80.0456 134.508 80.2572 134.579 80.5393C134.632 85.2113 135.901 90.3946 129.537 92.334Z" fill="#01A146"/>
<path d="M157.446 101.113C156.688 100.867 156.142 100.549 155.772 100.197C154.273 98.839 155.278 96.8468 155.595 95.0309C155.666 94.7135 155.701 94.4138 155.701 94.1141C155.683 91.6811 156.794 89.971 158.963 88.8955C159.033 89.4597 159.121 90.0239 159.21 90.5881C159.738 94.2375 160.056 97.8517 157.446 101.113Z" fill="#029851"/>
<path d="M144.98 107.707C144.98 108.835 145.033 110.281 143.693 110.439C141.33 110.721 140.378 108.535 139.268 107.072C138.386 105.908 139.444 104.992 140.731 104.833C142.952 104.533 144.716 105.045 144.98 107.707Z" fill="#099A4E"/>
<path d="M151.028 79.8688C145.545 80.0979 140.062 80.3272 134.579 80.5387C134.368 80.4858 134.139 80.4329 133.927 80.38C133.821 80.3448 133.733 80.3272 133.627 80.2919C133.38 80.2214 133.116 80.1685 132.869 80.098C133.292 79.9393 133.698 79.7806 134.121 79.6396C134.315 79.569 134.509 79.4985 134.703 79.4456C140.133 77.7002 145.563 77.7179 151.028 79.8688Z" fill="#1AA159"/>
<path d="M134.67 107.901C134.229 109.487 134.229 111.092 132.643 110.545C131.955 110.316 131.444 108.817 131.356 107.848C131.268 106.825 131.567 105.221 133.154 105.75C133.93 105.979 134.318 107.354 134.67 107.901Z" fill="#0B964E"/>
<path d="M158.701 87.1152C155.915 87.08 155.192 83.2541 152.195 83.6068V80.1865H152.636C153.553 80.1865 154.505 80.2041 155.422 80.2218H155.598C155.668 80.3628 155.739 80.5215 155.792 80.6625L155.81 80.6802C156.356 81.879 156.885 83.0779 157.432 84.2944C157.432 84.2944 157.432 84.2944 157.449 84.312C157.855 85.2464 158.278 86.1808 158.701 87.1152Z" fill="#059E4F"/>
<path d="M129.736 113.807C129.331 115.27 128.132 115.094 127.056 114.988C125.858 114.865 124.694 114.336 125.082 112.908C125.223 112.414 126.457 111.973 127.198 111.938C128.396 111.903 129.419 112.467 129.736 113.807Z" fill="#009E55"/>
<path d="M129.629 89.2469C129.452 89.7758 129.311 90.3223 129.223 90.8512C128.659 89.7229 128.077 88.6122 127.495 87.4838C127.425 87.3604 127.372 87.237 127.301 87.1136C128.624 85.0685 122.33 80.5904 129.452 80.3965C129.964 81.0312 130.316 81.6482 130.528 82.2653C131.356 84.6278 130.316 86.9373 129.629 89.2469Z" fill="#1C9B5A"/>
<path d="M106.761 87.0272C106.215 87.0448 105.668 87.0977 105.121 87.1682C105.121 87.1682 105.121 87.1682 105.104 87.1682C102.036 87.5032 98.9331 88.226 95.9713 86.9214C95.46 86.7098 94.9487 86.4278 94.4551 86.0752C94.984 85.7578 95.5305 85.4404 96.0594 85.1055C99.5326 85.2465 103.006 85.3876 106.497 85.5286C106.532 86.0399 106.62 86.5335 106.761 87.0272Z" fill="#6E66A9"/>
<path d="M85.9713 77.1895C85.9537 77.2776 85.936 77.3657 85.9008 77.4539C85.8655 77.4539 85.8126 77.4186 85.7773 77.3834C85.8479 77.3128 85.9008 77.2423 85.9713 77.1895Z" fill="#EFF8F4"/>
<path d="M87.2246 102.876C84.0336 99.2084 85.2148 96.4052 88.9701 94.1309C90.9271 97.5335 91.738 100.742 87.2246 102.876Z" fill="#745EC7"/>
<path d="M114.484 94.5367C112.986 95.9118 112.457 96.4055 111.928 96.8815C111.487 96.3526 110.605 95.7356 110.694 95.3301C110.835 94.6954 111.558 93.902 112.175 93.7257C112.739 93.5847 113.497 94.1664 114.484 94.5367Z" fill="#675EDB"/>
<path d="M64.4117 90.6057C66.968 97.3757 58.1705 96.5824 57.3772 101.113C55.0323 103.106 52.7051 102.929 50.3603 101.113C48.1036 97.3581 51.3652 95.7361 53.2517 93.5676C57.3243 92.88 59.1931 89.7771 60.9209 86.5331C62.2432 85.9865 63.4949 86.0747 64.6937 86.8681C65.4166 88.1727 65.4518 89.4244 64.4117 90.6057Z" fill="#1E60BD"/>
<path d="M53.8877 94.113C52.7241 96.4402 51.5429 98.785 50.3793 101.112C49.2157 101.112 48.0344 101.112 46.8708 101.112C45.9364 99.9486 45.813 98.7673 46.8708 97.6037C46.8708 95.2765 46.8708 92.9317 46.8708 90.6045C48.0344 90.6045 49.2157 90.6045 50.3793 90.6045C50.9611 90.6045 51.5605 90.6045 52.1423 90.6045C53.0767 91.6094 54.9984 92.1031 53.8877 94.113Z" fill="#2160B6"/>
<path d="M64.4155 90.6057C64.4155 89.4421 64.4155 88.2609 64.4155 87.0973C63.4634 86.3744 63.34 85.4224 63.6926 84.347C63.9218 84.1001 64.1686 83.8533 64.4155 83.5889C65.5791 83.5889 66.7427 83.5889 67.9239 83.5889C68.4352 85.8808 68.9465 88.1551 69.4578 90.447C67.7652 90.4999 66.0903 90.5528 64.4155 90.6057Z" fill="#1964BE"/>
<path d="M50.3594 101.112C52.7042 101.112 55.0314 101.112 57.3763 101.112C57.7994 102.664 58.8572 104.515 55.8777 104.585C53.286 104.656 50.6238 104.779 50.3594 101.112Z" fill="#245EB9"/>
<path d="M46.8509 97.6055C46.8509 98.7691 46.8509 99.9503 46.8509 101.114C46.4983 102.295 46.4806 104.428 44.6647 103.512C42.3199 102.313 43.6774 99.6506 43.36 97.6231C44.5236 97.6231 45.6873 97.6231 46.8509 97.6055Z" fill="#1666AB"/>
<path d="M76.7015 69.5723C79.6281 69.5899 82.5547 69.5899 85.4637 69.6076C85.4285 71.8995 85.3932 74.1914 85.358 76.4834C81.6732 77.312 78.4116 75.3903 74.9384 74.8614C74.4801 74.4735 74.339 74.0856 74.4801 73.6978C74.6211 73.3099 74.7622 73.116 74.9209 73.116C74.9737 71.635 75.3087 70.3304 76.7015 69.5723Z" fill="#205DC1"/>
<path d="M53.8841 94.1137C53.3023 92.9501 52.7205 91.7688 52.1211 90.6052C54.6599 90.6228 57.2163 90.6581 57.3749 87.1144C58.5562 86.1624 59.7374 86.1624 60.901 87.1144C61.6591 92.5622 59.2966 94.8718 53.8841 94.1137Z" fill="#1F61B5"/>
<path d="M59.145 80.0975C60.8904 82.125 62.6534 79.5157 64.4164 80.0975C64.4164 81.2611 64.4164 82.4247 64.4164 83.5883V83.6059C61.4898 85.7392 58.5808 85.7568 55.6542 83.6059C54.0851 80.362 54.0851 80.362 59.145 80.0975Z" fill="#1D5EC3"/>
<path d="M55.6484 83.6064C58.5751 83.6064 61.4841 83.6064 64.4107 83.6064C64.4107 84.77 64.4107 85.9337 64.4107 87.0973C63.2471 87.1149 62.0835 87.1149 60.9199 87.1325C59.7387 87.1325 58.5575 87.1325 57.3939 87.1325C55.9834 86.3568 55.6661 85.0521 55.6484 83.6064Z" fill="#1F64A5"/>
<path d="M74.9358 73.0986C74.9358 73.6804 74.9535 74.2622 74.9535 74.844C74.9535 75.4258 74.9358 76.0077 74.9358 76.5895C72.2736 78.423 68.6066 77.7354 66.1559 80.0979H65.292H64.4282C64.1461 77.0478 66.9317 75.514 67.919 73.0986C70.2638 73.0986 72.591 73.0986 74.9358 73.0986Z" fill="#1F5DAF"/>
<path d="M66.1562 80.0971C67.9193 76.0069 71.5511 76.6239 74.9361 76.5887C73.2436 80.8552 69.3473 79.5682 66.1562 80.0971Z" fill="#1B61BB"/>
</g>
<defs>
<clipPath id="clip0_5165_48985">
<rect width="192" height="192" fill="white"/>
</clipPath>
</defs>
</svg>
