<svg width="192" height="192" viewBox="0 0 192 192" fill="none" xmlns="http://www.w3.org/2000/svg">
<g clip-path="url(#clip0_4968_32168)">
<path d="M96 192C149.019 192 192 149.019 192 96C192 42.9807 149.019 0 96 0C42.9807 0 0 42.9807 0 96C0 149.019 42.9807 192 96 192Z" fill="#374E40"/>
<path d="M11.3418 125.698C11.3418 105.955 11.3418 86.0451 11.3418 66.3025C13.3495 63.6255 16.361 63.6255 19.2053 63.6255C70.4022 63.4582 121.599 63.4582 172.796 63.6255C175.64 63.6255 178.652 63.7929 180.66 66.3025C180.66 86.0451 180.66 105.955 180.66 125.698C178.652 128.375 175.64 128.375 172.796 128.375C121.599 128.542 70.4022 128.542 19.2053 128.375C16.1937 128.542 13.3495 128.375 11.3418 125.698Z" fill="#374E40"/>
<path d="M100.855 91.0649C103.866 88.8899 105.707 89.2245 105.874 93.2399C106.041 95.5823 106.041 98.0919 105.874 100.434C105.707 104.784 107.38 105.454 110.893 103.279C112.399 99.2631 110.391 94.9131 112.065 90.8977C112.901 90.563 113.738 89.0573 114.574 90.8977C116.08 94.9131 114.24 99.2632 115.578 103.446C117.419 105.286 119.092 104.784 120.765 103.446C120.932 99.2632 119.761 94.913 121.769 90.7303C122.772 89.5591 123.776 89.5591 124.446 91.0649C126.286 95.7496 126.286 100.267 124.446 104.952C124.278 105.956 124.446 107.127 123.274 107.796C121.769 110.306 119.426 110.138 116.917 109.804C115.578 108.131 113.738 108.632 111.897 108.8C109.388 109.469 106.878 109.469 104.368 108.8C102.193 107.629 100.018 106.625 100.52 103.613C100.018 99.2631 99.851 95.2477 100.855 91.0649Z" fill="#D0BFA0"/>
<path d="M85.7913 102.107C86.7952 107.294 90.8106 104.115 93.3203 104.449C97.3357 105.119 99.3434 105.62 95.6625 109.469C92.4836 110.64 89.4721 110.807 86.2932 109.469C83.7836 108.297 81.2739 107.294 79.9354 104.617C78.597 100.936 78.2623 97.2549 80.1027 93.7414C84.2855 87.7183 90.4759 90.0607 95.9972 90.0607C98.0049 90.0607 97.5029 92.0684 97.001 93.4069C93.8221 95.2473 89.974 93.2395 86.7951 94.578C86.4605 94.578 86.1259 94.578 85.9586 94.9126C85.2893 95.7492 85.7912 96.2512 86.4605 96.7531C89.3047 97.4223 92.1491 97.0876 94.9934 97.0876C95.328 97.0876 95.4953 97.0877 95.8299 96.9204C97.503 97.7569 97.1684 99.2627 97.1684 100.601C93.4875 102.776 89.4721 100.601 85.7913 102.107Z" fill="#D1C0A0"/>
<path d="M52.3283 105.954C50.6552 107.125 48.9821 108.296 47.309 109.467C44.1301 112.144 40.4492 111.475 36.7684 111.475C33.5895 110.973 31.2472 109.635 30.7452 106.121C29.9087 102.44 28.9048 98.9268 31.2471 95.4133C35.9318 92.569 36.7684 97.2538 38.9435 99.2615C45.1339 103.11 45.9704 102.942 47.1416 97.421C47.9782 93.5729 50.4879 95.9152 52.3283 96.0826C53.3321 99.4288 53.3321 102.608 52.3283 105.954Z" fill="#D0BFA1"/>
<path d="M141.177 94.7453C136.325 93.0722 134.149 94.9126 134.651 99.9319C134.819 101.772 134.986 103.613 134.484 105.453C133.815 108.465 132.142 109.636 129.465 107.126C128.796 103.111 128.796 98.928 129.465 94.9126C132.644 88.0529 141.846 87.5509 148.036 93.7414C151.884 97.9242 150.379 102.943 149.542 107.461C149.04 110.305 146.363 111.476 143.519 109.134C141.846 105.453 143.352 101.438 142.682 97.5896C142.515 97.0877 142.348 96.5857 142.013 96.0838C141.678 95.5819 141.344 95.2473 141.177 94.7453Z" fill="#CFBD9E"/>
<path d="M77.258 94.7472C77.258 97.9261 77.258 101.105 77.258 104.284C77.258 106.626 76.756 108.801 73.5771 108.132C71.904 104.117 73.7445 99.9338 72.406 95.9184C70.0637 93.7434 67.554 93.2414 64.7097 94.9145C63.3712 97.4241 64.3751 100.101 64.0405 102.611C63.8732 104.619 64.5424 106.794 62.3674 108.132C61.8655 109.303 60.8616 109.47 59.6904 108.969C58.6865 103.447 58.6865 97.9261 59.6904 92.2376C65.8809 87.7202 72.406 88.5567 77.258 94.7472Z" fill="#D5C2A5"/>
<path d="M143.52 107.127C143.687 108.465 144.524 109.636 145.862 109.469C147.535 109.302 148.204 107.963 148.204 106.458C148.204 102.275 148.204 97.9246 148.037 93.7419C149.71 93.24 149.041 89.5592 152.053 90.8977C153.224 95.7497 152.053 100.769 153.056 105.621C153.224 105.956 153.558 106.458 153.726 106.792C153.893 107.127 154.228 107.629 154.228 107.963C154.228 108.131 154.228 108.465 154.228 108.633C155.566 111.309 155.566 114.154 152.387 115.158C148.706 116.329 144.524 116.161 142.683 112.313C139.839 106.792 140.174 100.769 140.843 94.7458C141.177 94.7458 141.512 94.7458 141.847 95.0804C144.356 98.594 142.516 102.442 143.185 106.123C143.352 106.457 143.52 106.792 143.52 107.127Z" fill="#374E3E"/>
<path d="M21.2187 87.3825C21.386 84.3709 23.2264 83.5343 25.9033 83.7016C29.9188 82.8651 33.9342 82.8651 37.9497 83.7016C40.4593 83.8689 41.4632 85.7094 42.6343 87.5498C44.3074 90.5614 44.3074 93.4057 42.6343 96.4173C42.6343 96.7519 42.6344 97.0865 42.4671 97.4211C40.794 98.9269 39.2882 98.5923 37.7824 96.9192C36.2766 94.4095 38.7863 91.5653 37.2805 88.8883C33.767 89.3902 29.9188 87.5498 26.5726 90.2268C26.5726 90.5614 26.4053 90.7287 26.4053 91.0633C26.0707 93.071 26.9072 95.246 25.4014 97.0864C24.3976 97.7557 23.2264 98.2577 21.8879 97.5885C19.8802 95.5807 21.0514 92.7364 20.2148 90.2268C20.2148 88.8883 20.5494 88.0517 21.2187 87.3825Z" fill="#D8C2AA"/>
<path d="M164.931 109.467C161.752 108.463 159.41 106.455 158.406 103.276C155.561 99.2608 155.561 95.0781 158.573 91.0627C162.254 88.3857 163.258 89.8915 163.76 93.7396C164.094 97.2531 161.752 101.436 165.935 104.113C167.106 103.778 168.277 103.611 169.448 103.778C170.954 103.946 172.292 104.782 172.292 106.455C172.292 108.296 171.289 109.467 169.448 109.801C167.942 110.303 166.269 110.805 164.931 109.467Z" fill="#CCBC9F"/>
<path d="M164.932 109.468C165.1 109.468 165.267 109.468 165.602 109.301C167.609 108.966 170.956 109.97 171.123 106.958C171.29 103.612 167.777 105.285 165.936 104.282C166.773 103.612 167.609 102.943 168.279 102.106C170.788 103.278 174.469 100.935 175.807 105.453C178.317 113.484 175.473 116.495 165.769 114.989C165.936 113.149 169.282 114.153 168.613 112.145C168.111 109.97 165.936 110.974 164.43 110.639C164.263 110.639 163.928 110.472 163.928 110.472C163.594 109.635 164.43 109.635 164.932 109.468Z" fill="#384E3E"/>
<path d="M30.7479 106.124C32.0864 108.132 34.4287 108.466 36.4365 109.637C39.448 111.645 43.1288 109.136 46.1404 110.976C42.6269 117.501 36.9384 113.653 32.421 113.318C29.5767 112.984 29.9113 108.801 30.7479 106.124Z" fill="#384E3D"/>
<path d="M38.6097 96.084C39.279 98.0918 40.9521 97.0879 42.2906 97.2552C43.6291 98.5937 44.8002 99.7649 46.1387 101.103C43.2944 105.286 39.4462 101.773 36.2673 102.275C35.0962 99.5976 37.1039 94.7455 31.248 95.4148C33.0885 93.407 36.2674 92.9051 37.2713 89.8936C39.1117 91.5667 37.1039 94.2436 38.6097 96.084Z" fill="#394D3D"/>
<path d="M22.544 97.0879C23.3806 96.5859 24.2171 96.2513 25.0537 95.7494C26.5595 93.909 25.0537 91.5667 26.2249 89.8936L26.7268 90.0609C27.5633 94.411 29.9057 98.9283 24.8864 102.442C24.0499 103.613 22.8787 103.78 21.5402 103.446C21.0383 103.278 20.5364 102.776 20.2018 102.275C21.5402 101.605 22.8787 100.769 24.5518 99.7649C22.3768 98.0918 18.3614 98.5937 18.8633 94.7456C19.1979 94.411 19.6998 94.0764 20.2018 94.2437C21.0383 94.5783 21.5402 95.0802 21.8749 95.7494C21.8749 96.2513 22.0421 96.7532 22.544 97.0879Z" fill="#374D39"/>
<path d="M21.7215 102.442C22.7254 102.442 23.7293 102.442 24.7332 102.442C26.239 104.283 27.2428 106.458 25.2351 108.298C23.2274 110.139 21.5542 108.8 20.0484 107.127C18.7099 104.952 19.2118 103.279 21.7215 102.442Z" fill="#BCB396"/>
<path d="M168.275 102.274C163.423 98.5933 166.434 94.2433 166.936 90.0605C168.944 93.9087 167.94 98.0914 168.275 102.274Z" fill="#364F3C"/>
<path d="M152.047 109.301C150.876 103.11 148.534 96.9196 152.047 90.8965C152.884 91.0638 153.72 91.0637 154.389 91.231C154.557 91.3983 154.724 91.733 155.059 91.9003C155.226 92.5695 155.226 93.2387 154.891 93.7407C152.549 98.76 155.728 104.616 152.047 109.301Z" fill="#D1C0A1"/>
<path d="M47.6465 83.8693C49.6542 82.0289 51.662 81.6942 53.3351 84.0366C54.6735 85.877 54.1716 87.8848 52.8332 89.7252C51.4947 91.3983 50.1562 92.2348 48.6504 89.8924C48.8177 89.0559 49.1523 88.3867 49.1523 87.5502C49.1523 87.0482 48.985 86.5463 48.6504 86.0443C48.1485 85.3751 47.8138 84.7059 47.6465 83.8693Z" fill="#3A5040"/>
<path d="M36.2637 102.274C39.2753 100.266 43.1234 103.947 46.135 101.103C46.135 99.7642 46.3023 98.4257 47.1388 97.4219C47.3061 104.114 44.6292 105.285 36.2637 102.274Z" fill="#3A5040"/>
<path d="M59.8597 92.5703C59.8597 98.0915 59.8597 103.613 59.8597 109.301C57.852 103.78 58.0193 98.2589 59.8597 92.5703Z" fill="#CBBB9C"/>
<path d="M154.557 92.2347C154.557 91.9 154.39 91.5654 154.39 91.0635C155.226 91.0635 156.063 91.0635 156.9 91.0635C157.903 95.5808 157.903 100.098 156.9 104.616C156.565 105.452 156.23 106.289 155.896 107.125C152.215 102.441 154.055 97.254 154.557 92.2347Z" fill="#415242"/>
<path d="M154.562 92.2354C156.904 97.0873 155.064 102.274 155.9 107.126C155.398 107.628 154.896 108.13 154.394 108.632L154.562 108.13C152.052 104.449 153.725 100.434 153.223 96.5854C153.223 95.0796 153.223 93.7412 154.227 92.57L154.562 92.2354Z" fill="#CBC0A4"/>
<path d="M62.543 108.463C65.2199 104.447 62.0411 99.2606 64.8854 95.2451C63.7142 99.5952 67.2277 104.615 62.543 108.463Z" fill="#3A5040"/>
<path d="M117.082 109.637C119.257 108.967 121.265 108.298 123.44 107.629C122.436 111.477 121.599 111.644 117.082 109.637Z" fill="#374C3A"/>
<path d="M89.8105 114.152C92.6548 111.81 94.328 111.977 96.3357 113.148C94.6626 115.49 92.8221 114.319 89.8105 114.152Z" fill="#364E3A"/>
<path d="M124.609 104.783C124.609 100.099 124.609 95.5812 124.609 90.8965C124.944 91.0638 125.279 91.0638 125.613 91.0638C126.784 95.5811 126.952 100.098 125.613 104.616C125.279 104.616 124.944 104.783 124.609 104.783Z" fill="#D4C4AA"/>
<path d="M47.6428 83.8696C49.3159 83.7023 51.1564 82.6984 52.3276 84.8735C50.9891 85.71 49.6505 86.5466 50.989 88.387C50.1525 88.889 49.4833 89.2236 48.6467 89.7255C48.1448 88.8889 47.6429 88.0524 47.3083 87.2158C46.639 86.0447 46.3043 84.8735 47.6428 83.8696Z" fill="#CE774D"/>
<path d="M125.613 104.616C125.613 100.098 125.613 95.5808 125.613 91.0635C127.788 95.7482 127.956 100.098 125.613 104.616Z" fill="#3E5241"/>
<path d="M157.07 104.785C157.07 100.267 157.07 95.7498 157.07 91.2324C157.572 91.2324 158.074 91.2324 158.576 91.2324C158.576 95.2479 158.409 99.2634 158.409 103.446C157.907 103.781 157.405 104.283 157.07 104.785Z" fill="#354A36"/>
<path d="M86.4648 109.468C89.6436 109.468 92.6553 109.468 95.8342 109.468C92.6553 112.312 88.9744 110.304 85.6282 110.639L85.4609 110.137C85.6282 109.802 85.9628 109.635 86.4648 109.468Z" fill="#364B39"/>
<path d="M84.7852 96.9195C85.2871 96.2502 85.6217 95.581 86.1236 95.0791C88.9679 97.2541 92.9834 94.9118 95.995 97.2541L96.1622 97.756C92.3141 97.5887 88.466 99.0945 84.7852 96.9195Z" fill="#4D5D49"/>
<path d="M72.406 96.083C74.4137 99.9311 73.0752 104.114 73.5771 108.297C71.0674 104.448 72.7406 100.098 72.406 96.083Z" fill="#CBBB9C"/>
<path d="M100.853 91.0635C100.853 95.2462 100.853 99.2617 100.853 103.444C99.1804 99.2617 99.0131 95.2462 100.853 91.0635Z" fill="#3E4F3D"/>
<path d="M80.2739 93.7402C80.2739 97.4211 80.1066 101.102 80.1066 104.615C77.095 101.938 79.9393 97.5884 77.4297 94.7442C78.2662 94.4095 79.27 94.0749 80.2739 93.7402Z" fill="#354C38"/>
<path d="M129.466 94.9141C129.466 98.9295 129.466 103.112 129.466 107.128C127.793 103.112 127.793 98.9295 129.466 94.9141Z" fill="#3E5241"/>
<path d="M112.229 91.0635C111.728 95.2462 113.233 99.5963 111.058 103.444C111.393 99.2617 109.72 94.9116 112.229 91.0635Z" fill="#CBBC9F"/>
<path d="M121.934 90.7295C121.767 94.9122 123.105 99.2624 120.93 103.445L120.428 103.612C120.428 99.4296 119.592 95.2468 120.93 91.2314C121.265 91.0641 121.599 90.8968 121.934 90.7295Z" fill="#CBBC9F"/>
<path d="M120.928 91.0635C120.761 95.2462 121.43 99.2617 120.426 103.444C119.422 99.2617 118.753 95.2462 120.928 91.0635Z" fill="#374937"/>
<path d="M115.745 103.445C113.57 99.4293 115.075 95.0792 114.741 90.8965C117.25 94.9119 115.577 99.262 115.745 103.445Z" fill="#D3C4AA"/>
<path d="M46.1434 110.973C42.9645 110.137 39.2837 112.646 36.4395 109.635C40.1203 109.635 43.8011 109.635 47.3146 109.635C46.98 109.969 46.478 110.471 46.1434 110.973Z" fill="#374A37"/>
<path d="M85.7988 102.106C89.647 101.604 93.3278 101.27 97.1759 100.768C93.6624 103.612 89.647 101.939 85.7988 102.106Z" fill="#4A5A47"/>
<path d="M37.7736 83.5371C33.7582 83.5371 29.7427 83.5371 25.8945 83.5371C29.7427 82.5332 33.7582 82.5332 37.7736 83.5371Z" fill="#D0BEA1"/>
<path d="M86.9668 94.7444C90.313 94.4098 93.8266 93.9079 97.1728 93.5732C93.9939 96.0829 90.313 94.5771 86.9668 94.7444Z" fill="#4D5D49"/>
<path d="M52.334 105.954C52.6686 102.608 53.3378 99.4292 52.334 96.083C54.3417 99.4292 54.1744 102.608 52.334 105.954Z" fill="#3A5040"/>
<path d="M43.4664 87.7168C46.1434 90.5611 45.1396 93.2381 43.2992 95.915C42.9645 93.2381 42.6299 90.3938 43.4664 87.7168Z" fill="#374B36"/>
<path d="M43.4641 87.7187C43.4641 90.3957 43.2968 93.24 43.2968 95.9169C42.9622 95.9169 42.6276 96.0842 42.293 96.0842C42.293 93.0726 42.293 90.2284 42.293 87.2168C42.7949 87.5514 43.1294 87.5514 43.4641 87.7187Z" fill="#D0BEA1"/>
<path d="M21.0411 96.2532C20.5391 95.7512 20.2045 95.4166 19.7026 94.9147C19.2007 92.405 18.5314 89.8955 20.2045 87.5531C20.5391 87.5531 20.7064 87.5531 21.0411 87.3857C21.0411 88.2223 21.2083 89.2262 21.2083 90.0628C22.0449 92.0705 22.3795 94.2454 21.0411 96.2532Z" fill="#908F7A"/>
<path d="M21.7169 102.445C20.5457 103.783 20.2111 105.456 20.0438 107.129C17.7014 105.623 18.8726 103.95 20.0438 102.277C20.5457 102.277 21.2149 102.445 21.7169 102.445Z" fill="#374D37"/>
<path d="M38.6158 96.0814C36.9427 94.241 38.1139 91.8986 37.2773 89.8909C37.4447 89.5563 37.2773 89.0543 37.2773 88.7197C39.4524 90.7274 38.4485 93.5718 38.6158 96.0814Z" fill="#D0BEA1"/>
<path d="M20.3782 87.3857C20.2109 89.8954 20.0436 92.2378 19.8763 94.7474C19.5416 94.7474 19.2071 94.7474 18.8724 94.7474C19.0397 92.2378 17.8685 89.5608 20.3782 87.3857Z" fill="#354E38"/>
<path d="M104.703 108.632C107.213 108.632 109.722 108.632 112.232 108.632C109.722 110.138 107.213 110.305 104.703 108.632Z" fill="#4F604B"/>
<path d="M47.6464 83.8701C47.4791 85.0413 47.3119 86.2124 47.3119 87.3836C46.6426 86.3797 44.9695 85.7105 45.4714 84.2048C45.4714 83.8701 46.8099 83.8701 47.6464 83.8701Z" fill="#3A5040"/>
<path d="M84.7852 96.9209C88.466 97.0882 92.1468 97.4229 95.995 97.5902C92.1468 98.7614 88.2987 99.5979 84.7852 96.9209Z" fill="#D2C4A8"/>
<path d="M142.848 94.9141C145.525 98.7622 144.856 102.945 143.518 106.96L143.016 107.128C142.346 103.112 142.681 99.0968 142.848 94.9141Z" fill="#CDC5A7"/>
<path d="M142.855 94.9141C142.855 98.9295 143.022 103.112 143.022 107.128C141.014 103.28 142.353 99.0969 142.018 95.0814C142.353 95.0814 142.687 95.0814 142.855 94.9141Z" fill="#374E40"/>
<path d="M154.394 92.5703C154.394 93.7415 154.561 94.9126 154.561 96.0838C152.888 100.099 155.063 104.449 153.39 108.632C153.223 109.301 152.888 109.803 152.052 109.469C152.052 105.62 152.052 101.605 152.052 97.7569C152.052 95.5819 151.55 93.2396 154.394 92.5703Z" fill="#D9C09D"/>
<path d="M153.385 108.631C153.72 104.449 152.214 100.098 154.556 96.083C154.556 100.098 154.556 104.114 154.724 108.129C154.222 108.297 153.72 108.464 153.385 108.631Z" fill="#D1C0A1"/>
<path d="M25.8945 86.5479C28.9061 86.5479 32.085 86.5479 35.0966 86.5479C35.0966 86.7152 35.0966 86.8825 35.0966 86.8825C32.085 86.8825 28.9061 86.8825 25.8945 86.8825C25.8945 86.8825 25.8945 86.7152 25.8945 86.5479Z" fill="#D9C3AB"/>
<path d="M21.0449 96.2509C21.2122 94.2432 21.2123 92.0683 21.3796 90.0605C23.0527 92.2356 22.3833 94.7452 22.5507 97.2549C22.0487 96.7529 21.5469 96.4182 21.0449 96.2509Z" fill="#D9C3AB"/>
<path d="M26.0677 89.8936C25.7331 91.9013 27.2388 94.2436 24.8965 95.7494C25.0638 93.7417 24.5619 91.5667 26.0677 89.8936Z" fill="#D0BEA1"/>
<path d="M50.9923 88.5555C50.1558 88.0535 49.1519 87.3843 49.3192 86.3805C49.6538 84.8747 51.1597 85.2093 52.3309 85.042C51.829 86.2132 51.4943 87.3843 50.9923 88.5555Z" fill="#DF763E"/>
</g>
<defs>
<clipPath id="clip0_4968_32168">
<rect width="192" height="192" fill="white"/>
</clipPath>
</defs>
</svg>
