<svg width="192" height="192" viewBox="0 0 192 192" fill="none" xmlns="http://www.w3.org/2000/svg">
<g clip-path="url(#clip0_5166_51327)">
<path d="M96 192C149.019 192 192 149.019 192 96C192 42.9807 149.019 0 96 0C42.9807 0 0 42.9807 0 96C0 149.019 42.9807 192 96 192Z" fill="white"/>
<path d="M177.049 100.521C178.978 99.5264 180.751 98.4162 182.836 98.0243C183.494 97.8987 184.117 97.6526 184.785 97.959C185.398 98.2404 186.112 98.4513 185.986 99.3204C185.86 100.174 185.222 100.164 184.484 100.205C181.023 100.39 177.893 101.199 176.642 105.007C176.496 105.449 176.24 105.876 175.803 105.756C173.372 105.072 171.382 106.886 169.062 106.871C167.454 106.861 165.836 107.007 164.616 105.751C163.963 105.072 163.365 105.183 162.586 105.359C158.472 106.298 157.1 105.67 155.643 101.862C155.096 100.431 154.498 100.496 153.458 101.179C151.841 102.239 150.484 103.59 149.088 104.912C147.827 106.102 146.998 105.715 146.817 104.028C146.701 102.952 146.606 101.862 146.651 100.782C146.691 99.6871 146.48 99.2099 145.189 99.1546C141.708 99.014 141.658 98.9788 142.155 102.435C142.286 103.344 142.416 104.249 142.552 105.158C142.652 105.821 142.441 106.353 141.763 106.514C141.035 106.69 140.598 106.107 140.497 105.58C140.201 104.028 139.98 102.455 139.879 100.883C139.814 99.8278 139.94 98.8583 138.362 99.1044C137.604 99.22 136.76 99.1396 136.79 98.0394C136.82 96.9543 137.719 96.9292 138.433 96.9844C139.789 97.095 139.794 96.3464 139.884 95.3116C140.115 92.5787 140.432 89.8459 140.889 87.1432C141.035 86.2842 141.256 84.8826 142.637 85.1739C144.134 85.4904 143.521 86.6911 143.24 87.6003C142.472 90.087 142.391 92.6893 141.939 95.2262C141.602 97.1151 142.914 97.0397 144.064 97.0096C145.164 96.9844 146.812 98.0595 146.887 95.618C146.953 93.5232 147.621 91.5338 148.766 89.7354C149.173 89.0924 149.721 88.7558 150.439 89.1225C151.303 89.5596 150.956 90.2076 150.595 90.8054C148.58 94.1411 148.882 97.8435 148.786 101.898C150.248 100.858 151.434 99.9082 152.715 99.1195C155.468 97.4265 156.739 97.9088 157.678 100.943C158.115 102.355 158.577 103.756 160.421 103.636C162.219 103.52 163.676 103.174 164.128 100.822C164.55 98.6322 165.972 96.7182 167.881 95.3668C169.177 94.4525 170.689 93.9401 172.01 95.1358C173.236 96.251 172.869 97.7882 172.236 99.0843C171.262 101.084 169.428 102.073 167.394 102.762C166.831 102.952 165.872 102.807 166.002 103.807C166.108 104.61 166.846 104.721 167.539 104.781C169.78 104.977 171.799 104.143 173.839 103.42C174.693 103.118 174.567 102.425 174.572 101.772C174.577 101.355 174.557 100.938 174.577 100.521C174.633 99.2401 174.311 97.3662 176.085 97.4265C177.843 97.4818 176.486 99.3455 177.049 100.521Z" fill="#010101"/>
<path d="M111.554 102.138C112.137 99.6317 113.337 97.4816 115.266 95.7635C116.613 94.5629 118.301 93.8244 119.773 95.0652C121.405 96.4417 120.727 98.3004 119.667 99.8025C118.577 101.345 116.969 102.234 115.166 102.797C114.593 102.972 113.629 102.917 113.82 103.892C113.97 104.645 114.764 104.816 115.437 104.766C118.572 104.53 121.732 104.51 123.671 101.244C124.867 99.2298 126.725 97.7227 128.755 96.507C129.775 95.8992 130.855 95.442 132.075 95.6731C133.085 95.864 134.311 96.2508 134.11 97.4163C133.904 98.6019 132.769 98.3758 131.869 97.9337C131.277 97.6423 130.704 97.8081 130.192 98.0794C127.484 99.5312 125.384 101.521 124.435 104.525C125.354 105.228 125.746 104.454 126.218 104.093C127.544 103.083 128.785 101.953 130.171 101.038C131.548 100.124 132.874 99.7322 132.889 102.239C132.899 104.258 134.02 104.635 135.723 103.942C135.878 103.882 136.034 103.776 136.19 103.771C137.24 103.741 138.636 102.093 139.214 103.605C139.912 105.429 137.762 105.489 136.672 105.906C133.186 107.247 131.744 106.615 130.604 103.49C129.021 103.982 128.107 105.364 126.846 106.273C125.324 107.378 123.797 108.242 122.385 106.147C121.621 105.017 120.888 106.052 120.21 106.198C117.271 106.841 114.332 107.83 111.8 105.188C110.775 104.253 110.569 103.244 111.554 102.138Z" fill="#010101"/>
<path d="M111.556 102.138C111.637 103.158 111.722 104.178 111.802 105.193C107.532 107.162 102.986 107.725 98.3593 107.649C94.8026 107.594 93.5216 106.067 94.1897 102.475C94.8729 98.7927 95.9479 95.1858 96.7266 91.5186C97.3144 88.7455 97.7313 85.9373 98.1784 83.1392C98.3693 81.9486 98.4547 80.547 100.042 80.6977C101.821 80.8685 101.278 82.4309 101.167 83.4908C100.56 89.3986 99.2686 95.1707 97.6911 100.888C96.7568 104.279 97.2943 104.891 100.881 104.63C104.568 104.374 108.14 103.595 111.556 102.138Z" fill="#0ECDCD"/>
<path d="M29.9517 90.3325C30.0271 92.0657 29.0224 93.2312 27.656 93.9395C24.3253 95.6676 20.8992 97.2249 17.5233 98.8676C16.6191 99.3097 15.8404 99.1942 15.4184 98.2749C15.0015 97.3706 15.3984 96.6573 16.2926 96.2403C18.8646 95.0346 21.4568 93.8742 23.9937 92.6032C24.9784 92.1109 26.5005 91.8547 26.3498 90.3677C26.1941 88.8254 24.6518 88.6044 23.4864 88.3482C19.0807 87.3887 14.6498 86.5699 10.2291 85.6706C9.24945 85.4697 8.26483 85.2436 7.33546 84.892C6.43624 84.5554 5.65255 84.0028 6.15994 82.8222C6.59699 81.8075 7.45603 81.4357 8.42056 81.8527C13.0875 83.8621 18.1865 83.9727 23.0192 85.2135C25.2044 85.7761 27.4148 86.3036 29.0375 88.0719C29.6302 88.72 29.9718 89.4484 29.9517 90.3325Z" fill="#0ECDCD"/>
<path d="M40.9391 100.576C42.9133 99.5062 44.7671 98.381 46.9322 97.9741C47.6004 97.8485 48.2233 97.6978 48.8764 98.0092C49.5194 98.3157 50.1222 98.6723 49.9012 99.4862C49.7254 100.139 49.1577 100.33 48.5046 100.205C45.9476 99.7223 44.0889 101.275 42.0844 102.4C41.8684 102.52 41.6223 102.681 41.5218 102.887C39.2662 107.65 34.6897 106.384 30.917 106.69C28.4202 106.896 27.2849 104.997 27.6717 102.475C28.1037 99.6469 29.4199 97.2707 31.6755 95.5075C32.9817 94.4877 34.6194 93.8396 35.9757 95.191C37.2668 96.482 36.8147 98.1499 35.9155 99.5565C34.7902 101.32 33.0621 102.279 31.0677 102.837C30.5854 102.973 29.7414 102.942 29.9323 103.822C30.068 104.449 30.6156 104.691 31.2536 104.766C33.5845 105.032 35.6844 104.213 37.7893 103.415C38.3368 103.209 38.5378 102.827 38.5127 102.264C38.4875 101.681 38.4926 101.099 38.5127 100.516C38.5629 99.235 38.2565 97.3612 40.0197 97.4265C41.7529 97.4868 40.4618 99.3304 40.9391 100.576Z" fill="#020202"/>
<path d="M10.8736 101.093C11.0092 97.024 11.2955 92.97 12.1797 88.9762C12.4108 87.9263 12.6469 86.8914 14.0384 87.2782C15.2642 87.6148 15.2793 88.514 15.0633 89.6644C13.9581 95.4868 13.4205 101.339 14.2946 107.257C14.4403 108.252 14.9025 109.608 13.2749 109.854C11.5568 110.116 11.5216 108.664 11.3558 107.553C11.0343 105.418 10.7379 103.268 10.8736 101.093Z" fill="#10CECE"/>
<path d="M69.2863 108.991C70.7783 109.041 73.6317 106.585 73.9984 104.837C74.4355 102.782 72.7777 102.365 71.4716 101.682C70.8788 101.37 70.2659 101.099 69.6982 100.757C67.955 99.7075 67.6988 98.2908 69.1758 96.9194C71.1802 95.0556 73.6418 94.0157 76.3646 93.7093C77.4195 93.5887 78.585 93.8449 78.5599 95.136C78.5297 96.5175 77.525 96.0704 76.5404 95.9649C74.6515 95.769 73.0138 96.7235 71.5017 97.7633C70.7833 98.2557 70.8084 98.8535 71.6172 99.3106C71.9086 99.4714 72.205 99.6221 72.5014 99.7778C75.8873 101.576 76.6107 102.671 76.0933 105.238C75.6311 107.544 72.0443 111.096 69.9293 111.287C68.8945 111.377 67.7541 111.307 67.5984 110.011C67.4728 108.926 68.1811 108.544 69.2863 108.991Z" fill="#030303"/>
<path d="M51.4561 108.956C53.1289 109.011 55.706 106.76 56.1783 104.836C56.7309 102.581 54.8169 102.309 53.5208 101.571C52.3252 100.888 50.6221 100.626 50.5267 98.9185C50.4212 97.0497 52.0288 96.2559 53.3851 95.4723C55.1183 94.4726 56.972 93.6738 59.0317 93.704C60.0213 93.719 60.9959 94.1963 60.8402 95.2914C60.6945 96.3464 59.8153 96.1203 58.881 95.9997C56.9017 95.7335 55.2037 96.7382 53.6313 97.8384C53.0435 98.2503 52.9983 98.7878 53.7016 99.1948C54.0583 99.4057 54.4401 99.5765 54.8068 99.7725C59.2728 102.134 59.735 105.153 56.1079 108.8C54.8319 110.081 53.5157 111.457 51.436 111.287C50.5267 111.211 49.738 110.834 49.8435 109.785C49.9239 108.845 50.5518 108.524 51.4561 108.956Z" fill="#030303"/>
<path d="M60.1027 102.012C60.2584 101.183 60.4493 99.7065 60.8462 98.2899C61.0471 97.5765 61.655 96.9636 62.5743 97.26C63.5891 97.5865 63.4283 98.2898 63.0666 99.0484C62.8858 99.4202 62.7049 99.817 62.6446 100.219C62.4387 101.59 61.7354 103.193 62.8456 104.263C63.991 105.373 65.3021 104.087 66.5178 103.761C67.5577 103.484 68.5574 103.057 69.6023 102.826C70.2956 102.67 70.9487 102.907 71.0944 103.756C71.225 104.514 70.6975 104.74 70.0997 104.926C68.4369 105.443 66.7992 106.031 65.1263 106.508C61.6701 107.483 60.0525 106.227 60.1027 102.012Z" fill="#050505"/>
<path d="M66.3022 92.4428C66.1716 93.5028 65.5738 94.1609 64.5088 94.0705C63.6447 93.9952 62.9414 93.5079 62.9414 92.478C62.9464 91.3879 63.5342 90.7499 64.5992 90.7348C65.6793 90.7147 66.2419 91.3728 66.3022 92.4428Z" fill="#111111"/>
<path d="M166.504 100.757C166.896 99.1497 167.75 98.1751 168.694 97.2759C169.171 96.8187 169.779 96.2611 170.367 96.874C170.879 97.4015 170.553 98.1249 170.131 98.6724C169.297 99.7726 168.127 100.325 166.504 100.757Z" fill="#EEEEEE"/>
<path d="M114.236 100.787C114.849 99.205 115.527 98.1752 116.442 97.3262C116.909 96.8942 117.572 96.2813 118.15 96.8339C118.768 97.4267 118.366 98.2053 117.853 98.7931C116.979 99.8129 115.879 100.421 114.236 100.787Z" fill="#F0F0F0"/>
<path d="M30.3887 100.802C30.886 99.1244 31.735 98.0694 32.7799 97.1451C33.227 96.7533 33.7746 96.3564 34.282 96.8437C34.7441 97.2908 34.5281 97.9439 34.2066 98.4462C33.3576 99.7624 32.0465 100.3 30.3887 100.802Z" fill="#EFEFEF"/>
</g>
<defs>
<clipPath id="clip0_5166_51327">
<rect width="192" height="192" fill="white"/>
</clipPath>
</defs>
</svg>
