<svg width="192" height="192" viewBox="0 0 192 192" fill="none" xmlns="http://www.w3.org/2000/svg">
<g clip-path="url(#clip0_4915_31910)">
<path d="M96 192C149.019 192 192 149.019 192 96C192 42.9807 149.019 0 96 0C42.9807 0 0 42.9807 0 96C0 149.019 42.9807 192 96 192Z" fill="white"/>
<path d="M168.505 75.9951C168.385 78.5151 168.245 81.0251 168.145 83.5451C167.985 87.3151 167.835 91.0851 167.705 94.8551C167.685 95.3551 167.535 95.5751 167.055 95.6051C166.695 95.6251 166.345 95.6451 165.985 95.6551C160.565 95.6551 155.145 95.6551 149.735 95.6751C149.325 95.6751 149.185 95.6751 149.145 95.1751C148.705 89.9651 148.235 84.7551 147.725 79.5551C147.635 78.6551 147.875 78.3751 148.755 78.2951C154.955 77.6951 161.155 77.0351 167.355 76.4151C167.745 76.3751 168.115 76.3451 168.505 76.0151V75.9951ZM153.185 85.5951C153.155 87.2351 153.485 88.4551 154.125 89.6051C155.305 91.7251 157.555 92.7451 159.915 92.2251C161.655 91.8451 163.185 89.8351 163.385 87.6751C163.535 86.0351 163.285 85.8551 161.735 86.3351C160.795 86.6251 159.895 87.0951 158.875 87.0951C158.575 87.0951 158.045 86.6551 158.025 87.2251C158.015 87.6551 157.855 88.3651 158.535 88.5851C158.755 88.6551 159.115 88.5251 159.055 88.9051C159.015 89.2051 158.905 89.5551 158.555 89.6751C158.255 89.7751 158.005 89.6351 157.835 89.3751C157.665 89.1051 157.485 88.8551 157.325 88.5851C156.335 86.9551 156.315 85.2051 156.715 83.4151C156.795 83.0451 156.965 82.6251 157.415 82.5451C157.855 82.4651 158.045 82.8351 158.195 83.1451C158.435 83.6251 158.645 84.1151 158.815 84.6151C158.965 85.0651 159.195 85.1551 159.615 84.9751C160.535 84.5851 161.465 84.2151 162.385 83.8251C162.665 83.7051 162.865 83.5851 162.715 83.1851C162.085 81.5351 160.955 80.4351 159.255 79.9651C157.745 79.5451 156.365 79.7651 155.205 80.9151C153.795 82.2951 153.235 84.0051 153.165 85.5951H153.185Z" fill="#FD0031"/>
<path d="M33.8139 95.6752C31.0339 95.6752 28.2439 95.6452 25.4639 95.6952C24.9639 95.6952 24.9739 95.5352 24.9439 95.1752C24.4739 89.8852 24.0039 84.6052 23.5039 79.3252C23.4239 78.4652 23.9739 78.3952 24.5539 78.3252C26.3639 78.1252 28.1739 77.9452 29.9839 77.7652C34.3139 77.3252 38.6439 76.9152 42.9639 76.4252C43.8639 76.3252 43.9539 76.5852 43.9139 77.3752C43.6139 83.1752 43.3539 88.9752 43.1139 94.7852C43.0839 95.5252 42.8039 95.6652 42.1539 95.6652C39.3739 95.6452 36.5839 95.6552 33.8039 95.6552V95.6752H33.8139ZM30.0339 86.8252H30.1039C30.1039 88.4252 30.1239 90.0352 30.0939 91.6352C30.0839 92.2952 30.2039 92.6352 30.9839 92.5352C31.9739 92.4052 32.9739 92.3652 33.9739 92.3452C34.6839 92.3352 34.8139 92.0152 34.6739 91.3952C34.5239 90.7352 34.4439 90.0652 34.3039 89.4052C34.1639 88.7352 34.2639 88.3452 35.0739 88.2652C35.8839 88.1852 36.6739 87.9352 37.4739 87.7552C38.5339 87.5152 39.0639 86.8752 39.0039 85.7752C38.9339 84.4552 38.8839 83.1452 38.7739 81.8252C38.6839 80.6752 38.3539 80.4152 37.1739 80.5252C35.0739 80.7052 32.9839 80.9552 30.8939 81.1152C30.1739 81.1652 30.0039 81.4752 30.0139 82.1252C30.0439 83.6952 30.0139 85.2652 30.0139 86.8252H30.0339Z" fill="#FD0031"/>
<path d="M75.6839 95.3253C73.0439 95.3253 70.4139 95.3053 67.7739 95.3353C67.0239 95.3453 66.8139 95.0453 66.7739 94.3353C66.4939 88.8253 66.2039 83.3153 65.8639 77.8053C65.8039 76.8653 66.0539 76.6953 66.9739 76.7753C72.6439 77.2853 78.3239 77.7053 83.9939 78.2053C85.2939 78.3153 85.5939 77.9953 85.4539 79.9053C85.0839 84.7353 84.8239 89.5653 84.5739 94.4053C84.5239 95.4353 84.1639 95.7153 83.1539 95.6853C80.6639 95.6153 78.1639 95.6653 75.6739 95.6653C75.6739 95.5453 75.6739 95.4353 75.6739 95.3153L75.6839 95.3253ZM70.6539 86.5753C70.6239 87.4553 70.8239 88.4253 71.1839 89.3653C72.1539 91.8653 74.3639 93.2553 76.9439 92.9953C78.9639 92.7953 80.6939 90.9053 80.9939 88.3853C81.1739 86.8253 81.3939 86.0053 79.0539 86.8253C77.6639 87.3053 76.3039 87.5653 76.4639 89.4753C76.4839 89.6953 76.4339 89.9853 76.1039 90.0553C75.7539 90.1253 75.6039 89.9153 75.4239 89.6753C73.9839 87.8553 73.9239 85.8253 74.5139 83.7053C74.5839 83.4553 74.7039 83.2253 75.0039 83.2053C75.3239 83.1853 75.5339 83.3353 75.6539 83.6453C75.8539 84.1753 76.0839 84.6953 76.2939 85.2253C76.4639 85.6553 76.7439 85.8553 77.2139 85.6653C78.1339 85.2953 79.0539 84.9153 79.9639 84.5453C80.3439 84.3953 80.5139 84.1653 80.4139 83.7253C79.9039 81.3953 76.5339 79.5653 74.2739 80.4153C72.1739 81.1953 70.6939 83.6653 70.6539 86.5853V86.5753Z" fill="#C8B609"/>
<path d="M117.645 95.6349C114.895 95.6349 112.155 95.6149 109.405 95.6549C108.905 95.6549 108.725 95.5549 108.685 95.0449C108.235 89.8349 107.795 84.6249 107.285 79.4149C107.195 78.4549 107.785 78.4349 108.365 78.3749C111.095 78.0949 113.825 77.8549 116.555 77.5749C119.885 77.2249 123.215 76.8849 126.535 76.4849C127.365 76.3849 127.665 76.5349 127.615 77.4349C127.315 83.2249 127.055 89.0249 126.805 94.8249C126.775 95.5049 126.485 95.6449 125.875 95.6449C123.125 95.6249 120.385 95.6349 117.635 95.6349C117.635 95.6349 117.635 95.6449 117.635 95.6549L117.645 95.6349ZM120.525 85.1349C120.865 85.4649 120.745 85.8349 120.765 86.1749C120.845 87.9149 120.935 89.6649 120.975 91.4049C120.985 92.0849 121.185 92.3749 121.915 92.2749C122.865 92.1349 123.825 92.0649 124.785 92.0049C125.455 91.9649 125.635 91.7049 125.435 91.0549C124.495 88.1049 123.595 85.1449 122.675 82.1949C122.285 80.9449 121.305 80.6649 120.305 81.5649C119.725 82.0849 119.185 82.6549 118.675 83.2449C118.285 83.6949 118.015 83.7449 117.585 83.2749C116.985 82.6249 116.335 82.0149 115.665 81.4349C114.925 80.8049 114.015 80.9549 113.765 81.7249C112.775 84.8049 111.815 87.9049 110.845 90.9949C110.615 91.7049 110.795 92.0749 111.595 92.1049C112.415 92.1349 113.235 92.1949 114.045 92.3249C114.975 92.4749 115.305 92.1549 115.325 91.2049C115.345 89.2649 115.485 87.3249 115.575 85.2149C116.495 86.0149 116.955 86.9449 117.585 87.7249C117.965 88.2049 118.235 88.3049 118.625 87.7149C119.215 86.8349 119.885 86.0149 120.535 85.1549L120.525 85.1349Z" fill="#FF5C2A"/>
<path d="M54.7047 95.575C51.7447 95.575 48.7947 95.555 45.8347 95.585C45.0247 95.595 44.9947 95.175 45.0247 94.575C45.2747 90.455 45.5247 86.335 45.7647 82.215C45.8247 81.225 45.8947 80.225 45.9247 79.235C45.9447 78.635 46.1647 78.345 46.7947 78.285C51.7147 77.795 56.6447 77.295 61.5647 76.765C62.2447 76.695 62.5747 76.795 62.6547 77.585C63.2347 83.285 63.8547 88.975 64.4847 94.665C64.5547 95.315 64.3747 95.545 63.6847 95.535C60.6947 95.505 57.6947 95.525 54.7047 95.525C54.7047 95.545 54.7047 95.555 54.7047 95.575ZM59.3747 86.845C59.3747 84.075 58.3647 82.155 56.5847 80.615C55.3647 79.565 54.1847 79.565 52.8947 80.525C50.5847 82.265 49.5247 85.675 50.5047 88.375C51.0947 90.005 52.1947 91.155 53.9047 91.645C56.1047 92.275 57.7347 91.705 58.5447 89.975C59.0547 88.875 59.4147 87.715 59.3847 86.835L59.3747 86.845Z" fill="#008DC9"/>
<path d="M96.1646 95.505C93.2346 95.505 90.3146 95.485 87.3846 95.515C86.6746 95.515 86.4746 95.315 86.5146 94.615C86.8346 89.465 87.1246 84.305 87.4146 79.145C87.4446 78.625 87.6046 78.365 88.1546 78.325C90.2146 78.175 92.2546 77.915 94.3246 77.815C96.4646 77.705 98.6046 77.335 100.735 76.985C101.645 76.835 102.575 77.265 103.465 76.795C103.695 76.675 103.825 76.965 103.905 77.235C104.375 78.775 104.355 80.385 104.535 81.955C105.005 85.955 105.415 89.955 105.845 93.955C106.015 95.495 106.015 95.495 104.515 95.495C101.735 95.495 98.9446 95.495 96.1646 95.495V95.505ZM100.895 86.345C100.835 84.055 99.8346 82.235 98.1946 80.735C96.9946 79.635 95.7646 79.565 94.4146 80.475C91.7246 82.295 90.7646 86.675 92.4546 89.455C93.4846 91.145 95.6546 92.195 97.5646 91.895C99.5846 91.585 100.145 89.975 100.615 88.345C100.795 87.705 100.815 87.015 100.905 86.345H100.895Z" fill="#5E3589"/>
<path d="M137.415 95.9851C134.845 95.9851 132.275 95.9651 129.715 95.9951C129.005 96.0051 128.825 95.7951 128.855 95.0851C129.135 89.4351 129.385 83.7751 129.615 78.1251C129.635 77.5051 129.855 77.3351 130.445 77.3551C135.115 77.5051 139.785 77.6351 144.445 77.7551C145.145 77.7751 145.125 78.1851 145.155 78.6751C145.425 83.7551 145.705 88.8351 145.975 93.9251C146.085 96.0051 146.075 96.0051 143.935 96.0051C141.755 96.0051 139.585 96.0051 137.405 96.0051L137.415 95.9851ZM139.625 85.6651C139.615 86.7151 139.645 87.4251 139.465 88.1251C139.345 88.5751 139.175 88.9751 138.725 89.2351C137.235 90.0951 136.375 89.5651 135.705 87.7951C135.135 86.2851 135.665 84.7651 136.225 83.3251C136.995 81.3451 137.025 81.3551 135.015 80.5551C134.945 80.5251 134.885 80.5051 134.825 80.4651C134.005 79.9651 133.595 80.3651 133.285 81.1051C132.655 82.6151 132.185 84.1851 131.875 85.7851C131.095 89.7251 134.005 93.2251 137.975 93.1651C140.705 93.1151 142.685 91.3651 143.045 88.6651C143.295 86.8051 143.085 84.9651 142.705 83.1651C142.525 82.3251 142.975 81.1251 142.125 80.7151C141.365 80.3551 140.315 80.6051 139.385 80.5951C139.345 80.5951 139.315 80.5951 139.275 80.5951C138.545 80.5251 138.495 80.8951 138.735 81.4451C139.375 82.8951 139.675 84.4151 139.635 85.6651H139.625Z" fill="#FFB913"/>
<path d="M138.695 111.455C135.595 111.455 132.485 111.435 129.385 111.475C128.615 111.485 128.325 111.315 128.345 110.475C128.395 107.765 128.385 105.055 128.345 102.345C128.345 101.645 128.555 101.415 129.265 101.435C129.925 101.455 130.325 101.515 130.295 102.355C130.225 103.815 130.295 105.275 130.265 106.735C130.255 107.385 130.495 107.625 131.145 107.615C132.965 107.595 134.785 107.615 136.605 107.615C137.065 107.615 137.665 107.635 137.655 107.005C137.645 106.395 137.045 106.395 136.585 106.385C135.375 106.365 134.155 106.335 132.945 106.375C132.325 106.395 132.135 106.165 132.155 105.575C132.185 104.475 132.195 103.365 132.155 102.265C132.135 101.675 132.325 101.445 132.945 101.455C134.875 101.485 136.795 101.495 138.725 101.455C139.465 101.435 139.535 101.795 139.515 102.365C139.495 102.885 139.535 103.365 138.755 103.325C137.685 103.275 136.615 103.265 135.545 103.325C134.985 103.355 134.025 102.955 133.995 103.915C133.975 104.855 134.915 104.565 135.505 104.595C136.535 104.635 137.575 104.645 138.605 104.595C139.325 104.565 139.575 104.835 139.505 105.525C139.475 105.845 139.465 106.175 139.505 106.485C139.555 106.875 139.245 107.445 139.815 107.595C140.355 107.735 140.965 107.765 141.465 107.415C141.925 107.085 141.995 106.615 141.555 106.245C140.885 105.695 141.135 104.995 141.185 104.365C141.245 103.635 141.905 104.015 142.305 103.945C142.705 103.875 142.995 104.005 142.965 104.515C142.915 105.295 142.795 106.075 142.965 106.855C143.075 107.325 143.305 107.745 143.845 107.805C144.235 107.845 144.525 107.645 144.715 107.295C144.985 106.795 144.825 106.435 144.375 106.115C143.755 105.675 143.875 104.985 144.135 104.485C144.455 103.875 145.165 104.155 145.695 104.205C146.095 104.245 145.945 104.645 145.955 104.905C145.975 105.545 145.955 106.185 146.015 106.825C146.065 107.255 146.265 107.655 146.785 107.735C147.155 107.785 147.485 107.745 147.715 107.375C147.985 106.925 147.815 106.575 147.515 106.225C146.985 105.605 147.155 104.825 147.325 104.195C147.485 103.615 148.195 103.935 148.655 103.895C149.135 103.855 149.095 104.235 149.095 104.565C149.095 106.635 149.065 108.695 149.095 110.765C149.105 111.585 148.585 111.465 148.105 111.465C144.965 111.465 141.825 111.465 138.685 111.465L138.695 111.455Z" fill="#008DC9"/>
<path d="M78.8438 108.805C78.8438 107.455 78.8838 106.095 78.8238 104.745C78.7938 103.945 79.2038 103.895 79.8138 103.915C80.3738 103.935 80.8538 103.885 80.8238 104.735C80.7638 106.225 80.7938 107.725 80.8038 109.225C80.8038 110.435 81.3838 111.225 82.4338 111.395C83.4038 111.555 84.0938 111.085 84.5138 110.245C84.9538 109.375 84.6638 108.475 83.6638 107.775C83.2438 107.485 83.1138 107.175 83.1438 106.715C83.1638 106.465 83.1438 106.215 83.1438 105.965C83.1438 103.825 83.1438 103.845 85.3138 103.915C85.8438 103.935 86.1738 104.095 86.4038 104.575C86.7538 105.315 87.1638 106.025 87.5338 106.755C87.9038 107.495 90.0338 108.045 90.6838 107.555C90.9238 107.375 90.8738 107.115 90.8738 106.865C90.8738 106.255 90.9538 105.645 90.8638 105.055C90.6938 103.985 91.2138 103.825 92.1038 103.885C92.6238 103.925 92.7838 104.115 92.7638 104.595C92.7438 105.345 92.7838 106.095 92.7538 106.835C92.7238 107.445 92.9738 107.675 93.5638 107.635C93.9238 107.605 94.2738 107.615 94.6338 107.625C95.1438 107.645 95.3238 107.385 95.3238 106.905C95.3138 106.155 95.3538 105.405 95.3138 104.665C95.2738 103.985 95.5538 103.815 96.1838 103.835C96.7738 103.855 97.2238 103.835 97.2038 104.655C97.1638 106.645 97.1838 108.645 97.2038 110.635C97.2038 111.235 96.9738 111.465 96.3838 111.455C93.7138 111.435 91.0338 111.425 88.3638 111.445C87.8538 111.445 87.5938 111.255 87.3738 110.835C86.8738 109.895 86.3438 108.965 85.7938 108.045C85.6838 107.855 85.5338 107.535 85.2338 107.745C85.0338 107.885 85.1238 108.145 85.2338 108.335C85.5238 108.865 85.7738 109.425 86.1338 109.905C86.8638 110.875 87.0338 111.945 86.9738 113.125C86.9438 113.625 86.7338 113.735 86.3138 113.735C84.0638 113.735 81.8238 113.735 79.5738 113.755C79.0138 113.755 78.8338 113.495 78.8338 112.965C78.8538 111.575 78.8338 110.185 78.8338 108.795L78.8438 108.805Z" fill="#008DC9"/>
<path d="M59.2136 111.455C58.0336 111.455 56.8536 111.485 55.6836 111.445C55.0136 111.425 54.7336 111.675 54.8536 112.315C55.0836 113.515 54.5536 113.875 53.4136 113.765C52.4636 113.665 51.4936 113.705 50.5336 113.695C50.2336 113.695 49.9736 113.665 49.9536 113.255C49.9336 112.795 50.1936 112.735 50.5536 112.735C51.3336 112.735 52.1236 112.775 52.8636 112.445C53.1836 112.305 53.4636 112.135 53.4036 111.755C53.3336 111.355 52.9736 111.465 52.7036 111.465C52.0236 111.455 51.3436 111.435 50.6736 111.465C50.1036 111.495 49.9336 111.265 49.9336 110.725C49.9536 108.695 49.9536 106.665 49.9336 104.635C49.9336 104.095 50.0636 103.865 50.6436 103.875C51.7836 103.905 52.9236 103.905 54.0636 103.865C54.6936 103.845 54.9036 104.105 54.8436 104.685C54.8336 104.795 54.8436 104.895 54.8436 105.005C54.8636 107.635 54.8636 107.645 57.5536 107.645C58.6936 107.645 59.8336 107.715 60.9736 107.545C61.3036 107.495 61.6736 107.465 61.6836 107.055C61.6936 106.595 61.3236 106.525 60.9436 106.475C59.6636 106.285 58.3836 106.355 57.0936 106.385C56.3836 106.395 56.1636 106.155 56.1936 105.465C56.2436 104.395 56.2236 103.325 56.2036 102.255C56.1936 101.755 56.2836 101.455 56.8936 101.455C58.9236 101.475 60.9636 101.485 62.9936 101.455C63.7436 101.445 63.6436 101.925 63.6336 102.385C63.6336 102.835 63.7536 103.335 62.9936 103.315C61.6736 103.285 60.3536 103.315 59.0336 103.315C58.6036 103.315 58.1036 103.295 58.0836 103.895C58.0636 104.535 58.5436 104.605 59.0436 104.605C60.3236 104.605 61.6136 104.625 62.8936 104.605C63.4436 104.595 63.6436 104.775 63.6436 105.345C63.6136 107.125 63.6136 108.905 63.6436 110.685C63.6536 111.295 63.4436 111.495 62.8436 111.475C61.6336 111.445 60.4236 111.475 59.2036 111.475L59.2136 111.455ZM51.2236 107.665C51.2536 108.395 51.7136 108.825 52.4436 108.815C53.1436 108.815 53.5736 108.305 53.5536 107.625C53.5436 106.935 53.1836 106.355 52.3836 106.385C51.6436 106.405 51.2136 106.835 51.2236 107.665Z" fill="#008DC9"/>
<path d="M108.115 111.455C106.185 111.455 104.265 111.495 102.335 111.435C101.465 111.405 101.145 111.705 101.275 112.525C101.425 113.505 101.055 113.895 100.045 113.775C99.4147 113.695 98.7647 113.755 98.1247 113.755C97.7847 113.755 97.5847 113.645 97.5547 113.275C97.5247 112.925 97.6647 112.715 98.0147 112.695C99.3247 112.615 99.3747 111.685 99.3747 110.715C99.3647 108.655 99.3847 106.605 99.3147 104.545C99.2947 103.935 99.5547 103.825 99.9847 103.925C100.415 104.025 101.165 103.515 101.195 104.475C101.215 105.225 101.215 105.975 101.195 106.715C101.175 107.385 101.435 107.655 102.145 107.645C104.465 107.595 104.085 107.815 104.125 105.735C104.125 105.485 104.165 105.225 104.125 104.985C103.925 103.985 104.415 103.775 105.295 103.835C105.875 103.875 106.025 104.095 106.005 104.625C105.975 105.375 106.035 106.125 106.005 106.865C105.965 107.825 106.645 107.605 107.185 107.625C107.735 107.635 108.375 107.785 108.335 106.845C108.305 106.105 108.455 105.345 108.355 104.605C108.225 103.615 108.935 103.935 109.375 103.855C109.935 103.755 110.245 103.965 110.205 104.605C110.165 105.315 110.215 106.035 110.185 106.745C110.155 107.365 110.345 107.705 111.035 107.635C111.355 107.605 111.675 107.615 111.995 107.635C112.675 107.695 112.985 107.445 112.945 106.725C112.895 105.975 112.965 105.225 112.905 104.485C112.865 103.995 113.045 103.775 113.485 103.865C113.935 103.965 114.745 103.475 114.775 104.335C114.845 106.545 114.815 108.755 114.775 110.955C114.775 111.535 114.265 111.445 113.885 111.445C111.955 111.445 110.035 111.445 108.105 111.445L108.115 111.455Z" fill="#008DC9"/>
<path d="M33.094 111.455C31.384 111.455 29.674 111.435 27.964 111.465C27.354 111.475 27.044 111.345 27.054 110.655C27.084 108.665 27.104 106.665 27.054 104.675C27.024 103.785 27.534 103.945 28.074 103.915C28.704 103.885 28.984 104.045 28.934 104.745C28.694 108.295 29.394 107.615 31.814 107.645C33.344 107.665 34.884 107.645 36.414 107.645C36.864 107.645 37.334 107.625 37.334 107.025C37.334 106.495 36.894 106.435 36.494 106.425C35.244 106.395 33.994 106.355 32.754 106.385C32.104 106.405 31.874 106.195 31.894 105.535C31.934 104.435 31.934 103.325 31.874 102.225C31.844 101.645 32.024 101.455 32.574 101.455C34.524 101.465 36.474 101.475 38.434 101.445C39.154 101.435 39.254 101.795 39.234 102.375C39.224 102.915 39.234 103.355 38.464 103.325C37.214 103.275 35.964 103.295 34.724 103.325C34.274 103.335 33.684 103.325 33.714 103.995C33.734 104.575 34.314 104.555 34.704 104.575C35.954 104.615 37.204 104.645 38.444 104.595C39.074 104.575 39.234 104.805 39.234 105.385C39.204 107.125 39.204 108.875 39.234 110.615C39.244 111.275 38.994 111.475 38.354 111.465C36.604 111.435 34.864 111.455 33.114 111.455H33.094Z" fill="#008DC9"/>
<path d="M64.6139 107.505C64.6139 106.505 64.6739 105.505 64.5939 104.515C64.5439 103.945 64.8139 103.925 65.1839 103.925C66.3939 103.925 67.6139 103.945 68.8239 103.925C69.3439 103.915 69.5239 104.125 69.5039 104.615C69.4839 105.075 69.5039 105.545 69.5039 106.005C69.5039 107.565 69.9239 107.885 71.4839 107.545C71.8939 107.455 72.0039 107.235 72.0039 106.875C72.0039 106.195 72.0439 105.515 72.0039 104.845C71.9639 104.165 72.1739 103.885 72.9039 103.905C73.5939 103.915 73.9339 104.035 73.9139 104.835C73.8539 106.725 73.8639 108.615 73.9139 110.495C73.9339 111.155 73.6639 111.275 73.1039 111.265C72.2139 111.245 71.3239 111.265 70.4339 111.295C69.9939 111.305 69.5839 111.365 69.6039 112.005C69.6239 112.745 68.7339 113.755 66.3439 113.685C66.0939 113.685 65.8439 113.695 65.5939 113.685C65.2339 113.655 64.7239 113.825 64.7339 113.195C64.7339 112.565 65.2639 112.745 65.6139 112.725C66.3839 112.675 67.3539 112.945 68.0339 112.395C68.2239 112.235 68.2939 111.955 68.2339 111.695C68.1639 111.375 67.8439 111.455 67.6039 111.455C66.8939 111.445 66.1739 111.435 65.4639 111.455C64.9139 111.475 64.6939 111.265 64.7039 110.715C64.7239 109.645 64.7039 108.575 64.7039 107.505C64.6839 107.505 64.6639 107.505 64.6439 107.505H64.6139ZM67.0539 106.355C66.3339 106.455 65.8439 106.835 65.8639 107.595C65.8839 108.325 66.3239 108.815 67.0639 108.825C67.8339 108.835 68.2339 108.305 68.2539 107.595C68.2739 106.835 67.7739 106.465 67.0439 106.355H67.0539Z" fill="#008DC9"/>
<path d="M157.274 107.975C157.274 106.875 157.304 105.765 157.264 104.665C157.234 103.945 157.584 103.855 158.174 103.865C158.754 103.875 159.244 103.865 159.184 104.685C159.124 105.395 159.184 106.115 159.164 106.825C159.134 107.495 159.474 107.665 160.084 107.665C160.744 107.665 160.704 107.285 160.704 106.825C160.704 104.955 161.804 103.865 163.674 103.865C165.127 103.865 165.85 104.588 165.844 106.035C165.844 107.565 165.814 109.095 165.844 110.625C165.864 111.295 165.624 111.495 164.984 111.475C163.414 111.435 161.844 111.495 160.274 111.445C159.484 111.415 159.014 111.575 159.164 112.485C159.334 113.515 158.914 113.915 157.874 113.785C157.314 113.715 156.734 113.785 156.164 113.765C155.894 113.755 155.544 113.785 155.504 113.395C155.474 113.075 155.514 112.765 155.974 112.715C157.064 112.585 157.314 111.845 157.274 110.875C157.234 109.915 157.274 108.955 157.274 107.995V107.975ZM162.124 106.545C162.174 107.245 162.574 107.635 163.284 107.625C163.974 107.625 164.334 107.205 164.334 106.545C164.334 105.815 163.914 105.415 163.194 105.425C162.514 105.425 162.194 105.865 162.114 106.545H162.124Z" fill="#008DC9"/>
<path d="M40.1843 106.565C40.1843 105.175 40.1943 103.785 40.1843 102.405C40.1843 101.595 40.5843 101.425 41.3243 101.435C42.0843 101.445 42.2143 101.785 42.1943 102.425C42.1643 103.705 42.1543 104.985 42.1943 106.265C42.2143 106.855 41.8343 107.655 43.0443 107.665C44.2843 107.665 43.9443 106.845 43.9743 106.205C44.0043 105.675 44.0043 105.135 43.9743 104.605C43.9343 104.035 44.1943 103.855 44.7343 103.865C45.8743 103.885 47.0143 103.895 48.1543 103.865C48.7343 103.845 48.8743 104.115 48.8743 104.635C48.8543 106.665 48.8543 108.685 48.8743 110.715C48.8743 111.275 48.6543 111.455 48.1143 111.455C45.7243 111.435 43.3443 111.435 40.9543 111.455C40.3143 111.455 40.1643 111.165 40.1743 110.605C40.1943 109.255 40.1743 107.905 40.1743 106.555H40.1843V106.565ZM45.2143 107.555C45.2443 108.305 45.6743 108.795 46.3843 108.815C47.1843 108.835 47.5943 108.245 47.5743 107.485C47.5643 106.785 47.1943 106.215 46.4243 106.235C45.6343 106.255 45.2243 106.755 45.2143 107.565V107.555Z" fill="#008DC9"/>
<path d="M155.064 108.895C155.064 110.245 155.044 111.595 155.064 112.945C155.074 113.465 154.964 113.755 154.374 113.745C153.204 113.725 152.024 113.745 150.854 113.745C150.464 113.745 150.154 113.675 150.134 113.175C150.114 112.575 150.554 112.725 150.874 112.705C151.614 112.655 152.374 112.805 153.074 112.425C153.374 112.255 153.654 112.025 153.604 111.695C153.544 111.315 153.154 111.465 152.894 111.435C151.994 111.325 150.844 111.865 150.254 111.175C149.724 110.555 150.214 109.465 150.184 108.585C150.134 107.305 150.164 106.025 150.134 104.745C150.114 104.095 150.304 103.785 151.054 103.835C152.084 103.905 153.124 103.925 154.144 103.835C154.964 103.775 155.124 104.135 155.084 104.815C155.044 105.485 155.084 106.165 155.084 106.845V108.875L155.064 108.895ZM153.814 107.495C153.664 106.855 153.284 106.355 152.544 106.395C151.814 106.425 151.344 106.875 151.394 107.635C151.434 108.375 151.954 108.825 152.644 108.825C153.404 108.825 153.724 108.265 153.814 107.495Z" fill="#008DC9"/>
<path d="M127.353 107.785C127.353 108.745 127.323 109.705 127.353 110.675C127.373 111.295 127.123 111.545 126.533 111.455C126.013 111.375 125.153 111.785 125.233 110.735C125.323 109.435 124.803 108.065 125.853 106.865C126.233 106.435 125.943 105.835 125.443 105.485C124.913 105.105 124.413 105.255 123.983 105.625C123.503 106.035 123.433 106.655 123.813 107.065C124.923 108.285 124.353 109.715 124.333 111.035C124.323 111.825 123.403 111.345 122.893 111.455C122.463 111.545 122.213 111.315 122.213 110.865C122.213 108.765 122.213 106.655 122.203 104.555C122.203 104.085 122.433 103.935 122.873 103.945C124.083 103.955 125.303 103.965 126.513 103.945C127.123 103.945 127.333 104.235 127.333 104.805C127.323 105.805 127.333 106.805 127.333 107.795C127.333 107.795 127.353 107.795 127.363 107.795L127.353 107.785Z" fill="#008DC9"/>
<path d="M115.764 106.455C115.764 105.035 115.784 103.615 115.764 102.195C115.744 101.225 116.454 101.515 116.964 101.455C117.564 101.385 117.764 101.655 117.754 102.255C117.734 104.985 117.724 107.725 117.774 110.455C117.784 111.275 117.484 111.485 116.714 111.475C115.984 111.475 115.714 111.265 115.744 110.505C115.804 109.155 115.754 107.805 115.764 106.455Z" fill="#008DC9"/>
<path d="M134.594 99.3253C135.204 99.3253 135.804 99.3453 136.414 99.3253C136.914 99.3053 137.124 99.4753 137.114 99.9953C137.114 100.475 136.984 100.725 136.454 100.715C135.204 100.695 133.954 100.695 132.714 100.715C132.264 100.715 132.064 100.555 132.064 100.095C132.064 99.6753 132.094 99.3053 132.674 99.3253C133.314 99.3453 133.954 99.3253 134.594 99.3253Z" fill="#008DC9"/>
<path d="M34.323 100.635C33.683 100.635 33.0431 100.615 32.4031 100.635C31.8931 100.655 31.713 100.435 31.723 99.9452C31.723 99.4752 31.953 99.3252 32.373 99.3252C33.613 99.3252 34.863 99.3352 36.103 99.3252C36.643 99.3252 36.743 99.5852 36.753 100.055C36.763 100.615 36.503 100.695 36.023 100.665C35.463 100.625 34.8831 100.655 34.3131 100.655C34.3131 100.655 34.3131 100.655 34.3131 100.645L34.323 100.635Z" fill="#008DC9"/>
<path d="M145.153 100.095C145.573 100.025 145.883 100.155 145.903 100.685C145.913 101.135 145.763 101.455 145.253 101.435C144.603 101.405 144.233 101.475 144.553 102.305C144.763 102.845 144.453 103.295 143.803 103.435C143.143 103.575 142.903 103.075 142.773 102.665C142.603 102.085 142.983 101.735 143.573 101.685C144.073 101.645 144.263 101.395 144.203 100.915C144.113 100.205 144.553 100.085 145.163 100.095H145.153Z" fill="#008DC9"/>
<path d="M163.334 101.645C163.894 101.705 164.284 101.985 164.274 102.575C164.274 103.135 163.884 103.425 163.374 103.425C162.844 103.425 162.514 103.075 162.504 102.545C162.494 102.015 162.764 101.685 163.334 101.635V101.645Z" fill="#008DC9"/>
<path d="M107.245 102.615C107.165 103.135 106.865 103.465 106.325 103.435C105.805 103.405 105.465 103.095 105.475 102.545C105.495 101.955 105.825 101.615 106.425 101.665C106.965 101.705 107.205 102.095 107.245 102.615Z" fill="#008DC9"/>
<path d="M146.174 101.665C146.944 101.665 147.144 102.035 147.184 102.615C147.234 103.355 146.604 103.455 146.214 103.475C145.704 103.505 145.324 103.035 145.314 102.505C145.314 101.915 145.724 101.645 146.164 101.665H146.174Z" fill="#008DC9"/>
<path d="M94.0242 102.475C94.0242 103.085 93.7242 103.405 93.1942 103.425C92.6142 103.455 92.2542 103.105 92.2242 102.535C92.1942 101.925 92.5942 101.845 93.1242 101.785C93.7642 101.705 93.9342 102.025 94.0242 102.475Z" fill="#008DC9"/>
<path d="M111.724 111.745C112.284 111.815 112.654 112.105 112.644 112.615C112.634 113.105 112.424 113.595 111.764 113.555C111.184 113.515 110.844 113.185 110.854 112.605C110.864 112.065 111.254 111.835 111.714 111.745H111.724Z" fill="#008DC9"/>
<path d="M109.193 101.825C109.703 101.815 110.163 101.955 110.213 102.515C110.253 103.035 109.883 103.405 109.373 103.435C108.833 103.465 108.373 103.195 108.363 102.575C108.363 102.085 108.653 101.795 109.193 101.825Z" fill="#008DC9"/>
<path d="M104.683 102.585C104.573 103.125 104.233 103.425 103.723 103.425C103.193 103.425 102.873 103.085 102.893 102.545C102.903 102.025 103.173 101.665 103.733 101.675C104.323 101.675 104.573 102.085 104.683 102.595V102.585Z" fill="#008DC9"/>
<path d="M115.225 112.705C115.115 113.375 114.655 113.725 114.185 113.685C113.765 113.645 113.385 113.205 113.425 112.665C113.465 112.195 113.655 111.825 114.225 111.885C114.775 111.945 115.095 112.265 115.235 112.705H115.225Z" fill="#008DC9"/>
<path d="M73.0848 112.375C73.5948 112.445 73.9048 112.715 73.9448 113.255C73.9848 113.825 73.6448 114.155 73.1448 114.175C72.5948 114.195 72.2148 113.885 72.2148 113.265C72.2148 112.705 72.5548 112.455 73.0848 112.375Z" fill="#008DC9"/>
<path d="M90.5048 101.665C91.0948 101.715 91.4048 102.055 91.4148 102.565C91.4148 103.115 91.0448 103.365 90.5048 103.385C89.9048 103.405 89.6348 102.995 89.6348 102.525C89.6348 102.015 90.0348 101.725 90.5148 101.665H90.5048Z" fill="#008DC9"/>
<path d="M96.1733 101.665C96.7533 101.685 97.0533 101.965 97.0933 102.505C97.1433 103.185 96.5433 103.335 96.1333 103.395C95.6933 103.465 95.3633 103.075 95.3633 102.575C95.3633 102.035 95.6533 101.725 96.1733 101.665Z" fill="#008DC9"/>
<path d="M72.6236 114.955C72.6536 115.125 72.6536 115.315 72.5836 115.475C72.4436 115.825 72.1236 116.005 71.7336 116.005C71.2036 115.995 70.9336 115.615 70.9436 115.075C70.9436 114.485 71.3336 114.235 71.8436 114.255C72.2936 114.275 72.5536 114.535 72.6336 114.965L72.6236 114.955Z" fill="#008DC9"/>
<path d="M71.0435 113.375C71.0735 113.545 71.0735 113.735 71.0035 113.895C70.8635 114.245 70.5436 114.425 70.1536 114.425C69.6236 114.415 69.3535 114.035 69.3635 113.495C69.3635 112.905 69.7536 112.655 70.2636 112.675C70.7136 112.695 70.9736 112.955 71.0536 113.385L71.0435 113.375Z" fill="#008DC9"/>
<path d="M36.2645 84.5949C36.2345 85.6849 34.9545 86.6049 33.9145 86.2849C33.6645 86.2049 33.6045 86.0349 33.5645 85.8149C33.4845 85.3649 33.3445 84.9049 33.3345 84.4549C33.3145 83.9949 32.8145 83.3349 33.3945 83.1149C34.1145 82.8449 34.9745 82.5849 35.7545 83.0649C36.3345 83.4249 36.2645 84.0249 36.2645 84.5949Z" fill="#FD0031"/>
<path d="M55.5231 86.5652C55.4931 86.9652 55.5231 87.6952 55.2131 88.3552C54.9331 88.9652 54.4531 88.9852 54.2231 88.3852C53.5531 86.6152 53.4631 84.7852 53.9531 82.9452C54.0231 82.7052 54.2031 82.4852 54.5031 82.5252C54.8231 82.5652 54.9831 82.8352 55.0631 83.1052C55.3431 84.1352 55.5731 85.1752 55.5231 86.5652Z" fill="#008DC9"/>
<path d="M95.1448 85.3153C95.1548 84.5653 95.1448 83.8253 95.3948 83.0953C95.4848 82.8553 95.5748 82.6153 95.8648 82.5753C96.2348 82.5253 96.3748 82.8253 96.4548 83.0753C97.0448 84.7653 97.1048 86.4853 96.7348 88.2253C96.6848 88.4653 96.5248 88.7153 96.2448 88.7353C95.8548 88.7553 95.6848 88.4453 95.5848 88.1453C95.2748 87.2253 95.1448 86.2753 95.1348 85.3053L95.1448 85.3153Z" fill="#5E3589"/>
</g>
<defs>
<clipPath id="clip0_4915_31910">
<rect width="192" height="192" fill="white"/>
</clipPath>
</defs>
</svg>
