<svg width="192" height="192" viewBox="0 0 192 192" fill="none" xmlns="http://www.w3.org/2000/svg">
<g clip-path="url(#clip0_4887_46455)">
<path d="M96 192C149.019 192 192 149.019 192 96C192 42.9807 149.019 0 96 0C42.9807 0 0 42.9807 0 96C0 149.019 42.9807 192 96 192Z" fill="#7B307C"/>
<path d="M163.876 118.685L151.216 80.2153L146.456 80.4253L131.986 116.375C130.366 121.325 126.626 121.725 126.626 121.725L126.726 122.635L137.456 122.535L137.556 121.625C133.506 121.835 135.326 116.785 135.326 116.785L139.676 105.775H154.546L158.996 119.305C142.396 122.845 110.306 128.905 82.4659 124.355C54.6259 119.805 41.9059 102.505 41.9059 102.505C45.2159 100.645 54.3859 95.1253 51.6259 86.7153C48.7859 78.0553 36.5459 79.4953 33.4059 79.8253C30.1559 80.1553 23.5059 80.3553 23.5059 80.3553V81.3753C27.1859 81.5653 27.1059 84.1053 27.1059 84.1053V117.485C27.1059 121.315 23.5059 121.675 23.5059 121.675V122.685L36.0159 122.645L36.0559 121.595C31.8559 121.385 32.3659 118.315 32.3659 118.315L32.4059 102.915L36.3959 103.015C37.6459 103.045 38.8059 103.665 39.5259 104.705C39.7059 104.975 39.9159 105.255 40.1059 105.535C40.9659 106.795 44.1959 110.945 44.1959 110.945C63.4359 135.885 94.8059 132.635 114.036 131.445C133.276 130.255 168.496 118.015 168.496 118.015L163.846 118.695L163.876 118.685ZM140.766 102.985L147.506 86.2753C147.606 86.0053 147.996 86.0253 148.086 86.2853L153.596 102.965H140.766V102.985ZM32.3659 100.115V84.2853C32.3659 82.8553 33.4959 81.6853 34.9159 81.6453C39.5359 81.4853 48.5859 82.4653 46.4059 93.0853C45.2859 98.5553 40.3359 101.035 32.3659 100.125V100.115Z" fill="white"/>
<path d="M88.4961 81.4856V80.4756H101.136V81.4856L100.176 81.5856C98.6461 81.7456 97.4961 83.0156 97.4461 84.5356L97.4161 85.5756L97.3761 100.246H113.476V84.3856C113.476 83.1056 112.576 82.0056 111.306 81.7356L109.806 81.4256L109.766 80.4556H122.406V81.4656L120.986 81.7056C119.666 81.9256 118.696 83.0556 118.696 84.3956V86.8856L118.736 118.746C118.736 119.896 119.496 120.916 120.606 121.246L122.406 121.796V122.806H109.766L109.726 121.796L111.266 121.396C112.556 121.066 113.456 119.926 113.486 118.616L113.546 115.386V103.096L97.4861 102.996L97.3961 118.486C97.3861 119.956 98.3961 121.236 99.8561 121.566L101.156 121.866L101.196 122.836H88.5161V121.826L90.1061 121.346C91.3461 120.976 92.2061 119.826 92.2061 118.546L92.2461 109.736L92.2061 84.7056C92.2061 83.2156 91.1161 81.9356 89.6261 81.6956L88.5061 81.4856H88.4961Z" fill="white"/>
<path d="M72.4863 70.1055C72.4863 70.1055 82.3363 77.9855 80.7263 92.1555C79.1163 106.315 73.7863 109.755 82.8463 124.715C82.8463 124.715 76.1763 119.445 74.3963 109.035C73.6463 104.585 74.3563 99.9455 75.4863 95.5855C78.3163 84.8155 79.0963 80.3255 72.4863 70.1055Z" fill="white"/>
<path d="M71.5466 59.7453C71.5466 59.7453 59.3066 65.7453 60.8866 81.8453C62.3266 96.5553 72.5266 103.395 59.3066 116.235C59.3066 116.235 69.1766 111.555 70.1666 101.655C71.0666 97.0454 67.8866 87.2854 66.1166 82.5454C62.5566 73.2754 65.0666 65.7754 71.5466 59.7354V59.7453Z" fill="white"/>
</g>
<defs>
<clipPath id="clip0_4887_46455">
<rect width="192" height="192" fill="white"/>
</clipPath>
</defs>
</svg>
