<svg width="192" height="192" viewBox="0 0 192 192" fill="none" xmlns="http://www.w3.org/2000/svg">
<g clip-path="url(#clip0_4915_31981)">
<path d="M96 192C149.019 192 192 149.019 192 96C192 42.9807 149.019 0 96 0C42.9807 0 0 42.9807 0 96C0 149.019 42.9807 192 96 192Z" fill="#143669"/>
<path d="M139.287 100.225C131.712 100.225 125.62 93.9233 125.952 86.2723C126.266 79.0679 132.491 73.5269 139.705 73.5269H164.208C164.208 73.5269 164.227 73.5269 164.227 73.5459V75.5893C164.227 79.7617 160.843 83.1453 156.671 83.1548H140.475C138.441 83.1548 136.797 84.7991 136.797 86.833V87.1372C136.797 89.1141 138.394 90.7108 140.371 90.7108H154.456C160.434 90.7298 165.282 95.5771 165.282 101.565V106.336C165.282 113.037 159.845 118.473 153.145 118.473H128.148C128.148 118.473 128.129 118.473 128.129 118.454V116.382C128.119 112.21 131.503 108.817 135.685 108.826L151.795 108.845C153.924 108.845 155.654 107.125 155.663 104.986V104.264C155.663 102.031 153.857 100.215 151.624 100.225H139.278H139.287Z" fill="white"/>
<path d="M79.0583 73.5364C76.4161 73.5364 74.2871 75.6749 74.2871 78.3076V93.4576V118.454C74.2871 118.454 74.2871 118.473 74.3061 118.473H77.7087C81.1493 118.483 83.9436 115.698 83.9341 112.248L83.9151 94.7977L83.9341 88.6959C83.9341 88.4678 84.2287 88.3727 84.3618 88.5628L103.38 115.137C104.882 117.228 107.296 118.473 109.872 118.473H110.451C113.73 118.473 116.382 115.821 116.382 112.542V98.552V73.5554C116.382 73.5554 116.382 73.5364 116.363 73.5364H112.894C109.491 73.5269 106.735 76.2831 106.735 79.6857L106.754 97.2024V101.565C106.754 102.05 106.127 102.259 105.832 101.869L86.2627 76.0455C85.0556 74.4583 83.1832 73.5269 81.1968 73.5269H79.0773L79.0583 73.5364Z" fill="white"/>
<path d="M64.6105 108.845V118.473L35.0233 106.897V118.426L25.2812 118.473V101.565C25.2812 95.5866 30.1285 90.7298 36.1068 90.7298H50.1923C52.1692 90.7203 53.766 89.1141 53.766 87.1372V86.833C53.766 84.7991 52.1217 83.1548 50.0878 83.1548H33.8922C29.7198 83.1548 26.3362 79.7713 26.3362 75.5893V73.5459C26.3362 73.5459 26.3362 73.5269 26.3552 73.5269H50.8576C58.062 73.5269 64.2874 79.0679 64.6105 86.2723C64.9432 93.9138 58.8508 100.225 51.2758 100.225H45.4971L64.62 108.845H64.6105Z" fill="white"/>
</g>
<defs>
<clipPath id="clip0_4915_31981">
<rect width="192" height="192" fill="white"/>
</clipPath>
</defs>
</svg>
