<svg width="192" height="192" viewBox="0 0 192 192" fill="none" xmlns="http://www.w3.org/2000/svg">
<g clip-path="url(#clip0_4915_31951)">
<path d="M96 192C149.019 192 192 149.019 192 96C192 42.9807 149.019 0 96 0C42.9807 0 0 42.9807 0 96C0 149.019 42.9807 192 96 192Z" fill="url(#paint0_linear_4915_31951)"/>
<path d="M80.6432 44.8084C82.7066 44.5278 84.795 44.7086 86.8648 44.5278C87.0144 44.5715 87.3136 44.6525 87.4632 44.6962C86.1603 44.9642 84.8325 44.8395 83.5171 44.933C84.5207 44.9704 85.5244 45.0203 86.5281 45.0827C84.6953 45.3632 82.8251 45.0577 80.9923 45.3632C79.9325 45.4629 78.9288 45.8308 77.9002 46.0614C77.763 46.0053 77.4887 45.8931 77.3516 45.837C78.3927 45.3445 79.5023 44.9954 80.6432 44.8084Z" fill="#B8D1D4"/>
<path d="M85.9463 44.6272C87.5921 44.4651 89.2441 44.3155 90.8962 44.4277C91.0021 44.5461 91.2141 44.783 91.3263 44.8952C92.0619 46.0859 92.3674 47.5322 93.3274 48.5733C93.5768 49.2279 93.8137 49.8825 94.0506 50.5433C94.2251 51.0732 94.4309 51.5968 94.5805 52.133C89.6119 52.1454 84.6434 52.239 79.6748 52.2826C76.0965 52.3325 72.4495 54.078 70.4858 57.1327C69.4946 58.791 68.9709 60.7734 69.2764 62.706C69.4884 64.3081 70.623 65.5238 71.6765 66.6521C74.0081 69.0834 76.5266 71.3277 79.1138 73.4784C78.8145 73.4597 78.5153 73.4286 78.2223 73.3912C78.3968 73.6031 78.615 73.7714 78.8083 73.9709C78.8831 74.0582 79.0265 74.239 79.1013 74.3263C80.0925 74.9247 80.8718 75.785 81.8069 76.4521C81.8755 76.5456 82.0064 76.7201 82.0749 76.8137C82.929 77.3685 83.6646 78.0854 84.4688 78.7088C83.8454 77.7363 82.3305 77.3747 82.2121 76.1154C82.555 76.3835 82.9041 76.6516 83.2407 76.9321C84.4938 78.0231 85.7531 79.1016 86.9874 80.2112C87.6544 80.9032 88.334 81.5827 88.9449 82.3308C90.759 84.5813 92.2427 87.1248 93.0033 89.9239C93.1654 90.6346 93.2838 91.3515 93.4085 92.0684C93.6765 94.3314 93.4833 96.6193 92.9659 98.8324C92.4173 100.646 91.7752 102.448 90.7964 104.088C89.8301 105.727 88.6581 107.236 87.3303 108.601C87.1058 108.819 86.8876 109.044 86.6819 109.281C85.0112 110.777 83.1659 112.117 81.0837 112.977C79.7122 113.595 78.2472 113.944 76.8009 114.343C74.2013 114.573 71.4833 114.854 68.9709 113.95C65.3988 112.94 61.9077 111.026 59.7632 107.909C58.8281 106.531 57.9927 105.023 57.6187 103.389C57.4628 102.729 57.3008 102.068 57.1387 101.413C57.812 102.747 58.1486 104.25 58.9341 105.54C59.0214 105.802 59.2084 106.008 59.3144 106.263C59.8879 106.245 60.2058 106.718 60.5425 107.105C60.5612 106.949 60.6048 106.644 60.6298 106.488C61.4402 107.579 62.3566 108.651 63.5224 109.374C63.0735 108.738 62.3753 108.371 61.8641 107.797C59.5076 105.079 58.1299 101.407 58.56 97.7913C58.7159 96.7377 59.0214 95.7154 59.3393 94.6992C59.4079 94.8987 59.545 95.2977 59.6136 95.4972C59.4889 96.1019 59.3829 96.8624 59.8817 97.33C59.9752 96.8375 59.8131 96.3388 59.7507 95.8587C59.9814 96.532 60.1186 97.2302 60.2432 97.9284L60.2931 98.1778C60.3617 98.4833 60.4427 98.7887 60.5175 99.1004C60.9726 100.622 61.9763 101.875 62.7057 103.259C63.1982 103.745 63.7031 104.225 64.2206 104.699C64.5073 104.886 64.7941 105.079 65.0871 105.272C65.1245 105.403 65.1993 105.671 65.2367 105.802C65.8539 105.734 66.6581 105.696 66.4461 106.631C66.5459 106.531 66.7516 106.338 66.8514 106.245C67.0321 107.18 68.3288 107.117 69.0707 107.367C72.5306 108.227 76.3271 107.641 79.3694 105.765C80.4541 105.172 81.4079 104.356 82.2433 103.446C83.7145 101.812 84.7556 99.8174 85.3852 97.7165C86.0648 95.5408 86.2019 93.1344 85.3977 90.9712C85.2419 90.1359 84.8179 89.4002 84.394 88.6833C83.0412 86.5326 81.3518 84.5688 79.3943 82.9542C81.0588 85.105 83.2283 86.8754 84.4875 89.3441C83.914 88.8579 83.5088 88.2158 83.0724 87.6111C81.4952 85.5538 79.625 83.7397 77.6986 82.0129C77.3059 81.6575 76.9131 81.296 76.5142 80.9468C76.0902 80.5541 75.6663 80.1676 75.2175 79.806C74.8123 79.4444 74.4133 79.0704 74.0081 78.7213C73.3722 78.1353 72.7488 77.5493 72.0693 77.0194C71.9009 76.8947 71.5705 76.6516 71.4022 76.5269C71.5207 76.4209 71.6329 76.3149 71.7576 76.2089C73.4719 77.7612 75.1925 79.301 76.9131 80.8533C77.761 81.6264 78.5278 82.5054 79.5252 83.1038C79.1387 82.6051 78.721 82.1438 78.2659 81.7199C75.2549 78.9706 72.2438 76.2214 69.0894 73.6343C66.7391 71.3027 63.8715 69.1395 62.8491 65.8479C62.2631 64.4453 62.4314 62.8867 62.2444 61.403C62.4563 60.2996 62.5 59.1837 62.0075 58.1426C62.1633 58.2548 62.4813 58.473 62.6434 58.579C62.6808 58.2486 62.7244 57.9182 62.7805 57.594C62.8803 57.4569 63.0735 57.1763 63.1733 57.0454C63.6346 56.4968 64.0024 55.8547 64.0086 55.1191C64.4014 54.5082 64.7692 53.8785 65.1308 53.2489C65.7417 52.2514 66.4648 51.3288 67.1818 50.4061C67.1319 50.2939 67.0384 50.0695 66.9947 49.9573C67.5184 49.4212 68.0857 48.9287 68.6592 48.4486C68.5782 48.3364 68.4161 48.1182 68.3413 48.006C68.6717 47.7941 69.0021 47.5883 69.345 47.3951L69.5195 47.3078C70.3611 46.5909 71.3711 46.1296 72.356 45.6558C72.5057 45.7181 72.8111 45.8428 72.9607 45.9051C74.1016 45.6495 75.2175 45.2443 76.3895 45.1321C78.4218 44.7955 80.4915 45.1321 82.53 44.8267C83.6896 44.7768 84.8429 44.7331 85.9962 44.6459L85.9463 44.6272ZM74.0766 52.6255C71.4833 53.8162 69.5819 56.2101 68.6966 58.8907C68.3351 60.3495 68.0982 61.9205 68.6468 63.3668C69.3013 65.5051 71.103 66.9451 72.6179 68.4787C73.341 69.1395 73.9582 69.9437 74.8185 70.4424C73.1976 68.753 71.3524 67.2693 69.8936 65.424C69.1767 64.4764 68.572 63.3543 68.6343 62.1324C68.4161 59.2897 69.6567 56.4158 71.77 54.5269C74.2948 52.2265 77.7921 51.2353 81.1585 51.3475C82.6485 51.2602 84.1696 51.4722 85.6284 51.1293C81.757 51.1979 77.6238 50.7615 74.0642 52.6255H74.0766ZM84.5873 78.8023C86.152 80.2237 87.6731 81.6887 89.0696 83.2784C88.3963 82.1687 87.4051 81.3022 86.4949 80.3858C85.8964 79.8185 85.3416 79.1701 84.5873 78.8023ZM59.7819 97.5108C59.5887 97.8412 59.7632 98.5893 60.1061 98.7576C60.156 98.3461 60.0749 97.8162 59.7819 97.5108ZM63.0797 104.032C63.6221 104.749 64.3577 105.303 65.1432 105.74C64.8939 105.328 64.5198 105.023 64.1084 104.786C63.7842 104.512 63.5099 104.138 63.0797 104.032ZM65.5983 105.877C65.4736 106.176 65.9723 106.45 66.2155 106.301C66.3651 105.983 65.8477 105.684 65.5983 105.877ZM72.7114 113.289C71.0219 113.445 69.4198 112.859 67.774 112.641C69.3387 112.921 70.8536 113.514 72.4682 113.395C74.1639 113.482 75.8596 113.283 77.4991 112.859C78.2659 112.859 78.9517 112.566 79.5938 112.167C77.362 112.84 75.0741 113.47 72.7114 113.295V113.289Z" fill="white"/>
<path d="M86.1289 55.2936C88.0552 54.9382 90.1187 55.0879 91.9141 55.9108C92.1261 56.0728 92.3443 56.2349 92.5625 56.3908C93.6846 57.2573 94.5137 58.5104 94.8192 59.9006C95.2681 61.5962 95.6483 63.3106 96.1408 64.9938C97.1009 68.915 98.0983 72.8238 99.0584 76.7388C99.3451 77.836 99.5571 78.9519 99.8501 80.0491L100.218 79.8558C100.218 80.3296 100.193 80.8034 100.193 81.2772C100.106 81.1774 99.9311 80.9779 99.8439 80.872C99.8813 80.5914 99.9124 80.3109 99.9187 80.0241C99.7441 80.2236 99.2703 80.6101 99.208 80.8595C99.1394 81.1463 99.3825 81.4767 99.4948 81.7323C99.7067 82.1998 99.6755 82.7048 99.7129 83.1973C99.7566 83.7459 99.9561 84.2197 100.124 84.7433C100.399 85.6223 100.629 86.52 100.841 87.4177C101.028 88.1908 101.159 88.9576 101.521 89.662C101.552 89.7243 101.583 89.7867 101.614 89.849C103.005 92.5733 103.322 95.5657 104.033 98.477C104.226 99.2562 104.457 100.029 104.781 100.765C105.056 102.143 105.504 103.477 105.804 104.848C106.097 106.4 106.969 107.903 108.36 108.701C108.946 108.838 109.55 108.838 110.143 108.776C110.143 108.695 110.124 108.526 110.118 108.445C110.298 108.464 110.66 108.508 110.841 108.526C111.539 107.292 112.661 106.413 113.627 105.409C113.384 105.839 113.141 106.263 112.91 106.7C113.877 105.846 114.725 104.867 115.442 103.801C115.061 104.075 114.693 104.368 114.313 104.63L114.082 104.755C114.812 104.063 115.473 103.302 116.158 102.567C118.197 100.31 120.236 98.0468 122.018 95.5719C123.77 93.1967 125.372 90.6096 126.021 87.692C126.301 86.52 126.376 85.2857 126.102 84.1012C125.591 81.4019 123.49 79.2137 120.99 78.2038C119.07 77.4495 117.019 76.9071 114.943 76.9881C112.998 77.0629 111.171 78.0479 109.906 79.5005C108.827 80.7286 108.073 82.1873 107.406 83.6711C106.614 85.3169 105.797 86.9502 105.049 88.6147C105.012 88.6334 104.943 88.6645 104.912 88.6833C104.744 87.5175 104.519 86.3642 104.301 85.2046C103.877 83.1786 103.728 81.0777 104.251 79.0454C104.738 76.346 106.408 73.9646 108.678 72.4497C110.853 71.0907 113.285 70.1431 115.822 69.7504C117.224 69.5135 118.615 69.208 119.986 68.8277C122.692 69.9 125.472 70.779 128.277 71.5396C128.483 71.6019 128.901 71.7328 129.113 71.8014C128.196 72.3562 127.236 72.8487 126.264 73.2976C129.537 75.1678 132.791 77.6801 134.181 81.3146C135.079 84.1261 135.21 87.1434 134.599 90.0236C133.826 93.2715 132.024 96.1579 130.054 98.8136C128.577 100.89 126.806 102.71 125.011 104.505L124.998 104.518C123.957 105.528 122.941 106.556 121.925 107.585C121.757 107.735 121.582 107.89 121.42 108.046C119.924 109.461 118.44 110.889 116.913 112.273C115.753 113.351 114.594 114.517 113.097 115.122C112.798 115.191 112.505 115.259 112.206 115.328C112.156 115.309 112.056 115.278 112.007 115.259C114.22 114.829 115.579 112.853 117 111.288C116.065 111.849 115.323 112.666 114.425 113.277C114.824 112.846 115.242 112.435 115.66 112.017C115.629 111.924 115.566 111.743 115.535 111.65C117.012 110.178 118.378 108.589 119.818 107.074C117.973 108.832 116.171 110.633 114.344 112.41C113.852 112.865 113.341 113.345 112.692 113.57C111.508 114.019 110.217 113.8 108.983 113.844C107.026 113.788 105.062 113.956 103.104 113.831C102.78 113.701 102.456 113.582 102.126 113.457C101.776 112.08 101.315 110.727 100.947 109.349C100.555 108.021 100.212 106.662 99.5384 105.44C99.476 106.625 100.112 107.666 100.355 108.794C100.299 108.782 100.187 108.751 100.124 108.732C99.7441 107.71 99.501 106.644 99.4137 105.553C99.1207 105.079 98.915 104.561 98.8215 104.013C99.0272 104.512 99.2205 105.023 99.5883 105.428C99.2392 103.707 98.6033 102.062 98.1357 100.372C97.6495 98.6578 97.132 96.9496 96.6333 95.2353C96.1907 93.6269 95.7107 92.0309 95.2618 90.4226C94.3018 87.0499 93.3542 83.6773 92.3879 80.3109C91.8393 78.4469 91.459 76.5393 90.9416 74.6691C90.8419 73.7589 90.6611 72.8612 90.4367 71.9759C90.1062 70.673 89.9878 69.3265 89.5826 68.0422C89.4953 67.8241 89.4018 67.6059 89.3083 67.3939C89.2958 66.2967 88.9529 65.2556 88.7223 64.1958C88.1487 61.3718 87.4007 58.5852 86.7336 55.7798C88.5166 55.412 90.4179 55.8235 92.0076 56.6651C92.7557 57.3945 93.5475 58.1425 93.8903 59.1587C94.5324 61.11 94.8878 63.1298 95.4426 65.106C95.6109 66.1159 96.0473 67.0697 96.1284 68.0921C96.0224 68.1794 95.8167 68.354 95.7169 68.4412L96.1533 68.4911L95.8354 68.9898C95.9725 68.9026 96.172 68.4724 96.3341 68.7716C96.4089 69.2018 96.5086 69.6195 96.6146 70.0434C96.0224 70.9723 96.6957 72.0071 96.9014 72.9485C97.0385 72.9235 97.3004 72.8674 97.4313 72.8362C97.9549 74.3324 97.9736 75.9907 98.7903 77.3809C98.7342 76.4956 98.4225 75.6603 98.2043 74.8124C96.9513 69.8751 95.6733 64.9377 94.4639 59.9941C94.1085 58.4854 93.2108 57.0516 91.8144 56.316C90.206 55.331 88.2111 55.437 86.4032 55.6053C86.6401 56.3284 86.8458 57.0578 87.0204 57.7997C86.9082 57.9742 86.796 58.1488 86.6837 58.3233C86.6713 57.2885 85.9918 56.2536 86.1663 55.2624L86.1289 55.2936ZM113.721 76.4707C111.352 77.0068 109.401 78.7337 108.21 80.8034C108.84 80.2486 109.232 79.488 109.818 78.8958C111.152 77.3622 113.172 76.5455 115.18 76.4458C116.402 76.2775 117.586 76.6702 118.77 76.9133C120.223 77.1689 121.613 77.7487 122.885 78.4968C125.173 79.862 126.875 82.3058 127.043 85.0051C127.299 88.49 125.647 91.7255 123.932 94.643C125.322 92.7977 126.264 90.6407 126.95 88.4464C127.33 87.0125 127.218 85.5039 127.168 84.0451C126.8 82.2061 125.84 80.473 124.381 79.2698C122.392 77.4869 119.755 76.6702 117.156 76.3024C116.009 76.1403 114.862 76.3897 113.715 76.4707H113.721ZM98.6594 77.73C98.8589 78.5342 98.9212 79.5254 99.5322 80.1363C99.3638 79.2386 99.0397 78.3783 98.8589 77.4869C98.809 77.5492 98.7093 77.6677 98.6594 77.73ZM105.08 87.1684C105.417 87.2931 105.635 86.7382 105.498 86.4826C105.18 86.4265 104.931 86.9065 105.08 87.1684ZM125.778 101.706C125.485 101.993 125.229 102.317 125.011 102.673C126.725 101.133 128.184 99.3248 129.549 97.4795C130.185 96.588 130.865 95.7153 131.27 94.6929C129.518 97.0868 127.81 99.5368 125.778 101.712V101.706ZM112.829 106.382C113.185 106.432 113.328 106.294 113.266 105.964C112.904 105.908 112.761 106.051 112.829 106.382Z" fill="white"/>
<path d="M86.9249 59.2026C86.6631 58.8473 86.9499 58.5169 87.0808 58.2114C87.2616 59.3211 87.6917 60.3746 87.7665 61.503C87.193 60.8983 87.2055 59.9632 86.9249 59.2089V59.2026Z" fill="white"/>
<path d="M61.7696 59.6826C61.8568 59.508 62.0252 59.1589 62.1124 58.9844C61.9441 62.0017 61.8755 65.2434 63.4715 67.9427C64.8118 70.106 66.7319 71.8266 68.5896 73.5347C68.9076 73.8152 69.2255 74.0833 69.5622 74.3514C69.4562 74.4636 69.344 74.582 69.238 74.6942C68.7767 74.2578 68.2966 73.8402 67.8166 73.4225C66.6446 72.3502 65.4975 71.2343 64.4315 70.0561C63.1099 68.4726 62.1748 66.5962 61.8194 64.5576C61.5638 62.9492 61.5763 61.2972 61.7633 59.6826H61.7696Z" fill="white"/>
<path d="M79.7018 74.5819C79.4088 74.3637 79.1408 74.0083 79.3029 73.6343C80.2068 74.3699 81.0484 75.1679 82.0147 75.8224L81.6282 76.2277C81.0172 75.6479 80.3689 75.1055 79.7018 74.5819Z" fill="white"/>
<path d="M60.8299 86.5947C60.9359 86.7443 61.0418 86.9002 61.1478 87.0498C61.0979 88.3278 61.0855 89.6058 61.0855 90.8838C61.0481 92.249 61.0356 93.6143 60.9234 94.9795C60.5805 92.8413 60.5057 90.6656 60.2252 88.5211C59.3711 90.5471 58.3051 92.4922 57.7565 94.6367C57.744 95.7837 57.4261 96.8872 57.2079 98.0031L57.5695 97.9407C57.5695 98.8509 57.8001 99.811 57.3014 100.646C57.0583 99.5865 57.0084 98.4893 57.0396 97.4108C57.0957 96.7126 57.2017 96.0206 57.2578 95.3224C58.4485 92.6355 59.0781 89.7492 60.0382 86.975C60.1067 87.4239 60.1628 87.8727 60.2252 88.3278C60.2564 88.2592 60.3187 88.1283 60.3499 88.0597C60.593 87.6046 60.7738 87.1122 60.8237 86.5947H60.8299Z" fill="white"/>
<path d="M70.5234 52.2257C71.1281 51.3467 71.7703 50.4864 72.5183 49.7134C72.562 49.8194 72.643 50.0188 72.6867 50.1186C72.0446 50.954 71.39 51.7831 70.8414 52.6808C70.7603 52.5686 70.6045 52.3379 70.5234 52.2257Z" fill="#D3DFE1"/>
<path d="M69.4958 54.1654C69.7826 53.4921 70.1254 52.8375 70.5244 52.2266C70.6055 52.3388 70.7613 52.5694 70.8424 52.6816C70.5182 53.2489 70.1816 53.8163 69.8324 54.3648C69.8262 55.0257 69.4896 55.6054 69.0781 56.1042C69.0906 55.8049 69.0906 55.4994 69.0968 55.2002C69.234 54.8573 69.3711 54.5145 69.502 54.1716L69.4958 54.1654Z" fill="#B5CED1"/>
<path d="M91.0762 59.9629C91.6871 60.817 91.8118 61.9952 91.9365 63.0301C91.3754 62.1261 91.2445 61.004 91.0762 59.9629Z" fill="#EDF0F1"/>
<path d="M109.851 108.097C110.25 108.115 110.655 108.14 111.035 107.984C111.59 108.022 112.07 108.321 112.55 108.583C111.104 108.545 109.67 108.72 108.242 108.895C108.142 108.895 107.943 108.907 107.843 108.913C107.369 108.932 106.902 108.957 106.428 108.976C106.422 108.913 106.397 108.789 106.391 108.726C106.777 108.67 107.164 108.602 107.55 108.545C108.348 108.464 109.152 108.458 109.957 108.496C109.932 108.396 109.875 108.196 109.851 108.097Z" fill="#EDF0F1"/>
<path d="M99.2389 67.8618C99.6816 68.6348 99.7501 69.5325 99.9746 70.3804C99.8561 70.4053 99.6192 70.4552 99.4945 70.4801C99.3138 69.6323 98.7028 68.6972 99.2389 67.8618Z" fill="#D0DEE0"/>
<path d="M74.9238 72.3377C75.036 72.2317 75.1545 72.132 75.2667 72.0322C75.622 72.4187 76.0148 72.7678 76.4574 73.0546L76.1644 73.3539C75.7779 72.986 75.3664 72.6369 74.9238 72.3377Z" fill="#F1F3F4"/>
<path d="M106.892 83.272C106.755 83.0351 106.986 82.605 107.266 82.6549C107.391 82.8793 107.192 83.3842 106.892 83.272Z" fill="#BDD3D6"/>
<path d="M102.848 83.0229C102.985 83.0479 103.265 83.104 103.402 83.1289C103.54 83.7897 103.745 84.4381 103.901 85.0927C103.783 85.3296 103.664 85.5727 103.546 85.8158C103.315 84.8869 103.122 83.9456 102.848 83.0229Z" fill="#D8E1E4"/>
<path d="M100.025 81.1343C100.131 81.3213 100.337 81.6766 100.443 81.8637C102.301 88.8271 104.165 95.7594 106.01 102.866L106.378 104.543C105.985 103.228 105.58 101.813 105.2 100.566C103.46 94.4066 101.746 87.6489 100.025 81.1343Z" fill="#C1C9CF"/>
<path d="M65.2812 99.8296C65.3623 99.655 65.5181 99.3059 65.5992 99.1313C65.9608 99.3994 66.2849 99.7298 66.2787 100.21C66.3348 100.21 66.4533 100.222 66.5094 100.229C66.5842 100.341 66.7276 100.571 66.8024 100.69C66.7837 100.827 66.7463 101.108 66.7276 101.245C66.4283 100.896 66.1416 100.465 65.6241 100.484C65.5306 100.253 65.3561 100.066 65.2812 99.8358V99.8296Z" fill="#B8AAB7"/>
<path d="M36.9653 131.866C39.5162 130.736 42.4674 131.666 44.6114 133.235C44.3402 134.146 43.7009 134.895 43.2553 135.728C41.6537 135.153 39.9811 133.836 38.2181 134.662C37.1203 134.96 36.6876 136.6 37.7532 137.213C39.8261 138.098 42.2478 138.163 44.1077 139.558C45.6189 140.578 46.4132 142.69 45.6641 144.401C45.1539 146.203 43.2617 147.1 41.5633 147.456C38.935 147.824 36.0354 147.139 34.0334 145.35C34.5953 144.517 35.1377 143.678 35.777 142.903C37.3721 144.343 39.6841 144.969 41.757 144.323C42.6547 144.052 43.2424 142.761 42.377 142.108C40.1361 140.365 36.5003 141.094 34.7567 138.569C33.7622 137.381 33.9624 135.786 34.169 134.378C34.9634 133.41 35.7448 132.331 36.9588 131.873L36.9653 131.866Z" fill="white"/>
<path d="M96.8161 131.356C98.9795 131.44 101.136 131.356 103.3 131.388C105.728 131.349 108.053 133.306 108.305 135.741C108.595 137.091 107.917 138.343 107.2 139.428C107.252 140.19 108.098 140.707 108.259 141.482C109.331 144.375 106.677 147.52 103.745 147.565C101.421 147.623 99.0957 147.591 96.7773 147.572C96.8096 142.166 96.7386 136.761 96.8161 131.356ZM100.013 134.488C99.9611 135.689 100.013 136.89 100.077 138.098C101.453 138.027 102.861 138.227 104.21 137.924C105.547 137.278 105.444 135.095 104.042 134.604C102.732 134.262 101.35 134.456 100.013 134.482V134.488ZM100.09 141.191C100.155 142.302 99.8578 143.548 100.219 144.582C101.588 144.653 102.958 144.556 104.327 144.556C105.218 143.865 105.722 142.179 104.688 141.443C103.19 141.056 101.621 141.217 100.097 141.198L100.09 141.191Z" fill="white"/>
<path d="M134.842 131.492C137.361 131.86 139.072 134.972 138.349 137.426C138.123 138.821 136.954 139.719 135.979 140.623C137.07 142.954 138.426 145.169 139.279 147.604C138.207 147.598 137.128 147.643 136.056 147.552C134.771 145.583 134.035 143.284 132.827 141.262C131.956 141.12 131.071 141.185 130.193 141.185C129.979 143.323 130.302 145.473 130.089 147.611C129.05 147.591 128.016 147.591 126.977 147.598C126.977 142.192 126.977 136.787 126.977 131.382C129.411 131.408 131.846 131.324 134.28 131.421M130.283 134.333C130.16 135.586 130.16 136.852 130.206 138.105C131.497 138.066 132.795 138.169 134.08 138.014C135.352 137.678 135.772 135.722 134.687 134.94C133.467 133.881 131.73 134.637 130.277 134.333H130.283Z" fill="white"/>
<path d="M52.8965 132.422C53.4002 131.175 55.344 131.104 55.8607 132.376C58.334 137.427 60.8074 142.47 63.2033 147.552C62.0408 147.572 60.8849 147.572 59.7289 147.552C58.0176 144.007 56.4354 140.378 54.5303 136.949L54.1945 136.987C52.4832 140.442 50.8623 143.949 49.1509 147.404C48.0531 147.701 46.8907 147.514 45.7734 147.456C48.0402 142.393 50.5523 137.439 52.9029 132.402L52.8965 132.422Z" fill="white"/>
<path d="M64.3793 131.407C66.9754 131.446 69.6231 131.091 72.1805 131.627C74.8669 132.105 76.5977 135.231 75.6483 137.768C75.2803 138.97 74.2857 139.79 73.4204 140.629C74.6151 142.915 75.7194 145.247 76.8366 147.572C75.6742 147.572 74.5118 147.572 73.3558 147.565C72.3677 145.402 71.2828 143.29 70.2173 141.165C69.3067 141.068 68.3961 141.036 67.4985 141.211C67.576 143.309 67.5631 145.415 67.5243 147.513C66.4782 147.578 65.4191 147.572 64.3664 147.494C64.3341 142.134 64.3083 136.768 64.3793 131.407ZM67.6212 134.43C67.5824 135.624 67.5825 136.819 67.5825 138.014C68.874 138.04 70.1785 138.149 71.4636 137.982C72.865 137.62 73.2137 135.482 71.9092 134.778C70.6047 134.062 69.029 134.514 67.6147 134.43H67.6212Z" fill="white"/>
<path d="M85.3653 132.247C85.9207 130.968 87.9549 131.297 88.3166 132.576C90.1765 136.367 91.9782 140.19 93.8252 143.987C94.387 145.175 95.1297 146.299 95.459 147.584C94.3418 147.481 93.1083 147.784 92.0686 147.397C90.2346 143.903 88.6136 140.306 86.9023 136.754C86.8377 136.748 86.6957 136.735 86.6246 136.728C84.9456 140.325 83.1761 143.877 81.5293 147.494C80.3863 147.584 79.2433 147.584 78.0938 147.571C78.4748 146.176 79.2562 144.949 79.8632 143.658C81.7295 139.867 83.4409 136.005 85.3718 132.24L85.3653 132.247Z" fill="white"/>
<path d="M115.287 132.854C115.61 132.046 116.404 131.155 117.366 131.517C118.393 131.711 118.6 132.86 119.045 133.635C121.402 138.246 123.456 143.012 125.897 147.578C124.735 147.578 123.572 147.655 122.416 147.552C120.556 144.078 118.929 140.448 117.205 136.896C116.488 137.174 116.333 137.994 116.004 138.601C114.647 141.624 113.097 144.549 111.767 147.578C110.605 147.604 109.436 147.604 108.273 147.584C110.56 142.65 112.968 137.775 115.287 132.854Z" fill="white"/>
<path d="M147.598 132.931C147.933 132.137 148.618 131.233 149.606 131.478C150.736 131.705 151.014 132.977 151.498 133.842C153.616 138.427 156.032 142.87 158.001 147.526C156.858 147.61 155.709 147.63 154.572 147.475C152.938 143.865 151.098 140.352 149.457 136.742C147.32 140.171 145.906 144.007 144.046 147.591C142.877 147.617 141.708 147.617 140.539 147.565C142.87 142.683 145.35 137.859 147.598 132.938V132.931Z" fill="white"/>
</g>
<defs>
<linearGradient id="paint0_linear_4915_31951" x1="23.26" y1="163.25" x2="164.24" y2="32.91" gradientUnits="userSpaceOnUse">
<stop stop-color="#A10E42"/>
<stop offset="0.38" stop-color="#5B3C5B"/>
<stop offset="0.53" stop-color="#2E576A"/>
<stop offset="0.63" stop-color="#186672"/>
<stop offset="0.72" stop-color="#1E6B76"/>
<stop offset="0.83" stop-color="#307B84"/>
<stop offset="0.96" stop-color="#4D959A"/>
<stop offset="1" stop-color="#579EA2"/>
</linearGradient>
<clipPath id="clip0_4915_31951">
<rect width="192" height="192" fill="white"/>
</clipPath>
</defs>
</svg>
