<svg width="192" height="192" viewBox="0 0 192 192" fill="none" xmlns="http://www.w3.org/2000/svg">
<g clip-path="url(#clip0_5166_50211)">
<path d="M96 192C149.019 192 192 149.019 192 96C192 42.9807 149.019 0 96 0C42.9807 0 0 42.9807 0 96C0 149.019 42.9807 192 96 192Z" fill="white"/>
<path d="M33.3356 104.288C31.7356 104.288 30.2316 104.011 28.8236 103.456C27.4369 102.901 26.3169 102.069 25.4636 100.96C24.6103 99.8507 24.1836 98.5067 24.1836 96.928H28.6956C28.6956 98.208 29.0903 99.1787 29.8796 99.84C30.6689 100.501 31.8209 100.832 33.3356 100.832C34.5089 100.832 35.4156 100.587 36.0556 100.096C36.7169 99.6053 37.0476 98.9227 37.0476 98.048C37.0476 97.536 36.9516 97.088 36.7596 96.704C36.5676 96.32 36.2583 95.9893 35.8316 95.712C35.4049 95.4133 34.9143 95.1573 34.3596 94.944C33.8049 94.7093 33.1116 94.464 32.2796 94.208C30.8076 93.7173 29.7516 93.312 29.1116 92.992C26.2956 91.6053 24.8876 89.6853 24.8876 87.232C24.8876 85.952 25.2609 84.832 26.0076 83.872C26.7543 82.912 27.7569 82.176 29.0156 81.664C30.2956 81.152 31.7036 80.896 33.2396 80.896C34.8183 80.896 36.2369 81.1947 37.4956 81.792C38.7756 82.368 39.7676 83.1893 40.4716 84.256C41.1969 85.3227 41.5596 86.5387 41.5596 87.904H37.0476C37.0476 86.7947 36.7063 85.9307 36.0236 85.312C35.3409 84.6933 34.3809 84.384 33.1436 84.384C31.9916 84.384 31.0743 84.64 30.3916 85.152C29.7089 85.664 29.3676 86.3573 29.3676 87.232C29.3676 88.064 29.8049 88.7573 30.6796 89.312C31.1063 89.6107 31.5543 89.856 32.0236 90.048C32.5143 90.24 33.2396 90.496 34.1996 90.816C34.3276 90.8587 34.7969 91.0187 35.6076 91.296C36.4396 91.5733 37.2183 91.9147 37.9436 92.32C40.3543 93.6853 41.5596 95.584 41.5596 98.016C41.5596 99.9573 40.8236 101.493 39.3516 102.624C37.8796 103.733 35.8743 104.288 33.3356 104.288Z" fill="black"/>
<path d="M49.5656 104.32C48.4989 104.32 47.5283 104.107 46.6536 103.68C45.7789 103.232 45.0856 102.624 44.5736 101.856C44.0829 101.067 43.8376 100.203 43.8376 99.264C43.8376 97.472 44.5096 96.096 45.8536 95.136C47.2189 94.176 49.1603 93.696 51.6776 93.696H53.7896V92.64C53.7896 91.7653 53.5656 91.0933 53.1176 90.624C52.6696 90.1547 52.0083 89.92 51.1336 89.92C50.3443 89.92 49.7149 90.1227 49.2456 90.528C48.7763 90.912 48.5416 91.4347 48.5416 92.096H44.2536C44.2536 91.1147 44.5523 90.2187 45.1496 89.408C45.7683 88.5973 46.6109 87.9573 47.6776 87.488C48.7656 87.0187 49.9923 86.784 51.3576 86.784C53.4269 86.784 55.0589 87.296 56.2536 88.32C57.4483 89.3227 58.0669 90.72 58.1096 92.512V100.096C58.1096 101.632 58.3229 102.848 58.7496 103.744V104H54.3976C54.2269 103.616 54.0776 103.072 53.9496 102.368C52.8403 103.669 51.3789 104.32 49.5656 104.32ZM48.1896 98.944C48.1896 99.584 48.4029 100.096 48.8296 100.48C49.2563 100.864 49.8216 101.056 50.5256 101.056C51.2296 101.056 51.8803 100.885 52.4776 100.544C53.0749 100.181 53.5123 99.744 53.7896 99.232V96.224H51.9656C49.4483 96.224 48.1896 97.1307 48.1896 98.944Z" fill="black"/>
<path d="M61.6658 87.104H65.7938L65.8898 89.184C66.8285 87.584 68.1085 86.784 69.7298 86.784C70.2845 86.784 70.7538 86.848 71.1378 86.976L71.0738 91.008C70.7752 90.9227 70.2418 90.88 69.4738 90.88C67.7245 90.88 66.5725 91.52 66.0178 92.8V104H61.6658V87.104Z" fill="black"/>
<path d="M78.9296 104.32C77.6069 104.32 76.4443 103.968 75.4416 103.264C74.4389 102.539 73.6603 101.504 73.1056 100.16C72.5723 98.816 72.3056 97.2373 72.3056 95.424C72.3056 93.6747 72.5723 92.1493 73.1056 90.848C73.6603 89.5467 74.4389 88.544 75.4416 87.84C76.4443 87.136 77.6176 86.784 78.9616 86.784C80.6469 86.784 82.0336 87.4133 83.1216 88.672V80H87.4416V104H83.5376L83.3136 102.176C82.2256 103.605 80.7643 104.32 78.9296 104.32ZM76.6576 95.744C76.6576 97.408 76.9456 98.688 77.5216 99.584C78.0976 100.459 78.9296 100.896 80.0176 100.896C81.4469 100.896 82.4816 100.277 83.1216 99.04V92.064C82.4816 90.8267 81.4576 90.208 80.0496 90.208C79.0043 90.208 78.1723 90.624 77.5536 91.456C76.9563 92.2667 76.6576 93.44 76.6576 94.976V95.744Z" fill="black"/>
<path d="M96.0968 104.32C95.0302 104.32 94.0595 104.107 93.1848 103.68C92.3102 103.232 91.6168 102.624 91.1048 101.856C90.6142 101.067 90.3688 100.203 90.3688 99.264C90.3688 97.472 91.0408 96.096 92.3848 95.136C93.7502 94.176 95.6915 93.696 98.2088 93.696H100.321V92.64C100.321 91.7653 100.097 91.0933 99.6488 90.624C99.2008 90.1547 98.5395 89.92 97.6648 89.92C96.8755 89.92 96.2462 90.1227 95.7768 90.528C95.3075 90.912 95.0728 91.4347 95.0728 92.096H90.7848C90.7848 91.1147 91.0835 90.2187 91.6808 89.408C92.2995 88.5973 93.1422 87.9573 94.2088 87.488C95.2968 87.0187 96.5235 86.784 97.8888 86.784C99.9582 86.784 101.59 87.296 102.785 88.32C103.98 89.3227 104.598 90.72 104.641 92.512V100.096C104.641 101.632 104.854 102.848 105.281 103.744V104H100.929C100.758 103.616 100.609 103.072 100.481 102.368C99.3715 103.669 97.9102 104.32 96.0968 104.32ZM94.7208 98.944C94.7208 99.584 94.9342 100.096 95.3608 100.48C95.7875 100.864 96.3528 101.056 97.0568 101.056C97.7608 101.056 98.4115 100.885 99.0088 100.544C99.6062 100.181 100.044 99.744 100.321 99.232V96.224H98.4968C95.9795 96.224 94.7208 97.1307 94.7208 98.944Z" fill="black"/>
<path d="M108.133 87.104H112.197L112.357 89.152C113.552 87.5733 115.184 86.784 117.253 86.784C120.773 86.784 122.554 88.8533 122.597 92.992V104H118.277V93.12C118.256 92.096 118.032 91.36 117.605 90.912C117.2 90.4427 116.496 90.208 115.493 90.208C114.81 90.208 114.202 90.368 113.669 90.688C113.157 91.008 112.752 91.456 112.453 92.032V104H108.133V87.104Z" fill="black"/>
<path d="M126.328 80H130.68V104H126.328V80Z" fill="black"/>
<path d="M141.743 104.32C140.186 104.32 138.81 103.979 137.615 103.296C136.42 102.613 135.482 101.653 134.799 100.416C134.138 99.1573 133.786 97.6853 133.743 96V95.392C133.7 93.8133 133.988 92.3733 134.607 91.072C135.226 89.7707 136.132 88.736 137.327 87.968C138.543 87.1787 140.004 86.784 141.711 86.784C143.311 86.784 144.708 87.1467 145.903 87.872C147.119 88.576 148.047 89.5893 148.687 90.912C149.348 92.2133 149.679 93.7493 149.679 95.52V95.712C149.679 97.44 149.348 98.9547 148.687 100.256C148.026 101.557 147.098 102.56 145.903 103.264C144.708 103.968 143.322 104.32 141.743 104.32ZM138.063 95.712C138.063 97.3973 138.383 98.688 139.023 99.584C139.663 100.48 140.57 100.928 141.743 100.928C142.895 100.928 143.78 100.491 144.399 99.616C145.039 98.7413 145.37 97.4827 145.391 95.84V95.392C145.391 93.7493 145.071 92.4693 144.431 91.552C143.791 90.6347 142.884 90.176 141.711 90.176C140.602 90.176 139.727 90.592 139.087 91.424C138.468 92.256 138.127 93.4613 138.063 95.04V95.712Z" fill="black"/>
<path d="M159.837 104.32C158.28 104.32 156.904 103.979 155.709 103.296C154.514 102.613 153.576 101.653 152.893 100.416C152.232 99.1573 151.88 97.6853 151.837 96V95.392C151.794 93.8133 152.082 92.3733 152.701 91.072C153.32 89.7707 154.226 88.736 155.421 87.968C156.637 87.1787 158.098 86.784 159.805 86.784C161.405 86.784 162.802 87.1467 163.997 87.872C165.213 88.576 166.141 89.5893 166.781 90.912C167.442 92.2133 167.773 93.7493 167.773 95.52V95.712C167.773 97.44 167.442 98.9547 166.781 100.256C166.12 101.557 165.192 102.56 163.997 103.264C162.802 103.968 161.415 104.32 159.837 104.32ZM156.157 95.712C156.157 97.3973 156.477 98.688 157.117 99.584C157.757 100.48 158.663 100.928 159.837 100.928C160.989 100.928 161.874 100.491 162.493 99.616C163.133 98.7413 163.464 97.4827 163.485 95.84V95.392C163.485 93.7493 163.165 92.4693 162.525 91.552C161.885 90.6347 160.978 90.176 159.805 90.176C158.696 90.176 157.821 90.592 157.181 91.424C156.562 92.256 156.221 93.4613 156.157 95.04V95.712Z" fill="black"/>
</g>
<defs>
<clipPath id="clip0_5166_50211">
<rect width="192" height="192" fill="white"/>
</clipPath>
</defs>
</svg>
