<svg width="192" height="192" viewBox="0 0 192 192" fill="none" xmlns="http://www.w3.org/2000/svg">
<g clip-path="url(#clip0_5166_50057)">
<path d="M96 192C149.019 192 192 149.019 192 96C192 42.9807 149.019 0 96 0C42.9807 0 0 42.9807 0 96C0 149.019 42.9807 192 96 192Z" fill="white"/>
<path d="M45.5 149.73C45.74 149.73 45.9961 149.73 46.2361 149.714C46.3801 149.857 46.4921 150.031 46.5882 150.206C46.7162 150.729 46.7002 151.221 46.2521 151.618C45.9961 151.618 45.756 151.618 45.5 151.618C45.5 150.999 45.5 150.364 45.5 149.73Z" fill="#F9FAF9"/>
<path d="M104.758 60.9318C107.686 62.4548 110.615 63.962 113.543 65.4851C113.831 65.8659 114.407 65.85 114.679 66.2467C115.064 66.3736 115.448 66.5005 115.832 66.6116C116.12 67.0082 116.68 66.9923 116.968 67.3731C123.545 70.4986 129.45 74.3856 133.306 80.8269C134.379 82.6038 135.499 84.3173 136.123 86.3163C136.459 86.6495 136.459 87.1889 136.843 87.4903C137.115 88.5057 137.371 89.5052 137.643 90.5206C138.075 91.0442 137.963 91.6629 137.995 92.2658C138.123 93.2019 137.691 94.2172 138.363 95.0898C138.363 97.1047 138.347 99.1038 138.347 101.119C137.707 101.769 138.283 102.785 137.643 103.451C137.339 104.45 137.403 105.545 136.859 106.481C136.443 106.783 136.411 107.322 136.139 107.703C136.235 108.242 136.011 108.702 135.707 109.131C135.291 109.4 135.323 109.972 134.923 110.257C134.203 112.764 132.266 114.477 130.618 116.286C127.898 119.253 124.617 121.585 120.936 123.314C120.664 123.441 120.328 123.473 120.024 123.552C119.72 123.933 119.176 123.917 118.856 124.282C118.216 124.52 117.576 124.774 116.936 125.012C116.728 125.345 116.392 125.408 116.04 125.424C115.56 125.44 115.032 125.377 114.663 125.805C114.167 125.948 113.655 126.091 113.159 126.218C112.903 126.471 112.583 126.567 112.215 126.567C111.735 126.583 111.223 126.519 110.839 126.932C109.687 127.201 108.55 127.455 107.398 127.725C106.822 128.201 106.134 128.058 105.478 128.09C104.598 128.09 103.718 128.09 102.838 128.09C101.221 128.137 99.589 128.026 98.0368 128.645C96.9326 128.677 95.8125 128.677 94.7083 128.645C94.1802 128.629 93.6681 128.534 94.1002 127.804C94.7243 127.534 95.3324 127.265 95.9565 126.979C96.2125 126.551 96.8046 126.583 97.0767 126.186C100.965 123.806 104.15 120.839 105.494 116.318C105.958 115.921 105.862 115.382 105.878 114.874C105.75 113.7 106.198 112.494 105.542 111.368C104.918 106.323 101.861 103.038 97.6848 100.468C94.4043 98.4533 90.9477 96.8033 87.5232 95.074C87.2351 94.6615 86.675 94.6932 86.371 94.3124C84.9788 93.6778 83.5705 93.0432 82.1783 92.4086C81.9063 92.0119 81.3142 92.0437 81.0581 91.6312C80.6741 91.5043 80.274 91.3932 79.8899 91.2663C79.6019 90.8696 79.0258 90.9014 78.7537 90.5048C72.9288 87.8235 68.5602 83.5399 65.0236 78.3202C64.5755 78.098 64.6235 77.4952 64.2074 77.2413C63.7434 75.7817 62.4472 74.687 62.2711 73.0846C61.9351 72.7514 61.9191 72.212 61.551 71.8947C61.279 70.8952 61.0069 69.8798 60.7349 68.8803C60.3508 68.3885 60.3988 67.8173 60.3828 67.2462C60.3828 65.7707 60.3828 64.2952 60.3828 62.8197C60.3828 61.4712 60.3828 60.1068 60.3828 58.7582C60.3828 58.0919 60.3828 57.4256 60.3828 56.7433C60.4148 56.077 60.2708 55.3948 60.7189 54.8078C62.4632 48.5886 66.2238 43.7655 71.2486 39.7991C71.9527 39.2438 72.5608 38.5616 73.4089 38.165C73.6329 37.7208 74.2571 37.7843 74.4811 37.34C76.6254 36.277 78.6577 34.9444 80.9941 34.3097C81.3141 33.9607 81.8583 33.9449 82.1783 33.5958C83.1865 33.342 84.1946 33.0722 85.2028 32.8184C85.4428 32.5487 85.7629 32.4535 86.1309 32.4535C86.627 32.4377 87.1231 32.4852 87.5232 32.1203C88.5313 31.9617 89.5235 31.8189 90.5316 31.6603C91.2838 31.105 92.1479 31.3747 92.98 31.3112C93.8282 31.1843 94.7723 31.6285 95.5244 30.8987C98.2929 30.5973 101.061 30.1847 103.846 30.8828C103.654 31.3429 103.046 31.2954 102.806 31.7079C100.021 33.5958 97.1887 35.4045 95.1244 38.1809C94.6763 38.7838 94.5483 39.5294 94.0202 40.053C93.6041 40.3386 93.6041 40.878 93.2681 41.2112C93.124 41.9568 92.964 42.6866 92.82 43.4323C92.2759 44.8443 92.2599 46.2564 92.772 47.6684C92.916 48.541 93.076 49.4135 93.2201 50.2861C93.6201 50.5876 93.6201 51.127 93.9562 51.4602C95.9245 55.7121 99.333 58.3774 103.59 60.1226C103.894 60.5669 104.47 60.5351 104.758 60.9318Z" fill="#005000"/>
<path d="M68.0176 101.134C68.8017 100.896 69.5698 100.642 70.3539 100.404C70.722 99.8809 71.5221 100.182 71.8742 99.627C74.6746 99.1511 77.4751 99.0558 80.2755 99.6905C80.6276 100.024 81.1396 100.04 81.4917 100.357C85.2523 101.372 88.0527 103.498 89.493 107.195C89.845 107.512 89.845 108.067 90.2291 108.369C90.3731 108.75 90.5171 109.114 90.6451 109.495C91.2852 111.034 90.9172 112.637 90.9492 114.207C90.6131 114.889 90.3891 115.619 90.2931 116.381C90.2931 116.492 90.2611 116.587 90.1971 116.682C89.861 117.015 89.861 117.539 89.477 117.84C88.5648 120.395 86.4525 121.823 84.3401 123.235C83.0119 124.123 81.5397 124.805 79.9394 125.075C77.7471 125.837 75.4747 125.25 73.2344 125.44C72.7543 125.44 72.2742 125.408 71.9062 125.027C67.7615 124.06 64.9291 121.394 62.6887 117.983C62.4647 117.634 62.4327 117.158 62.3046 116.746C61.9686 116.397 61.9526 115.873 61.6005 115.556C61.2485 113.287 61.3445 111.034 61.6005 108.765C61.9526 108.448 61.9686 107.909 62.3207 107.591C63.3448 105.291 65.0731 103.562 66.9614 101.959C67.1694 101.515 67.7935 101.563 68.0176 101.134Z" fill="#005000"/>
<path d="M135.755 48.1287C136.027 48.5729 135.515 48.7792 135.451 49.1124C135.435 49.6835 135.355 50.2388 134.955 50.683C133.819 54.1099 131.355 56.22 128.074 57.521C127.77 57.9017 127.21 57.8859 126.906 58.2666C126.65 58.3936 126.394 58.5205 126.154 58.6633C125.562 59.171 124.842 59.0123 124.154 59.044C122.185 59.044 120.233 59.044 118.265 59.044C117.801 59.044 117.337 59.0123 116.952 58.695C116.456 58.5522 115.96 58.4094 115.448 58.2666C115.144 57.9017 114.584 57.9018 114.28 57.5369C110.92 56.3152 108.727 53.9354 107.399 50.6989C107.111 50.4292 107.031 50.096 107.031 49.7311C106.967 49.1599 107.191 48.5095 106.631 48.0494C106.327 46.5422 106.423 45.0191 106.679 43.5119C107.015 43.1629 107.047 42.6552 107.335 42.2902C107.799 39.4821 109.927 37.8321 111.848 36.0711C112.632 35.3413 113.704 34.9287 114.648 34.3735C114.968 34.0086 115.512 34.0086 115.832 33.6437C119.385 32.9456 122.937 33.0249 126.49 33.6437C126.81 33.9927 127.354 34.0085 127.674 34.3576C130.619 35.9441 133.435 37.6734 134.587 41.0845C134.971 43.147 136.108 45.035 135.867 47.2244C135.883 47.5258 135.915 47.8431 135.755 48.1287Z" fill="#005000"/>
<path d="M46.25 151.633C46.266 151.142 46.282 150.666 46.298 150.174C46.9221 149.682 47.6422 150.015 48.3143 149.92C49.3065 149.793 49.6905 150.301 49.6905 151.237C49.6905 152.427 49.6905 153.632 49.6905 154.822C49.7385 155.409 49.5465 156.06 50.1066 156.52C50.2506 156.647 50.3787 156.774 50.5227 156.885C50.8428 157.472 51.6268 157.17 51.9949 157.662C53.1311 157.678 54.2833 157.71 55.4195 157.726C56.3156 157.742 56.9877 157.393 57.3718 156.568C58.0279 155.917 57.4358 154.886 58.0919 154.235C58.3319 152.22 57.9799 150.174 58.4919 148.175C59.3401 147.619 60.2202 147.699 61.1323 148.032C61.7244 149.174 61.0203 150.459 61.5484 151.602C61.5484 151.729 61.5484 151.871 61.5484 151.998C62.7646 152.569 63.2927 152.157 63.3567 150.872C63.3887 149.952 63.1327 148.968 63.8528 148.175C64.2209 146.921 65.229 147.635 65.9011 147.62C66.6052 147.588 66.6372 148.381 66.7012 148.92C66.8293 150.047 66.8773 151.173 66.9413 152.316C68.9576 152.792 68.9896 152.76 69.0376 150.904C69.0536 150.094 68.8936 149.285 69.1657 148.492C69.7737 147.27 70.9579 147.159 72.2381 148.222C72.8942 148.841 72.5902 149.634 72.6702 150.364C72.7342 150.951 72.4782 151.665 73.2463 152.014C75.4706 152.411 75.4866 152.395 75.5987 150.269C75.6307 149.634 75.6467 149.016 76.0788 148.508C76.1428 147.746 76.7669 147.461 77.279 147.08C77.551 146.668 78.1271 146.699 78.4151 146.303C82.0637 145.462 84.064 146.937 84.032 150.586C84.016 152.014 84.352 152.601 85.8883 152.49C87.9686 152.331 90.065 152.395 92.1613 152.347C92.6094 151.982 92.6414 151.618 92.1453 151.269C90.9451 149.222 88.8008 147.937 87.6166 145.874C87.1845 145.62 87.2165 145.049 86.8324 144.764C86.4644 143.701 86.4644 142.749 87.6166 142.146C88.2247 141.987 88.8168 141.829 89.4249 141.67C89.8089 141.4 90.353 141.384 90.6571 140.956C91.5532 140.702 92.4334 140.433 93.3295 140.179C93.6816 139.845 94.1936 139.814 94.5617 139.512C96.0339 139.449 95.6499 140.591 95.7139 141.369C95.7779 142.098 95.8899 142.892 94.7857 143.082C94.1616 143.177 93.5855 143.447 92.9774 143.637C92.6574 144.018 92.1133 144.018 91.7773 144.351C91.6812 144.351 91.5692 144.367 91.4892 144.415C90.9931 144.78 91.0411 145.145 91.4572 145.525C92.8014 147.048 94.1616 148.556 95.4738 150.126C96.626 151.522 96.2419 153.347 94.4657 155.298C93.8896 155.996 93.0734 155.774 92.3373 155.774C88.1126 155.79 83.888 155.79 79.6633 155.79C77.2309 155.584 74.7345 156.218 72.3341 155.425C71.55 154.87 70.7979 155.33 70.0138 155.441C68.8616 155.6 67.6614 155.758 66.5892 155.044C66.2212 154.6 65.8371 154.6 65.4531 155.029C62.7006 155.171 60.8763 156.504 59.6601 158.995C59.3561 159.614 58.4599 160.518 57.4038 160.677C56.9717 161.168 56.3956 161.089 55.8355 161.105C54.6033 161.105 53.3711 161.105 52.1389 161.105C51.5788 161.089 51.0028 161.153 50.5547 160.693C49.3225 160.058 48.0583 159.455 47.5462 158.027C47.2101 157.805 47.1301 157.456 47.1301 157.091C47.0661 156.52 47.2901 155.869 46.7301 155.425C46.506 154.156 46.378 152.903 46.25 151.633Z" fill="#015001"/>
<path d="M145.727 152.84C145.631 153.966 145.375 154.998 144.127 155.41C143.119 156.013 142.095 155.981 141.087 155.426C140.19 155.077 139.294 154.903 138.414 155.442C137.518 155.966 136.622 155.966 135.726 155.442C135.358 155.299 134.99 155.141 134.622 154.998C134.221 154.633 133.805 154.649 133.389 154.982C132.301 155.363 131.181 155.474 130.029 155.474C126.3 155.442 122.572 155.458 118.827 155.474C117.931 155.474 117.051 155.426 116.219 155.077C115.723 154.553 115.21 154.617 114.682 155.014C114.314 155.156 113.93 155.299 113.562 155.458C112.666 155.95 111.77 156.013 110.906 155.41C110.666 155.283 110.41 155.141 110.17 155.014C109.754 154.665 109.338 154.665 108.921 154.998C108.441 155.156 107.945 155.315 107.465 155.474C106.697 155.934 105.929 155.966 105.161 155.426C103.833 154.903 102.264 154.649 102.088 152.792C101.384 151.539 101.784 150.191 101.736 148.89C101.672 146.748 101.768 144.59 101.704 142.448C101.656 141.036 102.344 140.814 103.577 140.782C104.889 140.751 104.969 141.369 104.985 142.401C105.049 145.479 104.729 148.572 105.161 151.634L105.193 151.618C106.057 152.19 106.905 152.237 107.753 151.603C107.881 151.349 108.009 151.095 108.137 150.841C109.002 150.27 108.297 149.159 108.953 148.509C108.937 147.208 110.138 146.954 110.874 146.304C111.786 146.05 112.682 146.034 113.594 146.304C115.13 146.557 115.675 147.779 116.299 148.953C116.523 149.223 116.619 149.54 116.619 149.889C116.635 150.365 116.571 150.873 116.971 151.269C117.179 151.983 117.515 152.491 118.411 152.428C119.227 152.364 120.059 152.38 120.891 152.428C122.78 152.539 123.708 151.761 123.564 149.81C123.516 149.27 123.404 148.667 123.884 148.191C126.348 147.398 126.732 147.652 126.764 150.175C126.764 150.666 126.652 151.174 126.94 151.634C128.141 153.094 129.837 152.491 131.213 152.332C132.413 152.19 131.853 150.698 131.981 149.778C132.093 149.619 132.221 149.477 132.349 149.334C132.765 148.683 133.229 148.08 134.125 148.303C135.086 148.541 135.022 149.366 135.086 150.095C135.118 150.46 135.118 150.841 135.198 151.19C135.262 151.365 135.31 151.539 135.342 151.714C135.438 152.618 136.142 152.872 136.83 152.777C137.518 152.681 137.454 151.967 137.486 151.396C137.55 150.349 137.246 149.286 137.678 148.255C138.046 146.922 139.182 147.541 139.822 147.668C140.398 147.779 140.959 148.493 140.975 149.35C140.991 150.349 141.071 151.349 141.119 152.348C141.935 153.03 142.527 153.078 142.847 151.856C143.071 150.968 143.519 150.143 143.423 149.175C143.359 148.588 143.551 148.049 144.255 147.906C145.535 147.747 146.159 148.287 146.063 149.572C145.967 150.651 146.287 151.793 145.727 152.84Z" fill="#015101"/>
<path d="M105.123 151.634C104.339 149.952 104.883 148.191 104.755 146.462C104.675 145.272 104.755 144.082 104.739 142.876C104.723 141.956 105.123 140.862 103.411 140.83C101.747 140.798 101.971 141.798 101.971 142.797C102.003 146.129 102.035 149.445 102.051 152.776C101.138 152.586 101.33 151.84 101.314 151.269C101.25 148.191 101.298 145.098 101.186 142.02C101.122 140.386 102.163 140.576 103.187 140.56C104.227 140.544 105.219 140.386 105.171 142.004C105.075 145.209 105.139 148.429 105.123 151.634Z" fill="#93B593"/>
<path d="M79.5235 155.441C84.4843 155.409 89.429 155.362 94.3898 155.33C94.3098 156.568 93.3337 156.187 92.6616 156.203C88.2769 156.219 83.9082 156.187 79.5235 156.187C79.2995 155.917 79.2995 155.679 79.5235 155.441Z" fill="#DEE8DE"/>
<path d="M60.0629 146.224C58.3827 144.923 58.3827 144.225 60.0629 143.02C60.9431 142.068 61.5512 143.242 62.3193 143.289C62.9274 144.146 62.2873 145.003 62.2873 145.859C61.5671 146.066 60.9751 147.113 60.0629 146.224Z" fill="#145D14"/>
<path d="M126.521 157.758C127.545 158.741 127.369 159.709 126.505 160.677C126.041 161.185 125.529 161.121 125.001 160.788C124.009 160.915 123.705 160.249 123.673 159.487C123.625 158.567 123.929 157.805 125.001 157.663C125.529 157.313 126.041 157.266 126.521 157.758Z" fill="#0E5A0E"/>
<path d="M120.999 160.741C119.799 161.043 119.175 159.932 119.127 159.25C119.079 158.457 119.815 157.568 121.016 157.663C121.96 157.743 122.808 157.87 122.824 159.091C122.84 160.281 122.264 160.836 120.999 160.741Z" fill="#0E5A0E"/>
<path d="M139.896 142.971C140.216 143.606 141.624 143.717 140.76 144.955C139.768 146.351 138.632 146.208 137.351 145.51C136.855 144.907 136.775 144.304 137.287 143.67C137.672 143.432 138.04 143.194 138.424 142.956C138.92 142.48 139.4 142.48 139.896 142.971Z" fill="#0F5B0F"/>
<path d="M66.1133 142.971C66.3853 143.193 66.6414 143.415 66.9134 143.653C67.3775 144.288 67.3775 144.938 66.9134 145.573C65.8732 146.62 64.8171 146.287 63.7609 145.589C63.6329 144.939 63.5529 144.304 63.8089 143.669C64.209 143.447 64.609 143.225 65.0251 143.003C65.3932 142.575 65.7452 142.59 66.1133 142.971Z" fill="#0E590E"/>
<path d="M71.8221 145.923C71.6941 146.034 71.566 146.129 71.438 146.24C70.7019 146.859 69.9658 146.906 69.2456 146.208C69.0856 146.002 68.9256 145.796 68.7496 145.59C68.3495 144.939 68.3015 144.304 68.8296 143.686C69.8537 142.988 70.8779 143.003 71.9021 143.654C72.0941 144.415 72.2381 145.177 71.8221 145.923Z" fill="#0A560A"/>
<path d="M81.5069 143.352C81.1068 143.876 80.7708 144.495 79.9546 144.368C79.6026 144.05 79.0745 144.035 78.7544 143.67C78.6264 143.543 78.4984 143.416 78.3544 143.289C77.9863 142.765 77.9543 142.273 78.4184 141.782C79.5706 140.56 80.5787 140.56 81.4589 141.734C81.8589 142.273 81.8269 142.813 81.5069 143.352Z" fill="#0D590D"/>
<path d="M145.258 143.32C145.674 144.129 145.978 145.05 145.194 145.7C144.282 146.446 143.226 146.303 142.298 145.526C141.705 144.923 141.705 144.304 142.298 143.701C142.41 143.59 142.522 143.463 142.634 143.352C143.498 142.955 144.378 143.003 145.258 143.32Z" fill="#0C590C"/>
<path d="M132.986 143.59C134.058 142.606 135.098 142.796 136.122 143.669C136.426 144.05 136.426 144.431 136.138 144.811C135.434 146.366 134.314 146.239 133.066 145.525C132.537 144.907 132.617 144.256 132.986 143.59Z" fill="#0C580C"/>
<path d="M73.0277 152.444C71.5075 151.285 72.3716 149.667 72.2276 148.239C73.6038 148.557 72.8837 149.635 72.9957 150.397C73.1077 151.063 73.0917 151.65 73.9879 151.65C74.9 151.65 74.9 151.047 74.948 150.397C74.996 149.746 74.548 148.795 75.7482 148.636C75.9562 149.048 75.8762 149.493 75.8922 149.921C75.9242 152.777 75.9242 152.777 73.0277 152.444Z" fill="#D7E3D7"/>
<path d="M145.724 152.84C145.708 151.92 145.596 150.984 145.708 150.079C145.916 148.477 145.324 147.906 143.756 148.286C143.484 148.445 143.228 148.429 143.004 148.223C143.516 146.684 144.748 147.588 145.644 147.509C146.572 147.43 146.54 148.318 146.444 148.873C146.188 150.19 147.085 151.729 145.724 152.84Z" fill="#669566"/>
<path d="M79.5191 155.441C79.5191 155.679 79.5191 155.933 79.5191 156.171C77.5828 156.187 75.6304 156.203 73.6941 156.203C73.102 156.203 72.3659 156.377 72.2539 155.457C74.6703 155.441 77.1027 155.441 79.5191 155.441Z" fill="#DCE7DC"/>
<path d="M49.4025 155.363C49.3865 154.474 49.3545 153.602 49.3545 152.713C49.3385 149.683 49.3545 149.683 46.314 150.175C46.298 150.016 46.266 149.873 46.25 149.715C50.1226 149.508 50.1226 149.508 50.1226 153.38C50.1226 154.062 50.0906 154.76 50.0746 155.442C49.8186 155.648 49.5785 155.648 49.4025 155.363Z" fill="#C4D6C4"/>
<path d="M73.0274 125.107C75.3318 125.091 77.6201 125.091 79.9245 125.075C79.8125 126.011 79.0604 125.837 78.4843 125.853C76.676 125.868 74.8517 125.821 73.0434 125.805C72.8034 125.567 72.8034 125.345 73.0274 125.107Z" fill="#BFD3BF"/>
<path d="M118.102 58.6787C120.182 58.6946 122.263 58.7104 124.327 58.7263C124.471 58.9802 124.455 59.2023 124.199 59.3768C122.199 59.3609 120.182 59.345 118.182 59.3291C117.91 59.1388 117.91 58.9167 118.102 58.6787Z" fill="#3E7A3E"/>
<path d="M143 148.223C143.256 148.239 143.512 148.27 143.752 148.286C143.864 149.682 143.656 150.999 142.984 152.237C142.744 152.665 142.728 153.315 142.168 153.411C141.4 153.553 141.352 152.808 141.096 152.332C142.264 152.792 142.824 152.475 142.792 151.158C142.76 150.174 142.92 149.206 143 148.223Z" fill="#085508"/>
<path d="M90.5592 114.414C90.5912 112.78 90.6072 111.13 90.6392 109.496C91.7274 110.813 91.7594 113.986 90.7033 115.223C90.3512 115.001 90.3992 114.716 90.5592 114.414Z" fill="#CADACA"/>
<path d="M137.644 148.254C137.644 149.317 137.66 150.38 137.628 151.443C137.612 152.252 137.66 153.378 136.684 153.363C135.996 153.347 134.812 152.887 134.972 151.617C135.228 151.443 135.468 151.411 135.676 151.665C135.708 152.284 136.028 152.569 136.652 152.506C137.292 152.458 137.228 151.982 137.292 151.554C137.452 150.459 137.1 149.317 137.644 148.254Z" fill="#075407"/>
<path d="M135.755 48.1284C136.059 45.6693 134.379 43.5116 134.619 41.0684C136.156 43.2419 136.284 45.6375 135.755 48.1284Z" fill="#0B580B"/>
<path d="M126.906 151.649C126.794 151.38 126.538 151.078 126.586 150.84C127.018 148.556 125.85 147.969 123.85 148.206C124.298 146.842 125.45 147.588 126.234 147.556C127.05 147.524 126.89 148.46 126.922 149.047C126.97 149.904 126.922 150.777 126.906 151.649Z" fill="#7CA47C"/>
<path d="M61.8711 152.047C62.8472 151.634 62.6392 150.778 62.7032 149.984C62.7672 149.334 62.3031 148.398 63.5033 148.239C63.8074 149.334 63.6474 150.46 63.6154 151.571C63.5834 152.777 63.1353 152.872 61.8711 152.047Z" fill="#EBF1EB"/>
<path d="M94.1345 127.82C95.3027 129.375 96.8869 128.137 98.2471 128.407C99.1913 128.042 100.103 127.868 100.984 128.55C98.6792 129.089 96.3268 128.835 94.0065 128.915C93.6864 128.931 93.1423 129.073 93.2064 128.455C93.2384 127.915 93.5904 127.693 94.1345 127.82Z" fill="#85AB85"/>
<path d="M60.7686 62.8358C60.7526 64.3747 60.7525 65.8978 60.7365 67.4367C60.4645 67.5954 60.2405 67.5954 60.0805 67.294C60.0805 65.8026 60.0645 64.3113 60.0645 62.8199C60.3045 62.5978 60.5445 62.5978 60.7686 62.8358Z" fill="#3E7A3E"/>
<path d="M100.983 128.534C100.07 128.486 99.1582 128.439 98.2461 128.391C98.8542 127.122 99.9904 127.884 100.887 127.741C101.543 127.63 102.247 127.757 102.935 127.772C103.095 128.026 103.079 128.248 102.839 128.439C102.199 128.471 101.591 128.502 100.983 128.534Z" fill="#1C631C"/>
<path d="M92.822 47.6843C92.71 47.7319 92.518 47.8429 92.486 47.8112C91.7499 46.9228 91.9739 44.3526 92.8701 43.4482C92.854 44.8603 92.838 46.2722 92.822 47.6843Z" fill="#528852"/>
<path d="M60.7626 62.8357C60.5226 62.8357 60.2825 62.8198 60.0585 62.8198C59.8825 61.4395 59.9305 60.0434 60.0745 58.6631C60.2986 58.4251 60.5386 58.4252 60.7786 58.6314C60.7626 60.0276 60.7626 61.4396 60.7626 62.8357Z" fill="#256925"/>
<path d="M105.559 111.399C107.079 112.431 105.911 113.954 106.279 115.191C106.039 115.429 105.799 115.429 105.559 115.207C105.559 113.938 105.559 112.669 105.559 111.399Z" fill="#236C20"/>
<path d="M132.236 149.714C132.14 149.746 132.044 149.778 131.948 149.794C131.772 148.985 131.548 147.938 132.396 147.62C133.18 147.335 134.38 146.859 135.037 148.128C134.957 148.302 134.813 148.398 134.636 148.429C133.452 148.128 132.684 148.636 132.236 149.714Z" fill="#A7C2A7"/>
<path d="M51.9981 160.756C53.2783 160.756 54.5425 160.756 55.8227 160.756C56.0468 161.01 56.0468 161.248 55.8067 161.486C54.5425 161.486 53.2783 161.486 52.0141 161.486C51.7741 161.248 51.7741 161.01 51.9981 160.756Z" fill="#D1DFD1"/>
<path d="M61.8693 152.047C62.7814 152.745 63.4375 152.808 63.4695 151.396C63.5016 150.349 63.4855 149.286 63.5015 148.239C63.6136 148.16 63.7256 148.16 63.8376 148.207C63.8376 149.35 63.8536 150.476 63.8536 151.618C63.8536 152.142 63.8376 152.713 63.1495 152.761C62.5254 152.808 61.6772 153.141 61.5332 152.047C61.6452 152.015 61.7573 152.015 61.8693 152.047Z" fill="#266A26"/>
<path d="M73.0234 152.443C73.4075 152.459 73.7755 152.427 74.1596 152.475C75.4398 152.649 76.0479 152.3 75.7599 150.857C75.6158 150.143 75.7439 149.365 75.7599 148.62C75.8559 148.556 75.9519 148.524 76.0639 148.524C76.0799 149.143 76.0959 149.778 76.1119 150.397C76.1119 153.046 75.6479 153.347 73.0234 152.443Z" fill="#276A27"/>
<path d="M69.1498 148.509C69.1818 149.429 69.2618 150.349 69.2458 151.269C69.1978 153.015 68.6697 153.253 66.9414 152.332C68.4136 152.745 69.1178 152.316 68.9417 150.682C68.8617 149.968 69.0698 149.223 69.1498 148.509Z" fill="#2B6D2B"/>
<path d="M141.064 155.426C142.073 155.426 143.097 155.41 144.105 155.41C143.161 156.537 142.057 156.552 141.064 155.426Z" fill="#B3CAB3"/>
<path d="M93.1904 31.6447C92.3263 31.6605 91.4462 31.6605 90.582 31.6764C91.2381 30.5023 92.3423 30.9942 93.3024 30.9625C93.5105 31.2322 93.5265 31.4701 93.1904 31.6447Z" fill="#6B9A6B"/>
<path d="M102.822 128.439C102.854 128.217 102.886 127.995 102.918 127.772C103.798 127.772 104.679 127.772 105.559 127.772C105.735 128.042 105.783 128.28 105.415 128.439C104.551 128.423 103.686 128.439 102.822 128.439Z" fill="#7AA47A"/>
<path d="M138.376 95.0905C137.096 94.44 137.752 93.2978 137.688 92.3458C137.944 92.1872 138.168 92.203 138.36 92.4727C138.376 93.3453 138.376 94.2179 138.376 95.0905Z" fill="#437D43"/>
<path d="M107.721 151.603C106.936 152.808 105.88 152.824 105.16 151.618C106.008 151.618 106.872 151.603 107.721 151.603Z" fill="#B6CDB6"/>
<path d="M61.1322 148.27C60.2521 148.254 59.3719 148.238 58.5078 148.207C59.0519 146.763 60.2361 147.683 61.1322 147.477C61.4202 147.746 61.3882 148.016 61.1322 148.27Z" fill="#A3BFA3"/>
<path d="M110.885 155.394C111.765 155.409 112.661 155.425 113.541 155.441C112.565 156.504 111.845 156.504 110.885 155.394Z" fill="#CFDECF"/>
<path d="M135.709 155.441C136.605 155.441 137.501 155.441 138.397 155.441C137.357 156.52 136.653 156.52 135.709 155.441Z" fill="#9FBD9F"/>
<path d="M137.672 103.45C137.736 102.625 137.352 101.658 138.376 101.118C138.344 101.959 138.936 102.974 137.672 103.45Z" fill="#B7CDB7"/>
<path d="M105.141 155.41C105.909 155.426 106.677 155.442 107.445 155.458C106.645 156.616 105.877 156.6 105.141 155.41Z" fill="#CDDCCD"/>
<path d="M69.2656 146.192C70.0017 146.208 70.7218 146.208 71.458 146.224C70.6098 147.446 70.0337 147.43 69.2656 146.192Z" fill="#DBE5DB"/>
<path d="M108.921 148.509C108.729 149.318 109.625 150.492 108.105 150.841C108.233 150.016 107.593 148.921 108.921 148.509Z" fill="#0F5A0F"/>
<path d="M58.0943 154.283C57.9343 155.076 58.8464 156.203 57.3742 156.615C57.5502 155.806 56.8301 154.743 58.0943 154.283Z" fill="#AFC8AF"/>
<path d="M93.1895 31.6451C93.2215 31.423 93.2535 31.185 93.3015 30.9629C94.0536 30.947 94.8217 30.9311 95.5739 30.8994C95.1578 32.359 94.0056 31.4706 93.1895 31.6451Z" fill="#135E13"/>
<path d="M60.0645 146.224C60.8006 146.097 61.5527 145.986 62.2888 145.859C61.6167 146.351 61.1366 148.112 60.0645 146.224Z" fill="#F4F7F4"/>
<path d="M62.3208 143.289C61.5687 143.194 60.8166 143.114 60.0645 143.019C60.8006 141.861 60.8006 141.861 62.3208 143.289Z" fill="#F4F7F4"/>
<path d="M136.137 144.812C136.137 144.431 136.121 144.051 136.121 143.67C136.521 143.67 136.905 143.686 137.305 143.686C137.321 144.305 137.353 144.907 137.369 145.526C136.857 145.415 136.713 144.733 136.137 144.812Z" fill="#D8E4D8"/>
<path d="M61.1371 148.271C61.1371 148.017 61.1371 147.747 61.1211 147.493C62.0172 148.794 61.4891 150.254 61.5371 151.65C60.977 150.571 61.3771 149.397 61.1371 148.271Z" fill="#D4E2D4"/>
<path d="M87.5715 142.178C86.9474 142.955 86.6593 143.812 86.7873 144.796C86.5313 143.78 85.4271 142.495 87.5715 142.178Z" fill="#659565"/>
<path d="M135.033 148.127C136.137 148.524 135.625 149.412 135.641 150.142C135.353 150.348 135.081 150.316 134.825 150.078C134.745 149.491 134.665 148.889 134.857 148.301C134.921 148.238 134.985 148.19 135.033 148.127Z" fill="#A5C1A5"/>
<path d="M124.219 59.3773C124.267 59.1552 124.299 58.9331 124.347 58.7268C124.955 58.6951 125.563 58.6792 126.171 58.6475C125.883 59.8532 124.955 59.3614 124.219 59.3773Z" fill="#CBDBCB"/>
<path d="M60.767 58.6314C60.527 58.6473 60.3029 58.6473 60.0629 58.6632C60.0629 58.0444 60.0469 57.4098 60.0469 56.7911C60.2229 56.5372 60.4629 56.5213 60.703 56.68C60.735 57.3305 60.751 57.981 60.767 58.6314Z" fill="#4C834C"/>
<path d="M60.7183 56.6802C60.4943 56.712 60.2702 56.7596 60.0622 56.7913C60.0942 56.0774 59.5981 55.1572 60.7663 54.8398C60.7343 55.4586 60.7343 56.0615 60.7183 56.6802Z" fill="#D1DFD1"/>
<path d="M105.396 128.423C105.444 128.201 105.492 127.978 105.541 127.756C106.165 127.74 106.789 127.74 107.429 127.725C107.109 128.962 106.133 128.359 105.396 128.423Z" fill="#ECF1EC"/>
<path d="M138.362 92.4729C138.138 92.4253 137.914 92.3936 137.69 92.346C137.674 91.7432 137.658 91.1244 137.658 90.5215C138.826 90.8388 138.346 91.7431 138.362 92.4729Z" fill="#D2E0D2"/>
<path d="M142.3 143.701C142.3 144.304 142.3 144.923 142.3 145.526C141.036 144.923 141.02 144.304 142.3 143.701Z" fill="#EAF0EA"/>
<path d="M132.989 143.59C133.021 144.24 133.037 144.891 133.069 145.525C131.901 144.923 131.837 144.288 132.989 143.59Z" fill="#609260"/>
<path d="M68.8456 143.686C68.8136 144.32 68.7976 144.955 68.7656 145.589C67.5654 144.907 67.6774 144.273 68.8456 143.686Z" fill="#A9C4A9"/>
<path d="M66.9102 145.573C66.9102 144.938 66.9102 144.304 66.9102 143.653C68.0943 144.288 68.0783 144.923 66.9102 145.573Z" fill="#80A880"/>
<path d="M46.6367 155.426C47.6929 155.569 47.3408 156.362 47.3888 156.996C47.1328 157.171 46.8928 157.171 46.6847 156.917C46.6687 156.425 46.6527 155.918 46.6367 155.426Z" fill="#1C631C"/>
<path d="M139.9 142.971C139.404 142.971 138.924 142.971 138.428 142.971C138.428 142.479 138.62 142.178 139.164 142.178C139.708 142.178 139.9 142.495 139.9 142.971Z" fill="#E4ECE4"/>
<path d="M60.0765 67.2939C60.3006 67.3415 60.5086 67.3891 60.7326 67.4367C60.7326 67.9286 60.7486 68.4045 60.7486 68.8964C59.7405 68.706 60.0285 67.9444 60.0765 67.2939Z" fill="#CBDCCB"/>
<path d="M78.4019 141.781C78.3859 142.289 78.3699 142.781 78.3379 143.288C77.9218 143.241 77.6338 143.066 77.6178 142.606C77.6018 142.051 77.8898 141.813 78.4019 141.781Z" fill="#CBDBCB"/>
<path d="M114.68 154.997C114.68 154.553 114.888 154.315 115.352 154.284C115.912 154.252 116.152 154.553 116.216 155.061C115.704 155.045 115.192 155.029 114.68 154.997Z" fill="#4D854D"/>
<path d="M106.66 48.0332C107.7 48.176 107.38 48.9693 107.396 49.588C107.14 49.7625 106.9 49.7625 106.708 49.4928C106.692 49.001 106.676 48.5092 106.66 48.0332Z" fill="#317231"/>
<path d="M71.8738 99.6277C71.7138 100.548 71.0096 100.437 70.3535 100.405C70.4975 99.4373 71.2177 99.596 71.8738 99.6277Z" fill="#6D9B6D"/>
<path d="M51.9976 157.694C51.3095 157.79 50.5894 157.964 50.5254 156.917C51.1175 156.996 51.8696 156.758 51.9976 157.694Z" fill="#AAC4AA"/>
<path d="M126.52 157.758C126.008 157.726 125.512 157.694 125 157.663C125.016 157.218 125.224 156.98 125.704 156.965C126.264 156.949 126.504 157.218 126.52 157.758Z" fill="#C8D9C8"/>
<path d="M135 150.095C135.224 150.111 135.432 150.126 135.656 150.126C135.672 150.634 135.672 151.142 135.688 151.649C135.448 151.634 135.208 151.618 134.984 151.602V151.618C134.68 151.11 134.648 150.602 135 150.095Z" fill="#82A982"/>
<path d="M51.9968 160.757C51.9968 160.995 52.0128 161.248 52.0128 161.486C51.3887 161.439 50.5726 161.772 50.4766 160.709C50.9726 160.725 51.4847 160.741 51.9968 160.757Z" fill="#E6EDE6"/>
<path d="M81.5031 143.353C81.4871 142.813 81.4711 142.274 81.4551 141.734C82.5593 142.242 82.7673 142.782 81.5031 143.353Z" fill="#679767"/>
<path d="M55.8086 161.487C55.8086 161.249 55.8246 160.995 55.8246 160.757C56.3207 160.741 56.8328 160.709 57.3289 160.693C57.2648 161.772 56.4327 161.423 55.8086 161.487Z" fill="#E7EFE7"/>
<path d="M125 160.788C125.496 160.756 126.008 160.724 126.504 160.677C126.488 161.2 126.264 161.486 125.704 161.47C125.24 161.454 125.032 161.216 125 160.788Z" fill="#C4D6C4"/>
<path d="M134.953 50.683C134.809 50.0642 135.161 49.5883 135.449 49.1123C135.945 49.8421 136.025 50.445 134.953 50.683Z" fill="#86AC86"/>
<path d="M145.262 143.32C144.381 143.066 143.501 143.162 142.621 143.336C143.501 142.575 144.381 142.543 145.262 143.32Z" fill="#D7E3D7"/>
<path d="M113.556 146.303C112.644 146.303 111.748 146.303 110.836 146.303C111.748 145.938 112.66 145.7 113.556 146.303Z" fill="#357535"/>
<path d="M86.7837 144.796C87.5038 144.843 87.5679 145.351 87.5679 145.906C86.8797 145.843 86.5597 145.51 86.7837 144.796Z" fill="#5D905D"/>
<path d="M104.755 60.9323C104.067 61.1068 103.731 60.8054 103.635 60.1549C104.195 60.139 104.691 60.2342 104.755 60.9323Z" fill="#9DBC9D"/>
<path d="M114.679 66.2466C114.103 66.2783 113.607 66.2148 113.543 65.485C114.199 65.3423 114.615 65.5485 114.679 66.2466Z" fill="#679767"/>
<path d="M116.986 67.3737C116.346 67.5006 115.914 67.3261 115.85 66.6122C116.426 66.5805 116.922 66.6598 116.986 67.3737Z" fill="#9FBD9F"/>
<path d="M78.3667 146.319C78.3347 147.065 77.7906 147.096 77.2305 147.096C77.3265 146.414 77.6626 146.113 78.3667 146.319Z" fill="#5F925F"/>
<path d="M61.5706 71.9268C62.3867 71.9744 62.3387 72.5455 62.2907 73.1167C61.5385 73.0215 61.4106 72.5614 61.5706 71.9268Z" fill="#639463"/>
<path d="M64.2242 77.2568C64.9763 77.2568 65.0083 77.7804 65.0403 78.3357C64.3842 78.2563 64.0161 77.9708 64.2242 77.2568Z" fill="#6E9C6E"/>
<path d="M136.858 87.4904C136.106 87.4111 135.994 86.9352 136.138 86.3164C136.97 86.3481 136.89 86.951 136.858 87.4904Z" fill="#799D79"/>
<path d="M78.7676 90.5205C79.4557 90.3142 79.8077 90.6316 79.9037 91.282C79.3437 91.2979 78.7836 91.2979 78.7676 90.5205Z" fill="#9ABA9A"/>
<path d="M81.0742 91.6475C81.6343 91.6475 82.1784 91.6792 82.1944 92.4248C81.4903 92.647 81.1862 92.2979 81.0742 91.6475Z" fill="#6D9B6D"/>
<path d="M86.4004 94.3279C86.9765 94.3121 87.5206 94.312 87.5526 95.0894C86.8645 95.2798 86.4804 95.026 86.4004 94.3279Z" fill="#5B8F5B"/>
<path d="M81.4896 100.357C80.9295 100.404 80.3214 100.547 80.2734 99.6905C80.8655 99.5636 81.4416 99.5001 81.4896 100.357Z" fill="#4C844C"/>
<path d="M68.0136 101.134C67.9496 101.769 67.6455 102.118 66.9414 101.959C66.9414 101.229 67.4375 101.118 68.0136 101.134Z" fill="#9AB99A"/>
<path d="M136.17 107.702C136.074 107.099 136.074 106.544 136.89 106.48C137.002 107.099 137.002 107.639 136.17 107.702Z" fill="#387738"/>
<path d="M90.2115 108.369C89.4114 108.322 89.4434 107.766 89.4754 107.195C90.2596 107.259 90.3876 107.719 90.2115 108.369Z" fill="#568A56"/>
<path d="M62.3022 107.592C62.4143 108.195 62.3822 108.718 61.5821 108.766C61.5181 108.195 61.5341 107.671 62.3022 107.592Z" fill="#A1BEA1"/>
<path d="M134.954 110.257C134.938 109.686 134.97 109.163 135.738 109.131C135.898 109.797 135.69 110.21 134.954 110.257Z" fill="#5B8F5B"/>
<path d="M105.559 115.207C105.799 115.207 106.039 115.191 106.279 115.191C106.295 115.747 106.311 116.302 105.527 116.334C105.543 115.953 105.543 115.588 105.559 115.207Z" fill="#095709"/>
<path d="M61.5794 115.557C62.4116 115.604 62.3156 116.207 62.2836 116.747C61.4834 116.683 61.4034 116.191 61.5794 115.557Z" fill="#588C58"/>
<path d="M89.4609 117.857C89.3489 117.255 89.3329 116.715 90.181 116.699C90.229 117.255 90.085 117.699 89.4609 117.857Z" fill="#598D59"/>
<path d="M118.887 124.283C118.919 123.473 119.495 123.537 120.055 123.553C119.991 124.314 119.543 124.457 118.887 124.283Z" fill="#699769"/>
<path d="M73.0245 125.108C73.0245 125.33 73.0245 125.568 73.0405 125.79C72.4484 125.853 71.9363 125.79 71.9043 125.028C72.2724 125.06 72.6404 125.092 73.0245 125.108Z" fill="#C9D9C9"/>
<path d="M114.68 125.805C114.728 125.012 115.288 125.043 115.864 125.091C116.056 125.361 116.072 125.583 115.768 125.789C115.4 125.789 115.048 125.789 114.68 125.805Z" fill="#538953"/>
<path d="M116.294 150.047C116.278 149.682 116.278 149.317 116.262 148.952C117.142 148.984 116.982 149.603 116.95 150.142C116.71 150.332 116.47 150.332 116.294 150.047Z" fill="#B4CCB4"/>
<path d="M115.768 125.773C115.8 125.535 115.832 125.313 115.864 125.075C116.232 125.044 116.6 125.028 116.968 124.996C116.936 125.853 116.376 125.853 115.768 125.773Z" fill="#D3E0D3"/>
<path d="M97.1104 126.201C96.9984 126.836 96.6943 127.185 95.9902 126.995C96.0062 126.233 96.5183 126.186 97.1104 126.201Z" fill="#9FBD9F"/>
<path d="M110.873 126.948C110.921 126.123 111.497 126.202 112.073 126.234C112.249 126.488 112.249 126.726 111.977 126.916C111.609 126.932 111.241 126.932 110.873 126.948Z" fill="#2F702F"/>
<path d="M116.293 150.047C116.517 150.079 116.741 150.11 116.949 150.142C116.949 150.523 116.933 150.888 116.933 151.268C116.133 151.173 116.181 150.618 116.293 150.047Z" fill="#4D854D"/>
<path d="M111.973 126.916C112.005 126.693 112.037 126.456 112.069 126.233C112.437 126.233 112.821 126.233 113.189 126.233C113.061 126.963 112.581 127.058 111.973 126.916Z" fill="#A4C0A4"/>
<path d="M94.5017 139.544C94.4537 140.433 93.8616 140.322 93.2695 140.21C93.3335 139.37 93.9256 139.465 94.5017 139.544Z" fill="#A1BEA1"/>
<path d="M92.1016 151.285C92.5016 151.317 92.8857 151.396 92.8857 151.888C92.8857 152.427 92.5336 152.475 92.1016 152.364C92.1176 152.015 92.1016 151.65 92.1016 151.285Z" fill="#77A277"/>
<path d="M90.5955 140.989C90.5154 141.782 90.0194 141.861 89.3633 141.703C89.3633 140.751 90.0834 141.036 90.5955 140.989Z" fill="#518751"/>
<path d="M94.0065 51.4915C93.0943 51.5073 93.2864 50.8409 93.2704 50.3174C94.0225 50.3967 94.1665 50.841 94.0065 51.4915Z" fill="#9EBD9E"/>
<path d="M102.854 31.7244C102.838 31.0105 103.318 30.8994 103.894 30.8994C103.974 31.6927 103.542 31.8672 102.854 31.7244Z" fill="#5F905F"/>
<path d="M65.3789 155.045C65.4269 154.727 65.4589 154.394 65.859 154.363C66.387 154.315 66.4671 154.68 66.5151 155.077C66.147 155.061 65.763 155.045 65.3789 155.045Z" fill="#216721"/>
<path d="M108.902 154.982C108.87 154.537 109.03 154.284 109.526 154.3C110.023 154.3 110.167 154.585 110.151 154.998C109.734 154.982 109.318 154.982 108.902 154.982Z" fill="#80A880"/>
<path d="M66.1096 142.971C65.7416 142.971 65.3895 142.987 65.0215 142.987C65.0215 142.607 65.0695 142.226 65.5495 142.21C66.0456 142.21 66.0936 142.591 66.1096 142.971Z" fill="#F4F7F4"/>
<path d="M133.372 154.981C133.356 154.537 133.532 154.299 134.012 154.299C134.524 154.299 134.636 154.584 134.604 154.997C134.204 154.997 133.788 154.981 133.372 154.981Z" fill="#78A378"/>
<path d="M86.3897 32.8188C86.0216 32.8347 85.6376 32.8347 85.2695 32.8506C85.3335 32.0415 85.8776 32.0415 86.4857 32.1525C86.6458 32.3905 86.6297 32.6284 86.3897 32.8188Z" fill="#BCD0BC"/>
<path d="M86.3887 32.8179C86.4207 32.5958 86.4527 32.3737 86.4847 32.1516C86.8528 32.1516 87.2208 32.1516 87.5889 32.1357C87.5088 32.929 86.9328 32.8338 86.3887 32.8179Z" fill="#528852"/>
<path d="M49.4033 155.362C49.6274 155.394 49.8514 155.426 50.0754 155.457C50.0915 155.822 50.1075 156.187 50.1235 156.552C49.3073 156.489 49.2273 155.997 49.4033 155.362Z" fill="#5B8F5B"/>
<path d="M82.2272 33.6273C82.1152 34.3253 81.5871 34.357 81.043 34.3412C81.091 33.532 81.5871 33.4686 82.2272 33.6273Z" fill="#93B593"/>
<path d="M115.864 33.6281C115.736 34.2944 115.352 34.5482 114.68 34.3579C114.728 33.5329 115.304 33.5963 115.864 33.6281Z" fill="#8FB28F"/>
<path d="M127.704 34.3412C127.048 34.5316 126.632 34.3412 126.52 33.6273C127.08 33.5956 127.672 33.5162 127.704 34.3412Z" fill="#92B492"/>
<path d="M74.514 37.3721C74.45 38.0225 74.1299 38.3558 73.4418 38.1971C73.4258 37.4514 73.9379 37.3721 74.514 37.3721Z" fill="#98B898"/>
<path d="M93.3169 41.2265C93.2369 40.6237 93.2849 40.1001 94.069 40.0684C94.165 40.6871 94.117 41.1948 93.3169 41.2265Z" fill="#558B55"/>
<path d="M107.366 42.2578C107.43 42.8131 107.574 43.416 106.71 43.4794C106.582 42.8924 106.518 42.3371 107.366 42.2578Z" fill="#5E905E"/>
<path d="M46.6871 156.917C46.9271 156.949 47.1512 156.965 47.3912 156.996C47.4232 157.345 47.4392 157.694 47.4712 158.043C46.7511 157.964 46.479 157.615 46.6871 156.917Z" fill="#8AAF8A"/>
<path d="M106.712 49.4932C106.936 49.5249 107.176 49.5566 107.4 49.5884C107.416 49.9533 107.416 50.3182 107.432 50.6831C106.696 50.572 106.568 50.1119 106.712 49.4932Z" fill="#ABC5AB"/>
<path d="M71.8223 145.923C72.1263 145.177 71.9343 144.416 71.9183 143.67C72.4944 144.431 72.6064 145.193 71.8223 145.923Z" fill="#CFDECF"/>
<path d="M78.7363 143.669C79.3124 143.606 79.8405 143.621 79.9365 144.367C79.3444 144.478 78.7843 144.51 78.7363 143.669Z" fill="#80A880"/>
<path d="M91.7012 144.384C91.7332 143.527 92.3093 143.591 92.9014 143.67C92.8213 144.416 92.3093 144.479 91.7012 144.384Z" fill="#B7CDB7"/>
<path d="M114.311 57.5212C114.871 57.5054 115.447 57.4577 115.479 58.251C114.791 58.4573 114.423 58.1876 114.311 57.5212Z" fill="#719D71"/>
<path d="M126.92 58.2501C126.952 57.4569 127.528 57.5045 128.088 57.5045C127.976 58.2025 127.592 58.4564 126.92 58.2501Z" fill="#649464"/>
<path d="M118.103 58.6787C118.135 58.9008 118.151 59.1229 118.183 59.3291C117.591 59.4561 117.031 59.5354 116.967 58.6787C117.351 58.6787 117.735 58.6787 118.103 58.6787Z" fill="#97B797"/>
<path d="M91.3812 145.558C90.9811 145.542 90.6291 145.463 90.6451 144.955C90.6611 144.431 91.0131 144.4 91.4132 144.447C91.3972 144.812 91.3972 145.193 91.3812 145.558Z" fill="#588C58"/>
<path d="M90.5644 114.413C90.6124 114.683 90.6604 114.953 90.6924 115.222C90.5484 115.603 90.4204 116 90.2764 116.38C90.1004 115.698 90.1804 115.032 90.5644 114.413Z" fill="#598D59"/>
<path d="M63.8223 143.653C63.8063 144.288 63.7903 144.938 63.7743 145.573C63.1822 144.923 63.2302 144.272 63.8223 143.653Z" fill="#BBD0BB"/>
<path d="M81.4071 152.364C79.9029 152.856 79.3748 151.396 78.3826 150.872C78.0626 150.492 78.0626 150.111 78.3826 149.746C79.5988 148.223 80.575 148.445 81.4551 150.46C81.7752 151.11 81.9672 151.745 81.4071 152.364Z" fill="#EDF3ED"/>
<path d="M81.4121 152.364C81.4281 151.729 81.4441 151.095 81.4601 150.46C82.1482 151.11 82.9964 151.777 81.4121 152.364Z" fill="#90B390"/>
<path d="M78.3847 149.746C78.3847 150.127 78.3847 150.508 78.3847 150.873C77.9846 150.825 77.6166 150.73 77.6966 150.206C77.7446 149.81 78.0806 149.794 78.3847 149.746Z" fill="#0A570A"/>
<path d="M111.688 152.665C110.6 152.046 110.312 151.047 110.824 150.016C111.192 149.254 111.912 148.683 112.952 148.921C113.432 149.032 113.48 149.365 113.56 149.73C114.056 150.38 113.976 151.063 113.64 151.745C113.736 152.205 113.464 152.475 113.176 152.76C112.648 153.157 112.136 153.236 111.688 152.665Z" fill="#EDF2ED"/>
<path d="M135.002 150.095C135.002 150.603 134.986 151.11 134.986 151.618C134.858 151.412 134.65 151.221 134.618 150.999C134.234 148.334 134.25 148.334 132.234 149.714C131.994 147.176 133.882 148.556 134.874 148.302C134.922 148.905 134.954 149.508 135.002 150.095Z" fill="#055405"/>
<path d="M113.623 151.745C113.591 151.079 113.575 150.397 113.543 149.73C114.807 150.349 114.743 151.031 113.623 151.745Z" fill="#B1C9B1"/>
<path d="M111.687 152.665C112.183 152.697 112.663 152.728 113.159 152.76C113.127 153.252 112.903 153.522 112.375 153.506C111.815 153.474 111.671 153.141 111.687 152.665Z" fill="#196119"/>
</g>
<defs>
<clipPath id="clip0_5166_50057">
<rect width="192" height="192" fill="white"/>
</clipPath>
</defs>
</svg>
