<svg width="192" height="192" viewBox="0 0 192 192" fill="none" xmlns="http://www.w3.org/2000/svg">
<g clip-path="url(#clip0_5166_51296)">
<path d="M96 192C149.019 192 192 149.019 192 96C192 42.9807 149.019 0 96 0C42.9807 0 0 42.9807 0 96C0 149.019 42.9807 192 96 192Z" fill="white"/>
<path d="M34.16 81.248H39.088L43.92 97.088L44.4 98.688L44.88 97.056L49.712 81.248H54.704L46.736 104H42.064L34.16 81.248ZM56.9557 81.248H72.0598V84.768H61.4038V90.592H70.5558V94.016H61.4038V100.48H72.0918V104H56.9557V81.248ZM74.955 81.248H83.339C86.0057 81.248 88.0643 81.8453 89.515 83.04C90.987 84.2133 91.723 85.9093 91.723 88.128C91.723 89.6213 91.371 90.9013 90.667 91.968C89.963 93.0133 88.939 93.824 87.595 94.4L92.555 103.776V104H87.755L83.371 95.488H79.435V104H74.955V81.248ZM83.371 92C84.5657 92 85.5043 91.68 86.187 91.04C86.8697 90.4 87.211 89.5253 87.211 88.416C87.211 87.264 86.8803 86.3787 86.219 85.76C85.5577 85.12 84.6083 84.7893 83.371 84.768H79.435V92H83.371ZM95.3932 81.248H99.8733L109.313 96.768V81.248H113.761V104H109.281L99.8733 88.512V104H95.3932V81.248ZM124.483 81.248H128.643L137.155 104H132.419L130.755 99.072H122.435L120.771 104H116.035L124.483 81.248ZM129.603 95.552L126.563 86.56L123.587 95.552H129.603ZM147.617 104.288C146.017 104.288 144.513 104.011 143.105 103.456C141.719 102.901 140.599 102.069 139.745 100.96C138.892 99.8507 138.465 98.5067 138.465 96.928H142.977C142.977 98.208 143.372 99.1787 144.161 99.84C144.951 100.501 146.103 100.832 147.617 100.832C148.791 100.832 149.697 100.587 150.337 100.096C150.999 99.6053 151.329 98.9227 151.329 98.048C151.329 97.536 151.233 97.088 151.041 96.704C150.849 96.32 150.54 95.9893 150.113 95.712C149.687 95.4133 149.196 95.1573 148.641 94.944C148.087 94.7093 147.393 94.464 146.561 94.208C145.089 93.7173 144.033 93.312 143.393 92.992C140.577 91.6053 139.169 89.6853 139.169 87.232C139.169 85.952 139.543 84.832 140.289 83.872C141.036 82.912 142.039 82.176 143.297 81.664C144.577 81.152 145.985 80.896 147.521 80.896C149.1 80.896 150.519 81.1947 151.777 81.792C153.057 82.368 154.049 83.1893 154.753 84.256C155.479 85.3227 155.841 86.5387 155.841 87.904H151.329C151.329 86.7947 150.988 85.9307 150.305 85.312C149.623 84.6933 148.663 84.384 147.425 84.384C146.273 84.384 145.356 84.64 144.673 85.152C143.991 85.664 143.649 86.3573 143.649 87.232C143.649 88.064 144.087 88.7573 144.961 89.312C145.388 89.6107 145.836 89.856 146.305 90.048C146.796 90.24 147.521 90.496 148.481 90.816C148.609 90.8587 149.079 91.0187 149.889 91.296C150.721 91.5733 151.5 91.9147 152.225 92.32C154.636 93.6853 155.841 95.584 155.841 98.016C155.841 99.9573 155.105 101.493 153.633 102.624C152.161 103.733 150.156 104.288 147.617 104.288Z" fill="black"/>
</g>
<defs>
<clipPath id="clip0_5166_51296">
<rect width="192" height="192" fill="white"/>
</clipPath>
</defs>
</svg>
