<svg width="192" height="192" viewBox="0 0 192 192" fill="none" xmlns="http://www.w3.org/2000/svg">
<g clip-path="url(#clip0_4880_37957)">
<path d="M96 192C149.019 192 192 149.019 192 96C192 42.9807 149.019 0 96 0C42.9807 0 0 42.9807 0 96C0 149.019 42.9807 192 96 192Z" fill="white"/>
<path d="M121.141 62.2056C115.007 63.3347 109.285 66.3115 104.648 70.4516C105.666 69.9042 106.573 69.1942 107.574 68.6296C112.373 65.9095 117.907 64.5237 123.416 64.6606C127.12 64.7119 130.772 65.5331 134.228 66.8333C136.161 67.7058 138.069 68.6296 139.831 69.8186C141.773 71.1359 143.586 72.6585 145.194 74.3779C145.887 75.1135 146.546 75.8749 147.145 76.6875H147.187C148.068 77.9278 148.941 79.1767 149.677 80.5111C152.448 80.5111 155.228 80.5111 158 80.5111C157.238 79.151 156.486 77.7824 155.622 76.4822H155.579C155.057 75.6439 154.45 74.8655 153.825 74.1042C152.465 72.4276 150.943 70.8879 149.292 69.4936C147.915 68.373 146.495 67.2781 144.938 66.4312C137.906 62.1115 129.215 60.6145 121.123 62.2141L121.141 62.2056Z" fill="#AC4595"/>
<path d="M149.642 110.441C149.017 111.484 148.35 112.502 147.674 113.529H147.632C146.81 114.709 145.827 115.761 144.886 116.847H144.826C142.593 119.157 139.984 121.116 137.136 122.621C127.778 127.668 115.776 127.36 106.752 121.723C106.128 121.313 105.503 120.876 104.836 120.534C111.517 126.616 120.729 129.824 129.745 129.182C138.864 128.643 147.674 124.178 153.5 117.138C154.415 116.061 155.253 114.914 156.023 113.725C156.707 112.673 157.306 111.561 157.922 110.466C155.159 110.398 152.396 110.466 149.633 110.432L149.642 110.441Z" fill="#AC4595"/>
<path d="M125.468 130.287C119.044 129.927 112.774 127.643 107.513 123.948C105.126 122.237 102.954 120.244 101.046 118.003C99.6433 116.335 98.3773 114.539 97.3081 112.64C96.1276 110.561 95.161 108.371 94.4254 106.096C94.203 105.326 93.9549 104.556 93.7753 103.778C93.4588 102.341 93.1337 100.895 93.014 99.4323C92.7402 97.5847 92.7745 95.7028 92.8001 93.838C92.8258 92.6234 93.0311 91.4258 93.1337 90.2282C93.3048 89.3814 93.4759 88.5346 93.5956 87.6792H93.6555C93.818 86.6783 94.1944 85.7288 94.4168 84.728C95.469 81.6657 96.8718 78.7231 98.651 76.0115L98.6853 76.0286C100.721 72.8808 103.356 70.1691 106.256 67.8168H106.315C107.744 66.6791 109.301 65.7125 110.875 64.7972C116.024 61.983 121.875 60.4775 127.743 60.4604C135.006 60.4775 142.276 62.7528 148.136 67.064C147.845 66.7133 147.537 66.3712 147.178 66.0974C144.774 64.1642 142.217 62.4107 139.445 61.042C133.107 57.8685 125.878 56.5084 118.821 57.1585C111.841 57.7573 105.058 60.3406 99.438 64.515C98.3859 65.3019 97.3594 66.1231 96.4099 67.0298C95.4347 65.3019 94.4425 63.5826 93.4502 61.8718C92.6376 60.4433 91.7993 59.0233 90.9952 57.5862C90.8413 57.3467 90.7215 56.9703 90.3622 57.0473C86.4017 57.0388 82.4412 57.0473 78.4807 57.0473C77.5227 58.6384 76.5989 60.2551 75.6921 61.8889H75.6494C74.6229 63.7451 73.528 65.5671 72.4758 67.4148C71.6119 68.9203 70.7137 70.4001 69.884 71.9227H69.8498C69.3536 72.8209 68.8318 73.7105 68.3186 74.6001C67.6685 75.7378 66.9927 76.8669 66.3597 78.0217C65.7439 79.0225 65.1536 80.0404 64.6062 81.084H64.5377C64.1357 81.9052 63.6225 82.6665 63.2119 83.4877H63.1691C62.7072 84.3431 62.1854 85.1814 61.732 86.0453H61.6893C61.1589 87.0376 60.5687 87.9957 60.0127 88.9794C59.3626 90.0999 58.7039 91.2205 58.0624 92.3496C57.686 92.9997 57.3011 93.6498 56.9332 94.3085C56.2404 95.4975 55.5561 96.6951 54.8717 97.8841C54.196 99.056 53.4945 100.219 52.8615 101.417H52.8102C52.0061 102.88 51.1507 104.308 50.3296 105.762C49.2945 107.524 48.2937 109.304 47.2587 111.074C46.4888 112.409 45.6847 113.726 44.9662 115.086C43.7344 117.088 42.5882 119.201 41.3735 121.245C38.9185 125.513 36.4293 129.765 34 134.05C38.0888 134.008 42.1776 134.085 46.2664 134.008C48.6786 129.773 51.1422 125.565 53.563 121.339C54.752 119.312 55.9153 117.267 57.0958 115.24C57.8656 113.897 58.644 112.554 59.431 111.211C60.4489 109.432 61.484 107.678 62.4933 105.899C63.3316 104.445 64.1699 103.008 64.9997 101.554C65.684 100.365 66.3769 99.1843 67.0612 97.9953C67.7369 96.8063 68.4384 95.6258 69.1056 94.4368C69.5162 93.7439 69.9182 93.0511 70.3117 92.3582C70.9276 91.2718 71.5691 90.2026 72.185 89.1248C72.741 88.1582 73.3056 87.2001 73.8616 86.225C74.2722 85.4466 74.8025 84.728 75.1618 83.924L75.0934 83.7785L75.2816 83.7358C75.8033 82.9146 76.2567 82.0592 76.7443 81.2123C77.3431 80.203 77.9333 79.185 78.5064 78.1671C79.2249 77.0294 80.0461 75.9516 80.8759 74.8995C81.6628 73.9329 82.4926 73.0005 83.3565 72.1109C84.1435 71.3496 84.9476 70.5797 85.8286 69.9125C85.8885 70.0237 86.0168 70.2547 86.0767 70.3744C86.761 71.5634 87.4539 72.7439 88.1211 73.9414H88.1553C88.429 74.429 88.6942 74.9252 88.9508 75.4298H89.0364C89.0877 75.5239 89.1903 75.7292 89.2417 75.8319C87.7618 78.2013 86.6241 80.7761 85.7431 83.4193C85.2897 84.7622 84.939 86.1309 84.6396 87.5166C84.4514 88.3549 84.3573 89.2018 84.1863 90.0401C84.0237 91.3232 83.9296 92.6062 83.8441 93.8893C83.75 95.814 83.8869 97.7386 84.0323 99.6633H84.0665C84.1948 101.04 84.4514 102.409 84.7252 103.769C84.939 104.539 85.0417 105.352 85.3496 106.096L85.5207 106.147L85.4522 106.301C85.9655 108.559 86.9577 110.689 87.9415 112.785H87.9842C88.8909 114.667 90.0372 116.421 91.2347 118.14H91.2861C92.8771 120.398 94.7932 122.408 96.8547 124.247C103.322 129.97 111.764 133.434 120.395 133.794C129.197 134.273 138.128 131.57 145.185 126.292C146.186 125.531 147.263 124.821 148.093 123.854C141.609 128.542 133.474 130.86 125.493 130.287H125.468Z" fill="#6E3A60"/>
</g>
<defs>
<clipPath id="clip0_4880_37957">
<rect width="192" height="192" fill="white"/>
</clipPath>
</defs>
</svg>
