<svg width="192" height="192" viewBox="0 0 192 192" fill="none" xmlns="http://www.w3.org/2000/svg">
<g clip-path="url(#clip0_4880_38150)">
<path d="M96 192C149.019 192 192 149.019 192 96C192 42.9807 149.019 0 96 0C42.9807 0 0 42.9807 0 96C0 149.019 42.9807 192 96 192Z" fill="white"/>
<path d="M61.5699 98.2461C62.5736 99.2589 63.4778 100.181 64.3821 101.094C65.3587 102.08 65.5667 103.292 64.997 104.567C64.6805 105.263 64.0747 105.498 63.3874 105.616C62.0401 105.842 61.0183 105.236 60.2045 104.241C58.6491 102.351 57.1209 100.443 55.5837 98.5354C55.3486 98.2461 55.1135 97.9477 54.8784 97.6583C54.2364 96.8716 54.1007 95.9674 54.2725 95.0089C54.4444 94.0775 55.1497 93.4716 56.1986 93.3993C57.0215 93.336 57.8534 93.345 58.6853 93.336C59.0018 93.336 59.3092 93.2998 59.6076 93.1823C60.0417 93.0195 60.313 92.7301 60.3401 92.2509C60.3582 91.7716 60.1683 91.4009 59.7162 91.1929C59.3092 91.003 58.8752 90.9578 58.4321 90.9488C56.8225 90.9488 55.2039 90.9488 53.5944 90.9488C52.9795 90.9488 52.9795 90.9488 52.9795 91.5727C52.9795 95.2168 52.9795 98.861 52.9795 102.505C52.9795 102.93 52.9614 103.346 52.9252 103.771C52.8438 104.702 52.3194 105.326 51.4061 105.562C50.8545 105.706 50.2848 105.715 49.7332 105.589C48.5758 105.326 48.0422 104.603 48.0422 103.292C48.0422 98.5354 48.0422 93.7881 48.0332 89.0317C48.0332 88.7786 48.0332 88.5344 48.0332 88.2812C48.0875 86.9339 48.8922 86.0568 50.2305 86.0387C53.3321 86.0025 56.4337 85.9663 59.5353 86.0568C62.5103 86.1381 65.2954 89.1222 65.2502 92.0339C65.2321 93.336 65.1055 94.62 64.6082 95.8408C64.0656 97.17 63.2156 98.1195 61.5518 98.2642L61.5699 98.2461Z" fill="#378BF9"/>
<path d="M99.216 90.9845C98.6735 90.9845 98.2394 90.9845 97.8054 90.9845C95.9878 90.9845 94.1703 90.9483 92.3527 90.9845C90.291 91.0297 89.7214 89.9536 89.9112 88.2175C90.0831 86.617 90.7341 86.0473 92.3256 86.0473C96.458 86.0473 100.59 86.0834 104.732 86.0382C106.287 86.0201 106.993 86.9334 107.083 88.335C107.155 89.4653 106.721 90.3153 105.98 91.1473C104.045 93.3446 102.182 95.6143 100.292 97.8478C99.5868 98.6797 98.8814 99.5116 98.1852 100.344C98.0857 100.461 97.932 100.579 98.0134 100.741C98.0857 100.877 98.2665 100.805 98.4022 100.805C100.627 100.805 102.851 100.805 105.076 100.805C105.944 100.805 106.685 101.112 106.947 101.998C107.255 103.038 107.182 104.078 106.504 104.982C106.134 105.48 105.573 105.661 104.976 105.661C100.636 105.67 96.3043 105.679 91.9639 105.679C91.0506 105.679 90.4086 105.226 90.1283 104.358C89.7123 103.065 89.8118 101.908 90.8517 100.832C92.1267 99.5116 93.257 98.0467 94.4506 96.6451C95.9426 94.8909 97.4346 93.1276 98.9267 91.3643C99.008 91.2739 99.0804 91.1653 99.225 90.9755L99.216 90.9845Z" fill="#378BF9"/>
<path d="M87.2073 102.388C86.2307 100.299 85.236 98.2102 84.2142 96.1395C83.545 94.7831 82.8669 93.4358 82.1887 92.0884C81.3839 90.506 80.5972 88.9235 79.7834 87.3501C79.3403 86.5001 78.5897 86.0661 77.6584 86.0571C76.6908 86.039 75.9041 86.464 75.4429 87.3592C75.0541 88.1097 74.6743 88.8512 74.2945 89.6017C73.0286 92.1427 71.7536 94.6836 70.4967 97.2336C69.6467 98.9517 68.7967 100.679 68.0642 102.451C67.8743 102.894 67.7116 103.337 67.8563 103.844C68.1818 104.992 69.0679 105.706 70.2887 105.716C72.7302 105.716 75.1717 105.716 77.6131 105.716C80.0546 105.716 82.5323 105.679 84.9828 105.716C86.4839 105.743 88.003 104.115 87.1982 102.388H87.2073ZM80.5972 100.778H77.5951C76.6366 100.778 75.66 100.778 74.6924 100.778C74.3307 100.778 74.2493 100.706 74.4211 100.353C75.3977 98.3911 76.3653 96.4289 77.3147 94.4576C77.378 94.3219 77.4323 94.1773 77.586 94.1773C77.7307 94.1773 77.785 94.3129 77.8573 94.4395C78.9243 96.4108 79.8376 98.4544 80.8413 100.453C80.977 100.733 80.8413 100.76 80.5972 100.76V100.778Z" fill="#378BF9"/>
<path d="M45.2686 102.144C44.5723 100.543 43.7856 98.9879 43.0261 97.4145C41.3894 94.0688 39.7074 90.7411 38.0165 87.4135C37.5463 86.4821 36.7596 86.03 35.7468 86.039C34.7702 86.0571 34.0287 86.5273 33.5766 87.4225C32.9165 88.7427 32.2383 90.0539 31.5782 91.3741C29.8511 94.8284 28.0878 98.2645 26.5144 101.791C26.2702 102.325 25.9447 102.849 26.008 103.473C26.1436 104.766 27.1202 105.679 28.4224 105.679C30.9 105.697 33.3777 105.679 35.8463 105.679C38.342 105.679 40.8287 105.679 43.3245 105.679C44.2649 105.679 45.1239 105.01 45.4856 104.151C45.784 103.419 45.567 102.777 45.2776 102.135L45.2686 102.144ZM38.6585 100.769C36.7144 100.769 34.7793 100.769 32.8442 100.769C32.5819 100.769 32.4101 100.787 32.5819 100.426C33.6399 98.2916 34.6798 96.1486 35.7287 94.0055C35.7468 93.9784 35.7739 93.9603 35.8192 93.9151C36.3255 94.9549 36.8319 95.9858 37.3473 97.0166C37.8899 98.1198 38.4234 99.223 38.9569 100.317C39.1649 100.733 39.1378 100.787 38.6585 100.778V100.769Z" fill="#378BF9"/>
<path d="M129.156 95.8858C129.156 93.4985 129.156 91.1023 129.156 88.715C129.156 88.2719 129.183 87.8379 129.337 87.4219C129.672 86.5087 130.44 86.0384 131.661 86.0384C133.668 86.0294 135.667 86.0384 137.674 86.0384C139.727 86.0384 141.78 86.0565 143.823 86.0746C144.04 86.0746 144.266 86.0746 144.483 86.1017C145.442 86.1922 146.03 86.6805 146.283 87.6118C146.437 88.1815 146.437 88.7693 146.292 89.3299C146.012 90.406 145.333 90.9395 144.194 90.9757C142.955 91.0209 141.716 91.0028 140.487 91.0028C138.515 91.0028 136.544 91.0028 134.564 91.0028C134.22 91.0028 134.112 91.0842 134.112 91.4459C134.13 94.3847 134.13 97.3235 134.112 100.262C134.112 100.678 134.211 100.814 134.654 100.814C137.674 100.796 140.695 100.805 143.724 100.814C144.085 100.814 144.447 100.796 144.8 100.895C145.632 101.13 146.111 101.673 146.292 102.514C146.545 103.68 146.229 104.802 145.433 105.335C145.044 105.597 144.61 105.706 144.149 105.706C139.872 105.706 135.595 105.751 131.326 105.679C129.898 105.661 129.201 104.919 129.183 103.4C129.156 100.895 129.183 98.3996 129.183 95.8948L129.156 95.8858Z" fill="#378BF9"/>
<path d="M118.269 86.0752C120.285 86.0752 122.311 86.0752 124.327 86.0752C124.951 86.0752 125.566 86.1385 126.027 86.5907C126.896 87.4497 126.868 88.5167 126.552 89.5657C126.272 90.5151 125.503 90.9401 124.544 90.9763C123.405 91.0125 122.257 91.0125 121.117 90.9944C120.71 90.9944 120.566 91.0758 120.566 91.5188C120.584 95.2986 120.575 99.0875 120.584 102.867C120.584 102.958 120.584 103.057 120.584 103.148C120.584 104.106 120.385 104.992 119.417 105.417C118.387 105.869 117.347 105.851 116.388 105.182C115.936 104.875 115.71 104.395 115.701 103.862C115.674 102.053 115.656 100.236 115.656 98.4273C115.656 96.0853 115.656 93.7343 115.674 91.3923C115.674 91.0486 115.538 90.9763 115.222 90.9853C114.109 91.0034 112.997 91.0125 111.885 90.9853C111.107 90.9673 110.366 90.8135 109.887 90.0811C109.055 88.8061 109.516 86.7986 110.773 86.2651C111.162 86.1024 111.577 86.03 112.012 86.03C114.091 86.03 116.18 86.03 118.26 86.03V86.0662L118.269 86.0752Z" fill="#378BF9"/>
<path d="M157.34 105.697C155.288 105.697 153.235 105.697 151.182 105.697C149.6 105.697 148.795 104.875 148.795 103.292C148.795 98.3368 148.786 93.3815 148.795 88.4262C148.795 87.332 149.265 86.5363 150.151 86.2469C151.209 85.9033 152.258 85.9124 153.135 86.7262C153.669 87.2235 153.75 87.9017 153.75 88.5799C153.741 92.4049 153.723 96.2389 153.714 100.064C153.714 100.787 153.714 100.787 154.447 100.787C157.422 100.787 160.397 100.787 163.372 100.787C163.733 100.787 164.095 100.769 164.439 100.887C165.623 101.285 166.175 102.316 165.949 103.735C165.75 104.992 165.008 105.67 163.715 105.679C161.59 105.697 159.456 105.679 157.322 105.679L157.34 105.697Z" fill="#378BF9"/>
<path d="M140.143 98.3813C139.374 98.3813 138.605 98.3632 137.846 98.3813C135.459 98.4537 134.979 96.6813 135.377 95.0808C135.648 93.9866 136.083 93.5888 137.285 93.5074C139.22 93.3627 141.164 93.4079 143.1 93.4893C144.212 93.5345 144.854 94.1584 145.08 95.2616C145.197 95.8404 145.17 96.4191 144.989 96.9707C144.7 97.8116 143.931 98.3451 142.964 98.3632C142.023 98.3813 141.083 98.3632 140.152 98.3632L140.143 98.3813Z" fill="#378BF9"/>
</g>
<defs>
<clipPath id="clip0_4880_38150">
<rect width="192" height="192" fill="white"/>
</clipPath>
</defs>
</svg>
