<svg width="192" height="192" viewBox="0 0 192 192" fill="none" xmlns="http://www.w3.org/2000/svg">
<g clip-path="url(#clip0_4881_40695)">
<path d="M96 192C149.019 192 192 149.019 192 96C192 42.9807 149.019 0 96 0C42.9807 0 0 42.9807 0 96C0 149.019 42.9807 192 96 192Z" fill="#212C95"/>
<path d="M164.837 67.0193C142.582 67.0193 120.337 67.0193 98.083 67.0193C97.7644 67.0193 97.4458 67.029 97.1175 67.0386C96.8472 67.0386 96.5865 67.0193 96.3162 67.0193C73.1735 67.0193 50.0405 67.0193 26.9076 67C26.1834 67 26 67.1738 26 67.9076C26.0193 86.5897 26.0193 105.262 26 123.944C26 124.755 26.1931 124.929 26.9944 124.929C50.0792 124.91 73.1639 124.91 96.2486 124.91C96.5382 124.91 96.8375 124.9 97.1272 124.89C97.4168 124.89 97.7161 124.91 98.0058 124.91C120.308 124.91 142.611 124.91 164.923 124.91C165.638 124.91 165.995 124.546 165.995 123.819C165.995 105.272 165.995 86.7345 165.995 68.1972C165.995 66.9034 166.14 67.029 164.846 67.029L164.837 67.0193ZM162.297 122.11C162.046 122.245 161.776 122.187 161.506 122.187C140.352 122.187 119.208 122.187 98.0541 122.187C97.7644 122.187 97.4651 122.168 97.1755 122.148C96.8665 122.013 96.5382 122.071 96.2293 122.071C74.4576 122.071 52.6956 122.071 30.924 122.091C30.0743 122.091 29.8909 121.868 29.8909 121.048C29.9199 104.297 29.9199 87.5455 29.8909 70.7944C29.8909 70.0316 30.055 69.8289 30.8467 69.8289C52.6184 69.8482 74.3804 69.8482 96.1521 69.8385C96.4996 69.8385 96.8472 69.9061 97.1851 69.7709C97.5327 69.7613 97.8803 69.7323 98.2278 69.7323C119.304 69.7323 140.371 69.7323 161.438 69.7323C161.728 69.7323 162.027 69.6647 162.307 69.8096C162.442 70.0606 162.384 70.3309 162.384 70.5916C162.384 87.4972 162.384 104.403 162.384 121.318C162.384 121.579 162.442 121.849 162.307 122.1L162.297 122.11Z" fill="white"/>
<path d="M66.001 90.4613C64.8617 90.3551 63.8769 90.6447 63.1335 91.5523C62.5542 92.2667 61.9846 92.9909 61.4053 93.715C61.357 93.6957 61.3087 93.6764 61.2508 93.657C61.4632 92.6626 61.6853 91.6585 61.917 90.5868H58.6054C57.4468 90.5868 56.7452 91.1404 56.5006 92.2474C56.2882 93.2226 56.2882 93.2419 57.2537 93.2419C57.7075 93.2419 57.9488 93.2902 57.804 93.8501C57.3213 95.8197 56.8482 97.7893 56.433 99.7686C56.3365 100.242 55.9986 100.3 55.7186 100.348C54.8593 100.493 54.029 100.02 53.1504 100.126C52.8994 100.155 52.938 99.8651 52.9283 99.6913C52.7642 95.9549 52.6097 92.2185 52.4359 88.4821C52.4263 88.1634 52.4746 87.9221 52.8511 87.9993C53.8166 88.2021 54.0966 87.6614 54.1835 86.8504C54.2221 86.5028 54.2897 86.1552 54.4055 85.8366C54.6083 85.2477 54.4055 85.1415 53.8359 85.1415C51.0263 85.1704 48.2168 85.1511 45.4072 85.1511C44.6155 85.1511 44.1328 85.547 43.959 86.3387C43.8528 86.8311 43.5342 87.4297 43.708 87.7966C43.9493 88.3083 44.6831 87.8255 45.1755 88.0572C45.1562 88.1248 45.1562 88.2021 45.1272 88.2696C43.0225 92.1026 40.9177 95.9452 38.813 99.7782C38.6874 100 38.5426 100.135 38.2626 100.164C37.7992 100.203 37.2103 99.9134 36.911 100.329C36.6503 100.686 36.6503 101.236 36.5344 101.7C36.4765 101.931 36.4572 102.182 36.3606 102.395C36.1482 102.916 36.4089 102.964 36.8337 102.955C38.3592 102.935 39.8846 102.955 41.4101 102.955C42.5429 102.955 43.2413 102.395 43.5052 101.275C43.7466 100.232 43.7466 100.213 42.6845 100.164C42.2308 100.145 42.1921 100.02 42.3852 99.6527C42.7328 98.9962 43.0804 98.33 43.3797 97.6445C43.5535 97.2583 43.8045 97.1714 44.2004 97.1811C45.0307 97.2004 45.861 97.1811 46.6817 97.1811C48.3165 97.1811 49.0761 98.0082 48.9602 99.6624C48.9602 99.6624 48.9602 99.7203 48.9602 99.7396C48.9892 100.058 48.825 100.126 48.5354 100.155C47.2996 100.261 47.3092 100.271 47.0003 101.535C46.9423 101.767 46.923 102.018 46.8265 102.231C46.5368 102.887 46.8458 102.955 47.4251 102.955C51.6539 102.935 55.8731 102.945 60.1019 102.945C61.0159 102.945 61.5726 102.507 61.7722 101.632C62.0715 100.309 62.0715 100.3 60.7487 100.271C60.3143 100.271 60.1019 100.213 60.2564 99.6913C60.4881 98.8996 60.6232 98.079 60.826 97.2776C61.5115 94.6805 62.7183 93.7632 65.4024 93.8212C65.75 93.8212 65.8851 93.7439 65.9527 93.4253C66.1168 92.6433 66.252 91.8516 66.4837 91.0889C66.6479 90.5482 66.3679 90.4999 65.9913 90.4613H66.001ZM48.3906 94.6322C47.4347 94.6032 46.4692 94.6225 45.5038 94.6322C45.1465 94.6322 45.0017 94.5743 45.2045 94.1784C46.3051 92.093 47.3865 89.9882 48.4775 87.8931C48.5933 87.9124 48.7092 87.9221 48.8347 87.9414C48.8347 89.9882 48.8347 92.035 48.8347 94.0915C48.8347 94.4294 48.825 94.6418 48.3809 94.6322H48.3906ZM61.2122 93.9081C61.2122 93.9081 61.2411 93.9274 61.2605 93.937C61.2605 93.937 61.2315 93.9177 61.2122 93.9081ZM61.2894 93.9081C61.2894 93.9081 61.3087 93.8888 61.3087 93.8791C61.3087 93.8791 61.3087 93.8984 61.2894 93.9081ZM61.2894 93.8598C61.2894 93.8598 61.2894 93.8598 61.2894 93.8695C61.2894 93.8695 61.2894 93.8695 61.2894 93.8598Z" fill="white"/>
<path d="M114.699 85.2955C112.112 85.0058 109.515 85.2086 106.927 85.1603C105.488 85.1313 105.488 85.1603 105.17 86.5603C104.957 87.4936 105.337 87.9699 106.309 87.9892C106.367 87.9892 106.415 87.9892 106.473 87.9892C106.888 87.9409 106.966 88.1243 106.879 88.5009C106.019 92.218 105.17 95.9351 104.32 99.6426C104.253 99.9612 104.117 100.135 103.731 100.154C103.162 100.183 102.428 99.855 102.061 100.328C101.733 100.753 101.752 101.438 101.607 102.008C101.578 102.114 101.559 102.22 101.53 102.317C101.356 102.79 101.472 102.964 102.013 102.954C103.78 102.925 105.537 102.945 107.304 102.945C108.906 102.945 110.509 102.945 112.112 102.935C113.357 102.925 114.554 102.674 115.694 102.191C119.449 100.637 121.583 96.9392 121.361 92.4014C121.168 88.4236 118.648 85.73 114.68 85.2858L114.699 85.2955ZM116.688 93.3573C116.543 94.8827 116.07 96.3213 115.317 97.673C114.245 99.6136 112.585 100.367 110.683 100.145C109.383 100.145 108.861 99.5943 109.119 98.4936C109.872 95.1917 110.644 91.8897 111.368 88.5878C111.465 88.134 111.629 87.9892 112.092 87.9699C115.433 87.8926 117.036 89.7464 116.678 93.3476L116.688 93.3573Z" fill="white"/>
<path d="M147.031 92.2574C147.07 91.9194 147.118 91.5622 147.253 91.2436C147.514 90.5967 147.205 90.5484 146.674 90.5581C145.795 90.5871 144.907 90.5581 144.028 90.5581C142.773 90.5581 141.994 91.1824 141.692 92.4311C140.35 90.8477 139.655 90.4519 138.322 90.4229C137.038 90.394 135.899 90.7898 134.904 91.5719C132.539 93.4449 131.496 95.9262 131.853 98.9095C132.307 102.752 136.092 104.278 139.162 101.922C139.259 101.845 139.336 101.719 139.49 101.767C139.288 104.413 137.82 105.803 135.213 105.832C134.451 105.832 133.736 105.668 133.002 105.513C132.317 105.369 131.554 104.625 131.033 104.992C130.511 105.359 130.425 106.305 130.077 106.962C129.807 107.473 130.009 107.647 130.454 107.831C132.162 108.535 133.949 108.796 135.783 108.748C139.79 108.651 142.213 106.749 143.188 102.858C143.932 99.8847 144.588 96.8917 145.293 93.9083C145.37 93.5897 145.37 93.1456 145.892 93.2518C146.732 93.4256 146.954 92.9525 147.041 92.267L147.031 92.2574ZM140.823 95.8876C140.823 97.0075 140.495 98.0406 139.848 98.9578C139.404 99.595 138.815 100.02 138.004 100.087C136.652 100.203 135.754 99.5178 135.677 98.1758C135.58 96.6213 136.111 95.2407 137.202 94.1111C137.878 93.4159 138.95 93.2228 139.703 93.5994C140.649 94.0725 140.852 94.9221 140.813 95.8876H140.823Z" fill="white"/>
<path d="M82.1223 91.9867C82.1803 91.726 82.2285 91.4653 82.3058 91.2046C82.4409 90.7412 82.3637 90.5384 81.8037 90.5578C80.2493 90.5964 78.7045 90.5674 77.1501 90.5674C76.3391 90.5674 75.8435 90.9504 75.6632 91.7163C75.4444 92.6496 75.8081 93.1839 76.7542 93.319C75.7019 95.1438 74.6785 96.93 73.6454 98.7258C73.5875 98.7161 73.5295 98.7064 73.4716 98.6871C73.2592 97.0168 73.0661 95.3562 72.8344 93.6859C72.7668 93.2128 73.0564 93.1839 73.3557 93.2418C74.1378 93.3866 74.3985 92.9811 74.4757 92.2956C74.5143 91.9577 74.5819 91.6005 74.7074 91.2819C74.9584 90.6253 74.6881 90.5288 74.0992 90.5481C72.873 90.5867 71.6372 90.5578 70.411 90.5578C68.3352 90.5578 68.3545 90.5578 67.8525 92.6046C67.7173 93.1549 67.8525 93.2901 68.3545 93.2225C68.9049 93.1453 69.1366 93.3287 69.2331 93.9273C69.5904 96.1093 69.9862 98.2913 70.4593 100.454C70.8358 102.173 71.1737 103.843 69.8317 105.33C69.8124 105.349 69.8028 105.378 69.7931 105.397C69.6483 105.774 69.3586 105.861 68.9724 105.87C67.4373 105.89 67.4373 105.899 67.0994 107.425C67.0511 107.628 67.0125 107.84 66.9546 108.043C66.8484 108.419 66.9546 108.564 67.3601 108.554C68.3545 108.525 69.3393 108.496 70.3241 108.554C71.0289 108.603 71.4055 108.361 71.7627 107.734C74.4081 103.099 77.1018 98.4844 79.7762 93.8694C79.9693 93.5314 80.1141 93.1935 80.6451 93.1935C81.852 93.1935 81.8423 93.1549 82.132 91.9577L82.1223 91.9867Z" fill="white"/>
<path d="M93.0046 100.27C92.5316 100.27 92.4157 100.154 92.5316 99.6716C92.9177 98.1462 93.275 96.6207 93.6032 95.0856C94.0763 92.8553 93.1398 91.2526 90.9385 90.6057C88.8144 89.9782 86.7097 90.1809 84.6532 90.9147C83.4624 91.3395 83.3015 91.9832 84.1705 92.8457C84.2863 92.9615 84.4118 93.0581 84.5084 93.1836C84.7401 93.4829 84.9815 93.5312 85.329 93.3477C85.9759 93.0195 86.6711 92.8167 87.3855 92.7298C88.0903 92.6526 88.7758 92.7491 89.3744 93.1739C90.1275 93.705 89.9537 94.4484 89.722 95.1339C89.4903 95.8097 89.0075 95.1725 88.6503 95.2401C88.4476 95.2787 88.2352 95.1628 88.0227 95.1532C85.9083 95.0277 83.9001 95.2787 82.2878 96.8138C81.1485 97.9048 80.8009 99.6523 81.3899 101.023C81.9402 102.317 83.2726 103.099 84.8946 103.099C86.0532 103.099 87.0573 102.597 88.1193 102.066C88.071 102.385 88.0421 102.636 87.9938 102.945H92.435C93.2782 102.945 93.8156 102.536 94.0474 101.718C94.4529 100.319 94.4529 100.299 92.995 100.27H93.0046ZM88.8241 99.1599C88.5248 100.328 86.169 101.13 85.2132 100.386C84.5084 99.8358 84.518 98.7544 85.2518 98.0786C85.8794 97.4993 86.6614 97.3834 87.3373 97.3641C89.2489 97.4124 89.2682 97.451 88.8241 99.1599Z" fill="white"/>
<path d="M129.307 90.5582C128.235 90.5871 127.164 90.5582 126.102 90.5582C124.956 90.5582 124.251 91.1149 123.987 92.2284C123.755 93.2036 123.755 93.2422 124.731 93.2132C125.358 93.1939 125.416 93.387 125.271 93.9567C124.798 95.7911 124.373 97.6352 123.987 99.4889C123.871 100.068 123.678 100.358 123.06 100.261C122.616 100.184 122.375 100.348 122.307 100.831C122.201 101.516 122.018 102.183 121.844 102.945C123.485 102.945 125.088 102.955 126.69 102.945C127.357 102.945 128.197 103.216 128.631 102.829C129.027 102.482 128.969 101.642 129.152 101.034C129.336 100.445 129.201 100.165 128.544 100.271C127.704 100.406 127.666 100.049 127.839 99.3344C128.506 96.6117 129.095 93.8794 129.741 91.1568C129.857 90.6837 129.799 90.5485 129.297 90.5678L129.307 90.5582Z" fill="white"/>
<path d="M153.848 90.5676C152.806 90.5869 151.763 90.5676 150.72 90.5676C149.529 90.5676 148.802 91.1308 148.538 92.2572C148.316 93.213 148.316 93.242 149.311 93.2227C149.861 93.2227 149.996 93.3289 149.851 93.9081C149.368 95.7908 148.924 97.6928 148.528 99.5948C148.422 100.126 148.21 100.319 147.689 100.271C147.351 100.232 146.993 100.193 146.897 100.705C146.771 101.439 146.588 102.153 146.414 102.955H151.435C153.25 102.955 153.221 102.955 153.684 101.169C153.858 100.493 153.819 100.136 153.018 100.271C152.323 100.387 152.236 100.078 152.381 99.4693C153.047 96.6984 153.655 93.9081 154.331 91.1372C154.457 90.6158 154.312 90.5579 153.858 90.5676H153.848Z" fill="white"/>
<path d="M128.697 89.0032C129.856 89.0032 130.802 88.1053 130.821 86.966C130.84 85.7881 129.885 84.8226 128.707 84.8323C127.548 84.8323 126.641 85.7495 126.641 86.9177C126.641 88.1053 127.529 88.9935 128.697 89.0032Z" fill="white"/>
<path d="M153.25 84.8325C152.091 84.8422 151.194 85.769 151.203 86.9373C151.203 88.1151 152.101 89.0034 153.279 89.0034C154.447 89.0034 155.374 88.0958 155.384 86.9469C155.393 85.769 154.438 84.8132 153.25 84.8325Z" fill="white"/>
</g>
<defs>
<clipPath id="clip0_4881_40695">
<rect width="192" height="192" fill="white"/>
</clipPath>
</defs>
</svg>
