<svg width="192" height="192" viewBox="0 0 192 192" fill="none" xmlns="http://www.w3.org/2000/svg">
<g clip-path="url(#clip0_5163_40973)">
<path d="M96 192C149.019 192 192 149.019 192 96C192 42.9807 149.019 0 96 0C42.9807 0 0 42.9807 0 96C0 149.019 42.9807 192 96 192Z" fill="#FFC328"/>
<g clip-path="url(#clip1_5163_40973)">
<path d="M71.6331 116.377C67.5829 116.511 63.2177 113.48 61.6632 109.498C61.1438 108.168 60.816 106.814 60.8086 105.388C60.792 102.578 60.4476 99.7285 61.398 97.0044C63.063 92.2285 67.1354 89.3773 72.2538 89.3294C74.6685 89.3073 77.085 89.2926 79.4997 89.3441C80.2567 89.3607 80.3396 89.0734 80.2622 88.4453C79.9988 86.3217 78.1017 84.6401 75.7902 84.6088C73.1048 84.5701 70.4175 84.5719 67.7303 84.6143C66.9788 84.6253 66.708 84.4798 66.7301 83.651C66.7946 81.1037 66.7707 78.5528 66.7449 76.0036C66.7394 75.4419 66.8904 75.2651 67.4669 75.2724C70.3162 75.3019 73.1656 75.2688 76.0149 75.2909C83.6641 75.3498 89.6851 81.6729 89.6667 89.3976C89.6446 98.104 89.6648 106.81 89.6538 115.517C89.6538 115.791 89.8066 116.108 89.5359 116.351C89.3204 116.108 89.0312 116.198 88.7734 116.198C83.3086 116.193 77.8439 116.193 72.3791 116.198C72.1231 116.198 71.8284 116.095 71.635 116.379L71.6331 116.377ZM80.2438 98.6455C80.2235 98.2311 79.9122 98.29 79.6489 98.29C77.5639 98.2882 75.4789 98.2863 73.3921 98.29C73.1342 98.29 72.8211 98.2126 72.7622 98.6142C72.6277 98.6271 72.4933 98.6473 72.3588 98.6547C70.7656 98.7449 70.1357 99.4062 70.132 101.01C70.1284 102.366 70.121 103.723 70.1357 105.079C70.1505 106.304 70.8761 107.074 72.101 107.087C74.6519 107.112 77.2029 107.09 79.7557 107.098C80.1038 107.098 80.3082 107.041 80.3046 106.615C80.2732 103.959 80.2622 101.301 80.2438 98.6455ZM80.0375 107.381C80.0485 107.354 80.0596 107.328 80.0706 107.3H72.1673C72.1673 107.328 72.1673 107.354 72.1673 107.381H80.0375Z" fill="#782ADB"/>
<path d="M46.2371 75.9926C46.1302 75.4382 46.4102 75.2761 46.9149 75.2761C51.3371 75.2853 55.7594 75.289 60.1798 75.2798C60.6035 75.2798 60.7379 75.4106 60.7361 75.836C60.7195 78.5749 60.714 81.3137 60.7342 84.0507C60.7379 84.5609 60.5095 84.6143 60.0933 84.6069C58.8721 84.5848 57.651 84.6345 56.4317 84.5811C55.7557 84.5517 55.5126 84.6843 55.5144 85.4486C55.5457 95.4536 55.5236 105.458 55.555 115.463C55.5568 116.268 55.3339 116.436 54.5696 116.43C48.9004 116.388 43.2312 116.39 37.562 116.381C32.6866 116.373 27.767 112.73 26.8792 107.017C26.439 104.178 26.3856 101.266 26.9437 98.441C28.0378 92.9155 32.53 89.3626 38.2103 89.3294C40.6526 89.3147 43.093 89.3294 45.5353 89.3202C45.7987 89.3202 46.1652 89.4731 46.2407 89.0108C46.6736 89.0568 46.8762 88.9132 46.8762 88.4288C46.8762 87.6552 46.8191 86.8853 46.8375 86.1062C46.9056 83.2071 46.8688 80.3044 46.8614 77.4035C46.8614 76.8527 46.7712 76.3186 46.2352 75.9944L46.2371 75.9926ZM46.1542 98.6363C45.8558 98.6436 45.5574 98.6584 45.2609 98.6584C42.9273 98.6602 40.5936 98.6473 38.26 98.6657C36.8713 98.6768 36.0682 99.3362 36.0203 100.6C35.9632 102.143 35.9688 103.692 36.0295 105.236C36.0756 106.401 36.8252 107.083 37.9819 107.089C40.7226 107.101 43.4632 107.081 46.2021 107.076C46.8264 107.002 46.8725 106.562 46.8688 106.064C46.8596 104.663 46.8651 103.263 46.8651 101.861C46.8651 101.351 46.9277 100.834 46.5446 100.399C46.3568 100.185 46.4433 99.9863 46.6073 99.7524C47.0438 99.1299 46.9277 98.8868 46.1505 98.64L46.1542 98.6363Z" fill="#782ADB"/>
<path d="M131.548 116.381C126.119 116.383 120.746 112.362 119.015 107.015C118.51 105.455 118.252 103.867 118.254 102.224C118.261 93.6008 118.254 84.9772 118.254 76.3537C118.254 75.6231 118.633 75.2572 119.39 75.256C121.886 75.256 124.384 75.2744 126.879 75.2431C127.447 75.2357 127.609 75.3812 127.601 75.9614C127.568 78.5363 127.625 81.1149 127.568 83.6898C127.55 84.5094 127.811 84.6641 128.57 84.6475C130.957 84.5978 133.346 84.642 135.733 84.6181C136.249 84.6125 136.44 84.7396 136.435 85.2922C136.409 87.9758 136.409 90.6612 136.435 93.3466C136.44 93.8991 136.256 94.0281 135.737 94.0225C133.294 93.9986 130.852 94.0281 128.412 94.0004C127.806 93.9931 127.566 94.1183 127.577 94.7961C127.622 97.2623 127.583 99.7323 127.599 102.198C127.62 105.265 129.458 107.079 132.536 107.094C133.648 107.1 134.761 107.111 135.873 107.09C136.297 107.083 136.437 107.223 136.435 107.65C136.415 110.498 136.418 113.344 136.413 116.191C135.066 116.191 133.72 116.185 132.374 116.195C132.092 116.197 131.771 116.084 131.548 116.379V116.381Z" fill="#782ADB"/>
<path d="M165.267 116.362C162.419 116.377 159.572 116.388 156.726 116.41C156.374 116.414 156.227 116.283 156.258 115.935C156.271 115.8 156.26 115.664 156.26 115.528C156.26 102.432 156.264 89.3386 156.236 76.2431C156.236 75.4622 156.421 75.2356 157.214 75.2559C159.898 75.324 162.581 75.3111 165.265 75.3295C165.265 89.0071 165.265 102.683 165.265 116.36L165.267 116.362Z" fill="#782ADB"/>
<path d="M104.238 97.6546C104.219 97.7577 104.199 97.859 104.18 97.9622C103.781 98.0321 103.873 98.3489 103.871 98.6031C103.867 104.256 103.867 109.907 103.871 115.559C103.871 115.815 103.786 116.13 104.188 116.193C104.083 116.548 103.783 116.395 103.574 116.397C100.917 116.41 98.257 116.39 95.5993 116.419C95.0228 116.425 94.8772 116.252 94.8809 115.688C94.9067 109.614 94.903 103.541 94.9141 97.4667C94.9141 96.5697 95.1369 95.7096 95.4261 94.8642C96.0174 94.4516 96.1039 93.8604 96.0118 93.2065L96.0008 93.1899C96.2734 93.166 96.3949 93.6412 96.6896 93.4404C97.0267 93.2102 96.7449 92.9081 96.7007 92.6392C96.6804 92.5103 96.6215 92.3869 96.581 92.2616L96.5312 92.3095C96.5312 92.3095 96.4889 92.2561 96.4907 92.2561C97.0175 92.0333 97.1906 91.6225 97.1151 91.081C97.1151 91.081 97.1206 91.0313 97.1225 91.0331C97.1648 91.0423 97.2053 91.0515 97.2477 91.0608C97.2256 91.0276 97.2017 90.9926 97.1796 90.9595C97.2532 90.8563 97.3269 90.7513 97.3987 90.6482C97.8758 90.6703 97.8481 90.3314 97.8555 90.0146L97.8684 89.9925C98.0765 89.9704 98.1723 89.8525 98.1594 89.6462H98.1576C98.5112 89.8083 98.8022 88.9297 99.2166 89.5799C99.2443 89.6241 99.5058 89.3718 99.4266 89.171C99.3511 88.9813 99.2166 88.8174 99.108 88.6406L99.1522 88.659L99.108 88.6424C99.9018 88.7934 100.335 88.414 100.412 87.4949L100.447 87.5189L100.408 87.5005C102.191 87.6349 102.626 87.366 102.897 85.9625C102.98 85.9386 103.064 85.9146 103.147 85.8907C103.606 85.8778 104.147 86.0786 104.361 85.4265L104.394 85.3879L104.442 85.4008C104.891 85.6697 105.326 85.2203 105.715 85.3252C106.661 85.5813 107.38 85.2018 108.091 84.6898C109.616 84.5682 111.141 84.6161 112.668 84.6622C112.66 84.8961 112.701 85.0932 112.995 85.0987C113.008 87.8909 113.014 90.6832 113.042 93.4754C113.045 93.9211 112.857 94.0224 112.456 94.0132C111.424 93.9911 110.391 94.0501 109.363 93.9911C107.102 93.8604 105.507 94.8273 104.488 96.8165C103.713 96.8902 103.79 97.2144 104.243 97.649L104.238 97.6546Z" fill="#782ADB"/>
<path d="M150.93 90.149C150.943 90.4179 150.967 90.6887 150.967 90.9576C150.969 99.1133 150.96 107.269 150.986 115.423C150.987 116.174 150.848 116.449 150.026 116.429C147.291 116.359 144.554 116.375 141.819 116.36C141.776 116.307 141.734 116.252 141.692 116.198C141.682 110.301 141.668 104.403 141.664 98.5055C141.664 95.774 141.684 93.0426 141.694 90.3111C142.255 89.7217 142.913 90.1583 143.524 90.1546C145.992 90.1417 148.462 90.149 150.93 90.149Z" fill="#782ADB"/>
<path d="M140.451 81.0061C140.602 77.5895 143.307 75.1214 146.731 75.2817C149.861 75.4272 152.375 78.271 152.216 81.4813C152.056 84.699 149.299 87.18 146.011 87.0584C142.902 86.9442 140.312 84.1262 140.451 81.0061Z" fill="#782ADB"/>
<path d="M46.2383 75.9927C46.7743 76.3169 46.8627 76.8528 46.8645 77.4017C46.8737 80.3026 46.9106 83.2054 46.8406 86.1044C46.8221 86.8817 46.8811 87.6516 46.8792 88.427C46.8792 88.9114 46.6766 89.0569 46.2438 89.009C46.242 84.6696 46.2401 80.3302 46.2383 75.9908V75.9927Z" fill="#782ADB"/>
<path d="M150.93 90.1491C148.462 90.1491 145.992 90.1417 143.524 90.1546C142.913 90.1583 142.257 89.7218 141.693 90.3112C141.513 89.5395 141.791 89.3 142.598 89.3166C145.13 89.37 147.665 89.3608 150.199 89.3203C150.881 89.3092 151.081 89.5247 150.932 90.1491H150.93Z" fill="#782ADB"/>
<path d="M165.268 116.362C165.268 102.685 165.268 89.009 165.268 75.3314C165.575 75.5193 165.42 75.8195 165.42 76.0626C165.43 89.2521 165.43 102.442 165.42 115.629C165.42 115.872 165.571 116.173 165.268 116.362Z" fill="#782ADB"/>
<path d="M104.189 116.193C103.787 116.13 103.872 115.815 103.872 115.559C103.868 109.907 103.868 104.256 103.872 98.6031C103.872 98.3489 103.782 98.0321 104.181 97.9622C104.183 104.038 104.187 110.115 104.189 116.193Z" fill="#782ADB"/>
<path d="M71.6328 116.377C71.8262 116.093 72.1227 116.197 72.3769 116.197C77.8417 116.191 83.3064 116.191 88.7712 116.197C89.0309 116.197 89.3201 116.106 89.5337 116.349C88.9001 116.458 88.2628 116.421 87.6274 116.37C86.9993 116.37 86.3731 116.37 85.745 116.37C85.6124 116.37 85.4817 116.37 85.349 116.37C84.6123 116.37 83.8756 116.37 83.1388 116.37C83.0062 116.37 82.8736 116.37 82.741 116.37C81.1349 116.37 79.5307 116.37 77.9264 116.37C77.7938 116.37 77.663 116.37 77.5304 116.37C77.0644 116.37 76.6003 116.37 76.1361 116.37C75.5688 116.37 75.0015 116.37 74.4361 116.37C74.298 116.37 74.158 116.37 74.0198 116.37C73.2242 116.371 72.4285 116.373 71.6328 116.377Z" fill="#782ADB"/>
<path d="M102.893 85.9681C102.622 87.3716 102.187 87.6405 100.404 87.5061C101.117 86.8062 102.001 86.3807 102.893 85.9681Z" fill="#782ADB"/>
<path d="M108.086 84.6953C107.375 85.2055 106.657 85.5849 105.71 85.3307C105.322 85.2258 104.887 85.6752 104.438 85.4063C105.598 84.8905 106.825 84.7064 108.084 84.6972L108.086 84.6953Z" fill="#782ADB"/>
<path d="M100.408 87.4987C100.33 88.4177 99.8974 88.7972 99.1035 88.6461C99.4314 88.1415 99.8918 87.7897 100.408 87.4987Z" fill="#782ADB"/>
<path d="M131.549 116.381C131.772 116.088 132.092 116.2 132.374 116.197C133.72 116.185 135.067 116.191 136.413 116.193C136.371 116.48 136.137 116.399 135.973 116.399C134.498 116.399 133.024 116.388 131.549 116.381Z" fill="#782ADB"/>
<path d="M99.1047 88.6425C99.2134 88.8174 99.3478 88.9832 99.4233 89.1729C99.5044 89.3755 99.2428 89.626 99.2134 89.5818C98.7989 88.9316 98.5079 89.8102 98.1543 89.6481C98.3643 89.2116 98.7142 88.9077 99.1028 88.6406L99.1047 88.6425Z" fill="#782ADB"/>
<path d="M96.5802 92.2635C96.6207 92.3888 96.6796 92.5122 96.6999 92.6411C96.7441 92.91 97.0259 93.2139 96.6888 93.4423C96.3942 93.6431 96.2726 93.1679 96 93.1918C96.1289 92.8419 96.1197 92.4054 96.5802 92.2635Z" fill="#782ADB"/>
<path d="M96.0115 93.2065C96.1036 93.8604 96.017 94.4516 95.4258 94.8642C95.5345 94.2822 95.6615 93.7057 96.0115 93.2065Z" fill="#782ADB"/>
<path d="M97.1146 91.0829C97.1901 91.6244 97.017 92.0351 96.4902 92.258C96.5123 91.7662 96.8383 91.4365 97.1146 91.0829Z" fill="#782ADB"/>
<path d="M104.358 85.4303C104.145 86.0823 103.603 85.8815 103.145 85.8944C103.509 85.6347 103.911 85.4708 104.358 85.4303Z" fill="#782ADB"/>
<path d="M104.237 97.6547C103.784 97.22 103.706 96.8958 104.482 96.8221C104.401 97.1003 104.318 97.3765 104.237 97.6547Z" fill="#782ADB"/>
<path d="M97.8552 90.0165C97.8497 90.3333 97.8755 90.6722 97.3984 90.6501C97.4776 90.3867 97.6342 90.1786 97.8552 90.0165Z" fill="#782ADB"/>
<path d="M112.991 85.1042C112.696 85.0987 112.656 84.9016 112.663 84.6677C113.079 84.5811 113.081 84.8077 112.991 85.1042Z" fill="#782ADB"/>
<path d="M98.1582 89.6481C98.1711 89.8544 98.0753 89.9722 97.8672 89.9943C97.9059 89.8304 98.009 89.7199 98.1582 89.6481Z" fill="#782ADB"/>
<path d="M97.1786 90.9613C97.2007 90.9945 97.2247 91.0295 97.2468 91.0626C97.2044 91.0534 97.1639 91.0442 97.1215 91.035C97.1178 90.9926 97.1381 90.9687 97.1786 90.9613Z" fill="#782ADB"/>
<path d="M141.689 116.2C141.731 116.254 141.774 116.309 141.816 116.362C141.698 116.368 141.665 116.307 141.689 116.2Z" fill="#782ADB"/>
<path d="M80.2434 98.6456C77.7495 98.6345 75.2557 98.6235 72.7637 98.6143C72.8226 98.2127 73.1357 98.2919 73.3936 98.2901C75.4786 98.2864 77.5635 98.2864 79.6503 98.2901C79.9137 98.2901 80.2232 98.233 80.2453 98.6456H80.2434Z" fill="#782ADB"/>
<path d="M80.0362 107.381H72.166C72.166 107.354 72.166 107.328 72.166 107.3H80.0694C80.0583 107.328 80.0473 107.354 80.0362 107.381Z" fill="#782ADB"/>
<path d="M46.2021 107.072C46.2058 104.26 46.2702 101.447 46.1523 98.6364C46.9296 98.8813 47.0456 99.1263 46.6091 99.7488C46.4452 99.9827 46.3586 100.182 46.5465 100.395C46.9278 100.832 46.867 101.348 46.867 101.858C46.867 103.259 46.8615 104.659 46.8707 106.061C46.8743 106.558 46.8283 106.998 46.2039 107.072H46.2021Z" fill="#782ADB"/>
</g>
</g>
<defs>
<clipPath id="clip0_5163_40973">
<rect width="192" height="192" fill="white"/>
</clipPath>
<clipPath id="clip1_5163_40973">
<rect width="140" height="41.9383" fill="white" transform="translate(26 75.0309)"/>
</clipPath>
</defs>
</svg>
