<svg width="192" height="192" viewBox="0 0 192 192" fill="none" xmlns="http://www.w3.org/2000/svg">
<g clip-path="url(#clip0_4880_38099)">
<path d="M96 192C149.019 192 192 149.019 192 96C192 42.9807 149.019 0 96 0C42.9807 0 0 42.9807 0 96C0 149.019 42.9807 192 96 192Z" fill="white"/>
<path d="M105.636 99.2473C103.802 92.7978 99.4572 88.8296 92.9498 87.2076C92.4767 87.0917 92.2836 87.14 92.3029 87.7096C92.3415 89.8916 92.3319 92.0737 92.3029 94.246C92.3029 94.6805 92.4381 94.8833 92.8436 95.0377C96.4063 96.428 98.6945 99.788 98.6945 103.592C98.6945 107.425 96.4063 110.804 92.8436 112.214C92.5346 112.339 92.2257 112.388 91.8877 112.388C88.0933 112.388 84.2893 112.388 80.4949 112.388H79.848C82.059 108.613 82.8024 104.644 82.0011 100.435C81.1804 96.1867 79.008 92.7592 75.5516 90.1716C69.6234 85.74 61.494 85.74 55.5658 90.1523C52.6018 92.3633 50.5453 95.2308 49.5025 98.7838C48.1122 103.534 48.7398 108.062 51.2211 112.359C50.7866 112.446 50.4487 112.262 50.1108 112.146C47.3205 111.161 45.9109 108.951 45.8433 106.72C45.7081 102.009 45.7757 97.2873 45.795 92.5661C45.8143 89.7951 47.5233 87.4876 50.1591 86.58C51.1149 86.2517 52.0997 86.1166 53.1038 86.1166C68.909 86.1166 84.7238 86.1166 100.539 86.1166C101.494 86.1166 101.475 86.1166 101.33 85.18C100.78 81.5401 97.5938 79.2036 94.3498 79.3002C93.2298 79.3291 92.1098 79.2809 90.9995 79.2809H50.6804C49.0294 79.2809 47.3591 79.165 45.8047 80.0532V78.6533C45.8047 75.5734 45.8047 72.4838 45.8047 69.4038C45.8047 69.2301 45.9688 68.9114 45.6116 68.9114C45.0033 68.9114 44.3757 68.8052 43.7771 68.9887C40.9965 69.8093 38.9883 72.5031 38.9883 75.3803C38.9883 86.1262 38.9883 96.8722 38.9883 107.628C38.9883 108.738 39.1331 109.819 39.4517 110.872C40.8324 115.458 45.0612 119.156 50.5259 119.185C57.1782 119.223 63.8208 119.204 70.4731 119.204C78.1874 119.204 85.892 119.223 93.6063 119.252C95.1415 119.252 96.5318 118.856 97.8448 118.113C104.401 114.425 107.722 106.575 105.646 99.2473H105.636ZM70.2317 112.224C70 112.349 69.7683 112.388 69.5172 112.388C68.1848 112.388 66.8525 112.388 65.5201 112.388C64.1877 112.388 62.9422 112.368 61.6484 112.388C61.2816 112.388 60.9823 112.291 60.6733 112.127C57.101 110.128 55.1796 106.035 55.8748 101.864C56.512 97.9728 59.7561 94.6998 63.6567 93.9853C69.2952 92.9523 74.4799 96.6791 75.2812 102.347C75.8316 106.257 73.7268 110.37 70.2317 112.224Z" fill="#565656"/>
<path d="M122.936 112.397C124.819 112.397 126.634 112.494 128.43 112.368C129.637 112.281 130.66 111.538 131.568 110.756C134.513 108.197 135.633 104.973 134.609 101.207C133.595 97.49 131.037 95.2984 127.271 94.5163C126.914 94.4391 126.547 94.3908 126.18 94.4004C125.698 94.4101 125.389 94.2942 125.128 93.8308C123.844 91.4847 122.106 89.5344 119.808 87.9703C121.121 87.4296 122.405 87.1206 123.709 86.9951C130.274 86.3868 135.623 88.6847 139.446 94.0529C145.539 102.597 142.14 114.637 132.553 118.924C131.944 119.194 131.336 119.252 130.699 119.252C126.267 119.243 121.836 119.223 117.404 119.223C114.343 119.223 111.273 119.243 108.213 119.243C105.461 119.243 102.7 119.233 99.9479 119.223C99.7837 119.223 99.6196 119.214 99.3203 119.194C100.276 118.528 101.164 117.978 101.946 117.283C103.472 115.912 104.833 114.415 105.789 112.571C105.924 112.31 106.156 112.397 106.349 112.397C107.933 112.397 109.506 112.397 111.09 112.397C111.379 112.397 111.659 112.359 111.939 112.252C115.792 110.795 118.341 106.662 117.839 102.694C117.269 98.2528 113.977 94.9411 109.68 94.4487C108.512 94.3136 107.373 94.4198 106.243 94.6998C106.021 94.7577 105.847 94.8446 105.693 94.526C104.602 92.286 102.96 90.4998 100.962 89.0226C100.913 88.9937 100.884 88.9357 100.846 88.8971C104.688 86.4351 112.374 85.5469 118.601 90.1523C125.022 94.9025 127.735 104.22 122.936 112.397Z" fill="#FF5100"/>
<path d="M135.73 119.108C136.397 118.663 137.073 118.239 137.71 117.766C139.515 116.433 140.954 114.772 142.054 112.822C142.238 112.494 142.45 112.378 142.837 112.378C144.285 112.397 145.723 112.378 147.172 112.388C147.423 112.388 147.664 112.349 147.905 112.262C151.854 110.824 154.345 106.691 153.833 102.453C153.322 98.2915 149.914 94.9219 145.762 94.4488C144.632 94.3233 143.532 94.3909 142.441 94.6612C142.18 94.7288 141.997 94.7288 141.871 94.4585C140.857 92.2475 139.226 90.5675 137.324 89.1096C137.208 89.0227 137.092 88.9165 136.937 88.7717C138.318 88.0089 139.737 87.5262 141.224 87.2173C149.489 85.4987 157.763 90.162 160.486 98.1273C162.079 102.791 161.673 107.329 159.346 111.683C157.57 115.014 154.886 117.379 151.478 118.963C151.111 119.137 150.725 119.243 150.309 119.243C145.569 119.233 140.828 119.223 136.088 119.214C135.982 119.214 135.856 119.262 135.74 119.117L135.73 119.108Z" fill="#FF5100"/>
<path d="M80.4391 76.4041C73.6516 76.4041 66.8739 76.4041 60.0864 76.4138C59.5651 76.4138 59.4492 76.269 59.4492 75.7669C59.4782 73.8842 59.4782 71.9918 59.4492 70.1091C59.4492 69.6746 59.5265 69.5201 60.0092 69.5201C71.5565 69.5395 83.1038 69.5491 94.6415 69.5201C97.9338 69.5201 100.734 71.9146 101.371 75.0621C101.622 76.2979 101.535 76.4041 100.319 76.4041C93.6857 76.4041 87.0624 76.4041 80.4294 76.4041H80.4391Z" fill="#565656"/>
<path d="M37.3648 103.022C37.3648 108.197 37.3551 113.382 37.3841 118.557C37.3841 119.136 37.22 119.243 36.6793 119.233C34.8062 119.194 32.9428 119.204 31.0698 119.233C30.6642 119.233 30.5098 119.175 30.5098 118.712C30.5291 110.244 30.5098 101.767 30.5291 93.2997C30.5291 89.9977 33.5607 86.9371 36.8048 86.8599C37.2779 86.8502 37.3744 86.9951 37.3648 87.4295C37.3455 92.6239 37.3648 97.8279 37.3648 103.022Z" fill="#565656"/>
<path d="M125.149 128.338C122.918 128.338 120.679 128.338 118.448 128.338C117.174 128.338 116.488 127.652 116.488 126.378C116.488 125.374 116.488 124.379 116.488 123.375C116.498 122.216 117.203 121.512 118.371 121.512C122.899 121.512 127.427 121.512 131.956 121.512C133.124 121.512 133.819 122.207 133.829 123.385C133.838 124.427 133.838 125.461 133.829 126.503C133.819 127.623 133.104 128.338 131.975 128.338C129.706 128.338 127.427 128.338 125.158 128.338H125.149Z" fill="#FF5100"/>
<path d="M85.8243 94.1493C84.9361 94.1493 84.0478 94.1686 83.1692 94.1493C82.0782 94.1203 81.412 93.4638 81.3831 92.3728C81.3541 91.2914 81.3541 90.2197 81.3831 89.1384C81.412 87.9894 82.1168 87.3232 83.2561 87.3136C84.9747 87.3039 86.6836 87.3039 88.4022 87.3136C89.5415 87.3136 90.2559 88.0087 90.2753 89.1384C90.3042 90.2197 90.3042 91.2914 90.2753 92.3728C90.2463 93.4541 89.5704 94.1203 88.4891 94.1493C87.6008 94.1782 86.7126 94.1493 85.834 94.1493H85.8243Z" fill="#565656"/>
<path d="M32.55 60.0193C34.5389 60.0193 36.5181 60.0193 38.5071 60.0193C38.7871 60.0193 39.0188 59.9903 39.0188 60.4152C39.0188 60.8207 38.8546 60.8883 38.4974 60.8786C34.8768 60.8786 31.2465 60.8786 27.6259 60.8786C27.1239 60.8786 26.8729 61.12 26.8729 61.6027C26.8729 64.084 26.8729 66.575 26.8729 69.0563C26.8729 69.375 26.8729 69.6163 26.4287 69.5874C26.1005 69.5681 26.0039 69.4812 26.0039 69.1529C26.0232 67.8205 26.0039 66.4978 26.0039 65.1654C26.0039 63.6013 26.0136 62.0468 26.0039 60.4827C26.0039 60.1159 26.0908 60 26.477 60C28.5045 60.0193 30.5224 60 32.55 60V60.0193Z" fill="#565656"/>
<path d="M159.523 60.0189C161.521 60.0189 163.53 60.0285 165.528 60.0189C165.914 60.0189 166.001 60.1347 166.001 60.5016C165.982 63.3691 165.992 66.2366 166.001 69.1042C166.001 69.3938 166.011 69.6062 165.596 69.6062C165.171 69.6062 165.132 69.4228 165.132 69.0849C165.132 66.5842 165.123 64.0836 165.152 61.583C165.152 61.0423 165.045 60.8685 164.466 60.8781C160.826 60.9071 157.186 60.8975 153.546 60.8878C153.295 60.8878 152.996 60.9844 152.996 60.5306C152.996 60.183 153.044 60.0189 153.46 60.0285C155.477 60.0478 157.505 60.0382 159.523 60.0382V60.0189Z" fill="#565656"/>
<path d="M32.4334 131.34C30.4638 131.34 28.5039 131.321 26.5343 131.35C26.0901 131.35 26.0032 131.234 26.0032 130.809C26.0225 127.98 26.0129 125.142 26.0032 122.313C26.0032 122.023 25.9356 121.753 26.4184 121.763C26.8625 121.763 26.8625 121.985 26.8625 122.303C26.8625 124.785 26.8625 127.276 26.8625 129.757C26.8625 130.24 27.1136 130.481 27.6156 130.481C31.2169 130.481 34.8279 130.481 38.4292 130.481C38.6705 130.481 38.9795 130.356 38.9988 130.819C39.0084 131.215 38.9022 131.34 38.4967 131.34C36.4692 131.321 34.4513 131.34 32.4238 131.34H32.4334Z" fill="#565656"/>
<path d="M159.501 131.34C157.513 131.34 155.533 131.34 153.544 131.34C153.264 131.34 152.984 131.427 152.984 130.935C152.984 130.443 153.245 130.481 153.573 130.481C157.213 130.481 160.863 130.481 164.503 130.491C165.005 130.491 165.15 130.375 165.15 129.854C165.121 127.334 165.15 124.804 165.13 122.284C165.13 121.946 165.159 121.753 165.584 121.763C165.999 121.763 165.99 121.966 165.99 122.265C165.99 124.215 165.99 126.156 165.99 128.106C165.99 129.033 165.97 129.96 165.99 130.877C165.999 131.263 165.874 131.35 165.507 131.35C163.499 131.331 161.5 131.35 159.492 131.35L159.501 131.34Z" fill="#565656"/>
<path d="M59.0606 106.17C61.3971 106.17 63.7433 106.17 66.0894 106.17C66.3501 106.17 66.4563 106.219 66.2922 106.489C65.6164 107.647 64.9502 108.816 64.284 109.984C64.1874 110.158 64.0619 110.235 63.8688 110.177C61.6771 109.617 60.0454 108.362 59.0606 106.315C59.051 106.286 59.0606 106.248 59.0703 106.17H59.0606Z" fill="#FF5100"/>
<path d="M63.4345 105.658C61.909 105.658 60.5091 105.658 59.0994 105.658C58.8098 105.658 58.7132 105.533 58.6263 105.282C57.9988 103.322 58.4043 100.879 59.6884 99.1799C60.9242 101.323 62.1504 103.438 63.4345 105.658Z" fill="#FF5100"/>
<path d="M62.3721 102.743C61.6094 101.41 60.8756 100.155 60.1418 98.8999C60.026 98.7068 60.1225 98.5812 60.248 98.4557C61.7446 96.9013 63.5693 96.1579 65.7321 96.2158C66.1182 96.2158 66.0796 96.3703 65.9348 96.6309C64.7666 98.6392 63.5983 100.647 62.3721 102.752V102.743Z" fill="#FF5100"/>
<path d="M64.7188 110.292C65.9739 108.12 67.1904 106.015 68.4649 103.814C68.7642 104.335 69.0249 104.799 69.2855 105.253C69.7297 106.015 70.1738 106.778 70.6179 107.541C70.7145 107.705 70.8303 107.85 70.6469 108.043C69.0442 109.704 67.1228 110.476 64.7188 110.292Z" fill="#FF5100"/>
<path d="M71.1573 107.406C70.607 106.45 70.1049 105.591 69.6125 104.732C68.956 103.602 68.3091 102.472 67.6526 101.343C67.4884 101.063 67.4208 100.908 67.865 100.908C69.1587 100.918 70.4428 100.918 71.7366 100.908C72.0166 100.908 72.1325 101.005 72.2097 101.275C72.818 103.447 72.4607 105.446 71.167 107.406H71.1573Z" fill="#FF5100"/>
<path d="M64.3906 100.348C65.1534 99.0445 65.8775 97.7797 66.6113 96.5246C66.6885 96.3894 66.7754 96.3508 66.9395 96.3701C68.7064 96.5246 71.2263 98.5811 71.7863 100.348H64.3906Z" fill="#FF5100"/>
</g>
<defs>
<clipPath id="clip0_4880_38099">
<rect width="192" height="192" fill="white"/>
</clipPath>
</defs>
</svg>
