<svg width="192" height="192" viewBox="0 0 192 192" fill="none" xmlns="http://www.w3.org/2000/svg">
<g clip-path="url(#clip0_4880_37914)">
<path d="M96 192C149.019 192 192 149.019 192 96C192 42.9807 149.019 0 96 0C42.9807 0 0 42.9807 0 96C0 149.019 42.9807 192 96 192Z" fill="white"/>
<path d="M91.1963 67.0713C106.392 67.0713 121.588 67.0713 136.792 67.0713C137.545 67.0713 138.443 66.943 139.015 67.2936C139.631 67.6699 140.273 68.5335 140.29 69.2006C140.298 69.6794 139.332 70.5517 138.742 70.603C136.604 70.7826 134.44 70.697 132.286 70.697C128.42 70.697 124.564 70.697 120.698 70.697C120.126 70.697 119.553 70.6799 118.988 70.7398C117.466 70.9023 116.149 71.5351 116.218 73.2539C116.286 75.0411 117.705 75.6739 119.287 75.7081C123.213 75.7765 127.138 75.7509 131.063 75.7766C132.405 75.7766 133.628 76.0331 133.953 77.6236C134.312 79.3767 133.277 80.4627 131.157 80.4798C126.214 80.514 121.28 80.4969 116.337 80.5055C113.703 80.5055 112.575 81.1896 112.643 82.7203C112.703 84.1996 113.746 84.8153 116.277 84.8153C120.707 84.8239 125.145 84.8495 129.575 84.8153C131.148 84.7982 132.234 85.3284 132.234 87.0216C132.234 88.6207 131.114 89.168 129.686 89.1936C128.104 89.2193 126.522 89.2278 124.94 89.2193C123.461 89.2107 122.178 89.5613 122.152 91.3058C122.127 93.0845 123.503 93.4351 124.923 93.4608C128.343 93.5206 131.764 93.5035 135.176 93.5206C136.595 93.5206 137.673 93.9396 137.835 95.5729C138.006 97.3773 137.083 98.2837 134.842 98.3094C130.541 98.3521 126.231 98.335 121.921 98.3436C120.912 98.3436 119.895 98.3521 118.886 98.3692C117.637 98.3949 116.799 98.9678 116.705 100.259C116.611 101.653 117.406 102.388 118.732 102.5C119.929 102.602 121.135 102.636 122.332 102.636C130.054 102.653 137.784 102.594 145.506 102.722C146.412 102.739 147.541 103.577 148.114 104.364C148.431 104.808 148.063 106.194 147.558 106.673C146.96 107.228 145.874 107.485 144.993 107.485C135.621 107.545 126.248 107.519 116.876 107.545C115.739 107.545 114.601 107.613 113.473 107.742C112.156 107.895 111.377 108.631 111.514 110.042C111.643 111.359 112.523 111.863 113.746 111.872C118.561 111.889 123.375 111.898 128.181 111.906C129.002 111.906 129.831 111.855 130.652 111.94C132.038 112.077 132.876 112.812 132.816 114.292C132.764 115.703 131.909 116.336 130.592 116.353C126.667 116.396 122.742 116.387 118.817 116.413C117.996 116.413 117.167 116.438 116.354 116.541C115.123 116.703 114.353 117.43 114.43 118.704C114.507 119.979 115.32 120.603 116.585 120.62C119.749 120.671 122.913 120.723 126.077 120.782C127.454 120.808 128.856 120.851 128.959 122.724C129.036 124.16 127.924 124.947 125.855 124.947C100.526 124.947 75.1967 124.964 49.8675 124.947C42.787 124.947 37.3056 119.611 36.7497 112.556C35.9801 102.722 35.0566 92.8964 34.2271 83.0623C34.0646 81.1725 33.962 79.2655 34.0133 77.3671C34.1758 71.1845 38.6823 67.02 45.2156 67.0114C60.5396 66.9857 75.8637 67.0114 91.1877 67.0114V67.0798L91.1963 67.0713ZM87.4251 77.0849C78.5659 77.0849 72.6141 81.3349 70.673 89.3561C70.0231 92.0327 69.9034 94.8546 69.7494 97.6253C69.4672 102.594 65.8329 108.494 59.0175 107.972C57.6322 107.87 56.2383 107.938 54.8444 107.972C52.8263 108.007 52.4671 108.486 53.2026 110.418C55.2891 115.934 53.7669 114.839 59.3766 114.882C67.6544 114.942 73.8712 109.657 75.1881 101.465C75.5986 98.9165 75.7183 96.3169 75.9321 93.7344C76.3938 88.1333 80.5755 84.1654 86.1595 84.0799C88.3743 84.0457 90.5891 84.0372 92.8039 84.0201C94.1465 84.0115 94.5911 83.4215 94.2234 82.0789C92.8809 77.102 92.9065 77.102 87.8185 77.102H87.4422L87.4251 77.0849ZM77.2148 104.133C76.6504 105.347 76.163 106.69 75.4275 107.887C74.6323 109.187 74.9572 110.042 75.9834 111C78.7113 113.531 81.9009 114.848 85.6037 114.865C91.487 114.899 97.3789 114.882 103.262 114.873C105.272 114.873 105.554 114.514 104.913 112.65C102.946 106.912 100.919 101.2 98.978 95.4618C98.559 94.2133 97.8663 93.8028 96.6007 93.837C93.9412 93.9054 91.2818 93.837 88.6223 93.8627C83.4658 93.9225 84.167 93.0931 84.073 98.6001C84.0473 100.045 84.6972 100.464 86.0312 100.43C88.4342 100.37 90.8456 100.413 93.2486 100.413C98.8497 100.413 98.8155 100.413 98.7471 105.997C98.73 107.417 98.3794 108.049 96.8145 107.981C94.1636 107.861 91.4955 107.827 88.8446 107.981C84.6459 108.22 80.7379 107.81 77.8476 104.261C77.7877 104.184 77.6081 104.21 77.2062 104.133H77.2148ZM52.9289 76.9053C52.9289 76.9652 52.9289 77.025 52.9204 77.0849C50.0043 77.0849 47.0969 77.102 44.1809 77.0764C43.0777 77.0678 42.3509 77.4441 42.7271 78.6241C43.779 81.9335 44.9163 85.2087 46.0622 88.4924C46.1648 88.7832 46.6864 89.1936 46.8489 89.1338C47.1995 88.997 47.6271 88.6207 47.6869 88.2786C47.8323 87.5432 47.8323 86.765 47.7639 86.0125C47.6271 84.5759 48.0888 83.9773 49.6537 84.0457C52.4928 84.174 55.3489 84.174 58.1965 84.0543C61.7026 83.9089 64.8752 84.4134 67.2695 87.3294C67.4491 87.5432 68.6207 87.3893 68.7831 87.0986C69.4929 85.8415 70.1086 84.4989 70.5191 83.1222C70.673 82.6091 70.3566 81.6171 69.9376 81.3435C67.7826 79.9667 65.6619 78.1624 63.2761 77.6236C59.941 76.8711 56.3751 77.102 52.9118 76.9139L52.9289 76.9053Z" fill="#761295"/>
<path d="M149.242 94.2054C151.457 94.2054 153.663 94.1797 155.878 94.214C157.066 94.2311 158.007 94.6244 157.998 96.0696C157.99 97.4378 157.032 97.797 155.963 97.797C151.354 97.797 146.736 97.797 142.136 97.6174C141.588 97.6003 140.665 96.5057 140.682 95.9413C140.699 95.3684 141.64 94.385 142.238 94.3422C144.564 94.1541 146.907 94.2653 149.25 94.2653C149.25 94.2482 149.25 94.2311 149.25 94.214L149.242 94.2054Z" fill="#761295"/>
<path d="M149.158 80.5399C147.2 80.5399 145.233 80.6767 143.3 80.4715C142.599 80.3945 141.616 79.6249 141.402 78.9665C141.009 77.7693 141.975 77.0082 143.078 76.9825C147.114 76.897 151.151 76.9056 155.187 76.9654C156.333 76.9825 157.231 77.812 156.931 78.9323C156.752 79.5907 155.734 80.386 155.016 80.4629C153.083 80.6767 151.116 80.5314 149.158 80.5399Z" fill="#761295"/>
<path d="M143.666 112.523C144.992 112.523 146.343 112.343 147.617 112.6C148.25 112.728 149.13 113.643 149.148 114.216C149.165 114.789 148.267 115.858 147.711 115.9C145.086 116.097 142.426 116.14 139.801 115.96C139.168 115.918 138.612 114.823 138.014 114.216C138.638 113.651 139.185 112.754 139.904 112.583C141.101 112.309 142.401 112.506 143.666 112.506C143.666 112.506 143.666 112.506 143.666 112.514V112.523Z" fill="#761295"/>
<path d="M142.466 88.8773C141.328 88.8773 140.131 89.0997 139.088 88.8004C138.378 88.6037 137.506 87.7314 137.395 87.0473C137.318 86.5514 138.327 85.4055 138.908 85.3627C141.346 85.166 143.825 85.166 146.263 85.3627C146.853 85.414 147.862 86.5856 147.776 87.073C147.648 87.7571 146.759 88.6122 146.04 88.7918C144.92 89.0826 143.663 88.8688 142.466 88.8688V88.8773Z" fill="#761295"/>
<path d="M135.405 119.021C136.508 119.183 138.313 118.465 138.509 120.731C138.638 122.176 137.68 122.707 135.157 122.698C134.841 122.698 134.533 122.698 134.217 122.689C132.942 122.672 131.882 122.228 131.891 120.808C131.899 119.38 132.942 118.944 134.242 119.029C134.559 119.047 134.867 119.029 135.405 119.029V119.021Z" fill="#761295"/>
<path d="M147.643 70.7052C147.266 70.7052 146.881 70.6966 146.505 70.7052C145.359 70.7394 144.479 70.3888 144.376 69.089C144.273 67.7977 145.086 67.2419 146.223 67.1649C147.224 67.0965 148.318 66.934 149.225 67.2419C149.943 67.4898 150.815 68.3193 150.935 69.012C151.149 70.2348 150.157 70.7308 148.977 70.6966C148.532 70.6795 148.087 70.6966 147.643 70.6966V70.7052Z" fill="#761295"/>
</g>
<defs>
<clipPath id="clip0_4880_37914">
<rect width="192" height="192" fill="white"/>
</clipPath>
</defs>
</svg>
