<svg width="192" height="192" viewBox="0 0 192 192" fill="none" xmlns="http://www.w3.org/2000/svg">
<g clip-path="url(#clip0_4880_37988)">
<path d="M96 192C149.019 192 192 149.019 192 96C192 42.9807 149.019 0 96 0C42.9807 0 0 42.9807 0 96C0 149.019 42.9807 192 96 192Z" fill="white"/>
<path d="M166 104.365C161.697 104.383 157.395 104.495 153.102 104.402C150.302 104.337 148.575 102.741 148.118 99.9689C147.707 97.5144 147.689 95.0132 148.146 92.5587C148.622 90.0201 150.143 88.5549 152.747 88.3122C156.219 87.9856 159.719 88.1722 163.2 88.2189C164.74 88.2376 165.253 89.4882 166 90.4588V95.3212C165.057 97.337 163.415 97.9157 161.287 97.7104C159.896 97.5797 158.487 97.701 157.087 97.6824C155.388 97.6637 153.326 98.3263 153.046 95.4145C152.915 96.1984 152.897 96.7677 152.915 97.3277C152.999 99.8289 153.298 100.118 155.79 100.128C158.534 100.128 161.268 100.128 164.012 100.128C164.712 100.128 165.402 100.081 166 100.538V104.365ZM156.76 94.3692C157.918 94.3599 159.084 94.3599 160.241 94.3599C161.007 94.3599 161.231 93.8932 161.249 93.2306C161.259 92.6893 161.212 92.0454 160.559 92.0267C158.356 91.9614 156.144 91.7187 153.97 92.1667C153.177 92.3253 152.915 93.1 152.962 93.8093C153.018 94.7519 153.839 94.3132 154.334 94.3506C155.146 94.4159 155.958 94.3692 156.77 94.3692H156.76Z" fill="#0024C5"/>
<path d="M81.0063 97.9254C81.0063 100.408 80.9503 102.9 81.025 105.382C81.1277 108.807 78.4025 111.486 74.8374 111.346C71.4682 111.215 68.0804 111.262 64.7113 111.346C63.5074 111.374 63.2741 110.973 63.2927 109.871C63.33 106.549 63.2927 106.549 66.6992 106.549C69.1444 106.549 71.5896 106.53 74.0348 106.549C75.2107 106.549 75.892 106.073 76.032 104.86C76.172 103.693 75.9853 103.04 74.5201 103.114C72.2522 103.226 69.975 103.208 67.7165 103.077C64.422 102.881 62.8821 101.285 62.7048 98.0188C62.6208 96.4602 62.6114 94.8923 62.7421 93.343C63.0127 90.2259 64.7393 88.4153 67.8938 88.2753C71.7296 88.098 75.5747 88.2007 79.4198 88.182C80.605 88.182 81.0437 88.8073 81.0343 89.9459C80.997 92.6058 81.025 95.2656 81.025 97.9254H81.0063ZM76.0133 101.052C76.0133 98.3734 76.032 95.7509 75.9946 93.1284C75.9946 92.4938 75.4067 92.5218 74.94 92.5218C73.1388 92.5218 71.3376 92.5218 69.527 92.5404C68.7804 92.5404 68.1831 92.8111 67.8378 93.539C66.4472 96.4695 67.8845 98.8401 71.0856 98.8027C72.9615 98.7841 74.9494 98.4387 75.556 100.959C75.556 100.977 75.6587 100.987 75.9946 101.052H76.0133Z" fill="#0024C5"/>
<path d="M104.916 100.697C104.767 101.126 104.739 101.173 104.729 101.229C104.561 102.246 105.215 103.721 104.477 104.206C103.348 104.943 101.771 104.383 100.38 104.458C99.7177 104.495 99.6523 104.066 99.6523 103.543C99.6523 96.3664 99.6523 89.1895 99.6523 82.0219C99.6523 81.3966 99.8203 81.0513 100.539 81.0793C101.584 81.1259 102.639 81.1259 103.684 81.0793C104.477 81.0419 104.692 81.3873 104.673 82.1059C104.645 83.6645 104.72 85.2324 104.645 86.7909C104.589 87.8362 104.879 88.2282 105.999 88.1909C108.033 88.1162 110.077 88.1255 112.112 88.2002C115.891 88.3308 117.786 90.1321 117.991 93.8839C118.094 95.7224 118.113 97.5983 117.917 99.4275C117.553 102.741 115.677 104.346 112.336 104.458C110.88 104.505 109.414 104.383 107.968 104.495C106.708 104.598 106.008 104.197 105.747 102.946C105.607 102.293 105.289 101.677 104.916 100.697ZM108.351 92.5026C107.595 92.5026 106.829 92.5679 106.083 92.4839C104.916 92.3626 104.571 92.8199 104.645 93.9492C104.748 95.4984 104.692 97.0663 104.664 98.6249C104.655 99.3155 104.823 99.7168 105.616 99.7075C107.473 99.6702 109.33 99.6888 111.188 99.6702C112.289 99.6515 112.84 99.0636 113.026 97.9809C113.782 93.4452 113.026 92.5026 108.518 92.5026C108.462 92.5026 108.406 92.5026 108.341 92.5026H108.351Z" fill="#0024C5"/>
<path d="M44.3564 92.8293C44.3564 96.1798 44.3191 99.5396 44.3751 102.89C44.3938 104.019 44.1978 104.542 42.8819 104.505C39.1581 104.411 35.425 104.505 31.7012 104.439C28.3787 104.383 26.4468 102.703 26.1388 99.4276C25.9522 97.3651 25.9522 95.2559 26.1482 93.1933C26.4562 90.0295 28.2107 88.4336 31.4119 88.2376C33.4464 88.1163 35.4996 88.0603 37.5248 88.2096C39.1581 88.3309 39.5407 87.743 39.3914 86.2591C39.2701 84.9991 39.3634 83.7205 39.3634 82.4419C39.3634 82.1526 39.2607 81.7327 39.4101 81.5927C40.6327 80.4821 42.1352 81.3127 43.4978 81.1074C44.5524 80.9487 44.3285 81.826 44.3285 82.4139C44.3471 85.8857 44.3285 89.3575 44.3285 92.8293H44.3564ZM39.2887 103.357C39.3167 103.254 39.3821 103.151 39.3821 103.039C39.3821 100.846 39.3821 98.653 39.3821 96.4598C39.3821 93.8217 38.0661 92.5027 35.4343 92.5027C31.0106 92.5027 30.8519 92.6613 30.9732 97.0664C31.0386 99.2503 31.4679 99.8476 33.6704 99.6609C36.6102 99.409 38.8688 99.7916 39.2794 103.366L39.2887 103.357Z" fill="#0024C5"/>
<path d="M141.389 92.876C141.389 96.2918 141.352 99.7076 141.417 103.123C141.436 104.197 141.109 104.486 140.045 104.495C136.359 104.523 136.359 104.57 136.359 100.94C136.359 94.8639 136.396 88.7789 136.331 82.7033C136.312 81.406 136.639 81.0327 137.973 81.0607C141.408 81.1354 141.408 81.0607 141.408 84.5418C141.408 87.323 141.408 90.1042 141.408 92.876H141.389Z" fill="#0024C5"/>
<path d="M56.1544 96.2821C56.1544 98.5967 56.1171 100.902 56.1731 103.216C56.2011 104.196 55.8931 104.486 54.9038 104.514C51.1987 104.598 51.1987 104.644 51.1987 100.977C51.1987 97.1594 51.236 93.3516 51.1707 89.5439C51.152 88.4893 51.46 88.1719 52.5333 88.1533C56.1451 88.116 56.1451 88.0693 56.1451 91.6157C56.1451 93.1743 56.1451 94.7329 56.1451 96.2915L56.1544 96.2821Z" fill="#0024C5"/>
<path d="M87.8836 96.3668C87.8836 94.0522 87.921 91.7377 87.865 89.4325C87.837 88.4525 88.1543 88.1632 89.1436 88.1446C92.8393 88.0699 92.8393 88.0326 92.8393 91.691C92.8393 95.5081 92.802 99.3252 92.8673 103.133C92.886 104.197 92.5594 104.496 91.4861 104.505C87.8836 104.533 87.8836 104.58 87.8836 101.052C87.8836 99.4932 87.8836 97.9347 87.8836 96.3668Z" fill="#0024C5"/>
<path d="M124.62 96.3481C124.62 94.0429 124.667 91.7283 124.601 89.4231C124.573 88.4245 124.918 88.1632 125.889 88.1445C129.566 88.0699 129.566 88.0326 129.566 91.7003C129.566 95.5081 129.529 99.3159 129.594 103.124C129.613 104.197 129.258 104.477 128.213 104.486C124.62 104.524 124.62 104.561 124.62 101.024C124.62 99.4652 124.62 97.9066 124.62 96.3481Z" fill="#0024C5"/>
<path d="M53.7735 81.0984C55.3539 81.0984 56.144 81.8357 56.144 83.3103C56.144 85.6995 56.144 85.7182 53.3909 85.6902C50.8057 85.6622 51.2163 86.0728 51.1883 83.1143C51.1697 81.0985 51.1883 81.0984 53.7642 81.0984H53.7735Z" fill="#0024C5"/>
<path d="M90.8806 85.6989C88.8834 85.6989 87.8848 84.859 87.8848 83.1791C87.8848 81.0978 87.9034 81.2752 90.9179 81.0418C93.5218 80.8365 92.6445 82.5071 92.8685 83.767C93.2698 86.1375 91.6832 85.7269 90.8806 85.6989Z" fill="#0024C5"/>
<path d="M127.137 81.0982C129.872 81.1449 129.536 80.6689 129.554 83.2541C129.573 85.6993 129.554 85.718 126.689 85.69C124.244 85.6713 124.832 86.0259 124.552 82.9928C124.328 80.5663 125.803 81.0889 127.128 81.0982H127.137Z" fill="#0024C5"/>
</g>
<defs>
<clipPath id="clip0_4880_37988">
<rect width="192" height="192" fill="white"/>
</clipPath>
</defs>
</svg>
