<svg width="192" height="192" viewBox="0 0 192 192" fill="none" xmlns="http://www.w3.org/2000/svg">
<g clip-path="url(#clip0_4880_38711)">
<path d="M96 192C149.019 192 192 149.019 192 96C192 42.9807 149.019 0 96 0C42.9807 0 0 42.9807 0 96C0 149.019 42.9807 192 96 192Z" fill="white"/>
<path d="M94.7528 96.2423C103.279 96.2423 110.191 89.3304 110.191 80.804C110.191 72.2776 103.279 65.3657 94.7528 65.3657C86.2264 65.3657 79.3145 72.2776 79.3145 80.804C79.3145 89.3304 86.2264 96.2423 94.7528 96.2423Z" fill="#FFDC04"/>
<path d="M57.2829 128.413C63.2284 128.413 68.0482 123.593 68.0482 117.647C68.0482 111.702 63.2284 106.882 57.2829 106.882C51.3374 106.882 46.5176 111.702 46.5176 117.647C46.5176 123.593 51.3374 128.413 57.2829 128.413Z" fill="#FFDC04"/>
<path d="M93.7011 98.2703C90.9108 98.4151 87.744 98.1834 84.8088 96.6676C80.2131 94.2828 77.2972 90.556 76.5442 85.4292C75.9552 81.403 75.7331 77.2707 77.1717 73.3508C79.3441 67.4129 83.6502 63.8599 89.9453 63.2323C93.1797 62.9137 96.5396 62.8847 99.7451 63.3868C106.272 64.4102 111.264 69.6336 111.949 76.2279C112.316 79.6941 112.306 83.3533 111.592 86.7519C110.182 93.5104 104.08 98.0965 97.1769 98.2703C96.1631 98.2993 95.1493 98.2703 93.7011 98.2703ZM94.0873 91.3766C96.7907 91.3766 99.5037 91.3766 102.207 91.3766C104.177 91.3766 104.872 90.7201 104.882 88.7987C104.901 83.3726 104.901 77.9465 104.882 72.5204C104.882 70.6474 104.186 69.9425 102.362 69.9425C96.9452 69.9329 91.5287 69.9329 86.1123 69.9425C84.2778 69.9425 83.5923 70.6474 83.5923 72.5204C83.5827 77.9465 83.5827 83.3726 83.5923 88.7987C83.5923 90.7201 84.2778 91.3766 86.2571 91.3863C88.8639 91.3959 91.4804 91.3863 94.0873 91.3863V91.3766Z" fill="#262626"/>
<path d="M100.575 123.499C98.9142 121.375 97.379 119.405 95.8342 117.436C95.728 117.465 95.6315 117.494 95.5253 117.523V128.529H89.5488V106.806C91.4219 106.806 93.3336 106.757 95.2453 106.844C95.6122 106.864 96.008 107.366 96.288 107.723C97.6783 109.461 99.03 111.218 100.556 113.178C101.656 111.807 102.815 110.639 103.645 109.268C104.862 107.269 106.426 106.381 108.762 106.757C109.699 106.912 110.674 106.786 111.697 106.786V128.549H105.789V117.513C105.663 117.474 105.537 117.436 105.412 117.388C103.838 119.367 102.274 121.346 100.584 123.48L100.575 123.499Z" fill="#262626"/>
<path d="M26 129.157V106.661C30.0551 106.863 34.0716 106.825 38.0108 107.327C41.9887 107.838 44.47 110.445 44.9624 114.433C45.2617 116.895 45.2038 119.473 44.8176 121.915C44.2576 125.459 41.9404 127.679 38.4067 128.365C36.2439 128.78 34.033 128.983 31.8413 129.128C29.9296 129.253 27.9986 129.157 26 129.157ZM32.4882 112.067V123.634C34.6219 123.837 36.6591 123.779 37.837 121.829C39.3432 119.338 39.2949 116.596 37.9432 114.066C36.8232 111.961 34.7088 111.923 32.4882 112.067Z" fill="#262626"/>
<path d="M135.148 128.616H129.172V106.902H135.129V114.626C136.326 114.626 137.379 114.713 138.402 114.568C138.692 114.529 139.078 113.844 139.088 113.448C139.155 111.285 139.117 109.113 139.117 106.863H144.996V128.539H139.117C139.117 126.704 139.117 124.841 139.117 122.977C139.117 121.484 138.354 120.741 136.828 120.747C136.732 120.747 136.635 120.757 136.539 120.747C135.486 120.593 135.071 120.989 135.119 122.109C135.206 124.223 135.139 126.347 135.139 128.606L135.148 128.616Z" fill="#262626"/>
<path d="M70.2969 106.835H76.2347V114.028C76.3506 114.076 76.4664 114.124 76.5823 114.172C76.8237 113.883 77.1036 113.622 77.3161 113.304C78.5229 111.43 79.6622 109.519 80.9367 107.704C81.2553 107.25 81.9698 106.854 82.5201 106.825C84.3449 106.719 86.189 106.786 88.1972 106.786C87.9752 107.24 87.84 107.578 87.6469 107.887C85.9573 110.706 84.3063 113.555 82.5394 116.326C81.9408 117.262 81.8829 117.928 82.5104 118.913C84.4801 122.012 86.3049 125.198 88.3421 128.616C86.0538 128.616 83.978 128.655 81.8925 128.578C81.5739 128.568 81.1974 128.114 80.985 127.776C79.7877 125.961 78.6388 124.107 77.4705 122.273C77.2195 121.877 76.9395 121.51 76.3409 121.201V128.529H70.2969V106.825V106.835Z" fill="#262626"/>
<path d="M151.864 128.606H145.994C146.197 127.853 146.361 127.158 146.573 126.482C148.456 120.332 150.368 114.191 152.212 108.031C152.473 107.143 152.811 106.747 153.776 106.796C155.369 106.873 156.962 106.767 158.555 106.853C158.951 106.873 159.569 107.249 159.675 107.587C161.819 114.462 163.895 121.355 165.99 128.249C166.019 128.336 165.99 128.442 165.97 128.597H160.226C159.511 126.884 158.188 126.028 156.257 126.028C156.016 126.028 155.775 126.028 155.533 126.028C153.692 126.028 152.469 126.884 151.864 128.597V128.606ZM156.315 114.462C156.122 114.462 155.939 114.442 155.746 114.442C155.215 116.615 154.684 118.797 154.124 121.085H157.918C157.358 118.787 156.837 116.624 156.325 114.462H156.315Z" fill="#262626"/>
<path d="M113.127 106.863H127.793V111.874H119.132V115.099H126.345V120.274C124.587 120.274 122.83 120.274 121.063 120.274C119.699 120.274 119.026 120.947 119.045 122.292C119.045 122.62 119.094 122.958 119.132 123.431H127.764V128.548H113.117V106.863H113.127Z" fill="#262626"/>
<path d="M68.9952 118.014C69.2462 121.799 68.02 125.246 64.467 127.351C60.1319 129.919 55.5941 129.823 51.0948 127.554C50.8342 127.428 50.6024 127.254 50.3611 127.09C46.2191 124.194 45.3887 118.893 46.8177 113.37C47.9184 109.103 51.7514 106.641 56.5403 106.622C57.5058 106.622 58.4713 106.593 59.4368 106.622C64.8629 106.795 68.8793 110.879 68.9855 116.315C68.9855 116.798 68.9855 117.281 68.9855 118.014H68.9952ZM64.3512 117.879C64.3512 116.19 64.3318 114.49 64.3512 112.801C64.3705 111.652 63.8877 111.092 62.7195 111.101C59.3402 111.111 55.961 111.101 52.5721 111.101C51.4135 111.101 50.9307 111.642 50.9404 112.801C50.9693 116.19 50.9597 119.579 50.9404 122.967C50.9404 124.107 51.3748 124.667 52.5624 124.657C55.9416 124.628 59.3209 124.628 62.7098 124.657C63.8877 124.657 64.3705 124.126 64.3415 122.977C64.3125 121.288 64.3415 119.588 64.3415 117.899L64.3512 117.879Z" fill="#262626"/>
</g>
<defs>
<clipPath id="clip0_4880_38711">
<rect width="192" height="192" fill="white"/>
</clipPath>
</defs>
</svg>
