<svg width="192" height="192" viewBox="0 0 192 192" fill="none" xmlns="http://www.w3.org/2000/svg">
<g clip-path="url(#clip0_4880_38126)">
<path d="M96 192C149.019 192 192 149.019 192 96C192 42.9807 149.019 0 96 0C42.9807 0 0 42.9807 0 96C0 149.019 42.9807 192 96 192Z" fill="black"/>
<path d="M114.693 109.89C113.293 108.68 111.723 107.71 110.103 106.84C106.793 105.07 103.283 103.77 99.9432 102.09C98.6432 101.44 97.3732 100.76 96.3132 99.75C95.6232 99.06 95.2532 98.25 95.3832 97.26C95.5232 96.24 95.9032 95.31 96.5032 94.45C97.7732 92.6 99.4132 91.13 101.183 89.82C104.513 87.31 108.163 85.26 111.793 83.22C112.203 82.99 112.653 82.82 113.053 82.51C113.293 82.33 113.183 81.96 112.883 81.94C112.533 81.93 112.193 81.95 111.863 82.01C108.963 82.41 106.133 83.13 103.303 83.85C100.943 84.47 98.6232 85.22 96.2532 85.73C94.4332 86.13 92.5932 86.55 90.7032 86.48C89.3932 86.44 88.4032 85.89 87.6932 84.74C86.5232 82.82 86.7632 80.73 86.9832 78.69C87.2832 76.19 88.2532 73.87 89.4132 71.66C89.6532 71.21 89.9932 70.81 90.1732 70.35C90.2832 70.11 90.0932 69.87 89.8532 69.87C89.8132 69.87 89.7532 69.88 89.7132 69.9C88.9632 70.22 88.2332 70.61 87.5532 71.07C85.5432 72.41 83.8832 74.15 82.0332 75.67C81.2032 76.36 80.3632 77.05 79.4032 77.58C78.4032 78.12 77.3032 78.36 76.3132 77.69C75.2832 77.01 74.5432 76.01 74.2232 74.78C73.5832 72.31 74.1432 69.95 74.9832 67.65C76.1432 64.53 77.7332 61.62 79.3932 58.75C81.3532 55.36 83.3332 52 85.3832 48.66C85.6132 48.29 85.9232 47.93 86.0432 47.49C86.1132 47.26 85.8732 47.08 85.6732 47.21C85.6432 47.22 85.6032 47.25 85.5732 47.28C83.3932 48.71 81.5432 50.5 79.8132 52.42C77.0032 55.53 74.4832 58.89 72.1532 62.38C69.8232 65.87 67.6432 69.46 65.7232 73.2C64.9932 74.61 64.3432 76.07 63.6632 77.51C63.6032 76.51 63.4832 75.55 63.6932 74.57C64.1632 72.51 64.4532 70.45 64.3732 68.31C64.2132 64.47 64.8132 60.71 65.8132 57.01C65.8732 56.77 66.0232 56.52 65.7732 56.29C65.4632 56.28 65.3332 56.53 65.1532 56.71C62.5432 59.39 60.4732 62.47 58.8132 65.81C56.6132 70.17 55.4532 74.84 54.9532 79.68C54.6532 82.52 53.7832 85.2 52.4232 87.72C51.4932 89.43 50.3232 90.97 49.0732 92.45C48.8632 92.72 48.6932 92.96 48.6332 93.31C48.3232 95.58 47.8432 97.82 46.9532 99.96C45.4432 103.58 43.1932 106.51 39.6232 108.27C37.4732 109.33 34.8532 109.41 32.9732 107.69C32.0432 106.83 31.3732 105.8 30.9432 104.6C30.6932 103.92 30.5932 103.17 30.1132 102.54C28.4632 108.13 28.5732 113.68 30.9432 119.01C33.5032 124.73 37.7132 128.95 43.4332 131.74C42.3432 127.81 43.2932 124.35 45.6132 120.95C46.0332 123.48 46.1632 125.96 49.0032 127.09C49.2532 124.39 49.4532 121.85 51.2932 119.72C52.1832 121.16 53.2432 122.18 54.7932 122.45C54.9632 122.48 55.1332 122.38 55.1932 122.22C55.3332 121.88 55.2632 121.56 55.2632 121.25C55.2532 120.26 55.3432 119.3 55.6832 118.35C56.8532 115.07 58.7332 112.26 61.1632 109.79C63.4332 107.46 66.2232 106.82 69.3032 107.6C70.7532 107.97 71.7432 108.96 72.1132 110.5C72.6032 112.59 72.2532 114.62 71.4732 116.57C70.5232 118.97 68.8732 120.88 66.8532 122.47C63.4332 125.17 59.4932 126.71 55.2732 127.61C54.5132 127.78 53.7232 127.85 52.9332 128.12C52.6132 128.23 52.4632 128.61 52.6332 128.91C53.6532 130.63 55.3432 131.54 57.1532 132.51C55.4032 133.22 53.7332 133.51 52.0832 133.89C50.3832 134.27 49.8632 134.2 46.7332 134.33C49.1932 138.69 52.8332 141.27 57.2532 142.81C61.0232 144.14 64.8632 144.34 68.7932 143.5C69.1632 143.43 69.2832 142.96 69.0232 142.71C68.8632 142.57 68.7232 142.47 68.5832 142.36C66.4532 140.59 65.1232 138.46 65.3332 135.55C65.5032 133.22 67.2232 131.47 69.5432 131.43C71.0832 131.39 72.5332 131.78 73.9932 132.15C75.6132 132.56 77.2432 133 78.9132 133.18C79.6432 133.26 80.4132 133.29 81.1732 132.83C80.7632 132.45 80.3832 132.11 80.0032 131.76C78.3632 130.22 77.3032 128.43 77.3932 126.05C77.4632 124.51 77.9832 123.15 78.7332 121.87C80.5132 118.78 83.1132 116.5 86.0832 114.6C89.3032 112.52 92.8032 111.04 96.5032 110.05C99.0332 109.39 101.603 109.02 104.203 108.93C107.533 108.83 110.813 109.33 113.993 110.4C114.433 110.54 114.853 110.87 115.433 110.74C115.273 110.33 114.983 110.12 114.723 109.89H114.693ZM64.8132 94.14C63.0632 95.51 61.2932 96.87 59.4732 98.18C58.3532 98.99 57.1532 99.65 55.8732 100.24C55.7032 99.97 55.8632 99.75 55.9732 99.53C56.6332 98.39 57.1032 97.16 57.6132 95.94C58.2032 94.5 59.2232 93.51 60.7732 93.09C63.5132 92.33 66.2532 91.52 68.9932 90.75C69.1732 90.69 69.3632 90.58 69.7532 90.71C67.9332 91.76 66.3632 92.93 64.8132 94.14Z" fill="white"/>
<path d="M141.063 92.56C142.393 92.4 143.773 92.63 145.033 92.89C151.413 94.2 157.373 96.63 162.233 101.21C162.603 101.56 163.113 101.77 163.973 102.31C163.493 99.76 162.753 97.84 161.673 96.05C158.123 90.17 153.103 85.82 146.983 82.87C143.183 81.04 139.123 79.72 135.193 78.15C133.873 77.62 132.593 77.01 131.453 76.51C130.723 73.14 132.563 71.39 134.763 70.04C137.733 68.21 140.983 67.02 144.473 66.48C146.433 66.18 148.373 65.73 150.323 65.34C149.313 64.64 146.883 64.12 145.843 63.94C129.713 61.11 121.293 64.8 118.173 65.74C116.193 66.34 114.233 66.64 112.313 66.55C108.723 66.39 105.643 63.91 104.763 60.43C104.763 60.39 104.743 60.35 104.733 60.31C104.133 57.87 104.953 55.75 105.383 53.52C105.983 50.37 107.923 47.83 109.533 45C101.043 47.63 82.6527 64.94 80.6827 72.08C86.0227 68.27 91.0527 63.99 98.1627 62.43C95.0727 65.58 92.6627 68.6 91.0727 72.17C90.0827 74.37 89.4127 76.62 90.3727 78.82C90.8627 79.96 91.7927 80.87 92.9227 81.37C93.5327 81.64 93.8927 81.64 94.9227 81.68C98.0327 81.8 101.053 81.21 104.083 80.67C105.883 80.35 107.693 80.15 109.503 79.91C112.263 79.54 115.013 79.04 117.783 78.87C120.813 78.69 123.863 78.83 127.563 78.83C126.673 79.43 126.393 79.68 126.063 79.83C121.903 81.63 117.643 83.21 113.613 85.26C109.933 87.14 106.303 89.21 103.373 92.27C103.353 92.29 103.343 92.3 103.323 92.32C101.223 94.54 101.573 98.1 104.013 99.94C104.313 100.17 104.623 100.38 104.933 100.59C106.873 101.85 108.883 103.02 110.903 104.15C116.253 107.15 119.403 111.54 120.943 117.44C121.093 118.03 121.193 118.8 121.193 120.13C116.193 115.02 110.863 112.97 105.163 112.56C99.5827 112.16 91.9327 114.33 88.4327 117.17C88.9827 117.17 89.4927 117.28 89.9327 117.15C92.9227 116.29 95.9727 115.93 99.0727 116.07C102.153 116.21 105.043 116.79 107.083 119.74C108.433 122.46 107.463 124.71 106.033 127.07C103.923 130.55 100.953 133.17 97.8327 135.58C92.0927 140.01 85.8127 143.64 79.3727 146.97C79.1127 147.11 78.1927 147.49 76.9727 147.99H115.933C117.403 146.53 118.633 145.31 119.853 144.08C125.103 138.75 129.623 132.91 132.713 126.03C134.293 122.51 135.343 118.87 135.983 115.05C137.303 107.2 135.383 100.02 132.003 93.07C131.553 92.14 131.103 91.2 130.503 89.98C132.343 91.48 134.353 94.48 135.253 96.83C137.543 102.84 138.783 109.07 138.183 115.49C137.773 119.86 136.793 124.17 135.083 128.28C133.333 132.49 131.143 136.43 128.283 139.97C126.043 142.74 123.633 145.38 121.363 147.99H137.433C130.163 143.28 136.053 134.19 139.033 131.43C142.013 128.67 146.103 129.11 147.603 130.17C149.103 131.23 151.933 133.37 153.073 140.57C153.203 141.4 153.363 142.59 153.623 143.21C154.673 140.74 155.243 138.33 155.773 135.9C156.313 133.44 156.233 131.02 155.883 128.48C155.363 124.68 154.193 121.16 152.503 117.82C150.413 113.69 147.923 109.78 145.003 106.16C142.883 103.53 140.833 100.85 138.783 98.17C138.783 98.16 138.763 98.15 138.753 98.13C137.153 96.01 138.433 92.89 141.063 92.57V92.56Z" fill="white"/>
</g>
<defs>
<clipPath id="clip0_4880_38126">
<rect width="192" height="192" fill="white"/>
</clipPath>
</defs>
</svg>
