<svg width="192" height="192" viewBox="0 0 192 192" fill="none" xmlns="http://www.w3.org/2000/svg">
<g clip-path="url(#clip0_4882_41476)">
<path d="M96 192C149.019 192 192 149.019 192 96C192 42.9807 149.019 0 96 0C42.9807 0 0 42.9807 0 96C0 149.019 42.9807 192 96 192Z" fill="white"/>
<path d="M34.0098 132.442C34.2174 131.855 34.3392 131.243 34.5934 130.663C35.2164 129.248 36.1652 128.146 37.4936 127.354C38.6895 126.645 39.9677 126.327 41.3605 126.338C44.8945 126.366 48.4285 126.352 51.9624 126.338C52.2954 126.338 52.3777 126.423 52.3921 126.76C52.4458 127.917 52.2023 128.969 51.5148 129.918C50.7128 131.028 49.5993 131.655 48.2924 131.916C46.5881 132.26 44.8515 132.113 43.1329 132.074C41.672 132.041 40.1181 133.28 40.1826 135.056C40.2112 135.801 40.2076 136.546 40.179 137.287C40.1682 137.62 40.2792 137.684 40.5907 137.684C42.3523 137.67 44.1104 137.684 45.872 137.67C46.2157 137.666 46.2981 137.767 46.2945 138.099C46.2766 139.743 46.2766 141.39 46.2945 143.037C46.2945 143.356 46.2157 143.445 45.8935 143.442C44.1318 143.424 42.3738 143.442 40.6122 143.427C40.2828 143.427 40.179 143.499 40.1826 143.846C40.204 145.432 40.1826 147.022 40.2005 148.612C40.204 148.988 40.1288 149.117 39.7207 149.113C37.8194 149.088 35.9146 149.102 34.0098 149.102V132.449V132.442Z" fill="#A5CD39"/>
<path d="M90.9376 97.3677C90.0281 95.7923 89.3693 94.1739 89.0578 92.4338C88.7427 90.6686 88.8287 88.9141 89.3514 87.1812C89.8956 85.373 90.8194 83.794 92.0296 82.3618C93.7411 80.3352 95.7999 78.7455 98.0771 77.4028C100.054 76.2391 102.123 75.3046 104.314 74.6387C105.439 74.2985 106.584 74.0837 107.777 74.0443C109.66 73.987 111.429 74.3737 113.101 75.1936C114.254 75.7558 115.281 76.5292 116.166 77.4601C117.673 79.0498 118.708 80.9189 119.238 83.0421C119.499 84.0912 119.664 85.1761 119.6 86.261C119.51 87.7719 119.216 89.2364 118.554 90.6256C117.892 92.0184 116.993 93.2215 115.858 94.2491C114.913 95.1084 113.824 95.7601 112.746 96.4368C110.537 97.8153 108.138 98.8643 105.986 100.336C105.295 100.805 104.651 101.324 104.415 102.183C104.175 103.054 104.364 103.877 104.669 104.693C105.36 106.559 106.481 108.202 107.376 109.96C108.178 111.536 108.84 113.168 109.245 114.898C109.47 115.854 109.606 116.817 109.671 117.805C109.767 119.266 109.606 120.684 109.134 122.059C108.743 123.201 108.156 124.232 107.376 125.17C106.47 126.262 105.36 127.075 104.125 127.72C102.936 128.343 101.661 128.719 100.333 128.933C99.4019 129.084 98.471 129.145 97.5364 129.087C95.2986 128.948 93.2112 128.389 91.3959 126.957C89.7095 125.629 88.467 123.946 87.3356 122.163C86.0502 120.14 84.976 117.999 83.8088 115.908C82.484 113.541 81.0554 111.235 79.6518 108.915C78.703 107.343 77.7721 105.76 76.9056 104.138C75.9782 102.405 75.101 100.651 74.3598 98.8321C73.6366 97.0669 73.078 95.2552 72.7307 93.3754C72.5302 92.2941 72.4335 91.2057 72.3762 90.1064C72.2545 87.797 72.5875 85.5556 73.2785 83.3643C74.1414 80.6288 75.3874 78.0724 77.056 75.7343C77.6288 74.9323 78.2805 74.1947 78.9429 73.4607C80.9086 71.2802 83.2717 69.5973 85.71 68.0183C87.2855 66.9979 88.9289 66.0884 90.5759 65.1826C92.871 63.9222 95.1447 62.6332 97.4326 61.3622C99.0617 60.4563 100.709 59.5791 102.331 58.6625C103.426 58.043 104.504 57.3842 105.392 56.4712C106.051 55.7945 106.47 54.9889 106.459 54.0436C106.441 52.5684 105.535 51.2795 104.117 50.7102C102.846 50.2017 101.658 50.5132 100.465 51.0038C99.5344 51.3869 98.6822 51.9204 97.7763 52.3464C95.3846 53.4743 93.0644 53.2702 90.8731 51.8702C89.8276 51.2043 89.1151 50.1874 88.5243 49.0954C88.3739 48.8161 88.5279 48.7158 88.7033 48.612C89.5841 48.1036 90.4721 47.613 91.3529 47.1082C92.8138 46.2703 94.2746 45.4361 95.7283 44.5875C96.9994 43.8463 98.2704 43.0873 99.7277 42.7614C100.967 42.4822 102.23 42.296 103.505 42.3962C105.915 42.5896 108.088 43.3988 109.961 44.967C112.191 46.8361 113.563 49.1956 114.132 52.0493C114.272 52.7439 114.35 53.4528 114.35 54.1367C114.343 55.7336 114.06 57.2947 113.402 58.7806C112.632 60.5136 111.486 61.9565 110.079 63.1918C108.765 64.3447 107.315 65.315 105.804 66.1994C102.914 67.8894 99.9032 69.3431 96.9242 70.8648C94.1206 72.297 91.3637 73.808 88.7785 75.6126C87.1243 76.7655 85.6026 78.0831 84.2707 79.5905C82.8134 81.2447 81.682 83.1101 81.0554 85.2513C80.7045 86.4543 80.4682 87.6681 80.4574 88.9249C80.4467 90.2962 80.4682 91.6675 80.8083 93.0066C81.0804 94.088 81.5173 95.1084 81.9684 96.1253C82.638 97.6291 83.3827 99.0935 84.174 100.533C85.1372 102.291 86.1003 104.049 87.1315 105.768C88.2415 107.615 89.3084 109.488 90.4041 111.346C91.2813 112.832 92.18 114.303 93.0465 115.793C93.7375 116.985 94.3319 118.231 95.1375 119.356C95.6853 120.122 96.3083 120.781 97.2214 121.11C98.5354 121.579 100.401 120.945 101.196 119.753C102.127 118.357 102.069 116.971 101.375 115.524C100.54 113.788 99.5021 112.173 98.5068 110.53C97.7298 109.251 97.0388 107.937 96.6449 106.494C96.3227 105.306 96.183 104.081 96.2689 102.849C96.3835 101.21 96.7738 99.6306 97.5257 98.1626C98.2955 96.6588 99.3267 95.3769 100.734 94.3887C102.438 93.1928 104.282 92.244 106.058 91.1734C107.676 90.1995 109.338 89.2829 110.641 87.8722C111.257 87.2062 111.672 86.4364 111.622 85.5019C111.511 83.5434 110.065 82.104 108.063 82.0324C107.34 82.0073 106.685 82.1971 106.044 82.5086C103.724 83.6365 101.557 85.0293 99.3518 86.3577C98.2991 86.9914 97.2607 87.6502 96.3083 88.4129C94.6183 89.7699 93.29 91.4097 92.4664 93.4506C91.9652 94.7002 91.6573 96.0214 91.0235 97.2173C91.0056 97.2495 90.9841 97.2818 90.9376 97.357V97.3677Z" fill="#333F59"/>
<path d="M150.262 134.97C150.262 133.71 150.244 132.543 150.266 131.379C150.294 129.735 151.086 128.472 152.324 127.469C153.427 126.577 154.716 126.255 156.127 126.338C156.406 126.356 156.449 126.449 156.449 126.692C156.438 127.752 156.446 128.808 156.446 129.868C156.446 136.12 156.442 142.371 156.456 148.623C156.456 149.024 156.342 149.11 155.962 149.106C152.099 149.092 148.235 149.138 144.376 149.085C141.368 149.045 138.815 147.137 138.078 144.054C137.956 143.545 137.895 143.026 137.899 142.5C137.909 141.154 137.895 139.811 137.902 138.465C137.916 136.61 138.565 135.002 139.922 133.746C141.074 132.675 142.439 132.02 144.068 132.002C144.959 131.995 145.822 132.048 146.674 132.342C147.505 132.629 148.185 133.137 148.866 133.66C149.349 134.029 149.757 134.48 150.262 134.967V134.97ZM147.183 143.345C148.099 143.345 149.016 143.334 149.929 143.352C150.194 143.356 150.28 143.281 150.266 143.016C150.244 142.615 150.262 142.214 150.258 141.813C150.258 141.702 150.28 141.58 150.165 141.501C149.757 141.215 149.403 140.871 149.03 140.545C148.135 139.768 147.215 139.016 146.316 138.239C145.937 137.913 145.543 137.627 145.027 137.813C144.426 138.028 144.089 138.49 144.082 139.134C144.068 140.438 144.082 141.737 144.071 143.041C144.071 143.291 144.154 143.352 144.39 143.352C145.321 143.341 146.248 143.349 147.179 143.349L147.183 143.345Z" fill="#A5CD39"/>
<path d="M120.044 134.848C120.044 133.839 120.047 132.897 120.044 131.955C120.029 129.334 121.687 127.168 124.176 126.466C124.788 126.295 125.415 126.352 126.041 126.345C126.199 126.345 126.234 126.431 126.227 126.563C126.227 126.649 126.227 126.735 126.227 126.821C126.227 134.086 126.227 141.354 126.238 148.619C126.238 149.02 126.127 149.106 125.744 149.106C121.924 149.092 118.103 149.124 114.286 149.088C111.218 149.059 108.661 147.09 107.945 144.057C107.824 143.549 107.763 143.03 107.766 142.504C107.777 141.104 107.73 139.7 107.777 138.3C107.845 136.191 108.704 134.458 110.441 133.216C112.535 131.719 114.791 131.626 117.115 132.578C117.72 132.825 118.261 133.237 118.755 133.681C119.167 134.05 119.575 134.422 120.047 134.848H120.044ZM117.05 143.345C117.964 143.345 118.88 143.338 119.793 143.349C120.047 143.352 120.151 143.295 120.137 143.019C120.112 142.622 120.13 142.221 120.13 141.82C120.13 141.694 120.108 141.608 119.986 141.508C118.694 140.413 117.423 139.292 116.127 138.196C115.787 137.91 115.403 137.645 114.895 137.802C114.254 138.003 113.975 138.483 113.957 139.141C113.921 140.441 113.953 141.741 113.943 143.041C113.943 143.291 114.029 143.352 114.265 143.349C115.192 143.338 116.123 143.345 117.05 143.345Z" fill="#A5CD39"/>
<path d="M67.7528 143.671C67.7528 145.347 67.7456 147.019 67.76 148.694C67.76 149.002 67.7027 149.11 67.3661 149.106C65.5615 149.088 63.7605 149.088 61.956 149.106C61.6194 149.106 61.5621 148.999 61.5621 148.694C61.5729 145.862 61.5406 143.026 61.58 140.194C61.5979 138.866 60.4092 137.659 59.156 137.763C58.533 137.817 57.9064 137.677 57.287 137.842C56.1806 138.135 55.4896 139.21 55.5504 140.205C55.5934 140.917 55.4824 141.634 55.9622 142.282C56.4671 142.962 57.1259 143.284 57.9351 143.338C58.3468 143.366 58.7657 143.352 59.1811 143.338C59.4066 143.331 59.5141 143.374 59.5105 143.635C59.4997 145.354 59.4997 147.069 59.5105 148.787C59.5105 149.034 59.4317 149.102 59.1918 149.099C58.2609 149.088 57.3264 149.145 56.4026 149.085C54.2113 148.938 52.3531 148.111 50.9459 146.345C49.861 144.985 49.3347 143.463 49.3705 141.73C49.392 140.742 49.3454 139.754 49.3812 138.769C49.4349 137.197 50.0257 135.83 51.0175 134.612C52.0738 133.312 53.4344 132.528 55.042 132.145C55.3678 132.066 55.7044 132.009 56.0446 132.009C57.6629 132.016 59.2778 131.995 60.8961 132.016C62.493 132.038 63.8823 132.643 65.114 133.631C66.4531 134.702 67.2551 136.112 67.6203 137.774C67.6919 138.103 67.7564 138.436 67.7528 138.78C67.7456 140.413 67.7492 142.042 67.7492 143.674L67.7528 143.671Z" fill="#A5CD39"/>
<path d="M104.672 143.628C104.672 145.314 104.665 147.004 104.679 148.691C104.679 148.999 104.622 149.106 104.286 149.102C102.485 149.085 100.68 149.085 98.879 149.102C98.5425 149.102 98.4852 148.995 98.4852 148.691C98.4959 145.816 98.4852 142.94 98.4959 140.065C98.5031 138.848 97.411 137.716 96.1722 137.767C95.5205 137.792 94.8617 137.666 94.2172 137.842C93.1431 138.132 92.4377 139.152 92.4807 140.201C92.5093 140.917 92.4341 141.63 92.8924 142.282C93.3866 142.98 94.0669 143.263 94.8653 143.338C95.2771 143.377 95.696 143.356 96.1077 143.338C96.3333 143.331 96.4371 143.377 96.4371 143.639C96.4264 145.354 96.43 147.072 96.4371 148.787C96.4371 148.988 96.4085 149.099 96.1614 149.099C95.1732 149.088 94.1814 149.16 93.2004 149.081C90.7048 148.88 88.7104 147.774 87.357 145.626C86.6839 144.559 86.3258 143.381 86.3043 142.113C86.2864 141.025 86.2721 139.936 86.3043 138.851C86.358 137.219 86.9596 135.797 88.0086 134.541C88.9646 133.395 90.1713 132.672 91.582 132.256C92.0654 132.113 92.5595 132.006 93.0751 132.009C94.6075 132.016 96.1364 132.009 97.6688 132.013C99.3588 132.02 100.816 132.614 102.112 133.692C103.376 134.741 104.157 136.066 104.526 137.648C104.604 137.992 104.676 138.336 104.676 138.69C104.672 140.334 104.676 141.981 104.676 143.624L104.672 143.628Z" fill="#A5CD39"/>
<path d="M71.0144 144.437C71.0144 143.152 71.0073 141.863 71.0144 140.577C71.0252 138.493 71.6338 136.596 72.9837 135.002C74.287 133.459 75.9412 132.446 77.9606 132.099C79.7723 131.787 81.602 131.916 83.4173 131.955C84.2981 131.973 85.1825 131.98 86.0633 132.009C86.2924 132.016 86.3748 132.059 86.3891 132.313C86.5502 134.827 84.4771 137.301 81.9958 137.695C81.3943 137.792 80.8035 137.756 80.2092 137.763C78.4189 137.795 77.2194 138.973 77.2015 140.771C77.1765 143.402 77.1872 146.034 77.2015 148.666C77.2015 149.027 77.1049 149.113 76.7504 149.11C74.9637 149.092 73.1735 149.095 71.3868 149.11C71.0932 149.11 70.9965 149.042 71.0001 148.734C71.018 147.305 71.0073 145.873 71.0073 144.444L71.0144 144.437Z" fill="#A5CD39"/>
<path d="M129.228 142.289C129.228 140.144 129.235 137.996 129.221 135.851C129.221 135.543 129.278 135.436 129.615 135.439C131.416 135.457 133.22 135.457 135.021 135.439C135.358 135.439 135.415 135.543 135.415 135.851C135.404 138.511 135.44 141.172 135.393 143.832C135.372 145.021 134.946 146.098 134.173 147.04C133.313 148.093 132.225 148.726 130.911 148.97C130.485 149.049 130.044 149.102 129.604 149.102C129.307 149.102 129.221 149.024 129.221 148.719C129.235 146.861 129.228 144.999 129.228 143.141V142.282V142.289Z" fill="#A5CD39"/>
<path d="M135.325 129.456C135.325 130.358 135.318 131.257 135.328 132.159C135.328 132.414 135.296 132.539 134.988 132.535C133.173 132.521 131.354 132.525 129.539 132.532C129.345 132.532 129.234 132.518 129.22 132.267C129.145 130.946 129.335 129.707 130.158 128.618C131.404 126.968 133.048 126.209 135.11 126.345C135.368 126.363 135.321 126.52 135.321 126.671C135.321 127.601 135.321 128.529 135.321 129.46L135.325 129.456Z" fill="#A5CD39"/>
</g>
<defs>
<clipPath id="clip0_4882_41476">
<rect width="192" height="192" fill="white"/>
</clipPath>
</defs>
</svg>
