<svg width="192" height="192" viewBox="0 0 192 192" fill="none" xmlns="http://www.w3.org/2000/svg">
<g clip-path="url(#clip0_4880_40607)">
<path d="M96 192C149.019 192 192 149.019 192 96C192 42.9807 149.019 0 96 0C42.9807 0 0 42.9807 0 96C0 149.019 42.9807 192 96 192Z" fill="white"/>
<path d="M64.4004 134.437C65.2535 131.193 66.0888 127.95 66.9597 124.706C67.4307 122.947 68.0261 121.249 70.3899 121.534C72.7182 121.818 72.9581 123.498 72.9403 125.391C72.9048 129.114 72.9315 132.829 72.9315 136.552C72.9315 137.645 73.0559 139.058 71.6074 139.102C69.9011 139.156 70.0522 137.618 70.0433 136.445C70.0167 133.655 70.0433 130.865 69.368 127.959C68.5948 130.696 67.724 133.406 67.0841 136.17C66.6842 137.876 65.8311 139.103 64.116 139.156C62.3387 139.209 61.4678 137.85 61.0413 136.241C60.3304 133.522 59.6283 130.802 58.3309 128.092C58.3309 130.9 58.3309 133.699 58.3309 136.508C58.3309 137.796 58.1532 139.156 56.5625 139.067C55.2384 138.996 55.0696 137.725 55.0784 136.543C55.1051 132.713 55.0607 128.883 55.1051 125.053C55.1318 123.293 55.6472 121.756 57.7533 121.534C59.815 121.321 60.6325 122.556 61.0768 124.378C61.9122 127.754 62.8808 131.096 63.7961 134.455C64.0005 134.455 64.196 134.437 64.4004 134.437Z" fill="#FF0D3B"/>
<path d="M122.693 132.259C122.693 129.487 122.658 126.723 122.711 123.951C122.738 122.911 122.613 121.542 124.257 121.604C125.848 121.667 125.679 122.973 125.688 124.048C125.706 127.976 125.653 131.904 125.706 135.832C125.732 137.645 124.897 138.871 123.226 139.173C121.405 139.502 120.374 138.205 119.921 136.64C119.05 133.655 118.33 130.624 117.068 127.656C117.068 130.642 117.05 133.628 117.068 136.623C117.077 137.805 116.864 139.075 115.566 139.129C114.011 139.191 113.807 137.831 113.816 136.543C113.825 132.722 113.789 128.9 113.833 125.079C113.851 123.337 114.304 121.773 116.419 121.525C118.463 121.285 119.343 122.449 119.796 124.279C120.454 126.972 121.263 129.629 122.009 132.304C122.24 132.286 122.471 132.259 122.693 132.242V132.259Z" fill="#FF0D3B"/>
<path d="M154.465 133.282C154.465 134.695 154.545 136.108 154.438 137.512C154.367 138.419 153.878 139.281 152.785 139.156C151.976 139.068 151.425 138.428 151.425 137.557C151.408 132.847 151.408 128.137 151.425 123.427C151.425 122.743 151.745 122.165 152.35 121.783C154.154 120.628 159.557 121.73 160.872 123.516C162.622 125.898 162.4 128.813 159.752 130.723C157.833 132.109 159.068 132.847 159.583 134.1C160.232 135.646 163.6 137.095 160.907 138.819C158.801 140.169 158.348 136.908 157.122 135.762C156.349 135.033 155.815 134.064 155.167 133.194C154.936 133.22 154.705 133.247 154.474 133.274L154.465 133.282ZM154.527 126.929C154.465 127.897 154.465 128.91 156.126 128.821C157.619 128.741 158.668 128.315 158.659 126.626C158.65 125.142 157.628 124.538 156.366 124.414C154.66 124.245 154.518 125.48 154.527 126.92V126.929Z" fill="#FF0D3B"/>
<path d="M53.0943 131.842C53.0943 133.584 53.0676 135.335 53.0943 137.077C53.112 138.196 52.7299 139.174 51.5658 139.174C50.3839 139.174 50.0551 138.09 50.0018 137.041C49.9662 136.392 49.9929 135.735 49.9751 135.077C49.9396 133.611 49.9218 132.056 47.9045 132.011C45.8873 131.967 45.7629 133.451 45.7807 134.97C45.7984 135.841 45.7984 136.721 45.7273 137.583C45.6563 138.427 45.1319 139.085 44.3144 139.165C43.2924 139.263 42.6171 138.49 42.6171 137.574C42.6171 133.549 42.0483 129.487 42.8925 125.515C43.4879 122.725 45.4963 121.25 48.4466 121.57C51.3881 121.89 52.8543 123.765 53.0587 126.599C53.1831 128.341 53.0854 130.092 53.0854 131.834L53.0943 131.842ZM47.7535 124.475C46.6071 124.84 45.754 125.4 45.8429 126.724C45.9317 128.181 46.7937 128.883 48.18 128.732C49.4686 128.599 49.9751 127.675 49.8774 126.439C49.7707 125.133 48.8732 124.653 47.7535 124.467V124.475Z" fill="#FF0D3B"/>
<path d="M93.4081 133.06C93.4081 134.713 93.4259 136.188 93.4081 137.654C93.3904 138.525 92.9105 139.156 92.0307 139.156C91.1421 139.156 90.6622 138.499 90.6622 137.646C90.6444 132.838 90.6355 128.03 90.6889 123.232C90.6889 122.761 91.0177 122.147 91.3998 121.845C92.8127 120.717 98.3846 121.685 99.682 123.214C101.495 125.338 101.326 129.159 98.8378 130.741C96.785 132.047 97.9758 132.749 98.589 133.975C99.371 135.522 102.357 137.192 99.9131 138.801C97.8692 140.152 97.416 136.828 96.1363 135.744C95.2654 135.015 95.0699 133.62 93.417 133.051L93.4081 133.06ZM93.4526 126.857C93.3282 128.039 93.5503 128.883 95.1232 128.83C96.6162 128.777 97.7714 128.288 97.8336 126.733C97.8958 125.169 96.6961 124.467 95.2743 124.414C93.6658 124.351 93.3548 125.48 93.4526 126.857Z" fill="#FF0D3B"/>
<path d="M30.6434 124.999C31.6368 121.876 34.6857 120.716 37.565 121.551C38.3025 121.764 38.7202 122.138 38.7469 122.875C38.7913 123.799 38.3114 124.395 37.3872 124.306C33.255 123.924 33.0417 126.501 33.2728 129.522C33.3705 130.829 33.3083 132.144 33.2905 133.459C33.2728 134.641 33.5127 135.672 34.8546 135.974C35.7699 136.178 36.6763 136.027 37.094 135.085C37.5383 134.081 37.8582 132.952 36.9784 132.028C36.2853 131.291 34.8012 130.926 35.8321 129.513C36.7918 128.198 38.2848 128.811 39.5111 128.865C41.3239 128.945 40.3998 130.5 40.5508 131.415C40.693 132.268 40.613 133.157 40.5686 134.037C40.4264 136.978 38.7113 138.818 35.9565 139.164C33.3616 139.484 31.3 138.284 30.6424 135.458C29.9549 131.026 29.976 127.098 30.6434 124.999Z" fill="#FF0D3B"/>
<path d="M140.479 130.091C140.55 128.678 140.496 127.239 140.701 125.844C141.216 122.44 145.082 120.325 148.237 121.631C148.903 121.907 149.41 122.405 149.267 123.089C149.179 123.524 148.672 124.075 148.246 124.2C147.419 124.431 146.495 124.289 145.651 124.475C144.176 124.804 143.518 125.755 143.491 127.31C143.465 129.105 144.682 128.794 145.731 128.803C146.904 128.812 148.086 128.91 148.032 130.42C147.988 131.727 146.841 131.824 145.837 131.869C144.611 131.922 143.331 131.735 143.5 133.646C143.66 135.423 144.593 136.134 146.308 136.09C147.641 136.054 149.383 136.037 149.223 137.796C149.054 139.689 147.152 139.396 145.766 139.298C142.647 139.067 140.816 137.201 140.576 134.037C140.479 132.731 140.559 131.416 140.559 130.109C140.523 130.109 140.496 130.109 140.461 130.109L140.479 130.091Z" fill="#FF0D3B"/>
<path d="M75.0365 130.029C75.0365 128.297 74.7876 126.546 75.4452 124.857C76.5116 122.094 80.0929 120.494 82.8033 121.596C83.5053 121.88 83.8696 122.414 83.7986 123.08C83.7275 123.756 83.2831 124.244 82.51 124.324C81.5414 124.422 80.5372 124.44 79.613 124.724C78.1823 125.169 78.1467 126.413 78.1734 127.675C78.2089 129.105 79.2487 128.768 80.0573 128.785C81.1593 128.821 82.5189 128.696 82.6255 130.127C82.7499 131.798 81.2659 131.833 80.0573 131.869C79.0087 131.904 78.1023 131.878 78.1556 133.371C78.2089 134.686 78.4311 135.788 79.9596 136.019C80.5994 136.117 81.2659 136.072 81.9235 136.081C82.9455 136.099 83.7097 136.65 83.763 137.592C83.8341 138.747 82.981 139.191 81.8613 139.351C78.4578 139.822 75.4986 137.716 75.0631 134.286C74.8854 132.891 75.0365 131.46 75.0365 130.038V130.029Z" fill="#FF0D3B"/>
<path d="M108.823 121.525C109.88 121.693 111.675 121.009 111.711 123.026C111.738 124.582 110.245 124.306 109.196 124.351C107.294 124.422 106.041 125.15 105.979 127.239C105.917 129.549 107.685 128.66 108.796 128.794C109.809 128.918 110.485 129.291 110.502 130.367C110.52 131.54 109.614 131.709 108.716 131.86C107.561 132.046 105.828 131.353 105.988 133.592C106.13 135.512 107.25 136.196 109.089 136.098C110.325 136.036 111.809 136.107 111.72 137.751C111.613 139.582 109.951 139.36 108.663 139.315C105.224 139.209 103.233 137.218 103.144 133.779C103.082 131.486 103.082 129.194 103.144 126.91C103.242 123.373 105.144 121.569 108.823 121.542V121.525Z" fill="#FF0D3B"/>
<path d="M133.544 121.542C134.743 121.542 135.952 121.542 137.151 121.542C137.996 121.542 138.689 121.871 138.804 122.778C138.955 123.906 138.2 124.457 137.231 124.395C134.983 124.244 134.832 125.506 134.885 127.256C134.983 130.527 134.894 133.797 134.921 137.067C134.921 138.169 134.628 139.164 133.428 139.182C132.202 139.2 131.873 138.107 131.864 137.085C131.82 133.708 131.837 130.331 131.828 126.945C131.828 125.719 131.944 124.457 130.104 124.475C128.958 124.475 127.714 124.253 127.936 122.742C128.158 121.258 129.518 121.551 130.575 121.533C131.562 121.516 132.548 121.533 133.526 121.533C133.526 121.533 133.526 121.542 133.526 121.551L133.544 121.542Z" fill="#FF0D3B"/>
<path d="M83.6837 78.1225C82.9817 79.4111 82.2797 80.7085 81.5154 82.0948C82.0664 82.0237 82.4752 81.9704 82.8839 81.9171C83.0883 81.8904 83.3016 81.8637 83.506 81.8637C84.1103 81.8637 84.5457 82.2459 84.5902 82.8235C84.6346 83.3833 84.2436 83.8988 83.666 83.9521C82.253 84.0943 80.8756 84.3786 79.5248 84.823C79.2227 84.9207 78.9206 84.8941 78.6895 84.6452C78.4496 84.3786 78.4496 84.0765 78.574 83.7655C79.5248 81.2861 80.6801 78.9134 82.1464 76.6918C82.6618 75.9098 83.1505 75.7498 84.057 76.0164C85.15 76.3363 86.2342 76.7007 87.345 76.9228C88.2514 77.1095 89.1934 77.1628 90.1176 77.1894C92.3481 77.2517 94.5786 77.2605 96.8091 77.2872C96.978 77.2872 97.1557 77.2872 97.3156 77.2517C97.9022 77.1539 98.2487 76.7185 98.2043 76.1497C98.1688 75.6343 97.7333 75.2255 97.1735 75.2166C95.6539 75.19 94.1254 75.19 92.6058 75.1544C91.1751 75.1189 89.7443 75.1278 88.3225 74.9767C87.3094 74.8612 86.3141 74.5146 85.3188 74.2569C84.6435 74.0881 83.9859 73.8837 83.3105 73.7326C82.5551 73.5637 81.9064 73.8215 81.3821 74.3635C81.0355 74.719 80.7423 75.1278 80.4402 75.5277C80.0314 76.0697 79.3915 76.2208 78.8939 75.8742C78.4051 75.5277 78.3074 74.8878 78.6806 74.3369C79.4893 73.1461 80.4046 72.0975 81.8798 71.6976C82.8395 71.4399 83.7548 71.6176 84.6701 71.8664C85.7276 72.1508 86.7674 72.524 87.8337 72.7728C88.4913 72.9239 89.1845 72.9595 89.8599 72.995C90.4108 73.0217 90.8285 72.6307 90.8818 72.1152C90.9351 71.5198 90.6152 70.9955 90.0465 70.9867C88.2336 70.9689 86.6074 70.2313 84.9012 69.787C81.8887 68.9961 79.4715 69.9203 77.6054 72.3285C76.0147 74.3813 74.8239 76.6829 73.7753 79.0378C72.1135 82.7702 70.8783 86.6447 70.1851 90.6792C69.963 91.9677 69.8563 93.274 69.6875 94.5804C69.6075 95.2202 69.1187 95.6201 68.5322 95.5579C67.9546 95.4957 67.5369 94.9447 67.5903 94.3138C67.9279 90.1904 68.8433 86.1915 70.2118 82.2903C71.527 78.5224 73.2154 74.9412 75.4637 71.6443C75.8192 71.12 75.7481 70.5512 75.286 70.2135C74.8239 69.8758 74.2107 69.9825 73.8375 70.5157C72.6289 72.2219 71.5981 74.0347 70.7094 75.9187C70.0074 77.4205 69.3853 78.9667 68.7366 80.5041C68.5411 80.9751 68.239 81.2772 67.7236 81.3128C66.8527 81.375 66.275 80.5663 66.6216 79.7043C67.1992 78.2469 67.7858 76.7807 68.4522 75.3588C69.5986 72.9239 70.896 70.569 72.5489 68.4273C74.7084 65.6281 77.4987 63.8774 81 63.2732C82.9461 62.9355 84.839 63.1843 86.7229 63.6642C87.0428 63.7441 87.3716 63.7975 87.6649 63.9308C89.5577 64.7928 91.575 64.5439 93.5478 64.6417C93.8055 64.6506 93.8588 64.5262 93.8588 64.3129C93.8588 63.8952 93.8588 63.4687 93.8588 63.051C93.8588 62.3667 94.1076 62.1268 94.7741 62.109C94.9074 62.109 95.0318 62.1001 95.2007 62.0913C95.2095 61.9224 95.2273 61.7713 95.2273 61.6203C95.2273 59.0965 95.2273 56.5816 95.2273 54.0578C95.2273 53.8801 95.2362 53.6846 95.2895 53.5158C95.3962 53.1514 95.6716 52.9915 96.036 53.0004C96.4003 53.0004 96.6758 53.1692 96.7647 53.5335C96.8091 53.7113 96.818 53.8979 96.818 54.0756C96.818 56.6083 96.818 59.1409 96.818 61.6736C96.818 62.0202 96.9069 62.1268 97.2534 62.1179C97.9555 62.109 98.1954 62.3578 98.1954 63.0688C98.1954 63.4864 98.1954 63.913 98.1954 64.3307C98.1954 64.5706 98.2843 64.6595 98.5153 64.6506C99.7505 64.615 100.986 64.615 102.212 64.5617C102.559 64.5439 102.905 64.4195 103.234 64.304C104.86 63.7353 106.513 63.2643 108.237 63.1665C112.227 62.9355 115.613 64.3218 118.394 67.1655C119.71 68.5073 120.705 70.0802 121.647 71.6887C123.122 74.2036 124.366 76.834 125.37 79.571C125.459 79.811 125.504 80.0865 125.486 80.3353C125.441 80.9929 124.855 81.375 124.224 81.1973C123.664 81.0462 123.371 80.6552 123.149 80.1398C122.349 78.3091 121.514 76.4785 120.687 74.6568C120.527 74.3013 120.287 74.0436 119.879 73.9903C119.479 73.937 119.15 74.0614 118.919 74.3991C118.67 74.7634 118.705 75.1367 118.892 75.5188C119.452 76.674 120.047 77.8204 120.545 78.9934C122.171 82.8413 123.398 86.8135 124.046 90.9547C124.215 92.0299 124.313 93.1141 124.428 94.1982C124.482 94.7492 124.082 95.2468 123.549 95.3357C122.98 95.4246 122.447 95.0869 122.358 94.5093C122.225 93.6917 122.171 92.8653 122.047 92.0566C121.878 90.9547 121.691 89.8616 121.478 88.7686C121.354 88.1376 120.794 87.7644 120.243 87.8977C119.647 88.0399 119.354 88.582 119.461 89.2307C119.701 90.6792 119.923 92.1277 120.136 93.5762C120.207 94.0916 120.03 94.4115 119.647 94.5892C119.265 94.767 118.874 94.6603 118.519 94.3049C117.595 93.3896 116.697 92.4565 115.737 91.5856C113.631 89.675 111.152 88.5286 108.317 88.1909C107.624 88.111 107.242 87.6311 107.322 86.9824C107.393 86.4048 107.971 86.0138 108.637 86.1026C111.481 86.4492 114.022 87.5067 116.271 89.2751C116.315 89.3106 116.351 89.364 116.395 89.364C116.599 89.3906 116.866 89.4973 116.999 89.4084C117.133 89.3195 117.221 89.0174 117.177 88.8485C116.839 87.5867 116.484 86.3248 116.093 85.0807C115.213 82.2992 114.031 79.6421 112.565 77.1184C112.316 76.6918 112.272 76.2741 112.565 75.8654C112.84 75.4832 113.231 75.3766 113.685 75.4655C114.067 75.5454 114.271 75.8298 114.449 76.1408C115.906 78.6735 117.088 81.3217 118.003 84.0943C118.119 84.4586 118.235 84.823 118.359 85.1784C118.572 85.7649 119.114 86.0404 119.674 85.8538C120.198 85.6761 120.492 85.1251 120.314 84.5475C119.017 80.3708 117.257 76.4074 114.76 72.7995C113.667 71.2177 112.254 70.0713 110.317 69.6537C109.01 69.3693 107.766 69.6448 106.522 69.9825C105.58 70.2402 104.647 70.5601 103.696 70.8178C103.403 70.8978 103.074 70.9067 102.772 70.8622C102.319 70.8 101.999 70.3735 101.972 69.9203C101.946 69.4582 102.212 68.9872 102.648 68.8717C104.416 68.4007 106.176 67.8586 107.971 67.5298C110.379 67.0855 112.565 67.7964 114.422 69.3427C115.258 70.0358 115.897 70.9689 116.653 71.7598C116.866 71.9819 117.141 72.2041 117.435 72.293C117.808 72.4085 118.155 72.213 118.368 71.8664C118.608 71.4843 118.59 71.0844 118.332 70.7201C117.186 69.0405 115.808 67.6009 113.978 66.65C112.218 65.7347 110.343 65.2815 108.362 65.4415C106.842 65.5659 105.385 66.0013 103.936 66.4634C103.261 66.6767 102.532 66.8367 101.83 66.8455C97.9644 66.8811 94.0898 66.8811 90.2242 66.8455C89.5044 66.8455 88.7668 66.6767 88.0737 66.4634C86.1897 65.8769 84.3058 65.3082 82.3063 65.4415C80.4402 65.557 78.7162 66.1613 77.1521 67.1921C76.6545 67.5209 76.5479 68.0985 76.8589 68.5695C77.161 69.0316 77.7298 69.156 78.2452 68.8361C79.1605 68.2585 80.138 67.8408 81.2044 67.592C82.7773 67.2277 84.3058 67.4587 85.8254 67.8764C86.7318 68.1252 87.6116 68.534 88.5358 68.6673C89.7443 68.8539 90.9884 68.8806 92.2148 68.8983C94.4186 68.9339 96.6225 68.9161 98.8264 68.925C99.3862 68.925 99.8216 69.2804 99.8927 69.7781C99.9816 70.3291 99.6706 70.8267 99.1196 70.9867C98.9863 71.0222 98.8352 71.0311 98.6931 71.0311C97.2534 71.0311 95.8049 71.04 94.3653 71.0489C93.7788 71.0489 93.3611 71.3066 93.219 71.7598C92.9968 72.4352 93.4767 73.1105 94.2231 73.1105C96.6492 73.1105 99.0752 73.0572 101.501 73.0661C103.243 73.0661 104.905 72.7284 106.531 72.1419C107.437 71.8131 108.379 71.5465 109.375 71.6087C110.148 71.6531 110.868 71.902 111.481 72.3818C111.827 72.6484 111.987 73.0128 111.872 73.4571C111.756 73.9014 111.436 74.1591 111.01 74.2213C110.779 74.2569 110.503 74.1947 110.299 74.088C109.677 73.7415 109.046 73.6526 108.37 73.8392C107.82 73.9992 107.251 74.1147 106.709 74.3191C105.029 74.9412 103.287 75.19 101.501 75.1989C100.781 75.1989 100.346 75.581 100.319 76.1853C100.293 76.7895 100.755 77.2161 101.475 77.2694C102.177 77.3139 102.576 77.7137 102.559 78.3447C102.541 78.949 102.079 79.3755 101.403 79.3755C97.5111 79.3755 93.61 79.3933 89.7177 79.3578C87.7804 79.34 85.8876 78.9756 84.057 78.318C83.9503 78.2825 83.8348 78.2469 83.6393 78.1847L83.6837 78.1225ZM96.036 64.6417C96.4181 64.6417 96.6492 64.4462 96.6403 64.1352C96.6314 63.8419 96.4003 63.6553 96.0449 63.6553C95.6716 63.6553 95.4317 63.8597 95.4406 64.1707C95.4495 64.464 95.6716 64.6417 96.036 64.6417Z" fill="#FF0D3B"/>
<path d="M110.45 82.0766C110.405 81.9433 110.379 81.8455 110.334 81.7567C109.73 80.637 109.117 79.5262 108.521 78.4065C108.397 78.1754 108.264 78.1487 108.024 78.2287C107.393 78.442 106.753 78.6375 106.104 78.8064C105.438 78.9841 104.833 78.6642 104.682 78.0954C104.522 77.4556 104.887 76.9491 105.606 76.7447C106.504 76.4959 107.384 76.1937 108.272 75.936C109.019 75.7227 109.33 75.8294 109.774 76.487C111.321 78.7708 112.511 81.2235 113.498 83.7917C113.613 84.0938 113.604 84.3871 113.373 84.6359C113.116 84.9203 112.796 84.8847 112.458 84.8047C111.507 84.5737 110.565 84.2716 109.597 84.1383C108.468 83.9783 107.33 83.9072 106.193 83.8894C103.58 83.8539 100.968 83.8894 98.3551 83.8894C98.1951 83.8894 98.0352 83.8894 97.8841 83.9161C97.422 84.0227 97.0843 84.4582 97.0843 84.9114C97.0843 85.3735 97.4131 85.7911 97.8841 85.8978C98.0441 85.9333 98.2218 85.9422 98.3906 85.9422C100.319 85.9422 102.247 85.9422 104.176 85.9511C104.736 85.9511 105.136 86.3155 105.207 86.8398C105.278 87.3907 104.976 87.8706 104.451 88.0128C104.3 88.0572 104.14 88.0572 103.98 88.0572C98.0707 88.0572 92.1701 88.0572 86.2606 88.0572C85.2653 88.0572 84.27 88.1372 83.2747 88.2172C82.5638 88.2705 82.155 88.8037 82.2616 89.4435C82.3505 90.0211 82.9014 90.3499 83.5768 90.2611C84.0834 90.19 84.5899 90.1278 85.1053 90.1278C92.3656 90.1278 99.617 90.11 106.877 90.1278C109.543 90.1278 111.907 91.0164 113.969 92.7226C115.844 94.2778 117.443 96.1084 119.052 97.9212C119.585 98.5166 120.1 99.1387 120.696 99.663C121.638 100.498 122.313 100.241 122.553 99.0054C122.598 98.801 122.589 98.5877 122.615 98.3833C122.704 97.7346 123.184 97.317 123.797 97.3703C124.384 97.4236 124.81 97.9124 124.713 98.5611C124.615 99.2364 124.517 99.9563 124.233 100.569C123.486 102.205 121.744 102.738 120.171 101.876C119.15 101.316 118.403 100.454 117.657 99.583C116.137 97.8057 114.582 96.064 112.813 94.5266C111.036 92.9803 108.957 92.2339 106.611 92.225C102.15 92.225 97.6886 92.225 93.2276 92.225C92.5878 92.225 92.1612 92.5538 92.0812 93.0781C92.0012 93.5757 92.2856 94.0378 92.7655 94.1711C92.9343 94.2245 93.1298 94.2156 93.3076 94.2156C97.7419 94.2156 102.176 94.2156 106.611 94.2156C108.495 94.2156 110.174 94.7932 111.56 96.0906C112.351 96.8371 113.116 97.6191 113.844 98.4189C115.319 100.045 116.892 101.565 118.59 102.951C119.389 103.6 120.243 104.16 121.273 104.382C122.189 104.577 123.015 104.417 123.762 103.84C124.988 102.889 125.637 101.565 126.028 100.107C126.49 98.3922 126.579 96.6416 126.481 94.8821C126.294 91.4074 125.619 88.0306 124.677 84.6892C124.544 84.2093 124.588 83.7473 124.997 83.3918C125.343 83.0896 125.743 83.0274 126.17 83.2052C126.579 83.374 126.783 83.7206 126.881 84.1383C127.325 86.0666 127.832 87.9772 128.196 89.9145C128.623 92.145 128.845 94.4022 128.774 96.686C128.711 98.6766 128.427 100.623 127.592 102.462C127.165 103.413 126.605 104.284 125.859 105.022C124.153 106.728 122.162 107.145 119.896 106.346C118.741 105.937 117.754 105.235 116.83 104.462C115.088 102.995 113.462 101.423 111.951 99.7163C111.445 99.1476 110.903 98.6144 110.37 98.0634C109.259 96.926 107.899 96.4372 106.326 96.4639C104.585 96.4905 102.834 96.4727 101.092 96.4727C96.0268 96.4727 90.9615 96.4994 85.8962 96.455C84.0922 96.4372 82.5815 96.9882 81.3552 98.3034C80.2088 99.5297 79.098 100.792 77.8806 101.956C76.6542 103.129 75.3568 104.248 74.0238 105.306C73.0108 106.115 71.8111 106.594 70.487 106.71C68.8163 106.861 67.4211 106.275 66.2392 105.137C64.7818 103.724 64.0176 101.956 63.5999 100.001C63.129 97.7879 63.1378 95.5485 63.3422 93.3091C63.6266 90.2078 64.2575 87.1774 65.0929 84.1827C65.2262 83.7117 65.4572 83.3296 65.9549 83.1963C66.8524 82.9475 67.5722 83.7206 67.3234 84.6715C67.1457 85.3557 66.959 86.04 66.7813 86.7242C66.0793 89.4879 65.6083 92.2872 65.4928 95.1398C65.4039 97.3436 65.5283 99.5297 66.4969 101.565C66.8346 102.276 67.3145 102.942 67.8566 103.52C68.7897 104.524 69.9627 104.702 71.2512 104.24C72.2199 103.893 73.0552 103.315 73.7928 102.622C75.2857 101.227 76.7342 99.7785 78.1916 98.3478C79.0092 97.548 79.7734 96.6949 80.6176 95.9307C81.915 94.7576 83.4968 94.2422 85.2297 94.2156C86.3583 94.1978 87.4869 94.2156 88.6155 94.2156C89.2997 94.2156 89.7441 93.8157 89.7441 93.2292C89.7441 92.6249 89.3086 92.2161 88.6333 92.225C87.2292 92.2339 85.8251 92.225 84.421 92.2872C82.6349 92.3672 81.0175 92.9892 79.6668 94.1445C78.4671 95.1575 77.3563 96.2772 76.2632 97.4058C75.4279 98.2589 74.6814 99.192 73.8905 100.09C73.2773 100.783 72.6286 101.431 71.8111 101.876C70.2471 102.72 68.5231 102.205 67.7766 100.587C67.51 100.01 67.3945 99.3431 67.3056 98.7033C67.2256 98.099 67.67 97.6369 68.2298 97.6013C68.8519 97.5569 69.314 97.9479 69.4028 98.57C69.4562 98.9076 69.5006 99.2453 69.625 99.5564C69.856 100.143 70.3359 100.329 70.8513 99.974C71.3312 99.6452 71.7755 99.2453 72.1754 98.8188C73.7306 97.1659 75.2057 95.4419 76.8142 93.8334C77.6762 92.9715 78.7248 92.2872 79.7201 91.5585C80.2533 91.1675 80.4665 90.6165 80.1822 90.11C79.8889 89.5857 79.2669 89.4435 78.6804 89.7723C77.3207 90.5365 76.1566 91.5585 75.0458 92.6338C74.5126 93.1581 74.006 93.709 73.4817 94.2422C73.1263 94.6066 72.7353 94.7043 72.3532 94.5266C71.971 94.3489 71.8111 94.0289 71.8555 93.5135C72.1932 89.7368 73.1885 86.1199 74.5126 82.592C75.0547 81.1346 75.7389 79.7305 76.361 78.2998C76.512 77.9621 76.7342 77.6955 77.1074 77.5978C77.5162 77.4911 77.8983 77.5711 78.1827 77.9088C78.4848 78.2643 78.5293 78.6553 78.3338 79.0818C77.9339 79.9349 77.5162 80.7792 77.1519 81.65C76.201 83.9339 75.4279 86.2888 74.8236 88.6882C74.7525 88.9547 74.7436 89.1858 74.9836 89.3546C75.2324 89.5235 75.4546 89.408 75.6589 89.248C77.7384 87.604 80.0667 86.511 82.6971 86.1466C83.8256 85.9867 84.972 85.9422 86.1095 85.9333C88.6155 85.9067 91.1215 85.9333 93.6275 85.9333C93.7608 85.9333 93.8941 85.9333 94.0185 85.9067C94.5783 85.8 94.9605 85.3379 94.9249 84.8314C94.8894 84.2716 94.445 83.8628 93.8408 83.8628C91.8502 83.8628 89.8507 83.8628 87.8601 83.8628C87.2558 83.8628 86.7937 83.5517 86.6782 83.0808C86.5094 82.3876 86.9626 81.7744 87.6824 81.7567C88.6688 81.7389 89.6463 81.7478 90.6327 81.7389C95.778 81.7389 100.923 81.7122 106.069 81.7389C107.455 81.7478 108.832 81.9433 110.219 82.0499C110.272 82.0499 110.316 82.0499 110.405 82.0499L110.45 82.0766Z" fill="#FF0D3B"/>
</g>
<defs>
<clipPath id="clip0_4880_40607">
<rect width="192" height="192" fill="white"/>
</clipPath>
</defs>
</svg>
