<svg width="192" height="192" viewBox="0 0 192 192" fill="none" xmlns="http://www.w3.org/2000/svg">
<g clip-path="url(#clip0_4881_40655)">
<path d="M96 192C149.019 192 192 149.019 192 96C192 42.9807 149.019 0 96 0C42.9807 0 0 42.9807 0 96C0 149.019 42.9807 192 96 192Z" fill="white"/>
<path d="M150.857 80.0096C152.46 80.029 154.072 80.0386 155.685 80.0386C155.675 81.4482 155.685 82.8577 155.685 84.2673C154.082 84.2673 152.479 84.2673 150.877 84.2673C150.877 82.8481 150.877 81.4192 150.867 80L150.857 80.0096Z" fill="#F44336"/>
<path d="M156.836 80.0386C158.477 80.0386 160.109 80.0386 161.75 80.0386C161.74 81.4578 161.74 82.8674 161.75 84.2866C160.109 84.2866 158.468 84.2866 156.836 84.2866C156.836 82.8771 156.846 81.4578 156.836 80.0579V80.0386Z" fill="#F44336"/>
<path d="M109.992 111.483C110.05 102.765 109.963 94.0471 110.04 85.3291C111.604 85.3291 113.178 85.3291 114.752 85.3194C114.762 89.9246 114.752 94.5395 114.752 99.1447H116.248C116.248 96.0842 116.239 93.0237 116.248 89.9632C117.783 89.9632 119.318 89.9246 120.854 89.9053C121.278 92.8982 120.979 95.9201 121.095 98.9323C121.452 99.0288 122.157 99.2315 122.514 99.3377C122.572 94.665 122.514 89.9922 122.543 85.3194C130.238 85.3677 137.932 85.3291 145.627 85.3484C145.646 89.9536 145.598 94.5491 145.646 99.1543C145.984 99.164 146.66 99.1833 146.998 99.2026C147.056 94.5781 146.998 89.9536 147.027 85.3291C153.331 85.387 159.626 85.3773 165.93 85.3291C165.969 90.9673 165.853 96.6055 165.998 102.244C165.361 102.871 164.83 103.866 163.797 103.779C157.743 103.914 151.68 103.721 145.637 103.866C145.608 103.441 145.54 102.611 145.501 102.186C144.439 102.852 143.455 103.914 142.093 103.798C137.179 103.856 132.275 103.798 127.351 103.808C127.158 105.401 127.843 107.486 126.318 108.596C125.266 109.398 123.827 109.234 122.601 109.456C122.553 107.814 122.533 106.173 122.514 104.532C122.031 103.924 121.549 103.306 121.066 102.688C119.338 104.329 116.847 103.673 114.713 104.078C114.684 105.98 115.032 107.959 114.501 109.813C113.661 111.522 111.624 111.483 109.992 111.493V111.483ZM127.351 89.9053C127.361 92.9658 127.37 96.0262 127.351 99.0867C131.715 99.0385 136.088 99.2219 140.452 98.9516C141.002 95.9587 141.022 92.8789 140.645 89.857C136.214 89.9536 131.782 89.886 127.351 89.8956V89.9053ZM152.067 89.9343C152.038 92.9851 152.047 96.0456 152.047 99.106C154.982 99.0674 157.936 99.1543 160.871 98.9902C160.92 95.978 160.9 92.9561 160.9 89.9343C157.956 89.9439 155.011 89.9439 152.067 89.9343Z" fill="#F44336"/>
<path d="M47.6465 85.7059C50.0601 85.8411 52.4737 85.8218 54.8874 85.7059C54.8584 86.6328 54.8391 87.5596 54.8101 88.4864C52.4351 88.4189 50.0601 88.3706 47.6948 88.3802C47.6754 87.492 47.6658 86.6038 47.6465 85.7059Z" fill="#777777"/>
<path d="M36.2917 103.518C36.4462 97.6289 36.311 91.7396 36.34 85.8407C37.6047 85.8407 38.8598 85.8504 40.1245 85.86C39.0722 91.1507 39.6804 96.5669 39.5356 101.906C39.4873 103.557 39.5356 105.661 37.9523 106.656C33.9939 107.061 29.9873 106.694 26 106.83C26.0097 102.697 26.0097 98.5847 26 94.4525H29.7749C29.7459 95.0028 29.688 96.0938 29.6591 96.6441C28.2881 98.8743 29.2053 101.674 29.0026 104.155C31.2714 104.117 33.5498 104.261 35.8186 104.088C35.9345 103.943 36.1565 103.663 36.282 103.518H36.2917Z" fill="#777777"/>
<path d="M41.5251 85.8407C42.6739 85.8504 43.8325 85.86 44.9814 85.8697C44.1028 90.1756 44.4504 94.5684 44.4021 98.9129C46.7964 99.0481 49.1907 99.0094 51.5851 99.0094C51.6333 95.7848 51.5561 92.5602 51.6623 89.3356C52.7146 89.297 53.767 89.2777 54.829 89.2584C54.8386 92.5216 54.829 95.7655 54.829 99.0191C57.0109 99.0191 59.1831 99.0191 61.3651 98.9129C61.4133 95.698 61.3747 92.4733 61.4037 89.2487C62.4753 89.2487 63.5277 89.3839 64.5414 89.6929C64.7828 92.7244 64.5414 95.7848 64.7345 98.826C69.5231 98.7777 74.3214 98.7971 79.1004 98.826C79.1004 96.6441 79.1004 94.4718 79.1294 92.2996C75.7117 92.3092 72.294 92.3092 68.8859 92.2996C68.799 93.5933 68.9632 94.9352 68.5577 96.1807C68.0267 97.3875 66.5592 97.1268 65.5165 97.4358C65.5165 94.8097 65.5358 92.1741 65.5165 89.548C70.9906 89.1232 76.4937 89.4515 81.9774 89.3549C81.9774 92.5602 81.9774 95.7752 81.9871 98.9805C84.3331 99.0288 86.6695 99.0384 89.0156 98.9515C89.2376 95.7559 89.1121 92.5506 89.1411 89.3549C90.0872 89.3549 91.0237 89.3549 91.9699 89.3453C92.3657 92.2127 92.2885 95.0994 92.2885 97.9861C92.3464 99.2991 91.9699 100.689 90.9368 101.558C88.3301 101.819 85.6655 101.8 83.0491 101.587C82.8174 101.433 82.3443 101.114 82.1029 100.96C81.263 101.249 80.4424 101.684 79.5349 101.693C75.3545 101.771 71.174 101.684 66.9936 101.713C66.0668 101.809 65.1979 101.51 64.3869 101.095C62.0795 102.07 59.5404 101.626 57.1171 101.713C56.1999 101.809 55.36 101.491 54.5683 101.066C52.927 101.944 51.0444 101.684 49.2583 101.703C46.6709 101.674 44.0835 101.693 41.4961 101.713C41.5251 96.422 41.5154 91.1314 41.4961 85.8407H41.5251Z" fill="#777777"/>
<path d="M93.1748 89.7902C97.3552 89.7902 101.536 89.7902 105.716 89.7902C105.639 93.4879 105.745 97.1856 105.581 100.893C101.69 102.563 97.278 101.318 93.1652 101.694C93.1555 100.719 93.1459 99.7537 93.1362 98.7882C96.216 98.8172 99.2958 98.7593 102.376 98.8751C102.82 96.7125 102.733 94.5016 102.694 92.31C100.638 92.31 98.5717 92.31 96.5056 92.2907C96.467 93.8355 96.3994 95.3609 96.187 96.8959C95.1733 97.1276 94.1499 97.3594 93.1362 97.5911C93.1072 94.994 93.1072 92.3969 93.1652 89.7999L93.1748 89.7902Z" fill="#777777"/>
<path d="M56.9138 103.103C57.9758 103.084 59.0571 103.074 60.1191 103.055C60.1384 103.943 60.1578 104.841 60.1578 105.729C59.0668 105.739 57.9758 105.748 56.8945 105.748C56.8945 104.87 56.9042 103.991 56.9138 103.113V103.103Z" fill="#777777"/>
<path d="M61.2985 103.075H64.1852C64.1852 103.963 64.1852 104.851 64.1948 105.739C63.2101 105.739 62.235 105.749 61.2695 105.759C61.2695 104.861 61.2888 103.972 61.2985 103.075Z" fill="#777777"/>
<path d="M72.4493 102.505C73.3665 102.485 74.2933 102.476 75.2105 102.485C75.2394 103.48 75.2684 104.474 75.2877 105.478C74.2836 105.478 73.2892 105.459 72.2852 105.449C72.3334 104.465 72.3817 103.489 72.4396 102.505H72.4493Z" fill="#777777"/>
<path d="M84.9706 103.075C85.9167 103.075 86.8532 103.075 87.7994 103.075C87.7994 103.963 87.8187 104.851 87.8283 105.739C86.8725 105.739 85.9167 105.749 84.9609 105.759C84.9609 104.861 84.9609 103.963 84.9803 103.065L84.9706 103.075Z" fill="#777777"/>
<path d="M89.1191 103.084H92.1217C92.1217 103.963 92.1217 104.851 92.1313 105.739C91.1273 105.739 90.1136 105.749 89.1191 105.758V103.084Z" fill="#777777"/>
</g>
<defs>
<clipPath id="clip0_4881_40655">
<rect width="192" height="192" fill="white"/>
</clipPath>
</defs>
</svg>
