<svg width="192" height="192" viewBox="0 0 192 192" fill="none" xmlns="http://www.w3.org/2000/svg">
<g clip-path="url(#clip0_5165_40865)">
<path d="M96 192C149.019 192 192 149.019 192 96C192 42.9807 149.019 0 96 0C42.9807 0 0 42.9807 0 96C0 149.019 42.9807 192 96 192Z" fill="white"/>
<path d="M139.592 88.4993C139.571 85.2367 139.531 81.9717 139.533 78.7092C139.536 76.427 140.414 74.426 141.662 72.5714C144.069 68.9899 147.363 66.3298 150.892 63.7192C150.611 64.995 150.316 66.1242 150.12 67.2724C149.281 72.1769 151.681 75.371 156.659 75.7112C159.636 75.9143 162.636 75.7844 165.625 75.8151C166.088 75.8198 166.572 75.7041 167.009 75.9687C165.969 76.264 164.909 76.0821 163.86 76.0963C161.788 76.1222 159.714 76.1317 158.568 76.1081C160.902 76.0396 164.162 76.2262 167.422 76.0348C168.878 76.4128 169.674 77.4145 170.054 78.8107C170.248 81.8867 170.087 84.965 170.142 88.0433C170.151 88.5465 169.851 88.7308 169.433 88.8087C168.965 88.8962 168.5 88.8867 168.048 88.7237C167.009 88.1118 167.451 87.0818 167.337 86.2077C167.354 84.8114 166.458 84.1618 165.298 83.7247C164.715 83.5924 164.124 83.6467 163.538 83.6467C157.583 83.642 151.629 83.642 145.673 83.6467C145.128 83.6467 144.575 83.5971 144.039 83.7318C142.822 84.2043 141.884 84.8894 142.004 86.3896C141.934 87.1314 142.205 87.9181 141.695 88.5985C140.981 88.9269 140.273 89.0048 139.592 88.4993Z" fill="#0E001A"/>
<path d="M139.771 125.377C139.445 124.917 139.582 124.39 139.579 123.894C139.567 118.71 139.549 113.527 139.596 108.344C139.603 107.472 139.286 106.978 138.594 106.556C137.292 105.757 135.856 105.259 134.46 104.677C130.888 103.191 129.957 101.122 131.296 97.4954C131.552 97.3513 131.67 97.5119 131.767 97.7104C131.769 98.8515 131.233 99.9264 131.575 101.136C131.965 102.513 132.886 103.314 134.07 103.791C135.873 104.519 137.647 105.303 139.575 106.163C139.575 104.484 139.575 102.865 139.575 101.247C140.297 100.767 141.023 100.817 141.755 101.223C142.074 101.672 142.003 102.194 142.006 102.695C142.015 105.195 142.008 107.692 142.013 110.191C142.02 110.399 142.039 110.61 142.01 110.817C141.994 111.205 142.006 111.595 141.996 111.982C142.001 112.103 141.998 112.225 141.996 112.346C142.192 113.265 142.11 114.186 142.001 115.108C142.013 115.92 141.998 116.731 142.001 117.541C142.003 117.713 142.001 117.888 142.001 118.061C142.112 119.237 142.762 119.986 143.853 120.383C143.955 120.433 144.047 120.492 144.137 120.563C144.236 120.631 144.337 120.693 144.451 120.735C151.25 120.766 158.047 120.752 164.837 120.735C164.945 120.697 165.052 120.65 165.146 120.586C165.231 120.52 165.326 120.463 165.422 120.409C165.737 120.232 166.063 120.078 166.386 119.918C166.802 119.618 167.131 119.254 167.27 118.746C167.357 118.406 167.331 118.058 167.336 117.713C167.331 116.62 167.334 115.526 167.327 114.434C167.331 113.352 167.329 112.27 167.327 111.188C167.362 109.761 167.27 108.332 167.383 106.905C167.646 105.941 167.657 104.97 167.466 103.99C167.423 103.858 167.395 103.725 167.376 103.588C167.367 102.754 167.1 101.885 167.695 101.129C167.969 100.952 168.279 100.94 168.588 100.926C169.961 100.867 170.114 101.027 170.145 102.369C170.159 103.017 170.01 103.68 170.261 104.316C171.095 105.993 172.557 107.13 173.802 108.455C174.527 109.227 175.22 110.035 175.475 111.11C175.626 111.703 175.614 112.299 175.482 112.892C175.187 114.035 174.53 114.971 173.786 115.859C173.471 116.145 173.256 115.946 173.049 115.708C172.942 115.162 173.365 114.853 173.616 114.475C175.026 112.348 175.028 111.358 173.358 109.44C172.477 108.429 171.65 107.326 170.417 106.695C170.266 109.842 170.395 112.979 170.353 116.116C170.346 116.627 170.369 117.137 170.32 117.645C170.308 117.777 170.282 117.905 170.247 118.032C170.058 118.67 170.003 119.313 170.14 119.97C170.102 121.687 170.216 123.405 170.079 125.12C169.722 126.707 168.869 127.82 167.187 128.137C166.892 127.978 166.573 128.04 166.263 128.04C158.692 128.038 151.122 128.038 143.551 128.04C143.241 128.04 142.92 127.974 142.629 128.144C141.207 127.943 140.347 127.083 139.858 125.786C139.988 120.244 139.877 114.701 139.919 109.159C139.922 108.764 139.83 108.358 139.908 108.181C139.908 113.272 139.912 118.571 139.901 123.87C139.896 124.378 140.042 124.898 139.771 125.377Z" fill="#0E001A"/>
<path d="M92.0752 87.8334C92.9942 87.7697 93.8471 88.0508 94.674 88.3981C95.8765 88.9013 96.6443 89.7683 96.7482 91.122C96.8593 92.5608 96.8805 93.9995 96.6112 95.4264C96.4742 95.28 96.4057 95.1193 96.4482 95.0366C96.5143 96.7164 96.3395 98.5095 96.5427 100.3C96.4033 101.522 97.405 101.923 98.1539 102.464C98.676 102.842 99.3021 103.079 99.8809 103.379C100.356 103.556 100.826 103.605 101.291 103.345C102.728 102.684 103.177 101.458 103.179 99.9955C103.188 96.5888 103.21 93.1797 103.165 89.773C103.153 88.9533 103.37 88.6839 104.204 88.7288C105.532 88.7997 106.867 88.7406 108.199 88.7524C108.445 88.7548 108.811 88.639 108.837 89.0548C108.863 89.4494 108.525 89.4541 108.256 89.447C106.907 89.4116 106.288 90.1865 106.052 91.4008C105.726 91.6347 105.905 91.9749 105.91 92.2536C105.943 95.1713 105.794 98.089 105.978 101.007C105.853 102.443 105.537 103.835 104.329 104.754C102.888 105.85 101.341 105.708 99.8029 104.881C98.5461 104.203 97.5444 103.211 96.3726 102.07C95.7371 104.635 94.2133 105.88 91.6027 105.472C88.7749 105.313 85.947 105.328 83.1191 105.467C80.4448 105.479 77.7681 105.495 75.0937 105.5C74.3378 105.502 73.5889 105.576 72.925 105.954C72.3556 106.277 71.8855 106.74 72.0249 107.468C72.1619 108.193 72.7974 108.321 73.3951 108.33C75.3229 108.363 77.2531 108.392 79.1785 108.344C80.2274 108.321 81.2551 108.444 82.2804 108.585C83.9932 108.822 84.6736 110.338 84.0475 112.573C81.5528 110.371 78.5524 110.986 75.6607 110.998C75.0725 111 74.4819 111.106 73.8936 111.099C71.5784 111.078 70.3026 109.946 69.9199 107.612C70.0593 107.069 70.0569 106.525 69.9223 105.982C70.3263 103.915 71.7981 102.833 74.385 102.701C75.356 102.892 76.3364 102.776 77.3121 102.781C81.9378 102.795 86.5659 102.793 91.1917 102.781C91.5649 102.781 91.9784 102.934 92.3162 102.625C93.462 102.363 93.4289 101.326 93.7124 100.496C94.0101 100.057 93.866 99.5939 93.7809 99.1355C93.7762 98.5733 93.6416 98.0015 93.9227 97.4629C94.2227 95.502 94.1967 93.5412 93.9298 91.5803C93.5801 90.2762 93.0131 89.1541 91.5697 88.7666C91.109 88.5115 90.6554 88.5068 90.2089 88.8021C89.0253 89.2698 88.3969 90.0542 88.5126 91.4102C88.5764 92.1521 88.4417 92.9435 87.5511 93.227C86.3415 93.6144 85.3516 92.7639 85.5076 91.4622C85.6777 90.0589 86.4573 89.0856 87.7354 88.5115C88.5953 88.124 89.4694 87.7815 90.4404 87.8264C90.9861 87.9752 91.5295 87.961 92.0752 87.8334Z" fill="#F48220"/>
<path d="M23.818 102.705C28.2972 102.7 32.7741 102.698 37.2534 102.691C39.4033 102.688 39.8403 102.343 39.8876 100.193C39.9608 96.7395 39.9608 93.2809 39.9112 89.8269C39.8994 88.9221 40.1569 88.6858 41.0286 88.7378C42.3611 88.8134 43.7006 88.7567 45.0354 88.7614C45.2551 88.7614 45.5268 88.6977 45.5788 89.0379C45.6237 89.3379 45.4866 89.4749 45.1866 89.456C43.4998 89.3473 42.9493 90.3939 42.7816 91.8256C42.7178 91.8752 42.6162 91.9272 42.6186 91.9815C42.6493 95.0716 42.4627 98.1641 42.7107 101.252C43.5801 102.161 44.5936 102.87 45.7607 103.328C47.0388 103.832 48.6476 102.887 49.0516 101.424C49.1532 101.056 49.2335 100.68 49.3233 100.307C49.5855 99.6265 49.4509 98.9201 49.4414 98.2279C49.4036 95.1449 49.5737 92.0618 49.3564 88.9812C50.6628 88.4803 52.0189 88.8418 53.349 88.7851C53.8711 88.7638 54.7948 88.4283 54.8727 89.078C54.9602 89.7938 54.0152 89.3993 53.5545 89.5434C52.8221 89.7726 52.5008 90.2829 52.1937 90.8735C51.8677 91.7004 52.052 92.5603 52.0543 93.4013C52.0638 95.3882 51.9291 97.375 52.1276 99.3595C52.2646 100.312 52.0779 101.245 51.8771 102.159C51.1897 105.296 48.4563 106.442 45.6662 104.807C44.544 104.148 43.6274 103.236 42.602 102.294C42.1012 103.522 41.6311 104.675 40.379 105.23C39.5568 105.594 38.678 105.578 37.8322 105.596C33.2395 105.693 28.6445 105.663 24.0542 105.497C23.1092 105.311 22.1666 105.304 21.224 105.5C20.7704 105.587 20.3097 105.651 19.8608 105.764C19.0292 105.972 18.2922 106.367 18.1811 107.3C18.063 108.283 19.0174 108.228 19.575 108.545C20.5601 108.861 21.576 108.682 22.573 108.682C24.3236 108.679 26.0789 108.802 27.8295 108.609C29.6273 108.835 30.1069 109.228 30.3975 110.706C30.2652 111.096 30.2652 111.484 30.3975 111.871C30.3975 112.136 30.3975 112.4 30.3975 112.854C28.4012 110.933 26.0482 110.971 23.6904 111.011C22.0532 111.04 20.4137 111.427 18.7812 111.002C16.8369 110.496 15.7667 108.606 16.0431 106.187C16.2581 104.318 17.7157 103.187 19.7262 103.054C20.4467 103.007 21.1508 102.549 21.9375 102.705C22.5682 102.842 23.1919 102.842 23.818 102.705Z" fill="#231F20"/>
<path d="M67.9477 91.8216C67.5083 90.4632 66.8822 89.3434 65.2261 89.2087C63.7047 89.0859 62.4006 90.1986 62.5282 91.6846C62.6628 93.2674 61.9635 93.9053 60.7232 93.7021C60.2814 93.6289 59.8987 93.4706 59.7759 92.9769C59.8893 92.3532 59.9011 91.7295 59.7664 91.1058C60.461 89.1 62.1643 88.6086 63.9858 88.2944C64.9237 88.4551 65.864 88.4291 66.8042 88.3086C69.7054 88.7268 70.8275 89.8466 70.7968 92.287C70.6504 92.7548 70.6504 93.2225 70.7968 93.6903C70.726 96.2796 70.7543 98.876 70.5559 101.453C70.3314 104.366 69.2967 105.432 66.3648 105.845C64.1465 106.157 61.8974 106.001 59.6672 105.843C57.926 105.72 56.9196 104.624 56.4448 103.022C56.0857 101.813 55.977 100.563 55.9794 99.3012C55.9841 94.666 55.9605 90.0332 55.9935 85.398C56.003 84.1128 55.6368 83.182 54.2949 82.8465C54.3493 82.2701 54.8029 82.5134 55.0863 82.4969C56.3148 82.4166 57.5528 82.6056 58.7789 82.3859C59.138 82.7024 58.9396 83.1182 58.9396 83.4773C58.9537 88.748 58.9466 94.0163 58.9537 99.287C58.9537 99.9154 58.9561 100.549 59.027 101.172C59.2089 102.812 59.9531 103.551 61.5855 103.705C63.0479 103.844 64.4937 103.691 65.897 103.261C67.4185 102.795 67.9642 102.122 67.9973 100.53C68.0469 98.094 68.0209 95.6559 68.028 93.2178C68.132 92.7453 68.2477 92.2705 67.9477 91.8216Z" fill="#231F20"/>
<path d="M141.626 101.273C140.943 101.263 140.263 101.256 139.58 101.247L139.509 101.294C139.45 101.155 139.485 101.046 139.615 100.97C140.168 100.815 140.742 100.956 141.3 100.871C141.453 100.833 141.359 100.689 141.307 100.729C140.754 101.178 139.979 100.597 139.422 101.11C138.819 101.1 138.212 101.223 137.619 101.032C136.603 100.914 136.067 100.281 135.816 99.345C135.939 96.3636 135.965 93.3821 135.805 90.4007C136.057 89.0801 136.981 88.5958 138.2 88.506C138.661 88.4729 139.124 88.4989 139.585 88.4989C140.256 88.4847 140.924 88.4682 141.595 88.454C141.718 88.3926 141.843 88.3312 141.968 88.2721C142.377 88.1398 142.8 88.1776 143.218 88.1705C145.607 88.128 147.993 88.1162 150.379 88.1705C151.999 88.2083 152.85 88.884 153.219 90.2637C153.018 91.5371 153.133 92.8199 153.11 94.098C153.105 94.3791 153.145 94.6413 153.415 94.802C154.121 94.9745 154.82 94.7264 155.524 94.7855C156.039 94.8303 156.186 94.4642 156.202 94.0247C156.235 93.2002 156.198 92.3781 156.224 91.5536C156.297 89.2549 157.379 88.1823 159.661 88.1611C161.27 88.1469 162.881 88.1185 164.488 88.1729C165.381 88.2036 165.914 87.9083 166.066 87.0129C166.455 86.557 166.585 86.9491 166.692 87.2326C166.843 87.6295 166.857 88.102 167.384 88.2319C167.542 88.3028 167.693 88.3831 167.838 88.4824C170.08 88.4942 170.084 88.4942 170.08 86.3136C170.075 83.8118 170.061 81.3099 170.051 78.8057C170.394 79.2096 170.287 79.6987 170.29 80.1594C170.299 82.6305 170.318 85.1017 170.278 87.5705C170.266 88.2721 170.439 88.5131 171.185 88.5202C173.191 88.5391 174.039 89.4368 174.046 91.4071C174.053 93.72 174.058 96.0352 174.044 98.3481C174.032 100.198 173.193 101.145 171.341 101.159C170.398 101.167 170.212 101.5 170.28 102.322C170.335 102.983 170.271 103.652 170.261 104.318C169.867 103.716 170.068 103.038 170.105 102.414C170.165 101.464 169.879 101.048 168.896 101.204C168.518 101.263 168.13 101.256 167.745 101.278C167.041 101.573 166.753 102.097 166.793 102.86C166.815 103.238 166.81 103.664 166.387 103.895C165.898 103.671 165.893 103.203 165.903 102.792C165.922 101.847 165.418 101.596 164.575 101.608C163.051 101.63 161.527 101.646 160.006 101.594C159.507 101.578 158.862 101.748 158.647 101.011C160.986 100.741 163.335 101.003 164.728 100.928C163.276 101.029 160.861 100.68 158.466 101.053C157.367 101.055 156.732 100.522 156.379 99.2978C156.325 99.1088 156.297 98.9174 156.276 98.7237C156.035 96.6613 155.094 96.2573 153.358 97.4669C152.864 98.0977 153.159 98.7899 153.197 99.4632C152.755 100.9 152.059 101.36 150.995 100.926C148.564 100.836 146.129 100.956 143.698 100.883C145.755 100.902 147.813 100.895 149.869 100.909C150.289 100.911 150.733 100.784 151.132 101.039C150.903 101.771 150.258 101.592 149.76 101.606C148.075 101.656 146.391 101.646 144.707 101.618C143.799 101.601 143.452 101.967 143.464 102.867C143.492 104.864 143.483 106.862 143.466 108.859C143.461 109.4 143.525 109.964 143.147 110.437C142.353 110.392 142.545 109.754 142.535 109.322C142.512 108.167 142.526 107.009 142.528 105.854C142.535 104.961 142.533 104.068 142.533 103.177C142.467 102.556 142.809 101.783 141.905 101.467C141.817 101.393 141.723 101.33 141.626 101.273Z" fill="#929497"/>
<path d="M116.401 103.078C119.253 102.043 120.278 99.6946 120.616 96.9731C120.859 95.0075 120.696 93.049 119.439 91.3575C118.494 90.0865 116.975 89.5336 115.482 89.94C114.291 90.2636 114.034 91.2488 113.845 92.2836C113.71 93.0254 113.583 93.7814 112.624 93.9089C112.161 93.7412 111.695 93.7766 111.227 93.8877C110.091 93.1766 109.952 91.9363 110.944 90.7479C111.929 89.5667 113.226 88.917 114.766 88.7682C115.546 88.9217 116.328 88.9099 117.11 88.7753C120.632 89.3352 123.347 92.5529 123.463 96.3045C123.321 96.9282 123.319 97.5519 123.465 98.1732C123.389 100.413 122.6 102.39 121.103 104.037C119.161 106.17 115.669 106.496 113.247 104.824C111.516 103.628 110.571 101.899 110.039 99.9144C109.975 99.6734 109.81 99.319 110.119 99.1702C110.504 98.9859 110.547 99.4111 110.646 99.6261C111.442 101.346 112.673 102.575 114.521 103.127C115.156 103.316 115.785 103.411 116.401 103.078Z" fill="#F48220"/>
<path d="M99.6254 106.74C100.62 107.005 101.1 107.763 101.473 108.772C101.957 107.844 102.38 106.96 103.434 106.729C104.053 106.856 104.674 106.842 105.295 106.736C106.659 107.374 107.311 108.38 107.181 109.649C107.058 110.846 106.134 111.886 104.986 112.115C103.507 112.41 102.477 111.825 101.454 110.012C101.185 110.842 100.741 111.442 100.055 111.834C99.3656 112.228 98.6214 112.25 97.8843 112.084C96.7976 111.841 95.9494 110.771 95.8502 109.613C95.7392 108.304 96.3794 107.338 97.7638 106.729C98.3851 106.856 99.0041 106.833 99.6254 106.74Z" fill="#F48220"/>
<path d="M50.0482 84.5332C50.0223 86.109 48.7512 87.3445 47.1873 87.3186C45.6328 87.2926 44.3641 85.9932 44.383 84.4481C44.4019 82.9125 45.732 81.6226 47.2676 81.651C48.8245 81.6793 50.0742 82.9763 50.0482 84.5332Z" fill="#231F20"/>
<path d="M86.7025 108.113C87.2482 106.511 88.3633 105.757 89.8753 105.975C91.1652 106.159 92.2094 107.335 92.2685 108.666C92.3276 110.024 91.366 111.219 89.9485 111.541C88.4602 111.878 87.1254 110.948 86.6836 109.268C86.8324 108.885 86.8041 108.5 86.7025 108.113Z" fill="#F48220"/>
<path d="M37.7479 106.743C39.0354 107.178 39.5788 108.153 39.6024 109.429C39.626 110.676 38.8771 111.56 37.5093 112.063C37.0415 111.957 36.5761 111.938 36.1107 112.075C34.6719 111.588 34.0104 110.794 33.9655 109.493C33.9183 108.177 34.4995 107.338 35.8792 106.729C36.5005 106.856 37.1242 106.835 37.7479 106.743Z" fill="#231F20"/>
<path d="M64.4421 106.738C65.7462 107.352 66.4266 108.286 66.3179 109.493C66.1998 110.799 65.5525 111.735 64.2059 112.065C63.7381 111.947 63.2727 111.94 62.8049 112.07C61.3803 111.572 60.707 110.761 60.6645 109.49C60.6196 108.191 61.2032 107.348 62.5734 106.729C63.1947 106.854 63.8184 106.84 64.4421 106.738Z" fill="#231F20"/>
<path d="M173.091 115.654C173.317 115.739 173.49 116.006 173.788 115.862C173.684 116.492 173.263 116.97 172.956 117.496C172.606 118.101 172.847 118.238 173.417 118.262C173.866 118.278 174.348 118.104 174.754 118.448C175.992 119.488 176.023 119.847 175.014 121.343C173.053 122.03 171.099 121.106 170.501 119.209C169.996 118.947 170.081 118.543 170.242 118.12C170.844 116.355 171.666 115.644 173.091 115.654Z" fill="#BBBCBF"/>
<path d="M131.778 97.7077C131.622 97.6368 131.464 97.5636 131.308 97.4927C131.308 97.4549 131.315 97.4124 131.308 97.377C131.14 96.6517 131.913 95.7941 131.351 95.2767C130.836 94.8042 130.117 95.7185 129.411 95.5909C129.385 94.542 128.865 93.6608 128.459 92.7394C129.248 92.1228 130.179 91.974 131.124 92.0756C133.045 92.2835 134.039 93.9632 133.328 95.7658C133.014 96.5595 132.603 97.3108 131.778 97.7077Z" fill="#BBBCBF"/>
<path d="M21.234 120.191C22.5003 120.109 23.7406 119.986 24.9029 120.784C25.8172 121.413 26.1952 123.265 25.8857 124.43C25.5597 125.66 24.7139 126.371 23.4595 126.497C22.7247 126.57 21.9758 126.485 21.2316 126.473C21.0356 124.378 21.0332 122.284 21.234 120.191Z" fill="#262223"/>
<path d="M142.629 128.15C142.945 127.808 143.361 127.935 143.739 127.935C151.183 127.928 158.63 127.928 166.074 127.935C166.452 127.935 166.866 127.81 167.187 128.143C166.762 128.188 166.336 128.275 165.909 128.275C158.535 128.283 151.162 128.283 143.789 128.275C143.404 128.273 143.016 128.193 142.629 128.15Z" fill="#03000F"/>
<path d="M98.2367 126.465C96.9917 125.638 96.6515 124.017 97.4736 122.838C97.9509 122.153 98.61 121.884 99.4109 122.094C100.332 122.338 100.644 123.084 100.795 123.937C100.864 124.324 100.663 124.405 100.339 124.4C99.7936 124.395 99.2431 124.376 98.6998 124.414C98.3383 124.438 97.8115 124.19 97.6461 124.598C97.4666 125.043 97.7808 125.491 98.1044 125.846C98.2344 125.988 98.3856 126.108 98.5273 126.238C98.4919 126.392 98.343 126.403 98.2367 126.465Z" fill="#2A2627"/>
<path d="M139.771 125.377C139.771 119.463 139.771 113.55 139.771 107.637C139.833 107.634 139.894 107.632 139.956 107.63C139.979 107.774 140.022 107.918 140.024 108.06C140.029 113.748 140.029 119.437 140.02 125.126C140.02 125.348 139.913 125.568 139.857 125.79C139.828 125.653 139.8 125.516 139.771 125.377Z" fill="#090015"/>
<path d="M92.3101 102.627C92.0762 103.008 91.6911 102.901 91.3557 102.901C85.9905 102.906 80.6277 102.906 75.2625 102.904C74.9553 102.904 74.6293 102.972 74.3789 102.705C78.0337 102.481 81.6908 102.672 85.3479 102.634C87.6678 102.609 89.9902 102.627 92.3101 102.627Z" fill="#F47C15"/>
<path d="M128.448 92.7422C129.367 93.4911 129.889 94.3747 129.4 95.5937C129.091 95.5866 128.781 95.5772 128.474 95.5701C128.42 95.4638 128.392 95.3244 128.219 95.3669C127.324 94.1502 127.364 93.7014 128.448 92.7422Z" fill="#A8AAAD"/>
<path d="M44.9902 127.696L44.8792 127.685C44.3287 128.074 43.7263 127.925 43.1309 127.855C42.5521 127.559 42.0324 127.243 42.6254 126.508C42.8167 126.331 43.0104 126.161 43.2821 126.121C43.7924 125.993 44.3004 126.021 44.8012 126.175C45.2028 126.307 45.6352 126.432 45.673 126.943C45.7013 127.394 45.4249 127.633 44.9902 127.696Z" fill="#F0F0F0"/>
<path d="M109.574 126.231C109.158 125.749 108.91 126.746 108.705 126.398C108.514 126.077 108.615 125.574 108.613 125.149C108.606 123.533 108.61 121.917 108.752 120.298C109.331 120.962 108.977 121.747 109.147 122.474C109.494 122.703 109.617 122.127 109.936 122.217C110.139 122.129 110.264 122.21 110.33 122.408C109.265 123.419 109.177 124.61 109.685 125.912C109.683 126.03 109.645 126.136 109.574 126.231Z" fill="#1A1617"/>
<path d="M65.1172 126.257C65.7173 125.841 65.9039 125.274 65.8732 124.546C65.8212 123.297 65.8496 122.042 65.8661 120.79C65.8685 120.559 65.7054 120.15 66.1496 120.171C66.5559 120.192 66.4 120.589 66.4024 120.825C66.4166 122.234 66.4236 123.644 66.4 125.052C66.3882 125.739 66.2535 126.389 65.3865 126.5C65.2991 126.417 65.1526 126.396 65.1172 126.257Z" fill="#262223"/>
<path d="M120.003 124.331C120.003 123.785 120.005 123.237 120 122.691C119.998 122.448 120 122.169 120.315 122.186C120.624 122.202 120.598 122.493 120.598 122.729C120.596 123.823 120.598 124.917 120.596 126.01C120.596 126.24 120.624 126.532 120.281 126.511C119.948 126.49 120.012 126.192 120.007 125.973C119.998 125.424 120.003 124.876 120.003 124.331Z" fill="#211D1E"/>
<path d="M86.8377 122.66C87.2936 122.032 87.9008 121.888 88.5954 122.176C89.2639 122.455 89.2828 123.06 89.2498 123.664C89.1978 124.614 89.3726 125.58 89.0986 126.7C88.5292 126.001 88.7702 125.335 88.7607 124.742C88.7253 122.566 88.7466 122.566 86.8164 122.632L86.8377 122.66Z" fill="#201C1D"/>
<path d="M49.3597 88.9807C49.5959 89.1886 49.5676 89.4674 49.5676 89.7391C49.5676 92.9757 49.5699 96.2123 49.5652 99.4488C49.5652 99.7536 49.6266 100.084 49.3242 100.306C49.3384 96.5312 49.3502 92.756 49.3597 88.9807Z" fill="#140F10"/>
<path d="M167.418 76.0319C167.278 76.0934 167.139 76.2091 166.999 76.2115C163.758 76.2209 160.517 76.2186 157.275 75.9681C160.519 75.9681 163.76 75.9681 167.004 75.9681C167.143 75.987 167.28 76.0083 167.418 76.0319Z" fill="#080014"/>
<path d="M105.981 101.006C105.721 100.753 105.787 100.425 105.787 100.115C105.784 97.207 105.784 94.2987 105.784 91.3905C105.784 91.3126 105.77 91.1779 105.803 91.1637C106.042 91.0598 105.999 91.2842 106.051 91.3976C106.073 94.6011 106.188 97.8047 105.981 101.006Z" fill="#F47F1B"/>
<path d="M109.572 126.23C109.558 126.155 109.56 126.079 109.574 126.006C111.28 125.663 111.634 125.08 111.188 123.332C111.131 123.107 111.046 122.887 111.103 122.646C111.186 122.469 111.294 122.353 111.505 122.474C112.435 123.988 112.421 125.278 111.469 126.171C110.852 126.752 110.222 126.83 109.572 126.23Z" fill="#231F20"/>
<path d="M77.3924 122.513C77.494 122.728 77.7893 122.851 77.7019 123.156C77.9334 124.188 77.6499 125.247 77.8602 126.281C77.8791 126.468 77.7775 126.551 77.6098 126.518C77.3593 126.468 77.4255 126.253 77.4137 126.083C77.3003 125.899 77.0617 125.807 77.0239 125.563C77.227 123.943 76.0033 124.72 75.3347 124.562C75.1717 124.491 75.0465 124.394 75.0795 124.188C75.4127 123.976 75.7907 123.872 76.1734 123.912C77.064 124.004 77.3688 123.628 77.168 122.783C77.0806 122.558 77.1703 122.483 77.3924 122.513Z" fill="#100C0D"/>
<path d="M42.7077 101.249C42.4974 101.086 42.4785 100.854 42.4785 100.616C42.4785 97.9176 42.4785 95.222 42.4785 92.524C42.4785 92.2476 42.4714 91.9689 42.7786 91.8224C42.8164 94.9645 42.9109 98.1089 42.7077 101.249Z" fill="#171314"/>
<path d="M135.806 90.4036C136.135 90.7272 136.005 91.143 136.007 91.521C136.019 93.7559 136.019 95.9908 136.007 98.2257C136.005 98.6037 136.132 99.0172 135.818 99.3479C135.669 96.3665 135.69 93.385 135.806 90.4036Z" fill="#8E9093"/>
<path d="M86.8211 122.63C86.1761 123.771 86.6014 125.082 86.084 126.285C86.084 124.926 86.084 123.57 86.084 122.179C86.5966 121.829 86.195 123.187 86.8447 122.661C86.8423 122.661 86.8211 122.63 86.8211 122.63Z" fill="#1D191A"/>
<path d="M33.9205 126.493C33.9205 125.174 33.9182 123.858 33.9229 122.54C33.9229 122.396 33.9323 122.205 34.1426 122.219C34.23 122.224 34.3812 122.342 34.3812 122.408C34.3954 123.771 34.3906 125.134 34.3906 126.497C34.2371 126.497 34.0788 126.495 33.9205 126.493Z" fill="#140F11"/>
<path d="M54.0391 122.219C54.0391 123.641 54.0391 125.066 54.0391 126.488C53.9564 126.488 53.8737 126.488 53.791 126.486C53.791 125.064 53.791 123.644 53.791 122.222C53.8761 122.222 53.9588 122.219 54.0391 122.219Z" fill="#130F10"/>
<path d="M52.1354 99.3574C51.729 98.7502 51.9582 98.0698 51.9464 97.4296C51.911 95.601 51.9275 93.7725 51.9393 91.9439C51.9417 91.5754 51.7976 91.1501 52.2015 90.8713C52.1803 93.6992 52.1567 96.5271 52.1354 99.3574Z" fill="#171314"/>
<path d="M83.1211 105.467C83.6527 105.072 84.2622 105.285 84.8315 105.275C86.7168 105.245 88.602 105.256 90.4849 105.268C90.8629 105.271 91.2787 105.141 91.6024 105.469C88.7745 105.471 85.9466 105.469 83.1211 105.467Z" fill="#F37911"/>
<path d="M27.8287 108.603C27.0585 109.011 26.2317 108.77 25.4332 108.792C23.8385 108.832 22.2438 108.81 20.6491 108.799C20.2806 108.796 19.8577 108.938 19.5742 108.541C22.3265 108.562 25.0788 108.584 27.8287 108.603Z" fill="#141011"/>
<path d="M170.499 118.241C170.275 118.562 170.277 118.886 170.501 119.207C170.026 120.036 170.397 120.934 170.298 121.794C170.171 122.9 170.523 124.038 170.081 125.127C170.057 123.306 170.034 121.484 170.008 119.663C169.847 119.115 169.878 118.564 169.991 118.012L170.062 118.03C170.104 117.945 170.171 117.915 170.263 117.941C170.369 118.019 170.402 118.153 170.499 118.241Z" fill="#8A8890"/>
<path d="M44.6715 122.224C44.8038 122.155 44.9361 122.089 45.0684 122.021C45.3141 121.877 45.3259 122.025 45.3094 122.212C45.0826 122.798 45.8008 123.252 45.5267 123.856C45.3283 124.298 45.1086 124.688 44.5888 124.797C44.4234 124.747 44.2864 124.671 44.2911 124.468C44.8038 123.781 44.629 123.091 44.2982 122.401C44.3667 122.226 44.4707 122.125 44.6715 122.224Z" fill="#2F2B2C"/>
<path d="M21.2297 120.193C21.2297 122.286 21.2297 124.382 21.2297 126.475C20.9391 124.38 20.9391 122.286 21.2297 120.193Z" fill="#383435"/>
<path d="M58.7757 82.3852C57.7432 82.8506 56.6541 82.4773 55.6005 82.6026C55.1587 82.6545 54.6649 82.4301 54.2917 82.8482C53.9633 82.7797 53.3821 83.1247 53.375 82.5435C53.3703 82.0261 53.9444 82.2813 54.235 82.2883C55.747 82.3214 57.266 82.123 58.7757 82.3852Z" fill="#171314"/>
<path d="M96.5394 100.3C96.0788 98.268 96.4662 96.2245 96.5182 94.1786C96.5489 94.5944 96.5772 95.0102 96.6079 95.426C96.5867 97.0514 96.5631 98.6744 96.5394 100.3Z" fill="#F4811E"/>
<path d="M43.2 124.827C43.0512 124.938 42.9 125.049 42.7511 125.162C42.6165 125.063 42.5999 124.947 42.7039 124.815C42.4393 123.884 41.8014 122.892 43.1527 122.242C43.3748 122.129 43.578 122.105 43.7197 122.365C43.2142 123.029 43.1173 123.761 43.363 124.55C43.3299 124.654 43.2732 124.746 43.2 124.827Z" fill="#363334"/>
<path d="M93.9255 91.5797C94.5373 92.7562 94.1357 94.0131 94.1783 95.2297C94.2042 95.9645 94.5019 96.7819 93.916 97.4646C93.9184 95.5038 93.9207 93.5429 93.9255 91.5797Z" fill="#F47B14"/>
<path d="M175.011 121.34C174.74 121.073 175.033 120.948 175.158 120.792C175.904 119.856 175.257 119.167 174.754 118.448C176.316 119.048 176.417 120.187 175.011 121.34Z" fill="#ABADAF"/>
<path d="M75.0834 124.191C75.1873 124.271 75.2889 124.354 75.3929 124.434C75.2606 125.006 75.1283 125.578 75.4 126.147C75.3929 126.35 75.2275 126.407 75.0834 126.478C74.0321 125.703 74.0321 124.978 75.0834 124.191Z" fill="#232020"/>
<path d="M44.9825 127.697C45.8282 127.099 45.6203 126.657 44.7793 126.305C44.8974 126.095 45.162 126.213 45.3109 126.071C45.9582 126.239 46.2157 126.688 45.97 127.271C45.8235 127.616 45.592 128.224 44.9825 127.697Z" fill="#343031"/>
<path d="M42.9453 127.726C43.5879 127.712 44.2305 127.698 44.8731 127.686C44.462 128.329 43.9021 128.378 42.9689 127.854C42.9619 127.811 42.9548 127.769 42.9453 127.726Z" fill="#403D3E"/>
<path d="M45.3124 126.072C45.1352 126.15 44.958 126.228 44.7809 126.306C44.2493 126.28 43.7201 126.254 43.1886 126.23C43.113 126.178 43.0822 126.124 43.1011 126.062C43.12 126.001 43.1413 125.968 43.1649 125.968C43.902 125.55 44.6013 125.935 45.3124 126.072Z" fill="#322E2F"/>
<path d="M42.9487 127.725C42.9416 127.77 42.9487 127.813 42.9723 127.853C42.377 128.07 42.1714 127.619 42.0604 127.225C41.9163 126.719 42.2967 126.447 42.7124 126.254C42.7904 126.308 42.8164 126.362 42.7928 126.421C42.7691 126.48 42.7455 126.509 42.7195 126.509C42.3108 127.005 42.729 127.347 42.9487 127.725Z" fill="#353132"/>
<path d="M77.8599 126.282C77.4087 125.262 77.6638 124.203 77.7016 123.157C78.0088 124.187 77.7749 125.243 77.8599 126.282Z" fill="#3A3737"/>
<path d="M42.7188 126.509C42.7165 126.424 42.7141 126.339 42.7118 126.256C42.3503 125.779 41.9061 125.301 42.7047 124.817C42.7212 124.933 42.7377 125.049 42.7519 125.164C42.7377 125.512 43.0141 125.71 43.1677 125.97C43.1748 126.057 43.1842 126.145 43.1913 126.23C43.033 126.322 42.8771 126.414 42.7188 126.509Z" fill="#332F30"/>
<path d="M77.3955 122.514C77.3223 122.604 77.2467 122.694 77.1735 122.784C76.8238 122.535 76.4175 122.491 76.0087 122.457C75.8623 122.328 75.6 122.46 75.4961 122.233C76.1883 121.931 76.8498 121.827 77.3955 122.514Z" fill="#3A3737"/>
<path d="M66.8067 88.3102C65.8664 88.6078 64.9262 88.6385 63.9883 88.296C64.9262 88.1708 65.8664 88.1849 66.8067 88.3102Z" fill="#151112"/>
<path d="M21.2246 105.497C22.1672 105.126 23.1122 105.131 24.0549 105.495C23.1122 105.495 22.1696 105.495 21.2246 105.497Z" fill="#130F10"/>
<path d="M75.4934 122.233C75.6634 122.308 75.8359 122.382 76.006 122.457C75.5855 122.679 75.165 122.904 74.6074 123.199C74.7374 122.597 75.0138 122.325 75.4934 122.233Z" fill="#1B1819"/>
<path d="M98.2324 126.464C98.3293 126.388 98.4261 126.313 98.5206 126.235C98.9955 126.379 99.3995 126.074 99.8413 126.02C100.073 125.911 100.104 126.046 100.096 126.228C99.5247 126.705 98.8868 126.655 98.2324 126.464Z" fill="#0C0809"/>
<path d="M111.503 122.477C111.402 122.577 111.3 122.676 111.198 122.775C110.82 122.881 110.501 122.796 110.265 122.468C110.154 122.385 110.041 122.303 109.93 122.218C110.527 121.861 111.04 122.024 111.503 122.477Z" fill="#262324"/>
<path d="M117.105 88.7769C116.323 89.0958 115.541 89.1053 114.762 88.7698C115.544 88.6068 116.323 88.6446 117.105 88.7769Z" fill="#F47D17"/>
<path d="M120.68 120.89C120.616 121.218 120.339 121.152 120.134 121.112C119.891 121.064 119.919 120.833 119.938 120.642C119.966 120.375 120.165 120.379 120.363 120.384C120.722 120.389 120.682 120.642 120.68 120.89Z" fill="#171314"/>
<path d="M34.4806 120.815C34.4806 121.058 34.3365 121.125 34.1168 121.129C33.8073 121.134 33.7317 120.971 33.7482 120.699C33.7648 120.458 33.8947 120.39 34.1144 120.378C34.4452 120.366 34.4948 120.558 34.4806 120.815Z" fill="#130F10"/>
<path d="M54.2916 120.887C54.2538 121.133 54.0624 121.128 53.8711 121.124C53.5261 121.117 53.5592 120.871 53.5757 120.644C53.597 120.384 53.7836 120.379 53.9821 120.387C54.327 120.401 54.2892 120.649 54.2916 120.887Z" fill="#0F0B0C"/>
<path d="M43.6622 122.457C43.4921 122.386 43.3244 122.313 43.1543 122.242C43.6575 121.928 44.1631 121.883 44.6757 122.223C44.5765 122.311 44.4796 122.396 44.3804 122.483C44.1324 122.696 43.8938 122.703 43.6622 122.457Z" fill="#504D4E"/>
<path d="M23.8172 102.705C23.1912 103.019 22.5651 103.021 21.9414 102.705C22.5675 102.705 23.1912 102.705 23.8172 102.705Z" fill="#1D191A"/>
<path d="M123.465 98.1734C123.139 97.5497 123.141 96.9284 123.462 96.3047C123.462 96.926 123.465 97.5497 123.465 98.1734Z" fill="#F47B14"/>
<path d="M116.401 103.078C115.789 103.559 115.161 103.486 114.525 103.127C115.151 103.108 115.775 103.092 116.401 103.078Z" fill="#F37A12"/>
<path d="M37.7476 106.743C37.1216 107.014 36.5002 107.038 35.8789 106.728C36.5026 106.511 37.1263 106.525 37.7476 106.743Z" fill="#191516"/>
<path d="M105.295 106.735C104.674 107.02 104.053 107.032 103.434 106.727C104.055 106.536 104.676 106.536 105.295 106.735Z" fill="#F47C16"/>
<path d="M59.7638 91.1078C60.078 91.7291 60.0662 92.3528 59.7733 92.9789C59.5205 92.3552 59.589 91.7315 59.7638 91.1078Z" fill="#181314"/>
<path d="M100.101 126.231C100.016 126.163 99.9308 126.092 99.8457 126.023C100.042 125.808 100.035 125.402 100.425 125.381C100.491 125.376 100.625 125.52 100.623 125.596C100.616 125.929 100.476 126.184 100.101 126.231Z" fill="#343031"/>
<path d="M77.1898 125.548C77.2654 125.727 77.341 125.907 77.4166 126.086C76.9984 125.956 76.8473 126.481 76.4763 126.469C76.3346 126.403 76.1763 126.353 76.1881 126.15C76.4078 125.76 76.689 125.47 77.1898 125.548Z" fill="#3A3737"/>
<path d="M137.625 101.034C138.27 101.027 138.915 101.022 139.56 101.015C139.543 101.107 139.529 101.202 139.513 101.294C138.905 101.046 138.213 101.405 137.625 101.034Z" fill="#999B9D"/>
<path d="M64.4351 106.738C63.8114 107.019 63.1877 107.035 62.5664 106.728C63.1901 106.515 63.8138 106.523 64.4351 106.738Z" fill="#191516"/>
<path d="M99.6268 106.739C99.0055 107.018 98.3842 107.037 97.7676 106.725C98.3889 106.536 99.0079 106.538 99.6268 106.739Z" fill="#F47C16"/>
<path d="M93.776 99.1379C94.1114 99.5821 93.9815 100.066 93.9012 100.548C93.8988 100.56 93.8327 100.574 93.7996 100.565C93.7641 100.555 93.7382 100.522 93.7051 100.499C93.7287 100.045 93.7523 99.5915 93.776 99.1379Z" fill="#F47C17"/>
<path d="M90.2051 88.8021C90.6067 88.306 91.1194 88.5044 91.6108 88.58C91.6226 88.5824 91.6344 88.6462 91.6273 88.6745C91.6178 88.7076 91.5871 88.7359 91.5659 88.7666C91.1123 88.7785 90.6587 88.7903 90.2051 88.8021Z" fill="#F47C16"/>
<path d="M69.9184 105.984C70.2231 106.527 70.2255 107.071 69.916 107.614C69.9184 107.071 69.9184 106.527 69.9184 105.984Z" fill="#F37A12"/>
<path d="M92.0739 87.8325C91.5281 88.1326 90.9848 88.1396 90.4414 87.8254C90.9848 87.8278 91.5305 87.8302 92.0739 87.8325Z" fill="#F47B15"/>
<path d="M65.116 126.256C65.2058 126.337 65.2955 126.419 65.3853 126.5C65.0002 126.521 64.5584 127.064 64.2324 126.379C64.5159 126.148 64.8301 126.301 65.116 126.256Z" fill="#040000"/>
<path d="M175.486 112.894C175.483 112.301 175.481 111.706 175.479 111.113C175.781 111.706 175.779 112.301 175.486 112.894Z" fill="#11071D"/>
<path d="M45.3113 122.213C45.231 122.149 45.1506 122.086 45.0703 122.022C45.2617 121.684 45.5759 121.594 45.9303 121.625C45.9681 121.627 46.0507 121.854 46.0129 121.913C45.8547 122.164 45.5712 122.171 45.3113 122.213Z" fill="#353132"/>
<path d="M101.289 103.345C100.829 103.763 100.356 103.723 99.8789 103.378C100.349 103.367 100.819 103.355 101.289 103.345Z" fill="#F37B15"/>
<path d="M62.8047 112.069C63.2701 111.772 63.7379 111.774 64.2056 112.065C63.7402 112.194 63.2725 112.194 62.8047 112.069Z" fill="#1A1617"/>
<path d="M36.1133 112.072C36.5763 111.767 37.0441 111.779 37.5119 112.06C37.0465 112.202 36.5811 112.197 36.1133 112.072Z" fill="#1A1617"/>
<path d="M67.9453 91.8203C68.3942 92.2621 68.3091 92.7346 68.0233 93.2165C67.9973 92.7511 67.9713 92.2857 67.9453 91.8203Z" fill="#171314"/>
<path d="M43.2 124.828C43.2095 124.755 43.2095 124.682 43.1953 124.608C43.5591 124.339 43.93 124.292 44.3057 124.585C44.4002 124.656 44.4947 124.729 44.5868 124.8C44.1285 124.951 43.6654 124.904 43.2 124.828Z" fill="#0D0809"/>
<path d="M70.793 93.6913C70.4764 93.2235 70.4741 92.7557 70.793 92.288C70.7954 92.7534 70.7954 93.2235 70.793 93.6913Z" fill="#181415"/>
<path d="M111.225 93.8892C111.695 93.5986 112.16 93.575 112.621 93.9104C112.153 94.0168 111.688 94.0238 111.225 93.8892Z" fill="#F47B13"/>
<path d="M76.2274 126.258C76.3101 126.329 76.3952 126.398 76.4779 126.469C76.0148 126.625 75.5494 126.653 75.084 126.478C75.1785 126.4 75.2754 126.325 75.3698 126.247C75.6604 126.02 75.9463 126.01 76.2274 126.258Z" fill="#0E090A"/>
<path d="M128.217 95.3664C128.248 95.1892 128.264 94.8962 128.486 94.9907C128.789 95.1183 128.479 95.3711 128.472 95.5695C128.387 95.501 128.302 95.4325 128.217 95.3664Z" fill="#D0D1D3"/>
<path d="M86.7025 108.113C86.9742 108.503 86.9907 108.888 86.6836 109.268C86.6907 108.883 86.6954 108.498 86.7025 108.113Z" fill="#F37911"/>
<path d="M30.4021 111.869C30.1067 111.482 30.1044 111.092 30.4021 110.705C30.4021 111.092 30.4021 111.482 30.4021 111.869Z" fill="#181415"/>
<path d="M167.428 88.4701C165.908 88.7371 166.768 87.3551 166.322 86.8755C165.398 85.3115 163.907 85.2926 162.327 85.3068C156.981 85.3517 151.632 85.3257 146.286 85.321C145.497 85.321 144.712 85.3517 143.956 85.5903C143.248 85.6375 142.482 85.5194 141.995 86.2447C141.875 86.2565 141.771 86.2211 141.684 86.1407C141.724 84.8461 142.392 84.0169 143.59 83.5845C150.982 83.5184 158.374 83.5255 165.767 83.5798C166.87 83.9743 167.55 84.7091 167.657 85.9092C167.347 86.7432 167.739 87.6385 167.428 88.4701Z" fill="#47A4AC"/>
<path d="M165.766 83.5801C165.478 83.8754 165.105 83.7762 164.762 83.7762C158.041 83.7809 151.319 83.7809 144.598 83.7762C144.256 83.7762 143.882 83.8754 143.592 83.5848C144.05 83.2824 144.57 83.3439 145.078 83.3439C151.478 83.3415 157.88 83.3415 164.28 83.3439C164.786 83.3415 165.305 83.2848 165.766 83.5801Z" fill="#4AACB4"/>
<path d="M167.426 88.4708C167.544 87.6203 167.168 86.7273 167.65 85.9099C167.714 86.7675 167.775 87.6251 167.837 88.4826C167.7 88.4779 167.563 88.4756 167.426 88.4708Z" fill="#4AACB3"/>
<path d="M141.682 86.1411C141.763 86.1411 141.841 86.1411 141.921 86.1411C142.426 86.9184 142.415 87.698 141.919 88.4752C141.812 88.4682 141.706 88.4611 141.6 88.454C141.628 87.6838 141.656 86.9113 141.682 86.1411Z" fill="#4AAAAF"/>
<path d="M151.151 101.03C152.174 100.919 152.745 100.314 152.986 99.3475C152.906 98.6411 152.767 97.9348 153.062 97.2426C153.579 96.8008 154.146 96.5102 154.857 96.5078C156.19 96.5055 156.594 96.8669 156.591 98.1899C156.589 99.4491 156.894 100.512 158.236 100.971C158.387 100.895 158.533 100.869 158.647 101.034C160.634 101.396 162.639 101.122 164.636 101.183C166.516 101.242 166.254 101.011 166.289 102.82C166.296 103.158 166.155 103.531 166.45 103.827C166.863 103.461 167.267 103.383 167.657 103.862L167.65 103.846C167.766 104.339 168.139 104.902 167.293 105.129C167.298 105.145 167.22 105.143 167.274 105.15C168.158 105.254 167.643 105.929 167.766 106.343C167.721 106.447 167.645 106.52 167.541 106.563C167.232 106.648 166.863 106.61 166.686 106.976C166.443 109.32 166.637 111.665 166.582 114.007C166.556 115.141 166.599 116.275 166.563 117.409C166.535 117.853 166.386 118.257 166.133 118.621C165.529 119.332 164.714 119.495 163.839 119.509C163.107 119.521 162.372 119.504 161.638 119.533C159.339 119.58 157.04 119.481 154.744 119.54C151.72 119.566 148.698 119.556 145.674 119.544C144.448 119.54 143.43 119.162 142.95 117.907C142.901 117.794 142.868 117.671 142.846 117.55C142.636 116.87 143.118 116.083 142.528 115.46C142.334 115.405 142.133 115.386 141.953 115.287C141.831 115.186 141.774 115.037 141.691 114.907C141.686 114.052 141.682 113.196 141.677 112.341C141.831 112.211 141.979 112.384 142.131 112.351C141.97 112.27 141.788 112.218 141.698 112.039C141.601 111.661 141.566 111.283 141.672 110.9C142.095 110.635 142.676 110.827 143.05 110.418C143.066 107.723 143.125 105.025 143.076 102.331C143.057 101.379 143.371 101.143 144.271 101.171C146.185 101.233 148.103 101.195 150.019 101.186C150.399 101.188 150.803 101.289 151.151 101.03Z" fill="#FEFEFE"/>
<path d="M170.495 118.24C170.403 118.162 170.311 118.086 170.219 118.008C170.051 114.127 170.186 110.243 170.153 106.359C170.151 106.151 170.191 105.964 170.472 106C171.45 107.013 172.459 107.998 173.397 109.047C175.343 111.225 175.386 112.577 173.654 114.927C173.472 115.173 173.278 115.412 173.089 115.653C171.797 116.087 170.767 116.784 170.495 118.24Z" fill="#FEFEFE"/>
<path d="M143.079 117.545C143.457 118.816 144.355 119.159 145.607 119.142C148.628 119.105 151.65 119.164 154.672 119.182C156.188 119.679 157.769 119.367 159.314 119.523C160.363 119.629 161.407 119.801 162.463 119.856C162.777 119.872 163.318 119.846 163.082 120.487C162.617 120.78 162.094 120.702 161.589 120.702C156.247 120.709 150.906 120.699 145.562 120.713C144.974 120.716 144.404 120.579 143.818 120.581C142.559 120.302 141.921 119.461 141.699 118.242C142.021 117.739 142.512 117.567 143.079 117.545Z" fill="#008B74"/>
<path d="M157.241 125.05C156.842 125.987 156.296 126.781 155.195 126.956C154.038 127.14 152.861 126.373 152.559 125.265C152.256 124.157 152.79 122.997 153.825 122.505C154.926 121.983 156.152 122.33 156.814 123.372C156.979 123.634 157.097 123.925 157.236 124.204C157.456 124.487 157.449 124.768 157.241 125.05Z" fill="#FDFDFD"/>
<path d="M163.171 120.373C162.242 119.884 161.194 120.062 160.223 119.969C158.8 119.835 157.371 119.521 155.923 119.66C155.439 119.707 154.992 119.589 154.666 119.183C157.028 119.084 159.391 119.091 161.753 119.183C162.618 119.674 163.573 119.28 164.463 119.45C165.155 119.582 166.039 119.218 166.471 120.13C166.091 120.149 165.952 120.669 165.522 120.588C164.737 120.544 163.903 120.997 163.171 120.373Z" fill="#048C77"/>
<path d="M163.175 120.374C163.957 120.473 164.776 120.152 165.525 120.589C165.471 120.627 165.409 120.648 165.343 120.655C164.951 120.896 164.509 120.844 164.082 120.844C157.807 120.846 151.535 120.846 145.26 120.844C144.832 120.844 144.393 120.898 144.001 120.65C143.932 120.645 143.871 120.624 143.816 120.584C144.22 120.213 144.717 120.383 145.168 120.383C151.171 120.371 157.174 120.374 163.175 120.374Z" fill="#00947A"/>
<path d="M165.298 120.846C165.374 121.219 165.078 121.077 164.939 121.077C158.095 121.084 151.251 121.084 144.407 121.082C144.293 121.082 144.178 121.066 144.071 121.033C144.048 121.025 144.059 120.91 144.055 120.844C144.305 120.678 144.586 120.735 144.856 120.735C151.402 120.732 157.951 120.732 164.497 120.735C164.767 120.735 165.05 120.678 165.298 120.846Z" fill="#0F0014"/>
<path d="M165.295 120.845C158.213 120.845 151.132 120.846 144.05 120.843C144.035 120.777 144.019 120.713 144 120.649C151.113 120.652 158.227 120.652 165.34 120.654C165.326 120.718 165.31 120.779 165.295 120.845Z" fill="#0C5954"/>
<path d="M166.476 120.131C165.266 119.727 164.019 119.654 162.757 119.661C162.367 119.663 161.857 119.833 161.758 119.186C162.495 119.167 163.232 119.113 163.964 119.136C164.744 119.162 165.42 118.981 165.968 118.409C166.518 118.425 167.114 118.321 167.428 118.962C167.317 119.517 166.948 119.866 166.476 120.131Z" fill="#0A8C78"/>
<path d="M167.651 103.866C167.252 103.74 166.85 103.752 166.444 103.83C166.453 103.358 166.519 102.88 166.46 102.417C166.325 101.366 166.798 101.073 167.748 101.279C167.715 102.141 167.684 103.003 167.651 103.866Z" fill="#409897"/>
<path d="M170.471 106C170.081 106.35 170.294 106.808 170.289 107.207C170.249 110.808 170.239 114.408 170.218 118.008C170.166 118.013 170.112 118.02 170.06 118.027C170.058 114.219 170.046 110.411 170.076 106.605C170.076 106.444 169.632 105.719 170.471 106Z" fill="#7C7882"/>
<path d="M143.039 110.423C142.874 111.418 142.243 111.092 141.662 110.905C141.664 110.756 141.669 110.61 141.672 110.461C141.962 110.012 141.679 109.49 141.853 109.027C142.685 108.174 142.106 107.068 142.366 106.114C142.397 105.989 142.451 105.878 142.527 105.776C142.628 105.672 142.739 105.66 142.86 105.741C142.987 107.297 142.692 108.873 143.039 110.423Z" fill="#2F968C"/>
<path d="M167.435 118.961C167.024 118.578 166.327 118.949 165.975 118.408C166.079 118.118 166.183 117.827 166.286 117.537C166.478 116.721 166.315 115.89 166.383 115.07C166.419 114.931 166.511 114.867 166.653 114.876C166.766 114.931 166.849 115.013 166.903 115.127C167.161 115.739 166.818 116.532 167.477 117.026C167.65 117.336 167.406 117.728 167.676 118.018C167.697 118.359 167.706 118.697 167.435 118.961Z" fill="#198F7D"/>
<path d="M143.076 117.546C142.771 118.082 142.135 117.967 141.698 118.245C141.689 118.092 141.679 117.938 141.67 117.785C141.857 116.918 141.916 116.037 141.923 115.153C142.135 115.148 142.35 115.146 142.563 115.141C143.002 115.04 142.948 115.37 142.972 115.616C143.024 116.176 142.887 116.745 143.059 117.3C143.064 117.383 143.069 117.466 143.076 117.546Z" fill="#0D8E79"/>
<path d="M141.918 109.044C141.84 109.516 142.112 110.05 141.677 110.464C141.66 107.4 141.644 104.338 141.625 101.274C141.722 101.269 141.821 101.267 141.92 101.262C142.471 101.942 142.246 102.746 142.265 103.504C142.286 104.319 142.279 105.134 142.261 105.947C142.154 106.979 142.565 108.071 141.918 109.044Z" fill="#39A19B"/>
<path d="M141.919 115.154C142.264 115.492 143.109 115.697 142.063 116.302C141.616 116.56 142.167 117.375 141.666 117.786C141.671 116.829 141.678 115.87 141.683 114.913C141.763 114.993 141.841 115.074 141.919 115.154Z" fill="#159882"/>
<path d="M167.426 106.48C167.497 106.468 167.568 106.457 167.639 106.44C167.764 106.525 167.783 106.629 167.693 106.754C167.693 108.226 167.691 109.698 167.691 111.172C167.622 111.193 167.554 111.215 167.483 111.234C167.358 111.153 167.266 111.045 167.209 110.908C167.112 109.424 166.77 107.928 167.426 106.48Z" fill="#39A29A"/>
<path d="M167.691 106.754C167.672 106.65 167.656 106.544 167.637 106.44C167.639 105.375 167.639 105.375 166.588 104.992C167.729 105.259 167.727 104.585 167.646 103.848C168.02 104.812 167.934 105.781 167.691 106.754Z" fill="#409897"/>
<path d="M167.672 118.018C167.317 117.772 167.459 117.397 167.426 117.068C167.029 116.605 167.097 116.048 167.105 115.5C167.114 115.155 167.123 114.812 167.329 114.512C167.438 114.396 167.556 114.385 167.688 114.474C167.683 115.658 167.679 116.837 167.672 118.018Z" fill="#229A88"/>
<path d="M167.684 114.478C167.597 114.476 167.512 114.476 167.425 114.473C167.087 114.154 167.11 113.734 167.099 113.323C167.087 112.85 167.077 112.378 167.113 111.903C167.134 111.624 167.193 111.36 167.422 111.168C167.51 111.168 167.595 111.171 167.682 111.171C167.684 112.274 167.684 113.375 167.684 114.478Z" fill="#309E92"/>
<path d="M169.99 118.01C169.995 118.56 169.999 119.111 170.006 119.661C169.654 119.113 169.68 118.563 169.99 118.01Z" fill="#040010"/>
<path d="M141.689 112.044C141.998 112.134 142.308 112.224 142.683 112.332C142.256 112.812 141.979 112.328 141.67 112.344C141.677 112.245 141.684 112.146 141.689 112.044Z" fill="#239082"/>
<path d="M157.247 125.049C157.245 124.768 157.245 124.487 157.242 124.204C157.734 124.412 157.467 124.785 157.438 125.106C157.438 125.113 157.367 125.127 157.337 125.118C157.304 125.108 157.278 125.073 157.247 125.049Z" fill="#050011"/>
<path d="M40.1836 99.7962C40.1836 96.2761 40.1836 92.7561 40.1836 89.236C40.2214 89.236 40.2592 89.236 40.297 89.236C40.297 92.7442 40.297 96.2525 40.297 99.7632C40.2592 99.7726 40.2214 99.7844 40.1836 99.7962Z" fill="#1C1819"/>
<path d="M150.831 89.9671C151.405 90.2837 151.62 90.7609 151.611 91.4224C151.583 93.6998 151.578 95.9796 151.611 98.2571C151.625 99.28 151.169 99.6438 150.182 99.6367C146.331 99.6108 142.48 99.606 138.629 99.6391C137.545 99.6486 137.171 99.1831 137.188 98.1437C137.226 95.9442 137.219 93.7447 137.188 91.5453C137.179 90.8578 137.327 90.3097 137.965 89.9695C138.142 89.7498 138.393 89.8088 138.62 89.8088C142.471 89.8065 146.321 89.8065 150.172 89.8088C150.404 89.8088 150.654 89.7498 150.831 89.9671Z" fill="#FEFEFE"/>
<path d="M171.64 89.9492C172.082 90.1476 172.401 90.4689 172.604 90.906C172.824 93.5519 172.843 96.2003 172.592 98.8463C172.297 99.4369 171.832 99.6424 171.163 99.6377C167.274 99.6117 163.386 99.6093 159.497 99.6353C158.543 99.6424 158.151 99.281 158.165 98.3147C158.2 95.9995 158.198 93.6819 158.162 91.3643C158.153 90.6886 158.377 90.2374 158.975 89.9539C159.162 89.7507 159.41 89.8051 159.639 89.8051C163.417 89.8027 167.194 89.8027 170.969 89.8051C171.201 89.8051 171.449 89.7554 171.64 89.9492Z" fill="#FEFEFE"/>
<path d="M143.628 85.455C144.15 85.051 144.75 84.9589 145.395 84.9589C151.589 84.9683 157.784 84.9589 163.978 84.966C165.5 84.9683 165.904 85.318 166.322 86.8772C166.246 88.5002 166.246 88.5002 164.541 88.5002C162.816 88.5002 161.089 88.4884 159.364 88.5026C157.578 88.5168 156.626 89.4712 156.596 91.2714C156.577 92.3676 156.577 93.4661 156.598 94.5647C156.61 95.1506 156.503 95.4908 155.811 95.2167C154.873 94.8458 153.966 95.3821 153.035 95.3467C152.797 93.7 152.875 92.051 152.993 90.402C152.56 89.0436 151.866 88.5168 150.406 88.5049C147.965 88.486 145.525 88.4908 143.087 88.486C142.468 87.0922 142.638 86.1236 143.628 85.455Z" fill="#FEFEFE"/>
<path d="M143.626 85.4535C142.868 86.3607 143.1 87.445 143.088 88.4845C142.698 88.4822 142.306 88.4774 141.916 88.4751C141.916 87.6978 141.916 86.9182 141.918 86.141C142.157 85.0897 142.823 85.0991 143.626 85.4535Z" fill="#48A3A9"/>
<path d="M141.92 105.975C141.92 104.404 141.92 102.833 141.92 101.262C143.451 101.113 142.707 102.268 142.865 102.908C142.529 103.83 142.948 104.815 142.629 105.738C142.629 105.816 142.629 105.897 142.629 105.975C142.392 106.166 142.156 106.166 141.92 105.975Z" fill="#369994"/>
<path d="M150.829 89.9671C146.541 89.9671 142.253 89.9671 137.965 89.9695C137.774 89.6316 138.05 89.686 138.218 89.686C142.336 89.6836 146.456 89.6836 150.574 89.686C150.678 89.686 150.782 89.7332 150.881 89.7757C150.888 89.7805 150.848 89.9009 150.829 89.9671Z" fill="#8C8E91"/>
<path d="M171.64 89.9505C167.419 89.9529 163.197 89.9552 158.975 89.9552C158.84 89.752 158.954 89.6835 159.138 89.6835C163.246 89.6812 167.357 89.6812 171.465 89.6835C171.534 89.6835 171.626 89.7072 171.662 89.7544C171.69 89.7946 171.65 89.8843 171.64 89.9505Z" fill="#8C8E91"/>
<path d="M158.959 99.889C163.19 99.889 167.419 99.889 171.65 99.889C171.65 99.9292 171.65 99.967 171.65 100.007C167.431 100.007 163.214 100.007 158.994 100.007C158.983 99.967 158.971 99.9292 158.959 99.889Z" fill="#8D8F92"/>
<path d="M150.577 100.039C146.457 100.039 142.337 100.039 138.217 100.039C138.217 99.9992 138.217 99.9614 138.217 99.9213C142.353 99.9213 146.49 99.9213 150.627 99.9213C150.608 99.9614 150.594 99.9992 150.577 100.039Z" fill="#8D8F92"/>
<path d="M172.588 98.8462C172.593 96.2003 172.595 93.5519 172.6 90.9059C172.654 90.802 172.815 90.5657 172.817 90.698C172.841 93.4243 172.81 96.1506 172.786 98.8769C172.786 98.8864 172.723 98.9077 172.692 98.9029C172.654 98.8958 172.621 98.8651 172.588 98.8462Z" fill="#8C8E92"/>
<path d="M157.801 98.8769C157.801 96.2215 157.801 93.5684 157.801 90.913C157.834 90.913 157.869 90.913 157.902 90.913C157.902 93.5684 157.902 96.2215 157.902 98.8769C157.869 98.8745 157.836 98.8769 157.801 98.8769Z" fill="#8C8E91"/>
<path d="M158.64 101.037C158.503 101.016 158.366 100.995 158.229 100.973C159.126 100.56 160.071 100.82 160.993 100.794C162.661 100.747 164.331 100.78 165.999 101.037C163.546 101.037 161.094 101.037 158.64 101.037Z" fill="#8E9093"/>
<path d="M151.145 101.027C148.565 101.027 145.983 101.027 143.403 101.027C143.403 100.945 143.4 100.862 143.4 100.779C145.576 100.779 147.754 100.772 149.93 100.786C150.341 100.789 150.804 100.635 151.145 101.027Z" fill="#8D8F92"/>
<path d="M152.994 90.4015C153.008 92.0505 153.022 93.6995 153.036 95.3462C152.604 93.7019 152.673 92.0529 152.994 90.4015Z" fill="#8C8E92"/>
<path d="M142.626 105.738C142.746 104.798 142.368 103.817 142.862 102.908C142.862 103.853 142.862 104.795 142.862 105.74C142.784 105.738 142.706 105.738 142.626 105.738Z" fill="#339790"/>
<path d="M170.021 100.953C169.336 100.953 168.649 100.953 167.964 100.953C167.961 100.92 167.961 100.889 167.959 100.856C168.646 100.856 169.332 100.856 170.019 100.856C170.019 100.889 170.019 100.922 170.021 100.953Z" fill="#999B9D"/>
<path d="M139.555 101.016C140.141 100.544 140.788 100.884 141.416 101.016C140.797 101.016 140.176 101.016 139.555 101.016Z" fill="#999B9D"/>
<path d="M153.062 97.2422C153.036 97.9438 153.012 98.6455 152.986 99.3472C152.7 98.636 152.587 97.9297 153.062 97.2422Z" fill="#8C8F92"/>
<path d="M21.7164 120.617C21.9881 120.617 22.2622 120.615 22.5339 120.615C24.3412 120.625 25.1255 121.218 25.4043 122.786C25.6878 124.383 24.9719 125.527 23.3489 126.068C22.7961 126.191 22.2433 126.233 21.6952 126.044L21.6928 126.042C21.5322 124.234 21.4778 122.425 21.7164 120.617Z" fill="#FEFDFD"/>
<path d="M21.721 120.618C21.714 122.425 21.7045 124.235 21.6974 126.042C21.31 124.233 21.2745 122.425 21.721 120.618Z" fill="#383435"/>
<path d="M21.6953 126.043C22.2458 126.05 22.7986 126.06 23.349 126.067C22.7939 126.381 22.241 126.421 21.6953 126.043Z" fill="#383435"/>
<path d="M98.968 124.088C98.5097 123.771 97.7395 124.376 97.7135 123.601C97.6923 122.964 98.2073 122.482 98.9585 122.493C99.6437 122.505 100.145 122.907 100.13 123.535C100.111 124.487 99.2468 123.625 98.968 124.088Z" fill="#F8F7F7"/>
<path d="M110.265 122.467C110.577 122.569 110.887 122.673 111.198 122.774C111.546 123.353 111.768 123.965 111.669 124.655C111.487 125.945 110.83 126.365 109.571 126.006C108.619 124.56 108.89 123.164 110.265 122.467Z" fill="#FBFBFB"/>
<path d="M76.227 126.258C75.9412 126.253 75.6553 126.249 75.3718 126.246C74.6394 125.634 74.7268 125.029 75.3954 124.434C75.5466 124.408 75.7002 124.389 75.849 124.354C77.3823 123.999 77.4012 124.016 77.1933 125.547C76.8696 125.783 76.5483 126.019 76.227 126.258Z" fill="#ECEBEB"/>
<path d="M44.306 124.584C43.9351 124.591 43.5642 124.601 43.1956 124.608C42.9475 123.804 42.4042 122.94 43.6587 122.458C43.8973 122.467 44.1382 122.474 44.3768 122.484C45.3077 123.405 45.2982 123.663 44.306 124.584Z" fill="#F8F7F7"/>
<path d="M167.431 111.168C167.431 111.404 167.431 111.64 167.429 111.877C167.249 112.049 167.042 112.085 166.817 112.007C166.926 111.891 166.73 112.099 166.713 111.95C166.706 111.877 166.597 111.877 166.621 111.924C166.869 112.415 166.765 112.949 166.805 113.469C166.786 113.977 166.883 114.506 166.534 114.953C166.361 115.805 166.751 116.713 166.283 117.537C166.3 114.246 166.304 110.953 166.342 107.662C166.347 107.244 166.078 106.689 166.716 106.445C167.266 106.523 167.042 106.965 167.049 107.244C167.075 108.165 167.049 109.091 167.063 110.013C167.072 110.436 167.032 110.87 167.431 111.168Z" fill="#2D958D"/>
<path d="M167.431 111.167C166.731 111.226 166.713 110.77 166.717 110.26C166.729 108.989 166.72 107.716 166.717 106.445C166.97 106.126 167.199 106.291 167.426 106.482C167.428 108.042 167.428 109.606 167.431 111.167Z" fill="#359891"/>
<path d="M143.059 117.304C142.515 116.67 143.231 115.747 142.562 115.144C142.846 114.87 143.047 114.877 143.059 115.319C143.073 115.978 143.059 116.642 143.059 117.304Z" fill="#239584"/>
<path d="M141.92 105.975C142.156 105.975 142.392 105.975 142.629 105.975C142.629 106.743 142.61 107.509 142.633 108.277C142.65 108.796 142.482 109.089 141.92 109.044C141.92 108.021 141.92 106.998 141.92 105.975Z" fill="#339790"/>
<path d="M167.428 113.291C167.428 113.683 167.428 114.078 167.428 114.47C167.428 114.786 167.428 115.101 167.428 115.417C167.076 115.687 166.899 115.434 166.719 115.181C166.719 115.103 166.719 115.025 166.719 114.945C166.516 114.411 166.585 113.87 166.684 113.326C166.923 113.088 167.171 113.1 167.428 113.291Z" fill="#279386"/>
<path d="M166.717 115.181C166.953 115.259 167.19 115.339 167.426 115.417C167.426 115.967 167.426 116.518 167.426 117.068C166.048 116.865 167.005 115.79 166.717 115.181Z" fill="#1F9081"/>
<path d="M166.717 113.292C166.717 113.842 166.717 114.393 166.717 114.946C166.653 114.946 166.592 114.948 166.53 114.953C166.528 114.402 166.525 113.854 166.525 113.304C166.556 113.273 166.587 113.245 166.618 113.214C166.648 113.24 166.681 113.266 166.717 113.292Z" fill="#1F9081"/>
<path d="M167.427 113.291C167.191 113.291 166.955 113.291 166.719 113.291C166.539 112.818 166.539 112.346 166.719 111.873C166.955 111.873 167.191 111.873 167.425 111.873C167.427 112.348 167.427 112.821 167.427 113.291Z" fill="#2D958B"/>
<path d="M166.722 111.877C166.722 112.349 166.722 112.822 166.722 113.294C166.656 113.294 166.592 113.299 166.528 113.306C166.519 112.779 166.507 112.252 166.5 111.726C166.5 111.702 166.543 111.678 166.564 111.655C166.616 111.728 166.668 111.803 166.722 111.877Z" fill="#279386"/>
</g>
<defs>
<clipPath id="clip0_5165_40865">
<rect width="192" height="192" fill="white"/>
</clipPath>
</defs>
</svg>
