<svg width="192" height="192" viewBox="0 0 192 192" fill="none" xmlns="http://www.w3.org/2000/svg">
<g clip-path="url(#clip0_4882_41322)">
<path d="M96 192C149.019 192 192 149.019 192 96C192 42.9807 149.019 0 96 0C42.9807 0 0 42.9807 0 96C0 149.019 42.9807 192 96 192Z" fill="white"/>
<path d="M66.7806 72.0483C67.3212 73.6217 67.8425 75.2049 68.412 76.7687C70.7288 83.1687 73.0745 89.5495 75.3719 95.9495C75.6326 96.6832 75.9608 96.9728 76.7909 96.9728C85.9325 96.9341 95.0644 96.9341 104.206 96.9728C104.978 96.9728 105.316 96.7121 105.538 96.0364C105.944 94.8201 106.407 93.6135 106.841 92.4068C106.899 92.2331 106.928 92.0496 106.996 91.7697C106.581 91.7407 106.243 91.7021 105.895 91.7021C98.3658 91.7021 90.8363 91.6925 83.3068 91.7021C82.689 91.7021 82.3898 91.5477 82.1774 90.9299C80.5653 86.3639 78.9146 81.8076 77.264 77.2417C77.235 77.1548 77.2157 77.0583 77.1771 76.9231C77.2736 76.8942 77.3508 76.8362 77.4281 76.8362C79.4166 76.8362 81.4052 76.8362 83.4034 76.8169C83.9053 76.8169 83.9922 77.1451 84.1081 77.4733C84.8996 79.6743 85.7105 81.8655 86.4731 84.0858C86.6951 84.7422 87.0233 85.0028 87.757 84.9932C96.9661 84.9642 106.175 84.9739 115.384 84.9739C115.664 84.9739 115.954 84.9739 116.34 84.9739C115.828 86.4122 115.346 87.754 114.863 89.0861C113.367 93.208 111.861 97.3396 110.365 101.461C110.316 101.597 110.259 101.722 110.201 101.857C109.959 102.446 109.872 103.305 109.438 103.566C108.926 103.875 108.096 103.711 107.411 103.701C104.08 103.682 100.75 103.624 97.4198 103.624C89.8903 103.633 82.3608 103.682 74.8314 103.701C73.8757 103.701 72.9104 103.672 71.9644 103.595C71.7327 103.576 71.3948 103.334 71.3176 103.112C69.6669 98.6621 68.0452 94.1926 66.4234 89.7329C65.1782 86.306 63.9136 82.8695 62.6877 79.4329C62.5139 78.9599 62.2436 78.8344 61.7803 78.8344C59.338 78.8538 56.8861 78.8344 54.4439 78.8538C53.8743 78.8538 53.5558 78.7476 53.353 78.1298C52.658 76.0736 51.8858 74.0368 51.1328 72C56.3648 72 61.5872 72 66.8192 72L66.7806 72.0483Z" fill="#FBCB5B"/>
<path d="M134.769 87.9951C133.688 90.9683 132.636 93.8449 131.593 96.7312C132.732 97.0401 132.896 96.9725 133.263 95.959C134.171 93.4684 135.068 90.9683 135.995 88.4874C136.072 88.2943 136.314 88.0144 136.478 88.0144C138.659 87.9854 140.831 87.9951 143.119 87.9951C142.028 90.9876 140.976 93.8932 139.895 96.8567H144.393V96.0555C144.393 93.536 144.364 91.0262 144.413 88.5164C144.422 87.7345 144.509 86.9236 144.75 86.1899C145.397 84.1917 147.019 83.3326 148.95 83.2843C153.12 83.1782 157.3 83.1685 161.47 83.2843C164.288 83.3616 165.91 85.1281 165.958 87.9565C166.016 91.644 166.016 95.3315 165.958 99.019C165.91 101.963 164.192 103.643 161.228 103.788C160.891 103.807 160.553 103.807 160.224 103.807C144.152 103.807 128.089 103.807 112.017 103.807C111.804 103.807 111.582 103.807 111.254 103.807C111.466 103.208 111.659 102.658 111.852 102.118C112.422 100.544 113.011 98.9804 113.561 97.3973C113.706 96.9822 113.918 96.8664 114.333 96.8567C115.945 96.8471 115.936 96.8277 116.476 95.3219C117.287 93.0727 118.117 90.8331 118.919 88.5839C119.083 88.1302 119.295 87.9661 119.797 87.9758C121.67 88.0144 123.542 87.9854 125.405 87.9951C125.608 87.9951 125.821 88.0144 126.1 88.0337C125.029 90.9779 123.986 93.8642 122.896 96.8567C123.446 96.8567 123.9 96.9146 124.334 96.8278C124.508 96.7988 124.691 96.4995 124.778 96.2775C125.714 93.7484 126.641 91.2096 127.539 88.6708C127.713 88.1688 127.944 87.9661 128.504 87.9758C130.56 88.0144 132.616 87.9951 134.779 87.9951H134.769ZM155.108 90.1284C154.394 90.1284 153.67 90.0995 152.956 90.1284C152.077 90.1671 151.575 90.6401 151.537 91.5185C151.488 92.812 151.488 94.1056 151.537 95.3894C151.566 96.3161 152.048 96.8181 152.975 96.8567C154.413 96.9146 155.852 96.9146 157.29 96.8567C158.236 96.8181 158.738 96.2679 158.757 95.3315C158.786 94.0862 158.786 92.841 158.757 91.5957C158.738 90.6594 158.226 90.1574 157.271 90.1091C156.556 90.0802 155.832 90.1091 155.118 90.1091L155.108 90.1284Z" fill="#1D2F6D"/>
<path d="M47.5507 96.828C47.9368 96.828 48.2168 96.828 48.5064 96.828C54.3369 96.828 60.1674 96.8377 65.9883 96.8087C66.635 96.8087 66.9439 96.9632 67.1467 97.6196C67.7838 99.666 68.5078 101.684 69.2221 103.807C68.9035 103.807 68.6719 103.807 68.4402 103.807C56.1807 103.807 43.9308 103.807 31.6712 103.788C30.7252 103.788 29.7503 103.633 28.8525 103.363C27.1053 102.832 26.1207 101.5 26.0724 99.7336C25.9759 95.5924 25.9759 91.4512 26.0724 87.31C26.1207 85.0029 27.9355 83.3425 30.5032 83.2749C34.6734 83.1688 38.8532 83.1591 43.0234 83.2749C45.8421 83.3522 47.4638 85.1187 47.5218 87.9374C47.5797 90.5728 47.5411 93.2081 47.5507 95.8434C47.5507 96.1233 47.5507 96.4129 47.5507 96.828ZM36.7971 96.8859C37.4631 96.8859 38.1389 96.9052 38.8049 96.8859C39.9151 96.8377 40.4363 96.326 40.4556 95.2352C40.4749 94.0672 40.4749 92.8895 40.4556 91.7215C40.4363 90.6886 39.9344 90.1577 38.9208 90.1384C37.5307 90.1094 36.1407 90.1094 34.7506 90.1384C33.7467 90.1577 33.2447 90.6596 33.2254 91.6442C33.1964 92.8605 33.1964 94.0865 33.2254 95.3028C33.2447 96.326 33.7563 96.828 34.7892 96.8859C35.4553 96.9245 36.131 96.8859 36.7971 96.8859Z" fill="#1D2F6D"/>
<path d="M51.037 87.9374C51.0177 84.7519 53.5661 82.1745 56.7613 82.1455C59.9179 82.1165 62.5436 84.6939 62.5822 87.8602C62.6208 91.0361 59.9951 93.6907 56.7999 93.6907C53.624 93.6907 51.0467 91.123 51.0273 87.9374H51.037Z" fill="#1D2F6D"/>
<path d="M103.142 113.644C103.267 116.366 101.037 119.301 97.514 119.31C94.1836 119.31 91.8475 116.714 91.8379 113.673C91.8379 110.545 94.3477 107.949 97.4464 107.958C100.777 107.968 103.267 110.7 103.151 113.634L103.142 113.644Z" fill="#FBCB5B"/>
<path d="M88.4778 113.625C88.613 116.327 86.4217 119.291 82.8693 119.31C79.4907 119.33 77.174 116.646 77.1836 113.692C77.1836 110.507 79.6934 107.958 82.8404 107.958C85.9584 107.958 88.4682 110.478 88.4778 113.625Z" fill="#FBCB5B"/>
<path d="M159.797 80.6786C157.876 80.6786 156.284 79.0666 156.303 77.1359C156.322 75.2246 157.896 73.6415 159.768 73.6318C161.747 73.6318 163.34 75.2149 163.321 77.1842C163.301 79.1341 161.747 80.6786 159.788 80.6786H159.797Z" fill="#1D2F6D"/>
<path d="M155.288 77.1842C155.288 79.1438 153.734 80.6883 151.784 80.6787C149.863 80.669 148.289 79.057 148.309 77.136C148.328 75.1957 149.921 73.6222 151.842 73.6319C153.753 73.6415 155.307 75.2343 155.298 77.1842H155.288Z" fill="#1D2F6D"/>
</g>
<defs>
<clipPath id="clip0_4882_41322">
<rect width="192" height="192" fill="white"/>
</clipPath>
</defs>
</svg>
