<svg width="192" height="192" viewBox="0 0 192 192" fill="none" xmlns="http://www.w3.org/2000/svg">
<g clip-path="url(#clip0_4882_41419)">
<path d="M96 192C149.019 192 192 149.019 192 96C192 42.9807 149.019 0 96 0C42.9807 0 0 42.9807 0 96C0 149.019 42.9807 192 96 192Z" fill="white"/>
<path d="M111.653 90.0766C113.724 89.2599 115.7 88.4141 117.727 87.7141C118.573 87.4224 119.521 87.386 120.425 87.3058C121.774 87.1818 121.774 87.211 121.774 88.6037C121.774 94.4004 121.774 100.19 121.774 105.987C121.774 108.108 122.765 109.034 124.865 108.889C126.411 108.787 127.17 107.912 127.177 106.147C127.191 100.999 127.177 95.8514 127.177 90.6963C127.177 89.8505 127.213 88.9974 127.17 88.1589C127.133 87.4735 127.352 87.1672 128.088 87.2183C128.963 87.2766 129.853 87.2839 130.735 87.2183C131.581 87.1527 131.749 87.5099 131.749 88.2756C131.727 94.5754 131.734 100.875 131.734 107.182C131.734 107.722 131.734 108.254 131.734 108.779C133.119 108.962 134.009 108.378 134.279 107.153C134.366 106.759 134.381 106.351 134.381 105.943C134.381 100.146 134.381 94.3567 134.381 88.5599V87.2985H138.836C138.85 87.6631 138.88 88.0203 138.88 88.3776C138.88 94.2692 138.843 100.168 138.923 106.06C138.931 106.898 139.448 107.744 139.828 108.539C139.886 108.67 140.586 108.699 140.783 108.531C141.636 107.809 141.687 106.767 141.687 105.739C141.687 100.015 141.687 94.291 141.687 88.5599C141.687 88.1662 141.687 87.7651 141.687 87.2402C143.094 87.2402 144.377 87.211 145.653 87.2766C145.821 87.2839 146.098 87.7943 146.106 88.0787C146.142 90.113 146.127 92.1473 146.127 94.1744C146.127 98.0389 146.127 101.896 146.127 105.761C146.127 108.116 146.981 108.925 149.314 108.903C152.537 108.881 155.759 108.903 158.982 108.889C159.872 108.889 160.689 108.714 161.235 107.722C159.843 107.634 158.596 107.634 157.378 107.467C153.849 106.978 151.516 104.244 151.516 100.715C151.516 98.5493 151.516 96.3764 151.516 94.2108C151.516 90.5505 154.024 87.7287 157.692 87.2912C160.244 86.985 162.446 87.8016 164.291 89.5443C165.45 90.638 165.982 92.0307 165.975 93.6494C165.953 97.8857 165.873 102.122 165.997 106.351C166.106 110.194 163.474 112.141 160.761 112.906C160.149 113.081 159.493 113.161 158.858 113.161C155.606 113.183 152.347 113.14 149.088 113.183C147.513 113.205 146.084 112.826 144.735 112.024C144.465 111.864 143.925 111.834 143.685 111.995C141.454 113.526 139.31 113.621 137.144 111.856C136.933 111.681 136.371 111.696 136.116 111.856C134.118 113.081 131.96 113.38 129.612 113.11C129.576 112.629 129.539 112.17 129.503 111.718C128.322 112.155 127.191 112.695 126.003 112.986C123.969 113.497 122.022 113.154 120.294 111.929C119.769 111.557 119.397 111.543 118.857 111.9C117.501 112.797 115.984 113.198 114.336 113.191C104.296 113.169 94.2557 113.176 84.2226 113.191C83.4934 113.191 82.7497 113.358 82.0351 113.548C81.8164 113.606 81.5685 113.956 81.5393 114.197C81.5174 114.379 81.7872 114.729 81.9841 114.78C82.6914 114.962 83.4278 115.159 84.157 115.159C90.836 115.188 97.5223 115.196 104.201 115.159C105.237 115.159 105.616 115.429 105.499 116.464C105.419 117.164 105.463 117.886 105.492 118.594C105.514 119.184 105.31 119.447 104.675 119.447C97.3837 119.432 90.0922 119.505 82.8007 119.403C78.9217 119.352 76.6759 116.224 77.6675 112.622C78.2654 110.434 80.4893 108.903 83.1507 108.903C89.9683 108.889 96.7858 108.896 103.603 108.903C106.571 108.903 107.132 108.364 107.132 105.338C107.132 94.7358 107.132 84.1267 107.132 73.5248C107.132 72.052 107.132 72.0301 108.62 72.052C109.59 72.0665 110.858 71.8113 111.434 72.3145C111.923 72.7447 111.646 74.0863 111.646 75.0269C111.66 79.8028 111.646 84.5788 111.646 89.3547V90.0838L111.653 90.0766ZM111.69 108.881C112.47 108.881 113.483 108.881 114.49 108.881C116.451 108.874 117.238 108.079 117.246 106.089C117.253 101.721 117.246 97.3535 117.246 92.9932C117.246 92.7452 117.187 92.4973 117.151 92.2202C113.286 93.6567 111.916 96.6826 111.719 100.358C111.573 103.15 111.69 105.957 111.69 108.881ZM161.461 98.4982C161.461 97.142 161.491 95.7858 161.454 94.4369C161.41 92.9057 160.579 92.0744 159.055 91.9578C157.174 91.8119 156.073 92.7015 155.956 94.6046C155.869 96.0191 155.92 97.4483 155.92 98.8701C155.92 102.888 156.693 103.595 160.718 103.354C161.294 103.318 161.483 103.121 161.476 102.56C161.447 101.203 161.469 99.8472 161.469 98.4982H161.461Z" fill="#262626"/>
<path d="M39.5986 113.147V110.172C39.2997 110.42 39.1247 110.537 38.9789 110.69C35.7925 113.993 30.7686 114 27.5677 110.704C26.5469 109.655 26.0219 108.408 26.0146 106.957C26.0146 95.6767 26.0219 84.4041 26 73.1241C26 72.2929 26.226 71.9502 27.0864 72.0231C27.8593 72.0814 28.6468 72.0887 29.427 72.0231C30.3093 71.9502 30.5134 72.3293 30.4989 73.1387C30.4551 75.647 30.4843 78.148 30.4843 80.6562C30.4843 89.056 30.4843 97.4558 30.4843 105.856C30.4843 108.043 31.4395 108.998 33.4811 108.889C35.0415 108.809 35.88 107.941 35.9237 106.366C35.9966 103.763 35.9821 101.153 36.1644 98.5569C36.4341 94.8017 37.6154 91.4112 40.5611 88.8373C42.6902 86.9707 43.5798 86.9853 45.7891 88.7352C49.0193 91.2872 49.989 94.8674 50.3244 98.6881C50.5432 101.175 50.5359 103.69 50.5578 106.191C50.5942 110.07 48.0057 112.863 44.1121 113.133C42.6392 113.235 41.1517 113.147 39.5986 113.147ZM43.0329 92.381C42.4642 93.3507 41.7934 94.1528 41.4944 95.0715C41.0788 96.3475 40.809 97.7038 40.7142 99.0381C40.4882 102.29 40.4007 105.557 40.2622 108.816C40.4226 108.845 40.5174 108.882 40.6195 108.882C41.6038 108.882 42.5882 108.896 43.5725 108.882C45.1183 108.852 46.037 108.043 46.0152 106.512C45.9714 103.603 45.9131 100.686 45.6579 97.7913C45.4829 95.8225 44.7319 93.9997 43.0329 92.381Z" fill="#262626"/>
<path d="M62.1801 87.2913H66.6279C66.6571 87.6924 66.7008 88.0788 66.7008 88.4653C66.7008 94.3568 66.7008 100.248 66.7008 106.14C66.7008 110.085 64.1342 112.826 60.1822 113.147C57.4698 113.366 55.2751 112.389 53.5251 110.362C52.672 109.377 52.2783 108.203 52.2783 106.905C52.2783 95.662 52.2855 84.4258 52.2637 73.1823C52.2637 72.3146 52.4678 71.9282 53.3939 72.0156C54.1303 72.0886 54.8886 72.0886 55.6251 72.0156C56.5584 71.9282 56.7552 72.3219 56.7479 73.1823C56.7188 84.0466 56.7261 94.9183 56.7334 105.783C56.7334 107.955 57.6448 108.94 59.5698 108.896C61.2978 108.852 62.1728 107.977 62.1728 106.227C62.1801 100.336 62.1728 94.4443 62.1728 88.5528V87.2841L62.1801 87.2913Z" fill="#262626"/>
<path d="M162 85.9206C160.433 85.906 159.244 84.7029 159.244 83.1498C159.244 81.5822 160.557 80.2697 162.081 80.3062C163.655 80.3426 164.917 81.6332 164.902 83.1863C164.888 84.7467 163.626 85.9352 162 85.9206Z" fill="#262626"/>
<path d="M66.819 117.055C66.8336 118.615 65.5576 119.877 63.9753 119.862C62.4514 119.848 61.1827 118.601 61.1681 117.099C61.1535 115.546 62.4222 114.262 63.9826 114.255C65.5795 114.248 66.8044 115.458 66.819 117.055Z" fill="#262626"/>
<path d="M155.993 85.9206C154.44 85.9206 153.215 84.7321 153.186 83.2082C153.157 81.6624 154.426 80.3426 155.964 80.3062C157.503 80.2697 158.793 81.5603 158.808 83.128C158.822 84.7321 157.627 85.9133 155.986 85.9206H155.993Z" fill="#262626"/>
</g>
<defs>
<clipPath id="clip0_4882_41419">
<rect width="192" height="192" fill="white"/>
</clipPath>
</defs>
</svg>
