<svg width="192" height="192" viewBox="0 0 192 192" fill="none" xmlns="http://www.w3.org/2000/svg">
<g clip-path="url(#clip0_4880_37890)">
<path d="M96 192C149.019 192 192 149.019 192 96C192 42.9807 149.019 0 96 0C42.9807 0 0 42.9807 0 96C0 149.019 42.9807 192 96 192Z" fill="white"/>
<path d="M34.0391 127.477C34.0391 118.634 33.9194 109.783 34.099 100.94C34.2272 94.8332 39.5724 89.7959 45.6959 89.565C45.7985 89.565 45.9012 89.5992 46.115 89.6334C46.1406 90.0781 46.1748 90.5314 46.1748 90.9847C46.1748 98.4252 46.1748 105.874 46.1748 113.315C46.1748 114.974 46.2176 115.017 47.8682 115.017C57.6435 115.017 67.4188 115.017 77.1855 115.017C78.6908 115.017 78.7677 114.948 78.7677 113.443C78.7763 110.21 78.7763 106.969 78.7677 103.736C78.7677 102.325 78.6309 102.205 77.2026 102.205C70.2411 102.205 63.2795 102.205 56.3179 102.205C55.8903 102.205 55.4627 102.205 54.7699 102.205C54.9666 101.017 55.0607 99.9304 55.3429 98.887C56.7797 93.4905 61.8512 89.5735 67.4616 89.5564C75.1073 89.5308 82.7531 89.5564 90.3989 89.5308C91.3567 89.5308 91.639 89.8386 91.639 90.7709C91.6133 99.0067 91.6646 107.243 91.6048 115.479C91.562 121.585 87.474 126.22 81.3762 127.264C81.1709 127.298 80.9742 127.409 80.7775 127.486H34.0391V127.477Z" fill="#0046C1"/>
<path d="M100.271 127.477C100.023 121.43 105 115.735 111.021 115.213C112.133 115.119 113.253 115.068 114.365 115.068C124.174 115.059 133.975 115.068 143.785 115.068C144.834 115.068 145.358 114.552 145.358 113.52C145.358 109.928 145.358 106.327 145.358 102.735C145.367 95.7906 149.746 90.6934 156.622 89.6244C157.032 89.5645 157.469 89.6244 157.956 89.6244C157.973 90.0092 157.999 90.3599 157.999 90.7105C157.999 98.7583 158.007 106.815 157.999 114.862C157.999 121.208 153.577 126.314 147.3 127.263C147.06 127.297 146.829 127.417 146.59 127.494H100.271V127.477Z" fill="#0046C1"/>
<path d="M136.763 89.5391C136.583 90.7364 136.523 91.8054 136.249 92.8146C134.727 98.4164 129.801 102.179 123.985 102.197C116.99 102.214 109.994 102.197 102.998 102.197C101.014 102.197 100.27 101.452 100.261 99.4598C100.261 92.0192 100.338 84.5702 100.236 77.1297C100.142 70.5187 105.427 64.4808 113.03 64.5064C127.56 64.5492 142.099 64.5235 156.63 64.5235C157.057 64.5235 157.476 64.5235 157.998 64.5235C157.955 66.405 157.622 68.1155 156.826 69.6977C154.432 74.4613 150.498 76.8474 145.187 76.8645C134.941 76.9073 124.704 76.8731 114.458 76.8816C113.346 76.8816 112.788 77.4461 112.782 78.575C112.782 81.7736 112.808 84.9721 112.765 88.1793C112.748 89.2055 113.115 89.5647 114.15 89.5647C121.18 89.5305 128.219 89.5476 135.249 89.5476C135.668 89.5476 136.095 89.5476 136.763 89.5476V89.5391Z" fill="#0046C1"/>
<path d="M91.615 64.5238C91.5637 68.4579 90.0585 71.5111 87.2448 73.9399C84.9442 75.924 82.2075 76.8562 79.1971 76.8648C64.4871 76.8905 49.7856 76.8648 35.0756 76.8905C34.229 76.8905 33.9638 76.6595 34.0237 75.7787C34.4086 70.2539 39.0439 65.3448 44.5516 64.712C45.518 64.6008 46.493 64.5409 47.4594 64.5409C61.699 64.5324 75.9386 64.5409 90.1697 64.5409C90.5973 64.5409 91.0164 64.5409 91.6065 64.5409L91.615 64.5238Z" fill="#0046C1"/>
</g>
<defs>
<clipPath id="clip0_4880_37890">
<rect width="192" height="192" fill="white"/>
</clipPath>
</defs>
</svg>
