<svg width="192" height="192" viewBox="0 0 192 192" fill="none" xmlns="http://www.w3.org/2000/svg">
<g clip-path="url(#clip0_4880_38655)">
<path d="M96 192C149.019 192 192 149.019 192 96C192 42.9807 149.019 0 96 0C42.9807 0 0 42.9807 0 96C0 149.019 42.9807 192 96 192Z" fill="white"/>
<path d="M122.663 58.4709C122.644 51.4419 117.739 46.2378 110.797 46.1123C103.159 45.9674 95.5125 45.9578 87.8655 46.1123C80.9717 46.2571 76.1924 51.3261 76.1441 58.2585C76.1055 64.7372 76.1441 71.2158 76.1441 77.7041C76.1441 84.1924 76.1055 90.8545 76.1441 97.42C76.1924 104.42 81.2421 109.47 88.1938 109.508C95.5607 109.537 102.928 109.537 110.304 109.508C117.526 109.489 122.634 104.362 122.653 97.0918C122.682 84.2214 122.682 71.351 122.653 58.4709H122.663ZM88.609 50.0419C88.6669 48.8543 88.9855 48.4874 90.1635 48.4971C96.5166 48.5454 102.879 48.555 109.242 48.4971C110.536 48.4874 110.71 49.0378 110.69 50.1192C110.642 53.5854 110.671 57.042 110.671 60.5082C110.671 63.7813 110.604 67.0641 110.7 70.3468C110.748 71.7951 110.324 72.1813 108.866 72.1427C96.7194 71.7565 87.9814 62.2365 88.609 50.0516V50.0419ZM110.7 106.042C110.642 107.404 110.198 107.732 108.943 107.712C102.754 107.664 96.5649 107.645 90.3759 107.722C88.8117 107.741 88.5897 107.075 88.6186 105.762C88.6862 102.47 88.638 99.1869 88.638 95.8945C88.638 92.6986 88.7345 89.5028 88.609 86.3069C88.5414 84.5786 88.9276 83.9896 90.8297 84.0862C102.947 84.7427 111.241 93.8766 110.71 106.032L110.7 106.042Z" fill="#262626"/>
<path d="M165.282 131.329C164.066 129.099 161.575 128.152 158.495 128.674C158.012 128.751 157.133 129.272 157.066 128.819C156.592 125.864 154.459 128.017 153.252 127.38C154.613 128.732 154.082 130.402 153.957 131.86C153.85 133.125 152.412 132.574 151.601 132.816C149.641 133.405 148.415 134.419 148.347 136.61C148.308 137.779 149.206 138.57 149.438 139.642C145.441 139.777 143.014 137.92 142.158 134.071C141.26 130.026 137.707 127.911 133.729 129.06C130.369 130.026 129.114 131.87 128.824 136.253C128.631 139.111 128.042 139.69 125.232 139.7C124.518 139.7 123.803 139.652 123.099 139.71C122.017 139.816 121.757 139.323 121.776 138.329C121.834 136.108 121.843 133.888 121.776 131.677C121.747 130.518 121.882 129.523 123.398 128.848C122.558 128.809 122.162 128.848 121.776 128.77C119.478 128.346 118.995 129.282 118.937 131.551C118.831 136.33 120.105 141.274 117.373 146.082C119.652 145.416 121.071 144.315 121.467 142.384C121.766 140.907 122.568 140.81 123.774 140.82C125.773 140.83 127.926 141.303 129.51 139.497C132.252 142.558 135.621 143.736 138.586 141.95C140.69 140.685 142.245 140.241 144.871 140.627C149.824 141.351 154.961 140.83 160.01 140.83C161.748 140.83 163.264 140.308 164.423 138.918C166.132 136.881 166.508 133.579 165.273 131.329H165.282ZM135.699 141.506C133.507 141.592 131.653 138.947 131.653 135.712C131.653 132.594 133.343 130.054 135.486 129.968C137.697 129.881 139.57 132.526 139.561 135.732C139.561 138.783 137.794 141.409 135.699 141.496V141.506ZM152.846 139.671C151.021 139.671 150.23 138.435 150.22 136.678C150.21 134.776 151.234 133.472 153.03 133.559C154.159 133.617 154.256 134.139 154.169 134.776C154.082 135.413 154.179 138.049 154.188 138.735C154.198 139.266 153.957 139.671 152.837 139.671H152.846ZM162.975 137.141C162.231 139.121 160.773 139.768 158.717 139.758C157.278 139.758 156.699 139.401 156.892 137.914C156.998 137.064 156.911 136.176 156.911 135.307C156.911 134.525 156.921 133.733 156.911 132.941C156.892 131.686 157.114 130.614 158.466 130.064C159.817 129.504 160.937 129.91 161.961 130.75C163.477 132.005 163.892 134.699 162.975 137.132V137.141Z" fill="#262626"/>
<path d="M92.8479 131.551C92.9542 132.729 92.9252 133.926 92.8479 135.114C92.6259 138.281 90.8203 140.27 87.6438 140.569C85.4521 140.781 83.2314 140.694 81.0107 140.704C71.0561 140.704 61.1016 140.656 51.1375 140.752C49.245 140.772 48.5499 140.443 48.6368 138.358C48.8202 134.081 48.8202 129.794 48.6368 125.516C48.5499 123.344 49.1678 122.494 51.3209 122.871C51.765 122.948 52.2382 122.871 52.7016 122.871C51.6009 123.498 51.4271 124.425 51.4368 125.536C51.4754 129.659 51.5237 133.781 51.4368 137.904C51.4078 139.343 51.9581 139.565 53.2133 139.555C58.9002 139.497 64.5968 139.488 70.2837 139.555C71.6258 139.565 72.1665 139.188 71.983 137.827C71.8962 137.199 71.983 136.562 71.9637 135.925C71.8286 131.155 70.7375 130.074 66.0451 130.074H56.5251C58.5816 127.824 60.2327 125.748 62.1637 123.991C63.7954 122.504 65.1375 123.634 66.3444 125.198C62.994 123.865 61.8161 126.434 59.7016 128.587C62.5789 128.587 64.9058 128.558 67.223 128.587C72.4465 128.664 74.841 131.126 74.8506 136.388C74.8506 139.603 75.5941 140.125 78.8865 139.545C79.852 139.381 79.7555 138.841 79.7555 138.213C79.7555 135.838 79.9293 133.443 79.7072 131.087C79.4948 128.886 80.3058 128.239 82.3238 128.567C82.7583 128.635 83.2217 128.567 84.2741 128.567C82.7583 129.33 82.4879 130.199 82.5169 131.3C82.5845 133.521 82.6134 135.741 82.5169 137.952C82.4589 139.256 82.9514 139.497 84.139 139.526C88.9955 139.642 90.0866 138.609 90.1155 133.617C90.1155 133.144 90.1155 132.671 90.1155 132.188C90.1155 129.736 91.464 128.545 94.161 128.616C93.099 129.417 92.761 130.344 92.8673 131.512L92.8479 131.551Z" fill="#262626"/>
<path d="M45.0753 131.657C45.1332 133.473 45.2298 135.288 44.7953 137.093C44.3125 139.092 43.0767 140.376 41.078 140.55C37.6215 140.849 34.1263 140.975 30.689 140.453C28.0242 140.048 26.4021 138.136 26.0545 135.471C25.7359 133.067 26.8463 130.364 28.5263 129.456C30.9401 128.162 33.6725 128.365 35.4877 129.997C35.758 130.537 35.8932 131.011 35.0049 130.972C33.6725 129.746 32.118 129.659 30.6118 130.383C29.067 131.126 28.8449 132.642 28.8352 134.235C28.8063 138.822 29.5497 139.604 34.1649 139.613C35.3525 139.613 36.5304 139.613 37.718 139.575C41.0394 139.488 42.2174 138.339 42.4008 134.998C42.4491 134.129 42.4008 133.251 42.4008 132.382C42.4008 129.807 43.8394 128.581 46.7167 128.703C45.2105 129.417 45.027 130.451 45.0753 131.667V131.657Z" fill="#262626"/>
<path d="M111.63 128.838C108.637 128.838 106.358 128.819 104.07 128.857C103.529 128.857 102.989 129.041 102.458 129.186C99.4549 129.987 97.3887 132.507 97.6398 135.046C97.9198 137.981 100.575 140.579 103.626 140.791C105.277 140.897 106.938 140.762 108.589 140.878C109.796 140.955 110.027 140.453 109.998 139.372C109.94 136.765 109.998 134.158 109.969 131.551C109.96 130.499 110.008 129.533 111.63 128.838ZM105.943 139.681C102.564 140.067 100.469 138.513 100.169 135.626C99.986 133.897 100.536 132.333 101.869 131.175C103.134 130.074 104.688 129.63 106.262 130.151C107.169 130.45 107.314 131.049 107.285 131.715C107.266 132.285 107.247 135.075 107.247 135.075C107.247 135.317 107.305 137.315 107.42 138.107C107.536 138.899 107.353 139.517 105.943 139.681Z" fill="#262626"/>
<path d="M116.194 126.067C116.194 130.257 116.223 134.447 116.184 138.638C116.184 139.574 116.793 140.926 114.804 140.878C112.776 140.829 113.558 139.42 113.539 138.532C113.471 134.264 113.626 129.987 113.452 125.719C113.365 123.576 113.944 122.678 116.117 123.074C116.493 123.141 116.899 123.074 117.285 123.074C116.078 123.817 116.184 124.947 116.184 126.057L116.194 126.067Z" fill="#262626"/>
<path d="M39.3325 124.609C39.1973 125.758 38.6084 126.337 37.6332 126.337C36.5325 126.337 35.8663 125.719 35.9146 124.561C35.9532 123.537 36.6097 122.938 37.5753 122.929C38.676 122.929 39.2263 123.643 39.3422 124.599L39.3325 124.609Z" fill="#262626"/>
<path d="M93.458 124.145C93.5449 124.464 93.5449 124.802 93.458 125.12C93.2649 125.864 92.7628 126.298 91.9132 126.317C90.7835 126.346 90.1076 125.699 90.1173 124.599C90.1173 123.614 90.7642 122.967 91.7394 122.919C92.6759 122.88 93.2359 123.353 93.4483 124.145H93.458Z" fill="#262626"/>
<path d="M83.0107 143.649C83.0976 143.967 83.0976 144.305 83.0107 144.624C82.8176 145.367 82.3156 145.802 81.4659 145.821C80.3362 145.85 79.6604 145.203 79.67 144.102C79.67 143.118 80.3169 142.471 81.2921 142.422C82.2287 142.384 82.7887 142.857 83.0011 143.649H83.0107Z" fill="#262626"/>
<path d="M79.5556 143.649C79.6425 143.967 79.6425 144.305 79.5556 144.624C79.3625 145.367 78.8605 145.802 78.0108 145.821C76.8812 145.85 76.2053 145.203 76.2149 144.102C76.2149 143.118 76.8618 142.471 77.837 142.422C78.7736 142.384 79.3336 142.857 79.546 143.649H79.5556Z" fill="#262626"/>
<path d="M35.9309 132.662C35.1488 132.285 35.1006 131.609 35.0137 130.972C35.4482 130.788 35.4192 130.364 35.4964 129.997C36.3268 130.74 36.0854 131.648 35.9309 132.662Z" fill="#262626"/>
<path d="M99.6629 104.661C97.2491 104.661 95.2891 102.701 95.2891 100.287C95.2891 97.8736 97.2491 95.9136 99.6629 95.9136C102.077 95.9136 104.037 97.8736 104.037 100.287C104.037 102.701 102.077 104.661 99.6629 104.661ZM99.6629 96.5798C97.616 96.5798 95.9553 98.2405 95.9553 100.287C95.9553 102.334 97.616 103.995 99.6629 103.995C101.71 103.995 103.37 102.334 103.37 100.287C103.37 98.2405 101.71 96.5798 99.6629 96.5798Z" fill="#262626"/>
<path d="M99.6624 102.131C100.686 102.131 101.516 101.301 101.516 100.277C101.516 99.2536 100.686 98.4236 99.6624 98.4236C98.6386 98.4236 97.8086 99.2536 97.8086 100.277C97.8086 101.301 98.6386 102.131 99.6624 102.131Z" fill="#262626"/>
</g>
<defs>
<clipPath id="clip0_4880_38655">
<rect width="192" height="192" fill="white"/>
</clipPath>
</defs>
</svg>
