<svg width="192" height="192" viewBox="0 0 192 192" fill="none" xmlns="http://www.w3.org/2000/svg">
<g clip-path="url(#clip0_4880_38237)">
<path d="M96 192C149.019 192 192 149.019 192 96C192 42.9807 149.019 0 96 0C42.9807 0 0 42.9807 0 96C0 149.019 42.9807 192 96 192Z" fill="white"/>
<path d="M45.4095 43C52.7295 43 60.0495 43.02 67.3395 43.05V69.14C59.9495 64.91 52.5395 60.71 45.2695 56.29C45.3395 51.85 45.3595 47.44 45.4095 43Z" fill="#262626"/>
<path d="M124.57 43.02C131.87 43.07 139.19 43.07 146.48 43.07C146.43 47.58 146.39 52.11 146.36 56.62C139.06 60.78 131.79 64.96 124.52 69.19C124.59 60.45 124.59 51.74 124.57 43.03V43.02Z" fill="#262626"/>
<path d="M45.29 68.89C61.63 77.93 78.05 86.81 94.43 95.75C94.41 104.37 94.41 113.01 94.43 121.64C85.37 116.48 76.21 111.49 67.22 106.23C67.24 120.57 67.24 134.93 67.24 149.26C59.83 149.31 52.42 149.31 45 149.28C45.49 122.49 45.16 95.67 45.28 68.88L45.29 68.89Z" fill="#262626"/>
<path d="M97.5695 95.91C113.86 87.06 130.1 78.11 146.39 69.26C146.27 95.91 146.41 122.54 146.41 149.19C139.21 149.17 132 149.19 124.8 149.28C124.71 134.83 124.82 120.37 124.73 105.94C115.81 111.35 106.63 116.3 97.5195 121.39C97.5395 112.91 97.5695 104.4 97.5695 95.9V95.91Z" fill="#262626"/>
</g>
<defs>
<clipPath id="clip0_4880_38237">
<rect width="192" height="192" fill="white"/>
</clipPath>
</defs>
</svg>
