<svg width="192" height="192" viewBox="0 0 192 192" fill="none" xmlns="http://www.w3.org/2000/svg">
<g clip-path="url(#clip0_4880_38681)">
<path d="M96 192C149.019 192 192 149.019 192 96C192 42.9807 149.019 0 96 0C42.9807 0 0 42.9807 0 96C0 149.019 42.9807 192 96 192Z" fill="white"/>
<path d="M84.0705 29.5669C91.1688 24.9939 100.871 24.7306 108.037 29.2841C121.23 37.0845 134.568 44.6802 147.839 52.3538C154.674 56.0785 159.666 63.3036 159.695 71.2113C159.783 87.6409 159.764 104.071 159.715 120.481C159.842 128.408 154.869 135.613 148.151 139.475C134.481 147.314 120.879 155.27 107.257 163.178C98.3452 168.219 84.2557 166.796 79.7022 156.557C77.3036 149.839 77.9861 142.673 77.9666 135.623C77.9569 132.23 79.1367 128.915 81.4768 126.448L81.5158 126.409C82.5884 127.023 84.714 128.252 85.7865 128.866C89.4625 130.816 93.2164 133.644 97.5944 133.186C102.041 132.22 105.804 129.549 109.666 127.296C113.888 124.712 118.236 122.392 122.478 119.808C126.027 117.546 130.161 114.435 130.229 109.775C130.473 100.404 130.385 91.0438 130.278 81.6931C130.541 76.2816 125.832 72.6251 121.532 70.3435C114.365 66.492 107.637 61.8215 100.286 58.3406C93.8502 55.825 88.1949 60.6807 82.9394 63.6156C77.1964 67.2916 70.7123 69.9047 65.6128 74.5265C62.3756 77.1591 62.7851 81.6248 62.6973 85.3495C62.8046 104.119 62.6778 122.899 62.6486 141.649C62.8631 144.272 60.8057 146.134 59.4114 148.045C49.7292 141.756 35.1424 137.993 33.3873 124.605C32.6463 107.454 33.2996 90.2345 33.0558 73.0639C32.4903 65.3512 36.254 57.4826 42.9623 53.5044C56.5838 45.4017 70.3905 37.6013 84.0607 29.5571L84.0705 29.5669Z" fill="#606060"/>
<path d="M83.3012 83.1851C86.8992 81.0595 90.4386 78.6999 94.2998 77.1008C98.1123 75.765 101.486 78.5731 104.665 80.2112C107.814 82.2881 111.724 83.7604 113.801 87.0658C114.259 92.9356 114.025 98.8249 114.24 104.695C111.617 107.844 108.146 110.058 104.626 112.037C100.638 114.533 95.8014 117.166 91.3747 113.987C87.2307 111.559 83.2037 108.946 79.1475 106.382C78.3967 100.531 78.6015 94.5932 78.8355 88.7234C78.5917 85.8958 81.3121 84.4722 83.3012 83.1851Z" fill="#F75443"/>
</g>
<defs>
<clipPath id="clip0_4880_38681">
<rect width="192" height="192" fill="white"/>
</clipPath>
</defs>
</svg>
