<svg width="192" height="192" viewBox="0 0 192 192" fill="none" xmlns="http://www.w3.org/2000/svg">
<g clip-path="url(#clip0_4880_38828)">
<path d="M96 192C149.019 192 192 149.019 192 96C192 42.9807 149.019 0 96 0C42.9807 0 0 42.9807 0 96C0 149.019 42.9807 192 96 192Z" fill="white"/>
<path d="M96.7676 62.0907C97.1055 62.0714 97.8006 62.0038 98.4861 62.0038C118.21 62.0038 137.934 61.9845 157.659 62.0328C159.145 62.0328 160.671 62.3031 162.1 62.7086C165.044 63.5389 165.952 64.8422 165.961 67.8448C165.981 88.7275 165.99 109.62 166 130.503C166 130.715 165.904 130.937 165.904 130.908C142.897 108.008 119.832 85.0491 96.7772 62.0907H96.7676ZM151.113 85.2229C151.093 82.8479 149.249 81.0811 146.865 81.139C144.635 81.197 142.868 83.012 142.868 85.2519C142.868 87.5496 144.828 89.4226 147.145 89.355C149.385 89.2875 151.132 87.4628 151.113 85.2229ZM144.084 78.2234C144.084 75.9449 142.067 73.9657 139.836 74.043C137.712 74.1202 135.781 76.0994 135.772 78.2041C135.762 80.4632 137.761 82.3941 140.049 82.3362C142.269 82.2783 144.084 80.4246 144.075 78.2137L144.084 78.2234ZM147.029 75.3463C149.221 75.3463 151.074 73.5023 151.113 71.3011C151.151 69.013 149.211 67.0145 146.971 67.0435C144.837 67.0628 142.906 68.9937 142.868 71.1273C142.829 73.4347 144.722 75.356 147.029 75.3463ZM154.106 74.0333C151.953 73.9947 150.012 75.858 149.916 78.0303C149.819 80.357 151.653 82.2976 153.99 82.3362C156.201 82.3652 158.112 80.5791 158.219 78.3875C158.315 76.1766 156.336 74.0719 154.106 74.0333Z" fill="#D60644"/>
<path d="M26 130.908C26 130 26 129.151 26 128.291C26 108.422 26 88.5534 26 68.6845C26 64.1758 26.9172 63.0462 31.3872 62.1773C32.1596 62.0229 32.9706 62.0132 33.7622 62.0132C53.6602 62.0132 73.5484 62.0132 93.4464 62.0132C94.0546 62.0132 94.6532 62.0904 95.1552 62.1291C72.1292 85.0295 49.1515 107.891 26.0097 130.917L26 130.908ZM41.5631 91.6718H48.0316V83.9869C49.3832 83.9869 50.4838 84.0062 51.5844 83.9869C56.5565 83.9 55.8517 84.7882 55.9869 79.5458C56.0255 77.9045 55.34 77.499 53.8629 77.5666C51.9803 77.6438 50.088 77.5859 47.8675 77.5859V69.872H41.4665V77.6245H33.6753V84.0448H41.5438V91.6815L41.5631 91.6718Z" fill="#D60644"/>
<path d="M109.008 129.537H102.868C102.868 125.347 102.926 121.254 102.829 117.17C102.81 116.195 102.279 115.239 101.989 114.274C101.622 115.268 100.956 116.262 100.927 117.266C100.802 121.283 100.879 125.299 100.879 129.479H94.7291C94.7291 125.338 94.787 121.244 94.6905 117.16C94.6712 116.195 94.1208 115.239 93.8119 114.274C93.4547 115.268 92.8175 116.262 92.7885 117.276C92.6727 121.292 92.7402 125.309 92.7402 129.489H86.7448C86.7448 123.803 86.3779 118.184 86.8607 112.642C87.2372 108.326 93.0492 106.589 96.3703 109.456C96.8338 109.861 97.1041 110.489 97.471 111.01C97.5192 110.682 97.5675 110.344 97.6158 110.016C99.7108 109.379 101.777 108.288 103.891 108.201C106.739 108.085 108.699 110.151 108.883 113.24C109.134 117.585 108.998 121.939 109.027 126.293C109.027 127.307 109.027 128.311 109.027 129.547L109.008 129.537Z" fill="#D60644"/>
<path d="M145.347 129.469C142.991 129.431 139.95 130.213 139.12 129.199C137.42 127.143 136.793 124.14 135.962 121.466C135.625 120.384 135.905 119.12 136.368 118.202C137.025 117.295 137.681 116.387 138.338 115.49C137.382 114.91 136.426 114.321 134.872 113.375V129.489H128.77C128.722 128.726 128.644 127.963 128.644 127.2C128.635 121.823 128.731 116.436 128.596 111.068C128.548 109.04 129.233 108.432 131.174 108.577C133.472 108.741 135.779 108.635 138.086 108.751C140.857 108.886 142.981 110.209 144.082 112.757C145.221 115.374 144.738 117.797 142.914 120.066C142.431 120.664 142.306 121.9 142.557 122.663C143.3 124.893 144.323 127.036 145.347 129.498V129.469Z" fill="#D60644"/>
<path d="M76.706 129.643C76.706 125.115 76.7639 121.012 76.6577 116.909C76.6384 116.021 76.0109 115.152 75.673 114.264C75.0647 114.63 73.9834 114.968 73.9448 115.383C73.8386 116.61 73.6938 118.299 74.3889 119.033C75.9433 120.674 76.0592 123.262 74.1958 124.787C73.8579 125.067 73.7324 125.714 73.6938 126.206C73.6166 127.22 73.6745 128.243 73.6745 129.45H67.8721C67.8721 124.15 67.486 118.782 67.9977 113.501C68.3742 109.658 72.1781 107.66 76.5129 108.075C80.6064 108.461 82.5856 110.382 82.798 114.698C83.0104 119.12 82.8752 123.551 82.9332 127.983C82.9525 129.189 82.4891 129.711 81.2533 129.653C79.8437 129.585 78.4245 129.634 76.7157 129.634L76.706 129.643Z" fill="#D60644"/>
<path d="M61.1414 114.467C56.8162 113.907 54.7115 114.698 53.6978 117.083C52.7999 119.188 53.3212 121.92 55.0108 123.146C56.4396 124.189 58.0133 124.778 60.1856 123.281C59.0367 122.818 58.3126 122.518 57.4727 122.181V117.942C59.2201 117.942 60.8711 117.807 62.4834 118.01C63.1013 118.087 63.8157 118.811 64.1536 119.419C65.5728 121.978 65.5728 124.594 63.835 127.008C61.6627 130.02 58.5347 130.619 55.117 129.981C49.7008 128.968 45.9935 122.74 47.1231 116.706C48.1464 111.232 53.3502 107.457 58.7857 108.143C60.4656 108.355 61.4407 108.857 61.1607 110.788C60.9966 111.947 61.1317 113.144 61.1317 114.476L61.1414 114.467Z" fill="#D60644"/>
<path d="M124.659 108.702V114.457C123.452 114.457 122.274 114.312 121.154 114.505C120.411 114.63 119.754 115.248 119.059 115.644C119.726 116.05 120.343 116.648 121.067 116.803C121.965 117.005 122.95 116.851 124.099 116.851V121.437C122.767 121.437 121.425 121.321 120.121 121.495C119.581 121.562 119.137 122.257 118.644 122.673C119.108 123.03 119.532 123.628 120.034 123.696C121.502 123.899 122.998 123.889 124.591 123.966V129.469C122.187 129.469 119.803 129.711 117.495 129.411C114.58 129.025 112.88 126.998 112.755 124.015C112.62 120.693 112.61 117.363 112.774 114.051C112.929 110.865 114.85 108.973 118.075 108.722C120.179 108.558 122.313 108.693 124.649 108.693L124.659 108.702Z" fill="#D60644"/>
<path d="M109.008 129.547H103.331V127.818C103.331 124.179 103.379 120.539 103.292 116.909C103.273 115.982 103.64 114.862 102.385 114.833C101.062 114.804 101.4 116.04 101.371 117.015C101.284 120.529 101.332 124.053 101.332 127.567V129.45H95.1534C95.1534 126.882 95.1534 124.333 95.1534 121.794C95.1534 119.824 95.2114 117.855 95.1052 115.895C95.1052 115.895 95.1052 115.885 95.1052 115.876C95.0376 114.92 93.6377 114.756 93.2901 115.654C93.2418 115.77 93.2225 115.885 93.2129 115.992C93.1163 119.564 93.1646 123.146 93.1646 126.727C93.1646 127.606 93.1646 128.494 93.1646 129.479H87.2174C87.2174 124.005 87.1016 118.589 87.2657 113.192C87.3429 110.556 89.1483 108.857 91.784 108.123C94.2942 107.428 96.1768 108.384 97.7022 110.324C97.8374 110.498 98.1174 110.711 98.127 110.72C99.2469 109.6 99.9903 108.799 101.854 108.268C105.715 107.071 109.056 109.311 109.21 113.337C109.413 118.579 109.249 123.831 109.22 129.073C109.22 129.228 109.075 129.373 108.988 129.537L109.008 129.547Z" fill="#D60644"/>
<path d="M134.728 129.489H128.896V108.597C132.642 108.829 136.495 107.95 140.25 109.253C144.682 110.788 146.072 116.543 142.789 119.873C142.278 120.221 141.602 120.597 141.621 120.646C141.737 121.08 142.142 121.804 142.374 122.316C143.436 124.614 144.344 126.989 145.415 129.576C143.436 129.576 141.631 129.595 139.816 129.557C139.507 129.557 139.024 129.373 138.928 129.142C137.344 125.502 137.18 122.306 136.244 117.633C137.489 117.566 138.792 117.16 138.358 115.49C137.875 113.636 136.234 114.293 134.737 114.245V129.499L134.728 129.489Z" fill="#D60644"/>
<path d="M74.2116 119.033C74.9454 119.139 75.4667 119.014 76.0653 119.101V124.382C75.4667 124.498 74.9936 124.42 74.2792 124.42C74.2792 125.994 74.2116 127.828 74.2116 129.46H68.2934C68.2934 124.469 67.9555 119.506 68.3803 114.611C68.892 108.693 76.326 105.604 80.9988 109.301C82.2731 110.305 83.2483 112.4 83.3448 114.051C83.6441 119.149 83.451 124.275 83.451 129.479H77.5521C77.5521 128.639 77.5521 127.78 77.5521 126.911C77.5521 123.455 77.5521 119.989 77.5521 116.533C77.5521 115.432 77.4749 114.215 75.9977 114.225C74.5495 114.225 74.1923 115.326 74.2116 116.581C74.2116 117.286 74.2116 118.203 74.2116 119.043V119.033Z" fill="#D60644"/>
<path d="M58.6701 122.277V117.923C60.3983 117.923 62.1651 117.846 63.9125 117.981C64.347 118.01 64.82 118.686 65.1 119.168C68.035 124.025 64.6752 129.721 58.7377 129.933C53.7463 130.107 49.3439 126.554 48.2529 120.897C47.2585 115.712 49.8073 110.817 54.3353 108.78C56.884 107.631 59.2687 107.602 62.0492 108.742V114.061C60.1859 114.322 58.3612 114.245 56.8358 114.882C54.5573 115.828 53.8332 118.039 54.4994 120.742C55.0207 122.837 56.8068 124.102 59.1625 123.957C59.3846 123.947 59.6066 123.851 59.8287 123.725C60.2631 123.484 60.2245 122.847 59.7707 122.654C59.597 122.577 59.4232 122.509 59.2397 122.432C59.0853 122.364 58.9115 122.354 58.6701 122.297V122.277Z" fill="#D60644"/>
<path d="M124.815 114.543C123.657 114.543 122.527 114.389 121.475 114.447C120.625 114.495 119.438 114.263 119.36 115.634C119.273 117.073 120.77 116.764 121.668 116.841C122.537 116.909 123.377 116.822 124.371 116.822V121.35C123.541 121.35 122.904 121.35 122.151 121.379C120.799 121.475 119.129 120.973 119.042 122.537C119.042 123.918 120.944 123.58 122.237 123.59C123.048 123.59 123.888 123.619 124.854 123.619V129.73C122.218 129.546 119.611 129.556 117.082 129.122C114.63 128.706 113.056 126.293 113.027 123.541C112.998 120.684 113.017 117.816 113.027 114.958C113.037 111.087 115.112 108.828 118.974 108.615C120.876 108.509 122.778 108.596 124.844 108.596V114.543H124.815Z" fill="#D60644"/>
</g>
<defs>
<clipPath id="clip0_4880_38828">
<rect width="192" height="192" fill="white"/>
</clipPath>
</defs>
</svg>
