<svg width="192" height="192" viewBox="0 0 192 192" fill="none" xmlns="http://www.w3.org/2000/svg">
<g clip-path="url(#clip0_4880_38275)">
<path d="M96 192C149.019 192 192 149.019 192 96C192 42.9807 149.019 0 96 0C42.9807 0 0 42.9807 0 96C0 149.019 42.9807 192 96 192Z" fill="#F4C546"/>
<path d="M37.3678 84V100.966C37.3678 102.173 37.0588 103.129 36.4312 103.815C35.8035 104.51 35.0407 104.858 34.1426 104.858C33.119 104.858 32.2886 104.568 31.6803 103.979C31.0719 103.4 30.7726 102.473 30.7726 101.208H26.0409L26.0023 101.304C25.954 103.699 26.659 105.524 28.1364 106.75C29.6138 107.986 31.6127 108.604 34.1426 108.604C36.4795 108.604 38.4011 107.919 39.9364 106.548C41.4621 105.167 42.225 103.313 42.225 100.976V84H37.3775H37.3678Z" fill="#262626"/>
<path d="M61.499 100.696V98.0504C61.499 95.5494 60.8327 93.5699 59.4904 92.1021C58.1482 90.6343 56.2556 89.9101 53.8318 89.9101C51.3501 89.8908 49.3802 90.7599 47.9125 92.4884C46.4351 94.2168 45.7012 96.4281 45.7012 99.0933V99.7596C45.7012 102.328 46.4833 104.443 48.038 106.104C49.5927 107.765 51.6688 108.605 54.2663 108.605C55.7148 108.605 57.0474 108.402 58.2351 108.006C59.4132 107.61 60.3788 107.108 61.1127 106.509L59.7898 103.506C58.94 103.97 58.1675 104.308 57.4626 104.53C56.748 104.752 55.85 104.858 54.7781 104.858C53.5711 104.858 52.6151 104.472 51.9005 103.709C51.1956 102.946 50.7997 101.971 50.7128 100.783L50.7418 100.687H61.499V100.696ZM51.6881 94.6803C52.2095 93.9947 52.9241 93.6568 53.8222 93.6568C54.7974 93.6568 55.5313 93.9658 56.0141 94.5741C56.497 95.1921 56.7384 96.0226 56.7384 97.0558V97.4903H50.7804L50.7321 97.4131C50.8577 96.293 51.1763 95.3853 51.6978 94.69L51.6881 94.6803Z" fill="#262626"/>
<path d="M78.4254 91.6095C77.4018 90.4604 75.9823 89.9004 74.1573 89.9004C73.0661 89.9004 72.0908 90.1514 71.2121 90.6632C70.3334 91.175 69.5898 91.8896 68.9912 92.8166L68.7691 90.2383H64.2402V108.257H69.107V95.1534C69.4547 94.6706 69.8795 94.3037 70.3913 94.0429C70.9031 93.7822 71.4825 93.647 72.1198 93.647C73.1144 93.647 73.8483 93.8981 74.3408 94.4099C74.8332 94.912 75.0747 95.7714 75.0747 96.9881V108.257H79.9511V96.9978C79.9511 94.5547 79.4393 92.7586 78.4157 91.6192L78.4254 91.6095Z" fill="#262626"/>
<path d="M96.4247 99.5374C95.3528 98.678 93.7016 98.031 91.4806 97.5868C90.0322 97.3068 89.0859 96.9881 88.603 96.6308C88.1299 96.2832 87.8981 95.8197 87.8981 95.2693C87.8981 94.7189 88.1202 94.2071 88.5741 93.8305C89.0183 93.4442 89.6363 93.2511 90.4281 93.2511C91.3165 93.2511 91.9924 93.4732 92.4559 93.9367C92.9194 94.3906 93.1415 94.9796 93.1415 95.7038H97.8442L97.8731 95.5976C97.9311 93.956 97.2744 92.5945 95.9226 91.513C94.561 90.4411 92.7263 89.9004 90.4281 89.9004C88.1299 89.9004 86.498 90.4411 85.1944 91.5226C83.8908 92.6041 83.2438 93.9174 83.2438 95.4721C83.2438 96.9398 83.7845 98.0986 84.866 98.9387C85.9572 99.7885 87.5602 100.435 89.6942 100.86C91.0847 101.16 92.0504 101.498 92.5622 101.884C93.0836 102.28 93.3443 102.734 93.3443 103.265C93.3443 103.873 93.1029 104.356 92.6394 104.713C92.1662 105.061 91.4806 105.244 90.5826 105.244C89.617 105.244 88.8348 105.022 88.2361 104.597C87.6278 104.163 87.3188 103.458 87.2801 102.502H82.8382L82.7996 102.608C82.732 104.163 83.3983 105.544 84.7888 106.76C86.1793 107.977 88.0816 108.595 90.4764 108.595C92.7553 108.595 94.5803 108.074 95.9708 107.05C97.3614 106.026 98.0566 104.704 98.0566 103.081C98.0566 101.575 97.5159 100.387 96.4343 99.5181L96.4247 99.5374Z" fill="#262626"/>
<path d="M116.395 100.696V98.0504C116.395 95.5494 115.729 93.5699 114.377 92.1021C113.035 90.6343 111.142 89.9101 108.719 89.9101C106.237 89.8908 104.267 90.7599 102.799 92.4884C101.322 94.2168 100.588 96.4281 100.588 99.0933V99.7596C100.588 102.328 101.37 104.443 102.925 106.104C104.479 107.765 106.556 108.605 109.153 108.605C110.611 108.605 111.934 108.402 113.122 108.006C114.31 107.61 115.266 107.108 115.999 106.509L114.676 103.506C113.836 103.97 113.054 104.308 112.349 104.53C111.635 104.752 110.746 104.858 109.665 104.858C108.458 104.858 107.502 104.472 106.787 103.709C106.082 102.946 105.686 101.971 105.6 100.783L105.629 100.687H116.395V100.696ZM106.584 94.6803C107.106 93.9947 107.82 93.6568 108.719 93.6568C109.694 93.6568 110.428 93.9658 110.911 94.5741C111.393 95.1921 111.644 96.0226 111.644 97.0558V97.4903H105.677L105.629 97.4131C105.754 96.293 106.073 95.3853 106.594 94.69L106.584 94.6803Z" fill="#262626"/>
<path d="M127.906 104.587C127.655 104.655 127.442 104.703 127.269 104.732C127.085 104.751 126.863 104.771 126.612 104.771C126.119 104.771 125.733 104.626 125.443 104.326C125.154 104.017 125.009 103.525 125.009 102.82V93.6466H128.041V90.2379H125.009V85.8153H120.142V90.2379H117.516V93.6466H120.142V102.839C120.142 104.838 120.596 106.306 121.504 107.223C122.411 108.141 123.696 108.604 125.376 108.604C125.917 108.604 126.428 108.556 126.882 108.469C127.346 108.392 127.829 108.266 128.321 108.092L127.906 104.578V104.587Z" fill="#262626"/>
<path d="M145.124 92.4689C143.618 90.7598 141.532 89.9004 138.867 89.9004C136.202 89.9004 134.135 90.7501 132.629 92.4786C131.132 94.1878 130.379 96.3991 130.379 99.0739V99.4215C130.379 102.135 131.132 104.337 132.638 106.046C134.145 107.755 136.231 108.605 138.886 108.605C141.542 108.605 143.618 107.755 145.124 106.046C146.631 104.337 147.384 102.135 147.384 99.4215V99.0739C147.384 96.3798 146.621 94.1781 145.114 92.4689H145.124ZM142.527 99.4215C142.527 101.044 142.237 102.367 141.648 103.361C141.068 104.356 140.141 104.868 138.896 104.868C137.65 104.868 136.675 104.375 136.095 103.381C135.516 102.386 135.236 101.073 135.236 99.4312V99.0835C135.236 97.4999 135.526 96.2059 136.105 95.1824C136.684 94.1685 137.612 93.6663 138.867 93.6663C140.122 93.6663 141.059 94.1685 141.648 95.1727C142.227 96.1866 142.527 97.4806 142.527 99.0835V99.4312V99.4215Z" fill="#262626"/>
<path d="M164.472 91.6095C163.449 90.4604 162.029 89.9004 160.204 89.9004C159.113 89.9004 158.138 90.1514 157.259 90.6632C156.38 91.175 155.637 91.8896 155.038 92.8166L154.826 90.2383H150.287V108.257H155.154V95.1534C155.502 94.6706 155.926 94.3037 156.438 94.0429C156.95 93.7822 157.529 93.647 158.176 93.647C159.161 93.647 159.895 93.8981 160.388 94.4099C160.88 94.912 161.122 95.7714 161.122 96.9881V108.257H165.998V96.9978C165.998 94.5547 165.486 92.7586 164.463 91.6192L164.472 91.6095Z" fill="#262626"/>
</g>
<defs>
<clipPath id="clip0_4880_38275">
<rect width="192" height="192" fill="white"/>
</clipPath>
</defs>
</svg>
