<svg width="192" height="192" viewBox="0 0 192 192" fill="none" xmlns="http://www.w3.org/2000/svg">
<g clip-path="url(#clip0_4880_37939)">
<path d="M96 192C149.019 192 192 149.019 192 96C192 42.9807 149.019 0 96 0C42.9807 0 0 42.9807 0 96C0 149.019 42.9807 192 96 192Z" fill="#E11F50"/>
<path d="M165.998 78.3751C160.34 81.2137 154.691 84.0523 148.946 86.9392C150.906 89.2758 152.76 91.5061 154.643 93.7268C157.443 97.0289 158.138 100.736 156.333 104.656C154.527 108.567 151.273 110.469 146.929 110.45C144.65 110.44 142.371 110.459 140.093 110.45C134.338 110.411 129.974 106.095 129.955 100.36C129.926 93.6206 129.945 86.8813 129.955 80.1324C129.955 78.5392 130.389 78.1241 131.973 78.1048C132.929 78.1048 133.884 78.1048 134.84 78.1048C136.578 78.1048 136.964 78.5006 136.964 80.3061C136.964 83.5406 136.964 86.7751 136.964 90.0096C136.964 93.3792 136.955 96.7489 136.964 100.119C136.974 102.368 138.084 103.488 140.305 103.508C142.535 103.527 144.766 103.508 146.996 103.508C148.348 103.508 149.42 103.005 149.999 101.77C150.569 100.543 150.308 99.3848 149.429 98.3517C147.546 96.1213 145.664 93.9006 143.81 91.651C140.633 87.7792 141.599 82.9227 146.011 80.6441C152.065 77.5255 158.148 74.4551 164.211 71.3558C164.8 71.0565 165.37 70.8151 165.988 71.2592V78.3655L165.998 78.3751Z" fill="white"/>
<path d="M62.6124 105.786C60.1793 109.242 56.9738 110.517 52.9862 110.469C44.8759 110.362 36.7655 110.44 28.6552 110.44C26.0966 110.44 26 110.343 26 107.717C26 107.08 26 106.442 26 105.805C26 103.787 26.28 103.498 28.2593 103.498C35.6841 103.498 43.109 103.498 50.5434 103.498C51.6828 103.498 52.8221 103.498 53.9614 103.498C55.2552 103.498 56.269 102.967 56.8483 101.789C57.4566 100.543 57.1766 99.4135 56.3076 98.3804C54.4345 96.15 52.5614 93.9197 50.6883 91.6797C47.5117 87.8852 48.4772 82.9031 52.8607 80.6438C58.9145 77.5252 64.9972 74.4452 71.0703 71.3652C72.509 70.6314 73.04 70.979 73.0497 72.63C73.0497 73.9528 72.9821 75.2755 73.069 76.5887C73.1559 77.7666 72.6731 78.4038 71.6497 78.9155C66.6097 81.4355 61.6083 84.0038 56.5876 86.5624C56.3559 86.6783 56.1338 86.8231 55.8345 86.9969C60.0828 92.0369 64.3021 97.0576 68.531 102.059C69.4 103.082 70.5103 103.594 71.9104 103.507C73.04 103.43 74.189 103.507 75.3283 103.488C77.5297 103.459 78.669 102.32 78.7076 100.099C78.7365 98.5059 78.7365 96.9128 78.7076 95.3197C78.6883 94.1128 79.2483 93.5624 80.4455 93.5818C81.6331 93.6011 82.811 93.5818 83.9986 93.5818C85.1283 93.5818 85.6497 94.1321 85.64 95.2714C85.611 96.9128 85.6207 98.5542 85.6497 100.196C85.6883 102.291 86.8759 103.488 88.9807 103.498C92.9876 103.517 97.0041 103.498 101.011 103.498C102.768 103.498 103.106 103.836 103.116 105.545C103.116 106.684 103.116 107.823 103.116 108.962C103.116 109.899 102.604 110.43 101.687 110.43C96.9076 110.43 92.1186 110.44 87.3393 110.343C85.6786 110.305 84.1724 109.561 82.84 108.547C82.3669 108.19 82.0579 108.142 81.5462 108.528C79.7021 109.928 77.5972 110.527 75.2897 110.449C74.5655 110.43 73.8317 110.401 73.1076 110.449C68.8593 110.778 65.2869 109.551 62.6414 105.786H62.6124Z" fill="white"/>
<path d="M126.548 91.1683C126.394 94.3159 126.848 98.1973 126.345 102.05C125.776 106.472 121.962 110.121 117.53 110.372C114.441 110.546 111.332 110.44 108.232 110.44C107.161 110.44 106.678 109.832 106.678 108.789C106.678 107.601 106.688 106.423 106.678 105.236C106.668 104.039 107.257 103.488 108.435 103.498C110.984 103.508 113.543 103.508 116.092 103.498C118.38 103.488 119.519 102.339 119.519 100.051C119.519 93.4856 119.519 86.9297 119.519 80.3642C119.519 78.4235 119.857 78.1049 121.836 78.0952C122.744 78.0952 123.661 78.0952 124.569 78.0952C126.056 78.1145 126.519 78.5587 126.529 80.0552C126.548 83.5214 126.529 86.978 126.529 91.1683H126.548Z" fill="white"/>
<path d="M106.678 89.1694C106.678 86.1183 106.678 83.0673 106.678 80.0259C106.678 78.5487 107.132 78.1142 108.638 78.0949C109.545 78.0852 110.463 78.0949 111.37 78.0949C113.301 78.0949 113.697 78.4714 113.697 80.3735C113.697 84.9694 113.697 89.5652 113.697 94.1611C113.697 95.5707 113.697 96.9804 113.697 98.39C113.687 100.08 113.263 100.505 111.631 100.505C110.627 100.505 109.632 100.505 108.628 100.505C107.122 100.495 106.687 100.07 106.678 98.5735C106.678 95.4356 106.678 92.2976 106.678 89.15V89.1694Z" fill="white"/>
<path d="M72.9716 120.201C71.1081 120.201 69.235 120.162 67.3716 120.22C66.3288 120.249 65.8171 119.834 65.8075 118.82C65.7881 117.546 65.7881 116.271 65.8075 114.997C65.8268 113.925 66.4447 113.442 67.4778 113.442C71.1661 113.442 74.8543 113.442 78.5523 113.442C79.6626 113.442 80.2612 113.954 80.2516 115.093C80.2516 116.32 80.2516 117.555 80.2516 118.782C80.2516 119.795 79.7785 120.249 78.7261 120.22C76.8143 120.172 74.9026 120.211 72.9812 120.211L72.9716 120.201Z" fill="white"/>
<path d="M95.8356 93.6299C97.6122 93.6299 99.3887 93.6299 101.156 93.6299C102.7 93.6396 103.048 94.0065 103.067 95.5803C103.067 96.6713 103.067 97.7623 103.067 98.8534C103.067 99.9058 102.575 100.475 101.503 100.475C97.728 100.475 93.9529 100.475 90.1777 100.475C89.106 100.475 88.6039 99.8865 88.6039 98.8534C88.6039 97.6272 88.5942 96.3913 88.6039 95.1651C88.6232 94.103 89.1736 93.601 90.2356 93.6106C92.0991 93.6299 93.9625 93.6106 95.8356 93.6106V93.6299Z" fill="white"/>
</g>
<defs>
<clipPath id="clip0_4880_37939">
<rect width="192" height="192" fill="white"/>
</clipPath>
</defs>
</svg>
