<svg width="192" height="192" viewBox="0 0 192 192" fill="none" xmlns="http://www.w3.org/2000/svg">
<g clip-path="url(#clip0_4880_38017)">
<path d="M96 192C149.019 192 192 149.019 192 96C192 42.9807 149.019 0 96 0C42.9807 0 0 42.9807 0 96C0 149.019 42.9807 192 96 192Z" fill="#F8F31B"/>
<path d="M46.7607 50.2218C58.6907 37.1018 76.0007 28.8118 93.7807 28.3618C97.4107 27.4518 101.041 28.5318 104.681 28.6418C117.161 30.2018 129.271 35.2018 138.991 43.2118C148.771 51.0818 156.331 61.7518 160.311 73.6718C162.131 78.6218 162.991 83.8518 163.801 89.0418C163.991 92.8618 163.941 96.7018 163.891 100.532C162.751 114.692 157.271 128.602 147.861 139.312C147.851 139.602 147.821 140.172 147.801 140.472C149.301 141.912 151.021 143.122 152.511 144.592C152.431 144.772 152.261 145.132 152.181 145.322C148.631 146.692 144.791 146.092 141.101 146.592C135.381 146.652 129.661 146.072 124.061 144.802C124.541 141.122 125.791 137.532 125.611 133.782C125.521 129.782 125.891 125.702 124.941 121.772C124.931 121.352 124.901 120.512 124.891 120.092C125.151 120.612 125.861 120.842 126.111 121.382C127.671 121.812 128.271 123.382 129.311 124.532C129.661 124.532 130.361 124.562 130.711 124.562C138.241 115.232 142.571 103.002 140.951 90.9918C140.051 80.2818 134.671 70.2718 127.011 62.8418C120.511 57.2018 112.661 52.8518 104.051 51.7118C98.7307 50.4018 93.1607 50.8218 87.8207 51.8118C77.0807 54.1818 67.0007 60.2018 60.5407 69.2118C56.1807 75.4618 53.0807 82.7518 52.2907 90.3618C50.9507 97.4718 52.6907 104.642 54.6507 111.462C57.6907 118.032 61.3807 124.582 67.1407 129.152C72.3107 133.772 78.6707 137.302 85.4507 138.782C88.5007 140.012 91.8207 139.892 95.0207 140.322C102.981 140.842 110.741 138.392 117.881 135.112C118.221 138.012 116.801 140.622 116.111 143.352C115.641 145.292 114.051 146.892 113.921 148.892C115.021 150.232 116.871 150.572 118.381 151.282C121.871 152.892 125.721 153.352 129.271 154.812C119.291 159.822 108.251 163.322 96.9907 163.012C94.2207 162.992 91.4507 163.062 88.7007 162.722C77.6607 161.102 66.7207 157.412 57.6907 150.702C44.7007 141.662 35.3007 127.772 31.2307 112.532C30.4507 108.552 29.3007 104.592 29.4407 100.502C29.5607 97.7518 28.5107 95.0318 29.2907 92.3118C29.9207 76.8518 36.2907 61.6718 46.7607 50.2718V50.2218Z" fill="#818787"/>
</g>
<defs>
<clipPath id="clip0_4880_38017">
<rect width="192" height="192" fill="white"/>
</clipPath>
</defs>
</svg>
