<svg width="192" height="192" viewBox="0 0 192 192" fill="none" xmlns="http://www.w3.org/2000/svg">
<g clip-path="url(#clip0_4880_37848)">
<path d="M96 192C149.019 192 192 149.019 192 96C192 42.9807 149.019 0 96 0C42.9807 0 0 42.9807 0 96C0 149.019 42.9807 192 96 192Z" fill="#009B8A"/>
<path d="M118.81 113.74V77.17L148.42 51.97L112.42 65.65V106.25L96.0402 117.51L79.6702 106.25V65.65L43.6602 51.97L73.2802 77.17V113.74L90.0102 121.66L63.3502 140L96.0402 124.52L128.73 140L102.08 121.66L118.81 113.74Z" fill="white"/>
<path d="M148.721 56.34L145.861 115.3L128.791 140.03L153.601 119.75L148.721 56.34Z" fill="white"/>
<path d="M43.2804 56.34L38.4004 119.75L63.2104 140.03L46.1504 115.3L43.2804 56.34Z" fill="white"/>
</g>
<defs>
<clipPath id="clip0_4880_37848">
<rect width="192" height="192" fill="white"/>
</clipPath>
</defs>
</svg>
