<svg width="192" height="192" viewBox="0 0 192 192" fill="none" xmlns="http://www.w3.org/2000/svg">
<g clip-path="url(#clip0_4880_37836)">
<path d="M96 192C149.019 192 192 149.019 192 96C192 42.9807 149.019 0 96 0C42.9807 0 0 42.9807 0 96C0 149.019 42.9807 192 96 192Z" fill="#FFCA06"/>
<path d="M40.5605 72L68.5705 53.64V131.86L48.4205 117.21V75.87L40.5605 72Z" fill="#232021"/>
<path d="M76.7109 63.14L104.731 44.74V143.71L84.4209 129.06V66.97L76.7109 63.14Z" fill="#232021"/>
<path d="M113.471 54.52L141.441 36V156L121.291 141.35V58.39L113.471 54.52Z" fill="#232021"/>
</g>
<defs>
<clipPath id="clip0_4880_37836">
<rect width="192" height="192" fill="white"/>
</clipPath>
</defs>
</svg>
