<svg width="192" height="192" viewBox="0 0 192 192" fill="none" xmlns="http://www.w3.org/2000/svg">
<g clip-path="url(#clip0_5163_41007)">
<path d="M96 192C149.019 192 192 149.019 192 96C192 42.9807 149.019 0 96 0C42.9807 0 0 42.9807 0 96C0 149.019 42.9807 192 96 192Z" fill="white"/>
<path d="M10.2031 85.436H14.1151L18.9871 98.54L23.8351 85.436H27.7471V102.5H24.7471V96.908L25.0351 89.348L20.0431 102.5H17.9071L12.8911 89.372L13.2031 96.908V102.5H10.2031V85.436Z" fill="black"/>
<path d="M36.2677 102.74C35.1157 102.74 34.0917 102.484 33.1957 101.972C32.3157 101.444 31.6277 100.7 31.1317 99.74C30.6357 98.78 30.3797 97.668 30.3637 96.404L30.3397 96.044C30.3237 94.844 30.5477 93.756 31.0117 92.78C31.4757 91.804 32.1557 91.028 33.0517 90.452C33.9477 89.876 35.0117 89.588 36.2437 89.588C37.4277 89.588 38.4677 89.86 39.3637 90.404C40.2597 90.932 40.9477 91.692 41.4277 92.684C41.9237 93.676 42.1717 94.828 42.1717 96.14V96.308C42.1717 97.588 41.9237 98.716 41.4277 99.692C40.9317 100.668 40.2357 101.42 39.3397 101.948C38.4597 102.476 37.4357 102.74 36.2677 102.74ZM33.2437 96.308C33.2277 97.604 33.4917 98.62 34.0357 99.356C34.5797 100.092 35.3237 100.46 36.2677 100.46C37.2117 100.46 37.9477 100.1 38.4757 99.38C39.0197 98.66 39.2917 97.644 39.2917 96.332V96.044C39.3077 94.764 39.0437 93.748 38.4997 92.996C37.9557 92.244 37.2037 91.868 36.2437 91.868C35.3477 91.868 34.6277 92.22 34.0837 92.924C33.5557 93.612 33.2757 94.604 33.2437 95.9V96.308Z" fill="black"/>
<path d="M50.7489 102.74C49.2769 102.74 48.1169 102.196 47.2689 101.108L47.1489 102.5H44.5329V84.5H47.4129V91.076C48.2289 90.084 49.3329 89.588 50.7249 89.588C52.2769 89.588 53.4849 90.164 54.3489 91.316C55.2289 92.452 55.6689 94.044 55.6689 96.092V96.284C55.6689 98.284 55.2289 99.86 54.3489 101.012C53.4689 102.164 52.2689 102.74 50.7489 102.74ZM47.4129 98.804C47.9409 99.876 48.8129 100.412 50.0289 100.412C50.9569 100.412 51.6449 100.052 52.0929 99.332C52.5569 98.612 52.7889 97.516 52.7889 96.044C52.7889 93.292 51.8609 91.916 50.0049 91.916C49.4289 91.916 48.9169 92.052 48.4689 92.324C48.0209 92.596 47.6689 92.996 47.4129 93.524V98.804Z" fill="black"/>
<path d="M58.2014 89.828H61.0814V102.5H58.2014V89.828ZM57.9854 86.492C57.9854 86.044 58.1294 85.676 58.4174 85.388C58.7214 85.1 59.1294 84.956 59.6414 84.956C60.1374 84.956 60.5374 85.1 60.8414 85.388C61.1454 85.676 61.2974 86.044 61.2974 86.492C61.2974 86.94 61.1454 87.308 60.8414 87.596C60.5374 87.868 60.1374 88.004 59.6414 88.004C59.1294 88.004 58.7214 87.868 58.4174 87.596C58.1294 87.308 57.9854 86.94 57.9854 86.492Z" fill="black"/>
<path d="M64.3421 84.5H67.2221V102.5H64.3421V84.5Z" fill="black"/>
<path d="M75.9067 102.74C74.7067 102.74 73.6427 102.484 72.7147 101.972C71.7867 101.444 71.0667 100.716 70.5547 99.788C70.0427 98.844 69.7867 97.748 69.7867 96.5V96.116C69.7867 94.9 70.0187 93.796 70.4827 92.804C70.9467 91.812 71.6107 91.028 72.4747 90.452C73.3547 89.876 74.3787 89.588 75.5467 89.588C77.2587 89.588 78.5947 90.14 79.5547 91.244C80.5147 92.332 80.9947 93.876 80.9947 95.876V97.028H72.6907L72.7147 97.1C72.7947 98.108 73.1387 98.924 73.7467 99.548C74.3547 100.156 75.1227 100.46 76.0507 100.46C77.3467 100.46 78.4107 99.94 79.2427 98.9L80.7547 100.388C80.2427 101.14 79.5627 101.724 78.7147 102.14C77.8827 102.54 76.9467 102.74 75.9067 102.74ZM78.1387 94.964V94.748C78.1067 93.836 77.8587 93.132 77.3947 92.636C76.9467 92.124 76.3307 91.868 75.5467 91.868C74.7787 91.868 74.1467 92.14 73.6507 92.684C73.1547 93.228 72.8507 93.988 72.7387 94.964H78.1387Z" fill="black"/>
<path d="M96.4529 102.572C96.0209 102.684 95.5329 102.74 94.9889 102.74C93.5969 102.74 92.3649 102.412 91.2929 101.756C90.2209 101.084 89.3809 100.132 88.7729 98.9C88.1649 97.668 87.8609 96.244 87.8609 94.628V93.524C87.8609 91.844 88.1569 90.38 88.7489 89.132C89.3409 87.868 90.1729 86.9 91.2449 86.228C92.3329 85.54 93.5729 85.196 94.9649 85.196C96.3729 85.196 97.6129 85.54 98.6849 86.228C99.7569 86.9 100.589 87.86 101.181 89.108C101.773 90.356 102.069 91.812 102.069 93.476V94.436C102.069 96.036 101.813 97.428 101.301 98.612C100.789 99.796 100.053 100.74 99.0929 101.444L102.021 103.772L100.077 105.476L96.4529 102.572ZM90.8849 94.436C90.8849 96.292 91.2369 97.732 91.9409 98.756C92.6609 99.78 93.6769 100.292 94.9889 100.292C96.2689 100.292 97.2609 99.804 97.9649 98.828C98.6689 97.836 99.0289 96.412 99.0449 94.556V93.5C99.0449 91.612 98.6929 90.172 97.9889 89.18C97.2849 88.172 96.2769 87.668 94.9649 87.668C93.6689 87.668 92.6689 88.164 91.9649 89.156C91.2609 90.148 90.9009 91.548 90.8849 93.356V94.436Z" fill="black"/>
<path d="M110.096 102.74C108.944 102.74 107.92 102.484 107.024 101.972C106.144 101.444 105.456 100.7 104.96 99.74C104.464 98.78 104.208 97.668 104.192 96.404L104.168 96.044C104.152 94.844 104.376 93.756 104.84 92.78C105.304 91.804 105.984 91.028 106.88 90.452C107.776 89.876 108.84 89.588 110.072 89.588C111.256 89.588 112.296 89.86 113.192 90.404C114.088 90.932 114.776 91.692 115.256 92.684C115.752 93.676 116 94.828 116 96.14V96.308C116 97.588 115.752 98.716 115.256 99.692C114.76 100.668 114.064 101.42 113.168 101.948C112.288 102.476 111.264 102.74 110.096 102.74ZM107.072 96.308C107.056 97.604 107.32 98.62 107.864 99.356C108.408 100.092 109.152 100.46 110.096 100.46C111.04 100.46 111.776 100.1 112.304 99.38C112.848 98.66 113.12 97.644 113.12 96.332V96.044C113.136 94.764 112.872 93.748 112.328 92.996C111.784 92.244 111.032 91.868 110.072 91.868C109.176 91.868 108.456 92.22 107.912 92.924C107.384 93.612 107.104 94.604 107.072 95.9V96.308Z" fill="black"/>
<path d="M126.065 101.372C125.233 102.284 124.153 102.74 122.825 102.74C121.817 102.74 120.937 102.476 120.185 101.948C119.433 101.42 118.849 100.668 118.433 99.692C118.033 98.716 117.833 97.564 117.833 96.236V96.044C117.833 94.716 118.033 93.572 118.433 92.612C118.849 91.636 119.433 90.892 120.185 90.38C120.937 89.852 121.825 89.588 122.849 89.588C124.273 89.588 125.393 90.1 126.209 91.124L126.401 89.828H128.945V107.372H126.065V101.372ZM120.713 96.308C120.713 97.62 120.961 98.644 121.457 99.38C121.953 100.1 122.649 100.46 123.545 100.46C124.681 100.46 125.521 99.98 126.065 99.02V93.284C125.505 92.34 124.673 91.868 123.569 91.868C122.689 91.868 121.993 92.212 121.481 92.9C120.985 93.588 120.729 94.588 120.713 95.9V96.308Z" fill="black"/>
<path d="M131.907 89.828H134.619L134.715 91.364C135.659 90.18 136.907 89.588 138.459 89.588C141.115 89.588 142.451 91.132 142.467 94.22V102.5H139.587V94.268C139.571 93.436 139.387 92.836 139.035 92.468C138.699 92.1 138.131 91.916 137.331 91.916C136.771 91.916 136.267 92.06 135.819 92.348C135.387 92.62 135.051 93.004 134.811 93.5V102.5H131.907V89.828Z" fill="black"/>
<path d="M150.666 102.74C149.514 102.74 148.49 102.484 147.594 101.972C146.714 101.444 146.026 100.7 145.53 99.74C145.034 98.78 144.778 97.668 144.762 96.404L144.738 96.044C144.722 94.844 144.946 93.756 145.41 92.78C145.874 91.804 146.554 91.028 147.45 90.452C148.346 89.876 149.41 89.588 150.642 89.588C151.826 89.588 152.866 89.86 153.762 90.404C154.658 90.932 155.346 91.692 155.826 92.684C156.322 93.676 156.57 94.828 156.57 96.14V96.308C156.57 97.588 156.322 98.716 155.826 99.692C155.33 100.668 154.634 101.42 153.738 101.948C152.858 102.476 151.834 102.74 150.666 102.74ZM147.642 96.308C147.626 97.604 147.89 98.62 148.434 99.356C148.978 100.092 149.722 100.46 150.666 100.46C151.61 100.46 152.346 100.1 152.874 99.38C153.418 98.66 153.69 97.644 153.69 96.332V96.044C153.706 94.764 153.442 93.748 152.898 92.996C152.354 92.244 151.602 91.868 150.642 91.868C149.746 91.868 149.026 92.22 148.482 92.924C147.954 93.612 147.674 94.604 147.642 95.9V96.308Z" fill="black"/>
<path d="M163.059 102.74C161.699 102.74 160.659 102.348 159.939 101.564C159.235 100.764 158.875 99.596 158.859 98.06V89.828H161.739V98.036C161.739 99.62 162.419 100.412 163.779 100.412C165.139 100.412 166.059 99.908 166.539 98.9V89.828H169.419V102.5H166.707L166.635 101.204C165.803 102.228 164.611 102.74 163.059 102.74Z" fill="black"/>
<path d="M177.019 102.74C176.027 102.74 175.115 102.556 174.283 102.188C173.467 101.82 172.819 101.316 172.339 100.676C171.875 100.02 171.643 99.308 171.643 98.54H174.451C174.467 99.196 174.707 99.708 175.171 100.076C175.651 100.444 176.283 100.628 177.067 100.628C177.771 100.628 178.323 100.492 178.723 100.22C179.139 99.932 179.347 99.548 179.347 99.068C179.347 98.556 179.131 98.164 178.699 97.892C178.283 97.62 177.571 97.372 176.563 97.148C175.043 96.828 173.915 96.364 173.179 95.756C172.443 95.148 172.075 94.372 172.075 93.428C172.075 92.708 172.283 92.06 172.699 91.484C173.115 90.892 173.691 90.428 174.427 90.092C175.179 89.756 176.027 89.588 176.971 89.588C177.979 89.588 178.867 89.764 179.635 90.116C180.419 90.452 181.019 90.924 181.435 91.532C181.867 92.14 182.083 92.836 182.083 93.62H179.203C179.203 93.06 178.995 92.604 178.579 92.252C178.179 91.884 177.643 91.7 176.971 91.7C176.331 91.7 175.819 91.852 175.435 92.156C175.067 92.444 174.883 92.828 174.883 93.308C174.883 93.788 175.115 94.148 175.579 94.388C176.059 94.628 176.723 94.852 177.571 95.06C177.635 95.076 177.867 95.132 178.267 95.228C179.595 95.564 180.571 96.028 181.195 96.62C181.835 97.196 182.155 97.964 182.155 98.924C182.155 99.676 181.939 100.34 181.507 100.916C181.075 101.492 180.467 101.94 179.683 102.26C178.915 102.58 178.027 102.74 177.019 102.74Z" fill="black"/>
</g>
<defs>
<clipPath id="clip0_5163_41007">
<rect width="192" height="192" fill="white"/>
</clipPath>
</defs>
</svg>
