<svg width="192" height="192" viewBox="0 0 192 192" fill="none" xmlns="http://www.w3.org/2000/svg">
<g clip-path="url(#clip0_4880_38365)">
<path d="M96 192C149.019 192 192 149.019 192 96C192 42.9807 149.019 0 96 0C42.9807 0 0 42.9807 0 96C0 149.019 42.9807 192 96 192Z" fill="white"/>
<path d="M126.989 75.6514C131.099 71.7614 134.509 67.3714 136.549 62.0614C139.499 54.3814 136.309 49.1214 128.199 47.8614C122.399 46.9614 116.829 48.2514 111.229 49.3214C109.969 44.9114 108.459 40.6014 106.049 36.6614C99.7591 26.3914 91.7391 26.4614 85.4991 36.7814C83.1091 40.7314 81.8891 45.1414 80.1691 49.3614C76.0191 48.2514 71.7891 47.4914 67.4891 47.5014C55.0491 47.5214 50.8891 54.7614 56.9091 65.6214C59.1091 69.5814 62.2791 72.7714 64.9991 76.3314C60.5091 80.7214 56.5891 85.5314 54.7091 91.6314C52.7391 98.0114 55.5791 102.621 62.0791 104.081C65.4391 104.831 68.7891 104.731 72.1891 104.411C75.1091 104.131 77.8991 102.971 80.8791 103.151C81.8691 108.631 84.1191 113.611 87.4591 118.011C92.6391 124.841 99.0991 124.761 104.339 117.961C107.819 113.441 109.629 108.161 111.249 102.801C117.369 104.141 123.479 105.491 129.799 103.991C135.859 102.551 138.589 98.2314 137.069 92.2414C135.679 86.7714 132.249 82.4914 128.679 78.3014C128.009 77.5114 126.809 77.0014 126.989 75.6514Z" fill="#262626"/>
<path d="M80.1787 49.3614C81.8887 45.1414 83.1188 40.7314 85.5088 36.7814C91.7488 26.4614 99.7688 26.3914 106.059 36.6614C108.469 40.6014 109.979 44.9114 111.239 49.3214C106.859 50.6314 102.549 52.1414 98.3488 53.9414C97.3788 54.3614 96.1588 54.4714 96.0588 55.9014C96.0388 62.6914 96.0188 69.4814 95.9888 76.2614C90.9188 78.5814 86.3288 81.7414 81.4688 84.4214C80.2888 85.0714 79.2188 86.6814 77.4688 85.5914C77.4887 84.1814 77.4987 82.7614 77.5387 81.3514C77.7387 74.7314 77.0188 68.0914 78.1888 61.5014C78.9088 57.4614 79.5187 53.4114 80.1787 49.3614Z" fill="#EB803B"/>
<path d="M77.4709 85.5917C79.2209 86.6817 80.2909 85.0817 81.4709 84.4217C86.3309 81.7317 90.9209 78.5817 95.9909 76.2617C101.101 79.1517 106.211 82.0317 111.311 84.9417C112.271 85.4917 113.161 86.1317 113.161 87.4217C107.221 91.1117 101.271 94.8217 94.8409 97.6017C90.2509 99.5817 85.5509 101.302 80.8909 103.142C77.9109 102.962 75.1209 104.122 72.2009 104.402C68.8009 104.722 65.4509 104.832 62.0909 104.072C55.5909 102.612 52.7509 98.0017 54.7209 91.6217C56.6009 85.5217 60.5209 80.7117 65.0109 76.3217C65.9109 77.1117 66.7409 78.0217 67.7309 78.6717C71.0609 80.8617 73.2509 84.6417 77.4709 85.5817V85.5917Z" fill="#E04C1E"/>
<path d="M113.158 87.4217C113.158 86.1417 112.278 85.4917 111.308 84.9417C106.208 82.0417 101.098 79.1517 95.9883 76.2617C96.0083 69.4717 96.0283 62.6817 96.0583 55.9017C97.0883 55.8217 97.9783 56.2317 98.8783 56.6617C105.118 59.6617 110.868 63.4317 116.528 67.4017C120.188 69.9617 123.038 73.5017 126.998 75.6617C126.818 77.0117 128.018 77.5217 128.688 78.3117C132.258 82.5017 135.688 86.7817 137.078 92.2517C138.598 98.2417 135.868 102.562 129.808 104.002C123.498 105.502 117.388 104.152 111.258 102.812C112.088 98.8017 112.958 94.8017 113.718 90.7817C113.938 89.6517 114.228 88.3917 113.148 87.4317L113.158 87.4217Z" fill="#E36929"/>
<path d="M126.991 75.6516C123.031 73.5016 120.181 69.9616 116.521 67.3916C110.861 63.4216 105.111 59.6516 98.8708 56.6516C97.9708 56.2216 97.0808 55.8116 96.0508 55.8916C96.1508 54.4616 97.3708 54.3516 98.3408 53.9316C102.541 52.1316 106.851 50.6216 111.231 49.3116C116.841 48.2416 122.401 46.9616 128.201 47.8516C136.311 49.1116 139.501 54.3716 136.551 62.0516C134.511 67.3616 131.091 71.7516 126.991 75.6416V75.6516Z" fill="#E34A1F"/>
<path d="M77.4685 85.591C73.2485 84.651 71.0585 80.861 67.7285 78.681C66.7385 78.031 65.9085 77.121 65.0085 76.331C62.2985 72.781 59.1185 69.591 56.9185 65.621C50.8985 54.761 55.0685 47.521 67.4985 47.501C71.7985 47.501 76.0185 48.251 80.1785 49.361C79.5185 53.411 78.9085 57.461 78.1885 61.501C77.0185 68.091 77.7285 74.731 77.5385 81.351C77.4985 82.761 77.4885 84.181 77.4685 85.591Z" fill="#E26929"/>
<path d="M113.158 87.4219C114.238 88.3819 113.938 89.6419 113.728 90.7719C112.958 94.7919 112.098 98.7919 111.268 102.802C109.648 108.162 107.828 113.442 104.358 117.962C99.1184 124.762 92.6684 124.842 87.4784 118.012C84.1284 113.602 81.8884 108.632 80.8984 103.152C85.5484 101.312 90.2584 99.5919 94.8484 97.6119C101.288 94.8319 107.228 91.1219 113.168 87.4319L113.158 87.4219Z" fill="#E4804B"/>
<path d="M61.4195 156.228H57.7695V163.008H61.4195V156.228Z" fill="#4D4B4C"/>
<path d="M76.2489 146.108C76.2689 145.628 76.2889 145.128 76.2489 144.708V141.328H72.6989V144.748C72.6589 145.428 72.6789 146.098 72.6989 146.758V147.858C72.6089 149.688 70.9989 151.258 69.1789 151.258C64.6689 151.258 60.1589 151.258 55.6389 151.258H51.1289C48.0389 151.258 46.7589 150.148 46.5889 147.318V141.328H43.0189V144.178C42.9889 144.858 42.9989 145.538 43.0189 146.228V147.948H43.0489C43.1689 149.818 43.8889 151.488 45.0989 152.698C46.4189 154.018 48.2789 154.748 50.3289 154.748H65.9189C66.3089 154.768 66.7389 154.758 67.1489 154.768C69.5389 154.838 72.4489 154.928 74.4989 152.208C76.4089 154.838 79.0889 154.798 81.4989 154.768C81.8989 154.768 82.3089 154.758 82.7089 154.768L83.4289 154.788C86.0889 154.858 89.0689 154.938 91.0289 152.288C93.7389 154.678 94.2789 154.748 98.2889 154.748C100.369 154.748 102.459 154.748 104.539 154.728C109.679 154.708 114.999 154.678 120.219 154.808C120.419 154.808 120.609 154.808 120.809 154.808C123.089 154.808 125.379 154.418 127.179 152.408C127.419 152.578 127.649 152.758 127.879 152.938C128.959 153.768 129.979 154.548 131.189 154.618C134.579 154.818 138.029 154.788 141.369 154.768C142.979 154.758 144.599 154.748 146.209 154.758C147.039 154.758 147.689 154.548 148.129 154.108C148.719 153.508 148.769 152.658 148.759 152.068C148.689 148.968 148.689 146.448 148.759 144.158C148.779 143.518 148.729 142.588 148.089 141.938C147.449 141.298 146.559 141.248 145.939 141.268C143.299 141.338 140.699 141.338 138.199 141.268C137.199 141.238 136.479 141.468 135.979 141.958C135.319 142.618 135.269 143.568 135.289 144.318C135.359 146.098 135.339 147.868 135.329 149.748C135.329 150.238 135.329 150.738 135.319 151.238C134.879 151.228 134.419 151.208 133.899 151.268C132.399 151.438 131.149 151.098 130.279 150.298C129.349 149.438 128.879 148.068 128.939 146.348C128.939 146.068 128.939 145.788 128.939 145.508C128.939 145.128 128.939 144.748 128.959 144.348C128.999 143.678 128.989 142.698 128.329 142.018C127.679 141.328 126.699 141.258 125.909 141.268C122.609 141.318 119.249 141.308 115.999 141.298C114.089 141.298 112.229 141.288 110.159 141.298C109.759 141.298 109.359 141.298 108.969 141.308C108.969 141.278 108.969 141.248 108.959 141.218C109.289 141.088 109.609 140.968 110.019 140.828C114.179 139.388 118.419 137.978 122.529 136.608L127.079 135.088C127.729 134.878 128.619 134.588 128.889 133.708C129.169 132.788 128.489 131.908 128.269 131.618L127.869 131.098L118.479 134.228C114.869 135.438 111.269 136.648 107.659 137.838C104.689 138.818 105.379 141.408 105.709 142.658C105.749 142.808 105.789 142.958 105.819 143.098C106.129 144.418 107.749 144.808 108.649 144.828C111.459 144.908 114.319 144.898 117.079 144.888C118.039 144.888 118.999 144.888 119.959 144.888H125.449V145.398C125.449 146.358 125.449 147.218 125.449 148.088C125.429 149.388 123.599 151.248 122.339 151.258C113.859 151.278 104.839 151.288 95.8889 151.228C95.3989 151.228 94.6789 150.768 94.2389 150.488C92.6289 149.468 92.6189 148.138 92.7489 145.878C92.7689 145.558 92.7889 145.228 92.7989 144.898C92.9889 144.898 93.1789 144.898 93.3689 144.898C94.4389 144.898 95.4489 144.918 96.4189 144.878H99.3189V141.228H82.5689V144.878H85.4989C86.5389 144.918 87.5589 144.908 88.6389 144.898C88.8189 144.898 88.9889 144.898 89.1689 144.898C89.1589 145.308 89.1489 145.678 89.2089 146.048C89.4689 147.788 89.0989 149.268 88.1589 150.208C87.1989 151.168 85.6889 151.548 83.9089 151.298C83.1389 151.188 82.3689 151.218 81.6389 151.238C81.3289 151.248 81.0089 151.258 80.6989 151.258C77.6989 151.258 76.3989 150.108 76.2489 147.318V146.218M145.109 151.088H138.949V145.008H145.109V151.088Z" fill="#4D4B4C"/>
</g>
<defs>
<clipPath id="clip0_4880_38365">
<rect width="192" height="192" fill="white"/>
</clipPath>
</defs>
</svg>
