<svg width="192" height="192" viewBox="0 0 192 192" fill="none" xmlns="http://www.w3.org/2000/svg">
<g clip-path="url(#clip0_4880_38948)">
<path d="M96 192C149.019 192 192 149.019 192 96C192 42.9807 149.019 0 96 0C42.9807 0 0 42.9807 0 96C0 149.019 42.9807 192 96 192Z" fill="url(#paint0_linear_4880_38948)"/>
<path d="M148.089 96.16C147.829 110.21 145.539 124.1 138.379 136.74C132.539 147.05 125.409 156.3 114.429 161.68C98.9392 169.26 79.9592 167.09 66.0992 153.35C55.3192 142.66 48.7492 129.69 45.8992 114.96C42.2592 96.16 43.3592 77.65 51.2892 59.92C56.0692 49.23 62.7692 39.98 72.4492 33.19C81.8592 26.58 92.3892 24.87 103.599 26.71C117.509 28.99 126.809 37.74 134.479 48.77C144.349 62.94 147.869 78.93 148.089 96.18V96.16ZM92.1192 100.44C92.1192 106.18 94.7392 114.04 100.899 121.78C104.739 126.6 109.559 129.75 115.799 130.45C119.009 130.81 119.149 130.73 120.259 127.7C120.739 126.39 121.179 125.07 121.599 123.74C125.339 111.91 126.039 99.76 125.119 87.5C124.459 78.78 122.499 70.34 118.969 62.29C118.499 61.22 117.949 60.81 116.769 60.87C111.309 61.11 106.759 63.37 102.969 67.17C95.1592 75 91.9892 84.66 92.1092 100.44H92.1192Z" fill="white"/>
</g>
<defs>
<linearGradient id="paint0_linear_4880_38948" x1="7.7" y1="81.92" x2="197.33" y2="112.16" gradientUnits="userSpaceOnUse">
<stop stop-color="#006698"/>
<stop offset="1" stop-color="#022A7B"/>
</linearGradient>
<clipPath id="clip0_4880_38948">
<rect width="192" height="192" fill="white"/>
</clipPath>
</defs>
</svg>
