<svg width="192" height="192" viewBox="0 0 192 192" fill="none" xmlns="http://www.w3.org/2000/svg">
<g clip-path="url(#clip0_4880_38450)">
<path d="M96 192C149.019 192 192 149.019 192 96C192 42.9807 149.019 0 96 0C42.9807 0 0 42.9807 0 96C0 149.019 42.9807 192 96 192Z" fill="white"/>
<path d="M66.2343 117.302C66.2343 117.302 77.474 121.775 86.1452 114.529C90.4232 106.974 92.1503 106.398 92.1503 106.398C92.1503 106.398 96.4372 109.313 96.2778 109.499C96.1183 109.685 89.3249 118.055 89.3249 118.055L82.2569 121.075L78.0054 122.395C78.0054 122.395 71.2828 124.733 65.3751 122.731C59.4674 120.729 66.2254 117.302 66.2254 117.302H66.2343Z" fill="#FF2713"/>
<path d="M57.041 120.03H57.0499V120.048L57.041 120.03Z" fill="#262626"/>
<path d="M92.8751 86.8154C92.7333 87.2494 92.3968 87.6391 91.821 87.5417C91.2896 87.4531 90.6608 87.8428 90.3685 86.8951C89.4473 83.9545 88.1719 81.1557 86.1968 78.7377C83.4245 75.3631 79.7842 73.6005 75.515 73.0779C71.2724 72.5554 67.2159 73.1931 63.487 75.3808C60.0061 77.4179 57.8981 80.5622 56.4456 84.2114C55.2764 87.1697 54.7361 90.2608 54.5058 93.414C54.2313 97.1694 54.3375 100.889 55.2498 104.565C56.729 110.464 60.0593 114.839 65.8076 117.178C66.0379 117.275 66.2947 117.337 66.5427 117.408L66.4719 122.944C64.1956 122.536 61.9281 122.058 59.7581 121.208C58.837 120.845 58.0044 120.287 57.039 120.047C57.0744 119.906 56.9416 119.888 56.8707 119.826C56.729 119.791 56.5784 119.755 56.4456 119.72C56.3924 119.525 56.233 119.454 56.0824 119.357C48.9347 114.715 44.9224 108.135 44.143 99.6583C43.3812 91.368 45.6487 83.9988 51.2995 77.8165C55.6927 73.0071 61.2816 70.3411 67.6941 69.3668C73.5576 68.4722 79.173 69.3136 84.4873 71.9885C87.0559 73.2905 88.1099 72.1568 88.8628 70.0931C89.2348 69.0479 89.2259 69.0391 90.4216 69.0391C91.6173 69.0391 91.635 69.0391 91.7236 70.2082C92.0956 75.3719 92.4588 80.5268 92.8219 85.6728C92.8396 86.0714 92.9902 86.4965 92.8751 86.8331V86.8154Z" fill="#FF2713"/>
<path d="M140.502 55.7171C142.362 58.0731 143.859 60.5974 145.108 63.2899C146.79 66.9214 147.579 70.792 148.216 74.7068C148.296 75.194 148.19 75.566 147.747 75.9025C145.046 77.9663 142.521 80.2425 139.908 82.4126C137.916 84.0777 135.914 85.7606 133.806 87.284C133.354 87.6117 133.097 87.5497 132.761 87.0803C130.024 83.316 127.234 79.596 124.515 75.8228C123.611 74.5651 122.894 73.1834 122.052 71.8814C121.742 71.4031 122.132 71.2702 122.371 71.0754C126.012 67.9842 129.661 64.9019 133.31 61.8108C135.692 59.7914 138.084 57.7719 140.502 55.7171Z" fill="#1169E4"/>
<path d="M109.5 54.8495C109.828 55.0355 109.96 54.7167 110.138 54.5749C114.088 51.2801 118.038 47.9852 121.971 44.6549C122.369 44.3184 122.688 44.3006 123.158 44.4158C128.339 45.7001 132.794 48.3218 136.753 51.8204C137.816 52.7592 138.737 53.8664 139.747 54.885C140.19 55.3367 139.72 55.4695 139.499 55.6644C135.407 59.2072 131.306 62.7501 127.205 66.2841C125.487 67.7633 123.751 69.2158 122.042 70.7038C121.661 71.0316 121.484 70.9873 121.191 70.6153C117.365 65.6995 113.53 60.7927 109.659 55.9124C109.34 55.5138 109.535 55.2038 109.518 54.8495H109.509H109.5Z" fill="#298DEF"/>
<path d="M94.6259 43.4688C95.6356 43.4688 96.6453 43.4865 97.6551 43.4688C98.0536 43.4599 98.3282 43.5662 98.5851 43.9028C101.49 47.729 104.395 51.5376 107.336 55.3373C107.673 55.7713 107.655 55.9751 107.239 56.3293C102.411 60.4568 97.5931 64.5931 92.7836 68.7471C92.4028 69.0748 92.261 68.9774 92.013 68.6319C88.2665 63.5391 84.511 58.4462 80.7379 53.3711C80.4633 52.9991 80.4722 52.7953 80.8265 52.4853C84.077 49.6245 87.3187 46.737 90.5427 43.8496C90.835 43.5839 91.1273 43.4688 91.5259 43.4776C92.5622 43.5042 93.5985 43.4776 94.6259 43.4776V43.4688Z" fill="#2FB8CA"/>
<path d="M94.5461 142.04C94.5461 143.643 94.5372 145.237 94.5461 146.841C94.5461 147.221 94.4309 147.478 94.1387 147.726C91.3309 150.082 88.5232 152.447 85.7332 154.821C85.3966 155.113 85.2284 155.042 84.9804 154.732C81.0123 149.87 77.0355 145.016 73.0409 140.171C72.7398 139.808 72.8106 139.631 73.1383 139.365C77.7175 135.565 82.2966 131.748 86.8669 127.931C87.2035 127.647 87.3895 127.621 87.6729 127.993C89.8606 130.809 92.0661 133.617 94.2715 136.425C94.4841 136.699 94.5461 136.974 94.5461 137.31C94.5372 138.887 94.5461 140.463 94.5461 142.04Z" fill="#E08201"/>
<path d="M115.586 103.184C114.709 103.591 114.009 104.255 113.221 104.787C112.548 105.247 111.662 105.238 111.086 104.813C110.812 104.61 110.706 104.424 110.785 104.069C111.033 102.918 110.528 102.032 109.643 101.394C108.686 100.712 107.588 100.712 106.56 101.217C104.984 101.988 104.364 103.281 104.869 104.672C105.232 105.672 105.976 106.292 107.03 106.443C107.57 106.514 108.11 106.54 108.217 107.169C108.323 107.789 108.217 108.418 107.659 108.817C106.206 109.88 104.754 110.934 103.274 111.961C102.681 112.377 102.176 112.236 101.618 111.571C98.6953 108.055 95.7813 104.539 92.8584 101.022C92.451 100.526 92.0347 100.039 91.6273 99.5522C91.0958 98.9145 91.1313 98.5779 91.7956 98.0996C93.1596 97.0899 94.5324 96.089 95.9141 95.097C96.2773 94.8402 96.5253 94.539 96.605 94.0962C96.729 93.4053 96.4633 93.0422 95.7636 92.9359C93.4164 92.5727 92.3093 90.3939 93.6024 88.5516C94.8247 86.8067 96.9681 86.541 98.7307 87.8607C99.2976 88.2859 99.5899 89.1096 99.4836 89.9333C99.4216 90.4116 99.3507 90.8987 99.8999 91.1379C100.467 91.3859 101.042 91.3947 101.583 91.005C102.681 90.2079 103.788 89.4284 104.886 88.6402C106.002 87.8371 106.994 87.9729 107.862 89.0476C110.98 92.9004 114.08 96.7533 117.216 100.588C117.623 101.084 117.915 101.483 117.348 102.014H117.366C116.64 102.2 116.082 102.661 115.577 103.201H115.586V103.184Z" fill="#649E01"/>
<path d="M101.068 113.104C99.1457 113.254 97.3123 113.422 95.4789 113.502C94.8854 113.538 94.7614 113.768 94.7349 114.29C94.6109 116.602 94.4337 118.905 94.3009 121.217C94.2831 121.562 94.1414 121.757 93.8934 121.952C91.812 123.635 89.7217 125.335 87.6403 127.018C87.3834 127.231 87.1797 127.452 86.8697 127.036C85.3463 125.043 83.7963 123.068 82.264 121.084C83.8937 120.189 85.55 119.321 87.0203 118.152C89.7837 115.947 91.9626 113.254 93.8226 110.278C94.2034 109.667 94.0263 109.118 93.3886 108.728C92.184 108.002 92.1751 107.993 91.2894 109.082C89.3408 111.492 87.286 113.812 84.7528 115.619C83.2206 116.717 81.52 117.479 79.6954 117.957C78.4465 116.15 77.0471 114.476 75.6831 112.758C75.258 112.236 75.3111 111.988 75.8071 111.562C80.5103 107.577 85.2046 103.556 89.8988 99.5344C90.2266 99.2598 90.4568 98.9675 90.8731 99.5255C94.1591 103.919 97.4717 108.285 100.784 112.67C100.873 112.785 100.944 112.9 101.077 113.104H101.068Z" fill="#B8DD06"/>
<path d="M66.5878 95.921C66.6232 93.4056 66.6587 90.8813 66.6587 88.3658C66.6587 87.6927 66.6587 87.0284 66.6498 86.3553C66.6498 85.8061 66.7561 85.6024 67.3761 85.6024C70.1041 85.6201 72.841 85.5847 75.569 85.5493C76.0384 85.5493 76.3307 85.6821 76.6052 86.063C79.1827 89.6324 81.769 93.2018 84.373 96.7536C84.6741 97.1698 84.6387 97.3647 84.249 97.6836C79.5104 101.536 74.7895 105.398 70.0775 109.278C69.6435 109.632 69.431 109.588 69.0944 109.171C68.3858 108.294 67.6241 107.444 66.8624 106.612C66.5701 106.302 66.4727 105.974 66.4727 105.558C66.4904 102.351 66.5435 99.1361 66.5967 95.9298L66.5878 95.921Z" fill="#51F905"/>
<path d="M140.846 99.2776C140.872 99.9773 140.518 100.464 140.181 100.943C139.198 102.307 137.985 103.467 136.727 104.574C134.406 106.611 131.944 108.445 129.234 109.924C128.437 110.358 127.613 110.748 126.718 110.969C126.196 111.102 125.815 110.996 125.469 110.5C123.317 107.47 121.138 104.468 118.933 101.474C118.605 101.031 118.649 100.828 119.048 100.473C123.477 96.5673 127.896 92.6435 132.29 88.6933C132.777 88.2593 132.963 88.3301 133.317 88.8173C135.726 92.0855 138.171 95.3273 140.598 98.5778C140.766 98.7993 141.076 98.9941 140.854 99.2864L140.846 99.2776Z" fill="#4000AB"/>
<path d="M124.192 76.5403C125.715 78.5066 127.106 80.3134 128.505 82.1203C129.834 83.8297 131.144 85.5569 132.491 87.2486C132.774 87.6029 132.748 87.78 132.411 88.0723C127.734 92.1909 123.076 96.3183 118.426 100.455C118.142 100.703 117.983 100.8 117.699 100.428C114.617 96.4069 111.508 92.3946 108.417 88.3823C108.373 88.3292 108.355 88.2583 108.293 88.1343C109.028 88.028 109.728 88.028 110.419 88.1343C112.474 88.462 114.502 88.2672 116.486 87.7269C121.224 86.4515 124.564 81.6509 124.2 76.5314L124.192 76.5403Z" fill="#127800"/>
<path d="M147.819 76.4437C148.422 77.8077 148.218 79.1628 148.05 80.4914C147.323 85.974 145.95 91.306 143.816 96.4166C143.506 97.1694 143.143 97.8957 142.638 98.5423C142.142 99.18 141.956 99.1711 141.478 98.5423C139.042 95.3271 136.606 92.0943 134.153 88.888C133.834 88.4717 133.887 88.268 134.259 87.9491C138.183 84.6188 142.089 81.2708 146.012 77.9317C146.588 77.4357 147.093 76.8511 147.81 76.4259L147.819 76.4437Z" fill="#610FFC"/>
<path d="M93.6992 68.7464C94.9835 67.657 96.1172 66.6916 97.2509 65.735C100.838 62.7059 104.443 59.6856 108.021 56.6298C108.473 56.2401 108.659 56.2844 108.996 56.7538C111.856 60.6953 114.753 64.6101 117.622 68.5427C117.755 68.7287 117.977 68.8882 117.959 69.1627C115.284 68.5959 112.574 68.8173 109.89 68.7907C104.726 68.7464 99.5538 68.7464 94.3901 68.7376C94.2306 68.7376 94.0712 68.7376 93.6992 68.7376V68.7464Z" fill="#1169E4"/>
<path d="M117.34 102.005C117.402 101.979 117.491 101.961 117.535 101.908C118.013 101.332 118.288 101.633 118.624 102.103C120.812 105.105 123.026 108.09 125.241 111.084C125.285 111.146 125.329 111.199 125.374 111.261C126.073 112.173 126.056 112.288 124.878 112.598C122.442 113.245 119.935 113.475 117.429 113.661C113.842 113.927 110.246 114.069 106.649 113.812C105.666 113.741 104.683 113.661 103.735 113.387C103.523 113.325 103.248 113.263 103.222 113.024C103.186 112.767 103.47 112.696 103.665 112.598C104.657 112.085 105.463 111.305 106.339 110.632C109.307 108.347 112.256 106.044 115.197 103.732C115.365 103.6 115.728 103.555 115.595 103.183L115.586 103.192C115.71 103.405 115.834 103.245 115.932 103.174C116.419 102.794 116.897 102.395 117.376 101.996H117.358L117.34 102.005Z" fill="#3E126F"/>
<path d="M81.451 126.318C77.2173 130.038 72.9924 133.794 68.7587 137.531V137.593L66.2344 139.781L66.3938 128.745L66.4115 127.222C66.4115 127.16 66.4204 127.08 66.4204 127.018C66.4912 125.672 66.5178 124.317 66.5621 122.961C66.8189 122.979 67.0758 123.006 67.3327 123.015C68.8118 123.121 70.2998 123.174 71.779 123.165C74.2412 123.147 76.6504 122.793 79.0241 122.155C79.7593 123.36 80.6893 124.414 81.5307 125.539C81.7787 125.858 81.761 126.053 81.4598 126.327L81.451 126.318Z" fill="#B8DD06"/>
<path d="M109.52 54.8404C109.476 54.8404 109.422 54.8315 109.378 54.8404C108.997 55.0264 108.794 55.6641 108.351 55.4958C108.014 55.3718 107.81 54.8847 107.554 54.557C104.861 51.0495 102.16 47.5332 99.4669 44.0258C99.3252 43.8398 99.1215 43.6804 99.0684 43.3527C106.632 43.5121 114.188 43.6715 121.778 43.8398C121.628 44.1941 121.38 44.3269 121.185 44.4952C117.465 47.7547 113.736 51.0052 110.025 54.2647C109.83 54.433 109.546 54.5304 109.511 54.8404L109.52 54.8315V54.8404Z" fill="#1169E4"/>
<path d="M56.4443 119.701C56.586 119.737 56.7366 119.781 56.8783 119.817C56.896 119.923 56.896 120.038 57.0466 120.038V120.029C57.0111 120.339 57.2503 120.516 57.392 120.738C59.5354 124.015 61.6789 127.283 63.84 130.543C64.1323 130.985 64.1854 131.242 63.716 131.614C61.3423 133.492 58.9951 135.405 56.648 137.318C56.2317 137.655 56.0811 137.602 55.9128 137.106C55.1954 135.042 54.3628 133.005 53.734 130.915C53.176 129.081 53.0874 127.141 52.7597 125.255C52.6888 124.865 52.7066 124.458 52.5737 124.095C52.246 123.173 52.5737 122.598 53.3443 122.075C54.416 121.34 55.4168 120.499 56.4531 119.71L56.4443 119.701Z" fill="#B8DD06"/>
<path d="M60.2634 46.0813C60.5823 44.4693 61.0517 42.8662 61.1934 41.2365C61.3794 39.0487 62.4246 37.5962 64.2669 36.5156C65.3829 35.8602 65.3297 35.7627 66.0649 36.8344C67.7477 39.2613 69.4217 41.697 71.1223 44.115C71.4146 44.5225 71.4057 44.7439 70.9895 45.0539C68.5715 46.8785 66.1712 48.7208 63.7709 50.5719C63.4166 50.8465 63.2217 50.9439 62.9294 50.4745C62.1412 49.199 61.2997 47.9502 60.476 46.6925C60.352 46.5065 60.2103 46.3293 60.2634 46.0813Z" fill="#83FF00"/>
<path d="M89.946 67.0461C88.9806 67.4713 88.0949 67.0638 87.2889 66.6653C83.6397 64.8318 80.2474 62.6441 77.5814 59.4732C76.9525 58.7204 76.2528 58.0207 75.5531 57.3298C75.2254 57.011 75.2785 56.8604 75.624 56.6212C76.9171 55.7267 78.1926 54.8055 79.4768 53.8844C79.6894 53.7338 79.8488 53.6098 80.0791 53.911C83.3651 58.2687 86.66 62.6264 89.9549 66.9753C89.9637 66.993 89.9549 67.0196 89.9549 67.0461H89.946Z" fill="#2FB8CA"/>
<path d="M76.161 118.551C73.0787 118.931 70.0673 118.506 67.1179 117.647C67.0027 117.612 66.8964 117.559 66.7902 117.505C66.7459 117.47 66.6927 117.452 66.6484 117.435V108.914C67.1356 109.392 67.7644 109.995 68.3844 110.588C68.5527 110.756 68.7476 110.933 68.8982 111.119C69.2613 111.624 69.5713 111.677 69.899 111.084C70.0407 110.836 70.1913 110.623 70.4747 111.013C72.3613 113.529 74.2744 116.035 76.161 118.551Z" fill="#C4D904"/>
<path d="M94.5753 148.222C94.5753 151.357 94.5753 154.333 94.5753 157.318C94.5753 157.69 94.4424 157.849 94.0881 157.894C91.3601 158.213 88.7384 157.814 86.2407 156.68C85.3107 156.264 85.3284 155.963 86.099 155.316C88.6852 153.155 91.2627 150.976 93.8401 148.806C94.0438 148.638 94.2475 148.479 94.5664 148.222H94.5753Z" fill="#FF2713"/>
<path d="M73.9727 43.3533C78.6581 43.5127 83.1841 43.6721 87.719 43.8227C87.7633 44.0973 87.5684 44.1593 87.4444 44.2567C85.0795 46.2496 82.697 48.2336 80.341 50.2441C79.9512 50.5807 79.7652 50.5807 79.4375 50.1644C77.7724 48.0653 76.0718 45.9927 74.3889 43.9113C74.2738 43.7695 74.1675 43.6101 73.9815 43.3444L73.9727 43.3533Z" fill="#37EB7C"/>
<path d="M94.3353 135.671C92.6081 133.51 91.005 131.491 89.393 129.48C88.9944 128.984 88.6047 128.471 88.1973 127.983C88.0024 127.753 87.9847 127.594 88.2327 127.381C90.2078 125.681 92.1741 123.971 94.1493 122.271C94.1758 122.244 94.2378 122.253 94.3264 122.235V135.68L94.3353 135.671Z" fill="#FF2713"/>
<path d="M57.6494 96.9477C59.412 99.5251 61.1745 102.094 62.9371 104.671C63.504 105.504 64.062 106.345 64.6465 107.169C64.8503 107.452 64.8237 107.594 64.5403 107.807C63.0611 108.914 61.5997 110.03 60.1383 111.155C59.7397 111.465 59.6157 111.341 59.5537 110.889C58.8805 106.248 58.2074 101.607 57.5254 96.9654C57.5608 96.9654 57.6051 96.9565 57.6405 96.9477H57.6494Z" fill="#51F905"/>
<path d="M84.8355 155.361C84.127 155.281 83.5601 154.865 83.0021 154.493C78.7772 151.65 75.3229 148.072 72.7544 143.661C72.3558 142.979 72.0458 142.261 71.9218 141.464C71.8952 141.269 71.8598 141.074 71.8864 140.88C71.9218 140.64 71.9484 140.33 72.1964 140.251C72.4444 140.171 72.5418 140.481 72.6747 140.64C76.3947 145.122 80.1147 149.613 83.8258 154.103C84.1712 154.52 84.4901 154.945 84.8267 155.37H84.8355V155.361Z" fill="#CDCF11"/>
<path d="M65.3926 63.5033C65.8886 59.7213 66.3757 56.0456 66.8894 52.1485C67.3766 52.9013 67.7486 53.4682 68.1117 54.035C69.1392 55.6559 70.1666 57.2679 71.194 58.8888C71.3712 59.1722 71.5572 59.3936 71.1409 59.6771C69.3517 60.8905 67.5714 62.1216 65.7912 63.3439C65.7203 63.3971 65.6229 63.4148 65.3926 63.5033Z" fill="#83FF00"/>
<path d="M58.9087 52.0858C58.9264 52.3073 58.7315 52.3604 58.6075 52.4578C57.7661 53.0955 56.9069 53.7155 56.0832 54.371C55.7289 54.6544 55.5518 54.5481 55.3304 54.2204C54.7547 53.3347 54.1612 52.4578 53.5412 51.6075C53.2755 51.2444 53.3818 51.0761 53.7007 50.8635C54.5775 50.2701 55.4278 49.6501 56.2869 49.0301C56.5172 48.8618 56.7032 48.7024 56.9335 49.0655C57.5358 50.0221 58.1735 50.9521 58.7935 51.8998C58.8378 51.9618 58.8644 52.0238 58.8998 52.0947L58.9087 52.0858Z" fill="#83FF00"/>
<path d="M57.5257 40.9174C56.7906 38.6057 56.0909 36.418 55.3203 34C56.2503 34.558 56.9943 35.0009 57.7295 35.4437C58.3583 35.8246 58.9872 36.2054 59.6249 36.5774C59.8286 36.6926 60.0058 36.79 59.8286 37.0823C59.0757 38.3134 58.3406 39.5534 57.5257 40.9174Z" fill="#83FF00"/>
<path d="M45.6211 43.6806C47.676 42.2457 49.5537 40.926 51.5731 39.5089C51.148 41.2714 50.7494 42.8569 50.3774 44.4511C50.2888 44.832 50.0851 44.7434 49.8371 44.6814C48.4997 44.3537 47.1711 44.0437 45.6211 43.6717V43.6806Z" fill="#83FF00"/>
<path d="M48.5977 62.9273C48.7394 60.4473 48.8722 58.1798 49.0051 55.9124C49.0582 55.8947 49.1114 55.877 49.1645 55.8593C50.1742 57.1436 51.1751 58.4367 52.1937 59.721C52.3354 59.8981 52.2911 60.0221 52.1317 60.1461C50.9979 61.0318 49.8731 61.9264 48.6065 62.9273H48.5977Z" fill="#83FF00"/>
<path d="M72.3607 54.8584C71.8913 52.5733 71.4662 50.5096 71.041 48.4547C71.0853 48.4281 71.1384 48.4015 71.1827 48.3661C72.0507 49.4467 72.9276 50.5184 73.7956 51.599C73.8753 51.7053 73.9019 51.8204 73.8399 51.9444C73.3793 52.8478 72.9187 53.7601 72.3607 54.8584Z" fill="#83FF00"/>
<path d="M84.8242 155.37C84.8242 155.37 84.8597 155.387 84.8774 155.405C84.8774 155.405 84.8774 155.432 84.8774 155.44C84.8597 155.414 84.8419 155.387 84.8331 155.361H84.8242V155.37Z" fill="#262626"/>
</g>
<defs>
<clipPath id="clip0_4880_38450">
<rect width="192" height="192" fill="white"/>
</clipPath>
</defs>
</svg>
