<svg width="192" height="192" viewBox="0 0 192 192" fill="none" xmlns="http://www.w3.org/2000/svg">
<g clip-path="url(#clip0_4880_38251)">
<path d="M96 192C149.019 192 192 149.019 192 96C192 42.9807 149.019 0 96 0C42.9807 0 0 42.9807 0 96C0 149.019 42.9807 192 96 192Z" fill="white"/>
<path d="M96.1632 28.0562C98.7932 28.0562 101.423 28.0562 104.063 28.0562C106.763 28.0562 108.116 29.4562 108.123 32.2562C108.123 35.4062 108.173 38.5562 108.113 41.7062C108.043 45.6062 109.393 48.8262 112.233 51.5362C115.273 54.4362 118.393 57.2962 121.133 60.4662C124.803 64.6962 129.173 66.4962 134.773 66.1162C139.423 65.8062 139.443 66.0562 139.443 70.7862C139.443 74.0362 139.383 77.2962 139.463 80.5462C139.503 82.4362 138.673 83.2262 136.833 83.2162C132.833 83.1962 128.833 83.1862 124.833 83.2162C122.903 83.2362 122.233 82.2862 122.343 80.4562C122.433 78.9962 122.343 77.5162 122.363 76.0462C122.393 72.5162 121.183 69.4962 118.663 66.9962C114.863 63.2162 111.123 59.3662 107.283 55.6362C101.683 50.1962 90.3932 50.2162 84.8331 55.7262C74.1531 66.3062 63.6032 77.0062 52.8932 87.5562C49.4832 90.9162 48.9032 94.9162 49.0432 99.3662C49.1932 104.066 49.0732 104.066 44.3632 104.076C41.2032 104.076 38.0432 104.056 34.8932 104.076C33.0332 104.096 31.9332 103.566 32.0032 101.376C32.1332 97.3962 32.1132 93.3962 32.0032 89.4162C31.9532 87.4362 32.9032 86.8062 34.6732 86.8362C36.0432 86.8562 37.4132 86.7662 38.7732 86.8462C42.7232 87.0862 45.8732 85.5762 48.6232 82.8062C59.0632 72.2862 69.5432 61.8062 80.0632 51.3562C82.7432 48.6862 84.1332 45.6262 83.9832 41.7962C83.8432 38.1262 84.0031 34.4462 83.9331 30.7762C83.8931 28.8062 84.5731 27.9162 86.6831 28.0062C89.8331 28.1462 92.9932 28.0462 96.1532 28.0462L96.1632 28.0562Z" fill="#3B3535"/>
<path d="M96.0829 162.946C93.2429 162.946 90.3829 162.786 87.5529 162.996C84.6829 163.206 83.8429 161.976 83.9729 159.326C84.1229 156.186 83.8429 153.016 84.0429 149.886C84.3329 145.326 82.6429 141.766 79.3429 138.716C76.5629 136.146 73.7729 133.546 71.3329 130.676C67.4729 126.126 62.7229 124.056 56.8429 124.716C53.6029 125.076 52.5329 123.846 52.7829 120.656C53.0429 117.426 52.9329 114.146 52.8129 110.896C52.7329 108.796 53.3729 107.796 55.6529 107.866C59.4429 107.986 63.2329 107.956 67.0229 107.876C69.0329 107.836 69.9529 108.596 69.8729 110.636C69.8029 112.316 69.8929 113.996 69.8529 115.676C69.7829 118.796 70.9129 121.406 73.1029 123.596C77.1229 127.606 81.0929 131.666 85.1729 135.616C90.2129 140.496 101.733 140.756 106.723 135.866C117.903 124.896 128.933 113.766 139.983 102.666C142.413 100.226 143.213 97.1462 143.233 93.7462C143.273 86.4662 141.913 86.9362 150.203 86.9362C152.523 86.9362 154.833 86.9662 157.153 86.9362C159.183 86.9062 160.303 87.6162 160.253 89.8762C160.163 93.6562 160.173 97.4362 160.253 101.216C160.293 103.296 159.293 104.016 157.343 103.936C155.873 103.876 154.393 103.896 152.923 103.936C149.413 104.016 146.413 105.206 143.883 107.756C133.213 118.496 122.493 129.186 111.763 139.866C109.243 142.376 108.013 145.376 108.003 148.906C108.003 152.686 107.933 156.466 108.023 160.246C108.073 162.266 107.313 163.096 105.253 163.026C102.203 162.916 99.1429 162.996 96.0929 162.996L96.0829 162.946Z" fill="#6FB36E"/>
</g>
<defs>
<clipPath id="clip0_4880_38251">
<rect width="192" height="192" fill="white"/>
</clipPath>
</defs>
</svg>
