<svg width="192" height="192" viewBox="0 0 192 192" fill="none" xmlns="http://www.w3.org/2000/svg">
<g clip-path="url(#clip0_4882_41379)">
<path d="M96 192C149.019 192 192 149.019 192 96C192 42.9807 149.019 0 96 0C42.9807 0 0 42.9807 0 96C0 149.019 42.9807 192 96 192Z" fill="white"/>
<path d="M75.9221 87.6876C76.0169 87.4762 76.0971 87.3595 76.1262 87.2283C76.7897 84.4722 78.248 82.1682 80.2166 80.1777C83.7018 76.6415 88.0401 74.5708 92.6991 73.1271C103.067 69.919 113.654 69.8606 124.314 71.0199C127.106 71.3262 129.862 71.8366 132.633 72.2886C132.735 72.3324 132.83 72.3907 132.939 72.4126C141.929 74.177 150.584 76.9477 158.867 80.8631C159.071 80.9578 159.275 81.1839 159.545 80.9724C159.501 80.71 159.268 80.6297 159.1 80.4985C156.869 78.7486 154.609 77.0425 152.254 75.4603C149.745 73.776 147.179 72.1865 144.576 70.6408C141.784 68.9857 138.955 67.4035 136.038 65.9817C135.87 65.8869 135.703 65.7849 135.528 65.6974C129.046 62.5257 122.338 59.9446 115.353 58.1145C110.789 56.9188 106.159 56.0365 101.441 55.8178C98.7727 55.6938 96.1114 55.6501 93.421 56.0219C90.8107 56.3792 88.2223 56.7 85.7433 57.6114C80.676 59.4634 76.7022 62.5549 74.5513 67.6514C73.0712 71.1585 72.8671 74.8332 73.3702 78.559C73.7931 81.687 74.6607 84.6909 75.9294 87.6803L75.9221 87.6876Z" fill="#262626"/>
<path d="M165.718 125.646C165.448 124.136 165.353 122.576 164.959 121.081C164.529 119.47 164.019 117.873 163.253 116.182C162.145 120.615 159.498 123.692 155.969 126.105C152.761 128.3 149.188 129.692 145.47 130.75C142.357 131.632 139.17 132.077 135.984 132.543C134.081 132.66 132.178 132.828 130.275 132.879C120.213 133.141 110.348 131.734 100.651 129.109C97.7126 128.314 94.818 127.41 91.9671 126.346C89.211 125.318 86.4841 124.195 83.8228 122.933C83.5093 122.788 83.2104 122.532 82.7656 122.737C82.9333 122.875 83.0719 122.999 83.2177 123.116C86.2289 125.456 89.3131 127.695 92.5212 129.765C101.161 135.35 110.275 139.951 120.075 143.137C122.875 144.049 125.689 144.902 128.598 145.412C128.7 145.456 128.802 145.507 128.912 145.529C133.84 146.564 138.813 147.169 143.866 146.973C147.504 146.827 151.07 146.265 154.475 144.924C159.564 142.919 163.355 139.572 165.076 134.249C165.98 131.457 166.264 128.599 165.732 125.646H165.718Z" fill="#262626"/>
<path d="M69.0743 71.9097C69.7232 70.4295 70.0951 68.8328 70.1388 67.2141C70.2263 63.9185 68.9503 60.6156 66.6682 58.2314C65.7568 57.2835 64.6996 56.4815 63.759 55.5628C62.6872 54.5201 61.7612 53.3317 60.6894 52.289C56.7084 48.4174 49.7964 46.2228 44.5467 48.6653C43.6499 49.0809 42.7531 49.5548 41.7687 49.7007C40.974 49.8173 40.1647 49.7152 39.3554 49.6788C34.463 49.4965 29.5852 52.3547 27.3613 56.7148C25.1375 61.0749 25.6771 66.7037 28.6956 70.5608C27.7332 72.1503 26.7635 74.1845 27.7551 75.7594C28.5498 77.0135 30.2195 77.3197 31.6923 77.502C32.1735 77.5603 32.6766 77.6187 33.136 77.4656C33.6318 77.3052 34.0182 76.9187 34.3828 76.5469C35.9941 74.9063 37.6055 73.2658 39.2168 71.6326C40.2449 70.5827 41.3167 69.4744 41.7177 68.0599C42.1625 66.4777 41.7031 64.8007 41.6594 63.1602C41.5792 60.2583 42.8843 57.3783 45.0133 55.4024C47.1424 53.4265 50.0443 52.3547 52.9535 52.3036C53.7263 52.289 54.769 52.639 54.6596 53.4119C54.6231 53.6962 54.4117 53.9296 54.2148 54.141C53.2524 55.1691 52.2972 56.1971 51.3348 57.2252C50.212 58.4282 49.0016 59.8865 49.2422 61.5124C49.337 62.1613 49.6651 62.7592 50.0297 63.306C50.9265 64.6476 52.1004 65.8142 53.4565 66.6965C54.0325 67.0756 54.6669 67.411 55.3523 67.4839C56.9053 67.6589 58.2614 66.4996 59.3989 65.4205C60.4196 64.4508 61.4404 63.4883 62.4612 62.5186C62.6872 62.2999 62.9424 62.0738 63.2486 62.0301C64.1163 61.8988 64.4735 63.1092 64.4079 63.9841C64.2038 66.7329 63.1903 69.4598 61.3675 71.5305C59.5447 73.6012 56.8907 74.972 54.1273 75.0376C51.9837 75.0886 49.7234 74.4033 47.7767 75.2782C46.8434 75.7011 46.0924 76.4375 45.3633 77.1593C42.8916 79.6238 40.4126 82.0809 37.9409 84.5453C37.8242 84.662 37.7076 84.7859 37.6857 84.9463C37.6638 85.1505 37.8096 85.3255 37.9482 85.4786C41.8854 89.6856 48.2288 91.472 53.7846 89.9335C59.3405 88.3951 63.8684 83.612 65.0933 77.9759C65.1735 77.5895 65.2464 77.1885 65.4506 76.8531C65.6401 76.525 65.9318 76.2698 66.2089 76.0146C67.4338 74.8626 68.4108 73.4627 69.0816 71.9242L69.0743 71.9097ZM62.7455 76.6708C62.7091 76.6708 62.6726 76.6635 62.6362 76.6635C62.6726 76.6635 62.7091 76.6635 62.7455 76.6708ZM62.8986 76.6927C62.8986 76.6927 62.8403 76.6927 62.8112 76.6781C62.8403 76.6781 62.8768 76.6854 62.8986 76.6927Z" fill="#262626"/>
<path d="M41.4454 108.439C41.5985 108.344 41.7151 108.264 41.8318 108.198C45.9805 106.164 46.2867 101.527 44.9087 98.7704C43.5379 96.0362 41.0662 94.928 38.1789 94.7092C34.9854 94.4613 31.7845 94.6655 28.5837 94.6072C28.0952 94.5999 27.9785 94.7676 27.9785 95.2342C27.9931 101.607 27.9931 107.972 27.9785 114.344C27.9785 114.84 28.1535 114.95 28.6056 114.942C29.7576 114.913 30.9096 114.906 32.0543 114.942C32.5793 114.964 32.7178 114.804 32.7105 114.286C32.674 112.799 32.7105 111.311 32.6886 109.824C32.6886 109.379 32.8199 109.241 33.2573 109.248C34.2927 109.277 35.3353 109.284 36.3707 109.248C36.8519 109.233 37.1363 109.401 37.3987 109.795C38.4487 111.355 39.5351 112.886 40.5923 114.439C40.811 114.767 41.0298 114.95 41.4672 114.942C42.8963 114.913 44.3254 114.928 45.9513 114.928C45.1201 113.732 44.391 112.682 43.6546 111.632C42.9182 110.575 42.1818 109.518 41.4308 108.439H41.4454ZM37.5519 105.471C36.1009 105.573 34.6427 105.522 33.1844 105.559C32.747 105.573 32.6813 105.369 32.6886 105.004C32.7032 103.969 32.6886 102.934 32.6886 101.898C32.6886 100.921 32.6886 99.937 32.6886 98.96C32.6886 98.6684 32.6522 98.3913 33.0969 98.4132C34.6864 98.4788 36.2905 98.2746 37.8727 98.5517C39.8778 98.909 40.9496 100.178 40.8839 102.066C40.8183 104.013 39.5788 105.34 37.5446 105.478L37.5519 105.471Z" fill="#262626"/>
<path d="M82.9041 102.3C81.6209 100.419 79.7762 99.4343 77.5597 99.1645C75.3723 98.902 73.3527 99.3322 71.6319 101.089C71.6319 100.652 71.6028 100.426 71.6319 100.214C71.7632 99.4562 71.4569 99.2447 70.7205 99.3031C69.882 99.3687 69.0363 99.3614 68.1978 99.3031C67.5124 99.2593 67.2937 99.4489 67.301 100.171C67.3447 103.284 67.3155 106.405 67.3155 109.518C67.3155 112.945 67.3301 116.364 67.301 119.791C67.301 120.433 67.4687 120.615 68.0957 120.579C69.0217 120.528 69.955 120.513 70.8736 120.579C71.6392 120.637 71.858 120.404 71.8361 119.624C71.7778 117.589 71.8142 115.548 71.8142 113.346C74.9276 116.204 79.7033 115.271 81.9708 113.091C84.6905 110.466 85.1279 105.566 82.8968 102.307L82.9041 102.3ZM75.3213 111.436C74.7817 111.406 74.2713 111.253 73.7974 110.998C71.9382 110.007 71.1872 107.141 72.2079 104.961C73.0975 103.058 75.4015 102.22 77.4357 103.116C79.171 103.882 79.7543 105.362 79.7543 107.148C79.7397 109.963 78.0482 111.596 75.3213 111.436Z" fill="#262626"/>
<path d="M97.3565 114.95C98.3335 114.892 99.3251 114.921 100.302 114.943C100.703 114.95 100.922 114.892 100.915 114.403C100.885 111.341 100.958 108.279 100.849 105.224C100.74 102.22 99.2376 100.287 96.4815 99.5219C93.4338 98.6761 90.4736 99.0699 87.63 100.426C86.6384 100.9 86.6457 100.929 87.1269 101.877C87.404 102.431 87.7175 102.963 87.9654 103.532C88.1623 103.984 88.3227 104.094 88.8112 103.795C90.4007 102.825 92.136 102.482 93.9806 102.803C95.2493 103.022 96.0659 103.816 96.3284 105.019C96.4524 105.574 96.3795 105.814 95.7087 105.814C93.8567 105.814 92.0047 105.676 90.1601 106.004C88.0383 106.383 86.5509 107.666 86.1718 109.489C85.7926 111.297 86.5145 113.091 88.0383 114.126C90.4663 115.774 94.4327 115.402 96.693 113.135C96.693 113.645 96.7148 113.944 96.693 114.236C96.6419 114.739 96.7513 114.994 97.3638 114.957L97.3565 114.95ZM96.4086 109.278C96.4815 110.51 95.8034 111.21 94.8775 111.72C93.9515 112.23 92.938 112.238 91.9391 112.004C91.0058 111.786 90.4809 111.071 90.4955 110.196C90.51 109.365 90.984 108.774 91.8954 108.556C93.2734 108.228 94.6806 108.388 96.0732 108.41C96.7003 108.417 96.2555 109.037 96.4086 109.278Z" fill="#262626"/>
<path d="M55.388 99.1499C52.3184 99.3906 49.905 100.82 48.6144 103.692C47.3531 106.499 47.5353 109.307 49.3727 111.829C51.2174 114.367 53.9224 115.14 56.9264 115.132C59.0992 115.132 61.0897 114.615 62.7448 113.113C63.0948 112.792 63.2041 112.566 62.8031 112.187C62.2344 111.647 61.7167 111.056 61.2063 110.459C60.9366 110.145 60.7543 110.101 60.397 110.386C58.8804 111.618 57.1306 111.793 55.3078 111.348C54.112 111.056 53.2006 110.335 52.6611 109.19C52.4059 108.65 52.3621 108.344 53.1569 108.373C54.8703 108.424 56.5837 108.388 58.2899 108.388C60.0616 108.388 61.8261 108.388 63.5979 108.388C63.9333 108.388 64.2468 108.461 64.2686 107.921C64.327 106.419 64.2176 104.954 63.5687 103.568C62.1323 100.484 59.2086 98.8583 55.4025 99.1572L55.388 99.1499ZM59.42 105.792C58.3263 105.77 57.2399 105.792 56.1462 105.792C55.0817 105.792 54.0172 105.77 52.96 105.8C52.4569 105.814 52.3184 105.668 52.4569 105.18C52.8798 103.605 54.4037 102.504 56.2046 102.489C57.9618 102.482 59.4929 103.612 59.9377 105.194C60.0908 105.734 59.8866 105.807 59.4273 105.8L59.42 105.792Z" fill="#262626"/>
<path d="M142.538 94.6072C142.05 94.6072 141.991 94.8186 142.006 95.2123C142.028 96.08 142.035 96.9549 142.006 97.8226C141.984 98.3111 142.159 98.4351 142.626 98.4278C144.31 98.3986 145.994 98.4569 147.678 98.3986C148.407 98.3694 148.539 98.6101 148.539 99.2881C148.51 104.253 148.539 109.226 148.51 114.191C148.51 114.767 148.648 114.972 149.246 114.95C150.31 114.899 151.382 114.891 152.447 114.95C153.125 114.993 153.22 114.731 153.212 114.14C153.183 111.639 153.198 109.146 153.198 106.645C153.198 104.122 153.212 101.592 153.183 99.0694C153.183 98.559 153.307 98.3986 153.832 98.4059C155.575 98.4424 157.31 98.4059 159.053 98.4278C159.556 98.4351 159.753 98.3184 159.723 97.7789C159.68 96.9404 159.694 96.0946 159.723 95.2561C159.738 94.8113 159.643 94.6072 159.133 94.6072C153.606 94.6218 148.072 94.6218 142.545 94.6072H142.538Z" fill="#262626"/>
<path d="M138.844 94.6071C137.75 94.629 136.656 94.6508 135.563 94.5998C134.936 94.5706 134.761 94.731 134.768 95.38C134.804 98.4933 134.782 101.607 134.782 104.727C134.782 107.899 134.79 111.071 134.775 114.242C134.775 114.76 134.87 114.979 135.453 114.957C136.598 114.906 137.757 114.928 138.902 114.95C139.325 114.957 139.493 114.855 139.493 114.395C139.478 108.001 139.478 101.599 139.493 95.205C139.493 94.68 139.266 94.6144 138.836 94.6217L138.844 94.6071Z" fill="#262626"/>
<path d="M122.745 99.1206C120.995 99.281 119.398 99.7623 118.02 101.111C118.02 100.725 117.991 100.338 118.027 99.9591C118.086 99.4342 117.889 99.281 117.371 99.3029C116.365 99.3467 115.352 99.3248 114.345 99.3029C113.944 99.2956 113.74 99.3612 113.74 99.8425C113.755 104.691 113.755 109.547 113.74 114.396C113.74 114.884 113.952 114.935 114.345 114.928C115.381 114.906 116.423 114.884 117.459 114.935C118.086 114.972 118.268 114.789 118.261 114.155C118.224 111.939 118.202 109.722 118.261 107.506C118.341 104.436 119.821 103.087 122.891 103.226C123.299 103.24 123.438 103.153 123.43 102.744C123.408 101.738 123.386 100.725 123.43 99.7185C123.459 99.1498 123.226 99.0769 122.745 99.1206Z" fill="#262626"/>
<path d="M105.625 114.943C106.689 114.914 107.754 114.906 108.818 114.943C109.365 114.965 109.533 114.804 109.525 114.243C109.496 111.888 109.511 109.533 109.511 107.178C109.511 104.764 109.503 102.358 109.518 99.9448C109.518 99.5 109.445 99.2813 108.927 99.2958C107.805 99.3323 106.682 99.325 105.566 99.2958C105.129 99.2886 104.99 99.4271 104.99 99.8719C105.005 104.691 105.005 109.518 104.99 114.338C104.99 114.841 105.165 114.943 105.625 114.935V114.943Z" fill="#262626"/>
<path d="M107.252 92.0916C105.641 92.0916 104.467 93.1634 104.467 94.6143C104.467 96.0798 105.626 97.1006 107.274 97.0933C108.929 97.0933 110.074 96.0142 110.052 94.4831C110.03 93.0832 108.871 92.0916 107.252 92.0916Z" fill="#262626"/>
<path d="M35.1924 81.1624C35.3965 81.3228 35.4986 81.1624 35.6007 81.053C36.6944 79.9083 37.9047 78.8803 38.9109 77.6481C39.4067 77.3637 39.7275 76.8898 40.1212 76.5033C41.2441 75.4097 42.345 74.2941 43.446 73.1713C43.8616 72.7411 43.8762 72.2599 43.4533 71.8297C43.0669 71.4432 42.5784 71.3557 42.1846 71.7641C40.741 73.2369 39.1807 74.6003 37.8318 76.1679C37.7078 76.1971 37.6276 76.27 37.6058 76.4013C37.4381 76.4158 37.3433 76.5106 37.3287 76.6783C36.461 77.2908 35.7975 78.1293 35.032 78.8511C34.558 79.3032 34.6893 80.7687 35.1997 81.1624H35.1924Z" fill="#262626"/>
<path d="M40.7416 48.2134C41.6675 48.2207 42.331 47.5572 42.331 46.624C42.331 45.6615 41.704 44.998 40.7926 44.9907C39.8229 44.9907 39.0938 45.6688 39.0938 46.5875C39.0938 47.5499 39.7572 48.2061 40.7416 48.2207V48.2134Z" fill="#262626"/>
<path d="M33.1418 83.2911C32.2523 83.2692 31.4648 84.0421 31.4648 84.9389C31.4648 85.8066 32.1867 86.543 33.0689 86.5649C33.9439 86.5867 34.6876 85.8941 34.724 85.0045C34.7678 84.0858 34.0459 83.3057 33.1418 83.2838V83.2911Z" fill="#262626"/>
<path d="M65.837 54.8049C66.5078 54.8049 67.0328 54.2726 67.0473 53.5654C67.0692 52.7925 66.5807 52.2821 65.8224 52.2748C65.1371 52.2676 64.4954 52.8873 64.51 53.5435C64.5246 54.2143 65.1443 54.8049 65.837 54.8049Z" fill="#262626"/>
<path d="M31.1313 79.1937C30.5189 79.2083 30.1397 79.5728 30.1033 80.1926C30.0668 80.754 30.6209 81.2863 31.1824 81.2425C31.8167 81.1915 32.0938 80.7759 32.1886 80.1926C32.0792 79.5947 31.7802 79.1718 31.1386 79.1864L31.1313 79.1937Z" fill="#262626"/>
<path d="M70.9256 76.2921C71.4724 76.3066 72.0557 75.789 72.0119 75.2494C71.9609 74.637 71.662 74.1849 70.9693 74.1776C70.2912 74.1776 69.9631 74.6005 69.8756 75.213C69.8027 75.7452 70.3568 76.2775 70.9256 76.2921Z" fill="#262626"/>
<path d="M62.6723 49.1466C63.1899 49.132 63.4597 48.7893 63.4889 48.2643C63.4233 47.7539 63.117 47.5279 62.6285 47.5498C62.1254 47.5717 61.8629 47.856 61.8775 48.3591C61.8921 48.8549 62.1838 49.1611 62.6723 49.1466Z" fill="#262626"/>
<path d="M35.2635 48.0459C35.7156 47.9876 36.0218 47.7689 36.0072 47.2949C35.9999 46.8793 35.752 46.595 35.3218 46.595C34.8552 46.595 34.5781 46.8866 34.5781 47.3387C34.5781 47.7543 34.8552 47.9876 35.2635 48.0532V48.0459Z" fill="#262626"/>
<path d="M67.6069 77.8521C67.5486 77.5458 67.3809 77.349 67.0528 77.3563C66.6809 77.3636 66.4913 77.6042 66.5205 77.9542C66.5497 78.275 66.7903 78.4354 67.1038 78.4208C67.4246 78.3989 67.5777 78.1729 67.6069 77.8521Z" fill="#262626"/>
</g>
<defs>
<clipPath id="clip0_4882_41379">
<rect width="192" height="192" fill="white"/>
</clipPath>
</defs>
</svg>
