<svg width="192" height="192" viewBox="0 0 192 192" fill="none" xmlns="http://www.w3.org/2000/svg">
<g clip-path="url(#clip0_4880_38608)">
<path d="M96 192C149.019 192 192 149.019 192 96C192 42.9807 149.019 0 96 0C42.9807 0 0 42.9807 0 96C0 149.019 42.9807 192 96 192Z" fill="white"/>
<path d="M49.3776 87.2101C50.8162 86.2928 52.1294 85.6749 53.6839 85.8293C55.8564 86.0514 57.3529 87.4128 57.5074 89.566C57.913 95.1372 57.5847 100.708 57.7005 106.289C57.7102 106.975 57.4785 107.226 56.7833 107.206C55.3543 107.168 53.9156 107.12 52.4866 107.216C51.4438 107.284 51.27 106.878 51.2797 105.951C51.328 101.761 51.3086 97.5607 51.2893 93.3702C51.2893 92.4144 51.1928 91.4681 51.1252 90.5122C51.0866 90.0295 50.8259 89.7012 50.3238 89.7012C49.8314 89.7012 49.5417 90.0198 49.4934 90.4929C49.4258 91.1785 49.3776 91.8737 49.3776 92.5592C49.3679 96.9621 49.3389 101.375 49.3969 105.777C49.4065 106.84 49.2134 107.322 48.0258 107.226C46.703 107.12 45.3706 107.158 44.0478 107.226C43.2464 107.255 42.9277 107.062 42.9277 106.183C42.9567 98.3814 42.9567 90.5702 42.9277 82.7686C42.9277 81.9479 43.1498 81.6485 43.9995 81.6872C45.4285 81.7548 46.8671 81.7451 48.2962 81.6872C49.1265 81.6485 49.4162 81.9189 49.3872 82.7589C49.3293 84.1783 49.3679 85.5976 49.3679 87.2294L49.3776 87.2101Z" fill="#262626"/>
<path d="M98.5325 103.268C97.5477 103.895 96.7559 104.426 95.7904 104.591C92.6813 105.112 90.4316 103.374 90.3158 100.197C90.2096 97.2814 90.2675 94.3558 90.2771 91.4399C90.2771 89.3833 90.3447 87.2301 92.5462 86.2356C94.7766 85.2411 96.8042 85.8494 98.4939 87.9446C98.687 86.5349 99.4884 86.3611 100.522 86.4577C101.931 86.5832 103.795 85.8783 104.654 86.728C105.523 87.5873 104.905 89.4412 104.905 90.8605C104.924 95.4758 104.924 100.101 104.876 104.726C104.847 107.96 103.351 109.737 100.213 110.393C98.1077 110.838 95.9932 110.857 93.8979 110.345C92.8648 110.094 91.851 109.718 91.1847 108.81C90.5378 107.931 89.9875 106.821 90.3834 105.855C90.6634 105.17 91.822 105.662 92.5751 105.604C93.3089 105.546 94.0621 105.585 94.8055 105.595C95.5587 105.604 96.418 105.344 96.7173 106.464C96.8235 106.85 97.287 106.898 97.6829 106.831C98.156 106.744 98.4746 106.435 98.5036 105.981C98.5518 105.141 98.5229 104.301 98.5229 103.277L98.5325 103.268ZM98.4553 95.1669C98.4553 95.1669 98.4843 95.1669 98.5036 95.1669C98.5036 93.7958 98.5229 92.4151 98.4939 91.044C98.4843 90.4743 98.4843 89.7598 97.7022 89.7019C96.8525 89.644 96.6787 90.3391 96.6787 91.0054C96.6594 93.8634 96.669 96.7214 96.6787 99.5697C96.6787 100.12 96.7752 100.699 97.4511 100.767C98.2429 100.844 98.4263 100.197 98.4456 99.6084C98.4939 98.1311 98.4649 96.6441 98.4649 95.1669H98.4553Z" fill="#262626"/>
<path d="M29.3311 98.2562C31.3072 98.2562 32.3243 99.2153 32.3822 101.134C32.3919 101.5 32.4305 101.877 32.4788 102.244C32.5464 102.814 32.7684 103.277 33.425 103.325C34.1202 103.383 34.5064 102.978 34.7285 102.379C35.2982 100.825 34.6995 98.6811 33.3478 97.6576C32.0346 96.6727 30.7118 95.6879 29.3311 94.7996C27.12 93.3802 26.1641 91.3526 26.0289 88.7939C25.8165 85.0572 26.7628 82.9041 29.2249 81.7744C32.2277 80.3937 37.1713 80.9151 39.1989 82.8944C40.9273 84.5841 40.5411 86.8049 40.5797 88.9001C40.5893 89.4794 40.0776 89.3153 39.7397 89.3249C38.9962 89.3443 38.2527 89.3249 37.5092 89.3249C36.6113 89.3249 35.5395 89.605 34.8443 89.2284C34.014 88.7746 34.6609 87.587 34.4581 86.747C34.323 86.1676 34.2554 85.5207 33.4733 85.5207C32.6815 85.5207 32.3919 86.1 32.305 86.7856C32.1215 88.2532 32.4305 89.5084 33.7822 90.3677C35.4333 91.4202 37.1134 92.4533 38.6003 93.7471C41.1783 95.9969 42.1921 102.012 40.4155 104.947C39.2955 106.792 37.3934 107.39 35.4237 107.69C34.1202 107.892 32.7877 107.854 31.4649 107.554C28.0952 106.782 26.6759 105.237 26.3089 101.819C26.3089 101.771 26.3089 101.713 26.2993 101.665C26.0869 99.373 27.1071 98.2273 29.3601 98.2273L29.3311 98.2562Z" fill="#262626"/>
<path d="M129.835 87.7319C130.927 86.6408 131.989 85.8587 133.485 85.8201C136.044 85.7622 137.618 87.0946 137.801 89.663C138.187 95.1762 137.878 100.709 137.994 106.232C138.014 107.014 137.724 107.246 136.981 107.217C135.706 107.168 134.422 107.13 133.157 107.217C131.95 107.313 131.535 106.985 131.554 105.681C131.631 101.221 131.573 96.7597 131.554 92.2989C131.554 91.932 131.554 91.5554 131.506 91.1885C131.419 90.5995 131.651 89.7595 130.714 89.7016C129.681 89.634 129.739 90.503 129.729 91.1692C129.691 95.9004 129.594 100.622 129.691 105.353C129.72 106.927 129.285 107.419 127.769 107.217C126.321 107.023 124.361 107.844 123.521 106.888C122.797 106.068 123.27 104.165 123.26 102.736C123.25 97.7446 123.279 92.7527 123.231 87.7608C123.222 86.7084 123.521 86.3801 124.564 86.4477C125.886 86.5346 127.219 86.5153 128.542 86.4477C129.449 86.3994 130.019 86.5539 129.816 87.7319H129.835Z" fill="#262626"/>
<path d="M67.5963 105.711C66.148 107.449 64.4679 107.854 62.4982 107.275C60.6251 106.724 59.785 105.817 59.6981 103.886C59.3892 97.1269 59.4278 97.5324 64.7769 95.3407C67.5383 94.211 67.9342 93.5061 67.4321 90.8605C67.3163 90.2523 67.1908 89.6729 66.4183 89.6922C65.6749 89.7115 65.6459 90.3295 65.6073 90.8412C65.5493 91.7392 65.5107 92.6468 65.5397 93.5448C65.559 94.2206 65.3562 94.5296 64.6514 94.4524C64.2265 94.4137 63.792 94.5006 63.3769 94.4331C62.1313 94.2303 60.5092 95.1186 59.6981 93.9986C58.7519 92.6951 60.0264 88.717 61.3878 87.5584C63.4058 85.8204 65.8197 85.6563 68.2915 85.888C71.9123 86.2259 73.5344 87.9736 73.7758 91.604C74.104 96.4221 73.8916 101.25 73.9882 106.078C74.0075 107.014 73.6792 107.265 72.8006 107.217C71.584 107.149 70.3577 107.12 69.1412 107.217C68.0115 107.313 67.4128 107.024 67.5866 105.711H67.5963ZM67.4901 97.4938C65.2597 98.7008 65.4721 100.584 65.6169 102.428C65.6652 103.017 65.7811 103.635 66.5631 103.654C67.3839 103.673 67.4708 103.036 67.4804 102.447C67.5094 100.883 67.4901 99.3091 67.4901 97.5035V97.4938Z" fill="#262626"/>
<path d="M114.918 105.469C112.842 107.661 110.94 108.028 108.768 106.937C108.623 106.869 108.478 106.802 108.353 106.715C105.939 105.15 106.093 98.1792 108.633 96.8274C110.168 96.0067 111.829 95.4371 113.412 94.7033C114.715 94.1046 115.266 90.9956 114.291 89.9817C114.049 89.7307 113.76 89.6342 113.431 89.7114C112.997 89.8176 112.852 90.1652 112.833 90.5514C112.775 91.5556 112.707 92.5597 112.726 93.5639C112.736 94.2494 112.514 94.5295 111.819 94.4619C111.394 94.4232 110.96 94.5101 110.544 94.4426C109.299 94.2398 107.706 95.1281 106.866 93.9984C105.997 92.8398 107.155 88.881 108.333 87.7707C110.322 85.8975 112.775 85.6561 115.314 85.8782C118.722 86.1775 120.876 87.9155 120.992 91.6232C121.146 96.4509 121.059 101.279 121.165 106.097C121.185 107.053 120.837 107.265 119.968 107.217C118.751 107.159 117.525 107.12 116.309 107.217C115.169 107.313 114.609 106.995 114.918 105.459V105.469ZM114.619 97.6482C112.92 98.5944 112.051 101.568 112.939 103.152C113.142 103.519 113.441 103.683 113.846 103.654C114.368 103.625 114.6 103.268 114.609 102.814C114.629 101.105 114.609 99.3958 114.609 97.6482H114.619Z" fill="#262626"/>
<path d="M74.4883 86.4673C75.3476 86.4673 76.0911 86.4673 76.8249 86.4673C80.2429 86.4673 80.2236 86.4673 80.7064 89.9336C81.1216 92.8689 81.5947 95.7945 82.1354 98.7201C82.9561 95.1572 83.0044 91.5268 83.2554 87.9253C83.3327 86.7763 83.6223 86.3032 84.8292 86.448C86.1907 86.6025 88.0252 85.8783 88.8169 86.7087C89.628 87.5584 88.7493 89.3157 88.6045 90.6578C88.0638 95.3986 87.4266 100.13 86.799 104.871C86.2969 108.675 84.8968 109.93 81.0636 110.036C80.1657 110.065 79.2581 110.056 78.3601 110.056C75.8207 110.056 75.8594 110.056 75.9366 107.487C75.9559 106.724 76.1587 106.444 76.9311 106.502C78.3118 106.609 78.476 105.875 78.2249 104.687C76.9697 98.778 75.7628 92.8592 74.5366 86.9404C74.5172 86.8342 74.5172 86.728 74.4979 86.4577L74.4883 86.4673Z" fill="#262626"/>
<path d="M154.999 97.4162C154.999 94.3168 154.96 91.2175 155.018 88.1277C155.037 87.1042 154.757 86.7953 153.715 86.8146C150.963 86.8532 150.963 86.7953 150.963 84.0435C150.963 82.3184 151.845 81.4558 153.608 81.4558C157.229 81.4558 160.86 81.5234 164.48 81.4172C165.784 81.3786 166.103 81.8227 165.977 83.0007C165.89 83.831 165.91 84.6807 165.977 85.5207C166.054 86.4863 165.842 86.8918 164.732 86.8725C161.883 86.8242 161.883 86.8918 161.883 89.7209C161.883 95.3403 161.854 100.96 161.902 106.579C161.902 107.603 161.758 108.124 160.57 107.999C158.764 107.815 156.38 108.742 155.289 107.641C154.265 106.618 155.057 104.243 155.018 102.466C154.98 100.786 155.018 99.1059 155.018 97.4259L154.999 97.4162Z" fill="#E20014"/>
<path d="M149.522 94.858C149.522 98.7974 149.484 102.746 149.542 106.686C149.561 107.7 149.31 108.057 148.258 107.999C146.742 107.902 145.206 107.941 143.691 107.999C142.899 108.028 142.59 107.825 142.59 106.956C142.619 98.807 142.619 90.6579 142.59 82.5087C142.59 81.6783 142.831 81.4079 143.662 81.4466C145.544 81.5238 147.958 80.819 149.165 81.7362C150.314 82.6052 149.465 85.1639 149.503 86.9791C149.561 89.6054 149.522 92.2317 149.522 94.8676V94.858Z" fill="#E20014"/>
</g>
<defs>
<clipPath id="clip0_4880_38608">
<rect width="192" height="192" fill="white"/>
</clipPath>
</defs>
</svg>
