<svg width="192" height="192" viewBox="0 0 192 192" fill="none" xmlns="http://www.w3.org/2000/svg">
<g clip-path="url(#clip0_4880_38772)">
<path d="M96 192C149.019 192 192 149.019 192 96C192 42.9807 149.019 0 96 0C42.9807 0 0 42.9807 0 96C0 149.019 42.9807 192 96 192Z" fill="white"/>
<path d="M77.5432 91.9092C77.5432 94.0334 77.5432 96.1674 77.5432 98.2916C77.5432 100.223 76.9638 101.971 75.7955 103.506C74.4243 105.311 72.6187 106.422 70.3882 106.827C69.8765 106.924 69.355 106.972 68.8336 106.972C66.2266 106.972 63.6195 106.972 61.0124 106.972C59.5254 106.827 58.0384 106.924 56.5515 106.914C55.0645 106.895 53.5678 106.914 52.0808 106.914C51.3856 106.914 51.4822 106.818 51.4822 107.503C51.4822 108.672 51.4822 109.85 51.4822 111.018C51.4822 115.083 48.5854 118.453 44.7907 119.293C44.221 119.419 43.6513 119.486 43.072 119.486C41.7588 119.486 40.4359 119.486 39.1227 119.486C39.0358 119.486 38.9489 119.486 38.862 119.486C38.7751 119.486 38.7365 119.428 38.7365 119.341C38.7365 119.216 38.7365 119.081 38.7365 118.955C38.7365 115.122 38.7365 111.288 38.7365 107.455C38.7365 106.837 38.8041 106.943 38.2054 106.914C36.4191 106.837 34.71 106.412 33.1265 105.601C29.8628 103.931 27.6227 101.381 26.5316 97.8668C26.2419 96.9495 26.0874 96.0129 26.0295 95.0569C25.817 91.7353 26.7536 88.7614 28.8393 86.1736C30.7898 83.7597 33.3196 82.2437 36.3805 81.645C37.2785 81.4712 38.1861 81.3843 39.1034 81.4133C43.6899 81.5774 47.6585 84.001 49.86 87.9116C50.6614 89.3407 51.1732 90.8663 51.3953 92.4885C51.4628 92.9906 51.5111 93.4927 51.5015 94.0045C51.5015 94.2072 51.5304 94.2265 51.7236 94.2362C51.8201 94.2362 51.9263 94.2362 52.0229 94.2362C56.0204 94.2362 60.0179 94.2362 64.0057 94.2362C64.0444 94.2362 64.0926 94.2362 64.1313 94.2362C64.5175 94.2362 64.5078 94.2555 64.5175 93.8596C64.5175 93.2803 64.5175 92.7009 64.5851 92.1312C64.8072 90.4801 65.4348 89.0124 66.4969 87.7378C67.8198 86.1446 69.5095 85.1501 71.5373 84.7252C72.107 84.6094 72.6863 84.5707 73.2657 84.5707C74.5692 84.5707 75.8727 84.5707 77.1763 84.5707C77.5528 84.5707 77.5625 84.5707 77.5625 84.9473C77.5625 87.2744 77.5625 89.6014 77.5625 91.9381L77.5432 91.9092ZM38.7172 91.0208C36.8053 91.0498 35.608 92.5754 35.5887 94.1493C35.579 95.5204 36.6605 97.3164 38.7268 97.3164C40.4939 97.3164 41.8843 95.8873 41.8746 94.159C41.865 92.0636 40.1462 91.0305 38.7172 91.0305V91.0208Z" fill="#FF5E2B"/>
<path d="M108.972 87.4669C108.972 83.6046 108.972 79.7423 108.972 75.88C108.972 75.3103 108.895 75.3392 109.504 75.3392C110.701 75.3392 111.908 75.3392 113.105 75.3392C114.467 75.3392 115.789 75.5903 117.006 76.2083C119.333 77.3863 120.801 79.2691 121.477 81.7797C121.66 82.4845 121.737 83.1991 121.737 83.9232C121.737 87.2545 121.737 90.5761 121.737 93.9073C121.737 94.0329 121.737 94.1681 121.737 94.2936C121.737 94.3998 121.795 94.4481 121.902 94.4481C121.988 94.4481 122.075 94.4481 122.162 94.4481C123.118 94.4481 124.074 94.4481 125.03 94.4481C125.098 94.4481 125.175 94.4481 125.242 94.4481C125.416 94.4384 125.455 94.4094 125.455 94.2453C125.455 93.917 125.455 93.579 125.455 93.2507C125.455 92.2755 125.638 91.3293 125.976 90.4119C126.99 87.6311 129.394 85.5551 132.282 84.9275C132.832 84.8116 133.392 84.744 133.962 84.744C135.352 84.744 136.743 84.744 138.133 84.744C138.201 84.744 138.278 84.744 138.345 84.744C138.423 84.744 138.481 84.8019 138.481 84.8792C138.481 84.9757 138.481 85.0819 138.481 85.1785C138.481 89.6009 138.481 94.0329 138.481 98.4552C138.481 102.453 135.777 105.842 132.04 106.846C131.326 107.039 130.592 107.145 129.858 107.145C128.661 107.145 127.454 107.145 126.256 107.145C123.302 107.145 120.347 107.145 117.402 107.145C116.05 107.145 114.756 106.836 113.569 106.19C111.319 104.963 109.832 103.129 109.185 100.637C109.021 99.9905 108.953 99.3339 108.953 98.658C108.953 96.1668 108.953 93.6853 108.953 91.1941C108.953 89.9485 108.953 88.7029 108.953 87.4573L108.972 87.4669Z" fill="#449666"/>
<path d="M78.2578 99.7781C78.2578 97.7117 78.2578 95.6454 78.2578 93.5791C78.2578 92.7776 78.3157 91.9955 78.4992 91.2134C79.233 88.0077 81.8401 85.4489 85.0652 84.7537C85.6928 84.6185 86.3204 84.5509 86.9577 84.5412C88.2709 84.5412 89.5937 84.5412 90.9069 84.5412C90.9649 84.5412 91.0228 84.5412 91.0807 84.5412C91.2738 84.5412 91.3125 84.5798 91.3221 84.7633C91.3221 84.8502 91.3221 84.9371 91.3221 85.024C91.3221 89.3884 91.3221 93.7625 91.3221 98.1269C91.3221 99.3822 91.0904 100.599 90.5883 101.758C89.4779 104.316 87.0736 106.344 84.1479 106.836C83.6168 106.923 83.0857 106.981 82.5546 106.981C81.2511 106.981 79.9476 106.981 78.644 106.981C78.2578 106.981 78.2578 106.981 78.2578 106.605C78.2578 104.336 78.2578 102.067 78.2578 99.7974V99.7781Z" fill="#FF5E2B"/>
<path d="M92.0761 99.7491C92.0761 97.5959 92.0761 95.4426 92.0761 93.2894C92.0761 92.0341 92.3078 90.8078 92.8389 89.6685C94.0555 87.071 96.0639 85.4296 98.8641 84.7537C99.5014 84.5992 100.148 84.5509 100.795 84.5412C102.099 84.5412 103.402 84.5412 104.706 84.5412C104.744 84.5412 104.793 84.5412 104.831 84.5412C105.102 84.5412 105.121 84.5605 105.121 84.8406C105.121 84.8985 105.121 84.9564 105.121 85.0144C105.121 89.3981 105.121 93.7818 105.121 98.1559C105.121 99.4112 104.88 100.628 104.378 101.777C103.229 104.403 100.786 106.334 97.9564 106.817C97.4157 106.914 96.8653 106.962 96.315 106.962C95.0597 106.962 93.7948 106.962 92.5395 106.962C92.4719 106.962 92.3947 106.962 92.3271 106.962C92.0857 106.962 92.0664 106.943 92.0664 106.682C92.0664 106.585 92.0664 106.479 92.0664 106.383C92.0664 104.171 92.0664 101.96 92.0664 99.7491H92.0761Z" fill="#FF5E2B"/>
<path d="M165.99 92.15C165.99 94.2453 165.99 96.3406 165.99 98.4455C165.99 100.522 165.334 102.366 164.021 103.969C162.688 105.591 160.979 106.605 158.903 107.001C158.372 107.097 157.841 107.155 157.31 107.155C155.997 107.155 154.674 107.155 153.361 107.155C153.293 107.155 153.216 107.155 153.148 107.155C153.003 107.155 152.965 107.116 152.955 106.981C152.955 106.885 152.955 106.779 152.955 106.682C152.955 102.26 152.955 97.8276 152.955 93.4052C152.955 91.4161 153.563 89.6201 154.809 88.0559C156.219 86.2792 158.044 85.2074 160.293 84.8405C160.738 84.7633 161.182 84.744 161.636 84.744C162.949 84.744 164.272 84.744 165.585 84.744C165.652 84.744 165.73 84.744 165.797 84.744C165.961 84.744 165.99 84.7826 166 84.9564C166 85.0723 166 85.1881 166 85.304C166 87.5924 166 89.8712 166 92.1596L165.99 92.15Z" fill="#449666"/>
<path d="M152.26 92.0923C152.26 94.2358 152.26 96.3698 152.26 98.5134C152.26 99.9135 151.941 101.246 151.275 102.472C149.942 104.934 147.895 106.45 145.134 106.991C144.603 107.097 144.072 107.146 143.541 107.146C142.237 107.146 140.934 107.146 139.63 107.146C139.533 107.146 139.427 107.146 139.331 107.136C139.263 107.136 139.224 107.088 139.224 107.03C139.224 106.933 139.215 106.827 139.215 106.73C139.215 102.26 139.215 97.7892 139.215 93.3185C139.215 89.3017 142.102 85.787 146.032 84.9276C146.582 84.8118 147.142 84.7345 147.712 84.7345C149.112 84.7345 150.522 84.7345 151.922 84.7345C151.96 84.7345 152.009 84.7345 152.047 84.7345C152.221 84.7345 152.25 84.7732 152.26 84.9276C152.26 85.0532 152.26 85.1883 152.26 85.3139C152.26 87.5733 152.26 89.8231 152.26 92.0826V92.0923Z" fill="#449666"/>
<path d="M145.898 116.812C145.898 115.672 145.898 114.523 145.898 113.384C145.898 113.152 145.908 112.92 145.975 112.698C146.207 111.935 146.835 111.617 147.607 111.81C148.08 111.926 148.438 112.206 148.669 112.631C149.046 113.297 149.423 113.963 149.799 114.629C150.176 115.296 150.552 115.962 150.939 116.628C150.968 116.676 151.006 116.725 151.045 116.763C151.054 116.773 151.093 116.763 151.122 116.763C151.132 116.763 151.141 116.744 151.151 116.734C151.151 116.705 151.17 116.676 151.161 116.647C151.093 115.17 151.122 113.702 151.093 112.225C151.093 112.167 151.093 112.109 151.093 112.051C151.093 111.964 151.161 111.926 151.238 111.916C151.267 111.916 151.296 111.916 151.325 111.916C151.943 111.916 152.57 111.916 153.188 111.916C153.381 111.916 153.41 111.955 153.42 112.148C153.42 112.235 153.42 112.322 153.42 112.409C153.42 114.678 153.42 116.947 153.42 119.216C153.42 119.39 153.401 119.563 153.372 119.728C153.256 120.394 152.715 120.77 152.213 120.867C151.508 121.002 150.852 120.722 150.494 120.075C149.915 119.042 149.316 118.019 148.727 116.995C148.592 116.754 148.447 116.522 148.303 116.29C148.283 116.252 148.245 116.223 148.196 116.252C148.177 116.261 148.158 116.29 148.158 116.319C148.158 116.609 148.138 116.898 148.158 117.188C148.235 118.299 148.187 119.409 148.206 120.529C148.206 120.558 148.206 120.587 148.206 120.616C148.206 120.722 148.148 120.78 148.042 120.78C147.858 120.78 147.665 120.78 147.482 120.78C147.067 120.78 146.642 120.78 146.227 120.78C145.879 120.78 145.879 120.78 145.879 120.404C145.879 119.824 145.879 119.245 145.879 118.665C145.879 118.048 145.879 117.42 145.879 116.802L145.898 116.812Z" fill="#908383"/>
<path d="M158.515 120.886C155.995 120.905 153.977 118.8 153.977 116.367C153.977 114.011 155.811 111.8 158.515 111.8C161.189 111.8 163.063 113.866 163.072 116.348C163.072 119.081 160.823 120.925 158.515 120.876V120.886ZM158.524 118.549C159.538 118.607 160.726 117.767 160.755 116.377C160.774 115.402 160.04 114.156 158.524 114.146C157.076 114.146 156.323 115.402 156.323 116.367C156.323 117.536 157.337 118.607 158.534 118.559L158.524 118.549Z" fill="#908383"/>
<path d="M119.055 116.329C119.055 114.996 119.055 113.673 119.055 112.341C119.055 111.945 119.055 111.945 119.47 111.945C120.001 111.945 120.542 111.945 121.073 111.945C121.314 111.945 121.343 111.964 121.343 112.225C121.343 113.133 121.343 114.05 121.343 114.958C121.343 115.073 121.343 115.189 121.343 115.305C121.343 115.46 121.391 115.508 121.556 115.508C122.405 115.508 123.265 115.508 124.114 115.508C124.298 115.508 124.327 115.469 124.336 115.267C124.336 115.17 124.336 115.064 124.336 114.967C124.336 114.127 124.336 113.287 124.336 112.447C124.336 111.897 124.288 111.945 124.858 111.945C125.186 111.945 125.524 111.935 125.852 111.945C126.094 111.955 126.345 111.877 126.577 112.003C126.654 112.225 126.615 112.457 126.615 112.688C126.615 115.151 126.615 117.603 126.615 120.065C126.615 120.152 126.615 120.239 126.615 120.326C126.615 120.828 126.634 120.799 126.142 120.799C125.64 120.799 125.128 120.799 124.626 120.799C124.356 120.799 124.336 120.78 124.336 120.5C124.336 119.766 124.336 119.023 124.336 118.289C124.336 118.173 124.336 118.057 124.336 117.941C124.336 117.719 124.307 117.7 124.076 117.69C123.265 117.69 122.454 117.69 121.642 117.69C121.362 117.69 121.333 117.729 121.333 118.028C121.333 118.762 121.333 119.505 121.333 120.239C121.333 120.355 121.333 120.471 121.333 120.587C121.333 120.751 121.295 120.799 121.131 120.799C120.493 120.799 119.856 120.799 119.219 120.799C119.113 120.799 119.064 120.741 119.055 120.635C119.055 120.519 119.055 120.403 119.055 120.288C119.055 118.974 119.055 117.651 119.055 116.338V116.329Z" fill="#908383"/>
<path d="M118.416 114.147C118.358 114.166 118.3 114.195 118.252 114.205C117.682 114.311 117.122 114.427 116.552 114.533C116.388 114.562 116.253 114.552 116.147 114.378C116.011 114.176 115.799 114.089 115.548 114.089C115.171 114.089 114.795 114.089 114.418 114.089C114.061 114.089 113.858 114.321 113.858 114.668C113.858 114.996 114.061 115.219 114.389 115.228C114.795 115.238 115.2 115.228 115.606 115.228C116.204 115.247 116.784 115.373 117.286 115.721C118.213 116.358 118.647 117.266 118.503 118.366C118.367 119.477 117.73 120.24 116.658 120.626C116.33 120.742 115.982 120.78 115.635 120.809C114.998 120.858 114.36 120.858 113.742 120.684C113.008 120.471 112.419 120.056 112.004 119.399C111.869 119.187 111.772 118.965 111.705 118.724C111.666 118.569 111.686 118.511 111.85 118.482C112.246 118.405 112.641 118.328 113.037 118.26C113.269 118.221 113.491 118.183 113.723 118.144C113.8 118.135 113.868 118.144 113.916 118.212C113.964 118.27 114.003 118.328 114.051 118.376C114.196 118.521 114.38 118.608 114.592 118.608C114.969 118.608 115.345 118.608 115.722 118.608C115.953 118.608 116.156 118.501 116.243 118.173C116.311 117.932 116.195 117.642 116.002 117.517C115.896 117.449 115.78 117.449 115.664 117.449C115.287 117.449 114.911 117.459 114.534 117.449C113.926 117.42 113.337 117.295 112.806 116.966C112.139 116.551 111.744 115.943 111.599 115.19C111.483 114.543 111.531 113.896 111.84 113.287C112.217 112.554 112.815 112.119 113.597 111.936C113.858 111.878 114.138 111.839 114.418 111.849C114.766 111.858 115.113 111.849 115.461 111.849C116.378 111.887 117.189 112.196 117.807 112.891C118.116 113.239 118.348 113.635 118.396 114.127L118.416 114.147Z" fill="#908383"/>
<path d="M127.212 115.121C127.212 114.243 127.212 113.354 127.212 112.476C127.212 112.36 127.212 112.244 127.212 112.128C127.212 111.964 127.26 111.925 127.424 111.925C128.032 111.925 128.641 111.925 129.249 111.925C129.413 111.925 129.452 111.974 129.461 112.138C129.461 112.254 129.461 112.369 129.461 112.485C129.461 114.136 129.461 115.788 129.461 117.429C129.461 117.555 129.461 117.69 129.461 117.815C129.471 118.124 129.655 118.317 129.925 118.433C130.031 118.482 130.147 118.501 130.263 118.501C130.668 118.501 131.074 118.501 131.479 118.501C131.547 118.501 131.624 118.482 131.692 118.462C132.03 118.366 132.233 118.124 132.262 117.777C132.262 117.661 132.262 117.545 132.262 117.429C132.262 115.749 132.262 114.069 132.262 112.398C132.262 111.877 132.233 111.906 132.764 111.906C133.266 111.906 133.778 111.906 134.28 111.906C134.473 111.906 134.502 111.945 134.511 112.128C134.511 112.167 134.511 112.215 134.511 112.254C134.511 114.107 134.511 115.961 134.511 117.806C134.511 118.414 134.338 118.974 133.98 119.466C133.507 120.113 132.889 120.529 132.097 120.673C131.827 120.722 131.557 120.751 131.277 120.751C130.929 120.751 130.581 120.751 130.234 120.751C129.471 120.741 128.776 120.5 128.196 120.007C127.579 119.476 127.231 118.781 127.202 117.96C127.183 117.265 127.202 116.57 127.202 115.874C127.202 115.614 127.202 115.353 127.202 115.092L127.212 115.121Z" fill="#908383"/>
<path d="M135.16 117.719C135.16 116.966 135.16 116.213 135.16 115.46C135.16 115.17 135.16 114.88 135.208 114.591C135.382 113.393 136.058 112.592 137.149 112.119C137.468 111.974 137.806 111.916 138.163 111.916C138.511 111.916 138.858 111.916 139.206 111.916C140.2 111.945 140.983 112.379 141.572 113.162C141.987 113.712 142.199 114.33 142.18 115.025C142.18 115.209 142.18 115.402 142.18 115.585C142.18 116.985 141.098 118.308 139.563 118.54C139.061 118.617 138.549 118.588 138.047 118.588C137.41 118.598 137.468 118.53 137.468 119.177C137.468 119.583 137.468 119.988 137.468 120.394C137.468 120.481 137.468 120.568 137.458 120.655C137.458 120.722 137.41 120.761 137.352 120.77C137.294 120.77 137.236 120.78 137.178 120.78C136.618 120.78 136.048 120.78 135.488 120.78C135.208 120.78 135.179 120.741 135.17 120.442C135.17 120.259 135.17 120.066 135.17 119.882C135.17 119.158 135.17 118.434 135.17 117.709L135.16 117.719ZM138.366 116.541C138.578 116.541 138.8 116.541 139.013 116.541C139.264 116.56 139.457 116.454 139.621 116.271C139.785 116.097 139.882 115.885 139.901 115.653C139.911 115.411 139.92 115.16 139.901 114.919C139.872 114.523 139.563 114.204 139.177 114.185C138.829 114.166 138.482 114.175 138.134 114.185C137.873 114.195 137.68 114.34 137.545 114.571C137.478 114.697 137.429 114.842 137.42 114.987C137.41 115.45 137.42 115.914 137.42 116.367C137.42 116.474 137.487 116.522 137.584 116.522C137.844 116.522 138.105 116.522 138.366 116.522V116.541Z" fill="#908383"/>
<path d="M149.809 82.5913C147.848 82.601 146.67 80.834 146.69 79.4146C146.709 78.0434 147.8 76.2571 149.857 76.2764C151.595 76.2957 153.005 77.6958 152.995 79.4435C152.995 81.4037 151.315 82.6493 149.809 82.5913Z" fill="#449666"/>
<path d="M140.247 79.4531C140.189 77.8985 141.483 76.2667 143.395 76.2763C145.268 76.2763 146.542 77.8792 146.542 79.4241C146.542 81.1235 145.113 82.6009 143.375 82.6009C141.55 82.6009 140.199 81.027 140.237 79.4531H140.247Z" fill="#449666"/>
<path d="M94.9622 116.271C93.0407 116.28 91.8145 114.629 91.8145 113.113C91.8145 111.597 93.0214 109.937 94.9526 109.946C97.0286 109.966 98.1004 111.597 98.11 113.075C98.1197 114.61 96.99 116.232 94.9622 116.261V116.271Z" fill="#FF5E2B"/>
<path d="M57.5071 87.718C55.518 87.747 54.3496 85.9703 54.3496 84.5702C54.3496 83.257 55.3828 81.3935 57.4877 81.4031C59.5058 81.4031 60.6549 82.977 60.6452 84.5702C60.6452 86.2697 59.3513 87.7084 57.5071 87.718Z" fill="#FF5E2B"/>
<path d="M87.1595 110.004C88.9748 109.975 90.288 111.471 90.288 113.151C90.288 114.725 89.11 116.299 87.1595 116.309C85.3828 116.309 83.9731 114.851 83.9924 113.132C84.0117 111.278 85.5952 109.946 87.1595 110.004Z" fill="#FF5E2B"/>
<path d="M101.335 119.525C101.335 121.273 99.9346 122.673 98.1869 122.663C96.1302 122.663 95.0391 120.858 95.0391 119.496C95.0391 117.951 96.3329 116.319 98.1772 116.339C100.253 116.358 101.364 118.067 101.325 119.515L101.335 119.525Z" fill="#FF5E2B"/>
<path d="M104.551 113.113C104.551 114.871 103.171 116.271 101.423 116.271C99.6753 116.271 98.2463 114.832 98.2559 113.085C98.2656 111.327 99.7236 109.927 101.423 109.946C103.538 109.966 104.58 111.733 104.551 113.104V113.113Z" fill="#FF5E2B"/>
<path d="M80.7082 110.004C82.4945 109.985 83.8367 111.404 83.8367 113.152C83.8367 114.764 82.6587 116.309 80.6696 116.309C78.5936 116.309 77.5314 114.465 77.5411 113.133C77.5507 111.694 78.7674 109.946 80.7082 110.004Z" fill="#FF5E2B"/>
<path d="M146.561 76.2763C145.21 76.3439 143.375 75.1755 143.375 73.1768C143.375 71.0525 145.132 70 146.523 70C148.039 70 149.661 71.0621 149.671 73.1671C149.671 75.2045 147.952 76.3245 146.561 76.2859V76.2763Z" fill="#449666"/>
<path d="M145.203 116.357C145.203 117.67 145.203 118.984 145.203 120.297C145.203 120.818 145.232 120.78 144.701 120.78C144.17 120.78 143.629 120.78 143.098 120.78C142.905 120.78 142.876 120.741 142.866 120.548C142.866 120.461 142.866 120.374 142.866 120.287C142.866 117.67 142.866 115.063 142.866 112.447C142.866 111.867 142.818 111.925 143.407 111.925C143.928 111.925 144.45 111.925 144.971 111.925C145.164 111.925 145.193 111.964 145.203 112.157C145.203 112.398 145.203 112.649 145.203 112.891C145.203 114.049 145.203 115.198 145.203 116.357Z" fill="#908383"/>
</g>
<defs>
<clipPath id="clip0_4880_38772">
<rect width="192" height="192" fill="white"/>
</clipPath>
</defs>
</svg>
