<svg width="192" height="192" viewBox="0 0 192 192" fill="none" xmlns="http://www.w3.org/2000/svg">
<g clip-path="url(#clip0_4880_38009)">
<path d="M96 192C149.019 192 192 149.019 192 96C192 42.9807 149.019 0 96 0C42.9807 0 0 42.9807 0 96C0 149.019 42.9807 192 96 192Z" fill="white"/>
<path d="M157.978 55.37C157.978 54.36 157.898 53.35 157.778 52.35C156.818 45.13 151.098 38.96 143.968 37.46C143.038 37.27 142.098 37.15 141.158 37H49.8478C49.6878 37.04 49.5178 37.09 49.3578 37.11C45.8078 37.43 42.6178 38.67 39.8578 40.9C35.3578 44.52 33.0578 49.27 33.0178 55.04C32.9778 62.75 33.0178 70.46 33.0178 78.17C33.0178 86.37 33.0178 94.57 33.0178 102.78C33.0178 103.16 33.1278 103.39 33.4778 103.55C34.1978 103.88 34.8778 104.27 35.5978 104.6C48.2878 110.46 61.6778 113.55 75.5578 114.7C80.4778 115.11 85.4278 115.11 90.3678 114.74C95.4878 114.36 100.538 113.58 105.538 112.4C115.408 110.1 124.748 106.41 133.728 101.76C142.048 97.44 149.888 92.37 157.528 86.94C157.898 86.69 158.018 86.42 158.018 85.99C158.018 75.79 158.018 65.59 157.998 55.38L157.978 55.37ZM141.038 62.1C140.808 62.27 140.568 62.41 140.308 62.48C135.078 63.9 129.738 64.91 124.458 66.15C104.818 70.75 86.0278 77.62 68.2578 87.23C66.4678 88.19 64.5678 89.07 62.6078 89.57C59.8478 90.26 57.2578 89.69 55.6078 87.08C54.1178 84.73 54.3878 81.59 56.7378 79.52C58.9278 77.6 61.4078 75.63 64.1078 74.69C75.3078 70.81 86.4978 66.77 97.9678 63.82C110.018 60.72 122.328 58.66 134.548 56.2C135.638 55.98 136.758 55.88 137.858 56.06C138.008 56.09 138.438 56.21 138.438 56.21C138.438 56.21 138.998 56.46 139.918 56.89C140.228 57.03 140.518 57.21 140.798 57.41C142.378 58.54 142.598 60.93 141.048 62.1H141.038Z" fill="#1E3C57"/>
<path d="M50.3684 154.3C49.7784 154.22 49.1984 154.13 48.6084 154.05C43.4084 153.34 39.2984 150.82 36.2684 146.57C34.3084 143.83 33.2284 140.75 33.0984 137.37C33.0284 135.52 33.0084 133.66 33.0084 131.81C32.9984 127.02 33.0084 122.22 33.0084 117.43V116.76C33.1784 116.83 33.2984 116.86 33.3984 116.92C40.0184 121.01 47.1984 123.76 54.7284 125.55C58.2084 126.38 61.7383 127.02 65.2784 127.56C68.1384 127.99 71.0284 128.21 73.9184 128.38C76.9384 128.57 79.9784 128.67 83.0084 128.67C85.7184 128.67 88.4384 128.58 91.1384 128.36C96.1884 127.96 101.158 127.02 106.068 125.75C117.188 122.87 127.718 118.5 137.818 113.07C144.758 109.34 151.388 105.13 157.598 100.28C157.698 100.2 157.808 100.14 157.988 100.02V100.64C157.988 112.48 158.008 124.31 157.988 136.15C157.968 145.1 151.888 151.94 144.198 153.74C143.258 153.96 142.278 154.03 141.328 154.17C141.088 154.21 140.858 154.27 140.628 154.32H50.3684V154.3Z" fill="#A4803A"/>
</g>
<defs>
<clipPath id="clip0_4880_38009">
<rect width="192" height="192" fill="white"/>
</clipPath>
</defs>
</svg>
