<svg width="192" height="192" viewBox="0 0 192 192" fill="none" xmlns="http://www.w3.org/2000/svg">
<g clip-path="url(#clip0_4880_38321)">
<path d="M96 192C149.019 192 192 149.019 192 96C192 42.9807 149.019 0 96 0C42.9807 0 0 42.9807 0 96C0 149.019 42.9807 192 96 192Z" fill="white"/>
<path d="M119 72.2744C116.846 72.345 115.284 71.6917 113.712 71.056C111.646 70.2173 109.536 69.7141 107.267 69.8642C104.433 70.0496 102.182 71.418 100.098 73.1573C98.6591 74.358 97.2201 75.5763 95.8869 76.9006C91.9317 80.8558 87.3673 81.4827 82.2555 79.6198C81.1607 79.2225 80.0572 78.8341 78.883 78.631C75.4133 78.013 72.6852 79.3285 71.0608 82.4715C70.1779 84.1842 69.3039 85.897 68.1561 87.4509C66.2315 90.0553 63.9449 89.9405 61.6141 88.4926C59.3893 87.1154 59.6806 85.7646 60.0867 83.9106C60.6076 81.5621 61.3581 79.302 62.4175 77.1478C64.0067 73.9342 66.1256 73.4309 68.9595 75.5675C71.0608 77.1478 73.5858 77.2184 75.9254 75.7264C78.2826 74.2255 80.3397 72.3362 82.2025 70.2968C86.3255 65.7942 91.1636 65.2468 96.5932 67.3039C98.6503 68.0808 100.752 68.531 102.941 68.2397C105.484 67.8954 107.505 66.6417 109.095 64.6199C110.543 62.7659 112.149 61.0885 114.189 59.8172C118.992 56.8331 125.278 60.9914 125.648 65.9619C125.869 68.8665 123.256 71.6829 119.857 72.2126C119.442 72.2744 119.018 72.292 118.992 72.292L119 72.2744Z" fill="#D6AB06"/>
<path d="M117.56 79.6285C117.657 82.4713 116.474 84.5372 114.364 86.0381C110.612 88.7131 106.48 89.1104 102.145 87.7067C100.45 87.1593 98.8168 86.4 97.051 86.0822C92.3277 85.2435 88.708 87.0534 85.9093 90.7702C85.1765 91.7414 84.479 92.7478 83.7286 93.7102C81.133 97.0209 78.043 97.8331 74.1319 96.2352C73.4785 95.9703 72.8517 95.6436 72.2337 95.3081C70.8211 94.5489 69.3202 93.922 67.8459 94.9373C66.2832 96.0144 66.1772 97.7713 66.239 99.4929C66.2832 100.694 66.7864 101.868 66.4862 103.095C66.3715 103.554 66.2655 104.119 65.7535 104.199C65.3827 104.26 65.2326 103.722 65.0207 103.439C62.4251 99.9079 61.0213 95.9438 60.73 91.5736C60.6682 90.6819 60.9065 90.5054 61.7276 90.7967C62.5398 91.088 63.2461 91.5206 63.9348 92.0151C65.5592 93.1804 66.9718 93.0304 68.252 91.5207C68.9848 90.6554 69.5321 89.6666 70.0442 88.6602C70.7063 87.3624 71.3243 86.0469 72.1101 84.8197C73.8229 82.1358 76.1713 81.2088 79.2701 81.9327C80.4973 82.2241 81.7333 82.5684 82.8987 83.0451C88.5579 85.3759 93.3518 83.9721 97.5719 79.8139C98.9051 78.4984 100.282 77.2094 101.739 76.0264C105.103 73.2983 108.873 72.3183 113.075 73.7486C116.174 74.7992 117.551 76.715 117.542 79.6285H117.56Z" fill="#D6AB06"/>
<path d="M59.5996 80.8206C59.9351 76.2208 60.712 71.8418 62.8221 67.5511C63.184 68.3722 63.3341 69.2197 64.1993 69.4051C65.1528 69.6082 65.7885 68.9725 66.4418 68.4428C68.4018 66.8801 69.9468 64.9113 71.6772 63.1279C72.4983 62.2804 73.3547 61.4858 74.3523 60.8502C76.2593 59.623 78.2369 59.4817 80.241 60.5411C84.3463 62.7042 88.1338 62.0862 91.6741 59.3051C92.9278 58.3163 94.1197 57.2569 95.3468 56.2239C98.1455 53.8755 101.289 53.2045 104.838 54.0962C106.877 54.6083 108.908 55.2616 111.044 55.3234C113.666 55.394 114.991 54.3787 114.885 51.8184C114.788 49.3552 116.191 47.8279 119.299 48.8167C122.363 49.7967 124.87 51.5624 126.018 54.7495C126.786 56.8861 125.894 58.1221 123.643 58.2192C122.204 58.281 120.835 57.9985 119.502 57.5041C118.531 57.1421 117.551 56.8508 116.527 56.6565C114.408 56.2504 112.598 56.8155 111.168 58.3958C110.417 59.2257 109.755 60.1527 109.111 61.0709C106.268 65.0967 102.454 66.3239 97.7482 65.0879C95.9737 64.62 94.1903 64.205 92.4157 63.7548C89.3434 62.9779 86.5712 63.5252 84.0638 65.5205C82.4747 66.783 81.0444 68.2044 79.623 69.6347C78.6254 70.6411 77.5218 71.5063 76.3564 72.3009C74.008 73.9077 71.6419 74.0225 69.2758 72.3627C66.1593 70.1644 65.1793 70.2968 62.7514 73.8989C61.5596 75.6646 60.818 77.6423 60.2176 79.6728C60.1028 80.0525 60.1382 80.5116 59.6084 80.8294L59.5996 80.8206Z" fill="#D6AB06"/>
<path d="M73.6018 52.7624C77.4865 49.8754 81.53 47.5182 86.0238 46.0261C87.198 45.6377 88.3987 45.2934 89.308 46.6088C89.6877 47.1562 90.2615 46.9532 90.7206 46.7501C91.7447 46.2822 92.7865 45.8231 93.7224 45.2051C96.3092 43.5012 99.1078 42.839 102.18 43.201C102.745 43.2716 103.319 43.4747 103.575 42.53C103.805 41.6736 104.714 42.0974 105.288 42.1592C109.146 42.5477 112.881 43.4482 116.412 45.0727C117.392 45.5229 118.354 46.0261 119.317 46.5117C119.652 46.6795 120.076 46.8825 119.988 47.3063C119.882 47.7919 119.361 47.889 118.955 47.8802C118.045 47.8625 117.233 47.4829 116.438 47.0679C114.32 45.9555 113.631 46.3528 113.543 48.6659C113.446 51.032 112.377 53.3451 108.572 52.8595C106.197 52.5594 103.972 51.5794 101.509 51.6323C98.9489 51.6853 96.7064 52.4093 94.72 53.9719C93.2103 55.1638 91.7536 56.4351 90.2086 57.574C87.7365 59.3927 85.0791 59.7017 82.2274 58.4304C78.3605 56.7088 76.224 57.009 72.719 60.3639C71.121 61.8912 69.6731 63.5687 67.9339 64.9371C67.3776 65.3786 66.8126 65.7847 66.1505 66.0495C65.5678 66.2879 64.9586 66.491 64.42 66.0231C63.8727 65.5463 64.0404 64.8753 64.217 64.3103C64.7379 62.6329 65.709 61.1761 66.7596 59.79C68.0928 58.0331 69.5142 56.3292 71.3682 55.0667C72.8602 54.0514 73.5489 54.1662 74.6701 55.5346C75.4912 56.5322 76.5241 56.338 77.5041 55.9407C79.1727 55.2786 80.6824 54.3251 82.1568 53.301C83.9226 52.0649 85.6353 50.7318 87.6306 49.849C89.6435 48.9573 91.6829 48.7807 93.8106 49.3634C94.9849 49.69 96.1767 49.9372 97.4039 50.0255C99.7876 50.2021 101.73 49.6106 103.001 47.3593C104.14 45.3375 106.003 44.8608 108.228 45.2845C109.552 45.5406 110.921 45.5847 112.43 45.7436C111.821 44.5341 111.344 43.6866 109.87 44.4723C108.705 45.0991 107.477 44.7901 106.374 44.128C105.191 43.4217 104.228 43.6954 103.39 44.7019C102.816 45.3905 102.286 46.1056 101.668 46.7501C100.167 48.3304 98.3044 48.8778 96.265 48.1362C92.3716 46.7236 88.8754 47.5094 85.5647 49.743C84.1962 50.6612 82.8278 51.5617 81.4594 52.4799C80.5147 53.1156 79.4817 53.5658 78.3693 53.813C77.7955 53.9455 77.0539 54.0161 76.7713 53.5658C75.9503 52.2415 74.8555 52.3563 73.6107 52.7271L73.6018 52.7624Z" fill="#D6AB06"/>
<path d="M69.5732 108.638C69.6526 109.451 70.3413 109.989 70.306 110.801C68.037 109.301 67.5603 108.223 68.0458 105.769C68.2401 104.763 67.8869 103.818 67.6927 102.856C66.8275 98.5208 68.4608 96.9846 72.7427 98.1765C74.7644 98.7415 76.6714 99.6862 78.8609 99.7126C81.7567 99.748 83.9374 98.6179 85.4559 96.1635C86.021 95.2453 86.6478 94.3625 87.2393 93.4619C90.5148 88.4296 98.2487 87.8116 102.804 91.2371C105.25 93.0823 105.621 96.2165 103.661 98.8739C100.95 102.547 97.2599 103.906 92.7572 103.103C90.2146 102.644 87.8044 101.602 85.1911 101.487C84.4406 101.452 83.6814 101.425 82.9398 101.505C80.5914 101.77 79.3112 102.962 78.8168 105.257C78.5431 106.546 78.2606 107.826 77.6514 109C76.795 110.643 75.8415 110.899 74.2347 109.936C72.8045 109.08 71.2948 108.559 69.582 108.63L69.5732 108.638Z" fill="#191917"/>
<path d="M94.0212 110.404C94.0477 113.477 91.0371 115.807 87.8411 115.225C86.9318 115.057 86.0401 114.704 85.166 114.386C84.0006 113.953 82.7999 113.821 81.5728 113.883C80.9548 113.909 80.2926 113.962 80.0366 114.642C79.7717 115.348 79.9218 116.002 80.4339 116.593C81.1137 117.37 82.0937 117.838 82.6322 118.747C82.7999 119.021 83.0648 119.357 82.8794 119.648C82.6587 119.983 82.279 119.78 81.9877 119.648C78.3062 118.085 75.1278 115.825 72.4174 112.894C72.2938 112.761 72.1791 112.594 72.1173 112.426C71.9672 111.993 71.614 111.473 71.8789 111.102C72.2056 110.643 72.7618 111.058 73.1679 111.181C74.2891 111.517 75.3574 112.02 76.4786 112.355C78.518 112.965 79.7364 112.232 80.2131 110.166C80.3809 109.442 80.4074 108.683 80.5486 107.95C80.8576 106.255 81.8023 105.063 83.4356 104.436C86.8788 103.103 91.8846 105.054 93.4914 108.365C93.8181 109.036 94.1183 109.733 94.03 110.422L94.0212 110.404Z" fill="#191917"/>
<path d="M136.648 149.384C137.964 148.069 139.279 146.753 140.613 145.455C140.869 145.199 141.248 145.305 141.584 145.305C144.197 145.296 146.81 145.305 149.424 145.279C150.96 145.261 151.657 144.52 151.666 142.966C151.666 140.123 151.666 137.28 151.666 134.446C151.666 133.307 151.242 132.848 150.112 132.839C148.435 132.822 146.757 132.795 145.089 132.866C143.897 132.919 142.926 133.784 142.608 134.896C142.325 135.885 142.749 137.015 143.641 137.739C144.153 138.154 144.753 138.198 145.345 138.207C146.413 138.225 147.49 138.207 148.558 138.172C149.282 138.145 149.671 138.304 149.591 139.169C149.503 140.193 149.574 141.235 149.6 142.277C149.618 142.824 149.406 143.072 148.841 143.063C146.66 143.027 144.479 143.08 142.308 142.983C140.454 142.904 139.006 141.959 138.273 140.273C136.896 137.077 136.825 133.846 138.644 130.756C139.588 129.149 141.107 128.239 142.952 128.195C146.537 128.098 150.121 128.116 153.705 128.16C155.144 128.178 156.442 129.414 156.486 130.826C156.619 135.364 156.725 139.911 156.442 144.449C156.292 146.859 154.359 148.775 151.807 149.34C150.889 149.543 149.953 149.649 149.017 149.649C145.195 149.649 141.372 149.64 137.558 149.622C137.275 149.622 136.957 149.737 136.648 149.402V149.384Z" fill="#191917"/>
<path d="M106.953 129.361C106.812 133.087 107.236 136.83 106.715 140.547C106.362 143.09 104.79 144.405 101.762 144.873C98.8043 145.332 95.8026 145.094 92.8273 145.103C82.9039 145.138 72.9805 145.121 63.0659 145.112C62.1654 145.112 61.256 145.085 60.3555 145.112C59.817 145.129 59.6669 144.882 59.6757 144.388C59.7022 143.381 59.7463 142.375 59.6669 141.377C59.5962 140.556 59.8081 140.3 60.6822 140.309C67.083 140.344 73.4837 140.327 79.8845 140.327C85.7114 140.327 91.5472 140.344 97.3741 140.344C100.385 140.344 101.762 139.108 101.691 136.115C101.656 134.623 102.15 133.626 103.219 132.672C104.428 131.586 105.496 130.333 106.626 129.15C106.741 129.22 106.856 129.282 106.971 129.353L106.953 129.361Z" fill="#191917"/>
<path d="M40.6439 132.902C40.6439 135.683 40.6439 138.234 40.6439 140.795C40.6439 141.96 40.635 143.134 40.6439 144.3C40.6615 145.562 41.2972 146.366 42.5597 146.427C45.3319 146.569 48.1217 146.578 50.8939 146.419C52.1829 146.348 52.7126 145.624 52.7126 144.256C52.7126 138.543 52.7215 132.831 52.7038 127.119C52.7038 126.466 52.8804 126.007 53.3748 125.565C54.4431 124.612 55.4407 123.57 56.4825 122.572C56.6855 122.378 56.8445 121.972 57.1711 122.096C57.4978 122.219 57.33 122.625 57.33 122.899C57.3389 128.24 57.33 133.591 57.33 138.932C57.33 140.733 57.3124 142.543 57.33 144.344C57.3742 148.131 54.911 150.533 51.044 150.683C48.1306 150.798 45.2083 150.806 42.3037 150.674C38.8605 150.515 36.2737 148.785 36.0883 144.715C35.9823 142.481 36.0353 140.239 36 138.005C36 137.546 36.2295 137.263 36.5209 136.981C37.8275 135.692 39.1342 134.403 40.635 132.911L40.6439 132.902Z" fill="#191917"/>
<path d="M126.134 121.036C126.134 122.096 126.134 123.111 126.134 124.135C126.134 128.911 126.125 133.688 126.107 138.473C126.098 143.125 123.397 144.741 119.936 145.05C116.908 145.315 113.844 145.147 110.798 145.174C110.277 145.174 109.995 145.024 110.021 144.423C110.065 143.39 110.065 142.349 110.03 141.316C110.004 140.645 110.224 140.371 110.939 140.38C113.014 140.415 115.089 140.397 117.172 140.389C119.327 140.389 120.492 139.417 120.73 137.272C121.022 134.606 120.986 131.922 120.801 129.265C120.642 127.022 121.11 125.265 122.999 123.888C124.094 123.093 125.03 122.06 126.142 121.045L126.134 121.036Z" fill="#191917"/>
<path d="M134.491 120.859C134.827 121.592 134.747 122.06 134.747 122.519C134.747 129.662 134.721 136.813 134.765 143.955C134.765 144.935 134.482 145.227 133.529 145.165C132.461 145.094 131.384 145.156 130.315 145.165C129.768 145.165 129.477 145.032 129.477 144.37C129.503 138.464 129.494 132.549 129.494 126.642C129.494 126.307 129.512 125.998 129.786 125.724C131.331 124.153 132.849 122.563 134.5 120.859H134.491Z" fill="#191917"/>
<path d="M114.631 121.054C114.957 121.478 114.834 121.822 114.834 122.131C114.843 127.137 114.834 132.143 114.86 137.149C114.86 137.82 114.737 138.12 113.995 138.076C112.962 138.014 111.92 138.04 110.887 138.076C110.349 138.093 110.102 137.934 110.102 137.352C110.11 133.617 110.102 129.874 110.102 126.139C110.102 125.919 110.146 125.627 110.287 125.486C111.717 124.012 113.165 122.555 114.639 121.063L114.631 121.054Z" fill="#191917"/>
<path d="M95.5896 128.822C95.5896 128.69 95.5896 128.558 95.5896 128.425C95.5719 127.042 96.2724 126.362 97.6908 126.386C98.4236 126.395 99.1564 126.403 99.8892 126.386C100.375 126.368 100.631 126.483 100.613 127.039C100.578 128.24 100.587 129.432 100.613 130.632C100.613 131.189 100.401 131.392 99.8362 131.383C98.7061 131.356 97.5672 131.356 96.4372 131.392C95.7927 131.409 95.519 131.197 95.5808 130.526C95.6337 129.961 95.5896 129.396 95.5896 128.831V128.822Z" fill="#191917"/>
<path d="M89.2429 128.671C89.34 128.036 88.8721 126.994 89.4107 126.535C89.8609 126.146 90.8674 126.385 91.6267 126.393C92.483 126.411 93.6131 125.996 94.134 126.526C94.699 127.1 94.3017 128.239 94.3106 129.121C94.337 131.417 94.3194 131.417 92.0681 131.443C91.9975 131.443 91.9357 131.443 91.865 131.443C90.1111 131.467 89.2341 130.54 89.2341 128.662L89.2429 128.671Z" fill="#191917"/>
</g>
<defs>
<clipPath id="clip0_4880_38321">
<rect width="192" height="192" fill="white"/>
</clipPath>
</defs>
</svg>
