<svg width="192" height="192" viewBox="0 0 192 192" fill="none" xmlns="http://www.w3.org/2000/svg">
<g clip-path="url(#clip0_4880_40562)">
<path d="M96 192C149.019 192 192 149.019 192 96C192 42.9807 149.019 0 96 0C42.9807 0 0 42.9807 0 96C0 149.019 42.9807 192 96 192Z" fill="white"/>
<path d="M156.76 116.421C131.274 114.3 105.925 112.949 80.5083 113.582C80.4912 113.505 80.4741 113.428 80.457 113.351C87.4698 111.392 94.4826 109.425 101.495 107.467C97.0397 106.586 93.6787 104.217 91.4551 100.317C89.8216 97.4521 89.5052 94.3305 90.1381 91.132C90.8907 87.3092 93.1228 84.4698 96.347 82.4002C99.6396 80.2878 103.257 80.1167 107.063 80.7154C106.764 80.493 106.473 80.245 106.156 80.0398C98.7758 75.2249 91.3867 70.4271 84.0232 65.5951C83.4502 65.2188 83.0312 65.2188 82.4924 65.578C80.4912 66.895 79.0715 68.7509 77.7374 70.6751C74.3251 75.6268 71.691 80.9976 69.1852 86.4368C64.9604 95.6048 61.2487 104.978 57.7936 114.454C57.6055 114.958 57.3917 115.249 56.7503 115.36C52.8248 116.027 48.8823 116.643 45.0081 117.55C42.1431 118.217 39.3722 119.303 36.627 120.175C36.627 120.175 36.6954 119.996 36.798 119.825C46.5304 104.516 56.6305 89.4643 67.6543 75.0538C72.6659 68.5029 77.8486 62.0973 83.7068 56.2732C86.281 53.7161 88.9493 51.2702 92.1136 49.4315C93.5247 48.6104 94.9957 47.8664 96.6976 48.0203C97.1509 48.0631 97.7153 48.294 98.0061 48.6275C115.666 68.9476 133.301 89.2847 150.944 109.63C152.74 111.7 154.528 113.77 156.324 115.839C156.443 115.985 156.546 116.147 156.751 116.421H156.76ZM114.213 93.9713C114.486 88.7887 110.116 83.0416 103.377 83.0159C97.1252 82.9903 92.4215 88.1302 92.4386 93.9114C92.4557 99.9236 97.2963 104.764 103.317 104.781C109.389 104.79 114.204 100.018 114.204 93.9713H114.213ZM113.879 85.0599C118.523 92.3977 117.856 98.9744 111.33 104.995C119.472 103.088 127.434 101.215 135.396 99.3506C135.405 99.2651 135.422 99.1796 135.431 99.1026C128.247 94.4246 121.063 89.7465 113.879 85.0599Z" fill="#012B41"/>
<path d="M121.918 123.023C121.456 123.023 121.063 123.023 120.67 123.023C117.531 123.057 114.401 123.049 111.262 123.143C109.432 123.194 108.337 124.349 108.183 126.273C108.534 126.299 108.885 126.359 109.235 126.359C113.033 126.359 116.821 126.359 120.618 126.359C122.124 126.359 122.192 126.444 121.85 128.095C121.568 128.095 121.268 128.095 120.969 128.095C117.001 128.095 113.041 128.12 109.073 128.078C108.226 128.069 107.97 128.343 108.038 129.147C108.098 129.874 108.047 130.609 108.047 131.413H121.918V133.055H106.062C106.157 130.481 106.114 127.941 106.379 125.444C106.584 123.468 108.491 121.869 110.604 121.501C111.331 121.373 112.075 121.304 112.81 121.304C115.829 121.279 118.848 121.296 121.918 121.296V123.04V123.023Z" fill="#207019"/>
<path d="M73.4283 126.307C73.8388 126.324 74.2065 126.358 74.5657 126.358C78.303 126.358 82.0404 126.358 85.7777 126.358C87.3256 126.358 87.3427 126.375 87.0776 128.06H73.3855V131.387H87.1204V133.055H71.4527C71.4527 130.669 71.2475 128.317 71.504 126.016C71.8119 123.245 73.7276 121.518 76.6696 121.355C80.1076 121.167 83.5626 121.313 87.1033 121.313C87.1289 121.603 87.146 121.877 87.1802 122.142C87.2657 122.792 87.0263 123.04 86.3336 123.032C83.6225 122.997 80.9115 122.989 78.2004 123.032C77.2768 123.049 76.3189 123.151 75.4295 123.399C74.1467 123.75 73.5053 124.75 73.4283 126.298V126.307Z" fill="#207019"/>
<path d="M49.7464 121.33C49.7464 123.784 49.8832 126.153 49.7121 128.505C49.5326 131.002 47.2491 132.969 44.615 133.046C41.656 133.132 38.6884 133.089 35.7293 133.106C35.3273 133.106 34.9254 133.183 34.5405 133.115C34.3353 133.081 34.0189 132.816 34.0189 132.653C34.0274 130.378 33.9077 128.078 34.1814 125.828C34.4978 123.237 36.3451 121.569 39.2699 121.381C42.7336 121.167 46.2143 121.33 49.7635 121.33H49.7464ZM40.3389 131.404C40.3389 131.404 40.3389 131.404 40.3389 131.396C41.5619 131.396 42.7934 131.481 44.0078 131.379C46.6847 131.148 47.6083 130.37 47.8563 128.052C48.0188 126.564 47.9247 125.042 47.8905 123.528C47.8905 123.357 47.5655 123.049 47.3859 123.049C44.5381 123.057 41.6902 123.023 38.8509 123.186C37.1575 123.28 36.174 124.375 36.0372 126.094C35.9089 127.65 35.9602 129.224 35.9089 130.78C35.8918 131.276 36.1056 131.422 36.5674 131.413C37.816 131.387 39.0732 131.413 40.3304 131.413L40.3389 131.404Z" fill="#207019"/>
<path d="M54.8378 133.072H52.9648V120.407C57.5488 123.733 62.0473 126.992 66.7253 130.396V121.347H68.6068V133.996C64.0057 130.661 59.5158 127.402 54.8378 123.999V133.072Z" fill="#207019"/>
<path d="M139.795 131.386V133.054H123.896C123.991 130.488 123.922 127.983 124.213 125.511C124.478 123.228 126.462 121.543 129.216 121.38C132.705 121.175 136.22 121.329 139.778 121.329V122.954C139.47 122.971 139.137 123.014 138.812 123.014C136.135 123.014 133.449 122.997 130.772 123.031C129.926 123.039 129.062 123.133 128.241 123.33C127.052 123.604 126.248 124.408 126.129 125.631C125.949 127.512 125.906 129.411 125.812 131.386H139.804H139.795Z" fill="#207019"/>
<path d="M156.135 121.347H157.999V133.029H156.169V128.154C155.818 128.129 155.553 128.095 155.279 128.095C151.884 128.095 148.489 128.12 145.102 128.078C144.315 128.069 144.136 128.343 144.161 129.061C144.213 130.369 144.179 131.678 144.179 133.081H142.34V121.364H144.179C144.179 122.681 144.23 123.981 144.161 125.272C144.119 126.128 144.367 126.401 145.248 126.384C148.523 126.333 151.807 126.367 155.083 126.359C155.416 126.359 155.75 126.324 156.143 126.299V121.347H156.135Z" fill="#207019"/>
<path d="M90.9031 128.035H89.1414C88.5941 124.537 90.8091 121.553 94.3411 121.364C97.8048 121.176 101.286 121.322 104.835 121.322V122.955C104.578 122.972 104.279 123.024 103.979 123.024C102.38 123.024 100.789 123.024 99.1902 123.024C98.3407 123.024 97.9159 123.434 97.9159 124.255C97.9159 126.846 97.9159 129.438 97.9159 132.038C97.9159 132.345 97.9159 132.653 97.9159 133.03H96.0858C96.0772 132.747 96.0516 132.44 96.0516 132.14C96.0516 129.378 96.0259 126.615 96.0687 123.845C96.0772 123.109 95.7865 122.947 95.145 123.049C94.7003 123.118 94.2299 123.109 93.7938 123.212C92.0064 123.631 91.288 124.537 91.0571 126.641C91.0058 127.094 90.963 127.539 90.9031 128.044V128.035Z" fill="#207019"/>
<path d="M97.2195 93.9624C97.2281 90.3449 100.042 87.5483 103.676 87.5568C107.285 87.5568 110.116 90.4047 110.108 94.0137C110.108 97.5886 107.183 100.488 103.625 100.454C100.025 100.428 97.2024 97.5715 97.211 93.9624H97.2195Z" fill="#012B41"/>
</g>
<defs>
<clipPath id="clip0_4880_40562">
<rect width="192" height="192" fill="white"/>
</clipPath>
</defs>
</svg>
