<svg width="192" height="192" viewBox="0 0 192 192" fill="none" xmlns="http://www.w3.org/2000/svg">
<g clip-path="url(#clip0_4938_33051)">
<path d="M96 192C149.019 192 192 149.019 192 96C192 42.9807 149.019 0 96 0C42.9807 0 0 42.9807 0 96C0 149.019 42.9807 192 96 192Z" fill="white"/>
<path d="M24.0322 103.381C22.6918 103.381 21.434 103.143 20.2589 102.665C19.0837 102.188 18.1289 101.481 17.3945 100.544C16.6784 99.6081 16.3203 98.4788 16.3203 97.1568H19.7631C19.7631 98.2768 20.1303 99.149 20.8648 99.7733C21.6176 100.379 22.6734 100.682 24.0322 100.682C25.1522 100.682 26.0244 100.453 26.6487 99.9936C27.273 99.5346 27.5851 98.8919 27.5851 98.0657C27.5851 97.5699 27.4842 97.1476 27.2822 96.7987C27.0986 96.4315 26.7864 96.1102 26.3457 95.8347C25.9601 95.5777 25.5378 95.3665 25.0788 95.2013C24.6197 95.0177 24.0505 94.8249 23.3712 94.6229C22.8938 94.476 22.398 94.3107 21.8839 94.1271C21.3697 93.9435 20.9015 93.7415 20.4792 93.5212C19.2673 92.9153 18.3676 92.2175 17.7801 91.428C17.2108 90.6201 16.9262 89.6928 16.9262 88.6462C16.9262 87.5629 17.2292 86.6172 17.8351 85.8093C18.4594 84.9831 19.3041 84.3496 20.369 83.9089C21.434 83.4682 22.6183 83.2479 23.922 83.2479C25.244 83.2479 26.4375 83.4958 27.5025 83.9915C28.5858 84.4873 29.4397 85.1942 30.064 86.1123C30.6882 87.012 31.0004 88.0586 31.0004 89.2521H27.5576C27.5576 88.2239 27.2363 87.416 26.5936 86.8284C25.951 86.2408 25.0512 85.947 23.8945 85.947C22.7928 85.947 21.9298 86.1949 21.3055 86.6907C20.6812 87.1681 20.369 87.8199 20.369 88.6462C20.369 89.4357 20.7914 90.0968 21.636 90.6292C22.0399 90.8863 22.4714 91.1066 22.9305 91.2903C23.3895 91.4555 23.9404 91.6391 24.583 91.8411C25.3726 92.0982 25.9969 92.3185 26.4559 92.5021C26.9333 92.6857 27.4199 92.9153 27.9157 93.1907C28.9806 93.7599 29.761 94.4484 30.2568 95.2564C30.7709 96.0459 31.0279 96.964 31.0279 98.0106C31.0279 99.0939 30.7433 100.04 30.1741 100.847C29.6049 101.655 28.7878 102.28 27.7229 102.72C26.6762 103.161 25.446 103.381 24.0322 103.381Z" fill="black"/>
<path d="M38.1416 103.409C37.2235 103.409 36.3881 103.225 35.6353 102.858C34.8824 102.472 34.2949 101.949 33.8725 101.288C33.4502 100.627 33.2391 99.8927 33.2391 99.0847C33.2391 97.5424 33.8175 96.3581 34.9742 95.5318C36.131 94.7055 37.7744 94.2924 39.9043 94.2924H41.9149V93.2733C41.9149 92.4838 41.6946 91.8778 41.2539 91.4555C40.8316 91.0148 40.2165 90.7945 39.4086 90.7945C38.6557 90.7945 38.0406 90.9781 37.5632 91.3453C37.1042 91.7126 36.8747 92.19 36.8747 92.7775H33.542C33.542 91.988 33.7991 91.2535 34.3132 90.5742C34.8273 89.8764 35.5435 89.3256 36.4615 88.9216C37.398 88.5177 38.4354 88.3157 39.5738 88.3157C41.2998 88.3157 42.6677 88.7472 43.6776 89.6102C44.6875 90.4732 45.2108 91.6575 45.2475 93.1631V99.7733C45.2475 101.077 45.4312 102.124 45.7984 102.913V103.133H42.4382C42.273 102.821 42.1353 102.344 42.0251 101.701C40.9968 102.84 39.7023 103.409 38.1416 103.409ZM36.5442 98.7542C36.5442 99.3785 36.7553 99.8835 37.1776 100.269C37.5999 100.636 38.1416 100.82 38.8026 100.82C39.482 100.82 40.1063 100.655 40.6755 100.324C41.2447 99.9753 41.6579 99.5438 41.9149 99.0297V96.303H40.2348C37.7744 96.303 36.5442 97.1201 36.5442 98.7542Z" fill="black"/>
<path d="M48.6094 88.5911H51.7493L51.8594 90.3538C52.6306 88.9951 53.7507 88.3157 55.2196 88.3157C55.7154 88.3157 56.101 88.3799 56.3764 88.5085L56.3488 91.5657C56.0367 91.4922 55.5868 91.4555 54.9993 91.4555C53.4385 91.4555 52.4103 92.0523 51.9145 93.2458V103.133H48.6094V88.5911Z" fill="black"/>
<path d="M62.2681 103.409C61.35 103.409 60.5146 103.225 59.7617 102.858C59.0089 102.472 58.4213 101.949 57.999 101.288C57.5767 100.627 57.3655 99.8927 57.3655 99.0847C57.3655 97.5424 57.9439 96.3581 59.1007 95.5318C60.2575 94.7055 61.9009 94.2924 64.0308 94.2924H66.0414V93.2733C66.0414 92.4838 65.8211 91.8778 65.3804 91.4555C64.9581 91.0148 64.3429 90.7945 63.535 90.7945C62.7822 90.7945 62.1671 90.9781 61.6897 91.3453C61.2307 91.7126 61.0011 92.19 61.0011 92.7775H57.6685C57.6685 91.988 57.9256 91.2535 58.4397 90.5742C58.9538 89.8764 59.6699 89.3256 60.588 88.9216C61.5244 88.5177 62.5619 88.3157 63.7003 88.3157C65.4263 88.3157 66.7942 88.7472 67.8041 89.6102C68.814 90.4732 69.3373 91.6575 69.374 93.1631V99.7733C69.374 101.077 69.5576 102.124 69.9249 102.913V103.133H66.5647C66.3994 102.821 66.2617 102.344 66.1516 101.701C65.1233 102.84 63.8288 103.409 62.2681 103.409ZM60.6706 98.7542C60.6706 99.3785 60.8818 99.8835 61.3041 100.269C61.7264 100.636 62.2681 100.82 62.9291 100.82C63.6085 100.82 64.2328 100.655 64.802 100.324C65.3712 99.9753 65.7843 99.5438 66.0414 99.0297V96.303H64.3613C61.9009 96.303 60.6706 97.1201 60.6706 98.7542Z" fill="black"/>
<path d="M73.8972 109C73.4565 108.982 72.924 108.908 72.2998 108.78V106.273C72.5935 106.273 72.8047 106.282 72.9332 106.301C73.686 106.338 74.2644 106.209 74.6684 105.915C75.0907 105.621 75.4396 105.107 75.715 104.373L76.1832 103.078L71.0603 88.5911H74.6133L77.6981 98.4237L77.9184 97.7903L80.7002 88.5911H84.2531L78.3866 105.447L78.1387 106.081C77.2941 108.027 75.8803 109 73.8972 109Z" fill="black"/>
<path d="M92.3603 103.409C90.9832 103.409 89.7621 103.115 88.6971 102.528C87.6322 101.922 86.8059 101.086 86.2183 100.021C85.6308 98.9379 85.337 97.6801 85.337 96.2479V95.8072C85.337 94.4117 85.6032 93.1448 86.1357 92.0064C86.6682 90.8679 87.4302 89.9682 88.4217 89.3072C89.4316 88.6462 90.6068 88.3157 91.9471 88.3157C93.9118 88.3157 95.445 88.9492 96.5467 90.2161C97.6484 91.4647 98.1993 93.2366 98.1993 95.5318V96.8538H88.6696L88.6971 96.9364C88.7889 98.0932 89.1837 99.0297 89.8815 99.7458C90.5792 100.444 91.4606 100.792 92.5255 100.792C94.0128 100.792 95.2339 100.196 96.1887 99.0021L97.9238 100.71C97.3363 101.573 96.5559 102.243 95.5827 102.72C94.6279 103.179 93.5538 103.409 92.3603 103.409ZM94.9217 94.4852V94.2373C94.885 93.1907 94.6004 92.3828 94.0679 91.8136C93.5538 91.226 92.8469 90.9322 91.9471 90.9322C91.0658 90.9322 90.3405 91.2443 89.7713 91.8686C89.2021 92.4929 88.8532 93.3651 88.7247 94.4852H94.9217Z" fill="black"/>
<path d="M106.603 83.5508H109.716L117.125 103.133H113.489L111.919 98.589H104.4L102.858 103.133H99.2495L106.603 83.5508ZM111.01 95.8623L108.173 87.6547L105.336 95.8623H111.01Z" fill="black"/>
<path d="M118.972 88.5911H122.111L122.222 90.3538C122.993 88.9951 124.113 88.3157 125.582 88.3157C126.078 88.3157 126.463 88.3799 126.739 88.5085L126.711 91.5657C126.399 91.4922 125.949 91.4555 125.361 91.4555C123.801 91.4555 122.772 92.0523 122.277 93.2458V103.133H118.972V88.5911Z" fill="black"/>
<path d="M130.3 109C129.859 108.982 129.327 108.908 128.702 108.78V106.273C128.996 106.273 129.207 106.282 129.336 106.301C130.089 106.338 130.667 106.209 131.071 105.915C131.493 105.621 131.842 105.107 132.118 104.373L132.586 103.078L127.463 88.5911H131.016L134.101 98.4237L134.321 97.7903L137.103 88.5911H140.656L134.789 105.447L134.541 106.081C133.697 108.027 132.283 109 130.3 109Z" fill="black"/>
<path d="M146.67 103.409C145.752 103.409 144.917 103.225 144.164 102.858C143.411 102.472 142.824 101.949 142.401 101.288C141.979 100.627 141.768 99.8927 141.768 99.0847C141.768 97.5424 142.346 96.3581 143.503 95.5318C144.66 94.7055 146.303 94.2924 148.433 94.2924H150.444V93.2733C150.444 92.4838 150.223 91.8778 149.783 91.4555C149.36 91.0148 148.745 90.7945 147.937 90.7945C147.185 90.7945 146.569 90.9781 146.092 91.3453C145.633 91.7126 145.403 92.19 145.403 92.7775H142.071C142.071 91.988 142.328 91.2535 142.842 90.5742C143.356 89.8764 144.072 89.3256 144.99 88.9216C145.927 88.5177 146.964 88.3157 148.103 88.3157C149.829 88.3157 151.197 88.7472 152.206 89.6102C153.216 90.4732 153.74 91.6575 153.776 93.1631V99.7733C153.776 101.077 153.96 102.124 154.327 102.913V103.133H150.967C150.802 102.821 150.664 102.344 150.554 101.701C149.526 102.84 148.231 103.409 146.67 103.409ZM145.073 98.7542C145.073 99.3785 145.284 99.8835 145.706 100.269C146.129 100.636 146.67 100.82 147.331 100.82C148.011 100.82 148.635 100.655 149.204 100.324C149.773 99.9753 150.187 99.5438 150.444 99.0297V96.303H148.764C146.303 96.303 145.073 97.1201 145.073 98.7542Z" fill="black"/>
<path d="M163.583 103.409C162.206 103.409 160.985 103.115 159.92 102.528C158.855 101.922 158.029 101.086 157.441 100.021C156.854 98.9379 156.56 97.6801 156.56 96.2479V95.8072C156.56 94.4117 156.826 93.1448 157.359 92.0064C157.891 90.8679 158.653 89.9682 159.645 89.3072C160.654 88.6462 161.83 88.3157 163.17 88.3157C165.135 88.3157 166.668 88.9492 167.77 90.2161C168.871 91.4647 169.422 93.2366 169.422 95.5318V96.8538H159.892L159.92 96.9364C160.012 98.0932 160.407 99.0297 161.104 99.7458C161.802 100.444 162.683 100.792 163.748 100.792C165.236 100.792 166.457 100.196 167.412 99.0021L169.147 100.71C168.559 101.573 167.779 102.243 166.806 102.72C165.851 103.179 164.777 103.409 163.583 103.409ZM166.145 94.4852V94.2373C166.108 93.1907 165.823 92.3828 165.291 91.8136C164.777 91.226 164.07 90.9322 163.17 90.9322C162.289 90.9322 161.563 91.2443 160.994 91.8686C160.425 92.4929 160.076 93.3651 159.948 94.4852H166.145Z" fill="black"/>
<path d="M172.125 88.5911H175.43V103.133H172.125V88.5911ZM171.877 84.7627C171.877 84.2486 172.042 83.8263 172.373 83.4958C172.722 83.1653 173.19 83 173.777 83C174.347 83 174.806 83.1653 175.155 83.4958C175.503 83.8263 175.678 84.2486 175.678 84.7627C175.678 85.2768 175.503 85.6992 175.155 86.0297C174.806 86.3418 174.347 86.4979 173.777 86.4979C173.19 86.4979 172.722 86.3418 172.373 86.0297C172.042 85.6992 171.877 85.2768 171.877 84.7627Z" fill="black"/>
</g>
<defs>
<clipPath id="clip0_4938_33051">
<rect width="192" height="192" fill="white"/>
</clipPath>
</defs>
</svg>
