<svg width="192" height="192" viewBox="0 0 192 192" fill="none" xmlns="http://www.w3.org/2000/svg">
<g clip-path="url(#clip0_4938_32898)">
<path d="M96.0707 0.000156468C148.831 -0.0947132 191.952 42.9637 192.195 95.6288C192.438 148.504 149.417 191.901 96.475 192C43.2399 192.095 0.0784736 149.197 9.57533e-05 96.132C-0.0741569 43.2442 43.046 0.0950261 96.0707 0.000156468Z" fill="#191D20"/>
<path d="M146.914 57.4955C145.321 64.0208 149.488 69.2304 149.426 75.3268C148.469 74.3328 147.644 73.4336 146.777 72.5797C144.439 70.2822 141.551 69.9151 138.733 71.6517C135.392 73.7141 133.313 76.8695 131.712 80.3343C131.094 81.6749 130.735 82.0172 129.262 81.1263C125.599 78.903 121.449 80.2642 119.263 84.125C119.044 84.5086 119.081 85.1933 118.438 85.1232C117.914 85.0695 117.769 84.5457 117.563 84.0878C116.231 81.1675 115.472 80.7963 112.361 81.6625C111.429 81.9223 110.435 80.8004 109.824 81.4975C108.409 83.1268 106.615 82.6895 104.891 82.8628C104.239 82.9288 103.591 83.2794 103.096 83.8074C102.684 84.2528 102.329 84.7767 101.558 84.2611C100.91 83.828 100.898 83.3 100.997 82.6607C101.207 81.3284 101.124 80.0868 100.184 78.9772C98.7236 77.2613 96.8962 77.1995 95.4647 78.9443C94.2437 80.4333 93.9095 82.2688 93.5548 84.0961C93.4475 84.6529 93.4558 85.6676 92.7421 85.5233C91.682 85.3088 90.366 86.2121 89.5451 84.8798C89.2935 84.4714 89.0625 84.0466 88.7572 83.6836C87.8043 82.5493 86.6163 81.7903 85.1519 82.4998C83.7287 83.1886 82.9862 84.4302 83.5059 86.0677C83.7369 86.8019 83.4523 87.2474 82.9985 87.7011C82.7675 87.9321 82.4911 87.9239 82.2725 87.7176C81.7857 87.2598 82.0291 86.6947 82.1034 86.1667C82.2478 85.1314 82.2684 84.1332 81.728 83.168C80.3089 80.6189 78.1267 80.4086 76.3653 82.8298C75.6764 83.7744 75.2309 83.9723 74.0882 83.6011C70.5612 82.4544 66.5268 84.9994 65.1985 89.0499C64.9469 89.813 64.753 90.5967 64.5344 91.3681C63.6227 91.3268 63.3504 90.5761 62.8142 90.1966C61.556 89.3098 60.0173 88.654 58.8458 89.7759C56.9936 91.5454 55.0589 91.0793 53.0953 90.5225C50.0592 89.6563 47.0685 88.6498 43.8632 88.5673C39.8866 88.4683 36.0997 89.3345 32.3912 90.6833C29.4046 91.7682 27.1151 90.6668 26.5335 87.5238C26.1622 85.5233 25.3289 84.1167 23.7036 83.0237C23.2045 82.6895 22.7879 82.1822 22.4372 81.679C21.5462 80.3962 21.6287 79.3732 23.3365 78.9154C24.3307 78.6514 25.3124 78.3049 26.3272 78.1771C27.3379 78.0492 28.3816 78.1482 30.143 78.1482C27.6514 75.8713 26.3561 73.3469 24.6235 71.1196C23.5263 69.7089 22.3836 68.3436 22.0948 66.4751C21.7854 64.4828 22.5568 63.7032 24.4833 64.3797C25.626 64.7798 26.6531 65.5058 27.9195 66.1905C27.7752 65.217 27.7174 64.4209 27.5318 63.6537C27.0821 61.7605 27.9567 61.8182 29.2437 62.4493C30.0976 62.8659 30.9433 63.3031 32.1767 63.926C30.8979 59.8548 32.1313 56.1013 32.1354 52.3065C32.1354 47.596 34.1526 43.661 37.7126 40.5922C42.3864 36.5581 47.6089 37.6388 50.084 43.3516C54.6423 53.8698 62.183 61.8966 70.9737 68.9128C75.0122 72.1343 79.6695 74.0935 84.6486 75.3763C85.6964 75.6444 87.0288 75.3928 87.6806 76.688C87.7507 76.8283 88.2168 76.8819 88.452 76.8117C92.7669 75.4877 97.3458 76.457 101.714 75.0134C108.871 72.6457 114.3 68.4632 117.716 61.7151C120.727 55.7713 123.8 49.8646 127.868 44.5437C129.167 42.8443 130.599 41.2686 132.17 39.8373C132.913 39.1609 133.086 38.6246 132.492 37.7584C131.75 36.6736 131.354 35.4073 131.151 34.1122C130.78 31.728 131.564 29.8059 133.536 28.3622C138.49 24.7366 144.484 25.6935 148.007 30.7463C148.547 31.5218 148.993 31.5548 149.863 31.3156C152.606 30.5649 154.702 31.8147 156.307 33.91C157.8 35.8611 158.212 38.0513 156.802 40.2292C156.199 41.1573 156.505 41.5244 157.28 41.974C159.124 43.0382 160.96 44.1106 162.758 45.249C163.361 45.6326 164.243 46.0204 164.045 46.9278C163.872 47.7156 162.981 47.6703 162.338 47.8311C159.945 48.4375 157.569 49.1511 155.139 49.5759C153.25 49.9059 152.685 50.5246 153.6 52.3601C154.364 53.8945 154.788 55.5733 154.71 57.3387C154.611 59.5331 153.547 60.787 151.365 61.0675C149.413 61.3191 147.994 60.6633 147.516 58.5762C147.462 58.341 147.272 58.1348 146.901 57.5037L146.914 57.4955Z" fill="#ACAC53"/>
<path d="M138.96 118.208C140.404 118.088 141.039 116.921 141.654 115.911C143.807 112.371 145.523 108.705 145.598 104.39C145.664 100.723 146.91 97.2501 148.102 93.81C149.017 91.1619 149.909 90.4855 151.616 91.0918C153.761 91.8508 155.086 94.3504 154.372 96.388C153.737 98.1988 152.973 99.9683 152.379 101.791C151.612 104.147 151.092 106.572 151.109 109.063C151.117 110.132 151.08 111.295 152.169 112.013C152.565 112.392 152.986 112.083 153.398 112.058C154.714 111.856 155.296 110.788 155.894 109.818C157.878 106.605 158.852 103.07 159.112 99.3125C159.281 96.85 159.462 94.3834 159.792 91.9374C160.094 89.677 161.15 88.9593 163.299 89.2645C165.37 89.5574 166.195 90.6711 165.935 92.8613C165.134 99.6713 164.26 106.469 163.117 113.234C163.059 113.568 163.022 113.902 162.948 114.434C164.206 113.939 164.908 113.114 165.452 112.107C165.596 111.452 165.959 110.981 166.607 110.75C168.67 107.809 169.251 104.229 170.65 100.83C171.355 101.358 171.198 101.853 171.108 102.253C169.8 108.069 168.121 113.7 162.915 117.395C162.193 117.911 162.131 118.616 161.975 119.346C161.298 122.535 160.147 125.529 158.138 128.128C156.455 130.306 154.376 131.931 151.542 132.306C149.046 132.641 146.893 132.009 145.4 129.865C143.725 127.452 143.597 124.837 144.901 122.263C146.839 118.435 150.296 116.781 154.331 116.154C157.738 115.626 157.746 115.675 158.056 112.31C158.118 111.646 158.163 110.981 158.254 109.876C156.575 112.305 155.556 114.912 152.61 115.362C150.903 115.622 149.352 115.152 147.986 114.091C147.648 113.894 147.475 113.535 147.19 113.287C146.778 112.454 146.365 111.621 145.829 110.532C144.934 113.201 144.191 115.589 142.929 117.763C139.847 123.063 135.363 123.096 132.278 117.833C131.898 117.466 131.758 116.979 131.597 116.5C131.321 115.457 131.044 114.417 130.677 113.036C129.741 115.172 128.973 116.991 128.148 118.781C127.604 119.961 126.874 121.033 125.966 121.978C123.14 124.936 120.026 124.738 117.547 121.442C116.643 121.19 117.085 120.308 116.767 119.78C116.685 119.379 116.623 118.971 116.507 118.579C116.416 118.27 116.412 117.857 115.996 117.783C115.455 117.688 115.323 118.126 115.175 118.509C114.605 119.982 113.859 121.363 112.984 122.675C112.337 123.649 111.602 124.548 110.687 125.282C107.803 127.584 104.825 126.821 103.459 123.389C102.391 120.695 102.63 117.878 102.824 115.081C102.894 114.058 103.043 113.044 103.154 112.025C103.274 110.755 103.228 109.455 103.876 108.288C104.037 107.422 104.198 106.556 104.4 105.467C102.37 105.982 101.434 107.422 100.522 108.787C97.5191 113.279 95.4442 118.175 94.4088 123.496C94.2396 124.37 94.1159 125.257 93.8931 126.119C93.6291 127.142 93.7364 128.565 92.4246 128.825C90.9601 129.114 90.3084 127.769 89.6525 126.755C88.3778 124.787 88.419 122.593 88.7656 120.386C89.1409 118.018 89.5576 115.655 89.9577 113.287C89.999 112.437 89.7556 111.542 90.3372 110.771C90.5517 109.785 90.7663 108.799 91.0426 107.529C89.3307 108.082 88.452 109.179 87.6435 110.288C83.9061 115.416 81.6621 121.174 80.4946 127.381C80.3791 127.988 80.309 128.607 80.1275 129.192C79.484 131.288 78.5517 131.548 76.6995 130.186C75.9198 129.881 76.2664 129.023 75.8827 128.524C75.6682 127.971 75.4537 127.419 75.1361 126.602C73.453 129.159 72.4506 132.154 69.0803 132.628C67.6984 132.822 66.5269 132.385 65.5616 131.378C64.9593 131.18 65.0418 130.545 64.7696 130.137C64.4354 129.102 64.0972 128.066 63.7176 126.887C62.9504 128.978 62.41 131.032 60.8795 132.62C58.0002 135.61 54.6341 135.247 52.5839 131.667C48.9455 125.307 50.4718 113.708 55.653 108.494C58.0249 106.11 60.9126 105.054 64.258 105.384C67.2859 105.681 69.2619 107.855 69.0267 110.528C68.8328 112.718 66.9476 113.898 64.8108 113.168C64.3942 112.899 64.1384 112.475 63.8043 112.128C61.7128 111.002 59.8194 111.588 58.2972 113.865C57.0555 115.725 56.4986 117.857 56.1067 120.006C55.554 123.026 55.0837 126.078 56.0119 129.122C56.3666 130.294 56.6265 131.601 58.3261 131.457C60.2113 130.355 60.6939 128.355 61.3622 126.524C62.377 123.752 62.7936 120.823 63.3588 117.94C64.0477 114.43 64.9964 113.856 68.4162 114.921C68.6513 115.164 69.0803 114.995 69.2784 115.325C69.8311 116.476 69.7816 117.639 69.5052 118.872C68.8617 121.718 68.0697 124.552 68.1068 127.497C68.1192 128.495 67.9666 129.852 69.6991 129.741C69.9837 129.271 70.5489 129.597 70.9037 129.32C74.2244 125.905 75.2557 121.467 76.2292 117.057C77.0996 113.11 77.6854 109.101 78.4321 105.124C78.6424 103.994 78.6837 102.781 79.6036 101.895C80.2182 101.305 80.8576 100.777 81.7817 101.136C82.5985 101.453 82.8295 102.171 82.879 102.959C83.0481 105.574 82.7593 108.168 82.5118 110.763C82.4417 111.489 82.4005 112.215 82.4912 112.978C83.9185 110.643 84.6363 107.983 86.2451 105.768C87.5074 104.027 88.8604 102.39 90.7126 101.28C92.4204 100.257 94.3551 99.5558 96.0918 100.966C97.7831 102.336 97.7213 104.299 97.0489 106.246C96.987 106.424 96.9828 106.622 96.9705 106.811C96.9705 106.869 97.0241 106.935 97.0654 107.013C98.1668 107.187 98.1791 106.139 98.5009 105.586C99.7137 103.495 100.992 101.461 102.927 99.9642C104.779 98.5329 106.871 97.3697 109.173 98.6566C111.359 99.8817 111.272 102.237 111.103 104.361C110.769 108.614 109.589 112.722 108.624 116.859C108.249 118.464 107.869 120.068 107.985 121.739C108.055 122.778 108.385 123.525 109.655 123.038C109.961 122.613 110.451 122.502 110.889 122.304C113.958 119.029 115.558 115.024 116.202 110.697C116.808 106.601 117.687 102.604 119.102 98.7185C120.042 96.1323 120.909 95.497 122.687 96.1405C124.877 96.9325 126.139 99.1351 125.327 101.21C124.097 104.353 123.079 107.541 122.307 110.821C121.676 113.51 121.301 116.224 121.511 118.988C121.589 120.039 121.775 121.128 123.318 120.716C123.413 120.485 123.549 120.46 123.726 120.638C125.129 120.176 125.95 119.037 126.622 117.878C128.771 114.195 130.553 110.433 130.223 105.916C129.897 101.47 130.545 97.0356 131.205 92.6262C130.982 91.8838 131.296 91.2155 131.502 90.5349C132.711 86.0967 134.039 81.7079 136.77 77.9049C137.904 76.3251 139.167 74.9062 140.969 74.0648C142.768 73.2233 144.001 73.6729 144.777 75.4961C145.453 77.0841 145.28 78.7299 144.917 80.3468C143.333 87.429 139.781 93.7275 137.013 100.348C134.699 105.883 135.417 111.617 137.112 117.235C137.182 117.47 137.463 117.639 137.644 117.841C138.061 118.035 138.564 117.915 138.948 118.22L138.96 118.208Z" fill="#FDFDFD"/>
<path d="M130.541 141.141C133.693 137.322 136.073 133.119 137.818 128.532C138.024 127.983 138.057 127.196 138.804 127.097C139.394 127.018 140.186 126.973 140.59 127.29C141.143 127.728 140.582 128.433 140.375 128.961C135.813 140.692 128.144 149.828 116.866 155.454C99.3343 164.199 82.2108 162.916 65.933 152.06C60.2197 148.248 55.6366 143.212 52.0807 137.297C51.8539 136.918 51.4166 136.571 51.7219 135.891C53.4049 136.847 54.2836 138.732 56.111 139.467C56.9113 139.788 57.5301 140.193 58.5242 140.024C60.4094 139.702 61.5645 141.257 60.5785 142.882C59.8319 144.111 60.8426 144.297 61.2592 144.845C61.9192 145.716 62.4266 145.006 62.9464 144.594C67.1087 141.286 71.6175 138.563 76.5883 136.637C76.844 136.538 77.1369 136.291 77.3473 136.348C81.5673 137.561 84.5663 133.75 88.4811 133.663C90.0486 133.63 91.579 133.255 93.1012 134.076C93.6499 134.373 94.5285 134.459 95.1019 134.241C99.2889 132.653 103.253 134.224 107.147 135.231C113.735 136.93 119.638 140.147 124.927 144.466C125.533 144.961 126.045 146.025 127.125 144.99C127.922 144.227 128.425 143.633 127.278 142.746C126.866 142.428 127.183 141.851 127.295 141.385C128.545 136.097 130.805 131.287 134.109 126.973C134.625 126.3 135.037 125.698 136.118 126.206C137.306 126.762 137.517 127.22 136.593 128.247C133.54 131.65 132.117 135.919 130.5 140.073C130.376 140.387 130.232 140.704 130.541 141.141Z" fill="#ACAD56"/>
<path d="M160.146 135.003C157.064 143.306 152.976 150.327 147.49 156.464C135.073 170.361 119.736 178.821 100.991 180.062C72.1978 181.972 50.4087 169.998 35.1416 145.765C34.7785 145.187 33.5905 144.432 34.7992 143.529C35.7975 142.782 36.4533 142.869 37.1794 144.119C45.5246 158.51 57.3967 168.905 73.2249 174.143C96.2804 181.774 117.706 178.128 136.884 163.146C145.147 156.691 151.652 148.603 155.794 138.847C156.607 136.934 158.318 136.48 160.15 134.999L160.146 135.003Z" fill="#ACAD57"/>
<path d="M43.2895 119.425C43.6071 119.305 43.9207 119.161 44.2465 119.066C45.1747 118.806 46.074 117.655 47.0393 118.546C47.9386 119.371 47.559 120.617 47.3157 121.668C47.0434 122.84 46.5236 123.892 45.0881 124.003C43.7887 124.106 42.4892 124.317 41.1939 124.271C39.6264 124.218 38.954 124.713 38.6735 126.383C38.1207 129.712 36.9863 132.884 34.8082 135.561C32.4651 138.444 29.429 139.735 25.7288 139.24C23.6126 138.959 21.9914 137.858 21.2818 135.771C20.5929 133.737 20.9683 131.848 22.4039 130.211C23.2702 129.225 24.3221 128.804 25.7205 129.002C24.0993 131.877 24.1818 133.218 25.9556 134.707C26.5125 134.769 27.0736 135.053 27.6263 134.686C30.7903 133.511 31.3555 130.561 32.2671 127.86C32.4156 127.414 32.3785 126.907 32.5394 126.466C33.0055 125.203 32.6961 124.68 31.2853 124.894C30.419 125.026 29.495 125.187 28.7814 124.403C28.6246 123.879 28.8927 123.512 29.2393 123.174C29.6146 122.856 30.0602 122.675 30.5304 122.58C32.1475 122.267 32.6714 121.19 32.8611 119.66C33.2406 116.607 33.3067 113.534 33.6449 110.478C33.9543 107.685 34.4039 104.926 35.1795 102.228C35.6209 100.706 36.3139 99.2998 37.4566 98.1531C38.195 97.5922 38.9251 97.0065 39.845 96.7425C40.7732 96.528 41.7178 96.4661 42.6336 96.7053C43.6649 96.9776 44.5394 97.4519 44.1599 98.7966C42.5264 99.3823 41.6436 100.64 41.2146 102.228C39.6553 107.987 40.0801 113.939 39.647 119.8C39.5274 121.388 40.6577 120.01 41.1857 120.126C41.6683 119.251 42.6666 119.882 43.2854 119.408L43.2895 119.425Z" fill="#FDFDFD"/>
<path d="M23.9318 121.45C18.4578 116.78 17.6369 109.368 21.8445 102.686C27.1577 94.2551 39.8632 89.656 49.3922 92.6795C51.1537 93.2363 52.944 93.7272 54.7549 94.086C56.471 94.4284 58.3067 94.3665 59.668 93.2033C60.8148 92.2258 61.186 92.8816 61.6522 93.6818C63.1867 96.3258 61.2562 99.8937 57.9684 100.533C56.0915 100.896 54.297 100.504 52.5109 99.9803C50.5762 99.8648 49.054 98.7635 47.4658 97.8396C40.6634 93.8715 28.552 96.3794 24.6331 103.507C22.9954 106.481 22.0879 109.583 23.5606 112.936C23.9566 113.844 24.4805 114.619 25.4375 115.007C26.7328 115.741 28.1024 115.947 29.5915 115.803C31.4809 115.617 32.3595 116.636 32.0708 118.542C31.452 122.629 26.3698 124.184 23.9318 121.45Z" fill="#FDFDFC"/>
<path d="M23.9316 121.45C24.9588 121.813 25.9571 122.254 27.0833 122.258C29.4057 122.271 31.2208 120.769 31.5384 118.55C31.8354 116.488 31.3858 116.063 29.348 116.368C27.8258 116.595 26.3572 116.471 25.1197 115.399C24.109 113.547 24.7773 111.542 24.5875 109.62C25.0661 104.06 28.8034 101.148 33.3494 98.9329C34.3889 98.4255 35.5233 98.0997 36.6577 97.8398C37.1321 97.7326 37.7715 97.4644 37.887 98.3389C35.1603 101.783 34.8262 105.974 34.3105 110.082C33.9558 112.924 33.8361 115.791 33.5144 118.637C33.073 122.535 33.0317 122.531 29.2448 123.529C27.768 124.696 26.5759 123.104 25.2187 123.121C24.4019 122.865 24.2575 122.089 23.9316 121.454V121.45Z" fill="#191D20"/>
<path d="M25.0925 108.989C25.1007 111.126 25.109 113.262 25.1172 115.399C23.1165 114.368 22.4854 112.557 22.3616 110.482C22.0233 104.864 25.3235 99.704 31.0244 97.2704C37.1503 94.6512 43.2225 94.3501 49.0761 98.1655C50.1569 98.8708 51.3614 99.3823 52.5082 99.9804C51.9513 100.405 51.6007 100.913 50.6436 100.331C49.2246 99.4689 47.6941 98.7388 46.0565 98.248C45.153 97.9758 44.6622 98.1737 44.163 98.809C43.4122 96.1485 41.3208 97.2993 39.6625 97.225C36.6635 97.8726 33.714 98.6151 31.0533 100.257C26.4084 103.123 24.1395 107.24 24.3128 113.006C24.3582 112.029 24.2839 111.352 24.3458 110.684C24.4036 110.049 24.1973 109.269 25.0925 108.989Z" fill="#1E2020"/>
<path d="M102.621 87.6595C103.059 86.9088 103.397 86.0715 103.954 85.4198C105.043 84.1411 106.305 83.9308 107.596 85.2136C108.512 88.9135 108.124 89.7343 104.515 91.3017C106.119 91.9245 107.064 91.244 107.708 90.1674C108.397 89.0166 108.982 87.7874 109.213 86.4304C109.354 85.6178 109.49 84.8093 109.63 83.9967C109.704 83.5595 109.927 83.1388 110.385 83.1759C110.896 83.2213 110.896 83.7369 110.905 84.1494C110.917 84.8011 110.905 85.4569 111.041 86.154C111.577 85.2713 111.919 84.302 112.678 83.609C113.239 83.0975 113.821 82.4995 114.654 82.9078C115.368 83.2584 115.455 84.0297 115.36 84.7103C115.121 86.4056 114.749 88.0803 114.518 89.7755C114.432 90.4149 114.139 91.6523 115.545 90.6088C115.904 90.5098 116.106 90.5675 115.921 90.9965C115.446 91.7761 114.923 92.601 113.85 92.205C112.934 91.8668 112.918 90.914 112.889 90.1097C112.839 88.6412 112.876 87.1687 112.876 85.5518C111.321 87.1811 110.892 89.2723 110.352 91.3265C110.191 91.9452 110.405 92.9434 109.58 93.0547C108.731 93.1702 108.945 92.0483 108.545 91.5739C107.881 91.7389 107.844 92.3948 107.489 92.7743C105.69 94.6923 103.892 94.6758 102.493 92.4649C101.714 91.2357 101.821 92.766 101.466 92.6464C101.297 92.502 101.194 92.3205 101.145 92.1019C101.437 90.551 101.569 88.9465 102.63 87.6513L102.621 87.6595Z" fill="#F7F8F7"/>
<path d="M101.4 92.1018C101.417 92.2833 101.438 92.4648 101.454 92.6463C101.31 92.9391 101.207 93.2608 101.017 93.5248C100.377 94.4158 99.6267 95.3356 98.4345 95.1459C97.1227 94.9355 96.7391 93.7723 96.5081 92.6091C95.9924 91.6233 96.8298 91.2974 97.395 90.8973C98.1705 90.3488 98.9254 89.8249 99.0657 88.4844C97.3496 89.5692 96.8546 91.1985 96.0584 92.605C95.3406 93.5867 96.2317 95.1417 94.8827 95.8966C94.2145 95.6078 93.9835 95.0386 93.8968 94.3704C93.8391 93.8383 93.6246 93.331 93.5957 92.7906C93.7112 91.5944 93.6782 90.357 94.4331 89.3134C94.8539 86.9499 95.2375 84.5823 95.716 82.2312C95.848 81.5754 96.2193 80.9567 96.5493 80.3586C96.8504 79.8141 97.2712 79.2325 97.9849 79.4346C98.8016 79.6656 98.8635 80.4246 98.7563 81.1258C98.4593 83.0314 97.7827 84.8257 97.098 86.62C96.8628 87.2428 96.4132 87.8203 96.6401 88.5751C99.4575 84.8092 100.006 84.6153 101.466 86.8427C102.399 89.5692 100.204 90.819 98.6655 92.4978C99.7917 93.0917 100.501 91.8914 101.409 92.0977L101.4 92.1018Z" fill="#F8F8F7"/>
<path d="M78.4395 89.4252C78.2621 89.9985 78.0847 90.5719 77.9404 91.038C78.0559 91.3721 78.1425 91.3762 78.2621 91.1906C78.9345 90.18 79.578 88.658 80.9476 89.1364C82.5564 89.7015 81.7809 91.3514 81.653 92.5806C81.4962 94.1192 80.8816 95.6082 81.0837 97.1962C82.1315 97.4932 82.1521 96.3465 82.7915 96.1321C82.9772 96.7838 82.5564 97.2045 82.247 97.6293C81.851 98.1779 81.3849 98.7884 80.5887 98.5987C79.8173 98.413 79.5945 97.7201 79.479 97.0189C79.38 96.4125 79.3223 95.8021 79.2439 95.1916C79.314 94.28 78.7613 93.3313 79.2522 92.692C78.3776 94.2099 77.6722 96.0867 77.2267 98.0748C77.0328 98.9493 76.7606 99.8567 75.5313 99.1019H75.5478C74.9414 98.8173 75.1023 97.8521 74.3226 97.7242C74.1576 97.6005 74.0751 97.4355 74.0586 97.2292C74.5371 95.6701 75.0404 94.115 75.0981 92.461C75.4611 90.9926 75.2384 89.3716 76.2325 88.064C76.6079 86.7028 76.7729 85.2592 77.5526 84.0547C78.0146 83.337 78.5509 82.2398 79.6605 83.4319C79.8338 83.8237 79.7719 84.1908 79.5615 84.5497C78.7778 85.6345 78.687 86.9627 78.2992 88.1836C77.8042 88.6497 78.6746 88.9756 78.4354 89.4169L78.4395 89.4252Z" fill="#F8F8F7"/>
<path d="M125.851 83.2666C128.087 83.312 129.96 85.3207 129.873 87.5852C129.79 89.7425 128.054 91.3759 125.838 91.3718C123.561 91.3676 121.705 89.4785 121.705 87.1728C121.705 84.9825 123.574 83.2254 125.847 83.2707L125.851 83.2666Z" fill="#FBFBFB"/>
<path d="M58.329 131.452C56.6789 132.426 56.089 131.233 55.693 130.037C54.6081 126.766 54.9092 123.425 55.5115 120.121C55.99 117.502 56.6624 114.908 58.428 112.788C60.2884 110.556 62.4954 110.288 64.3558 112.012C64.4342 112.441 64.1743 112.68 63.8278 112.742C60.9402 113.241 59.616 115.361 58.6878 117.799C57.2358 121.602 56.7119 125.541 57.1739 129.596C57.2523 129.868 57.6566 129.575 57.3967 129.666C57.3018 129.699 57.2523 129.662 57.2317 129.555C56.7037 127.039 57.1162 124.56 57.5204 122.077C57.5782 121.722 57.6607 121.408 58.0938 121.367C58.4403 122.477 58.8487 123.566 57.9041 124.638C57.6854 124.89 57.7514 125.426 57.7473 125.83C57.7349 127.369 58.3785 128.895 57.7803 130.458C57.6318 130.846 57.9206 131.246 58.3372 131.452H58.329Z" fill="#1D1F1F"/>
<path d="M74.2371 97.5668C74.3526 97.5668 74.4681 97.5586 74.5836 97.5503C74.728 99.1549 73.2636 100.693 71.4444 100.838C70.8256 100.887 70.2275 100.817 69.6912 100.475C65.0669 97.6534 64.939 89.0368 69.4726 85.9927C72.3148 84.0871 74.7569 84.8914 75.8459 88.0922C75.9821 91.5447 74.8023 93.0048 71.9353 92.9265C70.6648 92.0809 70.8256 91.2147 71.9105 90.3444C72.9583 89.5029 73.8081 88.5707 73.4245 87.0734C72.5953 85.6751 71.6919 86.3268 70.9123 87.061C69.5262 88.3603 69.2003 90.134 68.9734 91.92C68.6476 93.2647 68.6022 94.5887 68.9487 95.9582C69.5922 98.4743 70.8009 99.0641 73.1192 97.8844C73.4699 97.7071 73.7792 97.373 74.2371 97.5709V97.5668Z" fill="#FAFAF9"/>
<path d="M130.396 127.265C128.053 130.825 126.316 134.657 125.108 138.745C124.943 139.297 125.198 140.572 124.002 140.164C123.045 139.838 121.985 139.392 122.525 137.796C123.404 135.197 124.303 132.615 125.599 130.202C126.481 128.556 128.47 128.297 129.786 127.175C130.012 127.03 130.219 127.063 130.396 127.265Z" fill="#ABAC55"/>
<path d="M149.305 133.548C154.68 134.653 159.131 132.574 161.371 127.166C163.306 122.497 165.389 118.162 168.846 114.355C171.239 111.723 171.808 107.949 172.728 104.509C172.827 104.146 172.761 103.705 173.557 103.23C172.385 109.488 170.731 115.073 165.851 119.098C164.894 119.886 164.391 120.757 164.094 121.953C163.116 125.925 161.648 129.65 158.38 132.401C155.493 134.834 152.032 135.395 149.297 133.543L149.305 133.548Z" fill="#75774A"/>
<path d="M75.8619 101.783C75.1029 104.55 75.2225 107.388 74.2201 110.164C72.6608 106.873 70.4043 104.501 67.294 102.975C66.7206 102.694 66.1265 102.517 66.5762 101.646C67.1083 100.611 67.4837 101.349 67.9375 101.688C69.8845 103.14 71.9389 103.329 74.1128 102.216C74.579 101.976 74.9791 101.494 75.8578 101.787L75.8619 101.783Z" fill="#A9AA57"/>
<path d="M93.9931 92.9557L94.4015 94.3417C93.1639 95.9668 92.0708 97.8807 89.476 96.8124C89.0346 96.5319 88.5933 96.2514 88.156 95.9709C87.7146 95.5956 87.5083 95.8802 87.265 96.2432C87.0092 96.6227 86.6833 96.9568 86.1388 96.7835C86.0233 96.6144 86.0357 96.4535 86.1759 96.305C86.9061 94.5067 87.6445 92.7206 87.9786 90.782C88.1395 89.8415 88.6551 88.9877 89.2863 88.2494C90.66 86.649 91.9429 86.7356 93.2217 88.4969C93.7909 89.7879 93.7579 91.013 92.7968 92.1184C92.2193 92.7825 91.5097 93.228 90.6476 92.6835C89.8061 92.1473 90.0577 91.4213 90.4743 90.7201C90.7177 90.3159 90.9652 89.8993 90.7631 89.3796C89.3605 90.155 88.8408 92.0854 89.6369 93.4466C90.3341 94.6345 91.3489 94.651 92.9288 93.4878C93.2547 93.2486 93.5104 92.898 93.9807 92.9599L93.9931 92.9557Z" fill="#F6F7F6"/>
<path d="M115.199 99.9722C114.069 98.8544 113.091 97.9882 112.249 97.0106C111.845 96.5445 110.612 96.2723 111.321 95.3978C111.837 94.7626 112.163 93.4221 113.784 94.4656C115.261 95.4185 116.841 94.5275 117.822 93.0632C118.305 92.3414 118.627 91.5082 119.134 90.5059C119.745 91.2689 120.269 91.9207 120.941 92.758C116.944 93.5541 116.556 97.0189 115.203 99.9681L115.199 99.9722Z" fill="#A8A958"/>
<path d="M49.2253 120.737C50.5495 123.64 49.2377 126.544 46.5811 126.284C42.1589 125.847 40.7151 127.963 40.0304 131.824C39.5271 134.674 37.9513 137.178 35.7608 139.178C33.1249 141.591 29.4122 142.305 26.3184 140.729C31.4212 141.435 35.0472 139.772 37.5264 135.705C39.0114 133.272 39.9231 130.632 40.4099 127.844C40.6368 126.532 41.1111 125.69 42.6498 125.864C43.248 125.934 43.8709 125.728 44.4855 125.69C48.7303 125.435 48.9118 125.261 49.2294 120.732L49.2253 120.737Z" fill="#8A8D60"/>
<path d="M93.9913 92.9563C92.9559 94.2803 91.8833 95.6745 89.9445 94.7299C88.6451 94.0988 88.3646 91.1084 89.334 89.4461C89.7176 88.7902 90.2498 88.0148 91.0666 88.4809C91.8256 88.9099 91.5245 89.776 91.3058 90.5268C91.1243 91.1372 89.4949 91.7106 90.9717 92.3664C92.2257 92.9232 92.7744 91.7229 93.0549 90.7289C93.2529 90.0235 93.1828 89.2398 93.2323 88.4932C93.6489 88.7449 93.7974 89.3883 94.4368 89.3141C94.5894 90.5639 94.1769 91.7436 93.9995 92.9521L93.9913 92.9563Z" fill="#31322F"/>
<path d="M122.719 129.427C121.816 131.803 120.962 134.034 120.116 136.266C119.927 136.765 119.84 137.491 119.073 137.099C118.413 136.761 117.266 136.657 117.575 135.498C118.157 133.316 118.854 131.13 120.079 129.237C120.908 127.958 121.8 129.509 122.719 129.427Z" fill="#AAAB57"/>
<path d="M90.3421 110.774C90.1853 111.608 90.4617 112.507 89.9625 113.291C89.4386 112.787 89.2901 113.311 89.088 113.621C85.9364 118.5 83.7418 123.755 82.8508 129.521C82.694 130.54 82.5084 131.555 81.935 132.434C81.341 133.337 80.5902 133.778 79.332 132.912C82.3351 132.322 81.9886 129.827 82.4259 127.863C83.8243 121.581 86.0725 115.716 90.3421 110.779V110.774Z" fill="#707249"/>
<path d="M103.881 108.287C103.699 109.545 103.761 110.849 103.159 112.024C103.093 111.694 103.027 111.369 102.932 110.894C99.4668 115.695 97.5444 120.971 96.5008 126.614C96.2904 127.752 96.0841 128.911 95.6964 129.996C95.354 130.949 94.727 131.724 93.3945 130.726C95.2756 130.338 95.4159 128.845 95.6427 127.476C96.8267 120.406 99.2069 113.856 103.877 108.283L103.881 108.287Z" fill="#6F7248"/>
<path d="M137.707 106.613C137.257 102.686 139.905 99.811 141.234 96.5112C143.02 92.0812 145.194 87.8079 146.423 83.1634C147.219 83.1098 146.992 83.5759 146.844 84.0007C145.272 90.1219 142.434 95.7316 139.724 101.383C138.73 103.457 137.95 105.511 138.103 107.838C137.1 107.714 137.624 107.095 137.703 106.617L137.707 106.613Z" fill="#73744C"/>
<path d="M86.1746 96.3005C86.1993 96.5067 86.2282 96.7171 86.253 96.9233C86.0054 97.971 85.2712 97.8308 84.5163 97.6369C83.3035 96.4449 82.6888 95.1579 83.3612 93.376C83.7902 92.2417 83.8274 90.9631 84.0708 89.7504C84.178 89.2183 84.2358 88.5748 84.8298 88.3809C85.6012 88.1293 85.8899 88.7975 86.2241 89.309C86.8429 91.3425 85.3702 93.0873 85.4321 95.0383C85.4444 95.4755 84.7803 96.1726 85.8033 96.3376C85.9271 96.3088 86.0508 96.2923 86.1787 96.2923L86.1746 96.3005Z" fill="#F8F8F8"/>
<path d="M58.0869 121.368C57.1381 124.21 57.2989 127.155 57.3814 130.389C56.6967 129.576 56.7957 128.825 56.7709 128.202C56.5812 123.909 57.1999 119.759 59.1181 115.853C60.2072 113.638 62.1708 112.693 64.353 112.013C64.8232 112.273 64.848 112.706 64.8108 113.168C62.2574 113.019 60.7764 114.525 59.6792 116.554C58.8665 118.06 58.2271 119.635 58.091 121.372L58.0869 121.368Z" fill="#8C8F63"/>
<path d="M110.897 122.291C110.638 122.79 110.147 122.902 109.664 123.026C109.866 118.422 111.57 114.108 112.251 109.591C112.605 107.248 113.113 104.934 112.708 102.542C113.991 105.223 113.319 107.95 112.824 110.618C112.255 113.699 111.438 116.731 110.749 119.792C110.563 120.625 110.155 121.499 110.897 122.287V122.291Z" fill="#656644"/>
<path d="M109.21 86.4307C109.165 88.093 108.876 89.7016 107.853 91.0628C107.201 91.9249 106.306 92.4157 105.18 92.2796C104.037 92.1393 103.617 91.335 103.406 90.0481C104.722 90.4771 105.976 90.6668 106.925 89.5078C107.993 88.2043 107.857 86.7194 107.593 85.2139C108.307 85.7212 108.183 86.6163 108.575 87.2969C108.785 87.0123 108.996 86.7235 109.21 86.4307Z" fill="#3E403A"/>
<path d="M123.734 120.624C123.598 120.649 123.462 120.678 123.326 120.703C122.649 113.687 125.516 107.376 127.451 101.151C128.057 102.117 128.033 102.294 127.43 103.87C125.368 109.269 123.639 114.747 123.734 120.62V120.624Z" fill="#6B6D48"/>
<path d="M166.602 110.754C166.433 111.389 165.93 111.74 165.447 112.111C165.439 108.262 166.474 104.538 166.763 100.718C166.949 98.2846 167.51 95.884 167.997 92.8936C168.628 95.521 167.91 97.5298 167.712 99.5303C167.361 103.061 166.743 106.567 166.239 110.086C166.194 110.395 166.338 110.605 166.598 110.754H166.602Z" fill="#636543"/>
<path d="M147.186 113.291C147.45 113.559 147.718 113.827 147.982 114.096C146.786 115.634 146.423 117.564 145.582 119.272C143.606 123.273 140.73 124.808 137.414 123.484C137.187 123.393 137.001 123.199 136.646 122.939C141.25 123.603 142.727 122.84 144.868 118.761C145.792 117.004 146.72 115.242 147.186 113.287V113.291Z" fill="#6F7248"/>
<path d="M101.401 92.1016C100.625 92.5017 100.118 93.3514 99.1443 93.4257C98.4307 93.4793 97.8985 93.137 97.6882 92.5265C97.453 91.8459 98.146 91.8665 98.5462 91.6727C100.568 90.6992 101.318 88.9544 101.459 86.8467C101.875 87.0777 102.007 87.7088 102.618 87.6593C102.432 89.2019 102.065 90.6951 101.401 92.1058V92.1016Z" fill="#42443B"/>
<path d="M153.397 112.058C152.972 112.454 152.56 112.499 152.168 112.012C152.729 111.926 153.001 111.625 152.952 111.035C152.601 106.671 154.132 102.727 155.695 98.7965C156.021 97.9798 156.483 97.2085 156.409 96.2598C157.423 97.4436 156.677 98.549 156.268 99.6091C154.726 103.627 153.195 107.644 153.397 112.062V112.058Z" fill="#646641"/>
<path d="M131.594 116.504C131.82 116.949 132.047 117.391 132.274 117.836C131.181 118.298 131.214 119.478 130.76 120.328C129.816 122.089 128.834 123.792 127.287 125.1C125.476 126.626 123.71 126.725 121.145 125.207C124.964 126.379 127.122 124.609 128.867 121.994C130.005 120.282 130.909 118.447 131.598 116.508L131.594 116.504Z" fill="#717248"/>
<path d="M116.768 119.783C117.028 120.336 117.288 120.893 117.548 121.446C116.248 122.357 116.046 123.982 115.118 125.15C113.823 126.783 112.507 128.318 110.329 128.755C109.141 128.994 108.035 128.953 106.859 127.724C109.739 128.652 111.764 127.678 113.455 125.793C115.023 124.048 116.285 122.126 116.768 119.779V119.783Z" fill="#707246"/>
<path d="M75.541 99.1139C76.6342 99.5676 76.5888 98.755 76.7332 98.0827C77.0714 96.4699 77.4757 94.8695 78.2595 93.4093C78.5895 92.7947 78.7504 91.9615 79.8435 91.7842C79.6373 92.9804 79.4475 94.0941 79.2578 95.2036C77.9955 95.1252 78.4905 96.2926 78.1605 96.8453C77.8717 97.332 77.946 98.025 77.8016 98.6107C77.3272 100.545 77.1622 100.574 75.5493 99.1098L75.541 99.1139Z" fill="#41433D"/>
<path d="M43.2892 119.424C42.7116 120.022 41.8825 119.882 41.1895 120.142C41.965 116.376 41.3545 112.503 42.0392 108.729C42.1712 108.003 41.932 107.211 42.4187 106.547C42.7941 106.732 42.592 107.161 42.7941 107.425C42.5714 110.981 42.3734 114.541 42.1052 118.096C42.0351 119.045 42.262 119.54 43.285 119.424H43.2892Z" fill="#7F8162"/>
<path d="M70.9038 129.308C70.6026 129.741 70.1654 129.782 69.6992 129.728C69.7075 125.872 70.8996 122.205 71.4978 118.394C72.4136 118.827 72.0836 119.532 71.9598 120.163C71.5143 122.374 70.9904 124.572 70.6233 126.8C70.4871 127.612 70.1282 128.557 70.9079 129.308H70.9038Z" fill="#747756"/>
<path d="M64.7738 130.137C65.0378 130.549 65.3018 130.966 65.5658 131.378C64.6459 131.898 64.5345 132.95 64.023 133.742C62.2368 136.518 59.473 137.491 56.4121 135.982C58.7057 136.25 60.5125 136.171 61.9563 134.798C63.3176 133.503 64.4479 132.059 64.7738 130.137Z" fill="#8A8E60"/>
<path d="M96.0547 92.6093C96.1578 90.7119 97.1231 89.2765 98.4885 88.0597C98.7319 87.8452 99.0289 87.5812 99.4002 87.7627C99.854 87.9813 99.8498 88.4227 99.7715 88.8228C99.5404 89.9612 98.9382 90.9017 97.8368 91.2811C97.1025 91.5328 96.6446 91.8586 96.5085 92.6134C96.36 92.6134 96.2073 92.6134 96.0588 92.6093H96.0547Z" fill="#41433A"/>
<path d="M137.707 106.613C137.798 107.034 137.645 107.537 138.107 107.834C138.301 111.299 137.781 114.826 138.961 118.208C138.408 118.488 137.938 118.476 137.657 117.829C138.466 115.997 137.538 114.211 137.484 112.4C137.426 110.458 137.002 108.519 137.707 106.613Z" fill="#535540"/>
<path d="M69.6858 100.476C71.9092 100.488 73.7903 99.9395 74.5782 97.5513C76.0632 97.3409 75.164 98.632 75.5559 99.1063C74.2688 100.022 73.2994 101.523 71.3853 101.284C70.7006 101.198 70.0075 101.255 69.6816 100.476H69.6858Z" fill="#4F5147"/>
<path d="M75.8861 128.523C76.41 128.957 76.4471 129.625 76.7029 130.186C75.6798 131.279 75.1229 132.739 73.9184 133.696C72.4993 134.826 70.9854 135.267 69.2363 134.471C70.9276 134.339 72.5777 134.063 73.774 132.751C74.863 131.551 76.1171 130.396 75.8902 128.523H75.8861Z" fill="#939769"/>
<path d="M85.8048 96.346C85.0004 96.1315 84.9962 96.1315 84.9715 95.2942C84.9137 93.2029 85.7841 91.3055 86.2255 89.3174C86.9351 90.0021 87.0052 90.7198 86.7123 91.7015C86.2627 93.207 86.0935 94.7951 85.8048 96.346Z" fill="#474940"/>
<path d="M71.7617 92.6008C74.344 92.5224 74.9917 91.8088 75.8414 88.0924C75.9734 88.0635 76.1054 88.0553 76.2416 88.0759C76.2127 89.6268 75.9528 91.1447 75.5444 92.6338C74.9298 93.3886 74.2203 94.0527 73.2013 94.0774C72.2773 94.0981 71.6462 93.6732 71.7617 92.6008Z" fill="#3C3D36"/>
<path d="M59.3853 102.163C62.3059 101.449 63.2753 100.405 64.0219 97.1758C64.715 99.7166 63.5393 101.664 60.8002 102.583C59.6658 102.963 58.5231 103.025 57.3516 102.893C57.6651 101.631 58.8242 102.728 59.3853 102.163Z" fill="#8F9264"/>
<path d="M89.4746 96.8124C91.1205 96.932 92.3993 96.3091 93.3357 94.9397C93.575 94.5891 93.7235 93.9621 94.4 94.3416C94.1649 94.981 94.5114 95.4429 94.8786 95.8967C94.1237 95.8967 93.7648 96.5525 93.212 96.8825C91.9786 97.6249 90.6915 98.1777 89.4746 96.8082V96.8124Z" fill="#41443C"/>
<path d="M42.7934 107.425C42.6696 107.132 42.5458 106.839 42.418 106.546C42.6325 102.921 43.9195 100.916 46.9928 100.417C43.9236 102.22 43.0821 104.682 42.7934 107.421V107.425Z" fill="#8C8F62"/>
<path d="M86.1876 86.8344C85.1935 86.3353 84.6036 85.5516 85.2925 84.5369C86.0103 83.4768 86.8064 83.9842 87.4458 84.7844C87.7882 85.9352 87.6809 86.8097 86.1876 86.8344Z" fill="#E7E7E6"/>
<path d="M131.51 90.5225C131.518 91.236 131.564 91.9538 131.213 92.6137C129.517 93.4139 127.834 94.4616 125.545 92.6137C128.445 93.4964 130.149 92.4075 131.514 90.5266L131.51 90.5225Z" fill="#656742"/>
<path d="M84.5161 97.642C85.1843 97.6172 85.8815 97.6667 86.2527 96.9243C86.525 96.4788 86.7766 96.0209 87.0737 95.5961C87.2428 95.3569 87.2964 94.8495 87.6718 94.9774C88.0389 95.1052 88.1792 95.5425 88.1462 95.9714C88.0266 96.2024 87.8863 96.421 87.7873 96.6603C86.9169 98.7474 86.4879 98.8794 84.5078 97.642H84.5161Z" fill="#5D5F58"/>
<path d="M146.843 83.9969C146.777 83.6793 146.768 83.3328 146.422 83.1596C146.476 81.2292 147.235 79.3194 146.661 77.3643C147.973 79.5298 147.725 81.7489 146.843 83.9969Z" fill="#56573C"/>
<path d="M64.9679 137.549C65.6403 137.792 65.6939 138.32 65.5866 138.757C65.3474 139.731 64.4398 140.131 63.6396 140.345C63.1693 140.469 62.9837 139.644 63.1157 139.223C63.3962 138.312 64.3821 138.11 64.9679 137.549Z" fill="#9FA361"/>
<path d="M59.3857 102.162C58.8659 102.847 57.8429 102.133 57.352 102.892C55.6277 102.69 54.0477 102.121 52.6699 100.966C54.8604 101.704 57.0715 102.245 59.3857 102.162Z" fill="#6D7051"/>
<path d="M69.2819 115.316C68.9023 115.378 68.6218 115.23 68.4238 114.912C70.5442 114.211 71.0227 112.607 70.5277 110.062C71.8807 112.821 71.4228 114.232 69.2819 115.316Z" fill="#868960"/>
<path d="M150.602 83.6832C150.602 84.7639 150.594 85.8445 150.602 86.9252C150.607 87.5357 150.244 87.8244 149.716 87.7873C148.882 87.7337 149.262 87.0944 149.353 86.7231C149.608 85.6878 149.947 84.6731 150.252 83.6543L150.598 83.6832H150.602Z" fill="#9EA168"/>
<path d="M100.403 97.5917C99.3906 98.8813 98.3827 98.8318 97.3789 97.4432C98.4473 97.1957 99.4044 97.9381 100.403 97.5917Z" fill="#91945E"/>
<path d="M78.4405 89.4252C78.7004 88.8849 76.9266 89.4417 77.9372 88.4972C78.5684 87.1937 78.6839 85.7418 79.1542 84.3889C79.3233 84.0754 79.4965 83.7578 79.6657 83.4443C80.5237 85.6965 79.117 87.4866 78.4405 89.4252Z" fill="#C2C3C2"/>
<path d="M27.6297 134.691C27.081 135.161 26.5241 135.194 25.959 134.711C26.619 134.2 26.223 133.449 26.388 132.826C26.5819 132.108 26.7881 131.424 27.7163 131.296C28.0999 132.509 25.3237 133.532 27.6255 134.691H27.6297Z" fill="#999C7B"/>
<path d="M25.2168 123.116C26.6111 122.733 27.8321 124.065 29.2429 123.525C29.0903 123.822 28.9377 124.119 28.7851 124.416C27.3743 124.585 26.3636 123.661 25.2168 123.116Z" fill="#6C6E55"/>
<path d="M130.397 127.266C130.195 127.237 129.993 127.204 129.791 127.175C130.727 125.963 131.664 124.746 132.6 123.533L133.079 123.867C132.184 125.002 131.288 126.132 130.397 127.266Z" fill="#808258"/>
<path d="M115.912 91.0007C115.789 90.8729 115.661 90.7409 115.537 90.613C116.003 89.3797 116.465 88.1464 116.931 86.9131C117.191 88.4557 116.948 89.8417 115.912 91.0049V91.0007Z" fill="#9FA1A0"/>
<path d="M86.1875 86.8342C87.1445 86.4795 87.5571 85.7906 87.4457 84.7842C87.8871 85.5926 88.6502 86.3805 87.6107 87.2797C86.9135 87.8819 86.5093 87.4735 86.1875 86.8383V86.8342Z" fill="#434541"/>
<path d="M57.9186 83.1638C56.9162 84.3517 55.9427 85.5685 54.8949 86.7152C54.5278 87.1153 54.0616 87.9361 53.4593 87.4535C52.7911 86.9214 53.5501 86.3935 53.9049 85.9439C54.833 84.7642 55.8932 83.7412 57.2669 83.0813C57.502 82.941 57.7206 82.9658 57.9186 83.1596V83.1638Z" fill="#282814"/>
<path d="M121.816 74.0312C121.758 76.0936 120.603 77.0671 119.354 77.9869C119.981 76.6876 120.273 75.1779 121.816 74.0312Z" fill="#3C3D1B"/>
<path d="M57.9174 83.1636C57.6988 83.1388 57.4843 83.1099 57.2656 83.0852C58.3753 82.1489 59.3406 81.0228 60.6854 80.4082L61.036 80.8001L57.9174 83.1677V83.1636Z" fill="#535527"/>
<path d="M39.3838 83.2256C38.5134 83.7041 37.874 83.733 37.3542 83.2215C37.1439 83.0153 37.2057 82.4461 37.577 82.3636C38.2989 82.1986 38.7485 82.71 39.3838 83.2256Z" fill="#27260E"/>
<path d="M37.7054 77.2861C38.1798 77.4718 38.5799 77.8182 38.5881 78.4081C38.5881 78.7298 38.254 78.7917 37.9859 78.7463C37.3836 78.6432 37.033 78.3173 37.1155 77.6532C37.1567 77.3274 37.3258 77.1995 37.7054 77.2861Z" fill="#2D2D13"/>
<path d="M142.57 77.4717C142.508 84.1414 139.691 89.9491 137.092 95.8228C138.338 89.5243 138.523 82.9164 142.57 77.4717Z" fill="#212325"/>
<path d="M150.115 129.732C149.282 129.431 149.068 128.709 148.944 127.958C148.317 124.217 151.629 119.383 155.313 118.566C156.98 118.199 157.549 118.616 156.728 120.261C156.398 120.699 155.957 120.987 155.524 121.317C153.374 122.943 151.638 124.84 151.209 127.682C151.101 128.4 151.378 129.546 150.111 129.732H150.115Z" fill="#1E1F1F"/>
<path d="M156.393 121.953C155.7 124.259 154.813 126.474 153.27 128.363C152.759 128.99 152.255 129.675 151.327 129.733C150.952 129.51 150.688 129.2 150.774 128.743C151.339 125.793 152.536 123.203 155.093 121.446C155.65 121.066 156.517 120.378 156.397 121.953H156.393Z" fill="#1E201E"/>
<path d="M156.394 121.953C156.233 121.726 156.299 121.243 155.754 121.47C153.3 122.501 150.87 127.018 151.328 129.732C150.924 129.992 150.523 130.095 150.119 129.732C150.899 128.911 150.581 127.806 150.858 126.849C151.769 123.689 153.597 121.408 156.732 120.266C156.678 120.839 156.876 121.466 156.394 121.957V121.953Z" fill="#737549"/>
<path d="M96.0762 109.975C96.2659 109.187 96.4557 108.403 96.7197 107.298C97.08 108.216 96.8655 109.109 96.0762 109.975Z" fill="#98989B"/>
<path d="M93.5227 136.105C104.735 136.209 114.351 139.525 122.725 146.261C123.187 146.632 124.647 146.879 123.69 148.014C122.989 148.843 122.213 149.42 120.951 148.41C114.487 143.237 107.156 140.082 98.8689 139.187C87.1823 137.924 76.7457 141.006 67.4311 148.059C66.6061 148.686 65.9708 149.206 64.9808 148.298C64.2341 147.614 63.9371 147.259 64.9313 146.463C72.3772 140.511 80.809 137.062 90.3092 136.27C91.5385 136.167 92.776 136.143 93.5227 136.105Z" fill="#1A1D1B"/>
<path d="M91.6774 141.595C102.832 141.669 110.665 144.23 117.67 149.259C118.318 149.721 119.897 150.075 119.217 151.152C118.536 152.22 117.328 152.542 115.9 151.453C112.27 148.677 108.157 146.767 103.71 145.666C92.589 142.911 82.2101 144.577 72.6604 151.012C72.318 151.243 71.9839 151.482 71.658 151.738C70.5813 152.575 69.7398 151.779 69.1499 151.139C68.296 150.22 69.4841 149.894 69.9791 149.531C77.1816 144.251 85.238 141.562 91.6774 141.599V141.595Z" fill="#1A1D1C"/>
<path d="M73.717 153.59C79.3313 149.589 85.4036 147.518 92.0492 147.122C99.4744 146.685 106.339 148.537 112.642 152.456C113.224 152.819 114.469 153.215 114.073 153.866C113.549 154.724 112.361 155.289 111.173 154.757C110.361 154.394 109.631 153.858 108.83 153.466C98.5422 148.389 88.3035 148.541 78.2423 154.019C76.5592 154.935 75.3506 154.885 73.7129 153.59H73.717Z" fill="#1A1D1C"/>
<path d="M80.1758 156.32C86.6399 151.317 100.488 151.313 107.926 156.337C106.152 157.174 104.576 157.517 102.654 156.819C97.0518 154.786 91.3178 154.761 85.6994 156.696C83.6822 157.389 82.028 157.055 80.1758 156.324V156.32Z" fill="#1B1E1C"/>
<path d="M91.5625 158.218H96.7932C96.7932 158.3 96.7973 158.387 96.8014 158.469H91.6079C91.5955 158.387 91.579 158.3 91.5666 158.218H91.5625Z" fill="#4D4F21"/>
<path d="M25.0935 108.988C24.4005 110.486 24.8584 112.099 24.5572 114.227C23.3568 110.399 24.2355 107.38 25.9845 104.674C29.1568 99.7655 33.9337 97.5546 39.6677 97.2246C39.1355 97.6907 38.6157 98.1816 37.8897 98.3383C32.23 98.3919 25.8608 103.701 25.0976 108.993L25.0935 108.988Z" fill="#919563"/>
<path d="M104.457 89.3877C103.727 89.3382 103.203 89.2144 103.36 88.4266C103.603 87.2139 103.805 85.8899 105.311 85.6383C105.959 85.531 106.243 86.2817 106.186 86.7932C106.049 87.9564 105.74 89.0907 104.457 89.3877Z" fill="#30322C"/>
<path d="M97.0566 84.5123C97.0649 83.2418 97.2505 82.0168 98.0302 80.668C98.1787 82.2395 97.597 83.3697 97.0566 84.5123Z" fill="#191D20"/>
<path d="M71.7619 92.6013C73.0035 94.9607 74.2823 92.857 75.5446 92.6343C75.6973 94.4327 75.2889 96.0867 74.237 97.5675C73.0819 98.6235 71.9392 99.6629 70.1737 98.9081C68.6309 98.2481 68.0699 95.6289 68.0822 93.5583C68.0822 92.9767 68.3504 92.3909 68.4989 91.8094C68.9691 91.7475 69.097 91.9785 69.0021 92.3992C69.196 92.2218 69.0228 92.028 69.0269 91.8424C69.0764 90.2213 69.6374 88.7735 70.644 87.5443C71.4814 86.5214 72.5415 85.9563 73.8574 86.8308C74.4803 88.5879 73.8079 89.9491 72.2651 90.6709C71.0812 91.2278 71.04 91.7269 71.7577 92.6054L71.7619 92.6013Z" fill="#1C1F1F"/>
<path d="M79.1544 84.3887C79.2617 85.9107 78.9028 87.2925 77.9375 88.4969C78.0613 87.045 78.0406 85.5477 79.1544 84.3887Z" fill="#5B5C5E"/>
<path d="M73.8571 86.8267C71.0354 86.3565 70.3053 88.6168 69.3111 91.8795C69.1626 92.3621 69.2451 92.9107 69.2121 93.55C68.5934 93.0097 69.1214 92.1848 68.4902 91.8135C68.548 89.8501 69.1668 88.0724 70.4703 86.6081C71.6625 85.2675 72.834 85.3913 73.8529 86.8308L73.8571 86.8267Z" fill="#3C3E35"/>
<path d="M70.3674 93.9541C71.4647 95.0925 73.0694 94.5522 73.2426 95.8061C73.3458 96.5403 72.2939 97.5798 71.4069 97.2952C70.0663 96.8621 70.7057 95.4968 70.3633 93.9541H70.3674Z" fill="#A2A45B"/>
</g>
<defs>
<clipPath id="clip0_4938_32898">
<rect width="192" height="192" fill="white"/>
</clipPath>
</defs>
</svg>
