<svg width="192" height="192" viewBox="0 0 192 192" fill="none" xmlns="http://www.w3.org/2000/svg">
<g clip-path="url(#clip0_4938_32987)">
<path d="M96 192C149.019 192 192 149.019 192 96C192 42.9807 149.019 0 96 0C42.9807 0 0 42.9807 0 96C0 149.019 42.9807 192 96 192Z" fill="#016450"/>
<path d="M110.517 116.425C110.517 120.415 110.514 124.405 110.517 128.396C110.524 134.171 107.126 138.336 101.43 139.288C97.6039 139.929 93.73 140.049 89.8971 139.274C85.5025 138.387 81.1319 134.38 81.2484 128.471C81.4162 119.994 81.3306 111.513 81.31 103.032C81.31 102.186 81.5498 102.018 82.3547 102.022C91.3974 102.052 100.437 102.052 109.479 102.022C110.318 102.022 110.503 102.237 110.497 103.049C110.455 107.505 110.476 111.965 110.476 116.425H110.514H110.517Z" fill="white"/>
<path d="M72.7005 73.7055C72.7005 79.6894 72.6902 85.6733 72.7142 91.6572C72.7142 92.3251 72.5943 92.5683 71.8613 92.5512C69.5561 92.4998 67.2475 92.5375 64.9423 92.5306C63.0858 92.5238 62.1884 91.6264 62.185 89.7767C62.1781 86.5056 62.161 83.2311 62.2021 79.96C62.2124 79.2441 62.0103 79.0763 61.3184 79.0866C58.6707 79.1277 56.0196 79.1242 53.3718 79.0866C52.7073 79.0763 52.5395 79.2784 52.5464 79.9257C52.5806 83.0735 52.5635 86.2213 52.5635 89.3691C52.5635 91.7463 51.7928 92.5306 49.4534 92.5306C47.2715 92.5306 45.0896 92.5067 42.9077 92.5443C42.2467 92.5546 41.9966 92.4347 42 91.6914C42.024 79.6928 42.024 67.6908 42 55.6921C42 54.9626 42.2158 54.8221 42.894 54.8358C45.1992 54.8804 47.5078 54.8495 49.813 54.853C51.6421 54.8564 52.5532 55.7641 52.5601 57.6274C52.5738 60.8985 52.584 64.173 52.5464 67.4442C52.5395 68.1498 52.7313 68.3347 53.4301 68.321C56.0778 68.2765 58.7289 68.2799 61.3766 68.321C62.0411 68.3313 62.2055 68.1361 62.2021 67.4887C62.1713 64.2176 62.185 60.943 62.1884 57.6719C62.1884 55.7744 63.0995 54.8598 64.98 54.8564C67.2852 54.853 69.5938 54.8804 71.899 54.8393C72.5566 54.8256 72.721 55.0071 72.7176 55.6613C72.6902 61.676 72.7039 67.6908 72.7039 73.7089L72.7005 73.7055Z" fill="white"/>
<path d="M118.43 120.925C118.43 114.942 118.44 108.958 118.416 102.974C118.416 102.261 118.57 102.025 119.334 102.028C124.229 102.063 129.12 102.028 134.015 102.045C142.242 102.073 149.23 108.365 149.932 116.353C150.692 125.008 145.119 132.458 136.762 133.934C134.443 134.342 132.097 134.14 129.764 134.143C129.096 134.143 128.901 134.332 128.956 134.979C129.01 135.63 128.969 136.288 128.966 136.942C128.956 138.815 128.031 139.733 126.133 139.74C123.859 139.747 121.581 139.713 119.307 139.757C118.608 139.771 118.409 139.586 118.416 138.881C118.45 135.233 118.433 131.588 118.433 127.94C118.433 125.604 118.433 123.265 118.433 120.929L118.43 120.925ZM128.962 117.908C128.962 120.055 128.976 122.206 128.952 124.354C128.945 124.864 129.069 125.067 129.617 125.043C130.61 125.001 131.61 125.043 132.607 125.025C136.289 124.957 139.327 121.998 139.471 118.35C139.625 114.465 136.885 111.253 133.093 110.941C131.98 110.848 130.853 110.927 129.733 110.876C129.134 110.848 128.935 111.016 128.945 111.646C128.986 113.732 128.962 115.818 128.962 117.904V117.908Z" fill="white"/>
<path d="M65.4543 139.74C63.1457 139.651 60.3953 139.939 57.6722 139.469C49.2803 138.017 42.9882 131.283 42.1387 122.843C41.1694 113.229 47.3622 104.611 56.7679 102.48C58.0181 102.196 59.2889 102.055 60.5665 102.052C64.3377 102.038 68.1089 102.062 71.8767 102.031C72.5206 102.025 72.7261 102.189 72.7159 102.854C72.6782 105.316 72.709 107.776 72.6987 110.238C72.6919 111.896 71.7431 112.852 70.0955 112.859C66.9786 112.869 63.8616 112.855 60.7481 112.862C56.1103 112.876 52.5583 116.366 52.5617 120.898C52.5652 125.433 56.1206 128.916 60.7583 128.926C63.8136 128.933 66.8655 128.926 69.9209 128.926C71.7842 128.926 72.6953 129.82 72.7022 131.65C72.709 134.051 72.6679 136.448 72.7227 138.846C72.7398 139.623 72.4761 139.767 71.7739 139.75C69.8113 139.706 67.8486 139.733 65.4578 139.733L65.4543 139.74Z" fill="white"/>
<path d="M134.18 54.8522C139.136 54.8522 144.089 54.8659 149.045 54.8351C149.727 54.8316 149.95 54.9721 149.936 55.6948C149.884 58.1233 149.926 60.5552 149.915 62.9871C149.908 64.6861 148.946 65.652 147.244 65.6622C144.938 65.6759 142.63 65.7033 140.325 65.6451C139.557 65.6246 139.424 65.8815 139.427 66.5802C139.451 74.9001 139.427 83.22 139.465 91.5399C139.468 92.3963 139.218 92.5607 138.424 92.547C135.557 92.499 132.69 92.5024 129.823 92.547C129.093 92.5572 128.891 92.3654 128.895 91.6256C128.922 83.3057 128.898 74.9858 128.932 66.6658C128.932 65.8369 128.727 65.6211 127.905 65.6451C125.661 65.7068 123.418 65.6725 121.174 65.6622C119.39 65.6554 118.454 64.7409 118.441 62.9666C118.424 60.5347 118.472 58.1062 118.417 55.6742C118.4 54.9207 118.674 54.8316 119.321 54.8351C124.277 54.859 129.23 54.8488 134.187 54.8488L134.18 54.8522Z" fill="white"/>
<path d="M99.0501 92.2354C93.0868 93.2596 88.1989 91.4579 84.2907 87.125C79.879 82.2371 78.3137 76.356 78.9508 69.8994C79.5194 64.1553 81.8588 59.2435 86.4212 55.5511C88.7984 53.6261 91.5248 52.4992 94.5939 52.1978C95.2652 52.1327 95.5324 52.345 95.6831 52.9719C96.2791 55.4586 95.9982 57.9213 95.5975 60.3909C95.0494 63.7511 93.7855 66.9229 92.984 70.2145C91.8263 74.9619 91.655 79.7025 93.3231 84.3848C94.3678 87.3133 95.4022 88.7074 99.0535 92.2286L99.0501 92.2354Z" fill="white"/>
<path d="M97.1231 52.1943C100.466 52.53 103.23 53.7254 105.635 55.7258C109.81 59.2058 112.071 63.758 112.787 69.0739C113.623 75.2668 112.317 80.9732 108.505 86.0049C106.522 88.6184 103.984 90.5262 100.898 91.6908C100.333 91.9032 100.038 91.8107 99.7023 91.2901C97.2259 87.4675 96.5477 83.227 96.7155 78.7776C96.8902 74.1981 98.0548 69.8001 99.1132 65.3781C99.8154 62.4392 100.004 59.4696 99.2639 56.493C98.8837 54.9654 98.2158 53.5816 97.1231 52.1978V52.1943Z" fill="white"/>
</g>
<defs>
<clipPath id="clip0_4938_32987">
<rect width="192" height="192" fill="white"/>
</clipPath>
</defs>
</svg>
