<svg width="192" height="192" viewBox="0 0 192 192" fill="none" xmlns="http://www.w3.org/2000/svg">
<g clip-path="url(#clip0_4938_32997)">
<path d="M96 192C149.019 192 192 149.019 192 96C192 42.9807 149.019 0 96 0C42.9807 0 0 42.9807 0 96C0 149.019 42.9807 192 96 192Z" fill="#016450"/>
<g clip-path="url(#clip1_4938_32997)">
<path d="M95.5808 123.16C90.8324 123.154 86.2881 121.248 82.9308 117.871C79.5736 114.488 77.6878 109.903 77.6816 105.124V103.548H86.5354V105.124C86.5354 107.541 87.4876 109.865 89.1878 111.572C90.8881 113.286 93.1881 114.245 95.587 114.245C97.9859 114.245 100.292 113.286 101.986 111.572C103.686 109.859 104.639 107.541 104.639 105.124V77.6991H95.587V68.8398H113.486V105.118C113.48 109.903 111.588 114.482 108.237 117.865C104.88 121.248 100.329 123.148 95.587 123.154L95.5808 123.16Z" fill="white"/>
<path d="M95.5806 144C85.3543 143.975 75.5546 139.876 68.3207 132.586C61.093 125.297 57.0247 115.422 57 105.118V103.548H65.8538V105.118C65.8538 113.061 68.9884 120.687 74.5591 126.3C80.1298 131.914 87.6976 135.072 95.5806 135.072C103.464 135.072 111.031 131.914 116.602 126.3C122.173 120.687 125.308 113.061 125.308 105.118V56.9215H95.5806V48H134.161V105.118C134.137 115.422 130.068 125.297 122.834 132.586C115.607 139.869 105.801 143.975 95.5745 144H95.5806Z" fill="white"/>
</g>
</g>
<defs>
<clipPath id="clip0_4938_32997">
<rect width="192" height="192" fill="white"/>
</clipPath>
<clipPath id="clip1_4938_32997">
<rect width="77.1675" height="96" fill="white" transform="translate(57 48)"/>
</clipPath>
</defs>
</svg>
