<svg width="192" height="192" viewBox="0 0 192 192" fill="none" xmlns="http://www.w3.org/2000/svg">
<g clip-path="url(#clip0_4938_33003)">
<path d="M96 192C149.019 192 192 149.019 192 96C192 42.9807 149.019 0 96 0C42.9807 0 0 42.9807 0 96C0 149.019 42.9807 192 96 192Z" fill="white"/>
<path d="M163.475 128.428C162.705 128.298 162.196 127.868 162.226 127.079C162.246 126.29 162.775 125.79 163.535 125.8C164.394 125.8 164.953 126.359 164.874 127.249C164.804 128.018 164.264 128.418 163.475 128.438V128.428Z" fill="#5B5C5D"/>
<path d="M164.804 95.8264C164.784 96.7056 164.395 97.2152 163.605 97.2551C162.846 97.2951 162.287 96.9054 162.227 96.1061C162.147 95.2069 162.686 94.6974 163.525 94.6574C164.305 94.6175 164.724 95.137 164.804 95.8164V95.8264Z" fill="#525355"/>
<path d="M166.963 110.373C167.663 110.403 168.212 110.693 168.252 111.522C168.292 112.401 167.832 112.921 166.953 112.931C166.154 112.931 165.744 112.441 165.714 111.662C165.684 110.863 166.114 110.433 166.963 110.373Z" fill="#4F5052"/>
<path d="M168.302 142.785C168.192 143.615 167.732 144.024 166.963 144.014C166.174 143.994 165.744 143.555 165.754 142.745C165.764 141.836 166.294 141.406 167.163 141.466C167.972 141.516 168.272 142.086 168.312 142.795L168.302 142.785Z" fill="#525355"/>
<path d="M59.7868 136.211C58.5679 136.211 57.359 136.221 56.15 136.211C55.2408 136.201 54.5215 135.891 54.5215 134.842C54.5215 133.703 55.2508 133.373 56.2699 133.383C58.6278 133.393 60.9957 133.393 63.3537 133.383C64.3128 133.383 64.9822 133.803 65.0122 134.752C65.0522 135.711 64.3827 136.191 63.4436 136.211C62.2346 136.231 61.0157 136.211 59.8068 136.211H59.7868Z" fill="#0B0D0E"/>
<path d="M86.6735 114.58C86.9333 114.7 87.263 114.79 87.5327 114.98C89.551 116.349 91.5592 117.737 93.5474 119.136C94.3467 119.696 94.8263 120.435 94.1269 121.354C93.4975 122.193 92.6682 121.964 91.9488 121.484C89.9206 120.125 87.9324 118.726 85.9342 117.328C85.3347 116.908 84.965 116.368 85.2048 115.599C85.4146 114.94 85.9342 114.67 86.6635 114.58H86.6735Z" fill="#0A0C0D"/>
<path d="M89.7716 139.149C89.1622 139.159 88.7225 138.869 88.4928 138.329C88.223 137.7 88.3729 137.09 88.9024 136.691C90.8407 135.232 92.7889 133.803 94.7672 132.405C95.3866 131.965 96.076 132.115 96.5956 132.674C97.0652 133.184 97.1451 133.923 96.6655 134.323C94.6073 136.051 92.5292 137.75 90.1513 139.039C90.0414 139.099 89.8915 139.099 89.7616 139.129L89.7716 139.149Z" fill="#0A0C0D"/>
<path d="M126.708 116.219C126.668 116.409 126.688 116.578 126.618 116.668C124.839 118.786 122.951 120.785 120.593 122.273C120.174 122.543 119.674 122.323 119.314 121.954C118.885 121.514 118.695 120.905 119.055 120.485C120.793 118.427 122.641 116.429 124.939 115.01C125.819 114.46 126.578 115.21 126.708 116.229V116.219Z" fill="#0A0C0D"/>
<path d="M81.3976 117.617C81.3377 118.436 80.8981 118.866 80.2386 118.906C79.5592 118.946 79.0597 118.516 79.0397 117.797C79.0197 117.077 79.4693 116.648 80.1587 116.608C80.8781 116.568 81.2278 117.057 81.3976 117.617Z" fill="#313233"/>
<path d="M117.916 100.473C117.797 101.213 117.427 101.672 116.688 101.572C115.978 101.482 115.609 101.003 115.688 100.293C115.758 99.6639 116.208 99.3242 116.807 99.3342C117.527 99.3442 117.897 99.7938 117.916 100.473Z" fill="#212324"/>
<path d="M112.85 121.274C112.86 122.114 112.47 122.533 111.781 122.573C111.091 122.613 110.652 122.203 110.632 121.494C110.612 120.795 110.971 120.335 111.681 120.305C112.39 120.275 112.75 120.715 112.85 121.274Z" fill="#202223"/>
<path d="M74.0437 138.099C73.7939 138.899 73.3443 139.238 72.635 139.098C71.9156 138.959 71.5959 138.449 71.7757 137.75C71.9256 137.16 72.3852 136.85 73.0046 136.93C73.744 137.02 73.9938 137.54 74.0437 138.089V138.099Z" fill="#212324"/>
<path fill-rule="evenodd" clip-rule="evenodd" d="M120.009 73.2513C118.475 63.0459 124.225 56.4414 130.254 54.0257C132.782 53.0166 133.242 53.2164 134.021 55.8241C134.17 56.3195 134.322 56.8144 134.474 57.3096L134.474 57.3118C135.058 59.2127 135.643 61.1163 136.039 63.0577C136.349 64.5963 136.709 64.6163 137.907 63.827C143.502 60.1103 149.697 58.7914 156.351 59.5408C160.188 59.9704 163.725 61.2892 167.042 63.2475C168.121 63.8769 168.78 64.6363 167.961 65.8652C167.105 67.1439 166.288 68.4509 165.471 69.7581L165.471 69.7582L165.471 69.7586L165.471 69.7591C163.626 72.7106 161.78 75.6631 159.488 78.2942C152.175 86.6867 140.775 89.6441 130.194 86.0972C129.685 85.9274 129.175 85.7675 128.086 85.4278C128.711 86.098 129.328 86.7085 129.917 87.2917C131.145 88.5082 132.255 89.6066 133.072 90.883C134.92 93.7605 137.288 94.4598 140.555 94.31C144.599 94.1207 148.653 94.1626 152.706 94.2044H152.707C154.431 94.2222 156.156 94.24 157.88 94.24C157.933 94.24 157.987 94.2398 158.041 94.2395C158.879 94.2356 159.725 94.2316 160.148 95.1892C160.707 96.4581 159.828 97.3673 157.96 97.3772C153.883 97.3906 149.807 97.3861 145.731 97.3817C143.692 97.3795 141.654 97.3772 139.616 97.3772H138.137C138.465 98.0333 138.789 98.67 139.107 99.2954C139.758 100.575 140.384 101.807 140.975 103.062C141.079 103.286 141.186 103.51 141.293 103.734C141.804 104.804 142.322 105.887 142.553 107.019C143.023 109.377 144.212 110.076 146.61 109.966C150.117 109.801 153.635 109.839 157.152 109.876C158.324 109.889 159.496 109.901 160.667 109.906C160.805 109.906 160.948 109.902 161.093 109.899L161.093 109.899C162.193 109.869 163.398 109.838 163.425 111.445C163.452 113.102 162.174 113.088 161.02 113.075C160.921 113.074 160.823 113.073 160.727 113.073C160.083 113.076 159.44 113.079 158.796 113.082C154.614 113.102 150.433 113.121 146.26 113.043C144.791 113.013 144.332 113.413 144.671 114.862C145.351 117.779 145.581 120.767 145.531 123.744C145.501 125.263 146.1 125.522 147.439 125.492C149.836 125.439 152.238 125.448 154.638 125.457H154.638H154.639H154.639H154.639H154.639H154.64H154.64H154.64H154.64H154.641H154.641H154.642H154.642H154.643H154.644H154.644H154.645H154.646H154.646H154.647C155.845 125.461 157.043 125.466 158.239 125.462C159.398 125.462 160.567 125.552 160.517 127.071C160.477 128.43 159.388 128.57 158.299 128.57C157.212 128.57 156.124 128.573 155.036 128.576C152.318 128.584 149.601 128.592 146.889 128.55C145.8 128.53 145.341 128.829 145.231 129.968C144.921 133.285 144.222 136.533 143.143 139.68C142.663 141.079 143.203 141.278 144.432 141.268C149.797 141.228 155.162 141.238 160.537 141.268C160.699 141.268 160.87 141.259 161.044 141.249C161.972 141.196 162.988 141.138 163.055 142.517C163.129 144.105 161.92 144.091 160.84 144.078C160.744 144.077 160.65 144.076 160.557 144.076C151.78 144.083 143.003 144.08 134.222 144.078H134.22H134.218H134.216H134.213H134.211H134.209H134.207H134.204H134.202H134.2L134.113 144.078C129.747 144.077 125.38 144.076 121.012 144.076H27.2555C24.9442 144.076 23.7886 142.9 23.7886 140.549C23.7979 135.876 23.7645 131.201 23.731 126.525C23.6573 116.216 23.5835 105.905 23.9684 95.6088C24.8976 70.8108 45.7991 49.7195 70.5571 48.0709C91.6085 46.6722 107.884 54.9349 119.404 72.5592C119.472 72.6583 119.555 72.7498 119.697 72.905C119.779 72.9946 119.88 73.1054 120.009 73.2513ZM36.4597 139.928C35.9884 140.201 35.4863 140.492 35.1797 141.259H35.1997C65.5628 141.259 95.726 141.259 125.879 141.288C127.068 141.288 127.538 140.729 127.977 139.8C130.425 134.614 131.664 129.129 131.434 123.444C130.875 109.826 124.59 99.4756 113.021 92.2619C111.692 91.4427 110.753 91.4427 109.404 92.3219C91.2623 104.199 73.1039 116.042 54.9455 127.886C48.8929 131.833 42.8403 135.781 36.7883 139.73C36.6825 139.799 36.572 139.863 36.4597 139.928ZM76.9558 94.5661L76.9552 94.5651L76.9551 94.565C75.6762 92.3218 74.3915 90.0684 73.0354 87.8558C72.8949 87.628 72.7624 87.3753 72.6272 87.1176L72.6272 87.1176L72.6272 87.1175L72.6271 87.1175L72.6271 87.1175L72.6271 87.1174L72.6271 87.1174L72.6271 87.1173L72.627 87.1173L72.627 87.1172C72.0509 86.0187 71.427 84.8293 69.9381 85.0883C68.4392 85.3462 68.2663 86.6506 68.1034 87.8796C68.0644 88.1742 68.0259 88.4645 67.9699 88.735C67.2605 92.2419 66.1015 95.4591 63.6337 98.1967C61.086 101.024 60.9761 104.441 61.9252 107.958C62.0361 108.382 62.1811 108.793 62.3491 109.27L62.3492 109.27L62.3494 109.271C62.4386 109.524 62.5342 109.795 62.6346 110.096H51.7243H41.5433C41.4466 110.096 41.3469 110.1 41.2469 110.105L41.2466 110.105C40.6131 110.132 39.9661 110.16 39.9747 109.107C39.9821 108.151 39.9803 107.196 39.9786 106.24V106.24C39.9684 100.712 39.9583 95.1935 41.7132 89.7841C46.449 75.187 59.5373 65.3058 74.9537 64.8662C89.9204 64.4466 103.818 73.7383 109.283 87.7659C109.703 88.8349 109.483 89.3045 108.584 89.884C102.689 93.6407 96.8043 97.4073 90.9795 101.254C89.7606 102.053 89.4908 101.624 89.0412 100.535C87.9522 97.8969 86.6234 95.3692 84.755 93.1911C82.8467 90.9731 81.7077 91.1329 80.4488 93.7406C79.89 94.8981 79.3213 96.0457 78.7525 97.1932L78.7523 97.1936L78.7521 97.1941L78.7519 97.1945L78.7516 97.1949L78.7514 97.1954L78.7512 97.1958L78.751 97.1962L78.7508 97.1967L78.7505 97.1971L78.7503 97.1975C78.7374 97.217 78.6908 97.2238 78.6189 97.2344C78.5798 97.2401 78.5333 97.2469 78.4806 97.2575L78.4906 97.2475C77.9785 96.36 77.4698 95.4676 76.9601 94.5736L76.9595 94.5726L76.959 94.5717L76.9585 94.5708L76.9579 94.5698L76.9574 94.5689L76.9568 94.568L76.9563 94.567L76.9558 94.5661ZM140.546 139.638C142.075 134.692 143.054 129.677 143.024 127.019C142.964 108.086 135.631 95.2873 123.412 84.8865C122.642 84.2371 122.103 84.2271 121.303 84.7666C120.124 85.5692 118.922 86.3336 117.721 87.0976C116.978 87.57 116.235 88.0423 115.499 88.5233L115.483 88.5334C114.564 89.1347 114.105 89.4354 114.104 89.7376C114.102 90.0399 114.56 90.3437 115.474 90.9514L115.549 91.0011C127.278 98.8042 133.503 109.705 133.922 123.792C134.092 129.337 133.023 134.702 130.755 139.788C130.206 141.027 130.355 141.446 131.794 141.386C133.892 141.297 136 141.267 138.099 141.396C139.527 141.486 140.137 140.957 140.546 139.638ZM128.707 82.5287C128.859 82.423 129.009 82.3174 129.159 82.2124C131.84 80.3321 134.247 78.6441 137.729 80.1108C139.345 80.7919 141.092 81.1525 142.837 81.5126L142.838 81.5127C143.499 81.6491 144.159 81.7855 144.813 81.9392C145.752 82.159 146.821 82.3388 147.101 81.02C147.361 79.7711 146.451 79.4114 145.442 79.1716C143.252 78.645 141.063 78.0927 138.896 77.5463L138.896 77.5462L138.368 77.4132C138.241 76.9476 138.522 76.8073 138.792 76.6723L138.792 76.6721C138.818 76.6594 138.843 76.6468 138.868 76.6339C145.083 73.4267 151.337 70.3095 158.311 69.0306C159.29 68.8508 160.109 68.5111 159.969 67.4121C159.809 66.1731 158.81 66.0732 157.781 66.2431C154.754 66.7626 151.847 67.6818 148.999 68.8008L148.991 68.804C147.875 69.2426 146.758 69.6812 145.582 70.1396C145.452 69.3639 145.68 68.7296 145.9 68.117C146 67.838 146.099 67.5635 146.162 67.2822C146.361 66.373 146.221 65.6037 145.232 65.3439C144.273 65.0841 143.524 65.5937 143.454 66.5228C143.104 71.3985 139.707 73.4667 135.751 75.0753C135.256 75.2756 134.785 75.5347 134.181 75.8674C133.82 76.0657 133.412 76.2902 132.923 76.544C134.572 73.9562 135.611 71.7282 136.1 69.2804C136.202 68.7706 136.588 68.4701 136.971 68.1712C137.076 68.0893 137.181 68.0075 137.279 67.9216C144.303 61.857 155.144 60.5282 163.466 64.6345C164.685 65.234 164.885 65.7036 164.086 66.8326C163.043 68.3093 162.051 69.8246 161.058 71.3401C160.453 72.2649 159.847 73.1898 159.23 74.1061C152.566 83.9974 139.957 87.5642 128.707 82.5386V82.5287ZM42.2588 112.971C41.2112 112.967 40.1635 112.962 39.1158 112.962L39.1258 112.972C38.0782 112.972 37.0305 112.977 35.9829 112.981C33.3638 112.994 30.7447 113.006 28.1255 112.942C26.8467 112.912 26.507 113.321 26.5369 114.55C26.6169 117.668 26.6069 120.785 26.5369 123.902C26.507 125.121 26.8766 125.541 28.1455 125.541C35.479 125.481 42.8125 125.471 50.146 125.541C51.4848 125.551 51.7146 125.051 51.6847 123.882C51.6147 120.765 51.5947 117.648 51.6847 114.53C51.7146 113.301 51.4049 112.902 50.116 112.932C47.497 112.996 44.8779 112.984 42.2588 112.971ZM76.4416 55.2278C76.4373 55.6639 76.433 56.1 76.433 56.5361C76.433 56.9514 76.4373 57.3675 76.4416 57.784V57.7841V57.7842V57.7843V57.7844V57.7845V57.7845V57.7846V57.7847C76.452 58.7893 76.4624 59.7959 76.413 60.7975C76.3531 61.8366 76.6828 62.1463 77.7618 62.2062C83.8065 62.5459 89.5314 64.1145 94.7867 67.1518C95.8158 67.7513 96.2854 67.5015 96.8949 66.6323C98.4035 64.4642 99.9422 62.3061 101.591 60.248C102.46 59.1689 102.1 58.7093 101.101 58.0999C93.9475 53.7537 86.2343 51.2759 77.8617 50.7963C76.8027 50.7364 76.3631 50.9662 76.413 52.0752C76.4624 53.1261 76.452 54.1769 76.4416 55.2278ZM73.5249 56.5716C73.5249 57.1108 73.5822 57.6838 73.6395 58.2566C73.769 59.552 73.8985 60.8464 73.3651 61.747C72.8129 62.6783 71.5699 62.6928 70.3023 62.7076C69.6661 62.715 69.0237 62.7225 68.4594 62.846C64.0433 63.8052 59.8171 65.2239 56.0004 67.6318C54.7715 68.4111 54.202 68.1713 53.4527 67.0523C51.944 64.8043 50.3455 62.6063 48.6969 60.4582C47.9776 59.519 47.8577 58.9995 49.0166 58.2701C56.1203 53.824 63.8335 51.3362 72.1961 50.8067C73.2851 50.7368 73.6748 51.0065 73.6248 52.0956C73.582 53.1589 73.5902 54.2222 73.5983 55.2855C73.6016 55.7109 73.6048 56.1362 73.6048 56.5616H73.5249V56.5716ZM52.0642 70.0497C51.9879 70.1314 51.9138 70.214 51.8403 70.2958C51.6444 70.5139 51.4529 70.7273 51.2349 70.9089C46.5791 74.7855 42.9823 79.4713 40.5544 85.0164C40.1847 85.8656 39.7851 86.1054 38.8759 85.7757C36.1983 84.8366 33.4907 83.9473 30.7731 83.1281C29.6041 82.7784 29.5342 82.2588 29.9738 81.2098C33.131 73.5565 37.8768 67.0923 44.2012 61.747C45.1703 60.9277 45.6699 60.9877 46.3892 62.0468C47.475 63.6516 48.6262 65.219 49.7757 66.7843C50.308 67.509 50.8399 68.2333 51.3648 68.9606C51.5037 69.1516 51.6292 69.3494 51.7627 69.5596L51.7627 69.5597C51.8596 69.7123 51.9607 69.8716 52.0742 70.0397L52.0642 70.0497ZM120.604 81.6095C120.684 82.2062 120.304 82.4298 119.945 82.6411C119.901 82.6669 119.857 82.6924 119.815 82.7185C119.023 83.2319 118.227 83.74 117.43 84.2481L117.429 84.2488C116.056 85.1247 114.684 86.0007 113.331 86.9048C112.501 87.4643 112.082 87.3943 111.702 86.4252C109.124 79.8311 104.948 74.4258 99.343 70.1296C98.5737 69.5402 98.5438 69.1006 99.1332 68.3312C100.685 66.3117 102.177 64.2416 103.672 62.1674L103.672 62.167L104.069 61.6172C104.518 60.9877 104.878 60.658 105.657 61.2875C112.292 66.6228 117.237 73.2069 120.444 81.0799C120.5 81.2123 120.536 81.3495 120.567 81.4645L120.567 81.4648C120.58 81.5146 120.592 81.5602 120.604 81.5995V81.6095ZM26.5578 105.167C26.5774 110.214 26.5774 110.214 31.7529 110.214L31.7629 110.204C32.0981 110.204 32.4342 110.193 32.7702 110.181L32.7705 110.181H32.7706C33.5259 110.156 34.2802 110.13 35.02 110.234C36.9084 110.504 37.2381 109.684 37.2081 107.976C37.2028 107.65 37.1971 107.325 37.1914 106.999C37.0907 101.227 36.9898 95.4407 38.7867 89.842C39.124 88.7739 38.5651 88.602 37.8927 88.3952L37.8286 88.3755L37.7576 88.3533C36.9958 88.1056 36.2312 87.8694 35.4673 87.6334L35.4671 87.6334C33.7662 87.1079 32.0688 86.5835 30.4141 85.9355C28.8055 85.316 28.3659 85.8456 27.9763 87.3342C26.5092 92.9165 26.5318 98.5897 26.5544 104.276C26.5555 104.553 26.5566 104.831 26.5575 105.108L26.5578 105.167ZM86.8729 102.693C85.8738 100.175 84.7048 97.7669 82.8665 95.459H82.8465C82.5486 96.0458 82.2633 96.6136 81.985 97.1676C81.3394 98.4527 80.7313 99.6633 80.0889 100.864C79.6993 101.594 79.1797 102.273 78.2106 102.183C77.3414 102.103 77.0217 101.414 76.7319 100.694C75.7068 98.1126 74.3391 95.7022 72.9713 93.2918L72.7554 92.9112C72.6512 92.7252 72.5505 92.5349 72.4485 92.3422L72.4483 92.3419C72.0025 91.4999 71.5316 90.6107 70.6373 89.814C70.1677 91.9621 69.6482 93.7705 68.8689 95.4989C68.1412 97.1052 67.0508 98.4593 65.955 99.8202L65.9549 99.8202L65.9549 99.8203L65.9549 99.8203L65.9549 99.8203L65.9542 99.8211L65.9536 99.8219L65.953 99.8227C65.8158 99.9931 65.6785 100.164 65.5418 100.335C63.6835 102.663 63.8533 107.219 65.6617 109.526C66.1099 110.099 66.64 110.097 67.2085 110.096L67.2903 110.096H76.2623C76.8718 110.096 77.4513 110.046 78.0008 109.676C79.964 108.377 81.9376 107.094 83.9103 105.811L83.9109 105.81L83.9115 105.81L83.9121 105.81L83.9126 105.809C84.67 105.317 85.4271 104.824 86.1835 104.331C86.793 103.931 87.2126 103.562 86.8729 102.693ZM26.5561 134.363C26.6283 133.772 26.5421 133.065 26.4536 132.339C26.2848 130.955 26.1077 129.503 27.0057 128.658C27.8687 127.843 29.42 128.018 30.9675 128.192C31.6416 128.268 32.315 128.344 32.9305 128.338C36.9274 128.3 36.9298 128.334 37.1888 131.913C37.2036 132.118 37.2193 132.335 37.2367 132.564C37.4665 135.632 36.5073 137.54 33.7598 138.779C33.1219 139.068 32.5427 139.478 31.9625 139.889C30.7976 140.715 29.6289 141.543 27.9749 141.396C26.9558 141.307 26.5062 141.067 26.5362 139.998C26.5784 138.76 26.571 137.517 26.563 136.153C26.5596 135.581 26.5561 134.986 26.5561 134.363ZM54.5153 121.774C54.5136 122.881 54.512 124.01 54.5119 125.171C58.9645 122.262 63.25 119.454 67.491 116.675L67.4941 116.673C69.2092 115.549 70.9172 114.43 72.6259 113.311C67.3923 112.986 62.3058 112.971 57.226 112.957C56.691 112.955 56.156 112.954 55.621 112.952C54.9016 112.952 54.502 113.092 54.502 113.941C54.5232 116.511 54.5193 119.076 54.5153 121.774ZM128.167 70.6188L128.169 70.5998L129.046 69.8395C129.796 69.1801 130.615 68.5606 131.514 69.5098C132.423 70.4689 131.744 71.2283 130.995 71.9076C130.683 72.1901 130.372 72.4732 130.062 72.7561L130.06 72.7574C129.219 73.5249 128.379 74.2906 127.518 75.0349C126.529 75.8841 126.149 76.8932 126.399 78.3419C130.026 76.2338 132.104 73.2265 133.153 69.3999C134.14 65.794 133.091 62.4759 132.041 59.1539C131.869 58.6099 131.697 58.0659 131.534 57.5204C131.301 56.7274 130.806 56.9798 130.351 57.2119C130.319 57.2284 130.287 57.2447 130.255 57.2606C122.762 60.9873 120.964 70.0493 123.801 75.0049C123.919 74.3807 124.075 73.767 124.23 73.1594L124.23 73.1594C124.784 70.9859 125.318 68.8921 123.991 66.6823C123.441 65.7631 123.791 64.4443 125 64.6541C126.383 64.8981 126.62 64.215 126.881 63.4621L126.881 63.4619C126.941 63.29 127.002 63.1145 127.078 62.9456L127.078 62.9455L127.078 62.9454C127.548 61.8964 128.017 60.8474 128.537 59.8184C129.026 58.8592 129.666 57.94 130.895 58.6494C132.044 59.2988 131.544 60.238 131.055 61.1072C129.419 64.0192 128.52 67.1801 128.169 70.5998L128.147 70.6188H128.167ZM40.0697 134.191C40.1043 134.278 40.1489 134.39 40.2045 134.542C43.2518 132.544 46.1592 130.636 49.0567 128.728L48.9068 128.318H45.31C41.5933 128.318 39.8149 130.176 39.9747 133.893C39.981 133.968 40.011 134.044 40.0697 134.191Z" fill="#47484A"/>
<path fill-rule="evenodd" clip-rule="evenodd" d="M92.9688 110.025C92.9688 115.32 97.4148 119.746 102.7 119.696V119.706C108.025 119.656 112.402 115.23 112.352 109.935C112.302 104.709 107.935 100.383 102.7 100.373C97.3349 100.353 92.9688 104.689 92.9688 110.025ZM95.7951 109.985C95.7652 113.681 98.9523 116.888 102.649 116.888V116.878C106.316 116.878 109.553 113.621 109.513 109.965C109.483 106.338 106.376 103.241 102.739 103.201C98.9923 103.161 95.8251 106.258 95.7951 109.985Z" fill="#C62228"/>
<path fill-rule="evenodd" clip-rule="evenodd" d="M113.76 140.207C117.766 140.167 120.944 136.97 120.944 132.954C120.944 128.887 117.637 125.59 113.59 125.64C109.624 125.69 106.417 128.937 106.397 132.924C106.377 137 109.654 140.247 113.76 140.207ZM109.213 132.884C109.193 135.351 111.251 137.39 113.739 137.37H113.749C116.117 137.35 118.125 135.351 118.145 132.974C118.155 130.546 116.037 128.418 113.619 128.458C111.271 128.498 109.223 130.546 109.213 132.884Z" fill="#C62328"/>
<path fill-rule="evenodd" clip-rule="evenodd" d="M77.4715 134.863C81.0883 134.873 83.9258 132.035 83.8958 128.418V128.408C83.8659 124.872 81.1083 122.124 77.5515 122.094C73.9147 122.064 71.0972 124.892 71.1371 128.538C71.1771 132.085 73.9447 134.863 77.4715 134.863ZM81.0493 128.668C81.1492 126.69 79.5606 124.951 77.6023 124.901V124.911C75.704 124.861 74.0555 126.39 73.9655 128.288C73.8656 130.307 75.4043 131.985 77.4125 132.035C79.3108 132.085 80.9493 130.566 81.0493 128.668Z" fill="#C62329"/>
</g>
<defs>
<clipPath id="clip0_4938_33003">
<rect width="192" height="192" fill="white"/>
</clipPath>
</defs>
</svg>
