<svg width="192" height="192" viewBox="0 0 192 192" fill="none" xmlns="http://www.w3.org/2000/svg">
<g clip-path="url(#clip0_4938_33048)">
<path d="M96 192C149.019 192 192 149.019 192 96C192 42.9807 149.019 0 96 0C42.9807 0 0 42.9807 0 96C0 149.019 42.9807 192 96 192Z" fill="white"/>
<path d="M67.0376 88.725C66.9472 87.879 66.5661 87.2203 65.8945 86.7489C65.2293 86.2774 64.364 86.0417 63.2984 86.0417C62.5492 86.0417 61.9067 86.1547 61.3707 86.3808C60.8346 86.6068 60.4246 86.9136 60.1404 87.301C59.8563 87.6885 59.7109 88.1309 59.7045 88.6282C59.7045 89.0415 59.7981 89.3999 59.9854 89.7034C60.1792 90.007 60.4407 90.2653 60.7701 90.4784C61.0994 90.685 61.4643 90.8594 61.8647 91.0015C62.2651 91.1436 62.6687 91.263 63.0756 91.3599L64.9355 91.8249C65.6846 91.9993 66.4047 92.235 67.0957 92.532C67.7932 92.8291 68.4164 93.2037 68.9653 93.6557C69.5207 94.1078 69.9598 94.6535 70.2827 95.2928C70.6056 95.9322 70.7671 96.6813 70.7671 97.5402C70.7671 98.7027 70.47 99.7263 69.8759 100.611C69.2817 101.489 68.4228 102.177 67.2991 102.674C66.1819 103.165 64.8289 103.411 63.2403 103.411C61.6968 103.411 60.3567 103.172 59.2201 102.694C58.09 102.216 57.2052 101.518 56.5659 100.601C55.933 99.6843 55.5907 98.5671 55.5391 97.2496H59.0748C59.1265 97.9406 59.3396 98.5154 59.7142 98.9739C60.0887 99.4324 60.5763 99.7747 61.1769 100.001C61.784 100.227 62.4621 100.34 63.2112 100.34C63.9926 100.34 64.6772 100.224 65.2648 99.9911C65.859 99.7521 66.324 99.4228 66.6598 99.003C66.9956 98.5767 67.1667 98.0795 67.1732 97.5112C67.1667 96.9945 67.015 96.5683 66.7179 96.2325C66.4208 95.8902 66.0043 95.6061 65.4683 95.38C64.9387 95.1475 64.3187 94.9409 63.6084 94.7601L61.3513 94.1788C59.7174 93.7591 58.4258 93.123 57.4765 92.2705C56.5336 91.4116 56.0622 90.2717 56.0622 88.851C56.0622 87.6821 56.3786 86.6585 57.0115 85.7802C57.6508 84.9019 58.5194 84.2206 59.6173 83.7362C60.7152 83.2454 61.9583 83 63.3468 83C64.7547 83 65.9881 83.2454 67.0473 83.7362C68.1128 84.2206 68.9491 84.8954 69.5562 85.7608C70.1633 86.6197 70.4765 87.6078 70.4958 88.725H67.0376Z" fill="black"/>
<path d="M78.0977 103.411C77.1549 103.411 76.3056 103.243 75.5501 102.907C74.8009 102.565 74.2068 102.061 73.7676 101.396C73.3349 100.73 73.1186 99.9103 73.1186 98.9352C73.1186 98.0956 73.2736 97.4014 73.5836 96.8525C73.8936 96.3035 74.3166 95.8644 74.8526 95.535C75.3886 95.2057 75.9924 94.957 76.6641 94.7891C77.3422 94.6148 78.0429 94.4888 78.7661 94.4113C79.638 94.3209 80.3451 94.2402 80.8876 94.1691C81.4301 94.0917 81.824 93.9754 82.0694 93.8204C82.3213 93.659 82.4472 93.4103 82.4472 93.0745V93.0164C82.4472 92.2866 82.2309 91.7216 81.7982 91.3212C81.3655 90.9208 80.7423 90.7206 79.9286 90.7206C79.0697 90.7206 78.3884 90.9078 77.8846 91.2824C77.3874 91.657 77.0515 92.0994 76.8772 92.6095L73.603 92.1446C73.8613 91.2404 74.2875 90.4848 74.8816 89.8778C75.4758 89.2643 76.2023 88.8058 77.0612 88.5022C77.9201 88.1923 78.8695 88.0373 79.9092 88.0373C80.6261 88.0373 81.3397 88.1212 82.0501 88.2891C82.7604 88.457 83.4095 88.7347 83.9971 89.1222C84.5848 89.5032 85.0563 90.0231 85.4115 90.6818C85.7731 91.3405 85.9539 92.1639 85.9539 93.152V103.11H82.5828V101.066H82.4666C82.2535 101.48 81.9532 101.867 81.5657 102.229C81.1847 102.584 80.7036 102.871 80.1223 103.091C79.5476 103.304 78.8727 103.411 78.0977 103.411ZM79.0083 100.834C79.7122 100.834 80.3225 100.695 80.8392 100.417C81.3558 100.133 81.753 99.7586 82.0307 99.2936C82.3148 98.8286 82.4569 98.3217 82.4569 97.7727V96.0194C82.3471 96.1098 82.1598 96.1937 81.8951 96.2712C81.6367 96.3487 81.3461 96.4165 81.0232 96.4747C80.7003 96.5328 80.3807 96.5845 80.0642 96.6297C79.7478 96.6749 79.4733 96.7136 79.2408 96.7459C78.7177 96.8169 78.2495 96.9332 77.8362 97.0946C77.4229 97.2561 77.0967 97.4821 76.8578 97.7727C76.6189 98.0569 76.4994 98.425 76.4994 98.877C76.4994 99.5229 76.7351 100.01 77.2065 100.34C77.678 100.669 78.2786 100.834 79.0083 100.834Z" fill="black"/>
<path d="M95.9509 109C94.6916 109 93.6099 108.829 92.7058 108.487C91.8017 108.151 91.0751 107.699 90.5262 107.13C89.9773 106.562 89.5963 105.932 89.3831 105.241L92.5411 104.476C92.6832 104.767 92.8898 105.054 93.1611 105.338C93.4323 105.629 93.7972 105.868 94.2557 106.055C94.7207 106.249 95.3051 106.346 96.0091 106.346C97.0036 106.346 97.827 106.104 98.4793 105.619C99.1315 105.141 99.4577 104.353 99.4577 103.256V100.437H99.2833C99.1025 100.798 98.8377 101.17 98.489 101.551C98.1467 101.932 97.6914 102.251 97.1231 102.51C96.5612 102.768 95.8541 102.897 95.0016 102.897C93.8585 102.897 92.822 102.629 91.8921 102.093C90.9686 101.551 90.2324 100.743 89.6834 99.6714C89.141 98.5929 88.8697 97.2432 88.8697 95.6222C88.8697 93.9883 89.141 92.6095 89.6834 91.4858C90.2324 90.3557 90.9718 89.5 91.9018 88.9188C92.8317 88.3311 93.8682 88.0373 95.0113 88.0373C95.8831 88.0373 96.6 88.1858 97.1618 88.4829C97.7301 88.7735 98.1822 89.1254 98.518 89.5387C98.8538 89.9456 99.1089 90.3299 99.2833 90.6915H99.477V88.231H102.935V103.352C102.935 104.625 102.632 105.677 102.025 106.51C101.418 107.344 100.588 107.967 99.5352 108.38C98.4825 108.793 97.2878 109 95.9509 109ZM95.98 100.146C96.7227 100.146 97.3556 99.9652 97.8787 99.6036C98.4018 99.2419 98.7989 98.7221 99.0702 98.044C99.3414 97.3659 99.477 96.5522 99.477 95.6028C99.477 94.6664 99.3414 93.8462 99.0702 93.1423C98.8054 92.4384 98.4114 91.8927 97.8884 91.5052C97.3717 91.1113 96.7356 90.9143 95.98 90.9143C95.1986 90.9143 94.5463 91.1177 94.0232 91.5246C93.5001 91.9314 93.1062 92.4901 92.8414 93.2004C92.5766 93.9044 92.4442 94.7052 92.4442 95.6028C92.4442 96.5134 92.5766 97.311 92.8414 97.9955C93.1126 98.6736 93.5098 99.2032 94.0329 99.5842C94.5625 99.9588 95.2115 100.146 95.98 100.146Z" fill="black"/>
<path d="M110.036 94.392V103.11H106.529V83.2712H109.958V90.7593H110.133C110.481 89.9198 111.021 89.2578 111.751 88.7735C112.487 88.2827 113.423 88.0373 114.56 88.0373C115.593 88.0373 116.494 88.2536 117.262 88.6863C118.031 89.119 118.625 89.7519 119.045 90.5849C119.471 91.418 119.684 92.4352 119.684 93.6364V103.11H116.177V94.1788C116.177 93.1778 115.919 92.3997 115.403 91.8443C114.892 91.2824 114.175 91.0015 113.252 91.0015C112.632 91.0015 112.077 91.1371 111.586 91.4083C111.101 91.6731 110.72 92.0574 110.443 92.5611C110.172 93.0648 110.036 93.6751 110.036 94.392Z" fill="black"/>
<path d="M129.846 103.401C128.354 103.401 127.066 103.091 125.981 102.471C124.902 101.845 124.072 100.96 123.491 99.8167C122.91 98.6672 122.619 97.3142 122.619 95.7578C122.619 94.2273 122.91 92.884 123.491 91.728C124.079 90.5656 124.899 89.6614 125.952 89.0156C127.004 88.3634 128.241 88.0373 129.662 88.0373C130.579 88.0373 131.444 88.1858 132.258 88.4829C133.078 88.7735 133.801 89.2255 134.428 89.839C135.061 90.4526 135.558 91.234 135.92 92.1833C136.281 93.1262 136.462 94.2499 136.462 95.5544V96.6297H124.266V94.266H133.101C133.094 93.5944 132.949 92.997 132.665 92.4739C132.381 91.9444 131.983 91.5278 131.473 91.2243C130.97 90.9208 130.382 90.769 129.71 90.769C128.993 90.769 128.364 90.9434 127.821 91.2921C127.279 91.6344 126.856 92.0864 126.552 92.6483C126.255 93.2037 126.103 93.814 126.097 94.4791V96.5425C126.097 97.4078 126.255 98.1505 126.572 98.7705C126.888 99.384 127.33 99.8554 127.899 100.185C128.467 100.508 129.132 100.669 129.894 100.669C130.404 100.669 130.866 100.598 131.28 100.456C131.693 100.307 132.051 100.091 132.355 99.807C132.658 99.5229 132.888 99.1709 133.043 98.7511L136.317 99.1192C136.11 99.9846 135.716 100.74 135.135 101.386C134.56 102.025 133.824 102.523 132.926 102.878C132.029 103.227 131.002 103.401 129.846 103.401Z" fill="black"/>
</g>
<defs>
<clipPath id="clip0_4938_33048">
<rect width="192" height="192" fill="white"/>
</clipPath>
</defs>
</svg>
