<svg width="240" height="153" viewBox="0 0 240 153" fill="none" xmlns="http://www.w3.org/2000/svg">
<g clip-path="url(#clip0_780_7875)">
<mask id="mask0_780_7875" style="mask-type:luminance" maskUnits="userSpaceOnUse" x="0" y="0" width="240" height="153">
<path d="M8.46684 0H231.533C236.195 0 240 3.8285 240 8.49667V144.503C240 149.182 236.185 153 231.533 153H8.46684C3.8051 153 0 149.172 0 144.503V8.49667C0 3.8285 3.81506 0 8.46684 0Z" fill="white"/>
</mask>
<g mask="url(#mask0_780_7875)">
<path d="M240 0H0V153H240V0Z" fill="url(#paint0_linear_780_7875)"/>
</g>
<mask id="mask1_780_7875" style="mask-type:luminance" maskUnits="userSpaceOnUse" x="0" y="135" width="38" height="19">
<path d="M27.13 152.392L28.81 153.072H37.79L0 135.172V139.632L27.13 152.392Z" fill="white"/>
</mask>
<g mask="url(#mask1_780_7875)">
<path d="M37.79 135.172H0V153.072H37.79V135.172Z" fill="url(#paint1_linear_780_7875)"/>
</g>
<mask id="mask2_780_7875" style="mask-type:luminance" maskUnits="userSpaceOnUse" x="0" y="118" width="62" height="36">
<path d="M61.48 153.071L53.65 148.451L0 118.781V122.691L45.66 148.081L56.17 153.071H61.48Z" fill="white"/>
</mask>
<g mask="url(#mask2_780_7875)">
<path d="M61.48 118.781H0V153.071H61.48V118.781Z" fill="url(#paint2_linear_780_7875)"/>
</g>
<mask id="mask3_780_7875" style="mask-type:luminance" maskUnits="userSpaceOnUse" x="0" y="102" width="79" height="52">
<path d="M78.1 153.074L62.04 141.854L0 102.594V105.804L49.78 138.054L75.45 153.074H78.1Z" fill="white"/>
</mask>
<g mask="url(#mask3_780_7875)">
<path d="M78.1 102.594H0V153.074H78.1V102.594Z" fill="url(#paint3_linear_780_7875)"/>
</g>
<mask id="mask4_780_7875" style="mask-type:luminance" maskUnits="userSpaceOnUse" x="0" y="83" width="94" height="71">
<path d="M0 85.5519V83.1719L83.91 145.322L93.51 153.072H91.97L63.44 134.012L0 85.5519Z" fill="white"/>
</mask>
<g mask="url(#mask4_780_7875)">
<path d="M93.51 83.1719H0V153.072H93.51V83.1719Z" fill="url(#paint4_linear_780_7875)"/>
</g>
<mask id="mask5_780_7875" style="mask-type:luminance" maskUnits="userSpaceOnUse" x="0" y="61" width="106" height="93">
<path d="M105.4 153.067L78.35 127.297L0 61.5469V63.2169L73.57 127.567L104.78 153.067H105.4Z" fill="white"/>
</mask>
<g mask="url(#mask5_780_7875)">
<path d="M105.4 61.5469H0V153.067H105.4V61.5469Z" fill="url(#paint5_linear_780_7875)"/>
</g>
<mask id="mask6_780_7875" style="mask-type:luminance" maskUnits="userSpaceOnUse" x="0" y="38" width="116" height="116">
<path d="M115.63 153.067L102.7 138.457L0 38.3672V38.8172L85.31 125.157L115.32 153.067H115.63Z" fill="white"/>
</mask>
<g mask="url(#mask6_780_7875)">
<path d="M115.63 38.3672H0V153.067H115.63V38.3672Z" fill="url(#paint6_linear_780_7875)"/>
</g>
<mask id="mask7_780_7875" style="mask-type:luminance" maskUnits="userSpaceOnUse" x="15" y="28" width="111" height="126">
<path d="M125.42 153.068L106.19 129.858L15.5 28.3281L97.57 124.058L125.42 153.068Z" fill="white"/>
</mask>
<g mask="url(#mask7_780_7875)">
<path d="M125.42 28.3281H15.5V153.078H125.42V28.3281Z" fill="url(#paint7_linear_780_7875)"/>
</g>
<mask id="mask8_780_7875" style="mask-type:luminance" maskUnits="userSpaceOnUse" x="39" y="29" width="94" height="124">
<path d="M39.9805 29.4766L119.06 133.287L132.4 152.087L102.14 114.527L39.9805 29.4766Z" fill="white"/>
</mask>
<g mask="url(#mask8_780_7875)">
<path d="M132.39 29.4766H39.9805V152.087H132.39V29.4766Z" fill="url(#paint8_linear_780_7875)"/>
</g>
<mask id="mask9_780_7875" style="mask-type:luminance" maskUnits="userSpaceOnUse" x="61" y="30" width="79" height="122">
<path d="M139.059 151.397L127.319 131.217L61.2793 30.6172L118.629 121.747L139.059 151.397Z" fill="white"/>
</mask>
<g mask="url(#mask9_780_7875)">
<path d="M139.059 30.6172H61.2793V151.397H139.059V30.6172Z" fill="url(#paint9_linear_780_7875)"/>
</g>
<mask id="mask10_780_7875" style="mask-type:luminance" maskUnits="userSpaceOnUse" x="82" y="32" width="64" height="119">
<path d="M145.39 150.979L130.79 121.309L82.0703 32.9688L125.09 114.669L145.39 150.979Z" fill="white"/>
</mask>
<g mask="url(#mask10_780_7875)">
<path d="M145.39 32.9688H82.0703V150.979H145.39V32.9688Z" fill="url(#paint10_linear_780_7875)"/>
</g>
<mask id="mask11_780_7875" style="mask-type:luminance" maskUnits="userSpaceOnUse" x="101" y="37" width="52" height="114">
<path d="M152.36 150.807L101.77 37.3672L140.84 128.187L152.36 150.807Z" fill="white"/>
</mask>
<g mask="url(#mask11_780_7875)">
<path d="M152.37 37.3672H101.77V150.807H152.37V37.3672Z" fill="url(#paint11_linear_780_7875)"/>
</g>
<mask id="mask12_780_7875" style="mask-type:luminance" maskUnits="userSpaceOnUse" x="118" y="39" width="41" height="112">
<path d="M158.75 150.951L118.77 39.1406L147.83 123.061L158.75 150.951Z" fill="white"/>
</mask>
<g mask="url(#mask12_780_7875)">
<path d="M158.75 39.1406H118.77V150.951H158.75V39.1406Z" fill="url(#paint12_linear_780_7875)"/>
</g>
<mask id="mask13_780_7875" style="mask-type:luminance" maskUnits="userSpaceOnUse" x="136" y="48" width="29" height="104">
<path d="M164.39 151.326L136.98 48.9062L158.47 131.596L164.39 151.326Z" fill="white"/>
</mask>
<g mask="url(#mask13_780_7875)">
<path d="M164.39 48.9062H136.98V151.326H164.39V48.9062Z" fill="url(#paint13_linear_780_7875)"/>
</g>
<mask id="mask14_780_7875" style="mask-type:luminance" maskUnits="userSpaceOnUse" x="153" y="60" width="18" height="93">
<path d="M170.46 152.063L153.42 60.2734L166.77 133.963L170.46 152.063Z" fill="white"/>
</mask>
<g mask="url(#mask14_780_7875)">
<path d="M170.46 60.2734H153.42V152.063H170.46V60.2734Z" fill="url(#paint14_linear_780_7875)"/>
</g>
<mask id="mask15_780_7875" style="mask-type:luminance" maskUnits="userSpaceOnUse" x="167" y="70" width="10" height="84">
<path d="M176.539 153.069L173.629 127.139L167.869 70.0391L176.539 153.069Z" fill="white"/>
</mask>
<g mask="url(#mask15_780_7875)">
<path d="M176.539 70.0391H167.869V153.079H176.539V70.0391Z" fill="url(#paint15_linear_780_7875)"/>
</g>
<path d="M41.5156 20.325H40.9801C37.2401 20.325 33.4916 20.325 29.7516 20.325C28.6453 20.2885 27.5417 20.2027 26.4451 20.0679C25.9861 20.0301 25.5186 20.0149 25.0596 19.9847L24.9746 19.6822C25.5341 19.5789 26.1033 19.5232 26.6746 19.5158C26.7511 19.6141 26.8021 19.5839 26.8361 19.5158C27.6436 19.478 28.4511 19.4023 29.2501 19.4023C33.2451 19.4023 37.2486 19.4023 41.2436 19.4023H41.4901L41.5496 19.4553C41.5496 19.7276 41.5496 19.9923 41.5496 20.2645L41.5156 20.325Z" fill="white"/>
<path d="M41.5755 27.8007V28.5569L41.5074 28.625H39.9095H28.6299C28.3968 28.6464 28.1614 28.6336 27.9329 28.5872C27.8649 28.4586 27.78 28.4586 27.6865 28.5872C27.3287 28.6061 26.9696 28.5908 26.6154 28.5418C26.6154 28.4511 26.5304 28.4208 26.4539 28.5418C25.9839 28.5381 25.5159 28.4848 25.06 28.383C24.992 28.0729 25.4254 28.2771 25.4679 28.0729L27.1169 27.967C27.1934 28.0578 27.2444 28.02 27.2784 27.9292C28.0681 27.8184 28.8688 27.7829 29.6669 27.8233C29.7519 27.9065 29.8625 27.8914 29.973 27.8914H36.0079C36.1184 27.8914 36.263 27.9368 36.3225 27.8007C36.7291 27.7592 37.1398 27.7592 37.5464 27.8007H41.4309C41.4529 27.8119 41.4778 27.8179 41.5032 27.8179C41.5286 27.8179 41.5535 27.8119 41.5755 27.8007Z" fill="white"/>
<path d="M19.0605 25.9554C19.0605 25.8647 19.0605 25.7664 19.0605 25.668L23.9396 25.7134C26.0602 25.7224 28.1798 25.629 30.2891 25.4336C30.4931 25.4336 30.6971 25.4336 30.9011 25.4336H41.1436C41.5261 25.4336 41.6026 25.5319 41.6196 25.8571C41.6366 26.1823 41.4751 26.2655 41.1266 26.2655C37.5481 26.2655 33.9696 26.2655 30.3911 26.2655C28.6486 26.2655 26.9061 26.0538 25.1551 26.0084C23.1547 25.8975 21.1232 25.8798 19.0605 25.9554Z" fill="white"/>
<path d="M36.9002 21.8477C38.4132 21.7948 39.9177 21.8477 41.4307 21.8477C41.4306 21.864 41.4343 21.8801 41.4418 21.895C41.4492 21.9098 41.4602 21.9231 41.4739 21.9338C41.4876 21.9446 41.5037 21.9526 41.5212 21.9573C41.5387 21.962 41.5571 21.9634 41.5752 21.9612V22.6192C41.5578 22.617 41.5401 22.6182 41.5232 22.6224C41.5063 22.6267 41.4905 22.6341 41.477 22.644C41.4634 22.6539 41.4523 22.6663 41.4443 22.6802C41.4364 22.6942 41.4317 22.7094 41.4307 22.725H40.9377H31.4432C30.3792 22.6944 29.3179 22.6111 28.2642 22.4755C28.2642 22.3847 28.1792 22.3545 28.1027 22.4755C27.7449 22.4945 27.3859 22.4793 27.0317 22.4301C26.9042 22.2713 26.7682 22.3166 26.6237 22.4301H25.5527V22.1729H26.6152C26.6832 22.2637 26.7427 22.2486 26.7852 22.1729C27.1364 22.1227 27.4922 22.1025 27.8477 22.1124C27.9157 22.2108 27.9752 22.1881 28.0177 22.1124C28.3428 22.0595 28.6742 22.0442 29.0037 22.0671C29.1057 22.1578 29.1907 22.1578 29.2502 22.0671C29.6329 22.018 30.0202 22.0028 30.4062 22.0217C30.4912 22.1124 30.6017 22.0898 30.7122 22.0898H36.6027C36.7047 21.9536 36.8407 21.9914 36.9002 21.8477Z" fill="white"/>
<path d="M30.3233 21.5148C29.3628 21.5148 28.4023 21.3862 27.4418 21.3257C27.3993 21.2274 27.3483 21.2047 27.2803 21.3257C26.8403 21.3346 26.4001 21.317 25.9628 21.2728C25.9203 21.1442 25.6398 21.1669 25.7163 20.9627H26.0478C26.1498 21.061 26.2348 21.061 26.2943 20.9249C27.5797 20.7725 28.8737 20.6842 30.1703 20.6602C33.7913 20.6602 37.4038 20.6602 41.0248 20.6602H41.5178L41.5773 20.7207V21.477H30.7908C30.6548 21.4165 30.4593 21.4165 30.3233 21.5148Z" fill="white"/>
<path d="M28.5099 27.3612C27.6599 27.3612 26.8694 27.1645 26.0449 27.1116V26.8015C27.4134 26.7486 28.7819 26.5746 30.1589 26.5595C30.2184 26.6427 30.2779 26.6276 30.3204 26.5595C30.4747 26.5069 30.6417 26.4913 30.8049 26.5141H41.0049C41.6509 26.5141 41.5659 26.4309 41.5744 27.0133C41.5744 27.1116 41.5744 27.2099 41.5744 27.3082H29.0114C28.8414 27.2856 28.6544 27.225 28.5099 27.3612Z" fill="white"/>
<path d="M27.9338 24.7967H27.2793C27.2793 24.653 27.3983 24.6001 27.4408 24.4942C28.0273 24.4564 28.6138 24.4337 29.2003 24.3808C31.7503 24.1312 34.3938 24.2598 36.9863 24.2295C37.1138 24.3429 37.2668 24.2976 37.4113 24.2976H41.5763C41.5763 25.0917 41.5763 25.0917 40.7263 25.0917C37.4963 25.0917 34.2578 25.0917 31.0278 25.0917C30.0503 25.0917 29.0728 24.9329 28.0953 24.8421C28.1038 24.7287 28.0103 24.706 27.9338 24.7967Z" fill="white"/>
<path d="M36.8157 23.0415C36.9075 23.0191 37.0014 23.0039 37.0962 22.9961H41.4312C41.4312 23.0717 41.4992 23.0944 41.5757 23.102V23.76L41.5162 23.8129H36.6202C34.9627 23.8129 33.3052 23.8507 31.6477 23.8129C30.4917 23.8129 29.3357 23.6465 28.1797 23.5558C28.0522 23.3969 27.9162 23.4272 27.7717 23.5558H27.1172V23.291H27.6102C27.7122 23.3894 27.7972 23.3818 27.8567 23.2457H28.7577C28.8342 23.3364 28.8852 23.3062 28.9192 23.2457C29.4828 23.1765 30.0504 23.1361 30.6192 23.1247C30.7042 23.2079 30.8147 23.1927 30.9252 23.1927H36.4927C36.6032 23.1247 36.7477 23.1474 36.8157 23.0415Z" fill="white"/>
<path d="M27.4384 24.4848C27.3959 24.5907 27.2344 24.6437 27.2769 24.7874C25.7214 24.7874 24.1659 24.742 22.6104 24.7344C21.3694 24.7344 20.1199 24.7344 18.8789 24.7722V24.4773C19.9329 24.379 20.9784 24.4773 22.0324 24.4773C23.6134 24.4773 25.2029 24.4773 26.7839 24.4773C27.0134 24.5075 27.2514 24.4395 27.4384 24.4848Z" fill="white"/>
<path d="M27.1169 23.28V23.5447H19.2969V23.2951C20.7929 23.2346 22.2974 23.348 23.8019 23.348C24.9069 23.348 26.0034 23.2724 27.1169 23.28Z" fill="white"/>
<path d="M28.5117 27.3664C28.6562 27.2302 28.8432 27.2907 29.0132 27.2907H41.5762C41.5762 27.4723 41.3977 27.4042 41.2957 27.4042C37.0967 27.4042 32.9005 27.4042 28.7072 27.4042C28.6404 27.3996 28.5746 27.3869 28.5117 27.3664Z" fill="white"/>
<path d="M26.0457 26.8053V27.1154C24.3967 27.0246 22.7392 27.1154 21.0902 27.0625C20.7417 27.1115 20.3883 27.1267 20.0362 27.1078C20.0362 27.002 19.9767 26.9036 19.9512 26.8053C21.3197 26.8053 22.6797 26.7599 24.0482 26.8053C24.7027 26.8734 25.3742 26.8204 26.0457 26.8053Z" fill="white"/>
<path d="M30.3203 21.5132C30.4563 21.3922 30.6348 21.4451 30.7878 21.4451H41.5743C41.5743 21.6493 41.3618 21.5661 41.2513 21.5661H30.6518C30.5243 21.5586 30.4138 21.5888 30.3203 21.5132Z" fill="white"/>
<path d="M25.7143 20.9336C25.6378 21.1378 25.9183 21.1151 25.9608 21.2437C25.5826 21.2852 25.2 21.2852 24.8218 21.2437C23.3938 21.2437 21.9573 21.2437 20.5293 21.2437V20.9714L25.7143 20.9336Z" fill="white"/>
<path d="M25.5531 22.1707V22.4127H19.7051V22.1707C20.1371 22.1254 20.5736 22.1254 21.0056 22.1707C22.5186 22.1707 24.0401 22.1707 25.5531 22.1707Z" fill="white"/>
<path d="M25.468 27.9829C25.468 28.1871 24.992 27.9829 25.06 28.293C24.2753 28.2187 23.485 28.201 22.697 28.24C22.549 28.2451 22.4014 28.2578 22.255 28.2778C22.255 28.119 22.1615 28.0888 22.0085 28.0888C21.8555 28.0888 21.762 28.0888 21.6855 28.0131C22.4444 27.9791 23.2047 27.9791 23.9635 28.0131C24.465 27.9678 24.9665 27.9829 25.468 27.9829Z" fill="white"/>
<path d="M36.3235 27.7107C36.264 27.8468 36.1195 27.8014 36.009 27.8014H29.974C29.8635 27.8014 29.753 27.8014 29.668 27.7334C29.7059 27.7067 29.7497 27.6874 29.7966 27.677C29.8435 27.6666 29.8924 27.6652 29.94 27.6729H36.128C36.1948 27.6773 36.2606 27.6901 36.3235 27.7107Z" fill="white"/>
<path d="M36.9022 21.8501C36.8427 21.9938 36.7067 21.956 36.5877 21.956H30.7142C30.6037 21.956 30.4932 21.956 30.4082 21.8879C30.4866 21.8372 30.5842 21.8155 30.6802 21.8274H36.7832L36.9022 21.8501Z" fill="white"/>
<path d="M36.8168 23.042C36.7488 23.1478 36.6298 23.1252 36.5278 23.1252H30.9603C30.8498 23.1252 30.7393 23.1252 30.6543 23.0571C30.7315 23.034 30.8113 23.0188 30.8923 23.0117H36.6043C36.6759 23.0167 36.747 23.0268 36.8168 23.042Z" fill="white"/>
<path d="M41.5768 24.2901H37.4543C37.3098 24.2901 37.1568 24.3355 37.0293 24.2221C37.1228 24.1464 37.2333 24.1691 37.3438 24.1691H41.3048C41.3728 24.1691 41.5513 24.0859 41.5768 24.2901Z" fill="white"/>
<path d="M24.9759 19.707L25.0609 20.0095H22.2559V19.7373C23.1611 19.8142 24.0731 19.8041 24.9759 19.707Z" fill="white"/>
<path d="M27.7715 23.5638C27.916 23.4579 28.052 23.4276 28.1795 23.5638C28.1175 23.5956 28.0471 23.6124 27.9755 23.6124C27.9039 23.6124 27.8335 23.5956 27.7715 23.5638Z" fill="white"/>
<path d="M26.627 22.3945C26.7715 22.3038 26.9074 22.2584 27.0349 22.3945C26.8904 22.4399 26.7545 22.4777 26.627 22.3945Z" fill="white"/>
<path d="M29.2599 28.817C29.2413 28.842 29.2161 28.8624 29.1864 28.8766C29.1567 28.8908 29.1236 28.8982 29.0899 28.8982C29.0563 28.8982 29.0231 28.8908 28.9935 28.8766C28.9638 28.8624 28.9385 28.842 28.9199 28.817C28.9698 28.7861 29.0291 28.7695 29.0899 28.7695C29.1507 28.7695 29.21 28.7861 29.2599 28.817Z" fill="white"/>
<path d="M19.3809 21.241C19.4744 21.1049 19.5849 21.12 19.7039 21.241C19.6019 21.3091 19.4914 21.2789 19.3809 21.241Z" fill="white"/>
<path d="M27.8578 23.2272C27.7983 23.3633 27.7133 23.3709 27.6113 23.2726C27.6793 23.1969 27.7643 23.2121 27.8578 23.2272Z" fill="white"/>
<path d="M27.6895 28.5308C27.783 28.4325 27.8679 28.4325 27.9359 28.5308C27.9011 28.5559 27.8576 28.5697 27.8127 28.5697C27.7678 28.5697 27.7243 28.5559 27.6895 28.5308Z" fill="white"/>
<path d="M29.2485 21.9314C29.189 22.0524 29.104 22.0524 29.002 21.9314C29.0374 21.9075 29.0807 21.8945 29.1252 21.8945C29.1697 21.8945 29.213 21.9075 29.2485 21.9314Z" fill="white"/>
<path d="M26.2914 20.8942C26.2319 21.0304 26.1469 21.0304 26.0449 20.932C26.078 20.906 26.1186 20.8887 26.1621 20.882C26.2057 20.8753 26.2504 20.8795 26.2914 20.8942Z" fill="white"/>
<path d="M41.5765 23.1224C41.5 23.1224 41.4404 23.1224 41.4319 23.0165C41.4234 22.9106 41.5935 23.0165 41.5765 23.1224Z" fill="white"/>
<path d="M41.5762 27.806C41.5393 27.806 41.5037 27.7935 41.4769 27.771C41.45 27.7485 41.4338 27.7178 41.4316 27.685C41.5421 27.6547 41.5932 27.7001 41.5762 27.806Z" fill="white"/>
<path d="M27.2533 27.8402C27.2533 27.931 27.1683 27.9688 27.0918 27.878C27.111 27.8576 27.1369 27.843 27.1658 27.8363C27.1947 27.8295 27.2253 27.8309 27.2533 27.8402Z" fill="white"/>
<path d="M28.9525 23.1757C28.9525 23.2589 28.8675 23.2892 28.791 23.1757C28.8014 23.1659 28.8139 23.158 28.8277 23.1527C28.8416 23.1473 28.8566 23.1445 28.8718 23.1445C28.8869 23.1445 28.9019 23.1473 28.9158 23.1527C28.9297 23.158 28.9422 23.1659 28.9525 23.1757Z" fill="white"/>
<path d="M26.4531 28.4518C26.5296 28.3611 26.5806 28.3913 26.6146 28.4518C26.5926 28.4699 26.5638 28.4799 26.5339 28.4799C26.5039 28.4799 26.4751 28.4699 26.4531 28.4518Z" fill="white"/>
<path d="M41.4316 22.7124C41.4327 22.6968 41.4373 22.6815 41.4452 22.6676C41.4532 22.6536 41.4643 22.6413 41.4779 22.6313C41.4915 22.6214 41.5072 22.6141 41.5241 22.6098C41.541 22.6055 41.5587 22.6044 41.5762 22.6065C41.5847 22.7124 41.5421 22.7502 41.4316 22.7124Z" fill="white"/>
<path d="M28.0176 22.0034C28.0176 22.0942 27.9157 22.1169 27.8477 22.0034C27.8728 21.9885 27.9024 21.9805 27.9326 21.9805C27.9629 21.9805 27.9925 21.9885 28.0176 22.0034Z" fill="white"/>
<path d="M41.5762 21.9478C41.558 21.9499 41.5396 21.9486 41.5221 21.9439C41.5046 21.9392 41.4885 21.9311 41.4748 21.9204C41.4611 21.9096 41.4501 21.8964 41.4427 21.8815C41.4353 21.8667 41.4315 21.8506 41.4316 21.8343C41.5421 21.8041 41.5932 21.8419 41.5762 21.9478Z" fill="white"/>
<path d="M26.7852 22.0754C26.7427 22.1661 26.6832 22.1813 26.6152 22.0754C26.6399 22.0594 26.6697 22.0508 26.7002 22.0508C26.7308 22.0508 26.7605 22.0594 26.7852 22.0754Z" fill="white"/>
<path d="M18.752 22.3944C18.8115 22.3112 18.8625 22.3112 18.922 22.3944C18.9116 22.4055 18.8986 22.4145 18.8839 22.4206C18.8692 22.4267 18.8532 22.4299 18.837 22.4299C18.8207 22.4299 18.8047 22.4267 18.79 22.4206C18.7753 22.4145 18.7623 22.4055 18.752 22.3944Z" fill="white"/>
<path d="M27.252 21.3038C27.32 21.2055 27.371 21.2282 27.4135 21.3038C27.4031 21.3136 27.3906 21.3215 27.3767 21.3268C27.3628 21.3322 27.3478 21.335 27.3327 21.335C27.3176 21.335 27.3026 21.3322 27.2887 21.3268C27.2748 21.3215 27.2623 21.3136 27.252 21.3038Z" fill="white"/>
<path d="M26.8627 19.5117C26.8627 19.6024 26.7777 19.6327 26.7012 19.5117C26.7115 19.5018 26.724 19.494 26.7379 19.4886C26.7518 19.4832 26.7668 19.4805 26.7819 19.4805C26.7971 19.4805 26.8121 19.4832 26.8259 19.4886C26.8398 19.494 26.8523 19.5018 26.8627 19.5117Z" fill="white"/>
<path d="M30.3236 26.547C30.2811 26.6302 30.2216 26.6453 30.1621 26.547C30.1716 26.536 30.1839 26.5271 30.1979 26.521C30.2119 26.5149 30.2273 26.5117 30.2429 26.5117C30.2585 26.5117 30.2738 26.5149 30.2878 26.521C30.3018 26.5271 30.3141 26.536 30.3236 26.547Z" fill="white"/>
<path d="M28.1035 22.4596C28.18 22.3689 28.231 22.3991 28.265 22.4596C28.2547 22.4695 28.2422 22.4773 28.2283 22.4827C28.2144 22.488 28.1994 22.4908 28.1843 22.4908C28.1691 22.4908 28.1541 22.488 28.1402 22.4827C28.1264 22.4773 28.1139 22.4695 28.1035 22.4596Z" fill="white"/>
<path d="M27.9336 24.7981C28.0101 24.7074 28.0611 24.7301 28.1036 24.7981C28.0802 24.8167 28.05 24.827 28.0186 24.827C27.9872 24.827 27.957 24.8167 27.9336 24.7981Z" fill="white"/>
<path d="M41.5176 23.8383L41.5773 23.7852C41.5859 23.8307 41.5603 23.8459 41.5176 23.8383Z" fill="white"/>
<path d="M41.5078 28.6032L41.5759 28.5352C41.5844 28.573 41.5673 28.6032 41.5078 28.6032Z" fill="white"/>
<path d="M41.5771 20.7129L41.5176 20.6523C41.5686 20.6599 41.5856 20.6599 41.5771 20.7129Z" fill="white"/>
<path d="M41.5176 20.3227L41.5688 20.2695C41.5688 20.2695 41.5603 20.3303 41.5176 20.3227Z" fill="white"/>
<path d="M41.5773 19.4648L41.5176 19.4116C41.5603 19.404 41.5773 19.4268 41.5773 19.4648Z" fill="white"/>
<path d="M41.5176 19.2363L41.5771 19.1758C41.5856 19.2212 41.5686 19.2363 41.5176 19.2363Z" fill="white"/>
<path d="M29.2585 28.8141C29.4331 28.7886 29.609 28.7709 29.7855 28.7612C33.568 28.7612 37.3505 28.7612 41.133 28.7612C41.4815 28.7612 41.6345 28.8217 41.592 29.1545C41.6059 29.5442 41.5775 29.9343 41.507 30.3191C41.3755 30.776 41.0752 31.1802 40.6543 31.4669C40.2335 31.7536 39.7165 31.9061 39.1865 31.8998H18.7865C18.4677 31.9071 18.1505 31.8565 17.8544 31.7511C17.5582 31.6456 17.2894 31.4875 17.0642 31.2865C16.8391 31.0855 16.6624 30.8457 16.5449 30.5819C16.4274 30.318 16.3717 30.0356 16.381 29.7519C16.381 25.9705 16.381 22.189 16.381 18.4605C16.3667 18.1478 16.4252 17.8359 16.5529 17.5444C16.6806 17.2528 16.8746 16.9879 17.1229 16.7663C17.3712 16.5447 17.6683 16.3712 17.9955 16.2567C18.3228 16.1422 18.6731 16.0891 19.0245 16.1008C24.6855 16.1008 30.3465 16.1008 36.0245 16.1008C37.0445 16.1008 38.056 16.1008 39.0675 16.1008C39.4072 16.0844 39.747 16.1319 40.0647 16.2401C40.3824 16.3484 40.671 16.5149 40.9115 16.729C41.1521 16.943 41.3393 17.1997 41.4609 17.4824C41.5826 17.7651 41.6359 18.0674 41.6175 18.3697C41.6175 18.6344 41.6175 18.8991 41.6175 19.1714L41.558 19.2319H28.6465C27.2204 19.2016 25.7992 19.0701 24.3965 18.8386C23.7194 18.7472 23.0285 18.778 22.365 18.9294C22.144 18.9823 21.8975 19.0504 21.872 19.2999C21.8465 19.5495 22.0845 19.6176 22.28 19.7008V19.973L20.2825 20.0335C19.7555 20.0335 19.4325 20.2151 19.4325 20.4722C19.4325 20.7293 19.73 20.8806 20.2825 20.9184C20.39 20.9261 20.498 20.9261 20.6055 20.9184V21.1907H19.7555C19.6365 21.0924 19.526 21.0772 19.4325 21.1907C19.339 21.3041 19.033 21.2587 18.8375 21.3041C18.743 21.317 18.657 21.3603 18.5959 21.4258C18.5348 21.4913 18.5028 21.5745 18.506 21.6596C18.506 21.8487 18.659 21.9243 18.829 21.9924C19.1265 22.1058 19.4495 21.9923 19.7555 22.0907V22.3251H18.9055C18.846 22.2419 18.795 22.2419 18.7355 22.3251C18.5658 22.3625 18.3984 22.4079 18.234 22.4612C18.1573 22.4877 18.0916 22.5346 18.046 22.5955C18.0004 22.6564 17.977 22.7284 17.979 22.8016C17.979 22.9831 18.1235 23.0436 18.268 23.1117C18.6085 23.1944 18.9607 23.2326 19.3135 23.2251V23.4747C18.9597 23.4749 18.6068 23.5053 18.2595 23.5654C18.0555 23.6184 17.843 23.694 17.826 23.9285C17.809 24.1629 18.0215 24.2385 18.2255 24.3142C18.4295 24.3898 18.6845 24.3142 18.9055 24.4049V24.6999C18.6754 24.6969 18.4469 24.7355 18.234 24.8133C18.1589 24.841 18.0951 24.8884 18.051 24.9492C18.007 25.01 17.9848 25.0813 17.9875 25.1537C17.9875 25.3276 18.1235 25.4032 18.2765 25.4713C18.5379 25.5304 18.8059 25.5634 19.0755 25.5696C19.0755 25.6679 19.0755 25.7663 19.0755 25.857C19.0755 25.9478 18.846 25.9251 18.7355 25.9705C18.6514 25.9971 18.5797 26.0481 18.5319 26.1153C18.4841 26.1825 18.4631 26.262 18.472 26.341C18.472 26.515 18.6335 26.5755 18.795 26.636C19.1809 26.7065 19.5742 26.7395 19.968 26.7343C19.968 26.8326 20.0275 26.931 20.053 27.0368C19.7725 27.1125 19.3815 27.1578 19.4155 27.4906C19.4495 27.8234 19.866 27.8536 20.189 27.8839C20.6944 27.8701 21.2001 27.8903 21.702 27.9444C21.7785 28.0578 21.9145 28.02 22.025 28.02C22.1355 28.02 22.2885 28.02 22.2715 28.2091C22.0505 28.315 21.804 28.4133 21.855 28.6855C21.906 28.9578 22.2375 29.0637 22.5095 29.1091C23.2999 29.2565 24.1161 29.2565 24.9065 29.1091C26.2304 28.8579 27.5821 28.7412 28.9355 28.7612C28.9495 28.7867 28.97 28.809 28.9955 28.8262C29.0209 28.8435 29.0506 28.8551 29.082 28.8603C29.1134 28.8654 29.1458 28.8639 29.1764 28.8559C29.2071 28.8479 29.2352 28.8336 29.2585 28.8141Z" fill="white"/>
<path fill-rule="evenodd" clip-rule="evenodd" d="M193.588 26.9766C193.168 26.9666 192.838 26.6366 192.838 26.2266V21.3066H190.568V27.1666C190.568 28.3166 191.498 29.2466 192.648 29.2466H196.998V26.9766H193.588Z" fill="white"/>
<path fill-rule="evenodd" clip-rule="evenodd" d="M186.029 26.9766C185.609 26.9666 185.279 26.6366 185.269 26.2266V21.3066H182.999V26.2266C182.999 26.6366 182.659 26.9666 182.249 26.9766H172.789V29.2466H182.059C183.199 29.2466 184.139 28.3066 184.139 27.1666C184.139 28.3166 185.079 29.2466 186.219 29.2466H189.439V26.9766H186.029Z" fill="white"/>
<path fill-rule="evenodd" clip-rule="evenodd" d="M151.029 24.3345H161.439V22.0645H148.949C148.939 22.1245 148.939 22.1845 148.939 22.2445C148.949 23.4045 149.879 24.3345 151.029 24.3345Z" fill="white"/>
<path fill-rule="evenodd" clip-rule="evenodd" d="M161.83 26.2145C162.24 26.2145 162.58 25.8845 162.58 25.4645V22.0645H164.85V26.4045C164.85 27.5545 163.92 28.4845 162.77 28.4845H159.93V26.2145H161.83Z" fill="white"/>
<path fill-rule="evenodd" clip-rule="evenodd" d="M168.999 23.1976C168.589 23.1876 168.259 22.8576 168.249 22.4476V17.5176H165.979V23.3876C165.979 24.5376 166.909 25.4576 168.059 25.4576H173.729C174.879 25.4576 175.809 24.5376 175.809 23.3876C175.809 24.5376 176.739 25.4576 177.889 25.4576H181.859V23.1976H176.559C176.149 23.1876 175.819 22.8576 175.809 22.4476V19.7976H169.759V22.0776H174.289V22.4576C174.279 22.8676 173.949 23.1976 173.539 23.2076H168.999V23.1976Z" fill="white"/>
<path fill-rule="evenodd" clip-rule="evenodd" d="M156.908 18.0176C156.178 18.0176 155.578 18.6176 155.578 19.3476C155.578 20.0776 156.178 20.6776 156.908 20.6776C157.638 20.6776 158.238 20.0776 158.238 19.3476C158.248 18.6176 157.638 18.0176 156.908 18.0176Z" fill="white"/>
<path fill-rule="evenodd" clip-rule="evenodd" d="M169.719 26.7363C168.989 26.7363 168.389 27.3363 168.389 28.0663C168.389 28.7963 168.989 29.3963 169.719 29.3963C170.449 29.3963 171.049 28.7963 171.049 28.0663C171.049 27.3363 170.449 26.7363 169.719 26.7363Z" fill="white"/>
<path fill-rule="evenodd" clip-rule="evenodd" d="M194.619 30.3379C193.889 30.3379 193.289 30.9379 193.289 31.6679C193.289 32.3979 193.889 32.9979 194.619 32.9979C195.349 32.9979 195.949 32.3979 195.949 31.6679C195.949 30.9379 195.349 30.3379 194.619 30.3379Z" fill="white"/>
<path fill-rule="evenodd" clip-rule="evenodd" d="M188.01 22.291C187.28 22.291 186.68 22.891 186.68 23.621C186.68 24.351 187.28 24.951 188.01 24.951C188.74 24.951 189.34 24.351 189.34 23.621C189.34 22.891 188.74 22.291 188.01 22.291Z" fill="white"/>
<path fill-rule="evenodd" clip-rule="evenodd" d="M181.09 18.0254C180.36 18.0254 179.76 18.6154 179.76 19.3554C179.76 20.0854 180.36 20.6854 181.09 20.6854C181.82 20.6854 182.42 20.0854 182.42 19.3554C182.42 18.6154 181.82 18.0254 181.09 18.0254Z" fill="white"/>
<path fill-rule="evenodd" clip-rule="evenodd" d="M178.42 18.041C177.69 18.041 177.09 18.641 177.09 19.371C177.09 20.111 177.69 20.701 178.42 20.701C179.15 20.701 179.75 20.101 179.75 19.371C179.75 18.631 179.15 18.041 178.42 18.041Z" fill="white"/>
<path fill-rule="evenodd" clip-rule="evenodd" d="M154.248 18.0566C153.518 18.0566 152.918 18.6566 152.918 19.3866C152.918 20.1166 153.518 20.7166 154.248 20.7166C154.978 20.7166 155.578 20.1266 155.578 19.3866C155.568 18.6566 154.978 18.0566 154.248 18.0566Z" fill="white"/>
<path fill-rule="evenodd" clip-rule="evenodd" d="M217.67 29.9204L215.96 31.9504H216.15L218.05 29.9204H217.67ZM216.9 29.9504L215.55 31.9504H215.75L217.27 29.9504H216.9ZM216.38 29.9604L215.23 31.9504H215.38L216.62 29.9604H216.38ZM215.85 29.9904L214.96 31.9504H215.1L216.09 29.9904H215.85ZM215.45 29.8804L214.72 31.9504H214.86L215.58 30.0104L215.45 29.8804ZM215.05 29.6104L214.45 31.9504H214.57L215.22 29.7104L215.05 29.6104ZM214.63 28.9604L214.21 31.9604H214.31L214.93 28.5404C214.79 28.5404 214.63 28.9604 214.63 28.9604ZM214.04 29.4704L213.91 31.9504H214.05L214.27 29.3904C214.16 29.3304 214.04 29.4704 214.04 29.4704ZM213.52 30.0204L213.54 31.9504H213.76V29.8604C213.66 30.0004 213.52 30.0204 213.52 30.0204ZM213.06 30.0404L213.25 31.9604H213.39L213.27 30.0404H213.06ZM212.6 30.0304L213.01 31.9504H213.12L212.81 30.0304H212.6ZM212.17 30.0704L212.72 31.9504H212.86L212.35 30.0704H212.17ZM211.54 29.2404C211.54 29.2404 211.43 29.5404 211.6 29.8704L212.47 31.9604H212.59L211.92 30.0704C211.92 30.0704 211.68 30.0204 211.72 29.8204C211.77 29.6204 211.82 29.5204 211.57 29.2504L211.54 29.2404ZM209.82 27.4704L212.18 31.9504H212.33L210.33 27.7504L209.82 27.4704ZM210.85 27.8604V27.8804C210.88 28.1604 210.94 28.1504 211.05 28.4204C211.17 28.6804 211.08 28.7504 211.08 28.7504C210.92 28.9504 211.22 29.0904 211.22 29.0904C211.24 29.3904 211.37 29.4604 211.37 29.4604C211.37 29.4604 211.31 29.2004 211.44 29.0804C211.57 28.9604 211.77 29.2004 211.94 29.3904C212.11 29.5804 212.02 29.6304 211.91 29.7704C211.81 29.9104 211.96 29.8704 211.96 29.8704C212.4 29.8204 213.52 29.8504 213.52 29.8504C213.73 29.6004 213.78 29.6404 213.88 29.4904C214 29.3104 214.1 29.2104 214.1 29.2104C214.37 29.2304 214.36 29.1704 214.36 29.1704C214.39 29.0704 214.36 29.0004 214.51 28.8504C214.66 28.7004 214.57 28.5704 214.76 28.3904C214.95 28.2004 215.1 28.4004 215.1 28.4004V29.2104C215.06 29.3304 214.94 29.3904 215.21 29.5004C215.48 29.6104 215.65 29.7804 215.65 29.7804L218.48 29.7504C218.66 29.7404 218.68 29.6904 218.74 29.6304C218.8 29.5704 218.74 29.4204 218.74 29.4204H218.37C218.13 29.2604 217.8 29.2904 217.8 29.2904C217.37 29.0304 216.38 29.0604 216.06 29.0304C215.73 29.0004 215.56 28.7004 215.39 28.3104C215.22 27.9204 214.97 27.9704 214.97 27.9704C214.58 27.9804 214.16 28.3204 214.16 28.3204C213.66 28.5104 213.24 28.3104 213.24 28.3104C212.65 27.7104 212.59 28.0604 212.47 27.9104C212.26 27.6504 211.73 27.4504 211.73 27.4504C211.12 26.8804 211 26.3204 210.9 26.0604C210.8 25.8004 210.86 25.8204 210.54 25.8004C210.22 25.7904 210.14 25.5504 210.14 25.5504C210.14 25.5504 210 25.8804 209.85 25.8904C209.7 25.9104 209.76 25.9104 209.75 26.0304C209.73 26.1504 209.58 26.1004 209.58 26.1004C209.16 26.2204 209.32 26.4504 209.45 26.5904C209.58 26.7304 209.56 26.9004 209.56 26.9004C209.75 27.3304 210.85 27.8604 210.85 27.8604ZM206.75 18.3404C206.75 18.3404 206.75 18.2004 206.75 18.3604C206.75 18.5304 206.9 19.2404 206.9 19.2404C206.9 19.2404 207.19 19.6904 207.25 20.1804C207.31 20.6704 207.85 21.0404 207.9 21.1804C207.94 21.3204 207.99 21.5904 207.78 22.2604C207.57 22.9204 208 22.8104 208.01 23.1604C208.01 23.5004 208.43 23.5304 208.43 23.5304C209.14 23.6704 209.26 24.0504 209.26 24.0504V24.5604C209.49 24.8804 209.48 25.0004 209.5 25.3804C209.52 25.7504 209.72 25.8804 209.9 25.5804C210.08 25.2804 210.26 25.3904 210.26 25.3904C210.32 25.5504 210.3 25.6104 210.64 25.6204C210.97 25.6304 211.04 25.8904 211.04 25.8904C211.25 26.8704 211.87 27.3504 211.87 27.3504C211.87 27.3504 212.17 27.4304 212.37 27.6004C212.57 27.7704 212.58 27.7204 212.58 27.7204C212.82 27.7804 213.04 27.9304 213.04 27.9304C213.8 28.4604 213.86 28.2104 214.47 27.8904C215.24 27.5004 215.48 28.0504 215.67 28.4704C215.86 28.8904 216.03 28.8104 216.03 28.8104C216.74 28.8204 217.36 28.9704 217.58 29.0004C217.8 29.0304 218.19 29.2804 218.23 29.1304C218.26 28.9804 218.35 28.5204 218.35 28.5204C218.57 27.6504 219.16 27.7104 219.28 27.6904C219.4 27.6704 219.28 27.6404 219.28 27.6404C218.83 27.5504 218.88 27.4604 218.88 27.0804C218.88 26.7004 218.63 26.8104 218.22 26.3804C217.8 25.9504 217.88 25.4904 217.9 25.2704C217.91 25.0504 218.5 24.9104 218.47 24.6304C218.44 24.3504 217.97 24.5104 217.75 24.3704C217.54 24.2304 217.61 23.6704 217.61 23.6704C217.54 23.5004 217.55 23.1904 217.55 23.1904C217.64 22.8804 217.43 22.7504 217.43 22.7504C217.07 22.4304 217.43 22.0104 217.64 21.7304C217.84 21.4504 217.83 21.2804 217.83 21.2804C217.77 21.1104 217.72 20.8204 217.81 20.5704C217.9 20.3204 217.79 20.2904 217.53 20.1804C217.27 20.0704 217.25 19.9304 217.25 19.9304C216.93 19.9304 217.1 19.9904 216.82 19.7604C216.54 19.5304 216.67 19.6204 216.2 19.6404C215.73 19.6604 215.28 19.0604 215.28 19.0604H214.88C214.44 19.4004 214.08 19.1304 214.08 19.1304C214.08 19.1304 213.6 19.6604 213.46 19.7904C213.32 19.9204 213.29 19.8504 213.29 19.8504C213.11 19.8304 213.23 19.9604 213.23 19.9604C213.29 20.2804 213.18 20.3104 213.18 20.3104C212.93 20.6004 212.86 20.5504 212.81 20.4604C212.76 20.3604 212.79 20.2604 212.26 20.4504C211.73 20.6404 211.89 20.3504 211.64 20.4704C211.39 20.5904 211.21 20.3804 211.21 20.3804C210.68 19.8204 210.53 20.0604 210.06 19.8404C209.59 19.6204 209.76 19.3404 209.73 19.1004C209.7 18.8604 209.49 19.0104 209.3 18.9604C209.1 18.9004 209.17 18.6104 209.18 18.3004C209.19 17.9904 209.12 17.9404 209.12 17.9404C208.95 17.9004 208.78 18.1204 208.78 18.1204C208.74 18.3804 207.73 18.9704 207.5 18.5504C207.06 17.7704 206.89 17.8504 206.89 17.8504C206.72 17.9004 206.75 18.3404 206.75 18.3404ZM206.4 34.3104H220.91V32.2604H206.4V34.3104ZM210.12 14.0204L211.03 13.7104L211.52 17.6104H210.7L210.12 14.0204ZM206.07 32.0004L206.44 31.6404C206.44 31.6404 205.07 30.4104 204.48 29.3704L209.44 31.9404H209.6L204.07 28.5804L203.68 27.7104L210.09 31.9504H210.27L203.37 26.8904C203.37 26.8904 203.14 25.9904 203.11 25.7704L210.62 31.9504H210.88L203.02 24.7404V23.8204L211.15 31.9604H211.32L203.07 22.9504L203.26 21.8204L211.52 31.9604H211.71L203.44 20.9404L203.8 19.9904L211.87 31.9604H212.04L204.15 19.1404L204.74 18.1504L209.13 26.2004C209.13 26.2004 209.25 26.0004 209.47 26.0004L208.35 23.7304C208.35 23.7304 207.84 23.6804 207.82 23.1104C207.82 23.1104 207.76 22.9604 207.61 22.7804C207.47 22.6004 207.73 22.2304 207.5 21.9904L205.25 17.4504L205.93 16.6404L206.54 18.0504C206.54 18.0504 206.64 17.5004 207.06 17.7004L207.61 18.4404L206.65 15.9504L207.46 15.3104L208.47 18.2504C208.47 18.2504 208.45 18.3404 208.58 18.0204C208.68 17.7804 209 17.7404 209 17.7404L208.21 14.8204L209.22 14.3104L209.93 17.9204C209.93 17.9204 210.36 18.3704 210.03 18.5804C210.03 18.5804 209.95 18.6804 209.82 18.5404L209.88 19.4404C209.88 19.4404 209.85 19.6804 210.4 19.7204C210.95 19.7704 211.22 20.2004 211.39 20.3004C211.57 20.4004 211.59 20.1704 211.81 20.2504C212.03 20.3404 211.91 20.4904 212.67 20.1304C212.67 20.1304 212.83 20.0104 212.88 20.2304C212.88 20.2304 212.91 20.3904 213.05 20.1904C213.05 20.1904 213.02 19.8404 212.97 19.6504C212.92 19.4604 212.89 18.8404 213.04 18.4804C213.04 18.4804 213.08 18.3804 212.94 18.4604C212.81 18.5404 212.71 18.7104 212.55 18.3404C212.55 18.3404 212.38 18.1404 212.41 17.7804L212.14 17.7404C212.14 17.7404 212.39 17.6704 212.22 16.7404L212 13.4904L213.04 13.4004L213.25 19.6004C213.25 19.6004 213.3 19.7104 213.45 19.5004C213.59 19.2904 213.82 19.0904 213.82 19.0904V13.4004L214.88 13.5004L214.61 18.9804C214.61 18.9804 214.94 18.7604 215.32 18.8904L215.85 13.6704L216.81 13.9504L216 19.4004C216 19.4004 216.11 19.3904 216.35 19.3704C216.55 19.3504 216.67 19.4304 216.67 19.4304L217.69 14.2804L218.66 14.7904L217.43 19.7904C217.43 19.7904 217.37 19.9504 217.48 20.0004C217.58 20.0504 217.85 20.0904 217.93 20.2204L219.42 15.2304L220.23 15.8404L217.69 23.2104C217.69 23.2104 217.79 23.8604 217.79 24.1304C217.79 24.1304 217.87 24.2604 217.93 24.0904C218 23.9204 220.97 16.5004 220.97 16.5004L221.67 17.2504L218.39 24.3404C218.39 24.3404 218.77 24.6504 218.46 24.9204C218.05 25.2704 217.93 25.3504 218.09 25.8404C218.09 25.8404 218.12 25.9204 218.2 25.7504L222.22 17.9804L222.77 18.9104L218.43 26.3804L218.63 26.5504C218.63 26.5504 218.75 26.6304 218.83 26.5004C218.9 26.3804 223.2 19.7904 223.2 19.7904L223.53 20.7204L219.02 26.9904C219.02 26.9904 218.89 27.5404 219.23 27.3504L223.76 21.5804L223.96 22.6704L218.4 29.0404C218.4 29.0404 218.26 29.2904 218.56 29.2404L224 23.6504V24.6204L218.72 29.6004C218.72 29.6004 218.74 29.7404 218.57 29.7504L216.36 31.9304H216.6L223.85 25.5504L223.65 26.6104L216.94 31.9304H217.2L223.35 27.4904L222.97 28.4304L217.66 31.9304H217.82L222.55 29.1604C222.55 29.1604 221.92 30.3704 220.75 31.3704C220.75 31.3704 220.7 31.4604 221.13 31.8004V34.6004H206.08L206.07 32.0004Z" fill="white"/>
<path fill-rule="evenodd" clip-rule="evenodd" d="M213.44 22.4748L213.38 22.8148C213.38 22.8148 213.24 22.7548 213.17 22.6848C213.17 22.6848 213.08 22.8248 213.35 22.9848L213.34 23.3248C213.34 23.3248 213.19 23.3048 212.95 23.0548C212.95 23.0548 212.82 23.3448 213.31 23.5848L213.32 23.8848C213.32 23.8848 213.02 23.7848 212.81 23.5748C212.81 23.5748 212.69 24.0548 213.28 24.2748L213.29 24.5548C213.29 24.5548 213.07 24.5648 212.59 24.0648C212.59 24.0648 212.67 24.9148 213.45 24.9948C214.24 24.9148 214.31 24.0648 214.31 24.0648C213.83 24.5648 213.61 24.5548 213.61 24.5548L213.62 24.2748C214.21 24.0448 214.09 23.5748 214.09 23.5748C213.88 23.7848 213.58 23.8848 213.58 23.8848L213.59 23.5848C214.08 23.3448 213.95 23.0548 213.95 23.0548C213.71 23.3148 213.56 23.3248 213.56 23.3248L213.55 22.9848C213.82 22.8248 213.73 22.6848 213.73 22.6848C213.66 22.7648 213.52 22.8148 213.52 22.8148L213.44 22.4748ZM214.5 24.9448C214.23 25.2348 213.85 25.3248 213.85 25.3248L213.89 25.5048C213.74 25.5948 213.3 25.5348 213.3 25.5348V25.3848C212.92 25.3648 212.58 25.1248 212.58 25.1248L212.46 25.2848C212.27 25.1648 212.06 24.9448 212.06 24.9448L212.19 24.7748C211.95 24.5648 211.85 24.1448 211.85 24.1448H211.59V23.6148L211.83 23.6048C211.83 23.2548 212.01 22.9848 212.01 22.9848L211.83 22.7948C211.83 22.7248 212.19 22.3848 212.19 22.3848L212.43 22.4948C212.52 22.3448 212.98 22.1548 212.98 22.1548C212.96 22.0948 212.95 21.8948 212.95 21.8948L213.52 21.8848L213.53 22.1348C213.73 22.1348 214.15 22.2948 214.15 22.2948L214.31 22.1048C214.4 22.1448 214.76 22.4448 214.76 22.4448L214.56 22.6348C214.93 22.9448 214.96 23.2948 214.96 23.2948L215.23 23.2748L215.25 23.8248L215.02 23.8448C215.01 24.2348 214.85 24.5248 214.85 24.5248C214.85 24.5448 215.03 24.6548 215.03 24.6548L214.63 25.0848C214.66 25.0848 214.52 24.9248 214.5 24.9448Z" fill="white"/>
<path d="M211.859 21.5935C212.379 21.0235 213.239 20.9935 213.239 20.9935C214.779 20.8835 215.759 22.0635 215.969 22.6835C216.169 23.3035 216.099 24.2335 216.089 24.6735C216.079 25.1035 216.939 25.4535 216.939 25.4535L216.569 26.0735C216.569 26.0735 216.149 25.9235 215.909 25.6835C215.439 25.2135 215.399 24.5935 215.399 24.5935L215.179 24.4535C215.289 24.2235 215.329 23.9335 215.329 23.9335L215.589 23.9035C215.619 23.3635 215.479 22.9635 215.479 22.9635L215.239 23.0535C215.169 22.7835 214.959 22.5535 214.959 22.5535L215.099 22.4135C214.859 22.0335 214.369 21.7735 214.369 21.7735L214.199 21.9935C214.059 21.8935 213.759 21.8735 213.759 21.8735L213.739 21.6135C213.259 21.5635 212.799 21.6535 212.799 21.6535L212.819 21.9535L212.319 22.2035L211.859 21.5935Z" fill="white"/>
<path d="M210.319 21.291C210.579 21.341 211.079 21.751 211.079 21.751C211.509 22.161 211.439 22.801 211.439 22.801L211.669 22.921C211.579 23.141 211.559 23.431 211.559 23.431H211.309C211.239 23.921 211.419 24.441 211.419 24.441L211.649 24.381C211.749 24.611 211.919 24.791 211.919 24.791L211.709 24.961C211.929 25.371 212.459 25.601 212.459 25.601L212.609 25.421C212.609 25.431 213.069 25.581 213.069 25.581L213.089 25.831C213.089 25.831 213.609 25.921 214.079 25.761L214.019 25.501L214.539 25.271L214.949 25.871C213.789 26.651 212.419 26.361 211.529 25.581C210.699 24.861 210.769 23.481 210.789 23.141C210.789 23.141 210.819 22.891 210.759 22.581C210.689 22.251 209.969 21.911 209.969 21.911C209.969 21.911 210.309 21.291 210.319 21.291Z" fill="white"/>
<path fill-rule="evenodd" clip-rule="evenodd" d="M216.289 33.667C216.289 33.727 216.049 33.917 215.939 34.007C215.929 34.017 215.899 34.037 215.929 34.047C215.979 34.067 216.049 34.077 216.169 34.077C216.439 34.077 216.429 33.517 216.269 33.267C216.259 33.247 216.239 33.247 216.229 33.267C216.219 33.297 216.159 33.397 216.149 33.417C216.129 33.457 216.129 33.457 216.149 33.477C216.179 33.517 216.289 33.617 216.289 33.667Z" fill="white"/>
<path fill-rule="evenodd" clip-rule="evenodd" d="M217.638 33.5957C217.638 33.6857 217.618 33.7357 217.588 33.7357C217.508 33.7357 217.428 33.7057 217.378 33.6557C217.318 33.5857 217.338 33.4757 217.298 33.4757C217.278 33.4757 217.178 33.6257 217.098 33.6857C217.038 33.7257 216.978 33.7357 216.898 33.7357H216.878C216.838 33.7357 216.818 33.6357 216.818 33.5857C216.818 33.5257 216.838 33.4557 216.868 33.4557H217.098C217.178 33.4557 217.278 33.4157 217.278 33.3757C217.278 33.3657 217.118 33.3057 217.078 33.3057C217.048 33.3157 217.018 33.3357 216.998 33.3757C216.988 33.4057 216.938 33.3857 216.938 33.3557C216.948 33.3257 216.958 33.2457 216.978 33.2057C216.998 33.1457 217.038 33.0957 217.108 33.0957C217.168 33.0957 217.268 33.1457 217.548 33.1957C217.558 33.1957 217.568 33.2057 217.558 33.2157C217.558 33.2357 217.538 33.3257 217.518 33.4057C217.518 33.4157 217.508 33.4157 217.498 33.4157C217.478 33.4157 217.398 33.3957 217.398 33.4157C217.398 33.4457 217.478 33.4457 217.588 33.4457C217.618 33.4457 217.638 33.4957 217.638 33.5957ZM217.338 34.0357C217.338 34.0457 217.338 34.0457 217.338 34.0557L217.238 34.1557C217.228 34.1657 217.218 34.1657 217.218 34.1557L217.108 34.0557C217.108 34.0457 217.108 34.0357 217.108 34.0357L217.218 33.9357C217.228 33.9257 217.228 33.9357 217.238 33.9357L217.338 34.0357Z" fill="white"/>
<path fill-rule="evenodd" clip-rule="evenodd" d="M220.72 33.2235C220.75 33.3635 220.74 33.4735 220.66 33.6035C220.62 33.6735 220.52 33.7235 220.43 33.7235H220.42C220.38 33.7235 220.36 33.6335 220.36 33.5835C220.36 33.5235 220.37 33.4435 220.41 33.4435C220.41 33.4435 220.56 33.4435 220.59 33.4435C220.64 33.4335 220.65 33.4035 220.63 33.3735C220.62 33.3435 220.6 33.3135 220.53 33.2635C220.5 33.2435 220.5 33.2435 220.52 33.2235C220.52 33.2235 220.57 33.1135 220.6 33.0635C220.61 33.0335 220.63 33.0335 220.65 33.0635C220.67 33.0835 220.71 33.1735 220.72 33.2235ZM220.52 34.0435C220.53 34.0535 220.52 34.0535 220.52 34.0635L220.44 34.1535C220.43 34.1635 220.43 34.1635 220.42 34.1535L220.33 34.0635C220.32 34.0535 220.32 34.0535 220.33 34.0435L220.42 33.9535C220.43 33.9535 220.43 33.9535 220.44 33.9535L220.52 34.0435Z" fill="white"/>
<path fill-rule="evenodd" clip-rule="evenodd" d="M218.868 32.747C218.828 32.767 218.668 32.837 218.668 32.947C218.668 33.057 218.878 33.037 218.788 33.117C218.698 33.197 218.718 33.257 218.828 33.207C218.908 33.167 218.968 33.037 218.878 32.967C218.798 32.907 218.708 33.007 218.908 32.817C218.918 32.817 218.918 32.727 218.868 32.747Z" fill="white"/>
<path fill-rule="evenodd" clip-rule="evenodd" d="M215.808 33.1332C215.918 33.2632 215.928 33.4532 215.808 33.5832C215.688 33.7132 215.518 33.7432 215.148 33.7232C215.058 33.7132 215.008 33.6932 214.968 33.6532C214.898 33.5832 214.888 33.3932 214.918 33.2332C214.938 33.1632 214.988 33.1532 214.978 33.2432C214.968 33.3332 215.018 33.3832 215.088 33.4132C215.198 33.4532 215.628 33.4232 215.738 33.4132C215.798 33.4032 215.778 33.3732 215.768 33.3632C215.758 33.3432 215.748 33.3332 215.698 33.3032C215.678 33.2832 215.678 33.2832 215.688 33.2632C215.688 33.2632 215.728 33.1832 215.758 33.1332C215.778 33.1132 215.788 33.1132 215.808 33.1332ZM215.648 32.9632C215.658 32.9632 215.648 32.9732 215.648 32.9832L215.548 33.0832C215.538 33.0932 215.538 33.0932 215.528 33.0832L215.428 32.9832C215.418 32.9832 215.418 32.9732 215.428 32.9632L215.528 32.8632C215.538 32.8532 215.538 32.8632 215.548 32.8632L215.648 32.9632ZM215.398 32.9732L215.298 33.0732C215.288 33.0832 215.288 33.0832 215.278 33.0732L215.178 32.9732C215.168 32.9732 215.168 32.9632 215.178 32.9532L215.278 32.8532C215.288 32.8432 215.288 32.8432 215.298 32.8532L215.398 32.9532C215.408 32.9632 215.408 32.9632 215.398 32.9732Z" fill="white"/>
<path fill-rule="evenodd" clip-rule="evenodd" d="M216.92 33.5907C216.92 33.5007 216.9 33.4507 216.87 33.4507H216.81C216.76 33.4507 216.71 33.4607 216.68 33.4207C216.65 33.3707 216.66 32.8907 216.66 32.8407C216.66 32.7907 216.64 32.7807 216.62 32.8007C216.59 32.8307 216.53 32.8907 216.52 32.9107C216.51 32.9207 216.51 32.9307 216.51 32.9407C216.52 33.1007 216.53 33.3507 216.53 33.4107C216.53 33.5107 216.55 33.6007 216.58 33.6507C216.61 33.7007 216.67 33.7307 216.81 33.7307H216.86C216.9 33.7307 216.92 33.6807 216.92 33.5907Z" fill="white"/>
<path fill-rule="evenodd" clip-rule="evenodd" d="M217.908 33.2207C217.938 33.3607 217.928 33.4707 217.848 33.6007C217.808 33.6707 217.718 33.7207 217.618 33.7207H217.608C217.568 33.7207 217.558 33.6307 217.558 33.5807C217.558 33.5207 217.568 33.4407 217.608 33.4407C217.608 33.4407 217.758 33.4407 217.788 33.4407C217.838 33.4307 217.848 33.4007 217.828 33.3707C217.818 33.3407 217.798 33.3107 217.728 33.2607C217.698 33.2407 217.698 33.2407 217.718 33.2207C217.718 33.2207 217.768 33.1107 217.798 33.0607C217.818 33.0307 217.828 33.0307 217.848 33.0607C217.848 33.0807 217.888 33.1707 217.908 33.2207ZM218.038 32.6407C218.048 32.6507 218.048 32.6507 218.038 32.6607L217.938 32.7607C217.928 32.7707 217.928 32.7707 217.918 32.7607L217.808 32.6607C217.798 32.6607 217.798 32.6507 217.808 32.6407L217.918 32.5407C217.918 32.5307 217.928 32.5307 217.938 32.5407L218.038 32.6407ZM217.768 32.6707L217.668 32.7707C217.658 32.7807 217.648 32.7807 217.648 32.7707L217.558 32.6807C217.548 32.6707 217.548 32.6707 217.558 32.6607L217.658 32.5607C217.658 32.5507 217.668 32.5507 217.678 32.5607L217.778 32.6607C217.778 32.6507 217.778 32.6607 217.768 32.6707Z" fill="white"/>
<path fill-rule="evenodd" clip-rule="evenodd" d="M219.628 33.5931C219.628 33.5431 219.628 33.4531 219.588 33.4531H219.578C219.498 33.4531 219.418 33.4231 219.378 33.3831C219.348 33.3531 219.408 32.9831 219.358 32.6431C219.388 32.6331 219.238 32.7731 219.238 32.7831C219.238 32.8031 219.238 32.8031 219.248 32.8131C219.258 32.9431 219.248 33.3331 219.228 33.3931C219.218 33.4231 219.168 33.4431 219.088 33.4431H218.598C218.458 33.4431 218.408 33.3631 218.408 33.3031C218.408 33.2931 218.408 33.2831 218.408 33.2431C218.408 33.1831 218.368 33.1731 218.348 33.2431C218.338 33.2931 218.328 33.4331 218.338 33.5131C218.338 33.5831 218.378 33.7131 218.578 33.7131H219.048C219.178 33.7131 219.258 33.6131 219.278 33.5831C219.308 33.5431 219.318 33.5031 219.328 33.5031C219.348 33.5031 219.398 33.7631 219.588 33.7131C219.618 33.7231 219.628 33.6531 219.628 33.5931Z" fill="white"/>
<path fill-rule="evenodd" clip-rule="evenodd" d="M219.899 33.2254C219.929 33.3654 219.919 33.4754 219.829 33.6054C219.789 33.6754 219.689 33.7254 219.609 33.7254H219.589C219.549 33.7254 219.539 33.6354 219.539 33.5854C219.539 33.5254 219.549 33.4454 219.579 33.4454C219.579 33.4454 219.729 33.4454 219.759 33.4454C219.799 33.4354 219.819 33.4054 219.799 33.3754C219.789 33.3454 219.759 33.3154 219.699 33.2654C219.679 33.2454 219.679 33.2454 219.689 33.2254C219.689 33.2254 219.739 33.1154 219.769 33.0654C219.779 33.0354 219.799 33.0354 219.819 33.0654C219.839 33.0854 219.889 33.1754 219.899 33.2254ZM219.819 32.6154C219.829 32.6254 219.819 32.6254 219.819 32.6354L219.729 32.7254C219.719 32.7354 219.719 32.7354 219.709 32.7254L219.619 32.6354C219.609 32.6254 219.609 32.6254 219.619 32.6154L219.709 32.5254C219.719 32.5254 219.719 32.5254 219.729 32.5254L219.819 32.6154Z" fill="white"/>
<path fill-rule="evenodd" clip-rule="evenodd" d="M220.459 33.5907C220.459 33.5007 220.449 33.4507 220.409 33.4507H220.349C220.299 33.4507 220.249 33.4607 220.219 33.4207C220.179 33.3707 220.189 32.8907 220.189 32.8407C220.189 32.7907 220.169 32.7807 220.149 32.8007C220.119 32.8307 220.059 32.8907 220.049 32.9107C220.039 32.9207 220.039 32.9307 220.039 32.9407C220.049 33.1007 220.059 33.3507 220.059 33.4107C220.059 33.5107 220.079 33.6007 220.109 33.6507C220.149 33.7007 220.199 33.7307 220.339 33.7307H220.389C220.439 33.7307 220.459 33.6807 220.459 33.5907Z" fill="white"/>
<path fill-rule="evenodd" clip-rule="evenodd" d="M212.089 32.9838V33.2038H212.259C212.289 33.2038 212.309 33.1938 212.329 33.1838C212.349 33.1638 212.359 33.1338 212.359 33.0938C212.359 33.0438 212.349 33.0138 212.319 33.0038C212.299 32.9938 212.269 32.9838 212.239 32.9838H212.089ZM212.089 33.3638V33.6338H212.259C212.289 33.6338 212.309 33.6238 212.329 33.6138C212.359 33.5938 212.379 33.5538 212.379 33.4938C212.379 33.4438 212.369 33.4038 212.329 33.3838C212.309 33.3738 212.289 33.3638 212.259 33.3638H212.089ZM212.469 32.9138C212.489 32.9538 212.499 33.0038 212.499 33.0638C212.499 33.1238 212.489 33.1738 212.469 33.2138C212.459 33.2338 212.439 33.2538 212.419 33.2738C212.459 33.2938 212.479 33.3238 212.499 33.3638C212.519 33.4038 212.529 33.4538 212.529 33.5138C212.529 33.5738 212.519 33.6238 212.499 33.6738C212.489 33.7038 212.469 33.7338 212.449 33.7538C212.429 33.7738 212.399 33.7938 212.369 33.8038C212.339 33.8138 212.309 33.8138 212.269 33.8138H211.959V32.8238H212.299C212.379 32.8138 212.439 32.8538 212.469 32.9138Z" fill="white"/>
<path fill-rule="evenodd" clip-rule="evenodd" d="M212.869 33.4345H213.039L212.949 33.0445L212.869 33.4345ZM212.879 32.8145H213.039L213.289 33.8045H213.129L213.079 33.6045H212.829L212.779 33.8045H212.629L212.879 32.8145Z" fill="white"/>
<path fill-rule="evenodd" clip-rule="evenodd" d="M213.389 32.8145H213.549L213.829 33.5045V32.8145H213.969V33.8045H213.819L213.529 33.1045V33.8045H213.389V32.8145Z" fill="white"/>
<path fill-rule="evenodd" clip-rule="evenodd" d="M214.158 32.7754H214.298V33.2054L214.558 32.7754H214.748L214.468 33.2054L214.768 33.8054H214.578L214.368 33.3554L214.298 33.4554V33.8054H214.158V32.7754Z" fill="white"/>
<path fill-rule="evenodd" clip-rule="evenodd" d="M207.209 32.8457V33.0157H206.989V33.8357H206.839V33.0157H206.629V32.8457H207.209Z" fill="white"/>
<path fill-rule="evenodd" clip-rule="evenodd" d="M207.939 33.0157H207.539V33.2257H207.909V33.4057H207.539V33.6557H207.959V33.8357H207.389V32.8457H207.939V33.0157Z" fill="white"/>
<path fill-rule="evenodd" clip-rule="evenodd" d="M208.218 33.4345V33.4545C208.218 33.5345 208.228 33.5845 208.238 33.6145C208.248 33.6445 208.278 33.6545 208.318 33.6545C208.358 33.6545 208.378 33.6345 208.388 33.6045C208.398 33.5845 208.398 33.5545 208.398 33.5045V32.8145H208.558V33.5045C208.558 33.5845 208.548 33.6545 208.528 33.7045C208.488 33.7845 208.418 33.8245 208.318 33.8245C208.218 33.8245 208.148 33.7945 208.118 33.7245C208.088 33.6545 208.068 33.5645 208.068 33.4445V33.4245H208.218V33.4345Z" fill="white"/>
<path fill-rule="evenodd" clip-rule="evenodd" d="M208.959 33.4657H209.139L209.049 33.0757L208.959 33.4657ZM208.969 32.8457H209.129L209.379 33.8357H209.219L209.179 33.6357H208.919L208.869 33.8357H208.719L208.969 32.8457Z" fill="white"/>
<path fill-rule="evenodd" clip-rule="evenodd" d="M209.68 32.971V33.241H209.86C209.9 33.241 209.92 33.241 209.94 33.221C209.97 33.201 209.99 33.161 209.99 33.111C209.99 33.051 209.97 33.011 209.94 32.981C209.92 32.971 209.9 32.961 209.86 32.961H209.68V32.971ZM210.02 32.821C210.05 32.831 210.07 32.861 210.1 32.891C210.12 32.921 210.13 32.951 210.14 32.981C210.15 33.011 210.16 33.051 210.16 33.091C210.16 33.141 210.15 33.191 210.13 33.231C210.11 33.281 210.08 33.311 210.04 33.331C210.07 33.351 210.1 33.381 210.11 33.411C210.13 33.441 210.13 33.501 210.13 33.571V33.641C210.13 33.691 210.13 33.721 210.14 33.731C210.14 33.761 210.15 33.771 210.17 33.791V33.821H209.99C209.99 33.801 209.98 33.781 209.98 33.771C209.98 33.741 209.97 33.711 209.97 33.681V33.591C209.97 33.521 209.96 33.481 209.94 33.461C209.92 33.441 209.89 33.431 209.84 33.431H209.68V33.831H209.52V32.791H209.89C209.95 32.791 209.99 32.801 210.02 32.821Z" fill="white"/>
<path fill-rule="evenodd" clip-rule="evenodd" d="M210.568 33.4266H210.748L210.658 33.0366L210.568 33.4266ZM210.578 32.8066H210.738L210.988 33.7966H210.828L210.788 33.5966H210.528L210.478 33.7966H210.328L210.578 32.8066Z" fill="white"/>
<path fill-rule="evenodd" clip-rule="evenodd" d="M211.6 32.8066V32.9866H211.38V33.7966H211.23V32.9866H211.02V32.8066H211.6Z" fill="white"/>
</g>
<defs>
<linearGradient id="paint0_linear_780_7875" x1="126.493" y1="22.7289" x2="104.43" y2="204.248" gradientUnits="userSpaceOnUse">
<stop stop-color="#1D327B"/>
<stop offset="1" stop-color="#85C7EE"/>
</linearGradient>
<linearGradient id="paint1_linear_780_7875" x1="18.1144" y1="135.485" x2="19.7244" y2="153.295" gradientUnits="userSpaceOnUse">
<stop stop-color="#009FE3"/>
<stop offset="1" stop-color="#4F96CE"/>
</linearGradient>
<linearGradient id="paint2_linear_780_7875" x1="28.9802" y1="119.443" x2="32.6102" y2="153.443" gradientUnits="userSpaceOnUse">
<stop stop-color="#009FE3"/>
<stop offset="1" stop-color="#4F96CE"/>
</linearGradient>
<linearGradient id="paint3_linear_780_7875" x1="36.0536" y1="103.655" x2="42.2336" y2="153.525" gradientUnits="userSpaceOnUse">
<stop stop-color="#009FE3"/>
<stop offset="1" stop-color="#4F96CE"/>
</linearGradient>
<linearGradient id="paint4_linear_780_7875" x1="41.9858" y1="84.8047" x2="51.8258" y2="153.515" gradientUnits="userSpaceOnUse">
<stop stop-color="#009FE3"/>
<stop offset="1" stop-color="#4F96CE"/>
</linearGradient>
<linearGradient id="paint5_linear_780_7875" x1="45.498" y1="63.994" x2="60.348" y2="153.314" gradientUnits="userSpaceOnUse">
<stop stop-color="#009FE3"/>
<stop offset="1" stop-color="#4F96CE"/>
</linearGradient>
<linearGradient id="paint6_linear_780_7875" x1="47.5875" y1="41.8802" x2="68.6775" y2="152.91" gradientUnits="userSpaceOnUse">
<stop stop-color="#009FE3"/>
<stop offset="1" stop-color="#4F96CE"/>
</linearGradient>
<linearGradient id="paint7_linear_780_7875" x1="57.8696" y1="32.7664" x2="83.8396" y2="152.236" gradientUnits="userSpaceOnUse">
<stop stop-color="#009FE3"/>
<stop offset="1" stop-color="#4F96CE"/>
</linearGradient>
<linearGradient id="paint8_linear_780_7875" x1="71.9521" y1="34.759" x2="101.312" y2="150.289" gradientUnits="userSpaceOnUse">
<stop stop-color="#009FE3"/>
<stop offset="1" stop-color="#4F96CE"/>
</linearGradient>
<linearGradient id="paint9_linear_780_7875" x1="84.1187" y1="37.0367" x2="117.229" y2="148.337" gradientUnits="userSpaceOnUse">
<stop stop-color="#009FE3"/>
<stop offset="1" stop-color="#4F96CE"/>
</linearGradient>
<linearGradient id="paint10_linear_780_7875" x1="95.5558" y1="41.0615" x2="133.036" y2="146.052" gradientUnits="userSpaceOnUse">
<stop stop-color="#009FE3"/>
<stop offset="1" stop-color="#4F96CE"/>
</linearGradient>
<linearGradient id="paint11_linear_780_7875" x1="107.062" y1="47.5083" x2="148.312" y2="143.568" gradientUnits="userSpaceOnUse">
<stop stop-color="#009FE3"/>
<stop offset="1" stop-color="#4F96CE"/>
</linearGradient>
<linearGradient id="paint12_linear_780_7875" x1="116.123" y1="52.783" x2="162.803" y2="139.933" gradientUnits="userSpaceOnUse">
<stop stop-color="#009FE3"/>
<stop offset="1" stop-color="#4F96CE"/>
</linearGradient>
<linearGradient id="paint13_linear_780_7875" x1="127.11" y1="67.176" x2="175.73" y2="135.106" gradientUnits="userSpaceOnUse">
<stop stop-color="#009FE3"/>
<stop offset="1" stop-color="#4F96CE"/>
</linearGradient>
<linearGradient id="paint14_linear_780_7875" x1="139.632" y1="84.5446" x2="185.642" y2="129.135" gradientUnits="userSpaceOnUse">
<stop stop-color="#009FE3"/>
<stop offset="1" stop-color="#4F96CE"/>
</linearGradient>
<linearGradient id="paint15_linear_780_7875" x1="155.229" y1="102.304" x2="190.229" y2="121.374" gradientUnits="userSpaceOnUse">
<stop stop-color="#009FE3"/>
<stop offset="1" stop-color="#4F96CE"/>
</linearGradient>
<clipPath id="clip0_780_7875">
<rect width="240" height="153" fill="white"/>
</clipPath>
</defs>
</svg>
