<svg width="240" height="154" viewBox="0 0 240 154" fill="none" xmlns="http://www.w3.org/2000/svg">
<g clip-path="url(#clip0_410_7964)">
<rect x="240" width="153.412" height="40" transform="rotate(90 240 0)" fill="#19305A"/>
<rect x="200" width="153.412" height="40" transform="rotate(90 200 0)" fill="#1A4789"/>
<rect x="160" width="153.412" height="40" transform="rotate(90 160 0)" fill="#3371B7"/>
<rect x="120" width="153.412" height="40" transform="rotate(90 120 0)" fill="#9FCBED"/>
<rect x="80" width="153.412" height="40" transform="rotate(90 80 0)" fill="#96AD3C"/>
<rect x="40" width="153.412" height="40" transform="rotate(90 40 0)" fill="#C4D930"/>
<path d="M42.0156 20.536H41.4801C37.7401 20.536 33.9916 20.536 30.2516 20.536C29.1453 20.4994 28.0417 20.4136 26.9451 20.2788C26.4861 20.241 26.0186 20.2259 25.5596 20.1956L25.4746 19.8931C26.0341 19.7898 26.6033 19.7341 27.1746 19.7267C27.2511 19.8251 27.3021 19.7948 27.3361 19.7267C28.1436 19.6889 28.9511 19.6133 29.7501 19.6133C33.7451 19.6133 37.7486 19.6133 41.7436 19.6133H41.9901L42.0496 19.6662C42.0496 19.9385 42.0496 20.2032 42.0496 20.4755L42.0156 20.536Z" fill="#1E3E81"/>
<path d="M42.0755 28.0116V28.7679L42.0074 28.8359H40.4095H29.1299C28.8968 28.8573 28.6614 28.8446 28.4329 28.7981C28.3649 28.6696 28.28 28.6696 28.1865 28.7981C27.8287 28.817 27.4696 28.8018 27.1154 28.7528C27.1154 28.662 27.0304 28.6317 26.9539 28.7528C26.4839 28.749 26.0159 28.6957 25.56 28.5939C25.492 28.2839 25.9254 28.4881 25.9679 28.2839L27.6169 28.178C27.6934 28.2687 27.7444 28.2309 27.7784 28.1402C28.5681 28.0293 29.3688 27.9938 30.1669 28.0343C30.2519 28.1175 30.3625 28.1024 30.473 28.1024H36.5079C36.6184 28.1024 36.763 28.1477 36.8225 28.0116C37.2291 27.9701 37.6398 27.9701 38.0464 28.0116H41.9309C41.9529 28.0229 41.9778 28.0288 42.0032 28.0288C42.0286 28.0288 42.0535 28.0229 42.0755 28.0116Z" fill="#1E3E81"/>
<path d="M19.5605 26.1664C19.5605 26.0756 19.5605 25.9773 19.5605 25.879L24.4396 25.9244C26.5602 25.9334 28.6798 25.84 30.7891 25.6445C30.9931 25.6445 31.1971 25.6445 31.4011 25.6445H41.6436C42.0261 25.6445 42.1026 25.7428 42.1196 26.0681C42.1366 26.3933 41.9751 26.4765 41.6266 26.4765C38.0481 26.4765 34.4696 26.4765 30.8911 26.4765C29.1486 26.4765 27.4061 26.2647 25.6551 26.2193C23.6547 26.1084 21.6232 26.0907 19.5605 26.1664Z" fill="#1E3E81"/>
<path d="M37.4002 22.0587C38.9132 22.0057 40.4177 22.0587 41.9307 22.0587C41.9306 22.0749 41.9343 22.091 41.9418 22.1059C41.9492 22.1207 41.9602 22.134 41.9739 22.1448C41.9876 22.1555 42.0037 22.1635 42.0212 22.1682C42.0387 22.173 42.0571 22.1743 42.0752 22.1721V22.8301C42.0578 22.828 42.0401 22.8291 42.0232 22.8334C42.0063 22.8376 41.9905 22.845 41.977 22.8549C41.9634 22.8649 41.9523 22.8772 41.9443 22.8912C41.9364 22.9051 41.9317 22.9204 41.9307 22.936H41.4377H31.9432C30.8792 22.9054 29.8179 22.8221 28.7642 22.6864C28.7642 22.5956 28.6792 22.5654 28.6027 22.6864C28.2449 22.7054 27.8859 22.6902 27.5317 22.641C27.4042 22.4822 27.2682 22.5276 27.1237 22.641H26.0527V22.3839H27.1152C27.1832 22.4746 27.2427 22.4595 27.2852 22.3839C27.6364 22.3337 27.9922 22.3134 28.3477 22.3234C28.4157 22.4217 28.4752 22.399 28.5177 22.3234C28.8428 22.2704 29.1742 22.2552 29.5037 22.278C29.6057 22.3688 29.6907 22.3688 29.7502 22.278C30.1329 22.229 30.5202 22.2138 30.9062 22.2326C30.9912 22.3234 31.1017 22.3007 31.2122 22.3007H37.1027C37.2047 22.1646 37.3407 22.2024 37.4002 22.0587Z" fill="#1E3E81"/>
<path d="M30.8233 21.7257C29.8628 21.7257 28.9023 21.5971 27.9418 21.5366C27.8993 21.4383 27.8483 21.4156 27.7803 21.5366C27.3403 21.5456 26.9001 21.5279 26.4628 21.4837C26.4203 21.3551 26.1398 21.3778 26.2163 21.1736H26.5478C26.6498 21.2719 26.7348 21.2719 26.7943 21.1358C28.0797 20.9835 29.3737 20.8951 30.6703 20.8711C34.2913 20.8711 37.9038 20.8711 41.5248 20.8711H42.0178L42.0773 20.9316V21.6879H31.2908C31.1548 21.6274 30.9593 21.6274 30.8233 21.7257Z" fill="#1E3E81"/>
<path d="M29.0099 27.5721C28.1599 27.5721 27.3694 27.3755 26.5449 27.3225V27.0125C27.9134 26.9595 29.2819 26.7856 30.6589 26.7704C30.7184 26.8536 30.7779 26.8385 30.8204 26.7704C30.9747 26.7178 31.1417 26.7022 31.3049 26.7251H41.5049C42.1509 26.7251 42.0659 26.6419 42.0744 27.2242C42.0744 27.3225 42.0744 27.4209 42.0744 27.5192H29.5114C29.3414 27.4965 29.1544 27.436 29.0099 27.5721Z" fill="#1E3E81"/>
<path d="M28.4338 25.0077H27.7793C27.7793 24.864 27.8983 24.811 27.9408 24.7052C28.5273 24.6673 29.1138 24.6446 29.7003 24.5917C32.2503 24.3421 34.8938 24.4707 37.4863 24.4404C37.6138 24.5539 37.7668 24.5085 37.9113 24.5085H42.0763C42.0763 25.3026 42.0763 25.3026 41.2263 25.3026C37.9963 25.3026 34.7578 25.3026 31.5278 25.3026C30.5503 25.3026 29.5728 25.1438 28.5953 25.053C28.6038 24.9396 28.5103 24.9169 28.4338 25.0077Z" fill="#1E3E81"/>
<path d="M37.3157 23.2524C37.4075 23.23 37.5014 23.2148 37.5962 23.207H41.9312C41.9312 23.2827 41.9992 23.3053 42.0757 23.3129V23.9709L42.0162 24.0238H37.1202C35.4627 24.0238 33.8052 24.0616 32.1477 24.0238C30.9917 24.0238 29.8357 23.8574 28.6797 23.7667C28.5522 23.6079 28.4162 23.6381 28.2717 23.7667H27.6172V23.502H28.1102C28.2122 23.6003 28.2972 23.5927 28.3567 23.4566H29.2577C29.3342 23.5474 29.3852 23.5171 29.4192 23.4566C29.9828 23.3874 30.5504 23.347 31.1192 23.3356C31.2042 23.4188 31.3147 23.4037 31.4252 23.4037H36.9927C37.1032 23.3356 37.2477 23.3583 37.3157 23.2524Z" fill="#1E3E81"/>
<path d="M27.9384 24.6958C27.8959 24.8017 27.7344 24.8546 27.7769 24.9983C26.2214 24.9983 24.6659 24.9529 23.1104 24.9454C21.8694 24.9454 20.6199 24.9454 19.3789 24.9832V24.6882C20.4329 24.5899 21.4784 24.6882 22.5324 24.6882C24.1134 24.6882 25.7029 24.6882 27.2839 24.6882C27.5134 24.7185 27.7514 24.6504 27.9384 24.6958Z" fill="#1E3E81"/>
<path d="M27.6169 23.4909V23.7556H19.7969V23.506C21.2929 23.4455 22.7974 23.559 24.3019 23.559C25.4069 23.559 26.5034 23.4834 27.6169 23.4909Z" fill="#1E3E81"/>
<path d="M29.0117 27.5773C29.1562 27.4412 29.3432 27.5017 29.5132 27.5017H42.0762C42.0762 27.6832 41.8977 27.6151 41.7957 27.6151C37.5967 27.6151 33.4005 27.6151 29.2072 27.6151C29.1404 27.6105 29.0746 27.5978 29.0117 27.5773V27.5773Z" fill="#1E3E81"/>
<path d="M26.5457 27.0163V27.3263C24.8967 27.2356 23.2392 27.3263 21.5902 27.2734C21.2417 27.3224 20.8883 27.3377 20.5362 27.3188C20.5362 27.2129 20.4767 27.1146 20.4512 27.0163C21.8197 27.0163 23.1797 26.9709 24.5482 27.0163C25.2027 27.0843 25.8742 27.0314 26.5457 27.0163Z" fill="#1E3E81"/>
<path d="M30.8203 21.7241C30.9563 21.6031 31.1348 21.6561 31.2878 21.6561H42.0743C42.0743 21.8603 41.8618 21.7771 41.7513 21.7771H31.1518C31.0243 21.7695 30.9138 21.7998 30.8203 21.7241Z" fill="#1E3E81"/>
<path d="M26.2143 21.1445C26.1378 21.3487 26.4183 21.326 26.4608 21.4546C26.0826 21.4961 25.7 21.4961 25.3218 21.4546C23.8938 21.4546 22.4573 21.4546 21.0293 21.4546V21.1823L26.2143 21.1445Z" fill="#1E3E81"/>
<path d="M26.0531 22.3817V22.6237H20.2051V22.3817C20.6371 22.3363 21.0736 22.3363 21.5056 22.3817C23.0186 22.3817 24.5401 22.3817 26.0531 22.3817Z" fill="#1E3E81"/>
<path d="M25.968 28.1938C25.968 28.398 25.492 28.1938 25.56 28.5039C24.7753 28.4296 23.985 28.4119 23.197 28.451C23.049 28.4561 22.9014 28.4687 22.755 28.4888C22.755 28.33 22.6615 28.2997 22.5085 28.2997C22.3555 28.2997 22.262 28.2997 22.1855 28.2241C22.9444 28.19 23.7047 28.19 24.4635 28.2241C24.965 28.1787 25.4665 28.1938 25.968 28.1938Z" fill="#1E3E81"/>
<path d="M36.8235 27.9216C36.764 28.0577 36.6195 28.0124 36.509 28.0124H30.474C30.3635 28.0124 30.253 28.0124 30.168 27.9443C30.2059 27.9176 30.2497 27.8984 30.2966 27.8879C30.3435 27.8775 30.3924 27.8761 30.44 27.8838H36.628C36.6948 27.8883 36.7606 27.901 36.8235 27.9216V27.9216Z" fill="#1E3E81"/>
<path d="M37.4022 22.0611C37.3427 22.2048 37.2067 22.167 37.0877 22.167H31.2142C31.1037 22.167 30.9932 22.1669 30.9082 22.0989C30.9866 22.0481 31.0842 22.0264 31.1802 22.0384H37.2832L37.4022 22.0611Z" fill="#1E3E81"/>
<path d="M37.3168 23.2529C37.2488 23.3588 37.1298 23.3361 37.0278 23.3361H31.4603C31.3498 23.3361 31.2393 23.3361 31.1543 23.268C31.2315 23.245 31.3113 23.2298 31.3923 23.2227H37.1043C37.1759 23.2276 37.247 23.2377 37.3168 23.2529Z" fill="#1E3E81"/>
<path d="M42.0768 24.5011H37.9543C37.8098 24.5011 37.6568 24.5464 37.5293 24.433C37.6228 24.3574 37.7333 24.3801 37.8438 24.3801H41.8048C41.8728 24.3801 42.0513 24.2969 42.0768 24.5011Z" fill="#1E3E81"/>
<path d="M25.4759 19.918L25.5609 20.2205H22.7559V19.9482C23.6611 20.0252 24.5731 20.015 25.4759 19.918V19.918Z" fill="#1E3E81"/>
<path d="M28.2715 23.7747C28.416 23.6688 28.552 23.6386 28.6795 23.7747C28.6175 23.8066 28.5471 23.8233 28.4755 23.8233C28.4039 23.8233 28.3335 23.8066 28.2715 23.7747Z" fill="#1E3E81"/>
<path d="M27.127 22.6054C27.2715 22.5147 27.4074 22.4693 27.5349 22.6054C27.3904 22.6508 27.2545 22.6886 27.127 22.6054Z" fill="#1E3E81"/>
<path d="M29.7599 29.0279C29.7413 29.0529 29.7161 29.0734 29.6864 29.0875C29.6567 29.1017 29.6236 29.1091 29.5899 29.1091C29.5563 29.1091 29.5231 29.1017 29.4935 29.0875C29.4638 29.0734 29.4385 29.0529 29.4199 29.0279C29.4698 28.997 29.5291 28.9805 29.5899 28.9805C29.6507 28.9805 29.71 28.997 29.7599 29.0279V29.0279Z" fill="#1E3E81"/>
<path d="M19.8809 21.452C19.9744 21.3158 20.0849 21.331 20.2039 21.452C20.1019 21.52 19.9914 21.4898 19.8809 21.452Z" fill="#1E3E81"/>
<path d="M28.3578 23.4381C28.2983 23.5743 28.2133 23.5818 28.1113 23.4835C28.1793 23.4079 28.2643 23.423 28.3578 23.4381Z" fill="#1E3E81"/>
<path d="M28.1895 28.7417C28.283 28.6434 28.3679 28.6434 28.4359 28.7417C28.4011 28.7669 28.3576 28.7806 28.3127 28.7806C28.2678 28.7806 28.2243 28.7669 28.1895 28.7417V28.7417Z" fill="#1E3E81"/>
<path d="M29.7485 22.1423C29.689 22.2633 29.604 22.2633 29.502 22.1423C29.5374 22.1184 29.5807 22.1055 29.6252 22.1055C29.6697 22.1055 29.713 22.1184 29.7485 22.1423V22.1423Z" fill="#1E3E81"/>
<path d="M26.7914 21.1052C26.7319 21.2413 26.6469 21.2413 26.5449 21.143C26.578 21.1169 26.6186 21.0996 26.6621 21.0929C26.7057 21.0862 26.7504 21.0905 26.7914 21.1052Z" fill="#1E3E81"/>
<path d="M42.0765 23.3333C42 23.3333 41.9404 23.3333 41.9319 23.2275C41.9234 23.1216 42.0935 23.2275 42.0765 23.3333Z" fill="#1E3E81"/>
<path d="M42.0762 28.0169C42.0393 28.017 42.0037 28.0045 41.9769 27.982C41.95 27.9595 41.9338 27.9287 41.9316 27.8959C42.0421 27.8657 42.0932 27.911 42.0762 28.0169Z" fill="#1E3E81"/>
<path d="M27.7533 28.0512C27.7533 28.1419 27.6683 28.1797 27.5918 28.089C27.611 28.0686 27.6369 28.054 27.6658 28.0472C27.6947 28.0404 27.7253 28.0418 27.7533 28.0512V28.0512Z" fill="#1E3E81"/>
<path d="M29.4525 23.3867C29.4525 23.4699 29.3675 23.5001 29.291 23.3867C29.3014 23.3768 29.3139 23.369 29.3277 23.3636C29.3416 23.3582 29.3566 23.3555 29.3718 23.3555C29.3869 23.3555 29.4019 23.3582 29.4158 23.3636C29.4297 23.369 29.4422 23.3768 29.4525 23.3867V23.3867Z" fill="#1E3E81"/>
<path d="M26.9531 28.6627C27.0296 28.572 27.0806 28.6022 27.1146 28.6627C27.0926 28.6808 27.0638 28.6909 27.0339 28.6909C27.0039 28.6909 26.9751 28.6808 26.9531 28.6627V28.6627Z" fill="#1E3E81"/>
<path d="M41.9316 22.9233C41.9327 22.9077 41.9373 22.8925 41.9452 22.8785C41.9532 22.8646 41.9643 22.8522 41.9779 22.8423C41.9915 22.8323 42.0072 22.825 42.0241 22.8207C42.041 22.8164 42.0587 22.8153 42.0762 22.8174C42.0847 22.9233 42.0421 22.9611 41.9316 22.9233Z" fill="#1E3E81"/>
<path d="M28.5176 22.2143C28.5176 22.3051 28.4157 22.3278 28.3477 22.2143C28.3728 22.1994 28.4024 22.1914 28.4326 22.1914C28.4629 22.1914 28.4925 22.1994 28.5176 22.2143V22.2143Z" fill="#1E3E81"/>
<path d="M42.0762 22.1587C42.058 22.1609 42.0396 22.1595 42.0221 22.1548C42.0046 22.1501 41.9885 22.1421 41.9748 22.1313C41.9611 22.1206 41.9501 22.1073 41.9427 22.0924C41.9353 22.0776 41.9315 22.0615 41.9316 22.0452C42.0421 22.015 42.0932 22.0528 42.0762 22.1587Z" fill="#1E3E81"/>
<path d="M27.2852 22.2863C27.2427 22.3771 27.1832 22.3922 27.1152 22.2863C27.1399 22.2703 27.1697 22.2617 27.2002 22.2617C27.2308 22.2617 27.2605 22.2703 27.2852 22.2863Z" fill="#1E3E81"/>
<path d="M19.252 22.6054C19.3115 22.5222 19.3625 22.5222 19.422 22.6054C19.4116 22.6165 19.3986 22.6254 19.3839 22.6315C19.3692 22.6377 19.3532 22.6409 19.337 22.6409C19.3207 22.6409 19.3047 22.6377 19.29 22.6315C19.2753 22.6254 19.2623 22.6165 19.252 22.6054V22.6054Z" fill="#1E3E81"/>
<path d="M27.752 21.5147C27.82 21.4164 27.871 21.4391 27.9135 21.5147C27.9031 21.5246 27.8906 21.5324 27.8767 21.5378C27.8628 21.5431 27.8478 21.5459 27.8327 21.5459C27.8176 21.5459 27.8026 21.5431 27.7887 21.5378C27.7748 21.5324 27.7623 21.5246 27.752 21.5147V21.5147Z" fill="#1E3E81"/>
<path d="M27.3627 19.7226C27.3627 19.8134 27.2777 19.8436 27.2012 19.7226C27.2115 19.7128 27.224 19.7049 27.2379 19.6995C27.2518 19.6942 27.2668 19.6914 27.2819 19.6914C27.2971 19.6914 27.3121 19.6942 27.3259 19.6995C27.3398 19.7049 27.3523 19.7128 27.3627 19.7226V19.7226Z" fill="#1E3E81"/>
<path d="M30.8236 26.758C30.7811 26.8411 30.7216 26.8563 30.6621 26.758C30.6716 26.747 30.6839 26.7381 30.6979 26.732C30.7119 26.7258 30.7273 26.7227 30.7429 26.7227C30.7585 26.7227 30.7738 26.7258 30.7878 26.732C30.8018 26.7381 30.8141 26.747 30.8236 26.758Z" fill="#1E3E81"/>
<path d="M28.6035 22.6706C28.68 22.5798 28.731 22.6101 28.765 22.6706C28.7547 22.6804 28.7422 22.6882 28.7283 22.6936C28.7144 22.699 28.6994 22.7018 28.6843 22.7018C28.6691 22.7018 28.6541 22.699 28.6402 22.6936C28.6264 22.6882 28.6139 22.6804 28.6035 22.6706V22.6706Z" fill="#1E3E81"/>
<path d="M28.4336 25.0091C28.5101 24.9183 28.5611 24.941 28.6036 25.0091C28.5802 25.0277 28.55 25.038 28.5186 25.038C28.4872 25.038 28.457 25.0277 28.4336 25.0091V25.0091Z" fill="#1E3E81"/>
<path d="M42.0176 24.0493L42.0773 23.9961C42.0859 24.0417 42.0603 24.0569 42.0176 24.0493Z" fill="#1E3E81"/>
<path d="M42.0078 28.8142L42.0759 28.7461C42.0844 28.7839 42.0673 28.8142 42.0078 28.8142Z" fill="#1E3E81"/>
<path d="M42.0771 20.9238L42.0176 20.8633C42.0686 20.8708 42.0856 20.8708 42.0771 20.9238Z" fill="#1E3E81"/>
<path d="M42.0176 20.5336L42.0688 20.4805C42.0688 20.4805 42.0603 20.5412 42.0176 20.5336Z" fill="#1E3E81"/>
<path d="M42.0773 19.6757L42.0176 19.6225C42.0603 19.615 42.0773 19.6377 42.0773 19.6757Z" fill="#1E3E81"/>
<path d="M42.0176 19.4472L42.0771 19.3867C42.0856 19.4321 42.0686 19.4472 42.0176 19.4472Z" fill="#1E3E81"/>
<path d="M29.7585 29.0251C29.9331 28.9995 30.109 28.9819 30.2855 28.9721C34.068 28.9721 37.8505 28.9721 41.633 28.9721C41.9815 28.9721 42.1345 29.0326 42.092 29.3654C42.1059 29.7552 42.0775 30.1452 42.007 30.5301C41.8755 30.9869 41.5752 31.3912 41.1543 31.6779C40.7335 31.9645 40.2165 32.117 39.6865 32.1107H19.2865C18.9677 32.1181 18.6505 32.0675 18.3544 31.962C18.0582 31.8566 17.7894 31.6985 17.5642 31.4974C17.3391 31.2964 17.1624 31.0566 17.0449 30.7928C16.9274 30.5289 16.8717 30.2465 16.881 29.9629C16.881 26.1814 16.881 22.3999 16.881 18.6714C16.8667 18.3588 16.9252 18.0469 17.0529 17.7553C17.1806 17.4638 17.3746 17.1989 17.6229 16.9773C17.8712 16.7557 18.1683 16.5822 18.4955 16.4676C18.8228 16.3531 19.1731 16.3 19.5245 16.3117C25.1855 16.3117 30.8465 16.3117 36.5245 16.3117C37.5445 16.3117 38.556 16.3117 39.5675 16.3117C39.9072 16.2954 40.247 16.3429 40.5647 16.4511C40.8824 16.5593 41.171 16.7259 41.4115 16.9399C41.6521 17.154 41.8393 17.4107 41.9609 17.6934C42.0826 17.9761 42.1359 18.2784 42.1175 18.5806C42.1175 18.8453 42.1175 19.11 42.1175 19.3823L42.058 19.4428H29.1465C27.7204 19.4125 26.2992 19.281 24.8965 19.0495C24.2194 18.9581 23.5285 18.989 22.865 19.1403C22.644 19.1932 22.3975 19.2613 22.372 19.5109C22.3465 19.7605 22.5845 19.8285 22.78 19.9117V20.184L20.7825 20.2445C20.2555 20.2445 19.9325 20.426 19.9325 20.6831C19.9325 20.9403 20.23 21.0915 20.7825 21.1294C20.89 21.1371 20.998 21.1371 21.1055 21.1294V21.4016H20.2555C20.1365 21.3033 20.026 21.2882 19.9325 21.4016C19.839 21.5151 19.533 21.4697 19.3375 21.5151C19.243 21.528 19.157 21.5713 19.0959 21.6368C19.0348 21.7023 19.0028 21.7854 19.006 21.8705C19.006 22.0596 19.159 22.1352 19.329 22.2033C19.6265 22.3167 19.9495 22.2033 20.2555 22.3016V22.5361H19.4055C19.346 22.4529 19.295 22.4529 19.2355 22.5361C19.0658 22.5734 18.8984 22.6189 18.734 22.6722C18.6573 22.6986 18.5916 22.7455 18.546 22.8064C18.5004 22.8674 18.477 22.9393 18.479 23.0125C18.479 23.194 18.6235 23.2545 18.768 23.3226C19.1085 23.4053 19.4607 23.4435 19.8135 23.436V23.6856C19.4597 23.6858 19.1068 23.7162 18.7595 23.7764C18.5555 23.8293 18.343 23.9049 18.326 24.1394C18.309 24.3739 18.5215 24.4495 18.7255 24.5251C18.9295 24.6007 19.1845 24.5251 19.4055 24.6159V24.9108C19.1754 24.9078 18.9469 24.9464 18.734 25.0243C18.6589 25.0519 18.5951 25.0993 18.551 25.1601C18.507 25.221 18.4848 25.2923 18.4875 25.3646C18.4875 25.5385 18.6235 25.6142 18.7765 25.6822C19.0379 25.7414 19.3059 25.7744 19.5755 25.7806C19.5755 25.8789 19.5755 25.9772 19.5755 26.068C19.5755 26.1587 19.346 26.136 19.2355 26.1814C19.1514 26.2081 19.0797 26.259 19.0319 26.3262C18.9841 26.3934 18.9631 26.4729 18.972 26.552C18.972 26.7259 19.1335 26.7864 19.295 26.8469C19.6809 26.9175 20.0742 26.9504 20.468 26.9452C20.468 27.0436 20.5275 27.1419 20.553 27.2478C20.2725 27.3234 19.8815 27.3688 19.9155 27.7015C19.9495 28.0343 20.366 28.0646 20.689 28.0948C21.1944 28.081 21.7001 28.1012 22.202 28.1553C22.2785 28.2688 22.4145 28.231 22.525 28.231C22.6355 28.231 22.7885 28.231 22.7715 28.42C22.5505 28.5259 22.304 28.6242 22.355 28.8965C22.406 29.1688 22.7375 29.2746 23.0095 29.32C23.7999 29.4675 24.6161 29.4675 25.4065 29.32C26.7304 29.0688 28.0821 28.9521 29.4355 28.9721C29.4495 28.9977 29.47 29.02 29.4955 29.0372C29.5209 29.0544 29.5506 29.066 29.582 29.0712C29.6134 29.0763 29.6458 29.0749 29.6764 29.0668C29.7071 29.0588 29.7352 29.0445 29.7585 29.0251V29.0251Z" fill="#1E3E81"/>
<path fill-rule="evenodd" clip-rule="evenodd" d="M194.088 27.1876C193.668 27.1776 193.338 26.8476 193.338 26.4376V21.5176H191.068V27.3776C191.068 28.5276 191.998 29.4576 193.148 29.4576H197.498V27.1876H194.088Z" fill="white"/>
<path fill-rule="evenodd" clip-rule="evenodd" d="M186.529 27.1876C186.109 27.1776 185.779 26.8476 185.769 26.4376V21.5176H183.499V26.4376C183.499 26.8476 183.159 27.1776 182.749 27.1876H173.289V29.4576H182.559C183.699 29.4576 184.639 28.5176 184.639 27.3776C184.639 28.5276 185.579 29.4576 186.719 29.4576H189.939V27.1876H186.529Z" fill="white"/>
<path fill-rule="evenodd" clip-rule="evenodd" d="M151.529 24.5454H161.939V22.2754H149.449C149.439 22.3354 149.439 22.3954 149.439 22.4554C149.449 23.6154 150.379 24.5454 151.529 24.5454Z" fill="white"/>
<path fill-rule="evenodd" clip-rule="evenodd" d="M162.33 26.4254C162.74 26.4254 163.08 26.0954 163.08 25.6754V22.2754H165.35V26.6154C165.35 27.7654 164.42 28.6954 163.27 28.6954H160.43V26.4254H162.33Z" fill="white"/>
<path fill-rule="evenodd" clip-rule="evenodd" d="M169.499 23.4085C169.089 23.3985 168.759 23.0685 168.749 22.6585V17.7285H166.479V23.5985C166.479 24.7485 167.409 25.6685 168.559 25.6685H174.229C175.379 25.6685 176.309 24.7485 176.309 23.5985C176.309 24.7485 177.239 25.6685 178.389 25.6685H182.359V23.4085H177.059C176.649 23.3985 176.319 23.0685 176.309 22.6585V20.0085H170.259V22.2885H174.789V22.6685C174.779 23.0785 174.449 23.4085 174.039 23.4185H169.499V23.4085Z" fill="white"/>
<path fill-rule="evenodd" clip-rule="evenodd" d="M157.408 18.2285C156.678 18.2285 156.078 18.8285 156.078 19.5585C156.078 20.2885 156.678 20.8885 157.408 20.8885C158.138 20.8885 158.738 20.2885 158.738 19.5585C158.748 18.8285 158.138 18.2285 157.408 18.2285Z" fill="white"/>
<path fill-rule="evenodd" clip-rule="evenodd" d="M170.219 26.9473C169.489 26.9473 168.889 27.5473 168.889 28.2773C168.889 29.0073 169.489 29.6073 170.219 29.6073C170.949 29.6073 171.549 29.0073 171.549 28.2773C171.549 27.5473 170.949 26.9473 170.219 26.9473Z" fill="white"/>
<path fill-rule="evenodd" clip-rule="evenodd" d="M195.119 30.5488C194.389 30.5488 193.789 31.1488 193.789 31.8788C193.789 32.6088 194.389 33.2088 195.119 33.2088C195.849 33.2088 196.449 32.6088 196.449 31.8788C196.449 31.1488 195.849 30.5488 195.119 30.5488Z" fill="white"/>
<path fill-rule="evenodd" clip-rule="evenodd" d="M188.51 22.502C187.78 22.502 187.18 23.102 187.18 23.832C187.18 24.562 187.78 25.162 188.51 25.162C189.24 25.162 189.84 24.562 189.84 23.832C189.84 23.102 189.24 22.502 188.51 22.502Z" fill="white"/>
<path fill-rule="evenodd" clip-rule="evenodd" d="M181.59 18.2363C180.86 18.2363 180.26 18.8263 180.26 19.5663C180.26 20.2963 180.86 20.8963 181.59 20.8963C182.32 20.8963 182.92 20.2963 182.92 19.5663C182.92 18.8263 182.32 18.2363 181.59 18.2363Z" fill="white"/>
<path fill-rule="evenodd" clip-rule="evenodd" d="M178.92 18.252C178.19 18.252 177.59 18.852 177.59 19.582C177.59 20.322 178.19 20.912 178.92 20.912C179.65 20.912 180.25 20.312 180.25 19.582C180.25 18.842 179.65 18.252 178.92 18.252Z" fill="white"/>
<path fill-rule="evenodd" clip-rule="evenodd" d="M154.748 18.2676C154.018 18.2676 153.418 18.8676 153.418 19.5976C153.418 20.3276 154.018 20.9276 154.748 20.9276C155.478 20.9276 156.078 20.3376 156.078 19.5976C156.068 18.8676 155.478 18.2676 154.748 18.2676Z" fill="white"/>
<path fill-rule="evenodd" clip-rule="evenodd" d="M218.17 30.1313L216.46 32.1613H216.65L218.55 30.1313H218.17ZM217.4 30.1613L216.05 32.1613H216.25L217.77 30.1613H217.4ZM216.88 30.1713L215.73 32.1613H215.88L217.12 30.1713H216.88ZM216.35 30.2013L215.46 32.1613H215.6L216.59 30.2013H216.35ZM215.95 30.0913L215.22 32.1613H215.36L216.08 30.2213L215.95 30.0913ZM215.55 29.8213L214.95 32.1613H215.07L215.72 29.9213L215.55 29.8213ZM215.13 29.1713L214.71 32.1713H214.81L215.43 28.7513C215.29 28.7513 215.13 29.1713 215.13 29.1713ZM214.54 29.6813L214.41 32.1613H214.55L214.77 29.6013C214.66 29.5413 214.54 29.6813 214.54 29.6813ZM214.02 30.2313L214.04 32.1613H214.26V30.0713C214.16 30.2113 214.02 30.2313 214.02 30.2313ZM213.56 30.2513L213.75 32.1713H213.89L213.77 30.2513H213.56ZM213.1 30.2413L213.51 32.1613H213.62L213.31 30.2413H213.1ZM212.67 30.2813L213.22 32.1613H213.36L212.85 30.2813H212.67ZM212.04 29.4513C212.04 29.4513 211.93 29.7513 212.1 30.0813L212.97 32.1713H213.09L212.42 30.2813C212.42 30.2813 212.18 30.2313 212.22 30.0313C212.27 29.8313 212.32 29.7313 212.07 29.4613L212.04 29.4513ZM210.32 27.6813L212.68 32.1613H212.83L210.83 27.9613L210.32 27.6813ZM211.35 28.0713V28.0913C211.38 28.3713 211.44 28.3613 211.55 28.6313C211.67 28.8913 211.58 28.9613 211.58 28.9613C211.42 29.1613 211.72 29.3013 211.72 29.3013C211.74 29.6013 211.87 29.6713 211.87 29.6713C211.87 29.6713 211.81 29.4113 211.94 29.2913C212.07 29.1713 212.27 29.4113 212.44 29.6013C212.61 29.7913 212.52 29.8413 212.41 29.9813C212.31 30.1213 212.46 30.0813 212.46 30.0813C212.9 30.0313 214.02 30.0613 214.02 30.0613C214.23 29.8113 214.28 29.8513 214.38 29.7013C214.5 29.5213 214.6 29.4213 214.6 29.4213C214.87 29.4413 214.86 29.3813 214.86 29.3813C214.89 29.2813 214.86 29.2113 215.01 29.0613C215.16 28.9113 215.07 28.7813 215.26 28.6013C215.45 28.4113 215.6 28.6113 215.6 28.6113V29.4213C215.56 29.5413 215.44 29.6013 215.71 29.7113C215.98 29.8213 216.15 29.9913 216.15 29.9913L218.98 29.9613C219.16 29.9513 219.18 29.9013 219.24 29.8413C219.3 29.7813 219.24 29.6313 219.24 29.6313H218.87C218.63 29.4713 218.3 29.5013 218.3 29.5013C217.87 29.2413 216.88 29.2713 216.56 29.2413C216.23 29.2113 216.06 28.9113 215.89 28.5213C215.72 28.1313 215.47 28.1813 215.47 28.1813C215.08 28.1913 214.66 28.5313 214.66 28.5313C214.16 28.7213 213.74 28.5213 213.74 28.5213C213.15 27.9213 213.09 28.2713 212.97 28.1213C212.76 27.8613 212.23 27.6613 212.23 27.6613C211.62 27.0913 211.5 26.5313 211.4 26.2713C211.3 26.0113 211.36 26.0313 211.04 26.0113C210.72 26.0013 210.64 25.7613 210.64 25.7613C210.64 25.7613 210.5 26.0913 210.35 26.1013C210.2 26.1213 210.26 26.1213 210.25 26.2413C210.23 26.3613 210.08 26.3113 210.08 26.3113C209.66 26.4313 209.82 26.6613 209.95 26.8013C210.08 26.9413 210.06 27.1113 210.06 27.1113C210.25 27.5413 211.35 28.0713 211.35 28.0713ZM207.25 18.5513C207.25 18.5513 207.25 18.4113 207.25 18.5713C207.25 18.7413 207.4 19.4513 207.4 19.4513C207.4 19.4513 207.69 19.9013 207.75 20.3913C207.81 20.8813 208.35 21.2513 208.4 21.3913C208.44 21.5313 208.49 21.8013 208.28 22.4713C208.07 23.1313 208.5 23.0213 208.51 23.3713C208.51 23.7113 208.93 23.7413 208.93 23.7413C209.64 23.8813 209.76 24.2613 209.76 24.2613V24.7713C209.99 25.0913 209.98 25.2113 210 25.5913C210.02 25.9613 210.22 26.0913 210.4 25.7913C210.58 25.4913 210.76 25.6013 210.76 25.6013C210.82 25.7613 210.8 25.8213 211.14 25.8313C211.47 25.8413 211.54 26.1013 211.54 26.1013C211.75 27.0813 212.37 27.5613 212.37 27.5613C212.37 27.5613 212.67 27.6413 212.87 27.8113C213.07 27.9813 213.08 27.9313 213.08 27.9313C213.32 27.9913 213.54 28.1413 213.54 28.1413C214.3 28.6713 214.36 28.4213 214.97 28.1013C215.74 27.7113 215.98 28.2613 216.17 28.6813C216.36 29.1013 216.53 29.0213 216.53 29.0213C217.24 29.0313 217.86 29.1813 218.08 29.2113C218.3 29.2413 218.69 29.4913 218.73 29.3413C218.76 29.1913 218.85 28.7313 218.85 28.7313C219.07 27.8613 219.66 27.9213 219.78 27.9013C219.9 27.8813 219.78 27.8513 219.78 27.8513C219.33 27.7613 219.38 27.6713 219.38 27.2913C219.38 26.9113 219.13 27.0213 218.72 26.5913C218.3 26.1613 218.38 25.7013 218.4 25.4813C218.41 25.2613 219 25.1213 218.97 24.8413C218.94 24.5613 218.47 24.7213 218.25 24.5813C218.04 24.4413 218.11 23.8813 218.11 23.8813C218.04 23.7113 218.05 23.4013 218.05 23.4013C218.14 23.0913 217.93 22.9613 217.93 22.9613C217.57 22.6413 217.93 22.2213 218.14 21.9413C218.34 21.6613 218.33 21.4913 218.33 21.4913C218.27 21.3213 218.22 21.0313 218.31 20.7813C218.4 20.5313 218.29 20.5013 218.03 20.3913C217.77 20.2813 217.75 20.1413 217.75 20.1413C217.43 20.1413 217.6 20.2013 217.32 19.9713C217.04 19.7413 217.17 19.8313 216.7 19.8513C216.23 19.8713 215.78 19.2713 215.78 19.2713H215.38C214.94 19.6113 214.58 19.3413 214.58 19.3413C214.58 19.3413 214.1 19.8713 213.96 20.0013C213.82 20.1313 213.79 20.0613 213.79 20.0613C213.61 20.0413 213.73 20.1713 213.73 20.1713C213.79 20.4913 213.68 20.5213 213.68 20.5213C213.43 20.8113 213.36 20.7613 213.31 20.6713C213.26 20.5713 213.29 20.4713 212.76 20.6613C212.23 20.8513 212.39 20.5613 212.14 20.6813C211.89 20.8013 211.71 20.5913 211.71 20.5913C211.18 20.0313 211.03 20.2713 210.56 20.0513C210.09 19.8313 210.26 19.5513 210.23 19.3113C210.2 19.0713 209.99 19.2213 209.8 19.1713C209.6 19.1113 209.67 18.8213 209.68 18.5113C209.69 18.2013 209.62 18.1513 209.62 18.1513C209.45 18.1113 209.28 18.3313 209.28 18.3313C209.24 18.5913 208.23 19.1813 208 18.7613C207.56 17.9813 207.39 18.0613 207.39 18.0613C207.22 18.1113 207.25 18.5513 207.25 18.5513ZM206.9 34.5213H221.41V32.4713H206.9V34.5213ZM210.62 14.2313L211.53 13.9213L212.02 17.8213H211.2L210.62 14.2313ZM206.57 32.2113L206.94 31.8513C206.94 31.8513 205.57 30.6213 204.98 29.5813L209.94 32.1513H210.1L204.57 28.7913L204.18 27.9213L210.59 32.1613H210.77L203.87 27.1013C203.87 27.1013 203.64 26.2013 203.61 25.9813L211.12 32.1613H211.38L203.52 24.9513V24.0313L211.65 32.1713H211.82L203.57 23.1613L203.76 22.0313L212.02 32.1713H212.21L203.94 21.1513L204.3 20.2013L212.37 32.1713H212.54L204.65 19.3513L205.24 18.3613L209.63 26.4113C209.63 26.4113 209.75 26.2113 209.97 26.2113L208.85 23.9413C208.85 23.9413 208.34 23.8913 208.32 23.3213C208.32 23.3213 208.26 23.1713 208.11 22.9913C207.97 22.8113 208.23 22.4413 208 22.2013L205.75 17.6613L206.43 16.8513L207.04 18.2613C207.04 18.2613 207.14 17.7113 207.56 17.9113L208.11 18.6513L207.15 16.1613L207.96 15.5213L208.97 18.4613C208.97 18.4613 208.95 18.5513 209.08 18.2313C209.18 17.9913 209.5 17.9513 209.5 17.9513L208.71 15.0313L209.72 14.5213L210.43 18.1313C210.43 18.1313 210.86 18.5813 210.53 18.7913C210.53 18.7913 210.45 18.8913 210.32 18.7513L210.38 19.6513C210.38 19.6513 210.35 19.8913 210.9 19.9313C211.45 19.9813 211.72 20.4113 211.89 20.5113C212.07 20.6113 212.09 20.3813 212.31 20.4613C212.53 20.5513 212.41 20.7013 213.17 20.3413C213.17 20.3413 213.33 20.2213 213.38 20.4413C213.38 20.4413 213.41 20.6013 213.55 20.4013C213.55 20.4013 213.52 20.0513 213.47 19.8613C213.42 19.6713 213.39 19.0513 213.54 18.6913C213.54 18.6913 213.58 18.5913 213.44 18.6713C213.31 18.7513 213.21 18.9213 213.05 18.5513C213.05 18.5513 212.88 18.3513 212.91 17.9913L212.64 17.9513C212.64 17.9513 212.89 17.8813 212.72 16.9513L212.5 13.7013L213.54 13.6113L213.75 19.8113C213.75 19.8113 213.8 19.9213 213.95 19.7113C214.09 19.5013 214.32 19.3013 214.32 19.3013V13.6113L215.38 13.7113L215.11 19.1913C215.11 19.1913 215.44 18.9713 215.82 19.1013L216.35 13.8813L217.31 14.1613L216.5 19.6113C216.5 19.6113 216.61 19.6013 216.85 19.5813C217.05 19.5613 217.17 19.6413 217.17 19.6413L218.19 14.4913L219.16 15.0013L217.93 20.0013C217.93 20.0013 217.87 20.1613 217.98 20.2113C218.08 20.2613 218.35 20.3013 218.43 20.4313L219.92 15.4413L220.73 16.0513L218.19 23.4213C218.19 23.4213 218.29 24.0713 218.29 24.3413C218.29 24.3413 218.37 24.4713 218.43 24.3013C218.5 24.1313 221.47 16.7113 221.47 16.7113L222.17 17.4613L218.89 24.5513C218.89 24.5513 219.27 24.8613 218.96 25.1313C218.55 25.4813 218.43 25.5613 218.59 26.0513C218.59 26.0513 218.62 26.1313 218.7 25.9613L222.72 18.1913L223.27 19.1213L218.93 26.5913L219.13 26.7613C219.13 26.7613 219.25 26.8413 219.33 26.7113C219.4 26.5913 223.7 20.0013 223.7 20.0013L224.03 20.9313L219.52 27.2013C219.52 27.2013 219.39 27.7513 219.73 27.5613L224.26 21.7913L224.46 22.8813L218.9 29.2513C218.9 29.2513 218.76 29.5013 219.06 29.4513L224.5 23.8613V24.8313L219.22 29.8113C219.22 29.8113 219.24 29.9513 219.07 29.9613L216.86 32.1413H217.1L224.35 25.7613L224.15 26.8213L217.44 32.1413H217.7L223.85 27.7013L223.47 28.6413L218.16 32.1413H218.32L223.05 29.3713C223.05 29.3713 222.42 30.5813 221.25 31.5813C221.25 31.5813 221.2 31.6713 221.63 32.0113V34.8113H206.58L206.57 32.2113Z" fill="white"/>
<path fill-rule="evenodd" clip-rule="evenodd" d="M213.94 22.6857L213.88 23.0257C213.88 23.0257 213.74 22.9657 213.67 22.8957C213.67 22.8957 213.58 23.0357 213.85 23.1957L213.84 23.5357C213.84 23.5357 213.69 23.5157 213.45 23.2657C213.45 23.2657 213.32 23.5557 213.81 23.7957L213.82 24.0957C213.82 24.0957 213.52 23.9957 213.31 23.7857C213.31 23.7857 213.19 24.2657 213.78 24.4857L213.79 24.7657C213.79 24.7657 213.57 24.7757 213.09 24.2757C213.09 24.2757 213.17 25.1257 213.95 25.2057C214.74 25.1257 214.81 24.2757 214.81 24.2757C214.33 24.7757 214.11 24.7657 214.11 24.7657L214.12 24.4857C214.71 24.2557 214.59 23.7857 214.59 23.7857C214.38 23.9957 214.08 24.0957 214.08 24.0957L214.09 23.7957C214.58 23.5557 214.45 23.2657 214.45 23.2657C214.21 23.5257 214.06 23.5357 214.06 23.5357L214.05 23.1957C214.32 23.0357 214.23 22.8957 214.23 22.8957C214.16 22.9757 214.02 23.0257 214.02 23.0257L213.94 22.6857ZM215 25.1557C214.73 25.4457 214.35 25.5357 214.35 25.5357L214.39 25.7157C214.24 25.8057 213.8 25.7457 213.8 25.7457V25.5957C213.42 25.5757 213.08 25.3357 213.08 25.3357L212.96 25.4957C212.77 25.3757 212.56 25.1557 212.56 25.1557L212.69 24.9857C212.45 24.7757 212.35 24.3557 212.35 24.3557H212.09V23.8257L212.33 23.8157C212.33 23.4657 212.51 23.1957 212.51 23.1957L212.33 23.0057C212.33 22.9357 212.69 22.5957 212.69 22.5957L212.93 22.7057C213.02 22.5557 213.48 22.3657 213.48 22.3657C213.46 22.3057 213.45 22.1057 213.45 22.1057L214.02 22.0957L214.03 22.3457C214.23 22.3457 214.65 22.5057 214.65 22.5057L214.81 22.3157C214.9 22.3557 215.26 22.6557 215.26 22.6557L215.06 22.8457C215.43 23.1557 215.46 23.5057 215.46 23.5057L215.73 23.4857L215.75 24.0357L215.52 24.0557C215.51 24.4457 215.35 24.7357 215.35 24.7357C215.35 24.7557 215.53 24.8657 215.53 24.8657L215.13 25.2957C215.16 25.2957 215.02 25.1357 215 25.1557Z" fill="white"/>
<path d="M212.359 21.8045C212.879 21.2345 213.739 21.2045 213.739 21.2045C215.279 21.0945 216.259 22.2745 216.469 22.8945C216.669 23.5145 216.599 24.4445 216.589 24.8845C216.579 25.3145 217.439 25.6645 217.439 25.6645L217.069 26.2845C217.069 26.2845 216.649 26.1345 216.409 25.8945C215.939 25.4245 215.899 24.8045 215.899 24.8045L215.679 24.6644C215.789 24.4344 215.829 24.1445 215.829 24.1445L216.089 24.1145C216.119 23.5745 215.979 23.1745 215.979 23.1745L215.739 23.2645C215.669 22.9945 215.459 22.7645 215.459 22.7645L215.599 22.6245C215.359 22.2445 214.869 21.9845 214.869 21.9845L214.699 22.2045C214.559 22.1045 214.259 22.0845 214.259 22.0845L214.239 21.8245C213.759 21.7745 213.299 21.8645 213.299 21.8645L213.319 22.1644L212.819 22.4144L212.359 21.8045Z" fill="white"/>
<path d="M210.819 21.502C211.079 21.552 211.579 21.962 211.579 21.962C212.009 22.372 211.939 23.012 211.939 23.012L212.169 23.132C212.079 23.352 212.059 23.642 212.059 23.642H211.809C211.739 24.132 211.919 24.652 211.919 24.652L212.149 24.592C212.249 24.822 212.419 25.002 212.419 25.002L212.209 25.172C212.429 25.582 212.959 25.812 212.959 25.812L213.109 25.632C213.109 25.642 213.569 25.792 213.569 25.792L213.589 26.042C213.589 26.042 214.109 26.132 214.579 25.972L214.519 25.712L215.039 25.482L215.449 26.082C214.289 26.862 212.919 26.572 212.029 25.792C211.199 25.072 211.269 23.692 211.289 23.352C211.289 23.352 211.319 23.102 211.259 22.792C211.189 22.462 210.469 22.122 210.469 22.122C210.469 22.122 210.809 21.502 210.819 21.502Z" fill="white"/>
<path fill-rule="evenodd" clip-rule="evenodd" d="M216.789 33.8779C216.789 33.9379 216.549 34.1279 216.439 34.2179C216.429 34.2279 216.399 34.2479 216.429 34.2579C216.479 34.2779 216.549 34.2879 216.669 34.2879C216.939 34.2879 216.929 33.7279 216.769 33.4779C216.759 33.4579 216.739 33.4579 216.729 33.4779C216.719 33.5079 216.659 33.6079 216.649 33.6279C216.629 33.6679 216.629 33.6679 216.649 33.6879C216.679 33.7279 216.789 33.8279 216.789 33.8779Z" fill="white"/>
<path fill-rule="evenodd" clip-rule="evenodd" d="M218.138 33.8066C218.138 33.8966 218.118 33.9466 218.088 33.9466C218.008 33.9466 217.928 33.9166 217.878 33.8666C217.818 33.7966 217.838 33.6866 217.798 33.6866C217.778 33.6866 217.678 33.8366 217.598 33.8966C217.538 33.9366 217.478 33.9466 217.398 33.9466H217.378C217.338 33.9466 217.318 33.8466 217.318 33.7966C217.318 33.7366 217.338 33.6666 217.368 33.6666H217.598C217.678 33.6666 217.778 33.6266 217.778 33.5866C217.778 33.5766 217.618 33.5166 217.578 33.5166C217.548 33.5266 217.518 33.5466 217.498 33.5866C217.488 33.6166 217.438 33.5966 217.438 33.5666C217.448 33.5366 217.458 33.4566 217.478 33.4166C217.498 33.3566 217.538 33.3066 217.608 33.3066C217.668 33.3066 217.768 33.3566 218.048 33.4066C218.058 33.4066 218.068 33.4166 218.058 33.4266C218.058 33.4466 218.038 33.5366 218.018 33.6166C218.018 33.6266 218.008 33.6266 217.998 33.6266C217.978 33.6266 217.898 33.6066 217.898 33.6266C217.898 33.6566 217.978 33.6566 218.088 33.6566C218.118 33.6566 218.138 33.7066 218.138 33.8066ZM217.838 34.2466C217.838 34.2566 217.838 34.2566 217.838 34.2666L217.738 34.3666C217.728 34.3766 217.718 34.3766 217.718 34.3666L217.608 34.2666C217.608 34.2566 217.608 34.2466 217.608 34.2466L217.718 34.1466C217.728 34.1366 217.728 34.1466 217.738 34.1466L217.838 34.2466Z" fill="white"/>
<path fill-rule="evenodd" clip-rule="evenodd" d="M221.22 33.4345C221.25 33.5745 221.24 33.6845 221.16 33.8145C221.12 33.8845 221.02 33.9345 220.93 33.9345H220.92C220.88 33.9345 220.86 33.8445 220.86 33.7945C220.86 33.7345 220.87 33.6545 220.91 33.6545C220.91 33.6545 221.06 33.6545 221.09 33.6545C221.14 33.6445 221.15 33.6145 221.13 33.5845C221.12 33.5545 221.1 33.5245 221.03 33.4745C221 33.4545 221 33.4545 221.02 33.4345C221.02 33.4345 221.07 33.3245 221.1 33.2745C221.11 33.2445 221.13 33.2445 221.15 33.2745C221.17 33.2945 221.21 33.3845 221.22 33.4345ZM221.02 34.2545C221.03 34.2645 221.02 34.2645 221.02 34.2745L220.94 34.3645C220.93 34.3745 220.93 34.3745 220.92 34.3645L220.83 34.2745C220.82 34.2645 220.82 34.2645 220.83 34.2545L220.92 34.1645C220.93 34.1645 220.93 34.1645 220.94 34.1645L221.02 34.2545Z" fill="white"/>
<path fill-rule="evenodd" clip-rule="evenodd" d="M219.368 32.958C219.328 32.978 219.168 33.048 219.168 33.158C219.168 33.268 219.378 33.248 219.288 33.328C219.198 33.408 219.218 33.468 219.328 33.418C219.408 33.378 219.468 33.248 219.378 33.178C219.298 33.118 219.208 33.218 219.408 33.028C219.418 33.028 219.418 32.938 219.368 32.958Z" fill="white"/>
<path fill-rule="evenodd" clip-rule="evenodd" d="M216.308 33.3441C216.418 33.4741 216.428 33.6641 216.308 33.7941C216.188 33.9241 216.018 33.9541 215.648 33.9341C215.558 33.9241 215.508 33.9041 215.468 33.8641C215.398 33.7941 215.388 33.6041 215.418 33.4441C215.438 33.3741 215.488 33.3641 215.478 33.4541C215.468 33.5441 215.518 33.5941 215.588 33.6241C215.698 33.6641 216.128 33.6341 216.238 33.6241C216.298 33.6141 216.278 33.5841 216.268 33.5741C216.258 33.5541 216.248 33.5441 216.198 33.5141C216.178 33.4941 216.178 33.4941 216.188 33.4741C216.188 33.4741 216.228 33.3941 216.258 33.3441C216.278 33.3241 216.288 33.3241 216.308 33.3441ZM216.148 33.1741C216.158 33.1741 216.148 33.1841 216.148 33.1941L216.048 33.2941C216.038 33.3041 216.038 33.3041 216.028 33.2941L215.928 33.1941C215.918 33.1941 215.918 33.1841 215.928 33.1741L216.028 33.0741C216.038 33.0641 216.038 33.0741 216.048 33.0741L216.148 33.1741ZM215.898 33.1841L215.798 33.2841C215.788 33.2941 215.788 33.2941 215.778 33.2841L215.678 33.1841C215.668 33.1841 215.668 33.1741 215.678 33.1641L215.778 33.0641C215.788 33.0541 215.788 33.0541 215.798 33.0641L215.898 33.1641C215.908 33.1741 215.908 33.1741 215.898 33.1841Z" fill="white"/>
<path fill-rule="evenodd" clip-rule="evenodd" d="M217.42 33.8016C217.42 33.7116 217.4 33.6616 217.37 33.6616H217.31C217.26 33.6616 217.21 33.6716 217.18 33.6316C217.15 33.5816 217.16 33.1016 217.16 33.0516C217.16 33.0016 217.14 32.9916 217.12 33.0116C217.09 33.0416 217.03 33.1016 217.02 33.1216C217.01 33.1316 217.01 33.1416 217.01 33.1516C217.02 33.3116 217.03 33.5616 217.03 33.6216C217.03 33.7216 217.05 33.8116 217.08 33.8616C217.11 33.9116 217.17 33.9416 217.31 33.9416H217.36C217.4 33.9416 217.42 33.8916 217.42 33.8016Z" fill="white"/>
<path fill-rule="evenodd" clip-rule="evenodd" d="M218.408 33.4316C218.438 33.5716 218.428 33.6816 218.348 33.8116C218.308 33.8816 218.218 33.9316 218.118 33.9316H218.108C218.068 33.9316 218.058 33.8416 218.058 33.7916C218.058 33.7316 218.068 33.6516 218.108 33.6516C218.108 33.6516 218.258 33.6516 218.288 33.6516C218.338 33.6416 218.348 33.6116 218.328 33.5816C218.318 33.5516 218.298 33.5216 218.228 33.4716C218.198 33.4516 218.198 33.4516 218.218 33.4316C218.218 33.4316 218.268 33.3216 218.298 33.2716C218.318 33.2416 218.328 33.2416 218.348 33.2716C218.348 33.2916 218.388 33.3816 218.408 33.4316ZM218.538 32.8516C218.548 32.8616 218.548 32.8616 218.538 32.8716L218.438 32.9716C218.428 32.9816 218.428 32.9816 218.418 32.9716L218.308 32.8716C218.298 32.8716 218.298 32.8616 218.308 32.8516L218.418 32.7516C218.418 32.7416 218.428 32.7416 218.438 32.7516L218.538 32.8516ZM218.268 32.8816L218.168 32.9816C218.158 32.9916 218.148 32.9916 218.148 32.9816L218.058 32.8916C218.048 32.8816 218.048 32.8816 218.058 32.8716L218.158 32.7716C218.158 32.7616 218.168 32.7616 218.178 32.7716L218.278 32.8716C218.278 32.8616 218.278 32.8716 218.268 32.8816Z" fill="white"/>
<path fill-rule="evenodd" clip-rule="evenodd" d="M220.128 33.804C220.128 33.754 220.128 33.664 220.088 33.664H220.078C219.998 33.664 219.918 33.634 219.878 33.594C219.848 33.564 219.908 33.194 219.858 32.854C219.888 32.844 219.738 32.984 219.738 32.994C219.738 33.014 219.738 33.014 219.748 33.024C219.758 33.154 219.748 33.544 219.728 33.604C219.718 33.634 219.668 33.654 219.588 33.654H219.098C218.958 33.654 218.908 33.574 218.908 33.514C218.908 33.504 218.908 33.494 218.908 33.454C218.908 33.394 218.868 33.384 218.848 33.454C218.838 33.504 218.828 33.644 218.838 33.724C218.838 33.794 218.878 33.924 219.078 33.924H219.548C219.678 33.924 219.758 33.824 219.778 33.794C219.808 33.754 219.818 33.714 219.828 33.714C219.848 33.714 219.898 33.974 220.088 33.924C220.118 33.934 220.128 33.864 220.128 33.804Z" fill="white"/>
<path fill-rule="evenodd" clip-rule="evenodd" d="M220.399 33.4363C220.429 33.5763 220.419 33.6863 220.329 33.8163C220.289 33.8863 220.189 33.9363 220.109 33.9363H220.089C220.049 33.9363 220.039 33.8463 220.039 33.7963C220.039 33.7363 220.049 33.6563 220.079 33.6563C220.079 33.6563 220.229 33.6563 220.259 33.6563C220.299 33.6463 220.319 33.6163 220.299 33.5863C220.289 33.5563 220.259 33.5263 220.199 33.4763C220.179 33.4563 220.179 33.4563 220.189 33.4363C220.189 33.4363 220.239 33.3263 220.269 33.2763C220.279 33.2463 220.299 33.2463 220.319 33.2763C220.339 33.2963 220.389 33.3863 220.399 33.4363ZM220.319 32.8263C220.329 32.8363 220.319 32.8363 220.319 32.8463L220.229 32.9363C220.219 32.9463 220.219 32.9463 220.209 32.9363L220.119 32.8463C220.109 32.8363 220.109 32.8363 220.119 32.8263L220.209 32.7363C220.219 32.7363 220.219 32.7363 220.229 32.7363L220.319 32.8263Z" fill="white"/>
<path fill-rule="evenodd" clip-rule="evenodd" d="M220.959 33.8016C220.959 33.7116 220.949 33.6616 220.909 33.6616H220.849C220.799 33.6616 220.749 33.6716 220.719 33.6316C220.679 33.5816 220.689 33.1016 220.689 33.0516C220.689 33.0016 220.669 32.9916 220.649 33.0116C220.619 33.0416 220.559 33.1016 220.549 33.1216C220.539 33.1316 220.539 33.1416 220.539 33.1516C220.549 33.3116 220.559 33.5616 220.559 33.6216C220.559 33.7216 220.579 33.8116 220.609 33.8616C220.649 33.9116 220.699 33.9416 220.839 33.9416H220.889C220.939 33.9416 220.959 33.8916 220.959 33.8016Z" fill="white"/>
<path fill-rule="evenodd" clip-rule="evenodd" d="M212.589 33.1947V33.4147H212.759C212.789 33.4147 212.809 33.4047 212.829 33.3947C212.849 33.3747 212.859 33.3447 212.859 33.3047C212.859 33.2547 212.849 33.2247 212.819 33.2147C212.799 33.2047 212.769 33.1947 212.739 33.1947H212.589ZM212.589 33.5747V33.8447H212.759C212.789 33.8447 212.809 33.8347 212.829 33.8247C212.859 33.8047 212.879 33.7647 212.879 33.7047C212.879 33.6547 212.869 33.6147 212.829 33.5947C212.809 33.5847 212.789 33.5747 212.759 33.5747H212.589ZM212.969 33.1247C212.989 33.1647 212.999 33.2147 212.999 33.2747C212.999 33.3347 212.989 33.3847 212.969 33.4247C212.959 33.4447 212.939 33.4647 212.919 33.4847C212.959 33.5047 212.979 33.5347 212.999 33.5747C213.019 33.6147 213.029 33.6647 213.029 33.7247C213.029 33.7847 213.019 33.8347 212.999 33.8847C212.989 33.9147 212.969 33.9447 212.949 33.9647C212.929 33.9847 212.899 34.0047 212.869 34.0147C212.839 34.0247 212.809 34.0247 212.769 34.0247H212.459V33.0347H212.799C212.879 33.0247 212.939 33.0647 212.969 33.1247Z" fill="white"/>
<path fill-rule="evenodd" clip-rule="evenodd" d="M213.369 33.6454H213.539L213.449 33.2554L213.369 33.6454ZM213.379 33.0254H213.539L213.789 34.0154H213.629L213.579 33.8154H213.329L213.279 34.0154H213.129L213.379 33.0254Z" fill="white"/>
<path fill-rule="evenodd" clip-rule="evenodd" d="M213.889 33.0254H214.049L214.329 33.7154V33.0254H214.469V34.0154H214.319L214.029 33.3154V34.0154H213.889V33.0254Z" fill="white"/>
<path fill-rule="evenodd" clip-rule="evenodd" d="M214.658 32.9863H214.798V33.4163L215.058 32.9863H215.248L214.968 33.4163L215.268 34.0163H215.078L214.868 33.5663L214.798 33.6663V34.0163H214.658V32.9863Z" fill="white"/>
<path fill-rule="evenodd" clip-rule="evenodd" d="M207.709 33.0566V33.2266H207.489V34.0466H207.339V33.2266H207.129V33.0566H207.709Z" fill="white"/>
<path fill-rule="evenodd" clip-rule="evenodd" d="M208.439 33.2266H208.039V33.4366H208.409V33.6166H208.039V33.8666H208.459V34.0466H207.889V33.0566H208.439V33.2266Z" fill="white"/>
<path fill-rule="evenodd" clip-rule="evenodd" d="M208.718 33.6454V33.6654C208.718 33.7454 208.728 33.7954 208.738 33.8254C208.748 33.8554 208.778 33.8654 208.818 33.8654C208.858 33.8654 208.878 33.8454 208.888 33.8154C208.898 33.7954 208.898 33.7654 208.898 33.7154V33.0254H209.058V33.7154C209.058 33.7954 209.048 33.8654 209.028 33.9154C208.988 33.9954 208.918 34.0354 208.818 34.0354C208.718 34.0354 208.648 34.0054 208.618 33.9354C208.588 33.8654 208.568 33.7754 208.568 33.6554V33.6354H208.718V33.6454Z" fill="white"/>
<path fill-rule="evenodd" clip-rule="evenodd" d="M209.459 33.6766H209.639L209.549 33.2866L209.459 33.6766ZM209.469 33.0566H209.629L209.879 34.0466H209.719L209.679 33.8466H209.419L209.369 34.0466H209.219L209.469 33.0566Z" fill="white"/>
<path fill-rule="evenodd" clip-rule="evenodd" d="M210.18 33.182V33.452H210.36C210.4 33.452 210.42 33.452 210.44 33.432C210.47 33.412 210.49 33.372 210.49 33.322C210.49 33.262 210.47 33.222 210.44 33.192C210.42 33.182 210.4 33.172 210.36 33.172H210.18V33.182ZM210.52 33.032C210.55 33.042 210.57 33.072 210.6 33.102C210.62 33.132 210.63 33.162 210.64 33.192C210.65 33.222 210.66 33.262 210.66 33.302C210.66 33.352 210.65 33.402 210.63 33.442C210.61 33.492 210.58 33.522 210.54 33.542C210.57 33.562 210.6 33.592 210.61 33.622C210.63 33.652 210.63 33.712 210.63 33.782V33.852C210.63 33.902 210.63 33.932 210.64 33.942C210.64 33.972 210.65 33.982 210.67 34.002V34.032H210.49C210.49 34.012 210.48 33.992 210.48 33.982C210.48 33.952 210.47 33.922 210.47 33.892V33.802C210.47 33.732 210.46 33.692 210.44 33.672C210.42 33.652 210.39 33.642 210.34 33.642H210.18V34.042H210.02V33.002H210.39C210.45 33.002 210.49 33.012 210.52 33.032Z" fill="white"/>
<path fill-rule="evenodd" clip-rule="evenodd" d="M211.068 33.6376H211.248L211.158 33.2476L211.068 33.6376ZM211.078 33.0176H211.238L211.488 34.0076H211.328L211.288 33.8076H211.028L210.978 34.0076H210.828L211.078 33.0176Z" fill="white"/>
<path fill-rule="evenodd" clip-rule="evenodd" d="M212.1 33.0176V33.1976H211.88V34.0076H211.73V33.1976H211.52V33.0176H212.1Z" fill="white"/>
</g>
<defs>
<clipPath id="clip0_410_7964">
<rect x="240" width="153.412" height="240" rx="9.41177" transform="rotate(90 240 0)" fill="white"/>
</clipPath>
</defs>
</svg>
