<svg width="241" height="154" viewBox="0 0 241 154" fill="none" xmlns="http://www.w3.org/2000/svg">
<path d="M227.886 0.412109H12.1301C5.43513 0.412109 0.0078125 6.06394 0.0078125 13.0358V140.788C0.0078125 147.76 5.43513 153.412 12.1301 153.412H227.886C234.58 153.412 240.008 147.76 240.008 140.788V13.0358C240.008 6.06394 234.58 0.412109 227.886 0.412109Z" fill="#E6E7E8"/>
<path d="M239.954 103.562V14.1136C239.954 14.1136 241.454 0.412109 227.504 0.412109C213.554 0.412109 138.014 0.678532 138.014 0.678532L239.954 103.562Z" fill="url(#paint0_linear_410_6879)"/>
<path d="M138.015 0.678532L12.4578 0.412109C12.4578 0.412109 0.0078125 1.46255 0.0078125 12.3857V137.534C0.0078125 137.534 63.9528 52.0058 121.148 46.1142C175.898 40.489 202.433 65.6921 202.433 65.6921L138.015 0.678532Z" fill="url(#paint1_linear_410_6879)"/>
<path d="M41.5234 20.7371H40.9879C37.2479 20.7371 33.4994 20.7371 29.7594 20.7371C28.6531 20.7006 27.5496 20.6148 26.4529 20.48C25.9939 20.4422 25.5264 20.4271 25.0674 20.3968L24.9824 20.0943C25.5419 19.991 26.1111 19.9353 26.6824 19.9279C26.7589 20.0262 26.8099 19.996 26.8439 19.9279C27.6514 19.8901 28.4589 19.8145 29.2579 19.8145C33.2529 19.8145 37.2564 19.8145 41.2514 19.8145H41.4979L41.5574 19.8674C41.5574 20.1397 41.5574 20.4044 41.5574 20.6766L41.5234 20.7371Z" fill="#1E3E81"/>
<path d="M41.5833 28.2128V28.9691L41.5152 29.0371H39.9173H28.6378C28.4047 29.0585 28.1692 29.0458 27.9407 28.9993C27.8727 28.8707 27.7878 28.8707 27.6943 28.9993C27.3365 29.0182 26.9774 29.0029 26.6233 28.9539C26.6233 28.8632 26.5383 28.8329 26.4618 28.9539C25.9917 28.9502 25.5238 28.8969 25.0678 28.7951C24.9998 28.485 25.4333 28.6892 25.4758 28.485L27.1248 28.3791C27.2013 28.4699 27.2523 28.4321 27.2863 28.3413C28.0759 28.2305 28.8766 28.195 29.6748 28.2354C29.7598 28.3186 29.8703 28.3035 29.9808 28.3035H36.0157C36.1262 28.3035 36.2708 28.3489 36.3303 28.2128C36.7369 28.1713 37.1476 28.1713 37.5542 28.2128H41.4388C41.4607 28.224 41.4857 28.23 41.511 28.23C41.5364 28.23 41.5613 28.224 41.5833 28.2128Z" fill="#1E3E81"/>
<path d="M19.0684 26.3675C19.0684 26.2768 19.0684 26.1785 19.0684 26.0802L23.9474 26.1255C26.068 26.1345 28.1876 26.0411 30.2969 25.8457C30.5009 25.8457 30.7049 25.8457 30.9089 25.8457H41.1514C41.5339 25.8457 41.6104 25.944 41.6274 26.2692C41.6444 26.5944 41.4829 26.6776 41.1344 26.6776C37.5559 26.6776 33.9774 26.6776 30.3989 26.6776C28.6564 26.6776 26.9139 26.4659 25.1629 26.4205C23.1625 26.3096 21.131 26.2919 19.0684 26.3675Z" fill="#1E3E81"/>
<path d="M36.9081 22.2599C38.4211 22.2069 39.9255 22.2599 41.4385 22.2599C41.4384 22.2761 41.4421 22.2922 41.4496 22.3071C41.457 22.3219 41.468 22.3352 41.4817 22.3459C41.4954 22.3567 41.5115 22.3647 41.529 22.3694C41.5465 22.3741 41.5649 22.3755 41.5831 22.3733V23.0313C41.5656 23.0292 41.5479 23.0303 41.531 23.0345C41.5141 23.0388 41.4984 23.0462 41.4848 23.0561C41.4712 23.066 41.4601 23.0784 41.4521 23.0923C41.4442 23.1063 41.4396 23.1215 41.4385 23.1371H40.9456H31.451C30.387 23.1066 29.3257 23.0232 28.272 22.8876C28.272 22.7968 28.187 22.7666 28.1105 22.8876C27.7528 22.9066 27.3937 22.8914 27.0395 22.8422C26.912 22.6834 26.7761 22.7288 26.6316 22.8422H25.5605V22.5851H26.623C26.691 22.6758 26.7506 22.6607 26.7931 22.5851C27.1443 22.5348 27.5 22.5146 27.8556 22.5246C27.9236 22.6229 27.983 22.6002 28.0255 22.5246C28.3506 22.4716 28.6821 22.4563 29.0115 22.4792C29.1135 22.5699 29.1986 22.5699 29.2581 22.4792C29.6408 22.4301 30.028 22.4149 30.414 22.4338C30.499 22.5246 30.6096 22.5019 30.7201 22.5019H36.6105C36.7125 22.3657 36.8486 22.4036 36.9081 22.2599Z" fill="#1E3E81"/>
<path d="M30.3311 21.9269C29.3706 21.9269 28.4101 21.7983 27.4496 21.7378C27.4071 21.6395 27.3561 21.6168 27.2881 21.7378C26.8481 21.7468 26.4079 21.7291 25.9706 21.6849C25.9281 21.5563 25.6476 21.579 25.7241 21.3748H26.0556C26.1576 21.4731 26.2426 21.4731 26.3021 21.337C27.5875 21.1846 28.8815 21.0963 30.1781 21.0723C33.7991 21.0723 37.4116 21.0723 41.0326 21.0723H41.5256L41.5851 21.1328V21.8891H30.7986C30.6626 21.8286 30.4671 21.8286 30.3311 21.9269Z" fill="#1E3E81"/>
<path d="M28.5178 27.7733C27.6678 27.7733 26.8772 27.5767 26.0527 27.5237V27.2136C27.4212 27.1607 28.7898 26.9867 30.1668 26.9716C30.2263 27.0548 30.2857 27.0397 30.3282 26.9716C30.4825 26.919 30.6496 26.9034 30.8127 26.9262H41.0127C41.6587 26.9262 41.5738 26.8431 41.5823 27.4254C41.5823 27.5237 41.5823 27.622 41.5823 27.7204H29.0193C28.8493 27.6977 28.6623 27.6372 28.5178 27.7733Z" fill="#1E3E81"/>
<path d="M27.9416 25.2088H27.2871C27.2871 25.0651 27.4061 25.0122 27.4486 24.9063C28.0351 24.8685 28.6216 24.8458 29.2081 24.7929C31.7581 24.5433 34.4016 24.6719 36.9941 24.6416C37.1216 24.7551 37.2746 24.7097 37.4191 24.7097H41.5841C41.5841 25.5038 41.5841 25.5038 40.7341 25.5038C37.5041 25.5038 34.2656 25.5038 31.0356 25.5038C30.0581 25.5038 29.0806 25.345 28.1031 25.2542C28.1116 25.1408 28.0181 25.1181 27.9416 25.2088Z" fill="#1E3E81"/>
<path d="M36.8235 23.4536C36.9153 23.4312 37.0092 23.416 37.104 23.4082H41.439C41.439 23.4838 41.507 23.5065 41.5835 23.5141V24.1721L41.524 24.225H36.628C34.9705 24.225 33.313 24.2628 31.6555 24.225C30.4995 24.225 29.3435 24.0586 28.1875 23.9679C28.06 23.809 27.924 23.8393 27.7795 23.9679H27.125V23.7032H27.618C27.72 23.8015 27.805 23.7939 27.8645 23.6578H28.7655C28.842 23.7485 28.893 23.7183 28.927 23.6578C29.4906 23.5886 30.0582 23.5482 30.627 23.5368C30.712 23.62 30.8225 23.6048 30.933 23.6048H36.5005C36.611 23.5368 36.7555 23.5595 36.8235 23.4536Z" fill="#1E3E81"/>
<path d="M27.4462 24.897C27.4037 25.0028 27.2422 25.0558 27.2847 25.1995C25.7292 25.1995 24.1737 25.1541 22.6182 25.1465C21.3772 25.1465 20.1277 25.1465 18.8867 25.1844V24.8894C19.9407 24.7911 20.9862 24.8894 22.0402 24.8894C23.6212 24.8894 25.2107 24.8894 26.7917 24.8894C27.0212 24.9197 27.2592 24.8516 27.4462 24.897Z" fill="#1E3E81"/>
<path d="M27.1247 23.6921V23.9568H19.3047V23.7072C20.8007 23.6467 22.3052 23.7602 23.8097 23.7602C24.9147 23.7602 26.0112 23.6845 27.1247 23.6921Z" fill="#1E3E81"/>
<path d="M28.5195 27.7785C28.664 27.6423 28.851 27.7029 29.021 27.7029H41.584C41.584 27.8844 41.4055 27.8163 41.3035 27.8163C37.1045 27.8163 32.9083 27.8163 28.715 27.8163C28.6482 27.8117 28.5824 27.799 28.5195 27.7785V27.7785Z" fill="#1E3E81"/>
<path d="M26.0535 27.2174V27.5275C24.4045 27.4368 22.747 27.5275 21.098 27.4746C20.7495 27.5236 20.3961 27.5388 20.044 27.5199C20.044 27.4141 19.9845 27.3158 19.959 27.2174C21.3275 27.2174 22.6875 27.1721 24.056 27.2174C24.7105 27.2855 25.382 27.2326 26.0535 27.2174Z" fill="#1E3E81"/>
<path d="M30.3281 21.9253C30.4641 21.8043 30.6426 21.8572 30.7956 21.8572H41.5821C41.5821 22.0614 41.3696 21.9782 41.2591 21.9782H30.6596C30.5321 21.9707 30.4216 22.0009 30.3281 21.9253Z" fill="#1E3E81"/>
<path d="M25.7221 21.3457C25.6456 21.5499 25.9261 21.5272 25.9686 21.6558C25.5904 21.6973 25.2079 21.6973 24.8296 21.6558C23.4016 21.6558 21.9651 21.6558 20.5371 21.6558V21.3835L25.7221 21.3457Z" fill="#1E3E81"/>
<path d="M25.5609 22.5828V22.8249H19.7129V22.5828C20.1449 22.5375 20.5814 22.5375 21.0134 22.5828C22.5264 22.5828 24.0479 22.5828 25.5609 22.5828Z" fill="#1E3E81"/>
<path d="M25.4758 28.395C25.4758 28.5992 24.9999 28.395 25.0679 28.7051C24.2831 28.6308 23.4928 28.6131 22.7049 28.6521C22.5568 28.6572 22.4092 28.6699 22.2628 28.69C22.2628 28.5311 22.1693 28.5009 22.0163 28.5009C21.8633 28.5009 21.7699 28.5009 21.6934 28.4252C22.4522 28.3912 23.2125 28.3912 23.9714 28.4252C24.4729 28.3799 24.9743 28.395 25.4758 28.395Z" fill="#1E3E81"/>
<path d="M36.3313 28.1228C36.2718 28.2589 36.1273 28.2135 36.0168 28.2135H29.9818C29.8713 28.2135 29.7608 28.2135 29.6758 28.1455C29.7137 28.1188 29.7575 28.0995 29.8044 28.0891C29.8513 28.0787 29.9002 28.0773 29.9478 28.085H36.1358C36.2026 28.0894 36.2684 28.1022 36.3313 28.1228V28.1228Z" fill="#1E3E81"/>
<path d="M36.91 22.2622C36.8505 22.4059 36.7145 22.3681 36.5955 22.3681H30.722C30.6115 22.3681 30.501 22.3681 30.416 22.3001C30.4944 22.2493 30.592 22.2276 30.688 22.2395H36.791L36.91 22.2622Z" fill="#1E3E81"/>
<path d="M36.8246 23.4541C36.7566 23.56 36.6376 23.5373 36.5356 23.5373H30.9681C30.8576 23.5373 30.7471 23.5373 30.6621 23.4692C30.7393 23.4461 30.8191 23.4309 30.9001 23.4238H36.6121C36.6837 23.4288 36.7548 23.4389 36.8246 23.4541Z" fill="#1E3E81"/>
<path d="M41.5846 24.7022H37.4621C37.3176 24.7022 37.1646 24.7476 37.0371 24.6342C37.1306 24.5585 37.2411 24.5812 37.3516 24.5812H41.3126C41.3806 24.5812 41.5591 24.498 41.5846 24.7022Z" fill="#1E3E81"/>
<path d="M24.9837 20.1191L25.0687 20.4217H22.2637V20.1494C23.1689 20.2263 24.0809 20.2162 24.9837 20.1191V20.1191Z" fill="#1E3E81"/>
<path d="M27.7793 23.9759C27.9238 23.87 28.0598 23.8397 28.1873 23.9759C28.1253 24.0077 28.0549 24.0245 27.9833 24.0245C27.9117 24.0245 27.8413 24.0077 27.7793 23.9759Z" fill="#1E3E81"/>
<path d="M26.6348 22.8066C26.7793 22.7159 26.9152 22.6705 27.0427 22.8066C26.8982 22.852 26.7623 22.8898 26.6348 22.8066Z" fill="#1E3E81"/>
<path d="M29.2677 29.2291C29.2491 29.2541 29.2239 29.2745 29.1942 29.2887C29.1646 29.3029 29.1314 29.3103 29.0977 29.3103C29.0641 29.3103 29.0309 29.3029 29.0013 29.2887C28.9716 29.2745 28.9463 29.2541 28.9277 29.2291C28.9776 29.1982 29.037 29.1816 29.0977 29.1816C29.1585 29.1816 29.2178 29.1982 29.2677 29.2291V29.2291Z" fill="#1E3E81"/>
<path d="M19.3887 21.6532C19.4822 21.517 19.5927 21.5321 19.7117 21.6532C19.6097 21.7212 19.4992 21.691 19.3887 21.6532Z" fill="#1E3E81"/>
<path d="M27.8656 23.6393C27.8061 23.7754 27.7211 23.783 27.6191 23.6847C27.6871 23.6091 27.7721 23.6242 27.8656 23.6393Z" fill="#1E3E81"/>
<path d="M27.6973 28.9429C27.7908 28.8446 27.8757 28.8446 27.9437 28.9429C27.9089 28.9681 27.8654 28.9818 27.8205 28.9818C27.7756 28.9818 27.7321 28.9681 27.6973 28.9429V28.9429Z" fill="#1E3E81"/>
<path d="M29.2563 22.3435C29.1968 22.4645 29.1118 22.4645 29.0098 22.3435C29.0452 22.3196 29.0885 22.3066 29.133 22.3066C29.1775 22.3066 29.2208 22.3196 29.2563 22.3435V22.3435Z" fill="#1E3E81"/>
<path d="M26.2992 21.3063C26.2397 21.4425 26.1547 21.4425 26.0527 21.3441C26.0858 21.3181 26.1264 21.3008 26.17 21.2941C26.2135 21.2874 26.2583 21.2917 26.2992 21.3063Z" fill="#1E3E81"/>
<path d="M41.5843 23.5345C41.5078 23.5345 41.4483 23.5345 41.4398 23.4286C41.4313 23.3227 41.6013 23.4286 41.5843 23.5345Z" fill="#1E3E81"/>
<path d="M41.584 28.2181C41.5471 28.2182 41.5115 28.2057 41.4847 28.1832C41.4578 28.1607 41.4416 28.1299 41.4395 28.0971C41.55 28.0668 41.601 28.1122 41.584 28.2181Z" fill="#1E3E81"/>
<path d="M27.2611 28.2523C27.2611 28.3431 27.1761 28.3809 27.0996 28.2901C27.1188 28.2697 27.1447 28.2551 27.1736 28.2484C27.2025 28.2416 27.2331 28.243 27.2611 28.2523V28.2523Z" fill="#1E3E81"/>
<path d="M28.9603 23.5878C28.9603 23.671 28.8753 23.7013 28.7988 23.5878C28.8092 23.578 28.8217 23.5701 28.8356 23.5648C28.8495 23.5594 28.8644 23.5566 28.8796 23.5566C28.8947 23.5566 28.9097 23.5594 28.9236 23.5648C28.9375 23.5701 28.95 23.578 28.9603 23.5878V23.5878Z" fill="#1E3E81"/>
<path d="M26.4609 28.8639C26.5374 28.7732 26.5884 28.8034 26.6224 28.8639C26.6005 28.882 26.5716 28.892 26.5417 28.892C26.5118 28.892 26.4829 28.882 26.4609 28.8639V28.8639Z" fill="#1E3E81"/>
<path d="M41.4395 23.1245C41.4405 23.1089 41.4451 23.0936 41.453 23.0797C41.461 23.0657 41.4721 23.0534 41.4857 23.0435C41.4993 23.0335 41.515 23.0262 41.5319 23.0219C41.5488 23.0176 41.5665 23.0165 41.584 23.0186C41.5925 23.1245 41.55 23.1623 41.4395 23.1245Z" fill="#1E3E81"/>
<path d="M28.0255 22.4155C28.0255 22.5063 27.9235 22.529 27.8555 22.4155C27.8806 22.4006 27.9102 22.3926 27.9404 22.3926C27.9707 22.3926 28.0003 22.4006 28.0255 22.4155V22.4155Z" fill="#1E3E81"/>
<path d="M41.584 22.3599C41.5659 22.362 41.5474 22.3607 41.5299 22.356C41.5124 22.3513 41.4963 22.3432 41.4826 22.3325C41.4689 22.3217 41.458 22.3085 41.4505 22.2936C41.4431 22.2788 41.4393 22.2627 41.4395 22.2464C41.55 22.2162 41.601 22.254 41.584 22.3599Z" fill="#1E3E81"/>
<path d="M26.7931 22.4875C26.7506 22.5782 26.691 22.5934 26.623 22.4875C26.6477 22.4715 26.6775 22.4629 26.7081 22.4629C26.7386 22.4629 26.7684 22.4715 26.7931 22.4875Z" fill="#1E3E81"/>
<path d="M18.7598 22.8065C18.8193 22.7233 18.8703 22.7233 18.9298 22.8065C18.9194 22.8176 18.9064 22.8266 18.8917 22.8327C18.877 22.8388 18.861 22.842 18.8448 22.842C18.8285 22.842 18.8125 22.8388 18.7978 22.8327C18.7831 22.8266 18.7701 22.8176 18.7598 22.8065V22.8065Z" fill="#1E3E81"/>
<path d="M27.2598 21.7159C27.3278 21.6176 27.3788 21.6403 27.4213 21.7159C27.4109 21.7257 27.3984 21.7336 27.3845 21.739C27.3706 21.7443 27.3557 21.7471 27.3405 21.7471C27.3254 21.7471 27.3104 21.7443 27.2965 21.739C27.2826 21.7336 27.2701 21.7257 27.2598 21.7159V21.7159Z" fill="#1E3E81"/>
<path d="M26.8705 19.9238C26.8705 20.0145 26.7855 20.0448 26.709 19.9238C26.7193 19.9139 26.7318 19.9061 26.7457 19.9007C26.7596 19.8953 26.7746 19.8926 26.7897 19.8926C26.8049 19.8926 26.8199 19.8953 26.8338 19.9007C26.8476 19.9061 26.8601 19.9139 26.8705 19.9238V19.9238Z" fill="#1E3E81"/>
<path d="M30.3314 26.9591C30.2889 27.0423 30.2294 27.0574 30.1699 26.9591C30.1795 26.9481 30.1917 26.9393 30.2057 26.9331C30.2197 26.927 30.2351 26.9238 30.2507 26.9238C30.2663 26.9238 30.2817 26.927 30.2957 26.9331C30.3097 26.9393 30.3219 26.9481 30.3314 26.9591Z" fill="#1E3E81"/>
<path d="M28.1113 22.8717C28.1878 22.781 28.2388 22.8112 28.2728 22.8717C28.2625 22.8816 28.25 22.8894 28.2361 22.8948C28.2222 22.9002 28.2072 22.9029 28.1921 22.9029C28.1769 22.9029 28.162 22.9002 28.1481 22.8948C28.1342 22.8894 28.1217 22.8816 28.1113 22.8717V22.8717Z" fill="#1E3E81"/>
<path d="M27.9414 25.2102C28.0179 25.1195 28.0689 25.1422 28.1114 25.2102C28.088 25.2289 28.0578 25.2391 28.0264 25.2391C27.995 25.2391 27.9648 25.2289 27.9414 25.2102V25.2102Z" fill="#1E3E81"/>
<path d="M41.5254 24.2504L41.5852 24.1973C41.5937 24.2428 41.5681 24.258 41.5254 24.2504Z" fill="#1E3E81"/>
<path d="M41.5156 29.0154L41.5837 28.9473C41.5922 28.9851 41.5751 29.0154 41.5156 29.0154Z" fill="#1E3E81"/>
<path d="M41.5849 21.125L41.5254 21.0645C41.5764 21.072 41.5934 21.072 41.5849 21.125Z" fill="#1E3E81"/>
<path d="M41.5254 20.7348L41.5766 20.6816C41.5766 20.6816 41.5681 20.7424 41.5254 20.7348Z" fill="#1E3E81"/>
<path d="M41.5852 19.8769L41.5254 19.8237C41.5681 19.8161 41.5852 19.8389 41.5852 19.8769Z" fill="#1E3E81"/>
<path d="M41.5254 19.6484L41.5849 19.5879C41.5934 19.6333 41.5764 19.6484 41.5254 19.6484Z" fill="#1E3E81"/>
<path d="M29.2663 29.2262C29.4409 29.2007 29.6168 29.183 29.7933 29.1733C33.5758 29.1733 37.3583 29.1733 41.1408 29.1733C41.4893 29.1733 41.6423 29.2338 41.5998 29.5666C41.6138 29.9563 41.5853 30.3464 41.5148 30.7313C41.3833 31.1881 41.083 31.5924 40.6622 31.879C40.2413 32.1657 39.7243 32.3182 39.1943 32.3119H18.7943C18.4755 32.3192 18.1583 32.2686 17.8622 32.1632C17.566 32.0577 17.2972 31.8996 17.072 31.6986C16.8469 31.4976 16.6702 31.2578 16.5527 30.994C16.4353 30.7301 16.3795 30.4477 16.3888 30.164C16.3888 26.3826 16.3888 22.6011 16.3888 18.8726C16.3745 18.5599 16.433 18.248 16.5607 17.9565C16.6884 17.6649 16.8825 17.4001 17.1307 17.1785C17.379 16.9568 17.6761 16.7833 18.0033 16.6688C18.3306 16.5543 18.6809 16.5012 19.0323 16.5129C24.6933 16.5129 30.3543 16.5129 36.0323 16.5129C37.0523 16.5129 38.0638 16.5129 39.0753 16.5129C39.415 16.4965 39.7548 16.544 40.0725 16.6523C40.3903 16.7605 40.6788 16.927 40.9194 17.1411C41.1599 17.3551 41.3471 17.6118 41.4688 17.8945C41.5904 18.1772 41.6437 18.4795 41.6253 18.7818C41.6253 19.0465 41.6253 19.3112 41.6253 19.5835L41.5658 19.644H28.6544C27.2282 19.6137 25.807 19.4822 24.4044 19.2507C23.7272 19.1593 23.0363 19.1902 22.3728 19.3415C22.1518 19.3944 21.9054 19.4625 21.8799 19.7121C21.8544 19.9616 22.0923 20.0297 22.2878 20.1129V20.3852L20.2903 20.4456C19.7633 20.4456 19.4403 20.6272 19.4403 20.8843C19.4403 21.1414 19.7378 21.2927 20.2903 21.3305C20.3978 21.3382 20.5058 21.3382 20.6133 21.3305V21.6028H19.7633C19.6443 21.5045 19.5338 21.4893 19.4403 21.6028C19.3468 21.7162 19.0408 21.6709 18.8453 21.7162C18.7508 21.7291 18.6648 21.7724 18.6037 21.8379C18.5426 21.9034 18.5106 21.9866 18.5138 22.0717C18.5138 22.2608 18.6668 22.3364 18.8368 22.4045C19.1343 22.5179 19.4573 22.4045 19.7633 22.5028V22.7372H18.9133C18.8538 22.654 18.8028 22.654 18.7433 22.7372C18.5736 22.7746 18.4062 22.82 18.2419 22.8734C18.1651 22.8998 18.0995 22.9467 18.0538 23.0076C18.0082 23.0685 17.9848 23.1405 17.9868 23.2137C17.9868 23.3952 18.1313 23.4557 18.2758 23.5238C18.6163 23.6065 18.9685 23.6447 19.3213 23.6372V23.8868C18.9676 23.887 18.6146 23.9174 18.2674 23.9776C18.0634 24.0305 17.8508 24.1061 17.8338 24.3406C17.8168 24.575 18.0293 24.6506 18.2333 24.7263C18.4373 24.8019 18.6923 24.7263 18.9133 24.817V25.112C18.6832 25.109 18.4547 25.1476 18.2419 25.2254C18.1667 25.2531 18.1029 25.3005 18.0588 25.3613C18.0148 25.4221 17.9926 25.4935 17.9953 25.5658C17.9953 25.7397 18.1313 25.8153 18.2843 25.8834C18.5457 25.9426 18.8137 25.9755 19.0833 25.9817C19.0833 26.08 19.0833 26.1784 19.0833 26.2691C19.0833 26.3599 18.8538 26.3372 18.7433 26.3826C18.6592 26.4092 18.5875 26.4602 18.5397 26.5274C18.492 26.5946 18.4709 26.6741 18.4799 26.7532C18.4799 26.9271 18.6413 26.9876 18.8028 27.0481C19.1887 27.1186 19.582 27.1516 19.9758 27.1464C19.9758 27.2447 20.0353 27.3431 20.0608 27.4489C19.7803 27.5246 19.3893 27.5699 19.4233 27.9027C19.4573 28.2355 19.8738 28.2657 20.1968 28.296C20.7022 28.2822 21.2079 28.3024 21.7098 28.3565C21.7863 28.4699 21.9223 28.4321 22.0328 28.4321C22.1433 28.4321 22.2964 28.4321 22.2794 28.6212C22.0584 28.7271 21.8118 28.8254 21.8628 29.0977C21.9138 29.3699 22.2454 29.4758 22.5174 29.5212C23.3078 29.6687 24.1239 29.6687 24.9143 29.5212C26.2382 29.27 27.5899 29.1533 28.9433 29.1733C28.9573 29.1989 28.9779 29.2211 29.0033 29.2384C29.0287 29.2556 29.0584 29.2672 29.0898 29.2724C29.1212 29.2775 29.1536 29.276 29.1843 29.268C29.2149 29.26 29.243 29.2457 29.2663 29.2262V29.2262Z" fill="#1E3E81"/>
<path fill-rule="evenodd" clip-rule="evenodd" d="M193.596 27.3888C193.176 27.3788 192.846 27.0488 192.846 26.6388V21.7188H190.576V27.5788C190.576 28.7288 191.506 29.6588 192.656 29.6588H197.006V27.3888H193.596Z" fill="white"/>
<path fill-rule="evenodd" clip-rule="evenodd" d="M186.037 27.3888C185.617 27.3788 185.287 27.0488 185.277 26.6388V21.7188H183.007V26.6388C183.007 27.0488 182.667 27.3788 182.257 27.3888H172.797V29.6588H182.067C183.207 29.6588 184.147 28.7188 184.147 27.5788C184.147 28.7288 185.087 29.6588 186.227 29.6588H189.447V27.3888H186.037Z" fill="white"/>
<path fill-rule="evenodd" clip-rule="evenodd" d="M151.037 24.7466H161.447V22.4766H148.957C148.947 22.5366 148.947 22.5966 148.947 22.6566C148.957 23.8166 149.887 24.7466 151.037 24.7466Z" fill="white"/>
<path fill-rule="evenodd" clip-rule="evenodd" d="M161.837 26.6266C162.247 26.6266 162.587 26.2966 162.587 25.8766V22.4766H164.857V26.8166C164.857 27.9666 163.927 28.8966 162.777 28.8966H159.938V26.6266H161.837Z" fill="white"/>
<path fill-rule="evenodd" clip-rule="evenodd" d="M169.006 23.6097C168.596 23.5997 168.266 23.2697 168.256 22.8597V17.9297H165.986V23.7997C165.986 24.9497 166.916 25.8697 168.066 25.8697H173.736C174.886 25.8697 175.816 24.9497 175.816 23.7997C175.816 24.9497 176.746 25.8697 177.896 25.8697H181.866V23.6097H176.566C176.156 23.5997 175.826 23.2697 175.816 22.8597V20.2097H169.766V22.4897H174.296V22.8697C174.286 23.2797 173.956 23.6097 173.546 23.6197H169.006V23.6097Z" fill="white"/>
<path fill-rule="evenodd" clip-rule="evenodd" d="M156.916 18.4297C156.186 18.4297 155.586 19.0297 155.586 19.7597C155.586 20.4897 156.186 21.0897 156.916 21.0897C157.646 21.0897 158.246 20.4897 158.246 19.7597C158.256 19.0297 157.646 18.4297 156.916 18.4297Z" fill="white"/>
<path fill-rule="evenodd" clip-rule="evenodd" d="M169.726 27.1484C168.996 27.1484 168.396 27.7484 168.396 28.4784C168.396 29.2084 168.996 29.8084 169.726 29.8084C170.456 29.8084 171.056 29.2084 171.056 28.4784C171.056 27.7484 170.456 27.1484 169.726 27.1484Z" fill="white"/>
<path fill-rule="evenodd" clip-rule="evenodd" d="M194.627 30.75C193.897 30.75 193.297 31.35 193.297 32.08C193.297 32.81 193.897 33.41 194.627 33.41C195.357 33.41 195.957 32.81 195.957 32.08C195.957 31.35 195.357 30.75 194.627 30.75Z" fill="white"/>
<path fill-rule="evenodd" clip-rule="evenodd" d="M188.018 22.7031C187.288 22.7031 186.688 23.3031 186.688 24.0331C186.688 24.7631 187.288 25.3631 188.018 25.3631C188.748 25.3631 189.348 24.7631 189.348 24.0331C189.348 23.3031 188.748 22.7031 188.018 22.7031Z" fill="white"/>
<path fill-rule="evenodd" clip-rule="evenodd" d="M181.098 18.4375C180.368 18.4375 179.768 19.0275 179.768 19.7675C179.768 20.4975 180.368 21.0975 181.098 21.0975C181.828 21.0975 182.428 20.4975 182.428 19.7675C182.428 19.0275 181.828 18.4375 181.098 18.4375Z" fill="white"/>
<path fill-rule="evenodd" clip-rule="evenodd" d="M178.428 18.4531C177.698 18.4531 177.098 19.0531 177.098 19.7831C177.098 20.5231 177.698 21.1131 178.428 21.1131C179.158 21.1131 179.758 20.5131 179.758 19.7831C179.758 19.0431 179.158 18.4531 178.428 18.4531Z" fill="white"/>
<path fill-rule="evenodd" clip-rule="evenodd" d="M154.256 18.4688C153.526 18.4688 152.926 19.0687 152.926 19.7987C152.926 20.5287 153.526 21.1287 154.256 21.1287C154.986 21.1287 155.586 20.5387 155.586 19.7987C155.576 19.0687 154.986 18.4688 154.256 18.4688Z" fill="white"/>
<path fill-rule="evenodd" clip-rule="evenodd" d="M217.677 30.3325L215.967 32.3625H216.157L218.057 30.3325H217.677ZM216.907 30.3625L215.557 32.3625H215.757L217.277 30.3625H216.907ZM216.387 30.3725L215.237 32.3625H215.387L216.627 30.3725H216.387ZM215.857 30.4025L214.967 32.3625H215.107L216.097 30.4025H215.857ZM215.457 30.2925L214.727 32.3625H214.867L215.587 30.4225L215.457 30.2925ZM215.057 30.0225L214.457 32.3625H214.577L215.227 30.1225L215.057 30.0225ZM214.637 29.3725L214.217 32.3725H214.317L214.937 28.9525C214.797 28.9525 214.637 29.3725 214.637 29.3725ZM214.047 29.8825L213.917 32.3625H214.057L214.277 29.8025C214.167 29.7425 214.047 29.8825 214.047 29.8825ZM213.527 30.4325L213.547 32.3625H213.767V30.2725C213.667 30.4125 213.527 30.4325 213.527 30.4325ZM213.067 30.4525L213.257 32.3725H213.397L213.277 30.4525H213.067ZM212.607 30.4425L213.017 32.3625H213.127L212.817 30.4425H212.607ZM212.177 30.4825L212.727 32.3625H212.867L212.357 30.4825H212.177ZM211.547 29.6525C211.547 29.6525 211.437 29.9525 211.607 30.2825L212.477 32.3725H212.597L211.927 30.4825C211.927 30.4825 211.687 30.4325 211.727 30.2325C211.777 30.0325 211.827 29.9325 211.577 29.6625L211.547 29.6525ZM209.827 27.8825L212.187 32.3625H212.337L210.337 28.1625L209.827 27.8825ZM210.857 28.2725V28.2925C210.887 28.5725 210.947 28.5625 211.057 28.8325C211.177 29.0925 211.087 29.1625 211.087 29.1625C210.927 29.3625 211.227 29.5025 211.227 29.5025C211.247 29.8025 211.377 29.8725 211.377 29.8725C211.377 29.8725 211.317 29.6125 211.447 29.4925C211.577 29.3725 211.777 29.6125 211.947 29.8025C212.117 29.9925 212.027 30.0425 211.917 30.1825C211.817 30.3225 211.967 30.2825 211.967 30.2825C212.407 30.2325 213.527 30.2625 213.527 30.2625C213.737 30.0125 213.787 30.0525 213.887 29.9025C214.007 29.7225 214.107 29.6225 214.107 29.6225C214.377 29.6425 214.367 29.5825 214.367 29.5825C214.397 29.4825 214.367 29.4125 214.517 29.2625C214.667 29.1125 214.577 28.9825 214.767 28.8025C214.957 28.6125 215.107 28.8125 215.107 28.8125V29.6225C215.067 29.7425 214.947 29.8025 215.217 29.9125C215.487 30.0225 215.657 30.1925 215.657 30.1925L218.487 30.1625C218.667 30.1525 218.687 30.1025 218.747 30.0425C218.807 29.9825 218.747 29.8325 218.747 29.8325H218.377C218.137 29.6725 217.807 29.7025 217.807 29.7025C217.377 29.4425 216.387 29.4725 216.067 29.4425C215.737 29.4125 215.567 29.1125 215.397 28.7225C215.227 28.3325 214.977 28.3825 214.977 28.3825C214.587 28.3925 214.167 28.7325 214.167 28.7325C213.667 28.9225 213.247 28.7225 213.247 28.7225C212.657 28.1225 212.597 28.4725 212.477 28.3225C212.267 28.0625 211.737 27.8625 211.737 27.8625C211.127 27.2925 211.007 26.7325 210.907 26.4725C210.807 26.2125 210.867 26.2325 210.547 26.2125C210.227 26.2025 210.147 25.9625 210.147 25.9625C210.147 25.9625 210.007 26.2925 209.857 26.3025C209.707 26.3225 209.767 26.3225 209.757 26.4425C209.737 26.5625 209.587 26.5125 209.587 26.5125C209.167 26.6325 209.327 26.8625 209.457 27.0025C209.587 27.1425 209.567 27.3125 209.567 27.3125C209.757 27.7425 210.857 28.2725 210.857 28.2725ZM206.757 18.7525C206.757 18.7525 206.757 18.6125 206.757 18.7725C206.757 18.9425 206.907 19.6525 206.907 19.6525C206.907 19.6525 207.197 20.1025 207.257 20.5925C207.317 21.0825 207.857 21.4525 207.907 21.5925C207.947 21.7325 207.997 22.0025 207.787 22.6725C207.577 23.3325 208.007 23.2225 208.017 23.5725C208.017 23.9125 208.437 23.9425 208.437 23.9425C209.147 24.0825 209.267 24.4625 209.267 24.4625V24.9725C209.497 25.2925 209.487 25.4125 209.507 25.7925C209.527 26.1625 209.727 26.2925 209.907 25.9925C210.087 25.6925 210.267 25.8025 210.267 25.8025C210.327 25.9625 210.307 26.0225 210.647 26.0325C210.977 26.0425 211.047 26.3025 211.047 26.3025C211.257 27.2825 211.877 27.7625 211.877 27.7625C211.877 27.7625 212.177 27.8425 212.377 28.0125C212.577 28.1825 212.587 28.1325 212.587 28.1325C212.827 28.1925 213.047 28.3425 213.047 28.3425C213.807 28.8725 213.867 28.6225 214.477 28.3025C215.247 27.9125 215.487 28.4625 215.677 28.8825C215.867 29.3025 216.037 29.2225 216.037 29.2225C216.747 29.2325 217.367 29.3825 217.587 29.4125C217.807 29.4425 218.197 29.6925 218.237 29.5425C218.267 29.3925 218.357 28.9325 218.357 28.9325C218.577 28.0625 219.167 28.1225 219.287 28.1025C219.407 28.0825 219.287 28.0525 219.287 28.0525C218.837 27.9625 218.887 27.8725 218.887 27.4925C218.887 27.1125 218.637 27.2225 218.227 26.7925C217.807 26.3625 217.887 25.9025 217.907 25.6825C217.917 25.4625 218.507 25.3225 218.477 25.0425C218.447 24.7625 217.977 24.9225 217.757 24.7825C217.547 24.6425 217.617 24.0825 217.617 24.0825C217.547 23.9125 217.557 23.6025 217.557 23.6025C217.647 23.2925 217.437 23.1625 217.437 23.1625C217.077 22.8425 217.437 22.4225 217.647 22.1425C217.847 21.8625 217.837 21.6925 217.837 21.6925C217.777 21.5225 217.727 21.2325 217.817 20.9825C217.907 20.7325 217.797 20.7025 217.537 20.5925C217.277 20.4825 217.257 20.3425 217.257 20.3425C216.937 20.3425 217.107 20.4025 216.827 20.1725C216.547 19.9425 216.677 20.0325 216.207 20.0525C215.737 20.0725 215.287 19.4725 215.287 19.4725H214.887C214.447 19.8125 214.087 19.5425 214.087 19.5425C214.087 19.5425 213.607 20.0725 213.467 20.2025C213.327 20.3325 213.297 20.2625 213.297 20.2625C213.117 20.2425 213.237 20.3725 213.237 20.3725C213.297 20.6925 213.187 20.7225 213.187 20.7225C212.937 21.0125 212.867 20.9625 212.817 20.8725C212.767 20.7725 212.797 20.6725 212.267 20.8625C211.737 21.0525 211.897 20.7625 211.647 20.8825C211.397 21.0025 211.217 20.7925 211.217 20.7925C210.687 20.2325 210.537 20.4725 210.067 20.2525C209.597 20.0325 209.767 19.7525 209.737 19.5125C209.707 19.2725 209.497 19.4225 209.307 19.3725C209.107 19.3125 209.177 19.0225 209.187 18.7125C209.197 18.4025 209.127 18.3525 209.127 18.3525C208.957 18.3125 208.787 18.5325 208.787 18.5325C208.747 18.7925 207.737 19.3825 207.507 18.9625C207.067 18.1825 206.897 18.2625 206.897 18.2625C206.727 18.3125 206.757 18.7525 206.757 18.7525ZM206.407 34.7225H220.917V32.6725H206.407V34.7225ZM210.127 14.4325L211.037 14.1225L211.527 18.0225H210.707L210.127 14.4325ZM206.077 32.4125L206.447 32.0525C206.447 32.0525 205.077 30.8225 204.487 29.7825L209.447 32.3525H209.607L204.077 28.9925L203.687 28.1225L210.097 32.3625H210.277L203.377 27.3025C203.377 27.3025 203.147 26.4025 203.117 26.1825L210.627 32.3625H210.887L203.027 25.1525V24.2325L211.157 32.3725H211.327L203.077 23.3625L203.267 22.2325L211.527 32.3725H211.717L203.447 21.3525L203.807 20.4025L211.877 32.3725H212.047L204.157 19.5525L204.747 18.5625L209.137 26.6125C209.137 26.6125 209.257 26.4125 209.477 26.4125L208.357 24.1425C208.357 24.1425 207.847 24.0925 207.827 23.5225C207.827 23.5225 207.767 23.3725 207.617 23.1925C207.477 23.0125 207.737 22.6425 207.507 22.4025L205.257 17.8625L205.937 17.0525L206.547 18.4625C206.547 18.4625 206.647 17.9125 207.067 18.1125L207.617 18.8525L206.657 16.3625L207.467 15.7225L208.477 18.6625C208.477 18.6625 208.457 18.7525 208.587 18.4325C208.687 18.1925 209.007 18.1525 209.007 18.1525L208.217 15.2325L209.227 14.7225L209.937 18.3325C209.937 18.3325 210.367 18.7825 210.037 18.9925C210.037 18.9925 209.957 19.0925 209.827 18.9525L209.887 19.8525C209.887 19.8525 209.857 20.0925 210.407 20.1325C210.957 20.1825 211.227 20.6125 211.397 20.7125C211.577 20.8125 211.597 20.5825 211.817 20.6625C212.037 20.7525 211.917 20.9025 212.677 20.5425C212.677 20.5425 212.837 20.4225 212.887 20.6425C212.887 20.6425 212.917 20.8025 213.057 20.6025C213.057 20.6025 213.027 20.2525 212.977 20.0625C212.927 19.8725 212.897 19.2525 213.047 18.8925C213.047 18.8925 213.087 18.7925 212.947 18.8725C212.817 18.9525 212.717 19.1225 212.557 18.7525C212.557 18.7525 212.387 18.5525 212.417 18.1925L212.147 18.1525C212.147 18.1525 212.397 18.0825 212.227 17.1525L212.007 13.9025L213.047 13.8125L213.257 20.0125C213.257 20.0125 213.307 20.1225 213.457 19.9125C213.597 19.7025 213.827 19.5025 213.827 19.5025V13.8125L214.887 13.9125L214.617 19.3925C214.617 19.3925 214.947 19.1725 215.327 19.3025L215.857 14.0825L216.817 14.3625L216.007 19.8125C216.007 19.8125 216.117 19.8025 216.357 19.7825C216.557 19.7625 216.677 19.8425 216.677 19.8425L217.697 14.6925L218.667 15.2025L217.437 20.2025C217.437 20.2025 217.377 20.3625 217.487 20.4125C217.587 20.4625 217.857 20.5025 217.937 20.6325L219.427 15.6425L220.237 16.2525L217.697 23.6225C217.697 23.6225 217.797 24.2725 217.797 24.5425C217.797 24.5425 217.877 24.6725 217.937 24.5025C218.007 24.3325 220.977 16.9125 220.977 16.9125L221.677 17.6625L218.397 24.7525C218.397 24.7525 218.777 25.0625 218.467 25.3325C218.057 25.6825 217.937 25.7625 218.097 26.2525C218.097 26.2525 218.127 26.3325 218.207 26.1625L222.227 18.3925L222.777 19.3225L218.437 26.7925L218.637 26.9625C218.637 26.9625 218.757 27.0425 218.837 26.9125C218.907 26.7925 223.207 20.2025 223.207 20.2025L223.537 21.1325L219.027 27.4025C219.027 27.4025 218.897 27.9525 219.237 27.7625L223.767 21.9925L223.967 23.0825L218.407 29.4525C218.407 29.4525 218.267 29.7025 218.567 29.6525L224.007 24.0625V25.0325L218.727 30.0125C218.727 30.0125 218.747 30.1525 218.577 30.1625L216.367 32.3425H216.607L223.857 25.9625L223.657 27.0225L216.947 32.3425H217.207L223.357 27.9025L222.977 28.8425L217.667 32.3425H217.827L222.557 29.5725C222.557 29.5725 221.927 30.7825 220.757 31.7825C220.757 31.7825 220.707 31.8725 221.137 32.2125V35.0125H206.087L206.077 32.4125Z" fill="white"/>
<path fill-rule="evenodd" clip-rule="evenodd" d="M213.448 22.8869L213.388 23.2269C213.388 23.2269 213.248 23.1669 213.178 23.0969C213.178 23.0969 213.088 23.2369 213.358 23.3969L213.348 23.7369C213.348 23.7369 213.198 23.7169 212.958 23.4669C212.958 23.4669 212.828 23.7569 213.318 23.9969L213.328 24.2969C213.328 24.2969 213.028 24.1969 212.818 23.9869C212.818 23.9869 212.698 24.4669 213.288 24.6869L213.298 24.9669C213.298 24.9669 213.078 24.9769 212.598 24.4769C212.598 24.4769 212.678 25.3269 213.458 25.4069C214.248 25.3269 214.318 24.4769 214.318 24.4769C213.838 24.9769 213.618 24.9669 213.618 24.9669L213.628 24.6869C214.218 24.4569 214.098 23.9869 214.098 23.9869C213.888 24.1969 213.588 24.2969 213.588 24.2969L213.598 23.9969C214.088 23.7569 213.958 23.4669 213.958 23.4669C213.718 23.7269 213.568 23.7369 213.568 23.7369L213.558 23.3969C213.828 23.2369 213.738 23.0969 213.738 23.0969C213.668 23.1769 213.528 23.2269 213.528 23.2269L213.448 22.8869ZM214.508 25.3569C214.238 25.6469 213.858 25.7369 213.858 25.7369L213.898 25.9169C213.748 26.0069 213.308 25.9469 213.308 25.9469V25.7969C212.928 25.7769 212.588 25.5369 212.588 25.5369L212.468 25.6969C212.278 25.5769 212.068 25.3569 212.068 25.3569L212.198 25.1869C211.958 24.9769 211.858 24.5569 211.858 24.5569H211.598V24.0269L211.838 24.0169C211.838 23.6669 212.018 23.3969 212.018 23.3969L211.838 23.2069C211.838 23.1369 212.198 22.7969 212.198 22.7969L212.438 22.9069C212.528 22.7569 212.988 22.5669 212.988 22.5669C212.968 22.5069 212.958 22.3069 212.958 22.3069L213.528 22.2969L213.538 22.5469C213.738 22.5469 214.158 22.7069 214.158 22.7069L214.318 22.5169C214.408 22.5569 214.768 22.8569 214.768 22.8569L214.568 23.0469C214.938 23.3569 214.968 23.7069 214.968 23.7069L215.238 23.6869L215.258 24.2369L215.028 24.2569C215.018 24.6469 214.858 24.9369 214.858 24.9369C214.858 24.9569 215.038 25.0669 215.038 25.0669L214.638 25.4969C214.668 25.4969 214.528 25.3369 214.508 25.3569Z" fill="white"/>
<path d="M211.867 22.0056C212.387 21.4356 213.247 21.4056 213.247 21.4056C214.787 21.2956 215.767 22.4756 215.977 23.0956C216.177 23.7156 216.107 24.6456 216.097 25.0856C216.087 25.5156 216.947 25.8656 216.947 25.8656L216.577 26.4856C216.577 26.4856 216.157 26.3356 215.917 26.0956C215.447 25.6256 215.407 25.0056 215.407 25.0056L215.187 24.8656C215.297 24.6356 215.337 24.3456 215.337 24.3456L215.597 24.3156C215.627 23.7756 215.487 23.3756 215.487 23.3756L215.247 23.4656C215.177 23.1956 214.967 22.9656 214.967 22.9656L215.107 22.8256C214.867 22.4456 214.377 22.1856 214.377 22.1856L214.207 22.4056C214.067 22.3056 213.767 22.2856 213.767 22.2856L213.747 22.0256C213.267 21.9756 212.807 22.0656 212.807 22.0656L212.827 22.3656L212.327 22.6156L211.867 22.0056Z" fill="white"/>
<path d="M210.327 21.7031C210.587 21.7531 211.087 22.1631 211.087 22.1631C211.517 22.5731 211.447 23.2131 211.447 23.2131L211.677 23.3331C211.587 23.5531 211.567 23.8431 211.567 23.8431H211.317C211.247 24.3331 211.427 24.8531 211.427 24.8531L211.657 24.7931C211.757 25.0231 211.927 25.2031 211.927 25.2031L211.717 25.3731C211.937 25.7831 212.467 26.0131 212.467 26.0131L212.617 25.8331C212.617 25.8431 213.077 25.9931 213.077 25.9931L213.097 26.2431C213.097 26.2431 213.617 26.3331 214.087 26.1731L214.027 25.9131L214.547 25.6831L214.957 26.2831C213.797 27.0631 212.427 26.7731 211.537 25.9931C210.707 25.2731 210.777 23.8931 210.797 23.5531C210.797 23.5531 210.827 23.3031 210.767 22.9931C210.697 22.6631 209.977 22.3231 209.977 22.3231C209.977 22.3231 210.317 21.7031 210.327 21.7031Z" fill="white"/>
<path fill-rule="evenodd" clip-rule="evenodd" d="M216.297 34.0791C216.297 34.1391 216.057 34.3291 215.947 34.4191C215.937 34.4291 215.907 34.4491 215.937 34.4591C215.987 34.4791 216.057 34.4891 216.177 34.4891C216.447 34.4891 216.437 33.9291 216.277 33.6791C216.267 33.6591 216.247 33.6591 216.237 33.6791C216.227 33.7091 216.167 33.8091 216.157 33.8291C216.137 33.8691 216.137 33.8691 216.157 33.8891C216.187 33.9291 216.297 34.0291 216.297 34.0791Z" fill="white"/>
<path fill-rule="evenodd" clip-rule="evenodd" d="M217.646 34.0078C217.646 34.0978 217.626 34.1478 217.596 34.1478C217.516 34.1478 217.436 34.1178 217.386 34.0678C217.326 33.9978 217.346 33.8878 217.306 33.8878C217.286 33.8878 217.186 34.0378 217.106 34.0978C217.046 34.1378 216.986 34.1478 216.906 34.1478H216.886C216.846 34.1478 216.826 34.0478 216.826 33.9978C216.826 33.9378 216.846 33.8678 216.876 33.8678H217.106C217.186 33.8678 217.286 33.8278 217.286 33.7878C217.286 33.7778 217.126 33.7178 217.086 33.7178C217.056 33.7278 217.026 33.7478 217.006 33.7878C216.996 33.8178 216.946 33.7978 216.946 33.7678C216.956 33.7378 216.966 33.6578 216.986 33.6178C217.006 33.5578 217.046 33.5078 217.116 33.5078C217.176 33.5078 217.276 33.5578 217.556 33.6078C217.566 33.6078 217.576 33.6178 217.566 33.6278C217.566 33.6478 217.546 33.7378 217.526 33.8178C217.526 33.8278 217.516 33.8278 217.506 33.8278C217.486 33.8278 217.406 33.8078 217.406 33.8278C217.406 33.8578 217.486 33.8578 217.596 33.8578C217.626 33.8578 217.646 33.9078 217.646 34.0078ZM217.346 34.4478C217.346 34.4578 217.346 34.4578 217.346 34.4678L217.246 34.5678C217.236 34.5778 217.226 34.5778 217.226 34.5678L217.116 34.4678C217.116 34.4578 217.116 34.4478 217.116 34.4478L217.226 34.3478C217.236 34.3378 217.236 34.3478 217.246 34.3478L217.346 34.4478Z" fill="white"/>
<path fill-rule="evenodd" clip-rule="evenodd" d="M220.728 33.6356C220.758 33.7756 220.748 33.8856 220.668 34.0156C220.628 34.0856 220.528 34.1356 220.438 34.1356H220.428C220.388 34.1356 220.368 34.0456 220.368 33.9956C220.368 33.9356 220.378 33.8556 220.418 33.8556C220.418 33.8556 220.568 33.8556 220.598 33.8556C220.648 33.8456 220.658 33.8156 220.638 33.7856C220.628 33.7556 220.608 33.7256 220.538 33.6756C220.508 33.6556 220.508 33.6556 220.528 33.6356C220.528 33.6356 220.578 33.5256 220.608 33.4756C220.618 33.4456 220.638 33.4456 220.658 33.4756C220.678 33.4956 220.718 33.5856 220.728 33.6356ZM220.528 34.4556C220.538 34.4656 220.528 34.4656 220.528 34.4756L220.448 34.5656C220.438 34.5756 220.438 34.5756 220.428 34.5656L220.338 34.4756C220.328 34.4656 220.328 34.4656 220.338 34.4556L220.428 34.3656C220.438 34.3656 220.438 34.3656 220.448 34.3656L220.528 34.4556Z" fill="white"/>
<path fill-rule="evenodd" clip-rule="evenodd" d="M218.876 33.1592C218.836 33.1792 218.676 33.2492 218.676 33.3592C218.676 33.4692 218.886 33.4492 218.796 33.5292C218.706 33.6092 218.726 33.6691 218.836 33.6191C218.916 33.5791 218.976 33.4491 218.886 33.3791C218.806 33.3191 218.716 33.4191 218.916 33.2291C218.926 33.2291 218.926 33.1392 218.876 33.1592Z" fill="white"/>
<path fill-rule="evenodd" clip-rule="evenodd" d="M215.816 33.5453C215.926 33.6753 215.936 33.8653 215.816 33.9953C215.696 34.1253 215.526 34.1553 215.156 34.1353C215.066 34.1253 215.016 34.1053 214.976 34.0653C214.906 33.9953 214.896 33.8053 214.926 33.6453C214.946 33.5753 214.996 33.5653 214.986 33.6553C214.976 33.7453 215.026 33.7953 215.096 33.8253C215.206 33.8653 215.636 33.8353 215.746 33.8253C215.806 33.8153 215.786 33.7853 215.776 33.7753C215.766 33.7553 215.756 33.7453 215.706 33.7153C215.686 33.6953 215.686 33.6953 215.696 33.6753C215.696 33.6753 215.736 33.5953 215.766 33.5453C215.786 33.5253 215.796 33.5253 215.816 33.5453ZM215.656 33.3753C215.666 33.3753 215.656 33.3853 215.656 33.3953L215.556 33.4953C215.546 33.5053 215.546 33.5053 215.536 33.4953L215.436 33.3953C215.426 33.3953 215.426 33.3853 215.436 33.3753L215.536 33.2753C215.546 33.2653 215.546 33.2753 215.556 33.2753L215.656 33.3753ZM215.406 33.3853L215.306 33.4853C215.296 33.4953 215.296 33.4953 215.286 33.4853L215.186 33.3853C215.176 33.3853 215.176 33.3753 215.186 33.3653L215.286 33.2653C215.296 33.2553 215.296 33.2553 215.306 33.2653L215.406 33.3653C215.416 33.3753 215.416 33.3753 215.406 33.3853Z" fill="white"/>
<path fill-rule="evenodd" clip-rule="evenodd" d="M216.928 34.0028C216.928 33.9128 216.908 33.8628 216.878 33.8628H216.818C216.768 33.8628 216.718 33.8728 216.688 33.8328C216.658 33.7828 216.668 33.3028 216.668 33.2528C216.668 33.2028 216.648 33.1928 216.628 33.2128C216.598 33.2428 216.538 33.3028 216.528 33.3228C216.518 33.3328 216.518 33.3428 216.518 33.3528C216.528 33.5128 216.538 33.7628 216.538 33.8228C216.538 33.9228 216.558 34.0128 216.588 34.0628C216.618 34.1128 216.678 34.1428 216.818 34.1428H216.868C216.908 34.1428 216.928 34.0928 216.928 34.0028Z" fill="white"/>
<path fill-rule="evenodd" clip-rule="evenodd" d="M217.916 33.6328C217.946 33.7728 217.936 33.8828 217.856 34.0128C217.816 34.0828 217.726 34.1328 217.626 34.1328H217.616C217.576 34.1328 217.566 34.0428 217.566 33.9928C217.566 33.9328 217.576 33.8528 217.616 33.8528C217.616 33.8528 217.766 33.8528 217.796 33.8528C217.846 33.8428 217.856 33.8128 217.836 33.7828C217.826 33.7528 217.806 33.7228 217.736 33.6728C217.706 33.6528 217.706 33.6528 217.726 33.6328C217.726 33.6328 217.776 33.5228 217.806 33.4728C217.826 33.4428 217.836 33.4428 217.856 33.4728C217.856 33.4928 217.896 33.5828 217.916 33.6328ZM218.046 33.0528C218.056 33.0628 218.056 33.0628 218.046 33.0728L217.946 33.1728C217.936 33.1828 217.936 33.1828 217.926 33.1728L217.816 33.0728C217.806 33.0728 217.806 33.0628 217.816 33.0528L217.926 32.9528C217.926 32.9428 217.936 32.9428 217.946 32.9528L218.046 33.0528ZM217.776 33.0828L217.676 33.1828C217.666 33.1928 217.656 33.1928 217.656 33.1828L217.566 33.0928C217.556 33.0828 217.556 33.0828 217.566 33.0728L217.666 32.9728C217.666 32.9628 217.676 32.9628 217.686 32.9728L217.786 33.0728C217.786 33.0628 217.786 33.0728 217.776 33.0828Z" fill="white"/>
<path fill-rule="evenodd" clip-rule="evenodd" d="M219.636 34.0052C219.636 33.9552 219.636 33.8652 219.596 33.8652H219.586C219.506 33.8652 219.426 33.8352 219.386 33.7952C219.356 33.7652 219.416 33.3952 219.366 33.0552C219.396 33.0452 219.246 33.1852 219.246 33.1952C219.246 33.2152 219.246 33.2152 219.256 33.2252C219.266 33.3552 219.256 33.7452 219.236 33.8052C219.226 33.8352 219.176 33.8552 219.096 33.8552H218.606C218.466 33.8552 218.416 33.7752 218.416 33.7152C218.416 33.7052 218.416 33.6952 218.416 33.6552C218.416 33.5952 218.376 33.5852 218.356 33.6552C218.346 33.7052 218.336 33.8452 218.346 33.9252C218.346 33.9952 218.386 34.1252 218.586 34.1252H219.056C219.186 34.1252 219.266 34.0252 219.286 33.9952C219.316 33.9552 219.326 33.9152 219.336 33.9152C219.356 33.9152 219.406 34.1752 219.596 34.1252C219.626 34.1352 219.636 34.0652 219.636 34.0052Z" fill="white"/>
<path fill-rule="evenodd" clip-rule="evenodd" d="M219.907 33.6375C219.937 33.7775 219.927 33.8875 219.837 34.0175C219.797 34.0875 219.697 34.1375 219.617 34.1375H219.597C219.557 34.1375 219.547 34.0475 219.547 33.9975C219.547 33.9375 219.557 33.8575 219.587 33.8575C219.587 33.8575 219.737 33.8575 219.767 33.8575C219.807 33.8475 219.827 33.8175 219.807 33.7875C219.797 33.7575 219.767 33.7275 219.707 33.6775C219.687 33.6575 219.687 33.6575 219.697 33.6375C219.697 33.6375 219.747 33.5275 219.777 33.4775C219.787 33.4475 219.807 33.4475 219.827 33.4775C219.847 33.4975 219.897 33.5875 219.907 33.6375ZM219.827 33.0275C219.837 33.0375 219.827 33.0375 219.827 33.0475L219.737 33.1375C219.727 33.1475 219.727 33.1475 219.717 33.1375L219.627 33.0475C219.617 33.0375 219.617 33.0375 219.627 33.0275L219.717 32.9375C219.727 32.9375 219.727 32.9375 219.737 32.9375L219.827 33.0275Z" fill="white"/>
<path fill-rule="evenodd" clip-rule="evenodd" d="M220.467 34.0028C220.467 33.9128 220.457 33.8628 220.417 33.8628H220.357C220.307 33.8628 220.257 33.8728 220.227 33.8328C220.187 33.7828 220.197 33.3028 220.197 33.2528C220.197 33.2028 220.177 33.1928 220.157 33.2128C220.127 33.2428 220.067 33.3028 220.057 33.3228C220.047 33.3328 220.047 33.3428 220.047 33.3528C220.057 33.5128 220.067 33.7628 220.067 33.8228C220.067 33.9228 220.087 34.0128 220.117 34.0628C220.157 34.1128 220.207 34.1428 220.347 34.1428H220.397C220.447 34.1428 220.467 34.0928 220.467 34.0028Z" fill="white"/>
<path fill-rule="evenodd" clip-rule="evenodd" d="M212.097 33.3959V33.6159H212.267C212.297 33.6159 212.317 33.6059 212.337 33.5959C212.357 33.5759 212.367 33.5459 212.367 33.5059C212.367 33.4559 212.357 33.4259 212.327 33.4159C212.307 33.4059 212.277 33.3959 212.247 33.3959H212.097ZM212.097 33.7759V34.0459H212.267C212.297 34.0459 212.317 34.0359 212.337 34.0259C212.367 34.0059 212.387 33.9659 212.387 33.9059C212.387 33.8559 212.377 33.8159 212.337 33.7959C212.317 33.7859 212.297 33.7759 212.267 33.7759H212.097ZM212.477 33.3259C212.497 33.3659 212.507 33.4159 212.507 33.4759C212.507 33.5359 212.497 33.5859 212.477 33.6259C212.467 33.6459 212.447 33.6659 212.427 33.6859C212.467 33.7059 212.487 33.7359 212.507 33.7759C212.527 33.8159 212.537 33.8659 212.537 33.9259C212.537 33.9859 212.527 34.0359 212.507 34.0859C212.497 34.1159 212.477 34.1459 212.457 34.1659C212.437 34.1859 212.407 34.2059 212.377 34.2159C212.347 34.2259 212.317 34.2259 212.277 34.2259H211.967V33.2359H212.307C212.387 33.2259 212.447 33.2659 212.477 33.3259Z" fill="white"/>
<path fill-rule="evenodd" clip-rule="evenodd" d="M212.877 33.8466H213.047L212.957 33.4566L212.877 33.8466ZM212.887 33.2266H213.047L213.297 34.2166H213.137L213.087 34.0166H212.837L212.787 34.2166H212.637L212.887 33.2266Z" fill="white"/>
<path fill-rule="evenodd" clip-rule="evenodd" d="M213.396 33.2266H213.556L213.836 33.9166V33.2266H213.976V34.2166H213.826L213.536 33.5166V34.2166H213.396V33.2266Z" fill="white"/>
<path fill-rule="evenodd" clip-rule="evenodd" d="M214.166 33.1875H214.306V33.6175L214.566 33.1875H214.756L214.476 33.6175L214.776 34.2175H214.586L214.376 33.7675L214.306 33.8675V34.2175H214.166V33.1875Z" fill="white"/>
<path fill-rule="evenodd" clip-rule="evenodd" d="M207.217 33.2578V33.4278H206.997V34.2478H206.847V33.4278H206.637V33.2578H207.217Z" fill="white"/>
<path fill-rule="evenodd" clip-rule="evenodd" d="M207.946 33.4278H207.546V33.6378H207.916V33.8178H207.546V34.0678H207.966V34.2478H207.396V33.2578H207.946V33.4278Z" fill="white"/>
<path fill-rule="evenodd" clip-rule="evenodd" d="M208.226 33.8466V33.8666C208.226 33.9466 208.236 33.9966 208.246 34.0266C208.256 34.0566 208.286 34.0666 208.326 34.0666C208.366 34.0666 208.386 34.0466 208.396 34.0166C208.406 33.9966 208.406 33.9666 208.406 33.9166V33.2266H208.566V33.9166C208.566 33.9966 208.556 34.0666 208.536 34.1166C208.496 34.1966 208.426 34.2366 208.326 34.2366C208.226 34.2366 208.156 34.2066 208.126 34.1366C208.096 34.0666 208.076 33.9766 208.076 33.8566V33.8366H208.226V33.8466Z" fill="white"/>
<path fill-rule="evenodd" clip-rule="evenodd" d="M208.967 33.8778H209.147L209.057 33.4878L208.967 33.8778ZM208.977 33.2578H209.137L209.387 34.2478H209.227L209.187 34.0478H208.927L208.877 34.2478H208.727L208.977 33.2578Z" fill="white"/>
<path fill-rule="evenodd" clip-rule="evenodd" d="M209.687 33.3831V33.6531H209.867C209.907 33.6531 209.927 33.6531 209.947 33.6331C209.977 33.6131 209.997 33.5731 209.997 33.5231C209.997 33.4631 209.977 33.4231 209.947 33.3931C209.927 33.3831 209.907 33.3731 209.867 33.3731H209.687V33.3831ZM210.027 33.2331C210.057 33.2431 210.077 33.2731 210.107 33.3031C210.127 33.3331 210.137 33.3631 210.147 33.3931C210.157 33.4231 210.167 33.4631 210.167 33.5031C210.167 33.5531 210.157 33.6031 210.137 33.6431C210.117 33.6931 210.087 33.7231 210.047 33.7431C210.077 33.7631 210.107 33.7931 210.117 33.8231C210.137 33.8531 210.137 33.9131 210.137 33.9831V34.0531C210.137 34.1031 210.137 34.1331 210.147 34.1431C210.147 34.1731 210.157 34.1831 210.177 34.2031V34.2331H209.997C209.997 34.2131 209.987 34.1931 209.987 34.1831C209.987 34.1531 209.977 34.1231 209.977 34.0931V34.0031C209.977 33.9331 209.967 33.8931 209.947 33.8731C209.927 33.8531 209.897 33.8431 209.847 33.8431H209.687V34.2431H209.527V33.2031H209.897C209.957 33.2031 209.997 33.2131 210.027 33.2331Z" fill="white"/>
<path fill-rule="evenodd" clip-rule="evenodd" d="M210.576 33.8388H210.756L210.666 33.4488L210.576 33.8388ZM210.586 33.2188H210.746L210.996 34.2087H210.836L210.796 34.0088H210.536L210.486 34.2087H210.336L210.586 33.2188Z" fill="white"/>
<path fill-rule="evenodd" clip-rule="evenodd" d="M211.607 33.2188V33.3988H211.387V34.2087H211.237V33.3988H211.027V33.2188H211.607Z" fill="white"/>
<defs>
<linearGradient id="paint0_linear_410_6879" x1="156.546" y1="82.8266" x2="232.282" y2="13.2234" gradientUnits="userSpaceOnUse">
<stop offset="0.02" stop-color="#002D5B"/>
<stop offset="0.2" stop-color="#053465"/>
<stop offset="0.51" stop-color="#144880"/>
<stop offset="0.91" stop-color="#2B68AC"/>
<stop offset="1" stop-color="#3170B7"/>
</linearGradient>
<linearGradient id="paint1_linear_410_6879" x1="30.9678" y1="66.7045" x2="153.301" y2="13.7285" gradientUnits="userSpaceOnUse">
<stop stop-color="#C2D82E"/>
<stop offset="0.31" stop-color="#C0D52E"/>
<stop offset="0.53" stop-color="#BACC2F"/>
<stop offset="0.73" stop-color="#AFBC2F"/>
<stop offset="0.91" stop-color="#A0A630"/>
<stop offset="1" stop-color="#969731"/>
</linearGradient>
</defs>
</svg>
