<svg width="152" height="244" viewBox="0 0 152 244" fill="none" xmlns="http://www.w3.org/2000/svg">
<g clip-path="url(#clip0_1953_8991)">
<rect width="152" height="40.6667" fill="#19305A"/>
<rect y="40.6667" width="152" height="40.6667" fill="#1A4789"/>
<rect y="81.3333" width="152" height="40.6667" fill="#3371B7"/>
<rect y="122" width="152" height="40.6667" fill="#9FCBED"/>
<rect y="162.667" width="152" height="40.6667" fill="#96AD3C"/>
<rect y="203.333" width="152" height="40.6667" fill="#C4D930"/>
<path d="M126.01 22.23C125.96 20.01 125.84 19.72 125.69 18.04C125.54 16.37 125.63 15.01 126.26 15.04C126.89 15.06 126.86 17.07 126.74 18.05C126.61 19.11 126.44 22.22 126.44 22.22V30.74H127.26V21.91C126.85 19.75 126.94 15.55 126.96 14.68C126.96 14.58 126.96 14.49 126.96 14.39C126.95 13.95 126.94 12.53 127.5 12.54C128.11 12.55 128.12 13.66 128.11 13.99C128.11 14.07 128.11 14.15 128.11 14.22C128.12 15.1 128.17 19.76 127.77 21.92C127.75 22.01 127.74 22.11 127.74 22.2V30.74H128.65V23.23C128.65 23.23 128.65 23.22 128.65 23.21C128.65 23.14 128.64 22.95 128.62 22.88C128.2 20.73 128.29 14.54 128.32 13.67C128.32 13.57 128.32 13.48 128.32 13.38C128.31 12.94 128.3 11.52 128.86 11.53C129.47 11.54 129.48 12.65 129.47 12.98C129.47 13.06 129.47 13.14 129.47 13.21C129.48 14.09 129.57 20.77 129.17 22.93C129.17 22.98 129.15 23.15 129.13 23.33V30.73H129.99V23.75C129.99 23.75 129.99 23.73 129.99 23.72C129.57 21.57 129.66 14.06 129.69 13.19C129.69 13.09 129.69 13 129.69 12.9C129.68 12.46 129.67 11.04 130.23 11.05C130.84 11.06 130.85 12.17 130.84 12.5C130.84 12.58 130.84 12.66 130.84 12.73C130.85 13.61 130.9 21.6 130.5 23.76C130.5 23.8 130.49 23.95 130.48 24.12V30.72H131.39V24.96C131.39 24.9 131.39 24.86 131.39 24.82C131.39 24.75 131.38 24.56 131.36 24.49C130.94 22.34 131.03 13.89 131.06 13.01C131.06 12.91 131.06 12.82 131.06 12.72C131.05 12.28 131.04 10.86 131.6 10.87C132.21 10.88 132.22 11.99 132.21 12.32C132.21 12.4 132.21 12.48 132.21 12.55C132.22 13.43 132.26 22.22 131.88 24.48V30.72H132.75V25.14C132.75 25.14 132.71 24.04 132.65 23.1C132.33 20.43 132.41 13.95 132.43 13.14C132.43 13.04 132.43 12.95 132.43 12.85C132.42 12.41 132.41 10.99 132.97 11C133.58 11.01 133.59 12.12 133.58 12.45C133.58 12.53 133.58 12.61 133.58 12.68C133.58 13.34 133.62 18.02 133.46 21.22C133.46 21.22 133.46 21.24 133.46 21.27C133.43 21.83 133.4 22.34 133.36 22.78C133.31 23.61 133.25 24.59 133.24 25.2V30.72H134.08V24.69C134.07 24.28 134.03 22.93 133.97 22.03C133.95 21.85 133.93 21.65 133.92 21.44C133.91 21.33 133.9 21.22 133.9 21.12C133.72 18.41 133.78 14.37 133.79 13.67C133.79 13.57 133.79 13.48 133.79 13.38C133.78 12.94 133.77 11.52 134.33 11.53C134.94 11.54 134.95 12.65 134.94 12.98C134.94 13.06 134.94 13.14 134.94 13.21C134.95 13.96 135.01 18.94 134.79 21.72C134.79 21.72 134.58 23.98 134.57 24.98V25.13C134.57 25.13 134.57 25.17 134.57 25.19V30.71H135.46V23.55C135.44 23.21 135.35 21.46 135.24 20.22C135.24 20.14 135.23 20.06 135.23 20C135.08 17.86 135.14 15.31 135.15 14.65C135.15 14.55 135.15 14.46 135.15 14.36C135.14 13.92 135.13 12.5 135.69 12.51C136.3 12.52 136.31 13.63 136.3 13.96C136.3 14.04 136.3 14.12 136.3 14.19C136.31 14.92 136.34 18.25 136.13 20.6C136.13 20.6 135.93 22.39 135.93 23.47V30.71H136.78V22.22C136.73 20 136.61 19.71 136.46 18.03C136.37 17.03 136.37 16.15 136.51 15.61C136.59 15.31 136.72 15.07 136.93 15.04C136.96 15.04 136.99 15.04 137.03 15.04C137.38 15.05 137.52 15.66 137.57 16.37C137.59 16.66 137.59 16.89 137.59 16.89C137.59 16.89 137.59 17.06 137.57 17.32C137.56 17.59 137.53 17.84 137.51 18.05C137.38 19.11 137.21 22.22 137.21 22.22V30.71C138.4 30.69 139.35 29.72 139.35 28.53V11.18C139.35 9.98 138.38 9 137.17 9H126.04C124.91 9 124 9.91 124 11.04V28.74C124 29.85 124.9 30.75 126.01 30.75H126.05V22.23H126.01Z" fill="#3371B7"/>
<path d="M57.0051 151.967C51.7305 152.36 48.7747 149.206 47.6138 147.543C51.2523 143.665 58.983 135.427 60.7975 133.5C62.9251 131.052 66.7554 131.349 67.7845 137.962C68.7169 145.311 63.8355 151.238 57.0051 151.967Z" fill="#2D6DB1"/>
<path d="M54.1532 140.575C54.1532 140.575 50.9742 143.243 46.1946 142.718C39.0124 141.928 35.2492 132 31.7437 132C27.3479 132 24.595 150.111 37.6858 151.872C43.1594 152.255 47.7338 147.424 47.7338 147.424L54.1532 140.575Z" fill="#CDD600"/>
<path d="M100.03 135.2C100.621 135.2 101.1 134.721 101.1 134.13C101.1 133.539 100.621 133.06 100.03 133.06C99.439 133.06 98.96 133.539 98.96 134.13C98.96 134.721 99.439 135.2 100.03 135.2Z" fill="#223F80"/>
<path d="M91.17 149.19C87.71 149.19 84.89 146.37 84.89 142.91C84.89 139.45 87.71 136.63 91.17 136.63C94.63 136.63 97.45 139.45 97.45 142.91C97.45 146.37 94.63 149.19 91.17 149.19ZM91.17 137.95C88.44 137.95 86.21 140.18 86.21 142.91C86.21 145.64 88.43 147.87 91.17 147.87C93.91 147.87 96.13 145.64 96.13 142.91C96.13 140.18 93.9 137.95 91.17 137.95Z" fill="#223F80"/>
<path d="M94.44 150.92C94.07 150.92 93.78 150.62 93.78 150.26C93.78 149.9 94.08 149.6 94.44 149.6C97.16 149.6 99.38 147.38 99.38 144.64C99.38 144.27 99.68 143.98 100.04 143.98C100.4 143.98 100.7 144.28 100.7 144.64C100.7 148.1 97.89 150.92 94.44 150.92Z" fill="#223F80"/>
<path d="M96.79 143.67C96.42 143.67 96.13 143.37 96.13 143.01V137.82C96.13 137.45 96.43 137.16 96.79 137.16C97.15 137.16 97.45 137.46 97.45 137.82V143.01C97.45 143.38 97.15 143.67 96.79 143.67Z" fill="#223F80"/>
<path d="M78.28 149.19C74.82 149.19 72 146.37 72 142.91C72 139.45 74.82 136.63 78.28 136.63C81.74 136.63 84.56 139.45 84.56 142.91C84.56 146.37 81.74 149.19 78.28 149.19ZM78.28 137.95C75.55 137.95 73.32 140.18 73.32 142.91C73.32 145.64 75.55 147.87 78.28 147.87C81.01 147.87 83.24 145.64 83.24 142.91C83.24 140.18 81.01 137.95 78.28 137.95Z" fill="#223F80"/>
<path d="M72.66 143.67C72.29 143.67 72 143.37 72 143.01V134.14C72 133.77 72.3 133.48 72.66 133.48C73.02 133.48 73.32 133.78 73.32 134.14V143.01C73.32 143.38 73.02 143.67 72.66 143.67Z" fill="#223F80"/>
<path d="M100.03 145.44C99.66 145.44 99.37 145.14 99.37 144.78V137.82C99.37 137.45 99.67 137.16 100.03 137.16C100.39 137.16 100.69 137.46 100.69 137.82V144.78C100.69 145.15 100.39 145.44 100.03 145.44Z" fill="#223F80"/>
<path d="M114.05 142.87H107.35C106.98 142.87 106.69 142.57 106.69 142.21C106.69 141.85 106.99 141.55 107.35 141.55H114.05C114.42 141.55 114.71 141.85 114.71 142.21C114.71 142.57 114.41 142.87 114.05 142.87Z" fill="#223F80"/>
<path d="M120.53 142.87H115.49C115.12 142.87 114.83 142.57 114.83 142.21C114.83 141.85 115.13 141.55 115.49 141.55H120.53C120.9 141.55 121.19 141.85 121.19 142.21C121.19 142.57 120.89 142.87 120.53 142.87Z" fill="#223F80"/>
<path d="M108.45 149.28C104.96 149.28 102.13 146.45 102.13 142.96C102.13 139.47 104.96 136.64 108.45 136.64C109.78 136.64 111.05 137.05 112.13 137.82C113.54 138.83 114.48 140.39 114.71 142.09C114.76 142.45 114.51 142.78 114.14 142.83C113.77 142.88 113.45 142.63 113.4 142.26C113.22 140.91 112.47 139.68 111.36 138.88C110.51 138.27 109.5 137.95 108.45 137.95C105.7 137.95 103.45 140.19 103.45 142.95C103.45 145.71 105.69 147.95 108.45 147.95L114.84 147.91C115.2 147.91 115.5 148.2 115.5 148.57C115.5 148.94 115.21 149.23 114.84 149.24L108.45 149.28Z" fill="#223F80"/>
<path d="M119.3 149.15H118.99C117.6 149.15 116.47 148.02 116.47 146.63V137.29C116.47 136.92 116.77 136.63 117.13 136.63C117.49 136.63 117.79 136.93 117.79 137.29V146.61C117.79 147.28 118.33 147.82 118.98 147.82H119.29C119.66 147.82 119.95 148.12 119.95 148.48C119.95 148.84 119.65 149.14 119.29 149.14L119.3 149.15Z" fill="#223F80"/>
<path d="M57.7474 217.47H59.5601C59.557 218.719 59.5601 219.968 59.5601 221.219C59.5601 221.465 59.5785 221.748 59.784 221.908C59.9036 222.041 60.0845 222.047 60.2502 222.044C61.4218 222.041 62.5965 222.044 63.7681 222.044C63.8847 222.044 63.9982 222.013 64.0933 221.945C64.1883 221.878 64.262 221.782 64.2988 221.672C64.3509 221.512 64.3386 221.339 64.3448 221.173H60.7378V219.306C62.3511 219.306 63.9644 219.285 65.5777 219.312V221.447C65.5747 221.527 65.5869 221.607 65.6145 221.681C65.6422 221.755 65.6851 221.822 65.7403 221.878C65.7955 221.933 65.863 221.976 65.9335 222.007C66.0071 222.034 66.0838 222.047 66.1605 222.044H70.0619C70.1662 222.056 70.3134 222.004 70.3747 222.127C70.3901 222.727 70.3747 223.323 70.3778 223.923C69.3012 223.929 68.2216 223.923 67.145 223.923C66.3721 223.914 65.6851 223.286 65.5501 222.514C65.4183 223.302 64.7005 223.935 63.9123 223.923H59.3362C58.4927 223.914 57.732 223.151 57.7351 222.284V217.473" fill="white"/>
<path d="M49.8956 218.085C50.3526 217.698 51.1224 217.814 51.4414 218.331C51.5702 218.519 51.6377 218.746 51.6315 218.977C51.6254 219.208 51.5457 219.429 51.4046 219.611C51.239 219.832 50.9936 219.98 50.7267 220.023C50.4568 220.069 50.1808 220.004 49.9538 219.851C49.7299 219.703 49.6011 219.451 49.4999 219.205C49.3895 219.595 49.1012 219.949 48.6994 220.038C48.1412 220.198 47.5247 219.808 47.3959 219.235C47.2241 218.596 47.7516 217.894 48.3988 217.882C48.9141 217.851 49.3864 218.251 49.4968 218.759C49.5704 218.503 49.6809 218.245 49.9017 218.088L49.8956 218.085Z" fill="white"/>
<path d="M68.6725 218.762C68.7798 218.282 69.1969 217.858 69.6969 217.864C70.2735 217.811 70.8164 218.334 70.8103 218.919C70.8471 219.531 70.2919 220.081 69.6969 220.035C69.2 220.035 68.7859 219.626 68.6817 219.146C68.5835 219.835 67.783 220.266 67.1696 219.955C66.5807 219.694 66.3629 218.863 66.7432 218.34C66.8629 218.165 67.0316 218.027 67.2279 217.947C67.4241 217.867 67.6388 217.848 67.8443 217.894C68.0498 217.941 68.24 218.045 68.3872 218.199C68.5344 218.353 68.6357 218.547 68.6725 218.759V218.762Z" fill="white"/>
<path d="M71.2396 220.509H73.0615C73.1045 221.865 73.0615 223.222 73.083 224.578C73.0983 224.723 73.1658 224.858 73.2731 224.956C73.3805 225.055 73.5185 225.107 73.6627 225.107H76.3801V226.98C75.4999 226.98 74.6227 226.983 73.7424 226.98C72.9818 226.959 72.2855 226.344 72.1659 225.572C72.0402 226.042 71.7795 226.491 71.3531 226.74C71.0341 226.94 70.6538 226.999 70.2827 226.983C67.8996 226.977 65.5195 226.983 63.1394 226.98V225.107H70.663C70.9697 225.113 71.255 224.824 71.2274 224.504C71.2304 223.172 71.2212 221.841 71.2335 220.509" fill="white"/>
<path d="M77.2481 220.512C77.8616 220.512 78.475 220.512 79.0884 220.512C79.0976 221.844 79.0884 223.172 79.0884 224.504C79.0853 224.584 79.0976 224.661 79.1221 224.735C79.1497 224.809 79.1896 224.876 79.2448 224.932C79.3 224.987 79.3644 225.033 79.435 225.064C79.5055 225.095 79.5822 225.11 79.6589 225.107C80.5606 225.113 81.4593 225.107 82.361 225.107V226.98C81.2599 226.986 80.1619 226.98 79.0608 226.983C78.1161 227.076 77.2052 226.242 77.242 225.264V220.509" fill="white"/>
<path d="M44.203 221.13C47.5185 221.149 50.8341 221.124 54.1527 221.142V223C51.3831 223.006 48.6135 223.006 45.8408 223C44.9023 223 44.0987 222.078 44.203 221.13Z" fill="white"/>
<path d="M55.033 221.13C55.6433 221.152 56.2506 221.136 56.861 221.146C56.8702 222.342 56.861 223.542 56.8579 224.741C56.8579 225.59 56.1157 226.347 55.2814 226.368C54.4962 226.377 53.7141 226.368 52.9289 226.368C52.9289 225.744 52.9228 225.116 52.9351 224.492C53.4473 224.489 53.9595 224.501 54.4717 224.489C54.5453 224.489 54.622 224.474 54.6895 224.443C54.7569 224.412 54.8214 224.369 54.8735 224.314C54.9256 224.258 54.9655 224.194 54.9931 224.12C55.0207 224.049 55.033 223.972 55.0299 223.895C55.033 222.976 55.0238 222.053 55.033 221.133" fill="white"/>
<path d="M74.822 221.401C75.3956 221.13 76.1225 221.518 76.2728 222.133C76.4752 222.785 75.9109 223.517 75.2484 223.505C74.9999 223.505 74.7576 223.422 74.5644 223.262C74.3712 223.102 74.2362 222.88 74.1871 222.631C74.1381 222.382 74.1718 222.124 74.2884 221.899C74.4049 221.675 74.5951 221.499 74.8251 221.401H74.822Z" fill="white"/>
<path d="M60.2747 225.009C60.8237 224.738 61.5506 225.055 61.7285 225.652C61.9769 226.301 61.4525 227.097 60.7654 227.091C60.1888 227.146 59.6337 226.62 59.6521 226.03C59.6183 225.596 59.8974 225.187 60.2747 225.009Z" fill="white"/>
<path d="M79.4166 229.093C79.3092 228.503 79.7662 227.897 80.3459 227.835C80.9103 227.746 81.4838 228.204 81.5421 228.783C81.628 229.349 81.2109 229.89 80.6741 230.013H80.3643C80.1312 229.982 79.9135 229.878 79.7448 229.712C79.573 229.546 79.4595 229.33 79.4197 229.093H79.4166Z" fill="white"/>
<path fill-rule="evenodd" clip-rule="evenodd" d="M105.08 234H90.1159V231.68L90.4087 231.342C89.6287 230.645 88.9563 229.833 88.4191 228.933L92.2886 231.117H92.7162L88.0388 228.236C87.8891 227.934 87.7539 227.624 87.6343 227.306L93.1922 231.117H93.4862L87.4086 226.636C87.2972 226.263 87.2068 225.881 87.1387 225.491L93.9209 231.117H94.2282L87.0201 224.558C86.9984 224.288 86.9874 224.015 86.9874 223.74C86.9874 223.679 86.9879 223.619 86.989 223.559L94.5228 231.117H94.7362L87.0334 222.77C87.0698 222.388 87.1275 222.012 87.2053 221.644L95.0187 231.117H95.2134L87.4158 220.82C87.5124 220.499 87.6245 220.185 87.7513 219.878L95.4275 231.117H95.6091L88.133 219.059C88.3009 218.737 88.4856 218.425 88.6859 218.124L95.8148 231.117H95.981L94.1507 227.389C94.1311 227.38 94.1117 227.37 94.0924 227.361C93.9974 227.311 93.9066 227.254 93.8288 227.18C93.7554 227.11 93.6953 227.028 93.6451 226.941C93.5809 226.829 93.5319 226.71 93.4754 226.595C93.4577 226.56 93.4398 226.527 93.4204 226.494C93.4093 226.475 93.3998 226.462 93.3838 226.448C93.3585 226.428 93.3316 226.41 93.3063 226.39C93.2821 226.369 93.2578 226.347 93.2412 226.32C93.2277 226.297 93.2194 226.273 93.2106 226.249C93.1924 226.238 93.1766 226.228 93.1646 226.211C93.1534 226.194 93.147 226.175 93.1462 226.155C93.1456 226.138 93.1486 226.139 93.1494 226.122C93.1495 226.118 93.1483 226.113 93.1485 226.109C93.1494 226.09 93.1511 226.089 93.1567 226.071C93.1605 226.045 93.1647 226.018 93.1697 225.992C93.1751 225.967 93.1812 225.944 93.1937 225.921C93.2295 225.857 93.2984 225.818 93.3642 225.787L92.242 223.502C92.2328 223.499 92.2242 223.497 92.2057 223.491C92.0914 223.452 91.9709 223.402 91.8951 223.304C91.876 223.279 91.8595 223.253 91.846 223.225C91.8301 223.192 91.8189 223.156 91.8113 223.12C91.8023 223.078 91.799 223.034 91.7977 222.991C91.7964 222.949 91.7992 222.906 91.7937 222.864C91.7931 222.86 91.7935 222.86 91.7915 222.858C91.784 222.848 91.776 222.839 91.7677 222.829C91.7315 222.79 91.6942 222.752 91.6585 222.712C91.6299 222.679 91.6027 222.644 91.581 222.606C91.5473 222.547 91.5276 222.48 91.5299 222.411C91.5309 222.38 91.5374 222.351 91.5462 222.322C91.5625 222.276 91.5797 222.232 91.5961 222.186L89.2339 217.376C89.4471 217.111 89.6732 216.856 89.9114 216.613L90.588 218.185C90.5892 218.135 90.592 218.085 90.6016 218.037C90.633 217.878 90.7536 217.745 90.9069 217.689C90.9637 217.668 91.0296 217.655 91.0898 217.668C91.1332 217.678 91.1737 217.694 91.2135 217.714C91.2498 217.732 91.2844 217.753 91.3174 217.776L90.6314 215.945C90.8769 215.737 91.1324 215.541 91.397 215.357L92.3133 218.204C92.343 218.179 92.3717 218.153 92.4004 218.127C92.5005 218.033 92.5966 217.936 92.696 217.841C92.7648 217.778 92.8379 217.711 92.9228 217.667L92.1577 214.874C92.4693 214.695 92.7911 214.531 93.1221 214.384L94.0226 218.516C94.0297 218.509 94.0368 218.502 94.0439 218.495C94.0678 218.47 94.0905 218.443 94.1099 218.415C94.1262 218.39 94.1406 218.365 94.1512 218.337C94.1749 218.276 94.1774 218.21 94.176 218.145C94.1724 218.068 94.1628 217.991 94.1579 217.914C94.1549 217.844 94.155 217.772 94.1837 217.707C94.2267 217.61 94.3326 217.559 94.4303 217.531C94.4499 217.525 94.4698 217.52 94.4898 217.516C94.5208 217.509 94.5522 217.504 94.5838 217.499L94.5913 217.498L94.0031 214.038C94.3037 213.936 94.6104 213.847 94.9226 213.772L95.3754 217.474C95.4316 217.472 95.4642 217.471 95.5418 217.468C95.6557 217.464 95.7695 217.461 95.8835 217.46C95.9628 217.459 96.0432 217.46 96.1224 217.458C96.1368 217.457 96.1512 217.456 96.1655 217.454L95.8779 213.589C96.2109 213.541 96.5491 213.508 96.8916 213.492L97.0107 218.328C97.0198 218.337 97.0283 218.347 97.0362 218.357C97.0563 218.385 97.0688 218.419 97.0797 218.45C97.1069 218.529 97.1187 218.612 97.1254 218.695C97.1283 218.731 97.1302 218.766 97.1315 218.802C97.1337 218.86 97.1352 218.917 97.1383 218.974C97.1409 219.011 97.1441 219.046 97.1477 219.082C97.1579 219.177 97.169 219.271 97.1782 219.365C97.1802 219.388 97.182 219.41 97.1837 219.433L97.1859 219.432C97.2044 219.424 97.2222 219.415 97.2397 219.406C97.313 219.363 97.3786 219.309 97.4428 219.255C97.5013 219.205 97.5589 219.154 97.6181 219.104C97.6498 219.079 97.6496 219.079 97.6819 219.054C97.7152 219.029 97.7492 219.005 97.7842 218.983L97.9258 213.493C98.2601 213.51 98.5901 213.542 98.9153 213.589L98.5267 218.811C98.685 218.796 98.8443 218.786 99.0031 218.796C99.0864 218.801 99.1707 218.811 99.2517 218.832L99.8706 213.772C100.183 213.847 100.49 213.936 100.79 214.038L99.9 219.274C99.9687 219.27 100.037 219.266 100.106 219.263C100.168 219.26 100.195 219.259 100.258 219.257C100.342 219.256 100.427 219.256 100.511 219.261C100.542 219.264 100.574 219.266 100.606 219.271L101.671 214.384C102.002 214.531 102.324 214.695 102.635 214.874L101.315 219.696C101.325 219.701 101.336 219.706 101.346 219.711C101.396 219.734 101.444 219.76 101.49 219.788C101.629 219.873 101.751 219.99 101.829 220.133C101.836 220.144 101.842 220.157 101.848 220.169L103.396 215.357C103.661 215.541 103.916 215.737 104.162 215.945L101.699 222.518C101.723 222.561 101.738 222.608 101.742 222.658C101.744 222.69 101.74 222.721 101.735 222.753C101.732 222.777 101.73 222.802 101.727 222.826C101.723 222.88 101.723 222.88 101.72 222.933C101.707 223.241 101.73 223.548 101.764 223.854L104.882 216.613C105.12 216.856 105.346 217.111 105.559 217.376L102.292 224.031C102.388 224.071 102.475 224.131 102.535 224.218C102.557 224.25 102.574 224.285 102.587 224.321C102.6 224.361 102.608 224.402 102.608 224.444C102.609 224.466 102.607 224.489 102.603 224.511L106.107 218.124C106.308 218.425 106.492 218.737 106.66 219.059L102.346 226.018C102.377 226.042 102.409 226.065 102.442 226.087C102.518 226.136 102.597 226.18 102.674 226.228C102.681 226.233 102.688 226.238 102.695 226.242L107.042 219.878C107.169 220.185 107.281 220.499 107.377 220.82L103.004 226.596C103.012 226.619 103.019 226.642 103.024 226.666C103.048 226.763 103.048 226.863 103.057 226.962C103.09 226.978 103.126 226.99 103.16 227.004L103.165 227.006L107.588 221.644C107.666 222.012 107.723 222.388 107.76 222.77L102.437 228.538C102.436 228.556 102.435 228.573 102.435 228.591C102.434 228.642 102.435 228.692 102.439 228.742L102.452 228.741C102.495 228.738 102.495 228.738 102.538 228.735C102.582 228.734 102.582 228.733 102.626 228.733C102.633 228.733 102.639 228.733 102.646 228.734L107.804 223.559L107.805 223.604C107.806 223.649 107.806 223.695 107.806 223.74C107.806 224.015 107.795 224.288 107.773 224.558L102.981 228.919C102.979 228.932 102.977 228.944 102.975 228.956C102.971 228.99 102.97 229.067 102.969 229.1C102.966 229.169 102.964 229.237 102.961 229.305C102.959 229.336 102.955 229.363 102.943 229.391C102.941 229.397 102.938 229.402 102.935 229.406L107.655 225.491L107.641 225.564C107.575 225.929 107.489 226.286 107.385 226.636L101.307 231.117H101.601L107.159 227.306L107.136 227.365C107.022 227.662 106.895 227.953 106.754 228.236L102.077 231.117H102.505L106.374 228.933L106.353 228.968C105.872 229.767 105.284 230.496 104.608 231.136L105.08 231.68V234ZM104.819 231.937H90.3761V233.743H104.819V231.937ZM100.416 233.178C100.416 233.233 100.391 233.308 100.342 233.404C100.295 233.496 100.247 233.566 100.197 233.615C100.165 233.615 100.122 233.604 100.068 233.582C100.014 233.559 99.9751 233.537 99.9518 233.515C100.036 233.476 100.112 233.432 100.178 233.382C100.256 233.322 100.302 233.269 100.316 233.221C100.295 233.163 100.252 233.113 100.187 233.07L100.283 232.886C100.318 232.915 100.349 232.96 100.375 233.02C100.402 233.079 100.416 233.132 100.416 233.178ZM104.576 233.429L104.463 233.534L104.352 233.425L104.467 233.322L104.576 233.429ZM101.365 233.419L101.253 233.524L101.142 233.415L101.257 233.312L101.365 233.419ZM92.3794 232.334H92.5313V232.975C92.5313 233.059 92.5258 233.124 92.5148 233.169C92.5001 233.228 92.4733 233.275 92.4345 233.311C92.3957 233.346 92.3446 233.364 92.2811 233.364C92.2066 233.364 92.1493 233.336 92.1091 233.28C92.069 233.224 92.0488 233.142 92.0484 233.034L92.192 233.012C92.1938 233.07 92.2001 233.111 92.2111 233.135C92.2276 233.171 92.2526 233.189 92.2863 233.189C92.3202 233.189 92.3443 233.176 92.3584 233.15C92.3724 233.124 92.3794 233.07 92.3794 232.988V232.334ZM93.3741 233.347H93.2083L93.1424 233.117H92.8407L92.7785 233.347H92.6168L92.9107 232.334H93.0719L93.3741 233.347ZM91.9635 232.506H91.5562V232.73H91.9351V232.901H91.5562V233.176H91.9779V233.347H91.4038V232.334H91.9635V232.506ZM93.6079 233.347H93.4554V232.334H93.7762C93.8569 232.334 93.9154 232.343 93.952 232.362C93.9886 232.38 94.0178 232.412 94.0398 232.459C94.0617 232.505 94.0728 232.558 94.0728 232.618C94.0728 232.694 94.0561 232.757 94.0228 232.806C93.9895 232.856 93.9397 232.887 93.8735 232.9C93.9065 232.926 93.9337 232.954 93.9551 232.985C93.9766 233.016 94.0055 233.071 94.0418 233.149L94.134 233.347H93.9518L93.8416 233.127C93.8025 233.048 93.7757 232.998 93.7613 232.978C93.7469 232.957 93.7316 232.943 93.7155 232.936C93.6993 232.928 93.6737 232.924 93.6387 232.924H93.6079V233.347ZM94.897 233.347H94.7312L94.6653 233.117H94.3636L94.3013 233.347H94.1397L94.4337 232.334H94.5948L94.897 233.347ZM95.4453 232.506H95.2219V233.347H95.0695V232.506H94.8455V232.334H95.4453V232.506ZM96.094 233.347H95.8371V232.334H96.1388C96.1985 232.334 96.243 232.338 96.2724 232.344C96.3017 232.351 96.328 232.365 96.3512 232.386C96.3743 232.407 96.3936 232.436 96.4091 232.471C96.4245 232.506 96.4322 232.545 96.4322 232.589C96.4322 232.637 96.4227 232.68 96.4036 232.72C96.3846 232.759 96.3588 232.789 96.3262 232.809C96.3722 232.827 96.4075 232.857 96.4322 232.901C96.457 232.944 96.4693 232.995 96.4693 233.053C96.4693 233.099 96.4613 233.144 96.4454 233.188C96.4294 233.231 96.4076 233.266 96.38 233.292C96.3523 233.318 96.3183 233.334 96.2778 233.34C96.2524 233.344 96.1911 233.346 96.094 233.347ZM97.2786 233.347H97.1129L97.0469 233.117H96.7452L96.683 233.347H96.5213L96.8153 232.334H96.9764L97.2786 233.347ZM97.5026 233.347H97.361V232.334H97.5093L97.8182 233.011V232.334H97.9597V233.347H97.8069L97.5026 232.687V233.347ZM98.2754 233.347H98.123V232.334H98.2754V232.784L98.5832 232.334H98.7881L98.5039 232.729L98.8036 233.347H98.6064L98.3989 232.872L98.2754 233.041V233.347ZM91.3055 232.506H91.0821V233.347H90.9297V232.506H90.7057V232.334H91.3055V232.506ZM103.584 233.208H103.539C103.487 233.208 103.438 233.19 103.391 233.154C103.366 233.134 103.333 233.099 103.292 233.047C103.251 232.996 103.219 232.961 103.195 232.942C103.198 232.958 103.199 232.975 103.199 232.993C103.199 233.017 103.196 233.042 103.191 233.068C103.15 233.127 103.082 233.167 102.989 233.188C102.93 233.201 102.85 233.208 102.747 233.208C102.608 233.208 102.514 233.198 102.465 233.179C102.394 233.151 102.359 233.092 102.359 233.001C102.359 232.92 102.388 232.835 102.445 232.746C102.467 232.744 102.481 232.752 102.487 232.769C102.46 232.812 102.446 232.854 102.446 232.895C102.446 232.953 102.48 232.99 102.546 233.006C102.584 233.015 102.663 233.02 102.782 233.02C102.892 233.02 102.973 233.015 103.023 233.007C103.069 233 103.108 232.985 103.14 232.962C103.086 232.873 102.992 232.799 102.858 232.738C102.86 232.645 102.868 232.567 102.88 232.503C103.082 232.391 103.276 232.315 103.461 232.276L103.377 232.454C103.312 232.469 103.228 232.498 103.124 232.54C103.042 232.573 102.982 232.599 102.945 232.619C103.018 232.646 103.102 232.696 103.197 232.768C103.232 232.795 103.276 232.835 103.328 232.887C103.374 232.935 103.408 232.966 103.43 232.981C103.465 233.006 103.502 233.019 103.541 233.019H103.612C103.714 233.019 103.764 233.004 103.764 232.974C103.764 232.953 103.738 232.908 103.685 232.838L103.793 232.693C103.846 232.763 103.873 232.836 103.873 232.912C103.856 233.01 103.834 233.076 103.805 233.111C103.753 233.175 103.679 233.208 103.584 233.208ZM104.294 233.208H104.248C104.159 233.208 104.101 233.172 104.074 233.099C104.056 233.05 104.044 232.94 104.038 232.77C104.035 232.686 104.031 232.628 104.027 232.595C104.019 232.531 104.004 232.475 103.982 232.426L104.11 232.294C104.132 232.327 104.145 232.379 104.15 232.449C104.152 232.474 104.153 232.528 104.153 232.609V232.813C104.153 232.873 104.157 232.918 104.166 232.945C104.182 232.994 104.214 233.019 104.261 233.019H104.322C104.423 233.019 104.473 233.004 104.473 232.974C104.473 232.953 104.447 232.908 104.394 232.838L104.502 232.693C104.555 232.763 104.582 232.836 104.582 232.912C104.565 233.01 104.543 233.076 104.515 233.111C104.462 233.175 104.388 233.208 104.294 233.208ZM99.8987 232.883C99.8987 232.905 99.8854 232.944 99.8588 233C99.8322 233.056 99.8106 233.09 99.7938 233.104C99.7733 233.12 99.7091 233.14 99.6014 233.164C99.4732 233.193 99.3545 233.208 99.2454 233.208C99.0989 233.208 98.9982 233.18 98.9432 233.123C98.9082 233.087 98.8907 233.034 98.8907 232.964C98.8907 232.868 98.9185 232.778 98.974 232.693C98.9763 232.693 98.9789 232.693 98.9817 232.693C99.0022 232.693 99.0164 232.701 99.0243 232.716C98.9959 232.782 98.9817 232.833 98.9817 232.868C98.9817 232.97 99.0927 233.02 99.3146 233.02C99.5161 233.02 99.6739 232.997 99.7882 232.949C99.7686 232.899 99.7429 232.853 99.7112 232.811L99.8175 232.669C99.839 232.696 99.8583 232.734 99.8756 232.783C99.891 232.827 99.8987 232.861 99.8987 232.883ZM100.886 233.208H100.79C100.701 233.208 100.643 233.172 100.616 233.099C100.598 233.05 100.586 232.94 100.58 232.77C100.577 232.686 100.574 232.628 100.569 232.595C100.562 232.531 100.547 232.475 100.525 232.426L100.653 232.294C100.674 232.327 100.687 232.379 100.693 232.449C100.694 232.474 100.695 232.528 100.695 232.609V232.813C100.695 232.873 100.7 232.918 100.709 232.945C100.724 232.994 100.756 233.019 100.804 233.019H100.917C100.993 233.019 101.055 233.011 101.104 232.996C101.137 232.986 101.199 232.958 101.291 232.913C101.113 232.844 101.013 232.81 100.99 232.81C100.969 232.81 100.953 232.816 100.94 232.829C100.929 232.84 100.914 232.864 100.894 232.901C100.887 232.904 100.88 232.906 100.874 232.906C100.861 232.906 100.851 232.9 100.844 232.887C100.875 232.806 100.9 232.75 100.916 232.719C100.948 232.661 100.978 232.632 101.007 232.632C101.025 232.632 101.089 232.656 101.199 232.705C101.308 232.753 101.388 232.777 101.437 232.777C101.493 232.777 101.578 232.766 101.695 232.744L101.621 232.911C101.56 232.917 101.509 232.924 101.47 232.933C101.498 232.99 101.552 233.019 101.632 233.019H101.78C101.881 233.019 101.932 233.004 101.932 232.974C101.932 232.953 101.906 232.908 101.853 232.838L101.961 232.693C102.014 232.763 102.04 232.836 102.04 232.912C102.024 233.01 102.002 233.076 101.973 233.111C101.921 233.175 101.847 233.208 101.752 233.208H101.694C101.615 233.208 101.553 233.185 101.506 233.138C101.469 233.101 101.436 233.041 101.409 232.959C101.26 233.063 101.171 233.123 101.142 233.138C101.058 233.185 100.973 233.208 100.886 233.208ZM96.1125 232.906H95.9895V233.176H96.1305C96.1854 233.176 96.2203 233.174 96.2351 233.17C96.2577 233.165 96.2762 233.151 96.2904 233.13C96.3046 233.108 96.3118 233.08 96.3118 233.044C96.3118 233.013 96.3063 232.988 96.2953 232.966C96.2843 232.945 96.2684 232.93 96.2477 232.92C96.2269 232.91 96.1819 232.906 96.1125 232.906ZM96.9981 232.946L96.8941 232.571L96.7921 232.946H96.9981ZM93.0935 232.946L92.9895 232.571L92.8876 232.946H93.0935ZM94.6164 232.946L94.5124 232.571L94.4105 232.946H94.6164ZM93.7268 232.506H93.6079V232.763H93.7206C93.7937 232.763 93.8393 232.758 93.8575 232.75C93.8757 232.742 93.89 232.728 93.9003 232.707C93.9106 232.687 93.9157 232.662 93.9157 232.631C93.9157 232.597 93.9089 232.57 93.8954 232.549C93.8818 232.528 93.8627 232.515 93.838 232.509C93.8256 232.507 93.7885 232.506 93.7268 232.506ZM96.077 232.503H95.9895V232.737H96.0894C96.1488 232.737 96.1856 232.736 96.2001 232.734C96.2261 232.729 96.2466 232.717 96.2616 232.697C96.2765 232.677 96.284 232.651 96.284 232.618C96.284 232.587 96.2775 232.561 96.2646 232.542C96.2518 232.522 96.2326 232.51 96.2073 232.506C96.1922 232.504 96.1488 232.503 96.077 232.503ZM99.3811 232.596L99.2776 232.693L99.1761 232.591L99.2817 232.498L99.3811 232.596ZM99.6371 232.583L99.5335 232.679L99.4321 232.578L99.5384 232.485L99.6371 232.583ZM103.883 232.489L103.77 232.594L103.66 232.485L103.775 232.381L103.883 232.489ZM102.14 232.494L102.043 232.589L101.945 232.505L101.856 232.594L101.753 232.505L101.849 232.407L101.947 232.494L102.037 232.403L102.14 232.494ZM96.3163 231.117L95.7738 229.669L95.7612 229.667L95.7223 229.66C95.7034 229.654 95.6871 229.649 95.6719 229.636C95.6377 229.607 95.6251 229.559 95.6407 229.517C95.6477 229.499 95.659 229.486 95.673 229.472L95.6938 229.455L95.5151 228.978C95.4979 228.99 95.4793 228.999 95.4595 229.006C95.4338 229.016 95.407 229.023 95.3799 229.028C95.366 229.031 95.3521 229.033 95.338 229.034C95.3126 229.036 95.2857 229.037 95.2589 229.034L96.1554 231.117H96.3163ZM96.4688 231.117H96.6069L96.2225 229.714C96.1524 229.71 96.0824 229.706 96.0126 229.699L96.4688 231.117ZM96.7684 231.117H96.9065L96.6695 229.723L96.6058 229.723L96.4643 229.721L96.7684 231.117ZM97.044 231.117H97.1821L97.0786 229.726L97.0557 229.726C96.995 229.726 96.9343 229.725 96.8737 229.725L97.044 231.117ZM97.471 231.117L97.5073 229.711C97.4566 229.743 97.4 229.734 97.3435 229.725C97.331 229.724 97.3184 229.724 97.3057 229.724L97.2913 229.724L97.3256 231.117H97.471ZM97.7492 231.117L97.9851 229.189C97.9813 229.199 97.9774 229.209 97.9733 229.219C97.9634 229.24 97.9531 229.261 97.9398 229.281C97.8952 229.346 97.8315 229.399 97.7681 229.446C97.7567 229.454 97.7452 229.462 97.7337 229.47L97.6111 231.117H97.7492ZM98.0248 231.117L98.5535 228.691C98.5414 228.717 98.5292 228.743 98.5166 228.769C98.5012 228.799 98.5012 228.799 98.4851 228.829C98.4318 228.919 98.3644 229.016 98.2555 229.044C98.2499 229.045 98.2442 229.047 98.2385 229.048L97.8867 231.117H98.0248ZM98.1863 231.117H98.3244L98.928 229.241C98.9183 229.234 98.9095 229.226 98.902 229.217C98.887 229.198 98.8775 229.176 98.8708 229.153C98.8554 229.102 98.8569 229.048 98.8646 228.995C98.8665 228.983 98.8694 228.967 98.8719 228.954C98.8775 228.926 98.8837 228.899 98.8889 228.871C98.8977 228.813 98.9043 228.755 98.9105 228.697C98.9176 228.625 98.923 228.552 98.9225 228.48C98.9224 228.464 98.9221 228.449 98.9215 228.433L98.1863 231.117ZM98.4769 231.117H98.6378L99.3388 229.488C99.3269 229.486 99.3152 229.483 99.3037 229.479C99.2552 229.46 99.218 229.42 99.2024 229.371C99.1948 229.347 99.1929 229.322 99.1921 229.298L99.1919 229.29C99.1822 229.289 99.1724 229.287 99.1627 229.287L98.4769 231.117ZM98.8122 231.117H98.9784L99.8053 229.61C99.7493 229.608 99.6933 229.604 99.638 229.593C99.6148 229.589 99.5911 229.584 99.5686 229.576L98.8122 231.117ZM99.3657 231.117L100.403 229.598C100.31 229.6 100.217 229.6 100.123 229.602L99.1841 231.117H99.3657ZM99.7745 231.117L101.05 229.57L101.043 229.571C100.941 229.577 100.84 229.582 100.738 229.587L99.5798 231.117H99.7745ZM100.27 231.117L101.866 229.517C101.805 229.521 101.745 229.524 101.685 229.528L101.513 229.54L100.057 231.117H100.27ZM100.872 231.117L102.889 229.444C102.858 229.459 102.82 229.465 102.788 229.468C102.78 229.468 102.772 229.468 102.764 229.469C102.749 229.469 102.734 229.469 102.719 229.468C102.697 229.467 102.678 229.466 102.656 229.464C102.629 229.462 102.602 229.459 102.576 229.459C102.532 229.459 102.488 229.463 102.444 229.466C102.42 229.468 102.396 229.47 102.372 229.473L100.565 231.117H100.872ZM95.5303 228.708C95.533 228.708 95.5356 228.707 95.5383 228.707C95.5561 228.707 95.5559 228.707 95.5738 228.709C95.5788 228.71 95.5839 228.71 95.589 228.711L95.5904 228.712C95.5952 228.713 95.5999 228.714 95.6046 228.715L95.6067 228.715C95.6113 228.716 95.6159 228.717 95.6204 228.718L95.6256 228.72L95.6305 228.721L95.6372 228.723L95.6424 228.725L95.6469 228.727L95.6526 228.728L95.659 228.731L95.6678 228.734L95.6753 228.737L95.6828 228.74L95.6915 228.744L95.6976 228.747L95.7074 228.751C95.7432 228.768 95.7774 228.789 95.8105 228.811C95.8697 228.85 95.928 228.893 95.9729 228.948C96.067 229.064 96.0915 229.216 96.0503 229.357C96.037 229.402 96.019 229.444 95.9908 229.483C96.0484 229.488 96.1055 229.493 96.1631 229.497L96.1709 229.497L96.2212 229.5L96.2352 229.501L96.2874 229.503L96.3493 229.505L96.4124 229.507L96.4593 229.508C96.5172 229.508 96.5752 229.509 96.6332 229.509L96.8475 229.511C96.9173 229.511 96.987 229.512 97.0567 229.513L97.1185 229.512L97.2302 229.511L97.2346 229.511C97.2592 229.51 97.2838 229.51 97.3084 229.51C97.3404 229.511 97.3403 229.51 97.3719 229.513L97.3798 229.514C97.3842 229.5 97.3891 229.487 97.3947 229.474C97.4075 229.448 97.4229 229.427 97.4449 229.408C97.4684 229.391 97.4921 229.374 97.5163 229.357L97.5782 229.316L97.6091 229.295L97.6397 229.274C97.6576 229.26 97.675 229.247 97.6921 229.232L97.7096 229.217L97.7182 229.209L97.7268 229.2L97.7352 229.192L97.7389 229.188L97.7432 229.183L97.7468 229.179L97.7507 229.174L97.7562 229.166L97.7595 229.162C97.7707 229.145 97.7779 229.126 97.7847 229.107C97.7932 229.084 97.8013 229.061 97.8101 229.038C97.8187 229.018 97.8186 229.018 97.8281 228.998C97.8427 228.972 97.8583 228.947 97.8795 228.926C97.9194 228.885 97.9709 228.86 98.0266 228.849L98.0363 228.847C98.0399 228.847 98.0436 228.846 98.0474 228.846C98.0955 228.839 98.1442 228.845 98.1922 228.839C98.199 228.838 98.2059 228.836 98.2117 228.833L98.2191 228.827L98.2262 228.821L98.2286 228.819L98.2353 228.812L98.2417 228.805L98.2479 228.798L98.2539 228.79L98.256 228.788L98.2617 228.78L98.2669 228.772L98.2751 228.76L98.2811 228.75L98.2872 228.739L98.2912 228.732C98.2973 228.721 98.3031 228.711 98.3087 228.7C98.3412 228.636 98.37 228.571 98.4018 228.507C98.4204 228.472 98.4413 228.438 98.4601 228.403C98.4825 228.361 98.504 228.319 98.5272 228.277C98.5404 228.255 98.5539 228.233 98.5686 228.212C98.585 228.19 98.6023 228.168 98.6216 228.148C98.6383 228.13 98.6561 228.114 98.6749 228.099L98.6839 228.092L98.6902 228.087L98.6972 228.082L98.7059 228.076L98.7106 228.073L98.722 228.066L98.7231 228.065C98.7282 228.062 98.7332 228.058 98.7384 228.055C98.8089 228.013 98.8956 227.97 98.9788 228.002C98.9975 228.01 99.015 228.022 99.0301 228.035C99.0457 228.048 99.0597 228.064 99.071 228.081C99.0883 228.107 99.1003 228.136 99.1087 228.166C99.1246 228.222 99.1271 228.28 99.1321 228.337C99.1371 228.396 99.14 228.454 99.1392 228.513C99.1386 228.564 99.1356 228.615 99.1313 228.666L99.1312 228.667L99.131 228.669C99.13 228.68 99.129 228.692 99.1279 228.703C99.1265 228.717 99.1251 228.73 99.1236 228.744L99.1221 228.757L99.1198 228.777L99.1186 228.788L99.1178 228.794L99.1167 228.803L99.1153 228.814L99.1129 228.832L99.1119 228.841L99.1057 228.887C99.0993 228.934 99.0869 228.98 99.0793 229.026C99.0775 229.039 99.0763 229.052 99.0758 229.065L99.0758 229.067C99.1081 229.07 99.1406 229.071 99.1729 229.073L99.1897 229.074L99.2014 229.076L99.2157 229.077L99.2231 229.078L99.2298 229.079L99.2397 229.081C99.2552 229.084 99.2704 229.088 99.2852 229.093C99.3381 229.112 99.3798 229.151 99.3976 229.204C99.4056 229.229 99.4078 229.254 99.4085 229.279L99.4291 229.279L99.4331 229.279L99.4434 229.279L99.4577 229.279C99.5023 229.282 99.5424 229.294 99.5783 229.321C99.5889 229.328 99.5987 229.337 99.6082 229.347C99.6176 229.356 99.6267 229.366 99.6378 229.374L99.6445 229.376L99.6512 229.378L99.6647 229.381C99.6744 229.383 99.6842 229.384 99.6938 229.386C99.7721 229.398 99.8512 229.399 99.9305 229.396L99.9485 229.396L99.9755 229.395L100.085 229.39L100.113 229.389C100.122 229.388 100.132 229.388 100.141 229.388C100.224 229.387 100.308 229.386 100.391 229.385C100.449 229.384 100.506 229.382 100.564 229.38L100.628 229.377L100.647 229.377L100.728 229.373L100.736 229.373L100.811 229.369L100.827 229.368L100.923 229.364C101.028 229.357 101.132 229.351 101.237 229.344L101.472 229.329L101.927 229.299C101.986 229.294 102.045 229.289 102.104 229.283C102.164 229.278 102.223 229.272 102.282 229.266L102.302 229.264L102.328 229.262L102.345 229.26L102.365 229.259L102.371 229.258C102.39 229.256 102.409 229.255 102.428 229.253C102.471 229.25 102.515 229.248 102.558 229.245L102.57 229.245H102.574L102.581 229.245L102.589 229.245L102.605 229.246L102.62 229.247C102.661 229.249 102.703 229.254 102.744 229.255H102.746C102.747 229.176 102.752 229.097 102.755 229.018L102.758 228.943C102.738 228.944 102.717 228.946 102.697 228.947L102.676 228.948C102.661 228.948 102.647 228.948 102.632 228.947L102.609 228.947C102.602 228.947 102.595 228.947 102.587 228.947L102.565 228.948L102.544 228.949L102.502 228.952L102.481 228.954L102.457 228.956L102.434 228.958C102.365 228.964 102.296 228.972 102.227 228.979C102.185 228.982 102.185 228.982 102.142 228.985C102.106 228.987 102.07 228.988 102.033 228.987L102.023 228.987L102.016 228.987L102.015 228.987C102.011 228.987 102.007 228.986 101.999 228.986C101.958 228.982 101.919 228.97 101.881 228.954C101.837 228.935 101.797 228.91 101.753 228.891C101.741 228.886 101.729 228.883 101.717 228.88L101.706 228.878L101.695 228.876L101.691 228.875L101.684 228.874L101.673 228.873L101.665 228.872L101.651 228.871L101.629 228.869C101.6 228.866 101.571 228.864 101.543 228.861C101.518 228.858 101.518 228.858 101.494 228.853C101.468 228.847 101.442 228.84 101.417 228.83C101.39 228.819 101.365 228.806 101.34 228.792L101.339 228.791C101.332 228.787 101.325 228.783 101.318 228.779L101.303 228.77L101.298 228.767L101.296 228.765L101.293 228.764L101.288 228.76L101.282 228.757L101.274 228.751L101.261 228.743L101.257 228.741L101.253 228.738L101.252 228.737L101.219 228.716L101.201 228.704L101.19 228.697L101.184 228.694L101.164 228.681C101.144 228.67 101.124 228.659 101.103 228.65L101.093 228.647L101.091 228.646L101.086 228.644L101.076 228.641L101.072 228.64C101.043 228.631 101.013 228.626 100.982 228.621C100.948 228.616 100.914 228.612 100.879 228.609C100.836 228.605 100.792 228.602 100.748 228.6L100.745 228.6L100.72 228.599L100.714 228.599L100.695 228.599L100.688 228.598L100.668 228.598L100.663 228.598L100.637 228.599L100.633 228.599L100.613 228.599L100.604 228.599L100.588 228.6L100.579 228.601L100.554 228.602L100.529 228.604L100.501 228.607L100.492 228.608L100.471 228.61L100.464 228.611L100.436 228.615L100.394 228.621C100.356 228.626 100.318 228.632 100.28 228.637C100.246 228.641 100.246 228.641 100.212 228.644C100.146 228.649 100.08 228.65 100.014 228.642C99.9621 228.635 99.9143 228.623 99.8687 228.597L99.8612 228.593L99.8593 228.592L99.8582 228.591L99.8567 228.59L99.8538 228.588L99.8518 228.587L99.8479 228.584L99.8412 228.58L99.8394 228.579C99.8352 228.576 99.8304 228.572 99.8263 228.569L99.8233 228.567L99.8182 228.563L99.8135 228.559L99.8116 228.558L99.8105 228.557L99.8086 228.556L99.8055 228.553L99.7982 228.547L99.7922 228.542L99.7898 228.54L99.7875 228.538L99.7849 228.536L99.7796 228.531L99.7713 228.524L99.7587 228.513C99.7445 228.501 99.7303 228.489 99.7157 228.477C99.6581 228.433 99.5961 228.394 99.5374 228.352C99.5311 228.347 99.5248 228.342 99.5186 228.337L99.5135 228.333L99.5087 228.329L99.5075 228.328C99.5033 228.324 99.4991 228.321 99.4949 228.317L99.4925 228.315L99.4834 228.307L99.4821 228.306L99.4808 228.305L99.472 228.297L99.4694 228.295L99.4673 228.293L99.4647 228.29L99.4608 228.287L99.4569 228.283L99.4542 228.28L99.4524 228.278L99.45 228.276L99.4414 228.267L99.4405 228.266C99.4366 228.262 99.4327 228.258 99.4289 228.253C99.4253 228.249 99.4217 228.245 99.4181 228.241L99.4172 228.24L99.4148 228.237L99.4099 228.231L99.4076 228.228L99.4058 228.226L99.4039 228.223L99.4009 228.219L99.3972 228.214L99.395 228.211L99.3937 228.21L99.3921 228.207L99.3846 228.197C99.3815 228.192 99.378 228.187 99.375 228.183L99.3728 228.179L99.3676 228.171L99.3662 228.169L99.365 228.167L99.3631 228.163L99.36 228.158L99.3577 228.154L99.3559 228.151L99.3546 228.149L99.3528 228.146L99.3493 228.139L99.3473 228.136L99.3466 228.134L99.3458 228.133L99.3398 228.121L99.3391 228.12L99.3386 228.118L99.3328 228.106L99.3322 228.105L99.3315 228.104L99.3297 228.099L99.3268 228.093L99.3255 228.09L99.3242 228.087L99.3228 228.084L99.3211 228.08L99.3191 228.075L99.3175 228.071L99.3166 228.068L99.3157 228.066L99.3129 228.058L99.3112 228.054L99.3107 228.052C99.3049 228.036 99.2998 228.019 99.2953 228.002C99.2744 227.923 99.2677 227.841 99.2544 227.76C99.2509 227.742 99.247 227.724 99.2424 227.706C99.2346 227.68 99.2258 227.655 99.2084 227.634C99.193 227.616 99.1721 227.604 99.1497 227.596L99.1393 227.592L99.1284 227.589L99.1266 227.589L99.1168 227.586L99.1035 227.584C99.0856 227.581 99.0675 227.579 99.0494 227.578L99.0385 227.578C99.0312 227.578 99.024 227.579 99.0167 227.579C98.9427 227.585 98.8738 227.614 98.8085 227.647L98.7778 227.663C98.7106 227.7 98.6451 227.739 98.5779 227.775C98.5346 227.797 98.4901 227.817 98.4447 227.834L98.443 227.835L98.4372 227.837L98.4263 227.842L98.4232 227.843L98.42 227.844L98.4145 227.846L98.4076 227.848L98.4017 227.85L98.3968 227.852L98.3929 227.853L98.389 227.855L98.3794 227.858L98.3735 227.86L98.3716 227.861C98.3648 227.863 98.3579 227.865 98.351 227.867L98.3447 227.869L98.3325 227.873L98.3296 227.874L98.3266 227.875L98.3208 227.877L98.3135 227.879L98.3079 227.88L98.3029 227.882L98.2987 227.883L98.2944 227.884L98.2856 227.887L98.2792 227.888L98.2768 227.889L98.2753 227.89L98.2589 227.894L98.2554 227.895L98.2482 227.897L98.2369 227.9L98.2348 227.9L98.2315 227.901L98.2176 227.904L98.2152 227.905C98.2033 227.908 98.1913 227.91 98.1793 227.913L98.1779 227.913L98.1593 227.918L98.14 227.922L98.135 227.923C98.0391 227.942 97.9419 227.957 97.8454 227.969C97.8363 227.97 97.8272 227.971 97.8181 227.972C97.7857 227.976 97.7534 227.98 97.721 227.984C97.7066 227.985 97.6921 227.987 97.6775 227.989L97.6579 227.991L97.6561 227.991L97.6541 227.991L97.6468 227.992L97.6367 227.992L97.6343 227.993L97.6316 227.993L97.6244 227.993L97.6154 227.994L97.6124 227.994L97.609 227.994L97.6021 227.995L97.5941 227.995L97.5905 227.995L97.5865 227.995L97.5799 227.996L97.5728 227.996L97.5687 227.996L97.5639 227.996L97.5578 227.996L97.5516 227.996C97.4881 227.996 97.4254 227.987 97.3662 227.962C97.3216 227.943 97.2823 227.917 97.2461 227.887L97.2443 227.886L97.2391 227.881L97.2337 227.877L97.232 227.875L97.231 227.874C97.2225 227.867 97.2142 227.859 97.206 227.852L97.2048 227.85L97.203 227.849L97.1988 227.845L97.1931 227.839L97.1891 227.835L97.1863 227.832L97.1784 227.825L97.1725 227.818L97.1699 227.816L97.1681 227.814C97.1627 227.808 97.1572 227.802 97.1519 227.797L97.1487 227.793L97.1403 227.784L97.1368 227.78L97.1326 227.776L97.117 227.758L97.1155 227.756L97.1143 227.755L97.0863 227.724L97.0711 227.707L97.0622 227.697L97.0579 227.692L97.0412 227.674C97.0273 227.66 97.013 227.646 96.9981 227.633L96.9888 227.626L96.9856 227.624L96.9793 227.619L96.9752 227.616L96.9696 227.612L96.9651 227.609L96.9598 227.606L96.9547 227.602L96.9497 227.599L96.9441 227.596L96.9396 227.593L96.9333 227.59L96.9293 227.588L96.9222 227.584C96.8367 227.54 96.7379 227.522 96.6442 227.505L96.5816 227.493L96.5753 227.492C96.5565 227.488 96.5378 227.485 96.519 227.481C96.4827 227.473 96.4467 227.465 96.4108 227.456C96.4043 227.454 96.3979 227.452 96.3915 227.45L96.39 227.449L96.3854 227.448L96.3763 227.445L96.3724 227.444L96.3695 227.443L96.3653 227.441L96.3592 227.439L96.3532 227.437L96.349 227.436L96.3461 227.435L96.3423 227.433L96.3337 227.43L96.3288 227.429L96.3272 227.428L96.3255 227.427L96.3111 227.422L96.3088 227.421L96.3057 227.42L96.2923 227.414L96.2909 227.414L96.2889 227.413L96.2758 227.407C96.2145 227.381 96.1558 227.349 96.0993 227.313C96.0325 227.269 95.9696 227.221 95.9084 227.17L95.9068 227.169L95.9036 227.166L95.8897 227.155L95.8843 227.15L95.8828 227.149L95.8801 227.147L95.8604 227.13L95.8594 227.129L95.8234 227.099L95.8127 227.089L95.8107 227.088L95.7649 227.048L95.7175 227.008L95.6784 226.976L95.6643 226.965L95.6395 226.944L95.5572 226.878L95.5363 226.861L95.4893 226.823L95.482 226.817L95.4769 226.813L95.4514 226.792L95.4456 226.787L95.437 226.78L95.425 226.77L95.4136 226.761L95.3972 226.747C95.3256 226.686 95.255 226.624 95.188 226.558C95.1476 226.518 95.1066 226.478 95.0736 226.432C95.0172 226.353 94.9806 226.261 94.9538 226.169C94.9183 226.047 94.8992 225.92 94.8874 225.793C94.8833 225.749 94.8833 225.705 94.8803 225.661C94.8784 225.643 94.8763 225.625 94.8724 225.607C94.8682 225.59 94.8633 225.571 94.85 225.558C94.8451 225.554 94.8401 225.552 94.834 225.55C94.8157 225.547 94.7965 225.55 94.7784 225.553C94.7505 225.558 94.7229 225.563 94.695 225.568C94.6848 225.569 94.6747 225.57 94.6646 225.571L94.6626 225.571L94.655 225.571L94.6539 225.571C94.6498 225.572 94.6457 225.572 94.6416 225.572C94.6208 225.572 94.6004 225.57 94.5799 225.566C94.5529 225.561 94.526 225.551 94.5003 225.542C94.4327 225.519 94.3656 225.487 94.3214 225.429C94.2939 225.393 94.2813 225.349 94.2623 225.309L94.2596 225.303C94.2481 225.299 94.2363 225.295 94.2239 225.293L94.2188 225.293L94.2175 225.293L94.2129 225.292L94.2081 225.293L94.2017 225.293L94.1953 225.295L94.1934 225.295L94.1887 225.297L94.1871 225.297L94.1811 225.299L94.1798 225.3L94.1752 225.302L94.1733 225.303L94.1691 225.305L94.1675 225.306L94.1623 225.309L94.154 225.315L94.1529 225.316L94.1449 225.322C94.1368 225.328 94.1291 225.335 94.1216 225.342C94.0892 225.374 94.0599 225.409 94.0286 225.441C93.9841 225.486 93.9372 225.528 93.894 225.574C93.8839 225.585 93.8742 225.596 93.8648 225.608C93.8499 225.629 93.8361 225.65 93.8225 225.671L93.8156 225.682L93.808 225.694L93.7956 225.714L93.7892 225.724L93.7854 225.73L93.7841 225.732L93.7821 225.735L93.7747 225.746L93.77 225.754L93.7689 225.755L93.7682 225.756L93.7672 225.758L93.762 225.766L93.754 225.777C93.742 225.793 93.7298 225.809 93.7169 225.825C93.6998 225.844 93.6827 225.862 93.662 225.878C93.629 225.903 93.5911 225.92 93.5536 225.938C93.5355 225.946 93.5172 225.954 93.4989 225.962L93.4881 225.967L93.4611 225.979L93.4588 225.98C93.4485 225.985 93.4382 225.99 93.428 225.995C93.4151 226.002 93.4025 226.01 93.3907 226.019C93.3875 226.021 93.3875 226.021 93.3845 226.024C93.3812 226.039 93.3787 226.054 93.3762 226.069L93.3738 226.085C93.3818 226.098 93.3884 226.111 93.3949 226.125C93.4062 226.152 93.4145 226.18 93.4262 226.207C93.4339 226.217 93.4437 226.224 93.4532 226.232C93.4767 226.249 93.5007 226.266 93.5236 226.284C93.5382 226.297 93.5381 226.297 93.5522 226.31C93.5669 226.326 93.5668 226.326 93.5804 226.343C93.5948 226.364 93.6079 226.386 93.6208 226.408C93.6845 226.522 93.7352 226.641 93.7922 226.758C93.8091 226.79 93.8261 226.823 93.8447 226.854C93.8818 226.915 93.9236 226.972 93.9745 227.021L93.9848 227.031L93.9876 227.034L93.9978 227.043C94.0768 227.113 94.1713 227.164 94.2671 227.207L94.3042 227.224L94.3158 227.229L94.3375 227.238L94.3918 227.261L94.4558 227.288L94.4577 227.289C94.4774 227.297 94.4971 227.306 94.5168 227.314L94.5187 227.315C94.5437 227.326 94.5686 227.337 94.5934 227.348C94.6215 227.361 94.6493 227.375 94.6769 227.389C94.7194 227.412 94.7622 227.435 94.8008 227.463C94.8823 227.525 94.9511 227.603 95.0133 227.682C95.0241 227.696 95.0347 227.71 95.0452 227.724L95.0514 227.733L95.0553 227.738L95.0599 227.745L95.0655 227.752L95.0698 227.759L95.0753 227.766C95.0797 227.773 95.084 227.779 95.0882 227.786L95.0963 227.798L95.1028 227.808C95.1067 227.814 95.1106 227.821 95.1143 227.827L95.121 227.838L95.1287 227.852L95.1335 227.861L95.1393 227.872L95.144 227.881C95.1462 227.886 95.1483 227.89 95.1503 227.894C95.1768 227.95 95.1958 228.009 95.2092 228.069C95.2107 228.076 95.2122 228.083 95.2137 228.091L95.217 228.108L95.2183 228.115L95.2204 228.127L95.2221 228.138L95.2235 228.147L95.2254 228.161L95.2286 228.185L95.231 228.207L95.2328 228.225C95.2395 228.296 95.2417 228.367 95.2437 228.438C95.2454 228.503 95.2496 228.567 95.2519 228.631C95.2536 228.679 95.2515 228.726 95.2538 228.774C95.2549 228.789 95.2559 228.804 95.2592 228.819C95.2945 228.828 95.336 228.82 95.37 228.811C95.3757 228.809 95.3755 228.809 95.3811 228.807L95.3843 228.806C95.3872 228.798 95.3904 228.791 95.3942 228.784C95.4019 228.773 95.4094 228.761 95.4204 228.751C95.4228 228.749 95.4252 228.747 95.4277 228.745L95.4339 228.741L95.4401 228.737L95.4469 228.733L95.4538 228.729L95.4609 228.725L95.4681 228.722L95.4754 228.719L95.4829 228.717L95.4905 228.715L95.4981 228.713L95.5082 228.711L95.5155 228.71L95.523 228.709L95.5303 228.708ZM95.8229 229.11L95.8518 229.2C95.8487 229.168 95.8391 229.138 95.8229 229.11ZM93.6723 218.92C93.6416 218.907 93.6081 218.9 93.5765 218.895L93.5551 218.892L93.548 218.891L93.5334 218.889L93.5252 218.888L93.5115 218.887L93.5031 218.887L93.4893 218.886L93.4812 218.885L93.4659 218.885L93.4593 218.885L93.4378 218.884H93.4322L93.416 218.884L93.4071 218.885L93.3943 218.885L93.3843 218.885L93.3726 218.886L93.3621 218.886L93.34 218.888L93.3313 218.888C93.3139 218.89 93.2966 218.891 93.2794 218.893L93.2593 218.896C93.2409 218.898 93.2226 218.9 93.2044 218.903L93.1859 218.906C93.193 218.852 93.1994 218.799 93.2055 218.745L93.2088 218.711L93.2122 218.676L93.2164 218.631L93.2191 218.6L93.2205 218.582L93.2244 218.533C93.2276 218.485 93.2305 218.437 93.2323 218.388C93.2335 218.356 93.2343 218.323 93.2345 218.29C93.2347 218.259 93.2344 218.227 93.2334 218.195C93.2323 218.16 93.231 218.14 93.2283 218.105C93.2231 218.039 93.2143 217.969 93.1872 217.909C93.173 217.877 93.1516 217.846 93.1158 217.837C93.1046 217.836 93.0949 217.835 93.0836 217.836L93.0761 217.838L93.0736 217.838L93.0687 217.84L93.0658 217.84L93.0613 217.842L93.0584 217.843L93.054 217.844L93.0511 217.845L93.0468 217.847L93.0441 217.848L93.0395 217.85L93.0371 217.851L93.0309 217.854L93.0187 217.86L93.0172 217.86L93.0073 217.866L92.9987 217.871L92.9943 217.874L92.9829 217.881L92.9817 217.882L92.9686 217.891C92.9247 217.923 92.8849 217.96 92.8452 217.996C92.7588 218.078 92.6749 218.163 92.5888 218.246C92.5484 218.283 92.5077 218.321 92.4658 218.357C92.431 218.387 92.3951 218.416 92.3583 218.444C92.3294 218.465 92.2998 218.486 92.2694 218.505C92.2472 218.52 92.2246 218.533 92.2014 218.546C92.1284 218.585 92.0498 218.617 91.9671 218.629C91.9513 218.632 91.9353 218.633 91.9194 218.634L91.9034 218.634C91.8822 218.634 91.861 218.633 91.8401 218.628C91.8053 218.62 91.7727 218.605 91.743 218.585C91.6768 218.542 91.6255 218.479 91.5792 218.416L91.5591 218.388L91.557 218.385L91.5559 218.384L91.5517 218.378C91.508 218.316 91.4666 218.253 91.4228 218.192C91.3987 218.159 91.374 218.127 91.3483 218.096C91.2869 218.025 91.2181 217.96 91.1344 217.914C91.1163 217.905 91.0976 217.896 91.0785 217.888C91.0686 217.884 91.0584 217.879 91.0476 217.878C91.0258 217.875 91.0028 217.882 90.9825 217.889C90.9384 217.905 90.8983 217.933 90.8681 217.969C90.8445 217.996 90.8269 218.028 90.8178 218.063C90.8124 218.084 90.8102 218.106 90.8084 218.127C90.8049 218.166 90.804 218.206 90.8045 218.246C90.8061 218.375 90.8217 218.504 90.8435 218.631C90.8602 218.728 90.8807 218.825 90.9058 218.92L90.908 218.928L90.9183 218.966L90.9197 218.971L90.9306 219.008L90.9321 219.013L90.9416 219.045L90.9446 219.054L90.9562 219.09C90.9806 219.164 91.0083 219.237 91.0417 219.308L91.0531 219.332L91.057 219.339L91.065 219.355L91.0748 219.373L91.0765 219.376L91.0876 219.395L91.0942 219.406L91.0967 219.41C91.1022 219.419 91.1079 219.428 91.1139 219.437L91.1222 219.449L91.1297 219.459L91.1372 219.468L91.1446 219.478C91.1492 219.483 91.1538 219.489 91.1586 219.494L91.171 219.625L91.1748 219.664L91.1769 219.686L91.1832 219.747C91.2023 219.909 91.2251 220.078 91.3016 220.225C91.3206 220.261 91.3437 220.294 91.3681 220.327C91.4014 220.372 91.4359 220.415 91.4713 220.458L91.5156 220.512L91.5247 220.522L91.5478 220.55L91.6182 220.633L91.6276 220.645L91.6514 220.673L91.6673 220.692C91.682 220.709 91.6966 220.727 91.7112 220.745C91.753 220.796 91.794 220.848 91.8342 220.901C91.8609 220.938 91.8873 220.974 91.9125 221.011C91.9378 221.049 91.9632 221.085 91.9773 221.128C91.9942 221.179 91.9999 221.234 92.0016 221.288C92.0036 221.352 91.9996 221.416 91.9926 221.479L91.9921 221.483L91.9919 221.485L91.9886 221.513C91.9624 221.72 91.9096 221.924 91.8464 222.122C91.8274 222.182 91.8072 222.241 91.7857 222.3C91.7736 222.333 91.7574 222.366 91.7491 222.4C91.748 222.406 91.7472 222.412 91.7468 222.418C91.7472 222.479 91.7843 222.528 91.8225 222.573C91.8644 222.619 91.9091 222.663 91.9501 222.71C91.9644 222.728 91.9789 222.746 91.989 222.767C92.0059 222.801 92.01 222.839 92.0124 222.876C92.0145 222.923 92.0138 222.969 92.0159 223.016L92.0172 223.031L92.0175 223.034L92.0191 223.048C92.0222 223.073 92.0272 223.097 92.0364 223.12C92.049 223.152 92.0689 223.178 92.0932 223.199C92.1024 223.207 92.1123 223.214 92.1226 223.221L92.1338 223.228L92.1453 223.235L92.157 223.241L92.1676 223.247L92.1705 223.248L92.1835 223.254L92.1878 223.256L92.203 223.262L92.2191 223.269L92.2233 223.27L92.2311 223.273L92.2473 223.279L92.2535 223.281L92.2743 223.288C92.2994 223.296 92.311 223.299 92.3365 223.307C92.4312 223.334 92.5267 223.358 92.6214 223.384C92.6322 223.388 92.643 223.391 92.6538 223.394L92.6824 223.403L92.6897 223.405L92.7128 223.413L92.7237 223.416L92.7319 223.419L92.743 223.423L92.7504 223.425L92.7574 223.427L92.7646 223.43L92.7731 223.433L92.7821 223.436L92.791 223.439L92.7969 223.442L92.803 223.444L92.8137 223.448L92.8243 223.452L92.8336 223.456C92.8526 223.463 92.8715 223.471 92.8902 223.479C92.9479 223.505 93.0039 223.534 93.0569 223.568C93.0869 223.587 93.1158 223.608 93.1436 223.63C93.1659 223.648 93.188 223.667 93.2058 223.689C93.2656 223.765 93.2767 223.867 93.2788 223.959C93.2792 223.981 93.2791 224.003 93.2786 224.025C93.2779 224.06 93.2764 224.088 93.275 224.125C93.2731 224.173 93.2729 224.173 93.2718 224.221C93.2716 224.251 93.2722 224.281 93.2738 224.311C93.2792 224.374 93.2911 224.445 93.3431 224.487C93.3618 224.502 93.3844 224.51 93.405 224.522C93.4157 224.53 93.4155 224.529 93.4255 224.538C93.4638 224.576 93.487 224.625 93.5045 224.676C93.5223 224.727 93.5346 224.781 93.5436 224.835C93.5644 224.96 93.5739 225.086 93.5766 225.213L93.5773 225.25L93.5775 225.262V225.272L93.5776 225.292L93.5776 225.303L93.5776 225.31L93.5775 225.319L93.5775 225.333L93.5773 225.357L93.5771 225.365L93.5771 225.375L93.5767 225.394L93.5765 225.405L93.5764 225.41L93.5762 225.417L93.5756 225.441L93.5753 225.452L93.5752 225.455C93.5748 225.47 93.5743 225.485 93.5738 225.5L93.5718 225.54L93.6269 225.578L93.6523 225.538C93.6608 225.524 93.6694 225.511 93.6782 225.498L93.6881 225.485L93.6982 225.472L93.7067 225.461C93.7108 225.456 93.7149 225.451 93.7192 225.446C93.771 225.388 93.8298 225.338 93.8831 225.282C93.9056 225.257 93.9278 225.232 93.9508 225.208C93.9724 225.187 93.9942 225.166 94.0185 225.148C94.0342 225.136 94.0507 225.125 94.0679 225.116L94.0752 225.112L94.0826 225.109L94.0903 225.105L94.0977 225.102L94.1054 225.099L94.1128 225.096L94.1237 225.092L94.1288 225.091L94.1358 225.089L94.1466 225.086L94.1528 225.085L94.1593 225.083L94.1701 225.082L94.1775 225.081L94.1834 225.08C94.187 225.08 94.1906 225.079 94.1942 225.079C94.199 225.079 94.2038 225.079 94.2086 225.079L94.2232 225.079C94.2328 225.079 94.2425 225.08 94.2521 225.081C94.2788 225.085 94.305 225.091 94.3301 225.101C94.3572 225.111 94.3834 225.123 94.4051 225.142C94.4357 225.169 94.4547 225.207 94.4703 225.243C94.4783 225.262 94.4847 225.283 94.4953 225.301C94.5002 225.307 94.5064 225.311 94.5126 225.315C94.5315 225.325 94.5516 225.333 94.5721 225.34C94.5789 225.342 94.5866 225.345 94.5947 225.348L94.6034 225.351L94.6143 225.354C94.6186 225.356 94.6228 225.357 94.6269 225.357C94.635 225.358 94.643 225.358 94.6512 225.358C94.6897 225.353 94.7275 225.345 94.7658 225.339C94.7838 225.337 94.8011 225.335 94.8191 225.335C94.8456 225.335 94.8715 225.338 94.897 225.345C94.914 225.35 94.9305 225.357 94.9461 225.365C94.9635 225.374 94.9798 225.385 94.9946 225.399C95.0588 225.455 95.0822 225.535 95.0936 225.616C95.0989 225.669 95.0994 225.722 95.1034 225.774C95.1157 225.894 95.1323 226.014 95.1681 226.129C95.1906 226.202 95.2207 226.273 95.2692 226.332C95.2815 226.346 95.2943 226.359 95.3073 226.372L95.3413 226.407L95.3713 226.435L95.4016 226.463L95.4139 226.475L95.4323 226.491L95.4453 226.503L95.4633 226.519L95.4765 226.53L95.4947 226.546L95.5077 226.557L95.5265 226.573L95.5387 226.584L95.5587 226.601L95.5696 226.61L95.5882 226.625L95.6143 226.647L95.6583 226.683L95.6693 226.692C95.7319 226.743 95.7951 226.793 95.8576 226.845C95.9266 226.903 95.9947 226.963 96.0643 227.02C96.1177 227.063 96.1727 227.105 96.2306 227.141L96.2528 227.155L96.2753 227.168L96.2981 227.181L96.3094 227.187L96.321 227.193L96.3327 227.199L96.3444 227.204L96.3563 227.209L96.3682 227.215L96.3802 227.22L96.3924 227.224L96.4046 227.229L96.4169 227.233L96.4373 227.24L96.4579 227.247L96.4662 227.249L96.4786 227.252L96.4876 227.255L96.4994 227.258L96.509 227.26L96.52 227.263L96.5304 227.265L96.5403 227.268L96.5521 227.27L96.5741 227.275C96.6391 227.288 96.7048 227.298 96.7694 227.311C96.7985 227.318 96.8273 227.325 96.8561 227.332C96.8751 227.338 96.8941 227.343 96.9129 227.35L96.9223 227.353L96.9386 227.358L96.9548 227.364L96.9709 227.371L96.9822 227.375L96.9954 227.381L97.0026 227.384L97.0083 227.387L97.0181 227.392L97.0212 227.393L97.0338 227.4C97.0384 227.402 97.0431 227.405 97.0476 227.407L97.0589 227.414L97.0636 227.416L97.0711 227.421L97.0783 227.426L97.0832 227.429L97.0927 227.435L97.0951 227.437L97.1068 227.445L97.1159 227.452L97.1238 227.458C97.1287 227.462 97.1334 227.466 97.1381 227.47L97.1422 227.474L97.1474 227.478L97.155 227.485L97.1592 227.489L97.1639 227.493L97.1702 227.499L97.1757 227.504L97.1797 227.508L97.1851 227.513L97.1918 227.52L97.1996 227.528L97.2075 227.536L97.214 227.543L97.2281 227.559L97.2383 227.57C97.272 227.607 97.3048 227.646 97.3395 227.682C97.3532 227.695 97.3672 227.708 97.382 227.721C97.4066 227.74 97.4329 227.759 97.463 227.769C97.4918 227.779 97.5229 227.782 97.5531 227.782L97.5742 227.782L97.5914 227.781L97.6087 227.78L97.626 227.779L97.6434 227.777L97.6607 227.775L97.6956 227.771C97.7274 227.768 97.7592 227.764 97.791 227.76L97.8292 227.755L97.8615 227.751C97.9536 227.738 98.0454 227.723 98.136 227.703C98.1465 227.701 98.1571 227.698 98.1677 227.696L98.1881 227.691L98.2041 227.687L98.2231 227.682L98.2423 227.676L98.2614 227.671L98.28 227.665L98.2996 227.659L98.3191 227.652L98.3278 227.649L98.3386 227.646L98.3471 227.643L98.3579 227.639L98.3663 227.635L98.3771 227.631L98.3854 227.628L98.3963 227.623L98.4043 227.62L98.4156 227.615L98.423 227.612L98.4417 227.603L98.4602 227.595C98.5446 227.551 98.6249 227.501 98.7091 227.457C98.7538 227.435 98.7996 227.414 98.847 227.398L98.8566 227.395L98.8719 227.39L98.8873 227.386L98.9029 227.382L98.9185 227.378L98.9347 227.375C98.9398 227.374 98.945 227.373 98.9501 227.372L98.9631 227.37L98.9762 227.369L98.9895 227.367L98.9975 227.366L99.0029 227.366L99.0148 227.365C99.0248 227.365 99.0349 227.364 99.045 227.364H99.0462L99.0571 227.364L99.0707 227.365L99.0789 227.365L99.0844 227.366L99.0963 227.367C99.1066 227.368 99.1169 227.369 99.1271 227.37L99.1388 227.372L99.1522 227.375L99.1656 227.377L99.1765 227.38C99.187 227.383 99.1973 227.385 99.2075 227.389C99.2626 227.407 99.3135 227.435 99.3545 227.475C99.3761 227.496 99.3945 227.521 99.4096 227.547C99.428 227.579 99.4412 227.612 99.4511 227.647L99.4533 227.655L99.4559 227.665C99.4572 227.67 99.4584 227.675 99.4595 227.68C99.461 227.686 99.4625 227.693 99.4638 227.7L99.4671 227.716L99.4683 227.723L99.4702 227.734L99.4726 227.749L99.4758 227.77L99.4806 227.804L99.4825 227.819L99.4871 227.852L99.4897 227.869L99.4916 227.881L99.4926 227.888L99.4961 227.908C99.5004 227.928 99.5051 227.948 99.5107 227.968L99.5143 227.978L99.5182 227.989L99.5223 227.999L99.5267 228.009L99.5313 228.02L99.5362 228.03L99.5413 228.039L99.5468 228.049L99.5524 228.059L99.5583 228.068L99.5645 228.077L99.571 228.086L99.5777 228.095L99.5847 228.104L99.592 228.112L99.5999 228.121C99.6209 228.144 99.6446 228.163 99.6689 228.182C99.7242 228.222 99.7817 228.259 99.8371 228.299L99.8528 228.311L99.8681 228.324L99.8758 228.331C99.8872 228.34 99.8985 228.35 99.91 228.36L99.9146 228.364L99.9297 228.377L99.9448 228.389L99.9601 228.401C99.9714 228.409 99.9827 228.416 99.9957 228.421C100.01 228.426 100.027 228.428 100.042 228.43L100.053 228.431L100.065 228.432L100.076 228.433L100.087 228.434L100.099 228.434L100.109 228.434L100.129 228.434L100.137 228.434C100.251 228.432 100.363 228.408 100.476 228.394C100.511 228.391 100.511 228.391 100.546 228.388C100.558 228.388 100.571 228.387 100.583 228.387L100.59 228.387C100.602 228.386 100.613 228.386 100.625 228.386L100.645 228.385L100.669 228.385C100.681 228.385 100.693 228.385 100.706 228.386L100.712 228.386C100.724 228.386 100.736 228.386 100.748 228.387L100.753 228.387C100.779 228.388 100.804 228.389 100.83 228.391L100.833 228.391C100.846 228.392 100.859 228.393 100.872 228.394C100.895 228.396 100.917 228.398 100.939 228.4C101.017 228.409 101.097 228.419 101.171 228.447L101.189 228.454L101.207 228.462L101.214 228.465L101.219 228.468L101.225 228.47L101.236 228.476L101.242 228.479L101.252 228.485L101.259 228.489L101.268 228.494L101.276 228.498L101.284 228.503L101.292 228.508L101.299 228.513L101.315 228.522L101.332 228.533L101.341 228.539L101.374 228.56L101.407 228.582L101.423 228.592L101.439 228.602L101.455 228.61L101.471 228.619C101.481 228.624 101.491 228.628 101.501 228.633C101.523 228.642 101.546 228.646 101.57 228.649C101.618 228.654 101.667 228.657 101.715 228.663C101.743 228.667 101.77 228.672 101.797 228.68L101.806 228.683L101.812 228.684L101.821 228.688L101.822 228.688C101.827 228.69 101.831 228.691 101.836 228.693C101.882 228.712 101.924 228.738 101.969 228.759C101.979 228.763 101.989 228.766 101.999 228.77C102.005 228.771 102.01 228.772 102.016 228.773C102.029 228.774 102.042 228.774 102.055 228.774L102.093 228.773C102.136 228.771 102.18 228.768 102.223 228.764C102.209 228.566 102.224 228.367 102.263 228.172C102.265 228.164 102.266 228.156 102.268 228.148L102.273 228.127L102.278 228.104L102.28 228.094C102.288 228.06 102.297 228.026 102.307 227.993C102.323 227.939 102.341 227.887 102.366 227.837C102.421 227.73 102.502 227.638 102.583 227.55C102.61 227.522 102.637 227.493 102.663 227.464C102.675 227.451 102.685 227.438 102.698 227.427C102.704 227.422 102.71 227.418 102.717 227.414C102.757 227.397 102.8 227.403 102.841 227.411L102.844 227.412C102.892 227.423 102.938 227.437 102.985 227.448C103.001 227.451 103.019 227.454 103.036 227.454L103.042 227.454C103.054 227.453 103.065 227.451 103.075 227.445C103.091 227.436 103.104 227.421 103.114 227.406C103.138 227.371 103.151 227.327 103.148 227.285C103.146 227.267 103.141 227.248 103.129 227.233C103.122 227.224 103.113 227.219 103.103 227.214C103.077 227.201 103.05 227.19 103.023 227.18C103.004 227.172 102.986 227.165 102.967 227.157C102.95 227.148 102.933 227.14 102.916 227.129C102.899 227.118 102.883 227.106 102.871 227.089C102.853 227.063 102.847 227.03 102.843 226.999C102.836 226.946 102.835 226.892 102.831 226.839L102.83 226.825L102.828 226.809L102.826 226.785C102.818 226.732 102.807 226.679 102.784 226.63L102.779 226.621L102.778 226.618L102.774 226.612L102.772 226.608L102.769 226.603L102.767 226.599L102.764 226.594L102.762 226.591L102.758 226.585L102.756 226.582L102.751 226.575L102.75 226.574L102.744 226.566L102.742 226.563L102.738 226.558L102.735 226.555L102.731 226.55L102.728 226.547L102.724 226.542L102.722 226.539L102.719 226.537L102.708 226.524L102.695 226.512L102.693 226.511L102.681 226.499L102.679 226.498L102.671 226.491L102.662 226.483L102.655 226.478L102.646 226.471L102.639 226.465L102.63 226.458L102.622 226.453L102.614 226.447C102.601 226.437 102.587 226.428 102.574 226.42L102.57 226.417C102.558 226.409 102.546 226.401 102.534 226.394C102.463 226.351 102.392 226.31 102.323 226.265C102.286 226.241 102.25 226.215 102.215 226.188L102.214 226.187L102.211 226.184L102.204 226.179L102.199 226.175L102.196 226.173L102.194 226.171L102.189 226.167L102.182 226.161L102.179 226.158L102.177 226.157C102.172 226.152 102.167 226.147 102.162 226.143L102.148 226.13L102.146 226.129L102.145 226.127L102.142 226.124L102.135 226.118L102.131 226.114L102.128 226.111L102.126 226.109L102.122 226.105L102.116 226.098L102.112 226.095L102.111 226.093C102.106 226.088 102.102 226.083 102.097 226.078C102.05 226.025 102.01 225.967 101.979 225.904C101.976 225.898 101.973 225.892 101.97 225.886L101.97 225.884C101.967 225.879 101.965 225.872 101.962 225.867L101.962 225.865C101.959 225.86 101.957 225.853 101.954 225.847L101.954 225.846L101.954 225.845L101.952 225.841L101.95 225.834L101.947 225.826L101.946 225.824L101.945 225.82L101.942 225.813L101.941 225.807L101.94 225.804L101.938 225.799L101.936 225.791L101.935 225.787L101.934 225.784L101.932 225.778L101.93 225.769L101.929 225.767L101.929 225.765L101.927 225.756L101.925 225.747L101.922 225.734C101.886 225.561 101.909 225.377 101.938 225.203C101.946 225.158 101.949 225.139 101.959 225.087C101.962 225.074 101.965 225.061 101.969 225.048C101.994 224.973 102.041 224.909 102.093 224.85C102.15 224.786 102.214 224.728 102.273 224.666C102.291 224.646 102.291 224.646 102.308 224.626C102.359 224.564 102.409 224.488 102.385 224.404C102.38 224.385 102.373 224.367 102.363 224.35C102.35 224.33 102.335 224.311 102.317 224.295C102.29 224.27 102.258 224.251 102.226 224.236C102.22 224.234 102.215 224.231 102.21 224.229L102.197 224.224L102.185 224.219L102.181 224.218L102.17 224.214L102.166 224.212L102.155 224.209L102.15 224.207L102.14 224.204L102.134 224.202L102.124 224.199L102.118 224.198L102.109 224.195L102.093 224.191L102.077 224.188L102.07 224.186L102.061 224.184L102.053 224.183L102.044 224.181L102.037 224.18L102.028 224.179L102.021 224.177L102.011 224.176L102.004 224.175L101.994 224.174L101.988 224.173L101.955 224.169L101.934 224.167L101.927 224.166L101.912 224.165L101.891 224.163L101.882 224.162L101.869 224.162L101.86 224.161L101.848 224.161L101.838 224.16L101.826 224.16L101.817 224.159L101.805 224.159L101.795 224.159L101.783 224.159L101.774 224.159H101.753L101.741 224.159L101.732 224.159L101.711 224.159L101.697 224.16L101.69 224.16L101.675 224.161L101.67 224.161L101.653 224.162L101.65 224.162L101.632 224.163L101.617 224.164C101.61 224.164 101.602 224.165 101.595 224.165L101.587 224.166C101.561 223.992 101.54 223.818 101.525 223.643C101.509 223.463 101.499 223.283 101.499 223.103C101.499 223.076 101.499 223.048 101.5 223.021L101.501 222.992L101.502 222.955L101.502 222.944L101.503 222.929L101.504 222.918L101.504 222.91L101.505 222.899L101.506 222.882L101.507 222.868L101.509 222.842C101.509 222.83 101.51 222.819 101.511 222.808C101.514 222.78 101.517 222.753 101.52 222.726C101.522 222.71 101.525 222.696 101.525 222.681C101.525 222.673 101.524 222.664 101.523 222.656C101.504 222.583 101.432 222.537 101.372 222.499C101.359 222.491 101.347 222.483 101.334 222.475C101.308 222.459 101.283 222.444 101.258 222.427C101.241 222.415 101.241 222.415 101.224 222.402C101.22 222.399 101.216 222.396 101.213 222.392L101.211 222.391L101.209 222.39L101.204 222.385L101.201 222.383L101.199 222.381L101.195 222.377L101.194 222.376C101.191 222.374 101.188 222.371 101.186 222.368L101.184 222.366C101.181 222.363 101.177 222.359 101.174 222.355L101.172 222.353L101.17 222.351L101.169 222.349L101.168 222.348L101.165 222.345L101.163 222.341C101.154 222.329 101.147 222.316 101.142 222.302C101.131 222.267 101.137 222.231 101.147 222.197C101.17 222.113 101.219 222.038 101.27 221.969C101.292 221.938 101.315 221.908 101.339 221.879C101.364 221.847 101.388 221.819 101.414 221.787C101.456 221.736 101.499 221.684 101.54 221.632C101.564 221.601 101.588 221.57 101.61 221.538C101.663 221.462 101.714 221.381 101.738 221.29C101.763 221.195 101.776 221.097 101.78 220.998L101.781 220.966L101.781 220.955L101.781 220.933L101.781 220.92L101.781 220.9L101.78 220.887L101.78 220.867L101.779 220.854L101.778 220.834L101.778 220.821L101.776 220.799L101.776 220.789L101.773 220.757L101.772 220.748L101.769 220.724L101.768 220.711L101.766 220.692L101.764 220.678L101.761 220.66L101.759 220.645L101.756 220.628L101.754 220.612L101.751 220.596L101.748 220.58L101.745 220.566C101.742 220.55 101.738 220.535 101.735 220.519C101.73 220.496 101.724 220.472 101.718 220.449C101.693 220.355 101.661 220.261 101.605 220.181C101.539 220.084 101.445 220.009 101.344 219.951C101.314 219.934 101.284 219.918 101.253 219.904C101.235 219.895 101.218 219.887 101.2 219.881C101.174 219.873 101.147 219.868 101.12 219.864C101.05 219.855 100.98 219.851 100.91 219.843C100.862 219.837 100.802 219.831 100.768 219.792C100.75 219.772 100.74 219.746 100.731 219.721C100.718 219.679 100.707 219.636 100.694 219.594C100.683 219.565 100.671 219.535 100.647 219.513L100.642 219.509L100.641 219.508L100.637 219.505L100.635 219.504L100.632 219.502L100.63 219.501L100.627 219.499L100.624 219.498L100.621 219.496L100.619 219.495L100.615 219.494L100.613 219.493L100.609 219.491L100.607 219.491L100.601 219.489L100.599 219.488L100.595 219.487L100.586 219.485L100.578 219.484L100.573 219.483L100.566 219.482L100.56 219.481L100.548 219.48C100.5 219.474 100.451 219.472 100.403 219.471C100.247 219.468 100.092 219.475 99.9367 219.486L99.8632 219.491L99.7818 219.497L99.7521 219.5C99.743 219.485 99.7335 219.47 99.7237 219.456C99.705 219.429 99.6855 219.404 99.6653 219.379C99.5901 219.288 99.5043 219.207 99.4065 219.141C99.3645 219.112 99.3204 219.085 99.2737 219.065L99.2626 219.06L99.2591 219.059L99.2513 219.056L99.2475 219.054L99.2394 219.052L99.2364 219.051L99.2254 219.047L99.2231 219.046C99.1853 219.034 99.1463 219.027 99.1073 219.021C99.0273 219.009 98.946 219.006 98.8652 219.006C98.7441 219.006 98.6232 219.015 98.5028 219.028L98.4871 219.03L98.4381 219.035L98.3728 219.043C98.3122 219.05 98.2516 219.058 98.1909 219.065C98.1658 219.067 98.141 219.069 98.1161 219.073C98.1002 219.076 98.0846 219.079 98.0689 219.084C97.9627 219.115 97.8714 219.177 97.7858 219.245C97.6972 219.316 97.614 219.393 97.5267 219.465C97.4975 219.488 97.4976 219.488 97.468 219.511C97.3914 219.567 97.3127 219.617 97.2217 219.647L97.2055 219.652L97.1897 219.656L97.1895 219.659C97.1872 219.721 97.1809 219.784 97.1673 219.845C97.1642 219.871 97.1611 219.897 97.1579 219.923C97.1525 219.962 97.1474 220 97.1405 220.038C97.1359 220.064 97.1307 220.089 97.1244 220.114C97.1188 220.137 97.1123 220.159 97.1043 220.181C97.093 220.212 97.0785 220.243 97.0585 220.269L97.0551 220.274L97.0524 220.277L97.0509 220.279L97.0477 220.283L97.0456 220.285L97.0446 220.286L97.0429 220.288L97.0398 220.291L97.0381 220.293L97.0371 220.294L97.0346 220.296L97.0314 220.3L97.0295 220.301C97.027 220.303 97.0238 220.306 97.0211 220.308L97.0201 220.309C97.0176 220.311 97.0149 220.313 97.0122 220.315L97.0082 220.317L97.0048 220.319L97.0031 220.32L96.9995 220.322L96.9979 220.323L96.9926 220.326C96.9792 220.333 96.965 220.338 96.9504 220.341C96.9407 220.343 96.9313 220.344 96.9222 220.345L96.9168 220.345C96.8987 220.345 96.8818 220.34 96.8655 220.327C96.8476 220.314 96.8335 220.295 96.8215 220.276C96.8159 220.267 96.8106 220.258 96.8053 220.25C96.7619 220.267 96.7169 220.28 96.6713 220.291C96.5626 220.316 96.4511 220.323 96.3397 220.326C96.2612 220.327 96.1828 220.326 96.1043 220.325C96.0369 220.325 95.9695 220.326 95.9022 220.324C95.8485 220.322 95.7953 220.317 95.7419 220.311C95.7027 220.305 95.6635 220.3 95.6244 220.293C95.6187 220.294 95.6132 220.294 95.6075 220.295C95.5896 220.296 95.5717 220.297 95.5537 220.297L95.5358 220.298C95.4642 220.298 95.3932 220.289 95.327 220.259C95.3173 220.254 95.3079 220.25 95.2986 220.245C95.2753 220.242 95.2521 220.24 95.2287 220.24C95.1744 220.238 95.12 220.242 95.0656 220.242C95.0417 220.242 95.0183 220.241 94.9945 220.238C94.9653 220.234 94.9362 220.229 94.9094 220.216C94.8854 220.205 94.8641 220.189 94.8443 220.172C94.8162 220.148 94.7904 220.121 94.766 220.093C94.7116 220.031 94.6605 219.966 94.6053 219.905C94.589 219.888 94.5724 219.871 94.5552 219.854C94.5022 219.806 94.4433 219.76 94.369 219.754L94.3596 219.754L94.3107 219.74C94.2984 219.741 94.286 219.742 94.2736 219.743L94.2684 219.743L94.2472 219.745C94.2328 219.745 94.2185 219.746 94.2042 219.746H94.1899C94.1708 219.746 94.1517 219.745 94.1327 219.742C94.1021 219.739 94.0716 219.732 94.0436 219.719C94.0026 219.7 93.9727 219.669 93.9501 219.633L93.806 219.59C93.7808 219.531 93.7513 219.475 93.726 219.417C93.7163 219.393 93.7072 219.37 93.7 219.346C93.686 219.298 93.6779 219.248 93.6705 219.199C93.6569 219.108 93.6492 219.01 93.6723 218.92ZM94.65 227.62L95.0287 228.5C95.028 228.481 95.0274 228.463 95.0269 228.444C95.0256 228.399 95.0239 228.353 95.0216 228.307C95.019 228.27 95.0161 228.234 95.0116 228.198C95.0022 228.131 94.9885 228.065 94.9617 228.002C94.9282 227.924 94.875 227.853 94.8215 227.788C94.7725 227.728 94.7186 227.665 94.6529 227.622L94.65 227.62ZM94.3978 221.224C94.9285 221.45 95.3553 221.853 95.4662 222.611C95.5659 222.616 95.6525 222.65 95.7335 222.712C95.6835 222.814 95.6432 222.92 95.6131 223.029H95.2771C95.2045 223.343 95.2045 223.669 95.2771 223.982H95.6131C95.6544 224.132 95.7151 224.277 95.7937 224.412L95.5561 224.646C95.7298 224.918 95.9634 225.149 96.2397 225.32L96.4773 225.086C96.6143 225.163 96.7608 225.223 96.9133 225.264V225.595C97.2314 225.666 97.5618 225.666 97.8799 225.595V225.264C98.0324 225.223 98.1789 225.163 98.3159 225.086L98.8507 225.613C98.4363 225.891 97.9356 226.054 97.3966 226.054C95.9696 226.054 94.811 224.912 94.811 223.506C94.811 223.311 94.8287 223.108 94.8381 222.895C94.8464 222.708 94.7839 222.393 94.6112 222.223C94.3085 221.924 94.0016 221.726 94.0016 221.726L94.3978 221.224ZM100.395 225.788C99.8647 225.561 99.4379 225.158 99.327 224.401C99.2273 224.395 99.1407 224.362 99.0597 224.299C99.1097 224.198 99.15 224.092 99.1801 223.982H99.5161C99.5887 223.669 99.5887 223.343 99.5161 223.029H99.1801C99.1388 222.879 99.0781 222.735 98.9995 222.6L99.2371 222.365C99.0634 222.093 98.8298 221.863 98.5535 221.692L98.3159 221.926C98.1789 221.848 98.0324 221.789 97.8799 221.748V221.417C97.5618 221.345 97.2314 221.345 96.9133 221.417V221.748C96.7608 221.789 96.6143 221.848 96.4773 221.926L95.9425 221.399C96.3569 221.12 96.8576 220.957 97.3966 220.957C98.8236 220.957 99.9822 222.099 99.9822 223.506C99.9822 223.7 99.9645 223.903 99.9551 224.117C99.9468 224.304 100.009 224.619 100.182 224.789C100.485 225.088 100.792 225.286 100.792 225.286L100.395 225.788ZM102.447 224.796C102.391 224.858 102.328 224.914 102.273 224.973C102.257 224.99 102.242 225.007 102.227 225.025C102.207 225.052 102.187 225.08 102.176 225.112C102.167 225.141 102.163 225.174 102.158 225.202C102.154 225.228 102.151 225.246 102.147 225.273C102.142 225.304 102.137 225.335 102.133 225.367L102.447 224.796ZM97.7489 221.76C97.5163 221.715 97.2769 221.715 97.0443 221.76L97.053 222.031C96.8862 222.069 96.7269 222.134 96.5819 222.224L96.3935 222.026C96.1963 222.156 96.027 222.323 95.8952 222.517L96.0959 222.703C96.0051 222.846 95.9391 223.003 95.9007 223.167L95.6256 223.159C95.5794 223.388 95.5794 223.624 95.6256 223.853L95.9007 223.844C95.9391 224.009 96.0051 224.166 96.0959 224.309L95.8952 224.495C96.027 224.689 96.1963 224.856 96.3935 224.986L96.5819 224.788C96.7269 224.877 96.8862 224.942 97.053 224.98L97.0443 225.251C97.2769 225.297 97.5163 225.297 97.7489 225.251L97.7402 224.98C97.907 224.942 98.0663 224.877 98.2113 224.788L98.3997 224.986C98.5969 224.856 98.7662 224.689 98.898 224.495L98.6973 224.309C98.7881 224.166 98.8541 224.009 98.8925 223.844L99.1676 223.853C99.2138 223.624 99.2138 223.388 99.1676 223.159L98.8925 223.167C98.8541 223.003 98.7881 222.846 98.6973 222.703L98.898 222.517C98.7662 222.323 98.5969 222.156 98.3997 222.026L98.2113 222.224C98.0663 222.134 97.907 222.069 97.7402 222.031L97.7489 221.76ZM97.3184 222.536V222.375H97.4748V222.535C97.6551 222.502 97.7363 222.365 97.734 222.376C97.7044 222.514 97.6357 222.663 97.4748 222.7V223.03C97.7967 222.994 97.9411 222.753 97.9372 222.772C97.8871 223.002 97.7665 223.252 97.4748 223.292V223.592C97.8705 223.557 98.0479 223.28 98.0432 223.302C97.9823 223.563 97.8348 223.847 97.4748 223.885V224.247C97.9805 224.211 98.2071 223.847 98.2011 223.875C98.1202 224.232 97.9159 224.624 97.3966 224.626C96.8761 224.627 96.6721 224.233 96.5949 223.873C96.59 223.847 96.813 224.214 97.3184 224.248V223.885C96.9559 223.851 96.8082 223.564 96.75 223.301C96.7461 223.28 96.9215 223.56 97.3184 223.592V223.292C97.0246 223.256 96.9039 223.003 96.856 222.771C96.8527 222.753 96.9955 222.997 97.3184 223.031V222.701C97.1563 222.665 97.0875 222.514 97.0593 222.376C97.0573 222.365 97.1376 222.503 97.3184 222.536ZM93.0021 223.792L93.0603 223.928C93.0592 223.909 93.0572 223.891 93.0538 223.873C93.0505 223.856 93.0461 223.837 93.0361 223.822C93.0273 223.811 93.0143 223.801 93.0021 223.792ZM95.0139 220.025C95.0205 220.026 95.027 220.027 95.0337 220.027C95.0917 220.03 95.1498 220.026 95.2078 220.025C95.2363 220.026 95.2361 220.026 95.2645 220.027C95.4203 220.041 95.5733 220.07 95.7277 220.093C95.7688 220.099 95.8098 220.103 95.851 220.107C95.884 220.11 95.9169 220.111 95.9499 220.111C96.0784 220.111 96.2068 220.114 96.3352 220.112C96.4227 220.11 96.5103 220.105 96.5963 220.088C96.6497 220.077 96.7022 220.062 96.7517 220.04C96.8034 220.016 96.8585 219.984 96.8944 219.94C96.922 219.905 96.9388 219.863 96.95 219.821C96.9678 219.754 96.9729 219.684 96.9737 219.615C96.9742 219.578 96.9731 219.54 96.9711 219.503C96.969 219.463 96.9657 219.424 96.9622 219.384C96.9506 219.265 96.9351 219.146 96.9246 219.026C96.9178 218.932 96.9167 218.838 96.9115 218.744C96.9092 218.713 96.9064 218.681 96.9028 218.65C96.8965 218.606 96.8891 218.562 96.8745 218.519C96.8698 218.506 96.8654 218.488 96.8557 218.477C96.8486 218.47 96.8404 218.464 96.832 218.459C96.8222 218.453 96.8123 218.447 96.8021 218.442C96.7515 218.417 96.6998 218.395 96.6495 218.369C96.5853 218.335 96.5243 218.296 96.4739 218.243C96.4278 218.195 96.394 218.138 96.3618 218.08C96.3251 218.015 96.2937 217.947 96.2699 217.876C96.2482 217.811 96.2335 217.745 96.2205 217.678L96.2188 217.664C96.2112 217.665 96.2036 217.665 96.1959 217.666L96.1814 217.667L96.1775 217.668L96.1674 217.669L96.1634 217.669L96.155 217.67L96.1509 217.67L96.1337 217.671C96.0887 217.673 96.0437 217.672 95.9988 217.672C95.9002 217.673 95.8726 217.674 95.7741 217.675L95.7372 217.676L95.7315 217.676L95.7275 217.677L95.6633 217.678L95.6429 217.679L95.6343 217.679L95.6309 217.679C95.6167 217.68 95.6025 217.68 95.5883 217.681L95.5841 217.681L95.5527 217.682L95.5453 217.682L95.5412 217.682L95.501 217.684L95.4947 217.684L95.4892 217.684L95.4789 217.685L95.4481 217.686C95.4329 217.687 95.4167 217.687 95.4015 217.688C95.329 217.691 95.2564 217.694 95.1838 217.697C95.0517 217.7 94.9195 217.695 94.7874 217.699C94.7342 217.7 94.6804 217.703 94.6271 217.709C94.616 217.71 94.6049 217.712 94.5938 217.714L94.5923 217.714L94.5877 217.715L94.5845 217.715L94.5831 217.715L94.5794 217.716L94.576 217.716L94.5739 217.717L94.5708 217.717L94.5676 217.718L94.5662 217.718L94.5648 217.718L94.562 217.719L94.5591 217.719L94.5574 217.72L94.5556 217.72L94.5507 217.721L94.5485 217.722L94.5465 217.722L94.5445 217.722L94.5423 217.723L94.5397 217.724L94.5374 217.724L94.5358 217.724L94.5339 217.725L94.5308 217.725L94.5283 217.726L94.527 217.726L94.5256 217.727L94.522 217.728L94.5193 217.728L94.5172 217.729L94.5131 217.73L94.5096 217.731L94.5039 217.732L94.5013 217.733C94.4985 217.734 94.4952 217.735 94.4923 217.736C94.4638 217.744 94.4354 217.755 94.4098 217.77C94.4014 217.775 94.3898 217.781 94.3843 217.789C94.3797 217.797 94.3781 217.806 94.3765 217.815C94.3713 217.851 94.3735 217.888 94.3758 217.924L94.3765 217.932C94.3787 217.959 94.3812 217.986 94.3836 218.013C94.3865 218.045 94.3893 218.076 94.3914 218.107C94.3918 218.116 94.3921 218.125 94.3924 218.134C94.3953 218.236 94.3872 218.338 94.3462 218.432C94.327 218.476 94.3021 218.518 94.2736 218.557C94.241 218.601 94.2033 218.641 94.1635 218.679L94.1579 218.684L94.156 218.686L94.1524 218.689L94.1425 218.698L94.1412 218.699L94.1295 218.709L94.118 218.719L94.112 218.724L94.1067 218.729L94.0995 218.735L94.0748 218.756C94.0407 218.784 94.0065 218.812 93.9737 218.842C93.9413 218.874 93.9081 218.908 93.8902 218.95C93.8684 219.001 93.8733 219.065 93.8788 219.118C93.8821 219.151 93.8874 219.184 93.8935 219.217C93.8984 219.244 93.9031 219.271 93.9118 219.297C93.923 219.331 93.9387 219.363 93.954 219.395L93.9627 219.413L94.3944 219.541L94.3808 219.541C94.4017 219.543 94.4015 219.543 94.4222 219.545C94.4421 219.549 94.442 219.549 94.4616 219.554C94.4918 219.562 94.5209 219.573 94.549 219.587C94.642 219.633 94.7158 219.704 94.7839 219.781L94.7946 219.793L94.8052 219.805L94.8155 219.817L94.8256 219.829L94.8341 219.84C94.8456 219.853 94.8569 219.867 94.8682 219.88L94.8865 219.902L94.9025 219.921L94.9124 219.933L94.9231 219.945L94.933 219.956L94.9423 219.966C94.9566 219.982 94.9711 219.997 94.9867 220.01C94.9913 220.014 94.9978 220.022 95.0039 220.023C95.0073 220.024 95.0106 220.025 95.0139 220.025ZM96.8916 213.492C97.0586 213.484 97.2277 213.48 97.3966 213.48C97.574 213.48 97.7506 213.484 97.9258 213.493L96.8916 213.492Z" fill="white"/>
</g>
<defs>
<clipPath id="clip0_1953_8991">
<rect width="152" height="244" rx="10" fill="white"/>
</clipPath>
</defs>
</svg>
