<svg width="192" height="192" viewBox="0 0 192 192" fill="none" xmlns="http://www.w3.org/2000/svg">
<g clip-path="url(#clip0_4886_46104)">
<path d="M96 192C149.019 192 192 149.019 192 96C192 42.9807 149.019 0 96 0C42.9807 0 0 42.9807 0 96C0 149.019 42.9807 192 96 192Z" fill="white"/>
<g clip-path="url(#clip1_4886_46104)">
<path d="M131.921 105.86C131.428 105.953 130.942 105.826 130.449 105.835C127.968 105.885 125.58 106.284 123.437 107.641C123.301 107.728 123.177 107.83 123.05 107.926C122.935 108.013 122.827 108.105 122.65 108.248C122.755 107.876 122.839 107.582 122.92 107.288C122.972 107.099 123.149 107.077 123.288 107.012C126.581 105.473 129.814 103.816 132.868 101.843C134.928 100.514 136.848 98.9869 138.719 97.4041C138.753 97.3763 138.778 97.3329 138.809 97.2957C138.66 97.1904 138.558 97.3019 138.453 97.3422C136.768 98.0236 135.027 98.5037 133.203 98.544C131.744 98.578 130.341 98.2931 129.173 97.3329C128.272 96.5926 127.934 95.6046 128.064 94.4555C128.349 91.9621 128.637 89.4687 128.925 86.9785C129.235 84.3024 129.545 81.6263 129.855 78.9471C129.901 78.5537 129.957 78.1603 129.982 77.767C130 77.4572 130.093 77.2528 130.443 77.2435C130.539 77.2435 130.632 77.1971 130.756 77.1661C127.216 76.4692 125.252 74.4032 125.221 70.7546C125.199 68.2612 126.711 66.3563 129.57 65.0926C128.563 65.1081 127.621 65.2227 126.686 65.3559C120.194 66.2603 114.123 68.4935 108.241 71.2904C100.984 74.744 94.2073 78.9904 87.7493 83.7634C87.6595 83.8285 87.5665 83.8966 87.4984 83.9833C87.0307 84.5656 86.4763 85.0519 85.8196 85.4917C86.0426 85.5661 86.2037 85.4577 86.371 85.4391C86.5537 85.4174 86.7334 85.3678 86.9161 85.3307C88.2913 85.0674 89.6758 84.9002 91.0758 84.8351C91.3484 84.8227 91.4382 84.8785 91.4011 85.1758C90.8559 89.4687 90.317 93.7617 89.7935 98.0546C89.7006 98.8134 89.5396 99.5692 89.6046 100.34C89.775 102.31 90.9488 103.617 92.9033 103.927C94.5232 104.184 95.9232 103.658 97.1373 102.595C97.221 102.524 97.2953 102.44 97.3758 102.366C97.382 102.36 97.4006 102.366 97.4316 102.363C97.4068 102.803 97.2519 103.205 97.0785 103.599C96.298 105.349 94.9382 106.541 93.2873 107.427C90.9643 108.672 88.4865 109.233 85.8506 108.979C84.6396 108.864 83.4904 108.511 82.4993 107.79C81.6134 107.142 81.2356 106.176 81.0033 105.141C80.8422 104.42 81.028 103.713 81.1086 103.004C81.409 100.365 81.7342 97.7263 82.0502 95.0873C82.363 92.4855 82.6727 89.8838 82.9856 87.282C83.0134 87.0373 83.1404 86.7276 83.0382 86.5634C82.9143 86.3621 82.586 86.5324 82.3475 86.5355C78.9095 86.5386 75.9918 84.0205 75.5024 80.6289C75.298 79.201 75.4528 77.8227 76.032 76.4971C75.9143 76.4041 75.8059 76.4661 75.7068 76.4909C72.4267 77.3055 69.255 78.4391 66.1391 79.7338C65.8665 79.8484 65.9347 79.9692 66.0214 80.1519C67.9913 84.2187 69.9674 88.2794 71.9219 92.3524C72.9161 94.4214 74.0064 96.4471 74.8705 98.5749C75.6975 100.61 76.0227 102.741 75.7006 104.934C75.3011 107.656 73.8763 109.756 71.671 111.342C69.4502 112.94 66.9909 113.913 64.2373 114.13C61.809 114.322 59.4148 114.244 57.0825 113.495C53.2201 112.25 50.7546 109.595 49.4382 105.813C49.1688 105.036 48.9612 104.243 48.8002 103.435C48.9581 103.419 48.955 103.543 48.9922 103.624C50.5378 107.055 53.2542 108.892 56.9183 109.45C58.7365 109.725 60.4957 109.549 62.1931 108.849C64.6369 107.842 65.978 105.965 66.5387 103.422C66.9042 101.753 66.5263 100.22 65.9657 98.6802C65.1108 96.3325 63.9524 94.1209 62.8993 91.863C61.8865 89.6948 60.855 87.5329 59.8298 85.3678C59.7772 85.2563 59.7183 85.1479 59.6533 85.0178C58.4205 85.944 57.2404 86.9227 56.1068 87.9572C53.7002 90.1502 51.532 92.5475 49.8904 95.3816C48.6949 97.4444 47.8617 99.6311 47.6325 102.028C47.3382 105.095 48.128 107.821 50.0918 110.212C52.0183 112.556 54.4838 114.13 57.2373 115.304C60.0404 116.499 62.9767 117.209 65.9781 117.67C68.7223 118.091 71.482 118.283 74.2573 118.311C76.7227 118.339 79.1758 118.156 81.6258 117.949C84.0913 117.741 86.5475 117.45 88.9944 117.091C91.9927 116.654 94.9723 116.121 97.9303 115.471C97.9643 115.465 98.0015 115.462 98.0913 115.452C97.9674 115.892 97.8466 116.307 97.7289 116.725C97.5276 117.425 97.3232 118.125 97.1311 118.825C97.0816 119.008 97.0073 119.117 96.8028 119.163C92.8258 120.074 88.8241 120.854 84.7758 121.39C80.6533 121.932 76.5214 122.344 72.3617 122.446C66.3869 122.592 60.4741 122.152 54.6851 120.575C52.1763 119.891 49.7325 119.021 47.4931 117.673C45.071 116.214 43.1537 114.272 42.1037 111.599C41.1528 109.177 41.2519 106.709 41.9643 104.249C42.8471 101.195 44.4608 98.5316 46.4369 96.0785C48.5369 93.4736 51.0488 91.2869 53.6011 89.1497C55.4223 87.6227 57.3241 86.201 59.3064 84.8909C59.4674 84.7825 59.5263 84.7081 59.4241 84.5161C59.2382 84.1692 59.071 83.8099 58.9192 83.4444C58.8263 83.2276 58.7365 83.2214 58.5413 83.3391C57.0856 84.2063 55.6701 85.1355 54.2825 86.1081C51.4019 88.1276 48.6236 90.2895 46.1365 92.7767C42.8842 96.032 40.3599 99.7643 39.1674 104.277C38.517 106.746 38.5015 109.214 39.3223 111.655C39.4028 111.89 39.3347 111.931 39.1117 111.971C35.178 112.646 31.2444 113.334 27.3108 114.018C27.286 114.021 27.2612 114.028 27.2365 114.031C26.9174 114.071 26.5705 114.155 26.3413 113.851C26.1183 113.557 26.2546 113.244 26.3847 112.94C31.6749 100.412 36.9745 87.886 42.24 75.3448C42.9927 73.5515 43.7453 71.7736 44.8232 70.1475C46.6568 67.3878 48.9365 65.1205 52.0028 63.7422C53.6568 62.9988 55.3975 62.6179 57.2064 62.5404C57.4077 62.5311 57.4882 62.5962 57.5688 62.7572C59.4674 66.6816 61.3692 70.5997 63.271 74.524C63.5993 75.2024 63.9245 75.8807 64.2621 76.5559C64.3055 76.6457 64.3148 76.8842 64.5254 76.6953C64.6648 76.6457 64.8073 76.6086 64.9435 76.5497C66.2537 75.9736 67.5887 75.4594 68.9391 74.9886C69.794 74.6913 70.6674 74.4435 71.5037 74.0935C71.6059 74.0811 71.7236 74.1431 71.798 74.0254H71.7887C71.9033 74.0501 72.0055 74.0037 72.1139 73.9727C75.4219 73.0466 78.7701 72.4024 82.2236 72.4055C85.7608 72.4055 88.8024 75.2581 89.0409 78.7953C89.0966 79.6254 89.0533 80.4431 88.8457 81.3382C89.9422 80.4617 91.0077 79.6842 92.0794 78.9161C93.7272 77.8134 95.3811 76.7201 97.1002 75.7258C98.1657 75.1094 99.2373 74.5055 100.306 73.8922L100.321 73.8705V73.8798C100.383 73.8736 100.445 73.8674 100.473 73.7993L100.467 73.8055C100.52 73.7776 100.572 73.7528 100.622 73.7249L100.616 73.7311C100.662 73.7218 100.715 73.7218 100.696 73.6506L100.687 73.6568C100.758 73.6692 100.826 73.6723 100.845 73.5763L100.836 73.5825C101.068 73.5422 101.263 73.4338 101.44 73.282L101.433 73.2882C101.498 73.2882 101.557 73.2758 101.588 73.2108H101.582C101.65 73.2201 101.706 73.2015 101.737 73.1364H101.731C101.833 73.1302 101.926 73.1024 101.96 72.9878L101.954 72.994C102.118 73.0249 102.232 72.9103 102.359 72.8453C105.382 71.2997 108.464 69.8842 111.602 68.5895C113.045 67.9948 114.501 67.4187 115.951 66.8364C116.787 66.5391 117.62 66.2386 118.456 65.9413C118.562 65.932 118.667 65.9258 118.754 65.8577H118.744C118.977 65.805 119.221 65.7895 119.423 65.6347L119.413 65.6409C119.717 65.6532 119.99 65.517 120.275 65.4395C123.527 64.5413 126.813 63.7979 130.158 63.3209C131.995 63.0608 133.841 62.8997 135.693 62.7882C136 62.7727 136.306 62.7572 136.613 62.7417C136.833 62.7479 137.056 62.7572 137.276 62.7572C139.023 62.7572 140.763 62.8471 142.498 63.0608C143.257 63.1909 144.016 63.324 144.778 63.4479C145.663 63.5935 146.512 63.894 147.389 64.0829C147.454 64.1046 147.516 64.1263 147.581 64.1479L147.571 64.1417C147.742 64.2192 147.912 64.2904 148.101 64.2966L148.092 64.2904C148.141 64.3988 148.237 64.3648 148.324 64.3709H148.315C148.364 64.4701 148.457 64.4515 148.547 64.4453L148.538 64.4391C148.553 64.5382 148.631 64.5103 148.693 64.5196L148.683 64.5134C149.256 64.755 149.829 64.9997 150.402 65.2413C152.459 66.2294 154.336 67.4683 155.928 69.1192C158.524 71.8046 159.502 75.001 158.963 78.6745C158.635 80.9201 157.752 82.9674 156.606 84.9063C154.423 88.6015 151.539 91.7019 148.318 94.4926C144.62 97.6953 140.627 100.511 136.495 103.128C134.993 104.079 133.444 104.955 131.917 105.869L131.921 105.86ZM133.72 76.6117C133.915 76.6024 134.045 76.6055 134.172 76.5869C135.461 76.4072 136.759 76.3763 138.056 76.3112C138.447 76.2926 138.471 76.4506 138.428 76.7572C138.344 77.3581 138.279 77.959 138.208 78.5599C137.92 80.9789 137.632 83.3948 137.347 85.8139C137.127 87.6785 136.901 89.5462 136.7 91.4108C136.585 92.4701 137.257 93.2692 138.32 93.3714C138.639 93.4024 138.961 93.3962 139.283 93.3435C140.872 93.0833 142.306 92.4422 143.632 91.544C145.329 90.3948 146.701 88.9484 147.714 87.1581C148.996 84.8878 149.959 82.5121 150.21 79.8917C150.319 78.7612 150.186 77.6555 149.966 76.5435C149.724 75.3232 149.393 74.1431 148.807 73.0435C147.494 70.5749 145.431 68.9148 142.969 67.7006C140.72 66.5917 138.326 65.9568 135.863 65.5541C135.043 65.4209 134.216 65.3311 133.392 65.2227C138.4 67.3878 138.49 74.2886 133.717 76.6117H133.72ZM44.2533 89.8311C45.9475 88.4776 47.6201 87.124 49.3298 85.817C51.8077 83.9276 54.3073 82.0723 57.0484 80.5732C57.3148 80.4276 57.321 80.3192 57.2064 80.0745C56.1873 77.9094 55.1807 75.7382 54.171 73.5701C53.8334 72.8484 53.8272 72.8422 53.1829 73.3471C51.8387 74.4032 50.9157 75.7785 50.1909 77.3024C48.8249 80.1767 47.4621 83.051 46.0993 85.9285C45.4829 87.2294 44.8665 88.5333 44.2533 89.8342V89.8311Z" fill="#0F4194"/>
<path d="M147.388 64.0675C146.512 63.8786 145.663 63.5781 144.777 63.4326C144.018 63.3087 143.256 63.1755 142.497 63.0454C142.364 62.8503 142.157 62.9618 141.986 62.9339C140.884 62.7574 139.772 62.6706 138.657 62.6582C137.669 62.6582 136.681 62.6582 135.689 62.6582C134.231 62.6675 132.781 62.7945 131.335 62.9618C128.333 63.3056 125.369 63.8476 122.461 64.6591C121.435 64.9441 120.401 65.2135 119.416 65.6224L119.425 65.6162C119.174 65.6224 118.955 65.7122 118.747 65.8423L118.756 65.8392C118.657 65.8702 118.539 65.8299 118.459 65.9228C117.623 66.2202 116.789 66.5206 115.953 66.818C115.823 66.7715 115.712 66.8458 115.6 66.8861C111.329 68.4286 107.166 70.2189 103.133 72.3065C102.734 72.514 102.297 72.6596 101.959 72.9724L101.966 72.9662C101.854 72.9662 101.752 72.9755 101.736 73.1211L101.743 73.118C101.665 73.0932 101.591 73.0746 101.588 73.1954L101.594 73.1923C101.513 73.1613 101.448 73.1613 101.439 73.2697L101.445 73.2635C101.204 73.279 101.018 73.4122 100.841 73.564L100.851 73.5578C100.785 73.5609 100.724 73.5671 100.693 73.6383L100.702 73.6321C100.659 73.6414 100.603 73.6383 100.621 73.7127L100.628 73.7065C100.559 73.7034 100.488 73.6879 100.473 73.787L100.479 73.7808C100.411 73.7808 100.343 73.7715 100.324 73.8613V73.852L100.309 73.8737C99.2399 74.4839 98.1682 75.091 97.1028 75.7073C95.3837 76.6985 93.7297 77.795 92.082 78.8976C92.0572 78.6653 92.0386 78.4299 92.0107 78.1976C91.6174 74.9733 89.7063 72.8144 86.5501 71.9998C84.0691 71.3587 81.5789 71.4888 79.0855 71.8914C76.778 72.2631 74.5448 72.9104 72.3581 73.7281C72.1629 73.8025 71.9306 73.8149 71.7943 74.0131L71.8036 74.01C71.6952 73.9852 71.5868 73.9728 71.5094 74.0781C70.6731 74.4281 69.7997 74.6759 68.9448 74.9733C67.5944 75.4441 66.2594 75.9582 64.9492 76.5343C64.816 76.5932 64.6705 76.6335 64.5311 76.6799C64.3855 76.4972 64.5125 76.4445 64.6612 76.3733C66.1417 75.6702 67.6377 75.0012 69.1492 74.3693C76.6076 71.2596 84.3231 68.9799 92.1873 67.1618C95.9258 66.2976 99.6828 65.545 103.462 64.8883C106.609 64.3401 109.768 63.86 112.936 63.445C115.64 63.0888 118.351 62.7604 121.064 62.4848C123.793 62.206 126.521 61.9489 129.262 61.8003C132.093 61.6454 134.928 61.6299 137.759 61.7043C140.624 61.7786 143.482 62.0047 146.32 62.4321C149.779 62.9494 153.177 63.7113 156.408 65.0989C158.65 66.0622 160.719 67.2888 162.426 69.0635C164.135 70.8414 165.185 72.9445 165.557 75.3883C165.994 78.2812 165.343 80.9728 164.089 83.5591C162.711 86.4056 160.762 88.8339 158.557 91.0764C155.045 94.6507 151.024 97.5746 146.769 100.186C142.832 102.605 138.722 104.692 134.491 106.554C134.265 106.653 134.094 106.656 133.878 106.541C133.376 106.272 132.831 106.111 132.27 106.012C132.177 105.996 132.062 106.012 132.05 105.866C132.877 105.572 133.658 105.179 134.438 104.788C138.725 102.633 142.807 100.142 146.626 97.2339C150.061 94.6166 153.236 91.7268 155.887 88.2981C157.572 86.1206 158.997 83.7945 159.87 81.1649C160.484 79.3127 160.762 77.4171 160.471 75.475C160.069 72.8113 158.693 70.6989 156.655 68.9923C155.327 67.8804 153.824 67.0162 152.359 66.1025C151.765 65.7308 151.139 65.4087 150.473 65.1733C149.897 64.8945 149.321 64.6127 148.68 64.5074L148.689 64.5135C148.683 64.3989 148.59 64.4485 148.534 64.433L148.543 64.4392C148.494 64.337 148.395 64.3742 148.311 64.3587L148.32 64.3618C148.268 64.2658 148.169 64.2967 148.088 64.2812L148.097 64.2874C147.936 64.179 147.754 64.1574 147.568 64.1326L147.577 64.1388C147.54 64.0397 147.447 64.0985 147.385 64.0737L147.388 64.0675Z" fill="#01A3B4"/>
<path d="M109.964 82.7355C110.943 81.7784 111.912 80.939 112.981 80.2204C114.322 79.316 115.734 78.5695 117.357 78.3032C119.556 77.9439 121.34 78.6996 122.787 80.335C123.32 80.939 123.744 81.6173 124.103 82.3731C123.23 82.4319 122.384 82.4691 121.542 82.5465C118.609 82.8129 115.737 83.3395 113.083 84.6961C112.182 85.1576 111.289 85.6377 110.62 86.443C109.874 87.3443 109.431 88.3819 109.267 89.5218C108.966 91.6001 108.694 93.6846 108.428 95.7691C108.031 98.8664 110.503 100.096 112.73 99.6656C114.024 99.4147 115.158 98.8448 116.134 97.962C116.177 97.9249 116.224 97.8908 116.31 97.8226C116.069 99.1886 115.409 100.273 114.495 101.211C112.919 102.828 110.943 103.729 108.802 104.305C106.873 104.826 104.924 104.94 102.979 104.386C100.619 103.714 99.5382 101.862 99.7921 99.424C100.071 96.7324 100.399 94.047 100.709 91.3585C101.043 88.4625 101.381 85.5664 101.719 82.6673C101.774 82.1872 101.836 81.7103 101.88 81.2302C101.895 81.0443 101.957 80.9576 102.146 80.9018C104.401 80.2421 106.693 79.8333 109.044 79.7868C109.341 79.7806 109.639 79.7806 109.933 79.7558C110.193 79.7341 110.243 79.8364 110.215 80.0749C110.122 80.8864 110.047 81.6979 109.967 82.5094C109.961 82.5558 109.967 82.6054 109.967 82.7355H109.964Z" fill="#0F4194"/>
<path d="M132.9 121.545C131.617 121.489 130.4 121.697 129.226 121.433C128.551 121.282 127.987 121.393 127.355 121.554C125.745 121.963 124.106 122.171 122.437 121.979C121.991 121.926 121.567 121.79 121.189 121.545C120.997 121.421 120.851 121.43 120.653 121.523C119.609 122.01 118.537 122.403 117.363 122.446C115.641 122.511 114.334 121.362 114.127 119.649C113.978 118.404 114.186 117.209 114.545 116.038C115.542 112.776 116.447 109.49 117.398 106.216C117.834 104.717 118.324 103.23 118.63 101.694C118.711 101.291 118.714 100.883 118.643 100.477C118.618 100.334 118.618 100.269 118.779 100.269C119.668 100.263 120.557 100.257 121.415 100.57C122.598 101.003 123.143 101.945 122.954 103.184C122.778 104.349 122.375 105.451 122.053 106.572C120.894 110.58 119.717 114.585 118.553 118.593C118.206 119.783 118.652 120.594 119.838 120.963C120.049 121.028 120.263 121.096 120.501 121.083C120.492 120.901 120.34 120.808 120.266 120.678C119.82 119.879 119.851 119.039 120.049 118.194C120.64 115.654 122.27 113.994 124.571 112.913C126.228 112.135 127.987 111.736 129.793 111.506C130.335 111.438 130.388 111.389 130.409 110.831C130.444 109.976 130.05 109.366 129.35 108.926C128.79 108.576 128.164 108.387 127.523 108.254C127.272 108.202 127.16 108.233 127.278 108.549C127.517 109.193 127.259 109.775 126.9 110.289C126.178 111.318 125.215 112.008 123.945 112.219C123.642 112.268 123.351 112.241 123.066 112.157C122.452 111.971 122.158 111.361 122.344 110.655C122.586 109.738 123.193 109.087 123.942 108.542C125.029 107.752 126.299 107.443 127.578 107.161C129.115 106.82 130.667 106.743 132.212 107.059C133.634 107.35 134.743 108.041 135.068 109.586C135.254 110.478 135.139 111.358 134.894 112.222C134.191 114.697 133.479 117.168 132.763 119.64C132.581 120.272 132.475 120.891 132.897 121.551L132.9 121.545ZM129.747 116.908C129.771 116.583 129.722 116.267 129.666 115.951C129.521 115.099 129.239 114.303 128.601 113.684C127.761 112.869 126.699 112.931 125.962 113.839C125.395 114.536 125.172 115.36 125.107 116.233C125.001 117.58 125.274 118.807 126.271 119.795C127.126 120.644 128.186 120.569 128.904 119.606C129.502 118.804 129.734 117.887 129.75 116.905L129.747 116.908Z" fill="#01A3B4"/>
<path d="M100.708 108.313C101.836 108.273 102.907 108.292 103.898 108.806C104.05 108.886 104.18 108.827 104.323 108.781C106.218 108.183 108.145 107.799 110.146 107.864C111.437 107.907 112.636 108.205 113.636 109.081C114.485 109.825 114.897 110.779 114.956 111.881C115.074 114.099 114.253 116.01 112.946 117.742C111.103 120.182 108.749 121.898 105.791 122.741C104.552 123.094 103.294 123.227 102.031 122.877C101.786 122.809 101.733 122.933 101.684 123.115C101.036 125.401 100.38 127.684 99.7479 129.973C99.6488 130.335 99.5342 130.459 99.1253 130.397C98.001 130.227 97.3722 129.499 96.9355 128.554C96.2851 127.151 96.2355 125.699 96.6568 124.221C97.9917 119.557 99.3236 114.895 100.652 110.23C100.829 109.611 100.962 108.982 100.711 108.313H100.708ZM103.517 115.276C103.505 115.66 103.536 116.041 103.595 116.422C103.799 117.757 104.242 118.977 105.286 119.91C106.206 120.734 107.392 120.808 108.331 120.077C108.743 119.755 109.093 119.368 109.316 118.888C110.205 116.98 110.232 115.031 109.557 113.061C109.216 112.07 108.64 111.249 107.637 110.834C106.231 110.252 104.79 110.577 104.115 112.176C103.694 113.17 103.539 114.211 103.52 115.276H103.517Z" fill="#01A3B4"/>
<path d="M135.678 120.972C137.025 121.04 138.37 121.05 139.652 120.551C140.696 120.145 141.362 119.417 141.526 118.274C141.612 117.673 141.439 117.181 140.971 116.791C140.482 116.382 139.9 116.14 139.327 115.88C138.54 115.524 137.759 115.155 137.022 114.703C135.526 113.783 135.055 112.417 135.672 110.763C136.273 109.15 137.419 108.031 138.924 107.273C141.368 106.043 143.923 105.752 146.581 106.442C146.955 106.539 147.296 106.712 147.615 106.929C148.866 107.787 148.907 109.301 147.665 110.169C146.72 110.828 145.636 111.008 144.515 110.763C143.375 110.516 143.05 109.453 143.796 108.555C144.01 108.298 144.276 108.1 144.611 107.895C143.381 107.409 142.179 107.124 140.916 107.527C140.219 107.75 139.686 108.202 139.327 108.843C139.02 109.388 139.085 109.912 139.457 110.398C139.949 111.036 140.631 111.408 141.358 111.702C142.443 112.142 143.533 112.569 144.499 113.25C145.716 114.108 146.373 115.227 146.166 116.757C146.045 117.642 145.707 118.445 145.165 119.154C144.121 120.517 142.672 121.211 141.052 121.598C139.451 121.982 137.824 122 136.189 121.904C135.412 121.858 134.64 121.815 133.881 121.616C132.887 121.359 132.859 120.619 133.333 120.018C134.012 119.163 134.941 118.764 136.047 118.922C136.774 119.027 137.004 119.64 136.573 120.241C136.344 120.56 136.028 120.774 135.684 120.972H135.678Z" fill="#01A3B4"/>
<path d="M154.18 120.303C152.712 121.034 151.241 121.771 149.525 121.539C148.141 121.353 147.174 120.315 146.973 118.903C146.79 117.624 147.032 116.394 147.372 115.177C148.203 112.213 149.048 109.255 149.872 106.287C150.262 104.875 150.699 103.478 151.015 102.044C151.102 101.654 151.114 101.26 151.015 100.87C150.984 100.746 150.962 100.656 151.142 100.653C152.059 100.638 152.976 100.644 153.843 100.994C154.995 101.459 155.522 102.447 155.265 103.686C155.107 104.445 154.905 105.197 154.713 105.95C154.651 106.198 154.667 106.281 154.98 106.256C156.138 106.176 157.299 106.139 158.461 106.086C158.613 106.08 158.777 106.068 158.845 106.235C158.916 106.405 158.811 106.545 158.696 106.662C158.572 106.786 158.408 106.848 158.247 106.91C156.909 107.446 155.574 107.991 154.233 108.518C154.026 108.598 153.926 108.71 153.868 108.926C153.034 111.891 152.186 114.849 151.349 117.81C151.049 118.872 151.501 119.69 152.542 120.058C153.072 120.247 153.62 120.281 154.177 120.303H154.18Z" fill="#01A3B4"/>
<path d="M119.412 65.6194C120.4 65.2106 121.432 64.9411 122.457 64.6562C125.369 63.8447 128.333 63.3026 131.331 62.9588C132.777 62.7947 134.227 62.6677 135.686 62.6553C135.686 62.6924 135.686 62.7327 135.686 62.7699C133.834 62.8783 131.991 63.0393 130.151 63.3026C126.806 63.7796 123.523 64.523 120.267 65.4212C119.985 65.4986 119.713 65.6318 119.406 65.6225L119.412 65.6194Z" fill="#DFE8F2"/>
<path d="M101.956 72.9727C102.297 72.6599 102.734 72.5143 103.13 72.3068C107.163 70.2161 111.326 68.4258 115.597 66.8864C115.708 66.8462 115.82 66.7687 115.95 66.8183C114.5 67.4006 113.048 67.9767 111.601 68.5714C108.464 69.8661 105.382 71.2816 102.359 72.8271C102.232 72.8922 102.117 73.0068 101.953 72.9758L101.956 72.9727Z" fill="#DFE8F2"/>
<path d="M138.654 62.6616C139.772 62.674 140.881 62.7607 141.983 62.9373C142.154 62.9652 142.361 62.8537 142.494 63.0488C140.76 62.8351 139.019 62.7422 137.272 62.7452C137.052 62.7452 136.829 62.736 136.609 62.7298C136.792 62.7236 136.975 62.7236 137.161 62.7112C137.659 62.6833 138.161 62.7731 138.657 62.6616H138.654Z" fill="#DFE8F2"/>
<path d="M138.655 62.6616C138.159 62.7731 137.657 62.6833 137.159 62.7112C136.976 62.7205 136.793 62.7236 136.607 62.7298C136.301 62.7452 135.994 62.7607 135.688 62.7762C135.688 62.7391 135.688 62.6988 135.688 62.6616C136.676 62.6616 137.664 62.6616 138.655 62.6616Z" fill="#FEFEFE"/>
<path d="M150.477 65.1703C150.452 65.192 150.427 65.2137 150.403 65.2323C149.83 64.9907 149.257 64.746 148.684 64.5044C149.325 64.6097 149.901 64.8916 150.477 65.1703Z" fill="#DFE8F2"/>
<path d="M100.842 73.567C101.015 73.4122 101.201 73.2821 101.446 73.2666C101.272 73.4215 101.074 73.5268 100.842 73.567Z" fill="#DFE8F2"/>
<path d="M118.744 65.8423C118.952 65.7122 119.172 65.6224 119.422 65.6162C119.224 65.7711 118.976 65.7866 118.744 65.8423Z" fill="#DFE8F2"/>
<path d="M147.568 64.1294C147.754 64.1542 147.937 64.1728 148.098 64.2843C147.909 64.2812 147.739 64.2068 147.568 64.1294Z" fill="#DFE8F2"/>
<path d="M118.455 65.9201C118.536 65.8302 118.653 65.8674 118.752 65.8364C118.666 65.9046 118.56 65.9108 118.455 65.9201Z" fill="#DFE8F2"/>
<path d="M101.736 73.1212C101.752 72.9787 101.854 72.9663 101.966 72.9663C101.931 73.0809 101.839 73.1088 101.736 73.1212Z" fill="#DFE8F2"/>
<path d="M71.5098 74.075C71.5872 73.9697 71.6956 73.9821 71.804 74.0068C71.7297 74.1276 71.6089 74.0626 71.5098 74.075Z" fill="#F9FBFC"/>
<path d="M147.389 64.0674C147.451 64.0922 147.544 64.0333 147.581 64.1324C147.516 64.1107 147.454 64.0891 147.389 64.0674Z" fill="#DFE8F2"/>
<path d="M148.092 64.2783C148.172 64.2938 148.268 64.2628 148.324 64.3589C148.24 64.3558 148.141 64.3867 148.092 64.2783Z" fill="#DFE8F2"/>
<path d="M148.314 64.3525C148.395 64.368 148.494 64.3278 148.547 64.4331C148.46 64.4362 148.367 64.4578 148.314 64.3525Z" fill="#DFE8F2"/>
<path d="M101.436 73.2701C101.445 73.1617 101.51 73.1617 101.59 73.1926C101.559 73.2577 101.501 73.2732 101.436 73.2701Z" fill="#DFE8F2"/>
<path d="M100.324 73.8647C100.343 73.7749 100.411 73.7811 100.479 73.7842C100.448 73.8523 100.386 73.8616 100.324 73.8647Z" fill="#DFE8F2"/>
<path d="M100.471 73.7869C100.486 73.6908 100.561 73.7032 100.626 73.7063C100.573 73.7342 100.52 73.759 100.471 73.7869Z" fill="#DFE8F2"/>
<path d="M100.693 73.6416C100.724 73.5703 100.786 73.5641 100.851 73.561C100.833 73.654 100.768 73.654 100.693 73.6416Z" fill="#DFE8F2"/>
<path d="M148.535 64.4268C148.594 64.4422 148.684 64.3927 148.69 64.5073C148.628 64.5011 148.548 64.5259 148.535 64.4268Z" fill="#DFE8F2"/>
<path d="M101.584 73.1957C101.584 73.0718 101.661 73.0935 101.739 73.1183C101.708 73.1833 101.652 73.2019 101.584 73.1957Z" fill="#DFE8F2"/>
<path d="M100.621 73.7158C100.602 73.6445 100.658 73.6445 100.701 73.6353C100.717 73.7065 100.664 73.7065 100.621 73.7158Z" fill="#DFE8F2"/>
</g>
</g>
<defs>
<clipPath id="clip0_4886_46104">
<rect width="192" height="192" fill="white"/>
</clipPath>
<clipPath id="clip1_4886_46104">
<rect width="140" height="69.0708" fill="white" transform="translate(26 61.4648)"/>
</clipPath>
</defs>
</svg>
