<svg width="192" height="192" viewBox="0 0 192 192" fill="none" xmlns="http://www.w3.org/2000/svg">
<g clip-path="url(#clip0_5165_47522)">
<path d="M96 192C149.019 192 192 149.019 192 96C192 42.9807 149.019 0 96 0C42.9807 0 0 42.9807 0 96C0 149.019 42.9807 192 96 192Z" fill="#ED1C24"/>
<path d="M127.371 62.1855L119.459 64.9707V72.1292L127.206 68.9087L127.371 62.1855Z" fill="white"/>
<path d="M175.216 86.4657C175.216 86.4657 171.459 84.0634 169.569 82.8905C165.268 80.2585 161.133 77.2194 156.308 75.587C153.418 74.5833 150.097 74.011 147.195 75.2847C145.86 75.982 144.385 77.0783 144.434 78.7631V88.3198H152.394V81.6813C152.394 81.6813 156.771 83.2009 160.153 85.454C163.019 87.03 166.264 89.5854 166.264 89.5854H139.887V67.4007L131.922 62.2012C131.922 62.2012 131.938 82.6648 131.906 92.8946C131.955 94.1643 131.943 95.6193 132.853 96.6189C133.579 97.4492 134.768 97.3888 135.772 97.421C147.61 97.3727 159.448 97.4291 171.286 97.3968C172.898 97.4331 175.006 96.7076 175.151 94.8374C175.337 92.0482 175.216 86.4657 175.216 86.4657Z" fill="white"/>
<path d="M127.378 70.7498L119.438 73.9824L119.413 89.5085L114.294 89.5004L114.25 66.6265L106.036 69.5608L105.967 89.581H87.7083V83.5673L94.254 81.024V88.2993L102.174 88.2872C102.174 88.2872 102.215 81.6568 102.13 78.3436C102.082 76.3524 100.893 73.9864 98.6837 73.8252C95.8663 73.6398 93.1456 74.6031 90.4854 75.3931C87.8372 76.3323 85.04 77.1586 82.8594 79.0086C81.5212 80.113 80.5297 81.7334 80.5458 83.5068C80.4813 86.3404 80.574 89.1739 80.5176 92.0075C80.5498 93.3134 80.4249 94.7161 81.0617 95.9092C81.7469 97.1506 83.2101 97.4207 84.52 97.4207H122.074C123.557 97.4287 125.23 97.4045 126.334 96.284C127.491 95.1917 127.346 93.4585 127.398 92.0075C127.33 84.9256 127.382 70.7498 127.382 70.7498H127.378Z" fill="white"/>
<path d="M94.2881 98.9409L94.2719 103.496L83.4899 103.512L80.8418 110.993C80.8418 110.993 91.6883 110.98 97.1095 111.049C98.3711 111.017 99.7899 111.162 100.85 110.336C101.866 109.554 102.176 108.207 102.188 106.99C102.228 104.314 102.204 98.9691 102.204 98.9691L94.2881 98.9409Z" fill="white"/>
<path d="M144.434 107.534L152.394 102.891V98.9448H144.434V107.534Z" fill="white"/>
<path d="M105.979 107.534L113.943 102.891V98.9448H105.979V107.534Z" fill="white"/>
<path d="M56.9188 62.9268H30.7316C22.1835 62.9268 15.2539 69.8564 15.2539 78.4045V113.713C15.2539 122.261 22.1835 129.191 30.7316 129.191H56.9188C65.4669 129.191 72.3965 122.261 72.3965 113.713V78.4045C72.3965 69.8564 65.4669 62.9268 56.9188 62.9268Z" fill="#ED1C24" stroke="white" stroke-width="7.6" stroke-miterlimit="10"/>
<path d="M25.1591 74.1762C23.4985 76.3326 22.9785 79.142 22.9785 81.8103C22.9987 91.5121 22.9866 101.214 22.9785 110.916C22.9785 113.802 23.9217 116.78 25.9612 118.884C27.8234 120.779 30.532 121.621 33.1438 121.629C39.9194 121.629 46.6949 121.617 53.4704 121.629C56.1951 121.661 58.9521 120.658 60.9271 118.771C62.9223 116.696 63.7526 113.753 63.7768 110.932C63.7929 107.905 63.7647 101.964 63.7647 101.964H50.8787V109.505H36.2112V82.6769H50.8787V87.7716H48.0653C48.0653 87.7716 54.7119 94.7446 56.0621 95.6596C56.965 96.3005 58.2467 96.1917 59.0811 95.4823C61.2052 93.7974 66.699 87.7716 66.699 87.7716H63.7607V82.8139C63.7607 80.2061 63.5511 77.2315 62.4991 75.4338C60.8949 72.4229 57.6018 70.4761 54.1919 70.4922C47.1826 70.4841 40.1652 70.5043 33.1519 70.4841C30.1208 70.4479 27.0213 71.7417 25.151 74.1722L25.1591 74.1762Z" fill="white"/>
</g>
<defs>
<clipPath id="clip0_5165_47522">
<rect width="192" height="192" fill="white"/>
</clipPath>
</defs>
</svg>
