<svg width="192" height="192" viewBox="0 0 192 192" fill="none" xmlns="http://www.w3.org/2000/svg">
<g clip-path="url(#clip0_4886_46158)">
<path d="M96 192C149.019 192 192 149.019 192 96C192 42.9807 149.019 0 96 0C42.9807 0 0 42.9807 0 96C0 149.019 42.9807 192 96 192Z" fill="white"/>
<path d="M70.4269 85.5228C68.7421 89.0502 69.7888 92.7784 69.71 96.399C69.5164 105.175 69.6383 105.182 78.3493 105.182C91.9571 105.182 105.565 105.124 119.173 105.232C121.668 105.253 122.42 104.529 122.406 102.02C122.306 86.5194 122.37 71.0188 122.342 55.5182C122.342 54.45 122.865 53.1021 121.08 52.6361C119.409 52.1987 118.986 50.4565 119.23 49.2521C119.438 48.2411 121.094 48.9294 122.098 48.7645C125.217 48.2627 126.328 49.2664 126.292 52.7078C126.091 70.352 126.134 88.0034 126.271 105.648C126.292 108.494 125.503 109.218 122.693 109.197C104.905 109.068 87.1176 109.075 69.33 109.197C66.5769 109.211 65.6879 108.58 65.7094 105.662C65.8528 87.8959 65.8312 70.1298 65.7309 52.3636C65.7165 49.7109 66.161 48.6283 69.1866 48.6857C79.5681 48.8936 89.9568 48.743 100.338 48.7932C101.571 48.7932 103.328 48.0476 103.4 50.5497C103.471 53.1451 101.751 52.6576 100.274 52.6576C91.0824 52.6719 81.891 52.6648 72.6997 52.6648C71.1511 52.6648 69.5953 52.3493 69.6168 54.8586C69.71 64.516 69.6598 74.1734 69.6598 83.8308C69.6598 84.4473 69.8175 85.0066 70.3839 85.3651L70.4198 85.5156L70.4269 85.5228Z" fill="#3F924C"/>
<path d="M70.4265 85.5228L70.3906 85.3722C78.9009 78.6544 86.8232 78.64 94.9678 85.5945C98.0364 88.2186 100.797 91.2226 103.607 94.1406C105.916 96.5352 108.361 98.7578 111.587 100.608C108.016 102.543 104.654 102.529 101.234 101.819C96.1365 100.758 91.5695 98.4423 87.2032 95.7107C81.6612 92.2335 76.3198 88.4265 70.4265 85.5228Z" fill="#B52024"/>
<path d="M81.9922 59.0673C91.3628 57.067 98.518 60.4439 102.497 68.6028C104.125 71.9367 105.078 75.4999 105.946 79.0847C107.007 83.4653 107.96 87.8746 110.369 92.0903C106.842 92.4344 104.34 90.8858 102.002 89.1149C97.7508 85.8815 94.84 81.5295 92.2231 76.9625C88.8104 71.0261 86.2581 64.6094 81.9994 59.0673H81.9922Z" fill="#3F924C"/>
<path d="M113.283 84.5548C108.888 81.2209 107.311 77.0698 106.4 72.5601C104.443 62.8526 106.457 53.059 105.891 43.3084C105.776 41.3798 107.475 42.3978 108.422 42.8567C115.857 46.4558 119.492 53.3529 118.094 61.7413C117.448 65.6057 116.366 69.4055 115.355 73.1982C114.401 76.7543 113.405 80.2817 113.29 84.5476L113.283 84.5548Z" fill="#3F924C"/>
<path d="M72.1083 135.241C72.1083 139.488 72.1272 143.735 72.0857 147.981C72.0819 148.521 72.6213 149.441 71.3352 149.467C70.0189 149.494 70.3885 148.562 70.3848 147.902C70.3621 143.384 70.332 138.866 70.4112 134.347C70.4262 133.548 69.7323 132.36 71.0523 131.938C72.361 131.519 72.9117 132.503 73.4925 133.446C76.1589 137.764 78.8593 142.06 81.6012 146.454C82.2084 145.888 81.9255 145.24 81.9255 144.685C81.9104 140.921 81.8463 137.157 81.835 133.393C81.835 132.797 81.4692 131.922 82.6609 131.9C83.947 131.873 83.6189 132.801 83.6227 133.48C83.6415 138.247 83.6491 143.018 83.6076 147.785C83.6038 148.351 84.1054 149.279 82.9778 149.433C82.0839 149.554 81.3447 149.441 80.779 148.491C78.5877 144.836 76.3022 141.238 74.0506 137.621C73.5264 136.784 72.9909 135.95 72.4591 135.117C72.3459 135.158 72.229 135.2 72.1159 135.238L72.1083 135.241Z" fill="#B52024"/>
<path d="M122.191 140.664C122.172 145.828 118.25 149.829 113.211 149.825C108.142 149.818 104.261 145.813 104.295 140.627C104.329 135.516 108.402 131.439 113.369 131.545C118.363 131.647 122.21 135.622 122.191 140.664ZM113.354 147.985C117.216 147.974 120.309 144.738 120.343 140.664C120.377 136.768 117.099 133.359 113.29 133.329C109.504 133.299 106.271 136.659 106.256 140.642C106.241 144.858 109.27 147.992 113.354 147.985Z" fill="#3F924C"/>
<path d="M141.47 140.548C141.482 145.839 137.574 149.848 132.423 149.822C127.414 149.799 123.477 145.703 123.522 140.555C123.567 135.63 127.663 131.526 132.532 131.538C137.495 131.549 141.455 135.543 141.47 140.544V140.548ZM139.566 140.638C139.573 136.656 136.401 133.359 132.532 133.329C128.783 133.295 125.491 136.735 125.494 140.672C125.498 144.768 128.534 147.955 132.464 147.985C136.5 148.015 139.558 144.851 139.566 140.638Z" fill="#3F924C"/>
<path d="M53.2586 136.456C51.9952 136.81 51.1956 136.44 50.3546 135.554C47.6391 132.692 43.3773 132.68 40.6203 135.403C37.6748 138.311 37.6635 143.116 40.5939 146.039C43.2943 148.732 47.6579 148.736 50.3546 145.892C51.1805 145.021 51.9687 144.855 53.0021 145.047C52.0253 148.151 48.333 150.18 44.4145 149.769C39.9943 149.301 36.7998 145.862 36.4491 141.189C36.1398 137.07 38.942 133.046 42.9172 131.911C47.096 130.719 51.3238 132.529 53.2548 136.459L53.2586 136.456Z" fill="#B52024"/>
<path d="M102.511 145.092C100.776 148.777 96.8686 150.531 92.7124 149.546C88.5072 148.551 85.6861 144.809 85.8294 140.412C85.9614 136.267 89.0691 132.469 92.9047 131.756C97.1703 130.964 101.078 132.835 102.571 136.41C101.315 136.976 100.534 136.335 99.6897 135.479C97.1929 132.948 93.3573 132.722 90.6305 134.853C87.7416 137.112 86.9609 141.306 88.8278 144.515C90.5966 147.555 94.2361 148.826 97.4607 147.517C98.2829 147.185 99.0824 146.74 99.6142 146.046C100.357 145.081 101.228 144.73 102.511 145.088V145.092Z" fill="#3F924C"/>
<path d="M53.5684 149.248C55.7106 143.765 57.8452 138.36 59.9158 132.933C60.2213 132.137 60.6286 131.873 61.4281 131.892C62.1259 131.907 62.5445 132.069 62.8236 132.809C64.913 138.292 67.0552 143.757 69.1861 149.248C67.8397 149.754 67.2023 149.396 66.7271 148.098C65.226 143.995 65.1695 144.017 61.1377 144.017C58.7516 144.017 57.1173 145.168 56.2348 147.468C55.7973 148.611 55.5974 150.056 53.5684 149.252V149.248ZM61.3489 133.887C60.3684 136.493 59.4896 138.82 58.6108 141.147C58.3582 141.822 58.2601 142.332 59.3048 142.294C60.9756 142.237 62.6501 142.279 64.5283 142.279C63.4572 139.454 62.454 136.803 61.3489 133.887Z" fill="#B52024"/>
<path d="M145.563 141.423C148.139 138.326 150.337 135.679 152.54 133.035C153.196 132.248 154.208 131.93 155.576 132.081C153.562 134.494 151.737 136.84 149.734 139.028C148.757 140.095 148.825 140.778 149.7 141.841C151.676 144.244 153.509 146.759 155.444 149.286C153.924 149.754 153.03 149.305 152.257 148.158C151.171 146.552 149.941 145.039 148.716 143.531C148.29 143.01 147.973 141.845 147.215 142.26C146.434 142.69 145.608 143.504 145.578 144.628C145.544 145.82 145.567 147.012 145.567 148.204C145.567 148.83 145.668 149.444 144.676 149.475C143.722 149.505 143.711 148.996 143.711 148.305C143.722 143.225 143.726 138.149 143.711 133.069C143.711 132.363 143.764 131.85 144.692 131.888C145.668 131.926 145.567 132.571 145.567 133.197C145.567 135.75 145.567 138.303 145.567 141.423H145.563Z" fill="#3F924C"/>
</g>
<defs>
<clipPath id="clip0_4886_46158">
<rect width="192" height="192" fill="white"/>
</clipPath>
</defs>
</svg>
