<svg width="192" height="192" viewBox="0 0 192 192" fill="none" xmlns="http://www.w3.org/2000/svg">
<g clip-path="url(#clip0_5165_48143)">
<path d="M96 192C149.019 192 192 149.019 192 96C192 42.9807 149.019 0 96 0C42.9807 0 0 42.9807 0 96C0 149.019 42.9807 192 96 192Z" fill="white"/>
<path d="M52.0452 100.681C55.3691 100.69 58.7104 100.454 61.9993 100.76C65.6819 101.11 67.0377 99.8153 66.1805 96.2552C66.4079 94.0422 64.4048 94.3746 63.2502 93.736C61.5357 93.8498 59.6114 93.7098 58.3693 94.9869C56.4449 96.955 55.3603 95.8091 53.8645 94.4621C51.7565 92.5552 54.0045 91.7854 54.7218 90.7358C55.3341 89.8348 56.3487 89.205 57.1884 88.4615C59.6376 86.7384 61.9906 84.9277 63.2939 82.1111C64.1949 81.0178 65.0958 79.9156 65.988 78.8223C67.9299 78.8747 70.1604 77.3527 71.6386 79.8806C70.0029 81.5951 68.3672 83.3183 66.7315 85.0327C65.8306 85.8112 64.676 86.3622 64.3611 87.6656C63.9762 90.5608 67.1076 90.3422 68.3935 91.663C71.385 94.7245 72.076 97.8472 71.385 101.687C69.9417 102.763 71.4987 104.565 70.3878 105.72C64.5885 105.772 58.6142 106.708 53.0598 105.588C48.6425 104.696 44.8201 105.37 40.6127 105.693C32.5479 106.323 24.3868 105.842 16.2695 105.825C16.2695 104.093 16.2695 102.361 16.2695 100.62C23.7396 100.629 31.2183 100.471 38.6796 100.716C42.8694 100.847 45.03 99.6054 44.4527 95.1443C44.3914 94.6545 44.8113 94.1034 45.0125 93.5874C45.9484 92.9663 46.377 92.0391 46.6132 90.9982C48.3976 89.5287 50.0596 88.4353 49.8759 92.2053C49.7884 93.8498 49.6397 95.4942 49.5085 97.1474C49.0799 99.2205 49.6659 100.585 52.0452 100.681Z" fill="#E20613"/>
<path d="M71.2516 113.627C70.4819 111.134 69.5109 108.667 73.3684 107.688C74.9079 107.294 74.7767 105.728 74.7767 104.416C74.7592 101.547 74.8029 98.678 74.7505 95.809C74.7242 94.322 75.0129 92.9574 75.9313 91.7678C76.841 90.5957 78.0393 89.4149 79.5089 89.9047C80.8209 90.3333 80.1649 91.9428 80.0949 92.9575C79.7363 97.8908 81.1708 102.929 79.2027 107.758C77.8819 108.116 77.9344 109.306 77.6545 110.294C76.771 112.332 74.5055 112.455 73.001 113.627C72.415 113.627 71.8377 113.627 71.2516 113.627Z" fill="#E20915"/>
<path d="M163.72 91.1119C165.006 88.8289 170.175 88.8376 172.476 91.3218C173.849 92.8001 174.838 94.6282 176.001 96.2989C176.001 97.4535 176.001 98.6082 176.001 99.7628C175.048 100.917 174.094 102.072 173.149 103.235C169.799 105.282 166.082 105.098 162.39 104.889C160.938 104.81 159.364 104.539 160.291 102.369C161.918 100.086 164.376 100.777 166.598 100.646C170.517 100.428 171.164 99.4216 169.887 95.4417C169.213 94.1296 167.989 93.6835 166.65 93.701C164.796 93.7273 164.341 92.3627 163.72 91.1119Z" fill="#E20814"/>
<path d="M16.2695 107.565C26.6786 107.6 37.0876 107.617 47.4967 107.679C49.0536 107.687 50.6893 107.25 52.1326 108.265C51.3454 109.419 50.1033 109.481 48.8875 109.577C46.6307 109.699 44.339 109.341 42.1085 109.944C41.0938 110.189 40.0704 110.259 39.047 110.093C38.356 109.97 37.6824 109.725 36.9739 109.717C36.3091 109.839 35.8018 110.347 35.1545 110.521C34.7959 110.548 34.446 110.495 34.1049 110.382C32.6353 109.559 31.0346 109.376 29.3814 109.463C27.9294 109.594 26.3024 109.113 25.314 110.714C25.1391 111.064 24.9379 111.396 24.7192 111.711C24.4743 112.026 24.1769 112.262 23.827 112.455C19.8733 113.775 19.1123 109.192 16.287 108.431C16.2695 108.142 16.2695 107.854 16.2695 107.565Z" fill="#B0E0BB"/>
<path d="M146.318 113.627C146.441 112.113 144.63 110.723 146.248 109.043C147.832 107.407 148.706 108.868 149.852 109.498C150.158 109.664 150.797 109.734 150.972 109.551C152.415 108.064 153.745 107.722 155.337 109.437C157.322 111.571 153.99 112.087 154.173 113.627C153.587 113.627 153.01 113.627 152.424 113.627C150.972 112.525 149.511 112.525 148.059 113.627C147.482 113.627 146.904 113.627 146.318 113.627Z" fill="#1BA83E"/>
<path d="M16.2683 108.431C17.7116 109.087 20.6419 106.856 20.4057 110.994C20.3007 112.813 22.7674 111.405 24.0445 111.641C24.788 112.7 23.9046 113.119 23.2573 113.635C22.6712 113.635 22.0677 113.531 21.5166 113.653C17.0206 114.598 15.2799 112.875 16.2683 108.431Z" fill="#18A73C"/>
<path d="M48.5351 108.685C49.7334 108.545 50.923 108.405 52.1214 108.265C56.1538 109.498 54.9117 111.51 52.9261 113.627C52.0514 113.627 51.1767 113.627 50.3107 113.627C50.1008 113.443 49.8996 113.242 49.7159 113.032C49.5235 112.822 49.366 112.586 49.2348 112.333C49.0686 112.096 48.9549 111.834 48.8675 111.554C48.7275 111.143 48.6313 110.723 48.5176 110.312C48.4126 110.041 48.3426 109.761 48.2727 109.472C48.2289 109.166 48.3164 108.904 48.5351 108.685Z" fill="#18A63C"/>
<path d="M23.248 113.627C23.5105 112.962 23.7729 112.297 24.0353 111.633C24.044 111.423 24.0703 111.213 24.114 111.003C25.5835 110.312 27.0705 110.88 28.5488 110.959C29.441 111.152 30.237 111.484 30.5956 112.42C30.6831 112.884 30.5606 113.286 30.2282 113.627C27.9015 113.627 25.5748 113.627 23.248 113.627Z" fill="#1DA83E"/>
<path d="M43.3239 113.627C42.1605 113.627 40.9971 113.627 39.8338 113.627C39.5364 113.355 39.3964 113.014 39.3789 112.621C39.6676 111.422 40.4985 110.635 41.4345 109.927C41.9681 109.673 42.5104 109.559 43.0964 109.717C43.4463 109.865 43.7787 110.058 44.0761 110.285C44.7671 110.915 45.7993 111.186 46.1579 112.166C45.8605 113.889 44.0149 112.647 43.3239 113.627Z" fill="#22AB45"/>
<path d="M133.472 112.91C133.42 113.155 133.341 113.4 133.227 113.627C129.449 113.627 125.661 113.627 121.882 113.627C121.716 113.417 121.629 113.19 121.611 112.927C125.565 110.688 129.519 110.697 133.472 112.91Z" fill="#E62B36"/>
<path d="M71.6389 79.8806C70.0294 78.1049 67.8252 79.4608 65.9883 78.8222C66.0145 78.5773 66.0233 78.3324 66.0145 78.0962C68.3412 78.0962 70.668 78.0962 72.9947 78.0962C73.0384 79.0584 72.8897 79.8806 71.6389 79.8806Z" fill="#FADBD7"/>
<path d="M39.8337 112.779C39.8337 113.067 39.8337 113.347 39.8337 113.636C38.3817 113.636 36.921 113.636 35.4689 113.636C34.9529 113.059 34.9529 112.429 35.294 111.773C36.2737 110.951 37.3758 110.924 38.5304 111.292C39.2039 111.572 39.5363 112.158 39.8337 112.779Z" fill="#1AA73E"/>
<path d="M148.07 113.627C149.522 111.142 150.983 111.291 152.435 113.627C150.983 113.627 149.522 113.627 148.07 113.627Z" fill="#DCEFDE"/>
<path d="M43.3242 113.627C44.1989 113.102 45.0824 112.577 45.9571 112.043C46.8405 111.405 47.3829 112 47.9164 112.586C48.0739 112.979 47.9864 113.32 47.689 113.618C46.237 113.627 44.7762 113.627 43.3242 113.627Z" fill="#14A538"/>
<path d="M33.7193 113.627C33.1332 113.627 32.5559 113.627 31.9699 113.627C31.6724 113.373 31.5675 113.058 31.6725 112.682C31.9261 112.175 32.311 111.79 32.8096 111.519C33.1595 111.396 33.5268 111.344 33.903 111.37C34.2703 111.457 34.5765 111.65 34.8214 111.93C35.0051 112.839 34.2528 113.163 33.7193 113.627Z" fill="#23AB46"/>
<path d="M47.6875 113.627C47.6962 113.399 47.6963 113.163 47.6963 112.936C47.9587 112.035 48.4048 111.449 49.4632 111.93L49.4544 111.939C49.7781 112.21 50.0055 112.577 50.3116 112.866C50.3029 113.119 50.3029 113.382 50.3029 113.635C49.4369 113.627 48.5622 113.627 47.6875 113.627Z" fill="#0D9F2B"/>
<path d="M33.7188 113.627C34.0162 113.12 34.3136 112.612 34.611 112.096C34.8471 111.746 35.1358 111.711 35.4594 111.983C35.4594 112.534 35.4594 113.076 35.4594 113.627C34.8821 113.627 34.3048 113.627 33.7188 113.627Z" fill="#15A63A"/>
<path d="M32.0573 112.472C32.0311 112.857 32.0049 113.242 31.9786 113.627C31.69 113.627 31.3926 113.627 31.1039 113.627C30.7978 113.33 30.684 112.971 30.7278 112.56C30.8677 112.166 31.1389 111.895 31.515 111.711C31.7075 111.764 31.8999 111.816 32.0923 111.869C32.0836 112.07 32.0661 112.271 32.0573 112.472Z" fill="#0D9D27"/>
<path d="M31.1032 112.761C31.1032 113.049 31.1032 113.338 31.1032 113.626C30.8146 113.626 30.5172 113.626 30.2285 113.626C30.281 113.303 30.3247 112.988 30.3772 112.664C30.6659 112.367 30.902 112.419 31.1032 112.761Z" fill="#6EC782"/>
<path d="M133.471 112.91C129.518 112.918 125.564 112.918 121.61 112.927C115.916 110.46 114.49 106.201 117.49 100.576C118.741 100.095 119.616 99.2554 120.062 97.9958C120.666 97.0162 121.759 96.8937 122.704 96.7625C123.937 96.5963 125.695 95.4155 126.185 97.7072C126.526 99.3167 126.185 100.279 124.077 100.961C119.905 102.308 121.077 105.37 122.651 108.204C126.229 109.638 129.78 110.303 133.227 107.854C133.821 107.128 134.976 106.166 133.043 105.894C130.156 105.483 131.223 103.349 131.232 101.906C131.241 99.2642 133.366 100.716 134.469 100.699C139.883 100.629 140.163 100.436 140.172 95.1793C140.172 92.0303 140.303 88.8726 140.137 85.7324C139.971 82.6884 141.134 80.5104 143.714 78.9797C145.263 78.7872 145.621 79.5832 145.569 80.9565C145.446 83.7643 145.429 86.5721 145.367 89.3887C144.178 92.87 144.003 96.3252 145.647 99.7278C151.079 101.888 153.187 100.637 153.082 95.0043C153.039 92.6251 153.31 91.2956 156.179 91.3393C159.153 91.3743 158.366 93.3249 158.383 94.8819C158.401 96.2814 158.698 97.7509 157.736 99.0105C156.73 99.5791 156.538 100.463 156.739 101.503C153.187 106.314 149.54 107.11 144.493 104.171C143.408 102.264 142.315 102.256 141.221 104.171C140.006 105.133 139.008 106.104 138.597 107.793C137.941 110.355 136.34 112.341 133.471 112.91Z" fill="#E20714"/>
<path d="M106.942 100.576C108.289 98.6077 107.423 96.386 107.642 94.2954C107.764 93.1321 107.029 92.3273 105.866 92.3273C104.685 92.3273 104.047 93.1846 104.047 94.3217C104.047 96.316 104.134 98.3016 102.831 100.016C101.457 100.392 101.571 101.748 101.038 102.684C96.559 106.883 91.958 107.075 86.8497 103.279C86.701 102.325 86.08 101.8 85.214 101.512C84.1906 100.558 83.587 99.4125 83.5958 97.9954C84.3393 94.4529 83.9807 90.8578 83.8495 87.3152C83.7358 84.2625 84.4355 81.7433 86.666 79.6528C88.7041 78.1483 88.6866 79.5741 88.6779 81.0348C88.6604 85.3122 88.6429 89.5895 88.6516 93.8668C88.6691 99.5437 89.2464 100.182 94.8533 100.733C96.0866 101.363 96.9176 101.022 97.3462 99.7099C99.3318 97.6718 97.9498 94.829 99.0782 92.581C100.084 93.7531 99.5068 95.1001 99.603 96.3772C99.5068 94.6278 99.8829 92.8696 99.4193 91.129C102.332 86.7117 104.895 86.0469 109.776 88.4349C109.968 89.3708 110.519 89.9306 111.473 90.1056C114.079 93.8931 113.703 98.0654 112.164 101.905C111.07 104.617 108.884 107.022 105.192 105.011C104.965 103.217 105.341 101.66 106.942 100.576Z" fill="#E20714"/>
<path d="M86.6657 79.6528C83.578 84.1926 84.4177 89.3359 84.339 94.348C84.3215 95.5988 84.6888 96.9546 83.5954 97.9955C83.5167 93.307 83.4292 88.6099 83.368 83.9214C83.333 81.6472 84.4089 80.1952 86.6657 79.6528Z" fill="#E00006"/>
<path d="M133.226 107.845C130.322 111.029 126.508 111.151 122.65 108.195C126.175 108.125 129.736 108.929 133.226 107.845Z" fill="#E10310"/>
<path d="M106.941 100.576C106.993 102.308 105.821 103.55 105.183 105.011C104.046 102.868 102.681 100.62 106.941 100.576Z" fill="#E1020B"/>
<path d="M99.4075 91.1382C100.755 93.115 99.6875 95.1531 99.3988 97.1824C99.2851 95.6517 99.1714 94.121 99.0664 92.599C99.1801 92.1004 99.2938 91.6193 99.4075 91.1382Z" fill="#DF0104"/>
<path d="M77.6568 110.294C76.476 108.614 78.3478 107.836 78.759 106.62C78.9077 106.996 79.0564 107.381 79.2051 107.757C79.2925 108.973 78.5578 109.682 77.6568 110.294Z" fill="#DF0105"/>
<path d="M120.062 97.9956C120.377 100.007 119.493 100.847 117.49 100.576C117.971 99.3427 118.794 98.4505 120.062 97.9956Z" fill="#DF0002"/>
<path d="M70.3881 105.72C70.3794 102.204 70.3794 102.204 71.3853 101.688C71.1492 103.052 72.9248 104.915 70.3881 105.72Z" fill="#DF0002"/>
<path d="M64.3581 87.6656C63.7545 85.5488 65.3815 85.4176 66.7285 85.0327C66.4399 86.3535 65.4427 87.0533 64.3581 87.6656Z" fill="#E00406"/>
<path d="M101.035 102.684C101.21 101.512 100.624 99.8412 102.828 100.016C102.776 101.276 102.006 102.045 101.035 102.684Z" fill="#DF0105"/>
<path d="M85.2109 101.521C86.7504 101.197 87.4589 101.643 86.8466 103.288C86.0419 102.938 85.4296 102.404 85.2109 101.521Z" fill="#DF0002"/>
<path d="M97.3367 99.7192C97.9402 100.139 97.879 100.603 97.3542 100.996C96.462 101.661 95.596 101.644 94.8438 100.743C95.6835 100.393 96.5057 100.052 97.3367 99.7192Z" fill="#E10008"/>
<path d="M111.462 90.1058C109.801 90.6393 109.276 90.0533 109.766 88.4351C110.658 88.6712 111.174 89.2748 111.462 90.1058Z" fill="#DF0002"/>
<path d="M160.289 102.369C162.905 106.069 166.622 103.384 169.78 103.917C170.83 104.092 172.019 103.48 173.139 103.235C169.36 107.626 164.217 105.859 159.747 105.588C157.368 105.439 159.388 103.41 160.289 102.369Z" fill="#E1040F"/>
<path d="M145.63 99.7014C143.006 96.325 142.884 91.8902 145.35 89.3623C145.446 92.8087 145.543 96.255 145.63 99.7014Z" fill="#E1000F"/>
<path d="M163.718 91.1118C165.022 93.6135 169.273 91.9778 169.885 95.4416C168.73 94.8906 167.55 94.4182 166.237 94.6194C163.01 95.1267 163.167 93.2636 163.718 91.1118Z" fill="#E1020E"/>
<path d="M164.461 112.988C165.799 110.574 167.899 110.95 169.491 110.259C169.63 110.627 169.98 111.265 169.893 111.326C168.441 112.394 166.814 112.962 164.461 112.988Z" fill="#E4282C"/>
<path d="M141.201 104.145C140.274 102.212 141.945 102.448 142.837 102.448C143.729 102.448 145.391 102.221 144.473 104.154C143.379 103.314 142.286 103.358 141.201 104.145Z" fill="#E00008"/>
<path d="M156.723 101.477C155.358 100.253 156.583 99.0281 157.064 98.1622C157.431 97.5149 157.475 98.6695 157.72 98.9844C157.903 100.025 157.466 100.813 156.723 101.477Z" fill="#E00106"/>
<path d="M22.7246 80.7991C29.766 80.4493 36.8249 80.563 43.8926 80.7817C43.9101 81.1403 43.9276 81.5077 43.9538 81.8663C36.9386 81.8663 29.9147 81.8663 22.8995 81.8663C22.8296 81.5164 22.7771 81.1578 22.7246 80.7991Z" fill="#18A73C"/>
<path d="M40.6658 86.8523C41.0069 87.7532 41.1381 88.418 39.7298 88.3918C35.4438 88.3218 31.1577 88.348 26.8716 88.3305C25.6033 88.3218 24.23 88.3568 25.8394 86.6248C30.8078 84.9979 35.7586 84.7092 40.6658 86.8523Z" fill="#04A02E"/>
<path d="M39.6504 91.1293C34.5683 90.7531 29.3725 92.1089 23.5645 89.9834C29.53 89.9834 34.6383 89.9834 39.7378 89.9834C39.7116 90.3595 39.6766 90.7444 39.6504 91.1293Z" fill="#06A130"/>
<path d="M31.1979 95.2143C33.1922 95.6867 34.618 90.6921 36.9797 94.6195C36.4986 96.9288 35.414 98.2846 32.8073 97.1737L32.3787 97.1824L31.9676 97.0687C31.4953 96.85 30.9792 96.6838 30.8042 96.1153C30.778 95.7479 30.9005 95.4505 31.1979 95.2143Z" fill="#13A539"/>
<path d="M40.662 86.8521C35.7199 86.7734 30.7778 86.7034 25.8357 86.6247C25.5471 86.1436 25.2584 85.6625 24.9785 85.1814C25.7308 84.228 26.7629 84.2105 27.8388 84.333C30.5154 84.7878 33.1658 85.1814 35.9124 84.7966C37.5743 84.5604 39.3675 84.4729 40.7233 85.8987C40.697 86.2223 40.6795 86.5372 40.662 86.8521Z" fill="#E8F5EB"/>
<path d="M31.2003 95.2146C31.1653 95.5645 31.1391 95.9144 31.1041 96.2643C30.2381 97.6725 29.0923 97.9962 27.6403 97.1565C25.8209 95.512 26.993 94.2961 28.4275 93.5351C29.9495 92.7217 31.2528 93.0628 31.2003 95.2146Z" fill="#15A639"/>
<path d="M40.7183 85.9074C36.3535 85.4963 31.9012 86.7296 27.5977 85.1814C28.8572 83.5894 30.6679 84.4029 32.2336 84.1317C32.6447 84.123 33.0558 84.1142 33.4757 84.1055C36.4147 84.8577 39.5812 83.1783 42.4152 84.9714C42.1441 85.8024 41.4443 85.8637 40.7183 85.9074Z" fill="#DFF1DF"/>
<path d="M42.4239 84.9716C39.4499 84.613 36.3009 86.0825 33.4844 84.1056C36.5021 83.9657 39.7123 81.9626 42.4239 84.9716Z" fill="#05A12F"/>
<path d="M32.2409 84.1316C31.0076 85.8285 29.092 84.569 27.605 85.1813C26.7303 85.1813 25.8555 85.1813 24.9808 85.1813C23.5726 84.1753 24.7447 83.6418 25.4707 83.6593C27.7274 83.6943 30.0629 82.9945 32.2409 84.1316Z" fill="#04A02D"/>
<path d="M63.3027 82.1108C62.6467 85.531 60.3812 87.4291 57.1973 88.4612C59.2266 86.3444 61.2646 84.2276 63.3027 82.1108Z" fill="#DF0104"/>
<path d="M52.0427 100.681C48.9987 101.049 48.019 99.964 49.506 97.1387C49.8734 98.6607 50.6694 99.8765 52.0427 100.681Z" fill="#E00108"/>
<path d="M19.6897 82.4521C18.6838 81.6562 18.0015 80.6852 17.9141 79.0933C20.302 79.1108 20.2495 81.0089 20.7656 82.3822C20.4332 82.7145 20.0746 82.7408 19.6897 82.4521Z" fill="#1BA438"/>
<path d="M19.6875 82.4523C20.0461 82.4261 20.4048 82.4086 20.7634 82.3823C21.813 83.1696 22.1629 84.228 22.3116 85.8987C20.1249 85.3126 19.9762 83.8344 19.6875 82.4523Z" fill="#1FA539"/>
<path d="M32.8008 97.1738C34.9613 97.5586 35.9935 96.1241 36.9731 94.6196C37.6204 98.7483 35.9147 99.0981 32.8008 97.1738Z" fill="#0AA02D"/>
<path d="M27.6406 97.1564C28.909 97.3051 30.0286 96.8852 31.1045 96.2642C31.3931 96.5353 31.673 96.7977 31.9617 97.0689C30.5359 97.9436 29.1276 99.3694 27.6406 97.1564Z" fill="#099E2C"/>
<path d="M63.248 93.7446C64.875 93.8408 67.0093 93.351 66.1783 96.2638C65.1987 95.4241 64.2277 94.5843 63.248 93.7446Z" fill="#E00006"/>
<path d="M46.6107 90.998C47.3367 92.6338 46.6019 93.3773 45.0099 93.5872C44.835 92.2926 45.5785 91.5579 46.6107 90.998Z" fill="#DF0005"/>
<path d="M62.7417 101.984C60.0738 102.395 58.7093 102.57 56.9336 101.914C58.753 101.346 60.1613 101.398 62.7417 101.984Z" fill="#E00009"/>
<path d="M33.7719 111.886C33.4832 111.904 33.2033 111.913 32.9146 111.921L32.591 112.184L32.2149 111.991L32.005 111.913C30.999 111.143 29.7395 110.653 29.1184 109.437C29.0047 109.035 29.1447 108.755 29.5295 108.589C31.3927 108.65 33.5007 107.915 34.6903 110.163C35.1364 111.117 34.2442 111.396 33.7719 111.886Z" fill="#019313"/>
<path d="M33.7715 111.886C34.0776 111.309 34.3838 110.723 34.6899 110.145C34.9786 110.154 35.2672 110.154 35.5646 110.137C35.897 109.831 36.2906 109.621 36.728 109.498C37.419 109.428 38.0576 109.647 38.6873 109.883C39.5271 110.574 39.7195 111.309 38.8098 112.096C37.6989 112.061 36.5793 112.017 35.4684 111.982L35.0398 111.974L34.6287 112.096C34.3313 112.026 34.0514 111.956 33.7715 111.886Z" fill="#95D6A5"/>
<path d="M38.811 112.096C38.8634 111.361 38.8372 110.653 38.1287 110.181C37.875 110.006 37.7263 109.769 37.6738 109.463C37.7263 109.323 37.77 109.183 37.8225 109.043C39.0646 109.122 40.3067 109.21 41.54 109.288C41.7587 109.428 41.8637 109.595 41.8637 109.796C41.8637 110.014 41.8374 110.119 41.7762 110.119C41.9687 111.615 40.3592 111.799 39.8256 112.77C39.4932 112.551 39.1521 112.324 38.811 112.096Z" fill="#BEE5C7"/>
<path d="M41.782 110.128C41.6946 109.857 41.6158 109.577 41.5371 109.297C43.7676 107.976 46.1731 108.519 48.5348 108.685C48.526 108.851 48.5173 109.017 48.526 109.183C46.9866 110.705 45.1934 110.837 43.2428 110.111C42.7617 110.119 42.2719 110.119 41.782 110.128Z" fill="#0B9F2A"/>
<path d="M28.4974 111.685C26.9579 111.947 25.4621 111.947 24.1151 111.003C24.0976 110.767 24.0888 110.522 24.0801 110.286C25.051 109.332 26.2493 109.297 27.5002 109.463C28.5236 109.901 29.1709 110.495 28.4974 111.685Z" fill="#A6DCB3"/>
<path d="M27.5789 110.146C26.4156 110.189 25.2434 110.242 24.0801 110.294C25.2434 107.67 27.5527 108.632 29.5383 108.58C29.4595 108.798 29.4245 109.017 29.4333 109.253C29.0397 110.014 28.1037 109.656 27.5789 110.146Z" fill="#71C885"/>
<path d="M36.5519 110.163C36.2195 110.154 35.8871 110.146 35.5547 110.137C35.6334 109.56 35.2835 108.772 36.2894 108.641C36.5781 108.781 36.7618 109.008 36.8405 109.315C36.823 109.621 36.7268 109.909 36.5519 110.163Z" fill="#008F0B"/>
<path d="M36.4563 109.507C36.4038 109.218 36.3513 108.93 36.2988 108.641C36.8849 108.492 37.4359 108.466 37.8208 109.052L38.0307 109.174C37.6284 109.857 37.0423 109.708 36.4563 109.507Z" fill="#0DA233"/>
<path d="M49.4659 111.93C48.8799 112.262 48.2851 112.604 47.699 112.936C47.1217 112.639 46.5357 112.341 45.9584 112.044C45.1711 111.536 43.8853 112.429 43.3867 111.125C45.1974 109.621 47.1305 109.087 49.2998 110.364C49.3522 110.889 49.4135 111.405 49.4659 111.93Z" fill="#C4E7CC"/>
<path d="M49.2962 110.364C47.1969 109.603 45.3338 110.688 43.3832 111.125C43.3394 110.784 43.2957 110.452 43.252 110.111C44.8789 109.044 46.7683 109.446 48.5352 109.184C48.7889 109.577 49.0425 109.971 49.2962 110.364Z" fill="#49B864"/>
<path d="M27.5801 110.146C27.9387 109.323 28.7084 109.341 29.4345 109.245C30.3791 110.041 32.3035 109.918 32.0148 111.904C31.7174 112.192 31.42 112.481 31.1139 112.761C30.869 112.726 30.6328 112.7 30.3879 112.665C30.038 111.816 29.1808 111.921 28.5073 111.685C28.4723 111.012 28.2624 110.443 27.5801 110.146Z" fill="#AEE1BD"/>
<path d="M32.2141 111.983C32.4415 111.93 32.6777 111.904 32.9139 111.913C32.6252 112.096 32.3453 112.289 32.0566 112.473C32.0829 112.306 32.1354 112.14 32.2141 111.983Z" fill="#00920D"/>
<path d="M87.1992 96.054C87.1992 93.2637 87.1992 90.4646 87.1992 87.6743C87.3392 87.6743 87.4879 87.6743 87.6278 87.6831C87.6278 90.4996 87.6278 93.3162 87.6278 96.1327C87.4879 96.1065 87.3479 96.0803 87.1992 96.054Z" fill="#E00009"/>
<path d="M36.457 109.507C36.9819 109.393 37.5067 109.288 38.0315 109.174C38.0665 109.507 38.0927 109.848 38.1277 110.18C37.6029 110.172 37.0781 110.163 36.562 110.154C36.5008 109.944 36.4658 109.725 36.457 109.507Z" fill="#FEFEFE"/>
</g>
<defs>
<clipPath id="clip0_5165_48143">
<rect width="192" height="192" fill="white"/>
</clipPath>
</defs>
</svg>
