<svg width="192" height="192" viewBox="0 0 192 192" fill="none" xmlns="http://www.w3.org/2000/svg">
<g clip-path="url(#clip0_4886_46051)">
<path d="M96 192C149.019 192 192 149.019 192 96C192 42.9807 149.019 0 96 0C42.9807 0 0 42.9807 0 96C0 149.019 42.9807 192 96 192Z" fill="white"/>
<g clip-path="url(#clip1_4886_46051)">
<path d="M23.5 95.8835C23.8284 55.3301 56.5095 23.1156 96.7691 23.5045C136.26 23.8933 168.586 55.7622 168.5 96.1081C168.414 137.543 134.609 168.556 95.9136 168.496C57.0712 168.435 23.7247 137.145 23.5 95.8748V95.8835ZM161.215 96.0909C161.215 60.6099 132.682 30.8236 96.0086 30.8409C59.3352 30.8582 30.8969 60.6186 30.8537 95.918C30.8105 131.892 60.1043 161.194 96.0518 161.168C131.93 161.151 161.198 131.909 161.215 96.0736V96.0909Z" fill="#FDCC00"/>
<path d="M126.037 104.887C128.5 105.103 130.487 105.224 132.475 105.458C134.886 105.743 136.329 107.324 136.372 109.744C136.467 115.049 135.387 120.174 133.728 125.168C131.369 132.271 127.645 138.597 122.581 144.119C119.651 147.307 116.333 149.96 112.22 151.49C108.694 152.803 105.091 152.967 101.436 152.138C101.099 152.06 100.762 151.974 100.451 151.835C99.4827 151.42 99.3531 150.885 100.044 150.133C100.416 149.727 100.909 149.433 101.271 149.027C102.36 147.783 103.397 146.495 104.486 145.259C104.875 144.81 105.307 144.205 105.817 144.075C111.874 142.58 116.385 138.822 120.204 134.164C123.695 129.904 125.337 124.762 126.53 119.465C126.668 118.86 126.815 118.255 126.927 117.642C127.377 115.032 126.003 113.46 123.358 113.684C118.658 114.09 114.086 115.067 109.766 117.028C105.497 118.955 101.729 121.591 98.6445 125.134C96.4496 127.648 95.2139 130.491 94.9201 133.905C94.6436 137.05 92.5524 139.271 89.9169 140.861C88.8108 141.526 88.1368 141.137 87.6183 139.72C86.1147 135.616 86.0974 131.485 87.5146 127.355C88.7503 123.751 90.876 120.718 93.5116 118.031C100.07 111.36 108.081 107.462 117.232 105.881C120.282 105.354 123.384 105.164 126.029 104.87V104.887H126.037Z" fill="#FDCC00"/>
<path d="M103.285 124.65C103.76 125.627 104.166 126.318 104.443 127.061C108.34 137.655 101.824 149.528 90.6857 152.129C85.9935 153.227 81.5087 152.596 77.2572 150.332C74.7426 148.984 72.5132 147.247 70.5343 145.199C61.8758 136.221 57.0799 125.462 55.7837 113.105C55.6628 111.939 55.6628 110.755 55.706 109.588C55.7837 107.394 57.2009 105.769 59.3353 105.467C69.4628 104.041 78.9509 105.942 87.7909 111.075C88.6809 111.593 89.5191 112.215 90.3055 112.889C91.498 113.9 91.5412 114.497 90.5734 115.681C89.8821 116.536 89.1303 117.357 88.3785 118.161C87.307 119.31 86.9268 119.396 85.5355 118.541C82.5716 116.717 79.4262 115.309 76.0042 114.687C73.4291 114.22 70.8195 113.892 68.2185 113.71C65.7817 113.537 64.5805 114.937 65.1076 117.348C67.0865 126.413 71.2343 134.311 78.1818 140.585C80.2039 142.408 82.5197 143.799 85.3281 144.015C91.1437 144.464 96.0606 140.68 96.8555 134.76C97.3481 131.088 99.18 128.349 101.651 125.869C102.058 125.454 102.585 125.16 103.276 124.65H103.285Z" fill="#FDCC00"/>
<path d="M76.7568 103.712C74.9249 103.514 73.093 103.298 71.261 103.108C70.1636 102.995 69.0489 102.788 67.9687 102.874C66.0503 103.03 64.927 102.14 63.9592 100.576C60.6928 95.3131 58.2905 89.705 56.9166 83.6561C56.1561 80.286 55.6031 76.8814 55.6981 73.4076C55.7673 70.9794 57.1671 69.2857 59.5348 69.0265C71.3042 67.7649 82.3391 69.8388 92.3197 76.4407C95.7416 78.7047 98.7402 81.4439 101.203 84.7449C103.476 87.778 104.979 91.1308 105.463 94.9329C105.826 97.8105 105.42 100.576 104.478 103.272C103.873 105 103.303 105.181 101.704 104.265C98.9043 102.658 97.0551 100.515 97.0465 97.0155C97.0465 93.6799 95.3874 90.9493 93.227 88.5211C91.0062 86.0238 88.4225 83.9672 85.5277 82.2994C80.2306 79.2404 74.4756 77.7196 68.4094 77.3134C66.0936 77.1579 64.6764 78.6528 65.1171 80.9341C66.6552 88.9532 69.55 96.3069 75.8236 101.924C76.2556 102.313 76.6272 102.771 77.0247 103.194C76.9383 103.367 76.8433 103.531 76.7568 103.704V103.712Z" fill="#FDCC00"/>
<path d="M116.349 101.941C116.686 101.518 116.998 101.094 117.335 100.697C122.07 95.123 125.155 88.7199 126.831 81.6254C126.926 81.2279 127.004 80.8131 127.039 80.407C127.203 78.4368 126.097 77.2098 124.109 77.3307C117.836 77.7109 111.873 79.2232 106.395 82.4204C106.274 82.4895 106.153 82.55 106.032 82.6192C104.044 83.9154 103.897 84.2956 102.04 81.9451C101.271 80.9773 100.389 80.0873 99.5596 79.1713C98.4276 77.9097 98.4535 77.3566 99.8793 76.3802C104.01 73.5459 108.546 71.5497 113.394 70.3313C119.59 68.7673 125.881 68.171 132.258 68.9919C134.85 69.3289 136.363 70.9103 136.371 73.5459C136.371 80.4156 134.738 86.9398 131.999 93.1874C130.979 95.5205 129.657 97.7154 128.473 99.9708C127.834 101.189 126.9 101.69 125.475 101.725C122.588 101.785 119.702 102.053 116.816 102.226C116.712 102.226 116.6 102.105 116.349 101.958V101.941Z" fill="#FDCC00"/>
<path d="M96.1552 39.0933C97.2267 39.6549 98.4105 40.0697 99.3351 40.8042C104.667 45.0384 108.78 50.275 111.493 56.514C112.72 59.3397 113.567 62.3382 114.414 65.3108C114.898 67.0304 114.639 67.2291 112.876 67.739C111.485 68.1451 110.102 68.5599 108.72 68.9747C107.017 69.4845 106.672 69.329 106.214 67.6353C105.142 63.6257 103.785 59.7199 101.599 56.1684C100.588 54.5265 99.4648 52.9452 98.2463 51.4589C96.2675 49.048 95.7922 49.0825 93.7961 51.3725C89.8125 55.9264 87.1683 61.163 85.8375 67.065C85.7425 67.4711 85.6993 67.8859 85.5696 68.2747C85.3104 69.0438 84.7487 69.3981 83.9624 69.1821C82.1045 68.6722 80.2639 68.1105 78.4147 67.5489C77.637 67.3155 77.3259 66.7279 77.4728 65.9502C77.637 65.0688 77.8271 64.1961 78.0604 63.3319C80.5145 54.345 85.345 46.8877 92.4999 40.9338C93.5196 40.087 94.5911 39.3352 96.1465 39.0933H96.1552Z" fill="#FDCC00"/>
<path d="M88.3957 88.1408C91.5671 90.9924 94.0644 93.7663 94.5397 97.9141C94.9199 101.215 96.4062 103.928 99.2578 105.786C99.6034 106.011 99.9836 106.192 100.303 106.452C100.995 107.031 101.047 107.627 100.329 108.137C98.4887 109.467 96.6222 110.764 94.7038 111.982C94.3495 112.207 93.6928 112.094 93.2262 111.965C92.8633 111.861 92.5608 111.489 92.2497 111.222C86.4082 106.21 84.2825 96.9117 87.3761 89.8604C87.5921 89.3765 87.9118 88.9445 88.3957 88.1235V88.1408Z" fill="#FDCC00"/>
</g>
</g>
<defs>
<clipPath id="clip0_4886_46051">
<rect width="192" height="192" fill="white"/>
</clipPath>
<clipPath id="clip1_4886_46051">
<rect width="145" height="144.991" fill="white" transform="translate(23.5 23.5044)"/>
</clipPath>
</defs>
</svg>
