<svg width="192" height="192" viewBox="0 0 192 192" fill="none" xmlns="http://www.w3.org/2000/svg">
<g clip-path="url(#clip0_5165_47962)">
<path d="M96 192C149.019 192 192 149.019 192 96C192 42.9807 149.019 0 96 0C42.9807 0 0 42.9807 0 96C0 149.019 42.9807 192 96 192Z" fill="white"/>
<path d="M88.0393 79.4109C97.2966 80.8708 103.482 90.0774 101.077 99.0309C100.579 100.887 100.225 102.271 102.613 102.744C102.537 102.854 102.47 102.963 102.385 103.056C102.326 103.115 102.233 103.141 102.157 103.174C103.854 103.115 105.617 103.976 107.212 102.744C108.233 101.191 106.748 100.162 106.318 98.9719C103.769 91.9339 108.377 84.0015 115.837 82.7273C117.237 82.9045 118.647 83.4024 120.047 82.7357C120.554 80.7189 116.199 81.1999 118.014 77.9847C120.765 73.1156 120.984 72.4742 125.288 76.086C131.625 81.4108 138.891 86.0184 142.148 94.2208C142.494 95.09 142.562 96.0774 142.756 97.0056C142.106 98.955 142.106 100.913 142.756 102.862C142.174 106.516 141.6 110.17 137.701 112.001C136.317 111.917 134.933 111.942 133.549 111.984C131.963 111.554 130.317 111.259 128.79 110.676C124.005 108.854 119.22 107.377 114.132 109.529C109.094 109.562 104.048 109.613 99.0097 109.503C94.4865 105.022 90.014 110.305 85.5161 109.579C82.4275 109.301 79.3474 109.697 76.2588 109.596C72.9677 109.968 70.9762 107.487 68.7652 105.841C67.1872 104.66 65.896 104.693 64.8159 105.723C61.7948 108.617 58.0564 109.419 54.1493 109.833C46.7654 110.617 39.3646 110.575 31.9807 109.9C23.9977 109.166 17.6602 105.909 14.791 97.8411C14.791 96.1618 14.791 94.4824 14.791 92.8031C16.1665 90.0859 17.0104 87.2336 19.4492 84.9214C22.3774 82.1535 23.6095 83.0648 24.9175 86.01C25.8964 87.1492 25.3141 88.3137 24.9766 89.4783C24.1496 90.9382 23.331 92.3981 22.504 93.858C21.4998 94.55 21.7783 95.2841 22.4449 96.0267C24.1243 100.12 27.6179 101.714 31.6094 102.094C39.0102 102.795 46.4363 102.685 53.8455 102.145C56.4025 101.959 58.74 100.921 60.8412 99.5035C63.6682 97.5963 63.626 93.7145 60.8497 90.0015C59.5923 88.3137 61.1281 83.1999 63.0606 82.5585C63.8201 82.3054 63.9298 83.0142 64.3349 83.2842C67.7526 85.5627 70.1492 88.6597 70.4783 92.7694C70.9171 98.3221 73.9466 101.335 79.0605 102.719C79.3221 104.01 80.301 103.098 80.9086 103.259C81.533 103.419 82.2419 103.352 83.0604 103.217C82.2419 103.25 81.533 103.428 81.052 102.727C83.5077 101.824 86.4022 102.719 88.6553 100.837C87.0773 99.2166 84.8495 99.2672 82.9085 98.6343C77.3727 96.8453 75.2293 94.5078 75.339 90.2293C75.4824 84.7948 78.6976 80.7357 83.8705 79.4615C85.2629 79.9678 86.6553 80.0775 88.0393 79.4109Z" fill="#28388F"/>
<path d="M174.773 76.0187C174.773 77.141 174.773 78.2549 174.773 79.3773C171.912 88.8456 168.512 98.1282 165.052 107.394C164.562 108.702 164.132 110.035 163.33 111.208C159.98 113.858 156.09 111.968 152.478 112.491C150.309 110.609 151.963 108.643 152.537 106.862C155.069 98.9552 158.09 91.2169 160.739 83.3604C159.161 81.1916 156.874 82.3224 154.967 82.2718C147.524 82.0862 145.929 79.6305 148.748 72.2466C156.672 70.9301 164.596 70.8457 172.52 72.2972C174.056 73.0651 174.022 74.7782 174.773 76.0187Z" fill="#FEFDFC"/>
<path d="M162.797 110.44C166.189 100.896 169.615 91.36 172.949 81.7904C173.328 80.7103 173.371 79.5964 174.771 79.377C174.771 80.4993 174.771 81.6132 174.771 82.7356C173.784 89.7651 174.603 96.8283 174.349 103.866C174.265 106.221 174.409 108.583 174.282 110.938C171.168 113.427 167.463 111.41 164.13 112.237C162.569 112.465 162.527 111.571 162.797 110.44Z" fill="#F05024"/>
<path d="M173.024 73.5376C171.91 72.4912 170.527 72.5671 169.143 72.584C162.324 72.6599 155.506 72.7021 148.687 72.7528C146.645 72.103 147.168 70.9975 148.155 69.8161C157.033 69.9005 165.911 69.276 174.78 70.1452C174.78 70.4236 174.78 70.7021 174.78 70.9806C173.699 71.5038 175.278 73.8245 173.024 73.5376Z" fill="#EF4616"/>
<path d="M147.886 70.2127C147.776 71.1747 147.548 72.1789 148.688 72.7527C148.612 80.9889 148.612 80.9889 156.721 80.9889C158.257 80.9889 159.818 80.8792 161.337 81.0565C163.152 81.2674 163.43 82.2294 162.173 83.5712C161.54 83.5712 160.915 83.4699 160.316 83.2674C157.472 82.7358 154.595 83.1071 151.742 83.0227C150.552 82.9889 149.582 83.2927 149.152 84.5416C148.823 92.0774 149.118 99.5963 149.008 107.115C148.983 108.643 149.126 110.187 148.662 111.681C148.434 112.145 148.147 112.575 147.818 112.98C146.553 111.883 146.991 110.398 146.983 109.056C146.966 95.8074 146.983 82.5585 146.991 69.3013C147.27 69.3013 147.557 69.3013 147.835 69.3013C148.131 69.4869 148.232 69.681 148.147 69.892C148.063 70.103 147.979 70.2127 147.886 70.2127Z" fill="#FCE7E2"/>
<path d="M87.2467 75.8749C83.6687 73.2251 86.2509 71.3096 88.0484 69.3096C88.8922 69.3096 89.7361 69.3096 90.5715 69.3096C92.3437 71.3096 94.715 73.242 91.3563 75.858C89.9893 75.8834 88.6138 75.8412 87.2467 75.8749Z" fill="#303F94"/>
<path d="M173.934 111.267C173.934 103.2 173.909 95.1324 173.96 87.0649C173.968 85.605 173.403 83.9679 174.778 82.7358C174.778 92.2463 174.778 101.765 174.778 111.276C174.491 111.563 174.213 111.563 173.934 111.267Z" fill="#F05329"/>
<path d="M147.811 112.98C147.811 112.702 147.811 112.423 147.811 112.145C148.131 111.832 148.503 111.588 148.916 111.402C150.081 111.073 151.127 111.284 152.038 112.111C155.608 111.427 159.642 113.739 162.798 110.44C162.916 111.132 162.545 112.128 163.819 112.136C167.473 111.436 171.118 111.469 174.772 112.111C174.772 112.389 174.772 112.668 174.772 112.946C165.785 112.963 156.798 112.972 147.811 112.98Z" fill="#FCE1DA"/>
<path d="M147.885 70.2126C147.868 69.9088 147.851 69.605 147.826 69.3012C156.105 69.3012 164.383 69.2675 172.67 69.3603C173.303 69.3687 174.712 68.2802 174.78 70.1367C165.809 70.162 156.847 70.1873 147.885 70.2126Z" fill="#F7AC97"/>
<path d="M174.77 112.111C171.116 112.119 167.462 112.128 163.816 112.136C167.057 110.33 170.576 111.714 173.934 111.267C174.213 111.275 174.491 111.275 174.778 111.275C174.77 111.554 174.77 111.832 174.77 112.111Z" fill="#EF4617"/>
<path d="M173.023 73.5374C173.606 72.6851 174.188 71.8328 174.77 70.9805C174.77 72.6598 174.77 74.3391 174.77 76.0184C173.859 75.4277 173.386 74.5247 173.023 73.5374Z" fill="#F15D34"/>
<path d="M48.623 78.6938C47.8466 80.2635 47.0956 82.1115 44.7327 81.9428C42.623 81.7909 41.5176 80.4491 41.5598 78.3479C41.602 75.9681 42.9606 74.8205 45.2812 74.9555C47.4162 75.0821 48.3361 76.4998 48.623 78.6938Z" fill="#2D3D93"/>
<path d="M37.3526 82.2465C35.4117 81.082 32.9982 81.0482 33.2598 78.3225C33.4708 76.1875 34.8969 74.9216 36.8463 75.0482C38.7365 75.1664 40.1711 76.5419 40.2049 78.6263C40.2471 80.6685 38.3484 81.0988 37.3526 82.2465Z" fill="#1C2D89"/>
<path d="M99.0078 109.512C104.046 108.305 109.092 108.272 114.13 109.538C109.084 110.584 104.046 110.77 99.0078 109.512Z" fill="#1E2F8A"/>
<path d="M76.2598 109.596C79.3399 108.229 82.4285 108.254 85.5171 109.579C82.4285 110.389 79.3399 110.744 76.2598 109.596Z" fill="#1D2E8A"/>
<path d="M81.0413 102.736C82.2481 102.862 83.4632 102.997 84.67 103.124C84.6615 103.318 84.6531 103.512 84.6531 103.706C82.6109 103.706 80.4591 104.086 78.5603 103.58C77.2186 103.217 78.8472 103.048 79.0498 102.736C79.708 102.736 80.3747 102.736 81.0413 102.736Z" fill="#1B2C89"/>
<path d="M107.205 102.744C105.644 104.753 103.525 103.343 101.677 103.504C101.534 103.512 102.234 102.964 102.614 102.736C104.141 102.744 105.677 102.744 107.205 102.744Z" fill="#1A2B89"/>
<path d="M87.2461 75.8751C88.6132 74.8371 89.9802 74.8456 91.3558 75.8582C89.9887 77.1156 88.6216 77.1746 87.2461 75.8751Z" fill="#1C2D8A"/>
<path d="M133.541 111.993C134.933 110.93 136.317 110.904 137.693 112.01C136.309 113.056 134.925 112.854 133.541 111.993Z" fill="#1C2D8A"/>
<path d="M142.747 102.871C141.464 100.921 141.464 98.9635 142.747 97.0142C143.237 98.9635 143.203 100.921 142.747 102.871Z" fill="#1D2E8A"/>
<path d="M24.9648 89.4869C23.9522 88.3477 25.3277 87.1662 24.9057 86.0186C26.2981 87.1493 27.3361 88.2886 24.9648 89.4869Z" fill="#1C2D8A"/>
<path d="M120.037 82.7353C118.636 83.9758 117.227 83.9843 115.826 82.7269C117.235 81.9336 118.636 82.2712 120.037 82.7353Z" fill="#1B2C89"/>
<path d="M22.4353 96.0266C20.756 96.4823 21.6842 95.1321 21.5745 94.6426C21.4901 94.2713 21.1863 92.9296 22.4943 93.8578C22.4775 94.5836 22.4606 95.3093 22.4353 96.0266Z" fill="#1D2E8A"/>
<path d="M88.0365 79.4109C86.661 80.626 85.2686 80.5754 83.8594 79.4784C85.2433 78.9298 86.6357 78.8539 88.0365 79.4109Z" fill="#1C2D8A"/>
<path d="M128.391 91.1407C128.501 90.1702 128.585 88.7778 129.969 89.9171C133.151 92.5331 135.361 95.7651 135.429 100.111C135.48 103.267 134.543 104.938 131.049 103.394C129.792 102.837 128.45 102.474 126.99 101.968C127.463 100.271 127.927 98.6258 128.383 96.9803C127.978 95.0394 128.686 93.09 128.391 91.1407Z" fill="#F5F6F9"/>
<path d="M121.268 94.4742C120.449 96.5332 120.348 99.3095 117.648 99.0058C115.319 98.7442 112.973 97.3518 113.496 94.2885C113.901 91.9003 114.778 89.7063 118.011 90.086C120.897 90.432 120.93 92.567 121.268 94.4742Z" fill="#F8F9FB"/>
<path d="M93.7585 93.9509C90.788 93.0058 88.1551 92.2041 85.5391 91.3349C84.4252 90.9636 82.9062 90.9805 83.3451 89.0142C83.767 87.1324 84.9822 86.5417 86.6699 86.8202C90.5939 87.4784 92.8302 89.8497 93.7585 93.9509Z" fill="#F0F1F7"/>
<path d="M128.394 91.1406C129.314 93.09 129.246 95.0309 128.386 96.9802C127.179 95.0393 127.171 93.09 128.394 91.1406Z" fill="#1C2D8A"/>
<path d="M136.495 98.2549C136.934 99.6135 137.052 100.407 136.546 101.259C135.786 100.415 136.014 99.5629 136.495 98.2549Z" fill="#1E2F8B"/>
<path d="M152.036 112.111C150.914 112.119 149.792 112.119 148.669 112.128C147.91 102.331 148.172 92.5247 148.534 82.7104C152.889 82.0438 157.243 82.1619 161.606 82.6429C161.792 82.9551 161.977 83.2589 162.163 83.5712C158.787 93.0901 155.412 102.601 152.036 112.111Z" fill="#F05024"/>
<path d="M148.669 82.7441C148.669 92.5415 148.669 102.33 148.669 112.128C148.382 112.136 148.095 112.145 147.816 112.153C147.85 102.347 147.892 92.5415 147.926 82.7357C148.179 82.415 148.424 82.4319 148.669 82.7441Z" fill="#F04C1F"/>
<path d="M148.669 82.7439C148.416 82.7354 148.171 82.7354 147.918 82.727C152.466 80.9127 157.032 81.0477 161.597 82.6426C157.293 82.6763 152.981 82.7101 148.669 82.7439Z" fill="#EE4515"/>
</g>
<defs>
<clipPath id="clip0_5165_47962">
<rect width="192" height="192" fill="white"/>
</clipPath>
</defs>
</svg>
