<svg width="192" height="192" viewBox="0 0 192 192" fill="none" xmlns="http://www.w3.org/2000/svg">
<g clip-path="url(#clip0_4886_46043)">
<path d="M96 192C149.019 192 192 149.019 192 96C192 42.9807 149.019 0 96 0C42.9807 0 0 42.9807 0 96C0 149.019 42.9807 192 96 192Z" fill="white"/>
<path d="M134.497 49.5898C129.992 49.5898 125.481 49.7444 120.983 49.5382C117.793 49.3964 116.001 50.5886 115.034 53.624C110.111 69.11 105.052 84.5444 100.135 100.03C97.8922 107.094 95.7527 114.112 90.1847 119.512C80.2731 129.127 66.656 131.299 53.9927 125.086C42.2573 119.338 35.4713 106.836 37.0244 93.8244C38.6098 80.5295 48.0831 69.9478 61.204 66.964C65.3156 66.0295 69.5302 66.3518 73.7062 66.3904C80.1378 66.4484 86.5758 66.3904 93.0073 66.6353C95.1082 66.7126 95.7269 65.9006 96.2811 64.1155C98.6591 56.4531 101.121 48.81 103.686 41.2055C105.329 36.3335 107.61 34.716 112.76 34.6902C125.739 34.6129 138.718 34.6 151.697 34.6193C155.789 34.6193 156.504 35.3218 156.195 39.2915C155.995 41.85 155.17 44.3118 154.21 46.7026C153.321 48.9195 151.491 49.5704 149.293 49.5704C144.357 49.5704 139.427 49.5704 134.49 49.5704C134.49 49.5769 134.49 49.5833 134.49 49.5898H134.497ZM51.692 97.3302C51.0347 106.12 61.4425 117.36 73.3325 112.913C78.2173 111.083 81.852 108.125 83.4953 103.014C85.5576 96.6084 87.6069 90.1898 89.7916 83.8291C90.5713 81.5542 89.8238 80.9678 87.652 80.9935C80.9047 81.058 74.1509 80.884 67.41 81.0644C58.6198 81.2964 51.6856 88.598 51.692 97.3366V97.3302Z" fill="#CF1920"/>
<path d="M60.2246 144.993C60.2504 151.534 55.2753 156.451 48.6117 156.484C42.0255 156.516 36.8764 151.502 36.8828 145.064C36.8828 138.755 42.1479 133.516 48.5666 133.438C54.9724 133.361 60.1988 138.542 60.231 144.987L60.2246 144.993ZM52.9875 144.8C52.9424 142.396 50.8093 140.611 48.3539 140.74C45.9888 140.862 44.3713 142.757 44.4744 145.277C44.5775 147.809 46.2917 149.382 48.8244 149.266C51.2282 149.156 53.0326 147.294 52.9875 144.967V144.8Z" fill="#05B1C5"/>
<path d="M76.4063 156.484C69.7492 156.484 64.6388 151.496 64.6839 145.032C64.7226 138.729 69.8266 133.528 76.0777 133.419C82.5092 133.303 87.8194 138.471 87.8774 144.903C87.9354 151.612 83.115 156.477 76.4063 156.484ZM80.6661 144.948C80.6274 142.641 78.6683 140.746 76.3032 140.733C73.9317 140.72 71.9403 142.602 71.8823 144.922C71.8179 147.332 73.9123 149.324 76.4514 149.266C78.8294 149.214 80.7048 147.294 80.6661 144.948Z" fill="#05B1C5"/>
<path d="M119.926 83.6551C116.93 83.6551 113.927 83.61 110.93 83.6745C109.158 83.7131 108.204 83.2234 108.848 81.2514C109.944 77.9003 110.969 74.5234 112.141 71.198C112.709 69.5998 113.907 68.7427 115.757 68.762C121.222 68.8329 126.68 68.7878 132.145 68.8071C134.523 68.8136 135.838 69.5676 135.58 72.4289C135.329 75.2451 134.562 77.8745 133.666 80.4845C132.873 82.7916 130.959 83.6616 128.601 83.6551C125.707 83.6487 122.813 83.6551 119.926 83.6551Z" fill="#CF1920"/>
</g>
<defs>
<clipPath id="clip0_4886_46043">
<rect width="192" height="192" fill="white"/>
</clipPath>
</defs>
</svg>
