<svg width="192" height="192" viewBox="0 0 192 192" fill="none" xmlns="http://www.w3.org/2000/svg">
<g clip-path="url(#clip0_4886_46037)">
<path d="M96 192C149.019 192 192 149.019 192 96C192 42.9807 149.019 0 96 0C42.9807 0 0 42.9807 0 96C0 149.019 42.9807 192 96 192Z" fill="#E31542"/>
<path d="M166.439 96.0376C166.432 110.385 162.289 124.407 154.535 136.329C146.781 148.252 135.764 157.538 122.88 163.013C109.995 168.488 95.8221 169.906 82.1545 167.086C68.4869 164.266 55.9394 157.336 46.1005 147.173C36.2616 137.01 29.5736 124.07 26.8831 109.993C24.1927 95.9159 25.6208 81.3335 30.9866 68.092C36.3524 54.8505 45.4148 43.5452 57.0264 35.6074C68.638 27.6696 82.2767 23.4561 96.2161 23.5003C114.855 23.5987 132.699 31.2808 145.855 44.8704C159.011 58.4599 166.411 76.8536 166.439 96.0376ZM35.9111 96.0376C35.9039 108.269 39.421 120.229 46.0176 130.403C52.6142 140.577 61.994 148.51 72.9709 153.198C83.9478 157.885 96.0287 159.118 107.686 156.739C119.343 154.359 130.053 148.476 138.462 139.832C146.87 131.188 152.6 120.172 154.925 108.177C157.251 96.1814 156.068 83.7458 151.527 72.4423C146.985 61.1388 139.289 51.4752 129.412 44.6735C119.535 37.8718 107.919 34.2374 96.0352 34.23C80.111 34.2399 64.8402 40.7474 53.5699 52.3262C42.2997 63.9051 35.9494 79.6106 35.9111 96.0003V96.0376Z" fill="white"/>
<path d="M76.8435 123.868C71.491 123.853 66.2632 122.203 61.8223 119.128C57.3814 116.053 53.9272 111.69 51.8971 106.593C49.8671 101.495 49.3526 95.8924 50.4189 90.4938C51.4851 85.0952 54.0841 80.1438 57.8866 76.2666C61.6892 72.3895 66.5241 69.7611 71.7792 68.7145C77.0342 67.6678 82.4728 68.2499 87.4061 70.387C92.3394 72.5242 96.5455 76.1202 99.4916 80.7196C102.438 85.3191 103.991 90.715 103.955 96.2239C103.908 103.585 101.028 110.628 95.9464 115.809C90.865 120.99 83.9961 123.888 76.8435 123.868ZM93.5305 96.0003C93.5162 92.614 92.5275 89.308 90.6892 86.4995C88.851 83.6911 86.2455 81.5061 83.2017 80.2204C80.1579 78.9347 76.8123 78.6059 73.5871 79.2756C70.362 79.9452 67.4018 81.5833 65.0804 83.983C62.759 86.3827 61.1803 89.4364 60.5437 92.7587C59.9071 96.0811 60.241 99.5231 61.5034 102.65C62.7657 105.777 64.8999 108.45 67.6365 110.329C70.3732 112.209 73.5896 113.213 76.8797 113.213C79.0711 113.208 81.2401 112.759 83.2628 111.891C85.2856 111.023 87.1225 109.754 88.6686 108.156C90.2148 106.557 91.44 104.661 92.2742 102.576C93.1084 100.49 93.5353 98.2558 93.5305 96.0003Z" fill="white"/>
<path d="M138.68 68.2075C138.426 68.6546 138.282 68.9154 138.101 69.1762L121.088 95.2553C120.902 95.4783 120.8 95.7624 120.8 96.0563C120.8 96.3502 120.902 96.6344 121.088 96.8573C126.783 105.526 132.442 114.219 138.064 122.936L138.607 123.831L137.775 124.091H126.916C126.699 124.103 126.484 124.053 126.292 123.948C126.101 123.843 125.941 123.687 125.83 123.495L108.491 96.7828C108.353 96.6095 108.277 96.3923 108.277 96.1681C108.277 95.9439 108.353 95.7266 108.491 95.5533C114.283 86.6864 120.038 77.7823 125.83 68.8781C125.923 68.7265 126.044 68.5957 126.187 68.4933C126.33 68.3909 126.492 68.3191 126.662 68.282L138.68 68.2075Z" fill="white"/>
</g>
<defs>
<clipPath id="clip0_4886_46037">
<rect width="192" height="192" fill="white"/>
</clipPath>
</defs>
</svg>
