<svg width="192" height="192" viewBox="0 0 192 192" fill="none" xmlns="http://www.w3.org/2000/svg">
<g clip-path="url(#clip0_4886_46097)">
<path d="M96 192C149.019 192 192 149.019 192 96C192 42.9807 149.019 0 96 0C42.9807 0 0 42.9807 0 96C0 149.019 42.9807 192 96 192Z" fill="white"/>
<path fill-rule="evenodd" clip-rule="evenodd" d="M80.2907 76.4141H97.7468V112.35H117.642C121.382 112.35 123.423 109.612 122.396 106.048C120.341 98.919 111.69 96.1133 103.395 96.1133C103.395 89.9136 103.395 76.4481 103.395 76.4481L139.851 60.8667V79.7959L123.451 86.3624C130.873 90.5511 136.557 95.6008 138.34 101.51C140.619 109.473 139.316 119.281 132.583 125.673C127.355 130.637 122.69 130.12 117.642 130.466L80.2901 130.503V130.466H80.2012L80.2907 76.4141Z" fill="#F01436"/>
<path fill-rule="evenodd" clip-rule="evenodd" d="M54.3181 76.4131V108.092C54.3181 110.306 52.6393 112.124 50.493 112.328L41.4357 76.4137H26L35.1807 112.093H35.1146L35.1645 112.349H28.5285L32.0092 130.476L38.7751 130.481L38.7791 130.503L50.8625 130.492L50.8652 130.488C62.3784 130.407 71.6891 120.991 71.6891 109.382V76.4131H54.3181Z" fill="#F01436"/>
<path fill-rule="evenodd" clip-rule="evenodd" d="M166.001 130.503H148.537V79.0416L166.001 71.9644V130.503Z" fill="#F01436"/>
<path d="M163.528 53.7622C162.092 52.3179 160.148 51.5315 158.09 51.4988C158.081 51.4988 158.073 51.4971 158.063 51.4971C158.063 51.4971 158.053 51.4971 158.048 51.4971H158.043H158.036C158.028 51.4971 158.023 51.4971 158.023 51.4971C158.009 51.4971 158 51.4982 158 51.4982C155.932 51.4941 153.998 52.2694 152.537 53.688C151.074 55.1095 150.258 57.0133 150.24 59.0495C150.221 61.2335 150.948 63.2294 152.268 64.7146C151.547 65.0141 151.198 65.1688 150.383 65.4887C148.954 66.0491 148.255 67.651 148.822 69.0662C149.252 70.1402 150.287 70.7982 151.386 70.8076C151.735 70.8105 152.093 70.7551 152.435 70.6132C156.278 69.017 160.639 67.3043 162.368 65.9767C162.491 65.8827 162.849 65.6189 163.06 65.4268C165.057 63.5996 165.73 62.0157 165.757 58.98C165.774 56.9438 164.966 55.2094 163.528 53.7622ZM158.032 61.9375C156.53 61.9241 155.323 60.7075 155.336 59.2206C155.348 57.7331 156.576 56.5387 158.079 56.5515C159.581 56.5649 160.787 57.7815 160.775 59.2684C160.762 60.7553 159.533 61.9509 158.032 61.9375Z" fill="#02A0A4"/>
</g>
<defs>
<clipPath id="clip0_4886_46097">
<rect width="192" height="192" fill="white"/>
</clipPath>
</defs>
</svg>
