<svg width="192" height="192" viewBox="0 0 192 192" fill="none" xmlns="http://www.w3.org/2000/svg">
<g clip-path="url(#clip0_4886_46137)">
<path d="M96 192C149.019 192 192 149.019 192 96C192 42.9807 149.019 0 96 0C42.9807 0 0 42.9807 0 96C0 149.019 42.9807 192 96 192Z" fill="white"/>
<g clip-path="url(#clip1_4886_46137)">
<path d="M26.2779 94.7666C26.2779 85.52 26.2859 76.2655 26.2539 67.011C26.2539 66.1479 26.5256 65.8282 27.3328 65.5804C37.9939 62.2958 48.639 58.9792 59.2921 55.6626C71.3278 51.9304 83.3635 48.1902 95.3992 44.4341C95.9426 44.2662 96.4221 44.2582 96.9736 44.4341C112.765 49.357 128.565 54.272 144.357 59.187C151.262 61.3368 158.167 63.4946 165.088 65.6124C165.807 65.8282 165.999 66.1479 165.999 66.8671C165.975 85.4321 165.975 103.997 165.999 122.562C165.999 123.425 165.759 123.609 164.928 123.617C160.98 123.641 157.887 126.718 157.887 130.65C157.887 131.569 157.592 131.745 156.744 131.737C148.153 131.657 140.193 133.871 132.785 138.234C127.199 141.527 121.397 144.396 115.035 145.906C110.839 146.905 106.604 147.529 102.288 147.784C99.0994 147.976 95.9027 147.984 92.7139 147.904C82.9319 147.648 73.5415 145.762 64.8225 141.127C61.5858 139.401 58.429 137.531 55.1284 135.932C50.6609 133.775 45.9697 132.456 41.0228 132.008C39.1447 131.841 37.2666 131.817 35.3886 131.729C34.7572 131.697 34.5175 131.577 34.5015 130.882C34.4375 126.59 31.4806 123.641 27.1889 123.609C26.3818 123.609 26.2619 123.313 26.2619 122.61C26.2779 113.324 26.2779 104.045 26.2779 94.7586V94.7666ZM163.673 94.5268C163.673 85.8797 163.665 77.2405 163.689 68.5934C163.689 67.8501 163.458 67.5624 162.762 67.3466C151.925 64.006 141.096 60.6415 130.276 57.2689C119.143 53.8085 108.01 50.332 96.8857 46.8556C96.4141 46.7037 95.9906 46.6798 95.4951 46.8316C81.869 51.0753 68.243 55.3029 54.6169 59.5466C46.3374 62.12 38.0738 64.7333 29.7863 67.2667C28.8193 67.5624 28.5795 67.962 28.5795 68.913C28.6115 86.0395 28.6115 103.174 28.5795 120.3C28.5795 121.116 28.8512 121.355 29.5865 121.555C32.7992 122.434 35.0849 124.408 36.3476 127.517C36.5953 128.124 36.4115 129.02 37.0189 129.315C37.6103 129.603 38.3935 129.531 39.0888 129.531C43.724 129.555 48.1115 130.81 52.4511 132.256C55.1204 133.143 57.5819 134.526 60.0433 135.869C63.6556 137.843 67.22 139.888 71.0401 141.455C78.1688 144.372 85.6492 145.395 93.2734 145.627C96.0145 145.706 98.7557 145.667 101.505 145.515C105.685 145.283 109.808 144.739 113.892 143.82C120.126 142.414 125.784 139.625 131.235 136.42C138.547 132.112 146.355 129.555 154.882 129.411C155.418 129.403 155.53 129.195 155.65 128.708C156.601 124.896 159.086 122.554 162.826 121.523C163.529 121.331 163.681 121.02 163.681 120.348C163.657 111.733 163.665 103.126 163.665 94.5108L163.673 94.5268Z" fill="url(#paint0_linear_4886_46137)"/>
<path d="M158.696 94.399C158.696 101.831 158.688 109.264 158.712 116.696C158.712 117.431 158.512 117.831 157.841 118.175C155.339 119.445 153.533 121.451 152.198 123.873C151.895 124.416 151.567 124.616 150.952 124.664C143.24 125.271 136.175 127.861 129.494 131.673C125.122 134.166 120.711 136.596 115.86 138.082C111.888 139.297 107.82 140.032 103.68 140.328C100.819 140.528 97.95 140.704 95.0809 140.648C88.3038 140.512 81.5907 139.912 75.1253 137.651C71.1933 136.268 67.541 134.326 63.9287 132.28C58.6302 129.283 53.1797 126.694 47.1539 125.495C45.1799 125.104 43.19 124.848 41.192 124.656C40.7205 124.608 40.4568 124.456 40.233 124.041C38.8904 121.531 36.9643 119.573 34.4869 118.183C33.8795 117.839 33.6797 117.439 33.6797 116.744C33.7037 101.847 33.7037 86.9506 33.6797 72.0539C33.6797 71.3186 33.8955 71.0149 34.5987 70.7912C49.4556 66.2039 64.3044 61.6006 79.1532 56.9893C84.5077 55.327 89.8622 53.6487 95.2087 51.9544C95.8561 51.7466 96.4315 51.7386 97.0629 51.9384C104.631 54.312 112.207 56.6776 119.784 59.0352C127.959 61.5766 136.151 64.0381 144.303 66.6674C148.794 68.1139 153.341 69.3846 157.841 70.8151C158.512 71.0229 158.704 71.3346 158.704 72.0219C158.68 79.4863 158.688 86.9506 158.688 94.415L158.696 94.399ZM76.348 68.6014C76.0523 68.6334 75.8446 68.8971 75.6048 69.0809C70.7697 72.8451 65.9427 76.6092 61.1156 80.3734C59.6611 81.5082 58.2226 82.675 56.7361 83.7699C56.2806 84.1055 56.4244 84.3293 56.6882 84.593C58.0468 85.9996 59.1257 87.614 60.3404 89.1324C61.9148 91.1064 61.8988 91.1144 64.4162 91.1144C64.7679 91.1144 65.1195 91.0984 65.4712 91.1304C66.8218 91.2422 67.8128 91.9056 68.4122 93.1283C68.8677 94.0634 68.7798 94.1992 67.7568 94.1992C61.4992 94.1992 55.2416 94.1992 48.976 94.1992C48.7123 94.1992 48.4166 94.0873 48.0969 94.3511C49.9271 96.6527 51.7492 98.9304 53.5633 101.224C53.7791 101.496 54.0508 101.48 54.3386 101.48C61.3314 101.48 68.3242 101.48 75.3171 101.488C75.9005 101.488 75.9964 101.256 75.9804 100.761C75.9485 99.6976 75.9724 98.6347 75.9724 97.34C78.4659 100.097 80.7995 102.679 83.3089 105.452C83.3089 104.269 83.3649 103.358 83.2929 102.455C83.229 101.648 83.5087 101.424 84.2999 101.464C87.2569 101.624 89.9182 100.816 92.1958 98.8824C92.4995 98.6267 92.7952 98.355 93.2028 98.0033C93.2028 99.0503 93.2268 99.9374 93.1948 100.824C93.1788 101.32 93.3227 101.504 93.8342 101.488C95.1128 101.44 96.3995 101.528 97.6622 101.392C99.6362 101.176 101.474 100.529 103.009 99.2101C103.464 98.8185 103.768 98.8664 104.216 99.2261C106.022 100.673 108.1 101.464 110.401 101.48C117.266 101.528 124.131 101.504 130.996 101.52C131.548 101.52 131.699 101.344 131.691 100.816C131.667 98.9384 131.651 97.0523 131.699 95.1742C131.723 94.407 131.532 94.1593 130.716 94.1593C124.139 94.1992 117.562 94.1912 110.977 94.1752C108.795 94.1752 107.308 92.6888 107.26 90.499C107.236 89.2203 107.228 87.9496 107.26 86.6709C107.276 86.1435 107.133 85.9437 106.565 85.9517C104.583 85.9836 102.601 85.9836 100.627 85.9517C100.076 85.9517 99.9159 86.1275 99.9319 86.6629C99.9639 88.0056 99.9799 89.3402 99.9319 90.6828C99.844 92.8326 98.1178 94.3431 95.984 94.1992C95.6963 94.1832 95.3526 94.2312 95.5124 93.7517C96.2877 91.4261 95.928 89.0285 96.0239 86.6549C96.0479 86.1035 95.8641 85.9437 95.3286 85.9517C93.3467 85.9756 91.3647 85.9756 89.3907 85.9517C88.8952 85.9517 88.7194 86.0795 88.7354 86.591C88.7673 87.8697 88.7593 89.1404 88.7434 90.4191C88.7194 92.6648 87.1929 94.2312 84.9632 94.2552C82.246 94.2791 79.5368 94.2392 76.8196 94.2791C76.1962 94.2871 76.0044 94.0873 75.9325 93.4879C75.397 88.9166 72.8636 85.9357 68.596 84.3453C68.4441 84.2894 68.2124 84.3133 68.1564 84.0256C70.7458 82.0357 73.3351 80.0457 75.9405 78.0557C76.1802 77.8719 76.356 77.6721 76.356 77.3604C76.356 74.4434 76.356 71.5184 76.356 68.5854L76.348 68.6014ZM135.871 90.491C135.871 93.7916 135.855 96.8205 135.879 99.8414C135.879 100.649 135.615 101.288 135.12 101.919C134.537 102.663 133.825 103.222 133.026 103.686C131.875 104.365 130.708 105.02 129.55 105.699C129.254 105.867 128.942 105.987 128.942 106.459C128.966 109.088 128.95 111.725 128.95 114.451C129.326 114.259 129.614 114.131 129.877 113.971C132.467 112.397 135.056 110.822 137.645 109.24C138.892 108.473 140.147 107.697 141.186 106.642C142.464 105.348 143.248 103.845 143.208 101.975C143.184 100.92 143.08 99.8494 143.232 98.8265C143.551 96.6287 142.824 95.1423 140.834 94.0314C139.132 93.0804 137.637 91.7777 135.863 90.491H135.871ZM138.764 86.567C139.483 85.7119 140.339 85.0965 140.938 84.2654C141.729 83.1705 142.824 82.2514 143.096 80.8289C143.431 79.1346 142.952 77.7041 141.545 76.7051C140.155 75.7061 138.516 75.6342 137.134 76.4733C135.783 77.2965 135.064 78.7111 135.304 80.4053C135.535 82.0436 136.471 83.1545 138.021 83.658C138.612 83.8498 138.836 84.0736 138.772 84.6969C138.708 85.3123 138.756 85.9437 138.756 86.567H138.764ZM98.2536 83.0666C100.316 83.0826 101.922 81.5402 101.962 79.5182C102.002 77.5043 100.403 75.866 98.3735 75.826C96.3356 75.794 94.7053 77.3684 94.6893 79.3984C94.6733 81.4682 96.2157 83.0506 98.2536 83.0666ZM93.1788 107.61C93.1788 105.564 91.5805 103.981 89.5346 103.989C87.5126 104.005 85.8823 105.636 85.8983 107.641C85.9143 109.647 87.5526 111.27 89.5665 111.262C91.6044 111.254 93.1788 109.655 93.1708 107.61H93.1788ZM100.843 107.61C100.843 105.588 99.2047 103.981 97.1827 103.997C95.1528 104.013 93.5385 105.644 93.5544 107.657C93.5704 109.663 95.2167 111.278 97.2387 111.262C99.2526 111.246 100.859 109.631 100.851 107.61H100.843ZM105.918 75.826C103.872 75.85 102.305 77.4563 102.321 79.5102C102.337 81.5242 103.984 83.1305 106.014 83.1066C107.98 83.0826 109.618 81.4523 109.618 79.5102C109.618 77.4563 107.956 75.802 105.918 75.826ZM73.8066 121.347C73.7027 120.5 74.0464 120.428 74.5499 120.452C75.445 120.492 76.34 120.468 77.2271 120.46C77.7946 120.46 78.4099 120.476 78.4019 121.228C78.386 121.923 77.8026 121.931 77.2671 121.931C75.8605 121.931 74.462 121.955 73.0554 121.915C72.48 121.899 72.2642 122.043 72.2962 122.658C72.3521 123.609 72.3361 124.568 72.2962 125.527C72.2722 126.119 72.3202 126.438 73.0714 126.446C73.8786 126.454 73.8466 126.047 73.8146 125.503C73.7907 125.152 73.7667 124.792 73.8226 124.456C73.8786 124.121 73.5589 123.545 74.0784 123.497C74.6777 123.433 75.405 123.138 75.8605 123.953C76.404 124.92 77.1073 125.807 77.5948 126.806C78.1302 127.901 78.8815 128.268 80.0962 127.933C79.2011 126.47 78.314 125.008 77.411 123.521C79.1851 123.273 80.0243 122.41 79.9284 121.02C79.8325 119.733 78.8415 118.998 77.1872 118.99C76.42 118.99 75.6528 118.99 74.8935 118.99H72.3441C72.8556 119.821 73.2552 120.46 73.8066 121.355V121.347ZM98.6692 118.982C96.7911 118.982 94.977 118.926 93.1788 118.998C91.988 119.046 91.093 120.117 91.1249 121.244C91.1569 122.418 92.1319 123.393 93.3546 123.433C94.2817 123.465 95.2008 123.441 96.1278 123.433C96.6713 123.433 97.2227 123.473 97.2067 124.185C97.1907 124.888 96.6313 124.92 96.0958 124.92C94.6573 124.92 93.2268 124.936 91.7882 124.912C91.3167 124.912 91.085 125.008 91.1089 125.543C91.1489 126.254 91.1169 126.974 91.1169 127.685C91.4046 127.685 91.4446 127.509 91.5085 127.373C91.8522 126.574 92.4356 126.294 93.3147 126.366C94.2977 126.446 95.2887 126.398 96.2797 126.382C97.7821 126.358 98.7252 125.495 98.7252 124.169C98.7252 122.842 97.7581 121.947 96.2956 121.923C95.4325 121.907 94.5694 121.915 93.7143 121.923C93.1868 121.923 92.6993 121.819 92.6913 121.204C92.6913 120.596 93.1469 120.436 93.6903 120.444C94.6493 120.452 95.6163 120.348 96.5594 120.468C97.7661 120.628 98.2456 119.965 98.6772 118.966L98.6692 118.982ZM118.641 122.482C119.064 121.787 119.504 121.164 119.848 120.484C120.359 119.485 120.031 118.942 118.968 118.942C117.562 118.942 116.163 118.918 114.757 118.958C113.39 118.99 112.503 119.797 112.423 121.124C112.359 122.171 112.359 123.226 112.423 124.272C112.511 125.559 113.39 126.358 114.693 126.398C115.716 126.43 116.731 126.414 117.754 126.398C118.585 126.398 119.232 126.023 119.664 125.319C119.864 125 120.143 124.6 119.927 124.264C119.704 123.921 119.224 124.153 118.857 124.113C118.657 124.089 118.497 124.169 118.417 124.392C118.281 124.784 117.945 124.88 117.57 124.88C116.643 124.88 115.716 124.88 114.797 124.88C114.205 124.88 113.926 124.552 113.918 123.977C113.918 123.657 113.918 123.337 113.918 123.018C113.91 120.173 113.718 120.444 116.483 120.444C117.74 120.444 118.401 121.073 118.465 122.33C118.465 122.33 118.505 122.362 118.625 122.466L118.641 122.482ZM89.3348 121.963C89.3348 121.196 89.2868 120.428 89.3507 119.669C89.3987 119.03 89.127 118.934 88.5835 118.942C88.0401 118.942 87.7843 119.03 87.8083 119.669C87.8643 121.068 87.8083 122.474 87.8323 123.881C87.8483 124.616 87.5046 124.936 86.7934 124.92C86.0261 124.912 85.2589 124.888 84.4917 124.92C83.5806 124.968 83.221 124.568 83.237 123.673C83.269 122.274 83.221 120.868 83.253 119.461C83.269 118.806 82.8374 118.942 82.4858 118.95C82.1421 118.958 81.6866 118.782 81.6946 119.445C81.7186 121.036 81.6546 122.634 81.7265 124.225C81.7825 125.479 82.7335 126.334 83.9882 126.374C85.0112 126.406 86.0341 126.406 87.0491 126.374C88.4077 126.326 89.2868 125.407 89.3108 124.049C89.3188 123.345 89.3108 122.642 89.3108 121.947L89.3348 121.963ZM100.092 118.974C100.704 120.05 101.709 120.607 103.105 120.644C103.105 121.883 103.193 123.138 103.081 124.368C102.945 125.791 103.808 126.67 104.607 127.933C104.607 125.535 104.639 123.433 104.591 121.339C104.575 120.596 104.807 120.428 105.51 120.452C106.861 120.492 107.037 120.325 107.46 118.982H100.1L100.092 118.974ZM110.617 127.717C110.617 125.959 110.609 124.248 110.617 122.538C110.617 122.147 110.513 121.899 110.09 121.987C109.738 122.059 109.099 121.691 109.091 122.33C109.067 124.24 108.667 126.27 110.609 127.717H110.617ZM110.601 119.749C110.745 119.118 110.505 118.918 109.858 118.926C109.242 118.926 109.043 119.086 109.059 119.733C109.075 120.301 109.186 120.532 109.794 120.492C110.305 120.452 110.809 120.524 110.601 119.757V119.749Z" fill="url(#paint1_linear_4886_46137)"/>
<path d="M76.347 68.6011C76.347 71.5341 76.347 74.4591 76.347 77.3761C76.347 77.6798 76.1712 77.8876 75.9314 78.0714C73.3261 80.0614 70.7367 82.0593 68.1474 84.0413C68.2033 84.337 68.4351 84.305 68.5869 84.361C72.8546 85.9513 75.388 88.9403 75.9234 93.5036C75.9953 94.095 76.1871 94.3028 76.8105 94.2948C79.5277 94.2548 82.237 94.2948 84.9542 94.2708C87.1839 94.2468 88.7103 92.6804 88.7343 90.4347C88.7503 89.156 88.7583 87.8853 88.7263 86.6067C88.7103 86.0952 88.8862 85.9593 89.3816 85.9673C91.3636 85.9913 93.3456 85.9913 95.3196 85.9673C95.863 85.9673 96.0388 86.1192 96.0149 86.6706C95.911 89.0442 96.2706 91.4417 95.5034 93.7673C95.3436 94.2388 95.6872 94.1909 95.9749 94.2149C98.1087 94.3587 99.835 92.8483 99.9229 90.6985C99.9788 89.3638 99.9628 88.0212 99.9229 86.6786C99.9069 86.1431 100.059 85.9593 100.618 85.9673C102.6 85.9913 104.582 85.9913 106.556 85.9673C107.116 85.9593 107.259 86.1511 107.251 86.6866C107.219 87.9653 107.227 89.236 107.251 90.5147C107.299 92.7044 108.794 94.1829 110.968 94.1909C117.545 94.1989 124.122 94.2069 130.707 94.1749C131.523 94.1749 131.714 94.4147 131.69 95.1899C131.634 97.068 131.65 98.954 131.682 100.832C131.682 101.368 131.539 101.543 130.987 101.535C124.122 101.511 117.257 101.535 110.392 101.495C108.091 101.479 106.005 100.688 104.206 99.2417C103.759 98.8821 103.455 98.8341 103 99.2257C101.465 100.536 99.6272 101.192 97.6532 101.408C96.3905 101.543 95.1038 101.455 93.8251 101.503C93.3136 101.519 93.1618 101.336 93.1858 100.84C93.2177 99.953 93.1938 99.0659 93.1938 98.019C92.7862 98.3786 92.4905 98.6423 92.1868 98.8981C89.9091 100.832 87.2478 101.639 84.2909 101.479C83.4997 101.439 83.22 101.671 83.2839 102.47C83.3558 103.374 83.2999 104.293 83.2999 105.467C80.7904 102.686 78.4568 100.113 75.9634 97.3557C75.9634 98.6503 75.9394 99.7133 75.9714 100.776C75.9874 101.28 75.8915 101.511 75.308 101.503C68.3152 101.487 61.3224 101.495 54.3295 101.495C54.0418 101.495 53.7701 101.511 53.5543 101.24C51.7402 98.946 49.918 96.6604 48.0879 94.3667C48.3996 94.103 48.6953 94.2149 48.967 94.2149C55.2246 94.2069 61.4822 94.2149 67.7478 94.2149C68.7787 94.2149 68.8666 94.079 68.4031 93.144C67.8037 91.9292 66.8127 91.2579 65.4621 91.146C65.1105 91.114 64.7588 91.13 64.4072 91.13C61.8898 91.13 61.8978 91.122 60.3314 89.1481C59.1246 87.6296 58.0377 86.0073 56.6791 84.6087C56.4154 84.337 56.2795 84.1132 56.7271 83.7855C58.2135 82.6907 59.6521 81.5239 61.1066 80.389C65.9336 76.6249 70.7687 72.8527 75.5958 69.0966C75.8355 68.9128 76.0433 68.649 76.339 68.6171L76.347 68.6011Z" fill="#201E1E"/>
<path d="M135.87 90.4907C137.644 91.7774 139.147 93.0801 140.841 94.0311C142.831 95.142 143.558 96.6205 143.239 98.8262C143.087 99.8571 143.191 100.928 143.215 101.975C143.255 103.845 142.471 105.348 141.193 106.642C140.154 107.697 138.899 108.464 137.652 109.24C135.071 110.822 132.482 112.396 129.884 113.971C129.621 114.131 129.333 114.258 128.957 114.45C128.957 111.725 128.965 109.088 128.949 106.458C128.949 105.995 129.261 105.875 129.557 105.699C130.715 105.028 131.882 104.373 133.033 103.685C133.832 103.214 134.543 102.654 135.127 101.919C135.622 101.296 135.894 100.648 135.886 99.8412C135.862 96.8123 135.878 93.7834 135.878 90.4907H135.87Z" fill="#201E1E"/>
<path d="M138.763 86.5668C138.763 85.9435 138.715 85.3121 138.779 84.6967C138.843 84.0734 138.62 83.8576 138.028 83.6578C136.478 83.1543 135.543 82.0434 135.311 80.4051C135.071 78.7108 135.798 77.2883 137.141 76.4731C138.524 75.634 140.162 75.7059 141.553 76.7049C142.951 77.7119 143.431 79.1424 143.103 80.8287C142.823 82.2512 141.736 83.1623 140.945 84.2652C140.346 85.0963 139.491 85.7117 138.771 86.5668H138.763ZM139.227 81.1963C139.946 81.1963 140.498 80.6609 140.514 79.9336C140.53 79.2063 140.01 78.6389 139.291 78.607C138.532 78.575 137.94 79.1584 137.948 79.9176C137.956 80.6369 138.508 81.1883 139.227 81.1963Z" fill="#201E1E"/>
<path d="M98.2539 83.0585C96.208 83.0425 94.6736 81.4601 94.6896 79.3902C94.7056 77.3603 96.3359 75.7859 98.3738 75.8179C100.404 75.8498 102.002 77.4961 101.962 79.5101C101.922 81.532 100.316 83.0744 98.2539 83.0585Z" fill="#201E1E"/>
<path d="M93.1711 107.609C93.1711 109.655 91.6047 111.253 89.5668 111.261C87.5529 111.269 85.9145 109.655 85.8986 107.641C85.8826 105.643 87.5129 104.005 89.5348 103.989C91.5728 103.973 93.1711 105.563 93.1791 107.609H93.1711Z" fill="#201E1E"/>
<path d="M100.834 107.601C100.834 109.623 99.2354 111.245 97.2215 111.253C95.1995 111.269 93.5532 109.655 93.5372 107.649C93.5212 105.635 95.1356 104.013 97.1655 103.989C99.1874 103.973 100.826 105.579 100.826 107.601H100.834Z" fill="#201E1E"/>
<path d="M105.909 75.8181C107.947 75.7942 109.617 77.4485 109.609 79.5024C109.609 81.4444 107.971 83.0827 106.005 83.0987C103.975 83.1227 102.337 81.5163 102.313 79.5024C102.297 77.4485 103.863 75.8421 105.909 75.8181Z" fill="#201E1E"/>
<path d="M73.7981 121.339C73.2467 120.452 72.8551 119.813 72.3356 118.974H74.885C75.6522 118.974 76.4194 118.974 77.1787 118.974C78.841 118.974 79.832 119.709 79.9199 121.004C80.0238 122.394 79.1766 123.265 77.4024 123.505C78.3055 124.991 79.1926 126.454 80.0877 127.916C78.8729 128.252 78.1137 127.877 77.5862 126.79C77.0987 125.791 76.3955 124.904 75.852 123.937C75.3965 123.121 74.6692 123.425 74.0698 123.481C73.5504 123.537 73.87 124.104 73.8141 124.44C73.7582 124.784 73.7821 125.143 73.8061 125.487C73.8381 126.03 73.87 126.438 73.0629 126.43C72.3116 126.422 72.2637 126.102 72.2877 125.511C72.3276 124.56 72.3356 123.593 72.2877 122.642C72.2557 122.027 72.4795 121.891 73.0469 121.899C74.4535 121.939 75.852 121.907 77.2586 121.915C77.794 121.915 78.3774 121.915 78.3934 121.211C78.4094 120.452 77.794 120.436 77.2186 120.444C76.3235 120.444 75.4285 120.476 74.5414 120.436C74.0379 120.412 73.6942 120.484 73.7981 121.331V121.339Z" fill="#201E1E"/>
<path d="M98.6609 118.974C98.2294 119.973 97.7499 120.636 96.5431 120.476C95.6001 120.349 94.6331 120.46 93.674 120.452C93.1306 120.452 92.6671 120.604 92.6751 121.212C92.6751 121.827 93.1705 121.939 93.698 121.931C94.5611 121.923 95.4242 121.915 96.2794 121.931C97.7419 121.955 98.7089 122.85 98.7089 124.177C98.7089 125.503 97.7658 126.366 96.2634 126.39C95.2724 126.406 94.2814 126.454 93.2984 126.374C92.4193 126.302 91.8359 126.574 91.4923 127.381C91.4363 127.509 91.3884 127.693 91.1007 127.693C91.1007 126.982 91.1326 126.263 91.0927 125.551C91.0607 125.016 91.3005 124.912 91.772 124.92C93.2105 124.944 94.641 124.92 96.0796 124.928C96.615 124.928 97.1745 124.896 97.1904 124.193C97.2064 123.481 96.663 123.433 96.1115 123.441C95.1845 123.441 94.2574 123.465 93.3384 123.441C92.1156 123.401 91.1406 122.426 91.1087 121.252C91.0767 120.125 91.9718 119.054 93.1626 119.006C94.9687 118.934 96.7749 118.99 98.6529 118.99L98.6609 118.974Z" fill="#201E1E"/>
<path d="M118.633 122.474C118.513 122.37 118.473 122.354 118.473 122.338C118.409 121.081 117.748 120.452 116.491 120.452C113.718 120.452 113.909 120.189 113.925 123.026C113.925 123.345 113.925 123.665 113.925 123.985C113.933 124.56 114.213 124.88 114.804 124.888C115.732 124.888 116.659 124.888 117.578 124.888C117.953 124.888 118.281 124.792 118.425 124.4C118.505 124.177 118.657 124.105 118.864 124.121C119.232 124.161 119.711 123.921 119.935 124.272C120.151 124.608 119.871 125.008 119.671 125.327C119.24 126.031 118.593 126.398 117.761 126.406C116.738 126.414 115.716 126.438 114.701 126.406C113.398 126.366 112.519 125.567 112.431 124.28C112.359 123.234 112.359 122.179 112.431 121.132C112.519 119.805 113.406 118.998 114.765 118.966C116.171 118.926 117.57 118.958 118.976 118.95C120.039 118.95 120.367 119.493 119.855 120.492C119.512 121.172 119.072 121.795 118.649 122.49L118.633 122.474Z" fill="#201E1E"/>
<path d="M89.3265 121.955C89.3265 122.658 89.3345 123.361 89.3265 124.057C89.3026 125.415 88.4235 126.334 87.0648 126.382C86.0419 126.414 85.0189 126.414 84.004 126.382C82.7413 126.334 81.7982 125.487 81.7423 124.232C81.6704 122.642 81.7423 121.044 81.7103 119.453C81.7023 118.79 82.1579 118.966 82.5015 118.958C82.8532 118.95 83.2847 118.814 83.2687 119.469C83.2368 120.868 83.2847 122.274 83.2528 123.681C83.2288 124.576 83.5964 124.976 84.5075 124.928C85.2747 124.888 86.0419 124.912 86.8091 124.928C87.5204 124.936 87.856 124.624 87.8481 123.889C87.8241 122.482 87.88 121.084 87.8241 119.677C87.8001 119.038 88.0558 118.95 88.5993 118.95C89.1507 118.95 89.4224 119.038 89.3665 119.677C89.3026 120.436 89.3505 121.204 89.3505 121.971L89.3265 121.955Z" fill="#201E1E"/>
<path d="M100.074 118.974H107.435C107.011 120.316 106.835 120.492 105.485 120.444C104.79 120.42 104.55 120.596 104.566 121.331C104.622 123.425 104.582 125.527 104.582 127.925C103.783 126.662 102.927 125.783 103.055 124.36C103.167 123.13 103.079 121.883 103.079 120.636C101.683 120.599 100.679 120.042 100.066 118.966L100.074 118.974Z" fill="#201E1E"/>
<path d="M110.608 127.709C108.674 126.262 109.065 124.224 109.089 122.322C109.097 121.683 109.736 122.05 110.088 121.979C110.512 121.891 110.616 122.138 110.616 122.53C110.6 124.24 110.616 125.95 110.616 127.709H110.608Z" fill="#201E1E"/>
<path d="M110.584 119.749C110.792 120.516 110.289 120.444 109.777 120.484C109.17 120.532 109.058 120.301 109.042 119.725C109.026 119.078 109.226 118.926 109.841 118.918C110.488 118.918 110.728 119.11 110.584 119.741V119.749Z" fill="#201E1E"/>
<path d="M139.218 81.1883C138.499 81.1883 137.948 80.6288 137.94 79.9096C137.932 79.1503 138.523 78.5669 139.282 78.5989C140.001 78.6309 140.521 79.1983 140.505 79.9256C140.489 80.6528 139.937 81.1963 139.218 81.1883Z" fill="#F1CD65"/>
</g>
</g>
<defs>
<linearGradient id="paint0_linear_4886_46137" x1="26.2539" y1="96.1332" x2="165.999" y2="96.1332" gradientUnits="userSpaceOnUse">
<stop stop-color="#FFCD57"/>
<stop offset="0.37" stop-color="#FFDD6C"/>
<stop offset="0.49" stop-color="#F4CF64"/>
<stop offset="0.82" stop-color="#DEB054"/>
<stop offset="1" stop-color="#D6A54F"/>
</linearGradient>
<linearGradient id="paint1_linear_4886_46137" x1="33.6877" y1="96.2132" x2="158.712" y2="96.2132" gradientUnits="userSpaceOnUse">
<stop stop-color="#FFCD57"/>
<stop offset="0.37" stop-color="#FFDD6C"/>
<stop offset="0.49" stop-color="#F4CF64"/>
<stop offset="0.82" stop-color="#DEB054"/>
<stop offset="1" stop-color="#D6A54F"/>
</linearGradient>
<clipPath id="clip0_4886_46137">
<rect width="192" height="192" fill="white"/>
</clipPath>
<clipPath id="clip1_4886_46137">
<rect width="140" height="103.944" fill="white" transform="translate(26 44.0283)"/>
</clipPath>
</defs>
</svg>
