<svg width="192" height="192" viewBox="0 0 192 192" fill="none" xmlns="http://www.w3.org/2000/svg">
<g clip-path="url(#clip0_4886_46062)">
<path d="M90.1393 0.0139757H98.5409C99.3719 -0.0499496 100.185 0.123562 101.007 0.169223C103.052 0.278809 105.093 0.447755 107.13 0.680625C113.28 1.37467 119.303 2.68058 125.202 4.55267C130.526 6.23756 135.659 8.38363 140.599 10.9909C144.713 13.1643 148.654 15.6072 152.425 18.3377C156.014 20.9358 159.384 23.7896 162.594 26.8352C165.078 29.1913 167.393 31.7164 169.594 34.3373C173.005 38.4011 176.069 42.7115 178.763 47.2822C181.498 51.9168 183.836 56.7523 185.758 61.7795C187.534 66.4324 188.945 71.1948 189.959 76.0714C190.991 81.0485 191.721 86.0575 191.867 91.1441C191.886 91.7149 191.867 92.2902 191.991 92.8564V99.3037C191.959 99.5731 191.918 99.8425 191.904 100.116C191.858 101.139 191.854 102.167 191.776 103.185C191.443 107.523 190.858 111.824 189.94 116.084C188.945 120.71 187.63 125.235 185.977 129.668C183.941 135.138 181.416 140.371 178.416 145.371C175.571 150.115 172.334 154.576 168.713 158.759C164.548 163.567 159.955 167.932 154.937 171.845C151.466 174.553 147.823 177.01 144.01 179.206C141.175 180.84 138.257 182.315 135.271 183.658C131.504 185.347 127.65 186.786 123.696 187.973C116.705 190.069 109.563 191.352 102.276 191.808C101.281 191.872 100.276 191.849 99.2897 192H92.9885C91.8196 191.927 90.6461 191.854 89.4772 191.776C85.007 191.484 80.5779 190.877 76.199 189.945C70.9571 188.831 65.8431 187.301 60.8615 185.324C55.8799 183.347 51.09 180.996 46.5102 178.21C42.1496 175.557 38.0127 172.594 34.1133 169.297C30.6933 166.402 27.4925 163.284 24.5062 159.955C21.7711 156.905 19.2461 153.681 16.9356 150.289C13.6892 145.531 10.8627 140.54 8.51577 135.275C6.86284 131.577 5.42909 127.792 4.2556 123.915C3.15974 120.303 2.28305 116.632 1.6301 112.911C1.02737 109.463 0.593592 105.993 0.365288 102.5C0.273966 101.135 0.310494 99.7558 0 98.4042V93.6052C0.050227 93.0345 0.228305 92.4911 0.251135 91.9112C0.442911 86.6328 1.09586 81.4046 2.18259 76.2404C3.37434 70.583 5.04553 65.0626 7.24639 59.7157C9.26461 54.8117 11.6572 50.0949 14.4517 45.5882C18.1639 39.602 22.4789 34.0953 27.3966 29.0452C32.6476 23.6526 38.4283 18.9176 44.7797 14.8857C49.8298 11.6803 55.1402 8.96809 60.7062 6.76723C68.5051 3.68055 76.5688 1.63951 84.9065 0.685192C86.4453 0.507114 87.9886 0.356433 89.532 0.255979C89.742 0.24228 90.0571 0.388395 90.1438 0.0139757H90.1393ZM140.234 46.9717C140.133 46.7343 140.375 46.6384 140.439 46.4649C140.613 45.99 140.462 45.4968 140.038 45.2366C139.681 45.0174 139.179 45.095 138.891 45.4147C138.563 45.7799 138.567 46.2913 138.878 46.7023C138.983 46.8393 139.252 46.8575 139.193 47.1178C138.974 47.2137 138.759 47.0676 138.535 47.1041C138.138 47.168 137.846 47.4146 137.75 47.8073C137.659 48.1771 137.755 48.5059 138.028 48.7662C138.298 49.0219 138.732 49.0721 139.074 48.8712C139.261 48.7616 139.417 48.5972 139.686 48.3689C139.741 48.4694 139.777 48.6064 139.869 48.684C140.238 49.0082 140.677 49.0493 141.033 48.821C141.348 48.6201 141.517 48.2182 141.444 47.8438C141.366 47.4466 141.079 47.1726 140.627 47.0813C140.49 47.0539 140.321 47.1315 140.229 46.958L140.234 46.9717ZM179.228 84.9114C179.283 84.9616 179.297 84.9616 179.269 84.9068C179.269 84.9068 179.237 84.9205 179.219 84.9296C179.324 84.7059 179.114 84.6192 179.009 84.505C178.393 83.8475 177.749 83.2219 177.146 82.5507C175.187 80.3727 172.945 78.5691 170.356 77.1901C166.402 75.0806 162.188 73.6925 157.873 72.5875C150.763 70.7702 143.517 69.7611 136.225 69.0305C130.257 68.4323 124.271 68.0762 118.28 67.8525C114.76 67.72 111.235 67.6424 107.714 67.5967C101.139 67.5054 94.5684 67.5876 87.9978 67.7109C86.1987 67.7429 84.3997 67.7885 82.6052 67.8525C79.2857 67.9712 75.9661 68.1082 72.6466 68.2451C70.1261 68.3502 67.6056 68.4597 65.0851 68.5922C62.0669 68.752 59.0533 68.9392 56.0351 69.1173C53.9895 69.2405 51.9485 69.3684 49.9028 69.5008C49.3777 69.5328 49.3778 69.5465 49.3595 70.0716C49.3093 71.446 49.2636 72.8158 49.2225 74.1902C49.1631 76.0897 49.0992 77.9846 49.0536 79.8841C49.0262 81.0941 48.8389 81.0987 50.1175 80.9023C50.2179 80.8886 50.3184 80.8841 50.4143 80.8749C54.7657 80.4503 59.1127 80.0211 63.4641 79.6101C68.0622 79.1764 72.6694 78.8111 77.2812 78.4914C80.7696 78.2494 84.2581 78.0348 87.7512 77.8385C91.194 77.6422 94.6323 77.4641 98.0751 77.3043C100.294 77.2038 102.518 77.1764 104.742 77.0897C108.888 76.9253 113.034 76.9253 117.18 76.8431C119.125 76.802 121.075 76.8203 123.024 76.8796C125.673 76.9618 128.321 76.9481 130.969 77.0394C133.791 77.1353 136.613 77.2403 139.43 77.4047C143.919 77.6696 148.398 78.044 152.864 78.5828C157.284 79.117 161.667 79.8339 166.014 80.7928C170.274 81.7334 174.379 83.1397 178.443 84.6968C178.699 84.7927 178.945 84.9296 179.233 84.9114H179.228ZM95.7145 126.577C95.9108 126.577 95.9793 126.655 96.0478 126.728C97.1665 127.951 98.5637 128.445 100.208 128.422C103.28 128.376 106.353 128.381 109.431 128.376C114.655 128.371 119.878 128.381 125.102 128.371C127.832 128.367 130.394 127.7 132.736 126.271C133.102 126.047 133.357 126.02 133.727 126.289C135.517 127.586 137.558 128.23 139.741 128.367C143.9 128.627 147.636 127.449 150.932 124.892C151.412 124.518 151.416 124.509 151.823 124.919C153.092 126.216 154.603 127.129 156.334 127.641C160.38 128.837 164.416 128.764 168.425 127.44C168.589 127.385 168.754 127.317 168.918 127.257C169.151 127.175 169.311 127.207 169.311 127.504C169.311 127.627 169.324 127.755 169.311 127.878C169.265 128.285 169.466 128.39 169.84 128.385C172.69 128.376 175.539 128.376 178.388 128.385C178.772 128.385 178.932 128.262 178.904 127.865C178.854 127.166 178.827 126.467 178.799 125.769C178.694 123.248 178.521 120.728 178.511 118.207C178.475 109.258 178.493 100.313 178.493 91.3633C178.493 91.0117 178.48 90.6647 178.493 90.3131C178.511 89.9478 178.333 89.8199 177.995 89.8428C177.895 89.8519 177.795 89.8428 177.694 89.8428C174.767 89.8428 171.845 89.8428 168.918 89.8428C168.009 89.8428 168.032 89.7195 168.032 90.7377C168.032 90.7879 168.032 90.8382 168.032 90.8884C168.032 98.4864 168.032 106.084 168.023 113.682C168.023 114.084 168.023 114.481 167.996 114.883C167.786 117.637 165.206 119.577 162.494 119.043C160.343 118.618 158.768 116.664 158.772 114.5C158.8 106.6 158.781 98.701 158.777 90.8062C158.777 90.6053 158.777 90.4044 158.777 90.208C158.777 89.9615 158.649 89.8473 158.402 89.8519C158.252 89.8519 158.101 89.8519 157.95 89.8519C154.877 89.8519 151.8 89.8519 148.727 89.8519C147.741 89.8519 147.85 89.8291 147.85 90.7606C147.85 98.3585 147.85 105.957 147.85 113.554C147.85 114.052 147.832 114.554 147.777 115.048C147.494 117.769 144.905 119.618 142.22 119.034C140.065 118.563 138.576 116.723 138.576 114.509C138.576 106.609 138.576 98.7101 138.576 90.8153C138.576 90.6144 138.572 90.4135 138.576 90.2172C138.581 89.966 138.453 89.8565 138.211 89.861C138.088 89.861 137.96 89.861 137.837 89.861C134.864 89.861 131.887 89.861 128.915 89.861C128.791 89.861 128.663 89.8656 128.54 89.861C128.257 89.8519 128.125 89.9797 128.134 90.2628C128.143 90.4363 128.134 90.6144 128.134 90.7879C128.129 97.8608 128.12 104.934 128.115 112.007C128.115 113.084 128.015 114.153 127.8 115.207C127.335 117.532 126.216 118.554 123.864 118.851C123.093 118.947 122.321 118.974 121.545 118.974C116.522 118.965 111.495 118.947 106.472 118.938C104.545 118.933 102.623 118.938 100.696 118.933C98.7738 118.924 97.5637 118.061 96.8697 116.258C96.4222 115.098 96.2807 113.888 96.1848 112.664C95.9839 110.02 96.13 107.367 95.993 104.724C95.8971 102.824 95.7236 100.938 95.2487 99.0891C94.3309 95.5367 92.3082 92.8564 88.9019 91.4044C83.4454 89.0802 77.9524 89.1076 72.5552 91.5961C69.7928 92.8701 67.8019 94.9613 66.7837 97.8837C66.5189 98.6371 66.2997 99.4087 66.1262 100.19C65.4824 103.112 65.2952 106.071 65.5052 109.052C65.6513 111.103 65.9618 113.121 66.5828 115.089C66.8065 115.806 67.0896 116.495 67.4001 117.18C68.4777 119.563 70.3178 121.061 72.7881 121.824C75.2949 122.595 77.8519 122.65 80.4318 122.358C81.7514 122.207 83.0481 121.956 84.3084 121.522C84.6828 121.394 85.0481 121.248 85.5001 121.079C85.5321 122.226 85.4499 123.28 85.1531 124.317C84.7695 125.646 83.9157 126.513 82.5915 126.919C81.7696 127.171 80.9295 127.253 80.0756 127.253C76.0026 127.253 71.9251 127.253 67.8522 127.253C67.0577 127.253 67.012 127.12 67.0166 128.047C67.0211 129.399 67.0166 130.746 67.0166 132.097C67.0166 133.673 67.0166 135.248 67.0166 136.823C67.0166 137.508 67.0211 137.513 67.7289 137.526C68.4047 137.54 69.0804 137.536 69.7517 137.554C73.473 137.668 77.1944 137.778 80.9112 137.408C83.2079 137.179 85.4636 136.769 87.6097 135.878C90.8744 134.522 93.404 132.376 94.8789 129.097C95.2396 128.298 95.4633 127.454 95.7099 126.604L95.7145 126.577ZM8.10482 95.4591C8.10482 101.08 8.10482 106.705 8.10482 112.326C8.10482 114.404 8.2692 116.468 8.83539 118.481C9.68012 121.5 11.292 123.979 13.9083 125.76C15.1594 126.609 16.5293 127.212 17.9767 127.623C20.3556 128.298 22.7848 128.613 25.2414 128.344C28.15 128.029 30.7709 126.933 33.2046 125.289C35.4877 123.751 36.9762 121.696 37.7844 119.098C38.4283 117.029 38.7159 114.901 38.7296 112.746C38.7616 107.276 38.7479 101.801 38.7524 96.3312C38.7524 95.7285 38.7388 95.7193 38.1086 95.7193C35.0585 95.7148 32.0129 95.7102 28.9627 95.7148C28.3235 95.7148 28.3189 95.7239 28.3144 96.4042C28.3098 97.0298 28.3144 97.6553 28.3144 98.2763C28.3144 103.276 28.3326 108.272 28.3052 113.271C28.2915 115.322 27.3737 116.947 25.6341 118.02C23.0588 119.614 19.5292 118.061 18.7301 115.043C18.5749 114.454 18.5657 113.86 18.5657 113.258C18.5657 100.938 18.5657 88.619 18.5657 76.2997C18.5657 76.0988 18.5612 75.8979 18.5657 75.7016C18.5794 75.3774 18.4105 75.2541 18.1091 75.2632C17.9585 75.2632 17.8078 75.2632 17.6571 75.2632C14.785 75.2632 11.9084 75.2632 9.0363 75.2632C8.02719 75.2632 8.10482 75.1902 8.10482 76.1947C8.10482 82.6146 8.10482 89.0391 8.10482 95.4591ZM60.2816 106.121C60.2816 100.948 60.2816 95.7787 60.2816 90.6053C60.2816 89.6053 60.2816 89.724 59.3775 89.7195C56.5282 89.7104 53.679 89.7286 50.8343 89.683C49.7339 89.6647 49.8983 89.7012 49.8983 90.5779C49.8983 99.4727 49.8983 108.367 49.8891 117.262C49.8891 118.235 49.8481 119.212 49.7659 120.18C49.6608 121.404 49.3914 122.595 48.9074 123.732C47.8527 126.203 45.7705 127.408 43.0948 127.125C42.2455 127.034 41.419 126.846 40.588 126.687C40.1497 126.6 40.1314 126.627 40.0949 127.075C40.0903 127.148 40.0949 127.225 40.0949 127.298C40.0949 130.321 40.0949 133.344 40.0949 136.367C40.0949 137.006 40.1086 137.001 40.7341 137.138C42.7706 137.586 44.8071 137.476 46.8344 137.093C50.3229 136.435 53.3548 134.91 55.8205 132.335C58.8159 129.202 60.2131 125.404 60.2588 121.116C60.3135 116.121 60.2724 111.121 60.2724 106.125L60.2816 106.121ZM46.8801 52.5286C46.8801 52.5286 46.8801 52.5286 46.8847 52.5286C46.9851 50.757 47.081 48.9853 47.1815 47.2137C47.218 46.579 47.2089 46.5744 46.6883 46.369C46.1541 46.1589 46.1495 46.1544 45.7568 46.6384C43.524 49.3963 41.3003 52.1588 39.0675 54.9213C38.6109 55.4829 38.6063 55.4829 37.9579 55.2318C36.2091 54.556 34.4603 53.8848 32.7161 53.209C31.1545 52.6063 29.5929 51.999 28.0313 51.4008C27.8303 51.3232 27.634 51.1679 27.392 51.2912C26.8989 51.5469 26.7527 52.1086 27.0678 52.588C28.949 55.4783 30.8348 58.3641 32.7115 61.259C33.3051 62.1722 33.401 61.9394 32.6247 62.8982C30.4559 65.5785 28.2778 68.2497 26.1044 70.93C25.7117 71.414 25.7208 71.4186 26.0359 71.8934C26.3418 72.3546 26.3418 72.3592 26.9537 72.1948C30.3554 71.277 33.7526 70.3592 37.1543 69.446C37.8803 69.2497 37.8255 69.1036 38.3415 69.9072C40.2501 72.866 42.1679 75.8249 44.0856 78.7791C44.4144 79.2905 44.4509 79.2951 44.9897 79.1444C45.3489 79.0439 45.5407 78.7822 45.5651 78.359C45.6746 76.0897 45.7842 73.8158 45.8984 71.5464C45.9623 70.2223 46.0399 68.9026 46.0902 67.5785C46.1039 67.1949 46.2271 66.9621 46.6198 66.8981C46.7933 66.8707 46.9577 66.8114 47.1267 66.7657C50.4325 65.8845 53.7384 65.0032 57.0442 64.1174C57.7291 63.9347 57.6926 63.9256 57.7428 63.2818C57.7839 62.8023 57.4871 62.6973 57.1492 62.5695C53.8343 61.3092 50.5193 60.0444 47.2043 58.7751C46.5742 58.5331 46.5696 58.5285 46.6061 57.8481C46.6929 56.0765 46.7888 54.3048 46.8801 52.5332V52.5286ZM32.7526 91.8153C32.9033 91.8153 33.054 91.8244 33.2001 91.8153C35.6658 91.6098 37.6748 90.6053 38.8849 88.3633C39.9442 86.4045 39.8529 84.368 38.9853 82.3726C38.0264 80.1672 36.4146 78.6239 34.0357 78.0714C30.0403 77.1444 25.666 80.1855 25.7071 84.9707C25.7391 88.861 28.8806 91.8518 32.7526 91.8199V91.8153ZM130.166 52.5697C130.038 52.7478 129.855 52.7158 129.686 52.7158C128.513 52.7158 127.339 52.725 126.166 52.7067C125.453 52.6976 125.412 52.6428 125.412 51.9213C125.408 50.4739 125.412 49.0219 125.412 47.5744C125.412 46.4101 125.549 46.5288 124.385 46.5242C123.673 46.5242 123.668 46.5242 123.664 47.2091C123.654 48.9579 123.645 50.7068 123.654 52.4556C123.664 53.8939 124.129 54.3596 125.586 54.4464C125.737 54.4555 125.887 54.4647 126.033 54.4647C127.33 54.4647 128.631 54.4647 129.928 54.4647C130.129 54.4647 130.325 54.4373 130.526 54.419C130.937 54.3825 131.166 53.8117 131.558 53.9441C131.924 54.0674 132.257 54.314 132.659 54.3733C132.978 54.419 133.303 54.4555 133.627 54.4692C134.051 54.4829 134.476 54.4601 134.901 54.4738C135.366 54.4875 135.809 54.4053 136.17 54.1085C136.526 53.8208 136.8 53.8528 137.147 54.1405C137.791 54.6701 138.531 54.7523 139.229 54.2866C139.636 54.0172 139.905 54.0902 140.298 54.2911C141.722 55.0309 143.056 54.3277 143.275 52.7387C143.339 52.2729 143.325 51.7935 143.321 51.3186C143.298 50.0675 143.59 50.1771 142.083 50.168C141.722 50.168 141.599 50.3141 141.608 50.6611C141.622 51.209 141.631 51.7615 141.608 52.3095C141.581 52.8711 141.147 53.0766 140.672 52.7706C140.43 52.6154 140.27 52.3962 140.266 52.0949C140.266 51.8209 140.257 51.5469 140.257 51.273C140.257 50.0766 140.257 50.0949 139.047 50.168C138.677 50.1908 138.581 50.3415 138.59 50.6748C138.604 51.2227 138.59 51.7752 138.59 52.3232C138.59 52.5606 138.526 52.7615 138.275 52.862C138.006 52.967 137.786 52.8757 137.581 52.7113C137.412 52.5789 137.353 52.3917 137.348 52.1816C137.348 51.9076 137.339 51.6337 137.339 51.3597C137.339 50.0721 137.312 50.0584 136.06 50.168C135.732 50.1954 135.631 50.3369 135.631 50.6383C135.636 51.1131 135.645 51.588 135.613 52.0629C135.581 52.5515 135.458 52.6839 134.969 52.7113C134.449 52.7387 133.919 52.7113 133.398 52.7021C132.978 52.7021 132.64 52.5469 132.348 52.2227C131.262 51.0173 130.152 49.8301 129.052 48.6383C128.983 48.5653 128.928 48.4831 128.974 48.3735C129.01 48.3461 129.047 48.305 129.093 48.2867C129.65 48.0676 130.211 47.8575 130.768 47.6383C131.837 47.2228 131.937 46.99 131.609 45.8667C131.531 45.5973 131.389 45.5653 131.17 45.643C129.782 46.1361 128.394 46.6338 127.006 47.1269C126.86 47.1772 126.695 47.2502 126.714 47.4237C126.796 48.0767 126.705 48.7479 127.271 49.2958C128.134 50.1269 128.928 51.0264 129.741 51.9076C129.919 52.0994 130.17 52.2684 130.175 52.5743L130.166 52.5697ZM75.8794 51.5789C75.8794 51.5789 75.8931 51.5789 75.8976 51.5789C75.8976 51.4784 75.8976 51.378 75.8976 51.2775C75.8702 50.0675 76.1442 50.1817 74.6967 50.1588C74.2949 50.1543 74.1762 50.3141 74.1945 50.6931C74.2173 51.241 74.2173 51.7935 74.1853 52.3414C74.1579 52.7752 73.8611 52.9852 73.4776 52.8757C73.1397 52.7798 72.9023 52.5606 72.8749 52.1953C72.852 51.8985 72.8749 51.5971 72.8612 51.2958C72.8292 50.0995 73.1397 50.1725 71.6831 50.1634C71.295 50.1634 71.1398 50.2821 71.1535 50.6748C71.1717 51.2227 71.1717 51.7752 71.1489 52.3232C71.1306 52.7569 70.9114 52.9533 70.5462 52.8894C70.19 52.83 69.9526 52.62 69.9206 52.2501C69.8932 51.9259 69.9069 51.6017 69.9023 51.2775C69.8704 50.0721 70.1717 50.1771 68.706 50.1634C68.3544 50.1634 68.2083 50.2821 68.222 50.6428C68.2403 51.0903 68.2403 51.5424 68.2038 51.9898C68.1627 52.5378 68.0028 52.6884 67.4549 52.7204C67.0303 52.7432 66.6056 52.725 66.181 52.7067C65.0668 52.6611 64.971 52.556 64.971 51.4191C64.971 51.3688 64.971 51.3186 64.971 51.2684C64.9436 50.0447 65.1764 50.1725 63.8431 50.1725C63.2495 50.1725 63.2404 50.1862 63.2404 50.8209C63.2358 51.8939 63.2495 52.967 63.2313 54.04C63.213 55.0491 62.5509 55.7112 61.5418 55.7569C61.2907 55.766 61.0441 55.7569 60.793 55.7614C59.446 55.766 59.688 55.6747 59.8706 56.8847C59.9574 57.4509 59.9802 57.4509 60.5281 57.46C60.9254 57.4646 61.3272 57.4691 61.729 57.46C63.1171 57.4189 64.2039 56.6427 64.697 55.3322C64.7838 55.0993 64.8522 54.8573 64.9162 54.6153C64.971 54.4053 65.076 54.3368 65.2952 54.3825C66.0349 54.5468 66.7883 54.419 67.5371 54.4601C67.98 54.4829 68.4001 54.3825 68.7334 54.1131C69.1215 53.798 69.4001 53.8711 69.7654 54.1587C70.3635 54.629 71.0667 54.7523 71.7196 54.3277C72.1626 54.04 72.4685 54.0628 72.9205 54.2911C74.368 55.0309 75.7287 54.2455 75.8839 52.62C75.9159 52.2729 75.8885 51.9213 75.8885 51.5698L75.8794 51.5789ZM82.5139 52.4556C82.5139 53.0035 82.4956 53.556 82.5185 54.1039C82.5367 54.629 82.3084 54.9943 81.934 55.3368C81.4089 55.8071 80.7879 55.7614 80.1669 55.7614C78.861 55.7614 78.8701 55.7614 79.1806 57.0308C79.2491 57.3185 79.3587 57.4737 79.6738 57.46C80.2491 57.4372 80.8244 57.46 81.3952 57.4235C82.1851 57.3733 82.8198 56.9897 83.3312 56.4052C83.7513 55.9258 84.0344 55.3733 84.1531 54.7478C84.217 54.3962 84.3677 54.3322 84.7193 54.3962C85.5092 54.5423 86.3129 54.451 87.112 54.4464C87.4453 54.4464 87.7649 54.3277 88.0115 54.1131C88.3905 53.7797 88.6781 53.8619 89.048 54.1542C89.669 54.6564 90.395 54.7432 91.0662 54.2957C91.4908 54.0126 91.7785 54.0765 92.1986 54.2957C93.5593 55.008 94.8287 54.3596 95.1391 52.8528C95.2396 52.3551 95.2031 51.8574 95.2076 51.3597C95.2168 50.0721 95.2122 50.0858 93.9337 50.1634C93.5638 50.1862 93.4634 50.3369 93.4725 50.6748C93.4862 51.2227 93.4954 51.7752 93.468 52.3232C93.4406 52.8574 93.0479 53.0537 92.5867 52.7935C92.3036 52.6337 92.1438 52.3962 92.1392 52.0675C92.1301 51.7935 92.1347 51.5195 92.1301 51.241C92.1073 50.0492 92.3538 50.1862 90.9749 50.1634C90.5959 50.1588 90.4361 50.2912 90.4498 50.6839C90.4726 51.2319 90.468 51.7844 90.4498 52.3323C90.4315 52.7843 90.1575 52.9898 89.7694 52.8757C89.4544 52.7843 89.2397 52.588 89.2261 52.241C89.2123 51.9396 89.2215 51.6428 89.2215 51.3414C89.2215 50.0766 89.1804 50.0492 87.9339 50.1588C87.6051 50.1862 87.5092 50.3278 87.5138 50.6337C87.5229 51.1086 87.5229 51.5835 87.4909 52.0583C87.4544 52.5469 87.3266 52.6793 86.8426 52.7067C86.3448 52.7387 85.8426 52.725 85.3449 52.7067C84.4271 52.6656 84.2992 52.5195 84.2901 51.5743C84.2901 51.5013 84.2901 51.4236 84.2901 51.3506C84.2901 50.0812 84.2216 50.031 82.934 50.168C82.66 50.1954 82.5322 50.2912 82.5367 50.5835C82.5459 51.209 82.5367 51.8346 82.5367 52.4556H82.5139ZM109.522 52.6337C109.102 52.7798 108.751 52.7067 108.408 52.7021C107.687 52.6884 107.655 52.6519 107.65 51.9213C107.646 50.4967 107.65 49.0721 107.646 47.6475C107.637 46.3416 107.815 46.5471 106.463 46.5242C105.901 46.5151 105.888 46.5334 105.888 47.1224C105.888 48.9488 105.888 50.7707 105.892 52.5971C105.892 52.798 105.906 52.9989 105.947 53.1953C106.075 53.8163 106.413 54.2409 107.07 54.3368C108.413 54.5286 109.764 54.6016 111.089 54.2592C111.495 54.1542 111.805 54.1861 112.148 54.3779C112.609 54.6336 113.098 54.8254 113.627 54.8939C115.778 55.1678 116.627 53.0948 116.029 51.7981C115.385 50.4008 114.308 49.3598 113.23 48.3141C113.102 48.1908 112.97 48.1863 112.833 48.305C112.627 48.4876 112.408 48.6566 112.212 48.8438C111.965 49.0812 111.691 49.1726 111.34 49.1908C110.093 49.2639 109.239 50.241 109.28 51.4921C109.294 51.8666 109.417 52.2227 109.522 52.6291V52.6337ZM161.585 52.5378C161.361 52.7387 161.183 52.7113 161.01 52.7113C159.987 52.7113 158.959 52.725 157.937 52.7021C156.594 52.6747 156.581 52.6382 156.571 51.2867C156.567 50.031 156.74 50.1771 155.457 50.1725C154.832 50.1725 154.823 50.1862 154.818 50.7935C154.809 51.8666 154.823 52.9441 154.813 54.0172C154.804 55.0674 154.138 55.7295 153.078 55.7569C152.603 55.7706 152.129 55.766 151.654 55.7706C151.457 55.7706 151.298 55.8299 151.33 56.0674C151.393 56.5103 151.352 57.0171 151.626 57.355C151.836 57.6198 152.288 57.4417 152.631 57.46C152.855 57.4737 153.078 57.46 153.307 57.46C154.718 57.4509 155.644 56.7066 156.229 55.4829C156.348 55.2363 156.407 54.9624 156.475 54.6975C156.539 54.451 156.612 54.3368 156.932 54.3779C158.475 54.5651 160.028 54.4738 161.571 54.4327C162.608 54.4053 163.439 53.5971 163.548 52.6017C163.649 51.7022 163.599 50.8027 163.343 49.926C162.982 48.6977 161.891 48.0219 160.626 48.2182C159.43 48.4009 158.713 49.2958 158.763 50.5424C158.813 51.7524 159.411 52.2958 160.758 52.378C161.014 52.3917 161.297 52.3323 161.59 52.5378H161.585ZM96.6049 53.104C96.6186 53.7204 96.5683 54.3962 96.7373 55.0583C97.0797 56.4326 98.235 57.4052 99.6413 57.4509C100.317 57.4737 100.993 57.4737 101.664 57.4509C103.29 57.3824 104.522 56.1952 104.691 54.5788C104.856 53.0081 104.303 52.3414 102.737 52.2136C102.687 52.2136 102.637 52.209 102.586 52.2044C101.961 52.1633 101.783 51.8757 102.039 51.3004C102.185 50.967 102.454 50.8118 102.81 50.8118C103.212 50.8118 103.609 50.8118 104.011 50.8118C104.162 50.8118 104.358 50.8118 104.372 50.6291C104.408 50.1817 104.408 49.7296 104.28 49.2958C104.23 49.1315 104.043 49.1315 103.892 49.136C103.417 49.136 102.943 49.1178 102.468 49.1634C101.207 49.2776 100.376 50.1725 100.322 51.4465C100.299 51.9716 100.303 52.4967 100.322 53.0218C100.34 53.6793 100.523 53.8528 101.185 53.8756C101.582 53.8893 101.988 53.8665 102.381 53.9167C103.057 53.9989 103.221 54.387 102.847 54.9624C102.527 55.4555 102.066 55.7386 101.477 55.7569C100.929 55.7751 100.376 55.7888 99.8285 55.7569C98.9153 55.7021 98.3765 55.1313 98.3354 54.2044C98.3126 53.6565 98.3263 53.104 98.3263 52.556C98.3263 51.2547 98.276 51.2136 96.9884 51.3551C96.7007 51.3871 96.5957 51.5058 96.6003 51.7798C96.6094 52.2044 96.6003 52.6291 96.6003 53.1131L96.6049 53.104ZM54.4096 57.46C54.7109 57.46 55.0077 57.4509 55.3091 57.46C57.1355 57.5331 58.8341 55.9258 58.478 53.5514C58.3866 52.9305 58.0168 52.5149 57.3912 52.3506C57.026 52.2501 56.6561 52.2227 56.2817 52.1953C55.784 52.1588 55.7246 52.0812 55.7794 51.6063C55.8433 51.104 56.0899 50.8483 56.6059 50.8118C57.0031 50.7844 57.4049 50.8072 57.8022 50.8027C57.9483 50.8027 58.1401 50.8163 58.1675 50.6291C58.2314 50.1817 58.2131 49.7296 58.0944 49.2958C58.0488 49.1315 57.8616 49.1269 57.7109 49.1315C57.1858 49.1406 56.6561 49.1132 56.1401 49.1817C54.9803 49.3369 54.2087 50.1908 54.1447 51.3597C54.1128 51.9305 54.1174 52.5104 54.1402 53.0811C54.1584 53.6656 54.3365 53.83 54.9073 53.8619C55.3548 53.8848 55.8068 53.8619 56.2497 53.9259C56.8524 54.008 57.0077 54.3368 56.7109 54.8756C56.4141 55.419 55.9255 55.7112 55.3137 55.7477C54.7657 55.7797 54.2132 55.7797 53.6653 55.7477C52.7019 55.6884 52.1768 55.1404 52.1402 54.1542C52.1174 53.6062 52.1311 53.0537 52.1311 52.5058C52.1311 51.3095 51.9165 51.136 50.7476 51.3506C50.5421 51.3871 50.428 51.483 50.4325 51.6885C50.4553 52.8072 50.3138 53.9396 50.5512 55.0491C50.8435 56.4098 52.0398 57.3915 53.437 57.4555C53.7612 57.4692 54.0854 57.4555 54.4096 57.4555V57.46ZM148.033 54.629C147.891 55.3413 147.403 55.7797 146.631 55.8436C146.133 55.8847 145.636 55.8756 145.138 55.8664C144.832 55.8619 144.654 55.9349 144.704 56.2865C144.745 56.5833 144.768 56.8801 144.795 57.1815C144.823 57.4783 144.969 57.6153 145.284 57.6016C145.805 57.5742 146.334 57.6016 146.855 57.565C148.444 57.4509 149.973 56.0354 149.891 54.2729C149.855 53.451 149.855 52.6291 149.836 51.8072C149.827 51.4054 149.745 51.0127 149.604 50.6383C149.042 49.1589 146.69 48.7753 145.677 49.999C145.517 50.1954 145.407 50.4145 145.33 50.6565C145.156 51.1862 145.111 51.7296 145.142 52.2821C145.206 53.4966 145.818 54.2135 147.01 54.4692C147.348 54.5423 147.69 54.5834 148.033 54.6427V54.629ZM120.225 54.451C121.043 54.387 121.851 53.9213 122.28 52.9305C122.686 51.9944 122.522 51.1177 121.823 50.3643C121.212 49.7068 120.586 49.0584 119.96 48.4146C119.563 48.0036 119.559 48.0082 119.148 48.3872C118.983 48.5379 118.819 48.6931 118.659 48.8529C118.572 48.9397 118.413 49.0538 118.472 49.1543C118.75 49.6246 118.335 49.8209 118.129 50.0995C117.81 50.5287 117.595 50.999 117.499 51.5241C117.216 53.1405 118.33 54.4601 120.221 54.451H120.225ZM78.7925 50.4419C78.7925 49.3461 78.7925 48.2502 78.7925 47.1498C78.7925 46.3324 78.8793 46.337 77.9798 46.3416C77.9295 46.3416 77.8793 46.3416 77.8291 46.3416C77.1259 46.3461 77.1213 46.3461 77.1213 47.0356C77.1213 49.1543 77.1122 51.273 77.1213 53.3916C77.1259 54.556 76.9204 54.4601 78.1989 54.4555C78.7743 54.4555 78.7834 54.4418 78.788 53.8802C78.7971 52.7341 78.788 51.588 78.788 50.4419H78.7925ZM131.266 44.7389C131.271 44.2275 131.184 44.1544 130.686 44.3279C129.435 44.7617 128.189 45.2092 126.942 45.6521C126.874 45.6749 126.8 45.7023 126.737 45.748C126.435 45.9535 126.558 46.2457 126.622 46.4923C126.7 46.7845 126.937 46.6566 127.116 46.5927C128.362 46.1452 129.604 45.6932 130.851 45.2457C131.102 45.1544 131.316 45.0448 131.257 44.7389H131.266ZM161.859 46.2092C161.841 45.643 161.402 45.2183 160.845 45.232C160.316 45.2457 159.868 45.7297 159.886 46.2685C159.905 46.821 160.361 47.2594 160.905 47.2457C161.448 47.232 161.882 46.7617 161.859 46.2137V46.2092Z" fill="#FED402"/>
<path d="M95.7147 126.582C95.4681 127.431 95.2398 128.276 94.8836 129.075C93.4088 132.353 90.8792 134.499 87.6144 135.855C85.4684 136.746 83.2127 137.161 80.916 137.385C77.1992 137.755 73.4778 137.645 69.7564 137.531C69.0806 137.508 68.4049 137.518 67.7336 137.504C67.0305 137.49 67.0259 137.486 67.0213 136.801C67.0213 135.225 67.0213 133.65 67.0213 132.075C67.0213 130.723 67.0259 129.376 67.0213 128.025C67.0168 127.098 67.0624 127.23 67.8569 127.23C71.9299 127.23 76.0074 127.23 80.0804 127.23C80.9342 127.23 81.7744 127.152 82.5963 126.897C83.9205 126.49 84.7743 125.623 85.1579 124.294C85.4547 123.258 85.5368 122.203 85.5049 121.057C85.0528 121.226 84.6876 121.372 84.3131 121.5C83.0529 121.933 81.7561 122.185 80.4365 122.335C77.8567 122.627 75.2997 122.573 72.7929 121.801C70.3226 121.038 68.4825 119.541 67.4049 117.157C67.0944 116.472 66.8113 115.783 66.5876 115.066C65.9666 113.103 65.6561 111.08 65.51 109.03C65.2999 106.048 65.4871 103.089 66.1309 100.167C66.3045 99.386 66.5236 98.6189 66.7885 97.861C67.8113 94.9387 69.7975 92.8474 72.56 91.5734C77.9571 89.0849 83.4501 89.0575 88.9066 91.3817C92.3129 92.8337 94.3357 95.514 95.2535 99.0664C95.7284 100.916 95.9019 102.801 95.9978 104.701C96.1302 107.345 95.9886 109.998 96.1895 112.641C96.2809 113.865 96.427 115.075 96.8745 116.235C97.5685 118.039 98.7785 118.902 100.701 118.911C102.628 118.92 104.55 118.911 106.477 118.915C111.5 118.929 116.527 118.947 121.55 118.952C122.321 118.952 123.098 118.924 123.869 118.828C126.221 118.532 127.335 117.509 127.805 115.185C128.02 114.13 128.12 113.061 128.12 111.984C128.12 104.911 128.134 97.8381 128.139 90.7652C128.139 90.5917 128.148 90.4137 128.139 90.2401C128.125 89.9525 128.262 89.8246 128.545 89.8383C128.668 89.8429 128.796 89.8383 128.919 89.8383C131.892 89.8383 134.869 89.8383 137.841 89.8383C137.965 89.8383 138.093 89.8383 138.216 89.8383C138.458 89.8383 138.59 89.9433 138.581 90.1945C138.581 90.3954 138.581 90.5963 138.581 90.7926C138.581 98.692 138.581 106.591 138.581 114.486C138.581 116.701 140.07 118.541 142.225 119.011C144.91 119.596 147.494 117.746 147.782 115.025C147.832 114.527 147.855 114.029 147.855 113.532C147.855 105.934 147.855 98.3358 147.855 90.7379C147.855 89.8064 147.745 89.8292 148.732 89.8292C151.805 89.8292 154.882 89.8292 157.955 89.8292C158.106 89.8292 158.256 89.8292 158.407 89.8292C158.649 89.8292 158.777 89.9388 158.782 90.1854C158.782 90.3863 158.782 90.5872 158.782 90.7835C158.782 98.6829 158.8 106.582 158.777 114.477C158.768 116.641 160.348 118.596 162.498 119.02C165.211 119.554 167.79 117.618 168.001 114.861C168.032 114.463 168.028 114.061 168.028 113.66C168.028 106.062 168.032 98.4637 168.037 90.8657C168.037 90.8155 168.037 90.7652 168.037 90.715C168.037 89.6968 168.014 89.8246 168.923 89.8201C171.85 89.8201 174.772 89.8201 177.699 89.8201C177.799 89.8201 177.9 89.8201 178 89.8201C178.338 89.7972 178.516 89.9251 178.498 90.2904C178.484 90.6374 178.498 90.989 178.498 91.3406C178.498 100.29 178.48 109.235 178.516 118.185C178.525 120.705 178.703 123.226 178.804 125.746C178.831 126.445 178.859 127.143 178.909 127.842C178.936 128.239 178.777 128.362 178.393 128.362C175.544 128.353 172.694 128.353 169.845 128.362C169.471 128.362 169.27 128.262 169.316 127.856C169.329 127.732 169.316 127.605 169.316 127.481C169.316 127.189 169.156 127.152 168.923 127.235C168.758 127.294 168.599 127.362 168.43 127.417C164.421 128.741 160.384 128.815 156.339 127.618C154.608 127.107 153.097 126.194 151.827 124.897C151.421 124.481 151.421 124.495 150.937 124.869C147.64 127.426 143.905 128.604 139.746 128.344C137.563 128.207 135.522 127.563 133.732 126.267C133.358 125.997 133.106 126.025 132.741 126.248C130.399 127.678 127.837 128.344 125.107 128.349C119.883 128.362 114.659 128.349 109.436 128.353C106.363 128.353 103.285 128.353 100.212 128.399C98.5685 128.422 97.1713 127.933 96.0526 126.705C95.9841 126.632 95.9201 126.554 95.7192 126.554L95.7147 126.582ZM76.1535 106.989C76.1535 107.263 76.1444 107.537 76.1535 107.815C76.1946 109.048 76.3499 110.258 76.875 111.39C77.6329 113.03 78.9343 113.824 80.7196 113.915C82.5415 114.007 83.7561 113.121 84.5734 111.582C84.7606 111.23 84.9159 110.856 85.0391 110.482C85.6373 108.664 85.7149 106.811 85.4044 104.934C85.1716 103.514 84.788 102.153 83.9159 100.975C82.2447 98.724 78.9754 98.8107 77.4229 101.144C77.0759 101.669 76.8293 102.24 76.6558 102.847C76.2585 104.203 76.1581 105.596 76.1535 106.998V106.989Z" fill="#1F3062"/>
<path d="M179.229 84.9162C178.942 84.9299 178.695 84.7975 178.444 84.6971C174.38 83.14 170.275 81.7337 166.015 80.793C161.668 79.8342 157.285 79.1173 152.865 78.5831C148.399 78.0443 143.92 77.6698 139.431 77.405C136.614 77.2406 133.792 77.1356 130.97 77.0397C128.322 76.953 125.674 76.9621 123.025 76.8799C121.076 76.8205 119.126 76.8023 117.181 76.8434C113.035 76.9256 108.884 76.9256 104.743 77.0899C102.519 77.1767 100.295 77.2041 98.0761 77.3045C94.6333 77.4598 91.1904 77.6379 87.7522 77.8388C84.2591 78.0397 80.7706 78.2543 77.2821 78.4917C72.6749 78.8114 68.0677 79.1766 63.4651 79.6104C59.1136 80.0214 54.7621 80.4506 50.4152 80.8752C50.3148 80.8844 50.2143 80.8889 50.1184 80.9026C48.8399 81.099 49.0271 81.099 49.0545 79.8844C49.0956 77.9849 49.1641 76.09 49.2235 74.1905C49.2645 72.8161 49.3148 71.4463 49.3604 70.0719C49.3787 69.5468 49.3833 69.5331 49.9038 69.5011C51.9494 69.3687 53.9905 69.2408 56.0361 69.1175C59.0543 68.9395 62.0679 68.7523 65.0861 68.5924C67.6066 68.46 70.127 68.3504 72.6475 68.2454C75.9671 68.1039 79.2866 67.9715 82.6062 67.8527C84.4052 67.7888 86.2043 67.7431 87.9987 67.7112C94.5693 67.5879 101.145 67.5057 107.715 67.597C111.236 67.6473 114.761 67.7203 118.281 67.8527C124.272 68.0765 130.258 68.4326 136.226 69.0308C143.513 69.7659 150.76 70.7705 157.874 72.5878C162.193 73.6928 166.408 75.0809 170.357 77.1904C172.946 78.5694 175.188 80.373 177.147 82.551C177.75 83.2176 178.394 83.8478 179.01 84.5053C179.115 84.6194 179.325 84.7016 179.22 84.9299L179.229 84.9117V84.9162Z" fill="#1F3062"/>
<path d="M8.10555 95.4589C8.10555 89.039 8.10555 82.6145 8.10555 76.1946C8.10555 75.1855 8.02335 75.2631 9.03703 75.2631C11.9091 75.2631 14.7857 75.2631 17.6578 75.2631C17.8085 75.2631 17.9592 75.2677 18.1099 75.2631C18.4112 75.254 18.5802 75.3772 18.5665 75.7014C18.5573 75.9023 18.5665 76.1033 18.5665 76.2996C18.5665 88.6189 18.5665 100.938 18.5665 113.258C18.5665 113.856 18.5756 114.454 18.7308 115.043C19.5299 118.061 23.0595 119.614 25.6348 118.02C27.3699 116.947 28.2922 115.317 28.3059 113.271C28.3333 108.276 28.3151 103.276 28.3151 98.2762C28.3151 97.6507 28.3151 97.0251 28.3151 96.4041C28.3196 95.7283 28.3242 95.7146 28.9635 95.7146C32.0136 95.7146 35.0592 95.7146 38.1094 95.7192C38.7395 95.7192 38.7532 95.7283 38.7532 96.3311C38.7532 101.801 38.7669 107.276 38.7303 112.746C38.7166 114.901 38.429 117.029 37.7852 119.098C36.977 121.696 35.493 123.75 33.2054 125.289C30.7716 126.933 28.1507 128.029 25.2421 128.344C22.781 128.609 20.3518 128.294 17.9774 127.623C16.5254 127.212 15.1602 126.609 13.9091 125.76C11.2881 123.979 9.68085 121.495 8.83612 118.481C8.26992 116.468 8.11011 114.404 8.10555 112.326C8.10098 106.705 8.10555 101.08 8.10555 95.4589Z" fill="#1F3062"/>
<path d="M60.2812 106.121C60.2812 111.116 60.3223 116.116 60.2675 121.111C60.2218 125.399 58.8246 129.198 55.8292 132.33C53.3635 134.905 50.3316 136.435 46.8431 137.088C44.8112 137.472 42.7793 137.577 40.7428 137.134C40.1127 136.997 40.1036 137.006 40.1036 136.362C40.099 133.339 40.1036 130.316 40.1036 127.294C40.1036 127.221 40.1036 127.143 40.1036 127.07C40.1356 126.623 40.1584 126.595 40.5967 126.682C41.4278 126.846 42.2588 127.029 43.1035 127.12C45.7747 127.408 47.8614 126.198 48.9162 123.728C49.4002 122.591 49.6741 121.399 49.7746 120.175C49.8568 119.207 49.8933 118.23 49.8979 117.257C49.907 108.363 49.8979 99.4679 49.907 90.5732C49.907 89.7011 49.7426 89.66 50.843 89.6782C53.6923 89.7239 56.5415 89.7056 59.3862 89.7148C60.2903 89.7148 60.2903 89.6006 60.2903 90.6006C60.2903 95.774 60.2903 100.943 60.2903 106.116L60.2812 106.121Z" fill="#1F3062"/>
<path d="M46.8809 52.5334C46.7895 54.3051 46.6936 56.0767 46.6069 57.8484C46.5749 58.5287 46.5749 58.5333 47.205 58.7753C50.52 60.0401 53.8305 61.3049 57.15 62.5697C57.4879 62.6975 57.7801 62.798 57.7436 63.282C57.6888 63.9258 57.7299 63.935 57.045 64.1176C53.7391 65.0034 50.4333 65.8847 47.1274 66.7659C46.9585 66.8116 46.7941 66.871 46.6206 66.8983C46.2279 66.9623 46.1046 67.1951 46.0909 67.5787C46.0453 68.9029 45.9631 70.2225 45.8991 71.5466C45.7896 73.816 45.68 76.0899 45.5658 78.3593C45.5445 78.7824 45.3527 79.0442 44.9905 79.1446C44.4517 79.2953 44.4197 79.2862 44.0864 78.7793C42.1686 75.8251 40.2509 72.8708 38.3423 69.9074C37.8263 69.1083 37.8811 69.2545 37.1551 69.4462C33.7533 70.3595 30.3562 71.2818 26.9544 72.195C26.3426 72.3594 26.3426 72.3548 26.0366 71.8937C25.7216 71.4142 25.717 71.4097 26.1051 70.9302C28.2786 68.2545 30.4566 65.5788 32.6255 62.8985C33.4017 61.9396 33.3059 62.177 32.7123 61.2592C30.8356 58.3643 28.9498 55.4785 27.0686 52.5882C26.7535 52.1042 26.8951 51.5471 27.3928 51.2914C27.6302 51.1682 27.8311 51.3234 28.032 51.401C29.5936 51.9992 31.1552 52.6065 32.7168 53.2092C34.4656 53.885 36.2099 54.5608 37.9587 55.232C38.6071 55.4831 38.6162 55.4877 39.0683 54.9215C41.3011 52.1636 43.5248 49.4011 45.7576 46.6386C46.1503 46.1546 46.1548 46.1591 46.6891 46.3692C47.2096 46.5747 47.2142 46.5792 47.1822 47.2139C47.0863 48.9856 46.9859 50.7572 46.8854 52.5289C46.8854 52.5289 46.8854 52.5289 46.8809 52.5289V52.5334ZM29.1644 53.1818C29.1096 53.1407 29.0366 53.0905 28.9818 53.1544C28.9224 53.2229 28.9863 53.2686 29.0503 53.3051C29.2009 53.7343 29.4932 54.0813 29.7352 54.4557C31.2831 56.8438 32.8401 59.2273 34.3926 61.6108C34.8081 62.2546 34.8401 62.0948 34.3195 62.7386C33.7077 63.4966 33.0912 64.25 32.4794 65.008C31.0228 66.8162 29.5708 68.6243 28.1142 70.4325C28.064 70.4873 28.0001 70.5512 28.1051 70.606C28.1553 70.6334 28.201 70.5923 28.2101 70.5284C28.443 70.5695 28.653 70.4736 28.8676 70.4142C31.8538 69.6061 34.8401 68.7933 37.8309 67.9942C38.4655 67.8253 38.3651 67.7065 38.7806 68.3458C40.502 71.0078 42.228 73.6699 43.954 76.3319C44.0544 76.4872 44.1275 76.6789 44.301 76.7703C44.4517 76.6515 44.406 76.5191 44.4152 76.405C44.4928 75.058 44.575 73.711 44.6389 72.364C44.7302 70.5421 44.8033 68.7202 44.9037 66.8983C44.9494 66.0673 44.9631 66.0673 45.7348 65.8664C48.7484 65.0628 51.762 64.2591 54.7802 63.4555C54.9628 63.4053 55.1638 63.4053 55.2962 63.2318C55.1455 63.0811 54.9446 63.0354 54.7619 62.9624C53.1044 62.3277 51.4515 61.6976 49.794 61.0675C48.4653 60.5606 47.1411 60.0401 45.7987 59.5606C45.3923 59.4145 45.2325 59.209 45.3147 58.7935C45.3421 58.6474 45.3329 58.4967 45.3421 58.3461C45.511 55.3279 45.68 52.3097 45.8489 49.2915C45.8626 49.0814 45.8489 48.8714 45.8489 48.6385C45.5202 48.7481 45.4197 48.9947 45.269 49.1819C43.3056 51.6111 41.3467 54.0448 39.3879 56.474C39.0135 56.9351 39.0089 56.9397 38.461 56.7297C36.8309 56.1041 35.2008 55.4694 33.5707 54.8439C32.1004 54.2822 30.6301 53.7297 29.1598 53.1772L29.1644 53.1818Z" fill="#1F3062"/>
<path d="M32.7528 91.8199C28.8808 91.8519 25.7393 88.8611 25.7073 84.9708C25.6662 80.1855 30.0405 77.1445 34.0359 78.0714C36.4148 78.6239 38.0266 80.1672 38.9855 82.3727C39.8531 84.368 39.9444 86.4045 38.8851 88.3634C37.6751 90.6053 35.666 91.6099 33.2003 91.8153C33.0496 91.829 32.8989 91.8153 32.7528 91.8153V91.8199Z" fill="#1F3062"/>
<path d="M130.165 52.5697C130.16 52.2638 129.909 52.0948 129.731 51.9031C128.918 51.0218 128.124 50.1223 127.261 49.2913C126.695 48.7479 126.781 48.0721 126.704 47.4192C126.681 47.2502 126.85 47.1772 126.996 47.1224C128.384 46.6292 129.772 46.1315 131.16 45.6384C131.379 45.5608 131.521 45.5927 131.599 45.8621C131.927 46.9854 131.827 47.2183 130.758 47.6338C130.201 47.8529 129.64 48.063 129.083 48.2822C129.037 48.3004 129.005 48.3415 128.964 48.3689C128.918 48.4785 128.973 48.5607 129.042 48.6337C130.142 49.8255 131.252 51.0127 132.338 52.2181C132.63 52.5423 132.964 52.693 133.388 52.6976C133.914 52.6976 134.439 52.7341 134.959 52.7067C135.448 52.6793 135.571 52.5469 135.603 52.0583C135.635 51.588 135.626 51.1086 135.621 50.6337C135.621 50.3323 135.722 50.1908 136.05 50.1634C137.306 50.0538 137.329 50.0675 137.329 51.3551C137.329 51.6291 137.329 51.9031 137.338 52.177C137.338 52.3871 137.402 52.5743 137.571 52.7067C137.776 52.8711 137.996 52.9624 138.265 52.8574C138.516 52.7569 138.58 52.556 138.58 52.3186C138.58 51.7707 138.594 51.2182 138.58 50.6702C138.571 50.3369 138.667 50.1862 139.037 50.1634C140.247 50.0858 140.247 50.0721 140.247 51.2684C140.247 51.5423 140.247 51.8163 140.256 52.0903C140.256 52.3916 140.42 52.6108 140.662 52.7661C141.137 53.072 141.571 52.8665 141.598 52.3049C141.621 51.757 141.617 51.2045 141.598 50.6565C141.589 50.3095 141.712 50.1588 142.073 50.1634C143.58 50.1725 143.292 50.0629 143.311 51.314C143.32 51.7889 143.333 52.2684 143.265 52.7341C143.046 54.3231 141.712 55.0263 140.288 54.2866C139.9 54.0857 139.626 54.0126 139.219 54.282C138.521 54.7477 137.781 54.6656 137.137 54.1359C136.79 53.8482 136.512 53.8163 136.16 54.1039C135.799 54.3962 135.356 54.4829 134.891 54.4692C134.466 54.4555 134.041 54.4783 133.617 54.4646C133.293 54.4509 132.968 54.4144 132.649 54.3688C132.247 54.314 131.914 54.0628 131.548 53.9395C131.156 53.8071 130.927 54.3825 130.516 54.4144C130.315 54.4327 130.119 54.4601 129.918 54.4601C128.621 54.4646 127.32 54.4646 126.023 54.4601C125.873 54.4601 125.722 54.4509 125.576 54.4418C124.119 54.3551 123.649 53.8893 123.644 52.451C123.635 50.7022 123.644 48.9534 123.654 47.2046C123.654 46.5242 123.663 46.5151 124.375 46.5196C125.544 46.5288 125.402 46.4055 125.402 47.5698C125.407 49.0173 125.402 50.4693 125.402 51.9168C125.402 52.6428 125.448 52.693 126.156 52.7021C127.329 52.7204 128.503 52.7113 129.676 52.7113C129.845 52.7113 130.028 52.7432 130.156 52.5652L130.165 52.5697Z" fill="#1F3062"/>
<path d="M75.8783 51.579C75.8783 51.9306 75.9057 52.2822 75.8738 52.6292C75.7185 54.2547 74.3578 55.0401 72.9104 54.3004C72.4583 54.0675 72.1478 54.0492 71.7095 54.3369C71.0565 54.7616 70.3488 54.6383 69.7552 54.168C69.3899 53.8803 69.1114 53.8072 68.7233 54.1223C68.3899 54.3917 67.9699 54.4967 67.527 54.4693C66.7827 54.4282 66.0293 54.5561 65.285 54.3917C65.0658 54.3415 64.9608 54.4145 64.906 54.6246C64.8421 54.8666 64.7736 55.1086 64.6868 55.3414C64.1937 56.6519 63.1115 57.4282 61.7189 57.4692C61.3216 57.4829 60.9198 57.4784 60.518 57.4692C59.9701 57.4601 59.9472 57.4601 59.8605 56.8939C59.6733 55.6839 59.4358 55.7752 60.7828 55.7707C61.034 55.7707 61.2805 55.7752 61.5317 55.7661C62.5408 55.7204 63.2074 55.0584 63.2211 54.0492C63.2394 52.9762 63.2211 51.9032 63.2303 50.8301C63.2303 50.1955 63.2394 50.1818 63.833 50.1818C65.1663 50.1818 64.9334 50.0539 64.9608 51.2776C64.9608 51.3279 64.9608 51.3781 64.9608 51.4283C64.9608 52.5653 65.0567 52.6703 66.1708 52.7159C66.5955 52.7342 67.0201 52.7479 67.4448 52.7296C67.9927 52.7022 68.1525 52.547 68.1936 51.9991C68.2256 51.5516 68.2256 51.0995 68.2119 50.6521C68.1982 50.2913 68.3488 50.1726 68.6959 50.1726C70.1616 50.1863 69.8648 50.0813 69.8922 51.2868C69.9013 51.6109 69.8876 51.9351 69.9105 52.2593C69.9424 52.6338 70.1799 52.8392 70.536 52.8986C70.9013 52.9579 71.1205 52.7616 71.1387 52.3324C71.1616 51.7845 71.1616 51.232 71.1433 50.684C71.1296 50.2913 71.2894 50.1681 71.673 50.1726C73.1296 50.1818 72.8191 50.1087 72.851 51.305C72.8602 51.6064 72.8373 51.9077 72.8647 52.2045C72.8967 52.5698 73.1295 52.789 73.4674 52.8849C73.851 52.9945 74.1478 52.7844 74.1752 52.3507C74.2071 51.8027 74.2072 51.2502 74.1843 50.7023C74.1706 50.3233 74.2848 50.1635 74.6866 50.1681C76.1295 50.1909 75.8601 50.0767 75.8875 51.2868C75.8875 51.3872 75.8875 51.4877 75.8875 51.5881C75.8829 51.5881 75.8738 51.5881 75.8692 51.5881L75.8783 51.579Z" fill="#1F3062"/>
<path d="M82.513 52.4557C82.513 51.8301 82.5222 51.2046 82.513 50.5836C82.5085 50.2959 82.6363 50.2 82.9103 50.1681C84.2025 50.0311 84.2619 50.0767 84.2664 51.3507C84.2664 51.4237 84.2664 51.5014 84.2664 51.5744C84.271 52.5196 84.3988 52.6657 85.3212 52.7068C85.8189 52.7296 86.3212 52.7388 86.8189 52.7068C87.3029 52.6794 87.4307 52.547 87.4673 52.0584C87.5038 51.5881 87.4992 51.1087 87.4901 50.6338C87.4855 50.3279 87.586 50.1909 87.9102 50.1589C89.1567 50.0448 89.1978 50.0722 89.1978 51.3415C89.1978 51.6429 89.1887 51.9397 89.2024 52.2411C89.2206 52.5881 89.4307 52.7844 89.7457 52.8757C90.1339 52.9899 90.4078 52.7844 90.4261 52.3324C90.4489 51.7845 90.4535 51.232 90.4261 50.684C90.4078 50.2868 90.5676 50.1589 90.9512 50.1635C92.3301 50.1863 92.0836 50.0493 92.1064 51.2411C92.111 51.5151 92.1064 51.789 92.1155 52.0675C92.1247 52.3963 92.2799 52.6383 92.563 52.7936C93.0288 53.0538 93.4169 52.8575 93.4443 52.3232C93.4717 51.7753 93.4671 51.2228 93.4488 50.6749C93.4397 50.337 93.5402 50.1863 93.91 50.1635C95.1885 50.0859 95.1931 50.0722 95.1839 51.3598C95.1839 51.8575 95.2159 52.3598 95.1155 52.8529C94.805 54.3597 93.5402 55.0081 92.1749 54.2958C91.7548 54.0766 91.4672 54.0127 91.0425 54.2958C90.3713 54.7478 89.6453 54.6565 89.0243 54.1543C88.659 53.862 88.3668 53.7798 87.9878 54.1132C87.7412 54.3323 87.4262 54.4465 87.0883 54.4465C86.2892 54.4465 85.4856 54.5424 84.6956 54.3963C84.344 54.3323 84.1934 54.3963 84.1294 54.7478C84.0107 55.3734 83.7276 55.9259 83.3075 56.4053C82.7916 56.9898 82.1569 57.3734 81.3715 57.4236C80.8008 57.4601 80.2209 57.4373 79.6501 57.4601C79.335 57.4692 79.23 57.3186 79.157 57.0309C78.8419 55.757 78.8373 55.7615 80.1432 55.7615C80.7688 55.7615 81.3898 55.8072 81.9103 55.3369C82.2847 54.999 82.5176 54.6291 82.4948 54.104C82.4719 53.5561 82.4902 53.0036 82.4902 52.4557H82.513Z" fill="#1F3062"/>
<path d="M109.523 52.6337C109.418 52.2274 109.295 51.8712 109.281 51.4968C109.24 50.2457 110.099 49.2685 111.341 49.1955C111.688 49.1772 111.966 49.0859 112.213 48.8485C112.409 48.6567 112.628 48.4877 112.834 48.3097C112.971 48.1909 113.103 48.1955 113.231 48.3188C114.308 49.3644 115.386 50.4055 116.03 51.8027C116.624 53.0995 115.779 55.1725 113.628 54.8985C113.098 54.83 112.61 54.6337 112.149 54.3826C111.806 54.1954 111.491 54.1588 111.089 54.2638C109.765 54.6063 108.418 54.5332 107.071 54.3415C106.409 54.2456 106.071 53.8209 105.948 53.1999C105.907 53.0036 105.893 52.8027 105.893 52.6018C105.889 50.7753 105.884 48.9535 105.889 47.127C105.889 46.538 105.902 46.5197 106.464 46.5289C107.816 46.5471 107.642 46.3462 107.647 47.6521C107.656 49.0768 107.647 50.5014 107.651 51.926C107.651 52.652 107.688 52.6931 108.409 52.7068C108.752 52.7114 109.103 52.789 109.523 52.6383V52.6337ZM111.409 50.8438C111.099 50.8438 110.934 51.0356 110.939 51.3826C110.943 51.6977 111.281 52.1406 111.532 52.1634C111.779 52.1863 112.067 51.7845 112.044 51.442C112.025 51.0995 111.747 50.8393 111.404 50.8393L111.409 50.8438ZM113.898 51.6246C113.71 52.1771 113.569 52.5881 113.418 53.0219C113.761 53.1497 114.108 53.2593 114.308 52.9168C114.605 52.4237 114.176 52.1041 113.893 51.6246H113.898Z" fill="#1F3062"/>
<path d="M161.585 52.5377C161.289 52.3322 161.01 52.3962 160.754 52.3779C159.403 52.2957 158.805 51.7478 158.759 50.5423C158.709 49.2958 159.426 48.4054 160.622 48.2182C161.887 48.0219 162.978 48.6976 163.339 49.9259C163.595 50.798 163.645 51.7021 163.544 52.6016C163.435 53.5971 162.604 54.4007 161.567 54.4326C160.024 54.4783 158.471 54.5651 156.928 54.3779C156.608 54.3413 156.535 54.4509 156.471 54.6975C156.403 54.9623 156.344 55.2363 156.225 55.4829C155.64 56.7066 154.713 57.4463 153.303 57.46C153.079 57.46 152.851 57.4737 152.627 57.46C152.284 57.4371 151.837 57.6152 151.622 57.3549C151.348 57.0171 151.389 56.5057 151.325 56.0673C151.289 55.8299 151.453 55.7705 151.65 55.7705C152.125 55.7705 152.599 55.7705 153.074 55.7568C154.134 55.7294 154.796 55.0673 154.809 54.0171C154.818 52.9441 154.809 51.8665 154.814 50.7935C154.818 50.1862 154.828 50.1725 155.453 50.1725C156.736 50.1725 156.563 50.0309 156.567 51.2866C156.576 52.6427 156.59 52.6747 157.933 52.7021C158.955 52.7249 159.983 52.7112 161.006 52.7112C161.179 52.7112 161.357 52.7341 161.581 52.5377H161.585ZM161.636 50.6337C161.371 50.0492 161.069 49.8529 160.686 49.9624C160.49 50.0172 160.394 50.1542 160.38 50.3414C160.366 50.5515 160.494 50.6656 160.695 50.6839C160.992 50.7113 161.289 50.7524 161.636 50.6337Z" fill="#1F3062"/>
<path d="M96.6037 53.1038C96.6037 52.6198 96.6082 52.1951 96.6037 51.7705C96.5991 51.4965 96.7041 51.3778 96.9918 51.3458C98.2794 51.2043 98.3342 51.2454 98.3296 52.5467C98.3296 53.0946 98.3159 53.6471 98.3388 54.1951C98.3753 55.122 98.9187 55.6927 99.8319 55.7475C100.38 55.7795 100.932 55.7704 101.48 55.7475C102.069 55.7247 102.53 55.4462 102.85 54.953C103.22 54.3777 103.056 53.9896 102.384 53.9074C101.992 53.8572 101.585 53.8846 101.188 53.8663C100.526 53.8435 100.348 53.67 100.325 53.0125C100.311 52.4874 100.307 51.9623 100.325 51.4372C100.38 50.1632 101.211 49.2728 102.471 49.1541C102.941 49.113 103.421 49.1313 103.896 49.1267C104.046 49.1267 104.234 49.1267 104.284 49.2865C104.412 49.7203 104.412 50.1723 104.375 50.6198C104.361 50.807 104.165 50.8025 104.014 50.8025C103.613 50.8025 103.215 50.8025 102.814 50.8025C102.453 50.8025 102.188 50.9623 102.042 51.291C101.786 51.8664 101.969 52.154 102.59 52.1951C102.64 52.1951 102.69 52.1997 102.74 52.2043C104.307 52.3275 104.855 52.9942 104.695 54.5695C104.526 56.1905 103.293 57.3731 101.667 57.4416C100.992 57.469 100.316 57.469 99.6447 57.4416C98.2383 57.3913 97.0877 56.4233 96.7406 55.0489C96.5717 54.3823 96.6219 53.7065 96.6082 53.0946L96.6037 53.1038Z" fill="#1F3062"/>
<path d="M54.4104 57.4597C54.0862 57.4597 53.762 57.4734 53.4378 57.4597C52.0406 57.4004 50.8488 56.4141 50.552 55.0534C50.31 53.9438 50.4561 52.816 50.4333 51.6928C50.4287 51.4873 50.5429 51.3914 50.7484 51.3549C51.9173 51.1403 52.1319 51.3138 52.1319 52.5101C52.1319 53.058 52.1182 53.6105 52.141 54.1584C52.1821 55.1402 52.7026 55.6927 53.6661 55.752C54.214 55.784 54.7665 55.784 55.3144 55.752C55.9263 55.7155 56.4149 55.4233 56.7117 54.8799C57.0085 54.3411 56.8532 54.0123 56.2505 53.9301C55.8076 53.8708 55.3555 53.889 54.9081 53.8662C54.3327 53.8343 54.1592 53.6699 54.141 53.0854C54.1227 52.5101 54.1181 51.9348 54.1455 51.364C54.2095 50.1996 54.9811 49.3412 56.1409 49.186C56.6569 49.1175 57.1865 49.1449 57.7116 49.1357C57.8623 49.1357 58.0495 49.1357 58.0952 49.3001C58.2185 49.7339 58.2322 50.1859 58.1683 50.6334C58.1409 50.8206 57.9491 50.8069 57.803 50.8069C57.4057 50.8115 57.0039 50.7887 56.6067 50.8161C56.0907 50.848 55.8395 51.1083 55.7802 51.6106C55.7208 52.0854 55.7802 52.1631 56.2825 52.1996C56.6569 52.227 57.0267 52.2544 57.392 52.3548C58.013 52.5238 58.3829 52.9347 58.4787 53.5557C58.8349 55.9301 57.1363 57.5374 55.3099 57.4643C55.0085 57.4506 54.7117 57.4643 54.4104 57.4643V57.4597Z" fill="#1F3062"/>
<path d="M148.033 54.629C147.69 54.5742 147.348 54.5285 147.01 54.4555C145.818 54.1998 145.206 53.4829 145.142 52.2683C145.115 51.7158 145.161 51.1725 145.329 50.6428C145.407 50.4008 145.517 50.1816 145.676 49.9853C146.69 48.7616 149.042 49.1451 149.603 50.6245C149.745 50.999 149.827 51.3916 149.836 51.7935C149.854 52.6153 149.854 53.4372 149.891 54.2591C149.969 56.0262 148.444 57.4417 146.855 57.5513C146.334 57.5878 145.809 57.5604 145.284 57.5878C144.969 57.6015 144.823 57.4645 144.795 57.1677C144.768 56.8709 144.745 56.5696 144.704 56.2728C144.654 55.9212 144.827 55.8481 145.138 55.8527C145.635 55.8618 146.138 55.871 146.631 55.8299C147.402 55.766 147.891 55.3276 148.033 54.6153V54.629ZM148.188 52.1998C148.179 51.9259 148.192 51.6793 148.092 51.4464C147.955 51.1268 147.713 51.0035 147.384 51.04C147.069 51.072 146.905 51.2729 146.873 51.5788C146.841 51.8482 146.813 52.1222 146.923 52.3825C147.074 52.7478 147.448 52.9121 147.918 52.83C148.357 52.7569 148.11 52.4007 148.192 52.2044L148.188 52.1998Z" fill="#1F3062"/>
<path d="M120.222 54.4509C118.332 54.46 117.218 53.1449 117.501 51.524C117.592 50.9989 117.807 50.5286 118.131 50.0994C118.336 49.8254 118.752 49.6245 118.473 49.1542C118.414 49.0537 118.574 48.9396 118.661 48.8528C118.82 48.693 118.985 48.5423 119.149 48.3871C119.56 48.0081 119.565 48.0035 119.962 48.4145C120.587 49.0583 121.213 49.7067 121.825 50.3642C122.523 51.1176 122.688 51.9897 122.281 52.9303C121.852 53.9166 121.039 54.3869 120.227 54.4509H120.222ZM120.743 52.0263C120.743 51.7066 120.099 50.8984 119.857 50.9167C119.606 50.9395 119.108 51.6244 119.103 51.9623C119.094 52.3961 119.528 52.8025 119.989 52.7979C120.405 52.7934 120.743 52.4418 120.743 52.0217V52.0263Z" fill="#1F3062"/>
<path d="M78.7876 50.4419C78.7876 51.5879 78.7921 52.734 78.7876 53.8801C78.7876 54.4418 78.7739 54.4509 78.1985 54.4555C76.92 54.46 77.1255 54.5605 77.1209 53.3916C77.1118 51.2729 77.1164 49.1542 77.1209 47.0355C77.1209 46.3461 77.1301 46.3461 77.8287 46.3415C77.8789 46.3415 77.9291 46.3415 77.9794 46.3415C78.8789 46.3369 78.7921 46.3324 78.7921 47.1497C78.7921 48.2456 78.7921 49.3414 78.7921 50.4419H78.7876Z" fill="#1F3062"/>
<path d="M140.234 46.9715C140.325 47.1405 140.494 47.0629 140.631 47.0948C141.083 47.1861 141.375 47.4555 141.448 47.8574C141.521 48.2318 141.348 48.6336 141.037 48.8345C140.677 49.0628 140.243 49.0217 139.873 48.6975C139.782 48.6199 139.745 48.4783 139.69 48.3825C139.416 48.6108 139.261 48.7751 139.078 48.8847C138.736 49.0856 138.302 49.0354 138.033 48.7797C137.759 48.5194 137.663 48.1907 137.754 47.8208C137.85 47.4281 138.142 47.1816 138.54 47.1177C138.763 47.0811 138.978 47.2272 139.197 47.1313L139.183 47.1131C139.174 47.4053 139.425 47.4784 139.581 47.6519C139.745 47.4647 139.983 47.3871 139.946 47.1131L139.932 47.1222C140.115 47.2227 140.229 47.1816 140.252 46.9624L140.238 46.9807L140.234 46.9715Z" fill="#1F3062"/>
<path d="M131.261 44.7431C131.32 45.049 131.106 45.1586 130.855 45.2499C129.608 45.6974 128.366 46.1494 127.119 46.5969C126.941 46.6608 126.704 46.7887 126.626 46.4965C126.558 46.2499 126.435 45.9577 126.74 45.7522C126.8 45.7111 126.873 45.6837 126.946 45.6563C128.192 45.2134 129.439 44.7659 130.69 44.3321C131.188 44.1586 131.275 44.2317 131.27 44.7431H131.261Z" fill="#1F3062"/>
<path d="M161.854 46.2091C161.872 46.757 161.438 47.2273 160.9 47.241C160.356 47.2547 159.9 46.8164 159.881 46.2639C159.863 45.7251 160.311 45.2411 160.84 45.2274C161.393 45.2137 161.831 45.6383 161.854 46.2045V46.2091Z" fill="#1F3062"/>
<path d="M139.194 47.1271C139.254 46.8668 138.984 46.8486 138.879 46.7116C138.569 46.2961 138.564 45.7892 138.893 45.424C139.181 45.1043 139.683 45.0267 140.039 45.2459C140.464 45.5061 140.614 45.9993 140.441 46.4742C140.377 46.6477 140.135 46.7436 140.235 46.981L140.249 46.9627C140.062 46.8531 139.957 46.9125 139.93 47.1225L139.943 47.1134C139.688 46.9673 139.436 46.9627 139.181 47.1134L139.194 47.1317V47.1271Z" fill="#1F3062"/>
<path d="M179.215 84.9344L179.265 84.9116C179.292 84.9664 179.279 84.9664 179.224 84.9162L179.215 84.9344Z" fill="#1F3062"/>
<path d="M76.1584 106.988C76.1584 105.587 76.2634 104.194 76.6606 102.838C76.8387 102.235 77.0807 101.66 77.4277 101.135C78.9802 98.8015 82.2495 98.7193 83.9207 100.966C84.7928 102.144 85.1764 103.505 85.4093 104.925C85.7198 106.801 85.6421 108.66 85.044 110.472C84.9207 110.851 84.7654 111.226 84.5782 111.573C83.7609 113.112 82.5463 113.997 80.7245 113.906C78.9391 113.815 77.6332 113.02 76.8798 111.381C76.3547 110.249 76.204 109.039 76.1584 107.806C76.1492 107.532 76.1584 107.258 76.1584 106.979V106.988Z" fill="#FED402"/>
<path d="M28.1133 70.4321C29.5699 68.624 31.0219 66.8158 32.4785 65.0076C33.0903 64.2496 33.7067 63.4962 34.3186 62.7383C34.8391 62.0899 34.8117 62.2542 34.3917 61.6104C32.8392 59.2224 31.2822 56.8434 29.7342 54.4554C29.4922 54.0809 29.1954 53.7339 29.0493 53.3047C29.0859 53.2636 29.127 53.2225 29.1635 53.186C30.6338 53.7431 32.104 54.2955 33.5743 54.8572C35.2044 55.4827 36.8345 56.1174 38.4646 56.743C39.008 56.953 39.0171 56.9484 39.3915 56.4873C41.355 54.0581 43.3092 51.6244 45.2727 49.1952C45.4233 49.008 45.5192 48.7614 45.8526 48.6519C45.8526 48.8893 45.8617 49.0993 45.8526 49.3048C45.6836 52.323 45.5147 55.3412 45.3457 58.3594C45.3366 58.5101 45.3457 58.6607 45.3183 58.8068C45.2361 59.2224 45.3914 59.4278 45.8023 59.574C47.1402 60.0534 48.4644 60.5739 49.7977 61.0808C51.4552 61.7109 53.1081 62.3456 54.7656 62.9757C54.9528 63.0442 55.1491 63.0944 55.2998 63.2451C55.1674 63.4186 54.9665 63.4232 54.7838 63.4688C51.7702 64.2725 48.7566 65.0761 45.7384 65.8797C44.9667 66.0852 44.953 66.0852 44.9074 66.9117C44.8115 68.7335 44.7339 70.5554 44.6425 72.3773C44.5741 73.7243 44.4964 75.0713 44.4188 76.4183C44.4142 76.5324 44.4553 76.6648 44.3047 76.7836C44.1311 76.6877 44.0627 76.5005 43.9576 76.3452C42.2316 73.6832 40.5057 71.0212 38.7842 68.3591C38.3687 67.7199 38.4692 67.8386 37.8345 68.0075C34.8437 68.802 31.8575 69.6194 28.8713 70.4276C28.6566 70.4869 28.4466 70.5782 28.2137 70.5417C28.1818 70.5098 28.1498 70.4778 28.1178 70.4458L28.1133 70.4321Z" fill="#FFFFFE"/>
<path d="M29.0491 53.3002C28.9852 53.2683 28.9212 53.2226 28.9806 53.1495C29.0354 53.0902 29.1039 53.1358 29.1632 53.1769C29.1267 53.218 29.0856 53.2591 29.0491 53.2956V53.3002Z" fill="#FFFFFE"/>
<path d="M28.2085 70.528C28.1994 70.5919 28.1583 70.633 28.1035 70.6056C27.9985 70.5508 28.0624 70.4869 28.1126 70.4321C28.1446 70.4641 28.1766 70.4961 28.2085 70.528Z" fill="#FFFFFE"/>
<path d="M111.409 50.8438C111.747 50.8438 112.026 51.104 112.048 51.4465C112.067 51.7844 111.779 52.1862 111.537 52.1679C111.286 52.1451 110.948 51.7022 110.943 51.3871C110.939 51.0355 111.099 50.8483 111.414 50.8483L111.409 50.8438Z" fill="#FED402"/>
<path d="M113.897 51.6201C114.18 52.095 114.604 52.4146 114.312 52.9123C114.107 53.2548 113.764 53.1452 113.422 53.0173C113.568 52.5836 113.71 52.1726 113.901 51.6201H113.897Z" fill="#FED402"/>
<path d="M161.635 50.6338C161.293 50.7525 160.991 50.7114 160.694 50.684C160.494 50.6658 160.37 50.547 160.379 50.3416C160.389 50.1544 160.489 50.0174 160.685 49.9626C161.069 49.853 161.366 50.0493 161.635 50.6338Z" fill="#FED402"/>
<path d="M148.188 52.1999C148.11 52.3962 148.357 52.7524 147.914 52.8254C147.444 52.903 147.069 52.7387 146.919 52.3779C146.809 52.1177 146.841 51.8437 146.868 51.5743C146.9 51.2684 147.065 51.072 147.38 51.0355C147.708 50.999 147.955 51.1223 148.087 51.4419C148.188 51.6793 148.174 51.9259 148.183 52.1953L148.188 52.1999Z" fill="#FED402"/>
<path d="M120.741 52.0264C120.741 52.4465 120.398 52.7935 119.988 52.8026C119.526 52.8117 119.093 52.4008 119.102 51.967C119.111 51.6291 119.604 50.9442 119.855 50.9214C120.097 50.8985 120.746 51.7067 120.741 52.0309V52.0264Z" fill="#FED402"/>
<path d="M139.18 47.104C139.436 46.9533 139.687 46.9579 139.942 47.104C139.984 47.3734 139.746 47.4556 139.577 47.6428C139.422 47.4693 139.171 47.4008 139.18 47.104Z" fill="#FED402"/>
<path d="M139.928 47.1131C139.955 46.9031 140.06 46.8483 140.247 46.9533C140.225 47.1725 140.11 47.2136 139.928 47.1131Z" fill="#FED402"/>
</g>
<defs>
<clipPath id="clip0_4886_46062">
<rect width="192" height="192" fill="white"/>
</clipPath>
</defs>
</svg>
