<svg width="192" height="192" viewBox="0 0 192 192" fill="none" xmlns="http://www.w3.org/2000/svg">
<g clip-path="url(#clip0_5165_48406)">
<path d="M96 192C149.019 192 192 149.019 192 96C192 42.9807 149.019 0 96 0C42.9807 0 0 42.9807 0 96C0 149.019 42.9807 192 96 192Z" fill="white"/>
<path d="M106.529 86.196C106.495 86.9574 106.54 87.7414 105.959 88.3618C105.412 90.0256 105.389 91.6837 105.999 93.3419L105.976 93.2855C106.517 95.722 107.471 98.1867 105.435 100.426C104.12 102.749 102.084 103.274 99.5294 103.212C96.089 103.127 92.6204 102.845 89.1856 103.46C86.8958 103.607 84.5721 103.877 82.8519 101.824C83.6133 99.8054 84.3691 97.7806 85.1305 95.7615C85.3109 95.3441 85.1587 94.8139 85.5647 94.4699C86.5123 92.682 85.999 90.7136 86.2528 88.8412C86.5123 88.672 86.7435 88.7058 86.9635 88.9145C87.691 90.1496 87.2398 91.5766 87.6121 92.8738C87.6798 93.1332 87.7192 93.3927 87.7362 93.6634C87.7813 94.3233 87.3132 94.9324 87.3752 95.5189C87.4542 96.2803 87.77 95.3779 87.9956 95.4738C88.0858 95.4851 88.1817 95.4851 88.2663 95.5133C88.3509 95.5415 88.4806 95.6599 88.4863 95.6487C88.9488 95.1129 88.6442 94.4586 88.554 93.9566C88.0746 91.3171 88.2776 88.8073 89.5861 86.4216C89.0108 87.2507 89.18 88.5028 88.0463 88.9822C87.6967 88.4351 87.1891 88.1869 86.5461 88.1925C86.2528 87.2619 86.5066 86.1057 85.4181 85.5135C83.3031 81.6276 79.9417 79.2757 75.9542 77.5555C68.7406 74.4422 61.3578 71.6109 55.3004 66.3488C52.3676 63.7995 49.8183 60.9851 48.5324 57.2232C48.8877 56.4167 48.4308 55.723 48.2109 55.001C48.1037 54.6514 47.7315 54.6344 47.9796 54.9164C47.9796 54.9164 47.8668 55.0179 47.8048 55.0743C46.6994 52.9198 46.564 50.5454 46.2425 48.2104C46.5302 45.2212 46.6091 42.2377 46.2087 39.2541C45.7011 36.8909 46.6542 36.0054 49.0287 36.2592C50.6868 36.4397 52.3676 36.3607 54.0427 36.3946C53.3659 38.3912 51.7979 36.4679 51.0422 37.3929C55.0579 36.5018 59.395 37.6016 63.6194 36.4905C64.6177 36.513 65.6442 36.3213 66.5635 36.9135C67.2178 37.6805 67.9566 37.1786 68.6729 37.0488C69.5132 36.9642 70.3592 36.8909 71.0812 37.4775C70.8274 37.7877 70.5454 37.9005 70.207 37.6072C70.3705 37.782 70.5792 37.8497 70.8105 37.8272C71.4139 37.7764 72.0456 37.9738 72.6153 37.6298C75.3901 38.3742 78.165 39.1131 80.9399 39.8576C84.7357 41.0815 88.0915 42.9201 90.1162 46.5692C92.2313 49.9532 94.7298 53.1173 96.0439 57.9677C100.725 44.2624 110.403 38.3686 123.409 37.0601C129.36 37.1616 135.304 36.874 141.254 36.9699C145.264 37.0319 145.101 37.015 145.795 41.0702C146.274 43.8676 144.915 46.5974 145.823 49.3441C144.982 56.9186 141.598 63.0381 135.434 67.6008C131.029 70.8608 126.263 73.4213 121.131 75.3164C115.699 75.7337 112.022 79.5182 107.854 82.3157C106.602 83.1504 107.048 84.9157 106.529 86.196Z" fill="#8673B5"/>
<path d="M136.929 110.211C137.758 109.698 138.553 109.117 139.579 109.078C140.431 108.835 141.311 108.649 141.982 108.001H141.976C142.726 107.662 143.539 107.465 144.215 106.974C146.787 105.333 149.737 104.357 152.157 102.445C152.732 101.751 153.584 101.554 154.362 101.221C154.926 100.832 155.49 100.443 156.054 100.054C156.584 100.262 156.877 100.59 156.624 101.187C154.565 104.961 152.506 108.734 150.448 112.507C149.799 113.122 149.709 114.018 149.314 114.757C148.333 117.233 147.024 119.529 145.473 121.689C144.627 121.903 144.605 122.512 144.74 123.2C142.585 127.69 140.132 132.01 137.509 136.24L137.521 136.212C136.624 138.885 135.067 141.203 133.533 143.533L133.539 143.521C132.112 146.686 130.606 149.804 128.514 152.596C128.085 151.119 127.245 152.156 126.489 152.196C123.968 152.32 121.435 152.241 118.914 152.241C117.341 152.241 115.767 152.263 114.194 152.275C113.821 152.354 114.211 152.816 114.092 152.461C114.058 152.348 114.126 152.28 114.306 152.286C119.038 152.444 123.787 151.863 128.508 152.591C128.412 153.668 127.634 153.578 126.861 153.611C121.272 153.865 115.666 153.126 110.088 154.001C108.926 154.181 108.999 153.025 108.661 152.292C104.763 143.905 100.844 135.535 96.907 127.171C96.6475 126.613 96.4952 125.908 95.5139 125.637C91.0357 134.277 87.5727 143.454 82.79 151.982C80.6693 152.884 78.4246 152.85 76.1855 152.788C71.8032 152.67 67.4153 153.07 63.0386 152.562C60.0438 148.067 57.6693 143.223 55.1539 138.462C54.0879 137.317 55.4697 134.87 53.0163 134.464C51.4484 132.162 50.0496 129.765 48.9442 127.211C48.4817 126.466 48.8258 125.564 48.4704 124.802C48.29 123.99 47.9064 123.217 48.0644 122.354C48.1433 121.915 48.5945 121.317 47.6188 121.334C47.083 121.373 46.5923 121.587 46.0734 121.683C44.9793 120.048 43.8682 118.423 43.2647 116.523C43.699 116.077 43.8343 115.451 44.2122 114.977C44.325 114.848 44.4153 114.707 44.5111 114.566C44.607 114.413 44.6916 114.255 44.6634 114.097C44.6239 113.866 44.5957 113.906 44.6014 114.21C44.6014 114.284 44.5393 114.363 44.5168 114.458C44.0035 115.09 43.7441 115.874 43.2703 116.523C40.1458 111.012 37.0268 105.508 33.6992 99.6421C35.4138 99.7267 36.1357 100.691 37.0156 101.244C44.0487 105.649 51.5725 108.993 59.4516 111.543C61.2112 112.112 62.249 113.065 63.0837 114.701C66.0842 120.6 69.2426 126.415 72.6436 132.828C74.8714 128.175 77.0541 124.159 78.7235 119.946C79.9136 116.934 81.5379 116.32 84.6737 116.669C92.2314 117.504 99.8623 117.589 107.42 116.607C110.054 116.263 111.486 116.748 112.547 119.365C114.318 123.753 116.523 127.972 118.841 132.884C121.441 128.04 123.725 123.793 125.998 119.534C126.793 118.045 127.685 116.596 128.311 115.039C129.252 112.682 130.894 111.458 133.404 111.339C134.594 111.018 135.874 110.962 136.929 110.211Z" fill="#A3D065"/>
<path d="M52.9887 89.8843C55.1601 92.6987 56.3783 96.0432 58.0816 99.117C58.922 100.629 58.1267 101.012 56.8183 100.668C54.128 99.9574 51.4433 99.2185 48.9673 97.8875C47.8675 96.8215 46.3278 96.7708 45.0193 96.1729C36.3957 92.3998 29.2837 86.5793 22.8822 79.8112C22.2449 79.1401 21.664 78.3617 21.2579 77.5383C20.4288 75.8632 21.805 76.5344 22.4818 76.4836C27.3097 77.0589 32.1544 76.602 36.9879 76.7205C40.0618 76.7938 43.1356 76.6641 46.2094 76.8728C48.7699 81.0577 51.0711 85.3779 52.9943 89.8956C52.7405 90.1268 52.5036 90.3694 52.4303 90.7247C52.5262 90.375 52.7292 90.1099 52.9887 89.8843Z" fill="#8773B5"/>
<path d="M140.336 85.4799C141.786 82.9701 143.241 80.4659 144.69 77.9561C145.672 77.003 146.805 76.6815 148.21 76.6984C154.555 76.7773 160.9 76.7266 167.245 76.7379C169.85 76.7435 169.85 76.7548 168.892 79.2138C163.928 85.3051 157.73 89.896 151.046 93.8948C150.088 94.4701 149.157 95.0792 148.21 95.6714C147.77 96.2411 147.189 96.4497 146.489 96.3426C145.068 96.2805 143.822 96.681 142.62 97.4819C140.494 98.8975 140.06 98.6832 139.439 96.1621C139.321 95.6714 138.937 95.4064 138.638 95.0623C138.447 94.8875 138.272 94.6901 138.108 94.487C137.364 93.6636 137.099 92.7837 137.753 91.7685C138.368 90.8154 138.481 89.7268 138.565 88.6327C138.785 87.3806 139.304 86.2808 140.336 85.4799Z" fill="#8773B5"/>
<path d="M105.34 100.121C106.18 97.8992 106.101 95.5981 105.977 93.2856C107.291 96.8783 108.713 100.432 110.5 103.816C111.262 105.265 110.687 105.553 109.339 105.688C100.63 106.579 91.9109 106.692 83.2365 105.626C78.9839 105.107 83.0335 103.111 82.8586 101.825C84.8496 102.507 86.88 102.964 88.995 102.936C89.2657 102.733 89.5421 102.71 89.8354 102.879C92.5031 103.663 95.2441 103.376 97.9344 103.195C99.7392 103.071 101.471 103.088 103.202 103.539C104.11 103.985 104.962 104.616 106.056 104.481C106.93 104.368 108.194 104.774 108.515 103.776C108.791 102.919 107.94 102.084 107.178 101.509C106.66 101.12 106.005 100.939 105.537 100.465C105.475 100.347 105.407 100.234 105.34 100.121Z" fill="#8774B3"/>
<path d="M138.599 94.4812C139.321 95.1298 141.363 94.9663 140.043 96.8726C139.812 97.211 139.975 97.6227 140.381 97.7468C140.928 97.9103 141.515 97.8652 141.876 97.352C143.077 95.6656 144.831 96.066 146.489 96.1055C146.478 96.4834 146.111 96.5285 145.914 96.7316C142.141 98.2713 138.526 100.285 134.38 100.747C133.873 100.804 133.371 101.379 132.846 100.838C132.113 100.087 133.072 99.7039 133.28 99.2019C133.777 98.0231 134.73 97.0361 134.719 95.6487L134.702 95.6882C135.424 95.3667 135.728 94.7576 135.835 94.0131C136.439 91.9432 136.518 89.5575 139.095 88.7002C139.231 89.721 139.315 90.8603 138.582 91.5935C137.499 92.6708 138.373 93.5281 138.599 94.4812C138.215 95.3667 137.087 96.1563 138.3 97.2223C138.599 96.3424 138.001 95.3385 138.599 94.4812Z" fill="#8674B3"/>
<path d="M63.0449 152.573C63.7612 151.688 64.7651 151.998 65.6619 151.992C69.7791 151.964 73.8907 152.009 78.0079 151.964C79.3559 151.947 80.7659 152.32 82.0067 151.231C82.5143 150.786 82.6722 151.564 82.7963 151.987C82.4692 153.092 81.8375 153.645 80.5741 153.634C75.2612 153.577 69.9539 153.606 64.641 153.6C63.8909 153.606 63.0788 153.684 63.0449 152.573Z" fill="#9ED35E"/>
<path d="M145.818 49.3438C144.12 46.7155 145.592 43.9125 145.406 41.1996C145.175 37.7987 145.079 37.5449 141.672 37.5392C136.004 37.5336 130.33 37.5449 124.662 37.5167C124.239 37.5167 123.822 37.2177 123.404 37.0598C124.104 37.0147 124.797 36.9696 125.497 36.9245C127.189 36.2815 129.027 37.1783 130.702 36.4112C133.709 36.4056 136.715 36.4056 139.721 36.3999C141.227 36.8906 142.738 36.9076 144.244 36.3887C146.827 37.0373 146.111 39.0113 145.987 40.7428C146.325 42.5419 146.337 44.3411 145.976 46.1403C146.156 47.2231 146.117 48.2891 145.818 49.3438Z" fill="#8271B0"/>
<path d="M90.1099 46.5748C87.3576 43.9183 84.2161 41.7977 80.9336 39.8631C84.0582 39.0115 86.7767 39.8744 88.6322 42.3899C89.9633 44.189 92.3434 45.0463 93.0935 47.3813C91.8245 47.7648 91.6496 44.8715 90.1099 46.5748Z" fill="#FBFBF9"/>
<path d="M106.528 86.1958C105.429 81.4469 109.907 80.8096 112.23 78.6664C113.212 77.764 114.78 77.4538 115.214 75.9648C115.4 75.3331 115.84 75.1639 116.224 75.367C117.893 76.2637 119.495 75.1301 121.13 75.3106C117.227 77.6342 112.569 78.5254 109.252 82.0504C108.029 83.3476 107.673 84.9888 106.528 86.1958Z" fill="#8777AF"/>
<path d="M139.1 88.7C137.437 90.1156 137.296 92.4675 135.84 94.0128C134.216 89.5403 136.224 85.7277 140.341 85.4795C139.924 86.5511 139.512 87.6227 139.1 88.7Z" fill="#FBFBFA"/>
<path d="M168.891 79.2139C169.15 77.4768 168.716 76.8338 166.669 76.9297C161.553 77.1609 156.421 76.9974 151.294 77.0086C149.049 77.0143 146.765 76.7492 144.695 77.9562C144.887 77.065 145.271 76.377 146.325 76.377C154.498 76.377 162.664 76.377 171 76.377C170.566 77.7926 169.652 78.4468 168.891 79.2139Z" fill="#8577A7"/>
<path d="M46.2195 76.8733C44.9393 78.0013 43.58 76.8958 42.2659 76.9353C36.6541 77.1045 31.0366 77.0255 25.4191 76.9861C24.4321 76.9804 23.338 77.3527 22.4863 76.4785C29.9932 76.4446 37.4944 76.4108 45.0013 76.377C45.4751 76.377 45.9432 76.3826 46.2195 76.8733Z" fill="#8477A7"/>
<path d="M63.6203 36.496C63.5075 37.1164 63.1804 37.5168 62.5149 37.5168C58.3976 37.5225 54.2804 37.5225 49.6895 37.5225C51.3476 36.4791 52.9607 37.6296 54.0435 36.4001C57.2358 36.2648 60.4337 36.135 63.6203 36.496Z" fill="#8271B0"/>
<path d="M80.3828 155.782C74.8105 155.782 69.2325 155.782 63.6602 155.782C63.6602 155.687 63.6602 155.596 63.6602 155.5C69.2494 155.5 74.8387 155.5 80.4279 155.5C80.411 155.591 80.3997 155.687 80.3828 155.782Z" fill="#FEFEF6"/>
<path d="M46.0801 121.688C46.2042 120.301 46.9656 120.504 47.8398 120.978C48.3474 121.192 48.714 121.48 48.4038 122.1C48.5899 123.042 48.7816 123.978 48.9678 124.92C48.5899 125.219 48.2176 125.258 47.8398 124.926C47.445 124.176 47.3773 123.256 46.6497 122.687C46.458 122.354 46.2662 122.021 46.0801 121.688Z" fill="#A4D15F"/>
<path d="M53.0234 134.48C55.2456 134.182 55.3584 134.362 54.8395 136.302C54.6647 136.951 55.0369 137.746 55.161 138.474C54.1853 137.284 53.5536 135.907 53.0234 134.48Z" fill="#A4D165"/>
<path d="M46.2097 39.2598C47.0162 42.2433 46.9768 45.2269 46.2436 48.2161C45.939 45.2325 45.9164 42.2433 46.2097 39.2598Z" fill="#7E6FA4"/>
<path d="M74.2846 125.225C74.2508 126.246 74.623 127.374 73.574 127.989C73.416 128.079 72.931 127.966 72.8915 127.842C72.4178 126.505 73.7432 126.065 74.2846 125.225Z" fill="#FCFCF6"/>
<path d="M95.2949 131.181C95.357 130.329 95.4246 129.478 95.4867 128.626C96.4229 129.489 96.5132 130.363 95.2949 131.181Z" fill="#FCFDF6"/>
<path d="M34.5064 91.9316C33.7845 92.3208 33.0851 92.4787 32.5155 91.847C32.4083 91.7286 32.6621 91.0292 32.899 90.9164C33.8578 90.4596 34.1624 91.2097 34.5064 91.9316Z" fill="#FDFDF5"/>
<path d="M45.0293 96.1674C46.6085 96.1279 48.0805 96.3366 48.9773 97.8819C47.556 97.5435 46.1855 97.1036 45.0293 96.1674Z" fill="#8877B2"/>
<path d="M145.914 96.7317C146.106 96.523 146.298 96.3143 146.489 96.1057C147.059 95.959 147.634 95.818 148.204 95.6714C148.819 96.2297 149.242 96.8558 148.012 97.0363C147.347 97.1378 146.619 96.8445 145.914 96.7317Z" fill="#F8F7F7"/>
<path d="M106 93.3418C104.77 91.7739 105.459 90.0086 105.487 88.3109C105.487 88.2771 105.639 88.2207 105.712 88.2319C105.797 88.2432 105.876 88.3165 105.955 88.3673C105.972 90.0198 105.989 91.6836 106 93.3418Z" fill="#8071A3"/>
<path d="M130.71 36.4118C129.068 37.5229 127.241 36.7784 125.504 36.925C127.19 36.2877 128.95 36.3103 130.71 36.4118Z" fill="#8673B5"/>
<path d="M145.982 46.146C145.988 44.3469 145.988 42.5477 145.994 40.7485C146.597 42.5477 146.603 44.3469 145.982 46.146Z" fill="#8673B5"/>
<path d="M85.4199 85.519C87.4842 85.6657 86.4746 87.2787 86.7453 88.2826C86.8694 88.4067 86.9089 88.5365 86.8694 88.6549C86.8243 88.779 86.7848 88.841 86.7397 88.841H86.4972H86.2546C85.9726 87.7299 85.6963 86.6245 85.4199 85.519Z" fill="#826FAB"/>
<path d="M144.244 36.3945C142.738 37.3026 141.232 37.2913 139.721 36.4058C141.232 36.4002 142.738 36.3945 144.244 36.3945Z" fill="#8673B5"/>
<path d="M93.7666 45.238C93.0954 45.1929 93.0277 44.832 93.0559 44.4541C93.0954 44.0085 93.4282 43.8506 93.823 43.8506C94.2855 43.8506 94.5054 44.1777 94.3644 44.5612C94.2573 44.8602 93.9245 45.0688 93.7666 45.238Z" fill="#FBFBF9"/>
<path d="M47.8047 55.0801C47.9513 54.8093 47.8272 53.8449 48.4646 54.6965C49.0229 55.441 49.2937 56.366 48.5323 57.2233C48.2897 56.5126 48.0472 55.7963 47.8047 55.0801Z" fill="#8575A8"/>
<path d="M47.8787 58.8474C48.2679 59.1125 48.6909 59.4001 48.6006 59.9246C48.533 60.3251 48.1269 60.6014 47.7716 60.3984C47.5234 60.2574 47.3711 59.8288 47.3204 59.5016C47.2527 59.152 47.3204 58.7459 47.8787 58.8474Z" fill="#FDFDF5"/>
<path d="M47.9062 75.4122C48.3236 75.4009 48.6902 75.4742 48.5661 75.9649C48.4646 76.3766 48.239 76.7601 48.0698 77.1606C47.8329 76.9293 47.4832 76.7376 47.393 76.4612C47.2464 76.0157 47.3986 75.5814 47.9062 75.4122Z" fill="#FDFDF5"/>
<path d="M47.834 124.926C48.2119 124.926 48.5897 124.926 48.962 124.92C49.9828 125.693 48.742 126.449 48.9451 127.222C48.3811 126.556 47.9637 125.812 47.834 124.926Z" fill="#A4D165"/>
<path d="M134.724 95.643C134.104 95.5641 133.793 96.8049 133.117 96.1112C132.795 95.784 133.083 95.2031 133.489 94.9211C134.425 94.2725 134.555 95.0114 134.707 95.6769C134.701 95.6825 134.724 95.643 134.724 95.643Z" fill="#FAFAF5"/>
<path d="M133.882 149.105C133.476 148.202 133.363 147.345 134.023 146.437C134.88 147.559 133.64 148.259 133.882 149.105Z" fill="#FCFDF1"/>
<path d="M136.929 110.211C136.016 111.407 134.741 111.457 133.404 111.345C134.482 110.668 135.643 110.25 136.929 110.211Z" fill="#A6D166"/>
<path d="M154.362 101.232C153.786 101.926 153.076 102.377 152.156 102.456C152.929 102.106 152.5 99.6079 154.362 101.232Z" fill="#F6FAF0"/>
<path d="M85.564 94.4701C85.6035 94.9608 85.5245 95.412 85.1297 95.7617C84.7631 95.1751 84.3909 94.5886 83.9453 93.8836C84.7575 93.5621 85.0395 94.3799 85.564 94.4701Z" fill="#F9F8F8"/>
<path d="M68.6685 37.0543C67.9523 37.8383 67.0217 37.4886 66.17 37.5168C65.8147 37.5281 65.8034 37.2686 66.0572 37.0712C66.1869 36.9697 66.39 36.9697 66.5592 36.9189C67.2642 36.9641 67.9692 37.0092 68.6685 37.0543Z" fill="#7F70A7"/>
<path d="M156.624 101.198C156.433 100.821 156.246 100.443 156.055 100.065C156.461 99.4444 157.171 99.45 157.425 99.9181C157.651 100.341 157.239 100.973 156.624 101.198Z" fill="#AAD06E"/>
<path d="M144.74 123.211C144.12 122.704 144.12 122.123 144.616 121.553C144.926 121.198 145.242 121.333 145.473 121.706C145.231 122.208 144.988 122.71 144.74 123.211Z" fill="#A3CA60"/>
<path d="M144.194 99.3826C144.075 99.4785 143.884 99.7435 143.726 99.7266C143.421 99.6984 142.959 99.6364 143.043 99.1739C143.072 99.0103 143.455 98.8637 143.698 98.796C144.042 98.7114 144.166 98.9539 144.194 99.3826Z" fill="#F9F8F8"/>
<path d="M72.6089 37.6352C72.0618 38.2725 71.3286 38.0977 70.6405 38.0695C70.5503 38.0638 70.4713 37.8777 70.3867 37.7762C70.618 37.6803 70.8436 37.5788 71.0748 37.4829C71.588 37.5337 72.0956 37.5844 72.6089 37.6352Z" fill="#8372A7"/>
<path d="M149.314 114.768C149.258 113.798 149.422 112.941 150.448 112.518C150.414 113.443 149.974 114.165 149.314 114.768Z" fill="#A7D165"/>
<path d="M141.983 108.006C141.515 109.106 140.601 109.213 139.58 109.083C140.268 108.474 141.069 108.119 141.983 108.006Z" fill="#A6D166"/>
<path d="M46.6445 122.687C47.7443 123.059 47.8853 123.939 47.8346 124.926C47.1803 124.317 46.8081 123.556 46.6445 122.687Z" fill="#A4D165"/>
<path d="M144.216 106.979C143.748 107.933 142.907 108.068 141.977 108.006C142.608 107.414 143.325 107.002 144.216 106.979Z" fill="#A6D166"/>
<path d="M87.8658 88.847C88.5144 87.5216 89.163 86.2019 89.806 84.8765C88.458 89.0275 89.0333 93.2914 89.5127 97.6793C88.0181 97.3127 88.7513 95.9478 87.8658 95.6094C87.0311 95.0229 87.973 93.9851 87.3018 93.3534C86.7717 91.7629 86.9578 90.2571 87.8658 88.847Z" fill="#8773B0"/>
<path d="M89.5601 102.936C89.374 102.936 89.1822 102.936 88.9961 102.936C91.2803 101.729 93.7224 102.552 96.0856 102.4C99.323 102.197 102.82 103.173 105.341 100.116C105.459 100.257 105.583 100.386 105.679 100.539C106.277 101.447 107.078 102.456 106.328 103.483C105.555 104.538 104.376 104.069 103.35 103.641C99.8418 102.919 96.3112 103.731 92.7975 103.5C91.692 103.432 90.5527 103.629 89.5601 102.936Z" fill="#8473B1"/>
<path d="M87.3022 93.353C88.1256 93.9452 87.7872 94.8307 87.8662 95.609C87.6913 96.2689 88.2384 97.5041 87.3078 97.4759C86.208 97.4477 86.4674 96.314 86.7043 95.4962C86.9074 94.7856 87.1048 94.0693 87.3022 93.353Z" fill="#8772BA"/>
<path d="M87.8658 88.8466C87.832 90.3694 87.0198 91.7963 87.3018 93.353C86.1738 91.9655 86.9859 90.3355 86.7321 88.8409C86.7321 88.6548 86.7378 88.4687 86.7378 88.2826C87.3582 87.9836 87.894 87.8539 87.8658 88.8466Z" fill="#8772BA"/>
<path d="M48.3758 48.312C49.188 49.3836 49.0131 50.2465 48.765 51.2053C47.8908 50.3988 47.5411 49.5867 48.3758 48.312Z" fill="#8774AD"/>
<path d="M70.1855 73.2577C70.9921 73.0208 71.6181 72.9023 71.9339 73.675C72.0016 73.8442 71.7986 74.3292 71.7309 74.3236C71.0992 74.301 70.4901 74.1657 70.1855 73.2577Z" fill="#8872BE"/>
<path d="M128.507 152.596C123.285 152.596 118.062 152.596 112.839 152.596C112.834 152.393 112.828 152.184 112.828 151.981C116.331 151.981 119.839 151.868 123.341 152.021C125.845 152.128 128.039 152.083 128.208 148.411C129.669 150.12 127.317 151.4 128.513 152.607L128.507 152.596Z" fill="#9FD45E"/>
<path d="M99.1413 118.164C96.372 118.164 93.5972 118.164 90.8279 118.164C90.8279 118.039 90.8279 117.915 90.8223 117.786C94.8718 117.786 98.9213 117.786 103.309 117.786C101.95 118.417 100.794 118.045 99.6997 118.164C99.5135 118.389 99.3274 118.389 99.1413 118.164Z" fill="#A5CF60"/>
<path d="M99.1401 118.164C99.3262 118.164 99.5123 118.164 99.6985 118.164C100.178 119.06 101.283 118.395 102.028 119.139C98.1475 119.139 94.4307 119.139 90.0371 119.139C93.4606 118.118 96.4385 119.545 99.1401 118.164Z" fill="#A2D16D"/>
<path d="M52.9674 124.932C52.9674 125.992 52.8433 126.748 52.9899 127.447C53.3847 129.286 53.4299 129.274 50.7227 129.415C52.9335 128.355 50.9483 126.11 52.9674 124.932Z" fill="#A4D165"/>
<path d="M91.4551 131.598C91.0772 129.686 91.8612 128.671 92.6902 127.521C93.2599 129.105 92.2729 130.07 91.4551 131.598Z" fill="#A0D55A"/>
<path d="M61.3712 115.592C60.6662 115 59.8541 114.486 59.9725 113.466C59.9838 113.353 60.4801 113.144 60.655 113.217C61.7491 113.68 61.2754 114.735 61.3712 115.592Z" fill="#9ED45F"/>
<path d="M57.8899 135.665C57.9632 137.159 58.234 138.045 57.3372 138.592C57.1962 138.676 56.7224 138.524 56.6491 138.366C56.102 137.204 57.23 136.821 57.8899 135.665Z" fill="#A4D165"/>
<path d="M143.154 109.861C141.49 110.544 140.413 110.989 139.336 111.429C140.142 110.358 141.073 109.562 143.154 109.861Z" fill="#A2D06D"/>
<path d="M108.594 118.299C107.658 118.801 106.925 118.965 106 118.057C107.01 117.521 107.743 117.318 108.594 118.299Z" fill="#9FD35B"/>
<path d="M104.774 140.707C103.646 140.216 103.804 139.489 104.48 138.755C104.836 138.366 105.371 138.423 105.744 138.727C105.998 138.936 106.934 139.331 105.8 139.663C105.591 139.725 105.304 139.505 105.05 139.41C104.954 139.849 104.864 140.278 104.774 140.707Z" fill="#A4D165"/>
<path d="M44.4483 114.215C44.2678 113.561 43.5008 112.935 44.5047 112.083C45.2041 113.24 45.3394 114.272 44.4596 115.332C44.093 114.966 44.1437 114.593 44.4483 114.215Z" fill="#A5D16D"/>
<path d="M110.72 117.419C111.013 118.192 111.6 118.829 110.872 119.518C110.748 119.636 110.207 119.568 110.173 119.472C109.902 118.728 110.348 118.141 110.72 117.419Z" fill="#A4D15E"/>
<path d="M133.539 143.532C133.054 143.645 132.428 144.034 132.434 143.064C132.434 142.653 132.411 141.993 133.06 142.162C133.714 142.331 133.455 143.047 133.539 143.544V143.532Z" fill="#A5CE5E"/>
<path d="M48.4019 122.106C48.2158 121.734 48.024 121.356 47.8379 120.983C48.4188 120.25 48.9433 120.532 49.2366 121.181C49.5807 121.937 48.9208 122.004 48.4019 122.106Z" fill="#A4D165"/>
<path d="M102.271 134.057C101.798 133.2 101.865 132.45 102.209 131.576C102.683 132.427 102.615 133.183 102.271 134.057Z" fill="#A3D36F"/>
<path d="M42.5651 113.928C42.3451 113.629 42.1534 113.443 42.0575 113.217C41.877 112.777 42.1816 112.557 42.5369 112.416C42.9655 112.253 43.2645 112.36 43.1178 112.873C43.0163 113.212 42.7907 113.511 42.5651 113.928Z" fill="#A1D059"/>
<path d="M44.45 114.216C44.4557 114.588 44.4557 114.96 44.4613 115.338C44.0609 115.733 43.6661 116.133 43.2656 116.528H43.2713C43.3164 115.581 43.3784 114.644 44.45 114.216Z" fill="#A0D25A"/>
<path d="M130.132 113.522C130.567 113.46 130.691 113.697 130.623 113.962C130.572 114.176 130.403 114.453 130.217 114.52C129.935 114.622 129.698 114.402 129.771 114.092C129.828 113.866 130.025 113.68 130.132 113.522Z" fill="#A4D159"/>
<path d="M137.52 136.223C137.131 136.24 136.618 136.742 136.432 136.003C136.387 135.811 136.612 135.366 136.759 135.349C137.407 135.259 137.396 135.828 137.503 136.251C137.509 136.257 137.52 136.223 137.52 136.223Z" fill="#A4CF59"/>
<path d="M104.775 140.707C105.441 141.084 106.061 141.479 105.712 142.489C104.928 142.105 104.883 141.395 104.775 140.707Z" fill="#A4D165"/>
<path d="M49.4359 95.1072C48.3981 95.8968 47.7721 95.3272 47.1629 94.8026C47.1178 94.7632 47.3096 94.2556 47.4731 94.1992C48.415 93.8777 48.8888 94.4699 49.4359 95.1072Z" fill="#8877B2"/>
<path d="M52.9887 89.8843C52.921 90.516 52.8477 91.1533 52.718 92.3659C51.6464 90.9503 51.4997 90.2734 53.0056 89.8956C53.0056 89.8899 52.9887 89.8843 52.9887 89.8843Z" fill="#8A75C2"/>
<path d="M143.364 93.5278C142.879 94.5656 142.366 95.1409 141.39 94.8589C141.006 94.7461 140.837 94.3344 141.018 93.9847C141.525 93.0315 142.354 93.3699 143.364 93.5278Z" fill="#8674B3"/>
<path d="M141.132 88.0911C141.03 87.6004 140.901 87.3522 140.957 87.1492C141.025 86.901 141.194 86.5965 141.408 86.4949C141.78 86.3145 141.888 86.6303 141.792 86.9066C141.662 87.245 141.442 87.544 141.132 88.0911Z" fill="#8873C1"/>
<path d="M103.646 103.5C104.441 103.46 105.236 103.426 106.054 103.387C105.795 102.197 105.563 101.153 105.338 100.116C108.163 100.234 109.049 102.287 109.923 104.786C107.701 104.43 105.484 106.675 103.646 104.058C103.499 103.934 103.454 103.81 103.499 103.68C103.55 103.562 103.601 103.5 103.646 103.5Z" fill="#8673B5"/>
<path d="M103.647 103.499C103.647 103.686 103.647 103.877 103.647 104.063C99.9022 103.528 96.1628 104.25 92.4179 104.069C91.3181 104.018 90.1449 104.233 89.5527 102.935C93.3767 102.935 97.2006 102.918 101.025 102.947C101.921 102.958 102.92 102.642 103.647 103.499Z" fill="#8773B9"/>
<path d="M138.6 94.481C138.764 95.9304 139.988 97.4476 138.324 98.8125C136.604 95.4736 136.604 95.4736 138.6 94.481Z" fill="#8973B9"/>
</g>
<defs>
<clipPath id="clip0_5165_48406">
<rect width="192" height="192" fill="white"/>
</clipPath>
</defs>
</svg>
