<svg width="192" height="192" viewBox="0 0 192 192" fill="none" xmlns="http://www.w3.org/2000/svg">
<g clip-path="url(#clip0_4929_34413)">
<path d="M96 192C149.019 192 192 149.019 192 96C192 42.9807 149.019 0 96 0C42.9807 0 0 42.9807 0 96C0 149.019 42.9807 192 96 192Z" fill="#0077CC"/>
<path fill-rule="evenodd" clip-rule="evenodd" d="M106.305 127.416C97.9386 127.666 89.6684 125.576 82.4255 121.381L63.3733 110.337C62.9538 110.099 62.4672 110.008 61.9899 110.077C61.5126 110.146 61.0719 110.371 60.737 110.718L47.0392 125.122C46.4204 125.776 45.9447 126.553 45.6427 127.402C45.3431 128.251 45.2218 129.154 45.2864 130.052C45.3562 130.949 45.6148 131.82 46.0453 132.61C46.4761 133.4 47.0684 134.091 47.7838 134.637C53.3519 138.898 59.54 142.339 66.0487 144.861C71.1759 146.818 76.7671 147.215 82.1191 146.001C87.47 144.79 92.3435 142.019 96.1197 138.043L106.301 127.38L106.305 127.416ZM142.856 68.6346C139.479 62.9204 135.337 57.6946 130.544 53.1021C125.878 48.6227 119.795 45.9114 113.344 45.4356C107.182 44.9735 100.99 45.791 95.1579 47.8368C89.3242 49.8785 83.9746 53.1021 79.4437 57.3059C74.9122 61.5096 71.2963 66.5684 68.8203 72.2684C66.3468 77.9315 65.0674 84.0437 65.0619 90.2234V101.609C65.0619 102.322 65.2578 103.095 65.6319 103.747C66.0056 104.397 66.5453 104.937 67.1958 105.311L80.3699 112.934C87.7799 117.22 96.2694 119.297 104.823 118.919C113.378 118.541 121.648 115.725 128.656 110.804C132.219 108.289 135.624 105.453 138.717 102.336C143.028 97.964 145.773 92.2885 146.522 86.1939C147.272 80.0993 145.984 73.928 142.86 68.6418L142.856 68.6346Z" fill="white"/>
</g>
<defs>
<clipPath id="clip0_4929_34413">
<rect width="192" height="192" fill="white"/>
</clipPath>
</defs>
</svg>
